<svg viewBox="0 0 24 24" fill="currentColor" xmlns="http://www.w3.org/2000/svg">
  <path d="M4.58496 17.5C4.30882 17.5 4.08496 17.2761 4.08496 17V16.85C4.08496 16.51 4.24496 16.19 4.49496 16.04C6.18496 15.03 8.11496 14.5 10.085 14.5C10.1272 14.5 10.1704 14.4715 10.1769 14.4298C10.245 13.9881 10.3531 13.5588 10.4986 13.1497C10.6076 12.843 10.4104 12.5 10.085 12.5C7.66496 12.5 5.40496 13.17 3.47496 14.32C2.59496 14.84 2.08496 15.82 2.08496 16.85V19C2.08496 19.2761 2.30882 19.5 2.58496 19.5H10.3846C10.7891 19.5 11.0349 19.0376 10.8509 18.6774C10.7149 18.4112 10.5948 18.1349 10.492 17.851C10.4172 17.6443 10.2248 17.5 10.0049 17.5H4.58496Z" fill="currentColor" />
  <path d="M10.085 11.5C12.295 11.5 14.085 9.71 14.085 7.5C14.085 5.29 12.295 3.5 10.085 3.5C7.87496 3.5 6.08496 5.29 6.08496 7.5C6.08496 9.71 7.87496 11.5 10.085 11.5ZM10.085 5.5C11.185 5.5 12.085 6.4 12.085 7.5C12.085 8.6 11.185 9.5 10.085 9.5C8.98496 9.5 8.08496 8.6 8.08496 7.5C8.08496 6.4 8.98496 5.5 10.085 5.5Z" fill="currentColor" />
  <path
    d="M20.835 15.5C20.835 15.28 20.805 15.08 20.775 14.87L21.7927 13.9683C21.8638 13.9053 21.8808 13.8009 21.8332 13.7186L20.9969 12.2718C20.9493 12.1893 20.85 12.1519 20.7598 12.1824L19.465 12.62C19.145 12.35 18.785 12.14 18.385 11.99L18.1173 10.6605C18.0985 10.5672 18.0165 10.5 17.9212 10.5H16.2487C16.1535 10.5 16.0714 10.5672 16.0526 10.6605L15.785 11.99C15.385 12.14 15.025 12.35 14.705 12.62L13.4102 12.1824C13.3199 12.1519 13.2207 12.1893 13.173 12.2718L12.3367 13.7186C12.2891 13.8009 12.3061 13.9053 12.3772 13.9683L13.395 14.87C13.365 15.08 13.335 15.28 13.335 15.5C13.335 15.72 13.365 15.92 13.395 16.13L12.3772 17.0317C12.3061 17.0947 12.2891 17.1991 12.3367 17.2814L13.173 18.7282C13.2207 18.8107 13.3199 18.8481 13.4102 18.8176L14.705 18.38C15.025 18.65 15.385 18.86 15.785 19.01L16.0526 20.3395C16.0714 20.4328 16.1535 20.5 16.2487 20.5H17.9212C18.0165 20.5 18.0985 20.4328 18.1173 20.3395L18.385 19.01C18.785 18.86 19.145 18.65 19.465 18.38L20.7598 18.8176C20.85 18.8481 20.9493 18.8107 20.9969 18.7282L21.8332 17.2814C21.8808 17.1991 21.8638 17.0947 21.7927 17.0317L20.775 16.13C20.805 15.92 20.835 15.72 20.835 15.5ZM17.085 17.5C15.985 17.5 15.085 16.6 15.085 15.5C15.085 14.4 15.985 13.5 17.085 13.5C18.185 13.5 19.085 14.4 19.085 15.5C19.085 16.6 18.185 17.5 17.085 17.5Z"
    fill="currentColor" />
</svg>
