<svg viewBox="0 0 18 18" fill="currentColor" xmlns="http://www.w3.org/2000/svg">
  <path d="M1.4957 14.0043C1.82617 14.3348 2.22344 14.5 2.6875 14.5C3.15156 14.5 3.54883 14.3348 3.8793 14.0043C4.20977 13.6738 4.375 13.2766 4.375 12.8125C4.375 12.3484 4.20977 11.9512 3.8793 11.6207C3.54883 11.2902 3.15156 11.125 2.6875 11.125C2.22344 11.125 1.82617 11.2902 1.4957 11.6207C1.16523 11.9512 1 12.3484 1 12.8125C1 13.2766 1.16523 13.6738 1.4957 14.0043Z" fill="currentColor" />
  <path d="M1.4957 8.9418C1.82617 9.27227 2.22344 9.4375 2.6875 9.4375C3.15156 9.4375 3.54883 9.27227 3.8793 8.9418C4.20977 8.61133 4.375 8.21406 4.375 7.75C4.375 7.28594 4.20977 6.88867 3.8793 6.5582C3.54883 6.22773 3.15156 6.0625 2.6875 6.0625C2.22344 6.0625 1.82617 6.22773 1.4957 6.5582C1.16523 6.88867 1 7.28594 1 7.75C1 8.21406 1.16523 8.61133 1.4957 8.9418Z" fill="currentColor" />
  <path d="M1.4957 3.8793C1.82617 4.20977 2.22344 4.375 2.6875 4.375C3.15156 4.375 3.54883 4.20977 3.8793 3.8793C4.20977 3.54883 4.375 3.15156 4.375 2.6875C4.375 2.22344 4.20977 1.82617 3.8793 1.4957C3.54883 1.16523 3.15156 1 2.6875 1C2.22344 1 1.82617 1.16523 1.4957 1.4957C1.16523 1.82617 1 2.22344 1 2.6875C1 3.15156 1.16523 3.54883 1.4957 3.8793Z" fill="currentColor" />
  <path d="M6.5582 3.8793C6.88867 4.20977 7.28594 4.375 7.75 4.375C8.21406 4.375 8.61133 4.20977 8.9418 3.8793C9.27227 3.54883 9.4375 3.15156 9.4375 2.6875C9.4375 2.22344 9.27227 1.82617 8.9418 1.4957C8.61133 1.16523 8.21406 1 7.75 1C7.28594 1 6.88867 1.16523 6.5582 1.4957C6.22773 1.82617 6.0625 2.22344 6.0625 2.6875C6.0625 3.15156 6.22773 3.54883 6.5582 3.8793Z" fill="currentColor" />
  <path d="M11.6207 3.8793C11.9512 4.20977 12.3484 4.375 12.8125 4.375C13.2766 4.375 13.6738 4.20977 14.0043 3.8793C14.3348 3.54883 14.5 3.15156 14.5 2.6875C14.5 2.22344 14.3348 1.82617 14.0043 1.4957C13.6738 1.16523 13.2766 1 12.8125 1C12.3484 1 11.9512 1.16523 11.6207 1.4957C11.2902 1.82617 11.125 2.22344 11.125 2.6875C11.125 3.15156 11.2902 3.54883 11.6207 3.8793Z" fill="currentColor" />
  <path d="M7.08853 8.41147C6.5582 8.80162 6.0625 8.3189 6.0625 7.75C6.0625 7.28594 6.22773 6.88867 6.5582 6.5582C6.88867 6.22773 7.28594 6.0625 7.75 6.0625C7.95136 6.0625 8.14014 6.09361 8.31634 6.15583C8.70692 6.29374 8.70436 6.79564 8.41147 7.08853L7.08853 8.41147Z" fill="currentColor" />
  <path fill-rule="evenodd" clip-rule="evenodd" d="M16.75 10.5C16.75 9.6675 16.0825 9 15.25 9H13.75V8.25C13.75 7.4175 13.0825 6.75 12.25 6.75H10.75C9.9175 6.75 9.25 7.4175 9.25 8.25V9H7.75C6.9175 9 6.2575 9.6675 6.2575 10.5L6.25 15.25C6.25 16.0825 6.9175 16.75 7.75 16.75H15.25C16.0825 16.75 16.75 16.0825 16.75 15.25V10.5ZM12.25 8.25V9H10.75V8.25H12.25ZM7.75 11.25V10.5H15.25V11.25H7.75ZM15.25 12.75H7.75V15.25H15.25V12.75Z" fill="currentColor" />
</svg>
