<svg viewBox="0 0 24 24" fill="currentColor" xmlns="http://www.w3.org/2000/svg">
  <path d="M4.88881 7.83334C4.88881 7.37501 5.28881 7.00001 5.7777 7.00001H19.9999C20.4888 7.00001 20.8888 6.62501 20.8888 6.16668C20.8888 5.70834 20.4888 5.33334 19.9999 5.33334H4.88881C3.91103 5.33334 3.11103 6.08334 3.11103 7.00001V16.1667H2.66659C1.92881 16.1667 1.33325 16.725 1.33325 17.4167C1.33325 18.1083 1.92881 18.6667 2.66659 18.6667H13.7777V16.1667H4.88881V7.83334ZM21.7777 8.66668H16.4444C15.9555 8.66668 15.5555 9.04168 15.5555 9.50001V17.8333C15.5555 18.2917 15.9555 18.6667 16.4444 18.6667H21.7777C22.2666 18.6667 22.6666 18.2917 22.6666 17.8333V9.50001C22.6666 9.04168 22.2666 8.66668 21.7777 8.66668ZM20.8888 16.1667H17.3333V10.3333H20.8888V16.1667Z" fill="currentColor" />
</svg>
