<svg viewBox="0 0 24 24" fill="currentColor" xmlns="http://www.w3.org/2000/svg">
  <path
    d="M12 2C6.48 2 2 6.48 2 12C2 17.52 6.48 22 12 22C17.52 22 22 17.52 22 12C22 6.48 17.52 2 12 2ZM12 20C7.59 20 4 16.41 4 12C4 7.59 7.59 4 12 4C16.41 4 20 7.59 20 12C20 16.41 16.41 20 12 20ZM12.89 11.1C11.11 10.51 10.25 10.14 10.25 9.2C10.25 8.18 11.36 7.81 12.06 7.81C12.7271 7.81 13.1789 8.0667 13.4763 8.36489C13.8285 8.71804 14.3575 8.98142 14.8167 8.78671C15.2244 8.61384 15.4323 8.15017 15.1928 7.77772C14.8136 7.18803 14.1069 6.46337 12.88 6.25V5.875C12.88 5.39175 12.4882 5 12.005 5C11.5218 5 11.13 5.39175 11.13 5.875V6.26C8.53 6.82 8.51 9.11 8.51 9.22C8.51 11.49 10.76 12.13 11.86 12.53C13.44 13.09 14.14 13.6 14.14 14.56C14.14 15.69 13.09 16.17 12.16 16.17C11.1162 16.17 10.5 15.555 10.153 14.9888C9.87653 14.5379 9.32898 14.254 8.83852 14.4519C8.41885 14.6213 8.18566 15.0859 8.37872 15.4952C9.1264 17.0804 10.472 17.5524 11.12 17.71V18.125C11.12 18.6082 11.5118 19 11.995 19C12.4782 19 12.87 18.6082 12.87 18.125V17.76C13.39 17.67 15.89 17.17 15.89 14.54C15.9 13.15 15.29 11.93 12.89 11.1Z"
    fill="currentColor" />
</svg>
