<svg viewBox="0 0 24 24" fill="currentColor" xmlns="http://www.w3.org/2000/svg">
  <path d="M9 13.75C6.66 13.75 2 14.92 2 17.25V19H16V17.25C16 14.92 11.34 13.75 9 13.75ZM4.34 17C5.18 16.42 7.21 15.75 9 15.75C10.79 15.75 12.82 16.42 13.66 17H4.34ZM9 12C10.93 12 12.5 10.43 12.5 8.5C12.5 6.57 10.93 5 9 5C7.07 5 5.5 6.57 5.5 8.5C5.5 10.43 7.07 12 9 12ZM9 7C9.83 7 10.5 7.67 10.5 8.5C10.5 9.33 9.83 10 9 10C8.17 10 7.5 9.33 7.5 8.5C7.5 7.67 8.17 7 9 7ZM17.8972 14.1484C17.3998 14.0221 17.079 14.7174 17.3629 15.1449C17.7642 15.749 18 16.4464 18 17.25V19H22V17.25C22 15.7071 19.958 14.6717 17.8972 14.1484ZM15 12C16.93 12 18.5 10.43 18.5 8.5C18.5 6.57 16.93 5 15 5C14.5438 5 14.1161 5.09279 13.717 5.25425C13.6021 5.30074 13.5656 5.44234 13.6328 5.54655C14.1817 6.39836 14.5 7.41477 14.5 8.5C14.5 9.58523 14.1817 10.6016 13.6328 11.4535C13.5656 11.5577 13.6021 11.6993 13.717 11.7458C14.1161 11.9072 14.5438 12 15 12Z" fill="currentColor" />
</svg>
