<svg width="50" height="50" viewBox="0 0 50 50" fill="none" xmlns="http://www.w3.org/2000/svg">
<path d="M30.6984 12.7842V9L28.1486 11.8859C27.1441 11.6375 26.1011 11.4846 25 11.4846C17.8143 11.4846 12 17.2183 12 24.3089C12 29.3736 14.9941 33.7312 19.321 35.8144V40L22.1412 36.7892C23.0684 36.9994 24.0148 37.114 25 37.114C32.1857 37.114 38 31.3804 38 24.3089C38 19.2441 35.0252 14.8674 30.6984 12.7842ZM15.2452 24.3089C15.2452 19.0148 19.63 14.6954 25 14.6954C25.2125 14.6954 25.425 14.7146 25.6375 14.7337L20.1516 20.9451C19.6107 21.5568 19.321 22.3213 19.321 23.1239V32.0684C16.8678 30.3484 15.2452 27.5006 15.2452 24.3089ZM25 33.9032C24.9035 33.9032 24.7875 33.8841 24.6909 33.8841L29.8678 28.0166C30.4086 27.405 30.6984 26.6405 30.6984 25.8379V21.8816H27.0283V25.7423L22.9718 30.3484V23.2386L29.5393 15.8039C32.63 17.4094 34.7548 20.6202 34.7548 24.3089C34.7548 29.6029 30.3894 33.9032 25 33.9032Z" fill="black"/>
</svg>
