<svg xmlns="http://www.w3.org/2000/svg" fill="currentColor" viewBox="0 0 24 24" width="20" height="20" aria-hidden="true">
    <path fill="#6D6D6D" d="M9 13.75c-2.34 0-7 1.17-7 3.5V19h14v-1.75c0-2.33-4.66-3.5-7-3.5M4.34 17c.84-.58 2.87-1.25 4.66-1.25s3.82.67 4.66 1.25zM9 12c1.93 0 3.5-1.57 3.5-3.5S10.93 5 9 5 5.5 6.57 5.5 8.5 7.07 12 9 12m0-5c.83 0 1.5.67 1.5 1.5S9.83 10 9 10s-1.5-.67-1.5-1.5S8.17 7 9 7m8.897 7.148c-.497-.126-.818.57-.534.997A3.73 3.73 0 0 1 18 17.25V19h4v-1.75c0-1.543-2.042-2.578-4.103-3.102M15 12c1.93 0 3.5-1.57 3.5-3.5S16.93 5 15 5c-.456 0-.884.093-1.283.254-.115.047-.151.188-.084.293A5.44 5.44 0 0 1 14.5 8.5a5.44 5.44 0 0 1-.867 2.954c-.067.104-.03.245.084.292.4.161.827.254 1.283.254"/>
</svg>