<svg width="50" height="50" viewBox="0 0 50 50" fill="none" xmlns="http://www.w3.org/2000/svg">
<path d="M37.0801 14.4902L34.0464 26.7927L31.0041 14.4902H22.0808V19.033C21.0093 15.0571 17.2295 14.0579 13.7264 14.0012C9.46026 13.9462 4.98542 15.789 4.82019 21.4132H10.7233C10.7233 19.715 12.0299 18.7428 13.5016 18.7657C15.3072 18.753 16.141 19.5204 16.1845 20.7202C16.1214 21.7592 15.5056 22.4843 13.5152 22.4843H11.5308V26.5685H13.333C14.355 26.5685 15.7807 27.1219 15.837 28.5755C15.9059 30.3067 14.6957 31.0715 13.2112 31.0842C10.5547 30.9886 10.1254 28.952 10.1254 27.2048H4C4.0264 28.3809 3.73597 36.0552 13.3398 35.9993C17.9398 36.0416 21.1516 34.1142 22.0944 31.4574V35.528H28.1398V22.2601L31.4078 35.5314H36.6892L39.97 22.2728V35.545H46V14.4902H37.0801ZM22.097 26.7631C21.3458 25.2105 20.288 24.5311 19.6892 24.317C20.9387 23.7628 21.597 23.0115 22.097 21.5113V26.7631Z" fill="#EB3323"/>
</svg>
