<svg width="50" height="50" viewBox="0 0 50 50" fill="none" xmlns="http://www.w3.org/2000/svg">
<path fill-rule="evenodd" clip-rule="evenodd" d="M13.8896 17.6489L7 31.3913H10.6442L12.411 27.6919H19.3681L21.0184 31.3913H27.681L21.092 17.6489H13.8896ZM16.092 20.8391L18.319 25.3851L13.6748 25.3913L16.092 20.8391Z" fill="#0066CC"/>
<path fill-rule="evenodd" clip-rule="evenodd" d="M43.4042 19.2074C42.76 17.4283 40.9073 17.6614 40.9073 17.6614H35.6926C35.6926 17.6614 33.8398 17.4283 33.1956 19.2074C32.5514 20.9866 32.7662 28.9375 33.1956 29.7657C33.6251 30.5939 34.0913 31.3915 35.6619 31.3915H40.9318C42.5024 31.3915 42.9625 30.5939 43.3981 29.7657C43.8337 28.9375 44.0484 20.9866 43.4042 19.2074ZM39.8214 28.3792C39.8214 28.8148 39.4656 29.1645 39.0361 29.1645H37.576C37.1404 29.1645 36.7907 28.8148 36.7907 28.3792V20.6921C36.7907 20.2626 37.1404 19.913 37.576 19.913H39.0361C39.4717 19.913 39.8214 20.2626 39.8214 20.6921V28.3792Z" fill="#0066CC"/>
<path d="M27.7297 31.3915H31.6376L31.6499 17.6676H29.3247L25.1039 19.9375C25.1039 19.9375 25.0855 22.416 25.1039 22.3792H27.7297V31.3915Z" fill="#0066CC"/>
</svg>
