<svg width="50" height="50" viewBox="0 0 50 50" fill="none" xmlns="http://www.w3.org/2000/svg">
<path fill-rule="evenodd" clip-rule="evenodd" d="M13.8896 12.6523L7 26.3947H10.6442L12.411 22.6953H19.3681L21.0184 26.3947H27.681L21.092 12.6523H13.8896ZM16.092 15.8425L18.319 20.3885L13.6748 20.3947L16.092 15.8425Z" fill="#0066CC"/>
<path fill-rule="evenodd" clip-rule="evenodd" d="M43.4042 14.2108C42.76 12.4317 40.9073 12.6648 40.9073 12.6648H35.6926C35.6926 12.6648 33.8398 12.4317 33.1956 14.2108C32.5514 15.99 32.7662 23.9409 33.1956 24.7691C33.6251 25.5974 34.0913 26.3949 35.6619 26.3949H40.9318C42.5024 26.3949 42.9625 25.5974 43.3981 24.7691C43.8337 23.9409 44.0484 15.99 43.4042 14.2108ZM39.8214 23.3826C39.8214 23.8182 39.4656 24.1679 39.0361 24.1679H37.576C37.1404 24.1679 36.7907 23.8182 36.7907 23.3826V15.6955C36.7907 15.2661 37.1404 14.9164 37.576 14.9164H39.0361C39.4717 14.9164 39.8214 15.2661 39.8214 15.6955V23.3826Z" fill="#0066CC"/>
<path d="M27.7297 26.3949H31.6376L31.6499 12.671H29.3247L25.1039 14.9409C25.1039 14.9409 25.0855 17.4194 25.1039 17.3826H27.7297V26.3949Z" fill="#0066CC"/>
<path d="M13.0229 30.3112C14.7265 30.3112 15.6321 31.3308 15.7874 32.8133H14.7953C14.6495 31.7577 14.1865 31.123 13.0229 31.123C11.7017 31.123 10.9921 32.1748 10.9921 33.7741C10.9921 35.1357 11.1522 37.1908 12.935 37.1908C14.2086 37.1908 14.6305 36.5601 14.7953 35.5158H15.7874C15.6175 37.0698 14.4544 37.9974 12.935 37.9974C11.1737 37.9974 10 36.6152 10 34.5294C10 32.5341 10.566 30.3112 13.0229 30.3112Z" fill="#7F8BA5"/>
<path fill-rule="evenodd" clip-rule="evenodd" d="M18.9679 32.2327C20.5401 32.2327 21.5205 33.4462 21.5205 35.0586C21.5205 36.5759 20.5892 37.9974 18.9782 37.9974C17.2989 37.9972 16.4307 36.5652 16.4307 35.0586C16.4307 33.4371 17.4254 32.2329 18.9679 32.2327ZM18.9679 33.0137C17.7932 33.0139 17.3867 34.197 17.3867 35.1767C17.3867 36.2781 17.9129 37.2163 18.9782 37.2164C20.0462 37.2164 20.5594 36.267 20.5594 35.1767C20.5594 34.1824 20.1559 33.0137 18.9679 33.0137Z" fill="#7F8BA5"/>
<path d="M29.2314 32.3355H30.2752V33.0651H29.2314V36.5177C29.2314 36.8943 29.3607 37.0726 29.5467 37.1342C29.7901 37.2148 30.0515 37.1749 30.2959 37.1188L30.3011 37.8946C29.8644 38.0328 29.3379 38.0572 28.9162 37.8587C28.5224 37.6732 28.2755 37.2502 28.2755 36.5126V33.0651H27.2524V32.3355H28.2755V30.9843H29.2314V32.3355Z" fill="#7F8BA5"/>
<path fill-rule="evenodd" clip-rule="evenodd" d="M36.5277 32.2327C38.0999 32.2327 39.0803 33.4461 39.0803 35.0586C39.0803 36.5759 38.149 37.9974 36.538 37.9974C34.9618 37.9973 33.9905 36.777 33.9905 35.1767C33.9905 33.6613 34.9138 32.2329 36.5277 32.2327ZM36.5277 33.0137C35.353 33.0139 34.9465 34.197 34.9465 35.1767C34.9465 36.2781 35.4726 37.2163 36.538 37.2164C37.7208 37.2164 38.1192 36.0418 38.1192 35.0586C38.1192 33.9565 37.5947 33.0137 36.5277 33.0137Z" fill="#7F8BA5"/>
<path d="M25.0059 32.2327C26.1064 32.2327 26.7989 32.7793 26.7989 34.2519V37.8946H25.8378V34.2416C25.8378 33.357 25.437 33.0343 24.7217 33.0343C24.1132 33.0345 23.6281 33.3934 23.3575 33.9308V37.8946H22.4016V32.3355H23.3058L23.3355 33.0291C23.3464 33.0155 23.3567 33.0014 23.3678 32.988C23.7702 32.5052 24.3362 32.2329 25.0059 32.2327Z" fill="#7F8BA5"/>
<path d="M33.3575 32.2327C33.4949 32.2328 33.7122 32.2703 33.7813 32.3047L33.7761 33.1884C33.6211 33.1549 33.4942 33.1473 33.311 33.1473C32.6649 33.1473 32.2464 33.4527 32.0347 33.9449V37.8946H31.0788V32.3355H32.0089L32.027 32.9739C32.0294 32.9699 32.0323 32.9662 32.0347 32.9623C32.3198 32.4991 32.7569 32.2327 33.3575 32.2327Z" fill="#7F8BA5"/>
<path d="M41 37.8946H40.0389V30.0029H41V37.8946Z" fill="#7F8BA5"/>
</svg>
