<svg width="50" height="50" viewBox="0 0 50 50" fill="none" xmlns="http://www.w3.org/2000/svg">
<path d="M25.4503 15.7674C28.7752 15.7663 31.9193 17.6057 33.5477 20.5046C35.4674 19.9689 37.5904 20.2998 39.256 21.3944C40.9216 22.489 42.0677 24.3064 42.3378 26.2811C42.6078 28.2557 41.9916 30.3142 40.681 31.8157C39.3704 33.3172 37.4142 34.206 35.4211 34.2053C33.7063 34.2053 15.2846 34.2238 12.9316 34.2238C11.5211 34.2404 10.1252 33.6766 9.12193 32.685C8.11867 31.6935 7.53846 30.3043 7.53846 28.8938C7.53846 26.7453 8.88794 24.7529 10.8725 23.9513C11.5265 23.6872 12.2263 23.5555 12.9316 23.5638C13.0644 23.5638 13.1957 23.5704 13.3263 23.58C13.5034 22.766 13.9901 22.0528 14.6837 21.5914C15.3772 21.1299 16.223 20.9563 17.0422 21.1074C18.5577 17.8801 21.8886 15.7656 25.454 15.7674H25.4503ZM25.454 14.9956C21.7905 14.9963 18.3368 17.0593 16.5995 20.2847C15.7548 20.2847 14.9416 20.4926 14.2364 20.9703C13.5762 21.4176 13.0653 22.0527 12.77 22.7934C9.48761 22.895 6.81174 25.6932 6.85701 28.9768C6.87907 30.577 7.52883 32.1044 8.6663 33.2301C9.80377 34.3557 11.3379 34.9895 12.9382 34.9949C20.4342 34.9949 27.9303 34.9826 35.4263 34.9764C37.5843 34.9696 39.7019 34.0253 41.149 32.4244C42.5962 30.8235 43.3227 28.6217 43.1125 26.4739C42.9022 24.3262 41.7625 22.3071 40.0323 21.0172C38.3021 19.7274 36.0416 19.2117 33.9232 19.6235C32.0863 16.7667 28.8467 14.9973 25.4503 14.9956H25.454Z" fill="url(#paint0_linear_9176_22750)"/>
<path d="M16.1104 22.37L16.5222 22.488C16.5833 22.2772 16.6204 22.0694 16.7088 21.8667L16.3097 21.7081C16.5571 21.1605 16.1638 22.1833 16.1104 22.37ZM15.8972 23.2598C15.8404 23.5668 15.7968 23.8804 15.7695 24.1925L16.1968 24.2301C16.222 23.9439 16.247 23.6581 16.3001 23.3757L15.8994 23.2598H15.8972ZM15.7334 25.1274C15.7334 25.4403 15.7504 25.7566 15.7828 26.0667L16.2093 26.0232C16.1772 25.7264 16.1872 25.4285 16.1872 25.1303L15.7334 25.1274ZM16.3104 26.7227L15.8883 26.7964C15.9444 27.1041 16.016 27.4133 16.1016 27.7136L16.5141 27.597C16.4331 27.3136 16.378 27.0294 16.3259 26.7389L16.3104 26.7227ZM16.8018 28.4522L16.4026 28.6094C16.5177 28.9001 16.6476 29.1894 16.79 29.4683L17.1722 29.2735C17.0351 29.0058 16.9147 28.7308 16.8018 28.4522ZM17.6253 30.0541L17.2645 30.2851C17.4327 30.5485 17.6164 30.8068 17.8098 31.0525L18.1418 30.7861C17.9563 30.551 17.7825 30.3065 17.6201 30.0527L17.6253 30.0541ZM18.7321 31.4679L18.4222 31.7631C18.6376 31.9888 18.8649 32.2058 19.104 32.4116L19.3844 32.087C19.1603 31.8874 18.9562 31.6669 18.7321 31.4679ZM20.0935 32.6426L19.8463 32.9931C20.1016 33.1739 20.3687 33.3443 20.6402 33.4993L20.8527 33.1303C20.5999 32.9853 20.253 32.8978 20.0935 32.6426ZM21.6555 33.5339L21.4799 33.9258C21.7655 34.0534 22.0606 34.1692 22.3573 34.2681L22.4938 33.8616C22.2782 33.7893 21.7835 33.7322 21.6555 33.5339ZM29.505 33.4122C29.2307 33.5457 28.9692 33.6384 28.6875 33.7428L28.835 34.1449C29.1302 34.0357 29.4202 33.9117 29.7013 33.776L29.505 33.4122ZM30.2945 32.9798L30.5159 33.3487C30.7823 33.1857 31.0442 33.0071 31.2936 32.8182L31.0354 32.4758C31.0354 32.4758 30.371 32.9331 30.2945 32.9798ZM31.7371 31.8892L32.0278 32.205C32.258 31.9933 32.4808 31.7682 32.6919 31.535L32.3724 31.2488C32.1461 31.4403 31.9571 31.6877 31.7371 31.8892ZM32.9737 30.4954L33.3191 30.75C33.505 30.4976 33.6806 30.2334 33.8407 29.9656L33.4718 29.7442C33.3082 29.9968 33.1529 30.2531 32.9737 30.4954ZM33.8917 28.9982L34.279 29.1812C34.4126 28.8986 34.5336 28.6057 34.6391 28.3113L34.2355 28.1637L33.8917 28.9982ZM34.4724 27.2982L34.8885 27.4022C34.9623 27.099 35.0265 26.7883 35.073 26.4784L34.6487 26.415C34.6487 26.415 34.5449 27.008 34.4724 27.2982ZM35.1564 24.6271L34.7284 24.6455C34.7284 24.9444 34.7434 25.2405 34.7291 25.5443L35.1571 25.5664C35.1729 25.2548 35.1739 24.9336 35.1608 24.6264L35.1564 24.6271ZM34.8915 22.761L34.4746 22.8621C34.5431 23.1478 34.6295 23.4319 34.6295 23.7284L35.0538 23.6686C35.0404 23.5734 34.8872 22.7556 34.8915 22.761ZM34.2724 20.9842L33.8828 21.1643L33.899 21.7265C33.9281 21.8013 33.9554 21.8766 33.9809 21.9523L34.386 21.8114C34.2835 21.5162 34.1647 21.2211 34.0333 20.9377L34.2724 20.9842Z" fill="#FFC66E"/>
<path d="M14.3359 23.7504C14.5865 23.8187 14.8326 23.8215 15.093 23.8338L15.2715 23.4442C15.0013 23.3877 14.7273 23.3507 14.4518 23.3335L14.3359 23.7504Z" fill="#FFC66E"/>
<path d="M16.9199 32.4176L17.2298 32.7127C17.443 32.4889 17.6381 32.2486 17.8135 31.994L17.3302 31.9092C17.1959 32.0862 17.0745 32.2548 16.9199 32.4176Z" fill="#FFC66E"/>
<path d="M17.7518 31.169V31.1875L18.1377 31.3742C18.2723 31.096 18.3843 30.8076 18.4727 30.5116L18.041 30.4171C17.964 30.6748 17.8673 30.9262 17.7518 31.169Z" fill="#FFC66E"/>
<path d="M16.5325 24.956L16.8277 24.6424C16.6014 24.432 16.3586 24.24 16.1016 24.0684L15.8633 24.4248C16.0988 24.5813 16.3268 24.7658 16.5325 24.956Z" fill="#FFC66E"/>
<path d="M15.4492 33.55L15.6506 33.9286C15.9236 33.7833 16.1844 33.6162 16.4306 33.429L16.1708 33.0881C16.1011 33.3003 15.6694 33.55 15.4492 33.55Z" fill="#FFC66E"/>
<path d="M17.5233 26.2436L17.8996 26.0377C17.7744 25.802 17.6332 25.5752 17.4768 25.3589L17.1396 25.6208C17.2713 25.798 17.5233 26.0096 17.5233 26.2436Z" fill="#FFC66E"/>
<path d="M18.2565 28.6669C18.2688 28.9526 18.2585 29.2388 18.2255 29.5228L18.6512 29.573C18.6873 29.2662 18.6986 28.957 18.6852 28.6484L18.2565 28.6669Z" fill="#FFC66E"/>
<path d="M19.4932 23.1904L19.8968 23.0428C19.7881 22.7376 19.6392 22.4483 19.4541 22.1825L19.1006 22.4304C19.2645 22.6653 19.3965 22.9208 19.4932 23.1904Z" fill="#FFC66E"/>
<path d="M17.4552 27.3144L17.5873 27.7224C17.7582 27.666 17.9249 27.5975 18.0861 27.5173C18.0861 27.6586 18.0712 27.8084 18.0912 27.9482L18.5133 27.8744C18.4498 27.383 18.2919 26.9816 18.2181 26.9056C18.0789 26.9923 17.481 27.206 17.4552 27.3144Z" fill="#FFC66E"/>
<path d="M14.3126 26.6857L14.0174 26.9978C14.2539 27.2204 14.5192 27.4103 14.8062 27.5623L15.0069 27.183C14.7626 27.0539 14.5165 26.8771 14.3126 26.6857Z" fill="#FFC66E"/>
<path d="M13.4002 25.3318L12.9892 25.4521C13.0801 25.7633 13.2122 26.0611 13.3818 26.3375L13.7507 26.1161C13.6052 25.8787 13.4788 25.5983 13.4002 25.3318Z" fill="#FFC66E"/>
<path d="M17.799 21.3457C18.0436 21.4558 18.216 21.5211 18.4299 21.6991L18.7044 21.3701C18.4552 21.1616 18.179 20.9878 17.8831 20.8535L17.799 21.3457Z" fill="#FFC66E"/>
<path d="M18.9004 26.3006L19.2214 26.5847C19.4368 26.3416 19.6184 26.0706 19.7615 25.7789L19.3497 25.6948C19.2464 25.9039 19.0508 26.1182 18.9004 26.3006Z" fill="#FFC66E"/>
<path d="M20.0985 23.9976L19.6705 24.0308C19.6926 24.316 19.6759 24.6029 19.6211 24.8837L20.0424 24.9656C20.1042 24.6469 20.123 24.3213 20.0985 23.9976Z" fill="#FFC66E"/>
<path d="M15.7618 27.4191L15.668 27.8375C15.9854 27.9041 16.3102 27.9279 16.6339 27.9083L16.614 27.4804C16.3275 27.5094 16.0479 27.4191 15.7618 27.4191Z" fill="#FFC66E"/>
<path d="M32.9615 20.2382C32.6751 20.3388 32.3951 20.4571 32.1233 20.5924L32.3144 20.9761C32.5739 20.8468 32.8306 20.7666 33.0995 20.6706L32.9615 20.2382ZM31.3382 21.0499C31.0852 21.2179 30.8425 21.401 30.6114 21.5981L30.8903 21.9242C31.1078 21.7382 31.3365 21.5657 31.5751 21.4077L31.3382 21.0499ZM29.3866 22.9373L29.7334 23.186C29.8881 22.9689 30.0547 22.7703 30.2277 22.5684L29.9555 22.2268C29.9611 22.2338 29.4349 22.8695 29.3866 22.9373ZM28.5232 24.5311L28.9224 24.6876C29.0028 24.4814 29.2434 24.1661 29.2434 23.9504L29.2478 23.943L28.8708 23.7394C28.881 23.7298 28.5551 24.4497 28.5232 24.5311ZM28.0577 26.4371L28.4841 26.4821C28.4841 26.2377 28.5222 26.0102 28.5786 25.7715L28.161 25.6741C28.2791 25.3484 28.0733 26.2922 28.0577 26.4371ZM28.0215 27.4929C28.0328 27.7942 28.0635 28.1007 28.1108 28.3976L28.5343 28.3297C28.5343 28.0687 28.4852 27.8023 28.4753 27.5402L28.0215 27.4929ZM28.7291 29.1967L28.3181 29.317C28.4032 29.6085 28.5064 29.8943 28.6273 30.1729L29.0206 30.0024C28.9387 29.8127 28.8762 29.3237 28.7291 29.1967ZM29.4382 30.8148L29.0693 31.0362C29.2259 31.2964 29.3984 31.5468 29.5858 31.7859L29.9237 31.5217C29.7452 31.2967 29.6144 31.0415 29.4382 30.8148ZM30.4882 32.1585L30.1857 32.4618C30.4 32.6766 30.6275 32.8779 30.8667 33.0646L31.1309 32.7259C30.9036 32.5491 30.6853 32.3645 30.4882 32.1585Z" fill="#FFC66E"/>
<path d="M31.9474 33.2786L31.7334 33.6475C31.9966 33.7989 32.2689 33.9339 32.5487 34.0518L32.7155 33.6571L31.9474 33.2786Z" fill="#FFC66E"/>
<path d="M12.9316 23.5638L12.8922 23.5638C12.8371 23.8334 12.8123 24.1084 12.8184 24.3836L13.2471 24.3703C13.2471 24.1606 13.2632 23.9362 13.3054 23.7305C13.1976 23.5704 13.0644 23.5638 12.9316 23.5638Z" fill="#FFC66E"/>
<defs>
<linearGradient id="paint0_linear_9176_22750" x1="24.9996" y1="34.9956" x2="24.9996" y2="14.9956" gradientUnits="userSpaceOnUse">
<stop stop-color="#FF8923"/>
<stop offset="1" stop-color="#FFB40B"/>
</linearGradient>
</defs>
</svg>
