<svg width="50" height="50" viewBox="0 0 50 50" fill="none" xmlns="http://www.w3.org/2000/svg">
<rect width="50" height="50" fill="#001F12"/>
<path fill-rule="evenodd" clip-rule="evenodd" d="M11.8418 23.3281C12.5205 23.3311 13.139 23.7141 13.4355 24.3184L13.6719 24.7969H14.0312V23.4639H15.7627V30.2959H14.0312V28.9629H13.6738L13.4375 29.4414C13.141 30.0479 12.5232 30.4324 11.8447 30.4326H11.8164C10.1292 30.4325 9 29.1283 9 26.8809C9.00007 24.6334 10.1295 23.3281 11.8145 23.3281H11.8418ZM12.3936 24.7959C11.2947 24.7959 10.6758 25.5447 10.6758 26.8779C10.6758 28.2113 11.2947 28.96 12.3936 28.96C13.5475 28.9599 14.125 28.2657 14.125 26.8779C14.1249 25.4903 13.5474 24.796 12.3936 24.7959Z" fill="white"/>
<path fill-rule="evenodd" clip-rule="evenodd" d="M18.4385 24.7979H18.7959L19.0322 24.3184C19.3288 23.7121 19.9466 23.3283 20.625 23.3281L20.6533 23.3271C22.3404 23.3274 23.4697 24.6338 23.4697 26.8789C23.4696 29.1238 22.3403 30.4295 20.6533 30.4297H20.625C19.9466 30.4266 19.3288 30.0434 19.0322 29.4395L18.7959 28.96H18.4385V30.2939H16.707V20.7158H18.4385V24.7979ZM20.0752 24.7969C18.9215 24.797 18.3447 25.4912 18.3447 26.8789C18.3448 28.2664 18.9216 28.9598 20.0752 28.96C21.174 28.96 21.7929 28.212 21.793 26.8789C21.793 25.5456 21.2292 24.7969 20.0752 24.7969Z" fill="white"/>
<path fill-rule="evenodd" clip-rule="evenodd" d="M30.2012 23.3281C32.3719 23.3282 33.5811 24.5933 33.5811 26.8789C33.581 29.1644 32.3718 30.4296 30.2012 30.4297C28.0304 30.4297 26.8214 29.1645 26.8213 26.8789C26.8213 24.5932 28.0303 23.3281 30.2012 23.3281ZM30.2012 24.8105C29.1023 24.8105 28.4971 25.5596 28.4971 26.8789C28.4971 28.1981 29.1023 28.9326 30.2012 28.9326C31.2864 28.9325 31.9042 28.198 31.9043 26.8789C31.9043 25.5597 31.2999 24.8106 30.2012 24.8105Z" fill="white"/>
<path d="M26.0117 30.2939H24.2803V23.4639H26.0117V30.2939Z" fill="white"/>
<path d="M38.3066 23.3281C40.1891 23.3281 41 24.2668 41 26.457V30.293H39.2686V26.7021C39.2686 25.3688 38.8151 24.8105 37.7021 24.8105C36.5894 24.8107 36.1221 25.3689 36.1221 26.7021V30.293H34.3906V23.4639H35.999V24.7969H36.3564L36.5234 24.457C36.8528 23.7819 37.5347 23.3282 38.293 23.3281H38.3066Z" fill="white"/>
<path d="M25.2666 20C25.3569 20.3048 25.5245 20.5874 25.7666 20.8271C26.008 21.0668 26.2969 21.2326 26.6016 21.3223V21.5508C26.294 21.6405 26.008 21.8063 25.7666 22.0459C25.5251 22.285 25.3574 22.5712 25.2666 22.873H25.0361C24.9459 22.5683 24.7782 22.2856 24.5361 22.0459C24.2948 21.8063 24.0058 21.6434 23.7012 21.5508V21.3223C24.0087 21.2326 24.2942 21.0668 24.5361 20.8271C24.7776 20.588 24.9429 20.3018 25.0361 20H25.2666Z" fill="white"/>
</svg>
