<svg width="50" height="50" viewBox="0 0 50 50" fill="none" xmlns="http://www.w3.org/2000/svg">
<path d="M14.7434 15.25V10.25C14.7434 9.56124 15.3178 8.99999 16.0255 8.99999C16.7345 8.99999 17.3075 8.43999 17.3075 7.75C17.3075 7.06 16.7345 6.5 16.0255 6.5C13.9049 6.5 12.1792 8.18249 12.1792 10.25V15.25C12.1792 16.6287 11.0292 17.75 9.61508 17.75C8.9061 17.75 8.33301 18.31 8.33301 19C8.33301 19.69 8.9061 20.25 9.61508 20.25C11.0292 20.25 12.1792 21.3712 12.1792 22.75V27.7499C12.1792 29.8174 13.9049 31.4999 16.0255 31.4999C16.7345 31.4999 17.3075 30.9399 17.3075 30.2499C17.3075 29.5599 16.7345 28.9999 16.0255 28.9999C15.3178 28.9999 14.7434 28.4387 14.7434 27.7499V22.75C14.7434 21.25 14.0485 19.9175 12.9716 19C14.0485 18.0825 14.7434 16.75 14.7434 15.25Z" fill="#9777A8"/>
<path d="M25.0006 16.5001C26.0627 16.5001 26.9237 15.6606 26.9237 14.6251C26.9237 13.5896 26.0627 12.7501 25.0006 12.7501C23.9385 12.7501 23.0775 13.5896 23.0775 14.6251C23.0775 15.6606 23.9385 16.5001 25.0006 16.5001Z" fill="#9777A8"/>
<path d="M40.3842 17.75C38.9701 17.75 37.8201 16.6287 37.8201 15.25V10.25C37.8201 8.18249 36.0944 6.5 33.9738 6.5C33.2648 6.5 32.6918 7.06 32.6918 7.75C32.6918 8.43999 33.2648 8.99999 33.9738 8.99999C34.6815 8.99999 35.2559 9.56124 35.2559 10.25V15.25C35.2559 16.75 35.9508 18.0825 37.0277 19C35.9508 19.9175 35.2559 21.25 35.2559 22.75V27.7499C35.2559 28.4387 34.6815 28.9999 33.9738 28.9999C33.2648 28.9999 32.6918 29.5599 32.6918 30.2499C32.6918 30.9399 33.2648 31.4999 33.9738 31.4999C36.0944 31.4999 37.8201 29.8174 37.8201 27.7499V22.75C37.8201 21.3712 38.9701 20.25 40.3842 20.25C41.0932 20.25 41.6663 19.69 41.6663 19C41.6663 18.31 41.0932 17.75 40.3842 17.75Z" fill="#9777A8"/>
<path d="M25.0005 21.5001C24.2915 21.5001 23.7185 22.0601 23.7185 22.7501V26.5001C23.7185 27.1901 24.2915 27.75 25.0005 27.75C25.7095 27.75 26.2826 27.1901 26.2826 26.5001V22.7501C26.2826 22.0601 25.7095 21.5001 25.0005 21.5001Z" fill="#9777A8"/>
<path d="M6.66992 44.0039V38.7207H5.76172V44.0039H6.66992Z" fill="#7F8BA5"/>
<path d="M5.69336 37.3193C5.69336 37.599 5.87371 37.8271 6.22559 37.8271C6.57658 37.8271 6.7627 37.5946 6.7627 37.3193C6.7627 37.0287 6.57343 36.7969 6.22559 36.7969C5.87682 36.7969 5.69336 37.024 5.69336 37.3193Z" fill="#7F8BA5"/>
<path d="M32.7842 44.0039V38.7207H31.876V44.0039H32.7842Z" fill="#7F8BA5"/>
<path d="M31.8076 37.3193C31.8076 37.599 31.988 37.8271 32.3398 37.8271C32.6908 37.8271 32.877 37.5946 32.877 37.3193C32.877 37.0287 32.6877 36.7969 32.3398 36.7969C31.9911 36.7969 31.8076 37.024 31.8076 37.3193Z" fill="#7F8BA5"/>
<path fill-rule="evenodd" clip-rule="evenodd" d="M33.7949 41.4209C33.7949 39.9809 34.6675 38.623 36.1924 38.623C37.7391 38.623 38.6045 40.0038 38.6045 41.4209C38.6045 42.9286 37.7123 44.1016 36.2021 44.1016C34.7342 44.1016 33.7949 42.841 33.7949 41.4209ZM34.6982 41.4209C34.6982 42.4679 35.1951 43.3594 36.2021 43.3594C37.2455 43.3594 37.6963 42.3318 37.6963 41.4209C37.6963 40.4805 37.2732 39.3652 36.1924 39.3652C35.0948 39.3652 34.6982 40.5001 34.6982 41.4209Z" fill="#7F8BA5"/>
<path d="M40.4414 44.0039V40.2336C40.6976 39.724 41.156 39.3848 41.7305 39.3848C42.4068 39.3848 42.7852 39.6911 42.7852 40.5322V44.0039H43.6934V40.542C43.6934 39.4802 43.1705 38.623 41.999 38.623C41.3488 38.623 40.8021 38.8975 40.421 39.378L40.3926 38.7207H39.5381V44.0039H40.4414Z" fill="#7F8BA5"/>
<path d="M30.9434 38.7207V39.4141H29.957V42.6953C29.957 42.8743 29.9847 43.0094 30.04 43.1006C30.2271 43.4087 30.6675 43.3348 30.9629 43.2666L30.9678 44.0039C30.3548 44.1989 29.5515 44.1541 29.2148 43.5303C29.1074 43.3219 29.0537 43.042 29.0537 42.6904V39.4141H28.0869V38.7207H29.0537V37.4365H29.957V38.7207H30.9434Z" fill="#7F8BA5"/>
<path d="M26.8418 42.6025C26.8418 43.0395 26.4547 43.3594 25.7041 43.3594C25.0817 43.3594 24.4843 43.0396 24.4492 42.373H23.541C23.541 43.5078 24.6892 44.1016 25.7041 44.1016C26.9706 44.1016 27.7451 43.4414 27.7451 42.5342C27.7451 41.6846 27.1445 41.25 25.8457 40.957C24.8424 40.7326 24.6299 40.5232 24.6299 40.1416C24.6299 39.7444 24.9432 39.3652 25.6797 39.3652C26.1978 39.3652 26.7881 39.6898 26.7881 40.2734H27.6914C27.6914 39.1775 26.6524 38.623 25.6797 38.623C24.7795 38.623 23.7217 39.1568 23.7217 40.166C23.7217 41.0468 24.4722 41.4459 25.626 41.6895C26.1377 41.7899 26.8418 41.9677 26.8418 42.6025Z" fill="#7F8BA5"/>
<path fill-rule="evenodd" clip-rule="evenodd" d="M20.8555 44.1016C19.3206 44.1016 18.4287 42.8176 18.4287 41.3428C18.4287 39.6131 19.5559 38.623 20.7383 38.623C22.4037 38.623 22.9111 40.1555 22.9111 41.6162H19.3378C19.3603 42.5119 19.9284 43.3643 20.9043 43.3643C21.5423 43.3643 21.9639 43.0827 22.2959 42.6465L22.8428 43.0811C22.5022 43.5967 21.9082 44.1016 20.8555 44.1016ZM19.3642 40.8789H22.0078C22.0078 40.1285 21.5607 39.3652 20.7383 39.3652C20.0276 39.3652 19.4874 39.8999 19.3642 40.8789Z" fill="#7F8BA5"/>
<path fill-rule="evenodd" clip-rule="evenodd" d="M17.4902 38.7207H16.6699L16.6278 39.3101C16.2826 38.8795 15.7898 38.623 15.1172 38.623C13.649 38.623 13.0322 40.0496 13.0322 41.3184C13.0322 42.5917 13.6169 44.1016 15.1074 44.1016C15.7577 44.1016 16.2441 43.8779 16.5869 43.4697V43.9355C16.5869 44.8568 16.0434 45.3467 15.1855 45.3467C14.713 45.3467 14.2148 45.1707 13.7695 44.6338L13.2959 45.1709C13.7242 45.7828 14.5256 46.0889 15.2539 46.0889C16.5352 46.0889 17.4902 45.2124 17.4902 43.8916V38.7207ZM16.5869 40.1535V42.5413C16.3327 43.0407 15.8989 43.335 15.3271 43.335C14.2575 43.335 13.9355 42.2273 13.9355 41.3184C13.9355 40.4372 14.2872 39.3848 15.3369 39.3848C15.9672 39.3848 16.3591 39.7097 16.5869 40.1535Z" fill="#7F8BA5"/>
<path d="M8.80287 39.378L8.77441 38.7207H7.91992V44.0039H8.82324V40.2336C9.0794 39.724 9.53781 39.3848 10.1123 39.3848C10.7886 39.3848 11.167 39.6911 11.167 40.5322V44.0039H12.0752V40.542C12.0752 39.4803 11.5523 38.623 10.3809 38.623C9.73064 38.623 9.18405 38.8975 8.80287 39.378Z" fill="#7F8BA5"/>
</svg>
