<svg width="50" height="50" viewBox="0 0 50 50" fill="none" xmlns="http://www.w3.org/2000/svg">
<path d="M14.7434 15.25V10.25C14.7434 9.56124 15.3178 8.99999 16.0255 8.99999C16.7345 8.99999 17.3075 8.43999 17.3075 7.75C17.3075 7.06 16.7345 6.5 16.0255 6.5C13.9049 6.5 12.1792 8.18249 12.1792 10.25V15.25C12.1792 16.6287 11.0292 17.75 9.61508 17.75C8.9061 17.75 8.33301 18.31 8.33301 19C8.33301 19.69 8.9061 20.25 9.61508 20.25C11.0292 20.25 12.1792 21.3712 12.1792 22.75V27.7499C12.1792 29.8174 13.9049 31.4999 16.0255 31.4999C16.7345 31.4999 17.3075 30.9399 17.3075 30.2499C17.3075 29.5599 16.7345 28.9999 16.0255 28.9999C15.3178 28.9999 14.7434 28.4387 14.7434 27.7499V22.75C14.7434 21.25 14.0485 19.9175 12.9716 19C14.0485 18.0825 14.7434 16.75 14.7434 15.25Z" fill="#9777A8"/>
<path d="M25.0006 16.5001C26.0627 16.5001 26.9237 15.6606 26.9237 14.6251C26.9237 13.5896 26.0627 12.7501 25.0006 12.7501C23.9385 12.7501 23.0775 13.5896 23.0775 14.6251C23.0775 15.6606 23.9385 16.5001 25.0006 16.5001Z" fill="#9777A8"/>
<path d="M40.3842 17.75C38.9701 17.75 37.8201 16.6287 37.8201 15.25V10.25C37.8201 8.18249 36.0944 6.5 33.9738 6.5C33.2648 6.5 32.6918 7.06 32.6918 7.75C32.6918 8.43999 33.2648 8.99999 33.9738 8.99999C34.6815 8.99999 35.2559 9.56124 35.2559 10.25V15.25C35.2559 16.75 35.9508 18.0825 37.0277 19C35.9508 19.9175 35.2559 21.25 35.2559 22.75V27.7499C35.2559 28.4387 34.6815 28.9999 33.9738 28.9999C33.2648 28.9999 32.6918 29.5599 32.6918 30.2499C32.6918 30.9399 33.2648 31.4999 33.9738 31.4999C36.0944 31.4999 37.8201 29.8174 37.8201 27.7499V22.75C37.8201 21.3712 38.9701 20.25 40.3842 20.25C41.0932 20.25 41.6663 19.69 41.6663 19C41.6663 18.31 41.0932 17.75 40.3842 17.75Z" fill="#9777A8"/>
<path d="M25.0005 21.5001C24.2915 21.5001 23.7185 22.0601 23.7185 22.7501V26.5001C23.7185 27.1901 24.2915 27.75 25.0005 27.75C25.7095 27.75 26.2826 27.1901 26.2826 26.5001V22.7501C26.2826 22.0601 25.7095 21.5001 25.0005 21.5001Z" fill="#9777A8"/>
<path fill-rule="evenodd" clip-rule="evenodd" d="M15.4492 41.4205C15.4492 42.8406 16.3885 44.1012 17.8564 44.1012C19.3232 44.1012 20.2588 42.8373 20.2588 41.4205C20.2588 39.9732 19.3743 38.6227 17.8467 38.6227C16.3044 38.6227 15.4492 40.0119 15.4492 41.4205ZM16.3525 41.4205C16.3525 40.4823 16.7644 39.3648 17.8467 39.3648C18.9275 39.3648 19.3506 40.4801 19.3506 41.4205C19.3506 42.4569 18.8658 43.359 17.8564 43.359C16.8494 43.359 16.3525 42.4675 16.3525 41.4205Z" fill="#7F8BA5"/>
<path d="M22.0947 44.0035V40.2475C22.3716 39.6025 23.0817 39.3877 23.7402 39.5309L23.7451 38.691C23.1445 38.3907 22.4099 38.8053 22.0881 39.3267L22.0703 38.7203H21.1914V44.0035H22.0947Z" fill="#7F8BA5"/>
<path fill-rule="evenodd" clip-rule="evenodd" d="M28.5254 38.7203H27.7051L27.663 39.3098L27.6562 39.3014C27.3122 38.8599 26.8183 38.6227 26.1523 38.6227C24.6182 38.6227 24.0674 40.1252 24.0674 41.4205C24.0674 42.9534 24.887 44.1012 26.1426 44.1012C26.7929 44.1012 27.2793 43.8775 27.6221 43.4693V43.9352C27.6221 44.8564 27.0785 45.3463 26.2207 45.3463C25.7481 45.3463 25.2499 45.1703 24.8047 44.6334L24.3311 45.1705C24.7594 45.7824 25.5608 46.0885 26.2891 46.0885C27.6108 46.0885 28.5254 45.2859 28.5254 43.8912V38.7203ZM27.6221 40.1531V42.5409C27.3678 43.0403 26.9341 43.3346 26.3623 43.3346C25.2561 43.3346 24.9707 42.2182 24.9707 41.318C24.9707 40.2326 25.4125 39.3844 26.3721 39.3844C27.0023 39.3844 27.3943 39.7093 27.6221 40.1531Z" fill="#7F8BA5"/>
<path d="M32.7744 42.6021C32.7744 43.0392 32.3873 43.359 31.6367 43.359C31.0143 43.359 30.4169 43.0392 30.3818 42.3727H29.4736C29.4736 43.5074 30.6218 44.1012 31.6367 44.1012C32.5787 44.1012 33.6777 43.6249 33.6777 42.5338C33.6777 41.6842 33.0772 41.2496 31.7783 40.9566C30.775 40.7322 30.5625 40.5228 30.5625 40.1412C30.5625 39.744 30.8758 39.3648 31.6123 39.3648C32.1304 39.3648 32.7207 39.6895 32.7207 40.273H33.624C33.624 39.1772 32.585 38.6227 31.6123 38.6227C30.7122 38.6227 29.6543 39.1564 29.6543 40.1656C29.6543 41.0464 30.4048 41.4455 31.5586 41.6891C32.0703 41.7895 32.7744 41.9673 32.7744 42.6021Z" fill="#7F8BA5"/>
</svg>
