<svg width="50" height="50" viewBox="0 0 50 50" fill="none" xmlns="http://www.w3.org/2000/svg">
<path d="M14.7434 15.2461V10.2461C14.7434 9.55733 15.3178 8.99609 16.0255 8.99609C16.7345 8.99609 17.3075 8.43609 17.3075 7.74609C17.3075 7.05609 16.7345 6.49609 16.0255 6.49609C13.9049 6.49609 12.1792 8.17859 12.1792 10.2461V15.2461C12.1792 16.6248 11.0292 17.7461 9.61508 17.7461C8.9061 17.7461 8.33301 18.3061 8.33301 18.9961C8.33301 19.6861 8.9061 20.2461 9.61508 20.2461C11.0292 20.2461 12.1792 21.3673 12.1792 22.746V27.746C12.1792 29.8135 13.9049 31.496 16.0255 31.496C16.7345 31.496 17.3075 30.936 17.3075 30.246C17.3075 29.556 16.7345 28.996 16.0255 28.996C15.3178 28.996 14.7434 28.4348 14.7434 27.746V22.746C14.7434 21.246 14.0485 19.9136 12.9716 18.9961C14.0485 18.0786 14.7434 16.7461 14.7434 15.2461Z" fill="#9777A8"/>
<path d="M25.0006 16.4962C26.0627 16.4962 26.9237 15.6567 26.9237 14.6212C26.9237 13.5856 26.0627 12.7462 25.0006 12.7462C23.9385 12.7462 23.0775 13.5856 23.0775 14.6212C23.0775 15.6567 23.9385 16.4962 25.0006 16.4962Z" fill="#9777A8"/>
<path d="M40.3842 17.7461C38.9701 17.7461 37.8201 16.6248 37.8201 15.2461V10.2461C37.8201 8.17859 36.0944 6.49609 33.9738 6.49609C33.2648 6.49609 32.6918 7.05609 32.6918 7.74609C32.6918 8.43609 33.2648 8.99609 33.9738 8.99609C34.6815 8.99609 35.2559 9.55733 35.2559 10.2461V15.2461C35.2559 16.7461 35.9508 18.0786 37.0277 18.9961C35.9508 19.9136 35.2559 21.246 35.2559 22.746V27.746C35.2559 28.4348 34.6815 28.996 33.9738 28.996C33.2648 28.996 32.6918 29.556 32.6918 30.246C32.6918 30.936 33.2648 31.496 33.9738 31.496C36.0944 31.496 37.8201 29.8135 37.8201 27.746V22.746C37.8201 21.3673 38.9701 20.2461 40.3842 20.2461C41.0932 20.2461 41.6663 19.6861 41.6663 18.9961C41.6663 18.3061 41.0932 17.7461 40.3842 17.7461Z" fill="#9777A8"/>
<path d="M25.0005 21.4962C24.2915 21.4962 23.7185 22.0562 23.7185 22.7462V26.4961C23.7185 27.1861 24.2915 27.7461 25.0005 27.7461C25.7095 27.7461 26.2826 27.1861 26.2826 26.4961V22.7462C26.2826 22.0562 25.7095 21.4962 25.0005 21.4962Z" fill="#9777A8"/>
<path fill-rule="evenodd" clip-rule="evenodd" d="M15.4492 41.4166C15.4492 42.8367 16.3885 44.0973 17.8564 44.0973C19.3232 44.0973 20.2588 42.8334 20.2588 41.4166C20.2588 39.9693 19.3743 38.6188 17.8467 38.6188C16.3044 38.6188 15.4492 40.0079 15.4492 41.4166ZM16.3525 41.4166C16.3525 40.4784 16.7644 39.3609 17.8467 39.3609C18.9275 39.3609 19.3506 40.4762 19.3506 41.4166C19.3506 42.453 18.8658 43.3551 17.8564 43.3551C16.8494 43.3551 16.3525 42.4636 16.3525 41.4166Z" fill="black"/>
<path d="M22.0947 43.9996V40.2436C22.3716 39.5986 23.0817 39.3838 23.7402 39.527L23.7451 38.6871C23.1445 38.3868 22.4099 38.8014 22.0881 39.3228L22.0703 38.7164H21.1914V43.9996H22.0947Z" fill="black"/>
<path fill-rule="evenodd" clip-rule="evenodd" d="M28.5254 38.7164H27.7051L27.663 39.3059L27.6562 39.2975C27.3122 38.856 26.8183 38.6188 26.1523 38.6188C24.6182 38.6188 24.0674 40.1213 24.0674 41.4166C24.0674 42.9495 24.887 44.0973 26.1426 44.0973C26.7929 44.0973 27.2793 43.8736 27.6221 43.4654V43.9313C27.6221 44.8525 27.0785 45.3424 26.2207 45.3424C25.7481 45.3424 25.2499 45.1664 24.8047 44.6295L24.3311 45.1666C24.7594 45.7785 25.5608 46.0846 26.2891 46.0846C27.6108 46.0846 28.5254 45.282 28.5254 43.8873V38.7164ZM27.6221 40.1492V42.537C27.3678 43.0364 26.9341 43.3307 26.3623 43.3307C25.2561 43.3307 24.9707 42.2143 24.9707 41.3141C24.9707 40.2287 25.4125 39.3805 26.3721 39.3805C27.0023 39.3805 27.3943 39.7054 27.6221 40.1492Z" fill="black"/>
<path d="M32.7744 42.5982C32.7744 43.0352 32.3873 43.3551 31.6367 43.3551C31.0143 43.3551 30.4169 43.0353 30.3818 42.3688H29.4736C29.4736 43.5035 30.6218 44.0973 31.6367 44.0973C32.5787 44.0973 33.6777 43.621 33.6777 42.5299C33.6777 41.6803 33.0772 41.2457 31.7783 40.9527C30.775 40.7283 30.5625 40.5189 30.5625 40.1373C30.5625 39.7401 30.8758 39.3609 31.6123 39.3609C32.1304 39.3609 32.7207 39.6855 32.7207 40.2691H33.624C33.624 39.1732 32.585 38.6188 31.6123 38.6188C30.7122 38.6188 29.6543 39.1525 29.6543 40.1617C29.6543 41.0425 30.4048 41.4416 31.5586 41.6852C32.0703 41.7856 32.7744 41.9634 32.7744 42.5982Z" fill="black"/>
</svg>
