<svg width="50" height="50" viewBox="0 0 50 50" fill="none" xmlns="http://www.w3.org/2000/svg">
<path d="M14.7434 15.2461V10.2461C14.7434 9.55733 15.3178 8.99609 16.0255 8.99609C16.7345 8.99609 17.3075 8.43609 17.3075 7.74609C17.3075 7.05609 16.7345 6.49609 16.0255 6.49609C13.9049 6.49609 12.1792 8.17859 12.1792 10.2461V15.2461C12.1792 16.6248 11.0292 17.7461 9.61508 17.7461C8.9061 17.7461 8.33301 18.3061 8.33301 18.9961C8.33301 19.6861 8.9061 20.2461 9.61508 20.2461C11.0292 20.2461 12.1792 21.3673 12.1792 22.746V27.746C12.1792 29.8135 13.9049 31.496 16.0255 31.496C16.7345 31.496 17.3075 30.936 17.3075 30.246C17.3075 29.556 16.7345 28.996 16.0255 28.996C15.3178 28.996 14.7434 28.4348 14.7434 27.746V22.746C14.7434 21.246 14.0485 19.9136 12.9716 18.9961C14.0485 18.0786 14.7434 16.7461 14.7434 15.2461Z" fill="#9777A8"/>
<path d="M25.0006 16.4962C26.0627 16.4962 26.9237 15.6567 26.9237 14.6212C26.9237 13.5856 26.0627 12.7462 25.0006 12.7462C23.9385 12.7462 23.0775 13.5856 23.0775 14.6212C23.0775 15.6567 23.9385 16.4962 25.0006 16.4962Z" fill="#9777A8"/>
<path d="M40.3842 17.7461C38.9701 17.7461 37.8201 16.6248 37.8201 15.2461V10.2461C37.8201 8.17859 36.0944 6.49609 33.9738 6.49609C33.2648 6.49609 32.6918 7.05609 32.6918 7.74609C32.6918 8.43609 33.2648 8.99609 33.9738 8.99609C34.6815 8.99609 35.2559 9.55733 35.2559 10.2461V15.2461C35.2559 16.7461 35.9508 18.0786 37.0277 18.9961C35.9508 19.9136 35.2559 21.246 35.2559 22.746V27.746C35.2559 28.4348 34.6815 28.996 33.9738 28.996C33.2648 28.996 32.6918 29.556 32.6918 30.246C32.6918 30.936 33.2648 31.496 33.9738 31.496C36.0944 31.496 37.8201 29.8135 37.8201 27.746V22.746C37.8201 21.3673 38.9701 20.2461 40.3842 20.2461C41.0932 20.2461 41.6663 19.6861 41.6663 18.9961C41.6663 18.3061 41.0932 17.7461 40.3842 17.7461Z" fill="#9777A8"/>
<path d="M25.0005 21.4962C24.2915 21.4962 23.7185 22.0562 23.7185 22.7462V26.4961C23.7185 27.1861 24.2915 27.7461 25.0005 27.7461C25.7095 27.7461 26.2826 27.1861 26.2826 26.4961V22.7462C26.2826 22.0562 25.7095 21.4962 25.0005 21.4962Z" fill="#9777A8"/>
<path d="M6.66992 44V38.7168H5.76172V44H6.66992Z" fill="black"/>
<path d="M5.69336 37.3154C5.69336 37.5951 5.87371 37.8232 6.22559 37.8232C6.57658 37.8232 6.7627 37.5907 6.7627 37.3154C6.7627 37.0248 6.57343 36.793 6.22559 36.793C5.87682 36.793 5.69336 37.0201 5.69336 37.3154Z" fill="black"/>
<path d="M32.7842 44V38.7168H31.876V44H32.7842Z" fill="black"/>
<path d="M31.8076 37.3154C31.8076 37.5951 31.988 37.8232 32.3398 37.8232C32.6908 37.8232 32.877 37.5907 32.877 37.3154C32.877 37.0248 32.6877 36.793 32.3398 36.793C31.9911 36.793 31.8076 37.0201 31.8076 37.3154Z" fill="black"/>
<path fill-rule="evenodd" clip-rule="evenodd" d="M33.7949 41.417C33.7949 39.977 34.6675 38.6191 36.1924 38.6191C37.7391 38.6191 38.6045 39.9999 38.6045 41.417C38.6045 42.9246 37.7123 44.0977 36.2021 44.0977C34.7342 44.0977 33.7949 42.8371 33.7949 41.417ZM34.6982 41.417C34.6982 42.464 35.1951 43.3555 36.2021 43.3555C37.2455 43.3555 37.6963 42.3279 37.6963 41.417C37.6963 40.4766 37.2732 39.3613 36.1924 39.3613C35.0948 39.3613 34.6982 40.4962 34.6982 41.417Z" fill="black"/>
<path d="M40.4414 44V40.2297C40.6976 39.7201 41.156 39.3809 41.7305 39.3809C42.4068 39.3809 42.7852 39.6872 42.7852 40.5283V44H43.6934V40.5381C43.6934 39.4763 43.1705 38.6191 41.999 38.6191C41.3488 38.6191 40.8021 38.8936 40.421 39.3741L40.3926 38.7168H39.5381V44H40.4414Z" fill="black"/>
<path d="M30.9434 38.7168V39.4102H29.957V42.6914C29.957 42.8704 29.9847 43.0055 30.04 43.0967C30.2271 43.4048 30.6675 43.3309 30.9629 43.2627L30.9678 44C30.3548 44.195 29.5515 44.1502 29.2148 43.5264C29.1074 43.318 29.0537 43.0381 29.0537 42.6865V39.4102H28.0869V38.7168H29.0537V37.4326H29.957V38.7168H30.9434Z" fill="black"/>
<path d="M26.8418 42.5986C26.8418 43.0356 26.4547 43.3555 25.7041 43.3555C25.0817 43.3555 24.4843 43.0357 24.4492 42.3691H23.541C23.541 43.5039 24.6892 44.0977 25.7041 44.0977C26.9706 44.0977 27.7451 43.4375 27.7451 42.5303C27.7451 41.6807 27.1445 41.2461 25.8457 40.9531C24.8424 40.7287 24.6299 40.5193 24.6299 40.1377C24.6299 39.7405 24.9432 39.3613 25.6797 39.3613C26.1978 39.3613 26.7881 39.6859 26.7881 40.2695H27.6914C27.6914 39.1736 26.6524 38.6191 25.6797 38.6191C24.7795 38.6191 23.7217 39.1529 23.7217 40.1621C23.7217 41.0429 24.4722 41.442 25.626 41.6855C26.1377 41.786 26.8418 41.9638 26.8418 42.5986Z" fill="black"/>
<path fill-rule="evenodd" clip-rule="evenodd" d="M20.8555 44.0977C19.3206 44.0977 18.4287 42.8137 18.4287 41.3389C18.4287 39.6092 19.5559 38.6191 20.7383 38.6191C22.4037 38.6191 22.9111 40.1516 22.9111 41.6123H19.3378C19.3603 42.508 19.9284 43.3604 20.9043 43.3604C21.5423 43.3604 21.9639 43.0788 22.2959 42.6426L22.8428 43.0771C22.5022 43.5928 21.9082 44.0977 20.8555 44.0977ZM19.3642 40.875H22.0078C22.0078 40.1246 21.5607 39.3613 20.7383 39.3613C20.0276 39.3613 19.4874 39.896 19.3642 40.875Z" fill="black"/>
<path fill-rule="evenodd" clip-rule="evenodd" d="M17.4902 38.7168H16.6699L16.6278 39.3062C16.2826 38.8756 15.7898 38.6191 15.1172 38.6191C13.649 38.6191 13.0322 40.0457 13.0322 41.3145C13.0322 42.5878 13.6169 44.0977 15.1074 44.0977C15.7577 44.0977 16.2441 43.874 16.5869 43.4658V43.9316C16.5869 44.8529 16.0434 45.3428 15.1855 45.3428C14.713 45.3428 14.2148 45.1668 13.7695 44.6299L13.2959 45.167C13.7242 45.7789 14.5256 46.085 15.2539 46.085C16.5352 46.085 17.4902 45.2084 17.4902 43.8877V38.7168ZM16.5869 40.1496V42.5374C16.3327 43.0368 15.8989 43.3311 15.3271 43.3311C14.2575 43.3311 13.9355 42.2234 13.9355 41.3145C13.9355 40.4333 14.2872 39.3809 15.3369 39.3809C15.9672 39.3809 16.3591 39.7058 16.5869 40.1496Z" fill="black"/>
<path d="M8.80287 39.3741L8.77441 38.7168H7.91992V44H8.82324V40.2297C9.0794 39.7201 9.53781 39.3809 10.1123 39.3809C10.7886 39.3809 11.167 39.6872 11.167 40.5283V44H12.0752V40.5381C12.0752 39.4763 11.5523 38.6191 10.3809 38.6191C9.73064 38.6191 9.18405 38.8936 8.80287 39.3741Z" fill="black"/>
</svg>
