<svg width="50" height="50" viewBox="0 0 50 50" fill="none" xmlns="http://www.w3.org/2000/svg">
<path d="M13 9.25639L22.8081 7.98033L22.8123 17.0189L13.0089 17.0722L13 9.25639ZM22.8034 18.0602L22.8109 27.1066L13.0076 25.8189L13.007 17.9996L22.8034 18.0602ZM23.9924 7.81328L36.997 6V16.9039L23.9924 17.0024V7.81328ZM37 18.1453L36.9969 29L23.9923 27.2465L23.9741 18.125L37 18.1453Z" fill="#00ADEF"/>
<path d="M39.1084 41.9355L40.0898 38.7734H40.8633L39.168 43.6523C39.0895 43.8615 38.9667 44.1181 38.7695 44.3359C38.5724 44.5539 38.3009 44.707 37.9141 44.707C37.7799 44.707 37.6367 44.6814 37.5078 44.6445L37.5039 44.0586C37.8306 44.0847 38.1871 44.0779 38.4062 43.793C38.5957 43.5608 38.6685 43.2313 38.7695 42.9541L37.2617 38.7734H38.0508L39.1084 41.9355Z" fill="#7F8BA5"/>
<path fill-rule="evenodd" clip-rule="evenodd" d="M21.0742 38.6953C22.4628 38.6953 22.8125 39.9161 22.8125 41.0898H19.9551C19.9747 41.8663 20.4432 42.4883 21.207 42.4883C21.7174 42.4883 22.0547 42.263 22.3203 41.9141L22.7578 42.2617C22.4854 42.6743 22.0101 43.0781 21.168 43.0781C19.94 43.0781 19.2266 42.051 19.2266 40.8711C19.2266 39.4873 20.1283 38.6953 21.0742 38.6953ZM21.0742 39.2891C20.5057 39.2891 20.0741 39.7169 19.9756 40.5H22.0898C22.0898 39.8856 21.7516 39.2891 21.0742 39.2891Z" fill="#7F8BA5"/>
<path d="M25.3477 38.6953C26.3359 38.6953 26.992 39.3484 27.0312 40.2266H26.3438C26.305 39.7069 25.9295 39.2891 25.3477 39.2891C24.4367 39.2891 24.1914 40.1931 24.1914 40.9688C24.1914 41.6988 24.4931 42.4844 25.3477 42.4844C25.8656 42.4844 26.305 42.1364 26.3438 41.6641H27.0312C26.9876 42.5021 26.1367 43.0781 25.3477 43.0781C24.0874 43.0781 23.4688 42.1048 23.4688 40.9688C23.4688 39.829 24.068 38.6953 25.3477 38.6953Z" fill="#7F8BA5"/>
<path d="M28.8242 38.7734H29.6133V39.3281H28.8242V41.9531C28.8242 42.2396 28.9219 42.375 29.0625 42.4219C29.2465 42.4832 29.4442 42.4528 29.6289 42.4102L29.6328 43C29.2998 43.106 28.906 43.1243 28.5859 42.9727C28.2882 42.8316 28.1016 42.5101 28.1016 41.9492V39.3281H27.3281V38.7734H28.1016V37.7461H28.8242V38.7734Z" fill="#7F8BA5"/>
<path fill-rule="evenodd" clip-rule="evenodd" d="M32.1094 38.6953C33.298 38.6953 34.0391 39.6177 34.0391 40.8438C34.0391 41.9974 33.335 43.0781 32.1172 43.0781C30.9254 43.0781 30.1914 42.1505 30.1914 40.9336C30.1914 39.8067 30.8755 38.6953 32.1094 38.6953ZM32.1094 39.2891C31.2436 39.2891 30.9141 40.183 30.9141 40.9336C30.9141 41.7712 31.3115 42.4844 32.1172 42.4844C33.0125 42.4844 33.3125 41.5958 33.3125 40.8438C33.3125 40.1113 32.9283 39.2891 32.1094 39.2891Z" fill="#7F8BA5"/>
<path fill-rule="evenodd" clip-rule="evenodd" d="M11.3047 37.3125C12.7882 37.3125 13.8125 38.3324 13.8125 39.9883C13.8125 41.6019 13.0628 43 11.2344 43H9.69531V37.3125H11.3047ZM10.4492 42.3867H11.2344C12.6794 42.3867 13.0664 41.1972 13.0664 39.9805C13.0664 38.6669 12.4309 37.9297 11.3047 37.9297H10.4492V42.3867Z" fill="#7F8BA5"/>
<path d="M15.6211 43H14.8945V38.7734H15.6211V43Z" fill="#7F8BA5"/>
<path d="M18.5039 38.6953C18.6077 38.6953 18.772 38.7239 18.8242 38.75L18.8203 39.4219C18.7032 39.3964 18.6073 39.3906 18.4688 39.3906C17.9802 39.3906 17.6639 39.6228 17.5039 39.9971V43H16.7812V38.7734H17.4844L17.498 39.2588C17.4999 39.2558 17.5021 39.253 17.5039 39.25C17.7194 38.8978 18.0498 38.6953 18.5039 38.6953Z" fill="#7F8BA5"/>
<path d="M36.668 38.6953C36.7718 38.6953 36.936 38.7239 36.9883 38.75L36.9844 39.4219C36.8672 39.3964 36.7713 39.3906 36.6328 39.3906C36.2995 39.3906 36.0443 39.5 35.8672 39.6875C35.7847 39.7748 35.7188 39.8782 35.668 39.9971V43H34.9453V38.7734H35.6484L35.6621 39.2588C35.6639 39.2558 35.6661 39.253 35.668 39.25C35.8835 38.8978 36.2139 38.6953 36.668 38.6953Z" fill="#7F8BA5"/>
<path d="M15.2656 37.2344C15.5439 37.2344 15.6953 37.4198 15.6953 37.6523C15.6953 37.8726 15.5464 38.0586 15.2656 38.0586C14.9841 38.0586 14.8398 37.8761 14.8398 37.6523C14.8398 37.4161 14.9866 37.2344 15.2656 37.2344Z" fill="#7F8BA5"/>
<path d="M21.4453 31.6953C22.4336 31.6953 23.0897 32.3484 23.1289 33.2266H22.4414C22.4026 32.7069 22.0272 32.2891 21.4453 32.2891C20.5999 32.2891 20.2891 33.0811 20.2891 33.8047C20.2891 34.5864 20.5299 35.4844 21.4453 35.4844C21.9633 35.4844 22.4027 35.1364 22.4414 34.6641H23.1289C23.0849 35.5095 22.2368 36.0781 21.4453 36.0781C20.1657 36.0781 19.5664 34.9444 19.5664 33.8047C19.5664 32.6524 20.1909 31.6953 21.4453 31.6953Z" fill="#7F8BA5"/>
<path d="M24.9219 31.7734H25.7109V32.3281H24.9219V34.9531C24.9219 35.2396 25.0195 35.375 25.1602 35.4219C25.3442 35.4832 25.5419 35.4528 25.7266 35.4102L25.7305 36C25.4004 36.105 25.0023 36.1236 24.6836 35.9727C24.3859 35.8316 24.1992 35.5101 24.1992 34.9492V32.3281H23.4258V31.7734H24.1992V30.7461H24.9219V31.7734Z" fill="#7F8BA5"/>
<path fill-rule="evenodd" clip-rule="evenodd" d="M33.9844 31.6953C35.1932 31.6953 35.7227 32.567 35.7227 33.7656V34.0898H32.8652C32.8848 34.8663 33.3533 35.4883 34.1172 35.4883C34.6276 35.4883 34.9648 35.263 35.2305 34.9141L35.668 35.2617C35.3955 35.6743 34.9203 36.0781 34.0781 36.0781C32.911 36.0781 32.1367 35.1484 32.1367 34.0352V33.8711C32.1367 32.4873 33.0385 31.6953 33.9844 31.6953ZM33.9844 32.2891C33.4159 32.2891 32.9843 32.7169 32.8857 33.5H35C35 32.8708 34.6537 32.2891 33.9844 32.2891Z" fill="#7F8BA5"/>
<path fill-rule="evenodd" clip-rule="evenodd" d="M16.9258 30.3125L19.1016 36H18.3281L17.7861 34.5117H15.4082L14.8672 36H14.0977L16.2656 30.3125H16.9258ZM15.6318 33.8945H17.5615L16.5957 31.2402L15.6318 33.8945Z" fill="#7F8BA5"/>
<path d="M27.3438 36H26.6172V31.7734H27.3438V36Z" fill="#7F8BA5"/>
<path d="M29.8975 35.0107L30.9453 31.7734H31.6836L30.1641 36H29.6133L28.082 31.7734H28.8242L29.8975 35.0107Z" fill="#7F8BA5"/>
<path d="M26.9883 30.2344C27.2666 30.2344 27.418 30.4198 27.418 30.6523C27.418 30.8726 27.2691 31.0586 26.9883 31.0586C26.7068 31.0586 26.5625 30.8761 26.5625 30.6523C26.5625 30.4161 26.7093 30.2344 26.9883 30.2344Z" fill="#7F8BA5"/>
</svg>
