<svg width="50" height="50" viewBox="0 0 50 50" fill="none" xmlns="http://www.w3.org/2000/svg">
<rect width="50" height="50" fill="#333333"/>
<path d="M35.2577 21.9386L31.4358 24.1356L25.3425 13.8347C25.2107 13.5715 24.7711 13.6104 24.6214 13.8347L14.8144 30.5106C14.6771 30.7849 14.854 31.1229 15.175 31.1229H16.8696L24.5854 27.053L25.9915 29.5021C26.1085 29.6774 26.4324 29.782 26.6045 29.6102L30.4263 26.4767L33.1665 31.0869H34.8971C35.1879 31.0869 35.4318 30.7355 35.2577 30.4746L32.0127 25L35.438 22.1186L35.7264 22.875L36.5196 21.1102L34.6447 21.3983L35.2577 21.9386ZM26.9289 26.7648L25.4867 24.2797C25.3786 24.0996 25.1262 24.0275 24.9459 24.1356L18.9968 27.5572L25.018 17.4004L29.6331 25.2161L26.9289 26.7648Z" fill="white"/>
<path d="M25.018 8C15.6076 8 8 15.5996 8 25C8 34.4004 15.6076 42 25.018 42C34.4284 42 42 34.3644 42 25C42 15.6356 34.3924 8 25.018 8ZM25.018 39.911C16.7614 39.911 10.0912 33.2119 10.0912 25C10.0912 16.7521 16.7614 10.089 25.018 10.089C33.2386 10.089 39.9449 16.7521 39.9449 25C39.9088 33.2119 33.2386 39.911 25.018 39.911Z" fill="white"/>
</svg>
