<svg width="50" height="50" viewBox="0 0 50 50" fill="none" xmlns="http://www.w3.org/2000/svg">
<path d="M37.6713 21.2138L32.9502 23.9278L25.4231 11.2032C25.2603 10.878 24.7173 10.9262 24.5323 11.2032L12.4178 31.8028C12.2482 32.1416 12.4667 32.5592 12.8632 32.5592H14.9565L24.4878 27.5316L26.2248 30.557C26.3693 30.7736 26.7695 30.9028 26.982 30.6905L31.7031 26.8198L35.088 32.5147H37.2259C37.5851 32.5147 37.8864 32.0807 37.6713 31.7583L33.6628 24.9956L37.894 21.4363L38.2503 22.3706L39.2301 20.1905L36.9141 20.5465L37.6713 21.2138ZM27.3828 27.1757L25.6013 24.1058C25.4677 23.8833 25.1559 23.7943 24.9332 23.9278L17.5843 28.1545L25.0223 15.6079L30.7232 25.2626L27.3828 27.1757Z" fill="black"/>
<path d="M25.0223 3.99561C13.3977 3.99561 4 13.3833 4 24.9956C4 36.6079 13.3977 45.9956 25.0223 45.9956C36.6469 45.9956 46 36.5634 46 24.9956C46 13.4278 36.6023 3.99561 25.0223 3.99561ZM25.0223 43.4151C14.8229 43.4151 6.58324 35.1397 6.58324 24.9956C6.58324 14.807 14.8229 6.57611 25.0223 6.57611C35.1771 6.57611 43.4613 14.807 43.4613 24.9956C43.4168 35.1397 35.1771 43.4151 25.0223 43.4151Z" fill="black"/>
</svg>
