<svg width="50" height="50" viewBox="0 0 50 50" fill="none" xmlns="http://www.w3.org/2000/svg">
<rect width="50" height="50" fill="#1C1B29"/>
<path d="M40.4649 24.9648C40.4649 16.1224 33.0961 9.25366 24.4023 9.25366V19.1654H24.7538C27.9523 19.1654 30.5884 21.7663 30.5884 24.9999C30.5966 28.4151 27.6614 30.8345 24.4023 30.8345V40.7462C27.5844 40.7462 30.6978 39.9586 33.365 38.1804L34.2789 40.2893H40.5001L40.4649 24.9648Z" fill="white"/>
<path d="M21.5557 40.4294C21.0637 40.4294 20.7122 40.0427 20.7122 39.5858V30.7285C20.7122 30.2364 21.0988 29.885 21.5557 29.885C22.0478 29.885 22.3993 30.2716 22.3993 30.7285V39.5858C22.3993 40.0427 22.0127 40.4294 21.5557 40.4294ZM10.3787 31.4315C9.88663 31.4315 9.5 31.0448 9.5 30.5879V19.3406C9.53515 18.8485 9.95692 18.497 10.4138 18.5322C10.8289 18.5726 11.1819 18.9255 11.2222 19.3406V30.5528C11.2222 31.0448 10.8356 31.4315 10.3787 31.4315ZM14.1044 21.59C13.6123 21.59 13.2257 21.2034 13.2257 20.7465V14.1035C13.1905 13.6115 13.542 13.2248 14.0341 13.1897C14.5262 13.1545 14.9128 13.506 14.9479 13.9981V20.7465C14.9479 21.2034 14.5613 21.59 14.1044 21.59ZM14.1044 36.774C13.6123 36.774 13.2257 36.3873 13.2257 35.9304V24.9291C13.1905 24.437 13.542 24.0504 14.0341 24.0153C14.5262 23.9801 14.9128 24.3316 14.9479 24.8237V35.9304C14.9479 36.3873 14.5613 36.774 14.1044 36.774ZM17.8301 39.164C17.338 39.164 16.9514 38.7774 16.9514 38.3205V32.4156C16.9865 31.9236 17.4083 31.5721 17.8652 31.6072C18.2803 31.6476 18.6332 32.0005 18.6736 32.4156V38.3205C18.6736 38.7774 18.287 39.164 17.8301 39.164ZM17.8301 29.0414C17.338 29.0414 16.9514 28.6548 16.9514 28.1627V11.3971C16.9162 10.9051 17.2677 10.5184 17.7598 10.4833C18.2518 10.4481 18.6385 10.7996 18.6736 11.2917V28.1627C18.6736 28.6548 18.287 29.0414 17.8301 29.0414ZM21.5557 20.1138C21.0637 20.1138 20.7122 19.7272 20.7122 19.2351V10.3427C20.7122 9.85063 21.0988 9.49915 21.5557 9.49915C22.0478 9.49915 22.3993 9.88578 22.3993 10.3427V19.2351C22.3993 19.7272 22.0127 20.1138 21.5557 20.1138Z" fill="#FA4216"/>
</svg>
