<svg width="50" height="50" viewBox="0 0 50 50" fill="none" xmlns="http://www.w3.org/2000/svg">
<path d="M36.9728 18.6217C36.9728 11.802 31.1846 6.64844 24.5372 6.64844V14.202C27.0583 14.202 29.3264 15.9897 29.3264 18.6484C29.3328 21.2358 27.0554 23.0949 24.5372 23.0949V30.6484C26.9956 30.6484 29.4054 30.0519 31.4761 28.6931L32.1836 30.3002H37L36.9728 18.6217Z" fill="#1C1B29"/>
<path d="M22.3335 30.4069C21.9525 30.4069 21.6804 30.1123 21.6804 29.7641V23.0141C21.6804 22.6391 21.9797 22.3712 22.3335 22.3712C22.7144 22.3712 22.9865 22.6659 22.9865 23.0141V29.7641C22.9865 30.1123 22.6872 30.4069 22.3335 30.4069ZM13.6803 23.5498C13.2993 23.5498 13 23.2552 13 22.9069V14.3355C13.0272 13.9605 13.3537 13.6927 13.7075 13.7195C14.0289 13.7502 14.3021 14.0192 14.3334 14.3355V22.8802C14.3334 23.2552 14.034 23.5498 13.6803 23.5498ZM16.5647 16.0498C16.1837 16.0498 15.8844 15.7552 15.8844 15.407V10.3445C15.8572 9.96945 16.1293 9.67481 16.5103 9.64802C16.8912 9.62124 17.1905 9.88909 17.2177 10.2641V15.407C17.2177 15.7552 16.9184 16.0498 16.5647 16.0498ZM16.5647 27.6212C16.1837 27.6212 15.8844 27.3266 15.8844 26.9784V18.5944C15.8572 18.2195 16.1293 17.9248 16.5103 17.898C16.8912 17.8712 17.1905 18.1391 17.2177 18.5141V26.9784C17.2177 27.3266 16.9184 27.6212 16.5647 27.6212ZM19.4491 29.4427C19.0681 29.4427 18.7688 29.148 18.7688 28.7998V24.2998C18.796 23.9248 19.1225 23.657 19.4763 23.6837C19.7976 23.7145 20.0709 23.9835 20.1021 24.2998V28.7998C20.1021 29.148 19.8028 29.4427 19.4491 29.4427ZM19.4491 21.7284C19.0681 21.7284 18.7688 21.4337 18.7688 21.0587V8.28195C18.7416 7.90695 19.0137 7.61231 19.3946 7.58552C19.7756 7.55874 20.0749 7.82659 20.1021 8.20159V21.0587C20.1021 21.4337 19.8028 21.7284 19.4491 21.7284ZM22.3335 14.9248C21.9525 14.9248 21.6804 14.6302 21.6804 14.2552V7.47838C21.6804 7.10338 21.9797 6.83552 22.3335 6.83552C22.7144 6.83552 22.9865 7.13017 22.9865 7.47838V14.2552C22.9865 14.6302 22.6872 14.9248 22.3335 14.9248Z" fill="#FA4216"/>
<path d="M8.44727 39.8604H6.54785V39.0938H8.44727C9.55311 39.0938 10 38.5142 10 37.7168C10 36.834 9.30262 36.3105 8.44727 36.3105H6.76758V42.6484H5.8252V35.5391H8.44727C10.0546 35.5391 10.9424 36.441 10.9424 37.707C10.9424 39.0727 10.0621 39.8604 8.44727 39.8604Z" fill="#1C1D1F"/>
<path d="M12.9004 42.6484H11.9971V37.3652H12.876L12.9004 42.6484ZM14.5508 37.3359L14.5459 38.1758C14.3994 38.1439 14.2796 38.1367 14.1064 38.1367C13.2781 38.1367 12.8432 38.6726 12.7637 39.4551L12.5098 39.6016C12.5098 38.5812 12.9159 37.2676 14.1504 37.2676C14.2802 37.2676 14.4855 37.3033 14.5508 37.3359Z" fill="#1C1D1F"/>
<path d="M17.4805 42.7461C16.0216 42.7461 15.0537 41.584 15.0537 40.1924V39.9873C15.0537 38.2576 16.1809 37.2676 17.3633 37.2676C19.0287 37.2676 19.5361 38.8 19.5361 40.2607H15.5908V39.5234H18.6328C18.6328 38.773 18.1857 38.0098 17.3633 38.0098C16.3339 38.0098 15.9619 39.1102 15.9619 39.9873V40.1924C15.9619 41.1963 16.5522 42.0088 17.5293 42.0088C18.1673 42.0088 18.5889 41.7272 18.9209 41.291L19.4678 41.7256C19.1272 42.2413 18.5332 42.7461 17.4805 42.7461Z" fill="#1C1D1F"/>
<path d="M21.4893 42.6484H20.5811V37.3652H21.4404L21.4893 42.6484ZM21.3037 39.8066L20.8838 39.792C20.8969 38.3344 21.6294 37.2676 23.0273 37.2676C24.0134 37.2676 24.7363 37.7982 24.7363 39.1279V42.6484H23.833V39.1719C23.833 38.3444 23.3873 38.0293 22.7051 38.0293C21.6421 38.0293 21.3037 38.8433 21.3037 39.8066ZM24.7266 39.3086L24.1211 39.4941C24.1342 38.3261 24.8908 37.2676 26.2207 37.2676C27.3647 37.2676 27.9932 37.8529 27.9932 39.1768V42.6484H27.085V39.167C27.085 38.2774 26.6536 38.0293 25.957 38.0293C25.1702 38.0293 24.7266 38.6096 24.7266 39.3086Z" fill="#1C1D1F"/>
<path d="M30.3418 37.3652V42.6484H29.4336V37.3652H30.3418ZM29.3652 35.9639C29.3652 35.6685 29.5487 35.4414 29.8975 35.4414C30.2453 35.4414 30.4346 35.6732 30.4346 35.9639C30.4346 36.2392 30.2485 36.4717 29.8975 36.4717C29.5456 36.4717 29.3652 36.2436 29.3652 35.9639Z" fill="#1C1D1F"/>
<path d="M35.0244 37.3652H35.9326V42.6484H35.0684L35.0244 37.3652ZM35.1953 40.3145L35.5713 40.3047C35.5713 41.0033 35.435 41.6137 35.1074 42.0527C34.7827 42.4879 34.2628 42.7461 33.5059 42.7461C32.4886 42.7461 31.7725 42.1886 31.7725 40.7734V37.3652H32.6758V40.7832C32.6758 41.4191 32.9697 41.9795 33.6475 41.9795C34.4183 41.9795 34.8493 41.6588 35.0439 41.1592C35.1449 40.9053 35.1953 40.6237 35.1953 40.3145Z" fill="#1C1D1F"/>
<path d="M38.208 42.6484H37.2998V37.3652H38.1592L38.208 42.6484ZM38.0225 39.8066L37.6025 39.792C37.6091 39.0658 37.7931 38.4389 38.1494 37.9854C38.5083 37.5286 39.0446 37.2676 39.7461 37.2676C40.7322 37.2676 41.4551 37.7982 41.4551 39.1279V42.6484H40.5518V39.1719C40.5518 38.3444 40.106 38.0293 39.4238 38.0293C38.3608 38.0293 38.0225 38.8433 38.0225 39.8066ZM41.4453 39.3086L40.8398 39.4941C40.853 38.3261 41.6095 37.2676 42.9395 37.2676C44.0835 37.2676 44.7119 37.8529 44.7119 39.1768V42.6484H43.8037V39.167C43.8037 38.2774 43.3723 38.0293 42.6758 38.0293C41.8889 38.0293 41.4453 38.6096 41.4453 39.3086Z" fill="#1C1D1F"/>
</svg>
