<svg width="50" height="50" viewBox="0 0 50 50" fill="none" xmlns="http://www.w3.org/2000/svg">
<rect width="50" height="50" fill="#1C1B29"/>
<path d="M36.9728 18.626C36.9728 11.8064 31.1846 6.65283 24.5372 6.65283V14.2064C27.0583 14.2064 29.3264 15.9941 29.3264 18.6528C29.3328 21.2401 27.0554 23.0993 24.5372 23.0993V30.6528C26.9956 30.6528 29.4054 30.0563 31.4761 28.6975L32.1836 30.3046H37L36.9728 18.626Z" fill="white"/>
<path d="M22.3335 30.4113C21.9525 30.4113 21.6804 30.1167 21.6804 29.7685V23.0185C21.6804 22.6435 21.9797 22.3756 22.3335 22.3756C22.7144 22.3756 22.9865 22.6703 22.9865 23.0185V29.7685C22.9865 30.1167 22.6872 30.4113 22.3335 30.4113ZM13.6803 23.5542C13.2993 23.5542 13 23.2596 13 22.9113V14.3399C13.0272 13.9649 13.3537 13.6971 13.7075 13.7238C14.0289 13.7546 14.3021 14.0236 14.3334 14.3399V22.8846C14.3334 23.2596 14.034 23.5542 13.6803 23.5542ZM16.5647 16.0542C16.1837 16.0542 15.8844 15.7596 15.8844 15.4113V10.3488C15.8572 9.97385 16.1293 9.6792 16.5103 9.65242C16.8912 9.62563 17.1905 9.89349 17.2177 10.2685V15.4113C17.2177 15.7596 16.9184 16.0542 16.5647 16.0542ZM16.5647 27.6256C16.1837 27.6256 15.8844 27.331 15.8844 26.9828V18.5988C15.8572 18.2238 16.1293 17.9292 16.5103 17.9024C16.8912 17.8756 17.1905 18.1435 17.2177 18.5185V26.9828C17.2177 27.331 16.9184 27.6256 16.5647 27.6256ZM19.4491 29.4471C19.0681 29.4471 18.7688 29.1524 18.7688 28.8042V24.3042C18.796 23.9292 19.1225 23.6613 19.4763 23.6881C19.7976 23.7189 20.0709 23.9879 20.1021 24.3042V28.8042C20.1021 29.1524 19.8028 29.4471 19.4491 29.4471ZM19.4491 21.7328C19.0681 21.7328 18.7688 21.4381 18.7688 21.0631V8.28635C18.7416 7.91135 19.0137 7.6167 19.3946 7.58992C19.7756 7.56313 20.0749 7.83099 20.1021 8.20599V21.0631C20.1021 21.4381 19.8028 21.7328 19.4491 21.7328ZM22.3335 14.9292C21.9525 14.9292 21.6804 14.6346 21.6804 14.2596V7.48277C21.6804 7.10777 21.9797 6.83992 22.3335 6.83992C22.7144 6.83992 22.9865 7.13456 22.9865 7.48277V14.2596C22.9865 14.6346 22.6872 14.9292 22.3335 14.9292Z" fill="#FA4216"/>
<path d="M8.44727 39.8647H6.54785V39.0981H8.44727C9.55311 39.0981 10 38.5186 10 37.7212C10 36.8384 9.30262 36.3149 8.44727 36.3149H6.76758V42.6528H5.8252V35.5435H8.44727C10.0546 35.5435 10.9424 36.4454 10.9424 37.7114C10.9424 39.0771 10.0621 39.8647 8.44727 39.8647Z" fill="white"/>
<path d="M12.9004 42.6528H11.9971V37.3696H12.876L12.9004 42.6528ZM14.5508 37.3403L14.5459 38.1802C14.3994 38.1483 14.2796 38.1411 14.1064 38.1411C13.2781 38.1411 12.8432 38.677 12.7637 39.4595L12.5098 39.606C12.5098 38.5856 12.9159 37.272 14.1504 37.272C14.2802 37.272 14.4855 37.3077 14.5508 37.3403Z" fill="white"/>
<path d="M17.4805 42.7505C16.0216 42.7505 15.0537 41.5884 15.0537 40.1968V39.9917C15.0537 38.262 16.1809 37.272 17.3633 37.272C19.0287 37.272 19.5361 38.8044 19.5361 40.2651H15.5908V39.5278H18.6328C18.6328 38.7774 18.1857 38.0142 17.3633 38.0142C16.3339 38.0142 15.9619 39.1146 15.9619 39.9917V40.1968C15.9619 41.2007 16.5522 42.0132 17.5293 42.0132C18.1673 42.0132 18.5889 41.7316 18.9209 41.2954L19.4678 41.73C19.1272 42.2457 18.5332 42.7505 17.4805 42.7505Z" fill="white"/>
<path d="M21.4893 42.6528H20.5811V37.3696H21.4404L21.4893 42.6528ZM21.3037 39.811L20.8838 39.7964C20.8969 38.3388 21.6294 37.272 23.0273 37.272C24.0134 37.272 24.7363 37.8026 24.7363 39.1323V42.6528H23.833V39.1763C23.833 38.3488 23.3873 38.0337 22.7051 38.0337C21.6421 38.0337 21.3037 38.8477 21.3037 39.811ZM24.7266 39.313L24.1211 39.4985C24.1342 38.3305 24.8908 37.272 26.2207 37.272C27.3647 37.272 27.9932 37.8573 27.9932 39.1812V42.6528H27.085V39.1714C27.085 38.2818 26.6536 38.0337 25.957 38.0337C25.1702 38.0337 24.7266 38.614 24.7266 39.313Z" fill="white"/>
<path d="M30.3418 37.3696V42.6528H29.4336V37.3696H30.3418ZM29.3652 35.9683C29.3652 35.6729 29.5487 35.4458 29.8975 35.4458C30.2453 35.4458 30.4346 35.6776 30.4346 35.9683C30.4346 36.2435 30.2485 36.4761 29.8975 36.4761C29.5456 36.4761 29.3652 36.248 29.3652 35.9683Z" fill="white"/>
<path d="M35.0244 37.3696H35.9326V42.6528H35.0684L35.0244 37.3696ZM35.1953 40.3188L35.5713 40.3091C35.5713 41.0077 35.435 41.6181 35.1074 42.0571C34.7827 42.4923 34.2628 42.7505 33.5059 42.7505C32.4886 42.7505 31.7725 42.193 31.7725 40.7778V37.3696H32.6758V40.7876C32.6758 41.4235 32.9697 41.9839 33.6475 41.9839C34.4183 41.9839 34.8493 41.6632 35.0439 41.1636C35.1449 40.9097 35.1953 40.6281 35.1953 40.3188Z" fill="white"/>
<path d="M38.208 42.6528H37.2998V37.3696H38.1592L38.208 42.6528ZM38.0225 39.811L37.6025 39.7964C37.6091 39.0702 37.7931 38.4433 38.1494 37.9897C38.5083 37.5329 39.0446 37.272 39.7461 37.272C40.7322 37.272 41.4551 37.8026 41.4551 39.1323V42.6528H40.5518V39.1763C40.5518 38.3488 40.106 38.0337 39.4238 38.0337C38.3608 38.0337 38.0225 38.8477 38.0225 39.811ZM41.4453 39.313L40.8398 39.4985C40.853 38.3305 41.6095 37.272 42.9395 37.272C44.0835 37.272 44.7119 37.8573 44.7119 39.1812V42.6528H43.8037V39.1714C43.8037 38.2818 43.3723 38.0337 42.6758 38.0337C41.8889 38.0337 41.4453 38.614 41.4453 39.313Z" fill="white"/>
</svg>
