<svg width="50" height="50" viewBox="0 0 50 50" fill="none" xmlns="http://www.w3.org/2000/svg">
<path d="M40.4649 24.9606C40.4649 16.1183 33.0961 9.24951 24.4023 9.24951V19.1612H24.7538C27.9523 19.1612 30.5884 21.7622 30.5884 24.9958C30.5966 28.4109 27.6614 30.8304 24.4023 30.8304V40.7421C27.5844 40.7421 30.6978 39.9544 33.365 38.1763L34.2789 40.2852H40.5001L40.4649 24.9606Z" fill="#1C1B29"/>
<path d="M21.5557 40.4252C21.0637 40.4252 20.7122 40.0386 20.7122 39.5817V30.7244C20.7122 30.2323 21.0988 29.8808 21.5557 29.8808C22.0478 29.8808 22.3993 30.2674 22.3993 30.7244V39.5817C22.3993 40.0386 22.0127 40.4252 21.5557 40.4252ZM10.3787 31.4273C9.88663 31.4273 9.5 31.0407 9.5 30.5838V19.3364C9.53515 18.8444 9.95692 18.4929 10.4138 18.528C10.8289 18.5684 11.1819 18.9213 11.2222 19.3364V30.5486C11.2222 31.0407 10.8356 31.4273 10.3787 31.4273ZM14.1044 21.5859C13.6123 21.5859 13.2257 21.1993 13.2257 20.7423V14.0994C13.1905 13.6073 13.542 13.2207 14.0341 13.1855C14.5262 13.1504 14.9128 13.5019 14.9479 13.9939V20.7423C14.9479 21.1993 14.5613 21.5859 14.1044 21.5859ZM14.1044 36.7698C13.6123 36.7698 13.2257 36.3832 13.2257 35.9263V24.925C13.1905 24.4329 13.542 24.0463 14.0341 24.0111C14.5262 23.976 14.9128 24.3274 14.9479 24.8195V35.9263C14.9479 36.3832 14.5613 36.7698 14.1044 36.7698ZM17.8301 39.1599C17.338 39.1599 16.9514 38.7733 16.9514 38.3163V32.4115C16.9865 31.9194 17.4083 31.5679 17.8652 31.6031C18.2803 31.6435 18.6332 31.9964 18.6736 32.4115V38.3163C18.6736 38.7733 18.287 39.1599 17.8301 39.1599ZM17.8301 29.0373C17.338 29.0373 16.9514 28.6506 16.9514 28.1586V11.393C16.9162 10.9009 17.2677 10.5143 17.7598 10.4791C18.2518 10.444 18.6385 10.7955 18.6736 11.2875V28.1586C18.6736 28.6506 18.287 29.0373 17.8301 29.0373ZM21.5557 20.1097C21.0637 20.1097 20.7122 19.7231 20.7122 19.231V10.3386C20.7122 9.84648 21.0988 9.495 21.5557 9.495C22.0478 9.495 22.3993 9.88163 22.3993 10.3386V19.231C22.3993 19.7231 22.0127 20.1097 21.5557 20.1097Z" fill="#FA4216"/>
</svg>
