<svg width="50" height="50" viewBox="0 0 50 50" fill="none" xmlns="http://www.w3.org/2000/svg">
<rect width="50" height="50" fill="#252322"/>
<path d="M33.082 8C38.0072 8.00008 42 12.0952 42 17.1468V27.3083C41.9998 27.5487 41.8096 27.7439 41.5752 27.744H36.6841C36.4497 27.7439 36.2595 27.5487 36.2593 27.3083L36.0439 18.8129C36.0439 15.9714 34.1804 13.6681 31.4099 13.668H18.8685C16.0983 13.6682 13.9502 15.9715 13.9502 18.8129V31.7739C13.9503 34.6152 16.0983 36.7693 18.8685 36.7695H28.3246C28.5591 36.7695 28.7501 36.9645 28.7503 37.2052V41.5643C28.7503 41.8051 28.5592 42 28.3246 42H16.918C11.9927 42 8 38.4907 8 33.4391V17.1468C8 12.0952 11.9927 8 16.918 8H33.082Z" fill="white"/>
<path d="M39.0628 32.7833C40.2363 32.7833 41.313 33.9138 41.313 35.1174V39.1167C41.313 40.3205 40.2363 41.3224 39.0628 41.3224H35.2879C34.1144 41.3223 33.1629 40.3204 33.1629 39.1167V35.1174C33.1629 33.9138 34.1144 32.7834 35.2879 32.7833H39.0628Z" fill="white"/>
<path d="M28.0147 19.501C29.5168 19.501 30.7347 20.7502 30.7348 22.2909V28.0453C30.7346 29.5858 29.5167 30.8343 28.0147 30.8343H22.8299C21.3278 30.8343 20.1099 29.5858 20.1098 28.0453V22.2909C20.1098 20.7502 21.3278 19.5011 22.8299 19.501H28.0147Z" fill="white"/>
</svg>
