<svg width="50" height="50" viewBox="0 0 50 50" fill="none" xmlns="http://www.w3.org/2000/svg">
<path d="M28.776 39.6033C28.749 39.469 28.7106 39.3675 28.71 39.2654C28.7064 37.259 28.704 35.2521 28.7142 33.2452C28.7222 33.0806 28.7732 32.9203 28.863 32.778C30.5782 29.9328 31.1407 26.7467 31.5173 23.5019C31.825 20.8206 31.7512 18.0935 31.7477 15.3999C31.7477 14.6924 31.6691 13.9855 31.6355 13.2775C31.6169 12.8841 31.2797 12.7449 30.9851 12.6073C30.3005 12.2877 29.5944 12.008 28.9026 11.7017C28.8191 11.6605 28.7581 11.5841 28.74 11.4981C28.7259 11.188 28.7331 10.8774 28.7616 10.5682C28.7676 10.5049 28.9206 10.4017 29.0016 10.4061C30.808 10.5275 32.5902 10.6691 34.3365 11.1563C35.7417 11.5484 37.2999 11.9521 38.4931 12.8092C38.6497 12.928 38.7991 13.1421 38.8141 13.3208C38.8855 14.1531 38.9215 14.9937 38.9455 15.831C39.0122 18.2129 38.9935 20.5809 38.7601 22.9553C38.4846 25.7604 38.0754 28.5739 36.8924 31.1578C35.2524 34.722 32.3425 37.8973 28.776 39.6033Z" fill="#05CEC2"/>
<path d="M21.2511 11.0207C21.2511 11.1317 21.2511 11.2427 21.2511 11.3536C21.2511 11.5462 21.1767 11.6444 20.9607 11.7332C20.2029 12.0461 19.4668 12.4034 18.721 12.743C18.382 12.8973 18.3436 13.1947 18.3274 13.4865C18.144 16.7226 18.1214 20.0134 18.4384 23.2387C18.7743 26.647 19.582 29.731 21.1233 32.816C21.1937 32.9455 21.2346 33.087 21.2433 33.2316C21.2513 35.2569 21.2529 37.2821 21.2481 39.3073C21.2481 39.6053 21.2247 39.6153 20.9421 39.4693C17.75 37.8251 15.1143 35.0865 13.4473 31.9177C12.0103 29.1811 11.6008 26.1826 11.204 23.1599C10.7839 19.9485 10.9509 16.5764 11.1344 13.3589C11.1512 13.0676 11.3006 12.8645 11.5735 12.7203C13.1233 11.9021 14.7671 11.3529 16.4717 10.9536C17.9382 10.6056 19.3744 10.4923 20.8707 10.3948C21.1551 10.376 21.2835 10.4731 21.2469 10.7439C21.2423 10.8361 21.2437 10.9286 21.2511 11.0207Z" fill="#05CEC2"/>
</svg>
