<svg width="50" height="50" viewBox="0 0 50 50" fill="none" xmlns="http://www.w3.org/2000/svg">
<path d="M24.5058 8.00004H15.0001V17.5059H24.5058V8.00004Z" fill="#F26522"/>
<path d="M35.0001 8H25.4944V17.5058H35.0001V8Z" fill="#8DC63F"/>
<path d="M24.5057 18.4942H15V28H24.5057V18.4942Z" fill="#00AEEF"/>
<path d="M35.0001 18.4942H25.4944V28H35.0001V18.4942Z" fill="#FFC20E"/>
<path d="M15.457 32.5205L13.1035 39H12.1416L14.8516 31.8906H15.4717L15.457 32.5205ZM17.4297 39L15.0713 32.5205L15.0566 31.8906H15.6768L18.3965 39H17.4297ZM17.3076 36.3682V37.1396H13.3135V36.3682H17.3076Z" fill="#1C1D1F"/>
<path d="M21.2725 39H19.7881L19.7979 38.2334H21.2725C21.7803 38.2334 22.2035 38.1276 22.542 37.916C22.8805 37.7012 23.1344 37.4017 23.3037 37.0176C23.4762 36.6302 23.5625 36.1777 23.5625 35.6602V35.2256C23.5625 34.8187 23.5137 34.4574 23.416 34.1416C23.3184 33.8226 23.1751 33.554 22.9863 33.3359C22.7975 33.1146 22.5664 32.9469 22.293 32.833C22.0228 32.7191 21.7119 32.6621 21.3604 32.6621H19.7588V31.8906H21.3604C21.8258 31.8906 22.2507 31.9688 22.6348 32.125C23.0189 32.278 23.3493 32.501 23.626 32.7939C23.9059 33.0837 24.1208 33.4352 24.2705 33.8486C24.4202 34.2588 24.4951 34.721 24.4951 35.2354V35.6602C24.4951 36.1745 24.4202 36.6383 24.2705 37.0518C24.1208 37.4619 23.9043 37.8118 23.6211 38.1016C23.3411 38.3913 23.0026 38.6143 22.6055 38.7705C22.2116 38.9235 21.7673 39 21.2725 39ZM20.291 31.8906V39H19.3486V31.8906H20.291Z" fill="#1C1D1F"/>
<path d="M30.2031 36.7393H31.1406C31.0918 37.1885 30.9632 37.5905 30.7549 37.9453C30.5465 38.3001 30.252 38.5817 29.8711 38.79C29.4902 38.9951 29.015 39.0977 28.4453 39.0977C28.0286 39.0977 27.6494 39.0195 27.3076 38.8633C26.9691 38.707 26.6777 38.4857 26.4336 38.1992C26.1895 37.9095 26.0007 37.5628 25.8672 37.1592C25.737 36.7523 25.6719 36.2998 25.6719 35.8018V35.0938C25.6719 34.5957 25.737 34.1449 25.8672 33.7412C26.0007 33.3343 26.1911 32.986 26.4385 32.6963C26.6891 32.4066 26.9902 32.1836 27.3418 32.0273C27.6934 31.8711 28.0889 31.793 28.5283 31.793C29.0654 31.793 29.5195 31.8939 29.8906 32.0957C30.2617 32.2975 30.5498 32.5775 30.7549 32.9355C30.9632 33.2904 31.0918 33.7021 31.1406 34.1709H30.2031C30.1576 33.8389 30.0729 33.554 29.9492 33.3164C29.8255 33.0755 29.6497 32.89 29.4219 32.7598C29.194 32.6296 28.8962 32.5645 28.5283 32.5645C28.2126 32.5645 27.9342 32.6247 27.6934 32.7451C27.4557 32.8656 27.2555 33.0365 27.0928 33.2578C26.9333 33.4792 26.8128 33.7445 26.7314 34.0537C26.6501 34.363 26.6094 34.7064 26.6094 35.084V35.8018C26.6094 36.1501 26.6452 36.4772 26.7168 36.7832C26.7917 37.0892 26.904 37.3577 27.0537 37.5889C27.2035 37.82 27.3939 38.0023 27.625 38.1357C27.8561 38.266 28.1296 38.3311 28.4453 38.3311C28.8457 38.3311 29.1647 38.2676 29.4023 38.1406C29.64 38.0137 29.819 37.8314 29.9395 37.5938C30.0632 37.3561 30.151 37.0713 30.2031 36.7393Z" fill="#1C1D1F"/>
<path d="M36.2139 37.2031C36.2139 37.0371 36.1878 36.8906 36.1357 36.7637C36.0869 36.6335 35.999 36.5163 35.8721 36.4121C35.7484 36.3079 35.5758 36.2087 35.3545 36.1143C35.1364 36.0199 34.8597 35.9238 34.5244 35.8262C34.1729 35.722 33.8555 35.6064 33.5723 35.4795C33.2891 35.3493 33.0465 35.2012 32.8447 35.0352C32.6429 34.8691 32.4883 34.6787 32.3809 34.4639C32.2734 34.249 32.2197 34.0033 32.2197 33.7266C32.2197 33.4499 32.2767 33.1943 32.3906 32.96C32.5046 32.7256 32.6673 32.5221 32.8789 32.3496C33.0938 32.1738 33.3493 32.0371 33.6455 31.9395C33.9417 31.8418 34.2721 31.793 34.6367 31.793C35.1706 31.793 35.623 31.8955 35.9941 32.1006C36.3685 32.3024 36.6533 32.5677 36.8486 32.8965C37.0439 33.222 37.1416 33.5703 37.1416 33.9414H36.2041C36.2041 33.6745 36.1471 33.4385 36.0332 33.2334C35.9193 33.0251 35.7467 32.8623 35.5156 32.7451C35.2845 32.6247 34.9915 32.5645 34.6367 32.5645C34.3014 32.5645 34.0247 32.6149 33.8066 32.7158C33.5885 32.8167 33.4258 32.9535 33.3184 33.126C33.2142 33.2985 33.1621 33.4954 33.1621 33.7168C33.1621 33.8665 33.193 34.0033 33.2549 34.127C33.32 34.2474 33.4193 34.3597 33.5527 34.4639C33.6895 34.568 33.862 34.6641 34.0703 34.752C34.2819 34.8398 34.5342 34.9245 34.8271 35.0059C35.2308 35.1198 35.5791 35.2467 35.8721 35.3867C36.165 35.5267 36.4059 35.6846 36.5947 35.8604C36.7868 36.0329 36.9284 36.2298 37.0195 36.4512C37.1139 36.6693 37.1611 36.9167 37.1611 37.1934C37.1611 37.4831 37.1025 37.7451 36.9854 37.9795C36.8682 38.2139 36.7005 38.4141 36.4824 38.5801C36.2643 38.7461 36.0023 38.8747 35.6963 38.9658C35.3936 39.0537 35.055 39.0977 34.6807 39.0977C34.3519 39.0977 34.028 39.0521 33.709 38.9609C33.3932 38.8698 33.1051 38.7331 32.8447 38.5508C32.5876 38.3685 32.3809 38.1439 32.2246 37.877C32.0716 37.6068 31.9951 37.2943 31.9951 36.9395H32.9326C32.9326 37.1836 32.9798 37.3936 33.0742 37.5693C33.1686 37.7419 33.2972 37.8851 33.46 37.999C33.626 38.113 33.8132 38.1976 34.0215 38.2529C34.2331 38.305 34.4528 38.3311 34.6807 38.3311C35.0094 38.3311 35.2878 38.2855 35.5156 38.1943C35.7435 38.1032 35.916 37.973 36.0332 37.8037C36.1536 37.6344 36.2139 37.4342 36.2139 37.2031Z" fill="#1C1D1F"/>
</svg>
