<svg width="50" height="50" viewBox="0 0 50 50" fill="none" xmlns="http://www.w3.org/2000/svg">
<path d="M24.4563 6H14V16.4564H24.4563V6Z" fill="#F26522"/>
<path d="M36.0001 6H25.5438V16.4564H36.0001V6Z" fill="#8DC63F"/>
<path d="M24.4563 17.5436H14V28H24.4563V17.5436Z" fill="#00AEEF"/>
<path d="M36 17.5436H25.5437V28H36V17.5436Z" fill="#FFC20E"/>
<path d="M16.9839 35.6548L14.8657 41.4863H14L16.439 35.0879H16.9971L16.9839 35.6548ZM18.7593 41.4863L16.6367 35.6548L16.6235 35.0879H17.1816L19.6294 41.4863H18.7593ZM18.6494 39.1177V39.812H15.0547V39.1177H18.6494Z" fill="black"/>
<path d="M22.2178 41.4863H20.8818L20.8906 40.7964H22.2178C22.6748 40.7964 23.0557 40.7012 23.3604 40.5107C23.665 40.3174 23.8936 40.0479 24.0459 39.7021C24.2012 39.3535 24.2788 38.9463 24.2788 38.4805V38.0894C24.2788 37.7231 24.2349 37.3979 24.147 37.1138C24.0591 36.8267 23.9302 36.585 23.7603 36.3887C23.5903 36.1895 23.3823 36.0386 23.1362 35.936C22.8931 35.8335 22.6133 35.7822 22.2969 35.7822H20.8555V35.0879H22.2969C22.7158 35.0879 23.0981 35.1582 23.4438 35.2988C23.7896 35.4365 24.0869 35.6372 24.3359 35.9009C24.5879 36.1616 24.7812 36.478 24.916 36.8501C25.0508 37.2192 25.1182 37.6353 25.1182 38.0981V38.4805C25.1182 38.9434 25.0508 39.3608 24.916 39.7329C24.7812 40.1021 24.5864 40.417 24.3315 40.6777C24.0796 40.9385 23.7749 41.1392 23.4175 41.2798C23.063 41.4175 22.6631 41.4863 22.2178 41.4863ZM21.3345 35.0879V41.4863H20.4863V35.0879H21.3345Z" fill="black"/>
<path d="M27.2407 35.0879V41.4863H26.3926V35.0879H27.2407ZM29.9214 37.9663V38.6606H27.0562V37.9663H29.9214ZM30.3564 35.0879V35.7822H27.0562V35.0879H30.3564Z" fill="black"/>
<path d="M34.7773 39.8691C34.7773 39.7197 34.7539 39.5879 34.707 39.4736C34.6631 39.3564 34.584 39.251 34.4697 39.1572C34.3584 39.0635 34.2031 38.9741 34.0039 38.8892C33.8076 38.8042 33.5586 38.7178 33.2568 38.6299C32.9404 38.5361 32.6548 38.4321 32.3999 38.3179C32.145 38.2007 31.9268 38.0674 31.7451 37.918C31.5635 37.7686 31.4243 37.5972 31.3276 37.4038C31.231 37.2104 31.1826 36.9893 31.1826 36.7402C31.1826 36.4912 31.2339 36.2612 31.3364 36.0503C31.439 35.8394 31.5854 35.6562 31.7759 35.501C31.9692 35.3428 32.1992 35.2197 32.4658 35.1318C32.7324 35.0439 33.0298 35 33.3579 35C33.8384 35 34.2456 35.0923 34.5796 35.2769C34.9165 35.4585 35.1729 35.6973 35.3486 35.9932C35.5244 36.2861 35.6123 36.5996 35.6123 36.9336H34.7686C34.7686 36.6934 34.7173 36.481 34.6147 36.2964C34.5122 36.1089 34.3569 35.9624 34.1489 35.8569C33.9409 35.7485 33.6772 35.6943 33.3579 35.6943C33.0562 35.6943 32.8071 35.7397 32.6108 35.8306C32.4146 35.9214 32.2681 36.0444 32.1714 36.1997C32.0776 36.355 32.0308 36.5322 32.0308 36.7314C32.0308 36.8662 32.0586 36.9893 32.1143 37.1006C32.1729 37.209 32.2622 37.3101 32.3823 37.4038C32.5054 37.4976 32.6606 37.584 32.8481 37.6631C33.0386 37.7422 33.2656 37.8184 33.5293 37.8916C33.8926 37.9941 34.2061 38.1084 34.4697 38.2344C34.7334 38.3604 34.9502 38.5024 35.1201 38.6606C35.293 38.8159 35.4204 38.9932 35.5024 39.1924C35.5874 39.3887 35.6299 39.6113 35.6299 39.8604C35.6299 40.1211 35.5771 40.3569 35.4717 40.5679C35.3662 40.7788 35.2153 40.959 35.019 41.1084C34.8228 41.2578 34.5869 41.3735 34.3115 41.4556C34.0391 41.5347 33.7344 41.5742 33.3975 41.5742C33.1016 41.5742 32.8101 41.5332 32.5229 41.4512C32.2388 41.3691 31.9795 41.2461 31.7451 41.082C31.5137 40.918 31.3276 40.7158 31.187 40.4756C31.0493 40.2324 30.9805 39.9512 30.9805 39.6318H31.8242C31.8242 39.8516 31.8667 40.0405 31.9517 40.1987C32.0366 40.354 32.1523 40.4829 32.2988 40.5854C32.4482 40.688 32.6167 40.7642 32.8042 40.814C32.9946 40.8608 33.1924 40.8843 33.3975 40.8843C33.6934 40.8843 33.9438 40.8433 34.1489 40.7612C34.354 40.6792 34.5093 40.562 34.6147 40.4097C34.7231 40.2573 34.7773 40.0771 34.7773 39.8691Z" fill="black"/>
</svg>
