<svg width="50" height="50" viewBox="0 0 50 50" fill="none" xmlns="http://www.w3.org/2000/svg">
<path fill-rule="evenodd" clip-rule="evenodd" d="M25 40.2456C33.4223 40.2456 40.25 33.4179 40.25 24.9956C40.25 16.5733 33.4223 9.74561 25 9.74561C16.5777 9.74561 9.75 16.5733 9.75 24.9956C9.75 33.4179 16.5777 40.2456 25 40.2456ZM25 44.9956C36.0457 44.9956 45 36.0413 45 24.9956C45 13.9499 36.0457 4.99561 25 4.99561C13.9543 4.99561 5 13.9499 5 24.9956C5 36.0413 13.9543 44.9956 25 44.9956Z" fill="#F07057"/>
<path fill-rule="evenodd" clip-rule="evenodd" d="M34.1695 16.2598C35.1972 17.1819 35.2828 18.7624 34.3608 19.7902L22.5664 32.936C21.4004 34.2355 19.3343 34.1337 18.3018 32.7258L14.3589 27.349C13.5424 26.2356 13.7831 24.6711 14.8965 23.8546C16.0099 23.0381 17.5744 23.2788 18.3909 24.3922L20.6952 27.5344L30.6391 16.4511C31.5612 15.4234 33.1417 15.3377 34.1695 16.2598Z" fill="#F07057"/>
</svg>
