<svg width="50" height="50" viewBox="0 0 50 50" fill="none" xmlns="http://www.w3.org/2000/svg">
<rect width="50" height="50" transform="translate(0 -0.00390625)" fill="#FA0F00"/>
<path d="M38.0111 37.5428H32.5067C32.0284 37.5518 31.5673 37.2462 31.3778 36.7946L25.4021 22.4322C25.3326 22.1832 24.9704 22.1888 24.8979 22.4254L21.1739 31.5445C21.093 31.7418 21.2565 31.9949 21.4648 31.9949H25.5582C25.8062 31.9949 26.0428 32.156 26.1395 32.3908L27.9317 36.4904C28.125 36.9588 27.781 37.5425 27.2544 37.5428H12.3522C11.8668 37.5398 11.552 37.0005 11.7318 36.5693L21.2107 13.3656C21.4045 12.8744 21.8986 12.5367 22.4142 12.5431H27.8813C28.3971 12.5361 28.8916 12.874 29.0849 13.3656L38.6294 36.5693C38.8091 36.9998 38.4958 37.5385 38.0111 37.5428Z" fill="white"/>
</svg>
