<svg width="50" height="50" viewBox="0 0 50 50" fill="none" xmlns="http://www.w3.org/2000/svg">
<rect width="50" height="50" fill="#FA0F00"/>
<path d="M37.38 32.0037H32.2834C31.8405 32.0116 31.4135 31.7427 31.2381 31.3454L25.705 18.7064C25.6407 18.4873 25.3054 18.4922 25.2381 18.7005L21.79 26.7253C21.7151 26.8989 21.8665 27.1216 22.0594 27.1216H25.8496C26.0792 27.1216 26.2982 27.2634 26.3878 27.47L28.0472 31.0777C28.2263 31.4899 27.9078 32.0035 27.4201 32.0037H13.6218C13.1723 32.0011 12.8809 31.5265 13.0474 31.1471L21.8241 10.7278C22.0035 10.2956 22.461 9.99839 22.9384 10.004H28.0006C28.4781 9.99782 28.936 10.2952 29.115 10.7278L37.9525 31.1471C38.1189 31.5259 37.8288 32 37.38 32.0037Z" fill="white"/>
<path d="M32.1582 35.7964C33.394 35.7964 34.6631 36.5801 34.6631 37.9448H33.7256C33.7256 37.136 33.2144 36.5679 32.1582 36.5679C31.1552 36.5679 30.6836 37.0524 30.6836 37.7202C30.6836 38.3212 31.1941 38.6886 32.3486 39.0093C33.9609 39.4644 34.6826 40.0844 34.6826 41.1968C34.6826 42.352 33.7139 43.1011 32.2021 43.1011C30.9311 43.1011 29.5166 42.3407 29.5166 40.9429H30.4541C30.4541 41.9181 31.3008 42.3345 32.2021 42.3345C33.1915 42.3345 33.7354 41.8957 33.7354 41.2065C33.7354 40.543 33.4057 40.2256 32.0459 39.8296C30.6351 39.4116 29.7412 38.8356 29.7412 37.73C29.7412 36.6139 30.7119 35.7964 32.1582 35.7964Z" fill="white"/>
<path d="M16.7676 42.2368H20.1367V43.0034H15.8252V35.894H16.7676V42.2368Z" fill="white"/>
<path d="M24.7559 41.6899L27.0801 35.894H28.291V43.0034H27.3535L27.4434 37.2563L25.1074 43.0034H24.3945L22.0625 37.2485L22.1533 43.0034H21.2158V35.894H22.4268L24.7559 41.6899Z" fill="white"/>
</svg>
