<svg width="50" height="50" viewBox="0 0 50 50" fill="none" xmlns="http://www.w3.org/2000/svg">
<path d="M36.8034 16.6819H30.9271L30.9356 19.4124C28.4492 16.495 25.1347 16.668 25.1347 16.668H16.5459L6.94434 33.2987H13.4045L15.3887 29.7839L19.1597 29.7796V33.3159L25.0052 33.3256C25.0052 33.3256 28.3823 33.3922 30.9144 30.5554L30.9101 33.2998H36.419L36.4233 29.7989H36.9934C39.2271 29.9719 43.0714 27.6337 43.0544 23.1045C43.0427 19.349 40.206 16.6819 36.8034 16.6819ZM36.4318 27.7906L34.2819 27.796L34.2777 31.3033L32.9177 31.3065V27.7874H30.512C30.512 27.7874 29.2093 31.1701 24.8491 31.2893L21.3064 31.3076V27.7723L14.2145 27.7713L12.1401 31.3012H10.5168L17.6851 18.8343H24.8194C29.3134 18.86 30.8209 22.6973 31.0237 24.1275H32.9188L32.9209 18.7977L36.5783 18.7988C39.3524 18.9353 40.9704 21.2864 41.0181 22.8756C41.0956 25.3815 39.3598 27.6746 36.4318 27.7906Z" fill="#CF4037"/>
<path d="M22.7067 20.2559L22.7088 22.3179H24.5402C28.1477 22.3083 28.1498 27.7637 24.4436 27.753H22.7078V29.8183H24.4563C27.2612 29.8333 29.4546 27.8948 29.4503 24.8657C29.4482 22.982 27.8621 20.2548 24.7822 20.2548L22.7067 20.2559ZM34.3584 20.2709V22.3383H36.3384C37.6155 22.4017 37.641 24.2715 36.3511 24.2639H34.369V26.3507C34.369 26.3507 36.0857 26.3615 36.2439 26.3507C37.9128 26.3453 39.4097 25.1762 39.4097 23.1915C39.4097 21.2262 37.8735 20.272 36.2439 20.272C36.5273 20.2709 34.3584 20.2709 34.3584 20.2709ZM19.251 20.2301L21.3043 20.2258V26.3604H15.0978L16.2901 24.2564L19.2457 24.2682L19.251 20.2301Z" fill="#CF4037"/>
</svg>
