<svg width="50" height="50" viewBox="0 0 50 50" fill="none" xmlns="http://www.w3.org/2000/svg">
<rect width="50" height="50" fill="#CF4037"/>
<path d="M23.6436 37.0612V37.8278H19.7959V37.0612H23.6436ZM19.9424 34.0045V41.1139H19V34.0045H19.9424ZM24.4639 34.0045V41.1139H23.5264V34.0045H24.4639Z" fill="white"/>
<path d="M26.1387 34.0045H28.4922C30.1001 34.0045 30.9824 34.7523 30.9824 36.1383C30.9824 37.1008 30.3776 37.853 29.3369 38.1305L26.8613 38.233L26.8516 37.4664C27.9583 37.4664 30.0449 37.7828 30.0449 36.1383C30.0449 35.3196 29.5804 34.776 28.4922 34.776H27.0811V41.1139H26.1387V34.0045ZM30.2939 41.1139L28.5654 37.8912L29.5469 37.8864L31.2998 41.0553V41.1139H30.2939Z" fill="white"/>
<path d="M36.859 12.0204H30.9828L30.9913 14.7509C28.5049 11.8335 25.1904 12.0065 25.1904 12.0065H16.6016L7 28.6373H13.4602L15.4444 25.1224L19.2154 25.1181V28.6544L25.0609 28.6641C25.0609 28.6641 28.438 28.7307 30.97 25.8939L30.9658 28.6383H36.4747L36.479 25.1374H37.0491C39.2828 25.3104 43.127 22.9722 43.11 18.443C43.0984 14.6875 40.2616 12.0204 36.859 12.0204ZM36.4874 23.1291L34.3376 23.1345L34.3333 26.6418L32.9734 26.645V23.1259H30.5677C30.5677 23.1259 29.265 26.5086 24.9048 26.6278L21.3621 26.6461V23.1108L14.2702 23.1098L12.1957 26.6397H10.5725L17.7408 14.1728H24.8751C29.3691 14.1985 30.8766 18.0358 31.0794 19.466H32.9744L32.9766 14.1362L36.634 14.1373C39.4081 14.2738 41.026 16.6249 41.0738 18.2141C41.1513 20.72 39.4155 23.0131 36.4874 23.1291Z" fill="white"/>
<path d="M22.7624 15.5944L22.7645 17.6564H24.5959C28.2034 17.6468 28.2055 23.1022 24.4992 23.0915H22.7634V25.1568H24.512C27.3169 25.1718 29.5103 23.2333 29.506 20.2042C29.5039 18.3205 27.9178 15.5933 24.8379 15.5933L22.7624 15.5944ZM34.414 15.6094V17.6768H36.394C37.6712 17.7402 37.6967 19.61 36.4068 19.6024H34.4246V21.6892C34.4246 21.6892 36.1413 21.7 36.2995 21.6892C37.9684 21.6838 39.4654 20.5147 39.4654 18.53C39.4654 16.5647 37.9292 15.6105 36.2995 15.6105C36.583 15.6094 34.414 15.6094 34.414 15.6094ZM19.3067 15.5686L21.3599 15.5643V21.6989H15.1535L16.3457 19.5949L19.3014 19.6067L19.3067 15.5686Z" fill="white"/>
</svg>
