<svg width="50" height="50" viewBox="0 0 50 50" fill="none" xmlns="http://www.w3.org/2000/svg">
<path d="M23.6436 37.0566V37.8232H19.7959V37.0566H23.6436ZM19.9424 34V41.1094H19V34H19.9424ZM24.4639 34V41.1094H23.5264V34H24.4639Z" fill="black"/>
<path d="M26.1387 34H28.4922C30.1001 34 30.9824 34.7478 30.9824 36.1338C30.9824 37.0962 30.3776 37.8485 29.3369 38.126L26.8613 38.2285L26.8516 37.4619C27.9583 37.4619 30.0449 37.7783 30.0449 36.1338C30.0449 35.3151 29.5804 34.7715 28.4922 34.7715H27.0811V41.1094H26.1387V34ZM30.2939 41.1094L28.5654 37.8867L29.5469 37.8818L31.2998 41.0508V41.1094H30.2939Z" fill="black"/>
<path d="M36.859 12.0159H30.9828L30.9913 14.7463C28.5049 11.8289 25.1904 12.0019 25.1904 12.0019H16.6016L7 28.6327H13.4602L15.4444 25.1179L19.2154 25.1136V28.6499L25.0609 28.6596C25.0609 28.6596 28.438 28.7262 30.97 25.8894L30.9658 28.6338H36.4747L36.479 25.1329H37.0491C39.2828 25.3059 43.127 22.9677 43.11 18.4385C43.0984 14.6829 40.2616 12.0159 36.859 12.0159ZM36.4874 23.1246L34.3376 23.13L34.3333 26.6373L32.9734 26.6405V23.1214H30.5677C30.5677 23.1214 29.265 26.5041 24.9048 26.6233L21.3621 26.6416V23.1063L14.2702 23.1053L12.1957 26.6351H10.5725L17.7408 14.1682H24.8751C29.3691 14.194 30.8766 18.0312 31.0794 19.4615H32.9744L32.9766 14.1317L36.634 14.1328C39.4081 14.2692 41.026 16.6204 41.0738 18.2096C41.1513 20.7155 39.4155 23.0085 36.4874 23.1246Z" fill="#CF4037"/>
<path d="M22.7624 15.5898L22.7645 17.6519H24.5959C28.2034 17.6422 28.2055 23.0977 24.4992 23.087H22.7634V25.1523H24.512C27.3169 25.1673 29.5102 23.2288 29.506 20.1997C29.5039 18.316 27.9178 15.5888 24.8379 15.5888L22.7624 15.5898ZM34.414 15.6049V17.6723H36.394C37.6712 17.7357 37.6967 19.6054 36.4068 19.5979H34.4246V21.6847C34.4246 21.6847 36.1413 21.6954 36.2995 21.6847C37.9684 21.6793 39.4654 20.5102 39.4654 18.5255C39.4654 16.5602 37.9292 15.606 36.2995 15.606C36.583 15.6049 34.414 15.6049 34.414 15.6049ZM19.3067 15.5641L21.3599 15.5598V21.6944H15.1535L16.3457 19.5904L19.3014 19.6022L19.3067 15.5641Z" fill="#CF4037"/>
</svg>
