<svg width="50" height="50" viewBox="0 0 50 50" fill="none" xmlns="http://www.w3.org/2000/svg">
<path d="M24.4473 25.4365C24.4473 25.6479 24.6207 25.8213 24.832 25.8213H25.5625V20.7959H28.3584V28.9531C28.3584 29.6929 27.7525 30.2988 27.0127 30.2988H21.748V28.3379H25.5625V27.502H22.9971C22.2572 27.502 21.6514 26.897 21.6514 26.1572V20.7959H24.4473V25.4365Z" fill="#0ABF53"/>
<path d="M11.3613 20.7959C12.101 20.7959 12.7058 21.401 12.7061 22.1406V27.502H7.34473C6.60509 27.5017 6 26.8969 6 26.1572V24.6582C6.00011 23.9186 6.60516 23.3137 7.34473 23.3135H8.7959V25.4365C8.7959 25.6479 8.96929 25.8213 9.18066 25.8213H9.91016V22.8525C9.91016 22.6412 9.73766 22.4679 9.52637 22.4678H6.0957V20.7959H11.3613Z" fill="#0ABF53"/>
<path d="M20.5273 27.502H15.166C14.4262 27.5019 13.8213 26.897 13.8213 26.1572V22.1406C13.8215 21.401 14.4264 20.796 15.166 20.7959H16.6172V25.4365C16.6172 25.6478 16.7897 25.8211 17.001 25.8213H17.7314V18H20.5273V27.502Z" fill="#0ABF53"/>
<path d="M34.834 20.7959C35.5736 20.796 36.1785 21.401 36.1787 22.1406V23.6396C36.1787 24.3794 35.5738 24.9853 34.834 24.9854H33.3828V22.8525C33.3828 22.6413 33.2103 22.4679 32.999 22.4678H32.2686V25.4365C32.2686 25.6479 32.4419 25.8213 32.6533 25.8213H36.083V27.502H30.8174C30.0777 27.5018 29.4727 26.8969 29.4727 26.1572V20.7959H34.834Z" fill="#0ABF53"/>
<path d="M42.6553 20.7959C43.4044 20.7961 43.9998 21.4011 44 22.1406V27.4932H41.2041V22.8525C41.2041 22.6412 41.0307 22.4678 40.8193 22.4678H40.0898V27.502H37.2939V20.7959H42.6553Z" fill="#0ABF53"/>
</svg>
