<svg width="50" height="50" viewBox="0 0 50 50" fill="none" xmlns="http://www.w3.org/2000/svg">
<rect width="50" height="50" fill="#003768"/>
<path d="M8.04469 30.2074C8.37332 28.2691 9.45421 26.9885 11.3063 26.4724C12.6665 26.094 14.0608 25.8398 15.4399 25.5255C15.7762 25.4479 16.1181 25.3761 16.441 25.2519C17.1439 24.9842 17.5162 24.4118 17.4554 23.6803C17.4326 23.4048 17.066 23.0264 16.783 22.9352C16.082 22.7063 15.3525 22.8013 14.9422 23.5095C14.6117 24.0819 14.4293 24.7416 14.1748 25.3742H9.85693C9.95571 23.2942 11.5742 21.383 13.8347 20.6806C15.8787 20.0461 17.9626 20.0869 20.018 20.5564C21.9784 21.0046 22.6661 22.1087 22.2976 24.2022C21.912 26.3909 21.382 28.5523 20.9564 30.7332C20.7798 31.6374 20.5081 32.9128 21.173 33.5563H15.7648C15.7249 33.1275 15.6869 32.724 15.6337 32.1593C14.378 33.4593 12.921 33.9095 11.2399 33.8377C9.2104 33.751 7.71927 32.1809 8.04469 30.2074ZM16.6253 27.2795C15.6166 27.5919 14.8055 27.751 14.0779 28.0944C13.2782 28.4689 12.9818 29.2702 13.1129 30.122C13.359 31.7407 15.7082 30.7793 16.0079 29.6447C16.1979 28.9365 16.3802 28.2264 16.6272 27.2795H16.6253Z" fill="white"/>
<path d="M28.9615 28.3531L33.4704 28.2999C30.2913 27.383 29.9114 26.4128 29.9114 24.4725H31.9353L32.6951 21.0447C32.6951 21.0447 33.2661 20.495 34.4401 20.2252C35.8002 20.0099 37.092 19.9633 38.4008 20.0681C41.2712 20.2951 42.5439 21.9502 41.784 25.2487L37.5099 25.1943V25.2487C39.909 26.1378 42.1741 27.3845 40.7944 30.3846C39.8275 32.4898 37.9829 33.3066 35.9047 33.7548C31.7857 34.6589 28.3269 33.1075 28.9615 28.3531ZM33.4789 28.2483C33.3877 28.7994 33.3231 29.1758 33.2661 29.5541C33.1674 30.2099 33.0781 30.891 33.8607 31.1782C34.6073 31.4517 35.293 31.2538 35.8325 30.6679C37.1544 29.2233 34.3785 28.6009 33.4789 28.2483ZM37.5099 25.2487V23.2114C37.3412 22.186 35.7857 22.684 35.2475 23.0173C34.632 23.3976 34.5978 24.263 35.2475 24.5986C35.8211 24.8955 36.7861 24.9925 37.5099 25.2487Z" fill="white"/>
<path d="M32.6868 16.2166C32.5025 17.0704 32.3335 18.1841 32.191 18.8457C32.191 18.8457 30.8183 18.7668 30.2256 19.1045C29.9407 19.2674 29.7215 20.5551 29.7215 20.5551H31.7598C31.547 21.5563 31.169 23.322 31.169 23.322H28.9616L28.5798 25.3534C28.0498 27.8079 27.3621 31.1006 26.872 33.5647L22.8163 33.5628C22.1913 33.588 21.9329 32.9981 21.9329 32.4277C21.9329 31.9795 21.9653 31.8223 22.0584 31.3858C22.5409 29.1176 23.0519 26.8572 23.5477 24.5909C23.9504 22.7535 23.5838 22.0297 22.5979 20.5241H24.3075C24.3987 20.1709 24.4937 19.8353 24.5735 19.4977C25.0693 17.3847 26.078 16.4553 28.2056 16.1487C29.7686 15.9227 31.1425 15.9614 32.6868 16.2166Z" fill="white"/>
</svg>
