<svg width="50" height="50" viewBox="0 0 50 50" fill="none" xmlns="http://www.w3.org/2000/svg">
<path d="M41.6663 37.3345C41.6663 37.3345 38.6573 37.3345 37.1952 37.3345C37.0328 37.2956 36.8888 37.1856 36.8044 37.0359C32.8704 30.5078 29.065 23.8792 24.9866 17.4404L19.8675 26.0251H29.2461L27.0122 29.7881C26.9181 29.9733 26.7138 30.086 26.5139 30.063L17.9657 30.0426C17.6182 30.0115 17.2689 30.2201 17.119 30.5482L13.2112 37.158C13.1026 37.3812 12.8609 37.5203 12.6218 37.4974H8.33301L22.4759 14.1694C23.6181 12.2983 26.3329 11.7967 27.4876 13.9828L41.6663 37.3345Z" fill="#17335B"/>
</svg>
