<svg width="50" height="50" viewBox="0 0 50 50" fill="none" xmlns="http://www.w3.org/2000/svg">
<path d="M11.403 28.4755L10.7911 31.2205C10.7911 31.3021 10.7095 31.3429 10.6279 31.3429H7.67882C7.57509 31.3429 7.51563 31.2289 7.51563 31.139L11.403 19.3426C11.403 19.3426 11.4846 19.1386 11.7294 19.057C12.592 18.8939 13.9383 18.6899 14.8825 18.5267C15.0865 18.4859 15.1681 18.6899 15.1681 18.6899L18.9739 31.2205C18.9739 31.3236 18.9138 31.3837 18.8107 31.3837H17.0914C16.6426 31.3837 15.7392 31.4245 15.4129 31.4245C15.3313 31.4245 15.2497 31.3837 15.2497 31.3021L14.6377 28.5163L11.403 28.4755ZM14.1481 26.0626C13.9034 25.0776 13.5362 23.3175 13.1632 21.8021C12.9184 22.8687 12.3414 25.0368 12.0558 26.0626H14.1481Z" fill="#0173CF"/>
<path d="M22.8733 23.1543C24.9598 21.7205 26.72 22.0469 27.5825 22.9095C28.6083 23.9761 28.0313 25.369 28.3577 31.2205C28.3577 31.3236 28.2976 31.3837 28.1945 31.3837C27.1439 31.3837 26.0927 31.3837 25.0414 31.3837C24.9384 31.3837 24.8783 31.3236 24.8783 31.2205C24.919 25.4856 24.9598 24.7104 23.9341 24.7104C23.5669 24.7104 23.2813 24.8736 22.9491 24.996C22.9491 27.9451 22.9899 28.8018 23.1123 31.1797C23.1123 31.245 23.0619 31.3021 22.9899 31.3021L19.7145 31.3429C19.6492 31.3429 19.5921 31.2925 19.5921 31.2205C19.6737 22.6647 19.5921 20.9046 19.3473 19.0978C19.2249 19.0162 19.3881 19.0162 19.3881 19.0162C20.8626 18.8122 20.985 18.7714 22.6635 18.4451C22.6635 18.4451 22.8267 18.4451 22.8267 18.6491C22.8733 19.9196 22.8733 23.1543 22.8733 23.1543Z" fill="#0173CF"/>
<path d="M34.0923 30.4803C33.4803 30.9291 32.2914 31.5469 31.3064 31.5469C29.7911 31.5469 28.8469 30.4395 28.8469 28.8018C28.8469 26.2607 31.8368 25.5263 33.9641 25.2408C34.0049 24.8328 34.0049 24.3782 32.9383 24.3782C31.8718 24.3782 30.9742 24.7046 30.03 25.0717C29.9298 25.1719 29.7852 25.0047 29.7852 24.9085L29.8668 22.9444C29.8668 22.8628 29.9076 22.822 29.9892 22.7812C31.9126 22.2101 35.188 21.7555 36.5402 23.026C37.4027 23.8012 37.3619 24.7862 37.3153 26.4239C37.2745 28.796 37.3153 29.4546 37.4377 31.2147C37.4377 31.3178 37.3776 31.3779 37.2745 31.3779L34.2438 31.4187C34.1408 31.4187 34.0807 31.3585 34.0807 31.2555V30.4803H34.0923ZM34.0107 27.0825C33.2356 27.1641 32.0466 27.2457 32.0466 28.2714C32.0466 29.1748 33.0316 29.4604 34.0107 28.8426V27.0825Z" fill="#0173CF"/>
<path d="M39.4955 27.123C39.4139 27.123 39.3323 27.0414 39.3323 26.9598C39.1284 22.4954 39.0876 22.0058 38.8428 19.22C38.8428 19.1384 38.8836 19.0568 39.006 19.016L42.2814 18.4856C42.4301 18.4856 42.4854 18.5441 42.4854 18.6896C42.2814 20.6945 42.0774 24.5061 42.0366 26.919C42.0366 27.0006 41.955 27.0822 41.8734 27.0822L39.4955 27.123Z" fill="#0173CF"/>
<path d="M38.9248 28.3585C38.9248 28.2555 38.9849 28.1953 39.088 28.1953C39.9156 28.2769 41.3668 28.2361 42.0312 28.1545C42.1343 28.1545 42.1944 28.2147 42.1944 28.3177C42.1944 29.2891 42.1944 30.2546 42.1944 31.226C42.1944 31.3291 42.1343 31.3892 42.0312 31.3892C40.8423 31.3484 40.1079 31.3484 39.0821 31.43C38.9791 31.43 38.9189 31.3699 38.9189 31.2668C38.967 30.3058 38.9933 29.3176 38.9248 28.3585Z" fill="#0173CF"/>
</svg>
