<svg width="50" height="50" viewBox="0 0 50 50" fill="none" xmlns="http://www.w3.org/2000/svg">
<rect width="50" height="50" transform="translate(0 -0.00439453)" fill="#00B388"/>
<path d="M31.3613 38.4683C30.8809 37.3297 29.8301 36.483 28.5691 36.2203C26.4725 35.731 23.8805 35.731 21.7839 36.2203C20.5229 36.483 19.5021 37.3297 19.0218 38.4391C18.7554 39.0003 18.2629 38.9938 17.7308 38.9938C15.7192 38.7895 14.128 38.5267 13.1973 38.2055C12.4648 37.9342 12.1465 37.2012 12.1465 36.483C12.2966 34.4394 13.5876 29.6513 15.479 24.1918C17.6407 17.9441 19.9225 12.8933 20.9433 11.9007C21.1512 11.658 21.4964 11.4523 21.8139 11.3751C22.4744 11.1416 23.7354 10.9956 25.1465 10.9956C26.5576 10.9956 27.8185 11.1416 28.479 11.3751C28.8059 11.4546 29.1163 11.6736 29.3497 11.9007C30.3705 12.8933 32.6523 17.9441 34.8139 24.1918C36.7054 29.6513 37.9964 34.4394 38.1465 36.483C38.1465 37.2015 37.8183 37.9245 37.0957 38.2055C36.165 38.5267 34.6038 38.7895 32.5922 38.9938C32.0784 38.9938 31.5931 39.0545 31.3613 38.4683Z" fill="white"/>
</svg>
