<svg width="50" height="50" viewBox="0 0 50 50" fill="none" xmlns="http://www.w3.org/2000/svg">
<path d="M24.9793 13.9956L8.5 30.1921L14.4049 35.9956C16.9757 33.0668 20.7778 31.2109 25.0226 31.2109C27.4105 31.2109 29.6588 31.7986 31.6258 32.8328C33.1558 33.639 34.519 34.7144 35.6404 35.9956L41.5 30.2366L24.9793 13.9956ZM25.001 20.6323C25.9196 20.6323 26.6631 21.3631 26.6631 22.2659C26.6631 23.1687 25.9196 23.8995 25.001 23.8995C24.0824 23.8995 23.3389 23.1687 23.3389 22.2659C23.3389 21.3631 24.0824 20.6323 25.001 20.6323ZM35.6659 34.1397C34.6466 33.1742 33.4859 32.3439 32.2473 31.6922C30.0404 30.5304 27.5423 29.9156 25.0226 29.9156C23.0517 29.9156 21.126 30.2887 19.3381 30.9905C22.9002 28.4406 27.2807 26.9289 32.025 26.9289C33.6675 26.9289 35.2667 27.1105 36.8048 27.4508L39.6373 30.2346L35.664 34.1397H35.6659Z" fill="#2A55DD"/>
</svg>
