<svg width="50" height="50" viewBox="0 0 50 50" fill="none" xmlns="http://www.w3.org/2000/svg">
<path d="M23.4072 8.87411L12.3146 13.4652C11.6979 13.7201 11.7117 14.597 12.325 14.8433L23.4641 19.2604C24.4429 19.6484 25.5328 19.6484 26.5116 19.2604L37.6507 14.8433C38.2709 14.597 38.2778 13.721 37.661 13.4652L26.5684 8.87411C25.5563 8.45537 24.4194 8.45537 23.4072 8.87411Z" fill="#FFCC00"/>
<path d="M25.9775 21.6713V32.6967C25.9775 33.2135 26.5064 33.5813 26.9939 33.3875L39.3975 28.5699C39.6748 28.4607 39.8675 28.1771 39.8669 27.8791V16.8537C39.8669 16.3369 39.338 15.9691 38.8505 16.1629L26.4469 20.9804C26.1696 21.0896 25.9769 21.3733 25.9775 21.6713Z" fill="#31C2F2"/>
<path d="M23.0799 22.2405L11.2552 27.9263C10.7625 28.164 10.1328 27.8057 10.1328 27.257V16.9C10.1328 16.7019 10.2345 16.5296 10.3705 16.4022C10.5922 16.1808 10.9418 16.0966 11.2345 16.2084L23.0351 20.8804C23.6346 21.1181 23.6811 21.9571 23.0971 22.2413" fill="#ED3049"/>
<path d="M23.0799 22.2405L19.395 24.02L10.3507 16.4022C10.5724 16.1808 10.922 16.0966 11.2147 16.2084L23.0153 20.8804C23.6148 21.1181 23.6613 21.9571 23.0773 22.2413" fill="#C62842"/>
<path d="M33.7983 36.4577V40.4609H32.9997V36.4577H33.7983Z" fill="#7F8BA5"/>
<path d="M32.9396 35.3959C32.9396 35.1721 33.1009 35 33.4076 35C33.7135 35 33.8799 35.1757 33.8799 35.3959C33.8799 35.6045 33.7163 35.7807 33.4076 35.7807C33.0982 35.7807 32.9396 35.6078 32.9396 35.3959Z" fill="#7F8BA5"/>
<path d="M37.6027 39.399C37.6027 39.7302 37.2623 39.9725 36.6023 39.9725C36.055 39.9725 35.5297 39.7302 35.4988 39.2252H34.7002C34.7002 40.085 35.7098 40.5349 36.6023 40.5349C37.4306 40.5349 38.397 40.174 38.397 39.3473C38.397 38.7035 37.8689 38.3742 36.7268 38.1522C35.8445 37.9822 35.6577 37.8235 35.6577 37.5344C35.6577 37.2334 35.9332 36.9461 36.5808 36.9461C37.0364 36.9461 37.5555 37.1921 37.5555 37.6342H38.3498C38.3498 36.8039 37.4362 36.3837 36.5808 36.3837C35.7893 36.3837 34.8591 36.7881 34.8591 37.5529C34.8591 38.2202 35.519 38.5226 36.5336 38.7072C36.9836 38.7833 37.6027 38.918 37.6027 39.399Z" fill="#7F8BA5"/>
<path fill-rule="evenodd" clip-rule="evenodd" d="M41.1924 40.5349C42.1181 40.5349 42.6404 40.1524 42.9399 39.7616L42.459 39.4323C42.167 39.7629 41.7963 39.9762 41.2353 39.9762C40.3771 39.9762 39.8776 39.3304 39.8578 38.6517H43C43 37.5449 42.5538 36.3837 41.0893 36.3837C40.0496 36.3837 39.0584 37.1339 39.0584 38.4445C39.0584 39.562 39.8427 40.5349 41.1924 40.5349ZM39.881 38.093C39.9893 37.3512 40.4644 36.9461 41.0893 36.9461C41.8236 36.9461 42.2057 37.4977 42.2057 38.093H39.881Z" fill="#7F8BA5"/>
<path d="M30.9257 37.6149V40.4609H30.1314V36.4577H30.9042L30.9199 36.9172L30.9257 36.9091C31.1626 36.5755 31.5257 36.3837 32.0249 36.3837C32.139 36.3837 32.3195 36.4108 32.377 36.4355L32.3727 37.0719C32.2439 37.0478 32.1385 37.0423 31.9862 37.0423C31.4501 37.0423 31.1019 37.2613 30.9257 37.6149Z" fill="#7F8BA5"/>
<path fill-rule="evenodd" clip-rule="evenodd" d="M26.1344 36.8973L26.0952 36.4577H25.3653V42H26.1639V40.0726C26.4772 40.3738 26.9195 40.5349 27.4906 40.5349C28.6535 40.5349 29.294 39.6562 29.294 38.5037C29.294 37.5111 28.8346 36.3837 27.4777 36.3837C26.8956 36.3837 26.45 36.5615 26.1344 36.8973ZM26.1639 39.4234V37.5123C26.3756 37.1885 26.7159 36.9609 27.2459 36.9609C28.2203 36.9609 28.4953 37.8119 28.4953 38.5037C28.4953 39.1751 28.15 39.9725 27.2545 39.9725C26.7051 39.9725 26.3676 39.7437 26.1639 39.4234Z" fill="#7F8BA5"/>
<path d="M23.3599 37.6149V40.4609H22.5656V36.4577H23.3385L23.3542 36.9172L23.3599 36.9091C23.5969 36.5755 23.96 36.3837 24.4591 36.3837C24.5733 36.3837 24.7538 36.4108 24.8112 36.4355L24.8069 37.0719C24.6781 37.0478 24.5728 37.0423 24.4205 37.0423C23.8843 37.0423 23.5361 37.2613 23.3599 37.6149Z" fill="#7F8BA5"/>
<path fill-rule="evenodd" clip-rule="evenodd" d="M20.0064 40.5349C18.7236 40.5349 17.8725 39.6543 17.8725 38.5999C17.8725 37.5449 18.4964 36.3837 19.9034 36.3837C21.3678 36.3837 21.8141 37.5449 21.8141 38.6517H18.6719C18.6934 39.3871 19.2097 39.9762 20.0494 39.9762C20.6104 39.9762 20.9811 39.7629 21.2731 39.4323L21.7539 39.7616C21.4545 40.1524 20.9321 40.5349 20.0064 40.5349ZM18.6951 38.093H21.0197C21.0197 37.4977 20.6376 36.9461 19.9034 36.9461C19.2785 36.9461 18.8034 37.3512 18.6951 38.093Z" fill="#7F8BA5"/>
<path d="M17.3227 36.9831V36.4577H16.4554V35.4847H15.6611V36.4577H14.8109V36.9831H15.6611V39.4656C15.6611 40.2918 16.4019 40.7193 17.3442 40.4609L17.3399 39.9022C16.8803 39.9936 16.4554 39.925 16.4554 39.4693V36.9831H17.3227Z" fill="#7F8BA5"/>
<path d="M11.4696 36.9558L11.4445 36.4577H10.6931V40.4609H11.4875V37.6041C11.7127 37.2179 12.1158 36.9609 12.621 36.9609C13.2157 36.9609 13.5484 37.193 13.5484 37.8303V40.4609H14.347V37.8377C14.347 36.7768 13.772 36.3837 12.8571 36.3837C12.2854 36.3837 11.8047 36.5917 11.4696 36.9558Z" fill="#7F8BA5"/>
<path fill-rule="evenodd" clip-rule="evenodd" d="M8.13395 40.5349C9.05964 40.5349 9.58202 40.1524 9.88147 39.7616L9.40058 39.4323C9.10861 39.7629 8.73792 39.9762 8.17688 39.9762C7.31872 39.9762 6.81922 39.3304 6.79937 38.6517H9.94158C9.94158 37.5487 9.57505 36.3837 8.0309 36.3837C6.62389 36.3837 6 37.5449 6 38.5999C6 39.7302 6.8499 40.5349 8.13395 40.5349ZM9.14725 38.093H6.82262C6.93091 37.3512 7.40597 36.9461 8.0309 36.9461C8.76514 36.9461 9.14725 37.4977 9.14725 38.093Z" fill="#7F8BA5"/>
</svg>
