<svg width="50" height="50" viewBox="0 0 50 50" fill="none" xmlns="http://www.w3.org/2000/svg">
<path d="M23.4072 12.8697L12.3146 17.4608C11.6979 17.7157 11.7117 18.5926 12.325 18.8389L23.4641 23.256C24.4429 23.644 25.5328 23.644 26.5116 23.256L37.6507 18.8389C38.2709 18.5926 38.2778 17.7166 37.661 17.4608L26.5684 12.8697C25.5563 12.451 24.4194 12.451 23.4072 12.8697Z" fill="#FFCC00"/>
<path d="M25.9775 25.6669V36.6923C25.9775 37.2091 26.5064 37.5769 26.9939 37.3831L39.3975 32.5655C39.6748 32.4563 39.8675 32.1727 39.8669 31.8747V20.8493C39.8669 20.3325 39.338 19.9647 38.8505 20.1585L26.4469 24.9761C26.1696 25.0852 25.9769 25.3689 25.9775 25.6669Z" fill="#31C2F2"/>
<path d="M23.0799 26.2361L11.2552 31.9219C10.7625 32.1596 10.1328 31.8013 10.1328 31.2526V20.8956C10.1328 20.6975 10.2345 20.5252 10.3705 20.3978C10.5922 20.1764 10.9418 20.0922 11.2345 20.204L23.0351 24.876C23.6346 25.1137 23.6811 25.9527 23.0971 26.2369" fill="#ED3049"/>
<path d="M23.0799 26.2361L19.395 28.0156L10.3507 20.3978C10.5724 20.1764 10.922 20.0922 11.2147 20.204L23.0153 24.876C23.6148 25.1137 23.6613 25.9527 23.0773 26.2369" fill="#C62842"/>
</svg>
