<svg width="50" height="50" viewBox="0 0 50 50" fill="none" xmlns="http://www.w3.org/2000/svg">
<path d="M25.0146 26.8241C21.6698 26.8241 18.9199 24.0738 18.9199 20.7126C18.9199 17.3514 21.6681 14.6016 25.0146 14.6016C28.3611 14.6016 31.1093 17.3514 31.1093 20.7126C31.1093 24.0738 28.3611 26.8241 25.0146 26.8241ZM24.9997 9.71289C18.905 9.71289 14 14.6781 14 20.7126C14 26.8241 18.9056 31.7129 24.9997 31.7129C27.5269 31.7129 29.8308 30.8726 31.6893 29.418C32.8041 31.3281 36 31.7129 36 31.7129V20.7126C36 14.6781 31.0944 9.71289 24.9997 9.71289Z" fill="#F5831F"/>
<path d="M11.7905 34.3677L9.67236 40.1992H8.80664L11.2456 33.8008H11.8037L11.7905 34.3677ZM13.5659 40.1992L11.4434 34.3677L11.4302 33.8008H11.9883L14.436 40.1992H13.5659ZM13.4561 37.8306V38.5249H9.86133V37.8306H13.4561Z" fill="#1C1D1F"/>
<path d="M16.0532 35.4443V40.1992H15.2358V35.4443H16.0532ZM15.1743 34.1831C15.1743 33.9173 15.3394 33.7129 15.6533 33.7129C15.9664 33.7129 16.1367 33.9215 16.1367 34.1831C16.1367 34.4309 15.9692 34.6401 15.6533 34.6401C15.3366 34.6401 15.1743 34.4348 15.1743 34.1831Z" fill="#1C1D1F"/>
<path d="M18.1714 36.1914V40.1992H17.3584V35.4443H18.1494L18.1714 36.1914ZM19.6567 35.418L19.6523 36.1738C19.5205 36.1452 19.4127 36.1387 19.2568 36.1387C19.0693 36.1387 18.9038 36.168 18.7603 36.2266C18.333 36.4009 18.1019 36.7981 18.0483 37.3252L17.8198 37.457C17.8198 37.1699 17.8477 36.9004 17.9033 36.6484C18.0776 35.8989 18.6669 35.2185 19.4985 35.3784C19.5747 35.3901 19.6274 35.4033 19.6567 35.418Z" fill="#1C1D1F"/>
<path d="M23.4844 33.8008H24.0996L22.377 40.1992H21.7661L23.4844 33.8008ZM20.9004 33.8008L22.2144 40.1992H21.6079L20.0566 33.8008H20.9004ZM26.7319 33.8008H27.5801L26.0332 40.1992H25.4268L26.7319 33.8008ZM24.1919 33.8008L25.875 40.1992H25.2642L23.5854 33.8008H24.1919Z" fill="#1C1D1F"/>
<path d="M31.0518 39.3862V36.9385C31.0518 36.3731 30.7073 36.0112 30.0498 36.0112C29.4435 36.0112 29.0215 36.3618 29.0215 36.7627H28.2085C28.2085 35.8306 29.3022 35.3564 30.0981 35.3564C31.1406 35.3564 31.8647 35.8848 31.8647 36.9473V39.1621C31.8647 39.519 32.0317 39.8604 32.0317 40.1992H31.1836C31.0755 39.9522 31.0518 39.6528 31.0518 39.3862ZM31.1924 37.3164L31.2012 37.8877C30.4963 37.8877 28.9248 37.6774 28.9248 38.7666C28.9248 39.216 29.24 39.5752 29.8345 39.5752C30.3712 39.5752 31.0937 39.1928 31.1309 38.5864L31.478 38.9775C31.4169 39.3442 31.0427 39.8791 30.4102 40.1553C29.4508 40.5664 28.1074 40.0295 28.1074 38.8765C28.1074 37.2806 30.0275 37.3164 31.1924 37.3164Z" fill="#1C1D1F"/>
<path d="M34.519 39.4653L35.8198 35.4443H36.6504L34.9409 40.1992H34.396L34.519 39.4653ZM33.4336 35.4443L34.7739 39.4873L34.8662 40.1992H34.3213L32.5986 35.4443H33.4336Z" fill="#1C1D1F"/>
<path d="M39.3442 40.2871C38.03 40.2871 37.1602 39.3313 37.1602 37.9888V37.8042C37.1602 36.2475 38.1746 35.3564 39.2388 35.3564C40.7376 35.3564 41.1943 36.7357 41.1943 38.0503H37.6436V37.3867H40.3813C40.3813 36.7113 39.9789 36.0244 39.2388 36.0244C38.5047 36.0244 37.9775 36.6536 37.9775 37.8042V37.9888C37.9775 38.8923 38.5088 39.6235 39.3882 39.6235C39.9624 39.6235 40.3418 39.3701 40.6406 38.9775L41.1328 39.3687C40.8263 39.8328 40.2917 40.2871 39.3442 40.2871Z" fill="#1C1D1F"/>
</svg>
