<svg width="50" height="50" viewBox="0 0 50 50" fill="none" xmlns="http://www.w3.org/2000/svg">
<path d="M7 11.7692C7 10.2398 8.26139 9 9.81739 9H40.1826C41.7386 9 43 10.2398 43 11.7692V30.2308C43 31.7602 41.7386 33 40.1826 33H9.81739C8.26139 33 7 31.7602 7 30.2308V11.7692Z" fill="url(#paint0_linear_11446_1890)"/>
<path d="M32 16C33.4109 16 34.5546 17.1071 34.5546 18.4727L34.5546 33L15.5546 33L15.5546 18.4727C15.5546 17.1071 16.6984 16 18.1092 16L32 16Z" fill="url(#paint1_linear_11446_1890)"/>
<path d="M18.1092 40C16.6984 40 15.5546 38.9099 15.5546 37.5652L15.5546 33L34.5546 33L34.5546 37.5652C34.5546 38.9099 33.4109 40 32 40L18.1092 40Z" fill="url(#paint2_linear_11446_1890)"/>
<defs>
<linearGradient id="paint0_linear_11446_1890" x1="7.54783" y1="23.3077" x2="42.5304" y2="23.3077" gradientUnits="userSpaceOnUse">
<stop stop-color="#4604E0"/>
<stop offset="1" stop-color="#8C5CFE"/>
</linearGradient>
<linearGradient id="paint1_linear_11446_1890" x1="16.479" y1="25.9682" x2="33.0286" y2="20.2563" gradientUnits="userSpaceOnUse">
<stop stop-color="#7539FE"/>
<stop offset="0.5426" stop-color="#8F5FFE"/>
<stop offset="1" stop-color="#A57EFE"/>
</linearGradient>
<linearGradient id="paint2_linear_11446_1890" x1="35" y1="35.1304" x2="28.9447" y2="43.8186" gradientUnits="userSpaceOnUse">
<stop stop-color="#C5AEFE"/>
<stop offset="0.617009" stop-color="#A986FE"/>
<stop offset="0.956806" stop-color="#8F61FE"/>
</linearGradient>
</defs>
</svg>
