<svg width="50" height="50" viewBox="0 0 50 50" fill="none" xmlns="http://www.w3.org/2000/svg">
<rect width="50" height="50" fill="#F5831F"/>
<path d="M25.0146 26.8241C21.6698 26.8241 18.9199 24.0738 18.9199 20.7126C18.9199 17.3514 21.6681 14.6016 25.0146 14.6016C28.3611 14.6016 31.1093 17.3514 31.1093 20.7126C31.1093 24.0738 28.3611 26.8241 25.0146 26.8241ZM24.9997 9.71289C18.905 9.71289 14 14.6781 14 20.7126C14 26.8241 18.9056 31.7129 24.9997 31.7129C27.5269 31.7129 29.8308 30.8726 31.6893 29.418C32.8041 31.3281 36 31.7129 36 31.7129V20.7126C36 14.6781 31.0944 9.71289 24.9997 9.71289Z" fill="white"/>
<path d="M11.7905 36.3677L9.67236 42.1992H8.80664L11.2456 35.8008H11.8037L11.7905 36.3677ZM13.5659 42.1992L11.4434 36.3677L11.4302 35.8008H11.9883L14.436 42.1992H13.5659ZM13.4561 39.8306V40.5249H9.86133V39.8306H13.4561Z" fill="white"/>
<path d="M16.0532 37.4443V42.1992H15.2358V37.4443H16.0532ZM15.1743 36.1831C15.1743 35.9173 15.3394 35.7129 15.6533 35.7129C15.9664 35.7129 16.1367 35.9215 16.1367 36.1831C16.1367 36.4309 15.9692 36.6401 15.6533 36.6401C15.3366 36.6401 15.1743 36.4348 15.1743 36.1831Z" fill="white"/>
<path d="M18.1714 38.1914V42.1992H17.3584V37.4443H18.1494L18.1714 38.1914ZM19.6567 37.418L19.6523 38.1738C19.5205 38.1452 19.4127 38.1387 19.2568 38.1387C19.0693 38.1387 18.9038 38.168 18.7603 38.2266C18.333 38.4009 18.1019 38.7981 18.0483 39.3252L17.8198 39.457C17.8198 39.1699 17.8477 38.9004 17.9033 38.6484C18.0776 37.8989 18.6669 37.2185 19.4985 37.3784C19.5747 37.3901 19.6274 37.4033 19.6567 37.418Z" fill="white"/>
<path d="M23.4844 35.8008H24.0996L22.377 42.1992H21.7661L23.4844 35.8008ZM20.9004 35.8008L22.2144 42.1992H21.6079L20.0566 35.8008H20.9004ZM26.7319 35.8008H27.5801L26.0332 42.1992H25.4268L26.7319 35.8008ZM24.1919 35.8008L25.875 42.1992H25.2642L23.5854 35.8008H24.1919Z" fill="white"/>
<path d="M31.0518 41.3862V38.9385C31.0518 38.3731 30.7073 38.0112 30.0498 38.0112C29.4435 38.0112 29.0215 38.3618 29.0215 38.7627H28.2085C28.2085 37.8306 29.3022 37.3564 30.0981 37.3564C31.1406 37.3564 31.8647 37.8848 31.8647 38.9473V41.1621C31.8647 41.519 32.0317 41.8604 32.0317 42.1992H31.1836C31.0755 41.9522 31.0518 41.6528 31.0518 41.3862ZM31.1924 39.3164L31.2012 39.8877C30.4963 39.8877 28.9248 39.6774 28.9248 40.7666C28.9248 41.216 29.24 41.5752 29.8345 41.5752C30.3712 41.5752 31.0937 41.1928 31.1309 40.5864L31.478 40.9775C31.4169 41.3442 31.0427 41.8791 30.4102 42.1553C29.4508 42.5664 28.1074 42.0295 28.1074 40.8765C28.1074 39.2806 30.0275 39.3164 31.1924 39.3164Z" fill="white"/>
<path d="M34.519 41.4653L35.8198 37.4443H36.6504L34.9409 42.1992H34.396L34.519 41.4653ZM33.4336 37.4443L34.7739 41.4873L34.8662 42.1992H34.3213L32.5986 37.4443H33.4336Z" fill="white"/>
<path d="M39.3442 42.2871C38.03 42.2871 37.1602 41.3313 37.1602 39.9888V39.8042C37.1602 38.2475 38.1746 37.3564 39.2388 37.3564C40.7376 37.3564 41.1943 38.7357 41.1943 40.0503H37.6436V39.3867H40.3813C40.3813 38.7113 39.9789 38.0244 39.2388 38.0244C38.5047 38.0244 37.9775 38.6536 37.9775 39.8042V39.9888C37.9775 40.8923 38.5088 41.6235 39.3882 41.6235C39.9624 41.6235 40.3418 41.3701 40.6406 40.9775L41.1328 41.3687C40.8263 41.8328 40.2917 42.2871 39.3442 42.2871Z" fill="white"/>
</svg>
