<svg width="50" height="50" viewBox="0 0 50 50" fill="none" xmlns="http://www.w3.org/2000/svg">
<path d="M11.1336 16.0537C11.3444 15.8989 11.5473 15.7285 11.7775 15.5909C13.5589 14.4851 15.3447 13.3834 17.1347 12.2856C17.2043 12.2487 17.2758 12.2159 17.3488 12.1875C17.3488 14.7501 17.3488 17.3115 17.3488 19.8718C17.3488 22.3345 17.3488 24.7967 17.3488 27.2583C17.3445 27.3551 17.3353 27.4516 17.3214 27.5474L11.1368 23.738C11.1279 23.7142 11.1279 23.6877 11.1368 23.664C11.1985 23.6413 11.2587 23.6143 11.3171 23.5831C12.7047 22.7308 14.0912 21.8786 15.4767 21.0263C16.0739 20.6564 16.6647 20.2795 17.3037 19.8786C17.1878 19.7961 17.1283 19.7462 17.0639 19.7066C16.1817 19.1525 15.3028 18.5933 14.4174 18.0479C13.3228 17.3769 12.2266 16.7179 11.1336 16.0537Z" fill="#9ADD01"/>
<path d="M18.7672 37.828C18.5692 37.7214 18.3663 37.6233 18.1748 37.5046C16.4084 36.4217 14.6441 35.3372 12.8819 34.2509C12.7709 34.1821 12.6646 34.1046 12.523 34.0083C13.9508 33.1239 15.3432 32.2601 16.7389 31.4016C17.4069 30.9886 18.083 30.5894 18.7543 30.1834C18.7543 32.7322 18.7586 35.2798 18.7672 37.8263V37.828Z" fill="#DE1C2B"/>
<path d="M24.9967 34.0306C24.9996 34.0255 25.0035 34.0211 25.0081 34.0178C25.0127 34.0144 25.018 34.0122 25.0235 34.0112C25.029 34.0102 25.0346 34.0105 25.04 34.0121C25.0454 34.0137 25.0504 34.0165 25.0547 34.0203L31.2361 37.828C30.4425 38.3322 29.6505 38.8432 28.8521 39.3404C27.6995 40.0562 26.5421 40.7617 25.3863 41.4688C25.264 41.5445 25.1304 41.6013 25.0032 41.6667C25.001 39.1225 24.9989 36.5771 24.9967 34.0306Z" fill="#FD8502"/>
<path d="M32.5788 12.1583L32.6947 12.2357C32.6819 12.3734 32.6577 12.5127 32.6577 12.6521C32.6577 15.0403 32.6577 17.4297 32.6577 19.8202C32.1458 19.5242 31.6291 19.2369 31.1236 18.9272C29.6362 18.0095 28.1515 17.0918 26.6695 16.1742C26.5851 16.1162 26.5039 16.053 26.4264 15.9849C27.7737 15.1607 29.1243 14.3417 30.4685 13.509C31.1816 13.0685 31.877 12.6091 32.5788 12.1583Z" fill="#0095D7"/>
<path d="M38.8889 23.75V31.4033C38.806 31.3763 38.7253 31.3424 38.6474 31.3018C36.7157 30.1019 34.784 28.9009 32.8523 27.6988C32.7902 27.6535 32.7325 27.6016 32.6801 27.544C32.7408 27.5216 32.8 27.4946 32.8571 27.4631L38.8889 23.75Z" fill="#0094D6"/>
<path d="M38.8889 23.75L32.8507 27.4631C32.7936 27.4946 32.7344 27.5216 32.6736 27.544C32.6736 25.0066 32.6779 22.4682 32.6865 19.9285C34.1406 20.8061 35.5942 21.683 37.0473 22.5594C37.659 22.9276 38.2755 23.2854 38.8888 23.6485L38.8889 23.75Z" fill="#73CAE0"/>
<path d="M11.1368 23.738L17.3263 27.5422C17.2724 27.6001 17.2137 27.6525 17.1508 27.6988C15.2106 28.9067 13.2703 30.1111 11.33 31.3121C11.2753 31.3448 11.2189 31.374 11.1111 31.4325V31.1073C11.1111 28.7765 11.1111 26.4445 11.1111 24.1113C11.1127 23.9857 11.1287 23.8636 11.1368 23.738Z" fill="#50B621"/>
<path d="M24.9967 34.0306C24.9967 36.5771 24.997 39.1225 24.997 41.6667C24.8795 41.6082 24.7587 41.56 24.6477 41.4946C22.8018 40.3613 20.956 39.2257 19.1101 38.0878C18.9894 38.0121 18.8783 37.9158 18.7624 37.8315C19.9553 37.1054 21.1481 36.3862 22.3361 35.6549C23.2069 35.1181 24.0698 34.5692 24.9374 34.0272C24.9464 34.0209 24.957 34.0178 24.9677 34.0184C24.9785 34.019 24.9885 34.0233 24.9967 34.0306Z" fill="#DD1A2A"/>
<path d="M32.6577 19.8202C32.6577 17.4308 32.6577 15.0415 32.6577 12.6521C32.6577 12.5127 32.6819 12.3734 32.6947 12.2357C33.4996 12.7158 34.3203 13.1872 35.1252 13.6776C36.3084 14.3968 37.4835 15.1281 38.6666 15.8576C38.7471 15.9207 38.8215 15.9921 38.8888 16.0709C38.8263 16.0848 38.7654 16.1056 38.7069 16.1329C37.4642 16.8986 36.2263 17.6814 34.9819 18.4351C34.206 18.9031 33.4304 19.359 32.6577 19.8202Z" fill="#73CAE0"/>
<path d="M32.6577 19.8202C33.4304 19.359 34.206 18.9031 34.9755 18.4333C36.2198 17.6711 37.4577 16.8968 38.7004 16.1312C38.761 16.104 38.8242 16.0838 38.8888 16.0709V23.6416C38.2755 23.2786 37.6589 22.9207 37.0472 22.5525C35.592 21.6784 34.1384 20.8015 32.6864 19.9217C32.6864 19.8873 32.6752 19.8528 32.6687 19.8184L32.6577 19.8202Z" fill="#0094D6"/>
<path d="M24.9438 34.022C24.0762 34.564 23.2134 35.1129 22.3425 35.6497C21.1545 36.381 19.9617 37.1002 18.7689 37.8263C18.7689 35.2775 18.7646 32.7299 18.756 30.1834C19.2888 30.5017 19.8249 30.8166 20.3528 31.1417C21.7791 32.0204 23.2037 32.9019 24.6267 33.7863C24.7378 33.8551 24.8376 33.9429 24.9438 34.022Z" fill="#FD8501"/>
<path d="M11.1336 16.0537C12.2266 16.7179 13.3229 17.3769 14.4143 18.0479C15.2997 18.5934 16.185 19.1526 17.0608 19.7066C17.1251 19.7462 17.1847 19.7961 17.3006 19.8787C16.6567 20.2796 16.0708 20.6564 15.4735 21.0263C14.087 21.8809 12.7005 22.7331 11.314 23.5831C11.2556 23.6143 11.1954 23.6413 11.1337 23.664C11.1337 21.9692 11.116 20.2727 11.1127 18.5762C11.1111 17.7348 11.1255 16.8934 11.1336 16.0537Z" fill="#50B620"/>
<path d="M17.3987 12.1516C18.7702 11.2981 20.1411 10.4447 21.5116 9.5913C22.178 9.17664 22.8493 8.77057 23.5608 8.33526C23.5811 8.43855 23.5951 8.54316 23.6026 8.64841C23.6026 10.9816 23.6026 13.3153 23.6026 15.6496C23.595 15.7597 23.5794 15.869 23.556 15.9765C22.3422 15.2263 21.1301 14.4727 19.9115 13.7294C19.0921 13.2304 18.2647 12.7469 17.4421 12.2565L17.3987 12.1516Z" fill="#9ADD01"/>
<path d="M32.5788 12.1583C31.877 12.6091 31.1815 13.0685 30.4732 13.5072C29.1291 14.34 27.7785 15.159 26.4312 15.9832C26.4226 14.0756 26.4156 12.1675 26.4102 10.2587C26.4102 9.6462 26.4102 9.03366 26.4102 8.33337C26.7016 8.50543 26.927 8.63448 27.1491 8.77213C28.9123 9.85267 30.6745 10.9361 32.4355 12.0224C32.4878 12.062 32.5358 12.1076 32.5788 12.1583Z" fill="#73CAE0"/>
<path d="M31.2361 37.828L25.0547 34.0203L28.1955 32.0519C29.1892 31.4325 30.1835 30.8143 31.1783 30.1971C31.1837 30.2035 31.1906 30.2081 31.1983 30.2106C31.2059 30.213 31.2141 30.2131 31.2218 30.2109C31.2218 30.407 31.2363 30.6032 31.2363 30.7993C31.2363 33.0935 31.2401 35.3819 31.2476 37.6646L31.2347 37.8366L31.2361 37.828Z" fill="#DD1A2A"/>
<path d="M31.2349 37.8297C31.2349 37.7747 31.243 37.7196 31.2478 37.6577C31.2803 37.4984 31.3018 37.3368 31.3122 37.1742C31.3186 34.8479 31.3186 32.5222 31.3122 30.1971L36.2445 33.2426L37.4823 34.0031C37.1974 34.1855 36.9447 34.3472 36.6871 34.509C34.9969 35.5505 33.3056 36.5909 31.6132 37.6302C31.4989 37.7127 31.3637 37.7661 31.2349 37.8297Z" fill="#FD8501"/>
<path d="M17.4421 12.2565C18.2647 12.7469 19.0921 13.2304 19.9115 13.7294C21.1301 14.4727 22.3422 15.2263 23.556 15.9765C23.4803 16.0466 23.4002 16.1108 23.3162 16.169C21.4382 17.3413 19.5601 18.5108 17.6821 19.6773C17.6032 19.7272 17.5211 19.7651 17.4374 19.8064L17.4421 12.2565Z" fill="#50B621"/>
<path d="M17.4421 12.2565C17.4421 14.7732 17.4386 17.2897 17.431 19.8064L17.3522 19.8666C17.3522 17.3063 17.3522 14.7449 17.3522 12.1824C17.3568 12.1726 17.364 12.1645 17.3728 12.159C17.3817 12.1535 17.3918 12.1509 17.4021 12.1514L17.4421 12.2565Z" fill="#75C34C"/>
<path d="M31.3231 30.204C31.3231 32.5303 31.3231 34.856 31.3231 37.1811C31.3127 37.3437 31.2912 37.5053 31.2587 37.6646C31.2587 35.3704 31.255 33.082 31.2475 30.7994C31.2475 30.6032 31.2378 30.4071 31.233 30.2109V30.1799L31.3231 30.204Z" fill="#F88635"/>
<path d="M31.224 30.18V30.2165C31.2161 30.2188 31.2078 30.2187 31.2 30.2162C31.1922 30.2137 31.1852 30.209 31.1797 30.2026L31.1961 30.1765L31.224 30.18Z" fill="#FD8501"/>
</svg>
