<svg width="50" height="50" viewBox="0 0 50 50" fill="none" xmlns="http://www.w3.org/2000/svg">
<path d="M26.4693 33.4075C20.6066 31.6482 16.3289 26.32 16.3289 20.02C16.3289 13.6363 20.6918 8.25782 26.6568 6.56553C27.2703 6.39798 27.0999 5.99585 26.3671 5.99585C18.4422 5.99585 12 12.2791 12 20.02C12 27.761 18.4251 34.0275 26.3671 34.0275C27.0999 34.0275 27.134 33.6086 26.4693 33.4075Z" fill="#009BDE"/>
<path d="M18.9251 23.4763C18.8912 23.1007 18.8572 22.7081 18.8572 22.3155C18.8572 16.0505 23.8933 10.9804 30.1163 10.9804C36.0001 10.9804 37.7636 13.6264 37.984 13.4557C38.2214 13.2679 35.8475 8.02712 28.9463 8.02712C22.7233 8.02712 17.6873 13.0972 17.6873 19.3622C17.6873 20.8132 17.9586 22.196 18.4503 23.4592C18.6538 24.0055 18.9759 24.0055 18.9251 23.4763Z" fill="#009BDE"/>
<path d="M23.7124 15.3827C26.5689 14.087 30.1727 14.0525 33.7101 15.3308C36.085 16.1946 37.4634 17.4211 37.5796 17.3693C37.7623 17.2829 36.2012 14.6917 33.3613 13.5861C29.9236 12.2386 26.2367 12.9469 23.5463 15.1408C23.2474 15.3827 23.3636 15.5381 23.7124 15.3827Z" fill="#009BDE"/>
<path d="M17.3389 44.9883L18.75 40.0273H19.4336L19.0381 41.9561L17.5195 47.1367H16.8408L17.3389 44.9883ZM15.8789 40.0273L17.002 44.8906L17.3389 47.1367H16.665L14.9414 40.0273H15.8789ZM21.2598 44.8857L22.3584 40.0273H23.3008L21.582 47.1367H20.9082L21.2598 44.8857ZM19.5361 40.0273L20.9082 44.9883L21.4062 47.1367H20.7275L19.2627 41.9561L18.8623 40.0273H19.5361Z" fill="#1C1D1F"/>
<path d="M26.7627 40.6572L24.4092 47.1367H23.4473L26.1572 40.0273H26.7773L26.7627 40.6572ZM28.7354 47.1367L26.377 40.6572L26.3623 40.0273H26.9824L29.7021 47.1367H28.7354ZM28.6133 44.5049V45.2764H24.6191V44.5049H28.6133Z" fill="#1C1D1F"/>
<path d="M31.5967 40.0273V47.1367H30.6543V40.0273H31.5967ZM34.5752 43.2256V43.9971H31.3916V43.2256H34.5752ZM35.0586 40.0273V40.7988H31.3916V40.0273H35.0586Z" fill="#1C1D1F"/>
</svg>
