<svg width="50" height="50" viewBox="0 0 50 50" fill="none" xmlns="http://www.w3.org/2000/svg">
<rect width="50" height="50" fill="#009BDE"/>
<path d="M26.227 30.9635C21.3307 29.4896 17.7581 25.0261 17.7581 19.7484C17.7581 14.4006 21.4019 9.89491 26.3836 8.47724C26.896 8.33687 26.7536 8 26.1416 8C19.5231 8 14.1429 13.2636 14.1429 19.7484C14.1429 26.2332 19.5088 31.4828 26.1416 31.4828C26.7536 31.4828 26.7821 31.1319 26.227 30.9635Z" fill="white"/>
<path d="M19.9266 22.6438C19.8983 22.3291 19.87 22.0002 19.87 21.6713C19.87 16.4229 24.0759 12.1756 29.273 12.1756C34.187 12.1756 35.6597 14.3922 35.8438 14.2492C36.0421 14.0919 34.0595 9.70161 28.2959 9.70161C23.0987 9.70161 18.8929 13.9489 18.8929 19.1973C18.8929 20.4129 19.1194 21.5712 19.5301 22.6295C19.7 23.0871 19.9691 23.0871 19.9266 22.6438Z" fill="white"/>
<path d="M23.9245 15.8636C26.3101 14.7782 29.3199 14.7493 32.2742 15.8202C34.2576 16.5438 35.4088 17.5713 35.5058 17.5279C35.6584 17.4555 34.3546 15.2847 31.9829 14.3585C29.1118 13.2297 26.0327 13.8231 23.7858 15.661C23.5361 15.8636 23.6332 15.9938 23.9245 15.8636Z" fill="white"/>
<path d="M8.50525 35.345L6.72686 40.3571H6L8.04774 34.8577H8.51632L8.50525 35.345ZM9.99586 40.3571L8.21377 35.345L8.2027 34.8577H8.67129L10.7264 40.3571H9.99586ZM9.90362 38.3213V38.9181H6.88551V38.3213H9.90362Z" fill="white"/>
<path d="M13.2005 38.2004H11.7653V37.6074H13.2005C14.0361 37.6074 14.3738 37.1592 14.3738 36.5423C14.3738 35.8716 13.8602 35.4545 13.2005 35.4545H11.9313V40.3571H11.2192V34.8577H13.2005C14.4151 34.8577 15.0859 35.5554 15.0859 36.5347C15.0859 37.5911 14.4209 38.2004 13.2005 38.2004Z" fill="white"/>
<path d="M16.5232 34.8577V40.3571H15.8111V34.8577H16.5232Z" fill="white"/>
<path d="M22.1024 38.9672C22.1024 38.4536 21.8529 38.2083 20.8258 37.902C19.7596 37.5786 19.0843 37.1331 19.0843 36.2779C19.0843 35.4146 19.8178 34.7822 20.9106 34.7822C21.8671 34.7822 22.8034 35.4053 22.8034 36.4441H22.095C22.095 35.8183 21.7086 35.379 20.9106 35.379C20.1526 35.379 19.7964 35.7539 19.7964 36.2704C19.7964 36.7349 20.1818 37.0193 21.0545 37.2675C22.2725 37.6194 22.8182 38.0987 22.8182 38.9596C22.8182 39.8532 22.0863 40.4326 20.9439 40.4326C19.9636 40.4326 18.9146 39.8243 18.9146 38.7632H19.623C19.623 39.5173 20.2625 39.8397 20.9439 39.8397C21.6913 39.8397 22.1024 39.5004 22.1024 38.9672Z" fill="white"/>
<path d="M25.0525 40.4326C23.9295 40.4326 23.2187 39.5134 23.2187 38.4573C23.2187 37.4035 23.7352 36.1948 24.9639 36.1948C26.2445 36.1948 26.6058 37.4043 26.6058 38.5101H23.6246V37.9398H25.9232C25.9232 37.3443 25.6071 36.7689 24.9639 36.7689C24.0757 36.7689 23.905 37.7635 23.905 38.4573C23.905 39.2336 24.3508 39.8623 25.0894 39.8623C25.5715 39.8623 25.89 39.6445 26.1409 39.3071L26.5541 39.6432C26.2968 40.0421 25.8479 40.4326 25.0525 40.4326Z" fill="white"/>
<path d="M28.7737 39.8585C29.2629 39.8585 29.678 39.522 29.7145 39.0654H30.3639C30.3234 39.8616 29.5343 40.4326 28.7737 40.4326C27.5148 40.4326 26.999 39.34 26.999 38.2344C26.999 37.1814 27.6163 36.1948 28.7737 36.1948C29.7069 36.1948 30.3269 36.8261 30.3639 37.6754H29.7145C29.6779 37.1728 29.323 36.7689 28.7737 36.7689C27.8898 36.7689 27.6815 37.6828 27.6815 38.393C27.6815 39.1118 27.9338 39.8585 28.7737 39.8585Z" fill="white"/>
<path d="M33.3472 39.4128V36.2704H34.0334V40.3571H33.3804L33.3472 39.4128ZM33.4763 38.5517L33.7604 38.5441C33.7604 39.0846 33.6575 39.5567 33.4099 39.8963C33.1645 40.2329 32.7718 40.4326 32.1997 40.4326C31.431 40.4326 30.8899 40.0013 30.8899 38.9067V36.2704H31.5725V38.9143C31.5725 39.6472 31.9387 39.8397 32.3067 39.8397C32.8892 39.8397 33.2149 39.5916 33.3619 39.2051C33.4382 39.0087 33.4763 38.7909 33.4763 38.5517Z" fill="white"/>
<path d="M35.5298 36.9124V40.3571H34.8472V36.2704H35.5114L35.5298 36.9124ZM36.7769 36.2477L36.7732 36.8973C36.6625 36.8727 36.572 36.8671 36.4411 36.8671C35.9689 36.8671 35.6663 37.1013 35.5187 37.479C35.472 37.6024 35.4413 37.7384 35.4265 37.8869L35.2346 38.0002C35.2346 37.0012 35.6257 36.1948 36.4744 36.1948C36.5724 36.1948 36.7275 36.2224 36.7769 36.2477Z" fill="white"/>
<path d="M37.9228 36.2704V40.3571H37.2365V36.2704H37.9228ZM37.1848 35.1863C37.1848 34.9579 37.3234 34.7822 37.587 34.7822C37.8498 34.7822 37.9929 34.9615 37.9929 35.1863C37.9929 35.3993 37.8522 35.5792 37.587 35.5792C37.321 35.5792 37.1848 35.4026 37.1848 35.1863Z" fill="white"/>
<path d="M40.4633 36.2704V36.8067H38.3048V36.2704H40.4633ZM39.0354 35.277H39.718V39.3449C39.718 39.8016 40.0743 39.8822 40.478 39.7868L40.4817 40.3571C39.6536 40.6269 39.0354 40.1701 39.0354 39.3411V35.277Z" fill="white"/>
<path d="M42.1589 39.9341L43.2695 36.2704H44L42.3987 40.9879C42.1465 41.6764 41.5789 42.1661 40.8306 41.9472L40.8269 41.3807C41.7588 41.4999 41.9024 40.6501 42.1589 39.9341ZM41.3435 36.2704L42.3803 39.4431L42.5574 40.1796L42.0666 40.4364L40.5982 36.2704H41.3435Z" fill="white"/>
</svg>
