<svg width="50" height="50" viewBox="0 0 50 50" fill="none" xmlns="http://www.w3.org/2000/svg">
<path d="M26.4693 33.4075C20.6066 31.6482 16.3289 26.32 16.3289 20.02C16.3289 13.6363 20.6918 8.25782 26.6568 6.56553C27.2703 6.39798 27.0999 5.99585 26.3671 5.99585C18.4422 5.99585 12 12.2791 12 20.02C12 27.761 18.4251 34.0275 26.3671 34.0275C27.0999 34.0275 27.134 33.6086 26.4693 33.4075Z" fill="#009BDE"/>
<path d="M18.9251 23.4763C18.8912 23.1007 18.8572 22.7081 18.8572 22.3155C18.8572 16.0505 23.8933 10.9804 30.1163 10.9804C36.0001 10.9804 37.7636 13.6264 37.984 13.4557C38.2214 13.2679 35.8475 8.02712 28.9463 8.02712C22.7233 8.02712 17.6873 13.0972 17.6873 19.3622C17.6873 20.8132 17.9586 22.196 18.4503 23.4592C18.6538 24.0055 18.9759 24.0055 18.9251 23.4763Z" fill="#009BDE"/>
<path d="M23.7124 15.3827C26.5689 14.087 30.1727 14.0525 33.7101 15.3308C36.085 16.1946 37.4634 17.4211 37.5796 17.3693C37.7623 17.2829 36.2012 14.6917 33.3613 13.5861C29.9236 12.2386 26.2367 12.9469 23.5463 15.1408C23.2474 15.3827 23.3636 15.5381 23.7124 15.3827Z" fill="#009BDE"/>
<path d="M22.3418 47V46.2334H18.7676V43.7139H21.8438V42.9473H18.7676V40.6621H22.293V39.8906H17.8252V47H22.3418Z" fill="black"/>
<path fill-rule="evenodd" clip-rule="evenodd" d="M26.3604 39.8906H25.5352L22.8252 47H23.7871L24.4628 45.1396H27.4362L28.1133 47H29.0801L26.3604 39.8906ZM27.1553 44.3682H24.7431L25.948 41.051L27.1553 44.3682Z" fill="black"/>
<path fill-rule="evenodd" clip-rule="evenodd" d="M32.8838 39.8906H32.0586L29.3486 47H30.3105L30.9863 45.1396H33.9596L34.6367 47H35.6035L32.8838 39.8906ZM33.6788 44.3682H31.2665L32.4714 41.051L33.6788 44.3682Z" fill="black"/>
</svg>
