<svg width="50" height="50" viewBox="0 0 50 50" fill="none" xmlns="http://www.w3.org/2000/svg">
<rect width="50" height="50" fill="#009BDE"/>
<path d="M26.2431 31.6225C21.2824 30.1163 17.6628 25.5544 17.6628 20.1605C17.6628 14.6949 21.3545 10.09 26.4018 8.64107C26.9209 8.49761 26.7767 8.15332 26.1566 8.15332C19.451 8.15332 14 13.5329 14 20.1605C14 26.7881 19.4366 32.1533 26.1566 32.1533C26.7767 32.1533 26.8055 31.7947 26.2431 31.6225Z" fill="white"/>
<path d="M19.8599 23.1196C19.8312 22.7981 19.8025 22.4619 19.8025 22.1257C19.8025 16.7618 24.0637 12.4209 29.3292 12.4209C34.3078 12.4209 35.7999 14.6864 35.9865 14.5402C36.1873 14.3794 34.1787 9.8924 28.3392 9.8924C23.0737 9.8924 18.8125 14.2333 18.8125 19.5972C18.8125 20.8396 19.042 22.0234 19.4581 23.105C19.6303 23.5727 19.9029 23.5727 19.8599 23.1196Z" fill="white"/>
<path d="M23.9103 16.1901C26.3273 15.0808 29.3767 15.0512 32.3698 16.1457C34.3793 16.8853 35.5457 17.9354 35.644 17.891C35.7986 17.8171 34.4777 15.5985 32.0747 14.6519C29.1659 13.4982 26.0463 14.1047 23.7698 15.983C23.5169 16.1901 23.6152 16.3232 23.9103 16.1901Z" fill="white"/>
<path d="M21.6184 39.2162H22.367C22.2373 40.4435 21.3477 41.1533 20.2147 41.1533C18.8034 41.1533 18 39.8396 18 38.4461V37.8646C18 36.4504 18.8042 35.1533 20.281 35.1533C21.5666 35.1533 22.2499 35.9494 22.367 37.1065H21.6184C21.5084 36.2825 21.1591 35.787 20.281 35.787C19.2842 35.787 18.7486 36.608 18.7486 37.8565V38.4461C18.7486 39.5909 19.2023 40.5236 20.2147 40.5236C21.1757 40.5236 21.4941 40.0312 21.6184 39.2162Z" fill="white"/>
<path d="M23.7434 41.0731L23.7512 40.4434C25.2447 40.4434 26.7575 40.3529 26.7575 38.3298V37.9728C26.7575 36.0833 25.2503 35.8672 23.72 35.8672V35.2335C25.5837 35.2335 27.5022 35.7096 27.5022 37.9809V38.3298C27.5022 40.7278 25.5421 41.0731 23.7434 41.0731ZM24.145 35.2335V41.0731H23.3925V35.2335H24.145Z" fill="white"/>
<path d="M33 35.2335V41.0731H32.2436L29.3855 36.5691V41.0731H28.633V35.2335H29.3855L32.2553 39.7496V35.2335H33Z" fill="white"/>
</svg>
