<svg width="50" height="50" viewBox="0 0 50 50" fill="none" xmlns="http://www.w3.org/2000/svg">
<path d="M26.3562 32.4208C20.9445 30.789 16.9958 25.847 16.9958 20.0036C16.9958 14.0825 21.0231 9.09388 26.5292 7.52424C27.0956 7.36883 26.9382 6.99585 26.2618 6.99585C18.9466 6.99585 13 12.8237 13 20.0036C13 27.1835 18.9308 32.9958 26.2618 32.9958C26.9382 32.9958 26.9697 32.6073 26.3562 32.4208Z" fill="#009BDE"/>
<path d="M19.3926 23.2093C19.3613 22.861 19.33 22.4968 19.33 22.1326C19.33 16.3217 23.9786 11.6191 29.7228 11.6191C35.154 11.6191 36.7818 14.0733 36.9853 13.915C37.2044 13.7408 35.0131 8.87986 28.6428 8.87986C22.8986 8.87986 18.25 13.5825 18.25 19.3934C18.25 20.7393 18.5004 22.0218 18.9543 23.1935C19.1422 23.7002 19.4395 23.7002 19.3926 23.2093Z" fill="#009BDE"/>
<path d="M23.8113 15.7024C26.448 14.5007 29.7746 14.4686 33.0399 15.6543C35.232 16.4555 36.5044 17.5931 36.6117 17.545C36.7804 17.4649 35.3393 15.0615 32.7179 14.036C29.5447 12.7862 26.1414 13.4431 23.658 15.4781C23.3821 15.7024 23.4894 15.8466 23.8113 15.7024Z" fill="#009BDE"/>
<path d="M21.1009 41.0503H21.9493C21.8023 42.38 20.794 43.1489 19.51 43.1489C17.9106 43.1489 17 41.7257 17 40.2161V39.5861C17 38.0541 17.9115 36.6489 19.5851 36.6489C21.0421 36.6489 21.8165 37.5113 21.9493 38.7649H21.1009C20.9762 37.8722 20.5803 37.3354 19.5851 37.3354C18.4554 37.3354 17.8485 38.2248 17.8485 39.5774V40.2161C17.8485 41.4563 18.3626 42.4668 19.51 42.4668C20.5992 42.4668 20.96 41.9333 21.1009 41.0503Z" fill="black"/>
<path d="M23.5092 43.062L23.5181 42.3799C25.2106 42.3799 26.9251 42.2818 26.9251 40.0901V39.7034C26.9251 37.6564 25.217 37.4223 23.4827 37.4223V36.7358C25.5949 36.7358 27.7692 37.2516 27.7692 39.7121V40.0901C27.7692 42.6879 25.5478 43.062 23.5092 43.062ZM23.9644 36.7358V43.062H23.1115V36.7358H23.9644Z" fill="black"/>
<path d="M34 36.7358V43.062H33.1427L29.9036 38.1827V43.062H29.0507V36.7358H29.9036L33.156 41.6282V36.7358H34Z" fill="black"/>
</svg>
