<svg width="50" height="51" viewBox="0 0 50 51" fill="none" xmlns="http://www.w3.org/2000/svg">
<path d="M26.3562 32.7722C20.9445 31.1404 16.9958 26.1983 16.9958 20.3549C16.9958 14.4338 21.0231 9.4452 26.5292 7.87556C27.0956 7.72015 26.9382 7.34717 26.2618 7.34717C18.9466 7.34717 13 13.175 13 20.3549C13 27.5349 18.9308 33.3472 26.2618 33.3472C26.9382 33.3472 26.9697 32.9586 26.3562 32.7722Z" fill="#009BDE"/>
<path d="M19.3926 23.5606C19.3613 23.2123 19.33 22.8481 19.33 22.484C19.33 16.673 23.9786 11.9704 29.7228 11.9704C35.154 11.9704 36.7818 14.4246 36.9853 14.2663C37.2044 14.0921 35.0131 9.23118 28.6428 9.23118C22.8986 9.23118 18.25 13.9338 18.25 19.7447C18.25 21.0906 18.5004 22.3731 18.9543 23.5448C19.1422 24.0515 19.4395 24.0515 19.3926 23.5606Z" fill="#009BDE"/>
<path d="M23.8113 16.0537C26.448 14.852 29.7746 14.8199 33.0399 16.0056C35.232 16.8068 36.5044 17.9444 36.6117 17.8963C36.7804 17.8162 35.3393 15.4128 32.7179 14.3873C29.5447 13.1375 26.1414 13.7944 23.658 15.8294C23.3821 16.0537 23.4894 16.1979 23.8113 16.0537Z" fill="#009BDE"/>
<path d="M6.76896 37.6234L4.80337 43.1727H4L6.26329 37.0839H6.7812L6.76896 37.6234ZM8.41648 43.1727L6.4468 37.6234L6.43457 37.0839H6.95247L9.22392 43.1727H8.41648ZM8.31453 40.9187V41.5794H4.97872V40.9187H8.31453Z" fill="black"/>
<path d="M11.9585 40.7849H10.3721V40.1283H11.9585C12.2657 40.1283 12.5144 40.0781 12.7047 39.9778C12.895 39.8774 13.0337 39.738 13.1207 39.5596C13.2104 39.3811 13.2553 39.1776 13.2553 38.949C13.2553 38.7399 13.2104 38.5434 13.1207 38.3594C13.0337 38.1754 12.895 38.0276 12.7047 37.9161C12.5144 37.8018 12.2657 37.7446 11.9585 37.7446H10.5556V43.1727H9.76858V37.0839H11.9585C12.407 37.0839 12.7863 37.1633 13.0962 37.3223C13.4062 37.4812 13.6413 37.7014 13.8017 37.983C13.9621 38.2618 14.0423 38.581 14.0423 38.9407C14.0423 39.331 13.9621 39.6641 13.8017 39.9401C13.6413 40.2161 13.4062 40.4266 13.0962 40.5716C12.7863 40.7138 12.407 40.7849 11.9585 40.7849Z" fill="black"/>
<path d="M15.631 37.0839V43.1727H14.8439V37.0839H15.631Z" fill="black"/>
<path d="M21.7974 41.6338C21.7974 41.4916 21.7756 41.3662 21.7321 41.2574C21.6914 41.1459 21.618 41.0455 21.5119 40.9563C21.4086 40.8671 21.2645 40.7821 21.0797 40.7012C20.8975 40.6204 20.6664 40.5381 20.3864 40.4545C20.0928 40.3653 19.8277 40.2663 19.5912 40.1576C19.3547 40.0461 19.1521 39.9192 18.9836 39.777C18.815 39.6348 18.6859 39.4718 18.5962 39.2878C18.5064 39.1037 18.4616 38.8933 18.4616 38.6563C18.4616 38.4193 18.5092 38.2005 18.6043 37.9997C18.6995 37.799 18.8354 37.6247 19.0121 37.477C19.1915 37.3264 19.405 37.2093 19.6524 37.1257C19.8998 37.0421 20.1757 37.0002 20.4802 37.0002C20.926 37.0002 21.3039 37.0881 21.6139 37.2637C21.9265 37.4366 22.1644 37.6638 22.3275 37.9454C22.4906 38.2242 22.5722 38.5225 22.5722 38.8403H21.7892C21.7892 38.6117 21.7417 38.4095 21.6465 38.2339C21.5513 38.0555 21.4073 37.9161 21.2142 37.8157C21.0212 37.7126 20.7765 37.661 20.4802 37.661C20.2002 37.661 19.9691 37.7042 19.7869 37.7906C19.6048 37.8771 19.4688 37.9941 19.3791 38.1419C19.2921 38.2897 19.2486 38.4583 19.2486 38.6479C19.2486 38.7762 19.2745 38.8933 19.3261 38.9992C19.3805 39.1024 19.4634 39.1985 19.5749 39.2878C19.6891 39.377 19.8331 39.4592 20.0071 39.5345C20.1839 39.6098 20.3945 39.6822 20.6392 39.7519C20.9763 39.8495 21.2672 39.9583 21.5119 40.0781C21.7566 40.198 21.9578 40.3332 22.1155 40.4838C22.2759 40.6315 22.3941 40.8002 22.4703 40.9898C22.5491 41.1766 22.5885 41.3885 22.5885 41.6254C22.5885 41.8736 22.5396 42.098 22.4417 42.2987C22.3438 42.4995 22.2038 42.6709 22.0217 42.8131C21.8395 42.9553 21.6207 43.0654 21.3651 43.1435C21.1123 43.2187 20.8295 43.2564 20.5169 43.2564C20.2423 43.2564 19.9718 43.2174 19.7054 43.1393C19.4417 43.0612 19.2011 42.9441 18.9836 42.788C18.7688 42.6319 18.5962 42.4395 18.4657 42.2109C18.3379 41.9795 18.274 41.7119 18.274 41.408H19.057C19.057 41.6171 19.0964 41.7969 19.1752 41.9474C19.2541 42.0952 19.3615 42.2179 19.4974 42.3155C19.636 42.413 19.7924 42.4855 19.9664 42.5329C20.1431 42.5775 20.3266 42.5998 20.5169 42.5998C20.7915 42.5998 21.0239 42.5608 21.2142 42.4827C21.4045 42.4047 21.5486 42.2932 21.6465 42.1482C21.7471 42.0032 21.7974 41.8317 21.7974 41.6338Z" fill="black"/>
<path d="M25.058 43.2564C24.7508 43.2564 24.4721 43.2034 24.222 43.0975C23.9746 42.9887 23.7612 42.8368 23.5818 42.6416C23.405 42.4465 23.2691 42.2151 23.174 41.9474C23.0788 41.6798 23.0312 41.3871 23.0312 41.0692V40.8936C23.0312 40.5256 23.0842 40.198 23.1903 39.9109C23.2963 39.6209 23.4404 39.3756 23.6225 39.1748C23.8047 38.9741 24.0113 38.8222 24.2424 38.719C24.4735 38.6159 24.7127 38.5643 24.9601 38.5643C25.2755 38.5643 25.5474 38.62 25.7757 38.7316C26.0068 38.8431 26.1958 38.9992 26.3426 39.1999C26.4894 39.3979 26.5981 39.6321 26.6688 39.9025C26.7395 40.1701 26.7748 40.4629 26.7748 40.7807V41.1278H23.4798V40.4963H26.0204V40.4378C26.0095 40.237 25.9687 40.0419 25.8981 39.8523C25.8301 39.6627 25.7213 39.5066 25.5718 39.3839C25.4223 39.2613 25.2184 39.1999 24.9601 39.1999C24.7888 39.1999 24.6312 39.2376 24.4871 39.3128C24.343 39.3853 24.2193 39.4941 24.116 39.639C24.0127 39.784 23.9325 39.961 23.8754 40.1701C23.8183 40.3792 23.7897 40.6204 23.7897 40.8936V41.0692C23.7897 41.2839 23.8183 41.486 23.8754 41.6756C23.9352 41.8624 24.0208 42.0269 24.1323 42.1691C24.2465 42.3113 24.3838 42.4228 24.5442 42.5036C24.7073 42.5845 24.8922 42.6249 25.0988 42.6249C25.3652 42.6249 25.5908 42.5692 25.7757 42.4576C25.9606 42.3461 26.1223 42.197 26.261 42.0102L26.7177 42.3824C26.6226 42.5301 26.5016 42.6709 26.3548 42.8047C26.208 42.9386 26.0272 43.0473 25.8124 43.1309C25.6004 43.2146 25.3489 43.2564 25.058 43.2564Z" fill="black"/>
<path d="M29.1709 42.6207C29.3503 42.6207 29.5162 42.5831 29.6684 42.5078C29.8207 42.4325 29.9457 42.3294 30.0436 42.1984C30.1415 42.0645 30.1972 41.9126 30.2108 41.7425H30.9285C30.9149 42.0102 30.8266 42.2597 30.6634 42.4911C30.503 42.7197 30.2924 42.9051 30.0314 43.0473C29.7704 43.1867 29.4835 43.2564 29.1709 43.2564C28.8392 43.2564 28.5497 43.1964 28.3023 43.0766C28.0576 42.9567 27.8537 42.7922 27.6906 42.5831C27.5302 42.374 27.4092 42.1342 27.3276 41.8638C27.2488 41.5906 27.2094 41.302 27.2094 40.9982V40.8225C27.2094 40.5186 27.2488 40.2315 27.3276 39.961C27.4092 39.6878 27.5302 39.4467 27.6906 39.2376C27.8537 39.0285 28.0576 38.864 28.3023 38.7441C28.5497 38.6242 28.8392 38.5643 29.1709 38.5643C29.5162 38.5643 29.8179 38.6368 30.0762 38.7817C30.3345 38.9239 30.537 39.1191 30.6838 39.3672C30.8334 39.6125 30.9149 39.8913 30.9285 40.2036H30.2108C30.1972 40.0168 30.1455 39.8481 30.0558 39.6976C29.9688 39.547 29.8492 39.4271 29.697 39.3379C29.5474 39.2459 29.3721 39.1999 29.1709 39.1999C28.9398 39.1999 28.7454 39.2473 28.5877 39.3421C28.4328 39.4341 28.3091 39.5596 28.2166 39.7185C28.1269 39.8746 28.0617 40.0489 28.0209 40.2412C27.9828 40.4308 27.9638 40.6246 27.9638 40.8225V40.9982C27.9638 41.1961 27.9828 41.3913 28.0209 41.5836C28.059 41.776 28.1229 41.9502 28.2126 42.1064C28.305 42.2625 28.4287 42.3879 28.5837 42.4827C28.7414 42.5747 28.9371 42.6207 29.1709 42.6207Z" fill="black"/>
<path d="M34.2258 42.1273V38.6479H34.9843V43.1727H34.2625L34.2258 42.1273ZM34.3686 41.1738L34.6826 41.1654C34.6826 41.4665 34.6513 41.7453 34.5888 42.0018C34.529 42.2555 34.4311 42.4758 34.2952 42.6626C34.1592 42.8493 33.9811 42.9957 33.7609 43.1017C33.5407 43.2048 33.2729 43.2564 32.9576 43.2564C32.7428 43.2564 32.5457 43.2243 32.3663 43.1602C32.1895 43.0961 32.0373 42.9971 31.9095 42.8633C31.7817 42.7295 31.6825 42.5552 31.6118 42.3405C31.5439 42.1259 31.5099 41.868 31.5099 41.5669V38.6479H32.2643V41.5753C32.2643 41.7788 32.2861 41.9474 32.3296 42.0813C32.3758 42.2123 32.4369 42.3169 32.5131 42.3949C32.5919 42.4702 32.6789 42.5232 32.7741 42.5538C32.8719 42.5845 32.9725 42.5998 33.0758 42.5998C33.3966 42.5998 33.6508 42.5371 33.8384 42.4116C34.026 42.2834 34.1606 42.1119 34.2421 41.8973C34.3264 41.6798 34.3686 41.4386 34.3686 41.1738Z" fill="black"/>
<path d="M36.6382 39.3588V43.1727H35.8838V38.6479H36.6178L36.6382 39.3588ZM38.0166 38.6228L38.0125 39.3421C37.95 39.3282 37.8902 39.3198 37.8331 39.317C37.7787 39.3114 37.7162 39.3087 37.6455 39.3087C37.4715 39.3087 37.3179 39.3365 37.1847 39.3923C37.0515 39.4481 36.9386 39.5261 36.8462 39.6265C36.7538 39.7268 36.6804 39.8467 36.626 39.9861C36.5743 40.1227 36.5403 40.2733 36.524 40.4378L36.312 40.5632C36.312 40.29 36.3378 40.0335 36.3895 39.7938C36.4438 39.554 36.5267 39.3421 36.6382 39.1581C36.7497 38.9713 36.891 38.8263 37.0623 38.7232C37.2363 38.6173 37.4429 38.5643 37.6822 38.5643C37.7366 38.5643 37.7991 38.5713 37.8698 38.5852C37.9405 38.5963 37.9894 38.6089 38.0166 38.6228Z" fill="black"/>
<path d="M39.283 38.6479V43.1727H38.5245V38.6479H39.283ZM38.4674 37.4477C38.4674 37.3223 38.5041 37.2163 38.5775 37.1299C38.6537 37.0435 38.7651 37.0002 38.9119 37.0002C39.056 37.0002 39.1661 37.0435 39.2423 37.1299C39.3211 37.2163 39.3605 37.3223 39.3605 37.4477C39.3605 37.5676 39.3211 37.6707 39.2423 37.7572C39.1661 37.8408 39.056 37.8826 38.9119 37.8826C38.7651 37.8826 38.6537 37.8408 38.5775 37.7572C38.5041 37.6707 38.4674 37.5676 38.4674 37.4477Z" fill="black"/>
<path d="M42.091 38.6479V39.2417H39.7054V38.6479H42.091ZM40.5128 37.5481H41.2672V42.052C41.2672 42.2053 41.2903 42.321 41.3366 42.3991C41.3828 42.4772 41.4426 42.5287 41.516 42.5538C41.5894 42.5789 41.6682 42.5915 41.7525 42.5915C41.815 42.5915 41.8803 42.5859 41.9483 42.5747C42.0189 42.5608 42.072 42.5496 42.1073 42.5413L42.1114 43.1727C42.0516 43.1923 41.9727 43.2104 41.8749 43.2271C41.7797 43.2466 41.6642 43.2564 41.5282 43.2564C41.3434 43.2564 41.1734 43.2187 41.0185 43.1435C40.8635 43.0682 40.7398 42.9427 40.6474 42.7671C40.5577 42.5887 40.5128 42.3489 40.5128 42.0478V37.5481Z" fill="black"/>
<path d="M43.9651 42.7044L45.1926 38.6479H46L44.2301 43.8711C44.1894 43.9826 44.135 44.1025 44.067 44.2308C44.0018 44.3618 43.9175 44.4859 43.8142 44.603C43.7109 44.7201 43.5858 44.8148 43.439 44.8873C43.2949 44.9626 43.1223 45.0002 42.9211 45.0002C42.8613 45.0002 42.7852 44.9919 42.6927 44.9752C42.6003 44.9584 42.5351 44.9445 42.497 44.9333L42.4929 44.306C42.5147 44.3088 42.5487 44.3116 42.5949 44.3144C42.6438 44.32 42.6778 44.3228 42.6968 44.3228C42.8681 44.3228 43.0135 44.2991 43.1332 44.2517C43.2528 44.2071 43.3534 44.1304 43.4349 44.0217C43.5192 43.9157 43.5913 43.7694 43.6511 43.5826L43.9651 42.7044ZM43.0638 38.6479L44.2098 42.1607L44.4055 42.9762L43.8631 43.2606L42.2401 38.6479H43.0638Z" fill="black"/>
</svg>
