<svg width="50" height="50" viewBox="0 0 50 50" fill="none" xmlns="http://www.w3.org/2000/svg">
<rect width="50" height="50" fill="#009BDE"/>
<path d="M25.7998 32.5881C20.6135 31.0191 16.8294 26.2671 16.8294 20.6485C16.8294 14.9551 20.6889 10.1583 25.9656 8.64906C26.5084 8.49963 26.3576 8.14099 25.7093 8.14099C18.6988 8.14099 13 13.7447 13 20.6485C13 27.5522 18.6838 33.141 25.7093 33.141C26.3576 33.141 26.3878 32.7674 25.7998 32.5881Z" fill="white"/>
<path d="M19.126 23.7309C19.096 23.396 19.066 23.0458 19.066 22.6956C19.066 17.1082 23.521 12.5865 29.0259 12.5865C34.2309 12.5865 35.7908 14.9463 35.9858 14.794C36.1958 14.6266 34.0959 9.95258 27.9909 9.95258C22.486 9.95258 18.031 14.4743 18.031 20.0618C18.031 21.3559 18.271 22.5891 18.706 23.7157C18.886 24.2029 19.171 24.2029 19.126 23.7309Z" fill="white"/>
<path d="M23.361 16.5126C25.8878 15.3571 29.0758 15.3263 32.2051 16.4664C34.3059 17.2367 35.5253 18.3306 35.6281 18.2844C35.7898 18.2074 34.4088 15.8963 31.8966 14.9103C28.8555 13.7086 25.594 14.3403 23.214 16.2969C22.9496 16.5126 23.0524 16.6513 23.361 16.5126Z" fill="white"/>
<path d="M18.026 41.3278L19.2184 37.141H19.7961L19.4619 38.7687L18.1786 43.141H17.6051L18.026 41.3278ZM16.7922 37.141L17.7413 41.2454L18.026 43.141H17.4566L16 37.141H16.7922ZM21.3393 41.2413L22.2677 37.141H23.0641L21.6117 43.141H21.0422L21.3393 41.2413ZM19.8828 37.141L21.0422 41.3278L21.4631 43.141H20.8896L19.6517 38.7687L19.3133 37.141H19.8828Z" fill="white"/>
<path d="M25.9896 37.6726L24.0007 43.141H23.1879L25.4779 37.141H26.0019L25.9896 37.6726ZM27.6566 43.141L25.6636 37.6726L25.6512 37.141H26.1752L28.4735 43.141H27.6566ZM27.5534 40.9198V41.5709H24.1782V40.9198H27.5534Z" fill="white"/>
<path d="M30.0745 37.141V43.141H29.2782V37.141H30.0745ZM32.5915 39.8402V40.4913H29.9012V39.8402H32.5915ZM33 37.141V37.7921H29.9012V37.141H33Z" fill="white"/>
</svg>
