<svg width="50" height="50" viewBox="0 0 50 50" fill="none" xmlns="http://www.w3.org/2000/svg">
<rect width="50" height="50" fill="#009BDE"/>
<path d="M25.7998 32.4515C20.6135 30.8825 16.8294 26.1305 16.8294 20.5119C16.8294 14.8185 20.6889 10.0217 25.9656 8.51246C26.5084 8.36303 26.3576 8.00439 25.7093 8.00439C18.6988 8.00439 13 13.6081 13 20.5119C13 27.4156 18.6838 33.0044 25.7093 33.0044C26.3576 33.0044 26.3878 32.6308 25.7998 32.4515Z" fill="white"/>
<path d="M19.126 23.5943C19.096 23.2594 19.066 22.9092 19.066 22.559C19.066 16.9716 23.521 12.4499 29.0259 12.4499C34.2309 12.4499 35.7908 14.8097 35.9858 14.6574C36.1958 14.49 34.0959 9.81598 27.9909 9.81598C22.486 9.81598 18.031 14.3377 18.031 19.9252C18.031 21.2193 18.271 22.4525 18.706 23.5791C18.886 24.0663 19.171 24.0663 19.126 23.5943Z" fill="white"/>
<path d="M23.361 16.376C25.8878 15.2205 29.0758 15.1897 32.2051 16.3298C34.3059 17.1001 35.5253 18.194 35.6281 18.1478C35.7898 18.0708 34.4088 15.7598 31.8966 14.7737C28.8555 13.572 25.594 14.2037 23.214 16.1603C22.9496 16.376 23.0524 16.5147 23.361 16.376Z" fill="white"/>
<path d="M22.0648 43.0044V42.3574H18.8481V40.231H21.6166V39.5841H18.8481V37.6555H22.0209V37.0044H18V43.0044H22.0648Z" fill="white"/>
<path fill-rule="evenodd" clip-rule="evenodd" d="M25.6814 37.0044H24.9388L22.4999 43.0044H23.3656L23.9737 41.4343H26.6496L27.259 43.0044H28.1291L25.6814 37.0044ZM26.3969 40.7832H24.2259L25.3103 37.9837L26.3969 40.7832Z" fill="white"/>
<path fill-rule="evenodd" clip-rule="evenodd" d="M31.5523 37.0044H30.8097L28.3708 43.0044H29.2365L29.8446 41.4343H32.5205L33.1299 43.0044H34L31.5523 37.0044ZM32.2678 40.7832H30.0968L31.1812 37.9837L32.2678 40.7832Z" fill="white"/>
</svg>
