<svg width="50" height="50" viewBox="0 0 50 50" fill="none" xmlns="http://www.w3.org/2000/svg">
<rect width="50" height="50" fill="#009BDE"/>
<path d="M26.9128 34.4073C21.2756 32.7127 17.1624 27.5806 17.1624 21.5125C17.1624 15.3636 21.3575 10.1831 27.0931 8.55311C27.683 8.39172 27.5191 8.00439 26.8145 8.00439C19.1944 8.00439 13 14.0564 13 21.5125C13 28.9685 19.178 35.0044 26.8145 35.0044C27.5191 35.0044 27.5519 34.6009 26.9128 34.4073Z" fill="white"/>
<path d="M19.6587 24.8415C19.6261 24.4798 19.5935 24.1016 19.5935 23.7234C19.5935 17.689 24.4358 12.8055 30.4195 12.8055C36.077 12.8055 37.7727 15.3541 37.9846 15.1897C38.2129 15.0088 35.9303 9.96091 29.2945 9.96091C23.3109 9.96091 18.4685 14.8444 18.4685 20.8788C18.4685 22.2765 18.7294 23.6083 19.2022 24.8251C19.3979 25.3512 19.7076 25.3512 19.6587 24.8415Z" fill="white"/>
<path d="M24.2619 17.0458C27.0085 15.7978 30.4737 15.7645 33.8751 16.9958C36.1586 17.8278 37.484 19.0092 37.5958 18.9593C37.7715 18.8761 36.2704 16.3802 33.5397 15.3153C30.2342 14.0174 26.6892 14.6996 24.1022 16.8128C23.8148 17.0458 23.9266 17.1955 24.2619 17.0458Z" fill="white"/>
<path d="M30 43V42.4851H27.5149L28.8426 41.0522C29.2798 40.5782 29.7719 39.9924 29.7719 39.3178C29.7719 38.5222 29.2134 38 28.2774 38C27.3742 38 26.6604 38.6077 26.6604 39.5176H27.2902C27.2902 38.9343 27.6701 38.5149 28.2774 38.5149C28.8277 38.5149 29.1421 38.9023 29.1421 39.3923C29.1421 39.9329 28.7188 40.3748 28.3796 40.7507L26.7557 42.5495V43H30Z" fill="white"/>
<path d="M23.8315 43L22 38.0678H22.7115L24.1176 42.1338L25.537 38.0678H26.2485L24.4136 43H23.8315Z" fill="white"/>
</svg>
