<svg width="50" height="50" viewBox="0 0 50 50" fill="none" xmlns="http://www.w3.org/2000/svg">
<path d="M26.2519 37.2702C19.2617 35.199 14.1613 28.9265 14.1613 21.5099C14.1613 13.9946 19.3633 7.66288 26.4754 5.67065C27.2069 5.4734 27.0037 5 26.13 5C16.6811 5 9 12.3969 9 21.5099C9 30.6228 16.6607 38 26.13 38C27.0037 38 27.0444 37.5069 26.2519 37.2702Z" fill="#009BDE"/>
<path d="M17.2568 25.5787C17.2164 25.1366 17.1759 24.6744 17.1759 24.2121C17.1759 16.8367 23.1804 10.868 30.6001 10.868C37.6155 10.868 39.7181 13.983 39.9809 13.782C40.264 13.5609 37.4335 7.3913 29.2052 7.3913C21.7855 7.3913 15.781 13.36 15.781 20.7354C15.781 22.4436 16.1044 24.0715 16.6907 25.5586C16.9333 26.2017 17.3175 26.2017 17.2568 25.5787Z" fill="#009BDE"/>
<path d="M22.9648 16.0506C26.3706 14.5253 30.6674 14.4846 34.8851 15.9895C37.7167 17.0064 39.3602 18.4503 39.4988 18.3893C39.7166 18.2876 37.8553 15.2371 34.4693 13.9355C30.3704 12.3492 25.9746 13.183 22.7667 15.7658C22.4103 16.0506 22.5489 16.2336 22.9648 16.0506Z" fill="#009BDE"/>
<path d="M31.6162 47V46.2578H28.0518L29.9561 44.1924C30.5832 43.5092 31.2891 42.6649 31.2891 41.6924C31.2891 40.5457 30.488 39.793 29.1455 39.793C27.85 39.793 26.8262 40.6689 26.8262 41.9805H27.7295C27.7295 41.1397 28.2744 40.5352 29.1455 40.5352C29.9347 40.5352 30.3857 41.0935 30.3857 41.7998C30.3857 42.5791 29.7785 43.216 29.292 43.7578L26.9629 46.3506V47H31.6162Z" fill="black"/>
<path d="M22.7686 47L20.1416 39.8906H21.1621L23.179 45.7514L25.2148 39.8906H26.2354L23.6035 47H22.7686Z" fill="black"/>
</svg>
