<svg width="50" height="50" viewBox="0 0 50 50" fill="none" xmlns="http://www.w3.org/2000/svg">
<rect width="50" height="50" fill="#009BDE"/>
<path d="M27.0929 44.6158C18.7498 42.1054 12.6623 34.5023 12.6623 25.5124C12.6623 16.4031 18.8711 8.72822 27.3597 6.3134C28.2328 6.07431 27.9903 5.50049 26.9474 5.50049C15.6697 5.50049 6.50195 14.4664 6.50195 25.5124C6.50195 36.5585 15.6454 45.5005 26.9474 45.5005C27.9903 45.5005 28.0388 44.9028 27.0929 44.6158Z" fill="white"/>
<path d="M16.3569 30.4444C16.3086 29.9085 16.2603 29.3482 16.2603 28.7879C16.2603 19.848 23.427 12.6132 32.2828 12.6132C40.6559 12.6132 43.1655 16.3889 43.4792 16.1454C43.817 15.8774 40.4388 8.39903 30.6178 8.39903C21.762 8.39903 14.5954 15.6338 14.5954 24.5737C14.5954 26.6443 14.9814 28.6174 15.6812 30.42C15.9708 31.1995 16.4292 31.1995 16.3569 30.4444Z" fill="white"/>
<path d="M23.1696 18.8951C27.2346 17.0463 32.3631 16.997 37.3971 18.8211C40.7767 20.0537 42.7383 21.8039 42.9038 21.7299C43.1637 21.6067 40.9422 17.9091 36.9008 16.3314C32.0086 14.4086 26.7619 15.4193 22.9332 18.55C22.5078 18.8951 22.6733 19.117 23.1696 18.8951Z" fill="white"/>
</svg>
