<svg width="50" height="50" viewBox="0 0 50 50" fill="none" xmlns="http://www.w3.org/2000/svg">
<path d="M20.0681 22.8152C25.8673 27.9153 31.6615 33.021 37.4538 38.1288C38.4478 38.9906 38.1419 39.9949 36.801 39.9895C35.4851 39.9895 34.1652 39.9731 32.8535 39.9895C32.2447 40.0005 31.6561 39.7678 31.2152 39.3419C27.7009 36.2591 24.1812 33.1908 20.6561 30.1369C20.3479 29.8696 20.0479 29.6475 20.0641 29.152C20.0843 27.1247 20.0681 25.0913 20.0681 22.8152Z" fill="#2B6EDB"/>
<path d="M38.0702 11.7248C33.8314 15.4586 29.5973 19.1973 25.368 22.9407C25.0051 23.2635 24.7841 23.2347 24.4455 22.9263C23.4993 22.0613 22.5295 21.2177 21.5361 20.3952C21.1569 20.0786 21.1306 19.8771 21.5259 19.5399C24.9916 16.5134 28.4484 13.4793 31.8965 10.4377C32.237 10.1493 32.6694 9.9965 33.113 10.008C34.5626 10.008 36.0123 10.008 37.462 10.008C38.4727 10.0008 38.8469 11.1396 38.0702 11.7248Z" fill="#2B6EDB"/>
<path d="M17.406 22.8707C17.406 28.1678 17.406 33.4649 17.406 38.762C17.406 39.5619 17.033 39.9669 16.2504 39.973C15.0339 39.9813 13.8215 39.9813 12.6131 39.973C11.8771 39.973 11.5041 39.5968 11.5041 38.8361C11.5041 35.4093 11.5041 31.9825 11.5041 28.5558C11.5041 28.2412 11.5304 27.9657 11.794 27.7334C13.6045 26.1831 15.409 24.6102 17.406 22.8707Z" fill="#2B6EDB"/>
<path d="M11.5 24.3347C11.5 20.0567 11.5 15.7787 11.5 11.5007C11.5 10.2671 11.7575 10.0101 12.978 10.004C13.9918 10.004 15.0055 10.0245 16.0193 10.004C16.9499 9.97928 17.404 10.4008 17.402 11.3363C17.402 13.7501 17.3837 16.1639 17.402 18.5757C17.402 19.0506 17.1993 19.3241 16.8769 19.6037C15.1556 21.1108 13.4302 22.6343 11.5 24.3347Z" fill="#2B6EDB"/>
</svg>
