<svg width="50" height="50" viewBox="0 0 50 50" fill="none" xmlns="http://www.w3.org/2000/svg">
<rect width="50" height="50" transform="translate(0 -0.00390625)" fill="#FF0011"/>
<path d="M38.7445 39.3014C38.7445 39.3014 38.5673 40.3354 37.8797 40.3381C36.5442 40.346 35.2087 40.346 33.8732 40.3433C33.3391 40.3407 33.146 40.2111 32.9715 39.7007C32.5007 38.307 32.0353 36.9107 31.5804 35.5091C31.4059 34.967 31.2155 34.7025 30.5358 34.7078C26.7806 34.729 23.028 34.7184 19.2728 34.7184C18.6989 34.7184 18.5561 34.7898 18.3736 35.3372C17.9267 36.6701 17.5115 38.0135 17.0805 39.3516C16.7684 40.3143 16.7287 40.3407 15.7133 40.3407C14.4994 40.3407 13.2829 40.3222 12.0691 40.3486C11.0827 40.3671 10.8843 39.8224 11.1461 38.992L20.0397 12.1764C20.3405 11.3198 20.7666 10.6287 21.7428 10.5843C23.752 10.4963 25.7719 10.582 27.7829 10.5658C28.7111 10.5579 29.1686 10.9361 29.4701 11.7612L38.7445 39.3014ZM29.6658 29.3606C28.0985 24.6036 26.5586 19.8355 24.9162 15.1039C23.3851 19.8608 21.6375 24.5527 20.2618 29.3579C20.0032 30.2632 20.9193 30.3946 21.5894 30.3946C23.713 30.3999 25.8365 30.4025 27.9601 30.3999C28.6028 30.395 30.017 30.4143 29.6658 29.3606Z" fill="white"/>
<path d="M37.8797 40.3381C38.5673 40.3354 38.7445 39.3014 38.7445 39.3014L29.4701 11.7612C29.1686 10.9361 28.7111 10.5579 27.7829 10.5658C25.7719 10.582 23.752 10.4963 21.7428 10.5843C20.7666 10.6287 20.3405 11.3198 20.0397 12.1764L11.1461 38.992C10.8843 39.8224 11.0827 40.3671 12.0691 40.3486C13.2829 40.3222 14.4994 40.3407 15.7133 40.3407C16.7287 40.3407 16.7684 40.3143 17.0805 39.3516C17.5115 38.0135 17.9267 36.6701 18.3736 35.3372C18.5561 34.7898 18.6989 34.7184 19.2728 34.7184C23.028 34.7184 26.7806 34.729 30.5358 34.7078C31.2155 34.7025 31.4059 34.967 31.5804 35.5091C32.0353 36.9107 32.5007 38.307 32.9715 39.7007C33.146 40.2111 33.3391 40.3407 33.8732 40.3433C35.2087 40.346 36.5442 40.346 37.8797 40.3381Z" fill="white"/>
<path d="M29.6658 29.3606C30.017 30.4143 28.6028 30.395 27.9601 30.3999C25.8365 30.3999 23.713 30.3999 21.5894 30.3946C20.9193 30.3946 20.0032 30.2632 20.2618 29.3579C21.6375 24.5527 23.3851 19.8608 24.9162 15.1039C26.5586 19.8355 28.0985 24.6036 29.6658 29.3606Z" fill="#FF0011"/>
</svg>
