<svg width="50" height="50" viewBox="0 0 50 50" fill="none" xmlns="http://www.w3.org/2000/svg">
<path d="M9.18388 33C8.86258 33 8.54727 32.8635 8.31846 32.6076C7.97517 32.2239 7.90182 31.6554 8.13553 31.1904L15.206 17.1219C15.3653 16.8048 15.6485 16.5756 15.9824 16.4934C16.3162 16.4111 16.6678 16.4843 16.946 16.6937L25.3273 23.0001L40.3399 16.1047C40.799 15.8939 41.3352 16.0078 41.6787 16.3892C42.0222 16.7705 42.0981 17.3364 41.8684 17.8017L35.0489 31.6123C34.8911 31.932 34.6076 32.1639 34.2726 32.2477C33.9376 32.3315 33.5842 32.2587 33.3049 32.0485L25.0413 25.8309L9.66011 32.8954C9.50666 32.9658 9.34452 33 9.18388 33ZM16.6683 19.5308L11.8031 29.2116L22.8135 24.1546L16.6683 19.5308ZM27.5551 24.6762L33.5743 29.2054L38.2325 19.7723L27.5551 24.6762Z" fill="url(#paint0_linear_12932_1221)"/>
<defs>
<linearGradient id="paint0_linear_12932_1221" x1="8" y1="33.0265" x2="25.7327" y2="2.87368" gradientUnits="userSpaceOnUse">
<stop stop-color="#F47C20"/>
<stop offset="1" stop-color="#FDA600"/>
</linearGradient>
</defs>
</svg>
