<svg width="50" height="50" viewBox="0 0 50 50" fill="none" xmlns="http://www.w3.org/2000/svg">
<rect width="50" height="50" fill="#535353"/>
<path d="M14.6964 27.7981C15.6111 26.3107 16.5774 24.8609 17.5952 23.4485C18.6645 21.9737 19.5148 20.3988 20.2234 18.7365C21.1906 16.476 21.7888 14.1116 22.6455 11.8122C23.1514 10.4217 24.3827 9 25.9823 9C28.6836 9 29.5963 12.4031 27.9535 14.2495C27.2063 15.0744 26.3688 15.7993 25.4799 16.4742C23.8805 17.6957 22.6404 19.0306 21.7952 20.8863C21.1143 22.3628 20.6777 23.9298 20.5326 25.5483C20.4038 26.8107 20.3007 28.0855 20.1848 29.3604C19.9904 31.2932 18.8266 33.0755 16.616 32.9975C13.7084 32.8693 13.4757 29.7389 14.6964 27.7981Z" fill="white"/>
<path d="M29.6797 26.9232C29.7376 25.1827 29.5206 23.4656 29.0098 21.7987C28.5589 20.3113 27.9405 18.8865 27.2834 17.4741C27.1947 17.2676 27.0711 17.0607 27.1288 16.8367C27.4579 16.9165 27.7612 17.2606 27.9791 17.5116C30.7505 20.4355 33.971 23.9829 35.5288 27.6856C36.0586 28.9704 36.2918 30.604 35.4129 31.7977C33.7799 33.9912 30.3896 32.632 29.9245 30.1728C29.7313 29.1479 29.6668 28.448 29.6797 26.9232Z" fill="white"/>
<path d="M28.2888 24.1609C28.2888 25.8108 26.9102 27.1356 25.2096 27.1356C23.4832 27.1231 22.1304 25.7983 22.1433 24.111C22.1433 22.4861 23.5476 21.1738 25.2482 21.1738C26.9231 21.1862 28.2888 22.5361 28.2888 24.1609Z" fill="#FE7F01"/>
<path d="M17.0656 35H16V42H16.825L16.7453 36.334L18.7973 42H19.4247L21.4808 36.3419L21.4013 42H22.2263V35H21.1607L19.1153 40.7067L17.0656 35Z" fill="white"/>
<path fill-rule="evenodd" clip-rule="evenodd" d="M25.376 42H23.683V35H25.4533C27.0853 35 28.212 36.2552 28.212 38.2933C28.212 40.2973 27.2568 42 25.376 42ZM25.376 41.2452H24.5123V35.7596H25.4533C26.7259 35.7596 27.3913 36.923 27.3913 38.2837C27.3913 39.8048 26.8957 41.2452 25.376 41.2452Z" fill="white"/>
<path fill-rule="evenodd" clip-rule="evenodd" d="M29.4581 35H31.5292C32.9442 35 33.7207 35.7363 33.7207 37.101C33.7207 37.9557 33.286 38.6471 32.5304 38.9698L34 41.9423V42H33.1148L31.755 39.1635H30.2874V42H29.4581V35ZM31.555 38.4087H30.2874V35.7596H31.5292C32.4869 35.7596 32.8957 36.2948 32.8957 37.101C32.8957 37.8207 32.4524 38.4087 31.555 38.4087Z" fill="white"/>
</svg>
