<svg width="50" height="50" viewBox="0 0 50 50" fill="none" xmlns="http://www.w3.org/2000/svg">
<path d="M10.8271 34.4423C12.0918 32.3765 13.4277 30.3628 14.8349 28.4012C16.3134 26.3527 17.489 24.1654 18.4687 21.8566C19.806 18.7169 20.6331 15.4329 21.8175 12.2393C22.5169 10.308 24.2194 8.33337 26.431 8.33337C30.1658 8.33337 31.4276 13.06 29.1563 15.6244C28.1232 16.7702 26.9654 17.777 25.7363 18.7145C23.525 20.411 21.8105 22.265 20.6419 24.8424C19.7005 26.8932 19.0968 29.0696 18.8962 31.3176C18.7181 33.0709 18.5756 34.8416 18.4153 36.6123C18.1465 39.2968 16.5375 41.7723 13.4812 41.6639C9.46107 41.4859 9.13934 37.138 10.8271 34.4423Z" fill="#535353"/>
<path d="M31.543 33.2272C31.623 30.8098 31.323 28.4248 30.6168 26.1097C29.9933 24.0439 29.1383 22.0649 28.2298 20.1032C28.1072 19.8164 27.9363 19.529 28.0161 19.2179C28.4711 19.3288 28.8904 19.8066 29.1917 20.1553C33.0234 24.2163 37.4761 29.1434 39.63 34.2861C40.3624 36.0706 40.6848 38.3395 39.4697 39.9974C37.2119 43.0441 32.5245 41.1562 31.8815 37.7407C31.6143 36.3172 31.5252 35.345 31.543 33.2272Z" fill="#535353"/>
<path d="M29.6199 29.3907C29.6199 31.6821 27.7139 33.5223 25.3626 33.5223C22.9757 33.5049 21.1054 31.6648 21.1232 29.3212C21.1232 27.0645 23.0648 25.2417 25.4161 25.2417C27.7317 25.2591 29.6199 27.1339 29.6199 29.3907Z" fill="#FE7F01"/>
</svg>
