<svg width="50" height="50" viewBox="0 0 50 50" fill="none" xmlns="http://www.w3.org/2000/svg">
<path d="M13.7597 27.1478C14.7576 25.4746 15.8117 23.8435 16.922 22.2546C18.0885 20.5954 19.0162 18.8237 19.7892 16.9536C20.8443 14.4105 21.4969 11.7505 22.4315 9.16374C22.9833 7.59939 24.3266 6 26.0716 6C29.0185 6 30.0141 9.82848 28.222 11.9056C27.4068 12.8337 26.4933 13.6492 25.5235 14.4085C23.7787 15.7827 22.4259 17.2844 21.5038 19.3721C20.761 21.0332 20.2847 22.796 20.1265 24.6168C19.9859 26.037 19.8735 27.4712 19.747 28.9055C19.535 31.0799 18.2654 33.085 15.8538 32.9972C12.6819 32.853 12.428 29.3313 13.7597 27.1478Z" fill="#535353"/>
<path d="M30.1052 26.1636C30.1683 24.2056 29.9316 22.2738 29.3743 20.3985C28.8824 18.7253 28.2078 17.1223 27.491 15.5334C27.3942 15.3011 27.2593 15.0683 27.3223 14.8163C27.6814 14.9061 28.0122 15.2931 28.2499 15.5756C31.2732 18.8649 34.7866 22.8558 36.486 27.0213C37.0639 28.4667 37.3183 30.3045 36.3595 31.6474C34.5781 34.1151 30.8796 32.586 30.3722 29.8194C30.1614 28.6664 30.0911 27.879 30.1052 26.1636Z" fill="#535353"/>
<path d="M28.5877 23.0561C28.5877 24.9121 27.0839 26.4026 25.2287 26.4026C23.3453 26.3885 21.8696 24.8981 21.8836 22.9998C21.8836 21.1719 23.4156 19.6955 25.2708 19.6955C27.0979 19.7095 28.5877 21.2281 28.5877 23.0561Z" fill="#FE7F01"/>
<path d="M16.0361 36.8906H14.8252V44H15.7627L15.6721 38.2455L18.0039 44H18.7168L21.0533 38.2535L20.9629 44H21.9004V36.8906H20.6895L18.3652 42.6865L16.0361 36.8906Z" fill="black"/>
<path fill-rule="evenodd" clip-rule="evenodd" d="M25.4795 44H23.5557V36.8906H25.5674C27.4218 36.8906 28.7021 38.1655 28.7021 40.2354C28.7021 42.2707 27.6167 44 25.4795 44ZM25.4795 43.2334H24.498V37.6621H25.5674C27.0134 37.6621 27.7695 38.8437 27.7695 40.2256C27.7695 41.7705 27.2064 43.2334 25.4795 43.2334Z" fill="black"/>
<path fill-rule="evenodd" clip-rule="evenodd" d="M30.1182 36.8906H32.4717C34.0796 36.8906 34.9619 37.6384 34.9619 39.0244C34.9619 39.8925 34.468 40.5947 33.6093 40.9224L35.2793 43.9414V44H34.2734L32.7282 41.1191H31.0605V44H30.1182V36.8906ZM32.501 40.3525H31.0605V37.6621H32.4717C33.5599 37.6621 34.0244 38.2057 34.0244 39.0244C34.0244 39.7554 33.5207 40.3525 32.501 40.3525Z" fill="black"/>
</svg>
