<svg width="50" height="50" viewBox="0 0 50 50" fill="none" xmlns="http://www.w3.org/2000/svg">
<path d="M37.1331 15.3889C38.6515 15.6832 40.284 16.822 40.9621 18.0717C41.6402 19.3213 41.666 19.6294 41.666 24.8875C41.666 27.6948 41.6144 30.0072 41.5407 30.3672C41.0948 32.5064 39.3111 34.1818 37.0336 34.6007C36.3445 34.7184 27.3524 34.7772 27.3524 34.6491C27.3524 34.5557 28.1189 31.7241 28.1558 31.6895C28.1668 31.6653 29.7626 31.3364 31.6973 30.9453C36.2044 30.0245 36.0718 30.0591 36.444 29.6368L36.772 29.2699V20.7059L36.444 20.3355C36.0681 19.9098 36.2044 19.9478 31.6973 19.027L28.1558 18.2828C28.1189 18.2586 27.3524 15.427 27.3524 15.3405C27.3524 15.2262 36.5287 15.2816 37.1331 15.3993V15.3889ZM22.58 15.4062C22.5689 15.6174 21.865 18.2136 21.7876 18.2828C21.7618 18.3174 20.0445 18.6844 17.9844 19.0963C15.9244 19.5082 14.0928 19.9271 13.9306 20.0171C13.7095 20.1382 13.5252 20.3078 13.3889 20.5121C13.1862 20.8409 13.1641 21.1975 13.1641 24.9948C13.1641 28.7922 13.1899 29.1452 13.3889 29.4775C13.5252 29.6783 13.7095 29.8479 13.9306 29.9726C14.0928 30.0556 15.9096 30.4676 17.9844 30.8933L21.7876 31.7137C21.8613 31.783 22.5652 34.3791 22.58 34.5903C22.58 34.7184 21.6771 34.7426 17.708 34.708C12.2391 34.6595 12.1727 34.6491 10.7797 33.7664C9.77732 33.1191 9.02184 32.1914 8.62014 31.1114C8.33269 30.3222 8.33269 30.2495 8.33269 25.0017C8.33269 19.754 8.33269 19.6847 8.62014 18.892C9.02184 17.8155 9.77732 16.8843 10.7797 16.237C12.1727 15.3543 12.2354 15.3405 17.708 15.2955C21.6734 15.2609 22.58 15.2782 22.58 15.4132V15.4062ZM28.1853 24.749C28.2258 24.8737 28.2332 25.0087 28.2111 25.1367C28.1742 25.334 27.9457 25.3479 24.9975 25.386L21.8319 25.4102V24.5863H24.9643C27.5883 24.5863 28.13 24.6106 28.1779 24.7525L28.1853 24.749Z" fill="#FF6B01"/>
</svg>
