<svg width="50" height="50" viewBox="0 0 50 50" fill="none" xmlns="http://www.w3.org/2000/svg">
<path d="M13.9621 39.2116C17.0138 41.5748 20.8442 42.9946 25 42.9946C29.5478 42.9946 33.6937 41.3055 36.8579 38.5329C36.8963 38.499 36.8773 38.4766 36.8396 38.499C35.4197 39.4476 31.3729 41.5183 25.0001 41.5183C19.462 41.5183 15.9621 40.2821 13.9856 39.1786C13.9477 39.1599 13.9337 39.1883 13.9621 39.2116ZM26.2218 40.1316C30.6513 40.1316 35.5188 38.9237 38.43 36.5327C39.2266 35.8811 39.9854 35.0142 40.6651 33.8488C41.0563 33.1783 41.4389 32.3818 41.7507 31.5988C41.7645 31.5606 41.7409 31.5419 41.7122 31.5849C39.005 35.5702 31.1656 38.056 23.071 38.056C17.3493 38.056 11.1931 36.2257 8.78281 32.7309C8.75905 32.6986 8.73534 32.7125 8.74983 32.7495C10.9952 37.5237 17.8069 40.1316 26.2218 40.1316ZM21.3821 32.2118C12.1695 32.2118 7.82556 27.9196 7.03765 24.9905C7.02789 24.9481 7 24.9574 7 24.9954C7 25.9815 7.09861 27.254 7.26848 28.0987C7.34942 28.5099 7.6839 29.1551 8.17431 29.6694C10.4051 31.9954 15.9667 35.2547 25.5986 35.2547C38.7217 35.2547 41.7222 30.8819 42.3349 29.4437C42.773 28.4152 43 26.5567 43 24.9954C43 24.6175 42.9905 24.3158 42.9762 24.0196C42.9762 23.9715 42.9484 23.9676 42.9388 24.0144C42.2831 27.5334 31.0711 32.2118 21.3821 32.2118ZM8.7353 17.2739C8.20751 18.3219 7.62231 20.0899 7.44834 21.005C7.37209 21.3971 7.40457 21.5854 7.54201 21.8779C8.64622 24.2215 14.2314 27.9712 27.2595 27.9712C35.2076 27.9712 41.3818 26.0179 42.3821 22.4534C42.5664 21.7972 42.5761 21.1044 42.3395 20.1708C42.0752 19.1276 41.58 17.9112 41.161 17.057C41.1471 17.0291 41.1227 17.0333 41.1277 17.0662C41.2834 21.7415 28.2502 24.7546 21.6741 24.7546C14.5512 24.7546 8.60861 21.9156 8.60861 18.3309C8.60861 17.9866 8.67992 17.642 8.76886 17.2835C8.77777 17.2506 8.74969 17.2452 8.7353 17.2739ZM36.8871 11.5337C36.9627 11.6522 37.0004 11.7788 37.0004 11.9491C37.0004 13.949 30.8819 17.4869 21.142 17.4869C13.9855 17.4869 12.6457 14.831 12.6457 13.1421C12.6457 12.5384 12.8772 11.9206 13.387 11.2932C13.4148 11.2559 13.3911 11.2416 13.359 11.2692C12.4933 12.0031 10.2454 13.6795 10.2454 14.9958C10.2454 18.4958 19.0187 21.0336 27.2219 21.0336C35.9625 21.0336 39.8635 18.1792 39.8635 15.6707C39.8635 14.7742 39.5146 14.2508 38.6223 13.2362C38.043 12.5761 37.4951 12.0387 36.9151 11.5097C36.8871 11.4866 36.8675 11.5055 36.8871 11.5337ZM34.2074 9.53427C31.5098 7.91681 28.3773 6.99658 25.0001 6.99658C21.5994 6.99658 18.3725 7.94898 15.6652 9.60929C14.853 10.1092 14.3961 10.5098 14.3961 11.0249C14.3961 12.5431 17.9429 14.1754 24.2354 14.1754C30.4626 14.1754 35.2925 12.3875 35.2925 10.6663C35.2926 10.2556 34.9337 9.96814 34.2074 9.53427Z" fill="url(#paint0_radial_9176_22795)"/>
<defs>
<radialGradient id="paint0_radial_9176_22795" cx="0" cy="0" r="1" gradientUnits="userSpaceOnUse" gradientTransform="translate(18.7128 25.2434) rotate(89.9998) scale(21.6544 26.062)">
<stop stop-color="#00A8E0"/>
<stop offset="1" stop-color="#1696D4"/>
</radialGradient>
</defs>
</svg>
