<svg width="50" height="50" viewBox="0 0 50 50" fill="none" xmlns="http://www.w3.org/2000/svg">
<path d="M18.5187 30.402C18.5187 30.402 13.5816 29.0868 10.2973 26.665C10.2973 26.665 9.66163 26.1848 9.49212 26.0178L5 27.8132C6.75871 32.114 11.2084 34.6192 15.6794 34.2226C16.082 34.2017 16.5058 34.1599 16.9084 34.0973L18.5187 30.402Z" fill="#89D491"/>
<path d="M15.4039 23.6587L14.9801 23.1367C13.4121 21.2578 12.6281 18.9822 12.6069 16.7066L6.80109 14.3266C5.02119 18.4811 6.22898 23.1576 9.47093 26.0387L15.4039 23.6587Z" fill="#56BBB7"/>
<path d="M18.3916 27.2078L15.4251 23.6587L9.47093 26.0387L9.49212 26.0596C9.7252 26.2683 9.97947 26.4562 10.2337 26.6441C13.5393 29.0659 18.4764 30.402 18.4976 30.402C19.0908 29.2538 19.3027 28.3352 18.3916 27.2078Z" fill="#4EA599"/>
<path d="M44.1577 14.6815H32.8851C29.2617 14.6815 26.2528 16.122 24.3246 18.0845C24.3246 18.0845 26.6978 20.9029 26.7614 20.9655C27.7361 22.0929 28.3717 22.2599 30.0457 22.0094L33.5843 21.4666C35.3006 17.7922 38.0764 16.0594 42.7592 16.0594H44.2213C45.2384 16.0802 45.3019 14.6815 44.1577 14.6815Z" fill="#EFD158"/>
<path d="M22.4599 20.8611L22.5447 20.6732C22.9261 19.7755 23.5406 18.8987 24.3246 18.0845L16.3786 8.64795C13.8359 10.7148 12.5434 13.7211 12.5858 16.7483L22.4599 20.8611Z" fill="#429CE9"/>
<path d="M12.6069 16.7274C12.6281 19.0031 13.4121 21.2787 14.9801 23.1576L15.4039 23.6796L22.4599 20.882L12.6069 16.7274Z" fill="#3A7689"/>
<path d="M16.9295 34.0973L14.8318 38.9408C18.9425 40.6736 25.9562 39.1705 27.7361 34.995C27.7361 34.995 27.948 34.494 28.0115 34.3687C28.0115 34.3687 25.5536 32.5106 25.5324 32.5106C24.3458 31.6338 23.7313 31.4668 21.9938 32.1557H21.9726C21.6336 32.3227 17.7347 33.9929 16.9295 34.0973Z" fill="#5F77AD"/>
<path d="M30.0669 22.0303C28.3717 22.2808 27.7361 22.1138 26.7402 20.9864L24.3246 18.1053C23.5406 18.8987 22.9473 19.7755 22.5447 20.6941L22.4599 20.882L15.4039 23.6587L18.3916 27.2078C19.3027 28.3352 19.112 29.2329 18.5187 30.402L16.9295 34.0973C17.7559 33.9929 21.6547 32.3227 21.9726 32.1766C21.9938 32.1766 21.9938 32.1766 21.9938 32.1766C23.7525 31.4876 24.367 31.6755 25.5748 32.5524C25.7655 32.6985 28.0115 34.3687 28.0115 34.3687L33.5631 21.4874L30.0669 22.0303Z" fill="#364678"/>
</svg>
