<svg width="50" height="50" viewBox="0 0 50 50" fill="none" xmlns="http://www.w3.org/2000/svg">
<path fill-rule="evenodd" clip-rule="evenodd" d="M28.5123 22.2718C26.6328 23.659 23.9092 24.3956 21.5633 24.3956C18.2754 24.3956 15.3145 23.1808 13.0737 21.1573C12.8978 20.998 13.0548 20.7819 13.2661 20.9047C15.684 22.3108 18.6733 23.1584 21.7605 23.1584C23.8431 23.1584 26.1322 22.7263 28.2396 21.8326C28.5572 21.698 28.824 22.0416 28.5123 22.2718Z" fill="#232F3E"/>
<path fill-rule="evenodd" clip-rule="evenodd" d="M29.2938 21.3793C29.0529 21.0712 27.7047 21.2341 27.0991 21.3061C26.9161 21.3285 26.8865 21.168 27.053 21.0511C28.1285 20.2955 29.8911 20.5139 30.0966 20.7666C30.3032 21.0216 30.0423 22.7889 29.034 23.6318C28.8794 23.7617 28.7318 23.692 28.8003 23.5208C29.027 22.9542 29.5346 21.6862 29.2949 21.3781L29.2938 21.3793Z" fill="#232F3E"/>
<path fill-rule="evenodd" clip-rule="evenodd" d="M27.1416 15.715V14.9806C27.1416 14.8685 27.2266 14.7941 27.3282 14.7953H30.6185C30.7236 14.7953 30.8086 14.872 30.8086 14.9806V15.6099C30.8086 15.7161 30.7188 15.8531 30.5606 16.0715L28.8559 18.5046C29.4887 18.4893 30.1581 18.5849 30.733 18.9072C30.8629 18.9804 30.8971 19.0878 30.9077 19.1941V19.978C30.9077 20.0854 30.7897 20.2105 30.6657 20.1456C29.6528 19.6155 28.3093 19.5577 27.1889 20.1527C27.0744 20.2141 26.9551 20.0901 26.9551 19.9827V19.2378C26.9551 19.1185 26.9575 18.9143 27.0779 18.7337L29.053 15.9003H27.3341C27.229 15.9003 27.144 15.8248 27.144 15.715H27.1416Z" fill="#232F3E"/>
<path fill-rule="evenodd" clip-rule="evenodd" d="M15.1399 20.3003H14.1388C14.0431 20.2944 13.9676 20.2224 13.9593 20.1315V14.9937C13.9593 14.891 14.0467 14.8083 14.1529 14.8083H15.0856C15.1836 14.8131 15.2615 14.8862 15.2674 14.9807V15.6513H15.2863C15.5295 15.0031 15.9876 14.6997 16.6038 14.6997C17.2201 14.6997 17.6227 15.0019 17.9025 15.6513C18.1457 15.0031 18.697 14.6997 19.285 14.6997C19.7053 14.6997 20.1633 14.8733 20.4431 15.2617C20.7607 15.6938 20.6958 16.3206 20.6958 16.872V20.1138C20.6958 20.2165 20.6084 20.2991 20.5022 20.2991H19.5022C19.4018 20.2932 19.3228 20.213 19.3228 20.115V17.3914C19.3228 16.8654 19.4655 15.9854 18.7065 15.9854C17.9811 15.9854 18.0147 16.8889 18.0147 17.3902V20.1138C18.0147 20.2165 17.9285 20.2991 17.8222 20.2991H16.8223C16.7219 20.2932 16.6428 20.213 16.6428 20.115V17.3914C16.6428 16.8188 16.7349 15.9759 16.0254 15.9759C15.3158 15.9759 15.3335 16.7976 15.3335 17.3914V20.115C15.3335 20.2177 15.2462 20.3003 15.1399 20.3003Z" fill="#232F3E"/>
<path fill-rule="evenodd" clip-rule="evenodd" d="M33.6409 14.6997C35.1261 14.6997 35.93 15.9759 35.93 17.5968C35.93 19.2177 35.0422 20.4077 33.6409 20.4077C32.2395 20.4077 31.3883 19.1316 31.3883 17.5425C31.3883 15.9535 32.1923 14.6997 33.6409 14.6997ZM33.6503 15.7481C32.9124 15.7481 32.8652 16.7527 32.8652 17.3808C32.8652 18.0088 32.8558 19.3488 33.6409 19.3488C34.426 19.3488 34.4543 18.2674 34.4543 17.6086C34.4543 17.0119 34.5163 15.7492 33.6503 15.7492V15.7481Z" fill="#232F3E"/>
<path fill-rule="evenodd" clip-rule="evenodd" d="M37.8568 20.3003H36.8592C36.7588 20.2944 36.6797 20.2141 36.6797 20.1161V14.9759C36.6868 14.8815 36.7694 14.8083 36.871 14.8083H37.7989C37.8863 14.813 37.9583 14.872 37.9772 14.9523V15.7386H37.9961C38.277 15.0361 38.669 14.7009 39.3596 14.7009C39.8083 14.7009 40.2475 14.8626 40.5273 15.3065C40.7893 15.7173 40.7893 16.4091 40.7893 16.9062V20.1385C40.7787 20.2294 40.6961 20.3003 40.5969 20.3003H39.5934C39.5001 20.2944 39.4258 20.2259 39.4151 20.1385V17.3489C39.4151 16.7869 39.4801 15.9652 38.7894 15.9652C38.5462 15.9652 38.3219 16.127 38.2097 16.3761C38.0693 16.6901 38.0504 17.003 38.0504 17.3489V20.1149C38.0492 20.2176 37.9618 20.3003 37.8556 20.3003H37.8568Z" fill="#232F3E"/>
<path fill-rule="evenodd" clip-rule="evenodd" d="M24.3319 18.9072C24.1725 19.1882 23.9199 19.3617 23.6389 19.3617C23.2552 19.3617 23.0297 19.069 23.0297 18.6357C23.0297 17.7833 23.7947 17.6287 24.5184 17.6287C24.5184 18.0792 24.5785 18.4745 24.3319 18.9072ZM25.529 20.2861C25.4629 20.3452 25.3673 20.3499 25.2929 20.3097C24.96 20.0335 24.9009 19.906 24.7191 19.6427C24.1701 20.2023 23.7805 20.3699 23.0687 20.3699C22.2257 20.3699 21.5705 19.8493 21.5705 18.8092C21.5705 17.997 22.0108 17.4445 22.6377 17.173C23.1808 16.9345 23.9399 16.8908 24.5196 16.8259C24.5196 16.333 24.4738 15.7103 23.836 15.7103C23.4547 15.7103 23.1147 15.9062 23.0309 16.3112C23.0132 16.4009 22.9482 16.4906 22.8573 16.4953L21.8869 16.3903C21.8054 16.3714 21.7145 16.3064 21.7369 16.1813C21.9601 15.0043 23.0226 14.6489 23.9753 14.6489C24.4629 14.6489 25.0993 14.7788 25.483 15.1471C25.9705 15.6016 25.9233 16.2085 25.9233 16.8696V18.4291C25.9233 18.899 26.1181 19.1044 26.3011 19.357C26.3649 19.4479 26.379 19.5565 26.2976 19.6226C26.0933 19.7938 25.7297 20.109 25.5302 20.2873L25.5278 20.2849L25.529 20.2861Z" fill="#232F3E"/>
<path fill-rule="evenodd" clip-rule="evenodd" d="M11.2085 18.9072C11.0491 19.1882 10.7964 19.3617 10.5155 19.3617C10.1318 19.3617 9.90628 19.069 9.90628 18.6357C9.90628 17.7833 10.6713 17.6287 11.395 17.6287C11.395 18.0792 11.4551 18.4745 11.2085 18.9072ZM12.4056 20.2861C12.3395 20.3452 12.2438 20.3499 12.1695 20.3097C11.8365 20.0335 11.7775 19.906 11.5957 19.6427C11.0455 20.2023 10.6571 20.3699 9.94524 20.3699C9.1023 20.3699 8.44707 19.8493 8.44707 18.8092C8.44707 17.997 8.88743 17.4445 9.51432 17.173C10.0574 16.9345 10.8165 16.8908 11.3962 16.8259C11.3962 16.333 11.3503 15.7103 10.7126 15.7103C10.3313 15.7103 9.99128 15.9062 9.90864 16.3112C9.89093 16.4009 9.826 16.4906 9.73509 16.4953L8.76465 16.3903C8.68319 16.3714 8.5911 16.3064 8.61471 16.1813C8.83784 15.0043 9.90038 14.6489 10.8531 14.6489C11.3395 14.6489 11.977 14.7788 12.3607 15.1471C12.8471 15.6016 12.8011 16.2085 12.8011 16.8696V18.4291C12.8011 18.899 12.9959 19.1044 13.1789 19.357C13.2426 19.4479 13.2568 19.5565 13.1753 19.6226C12.9711 19.7938 12.6075 20.109 12.408 20.2873L12.4056 20.2849V20.2861Z" fill="#232F3E"/>
<path d="M34.7766 31.8144C35.1797 31.5401 35.3824 31.1347 35.3824 30.5992C35.3824 29.4064 34.3426 28.8332 33.2598 28.8332C31.513 28.8332 30.5051 30.1328 30.5051 31.8108C30.5051 33.5048 31.5469 34.6262 33.261 34.6262C33.8465 34.6262 34.401 34.5261 34.9233 34.3269C35.1094 34.2554 35.1582 34.1922 35.1582 33.9632V33.4707C35.1582 33.2884 35.0275 33.1887 34.8577 33.2453C34.4046 33.361 33.9541 33.4481 33.4852 33.4481C32.5863 33.4481 32.0127 33.0299 31.9302 32.1101C32.2307 32.1888 32.5848 32.2282 32.9915 32.2282C33.1865 32.2282 34.7766 32.1578 34.7766 31.8144ZM31.9516 31.1776C32.0589 30.3357 32.456 29.9136 33.1417 29.9136C33.6772 29.9136 33.9455 30.1389 33.9455 30.5885C33.9455 31.0472 33.6318 31.2623 32.9056 31.2623C32.5419 31.2623 32.2366 31.2336 31.9516 31.1764V31.1776Z" fill="#4679AD"/>
<path d="M14.893 28.9942C14.7079 28.9942 14.6282 29.0625 14.6282 29.2613V33.0915C14.2741 33.3205 13.9139 33.435 13.5455 33.435C13.0506 33.435 12.8025 33.1452 12.8025 32.5656V29.2613C12.8025 29.061 12.7346 28.9942 12.5366 28.9942H11.517C11.332 28.9942 11.2523 29.0625 11.2523 29.2613V33.0057C11.2523 33.9355 11.8203 34.6358 12.7811 34.6358C13.4679 34.6358 14.1262 34.3889 14.7558 33.8953L14.8512 34.2387C14.8942 34.4104 14.9776 34.4748 15.1494 34.4748H15.9138C16.1117 34.4748 16.1797 34.3925 16.1797 34.2065V29.2613C16.1797 29.061 16.1117 28.9942 15.9138 28.9942H14.893Z" fill="#4679AD"/>
<path d="M8.08977 28.8332C7.53637 28.8332 6.9672 29.0479 6.55025 29.4115V26.8048C6.55025 26.6045 6.48228 26.5377 6.28432 26.5377H5.26474C5.07969 26.5377 5 26.606 5 26.8048V34.2089C5 34.3962 5.08236 34.4772 5.26474 34.4772H6.05059C6.21396 34.4772 6.31294 34.3985 6.34752 34.2411L6.42146 33.9406C6.61226 34.148 6.84957 34.309 7.13338 34.4235C8.29098 34.8924 9.51182 34.3475 10.0216 33.212C10.2196 32.7684 10.3185 32.2496 10.3185 31.6558C10.3185 30.2795 9.64441 28.8332 8.08857 28.8332H8.08977ZM8.4666 33.0069C8.04561 33.6182 7.09574 33.4635 6.55025 33.1249V30.3035C6.8758 30.1103 7.22282 30.0137 7.59011 30.0137C8.39624 30.0137 8.74684 30.5325 8.74684 31.7202C8.74684 32.314 8.65263 32.7362 8.4654 33.008L8.4666 33.0069Z" fill="#4679AD"/>
<path d="M19.9885 31.3327C19.6082 31.1759 18.5444 30.947 18.5444 30.4323C18.5444 30.1175 18.8032 29.9816 19.3827 29.9816C19.7715 29.9816 20.1149 30.0245 20.4131 30.1104C20.6269 30.1691 20.8901 30.2491 20.8901 29.9279V29.4557C20.8901 29.2268 20.84 29.1636 20.6563 29.092C20.2175 28.9203 19.7465 28.8344 19.2444 28.8344C18.2548 28.8344 17.1218 29.3123 17.1218 30.4538C17.1218 31.6617 18.2142 31.9909 19.1693 32.3749C19.4607 32.4842 19.7846 32.6067 19.7846 32.9652C19.7846 33.3229 19.5294 33.5018 19.0202 33.5018C18.4247 33.5018 17.8473 33.2227 17.2792 33.2227C17.1587 33.2227 17.0991 33.305 17.0991 33.4696V33.9525C17.0991 34.1672 17.1349 34.2304 17.3328 34.3162C17.8349 34.538 18.4013 34.6489 19.0322 34.6489C20.0978 34.6489 21.2085 34.0667 21.2085 32.8793C21.2085 32.0743 20.6926 31.6213 19.9873 31.3339L19.9885 31.3327Z" fill="#4679AD"/>
<path d="M42.9728 31C42.7125 30.8935 42.336 30.7704 42.336 30.4323C42.336 30.1175 42.5947 29.9816 43.1743 29.9816C43.563 29.9816 43.9065 30.0245 44.2046 30.1104C44.4184 30.1691 44.6816 30.2491 44.6816 29.9279V29.4557C44.6816 29.2268 44.6315 29.1636 44.4479 29.092C44.009 28.9203 43.538 28.8344 43.036 28.8344C42.0464 28.8344 40.9133 29.3123 40.9133 30.4538C40.9133 31.6617 42.0057 31.9909 42.9608 32.3749C43.2523 32.4842 43.5762 32.6067 43.5762 32.9652C43.5762 33.3229 43.321 33.5018 42.8118 33.5018C42.2774 33.5018 41.727 33.4257 41.2198 33.2549C41.035 33.1922 40.8906 33.2458 40.8906 33.4696V33.9525C40.8906 34.1672 40.9264 34.2304 41.1244 34.3162C41.6264 34.538 42.1929 34.6489 42.8237 34.6489C43.8893 34.6489 45 34.0667 45 32.8793C45 31.7156 43.8637 31.369 42.9728 31Z" fill="#4679AD"/>
<path d="M38.9862 31.3327C38.6058 31.1759 37.5421 30.947 37.5421 30.4323C37.5421 30.1175 37.8008 29.9816 38.3804 29.9816C38.7691 29.9816 39.1126 30.0245 39.4107 30.1104C39.6245 30.1691 39.8877 30.2491 39.8877 29.9279V29.4557C39.8877 29.2268 39.8376 29.1636 39.654 29.092C39.2151 28.9203 38.7441 28.8344 38.2421 28.8344C37.2525 28.8344 36.1194 29.3123 36.1194 30.4538C36.1194 31.6617 37.2118 31.9909 38.1669 32.3749C38.4584 32.4842 38.7823 32.6067 38.7823 32.9652C38.7823 33.6991 37.6752 33.5078 37.2058 33.4374C36.9196 33.3944 36.6584 33.3336 36.4259 33.2549C36.2411 33.1922 36.0968 33.2458 36.0968 33.4696V33.9525C36.0968 34.1672 36.1325 34.2304 36.3305 34.3162C37.3022 34.7455 38.7308 34.8737 39.6051 34.1612C40.0046 33.8357 40.2049 33.4088 40.2049 32.8793C40.2049 32.5001 40.1107 32.1924 39.9235 31.9563C39.8532 31.8677 38.9862 31.3327 38.9862 31.3327Z" fill="#4679AD"/>
<path d="M26.0905 29.5844C26.0281 29.3527 26.0087 28.9942 25.6982 28.9942H24.9338C24.7488 28.9942 24.6691 29.0625 24.6691 29.2613V34.2077C24.6691 34.3937 24.7502 34.476 24.9338 34.476H25.9534C26.1514 34.476 26.2193 34.3937 26.2193 34.2077V30.3989C26.6464 30.1275 27.5291 29.7784 27.9604 30.2379C28.088 30.3739 28.1512 30.5885 28.1512 30.8819V34.2077C28.1512 34.395 28.2335 34.476 28.4159 34.476H29.4355C29.6335 34.476 29.7014 34.3937 29.7014 34.2077V30.4204C29.7014 29.9124 29.5655 29.5212 29.2924 29.2458C29.0205 28.9703 28.6329 28.8332 28.1297 28.8332C27.3789 28.8332 26.6756 29.1243 26.0905 29.5844Z" fill="#4679AD"/>
<path d="M23.3096 28.9942H22.29C22.105 28.9942 22.0253 29.0625 22.0253 29.2613V34.2077C22.0253 34.395 22.1076 34.476 22.29 34.476H23.3096C23.5075 34.476 23.5755 34.3937 23.5755 34.2077V29.2613C23.5755 29.061 23.5075 28.9942 23.3096 28.9942Z" fill="#4679AD"/>
<path d="M22.8016 26.4721C22.2616 26.4721 21.9096 26.7951 21.9096 27.3092C21.9096 27.8244 22.265 28.1463 22.8016 28.1463C23.3393 28.1463 23.6936 27.8234 23.6936 27.3092C23.6936 26.7941 23.3383 26.4721 22.8016 26.4721Z" fill="#4679AD"/>
</svg>
