<svg width="50" height="50" viewBox="0 0 50 50" fill="none" xmlns="http://www.w3.org/2000/svg">
<path d="M22.8633 14.7484C22.6334 14.5186 22.5223 14.4971 22.2445 14.6359C21.2883 15.3672 19.9945 18.5734 18.9258 22.7922C21.1572 22.7922 23.3882 22.8484 25.6195 22.8484C25.1133 20.9359 24.6633 19.2484 24.2133 17.9547C23.5383 15.9859 23.1445 15.1422 22.8633 14.7484Z" fill="#3260E7"/>
<path d="M25 6.64844C15.0437 6.64844 7 14.6922 7 24.6484C7 34.6047 15.0437 42.6484 25 42.6484C34.9563 42.6484 43 34.6047 43 24.6484C43 14.6922 34.9563 6.64844 25 6.64844ZM37.3188 25.1547H28.825C29.1709 26.884 30.0752 33.4797 32.0875 33.4797C34 33.4797 34.5 28.7547 35.5188 26.7859C35.6465 26.2749 36.4355 26.4939 36.3062 27.0109C36.1607 27.593 36.0141 28.1758 35.8562 28.7547C35.1812 31.6234 34.1125 35.8984 31.4688 35.8984C29.725 35.8984 28.7125 33.1422 28.2625 31.9609C27.4187 29.7672 26.8 27.4047 26.2375 25.1547H18.3625L16.7312 30.3859C16.3142 31.1157 15.2125 30.7194 15.2125 29.9359C15.5269 28.3639 15.798 26.7834 16.1125 25.2109H12.7938C12.175 25.0984 11.725 24.5922 11.725 23.9734C11.725 23.3547 12.175 22.8484 12.7375 22.7359C14.0503 22.7359 15.3623 22.7922 16.675 22.7922C18.4188 15.7609 20.3875 12.2172 22.6375 12.1609C25 12.1609 26.8 17.6172 28.2063 22.9047C31.2972 22.9641 34.3989 23.2422 37.4875 23.2422C37.9937 23.3547 38.3312 23.8609 38.2188 24.3672C38.2188 24.8874 37.7984 25.1547 37.3188 25.1547Z" fill="#3260E7"/>
</svg>
