<svg width="50" height="50" viewBox="0 0 50 50" fill="none" xmlns="http://www.w3.org/2000/svg">
<path d="M20.4369 11.0126C16.1574 11.9931 13.6851 14.8165 12.1165 16.6255C10.4286 18.5529 8.36554 20.8691 8.04159 24.4532C7.80289 27.2428 8.60424 30.1338 10.1217 32.4669C13.5146 37.691 20.0618 39.5677 26.0293 38.6716C29.0301 38.2151 32.2866 37.0486 34.3156 34.6986C37.0606 31.5371 37.0947 27.7669 37.1118 26.2284C37.1459 20.5309 33.9234 13.5654 27.7343 11.3507C24.3413 10.1503 21.2894 10.8097 20.4369 11.0126Z" fill="#00DCE8"/>
<path d="M31.1324 14.6472C31.9816 21.8227 33.2154 28.9183 34.9299 35.934C35.4266 37.9636 37.8461 39.3699 39.865 38.7307C41.9801 38.0435 43.1978 35.9979 42.6691 33.8085C41.8679 30.5324 41.1629 27.2244 40.554 23.9003C39.9794 20.8235 39.5885 17.7296 39.16 14.6313C39.0318 13.5286 38.8075 12.6177 37.9903 11.8027C37.2692 11.1315 36.1316 10.604 35.1382 10.6519C33.1673 10.7478 30.86 12.4258 31.1324 14.6472Z" fill="#FFA84F"/>
<path fill-rule="evenodd" clip-rule="evenodd" d="M31.2698 13.3442C31.1304 13.7489 31.0759 14.1865 31.1324 14.6472C31.9198 21.3009 33.038 27.8855 34.5634 34.4018C37.055 31.3135 37.0946 27.7396 37.1112 26.2412L37.1118 26.2284C37.1387 21.7397 35.1438 16.4638 31.2698 13.3442Z" fill="#FF3499"/>
</svg>
