<svg width="50" height="50" viewBox="0 0 50 50" fill="none" xmlns="http://www.w3.org/2000/svg">
<path d="M13.5671 39.5086C13.053 38.9899 12.5527 38.485 12.0524 37.9801C11.3501 37.2779 10.6479 36.571 9.94102 35.8733C9.79873 35.7356 9.78037 35.6438 9.89512 35.474C10.5377 34.5331 11.1665 33.583 11.8045 32.642C11.8826 32.5273 11.9376 32.4355 11.8504 32.2932C11.061 30.9804 10.4826 29.5805 10.0879 28.1025C9.98233 27.7124 9.93643 27.7032 9.50497 27.6344C8.76139 27.515 8.02241 27.3636 7.27884 27.2304C7.00344 27.18 6.72345 27.1295 6.44346 27.0882C6.2874 27.0652 6.2002 27.0055 6.2002 26.8219C6.20479 25.1237 6.20479 23.4254 6.20479 21.7271C6.20479 21.7133 6.21397 21.6995 6.22315 21.6582C6.69132 21.571 7.16409 21.4792 7.64144 21.3874C8.33912 21.2589 9.03679 21.1258 9.73447 21.0019C9.92725 20.9697 10.0099 20.8733 10.0558 20.6806C10.4 19.1751 11.0151 17.7843 11.8 16.4624C11.9055 16.288 11.8872 16.1732 11.777 16.0126C11.1344 15.09 10.5102 14.1536 9.87217 13.2311C9.7666 13.0796 9.78496 12.997 9.91348 12.8684C11.0885 11.7072 12.2544 10.5367 13.4156 9.36172C13.535 9.23779 13.6222 9.25615 13.7461 9.34336C14.6733 9.98136 15.605 10.6056 16.5276 11.2482C16.6974 11.3629 16.8214 11.3767 17.0004 11.2711C18.2856 10.5184 19.6442 9.93546 21.09 9.57286C21.3517 9.5086 21.494 9.40303 21.5444 9.10468C21.7143 8.05817 21.9254 7.01625 22.1136 5.97432C22.1733 5.65303 22.1641 5.65303 22.4762 5.65303C24.0689 5.65303 25.657 5.65303 27.2498 5.64844C27.4609 5.64844 27.5619 5.68057 27.6078 5.92843C27.8006 7.02543 28.0347 8.11784 28.2412 9.21025C28.2779 9.40762 28.3881 9.49024 28.5671 9.53155C29.9624 9.88038 31.2889 10.399 32.5282 11.1334C32.9 11.3538 33.1479 11.34 33.4921 11.0875C34.3229 10.4771 35.1904 9.9171 36.0395 9.32959C36.1681 9.24238 36.2461 9.25615 36.3517 9.36172C37.5313 10.5505 38.7155 11.7347 39.9043 12.9143C40.0145 13.0245 39.9869 13.0979 39.9135 13.2081C39.2755 14.1353 38.6466 15.0625 38.0086 15.9896C37.8939 16.1549 37.8618 16.2696 37.9811 16.4716C38.7752 17.7981 39.381 19.2026 39.6886 20.7265C39.7253 20.9101 39.8309 20.9606 39.9823 20.9881C40.7856 21.135 41.5888 21.2864 42.3921 21.4333C42.7317 21.4976 43.0668 21.5664 43.4064 21.6169C43.5809 21.6445 43.5533 21.7592 43.5533 21.874C43.5533 23.1913 43.5533 24.504 43.5533 25.8213C43.5533 26.1656 43.5441 26.5098 43.5579 26.8541C43.5625 27.0055 43.5074 27.0744 43.3605 27.1019C42.8878 27.1891 42.415 27.2809 41.9422 27.3681C41.2583 27.4967 40.579 27.6252 39.8951 27.7445C39.7345 27.7721 39.7115 27.8822 39.684 28.0016C39.4774 28.892 39.1929 29.7549 38.7981 30.5765C38.5181 31.164 38.2106 31.7332 37.9031 32.3024C37.8296 32.4355 37.8296 32.5319 37.9123 32.6558C38.5457 33.5738 39.1653 34.5009 39.8033 35.4143C39.9364 35.6071 39.9456 35.7173 39.7666 35.8917C38.6145 37.0254 37.4762 38.1637 36.3425 39.3158C36.1956 39.4627 36.0992 39.4627 35.9386 39.3525C35.0068 38.7099 34.0705 38.0765 33.1387 37.4339C33.0056 37.3421 32.9138 37.3375 32.7715 37.4202C31.4404 38.205 30.0313 38.8017 28.5304 39.1781C28.3055 39.2332 28.2228 39.3525 28.1861 39.5683C27.9979 40.6331 27.7868 41.698 27.6124 42.7675C27.5711 43.0245 27.4517 43.0566 27.2314 43.0566C25.6938 43.052 24.1561 43.052 22.6185 43.052C22.1824 43.052 22.1779 43.052 22.0952 42.616C21.8933 41.5649 21.6913 40.5184 21.5031 39.4673C21.471 39.302 21.4022 39.2378 21.2461 39.2011C19.7268 38.8522 18.3039 38.2785 16.9866 37.4431C16.8168 37.333 16.702 37.3467 16.5414 37.4569C15.6372 38.0857 14.7283 38.7054 13.8195 39.325C13.7507 39.3938 13.6727 39.4443 13.5671 39.5086ZM34.5203 24.3893C34.5662 19.0833 30.0726 14.631 24.6794 14.7412C19.6488 14.8421 15.1139 19.097 15.2608 24.6325C15.3939 29.7366 19.5983 34.0649 25.0145 34.0052C30.2883 33.9501 34.534 29.5897 34.5203 24.3893Z" fill="#0A5898"/>
<path d="M31.546 24.3984C31.5689 27.9694 28.714 30.9804 25.0328 31.0355C21.2186 31.0906 18.2351 28.1209 18.2305 24.3847C18.2259 20.6943 21.2002 17.7109 24.8997 17.7109C28.5487 17.7063 31.6011 20.6943 31.546 24.3984ZM23.1096 24.9217C24.4637 24.9309 25.6387 23.7834 25.6433 22.4477C25.6479 21.0294 24.5187 19.8681 23.1234 19.859C21.7785 19.8498 20.5897 21.0156 20.5805 22.3605C20.5714 23.7421 21.728 24.9125 23.1096 24.9217Z" fill="#0A5898"/>
</svg>
