<svg width="50" height="50" viewBox="0 0 50 50" fill="none" xmlns="http://www.w3.org/2000/svg">
<rect width="50" height="50" fill="#049FD9"/>
<path d="M13.3538 36.6515H12.3801L12.3865 36.1486H13.3538C14.5387 36.1486 14.8561 35.1732 14.8561 34.1755C14.8561 33.0984 14.335 32.4939 13.4115 32.4939H12.3609V31.9878H13.4115C14.628 31.9878 15.4679 32.8241 15.4679 34.1819C15.4679 35.5171 14.7558 36.6515 13.3538 36.6515ZM12.71 31.9878V36.6515H12.0918V31.9878H12.71Z" fill="white"/>
<path d="M17.2809 36.2928L18.245 33.1857H18.8792L17.4891 37.1864C17.2719 37.7656 16.7603 38.1808 16.1277 38L16.1245 37.5196C16.9153 37.6184 17.0665 36.8775 17.2809 36.2928ZM16.573 33.1857L17.473 35.8764L17.6268 36.501L17.2008 36.7188L15.9259 33.1857H16.573Z" fill="white"/>
<path d="M20.0067 33.9257V36.6515H19.4141V33.1857H19.9747L20.0067 33.9257ZM19.8658 34.7873L19.6191 34.7777C19.6278 33.8192 20.2027 33.1217 21.0285 33.1217C21.711 33.1217 22.14 33.462 22.14 34.3805V36.6515H21.5442V34.3741C21.5442 33.8223 21.296 33.6214 20.8523 33.6214C20.2348 33.6214 19.8658 34.2248 19.8658 34.7873Z" fill="white"/>
<path d="M25.0837 36.0589V34.2748C25.0837 33.8627 24.8326 33.5989 24.3534 33.5989C23.9114 33.5989 23.6038 33.8545 23.6038 34.1467H23.0112C23.0112 33.6445 23.5688 33.1217 24.3886 33.1217C25.1484 33.1217 25.6762 33.5068 25.6762 34.2812C25.6762 34.9334 25.6095 35.6162 25.7051 36.2639C25.7262 36.393 25.798 36.5231 25.798 36.6515H25.1798C25.1194 36.5136 25.0837 36.2536 25.0837 36.0589ZM25.1862 34.5503L25.1926 34.9667C24.8459 34.9667 24.4836 34.9367 24.142 35.0083C23.7474 35.0847 23.5334 35.2827 23.5334 35.6073C23.5334 35.9349 23.7631 36.1967 24.1964 36.1967C24.7426 36.1967 25.1222 35.788 25.1413 35.476L25.3944 35.761C25.2993 36.3315 24.6543 36.7156 24.1099 36.7156C23.4088 36.7156 22.9376 36.2644 22.9376 35.6874C22.9376 34.9348 23.5556 34.5503 24.4975 34.5503H25.1862Z" fill="white"/>
<path d="M27.1977 33.8744V36.6515H26.602V33.1857H27.1657L27.1977 33.8744ZM27.076 34.7873L26.8005 34.7777C26.8092 33.8215 27.2897 33.1217 28.2067 33.1217C28.8536 33.1217 29.3278 33.4698 29.3278 34.3421V36.6515H28.7352V34.3709C28.7352 33.8281 28.4428 33.6214 27.9953 33.6214C27.298 33.6214 27.076 34.1554 27.076 34.7873ZM29.3214 34.4606L28.9242 34.5823C28.9264 34.3922 28.9573 34.2097 29.0171 34.0346C29.2041 33.5057 29.6455 33.1217 30.3016 33.1217C31.052 33.1217 31.4643 33.5056 31.4643 34.3741V36.6515H30.8685V34.3677C30.8685 33.7841 30.5855 33.6214 30.1286 33.6214C29.6124 33.6214 29.3214 34.0021 29.3214 34.4606Z" fill="white"/>
<path d="M33.005 33.1857V36.6515H32.4092V33.1857H33.005ZM32.3644 32.2664C32.3644 32.0727 32.4847 31.9237 32.7135 31.9237C32.9417 31.9237 33.0659 32.0758 33.0659 32.2664C33.0659 32.447 32.9438 32.5996 32.7135 32.5996C32.4827 32.5996 32.3644 32.4499 32.3644 32.2664Z" fill="white"/>
<path d="M35.3433 36.2287C35.768 36.2287 36.1283 35.9434 36.1601 35.556H36.7238C36.6921 36.1646 36.0855 36.7156 35.3433 36.7156C34.3099 36.7156 33.8026 35.9175 33.8026 34.9859C33.8026 34.0263 34.266 33.1217 35.3433 33.1217C36.1536 33.1217 36.6917 33.6572 36.7238 34.3773H36.1601C36.1283 33.9512 35.8204 33.6085 35.3433 33.6085C34.5746 33.6085 34.3952 34.3605 34.3952 34.9859C34.3952 35.5956 34.6145 36.2287 35.3433 36.2287Z" fill="white"/>
<path d="M39.408 35.7322C39.408 35.4746 39.2965 35.2679 38.6105 35.1332C37.8536 34.9735 37.3613 34.7116 37.3613 34.1339C37.3613 33.5812 37.8741 33.1217 38.6457 33.1217C39.476 33.1217 39.9654 33.6049 39.9654 34.2043H39.3728C39.3728 33.9163 39.1171 33.6085 38.6457 33.6085C38.1626 33.6085 37.957 33.8573 37.957 34.1178C37.957 34.3682 38.0964 34.5055 38.7546 34.6528C39.6066 34.845 40.0006 35.13 40.0006 35.6874C40.0006 36.2825 39.4925 36.7156 38.6617 36.7156C37.7456 36.7156 37.2427 36.1582 37.2427 35.5817H37.8385C37.8639 36.0637 38.2938 36.2287 38.6617 36.2287C39.1541 36.2287 39.408 36.0189 39.408 35.7322Z" fill="white"/>
<path d="M31.4881 22.9126C30.2847 22.3017 28.4316 22.5731 28.4316 24.2471C28.4316 25.898 30.2888 26.2236 31.4881 25.5851V27.2641C29.2837 27.8764 26.7156 26.875 26.7156 24.2467C26.7156 21.6534 29.2902 20.5795 31.4881 21.2337V22.9126ZM15.0117 22.9126C13.8111 22.2887 11.9557 22.5834 11.9557 24.2471C11.9557 25.8881 13.8156 26.236 15.0117 25.5851V27.2641C12.8075 27.8826 10.2412 26.8702 10.2412 24.2467C10.2412 21.6572 12.8144 20.5752 15.0117 21.2337V22.9126ZM36.4536 22.6022C35.5171 22.6022 34.8216 23.3391 34.8216 24.2471C34.8216 25.1571 35.5171 25.8936 36.4536 25.8936C37.3891 25.8936 38.0866 25.1571 38.0866 24.2471C38.0866 23.3391 37.3891 22.6022 36.4536 22.6022ZM39.7591 24.2471C39.7591 26.0366 38.3776 27.4866 36.4541 27.4866C34.5296 27.4866 33.1501 26.0366 33.1501 24.2467C33.1501 22.4607 34.5301 21.0091 36.4536 21.0091C38.3776 21.0091 39.7591 22.4606 39.7591 24.2471ZM24.7461 22.5422C24.3078 22.4023 22.5356 22.0274 22.5356 22.8637C22.5356 23.3664 23.3153 23.4775 23.6946 23.5982C24.7196 23.9242 25.1861 24.6256 25.1861 25.3876C25.1861 27.6399 22.5015 27.6483 20.8927 27.3161V25.8761C21.4213 26.0092 23.5296 26.5307 23.5296 25.5251C23.5296 25.2081 23.2171 25.0251 22.8256 24.9021C21.8685 24.5797 20.8767 24.1433 20.8767 22.9631C20.8767 20.9222 23.2621 20.812 24.7461 21.2067V22.5422Z" fill="white"/>
<path d="M18.76 27.3759H17.1815V21.1204H18.76V27.3759Z" fill="white"/>
<path d="M8.56749 14.3979C8.56749 13.9669 8.21549 13.6174 7.784 13.6174C7.3525 13.6174 7 13.9669 7 14.3974V16.0399C7.01033 16.4488 7.37475 16.8041 7.78375 16.8041C8.19275 16.8041 8.55717 16.4488 8.56749 16.0399V14.3979ZM12.872 12.2429C12.872 11.8161 12.5151 11.4592 12.0882 11.4592C11.6613 11.4592 11.3045 11.816 11.3045 12.2429V16.0399C11.3045 16.4668 11.6613 16.8237 12.0882 16.8237C12.5151 16.8237 12.872 16.4668 12.872 16.0399V12.2429ZM17.177 9.29394C17.177 8.86294 16.825 8.51294 16.3935 8.51294C15.9615 8.51294 15.6095 8.86294 15.6095 9.29394V17.6004C15.6198 18.0093 15.9842 18.3646 16.3932 18.3646C16.8022 18.3646 17.1666 18.0093 17.177 17.6004V9.29394ZM21.4814 12.2429C21.4814 11.816 21.1246 11.4592 20.6977 11.4592C20.2708 11.4592 19.9139 11.816 19.9139 12.2429V16.0399C19.9139 16.4668 20.2708 16.8237 20.6977 16.8237C21.1246 16.8237 21.4814 16.4668 21.4814 16.0399V12.2429ZM25.7814 14.3979C25.7817 13.9844 25.416 13.6179 25.0024 13.6174C24.5879 13.6171 24.2205 13.9829 24.2189 14.3974V16.0399C24.2189 16.4654 24.5746 16.8212 25.0002 16.8212C25.4146 16.8212 25.7814 16.4543 25.7814 16.0399V14.3979ZM30.0879 12.2429C30.0776 11.8354 29.7143 11.4812 29.3066 11.4812C28.899 11.4812 28.5357 11.8354 28.5254 12.2429V16.0399C28.5254 16.4654 28.8811 16.8212 29.3066 16.8212C29.721 16.8212 30.0879 16.4543 30.0879 16.0399V12.2429ZM34.3954 9.29394C34.3954 8.86842 34.0396 8.5127 33.6141 8.5127C33.1886 8.5127 32.8329 8.86842 32.8329 9.29394V17.6004C32.814 18.0319 33.1773 18.4166 33.6141 18.4166C34.0461 18.4166 34.4145 18.0368 34.3954 17.6004V9.29394ZM38.7018 12.2429C38.7018 11.8114 38.3523 11.4609 37.9108 11.4609C37.4965 11.4612 37.1299 11.8281 37.1299 12.2424V16.0399C37.1299 16.4734 37.4798 16.8229 37.9108 16.8229C38.3523 16.8229 38.7018 16.4734 38.7018 16.0399V12.2429ZM43.0003 14.3979C43.0003 13.972 42.6443 13.6159 42.2183 13.6159C41.7924 13.6159 41.4363 13.972 41.4363 14.3979V16.0399C41.4363 16.4734 41.7868 16.8234 42.2183 16.8234C42.6493 16.8234 42.9998 16.4734 42.9998 16.0399L43.0003 14.3979Z" fill="white"/>
</svg>
