<svg width="50" height="50" viewBox="0 0 50 50" fill="none" xmlns="http://www.w3.org/2000/svg">
<path d="M30.965 16.8159L24.999 20.2819L30.965 23.8912L36.931 20.2819L30.965 16.8159Z" fill="#CD3832"/>
<path d="M36.931 20.2819L30.965 23.8912L30.9658 30.9628L36.9318 27.3534L36.931 20.2819Z" fill="#BB443D"/>
<path d="M19.0349 16.8159L12.9307 20.2764L19.0349 23.8912L24.999 20.2819L19.0349 16.8159Z" fill="#BBC656"/>
<path d="M24.999 20.2819L19.0332 23.8911L24.9992 27.3586L30.965 23.8912L24.999 20.2819Z" fill="#F9E04B"/>
<path d="M25.0001 34.426V27.3533L19.0352 23.8857V30.9574L25.0001 34.426Z" fill="#F6D047"/>
<path d="M19.0338 30.9574V23.8857L12.9307 20.2764V27.3481L19.0338 30.9574Z" fill="#AAB85D"/>
<path d="M30.965 23.8857L24.999 27.3533V34.426L30.965 30.9574V23.8857Z" fill="#DEBF5B"/>
<path d="M25.0001 41.4957V34.426L19.0352 30.9574V38.0302L25.0001 41.4957Z" fill="#6FBFCC"/>
<path d="M30.965 30.9574L24.999 34.426V41.49L30.965 38.024V30.9574Z" fill="#79C1C0"/>
<path d="M24.9996 8.49561L21.3379 10.5756L24.9996 12.7948L28.6602 10.5756L24.9996 8.49561Z" fill="#77C4D3"/>
<path d="M24.9996 17.0921V12.7948L21.3379 10.5756V14.8688L24.9996 17.0921Z" fill="#5CB9BC"/>
<path d="M28.6597 10.5747L24.999 12.7939L24.9996 17.0921L28.6597 14.8688V10.5747Z" fill="#52A0B6"/>
<path d="M9.0005 36.7811L12.6607 39.0003V34.5635L9 32.4824L9.0005 36.7811Z" fill="#BB3D36"/>
<path d="M16.3219 32.4821L12.6607 34.5635V39.0003L16.3219 36.7803V32.4821Z" fill="#9E3634"/>
<path d="M9.00098 32.4833L12.6617 34.5644L16.3233 32.4833L12.6617 30.2651L9.00098 32.4833Z" fill="#D43E35"/>
<path d="M40.9996 36.7812V32.4819L37.3379 34.563V38.9993L40.9996 36.7812Z" fill="#879C63"/>
<path d="M33.6776 32.4839L37.3383 34.5649L41 32.4839L37.3373 30.2657L33.6776 32.4839Z" fill="#BFC64F"/>
<path d="M37.3384 39.0013L37.3383 34.5649L33.6776 32.4839L33.6777 36.7826L37.3384 39.0013Z" fill="#9FAE59"/>
</svg>
