<svg width="50" height="50" viewBox="0 0 50 50" fill="none" xmlns="http://www.w3.org/2000/svg">
<path d="M32.3258 29.947C31.6035 30.6082 30.8297 30.9468 30.001 30.9661C28.4422 30.9661 27.1133 29.947 25.5417 29.947C23.9702 29.947 22.6526 30.9413 21.1101 30.9934C20.3154 31.0271 19.5234 30.6788 18.7328 29.947C15.7372 27.3461 14 22.9046 14 19.0228C14 16.2961 15.0925 13.5542 17.5146 12.1229C19.362 11.0313 21.268 11.0717 23.218 11.7958C24.9506 12.4432 25.6387 12.3288 27.3788 11.6931C28.5517 11.273 29.5416 11.099 30.3525 11.1675C32.5499 11.3441 34.2008 12.2064 35.2987 13.7599C33.3334 14.9453 32.3613 16.6055 32.3806 18.7354C32.4056 21.0756 33.8518 23.1556 36 24.0522C35.244 26.2349 34.0915 28.4204 32.3258 29.947ZM29.0708 9.15388C27.9229 10.4898 26.5345 11.2617 25.0289 11.1399C24.8422 9.6224 25.5213 8.08915 26.5139 6.97075C27.4767 5.87048 29.0019 5.07152 30.4718 4.99561C30.6413 6.51831 30.0467 8.00091 29.0708 9.15388Z" fill="#B3B3B3"/>
<path d="M26.3682 40.2031C26.3682 39.5396 26.0385 39.2222 24.6787 38.8262C23.2679 38.4081 22.374 37.8321 22.374 36.7266C22.374 35.6105 23.3447 34.793 24.791 34.793C26.0374 34.793 27.2959 35.6042 27.2959 36.9414H26.3584C26.3584 36.1326 25.8472 35.5645 24.791 35.5645C23.788 35.5645 23.3164 36.049 23.3164 36.7168C23.3164 37.3178 23.8269 37.6851 24.9814 38.0059C26.5937 38.4609 27.3154 39.081 27.3154 40.1934C27.3154 41.3485 26.3468 42.0977 24.835 42.0977C23.5639 42.0977 22.1494 41.3373 22.1494 39.9395H23.0869C23.0869 40.9146 23.9336 41.3311 24.835 41.3311C25.8243 41.3311 26.3682 40.8923 26.3682 40.2031Z" fill="#1C1D1F"/>
<path d="M30.5918 37.4102V36.7168H29.6055V35.4326H28.7021V36.7168H27.7354V37.4102H28.7021V40.6865C28.7021 41.7769 29.5446 42.341 30.6162 42L30.6113 41.2627C30.0887 41.3833 29.6055 41.2927 29.6055 40.6914V37.4102H30.5918Z" fill="#1C1D1F"/>
<path fill-rule="evenodd" clip-rule="evenodd" d="M31.3145 39.417C31.3145 37.9739 32.1827 36.6191 33.7119 36.6191C35.2586 36.6191 36.124 37.9999 36.124 39.417C36.124 40.8338 35.1884 42.0977 33.7217 42.0977C32.2537 42.0977 31.3145 40.8371 31.3145 39.417ZM32.2178 39.3047C32.2178 40.2496 32.6004 41.3555 33.7217 41.3555C34.746 41.3555 35.2158 40.3325 35.2158 39.417C35.2158 38.4719 34.8347 37.3613 33.7119 37.3613C32.7452 37.3613 32.2178 38.2382 32.2178 39.3047Z" fill="#1C1D1F"/>
<path d="M38.1602 38.244V42H37.2568V36.7168H38.1357L38.1536 37.3232C38.4576 36.8305 39.2287 36.3966 39.8105 36.6875L39.8057 37.5273C39.1469 37.3841 38.4416 37.5884 38.1602 38.244Z" fill="#1C1D1F"/>
<path fill-rule="evenodd" clip-rule="evenodd" d="M42.7402 42.0977C43.7929 42.0977 44.387 41.5928 44.7275 41.0771L44.1807 40.6426C43.8486 41.0788 43.4271 41.3604 42.7891 41.3604C41.8342 41.3604 41.247 40.5829 41.2225 39.6123H44.7959C44.7959 38.1516 44.2884 36.6191 42.623 36.6191C41.023 36.6191 40.3135 38.1516 40.3135 39.5439C40.3135 40.9355 41.2813 42.0977 42.7402 42.0977ZM41.249 38.875C41.3721 37.896 41.9124 37.3613 42.623 37.3613C43.4454 37.3613 43.8926 38.1246 43.8926 38.875H41.249Z" fill="#1C1D1F"/>
<path fill-rule="evenodd" clip-rule="evenodd" d="M17.697 37.297C18.0559 36.8538 18.5626 36.6191 19.2246 36.6191C20.5455 36.6191 21.29 37.6897 21.29 39.3145C21.29 40.5927 20.7492 42.0977 19.2393 42.0977C18.5897 42.0977 18.0868 41.8851 17.7305 41.4875V44.0312H16.8223V36.7168H17.6523L17.697 37.297ZM17.7305 40.6308C17.9621 41.0535 18.346 41.3555 18.9707 41.3555C19.9708 41.3555 20.3818 40.4514 20.3818 39.417C20.3818 38.5053 20.0731 37.3809 18.9609 37.3809C18.3582 37.3809 17.9713 37.6813 17.7305 38.1086V40.6308Z" fill="#1C1D1F"/>
<path fill-rule="evenodd" clip-rule="evenodd" d="M12.0817 37.297L12.0371 36.7168H11.207V44.0312H12.1152V41.4875C12.4716 41.8851 12.9745 42.0977 13.624 42.0977C15.1339 42.0977 15.6748 40.5927 15.6748 39.3145C15.6748 37.6897 14.9303 36.6191 13.6094 36.6191C12.9473 36.6191 12.4406 36.8538 12.0817 37.297ZM12.1152 40.6308V38.1086C12.356 37.6813 12.743 37.3809 13.3457 37.3809C14.4539 37.3809 14.7666 38.504 14.7666 39.417C14.7666 40.3031 14.3739 41.3555 13.3555 41.3555C12.7308 41.3555 12.3469 41.0535 12.1152 40.6308Z" fill="#1C1D1F"/>
<path fill-rule="evenodd" clip-rule="evenodd" d="M7.67676 34.8906L10.3965 42H9.42969L8.75256 40.1396H5.77924L5.10352 42H4.1416L6.85156 34.8906H7.67676ZM6.05947 39.3682L7.26436 36.051L8.47175 39.3682H6.05947Z" fill="#1C1D1F"/>
</svg>
