<svg width="50" height="50" viewBox="0 0 50 50" fill="none" xmlns="http://www.w3.org/2000/svg">
<path d="M32.992 36.0929C32.2041 36.8175 31.3599 37.1886 30.4558 37.2097C29.8069 37.2097 29.0242 37.025 28.1132 36.6504C26.4018 35.9523 24.7115 35.9589 22.9976 36.6504C22.0721 37.025 21.3266 37.2203 20.7565 37.2396C19.8896 37.2765 19.0256 36.8949 18.1631 36.0929C16.1744 34.3584 14.766 31.7415 13.9165 29.2882C13.306 27.5101 13 25.7882 13 24.1212C13 22.2117 13.4126 20.5648 14.2391 19.1847C15.5097 17.0161 17.8195 15.6117 20.3425 15.5697C21.0311 15.5697 21.9341 15.7827 23.0561 16.2013C24.9477 16.9113 25.6955 16.7859 27.5952 16.0887C28.8747 15.6283 29.9546 15.4376 30.8393 15.5127C33.2365 15.7062 35.0375 16.6512 36.2352 18.3537C34.0912 19.6527 33.0307 21.4722 33.0518 23.8063C33.079 26.3649 34.6508 28.6478 37.0002 29.6329C36.1762 32.0228 34.9207 34.4178 32.992 36.0929ZM29.441 13.306C28.1888 14.77 26.6741 15.616 25.0316 15.4825C24.8282 13.8209 25.5672 12.141 26.6516 10.9136C27.1796 10.3075 27.8511 9.80354 28.6654 9.40153C29.478 9.00553 30.2466 8.78653 30.9694 8.74902C31.1541 10.4163 30.5071 12.0409 29.441 13.306Z" fill="#B3B3B3"/>
</svg>
