<svg width="50" height="50" viewBox="0 0 50 50" fill="none" xmlns="http://www.w3.org/2000/svg">
<path d="M19.457 36.5205L17.1035 43H16.1416L18.8516 35.8906H19.4717L19.457 36.5205ZM21.4297 43L19.0713 36.5205L19.0566 35.8906H19.6768L22.3965 43H21.4297ZM21.3076 40.3682V41.1396H17.3135V40.3682H21.3076Z" fill="black"/>
<path d="M24.1152 45.0312H23.207V37.7168H24.0371L24.1152 45.0312ZM27.6748 40.417C27.6748 41.938 26.9464 43.0977 25.624 43.0977C24.6182 43.0977 23.9736 42.5752 23.6514 41.6865C23.4723 41.1772 23.4365 40.6713 23.4365 40.1387C23.5942 38.5615 24.2967 37.6191 25.6094 37.6191C27.1078 37.6191 27.6748 39.1033 27.6748 40.417ZM26.7666 40.417C26.7666 39.5022 26.4204 38.3809 25.3457 38.3809C24.5159 38.3809 24.0258 39.0333 23.876 39.7822V41.0469C24.0811 41.7647 24.5448 42.3555 25.3555 42.3555C26.3951 42.3555 26.7666 41.2985 26.7666 40.417Z" fill="black"/>
<path d="M29.7305 45.0312H28.8223V37.7168H29.6523L29.7305 45.0312ZM33.29 40.417C33.29 41.938 32.5617 43.0977 31.2393 43.0977C30.2334 43.0977 29.5889 42.5752 29.2666 41.6865C29.0875 41.1772 29.0518 40.6713 29.0518 40.1387C29.2095 38.5615 29.9119 37.6191 31.2246 37.6191C32.7231 37.6191 33.29 39.1033 33.29 40.417ZM32.3818 40.417C32.3818 39.5022 32.0356 38.3809 30.9609 38.3809C30.5088 38.3809 30.1767 38.5464 29.9404 38.8154C29.7088 39.0728 29.5637 39.4199 29.4912 39.7822V41.0469C29.7002 41.7784 30.1737 42.3555 30.9707 42.3555C32.0104 42.3555 32.3818 41.2985 32.3818 40.417Z" fill="black"/>
<path d="M15.1976 6.88889C15.1976 5.2934 16.4515 4 17.9982 4H27.2205C27.5919 4 27.948 4.15218 28.2106 4.42307L34.392 10.7992C34.6546 11.07 34.8021 11.4374 34.8021 11.8205V27.1111C34.8021 28.7066 33.5482 30 32.0015 30H17.9982C16.4515 30 15.1976 28.7066 15.1976 27.1111V6.88889Z" fill="white"/>
<path fill-rule="evenodd" clip-rule="evenodd" d="M27.2205 4C27.5919 4 27.948 4.15218 28.2106 4.42307L34.392 10.7992C34.6546 11.07 34.8021 11.4374 34.8021 11.8205V27.1111C34.8021 28.7066 33.5482 30 32.0015 30H17.9982C16.4515 30 15.1976 28.7066 15.1976 27.1111V6.88889C15.1976 5.2934 16.4515 4 17.9982 4H27.2205ZM27.1003 9.05556C27.1003 10.651 28.3542 11.9444 29.901 11.9444H34.1019V27.1111C34.1019 28.3077 33.1615 29.2778 32.0015 29.2778H17.9982C16.8382 29.2778 15.8977 28.3077 15.8977 27.1111V6.88889C15.8977 5.69227 16.8382 4.72222 17.9982 4.72222H27.1003V9.05556ZM27.8005 9.05556C27.8005 10.2522 28.7409 11.2222 29.901 11.2222H33.8119L27.8005 5.02141V9.05556Z" fill="#AEB7CC"/>
<path d="M35.5157 25.9073C36.3323 25.9064 36.9991 25.2132 37 24.4027V16.8193C36.9991 16.0088 36.3323 15.3156 35.5157 15.3147H14.4843C13.6677 15.3156 13.0009 16.0088 13 16.8193V24.4027C13.0009 25.2132 13.6677 25.9064 14.4843 25.9073H35.5157ZM29.2437 17.6128L30.7226 21.9971L32.1536 17.6128H33.4046L31.312 23.5373H30.0524L27.9637 17.6128H29.2437ZM24.8581 20.9422C23.9563 20.7157 22.9784 20.2154 22.9886 19.1643C22.9884 18.0188 24.1222 17.4852 25.1215 17.5111C26.2236 17.5111 27.3645 18.0516 27.3616 19.3052L26.1818 19.3576C26.1292 18.7968 25.6564 18.4607 25.1096 18.5011C24.7452 18.48 24.1062 18.6117 24.117 19.083C24.1183 19.6555 24.9693 19.7412 25.3766 19.8386C26.4359 20.058 27.5593 20.5569 27.5287 21.8217C27.4979 23.0977 26.3216 23.6751 25.1891 23.6408C23.9359 23.6408 22.8614 22.9436 22.7775 21.6082L23.9256 21.4953C24.0008 22.1566 24.5199 22.6677 25.2011 22.6308C25.7069 22.6681 26.34 22.3859 26.3492 21.8145C26.3657 21.1364 25.3256 21.06 24.8581 20.9422ZM19.6672 17.5116C20.765 17.4645 21.7523 18.1753 22.0072 19.245L20.8392 19.5271C20.7301 18.9457 20.2019 18.5101 19.6075 18.5331C18.4918 18.4969 18.1485 19.6224 18.1485 20.5375C18.1485 21.4514 18.441 22.6483 19.5834 22.6144C20.2905 22.6285 20.7703 22.0084 20.8788 21.3579L22.0228 21.7255C21.7687 22.8735 20.7811 23.6848 19.5952 23.6362C17.9004 23.6894 16.9327 22.1699 16.9327 20.6259C16.9329 19.0232 17.8894 17.4395 19.6672 17.5116Z" fill="#A36BAE"/>
</svg>
