<svg width="50" height="50" viewBox="0 0 50 50" fill="none" xmlns="http://www.w3.org/2000/svg">
<path d="M32.3258 29.947C31.6035 30.6082 30.8297 30.9468 30.001 30.9661C28.4422 30.9661 27.1133 29.947 25.5417 29.947C23.9702 29.947 22.6526 30.9413 21.1101 30.9934C20.3154 31.0271 19.5234 30.6788 18.7328 29.947C15.7372 27.3461 14 22.9046 14 19.0228C14 16.2961 15.0925 13.5542 17.5146 12.1229C19.362 11.0313 21.268 11.0717 23.218 11.7958C24.9506 12.4432 25.6387 12.3288 27.3788 11.6931C28.5517 11.273 29.5416 11.099 30.3525 11.1675C32.5499 11.3441 34.2008 12.2064 35.2987 13.7599C33.3334 14.9453 32.3613 16.6055 32.3806 18.7354C32.4056 21.0756 33.8518 23.1556 36 24.0522C35.244 26.2349 34.0915 28.4204 32.3258 29.947ZM29.0708 9.15388C27.9229 10.4898 26.5345 11.2617 25.0289 11.1399C24.8422 9.6224 25.5213 8.08915 26.5139 6.97075C27.4767 5.87048 29.0019 5.07152 30.4718 4.99561C30.6413 6.51831 30.0467 8.00091 29.0708 9.15388Z" fill="#B3B3B3"/>
<path d="M21.4834 39.1084V41.7109C20.9365 42.5211 19.8861 42.7461 18.9688 42.7461C17.101 42.7461 16 41.1589 16 39.3672V38.8154C16 36.6808 17.0369 35.4414 18.8613 35.4414C20.2365 35.4414 21.2929 36.2539 21.4834 37.6191H20.541C20.4144 36.8496 19.9532 36.2129 18.8613 36.2129C17.547 36.2129 16.9473 37.2013 16.9473 38.8057V39.3672C16.9473 41.0084 17.7679 41.9795 18.9736 41.9795C19.9865 41.9795 20.3622 41.6746 20.5459 41.4619V39.8701H18.9004V39.1084H21.4834Z" fill="black"/>
<path d="M26.835 40.8516C26.835 40.188 26.5053 39.8707 25.1455 39.4746C23.7347 39.0566 22.8408 38.4806 22.8408 37.375C22.8408 36.2589 23.8115 35.4414 25.2578 35.4414C26.4936 35.4414 27.7627 36.2251 27.7627 37.5898H26.8252C26.8252 36.781 26.314 36.2129 25.2578 36.2129C24.2548 36.2129 23.7832 36.6974 23.7832 37.3652C23.7832 37.9662 24.2937 38.3336 25.4482 38.6543C27.0605 39.1094 27.7822 39.7294 27.7822 40.8418C27.7822 41.997 26.8136 42.7461 25.3018 42.7461C24.0307 42.7461 22.6162 41.9858 22.6162 40.5879H23.5537C23.5537 41.5631 24.4004 41.9795 25.3018 41.9795C26.2911 41.9795 26.835 41.5408 26.835 40.8516Z" fill="black"/>
<path d="M29.5938 35.5391L31.3027 38.2637L33.0117 35.5391H34.1104L31.8643 39.0596L34.1641 42.6484H33.0557L31.3027 39.8701L29.5498 42.6484H28.4414L30.7412 39.0596L28.4951 35.5391H29.5938Z" fill="black"/>
</svg>
