<svg width="50" height="50" viewBox="0 0 50 50" fill="none" xmlns="http://www.w3.org/2000/svg">
<path d="M19.0185 12.1569C20.298 10.8273 21.6689 9.60413 22.8047 8.16818C24.2017 6.42643 25.8598 5.77493 28.0141 6.06744C28.0141 6.06744 30.0116 6.10733 31.0039 6.12063V11.9974C30.9908 12.0639 30.9908 12.1303 30.9778 12.1968L18.9924 12.1569H19.0185Z" fill="#EFE13A"/>
<path d="M31.0037 23.9105C29.0584 25.865 27.1131 27.8195 25.1677 29.7607C24.998 29.9069 24.7761 30 24.5541 30C22.674 30 20.794 29.9734 18.9139 29.9468L19.0314 23.97L31.0037 23.9105Z" fill="#9BD8EE"/>
<path d="M30.9907 12.1968C31.0038 12.1303 31.0038 12.0639 31.0168 11.9974H36.9703C36.9834 13.8588 37.0095 15.7202 36.9964 17.5816C36.9964 17.8343 36.9051 18.0869 36.7353 18.273C34.8422 20.161 32.923 22.0358 31.0037 23.9105L31.0168 23.9105C31.0038 20.0015 31.0038 16.0925 30.9907 12.1968Z" fill="#FAAF44"/>
<path d="M13.0392 23.9105C13.0261 22.0757 13 20.2541 13 18.4193C13 18.2332 13.0392 17.9805 13.1567 17.8609C15.102 15.9463 17.0601 14.0449 19.0185 12.1569L19.0057 12.1569L19.0314 23.97L13.3133 23.9105H13.0392Z" fill="#0FB2D5"/>
<path d="M13.0392 23.9105L19.0314 23.97L18.9009 29.9468H13.0388L13.0392 23.9105Z" fill="#1680C3"/>
<path d="M36.9703 11.9974H31.0168L31.0169 6.12066H36.9703L36.9703 11.9974Z" fill="#F59322"/>
<path d="M19.0314 23.97C19.0314 23.9035 19.0314 24.0365 19.0314 23.97Z" fill="#46A8D5"/>
<path d="M20.1836 35.5V43H19.2754V35.5H20.1836Z" fill="black"/>
<path fill-rule="evenodd" clip-rule="evenodd" d="M36.2192 42.4294L36.2627 43H37.0928V35.5H36.1846V38.2494C35.8422 37.8398 35.3609 37.6191 34.7197 37.6191C33.2279 37.6191 32.6299 39.1458 32.6299 40.417C32.6299 41.6533 33.287 43.0977 34.71 43.0977C35.3793 43.0977 35.8752 42.8609 36.2192 42.4294ZM36.1846 39.1402V41.5564C35.9507 42.0072 35.5761 42.3311 34.9346 42.3311C33.8276 42.3311 33.5381 41.217 33.5381 40.3145C33.5381 39.4314 33.8933 38.3809 34.9443 38.3809C35.5765 38.3809 35.9572 38.7042 36.1846 39.1402Z" fill="black"/>
<path d="M30.5945 42.4773L30.6133 43H31.4775V37.7168H30.5693V41.5582C30.3652 42.0294 29.9384 42.3311 29.1924 42.3311C28.7057 42.3311 28.2207 42.083 28.2207 41.1348V37.7168H27.3174V41.125C27.3174 42.5402 28.0335 43.0977 29.0508 43.0977C29.7643 43.0977 30.2666 42.8672 30.5945 42.4773Z" fill="black"/>
<path fill-rule="evenodd" clip-rule="evenodd" d="M21.3945 40.417C21.3945 41.9381 22.312 43.0977 23.8018 43.0977C25.2685 43.0977 26.2041 41.8338 26.2041 40.417C26.2041 38.9999 25.3387 37.6191 23.792 37.6191C22.2214 37.6191 21.3945 38.9725 21.3945 40.417ZM22.2979 40.417C22.2979 39.4788 22.7098 38.3613 23.792 38.3613C24.9148 38.3613 25.2959 39.4719 25.2959 40.417C25.2959 41.3325 24.826 42.3555 23.8018 42.3555C22.7947 42.3555 22.2979 41.464 22.2979 40.417Z" fill="black"/>
<path d="M18.0547 40.7393H17.1172C16.9615 41.7317 16.5628 42.3311 15.3594 42.3311C14.0285 42.3311 13.5234 40.9588 13.5234 39.8018C13.5234 38.4645 13.6771 36.5645 15.4424 36.5645C16.4319 36.5645 16.9847 37.2057 17.1172 38.1709H18.0547C17.9039 36.7237 16.873 35.793 15.4424 35.793C13.1665 35.793 12.5859 37.9474 12.5859 39.8018C12.5859 41.474 13.5712 43.0977 15.3594 43.0977C16.8222 43.0977 17.898 42.1812 18.0547 40.7393Z" fill="black"/>
</svg>
