<svg width="50" height="50" viewBox="0 0 50 50" fill="none" xmlns="http://www.w3.org/2000/svg">
<path d="M18.0771 18.2372C19.558 16.6983 21.1446 15.2825 22.4592 13.6206C24.0761 11.6046 25.9952 10.8506 28.4885 11.1891C28.4885 11.1891 30.8004 11.2353 31.9488 11.2507V18.0525C31.9337 18.1294 31.9337 18.2064 31.9186 18.2833L18.0469 18.2372H18.0771Z" fill="#EFE13A"/>
<path d="M31.9487 31.8408C29.6972 34.103 27.4457 36.3651 25.1941 38.6119C24.9977 38.7811 24.7408 38.8889 24.4839 38.8889C22.308 38.8889 20.132 38.8581 17.9561 38.8273L18.0921 31.9097L31.9487 31.8408Z" fill="#9BD8EE"/>
<path d="M31.9336 18.2833C31.9487 18.2064 31.9487 18.1294 31.9638 18.0525H38.8544C38.8695 20.2069 38.8997 22.3613 38.8846 24.5158C38.8846 24.8081 38.7788 25.1005 38.5824 25.316C36.3913 27.5012 34.17 29.671 31.9487 31.8408L31.9638 31.8408C31.9487 27.3165 31.9487 22.7922 31.9336 18.2833Z" fill="#FAAF44"/>
<path d="M11.1567 31.8408C11.1416 29.7172 11.1113 27.6089 11.1113 25.4853C11.1113 25.2698 11.1567 24.9774 11.2927 24.8389C13.5442 22.623 15.8105 20.4224 18.0771 18.2372L18.0623 18.2372L18.0921 31.9097L11.474 31.8408H11.1567Z" fill="#0FB2D5"/>
<path d="M11.1567 31.8408L18.0921 31.9097L17.941 38.8273H11.1562L11.1567 31.8408Z" fill="#1680C3"/>
<path d="M38.8544 18.0525H31.9638L31.9639 11.2507H38.8544L38.8544 18.0525Z" fill="#F59322"/>
<path d="M18.0921 31.9097C18.0921 31.8327 18.0921 31.9866 18.0921 31.9097Z" fill="#46A8D5"/>
</svg>
