<svg width="50" height="50" viewBox="0 0 50 50" fill="none" xmlns="http://www.w3.org/2000/svg">
<path d="M24.7002 5.64795L37.3471 27.8018H11.9L24.7002 5.64795Z" fill="url(#paint0_linear_9176_22867)"/>
<path d="M22.0785 10.2633L32.135 27.8018H11.9L22.0785 10.2633Z" fill="url(#paint1_linear_9176_22867)"/>
<path d="M19.4567 14.7249L26.923 27.8018H11.9L19.4567 14.7249Z" fill="url(#paint2_linear_9176_22867)"/>
<path d="M43.709 44.6479V38.1864L42.4059 39.0782V37.6323L43.8263 36.6419H45V44.6479H43.709Z" fill="black"/>
<path fill-rule="evenodd" clip-rule="evenodd" d="M9.0998 38.4236L9.37055 37.7561L9.52391 36.5903H9.8832L13.1743 44.6479H11.5934L10.8032 42.6756H7.37497L6.57488 44.6479H5L8.36533 36.5903H8.71863L8.8324 37.7561L9.0998 38.4236ZM7.9225 41.3258L9.0998 38.4236L10.2625 41.3258H7.9225Z" fill="black"/>
<path d="M9.52391 36.5903H8.71863L8.8324 37.7561L9.0998 38.4236L9.37055 37.7561L9.52391 36.5903Z" fill="black"/>
<path fill-rule="evenodd" clip-rule="evenodd" d="M17.3183 36.5903H14.2344V44.6479L15.8857 44.6359V41.9629H17.3294L19.1097 44.6479H20.7146L18.7414 41.6591C19.8115 41.2531 20.4621 40.4421 20.4621 39.2225C20.4621 38.6496 20.3363 38.1688 20.0848 37.7802C19.5898 36.9949 18.6437 36.5903 17.3183 36.5903ZM15.8857 40.3763H15.2764V41.9629H15.8857V40.3763ZM15.8857 40.3763V37.9665L17.3183 37.9785C18.2452 37.9785 18.9651 38.2965 18.9651 39.2946C18.9651 39.575 18.9516 39.8787 18.7794 40.0518C18.3385 40.4941 17.7412 40.3763 17.3183 40.3763H15.8857Z" fill="black"/>
<path d="M15.2764 40.3763V41.9629H15.8857V40.3763H15.2764Z" fill="black"/>
<path fill-rule="evenodd" clip-rule="evenodd" d="M28.0337 44.571V43.2633H24.0104V41.3258H27.4289V39.9316H24.0104V37.9785H28.0038V36.5903H24.0104V37.9785H23.4049V36.5903H22.327V44.571H23.4049H24.0104H28.0337Z" fill="black"/>
<path d="M24.0104 36.5903H23.4049V37.9785H24.0104V36.5903Z" fill="black"/>
<path fill-rule="evenodd" clip-rule="evenodd" d="M32.8607 38.4236L33.1315 37.7561L33.2848 36.5903H33.6441L36.9352 44.6479H35.3543L34.5642 42.6756H31.1359L30.3358 44.6479H28.7609L32.1262 36.5903H32.4795L32.5933 37.7561L32.8607 38.4236ZM31.6834 41.3258L32.8607 38.4236L34.0234 41.3258H31.6834Z" fill="black"/>
<path d="M33.2848 36.5903H32.4795L32.5933 37.7561L32.8607 38.4236L33.1315 37.7561L33.2848 36.5903Z" fill="black"/>
<defs>
<linearGradient id="paint0_linear_9176_22867" x1="25" y1="5.64795" x2="25" y2="44.6479" gradientUnits="userSpaceOnUse">
<stop offset="0.306652" stop-color="#4FA3E7"/>
<stop offset="1" stop-color="#3E7DD3"/>
</linearGradient>
<linearGradient id="paint1_linear_9176_22867" x1="25" y1="5.64795" x2="25" y2="44.6479" gradientUnits="userSpaceOnUse">
<stop offset="0.306652" stop-color="#5BCADC"/>
<stop offset="1" stop-color="#5BCADC"/>
</linearGradient>
<linearGradient id="paint2_linear_9176_22867" x1="16.8072" y1="21.6271" x2="16.8072" y2="44.6479" gradientUnits="userSpaceOnUse">
<stop offset="0.306652" stop-color="#69E5C5"/>
<stop offset="1" stop-color="#69E5C5"/>
</linearGradient>
</defs>
</svg>
