<svg width="50" height="50" viewBox="0 0 50 50" fill="none" xmlns="http://www.w3.org/2000/svg">
<path d="M7.06249 23.0051C7.61686 17.2976 11.7323 12.2474 17.3121 11.0023C23.7779 9.55903 29.805 13.6288 31.9223 19.8495C31.9917 20.0533 31.9098 20.0648 31.7168 20.0648C30.6946 20.0684 29.6725 20.0588 28.6501 20.0736C28.4305 20.0768 28.331 19.9925 28.2282 19.7913C26.6949 16.815 24.3763 14.9856 21.2649 14.4399C17.2129 13.7311 13.1851 16.0254 11.3568 20.0316C8.59454 26.0844 11.8462 33.2235 17.9323 34.6216C22.0152 35.5595 26.1961 33.4215 28.2064 29.4259C28.3108 29.2453 28.3344 29.0775 28.5845 29.0793C29.7002 29.0878 30.816 29.0825 31.9318 29.0825C31.9862 29.2314 31.9141 29.3352 31.875 29.4386C30.0712 34.2094 26.8508 37.217 22.1666 38.2C13.3028 40.0606 6.22514 31.478 7.06249 23.0051Z" fill="#5966A5"/>
<path d="M39.4924 38.0184C39.4924 38.2071 39.5561 38.4973 39.2924 38.4956C38.3036 38.4892 37.314 38.4892 36.3236 38.4956C36.0672 38.4956 36.1193 38.246 36.1193 38.0583C36.1193 32.1658 36.1193 26.2733 36.1193 20.3809C36.1193 19.8927 36.0704 19.9442 36.5141 19.9432C37.4058 19.9413 38.2975 19.9413 39.1893 19.9432C39.4871 19.9432 39.4894 19.9456 39.4894 20.2711C39.4941 26.1868 39.4924 32.1026 39.4924 38.0184Z" fill="#5966A5"/>
<path d="M42.5616 10.4977C42.8452 10.4977 43.02 10.4611 42.9922 10.8154C42.8457 12.6734 42.0735 14.1555 40.6358 15.1887C37.4588 17.4724 33.1736 15.4711 32.5123 11.407C32.4346 10.934 32.2789 10.4956 32.8424 10.4956L42.5616 10.4977Z" fill="#5966A5"/>
</svg>
