<svg width="50" height="50" viewBox="0 0 50 50" fill="none" xmlns="http://www.w3.org/2000/svg">
<path d="M37.8926 37.4404C29.4837 37.4404 21.0554 37.6331 12.648 37.4756C9.06944 37.4083 6.40458 35.7331 4.96196 32.4729C3.53351 29.2472 4.03721 26.1609 6.39671 23.5225C8.60038 21.0572 11.4337 20.2709 14.6668 20.982C14.9753 21.0501 15.0894 21.0227 15.2177 20.6993C17.0278 16.1618 20.3483 13.3942 25.1987 12.6401C32.0175 11.586 38.4365 16.4414 39.3667 23.2476C39.4594 23.9091 39.3856 24.3325 40.1664 24.4223C43.3145 24.7982 45.7645 27.5956 45.8329 30.743C45.8983 33.8066 43.6914 36.7543 40.3639 37.3213C39.5407 37.4545 38.7159 37.3597 37.8926 37.4404Z" fill="#27569A"/>
<path d="M30.0838 16.2011C30.726 16.2277 31.4288 16.6208 31.8806 17.4071C32.3402 18.2067 32.3355 19.0313 31.8593 19.8184C31.7019 20.0823 31.724 20.2256 31.9152 20.4496C34.1834 23.0997 36.4427 25.7571 38.6931 28.4219C38.9087 28.678 39.0606 28.7398 39.3975 28.6075C40.5945 28.1376 41.9498 28.7524 42.4448 29.9451C42.9399 31.1177 42.3967 32.5079 41.2446 33.0439C40.0854 33.6062 38.6298 33.102 38.0682 31.9538C37.9108 31.6406 37.7534 31.6257 37.4685 31.6641C33.9665 32.1393 30.4664 32.6187 26.9585 33.0674C26.75 33.0941 26.6351 33.1457 26.5918 33.4089C26.3864 34.6462 25.3011 35.4716 24.0292 35.4012C22.8495 35.3354 21.8838 34.3753 21.8051 33.1661C21.7909 32.9476 21.7075 32.8779 21.521 32.8364C18.4453 32.1493 15.3701 31.4591 12.2955 30.7658C12.079 30.7165 11.9854 30.7658 11.8728 30.9561C11.259 31.9844 10.0894 32.4174 8.99548 32.0376C7.95582 31.6789 7.23333 30.6021 7.35139 29.5887C7.4962 28.3467 8.37452 27.4508 9.59598 27.349C9.93046 27.3185 10.2676 27.3612 10.5837 27.4742C10.8998 27.5872 11.1872 27.7676 11.4258 28.0029C11.5777 28.1454 11.6777 28.1548 11.8563 28.0491C13.5012 27.0817 15.1508 26.1218 16.8051 25.1695C17.005 25.0544 17.0302 24.9346 16.9822 24.7294C16.8613 24.2244 16.9091 23.6939 17.1184 23.2183C17.3278 22.7428 17.6872 22.3481 18.1423 22.0941C19.0788 21.5624 20.2019 21.6947 21.0047 22.4591C21.192 22.6369 21.3195 22.6455 21.5407 22.5264C23.4138 21.5125 25.2919 20.5073 27.175 19.5106C27.3914 19.3962 27.4536 19.2976 27.4111 19.0407C27.1451 17.5003 28.2713 16.1877 30.0838 16.2011Z" fill="#FEFEFE"/>
<path d="M29.7706 20.9954C30.1185 21.0245 30.4675 20.9547 30.7772 20.7941C30.9574 20.7009 31.0495 20.7487 31.1707 20.8897C33.5003 23.639 35.8351 26.3849 38.1752 29.1275C38.3098 29.2841 38.3279 29.3867 38.1957 29.5504C38.0228 29.749 37.9132 29.9944 37.8809 30.2552C37.851 30.6507 37.6715 30.7744 37.2851 30.8237C33.7819 31.2663 30.2729 31.7038 26.7791 32.2169C26.5839 32.2459 26.5021 32.2036 26.4281 32.0235C26.2762 31.6445 26.0163 31.3179 25.6804 31.0837C25.523 30.9718 25.5002 30.8762 25.5702 30.6969C26.8017 27.532 28.0263 24.3642 29.2441 21.1935C29.3605 20.8678 29.5966 21.0518 29.7706 20.9954Z" fill="#27569A"/>
<path d="M24.1363 30.5912C24.1551 30.5912 24.1134 30.5865 24.078 30.599C23.5334 30.7979 23.2989 30.516 23.0628 30.0594C22.4292 28.833 21.7453 27.6317 21.0653 26.4311C20.9268 26.1876 20.8969 26.0396 21.1196 25.8085C21.68 25.2259 21.8665 24.5015 21.7044 23.7152C21.6563 23.4803 21.7248 23.402 21.9066 23.3041C23.8207 22.2865 25.7318 21.2643 27.6401 20.2373C27.7849 20.159 27.9313 20.069 28.0336 20.2687C28.1493 20.4911 28.5932 20.4825 28.4271 20.914C27.1952 24.0627 25.9755 27.2164 24.7682 30.375C24.6329 30.7227 24.4023 30.5739 24.1363 30.5912Z" fill="#27569A"/>
<path d="M17.6701 25.9417C18.2997 26.4899 19.0175 26.7327 19.8478 26.5416C20.0516 26.4946 20.1476 26.5486 20.2452 26.7272C21.0071 28.1219 21.7799 29.5104 22.5496 30.9013C22.5748 30.9475 22.6283 31.0007 22.6205 31.0375C22.5252 31.4056 22.1482 31.5936 22.0223 31.9491C21.7803 32.6279 14.1685 30.2282 12.5221 29.9318C12.286 29.8887 12.2498 29.7822 12.1751 29.5692C11.9767 29.0037 12.2577 28.7915 12.6992 28.5448C14.204 27.703 15.6852 26.8219 17.1758 25.9511C17.4085 25.8207 17.4657 25.7609 17.6701 25.9417Z" fill="#27569A"/>
</svg>
