<svg width="50" height="50" viewBox="0 0 50 50" fill="none" xmlns="http://www.w3.org/2000/svg">
<path d="M30.2925 20.039C30.3221 20.5699 30.2995 21.1095 30.2308 21.6532C30.2708 21.1344 30.2918 20.5968 30.2925 20.039Z" fill="#A183F9"/>
<path d="M24.9984 11.0681C27.9407 12.9766 29.9411 16.0784 30.2658 19.6568L30.2917 20.0049C26.4787 18.5364 23.4379 18.3854 19.6858 20.1265C19.6654 20.5062 19.6598 20.8763 19.6658 21.2367C19.6514 20.8633 19.6585 20.4925 19.6858 20.1265C19.9723 16.2803 21.9943 13.0572 24.9984 11.0681Z" fill="#A183F9"/>
<path d="M19.6846 20.1273C19.4096 25.2487 21.5774 28.5844 25.0046 31.0739C25.0062 31.0728 25.0072 31.0709 25.0088 31.0698L25.0063 31.0739C21.4232 33.4818 16.8297 33.7837 12.9915 31.9951C12.6863 28.5573 13.8618 25.0271 16.5104 22.3986C17.4654 21.4511 18.5391 20.6938 19.6846 20.1273Z" fill="#F084B8"/>
<path d="M30.2934 20.0049C31.5331 20.5825 32.738 21.4082 33.7631 22.4253C36.3928 25.0247 37.5246 28.4764 37.2586 31.8752C33.3685 33.7913 28.6634 33.5325 25.0068 31.0748L25.0043 31.0731C28.72 28.4698 30.2925 25.058 30.2926 20.0057C30.2888 20.0042 30.2848 20.0022 30.2809 20.0007C30.2851 20.0019 30.2892 20.0037 30.2934 20.0049Z" fill="#6CDC92"/>
<path d="M25.0046 31.0739C28.7209 28.4705 30.2917 25.0577 30.2917 20.0049C26.4787 18.5364 23.4379 18.3854 19.6858 20.1265C19.4107 25.2482 21.5773 28.5843 25.0046 31.0739Z" fill="#35198E"/>
<path d="M9.77286 12.7366C13.8387 8.70352 20.1274 8.20559 24.7423 11.2425C21.8799 13.2428 19.9641 16.3907 19.6858 20.1265C19.6848 20.1395 19.6844 20.1529 19.6835 20.166C19.6842 20.1532 19.6839 20.1401 19.6846 20.1273C18.5391 20.6938 17.4654 21.4511 16.5104 22.3986C13.9481 24.9415 12.7651 28.3283 12.9671 31.6589C11.8131 31.1011 10.7309 30.348 9.77286 29.3977C5.1341 24.7992 5.13412 17.3366 9.77286 12.7366Z" fill="#FFCCC5"/>
<path d="M9.5648 12.5313C13.7975 8.33498 20.3921 7.87863 25.1377 11.162C25.0913 11.131 25.0453 11.0985 24.9984 11.0681C24.8245 11.1831 24.6538 11.3028 24.4867 11.4261C19.9946 8.53507 13.9113 9.04093 9.97628 12.9436C7.78846 15.1137 6.58264 17.9989 6.58259 21.0684C6.58259 24.138 7.78842 27.0239 9.97628 29.194C10.8712 30.0812 11.8778 30.7917 12.951 31.3278C12.9583 31.5499 12.9714 31.7718 12.991 31.9933C11.7504 31.416 10.5883 30.6206 9.5648 29.6054C7.26647 27.3251 6 24.2946 6 21.0684C6.00005 17.8422 7.26651 14.8117 9.5648 12.5313Z" fill="#EEB3AB"/>
<path d="M25.0068 31.0748C28.5679 33.4683 33.1227 33.7747 36.9514 32.0193C36.7059 34.6626 35.5638 37.2395 33.5235 39.2628C28.8847 43.8643 21.3525 43.8643 16.7136 39.2628C14.7021 37.2681 13.5635 34.7351 13.2965 32.1309C17.0711 33.7652 21.5175 33.4182 25.0063 31.0739L25.0068 31.0748Z" fill="#FFEFB8"/>
<path d="M12.9668 31.6636C12.9736 31.7742 12.9817 31.8847 12.9915 31.9951C13.1932 32.0891 13.398 32.1758 13.6037 32.2583C13.8992 34.8261 15.0509 37.2033 16.9206 39.058C19.1811 41.299 22.151 42.4203 25.1194 42.4203C28.0892 42.4203 31.0576 41.299 33.3181 39.058C35.2131 37.1783 36.3699 34.7618 36.6459 32.1542C36.8509 32.0669 37.0543 31.9749 37.2552 31.876C37.033 34.7452 35.8006 37.4129 33.7279 39.4694C31.3542 41.8235 28.2364 42.9998 25.1185 43C22.0006 42.9998 18.8829 41.8235 16.5091 39.4694C14.3852 37.3621 13.1433 34.6145 12.9668 31.6636Z" fill="#E0D19B"/>
<path d="M12.9451 31.0015C12.945 30.9785 12.9443 30.9554 12.9443 30.9323C12.9443 30.8815 12.9453 30.8307 12.946 30.7799C12.945 30.8538 12.9447 30.9276 12.9451 31.0015Z" fill="#E0D19B"/>
<path d="M12.9743 30.0753C13.1782 27.1733 14.4156 24.4725 16.5091 22.3953C17.4635 21.4487 18.5383 20.6925 19.6849 20.1265C18.5396 20.693 17.4654 21.4512 16.5104 22.3986C14.354 24.5386 13.1737 27.2764 12.9743 30.0753Z" fill="#E0D19B"/>
<path d="M30.29 20.0016C31.3685 20.5021 32.3875 21.1677 33.3081 21.9988C32.389 21.1766 31.3544 20.4993 30.2934 20.0049C30.2926 20.0047 30.2917 20.0043 30.2909 20.0041L30.29 20.0016Z" fill="#E0D19B"/>
<path d="M30.2926 20.0057C30.2926 20.0168 30.2926 20.028 30.2925 20.039C30.2923 20.2422 30.2881 20.4426 30.2825 20.6404C30.2882 20.4315 30.2909 20.2189 30.2909 20.0041L30.2926 20.0057Z" fill="#E0D19B"/>
<path d="M25.2604 11.2432C29.8754 8.20555 36.1645 8.70318 40.2307 12.7365C44.8695 17.3365 44.8695 24.7977 40.2307 29.3975C39.3401 30.281 38.3423 30.9938 37.2794 31.5381C37.4471 28.2492 36.3058 24.9388 33.7631 22.4253C32.738 21.4082 31.5331 20.5825 30.2934 20.0049C30.2926 20.0047 30.2917 20.0043 30.2909 20.0041L30.2658 19.6568C29.9508 16.1857 28.0591 13.1633 25.2604 11.2432Z" fill="#C2E9FF"/>
<path d="M30.2308 21.6532C30.1698 22.4439 30.0636 23.1911 29.9069 23.898C30.0792 23.1198 30.1907 22.293 30.2475 21.4127L30.2308 21.6532Z" fill="#C2E9FF"/>
<path d="M30.2575 21.2603L30.2525 21.3294C30.2596 21.211 30.2657 21.0916 30.2708 20.9713C30.2666 21.0682 30.263 21.1646 30.2575 21.2603Z" fill="#C2E9FF"/>
<path d="M30.2926 20.0057C30.2926 20.0168 30.2926 20.028 30.2925 20.039C30.2921 20.3354 30.285 20.6261 30.2733 20.9113C30.2851 20.6152 30.2909 20.3122 30.2909 20.0041L30.2926 20.0057Z" fill="#C2E9FF"/>
<path d="M25 11.0695C29.735 7.88779 36.2441 8.37464 40.4352 12.5312C42.7335 14.8102 44 17.8421 44 21.0683C44 24.2945 42.7335 27.3251 40.4352 29.6054C39.4807 30.552 38.4054 31.3074 37.2585 31.8733C37.2759 31.6505 37.2866 31.4275 37.2919 31.2045C38.2753 30.6841 39.1991 30.0142 40.0271 29.1931C42.2148 27.023 43.4199 24.1378 43.4199 21.0683C43.4199 17.9987 42.2149 15.1128 40.0271 12.9427C37.7666 10.7001 34.7966 9.58041 31.8283 9.58033H31.8266C29.6271 9.58033 27.4284 10.1957 25.5175 11.4252C25.3484 11.3026 25.176 11.1837 25 11.0695Z" fill="#A7D1EA"/>
</svg>
