<svg width="50" height="50" viewBox="0 0 50 50" fill="none" xmlns="http://www.w3.org/2000/svg">
<path d="M25.0146 23.1112C21.6698 23.1112 18.9199 20.3609 18.9199 16.9997C18.9199 13.6385 21.6681 10.8888 25.0146 10.8888C28.3611 10.8888 31.1093 13.6385 31.1093 16.9997C31.1093 20.3609 28.3611 23.1112 25.0146 23.1112ZM24.9997 6C18.905 6 14 10.9653 14 16.9997C14 23.1112 18.9056 28 24.9997 28C27.5269 28 29.8308 27.1597 31.6893 25.7051C32.8041 27.6152 36 28 36 28V16.9997C36 10.9653 31.0944 6 24.9997 6Z" fill="#F5831F"/>
<path d="M15.3496 36.9653H16.1934C16.0617 38.1768 15.3093 39.0879 13.7676 39.0879C12.1583 39.0879 11.2715 37.6266 11.2715 36.1216V35.4844C11.2715 33.6734 12.2684 32.5137 13.8423 32.5137C15.2911 32.5137 16.0613 33.3858 16.1934 34.6538H15.3496C15.2304 33.7852 14.7329 33.208 13.8423 33.208C12.7187 33.208 12.1152 34.1077 12.1152 35.4756V36.1216C12.1152 37.1629 12.5698 38.3979 13.7676 38.3979C14.8506 38.3979 15.2095 37.8585 15.3496 36.9653Z" fill="#1C1D1F"/>
<path d="M19.1992 39.0879C17.885 39.0879 17.0151 38.1321 17.0151 36.7896V36.605C17.0151 35.0482 18.0296 34.1572 19.0938 34.1572C20.6176 34.1572 21.0493 35.5894 21.0493 36.8511H17.4985V36.1875H20.2363C20.2363 35.5121 19.8339 34.8252 19.0938 34.8252C18.0454 34.8252 17.8325 35.9664 17.8325 36.7896C17.8325 37.4643 18.1287 38.0428 18.6455 38.2969C19.3003 38.6134 20.0716 38.3353 20.4956 37.7783L20.9878 38.1694C20.6813 38.6335 20.1467 39.0879 19.1992 39.0879Z" fill="#1C1D1F"/>
<path d="M22.8115 39H21.9985V34.2451H22.7676L22.8115 39ZM22.6182 36.4424L22.2798 36.4292C22.2827 36.104 22.3311 35.8037 22.4248 35.5283C22.7075 34.6892 23.3606 34.1572 24.2134 34.1572C24.681 34.1572 25.0609 34.2767 25.3252 34.5527C25.5931 34.8265 25.7383 35.2535 25.7383 35.8843V39H24.9209V35.8755C24.9209 35.1184 24.5804 34.8428 23.9717 34.8428C23.3728 34.8428 22.9192 35.2494 22.7148 35.8359C22.6504 36.0264 22.6182 36.2285 22.6182 36.4424Z" fill="#1C1D1F"/>
<path d="M28.9639 34.2451V34.8691H26.3931V34.2451H28.9639ZM27.2632 33.0894H28.0762V37.8223C28.0762 38.3669 28.5544 38.435 28.9814 38.3364L28.9858 39C28.4416 39.1732 27.7217 39.1546 27.4082 38.5737C27.3115 38.3862 27.2632 38.1343 27.2632 37.8179V33.0894Z" fill="#1C1D1F"/>
<path d="M30.7305 39H29.9175V34.2451H30.7085L30.7305 39ZM32.2158 34.2188L32.2114 34.9746C31.923 34.9119 31.5936 34.9154 31.3193 35.0273C30.8921 35.2017 30.661 35.5989 30.6074 36.126L30.3789 36.2578C30.3789 35.9707 30.4067 35.7012 30.4624 35.4492C30.5802 34.9426 30.8204 34.5398 31.1875 34.3242C31.4555 34.1651 31.9181 34.0699 32.2158 34.2188Z" fill="#1C1D1F"/>
<path d="M35.5952 35.7393C35.5952 35.1739 35.2508 34.812 34.5933 34.812C33.9869 34.812 33.5649 35.1626 33.5649 35.5635H32.752C32.752 34.621 33.8448 34.1572 34.6416 34.1572C35.684 34.1572 36.4082 34.6856 36.4082 35.748V37.9629C36.4082 38.1211 36.4214 38.2896 36.4478 38.4683C36.4768 38.6453 36.5752 38.8239 36.5752 39H35.7271C35.686 38.9062 35.6538 38.7817 35.6304 38.6265C35.491 37.6859 35.5952 36.6868 35.5952 35.7393ZM35.7358 36.1172L35.7446 36.6885C35.0398 36.6885 33.4683 36.4782 33.4683 37.5674C33.4683 38.3791 34.4533 38.5411 35.0371 38.2178C35.4197 38.0059 35.6568 37.673 35.6743 37.3872L36.0215 37.7783C35.9805 38.0244 35.7944 38.3423 35.4897 38.6177C35.1935 38.8849 34.7794 39.0879 34.2593 39.0879C33.4454 39.0879 32.6509 38.5622 32.6509 37.6772C32.6509 36.0814 34.571 36.1172 35.7358 36.1172Z" fill="#1C1D1F"/>
<path d="M38.5703 32.25V39H37.7529V32.25H38.5703Z" fill="#1C1D1F"/>
</svg>
