<svg width="50" height="50" viewBox="0 0 50 50" fill="none" xmlns="http://www.w3.org/2000/svg">
<path d="M25.0199 33.3335C20.4588 33.3335 16.7089 29.583 16.7089 24.9996C16.7089 20.4162 20.4565 16.6665 25.0199 16.6665C29.5833 16.6665 33.3309 20.4162 33.3309 24.9996C33.3309 29.583 29.5833 33.3335 25.0199 33.3335ZM24.9996 10C16.6886 10 10 16.7708 10 24.9996C10 33.3335 16.6894 40 24.9996 40C28.4458 40 31.5875 38.8541 34.1218 36.8706C35.6419 39.4752 40 40 40 40V24.9996C40 16.7708 33.3106 10 24.9996 10Z" fill="#F5831F"/>
</svg>
