<svg width="50" height="50" viewBox="0 0 50 50" fill="none" xmlns="http://www.w3.org/2000/svg">
<path d="M25.0146 23.1112C21.6698 23.1112 18.9199 20.3609 18.9199 16.9997C18.9199 13.6385 21.6681 10.8888 25.0146 10.8888C28.3611 10.8888 31.1093 13.6385 31.1093 16.9997C31.1093 20.3609 28.3611 23.1112 25.0146 23.1112ZM24.9997 6C18.905 6 14 10.9653 14 16.9997C14 23.1112 18.9056 28 24.9997 28C27.5269 28 29.8308 27.1597 31.6893 25.7051C32.8041 27.6152 36 28 36 28V16.9997C36 10.9653 31.0944 6 24.9997 6Z" fill="#F5831F"/>
<path fill-rule="evenodd" clip-rule="evenodd" d="M24.0254 32.5H23.1172V40H23.9473L23.9938 39.3893C24.3415 39.848 24.853 40.0977 25.5391 40.0977C27.0085 40.0977 27.5947 38.5995 27.5947 37.3145C27.5947 35.692 26.8537 34.6191 25.5293 34.6191C24.87 34.6191 24.3711 34.8519 24.0254 35.2916V32.5ZM24.0254 38.4963V36.2016C24.2594 35.722 24.6592 35.3809 25.3047 35.3809C26.317 35.3809 26.6865 36.2397 26.6865 37.3145C26.6865 38.2167 26.3828 39.3311 25.3145 39.3311C24.7373 39.3311 24.2736 39.0049 24.0254 38.4963Z" fill="black"/>
<path d="M32.1504 40V32.5H31.2422V40H32.1504Z" fill="black"/>
<path d="M34.582 34.7168V40H33.6738V34.7168H34.582Z" fill="black"/>
<path d="M33.6055 33.3154C33.6055 33.0201 33.7889 32.793 34.1377 32.793C34.4855 32.793 34.6748 33.0248 34.6748 33.3154C34.6748 33.5907 34.4887 33.8232 34.1377 33.8232C33.7858 33.8232 33.6055 33.5951 33.6055 33.3154Z" fill="black"/>
<path d="M38.2441 35.4102V34.7168H37.2578V33.4326H36.3545V34.7168H35.3877V35.4102H36.3545V38.6865C36.3545 39.7769 37.1969 40.341 38.2686 40L38.2637 39.2627C37.7411 39.3833 37.2578 39.2927 37.2578 38.6914V35.4102H38.2441Z" fill="black"/>
<path d="M40.6085 39.943L38.7227 34.7168H39.709L41.0313 38.6695L42.2578 34.7168H43.2246L41.1055 40.8154C40.7784 41.6877 39.9821 42.3276 39.0303 42.0557L39.0254 41.3232C39.7149 41.4094 40.1997 41.1254 40.4121 40.4785L40.6085 39.943Z" fill="black"/>
<path d="M29.7188 34.7168V40H28.8105V34.7168H29.7188Z" fill="black"/>
<path d="M28.7422 33.3154C28.7422 33.0201 28.9256 32.793 29.2744 32.793C29.6223 32.793 29.8115 33.0248 29.8115 33.3154C29.8115 33.5907 29.6254 33.8232 29.2744 33.8232C28.9225 33.8232 28.7422 33.5951 28.7422 33.3154Z" fill="black"/>
<path fill-rule="evenodd" clip-rule="evenodd" d="M17.1797 37.3047C17.1797 35.9126 18.0747 34.6191 19.5771 34.6191C21.063 34.6191 21.9893 35.7721 21.9893 37.3047C21.9893 38.7537 21.1696 40.0977 19.5869 40.0977C18.0614 40.0977 17.1797 38.7515 17.1797 37.3047ZM18.083 37.3047C18.083 38.2552 18.4982 39.3555 19.5869 39.3555C20.706 39.3555 21.0811 38.2448 21.0811 37.3047C21.0811 36.3892 20.6008 35.3613 19.5771 35.3613C18.5306 35.3613 18.083 36.3995 18.083 37.3047Z" fill="black"/>
<path d="M10.0361 32.8906H8.8252V40H9.7627L9.67205 34.2455L12.0039 40H12.7168L15.0533 34.2535L14.9629 40H15.9004V32.8906H14.6895L12.3652 38.6865L10.0361 32.8906Z" fill="black"/>
</svg>
