<svg width="50" height="50" viewBox="0 0 50 50" fill="none" xmlns="http://www.w3.org/2000/svg">
<rect width="50" height="50" fill="#F5831F"/>
<path d="M25.0146 25.1112C21.6698 25.1112 18.9199 22.3609 18.9199 18.9997C18.9199 15.6385 21.6681 12.8888 25.0146 12.8888C28.3611 12.8888 31.1093 15.6385 31.1093 18.9997C31.1093 22.3609 28.3611 25.1112 25.0146 25.1112ZM24.9997 8C18.905 8 14 12.9653 14 18.9997C14 25.1112 18.9056 30 24.9997 30C27.5269 30 29.8308 29.1597 31.6893 27.7051C32.8041 29.6152 36 30 36 30V18.9997C36 12.9653 31.0944 8 24.9997 8Z" fill="white"/>
<path fill-rule="evenodd" clip-rule="evenodd" d="M24.0254 34.5H23.1172V42H23.9473L23.9938 41.3893C24.3415 41.848 24.853 42.0977 25.5391 42.0977C27.0085 42.0977 27.5947 40.5995 27.5947 39.3145C27.5947 37.692 26.8537 36.6191 25.5293 36.6191C24.87 36.6191 24.3711 36.8519 24.0254 37.2916V34.5ZM24.0254 40.4963V38.2016C24.2594 37.722 24.6592 37.3809 25.3047 37.3809C26.317 37.3809 26.6865 38.2397 26.6865 39.3145C26.6865 40.2167 26.3828 41.3311 25.3145 41.3311C24.7373 41.3311 24.2736 41.0049 24.0254 40.4963Z" fill="white"/>
<path d="M32.1504 42V34.5H31.2422V42H32.1504Z" fill="white"/>
<path d="M34.582 36.7168V42H33.6738V36.7168H34.582Z" fill="white"/>
<path d="M33.6055 35.3154C33.6055 35.0201 33.7889 34.793 34.1377 34.793C34.4855 34.793 34.6748 35.0248 34.6748 35.3154C34.6748 35.5907 34.4887 35.8232 34.1377 35.8232C33.7858 35.8232 33.6055 35.5951 33.6055 35.3154Z" fill="white"/>
<path d="M38.2441 37.4102V36.7168H37.2578V35.4326H36.3545V36.7168H35.3877V37.4102H36.3545V40.6865C36.3545 41.7769 37.1969 42.341 38.2686 42L38.2637 41.2627C37.7411 41.3833 37.2578 41.2927 37.2578 40.6914V37.4102H38.2441Z" fill="white"/>
<path d="M40.6085 41.943L38.7227 36.7168H39.709L41.0313 40.6695L42.2578 36.7168H43.2246L41.1055 42.8154C40.7784 43.6877 39.9821 44.3276 39.0303 44.0557L39.0254 43.3232C39.7149 43.4094 40.1997 43.1254 40.4121 42.4785L40.6085 41.943Z" fill="white"/>
<path d="M29.7188 36.7168V42H28.8105V36.7168H29.7188Z" fill="white"/>
<path d="M28.7422 35.3154C28.7422 35.0201 28.9256 34.793 29.2744 34.793C29.6223 34.793 29.8115 35.0248 29.8115 35.3154C29.8115 35.5907 29.6254 35.8232 29.2744 35.8232C28.9225 35.8232 28.7422 35.5951 28.7422 35.3154Z" fill="white"/>
<path fill-rule="evenodd" clip-rule="evenodd" d="M17.1797 39.3047C17.1797 37.9126 18.0747 36.6191 19.5771 36.6191C21.063 36.6191 21.9893 37.7721 21.9893 39.3047C21.9893 40.7537 21.1696 42.0977 19.5869 42.0977C18.0614 42.0977 17.1797 40.7515 17.1797 39.3047ZM18.083 39.3047C18.083 40.2552 18.4982 41.3555 19.5869 41.3555C20.706 41.3555 21.0811 40.2448 21.0811 39.3047C21.0811 38.3892 20.6008 37.3613 19.5771 37.3613C18.5306 37.3613 18.083 38.3995 18.083 39.3047Z" fill="white"/>
<path d="M10.0361 34.8906H8.8252V42H9.7627L9.67205 36.2455L12.0039 42H12.7168L15.0533 36.2535L14.9629 42H15.9004V34.8906H14.6895L12.3652 40.6865L10.0361 34.8906Z" fill="white"/>
</svg>
