<svg width="50" height="50" viewBox="0 0 50 50" fill="none" xmlns="http://www.w3.org/2000/svg">
<rect width="50" height="50" fill="#F5831F"/>
<path d="M25.0146 25.1112C21.6698 25.1112 18.9199 22.3609 18.9199 18.9997C18.9199 15.6385 21.6681 12.8888 25.0146 12.8888C28.3611 12.8888 31.1093 15.6385 31.1093 18.9997C31.1093 22.3609 28.3611 25.1112 25.0146 25.1112ZM24.9997 8C18.905 8 14 12.9653 14 18.9997C14 25.1112 18.9056 30 24.9997 30C27.5269 30 29.8308 29.1597 31.6893 27.7051C32.8041 29.6152 36 30 36 30V18.9997C36 12.9653 31.0944 8 24.9997 8Z" fill="white"/>
<path d="M15.3496 38.9653H16.1934C16.0617 40.1768 15.3093 41.0879 13.7676 41.0879C12.1583 41.0879 11.2715 39.6266 11.2715 38.1216V37.4844C11.2715 35.6734 12.2684 34.5137 13.8423 34.5137C15.2911 34.5137 16.0613 35.3858 16.1934 36.6538H15.3496C15.2304 35.7852 14.7329 35.208 13.8423 35.208C12.7187 35.208 12.1152 36.1077 12.1152 37.4756V38.1216C12.1152 39.1629 12.5698 40.3979 13.7676 40.3979C14.8506 40.3979 15.2095 39.8585 15.3496 38.9653Z" fill="white"/>
<path d="M19.1992 41.0879C17.885 41.0879 17.0151 40.1321 17.0151 38.7896V38.605C17.0151 37.0482 18.0296 36.1572 19.0938 36.1572C20.6176 36.1572 21.0493 37.5894 21.0493 38.8511H17.4985V38.1875H20.2363C20.2363 37.5121 19.8339 36.8252 19.0938 36.8252C18.0454 36.8252 17.8325 37.9664 17.8325 38.7896C17.8325 39.4643 18.1287 40.0428 18.6455 40.2969C19.3003 40.6134 20.0716 40.3353 20.4956 39.7783L20.9878 40.1694C20.6813 40.6335 20.1467 41.0879 19.1992 41.0879Z" fill="white"/>
<path d="M22.8115 41H21.9985V36.2451H22.7676L22.8115 41ZM22.6182 38.4424L22.2798 38.4292C22.2827 38.104 22.3311 37.8037 22.4248 37.5283C22.7075 36.6892 23.3606 36.1572 24.2134 36.1572C24.681 36.1572 25.0609 36.2767 25.3252 36.5527C25.5931 36.8265 25.7383 37.2535 25.7383 37.8843V41H24.9209V37.8755C24.9209 37.1184 24.5804 36.8428 23.9717 36.8428C23.3728 36.8428 22.9192 37.2494 22.7148 37.8359C22.6504 38.0264 22.6182 38.2285 22.6182 38.4424Z" fill="white"/>
<path d="M28.9639 36.2451V36.8691H26.3931V36.2451H28.9639ZM27.2632 35.0894H28.0762V39.8223C28.0762 40.3669 28.5544 40.435 28.9814 40.3364L28.9858 41C28.4416 41.1732 27.7217 41.1546 27.4082 40.5737C27.3115 40.3862 27.2632 40.1343 27.2632 39.8179V35.0894Z" fill="white"/>
<path d="M30.7305 41H29.9175V36.2451H30.7085L30.7305 41ZM32.2158 36.2188L32.2114 36.9746C31.923 36.9119 31.5936 36.9154 31.3193 37.0273C30.8921 37.2017 30.661 37.5989 30.6074 38.126L30.3789 38.2578C30.3789 37.9707 30.4067 37.7012 30.4624 37.4492C30.5802 36.9426 30.8204 36.5398 31.1875 36.3242C31.4555 36.1651 31.9181 36.0699 32.2158 36.2188Z" fill="white"/>
<path d="M35.5952 37.7393C35.5952 37.1739 35.2508 36.812 34.5933 36.812C33.9869 36.812 33.5649 37.1626 33.5649 37.5635H32.752C32.752 36.621 33.8448 36.1572 34.6416 36.1572C35.684 36.1572 36.4082 36.6856 36.4082 37.748V39.9629C36.4082 40.1211 36.4214 40.2896 36.4478 40.4683C36.4768 40.6453 36.5752 40.8239 36.5752 41H35.7271C35.686 40.9062 35.6538 40.7817 35.6304 40.6265C35.491 39.6859 35.5952 38.6868 35.5952 37.7393ZM35.7358 38.1172L35.7446 38.6885C35.0398 38.6885 33.4683 38.4782 33.4683 39.5674C33.4683 40.3791 34.4533 40.5411 35.0371 40.2178C35.4197 40.0059 35.6568 39.673 35.6743 39.3872L36.0215 39.7783C35.9805 40.0244 35.7944 40.3423 35.4897 40.6177C35.1935 40.8849 34.7794 41.0879 34.2593 41.0879C33.4454 41.0879 32.6509 40.5622 32.6509 39.6772C32.6509 38.0814 34.571 38.1172 35.7358 38.1172Z" fill="white"/>
<path d="M38.5703 34.25V41H37.7529V34.25H38.5703Z" fill="white"/>
</svg>
