<svg width="50" height="50" viewBox="0 0 50 50" fill="none" xmlns="http://www.w3.org/2000/svg">
<path d="M33.8637 25.8484C30.0951 25.8484 27.0406 28.9029 27.0406 32.6709C27.0406 36.4392 30.0951 39.4943 33.8637 39.4943C37.6317 39.4943 40.6862 36.4392 40.6862 32.6709C40.6862 28.9029 37.6317 25.8484 33.8637 25.8484ZM16.1373 25.8487C12.3693 25.8491 9.31445 28.9029 9.31445 32.6712C9.31445 36.4392 12.3693 39.494 16.1373 39.494C19.9056 39.494 22.9604 36.4392 22.9604 32.6712C22.9604 28.9029 19.9059 25.8487 16.1373 25.8487ZM31.8231 17.3199C31.8231 21.0879 28.7687 24.1433 25.0007 24.1433C21.232 24.1433 18.1775 21.0879 18.1775 17.3199C18.1775 13.5519 21.232 10.4971 25.0006 10.4971C28.7686 10.4971 31.8231 13.5519 31.8231 17.3199Z" fill="url(#paint0_radial_9176_22772)"/>
<defs>
<radialGradient id="paint0_radial_9176_22772" cx="0" cy="0" r="1" gradientUnits="userSpaceOnUse" gradientTransform="translate(25.0046 26.3628) scale(20.7995 19.2252)">
<stop stop-color="#FFBC0B"/>
<stop offset="0.6" stop-color="#FF5C91"/>
<stop offset="0.999" stop-color="#F95353"/>
</radialGradient>
</defs>
</svg>
