<svg width="50" height="50" viewBox="0 0 50 50" fill="none" xmlns="http://www.w3.org/2000/svg">
<rect width="50" height="50" fill="#25493E"/>
<path d="M21.3375 10.0563C21.7939 9.58576 21.7939 8.82347 21.3375 8.35292C20.8812 7.88236 20.1418 7.88236 19.6855 8.35292C19.2291 8.82347 19.2291 9.58576 19.6855 10.0563C20.1418 10.5269 20.8812 10.5269 21.3375 10.0563Z" fill="white"/>
<path d="M24.8203 12.1932C24.4176 11.778 23.7951 11.778 23.3924 12.1932C23.008 12.5895 23.0264 13.2503 23.4107 13.6473L31.6329 22.1249C32.0357 22.5402 32.6581 22.5402 33.0616 22.1249C33.4643 21.7097 33.446 21.0868 33.0432 20.6709L24.8203 12.1932Z" fill="white"/>
<path d="M31.9009 24.987C31.9009 24.3997 31.4606 23.9723 30.8911 23.9723H19.2633C18.6937 23.9723 18.2535 24.4262 18.2535 25.0135C18.2535 25.6007 18.7195 26.0281 19.2633 26.0281H30.8911C31.4606 26.0281 31.9009 25.5742 31.9009 24.987Z" fill="white"/>
<path d="M23.4107 36.3532L31.6329 27.8756C32.0363 27.4603 32.6404 27.4407 33.0431 27.8559C33.4459 28.2719 33.4459 28.9137 33.0431 29.3289L24.8209 37.8066C24.4358 38.2029 23.795 38.2218 23.4107 37.8255C23.0079 37.4103 23.0079 36.7684 23.4107 36.3532Z" fill="white"/>
<path d="M15.3327 24.9144C15.3784 25.5777 14.894 26.1537 14.2507 26.2009C13.6074 26.2481 13.0488 25.7486 13.003 25.0853C12.9572 24.422 13.4416 23.846 14.0849 23.7988C14.7283 23.7516 15.2869 24.2511 15.3327 24.9144Z" fill="white"/>
<path d="M19.6862 39.9437C19.2298 40.4142 19.2298 41.1765 19.6862 41.6471C20.1426 42.1176 20.8819 42.1176 21.3382 41.6471C21.7946 41.1765 21.7946 40.4142 21.3382 39.9437C20.8819 39.4731 20.1426 39.4731 19.6862 39.9437Z" fill="white"/>
<path d="M35.0056 25.8521C34.5493 25.3815 34.5493 24.6192 35.0056 24.1487C35.462 23.6781 36.2013 23.6781 36.6577 24.1487C37.1141 24.6192 37.1141 25.3815 36.6577 25.8521C36.2013 26.3226 35.462 26.3226 35.0056 25.8521Z" fill="white"/>
</svg>
