<svg width="50" height="50" viewBox="0 0 50 50" fill="none" xmlns="http://www.w3.org/2000/svg">
<path d="M20.8839 7.41481C21.4249 6.86121 21.4249 5.9644 20.8839 5.4108C20.3428 4.85721 19.4664 4.85721 18.9254 5.4108C18.3843 5.9644 18.3843 6.86121 18.9254 7.41481C19.4664 7.96841 20.3428 7.96841 20.8839 7.41481Z" fill="#25493E"/>
<path d="M25.0126 9.92879C24.5351 9.44027 23.7972 9.44027 23.3198 9.92879C22.8641 10.395 22.8859 11.1724 23.3415 11.6395L33.0887 21.6132C33.5661 22.1017 34.304 22.1017 34.7823 21.6132C35.2597 21.1247 35.238 20.3919 34.7605 19.9025L25.0126 9.92879Z" fill="#25493E"/>
<path d="M33.4063 24.9803C33.4063 24.2894 32.8844 23.7866 32.2092 23.7866H18.4249C17.7497 23.7866 17.2279 24.3206 17.2279 25.0115C17.2279 25.7023 17.7802 26.2051 18.4249 26.2051H32.2092C32.8844 26.2051 33.4063 25.6711 33.4063 24.9803Z" fill="#25493E"/>
<path d="M23.3415 38.3523L33.0886 28.3786C33.5669 27.8901 34.283 27.867 34.7604 28.3555C35.2378 28.8449 35.2378 29.5999 34.7604 30.0885L25.0133 40.0621C24.5568 40.5284 23.7971 40.5507 23.3415 40.0845C22.864 39.596 22.864 38.8408 23.3415 38.3523Z" fill="#25493E"/>
<path d="M13.7653 24.8949C13.8195 25.6752 13.2453 26.3529 12.4827 26.4084C11.72 26.4639 11.0578 25.8764 11.0036 25.096C10.9493 24.3156 11.5235 23.638 12.2862 23.5825C13.0488 23.527 13.711 24.1145 13.7653 24.8949Z" fill="#25493E"/>
<path d="M18.9263 42.5764C18.3852 43.13 18.3852 44.0268 18.9263 44.5804C19.4673 45.134 20.3437 45.134 20.8847 44.5804C21.4257 44.0268 21.4257 43.13 20.8847 42.5764C20.3437 42.0228 19.4673 42.0228 18.9263 42.5764Z" fill="#25493E"/>
<path d="M37.0869 25.9981C36.5459 25.4444 36.5459 24.5476 37.0869 23.994C37.6279 23.4405 38.5043 23.4405 39.0454 23.994C39.5864 24.5476 39.5864 25.4444 39.0454 25.9981C38.5043 26.5516 37.6279 26.5516 37.0869 25.9981Z" fill="#25493E"/>
</svg>
