<svg width="50" height="50" viewBox="0 0 50 50" fill="none" xmlns="http://www.w3.org/2000/svg">
<path d="M41.5604 22.7287C41.2453 21.5597 40.7604 20.4992 40.1543 19.523C45.609 6.78414 26.045 0.975142 26.6874 13.3283C26.6874 13.3403 26.7117 13.3403 26.748 13.3524C25.3662 13.4609 23.9722 13.7381 22.5661 14.196C20.5297 14.8709 18.6873 15.8712 17.0872 17.1005C10.5295 7.76034 4.04457 22.6926 10.978 25.8984C10.3477 28.1882 10.2871 30.5745 10.9053 32.8764C11.9356 36.6727 14.6145 39.529 18.1054 41.0596C21.4994 44.2775 27.1359 44.3618 31.5723 40.9873C31.7905 40.8186 32.0087 40.6378 32.2269 40.457C39.2937 37.0343 43.4029 29.538 41.5604 22.7287Z" fill="black"/>
<path fill-rule="evenodd" clip-rule="evenodd" d="M40.1659 23.2108C38.2749 16.1845 30.3233 12.6172 22.408 15.2325C14.4927 17.8598 9.61986 25.6814 11.5108 32.7076C12.4078 36.0581 14.6866 38.6131 17.6806 40.0954C20.7837 43.5182 26.3596 43.7472 30.6869 40.457C30.9778 40.2401 31.2566 39.999 31.5233 39.758C38.0689 36.5281 41.875 29.5501 40.1659 23.2108ZM19.8504 32.7559C19.6685 33.2379 18.5655 34.1659 17.8624 34.2021C17.317 34.2382 15.9351 33.3102 15.8988 32.8884C15.8745 32.563 16.0806 32.4063 16.3473 32.3822L19.1594 31.9122C19.5958 31.8881 20.0201 32.2979 19.8504 32.7559ZM14.529 23.4157C17.3655 22.9215 18.9412 25.0427 18.82 27.0192C18.7594 28.0556 16.6503 28.1882 14.6503 31.153C13.9328 32.2125 8.44173 24.4817 14.529 23.4157ZM26.5535 33.9731C26.4929 33.949 26.3111 33.9972 26.2747 34.0816C25.1838 36.1063 22.7595 38.9746 20.117 38.8541C18.1412 38.7577 16.3957 37.6007 15.4624 36.6486C15.2455 36.433 14.8452 37.066 14.5533 36.9499C15.3228 36.8861 15.2566 35.8584 15.2321 35.347C15.3291 35.5519 15.4503 35.8773 15.4503 36.1665C15.4503 37.4804 18.7474 37.393 19.414 37.2994C21.7292 36.974 24.4444 35.106 25.9353 33.8887C26.008 33.8285 26.0444 33.6597 25.9838 33.5995C25.5838 33.2138 25.305 32.6956 25.3656 32.4666C25.4141 32.7438 25.8868 33.2861 26.6384 33.5513C27.3778 33.8164 28.202 33.491 28.699 33.4067C28.1657 33.72 27.2444 34.2021 26.5535 33.9731ZM27.9111 29.1162C24.2383 26.4407 21.6807 27.1999 21.1595 25.9948C20.1655 23.7049 21.0989 20.5112 24.6868 19.8845C27.3778 19.4144 29.6687 21.9694 30.1051 24.428C30.4324 26.3443 29.402 30.2009 27.9111 29.1162Z" fill="white"/>
<path fill-rule="evenodd" clip-rule="evenodd" d="M20.6387 16.052C21.0872 15.8592 21.5357 15.6905 21.9963 15.5338C29.9116 12.9065 37.8632 16.4859 39.7542 23.5121C41.6451 30.5383 36.7359 38.1913 28.8328 40.8186C28.6752 40.8668 28.5176 40.915 28.36 40.9632C35.4632 37.9382 31.4267 31.3579 36.2874 24.4522C38.8329 20.8245 28.3964 13.714 20.6387 16.052Z" fill="url(#paint0_linear_9176_22746)"/>
<path fill-rule="evenodd" clip-rule="evenodd" d="M27.9727 9.6405C30.7363 4.36179 41.1002 8.04966 40.0335 15.9798C39.4759 9.50793 31.597 6.44676 27.9727 9.6405Z" fill="#4D4D4F"/>
<path fill-rule="evenodd" clip-rule="evenodd" d="M8.38393 21.2946C8.1415 16.5582 11.984 11.8098 16.6023 17.2211C16.5295 17.2813 16.3598 17.4259 16.2023 17.6067C12.2022 13.1355 8.61423 16.8957 8.38393 21.2946Z" fill="#4D4D4F"/>
<path d="M22.9656 26.055C22.9656 26.055 21.8262 25.8621 21.6687 25.6573C21.5111 25.4524 20.202 22.355 24.1293 20.8245C22.8808 21.9091 21.9232 23.8254 22.9656 26.055Z" fill="#4D4D4F"/>
<path d="M13.9233 29.5381C13.9233 29.5381 13.6203 30.454 13.4264 30.454C13.2203 30.454 10.2263 26.3925 14.1052 24.2834C12.4809 26.4287 12.9173 28.2967 13.9233 29.5381Z" fill="#4D4D4F"/>
<path fill-rule="evenodd" clip-rule="evenodd" d="M30.4447 24.0665C29.9841 21.4633 27.5476 18.7396 24.6991 19.2458C20.893 19.9086 19.899 23.3073 20.9536 25.7297C21.0142 25.8623 21.099 25.9707 21.196 26.0551C21.1839 26.031 21.1716 26.0189 21.1595 25.9948C20.1655 23.7049 21.0989 20.5112 24.6868 19.8845C27.3778 19.4144 29.6687 21.9694 30.1051 24.428C30.3718 25.9586 29.7659 28.7426 28.7477 29.2247C29.9719 29.1163 30.7598 25.8261 30.4447 24.0665Z" fill="url(#paint1_linear_9176_22746)"/>
<path fill-rule="evenodd" clip-rule="evenodd" d="M14.6503 31.153C14.5533 31.2976 14.4449 31.382 14.3115 31.4302C14.4933 31.4061 14.663 31.3097 14.7964 31.1168C15.8509 29.5501 16.9298 28.7306 17.7661 28.1521C16.954 28.6944 15.7897 29.4536 14.6503 31.153Z" fill="url(#paint2_linear_9176_22746)"/>
<path fill-rule="evenodd" clip-rule="evenodd" d="M14.6753 22.8733C12.4086 23.271 11.3419 25.9586 11.7056 28.0315C11.7177 28.0797 11.7298 28.1279 11.7419 28.1762C11.4389 26.2479 12.445 23.7893 14.542 23.4157C17.3784 22.9215 18.9542 25.0427 18.833 27.0192C18.8087 27.4048 18.5057 27.67 18.0208 27.9954C18.736 27.5133 19.2209 27.212 19.2451 26.7058C19.3663 24.6088 17.6936 22.3431 14.6753 22.8733Z" fill="url(#paint3_linear_9176_22746)"/>
<path d="M22.093 42.1081C20.6748 41.6742 19.402 40.8909 18.3838 39.7821C15.3413 38.2756 13.014 35.6845 12.0928 32.2979C11.5225 30.2 11.1553 26.9053 12.3716 24.9704C12.9049 23.3916 13.7413 21.861 14.808 20.4871C11.8261 23.97 10.4806 28.5015 11.6322 32.7317C12.5292 36.0581 14.7838 38.589 17.7535 40.0713C18.9172 41.3609 20.4323 42.1925 22.1051 42.554L22.093 42.1081Z" fill="url(#paint4_linear_9176_22746)"/>
<path fill-rule="evenodd" clip-rule="evenodd" d="M17.8624 34.2021C17.3776 34.2262 16.202 33.491 15.9596 33.0331C15.8869 33.1174 15.8505 33.2259 15.8626 33.3705C15.8869 33.7923 17.2809 34.7083 17.8263 34.6842C18.5294 34.648 19.6324 33.72 19.8142 33.238C19.8627 33.1054 19.8506 32.9728 19.8142 32.8523C19.5354 33.3464 18.5291 34.1659 17.8624 34.2021Z" fill="#E6E7E8"/>
<path fill-rule="evenodd" clip-rule="evenodd" d="M16.4207 27.1156C15.9091 26.408 16.9972 25.694 17.6086 25.6332C17.4989 25.7423 17.2659 25.8382 17.3783 26.043C17.451 26.1756 17.6692 26.2117 17.8631 26.1153C18.0571 26.031 18.1419 25.8502 18.0692 25.7176C17.581 24.9087 15.186 26.3316 15.9358 27.3808C16.2631 27.8508 17.0995 27.899 17.8025 27.5133C18.2025 27.2844 18.4571 26.959 18.5419 26.6336C18.262 27.3492 16.9251 27.8135 16.4207 27.1156Z" fill="white"/>
<path fill-rule="evenodd" clip-rule="evenodd" d="M27.1115 24.6087C27.0918 23.8281 28.5735 23.4115 28.5054 24.2231C28.4933 24.3677 28.663 24.5244 28.8691 24.5605C29.0751 24.5967 29.2448 24.5003 29.257 24.3436C29.257 24.2713 29.1964 24.1749 29.1357 24.1146C28.5034 23.543 26.5263 23.2609 26.5539 24.5485C26.5788 25.7107 28.4045 25.9607 29.1479 25.3559C28.545 25.8755 27.1535 25.4451 27.1115 24.6087Z" fill="white"/>
<defs>
<linearGradient id="paint0_linear_9176_22746" x1="25.0062" y1="43.4912" x2="25.0062" y2="6.49849" gradientUnits="userSpaceOnUse">
<stop stop-color="white" stop-opacity="0"/>
<stop offset="1" stop-color="#CBCCCE"/>
</linearGradient>
<linearGradient id="paint1_linear_9176_22746" x1="7.9804" y1="25.0009" x2="41.9974" y2="25.0009" gradientUnits="userSpaceOnUse">
<stop stop-color="white" stop-opacity="0"/>
<stop offset="1" stop-color="#CBCCCE"/>
</linearGradient>
<linearGradient id="paint2_linear_9176_22746" x1="7.99761" y1="25.0364" x2="41.9952" y2="25.0364" gradientUnits="userSpaceOnUse">
<stop stop-color="white" stop-opacity="0"/>
<stop offset="1" stop-color="#CBCCCE"/>
</linearGradient>
<linearGradient id="paint3_linear_9176_22746" x1="7.97943" y1="24.9876" x2="41.9757" y2="24.9876" gradientUnits="userSpaceOnUse">
<stop stop-color="white" stop-opacity="0"/>
<stop offset="1" stop-color="#CBCCCE"/>
</linearGradient>
<linearGradient id="paint4_linear_9176_22746" x1="25.0107" y1="43.4356" x2="25.0107" y2="6.44711" gradientUnits="userSpaceOnUse">
<stop stop-color="white" stop-opacity="0"/>
<stop offset="1" stop-color="#CBCCCE"/>
</linearGradient>
</defs>
</svg>
