<svg width="50" height="50" viewBox="0 0 50 50" fill="none" xmlns="http://www.w3.org/2000/svg">
<path d="M19.0604 41.2278C17.2801 41.2278 15.8314 39.7912 15.8314 38.0259C15.8314 36.2606 17.2804 34.823 19.0604 34.823C20.8406 34.823 22.2891 36.2597 22.2891 38.0259C22.2891 39.7925 20.8414 41.2278 19.0604 41.2278ZM19.0604 36.2614C18.0799 36.2614 17.2822 37.0531 17.2822 38.0263C17.2822 38.9991 18.0803 39.7899 19.0604 39.7899C20.0405 39.7899 20.8383 38.9982 20.8383 38.0263C20.8383 37.054 20.0405 36.2614 19.0604 36.2614ZM29.0368 39.5694L20.5173 26.7349V33.7372C19.5784 33.4217 18.5418 33.4217 17.6033 33.7372V27.5252L12.3907 36.4823H14.7789C14.4138 37.4741 14.4141 38.5772 14.7789 39.5681H7L24.9999 8.64941L32.1195 20.8781C31.0048 20.5581 29.7605 20.6812 28.7285 21.224L25.0003 14.8212L20.841 21.9658L29.3986 34.8553V29.5086C30.3365 29.8241 31.3743 29.8244 32.3121 29.5086V36.4819H37.6103L33.2805 29.0423C34.282 28.4153 34.9972 27.4321 35.2782 26.302L43 39.569L29.0368 39.5694ZM30.8538 28.424C29.0722 28.424 27.6222 26.9864 27.6222 25.2191C27.6222 23.4518 29.0722 22.0141 30.8538 22.0141C32.636 22.0141 34.0859 23.4516 34.0859 25.2191C34.0859 26.9866 32.636 28.424 30.8538 28.424ZM30.8538 23.456C29.8735 23.456 29.0757 24.2472 29.0757 25.2194C29.0757 26.1917 29.874 26.9829 30.8538 26.9829C31.8341 26.9829 32.6324 26.1917 32.6324 25.2194C32.6324 24.2472 31.8341 23.456 30.8538 23.456Z" fill="url(#paint0_linear_9176_22852)"/>
<defs>
<linearGradient id="paint0_linear_9176_22852" x1="38.4334" y1="16.622" x2="20.5377" y2="46.9564" gradientUnits="userSpaceOnUse">
<stop stop-color="#852C91"/>
<stop offset="0.180233" stop-color="#824DB8"/>
<stop offset="1" stop-color="#0C6AB7"/>
</linearGradient>
</defs>
</svg>
