<svg width="50" height="50" viewBox="0 0 50 50" fill="none" xmlns="http://www.w3.org/2000/svg">
<path d="M9.69531 28.699L24.1438 20.8906V27.6168L16.0516 31.9412L9.69531 28.699Z" fill="#226ACB"/>
<path d="M25.2061 20.8908L39.6951 28.6793L33.3811 31.9413L25.2061 27.7578V20.8908Z" fill="#226ACB"/>
<path d="M39.6953 30.3603L25.6562 37.3666V44.2336L39.6953 36.4864V30.3603Z" fill="#226ACB"/>
<path d="M9.69531 30.3603L23.7359 37.4875V44.2336L9.69531 36.4864V30.3603Z" fill="#226ACB"/>
<path d="M36.6812 13.2937C35.4078 12.115 23.3344 4.0188 13.2641 13.0059L9.89062 9.8709C22.9781 -1.81033 37.6922 8.03858 39.3469 9.57087L36.6797 13.2952L36.6812 13.2937Z" fill="#226ACB"/>
<path d="M31.4094 19.2394C30.5938 18.4848 24.3906 14.1037 18.5969 18.9394L15.1641 15.7233C23.5469 8.24093 32.9703 14.5507 34.0297 15.5304L31.4094 19.2394Z" fill="#226ACB"/>
</svg>
