<svg width="50" height="50" viewBox="0 0 50 50" fill="none" xmlns="http://www.w3.org/2000/svg">
<path d="M8.15851 18.2727L5.03714 23.6056H23.5127L14.2754 7.82128L11.279 12.9397L14.6766 18.5729L8.15851 18.2727Z" fill="#63666B"/>
<path d="M26.5254 23.6699L35.7627 7.88562L38.8841 13.2185L35.3614 18.6373L42.0045 18.5515L45 23.6699H26.5254Z" fill="#63666B"/>
<path d="M24.962 26.2113L34.2002 41.9956H27.9574L24.962 36.2767L21.7156 41.9956H15.7246L24.962 26.2113Z" fill="#63666B"/>
<path d="M25.038 22.7799L15.7998 6.99561H22.0426L25.038 12.7146L28.2844 6.99561H34.2754L25.038 22.7799Z" fill="#0083C0"/>
<path d="M23.4746 25.3213L14.2373 41.1056L11.1159 35.7727L14.6386 30.354L7.99547 30.4397L5 25.3213H23.4746Z" fill="#0083C0"/>
<path d="M41.8415 30.7185L44.9629 25.3856H26.4873L35.7246 41.1699L38.721 36.0515L35.3234 30.4183L41.8415 30.7185Z" fill="#0083C0"/>
</svg>
