<svg width="50" height="50" viewBox="0 0 50 50" fill="none" xmlns="http://www.w3.org/2000/svg">
<path d="M20.9321 17.2324C20.6787 16.9006 20.1366 16.968 19.9645 17.3376L15.0618 27.1469C14.876 27.5187 15.1604 27.9955 15.5859 27.9955H22.4127C22.6314 28.0006 22.8435 27.8694 22.9367 27.6713C24.4094 24.6262 23.5169 19.996 20.9321 17.2324Z" fill="url(#paint0_linear_9176_22753)"/>
<path d="M24.528 8.31035C23.3064 10.1914 22.5945 12.3579 22.4621 14.5973C22.3298 16.8368 22.7816 19.0722 23.7731 21.0842L27.0644 27.6713C27.1617 27.8661 27.3708 27.9955 27.5885 27.9955H34.414C34.8396 27.9955 35.1239 27.5187 34.9381 27.1469C34.9381 27.1469 25.7554 8.7664 25.5247 8.30667C25.325 7.89712 24.7191 7.91097 24.528 8.31035Z" fill="#2684FF"/>
<path d="M13.9839 34.2156L11.8657 40.0471H11L13.439 33.6487H13.9971L13.9839 34.2156ZM15.7593 40.0471L13.6367 34.2156L13.6235 33.6487H14.1816L16.6294 40.0471H15.7593ZM15.6494 37.6785V38.3728H12.0547V37.6785H15.6494Z" fill="black"/>
<path d="M19.2661 39.467C19.8488 39.467 20.3432 39.0756 20.3867 38.5442H21.1602C21.1106 39.4953 20.1565 40.135 19.2661 40.135C17.8483 40.135 17.1523 39.0401 17.1523 37.762V37.5774C17.1523 36.3284 17.9117 35.2043 19.2661 35.2043C20.3779 35.2043 21.1161 35.9391 21.1602 36.927H20.3867C20.3431 36.3424 19.9207 35.8723 19.2661 35.8723C18.315 35.8723 17.9653 36.7633 17.9653 37.5774V37.762C17.9653 38.5984 18.2663 39.467 19.2661 39.467Z" fill="black"/>
<path d="M23.9771 39.467C24.5597 39.467 25.0541 39.0756 25.0977 38.5442H25.8711C25.8216 39.4953 24.8675 40.135 23.9771 40.135C22.6223 40.135 21.8633 39.0105 21.8633 37.762V37.5774C21.8633 36.2811 22.5659 35.2043 23.9771 35.2043C25.0888 35.2043 25.827 35.9391 25.8711 36.927H25.0977C25.054 36.3424 24.6316 35.8723 23.9771 35.8723C23.0102 35.8723 22.6763 36.7213 22.6763 37.5774V37.762C22.6763 38.5832 23.0157 39.467 23.9771 39.467Z" fill="black"/>
<path d="M28.7583 40.135C27.4453 40.135 26.5742 39.0891 26.5742 37.8367V37.6521C26.5742 36.0954 27.5887 35.2043 28.6528 35.2043C30.2333 35.2043 30.6084 36.5881 30.6084 37.8982H27.0576V37.2346H29.7954C29.7954 36.5592 29.393 35.8723 28.6528 35.8723C27.9187 35.8723 27.3916 36.5015 27.3916 37.6521V37.8367C27.3916 38.7402 27.9228 39.4714 28.8022 39.4714C29.3765 39.4714 29.7559 39.218 30.0547 38.8254L30.5469 39.2166C30.2404 39.6807 29.7057 40.135 28.7583 40.135Z" fill="black"/>
<path d="M34.3262 38.7859C34.3262 38.4325 34.1731 38.1488 33.2319 37.9641C32.1935 37.7449 31.5181 37.3857 31.5181 36.593C31.5181 35.6847 32.4701 35.2043 33.2803 35.2043C34.4193 35.2043 35.0908 35.8672 35.0908 36.6897H34.2778C34.2778 36.1645 33.7466 35.8723 33.2803 35.8723C32.6175 35.8723 32.3354 36.2136 32.3354 36.571C32.3354 36.9145 32.5267 37.1029 33.4297 37.3049C34.5986 37.5686 35.1392 37.9597 35.1392 38.7244C35.1392 39.7064 34.15 40.135 33.3022 40.135C32.3888 40.135 31.3555 39.6006 31.3555 38.5793H32.1729C32.2044 39.1792 32.7421 39.467 33.3022 39.467C33.9778 39.467 34.3262 39.1792 34.3262 38.7859Z" fill="black"/>
<path d="M38.9756 38.7859C38.9756 38.4325 38.8225 38.1488 37.8813 37.9641C36.8429 37.7449 36.1675 37.3857 36.1675 36.593C36.1675 35.8348 36.8711 35.2043 37.9297 35.2043C39.0688 35.2043 39.7402 35.8672 39.7402 36.6897H38.9272C38.9272 36.2945 38.5764 35.8723 37.9297 35.8723C37.2669 35.8723 36.9849 36.2136 36.9849 36.571C36.9849 36.9145 37.1761 37.1029 38.0791 37.3049C39.248 37.5686 39.7886 37.9597 39.7886 38.7244C39.7886 39.5408 39.0915 40.135 37.9517 40.135C37.0414 40.135 36.0049 39.6188 36.0049 38.5793H36.8223C36.8544 39.1901 37.4023 39.467 37.9517 39.467C38.6272 39.467 38.9756 39.1792 38.9756 38.7859Z" fill="black"/>
<defs>
<linearGradient id="paint0_linear_9176_22753" x1="34.933" y1="11.1664" x2="26.7361" y2="29.196" gradientUnits="userSpaceOnUse">
<stop stop-color="#0052CC"/>
<stop offset="0.923" stop-color="#2684FF"/>
</linearGradient>
</defs>
</svg>
