<svg width="50" height="50" viewBox="0 0 50 50" fill="none" xmlns="http://www.w3.org/2000/svg">
<rect width="50" height="50" fill="#0B111F"/>
<path d="M20.8596 28.4237H29.1403C30.2467 28.4237 30.9383 27.208 30.3849 26.2352L26.2447 18.955C25.6914 17.9821 24.3085 17.9821 23.7553 18.955L19.615 26.2352C19.0618 27.208 19.7533 28.4237 20.8596 28.4237Z" fill="#60A2DD"/>
<path d="M17.8839 22.8699L20.1226 18.9335C22.0131 15.6092 23.0083 11.8385 23.0083 8.00019L10 15.6244V30.8736C13.2743 28.9547 15.9935 26.1939 17.8839 22.8699Z" fill="white"/>
<path d="M23.0666 31.363C19.1785 31.363 15.3588 32.402 11.9917 34.3756L25 42L38.0083 34.3756C34.6411 32.4021 30.8214 31.363 26.9334 31.363H23.0666Z" fill="white"/>
<path d="M32.1159 22.8699C34.0065 26.1939 36.7256 28.9545 40 30.8736V15.6244L26.9918 8C26.9918 11.8385 27.9869 15.6094 29.8773 18.9335L32.1159 22.8699Z" fill="white"/>
</svg>
