<svg width="50" height="50" viewBox="0 0 50 50" fill="none" xmlns="http://www.w3.org/2000/svg">
<path d="M8.66027 33.0552H13.3664L26.0023 14.667L32.5826 24.2743H24.8645L22.4956 27.716H34.9132L38.6065 33.1952H43.0845L27.8015 10.6039C26.9469 9.34112 25.0894 9.32946 24.2215 10.5839L8.66027 33.0552Z" fill="#6A4FDC"/>
<path d="M7.60536 36.1907L10.0442 39.6658C10.0442 39.6658 9.63443 39.6708 9.44285 39.6608C9.4012 39.6591 9.3229 39.5675 9.3229 39.5675C9.3229 39.5675 9.04803 39.176 8.91809 38.9744C8.86311 38.8895 8.80314 38.8595 8.70152 38.8595C8.13681 38.8651 7.57203 38.8612 7.0073 38.8612C7.12225 38.6896 7.21554 38.5413 7.32215 38.4014C7.34881 38.368 7.41878 38.3564 7.47042 38.3564C7.7986 38.3531 8.12512 38.3547 8.49495 38.3547C8.16677 37.8699 7.85358 37.4102 7.52706 36.9287C6.93176 37.7974 6.3337 38.6646 5.74954 39.5408C5.68457 39.6391 5.6146 39.6691 5.50465 39.6641C5.33806 39.6558 5.00488 39.6625 5.00488 39.6625L7.44377 36.1857C7.47128 36.1857 7.60536 36.1907 7.60536 36.1907Z" fill="#6A4FDC"/>
<path d="M21.5323 36.4222C22.2671 37.4956 23.0563 38.5523 23.7313 39.6641C23.5114 39.6641 23.1099 39.6591 23.1099 39.6591C23.1099 39.6591 22.6981 39.1191 22.6235 38.9977C22.5602 38.8961 22.4919 38.8561 22.3702 38.8578C21.8111 38.8653 21.2519 38.8611 20.6927 38.8611C20.806 38.6962 20.8959 38.5513 20.9992 38.418C21.0292 38.3797 21.1025 38.3597 21.1558 38.358C21.484 38.353 21.8122 38.3547 22.1803 38.3547C21.8521 37.8716 21.539 37.4101 21.2124 36.9303C21.0958 37.1003 20.9892 37.2535 20.8843 37.4085C20.4028 38.1165 19.918 38.8228 19.4399 39.5325C19.3733 39.6308 19.305 39.6757 19.1834 39.6657C19.0284 39.6541 18.6936 39.6624 18.6936 39.6624C18.6936 39.6624 20.1372 37.5085 20.8626 36.4506C21.0634 36.1589 21.3312 36.1261 21.5323 36.4222Z" fill="#6A4FDC"/>
<path d="M44.172 39.6525C44.3369 39.9041 44.4869 40.1323 44.6568 40.3905C44.4635 40.3905 44.3003 40.3972 44.137 40.3855C44.0937 40.3822 44.0454 40.3289 44.0154 40.2856C43.9021 40.1206 43.7905 39.954 43.6889 39.7808C43.6306 39.6825 43.5606 39.6475 43.4457 39.6492C42.9109 39.6542 42.3762 39.6575 41.8431 39.6492C41.6665 39.6459 41.4866 39.6259 41.3183 39.5792C40.9801 39.4843 40.8135 39.2544 40.8119 38.9012C40.8069 38.2715 40.8069 37.6418 40.8119 37.0137C40.8152 36.5839 41.0784 36.2857 41.5116 36.2791C42.4345 36.2624 43.359 36.2624 44.2836 36.2791C44.7068 36.2857 44.9883 36.6006 44.995 37.0337C45.0033 37.6401 45.0033 38.2482 44.995 38.8545C44.99 39.281 44.7467 39.5492 44.3269 39.6209C44.2853 39.6275 44.2453 39.6375 44.1737 39.6542L44.172 39.6525ZM42.7677 38.3448C42.9209 38.3448 43.0475 38.3514 43.1725 38.3431C43.2874 38.3348 43.3574 38.3764 43.4174 38.4747C43.539 38.6746 43.6639 38.8712 43.8022 39.0595C43.8438 39.1161 43.9305 39.1694 43.9988 39.1744C44.3119 39.1944 44.4485 39.0595 44.4502 38.7413C44.4519 38.2232 44.4502 37.7067 44.4502 37.1886C44.4502 36.8355 44.3336 36.7172 43.9821 36.7139C43.2374 36.711 42.4911 36.6996 41.7465 36.7155C41.4616 36.7222 41.355 36.8371 41.355 37.1153C41.355 37.6601 41.355 38.2065 41.355 38.7513C41.355 39.0678 41.4566 39.1744 41.7698 39.1761C42.2096 39.1794 42.6494 39.1761 43.0875 39.1761C43.1391 39.1761 43.1891 39.1644 43.2757 39.1544C43.0992 38.8729 42.9409 38.6213 42.7677 38.3431V38.3448Z" fill="#6A4FDC"/>
<path d="M30.5765 38.2015V39.6558H29.9918V36.2407H30.5765V37.69C30.9513 37.69 31.3062 37.6934 31.661 37.6867C31.7076 37.6867 31.7593 37.6417 31.8009 37.6067C32.3257 37.1769 32.8488 36.7438 33.3769 36.3173C33.4352 36.2707 33.5235 36.239 33.5984 36.2357C33.8367 36.2257 34.0766 36.2324 34.3381 36.264C33.6717 36.8088 33.0054 37.3552 32.3224 37.9149C33.027 38.4913 33.7234 39.0627 34.4597 39.6658C34.1382 39.6658 33.8633 39.6691 33.5884 39.6625C33.5451 39.6625 33.5002 39.6208 33.4635 39.5892C32.9337 39.1577 32.4057 38.7212 31.8709 38.2931C31.8076 38.2431 31.7143 38.2081 31.6343 38.2065C31.2912 38.1965 30.9463 38.2031 30.5798 38.2031L30.5765 38.2015Z" fill="#6A4FDC"/>
<path d="M28.6323 39.6657L25.2789 39.6424C25.2789 39.6424 24.5392 39.3125 24.5375 38.7928C24.5359 38.2414 24.5375 37.6916 24.5375 37.1402C24.5375 36.5588 24.7974 36.249 25.3721 36.2373C26.445 36.2156 27.5178 36.2306 28.634 36.2306C28.5124 36.4072 28.4141 36.5655 28.2991 36.7087C28.2708 36.7437 28.1275 36.7404 28.1275 36.7404L25.3921 36.7587C25.2339 36.782 25.1406 36.877 25.1406 37.0403C25.1389 37.6466 25.1389 38.253 25.1406 38.8594C25.1406 39.1261 25.4076 39.1476 25.612 39.1476C26.44 39.1476 27.2696 39.151 28.0976 39.146C28.2358 39.146 28.3258 39.1809 28.3924 39.3059C28.4541 39.4225 28.5374 39.5258 28.6306 39.6657H28.6323Z" fill="#6A4FDC"/>
<path d="M35.8925 36.3374C35.9224 36.3007 35.9857 36.2691 36.0324 36.2691C37.2002 36.2658 38.368 36.2658 39.5791 36.2658C39.4741 36.419 39.3908 36.5523 39.2942 36.6722C39.2676 36.7056 39.1943 36.7106 39.141 36.7106C38.7845 36.7139 38.4296 36.7156 38.0731 36.7106C37.9432 36.7089 37.8815 36.7405 37.8832 36.8871C37.8882 37.5935 37.8882 38.3015 37.8832 39.0078C37.8832 39.1411 37.9332 39.1811 38.0615 39.1794C38.5715 39.1737 39.0827 39.1689 39.5924 39.1877C39.4841 39.3443 39.3975 39.4776 39.3009 39.6026C39.2759 39.6342 39.2143 39.6492 39.1693 39.6492C38.0181 39.6509 36.867 39.6492 35.7159 39.6492C35.6351 39.6492 35.9875 39.1778 36.2306 39.1778C36.5472 39.1778 36.8653 39.1744 37.1819 39.1778C37.3051 39.1794 37.3484 39.1328 37.3468 39.0112C37.3435 38.2982 37.3435 37.5868 37.3468 36.8738C37.3468 36.7505 37.3001 36.7089 37.1802 36.7089C36.666 36.7147 36.1518 36.7089 35.6376 36.7089C35.6376 36.7089 35.8797 36.3537 35.8925 36.3374Z" fill="#6A4FDC"/>
<path d="M9.75433 36.7487C9.87928 36.5655 9.96923 36.4255 10.0692 36.2939L14.0724 36.2606C14.0724 36.2606 13.8824 36.5571 13.7742 36.6938C13.7458 36.7304 13.6659 36.7404 13.6109 36.7421C13.1611 36.7454 12.7113 36.7437 12.2382 36.7437V39.6591H11.6385V36.7504H9.75433V36.7487Z" fill="#6A4FDC"/>
<path d="M17.0777 36.7422V39.6558H16.488V36.7472H14.6038C14.7271 36.5639 14.9337 36.2674 14.9337 36.2674L18.9252 36.2491C18.9252 36.2491 18.7303 36.5539 18.622 36.6922C18.5937 36.7288 18.5154 36.7405 18.4587 36.7405C17.9984 36.7444 17.538 36.7422 17.0777 36.7422Z" fill="#6A4FDC"/>
</svg>
