<svg width="50" height="50" viewBox="0 0 50 50" fill="none" xmlns="http://www.w3.org/2000/svg">
<rect width="50" height="50" fill="black"/>
<path d="M26.5055 17.5309C26.5055 17.5309 29.0775 15 33.9705 15C35.9151 15 39.428 15.5556 41.8118 19.1975L37.9852 21.9753C37.9852 21.9753 36.9188 19.8765 33.845 19.8765C31.7749 19.8765 29.9557 20.9877 29.4539 22.7778C28.5756 19.1975 26.5055 17.5309 26.5055 17.5309ZM32.3395 30.0617C32.3395 30.0617 32.3395 31.2346 32.6531 32.6543C32.9668 33.8272 33.5314 34.9383 33.5314 34.9383C33.5314 34.9383 39.428 35.2469 42 30.6173L38.1107 28.0864C38.1107 28.0247 36.6052 31.4198 32.3395 30.0617Z" fill="url(#paint0_linear_12392_31)"/>
<path d="M31.7122 29.9383C31.7122 29.9383 31.7122 31.1728 31.9631 32.5309C32.1513 33.5802 32.5277 34.3827 32.7786 35C27.0701 34.9383 23.2435 30.3086 23.2435 24.8148C23.2435 22.5926 21.9262 20 18.5387 20C13.7085 20 12.7048 24.8148 14.3358 28.2099C15.9041 31.4815 21.3616 31.4815 22.9926 27.2222C23.369 29.2593 24.2472 31.0494 25.6273 32.5309C19.1033 37.5926 8 34.6296 8 25.4321C8 18.3333 12.5793 15.1235 18.6015 15.1235C24.6236 15.1235 29.0775 19.5679 29.0775 25.1235C29.0775 26.8519 29.893 29.0123 31.7122 29.9383Z" fill="white"/>
<defs>
<linearGradient id="paint0_linear_12392_31" x1="10.6805" y1="23.1849" x2="39.7923" y2="40.775" gradientUnits="userSpaceOnUse">
<stop stop-color="#4DC2FF"/>
<stop offset="0.17" stop-color="#4DC2FF"/>
<stop offset="0.29" stop-color="#4FBCFF"/>
<stop offset="0.43" stop-color="#55ADFF"/>
<stop offset="0.59" stop-color="#5F94FF"/>
<stop offset="0.76" stop-color="#6D71FF"/>
<stop offset="0.93" stop-color="#7F45FF"/>
<stop offset="1" stop-color="#8733FF"/>
</linearGradient>
</defs>
</svg>
