<svg width="50" height="50" viewBox="0 0 50 50" fill="none" xmlns="http://www.w3.org/2000/svg">
<path d="M13.7005 24.1891L18.2106 28.6948L19.6616 30.1443C18.3716 28.812 17.5774 26.9976 17.5774 24.9959C17.5774 20.8985 20.9014 17.5811 24.9996 17.5811C27.087 17.5811 28.9736 18.4448 30.3241 19.8306C30.7429 20.2491 31.7917 21.2968 31.7917 21.2968L36.2986 25.7992C37.2369 26.7365 38.4063 27.3089 39.626 27.5266C41.5828 27.8747 43.6772 27.3022 45.1783 25.7992L45.9893 24.9891L35.404 14.4177C34.4522 13.4805 33.3733 12.6737 32.1939 12.0209C30.0627 10.8393 27.6099 10.1631 24.9996 10.1631C17.6645 10.1631 11.576 15.4789 10.3731 22.4618C11.5928 22.6794 12.7622 23.2518 13.7005 24.1891Z" fill="url(#paint0_linear_693_8211)"/>
<path d="M36.2986 25.8024L31.7917 21.2968L30.3407 19.8473C31.6308 21.1796 32.425 22.994 32.425 24.9957C32.425 29.093 29.101 32.4105 25.0029 32.4105C22.9153 32.4105 21.0287 31.5467 19.6783 30.1608C19.2595 29.7424 18.2106 28.6948 18.2106 28.6948L13.7005 24.1891C12.7622 23.2518 11.5928 22.6794 10.3731 22.4618C8.41617 22.1136 6.32185 22.6893 4.82067 24.1889L4.00977 24.9991L14.5951 35.5738C15.5468 36.5111 16.6258 37.3179 17.8052 37.9706C19.9363 39.1523 22.3892 39.8285 25.0029 39.8285C32.3379 39.8285 38.4264 34.5126 39.6294 27.5297C38.4063 27.3122 37.2369 26.7397 36.2986 25.8024Z" fill="url(#paint1_linear_693_8211)"/>
<defs>
<linearGradient id="paint0_linear_693_8211" x1="33.6191" y1="16.6135" x2="1.89566" y2="41.8238" gradientUnits="userSpaceOnUse">
<stop stop-color="#3459F8"/>
<stop offset="0.4" stop-color="#3459F8"/>
<stop offset="0.459" stop-color="#2F53E6"/>
<stop offset="0.578" stop-color="#2442B5"/>
<stop offset="0.7446" stop-color="#112869"/>
<stop offset="0.85" stop-color="#041635"/>
</linearGradient>
<linearGradient id="paint1_linear_693_8211" x1="14.5051" y1="35.4832" x2="36.4393" y2="13.527" gradientUnits="userSpaceOnUse">
<stop stop-color="#3478F8"/>
<stop offset="0.4" stop-color="#3478F8"/>
<stop offset="0.459" stop-color="#2F6FE6"/>
<stop offset="0.578" stop-color="#2457B5"/>
<stop offset="0.7446" stop-color="#113069"/>
<stop offset="0.85" stop-color="#041635"/>
</linearGradient>
</defs>
</svg>
