<svg width="50" height="50" viewBox="0 0 50 50" fill="none" xmlns="http://www.w3.org/2000/svg">
<path d="M18.8003 24.072C18.8232 24.1055 18.8148 27.0974 18.8114 27.3725C18.3909 27.3636 17.8034 27.3596 17.3878 27.3761L17.387 26.8908C17.342 26.9497 17.292 27.0049 17.2376 27.0561C16.7074 27.5625 15.5621 27.6297 15.0007 27.1253C14.6099 26.7741 14.6306 26.2215 14.6314 25.7451C14.6302 25.5445 14.6259 25.3356 14.6369 25.1361C14.7357 25.0632 15.0094 24.9031 15.1236 24.8316C15.4669 24.615 15.8117 24.4003 16.1579 24.1877C16.1674 24.5838 16.152 24.9794 16.1589 25.3799C16.1655 25.5675 16.1231 26.2058 16.3035 26.3244C16.6746 26.5682 17.1984 26.4396 17.2519 25.9553C17.2859 25.6483 17.2793 25.4679 17.279 25.2027L17.277 24.0672L18.7874 24.0657L18.8003 24.072Z" fill="#0F477C"/>
<path fill-rule="evenodd" clip-rule="evenodd" d="M23.7943 23.9823C24.3792 23.9135 25.1474 24.0738 25.6116 24.4133C26.3601 24.9608 26.4473 26.0831 25.8802 26.7755C25.4868 27.2557 24.9208 27.3896 24.3235 27.4554C23.6643 27.5263 22.7922 27.3449 22.3211 26.8876C21.7256 26.3094 21.7203 25.2399 22.2627 24.6283C22.6517 24.1898 23.1994 24.0344 23.7747 23.9852C23.7812 23.9841 23.7878 23.9831 23.7943 23.9823ZM24.5363 26.3475C24.8619 25.9219 24.7619 24.789 24.0137 24.8693C23.5634 24.9296 23.4139 25.2687 23.401 25.6726C23.3863 26.1296 23.5614 26.6016 24.1289 26.5671C24.3133 26.5395 24.4238 26.4944 24.5363 26.3475Z" fill="#0F477C"/>
<path fill-rule="evenodd" clip-rule="evenodd" d="M30.9151 23.9854C31.0398 23.9687 31.4809 23.9712 31.6072 23.9796C32.2549 24.0226 33.0393 24.0793 33.2093 24.8104C33.2636 25.0433 33.2525 25.2518 33.252 25.4847L33.2509 26.5244C33.249 26.6916 33.2262 26.9759 33.282 27.1251C33.3001 27.1735 33.4535 27.3112 33.5041 27.3639C33.3318 27.3776 33.0796 27.3714 32.9039 27.3715L31.8624 27.3713C31.8393 27.2611 31.8204 27.1342 31.801 27.0222C31.1304 27.5342 30.0937 27.626 29.3536 27.1998C28.9978 26.9495 28.8981 26.4809 29.0513 26.0959C29.1904 25.7459 29.5449 25.5967 29.8975 25.5001C30.4387 25.3518 31.0227 25.4099 31.5531 25.2274C31.663 25.1897 31.7535 25.0773 31.6927 24.9692C31.5473 24.7104 31.0103 24.6994 30.8027 24.8906C30.7342 24.9537 30.7164 25.0036 30.6849 25.0856L29.2203 25.0857C29.2412 24.843 29.2566 24.6653 29.4346 24.4701C29.7821 24.0887 30.4169 24.0228 30.9151 23.9854ZM31.6828 25.9272C31.5644 25.9681 31.4679 25.9942 31.3456 26.0207C31.0741 26.0793 30.4835 26.1127 30.5867 26.5139C30.5971 26.5535 30.6631 26.6177 30.6988 26.6395C30.8834 26.7278 31.0974 26.7422 31.2931 26.6795C31.6321 26.5738 31.7537 26.2517 31.7079 25.9353L31.6828 25.9272Z" fill="#0F477C"/>
<path d="M35.0371 23.9852C35.5503 23.9456 36.3417 23.9956 36.7715 24.2787C37.0776 24.4805 37.1737 24.695 37.2423 25.0241L35.8471 25.026C35.7243 24.6892 35.3297 24.5868 35.0192 24.8112C34.8944 24.9015 35.0233 25.0698 35.1538 25.1092C35.3109 25.1567 35.4938 25.2014 35.6607 25.2249C36.1489 25.3229 36.6652 25.3867 37.0708 25.6862C37.4672 25.9789 37.48 26.5552 37.1671 26.9088C36.792 27.3329 36.1653 27.4079 35.618 27.4574C34.9632 27.4812 34.0841 27.4442 33.624 26.9327C33.4521 26.7418 33.4195 26.5765 33.3783 26.3396L34.8306 26.3386C34.8907 26.6586 35.1357 26.7551 35.4522 26.7354C35.5768 26.7277 35.7118 26.69 35.7958 26.5969C35.8289 26.5602 35.8506 26.5066 35.8441 26.4575C35.7925 26.1201 34.8762 26.1164 34.5691 26.0205C34.289 25.933 34.0412 25.8968 33.7971 25.7041C33.623 25.5682 33.5224 25.3899 33.5038 25.1744C33.4273 24.2899 34.3068 24.0537 35.0371 23.9852Z" fill="#0F477C"/>
<path d="M28.1188 23.0464C28.1477 23.0823 28.1324 23.9451 28.1315 24.0683L28.8632 24.0653C28.8712 24.3041 28.8632 24.5914 28.8629 24.8337C28.6192 24.8322 28.3753 24.832 28.1315 24.8333L28.1302 25.6329C28.1289 25.8837 28.0901 26.1525 28.2262 26.3718C28.4794 26.4321 28.5923 26.4204 28.8526 26.4192C28.8486 26.7352 28.8488 27.0511 28.8531 27.367C28.5249 27.3979 27.9201 27.3912 27.5857 27.382C26.4899 27.3215 26.5926 26.7423 26.593 25.887L26.5943 24.8346C26.4235 24.8293 26.2324 24.8328 26.0599 24.8324C26.0489 24.5908 26.0559 24.3117 26.058 24.0676L26.6218 24.0657C27.1086 23.7389 27.6253 23.3541 28.1188 23.0464Z" fill="#0F477C"/>
<path d="M21.0863 23.0717C21.1034 23.3833 21.0859 23.7456 21.0946 24.0688L21.8121 24.0654L21.8114 24.8335C21.5717 24.832 21.332 24.832 21.0923 24.8335C21.0888 25.0575 21.0403 26.2199 21.1615 26.3357C21.2907 26.4591 21.6446 26.4205 21.8084 26.4192C21.8013 26.7314 21.8061 27.0558 21.8067 27.369C21.3927 27.3884 20.978 27.3928 20.5637 27.3822C19.4532 27.3315 19.5405 26.7537 19.5407 25.8758L19.5425 24.8344C19.3731 24.8293 19.1843 24.8332 19.0133 24.8333L19.0131 24.0676C19.2022 24.068 19.3915 24.0673 19.5806 24.0652C20.0356 23.7722 20.6075 23.3194 21.0574 23.0586L21.0863 23.0717Z" fill="#0F477C"/>
<path d="M13.8607 25.0594C14.1929 25.8015 14.5116 26.6136 14.8301 27.3688C14.3381 27.3719 13.8068 27.3794 13.3156 27.3703C13.2485 27.1414 13.1191 26.8687 13.0287 26.6425C12.9198 26.3698 12.8127 26.0871 12.6952 25.8189C12.7638 25.7599 13.0067 25.6104 13.0906 25.5566C13.3484 25.3925 13.6051 25.2268 13.8607 25.0594Z" fill="#0F477C"/>
<path d="M39.1475 22.8363C39.1289 23.5573 39.1434 24.3293 39.1437 25.0542C39.4537 24.7225 39.777 24.4015 40.0861 24.0694C40.6559 24.048 41.3089 24.074 41.8948 24.0643C41.4389 24.4953 40.9338 24.9303 40.4666 25.3546C40.6069 25.499 40.8531 25.8304 40.9902 26.0035L41.9999 27.2739V27.3709C41.4149 27.3713 40.8033 27.3797 40.2205 27.3689C39.9676 26.9816 39.6735 26.5938 39.4138 26.2028C39.3162 26.2926 39.2523 26.3497 39.1437 26.4298C39.1422 26.7435 39.143 27.0572 39.146 27.3709L37.5888 27.3709C37.6185 26.2104 37.5749 25.0343 37.593 23.8723C37.5983 23.5332 37.5986 23.1748 37.5873 22.8365L39.1475 22.8363Z" fill="#0F477C"/>
<path d="M13.6363 24.5091C13.266 24.7032 12.7939 24.9632 12.4199 25.1322C12.3025 24.8311 12.1812 24.5314 12.0561 24.2332C11.9218 24.4965 11.7922 24.7619 11.6673 25.0294L10.5623 25.6116C10.3799 25.7075 10.1267 25.8496 9.94024 25.923C10.0641 25.5595 10.2679 25.092 10.4142 24.7279C10.6639 24.1063 10.9062 23.4466 11.1743 22.8355L12.9324 22.8344L13.6363 24.5091Z" fill="#0F477C"/>
<path d="M18.4617 22H18.6269C18.2207 22.2515 17.8109 22.527 17.4079 22.7863L15.2727 24.1591L14.3608 24.7491C14.266 24.8106 13.9502 25.0201 13.8607 25.0594C13.6051 25.2268 13.3484 25.3925 13.0906 25.5566C13.0067 25.6104 12.7638 25.7599 12.6952 25.8189C11.5596 26.5228 10.437 27.2984 9.29727 28H9.2713C9.13049 27.7373 8.97715 27.4055 8.84433 27.133L8 25.3951V25.3773C8.08053 25.3765 8.21332 25.362 8.28729 25.393C8.45582 25.4636 9.60499 26.3396 9.79642 26.5009L11.5763 25.5694C11.8037 25.4508 12.2194 25.2586 12.4199 25.1322C12.7939 24.9632 13.266 24.7032 13.6363 24.5091C13.7432 24.4391 13.979 24.321 14.0998 24.2573L15.182 23.698C16.2444 23.1404 17.3872 22.528 18.4617 22Z" fill="#E61C38"/>
</svg>
