<svg width="50" height="50" viewBox="0 0 50 50" fill="none" xmlns="http://www.w3.org/2000/svg">
<path fill-rule="evenodd" clip-rule="evenodd" d="M39.717 37.7781L28.4582 17.2007L20.7342 29.9793L17.7969 29.984L28.4576 12.119L41.2425 34.8465L39.717 37.7781ZM12.466 38.6669L10.7063 35.8404H33.8237L26.8794 22.8986L28.3898 20.3999L38.3846 38.6669H12.466ZM25.9203 24.4853L28.8614 29.9665L22.6013 29.9765L25.9203 24.4853ZM23.8748 11.3329H27.0678L14.9742 31.5991L21.6266 31.5888L29.7249 31.576L31.1489 34.2297H10.6512L23.8748 11.3329ZM28.9401 9.72217H22.9622L8.33398 35.0508L11.5882 40.2777H40.2146L43.0562 34.8162L28.9401 9.72217Z" fill="#3A80F7"/>
</svg>
