<svg width="50" height="50" viewBox="0 0 50 50" fill="none" xmlns="http://www.w3.org/2000/svg">
<path d="M25.0009 6.96878C17.6181 6.96878 11.622 12.9559 11.622 20.3495C11.622 27.7344 17.6149 33.7256 25.0009 33.7256C32.3909 33.7256 38.3747 27.7322 38.3747 20.3495C38.3747 12.9581 32.3877 6.96878 25.0009 6.96878ZM25.0009 5.34766C33.2841 5.34766 40 12.0645 40 20.3495C40 28.6317 33.2841 35.3477 25.0009 35.3477C16.7187 35.3477 10 28.6317 10 20.3495C10 12.0645 16.7187 5.34766 25.0009 5.34766Z" fill="#0083CA"/>
<path d="M17.9063 20.2274C17.9063 19.3532 17.3263 18.8566 16.5051 18.8566H16.0026V21.599H16.4908C17.2544 21.599 17.9063 21.1841 17.9063 20.2274ZM26.846 21.214L23.1436 24.1294L19.7598 21.4653C19.2716 22.6383 18.0917 23.453 16.7329 23.453H13.8369V17.0017H16.7329C18.2512 17.0017 19.3453 17.9672 19.7589 18.9958L23.1436 16.3345L24.3973 17.3212L21.2952 19.7594L21.8914 20.226L24.9925 17.7892L26.248 18.7731L23.1464 21.214L23.7416 21.6816L26.846 19.2402V17.0017H29.0965V21.57H31.3415V23.4608H26.846V21.214ZM34.1922 21.5709H36.4363V23.4608H31.9395V17.0017H34.1922V21.5709Z" fill="#0083CA"/>
<path d="M19.6943 44.7881V45.5547H15.9297V44.7881H19.6943ZM16.1201 38.4453V45.5547H15.1777V38.4453H16.1201ZM19.1963 41.502V42.2686H15.9297V41.502H19.1963ZM19.6455 38.4453V39.2168H15.9297V38.4453H19.6455Z" fill="#1C1D1F"/>
<path d="M21.1592 38.4453H22.0723L24.4014 44.2412L26.7256 38.4453H27.6436L24.7529 45.5547H24.04L21.1592 38.4453ZM20.8613 38.4453H21.667L21.7988 45.5547H20.8613V38.4453ZM27.1309 38.4453H27.9365V45.5547H26.999L27.1309 38.4453Z" fill="#1C1D1F"/>
<path d="M33.8838 43.2939H34.8213C34.6646 44.7359 33.5888 45.6523 32.126 45.6523C29.8315 45.6523 29.3525 43.4787 29.3525 41.6484C29.3525 39.6362 30.4602 38.3477 32.209 38.3477C33.8188 38.3477 34.6745 39.3166 34.8213 40.7256H33.8838C33.7461 39.7223 33.3086 39.1191 32.209 39.1191C30.4078 39.1191 30.29 41.0056 30.29 42.3564C30.29 43.7501 30.858 44.8857 32.126 44.8857C33.3294 44.8857 33.7281 44.2864 33.8838 43.2939Z" fill="#1C1D1F"/>
</svg>
