<svg width="50" height="50" viewBox="0 0 50 50" fill="none" xmlns="http://www.w3.org/2000/svg">
<rect width="50" height="50" fill="#0083CA"/>
<path d="M25.0009 8.11136C18.1102 8.11136 12.5139 13.4998 12.5139 20.154C12.5139 26.8004 18.1073 32.1925 25.0009 32.1925C31.8982 32.1925 37.4831 26.7985 37.4831 20.154C37.4831 13.5017 31.8952 8.11136 25.0009 8.11136ZM25.0009 6.65234C32.7318 6.65234 39 12.6975 39 20.154C39 27.608 32.7318 33.6523 25.0009 33.6523C17.2708 33.6523 11 27.608 11 20.154C11 12.6975 17.2708 6.65234 25.0009 6.65234Z" fill="white"/>
<path d="M18.3792 20.0441C18.3792 19.2573 17.8379 18.8104 17.0715 18.8104H16.6024V21.2786H17.0581C17.7707 21.2786 18.3792 20.9051 18.3792 20.0441ZM26.7229 20.9321L23.2674 23.5559L20.1092 21.1582C19.6534 22.2139 18.5522 22.9472 17.284 22.9472H14.5811V17.141H17.284C18.7011 17.141 19.7223 18.0099 20.1083 18.9357L23.2674 16.5405L24.4375 17.4286L21.5422 19.6229L22.0986 20.0428L24.993 17.8497L26.1648 18.7353L23.27 20.9321L23.8255 21.3529L26.7229 19.1556V17.141H28.8234V21.2524H30.9187V22.9542H26.7229V20.9321ZM33.5794 21.2533H35.6739V22.9542H31.4768V17.141H33.5794V21.2533Z" fill="white"/>
<path d="M20.1387 42.8241V43.5588H16.689V42.8241H20.1387ZM16.8635 36.7459V43.5588H16V36.7459H16.8635ZM19.6823 39.6751V40.4097H16.689V39.6751H19.6823ZM20.094 36.7459V37.4852H16.689V36.7459H20.094Z" fill="white"/>
<path d="M21.481 36.7459H22.3177L24.4519 42.3001L26.5817 36.7459H27.4228L24.774 43.5588H24.1208L21.481 36.7459ZM21.2081 36.7459H21.9463L22.0671 43.5588H21.2081V36.7459ZM26.953 36.7459H27.6913V43.5588H26.8322L26.953 36.7459Z" fill="white"/>
<path d="M33.1409 41.3923H34C33.8564 42.7741 32.8707 43.6523 31.5302 43.6523C29.4277 43.6523 28.9888 41.5694 28.9888 39.8154C28.9888 37.8871 30.0038 36.6523 31.6063 36.6523C33.0814 36.6523 33.8655 37.5809 34 38.9311H33.1409C33.0148 37.9697 32.6139 37.3916 31.6063 37.3916C29.9558 37.3916 29.8479 39.1994 29.8479 40.4939C29.8479 41.8294 30.3683 42.9177 31.5302 42.9177C32.6329 42.9177 32.9983 42.3433 33.1409 41.3923Z" fill="white"/>
</svg>
