<svg width="50" height="50" viewBox="0 0 50 50" fill="none" xmlns="http://www.w3.org/2000/svg">
<path d="M22.4473 5.99609C24.6093 5.99609 26.697 6.31766 28.666 6.91577L29.6656 6.12713C29.8939 5.94697 30.2298 6.08387 30.2702 6.37361L30.4325 7.53884C38.3825 10.7426 44 18.5878 44 27.7579C44 28.0124 43.9957 28.2658 43.9871 28.5182C43.9869 28.5147 43.7094 24.6964 40.8 23.6717C36.7531 22.2463 34.5883 24.8502 34.5883 24.8502C34.5872 24.8389 34.2069 21.0288 30.9178 19.9655C27.2559 18.7817 25.9601 21.483 25.9601 21.483L17.8738 43.2235C17.6447 43.8394 16.9645 44.151 16.3545 43.9197C15.7445 43.6884 15.4357 43.0016 15.6648 42.3857L23.759 20.624C23.759 20.624 24.4102 17.9083 21.1296 16.5444C17.9297 15.2141 14.9179 17.8748 14.9179 17.8748C14.9179 17.8748 15.0032 14.7226 11.5297 13.0283C8.21782 11.4129 6 13.6935 6 13.6935C9.95343 8.98481 15.8547 5.99611 22.4473 5.99609Z" fill="#569BBE"/>
</svg>
