<svg width="50" height="50" viewBox="0 0 50 50" fill="none" xmlns="http://www.w3.org/2000/svg">
<path fill-rule="evenodd" clip-rule="evenodd" d="M21.7182 42.6084H7L24.9802 7.64795L43 42.6479H28.1625C30.7084 41.4204 32.4586 38.8471 32.4586 35.8776C32.4586 31.76 29.0773 28.3945 24.9404 28.3945C20.8033 28.3945 17.422 31.76 17.422 35.8776C17.422 38.8471 19.1725 41.4204 21.7182 42.6084ZM41.5282 13.7057C41.5282 16.596 39.1812 18.932 36.2773 18.932C33.3735 18.932 31.0265 16.596 31.0265 13.7057C31.0265 10.8154 33.3735 8.47943 36.2773 8.47943C39.1414 8.47943 41.5282 10.8154 41.5282 13.7057Z" fill="#E7351D"/>
</svg>
