<svg width="50" height="50" viewBox="0 0 50 50" fill="none" xmlns="http://www.w3.org/2000/svg">
<path d="M10.6875 15.6831C10.6875 12.9217 12.9261 10.6831 15.6875 10.6831H34.3125C37.0739 10.6831 39.3125 12.9217 39.3125 15.6831V34.3081C39.3125 37.0695 37.0739 39.3081 34.3125 39.3081H15.6875C12.9261 39.3081 10.6875 37.0695 10.6875 34.3081V15.6831Z" fill="#F04E23"/>
<path d="M26.0019 14.5036C25.6113 13.6249 24.3754 13.5155 24.0466 14.5036L14.9851 35.1058C14.5108 36.0544 16.1386 36.5153 16.5591 35.5355L25.0003 15.7914L33.3938 35.5351C33.7983 36.6475 35.5169 36.0655 35.015 35.0581L26.0019 14.5036Z" fill="white"/>
</svg>
