<svg width="50" height="50" viewBox="0 0 50 50" fill="none" xmlns="http://www.w3.org/2000/svg">
<rect width="50" height="50" transform="translate(0 -0.00439453)" fill="#E24402"/>
<path d="M42.1287 29.9055L38.3721 24.9955L29.2978 13.1121C28.7973 12.4451 28.1485 11.9038 27.4026 11.5309C25.9109 10.7853 24.0901 10.7853 22.5984 11.5309C21.8525 11.9038 21.2037 12.4451 20.7032 13.1121L7.87092 29.9055C6.02252 32.3288 6.43319 35.8867 8.78503 37.8252C11.1163 39.7261 14.6781 39.2499 16.4668 36.8776L24.1298 26.8491L21.4236 21.1306L31.416 34.1072C32.5825 35.6339 33.656 37.5704 35.4328 38.458C37.2978 39.3896 39.5964 39.1469 41.2173 37.8252C43.5655 35.8868 43.9753 32.3329 42.1301 29.9109" fill="white"/>
</svg>
