<svg width="50" height="50" viewBox="0 0 50 50" fill="none" xmlns="http://www.w3.org/2000/svg">
<path d="M17.3933 22.5663C17.3933 22.995 17.4377 23.3426 17.5153 23.5975C17.604 23.8525 17.7148 24.1305 17.87 24.4318C18.203 24.9887 16.9158 25.9432 16.4177 25.4746C16.094 25.1121 15.8759 24.6855 15.6749 24.2464C14.8102 25.3124 13.7238 25.8454 12.4156 25.8454C10.6227 25.8454 9.37793 24.5744 9.37793 22.7865C9.37793 20.1027 11.992 19.2656 14.2781 19.5885C14.6883 19.6464 15.1095 19.7391 15.553 19.8434C15.553 18.9624 15.69 17.8314 15.0319 17.1436C14.317 16.4197 12.9389 16.5296 12.0276 16.7612C11.469 16.9032 10.8438 17.3406 10.2648 17.3406C9.90279 17.3406 9.93664 16.2612 10.1096 16.0081C10.4281 15.5421 11.3208 15.3703 11.8169 15.2434C13.2731 14.8396 15.3233 14.8253 16.451 15.9617C17.0607 16.5874 17.3711 17.5376 17.3711 18.8121V22.5663H17.3933ZM12.8923 24.3275C13.7234 24.3275 14.5401 24.0129 15.0874 23.3774C15.6003 22.7408 15.5752 21.9136 15.5752 21.1411C15.2537 21.06 14.91 20.9905 14.5552 20.9441C13.1697 20.7631 11.318 20.8886 11.318 22.6706C11.318 23.6461 11.8908 24.3275 12.8923 24.3275ZM21.7946 25.5789C21.595 25.5789 21.462 25.5442 21.3733 25.463C21.2846 25.3935 21.207 25.2313 21.1405 25.0112L18.5352 16.0544C18.4687 15.8227 18.4354 15.6721 18.4354 15.591C18.4354 15.4056 18.5241 15.3013 18.7015 15.3013H19.788C19.9986 15.3013 20.1427 15.3361 20.2203 15.4172C20.309 15.4867 20.3755 15.6489 20.442 15.8691L22.3045 23.5396L24.034 15.8691C24.0894 15.6373 24.1559 15.4867 24.2446 15.4172C24.3333 15.3476 24.4885 15.3013 24.6881 15.3013H25.575C25.7856 15.3013 25.9298 15.3361 26.0184 15.4172C26.1071 15.4867 26.1847 15.6489 26.2291 15.8691L27.9807 23.6323L29.8986 15.8691C29.9652 15.6373 30.0428 15.4867 30.1204 15.4172C30.2091 15.3476 30.3532 15.3013 30.5527 15.3013H31.5838C31.7611 15.3013 31.8609 15.394 31.8609 15.591C31.8609 15.7068 31.8498 15.8111 31.7611 16.066L29.0893 25.0227C29.0228 25.2545 28.9452 25.4051 28.8565 25.4746C28.7678 25.5442 28.6237 25.5905 28.4353 25.5905H27.4818C27.2712 25.5905 27.1271 25.5557 27.0384 25.4746C26.9497 25.3935 26.8721 25.2429 26.8277 25.0112L25.1094 17.5376L23.4021 24.9996C23.3467 25.2313 23.2801 25.3819 23.1914 25.463C23.1028 25.5442 22.9475 25.5789 22.748 25.5789H21.7946ZM36.0404 25.8918C35.0682 25.8918 33.9073 25.7317 33.0582 25.2197C32.7005 25.0094 32.2858 23.6207 32.903 23.6207C33.0737 23.6207 33.2264 23.7072 33.3797 23.7714C34.1725 24.1369 35.0466 24.3159 35.9185 24.3159C37.3154 24.3159 38.1136 23.7829 38.1136 22.8328C38.1136 22.0029 37.3845 21.6547 36.6945 21.4192C35.5289 21.0411 34.0618 20.7828 33.3132 19.7159C32.7069 18.8709 32.5561 17.6827 33.0582 16.7497C33.4695 15.9855 34.1886 15.4544 35.0094 15.197C36.1346 14.8442 37.3993 14.9752 38.5016 15.3592C38.7824 15.457 39.1321 15.5945 39.2998 15.8575C39.4745 16.1009 39.3996 16.504 39.3996 16.7844C39.3996 17.2567 39.027 17.1655 38.7233 17.0162C37.7356 16.5453 36.111 16.2541 35.1203 16.8887C34.5066 17.2818 34.4167 18.2311 34.9318 18.7426C35.6114 19.4174 36.8464 19.6101 37.7256 19.9013C38.995 20.3251 39.9539 21.2301 39.9539 22.6358C39.9539 23.5504 39.5727 24.4199 38.8564 24.9996C38.0928 25.6432 37.0192 25.8918 36.0404 25.8918Z" fill="#252F3E"/>
<path fill-rule="evenodd" clip-rule="evenodd" d="M38.1361 31.523C34.4887 34.3387 29.1894 35.8334 24.633 35.8334C18.2473 35.8334 12.4935 33.3654 8.14767 29.2636C7.804 28.9391 8.11441 28.4988 8.52461 28.7537C13.2252 31.6041 19.0233 33.3306 25.021 33.3306C29.0675 33.3306 33.5131 32.45 37.6039 30.6424C38.2137 30.3527 38.7347 31.0595 38.1361 31.523Z" fill="#FF9900"/>
<path fill-rule="evenodd" clip-rule="evenodd" d="M39.655 29.7155C39.1894 29.0898 36.573 29.4142 35.3868 29.5649C35.032 29.6112 34.9766 29.2868 35.2981 29.0435C37.3823 27.514 40.808 27.9543 41.2071 28.4641C41.6062 28.9855 41.0962 32.5659 39.145 34.2808C38.8457 34.5473 38.5575 34.4082 38.6905 34.0606C39.1339 32.9135 40.1206 30.3296 39.655 29.7155Z" fill="#FF9900"/>
</svg>
