<svg width="50" height="50" viewBox="0 0 50 50" fill="none" xmlns="http://www.w3.org/2000/svg">
<path fill-rule="evenodd" clip-rule="evenodd" d="M14.0941 34.931C13.0404 35.8761 12.1622 35.701 11.2139 35.841C10.3358 35.9811 9.52791 36.0861 8.89567 36.7161C7.70144 37.9062 7.70144 39.8314 8.89567 41.0215C10.0899 42.2115 12.0218 42.2115 13.216 41.0215C13.8131 40.4264 14.059 39.4113 14.0941 38.7113C14.1643 37.8012 14.1292 36.8211 15.0073 35.841C15.9908 34.966 16.9743 35.001 17.8875 34.931C18.59 34.896 19.6086 34.651 20.2057 34.0559C21.4 32.8658 21.4 30.9407 20.2057 29.7506C19.0115 28.5605 17.0797 28.5605 15.8854 29.7506C15.2532 30.3806 15.1127 31.1857 15.0073 32.0608C14.8668 32.9708 15.0425 33.8809 14.0941 34.931Z" fill="black"/>
<path fill-rule="evenodd" clip-rule="evenodd" d="M14.0941 14.9795C15.0425 16.0295 14.8668 16.9046 15.0073 17.8497C15.1478 18.7247 15.2532 19.5298 15.8854 20.1599C17.0797 21.35 19.0115 21.35 20.2057 20.1599C21.4 18.9698 21.4 17.0446 20.2057 15.8545C19.6086 15.2595 18.59 15.0145 17.8875 14.9795C16.9743 14.9095 15.9908 14.9445 15.0073 14.0694C14.1292 13.0893 14.1643 12.1092 14.0941 11.1992C14.059 10.4991 13.8131 9.48404 13.216 8.88899C12.0218 7.6989 10.0899 7.6989 8.89567 8.88899C7.70144 10.0791 7.70144 12.0042 8.89567 13.1943C9.52791 13.8244 10.3358 13.9644 11.2139 14.0694C12.1622 14.1744 13.0404 14.0344 14.0941 14.9795Z" fill="black"/>
<path d="M21.2222 24.9902C21.2222 26.8151 22.7022 28.2945 24.5278 28.2945C26.3534 28.2945 27.8333 26.8151 27.8333 24.9902C30.1944 24.9902 42 30.6551 42 41.984C31.9496 42.2435 21.2222 38.2076 21.2222 24.9902Z" fill="url(#paint0_linear_10502_93)"/>
<path d="M42 8.003C42 18.3852 30.6667 25.0026 27.8292 25.0026L27.8287 24.8513C27.8287 23.1084 26.2126 21.6971 24.5278 21.6971C22.7022 21.6971 21.2223 23.1771 21.2222 25.0026C21.2222 11.302 34.5663 7.81102 42 8.003Z" fill="#00DAC8"/>
<defs>
<linearGradient id="paint0_linear_10502_93" x1="33.5" y1="38.6796" x2="27.8366" y2="24.9884" gradientUnits="userSpaceOnUse">
<stop offset="0.0620093" stop-color="#00DAC8"/>
<stop offset="1" stop-color="#4B62F3"/>
</linearGradient>
</defs>
</svg>
