<svg width="50" height="50" viewBox="0 0 50 50" fill="none" xmlns="http://www.w3.org/2000/svg">
<path d="M39.3647 7.5C37.7517 7.5 36.2908 8.56525 36.1386 11.0001C36.0473 12.3393 35.8647 13.0697 35.1952 13.7393C34.5256 14.4089 33.7952 14.622 32.4561 14.6828C30.2343 14.7741 28.9561 16.1742 28.9561 17.909C28.9561 19.6439 30.3561 21.0439 32.0908 21.0439C33.7039 21.0439 35.1647 19.9787 35.3169 17.5438C35.4082 16.2046 35.5908 15.4742 36.2604 14.8046C36.9299 14.135 37.6604 13.9219 38.9995 13.8611C41.2212 13.7698 42.4995 12.3697 42.4995 10.6349C42.4995 8.90005 41.0995 7.5 39.3647 7.5Z" fill="black"/>
<path d="M38.9995 36.1389C37.6604 36.078 36.9299 35.8649 36.2604 35.1953C35.5908 34.5258 35.4082 33.7953 35.3169 32.4561C35.1647 30.0213 33.7039 28.956 32.0908 28.956C30.3561 28.956 28.9561 30.3561 28.9561 32.0909C28.9561 33.8257 30.2343 35.2258 32.4561 35.3171C33.7952 35.378 34.5256 35.591 35.1952 36.2606C35.8647 36.9302 36.0473 37.6606 36.1386 38.9998C36.2908 41.4347 37.7517 42.4999 39.3647 42.4999C41.0995 42.4999 42.4995 41.0999 42.4995 39.365C42.4995 37.6302 41.2212 36.2302 38.9995 36.1389Z" fill="black"/>
<path d="M17.9086 28.956C16.2956 28.956 14.8347 30.0213 14.6826 32.4561C14.5913 33.7953 14.4086 34.5258 13.7391 35.1953C13.0695 35.8649 12.3391 36.078 11 36.1389C8.77825 36.2302 7.5 37.6302 7.5 39.365C7.5 41.0999 8.89999 42.4999 10.6348 42.4999C12.2478 42.4999 13.7086 41.4347 13.8608 38.9998C13.9521 37.6606 14.1347 36.9302 14.8043 36.2606C15.4739 35.591 16.2043 35.378 17.5434 35.3171C19.7651 35.2258 21.0434 33.8257 21.0434 32.0909C21.0434 30.3561 19.6434 28.956 17.9086 28.956Z" fill="black"/>
<path d="M17.5434 14.6828C16.2043 14.622 15.4739 14.4089 14.8043 13.7393C14.1347 13.0697 13.9521 12.3393 13.8608 11.0001C13.7086 8.56525 12.2478 7.5 10.6348 7.5C8.89999 7.5 7.5 8.90005 7.5 10.6349C7.5 12.3697 8.77825 13.7698 11 13.8611C12.3391 13.9219 13.0695 14.135 13.7391 14.8046C14.4086 15.4742 14.5913 16.2046 14.6826 17.5438C14.8347 19.9787 16.2956 21.0439 17.9086 21.0439C19.6434 21.0439 21.0434 19.6439 21.0434 17.909C21.0434 16.1742 19.7651 14.7741 17.5434 14.6828Z" fill="black"/>
<path d="M25.0003 21.2568C22.8698 21.2568 21.2568 22.8698 21.2568 25.0004C21.2568 27.1309 22.8698 28.744 25.0003 28.744C27.1307 28.744 28.7437 27.1309 28.7437 25.0004C28.7437 22.8698 27.1307 21.2568 25.0003 21.2568Z" fill="black"/>
</svg>
