<svg width="50" height="50" viewBox="0 0 50 50" fill="none" xmlns="http://www.w3.org/2000/svg">
<rect width="50" height="50" fill="white"/>
<path d="M38.2994 9C36.8192 9 35.4786 9.97748 35.339 12.2117C35.2552 13.4405 35.0877 14.1108 34.4732 14.7252C33.8588 15.3397 33.1885 15.5351 31.9597 15.591C29.921 15.6748 28.748 16.9595 28.748 18.5514C28.748 20.1433 30.0327 21.428 31.6246 21.428C33.1048 21.428 34.4453 20.4505 34.5849 18.2162C34.6687 16.9874 34.8363 16.3171 35.4507 15.7027C36.0651 15.0883 36.7354 14.8928 37.9642 14.8369C40.003 14.7532 41.1759 13.4685 41.1759 11.8766C41.1759 10.2847 39.8913 9 38.2994 9Z" fill="black"/>
<path d="M37.9642 35.2795C36.7354 35.2237 36.0651 35.0282 35.4507 34.4138C34.8363 33.7994 34.6687 33.1291 34.5849 31.9003C34.4453 29.666 33.1048 28.6885 31.6246 28.6885C30.0327 28.6885 28.748 29.9732 28.748 31.5651C28.748 33.157 29.921 34.4417 31.9597 34.5255C33.1885 34.5813 33.8588 34.7768 34.4732 35.3913C35.0877 36.0057 35.2552 36.6759 35.339 37.9048C35.4786 40.139 36.8192 41.1165 38.2994 41.1165C39.8913 41.1165 41.1759 39.8318 41.1759 38.2399C41.1759 36.648 40.003 35.3633 37.9642 35.2795Z" fill="black"/>
<path d="M18.61 28.6885C17.1298 28.6885 15.7892 29.666 15.6496 31.9003C15.5658 33.1291 15.3982 33.7994 14.7838 34.4138C14.1694 35.0282 13.4991 35.2237 12.2703 35.2795C10.2316 35.3633 9.05859 36.648 9.05859 38.2399C9.05859 39.8318 10.3433 41.1165 11.9352 41.1165C13.4154 41.1165 14.7559 40.139 14.8955 37.9048C14.9793 36.6759 15.1469 36.0057 15.7613 35.3913C16.3757 34.7768 17.046 34.5813 18.2748 34.5255C20.3136 34.4417 21.4865 33.157 21.4865 31.5651C21.4865 29.9732 20.2019 28.6885 18.61 28.6885Z" fill="black"/>
<path d="M18.2748 15.591C17.046 15.5351 16.3757 15.3397 15.7613 14.7252C15.1469 14.1108 14.9793 13.4405 14.8955 12.2117C14.7559 9.97748 13.4154 9 11.9352 9C10.3433 9 9.05859 10.2847 9.05859 11.8766C9.05859 13.4685 10.2316 14.7532 12.2703 14.8369C13.4991 14.8928 14.1694 15.0883 14.7838 15.7027C15.3982 16.3171 15.5658 16.9874 15.6496 18.2162C15.7892 20.4505 17.1298 21.428 18.61 21.428C20.2019 21.428 21.4865 20.1433 21.4865 18.5514C21.4865 16.9595 20.3136 15.6748 18.2748 15.591Z" fill="black"/>
<path d="M25.1169 21.624C23.1619 21.624 21.6818 23.1042 21.6818 25.0592C21.6818 27.0141 23.1619 28.4943 25.1169 28.4943C27.0719 28.4943 28.552 27.0141 28.552 25.0592C28.552 23.1042 27.0719 21.624 25.1169 21.624Z" fill="black"/>
</svg>
