<svg width="50" height="50" viewBox="0 0 50 50" fill="none" xmlns="http://www.w3.org/2000/svg">
<path fill-rule="evenodd" clip-rule="evenodd" d="M16.6602 32.6058C15.8544 33.328 15.1829 33.1943 14.4577 33.3013C13.7862 33.4083 13.1684 33.4885 12.6849 33.97C11.7717 34.8795 11.7717 36.3507 12.6849 37.2601C13.5982 38.1696 15.0754 38.1696 15.9887 37.2601C16.4453 36.8054 16.6333 36.0297 16.6602 35.4947C16.7139 34.7992 16.687 34.0502 17.3585 33.3013C18.1106 32.6325 18.8627 32.6593 19.561 32.6058C20.0982 32.579 20.8771 32.3918 21.3338 31.9371C22.247 31.0276 22.247 29.5564 21.3338 28.6469C20.4205 27.7375 18.9432 27.7375 18.03 28.6469C17.5465 29.1284 17.4391 29.7437 17.3585 30.4124C17.2511 31.1079 17.3854 31.8033 16.6602 32.6058Z" fill="#6C778F"/>
<path fill-rule="evenodd" clip-rule="evenodd" d="M32.6414 16.6366C31.8356 17.3588 31.1641 17.225 30.4389 17.332C29.7674 17.439 29.1496 17.5193 28.6661 18.0008C27.7529 18.9102 27.7529 20.3814 28.6661 21.2909C29.5794 22.2003 31.0566 22.2003 31.9699 21.2909C32.4265 20.8362 32.6145 20.0604 32.6414 19.5254C32.6951 18.83 32.6682 18.081 33.3397 17.332C34.0918 16.6633 34.8439 16.6901 35.5422 16.6366C36.0794 16.6098 36.8584 16.4226 37.315 15.9678C38.2282 15.0584 38.2282 13.5872 37.315 12.6777C36.4017 11.7682 34.9244 11.7682 34.0112 12.6777C33.5277 13.1592 33.4203 13.7744 33.3397 14.4431C33.2323 15.1386 33.3397 15.8341 32.6414 16.6366Z" fill="#6C778F"/>
<path fill-rule="evenodd" clip-rule="evenodd" d="M32.6414 33.3547C33.3666 34.1572 33.2323 34.8259 33.3397 35.5482C33.4472 36.2169 33.5277 36.8321 34.0112 37.3136C34.9244 38.2231 36.4017 38.2231 37.315 37.3136C38.2282 36.4041 38.2282 34.9329 37.315 34.0235C36.8584 33.5687 36.0794 33.3815 35.5422 33.3547C34.8439 33.3012 34.0918 33.328 33.3397 32.6593C32.6682 31.9103 32.6951 31.1613 32.6414 30.4658C32.6145 29.9309 32.4265 29.1551 31.9699 28.7004C31.0566 27.7909 29.5794 27.7909 28.6661 28.7004C27.7529 29.6099 27.7529 31.0811 28.6661 31.9905C29.1496 32.472 29.7674 32.579 30.4389 32.6593C31.1372 32.7395 31.8356 32.6325 32.6414 33.3547Z" fill="#6C778F"/>
<path fill-rule="evenodd" clip-rule="evenodd" d="M16.6602 17.3589C17.3854 18.1614 17.2511 18.8301 17.3585 19.5523C17.466 20.221 17.5465 20.8363 18.03 21.3177C18.9432 22.2272 20.4205 22.2272 21.3338 21.3177C22.247 20.4083 22.247 18.9371 21.3338 18.0276C20.8771 17.5729 20.0982 17.3856 19.561 17.3589C18.8627 17.3054 18.1106 17.3321 17.3585 16.6634C16.687 15.9144 16.7139 15.1655 16.6602 14.47C16.6333 13.935 16.4453 13.1593 15.9887 12.7046C15.0754 11.7951 13.5982 11.7951 12.6849 12.7046C11.7717 13.614 11.7717 15.0852 12.6849 15.9947C13.1684 16.4762 13.7862 16.5832 14.4577 16.6634C15.1829 16.7437 15.8544 16.6367 16.6602 17.3589Z" fill="#6C778F"/>
<path fill-rule="evenodd" clip-rule="evenodd" d="M24.9599 27.7908C26.5178 27.7908 27.7533 26.5336 27.7533 25.0089C27.7533 23.4843 26.4909 22.2271 24.9599 22.2271C23.4021 22.2271 22.1665 23.4843 22.1665 25.0089C22.1665 26.5336 23.4289 27.7908 24.9599 27.7908Z" fill="#6C778F"/>
</svg>
