<svg width="50" height="50" viewBox="0 0 50 50" fill="none" xmlns="http://www.w3.org/2000/svg">
<rect width="50" height="50" rx="25" fill="#E5E5E5"/>
<path d="M38.2994 9C36.8192 9 35.4786 9.97748 35.339 12.2117C35.2552 13.4405 35.0876 14.1108 34.4732 14.7252C33.8588 15.3397 33.1885 15.5351 31.9597 15.591C29.921 15.6748 28.748 16.9595 28.748 18.5514C28.748 20.1433 30.0327 21.428 31.6246 21.428C33.1048 21.428 34.4453 20.4505 34.5849 18.2162C34.6687 16.9874 34.8363 16.3171 35.4507 15.7027C36.0651 15.0883 36.7354 14.8928 37.9642 14.8369C40.003 14.7532 41.1759 13.4685 41.1759 11.8766C41.1759 10.2847 39.8913 9 38.2994 9Z" fill="#FF6112"/>
<path d="M18.61 28.6885C17.1298 28.6885 15.7892 29.666 15.6496 31.9003C15.5658 33.1291 15.3982 33.7994 14.7838 34.4138C14.1694 35.0282 13.4991 35.2237 12.2703 35.2795C10.2316 35.3633 9.05859 36.648 9.05859 38.2399C9.05859 39.8318 10.3433 41.1165 11.9352 41.1165C13.4154 41.1165 14.7559 40.139 14.8955 37.9048C14.9793 36.6759 15.1469 36.0057 15.7613 35.3913C16.3757 34.7768 17.046 34.5813 18.2748 34.5255C20.3136 34.4417 21.4865 33.157 21.4865 31.5651C21.4865 29.9732 20.2019 28.6885 18.61 28.6885Z" fill="#FF6112"/>
<path d="M18.2748 15.591C17.046 15.5351 16.3757 15.3397 15.7613 14.7252C15.1469 14.1108 14.9793 13.4405 14.8955 12.2117C14.7559 9.97748 13.4154 9 11.9352 9C10.3433 9 9.05859 10.2847 9.05859 11.8766C9.05859 13.4685 10.2316 14.7532 12.2703 14.8369C13.4991 14.8928 14.1694 15.0883 14.7838 15.7027C15.3982 16.3171 15.5658 16.9874 15.6496 18.2162C15.7892 20.4505 17.1298 21.428 18.61 21.428C20.2019 21.428 21.4865 20.1433 21.4865 18.5514C21.4865 16.9595 20.3136 15.6748 18.2748 15.591Z" fill="#FF6112"/>
<path d="M25.1169 21.624C23.1619 21.624 21.6818 23.1042 21.6818 25.0592C21.6818 27.0141 23.1619 28.4943 25.1169 28.4943C27.0719 28.4943 28.552 27.0141 28.552 25.0592C28.552 23.1042 27.0719 21.624 25.1169 21.624Z" fill="#FF6112"/>
<path d="M36.4893 34.6775C36.6652 34.4283 37.0044 34.4075 37.2052 34.6336L38.503 36.201C38.5489 36.2533 38.6466 36.4415 38.6534 36.5135C38.7538 37.6572 37.6522 37.6907 37.3595 37.3992C37.0456 37.0864 36.9409 36.2558 36.8907 36.7088C36.8647 36.9414 36.6061 37.3583 36.4552 37.4265C35.4784 37.8677 35.1274 37.0771 35.1632 36.6785C35.1717 36.584 35.2469 36.367 35.2999 36.2918L36.4893 34.6775Z" fill="black"/>
<path fill-rule="evenodd" clip-rule="evenodd" d="M33.6202 29.6394C34.885 29.6395 35.9102 30.665 35.9102 31.9295C35.9102 33.194 34.885 34.2194 33.6202 34.2195C32.3555 34.2195 31.3302 33.1939 31.3302 31.9295C31.3302 30.665 32.3555 29.6394 33.6202 29.6394ZM33.6202 31.1394C33.1841 31.1394 32.8302 31.4932 32.8302 31.9295C32.8302 32.3657 33.1841 32.7195 33.6202 32.7195C34.0565 32.7194 34.4102 32.3656 34.4102 31.9295C34.4102 31.4933 34.0565 31.1395 33.6202 31.1394Z" fill="black"/>
<path fill-rule="evenodd" clip-rule="evenodd" d="M39.7794 29.6394C41.0442 29.6395 42.0694 30.665 42.0694 31.9295C42.0694 33.194 41.0442 34.2194 39.7794 34.2195C38.5147 34.2195 37.4894 33.1939 37.4893 31.9295C37.4893 30.665 38.5146 29.6394 39.7794 29.6394ZM39.7794 31.1394C39.3432 31.1394 38.9893 31.4932 38.9893 31.9295C38.9894 32.3657 39.3433 32.7195 39.7794 32.7195C40.2157 32.7194 40.5694 32.3656 40.5694 31.9295C40.5694 31.4933 40.2157 31.1395 39.7794 31.1394Z" fill="black"/>
<path fill-rule="evenodd" clip-rule="evenodd" d="M36.3184 24.2537C38.7046 24.1985 40.5101 24.7669 41.8507 25.7361C43.1868 26.7021 43.9959 28.0185 44.4757 29.3494C45.4238 31.9799 45.1324 34.7889 45.0108 35.5545C44.927 36.082 44.6862 36.4962 44.3263 36.7781C43.9837 37.0463 43.5933 37.1488 43.2755 37.1844C42.8626 37.2305 42.4461 37.1831 42.047 37.074C42.0495 37.3735 42.0622 38.2757 42.046 38.5076C41.9879 39.3508 41.8326 40.1984 41.6153 40.8875C41.5293 41.1603 41.3651 41.496 41.0167 41.6785C40.699 41.8446 40.3444 41.8126 40.0284 41.6697C39.8147 41.934 39.5708 42.1527 39.2764 42.2683C38.8709 42.4274 38.493 42.3515 38.2081 42.1912C38.0228 42.0869 37.8762 41.9478 37.7735 41.8357C37.3875 42.2434 36.8247 42.4979 36.2764 42.24C36.043 42.13 35.8601 41.946 35.7139 41.7371C35.3863 42.0612 35.124 42.3787 34.6153 42.3787C34.3079 42.3786 33.9987 42.2672 33.7794 42.0838C33.6376 41.9651 33.5352 41.8091 33.4347 41.656C33.1428 41.8146 32.8132 41.8845 32.4854 41.7957C32.1866 41.7146 31.952 41.5258 31.7706 41.3035C31.3436 40.78 31.3072 39.9848 31.2716 39.3445C31.2536 38.7798 31.2478 38.2162 31.2491 37.6511C31.2494 37.5056 31.2488 37.3706 31.2491 37.2615C30.4272 37.3709 29.7966 37.2253 29.3233 36.8992C28.863 36.5819 28.6457 36.1514 28.5518 35.9803C28.3926 35.6887 28.3625 35.3765 28.3292 35.0535C28.2365 34.0978 28.087 31.7741 28.8116 29.532C29.2301 28.2372 29.9521 26.9326 31.1749 25.9392C32.4046 24.9404 34.0814 24.3056 36.3184 24.2537ZM32.1202 27.1033C33.0528 26.3458 34.3941 25.7982 36.3526 25.7527C38.4747 25.7035 39.9436 26.2078 40.9718 26.951C42.0044 27.6975 42.6592 28.7338 43.0645 29.8582C43.886 32.1372 43.6358 34.6487 43.5294 35.3191C43.4992 35.5089 43.4352 35.571 43.4014 35.5974C43.1703 35.7777 42.7496 35.7102 42.4932 35.6433C41.0167 35.2146 40.547 36.4682 40.547 36.9998C40.547 37.2675 40.5621 38.2146 40.5489 38.4031C40.5069 39.0132 40.4053 39.6155 40.2725 40.1228C40.0998 40.0537 39.9169 40.0202 39.7305 40.0476C39.3005 40.1113 39.0901 40.4679 38.8311 40.7664C38.4859 40.3438 38.0507 40.0451 37.4786 40.1912C37.1861 40.2661 36.9792 40.4256 36.8028 40.6619C36.5551 40.2999 36.1535 40.0768 35.712 40.1092C35.2673 40.1586 34.9159 40.409 34.6114 40.7185L34.6007 40.7021C34.3681 40.3452 34.1006 40.0519 33.6456 40.031C33.3785 40.019 33.1232 40.0921 32.8966 40.2303C32.7613 39.7386 32.7557 39.2066 32.7503 38.7004L32.7501 38.6834C32.7438 38.0981 32.765 37.5116 32.7472 36.9265C32.7048 36.49 32.2796 35.5974 31.0899 35.7713C30.5273 35.8535 30.2816 35.7374 30.1749 35.6638C30 35.5434 29.8725 35.3901 29.8536 35.2146L29.8511 35.1917C29.7811 34.5418 29.5282 32.1934 30.2393 29.9929C30.595 28.8926 31.181 27.8663 32.1202 27.1033Z" fill="black"/>
<path fill-rule="evenodd" clip-rule="evenodd" d="M36.3526 25.7527C34.3941 25.7982 33.0528 26.3458 32.1202 27.1033C31.181 27.8663 30.595 28.8926 30.2393 29.9929C29.5282 32.1934 29.7811 34.5418 29.8511 35.1917L29.8536 35.2146C29.8725 35.3901 30 35.5434 30.1749 35.6638C30.2816 35.7374 30.5273 35.8535 31.0899 35.7713C32.2796 35.5974 32.7048 36.49 32.7472 36.9265C32.765 37.5116 32.7438 38.0981 32.7501 38.6834L32.7503 38.7004C32.7557 39.2066 32.7613 39.7386 32.8966 40.2303C33.1232 40.0921 33.3785 40.019 33.6456 40.031C34.1006 40.0519 34.3681 40.3452 34.6007 40.7021L34.6114 40.7185C34.9159 40.409 35.2673 40.1586 35.712 40.1092C36.1535 40.0768 36.5551 40.2999 36.8028 40.6619C36.9792 40.4256 37.1861 40.2661 37.4786 40.1912C38.0507 40.0451 38.4859 40.3438 38.8311 40.7664C39.0901 40.4679 39.3005 40.1113 39.7305 40.0476C39.9169 40.0202 40.0998 40.0537 40.2725 40.1228C40.4053 39.6155 40.5069 39.0132 40.5489 38.4031C40.5621 38.2146 40.547 37.2675 40.547 36.9998C40.547 36.4682 41.0167 35.2146 42.4932 35.6433C42.7496 35.7102 43.1703 35.7777 43.4014 35.5974C43.4352 35.571 43.4992 35.5089 43.5294 35.3191C43.6358 34.6487 43.886 32.1372 43.0645 29.8582C42.6592 28.7338 42.0044 27.6975 40.9718 26.951C39.9436 26.2078 38.4747 25.7035 36.3526 25.7527ZM37.2052 34.6336C37.0044 34.4075 36.6652 34.4283 36.4893 34.6775L35.2999 36.2918C35.2469 36.367 35.1717 36.584 35.1632 36.6785C35.1274 37.0771 35.4784 37.8677 36.4552 37.4265C36.6061 37.3583 36.8647 36.9414 36.8907 36.7088C36.9409 36.2558 37.0456 37.0864 37.3595 37.3992C37.6522 37.6907 38.7538 37.6572 38.6534 36.5135C38.6466 36.4415 38.5489 36.2533 38.503 36.201L37.2052 34.6336ZM35.9102 31.9295C35.9102 30.665 34.885 29.6395 33.6202 29.6394C32.3555 29.6394 31.3302 30.665 31.3302 31.9295C31.3302 33.1939 32.3555 34.2195 33.6202 34.2195C34.885 34.2194 35.9102 33.194 35.9102 31.9295ZM42.0694 31.9295C42.0694 30.665 41.0442 29.6395 39.7794 29.6394C38.5146 29.6394 37.4893 30.665 37.4893 31.9295C37.4894 33.1939 38.5147 34.2195 39.7794 34.2195C41.0442 34.2194 42.0694 33.194 42.0694 31.9295Z" fill="white"/>
</svg>
