<svg width="50" height="50" viewBox="0 0 50 50" fill="none" xmlns="http://www.w3.org/2000/svg">
<rect width="50" height="50" fill="#077AD3"/>
<path d="M36.0526 25.6383C36.1513 26.0333 35.9885 26.4945 35.6387 26.7144C33.9305 28.0662 32.2361 29.4501 30.5483 30.8316C30.3987 30.9946 30.178 31.0488 29.9689 30.9661C27.7124 30.1226 25.4426 29.2928 23.1816 28.4584C20.8659 27.5975 21.3192 28.6415 21.3192 30.8977L21.2364 30.9273C19.5686 28.8645 18.0173 26.6716 16.4357 24.5417C16.3879 24.4863 16.3387 24.4439 16.2701 24.4186C15.3079 24.0106 14.3376 23.6002 13.3731 23.2013C13.1911 23.1532 13.0619 22.9646 13.0834 22.7772C13.0834 20.7254 13.1134 18.6851 13.1248 16.6401C13.1288 16.4907 13.1611 16.346 13.2489 16.2252C13.8449 15.4296 14.474 14.6476 15.0699 13.8497C15.2475 13.6017 15.4781 13.4248 15.7735 13.3504C18.0481 12.7075 20.3275 12.0396 22.6022 11.3898C22.8065 11.3579 22.9691 11.1534 22.9333 10.9521C22.9198 9.96966 22.9333 8.98693 22.9333 8.00439C25.5945 9.45047 28.1785 11.1029 30.7552 12.6939C30.8947 12.7825 31.0476 12.8424 31.2104 12.8702C31.3733 12.898 31.5048 12.8931 31.6657 12.8557C33.101 12.6277 34.5741 12.4157 36.0526 12.19C36.0526 12.19 36.0526 21.3539 36.0526 25.6383ZM31.1691 12.9743C31.0394 12.9925 30.9708 12.9948 30.9207 13.0062C26.1896 13.9948 21.4596 14.9824 16.7254 15.9493C16.5298 15.955 16.3637 16.1419 16.3943 16.3323C16.3943 18.9434 16.3943 21.553 16.3943 24.161C16.3943 24.389 16.4911 24.4642 16.7254 24.4802C21.3699 24.7838 25.99 25.2004 30.631 25.554C31.1383 25.5927 31.1277 25.5882 31.1277 25.0684V12.9857L31.1691 12.9743Z" fill="white"/>
<path fill-rule="evenodd" clip-rule="evenodd" d="M14.6446 38.1889C14.6446 36.6692 14.0429 35.0044 12.3609 35.0044C10.5995 35.0044 10.0811 36.6906 10.0811 38.1889C10.0811 39.5911 10.8454 41.0044 12.3687 41.0044C13.7589 41.0044 14.6446 39.9395 14.6446 38.1889ZM13.9002 38.1889C13.9002 39.5689 13.356 40.3507 12.3687 40.3507C11.438 40.3507 10.8254 39.5827 10.8254 38.1889C10.8254 37.1186 11.0134 35.6621 12.3609 35.6621C13.7074 35.6621 13.9002 37.096 13.9002 38.1889Z" fill="white"/>
<path fill-rule="evenodd" clip-rule="evenodd" d="M24.4809 38.6341H23.1403V40.9242H22.3881V35.0846H24.4809C25.7638 35.0846 26.4723 35.8255 26.4723 36.8654C26.4723 37.9871 25.7698 38.6341 24.4809 38.6341ZM23.1403 35.7183V38.0044H24.4809C25.3635 38.0044 25.7202 37.5284 25.7202 36.8734C25.7202 36.1483 25.1636 35.7183 24.4809 35.7183H23.1403Z" fill="white"/>
<path d="M28.0351 37.839V40.9242H27.3141V36.5846H28.0156L28.0298 37.0827C28.2887 36.651 28.869 36.3119 29.3523 36.5605L29.3484 37.2504C28.8226 37.1328 28.2597 37.3005 28.0351 37.839Z" fill="white"/>
<path fill-rule="evenodd" clip-rule="evenodd" d="M31.6906 41.0044C30.5262 41.0044 29.7537 40.0498 29.7537 38.9068C29.7537 37.7665 30.3625 36.5044 31.597 36.5044C32.9262 36.5044 33.3312 37.7631 33.3312 38.963H30.4792C30.4988 39.7602 30.9675 40.3988 31.7295 40.3988C32.2388 40.3988 32.5752 40.1675 32.8402 39.8092L33.2767 40.1662C33.0049 40.5897 32.5308 41.0044 31.6906 41.0044ZM30.5003 38.3573H32.6103C32.6103 37.7409 32.2534 37.114 31.597 37.114C31.0298 37.114 30.5986 37.5532 30.5003 38.3573Z" fill="white"/>
<path d="M34.8901 40.9242V37.7448C35.0505 37.3767 35.3472 37.1301 35.8605 37.1301C36.405 37.1301 36.7607 37.3889 36.7607 38.0686V40.9242H37.4817V38.0336C37.536 37.5305 37.8827 37.1301 38.456 37.1301C39.0119 37.1301 39.3562 37.3339 39.3562 38.0646V40.9242H40.0811V38.0726C40.0811 36.9851 39.5795 36.5044 38.6664 36.5044C38.0646 36.5044 37.6069 36.7807 37.3254 37.1985C37.102 36.7148 36.6597 36.5044 36.1177 36.5044C35.5765 36.5044 35.1585 36.7054 34.8725 37.057L34.8511 36.5846H34.1652V40.9242H34.8901Z" fill="white"/>
<path d="M21.5737 38.7464V38.1367H19.6719V38.7464H21.5737Z" fill="white"/>
<path d="M16.3664 37.1245L16.3437 36.5846H15.6617V40.9242H16.3827V37.8273C16.6496 37.2809 17.3026 36.9336 17.8714 37.2263C18.1189 37.3484 18.2533 37.6144 18.2533 38.0726V40.9242H18.9782V38.0806C18.9782 36.9305 18.4562 36.5044 17.6259 36.5044C17.1069 36.5044 16.6707 36.7298 16.3664 37.1245Z" fill="white"/>
</svg>
