<svg width="50" height="50" viewBox="0 0 50 50" fill="none" xmlns="http://www.w3.org/2000/svg">
<path d="M42.9996 34.9439C43.1487 35.5403 42.9028 36.2366 42.3746 36.5685C39.7949 38.6096 37.236 40.6988 34.6871 42.7846C34.4612 43.0307 34.128 43.1126 33.8121 42.9877C30.4045 41.7142 26.9766 40.4613 23.5621 39.2016C20.065 37.9019 20.7496 39.478 20.7496 42.8844L20.6246 42.9292C18.1058 39.8148 15.7632 36.5039 13.3746 33.2883C13.3025 33.2046 13.2283 33.1406 13.1246 33.1025C11.6716 32.4864 10.2061 31.8668 8.74963 31.2645C8.47485 31.1919 8.2796 30.9072 8.31213 30.6243C8.31213 27.5265 8.35746 24.446 8.37463 21.3586C8.38073 21.133 8.42952 20.9146 8.56213 20.7322C9.46214 19.5309 10.4121 18.3503 11.3121 17.1457C11.5803 16.7712 11.9286 16.5042 12.3746 16.3919C15.8098 15.4213 19.252 14.4128 22.6871 13.4318C22.9956 13.3836 23.2412 13.0748 23.1871 12.771C23.1668 11.2877 23.1871 9.80396 23.1871 8.32056C27.2061 10.5038 31.1083 12.9987 34.9996 15.4006C35.2103 15.5344 35.4412 15.6249 35.6871 15.6669C35.933 15.7088 36.1316 15.7014 36.3746 15.645C38.5422 15.3008 40.7668 14.9807 42.9996 14.6399C42.9996 14.6399 42.9996 28.4754 42.9996 34.9439ZM35.6246 15.824C35.4288 15.8515 35.3252 15.8549 35.2496 15.8722C28.1048 17.3648 20.9617 18.8558 13.8121 20.3157C13.5168 20.3242 13.2659 20.6065 13.3121 20.8939C13.3121 24.8361 13.3121 28.776 13.3121 32.7135C13.3121 33.0577 13.4583 33.1713 13.8121 33.1954C20.8261 33.6537 27.8033 34.2828 34.8121 34.8166C35.5782 34.8751 35.5621 34.8682 35.5621 34.0834V15.8412L35.6246 15.824Z" fill="#077AD3"/>
</svg>
