<svg width="50" height="50" viewBox="0 0 50 50" fill="none" xmlns="http://www.w3.org/2000/svg">
<path d="M38.9654 27.4674C39.0855 27.9483 38.8873 28.5097 38.4615 28.7773C36.3819 30.4231 34.3191 32.1078 32.2644 33.7896C32.0823 33.9881 31.8137 34.0541 31.5591 33.9534C28.8121 32.9265 26.0488 31.9163 23.2963 30.9005C20.4772 29.8525 21.029 31.1234 21.029 33.8701L20.9283 33.9062C18.8978 31.3949 17.0094 28.7253 15.0839 26.1324C15.0258 26.0649 14.9659 26.0133 14.8823 25.9826C13.711 25.4858 12.5297 24.9862 11.3555 24.5005C11.134 24.442 10.9766 24.2124 11.0029 23.9843C11.0029 21.4865 11.0394 19.0025 11.0532 16.513C11.0582 16.3311 11.0975 16.155 11.2044 16.0079C11.9299 15.0393 12.6957 14.0874 13.4212 13.116C13.6374 12.8141 13.9181 12.5987 14.2777 12.5082C17.0469 11.7256 19.8218 10.9124 22.5909 10.1214C22.8396 10.0825 23.0376 9.83354 22.994 9.58854C22.9776 8.39249 22.994 7.19612 22.994 6C26.2338 7.76044 29.3794 9.77215 32.5163 11.7089C32.6862 11.8168 32.8723 11.8898 33.0706 11.9236C33.2688 11.9574 33.4289 11.9514 33.6248 11.906C35.3721 11.6284 37.1654 11.3703 38.9654 11.0956C38.9654 11.0956 38.9654 22.2516 38.9654 27.4674ZM33.0202 12.0503C32.8623 12.0725 32.7788 12.0753 32.7179 12.0891C26.9582 13.2927 21.2 14.495 15.4365 15.6721C15.1985 15.679 14.9962 15.9066 15.0335 16.1384C15.0335 19.3171 15.0335 22.4939 15.0335 25.6689C15.0335 25.9465 15.1513 26.0381 15.4365 26.0575C21.0907 26.4271 26.7152 26.9343 32.3652 27.3647C32.9827 27.4119 32.9698 27.4063 32.9698 26.7735V12.0642L33.0202 12.0503Z" fill="#077AD3"/>
<path fill-rule="evenodd" clip-rule="evenodd" d="M12.2988 41.6699C12.2988 39.8198 11.545 37.793 9.4375 37.793C7.23059 37.793 6.58105 39.8458 6.58105 41.6699C6.58105 43.3771 7.53876 45.0977 9.44727 45.0977C11.1891 45.0977 12.2988 43.8012 12.2988 41.6699ZM11.3662 41.6699C11.3662 43.35 10.6843 44.3018 9.44727 44.3018C8.28123 44.3018 7.51367 43.3668 7.51367 41.6699C7.51367 40.3669 7.74921 38.5938 9.4375 38.5938C11.1247 38.5938 11.3662 40.3394 11.3662 41.6699Z" fill="black"/>
<path fill-rule="evenodd" clip-rule="evenodd" d="M24.623 42.2119H22.9434V45H22.001V37.8906H24.623C26.2304 37.8906 27.1182 38.7926 27.1182 40.0586C27.1182 41.4243 26.2379 42.2119 24.623 42.2119ZM22.9434 38.6621V41.4453H24.623C25.7289 41.4453 26.1758 40.8658 26.1758 40.0684C26.1758 39.1856 25.4784 38.6621 24.623 38.6621H22.9434Z" fill="black"/>
<path d="M29.0762 41.244V45H28.1729V39.7168H29.0518L29.0696 40.3232C29.3939 39.7976 30.121 39.3847 30.7266 39.6875L30.7217 40.5273C30.0629 40.3841 29.3576 40.5884 29.0762 41.244Z" fill="black"/>
<path fill-rule="evenodd" clip-rule="evenodd" d="M33.6562 45.0977C32.1973 45.0977 31.2295 43.9355 31.2295 42.5439C31.2295 41.1557 31.9923 39.6191 33.5391 39.6191C35.2045 39.6191 35.7119 41.1516 35.7119 42.6123H32.1386C32.163 43.5829 32.7502 44.3604 33.7051 44.3604C34.3431 44.3604 34.7646 44.0788 35.0967 43.6426L35.6436 44.0771C35.303 44.5928 34.709 45.0977 33.6562 45.0977ZM32.165 41.875H34.8086C34.8086 41.1246 34.3614 40.3613 33.5391 40.3613C32.8284 40.3613 32.2881 40.896 32.165 41.875Z" fill="black"/>
<path d="M37.665 45V41.1292C37.8661 40.6811 38.2377 40.3809 38.8809 40.3809C39.5631 40.3809 40.0088 40.696 40.0088 41.5234V45H40.9121V41.4808C40.9802 40.8684 41.4146 40.3809 42.1328 40.3809C42.8293 40.3809 43.2607 40.629 43.2607 41.5186V45H44.1689V41.5283C44.1689 40.2044 43.5405 39.6191 42.3965 39.6191C41.6424 39.6191 41.069 39.9555 40.7163 40.4642C40.4364 39.8753 39.8823 39.6191 39.2031 39.6191C38.525 39.6191 38.0013 39.8638 37.643 40.2919L37.6162 39.7168H36.7568V45H37.665Z" fill="black"/>
<path d="M20.9805 42.3486V41.6064H18.5977V42.3486H20.9805Z" fill="black"/>
<path d="M14.4562 40.3741L14.4277 39.7168H13.5732V45H14.4766V41.2297C14.811 40.5645 15.6291 40.1417 16.3418 40.498C16.6519 40.6466 16.8203 40.9706 16.8203 41.5283V45H17.7285V41.5381C17.7285 40.1379 17.0745 39.6191 16.0342 39.6191C15.384 39.6191 14.8374 39.8936 14.4562 40.3741Z" fill="black"/>
</svg>
