<svg width="50" height="50" viewBox="0 0 50 50" fill="none" xmlns="http://www.w3.org/2000/svg">
<path d="M21 6.00001H28.1038L20.7293 28.9292C20.5777 29.4005 20.1302 29.7377 19.6563 29.7378H14.1277C13.3505 29.7379 12.8215 28.9015 13.0561 28.1717L19.9267 6.80853C20.0782 6.33711 20.5259 6.00004 21 6.00001Z" fill="url(#paint0_linear_9176_22740)"/>
<path d="M31.3229 21.3795H20.0579C19.5836 21.3789 19.3764 22.0085 19.7019 22.3268L26.9405 29.4169C27.1513 29.6232 27.4288 29.7379 27.717 29.7378H34.0956L31.3229 21.3795Z" fill="#0078D4"/>
<path d="M21 6.00001C20.5207 5.99808 20.0686 6.3447 19.9244 6.82435L13.0648 28.1523C12.814 28.8857 13.3442 29.7401 14.131 29.7378C15.5203 29.7378 20.1283 30.711 20.7326 28.9075L22.1005 24.6768C23.3143 25.8649 25.9247 29.7225 27.7142 29.7378H34.0691L31.2819 21.3795L23.1569 21.3815L28.1297 6.00008L21 6.00001Z" fill="url(#paint1_linear_9176_22740)"/>
<path d="M30.073 6.80751C29.9217 6.33685 29.4747 6.00008 29.0013 6.00014H21.0842C21.5575 6.00016 22.0045 6.3369 22.1558 6.80751L29.0267 28.1715C29.2652 28.913 28.7195 29.7381 27.955 29.7382H35.8724C36.6498 29.7379 37.1786 28.9015 36.9438 28.1715L30.073 6.80751Z" fill="url(#paint2_linear_9176_22740)"/>
<path d="M16.1836 34.5V42H15.2754V34.5H16.1836Z" fill="black"/>
<path d="M34.3867 36.7168V42H33.4785V36.7168H34.3867Z" fill="black"/>
<path d="M33.4102 35.3154C33.4102 35.0201 33.5936 34.793 33.9424 34.793C34.2902 34.793 34.4795 35.0248 34.4795 35.3154C34.4795 35.5907 34.2934 35.8232 33.9424 35.8232C33.5905 35.8232 33.4102 35.5951 33.4102 35.3154Z" fill="black"/>
<path d="M37.9512 41.3555C38.5986 41.3555 39.1479 40.9205 39.1963 40.3301H40.0557C40.0007 41.3861 38.9391 42.0977 37.9512 42.0977C36.4458 42.0977 35.6025 40.8482 35.6025 39.4609C35.6025 38.0362 36.3516 36.6191 37.9512 36.6191C39.1865 36.6191 40.0067 37.4355 40.0557 38.5332H39.1963C39.1478 37.8837 38.6785 37.3613 37.9512 37.3613C36.8006 37.3613 36.5059 38.5247 36.5059 39.4609C36.5059 40.3735 36.883 41.3555 37.9512 41.3555Z" fill="black"/>
<path d="M31.3154 40.5986C31.3154 41.0356 30.9283 41.3555 30.1777 41.3555C29.5553 41.3555 28.9579 41.0357 28.9229 40.3691H28.0146C28.0146 41.524 29.1664 42.0977 30.1777 42.0977C31.1197 42.0977 32.2188 41.6214 32.2188 40.5303C32.2188 39.6807 31.6182 39.2461 30.3193 38.9531C29.316 38.7287 29.1035 38.5193 29.1035 38.1377C29.1035 37.7405 29.4169 37.3613 30.1533 37.3613C30.6714 37.3613 31.2617 37.6859 31.2617 38.2695H32.165C32.165 37.1736 31.126 36.6191 30.1533 36.6191C29.2532 36.6191 28.1953 37.1529 28.1953 38.1621C28.1953 39.0429 28.9458 39.442 30.0996 39.6855C30.6113 39.786 31.3154 39.9638 31.3154 40.5986Z" fill="black"/>
<path d="M26.1494 40.5986C26.1494 40.2059 25.9793 39.8908 24.9336 39.6855C23.7798 39.442 23.0293 39.0429 23.0293 38.1621C23.0293 37.3197 23.811 36.6191 24.9873 36.6191C26.2529 36.6191 26.999 37.3557 26.999 38.2695H26.0957C26.0957 37.8304 25.7059 37.3613 24.9873 37.3613C24.2508 37.3613 23.9375 37.7405 23.9375 38.1377C23.9375 38.5193 24.15 38.7287 25.1533 38.9531C26.4522 39.2461 27.0527 39.6807 27.0527 40.5303C27.0527 41.4375 26.2782 42.0977 25.0117 42.0977C24.0004 42.0977 22.8486 41.524 22.8486 40.3691H23.7568C23.7925 41.0477 24.4013 41.3555 25.0117 41.3555C25.7623 41.3555 26.1494 41.0356 26.1494 40.5986Z" fill="black"/>
<path fill-rule="evenodd" clip-rule="evenodd" d="M20.7694 41.4416C20.4357 41.7912 19.928 42.0977 19.2646 42.0977C18.3603 42.0977 17.4775 41.5136 17.4775 40.5303C17.4775 39.6718 18.0028 39.1318 18.874 38.9092C19.4839 38.7533 20.1253 38.7969 20.749 38.7969C20.749 38.0277 20.5758 37.3467 19.6357 37.3467C18.962 37.3467 18.4932 37.7362 18.4932 38.1816H17.5898C17.5898 37.146 18.8051 36.6191 19.6895 36.6191C20.8477 36.6191 21.6523 37.2062 21.6523 38.3867C21.6523 39.3809 21.5506 40.4218 21.6963 41.4092C21.7285 41.6059 21.8379 41.8043 21.8379 42H20.8955C20.8189 41.8249 20.7905 41.6304 20.7694 41.4416ZM20.749 40.5146C20.4979 41.0132 19.9458 41.3066 19.3965 41.3066C18.7359 41.3066 18.3857 40.9076 18.3857 40.4082C18.3857 39.9134 18.712 39.6115 19.3135 39.4951C19.782 39.3969 20.2733 39.4316 20.749 39.4316V40.5146Z" fill="black"/>
<path d="M14.0547 39.7393H13.1172C12.9615 40.7317 12.5628 41.3311 11.3594 41.3311C9.66859 41.3311 9.52344 39.3811 9.52344 38.084C9.52344 36.888 10.0444 35.5645 11.4424 35.5645C12.4319 35.5645 12.9847 36.2057 13.1172 37.1709H14.0547C13.9079 35.762 13.0522 34.793 11.4424 34.793C9.57126 34.793 8.58594 36.3945 8.58594 38.0938C8.58594 39.9273 9.19734 42.0977 11.3594 42.0977C12.8222 42.0977 13.898 41.1812 14.0547 39.7393Z" fill="black"/>
<defs>
<linearGradient id="paint0_linear_9176_22740" x1="29.8276" y1="7.77875" x2="24.2845" y2="32.2993" gradientUnits="userSpaceOnUse">
<stop stop-color="#114A8B"/>
<stop offset="1" stop-color="#0669BC"/>
</linearGradient>
<linearGradient id="paint1_linear_9176_22740" x1="27.6882" y1="18.5551" x2="25.7744" y2="19.2498" gradientUnits="userSpaceOnUse">
<stop stop-opacity="0.3"/>
<stop offset="0.071" stop-opacity="0.2"/>
<stop offset="0.321" stop-opacity="0.1"/>
<stop offset="0.623" stop-opacity="0.05"/>
<stop offset="1" stop-opacity="0"/>
</linearGradient>
<linearGradient id="paint2_linear_9176_22740" x1="24.9548" y1="7.09196" x2="33.7629" y2="29.4536" gradientUnits="userSpaceOnUse">
<stop stop-color="#3CCBF4"/>
<stop offset="1" stop-color="#2892DF"/>
</linearGradient>
</defs>
</svg>
