<svg width="50" height="50" viewBox="0 0 50 50" fill="none" xmlns="http://www.w3.org/2000/svg">
<path d="M20.3333 8.00001H28.6211L20.0175 34.7508C19.8407 35.3005 19.3186 35.6939 18.7657 35.6941H12.3157C11.409 35.6942 10.7917 34.7184 11.0654 33.867L19.0811 8.94329C19.2579 8.39329 19.7802 8.00004 20.3333 8.00001Z" fill="url(#paint0_linear_9371_4684)"/>
<path d="M32.3767 25.9427H19.2343C18.6809 25.9421 18.4392 26.6766 18.8189 27.048L27.2639 35.3197C27.5098 35.5604 27.8336 35.6942 28.1698 35.6941H35.6116L32.3767 25.9427Z" fill="#0078D4"/>
<path d="M20.3333 8.00001C19.7741 7.99776 19.2468 8.40215 19.0785 8.96174L11.0756 33.8443C10.783 34.7 11.4016 35.6967 12.3195 35.6941C13.9403 35.6941 19.3164 36.8295 20.0213 34.7255L21.6173 29.7896C23.0334 31.1758 26.0788 35.6763 28.1665 35.6941H35.5806L32.3289 25.9427L22.8497 25.9451L28.6513 8.00009L20.3333 8.00001Z" fill="url(#paint1_linear_9371_4684)"/>
<path d="M30.9185 8.9421C30.7419 8.39299 30.2204 8.00009 29.6682 8.00016H20.4315C20.9838 8.00019 21.5052 8.39305 21.6818 8.9421L29.6978 33.8668C29.9761 34.7319 29.3394 35.6945 28.4475 35.6945H37.6845C38.5914 35.6943 39.2084 34.7184 38.9345 33.8668L30.9185 8.9421Z" fill="url(#paint2_linear_9371_4684)"/>
<path d="M18.0547 43.7393H17.1172C16.9615 44.7317 16.5628 45.3311 15.3594 45.3311C14.0914 45.3311 13.5234 44.1954 13.5234 42.8018C13.5234 41.4453 13.721 39.5645 15.4424 39.5645C16.542 39.5645 16.9795 40.1676 17.1172 41.1709H18.0547C17.9039 39.7237 16.873 38.793 15.4424 38.793C13.1543 38.793 12.5859 40.8898 12.5859 42.8018C12.5859 44.474 13.5712 46.0977 15.3594 46.0977C16.795 46.0977 17.8942 45.2161 18.0547 43.7393Z" fill="#1C1D1F"/>
<path d="M29.6514 44.2031C29.6514 44.8923 29.1075 45.3311 28.1182 45.3311C27.2168 45.3311 26.3701 44.9146 26.3701 43.9395H25.4326C25.4326 45.3373 26.8471 46.0977 28.1182 46.0977C29.63 46.0977 30.5986 45.3485 30.5986 44.1934C30.5986 43.081 29.8769 42.4609 28.2646 42.0059C27.1101 41.6851 26.5996 41.3178 26.5996 40.7168C26.5996 40.049 27.0712 39.5645 28.0742 39.5645C29.1304 39.5645 29.6416 40.1326 29.6416 40.9414H30.5791C30.5791 39.5767 29.3101 38.793 28.0742 38.793C26.6279 38.793 25.6572 39.6105 25.6572 40.7266C25.6572 41.8321 26.5511 42.4081 27.9619 42.8262C29.3217 43.2222 29.6514 43.5396 29.6514 44.2031Z" fill="#1C1D1F"/>
<path fill-rule="evenodd" clip-rule="evenodd" d="M35.4041 42.2544C36.0501 41.9727 36.4482 41.4361 36.4482 40.7852C36.4482 39.4577 35.5859 38.8906 34.1289 38.8906H31.7998V46H34.29C35.7251 46 36.6387 45.2649 36.6387 43.9492C36.6387 43.1731 36.1628 42.4583 35.4041 42.2544ZM32.7422 42.6748H34.334C35.291 42.6748 35.7012 43.168 35.7012 43.959C35.7012 44.7304 35.1999 45.2334 34.29 45.2334H32.7422V42.6748ZM32.7422 41.918V39.6621H34.1289C35.0701 39.6621 35.5059 39.9934 35.5059 40.7754C35.5059 41.4779 34.9748 41.918 34.1582 41.918H32.7422Z" fill="#1C1D1F"/>
<path fill-rule="evenodd" clip-rule="evenodd" d="M22.1904 38.8906H21.3652L18.6553 46H19.6172L20.2929 44.1396H23.2662L23.9434 46H24.9102L22.1904 38.8906ZM21.778 40.051L20.5731 43.3682H22.9854L21.778 40.051Z" fill="#1C1D1F"/>
<defs>
<linearGradient id="paint0_linear_9371_4684" x1="30.6322" y1="10.0752" x2="24.1652" y2="38.6825" gradientUnits="userSpaceOnUse">
<stop stop-color="#114A8B"/>
<stop offset="1" stop-color="#0669BC"/>
</linearGradient>
<linearGradient id="paint1_linear_9371_4684" x1="28.1363" y1="22.6476" x2="25.9035" y2="23.4581" gradientUnits="userSpaceOnUse">
<stop stop-opacity="0.3"/>
<stop offset="0.071" stop-opacity="0.2"/>
<stop offset="0.321" stop-opacity="0.1"/>
<stop offset="0.623" stop-opacity="0.05"/>
<stop offset="1" stop-opacity="0"/>
</linearGradient>
<linearGradient id="paint2_linear_9371_4684" x1="24.9472" y1="9.27396" x2="35.2233" y2="35.3625" gradientUnits="userSpaceOnUse">
<stop stop-color="#3CCBF4"/>
<stop offset="1" stop-color="#2892DF"/>
</linearGradient>
</defs>
</svg>
