<svg width="50" height="50" viewBox="0 0 50 50" fill="none" xmlns="http://www.w3.org/2000/svg">
<path d="M21.7223 8.10206H28.5301L21.4629 30.0759C21.3176 30.5275 20.8888 30.8506 20.4346 30.8507H15.1364C14.3916 30.8508 13.8846 30.0493 14.1094 29.3499L20.6937 8.87689C20.8389 8.42511 21.2679 8.10209 21.7223 8.10206Z" fill="url(#paint0_linear_12486_93)"/>
<path d="M31.6151 22.8407H20.8195C20.3649 22.8402 20.1664 23.4436 20.4783 23.7486L27.4153 30.5432C27.6173 30.7409 27.8832 30.8509 28.1594 30.8508H34.2723L31.6151 22.8407Z" fill="#0078D4"/>
<path d="M21.7223 8.10206C21.263 8.10021 20.8298 8.43238 20.6916 8.89205L14.1178 29.3313C13.8774 30.0342 14.3855 30.8529 15.1395 30.8508C16.4709 30.8508 20.887 31.7834 21.466 30.0551L22.777 26.0007C23.9402 27.1393 26.4418 30.8361 28.1567 30.8508H34.2469L31.5758 22.8407L23.7893 22.8426L28.5549 8.10213L21.7223 8.10206Z" fill="url(#paint1_linear_12486_93)"/>
<path d="M30.4173 8.87592C30.2723 8.42486 29.8439 8.10213 29.3903 8.10218H21.803C22.2566 8.10221 22.6849 8.42491 22.83 8.87592L29.4146 29.3498C29.6432 30.0604 29.1202 30.8511 28.3876 30.8511H35.9751C36.7201 30.8509 37.2268 30.0493 37.0018 29.3498L30.4173 8.87592Z" fill="url(#paint2_linear_12486_93)"/>
<path d="M17.2985 35.1021V42.0121H16.4327V35.1021H17.2985Z" fill="#7F8BA5"/>
<path d="M34.6515 37.1445V42.0121H33.7857V37.1445H34.6515Z" fill="#7F8BA5"/>
<path d="M33.7205 35.8533C33.7205 35.5812 33.8954 35.372 34.2279 35.372C34.5595 35.372 34.7399 35.5856 34.7399 35.8533C34.7399 36.107 34.5625 36.3212 34.2279 36.3212C33.8925 36.3212 33.7205 36.111 33.7205 35.8533Z" fill="#7F8BA5"/>
<path d="M38.0495 41.4182C38.6666 41.4182 39.1903 41.0175 39.2364 40.4735H40.0557C40.0032 41.4464 38.9912 42.1021 38.0495 42.1021C36.6144 42.1021 35.8105 40.9509 35.8105 39.6727C35.8105 38.3601 36.5246 37.0545 38.0495 37.0545C39.2271 37.0545 40.009 37.8067 40.0557 38.818H39.2364C39.1902 38.2195 38.7428 37.7383 38.0495 37.7383C36.9526 37.7383 36.6716 38.8101 36.6716 39.6727C36.6716 40.5135 37.0312 41.4182 38.0495 41.4182Z" fill="#7F8BA5"/>
<path d="M31.7236 40.7209C31.7236 41.1236 31.3546 41.4182 30.6391 41.4182C30.0457 41.4182 29.4762 41.1236 29.4428 40.5095H28.577C28.577 41.5736 29.6749 42.1021 30.6391 42.1021C31.537 42.1021 32.5848 41.6633 32.5848 40.658C32.5848 39.8752 32.0122 39.4748 30.774 39.2049C29.8176 38.9981 29.615 38.8052 29.615 38.4536C29.615 38.0876 29.9137 37.7383 30.6158 37.7383C31.1097 37.7383 31.6724 38.0374 31.6724 38.5751H32.5336C32.5336 37.5654 31.5431 37.0545 30.6158 37.0545C29.7577 37.0545 28.7492 37.5462 28.7492 38.4761C28.7492 39.2876 29.4647 39.6553 30.5646 39.8797C31.0524 39.9722 31.7236 40.136 31.7236 40.7209Z" fill="#7F8BA5"/>
<path d="M26.7989 40.7209C26.7989 40.3591 26.6367 40.0688 25.6398 39.8797C24.5399 39.6553 23.8245 39.2876 23.8245 38.4761C23.8245 37.6999 24.5697 37.0545 25.691 37.0545C26.8976 37.0545 27.6088 37.7331 27.6088 38.5751H26.7477C26.7477 38.1705 26.3761 37.7383 25.691 37.7383C24.989 37.7383 24.6903 38.0876 24.6903 38.4536C24.6903 38.8052 24.8928 38.9981 25.8493 39.2049C27.0875 39.4748 27.66 39.8752 27.66 40.658C27.66 41.4938 26.9216 42.1021 25.7143 42.1021C24.7502 42.1021 23.6523 41.5736 23.6523 40.5095H24.518C24.5521 41.1347 25.1324 41.4182 25.7143 41.4182C26.4299 41.4182 26.7989 41.1236 26.7989 40.7209Z" fill="#7F8BA5"/>
<path fill-rule="evenodd" clip-rule="evenodd" d="M21.6701 41.4976C21.352 41.8197 20.8681 42.1021 20.2356 42.1021C19.3736 42.1021 18.532 41.5639 18.532 40.658C18.532 39.867 19.0328 39.3695 19.8633 39.1644C20.4446 39.0208 21.0561 39.0609 21.6507 39.0609C21.6507 38.3523 21.4856 37.7248 20.5894 37.7248C19.9472 37.7248 19.5002 38.0837 19.5002 38.4941H18.6391C18.6391 37.5399 19.7975 37.0545 20.6406 37.0545C21.7448 37.0545 22.5118 37.5954 22.5118 38.683C22.5118 39.599 22.4149 40.558 22.5537 41.4677C22.5845 41.649 22.6887 41.8318 22.6887 42.0121H21.7903C21.7173 41.8507 21.6902 41.6716 21.6701 41.4976ZM21.6507 40.6435C21.4113 41.1029 20.885 41.3733 20.3613 41.3733C19.7316 41.3733 19.3978 41.0056 19.3978 40.5455C19.3978 40.0896 19.7088 39.8115 20.2822 39.7042C20.7289 39.6137 21.1972 39.6458 21.6507 39.6458V40.6435Z" fill="#7F8BA5"/>
<path d="M15.269 39.9292H14.3753C14.2269 40.8435 13.8468 41.3958 12.6996 41.3958C11.0878 41.3958 10.9494 39.5992 10.9494 38.4041C10.9494 37.3022 11.446 36.0828 12.7787 36.0828C13.722 36.0828 14.249 36.6736 14.3753 37.5628H15.269C15.1291 36.2647 14.3133 35.372 12.7787 35.372C10.995 35.372 10.0557 36.8475 10.0557 38.4131C10.0557 40.1024 10.6385 42.1021 12.6996 42.1021C14.0941 42.1021 15.1196 41.2577 15.269 39.9292Z" fill="#7F8BA5"/>
<defs>
<linearGradient id="paint0_linear_12486_93" x1="30.1821" y1="9.80669" x2="24.8699" y2="33.3055" gradientUnits="userSpaceOnUse">
<stop stop-color="#114A8B"/>
<stop offset="1" stop-color="#0669BC"/>
</linearGradient>
<linearGradient id="paint1_linear_12486_93" x1="28.1319" y1="20.134" x2="26.2978" y2="20.7997" gradientUnits="userSpaceOnUse">
<stop stop-opacity="0.3"/>
<stop offset="0.071" stop-opacity="0.2"/>
<stop offset="0.321" stop-opacity="0.1"/>
<stop offset="0.623" stop-opacity="0.05"/>
<stop offset="1" stop-opacity="0"/>
</linearGradient>
<linearGradient id="paint2_linear_12486_93" x1="25.5123" y1="9.14852" x2="33.9534" y2="30.5784" gradientUnits="userSpaceOnUse">
<stop stop-color="#3CCBF4"/>
<stop offset="1" stop-color="#2892DF"/>
</linearGradient>
</defs>
</svg>
