<svg width="50" height="50" viewBox="0 0 50 50" fill="none" xmlns="http://www.w3.org/2000/svg">
<path d="M26.3089 8.32837C27.6969 8.70503 28.9918 9.08281 30.1392 10.0098C32.2482 11.6449 34.5363 12.0603 37.1138 12.2517C37.9333 12.3087 38.1918 12.5604 38.1918 13.4099C38.1918 16.9129 38.1918 20.4159 38.1918 23.919C38.1918 26.5769 37.3307 28.9545 36.0066 31.1614C34.3784 33.8366 32.3246 36.1983 29.9348 38.1434C28.4419 39.3847 26.8489 40.4926 25.3018 41.6595H24.7054C22.5313 40.2294 20.4819 38.6 18.5815 36.7903C15.8876 34.1631 13.5586 31.2621 12.3638 27.5249C11.9749 26.2676 11.7861 24.9517 11.805 23.63C11.8175 20.2452 11.805 16.8626 11.805 13.4778C11.805 12.5473 12.0719 12.2715 12.9726 12.2364C15.5446 12.1404 17.8877 11.5311 19.9348 9.95071C21.0072 9.09734 22.2811 8.56745 23.6191 8.41814C24.4537 8.41814 25.4281 8.32761 26.3089 8.32837ZM37.0909 14.9228C37.0909 13.4165 37.0075 13.353 35.5583 13.2939C33.5671 13.2129 31.6696 12.7509 30.0308 11.4876C28.7297 10.4849 27.3389 9.83248 25.6917 9.76461C23.9298 9.69236 22.2638 9.89159 20.7479 10.9425C18.6902 12.4333 16.6411 13.2427 14.0757 13.307C13.1269 13.3311 12.9205 13.561 12.9205 14.5353C12.9205 17.6398 12.9205 20.7422 12.9205 23.8467C12.9252 27.0531 14.264 29.9791 16.167 32.5145C18.4606 35.5796 21.3276 37.9879 24.4344 40.0766C24.5939 40.2076 24.7906 40.2788 24.9932 40.2788C25.1957 40.2788 25.3924 40.2076 25.552 40.0766C26.3339 39.5052 27.145 38.9688 27.9123 38.3754C30.4791 36.394 32.806 34.1499 34.6326 31.3694C36.2464 28.9195 37.2368 26.266 37.093 23.2184C36.9782 20.4622 37.0909 17.6813 37.0909 14.9228Z" fill="#50E4FD"/>
<path d="M37.1016 23.23C37.2455 26.2776 36.255 28.9224 34.6412 31.3811C32.8146 34.1528 30.4877 36.3969 27.9209 38.3871C27.1536 38.9804 26.3425 39.5168 25.5606 40.0882C25.4011 40.2193 25.2044 40.2905 25.0018 40.2905C24.7993 40.2905 24.6026 40.2193 24.443 40.0882C21.3362 37.9908 18.4776 35.5869 16.1756 32.5261C14.2719 29.9899 12.9338 27.0658 12.9292 23.8584C12.9125 20.7538 12.9292 17.6515 12.9292 14.5469C12.9292 13.5726 13.1377 13.3428 14.0843 13.3187C16.653 13.2543 18.6916 12.446 20.7441 10.9432C22.2599 9.8923 23.9259 9.69306 25.6878 9.76531C27.335 9.83318 28.7258 10.4856 30.0269 11.4884C31.6658 12.7516 33.5715 13.2136 35.5545 13.2946C37.0036 13.3537 37.087 13.4172 37.087 14.9235C37.0893 17.6842 36.9688 20.4722 37.1016 23.23ZM18.5339 24.3969H18.5485L24.2887 23.9197L24.8329 25.0472L23.4901 27.3592C22.9817 27.4208 22.4252 27.505 22.0633 27.9148C21.4461 28.6138 21.5782 29.8515 22.3767 30.3586C22.866 30.7354 23.566 30.7553 24.074 30.4068C24.9393 29.8704 25.0498 28.8874 24.3805 27.8058L25.7108 25.5705L27.1265 25.6274C28.0639 26.3121 28.5697 27.9824 29.1157 28.9749C28.511 29.7587 28.4318 30.6017 28.8926 31.346C29.3152 32.0066 30.1298 32.3446 30.8908 32.1249C31.6612 31.9024 32.1874 31.1728 32.2287 30.3827C32.277 29.0049 31.1623 28.5629 30.0331 28.4539L28.1774 25.0384C28.4346 24.777 28.6314 24.4571 28.7525 24.1034C28.8735 23.7497 28.9158 23.3715 28.8759 22.9979C28.7817 22.238 28.3392 21.5435 27.7062 21.162C27.0733 20.7806 26.2789 20.7297 25.6065 21.0275L23.6903 18.2711C23.8655 17.6164 24.2258 17.1229 24.0759 16.397C23.8643 15.3717 22.8688 14.6385 21.8223 14.8231C20.4804 15.0597 19.7779 16.6394 20.4461 17.819C20.8817 18.588 21.8278 19.0265 22.6895 18.7615L24.7328 21.6668L24.2887 22.7089L24.2011 22.8447L18.3629 23.3636L18.244 23.195C17.8181 22.5795 16.9998 22.3356 16.3174 22.6608C15.6524 22.9689 15.3076 23.7352 15.4542 24.4429C15.5946 25.1421 16.1891 25.706 16.9138 25.7347C17.6227 25.7784 18.2253 25.2968 18.4651 24.513L18.5339 24.3969Z" fill="#1566BE"/>
<path d="M25.6065 21.0275C26.2789 20.7297 27.0733 20.7806 27.7062 21.162C28.3392 21.5435 28.7817 22.238 28.8759 22.9979C28.9595 23.7482 28.6964 24.5238 28.1797 25.0495L27.1372 25.6384L25.7214 25.5815L24.8436 25.0582L24.2887 23.9197C24.2637 23.5606 24.2389 23.2016 24.2118 22.8448C24.248 22.8067 24.2707 22.753 24.2994 22.709L24.7393 21.6691L25.6065 21.0275Z" fill="#FCFDFD"/>
<path d="M22.6897 18.7638C21.828 19.0287 20.8819 18.5903 20.4463 17.8213C19.7781 16.6416 20.4806 15.062 21.8225 14.8254C22.869 14.6408 23.8645 15.374 24.0762 16.3993C24.226 17.1251 23.8657 17.6187 23.6905 18.2733L22.6897 18.7638Z" fill="#FCFCFD"/>
<path d="M30.9362 28.5415C31.7703 28.8568 32.254 29.5487 32.2248 30.3828C32.1835 31.1729 31.6573 31.9025 30.8869 32.125C30.1259 32.3447 29.3113 32.0067 28.8887 31.3461C28.4279 30.6017 28.5071 29.7588 29.1118 28.975L30.0313 28.454L30.9362 28.5415Z" fill="#FBFCFD"/>
<path d="M23.4845 27.3592L24.3748 27.7971C25.0441 28.8786 24.9336 29.8617 24.0683 30.3981C23.5603 30.7466 22.8603 30.7267 22.371 30.3499C21.5668 29.8391 21.4318 28.6148 22.0577 27.9061C22.4227 27.4927 22.9725 27.4212 23.4845 27.3592Z" fill="#FCFCFD"/>
<path d="M18.4611 24.5131C18.2214 25.3034 17.6271 25.7785 16.9098 25.7347C16.1852 25.7061 15.5907 25.1422 15.4503 24.443C15.3037 23.7353 15.6485 22.969 16.3135 22.6609C16.9964 22.3345 17.816 22.5786 18.2422 23.1951L18.3611 23.3636C18.4257 23.7074 18.4924 24.0533 18.5571 24.397H18.5425L18.4611 24.5131Z" fill="#FBFBFD"/>
<path d="M18.5552 24.3971C18.4906 24.0533 18.4239 23.7074 18.3592 23.3637L24.1975 22.8448C24.2246 23.2017 24.2496 23.5607 24.2746 23.9198L18.5552 24.3971Z" fill="#E0E1E4"/>
<path d="M30.0297 28.4541L29.1101 28.9752C28.5513 27.9593 27.9946 26.9412 27.4275 25.9297C27.3399 25.8139 27.2366 25.7121 27.121 25.6276L28.1635 25.0386L30.0297 28.4541Z" fill="#E0E1E4"/>
<path d="M22.6897 18.7638L23.6905 18.2733L25.6065 21.0275L24.7328 21.6668L22.6897 18.7638Z" fill="#E0E1E4"/>
<path d="M24.3744 27.8147L23.4841 27.3768L24.8269 25.0648L25.7047 25.5881L24.3744 27.8147Z" fill="#E0E1E4"/>
<path d="M24.2887 22.7089C24.2151 22.8425 24.2048 22.8377 24.2887 22.7089Z" fill="#E0E1E4"/>
</svg>
