<svg width="50" height="50" viewBox="0 0 50 50" fill="none" xmlns="http://www.w3.org/2000/svg">
<path d="M14.0264 35.6233C14.8455 36.1342 16.2072 36.7021 17.647 36.7021C18.958 36.7021 20.1761 36.3221 21.1852 35.674C21.1852 35.674 21.1873 35.674 21.1894 35.6719L25 33.2906V41.8891C24.3962 41.8891 23.7882 41.7244 23.2604 41.3951L14.0264 35.6233Z" fill="#225086"/>
<path d="M22.5785 9.18166L6.74521 27.0417C5.52288 28.4223 5.84166 30.5081 7.4271 31.4982C7.4271 31.4982 13.2875 35.161 14.0264 35.6233C14.8455 36.1342 16.2072 36.7021 17.647 36.7021C18.958 36.7021 20.1761 36.3221 21.1852 35.674C21.1852 35.674 21.1873 35.674 21.1894 35.6719L25 33.2906L15.7871 27.5314L25.0021 17.1363V8.11133C24.107 8.11133 23.2119 8.46811 22.5785 9.18166Z" fill="#66DDFF"/>
<path d="M15.7871 27.5314L15.8969 27.599L25 33.2906H25.0021V17.1384L25 17.1363L15.7871 27.5314Z" fill="#CBF8FF"/>
<path d="M42.5729 31.4982C44.1583 30.5081 44.4771 28.4223 43.2548 27.0417L32.866 15.3229C32.0279 14.9323 31.0884 14.7086 30.0941 14.7086C28.1413 14.7086 26.3954 15.5509 25.2343 16.8745L25.0042 17.1342L34.2171 27.5293L25.0021 33.2884V41.887C25.608 41.887 26.2118 41.7223 26.7395 41.393L42.5729 31.4961V31.4982Z" fill="#074793"/>
<path d="M25.0021 8.11133V17.1363L25.2322 16.8767C26.3933 15.553 28.1392 14.7107 30.092 14.7107C31.0884 14.7107 32.0258 14.9365 32.8639 15.325L27.4193 9.18377C26.7881 8.47022 25.893 8.11344 25 8.11344L25.0021 8.11133Z" fill="#0294E4"/>
<path d="M34.215 27.5314L25.0021 17.1384L25.0021 33.2884L34.215 27.5314Z" fill="#96BCC2"/>
</svg>
