<svg width="50" height="50" viewBox="0 0 50 50" fill="none" xmlns="http://www.w3.org/2000/svg">
<path d="M20.6666 8.0044H28.3624L20.3734 32.8444C20.2092 33.3549 19.7244 33.7202 19.211 33.7203H13.2217C12.3798 33.7204 11.8066 32.8143 12.0608 32.0237L19.5039 8.8803C19.668 8.36959 20.153 8.00443 20.6666 8.0044Z" fill="url(#paint0_linear_12432_1966)"/>
<path d="M31.8498 24.6655H19.6461C19.1322 24.6649 18.9078 25.347 19.2604 25.6918L27.1022 33.3727C27.3305 33.5962 27.6312 33.7204 27.9434 33.7204H34.8536L31.8498 24.6655Z" fill="#0078D4"/>
<path d="M20.6666 8.0044C20.1474 8.00231 19.6577 8.37781 19.5015 8.89744L12.0702 32.0027C11.7985 32.7973 12.3729 33.7228 13.2252 33.7204C14.7303 33.7204 19.7223 34.7746 20.3769 32.8209L21.8589 28.2376C23.1739 29.5247 26.0017 33.7038 27.9403 33.7204H34.8249L31.8054 24.6655L23.0033 24.6677L28.3905 8.00448L20.6666 8.0044Z" fill="url(#paint1_linear_12432_1966)"/>
<path d="M30.4957 8.8792C30.3318 8.36931 29.8475 8.00448 29.3348 8.00454H20.7579C21.2706 8.00457 21.7548 8.36937 21.9188 8.8792L29.3622 32.0235C29.6206 32.8269 29.0294 33.7207 28.2013 33.7208H36.7785C37.6206 33.7205 38.1935 32.8143 37.9391 32.0235L30.4957 8.8792Z" fill="url(#paint2_linear_12432_1966)"/>
<path d="M19.002 40.7444H18.1445C18.0022 41.6954 17.6374 42.2698 16.5367 42.2698C15.3769 42.2698 14.8575 41.1815 14.8575 39.846C14.8575 38.5461 15.0382 36.7437 16.6127 36.7437C17.6184 36.7437 18.0186 37.3217 18.1445 38.2831H19.002C18.8641 36.8963 17.9212 36.0044 16.6127 36.0044C14.5199 36.0044 14 38.0138 14 39.846C14 41.4485 14.9012 43.0044 16.5367 43.0044C17.8499 43.0044 18.8552 42.1596 19.002 40.7444Z" fill="#7F8BA5"/>
<path d="M29.609 41.1889C29.609 41.8493 29.1115 42.2698 28.2067 42.2698C27.3822 42.2698 26.6078 41.8707 26.6078 40.9362H25.7503C25.7503 42.2758 27.0441 43.0044 28.2067 43.0044C29.5894 43.0044 30.4754 42.2865 30.4754 41.1795C30.4754 40.1135 29.8153 39.5194 28.3406 39.0833C27.2846 38.7759 26.8177 38.4239 26.8177 37.848C26.8177 37.208 27.249 36.7437 28.1665 36.7437C29.1325 36.7437 29.6001 37.2881 29.6001 38.0632H30.4576C30.4576 36.7554 29.2968 36.0044 28.1665 36.0044C26.8436 36.0044 25.9557 36.7878 25.9557 37.8573C25.9557 38.9168 26.7733 39.4688 28.0637 39.8694C29.3074 40.2489 29.609 40.553 29.609 41.1889Z" fill="#7F8BA5"/>
<path fill-rule="evenodd" clip-rule="evenodd" d="M34.8708 39.3214C35.4616 39.0515 35.8258 38.5373 35.8258 37.9135C35.8258 36.6414 35.0371 36.098 33.7044 36.098H31.5741V42.9108H33.8518C35.1644 42.9108 36 42.2063 36 40.9456C36 40.2018 35.5648 39.5169 34.8708 39.3214ZM32.4361 39.7243H33.892C34.7674 39.7243 35.1425 40.1969 35.1425 40.9549C35.1425 41.6942 34.684 42.1762 33.8518 42.1762H32.4361V39.7243ZM32.4361 38.999V36.8373H33.7044C34.5653 36.8373 34.9639 37.1548 34.9639 37.9041C34.9639 38.5774 34.4781 38.999 33.7312 38.999H32.4361Z" fill="#7F8BA5"/>
<path fill-rule="evenodd" clip-rule="evenodd" d="M22.7848 36.098H22.03L19.5514 42.9108H20.4312L21.0492 41.1281H23.7688L24.3881 42.9108H25.2724L22.7848 36.098ZM22.4076 37.2099L21.3055 40.3888H23.512L22.4076 37.2099Z" fill="#7F8BA5"/>
<defs>
<linearGradient id="paint0_linear_12432_1966" x1="30.2299" y1="9.93138" x2="24.2248" y2="36.4953" gradientUnits="userSpaceOnUse">
<stop stop-color="#114A8B"/>
<stop offset="1" stop-color="#0669BC"/>
</linearGradient>
<linearGradient id="paint1_linear_12432_1966" x1="27.9122" y1="21.6057" x2="25.8389" y2="22.3583" gradientUnits="userSpaceOnUse">
<stop stop-opacity="0.3"/>
<stop offset="0.071" stop-opacity="0.2"/>
<stop offset="0.321" stop-opacity="0.1"/>
<stop offset="0.623" stop-opacity="0.05"/>
<stop offset="1" stop-opacity="0"/>
</linearGradient>
<linearGradient id="paint2_linear_12432_1966" x1="24.951" y1="9.18736" x2="34.4931" y2="33.4125" gradientUnits="userSpaceOnUse">
<stop stop-color="#3CCBF4"/>
<stop offset="1" stop-color="#2892DF"/>
</linearGradient>
</defs>
</svg>
