<svg width="50" height="50" viewBox="0 0 50 50" fill="none" xmlns="http://www.w3.org/2000/svg">
<rect width="50" height="50" fill="#006394"/>
<path d="M40.0499 29.2422C38.5471 34.1215 34.8653 38.0608 30.0285 39.7515C18.2717 43.8656 6.34808 31.7861 10.4625 20.0322C11.2267 17.8452 12.4341 15.8635 14.0269 14.181C14.34 13.8513 14.4508 13.8393 14.7832 14.1304C18.4737 17.376 22.2307 20.5666 26.0474 23.6628C27.0252 24.4568 26.6061 25.8523 25.7897 26.2925C25.308 26.5524 24.8094 26.6125 24.3157 26.307C22.895 25.4244 21.6414 24.1301 20.3539 23.0686C20.2321 22.9678 19.9749 22.7187 19.8866 22.9723C19.0317 25.4113 19.9066 28.3307 22.1433 29.7282C23.533 30.5992 25.0166 30.8037 26.5965 30.4356C30.2813 29.5799 31.8536 25.071 29.9105 21.9209C28.9963 20.4469 27.1955 19.599 25.532 19.4115C25.32 19.3875 25.2333 19.3081 25.2357 19.0963C25.2381 17.9391 25.2357 16.7818 25.2285 15.6221C25.2261 15.3695 25.3513 15.2973 25.5777 15.2925C28.4234 15.2363 31.3109 16.9428 32.9595 19.1685C35.7886 22.9833 35.3777 28.186 32.2346 31.6867C31.3603 32.6587 30.2934 33.3877 29.0796 33.9146C25.5871 35.4261 21.4923 34.7718 18.6463 32.2665C15.2629 29.2969 14.511 24.3291 16.5582 20.3835C16.7364 20.0395 16.7027 19.924 16.4113 19.6882C16.1078 19.4452 15.8092 19.195 15.5346 18.9183C15.3347 18.7162 15.1926 18.721 15.0602 18.9616C12.0038 24.4375 13.7061 31.2048 18.6776 34.8361C21.7844 37.1065 26.1518 37.5098 29.6648 36.0174C35.9103 33.3581 38.5417 25.5358 35.4041 19.5246C33.7486 16.3585 30.6231 14.0393 27.1239 13.3461C26.6543 13.2547 26.1726 13.2354 25.6981 13.1777C25.2863 13.1272 25.1779 13.0045 25.1779 12.5954C25.1731 11.6956 25.1827 10.7982 25.1707 9.90077C25.1659 9.62168 25.2767 9.52063 25.5416 9.53988C35.1508 10.2255 43.0686 19.4083 40.0499 29.2422Z" fill="white"/>
</svg>
