<svg width="50" height="50" viewBox="0 0 50 50" fill="none" xmlns="http://www.w3.org/2000/svg">
<path d="M20.3883 5.00024C20.3883 5.00024 26.2578 10.1323 25.4602 14.6812C25.1052 16.7052 22.4174 20.05 23.8651 23.2232C25.4328 26.6486 26.2441 33.2472 19.1945 31.5388C12.241 29.8579 12.783 21.3416 17.9493 16.8476C23.1876 12.2901 21.4192 7.2764 20.3883 5.00024Z" fill="#D30035"/>
<path d="M25.7498 20.3894C25.3604 23.8542 29.1922 27.3053 26.1511 31.9949C24.0414 35.2436 27.2763 39.8079 31.4306 38.976C35.9862 38.0652 37.1131 35.1852 36.9913 31.8405C36.8318 27.5935 35.1423 26.4134 31.3826 23.2247C27.3175 19.7736 30.4598 13.2607 30.4598 13.2607C30.4598 13.2607 26.1854 16.5781 25.7498 20.3894Z" fill="#D30035"/>
<path d="M13.3743 30.5268C14.6608 32.1083 17.1478 33.9711 21.9093 34.0774C23.3501 34.1049 22.2249 36.7927 25.1065 39.2112C27.5987 41.309 30.9554 41.3553 32.7512 40.6778C33.7975 40.2901 34.7803 39.9145 34.0239 40.887C30.6398 45.2215 24.7634 44.9471 20.5697 43.3793C15.5853 41.5165 14.3314 37.851 13.515 35.5663C12.6368 33.0877 13.0862 30.1718 13.3743 30.5268Z" fill="#D30035"/>
</svg>
