<svg width="50" height="50" viewBox="0 0 50 50" fill="none" xmlns="http://www.w3.org/2000/svg">
<path d="M39.0651 19.5325C40.0543 18.5536 40.8674 17.3268 40.9847 15.906C41.1216 14.096 40.0664 12.296 37.7132 10.8445L28.2372 5L10 22.7597L19.9746 28.9123C21.5721 29.9059 23.4069 30.4357 25.2797 30.444C27.5687 30.444 29.762 29.6227 31.3802 28.046C33.1401 26.3322 33.7242 24.1142 32.6386 22.2705C32.462 21.9713 32.2525 21.6935 32.014 21.4425C32.5965 21.5749 33.1916 21.6422 33.7885 21.6432H33.8023C35.7541 21.6467 37.6624 20.8935 39.0651 19.5325ZM28.5946 26.0838C26.8201 27.8117 23.9654 28.0655 21.6415 26.6345L14.7402 22.3768L20.9354 16.3428L27.9534 20.6723C30.482 22.2303 30.3433 24.3802 28.5946 26.0838ZM29.4147 18.4087L22.9257 14.4048L28.8415 8.64067L35.213 12.5707C37.5956 14.038 37.905 16.0245 36.1822 17.7048C35.2888 18.5649 34.1405 19.1003 32.9163 19.2277C31.6922 19.355 30.4609 19.067 29.4147 18.4087ZM32.1573 36.145C30.3599 37.8952 27.9166 38.8605 25.2797 38.8605C23.2013 38.852 21.165 38.2644 19.3923 37.1615L10 31.373V33.6758L19.9746 39.8285C21.572 40.8225 23.4068 41.3526 25.2797 41.3613C27.5687 41.3613 29.762 40.5388 31.3802 38.963C32.5056 37.8674 33.1878 36.5015 33.1878 34.923C32.885 35.3652 32.5399 35.7757 32.1573 36.1487V36.145ZM32.1573 32.5043C30.3599 34.2547 27.9166 35.2188 25.2797 35.2188C23.2015 35.2103 21.1652 34.623 19.3923 33.5208L10 27.7333V30.0373L19.9746 36.1898C21.572 37.1838 23.4068 37.7139 25.2797 37.7227C27.5687 37.7227 29.762 36.9003 31.3802 35.3245C32.5055 34.2288 33.1878 32.8629 33.1878 31.2843C32.885 31.7265 32.5399 32.1371 32.1573 32.51V32.5043ZM32.1573 28.8637C30.3599 30.615 27.9166 31.5792 25.2797 31.5792C23.2015 31.5706 21.1652 30.9833 19.3923 29.8812L10 24.0945V26.3983L19.9746 32.551C21.5721 33.5447 23.4069 34.0745 25.2797 34.0828C27.5687 34.0828 29.762 33.2613 31.3802 31.6857C32.5066 30.588 33.1878 29.2221 33.1878 27.6417C32.8858 28.0853 32.5405 28.4969 32.1573 28.8702V28.8637ZM39.845 31.2665C38.3457 32.718 36.3837 33.5746 34.3157 33.6805V36.1785C36.0936 36.0782 37.7783 35.3379 39.068 34.0902C40.2407 32.9511 40.9967 31.557 40.9967 29.9055C40.6595 30.3999 40.2736 30.8581 39.845 31.273V31.2665ZM32.1573 39.7808C30.3599 41.5322 27.9166 42.4963 25.2797 42.4963C23.2013 42.4879 21.165 41.9003 19.3923 40.7975L10 35.0117V37.3155L19.9746 43.4672C21.572 44.4611 23.4068 44.9913 25.2797 45C27.5687 45 29.762 44.1785 31.3802 42.6018C32.5056 41.5061 33.1878 40.1403 33.1878 38.5617C32.8855 39.0042 32.5403 39.4148 32.1573 39.7873V39.7808ZM37.8032 21.8177C36.6534 22.4073 35.3794 22.7284 34.0925 22.7775C34.335 23.5858 34.3119 24.4208 34.3119 25.2567H34.3172C36.2031 25.1393 37.9663 24.3104 39.277 22.9502C40.3231 21.8681 41 20.5188 41 19.0023C40.1876 20.1801 39.0755 21.1629 37.8032 21.8177ZM39.8504 27.6343C38.351 29.0855 36.3892 29.942 34.3213 30.0483V32.538C36.0991 32.4377 37.7838 31.6974 39.0734 30.4497C40.2455 29.3434 40.9995 27.8894 40.9995 26.264C40.6699 26.7495 40.2691 27.2099 39.8504 27.6343ZM37.806 25.4545C36.7218 26.0134 35.5351 26.337 34.3213 26.4048V28.8973C36.099 28.7966 37.7835 28.0564 39.0734 26.809C40.2057 25.7019 40.9995 24.2361 40.9995 22.6243C40.204 23.8039 39.0659 24.8078 37.806 25.4545Z" fill="black"/>
</svg>
