<svg width="50" height="50" viewBox="0 0 50 50" fill="none" xmlns="http://www.w3.org/2000/svg">
<path d="M41.5678 15.9898H43.2172V16.7096H41.5678V19.9907C41.5678 20.3365 41.6496 20.5944 41.8127 20.7637C42.187 21.1202 42.8042 21.03 43.2595 20.8907V21.5995C42.7429 21.8564 42.0014 21.8257 41.472 21.6209C40.8262 21.3456 40.631 20.6559 40.631 20.0121V16.7096H39.8226V16.2652L40.6421 15.8945L41.0148 14.6881H41.5678V15.9898Z" fill="black"/>
<path d="M24.6423 14C25.4225 14 26.171 14.1623 26.7386 14.4445L26.3555 15.2492C25.8118 15.0034 25.2323 14.8365 24.6319 14.8365C22.8785 14.8365 22.0034 16.3093 22.0033 17.8843C22.0033 19.5377 22.8706 20.9328 24.6215 20.9328C25.2882 20.9328 25.8735 20.8061 26.4409 20.6367V21.4622C25.8123 21.6966 25.1505 21.7693 24.4827 21.7693C22.228 21.7692 20.9923 20.0471 20.9923 17.874C20.9923 15.7389 22.3624 14.0001 24.6423 14Z" fill="black"/>
<path fill-rule="evenodd" clip-rule="evenodd" d="M36.7531 15.8842C37.2425 15.8842 37.6608 15.9901 38.0084 16.2017C39.0082 16.7984 39.1048 17.9556 39.1048 19.0065H35.1995C35.2242 20.1238 35.8338 20.9749 37.0189 20.9749C37.663 20.9749 38.2589 20.8353 38.8494 20.5836V21.3987C38.2548 21.6584 37.6242 21.7693 36.9766 21.7693C35.248 21.7693 34.2309 20.4901 34.2307 18.8692C34.2307 17.3584 35.0562 15.8842 36.7531 15.8842ZM36.742 16.6461C35.7958 16.6463 35.3049 17.4003 35.2202 18.2653H38.1257C38.1256 17.4143 37.6942 16.6461 36.742 16.6461Z" fill="black"/>
<path fill-rule="evenodd" clip-rule="evenodd" d="M10.0365 14.1056C11.9581 14.1056 12.9204 14.6217 12.9204 15.9794C12.9203 16.8536 12.3407 17.4948 11.4729 17.6517V17.7049C12.4826 17.8611 13.1757 18.4824 13.1757 19.5145C13.1757 20.8668 12.2076 21.663 10.5361 21.663H7.86523V14.1056H10.0365ZM8.82282 20.859H10.3557C11.3002 20.8589 12.1542 20.4965 12.1543 19.4407C12.1543 18.3881 11.1511 18.1176 10.2807 18.1176H8.82282V20.859ZM8.82282 17.3239H10.228C11.1049 17.3239 11.9301 17.0962 11.9301 16.085C11.93 15.0723 10.8952 14.9207 10.0788 14.9207H8.82282V17.3239Z" fill="black"/>
<path fill-rule="evenodd" clip-rule="evenodd" d="M20.544 21.663H19.5545L18.6392 19.324H15.6276L14.7227 21.663H13.7548L16.7233 14.0738H17.5851L20.544 21.663ZM17.1382 15.0587C16.8429 16.2336 16.3735 17.3456 15.9468 18.4772H18.3519C17.9291 17.3418 17.5228 16.2063 17.1382 15.0587Z" fill="black"/>
<path d="M30.7174 15.8842C32.0466 15.8843 32.7817 16.6583 32.7817 17.9692V21.663H31.8561V18.0327C31.8561 17.1154 31.4583 16.6675 30.5786 16.6675C29.3176 16.6677 28.9084 17.5865 28.9084 18.7208V21.663H27.9715V15.9898H28.7272L28.8653 16.7628H28.9187C29.1798 16.3589 29.5707 16.1038 30.0151 15.9794C30.2421 15.916 30.4762 15.8842 30.7174 15.8842Z" fill="black"/>
<path d="M9.62316 28.5C10.7293 28.5 11.9838 29.1008 12.024 30.2901H11.1919C11.0987 29.5381 10.3029 29.2292 9.59549 29.2292C8.88628 29.2292 8.02692 29.5776 8.02674 30.3557C8.02674 31.0539 8.80478 31.3334 9.40083 31.4832L10.1232 31.6682C11.09 31.9107 12.1212 32.4505 12.1213 33.5376C12.1213 34.8785 10.7837 35.5 9.5535 35.5C8.03422 35.4999 7.08363 34.7488 7 33.6306H7.88838C7.96039 34.4283 8.80082 34.7571 9.5535 34.7572C10.5431 34.7572 11.2881 34.2626 11.2883 33.5249C11.2883 32.8089 10.4778 32.5579 9.87317 32.3974L8.99814 32.1586C8.0977 31.9112 7.19375 31.3903 7.19371 30.3958C7.19371 29.1565 8.4696 28.5 9.62316 28.5Z" fill="black"/>
<path fill-rule="evenodd" clip-rule="evenodd" d="M20.5328 30.2236C21.2273 30.2236 21.9416 30.4451 22.2953 31.0585C22.434 31.2993 22.5033 31.6221 22.5033 32.0264V35.3806H21.6845V34.6915H21.6435C21.4769 35.0229 20.9901 35.5 20.0605 35.5C19.0433 35.4998 18.2429 34.9243 18.2427 33.9359C18.2427 33.6443 18.3027 33.4071 18.423 33.2259C18.7851 32.674 19.5737 32.5296 20.3105 32.4375C21.2955 32.3165 21.6844 32.3451 21.6845 31.9736C21.6845 31.308 21.2525 30.9126 20.5605 30.9126C19.9826 30.9127 19.4258 31.1618 19.173 31.6819L18.3953 31.4167C18.7634 30.5963 19.6257 30.2236 20.5328 30.2236ZM21.6845 32.8221C21.4285 33.1138 20.6568 33.0651 20.2694 33.1138C19.8471 33.1664 19.4568 33.2689 19.2284 33.5048C19.1174 33.6197 19.0614 33.7763 19.0614 33.9751C19.0614 34.5671 19.6436 34.7972 20.1855 34.7973C20.8353 34.7973 21.285 34.5273 21.5109 34.1447C21.6265 33.9524 21.6845 33.7498 21.6845 33.5376V32.8221Z" fill="black"/>
<path d="M15.3809 30.2236C16.505 30.2236 17.3518 30.8598 17.4907 31.8141H16.672C16.5212 31.2543 15.9804 30.9264 15.3953 30.9263C14.2997 30.9263 13.7989 31.9176 13.7988 32.8349C13.7988 34.0191 14.429 34.7836 15.3953 34.7836C16.0335 34.7835 16.5194 34.4525 16.672 33.8958H17.4907C17.3365 34.8974 16.4013 35.4863 15.3953 35.4863C13.8443 35.4863 12.9801 34.2229 12.9801 32.8613C12.9802 31.5164 13.842 30.2237 15.3809 30.2236Z" fill="black"/>
<path fill-rule="evenodd" clip-rule="evenodd" d="M36.9951 30.2236C38.1025 30.2236 39.2852 30.8643 39.2852 32.7693V33.1001H35.4177C35.4552 34.1815 36.1134 34.7835 37.0781 34.7836C37.7321 34.7836 38.2053 34.5129 38.4111 33.9888L39.2022 34.2003C38.9536 34.9654 38.1645 35.4863 37.0781 35.4863C35.5368 35.4862 34.5943 34.3078 34.5942 32.875C34.5942 31.5256 35.4462 30.2236 36.9951 30.2236ZM36.9951 30.9263C36.1127 30.9263 35.4732 31.616 35.4196 32.4238H38.4522C38.452 31.5669 37.8888 30.9263 36.9951 30.9263Z" fill="black"/>
<path d="M26.2181 30.2236C27.2955 30.2236 28.0225 30.8401 28.0225 32.1458V35.3806H27.2038V32.1987C27.2037 31.397 26.7388 30.9264 25.9824 30.9263C25.4619 30.9263 25.0361 31.1454 24.7991 31.5625C24.6812 31.7702 24.6217 32.022 24.6217 32.3181V35.3806H23.8029V30.2901H24.594V31.0849H24.6636C24.914 30.567 25.415 30.2236 26.2181 30.2236Z" fill="black"/>
<path d="M31.7383 30.2236C32.8158 30.2236 33.5427 30.84 33.5427 32.1458V35.3806H32.724V32.1987C32.7239 31.3969 32.2591 30.9263 31.5026 30.9263C30.723 30.9263 30.1418 31.4274 30.1418 32.3181V35.3806H29.3231V30.2901H30.1142V31.0849H30.1838C30.4341 30.567 30.9354 30.2236 31.7383 30.2236Z" fill="black"/>
<path d="M43 30.2236V31.0193C42.9447 31.0061 42.72 30.9655 42.5009 30.9655C41.9864 30.9655 41.5657 31.1813 41.3282 31.5461C41.2126 31.725 41.1546 31.929 41.1545 32.1586V35.3806H40.3358V30.2901H41.1269V31.0585H41.1822C41.3911 30.5172 41.9852 30.21 42.5696 30.2099C42.6897 30.2099 42.9074 30.2148 43 30.2236Z" fill="black"/>
</svg>
