<svg width="50" height="50" viewBox="0 0 50 50" fill="none" xmlns="http://www.w3.org/2000/svg">
<rect width="50" height="50" fill="#78BE43"/>
<path fill-rule="evenodd" clip-rule="evenodd" d="M32.1991 19.9601C29.4787 19.9601 27.1304 20.8343 25.2587 22.7988L25.2577 11.2526H22.2815V30.1494C22.2815 35.9641 26.7604 39.5869 31.8995 39.5869C37.5611 39.5869 41.847 35.2301 41.847 29.6295C41.847 24.4294 37.3765 19.9601 32.1991 19.9601ZM20.8777 23.7947L19.5568 19.4664C18.7684 17.1898 18.5351 15.8794 16.3138 13.5339C15.5531 12.7293 12.6733 10.9588 13.0308 11.3451C16.6802 15.2844 18.5466 20.0576 19.2665 21.3834C17.9808 19.8222 16.3902 18.1176 14.6594 17.0486C12.0993 15.4622 9.12928 14.1127 6.09863 13.9128C6.09863 13.9128 9.35692 16.6636 10.7526 18.4146C12.1489 20.1647 13.5731 21.7343 15.1476 22.3759C17.0294 23.1432 18.8948 23.4221 20.8777 23.7947ZM31.8995 36.8745C28.1611 36.8745 24.9975 33.9268 24.9975 29.9786C24.9975 26.0282 27.665 22.7837 31.9666 22.7837C36.2691 22.7837 38.8039 26.2622 38.8039 29.9057C38.8039 33.8694 36.1215 36.8745 31.8995 36.8745Z" fill="white"/>
</svg>
