<svg width="50" height="50" viewBox="0 0 50 50" fill="none" xmlns="http://www.w3.org/2000/svg">
<rect width="50" height="50" fill="#003D6E"/>
<path d="M34.4507 30.0664C33.7875 31.0328 31.9637 31.6678 30.4991 31.4745C29.6972 31.3784 28.6584 30.8524 29.3109 29.956C29.9741 28.9896 31.7979 28.3546 33.2625 28.5479C34.1242 28.6512 35.0284 29.143 34.4507 30.0664ZM26.5198 31.4193C25.6908 32.5513 23.6183 33.2416 21.9326 32.9655C20.9939 32.798 19.8879 32.0927 20.6615 31.088C21.4905 29.956 23.563 29.2657 25.2487 29.5418C26.187 29.7093 27.3006 30.4164 26.5198 31.4193ZM15.7427 29.5418C13.8912 29.2105 13.1451 27.9128 14.0846 26.6428C15.0242 25.3451 17.2901 24.572 19.1416 24.9034C20.9931 25.2347 21.7392 26.5324 20.7996 27.8024C19.8601 29.1001 17.6218 29.8732 15.7427 29.5418ZM18.2297 20.8999C19.1692 19.6298 21.4352 18.8292 23.2867 19.1605C25.1381 19.4918 25.8843 20.7895 24.9447 22.0595C24.0052 23.3296 21.7392 24.1303 19.8877 23.799C18.0363 23.4952 17.2901 22.1976 18.2297 20.8999ZM22.5129 14.9914C23.4525 13.7213 25.7185 12.9206 27.5699 13.2519C29.4214 13.5556 30.1675 14.8809 29.228 16.151C28.2884 17.421 26.0224 18.2217 24.171 17.8904C22.3195 17.5867 21.5734 16.289 22.5129 14.9914ZM30.1951 26.2286C29.3661 27.3606 27.2936 28.0509 25.6079 27.7748C24.6692 27.6073 23.5632 26.902 24.3368 25.8973C25.1658 24.7653 27.2383 24.0751 28.924 24.3512C29.9032 24.5323 30.9043 25.2051 30.1951 26.2286ZM25 9C16.1572 9 9 16.1786 9 25.0138C9 27.4987 9.58031 29.8732 10.6028 31.9715C11.8463 31.1708 13.5319 30.7843 14.9413 31.0328C16.2925 31.3028 17.4541 32.3576 16.5164 33.7109C15.8808 34.7049 14.6097 35.5056 13.2556 35.8645C16.1848 39.0121 20.3575 41 25 41C33.8428 41 41 33.8214 41 24.9862C41 16.151 33.8152 9 25 9Z" fill="white"/>
</svg>
