<svg width="50" height="50" viewBox="0 0 50 50" fill="none" xmlns="http://www.w3.org/2000/svg">
<path d="M35.6321 30.6997C34.886 31.7869 32.8342 32.5013 31.1865 32.2839C30.2844 32.1757 29.1157 31.5839 29.8497 30.5755C30.5959 29.4884 32.6477 28.7739 34.2953 28.9914C35.2648 29.1076 36.282 29.6609 35.6321 30.6997ZM26.7098 32.2217C25.7772 33.4953 23.4456 34.2718 21.5492 33.9612C20.4931 33.7727 19.249 32.9793 20.1192 31.849C21.0518 30.5755 23.3834 29.799 25.2798 30.1096C26.3354 30.2979 27.5882 31.0934 26.7098 32.2217ZM14.5855 30.1096C12.5026 29.7368 11.6632 28.277 12.7202 26.8481C13.7772 25.3883 16.3264 24.5185 18.4093 24.8913C20.4922 25.264 21.3316 26.7239 20.2746 28.1527C19.2176 29.6126 16.6995 30.4823 14.5855 30.1096ZM17.3834 20.3874C18.4404 18.9586 20.9896 18.0578 23.0725 18.4305C25.1554 18.8033 25.9948 20.2632 24.9378 21.692C23.8808 23.1208 21.3316 24.0216 19.2487 23.6488C17.1658 23.3072 16.3264 21.8473 17.3834 20.3874ZM22.2021 13.7403C23.2591 12.3115 25.8083 11.4107 27.8912 11.7834C29.9741 12.1251 30.8135 13.616 29.7565 15.0449C28.6995 16.4737 26.1503 17.3745 24.0674 17.0017C21.9845 16.6601 21.1451 15.2002 22.2021 13.7403ZM30.8446 26.3822C29.9119 27.6557 27.5803 28.4323 25.6839 28.1217C24.6278 27.9332 23.3837 27.1398 24.2539 26.0095C25.1865 24.736 27.5181 23.9594 29.4145 24.2701C30.5161 24.4739 31.6424 25.2308 30.8446 26.3822ZM25 7C15.0518 7 7 15.0759 7 25.0155C7 27.811 7.65285 30.4823 8.80311 32.843C10.2021 31.9422 12.0984 31.5073 13.6839 31.7869C15.2041 32.0906 16.5109 33.2773 15.456 34.7998C14.7409 35.918 13.3109 36.8188 11.7876 37.2226C15.0829 40.7636 19.7772 43 25 43C34.9482 43 43 34.9241 43 24.9845C43 15.0449 34.9171 7 25 7Z" fill="#003D6E"/>
</svg>
