<svg width="50" height="50" viewBox="0 0 50 50" fill="none" xmlns="http://www.w3.org/2000/svg">
<path d="M36.7188 20.6968C36.8461 23.1578 35.9993 25.3039 34.6609 27.2698C33.3013 29.2721 31.3016 30.5189 29.401 31.8841C28.487 32.5412 27.5782 33.2075 26.6341 33.8136C25.2409 34.7092 23.8053 34.4216 23.0061 33.1401C22.1557 31.784 22.4651 30.1986 23.7664 29.2593C25.4849 28.0161 27.2458 26.8293 28.9148 25.5187C30.506 24.2736 31.4342 22.619 31.4183 20.482C31.3971 17.9046 31.3918 15.3271 31.4183 12.7514C31.4183 11.9978 31.1655 11.7466 30.4459 11.7521C26.97 11.7776 23.4959 11.7521 20.0147 11.7739C19.7388 11.7739 19.4648 11.9086 19.189 11.9796C19.1146 12.2984 19.0649 12.6229 19.0405 12.9498C19.0246 14.8411 19.0193 16.7341 19.0405 18.6272C19.0405 19.3116 19.1324 19.996 19.1819 20.6804C19.1846 21.4819 19.3537 22.2734 19.6779 23.0021C20.002 23.7307 20.4737 24.3796 21.0613 24.9053C21.7296 25.5332 22.4085 26.1794 22.5358 27.1933C22.695 28.4784 22.2406 29.4195 21.1303 30.0438C20.1296 30.6081 18.9539 30.4225 17.9744 29.4978C16.0101 27.6466 14.502 25.4932 14.0017 22.7373C13.8903 22.1203 13.8372 21.4941 13.7577 20.8716C13.7577 17.9113 13.7097 14.9507 13.7435 11.9905C13.7807 8.63398 16.6501 6.24944 19.5019 6.33499C23.411 6.45149 27.3272 6.43147 31.2362 6.33499C34.2648 6.26582 36.6905 8.9143 36.7312 11.5264L36.7188 20.6968ZM23.6444 31.5073C23.6338 32.5303 24.3233 33.2657 25.2745 33.2493C26.2929 33.2311 26.9842 32.5685 27.0071 31.5911C27.0319 30.559 26.3247 29.7544 25.3664 29.7217C24.4568 29.7207 23.6364 30.5137 23.6444 31.5073Z" fill="black"/>
<path d="M19.1876 20.6804C19.1381 19.996 19.0532 19.3116 19.0461 18.6272C19.0285 16.7341 19.0338 14.841 19.0461 12.9498C19.0706 12.6228 19.1202 12.2984 19.1947 11.9796L19.1876 20.6804Z" fill="#565961"/>
<path d="M23.6444 31.5073C23.6364 30.5137 24.4568 29.7207 25.3664 29.7217C26.3247 29.7544 27.0319 30.559 27.0071 31.5911C26.9842 32.5685 26.2999 33.2293 25.2745 33.2493C24.3233 33.2657 23.6338 32.5285 23.6444 31.5073Z" fill="white"/>
<path d="M9.76758 37.8906V45H8.8252V37.8906H9.76758ZM12.7461 41.0889V41.8604H9.5625V41.0889H12.7461ZM13.2295 37.8906V38.6621H9.5625V37.8906H13.2295Z" fill="#1C1D1F"/>
<path d="M15.1973 39.7168V45H14.2891V39.7168H15.1973ZM14.2207 38.3154C14.2207 38.0201 14.4042 37.793 14.7529 37.793C15.1008 37.793 15.29 38.0248 15.29 38.3154C15.29 38.5907 15.1039 38.8232 14.7529 38.8232C14.4011 38.8232 14.2207 38.5951 14.2207 38.3154Z" fill="#1C1D1F"/>
<path d="M17.5508 45H16.6475V39.7168H17.5264L17.5508 45ZM19.2012 39.6875L19.1963 40.5273C19.0498 40.4955 18.93 40.4883 18.7568 40.4883C18.1318 40.4883 17.7314 40.791 17.5361 41.2793C17.4743 41.4388 17.4336 41.6146 17.4141 41.8066L17.1602 41.9531C17.1602 40.9177 17.5589 39.6191 18.8008 39.6191C18.9306 39.6191 19.1359 39.6548 19.2012 39.6875Z" fill="#1C1D1F"/>
<path d="M22.1309 45.0977C20.6706 45.0977 19.7041 44.0356 19.7041 42.5439C19.7041 41.1516 20.4136 39.6191 22.0137 39.6191C23.6791 39.6191 24.1865 41.1516 24.1865 42.6123H20.2412V41.875H23.2832C23.2832 41.1246 22.8361 40.3613 22.0137 40.3613C20.8724 40.3613 20.6123 41.6411 20.6123 42.5439C20.6123 43.4612 21.1723 44.3604 22.1797 44.3604C22.8177 44.3604 23.2393 44.0788 23.5713 43.6426L24.1182 44.0771C23.7776 44.5928 23.1836 45.0977 22.1309 45.0977Z" fill="#1C1D1F"/>
<path d="M26.5791 44.0625L27.9365 39.7168H28.5322L28.415 40.5811L27.0332 45H26.4521L26.5791 44.0625ZM25.666 39.7168L26.8232 44.1113L26.9062 45H26.2959L24.7627 39.7168H25.666ZM29.8311 44.0771L30.9346 39.7168H31.833L30.2998 45H29.6943L29.8311 44.0771ZM28.6641 39.7168L29.9922 43.9893L30.1436 45H29.5674L28.1465 40.5713L28.0293 39.7168H28.6641Z" fill="#1C1D1F"/>
<path d="M35.876 41.377C35.876 40.7488 35.4933 40.3467 34.7627 40.3467C34.2789 40.3467 33.6201 40.6112 33.6201 41.1816H32.7168C32.7168 40.146 33.932 39.6191 34.8164 39.6191C35.9747 39.6191 36.7793 40.2062 36.7793 41.3867C36.7793 42.3809 36.6776 43.4218 36.8232 44.4092C36.8555 44.6059 36.9648 44.8043 36.9648 45H36.0225C35.9769 44.8958 35.9411 44.7575 35.915 44.585C35.7602 43.5398 35.876 42.4297 35.876 41.377ZM36.0322 41.7969L36.042 42.4316C35.2588 42.4316 33.5127 42.198 33.5127 43.4082C33.5127 43.9076 33.8629 44.3066 34.5234 44.3066C35.1198 44.3066 35.9226 43.8817 35.9639 43.208L36.3496 43.6426C36.2047 44.5122 35.2215 45.0977 34.3916 45.0977C33.4873 45.0977 32.6045 44.5136 32.6045 43.5303C32.6045 41.7571 34.738 41.7969 36.0322 41.7969Z" fill="#1C1D1F"/>
<path d="M39.1816 37.5V45H38.2734V37.5H39.1816Z" fill="#1C1D1F"/>
<path d="M41.6133 37.5V45H40.7051V37.5H41.6133Z" fill="#1C1D1F"/>
</svg>
