<svg width="50" height="50" viewBox="0 0 50 50" fill="none" xmlns="http://www.w3.org/2000/svg">
<rect width="50" height="50" fill="#FFFB47"/>
<path fill-rule="evenodd" clip-rule="evenodd" d="M14.4839 27.1497C14.661 27.3339 14.7286 27.5904 14.6634 27.8398L14.0177 30.2805C13.8507 30.918 14.6502 31.375 15.1296 30.9379L17.0036 29.2198C17.351 28.9005 17.8335 28.7816 18.2926 28.9005L20.7681 29.5392C21.3962 29.7012 21.8886 28.9251 21.4324 28.4436L19.6889 26.595C19.3649 26.2522 19.2437 25.7767 19.3626 25.3222L20.0082 22.8815C20.1751 22.2442 19.3739 21.7837 18.8964 22.2264L16.9197 24.0377C16.5305 24.4247 16.0363 24.5086 15.6867 24.2429C13.5394 22.6102 12.419 19.3333 13.2112 16.7412C14.2889 13.1487 18.4292 11.5821 21.873 11.9531C22.0595 11.9741 22.2459 11.9181 22.3858 11.7969C22.5816 11.6267 22.9499 11.3446 23.5069 10.925C23.6605 10.8134 23.6123 10.5382 23.4254 10.4868C18.6344 9.09089 12.6231 10.6582 10.7008 15.6922C9.05265 20.0034 11.54 24.1273 14.4792 27.1497H14.4839ZM22.1574 14.6618L19.7169 14.0161C19.0795 13.8492 18.6227 14.6518 19.0642 15.1281L20.7821 17.0023C21.1014 17.3497 21.2203 17.8322 21.1014 18.2938L20.4628 20.7694C20.3009 21.3974 21.0767 21.8901 21.5583 21.4338L23.4068 19.6901C23.7494 19.3661 24.225 19.2449 24.6794 19.3638L27.1199 20.0095C27.7572 20.1764 28.2176 19.375 27.775 18.8975L25.9639 16.9207C25.5768 16.5314 25.4929 16.0372 25.7587 15.6875C27.391 13.5402 30.6677 12.4197 33.2596 13.2119C36.8527 14.2899 38.4184 18.4302 38.0474 21.8744C38.0264 22.0609 38.0847 22.2474 38.2036 22.3872C38.3714 22.5831 38.6558 22.9491 39.0754 23.5085C39.1966 23.6723 39.4592 23.6243 39.5136 23.4269C40.9099 18.6336 39.3379 12.6261 34.3062 10.6989C29.9947 9.04851 25.8729 11.5411 22.8497 14.4777C22.6655 14.6549 22.4114 14.7225 22.1597 14.6572L22.1574 14.6618ZM30.2807 35.9825L27.8402 35.3368C27.5908 35.2715 27.3321 35.339 27.1502 35.5163C24.1285 38.4513 20.0032 40.9505 15.6937 39.295C10.6625 37.3677 9.09009 31.3598 10.4863 26.567C10.5419 26.3697 10.8009 26.327 10.9245 26.4853C11.3418 27.0448 11.6285 27.4109 11.7963 27.6067C11.9152 27.7442 11.9711 27.9306 11.9525 28.1196C11.731 30.1756 12.1226 32.122 13.083 33.7516C15.4714 37.8051 21.3823 38.0793 24.2436 34.3063C24.507 33.9568 24.4253 33.4624 24.0384 33.0732L22.2273 31.0963C21.7849 30.6193 22.2453 29.8175 22.8823 29.9845L25.3228 30.6302C25.7751 30.749 26.2528 30.6302 26.5955 30.3039L28.444 28.5601C28.9258 28.1034 29.7005 28.596 29.5371 29.2245L28.8984 31.7001C28.7795 32.1594 28.8984 32.6419 29.2178 32.9916L30.9358 34.8658C31.3776 35.3426 30.9172 36.1446 30.2807 35.9778V35.9825ZM35.516 22.8512C35.3389 22.667 35.2712 22.4106 35.3365 22.1611L35.9822 19.7204C36.1497 19.0812 35.3492 18.6259 34.8704 19.0654L32.994 20.7834C32.6466 21.1028 32.1641 21.2217 31.7026 21.1028L29.2272 20.4641C28.5992 20.3022 28.1031 21.0769 28.5604 21.5597L30.304 23.4083C30.628 23.7509 30.7492 24.2265 30.6304 24.6811L29.9846 27.1218C29.8175 27.7607 30.6176 28.2162 31.0965 27.7768L33.0731 25.9656C33.4624 25.5785 33.9566 25.4946 34.3062 25.7604C36.4535 27.393 37.5739 30.6699 36.7817 33.262C35.7042 36.8541 31.5636 38.4216 28.12 38.0502C27.9334 38.0292 27.747 38.0874 27.607 38.2064C27.3274 38.4488 26.733 38.8917 26.5092 39.0595C26.3488 39.1728 26.3564 39.4559 26.5675 39.5141C31.3534 40.9049 37.3619 39.3525 39.2945 34.3063C40.8594 30.213 38.1715 25.5819 35.516 22.8512Z" fill="black"/>
</svg>
