<svg width="50" height="50" viewBox="0 0 50 50" fill="none" xmlns="http://www.w3.org/2000/svg">
<path d="M17.1495 8.26459C17.5654 7.54368 18.3313 7.09928 19.1604 7.09766L30.8396 7.09766C31.6687 7.09928 32.4346 7.54368 32.8505 8.26459L38.6901 18.4307C39.1033 19.1533 39.1033 20.0421 38.6901 20.7646L32.8505 30.9307C32.4346 31.6516 31.6687 32.096 30.8396 32.0977H19.1604C18.3313 32.096 17.5654 31.6516 17.1495 30.9307L11.3099 20.7646C10.8967 20.0421 10.8967 19.1533 11.3099 18.4307L17.1495 8.26459Z" fill="url(#paint0_linear_12457_16529)"/>
<path fill-rule="evenodd" clip-rule="evenodd" d="M19.5739 12.5504H22.2921V18.171C23.146 17.1177 24.3952 16.4533 25.7869 16.4533C28.3604 16.4533 30.4467 18.725 30.4467 21.5272C30.4467 24.3294 28.3604 26.601 25.7869 26.601C24.3952 26.601 23.146 25.9366 22.2921 24.8833V26.2107H20.7389V13.7212H19.5739V12.5504ZM22.2921 23.138C22.8731 24.2676 24.0462 25.0398 25.3986 25.0398C27.3288 25.0398 28.8934 23.4672 28.8934 21.5272C28.8934 19.5872 27.3288 18.0145 25.3986 18.0145C24.0462 18.0145 22.8731 18.7867 22.2921 19.9163V23.138Z" fill="white"/>
<path d="M32.129 40.8376H33C32.9546 41.2681 32.8352 41.6534 32.6416 41.9934C32.4481 42.3334 32.1744 42.6032 31.8205 42.8029C31.4667 42.9994 31.0251 43.0977 30.4959 43.0977C30.1088 43.0977 29.7565 43.0228 29.4389 42.8731C29.1244 42.7233 28.8537 42.5112 28.6269 42.2367C28.4001 41.9591 28.2246 41.6268 28.1007 41.24C27.9797 40.8501 27.9192 40.4165 27.9192 39.9392V39.2608C27.9192 38.7835 27.9797 38.3514 28.1007 37.9646C28.2246 37.5747 28.4016 37.2409 28.6314 36.9633C28.8643 36.6857 29.144 36.472 29.4707 36.3223C29.7973 36.1725 30.1647 36.0977 30.573 36.0977C31.072 36.0977 31.4939 36.1944 31.8387 36.3878C32.1834 36.5812 32.4511 36.8494 32.6416 37.1926C32.8352 37.5326 32.9546 37.9272 33 38.3764H32.129C32.0867 38.0582 32.008 37.7853 31.8931 37.5575C31.7782 37.3267 31.6149 37.1489 31.4032 37.0241C31.1915 36.8993 30.9148 36.837 30.573 36.837C30.2797 36.837 30.0211 36.8947 29.7973 37.0101C29.5765 37.1255 29.3905 37.2893 29.2393 37.5014C29.0911 37.7135 28.9792 37.9678 28.9036 38.2641C28.828 38.5604 28.7902 38.8895 28.7902 39.2514V39.9392C28.7902 40.273 28.8235 40.5865 28.89 40.8797C28.9595 41.173 29.0639 41.4303 29.203 41.6518C29.3421 41.8733 29.519 42.048 29.7338 42.1759C29.9485 42.3006 30.2025 42.363 30.4959 42.363C30.8679 42.363 31.1643 42.3022 31.385 42.1805C31.6058 42.0589 31.7721 41.8842 31.884 41.6565C31.999 41.4288 32.0806 41.1558 32.129 40.8376Z" fill="#7F8BA5"/>
<path d="M27.0573 42.2694V43.0041H23.5597V42.2694H27.0573ZM23.7366 36.1912V43.0041H22.8611V36.1912H23.7366ZM26.5946 39.1204V39.855H23.5597V39.1204H26.5946ZM27.0119 36.1912V36.9305H23.5597V36.1912H27.0119Z" fill="#7F8BA5"/>
<path d="M19.4361 40.3323H17.6714V39.5977H19.4361C19.7778 39.5977 20.0545 39.5415 20.2662 39.4292C20.4779 39.3169 20.6322 39.1609 20.7289 38.9613C20.8287 38.7616 20.8787 38.5339 20.8787 38.2781C20.8787 38.0442 20.8287 37.8243 20.7289 37.6184C20.6322 37.4125 20.4779 37.2472 20.2662 37.1224C20.0545 36.9945 19.7778 36.9305 19.4361 36.9305H17.8755V43.0041H17V36.1912H19.4361C19.9351 36.1912 20.357 36.2801 20.7017 36.458C21.0465 36.6358 21.3081 36.8822 21.4865 37.1973C21.665 37.5092 21.7542 37.8664 21.7542 38.2688C21.7542 38.7055 21.665 39.0783 21.4865 39.3871C21.3081 39.6959 21.0465 39.9314 20.7017 40.0936C20.357 40.2527 19.9351 40.3323 19.4361 40.3323Z" fill="#7F8BA5"/>
<defs>
<linearGradient id="paint0_linear_12457_16529" x1="14.7865" y1="13.7266" x2="35.9171" y2="25.6647" gradientUnits="userSpaceOnUse">
<stop stop-color="#83E574"/>
<stop offset="0.605" stop-color="#60A400"/>
</linearGradient>
</defs>
</svg>
