<svg width="50" height="50" viewBox="0 0 50 50" fill="none" xmlns="http://www.w3.org/2000/svg">
<path d="M14.8782 10.5096C15.4138 9.58604 16.3998 9.01673 17.4675 9.01465L32.5058 9.01465C33.5735 9.01673 34.5595 9.58604 35.0951 10.5096L42.6143 23.5332C43.1463 24.4588 43.1463 25.5975 42.6143 26.5231L35.0951 39.5467C34.5595 40.4702 33.5735 41.0396 32.5058 41.0416H17.4675C16.3998 41.0396 15.4138 40.4702 14.8782 39.5467L7.35897 26.5231C6.82696 25.5974 6.82696 24.4588 7.35897 23.5332L14.8782 10.5096Z" fill="url(#paint0_linear_9176_11080)"/>
<path fill-rule="evenodd" clip-rule="evenodd" d="M17.9999 16H21.4999V23.2005C22.5993 21.8511 24.2079 21 25.9999 21C29.3136 21 31.9999 23.9101 31.9999 27.5C31.9999 31.0898 29.3136 34 25.9999 34C24.2079 34 22.5993 33.1489 21.4999 31.7995V33.5H19.4999V17.5H17.9999V16ZM21.4999 29.5636C22.248 31.0108 23.7585 32 25.4999 32C27.9852 32 29.9999 29.9853 29.9999 27.5C29.9999 25.0147 27.9852 23 25.4999 23C23.7585 23 22.248 23.9892 21.4999 25.4364V29.5636Z" fill="white"/>
<defs>
<linearGradient id="paint0_linear_9176_11080" x1="11.8355" y1="17.5069" x2="38.9764" y2="32.919" gradientUnits="userSpaceOnUse">
<stop stop-color="#83E574"/>
<stop offset="0.605" stop-color="#60A400"/>
</linearGradient>
</defs>
</svg>
