<svg width="50" height="50" viewBox="0 0 50 50" fill="none" xmlns="http://www.w3.org/2000/svg">
<path d="M23.3418 26.4074H10.3749C9.42969 29.8362 9.72636 33.5531 11.2022 36.7891L20.9673 27.0137V28.7844L23.3418 26.4074Z" fill="#DC7FAD"/>
<path d="M20.9673 28.7844V27.0137L11.2022 36.7891L11.2009 36.7903C11.384 37.1898 11.5838 37.58 11.7995 37.9617L20.9673 28.7844Z" fill="#CB67A3"/>
<path d="M26.6981 26.4074H28.4667L18.7015 16.6322C18.3526 16.7917 18.0094 16.9645 17.6724 17.1505C17.625 17.1768 17.5776 17.2032 17.5304 17.23L26.6981 26.4074Z" fill="#EA5E37"/>
<path d="M17.5304 17.23C14.4385 18.9867 12.0233 21.8248 10.7809 25.1565H24.5914L23.3418 26.4074H26.6981L17.5304 17.23Z" fill="#EA6D60"/>
<path d="M10.3749 26.4074H23.3418L24.5914 25.1565H10.7809C10.6853 25.4129 10.5965 25.6721 10.5146 25.9339C10.4658 26.091 10.4186 26.2489 10.3749 26.4074Z" fill="#E3534F"/>
<path d="M19.7166 30.8928L20.9673 32.1448V28.7844L11.7995 37.9617C13.5529 41.0539 16.3868 43.4727 19.7166 44.7173V30.8928Z" fill="#AD87C9"/>
<path d="M20.9673 32.1448L19.7166 30.8928V44.7173C20.045 44.8401 20.378 44.9516 20.715 45.0516C20.7989 45.0764 20.883 45.1009 20.9673 45.1241V32.1448Z" fill="#9475C2"/>
<path d="M26.2252 45.6241C27.997 45.4826 29.7269 45.0319 31.3377 44.2957L21.5728 34.5207H23.3408L20.9673 32.1448V45.1241C22.6742 45.5955 24.4535 45.7655 26.2252 45.6241Z" fill="#85A5DA"/>
<path d="M32.5083 43.6982L23.3408 34.5207H21.5728L31.3377 44.2957C31.716 44.1228 32.0878 43.9341 32.4519 43.73C32.4708 43.7195 32.4896 43.7089 32.5083 43.6982Z" fill="#6B9CC1"/>
<path d="M26.6983 34.5207H23.3408L32.5083 43.6982C35.6002 41.9415 38.0155 39.1041 39.2581 35.7724H25.448L26.6983 34.5207Z" fill="#80D180"/>
<path d="M39.5632 34.8691C39.5983 34.7534 39.632 34.6373 39.6644 34.5207H26.6983L25.448 35.7724H39.2581C39.3691 35.4749 39.4709 35.1737 39.5632 34.8691Z" fill="#74CC57"/>
<path d="M29.0722 32.1443L26.6983 34.5207H39.6644C40.6093 31.0919 40.3128 27.3754 38.837 24.1395L29.0722 33.9144V32.1443Z" fill="#C4E434"/>
<path d="M38.2399 22.967L29.0722 32.1443V33.9144L38.837 24.1395C38.655 23.7403 38.4554 23.3491 38.2399 22.967Z" fill="#C3E10B"/>
<path d="M29.0722 28.784V32.1443L38.2399 22.967C36.4863 19.8742 33.6528 17.4552 30.3223 16.2105V30.0354L29.0722 28.784Z" fill="#F9F133"/>
<path d="M29.4969 15.9287C29.3561 15.8851 29.2145 15.8435 29.0722 15.8039V28.784L30.3223 30.0354V16.2105C30.0502 16.1088 29.775 16.0148 29.4969 15.9287Z" fill="#F9E20A"/>
<path fill-rule="evenodd" clip-rule="evenodd" d="M29.4969 15.9287C29.7743 16.0141 30.0495 16.1075 30.3223 16.2089V16.2105C30.0502 16.1088 29.775 16.0148 29.4969 15.9287ZM18.7001 16.6309L18.7015 16.6322C18.3526 16.7917 18.0094 16.9645 17.6724 17.1505C18.0078 16.9647 18.3506 16.7913 18.7001 16.6309ZM39.5632 34.8691C39.4717 35.1728 39.3706 35.4741 39.26 35.7724H39.2581C39.3691 35.4749 39.4709 35.1737 39.5632 34.8691ZM32.4519 43.73C32.0896 43.9339 31.7184 44.1231 31.3392 44.2972L31.3377 44.2957C31.716 44.1228 32.0878 43.9341 32.4519 43.73Z" fill="#E3534F"/>
<path d="M26.6981 26.4074L29.0722 28.784V15.8039C27.3651 15.3324 25.5856 15.1626 23.8136 15.3041C22.0419 15.4455 20.3121 15.8961 18.7015 16.6322L28.4667 26.4074H26.6981Z" fill="#FFB434"/>
<path d="M27.6239 15.1468C21.5034 14.1056 15.1952 16.9321 11.8917 22.1872V4H9.50098V30.3898C9.50098 38.1203 15.4908 44.9804 23.1979 45.8925C32.1686 46.9542 40.5 39.7461 40.5 30.6291C40.5 23.1587 35.1424 16.426 27.6239 15.1468ZM25.0196 43.6068C17.8661 43.5987 11.8988 37.6135 11.8908 30.4641C11.8908 30.4536 11.8916 30.4434 11.8916 30.4322V30.4265C11.8988 27.8287 12.6749 25.2914 14.1219 23.135C15.5689 20.9786 17.6218 19.2998 20.0214 18.3108C22.4209 17.3217 25.0595 17.0667 27.6037 17.578C32.7546 18.613 36.8806 22.7601 37.8987 27.913C38.4023 30.4614 38.1401 33.102 37.1453 35.5012C35.1338 40.3527 30.2727 43.6056 25.0195 43.6054L25.0196 43.6068Z" fill="#1D1B2F"/>
</svg>
