<svg width="50" height="50" viewBox="0 0 50 50" fill="none" xmlns="http://www.w3.org/2000/svg">
<rect width="50" height="50" fill="#2A5791"/>
<path d="M40.6309 26.6907C42.1921 26.6907 42.9457 27.4667 43.3682 28.2307L42.6211 28.4466C42.0395 27.6147 41.488 27.3616 40.8574 27.4417C40.5267 27.4849 39.4005 27.8551 39.4004 29.845C39.4004 31.835 40.5266 32.2052 40.8574 32.2484C41.4819 32.3285 42.0395 32.07 42.6211 31.2445L43.3682 31.4593C42.9457 32.2234 42.186 33.0003 40.6309 33.0003C38.9289 33.0003 37.6924 31.675 37.6924 29.845C37.6925 28.0151 38.9289 26.6908 40.6309 26.6907ZM10.7715 23.9182C12.8958 23.9182 13.4589 25.489 13.459 26.3147C13.459 27.2081 13.0246 27.9104 12.2656 28.2679C13.2328 28.6314 13.7833 29.4018 13.7773 30.4368C13.7773 31.6753 13.0125 32.9943 10.8516 32.9945H7V23.9182H10.7715ZM34.5264 26.6848C35.6529 26.6848 36.4365 27.4118 36.4365 28.4593C36.4365 29.4575 35.9224 29.784 35.2734 30.012L36.8838 32.9886H35.1025L33.4854 29.6605H33.8896C34.5876 29.6605 34.9004 29.3035 34.9004 28.4964C34.9004 28.0281 34.7038 27.4671 33.7793 27.4671H33.0996V32.9945H31.5576V26.6848H34.5264ZM20.1143 27.4671H17.2861C17.1576 27.4671 17.1572 27.4853 17.1572 27.5716V29.2786H19.6553V30.2025H17.1572V31.9652C17.1573 32.0822 17.1823 32.2054 17.4453 32.2054H20.2734V32.9935H16.71C15.9877 32.9934 15.6201 32.587 15.6201 31.7738V28.0833C15.6201 27.6273 15.6207 26.678 16.833 26.678H20.1143V27.4671ZM23.1514 32.2181H24.1309V32.9886H22.582C21.7065 32.9886 21.6084 32.4395 21.6084 32.0267V23.0246H23.1514V32.2181ZM27.4492 26.678C28.3369 26.678 28.5275 27.3124 28.7295 27.9778L30.2041 32.9876H28.582L28.0742 31.2191H26.1572L25.6738 32.9876H24.7617L26.1758 27.8118C26.3411 27.2511 26.6228 26.6781 27.4492 26.678ZM8.97168 32.0882H10.1045C11.2674 32.0881 11.8123 31.5772 11.8125 30.4808C11.8125 29.8708 11.4695 28.7183 10.1719 28.7181H8.97168V32.0882ZM26.4082 30.3255H27.8164L27.1064 27.8362L26.4082 30.3255ZM8.97168 27.8186H9.95703C10.5264 27.8186 11.4881 27.6274 11.4883 26.3831C11.4883 25.3479 10.869 24.8235 9.64453 24.8235H8.97168V27.8186Z" fill="white"/>
<path d="M7 23.1291C11.2797 16.8318 18.5839 14.5088 24.1064 14.5088C26.9044 14.5088 37.2393 15.2975 42.6577 25.2057C41.421 24.1582 34.7474 17.1892 23.6901 17.1892C18.9267 17.1953 13.0491 18.5632 7 23.1291Z" fill="#C9282F"/>
</svg>
