<svg width="50" height="50" viewBox="0 0 50 50" fill="none" xmlns="http://www.w3.org/2000/svg">
<rect width="50" height="50" fill="#377C6F"/>
<path d="M33.5593 42.1452C39.5399 39.1264 40.7804 29.0035 36.3297 19.5344C31.8785 10.0658 23.422 4.83648 17.441 7.85481C13.4525 9.86792 11.5721 15.0402 12.0819 21.0711C12.1336 21.683 13.0936 21.6396 13.1047 21.0193C13.1897 16.2439 14.5157 11.7803 17.7149 10.166C22.5961 7.70224 29.6284 12.2472 33.4219 20.3166C37.215 28.3864 36.3325 36.9256 31.4513 39.3889C27.5301 41.3679 22.2214 38.8252 18.3184 33.5658C18.6484 33.1101 18.8439 32.5439 18.8439 31.9303C18.8439 30.4238 17.6653 29.2026 16.2114 29.2026C14.7575 29.2026 13.5789 30.4238 13.5789 31.9303C13.5789 33.7461 15.3478 35.0672 16.9958 34.5349C21.6747 41.3529 28.5021 44.6973 33.5593 42.1452Z" fill="white"/>
</svg>
