<svg width="50" height="50" viewBox="0 0 50 50" fill="none" xmlns="http://www.w3.org/2000/svg">
<path d="M18.3724 10.2939V25.6927C18.3724 27.9461 19.6426 29.4012 21.701 29.4369C23.5667 29.4693 25.4463 29.4369 27.3197 29.4488C27.5902 29.4488 27.7006 29.3672 27.6975 29.0506C27.6789 27.5308 27.8079 27.7929 26.5781 27.7827C24.9628 27.7708 23.3475 27.7827 21.7321 27.7827C20.6485 27.7827 19.9657 27.0266 19.9116 25.9718C19.8851 23.1297 19.896 20.2858 19.8976 17.4419C19.9048 17.3764 19.9162 17.3116 19.9318 17.2479C22.3395 17.2479 24.7472 17.2473 27.1549 17.2564C27.5778 17.2564 27.7006 17.0862 27.6975 16.6505C27.6897 15.5953 27.6975 15.5953 26.7383 15.5953H19.8976C19.8976 13.3959 19.8976 11.1965 19.8976 8.99705C19.8815 8.67248 20.0069 8.34665 20.2303 8.13249C20.9112 7.45172 21.5782 6.74884 22.3043 6V12.9897H30.028V32H20.9765C18.5248 32 16.6234 30.3406 16.1057 27.7214C16.0356 27.3234 16.0043 26.9183 16.0124 26.5131C16.0124 22.1221 16.0124 17.7329 16.0015 13.342C15.9837 12.9564 16.1301 12.5696 16.3917 12.3107C17.0307 11.6435 17.6355 10.9491 18.2667 10.2565L18.3724 10.2939ZM22.8422 19.8093C22.4846 19.8007 22.3183 19.9284 22.3214 20.3437C22.3338 21.7971 22.3307 23.2488 22.3214 24.7022C22.3214 25.0681 22.4613 25.1975 22.7878 25.1958C24.2741 25.1867 25.7604 25.1867 27.2466 25.1958C27.5825 25.1958 27.7053 25.0443 27.7037 24.6852C27.6975 23.2341 27.6975 21.7818 27.7037 20.3283C27.7037 19.9539 27.5747 19.7922 27.2187 19.8024C25.764 19.843 24.2972 19.8365 22.8422 19.8093Z" fill="#FE5602"/>
<path d="M31.7169 14.2994C32.3401 15.0431 33.0795 15.7185 33.6743 16.4762C33.8502 16.687 33.9593 16.9544 33.9852 17.2386C34.0049 20.7559 34.0049 24.2686 33.9852 27.7768C33.9883 28.0046 33.916 28.2258 33.7816 28.3997C33.0866 29.1537 32.3637 29.877 31.6159 30.6445V14.422L31.7169 14.2994Z" fill="#FE5500"/>
<path d="M11.8359 36.8906V44H10.8936V36.8906H11.8359Z" fill="black"/>
<path d="M14.3164 40.1596V44H13.4131V38.7168H14.2676L14.296 39.3739L14.3164 40.1596ZM17.1094 39.0586C17.2591 39.2116 17.373 39.4102 17.4512 39.6543C17.5293 39.8952 17.5684 40.1898 17.5684 40.5381V44H16.6602V40.5283C16.6602 40.2516 16.6195 40.0303 16.5381 39.8643C16.1513 39.0597 14.978 39.3392 14.5166 39.9131C14.4445 40.005 14.3779 40.0869 14.3164 40.1596C14.3164 40.1596 14.3164 40.3672 14.296 39.3739C14.9354 38.5786 16.3416 38.2567 17.1094 39.0586Z" fill="black"/>
<path d="M22.0166 42.5986C22.0166 42.2059 21.8465 41.8908 20.8008 41.6855C19.9327 41.5023 19.2954 41.2279 19.0283 40.7334C18.8382 40.3813 18.8595 39.9248 19.0332 39.5713C19.2231 39.1981 19.5697 38.9031 20.0488 38.7412C20.6394 38.5417 21.3789 38.5639 21.9385 38.8438C22.5347 39.1418 22.8662 39.6612 22.8662 40.2695H21.9629C21.9629 39.1517 19.8047 38.9844 19.8047 40.1377C19.8047 40.5193 20.0172 40.7287 21.0205 40.9531C21.8864 41.1484 22.4414 41.4105 22.7148 41.8076C22.9813 42.1946 22.9832 42.7525 22.7734 43.165C22.2593 44.2109 20.621 44.3245 19.6973 43.8486C19.0527 43.5166 18.7158 42.9551 18.7158 42.3691H19.624C19.6499 42.8609 19.9374 43.1431 20.3174 43.2676C20.8655 43.4377 22.0166 43.4091 22.0166 42.5986Z" fill="black"/>
<path d="M25.0879 38.7168V44H24.1797V38.7168H25.0879ZM24.1113 37.3154C24.1113 37.0201 24.2948 36.793 24.6436 36.793C24.9914 36.793 25.1807 37.0248 25.1807 37.3154C25.1807 37.5907 24.9945 37.8232 24.6436 37.8232C24.2917 37.8232 24.1113 37.5951 24.1113 37.3154Z" fill="black"/>
<path d="M29.9609 38.7168H30.7812V43.8877C30.7812 44.8187 30.3841 45.4876 29.707 45.8262C28.7277 46.3301 27.241 46.1014 26.5869 45.167L27.0605 44.6299C27.5058 45.1668 28.004 45.3428 28.4766 45.3428C29.3344 45.3428 29.8779 44.8529 29.8779 43.9316V39.8789L29.9609 38.7168ZM26.4648 40.2158C26.6608 39.5496 27.0264 39.0675 27.5391 38.8145C28.0587 38.5513 28.751 38.5456 29.2773 38.7949C29.528 38.9089 29.7396 39.0765 29.9121 39.2979C30.7935 40.3914 30.777 42.3507 29.9121 43.4238C29.1523 44.3844 27.6029 44.2848 26.8848 43.3359C26.2362 42.4789 26.1781 41.2143 26.4648 40.2158ZM27.5537 42.7695C28.0884 43.5945 29.3665 43.4746 29.8242 42.6377C30.337 41.726 30.3245 40.0061 29.2236 39.498C28.3297 39.0855 27.5115 39.6963 27.3047 40.5723C27.1466 41.2738 27.1576 42.1405 27.5537 42.7695Z" fill="black"/>
<path d="M33.0566 36.5L33.0576 40.1581L33.0566 44H32.1533V36.5H33.0566ZM33.0664 39.3369C33.6048 38.6872 34.5205 38.4526 35.3174 38.7266C36.0962 38.9821 36.3086 39.8049 36.3086 40.5381V44H35.4004V40.5283C35.4004 39.9706 35.2319 39.6466 34.9219 39.498C34.35 39.2121 33.6436 39.4319 33.2568 39.9131C33.1822 40.0083 33.116 40.0895 33.0576 40.1581C32.1709 41.1995 33.0664 39.3369 33.0664 39.3369Z" fill="black"/>
<path d="M39.873 38.7168V39.4102H37.0166V38.7168H39.873ZM37.9834 37.4326H38.8867V42.6914C38.8867 42.8704 38.9144 43.0055 38.9697 43.0967C39.1588 43.4081 39.5927 43.3319 39.8926 43.2627L39.8975 44C39.2845 44.195 38.4812 44.1502 38.1445 43.5264C38.0371 43.318 37.9834 43.0381 37.9834 42.6865V37.4326Z" fill="black"/>
</svg>
