<svg width="50" height="50" viewBox="0 0 50 50" fill="none" xmlns="http://www.w3.org/2000/svg">
<path d="M18.3724 10.2939V25.6927C18.3724 27.9461 19.6426 29.4012 21.701 29.4369C23.5667 29.4693 25.4463 29.4369 27.3197 29.4488C27.5902 29.4488 27.7006 29.3672 27.6975 29.0506C27.6789 27.5308 27.8079 27.7929 26.5781 27.7827C24.9628 27.7708 23.3475 27.7827 21.7321 27.7827C20.6485 27.7827 19.9657 27.0266 19.9116 25.9718C19.8851 23.1297 19.896 20.2858 19.8976 17.4419C19.9284 17.1628 20.1288 17.2479 20.3795 17.2479C22.6385 17.2479 24.8975 17.2479 27.1549 17.2564C27.5778 17.2564 27.7006 17.0862 27.6975 16.6505C27.6897 15.5953 27.6975 15.5953 26.7383 15.5953H19.8976C19.8976 13.3959 19.8976 11.1965 19.8976 8.99705C19.8815 8.67248 20.0069 8.34665 20.2303 8.13249C20.9112 7.45172 21.5782 6.74884 22.3043 6V12.9897H30.028V32H20.9765C17.9951 32 15.9561 29.349 16.0124 26.5131C16.0124 22.1221 16.0124 17.7329 16.0015 13.342C15.9837 12.9564 16.1301 12.5696 16.3917 12.3107C17.0307 11.6435 17.6355 10.9491 18.2667 10.2565L18.3724 10.2939ZM22.8422 19.8093C22.4846 19.8007 22.3183 19.9284 22.3214 20.3437C22.3338 21.7971 22.3307 23.2488 22.3214 24.7022C22.3214 25.0681 22.4613 25.1975 22.7878 25.1958C24.2741 25.1867 25.7604 25.1867 27.2466 25.1958C27.5825 25.1958 27.7053 25.0443 27.7037 24.6852C27.6975 23.2341 27.6975 21.7818 27.7037 20.3283C27.7037 19.9539 27.5747 19.7922 27.2187 19.8024C25.764 19.843 24.2972 19.8365 22.8422 19.8093Z" fill="#FE5602"/>
<path d="M31.7169 14.2994C32.3401 15.0431 33.0795 15.7185 33.6743 16.4762C33.8502 16.687 33.9593 16.9544 33.9852 17.2386C34.0049 20.7559 34.0049 24.2686 33.9852 27.7768C33.9883 28.0046 33.916 28.2258 33.7816 28.3997C33.0866 29.1537 32.3637 29.877 31.6159 30.6445V14.422L31.7169 14.2994Z" fill="#FE5500"/>
<path d="M17.7676 41.2119V40.4453C18.9387 40.4453 21 40.7769 21 39.0684C21 37.3547 18.9369 37.6621 17.7676 37.6621V44H16.8252V36.8906C18.0523 36.8906 19.6669 36.5976 20.8096 37.1689C22.2663 37.8973 22.3699 40.2511 20.8096 40.9629C19.8906 41.374 18.7463 41.2119 17.7676 41.2119Z" fill="black"/>
<path d="M23.1338 36.8906C24.2956 36.8906 25.7433 36.6496 26.8398 37.1348C29.1289 38.1387 27.6735 40.4949 26.0684 41.1191H24.0762V40.3525H25.5166C26.6119 40.3525 27.4321 39.3628 26.8789 38.3066C26.3993 37.391 24.9294 37.6621 24.0762 37.6621V44H23.1338V36.8906ZM27.2891 44L25.5605 40.7773L26.542 40.7725L28.2949 43.9414V44H27.2891Z" fill="black"/>
<path d="M31.9277 37.5205L29.5742 44H28.6123L31.3223 36.8906H31.9424L31.9277 37.5205ZM33.9004 44L31.542 37.5205L31.5273 36.8906H32.1475L34.8672 44H33.9004ZM32.9425 41.3682L33.2233 42.1396H30.2499L30.5302 41.3682H32.9425Z" fill="black"/>
</svg>
