<svg width="50" height="50" viewBox="0 0 50 50" fill="none" xmlns="http://www.w3.org/2000/svg">
<path d="M18.3724 10.2939V25.6927C18.3724 27.9461 19.6426 29.4012 21.701 29.4369C23.5667 29.4693 25.4463 29.4369 27.3197 29.4488C27.5902 29.4488 27.7006 29.3672 27.6975 29.0506C27.6789 27.5308 27.8079 27.7929 26.5781 27.7827C24.9628 27.7708 23.3475 27.7827 21.7321 27.7827C20.6485 27.7827 19.9657 27.0266 19.9116 25.9718C19.8851 23.1297 19.896 20.2858 19.8976 17.4419C19.9284 17.1628 20.1288 17.2479 20.3795 17.2479C22.6385 17.2479 24.8975 17.2479 27.1549 17.2564C27.5778 17.2564 27.7006 17.0862 27.6975 16.6505C27.6897 15.5953 27.6975 15.5953 26.7383 15.5953H19.8976C19.8976 13.3959 19.8976 11.1965 19.8976 8.99705C19.8815 8.67248 20.0069 8.34665 20.2303 8.13249C20.9112 7.45172 21.5782 6.74884 22.3043 6V12.9897H30.028V32H20.9765C17.9951 32 15.9561 29.349 16.0124 26.5131C16.0124 22.1221 16.0124 17.7329 16.0015 13.342C15.9837 12.9564 16.1301 12.5696 16.3917 12.3107C17.0307 11.6435 17.6355 10.9491 18.2667 10.2565L18.3724 10.2939ZM22.8422 19.8093C22.4846 19.8007 22.3183 19.9284 22.3214 20.3437C22.3338 21.7971 22.3307 23.2488 22.3214 24.7022C22.3214 25.0681 22.4613 25.1975 22.7878 25.1958C24.2741 25.1867 25.7604 25.1867 27.2466 25.1958C27.5825 25.1958 27.7053 25.0443 27.7037 24.6852C27.6975 23.2341 27.6975 21.7818 27.7037 20.3283C27.7037 19.9539 27.5747 19.7922 27.2187 19.8024C25.764 19.843 24.2972 19.8365 22.8422 19.8093Z" fill="#FE5602"/>
<path d="M31.7169 14.2994C32.3401 15.0431 33.0795 15.7185 33.6743 16.4762C33.8502 16.687 33.9593 16.9544 33.9852 17.2386C34.0049 20.7559 34.0049 24.2686 33.9852 27.7768C33.9883 28.0046 33.916 28.2258 33.7816 28.3997C33.0866 29.1537 32.3637 29.877 31.6159 30.6445V14.422L31.7169 14.2994Z" fill="#FE5500"/>
<path d="M6.83496 41.2119H4.93555V40.4453H6.83496C7.57064 40.4453 8.01823 40.1979 8.22656 39.7812C8.4473 39.3531 8.44092 38.8086 8.22656 38.3799C8.01758 37.9489 7.56837 37.6621 6.83496 37.6621H5.15527V44H4.21289V36.8906H6.83496C7.90918 36.8906 8.65788 37.2829 9.04199 37.9404C9.43559 38.6075 9.4395 39.5586 9.04199 40.2256C8.65851 40.8691 7.91095 41.2119 6.83496 41.2119Z" fill="black"/>
<path d="M10.8193 36.8906H11.7324L14.0615 42.6865L16.3857 36.8906H17.3037L14.4131 44H13.7002L10.8193 36.8906ZM10.5215 36.8906H11.3271L11.459 41.2266V44H10.5215V36.8906ZM16.791 36.8906H17.5967V44H16.6592V41.2266L16.791 36.8906Z" fill="black"/>
<path d="M26.0244 41.7393H26.9619C26.9131 42.1885 26.7845 42.5905 26.5762 42.9453C25.7018 44.4344 23.3316 44.4625 22.2549 43.1992C21.2758 42.0374 21.2455 40.1144 21.6885 38.7412C22.0904 37.516 23.0337 36.793 24.3496 36.793C25.9594 36.793 26.8151 37.762 26.9619 39.1709H26.0244C25.8867 38.1676 25.4492 37.5645 24.3496 37.5645C23.1012 37.5645 22.4307 38.5641 22.4307 40.084C22.4307 41.143 22.3871 42.5241 23.4463 43.1357C23.949 43.419 24.7174 43.4111 25.2236 43.1406C25.7002 42.886 25.9205 42.4015 26.0244 41.7393Z" fill="black"/>
<path d="M29.0908 36.5V44H28.1826V36.5H29.0908Z" fill="black"/>
<path d="M30.3018 41.3047C30.3018 40.5396 30.5315 39.8703 30.9463 39.3906C31.606 38.6176 32.7845 38.4016 33.7002 38.8242C34.5954 39.2231 35.1113 40.1549 35.1113 41.3047C35.1113 41.7033 35.0745 42.0967 34.9453 42.4766C34.7255 43.123 34.3018 43.6221 33.7051 43.8975C33.096 44.1749 32.3175 44.1721 31.708 43.8975C30.6896 43.4274 30.3018 42.3574 30.3018 41.3047ZM32.0498 43.2041C32.4374 43.4113 32.9714 43.4146 33.3584 43.2041C34.5323 42.5564 34.5285 40.1658 33.3535 39.5176C32.9677 39.301 32.4313 39.3044 32.0449 39.5176C30.8778 40.1728 30.8794 42.5584 32.0498 43.2041Z" fill="black"/>
<path d="M39.4766 42.7793V38.7168H40.3848V44H39.5205L39.4766 42.7793ZM39.5596 43.4043C39.3968 43.6224 39.1836 43.7933 38.9199 43.917C38.4201 44.1453 37.7691 44.1662 37.25 43.9854C36.6161 43.761 36.2246 43.1824 36.2246 42.125V38.7168H37.1279V42.1348C37.1279 42.842 37.3952 43.1695 37.7383 43.2773C38.1403 43.4002 38.6622 43.3399 39.0127 43.1113C39.75 42.6198 40.9128 41.591 39.5596 43.4043Z" fill="black"/>
<path d="M45.0918 42.9746V36.5H46V44H45.1699L45.0918 42.9746ZM41.5371 41.417C41.5371 40.6955 41.658 39.9484 42.1084 39.3613C42.6628 38.6513 43.6739 38.4054 44.4961 38.7949C46.2227 39.5797 46.2631 43.1006 44.4961 43.9268C43.9667 44.1674 43.2856 44.1663 42.7676 43.8975C41.8733 43.4274 41.5371 42.3676 41.5371 41.417ZM42.4453 41.417C42.4453 42.4721 42.8602 43.3311 43.8418 43.3311C45.3303 43.3311 45.6424 41.3557 45.1504 40.2646C44.92 39.7201 44.4414 39.3809 43.8516 39.3809C42.7484 39.3809 42.4453 40.5079 42.4453 41.417Z" fill="black"/>
</svg>
