<svg width="50" height="50" viewBox="0 0 50 50" fill="none" xmlns="http://www.w3.org/2000/svg">
<rect width="50" height="50" fill="#FE5602"/>
<path d="M19.8597 12.6056V25.5366C19.8597 27.4288 20.9236 28.6507 22.6477 28.6807C24.2103 28.7079 25.7847 28.6807 27.3538 28.6908C27.5804 28.6908 27.6728 28.6222 27.6702 28.3563C27.6546 27.0801 27.7627 27.3002 26.7327 27.2916C25.3797 27.2816 24.0267 27.2916 22.6737 27.2916C21.7661 27.2916 21.1942 26.6567 21.1489 25.771C21.1268 23.3843 21.1359 20.9962 21.1372 18.6081C21.163 18.3737 21.3309 18.4452 21.5408 18.4452C23.4329 18.4452 25.325 18.4452 27.2158 18.4523C27.57 18.4523 27.6728 18.3094 27.6702 17.9435C27.6637 17.0574 27.6702 17.0574 26.8668 17.0574H21.1372C21.1372 15.2105 21.1372 13.3636 21.1372 11.5166C21.1237 11.2441 21.2287 10.9704 21.4158 10.7906C21.9862 10.2189 22.5448 9.62871 23.1529 8.99988V14.8694H29.6222V30.8331H22.0409C19.5437 30.8331 17.8358 28.6069 17.883 26.2255C17.883 22.5382 17.883 18.8525 17.8739 15.1652C17.859 14.8414 17.9816 14.5166 18.2007 14.2992C18.7359 13.739 19.2425 13.1559 19.7712 12.5742L19.8597 12.6056ZM23.6035 20.596C23.304 20.5889 23.1647 20.6961 23.1673 21.0448C23.1777 22.2653 23.1751 23.4843 23.1673 24.7048C23.1673 25.0121 23.2845 25.1207 23.5579 25.1193C24.8028 25.1117 26.0477 25.1117 27.2926 25.1193C27.5739 25.1193 27.6767 24.9921 27.6754 24.6906C27.6702 23.472 27.6702 22.2524 27.6754 21.0319C27.6754 20.7175 27.5674 20.5817 27.2691 20.5903C26.0508 20.6244 24.8222 20.6189 23.6035 20.596Z" fill="white"/>
<path d="M31.0368 15.9692C31.5587 16.5937 32.178 17.1609 32.6762 17.7971C32.8236 17.9742 32.915 18.1987 32.9367 18.4374C32.9532 21.391 32.9532 24.3407 32.9367 27.2867C32.9393 27.4779 32.8787 27.6637 32.7661 27.8098C32.184 28.4429 31.5785 29.0503 30.9522 29.6948V16.0721L31.0368 15.9692Z" fill="white"/>
<path d="M10.1962 38.5686H8.60528V37.9249H10.1962C10.8124 37.9249 11.1873 37.7172 11.3618 37.3673C11.5467 37.0078 11.5413 36.5505 11.3618 36.1905C11.1867 35.8285 10.8105 35.5877 10.1962 35.5877H8.78932V40.9099H8V34.9399H10.1962C11.0959 34.9399 11.723 35.2693 12.0448 35.8215C12.3744 36.3817 12.3777 37.1803 12.0448 37.7404C11.7236 38.2807 11.0974 38.5686 10.1962 38.5686Z" fill="white"/>
<path d="M13.5334 34.9399H14.2982L16.249 39.8069L18.1957 34.9399H18.9646L16.5435 40.9099H15.9464L13.5334 34.9399ZM13.2839 34.9399H13.9588L14.0692 38.5809V40.9099H13.2839V34.9399ZM18.5352 34.9399H19.21V40.9099H18.4247V38.5809L18.5352 34.9399Z" fill="white"/>
<path d="M26.2689 39.0115H27.0541C27.0132 39.3887 26.9055 39.7263 26.731 40.0242C25.9987 41.2747 24.0134 41.2983 23.1116 40.2375C22.2915 39.2618 22.2662 37.647 22.6372 36.4939C22.9738 35.465 23.7639 34.8579 24.8661 34.8579C26.2144 34.8579 26.9312 35.6716 27.0541 36.8547H26.2689C26.1535 36.0123 25.7871 35.5057 24.8661 35.5057C23.8204 35.5057 23.2588 36.3452 23.2588 37.6215C23.2588 38.5108 23.2224 39.6706 24.1095 40.1842C24.5306 40.422 25.1742 40.4153 25.5982 40.1883C25.9973 39.9744 26.1819 39.5676 26.2689 39.0115Z" fill="white"/>
<path d="M28.8372 34.6119V40.9099H28.0765V34.6119H28.8372Z" fill="white"/>
<path d="M29.8515 38.6466C29.8515 38.004 30.0439 37.442 30.3913 37.0392C30.9439 36.3901 31.931 36.2087 32.6979 36.5636C33.4477 36.8986 33.8799 37.681 33.8799 38.6466C33.8799 38.9813 33.849 39.3117 33.7408 39.6306C33.5567 40.1734 33.2018 40.5925 32.702 40.8238C32.1919 41.0568 31.5399 41.0544 31.0293 40.8238C30.1764 40.4291 29.8515 39.5305 29.8515 38.6466ZM31.3156 40.2416C31.6403 40.4155 32.0875 40.4183 32.4117 40.2416C33.3949 39.6977 33.3917 37.6902 32.4076 37.1458C32.0844 36.9639 31.6352 36.9668 31.3115 37.1458C30.334 37.6961 30.3353 39.6993 31.3156 40.2416Z" fill="white"/>
<path d="M37.5361 39.8848V36.4734H38.2968V40.9099H37.5729L37.5361 39.8848ZM37.6056 40.4097C37.4693 40.5928 37.2907 40.7363 37.0699 40.8402C36.6512 41.0319 36.1059 41.0495 35.6712 40.8976C35.1402 40.7092 34.8123 40.2234 34.8123 39.3354V36.4734H35.5689V39.3436C35.5689 39.9375 35.7928 40.2125 36.0802 40.3031C36.4169 40.4062 36.854 40.3556 37.1476 40.1637C37.7651 39.7509 38.7391 38.8869 37.6056 40.4097Z" fill="white"/>
<path d="M42.2393 40.0488V34.6119H43V40.9099H42.3047L42.2393 40.0488ZM39.262 38.7409C39.262 38.135 39.3633 37.5076 39.7405 37.0146C40.2048 36.4184 41.0517 36.212 41.7404 36.539C43.1865 37.198 43.2204 40.1547 41.7404 40.8484C41.2969 41.0505 40.7265 41.0495 40.2926 40.8238C39.5436 40.4291 39.262 39.5391 39.262 38.7409ZM40.0227 38.7409C40.0227 39.6268 40.3701 40.3482 41.1923 40.3482C42.439 40.3482 42.7005 38.6894 42.2884 37.7732C42.0954 37.3159 41.6945 37.031 41.2005 37.031C40.2766 37.031 40.0227 37.9775 40.0227 38.7409Z" fill="white"/>
</svg>
