<svg width="50" height="50" viewBox="0 0 50 50" fill="none" xmlns="http://www.w3.org/2000/svg">
<path d="M18.3724 10.2939V25.6927C18.3724 27.9461 19.6426 29.4012 21.701 29.4369C23.5667 29.4693 25.4463 29.4369 27.3197 29.4488C27.5902 29.4488 27.7006 29.3672 27.6975 29.0506C27.6789 27.5308 27.8079 27.7929 26.5781 27.7827C24.9628 27.7708 23.3475 27.7827 21.7321 27.7827C20.6485 27.7827 19.9657 27.0266 19.9116 25.9718C19.8851 23.1297 19.896 20.2858 19.8976 17.4419C19.9284 17.1628 20.1288 17.2479 20.3795 17.2479C22.6385 17.2479 24.8975 17.2479 27.1549 17.2564C27.5778 17.2564 27.7006 17.0862 27.6975 16.6505C27.6897 15.5953 27.6975 15.5953 26.7383 15.5953H19.8976C19.8976 13.3959 19.8976 11.1965 19.8976 8.99705C19.8815 8.67248 20.0069 8.34665 20.2303 8.13249C20.9112 7.45172 21.5782 6.74884 22.3043 6V12.9897H30.028V32H20.9765C17.9951 32 15.9561 29.349 16.0124 26.5131C16.0124 22.1221 16.0124 17.7329 16.0015 13.342C15.9837 12.9564 16.1301 12.5696 16.3917 12.3107C17.0307 11.6435 17.6355 10.9491 18.2667 10.2565L18.3724 10.2939ZM22.8422 19.8093C22.4846 19.8007 22.3183 19.9284 22.3214 20.3437C22.3338 21.7971 22.3307 23.2488 22.3214 24.7022C22.3214 25.0681 22.4613 25.1975 22.7878 25.1958C24.2741 25.1867 25.7604 25.1867 27.2466 25.1958C27.5825 25.1958 27.7053 25.0443 27.7037 24.6852C27.6975 23.2341 27.6975 21.7818 27.7037 20.3283C27.7037 19.9539 27.5747 19.7922 27.2187 19.8024C25.764 19.843 24.2972 19.8365 22.8422 19.8093Z" fill="#FE5602"/>
<path d="M31.7169 14.2994C32.3401 15.0431 33.0795 15.7185 33.6743 16.4762C33.8502 16.687 33.9593 16.9544 33.9852 17.2386C34.0049 20.7559 34.0049 24.2686 33.9852 27.7768C33.9883 28.0046 33.916 28.2258 33.7816 28.3997C33.0866 29.1537 32.3637 29.877 31.6159 30.6445V14.422L31.7169 14.2994Z" fill="#FE5500"/>
<path d="M4.62207 41.1143H2.72266V40.3477H4.62207C5.72791 40.3477 6.1748 39.7681 6.1748 38.9707C6.1748 38.2397 5.72325 37.5645 4.62207 37.5645H2.94238V43.9023H2V36.793H4.62207C6.22944 36.793 7.11719 37.6949 7.11719 38.9609C7.11719 40.3266 6.23694 41.1143 4.62207 41.1143Z" fill="black"/>
<path d="M8.29785 36.793H9.21094L11.54 42.5889L13.8643 36.793H14.7822L11.8916 43.9023H11.1787L8.29785 36.793ZM8 36.793H8.80566L8.9375 41.1289V43.9023H8V36.793ZM14.2695 36.793H15.0752V43.9023H14.1377V41.1289L14.2695 36.793Z" fill="black"/>
<path d="M22.5859 40.5723C22.5859 42.7036 21.4763 44 19.7344 44C18.4834 44 17.5007 43.2853 17.0781 42.0078C16.9382 41.5846 16.8682 41.1061 16.8682 40.5723C16.8682 39.9368 16.8741 39.304 17.0732 38.6924C17.496 37.4142 18.474 36.6953 19.7246 36.6953C21.0298 36.6953 21.9812 37.4253 22.3809 38.6924C22.58 39.304 22.5859 39.9368 22.5859 40.5723ZM21.6533 40.5723C21.6533 40.0409 21.6613 39.508 21.5215 38.9902C21.2685 38.0173 20.6396 37.4961 19.7246 37.4961C18.8543 37.4961 18.2133 38.0054 17.9375 38.9902C17.7927 39.5074 17.8008 40.0406 17.8008 40.5723C17.8008 42.2692 18.5683 43.2041 19.7344 43.2041C20.9714 43.2041 21.6533 42.2523 21.6533 40.5723Z" fill="black"/>
<path d="M24.0637 39.7471V43.9023H23.1604V38.6191H24.0148L24.0637 39.7471ZM23.8488 41.0605L23.4729 41.0459C23.4794 40.3198 23.6976 39.6928 24.0734 39.2393C24.2622 39.0114 24.4868 38.8356 24.7473 38.7119C25.225 38.4819 25.8233 38.4566 26.3244 38.6289C27.1032 38.8845 27.3156 39.7072 27.3156 40.4404V43.9023H26.4074V40.4307C26.4074 39.8729 26.239 39.549 25.9289 39.4004C25.571 39.2214 25.0896 39.2457 24.7375 39.4248C24.1974 39.7045 23.8488 40.3365 23.8488 41.0605Z" fill="black"/>
<path d="M30.7465 41.1143H28.8471V40.3477H30.7465C31.1143 40.3477 31.4122 40.2891 31.64 40.1719C32.0972 39.9368 32.2992 39.5029 32.2992 38.9707C32.2992 38.2397 31.8477 37.5645 30.7465 37.5645H29.0668V43.9023H28.1244V36.793H30.7465C32.3539 36.793 33.2416 37.6949 33.2416 38.9609C33.2416 39.8724 32.851 40.5267 32.1088 40.8652C31.7377 41.0312 31.2836 41.1143 30.7465 41.1143Z" fill="black"/>
<path d="M34.4996 43.9023H33.5963V38.6191H34.4752L34.4996 43.9023ZM36.15 38.5898L36.1451 39.4297C35.6669 39.3257 35.0978 39.3921 34.7486 39.7617C34.638 39.8789 34.5501 40.0189 34.485 40.1816C34.0082 41.4112 34.1047 39.8506 34.4996 39.2148C34.769 38.7746 35.182 38.5215 35.7496 38.5215C35.8794 38.5215 36.0847 38.5572 36.15 38.5898Z" fill="black"/>
<path d="M37.3787 43.8145C36.7884 43.5614 36.3525 43.0989 36.1238 42.4717C36.0099 42.1592 35.9529 41.8174 35.9529 41.4463C35.9529 40.986 35.9784 40.5294 36.1434 40.0938C36.3973 39.4167 36.8497 38.943 37.4031 38.7021C37.9696 38.4556 38.6778 38.4495 39.2391 38.7168C40.0616 39.1039 40.4354 39.9855 40.4354 41.1094V41.5146H36.49V40.7773H39.532C39.532 40.521 39.4769 40.2644 39.3855 40.0254C39.0505 39.114 37.8061 39.0178 37.2518 39.7764C36.8982 40.2602 36.8611 40.8684 36.8611 41.4463C36.8611 42.3636 37.4211 43.2627 38.4285 43.2627C39.0665 43.2627 39.4881 42.9811 39.8201 42.5449L40.367 42.9795C39.7284 43.9465 38.4374 44.2517 37.3787 43.8145Z" fill="black"/>
<path d="M41.6885 39.6689V43.9023H40.7803V38.6191H41.6396L41.6885 39.6689ZM41.6299 39.2393C42.1557 38.5701 43.1193 38.357 43.9102 38.6289C44.5352 38.834 44.9355 39.3857 44.9355 40.3818V43.9023H44.0322V40.4258C44.0322 39.5983 43.5865 39.2832 42.9043 39.2832C42.6374 39.2832 42.4144 39.3304 42.2354 39.4248C42.0563 39.5192 41.9131 39.6494 41.8057 39.8154C40.7994 41.3706 40.6883 40.4377 41.6299 39.2393ZM44.8672 39.2002C45.2261 38.7825 45.751 38.5215 46.4199 38.5215C46.9901 38.5215 47.431 38.67 47.7285 38.9805C48.0345 39.2865 48.1924 39.7666 48.1924 40.4307V43.9023H47.2842V40.4209C47.2842 40.1247 47.237 39.8952 47.1426 39.7324C46.9612 39.4021 46.6208 39.2832 46.1562 39.2832C45.7591 39.2832 45.4515 39.4281 45.2432 39.6689C45.139 39.7861 45.0592 39.9212 45.0039 40.0742C44.6211 41.1988 44.145 40.0561 44.8672 39.2002Z" fill="black"/>
</svg>
