<svg width="50" height="50" viewBox="0 0 50 50" fill="none" xmlns="http://www.w3.org/2000/svg">
<rect width="50" height="50" fill="#FE5602"/>
<path d="M19.2338 12.5305V25.1922C19.2338 27.045 20.2694 28.2415 21.9476 28.2708C23.4687 28.2974 25.0012 28.2708 26.5286 28.2806C26.7492 28.2806 26.8392 28.2135 26.8366 27.9532C26.8214 26.7035 26.9266 26.919 25.924 26.9106C24.607 26.9008 23.29 26.9106 21.973 26.9106C21.0895 26.9106 20.5328 26.2889 20.4887 25.4217C20.4671 23.0847 20.476 20.7463 20.4773 18.408C20.5024 18.1785 20.6658 18.2484 20.8702 18.2484C22.712 18.2484 24.5538 18.2484 26.3943 18.2554C26.739 18.2554 26.8392 18.1155 26.8366 17.7572C26.8303 16.8896 26.8366 16.8896 26.0546 16.8896H20.4773V16.05C20.4773 14.5205 20.4773 12.9923 20.4773 11.4642C20.4642 11.1973 20.5664 10.9294 20.7485 10.7533C21.3037 10.1936 21.8475 9.61561 22.4395 8.99988V14.7472H28.7367V30.3783H21.357C19.358 30.3783 17.8078 29.0139 17.3857 26.8603C17.3286 26.533 17.3031 26.1999 17.3096 25.8667C17.3096 22.2563 17.3096 18.6473 17.3008 15.0368C17.2863 14.7197 17.4056 14.4017 17.6189 14.1888C18.1399 13.6402 18.633 13.0693 19.1476 12.4997L19.2338 12.5305ZM22.878 20.3545C22.5865 20.3475 22.4509 20.4525 22.4534 20.7939C22.4635 21.989 22.461 23.1827 22.4534 24.3777C22.4534 24.6786 22.5675 24.785 22.8337 24.7836C24.0455 24.7761 25.2573 24.7761 26.469 24.7836C26.7428 24.7836 26.843 24.659 26.8417 24.3638C26.8366 23.1705 26.8366 21.9764 26.8417 20.7813C26.8417 20.4735 26.7365 20.3405 26.4462 20.3489C25.2602 20.3823 24.0643 20.3769 22.878 20.3545Z" fill="white"/>
<path d="M30.1137 15.8241C30.4091 16.1795 30.6955 16.5433 31.001 16.8862C31.3733 17.3064 31.9077 17.629 31.9631 18.2408C31.9791 21.1329 31.9791 24.0212 31.9631 26.9058C31.9656 27.0931 31.9066 27.275 31.797 27.418C31.2304 28.0379 30.641 28.6327 30.0313 29.2638V15.9248L30.1137 15.8241Z" fill="white"/>
<path d="M12.7683 34.3996V40.2453H12V34.3996H12.7683Z" fill="white"/>
<path d="M16.7693 39.4022V34.0784H17.5097V40.2453H16.833L16.7693 39.4022ZM13.8711 38.1214C13.8711 37.063 14.3345 35.8209 15.575 35.8209C16.1179 35.8209 16.5206 36.016 16.8011 36.379C17.5179 37.276 17.5044 38.8916 16.8011 39.7715C16.3564 40.3385 15.5063 40.4918 14.8743 40.161C14.1452 39.7745 13.8711 38.9031 13.8711 38.1214ZM14.6115 38.1214C14.6115 38.9889 14.9498 39.6953 15.7501 39.6953C16.2413 39.6953 16.5435 39.4657 16.7334 39.1251C17.2331 38.2293 17.0446 36.4472 15.7581 36.4472C14.8586 36.4472 14.6115 37.3739 14.6115 38.1214Z" fill="white"/>
<path d="M20.4437 40.3256C19.5494 40.3256 18.885 39.8449 18.6045 39.0689C18.486 38.7412 18.4652 38.4021 18.4652 38.0572C18.4652 36.6611 19.7173 35.2961 21.1444 35.9815C21.815 36.2998 22.1197 37.0247 22.1197 37.9488V38.282H18.9031V37.6758H21.3832C21.3832 37.2881 21.255 36.8577 20.9453 36.6078C19.6455 35.5591 19.0094 37.8941 19.2892 38.808C19.4663 39.3519 19.8858 39.7193 20.4835 39.7193C21.0037 39.7193 21.3474 39.4878 21.6181 39.1292L22.064 39.4865C21.7864 39.9105 21.302 40.3256 20.4437 40.3256Z" fill="white"/>
<path d="M23.7161 36.8286V40.2453H22.9796V35.9012H23.6763L23.7161 36.8286ZM23.7241 36.4111C24.163 35.8768 24.9096 35.684 25.5593 35.9092C26.0705 36.0784 26.3675 36.5356 26.3675 37.3987V40.2453H25.627V37.3907C25.627 36.9321 25.4897 36.6657 25.2369 36.5436C24.5587 36.2016 23.8528 36.7055 23.6285 37.3546C23.2367 38.5222 23.2181 37.027 23.7241 36.4111Z" fill="white"/>
<path d="M29.2895 35.9012V36.4713H26.9606V35.9012H29.2895ZM27.7489 34.8453H28.4854V39.1693C28.4854 39.6637 28.8794 39.7382 29.3055 39.6391L29.3094 40.2453C28.4357 40.5257 27.7489 40.0618 27.7489 39.1653V34.8453Z" fill="white"/>
<path d="M30.9536 35.9012V40.2453H30.2131V35.9012H30.9536ZM30.1574 34.7489C30.1574 34.5061 30.307 34.3193 30.5913 34.3193C30.8749 34.3193 31.0292 34.51 31.0292 34.7489C31.0292 34.9753 30.8775 35.1665 30.5913 35.1665C30.3044 35.1665 30.1574 34.9789 30.1574 34.7489Z" fill="white"/>
<path d="M33.9394 35.9012V36.4713H31.6105V35.9012H33.9394ZM32.3987 34.8453H33.1352V39.1693C33.1352 39.6637 33.5292 39.7382 33.9553 39.6391L33.9593 40.2453C33.0856 40.5257 32.3987 40.0618 32.3987 39.1653V34.8453Z" fill="white"/>
<path d="M37.2118 35.9012H38L36.2722 40.9158C36.1522 41.2387 35.9287 41.6832 35.4999 41.8914C35.2198 42.0353 34.877 42.021 34.5803 41.9356L34.5763 41.3333C34.7854 41.3597 35.0025 41.3586 35.2013 41.2811C35.4345 41.1956 35.59 40.998 35.7069 40.6388L37.2118 35.9012ZM35.1337 35.9012L36.2523 39.2737L36.4434 40.0566L35.9139 40.3296L34.3295 35.9012H35.1337Z" fill="white"/>
</svg>
