<svg width="50" height="50" viewBox="0 0 50 50" fill="none" xmlns="http://www.w3.org/2000/svg">
<rect width="50" height="50" fill="#FE5602"/>
<path d="M19.1776 12.7278V26.0971C19.1776 28.0534 20.2775 29.3168 22.06 29.3478C23.6755 29.3759 25.3032 29.3478 26.9254 29.3581C27.1597 29.3581 27.2553 29.2872 27.2526 29.0124C27.2364 27.6929 27.3482 27.9204 26.2833 27.9116C24.8845 27.9012 23.4857 27.9116 22.0869 27.9116C21.1485 27.9116 20.5572 27.2551 20.5104 26.3394C20.4875 23.8718 20.497 21.4028 20.4983 18.9337C20.525 18.6914 20.6985 18.7653 20.9156 18.7653C22.8718 18.7653 24.8279 18.7653 26.7827 18.7727C27.1489 18.7727 27.2553 18.6249 27.2526 18.2466C27.2459 17.3305 27.2526 17.3305 26.4219 17.3305H20.4983C20.4983 15.421 20.4983 13.5115 20.4983 11.6019C20.4844 11.3201 20.593 11.0372 20.7864 10.8513C21.3761 10.2603 21.9536 9.65002 22.5823 8.99988V15.0683H29.2707V31.573H21.4326C18.8509 31.573 17.0852 29.2715 17.1339 26.8093C17.1339 22.9971 17.1339 19.1864 17.1245 15.3742C17.1091 15.0394 17.2358 14.7036 17.4624 14.4788C18.0158 13.8996 18.5395 13.2967 19.0861 12.6953L19.1776 12.7278ZM23.0482 20.9891C22.7385 20.9817 22.5945 21.0925 22.5972 21.453C22.6079 22.7149 22.6052 23.9753 22.5972 25.2371C22.5972 25.5548 22.7183 25.6671 23.001 25.6656C24.2881 25.6578 25.5751 25.6578 26.8622 25.6656C27.153 25.6656 27.2593 25.5341 27.258 25.2224C27.2526 23.9625 27.2526 22.7016 27.258 21.4397C27.258 21.1147 27.1462 20.9743 26.8379 20.9831C25.5783 21.0184 24.3081 21.0127 23.0482 20.9891Z" fill="white"/>
<path d="M30.7332 16.2054C31.2728 16.8511 31.9131 17.4375 32.4281 18.0953C32.5805 18.2783 32.675 18.5105 32.6974 18.7572C32.7145 21.8109 32.7145 24.8607 32.6974 27.9065C32.7001 28.1042 32.6374 28.2963 32.521 28.4473C31.9193 29.1019 31.2932 29.7298 30.6457 30.3962V16.3118L30.7332 16.2054Z" fill="white"/>
<path d="M7.27057 39.486H5.62578V38.8205H7.27057C8.22816 38.8205 8.61515 38.3173 8.61515 37.625C8.61515 36.9904 8.22412 36.4041 7.27057 36.4041H5.81605V41.9067H5V35.7343H7.27057C8.66246 35.7343 9.4312 36.5174 9.4312 37.6165C9.4312 38.8022 8.66895 39.486 7.27057 39.486Z" fill="white"/>
<path d="M10.4536 35.7343H11.2443L13.2611 40.7663L15.2738 35.7343H16.0687L13.5656 41.9067H12.9482L10.4536 35.7343ZM10.1957 35.7343H10.8933L11.0075 39.4988V41.9067H10.1957V35.7343ZM15.6247 35.7343H16.3224V41.9067H15.5106V39.4988L15.6247 35.7343Z" fill="white"/>
<path d="M22.8263 39.0155C22.8263 40.8659 21.8653 41.9914 20.357 41.9914C19.2737 41.9914 18.4227 41.3709 18.0568 40.2618C17.9356 39.8944 17.875 39.479 17.875 39.0155C17.875 38.4638 17.8801 37.9144 18.0526 37.3834C18.4187 36.2736 19.2655 35.6495 20.3485 35.6495C21.4787 35.6495 22.3026 36.2833 22.6487 37.3834C22.8211 37.9144 22.8263 38.4638 22.8263 39.0155ZM22.0187 39.0155C22.0187 38.5542 22.0256 38.0915 21.9045 37.642C21.6854 36.7972 21.1408 36.3448 20.3485 36.3448C19.5948 36.3448 19.0398 36.7869 18.801 37.642C18.6756 38.0909 18.6826 38.5539 18.6826 39.0155C18.6826 40.4887 19.3472 41.3004 20.357 41.3004C21.4282 41.3004 22.0187 40.4741 22.0187 39.0155Z" fill="white"/>
<path d="M24.1059 38.299V41.9067H23.3237V37.3198H24.0636L24.1059 38.299ZM23.9199 39.4394L23.5943 39.4267C23.5999 38.7963 23.7889 38.252 24.1144 37.8582C24.2778 37.6603 24.4723 37.5077 24.6978 37.4003C25.1116 37.2006 25.6296 37.1787 26.0636 37.3283C26.738 37.5501 26.9219 38.2644 26.9219 38.901V41.9067H26.1355V38.8925C26.1355 38.4083 25.9896 38.1271 25.7211 37.9981C25.4112 37.8427 24.9943 37.8637 24.6894 38.0193C24.2217 38.2621 23.9199 38.8108 23.9199 39.4394Z" fill="white"/>
<path d="M29.8928 39.486H28.248V38.8205H29.8928C30.2114 38.8205 30.4693 38.7696 30.6666 38.6679C31.0625 38.4637 31.2374 38.087 31.2374 37.625C31.2374 36.9904 30.8464 36.4041 29.8928 36.4041H28.4383V41.9067H27.6223V35.7343H29.8928C31.2847 35.7343 32.0535 36.5174 32.0535 37.6165C32.0535 38.4079 31.7152 38.9759 31.0725 39.2698C30.7512 39.414 30.3579 39.486 29.8928 39.486Z" fill="white"/>
<path d="M33.1428 41.9067H32.3606V37.3198H33.1217L33.1428 41.9067ZM34.572 37.2943L34.5677 38.0235C34.1536 37.9332 33.6608 37.9908 33.3585 38.3118C33.2626 38.4135 33.1865 38.535 33.1301 38.6763C32.7173 39.7439 32.8008 38.3889 33.1428 37.837C33.3761 37.4547 33.7337 37.235 34.2253 37.235C34.3377 37.235 34.5154 37.266 34.572 37.2943Z" fill="white"/>
<path d="M35.636 41.8303C35.1248 41.6107 34.7473 41.2091 34.5493 40.6646C34.4507 40.3932 34.4013 40.0965 34.4013 39.7743C34.4013 39.3747 34.4234 38.9782 34.5662 38.6C34.7861 38.0122 35.1779 37.601 35.6571 37.3918C36.1476 37.1778 36.7609 37.1725 37.2469 37.4046C37.9592 37.7406 38.2828 38.5061 38.2828 39.4818V39.8337H34.8664V39.1935H37.5006C37.5006 38.971 37.4529 38.7482 37.3738 38.5407C37.0836 37.7495 36.006 37.6659 35.526 38.3245C35.2198 38.7446 35.1878 39.2726 35.1878 39.7743C35.1878 40.5707 35.6727 41.3513 36.545 41.3513C37.0975 41.3513 37.4626 41.1068 37.7501 40.7281L38.2237 41.1054C37.6706 41.945 36.5527 42.21 35.636 41.8303Z" fill="white"/>
<path d="M39.368 38.2312V41.9067H38.5815V37.3198H39.3257L39.368 38.2312ZM39.3172 37.8582C39.7725 37.2772 40.607 37.0922 41.2918 37.3283C41.833 37.5063 42.1798 37.9853 42.1798 38.8502V41.9067H41.3975V38.8883C41.3975 38.1699 41.0116 37.8963 40.4208 37.8963C40.1897 37.8963 39.9966 37.9373 39.8415 38.0193C39.6865 38.1012 39.5625 38.2143 39.4695 38.3584C38.5981 39.7086 38.5019 38.8986 39.3172 37.8582ZM42.1206 37.8243C42.4314 37.4616 42.8859 37.235 43.4651 37.235C43.9589 37.235 44.3407 37.364 44.5983 37.6335C44.8633 37.8991 45 38.316 45 38.8925V41.9067H44.2135V38.8841C44.2135 38.6269 44.1727 38.4276 44.0909 38.2863C43.9339 37.9995 43.6391 37.8963 43.2368 37.8963C42.8929 37.8963 42.6265 38.0221 42.4461 38.2312C42.3559 38.333 42.2869 38.4503 42.239 38.5831C41.9075 39.5594 41.4952 38.5674 42.1206 37.8243Z" fill="white"/>
</svg>
