<svg width="50" height="50" viewBox="0 0 50 50" fill="none" xmlns="http://www.w3.org/2000/svg">
<path d="M18.3724 10.2939V25.6927C18.3724 27.9461 19.6426 29.4012 21.701 29.4369C23.5666 29.4693 25.4462 29.4369 27.3197 29.4488C27.5902 29.4488 27.7006 29.3672 27.6975 29.0506C27.6788 27.5308 27.8078 27.7929 26.5781 27.7827C24.9627 27.7708 23.3474 27.7827 21.7321 27.7827C20.6484 27.7827 19.9656 27.0266 19.9115 25.9718C19.8851 23.1297 19.896 20.2858 19.8975 17.4419C19.9283 17.1628 20.1288 17.2479 20.3795 17.2479C22.6385 17.2479 24.8974 17.2479 27.1549 17.2564C27.5777 17.2564 27.7006 17.0862 27.6975 16.6505C27.6897 15.5953 27.6975 15.5953 26.7382 15.5953H19.8975C19.8975 13.3959 19.8975 11.1965 19.8975 8.99705C19.8815 8.67248 20.0069 8.34665 20.2302 8.13249C20.9112 7.45172 21.5782 6.74884 22.3042 6V12.9897H30.0279V32H20.9765C18.5247 32 16.6233 30.3406 16.1056 27.7214C16.0356 27.3234 16.0043 26.9183 16.0123 26.5131C16.0123 22.1221 16.0123 17.7329 16.0015 13.342C15.9837 12.9564 16.13 12.5696 16.3917 12.3107C17.0307 11.6435 17.6354 10.9491 18.2666 10.2565L18.3724 10.2939ZM22.8421 19.8093C22.4845 19.8007 22.3182 19.9284 22.3213 20.3437C22.3337 21.7971 22.3306 23.2488 22.3213 24.7022C22.3213 25.0681 22.4612 25.1975 22.7877 25.1958C24.274 25.1867 25.7603 25.1867 27.2466 25.1958C27.5824 25.1958 27.7052 25.0443 27.7037 24.6852C27.6975 23.2341 27.6975 21.7818 27.7037 20.3283C27.7037 19.9539 27.5746 19.7922 27.2186 19.8024C25.764 19.843 24.2971 19.8365 22.8421 19.8093Z" fill="#FE5602"/>
<path d="M31.7169 14.2994C32.34 15.0431 33.0794 15.7185 33.6742 16.4762C33.8502 16.687 33.9592 16.9544 33.9852 17.2386C34.0049 20.7559 34.0049 24.2686 33.9852 27.7768C33.9882 28.0046 33.9159 28.2258 33.7815 28.3997C33.0866 29.1537 32.3636 29.877 31.6158 30.6445V14.422L31.7169 14.2994Z" fill="#FE5500"/>
<path d="M22.4472 41.2119H20.5478V40.4453H22.4472C23.1829 40.4453 23.6305 40.1979 23.8388 39.7812C24.0595 39.3531 24.0532 38.8086 23.8388 38.3799C23.6298 37.9489 23.1806 37.6621 22.4472 37.6621H20.7675V44H19.8251V36.8906H22.4472C23.5214 36.8906 24.2701 37.2829 24.6542 37.9404C25.0478 38.6075 25.0517 39.5586 24.6542 40.2256C24.2708 40.8691 23.5232 41.2119 22.4472 41.2119Z" fill="black"/>
<path d="M29.9228 42.2031C29.9228 41.7032 29.7314 41.3991 29.0634 41.1143C28.0609 40.6804 26.6375 40.5594 26.0898 39.4639C25.7288 38.7418 25.9779 37.8469 26.5878 37.3496C27.0175 36.998 27.6165 36.793 28.3456 36.793C29.592 36.793 30.8505 37.6042 30.8505 38.9414H29.913C29.913 38.1326 29.4018 37.5645 28.3456 37.5645C27.6751 37.5645 27.2421 37.7809 27.0273 38.126C26.7501 38.585 26.8468 39.1401 27.2617 39.4639C28.4849 40.3959 30.8701 40.1208 30.8701 42.1934C30.8701 43.0625 30.3232 43.6924 29.4052 43.9658C27.9282 44.3946 25.704 43.7422 25.704 41.9395H26.6415C26.6415 43.2038 28.2172 43.5973 29.2246 43.1943C29.6823 43.0112 29.9228 42.6633 29.9228 42.2031Z" fill="black"/>
</svg>
