<svg width="50" height="50" viewBox="0 0 50 50" fill="none" xmlns="http://www.w3.org/2000/svg">
<path d="M18.3724 10.2939V25.6927C18.3724 27.9461 19.6426 29.4012 21.701 29.4369C23.5667 29.4693 25.4463 29.4369 27.3197 29.4488C27.5902 29.4488 27.7006 29.3672 27.6975 29.0506C27.6789 27.5308 27.8079 27.7929 26.5781 27.7827C24.9628 27.7708 23.3475 27.7827 21.7321 27.7827C20.6485 27.7827 19.9657 27.0266 19.9116 25.9718C19.8851 23.1297 19.896 20.2858 19.8976 17.4419C19.9284 17.1628 20.1288 17.2479 20.3795 17.2479C22.6385 17.2479 24.8975 17.2479 27.1549 17.2564C27.5778 17.2564 27.7006 17.0862 27.6975 16.6505C27.6897 15.5953 27.6975 15.5953 26.7383 15.5953H19.8976V14.5742C19.8976 12.714 19.8976 10.8555 19.8976 8.99705C19.8815 8.67248 20.0069 8.34665 20.2303 8.13249C20.9112 7.45172 21.5782 6.74884 22.3043 6V12.9897H30.028V32H20.9765C18.5248 32 16.6234 30.3406 16.1057 27.7214C16.0356 27.3234 16.0043 26.9183 16.0124 26.5131C16.0124 22.1221 16.0124 17.7329 16.0015 13.342C15.9837 12.9564 16.1301 12.5696 16.3917 12.3107C17.0307 11.6435 17.6355 10.9491 18.2667 10.2565L18.3724 10.2939ZM22.8422 19.8093C22.4846 19.8007 22.3183 19.9284 22.3214 20.3437C22.3338 21.7971 22.3307 23.2488 22.3214 24.7022C22.3214 25.0681 22.4613 25.1975 22.7878 25.1958C24.2741 25.1867 25.7604 25.1867 27.2466 25.1958C27.5825 25.1958 27.7053 25.0443 27.7037 24.6852C27.6975 23.2341 27.6975 21.7818 27.7037 20.3283C27.7037 19.9539 27.5747 19.7922 27.2187 19.8024C25.764 19.843 24.2972 19.8365 22.8422 19.8093Z" fill="#FE5602"/>
<path d="M31.7169 14.2994C32.0792 14.7317 32.4305 15.1742 32.8052 15.5912C33.2618 16.1022 33.9174 16.4945 33.9852 17.2386C34.0049 20.7559 34.0049 24.2686 33.9852 27.7768C33.9883 28.0046 33.916 28.2258 33.7816 28.3997C33.0866 29.1537 32.3637 29.877 31.6159 30.6445V14.422L31.7169 14.2994Z" fill="#FE5500"/>
<path d="M10.4424 36.8906V44H9.5V36.8906H10.4424Z" fill="#1C1D1F"/>
<path d="M15.3496 42.9746V36.5H16.2578V44H15.4277L15.3496 42.9746ZM11.7949 41.417C11.7949 40.1298 12.3633 38.6191 13.8848 38.6191C14.5507 38.6191 15.0446 38.8564 15.3887 39.2979C16.2679 40.3887 16.2512 42.3536 15.3887 43.4238C14.8432 44.1134 13.8005 44.2998 13.0254 43.8975C12.1312 43.4274 11.7949 42.3676 11.7949 41.417ZM12.7031 41.417C12.7031 42.4721 13.118 43.3311 14.0996 43.3311C14.7021 43.3311 15.0727 43.0519 15.3057 42.6377C15.9185 41.5482 15.6873 39.3809 14.1094 39.3809C13.0062 39.3809 12.7031 40.5079 12.7031 41.417Z" fill="#1C1D1F"/>
<path d="M19.8564 44.0977C18.7595 44.0977 17.9446 43.513 17.6006 42.5693C17.4552 42.1707 17.4297 41.7584 17.4297 41.3389C17.4297 39.641 18.9655 37.9809 20.7158 38.8145C21.5384 39.2015 21.9121 40.0832 21.9121 41.207V41.6123H17.9668V40.875H21.0088C21.0088 40.4035 20.8515 39.88 20.4717 39.5762C18.8774 38.3007 18.0972 41.1406 18.4404 42.252C18.6576 42.9135 19.1721 43.3604 19.9053 43.3604C20.5433 43.3604 20.9648 43.0788 21.2969 42.6426L21.8438 43.0771C21.5032 43.5928 20.9092 44.0977 19.8564 44.0977Z" fill="#1C1D1F"/>
<path d="M23.8701 39.8447V44H22.9668V38.7168H23.8213L23.8701 39.8447ZM23.8799 39.3369C24.4182 38.6872 25.334 38.4526 26.1309 38.7266C26.7578 38.9323 27.1221 39.4884 27.1221 40.5381V44H26.2139V40.5283C26.2139 39.9706 26.0454 39.6466 25.7354 39.498C24.9035 39.0821 24.0378 39.695 23.7627 40.4844C23.2821 41.9044 23.2593 40.0859 23.8799 39.3369Z" fill="#1C1D1F"/>
<path d="M30.7061 38.7168V39.4102H27.8496V38.7168H30.7061ZM28.8164 37.4326H29.7197V42.6914C29.7197 43.2927 30.203 43.3833 30.7256 43.2627L30.7305 44C29.6588 44.341 28.8164 43.7769 28.8164 42.6865V37.4326Z" fill="#1C1D1F"/>
<path d="M32.7471 38.7168V44H31.8389V38.7168H32.7471ZM31.7705 37.3154C31.7705 37.0201 31.954 36.793 32.3027 36.793C32.6506 36.793 32.8398 37.0248 32.8398 37.3154C32.8398 37.5907 32.6537 37.8232 32.3027 37.8232C31.9509 37.8232 31.7705 37.5951 31.7705 37.3154Z" fill="#1C1D1F"/>
<path d="M36.4092 38.7168V39.4102H33.5527V38.7168H36.4092ZM34.5195 37.4326H35.4229V42.6914C35.4229 43.2927 35.9061 43.3833 36.4287 43.2627L36.4336 44C35.362 44.341 34.5195 43.7769 34.5195 42.6865V37.4326Z" fill="#1C1D1F"/>
<path d="M40.4229 38.7168H41.3896L39.2705 44.8154C39.1232 45.2081 38.8492 45.7487 38.3232 46.002C37.9797 46.177 37.5592 46.1596 37.1953 46.0557L37.1904 45.3232C37.4468 45.3553 37.7131 45.354 37.957 45.2598C38.243 45.1558 38.4337 44.9154 38.5771 44.4785L40.4229 38.7168ZM37.874 38.7168L39.2461 42.8184L39.4805 43.7705L38.8311 44.1025L36.8877 38.7168H37.874Z" fill="#1C1D1F"/>
</svg>
