<svg width="50" height="50" viewBox="0 0 50 50" fill="none" xmlns="http://www.w3.org/2000/svg">
<path d="M14 36H16.1182C17.5653 36 18.3594 36.673 18.3594 37.9204C18.3594 38.7866 17.815 39.4636 16.8784 39.7134L16.6411 39.8057H14.6504L14.6416 39.1157H16.1445C17.0623 39.1157 17.5156 38.5783 17.5156 37.9204C17.5156 37.1836 17.0976 36.6943 16.1182 36.6943H14.8481V42.3984H14V36ZM17.7397 42.3984L16.1841 39.498L17.0674 39.4937L18.645 42.3457V42.3984H17.7397Z" fill="black"/>
<path d="M19.2075 40.0737C19.2075 38.8059 19.9772 37.5557 21.3652 37.5557C22.7025 37.5557 23.5361 38.5933 23.5361 39.9727C23.5361 41.2768 22.7985 42.4863 21.374 42.4863C20.0332 42.4863 19.2075 41.4427 19.2075 40.0737ZM20.0205 40.0737C20.0205 41.016 20.4677 41.8184 21.374 41.8184C22.3812 41.8184 22.7188 40.8187 22.7188 39.9727C22.7188 39.0298 22.2728 38.2236 21.3652 38.2236C20.3912 38.2236 20.0205 39.2294 20.0205 40.0737Z" fill="black"/>
<path d="M27.4648 37.6436H28.2822V42.3984H27.5044L27.4648 37.6436ZM27.6187 40.2979L27.957 40.2891C27.957 40.6055 27.9233 40.8984 27.856 41.168C27.7915 41.4346 27.686 41.666 27.5396 41.8623C27.2473 42.254 26.7794 42.4863 26.0981 42.4863C25.1826 42.4863 24.5381 41.9846 24.5381 40.7109V37.6436H25.3511V40.7197C25.3511 41.5732 25.7875 41.7964 26.2256 41.7964C27.2728 41.7964 27.6187 41.1224 27.6187 40.2979Z" fill="black"/>
<path d="M31.5122 37.6436V38.2676H28.9414V37.6436H31.5122ZM29.8115 36.4878H30.6245V41.2207C30.6245 41.7619 31.0594 41.8434 31.5298 41.7349L31.5342 42.3984C30.5679 42.7059 29.8115 42.202 29.8115 41.2163V36.4878Z" fill="black"/>
<path d="M34.439 42.4863C33.1247 42.4863 32.2549 41.5305 32.2549 40.188C32.2549 38.9349 32.8934 37.5557 34.3335 37.5557C35.8323 37.5557 36.2891 38.9349 36.2891 40.2495H32.7383V39.5859H35.4761C35.4761 38.8788 35.085 38.2236 34.3335 38.2236C33.2899 38.2236 33.0723 39.3624 33.0723 40.188C33.0723 41.0916 33.6035 41.8228 34.4829 41.8228C35.0571 41.8228 35.4365 41.5693 35.7354 41.1768L36.2275 41.5679C35.9211 42.032 35.3864 42.4863 34.439 42.4863Z" fill="black"/>
<path d="M13.349 17.9373C17.2762 13.2342 21.7072 9.41285 24.8291 7.6492C26.2792 6.47343 27.4474 7.1593 27.8502 7.6492C30.8714 10.5886 34.7989 16.7615 35.7053 17.9373C36.4304 18.8779 36.0074 20.4848 35.7053 21.1707C33.8926 24.404 29.6878 29.6706 27.8502 31.4588C26.944 32.3407 25.7355 32.0467 24.8291 31.4588C20.5045 28.6534 13.7979 21.6744 13.349 20.5828C12.7445 19.1132 13.0468 18.4272 13.349 17.9373Z" fill="url(#paint0_linear_9176_11076)"/>
<path d="M13.9226 17.9374C17.7491 13.2344 22.0665 9.41311 25.1083 7.64946C26.5213 6.47369 27.6595 7.15956 28.052 7.64946C30.9957 10.5889 34.8222 16.7615 35.7053 17.9373C36.4118 18.8779 35.9997 20.4848 35.7053 21.1707C33.9391 24.404 29.8424 29.6706 28.052 31.4588C27.169 32.3407 25.9915 32.0467 25.1083 31.4588C20.8946 28.6534 14.36 21.6745 13.9226 20.5829C13.3336 19.1133 13.6282 18.4273 13.9226 17.9374Z" fill="url(#paint1_linear_9176_11076)"/>
<path d="M21.8016 17.635H22.9964C23.4148 17.635 23.795 17.7214 23.897 18.1882C23.9786 18.5614 23.9759 19.0046 23.897 19.3779C23.7944 19.8472 23.4129 19.9235 22.9964 19.9235H22.1919V21.5602H21.8016V17.635ZM22.1919 18.0972V19.4612H22.9964C23.3281 19.4612 23.4783 19.4074 23.5248 19.1581C23.5758 18.9262 23.5788 18.6398 23.5248 18.4079C23.4779 18.1419 23.3229 18.0972 22.9964 18.0972H22.1919Z" fill="#44E4FA"/>
<path d="M20.5015 19.5305H21.2483V21.4334C21.1595 21.4818 21.0226 21.5099 20.8663 21.5304C20.4042 21.5941 19.8272 21.605 19.4697 21.2617C19.2466 21.0402 19.1219 20.6753 19.1219 20.1051V19.0902C19.1219 18.5114 19.2442 18.1443 19.464 17.926C19.6928 17.7063 20.0241 17.635 20.4331 17.635C20.7087 17.635 21.015 17.6358 21.2654 17.7619L21.1855 18.1723C20.9711 18.0787 20.6635 18.0902 20.4331 18.0902C20.1725 18.0902 19.9312 18.144 19.7604 18.3066C19.594 18.4552 19.4925 18.7103 19.4925 19.0902V20.1051C19.4925 20.4776 19.5511 20.727 19.6977 20.8886C19.9719 21.1758 20.5128 21.1304 20.8777 21.0826V19.9931H20.5015V19.5305Z" fill="#44E4FA"/>
<path d="M16.4428 17.635C16.9856 17.635 17.5487 17.5886 18.0889 17.6577C18.3329 17.688 18.4755 17.8161 18.5389 18.0897C18.5893 18.3074 18.5862 18.5342 18.5862 18.7565C18.5862 18.9636 18.5704 19.1328 18.5389 19.2642C18.5073 19.3905 18.4402 19.4915 18.3375 19.5673C18.4402 19.6532 18.5073 19.7618 18.5389 19.8931C18.5883 20.099 18.5862 20.3118 18.5862 20.5221C18.5862 20.9889 18.5316 21.2572 18.379 21.4011C18.2395 21.5399 18.0069 21.5602 17.6448 21.5602H16.4428V17.635ZM17.6448 21.098C17.8638 21.098 18.0061 21.0987 18.0829 21.0298C18.1703 20.9485 18.2014 20.8134 18.2014 20.5221C18.2014 20.3291 18.242 20.0547 18.1066 19.9007C18.0456 19.8226 17.9467 19.7946 17.775 19.7946H16.8277V21.098H17.6448ZM17.9112 19.3097C18.0655 19.2993 18.141 19.2298 18.1718 19.0823C18.229 18.8625 18.2294 18.561 18.1718 18.3397C18.141 18.1922 18.0655 18.1228 17.9112 18.1124C17.5572 18.0621 17.1838 18.0972 16.8277 18.0972V19.3172C17.1876 19.3172 17.5519 19.3352 17.9112 19.3097Z" fill="#44E4FA"/>
<path d="M24.5 18L25.5287 18.0233C25.8325 18.0295 26.0264 18.0715 26.1508 18.2115C26.4128 18.5198 26.3747 19.2083 26.2636 19.5797C26.226 19.7103 26.1537 19.8067 26.0466 19.8658L26.4995 21.318L26.1421 21.3257L25.7153 19.9482L24.8371 19.9513V21.3553L24.5 21.363V18ZM24.8371 18.4027V19.561H25.5287C25.8064 19.561 25.9312 19.5221 25.9743 19.3091C26.0194 19.0861 26.0583 18.6913 25.8991 18.5131C25.8298 18.4355 25.7114 18.4198 25.5287 18.4167L24.8371 18.4043V18.4027Z" fill="white"/>
<path d="M27.2022 21.2789C26.9582 21.2102 26.8127 21.032 26.7465 20.7192C26.6127 20.0879 26.6171 19.2784 26.7465 18.6559C26.813 18.3388 26.962 18.1615 27.2022 18.0962C27.4804 18.0215 27.8215 18.0284 28.0963 18.1149C28.3307 18.1895 28.4725 18.3667 28.5333 18.6808C28.6496 19.3058 28.655 20.0744 28.5333 20.6912C28.4725 20.999 28.3336 21.1763 28.0963 21.2571C27.9777 21.2976 27.8301 21.3193 27.6522 21.3224C27.6522 21.3512 27.2452 21.291 27.2022 21.2789ZM27.3599 18.4538C27.1968 18.4851 27.1021 18.5951 27.0532 18.8145C26.9379 19.3318 26.9358 20.0367 27.0532 20.5637C27.1027 20.7858 27.2017 20.8966 27.3599 20.9244C27.519 20.9555 27.7766 20.9493 27.9328 20.9151C28.0891 20.8809 28.1904 20.7689 28.2367 20.5481C28.3463 20.0327 28.3466 19.3512 28.2367 18.827C28.1904 18.6062 28.0934 18.4973 27.9372 18.46C27.7547 18.4208 27.5432 18.418 27.3599 18.4538Z" fill="white"/>
<path d="M30.4526 18.5008L29.7624 18.4884V21.2451L29.4687 21.2513V18.4837L28.7627 18.4713V18.0981L30.4526 18.137V18.5008Z" fill="white"/>
<path d="M30.7803 21.2215V18.1445L32.1981 18.1772V18.5317L31.0624 18.5115V19.4754L32.1099 19.4786V19.8346H31.0624V20.8546L32.1981 20.8343V21.1888L30.7803 21.2215Z" fill="white"/>
<path d="M32.4502 19.2888C32.4502 18.841 32.5283 18.5612 32.6817 18.3964C32.835 18.2315 33.0607 18.1802 33.3588 18.1865C33.5411 18.1896 33.7668 18.2082 33.9028 18.2953L33.8478 18.6063C33.7486 18.5561 33.462 18.5363 33.3602 18.5363C33.1647 18.5332 33.0063 18.5777 32.8944 18.6918C32.7813 18.8102 32.7207 19.0002 32.7207 19.2919V20.0818C32.7207 20.3741 32.7844 20.5638 32.8944 20.685C33.0063 20.8053 33.1647 20.8468 33.3602 20.8436C33.4677 20.8436 33.7676 20.8097 33.8492 20.7783L33.9042 21.0784C33.7653 21.1561 33.5425 21.1903 33.3602 21.1935C33.0853 21.1997 32.8539 21.1421 32.6976 20.9773C32.5413 20.8125 32.4516 20.5327 32.4516 20.0849V19.2904L32.4502 19.2888Z" fill="white"/>
<path d="M35.5001 18.5893L34.9098 18.5784V21.1267L34.6595 21.1329V18.5753L34.0576 18.5644V18.2192L35.5015 18.2519V18.5893H35.5001Z" fill="white"/>
<defs>
<linearGradient id="paint0_linear_9176_11076" x1="25.6417" y1="6.31883" x2="26.4621" y2="32.7907" gradientUnits="userSpaceOnUse">
<stop offset="0.015" stop-color="#1438B9"/>
<stop offset="0.469082" stop-color="#2C46DC"/>
<stop offset="1" stop-color="#323B59"/>
</linearGradient>
<linearGradient id="paint1_linear_9176_11076" x1="13.9928" y1="19.0694" x2="35.9128" y2="19.6752" gradientUnits="userSpaceOnUse">
<stop offset="0.015" stop-color="#091127"/>
<stop offset="0.335" stop-color="#1E377A"/>
<stop offset="0.53" stop-color="#223F8E"/>
<stop offset="0.69" stop-color="#1E377A"/>
<stop offset="1" stop-color="#091127"/>
</linearGradient>
</defs>
</svg>
