<svg width="50" height="50" viewBox="0 0 50 50" fill="none" xmlns="http://www.w3.org/2000/svg">
<path d="M22.9675 9.2233V13.7113C26.6102 12.3407 30.7346 15.138 30.7275 19.0951C30.7218 22.262 28.1497 24.8248 24.9827 24.8191C21.9531 24.8137 19.4505 22.4525 19.2689 19.4284L19.319 10.77C14.7748 13.909 13.6339 20.1361 16.7714 24.6803C19.909 29.2245 26.1361 30.3654 30.6808 27.2283C35.2254 24.0912 36.3659 17.8638 33.2288 13.3192C30.9999 10.0912 26.8168 8.33303 22.9675 9.2233Z" fill="url(#paint0_linear_12457_16502)"/>
<path d="M25.024 21.702C26.4848 21.702 27.6691 20.5178 27.6691 19.0569C27.6691 17.5961 26.4848 16.4119 25.024 16.4119C23.5632 16.4119 22.3789 17.5961 22.3789 19.0569C22.3789 20.5178 23.5632 21.702 25.024 21.702Z" fill="#2EBBE7"/>
<path d="M6.33594 32.89V39.9994H5.39355V32.89H6.33594Z" fill="#7F8BA5"/>
<path d="M8.81641 35.8441V39.9994H7.91309V34.7162H8.76758L8.81641 35.8441ZM8.38672 36.142C8.76672 35.0138 9.91195 34.3254 11.0771 34.7259C11.7041 34.9316 12.0684 35.4877 12.0684 36.5375V39.9994H11.1602V36.5277C11.1602 35.9699 10.9917 35.646 10.6816 35.4974C9.84979 35.0815 8.98406 35.6944 8.70898 36.4837C8.35858 37.519 8.10905 36.9576 8.38672 36.142Z" fill="#7F8BA5"/>
<path d="M15.0469 39.1839L16.4922 34.7162H17.415L15.5156 39.9994H14.9102L15.0469 39.1839ZM13.8408 34.7162L15.3301 39.2084L15.4326 39.9994H14.8271L12.9131 34.7162H13.8408Z" fill="#7F8BA5"/>
<path d="M20.4082 40.097C18.815 40.097 17.9814 38.821 17.9814 37.3382C17.9814 36.0419 18.6039 35.1595 19.4316 34.7992C19.9981 34.5526 20.7063 34.5466 21.2676 34.8138C22.3537 35.325 22.4639 36.5537 22.4639 37.6117H18.5186V36.8744H21.5605C21.5605 36.4029 21.4032 35.8794 21.0234 35.5755C20.676 35.2976 20.1111 35.2956 19.7246 35.4925C18.9712 35.8621 18.8896 36.8034 18.8896 37.5433C18.8896 38.2931 19.2187 38.9359 19.793 39.2181C20.5362 39.5774 21.373 39.2668 21.8486 38.642L22.3955 39.0765C22.055 39.5922 21.4609 40.097 20.4082 40.097Z" fill="#7F8BA5"/>
<path d="M24.4219 35.8441V39.9994H23.5186V34.7162H24.373L24.4219 35.8441ZM24.4316 35.3363C25.6579 33.8563 27.6738 34.7422 27.6738 36.5375V39.9994H26.7656V36.5277C26.7656 35.302 25.3683 34.9842 24.6221 35.9125C23.4143 37.4524 23.7392 36.1719 24.4316 35.3363Z" fill="#7F8BA5"/>
<path d="M31.2578 34.7162V35.4095H28.4014V34.7162H31.2578ZM29.3682 33.432H30.2715V38.6908C30.2715 39.3229 30.7636 39.3806 31.2773 39.2621L31.2822 39.9994C30.2866 40.3162 29.3682 39.804 29.3682 38.6859V33.432Z" fill="#7F8BA5"/>
<path d="M31.9805 37.4164C31.9805 36.3703 32.3616 35.2832 33.3818 34.8236C33.9917 34.5421 34.769 34.5421 35.3789 34.8236C36.4054 35.2811 36.79 36.3657 36.79 37.4164C36.79 38.1781 36.5638 38.8421 36.1406 39.3304C35.4794 40.095 34.301 40.3088 33.3867 39.8968C32.4974 39.4864 31.9805 38.5585 31.9805 37.4164ZM32.8838 37.4164C32.8838 38.2028 33.1629 38.8914 33.7285 39.2035C34.3269 39.5233 35.121 39.3358 35.5059 38.7787C35.7553 38.4176 35.8818 37.9394 35.8818 37.4164C35.8818 36.7065 35.7066 35.889 35.0322 35.517C34.6464 35.3003 34.1101 35.3038 33.7236 35.517C33.0508 35.8947 32.8838 36.706 32.8838 37.4164Z" fill="#7F8BA5"/>
<path d="M38.8262 35.5462V39.9994H37.9229V34.7162H38.8018L38.8262 35.5462ZM40.4766 34.6869L40.4717 35.5267C40.3252 35.4949 40.2054 35.4877 40.0322 35.4877C39.6156 35.4877 39.2965 35.6244 39.0752 35.8587C38.9645 35.9759 38.8766 36.1159 38.8115 36.2787C38.3277 37.5264 38.538 35.7758 38.8262 35.3119C39.0956 34.8716 39.5085 34.6185 40.0762 34.6185C40.206 34.6185 40.4113 34.6542 40.4766 34.6869Z" fill="#7F8BA5"/>
<path d="M44.3535 34.7162H45.3203L43.2012 40.8148C42.8667 41.7066 42.1307 42.3421 41.126 42.055L41.1211 41.3226C41.8047 41.4081 42.2872 41.1497 42.5078 40.4779L44.3535 34.7162ZM41.8047 34.7162L43.1768 38.8177L42.7617 40.1019L40.8184 34.7162H41.8047Z" fill="#7F8BA5"/>
<defs>
<linearGradient id="paint0_linear_12457_16502" x1="5.33062" y1="25.5588" x2="45.3244" y2="25.5588" gradientUnits="userSpaceOnUse">
<stop stop-color="#2EBBE7"/>
<stop offset="1" stop-color="#0067AE"/>
</linearGradient>
</defs>
</svg>
