<svg width="50" height="50" viewBox="0 0 50 50" fill="none" xmlns="http://www.w3.org/2000/svg">
<path d="M25.0034 9.00091C24.3183 8.99412 23.6349 9.06866 22.9675 9.22303V13.7111C23.6181 13.4663 24.3083 13.344 25.0034 13.3502C28.1704 13.3559 30.7332 15.928 30.7275 19.095C30.7218 22.262 28.1497 24.8248 24.9827 24.8191C21.9531 24.8136 19.4505 22.4524 19.2689 19.4283L19.319 10.7697C14.7748 13.9088 13.6339 20.1361 16.7714 24.6803C19.909 29.2246 26.1361 30.3655 30.6808 27.2283C35.2254 24.0912 36.3659 17.8636 33.2288 13.319C31.3625 10.616 28.2879 9.002 25.0034 9.00091Z" fill="url(#paint0_linear_12457_16556)"/>
<path d="M25.025 21.7023C26.4858 21.7023 27.6701 20.5181 27.6701 19.0572C27.6701 17.5964 26.4858 16.4121 25.025 16.4121C23.5641 16.4121 22.3799 17.5964 22.3799 19.0572C22.3799 20.5181 23.5641 21.7023 25.025 21.7023Z" fill="#2EBBE7"/>
<path d="M20.1143 38.2026C20.1143 37.539 19.7846 37.2217 18.4248 36.8256C17.014 36.4076 16.1201 35.8316 16.1201 34.726C16.1201 33.61 17.0908 32.7924 18.5371 32.7924C19.7835 32.7924 21.042 33.6037 21.042 34.9408H20.1045C20.1045 34.4038 19.8755 33.9775 19.416 33.7446C18.5798 33.3088 17.0625 33.5621 17.0625 34.7162C17.0625 35.3172 17.573 35.6846 18.7275 36.0053C20.3398 36.4604 21.0615 37.0804 21.0615 38.1928C21.0615 39.931 18.951 40.3437 17.6094 39.9604C16.6672 39.6884 15.8955 38.9559 15.8955 37.9389H16.833C16.833 38.6676 17.2994 39.087 17.9219 39.2524C18.7463 39.4553 20.1143 39.3134 20.1143 38.2026Z" fill="#7F8BA5"/>
<path d="M26.5547 37.7387H27.4922C27.3945 38.6371 26.9844 39.3728 26.2227 39.7895C25.117 40.3848 23.6061 40.1619 22.7852 39.1987C22.2957 38.6178 22.0234 37.7949 22.0234 36.8012C22.0234 35.7087 22.0388 34.5755 22.79 33.6957C23.6133 32.7442 25.1406 32.496 26.2422 33.0951C26.9833 33.4982 27.3944 34.2315 27.4922 35.1703H26.5547C26.463 34.5027 26.2267 34.0182 25.7734 33.7592C25.0166 33.3267 23.9559 33.5616 23.4443 34.2573C22.9116 34.9965 22.9609 35.9348 22.9609 36.8012C22.9609 37.4987 23.1062 38.1266 23.4053 38.5883C23.8969 39.3471 24.9622 39.563 25.7539 39.1401C26.2305 38.8855 26.4508 38.4009 26.5547 37.7387Z" fill="#7F8BA5"/>
<path d="M31.4082 33.52L29.0547 39.9994H28.0928L30.8027 32.8901H31.4229L31.4082 33.52ZM33.3809 39.9994L31.0225 33.52L31.0078 32.8901H31.6279L34.3477 39.9994H33.3809ZM33.2588 37.3676V38.1391H29.2646V37.3676H33.2588Z" fill="#7F8BA5"/>
<defs>
<linearGradient id="paint0_linear_12457_16556" x1="14.9685" y1="24.5593" x2="35.002" y2="24.5593" gradientUnits="userSpaceOnUse">
<stop stop-color="#2EBBE7"/>
<stop offset="1" stop-color="#0067AE"/>
</linearGradient>
</defs>
</svg>
