<svg width="50" height="50" viewBox="0 0 50 50" fill="none" xmlns="http://www.w3.org/2000/svg">
<path d="M25.0034 8.00091C24.3183 7.99412 23.6349 8.06866 22.9675 8.22303V12.7111C23.6181 12.4663 24.3083 12.344 25.0034 12.3502C28.1704 12.3559 30.7332 14.928 30.7275 18.095C30.7218 21.262 28.1497 23.8248 24.9827 23.8191C21.9531 23.8136 19.4505 21.4524 19.2689 18.4283L19.319 9.76974C14.7748 12.9088 13.6339 19.1361 16.7714 23.6803C19.909 28.2246 26.1361 29.3655 30.6808 26.2283C35.2254 23.0912 36.3659 16.8636 33.2288 12.319C31.3625 9.61605 28.2879 8.002 25.0034 8.00091Z" fill="url(#paint0_linear_9176_11065)"/>
<path d="M25.025 20.7023C26.4858 20.7023 27.6701 19.5181 27.6701 18.0572C27.6701 16.5964 26.4858 15.4121 25.025 15.4121C23.5641 15.4121 22.3799 16.5964 22.3799 18.0572C22.3799 19.5181 23.5641 20.7023 25.025 20.7023Z" fill="#2EBBE7"/>
<path d="M20.1143 37.2026C20.1143 36.539 19.7846 36.2217 18.4248 35.8256C17.014 35.4076 16.1201 34.8316 16.1201 33.726C16.1201 32.61 17.0908 31.7924 18.5371 31.7924C19.7835 31.7924 21.042 32.6037 21.042 33.9408H20.1045C20.1045 33.4038 19.8755 32.9775 19.416 32.7446C18.5798 32.3088 17.0625 32.5621 17.0625 33.7162C17.0625 34.3172 17.573 34.6846 18.7275 35.0053C20.3398 35.4604 21.0615 36.0804 21.0615 37.1928C21.0615 38.931 18.951 39.3437 17.6094 38.9604C16.6672 38.6884 15.8955 37.9559 15.8955 36.9389H16.833C16.833 37.6676 17.2994 38.087 17.9219 38.2524C18.7463 38.4553 20.1143 38.3134 20.1143 37.2026Z" fill="#1C1D1F"/>
<path d="M26.5547 36.7387H27.4922C27.3945 37.6371 26.9844 38.3728 26.2227 38.7895C25.117 39.3849 23.6061 39.1619 22.7852 38.1987C22.2957 37.6178 22.0234 36.7949 22.0234 35.8012C22.0234 34.7087 22.0388 33.5755 22.79 32.6957C23.6133 31.7442 25.1406 31.496 26.2422 32.0951C26.9833 32.4982 27.3944 33.2315 27.4922 34.1703H26.5547C26.463 33.5027 26.2267 33.0182 25.7734 32.7592C25.0166 32.3267 23.9559 32.5616 23.4443 33.2573C22.9116 33.9965 22.9609 34.9348 22.9609 35.8012C22.9609 36.4987 23.1062 37.1266 23.4053 37.5883C23.8969 38.3471 24.9622 38.563 25.7539 38.1401C26.2305 37.8855 26.4508 37.4009 26.5547 36.7387Z" fill="#1C1D1F"/>
<path d="M31.4082 32.52L29.0547 38.9994H28.0928L30.8027 31.8901H31.4229L31.4082 32.52ZM33.3809 38.9994L31.0225 32.52L31.0078 31.8901H31.6279L34.3477 38.9994H33.3809ZM33.2588 36.3676V37.1391H29.2646V36.3676H33.2588Z" fill="#1C1D1F"/>
<defs>
<linearGradient id="paint0_linear_9176_11065" x1="14.9685" y1="23.5593" x2="35.002" y2="23.5593" gradientUnits="userSpaceOnUse">
<stop stop-color="#2EBBE7"/>
<stop offset="1" stop-color="#0067AE"/>
</linearGradient>
</defs>
</svg>
