<svg width="50" height="50" viewBox="0 0 50 50" fill="none" xmlns="http://www.w3.org/2000/svg">
<path d="M22.9675 8.2233V12.7113C26.6102 11.3407 30.7346 14.138 30.7275 18.0951C30.7218 21.262 28.1497 23.8248 24.9827 23.8191C21.9531 23.8137 19.4505 21.4525 19.2689 18.4284L19.319 9.76998C14.7748 12.909 13.6339 19.1361 16.7714 23.6803C19.909 28.2245 26.1361 29.3654 30.6808 26.2283C35.2254 23.0912 36.3659 16.8638 33.2288 12.3192C30.9999 9.0912 26.8168 7.33303 22.9675 8.2233Z" fill="url(#paint0_linear_9176_11064)"/>
<path d="M25.024 20.702C26.4848 20.702 27.6691 19.5178 27.6691 18.0569C27.6691 16.5961 26.4848 15.4119 25.024 15.4119C23.5632 15.4119 22.3789 16.5961 22.3789 18.0569C22.3789 19.5178 23.5632 20.702 25.024 20.702Z" fill="#2EBBE7"/>
<path d="M6.33594 31.89V38.9994H5.39355V31.89H6.33594Z" fill="#1C1D1F"/>
<path d="M8.81641 34.8441V38.9994H7.91309V33.7162H8.76758L8.81641 34.8441ZM8.38672 35.142C8.76672 34.0138 9.91195 33.3254 11.0771 33.7259C11.7041 33.9316 12.0684 34.4877 12.0684 35.5375V38.9994H11.1602V35.5277C11.1602 34.9699 10.9917 34.646 10.6816 34.4974C9.84979 34.0815 8.98406 34.6944 8.70898 35.4837C8.35858 36.519 8.10905 35.9576 8.38672 35.142Z" fill="#1C1D1F"/>
<path d="M15.0469 38.1839L16.4922 33.7162H17.415L15.5156 38.9994H14.9102L15.0469 38.1839ZM13.8408 33.7162L15.3301 38.2084L15.4326 38.9994H14.8271L12.9131 33.7162H13.8408Z" fill="#1C1D1F"/>
<path d="M20.4082 39.097C18.815 39.097 17.9814 37.821 17.9814 36.3382C17.9814 35.0419 18.6039 34.1595 19.4316 33.7992C19.9981 33.5526 20.7063 33.5466 21.2676 33.8138C22.3537 34.325 22.4639 35.5537 22.4639 36.6117H18.5186V35.8744H21.5605C21.5605 35.4029 21.4032 34.8794 21.0234 34.5755C20.676 34.2976 20.1111 34.2956 19.7246 34.4925C18.9712 34.8621 18.8896 35.8034 18.8896 36.5433C18.8896 37.2931 19.2187 37.9359 19.793 38.2181C20.5362 38.5774 21.373 38.2668 21.8486 37.642L22.3955 38.0765C22.055 38.5922 21.4609 39.097 20.4082 39.097Z" fill="#1C1D1F"/>
<path d="M24.4219 34.8441V38.9994H23.5186V33.7162H24.373L24.4219 34.8441ZM24.4316 34.3363C25.6579 32.8563 27.6738 33.7422 27.6738 35.5375V38.9994H26.7656V35.5277C26.7656 34.302 25.3683 33.9842 24.6221 34.9125C23.4143 36.4524 23.7392 35.1719 24.4316 34.3363Z" fill="#1C1D1F"/>
<path d="M31.2578 33.7162V34.4095H28.4014V33.7162H31.2578ZM29.3682 32.432H30.2715V37.6908C30.2715 38.3229 30.7636 38.3806 31.2773 38.2621L31.2822 38.9994C30.2866 39.3162 29.3682 38.804 29.3682 37.6859V32.432Z" fill="#1C1D1F"/>
<path d="M31.9805 36.4164C31.9805 35.3703 32.3616 34.2832 33.3818 33.8236C33.9917 33.5421 34.769 33.5421 35.3789 33.8236C36.4054 34.2811 36.79 35.3657 36.79 36.4164C36.79 37.1781 36.5638 37.8421 36.1406 38.3304C35.4794 39.095 34.301 39.3088 33.3867 38.8968C32.4974 38.4864 31.9805 37.5585 31.9805 36.4164ZM32.8838 36.4164C32.8838 37.2028 33.1629 37.8914 33.7285 38.2035C34.3269 38.5233 35.121 38.3358 35.5059 37.7787C35.7553 37.4176 35.8818 36.9394 35.8818 36.4164C35.8818 35.7065 35.7066 34.889 35.0322 34.517C34.6464 34.3003 34.1101 34.3038 33.7236 34.517C33.0508 34.8947 32.8838 35.706 32.8838 36.4164Z" fill="#1C1D1F"/>
<path d="M38.8262 34.5462V38.9994H37.9229V33.7162H38.8018L38.8262 34.5462ZM40.4766 33.6869L40.4717 34.5267C40.3252 34.4949 40.2054 34.4877 40.0322 34.4877C39.6156 34.4877 39.2965 34.6244 39.0752 34.8587C38.9645 34.9759 38.8766 35.1159 38.8115 35.2787C38.3277 36.5264 38.538 34.7758 38.8262 34.3119C39.0956 33.8716 39.5085 33.6185 40.0762 33.6185C40.206 33.6185 40.4112 33.6542 40.4766 33.6869Z" fill="#1C1D1F"/>
<path d="M44.3535 33.7162H45.3203L43.2012 39.8148C42.8667 40.7066 42.1307 41.3421 41.126 41.055L41.1211 40.3226C41.8047 40.4081 42.2872 40.1497 42.5078 39.4779L44.3535 33.7162ZM41.8047 33.7162L43.1768 37.8177L42.7617 39.1019L40.8184 33.7162H41.8047Z" fill="#1C1D1F"/>
<defs>
<linearGradient id="paint0_linear_9176_11064" x1="5.33062" y1="24.5588" x2="45.3244" y2="24.5588" gradientUnits="userSpaceOnUse">
<stop stop-color="#2EBBE7"/>
<stop offset="1" stop-color="#0067AE"/>
</linearGradient>
</defs>
</svg>
