<svg width="50" height="50" viewBox="0 0 50 50" fill="none" xmlns="http://www.w3.org/2000/svg">
<path d="M24.9997 41.6666C34.2044 41.6666 41.6663 34.2047 41.6663 24.9999C41.6663 15.7952 34.2044 8.33325 24.9997 8.33325C15.7949 8.33325 8.33301 15.7952 8.33301 24.9999C8.33301 34.2047 15.7949 41.6666 24.9997 41.6666Z" fill="white"/>
<path d="M24.9997 8.33325C23.7546 8.33325 22.5436 8.47431 21.3765 8.73261V16.9477C22.4921 16.482 23.7153 16.2231 24.9997 16.2231C30.2022 16.2231 34.42 20.4408 34.42 25.6434C34.42 30.846 30.2022 35.0643 24.9997 35.0643C19.7971 35.0643 15.5794 30.8466 15.5794 25.644V11.2518C11.2045 14.256 8.33301 19.2917 8.33301 24.9999C8.33301 34.2047 15.7949 41.6666 24.9997 41.6666C34.2044 41.6666 41.6663 34.2047 41.6663 24.9999C41.6663 15.7952 34.2044 8.33325 24.9997 8.33325Z" fill="#6F99BD"/>
<path d="M24.9997 29.1666C27.3009 29.1666 29.1663 27.3011 29.1663 24.9999C29.1663 22.6987 27.3009 20.8333 24.9997 20.8333C22.6985 20.8333 20.833 22.6987 20.833 24.9999C20.833 27.3011 22.6985 29.1666 24.9997 29.1666Z" fill="#ABC450"/>
</svg>
