<svg width="50" height="50" viewBox="0 0 50 50" fill="none" xmlns="http://www.w3.org/2000/svg">
<path d="M10.6722 28.9172C11.0357 29.6142 11.4233 30.287 11.8351 30.9599C14.4032 30.4793 16.4383 29.1335 17.9889 27.1629C19.0791 25.769 21.1869 27.3792 20.1209 28.773C18.328 31.0801 16.0991 32.6182 13.4584 33.3391C13.7976 33.8198 14.161 34.2764 14.5486 34.7089C17.0043 33.8196 20.0013 31.4166 22.592 31.4166C26.8778 31.4166 31.0827 34.215 35.2871 34.9733C35.699 34.4927 36.1108 33.988 36.4985 33.4593C26.0808 31.4646 18.643 26.1295 18.643 16.1562C18.643 12.8638 19.927 9.01869 24.5544 9.01869C28.2854 9.01869 29.4968 11.47 30.5143 14.4019C32.6463 20.482 35.4083 22.3565 41.8527 22.3084C42.6764 19.1362 43.0641 15.7236 42.9914 12.1669C42.0465 11.3979 40.8352 10.6769 39.43 10.004C39.7934 11.0854 40.1083 12.215 40.4233 13.3925C40.8594 15.0988 38.2671 15.7717 37.831 14.0414C37.3222 12.0708 36.765 10.2924 36.1351 8.68224C35.1418 8.34579 34.0758 8.05741 32.9855 7.81709C35.9655 11.8545 34.7299 17.8385 40.0599 16.8772C41.8042 16.5648 42.2888 19.1602 40.5444 19.4967C29.3272 21.5154 36.2077 7 24.506 7C18.0373 7 16.6079 12.1188 16.6079 17.1415C16.6079 18.5834 16.8502 20.0734 16.8502 21.2029C16.8502 25.1202 14.4275 28.028 10.6722 28.9172Z" fill="#47474A"/>
<path d="M20.2662 40.0681C21.7441 41.1495 23.3189 42.1348 24.9905 43C26.2019 42.3752 28.4066 41.0053 28.4793 40.9332C26.8289 40.217 25.1629 39.3004 23.3431 39.1549C22.5215 39.1039 20.7161 40.2912 20.2662 40.0681Z" fill="#F05E47"/>
<path d="M16.3656 36.7276C16.8986 37.2563 17.4559 37.785 18.0131 38.2657C19.4589 37.5486 20.9672 36.3912 22.6405 36.3912C25.6039 36.3912 28.5364 37.9491 31.3138 38.7944C31.9115 38.2928 32.459 37.7276 33.0582 37.2323C30.0181 36.0261 26.259 34.1802 23.0039 34.1802C20.6085 34.0482 18.5028 35.9086 16.3656 36.7276Z" fill="#F05E47"/>
<path d="M9.87274 10.3405C8.75829 10.9172 7.81343 11.518 7.01393 12.1429C6.91702 15.7477 7.32888 19.1602 8.15261 22.3565C9.31552 21.7557 9.41243 20.6262 9.36397 18.4633C9.29129 15.5073 9.17015 12.9599 9.87274 10.3405Z" fill="#F05E47"/>
<path d="M16.5837 7.91322C15.4208 8.2016 14.3306 8.51402 13.2646 8.89853C12.4893 10.4606 12.1501 11.9987 12.0047 13.4887C11.6656 17.5981 13.4584 23.0534 8.95211 24.9279C9.14593 25.4566 9.33974 25.9613 9.53356 26.466C18.4492 23.8945 10.5269 13.8972 16.5837 7.91322Z" fill="#F05E47"/>
<path d="M41.2712 24.9039C38.329 24.6607 35.4163 24.0825 32.8886 22.4766C30.9989 21.275 29.7633 19.737 29.0849 17.8144C28.8669 17.1896 28.6731 16.5888 28.5035 16.012C27.704 13.3925 27.0983 11.494 24.6029 11.494C22.156 11.494 20.9688 13.032 20.9688 16.2043C21.3351 26.1664 29.9915 29.1293 38.0006 31.777C38.4775 30.9661 38.8742 30.1211 39.3331 29.3017C35.2917 28.685 31.114 27.2957 27.8736 24.7356C24.7725 22.3324 23.3431 18.992 23.6823 15.0507C23.7549 14.3298 24.1668 14.0895 24.5302 14.0895C24.9421 14.0895 25.4509 14.4019 25.6204 15.0988C27.5815 23.214 32.7476 25.4579 40.3022 27.3311C40.6282 26.5226 40.9254 25.7044 41.2712 24.9039Z" fill="#47474A"/>
</svg>
