<svg width="50" height="50" viewBox="0 0 50 50" fill="none" xmlns="http://www.w3.org/2000/svg">
<rect width="50" height="50" fill="#0E0E0E"/>
<path d="M39.6396 12.6136H39.6408C39.3028 12.1206 38.7162 11.804 38.0731 11.7619C37.6019 11.7268 34.7562 11.5282 33.8151 11.3892C31.2615 11.0095 29.1791 10.4452 27.6172 9.70566C27.4711 9.63673 27.3392 9.56313 27.2014 9.48952C26.5336 9.17875 25.788 9 25.0012 9C24.2144 9 23.4676 9.17875 22.801 9.48952C22.6632 9.56196 22.5312 9.63673 22.3852 9.70566C20.8233 10.4452 18.7409 11.0107 16.1873 11.3892C15.2462 11.5282 12.3993 11.7268 11.9293 11.7619C11.2862 11.804 10.6985 12.1206 10.3616 12.6124C10.2391 12.7772 10.1484 12.9699 10.0883 13.1756C10.0294 13.3812 10 13.5996 10 13.8146C10 20.1317 10.3958 29.0074 13.6631 33.1093C16.0895 36.1411 23.2921 39.4264 24.0836 39.7932C24.298 39.882 24.5136 40 25 40C25.4865 40 25.7032 39.882 25.9164 39.7932C26.7079 39.4276 33.9105 36.1411 36.3369 33.1093C39.6031 29.0062 40 20.1317 40 13.8146C40 13.3858 39.8858 12.9419 39.6396 12.6136ZM34.0095 31.3078C32.7103 32.9493 28.8611 35.0955 26.1885 36.4285C25.8316 36.6084 25.4276 36.7112 25 36.7112C24.5724 36.7112 24.1685 36.6084 23.8115 36.4285C21.139 35.0966 17.291 32.9505 15.9906 31.3078C14.0542 28.9116 13.0448 23.4111 12.9529 15.1617C12.9576 14.9993 13.0212 14.8521 13.1284 14.7446C13.1802 14.692 13.2415 14.6476 13.311 14.6173C13.3793 14.5857 13.4547 14.567 13.5336 14.5612C14.6443 14.4759 15.9611 14.3626 16.609 14.2633C17.7727 14.0903 18.8422 13.8765 19.8363 13.6312C21.3098 13.2667 22.5878 12.8262 23.6785 12.3075C24.0801 12.1194 24.53 12.0201 25.0024 12.0201C25.4747 12.0201 25.9246 12.1194 26.3263 12.3075C27.4182 12.8274 28.6962 13.2678 30.1697 13.6312C31.1638 13.8765 32.2333 14.0903 33.3969 14.2633C34.0448 14.3614 35.3616 14.4747 36.4712 14.56C36.629 14.5705 36.7715 14.6383 36.8752 14.7434H36.874C36.98 14.8532 37.0448 15.0005 37.0495 15.1629C36.9588 23.4123 35.9482 28.9127 34.0118 31.309L34.0095 31.3078Z" fill="#EAEAEA"/>
</svg>
