<svg width="50" height="50" viewBox="0 0 50 50" fill="none" xmlns="http://www.w3.org/2000/svg">
<path d="M24.3381 5.01843C35.804 4.54409 45.3049 14.2256 44.9912 25.6031C44.6964 36.312 35.7193 45.0177 25.0088 45.0001C19.1954 44.9902 14.2305 42.8271 10.2719 38.5479C6.71353 34.7009 4.9874 30.0779 5.00007 24.8674C5.02656 13.9309 13.7056 5.79556 24.3381 5.01843ZM8.14165 24.9945C8.09606 29.1227 9.65633 33.6725 12.9103 36.367C14.8612 37.983 17.2521 38.7659 19.7628 38.8311C22.9959 38.9127 26.2408 37.2553 28.2616 34.767C29.1147 33.7173 29.1883 33.0129 27.8997 33.4883C25.5483 34.3567 22.6512 34.0399 20.5104 32.7882C18.5245 31.6264 16.9658 29.6614 16.3603 27.4333C14.905 22.0855 18.815 16.3138 24.4188 16.0955C28.0367 15.9554 31.2037 17.8549 32.9913 20.9904C33.9587 22.6875 34.205 24.8931 34.2585 26.8106C34.3287 29.3377 33.6475 31.9246 32.4647 34.1495C30.8551 37.1757 28.1863 39.8734 24.9445 41.0851C24.2881 41.3301 24.8567 42.0887 25.3725 42.067C29.2053 41.9002 32.9956 40.4407 35.8968 37.9214C40.3596 34.0483 42.2717 28.2944 41.6797 22.467C40.8148 13.9678 32.0276 7.43415 23.7074 8.22437C14.6975 9.08252 8.66138 16.1272 8.14165 24.9963V24.9945ZM19.247 25.0264C19.2207 28.2571 21.8268 30.6627 24.7234 30.7649C27.9664 30.8798 31.0465 28.417 30.7442 24.4262C30.5016 21.2195 27.4928 18.9626 24.3649 19.2738C21.7592 19.5331 19.2498 21.7069 19.247 25.0264Z" fill="#0365CF"/>
</svg>
