<svg width="50" height="50" viewBox="0 0 50 50" fill="none" xmlns="http://www.w3.org/2000/svg">
<rect width="50" height="50" fill="black"/>
<path d="M14 10H27.1061C30.3409 10 32.8661 10.8974 34.4939 12.5043C35.7878 13.7983 36.4348 15.3635 36.4348 17.3043V17.3878C36.4348 20.5809 34.7443 22.3548 32.72 23.4817C35.9965 24.7339 38 26.633 38 30.4104V30.4939C38 35.6487 33.8052 38.2365 27.44 38.2365H14V10ZM30.2574 18.3687C30.2574 16.5113 28.7965 15.4678 26.1878 15.4678H20.0522V21.4365H25.7704C28.5043 21.4365 30.2574 20.5391 30.2574 18.4522V18.3687ZM27.2313 26.5913H20.0522V32.8104H27.44C30.1739 32.8104 31.8435 31.8504 31.8435 29.7426V29.6591C31.8226 27.76 30.4243 26.5913 27.2313 26.5913Z" fill="white"/>
<path d="M20.0522 26.6118V26.5913L14 26.591V32.8101L20.0522 32.8104V32.7892L26.1043 29.7005L20.0522 26.6118Z" fill="#EE2424"/>
</svg>
