<svg width="50" height="50" viewBox="0 0 50 50" fill="none" xmlns="http://www.w3.org/2000/svg">
<path d="M39.2291 24.8898C41.0498 23.8128 42.3725 21.882 42.3725 19.7334C42.3725 18.1612 41.826 16.7461 40.7387 15.4873C39.0273 13.4944 36.5276 12.5 33.2355 12.5H6.94434L6.95986 17.8167H33.7624C35.4466 17.8167 37.122 19.1097 36.3642 20.961C35.9157 21.9058 35.0498 22.3761 33.7673 22.3761L15.9262 22.3809V37.5H33.9151C38.0901 37.5 43.0554 35.3412 43.0554 30.5158C43.0554 28.0313 41.3171 26.035 39.2291 24.8898ZM33.8449 32.1841H21.9818V27.6551H33.8449C35.1747 27.6551 36.6371 28.342 36.6371 29.8587C36.6119 31.3666 35.2497 32.1841 33.8449 32.1841Z" fill="#04D899"/>
</svg>
