<svg width="50" height="50" viewBox="0 0 50 50" fill="none" xmlns="http://www.w3.org/2000/svg">
<path d="M9.53175 9.92514C8.87789 9.91655 8.37106 10.5443 8.47178 11.1744L12.9715 38.9225C13.0846 39.6072 13.6831 40.1388 14.3813 40.1447H35.9684C36.4765 40.1513 36.947 39.7497 37.0282 39.2402L41.5281 11.1797C41.6287 10.5497 41.1218 9.92214 40.468 9.93078L9.53175 9.92514ZM28.4793 29.9799H21.5893L19.7237 20.0791H30.1489L28.4793 29.9799Z" fill="#2684FF"/>
<path d="M40.0697 20.0651H30.1296L28.4614 29.9581H21.5769C20.4399 31.329 12.6501 40.1 14.3746 40.1145H35.9498C36.4575 40.1211 36.9277 39.7199 37.0089 39.2108L40.0697 20.0651Z" fill="url(#paint0_linear_9176_11007)"/>
<defs>
<linearGradient id="paint0_linear_9176_11007" x1="42.3683" y1="22.8354" x2="30.6439" y2="39.2236" gradientUnits="userSpaceOnUse">
<stop offset="0.18" stop-color="#0052CC"/>
<stop offset="1" stop-color="#2684FF"/>
</linearGradient>
</defs>
</svg>
