<svg width="50" height="50" viewBox="0 0 50 50" fill="none" xmlns="http://www.w3.org/2000/svg">
<rect width="50" height="50" fill="#ED1F24"/>
<path d="M16.8867 35.9335V38.0156C16.2821 38.9114 14.8415 39.0433 13.918 38.664C12.6969 38.147 12.5 36.8729 12.5 35.6992C12.5 34.8493 12.7035 34.1778 13.0938 33.7148C13.485 33.2453 14.0559 32.9999 14.7891 32.9999C16.0987 32.9999 16.7467 33.7385 16.8867 34.7421H16.1328C16.0315 34.1265 15.6625 33.6171 14.7891 33.6171C14.263 33.6171 13.8789 33.8164 13.6289 34.1757C13.3792 34.5347 13.2578 35.05 13.2578 35.6914C13.2578 36.5672 13.2979 37.6555 14.2148 38.0898C14.772 38.3503 15.7053 38.3158 16.1367 37.8164V36.5429H14.8203V35.9335H16.8867Z" fill="black"/>
<path d="M18.75 35.2031V38.7656H18.0273V34.539H18.7305L18.75 35.2031ZM20.0703 34.5156L20.0664 35.1874C19.9492 35.162 19.8534 35.1562 19.7148 35.1562C19.3815 35.1562 19.1263 35.2656 18.9492 35.4531C18.8607 35.5468 18.7904 35.6588 18.7383 35.789C18.3718 36.7343 18.527 35.3746 18.75 35.0156C18.8568 34.8411 18.9922 34.7057 19.1562 34.6093C19.3229 34.5104 19.5208 34.4609 19.75 34.4609C19.8538 34.4609 20.0181 34.4894 20.0703 34.5156Z" fill="black"/>
<path d="M23.0742 38.0429V35.8671C23.0742 35.3646 22.7681 35.0429 22.1836 35.0429C21.6446 35.0429 21.2695 35.3545 21.2695 35.7109H20.5469C20.5469 35.2548 20.9219 34.7785 21.5312 34.5703C22.213 34.3316 23.1773 34.4283 23.5938 35.0898C23.7292 35.2981 23.7969 35.5598 23.7969 35.8749V37.8437C23.7969 38.1253 23.8465 38.4742 23.9453 38.7031V38.7656H23.1914C23.1178 38.5974 23.0742 38.2803 23.0742 38.0429ZM23.1992 36.2031L23.207 36.7109H22.4766C21.8607 36.7109 21.4416 36.8551 21.2695 37.1523C21.1538 37.3469 21.1548 37.6388 21.2734 37.8554C21.3937 38.075 21.6394 38.2109 21.9922 38.2109C22.4349 38.2109 22.7826 37.9973 22.9805 37.7265C23.4573 37.0908 23.3406 38.1002 22.9805 38.4257C22.7171 38.6633 22.349 38.8437 21.8867 38.8437C21.3165 38.8437 20.8735 38.6033 20.6328 38.2265C20.4101 37.8653 20.3955 37.3694 20.5898 36.9921C21.0603 36.0651 22.3213 36.2031 23.1992 36.2031Z" fill="black"/>
<path d="M26.1562 38.1132L27.3125 34.539H28.0508L26.5312 38.7656H26.0469L26.1562 38.1132ZM25.1914 34.539L26.3828 38.1328L26.4648 38.7656H25.9805L24.4492 34.539H25.1914Z" fill="black"/>
<path d="M29.5312 34.539V38.7656H28.8047V34.539H29.5312ZM28.8555 33.121C29.0066 32.9537 29.3411 32.9538 29.4922 33.121C29.6399 33.2789 29.6467 33.5418 29.4922 33.707C29.3405 33.8695 29.0072 33.8696 28.8555 33.707C28.7116 33.5418 28.718 33.2789 28.8555 33.121Z" fill="black"/>
<path d="M32.4609 34.539V35.0937H30.1758V34.539H32.4609ZM30.9492 33.5117H31.6719V37.7187C31.6719 38.2245 32.0656 38.2706 32.4766 38.1757L32.4805 38.7656C31.6234 39.0383 30.9492 38.5867 30.9492 37.7148V33.5117Z" fill="black"/>
<path d="M34.4961 38.3281L35.6719 34.539H36.4453L34.75 39.4179C34.5931 39.8363 34.2698 40.4726 33.4961 40.4726C33.3619 40.4726 33.2187 40.4469 33.0898 40.4101L33.0859 39.8242C33.1289 39.8295 33.2459 39.8398 33.2812 39.8398C33.7705 39.8398 34.0226 39.6743 34.1953 39.1484L34.4961 38.3281ZM33.6328 34.539L34.7305 37.8203L34.3984 38.8476L32.8438 34.539H33.6328Z" fill="black"/>
<path d="M19.2773 45.8085V46.4218H15.4258V45.8085H19.2773ZM19.1523 41.2812L15.6055 46.4218H15.1406V45.8593L18.6836 40.7343H19.1523V41.2812ZM18.832 40.7343V41.3515H15.1914V40.7343H18.832Z" fill="black"/>
<path d="M19.8711 44.3554C19.8711 43.7741 19.9976 43.1842 20.3867 42.7343C20.7207 42.3428 21.2017 42.1171 21.7891 42.1171C22.3843 42.1171 22.8667 42.3446 23.1992 42.7343C23.5927 43.1822 23.7188 43.7733 23.7188 44.3554C23.7188 45.2651 23.3115 46.0084 22.5938 46.3397C22.3594 46.4465 22.0938 46.4999 21.7969 46.4999C20.6051 46.4999 19.8711 45.5722 19.8711 44.3554ZM20.5938 44.3554C20.5938 45.193 20.9912 45.9061 21.7969 45.9061C21.9948 45.9061 22.168 45.8658 22.3164 45.785C22.772 45.5336 22.9922 44.9812 22.9922 44.3554C22.9922 43.9464 22.9294 43.5207 22.6875 43.1796C22.4909 42.8898 22.1928 42.7108 21.7891 42.7108C21.3958 42.7108 21.0951 42.886 20.8906 43.1796C20.6527 43.5239 20.5938 43.9459 20.5938 44.3554Z" fill="black"/>
<path d="M25.3477 43.0976V46.4218H24.625V42.1952H25.3086L25.3477 43.0976ZM25.3555 42.6913C25.5065 42.509 25.6862 42.3684 25.8945 42.2694C26.2767 42.0854 26.7553 42.0652 27.1562 42.203C27.6578 42.3676 27.9492 42.8125 27.9492 43.6522V46.4218H27.2227V43.6444C27.2227 43.1982 27.0879 42.9391 26.8398 42.8202C26.5535 42.6771 26.1684 42.6964 25.8867 42.8397C25.7409 42.9153 25.6146 43.0194 25.5078 43.1522C24.7419 44.1288 24.5892 43.6162 25.3555 42.6913Z" fill="black"/>
<path d="M30 46.3514C29.5277 46.149 29.179 45.779 28.9961 45.2772C28.8798 44.9583 28.8594 44.6285 28.8594 44.2929C28.8594 42.9091 29.7611 42.1171 30.707 42.1171C31.6164 42.1171 32.1401 42.6072 32.3438 43.3671C32.4115 43.6171 32.4453 43.8905 32.4453 44.1874V44.5116H29.2891V43.9218H31.7227C31.7227 43.7167 31.6786 43.5114 31.6055 43.3202C31.4753 42.966 31.2018 42.7108 30.707 42.7108C30.3801 42.7108 30.0971 42.8491 29.8984 43.121C29.7995 43.2564 29.7227 43.4218 29.668 43.6171C29.5911 43.8916 29.5859 44.1742 29.5859 44.4569C29.5859 44.6574 29.6133 44.8462 29.668 45.0233C29.7831 45.374 30.0028 45.6464 30.3086 45.7968C30.6636 45.9684 31.1482 45.9539 31.4883 45.7538C31.6654 45.6496 31.8203 45.5103 31.9531 45.3358L32.3906 45.6835C32.2083 45.9595 31.9349 46.2264 31.5234 46.3827C31.0529 46.5637 30.4633 46.5428 30 46.3514Z" fill="black"/>
<path d="M13 6.99988H37V29.9999H13V6.99988Z" fill="white"/>
<path d="M18.3113 11.4063C18.4818 11.3837 18.5363 11.3701 18.5909 11.3701C21.1548 11.374 23.7194 11.3688 26.2833 11.3895C27.2967 11.3979 28.2475 11.6542 29.1073 12.1947C31.0014 13.3855 31.2143 16.6846 28.6443 17.8308C28.453 17.916 28.2569 17.9916 28.0366 18.0826C28.2953 18.1498 28.5332 18.1976 28.7609 18.2725C30.436 18.8239 31.4057 20.3937 31.1395 22.1134C30.87 23.8556 29.7501 24.9592 27.7421 25.3776C27.0474 25.5223 26.3257 25.5984 25.6142 25.612C23.8905 25.6449 22.1655 25.623 20.4412 25.6217C20.3752 25.6217 20.3098 25.612 20.2067 25.6036C20.2 25.4609 20.1886 25.3266 20.1886 25.1929C20.1879 21.4373 20.1798 17.6816 20.1966 13.926C20.1993 13.3403 20.0228 12.8869 19.537 12.5305C19.1987 12.2832 18.88 12.0113 18.5619 11.7407C18.475 11.6671 18.4218 11.5567 18.3113 11.4063ZM22.8616 23.3751C23.9903 23.3751 25.0886 23.4236 26.1782 23.3538C26.6923 23.3209 27.2354 23.1375 27.6868 22.8915C28.4584 22.4705 28.5601 21.7201 28.4644 20.9465C28.3782 20.2484 27.9543 19.7938 27.2583 19.5904C26.9504 19.5007 26.6283 19.4174 26.3095 19.407C25.1924 19.3709 24.0745 19.367 22.9566 19.3534C22.9276 19.3534 22.898 19.3767 22.8609 19.3928L22.8616 23.3751ZM22.8717 13.5527V17.114C23.9303 17.114 24.968 17.1179 26.0063 17.1101C26.16 17.1088 26.3149 17.0623 26.4659 17.0236C27.3944 16.7847 27.9065 16.1421 27.8661 15.2717C27.827 14.4219 27.2354 13.7587 26.2846 13.676C25.1634 13.5785 24.0314 13.5902 22.8717 13.5527Z" fill="#ED1F24"/>
</svg>
