<svg width="50" height="50" viewBox="0 0 50 50" fill="none" xmlns="http://www.w3.org/2000/svg">
<path d="M8.63281 43.6433V45.7253C8.02815 46.6211 6.58755 46.753 5.66406 46.3737C4.44296 45.8567 4.24609 44.5826 4.24609 43.4089C4.24609 42.559 4.44964 41.8876 4.83984 41.4245C5.23112 40.955 5.802 40.7097 6.53516 40.7097C7.8448 40.7097 8.49277 41.4482 8.63281 42.4519H7.87891C7.7776 41.8362 7.40864 41.3269 6.53516 41.3269C6.00911 41.3269 5.625 41.5261 5.375 41.8855C5.12529 42.2444 5.00391 42.7597 5.00391 43.4011C5.00391 44.2769 5.04403 45.3652 5.96094 45.7995C6.51811 46.06 7.45144 46.0256 7.88281 45.5261V44.2527H6.56641V43.6433H8.63281Z" fill="#1C1D1F"/>
<path d="M10.4961 42.9128V46.4753H9.77344V42.2487H10.4766L10.4961 42.9128ZM11.8164 42.2253L11.8125 42.8972C11.6953 42.8717 11.5995 42.8659 11.4609 42.8659C11.1276 42.8659 10.8724 42.9753 10.6953 43.1628C10.6068 43.2566 10.5365 43.3685 10.4844 43.4987C10.1178 44.444 10.2731 43.0844 10.4961 42.7253C10.6029 42.5508 10.7383 42.4154 10.9023 42.3191C11.069 42.2201 11.2669 42.1706 11.4961 42.1706C11.5999 42.1706 11.7642 42.1992 11.8164 42.2253Z" fill="#1C1D1F"/>
<path d="M14.8203 45.7527V43.5769C14.8203 43.0743 14.5142 42.7527 13.9297 42.7527C13.3907 42.7527 13.0156 43.0643 13.0156 43.4206H12.293C12.293 42.9646 12.668 42.4883 13.2773 42.28C13.9591 42.0414 14.9234 42.1381 15.3398 42.7995C15.4753 43.0079 15.543 43.2696 15.543 43.5847V45.5534C15.543 45.835 15.5926 46.1839 15.6914 46.4128V46.4753H14.9375C14.8639 46.3071 14.8203 45.9901 14.8203 45.7527ZM14.9453 43.9128L14.9531 44.4206H14.2227C13.6068 44.4206 13.1877 44.5648 13.0156 44.862C12.8999 45.0567 12.9009 45.3485 13.0195 45.5652C13.1398 45.7848 13.3855 45.9206 13.7383 45.9206C14.181 45.9206 14.5286 45.7071 14.7266 45.4362C15.2034 44.8005 15.0867 45.81 14.7266 46.1355C14.4632 46.373 14.0951 46.5534 13.6328 46.5534C13.0626 46.5534 12.6196 46.313 12.3789 45.9362C12.1562 45.575 12.1416 45.0791 12.3359 44.7019C12.8064 43.7748 14.0674 43.9128 14.9453 43.9128Z" fill="#1C1D1F"/>
<path d="M17.9023 45.823L19.0586 42.2487H19.7969L18.2773 46.4753H17.793L17.9023 45.823ZM16.9375 42.2487L18.1289 45.8425L18.2109 46.4753H17.7266L16.1953 42.2487H16.9375Z" fill="#1C1D1F"/>
<path d="M21.2773 42.2487V46.4753H20.5508V42.2487H21.2773ZM20.6016 40.8308C20.7527 40.6635 21.0872 40.6635 21.2383 40.8308C21.386 40.9886 21.3928 41.2515 21.2383 41.4167C21.0866 41.5792 20.7533 41.5793 20.6016 41.4167C20.4577 41.2515 20.4641 40.9886 20.6016 40.8308Z" fill="#1C1D1F"/>
<path d="M24.207 42.2487V42.8034H21.9219V42.2487H24.207ZM22.6953 41.2214H23.418V45.4284C23.418 45.9342 23.8117 45.9803 24.2227 45.8855L24.2266 46.4753C23.3695 46.748 22.6953 46.2964 22.6953 45.4245V41.2214Z" fill="#1C1D1F"/>
<path d="M26.2422 46.0378L27.418 42.2487H28.1914L26.4961 47.1277C26.3392 47.546 26.0159 48.1823 25.2422 48.1823C25.108 48.1823 24.9648 48.1567 24.8359 48.1198L24.832 47.5339C24.875 47.5393 24.992 47.5495 25.0273 47.5495C25.5165 47.5495 25.7687 47.384 25.9414 46.8581L26.2422 46.0378ZM25.3789 42.2487L26.4766 45.53L26.1445 46.5573L24.5898 42.2487H25.3789Z" fill="#1C1D1F"/>
<path d="M32.7695 45.862V46.4753H28.918V45.862H32.7695ZM32.6445 41.3347L29.0977 46.4753H28.6328V45.9128L32.1758 40.7878H32.6445V41.3347ZM32.3242 40.7878V41.405H28.6836V40.7878H32.3242Z" fill="#1C1D1F"/>
<path d="M33.3633 44.4089C33.3633 43.8276 33.4898 43.2377 33.8789 42.7878C34.2129 42.3964 34.6939 42.1706 35.2812 42.1706C35.8765 42.1706 36.3589 42.3981 36.6914 42.7878C37.0849 43.2357 37.2109 43.8268 37.2109 44.4089C37.2109 45.3186 36.8037 46.062 36.0859 46.3933C35.8516 46.5 35.5859 46.5534 35.2891 46.5534C34.0972 46.5534 33.3633 45.6258 33.3633 44.4089ZM34.0859 44.4089C34.0859 45.2465 34.4834 45.9597 35.2891 45.9597C35.487 45.9597 35.6602 45.9193 35.8086 45.8386C36.2642 45.5872 36.4844 45.0348 36.4844 44.4089C36.4844 44 36.4216 43.5742 36.1797 43.2331C35.9831 42.9434 35.685 42.7644 35.2812 42.7644C34.888 42.7644 34.5873 42.9395 34.3828 43.2331C34.1449 43.5774 34.0859 43.9994 34.0859 44.4089Z" fill="#1C1D1F"/>
<path d="M38.8398 43.1511V46.4753H38.1172V42.2487H38.8008L38.8398 43.1511ZM38.8477 42.7448C38.9987 42.5625 39.1784 42.4219 39.3867 42.323C39.7689 42.1389 40.2475 42.1187 40.6484 42.2566C41.15 42.4211 41.4414 42.866 41.4414 43.7058V46.4753H40.7148V43.698C40.7148 43.2518 40.5801 42.9926 40.332 42.8737C40.0457 42.7306 39.6606 42.75 39.3789 42.8933C39.2331 42.9688 39.1068 43.073 39 43.2058C38.2341 44.1823 38.0814 43.6697 38.8477 42.7448Z" fill="#1C1D1F"/>
<path d="M43.4922 46.405C43.0199 46.2026 42.6712 45.8326 42.4883 45.3308C42.372 45.0119 42.3516 44.682 42.3516 44.3464C42.3516 42.9626 43.2533 42.1706 44.1992 42.1706C45.1086 42.1706 45.6323 42.6607 45.8359 43.4206C45.9036 43.6706 45.9375 43.9441 45.9375 44.2409V44.5652H42.7812V43.9753H45.2148C45.2148 43.7702 45.1708 43.5649 45.0977 43.3737C44.9674 43.0196 44.694 42.7644 44.1992 42.7644C43.8723 42.7644 43.5893 42.9027 43.3906 43.1745C43.2917 43.3099 43.2148 43.4753 43.1602 43.6706C43.0833 43.9452 43.0781 44.2277 43.0781 44.5105C43.0781 44.711 43.1055 44.8998 43.1602 45.0769C43.2753 45.4275 43.495 45.7 43.8008 45.8503C44.1558 46.0219 44.6403 46.0074 44.9805 45.8073C45.1576 45.7032 45.3125 45.5639 45.4453 45.3894L45.8828 45.737C45.7005 46.0131 45.4271 46.28 45.0156 46.4362C44.5451 46.6172 43.9555 46.5964 43.4922 46.405Z" fill="#1C1D1F"/>
<path d="M9.5 6.52466H40.5V37.5247H9.5V6.52466Z" fill="#ED1F24"/>
<path d="M16.3604 12.4637C16.5806 12.4332 16.6511 12.4149 16.7216 12.4149C20.0333 12.4202 23.3459 12.4132 26.6576 12.4411C27.9666 12.4524 29.1946 12.7979 30.3052 13.5264C32.7518 15.1313 33.0268 19.5779 29.7073 21.1228C29.4601 21.2377 29.2068 21.3395 28.9222 21.4623C29.2564 21.5528 29.5637 21.6172 29.8578 21.7181C32.0215 22.4614 33.274 24.5773 32.9302 26.895C32.582 29.2432 31.1355 30.7306 28.5419 31.2946C27.6445 31.4896 26.7124 31.5923 25.7933 31.6106C23.5669 31.655 21.3388 31.6254 19.1116 31.6236C19.0263 31.6236 18.9419 31.6106 18.8087 31.5993C18.8 31.4069 18.7852 31.2259 18.7852 31.0457C18.7843 25.9837 18.7739 20.9218 18.7957 15.8598C18.7991 15.0704 18.5711 14.4594 17.9436 13.979C17.5067 13.6456 17.095 13.2792 16.6842 12.9145C16.5719 12.8153 16.5032 12.6665 16.3604 12.4637ZM22.2379 28.5957C23.6957 28.5957 25.1144 28.6609 26.5218 28.5669C27.1859 28.5226 27.8874 28.2754 28.4705 27.9438C29.4671 27.3763 29.5985 26.365 29.4749 25.3223C29.3635 24.3814 28.816 23.7687 27.917 23.4945C27.5192 23.3736 27.1032 23.2613 26.6915 23.2474C25.2485 23.1986 23.8045 23.1934 22.3606 23.1751C22.3232 23.1751 22.2849 23.2064 22.237 23.2282L22.2379 28.5957ZM22.251 15.3567V20.1567C23.6183 20.1567 24.9586 20.162 26.2998 20.1515C26.4983 20.1498 26.6985 20.0871 26.8934 20.0349C28.0928 19.7129 28.7542 18.8469 28.702 17.6736C28.6515 16.5282 27.8874 15.6344 26.6593 15.523C25.211 15.3915 23.7488 15.4072 22.251 15.3567Z" fill="white"/>
</svg>
