<svg width="50" height="50" viewBox="0 0 50 50" fill="none" xmlns="http://www.w3.org/2000/svg">
<path d="M10.2678 40.8464H8.65544L8.6467 40.1491H10.1105C10.3523 40.1491 10.5635 40.1071 10.7441 40.0231C10.9247 39.9392 11.0646 39.8192 11.1636 39.6632C11.2656 39.5043 11.3165 39.3153 11.3165 39.0964C11.3165 38.8565 11.2714 38.6615 11.1811 38.5116C11.0937 38.3586 10.9582 38.2476 10.7747 38.1787C10.5941 38.1067 10.364 38.0707 10.0843 38.0707H8.84334V43.91H8V37.3599H10.0843C10.4106 37.3599 10.7019 37.3944 10.9582 37.4634C11.2146 37.5293 11.4316 37.6343 11.6093 37.7783C11.7899 37.9192 11.9268 38.0992 12.02 38.3181C12.1133 38.5371 12.1599 38.7995 12.1599 39.1054C12.1599 39.3753 12.0929 39.6198 11.9589 39.8387C11.8249 40.0546 11.6384 40.2316 11.3996 40.3695C11.1636 40.5075 10.8869 40.596 10.5693 40.635L10.2678 40.8464ZM10.2285 43.91H8.32335L8.79964 43.2037H10.2285C10.4965 43.2037 10.7237 43.1557 10.9102 43.0598C11.0995 42.9638 11.2437 42.8288 11.3428 42.6549C11.4418 42.4779 11.4913 42.2695 11.4913 42.0296C11.4913 41.7866 11.4491 41.5767 11.3646 41.3997C11.2801 41.2228 11.1476 41.0863 10.967 40.9904C10.7864 40.8944 10.5533 40.8464 10.2678 40.8464H9.06619L9.07493 40.1491H10.7179L10.8971 40.401C11.2029 40.428 11.4622 40.518 11.6748 40.671C11.8875 40.8209 12.0492 41.0129 12.1599 41.2468C12.2735 41.4807 12.3303 41.7386 12.3303 42.0206C12.3303 42.4284 12.2429 42.7734 12.0681 43.0553C11.8962 43.3342 11.653 43.5471 11.3384 43.6941C11.0238 43.838 10.6538 43.91 10.2285 43.91Z" fill="#7F8BA5"/>
<path d="M14.3316 39.0424V43.91H13.5188V39.0424H14.3316ZM13.4577 37.7513C13.4577 37.6163 13.497 37.5024 13.5756 37.4094C13.6572 37.3164 13.7766 37.2699 13.9339 37.2699C14.0883 37.2699 14.2063 37.3164 14.2879 37.4094C14.3724 37.5024 14.4146 37.6163 14.4146 37.7513C14.4146 37.8802 14.3724 37.9912 14.2879 38.0842C14.2063 38.1742 14.0883 38.2192 13.9339 38.2192C13.7766 38.2192 13.6572 38.1742 13.5756 38.0842C13.497 37.9912 13.4577 37.8802 13.4577 37.7513Z" fill="#7F8BA5"/>
<path d="M17.6088 39.0424V39.6812H15.0526V39.0424H17.6088ZM15.9177 37.8593H16.7261V42.7044C16.7261 42.8693 16.7509 42.9938 16.8004 43.0778C16.8499 43.1617 16.914 43.2172 16.9927 43.2442C17.0713 43.2712 17.1558 43.2847 17.2461 43.2847C17.3131 43.2847 17.383 43.2787 17.4559 43.2667C17.5316 43.2517 17.5884 43.2397 17.6263 43.2307L17.6306 43.91C17.5666 43.931 17.4821 43.9505 17.3772 43.9685C17.2752 43.9895 17.1514 44 17.0058 44C16.8077 44 16.6256 43.9595 16.4596 43.8785C16.2935 43.7976 16.161 43.6626 16.0619 43.4737C15.9658 43.2817 15.9177 43.0238 15.9177 42.6999V37.8593Z" fill="#7F8BA5"/>
<path d="M19.4353 37V43.91H18.6225V37H19.4353Z" fill="#7F8BA5"/>
<path d="M20.519 41.5302V41.4267C20.519 41.0758 20.5685 40.7504 20.6675 40.4505C20.7666 40.1476 20.9093 39.8852 21.0957 39.6632C21.2822 39.4383 21.5079 39.2644 21.773 39.1414C22.0381 39.0154 22.3353 38.9524 22.6644 38.9524C22.9965 38.9524 23.2951 39.0154 23.5602 39.1414C23.8282 39.2644 24.0554 39.4383 24.2419 39.6632C24.4312 39.8852 24.5754 40.1476 24.6745 40.4505C24.7735 40.7504 24.823 41.0758 24.823 41.4267V41.5302C24.823 41.8811 24.7735 42.2065 24.6745 42.5064C24.5754 42.8063 24.4312 43.0688 24.2419 43.2937C24.0554 43.5156 23.8297 43.6896 23.5646 43.8156C23.3024 43.9385 23.0053 44 22.6732 44C22.3411 44 22.0425 43.9385 21.7774 43.8156C21.5123 43.6896 21.2851 43.5156 21.0957 43.2937C20.9093 43.0688 20.7666 42.8063 20.6675 42.5064C20.5685 42.2065 20.519 41.8811 20.519 41.5302ZM21.3273 41.4267V41.5302C21.3273 41.7731 21.355 42.0026 21.4104 42.2185C21.4657 42.4314 21.5487 42.6204 21.6594 42.7853C21.773 42.9503 21.9143 43.0808 22.0833 43.1767C22.2522 43.2697 22.4489 43.3162 22.6732 43.3162C22.8946 43.3162 23.0883 43.2697 23.2543 43.1767C23.4233 43.0808 23.5631 42.9503 23.6738 42.7853C23.7845 42.6204 23.8675 42.4314 23.9229 42.2185C23.9812 42.0026 24.0103 41.7731 24.0103 41.5302V41.4267C24.0103 41.1868 23.9812 40.9604 23.9229 40.7474C23.8675 40.5315 23.7831 40.341 23.6695 40.1761C23.5588 40.0081 23.4189 39.8762 23.25 39.7802C23.0839 39.6842 22.8887 39.6362 22.6644 39.6362C22.443 39.6362 22.2479 39.6842 22.0789 39.7802C21.9129 39.8762 21.773 40.0081 21.6594 40.1761C21.5487 40.341 21.4657 40.5315 21.4104 40.7474C21.355 40.9604 21.3273 41.1868 21.3273 41.4267Z" fill="#7F8BA5"/>
<path d="M27.7288 43.3162C27.9211 43.3162 28.0988 43.2757 28.2619 43.1947C28.4251 43.1138 28.5591 43.0028 28.6639 42.8618C28.7688 42.7179 28.8285 42.5544 28.8431 42.3715H29.6121C29.5976 42.6594 29.5029 42.9278 29.3281 43.1767C29.1562 43.4227 28.9305 43.6221 28.6508 43.7751C28.3712 43.925 28.0638 44 27.7288 44C27.3734 44 27.0632 43.9355 26.7981 43.8066C26.5359 43.6776 26.3174 43.5006 26.1427 43.2757C25.9708 43.0508 25.8412 42.7928 25.7538 42.5019C25.6693 42.208 25.627 41.8976 25.627 41.5707V41.3817C25.627 41.0548 25.6693 40.7459 25.7538 40.455C25.8412 40.1611 25.9708 39.9017 26.1427 39.6767C26.3174 39.4518 26.5359 39.2749 26.7981 39.1459C27.0632 39.0169 27.3734 38.9524 27.7288 38.9524C28.0988 38.9524 28.4221 39.0304 28.6989 39.1864C28.9756 39.3393 29.1926 39.5493 29.35 39.8162C29.5102 40.0801 29.5976 40.38 29.6121 40.7159H28.8431C28.8285 40.515 28.7732 40.3335 28.677 40.1716C28.5838 40.0096 28.4556 39.8807 28.2925 39.7847C28.1323 39.6857 27.9444 39.6362 27.7288 39.6362C27.4812 39.6362 27.2729 39.6872 27.104 39.7892C26.9379 39.8882 26.8054 40.0231 26.7063 40.1941C26.6102 40.362 26.5403 40.5495 26.4966 40.7564C26.4558 40.9604 26.4354 41.1688 26.4354 41.3817V41.5707C26.4354 41.7836 26.4558 41.9936 26.4966 42.2005C26.5374 42.4075 26.6058 42.5949 26.702 42.7629C26.801 42.9308 26.9336 43.0658 27.0996 43.1677C27.2686 43.2667 27.4783 43.3162 27.7288 43.3162Z" fill="#7F8BA5"/>
<path d="M31.3338 37V43.91H30.521V37H31.3338ZM34.2221 39.0424L32.1596 41.3143L31.006 42.5469L30.9405 41.6607L31.7664 40.644L33.2345 39.0424H34.2221ZM33.4836 43.91L31.7969 41.5887L32.2164 40.8464L34.4362 43.91H33.4836Z" fill="#7F8BA5"/>
<path d="M36.9312 44C36.6021 44 36.3035 43.943 36.0355 43.829C35.7704 43.7121 35.5417 43.5486 35.3494 43.3387C35.1601 43.1287 35.0144 42.8798 34.9125 42.5919C34.8105 42.304 34.7595 41.9891 34.7595 41.6472V41.4582C34.7595 41.0623 34.8163 40.7099 34.93 40.401C35.0436 40.0891 35.198 39.8252 35.3931 39.6093C35.5883 39.3933 35.8097 39.2299 36.0573 39.1189C36.3049 39.0079 36.5613 38.9524 36.8264 38.9524C37.1643 38.9524 37.4556 39.0124 37.7003 39.1324C37.9479 39.2524 38.1504 39.4203 38.3077 39.6362C38.465 39.8492 38.5815 40.1011 38.6572 40.392C38.733 40.6799 38.7709 40.9949 38.7709 41.3368V41.7102H35.2402V41.0308H37.9625V40.9679C37.9508 40.7519 37.9071 40.542 37.8314 40.338C37.7586 40.1341 37.642 39.9662 37.4818 39.8342C37.3216 39.7022 37.1031 39.6362 36.8264 39.6362C36.6428 39.6362 36.4739 39.6767 36.3195 39.7577C36.1651 39.8357 36.0326 39.9527 35.9219 40.1086C35.8112 40.2646 35.7252 40.455 35.6641 40.6799C35.6029 40.9049 35.5723 41.1643 35.5723 41.4582V41.6472C35.5723 41.8781 35.6029 42.0955 35.6641 42.2995C35.7281 42.5004 35.8199 42.6774 35.9393 42.8303C36.0617 42.9833 36.2088 43.1033 36.3807 43.1902C36.5555 43.2772 36.7535 43.3207 36.9749 43.3207C37.2604 43.3207 37.5022 43.2607 37.7003 43.1407C37.8984 43.0208 38.0717 42.8603 38.2203 42.6594L38.7097 43.0598C38.6077 43.2187 38.4781 43.3702 38.3208 43.5141C38.1635 43.6581 37.9698 43.7751 37.7396 43.865C37.5124 43.955 37.2429 44 36.9312 44Z" fill="#7F8BA5"/>
<path d="M40.5231 39.8072V43.91H39.7147V39.0424H40.5012L40.5231 39.8072ZM42 39.0154L41.9956 39.7892C41.9286 39.7742 41.8645 39.7652 41.8034 39.7622C41.7451 39.7562 41.6781 39.7532 41.6024 39.7532C41.4159 39.7532 41.2513 39.7832 41.1086 39.8432C40.9659 39.9032 40.845 39.9871 40.7459 40.0951C40.6469 40.2031 40.5682 40.332 40.51 40.482C40.4546 40.629 40.4182 40.7909 40.4007 40.9679L40.1735 41.1028C40.1735 40.8089 40.2012 40.533 40.2565 40.2751C40.3148 40.0171 40.4036 39.7892 40.5231 39.5913C40.6425 39.3903 40.794 39.2344 40.9775 39.1234C41.1639 39.0094 41.3853 38.9524 41.6417 38.9524C41.7 38.9524 41.767 38.9599 41.8427 38.9749C41.9184 38.9869 41.9709 39.0004 42 39.0154Z" fill="#7F8BA5"/>
<path d="M11 10.9643L22.8515 9.41083L22.8566 20.4143L11.0108 20.4792L11 10.9643ZM22.8458 21.682L22.8549 32.695L11.0092 31.1274L11.0085 21.6082L22.8458 21.682ZM24.2825 9.20748L39.9964 7V20.2743L24.2825 20.3942V9.20748ZM40 21.7856L39.9963 35L24.2823 32.8653L24.2604 21.7608L40 21.7856Z" fill="#00ADEF"/>
</svg>
