<svg width="50" height="50" viewBox="0 0 50 50" fill="none" xmlns="http://www.w3.org/2000/svg">
<path d="M15 11.0557L23.1734 9.98071L23.177 17.5947L15.0074 17.6396L15 11.0557V11.0557ZM23.1695 18.4719L23.1758 26.0926L15.0063 25.0078L15.0059 18.4208L23.1695 18.4719H23.1695ZM24.1603 9.84L34.9975 8.3125V17.4978L24.1603 17.5808V9.84007V9.84ZM35 18.5436L34.9974 27.6875L24.1602 26.2103L24.1451 18.5265L35 18.5436Z" fill="#00ADEF"/>
<path d="M8.87695 35.3623H7.0752L7.06543 34.6055H8.70117C8.97135 34.6055 9.20736 34.5599 9.40918 34.4688C9.611 34.3776 9.76725 34.2474 9.87793 34.0781C9.99186 33.9056 10.0488 33.7005 10.0488 33.4629C10.0488 33.2025 9.99837 32.9909 9.89746 32.8281C9.7998 32.6621 9.64844 32.5417 9.44336 32.4668C9.24154 32.3887 8.98438 32.3496 8.67188 32.3496H7.28516V38.6875H6.34277V31.5781H8.67188C9.03646 31.5781 9.36198 31.6156 9.64844 31.6904C9.9349 31.762 10.1774 31.876 10.376 32.0322C10.5778 32.1852 10.7308 32.3805 10.835 32.6182C10.9391 32.8558 10.9912 33.1406 10.9912 33.4727C10.9912 33.7656 10.9163 34.0309 10.7666 34.2686C10.6169 34.5029 10.4085 34.695 10.1416 34.8447C9.87793 34.9945 9.56868 35.0905 9.21387 35.1328L8.87695 35.3623ZM8.83301 38.6875H6.7041L7.23633 37.9209H8.83301C9.13249 37.9209 9.38639 37.8688 9.59473 37.7646C9.80632 37.6605 9.96745 37.514 10.0781 37.3252C10.1888 37.1331 10.2441 36.9069 10.2441 36.6465C10.2441 36.3828 10.1969 36.1549 10.1025 35.9629C10.0081 35.7708 9.86003 35.6227 9.6582 35.5186C9.45638 35.4144 9.19596 35.3623 8.87695 35.3623H7.53418L7.54395 34.6055H9.37988L9.58008 34.8789C9.92188 34.9082 10.2116 35.0059 10.4492 35.1719C10.6868 35.3346 10.8675 35.543 10.9912 35.7969C11.1182 36.0508 11.1816 36.3307 11.1816 36.6367C11.1816 37.0794 11.084 37.4538 10.8887 37.7598C10.6966 38.0625 10.4248 38.2936 10.0732 38.4531C9.72168 38.6094 9.30827 38.6875 8.83301 38.6875Z" fill="#1C1D1F"/>
<path d="M13.418 33.4043V38.6875H12.5098V33.4043H13.418ZM12.4414 32.0029C12.4414 31.8564 12.4854 31.7327 12.5732 31.6318C12.6644 31.5309 12.7979 31.4805 12.9736 31.4805C13.1462 31.4805 13.278 31.5309 13.3691 31.6318C13.4635 31.7327 13.5107 31.8564 13.5107 32.0029C13.5107 32.1429 13.4635 32.2633 13.3691 32.3643C13.278 32.4619 13.1462 32.5107 12.9736 32.5107C12.7979 32.5107 12.6644 32.4619 12.5732 32.3643C12.4854 32.2633 12.4414 32.1429 12.4414 32.0029Z" fill="#1C1D1F"/>
<path d="M17.0801 33.4043V34.0977H14.2236V33.4043H17.0801ZM15.1904 32.1201H16.0938V37.3789C16.0938 37.5579 16.1214 37.693 16.1768 37.7842C16.2321 37.8753 16.3037 37.9355 16.3916 37.9648C16.4795 37.9941 16.5739 38.0088 16.6748 38.0088C16.7497 38.0088 16.8278 38.0023 16.9092 37.9893C16.9938 37.973 17.0573 37.96 17.0996 37.9502L17.1045 38.6875C17.0329 38.7103 16.9385 38.7314 16.8213 38.751C16.7074 38.7738 16.569 38.7852 16.4062 38.7852C16.1849 38.7852 15.9814 38.7412 15.7959 38.6533C15.6104 38.5654 15.4622 38.4189 15.3516 38.2139C15.2441 38.0055 15.1904 37.7256 15.1904 37.374V32.1201Z" fill="#1C1D1F"/>
<path d="M19.1211 31.1875V38.6875H18.2129V31.1875H19.1211Z" fill="#1C1D1F"/>
<path d="M20.332 36.1045V35.9922C20.332 35.6113 20.3874 35.2581 20.498 34.9326C20.6087 34.6038 20.7682 34.319 20.9766 34.0781C21.1849 33.834 21.4372 33.6452 21.7334 33.5117C22.0296 33.375 22.3617 33.3066 22.7295 33.3066C23.1006 33.3066 23.4342 33.375 23.7305 33.5117C24.0299 33.6452 24.2839 33.834 24.4922 34.0781C24.7038 34.319 24.8649 34.6038 24.9756 34.9326C25.0863 35.2581 25.1416 35.6113 25.1416 35.9922V36.1045C25.1416 36.4854 25.0863 36.8385 24.9756 37.1641C24.8649 37.4896 24.7038 37.7744 24.4922 38.0186C24.2839 38.2594 24.0316 38.4482 23.7354 38.585C23.4424 38.7184 23.1104 38.7852 22.7393 38.7852C22.3682 38.7852 22.0345 38.7184 21.7383 38.585C21.4421 38.4482 21.1882 38.2594 20.9766 38.0186C20.7682 37.7744 20.6087 37.4896 20.498 37.1641C20.3874 36.8385 20.332 36.4854 20.332 36.1045ZM21.2354 35.9922V36.1045C21.2354 36.3682 21.2663 36.6172 21.3281 36.8516C21.39 37.0827 21.4827 37.2878 21.6064 37.4668C21.7334 37.6458 21.8913 37.7874 22.0801 37.8916C22.2689 37.9925 22.4886 38.043 22.7393 38.043C22.9867 38.043 23.2031 37.9925 23.3887 37.8916C23.5775 37.7874 23.7337 37.6458 23.8574 37.4668C23.9811 37.2878 24.0739 37.0827 24.1357 36.8516C24.2008 36.6172 24.2334 36.3682 24.2334 36.1045V35.9922C24.2334 35.7318 24.2008 35.486 24.1357 35.2549C24.0739 35.0205 23.9795 34.8138 23.8525 34.6348C23.7288 34.4525 23.5726 34.3092 23.3838 34.2051C23.1982 34.1009 22.9801 34.0488 22.7295 34.0488C22.4821 34.0488 22.264 34.1009 22.0752 34.2051C21.8896 34.3092 21.7334 34.4525 21.6064 34.6348C21.4827 34.8138 21.39 35.0205 21.3281 35.2549C21.2663 35.486 21.2354 35.7318 21.2354 35.9922Z" fill="#1C1D1F"/>
<path d="M28.3887 38.043C28.6035 38.043 28.8021 37.999 28.9844 37.9111C29.1667 37.8232 29.3164 37.7028 29.4336 37.5498C29.5508 37.3936 29.6175 37.2161 29.6338 37.0176H30.4932C30.4769 37.3301 30.3711 37.6214 30.1758 37.8916C29.9837 38.1585 29.7314 38.375 29.4189 38.541C29.1064 38.7038 28.763 38.7852 28.3887 38.7852C27.9915 38.7852 27.6449 38.7152 27.3486 38.5752C27.0557 38.4352 26.8115 38.2432 26.6162 37.999C26.4242 37.7549 26.2793 37.4749 26.1816 37.1592C26.0872 36.8402 26.04 36.5033 26.04 36.1484V35.9434C26.04 35.5885 26.0872 35.2533 26.1816 34.9375C26.2793 34.6185 26.4242 34.3369 26.6162 34.0928C26.8115 33.8486 27.0557 33.6566 27.3486 33.5166C27.6449 33.3766 27.9915 33.3066 28.3887 33.3066C28.8021 33.3066 29.1634 33.3913 29.4727 33.5605C29.7819 33.7266 30.0244 33.9544 30.2002 34.2441C30.3792 34.5306 30.4769 34.8561 30.4932 35.2207H29.6338C29.6175 35.0026 29.5557 34.8057 29.4482 34.6299C29.3441 34.4541 29.2008 34.3141 29.0186 34.21C28.8395 34.1025 28.6296 34.0488 28.3887 34.0488C28.112 34.0488 27.8792 34.1042 27.6904 34.2148C27.5049 34.3223 27.3568 34.4688 27.2461 34.6543C27.1387 34.8366 27.0605 35.04 27.0117 35.2646C26.9661 35.486 26.9434 35.7122 26.9434 35.9434V36.1484C26.9434 36.3796 26.9661 36.6074 27.0117 36.832C27.0573 37.0566 27.1338 37.2601 27.2412 37.4424C27.3519 37.6247 27.5 37.7712 27.6855 37.8818C27.8743 37.9893 28.1087 38.043 28.3887 38.043Z" fill="#1C1D1F"/>
<path d="M32.417 31.1875V38.6875H31.5088V31.1875H32.417ZM35.6445 33.4043L33.3398 35.8701L32.0508 37.208L31.9775 36.2461L32.9004 35.1426L34.541 33.4043H35.6445ZM34.8193 38.6875L32.9346 36.168L33.4033 35.3623L35.8838 38.6875H34.8193Z" fill="#1C1D1F"/>
<path d="M38.6719 38.7852C38.304 38.7852 37.9704 38.7233 37.6709 38.5996C37.3747 38.4727 37.1191 38.2952 36.9043 38.0674C36.6927 37.8395 36.5299 37.5693 36.416 37.2568C36.3021 36.9443 36.2451 36.6025 36.2451 36.2314V36.0264C36.2451 35.5967 36.3086 35.2142 36.4355 34.8789C36.5625 34.5404 36.735 34.2539 36.9531 34.0195C37.1712 33.7852 37.4186 33.6077 37.6953 33.4873C37.972 33.3669 38.2585 33.3066 38.5547 33.3066C38.9323 33.3066 39.2578 33.3717 39.5312 33.502C39.8079 33.6322 40.0342 33.8145 40.21 34.0488C40.3857 34.2799 40.516 34.5534 40.6006 34.8691C40.6852 35.1816 40.7275 35.5234 40.7275 35.8945V36.2998H36.7822V35.5625H39.8242V35.4941C39.8112 35.2598 39.7624 35.0319 39.6777 34.8105C39.5964 34.5892 39.4661 34.4069 39.2871 34.2637C39.1081 34.1204 38.8639 34.0488 38.5547 34.0488C38.3496 34.0488 38.1608 34.0928 37.9883 34.1807C37.8158 34.2653 37.6676 34.3923 37.5439 34.5615C37.4202 34.7308 37.3242 34.9375 37.2559 35.1816C37.1875 35.4258 37.1533 35.7074 37.1533 36.0264V36.2314C37.1533 36.4821 37.1875 36.7181 37.2559 36.9395C37.3275 37.1576 37.43 37.3496 37.5635 37.5156C37.7002 37.6816 37.8646 37.8118 38.0566 37.9062C38.252 38.0007 38.4733 38.0479 38.7207 38.0479C39.0397 38.0479 39.3099 37.9827 39.5312 37.8525C39.7526 37.7223 39.9463 37.5482 40.1123 37.3301L40.6592 37.7646C40.5452 37.9372 40.4004 38.1016 40.2246 38.2578C40.0488 38.4141 39.8324 38.541 39.5752 38.6387C39.3213 38.7363 39.0202 38.7852 38.6719 38.7852Z" fill="#1C1D1F"/>
<path d="M42.6855 34.2344V38.6875H41.7822V33.4043H42.6611L42.6855 34.2344ZM44.3359 33.375L44.3311 34.2148C44.2562 34.1986 44.1846 34.1888 44.1162 34.1855C44.0511 34.179 43.9762 34.1758 43.8916 34.1758C43.6833 34.1758 43.4993 34.2083 43.3398 34.2734C43.1803 34.3385 43.0452 34.4297 42.9346 34.5469C42.8239 34.6641 42.736 34.804 42.6709 34.9668C42.609 35.1263 42.5684 35.3021 42.5488 35.4941L42.2949 35.6406C42.2949 35.3216 42.3258 35.0221 42.3877 34.7422C42.4528 34.4622 42.5521 34.2148 42.6855 34C42.819 33.7819 42.9883 33.6126 43.1934 33.4922C43.4017 33.3685 43.6491 33.3066 43.9355 33.3066C44.0007 33.3066 44.0755 33.3148 44.1602 33.3311C44.2448 33.3441 44.3034 33.3587 44.3359 33.375Z" fill="#1C1D1F"/>
</svg>
