<svg width="50" height="50" viewBox="0 0 50 50" fill="none" xmlns="http://www.w3.org/2000/svg">
<rect width="50" height="50" fill="#DE5A35"/>
<path d="M37.9569 24.6018C39.5757 23.4224 40.6287 21.5111 40.6287 19.3544C40.6287 15.7715 37.3309 12.8669 33.7494 12.8669H9.31055V18.8839L16.7486 28.197H9.31055V38.4586H35.0563C39.033 38.4586 42.2563 35.234 42.2563 31.2558C42.2563 28.2564 40.5173 25.6856 37.9569 24.6018ZM17.2182 18.8839L30.275 18.886C31.3518 18.8347 32.2846 19.7193 32.2846 20.8017C32.2846 21.892 31.3648 22.768 30.275 22.7173L17.2182 22.7195V18.8839ZM31.9503 32.3649V32.3671H17.2175V28.5322H31.9503V28.5344C33.0272 28.4831 33.96 29.3676 33.96 30.45C33.96 31.5403 33.0402 32.4157 31.9503 32.3649Z" fill="white"/>
</svg>
