<svg width="50" height="50" viewBox="0 0 50 50" fill="none" xmlns="http://www.w3.org/2000/svg">
<path d="M38.4959 7H11.5031C10.6923 7 10.002 7.6904 10.002 8.50117V26.5013C10.002 29.197 11.114 31.8765 12.7263 34.0071C14.9785 36.9833 18.0784 39.3812 21.2884 41.2349C24.4458 43.0583 25.4953 43.0917 28.7107 41.2349C31.9207 39.3812 35.0205 36.9833 37.2728 34.0071C38.8875 31.8733 39.9971 29.2004 39.9971 26.5013V8.50117C39.9971 7.69188 39.3043 7 38.4959 7ZM36.0774 26.668C36.0774 33.187 25.0134 38.7886 25.0134 38.7886V10.8502H36.0774C36.0774 10.8641 36.0774 20.1491 36.0774 26.668Z" fill="#175DDC"/>
</svg>
