<svg width="50" height="50" viewBox="0 0 50 50" fill="none" xmlns="http://www.w3.org/2000/svg">
<path d="M28.8711 14.7802C28.8711 15.105 28.9218 15.439 28.8597 15.7519C28.761 16.2479 28.6081 16.7371 28.4386 17.2153C28.3006 17.6045 28.4465 17.7605 28.8265 17.819C29.0209 17.849 30.0084 17.9658 30.0112 18.27C30.0175 18.8425 28.9523 19.3539 28.5837 19.6478C27.9669 20.1396 27.6786 20.8094 27.5327 21.5453C27.4532 21.9447 27.6087 22.2677 27.9643 22.4881C28.4299 22.7764 28.9095 23.0443 29.3647 23.3462C31.1137 24.5035 31.3365 26.5765 30.9626 28.0314C30.6944 29.0752 29.8924 29.6246 28.768 29.6932C25.2097 29.9111 21.6513 29.8721 18.093 29.6839C17.2087 29.6375 16.1187 29.6476 15.4476 28.9709C14.5154 28.028 14.1712 26.8105 13.8934 25.5743C13.6698 24.5781 13.5003 23.5742 13.689 22.5543C13.8078 21.9107 14.1634 21.7276 14.7872 21.9828C15.0658 22.0964 15.3472 22.2389 15.5752 22.4271C16.593 23.2673 17.7296 23.3224 18.9824 23.0749C19.606 22.9518 21.219 23.3435 21.6487 22.7628C21.8958 22.4261 21.3978 22.023 21.1682 21.87C19.1195 20.5092 18.8583 17.0152 20.2282 15.3034C21.4993 13.7145 23.7489 13.55 25.242 14.9659C25.512 15.222 25.7679 15.4933 26.0239 15.7638C26.3122 16.0681 26.6503 16.1309 27.0024 15.9121C27.5902 15.5468 28.1392 15.1137 28.7121 14.7243C28.7654 14.7429 28.8178 14.7616 28.8711 14.7802Z" fill="black"/>
<path d="M6.28663 33.2797C6.9506 33.718 7.14193 34.1699 6.96545 34.8465C6.8213 35.4002 6.28576 35.8343 5.56151 35.8716C4.72107 35.914 3.87626 35.8818 3 35.8818C3 34.2378 3.0122 32.6379 3.0122 30.8819C3.9732 30.8819 5.32735 30.8232 5.85153 30.9243C6.94183 31.1346 7.12795 32.3708 6.28663 33.2797ZM4.2397 33.8435C4.2397 34.1843 4.2397 34.4989 4.2397 34.8558C4.60575 34.8558 4.9622 34.9126 5.2837 34.8329C5.46017 34.7897 5.69867 34.6125 5.69867 34.3412C5.69867 34.0699 5.59471 33.8655 5.29243 33.8477C4.95171 33.8282 4.60924 33.8435 4.2397 33.8435ZM4.24232 32.8295C4.55945 32.8295 4.86173 32.8803 5.13081 32.81C5.28632 32.7693 5.46891 32.5395 5.48463 32.3801C5.49686 32.2546 5.29243 32.0206 5.14828 31.9884C4.86435 31.9256 4.55508 31.9697 4.24232 31.9697C4.24232 32.2792 4.24232 32.5403 4.24232 32.8295Z" fill="black"/>
<path d="M22.117 30.9048C22.5127 30.9048 22.8858 30.9048 23.3043 30.9048C23.3043 31.5356 23.3043 32.1639 23.3043 32.9338L24.8261 30.9049L26.2144 30.8853C25.6717 31.6982 25.0877 32.4845 24.5475 33.2983L26.2729 35.9038L24.8969 35.8775C24.6743 35.5669 23.667 33.8049 23.3462 33.8961C23.3462 34.5464 23.3462 35.1967 23.3462 35.8775C22.9041 35.8775 22.5232 35.8775 22.1179 35.8775C22.117 34.2132 22.117 32.57 22.117 30.9048Z" fill="black"/>
<path d="M13.1421 34.8788L12.7533 35.875H11.5346C12.1053 34.2106 12.6746 32.546 13.2338 30.8777L14.6317 30.8777C15.1045 32.2462 16.3353 35.8843 16.3353 35.8843C16.1674 35.8843 15.0248 35.8843 15.0248 35.8843L14.7312 34.8796L13.1421 34.8788ZM13.9319 32.1232C13.7536 32.7616 13.6051 33.2958 13.4531 33.8427C13.7947 33.8427 14.0909 33.8427 14.4202 33.8427C14.2595 33.278 14.1101 32.7523 13.9319 32.1232Z" fill="black"/>
<path d="M20.6764 34.2785C20.8956 34.582 21.094 34.8575 21.2897 35.128C20.3916 36.1997 18.4512 36.2981 17.3583 35.3425C16.2697 34.3904 16.2208 32.598 17.2569 31.5789C18.2712 30.5809 20.1784 30.5479 21.1481 31.545C20.9699 31.8298 20.7847 32.124 20.6012 32.4174C19.4236 31.7908 18.653 31.807 18.1411 32.4496C17.6737 33.0363 17.7261 33.9317 18.2581 34.4726C18.8339 35.0559 19.635 34.9974 20.6764 34.2785Z" fill="black"/>
<path d="M7.70281 30.9023C8.11866 30.9023 8.49257 30.9023 8.92852 30.9023C8.92852 32.2199 8.92852 33.5222 8.92852 34.866C9.65189 34.866 10.3141 34.866 11.0017 34.866C11.0017 35.2247 11.0017 35.5392 11.0017 35.8826C9.89302 35.8826 8.81233 35.8826 7.70368 35.8826C7.70281 34.2217 7.70281 32.5785 7.70281 30.9023Z" fill="black"/>
<path d="M43.0948 30.9096C43.2521 30.9096 43.6007 30.9096 43.6007 30.9096L43.6068 33.1711L46.2137 30.9096H47L44.255 33.3871L46.9563 35.8843H46.2137L43.6068 33.5524V35.8843H43.0686L43.0948 30.9096Z" fill="#00ADEE"/>
<path d="M27.5178 30.8819C27.5178 30.8819 29.0563 30.8155 29.7954 30.9198C30.9643 31.0842 31.6399 32.032 31.8013 32.9495C32.0758 34.5103 30.9061 35.8264 29.3787 35.9009C28.7689 35.9306 28.1565 35.9043 27.5449 35.9026L27.5178 32.9402L27.5178 30.8819ZM28.0752 35.3914C29.2275 35.4024 30.4 35.5686 31.0246 34.3604C31.4317 33.5727 31.3959 32.7494 30.8359 32.0593C30.1186 31.175 29.0668 31.3293 28.0752 31.3428C28.0752 32.7155 28.0752 34.0365 28.0752 35.3914Z" fill="#00ADEE"/>
<path d="M41.7002 31.8911C40.8586 31.2352 39.7249 31.1587 38.8781 31.6931C37.9301 32.2911 37.7696 33.5449 38.326 34.3971C39.0621 35.5239 40.5098 35.7088 41.6078 34.8607L41.974 35.2208C41.3575 35.7389 40.5987 35.9703 39.7999 35.8554C38.6792 35.6941 37.849 35.1271 37.5743 34.0338C37.2019 32.5485 37.8961 31.0715 39.7607 30.9004C40.4548 30.8369 41.0889 30.9322 41.7019 31.2678C41.8815 31.3656 42.0203 31.5337 42.0203 31.5337L41.7002 31.8911Z" fill="#00ADEE"/>
<path d="M36.7784 34.131C36.5469 35.9935 34.5638 36.2001 33.5356 35.5477C33.0962 35.2685 32.8341 34.881 32.7598 34.381L32.7597 30.882L33.2508 30.8819C33.2593 32.0368 33.1456 33.2504 33.3469 34.3894C33.484 35.0285 34.037 35.4027 34.8128 35.381C35.5195 35.361 36.137 34.736 36.1824 34.131L36.2403 30.8861H36.7522L36.7784 34.131Z" fill="#00ADEE"/>
</svg>
