<svg width="50" height="50" viewBox="0 0 50 50" fill="none" xmlns="http://www.w3.org/2000/svg">
<path d="M18.9655 14.3304C18.9655 12.9999 18.1508 11.3157 14.7266 11.3157C13.3213 11.3157 9.45392 11.3157 9.45392 11.3157L7.95498 18.2504C7.95498 18.2504 10.8045 18.2504 13.4518 18.2504C17.7434 18.2504 18.9655 16.2188 18.9655 14.3304Z" fill="black"/>
<path d="M33.1688 14.3304C33.1688 12.9999 32.3561 11.3157 28.933 11.3157C27.5267 11.3157 23.6593 11.3157 23.6593 11.3157L22.1614 18.2494C22.1614 18.2494 25.0098 18.2494 27.6551 18.2494C31.9488 18.2504 33.1688 16.2188 33.1688 14.3304Z" fill="black"/>
<path d="M17.0633 24.7674C17.0633 23.4369 16.2485 21.7484 12.8243 21.7484C11.419 21.7484 7.55168 21.7484 7.55168 21.7484L6.05273 28.6874C6.05273 28.6874 8.90221 28.6874 11.5475 28.6874C15.8401 28.6874 17.0633 26.6506 17.0633 24.7674Z" fill="black"/>
<path d="M31.2666 24.7674C31.2666 23.4369 30.4508 21.7484 27.0298 21.7484C25.6224 21.7484 21.7571 21.7484 21.7571 21.7484L20.2561 28.6874C20.2561 28.6874 23.1055 28.6874 25.7529 28.6874C30.0466 28.6874 31.2666 26.6506 31.2666 24.7674Z" fill="black"/>
<path d="M46.1263 20.5348C46.1263 19.2032 45.3105 17.5158 41.8894 17.5158C40.4821 17.5158 36.6168 17.5158 36.6168 17.5158L35.1157 24.4537C35.1157 24.4537 37.9673 24.4537 40.6105 24.4537C44.9042 24.4537 46.1263 22.4221 46.1263 20.5348Z" fill="black"/>
<path d="M44.078 31.4007C44.078 30.0691 43.2643 28.386 39.8412 28.386C38.4359 28.386 34.5685 28.386 34.5685 28.386L33.0696 35.3207C33.0696 35.3207 35.917 35.3207 38.5643 35.3207C42.857 35.3207 44.078 33.2839 44.078 31.4007Z" fill="black"/>
<path d="M29.2255 35.6346C29.2255 34.2978 28.4129 32.6104 24.9918 32.6104C23.5834 32.6104 19.7161 32.6104 19.7161 32.6104L18.2171 39.5483C18.2171 39.5483 21.0666 39.5483 23.7118 39.5483C28.0055 39.5493 29.2255 37.5178 29.2255 35.6346Z" fill="black"/>
</svg>
