<svg width="50" height="50" viewBox="0 0 50 50" fill="none" xmlns="http://www.w3.org/2000/svg">
<path d="M40.067 20.2657C39.9782 20.1597 39.8631 20.0783 39.733 20.0297C39.0185 19.6892 38.1392 19.7619 37.3799 19.8755C35.4099 20.1446 33.4088 20.158 31.4302 19.9615C28.9496 19.711 26.5137 19.1348 24.1862 18.2479C20.684 16.9196 17.5396 14.9996 14.685 12.6009C13.0502 11.2228 11.5353 9.71076 10.1563 8.08068C10.0751 7.97696 9.94852 7.91136 9.81633 7.90452C8.57523 7.78449 7.71383 6.55289 8.09167 5.36528C8.26342 4.82546 8.67862 4.37333 9.20455 4.15343C10.0076 3.81767 10.9705 4.06201 11.5122 4.73945C11.8669 5.18295 12.0119 5.77735 11.901 6.33261C11.8733 6.44396 11.9039 6.56642 11.9809 6.65205C14.0893 9.28173 16.445 11.6628 19.1713 13.6688C20.6645 14.7673 25.0356 18.2012 27.017 17.7313C26.9315 17.0744 24.9266 15.63 24.4564 15.0409C23.9928 14.4387 23.0033 14.7645 23.0245 13.6013C23.0352 12.9994 23.4974 12.4842 24.091 12.3969C24.398 12.3523 24.7109 12.4212 24.97 12.5906C25.229 12.7601 25.4162 13.0181 25.4958 13.3156C25.5887 13.6142 25.374 14.0132 25.5918 14.2579C26.6336 15.7338 27.8671 17.0669 29.2605 18.2227C29.437 18.3806 29.6562 18.484 29.8911 18.5202C30.2403 18.5668 30.8024 18.8236 31.1455 18.7014C30.5688 17.0946 28.1625 15.3593 27.2133 13.7884C26.4346 12.4714 25.7802 11.0857 25.2587 9.64922C25.1114 9.1625 24.4607 9.04992 24.248 8.54768C24.1171 8.23862 24.1018 7.89338 24.2049 7.57412C24.4105 6.92597 25.07 6.49022 25.7286 6.56861C26.429 6.64241 26.9942 7.22818 27.0289 7.93402C27.0534 8.32367 26.6454 8.74664 26.7892 9.09799C27.6959 12.0355 29.195 14.7597 31.1956 17.105C31.6919 17.6891 32.2197 18.2446 32.7636 18.7848C32.8586 18.8824 32.9888 18.9388 33.1256 18.9416C34.7433 19.0402 36.3402 18.9329 37.9509 18.8051C38.5078 18.7509 39.0696 18.7742 39.62 18.8742C40.2081 18.9894 40.7487 19.2748 41.1735 19.6943C41.494 20.0119 41.7719 20.3691 42.0004 20.7571C41.9076 20.9519 39.9878 21.2762 39.6387 21.428C38.5773 21.8899 37.5915 22.4841 36.632 23.123C33.6212 25.1717 30.877 27.5814 28.4617 30.2973C28.3104 30.4488 28.2288 30.6635 28.2416 30.8763C28.2608 31.4236 27.8429 31.904 27.3017 31.972C26.7 32.0411 26.1586 31.6711 26.0465 31.1157C25.9233 30.5619 26.2584 29.9941 26.7977 29.8245C27.0643 29.7093 27.2608 29.7766 27.498 29.5387C30.1682 26.8526 33.0363 24.3974 36.2045 22.3012C37.4327 21.4877 38.8401 21.0265 40.067 20.2657Z" fill="#3FCD78"/>
<path d="M36.3176 21.1342C34.8893 22.8522 31.9725 24.0831 30.1291 25.3585C27.317 27.3038 24.5831 29.3486 22.0115 31.6015C21.6265 31.9386 21.2466 32.285 20.8642 32.6197C20.7693 32.7014 20.7161 32.8264 20.7231 32.9509C20.7068 33.4542 20.3056 33.9069 19.8044 33.9876C19.2316 34.0668 18.726 33.7626 18.5552 33.2358C18.3274 32.5328 18.8365 31.8029 19.575 31.8029C19.7997 31.8095 20.018 31.7281 20.1826 31.5762C24.0162 28.3624 28.0937 25.4782 32.2979 22.7668C32.5859 22.5805 32.8749 22.3951 33.1596 22.2122C33.0058 21.8589 27.8482 21.8203 27.1674 21.725C24.3078 21.3452 21.4961 20.6704 18.7778 19.7114C16.9384 19.0643 15.1667 18.2415 13.4876 17.2545C13.3719 17.183 13.2337 17.156 13.0992 17.1787C12.1721 17.3026 11.3996 16.7876 11.1905 15.9245C10.9832 15.047 11.5469 14.1483 12.4194 13.9354C13.3202 13.7213 14.2601 14.2776 14.4301 15.171C14.4879 15.4736 14.6323 15.6422 14.8686 15.8023C17.0501 17.2739 19.4178 18.3663 21.9086 19.2074C24.0432 19.9224 26.2376 20.4478 28.466 20.7776C29.5971 20.9462 30.735 21.0634 31.8789 21.1316C33.0882 21.2041 34.2967 21.1965 35.506 21.1679C35.7677 21.1611 36.0269 21.1013 36.3176 21.1342Z" fill="#3FCD78"/>
<path d="M26.7285 23.8416C24.4023 23.8416 22.0961 23.739 19.7938 23.368C19.6111 23.3376 19.4539 23.3384 19.2839 23.4733C18.8271 23.8259 18.1523 23.8614 17.6604 23.5588C16.5817 22.8952 16.896 21.1667 18.1655 20.9354C18.7362 20.8314 19.3529 21.1036 19.657 21.5938C19.7519 21.7403 19.7856 21.9237 19.9868 21.9511C20.9921 22.1964 22.0068 22.3886 23.0309 22.5411C25.5167 22.9049 28.0079 22.9229 30.5137 22.9229C29.0127 24.6536 25.1533 25.7645 23.1328 26.9214C22.0145 27.562 20.906 28.2191 19.8074 28.8928C19.2716 29.1452 19.4431 29.937 18.6604 30.0686C18.2248 30.1418 17.7666 29.9351 17.5297 29.5652C17.2925 29.195 17.2988 28.6952 17.5508 28.3347C18.041 27.6335 18.6963 28.1745 19.2457 27.814C21.368 26.639 25.0866 25.5927 26.7285 23.8416Z" fill="#3FCD78"/>
<path d="M22.1201 44.9209L24.2148 38.8906H25.2354L22.6035 46H21.876L22.1201 44.9209ZM20.1621 38.8906L22.2373 44.9209L22.4961 46H21.7686L19.1416 38.8906H20.1621Z" fill="black"/>
<path d="M30.6162 45.2578V46H25.9629V45.3506L28.292 42.7578C28.9002 42.0804 29.7378 41.1289 29.2393 40.165C29.0505 39.7809 28.6729 39.5352 28.1455 39.5352C27.5197 39.5352 27.096 39.7883 26.8857 40.2285C26.7816 40.4466 26.7295 40.6973 26.7295 40.9805H25.8262C25.8262 40.5801 25.9141 40.2139 26.0898 39.8818C26.4421 39.2164 27.1384 38.793 28.1455 38.793C29.0421 38.793 29.691 39.1222 30.0303 39.6963C30.783 40.9319 29.7785 42.2965 28.9561 43.1924L27.0518 45.2578H30.6162Z" fill="black"/>
</svg>
