<svg width="50" height="50" viewBox="0 0 50 50" fill="none" xmlns="http://www.w3.org/2000/svg">
<rect width="50" height="50" fill="#3FCD78"/>
<path d="M38.3509 20.5533C38.2751 20.4649 38.1769 20.3971 38.066 20.3566C37.4565 20.0728 36.7064 20.1334 36.0588 20.228C34.3784 20.4523 32.6716 20.4635 30.9838 20.2997C28.868 20.0909 26.7901 19.6107 24.8048 18.8716C21.8175 17.7645 19.1354 16.1643 16.7005 14.1651C15.3061 13.0165 14.0139 11.7563 12.8376 10.3977C12.7684 10.3113 12.6604 10.2566 12.5476 10.2509C11.489 10.1509 10.7542 9.12442 11.0765 8.13463C11.223 7.68472 11.5772 7.30789 12.0258 7.12462C12.7108 6.84479 13.5321 7.04843 13.9942 7.61303C14.2967 7.98267 14.4204 8.47806 14.3258 8.94083C14.3022 9.03364 14.3283 9.13571 14.3939 9.20707C16.1924 11.3988 18.2018 13.3832 20.5272 15.0551C21.8009 15.9707 25.5294 18.8326 27.2194 18.4409C27.1465 17.8935 25.4363 16.6897 25.0353 16.1987C24.6399 15.6968 23.7958 15.9683 23.8139 14.9989C23.8231 14.4972 24.2173 14.0678 24.7236 13.9951C24.9855 13.9578 25.2524 14.0153 25.4734 14.1565C25.6944 14.2977 25.854 14.5128 25.9219 14.7607C26.0011 15.0096 25.818 15.3421 26.0038 15.5461C26.8924 16.7761 27.9446 17.8872 29.1331 18.8505C29.2837 18.9821 29.4706 19.0683 29.671 19.0985C29.9689 19.1373 30.4483 19.3513 30.741 19.2495C30.2491 17.9103 28.1966 16.4641 27.3869 15.1548C26.7226 14.0571 26.1645 12.9023 25.7196 11.705C25.594 11.2994 25.039 11.2055 24.8576 10.787C24.7459 10.5294 24.7329 10.2416 24.8208 9.97556C24.9962 9.43537 25.5587 9.0722 26.1205 9.13753C26.7179 9.19903 27.2 9.68724 27.2296 10.2755C27.2505 10.6003 26.9025 10.9528 27.0252 11.2456C27.7985 13.6939 29.0773 15.9643 30.7837 17.919C31.2071 18.4058 31.6572 18.8687 32.1211 19.319C32.2023 19.4004 32.3133 19.4473 32.43 19.4497C33.8099 19.5318 35.172 19.4424 36.5459 19.3359C37.0209 19.2907 37.5001 19.3101 37.9696 19.3935C38.4712 19.4895 38.9323 19.7274 39.2947 20.077C39.5681 20.3417 39.8051 20.6394 40 20.9628C39.9208 21.1251 38.2833 21.3954 37.9855 21.522C37.0801 21.9069 36.2393 22.4021 35.4209 22.9346C32.8527 24.6421 30.5119 26.6505 28.4517 28.914C28.3227 29.0402 28.2531 29.2191 28.264 29.3966C28.2804 29.8527 27.924 30.253 27.4623 30.3098C26.949 30.3674 26.4873 30.059 26.3916 29.5961C26.2866 29.1345 26.5724 28.6612 27.0324 28.5199C27.2598 28.4239 27.4274 28.48 27.6297 28.2818C29.9073 26.043 32.3538 23.9967 35.0562 22.2497C36.1039 21.5717 37.3043 21.1873 38.3509 20.5533Z" fill="white"/>
<path d="M35.1527 21.2771C33.9344 22.709 31.4464 23.7348 29.874 24.7978C27.4753 26.4191 25.1434 28.1233 22.9498 30.0009C22.6215 30.2819 22.2974 30.5706 21.9712 30.8495C21.8903 30.9177 21.8449 31.0219 21.8509 31.1256C21.837 31.5451 21.4948 31.9224 21.0673 31.9896C20.5787 32.0556 20.1474 31.8021 20.0017 31.363C19.8074 30.7772 20.2416 30.1688 20.8716 30.1688C21.0632 30.1743 21.2495 30.1064 21.3899 29.9799C24.6598 27.3014 28.1379 24.8975 31.7239 22.6377C31.9697 22.4825 32.2161 22.3279 32.459 22.1755C32.3278 21.8811 27.9284 21.8489 27.3477 21.7695C24.9086 21.453 22.5102 20.8905 20.1916 20.0913C18.6226 19.5519 17.1113 18.8661 15.6792 18.0436C15.5804 17.984 15.4626 17.9615 15.3479 17.9804C14.557 18.0837 13.8981 17.6544 13.7198 16.9351C13.5429 16.2038 14.0238 15.4547 14.768 15.2773C15.5364 15.0989 16.3381 15.5625 16.4831 16.3071C16.5324 16.5593 16.6556 16.6998 16.8571 16.8333C18.7179 18.0598 20.7375 18.9702 22.8621 19.6712C24.6829 20.2671 26.5546 20.705 28.4554 20.9799C29.4202 21.1204 30.3908 21.218 31.3665 21.2749C32.3981 21.3354 33.4289 21.329 34.4604 21.3052C34.6837 21.2995 34.9047 21.2497 35.1527 21.2771Z" fill="white"/>
<path d="M26.9734 23.5336C24.9892 23.5336 23.022 23.448 21.0582 23.1388C20.9024 23.1135 20.7683 23.1142 20.6233 23.2266C20.2336 23.5204 19.6581 23.55 19.2385 23.2978C18.3184 22.7448 18.5865 21.3041 19.6693 21.1114C20.1561 21.0247 20.6822 21.2516 20.9415 21.6601C21.0224 21.7822 21.0512 21.9351 21.2228 21.9579C22.0803 22.1624 22.9459 22.3225 23.8194 22.4497C25.9397 22.7529 28.0647 22.7679 30.202 22.7679C28.9217 24.2102 25.6298 25.1362 23.9064 26.1004C22.9524 26.6342 22.0069 27.1819 21.0698 27.7434C20.6127 27.9538 20.7591 28.6137 20.0915 28.7234C19.7199 28.7844 19.329 28.6121 19.1269 28.3039C18.9246 27.9952 18.9301 27.5787 19.145 27.2783C19.5631 26.6938 20.122 27.1447 20.5907 26.8443C22.401 25.865 25.5729 24.9929 26.9734 23.5336Z" fill="white"/>
<path d="M22.8553 41.1015L24.8634 36.0812H25.8417L23.3187 41.9999H22.6213L22.8553 41.1015ZM20.9783 36.0812L22.9677 41.1015L23.2157 41.9999H22.5183L20 36.0812H20.9783Z" fill="black"/>
<path d="M31 41.382V41.9999H26.5391V41.4592L28.7719 39.3007C29.355 38.7368 30.1579 37.9446 29.68 37.1422C29.499 36.8224 29.137 36.6178 28.6315 36.6178C28.0316 36.6178 27.6254 36.8285 27.4238 37.195C27.324 37.3766 27.274 37.5852 27.274 37.821H26.4081C26.4081 37.4877 26.4923 37.1828 26.6609 36.9064C26.9986 36.3524 27.6661 35.9999 28.6315 35.9999C29.491 35.9999 30.1131 36.274 30.4383 36.7519C31.1599 37.7806 30.197 38.9166 29.4085 39.6625L27.583 41.382H31Z" fill="black"/>
</svg>
