<svg width="50" height="50" viewBox="0 0 50 50" fill="none" xmlns="http://www.w3.org/2000/svg">
<path d="M34.7218 9.54529V39.0422C34.0752 40.9796 32.8309 41.7061 30.9444 41.6649C26.7694 41.5705 22.5921 41.6649 18.4148 41.6116C16.3778 41.5628 15.2742 39.8521 15.2774 37.933C15.2951 28.9515 15.2951 19.9693 15.2774 10.9862C15.2774 8.64925 15.844 7.77015 17.8771 6.94434H32.3198C33.4886 7.42384 34.3263 8.24481 34.7218 9.54529ZM26.1406 24.967C26.1406 28.2678 26.1552 31.5688 26.125 34.8695C26.125 35.1649 25.8828 35.4556 25.7539 35.7486C25.5346 35.3016 25.2996 34.8649 25.3762 34.3561C25.3762 26.9294 25.3718 19.5027 25.3629 12.076C25.3629 11.6789 25.1807 11.2841 25.0829 10.8869C24.7029 11.0226 24.2719 11.0783 23.9541 11.3132C22.6609 12.2625 21.4233 13.3038 20.1212 14.2411C19.4991 14.6891 19.268 15.2098 19.2702 16.0162C19.2991 22.6639 19.2858 29.3116 19.288 35.9593C19.288 36.7823 19.3898 37.8108 20.459 37.8143C23.6853 37.8289 26.9138 37.8143 30.1423 37.8264C30.5867 37.8264 30.74 37.6303 30.7378 37.1556C30.7267 33.9177 30.7378 30.6799 30.7156 27.442C30.7156 27.1538 30.5223 26.6985 30.3156 26.6089C28.9958 26.035 27.6515 25.5458 26.1406 24.967Z" fill="#59595B"/>
<path d="M26.1406 24.967C27.6515 25.5458 28.9961 26.035 30.3115 26.6017C30.5181 26.6913 30.7092 27.1466 30.7114 27.4347C30.7381 30.6726 30.7225 33.9105 30.7336 37.1484C30.7336 37.6327 30.587 37.8216 30.1382 37.8192C26.9096 37.8192 23.6811 37.8192 20.4548 37.8071C19.3833 37.8071 19.2839 36.7748 19.2839 35.952C19.2839 29.3043 19.2839 22.6566 19.2661 16.0089C19.2661 15.1904 19.4883 14.6818 20.1171 14.2338C21.4192 13.2966 22.6568 12.2552 23.95 11.3059C24.2677 11.0637 24.6988 11.0153 25.0787 10.8797C25.1765 11.2769 25.3587 11.6716 25.3587 12.0688C25.3765 19.4955 25.3809 26.9221 25.372 34.3488C25.2955 34.8576 25.5304 35.2943 25.7498 35.7413C25.8786 35.4483 26.1164 35.1577 26.1208 34.8622C26.1511 31.5639 26.1285 28.2654 26.1406 24.967Z" fill="#FCFCFC"/>
</svg>
