<svg width="50" height="50" viewBox="0 0 50 50" fill="none" xmlns="http://www.w3.org/2000/svg">
<path d="M38 19C38 26.1797 32.1797 32 25 32C17.8203 32 12 26.1797 12 19C12 11.8203 17.8203 6 25 6C32.1797 6 38 11.8203 38 19Z" fill="#010101"/>
<path d="M23.3243 13.25H25.5185C27.5239 13.25 28.4077 13.952 28.4077 15.3782C28.4077 16.6175 27.5239 17.459 25.75 17.459H23.3243V13.25ZM20.6667 27.2727H26.0445C28.8707 27.2727 31.697 26.1542 31.697 22.5536C31.697 20.4254 30.3502 18.7916 28.4733 18.5552V18.506C30.0089 17.9963 31.068 16.7573 31.068 14.8871C31.068 11.8715 28.7449 10.7273 26.4877 10.7273H20.6667V27.2727ZM23.3243 19.9817H25.8759C28.027 19.9817 29.043 20.5902 29.043 22.3209C29.043 24.4913 27.1403 24.75 25.7699 24.75H23.3243V19.9817Z" fill="white"/>
<path d="M34.1191 36.793C35.7562 36.793 36.5662 37.7161 36.7412 38.9707H35.7988C35.6527 38.083 34.9953 37.5645 34.1191 37.5645C33.1328 37.5645 32.5518 38.1211 32.3174 39.0781C32.1908 39.6173 32.2051 40.1691 32.2051 40.7188C32.2051 41.1289 32.2523 41.4951 32.3467 41.8174C32.639 42.7819 33.327 43.3311 34.2314 43.3311C35.2444 43.3311 35.62 43.0262 35.8037 42.8135V41.2217H34.1582V40.46H36.7412V43.0625C36.1943 43.8727 35.1439 44.0977 34.2266 44.0977C32.9313 44.0977 31.9126 43.3959 31.4727 42.1445C31.3294 41.7246 31.2578 41.2493 31.2578 40.7188C31.2578 40.0543 31.2522 39.3902 31.4434 38.7461C31.8263 37.4892 32.7482 36.793 34.1191 36.793Z" fill="black"/>
<path fill-rule="evenodd" clip-rule="evenodd" d="M15.1543 36.8906C16.6113 36.8906 17.4736 37.4577 17.4736 38.7852C17.4736 39.4383 17.0726 39.9761 16.4229 40.2568C17.1858 40.4594 17.6641 41.1662 17.6641 41.9492C17.6641 43.2649 16.7505 44 15.3154 44H12.8252V36.8906H15.1543ZM13.7676 40.6748V43.2334H15.3154C16.2253 43.2334 16.7266 42.7304 16.7266 41.959C16.7266 41.168 16.3164 40.6748 15.3594 40.6748H13.7676ZM13.7676 39.918H15.1836C16.0002 39.918 16.5312 39.4779 16.5312 38.7754C16.5312 37.9934 16.0955 37.6621 15.1543 37.6621H13.7676V39.918Z" fill="black"/>
<path fill-rule="evenodd" clip-rule="evenodd" d="M21.6777 36.8906C23.2851 36.8906 24.1729 37.7926 24.1729 39.0586C24.1729 40.4243 23.2926 41.2119 21.6777 41.2119H19.998V44H19.0557V36.8906H21.6777ZM19.998 40.4453H21.6777C22.7836 40.4453 23.2305 39.8658 23.2305 39.0684C23.2305 38.3374 22.7789 37.6621 21.6777 37.6621H19.998V40.4453Z" fill="black"/>
<path d="M26.3066 40.3965L29.4658 36.8906H30.5986L27.8027 40.0273L30.8135 44H29.6904L27.1777 40.6904L26.3066 41.5947V44H25.3643V36.8906H26.3066V40.3965Z" fill="black"/>
</svg>
