<svg width="50" height="50" viewBox="0 0 50 50" fill="none" xmlns="http://www.w3.org/2000/svg">
<path d="M39.5818 25C39.5818 32.732 33.2115 39 25.3535 39C17.4954 39 11.1251 32.732 11.1251 25C11.1251 17.268 17.4954 11 25.3535 11C33.2115 11 39.5818 17.268 39.5818 25Z" fill="url(#paint0_linear_11075_11650)"/>
<path d="M38.2416 30.9394C39.1013 29.1363 39.5818 27.1234 39.5818 25C39.5818 24.1307 39.5012 23.28 39.3472 22.4545L11.1831 23.7273C11.1448 24.1465 11.1251 24.571 11.1251 25C11.1251 27.1234 11.6056 29.1363 12.4653 30.9394H38.2416Z" fill="url(#paint1_linear_11075_11650)"/>
<path d="M17.161 36.4481H33.5451C35.0221 35.423 36.2919 34.1281 37.2804 32.6364H13.4258C14.4143 34.1281 15.6841 35.423 17.161 36.4481Z" fill="url(#paint2_linear_11075_11650)"/>
<path d="M26.6469 31.3636C31.3897 31.3636 39.5818 30.5152 39.5818 30.5152C39.5818 30.5152 33.3632 23.6131 30.5274 22.8788H11.5563V25H15.0056C15.0056 25 21.9042 31.3636 26.6469 31.3636Z" fill="#470A1E"/>
<path d="M23.1976 15.2424H4.22656L13.7121 24.5758H18.886C18.886 24.5758 22.8422 29.1754 26.6469 30.5152C30.4517 31.8549 37.426 31.3636 37.426 31.3636L42.5999 28.8182C41.9006 26.6031 38.7194 23.303 38.7194 23.303L33.9767 22.0303L33.5455 21.1818H30.5274L23.1976 15.2424Z" fill="#BF7600"/>
<path d="M23.1976 15.2424H5.08888L14.5744 23.7273H19.7484C19.7484 23.7273 23.7045 28.3269 27.5093 29.6667C31.314 31.0065 38.2883 30.5152 38.2883 30.5152L41.7376 32.6364L44.7557 33.9091L44.1374 28.4139C43.4381 26.1988 38.7194 23.303 38.7194 23.303L33.9767 22.0303L33.5455 21.1818H30.5274L23.1976 15.2424Z" fill="#FF9D00"/>
<path d="M38.2961 22.4544C36.3638 21.8734 35.5629 21.4302 33.9845 22.0304C32.4061 22.6307 32.8672 26.5294 33.1145 28.8182C33.3619 31.1069 37.4337 31.3638 37.4337 31.3638L40.8829 33.485L44.7635 34.3333C44.7635 34.3333 45.5 30.5152 44.5 28C43.5 25.4848 40.2284 23.0355 38.2961 22.4544Z" fill="url(#paint3_linear_11075_11650)"/>
<path d="M37.8571 31.7879H42.1687C42.1687 31.7879 42.8332 33.3334 42.1687 34.3333L40.9897 35.8801C40.9724 35.9441 40.9352 35.9949 40.8752 36.0303L40.9897 35.8801C41.2224 35.0202 37.8571 31.7879 37.8571 31.7879Z" fill="#B64928"/>
<path d="M45.1869 31.3636L40.4441 31.7879C40.4441 31.7879 41.3104 35.0946 40.4441 35.6061C39.5778 36.1175 37.8571 36.4545 37.8571 36.4545H41.7376C41.7376 36.4545 44.0912 35.7575 44.7557 34.7576C45.4202 33.7576 45.1869 31.3636 45.1869 31.3636Z" fill="#FA5A28"/>
<path d="M37.8548 28.4139C36.0401 26.9521 35.2702 22.8788 35.2702 22.8788C35.2702 22.8788 38.1389 23.5102 40.1917 24.8901C42.2444 26.27 44.7557 28.81 43.8168 30.0392C43.8168 30.0392 39.6696 29.8756 37.8548 28.4139Z" fill="#FBDD1D"/>
<path d="M41.3063 29.0539C40.5302 28.4175 40.7885 26.5084 40.7885 26.5084C40.7885 26.5084 40.6596 25.9781 41.3064 26.5084C42.0825 27.1448 42.9443 29.0539 42.9443 29.0539C42.9443 29.0539 41.953 29.5842 41.3063 29.0539Z" fill="black"/>
<path d="M22.3353 17.7879H5.95121L14.1433 25.4242H26.6469L22.3353 17.7879Z" fill="#B06800"/>
<path d="M22.3353 16.9394H5.95121L14.1433 24.5758H26.6469L22.3353 16.9394Z" fill="#E08500"/>
<path d="M8.53817 19.4848H18.886V20.3333H8.53817V19.4848Z" fill="#9A4B1F"/>
<path d="M11.9875 22.0303H22.3353V22.8788H11.9875V22.0303Z" fill="#994920"/>
<path d="M22.9214 15.6667L23.0402 15.7636L30.2503 21.6061H32.252C32.4902 21.6061 32.6832 21.796 32.6832 22.0303C32.6832 22.2646 32.4902 22.4545 32.252 22.4545H29.9413L29.8225 22.3576L22.6124 16.5152H21.0418C20.8037 16.5152 20.6107 16.3252 20.6107 16.0909C20.6107 15.8566 20.8037 15.6667 21.0418 15.6667H22.9214Z" fill="#FEDFB0"/>
<path d="M43.8087 31.7963C44.0421 31.7501 44.2695 31.8989 44.3165 32.1286V32.1302L44.3173 32.1352C44.3181 32.1388 44.3195 32.1437 44.3207 32.1501C44.3233 32.1633 44.3272 32.1824 44.3317 32.2064C44.3406 32.2544 44.3527 32.3228 44.3662 32.4061C44.3932 32.5724 44.426 32.8015 44.4479 33.0483C44.4696 33.293 44.4815 33.5667 44.4639 33.8197C44.4474 34.056 44.4014 34.3447 44.255 34.5655C44.0258 34.9113 43.6166 35.165 43.327 35.3187C43.1724 35.4007 43.0299 35.4653 42.9262 35.5092C42.8742 35.5313 42.8312 35.5487 42.8007 35.5606C42.7856 35.5665 42.7732 35.5714 42.7645 35.5747C42.7604 35.5762 42.7569 35.5771 42.7544 35.578L42.751 35.5797H42.7493C42.5259 35.6606 42.2775 35.5485 42.1952 35.3286C42.113 35.1087 42.2286 34.8643 42.4521 34.7834C42.4521 34.7834 42.4554 34.7827 42.458 34.7817C42.4634 34.7797 42.4719 34.7762 42.4832 34.7718C42.5066 34.7627 42.5419 34.7487 42.5851 34.7304C42.6721 34.6935 42.7906 34.6395 42.9178 34.5721C43.192 34.4266 43.4301 34.2559 43.5325 34.1015C43.552 34.0719 43.5887 33.9698 43.6032 33.7617C43.6166 33.5702 43.6087 33.345 43.5889 33.122C43.5694 32.9013 43.5397 32.6936 43.5148 32.5404C43.5024 32.4641 43.4916 32.4015 43.4837 32.3589C43.4797 32.3378 43.4765 32.3216 43.4744 32.3109C43.4734 32.3057 43.4724 32.3018 43.4719 32.2993L43.471 32.2959C43.4241 32.0663 43.5753 31.8425 43.8087 31.7963Z" fill="#FB7A51"/>
<path d="M40.4441 26.4998H41.3064V27.3482H40.4441V26.4998Z" fill="#737373"/>
<path d="M36.2125 23.7347H36.215C36.215 23.7347 36.2178 23.736 36.22 23.7364C36.2249 23.7373 36.2327 23.7388 36.2419 23.7405C36.2604 23.744 36.2871 23.7488 36.3211 23.7554C36.3899 23.7688 36.489 23.788 36.6091 23.8126C36.849 23.8618 37.1757 23.9321 37.5219 24.0148C37.8671 24.0972 38.2374 24.1931 38.562 24.2957C38.8715 24.3935 39.1891 24.5117 39.394 24.6495C39.7318 24.877 40.0828 25.2261 40.3363 25.4988C40.4663 25.6386 40.5772 25.7657 40.6554 25.8576C40.6945 25.9034 40.7256 25.9408 40.7472 25.967C40.7581 25.9801 40.7666 25.9904 40.7725 25.9976C40.7754 26.0011 40.7776 26.0039 40.7792 26.0059L40.7818 26.0084C40.9295 26.1922 40.8986 26.4605 40.7119 26.6058C40.5251 26.7512 40.2533 26.7192 40.1055 26.5354L40.1047 26.5346C40.1047 26.5346 40.102 26.5308 40.0997 26.5279C40.0949 26.5221 40.0873 26.513 40.0778 26.5014C40.0586 26.4782 40.0303 26.4441 39.9944 26.402C39.9222 26.3172 39.8201 26.2001 39.7005 26.0714C39.4548 25.807 39.1588 25.5199 38.9072 25.3505C38.8172 25.2899 38.6099 25.202 38.2984 25.1036C38.002 25.0099 37.6544 24.9193 37.319 24.8392C36.9845 24.7594 36.667 24.6916 36.4331 24.6437C36.3164 24.6198 36.2206 24.601 36.1544 24.5882C36.1215 24.5818 36.0959 24.5766 36.0786 24.5733C36.0699 24.5716 36.0627 24.5699 36.0584 24.5691L36.0541 24.5683H36.0525C35.8185 24.5248 35.6647 24.303 35.7089 24.0728C35.7531 23.8426 35.9785 23.6912 36.2125 23.7347Z" fill="#FEEE82"/>
<defs>
<linearGradient id="paint0_linear_11075_11650" x1="37.772" y1="13.9697" x2="22.9277" y2="42.0679" gradientUnits="userSpaceOnUse">
<stop stop-color="#8F1F70"/>
<stop offset="1" stop-color="#5C0E36"/>
</linearGradient>
<linearGradient id="paint1_linear_11075_11650" x1="4.22656" y1="25" x2="45.2266" y2="25" gradientUnits="userSpaceOnUse">
<stop offset="0.201923" stop-color="#580D36"/>
<stop offset="0.509615" stop-color="#A41638"/>
</linearGradient>
<linearGradient id="paint2_linear_11075_11650" x1="4.22656" y1="25" x2="45.2266" y2="25" gradientUnits="userSpaceOnUse">
<stop offset="0.403846" stop-color="#72174A"/>
<stop offset="1" stop-color="#C4422C"/>
</linearGradient>
<linearGradient id="paint3_linear_11075_11650" x1="34.0301" y1="16.3538" x2="28.5312" y2="27.1941" gradientUnits="userSpaceOnUse">
<stop stop-color="#BD6F6E"/>
<stop offset="1" stop-color="#8E0000"/>
</linearGradient>
</defs>
</svg>
