<svg width="50" height="50" viewBox="0 0 50 50" fill="none" xmlns="http://www.w3.org/2000/svg">
<rect width="50" height="50" fill="#FB0000"/>
<path d="M25.5172 39.6632C25.4001 39.6632 25.3322 39.6965 25.3002 39.815C25.241 40.0359 24.9681 40.0648 24.7731 40.0559C24.3777 40.0386 24.1381 39.7005 24.2566 39.3198C24.4398 38.7366 23.3944 37.6085 23.1583 37.11C23.1077 37.0021 23.0225 36.9848 22.9147 36.9782C22.5952 36.9609 22.3356 36.652 22.3583 36.3365C22.3716 36.1568 22.4914 36.0543 22.6232 35.9785C22.7856 35.8866 22.8441 35.7482 22.8535 35.5844C22.9067 34.7005 23.0904 33.8339 23.2142 32.9606C23.2462 32.733 23.2488 32.5253 23.0212 32.3589C22.8255 32.2165 22.8987 31.7998 23.117 31.6414C23.3268 31.4883 23.5066 31.5045 23.5976 31.2114C23.7081 30.8547 23.9131 30.5338 24.0116 30.1691C24.0568 30.0025 24.6121 28.8613 24.5414 28.7514C24.4056 28.533 24.3843 28.2468 24.1128 28.1097C23.2063 27.6512 22.2798 27.2027 21.3479 26.7971C21.0151 26.6507 20.838 26.7705 20.7821 27.122C20.6836 27.7436 20.6317 28.372 20.4839 28.9856C20.4626 29.0762 20.4919 29.1321 20.5478 29.192C20.6849 29.3397 20.7675 29.5075 20.7435 29.7178C20.7102 30.016 20.5758 30.1717 20.2776 30.2117C20.1365 30.2303 20.0646 30.3009 20.0047 30.418C19.6703 31.0822 19.3375 31.7841 18.9304 32.4068C18.8825 32.4814 18.8758 32.5599 18.9144 32.6438C19.0276 32.8887 19.0063 33.127 18.8652 33.3547C18.8239 33.4212 18.8226 33.4864 18.8492 33.5597C19.1487 34.4316 19.4296 35.3089 19.6932 36.1914C19.7637 36.4271 19.8516 36.6387 20.1285 36.7293C20.3002 36.7852 20.3441 36.9875 20.3788 37.1552C20.4515 37.5244 21.3117 37.6602 21.5888 37.5772C21.7779 37.52 22.0002 37.5439 22.1306 37.7303C22.2757 37.9367 22.309 38.1723 22.1785 38.4026C22.124 38.4998 22.1107 38.5823 22.1599 38.6808C22.2584 38.8791 22.3463 39.0815 22.4461 39.2785C22.5473 39.4769 22.4807 39.6233 22.2584 39.6606C22.1985 39.6712 22.1373 39.6672 22.076 39.6672C21.501 39.6672 20.9259 39.6685 20.3508 39.6646C20.2323 39.6646 20.1618 39.6912 20.1112 39.8123C20.0074 40.0626 19.5641 40.1691 19.3431 39.9947C19.1607 39.8509 19.0249 39.6672 19.0436 39.4156C19.0532 39.2707 18.9852 39.1466 18.8825 39.0482C18.5697 38.7447 18.2555 38.4438 17.9413 38.1417C17.8402 38.0445 17.719 38.0099 17.5779 38.0085C17.132 38.0085 16.8444 37.6145 16.9908 37.1952C17.0494 37.0261 17.0388 36.8757 16.9869 36.7119C16.6802 35.7602 16.3157 34.8333 16.0324 33.8765C15.9924 33.7434 15.9352 33.6662 15.7928 33.6236C15.4666 33.525 15.3228 33.2269 15.428 32.9047C15.5349 32.5768 15.9355 32.6293 16.0404 32.3283C16.1815 31.9276 16.3266 31.5282 16.4703 31.1276C16.5256 30.9066 16.5968 30.8327 16.4371 30.6164C16.3346 30.4779 16.3439 30.2889 16.4743 30.1398C16.5396 30.0653 16.5755 29.992 16.5036 29.9055C16.2494 29.5913 16.1322 29.2066 15.9578 28.8512C15.846 28.6236 15.7076 28.4092 15.5798 28.1896C15.5212 28.0884 15.4413 28.0724 15.3428 28.139C15.0675 28.3264 14.9652 28.5613 14.7478 28.7846C14.5361 29.003 14.3284 29.2253 14.1567 29.4782C14.1035 29.5567 14.0835 29.626 14.1115 29.7231C14.2286 30.1465 13.9144 30.4886 13.4831 30.3994C13.2861 30.3581 13.1463 30.422 13.0292 30.5605C12.6917 30.9579 12.1526 31.3971 11.7179 31.668C11.5356 31.7812 11.4078 31.913 11.4411 32.1646C11.4703 32.3882 11.292 32.6158 11.0697 32.693C10.9871 32.7223 10.9379 32.7663 10.9219 32.8515C10.7823 33.6272 10.9084 34.343 10.8646 34.9747C10.8553 35.1025 10.9565 35.1611 11.047 35.209C11.2813 35.3328 11.5209 35.4486 11.7619 35.5591C11.9536 35.647 12.1426 35.7362 12.3143 35.8586C12.5132 36.0007 12.7618 35.6652 13.0505 35.8853C13.2834 36.0636 13.4166 36.266 13.3141 36.5668C13.3101 36.5775 13.3101 36.5908 13.3034 36.5975C12.9203 36.9844 13.6081 37.4753 13.3607 37.8847C13.3047 37.9766 13.2342 38.0378 13.1224 38.0378C12.2798 38.0313 11.3374 38.1424 10.5039 38.0005C10.2882 37.9646 10.1431 38.0179 9.99537 38.1776C9.83696 38.3493 9.61731 38.3546 9.41097 38.2615C8.97533 38.0661 9.05414 37.7648 9.09015 37.3642C9.10346 37.2205 9.00762 37.0847 8.94372 36.9529C8.66683 36.3885 8.31539 35.864 8.02119 35.3089C7.89835 35.0877 7.85677 34.9357 7.56859 34.8869C6.91079 34.7762 7.13344 33.9982 7.57924 33.7753C7.64713 33.742 7.68041 33.6821 7.71102 33.6129C7.97727 33.0139 8.09441 32.3682 8.29409 31.7479C8.33802 31.6108 8.31007 31.495 8.23818 31.3712C8.04516 31.0397 8.19558 30.635 8.55101 30.4952C8.60826 30.4726 8.67215 30.4486 8.72806 30.4673C8.91576 30.5298 9.04223 30.4353 9.17269 30.3235C9.65405 29.9071 10.0428 29.3776 10.5279 28.9643C10.5811 28.9191 10.5691 28.8578 10.5625 28.7953C10.5199 28.4106 10.6543 28.2096 11.0297 28.123C11.1455 28.0964 11.2094 28.0405 11.26 27.938C11.4624 27.5227 11.6035 27.078 11.867 26.6907C11.9802 26.5243 12.0108 26.3286 11.911 26.1236C11.8364 25.9705 11.8417 25.7854 11.9669 25.6723C12.2984 25.3705 12.1077 24.7301 12.076 24.3384C12.0641 24.1827 12.0228 24.0602 11.8764 23.9657C11.6048 23.7913 11.5462 23.6102 11.6181 23.2974C11.6501 23.155 11.7499 23.0684 11.8737 23.0099C12.0108 22.946 12.0894 22.8541 12.0987 22.6957C12.1357 22.0254 12.2239 21.3205 12.3636 20.663C12.4101 20.4426 12.137 19.8751 11.8963 19.815C11.4557 19.7072 11.0217 19.5794 10.5917 19.4356C10.4892 19.401 10.424 19.4436 10.3521 19.4995C9.61058 20.0727 9.65647 18.9859 9.34175 18.7434C8.50759 18.1003 7.53939 17.5058 6.80847 16.7532C6.76188 16.7053 6.70597 16.7412 6.65405 16.7585C6.20281 16.9158 5.68071 16.3826 5.96981 15.9478C6.03504 15.8493 6.02439 15.7721 5.94585 15.6989C5.72088 15.4899 5.62902 15.1984 5.4746 14.9454C5.43866 14.8855 5.41204 14.8403 5.32817 14.8376C4.8729 14.8256 4.61331 14.4223 4.84761 14.0149C4.99936 13.7527 4.96741 13.5144 4.9368 13.2588C4.85642 12.608 4.79739 12.0907 4.88621 11.4404C4.9328 11.1009 4.99004 10.7641 5.04729 10.426C5.1032 10.04 5.38541 9.80301 5.65831 9.57405C5.84072 9.42089 6.07764 9.65 6.07764 9.84162C6.06299 10.5112 6.12556 11.1768 6.14154 11.8451C6.1442 11.9809 6.18413 12.0714 6.29729 12.1486C6.53266 12.3068 6.7569 12.7426 6.4344 12.9447C6.34787 12.9979 6.3532 13.0591 6.39446 13.1403C7.18569 14.6759 7.91289 15.7425 9.57072 16.5509C9.98472 16.7519 10.4147 16.909 10.85 17.0554C11.03 17.1154 11.1816 17.2543 11.3612 17.1153C11.7986 16.7777 11.9989 17.4142 12.3303 17.3789C12.7976 17.3256 13.2648 17.283 13.7281 17.2045C13.8292 17.1872 13.8998 17.1513 13.957 17.0661C14.166 16.7559 14.4988 16.7066 14.7797 16.9489C14.8702 17.0261 14.9528 17.0408 15.0673 17.0155C15.7644 16.8562 16.4567 16.7108 17.1453 16.5176C17.2345 16.4923 17.2731 16.4231 17.317 16.3499C17.506 16.033 17.8175 15.9305 18.1051 16.089C18.157 16.1169 18.2209 16.1542 18.2435 16.2034C18.3247 16.3792 18.4671 16.3818 18.6309 16.3805C19.3497 16.3752 20.0686 16.3778 20.7874 16.3805C20.9046 16.3805 20.9898 16.3579 21.0763 16.2633C21.3998 15.9079 21.8324 15.9558 22.0787 16.3618C22.112 16.4164 22.1493 16.4617 22.2171 16.467C23.5902 16.5694 24.9451 16.9768 26.3252 17.0913C26.4357 17.1007 26.5263 17.0913 26.6181 17.0208C26.9962 16.7333 27.4248 16.8837 27.5486 17.3456C27.5779 17.4561 27.6631 17.4907 27.7483 17.524C29.213 18.1099 30.7619 18.6422 32.1439 19.401C32.2624 19.4662 32.3649 19.4649 32.4834 19.3903C32.8641 19.152 33.3234 19.3917 33.3167 19.8376C33.3087 20.3123 34.4567 21.4243 34.9807 21.3845C35.3162 21.3605 35.5212 21.5708 35.5132 21.9143C35.5092 22.106 35.5545 22.2418 35.7275 22.3363C36.2749 22.6362 36.7909 23.3246 37.2464 23.7554C37.2944 23.8006 37.3436 23.7913 37.3995 23.7727C37.6165 23.7008 37.8122 23.758 37.96 23.9191C38.1091 24.0815 38.1796 24.2798 38.0784 24.4995C38.0425 24.578 38.0731 24.6273 38.1237 24.6752C38.7835 25.2885 39.5762 25.9397 40.0673 26.6933C40.1538 26.8264 40.2669 26.8744 40.436 26.8411C40.7488 26.7798 41.0856 27.0754 41.0883 27.3962C41.0883 27.5883 40.9319 27.6649 41.0736 27.8661C41.3492 28.2522 41.5955 28.6595 41.8537 29.0549C42.2769 29.7044 42.7128 30.3469 43.1556 30.9824C43.2542 31.1249 43.4112 31.1662 43.559 31.2274C43.8998 31.3698 44.0143 31.6121 43.9171 31.9582C43.8772 32.098 43.7973 32.1859 43.6602 32.2364C43.3793 32.3403 43.2901 32.6651 43.4778 32.8967C43.559 32.9979 43.6069 33.115 43.6415 33.2375C43.6588 33.3001 43.6575 33.36 43.6136 33.4106C43.3673 33.6875 43.4632 33.971 43.6256 34.2319C43.8483 34.5899 43.9987 35.0783 44.0968 35.4926C44.1354 35.651 44.1966 35.7695 44.3923 35.7575C44.4602 35.7535 44.5095 35.8094 44.5534 35.8626C44.6985 36.037 44.7651 36.2314 44.7491 36.4603C44.7318 36.7119 44.5641 36.893 44.3111 36.8757C43.8935 36.8457 43.8642 37.3646 43.6029 37.5959C43.4618 37.7197 43.5177 37.8927 43.539 38.0498C43.587 38.4119 43.3087 38.7234 42.9493 38.7127C42.7363 38.7074 42.6165 38.5756 42.534 38.4052C42.4821 38.3001 42.4115 38.2508 42.2997 38.2242C41.6394 38.0631 40.9738 37.926 40.3348 37.6864C40.199 37.6345 40.0859 37.6371 39.9927 37.7836C39.8995 37.93 39.6559 37.9753 39.4842 37.8874C39.1261 37.7024 38.9517 37.3176 39.2339 36.9329C39.3058 36.8357 39.3178 36.7572 39.2885 36.6454C39.1909 36.2759 39.1525 35.8767 38.9916 35.5272C38.9251 35.3821 38.8865 35.3807 38.7933 35.5165C38.6103 35.7849 38.5391 36.0928 38.3087 36.3392C38.1876 36.4697 38.1676 36.6054 38.2462 36.7625C38.3194 36.9103 38.3181 37.0607 38.2582 37.2125C38.1716 37.4295 37.9373 37.5639 37.6964 37.5386C37.3889 37.5067 37.2611 37.3962 37.2118 37.114C37.1619 36.8197 37.2086 36.5501 36.9536 36.3286C36.4187 35.8625 36.0742 35.1543 35.5758 34.6419C35.5119 34.5754 35.4427 34.5474 35.3428 34.5461C34.8345 34.5375 34.6195 34.0311 34.8436 33.6182C34.9666 33.3935 35.3133 33.5144 35.408 33.2442C35.5665 32.8009 35.7688 32.3789 35.9858 31.9622C35.9964 31.9422 36.0151 31.9156 36.0097 31.9023C35.9206 31.7293 35.9046 31.4963 35.7408 31.3898C35.4786 31.2207 35.2163 31.0384 34.9048 30.9558C34.841 30.9385 34.789 30.9172 34.7185 30.9585C34.4962 31.0863 34.2712 31.0929 34.0502 30.9425C33.9203 30.8544 33.0416 30.9215 33.0145 31.0703C32.9679 31.3046 32.7004 31.4604 32.7749 31.7346C33.0823 32.8804 33.4604 34.0802 33.6149 35.2583C33.6322 35.3994 33.7001 35.4726 33.8412 35.5245C34.0449 35.6004 34.1607 35.7761 34.1953 35.9918C34.214 36.1062 34.2619 36.1542 34.3804 36.1835C34.6812 36.2567 34.9661 36.3831 35.239 36.5309C35.3535 36.5921 35.448 36.6467 35.5492 36.5003C35.6157 36.4031 35.9392 36.3885 36.047 36.4763C36.1655 36.5735 36.2787 36.6853 36.3678 36.8091C36.4544 36.9289 36.4384 37.074 36.3718 37.2045C36.3399 37.2657 36.3226 37.3163 36.3812 37.3656C36.7487 37.6769 37.0938 38.3073 37.3396 38.7127C37.4142 38.8365 37.4035 39.0895 37.3063 39.1893C37.2744 39.2213 37.2384 39.2159 37.1985 39.2159C36.2467 39.2106 35.2962 39.2093 34.3444 39.2013C34.2259 39.2013 34.1394 39.2439 34.0742 39.3331C33.8327 39.6607 33.1222 39.5319 33.1397 39.0735C33.1517 38.742 32.9347 38.5423 32.7576 38.34C32.4514 37.9926 32.116 37.6691 31.8071 37.323C31.7286 37.2351 31.6314 37.2005 31.5089 37.2165C31.0186 37.2832 30.6644 36.6755 30.9578 36.2833C31.0151 36.2061 31.0151 36.1422 30.9858 36.0543C30.5656 34.8243 30.0392 33.6213 29.62 32.3975C29.592 32.315 29.4829 32.3123 29.4096 32.2777C29.1953 32.1739 29.0249 32.0381 28.9983 31.7798C28.9823 31.6254 29.0196 31.4936 29.1607 31.4098C29.2539 31.3539 29.2805 31.2713 29.2645 31.1688C29.2246 30.9292 29.1793 30.6909 29.1128 30.4566C29.0388 30.1894 28.3462 29.9046 28.1916 30.2396C28.0784 30.4793 27.9134 30.647 27.6192 30.6204C27.2639 30.5886 26.5518 32.0384 26.2361 32.319C26.1269 32.4162 26.0989 32.5306 26.1801 32.6864C26.3066 32.9247 26.1309 33.3254 25.8806 33.4146C25.7701 33.4532 25.7448 33.533 25.7355 33.6315C25.6599 34.4382 25.5415 35.2649 25.5665 36.0756C25.572 36.2371 25.9208 36.8354 26.0377 36.8744C26.4344 37.0048 26.7566 37.2844 27.1479 37.4255C27.2331 37.4561 27.2984 37.4574 27.3809 37.4148C27.6351 37.2817 27.9666 37.3403 28.125 37.5266C28.2621 37.6904 28.2728 37.898 28.2022 38.0605C28.0851 38.3267 28.2102 38.5144 28.3407 38.6941C28.4711 38.8725 28.6016 39.0469 28.6948 39.2492C28.8079 39.4955 28.7068 39.6685 28.4259 39.6699C27.4462 39.6752 26.5009 39.6714 25.5172 39.6632ZM21.4916 25.4313C22.1763 24.8522 22.8327 24.24 23.5337 23.6808C23.9025 23.3853 24.2126 23.0192 24.6306 22.7822C24.8529 22.6558 24.9235 22.283 24.781 22.0794C24.6812 21.9369 24.5468 21.8211 24.3897 21.7293C23.6741 21.3103 21.8846 19.5826 20.9578 20.0067C20.5811 20.1811 20.1897 20.3115 19.7944 20.4393C19.5377 20.5224 19.3196 21.056 19.383 21.3179C19.7163 22.7026 20.2018 24.0823 20.633 25.4407C20.8005 25.9686 21.2316 25.6533 21.4916 25.4313ZM13.334 20.197C13.8558 20.6465 14.434 21.0358 14.9328 21.5096C15.0336 21.6045 16.0295 21.6831 16.1322 21.6454C16.8404 21.3938 17.5113 21.053 18.2209 20.8067C18.3719 20.7528 18.7615 20.115 18.7001 19.9308C18.4119 19.0532 18.1545 18.1761 17.9134 17.2844C17.8649 17.1056 17.4214 16.9083 17.2305 16.9383C16.5128 17.0513 15.8168 17.3411 15.1045 17.4335C15.0211 17.4444 14.211 17.9281 14.1501 18.0125C13.8146 18.4771 13.4778 18.9404 13.1863 19.4356C13.106 19.5695 13.2213 20.0992 13.334 20.197ZM26.9602 27.2285C27.1536 27.9158 27.3941 28.5775 27.5579 29.2785C27.6132 29.5149 27.8676 29.4533 28.0332 29.5687C28.2874 29.7458 28.5071 29.7072 28.6748 29.4569C28.6988 29.4196 28.7267 29.385 28.756 29.3531C28.9664 29.1254 29.0689 29.1001 29.3657 29.2133C29.4469 29.2439 29.4869 29.2013 29.5374 29.1574C30.1512 28.6225 30.6664 27.9376 31.3226 27.4574C31.4892 27.3354 31.5909 26.5403 31.4996 26.3951C31.0776 25.7278 30.7323 25.0177 30.2896 24.365C30.1656 24.183 29.6841 24.0483 29.5121 24.2226C28.8505 24.8962 28.1037 25.4819 27.4381 26.1515C27.3316 26.258 27.2904 26.3459 27.3276 26.495C27.3942 26.7625 27.3103 26.9223 27.0681 27.0514C27.0068 27.0847 26.9522 27.118 26.9589 27.2271L26.9602 27.2285ZM26.2733 25.8706C25.9796 24.9332 25.787 23.9516 25.4413 23.0312C25.3535 22.7982 25.0819 22.721 24.8969 22.8807C24.6333 23.1071 24.3644 23.3294 24.1048 23.5597C23.2811 24.2937 22.4446 25.2312 21.4823 25.7774C21.2591 25.9058 21.2538 26.261 21.4757 26.3898C22.3703 26.9055 23.3652 27.338 24.3138 27.7423C24.4269 27.7902 24.5388 27.8475 24.6572 27.7596C24.7997 27.6531 24.9581 27.6518 25.1138 27.7077C25.2243 27.7476 25.3029 27.7223 25.3828 27.6478C25.621 27.4268 25.8873 27.2378 26.0963 26.9848C26.1735 26.8917 26.2187 26.8065 26.1961 26.6867C26.1668 26.5349 26.1895 26.3898 26.2693 26.2567C26.3411 26.136 26.3131 25.9992 26.2733 25.8706ZM32.6844 26.6893C32.5495 26.8194 32.4734 27.3405 32.5659 27.5147C32.8362 28.0298 33.2448 28.4518 33.5271 28.9577C33.6841 29.2372 33.9291 29.4582 34.0702 29.7484C34.1354 29.8842 34.2219 29.9414 34.3804 29.9361C34.6959 29.9241 34.8982 30.0932 34.9474 30.3981C34.9661 30.5112 35.022 30.5711 35.1165 30.6217C35.3415 30.7428 35.5838 30.8214 35.8127 30.9319C35.9938 31.0197 36.3439 30.8786 36.3678 30.6816C36.448 30.0328 36.5871 29.3745 36.69 28.7261C36.7206 28.529 36.6594 28.3853 36.505 28.2655C36.3812 28.1696 36.3252 27.8102 36.4264 27.6984C36.5036 27.6132 36.4797 27.5666 36.4118 27.5107C36.26 27.3855 36.1535 27.2231 36.0484 27.0607C35.8235 26.7144 35.469 26.4953 35.2603 26.1276C35.018 25.6976 34.612 25.6457 34.1514 25.5964C33.6578 25.8549 33.0858 26.3017 32.6844 26.6893ZM36.6754 32.0141C36.9763 33.3684 37.2218 34.8156 37.6578 36.1342C37.7392 36.3861 37.85 36.3819 37.9706 36.1728C38.1031 35.9389 38.1801 35.6463 38.3686 35.45C38.5124 35.3009 38.571 35.1504 38.5044 34.9308C38.4179 34.6446 38.5484 34.3504 38.7707 34.2705C38.9477 34.2066 39.0183 34.0868 39.0502 33.9178C39.1154 33.577 39.2046 33.2402 39.2512 32.8954C39.2699 32.7583 39.2645 32.6571 39.1687 32.5493C39.0768 32.4454 38.957 32.3523 38.9504 32.1898C38.9397 31.9489 39.0902 31.708 39.3191 31.6148C39.407 31.5788 39.5055 31.5495 39.5161 31.4364C39.6087 30.3463 39.9816 29.208 40.1831 28.1297C40.2131 27.9669 40.1598 27.9344 40.03 28.0485C39.7478 28.2948 39.4868 28.561 39.2339 28.8379C38.5971 29.5406 37.7785 30.1081 37.1959 30.8613C37.079 31.0111 36.8532 30.9909 36.9176 31.2354C36.9762 31.4617 36.9602 31.6747 36.7592 31.8371C36.706 31.8797 36.6767 31.9409 36.6754 32.0141ZM34.0569 24.7777C34.2897 24.7403 34.5706 24.4775 34.5587 24.2426C34.5292 23.7109 34.6947 23.1309 34.7411 22.5999C34.7478 22.5213 34.7411 22.4494 34.6666 22.3935C34.4469 22.2271 34.3697 22.0035 34.4203 21.7359C34.4638 21.5095 33.2511 20.4454 33.0518 20.3994C32.7337 20.3275 32.514 20.4127 32.329 20.6749C31.7422 21.5077 31.1941 22.4151 30.5318 23.1909C30.444 23.2948 30.5585 23.6249 30.6876 23.6702C31.7838 24.0534 32.9251 24.5312 34.0582 24.779L34.0569 24.7777ZM15.6357 24.8256C15.6357 25.4833 15.6397 26.1409 15.633 26.7985C15.6312 26.9918 16.0275 27.3239 16.2028 27.2458C17.2904 26.7617 18.7286 26.4631 19.8942 26.3366C20.1091 26.3145 20.258 26.0943 20.0819 25.9279C18.8157 24.7235 17.2646 23.8694 15.9845 22.693C15.7851 22.5125 15.6383 22.5295 15.6383 22.8368C15.6383 23.4998 15.6357 24.1643 15.6357 24.8256ZM15.3867 22.8035C15.3867 22.4153 14.8825 22.4228 14.9275 21.9516C14.9368 21.8531 14.8902 21.7852 14.813 21.7279C14.2699 21.3232 13.7174 20.9319 13.2275 20.4606C13.0191 20.2615 12.8199 20.4038 12.7842 20.6403C12.6724 21.3605 12.6272 22.09 12.4674 22.8022C12.4435 22.9087 12.4581 22.9833 12.5686 23.0298C12.6378 23.0578 12.6684 23.123 12.6977 23.1923C12.7683 23.3587 12.7723 23.5237 12.7124 23.6915C12.6671 23.8179 12.7004 23.9204 12.7829 24.0282C13.4386 24.8881 14.3102 26.3448 15.2137 26.9383C15.3072 27.0006 15.376 26.9948 15.3721 26.8637C15.3193 25.5129 15.3867 24.1557 15.3867 22.8035ZM30.5651 22.6904C31.0331 21.846 31.7079 21.12 32.2278 20.3062C32.2731 20.2356 32.1426 19.7844 32.0667 19.7511C32.0614 19.7484 32.0561 19.7471 32.0508 19.7458C30.5821 19.179 28.9328 18.6338 27.5739 17.8634C27.456 17.7984 27.3894 17.8674 27.4395 17.9926C27.9914 19.3173 28.6858 20.6059 29.3404 21.8823C29.5161 22.2245 29.6519 22.5879 29.8623 22.9127C30.0616 23.219 30.4506 22.8953 30.5651 22.6904ZM29.5867 23.0951C28.8895 21.4379 27.8752 19.9491 27.2664 18.2388C27.2081 18.0805 26.999 17.891 26.9056 18.135C26.4899 19.218 26.2246 20.3613 25.8207 21.4497C25.6626 21.8765 25.9505 22.2847 26.3678 22.4135C27.3582 22.7232 28.3753 22.9442 29.3591 23.2721C29.4829 23.3134 29.588 23.2468 29.5854 23.0951H29.5867ZM39.9647 27.1739C39.9874 27.07 39.9261 27.0235 39.8689 26.9835C39.1713 26.5 38.5192 25.6691 37.9693 25.032C37.7948 24.8309 37.5732 24.8941 37.5446 25.1544C37.4687 25.8626 37.3197 26.5589 37.2278 27.2644C37.2132 27.3749 37.2291 27.4627 37.3183 27.528C37.6658 27.7836 37.546 28.3613 37.108 28.4838C37.0374 28.5037 36.9922 28.533 36.9789 28.6129C36.8654 29.3297 36.7799 30.0565 36.6314 30.7668C36.6061 30.8862 36.6889 30.9163 36.7765 30.8427C37.132 30.5445 37.4528 30.2077 37.7749 29.8776C38.4771 29.1555 39.2854 28.5066 39.9301 27.733C39.9634 27.693 39.9834 27.6491 39.9661 27.5959C39.9208 27.4494 39.9075 27.303 39.9661 27.1739H39.9647ZM22.2411 19.9095C22.9855 20.618 24.0261 21.1903 24.8835 21.7546C25.0923 21.8925 25.4857 21.6216 25.5252 21.4111C25.7503 20.2315 26.2876 19.1756 26.6514 18.0432C26.7079 17.8685 26.5485 17.6978 26.3745 17.7862C25.5651 18.2057 24.6705 18.5114 23.8226 18.8499C23.3508 19.0386 22.8235 19.365 22.3236 19.4542C22.1149 19.4931 22.1152 19.7909 22.2411 19.9095ZM20.3575 25.631C20.0248 24.389 19.6819 23.1397 19.2952 21.9103C19.1953 21.5921 19.174 21.2167 18.7321 21.0823C18.4951 21.0104 18.3141 21.0317 18.1224 21.1289C17.5391 21.4237 16.9135 21.609 16.3093 21.8557C16.067 21.9556 16.0124 22.2804 16.1761 22.4747C17.219 23.7144 18.9221 24.5365 20.1338 25.619C20.2188 25.6952 20.4162 25.8218 20.3575 25.631ZM18.5151 16.8171C18.2834 16.8198 18.137 17.0022 18.1809 17.2258C18.3573 18.1285 18.743 18.9782 18.9291 19.8829C18.9771 20.1177 19.4725 20.2819 19.6746 20.2223C20.0739 20.1039 20.436 19.8975 20.8154 19.7325C20.9937 19.6546 21.3926 19.0684 21.4025 18.9005C21.4331 18.4039 21.3865 17.9074 21.3985 17.4122C21.4082 17.0184 20.9942 16.7966 20.637 16.8091C19.9307 16.8326 19.2217 16.8123 18.5151 16.8171ZM32.9693 30.7295C33.2502 30.6768 33.5269 30.5354 33.7946 30.4353C34.0392 30.3418 33.9057 29.9447 33.7853 29.8123C33.2346 29.2024 32.8403 28.4685 32.4035 27.7769C32.2838 27.5851 31.731 27.3982 31.5529 27.5999C31.012 28.2142 30.3702 28.7424 29.8037 29.3331C29.6572 29.4862 29.6506 29.6832 29.8143 29.8243C30.3388 30.2804 31.2073 30.3999 31.8258 30.7016C31.9123 30.7428 31.9789 30.7255 32.0468 30.6536C32.2904 30.3914 32.4807 30.3861 32.755 30.623C32.8175 30.6776 32.8748 30.7415 32.9693 30.7322V30.7295ZM33.1783 35.3767C33.5843 35.2144 32.6373 31.8117 32.1067 31.5216C31.9429 31.4324 31.8324 31.2993 31.8524 31.0929C31.863 30.9798 31.8031 30.9305 31.6953 30.8999C31.0291 30.7067 30.4051 30.386 29.7518 30.1518C29.5574 30.0826 29.4749 30.1664 29.5068 30.3754C29.554 30.6959 29.567 31.1057 29.8849 31.278C30.1125 31.4018 30.2084 31.6188 30.1418 31.869C30.0992 32.0274 30.1471 32.1339 30.2616 32.2125C30.5156 32.3863 33.1783 35.3767 33.1783 35.3767ZM27.0374 26.0863C27.1359 26.1023 27.2225 26.0543 27.2864 25.9452C27.9214 25.3501 27.6755 25.5964 27.9214 25.3501C28.5447 24.7258 28.8836 24.522 29.3311 24.0828C29.4735 23.9417 29.4922 23.8259 29.3937 23.6515C29.2093 23.3261 28.1205 23.1648 27.7869 23.0831C27.2145 22.9393 26.6314 22.8342 26.0723 22.6385C25.799 22.5428 25.6685 22.7865 25.7369 22.9952C26.0447 23.9329 26.2384 24.908 26.5875 25.832C26.6725 26.0561 26.8244 26.0767 27.0348 26.0863H27.0374ZM36.9589 24.3011C36.9869 24.1587 36.9469 24.0535 36.8404 23.9683C36.4062 23.6141 35.6094 23.0057 35.3322 22.5054C35.2614 22.3747 35.0273 22.4073 35.03 22.5692C35.038 23.1127 34.9477 23.8194 34.8223 24.3397C34.8033 24.4179 35.2235 25.6451 35.3362 25.7948C35.5904 26.1342 35.9432 26.3858 36.1482 26.7665C36.264 26.9822 36.5263 27.0887 36.6194 27.3336C36.6782 27.4891 36.8711 27.3835 36.8963 27.2644C37.0605 26.5198 37.1875 25.7756 37.3077 25.0227C37.325 24.9148 37.3023 24.8536 37.2185 24.783C37.0681 24.6579 36.9522 24.5035 36.9589 24.2998V24.3011ZM25.203 29.0868C25.3407 30.0976 25.5 31.1064 25.5971 32.122C25.6145 32.3103 25.7135 32.3582 25.8433 32.2165C26.0629 31.9773 27.295 30.5303 27.1639 30.2543C26.9873 29.877 27.4388 29.6891 27.3596 29.4236C27.147 28.6997 26.8755 27.9948 26.7126 27.2564C26.6767 27.094 26.4624 26.9955 26.3638 27.1087C26.1229 27.3855 25.8447 27.6198 25.5705 27.8594C25.4906 27.93 25.4693 28.0112 25.4959 28.1257C25.5478 28.3547 25.4919 28.5743 25.3109 28.7247C25.193 28.8218 25.1782 28.9429 25.203 29.0868ZM40.2017 31.9143C41.0092 31.7718 41.823 31.7306 42.6338 31.6268C42.8348 31.6015 42.8934 31.4936 42.8295 31.2993C42.6143 30.6178 41.9732 29.944 41.5728 29.3597C41.28 28.9324 40.9898 28.5037 40.6916 28.0791C40.6236 27.9805 40.5481 27.9588 40.5212 28.0977C40.3081 29.1674 40.0731 30.2317 39.8716 31.3059C39.8396 31.4777 39.7917 31.6374 39.9821 31.7492C40.0873 31.8135 40.0227 31.9325 40.203 31.9156L40.2017 31.9143ZM20.0659 26.5735C18.7979 27.0711 17.4743 27.1456 16.1948 27.528C16.0845 27.5611 16.0836 27.6362 16.1801 27.6864C16.4011 27.7995 16.6168 27.9233 16.8431 28.0232C17.3669 28.2566 17.8887 28.5014 18.4099 28.7314C18.788 28.8965 19.198 28.991 19.5401 29.2346C19.584 29.2665 19.628 29.2985 19.6919 29.2825C19.8662 29.2386 20.0712 29.0109 20.0992 28.8286C20.1777 28.3107 20.2563 27.7916 20.3402 27.275C20.3604 27.1486 20.449 26.4216 20.0659 26.5735ZM12.4381 24.2466C12.4818 24.5369 12.4296 25.2906 12.719 25.462C13.0185 25.639 13.0744 26.0929 12.8242 26.3286C12.723 26.4231 12.7337 26.5123 12.7629 26.6241C12.9862 27.4684 13.3154 28.2907 13.4924 29.1454C13.5232 29.2915 13.6352 29.4036 13.7747 29.2825C13.8479 29.2173 13.9184 29.1454 13.9823 29.0695C14.2801 28.721 14.9925 28.1592 14.9275 27.6544C14.9007 27.4513 15.0483 27.2516 14.9195 27.086C14.1611 26.1158 13.2437 25.2211 12.5752 24.184C12.4986 24.069 12.419 24.1094 12.4381 24.2466ZM22.3809 16.9196C22.1697 16.8911 21.6321 17.0541 21.6527 17.3097C21.6913 17.8328 21.6753 18.3573 21.6833 18.8818C21.6833 19.0097 22.0064 19.2868 22.1426 19.2026C22.7548 18.8285 23.5927 18.6064 24.2632 18.36C24.8849 18.1323 25.4866 17.8608 26.0989 17.6118C26.3511 17.5096 23.2485 17.0388 22.3809 16.9196ZM11.0284 31.5003C11.0284 31.6697 11.1443 31.6439 11.2387 31.5642C11.7472 31.1409 12.2544 30.7135 12.7643 30.2916C12.904 30.1757 12.9946 30.0573 12.9653 29.8549C12.9453 29.7191 12.952 29.5581 13.1184 29.4862C13.2675 29.4209 13.2888 29.3184 13.2329 29.1773C12.9092 28.3534 12.8132 27.4592 12.4727 26.6454C12.4185 26.5118 12.3782 26.5256 12.3197 26.6427C12.0708 27.1588 11.8054 27.6637 11.5582 28.1803C11.5369 28.2242 11.5196 28.2668 11.5529 28.32C11.7432 28.6222 11.6887 28.9497 11.3958 29.1534C10.8871 29.5076 11.0693 30.9741 11.0284 31.499V31.5003ZM10.5492 32.745C10.5744 32.6678 10.5225 32.6265 10.4759 32.5772C10.3468 32.4428 10.2403 32.2977 10.2496 32.098C10.2523 32.0288 10.2137 31.9915 10.1604 31.9529C9.96342 31.8078 9.73579 31.7173 9.52545 31.5988C9.28761 31.4641 8.82827 31.4191 8.7254 31.7585C8.51773 32.4335 8.30474 33.1057 8.09175 33.778C8.04541 33.9312 8.1849 34.0811 8.25149 34.2106C8.43628 34.5802 9.36807 34.6478 9.72247 34.7551C9.75708 34.7657 9.78903 34.7577 9.81566 34.7351C10.3874 34.2496 10.3808 33.4608 10.5492 32.7436V32.745ZM16.6394 32.9087C16.9962 32.8741 17.321 32.8355 17.6471 32.8515C17.7922 32.8581 17.8761 32.8168 17.9413 32.6757C18.0145 32.5187 18.1091 32.3523 18.3234 32.3549C18.4765 32.3563 18.5603 32.2764 18.6415 32.1579C19.0581 31.5491 19.2193 30.7924 19.6266 30.1957C19.7473 30.0223 19.6353 29.9389 19.4629 29.9761C18.8798 30.0972 18.3021 30.2503 17.715 30.3501C17.6258 30.3648 17.5473 30.3994 17.5406 30.4979C17.5207 30.7761 17.325 30.8799 17.0987 30.9425C16.9935 30.9705 16.9389 31.0211 16.907 31.1209C16.7588 31.5872 16.5257 32.0354 16.3865 32.496C16.3292 32.6851 16.4903 32.9127 16.6407 32.9114L16.6394 32.9087ZM42.3902 37.8235C42.5553 37.8408 42.6458 37.6571 42.5912 37.488C42.2604 36.4616 41.532 35.479 41.4118 34.401C41.3984 34.2911 41.2442 34.3298 41.2134 34.409C40.9257 35.13 40.412 35.7784 40.1791 36.5216C40.1165 36.7199 40.0619 36.869 40.1564 37.086C40.2243 37.2404 40.2842 37.319 40.44 37.3496C41.0869 37.48 41.7681 37.5958 42.3889 37.8235H42.3902ZM23.7187 36.6813C23.4671 36.6693 23.3899 36.7293 23.4592 36.865C23.7765 37.4742 24.4003 39.4497 25.448 38.9444C25.9693 38.6948 26.4395 38.3389 26.9695 38.1097C27.1746 38.0205 27.1785 37.9034 26.9908 37.7769C26.9363 37.7396 26.879 37.7037 26.8191 37.6771C26.4837 37.5333 26.1429 37.4042 25.8247 37.2218C25.7502 37.1792 25.6903 37.2072 25.6237 37.2431C25.2416 37.4494 24.9235 37.3429 24.7691 36.9462C24.7305 36.8477 24.6759 36.8105 24.5827 36.7878C24.2845 36.7186 23.9783 36.7239 23.7187 36.68V36.6813ZM33.8785 25.008C32.8011 24.6794 31.6839 24.3695 30.6317 23.9723C30.5131 23.9264 30.4586 24.0036 30.5145 24.1121C30.8571 24.7675 31.2746 25.3827 31.6021 26.045C31.7429 26.331 32.3361 26.6509 32.6099 26.3858C32.921 26.0808 33.4509 25.6989 33.8479 25.5152C34.0316 25.4296 34.1165 25.0807 33.8785 25.008ZM39.375 35.3767C39.4696 35.7966 39.5895 36.2115 39.6745 36.6347C39.6984 36.7621 39.803 36.7641 39.8423 36.6427C40.0938 35.8694 40.4635 35.1173 40.85 34.405C40.9059 34.3038 40.9179 34.2279 40.8567 34.1321C40.7475 33.9603 40.7129 33.774 40.7821 33.577C40.8074 33.5051 40.7808 33.4572 40.7342 33.3986C40.5159 33.1217 40.2257 32.926 39.9634 32.6997C39.8596 32.6092 39.5654 32.7077 39.5401 32.8421C39.4576 33.2761 39.3804 33.7101 39.2978 34.1441C39.2845 34.2159 39.2965 34.2639 39.3551 34.3171C39.576 34.5141 39.6253 34.8669 39.4709 35.1185C39.4243 35.1957 39.3817 35.2703 39.3737 35.3767H39.375ZM30.1551 32.528C30.1551 32.528 30.1471 32.6132 30.1511 32.6278C30.4264 33.7229 31.0365 34.6863 31.3452 35.7601C31.4118 35.9944 31.8018 36.3192 32.0454 36.2939C32.3636 36.262 32.6777 36.1875 32.9759 36.0716C33.149 36.0037 33.1623 35.7442 33.0212 35.6244C31.5879 34.3901 30.1551 32.528 30.1551 32.528ZM17.7337 33.0951C17.371 33.1233 16.6602 33.0417 16.453 33.3906C16.3812 33.5117 16.3279 33.5929 16.3825 33.7274C16.7534 34.6423 17.1366 35.6014 17.3769 36.5589C17.4083 36.6799 17.4963 36.6361 17.5153 36.5376C17.675 35.6764 17.9402 34.8381 18.0758 33.9723C18.1091 33.758 18.2794 33.5037 17.9946 33.32C17.9906 33.3174 17.9892 33.3107 17.9879 33.3054C17.9733 33.1124 17.8548 33.0698 17.7337 33.0951ZM17.5886 30.1198C18.2355 30.0253 18.8412 29.7644 19.4855 29.6566C19.5789 29.6416 19.5766 29.5461 19.4935 29.5141C18.3483 29.0863 17.1779 28.5297 16.0843 27.9859C16.0214 27.9561 15.9728 27.9923 16.0044 28.0591C16.1296 28.3294 16.2321 28.6142 16.3865 28.8658C16.5462 29.1254 16.694 29.3877 16.8125 29.6672C16.8431 29.7391 16.8857 29.7884 16.9656 29.799C17.1373 29.823 17.2784 29.9002 17.3862 30.0386C17.4399 30.1076 17.5051 30.1337 17.5886 30.1198ZM18.3447 37.1952C18.6282 37.2072 18.8985 37.102 19.1807 37.0913C19.2219 37.09 19.2512 37.0674 19.2712 37.0301C19.3817 36.8224 19.4323 36.6241 19.3577 36.3752C19.0994 35.511 18.791 34.6592 18.5297 33.7939C18.4803 33.6323 18.4153 33.6367 18.3806 33.8059C18.3034 34.1614 18.2302 34.5181 18.1583 34.8736C18.0412 35.4513 17.9626 36.0384 17.7949 36.6054C17.7243 36.8424 17.7177 36.8411 17.92 36.9609C17.9427 36.9742 17.9786 36.9902 17.9813 37.0101C18.0225 37.2311 18.1916 37.1965 18.346 37.1965L18.3447 37.1952ZM41.9163 33.4771C42.0468 33.4252 42.2052 33.3813 42.3662 33.348C42.4754 33.3254 42.526 33.2495 42.538 33.135C42.5579 32.9406 42.6498 32.7902 42.8428 32.721C43.0816 32.6365 43.1194 32.2316 42.9027 32.1086C42.8681 32.0887 42.8495 32.0394 42.8295 32.0008C42.7909 31.9236 42.7363 31.9116 42.6525 31.9236C41.8764 32.0248 41.0989 32.106 40.3189 32.1739C40.0829 32.1956 40.0374 32.3597 40.1738 32.524C40.3995 32.792 40.7302 32.9517 40.9525 33.2348C40.9951 33.2894 41.059 33.2974 41.1176 33.2695C41.3346 33.167 41.5129 33.2508 41.6847 33.3773C41.7459 33.4225 41.8031 33.4798 41.9136 33.4798L41.9163 33.4771ZM23.2981 35.426C23.3678 35.5921 23.2826 35.6865 23.4765 35.4819C23.8301 35.103 25.1738 33.6907 25.1738 33.1922C25.1738 33.0804 24.9727 32.7876 24.8662 32.749C24.632 32.6664 24.3977 32.5839 24.1807 32.4588C24.0409 32.3789 23.6309 32.6012 23.6069 32.7636C23.4605 33.6421 23.4057 34.5396 23.2954 35.4233L23.2981 35.426ZM23.5137 35.9239C23.4112 36.1342 23.4951 36.2939 23.7241 36.3365C24.0276 36.3938 24.3311 36.4484 24.6333 36.5123C24.8219 36.5514 25.1797 36.1306 25.1884 35.9718C25.223 35.3448 25.2736 34.7178 25.3082 34.0908C25.352 33.2581 23.8074 35.3266 23.5137 35.9239ZM19.7744 38.9457C20.2776 38.8249 20.6092 38.4852 21.0523 38.2668C21.1948 38.1962 21.1935 38.135 21.0563 38.0485C20.7596 37.863 20.4272 37.5638 20.0553 37.6877C19.7185 37.7995 19.5507 37.7476 19.3324 37.4681C19.2765 37.3962 19.2166 37.3656 19.1341 37.3869C18.8479 37.4587 18.555 37.4681 18.2648 37.5027C18.0838 37.524 18.0425 37.6198 18.1397 37.7756C18.3466 38.1066 19.1152 38.9954 19.4616 38.9377C19.5601 38.9204 19.6599 38.9151 19.7744 38.9444V38.9457ZM25.3708 32.2524C25.2028 31.4741 25.1284 30.6625 24.9967 29.8762C24.9112 29.3602 24.9395 28.9006 24.6599 29.6033C24.4363 30.1717 24.1993 30.7348 24.0143 31.3179C23.9391 31.5541 23.9953 32.1506 24.2898 32.2218C24.5321 32.2817 24.7597 32.3789 24.9794 32.4974C25.1471 32.5892 25.3708 32.4508 25.3708 32.2524ZM37.3183 36.1409C37.3356 36.1329 37.3543 36.1249 37.3716 36.1182C37.0823 34.8143 36.868 33.4448 36.4451 32.1805C36.4086 32.0712 36.3316 32.0501 36.2866 32.1686C36.1309 32.5759 35.9765 32.9832 35.8181 33.3906C35.7794 33.4918 35.7874 33.581 35.842 33.6741C35.9325 33.8312 35.9459 33.999 35.8846 34.1693C35.8646 34.2253 35.8593 34.2745 35.8939 34.3264C36.333 34.9671 36.9227 35.4585 37.3183 36.1409ZM41.7353 34.413C42.1565 35.3774 42.5443 36.3591 42.8109 37.3789C42.8786 37.6318 43.2177 37.5277 43.3087 37.3496C43.4139 37.1419 43.5124 36.9329 43.6761 36.7639C43.7374 36.7013 43.7294 36.6361 43.6761 36.5722C43.6136 36.4963 43.5736 36.4031 43.5989 36.3099C43.6668 36.065 43.5364 35.9026 43.3726 35.7708C42.9178 35.4023 42.3564 34.9858 41.9908 34.5234C41.9403 34.4593 41.6355 34.1771 41.7353 34.413ZM10.8726 29.2412C10.3588 29.6073 10.002 30.0999 9.54809 30.4926C9.46857 30.5613 9.28722 30.7258 9.27785 30.8413C9.25788 31.0929 9.35639 31.2553 9.59468 31.3645C9.80501 31.4617 10.0167 31.5562 10.2257 31.656C10.4946 31.7865 10.7595 31.6241 10.7834 31.3259C10.8347 30.6727 10.9608 29.8926 10.8726 29.2412ZM9.96209 37.1486C9.95215 37.4428 10.1766 37.3675 10.3641 37.2737C10.7076 37.098 11.0484 36.9196 11.4104 36.7798C11.6181 36.7 11.8324 36.6188 12.0095 36.4683C12.1799 36.3232 12.1865 36.2101 11.9735 36.1342C11.6101 36.0051 11.3332 35.7282 10.9698 35.5964C10.8007 35.5352 10.6623 35.5445 10.4946 35.5644C10.2137 35.5988 10.1999 36.0136 10.1498 36.2407C10.0819 36.5589 10.018 36.877 9.96076 37.1486H9.96209ZM9.70783 35.1425C9.7278 35.0599 9.69452 35.0107 9.59734 34.988C9.15787 34.8838 8.72187 34.7546 8.27679 34.6765C8.10812 34.6484 8.21504 34.8331 8.24484 34.9042C8.56619 35.6717 9.12145 36.3773 9.51481 37.1126C9.54863 37.1765 9.59452 37.1827 9.61331 37.1113C9.73845 36.66 9.86225 36.2074 9.99138 35.7575C10.0432 35.5739 9.60873 35.2417 9.70783 35.1425ZM36.654 38.7886C36.7739 38.7886 36.8071 38.7474 36.7539 38.6422C36.613 38.3605 36.371 38.1542 36.2321 37.8847C35.8886 37.2203 35.4205 37.6475 35.0606 37.93C34.7957 38.1377 34.5428 38.36 34.2858 38.5783C34.154 38.6908 34.205 38.7823 34.3644 38.786C35.1359 38.7887 35.886 38.7807 36.654 38.7886ZM12.3183 17.7503C12.2038 17.7609 12.0428 18.0565 12.0867 18.171C12.2276 18.5309 12.346 19.2865 12.8095 19.3411C13.0958 19.3736 13.6615 18.1773 13.8279 17.9966C14.0796 17.7215 13.9197 17.6756 13.6548 17.6438C13.2114 17.6438 12.76 17.7096 12.3183 17.7503ZM33.7866 38.2215C33.8039 38.3839 33.9251 38.4745 34.0263 38.3906C34.2687 38.1893 35.3491 37.5693 35.3015 37.2178C35.2763 37.0288 35.1977 36.913 35.002 36.8531C34.7238 36.7679 34.4496 36.6627 34.1873 36.5362C33.9679 36.4292 33.7972 36.6189 33.7946 36.8344C33.789 37.2862 33.7384 37.7729 33.7866 38.2215ZM32.9946 36.3432C32.7257 36.4284 32.4568 36.5083 32.1865 36.5868C31.9935 36.6427 31.9443 36.8491 32.0601 37.0141C32.3878 37.4794 32.8932 37.9088 33.2954 38.316C33.384 38.4046 33.439 38.3834 33.4578 38.2628C33.5078 37.937 33.6422 36.1375 32.9946 36.3432ZM10.3242 18.5157C10.5658 18.5157 10.8237 18.1711 10.9765 18.0232C11.1682 17.8355 11.1375 17.6185 10.8859 17.524C10.3402 17.319 9.82364 17.0421 9.2712 16.8531C9.13273 16.8057 9.05875 16.8612 9.14739 16.9982C9.36172 17.3336 9.50549 17.705 9.6639 18.0685C9.80235 18.3879 9.98472 18.5197 10.3242 18.5171V18.5157ZM28.0265 39.3211C28.2062 39.3198 28.2329 39.2732 28.1463 39.1108C28.0691 38.9643 27.9839 38.8219 27.908 38.6741C27.7748 38.4173 27.6034 38.4701 27.3729 38.3799C26.8981 38.1855 26.0808 38.9338 25.6663 39.1307C25.6 39.1628 25.4418 39.3171 25.6091 39.3171C26.4149 39.3171 27.2207 39.3242 28.0265 39.3211ZM7.91869 16.2048C8.06833 16.1606 8.13926 16.1896 8.00788 16.0144C7.6886 15.5887 7.21022 15.1819 6.81646 14.823C6.54622 14.5767 6.23339 14.578 5.91922 14.5261C5.75947 14.4989 5.73347 14.7045 5.8287 14.7924C6.02589 14.9757 6.12655 15.2634 6.24404 15.5019C6.27998 15.5711 6.3319 15.6084 6.41443 15.6097C6.82052 15.6155 6.85209 16.1342 7.11465 16.1342C7.38621 16.1342 7.65245 16.1808 7.91869 16.2061V16.2048ZM42.5326 33.5397C42.3756 33.6009 42.2225 33.6449 42.0641 33.6741C41.9962 33.6861 41.923 33.7101 41.9309 33.7939C41.9429 33.9071 41.8311 34.0296 41.9616 34.1347C42.5362 34.592 43.0179 35.1607 43.6083 35.5924C43.6887 35.6517 43.7435 35.6062 43.6881 35.5192C43.3809 35.0541 43.352 34.4336 43.1077 33.9377C43.0838 33.8885 43.0718 33.8206 43.0119 33.8113C42.8468 33.7886 42.7323 33.6875 42.6178 33.5836C42.5952 33.5623 42.5606 33.5543 42.5353 33.541L42.5326 33.5397ZM10.6064 18.8645C10.5458 19.1219 11.8571 19.4491 12.0694 19.4888C12.493 19.5685 12.0068 18.731 11.9576 18.5716C11.7287 17.826 10.7396 18.3023 10.6064 18.8645ZM9.30714 18.2002C9.42588 18.2554 9.44014 18.2412 9.39766 18.1137C9.27253 17.7343 8.96635 17.4454 8.86252 17.0554C8.84608 16.9955 8.08079 16.454 8.0385 16.4524C7.73099 16.4404 7.42482 16.3951 7.06805 16.4231C7.06805 16.4231 9.03746 18.0737 9.30714 18.2002ZM12.8069 37.5919C12.8814 37.5919 12.9253 37.5746 12.8987 37.4854C12.8548 37.3429 12.8149 37.2005 12.7736 37.0581C12.7412 36.9447 12.2396 36.6283 12.1253 36.7426C11.9922 36.877 11.7952 36.8597 11.6447 36.9476C11.3359 37.1299 11.0044 37.2671 10.6836 37.4255C10.5646 37.485 10.5684 37.5529 10.7076 37.5573C11.4078 37.5606 12.107 37.5919 12.8069 37.5919ZM21.7179 39.3224C21.9695 39.3224 21.9842 39.3118 21.919 39.0735C21.8583 38.8472 21.4275 38.4266 21.1562 38.565C20.8527 38.7221 20.5492 38.8778 20.2483 39.0402C20.0627 39.1405 20.1308 39.3164 20.3268 39.3198C20.7951 39.3198 21.2477 39.3224 21.7179 39.3224ZM5.69026 11.9076C5.67162 11.4178 5.65565 10.9292 5.63302 10.4393C5.61973 10.1869 5.53098 10.188 5.48259 10.442C5.38275 10.9598 5.32551 11.487 5.19638 11.9995C5.13409 12.2417 5.76553 12.3162 5.68893 11.9076H5.69026ZM6.25868 14.2972C6.41177 14.3224 6.43307 14.2878 6.39979 14.1867C6.28797 13.8512 6.1402 13.5317 6.00975 13.2042C5.97407 13.1115 5.89725 13.1024 5.86198 13.2042C5.81867 13.3155 5.5938 13.6973 5.67428 13.8099C5.83935 14.0336 5.90858 14.3797 6.25868 14.2985V14.2972ZM5.46262 13.541C5.50788 13.3666 5.52253 13.2082 5.58909 13.0658C5.62857 12.9737 5.32262 12.2679 5.28557 12.6198C5.26031 12.8326 5.30982 13.3662 5.46395 13.5424L5.46262 13.541Z" fill="white"/>
</svg>
