<svg width="50" height="50" viewBox="0 0 50 50" fill="none" xmlns="http://www.w3.org/2000/svg">
<path d="M18.113 40.311C17.7322 40.0373 17.7294 39.4813 18.1073 39.2039L24.4443 34.5516C24.6916 34.37 25.031 34.3676 25.2811 34.5456L31.816 39.1978C32.2051 39.4748 32.2022 40.0437 31.8103 40.3168L25.2753 44.8722C25.0277 45.0448 24.6949 45.0424 24.4499 44.8663L18.113 40.311Z" fill="#2E6CD2"/>
<path d="M27.9728 32.9576C27.592 32.6838 27.5892 32.1279 27.9671 31.8504L34.3041 27.1982C34.5514 27.0166 34.8908 27.0141 35.1409 27.1922L41.6758 31.8443C42.0649 32.1213 42.062 32.6902 41.6701 32.9634L35.1351 37.5187C34.8875 37.6913 34.5547 37.6889 34.3097 37.5128L27.9728 32.9576Z" fill="#4294EF"/>
<path d="M27.9728 18.2507C27.592 17.977 27.5892 17.421 27.9671 17.1436L34.3041 12.4913C34.5514 12.3097 34.8908 12.3073 35.1409 12.4853L41.6758 17.1375C42.0649 17.4145 42.062 17.9834 41.6701 18.2565L35.1351 22.8119C34.8875 22.9845 34.5547 22.9821 34.3097 22.806L27.9728 18.2507Z" fill="#75BF40"/>
<path d="M8.25323 32.9576C7.87241 32.6838 7.86955 32.1279 8.24753 31.8504L14.5845 27.1982C14.8318 27.0166 15.1712 27.0141 15.4213 27.1922L21.9562 31.8443C22.3453 32.1213 22.3424 32.6902 21.9505 32.9634L15.4155 37.5187C15.1679 37.6913 14.8351 37.6889 14.5901 37.5128L8.25323 32.9576Z" fill="#8FDCEB"/>
<path d="M18.113 25.6041C17.7322 25.3304 17.7294 24.7745 18.1073 24.497L24.4443 19.8447C24.6916 19.6632 25.031 19.6607 25.2811 19.8387L31.816 24.4909C32.2051 24.7679 32.2022 25.3368 31.8103 25.61L25.2753 30.1653C25.0277 30.3379 24.6949 30.3355 24.4499 30.1594L18.113 25.6041Z" fill="#79BF9F"/>
<path d="M8.25323 18.7103C7.87241 18.4365 7.86955 17.8806 8.24753 17.6031L14.5845 12.9509C14.8318 12.7693 15.1712 12.7669 15.4213 12.9449L21.9562 17.5971C22.3453 17.8741 22.3424 18.4429 21.9505 18.7161L15.4155 23.2715C15.1679 23.4441 14.8351 23.4417 14.5901 23.2656L8.25323 18.7103Z" fill="#ACDE45"/>
<path d="M18.113 10.8973C17.7322 10.6235 17.7294 10.0676 18.1073 9.79012L24.4443 5.13788C24.6916 4.95629 25.031 4.95385 25.2811 5.13185L31.816 9.78404C32.2051 10.061 32.2022 10.6299 31.8103 10.9031L25.2753 15.4584C25.0277 15.631 24.6949 15.6287 24.4499 15.4525L18.113 10.8973Z" fill="#DCDF4C"/>
</svg>
