<svg width="50" height="50" viewBox="0 0 50 50" fill="none" xmlns="http://www.w3.org/2000/svg">
<path d="M20.1627 30.7177C19.8939 30.5261 19.8919 30.1369 20.1587 29.9427L24.6319 26.6861C24.8065 26.559 25.046 26.5573 25.2225 26.6819L29.8354 29.9384C30.1101 30.1323 30.108 30.5306 29.8314 30.7218L25.2184 33.9105C25.0437 34.0313 24.8088 34.0297 24.6358 33.9064L20.1627 30.7177Z" fill="#2E6CD2"/>
<path d="M27.1226 25.5703C26.8538 25.3787 26.8518 24.9895 27.1186 24.7953L31.5917 21.5387C31.7663 21.4116 32.0059 21.4099 32.1824 21.5345L36.7953 24.791C37.0699 24.9849 37.0679 25.3832 36.7912 25.5744L32.1783 28.7631C32.0035 28.8839 31.7686 28.8823 31.5957 28.759L27.1226 25.5703Z" fill="#4294EF"/>
<path d="M27.1226 15.2755C26.8538 15.0839 26.8518 14.6947 27.1186 14.5005L31.5917 11.2439C31.7663 11.1168 32.0059 11.1151 32.1824 11.2397L36.7953 14.4962C37.0699 14.6901 37.0679 15.0883 36.7912 15.2796L32.1783 18.4683C32.0035 18.5891 31.7686 18.5875 31.5957 18.4642L27.1226 15.2755Z" fill="#75BF40"/>
<path d="M13.2029 25.5703C12.9341 25.3787 12.932 24.9895 13.1989 24.7953L17.672 21.5387C17.8466 21.4116 18.0862 21.4099 18.2627 21.5345L22.8755 24.791C23.1502 24.9849 23.1482 25.3832 22.8715 25.5744L18.2586 28.7631C18.0838 28.8839 17.8489 28.8823 17.676 28.759L13.2029 25.5703Z" fill="#8FDCEB"/>
<path d="M20.1627 20.4229C19.8939 20.2313 19.8919 19.8421 20.1587 19.6479L24.6319 16.3913C24.8065 16.2642 25.046 16.2625 25.2225 16.3871L29.8354 19.6436C30.1101 19.8375 30.108 20.2358 29.8314 20.427L25.2184 23.6157C25.0437 23.7365 24.8088 23.7349 24.6358 23.6116L20.1627 20.4229Z" fill="#79BF9F"/>
<path d="M13.2029 15.5972C12.9341 15.4056 12.932 15.0164 13.1989 14.8222L17.672 11.5656C17.8466 11.4385 18.0862 11.4368 18.2627 11.5614L22.8755 14.8179C23.1502 15.0118 23.1482 15.4101 22.8715 15.6013L18.2586 18.79C18.0838 18.9108 17.8489 18.9092 17.676 18.7859L13.2029 15.5972Z" fill="#ACDE45"/>
<path d="M20.1627 10.1281C19.8939 9.93647 19.8919 9.54733 20.1587 9.35308L24.6319 6.09651C24.8065 5.9694 25.046 5.96769 25.2225 6.0923L29.8354 9.34882C30.1101 9.54273 30.108 9.94095 29.8314 10.1322L25.2184 13.3209C25.0437 13.4417 24.8088 13.4401 24.6358 13.3168L20.1627 10.1281Z" fill="#DCDF4C"/>
<path fill-rule="evenodd" clip-rule="evenodd" d="M22.9717 41.6602C22.9717 38.4417 20.6258 37.8906 17.8252 37.8906V45C20.2071 45 22.9717 44.8014 22.9717 41.6602ZM18.7676 44.2334C20.5449 44.2334 22.0391 43.8084 22.0391 41.6602C22.0391 39.5908 20.8238 38.6621 18.7676 38.6621V44.2334Z" fill="black"/>
<path fill-rule="evenodd" clip-rule="evenodd" d="M24.3877 45V37.8906H26.3994C28.2538 37.8906 29.5342 39.1655 29.5342 41.2354C29.5342 42.7053 29.1538 44.1767 27.6445 44.7705C26.6381 45.1614 25.4431 45 24.3877 45ZM25.3301 44.2334V38.6621H26.3994C27.8454 38.6621 28.6016 39.8437 28.6016 41.2256C28.6016 42.2253 28.5135 43.3243 27.5811 43.916C26.9156 44.3319 26.0799 44.2334 25.3301 44.2334Z" fill="black"/>
<path d="M31.9609 37.8906V45H31.0186V37.8906H31.9609Z" fill="black"/>
</svg>
