<svg width="50" height="50" viewBox="0 0 50 50" fill="none" xmlns="http://www.w3.org/2000/svg">
<path d="M25 43C34.9411 43 43 34.9411 43 25C43 15.0589 34.9411 7 25 7C15.0589 7 7 15.0589 7 25C7 34.9411 15.0589 43 25 43Z" fill="#CC092F"/>
<path d="M40.8599 29.8629C38.8012 29.0424 36.9166 29.3174 35.0275 30.4627C34.0109 31.0831 32.8598 32.088 31.624 32.088C30.8624 32.088 30.1129 31.884 29.7959 30.4106C29.3014 28.1122 28.0952 22.4646 27.5686 19.6673C27.2593 18.0231 27.0897 17.1373 26.9134 16.5353C26.6457 15.6229 26.0254 14.7917 25 14.7945C23.9753 14.7973 23.3558 15.6195 23.0876 16.5353C22.9113 17.1373 22.7417 18.0231 22.4324 19.6673C21.9058 22.4646 20.6996 28.1122 20.2051 30.4106C19.8881 31.884 19.1386 32.088 18.377 32.088C17.5788 32.088 16.7484 31.5647 15.8682 31.0126C13.7784 29.698 11.5883 28.8871 9.14106 29.8629C8.69651 30.0403 8.25864 30.2389 7.8418 30.4396C8.12671 31.3332 8.4814 32.2127 8.89491 33.0386C10.0101 32.4905 11.1953 32.0476 12.4381 32.4639C13.1166 32.6911 13.7208 33.0936 14.3228 33.4717C15.4569 34.1845 16.7418 34.9928 18.377 34.9928C20.8005 34.9928 22.5011 33.5459 23.0443 31.0226C23.4656 29.0668 24.3991 24.7008 24.9988 21.6896C24.9988 21.6896 26.5354 29.0668 26.9556 31.0226C27.4988 33.5459 29.2005 34.9928 31.624 34.9928C33.2592 34.9928 34.5441 34.1845 35.6782 33.4717C36.9326 32.6838 38.1642 31.9998 39.6848 32.4483C40.1726 32.5925 40.6497 32.8149 41.1054 33.0389C41.52 32.2129 41.8737 31.333 42.1587 30.4394C41.7418 30.2387 41.3045 30.0403 40.8599 29.8629Z" fill="white"/>
</svg>
