<svg width="50" height="50" viewBox="0 0 50 50" fill="none" xmlns="http://www.w3.org/2000/svg">
<path d="M24.0779 19.0278L19.2602 16.212C17.5272 15.2028 16.6394 13.7357 16.6844 11.729C16.7081 10.6083 16.6702 9.48522 16.6844 8.36215C16.7247 6.4276 18.4055 5.39987 20.1101 6.3718C24.111 8.65047 28.0844 10.9757 32.0301 13.3473C33.7844 14.4007 33.7228 16.2794 31.9828 17.3839C31.1352 17.921 30.2569 18.4139 29.2294 19.0115C30.1764 19.5742 31.0145 20.0485 31.8336 20.5484C33.782 21.7413 33.8293 23.6363 31.8881 24.7872C28.0623 27.0551 24.2199 29.295 20.361 31.507C18.3227 32.6696 16.6915 31.7047 16.6797 29.3632C16.6797 28.2797 16.6797 27.1938 16.6797 26.1079C16.6797 24.292 17.4822 22.9178 19.0305 21.9761C20.6309 21.0274 22.2526 20.0997 24.0779 19.0278ZM19.2886 8.85044C19.2886 9.93398 19.3288 10.7478 19.2886 11.557C19.2152 12.7381 19.7171 13.531 20.7517 14.1147C22.4917 15.0866 24.1939 16.1259 25.9245 17.1118C26.211 17.2746 26.6655 17.4908 26.8715 17.3792C28.0244 16.7863 29.1253 16.1004 30.3871 15.361L19.2886 8.85044ZM19.2886 29.1795L30.3729 22.6969C29.1892 21.9994 28.1972 21.3785 27.1532 20.8623C26.7851 20.7225 26.3611 20.7441 26.0097 20.9205C24.1371 21.9575 22.2645 23.0131 20.4699 24.1757C18.8148 25.3036 19.2957 27.4661 19.2957 29.1795H19.2886Z" fill="#FD5304"/>
<path d="M14.6143 41.2031C14.6143 41.8923 14.0704 42.3311 13.0811 42.3311C12.1797 42.3311 11.333 41.9146 11.333 40.9395H10.3955C10.3955 42.3373 11.81 43.0977 13.0811 43.0977C14.5928 43.0977 15.5615 42.3485 15.5615 41.1934C15.5615 40.081 14.8398 39.4609 13.2275 39.0059C12.073 38.6851 11.5625 38.3178 11.5625 37.7168C11.5625 37.049 12.0341 36.5645 13.0371 36.5645C14.0933 36.5645 14.6045 37.1326 14.6045 37.9414H15.542C15.542 36.6042 14.2835 35.793 13.0371 35.793C11.5908 35.793 10.6201 36.6105 10.6201 37.7266C10.6201 38.8321 11.514 39.4081 12.9248 39.8262C14.2846 40.2222 14.6143 40.5396 14.6143 41.2031Z" fill="#1C1D1F"/>
<path fill-rule="evenodd" clip-rule="evenodd" d="M18.8184 43.0977C17.2835 43.0977 16.3916 41.8137 16.3916 40.3389C16.3916 38.6092 17.5188 37.6191 18.7012 37.6191C20.3666 37.6191 20.874 39.1516 20.874 40.6123H17.3007C17.3232 41.508 17.8913 42.3604 18.8672 42.3604C19.5052 42.3604 19.9268 42.0788 20.2588 41.6426L20.8057 42.0771C20.4651 42.5928 19.8711 43.0977 18.8184 43.0977ZM17.3271 39.875H19.9707C19.9707 39.0893 19.5362 38.3613 18.7012 38.3613C17.9905 38.3613 17.4502 38.896 17.3271 39.875Z" fill="#1C1D1F"/>
<path d="M22.832 39.244V43H21.9287V37.7168H22.8076L22.8255 38.3232L22.832 38.3125C23.1015 37.8722 23.5144 37.6191 24.082 37.6191C24.2118 37.6191 24.4171 37.6548 24.4824 37.6875L24.4775 38.5273C24.3311 38.4955 24.2112 38.4883 24.0381 38.4883C23.4283 38.4883 23.0323 38.7773 22.832 39.244Z" fill="#1C1D1F"/>
<path fill-rule="evenodd" clip-rule="evenodd" d="M32.373 43.0977C33.4258 43.0977 34.0198 42.5928 34.3604 42.0771L33.8135 41.6426C33.4814 42.0788 33.0599 42.3604 32.4219 42.3604C31.467 42.3604 30.8798 41.5829 30.8553 40.6123H34.4287V40.207C34.4287 38.8381 33.7066 37.6191 32.2559 37.6191C31.0735 37.6191 29.9463 38.6092 29.9463 40.3389C29.9463 41.8216 30.7802 43.0977 32.373 43.0977ZM30.8818 39.875C31.0049 38.896 31.5452 38.3613 32.2559 38.3613C33.1026 38.3613 33.5254 39.107 33.5254 39.875H30.8818Z" fill="#1C1D1F"/>
<path d="M36.3867 39.244V43H35.4834V37.7168H36.3623L36.3801 38.3232C36.6583 37.8724 37.1052 37.6191 37.6367 37.6191C37.7665 37.6191 37.9718 37.6548 38.0371 37.6875L38.0322 38.5273C37.8858 38.4955 37.7659 38.4883 37.5928 38.4883C36.983 38.4883 36.587 38.7773 36.3867 39.244Z" fill="#1C1D1F"/>
<path d="M26.792 43H27.4805L29.3799 37.7168H28.457L27.1476 41.7646L25.8057 37.7168H24.8779L26.792 43Z" fill="#1C1D1F"/>
</svg>
