<svg width="50" height="50" viewBox="0 0 50 50" fill="none" xmlns="http://www.w3.org/2000/svg">
<path d="M24.0779 20.0278L19.2602 17.212C17.5272 16.2028 16.6394 14.7357 16.6844 12.729C16.7081 11.6083 16.6702 10.4852 16.6844 9.36215C16.7247 7.4276 18.4055 6.39987 20.1101 7.3718C24.111 9.65047 28.0844 11.9757 32.0301 14.3473C33.7844 15.4007 33.7228 17.2794 31.9828 18.3839C31.1352 18.921 30.2569 19.4139 29.2294 20.0115C30.1764 20.5742 31.0145 21.0485 31.8336 21.5484C33.782 22.7413 33.8293 24.6363 31.8881 25.7872C28.0623 28.0551 24.22 30.295 20.361 32.507C18.3227 33.6696 16.6915 32.7047 16.6797 30.3632C16.6797 29.2797 16.6797 28.1938 16.6797 27.1079C16.6797 25.292 17.4822 23.9178 19.0305 22.9761C20.6309 22.0274 22.2526 21.0997 24.0779 20.0278ZM19.2886 9.85044C19.2886 10.934 19.3288 11.7478 19.2886 12.557C19.2152 13.7381 19.7171 14.531 20.7517 15.1147C22.4917 16.0866 24.1939 17.1259 25.9245 18.1118C26.211 18.2746 26.6655 18.4908 26.8715 18.3792C28.0244 17.7863 29.1253 17.1004 30.3871 16.361L19.2886 9.85044ZM19.2886 30.1795L30.3729 23.6969C29.1892 22.9994 28.1972 22.3785 27.1532 21.8623C26.7851 21.7225 26.3611 21.7441 26.0097 21.9205C24.1371 22.9575 22.2645 24.0131 20.4699 25.1757C18.8148 26.3036 19.2957 28.4661 19.2957 30.1795H19.2886Z" fill="#FD5304"/>
<path d="M28.1113 44V36.5H27.2031V44H28.1113Z" fill="black"/>
<path d="M30.543 38.7168V44H29.6348V38.7168H30.543Z" fill="black"/>
<path d="M29.5664 37.3154C29.5664 37.0201 29.7499 36.793 30.0986 36.793C30.4465 36.793 30.6357 37.0248 30.6357 37.3154C30.6357 37.5907 30.4496 37.8232 30.0986 37.8232C29.7468 37.8232 29.5664 37.5951 29.5664 37.3154Z" fill="black"/>
<path d="M32.6035 38.7168L33.7607 40.6406L34.9326 38.7168H35.9922L34.2637 41.3242L36.0459 44H35.001L33.7803 42.0176L32.5596 44H31.5098L33.2871 41.3242L31.5635 38.7168H32.6035Z" fill="black"/>
<path fill-rule="evenodd" clip-rule="evenodd" d="M24.0195 44.0977C22.5606 44.0977 21.5928 42.9355 21.5928 41.5439C21.5928 40.1562 22.2906 38.6191 23.9023 38.6191C25.5677 38.6191 26.0752 40.1516 26.0752 41.6123H22.5018C22.5244 42.508 23.0924 43.3604 24.0684 43.3604C24.7064 43.3604 25.1279 43.0788 25.46 42.6426L26.0068 43.0771C25.6663 43.5928 25.0722 44.0977 24.0195 44.0977ZM22.5283 40.875H25.1719C25.1719 40.0893 24.7373 39.3613 23.9023 39.3613C23.1917 39.3613 22.6514 39.896 22.5283 40.875Z" fill="black"/>
<path d="M19.3516 39.9473V36.8906H20.2891V44H19.3516V40.7139H15.7676V44H14.8252V36.8906H15.7676V39.9473H19.3516Z" fill="black"/>
</svg>
