<svg width="50" height="50" viewBox="0 0 50 50" fill="none" xmlns="http://www.w3.org/2000/svg">
<path d="M24.0779 20.0278L19.2602 17.212C17.5272 16.2028 16.6394 14.7357 16.6844 12.729C16.7081 11.6083 16.6702 10.4852 16.6844 9.36215C16.7247 7.4276 18.4055 6.39987 20.1101 7.3718C24.111 9.65048 28.0844 11.9757 32.0301 14.3473C33.7844 15.4007 33.7228 17.2794 31.9828 18.3839C31.1352 18.921 30.2569 19.4139 29.2294 20.0115C30.1764 20.5742 31.0145 21.0485 31.8336 21.5484C33.782 22.7413 33.8293 24.6363 31.8881 25.7872C28.0623 28.0551 24.2199 30.295 20.361 32.507C18.3227 33.6696 16.6915 32.7047 16.6797 30.3632C16.6797 29.2797 16.6797 28.1938 16.6797 27.1079C16.6797 25.292 17.4822 23.9178 19.0305 22.9761C20.6309 22.0274 22.2526 21.0997 24.0779 20.0278ZM19.2886 9.85044C19.2886 10.934 19.3288 11.7478 19.2886 12.557C19.2152 13.7381 19.7171 14.531 20.7517 15.1147C22.4917 16.0866 24.1939 17.1259 25.9245 18.1118C26.211 18.2746 26.6655 18.4908 26.8715 18.3792C28.0244 17.7863 29.1253 17.1004 30.3871 16.361L19.2886 9.85044ZM19.2886 30.1795L30.3729 23.6969C29.1892 22.9994 28.1972 22.3785 27.1532 21.8623C26.9692 21.7924 26.7722 21.7615 26.5751 21.7715C26.3781 21.7815 26.1854 21.8323 26.0097 21.9205C24.1371 22.9575 22.2645 24.0131 20.4699 25.1757C19.9016 25.563 19.4987 26.1425 19.3383 26.8033C19.1608 27.8288 19.2957 28.9169 19.2957 30.1795H19.2886Z" fill="#FD5304"/>
<path d="M42.2954 41.7687C42.2954 41.6618 42.2725 41.5628 42.2268 41.4719C42.1836 41.3783 42.0935 41.2941 41.9564 41.2192C41.8218 41.1417 41.6186 41.0749 41.3469 41.0187C41.1184 40.9679 40.9115 40.9078 40.7261 40.8382C40.5433 40.7687 40.3871 40.6845 40.2576 40.5856C40.1306 40.4866 40.0329 40.3703 39.9643 40.2366C39.8957 40.1029 39.8615 39.9465 39.8615 39.7674C39.8615 39.5963 39.897 39.4345 39.9681 39.2821C40.0418 39.1297 40.1446 38.9947 40.2766 38.877C40.4112 38.7594 40.5725 38.6671 40.7604 38.6003C40.9483 38.5334 41.1578 38.5 41.3888 38.5C41.7189 38.5 42.0008 38.5615 42.2344 38.6845C42.468 38.8075 42.647 38.9719 42.7715 39.1778C42.8959 39.381 42.9581 39.6069 42.9581 39.8556H42.2535C42.2535 39.7353 42.2192 39.619 42.1506 39.5067C42.0846 39.3917 41.9868 39.2968 41.8573 39.2219C41.7304 39.1471 41.5742 39.1096 41.3888 39.1096C41.1933 39.1096 41.0346 39.1417 40.9127 39.2059C40.7934 39.2674 40.7058 39.3463 40.6499 39.4425C40.5966 39.5388 40.5699 39.6404 40.5699 39.7473C40.5699 39.8275 40.5826 39.8997 40.608 39.9639C40.6359 40.0254 40.6842 40.0829 40.7527 40.1364C40.8213 40.1872 40.9178 40.2353 41.0422 40.2808C41.1666 40.3262 41.3254 40.3717 41.5183 40.4171C41.8561 40.4973 42.1341 40.5936 42.3525 40.7059C42.5709 40.8182 42.7334 40.9559 42.84 41.119C42.9467 41.2821 43 41.4799 43 41.7126C43 41.9024 42.9619 42.0762 42.8857 42.234C42.8121 42.3917 42.7042 42.5281 42.562 42.643C42.4223 42.7553 42.2547 42.8436 42.0592 42.9078C41.8662 42.9692 41.6491 43 41.4079 43C41.0448 43 40.7375 42.9318 40.4861 42.7955C40.2347 42.6591 40.0443 42.4826 39.9148 42.266C39.7853 42.0495 39.7205 41.8209 39.7205 41.5802H40.429C40.4391 41.7834 40.495 41.9452 40.5966 42.0655C40.6982 42.1832 40.8226 42.2674 40.9699 42.3182C41.1171 42.3663 41.2631 42.3904 41.4079 42.3904C41.6009 42.3904 41.7621 42.3636 41.8916 42.3102C42.0237 42.2567 42.124 42.1832 42.1925 42.0896C42.2611 41.996 42.2954 41.889 42.2954 41.7687Z" fill="black"/>
<path d="M39.0692 38.5802V39.1497H36.841V38.5802H39.0692ZM37.5952 37.5254H38.2998V41.8449C38.2998 41.992 38.3214 42.1029 38.3646 42.1778C38.4077 42.2527 38.4636 42.3021 38.5322 42.3262C38.6007 42.3503 38.6744 42.3623 38.7531 42.3623C38.8115 42.3623 38.8724 42.357 38.9359 42.3463C39.0019 42.3329 39.0514 42.3222 39.0844 42.3142L39.0883 42.9198C39.0324 42.9385 38.9588 42.9559 38.8673 42.9719C38.7785 42.9906 38.6705 43 38.5436 43C38.3709 43 38.2122 42.9639 38.0675 42.8917C37.9227 42.8195 37.8072 42.6992 37.7209 42.5308C37.6371 42.3596 37.5952 42.1297 37.5952 41.8409V37.5254Z" fill="black"/>
<path d="M33.7367 39.5067V42.9198H33.0321V38.5802H33.6987L33.7367 39.5067ZM33.5692 40.5856L33.2759 40.5735C33.2784 40.2767 33.3203 40.0027 33.4016 39.7513C33.4828 39.4973 33.5971 39.2767 33.7444 39.0896C33.8916 38.9024 34.0669 38.758 34.27 38.6564C34.4757 38.5521 34.7029 38.5 34.9518 38.5C35.1549 38.5 35.3378 38.5294 35.5003 38.5882C35.6628 38.6444 35.8012 38.7353 35.9154 38.861C36.0322 38.9866 36.1211 39.1497 36.1821 39.3503C36.243 39.5481 36.2735 39.7901 36.2735 40.0762V42.9198H35.565V40.0682C35.565 39.8409 35.5333 39.6591 35.4698 39.5227C35.4063 39.3837 35.3136 39.2834 35.1917 39.2219C35.0699 39.1578 34.92 39.1257 34.7423 39.1257C34.5671 39.1257 34.4071 39.1644 34.2624 39.242C34.1202 39.3195 33.997 39.4265 33.8929 39.5628C33.7913 39.6992 33.7114 39.8556 33.653 40.0321C33.5971 40.2059 33.5692 40.3904 33.5692 40.5856Z" fill="black"/>
<path d="M31.9009 38.5802V42.9198H31.1924V38.5802H31.9009ZM31.1391 37.4291C31.1391 37.3088 31.1734 37.2072 31.2419 37.1243C31.313 37.0414 31.4171 37 31.5542 37C31.6888 37 31.7917 37.0414 31.8628 37.1243C31.9364 37.2072 31.9732 37.3088 31.9732 37.4291C31.9732 37.5441 31.9364 37.643 31.8628 37.7259C31.7917 37.8061 31.6888 37.8463 31.5542 37.8463C31.4171 37.8463 31.313 37.8061 31.2419 37.7259C31.1734 37.643 31.1391 37.5441 31.1391 37.4291Z" fill="black"/>
<path d="M29.1965 39.262V42.9198H28.4919V38.5802H29.1775L29.1965 39.262ZM30.4839 38.5562L30.4801 39.246C30.4217 39.2326 30.3659 39.2246 30.3125 39.2219C30.2618 39.2166 30.2034 39.2139 30.1373 39.2139C29.9748 39.2139 29.8314 39.2406 29.7069 39.2941C29.5825 39.3476 29.4771 39.4225 29.3908 39.5187C29.3045 39.615 29.2359 39.7299 29.1851 39.8636C29.1369 39.9947 29.1051 40.139 29.0899 40.2968L28.8918 40.4171C28.8918 40.1551 28.9159 39.9091 28.9642 39.6791C29.015 39.4492 29.0924 39.246 29.1965 39.0695C29.3006 38.8904 29.4327 38.7513 29.5927 38.6524C29.7552 38.5508 29.9482 38.5 30.1716 38.5C30.2224 38.5 30.2808 38.5067 30.3468 38.5201C30.4128 38.5307 30.4586 38.5428 30.4839 38.5562Z" fill="black"/>
<path d="M25.7228 40.6297H24.2412V40H25.7228C26.0098 40 26.2421 39.9519 26.4198 39.8556C26.5976 39.7594 26.7271 39.6257 26.8084 39.4545C26.8922 39.2834 26.9341 39.0882 26.9341 38.869C26.9341 38.6684 26.8922 38.4799 26.8084 38.3035C26.7271 38.127 26.5976 37.9853 26.4198 37.8783C26.2421 37.7687 26.0098 37.7139 25.7228 37.7139H24.4126V42.9198H23.6774V37.0802H25.7228C26.1418 37.0802 26.496 37.1564 26.7855 37.3088C27.075 37.4612 27.2946 37.6725 27.4444 37.9425C27.5943 38.2099 27.6692 38.516 27.6692 38.861C27.6692 39.2353 27.5943 39.5548 27.4444 39.8195C27.2946 40.0842 27.075 40.2861 26.7855 40.4251C26.496 40.5615 26.1418 40.6297 25.7228 40.6297Z" fill="black"/>
<path d="M22.7443 38.5802V39.1497H20.5161V38.5802H22.7443ZM21.2702 37.5254H21.9749V41.8449C21.9749 41.992 21.9964 42.1029 22.0396 42.1778C22.0828 42.2527 22.1386 42.3021 22.2072 42.3262C22.2758 42.3503 22.3494 42.3623 22.4281 42.3623C22.4865 42.3623 22.5475 42.357 22.6109 42.3463C22.677 42.3329 22.7265 42.3222 22.7595 42.3142L22.7633 42.9198C22.7074 42.9385 22.6338 42.9559 22.5424 42.9719C22.4535 42.9906 22.3456 43 22.2186 43C22.046 43 21.8873 42.9639 21.7425 42.8917C21.5978 42.8195 21.4822 42.6992 21.3959 42.5308C21.3121 42.3596 21.2702 42.1297 21.2702 41.8409V37.5254Z" fill="black"/>
<path d="M16.3834 40.7981V40.7059C16.3834 40.393 16.4266 40.1029 16.5129 39.8356C16.5992 39.5655 16.7237 39.3316 16.8862 39.1337C17.0487 38.9332 17.2455 38.7781 17.4765 38.6684C17.7076 38.5562 17.9666 38.5 18.2536 38.5C18.543 38.5 18.8033 38.5562 19.0344 38.6684C19.268 38.7781 19.4661 38.9332 19.6286 39.1337C19.7936 39.3316 19.9193 39.5655 20.0057 39.8356C20.092 40.1029 20.1352 40.393 20.1352 40.7059V40.7981C20.1352 41.111 20.092 41.4011 20.0057 41.6684C19.9193 41.9358 19.7936 42.1698 19.6286 42.3703C19.4661 42.5682 19.2693 42.7233 19.0382 42.8356C18.8097 42.9452 18.5507 43 18.2612 43C17.9717 43 17.7114 42.9452 17.4804 42.8356C17.2493 42.7233 17.0512 42.5682 16.8862 42.3703C16.7237 42.1698 16.5992 41.9358 16.5129 41.6684C16.4266 41.4011 16.3834 41.111 16.3834 40.7981ZM17.088 40.7059V40.7981C17.088 41.0147 17.1122 41.2193 17.1604 41.4118C17.2087 41.6016 17.281 41.7701 17.3775 41.9171C17.4765 42.0642 17.5997 42.1805 17.747 42.266C17.8943 42.3489 18.0657 42.3904 18.2612 42.3904C18.4542 42.3904 18.623 42.3489 18.7678 42.266C18.915 42.1805 19.0369 42.0642 19.1334 41.9171C19.2299 41.7701 19.3023 41.6016 19.3505 41.4118C19.4013 41.2193 19.4267 41.0147 19.4267 40.7981V40.7059C19.4267 40.492 19.4013 40.2901 19.3505 40.1003C19.3023 39.9078 19.2286 39.738 19.1296 39.5909C19.0331 39.4412 18.9112 39.3235 18.764 39.238C18.6192 39.1524 18.4491 39.1096 18.2536 39.1096C18.0606 39.1096 17.8904 39.1524 17.7432 39.238C17.5984 39.3235 17.4765 39.4412 17.3775 39.5909C17.281 39.738 17.2087 39.9078 17.1604 40.1003C17.1122 40.2901 17.088 40.492 17.088 40.7059Z" fill="black"/>
<path d="M11.9346 40.7981V40.7059C11.9346 40.393 11.9778 40.1029 12.0641 39.8356C12.1504 39.5655 12.2749 39.3316 12.4374 39.1337C12.5999 38.9332 12.7967 38.7781 13.0278 38.6684C13.2588 38.5562 13.5178 38.5 13.8048 38.5C14.0942 38.5 14.3545 38.5562 14.5856 38.6684C14.8192 38.7781 15.0173 38.9332 15.1798 39.1337C15.3448 39.3316 15.4705 39.5655 15.5569 39.8356C15.6432 40.1029 15.6864 40.393 15.6864 40.7059V40.7981C15.6864 41.111 15.6432 41.4011 15.5569 41.6684C15.4705 41.9358 15.3448 42.1698 15.1798 42.3703C15.0173 42.5682 14.8205 42.7233 14.5894 42.8356C14.3609 42.9452 14.1019 43 13.8124 43C13.5229 43 13.2626 42.9452 13.0316 42.8356C12.8005 42.7233 12.6024 42.5682 12.4374 42.3703C12.2749 42.1698 12.1504 41.9358 12.0641 41.6684C11.9778 41.4011 11.9346 41.111 11.9346 40.7981ZM12.6392 40.7059V40.7981C12.6392 41.0147 12.6634 41.2193 12.7116 41.4118C12.7599 41.6016 12.8322 41.7701 12.9287 41.9171C13.0278 42.0642 13.1509 42.1805 13.2982 42.266C13.4455 42.3489 13.6169 42.3904 13.8124 42.3904C14.0054 42.3904 14.1742 42.3489 14.319 42.266C14.4662 42.1805 14.5881 42.0642 14.6846 41.9171C14.7811 41.7701 14.8535 41.6016 14.9017 41.4118C14.9525 41.2193 14.9779 41.0147 14.9779 40.7981V40.7059C14.9779 40.492 14.9525 40.2901 14.9017 40.1003C14.8535 39.9078 14.7798 39.738 14.6808 39.5909C14.5843 39.4412 14.4624 39.3235 14.3152 39.238C14.1704 39.1524 14.0003 39.1096 13.8048 39.1096C13.6118 39.1096 13.4417 39.1524 13.2944 39.238C13.1496 39.3235 13.0278 39.4412 12.9287 39.5909C12.8322 39.738 12.7599 39.9078 12.7116 40.1003C12.6634 40.2901 12.6392 40.492 12.6392 40.7059Z" fill="black"/>
<path d="M8.73512 37.0802V42.9198H8V37.0802H8.73512ZM11.0585 39.7072V40.3409H8.57514V39.7072H11.0585ZM11.4356 37.0802V37.7139H8.57514V37.0802H11.4356Z" fill="black"/>
</svg>
