<svg width="50" height="50" viewBox="0 0 50 50" fill="none" xmlns="http://www.w3.org/2000/svg">
<path d="M24.0782 19.0278L19.2605 16.212C17.5275 15.2028 16.6397 13.7357 16.6847 11.729C16.7084 10.6083 16.6705 9.48522 16.6847 8.36215C16.725 6.4276 18.4058 5.39987 20.1104 6.3718C24.1113 8.65047 28.0847 10.9757 32.0304 13.3473C33.7847 14.4007 33.7231 16.2794 31.9831 17.3839C31.1355 17.921 30.2572 18.4139 29.2297 19.0115C30.1767 19.5742 31.0148 20.0485 31.8339 20.5484C33.7823 21.7413 33.8296 23.6363 31.8884 24.7872C28.0626 27.0551 24.2202 29.295 20.3613 31.507C18.323 32.6696 16.6918 31.7047 16.68 29.3632C16.68 28.2797 16.68 27.1938 16.68 26.1079C16.68 24.292 17.4825 22.9178 19.0308 21.9761C20.6312 21.0274 22.2529 20.0997 24.0782 19.0278ZM19.2889 8.85044C19.2889 9.93398 19.3291 10.7478 19.2889 11.557C19.2155 12.7381 19.7174 13.531 20.752 14.1147C22.492 15.0866 24.1942 16.1259 25.9248 17.1118C26.2113 17.2746 26.6658 17.4908 26.8718 17.3792C28.0247 16.7863 29.1256 16.1004 30.3874 15.361L19.2889 8.85044ZM19.2889 29.1795L30.3732 22.6969C29.1895 21.9994 28.1975 21.3785 27.1535 20.8623C26.7854 20.7225 26.3614 20.7441 26.01 20.9205C24.1374 21.9575 22.2648 23.0131 20.4702 24.1757C18.8151 25.3036 19.296 27.4661 19.296 29.1795H19.2889Z" fill="#FD5304"/>
<path d="M14.2676 36.5205L11.9141 43H10.9521L13.6621 35.8907H14.2822L14.2676 36.5205ZM16.2402 43L13.8818 36.5205L13.8672 35.8907H14.4873L17.207 43H16.2402ZM16.1182 40.3682V41.1397H12.124V40.3682H16.1182Z" fill="#1C1D1F"/>
<path d="M20.083 43H18.5986L18.6084 42.2334H20.083C21.8892 42.2334 22.373 40.7466 22.373 39.2256C22.373 37.5837 21.5786 36.6621 20.1709 36.6621H18.5693V35.8907H20.1709C22.0253 35.8907 23.3057 37.1655 23.3057 39.2354C23.3057 41.2893 22.3197 43 20.083 43ZM19.1016 35.8907V43H18.1592V35.8907H19.1016Z" fill="#1C1D1F"/>
<path d="M26.6455 43H25.1611L25.1709 42.2334H26.6455C28.1786 42.2334 28.9355 41.2002 28.9355 39.6602C28.9355 38.1702 28.4806 36.6621 26.7334 36.6621H25.1318V35.8907C27.9111 35.8907 29.8682 36.5496 29.8682 39.6602C29.8682 41.5844 28.5522 43 26.6455 43ZM25.6641 35.8907V43H24.7217V35.8907H25.6641Z" fill="#1C1D1F"/>
<path d="M31.582 35.8907H32.4951L34.8242 41.6866L37.1484 35.8907H38.0664L35.1758 43H34.4629L31.582 35.8907ZM31.2842 35.8907H32.0898L32.2217 43H31.2842V35.8907ZM37.5537 35.8907H38.3594V43H37.4219L37.5537 35.8907Z" fill="#1C1D1F"/>
</svg>
