<svg width="50" height="50" viewBox="0 0 50 50" fill="none" xmlns="http://www.w3.org/2000/svg">
<path d="M23.7688 25.0371L17.3348 21.2767C15.0205 19.929 13.8349 17.9696 13.895 15.2898C13.9266 13.7931 13.876 12.2933 13.895 10.7935C13.9487 8.20996 16.1935 6.83746 18.4699 8.13544C23.813 11.1785 29.1193 14.2837 34.3887 17.4511C36.7314 18.8577 36.6492 21.3667 34.3254 22.8417C33.1936 23.559 32.0206 24.2173 30.6485 25.0153C31.9131 25.7668 33.0323 26.4003 34.1262 27.0679C36.7283 28.6609 36.7915 31.1916 34.199 32.7287C29.0898 35.7573 23.9585 38.7486 18.805 41.7027C16.0828 43.2553 13.9045 41.9667 13.8887 38.8397C13.8887 37.3927 13.8887 35.9426 13.8887 34.4924C13.8887 32.0673 14.9605 30.2321 17.0282 28.9745C19.1654 27.7076 21.3311 26.4686 23.7688 25.0371ZM17.3728 11.4456C17.3728 12.8926 17.4265 13.9794 17.3728 15.0601C17.2748 16.6375 17.945 17.6964 19.3267 18.4758C21.6505 19.7738 23.9237 21.1618 26.2348 22.4784C26.6174 22.6958 27.2244 22.9845 27.4995 22.8355C29.0392 22.0437 30.5093 21.1276 32.1945 20.1402L17.3728 11.4456ZM17.3728 38.5944L32.1755 29.9371C30.5947 29.0055 29.27 28.1764 27.8757 27.4871C27.3842 27.3004 26.8179 27.3291 26.3486 27.5647C23.8478 28.9496 21.3469 30.3594 18.9504 31.912C18.1915 32.4292 17.6534 33.2031 17.4392 34.0857C17.2021 35.455 17.3823 36.9083 17.3823 38.5944H17.3728Z" fill="#FD5304"/>
</svg>
