<svg width="50" height="50" viewBox="0 0 50 50" fill="none" xmlns="http://www.w3.org/2000/svg">
<path d="M24.0786 19.0278L19.2609 16.212C17.5279 15.2028 16.6401 13.7357 16.6851 11.729C16.7088 10.6083 16.6709 9.48522 16.6851 8.36215C16.7254 6.4276 18.4062 5.39987 20.1108 6.3718C24.1117 8.65047 28.0851 10.9757 32.0308 13.3473C33.7851 14.4007 33.7235 16.2794 31.9834 17.3839C31.1359 17.921 30.2576 18.4139 29.2301 19.0115C30.1771 19.5742 31.0152 20.0485 31.8343 20.5484C33.7827 21.7413 33.83 23.6363 31.8887 24.7872C28.063 27.0551 24.2206 29.295 20.3617 31.507C18.3234 32.6696 16.6922 31.7047 16.6804 29.3632C16.6804 28.2797 16.6804 27.1938 16.6804 26.1079C16.6804 24.292 17.4829 22.9178 19.0312 21.9761C20.6316 21.0274 22.2533 20.0997 24.0786 19.0278ZM19.2893 8.85044C19.2893 9.93398 19.3295 10.7478 19.2893 11.557C19.2159 12.7381 19.7178 13.531 20.7524 14.1147C22.4924 15.0866 24.1946 16.1259 25.9252 17.1118C26.2116 17.2746 26.6662 17.4908 26.8722 17.3792C28.0251 16.7863 29.126 16.1004 30.3878 15.361L19.2893 8.85044ZM19.2893 29.1795L30.3736 22.6969C29.1899 21.9994 28.1979 21.3785 27.1539 20.8623C26.7858 20.7225 26.3618 20.7441 26.0104 20.9205C24.1378 21.9575 22.2651 23.0131 20.4706 24.1757C18.8155 25.3036 19.2964 27.4661 19.2964 29.1795H19.2893Z" fill="#FD5304"/>
<path d="M36.1801 39.5818H34.3783L34.3686 38.825H36.0043C36.2745 38.825 36.5105 38.7794 36.7123 38.6883C37.1204 38.504 37.352 38.1525 37.352 37.6824C37.352 36.9005 36.9162 36.5691 35.975 36.5691H34.5883V42.907H33.6459V35.7977H35.975C37.432 35.7977 38.2943 36.3647 38.2943 37.6922C38.2943 38.2753 37.9812 38.7633 37.4447 39.0643C37.026 39.302 36.5775 39.3111 36.1801 39.5818ZM36.1361 42.907H34.5395V42.1404H36.1361C37.046 42.1404 37.5473 41.6375 37.5473 40.866C37.5473 40.075 37.1371 39.5818 36.1801 39.5818L34.8471 38.825C36.2715 38.825 38.4848 38.9424 38.4848 40.8563C38.4848 42.1719 37.5712 42.907 36.1361 42.907Z" fill="black"/>
<path d="M29.0072 42.907H27.5229L27.5326 42.1404H29.0072C29.515 42.1404 29.9382 42.0346 30.2768 41.823C30.9573 41.3912 31.2973 40.5971 31.2973 39.5672C31.2973 38.4792 31.1777 37.2192 30.0277 36.74C29.7576 36.6261 29.4467 36.5691 29.0951 36.5691H27.4936V35.7977H29.0951C29.5606 35.7977 29.9854 35.8758 30.3695 36.032C31.8614 36.6263 32.2299 38.1148 32.2299 39.5672C32.2299 41.1001 31.5389 42.2059 30.3402 42.6775C29.9464 42.8305 29.502 42.907 29.0072 42.907ZM28.0258 35.7977V42.907H27.0834V35.7977H28.0258Z" fill="black"/>
<path d="M18.6508 35.7977H19.5639L21.893 41.5936L24.2172 35.7977H25.1352L22.2445 42.907H21.5316L18.6508 35.7977ZM18.3529 35.7977H19.1586L19.2904 40.1336V42.907H18.3529V35.7977ZM24.6225 35.7977H25.4281V42.907H24.4906V40.1336L24.6225 35.7977Z" fill="black"/>
<path d="M16.1312 40.6463H17.0687C17.0199 41.0955 16.8913 41.4975 16.683 41.8523C15.8059 43.3462 13.4506 43.3839 12.3617 42.1063C11.25 40.787 11.2338 37.9299 12.3666 36.6033C13.4551 35.3452 15.8173 35.331 16.683 36.8426C16.8913 37.1974 17.0199 37.6092 17.0687 38.0779H16.1312C16.0857 37.7459 16.001 37.4611 15.8773 37.2234C15.3287 36.155 13.6854 36.2611 13.0209 37.1648C12.2229 38.2722 12.2269 40.3307 12.9818 41.4959C13.5941 42.441 15.3198 42.5816 15.8676 41.5008C15.9913 41.2632 16.0792 40.9783 16.1312 40.6463Z" fill="black"/>
</svg>
