<svg width="50" height="50" viewBox="0 0 50 50" fill="none" xmlns="http://www.w3.org/2000/svg">
<rect width="50" height="50" fill="#FD5304"/>
<path d="M24.0779 20.0278L19.2602 17.212C17.5272 16.2028 16.6394 14.7357 16.6844 12.729C16.7081 11.6083 16.6702 10.4852 16.6844 9.36215C16.7247 7.4276 18.4055 6.39987 20.1101 7.3718C24.111 9.65047 28.0844 11.9757 32.0301 14.3473C33.7844 15.4007 33.7228 17.2794 31.9828 18.3839C31.1352 18.921 30.2569 19.4139 29.2294 20.0115C30.1764 20.5742 31.0145 21.0485 31.8336 21.5484C33.782 22.7413 33.8293 24.6363 31.8881 25.7872C28.0623 28.0551 24.22 30.295 20.361 32.507C18.3227 33.6696 16.6915 32.7047 16.6797 30.3632C16.6797 29.2797 16.6797 28.1938 16.6797 27.1079C16.6797 25.292 17.4822 23.9178 19.0305 22.9761C20.6309 22.0274 22.2526 21.0997 24.0779 20.0278ZM19.2886 9.85044C19.2886 10.934 19.3288 11.7478 19.2886 12.557C19.2152 13.7381 19.7171 14.531 20.7517 15.1147C22.4917 16.0866 24.1939 17.1259 25.9245 18.1118C26.211 18.2746 26.6655 18.4908 26.8715 18.3792C28.0244 17.7863 29.1253 17.1004 30.3871 16.361L19.2886 9.85044ZM19.2886 30.1795L30.3729 23.6969C29.1892 22.9994 28.1972 22.3785 27.1532 21.8623C26.7851 21.7225 26.3611 21.7441 26.0097 21.9205C24.1371 22.9575 22.2645 24.0131 20.4699 25.1757C18.8148 26.3036 19.2957 28.4661 19.2957 30.1795H19.2886Z" fill="white"/>
<path d="M42.2268 41.4719C42.1407 41.2853 41.8919 41.1313 41.3469 41.0187C40.6696 40.8681 40.1725 40.6427 39.9643 40.2366C39.8303 39.9752 39.8226 39.594 39.9681 39.2821C40.1906 38.8216 40.6981 38.5 41.3888 38.5C42.376 38.5 42.9581 39.1049 42.9581 39.8556H42.2535C42.2535 39.4946 41.949 39.1096 41.3888 39.1096C40.9306 39.1096 40.4003 39.4391 40.608 39.9639C40.6908 40.1461 40.9357 40.2799 41.5183 40.4171C42.5315 40.6578 43 41.0147 43 41.7126C43 42.4579 42.3959 43 41.4079 43C40.3185 43 39.7205 42.3021 39.7205 41.5802H40.429C40.4559 42.1189 40.9128 42.3904 41.4079 42.3904C41.9084 42.3904 42.5197 42.0545 42.2268 41.4719Z" fill="white"/>
<path d="M39.0692 38.5802V39.1497H36.841V38.5802H39.0692ZM37.5952 37.5254H38.2998V41.8449C38.2998 42.3475 38.6651 42.4161 39.0844 42.3142L39.0883 42.9198C38.231 43.207 37.5952 42.7365 37.5952 41.8409V37.5254Z" fill="white"/>
<path d="M33.7367 39.5067V42.9198H33.0321V38.5802H33.6987L33.7367 39.5067ZM33.7444 39.0896C34.2278 38.4753 35.3369 38.2247 35.9154 38.861C36.1476 39.1108 36.2735 39.5005 36.2735 40.0762V42.9198H35.565V40.0682C35.565 39.072 34.4663 38.8118 33.8929 39.5628C33.7913 39.6992 33.7114 39.8556 33.653 40.0321C33.3134 41.0885 33.3745 39.5596 33.7444 39.0896Z" fill="white"/>
<path d="M31.9009 38.5802V42.9198H31.1924V38.5802H31.9009ZM31.1391 37.4291C31.1391 37.1867 31.2821 37 31.5542 37C31.8255 37 31.9732 37.1903 31.9732 37.4291C31.9732 37.6553 31.828 37.8463 31.5542 37.8463C31.2795 37.8463 31.1391 37.6587 31.1391 37.4291Z" fill="white"/>
<path d="M29.1965 39.262V42.9198H28.4919V38.5802H29.1775L29.1965 39.262ZM30.4839 38.5562L30.4801 39.246C29.9457 39.1236 29.3899 39.3244 29.1851 39.8636C28.8284 40.8323 28.9817 39.4337 29.1965 39.0695C29.4243 38.6776 30.0254 38.3147 30.4839 38.5562Z" fill="white"/>
<path d="M25.7228 40.6297H24.2412V40H25.7228C26.5853 40 26.9341 39.5242 26.9341 38.869C26.9341 38.2683 26.5814 37.7139 25.7228 37.7139H24.4126V42.9198H23.6774V37.0802H25.7228C26.9766 37.0802 27.6692 37.8209 27.6692 38.861C27.6692 39.9826 26.9828 40.6297 25.7228 40.6297Z" fill="white"/>
<path d="M22.7443 38.5802V39.1497H20.5161V38.5802H22.7443ZM21.2702 37.5254H21.9749V41.8449C21.9749 42.3212 22.3327 42.4179 22.7595 42.3142L22.7633 42.9198C21.8921 43.2117 21.2702 42.6958 21.2702 41.8409V37.5254Z" fill="white"/>
<path d="M16.3834 40.7981C16.3834 39.6724 16.9738 38.5 18.2536 38.5C19.4117 38.5 20.1352 39.4463 20.1352 40.7059C20.1352 41.8337 19.542 43 18.2612 43C17.0983 43 16.3834 42.047 16.3834 40.7981ZM17.088 40.7981C17.088 41.6577 17.475 42.3904 18.2612 42.3904C19.1614 42.3904 19.4267 41.4434 19.4267 40.7059C19.4267 39.8446 19.0395 39.1096 18.2536 39.1096C17.3604 39.1096 17.088 40.0677 17.088 40.7981Z" fill="white"/>
<path d="M11.9346 40.7981C11.9346 39.6724 12.525 38.5 13.8048 38.5C15.0897 38.5 15.6864 39.6653 15.6864 40.7981C15.6864 42.0365 14.9905 43 13.8124 43C12.6495 43 11.9346 42.047 11.9346 40.7981ZM12.6392 40.7981C12.6392 41.6577 13.0262 42.3904 13.8124 42.3904C14.5998 42.3904 14.9779 41.6495 14.9779 40.7981C14.9779 40.0568 14.7079 39.1096 13.8048 39.1096C12.9116 39.1096 12.6392 40.0677 12.6392 40.7981Z" fill="white"/>
<path d="M8.73512 37.0802V42.9198H8V37.0802H8.73512ZM11.0585 39.7072V40.3409H8.57514V39.7072H11.0585ZM11.4356 37.0802V37.7139H8.57514V37.0802H11.4356Z" fill="white"/>
</svg>
