<svg width="50" height="50" viewBox="0 0 50 50" fill="none" xmlns="http://www.w3.org/2000/svg">
<rect width="50" height="50" fill="#FD5304"/>
<path d="M23.7688 25.0368L17.3348 21.2764C15.0205 19.9288 13.8349 17.9694 13.895 15.2896C13.9266 13.7929 13.876 12.2931 13.895 10.7932C13.9487 8.20972 16.1935 6.83722 18.4699 8.13519C23.813 11.1783 29.1193 14.2835 34.3887 17.4508C36.7314 18.8575 36.6492 21.3665 34.3254 22.8415C33.1936 23.5588 32.0206 24.2171 30.6485 25.0151C31.9131 25.7666 33.0323 26.4 34.1262 27.0676C36.7283 28.6606 36.7915 31.1914 34.199 32.7284C29.0898 35.757 23.9585 38.7484 18.805 41.7025C16.0828 43.2551 13.9045 41.9664 13.8887 38.8395C13.8887 37.3925 13.8887 35.9423 13.8887 34.4922C13.8887 32.067 14.9605 30.2318 17.0282 28.9742C19.1654 27.7073 21.3311 26.4683 23.7688 25.0368ZM17.3728 11.4453C17.3728 12.8924 17.4265 13.9792 17.3728 15.0598C17.2748 16.6373 17.945 17.6961 19.3267 18.4755C21.6505 19.7735 23.9237 21.1615 26.2348 22.4781C26.6174 22.6955 27.2244 22.9843 27.4995 22.8352C29.0392 22.0434 30.5093 21.1274 32.1945 20.1399L17.3728 11.4453ZM17.3728 38.5942L32.1755 29.9369C30.5947 29.0053 29.27 28.1762 27.8757 27.4868C27.3842 27.3001 26.8179 27.3289 26.3486 27.5645C23.8478 28.9494 21.3469 30.3592 18.9504 31.9118C18.1915 32.4289 17.6534 33.2029 17.4392 34.0854C17.2021 35.4548 17.3823 36.908 17.3823 38.5942H17.3728Z" fill="white"/>
</svg>
