<svg width="50" height="50" viewBox="0 0 50 50" fill="none" xmlns="http://www.w3.org/2000/svg">
<path d="M24.0779 19.0278L19.2602 16.212C17.5272 15.2028 16.6394 13.7357 16.6844 11.729C16.7081 10.6083 16.6702 9.48522 16.6844 8.36215C16.7247 6.4276 18.4055 5.39987 20.1101 6.3718C24.111 8.65047 28.0844 10.9757 32.0301 13.3473C33.7844 14.4007 33.7228 16.2794 31.9828 17.3839C31.1352 17.921 30.2569 18.4139 29.2294 19.0115C30.1764 19.5742 31.0145 20.0485 31.8336 20.5484C33.782 21.7413 33.8293 23.6363 31.8881 24.7872C28.0623 27.0551 24.2199 29.295 20.361 31.507C18.3227 32.6696 16.6915 31.7047 16.6797 29.3632C16.6797 28.2797 16.6797 27.1938 16.6797 26.1079C16.6797 24.292 17.4822 22.9178 19.0305 21.9761C20.6309 21.0274 22.2526 20.0997 24.0779 19.0278ZM19.2886 8.85044C19.2886 9.93398 19.3288 10.7478 19.2886 11.557C19.2152 12.7381 19.7171 13.531 20.7517 14.1147C22.4917 15.0866 24.1939 16.1259 25.9245 17.1118C26.211 17.2746 26.6655 17.4908 26.8715 17.3792C28.0244 16.7863 29.1253 16.1004 30.3871 15.361L19.2886 8.85044ZM19.2886 29.1795L30.3729 22.6969C29.1892 21.9994 28.1972 21.3785 27.1532 20.8623C26.7851 20.7225 26.3611 20.7441 26.0097 20.9205C24.1371 21.9575 22.2645 23.0131 20.4699 24.1757C18.8148 25.3036 19.2957 27.4661 19.2957 29.1795H19.2886Z" fill="#FD5304"/>
<path d="M38.6094 35.5V38.3488C38.9818 37.8962 39.5271 37.6191 40.167 37.6191C41.3385 37.6191 41.8613 38.4763 41.8613 39.5381V43H40.9531V39.5283C40.9531 38.6872 40.5748 38.3809 39.8984 38.3809C39.3239 38.3809 38.8655 38.7201 38.6094 39.2297V43H37.7061V35.5H38.6094Z" fill="black"/>
<path d="M45.4258 37.7168V38.4102H44.4395V41.6914C44.4395 42.2965 44.9708 42.3722 45.4453 42.2627L45.4502 43C44.3786 43.341 43.5361 42.7769 43.5361 41.6865V38.4102H42.5693V37.7168H43.5361V36.4326H44.4395V37.7168H45.4258Z" fill="black"/>
<path fill-rule="evenodd" clip-rule="evenodd" d="M36.334 37.7168H35.5137L35.4716 38.3062L35.4648 38.2979C35.1208 37.8564 34.6269 37.6191 33.9609 37.6191C32.4603 37.6191 31.876 39.1399 31.876 40.417C31.876 41.9988 33.1483 43.6912 34.8301 42.9268C35.0644 42.8172 35.2646 42.6635 35.4307 42.4658V42.9316C35.4307 43.8529 34.8871 44.3428 34.0293 44.3428C33.5567 44.3428 33.0585 44.1668 32.6133 43.6299L32.1396 44.167C32.568 44.7789 33.3693 45.085 34.0977 45.085C35.379 45.085 36.334 44.2084 36.334 42.8877V37.7168ZM35.4307 39.1496V41.5374C35.197 41.9964 34.8176 42.3311 34.1709 42.3311C33.1934 42.3311 32.7793 41.4765 32.7793 40.417C32.7793 39.5273 33.0925 38.3809 34.1807 38.3809C34.8109 38.3809 35.2029 38.7058 35.4307 39.1496Z" fill="black"/>
<path d="M30.6406 37.7168V43H29.7324V37.7168H30.6406Z" fill="black"/>
<path d="M29.6641 36.3154C29.6641 36.0201 29.8475 35.793 30.1963 35.793C30.5441 35.793 30.7334 36.0248 30.7334 36.3154C30.7334 36.5907 30.5473 36.8232 30.1963 36.8232C29.8444 36.8232 29.6641 36.5951 29.6641 36.3154Z" fill="black"/>
<path d="M27.5693 41.5986C27.5693 42.0356 27.1823 42.3555 26.4316 42.3555C25.8092 42.3555 25.2118 42.0357 25.1768 41.3691H24.2686C24.2686 42.5039 25.4167 43.0977 26.4316 43.0977C27.3736 43.0977 28.4727 42.6214 28.4727 41.5303C28.4727 40.6807 27.8721 40.2461 26.5732 39.9531C25.5699 39.7287 25.3574 39.5193 25.3574 39.1377C25.3574 38.7405 25.6708 38.3613 26.4072 38.3613C26.9254 38.3613 27.5156 38.6859 27.5156 39.2695H28.4189C28.4189 38.1736 27.3799 37.6191 26.4072 37.6191C25.5071 37.6191 24.4492 38.1529 24.4492 39.1621C24.4492 40.0429 25.1997 40.442 26.3535 40.6855C26.8652 40.786 27.5693 40.9638 27.5693 41.5986Z" fill="black"/>
<path fill-rule="evenodd" clip-rule="evenodd" d="M21.3828 43.0977C19.9226 43.0977 18.9561 42.0356 18.9561 40.5439C18.9561 39.1516 19.6656 37.6191 21.2656 37.6191C22.931 37.6191 23.4385 39.1516 23.4385 40.6123H19.8651C19.8896 41.5829 20.4768 42.3604 21.4316 42.3604C22.0697 42.3604 22.4912 42.0788 22.8232 41.6426L23.3701 42.0771C23.0296 42.5928 22.4355 43.0977 21.3828 43.0977ZM19.8916 39.875H22.5352C22.5352 39.0893 22.1006 38.3613 21.2656 38.3613C20.5549 38.3613 20.0147 38.896 19.8916 39.875Z" fill="black"/>
<path d="M16.9304 42.4773C16.6026 42.8672 16.1003 43.0977 15.3867 43.0977C14.6222 43.0977 14.0305 42.7837 13.7754 42.0283C13.694 41.7777 13.6533 41.4766 13.6533 41.125V37.7168H14.5566V41.1348C14.5566 41.7706 14.8505 42.3311 15.5283 42.3311C16.2744 42.3311 16.7012 42.0294 16.9053 41.5582V37.7168H17.8135V43H16.9492L16.9304 42.4773Z" fill="black"/>
<path d="M11.1875 38.3125L11.1809 38.3232L11.1631 37.7168H10.2842V43H11.1875V39.244C11.3878 38.7773 11.7838 38.4883 12.3936 38.4883C12.5667 38.4883 12.6866 38.4955 12.833 38.5273L12.8379 37.6875C12.7726 37.6548 12.5673 37.6191 12.4375 37.6191C11.8699 37.6191 11.4569 37.8722 11.1875 38.3125Z" fill="black"/>
<path d="M7.45215 43V36.6621H9.7373V35.8906H4.24414V36.6621H6.52441V43H7.45215Z" fill="black"/>
</svg>
