<svg width="50" height="50" viewBox="0 0 50 50" fill="none" xmlns="http://www.w3.org/2000/svg">
<rect width="50" height="50" fill="#FD5304"/>
<path d="M24.0779 20.0278L19.2602 17.212C17.5272 16.2028 16.6394 14.7357 16.6844 12.729C16.7081 11.6083 16.6702 10.4852 16.6844 9.36215C16.7247 7.4276 18.4055 6.39987 20.1101 7.3718C24.111 9.65047 28.0844 11.9757 32.0301 14.3473C33.7844 15.4007 33.7228 17.2794 31.9828 18.3839C31.1352 18.921 30.2569 19.4139 29.2294 20.0115C30.1764 20.5742 31.0145 21.0485 31.8336 21.5484C33.782 22.7413 33.8293 24.6363 31.8881 25.7872C28.0623 28.0551 24.22 30.295 20.361 32.507C18.3227 33.6696 16.6915 32.7047 16.6797 30.3632C16.6797 29.2797 16.6797 28.1938 16.6797 27.1079C16.6797 25.292 17.4822 23.9178 19.0305 22.9761C20.6309 22.0274 22.2526 21.0997 24.0779 20.0278ZM19.2886 9.85044C19.2886 10.934 19.3288 11.7478 19.2886 12.557C19.2152 13.7381 19.7171 14.531 20.7517 15.1147C22.4917 16.0866 24.1939 17.1259 25.9245 18.1118C26.211 18.2746 26.6655 18.4908 26.8715 18.3792C28.0244 17.7863 29.1253 17.1004 30.3871 16.361L19.2886 9.85044ZM19.2886 30.1795L30.3729 23.6969C29.1892 22.9994 28.1972 22.3785 27.1532 21.8623C26.7851 21.7225 26.3611 21.7441 26.0097 21.9205C24.1371 22.9575 22.2645 24.0131 20.4699 25.1757C18.8148 26.3036 19.2957 28.4661 19.2957 30.1795H19.2886Z" fill="white"/>
<path d="M25.5137 36.793C26.7495 36.793 28.0186 37.5767 28.0186 38.9414H27.0811C27.0811 38.1326 26.5698 37.5645 25.5137 37.5645C24.5106 37.5645 24.0391 38.049 24.0391 38.7168C24.0391 39.3178 24.5495 39.6851 25.7041 40.0059C27.3164 40.4609 28.0381 41.081 28.0381 42.1934C28.0381 43.3485 27.0694 44.0977 25.5576 44.0977C24.3059 44.0977 22.8721 43.3501 22.8721 41.9395H23.8096C23.8096 42.9146 24.6563 43.3311 25.5576 43.3311C26.5469 43.3311 27.0908 42.8923 27.0908 42.2031C27.0908 41.5396 26.7611 41.2222 25.4014 40.8262C23.9905 40.4082 23.0967 39.8321 23.0967 38.7266C23.0967 37.6105 24.0674 36.793 25.5137 36.793Z" fill="white"/>
<path d="M15.8359 44H14.8936V36.8906H15.8359V44Z" fill="white"/>
<path d="M22.3252 37.6621H20.04V44H19.1123V37.6621H16.832V36.8906H22.3252V37.6621Z" fill="white"/>
<path d="M32.7793 42.6865L35.1035 36.8906H36.3145V44H35.377L35.4668 38.2529L33.1309 44H32.418L30.0859 38.2451L30.1768 44H29.2393V36.8906H30.4502L32.7793 42.6865Z" fill="white"/>
</svg>
