<svg width="50" height="50" viewBox="0 0 50 50" fill="none" xmlns="http://www.w3.org/2000/svg">
<path fill-rule="evenodd" clip-rule="evenodd" d="M26.2626 10.0059C26.2947 10.007 26.3257 10.008 26.3544 10.0088H26.3944C31.1547 10.2054 34.8817 14.1011 34.8817 18.876C34.8816 21.1235 34.056 23.1763 32.6884 24.7383C34.0585 26.3004 34.8817 28.3505 34.8817 30.5928C34.8815 35.3729 31.1547 39.2682 26.3944 39.4648H26.3915C22.629 39.5456 18.8571 39.4707 15.0937 39.4707C14.5448 39.4707 14.0997 39.0247 14.0995 38.4746V34.8838C14.0995 34.3334 13.6544 33.8867 13.1054 33.8867H9.32022C8.77124 33.8867 8.32609 33.4409 8.32608 32.8906V10.9961C8.32629 10.4459 8.77136 10 9.32022 10H26.0282C26.1054 10 26.1875 10.0033 26.2626 10.0059ZM15.3417 27.7539C14.7929 27.7541 14.3477 28.1999 14.3476 28.75V32.4375C14.3477 32.9877 14.7929 33.4334 15.3417 33.4336H26.0282C27.5698 33.4333 28.8591 32.1513 28.8593 30.5928C28.8593 29.0632 27.6708 27.8219 26.1542 27.7588C22.5514 27.7138 18.945 27.7539 15.3417 27.7539ZM15.3417 16.0371C14.7929 16.0373 14.3476 16.483 14.3476 17.0332V20.7207C14.3477 21.2708 14.793 21.7166 15.3417 21.7168H26.0282C27.57 21.7165 28.859 20.4313 28.8593 18.876C28.8593 17.3466 27.6713 16.1055 26.1552 16.042C22.5516 16.0131 18.9456 16.0371 15.3417 16.0371Z" fill="#6A00FF"/>
<path d="M40.8212 33.8975C41.3699 33.8976 41.8151 34.3435 41.8153 34.8936V38.4395C41.8153 38.9896 41.37 39.4354 40.8212 39.4355H37.2841C36.7351 39.4355 36.2899 38.9898 36.2899 38.4395V34.8936C36.2902 34.3433 36.7352 33.8975 37.2841 33.8975H40.8212Z" fill="#6A00FF"/>
</svg>
