<svg width="50" height="50" viewBox="0 0 50 50" fill="none" xmlns="http://www.w3.org/2000/svg">
<path d="M18.3724 10.2939V25.6927C18.3724 27.9461 19.6426 29.4012 21.701 29.4369C23.5666 29.4693 25.4462 29.4369 27.3197 29.4488C27.5902 29.4488 27.7006 29.3672 27.6975 29.0506C27.6788 27.5308 27.8078 27.7929 26.5781 27.7827C24.9627 27.7708 23.3474 27.7827 21.7321 27.7827C20.6484 27.7827 19.9656 27.0266 19.9115 25.9718C19.8851 23.1297 19.896 20.2858 19.8975 17.4419C19.9283 17.1628 20.1288 17.2479 20.3795 17.2479C22.6385 17.2479 24.8974 17.2479 27.1549 17.2564C28.1581 17.2564 27.8479 15.5953 26.7382 15.5953H19.8975V14.5742C19.8975 12.714 19.8975 10.8555 19.8975 8.99705C19.8815 8.67248 20.0069 8.34665 20.2302 8.13249C20.9112 7.45172 21.5782 6.74884 22.3042 6V12.9897H30.0279V32H20.9765C18.5247 32 16.6233 30.3406 16.1056 27.7214C16.0356 27.3234 16.0043 26.9183 16.0123 26.5131C16.0123 22.1221 16.0123 17.7329 16.0015 13.342C15.9837 12.9564 16.13 12.5696 16.3917 12.3107C17.0307 11.6435 17.6354 10.9491 18.2666 10.2565L18.3724 10.2939ZM22.8421 19.8093C22.4845 19.8007 22.3182 19.9284 22.3213 20.3437C22.3337 21.7971 22.3306 23.2488 22.3213 24.7022C22.3213 25.0681 22.4612 25.1975 22.7877 25.1958C24.274 25.1867 25.7603 25.1867 27.2466 25.1958C27.5824 25.1958 27.7052 25.0443 27.7037 24.6852C27.6975 23.2341 27.6975 21.7818 27.7037 20.3283C27.7037 19.9539 27.5746 19.7922 27.2186 19.8024C25.764 19.843 24.2971 19.8365 22.8421 19.8093Z" fill="#FE5602"/>
<path d="M31.7169 14.2994C32.0791 14.7317 32.4305 15.1742 32.8052 15.5912C33.2617 16.1022 33.9173 16.4945 33.9852 17.2386C34.0049 20.7559 34.0049 24.2686 33.9852 27.7768C33.9882 28.0046 33.9159 28.2258 33.7815 28.3997C33.0866 29.1537 32.3636 29.877 31.6158 30.6445V14.422L31.7169 14.2994Z" fill="#FE5500"/>
<path d="M19.8251 36.8906H22.1787C23.7866 36.8906 24.6689 37.6384 24.6689 39.0244C24.6689 40.265 23.7589 40.7306 22.7597 41.1191H20.5478L20.538 40.3525H22.2079C23.2276 40.3525 23.7314 39.7554 23.7314 39.0244C23.7314 38.2057 23.2669 37.6621 22.1787 37.6621H20.7675V44H19.8251V36.8906ZM23.9804 44L22.2519 40.7773L23.2333 40.7725L24.9863 43.9414V44H23.9804Z" fill="#1C1D1F"/>
<path d="M28.0869 40.8262C26.676 40.4082 25.7822 39.8321 25.7822 38.7266C25.7822 37.6105 26.7529 36.793 28.1992 36.793C29.435 36.793 30.704 37.5767 30.704 38.9414H29.7665C29.7665 38.1326 29.2553 37.5645 28.1992 37.5645C27.1961 37.5645 26.7246 38.049 26.7246 38.7168C26.7246 39.3178 27.235 39.6851 28.3896 40.0059C29.6852 40.3716 31.3559 41.3634 30.5478 42.9795C29.9774 44.1202 28.3635 44.273 27.2714 43.9609C26.3292 43.689 25.5576 42.9565 25.5576 41.9395H26.4951C26.4951 42.9146 27.3418 43.3311 28.2431 43.3311C28.9007 43.3311 29.3613 43.1423 29.5956 42.8037C30.3963 41.6785 28.9039 41.0641 28.0869 40.8262Z" fill="#1C1D1F"/>
</svg>
