<svg width="50" height="50" viewBox="0 0 50 50" fill="none" xmlns="http://www.w3.org/2000/svg">
<rect width="50" height="50" fill="#FE5602"/>
<path d="M18.2406 10.9442V25.0892C18.2406 27.159 19.4402 28.4957 21.3843 28.5285C23.1463 28.5582 24.9215 28.5285 26.6908 28.5395C26.9463 28.5395 27.0506 28.4644 27.0476 28.1737C27.03 26.7776 27.1519 27.0183 25.9904 27.009C24.4648 26.998 22.9392 27.009 21.4136 27.009C20.3902 27.009 19.7453 26.3144 19.6942 25.3456C19.6693 22.7348 19.6795 20.1225 19.681 17.5102C19.7101 17.2538 19.8994 17.3319 20.1362 17.3319C22.2697 17.3319 24.4032 17.3319 26.5352 17.3398C27.4827 17.3398 27.1897 15.8139 26.1417 15.8139H19.681V14.8759C19.681 13.1672 19.681 11.4601 19.681 9.75291C19.6658 9.45476 19.7843 9.15546 19.9952 8.95873C20.6384 8.3334 21.2683 7.68774 21.954 6.99988V13.4205H29.2487V30.8829H20.7C18.3845 30.8829 16.5887 29.3587 16.0997 26.9527C16.0336 26.5871 16.004 26.215 16.0116 25.8427C16.0116 21.8093 16.0116 17.7775 16.0014 13.7441C15.9846 13.3898 16.1228 13.0346 16.3699 12.7967C16.9734 12.1839 17.5446 11.546 18.1407 10.9098L18.2406 10.9442ZM22.462 19.6848C22.1243 19.6769 21.9672 19.7942 21.9701 20.1756C21.9819 21.5107 21.9789 22.8442 21.9701 24.1793C21.9701 24.5155 22.1023 24.6343 22.4106 24.6327C23.8144 24.6244 25.2181 24.6244 26.6218 24.6327C26.939 24.6327 27.055 24.4936 27.0535 24.1637C27.0476 22.8307 27.0476 21.4967 27.0535 20.1616C27.0535 19.8176 26.9316 19.6691 26.5954 19.6785C25.2215 19.7158 23.8362 19.7098 22.462 19.6848Z" fill="white"/>
<path d="M30.8438 14.6235C31.1859 15.0206 31.5177 15.4271 31.8716 15.8101C32.3028 16.2795 32.9219 16.6399 32.986 17.3234C33.0046 20.5543 33.0046 23.781 32.986 27.0036C32.9889 27.2128 32.9206 27.416 32.7937 27.5758C32.1374 28.2683 31.4546 28.9327 30.7483 29.6378V14.7361L30.8438 14.6235Z" fill="white"/>
<path d="M19.6126 35.3753H21.8354C23.354 35.3753 24.1873 36.0622 24.1873 37.3354C24.1873 38.475 23.3279 38.9026 22.3842 39.2595H20.2952L20.2859 38.5554H21.8631C22.8261 38.5554 23.3019 38.0068 23.3019 37.3354C23.3019 36.5833 22.8632 36.084 21.8354 36.084H20.5027V41.9058H19.6126V35.3753ZM23.5371 41.9058L21.9046 38.9456L22.8315 38.9411L24.4871 41.852V41.9058H23.5371Z" fill="white"/>
<path d="M27.4154 38.9904C26.083 38.6064 25.2387 38.0773 25.2387 37.0618C25.2387 36.0366 26.1555 35.2856 27.5215 35.2856C28.6886 35.2856 29.8872 36.0055 29.8872 37.2591H29.0018C29.0018 36.5162 28.519 35.9943 27.5215 35.9943C26.5741 35.9943 26.1288 36.4394 26.1288 37.0528C26.1288 37.6048 26.6109 37.9423 27.7013 38.2369C28.925 38.5728 30.5028 39.4839 29.7396 40.9684C29.201 42.0162 27.6767 42.1566 26.6453 41.87C25.7554 41.6201 25.0266 40.9473 25.0266 40.0131H25.912C25.912 40.9089 26.7117 41.2914 27.563 41.2914C28.184 41.2914 28.619 41.1179 28.8404 40.807C29.5965 39.7734 28.1871 39.209 27.4154 38.9904Z" fill="white"/>
</svg>
