<svg width="50" height="50" viewBox="0 0 50 50" fill="none" xmlns="http://www.w3.org/2000/svg">
<rect width="50" height="50" fill="#1E1233"/>
<path d="M38.1826 27.1757C38.2515 27.2193 38.5971 28.4745 38.6529 28.6465C38.8793 28.6553 39.3868 28.6161 39.63 28.6039C40.1591 28.5773 40.6887 28.5575 41.2185 28.5441C41.1398 28.6534 41.0459 28.8496 40.9769 28.9745C40.8515 29.2025 40.7143 29.4239 40.5663 29.6383C39.6171 30.9878 38.268 32.0079 36.7079 32.5556C34.7389 33.2555 32.438 33.116 30.5498 32.2264C30.19 32.0665 29.1884 31.5201 29.0088 31.1939C28.9737 31.1302 28.9497 31.0567 28.9309 30.9866C28.8692 30.7568 28.837 30.5168 28.7849 30.2844C28.7186 29.9893 28.3088 28.4289 28.3639 28.2832C28.3708 28.2655 28.3667 28.2685 28.3797 28.2631C28.5883 28.1764 29.0665 28.162 29.3166 28.1315C29.5237 28.1061 30.1384 27.9956 30.318 28.0364C30.5261 28.0836 30.8576 28.4869 31.0329 28.6331C31.4185 28.9544 31.8569 29.2016 32.3202 29.3932C33.4347 29.8544 34.7064 29.8197 35.8148 29.3609C36.7286 28.9826 37.7979 28.1064 38.1826 27.1757Z" fill="white"/>
<path d="M21.5645 25.97C21.6939 25.9773 22.8655 27.1876 23.0186 27.3433C23.2103 27.5383 23.7679 28.0527 23.9117 28.2717C23.8344 28.3944 23.0981 29.1167 22.9261 29.2805C22.4024 29.7793 21.8618 30.382 21.3321 30.8586C19.7242 32.3055 17.6817 32.9866 15.5263 32.8835C15.2248 32.8653 14.9106 32.8231 14.6113 32.7781C14.5279 32.7655 14.4349 32.7567 14.4203 32.6635C14.5145 32.5316 14.6125 32.3414 14.7026 32.2002C14.9457 31.8194 15.1911 31.3726 15.4539 31.0092C15.1716 30.63 14.5811 29.728 14.402 29.3158C14.7797 29.5108 15.4945 29.6148 15.9193 29.6157C17.0276 29.6211 18.1026 29.2384 18.9564 28.5344C19.2988 28.2521 19.6744 27.8569 19.9943 27.5378L21.5645 25.97Z" fill="white"/>
<path d="M9.49051 20.3139C9.52142 20.3368 9.53129 20.3495 9.54223 20.3877C9.68109 20.8738 9.73022 21.5266 9.90908 21.9939C10.3879 22.0405 11.0269 22.3183 11.5195 22.3901C11.6438 22.4082 11.7908 22.4644 11.9204 22.4791C11.9443 22.4817 11.9295 22.5118 11.9314 22.5266C11.8288 22.8692 11.6501 23.1731 11.5371 23.5171C11.2513 24.3942 11.2311 25.3358 11.4793 26.2242C11.7206 27.1136 12.3255 27.9863 13.0338 28.5661C13.3049 28.7881 13.5634 28.8674 13.7669 29.1829C13.9898 29.5288 14.22 29.8758 14.4428 30.2222C14.5714 30.4302 14.8505 30.7958 14.9112 31.0177C14.8987 31.1457 14.1224 32.3551 13.9987 32.5501C13.9802 32.5774 13.961 32.587 13.9336 32.605C13.6568 32.6439 12.4584 32.1205 12.1735 31.9546C11.9744 31.8385 11.4997 31.5499 11.3029 31.4078C9.57218 30.1627 8.41557 28.2776 8.09244 26.1754C7.77635 24.1149 8.27781 22.0127 9.49051 20.3139Z" fill="white"/>
<path d="M22.2033 20.0372C22.2625 20.0285 22.3264 20.049 22.3707 20.0878C22.6249 20.3107 22.8627 20.5602 23.1019 20.7991L24.4483 22.1426L28.4496 26.0876L29.5496 27.1848C29.6701 27.3053 29.8682 27.534 29.9791 27.6231L28.5001 27.7932C28.3165 27.8134 27.9728 27.8634 27.7993 27.8596C27.9963 28.772 28.2068 29.6893 28.4259 30.5965C28.4296 30.6116 28.4228 30.637 28.418 30.6514C28.1972 30.5571 26.3768 28.6906 26.069 28.3838L23.0581 25.3842C22.7259 25.0534 22.3814 24.7379 22.0458 24.4113C21.8179 24.1897 20.0735 22.4943 20.0484 22.3919C20.0064 22.2101 20.0681 21.9445 20.0758 21.7549C20.0851 21.5277 20.0789 21.2996 20.0837 21.0722C20.0881 20.8712 20.1043 20.6712 20.102 20.47C20.4526 20.3838 20.7998 20.323 21.1514 20.2475C21.5096 20.1705 21.8369 20.0799 22.2033 20.0372Z" fill="white"/>
<path d="M35.9559 17.3734C36.3856 17.4164 37.1524 17.7259 37.542 17.9159C39.4402 18.8326 40.8916 20.4674 41.5737 22.4559C42.0624 23.912 42.1326 25.4753 41.7757 26.969C41.7115 27.2471 41.5478 27.8108 41.421 28.0681C41.2041 28.0971 40.95 28.099 40.7287 28.1065C40.1662 28.147 39.5224 28.1865 38.9613 28.1912C38.8712 27.954 38.5104 26.7463 38.5026 26.5442C38.493 26.2996 38.6096 26.0174 38.6529 25.7737C38.7978 24.9587 38.6737 24.1059 38.3688 23.3398C38.1339 22.7494 37.7556 22.1713 37.295 21.7305C37.1269 21.5696 36.9476 21.4204 36.759 21.2843C36.552 21.1375 36.3454 21.0232 36.1214 20.9058C36.0928 20.8908 36.0673 20.8535 36.0563 20.8229C36.0866 20.6877 36.9083 19.4978 37.0443 19.3167C36.8342 18.9119 36.546 18.4739 36.3282 18.0677C36.2294 17.8834 36.0032 17.5627 35.9559 17.3734Z" fill="white"/>
<path d="M33.9251 17.1101C34.3369 17.1078 34.923 17.1487 35.3183 17.229C35.5876 17.6463 35.8316 18.0963 36.0867 18.5255C36.182 18.6857 36.4819 19.1774 36.5381 19.3204C36.4555 19.5024 36.306 19.7069 36.1914 19.8757C36.0077 20.1463 35.8298 20.4067 35.6566 20.6845C35.1479 20.5074 34.5766 20.3966 34.0389 20.3974C32.9867 20.4074 31.9668 20.7627 31.1381 21.4087C30.7687 21.701 30.4178 22.0719 30.0813 22.4071L28.7605 23.725C28.6724 23.8065 28.4973 24.0239 28.3906 24.0383C28.3243 23.9936 27.784 23.4445 27.7287 23.3775C27.535 23.1436 26.1734 21.9054 26.1311 21.733C26.1518 21.6212 26.6277 21.1848 26.7389 21.0753L27.646 20.1737C28.0392 19.7815 28.4958 19.2991 28.9132 18.9479C29.9698 18.0704 31.238 17.4821 32.5921 17.2412C33.0003 17.1696 33.5136 17.1314 33.9251 17.1101Z" fill="white"/>
<path d="M15.85 17.0004C17.726 16.9819 19.66 17.6159 21.0888 18.8376C21.3918 19.0967 21.6637 19.343 21.9138 19.6574C21.2605 19.7967 20.6018 19.913 19.9511 20.0664C19.8516 20.0899 19.7512 20.1116 19.65 20.1262C19.6538 20.5898 19.6469 21.0513 19.6384 21.5147C19.6362 21.6348 19.646 21.8012 19.6171 21.9128C19.6064 21.915 19.5957 21.9173 19.5849 21.9195C19.3951 21.7736 19.0335 21.4119 18.8597 21.2831C18.1842 20.7828 17.4587 20.4519 16.6238 20.334C16.3598 20.2968 16.0714 20.301 15.811 20.3005C15.733 20.3007 15.6549 20.3021 15.5768 20.3054C15.3453 20.3171 15.0879 20.3764 14.862 20.4316C14.06 20.6309 13.3236 21.035 12.7265 21.6044C12.5773 21.7469 12.3931 21.9589 12.2495 22.1164C12.0001 22.0723 10.4032 21.7029 10.2692 21.6056C10.1845 21.5434 9.91367 20.0384 9.88475 19.8348C10.0879 19.5188 10.3993 19.2488 10.6775 18.9991C12.1415 17.6849 13.9033 17.0856 15.85 17.0004Z" fill="white"/>
</svg>
