<svg width="50" height="50" viewBox="0 0 50 50" fill="none" xmlns="http://www.w3.org/2000/svg">
<rect width="50" height="50" fill="#0075C9"/>
<path d="M13 8.5H37V32.5H13V8.5Z" fill="white"/>
<path d="M16.9565 15.5C17.3392 15.6935 17.4798 15.9959 17.4676 16.4263C17.443 17.3159 17.4609 18.2055 17.4609 19.1084C19.5931 17.9908 21.4152 18.2844 22.8981 20.2637C23.1417 19.8404 23.47 19.4714 23.8628 19.1799C24.8773 18.4267 26.2664 18.2551 27.4371 18.7292C28.8073 19.2663 29.7211 20.6385 29.6319 22.0151C29.527 23.6631 28.5161 24.9374 27.0008 25.3511C25.4019 25.7903 23.7383 25.1287 22.8378 23.6219C22.6805 23.8277 22.541 24.0445 22.3692 24.2313C21.3996 25.2799 20.2057 25.7036 18.8054 25.3822C17.4051 25.0608 16.4991 24.159 16.1275 22.7524C16.0999 22.6685 16.0663 22.5868 16.0271 22.5077V16.0582C16.1851 15.6306 16.5474 15.503 16.9565 15.5ZM21.8091 21.9806C21.8091 20.8086 20.8138 19.8423 19.6054 19.8445C18.4182 19.8445 17.4207 20.8097 17.4106 21.9651C17.4006 23.1393 18.3925 24.1101 19.6043 24.1134C20.7842 24.1341 21.7946 23.1629 21.8091 21.9806ZM23.8599 21.9806C23.8664 23.1627 24.8762 24.1372 26.0558 24.1134C27.2335 24.0958 28.2184 23.1183 28.2338 21.9384C28.2338 20.7886 27.2296 19.839 26.0256 19.8445C24.8578 19.8451 23.8726 20.8107 23.8599 21.9806Z" fill="#0075C9"/>
<path d="M32.7148 21.9807L34.4041 24.2202C34.6495 24.5463 34.8256 25.0482 34.4364 25.3477C34.0794 25.6224 33.6152 25.519 33.2794 25.0898L31.7831 23.1749C31.2459 23.8614 30.7436 24.523 30.2132 25.1809C29.9677 25.5006 29.476 25.5557 29.1655 25.2921C28.8463 25.052 28.7928 24.6539 29.0539 24.3058C29.6594 23.5106 30.328 22.7467 30.8871 21.9184C30.3047 21.1689 29.7222 20.4094 29.1297 19.6577C28.9523 19.4353 28.8463 19.1951 28.92 18.9149C29.075 18.313 29.8683 18.1933 30.2288 18.7003C30.7482 19.3725 31.2571 20.0527 31.7775 20.7241C32.2392 20.1624 33.0939 18.5765 33.8892 18.4698C34.086 18.4434 34.2853 18.495 34.4442 18.6136C34.7388 18.836 34.7846 19.2552 34.5168 19.6143C33.9232 20.4079 33.2879 21.1724 32.7148 21.9807Z" fill="#0075C9"/>
<path d="M12.2422 39.2695H10.7227V38.6562H12.2422C12.8307 38.6562 13.1888 38.4583 13.3555 38.125C13.5321 37.7825 13.527 37.3469 13.3555 37.0039C13.1883 36.6591 12.8289 36.4297 12.2422 36.4297H10.8984V41.5H10.1445V35.8125H12.2422C13.1016 35.8125 13.7005 36.1263 14.0078 36.6523C14.3227 37.186 14.3258 37.9469 14.0078 38.4805C13.701 38.9952 13.103 39.2695 12.2422 39.2695Z" fill="white"/>
<path d="M15.8672 35.5V41.5H15.1406V35.5H15.8672Z" fill="white"/>
<path d="M19.5195 40.7773V38.6016C19.5195 38.099 19.2134 37.7773 18.6289 37.7773C18.0899 37.7773 17.7148 38.089 17.7148 38.4453H16.9922C16.9922 38.1432 17.1536 37.8333 17.4453 37.5938C17.7444 37.3471 18.1653 37.1953 18.6719 37.1953C19.5985 37.1953 20.2422 37.665 20.2422 38.6094V40.5781C20.2422 40.8953 20.3906 41.1988 20.3906 41.5H19.6367C19.6003 41.4167 19.5716 41.306 19.5508 41.168C19.5299 41.0273 19.5195 40.8971 19.5195 40.7773ZM19.6445 38.9375L19.6523 39.4453H18.9219C18.1049 39.4453 17.6289 39.6975 17.6289 40.2266C17.6289 40.6261 17.9091 40.9453 18.4375 40.9453C18.8802 40.9453 19.2279 40.7318 19.4258 40.4609C19.9445 39.7693 19.8501 40.7767 19.4258 41.1602C19.1624 41.3977 18.7943 41.5781 18.332 41.5781C17.477 41.5781 16.9023 41.0279 16.9023 40.3242C16.9023 39.4064 17.6561 38.9375 18.8047 38.9375H19.6445Z" fill="white"/>
<path d="M23.1484 37.2734V37.8281H20.8633V37.2734H23.1484ZM21.6367 36.2461H22.3594V40.4531C22.3594 40.9347 22.7458 41.0067 23.1641 40.9102L23.168 41.5C22.309 41.7733 21.6367 41.3254 21.6367 40.4492V36.2461Z" fill="white"/>
<path d="M25.0742 41.5H24.3516V36.8281C24.3516 36.5234 24.4062 36.2669 24.5156 36.0586C24.7402 35.6356 25.1668 35.418 25.7383 35.418C25.9075 35.418 26.0792 35.4394 26.2383 35.4805L26.1992 36.0703C26.0919 36.0448 25.9466 36.0352 25.8086 36.0352C25.5055 36.0352 25.2764 36.1568 25.1602 36.3945C25.1029 36.5117 25.0742 36.6562 25.0742 36.8281V41.5ZM25.9727 37.2734V37.8281H23.6836V37.2734H25.9727Z" fill="white"/>
<path d="M26.5859 39.4336C26.5859 38.2779 27.2471 37.1953 28.5039 37.1953C29.7768 37.1953 30.4336 38.2846 30.4336 39.4336C30.4336 40.6397 29.7198 41.5781 28.5117 41.5781C27.3199 41.5781 26.5859 40.6505 26.5859 39.4336ZM27.3086 39.4336C27.3086 40.2712 27.7061 40.9844 28.5117 40.9844C29.3192 40.9844 29.707 40.2627 29.707 39.4336C29.707 38.6828 29.3989 37.7891 28.5039 37.7891C27.616 37.7891 27.3086 38.6844 27.3086 39.4336Z" fill="white"/>
<path d="M32.0625 41.5H31.3398V37.2734H32.043L32.0625 41.5ZM33.3828 37.25L33.3789 37.9219C33.1225 37.8661 32.8297 37.8692 32.5859 37.9688C32.3307 38.0729 32.1549 38.263 32.0508 38.5234C31.6694 39.5071 31.7465 38.2586 32.0625 37.75C32.1693 37.5755 32.3047 37.4401 32.4688 37.3438C32.7097 37.2007 33.1158 37.1165 33.3828 37.25Z" fill="white"/>
<path d="M34.7695 38.1133V41.5H34.043V37.2734H34.7305L34.7695 38.1133ZM34.7227 37.7695C35.0098 37.4041 35.4388 37.1953 36 37.1953C36.3949 37.1953 36.7351 37.3028 36.9805 37.543C37.1029 37.6628 37.1979 37.8164 37.2656 38.0039C37.3333 38.1914 37.3672 38.418 37.3672 38.6836V41.5H36.6445V38.7188C36.6445 38.4974 36.6068 38.3203 36.5312 38.1875C36.3849 37.9209 36.1055 37.8047 35.7422 37.8047C35.3151 37.8047 35.0352 37.9648 34.8633 38.2305C34.0583 39.4746 33.9694 38.7283 34.7227 37.7695ZM37.3125 37.7383C37.5996 37.4041 38.0195 37.1953 38.5547 37.1953C39.2404 37.1953 39.6922 37.4595 39.8789 38.0352C39.9414 38.2279 39.9727 38.457 39.9727 38.7227V41.5H39.2461V38.7148C39.2461 38.0032 38.901 37.8047 38.3438 37.8047C38.026 37.8047 37.7799 37.9206 37.6133 38.1133C37.5299 38.207 37.4661 38.3151 37.4219 38.4375C37.0666 39.4812 36.8472 38.2897 37.3125 37.7383Z" fill="white"/>
</svg>
