<svg width="50" height="50" viewBox="0 0 50 50" fill="none" xmlns="http://www.w3.org/2000/svg">
<rect width="50" height="50" fill="#0075C9"/>
<path d="M9.00904 16.3056C8.95693 18.1887 8.99483 20.0719 8.99483 21.9833C13.5212 19.6176 17.3892 20.239 20.537 24.4291C21.0541 23.5328 21.7511 22.7518 22.5848 22.1346C24.7386 20.5403 27.6873 20.1771 30.1725 21.1806C33.0811 22.3176 35.021 25.2224 34.8315 28.1366C34.6089 31.6251 32.4629 34.3228 29.2464 35.1985C25.8522 36.1283 22.3206 34.7277 20.4091 31.538C20.0751 31.9735 19.7791 32.4325 19.4143 32.828C17.356 35.0478 14.8216 35.9447 11.849 35.2644C8.8764 34.5841 6.95309 32.675 6.16435 29.6973C6.10579 29.5198 6.03455 29.3467 5.95117 29.1794V15.5264C6.16496 14.9494 6.67237 14.4976 7.27285 14.3494C8.41173 14.3412 9.0425 15.1357 9.00904 16.3056ZM18.2253 28.0636C18.2253 25.5825 16.1125 23.5369 13.5473 23.5416C11.0271 23.5416 8.90956 25.5849 8.88824 28.0306C8.86692 30.5164 10.9726 32.5714 13.5449 32.5785C15.3808 32.6106 17.1203 31.5029 17.8512 29.8143C18.0908 29.2609 18.2179 28.666 18.2253 28.0636ZM22.9427 29.8148C23.6631 31.4993 25.3986 32.6155 27.2402 32.5785C29.7403 32.5411 31.831 30.4719 31.8637 27.9742C31.8637 23.9604 26.6572 22.1939 23.9426 24.8639C22.6359 26.1492 22.224 28.1341 22.9427 29.8148Z" fill="white"/>
<path d="M41.3759 28.0636L44.962 32.8045C44.9762 32.8233 44.9928 32.8374 45.007 32.8539C45.6868 33.7484 45.6963 34.6806 45.0307 35.1914C44.2727 35.7728 43.2874 35.5539 42.5745 34.6453L39.3982 30.5918C38.2877 32.0068 37.1964 33.4394 36.0655 34.8383C35.5366 35.5251 34.5032 35.6337 33.8414 35.0737C33.164 34.5652 33.0503 33.7225 33.6046 32.9857C34.8899 31.3023 36.3093 29.6852 37.4962 27.9318C36.2598 26.3452 35.0234 24.7375 33.7656 23.1462C33.389 22.6754 33.164 22.1669 33.3203 21.5737C33.5522 20.6756 34.4492 20.2209 35.3214 20.5325C35.6348 20.6444 35.9061 20.8493 36.0987 21.1194C37.2012 22.5424 38.2816 23.9823 39.3863 25.4036C40.5302 24.0158 41.6551 22.6103 42.8137 21.2348C43.9858 19.7356 46.457 21.3747 45.2012 23.0544C43.9412 24.7343 42.5926 26.3526 41.3759 28.0636Z" fill="white"/>
</svg>
