<svg width="50" height="50" viewBox="0 0 50 50" fill="none" xmlns="http://www.w3.org/2000/svg">
<path d="M47 16.2529C45.2059 16.2529 43.4116 16.2363 41.618 16.2633C39.6639 16.293 37.7087 16.326 35.7574 16.4361C34.6591 16.4982 33.5607 16.5675 32.4638 16.6524C30.5513 16.8008 28.6573 17.043 26.7631 17.3444C24.9483 17.6333 22.9832 18.0626 21.3851 19.0105C20.386 19.6034 19.5542 20.5737 19.9939 21.7997C20.5918 23.466 22.3698 24.6292 23.7748 25.5477C24.1025 25.7621 24.4352 25.9692 24.771 26.1704C24.874 26.232 24.9373 26.31 24.9777 26.4182C25.016 26.5209 25.0623 26.6206 25.1106 26.7347C24.9016 26.7607 24.6916 26.7303 24.4819 26.7515C24.201 26.78 23.9664 26.6909 23.7283 26.5483C22.0277 25.5301 20.1139 24.3564 19.0616 22.6137C18.8228 22.2182 18.6478 21.7985 18.6042 21.3329C18.464 19.8356 19.8559 18.8608 21.0517 18.2965C23.3888 17.1932 26.0847 16.7542 28.6386 16.4905C30.6248 16.2859 32.6098 16.1502 34.6049 16.0698C38.7357 15.9022 42.8679 16.0519 46.9946 16.2482L47 16.2529Z" fill="#E45B00"/>
<path d="M2 21.0399C2.02475 21.0372 2.04455 21.033 2.06435 21.033C2.96769 21.0347 3.87104 21.0278 4.77389 21.0426C5.22358 21.0501 5.64457 21.1763 5.99526 21.4787C6.61746 22.0155 6.58553 23.079 5.93141 23.5769C5.84009 23.6465 5.74159 23.7069 5.63764 23.7777C6.24774 24.0587 6.755 24.4049 6.75729 25.1579C6.7604 26.1926 5.81764 26.7339 4.87932 26.7463C3.92301 26.7592 2.96646 26.7505 2 26.7505V21.0399ZM2.9865 25.8563C3.61489 25.8563 4.23263 25.866 4.84962 25.8502C5.31108 25.8381 5.75886 25.559 5.75099 25.0592C5.74306 24.5577 5.26769 24.3245 4.81968 24.311C4.22919 24.2929 3.57157 24.2192 2.9865 24.3036V25.8563ZM2.98403 23.4332C3.52381 23.4332 4.05121 23.4445 4.57763 23.4265C5.04541 23.4105 5.45568 23.1049 5.42999 22.6097C5.40367 22.0992 4.91571 21.943 4.47789 21.9299C3.9875 21.915 3.472 21.8823 2.98378 21.9353L2.98403 23.4332Z" fill="black"/>
<path d="M24.472 31.8402C24.472 31.7932 24.472 31.7462 24.472 31.6991C24.472 30.4906 24.4738 29.2821 24.4696 28.0739C24.4691 27.9556 24.5002 27.918 24.62 27.9227C24.8547 27.9318 25.0903 27.9286 25.3251 27.9234C25.414 27.9214 25.4471 27.944 25.4469 28.04C25.4442 29.863 25.4442 31.686 25.4474 33.5088C25.4474 33.613 25.4095 33.6328 25.3177 33.6303C25.12 33.6249 24.9217 33.6249 24.724 33.6303C24.644 33.6326 24.5968 33.6019 24.5497 33.541C23.5224 32.212 22.5255 30.8502 21.4539 29.5566C21.361 30.8527 21.4383 32.1791 21.4425 33.4784C21.443 33.5952 21.4148 33.6365 21.293 33.6311C21.0707 33.6214 20.8475 33.6227 20.625 33.6308C20.5139 33.6348 20.475 33.6051 20.4768 33.488C20.5053 31.6905 20.4792 29.8911 20.4795 28.0934C20.4795 27.9251 20.4805 27.9251 20.6468 27.9246C20.8572 27.9242 21.0675 27.9271 21.2779 27.9219C21.3611 27.9199 21.4143 27.9496 21.4645 28.0147C22.4099 29.2381 23.3573 30.46 24.3047 31.6821C24.3488 31.739 24.3958 31.7934 24.4413 31.8491C24.4515 31.8459 24.4619 31.8434 24.472 31.8402Z" fill="#E45B00"/>
<path d="M8.02763 21.0406C8.02763 21.0406 9.85664 21.0259 10.7545 21.0416C11.8192 21.0603 12.716 21.7643 12.6924 22.879C12.6735 23.7674 12.1279 24.3079 11.3336 24.5931C11.8445 25.3099 12.3508 26.0204 12.8688 26.747C12.5138 26.7752 12.1542 26.7532 11.7982 26.7584C11.7185 26.7597 11.6715 26.7339 11.6262 26.6693C11.2034 26.0645 10.7763 25.4626 10.3538 24.8574C10.3038 24.7857 10.2523 24.755 10.163 24.7562C9.78371 24.7624 9.40433 24.7582 9.02502 24.7582V26.7488H8.02763V21.0406ZM9.03047 21.9484V23.8558C9.60341 23.8558 10.1682 23.8697 10.7317 23.8477C11.3173 23.8247 11.7289 23.3233 11.6635 22.7498C11.6004 22.1974 11.094 21.9694 10.5946 21.9554C10.0735 21.9413 9.55178 21.9484 9.03047 21.9484Z" fill="black"/>
<path d="M14.0626 21.0387H18.2912V21.9252H15.0691V23.4146H17.9229V24.3172H15.0644V25.8561H18.333V26.7505H14.0628L14.0626 21.0387Z" fill="black"/>
<path d="M33.0526 23.4052H35.7832V21.0426H36.7833V26.7498H35.7894V24.3511H33.0591V26.7466H32.0562V21.0429H33.0524L33.0526 23.4052Z" fill="black"/>
<path d="M19.1292 32.751V33.6207C19.0834 33.6234 19.0398 33.6286 18.9963 33.6286C17.6643 33.6291 16.3325 33.6281 15.0005 33.6311C14.9 33.6311 14.8669 33.6058 14.8671 33.5009C14.8701 31.6865 14.8701 29.8722 14.8676 28.0578C14.8676 27.9593 14.8901 27.9224 14.9971 27.9229C16.3167 27.9264 17.6361 27.9266 18.9557 27.9229C19.0668 27.9227 19.0975 27.9561 19.0935 28.063C19.0861 28.2647 19.0851 28.4674 19.0938 28.6689C19.0987 28.7815 19.0584 28.8055 18.9525 28.805C17.9751 28.801 16.998 28.8027 16.0207 28.8027C15.8539 28.8027 15.8534 28.8032 15.8534 28.9735C15.8531 29.3653 15.8568 29.7571 15.8509 30.1486C15.8492 30.2684 15.8776 30.312 16.0086 30.3112C16.8622 30.305 17.7158 30.3107 18.5691 30.305C18.6968 30.3043 18.7334 30.3426 18.7273 30.4661C18.7179 30.6594 18.7193 30.8537 18.7263 31.0473C18.7302 31.1547 18.6963 31.1881 18.5864 31.1873C17.7328 31.1831 16.8792 31.1849 16.0259 31.1851C15.8541 31.1851 15.8534 31.1856 15.8534 31.3544C15.8531 31.7667 15.8571 32.179 15.8509 32.5914C15.8492 32.7131 15.8821 32.7545 16.0103 32.7537C17 32.7485 17.9895 32.751 18.9792 32.751H19.1292Z" fill="#E45B00"/>
<path d="M32.4153 27.9249C33.7695 27.9249 35.1237 27.9249 36.4779 27.9249C36.6363 27.9249 36.6365 27.9254 36.637 28.0887C36.6373 28.2786 36.6313 28.4684 36.6388 28.658C36.6432 28.7676 36.616 28.806 36.4965 28.8055C35.5189 28.8003 34.5413 28.8023 33.5637 28.8025C33.3969 28.8025 33.3964 28.8032 33.3964 28.9735C33.3964 29.3653 33.4008 29.7573 33.3941 30.1491C33.3922 30.2709 33.4233 30.312 33.5523 30.311C34.4101 30.305 35.2682 30.3095 36.1262 30.3055C36.2321 30.305 36.274 30.33 36.2695 30.4424C36.2616 30.6441 36.2616 30.8468 36.2698 31.0485C36.2742 31.1581 36.2391 31.1881 36.1304 31.1876C35.2606 31.1829 34.375 31.2374 33.507 31.1851C33.4288 31.1799 33.3951 31.2126 33.3954 31.293C33.3974 31.7427 33.3991 32.1922 33.3954 32.6418C33.3944 32.7569 33.4625 32.7515 33.5409 32.7515C34.5876 32.751 35.6344 32.7515 36.6811 32.7515C36.6811 33.0351 36.6823 33.3022 36.6784 33.569C36.6775 33.64 36.5608 33.6296 36.5192 33.6296C35.2033 33.6296 33.8876 33.6279 32.572 33.6321C32.4507 33.6326 32.4116 33.6071 32.4121 33.4771C32.4169 31.6264 32.4153 29.7756 32.4153 27.9249Z" fill="#E45B00"/>
<path d="M26.6868 32.7935C26.8846 32.5587 27.0751 32.3327 27.2516 32.1231C27.9561 32.5572 28.5751 32.9596 29.4486 32.7982C29.8235 32.7289 30.0567 32.4978 30.0953 32.1773C30.2085 31.2357 28.447 31.135 27.8401 30.9002C27.3496 30.7106 27.0184 30.3612 26.9271 29.8202C26.7838 28.971 27.2427 28.1927 28.076 27.961C28.8643 27.7418 30.052 28.04 30.8994 28.5651C30.7336 28.799 30.5633 29.0388 30.3873 29.2868C29.7501 28.8921 28.849 28.3878 28.1426 28.9069C27.804 29.1557 27.7733 29.7583 28.2178 29.9716C28.8331 30.2668 29.5225 30.3777 30.1539 30.6315C30.594 30.8082 30.9283 31.1133 31.037 31.5962C31.2315 32.4609 30.8494 33.3259 29.8661 33.5875C28.8151 33.8671 27.4437 33.645 26.6868 32.7935Z" fill="#E45B00"/>
<path d="M9.14859 32.7869C9.3347 32.5651 9.52453 32.3389 9.72128 32.1045C10.3263 32.5518 10.9402 32.8952 11.727 32.827C12.3202 32.7754 13.0163 31.9594 12.2504 31.5633C11.1788 31.0084 9.33979 31.1059 9.36465 29.4824C9.37504 28.8035 9.7636 28.2548 10.4058 28.0004C11.1971 27.6871 12.8167 27.7662 13.355 28.5639C13.1882 28.7993 13.0179 29.0396 12.8419 29.2876C12.2208 28.896 11.3054 28.3794 10.616 28.8958C10.2319 29.1839 10.239 29.7291 10.6585 29.9568C11.5778 30.4556 13.3145 30.3841 13.5139 31.6952C13.6581 32.6458 13.1825 33.3836 12.2479 33.6063C11.1129 33.8768 10.0947 33.5999 9.20056 32.8562C9.17594 32.8359 9.16212 32.815 9.14859 32.7869Z" fill="#E45B00"/>
<path d="M30.8274 21.8254C30.6111 22.0744 30.4012 22.316 30.1975 22.5504C28.9927 21.7204 27.1384 21.5054 26.7472 23.3834C26.5898 24.1383 26.7344 24.832 27.2895 25.396C27.9216 26.038 28.9308 26.1135 29.7082 25.591C29.8857 25.4717 30.0507 25.3346 30.2121 25.2129C30.4235 25.4171 30.6385 25.6249 30.8724 25.8507C30.7205 25.9858 30.5772 26.1264 30.4205 26.2501C28.9447 27.417 26.1795 26.9636 25.6932 24.4872C25.385 22.9176 26.2696 21.4119 27.7973 21.0369C28.9261 20.7597 29.956 20.9837 30.8274 21.8254Z" fill="black"/>
<path d="M22.1315 22.2009C21.9503 22.6236 21.7803 23.0201 21.5969 23.4475C21.3764 23.2047 21.1685 22.9783 20.9653 22.7478C20.948 22.7283 20.9497 22.6768 20.9621 22.6484C21.1905 22.119 21.421 21.5903 21.6558 21.0639C21.6709 21.03 21.7256 20.9941 21.7628 20.9931C22.0142 20.9869 22.2659 20.9931 22.5174 20.9879C22.5968 20.9862 22.6305 21.0161 22.6609 21.0864C23.3277 22.6194 23.9999 24.1501 24.6666 25.6831C24.1924 25.4523 23.7554 25.1036 23.318 24.81C23.2675 24.776 23.2225 24.7191 23.1982 24.6627C22.8429 23.8438 22.52 23.0046 22.1315 22.2009Z" fill="black"/>
<path d="M19.1653 26.7565C19.5044 25.9808 19.8333 25.2277 20.1674 24.463C20.4006 24.6392 20.621 24.8346 20.8396 25.0285C20.8663 25.0523 20.8876 25.1156 20.8752 25.1456C20.6616 25.6623 20.4433 26.1771 20.2221 26.6909C20.2097 26.7199 20.1649 26.7533 20.1347 26.7538C19.8182 26.7582 19.5021 26.7565 19.1653 26.7565Z" fill="black"/>
</svg>
