<svg width="50" height="50" viewBox="0 0 50 50" fill="none" xmlns="http://www.w3.org/2000/svg">
<rect width="50" height="50" fill="#01111A"/>
<path d="M25.5037 29.2715C27.8626 29.2715 29.7749 27.3592 29.7749 25.0002C29.7749 22.6413 27.8626 20.729 25.5037 20.729C23.1447 20.729 21.2324 22.6413 21.2324 25.0002C21.2324 27.3592 23.1447 29.2715 25.5037 29.2715Z" fill="#00A6EF"/>
<path d="M37.9061 13.2834C32.8699 8.36773 25.0989 6.8919 18.6316 9.6625C12.3142 12.3689 8.08701 18.7938 8.38275 25.6998C8.67882 32.6134 13.444 38.6652 19.967 40.8462C26.5463 43.0462 34.077 41.0744 38.633 35.8145L33.2776 31.3952C30.5835 34.5056 26.1303 35.6715 22.2397 34.3706C18.3824 33.0809 15.5645 29.5022 15.3894 25.4139C15.2146 21.3301 17.7143 17.5308 21.45 15.9304C25.5329 14.1813 30.2747 15.3953 33.4107 18.4562L37.9061 13.2834Z" fill="white"/>
</svg>
