<svg width="50" height="50" viewBox="0 0 50 50" fill="none" xmlns="http://www.w3.org/2000/svg">
<path d="M25.061 10.8555C26.8905 12.8346 30.7838 14.2086 35.3033 14.232V27.6388C35.3033 33.9932 30.7177 39.1442 25.061 39.1445C19.404 39.1445 14.8171 33.9934 14.817 27.6388V26.5889C15.3747 26.4972 16.1075 26.4325 16.8957 26.4205C18.0326 26.4031 19.2111 26.4955 20.0473 26.7344C20.855 26.965 21.6719 27.5213 22.3651 28.1247C22.7791 28.4853 23.1365 28.8513 23.407 29.1515C23.5353 29.2937 23.5528 29.5081 23.4483 29.6693C23.2216 30.0194 23.0889 30.4386 23.0889 30.8912C23.0889 32.1142 24.0564 33.106 25.2502 33.1061C26.444 33.1061 27.4114 32.1142 27.4114 30.8912C27.4114 29.6681 26.444 28.6762 25.2502 28.6762C25.0007 28.6762 24.7619 28.7195 24.5401 28.7986C24.3845 28.8539 24.2121 28.8083 24.1016 28.6833C23.798 28.3391 23.3825 27.9078 22.8963 27.4845C22.1676 26.85 21.2427 26.2027 20.2674 25.9239C19.3211 25.6538 18.0524 25.562 16.8837 25.5799C16.1489 25.5912 15.4222 25.6462 14.817 25.7377V24.0725C15.4223 24.164 16.1489 24.2191 16.8837 24.2304C18.0525 24.2483 19.321 24.1566 20.2674 23.8863C21.2426 23.6077 22.1676 22.962 22.8963 22.3275C23.3203 21.9584 23.6902 21.5822 23.9796 21.2635C24.0956 21.1356 24.2773 21.0947 24.4352 21.1606C24.6861 21.2654 24.9611 21.3238 25.2502 21.3238C26.4439 21.3238 27.4112 20.3317 27.4114 19.1088C27.4114 17.8857 26.444 16.8939 25.2502 16.8939C24.0564 16.894 23.0889 17.8858 23.0889 19.1088C23.089 19.5214 23.1987 19.9068 23.3898 20.2367C23.4827 20.3975 23.4613 20.6023 23.3365 20.7386C23.0759 21.0227 22.7438 21.3576 22.3651 21.6873C21.672 22.2906 20.8549 22.8469 20.0473 23.0777C19.2111 23.3165 18.0325 23.409 16.8957 23.3915C16.1073 23.3794 15.3744 23.3147 14.817 23.2231V14.232C19.3369 14.2086 23.2318 12.8349 25.061 10.8555Z" fill="#191D34"/>
<path fill-rule="evenodd" clip-rule="evenodd" d="M25.0009 6C25.2569 6.00014 25.5022 6.10753 25.6783 6.29793C27.7604 8.55079 32.4229 10.2764 38.0715 10.3058C38.5849 10.3084 38.9996 10.7358 39 11.2616V28.3659C39 36.9156 32.8119 43.9999 25.0009 44C17.2006 44 11.017 36.9354 11 28.4013V11.2616C11.0004 10.7358 11.4152 10.3084 11.9285 10.3058C17.5775 10.2765 22.2413 8.55087 24.3234 6.29793C24.4996 6.10772 24.7449 6 25.0009 6ZM25.0009 8.26993C22.3973 10.5463 17.9024 12.0148 12.8672 12.1997V28.3659C12.8672 36.0293 18.3786 42.0883 25.0009 42.0883C31.623 42.0882 37.1345 36.0293 37.1345 28.3659V12.1997C32.0989 12.0149 27.6046 10.5464 25.0009 8.26993Z" fill="#191D34"/>
</svg>
