<svg width="50" height="50" viewBox="0 0 50 50" fill="none" xmlns="http://www.w3.org/2000/svg">
<path d="M24.9995 6C13.9543 6 5 14.9543 5 25.9995C5 37.0447 13.9543 45.9991 24.9995 45.9991C36.0447 45.9991 44.9991 37.0447 44.9991 25.9995C44.9991 14.9543 36.0457 6 24.9995 6ZM30.9804 37.8702C26.7077 37.8702 23.2436 34.4061 23.2436 30.1334C23.2436 25.8607 26.7077 22.3966 30.9804 22.3966C35.253 22.3966 38.7171 25.8607 38.7171 30.1334C38.7171 34.4061 35.253 37.8702 30.9804 37.8702ZM24.7575 41.4975C16.2159 41.4975 9.29144 34.5731 9.29144 26.0314C9.29144 17.4898 16.2168 10.5644 24.7585 10.5644C30.9616 10.5644 38.4536 15.2977 39.5961 21.4727C37.4499 19.8095 34.2794 17.9992 31.3556 17.9992C24.3495 17.9992 19.2251 22.5936 19.2251 29.5997C19.2251 35.0317 21.739 39.5858 26.5379 41.3943C25.9535 41.4609 25.3607 41.4966 24.7585 41.4966L24.7575 41.4975Z" fill="#739DD2"/>
</svg>
