<svg width="50" height="50" viewBox="0 0 50 50" fill="none" xmlns="http://www.w3.org/2000/svg">
<path d="M24.5 36C32.5081 36 39 29.5081 39 21.5C39 13.4919 32.5081 7 24.5 7C16.4919 7 10 13.4919 10 21.5C10 29.5081 16.4919 36 24.5 36Z" fill="#CC092F"/>
<path d="M37.2761 25.4173C35.6176 24.7564 34.0994 24.9779 32.5777 25.9005C31.7588 26.4003 30.8315 27.2098 29.836 27.2098C29.2225 27.2098 28.6187 27.0455 28.3633 25.8585C27.965 24.0071 26.9934 19.4576 26.5692 17.2042C26.32 15.8798 26.1834 15.1662 26.0414 14.6812C25.8257 13.9463 25.326 13.2767 24.5 13.2789C23.6745 13.2811 23.1755 13.9435 22.9594 14.6812C22.8174 15.1662 22.6808 15.8798 22.4316 17.2042C22.0074 19.4576 21.0358 24.0071 20.6375 25.8585C20.3821 27.0455 19.7784 27.2098 19.1648 27.2098C18.5218 27.2098 17.8529 26.7882 17.1438 26.3435C15.4604 25.2845 13.6961 24.6313 11.7247 25.4173C11.3666 25.5602 11.0139 25.7202 10.6781 25.8819C10.9076 26.6017 11.1933 27.3102 11.5265 27.9756C12.4248 27.534 13.3796 27.1772 14.3807 27.5126C14.9273 27.6956 15.414 28.0198 15.8989 28.3244C16.8125 28.8987 17.8476 29.5497 19.1648 29.5497C21.117 29.5497 22.487 28.3842 22.9246 26.3515C23.264 24.7761 24.0159 21.259 24.4991 18.8333C24.4991 18.8333 25.7368 24.7761 26.0753 26.3515C26.5129 28.3842 27.8838 29.5497 29.836 29.5497C31.1532 29.5497 32.1883 28.8987 33.1019 28.3244C34.1124 27.6898 35.1045 27.1387 36.3294 27.5C36.7224 27.6162 37.1067 27.7954 37.4738 27.9758C37.8078 27.3104 38.0927 26.6016 38.3223 25.8818C37.9865 25.7201 37.6342 25.5602 37.2761 25.4173Z" fill="white"/>
<path d="M24.1777 42.6689L25.4043 38.7168H26.3711L24.252 44.8154C24.2031 44.9456 24.138 45.0856 24.0566 45.2354C23.9785 45.3883 23.8776 45.5332 23.7539 45.6699C23.6302 45.8066 23.4805 45.9173 23.3047 46.002C23.1322 46.0898 22.9255 46.1338 22.6846 46.1338C22.613 46.1338 22.5218 46.124 22.4111 46.1045C22.3005 46.085 22.2223 46.0687 22.1768 46.0557L22.1719 45.3232L22.416 45.3428C22.6211 45.3428 22.7952 45.3151 22.9385 45.2598C23.0817 45.2077 23.2021 45.1182 23.2998 44.9912C23.4007 44.8675 23.487 44.6966 23.5586 44.4785L23.7549 43.9424L21.8691 38.7168H22.8555L24.1777 42.6689Z" fill="#7F8BA5"/>
<path fill-rule="evenodd" clip-rule="evenodd" d="M19.1348 38.6191C19.5189 38.6191 19.8574 38.6842 20.1504 38.8145C20.4466 38.9447 20.6777 39.1416 20.8438 39.4053C21.013 39.6657 21.0977 39.9928 21.0977 40.3867V42.8477C21.0977 43.0234 21.1123 43.2106 21.1416 43.4092C21.1742 43.6077 21.2214 43.7786 21.2832 43.9219V44H20.3408C20.2952 43.8958 20.2594 43.7575 20.2334 43.585C20.226 43.5348 20.2211 43.4855 20.2158 43.4375C20.1721 43.4835 20.1268 43.5303 20.0771 43.5752C19.9111 43.7249 19.7126 43.8503 19.4814 43.9512C19.2536 44.0488 18.9964 44.0977 18.71 44.0977C18.3519 44.0977 18.0378 44.0277 17.7676 43.8877C17.5007 43.7477 17.2923 43.5605 17.1426 43.3262C16.9961 43.0885 16.9229 42.8232 16.9229 42.5303C16.9229 42.2471 16.9782 41.998 17.0889 41.7832C17.1995 41.5651 17.359 41.3844 17.5674 41.2412C17.7757 41.0947 18.0264 40.984 18.3193 40.9092C18.6123 40.8343 18.9395 40.7969 19.3008 40.7969H20.1943V40.377C20.1943 40.1686 20.152 39.988 20.0674 39.835C19.986 39.6787 19.8623 39.5583 19.6963 39.4736C19.5303 39.389 19.3252 39.3467 19.0811 39.3467C18.8532 39.3467 18.653 39.3857 18.4805 39.4639C18.3112 39.542 18.1777 39.6445 18.0801 39.7715C17.9857 39.8984 17.9385 40.0352 17.9385 40.1816H17.0352C17.0352 39.9928 17.084 39.8057 17.1816 39.6201C17.2793 39.4346 17.4193 39.2669 17.6016 39.1172C17.7871 38.9642 18.0085 38.8438 18.2656 38.7559C18.526 38.6647 18.8158 38.6191 19.1348 38.6191ZM19.4473 41.4316C19.1901 41.4316 18.9606 41.4528 18.7588 41.4951C18.557 41.5342 18.3877 41.5944 18.251 41.6758C18.1143 41.7572 18.0101 41.8597 17.9385 41.9834C17.8669 42.1038 17.8311 42.2454 17.8311 42.4082C17.8311 42.5742 17.8685 42.7256 17.9434 42.8623C18.0182 42.999 18.1305 43.1081 18.2803 43.1895C18.4333 43.2676 18.6204 43.3066 18.8418 43.3066C19.1185 43.3066 19.3626 43.248 19.5742 43.1309C19.7858 43.0137 19.9535 42.8704 20.0771 42.7012C20.1255 42.6367 20.163 42.5718 20.1943 42.5088V41.4316H19.4473Z" fill="#7F8BA5"/>
<path fill-rule="evenodd" clip-rule="evenodd" d="M29.2031 38.6191C29.5807 38.6191 29.9062 38.6842 30.1797 38.8145C30.4564 38.9447 30.6826 39.127 30.8584 39.3613C31.0342 39.5924 31.1644 39.8659 31.249 40.1816C31.3337 40.4941 31.376 40.8359 31.376 41.207V41.6123H27.8047C27.8104 41.8376 27.8422 42.0508 27.9043 42.252C27.9759 42.4701 28.0785 42.6621 28.2119 42.8281C28.3486 42.9941 28.513 43.1243 28.7051 43.2188C28.9004 43.3132 29.1217 43.3604 29.3691 43.3604C29.6882 43.3604 29.9583 43.2952 30.1797 43.165C30.401 43.0348 30.5947 42.8607 30.7607 42.6426L31.3076 43.0771C31.1937 43.2497 31.0488 43.4141 30.873 43.5703C30.6973 43.7266 30.4808 43.8535 30.2236 43.9512C29.9697 44.0488 29.6686 44.0977 29.3203 44.0977C28.9525 44.0977 28.6188 44.0358 28.3193 43.9121C28.0231 43.7852 27.7676 43.6077 27.5527 43.3799C27.3411 43.152 27.1784 42.8818 27.0645 42.5693C26.9505 42.2568 26.8936 41.915 26.8936 41.5439V41.3389C26.8936 40.9092 26.957 40.5267 27.084 40.1914C27.2109 39.8529 27.3835 39.5664 27.6016 39.332C27.8197 39.0977 28.0671 38.9202 28.3438 38.7998C28.6204 38.6794 28.9069 38.6191 29.2031 38.6191ZM29.2031 39.3613C28.998 39.3613 28.8092 39.4053 28.6367 39.4932C28.4642 39.5778 28.3161 39.7048 28.1924 39.874C28.0687 40.0433 27.9727 40.25 27.9043 40.4941C27.8712 40.6123 27.8462 40.7393 27.8291 40.875H30.4727V40.8066C30.4596 40.5723 30.4108 40.3444 30.3262 40.123C30.2448 39.9017 30.1146 39.7194 29.9355 39.5762C29.7565 39.4329 29.5124 39.3613 29.2031 39.3613Z" fill="#7F8BA5"/>
<path d="M12.7676 43.2334H16.1367V44H11.8252V36.8906H12.7676V43.2334Z" fill="#7F8BA5"/>
<path d="M34.584 38.6191C34.6491 38.6191 34.724 38.6273 34.8086 38.6436C34.8932 38.6566 34.9518 38.6712 34.9844 38.6875L34.9795 39.5273C34.9046 39.5111 34.833 39.5013 34.7646 39.498C34.6995 39.4915 34.6247 39.4883 34.54 39.4883C34.3317 39.4883 34.1478 39.5208 33.9883 39.5859C33.8288 39.651 33.6937 39.7422 33.583 39.8594C33.48 39.9684 33.3975 40.0976 33.334 40.2461V44H32.4307V38.7168H33.3096L33.3271 39.3232C33.3294 39.3196 33.3317 39.3161 33.334 39.3125C33.4674 39.0944 33.6367 38.9251 33.8418 38.8047C34.0501 38.681 34.2975 38.6191 34.584 38.6191Z" fill="#7F8BA5"/>
<path d="M40.3164 37.3984L37.3721 44H36.4199L39.3594 37.6328H35.5117V36.8906H40.3164V37.3984Z" fill="#7F8BA5"/>
</svg>
