<svg width="50" height="50" viewBox="0 0 50 50" fill="none" xmlns="http://www.w3.org/2000/svg">
<path d="M25.0217 45C36.0554 45 45 36.0554 45 25.0217C45 13.988 36.0554 5.04335 25.0217 5.04335C13.9879 5.04335 5.04334 13.988 5.04334 25.0217C5.04334 36.0554 13.9879 45 25.0217 45Z" fill="#F5BB60"/>
<path d="M22.9848 40.9697C32.9176 40.9697 40.9697 32.9176 40.9697 22.9848C40.9697 13.0521 32.9176 5 22.9848 5C13.0521 5 5 13.0521 5 22.9848C5 32.9176 13.0521 40.9697 22.9848 40.9697Z" fill="#E86F32"/>
<path d="M25.3684 36.2026C33.9847 36.2026 40.9697 29.2177 40.9697 20.6013C40.9697 11.9849 33.9847 5 25.3684 5C16.752 5 9.76706 11.9849 9.76706 20.6013C9.76706 29.2177 16.752 36.2026 25.3684 36.2026Z" fill="#E53D42"/>
<path d="M26.6251 36.2025C34.5474 36.2025 40.9697 29.7802 40.9697 21.858C40.9697 13.9357 34.5474 7.51346 26.6251 7.51346C18.7029 7.51346 12.2806 13.9357 12.2806 21.858C12.2806 29.7802 18.7029 36.2025 26.6251 36.2025Z" fill="#BFD141"/>
<path d="M25.585 36.2025C32.9329 36.2025 38.8895 30.2459 38.8895 22.8981C38.8895 15.5503 32.9329 9.59365 25.585 9.59365C18.2372 9.59365 12.2806 15.5503 12.2806 22.8981C12.2806 30.2459 18.2372 36.2025 25.585 36.2025Z" fill="#6DB64C"/>
<path d="M23.4615 31.999C29.6366 31.999 34.6425 26.9931 34.6425 20.8181C34.6425 14.643 29.6366 9.63712 23.4615 9.63712C17.2865 9.63712 12.2806 14.643 12.2806 20.8181C12.2806 26.9931 17.2865 31.999 23.4615 31.999Z" fill="#AFDBE7"/>
<path d="M25.2817 28.3152C30.4515 28.3152 34.6425 24.1243 34.6425 18.9544C34.6425 13.7846 30.4515 9.59365 25.2817 9.59365C20.1119 9.59365 15.9209 13.7846 15.9209 18.9544C15.9209 24.1243 20.1119 28.3152 25.2817 28.3152Z" fill="#57BADF"/>
<path d="M26.4518 28.3586C30.9993 28.3586 34.6858 24.6721 34.6858 20.1246C34.6858 15.5771 30.9993 11.8906 26.4518 11.8906C21.9043 11.8906 18.2178 15.5771 18.2178 20.1246C18.2178 24.6721 21.9043 28.3586 26.4518 28.3586Z" fill="#02B2D6"/>
<path d="M25.2383 28.3154C29.1157 28.3154 32.2589 25.1722 32.2589 21.2948C32.2589 17.4175 29.1157 14.2742 25.2383 14.2742C21.361 14.2742 18.2178 17.4175 18.2178 21.2948C18.2178 25.1722 21.361 28.3154 25.2383 28.3154Z" fill="url(#paint0_radial_9176_11071)"/>
<path d="M25.2383 28.3154C29.1157 28.3154 32.2589 25.1722 32.2589 21.2948C32.2589 17.4175 29.1157 14.2742 25.2383 14.2742C21.361 14.2742 18.2178 17.4175 18.2178 21.2948C18.2178 25.1722 21.361 28.3154 25.2383 28.3154Z" fill="#231F20"/>
<path d="M27.0821 20.3747C27.7782 20.6871 28.7381 20.0586 29.2261 18.971C29.7141 17.8833 29.5455 16.7484 28.8494 16.4361C28.1533 16.1238 27.1934 16.7523 26.7054 17.8399C26.2174 18.9275 26.386 20.0624 27.0821 20.3747Z" fill="white"/>
<defs>
<radialGradient id="paint0_radial_9176_11071" cx="0" cy="0" r="1" gradientUnits="userSpaceOnUse" gradientTransform="translate(2010.63 2005.12) scale(2004.75 2004.75)">
<stop stop-color="#797979"/>
<stop offset="1" stop-color="#4C4C4C"/>
</radialGradient>
</defs>
</svg>
