<svg width="50" height="50" viewBox="0 0 50 50" fill="none" xmlns="http://www.w3.org/2000/svg">
<path d="M26.8363 14.2753C28.3099 15.2765 29.9442 18.3264 30.3636 20.0736C30.2343 20.3287 30.6458 21.1211 30.148 21.2526C29.6973 21.3724 23.5716 21.3144 23.168 21.1791C22.2901 20.8815 22.682 18.5776 20.1855 17.936C14.1617 16.382 12.7665 21.2062 13.1074 26.0806C13.5229 31.9871 18.171 34.2716 22.5252 30.1239C22.4116 32.1727 23.1131 35.0563 24.8767 36.3088C13.8913 40.9513 2.77648 35.8294 4.109 22.9766C5.15934 12.8373 19.3742 9.19988 26.8363 14.2753Z" fill="#0686C8"/>
<path d="M26.8363 14.2753C33.0443 11.2215 46.6636 10.375 47.6042 19.4976C48.196 25.265 46.8987 31.6817 48 37.4684H40.1616C40.0245 37.4684 39.6639 35.1762 39.7658 34.7626C37.0498 37.7893 32.966 38.3575 29.0273 37.8202C28.4159 37.7352 25.2961 36.6025 24.8767 36.3088C23.1131 35.0563 22.4116 32.1727 22.5252 30.1239C22.9328 22.6828 33.7263 22.4238 39.3817 22.0064C40.0597 16.8845 32.2997 16.297 30.3636 20.0736C29.9442 18.3264 28.3099 15.2765 26.8363 14.2753ZM39.3778 25.8719C36.3836 25.5356 29.1919 26.8924 30.0384 31.0014C30.3872 32.6945 32.143 33.1816 33.6872 33.2434C38.2844 33.429 39.8128 29.9307 39.3778 25.8757V25.8719Z" fill="#369F39"/>
</svg>
