<svg width="50" height="50" viewBox="0 0 50 50" fill="none" xmlns="http://www.w3.org/2000/svg">
<path d="M26.2413 8.01277C27.5474 8.89842 28.996 11.5964 29.3677 13.142C29.2531 13.3677 29.6178 14.0687 29.1767 14.185C28.7772 14.291 23.3476 14.2397 22.9898 14.12C22.2117 13.8567 22.559 11.8187 20.3462 11.251C15.007 9.8764 13.7703 14.1439 14.0725 18.4559C14.4407 23.6809 18.5607 25.7018 22.4201 22.0327C22.3193 23.845 22.9412 26.396 24.5044 27.5039C14.7673 31.6107 4.91551 27.0799 6.09661 15.7101C7.0276 6.74072 19.6271 3.52297 26.2413 8.01277Z" fill="#0686C8"/>
<path d="M26.2413 8.01277C31.7438 5.31137 43.8154 4.56251 44.6491 12.6325C45.1737 17.7344 44.0239 23.4108 45 28.5298H38.0524C37.9308 28.5298 37.6112 26.502 37.7015 26.1361C35.2942 28.8136 31.6744 29.3163 28.1832 28.8409C27.6413 28.7657 24.8761 27.7638 24.5044 27.5039C22.9412 26.396 22.3193 23.845 22.4201 22.0327C22.7814 15.4502 32.3484 15.2211 37.3611 14.8518C37.962 10.3209 31.0838 9.80117 29.3677 13.142C28.996 11.5964 27.5474 8.89842 26.2413 8.01277ZM37.3576 18.2713C34.7036 17.9738 28.3291 19.174 29.0795 22.8089C29.3887 24.3067 30.9449 24.7375 32.3136 24.7923C36.3884 24.9564 37.7432 21.8617 37.3576 18.2747V18.2713Z" fill="#369F39"/>
<path d="M8.61426 40.2031C8.61426 40.8923 8.07037 41.3311 7.08105 41.3311C6.17971 41.3311 5.33301 40.9146 5.33301 39.9395H4.39551C4.39551 41.358 5.81578 42.0977 7.08105 42.0977C8.59285 42.0977 9.56152 41.3485 9.56152 40.1934C9.56152 39.081 8.83984 38.4609 7.22754 38.0059C6.07297 37.6851 5.5625 37.3178 5.5625 36.7168C5.5625 36.049 6.03406 35.5645 7.03711 35.5645C8.09327 35.5645 8.60449 36.1326 8.60449 36.9414H9.54199C9.54199 35.6042 8.28351 34.793 7.03711 34.793C5.59081 34.793 4.62012 35.6105 4.62012 36.7266C4.62012 37.8321 5.51398 38.4081 6.9248 38.8262C8.28456 39.2222 8.61426 39.5396 8.61426 40.2031Z" fill="black"/>
<path d="M28.9902 37.4102V36.7168H28.0039V35.4326H27.1006V36.7168H26.1338V37.4102H27.1006V40.6865C27.1006 41.7769 27.943 42.341 29.0146 42L29.0098 41.2627C28.4872 41.3833 28.0039 41.2927 28.0039 40.6914V37.4102H28.9902Z" fill="black"/>
<path d="M30.9531 42V38.244C31.1534 37.7773 31.5494 37.4883 32.1592 37.4883C32.3323 37.4883 32.4522 37.4955 32.5986 37.5273L32.6035 36.6875C32.5382 36.6548 32.3329 36.6191 32.2031 36.6191C31.6355 36.6191 31.2226 36.8722 30.9531 37.3125L30.9465 37.3232L30.9287 36.7168H30.0498V42H30.9531Z" fill="black"/>
<path d="M39.8545 38.1292V42H38.9463V36.7168H39.8057L39.8324 37.2919C40.1907 36.8638 40.7145 36.6191 41.3926 36.6191C42.0717 36.6191 42.6258 36.8753 42.9058 37.4642C43.2585 36.9555 43.8319 36.6191 44.5859 36.6191C45.73 36.6191 46.3584 37.2044 46.3584 38.5283V42H45.4502V38.5186C45.4502 37.8044 45.0624 37.3809 44.3223 37.3809C43.6041 37.3809 43.1697 37.8684 43.1016 38.4808V42H42.1982V38.5234C42.1982 37.696 41.7525 37.3809 41.0703 37.3809C40.4272 37.3809 40.0555 37.6811 39.8545 38.1292Z" fill="black"/>
<path d="M36.696 41.4773C36.3682 41.8672 35.8659 42.0977 35.1523 42.0977C34.1351 42.0977 33.4189 41.5402 33.4189 40.125V36.7168H34.3223V40.1348C34.3223 41.083 34.8072 41.3311 35.2939 41.3311C36.04 41.3311 36.4668 41.0294 36.6709 40.5582V36.7168H37.5791V42H36.7148L36.696 41.4773Z" fill="black"/>
<path d="M23.6582 41.3555C24.3056 41.3555 24.8549 40.9205 24.9033 40.3301H25.7627C25.7077 41.3861 24.6461 42.0977 23.6582 42.0977C22.0233 42.0977 21.3096 40.73 21.3096 39.2559C21.3096 37.8681 22.1532 36.6191 23.6582 36.6191C24.8935 36.6191 25.7137 37.4355 25.7627 38.5332H24.9033C24.8536 37.8667 24.3228 37.3613 23.6582 37.3613C22.6014 37.3613 22.2129 38.3513 22.2129 39.2559C22.2129 40.2174 22.4647 41.3555 23.6582 41.3555Z" fill="black"/>
<path fill-rule="evenodd" clip-rule="evenodd" d="M18.4336 42.0977C19.4863 42.0977 20.0804 41.5928 20.4209 41.0771L19.874 40.6426C19.542 41.0788 19.1204 41.3604 18.4824 41.3604C17.5065 41.3604 16.9385 40.508 16.9159 39.6123H20.4893C20.4893 38.1516 19.9818 36.6191 18.3164 36.6191C16.7047 36.6191 16.0068 38.1562 16.0068 39.5439C16.0068 41.0356 16.9734 42.0977 18.4336 42.0977ZM16.9423 38.875L19.5859 38.8066C19.5445 38.0601 19.1487 37.3613 18.3164 37.3613C17.6057 37.3613 17.0655 37.896 16.9423 38.875Z" fill="black"/>
<path fill-rule="evenodd" clip-rule="evenodd" d="M11.4958 37.297L11.4512 36.7168H10.6211V44.0312H11.5293V41.4875C11.8856 41.8851 12.3886 42.0977 13.0381 42.0977C14.3605 42.0977 15.0889 40.938 15.0889 39.417C15.0889 38.107 14.5665 36.6191 13.0234 36.6191C12.3614 36.6191 11.8547 36.8538 11.4958 37.297ZM11.5293 40.6308V38.1086C11.8875 37.473 12.7429 37.1552 13.3994 37.5371C13.9326 37.8376 14.1807 38.5152 14.1807 39.3145C14.1807 40.2227 13.8407 41.3555 12.7695 41.3555C12.1448 41.3555 11.7609 41.0535 11.5293 40.6308Z" fill="black"/>
</svg>
