<svg width="50" height="50" viewBox="0 0 50 50" fill="none" xmlns="http://www.w3.org/2000/svg">
<path d="M33 7C34.02 11.09 33.26 15.5 31.52 19.28C31.52 19.28 25.44 18.58 23.77 18.48C18.06 18.15 12.04 18.67 7 21.5V8.25C7 7.5 7.5 7 8.25 7H33Z" fill="#028679"/>
<path d="M36.4996 7L41 7.04675C42 7.04675 42.799 7.80941 42.9796 8.76L42.5396 42.29C37.0096 44.94 29.9596 40.46 27.0596 35.63C27.0596 35.63 32.2996 28.06 33.3996 26.15C36.8496 20.16 38.5296 13.81 36.4996 7Z" fill="#028679"/>
<path d="M6.99967 42C7 42.5 7.5 43 8.25003 43.0003H28C21.94 38.1403 18.16 31.2003 16.06 23.8003C13.9997 23.0001 8.02003 24.7203 7.08003 26.3303C6.75003 27.3103 6.99967 42 6.99967 42Z" fill="#028679"/>
</svg>
