<svg width="50" height="50" viewBox="0 0 50 50" fill="none" xmlns="http://www.w3.org/2000/svg">
<rect width="50" height="50" fill="white"/>
<path d="M35.4087 8.00832C34.5211 8.93307 34.0539 10.2273 34.1472 11.5034C34.3203 13.794 36.283 15.6256 38.5888 15.6482C39.7676 15.6536 40.9025 15.2031 41.7546 14.3915V39.9054C41.8577 41.0676 40.8325 42.1015 39.6504 41.992H23.4645C23.5264 41.8592 23.6454 41.8213 23.7359 41.7596C26.0148 40.3422 27.9418 38.429 29.3724 36.1637C30.4279 34.5193 31.0455 32.6343 31.1671 30.6862C31.2088 30.0749 31.1312 29.4613 30.9386 28.8794C30.4871 27.4651 30.4149 25.9577 30.7291 24.5069C30.9957 23.0385 31.4334 21.6061 32.0335 20.2388C32.101 20.067 32.2475 19.93 32.4239 19.8737C32.8634 19.7225 36.3149 18.6086 36.1419 17.9767C35.9956 17.4423 32.973 17.7402 32.5429 17.7444C32.3221 17.75 32.1058 17.6815 31.9288 17.5499C30.6939 16.6494 29.2905 16.0044 27.8014 15.653C25.4211 15.1787 23.4264 15.9043 21.7793 17.6305C20.3482 19.2259 19.2869 21.1153 18.6707 23.1649C18.4945 23.6771 18.3565 24.2034 18.1946 24.7251C18.0621 25.2796 16.4532 25.8358 15.9952 26.3517C14.3933 27.9463 12.9194 29.6636 11.587 31.4877C11.1109 32.1327 10.6349 32.7919 10.1588 33.4463C10.1148 33.5228 10.0566 33.5904 9.98743 33.6455C9.49886 33.9477 7.769 35.6953 7.769 35.2579V10.0949C7.66402 8.91484 8.71004 7.89725 9.87792 8.00832H35.4183H35.4087Z" fill="#39D37D"/>
<path d="M35.5087 11.1003C35.5234 9.20659 37.3413 7.71956 39.2247 8.10439C41.087 8.48491 42.2 10.5492 41.4568 12.3157C40.9786 13.4521 39.8305 14.2103 38.5936 14.2066C36.9048 14.1963 35.5009 12.7827 35.5087 11.1003Z" fill="#FE2D2D"/>
</svg>
