<svg width="50" height="50" viewBox="0 0 50 50" fill="none" xmlns="http://www.w3.org/2000/svg">
<path d="M42.7637 26.5109C42.7096 26.5109 42.6554 26.5453 42.6193 26.6313C42.2585 27.6281 41.7532 28.2297 41.3382 28.2297C41.1036 28.2297 41.0134 27.9719 41.0134 27.5938C41.0134 26.6141 41.6269 24.5344 41.9337 23.5719C41.9698 23.4516 41.9878 23.3484 41.9878 23.2625C41.9878 22.9875 41.8254 22.85 41.4284 22.85C41.0134 22.85 40.5443 23.0047 40.1112 23.7438C39.9668 23.0906 39.4977 22.8156 38.8481 22.8156C38.1083 22.8156 37.3865 23.2797 36.7911 24.0188C36.1956 24.7578 35.4919 24.9984 34.9686 24.8781C35.3475 24.0016 35.4919 23.3312 35.4919 22.85C35.4919 22.0766 35.0949 21.6125 34.4453 21.6125C33.4709 21.6125 32.9115 22.5062 32.9115 23.4344C32.9115 24.1562 33.2544 24.8953 34.0122 25.2563C33.3807 26.6141 32.4604 27.8516 32.0995 27.8516C31.6484 27.8516 31.5041 25.7375 31.5402 24.225C31.5582 23.3656 31.6304 23.3141 31.6304 23.0563C31.6304 22.9016 31.5221 22.7984 31.1071 22.7984C30.1508 22.7984 29.844 23.5719 29.8079 24.4656C29.7899 24.8094 29.7358 25.1359 29.6455 25.4625C29.2486 26.8203 28.4185 27.8687 27.8772 27.8687C27.6246 27.8687 27.5524 27.6281 27.5524 27.3188C27.5524 26.3391 28.1298 25.1016 28.1298 24.0531C28.1298 23.2797 27.7689 22.7984 27.1013 22.7984C26.3073 22.7984 25.2788 23.6922 24.2864 25.3594C24.6112 24.0875 24.7375 22.85 23.7811 22.85C23.5646 22.85 23.3661 22.9016 23.1857 23.0047C23.0594 23.0562 22.9872 23.1766 22.9872 23.3141C23.0774 24.6719 21.8324 28.1609 20.6595 28.1609C20.443 28.1609 20.3347 27.9375 20.3347 27.5766C20.3347 26.5969 20.9482 24.5172 21.255 23.5547C21.291 23.4344 21.3091 23.3313 21.3091 23.2281C21.3091 22.9703 21.1467 22.8328 20.7497 22.8328C20.3347 22.8328 19.8655 22.9875 19.4325 23.7266C19.2701 23.0734 18.819 22.7984 18.1694 22.7984C17.1048 22.7984 15.9319 23.8641 15.4086 25.2563C14.7049 27.1125 13.3155 28.9172 11.4208 28.9172C9.70664 28.9172 8.80442 27.5594 8.80442 25.4109C8.80442 22.3 11.2043 19.7734 12.9726 19.7734C13.8207 19.7734 14.2177 20.2891 14.2177 21.0797C14.2177 22.0422 13.6583 22.4719 13.6583 22.85C13.6583 22.9531 13.7485 23.0734 13.947 23.0734C14.7229 23.0734 15.6251 22.2141 15.6251 21.0281C15.6251 19.8422 14.6508 19 12.8824 19C9.94121 19 7 21.8016 7 25.4109C7 28.2812 8.47963 30 11.0419 30C12.7922 30 14.326 28.7109 15.138 27.1984C15.2282 28.4531 15.8236 29.1062 16.7439 29.1062C17.5559 29.1062 18.2055 28.6422 18.7107 27.8344C18.9092 28.6766 19.4144 29.0891 20.0821 29.0891C20.8399 29.0891 21.4895 28.625 22.085 27.7828C22.085 28.4531 22.2293 29.0891 22.8428 29.0891C23.1316 29.0891 23.4744 29.0203 23.5285 28.7797C24.1781 26.2531 25.766 24.1734 26.2532 24.1734C26.3976 24.1734 26.4337 24.3109 26.4337 24.4656C26.4337 25.1531 25.9284 26.5625 25.9284 27.4563C25.9284 28.4359 26.3615 29.0719 27.2637 29.0719C28.2561 29.0719 29.2666 27.9203 29.9342 26.2188C30.1508 27.8 30.6019 29.0719 31.3056 29.0719C32.1717 29.0719 33.7416 27.3187 34.6799 25.4625C35.0408 25.5141 35.6001 25.4969 36.1415 25.1359C35.9069 25.6859 35.7806 26.2875 35.7806 26.8719C35.7806 28.5906 36.6467 29.0719 37.3865 29.0719C38.1985 29.0719 38.8481 28.6078 39.3533 27.8C39.5157 28.5219 39.9488 29.0547 40.7247 29.0547C41.9337 29.0547 42.9983 27.8688 42.9983 26.8891C43.0163 26.6828 42.89 26.5109 42.7637 26.5109ZM17.5018 28.1438C17.0146 28.1438 16.8161 27.6797 16.8161 26.975C16.8161 25.7547 17.7002 23.7094 18.6205 23.7094C19.0175 23.7094 19.1799 24.1562 19.1799 24.7234C19.1799 25.9609 18.3498 28.1438 17.5018 28.1438ZM34.337 24.5C34.0483 24.1734 33.9401 23.7094 33.9401 23.3141C33.9401 22.8156 34.1385 22.4031 34.3551 22.4031C34.5716 22.4031 34.6618 22.6094 34.6618 22.9187C34.6438 23.4 34.4633 24.1391 34.337 24.5ZM38.1444 28.1438C37.6572 28.1438 37.4587 27.5938 37.4587 26.975C37.4587 25.7891 38.3429 23.7094 39.2631 23.7094C39.6601 23.7094 39.8044 24.1562 39.8044 24.7234C39.8225 25.9609 39.0105 28.1438 38.1444 28.1438Z" fill="url(#paint0_linear_727_8375)"/>
<path d="M42.7637 26.5109C42.7096 26.5109 42.6554 26.5453 42.6193 26.6313C42.2585 27.6281 41.7532 28.2297 41.3382 28.2297C41.1036 28.2297 41.0134 27.9719 41.0134 27.5938C41.0134 26.6141 41.6269 24.5344 41.9337 23.5719C41.9698 23.4516 41.9878 23.3484 41.9878 23.2625C41.9878 22.9875 41.8254 22.85 41.4284 22.85C41.0134 22.85 40.5443 23.0047 40.1112 23.7438C39.9668 23.0906 39.4977 22.8156 38.8481 22.8156C38.1083 22.8156 37.3865 23.2797 36.7911 24.0188C36.1956 24.7578 35.4919 24.9984 34.9686 24.8781C35.3475 24.0016 35.4919 23.3312 35.4919 22.85C35.4919 22.0766 35.0949 21.6125 34.4453 21.6125C33.4709 21.6125 32.9115 22.5062 32.9115 23.4344C32.9115 24.1562 33.2544 24.8953 34.0122 25.2563C33.3807 26.6141 32.4604 27.8516 32.0995 27.8516C31.6484 27.8516 31.5041 25.7375 31.5402 24.225C31.5582 23.3656 31.6304 23.3141 31.6304 23.0563C31.6304 22.9016 31.5221 22.7984 31.1071 22.7984C30.1508 22.7984 29.844 23.5719 29.8079 24.4656C29.7899 24.8094 29.7358 25.1359 29.6455 25.4625C29.2486 26.8203 28.4185 27.8687 27.8772 27.8687C27.6246 27.8687 27.5524 27.6281 27.5524 27.3188C27.5524 26.3391 28.1298 25.1016 28.1298 24.0531C28.1298 23.2797 27.7689 22.7984 27.1013 22.7984C26.3073 22.7984 25.2788 23.6922 24.2864 25.3594C24.6112 24.0875 24.7375 22.85 23.7811 22.85C23.5646 22.85 23.3661 22.9016 23.1857 23.0047C23.0594 23.0562 22.9872 23.1766 22.9872 23.3141C23.0774 24.6719 21.8324 28.1609 20.6595 28.1609C20.443 28.1609 20.3347 27.9375 20.3347 27.5766C20.3347 26.5969 20.9482 24.5172 21.255 23.5547C21.291 23.4344 21.3091 23.3313 21.3091 23.2281C21.3091 22.9703 21.1467 22.8328 20.7497 22.8328C20.3347 22.8328 19.8655 22.9875 19.4325 23.7266C19.2701 23.0734 18.819 22.7984 18.1694 22.7984C17.1048 22.7984 15.9319 23.8641 15.4086 25.2563C14.7049 27.1125 13.3155 28.9172 11.4208 28.9172C9.70664 28.9172 8.80442 27.5594 8.80442 25.4109C8.80442 22.3 11.2043 19.7734 12.9726 19.7734C13.8207 19.7734 14.2177 20.2891 14.2177 21.0797C14.2177 22.0422 13.6583 22.4719 13.6583 22.85C13.6583 22.9531 13.7485 23.0734 13.947 23.0734C14.7229 23.0734 15.6251 22.2141 15.6251 21.0281C15.6251 19.8422 14.6508 19 12.8824 19C9.94121 19 7 21.8016 7 25.4109C7 28.2812 8.47963 30 11.0419 30C12.7922 30 14.326 28.7109 15.138 27.1984C15.2282 28.4531 15.8236 29.1062 16.7439 29.1062C17.5559 29.1062 18.2055 28.6422 18.7107 27.8344C18.9092 28.6766 19.4144 29.0891 20.0821 29.0891C20.8399 29.0891 21.4895 28.625 22.085 27.7828C22.085 28.4531 22.2293 29.0891 22.8428 29.0891C23.1316 29.0891 23.4744 29.0203 23.5285 28.7797C24.1781 26.2531 25.766 24.1734 26.2532 24.1734C26.3976 24.1734 26.4337 24.3109 26.4337 24.4656C26.4337 25.1531 25.9284 26.5625 25.9284 27.4563C25.9284 28.4359 26.3615 29.0719 27.2637 29.0719C28.2561 29.0719 29.2666 27.9203 29.9342 26.2188C30.1508 27.8 30.6019 29.0719 31.3056 29.0719C32.1717 29.0719 33.7416 27.3187 34.6799 25.4625C35.0408 25.5141 35.6001 25.4969 36.1415 25.1359C35.9069 25.6859 35.7806 26.2875 35.7806 26.8719C35.7806 28.5906 36.6467 29.0719 37.3865 29.0719C38.1985 29.0719 38.8481 28.6078 39.3533 27.8C39.5157 28.5219 39.9488 29.0547 40.7247 29.0547C41.9337 29.0547 42.9983 27.8688 42.9983 26.8891C43.0163 26.6828 42.89 26.5109 42.7637 26.5109ZM17.5018 28.1438C17.0146 28.1438 16.8161 27.6797 16.8161 26.975C16.8161 25.7547 17.7002 23.7094 18.6205 23.7094C19.0175 23.7094 19.1799 24.1562 19.1799 24.7234C19.1799 25.9609 18.3498 28.1438 17.5018 28.1438ZM34.337 24.5C34.0483 24.1734 33.9401 23.7094 33.9401 23.3141C33.9401 22.8156 34.1385 22.4031 34.3551 22.4031C34.5716 22.4031 34.6618 22.6094 34.6618 22.9187C34.6438 23.4 34.4633 24.1391 34.337 24.5ZM38.1444 28.1438C37.6572 28.1438 37.4587 27.5938 37.4587 26.975C37.4587 25.7891 38.3429 23.7094 39.2631 23.7094C39.6601 23.7094 39.8044 24.1562 39.8044 24.7234C39.8225 25.9609 39.0105 28.1438 38.1444 28.1438Z" fill="url(#paint1_radial_727_8375)"/>
<path d="M42.7637 26.5109C42.7096 26.5109 42.6554 26.5453 42.6193 26.6313C42.2585 27.6281 41.7532 28.2297 41.3382 28.2297C41.1036 28.2297 41.0134 27.9719 41.0134 27.5938C41.0134 26.6141 41.6269 24.5344 41.9337 23.5719C41.9698 23.4516 41.9878 23.3484 41.9878 23.2625C41.9878 22.9875 41.8254 22.85 41.4284 22.85C41.0134 22.85 40.5443 23.0047 40.1112 23.7438C39.9668 23.0906 39.4977 22.8156 38.8481 22.8156C38.1083 22.8156 37.3865 23.2797 36.7911 24.0188C36.1956 24.7578 35.4919 24.9984 34.9686 24.8781C35.3475 24.0016 35.4919 23.3312 35.4919 22.85C35.4919 22.0766 35.0949 21.6125 34.4453 21.6125C33.4709 21.6125 32.9115 22.5062 32.9115 23.4344C32.9115 24.1562 33.2544 24.8953 34.0122 25.2563C33.3807 26.6141 32.4604 27.8516 32.0995 27.8516C31.6484 27.8516 31.5041 25.7375 31.5402 24.225C31.5582 23.3656 31.6304 23.3141 31.6304 23.0563C31.6304 22.9016 31.5221 22.7984 31.1071 22.7984C30.1508 22.7984 29.844 23.5719 29.8079 24.4656C29.7899 24.8094 29.7358 25.1359 29.6455 25.4625C29.2486 26.8203 28.4185 27.8687 27.8772 27.8687C27.6246 27.8687 27.5524 27.6281 27.5524 27.3188C27.5524 26.3391 28.1298 25.1016 28.1298 24.0531C28.1298 23.2797 27.7689 22.7984 27.1013 22.7984C26.3073 22.7984 25.2788 23.6922 24.2864 25.3594C24.6112 24.0875 24.7375 22.85 23.7811 22.85C23.5646 22.85 23.3661 22.9016 23.1857 23.0047C23.0594 23.0562 22.9872 23.1766 22.9872 23.3141C23.0774 24.6719 21.8324 28.1609 20.6595 28.1609C20.443 28.1609 20.3347 27.9375 20.3347 27.5766C20.3347 26.5969 20.9482 24.5172 21.255 23.5547C21.291 23.4344 21.3091 23.3313 21.3091 23.2281C21.3091 22.9703 21.1467 22.8328 20.7497 22.8328C20.3347 22.8328 19.8655 22.9875 19.4325 23.7266C19.2701 23.0734 18.819 22.7984 18.1694 22.7984C17.1048 22.7984 15.9319 23.8641 15.4086 25.2563C14.7049 27.1125 13.3155 28.9172 11.4208 28.9172C9.70664 28.9172 8.80442 27.5594 8.80442 25.4109C8.80442 22.3 11.2043 19.7734 12.9726 19.7734C13.8207 19.7734 14.2177 20.2891 14.2177 21.0797C14.2177 22.0422 13.6583 22.4719 13.6583 22.85C13.6583 22.9531 13.7485 23.0734 13.947 23.0734C14.7229 23.0734 15.6251 22.2141 15.6251 21.0281C15.6251 19.8422 14.6508 19 12.8824 19C9.94121 19 7 21.8016 7 25.4109C7 28.2812 8.47963 30 11.0419 30C12.7922 30 14.326 28.7109 15.138 27.1984C15.2282 28.4531 15.8236 29.1062 16.7439 29.1062C17.5559 29.1062 18.2055 28.6422 18.7107 27.8344C18.9092 28.6766 19.4144 29.0891 20.0821 29.0891C20.8399 29.0891 21.4895 28.625 22.085 27.7828C22.085 28.4531 22.2293 29.0891 22.8428 29.0891C23.1316 29.0891 23.4744 29.0203 23.5285 28.7797C24.1781 26.2531 25.766 24.1734 26.2532 24.1734C26.3976 24.1734 26.4337 24.3109 26.4337 24.4656C26.4337 25.1531 25.9284 26.5625 25.9284 27.4563C25.9284 28.4359 26.3615 29.0719 27.2637 29.0719C28.2561 29.0719 29.2666 27.9203 29.9342 26.2188C30.1508 27.8 30.6019 29.0719 31.3056 29.0719C32.1717 29.0719 33.7416 27.3187 34.6799 25.4625C35.0408 25.5141 35.6001 25.4969 36.1415 25.1359C35.9069 25.6859 35.7806 26.2875 35.7806 26.8719C35.7806 28.5906 36.6467 29.0719 37.3865 29.0719C38.1985 29.0719 38.8481 28.6078 39.3533 27.8C39.5157 28.5219 39.9488 29.0547 40.7247 29.0547C41.9337 29.0547 42.9983 27.8688 42.9983 26.8891C43.0163 26.6828 42.89 26.5109 42.7637 26.5109ZM17.5018 28.1438C17.0146 28.1438 16.8161 27.6797 16.8161 26.975C16.8161 25.7547 17.7002 23.7094 18.6205 23.7094C19.0175 23.7094 19.1799 24.1562 19.1799 24.7234C19.1799 25.9609 18.3498 28.1438 17.5018 28.1438ZM34.337 24.5C34.0483 24.1734 33.9401 23.7094 33.9401 23.3141C33.9401 22.8156 34.1385 22.4031 34.3551 22.4031C34.5716 22.4031 34.6618 22.6094 34.6618 22.9187C34.6438 23.4 34.4633 24.1391 34.337 24.5ZM38.1444 28.1438C37.6572 28.1438 37.4587 27.5938 37.4587 26.975C37.4587 25.7891 38.3429 23.7094 39.2631 23.7094C39.6601 23.7094 39.8044 24.1562 39.8044 24.7234C39.8225 25.9609 39.0105 28.1438 38.1444 28.1438Z" fill="url(#paint2_radial_727_8375)"/>
<path d="M42.7637 26.5109C42.7096 26.5109 42.6554 26.5453 42.6193 26.6313C42.2585 27.6281 41.7532 28.2297 41.3382 28.2297C41.1036 28.2297 41.0134 27.9719 41.0134 27.5938C41.0134 26.6141 41.6269 24.5344 41.9337 23.5719C41.9698 23.4516 41.9878 23.3484 41.9878 23.2625C41.9878 22.9875 41.8254 22.85 41.4284 22.85C41.0134 22.85 40.5443 23.0047 40.1112 23.7438C39.9668 23.0906 39.4977 22.8156 38.8481 22.8156C38.1083 22.8156 37.3865 23.2797 36.7911 24.0188C36.1956 24.7578 35.4919 24.9984 34.9686 24.8781C35.3475 24.0016 35.4919 23.3312 35.4919 22.85C35.4919 22.0766 35.0949 21.6125 34.4453 21.6125C33.4709 21.6125 32.9115 22.5062 32.9115 23.4344C32.9115 24.1562 33.2544 24.8953 34.0122 25.2563C33.3807 26.6141 32.4604 27.8516 32.0995 27.8516C31.6484 27.8516 31.5041 25.7375 31.5402 24.225C31.5582 23.3656 31.6304 23.3141 31.6304 23.0563C31.6304 22.9016 31.5221 22.7984 31.1071 22.7984C30.1508 22.7984 29.844 23.5719 29.8079 24.4656C29.7899 24.8094 29.7358 25.1359 29.6455 25.4625C29.2486 26.8203 28.4185 27.8687 27.8772 27.8687C27.6246 27.8687 27.5524 27.6281 27.5524 27.3188C27.5524 26.3391 28.1298 25.1016 28.1298 24.0531C28.1298 23.2797 27.7689 22.7984 27.1013 22.7984C26.3073 22.7984 25.2788 23.6922 24.2864 25.3594C24.6112 24.0875 24.7375 22.85 23.7811 22.85C23.5646 22.85 23.3661 22.9016 23.1857 23.0047C23.0594 23.0562 22.9872 23.1766 22.9872 23.3141C23.0774 24.6719 21.8324 28.1609 20.6595 28.1609C20.443 28.1609 20.3347 27.9375 20.3347 27.5766C20.3347 26.5969 20.9482 24.5172 21.255 23.5547C21.291 23.4344 21.3091 23.3313 21.3091 23.2281C21.3091 22.9703 21.1467 22.8328 20.7497 22.8328C20.3347 22.8328 19.8655 22.9875 19.4325 23.7266C19.2701 23.0734 18.819 22.7984 18.1694 22.7984C17.1048 22.7984 15.9319 23.8641 15.4086 25.2563C14.7049 27.1125 13.3155 28.9172 11.4208 28.9172C9.70664 28.9172 8.80442 27.5594 8.80442 25.4109C8.80442 22.3 11.2043 19.7734 12.9726 19.7734C13.8207 19.7734 14.2177 20.2891 14.2177 21.0797C14.2177 22.0422 13.6583 22.4719 13.6583 22.85C13.6583 22.9531 13.7485 23.0734 13.947 23.0734C14.7229 23.0734 15.6251 22.2141 15.6251 21.0281C15.6251 19.8422 14.6508 19 12.8824 19C9.94121 19 7 21.8016 7 25.4109C7 28.2812 8.47963 30 11.0419 30C12.7922 30 14.326 28.7109 15.138 27.1984C15.2282 28.4531 15.8236 29.1062 16.7439 29.1062C17.5559 29.1062 18.2055 28.6422 18.7107 27.8344C18.9092 28.6766 19.4144 29.0891 20.0821 29.0891C20.8399 29.0891 21.4895 28.625 22.085 27.7828C22.085 28.4531 22.2293 29.0891 22.8428 29.0891C23.1316 29.0891 23.4744 29.0203 23.5285 28.7797C24.1781 26.2531 25.766 24.1734 26.2532 24.1734C26.3976 24.1734 26.4337 24.3109 26.4337 24.4656C26.4337 25.1531 25.9284 26.5625 25.9284 27.4563C25.9284 28.4359 26.3615 29.0719 27.2637 29.0719C28.2561 29.0719 29.2666 27.9203 29.9342 26.2188C30.1508 27.8 30.6019 29.0719 31.3056 29.0719C32.1717 29.0719 33.7416 27.3187 34.6799 25.4625C35.0408 25.5141 35.6001 25.4969 36.1415 25.1359C35.9069 25.6859 35.7806 26.2875 35.7806 26.8719C35.7806 28.5906 36.6467 29.0719 37.3865 29.0719C38.1985 29.0719 38.8481 28.6078 39.3533 27.8C39.5157 28.5219 39.9488 29.0547 40.7247 29.0547C41.9337 29.0547 42.9983 27.8688 42.9983 26.8891C43.0163 26.6828 42.89 26.5109 42.7637 26.5109ZM17.5018 28.1438C17.0146 28.1438 16.8161 27.6797 16.8161 26.975C16.8161 25.7547 17.7002 23.7094 18.6205 23.7094C19.0175 23.7094 19.1799 24.1562 19.1799 24.7234C19.1799 25.9609 18.3498 28.1438 17.5018 28.1438ZM34.337 24.5C34.0483 24.1734 33.9401 23.7094 33.9401 23.3141C33.9401 22.8156 34.1385 22.4031 34.3551 22.4031C34.5716 22.4031 34.6618 22.6094 34.6618 22.9187C34.6438 23.4 34.4633 24.1391 34.337 24.5ZM38.1444 28.1438C37.6572 28.1438 37.4587 27.5938 37.4587 26.975C37.4587 25.7891 38.3429 23.7094 39.2631 23.7094C39.6601 23.7094 39.8044 24.1562 39.8044 24.7234C39.8225 25.9609 39.0105 28.1438 38.1444 28.1438Z" fill="url(#paint3_radial_727_8375)"/>
<path d="M42.7637 26.5109C42.7096 26.5109 42.6554 26.5453 42.6193 26.6313C42.2585 27.6281 41.7532 28.2297 41.3382 28.2297C41.1036 28.2297 41.0134 27.9719 41.0134 27.5938C41.0134 26.6141 41.6269 24.5344 41.9337 23.5719C41.9698 23.4516 41.9878 23.3484 41.9878 23.2625C41.9878 22.9875 41.8254 22.85 41.4284 22.85C41.0134 22.85 40.5443 23.0047 40.1112 23.7438C39.9668 23.0906 39.4977 22.8156 38.8481 22.8156C38.1083 22.8156 37.3865 23.2797 36.7911 24.0188C36.1956 24.7578 35.4919 24.9984 34.9686 24.8781C35.3475 24.0016 35.4919 23.3312 35.4919 22.85C35.4919 22.0766 35.0949 21.6125 34.4453 21.6125C33.4709 21.6125 32.9115 22.5062 32.9115 23.4344C32.9115 24.1562 33.2544 24.8953 34.0122 25.2563C33.3807 26.6141 32.4604 27.8516 32.0995 27.8516C31.6484 27.8516 31.5041 25.7375 31.5402 24.225C31.5582 23.3656 31.6304 23.3141 31.6304 23.0563C31.6304 22.9016 31.5221 22.7984 31.1071 22.7984C30.1508 22.7984 29.844 23.5719 29.8079 24.4656C29.7899 24.8094 29.7358 25.1359 29.6455 25.4625C29.2486 26.8203 28.4185 27.8687 27.8772 27.8687C27.6246 27.8687 27.5524 27.6281 27.5524 27.3188C27.5524 26.3391 28.1298 25.1016 28.1298 24.0531C28.1298 23.2797 27.7689 22.7984 27.1013 22.7984C26.3073 22.7984 25.2788 23.6922 24.2864 25.3594C24.6112 24.0875 24.7375 22.85 23.7811 22.85C23.5646 22.85 23.3661 22.9016 23.1857 23.0047C23.0594 23.0562 22.9872 23.1766 22.9872 23.3141C23.0774 24.6719 21.8324 28.1609 20.6595 28.1609C20.443 28.1609 20.3347 27.9375 20.3347 27.5766C20.3347 26.5969 20.9482 24.5172 21.255 23.5547C21.291 23.4344 21.3091 23.3313 21.3091 23.2281C21.3091 22.9703 21.1467 22.8328 20.7497 22.8328C20.3347 22.8328 19.8655 22.9875 19.4325 23.7266C19.2701 23.0734 18.819 22.7984 18.1694 22.7984C17.1048 22.7984 15.9319 23.8641 15.4086 25.2563C14.7049 27.1125 13.3155 28.9172 11.4208 28.9172C9.70664 28.9172 8.80442 27.5594 8.80442 25.4109C8.80442 22.3 11.2043 19.7734 12.9726 19.7734C13.8207 19.7734 14.2177 20.2891 14.2177 21.0797C14.2177 22.0422 13.6583 22.4719 13.6583 22.85C13.6583 22.9531 13.7485 23.0734 13.947 23.0734C14.7229 23.0734 15.6251 22.2141 15.6251 21.0281C15.6251 19.8422 14.6508 19 12.8824 19C9.94121 19 7 21.8016 7 25.4109C7 28.2812 8.47963 30 11.0419 30C12.7922 30 14.326 28.7109 15.138 27.1984C15.2282 28.4531 15.8236 29.1062 16.7439 29.1062C17.5559 29.1062 18.2055 28.6422 18.7107 27.8344C18.9092 28.6766 19.4144 29.0891 20.0821 29.0891C20.8399 29.0891 21.4895 28.625 22.085 27.7828C22.085 28.4531 22.2293 29.0891 22.8428 29.0891C23.1316 29.0891 23.4744 29.0203 23.5285 28.7797C24.1781 26.2531 25.766 24.1734 26.2532 24.1734C26.3976 24.1734 26.4337 24.3109 26.4337 24.4656C26.4337 25.1531 25.9284 26.5625 25.9284 27.4563C25.9284 28.4359 26.3615 29.0719 27.2637 29.0719C28.2561 29.0719 29.2666 27.9203 29.9342 26.2188C30.1508 27.8 30.6019 29.0719 31.3056 29.0719C32.1717 29.0719 33.7416 27.3187 34.6799 25.4625C35.0408 25.5141 35.6001 25.4969 36.1415 25.1359C35.9069 25.6859 35.7806 26.2875 35.7806 26.8719C35.7806 28.5906 36.6467 29.0719 37.3865 29.0719C38.1985 29.0719 38.8481 28.6078 39.3533 27.8C39.5157 28.5219 39.9488 29.0547 40.7247 29.0547C41.9337 29.0547 42.9983 27.8688 42.9983 26.8891C43.0163 26.6828 42.89 26.5109 42.7637 26.5109ZM17.5018 28.1438C17.0146 28.1438 16.8161 27.6797 16.8161 26.975C16.8161 25.7547 17.7002 23.7094 18.6205 23.7094C19.0175 23.7094 19.1799 24.1562 19.1799 24.7234C19.1799 25.9609 18.3498 28.1438 17.5018 28.1438ZM34.337 24.5C34.0483 24.1734 33.9401 23.7094 33.9401 23.3141C33.9401 22.8156 34.1385 22.4031 34.3551 22.4031C34.5716 22.4031 34.6618 22.6094 34.6618 22.9187C34.6438 23.4 34.4633 24.1391 34.337 24.5ZM38.1444 28.1438C37.6572 28.1438 37.4587 27.5938 37.4587 26.975C37.4587 25.7891 38.3429 23.7094 39.2631 23.7094C39.6601 23.7094 39.8044 24.1562 39.8044 24.7234C39.8225 25.9609 39.0105 28.1438 38.1444 28.1438Z" fill="url(#paint4_radial_727_8375)"/>
<path d="M42.7637 26.5109C42.7096 26.5109 42.6554 26.5453 42.6193 26.6313C42.2585 27.6281 41.7532 28.2297 41.3382 28.2297C41.1036 28.2297 41.0134 27.9719 41.0134 27.5938C41.0134 26.6141 41.6269 24.5344 41.9337 23.5719C41.9698 23.4516 41.9878 23.3484 41.9878 23.2625C41.9878 22.9875 41.8254 22.85 41.4284 22.85C41.0134 22.85 40.5443 23.0047 40.1112 23.7438C39.9668 23.0906 39.4977 22.8156 38.8481 22.8156C38.1083 22.8156 37.3865 23.2797 36.7911 24.0188C36.1956 24.7578 35.4919 24.9984 34.9686 24.8781C35.3475 24.0016 35.4919 23.3312 35.4919 22.85C35.4919 22.0766 35.0949 21.6125 34.4453 21.6125C33.4709 21.6125 32.9115 22.5062 32.9115 23.4344C32.9115 24.1562 33.2544 24.8953 34.0122 25.2563C33.3807 26.6141 32.4604 27.8516 32.0995 27.8516C31.6484 27.8516 31.5041 25.7375 31.5402 24.225C31.5582 23.3656 31.6304 23.3141 31.6304 23.0563C31.6304 22.9016 31.5221 22.7984 31.1071 22.7984C30.1508 22.7984 29.844 23.5719 29.8079 24.4656C29.7899 24.8094 29.7358 25.1359 29.6455 25.4625C29.2486 26.8203 28.4185 27.8687 27.8772 27.8687C27.6246 27.8687 27.5524 27.6281 27.5524 27.3188C27.5524 26.3391 28.1298 25.1016 28.1298 24.0531C28.1298 23.2797 27.7689 22.7984 27.1013 22.7984C26.3073 22.7984 25.2788 23.6922 24.2864 25.3594C24.6112 24.0875 24.7375 22.85 23.7811 22.85C23.5646 22.85 23.3661 22.9016 23.1857 23.0047C23.0594 23.0562 22.9872 23.1766 22.9872 23.3141C23.0774 24.6719 21.8324 28.1609 20.6595 28.1609C20.443 28.1609 20.3347 27.9375 20.3347 27.5766C20.3347 26.5969 20.9482 24.5172 21.255 23.5547C21.291 23.4344 21.3091 23.3313 21.3091 23.2281C21.3091 22.9703 21.1467 22.8328 20.7497 22.8328C20.3347 22.8328 19.8655 22.9875 19.4325 23.7266C19.2701 23.0734 18.819 22.7984 18.1694 22.7984C17.1048 22.7984 15.9319 23.8641 15.4086 25.2563C14.7049 27.1125 13.3155 28.9172 11.4208 28.9172C9.70664 28.9172 8.80442 27.5594 8.80442 25.4109C8.80442 22.3 11.2043 19.7734 12.9726 19.7734C13.8207 19.7734 14.2177 20.2891 14.2177 21.0797C14.2177 22.0422 13.6583 22.4719 13.6583 22.85C13.6583 22.9531 13.7485 23.0734 13.947 23.0734C14.7229 23.0734 15.6251 22.2141 15.6251 21.0281C15.6251 19.8422 14.6508 19 12.8824 19C9.94121 19 7 21.8016 7 25.4109C7 28.2812 8.47963 30 11.0419 30C12.7922 30 14.326 28.7109 15.138 27.1984C15.2282 28.4531 15.8236 29.1062 16.7439 29.1062C17.5559 29.1062 18.2055 28.6422 18.7107 27.8344C18.9092 28.6766 19.4144 29.0891 20.0821 29.0891C20.8399 29.0891 21.4895 28.625 22.085 27.7828C22.085 28.4531 22.2293 29.0891 22.8428 29.0891C23.1316 29.0891 23.4744 29.0203 23.5285 28.7797C24.1781 26.2531 25.766 24.1734 26.2532 24.1734C26.3976 24.1734 26.4337 24.3109 26.4337 24.4656C26.4337 25.1531 25.9284 26.5625 25.9284 27.4563C25.9284 28.4359 26.3615 29.0719 27.2637 29.0719C28.2561 29.0719 29.2666 27.9203 29.9342 26.2188C30.1508 27.8 30.6019 29.0719 31.3056 29.0719C32.1717 29.0719 33.7416 27.3187 34.6799 25.4625C35.0408 25.5141 35.6001 25.4969 36.1415 25.1359C35.9069 25.6859 35.7806 26.2875 35.7806 26.8719C35.7806 28.5906 36.6467 29.0719 37.3865 29.0719C38.1985 29.0719 38.8481 28.6078 39.3533 27.8C39.5157 28.5219 39.9488 29.0547 40.7247 29.0547C41.9337 29.0547 42.9983 27.8688 42.9983 26.8891C43.0163 26.6828 42.89 26.5109 42.7637 26.5109ZM17.5018 28.1438C17.0146 28.1438 16.8161 27.6797 16.8161 26.975C16.8161 25.7547 17.7002 23.7094 18.6205 23.7094C19.0175 23.7094 19.1799 24.1562 19.1799 24.7234C19.1799 25.9609 18.3498 28.1438 17.5018 28.1438ZM34.337 24.5C34.0483 24.1734 33.9401 23.7094 33.9401 23.3141C33.9401 22.8156 34.1385 22.4031 34.3551 22.4031C34.5716 22.4031 34.6618 22.6094 34.6618 22.9187C34.6438 23.4 34.4633 24.1391 34.337 24.5ZM38.1444 28.1438C37.6572 28.1438 37.4587 27.5938 37.4587 26.975C37.4587 25.7891 38.3429 23.7094 39.2631 23.7094C39.6601 23.7094 39.8044 24.1562 39.8044 24.7234C39.8225 25.9609 39.0105 28.1438 38.1444 28.1438Z" fill="url(#paint5_radial_727_8375)"/>
<defs>
<linearGradient id="paint0_linear_727_8375" x1="42.6178" y1="30.19" x2="12.8209" y2="22.7454" gradientUnits="userSpaceOnUse">
<stop stop-color="#7D2AE7"/>
<stop offset="0.7708" stop-color="#7D2AE7"/>
<stop offset="1" stop-color="#7D2AE7" stop-opacity="0"/>
</linearGradient>
<radialGradient id="paint1_radial_727_8375" cx="0" cy="0" r="1" gradientTransform="matrix(7.56205 -7.40879 -5.1692 -4.787 25.438 31.193)" gradientUnits="userSpaceOnUse">
<stop stop-color="#6420FF"/>
<stop offset="1" stop-color="#6420FF" stop-opacity="0"/>
</radialGradient>
<radialGradient id="paint2_radial_727_8375" cx="0" cy="0" r="1" gradientTransform="matrix(21.0297 1.7836 1.49243 -15.9653 7.8619 26.3261)" gradientUnits="userSpaceOnUse">
<stop offset="0.25" stop-color="#00C4CC"/>
<stop offset="1" stop-color="#00C4CC" stop-opacity="0"/>
</radialGradient>
<radialGradient id="paint3_radial_727_8375" cx="0" cy="0" r="1" gradientTransform="matrix(10.5959 -8.1291 -5.8355 -6.90112 22.3699 29.9918)" gradientUnits="userSpaceOnUse">
<stop stop-color="#6420FF"/>
<stop offset="1" stop-color="#6420FF" stop-opacity="0"/>
</radialGradient>
<radialGradient id="paint4_radial_727_8375" cx="0" cy="0" r="1" gradientTransform="matrix(13.1075 -8.50639 -6.10633 -8.53699 9.01755 31.9115)" gradientUnits="userSpaceOnUse">
<stop stop-color="#6420FF"/>
<stop offset="1" stop-color="#6420FF" stop-opacity="0"/>
</radialGradient>
<radialGradient id="paint5_radial_727_8375" cx="0" cy="0" r="1" gradientTransform="matrix(30.6082 6.44838 8.30292 -35.7574 10.4653 20.0079)" gradientUnits="userSpaceOnUse">
<stop stop-color="#00C4CC"/>
<stop offset="1" stop-color="#00C4CC" stop-opacity="0"/>
</radialGradient>
</defs>
</svg>
