<svg width="50" height="50" viewBox="0 0 50 50" fill="none" xmlns="http://www.w3.org/2000/svg">
<path fill-rule="evenodd" clip-rule="evenodd" d="M37.1637 29.8635L36.1843 30.8707L38.3432 33.0832H28.6669V34.5073H38.3432L36.1843 36.7198L37.1637 37.727L40.0205 34.8004L41 33.7932L37.1637 29.8635Z" fill="#7C34B4"/>
<path fill-rule="evenodd" clip-rule="evenodd" d="M29.7606 43.6752L30.74 42.6721L28.5811 40.4555H38.2574V39.0355H28.5811L30.74 36.8189L29.7606 35.8158L25.9243 39.7455L29.7606 43.6752Z" fill="#7C34B4"/>
<path fill-rule="evenodd" clip-rule="evenodd" d="M36.6618 10.925H12.1262L10.7223 9.5752H38.1392L36.6618 10.925Z" fill="#7C34B4"/>
<path fill-rule="evenodd" clip-rule="evenodd" d="M9 11.1025L10.2243 12.1799L10.3223 28.1215C10.3223 28.1215 10.1998 35.2173 23.2063 42.2098V43.6752C23.2063 43.6752 10.8365 37.8095 9.06531 28.7655L9 11.1025Z" fill="#3293D7"/>
<path fill-rule="evenodd" clip-rule="evenodd" d="M39.6812 27.0854L39.771 12.1799L40.9872 11.1025L40.9178 28.427L39.6812 27.0854Z" fill="#3293D7"/>
<path d="M13.186 12.9913V26.4645C13.2051 27.8808 13.6015 29.2678 14.3362 30.4891C15.0917 31.6531 15.9859 32.7256 17 33.6841C18.4719 35.1573 20.1086 36.4644 21.8795 37.5808L21.964 37.6303L22.9662 36.7057C22.8604 36.6355 22.7505 36.5653 22.6321 36.4951C20.9131 35.4489 19.324 34.212 17.8964 32.809C16.9577 31.9256 16.1302 30.9362 15.4313 29.8617C15.389 29.7915 15.3467 29.7172 15.3129 29.6471L35.4989 18.7661V26.448C35.4989 26.8401 35.4989 27.4222 35.4989 27.8226L36.7674 26.32V12.9913H13.186ZM35.4989 17.3338L14.8055 28.4789C14.5799 27.8128 14.4615 27.1165 14.4545 26.415V14.2296H35.4989V17.3338Z" fill="#1D4587"/>
</svg>
