<svg width="50" height="50" viewBox="0 0 50 50" fill="none" xmlns="http://www.w3.org/2000/svg">
<path d="M32.8167 26.8822C32.8122 25.3098 32.0684 24.3966 30.8647 24.3966C29.7035 24.3966 28.9808 25.3084 28.9373 26.7538C28.9275 27.1045 28.9647 27.4718 29.0561 27.8173C29.201 28.3623 29.4814 28.8541 29.9235 29.1435C30.1886 29.3158 30.5124 29.415 30.9007 29.4091C31.4331 29.4009 31.8728 29.2068 32.1961 28.8567C32.5951 28.4191 32.8167 27.7408 32.8167 26.8822Z" fill="#282425"/>
<path fill-rule="evenodd" clip-rule="evenodd" d="M9.59804 33.5243C9.59804 34.1514 9.73426 34.5428 10.3126 34.8793C14.8683 37.5251 19.3971 40.2236 23.9571 42.8626C24.2499 42.9976 24.5821 43.0313 24.8947 42.9643C25.0049 42.9399 25.1125 42.9029 25.2151 42.8534C29.7349 40.2167 34.2191 37.5182 38.7323 34.8678C39.3642 34.497 39.5675 34.0759 39.5675 33.3366C39.5094 28.077 39.4804 22.8127 39.4804 17.5439C39.5302 16.9971 39.216 16.446 38.7271 16.221C34.2028 13.5935 29.6941 10.937 25.201 8.25145C24.6896 7.94704 24.3368 7.92186 23.8165 8.23542C19.3353 10.9408 14.8392 13.6202 10.3283 16.2737C9.84353 16.5012 9.53436 17.0503 9.58464 17.5943L9.58468 17.5976L9.58529 17.6035C9.59443 18.379 9.60184 19.1547 9.60773 19.9305C9.63422 23.2204 9.63568 26.5126 9.617 29.803C9.61196 31.0437 9.60534 32.2841 9.59804 33.5243ZM21.4857 31.192C19.2369 32.0412 16.6264 31.4438 15.1614 29.7386C14.153 28.5669 13.6551 26.8769 13.6555 25.1779C13.6549 23.2725 14.2819 21.3571 15.5188 20.1463C17.2398 18.4579 19.914 18.266 22.0381 19.2682C22.1013 19.2981 22.1634 19.329 22.2243 19.3609L22.2576 19.3786C22.2686 19.3844 22.2795 19.3903 22.2904 19.3963C22.3012 19.4022 22.312 19.4081 22.3227 19.414C22.3359 19.4214 22.349 19.4288 22.3621 19.4362C23.7007 20.1964 24.4532 21.5018 24.7327 23.298L24.7233 23.298L21.9815 23.298C21.2291 21.9065 20.413 21.2631 19.3506 21.2631C17.2122 21.2636 16.2661 23.3455 16.2651 25.2431C16.2645 26.3861 16.534 27.4473 17.4326 28.2509C17.9843 28.7449 18.5888 28.9778 19.1779 28.9786C20.3789 28.9797 21.5169 28.0164 22.0127 26.3352H24.7483C24.6612 28.6377 23.4308 30.4573 21.4857 31.192ZM26.4656 31.4781V18.7707H29.0002V22.9981C29.2484 22.9269 29.4885 22.8483 29.7236 22.7713C30.2437 22.601 30.74 22.4385 31.249 22.3802C32.5521 22.2342 33.5852 22.7426 34.2997 23.5801C34.9965 24.2495 35.4239 25.2991 35.4407 26.8286L35.4409 26.853C35.4667 30.052 32.6915 32.6656 29.4871 30.9677C29.4052 30.925 29.327 30.8738 29.2227 30.8055C29.165 30.7676 29.0992 30.7245 29.0204 30.6748L28.8774 31.4804H26.4656L26.4656 31.4781Z" fill="#282425"/>
<path fill-rule="evenodd" clip-rule="evenodd" d="M15.1614 29.7386C14.1539 28.5626 13.656 26.8742 13.6555 25.1779C13.6559 23.2727 14.2828 21.3562 15.5188 20.1463C14.2819 21.3571 13.6549 23.2725 13.6555 25.1779C13.6551 26.8769 14.153 28.5669 15.1614 29.7386ZM16.2651 25.2431C16.2645 26.3861 16.534 27.4473 17.4326 28.2509C16.5339 27.4552 16.2645 26.3879 16.2651 25.2431ZM21.9815 23.298C21.2291 21.9065 20.413 21.2631 19.3506 21.2631C20.4151 21.2629 21.2364 21.9062 21.9815 23.298ZM22.3621 19.4362C23.7007 20.1964 24.4532 21.5018 24.7327 23.298L24.7233 23.298C24.451 21.5019 23.7002 20.1965 22.3621 19.4362ZM22.3227 19.414C22.312 19.4081 22.3012 19.4022 22.2904 19.3963L22.3227 19.414ZM26.4656 31.4804L26.4656 31.4781H28.8774L29.0203 30.6725C29.1065 30.7263 29.1767 30.7727 29.2377 30.813C29.3349 30.8772 29.4089 30.9261 29.4871 30.9654C32.6921 32.6534 35.465 30.0538 35.4409 26.853C35.4667 30.052 32.6915 32.6656 29.4871 30.9677C29.4052 30.925 29.327 30.8738 29.2227 30.8055C29.165 30.7676 29.0992 30.7245 29.0204 30.6748L28.8774 31.4804H26.4656ZM32.8167 26.8822C32.8122 25.3098 32.0684 24.3966 30.8647 24.3966C29.7035 24.3966 28.9808 25.3084 28.9373 26.7538C28.9781 25.2961 29.6871 24.4009 30.8649 24.392C32.0842 24.3829 32.8167 25.3098 32.8167 26.8822ZM32.8167 26.8822C32.8167 27.7408 32.5951 28.4191 32.1961 28.8567C32.5983 28.421 32.8204 27.7438 32.8167 26.8822ZM29.9235 29.1435C30.1886 29.3158 30.5124 29.415 30.9007 29.4091C31.4331 29.4009 31.8728 29.2068 32.1961 28.8567C31.8729 29.2111 31.4331 29.4075 30.9004 29.4137C30.5127 29.4181 30.1889 29.3173 29.9235 29.1435ZM29.9235 29.1435C29.4802 28.8555 29.2005 28.3634 29.0561 27.8173C29.201 28.3623 29.4814 28.8541 29.9235 29.1435Z" fill="#282425"/>
</svg>
