<svg width="50" height="50" viewBox="0 0 50 50" fill="none" xmlns="http://www.w3.org/2000/svg">
<path d="M27.0971 8.33301C27.2068 8.34581 27.3183 8.36227 27.4298 8.37141C29.1097 8.49678 30.7315 9.05013 32.1458 9.98046C33.5602 10.9108 34.7214 12.1882 35.5226 13.6949C36.1018 14.7759 36.4723 15.9597 36.6142 17.1823C36.6448 17.4365 36.6628 17.6907 36.6753 17.9449C36.6723 17.9806 36.6829 18.0162 36.705 18.0441C36.7271 18.0721 36.759 18.0902 36.794 18.0948C39.1319 18.8007 40.7055 20.3222 41.3763 22.6941C42.0813 25.1848 41.4896 27.4086 39.7326 29.2904C38.929 30.1424 37.9076 30.7497 36.7832 31.0441C36.6932 31.0747 36.598 31.0863 36.5034 31.0783C36.4088 31.0703 36.3168 31.0429 36.2329 30.9977C36.1491 30.9525 36.0751 30.8905 36.0155 30.8154C35.9559 30.7403 35.9119 30.6536 35.8862 30.5607C35.8605 30.4678 35.8536 30.3705 35.8659 30.2748C35.8783 30.1791 35.9096 30.087 35.958 30.0039C36.0064 29.9209 36.0708 29.8487 36.1475 29.7918C36.2241 29.7348 36.3113 29.6943 36.4038 29.6726C37.088 29.4884 37.7273 29.1623 38.2816 28.7147C38.8359 28.2672 39.2932 27.708 39.6247 27.0721C40.1487 26.0881 40.3513 24.9601 40.2033 23.8512C40.0552 22.7423 39.5641 21.7101 38.801 20.9038C38.0883 20.1513 37.1741 19.6281 36.1718 19.3987C35.911 19.3365 35.6539 19.2616 35.3931 19.2012C35.3122 19.1811 35.2906 19.1427 35.2906 19.0622C35.2906 18.68 35.2906 18.296 35.2726 17.9138C35.2215 16.8065 34.946 15.722 34.4633 14.7281C33.2512 12.2483 31.3071 10.6829 28.6725 10.0045C28.0759 9.85656 27.4648 9.77743 26.8507 9.76857C25.2314 9.73373 23.6351 10.162 22.2434 11.0045C20.8518 11.8471 19.7207 13.0701 18.9791 14.5343C18.7274 15.0299 18.5169 15.5474 18.2886 16.0558L18.2436 16.1527C18.035 16.0796 17.8264 16.0155 17.6249 15.9314C16.9158 15.6487 16.1581 15.5137 15.3967 15.5346C13.9006 15.5294 12.4436 16.0199 11.246 16.9317C9.78809 17.9882 8.79923 19.5872 8.49449 21.3811C8.08086 23.7584 8.69411 25.8414 10.2929 27.6189C10.8216 28.1964 11.4447 28.6765 12.1344 29.038C12.2636 29.1006 12.3709 29.202 12.4416 29.3285C12.5124 29.455 12.5432 29.6006 12.5301 29.7455C12.517 29.8904 12.4605 30.0277 12.3682 30.139C12.2759 30.2502 12.1522 30.33 12.014 30.3675C11.9266 30.3927 11.8352 30.4001 11.7451 30.3891C11.6549 30.3781 11.5678 30.349 11.4888 30.3035C9.19587 29.0325 7.74096 27.1123 7.15289 24.521C7.04452 24.0123 6.9843 23.4943 6.97305 22.9739V22.4253C6.98628 21.8976 7.05135 21.3726 7.16728 20.8581C7.80751 18.1369 9.36611 16.1612 11.8431 14.9311C12.7955 14.464 13.83 14.1948 14.886 14.1393C15.5682 14.0924 16.2536 14.1293 16.9272 14.249C17.1232 14.2874 17.3192 14.3349 17.517 14.377L17.553 14.3002C18.097 13.0842 18.8755 11.9915 19.8424 11.0871C21.57 9.43711 23.8196 8.46773 26.1871 8.35313C26.2055 8.34969 26.2232 8.34287 26.2393 8.33301H26.3526C26.3761 8.3431 26.4009 8.34987 26.4263 8.35313H26.9262C26.9517 8.35011 26.9765 8.34333 27 8.33301H27.0971Z" fill="#12418F"/>
<path d="M26.9909 8.33301C26.9674 8.34319 26.9426 8.34987 26.9172 8.35285H26.4171C26.3917 8.34963 26.3669 8.34296 26.3433 8.33301H26.9909Z" fill="#89A0C6"/>
<path d="M6.94434 22.4198H6.96232V22.9684H6.94434V22.4198Z" fill="#C2CFE2"/>
<path d="M24.6747 40.2774V18.3746C24.7107 18.3929 24.7412 18.4057 24.77 18.4222C27.9196 20.2107 31.0698 21.998 34.2206 23.784C34.3094 23.8218 34.3837 23.8879 34.4323 23.9723C34.481 24.0568 34.5013 24.155 34.4904 24.2522C34.476 25.5433 34.4904 26.8344 34.4904 28.1255C34.4937 28.1578 34.4867 28.1903 34.4706 28.2182C34.4544 28.2462 34.4298 28.2682 34.4004 28.2809C33.8052 28.6064 33.2135 28.9374 32.62 29.2666L32.5193 29.327C32.5589 29.3526 32.5894 29.3727 32.6218 29.391L34.4022 30.4205C34.43 30.4326 34.4534 30.4532 34.4692 30.4794C34.485 30.5056 34.4924 30.5362 34.4904 30.5668C34.4904 31.8811 34.4904 33.1966 34.4904 34.5133C34.4926 34.5423 34.4859 34.5714 34.471 34.5963C34.4562 34.6213 34.434 34.6408 34.4076 34.6522L26.5972 39.1656C25.9977 39.513 25.3983 39.8599 24.7988 40.2061L24.6747 40.2774ZM29.6275 29.305L29.7372 29.2447L33.0067 27.4342C33.0336 27.4239 33.0564 27.4049 33.0717 27.3801C33.087 27.3554 33.0938 27.3262 33.0912 27.297C33.0912 26.4887 33.0912 25.6804 33.0912 24.8721C33.0939 24.8449 33.088 24.8175 33.0744 24.7938C33.0609 24.7702 33.0403 24.7515 33.0157 24.7405C30.7245 23.4421 28.4352 22.1424 26.1476 20.8416C26.1296 20.8416 26.1116 20.827 26.0882 20.8178V37.8251L26.1368 37.805C28.4328 36.4761 30.7293 35.1466 33.0265 33.8165C33.0441 33.8028 33.0587 33.7855 33.0692 33.7656C33.0798 33.7457 33.086 33.7238 33.0876 33.7013C33.0876 32.9351 33.0876 32.1688 33.0876 31.4026C33.0906 31.3753 33.0848 31.3478 33.0712 31.3241C33.0576 31.3004 33.0369 31.2817 33.0121 31.2709C32.1584 30.7832 31.3048 30.2895 30.4512 29.7896L29.6275 29.305Z" fill="#0192DF"/>
<path d="M23.358 40.2774L23.2483 40.2189C20.0615 38.367 16.8742 36.5151 13.6862 34.6632C13.6557 34.6488 13.6303 34.625 13.6139 34.5951C13.5974 34.5652 13.5906 34.5308 13.5945 34.4968C13.5945 31.0185 13.5945 27.5403 13.5945 24.062C13.5914 24.0239 13.6002 23.9857 13.6195 23.9529C13.6389 23.9201 13.6679 23.8943 13.7024 23.8791C16.8892 22.0638 20.0741 20.246 23.2573 18.4258L23.358 18.3728C23.358 18.4075 23.358 18.435 23.358 18.4606C23.358 21.1232 23.358 23.7865 23.358 26.4503C23.3611 26.4812 23.3546 26.5123 23.3395 26.5392C23.3243 26.5661 23.3012 26.5874 23.2735 26.6003L20.628 28.1657C20.594 28.1807 20.566 28.2069 20.5484 28.2401C20.5308 28.2732 20.5246 28.3114 20.5309 28.3486C20.5309 29.027 20.5309 29.7037 20.5309 30.3803C20.528 30.4149 20.5358 30.4495 20.5532 30.4793C20.5706 30.5092 20.5968 30.5327 20.628 30.5467C21.5092 31.0679 22.3887 31.5946 23.2717 32.1158C23.3005 32.1296 23.3244 32.1521 23.3402 32.1802C23.356 32.2084 23.3628 32.2408 23.3598 32.2731C23.3598 34.9052 23.3598 37.5362 23.3598 40.1659C23.3616 40.197 23.3598 40.2317 23.358 40.2774ZM21.966 20.8087C21.9157 20.8343 21.8851 20.8489 21.8563 20.8672L15.0872 24.7277C15.0548 24.7423 15.028 24.767 15.0105 24.7983C14.993 24.8296 14.9859 24.8657 14.9901 24.9014C14.9901 27.8201 14.9901 30.7387 14.9901 33.6574C14.9865 33.6949 14.9945 33.7326 15.0128 33.7653C15.0312 33.7981 15.059 33.8243 15.0926 33.8403L21.8563 37.7702C21.8869 37.7885 21.9193 37.8032 21.9552 37.8214C21.956 37.8093 21.956 37.7971 21.9552 37.7849C21.9552 36.2109 21.9552 34.637 21.9552 33.0631C21.9552 32.9881 21.9175 32.9643 21.8671 32.9351C20.9835 32.4096 20.0999 31.8847 19.2163 31.3605C19.1871 31.347 19.1628 31.3246 19.1467 31.2964C19.1306 31.2683 19.1235 31.2357 19.1264 31.2032C19.1264 29.9719 19.1264 28.7418 19.1264 27.5128C19.1236 27.4785 19.1315 27.4442 19.1489 27.4147C19.1663 27.3851 19.1924 27.3619 19.2235 27.3483C20.1029 26.8307 20.9805 26.3077 21.8599 25.7883C21.8905 25.7747 21.9162 25.7517 21.9333 25.7225C21.9504 25.6933 21.958 25.6594 21.9552 25.6256C21.9552 24.0614 21.9552 22.4972 21.9552 20.933L21.966 20.8087Z" fill="#0192DF"/>
</svg>
