<svg width="50" height="50" viewBox="0 0 50 50" fill="none" xmlns="http://www.w3.org/2000/svg">
<rect width="50" height="50" fill="#D97526"/>
<path d="M24.2163 36.9588C21.8171 36.9588 20.0244 35.1045 20.0244 32.7194C20.0244 30.3934 21.832 28.48 24.2163 28.48C25.8891 28.48 27.3943 29.3724 28.0044 30.9619L26.4369 31.3538C26.0292 30.4954 25.171 30.0238 24.2282 30.0238C22.7572 30.0238 21.865 31.3251 21.865 32.7194C21.865 34.1263 22.7477 35.415 24.2282 35.415C25.1998 35.415 26.0549 35.0011 26.5438 33.9069L28.0875 34.2631C27.4795 35.9505 26.0046 36.9588 24.2163 36.9588Z" fill="white"/>
<path fill-rule="evenodd" clip-rule="evenodd" d="M30.9613 31.5465C31.4001 31.0829 32.0006 30.8546 32.6357 30.8546C34.3234 30.8546 35.2244 32.3891 35.2244 33.9064C35.2244 35.4475 34.2847 36.9583 32.6357 36.9583C31.9815 36.9583 31.2732 36.6937 30.9019 36.1271L30.795 36.8752H29.2275V28.3252H30.9613V31.5465ZM32.1607 35.3552C32.9596 35.3552 33.36 34.63 33.36 33.9064C33.36 33.1879 32.9583 32.4458 32.1607 32.4458C31.3732 32.4458 30.9613 33.1892 30.9613 33.9064C30.9613 34.6262 31.3483 35.3552 32.1607 35.3552Z" fill="white"/>
</svg>
