<svg width="50" height="50" viewBox="0 0 50 50" fill="none" xmlns="http://www.w3.org/2000/svg">
<rect width="50" height="50" fill="#E31836"/>
<path d="M12.2638 19.4061C11.4826 20.8212 11.1865 22.2106 11.7343 23.2844C13.4415 26.6347 21.373 26.587 28.9958 23.3948C30.9132 22.5926 32.6512 21.6561 34.1527 20.6506C38.6194 17.6591 40.3505 14.2845 39.0724 11.7767C37.3645 8.42645 30.4338 8.07079 22.8117 11.2623C21.9954 11.6042 21.2124 11.9674 20.4663 12.3475L19.8257 12.3519C20.9124 11.7547 22.1271 11.1425 23.3544 10.6288C32.02 7.00005 40.6191 7.14621 42.5604 10.955C44.0179 13.8146 41.798 17.8097 36.6894 21.2164C34.9934 22.3473 32.8683 23.504 30.7093 24.4085C22.0431 28.0366 13.3605 27.8127 11.4192 24.0039C10.7316 22.6553 10.8502 21.074 11.7606 19.4004L12.2638 19.4061ZM14.0401 16.9792C14.5357 16.4291 15.0509 15.9906 15.6927 15.4568L15.7091 15.0478C14.9072 15.6858 14.1894 16.3388 13.5663 16.9942L14.0401 16.9792Z" fill="white"/>
<path d="M14.692 16.7565C14.0658 19.1207 12.1596 20.0528 10.2391 20.0528C7.52475 20.0528 6.62 18.4031 7.14015 15.9561C7.57622 13.5512 9.36064 11.9234 11.9777 11.9234C13.9309 11.9234 15.4167 12.7157 14.9103 15.3709H12.0963C12.2744 14.1082 11.989 13.937 11.6132 13.942C10.8201 13.942 10.5729 14.7518 10.31 15.9881C10.0609 17.1605 9.93911 18.0342 10.7109 18.0342C11.1074 18.0342 11.4249 17.7997 11.8133 16.7565H14.692Z" fill="white"/>
<path d="M18.7192 13.8777C19.1761 13.8777 19.6856 13.8739 19.8881 14.3701C20.023 14.6919 19.9709 15.2382 19.8115 15.9884C19.6522 16.7387 19.4721 17.285 19.1998 17.6062C18.8346 18.0457 18.3526 18.0992 17.8213 18.0992L18.7192 13.8777ZM14.4507 19.8543H18.2618C20.6423 19.8543 22.4738 18.4097 22.9701 16.0738C23.4576 13.7811 22.8226 12.1226 19.7237 12.1226H16.0946L14.4507 19.8543Z" fill="white"/>
<path d="M23.6485 12.1223H26.3917L26.0133 16.9748H26.0346L27.7846 12.1223H30.9563L30.6426 16.9748H30.6639L32.3492 12.1223H35.0924L31.777 19.852H28.4553L28.8036 14.8371H28.7822L26.9984 19.852H23.6767L23.6485 12.1223Z" fill="white"/>
<path d="M20.457 34.5205L18.1035 41H17.1416L19.8516 33.8906H20.4717L20.457 34.5205ZM22.4297 41L20.0713 34.5205L20.0566 33.8906H20.6768L23.3965 41H22.4297ZM22.3076 38.3682V39.1396H18.3135V38.3682H22.3076ZM26.9707 38.2119H25.0713V37.4453H26.9707C27.3385 37.4453 27.6364 37.3867 27.8643 37.2695C28.0921 37.1523 28.2581 36.9896 28.3623 36.7812C28.4697 36.5729 28.5234 36.3353 28.5234 36.0684C28.5234 35.8242 28.4697 35.5947 28.3623 35.3799C28.2581 35.165 28.0921 34.9925 27.8643 34.8623C27.6364 34.7288 27.3385 34.6621 26.9707 34.6621H25.291V41H24.3486V33.8906H26.9707C27.5078 33.8906 27.9619 33.9834 28.333 34.1689C28.7041 34.3545 28.9857 34.6117 29.1777 34.9404C29.3698 35.266 29.4658 35.6387 29.4658 36.0586C29.4658 36.5143 29.3698 36.9033 29.1777 37.2256C28.9857 37.5479 28.7041 37.7936 28.333 37.9629C27.9619 38.1289 27.5078 38.2119 26.9707 38.2119ZM31.668 33.8906V41H30.7256V33.8906H31.668Z" fill="white"/>
</svg>
