<svg width="50" height="50" viewBox="0 0 50 50" fill="none" xmlns="http://www.w3.org/2000/svg">
<rect width="50" height="50" fill="#FC7C3C"/>
<path fill-rule="evenodd" clip-rule="evenodd" d="M20.2729 10.3316C20.2828 10.3658 30.2227 16.3489 30.2718 16.3503C30.3279 16.3519 35.654 13.0264 35.631 13.0041C35.5821 12.9569 25.6572 7 25.6274 7C25.1003 7.00375 20.2424 10.2267 20.2729 10.3316ZM15.024 13.5683L15.0128 20.2368L24.3026 14.4496L18.8938 11.1887L15.024 13.5683ZM15.0128 21.9805L15 26.4318L20.4388 29.6969V18.5811L15.0128 21.9805ZM27.0202 25.5774L32.5856 28.9005L36 26.7875L30.4106 23.4171L27.0202 25.5774ZM21.8563 30.5499L25.9499 32.9999L31.1518 29.7429L21.8728 24.1584L21.8563 30.5499Z" fill="white"/>
<path d="M19.2794 36.6972L16.9515 42.9064H16L18.6805 36.0936H19.2939L19.2794 36.6972ZM21.2306 42.9064L18.8979 36.6972L18.8834 36.0936H19.4967L22.1869 42.9064H21.2306ZM21.1099 40.3844V41.1237H17.1591V40.3844H21.1099Z" fill="black"/>
<path d="M26.8766 41.1845C26.8766 40.5492 26.5512 40.2447 25.2055 39.865C23.8103 39.4645 22.9259 38.9125 22.9259 37.8529C22.9259 36.7835 23.886 36 25.3166 36C26.5016 36 27.7943 36.7169 27.7943 38.0588H26.8669C26.8669 37.2839 26.3616 36.7393 25.3166 36.7393C24.3246 36.7393 23.858 37.2034 23.858 37.8436C23.858 38.4201 24.3636 38.7717 25.5049 39.0789C27.1005 39.5152 27.8136 40.1099 27.8136 41.1751C27.8136 42.4925 26.4702 43 25.3601 43C24.1475 43 22.7037 42.3285 22.7037 40.9318H23.631C23.631 41.8667 24.4689 42.2654 25.3601 42.2654C26.3388 42.2654 26.8766 41.8447 26.8766 41.1845Z" fill="black"/>
<path d="M29.2963 36.0936H30.1995L32.5033 41.6477L34.8022 36.0936H35.7102L32.851 42.9064H32.1459L29.2963 36.0936ZM29.0017 36.0936H29.7986L29.929 42.9064H29.0017V36.0936ZM35.2031 36.0936H36V42.9064H35.0727L35.2031 36.0936Z" fill="black"/>
</svg>
