<svg width="50" height="50" viewBox="0 0 50 50" fill="none" xmlns="http://www.w3.org/2000/svg">
<path fill-rule="evenodd" clip-rule="evenodd" d="M19.0262 8.71597C19.0375 8.75416 30.3974 15.4276 30.4535 15.4291C30.5176 15.431 36.6046 11.7217 36.5782 11.6969C36.5224 11.6442 25.1797 5 25.1456 5C24.5432 5.00418 18.9913 8.59904 19.0262 8.71597ZM13.0274 12.3262L13.0146 19.7641L23.6316 13.3092L17.45 9.672L13.0274 12.3262ZM13.0146 21.709L13 26.674L19.2157 30.3158V17.9173L13.0146 21.709ZM26.7374 25.7209L33.0978 29.4275L37 27.0707L30.6121 23.3114L26.7374 25.7209ZM20.8358 31.2672L25.5142 33.9999L31.4592 30.3671L20.8546 24.1382L20.8358 31.2672Z" fill="#FC7C3C"/>
<path d="M17.7713 37.7968L15.0942 44.893H14L17.0826 37.107H17.788L17.7713 37.7968ZM20.0152 44.893L17.3325 37.7968L17.3159 37.107H18.0213L21.1149 44.893H20.0152ZM19.8764 42.0107V42.8556H15.333V42.0107H19.8764Z" fill="black"/>
<path d="M26.5081 42.9251C26.5081 42.1991 26.1339 41.8511 24.5863 41.4171C22.9818 40.9594 21.9647 40.3285 21.9647 39.1176C21.9647 37.8954 23.0689 37 24.7141 37C26.0768 37 27.5634 37.8193 27.5634 39.3529H26.497C26.497 38.4674 25.9158 37.8449 24.7141 37.8449C23.5733 37.8449 23.0367 38.3754 23.0367 39.107C23.0367 39.7658 23.6181 40.1677 24.9307 40.5187C26.7655 41.0173 27.5856 41.697 27.5856 42.9144C27.5856 44.42 26.0408 45 24.7641 45C23.3696 45 21.7092 44.2325 21.7092 42.6364H22.7757C22.7757 43.7048 23.7393 44.1604 24.7641 44.1604C25.8896 44.1604 26.5081 43.6797 26.5081 42.9251Z" fill="black"/>
<path d="M29.2908 37.107H30.3294L32.9787 43.4545L35.6226 37.107H36.6667L33.3787 44.893H32.5677L29.2908 37.107ZM28.9519 37.107H29.8684L30.0184 44.893H28.9519V37.107ZM36.0836 37.107H37V44.893H35.9336L36.0836 37.107Z" fill="black"/>
</svg>
