<svg width="50" height="50" viewBox="0 0 50 50" fill="none" xmlns="http://www.w3.org/2000/svg">
<path d="M21.05 39.4235C13.9058 39.4822 8.3658 32.5331 10.0358 25.6584C10.585 23.3754 13.7274 24.1852 13.289 26.3995C12.1776 32.0401 17.1055 37.1103 22.7129 35.9363C26.3198 35.1811 29.0105 31.9094 29.017 28.2348C29.0395 26.0684 32.2843 25.426 32.3592 27.7702C32.6462 34.0911 27.2832 39.471 21.05 39.4235Z" fill="#AE2226"/>
<path d="M39.4191 36.0357C37.9737 37.9753 35.9449 39.4089 33.6254 40.1297C31.2764 40.8593 30.3887 37.7307 32.626 36.9632C38.7913 34.8407 40.287 26.6099 34.7043 22.8658C31.9496 21.0305 29.0497 21.0444 26.1616 22.6335C24.3112 23.6509 22.3321 21.161 24.1558 19.9455C30.6553 15.6127 40.0968 19.6133 41.4215 27.2753C41.9643 30.3708 41.3221 33.482 39.4191 36.0357Z" fill="#AE2125"/>
<path d="M26.6531 9.73732C29.6115 9.71409 32.1602 10.7595 34.3369 12.7227C36.1054 14.3208 33.6832 16.6812 32.0619 15.1806C27.5261 10.9802 20.5398 13.2198 18.9202 18.777C17.9091 22.2479 19.4421 25.9418 22.7094 27.819C24.6681 28.9464 23.2459 31.9023 21.1273 30.7486C16.8185 28.4044 14.4897 23.4513 15.4844 18.7468C16.6097 13.4195 21.2865 9.73732 26.6531 9.73732Z" fill="#AE2125"/>
</svg>
