<svg width="50" height="50" viewBox="0 0 50 50" fill="none" xmlns="http://www.w3.org/2000/svg">
<path d="M44 25C44 35.4934 35.4934 44 25 44C14.5066 44 6 35.4934 6 25C6 14.5066 14.5066 6 25 6C35.4934 6 44 14.5066 44 25Z" fill="#ACD4E3"/>
<path d="M44 25C44 35.4934 35.4934 44 25 44C14.5066 44 6 35.4934 6 25C6 14.5066 14.5066 6 25 6C35.4934 6 44 14.5066 44 25Z" fill="#ACD4E3"/>
<path d="M44 25C44 35.4934 35.4934 44 25 44C14.5066 44 6 35.4934 6 25C6 14.5066 14.5066 6 25 6C35.4934 6 44 14.5066 44 25Z" fill="#ACD4E3"/>
<path d="M44 25C44 35.4934 35.4934 44 25 44C14.5066 44 6 35.4934 6 25C6 14.5066 14.5066 6 25 6C35.4934 6 44 14.5066 44 25Z" fill="#ACD4E3"/>
<path d="M40 25C40 33.2843 33.2843 40 25 40C16.7157 40 10 33.2843 10 25C10 16.7157 16.7157 10 25 10C33.2843 10 40 16.7157 40 25Z" fill="#8EAFA7"/>
<path d="M36 25C36 31.0751 31.0751 36 25 36C18.9249 36 14 31.0751 14 25C14 18.9249 18.9249 14 25 14C31.0751 14 36 18.9249 36 25Z" fill="#7A6379"/>
<path d="M33 25C33 29.4183 29.4183 33 25 33C20.5817 33 17 29.4183 17 25C17 20.5817 20.5817 17 25 17C29.4183 17 33 20.5817 33 25Z" fill="black"/>
<path d="M29 25C29 27.2091 27.2091 29 25 29C22.7909 29 21 27.2091 21 25C21 22.7909 22.7909 21 25 21C27.2091 21 29 22.7909 29 25Z" fill="#7C4342"/>
</svg>
