<svg width="50" height="50" viewBox="0 0 50 50" fill="none" xmlns="http://www.w3.org/2000/svg">
<path d="M43 25C43 34.9411 34.9411 43 25 43C15.0589 43 7 34.9411 7 25C7 15.0589 15.0589 7 25 7C34.9411 7 43 15.0589 43 25Z" fill="#EA8932"/>
<path d="M17.2015 20.3799L7.83984 30.0399C8.19984 32.3799 11.9782 39.4599 19.8398 41.4399L32.1004 28.7645L21.6014 27.5205L17.2015 20.3799Z" fill="#E18134"/>
<path fill-rule="evenodd" clip-rule="evenodd" d="M21.8179 16.5038C21.3437 16.6754 21.0512 16.8023 20.653 17.009C20.3132 17.1854 20.3295 17.1417 20.3933 17.7034C20.5774 19.3268 18.8693 20.8117 17.2527 20.4334C16.9283 20.3578 16.4935 21.8675 16.4054 22.1356C16.3437 22.3235 16.3585 22.35 16.6398 22.552C17.9636 23.5034 17.9438 25.6204 16.6015 26.6397C16.3442 26.8352 16.327 26.8674 16.3918 27.0336C16.6105 27.5954 16.7949 28.1484 17.0764 28.688L17.6975 28.6919C18.5044 28.697 18.8437 28.8043 19.3997 29.2301C20.063 29.738 20.4828 30.6831 20.3928 31.4658C20.3208 32.0902 20.2853 32.0224 20.8243 32.2885C21.0292 32.3897 22.1639 33.0124 22.2843 32.854C22.6854 32.3265 23.0678 31.8437 23.7187 31.6046C25.4544 30.967 25.9868 32.8568 26.9656 32.8568C27.0774 32.8568 27.9991 32.5035 28.3984 32.3074C28.6711 32.1736 28.7112 32.1396 28.6885 32.0616C28.3813 31.0086 28.7659 29.8353 29.6258 29.2022C30.3277 28.6856 30.9519 28.5729 31.9784 28.7776L32.1164 28.8051C32.3728 28.2718 32.8555 27.5781 32.8555 26.9893C32.8555 26.9636 32.7923 26.9123 32.7151 26.8754C32.2392 26.648 31.7479 26.0805 31.5169 25.4912C31.0735 24.3604 31.5769 22.9338 32.6325 22.3295C32.7433 22.2661 32.8406 22.2094 32.8487 22.2036C33.0432 22.0619 32.2767 20.304 31.7141 20.4345C29.8377 20.8697 28.2225 19.1161 28.672 17.132C28.7035 16.993 27.036 16.2105 26.9193 16.3612C26.913 16.3693 26.8481 16.4646 26.775 16.5728C25.7462 18.0964 23.5101 18.0784 22.4383 16.538C22.2885 16.3227 22.3144 16.3241 21.8179 16.5038ZM25.1227 22.0302C28.0387 22.6505 27.8999 26.7861 24.9495 27.1926C23.1774 27.4366 21.6606 25.6944 22.1175 23.9397C22.4592 22.6279 23.8321 21.7556 25.1227 22.0302Z" fill="#E6E7E7"/>
<path fill-rule="evenodd" clip-rule="evenodd" d="M21.534 27.7455C23.2492 29.4607 26.0301 29.4607 27.7453 27.7455C29.4604 26.0303 29.4604 23.2495 27.7453 21.5343C26.0301 19.8191 23.2492 19.8191 21.534 21.5343C19.8189 23.2495 19.8189 26.0303 21.534 27.7455ZM21.0758 28.2037C23.0441 30.172 26.2352 30.172 28.2035 28.2037C30.1717 26.2355 30.1717 23.0443 28.2035 21.0761C26.2352 19.1079 23.0441 19.1079 21.0758 21.0761C19.1076 23.0443 19.1076 26.2355 21.0758 28.2037Z" fill="#F5F5F6"/>
<path d="M27.7453 27.7455C29.4604 26.0303 29.4604 23.2495 27.7453 21.5343C26.0301 19.8191 23.2492 19.8191 21.534 21.5343L21.0758 21.0761C23.0441 19.1079 26.2352 19.1079 28.2035 21.0761C30.1717 23.0443 30.1717 26.2355 28.2035 28.2037C28.1987 28.2085 28.1939 28.2133 28.1891 28.2181L28.2035 28.2037L27.7453 27.7455Z" fill="#CECCCB"/>
</svg>
