<svg width="50" height="50" viewBox="0 0 50 50" fill="none" xmlns="http://www.w3.org/2000/svg">
<path d="M30.1455 16.5345C31.3625 16.6762 31.8961 17.2377 31.9691 18.3724C32.0952 20.3454 31.8218 22.3249 31.8536 24.3084C31.8828 26.0951 30.9326 27.3413 29.4249 28.2714C27.8137 29.2645 26.1454 30.0384 24.213 30.1053C22.7412 30.1565 21.7113 29.4547 20.9734 28.2504C19.9289 26.5464 19.2175 24.7151 18.8698 22.7552C18.741 22.0298 19.4086 21.1731 19.7935 20.6012L20.4239 21.6835C19.9262 22.1097 19.7271 22.6345 20.1226 23.1527C20.9349 24.0277 21.9661 23.7745 22.8699 23.5436C24.8103 23.0478 26.5237 22.0062 28.2397 21.0092C29.0426 20.5435 29.8628 20.087 30.5198 19.418C30.845 19.0874 31.064 18.703 30.9405 18.1993C30.7003 17.2162 30.067 17.8528 30.1455 16.5345ZM26.9563 27.2088C27.45 26.9189 27.9782 26.8363 28.2862 26.4349C28.1282 26.124 27.9955 25.8616 27.8575 25.5901C28.2267 25.2886 28.8748 24.4187 28.2224 24.0552C27.6942 23.7627 27.1965 23.9372 26.7665 24.2336C25.775 24.918 25.8363 25.7754 26.9563 26.1017V27.2088Z" fill="#022856"/>
<path d="M20.4239 21.6835C20.4239 21.6835 19.4463 20.0385 18.9773 19.0624C18.3004 17.6562 18.3044 16.1869 18.538 14.7544C19.0144 11.833 21.0875 10.2956 23.7445 9.37598C25.2018 8.87093 26.6749 8.79615 28.0101 9.64359C28.8754 10.1919 29.5775 10.9856 29.8602 12.0049C30.4043 13.9659 30.5589 16.9592 29.7699 18.968C29.5815 19.4521 29.0758 19.641 28.5967 19.5806C28.2702 19.5386 27.7632 19.5216 27.7739 18.9549C28.1336 17.2442 27.6722 15.478 27.4699 13.7784C27.3969 13.1698 26.7613 12.3224 25.7818 12.3971C23.856 12.544 22.7306 13.1002 21.9342 14.8122C20.8699 17.1011 22.3015 19.1753 23.2389 21.1535C23.4273 21.5497 23.5056 21.9904 23.1831 22.2843C22.8447 22.5926 22.4638 22.8693 21.8931 22.8287C21.0941 22.771 20.7743 22.2371 20.4226 21.6835H20.4239Z" fill="#04A07D"/>
<path d="M22.1904 18.9457C22.1904 18.9457 23.4525 18.3121 24.0909 18.0091C25.1306 17.5146 27.8894 16.6658 27.8894 16.6658C27.8894 17.9946 27.4173 17.6828 26.2065 18.1875C25.0107 18.686 23.7287 19.212 22.647 19.9453L22.1917 18.947L22.1904 18.9457Z" fill="#022856"/>
<path d="M42.2541 40.9231V35.436H43.5367V39.9625H46V40.9231H42.2541Z" fill="#04A07D"/>
<path d="M41.0213 40.2469C40.6737 40.7237 40.0116 41 39.0507 41C38.438 41 37.8395 40.89 37.3349 40.6695V39.586C37.9043 39.8082 39.4565 40.4895 39.934 39.755C40.3805 39.1308 39.2729 38.7393 38.8468 38.5562C38.1285 38.2442 37.4028 37.7784 37.4028 36.9192C37.4028 34.985 40.0251 35.2562 41.2591 35.7434L40.8429 36.6503C40.3055 36.4518 38.6599 35.8956 38.6599 36.8808C38.6599 37.7353 40.6659 37.9582 41.1062 38.6791C41.3893 39.1425 41.3363 39.8147 41.0213 40.2469Z" fill="#04A07D"/>
<path d="M36.2102 40.2469C35.8626 40.7237 35.2006 41 34.2396 41C33.6269 41 33.0285 40.89 32.5238 40.6695V39.586C33.0329 39.7846 35.2164 40.6144 35.2164 39.4553C35.2164 38.7915 34.0235 38.5638 33.5771 38.341C33.0862 38.0806 32.5918 37.6737 32.5918 36.9192C32.5918 34.985 35.214 35.2562 36.4481 35.7434L36.0319 36.6503C35.4944 36.4518 33.8489 35.8956 33.8489 36.8808C33.8489 37.8326 35.8052 37.8769 36.2952 38.6791C36.5782 39.1425 36.5253 39.8147 36.2102 40.2469Z" fill="#04A07D"/>
<path d="M28.0655 35.436C28.8469 35.436 29.416 35.5897 29.7728 35.8971C30.1352 36.1994 30.3164 36.6169 30.3164 37.1498C30.3164 38.4797 29.0962 38.9711 27.9636 38.9711H27.4115V40.9231H26.1289V35.436H28.0655ZM27.4115 36.3889V38.0182C28.0386 38.0182 29.0168 38.0359 29.0168 37.1882C29.0168 36.2959 28.0537 36.3889 27.4115 36.3889Z" fill="#022856"/>
<path d="M24.109 40.9232L23.6673 39.6167H21.4589L21.0172 40.9232H19.6327L21.7731 35.413H23.3445L25.4935 40.9232H24.109ZM22.5631 36.266C22.3412 37.0691 22.0493 37.8525 21.7816 38.6407H23.3615C23.0891 37.8541 22.7849 37.0689 22.5631 36.266Z" fill="#022856"/>
<path d="M18.8697 40.9231H15.3787V35.436H18.8697V36.3889H16.6613V37.5955H18.7168V38.5484H16.6613V39.9625H18.8697V40.9231Z" fill="#022856"/>
<path d="M14.2509 40.9231H12.9683V38.5561H10.5645V40.9231H9.28191V35.436H10.5645V37.5878H12.9683V35.436H14.2509V40.9231Z" fill="#022856"/>
<path d="M6.84548 36.3275C5.7784 36.3275 5.32506 37.2585 5.32506 38.195C5.32506 39.3558 5.78891 40.0317 6.84548 40.0317C7.34935 40.0317 7.82009 39.9221 8.39139 39.7397V40.7157C7.8591 40.9103 7.37211 41 6.72657 41C5.04689 41 4 39.8909 4 38.1873C4 36.5453 5.16479 35.3592 6.84548 35.3592C7.44999 35.3592 8.06967 35.5094 8.62073 35.7434L8.20452 36.6887C7.75655 36.4962 7.29219 36.3275 6.84548 36.3275Z" fill="#022856"/>
</svg>
