<svg width="50" height="50" viewBox="0 0 50 50" fill="none" xmlns="http://www.w3.org/2000/svg">
<path d="M34.0188 24.7529C32.6436 25.3974 30.9835 25.3288 29.6649 24.5732L25.8568 29.7079C27.6092 31.7876 26.1214 35.2086 23.3363 35.1014C21.923 35.047 20.6534 34.0094 20.2938 32.6453C20.0856 31.8553 20.1797 31.015 20.5573 30.292L17.4664 27.9429L16.508 29.2265L12.9792 26.5693L15.6131 22.9943L19.1483 25.6836L18.1899 26.9673L21.3252 29.3485C22.2972 28.5142 23.7143 28.352 24.8477 28.9506L28.6557 23.8158C26.7693 21.9459 26.7958 18.7653 28.6621 16.916C26.2566 15.2657 23.3742 14.4767 20.474 14.6745C14.534 15.0798 9.55981 19.6614 8.52945 25.5021C6.93865 34.5197 15.3613 42.8859 24.4842 40.5989C30.2633 39.1502 34.3688 33.7631 34.3742 27.8273C34.3782 26.7918 34.2588 25.7596 34.0188 24.7529Z" fill="url(#paint0_radial_9176_11115)"/>
<path opacity="0.85" d="M26.5995 31.7168C26.667 33.5507 25.131 35.1356 23.301 35.0841C22.1342 35.0514 21.0252 34.3405 20.5066 33.2829C13.6457 32.8079 8.96178 24.7978 8.87293 27.8465C8.70791 33.8349 13.9504 40.1249 21.1476 40.1442C27.822 40.1272 33.3095 34.5125 33.3842 27.8786C33.3842 25.6193 30.7566 29.419 26.5995 31.7168Z" fill="url(#paint1_linear_9176_11115)"/>
<path d="M38.2568 18.6633C35.3394 19.5893 32.2711 17.4766 31.9512 14.4911C31.6279 11.4724 34.2126 8.7802 37.227 9.05007C39.5297 9.25622 41.3948 11.1353 41.6406 13.4296C41.8866 15.7262 40.4619 17.9635 38.2568 18.6633Z" fill="black"/>
<path d="M28.1102 17.622C25.6796 15.9533 22.7277 15.2453 19.815 15.6322C15.3472 16.2989 11.3959 19.4718 9.64746 23.6232C20.748 16.7619 22.9757 23.4948 27.7231 25.0994L28.6751 23.8157C27.9169 23.0647 27.4279 22.0794 27.2853 21.0158C27.1279 19.8409 27.3995 18.5803 28.1102 17.622Z" fill="url(#paint2_linear_9176_11115)"/>
<path d="M21.6499 34.5667C20.2516 33.6552 19.7775 31.7625 20.5583 30.292L17.4674 27.9429L16.509 29.2266L12.9802 26.5693L15.6141 22.9943L19.1493 25.6836L18.1909 26.9673L21.3262 29.3485C22.2982 28.5142 23.7153 28.352 24.8487 28.9506L28.6568 23.8158C26.7703 21.9459 26.7968 18.7653 28.6631 16.916C26.9789 15.76 25.05 15.0194 23.0315 14.7539C14.4085 13.6197 7.11719 21.6438 8.51814 30.0069C9.54993 36.1662 15.0162 40.9594 21.3262 40.9722L21.6499 34.5667Z" fill="url(#paint3_linear_9176_11115)"/>
<defs>
<radialGradient id="paint0_radial_9176_11115" cx="0" cy="0" r="1" gradientUnits="userSpaceOnUse" gradientTransform="translate(16.1562 25.7843) scale(18.9612 19.1752)">
<stop stop-color="#C40047"/>
<stop offset="0.89" stop-color="#FF0070"/>
</radialGradient>
<linearGradient id="paint1_linear_9176_11115" x1="12.2494" y1="31.4665" x2="27.9709" y2="33.6703" gradientUnits="userSpaceOnUse">
<stop stop-color="#D02685" stop-opacity="0"/>
<stop offset="0.11" stop-color="#CE2581" stop-opacity="0.06"/>
<stop offset="0.31" stop-color="#CA2477" stop-opacity="0.23"/>
<stop offset="0.58" stop-color="#C42266" stop-opacity="0.5"/>
<stop offset="0.89" stop-color="#BB1F4F" stop-opacity="0.87"/>
<stop offset="1" stop-color="#B81E47"/>
</linearGradient>
<linearGradient id="paint2_linear_9176_11115" x1="14.9407" y1="19.3228" x2="41.4907" y2="23.4421" gradientUnits="userSpaceOnUse">
<stop offset="0.01" stop-color="#D31C5B" stop-opacity="0"/>
<stop offset="0.07" stop-color="#D52E67" stop-opacity="0.08"/>
<stop offset="0.21" stop-color="#DC5C88" stop-opacity="0.29"/>
<stop offset="0.41" stop-color="#E6A5BB" stop-opacity="0.63"/>
<stop offset="0.61" stop-color="#F1F5F3"/>
</linearGradient>
<linearGradient id="paint3_linear_9176_11115" x1="13.9763" y1="12.1022" x2="21.4688" y2="30.3811" gradientUnits="userSpaceOnUse">
<stop stop-color="white" stop-opacity="0.8"/>
<stop offset="0.22" stop-color="#FFE9FF" stop-opacity="0.64"/>
<stop offset="0.71" stop-color="#FFB3FF" stop-opacity="0.24"/>
<stop offset="0.99" stop-color="#FF93FF" stop-opacity="0"/>
</linearGradient>
</defs>
</svg>
