<svg width="50" height="50" viewBox="0 0 50 50" fill="none" xmlns="http://www.w3.org/2000/svg">
<path d="M40.2867 31.8678C40.282 36.4128 36.5296 40.2769 31.9599 40.2867H18.0936C13.5204 40.2818 9.7626 36.4161 9.75781 31.8678V18.1411C9.7626 13.5927 13.5204 9.72708 18.0936 9.72217H31.9244C36.9482 9.72217 41.3191 13.8999 39.9977 19.0391C39.6003 20.5849 38.7136 21.9571 37.4727 22.9468C34.4317 26.0181 30.2758 28.3324 26.811 30.8905C26.2236 31.3251 25.4914 31.5111 24.7703 31.409C24.0491 31.3069 23.3959 30.9246 22.9494 30.3436L18.8748 25.0268C17.9451 23.8074 18.1731 22.0021 19.3852 21.0595C20.5954 20.1183 22.3852 20.3576 23.3134 21.575L25.7191 24.713L33.7087 18.8046C34.9606 17.8553 34.3763 15.7221 32.8742 15.4693H18.0936C16.5699 15.4444 15.3011 16.7482 15.3061 18.2487V31.8588C15.3061 33.361 16.5476 34.6382 18.0581 34.6382H31.951C33.458 34.6333 34.6941 33.3577 34.6941 31.8588C34.6941 30.0439 35.3771 27.9766 37.4904 27.9766C39.7605 27.9766 40.2867 30.0544 40.2867 31.8678Z" fill="#54B848"/>
</svg>
