<svg width="50" height="50" viewBox="0 0 50 50" fill="none" xmlns="http://www.w3.org/2000/svg">
<path d="M5.21641 37H5.87982L7.57205 41.4126L9.26074 37H9.9277L7.82748 42.4126H7.30953L5.21641 37ZM5 37H5.58536L5.68115 42.4126H5V37ZM9.55519 37H10.1406V42.4126H9.45941L9.55519 37Z" fill="black"/>
<path d="M12.4805 38.8699C11.9908 38.8699 11.6503 39.1666 11.6503 39.5056H10.994C10.994 38.7409 11.8486 38.316 12.5195 38.316C13.0802 38.316 13.521 38.5148 13.7612 38.9145C13.8841 39.1128 13.9456 39.3618 13.9456 39.6617C13.9456 40.4195 13.8715 41.2098 13.9776 41.9628C14.001 42.1127 14.0804 42.2636 14.0804 42.4126H13.3957C13.3626 42.3333 13.3366 42.228 13.3177 42.0967C13.1998 41.2624 13.8327 38.8699 12.4805 38.8699ZM13.4028 39.974L13.4099 40.4572C12.8166 40.4572 11.5723 40.3028 11.5723 41.2007C11.5723 41.5808 11.8264 41.8848 12.3066 41.8848C12.9115 41.8848 13.332 41.4105 13.3532 41.0483L13.6334 41.3792C13.5682 41.7896 13.063 42.487 12.2108 42.487C11.4341 42.487 10.9124 41.963 10.9124 41.2937C10.9124 39.9819 12.422 39.974 13.4028 39.974Z" fill="black"/>
<path d="M15.4164 39.2491V42.4126H14.76V38.3903H15.3809L15.4164 39.2491ZM15.2603 40.2491L14.9871 40.2379C14.9967 39.1254 15.6336 38.316 16.5481 38.316C17.4263 38.316 17.7791 38.9974 17.7791 39.777V42.4126H17.1192V39.7695C17.1192 39.1289 16.8441 38.8959 16.3529 38.8959C15.7126 38.8959 15.2603 39.5096 15.2603 40.2491Z" fill="black"/>
<path d="M20.0126 38.8699C19.5229 38.8699 19.1824 39.1666 19.1824 39.5056H18.5261C18.5261 38.7409 19.3807 38.316 20.0516 38.316C20.8929 38.316 21.4777 38.7625 21.4777 39.6617V41.5353C21.4777 41.8364 21.6126 42.1255 21.6126 42.4126H20.9279C20.8947 42.3333 20.8687 42.228 20.8498 42.0967C20.7257 41.2192 21.4234 38.8699 20.0126 38.8699ZM20.9349 39.974L20.942 40.4572H20.2786C19.5369 40.4572 19.1044 40.697 19.1044 41.2007C19.1044 41.5808 19.3585 41.8848 19.8387 41.8848C20.2974 41.8848 20.856 41.5491 20.8853 41.0483L21.1655 41.3792C21.1003 41.7896 20.5951 42.487 19.7429 42.487C18.9662 42.487 18.4445 41.963 18.4445 41.2937C18.4445 39.9819 19.9541 39.974 20.9349 39.974Z" fill="black"/>
<path d="M24.7791 38.3903H25.3751V42.3271C25.3751 43.3892 24.7102 44 23.7502 44C23.2127 44 22.6321 43.7568 22.3276 43.3011L22.6717 42.8922C22.9952 43.3009 23.3572 43.4349 23.7006 43.4349C24.3237 43.4349 24.7187 43.0623 24.7187 42.3606V39.2751L24.7791 38.3903ZM22.136 40.4461C22.136 39.4958 22.5084 38.316 23.6509 38.316C24.8677 38.316 25.1977 39.5739 25.1977 40.5762C25.0943 41.7478 24.6262 42.487 23.6438 42.487C22.5701 42.487 22.136 41.3582 22.136 40.4461ZM22.7924 40.368C22.7924 41.0319 23.0019 41.9033 23.8034 41.9033C24.8772 41.9033 24.8784 40.7361 24.8784 39.9628C24.7734 39.4127 24.4702 38.8959 23.8105 38.8959C23.0266 38.8959 22.7924 39.7218 22.7924 40.368Z" fill="black"/>
<path d="M27.7469 42.487C26.5355 42.487 25.9837 41.4578 25.9837 40.3866C25.9837 39.0696 26.8027 38.316 27.6617 38.316C28.9724 38.316 29.2404 39.5289 29.2404 40.5948H26.3739V40.0335H28.5841C28.5841 39.4581 28.2893 38.881 27.6617 38.881C27.0693 38.881 26.6436 39.4131 26.6436 40.3866V40.5428C26.6436 41.3066 27.072 41.9257 27.7824 41.9257C28.2459 41.9257 28.5522 41.7113 28.7934 41.3792L29.1908 41.71C28.9433 42.1027 28.5117 42.487 27.7469 42.487Z" fill="black"/>
<path d="M30.4415 39.1896V42.4126H29.7817V38.3903H30.4061L30.4415 39.1896ZM30.3067 40.2491L30.0016 40.2379C30.0112 39.128 30.5437 38.316 31.5591 38.316C32.2753 38.316 32.8007 38.7199 32.8007 39.7323V42.4126H32.1444V39.7658C32.1444 39.1355 31.8203 38.8959 31.3249 38.8959C30.5525 38.8959 30.3067 39.5158 30.3067 40.2491ZM32.7936 39.8699L32.3537 40.0112C32.3561 39.7906 32.3904 39.5787 32.4566 39.3755C32.6637 38.7618 33.1527 38.316 33.8792 38.316C34.7099 38.316 35.167 38.7611 35.167 39.7695V42.4126H34.5072V39.7621C34.5072 39.0842 34.1933 38.8959 33.6876 38.8959C33.116 38.8959 32.7936 39.3378 32.7936 39.8699Z" fill="black"/>
<path d="M37.5353 42.487C36.4738 42.487 35.7721 41.6781 35.7721 40.5428C35.7721 39.525 36.2525 38.316 37.4502 38.316C38.6996 38.316 39.0289 39.5266 39.0289 40.5948H36.1624V40.0335H38.3725C38.3725 39.4661 38.0877 38.881 37.4502 38.881C36.5862 38.881 36.432 39.8732 36.432 40.5428C36.432 41.3066 36.8604 41.9257 37.5708 41.9257C38.0343 41.9257 38.3406 41.7113 38.5819 41.3792L38.9792 41.71C38.7318 42.1027 38.3001 42.487 37.5353 42.487Z" fill="black"/>
<path d="M40.2335 39.2491V42.4126H39.5772V38.3903H40.198L40.2335 39.2491ZM40.0774 40.2491L39.8042 40.2379C39.809 39.6851 39.9676 39.2078 40.2406 38.8625C40.517 38.5128 40.9051 38.316 41.3652 38.316C42.2435 38.316 42.5962 38.9974 42.5962 39.777V42.4126H41.9364V39.7695C41.9364 39.1289 41.6612 38.8959 41.1701 38.8959C40.4641 38.8959 40.0774 39.6195 40.0774 40.2491Z" fill="black"/>
<path d="M44.9823 38.3903V38.9182H42.9069V38.3903H44.9823ZM43.6093 37.4126H44.2656V41.4164C44.2656 41.8588 44.6008 41.947 44.9965 41.8513L45 42.4126C44.7008 42.5124 44.3372 42.5295 44.0492 42.3866C43.7787 42.2524 43.6093 41.9462 43.6093 41.4126V37.4126Z" fill="black"/>
<path d="M32.5482 19.6093C31.448 20.1249 30.1199 20.0701 29.0649 19.4655L26.0183 23.5735C27.4202 25.2374 26.2299 27.9743 24.0018 27.8885C22.8711 27.845 21.8553 27.0149 21.5676 25.9236C21.401 25.2915 21.4763 24.6192 21.7784 24.0408L19.3055 22.1614L18.5388 23.1884L15.7156 21.0625L17.8229 18.2023L20.6511 20.3539L19.8844 21.3809L22.3928 23.286C23.1704 22.6185 24.3041 22.4887 25.2109 22.9676L28.2576 18.8596C26.7483 17.3635 26.7695 14.8189 28.2626 13.3394C26.3381 12.0191 24.0321 11.3878 21.7117 11.5461C16.9595 11.8704 12.9799 15.5359 12.1556 20.2087C10.8829 27.4232 17.6214 34.1165 24.9201 32.2868C29.5437 31.1277 32.8283 26.8179 32.8326 22.069C32.8357 21.2405 32.7403 20.4147 32.5482 19.6093Z" fill="url(#paint0_radial_9176_11119)"/>
<path opacity="0.85" d="M26.6128 25.1808C26.6668 26.6479 25.438 27.9159 23.9739 27.8748C23.0404 27.8485 22.1531 27.2798 21.7382 26.4337C16.2492 26.0537 12.5019 19.6452 12.4308 22.0843C12.2987 26.8753 16.4929 31.9076 22.2511 31.923C27.5908 31.9094 31.9812 27.4174 32.0409 22.11C32.0409 20.3025 29.9387 23.3424 26.6128 25.1808Z" fill="url(#paint1_linear_9176_11119)"/>
<path d="M35.9388 14.7374C33.6047 15.4782 31.1499 13.788 30.894 11.3994C30.6353 8.98434 32.7032 6.83042 35.1149 7.04633C36.9571 7.21126 38.4493 8.71462 38.6459 10.5501C38.8427 12.3875 37.7029 14.1774 35.9388 14.7374Z" fill="black"/>
<path d="M27.8209 13.9042C25.8763 12.5693 23.5146 12.0028 21.1843 12.3124C17.6098 12.8457 14.4486 15.3842 13.0498 18.7055C21.9307 13.2162 23.713 18.6028 27.5111 19.8866L28.2728 18.8595C27.6662 18.2587 27.2749 17.4704 27.1609 16.6195C27.035 15.6795 27.2522 14.671 27.8209 13.9042Z" fill="url(#paint2_linear_9176_11119)"/>
<path d="M22.6526 27.4607C21.5338 26.7315 21.1545 25.2172 21.7792 24.0408L19.3064 22.1614L18.5396 23.1884L15.7164 21.0625L17.8237 18.2023L20.6519 20.3538L19.8852 21.3808L22.3936 23.2859C23.1712 22.6185 24.305 22.4887 25.2117 22.9676L28.2584 18.8596C26.7491 17.3635 26.7703 14.8189 28.2634 13.3394C26.916 12.4145 25.3728 11.822 23.7579 11.6096C16.8591 10.7022 11.0257 17.1219 12.1465 23.8127C12.972 28.7404 17.3453 32.5752 22.3936 32.5855L22.6526 27.4607Z" fill="url(#paint3_linear_9176_11119)"/>
<defs>
<radialGradient id="paint0_radial_9176_11119" cx="0" cy="0" r="1" gradientUnits="userSpaceOnUse" gradientTransform="translate(18.2574 20.4344) scale(15.1698 15.341)">
<stop stop-color="#C40047"/>
<stop offset="0.89" stop-color="#FF0070"/>
</radialGradient>
<linearGradient id="paint1_linear_9176_11119" x1="15.1321" y1="24.9805" x2="27.71" y2="26.7436" gradientUnits="userSpaceOnUse">
<stop stop-color="#D02685" stop-opacity="0"/>
<stop offset="0.11" stop-color="#CE2581" stop-opacity="0.06"/>
<stop offset="0.31" stop-color="#CA2477" stop-opacity="0.23"/>
<stop offset="0.58" stop-color="#C42266" stop-opacity="0.5"/>
<stop offset="0.89" stop-color="#BB1F4F" stop-opacity="0.87"/>
<stop offset="1" stop-color="#B81E47"/>
</linearGradient>
<linearGradient id="paint2_linear_9176_11119" x1="17.2846" y1="15.265" x2="38.5259" y2="18.5606" gradientUnits="userSpaceOnUse">
<stop offset="0.01" stop-color="#D31C5B" stop-opacity="0"/>
<stop offset="0.07" stop-color="#D52E67" stop-opacity="0.08"/>
<stop offset="0.21" stop-color="#DC5C88" stop-opacity="0.29"/>
<stop offset="0.41" stop-color="#E6A5BB" stop-opacity="0.63"/>
<stop offset="0.61" stop-color="#F1F5F3"/>
</linearGradient>
<linearGradient id="paint3_linear_9176_11119" x1="16.5134" y1="9.48812" x2="22.5076" y2="24.112" gradientUnits="userSpaceOnUse">
<stop stop-color="white" stop-opacity="0.8"/>
<stop offset="0.22" stop-color="#FFE9FF" stop-opacity="0.64"/>
<stop offset="0.71" stop-color="#FFB3FF" stop-opacity="0.24"/>
<stop offset="0.99" stop-color="#FF93FF" stop-opacity="0"/>
</linearGradient>
</defs>
</svg>
