<svg width="50" height="50" viewBox="0 0 50 50" fill="none" xmlns="http://www.w3.org/2000/svg">
<path d="M29.4238 35.7344H29.9717L31.3691 39.2119L32.7637 35.7344H33.3145L31.5801 40H31.1523L29.4238 35.7344ZM29.2451 35.7344H29.7285L29.8076 40H29.2451V35.7344ZM33.0068 35.7344H33.4902V40H32.9277L33.0068 35.7344Z" fill="black"/>
<path d="M27.9561 38.9219C27.9561 38.5237 27.7582 38.3333 26.9424 38.0957C26.0959 37.8449 25.5596 37.4993 25.5596 36.8359C25.5596 36.1663 26.142 35.6758 27.0098 35.6758C27.9703 35.6758 28.5127 36.2943 28.5127 36.9648H27.9502C27.9502 36.4796 27.6435 36.1387 27.0098 36.1387C26.4079 36.1387 26.125 36.4294 26.125 36.8301C26.125 37.1907 26.4313 37.4111 27.124 37.6035C28.0914 37.8766 28.5244 38.2486 28.5244 38.916C28.5244 39.6091 27.9432 40.0586 27.0361 40.0586C26.2746 40.0586 25.4248 39.601 25.4248 38.7637H25.9873C25.9873 39.3488 26.4953 39.5986 27.0361 39.5986C27.6297 39.5986 27.9561 39.3354 27.9561 38.9219Z" fill="black"/>
<path d="M22.8994 40H22.0088L22.0146 39.54H22.8994C23.8193 39.54 24.2734 38.9201 24.2734 37.9961C24.2734 36.5042 23.4002 36.1973 21.9912 36.1973V35.7344C23.6494 35.7344 24.833 36.2328 24.833 37.9961C24.833 39.2176 24.1013 40 22.8994 40ZM22.3105 35.7344V40H21.7451V35.7344H22.3105Z" fill="black"/>
<path d="M16.6855 35.7344H17.2334L18.6309 39.2119L20.0254 35.7344H20.5762L18.8418 40H18.4141L16.6855 35.7344ZM16.5068 35.7344H16.9902L17.0693 40H16.5068V35.7344ZM20.2686 35.7344H20.752V40H20.1895L20.2686 35.7344Z" fill="black"/>
<path d="M32.5482 19.6093C31.448 20.1249 30.1199 20.0701 29.0649 19.4655L26.0183 23.5735C27.4202 25.2374 26.2299 27.9743 24.0018 27.8885C22.8711 27.845 21.8553 27.0149 21.5676 25.9236C21.401 25.2915 21.4763 24.6192 21.7784 24.0408L19.3055 22.1614L18.5388 23.1884L15.7156 21.0625L17.8229 18.2023L20.6511 20.3539L19.8844 21.3809L22.3928 23.286C23.1704 22.6185 24.3041 22.4887 25.2109 22.9676L28.2576 18.8596C26.7483 17.3635 26.7695 14.8189 28.2626 13.3394C26.3381 12.0191 24.0321 11.3878 21.7117 11.5461C16.9595 11.8704 12.9799 15.5359 12.1556 20.2087C10.8829 27.4232 17.6214 34.1165 24.9201 32.2868C29.5437 31.1277 32.8283 26.8179 32.8326 22.069C32.8357 21.2405 32.7403 20.4147 32.5482 19.6093Z" fill="url(#paint0_radial_9176_11120)"/>
<path opacity="0.85" d="M26.6128 25.1808C26.6668 26.6479 25.438 27.9159 23.9739 27.8748C23.0404 27.8485 22.1531 27.2798 21.7382 26.4337C16.2492 26.0537 12.5019 19.6452 12.4308 22.0843C12.2987 26.8753 16.4929 31.9076 22.2511 31.923C27.5908 31.9094 31.9812 27.4174 32.0409 22.11C32.0409 20.3025 29.9387 23.3424 26.6128 25.1808Z" fill="url(#paint1_linear_9176_11120)"/>
<path d="M35.9388 14.7374C33.6047 15.4782 31.1499 13.788 30.894 11.3994C30.6353 8.98434 32.7032 6.83042 35.1149 7.04633C36.9571 7.21126 38.4493 8.71462 38.6459 10.5501C38.8427 12.3875 37.7029 14.1774 35.9388 14.7374Z" fill="black"/>
<path d="M27.8209 13.9042C25.8763 12.5693 23.5146 12.0028 21.1843 12.3124C17.6098 12.8457 14.4486 15.3842 13.0498 18.7055C21.9307 13.2162 23.713 18.6028 27.5111 19.8866L28.2728 18.8595C27.6662 18.2587 27.2749 17.4704 27.1609 16.6195C27.035 15.6795 27.2522 14.671 27.8209 13.9042Z" fill="url(#paint2_linear_9176_11120)"/>
<path d="M22.6526 27.4607C21.5338 26.7315 21.1545 25.2172 21.7792 24.0408L19.3064 22.1614L18.5396 23.1884L15.7164 21.0625L17.8237 18.2023L20.6519 20.3538L19.8852 21.3808L22.3936 23.2859C23.1712 22.6185 24.305 22.4887 25.2117 22.9676L28.2584 18.8596C26.7491 17.3635 26.7703 14.8189 28.2634 13.3394C26.916 12.4145 25.3728 11.822 23.7579 11.6096C16.8591 10.7022 11.0257 17.1219 12.1465 23.8127C12.972 28.7404 17.3453 32.5752 22.3936 32.5855L22.6526 27.4607Z" fill="url(#paint3_linear_9176_11120)"/>
<defs>
<radialGradient id="paint0_radial_9176_11120" cx="0" cy="0" r="1" gradientUnits="userSpaceOnUse" gradientTransform="translate(18.2574 20.4344) scale(15.1698 15.341)">
<stop stop-color="#C40047"/>
<stop offset="0.89" stop-color="#FF0070"/>
</radialGradient>
<linearGradient id="paint1_linear_9176_11120" x1="15.1321" y1="24.9805" x2="27.71" y2="26.7436" gradientUnits="userSpaceOnUse">
<stop stop-color="#D02685" stop-opacity="0"/>
<stop offset="0.11" stop-color="#CE2581" stop-opacity="0.06"/>
<stop offset="0.31" stop-color="#CA2477" stop-opacity="0.23"/>
<stop offset="0.58" stop-color="#C42266" stop-opacity="0.5"/>
<stop offset="0.89" stop-color="#BB1F4F" stop-opacity="0.87"/>
<stop offset="1" stop-color="#B81E47"/>
</linearGradient>
<linearGradient id="paint2_linear_9176_11120" x1="17.2846" y1="15.265" x2="38.5259" y2="18.5606" gradientUnits="userSpaceOnUse">
<stop offset="0.01" stop-color="#D31C5B" stop-opacity="0"/>
<stop offset="0.07" stop-color="#D52E67" stop-opacity="0.08"/>
<stop offset="0.21" stop-color="#DC5C88" stop-opacity="0.29"/>
<stop offset="0.41" stop-color="#E6A5BB" stop-opacity="0.63"/>
<stop offset="0.61" stop-color="#F1F5F3"/>
</linearGradient>
<linearGradient id="paint3_linear_9176_11120" x1="16.5134" y1="9.48812" x2="22.5076" y2="24.112" gradientUnits="userSpaceOnUse">
<stop stop-color="white" stop-opacity="0.8"/>
<stop offset="0.22" stop-color="#FFE9FF" stop-opacity="0.64"/>
<stop offset="0.71" stop-color="#FFB3FF" stop-opacity="0.24"/>
<stop offset="0.99" stop-color="#FF93FF" stop-opacity="0"/>
</linearGradient>
</defs>
</svg>
