<svg width="50" height="50" viewBox="0 0 50 50" fill="none" xmlns="http://www.w3.org/2000/svg">
<path d="M24.6447 20.2679H20.7945L14.897 15.1793C13.9401 14.3538 13.9304 12.872 14.8701 12.0271C15.7915 11.1986 17.2322 11.3389 17.969 12.3348L22.0308 17.825C22.2954 18.1826 22.8226 18.2059 23.1178 17.873L32.1304 7.70705C32.8476 6.89797 34.0628 6.76566 34.9377 7.40135L35.1351 7.54481C36.2194 8.33261 36.2971 9.91991 35.2951 10.8098L24.6447 20.2679Z" fill="#F1537E"/>
<path d="M14.6062 25.6079L20.7945 20.2679H24.6447L31.0056 25.4675C31.7479 26.0742 31.8631 27.1647 31.264 27.9129L30.9189 28.3438C30.216 29.2216 28.8786 29.2182 28.1802 28.3368L23.4322 22.345C23.1556 21.996 22.6274 21.9905 22.3436 22.3337L17.4003 28.312C16.7689 29.0756 15.6294 29.1633 14.8884 28.5053L14.5874 28.2379C13.7967 27.5358 13.8056 26.2987 14.6062 25.6079Z" fill="url(#paint0_linear_9176_11269)"/>
<path d="M22.146 39.085V39.4893C22.146 41.4074 21.1473 42.5742 19.5796 42.5742C18.0807 42.5742 17 41.4201 17 39.4893V39.085C17 37.1397 18.076 36 19.5708 36C21.1359 36 22.146 37.159 22.146 39.085ZM21.3066 39.4893V39.0762C21.3066 37.5598 20.6704 36.7207 19.5708 36.7207C18.5286 36.7207 17.8394 37.543 17.8394 39.0762V39.4893C17.8394 41.0165 18.5302 41.8579 19.5796 41.8579C20.6929 41.8579 21.3066 41.0013 21.3066 39.4893Z" fill="black"/>
<path d="M24.106 38.7466V42.4863H23.293V37.7314H24.062L24.106 38.7466ZM23.9126 39.9287L23.5742 39.9155C23.5771 39.5903 23.6255 39.29 23.7192 39.0146C24.0019 38.1755 24.655 37.6436 25.5078 37.6436C26.5621 37.6436 27.0327 38.415 27.0327 39.3706V42.4863H26.2153V39.3618C26.2153 38.6048 25.8748 38.3291 25.2661 38.3291C24.6672 38.3291 24.2137 38.7357 24.0093 39.3223C23.9448 39.5127 23.9126 39.7148 23.9126 39.9287Z" fill="black"/>
<path d="M30.2407 42.5742C28.9265 42.5742 28.0566 41.6184 28.0566 40.2759V40.0913C28.0566 38.5346 29.0711 37.6436 30.1353 37.6436C31.7157 37.6436 32.0908 39.0273 32.0908 40.3374H28.54V39.6738H31.2778C31.2778 38.9667 30.8867 38.3115 30.1353 38.3115C29.4011 38.3115 28.874 38.9407 28.874 40.0913V40.2759C28.874 41.1794 29.4052 41.9106 30.2847 41.9106C30.8589 41.9106 31.2383 41.6572 31.5371 41.2646L32.0293 41.6558C31.7228 42.1199 31.1882 42.5742 30.2407 42.5742Z" fill="black"/>
<defs>
<linearGradient id="paint0_linear_9176_11269" x1="18.6384" y1="20.7927" x2="22.1331" y2="28.1387" gradientUnits="userSpaceOnUse">
<stop stop-color="#7D78B8"/>
<stop offset="1" stop-color="#0D9BF1"/>
</linearGradient>
</defs>
</svg>
