<svg width="50" height="50" viewBox="0 0 50 50" fill="none" xmlns="http://www.w3.org/2000/svg">
<path d="M19.2432 43.9999H20.1465V39.4101H21.2256V38.7167H20.1465C20.1465 38.3015 20.0838 37.7942 20.4004 37.4716C20.901 36.9615 21.8213 37.2277 22.4072 37.4569L22.5586 36.6952C21.7907 36.4217 20.9154 36.2321 20.1465 36.6122C19.5671 36.8987 19.2432 37.4569 19.2432 38.2577V38.7167H18.4082V39.4101H19.2432V43.9999Z" fill="#7F8BA5"/>
<path d="M23.0029 43.9999V38.7167H22.0996V43.9999H23.0029Z" fill="#7F8BA5"/>
<path d="M30.9961 43.9999V38.7167H30.0879V43.9999H30.9961Z" fill="#7F8BA5"/>
<path d="M30.0195 37.3153C30.0195 37.595 30.1999 37.8232 30.5518 37.8232C30.9028 37.8232 31.0889 37.5906 31.0889 37.3153C31.0889 37.0247 30.8996 36.7929 30.5518 36.7929C30.203 36.7929 30.0195 37.02 30.0195 37.3153Z" fill="#7F8BA5"/>
<path d="M34.6582 38.7167V39.4101H33.6719V42.6913C33.6719 43.2926 34.1551 43.3832 34.6777 43.2626L34.6826 43.9999C34.0696 44.195 33.2664 44.1501 32.9297 43.5263C32.8223 43.3179 32.7686 43.038 32.7686 42.6864V39.4101H31.8018V38.7167H32.7686V37.4325H33.6719V38.7167H34.6582Z" fill="#7F8BA5"/>
<path d="M35.1367 38.7167L37.0225 43.9429C36.8956 44.2891 36.804 44.701 36.5674 44.9911C36.3013 45.337 35.8422 45.3735 35.4395 45.3232L35.4443 46.0556C35.6054 46.1016 35.7845 46.1337 35.9521 46.1337C36.4358 46.1337 36.775 45.9422 37.0215 45.6698C37.2679 45.3975 37.4215 45.0768 37.5195 44.8153L39.6387 38.7167H38.6719L37.4453 42.6694L36.123 38.7167H35.1367Z" fill="#7F8BA5"/>
<path d="M25.3703 39.374L25.3418 38.7167H24.4873V43.9999H25.3906V40.2296C25.6468 39.72 26.1052 39.3808 26.6797 39.3808C27.356 39.3808 27.7344 39.6871 27.7344 40.5282V43.9999H28.6426V40.538C28.6426 39.4763 28.1197 38.6191 26.9482 38.6191C26.298 38.6191 25.7514 38.8935 25.3703 39.374Z" fill="#7F8BA5"/>
<path d="M14.296 39.374L14.2676 38.7167H13.4131V43.9999H14.3164V40.2296C14.5726 39.72 15.031 39.3808 15.6055 39.3808C16.2818 39.3808 16.6602 39.6871 16.6602 40.5282V43.9999H17.5684V40.538C17.5684 39.4763 17.0455 38.6191 15.874 38.6191C15.2238 38.6191 14.6772 38.8935 14.296 39.374Z" fill="#7F8BA5"/>
<path d="M11.8359 43.9999V36.8905H10.8936V43.9999H11.8359Z" fill="#7F8BA5"/>
<path d="M32.5482 19.6093C31.448 20.1249 30.1199 20.0701 29.0649 19.4655L26.0183 23.5735C27.4202 25.2374 26.2299 27.9743 24.0018 27.8885C22.8711 27.845 21.8553 27.0149 21.5676 25.9236C21.401 25.2915 21.4763 24.6192 21.7784 24.0408L19.3055 22.1614L18.5388 23.1884L15.7156 21.0625L17.8229 18.2023L20.6511 20.3539L19.8844 21.3809L22.3928 23.286C23.1704 22.6185 24.3041 22.4887 25.2109 22.9676L28.2576 18.8596C26.7483 17.3635 26.7695 14.8189 28.2626 13.3394C26.3381 12.0191 24.0321 11.3878 21.7117 11.5461C16.9595 11.8704 12.9799 15.5359 12.1556 20.2087C10.8829 27.4232 17.6214 34.1165 24.9201 32.2868C29.5437 31.1277 32.8283 26.8179 32.8326 22.069C32.8357 21.2405 32.7403 20.4147 32.5482 19.6093Z" fill="url(#paint0_radial_12465_16609)"/>
<path opacity="0.85" d="M26.6128 25.1806C26.6668 26.6478 25.438 27.9158 23.9739 27.8747C23.0404 27.8484 22.1531 27.2797 21.7382 26.4336C16.2492 26.0536 12.5019 19.6451 12.4308 22.0842C12.2987 26.8752 16.4929 31.9075 22.2511 31.9229C27.5908 31.9093 31.9812 27.4173 32.0409 22.1099C32.0409 20.3024 29.9387 23.3423 26.6128 25.1806Z" fill="url(#paint1_linear_12465_16609)"/>
<path d="M35.9388 14.7373C33.6047 15.4781 31.1499 13.7879 30.894 11.3993C30.6353 8.98422 32.7032 6.8303 35.1149 7.04621C36.9571 7.21114 38.4493 8.71449 38.6459 10.55C38.8427 12.3874 37.7029 14.1773 35.9388 14.7373Z" fill="black"/>
<path d="M27.8209 13.904C25.8763 12.569 23.5146 12.0026 21.1843 12.3121C17.6098 12.8455 14.4486 15.3839 13.0498 18.7053C21.9307 13.2159 23.713 18.6026 27.5111 19.8863L28.2728 18.8593C27.6662 18.2584 27.2749 17.4702 27.1609 16.6193C27.035 15.6793 27.2522 14.6707 27.8209 13.904Z" fill="url(#paint2_linear_12465_16609)"/>
<path d="M22.6526 27.4606C21.5338 26.7314 21.1545 25.2171 21.7792 24.0407L19.3064 22.1613L18.5396 23.1883L15.7164 21.0624L17.8237 18.2021L20.6519 20.3537L19.8852 21.3807L22.3936 23.2858C23.1712 22.6183 24.305 22.4886 25.2117 22.9675L28.2584 18.8594C26.7491 17.3634 26.7703 14.8188 28.2634 13.3393C26.916 12.4144 25.3728 11.8219 23.7579 11.6095C16.8591 10.702 11.0257 17.1217 12.1465 23.8126C12.972 28.7403 17.3453 32.575 22.3936 32.5853L22.6526 27.4606Z" fill="url(#paint3_linear_12465_16609)"/>
<defs>
<radialGradient id="paint0_radial_12465_16609" cx="0" cy="0" r="1" gradientUnits="userSpaceOnUse" gradientTransform="translate(18.2574 20.4344) scale(15.1698 15.341)">
<stop stop-color="#C40047"/>
<stop offset="0.89" stop-color="#FF0070"/>
</radialGradient>
<linearGradient id="paint1_linear_12465_16609" x1="15.1321" y1="24.9804" x2="27.71" y2="26.7435" gradientUnits="userSpaceOnUse">
<stop stop-color="#D02685" stop-opacity="0"/>
<stop offset="0.11" stop-color="#CE2581" stop-opacity="0.06"/>
<stop offset="0.31" stop-color="#CA2477" stop-opacity="0.23"/>
<stop offset="0.58" stop-color="#C42266" stop-opacity="0.5"/>
<stop offset="0.89" stop-color="#BB1F4F" stop-opacity="0.87"/>
<stop offset="1" stop-color="#B81E47"/>
</linearGradient>
<linearGradient id="paint2_linear_12465_16609" x1="17.2846" y1="15.2648" x2="38.5259" y2="18.5603" gradientUnits="userSpaceOnUse">
<stop offset="0.01" stop-color="#D31C5B" stop-opacity="0"/>
<stop offset="0.07" stop-color="#D52E67" stop-opacity="0.08"/>
<stop offset="0.21" stop-color="#DC5C88" stop-opacity="0.29"/>
<stop offset="0.41" stop-color="#E6A5BB" stop-opacity="0.63"/>
<stop offset="0.61" stop-color="#F1F5F3"/>
</linearGradient>
<linearGradient id="paint3_linear_12465_16609" x1="16.5134" y1="9.488" x2="22.5076" y2="24.1119" gradientUnits="userSpaceOnUse">
<stop stop-color="white" stop-opacity="0.8"/>
<stop offset="0.22" stop-color="#FFE9FF" stop-opacity="0.64"/>
<stop offset="0.71" stop-color="#FFB3FF" stop-opacity="0.24"/>
<stop offset="0.99" stop-color="#FF93FF" stop-opacity="0"/>
</linearGradient>
</defs>
</svg>
