<svg width="50" height="50" viewBox="0 0 50 50" fill="none" xmlns="http://www.w3.org/2000/svg">
<path d="M19.2432 44H20.1465V39.4102H21.2256V38.7168H20.1465C20.1465 38.3016 20.0838 37.7944 20.4004 37.4717C20.901 36.9616 21.8213 37.2278 22.4072 37.4571L22.5586 36.6953C21.7907 36.4219 20.9154 36.2322 20.1465 36.6123C19.5671 36.8988 19.2432 37.4571 19.2432 38.2578V38.7168H18.4082V39.4102H19.2432V44Z" fill="black"/>
<path d="M23.0029 44V38.7168H22.0996V44H23.0029Z" fill="black"/>
<path d="M30.9961 44V38.7168H30.0879V44H30.9961Z" fill="black"/>
<path d="M30.0195 37.3155C30.0195 37.5952 30.1999 37.8233 30.5518 37.8233C30.9027 37.8233 31.0889 37.5908 31.0889 37.3155C31.0889 37.0248 30.8996 36.793 30.5518 36.793C30.203 36.793 30.0195 37.0201 30.0195 37.3155Z" fill="black"/>
<path d="M34.6582 38.7168V39.4102H33.6719V42.6914C33.6719 43.2928 34.1551 43.3833 34.6777 43.2627L34.6826 44C34.0696 44.1951 33.2664 44.1502 32.9297 43.5264C32.8223 43.3181 32.7686 43.0381 32.7686 42.6866V39.4102H31.8018V38.7168H32.7686V37.4326H33.6719V38.7168H34.6582Z" fill="black"/>
<path d="M35.1367 38.7168L37.0225 43.9431C36.8956 44.2892 36.804 44.7011 36.5674 44.9912C36.3013 45.3371 35.8422 45.3736 35.4395 45.3233L35.4443 46.0557C35.6054 46.1017 35.7845 46.1338 35.9521 46.1338C36.4358 46.1338 36.775 45.9424 37.0215 45.67C37.2679 45.3976 37.4215 45.0769 37.5195 44.8155L39.6387 38.7168H38.6719L37.4453 42.6695L36.123 38.7168H35.1367Z" fill="black"/>
<path d="M25.3703 39.3741L25.3418 38.7168H24.4873V44H25.3906V40.2297C25.6468 39.7201 26.1052 39.3809 26.6797 39.3809C27.356 39.3809 27.7344 39.6872 27.7344 40.5284V44H28.6426V40.5381C28.6426 39.4764 28.1197 38.6192 26.9482 38.6192C26.298 38.6192 25.7514 38.8936 25.3703 39.3741Z" fill="black"/>
<path d="M14.296 39.3741L14.2676 38.7168H13.4131V44H14.3164V40.2297C14.5726 39.7201 15.031 39.3809 15.6055 39.3809C16.2818 39.3809 16.6602 39.6872 16.6602 40.5284V44H17.5684V40.5381C17.5684 39.4764 17.0455 38.6192 15.874 38.6192C15.2238 38.6192 14.6772 38.8936 14.296 39.3741Z" fill="black"/>
<path d="M11.8359 44V36.8907H10.8936V44H11.8359Z" fill="black"/>
<path d="M32.5482 19.6093C31.448 20.1249 30.1199 20.0701 29.0649 19.4655L26.0183 23.5735C27.4202 25.2374 26.2299 27.9743 24.0018 27.8885C22.8711 27.845 21.8553 27.0149 21.5676 25.9236C21.401 25.2915 21.4763 24.6192 21.7784 24.0408L19.3055 22.1614L18.5388 23.1884L15.7156 21.0625L17.8229 18.2023L20.6511 20.3539L19.8844 21.3809L22.3928 23.286C23.1704 22.6185 24.3041 22.4887 25.2109 22.9676L28.2576 18.8596C26.7483 17.3635 26.7695 14.8189 28.2626 13.3394C26.3381 12.0191 24.0321 11.3878 21.7117 11.5461C16.9595 11.8704 12.9799 15.5359 12.1556 20.2087C10.8829 27.4232 17.6214 34.1165 24.9201 32.2868C29.5437 31.1277 32.8283 26.8179 32.8326 22.069C32.8357 21.2405 32.7403 20.4147 32.5482 19.6093Z" fill="url(#paint0_radial_9176_11117)"/>
<path opacity="0.85" d="M26.6128 25.1808C26.6668 26.6479 25.438 27.9159 23.9739 27.8748C23.0404 27.8485 22.1531 27.2798 21.7382 26.4337C16.2492 26.0537 12.5019 19.6452 12.4308 22.0843C12.2987 26.8753 16.4929 31.9076 22.2511 31.923C27.5908 31.9094 31.9812 27.4174 32.0409 22.11C32.0409 20.3025 29.9387 23.3424 26.6128 25.1808Z" fill="url(#paint1_linear_9176_11117)"/>
<path d="M35.9388 14.7374C33.6047 15.4782 31.1499 13.788 30.894 11.3994C30.6353 8.98434 32.7032 6.83042 35.1149 7.04633C36.9571 7.21126 38.4493 8.71462 38.6459 10.5501C38.8427 12.3875 37.7029 14.1774 35.9388 14.7374Z" fill="black"/>
<path d="M27.8209 13.9042C25.8763 12.5693 23.5146 12.0028 21.1843 12.3124C17.6098 12.8457 14.4486 15.3842 13.0498 18.7055C21.9307 13.2162 23.713 18.6028 27.5111 19.8866L28.2728 18.8595C27.6662 18.2587 27.2749 17.4704 27.1609 16.6195C27.035 15.6795 27.2522 14.671 27.8209 13.9042Z" fill="url(#paint2_linear_9176_11117)"/>
<path d="M22.6526 27.4607C21.5338 26.7315 21.1545 25.2172 21.7792 24.0408L19.3064 22.1614L18.5396 23.1884L15.7164 21.0625L17.8237 18.2023L20.6519 20.3538L19.8852 21.3808L22.3936 23.2859C23.1712 22.6185 24.305 22.4887 25.2117 22.9676L28.2584 18.8596C26.7491 17.3635 26.7703 14.8189 28.2634 13.3394C26.916 12.4145 25.3728 11.822 23.7579 11.6096C16.8591 10.7022 11.0257 17.1219 12.1465 23.8127C12.972 28.7404 17.3453 32.5752 22.3936 32.5855L22.6526 27.4607Z" fill="url(#paint3_linear_9176_11117)"/>
<defs>
<radialGradient id="paint0_radial_9176_11117" cx="0" cy="0" r="1" gradientUnits="userSpaceOnUse" gradientTransform="translate(18.2574 20.4344) scale(15.1698 15.341)">
<stop stop-color="#C40047"/>
<stop offset="0.89" stop-color="#FF0070"/>
</radialGradient>
<linearGradient id="paint1_linear_9176_11117" x1="15.1321" y1="24.9805" x2="27.71" y2="26.7436" gradientUnits="userSpaceOnUse">
<stop stop-color="#D02685" stop-opacity="0"/>
<stop offset="0.11" stop-color="#CE2581" stop-opacity="0.06"/>
<stop offset="0.31" stop-color="#CA2477" stop-opacity="0.23"/>
<stop offset="0.58" stop-color="#C42266" stop-opacity="0.5"/>
<stop offset="0.89" stop-color="#BB1F4F" stop-opacity="0.87"/>
<stop offset="1" stop-color="#B81E47"/>
</linearGradient>
<linearGradient id="paint2_linear_9176_11117" x1="17.2846" y1="15.265" x2="38.5259" y2="18.5606" gradientUnits="userSpaceOnUse">
<stop offset="0.01" stop-color="#D31C5B" stop-opacity="0"/>
<stop offset="0.07" stop-color="#D52E67" stop-opacity="0.08"/>
<stop offset="0.21" stop-color="#DC5C88" stop-opacity="0.29"/>
<stop offset="0.41" stop-color="#E6A5BB" stop-opacity="0.63"/>
<stop offset="0.61" stop-color="#F1F5F3"/>
</linearGradient>
<linearGradient id="paint3_linear_9176_11117" x1="16.5134" y1="9.48812" x2="22.5076" y2="24.112" gradientUnits="userSpaceOnUse">
<stop stop-color="white" stop-opacity="0.8"/>
<stop offset="0.22" stop-color="#FFE9FF" stop-opacity="0.64"/>
<stop offset="0.71" stop-color="#FFB3FF" stop-opacity="0.24"/>
<stop offset="0.99" stop-color="#FF93FF" stop-opacity="0"/>
</linearGradient>
</defs>
</svg>
