<svg width="50" height="50" viewBox="0 0 50 50" fill="none" xmlns="http://www.w3.org/2000/svg">
<path d="M29.7588 36.4232C28.5426 37.7151 27.0237 38.3377 25.2721 38.3668C22.8629 38.4134 20.96 37.4241 19.5517 35.4746C19.4994 35.4048 19.4645 35.3175 19.4237 35.2419C18.6963 33.9616 18.2424 32.6174 18.3122 31.116C18.4624 28.0314 21.6316 22.2378 24.9695 21.4676C25.0161 21.4559 25.0626 21.4617 25.1092 21.4734C29.7557 24.6605 34.3064 30.9605 29.881 36.2312C29.8345 36.2893 29.7937 36.3534 29.7646 36.4232H29.7588Z" fill="#790048"/>
<path d="M18.3121 36.5978C16.7467 35.498 15.4607 34.1304 14.3666 32.5825C12.0797 29.3644 10.7179 25.7506 9.81594 21.9448C9.4435 20.391 9.19909 18.8198 9.01869 17.2311C8.93722 16.4863 9.10598 16.3117 9.84503 16.3815C12.7896 16.655 15.6527 17.3126 18.446 18.2611C18.7602 18.3659 18.7893 18.4706 18.6555 18.7558C17.5498 21.1708 16.7118 23.6731 16.4034 26.3209C16.0484 29.3993 16.1415 32.4428 17.5556 35.3001C17.7768 35.7482 18.0561 36.173 18.3121 36.6036V36.5978Z" fill="#F54885"/>
<path d="M31.8072 36.4988C33.5297 33.8569 33.8905 30.9647 33.7625 27.9852C33.6286 24.8602 32.7616 21.904 31.4929 19.0583C31.1962 18.3949 31.1962 18.3891 31.8828 18.1622C34.6412 17.2369 37.4636 16.6142 40.3674 16.364C40.8329 16.3233 41.0308 16.4978 40.9959 16.9867C40.862 18.9594 40.4896 20.8914 39.995 22.8002C39.058 26.4314 37.6731 29.8532 35.4326 32.8967C34.5306 34.1187 33.5006 35.2186 32.3367 36.1904C32.2029 36.301 32.0865 36.4406 31.813 36.5046L31.8072 36.4988Z" fill="#F54885"/>
<path d="M25.08 21.514C25.08 21.514 25.0218 21.514 24.9927 21.514C24.2732 21.6867 20.5134 19.7507 20.3082 18.9884C21.4953 16.3988 23.0432 14.0246 24.8007 11.7841C25.0218 11.5048 25.1091 11.6619 25.2488 11.8365C27.012 14.0537 28.5192 16.4338 29.7238 19.0001C29.2927 19.9014 26.0276 21.5198 25.08 21.5198V21.514Z" fill="#784DA5"/>
<path d="M25.08 21.514C26.5057 20.4491 28.0886 19.6694 29.7239 18.9944C30.8412 21.293 31.6442 23.6906 31.9992 26.2278C32.3135 28.4624 32.3018 30.6854 31.7199 32.8734C31.3649 34.2061 30.8121 35.4514 29.7646 36.4116C30.0614 35.9402 30.3756 35.4689 30.6608 34.9917C32.4445 31.9792 31.409 28.4035 29.462 25.7448C28.3098 24.1736 26.9073 22.8409 25.3012 21.7295C25.2197 21.6713 25.1557 21.584 25.0859 21.5083L25.08 21.514Z" fill="#841B84"/>
<path d="M20.3082 18.9884C21.9667 19.6518 23.5204 20.5073 24.9927 21.514C23.7648 22.3927 22.6184 23.3704 21.6 24.4935C19.0799 27.2732 17.4048 31.0445 19.1791 34.6715C19.2723 34.8577 19.4119 35.0265 19.4177 35.2476C18.667 34.2293 18.3004 33.0538 18.0793 31.8375C17.3693 27.956 18.1258 24.2549 19.5516 20.6528C19.7727 20.0883 19.9822 19.518 20.3081 18.9943L20.3082 18.9884Z" fill="#841B84"/>
</svg>
