<svg width="50" height="50" viewBox="0 0 50 50" fill="none" xmlns="http://www.w3.org/2000/svg">
<path d="M25.373 33.5138C20.8743 33.5145 17.139 29.5177 17.5535 24.9839C17.964 20.4931 22.3235 17.1834 26.7912 18.0016C29.6824 18.5312 32.095 20.6983 32.9139 23.5237H35.951C34.8447 18.1735 29.705 14.4405 24.2787 14.9915C21.6179 15.2617 19.1524 16.5058 17.3596 18.483C15.5668 20.4602 14.5744 23.0298 14.5744 25.6942C14.5744 31.1566 18.8536 35.846 24.2787 36.3968C29.705 36.9478 34.8447 33.2148 35.951 27.8647H32.9139C31.9489 31.1776 28.8196 33.5097 25.373 33.5138Z" fill="#435363"/>
<path d="M20.083 30.9648C21.4691 32.3549 23.4062 33.1583 25.373 33.1587V30.0342C24.2287 30.0357 23.101 29.5705 22.2928 28.7635L20.083 30.9648Z" fill="#435363"/>
<path d="M18.5223 28.6944L21.3849 27.4405C20.8005 26.1195 20.931 24.5295 21.7231 23.3206C22.5153 22.1117 23.9238 21.3528 25.373 21.3541V18.2353C23.3888 18.2397 21.4871 19.0269 20.0841 20.4246C17.9272 22.5732 17.2901 25.9177 18.5223 28.6944Z" fill="#F38B00"/>
<path d="M28.0874 18.7435L26.9525 21.6512C27.8751 22.0082 28.6484 22.6672 29.1453 23.5199H32.535C31.8662 21.3483 30.2031 19.5659 28.0874 18.7398" fill="#435363"/>
<path d="M26.9543 29.7371L28.0798 32.643C30.1969 31.8183 31.8612 30.0354 32.5294 27.8628H29.1472C28.6495 28.7149 27.8764 29.3736 26.9543 29.7315" fill="#F38B00"/>
<path d="M10.9101 25.6877H7.94434C7.94746 28.0828 8.44286 30.493 9.41126 32.6822L12.12 31.4956C11.3164 29.6736 10.9097 27.6753 10.9101 25.6877Z" fill="#435363"/>
<path d="M25.373 40.1103C23.4729 40.1114 21.5914 39.7383 19.8366 39.0126C18.0818 38.2868 16.4883 37.2227 15.1476 35.8814L13.0523 37.9687C17.7138 42.6144 24.7961 44.2434 31.0225 42.1189C37.24 39.9974 41.8406 34.3875 42.6647 27.8647H39.6821C38.6067 34.8334 32.4131 40.1018 25.373 40.1103ZM25.373 11.2781C28.4925 11.2742 31.5288 12.2802 34.0245 14.1447L35.7971 11.7808C31.4672 8.56205 25.7556 7.52428 20.5687 9.0058C15.3885 10.4854 11.0918 14.3776 9.12988 19.3976L11.8874 20.4665C14.0375 14.9784 19.4841 11.2843 25.373 11.2781Z" fill="#F38B00"/>
<path d="M39.682 23.5237H42.6665C42.3537 21.0288 41.4977 18.6322 40.1585 16.5011L37.6467 18.0633C38.6933 19.7254 39.3861 21.5839 39.682 23.5237Z" fill="#435363"/>
<path d="M36.3205 23.5237H39.3219C38.54 18.616 35.118 14.4007 30.4885 12.603L29.4192 15.3406C32.9291 16.7082 35.5732 19.8351 36.3205 23.5293" fill="#F38B00"/>
<path d="M25.373 14.5764V11.6388C19.6318 11.6457 14.3219 15.247 12.2251 20.5973L14.9732 21.6625C16.6316 17.4304 20.8317 14.5817 25.373 14.5764Z" fill="#435363"/>
<path d="M14.2135 25.6932H11.2646C11.2714 31.3882 14.8516 36.63 20.1356 38.7405L21.2292 36.0141C17.0499 34.3442 14.2186 30.1978 14.2135 25.6932Z" fill="#F38B00"/>
<path d="M25.373 36.812V39.7496C32.2168 39.7405 38.2432 34.633 39.3144 27.8628H36.313C35.278 33.0119 30.61 36.8059 25.3655 36.812" fill="#435363"/>
</svg>
