<svg width="50" height="50" viewBox="0 0 50 50" fill="none" xmlns="http://www.w3.org/2000/svg">
<path d="M36.736 24.5849C35.0667 28.0903 31.8385 30.7141 28.0661 31.6316C26.1883 32.0883 24.2323 32.1208 22.3404 31.7268C16.9604 30.6028 12.7759 26.0594 12.0969 20.6051C11.4178 15.1507 14.3607 9.71987 19.3009 7.31094C20.1766 6.8833 21.0979 6.55626 22.0472 6.3361C25.8798 5.43889 30.002 6.36288 33.085 8.81014C37.7477 12.5113 39.3086 19.183 36.736 24.5849Z" fill="#F16A6A"/>
<path d="M37.8182 21.1774L30.8986 21.1853C29.1298 21.1866 27.3915 21.9485 26.1918 23.2483C24.6725 24.8979 22.9128 27.6207 22.3454 31.7268C21.2546 31.5 20.1978 31.1326 19.2016 30.6337C19.6219 29.2752 22.4289 20.7958 27.4428 19.0836C27.4428 19.0836 21.7244 17.6188 19.3059 7.30796C20.1816 6.88032 21.103 6.55328 22.0523 6.33312C22.3842 7.94593 24.3019 16.1968 28.961 16.9133L37.8699 17.1508C38.0591 18.4857 38.042 19.8478 37.8182 21.1774Z" fill="white"/>
<path d="M20.2188 41.4102C20.2188 42.0994 19.6749 42.5381 18.6855 42.5381C17.7842 42.5381 16.9375 42.1217 16.9375 41.1465H16C16 42.5444 17.4145 43.3047 18.6855 43.3047C20.1973 43.3047 21.166 42.5556 21.166 41.4004C21.166 40.288 20.4443 39.668 18.832 39.2129C17.6775 38.8922 17.167 38.5248 17.167 37.9238C17.167 37.256 17.6385 36.7715 18.6416 36.7715C19.6978 36.7715 20.209 37.3396 20.209 38.1484H21.1465C21.1465 36.7837 19.8774 36 18.6416 36C17.1953 36 16.2246 36.8175 16.2246 37.9336C16.2246 39.0392 17.1185 39.6152 18.5293 40.0332C19.889 40.4292 20.2188 40.7466 20.2188 41.4102Z" fill="black"/>
<path fill-rule="evenodd" clip-rule="evenodd" d="M25.6876 43.2182L27.1865 44.4082L27.8213 43.8223L26.5562 42.8204C27.6328 42.0535 27.7969 40.6561 27.7969 39.4277C27.7969 37.2778 26.6598 36 24.9355 36C22.8394 36 22.0791 38.0423 22.0791 39.877C22.0791 41.8396 23.5052 43.7613 25.6876 43.2182ZM26.8643 39.418C26.8643 37.7284 26.1603 36.8008 24.9355 36.8008C23.3154 36.8008 23.0117 38.5719 23.0117 39.877C23.0117 41.5691 23.7825 42.5088 24.9453 42.5088C26.5936 42.5088 26.8643 40.7482 26.8643 39.418Z" fill="black"/>
<path d="M33.5635 42.4404V43.207H29.252V36.0977H30.1943V42.4404H33.5635Z" fill="black"/>
</svg>
