<svg width="50" height="50" viewBox="0 0 50 50" fill="none" xmlns="http://www.w3.org/2000/svg">
<rect width="50" height="50" fill="#F16A6A"/>
<path d="M35.8333 25.5635C34.2923 28.7992 31.3124 31.2212 27.8302 32.0681C26.0969 32.4897 24.2914 32.5197 22.545 32.156C17.5788 31.1185 13.7162 26.9245 13.0894 21.8898C12.4626 16.855 15.1791 11.8419 19.7393 9.6183C20.5476 9.22355 21.3981 8.92168 22.2744 8.71844C25.8121 7.89026 29.6173 8.74317 32.4631 11.0022C36.7671 14.4186 38.2079 20.5771 35.8333 25.5635Z" fill="white"/>
<path d="M36.8322 22.4181L30.4449 22.4254C28.8122 22.4266 27.2076 23.1299 26.1001 24.3297C24.6977 25.8524 23.0734 28.3658 22.5496 32.156C21.5427 31.9467 20.5672 31.6075 19.6476 31.147C20.0356 29.893 22.6267 22.0658 27.2549 20.4854C27.2549 20.4854 21.9764 19.1333 19.7439 9.61555C20.5523 9.2208 21.4027 8.91893 22.2791 8.71569C22.5854 10.2044 24.3556 17.8207 28.6563 18.482L36.8799 18.7013C37.0546 19.9335 37.0387 21.1908 36.8322 22.4181Z" fill="#F16A6A"/>
<path d="M20.8432 40.9123C20.8432 41.486 20.3477 41.8513 19.4465 41.8513C18.6254 41.8513 17.854 41.5046 17.854 40.6928H17C17 41.8565 18.2886 42.4895 19.4465 42.4895C20.8237 42.4895 21.7061 41.8659 21.7061 40.9041C21.7061 39.9781 21.0487 39.4619 19.5799 39.083C18.5281 38.816 18.0631 38.5101 18.0631 38.0098C18.0631 37.4539 18.4927 37.0505 19.4064 37.0505C20.3686 37.0505 20.8343 37.5235 20.8343 38.1968H21.6884C21.6884 37.0607 20.5323 36.4082 19.4064 36.4082C18.0889 36.4082 17.2046 37.0888 17.2046 38.018C17.2046 38.9384 18.0189 39.4179 19.3041 39.7659C20.5429 40.0956 20.8432 40.3598 20.8432 40.9123Z" fill="black"/>
<path fill-rule="evenodd" clip-rule="evenodd" d="M25.8253 42.4175L27.1907 43.4082L27.769 42.9204L26.6165 42.0863C27.5973 41.4478 27.7467 40.2845 27.7467 39.2619C27.7467 37.472 26.7108 36.4082 25.1401 36.4082C23.2306 36.4082 22.5379 38.1084 22.5379 39.6358C22.5379 41.2698 23.8371 42.8696 25.8253 42.4175ZM26.8971 39.2537C26.8971 37.8471 26.2558 37.0749 25.1401 37.0749C23.6642 37.0749 23.3875 38.5493 23.3875 39.6358C23.3875 41.0446 24.0897 41.8269 25.149 41.8269C26.6506 41.8269 26.8971 40.3612 26.8971 39.2537Z" fill="black"/>
<path d="M33 41.77V42.4082H29.0723V36.4895H29.9308V41.77H33Z" fill="black"/>
</svg>
