<svg width="50" height="50" viewBox="0 0 50 50" fill="none" xmlns="http://www.w3.org/2000/svg">
<path d="M40.0528 32.1612C37.9125 36.6552 33.7735 40.0192 28.9367 41.1955C26.5292 41.781 24.0214 41.8227 21.5956 41.3175C14.6978 39.8765 9.33264 34.0515 8.46207 27.0588C7.59149 20.066 11.3646 13.1033 17.6986 10.0149C18.8214 9.46667 20.0026 9.04739 21.2198 8.76512C26.1337 7.61486 31.4189 8.79946 35.3718 11.937C41.3499 16.6821 43.3512 25.2356 40.0528 32.1612Z" fill="#F16A6A"/>
<path d="M41.4404 27.7925L32.5685 27.8027C30.3006 27.8043 28.0719 28.7811 26.5337 30.4476C24.5858 32.5624 22.3296 36.0532 21.6021 41.3175C20.2035 41.0267 18.8486 40.5557 17.5713 39.916C18.1102 38.1745 21.7092 27.3033 28.1376 25.1082C28.1376 25.1082 20.8059 23.2303 17.7051 10.0111C18.8278 9.46285 20.0091 9.04357 21.2263 8.7613C21.6518 10.829 24.1106 21.4072 30.0842 22.3257L41.5066 22.6302C41.7492 24.3417 41.7272 26.0879 41.4404 27.7925Z" fill="white"/>
</svg>
