<svg width="50" height="50" viewBox="0 0 50 50" fill="none" xmlns="http://www.w3.org/2000/svg">
<path d="M28.6776 17.2248C29.7087 17.2248 30.5548 18.0709 30.5548 19.102V30.048C30.5548 31.0791 29.7087 31.9252 28.6776 31.9252C27.6465 31.9252 26.8004 31.0791 26.8004 30.048V26.2143H21.4067V30.048C21.4067 31.0791 20.5607 31.9252 19.5295 31.9252C18.4984 31.9252 17.6523 31.0791 17.6523 30.048V19.102C17.6523 18.0576 18.4984 17.2248 19.5295 17.2248C20.5607 17.2248 21.4067 18.0709 21.4067 19.102V22.9358H26.8004V19.102C26.8004 18.0709 27.6332 17.2248 28.6776 17.2248Z" fill="#00174A"/>
<path d="M47.0001 25.5797C47.0001 25.7126 46.9736 25.8444 46.9736 25.9763C46.2862 29.4266 43.2457 32.0309 39.597 32.0309C35.4592 32.0309 32.0882 28.6599 32.0882 24.5089C32.0882 20.3711 35.446 17 39.597 17C41.7122 17 43.6158 17.8725 44.9775 19.2871C45.3079 19.6308 45.5195 20.0935 45.5195 20.609C45.5195 21.6402 44.6734 22.4863 43.6423 22.4863C43.1135 22.4863 42.6376 22.2615 42.2938 21.9046C41.6064 21.1907 40.6546 20.7545 39.597 20.7545C37.5215 20.7545 35.8426 22.4334 35.8426 24.5089C35.8426 26.5844 37.5215 28.2633 39.597 28.2633C40.8132 28.2633 41.8973 27.6816 42.5847 26.7695H40.02C39.1608 26.7695 38.4733 26.082 38.4733 25.2227C38.4733 24.3635 39.1608 23.676 40.02 23.676H45.1229C46.154 23.6893 47.0001 24.5353 47.0001 25.5797Z" fill="#00174A"/>
<path d="M12.0074 21.6269C12.0074 21.6625 11.9413 21.6836 11.9413 21.6534C11.2803 21.0981 10.4342 20.7544 9.50882 20.7544C7.43332 20.7544 5.75441 22.4333 5.75441 24.5088C5.75441 26.5843 7.43332 28.2633 9.50882 28.2633C10.7515 28.2633 11.8487 27.6684 12.5229 26.743C12.8534 26.2406 13.4351 25.8969 14.0829 25.8969C15.114 25.8969 15.9601 26.743 15.9601 27.7741C15.9601 28.1707 15.8411 28.5409 15.6296 28.8449C14.2679 30.7618 12.0338 32.0177 9.50882 32.0177C5.35782 32.0309 2 28.6731 2 24.5221C2 20.371 5.35782 17 9.50882 17C11.6372 17 13.5541 17.8857 14.9157 19.3002C14.9395 19.324 14.9118 19.3889 14.8893 19.3663C13.461 19.1623 12.0548 20.0943 12.0074 21.6269Z" fill="#00174A"/>
<path d="M16.1452 21.7063C16.1452 22.6845 15.352 23.4777 14.3737 23.4777C13.3955 23.4777 12.5891 22.6845 12.5891 21.6931C12.5891 20.7148 13.3822 19.9084 14.3737 19.9084C15.352 19.9216 16.1452 20.7148 16.1452 21.7063Z" fill="#B02525"/>
</svg>
