<svg width="50" height="50" viewBox="0 0 50 50" fill="none" xmlns="http://www.w3.org/2000/svg">
<rect width="50" height="50" fill="#00174A"/>
<path d="M28.7134 18.1944C29.6299 18.1944 30.382 18.9262 30.382 19.818V29.285C30.382 30.1768 29.6299 30.9086 28.7134 30.9086C27.7968 30.9086 27.0448 30.1768 27.0448 29.285V25.9693H22.2504V29.285C22.2504 30.1768 21.4983 30.9086 20.5818 30.9086C19.6652 30.9086 18.9132 30.1768 18.9132 29.285V19.818C18.9132 18.9147 19.6652 18.1944 20.5818 18.1944C21.4983 18.1944 22.2504 18.9262 22.2504 19.818V23.1337H27.0448V19.818C27.0448 18.9262 27.7851 18.1944 28.7134 18.1944Z" fill="white"/>
<path d="M45 25.4204C45 25.5354 44.9765 25.6493 44.9765 25.7634C44.3655 28.7476 41.6628 31 38.4195 31C34.7415 31 31.745 28.0844 31.745 24.4943C31.745 20.9156 34.7297 18 38.4195 18C40.2996 18 41.9918 18.7547 43.2021 19.978C43.4959 20.2753 43.6839 20.6755 43.6839 21.1214C43.6839 22.0132 42.9318 22.745 42.0153 22.745C41.5452 22.745 41.1222 22.5506 40.8167 22.2419C40.2056 21.6245 39.3596 21.2472 38.4195 21.2472C36.5746 21.2472 35.0823 22.6992 35.0823 24.4943C35.0823 26.2894 36.5746 27.7414 38.4195 27.7414C39.5006 27.7414 40.4642 27.2384 41.0752 26.4494H38.7955C38.0317 26.4494 37.4207 25.8549 37.4207 25.1117C37.4207 24.3685 38.0317 23.774 38.7955 23.774H43.3314C44.2479 23.7854 45 24.5172 45 25.4204Z" fill="white"/>
<path d="M13.8954 22.0017C13.8954 22.0325 13.8367 22.0508 13.8367 22.0246C13.2491 21.5444 12.4971 21.2471 11.6745 21.2471C9.82961 21.2471 8.33725 22.6992 8.33725 24.4943C8.33725 26.2893 9.82961 27.7414 11.6745 27.7414C12.7791 27.7414 13.7544 27.2269 14.3537 26.4265C14.6475 25.9921 15.1645 25.6948 15.7403 25.6948C16.6569 25.6948 17.4089 26.4265 17.4089 27.3184C17.4089 27.6614 17.3032 27.9815 17.1152 28.2445C15.9048 29.9023 13.9189 30.9885 11.6745 30.9885C7.98472 31 5 28.0958 5 24.5057C5 20.9156 7.98472 18 11.6745 18C13.5664 18 15.2703 18.766 16.4806 19.9894C16.5017 20.01 16.4772 20.0661 16.4571 20.0466C15.1875 19.8701 13.9375 20.6762 13.8954 22.0017Z" fill="white"/>
<path d="M17.5735 22.0704C17.5735 22.9165 16.8684 23.6025 15.9988 23.6025C15.1293 23.6025 14.4125 22.9165 14.4125 22.059C14.4125 21.2129 15.1175 20.5154 15.9988 20.5154C16.8684 20.5269 17.5735 21.2129 17.5735 22.0704Z" fill="#CB2A2A"/>
</svg>
