<svg width="50" height="50" viewBox="0 0 50 50" fill="none" xmlns="http://www.w3.org/2000/svg">
<path d="M24.9994 33.9981C29.97 33.9981 33.9994 29.9686 33.9994 24.9981C33.9994 20.0275 29.97 15.9981 24.9994 15.9981C20.0289 15.9981 15.9994 20.0275 15.9994 24.9981C15.9994 29.9686 20.0289 33.9981 24.9994 33.9981Z" fill="white"/>
<path d="M17.2052 29.5001L9.41222 16.0022C7.83206 18.7382 7.00011 21.8421 7 25.0016C6.99966 34.7336 15.189 43.0005 25.0007 42.9979L32.7937 29.5001V29.4977C31.2024 32.2572 28.1855 34.0003 25.0001 34.0007C21.8147 34.0012 18.7973 32.259 17.2052 29.5001Z" fill="url(#paint0_linear_9176_11276)"/>
<path d="M32.7937 29.5001L25.0007 42.9979C34.7324 42.9993 42.9999 34.8091 42.9983 24.9985C42.9978 21.8389 42.1654 18.7353 40.5848 15.9994H24.9989L24.9969 16.0006C29.8634 15.9982 33.9994 20.0916 33.9994 24.9981C33.9994 26.5781 33.5839 28.1318 32.7937 29.5001Z" fill="url(#paint1_linear_9176_11276)"/>
<path d="M24.9994 32.125C28.9345 32.125 32.1245 28.935 32.1245 25C32.1245 21.065 28.9345 17.875 24.9994 17.875C21.0644 17.875 17.8745 21.065 17.8745 25C17.8745 28.935 21.0644 32.125 24.9994 32.125Z" fill="#1A73E8"/>
<path d="M24.9989 15.9994H40.5848C37.4008 10.483 31.3676 6.99955 24.9982 7C18.6285 7.00045 12.5955 10.4851 9.41222 16.0022L17.2052 29.5001L17.2072 29.5011C16.4165 28.1331 15.9999 26.5811 15.9994 25.001C15.9978 20.1348 20.0924 15.9984 24.9989 15.9994Z" fill="url(#paint2_linear_9176_11276)"/>
<defs>
<linearGradient id="paint0_linear_9176_11276" x1="34.8397" y1="41.4988" x2="14.5392" y2="4.69825" gradientUnits="userSpaceOnUse">
<stop stop-color="#1E8E3E"/>
<stop offset="1" stop-color="#34A853"/>
</linearGradient>
<linearGradient id="paint1_linear_9176_11276" x1="1.7546" y1="43.0615" x2="17.846" y2="1.26085" gradientUnits="userSpaceOnUse">
<stop stop-color="#FCC934"/>
<stop offset="1" stop-color="#FBBC04"/>
</linearGradient>
<linearGradient id="paint2_linear_9176_11276" x1="9.41212" y1="18.2505" x2="40.5853" y2="18.2505" gradientUnits="userSpaceOnUse">
<stop stop-color="#D93025"/>
<stop offset="1" stop-color="#EA4335"/>
</linearGradient>
</defs>
</svg>
