<svg width="50" height="50" viewBox="0 0 50 50" fill="none" xmlns="http://www.w3.org/2000/svg">
<path fill-rule="evenodd" clip-rule="evenodd" d="M21.2913 6H28.7042L32.4079 12.2335L28.7042 18.4669H21.2913L17.5876 12.2335L21.2913 6ZM22.4629 7.91454L19.8968 12.2335L22.4629 16.5523H27.5326L30.0987 12.2335L27.5325 7.91454H22.4629ZM9.70372 12.383H17.1165L20.8203 18.6165L17.1165 24.8499H9.70373L6 18.6165L9.70372 12.383ZM10.8753 14.2975L8.30917 18.6165L10.8753 22.9354H15.9449L18.5111 18.6165L15.9449 14.2975H10.8753ZM32.8834 12.383H40.2963L44 18.6165L40.2963 24.8499H32.8834L29.1797 18.6165L32.8834 12.383ZM34.0551 14.2975L31.4889 18.6165L34.055 22.9354H39.1247L41.6908 18.6165L39.1247 14.2975H34.0551ZM21.2913 18.7666H28.7042L32.4079 25L28.7042 31.2335H21.2913L17.5876 25L21.2913 18.7666ZM22.4629 20.6811L19.8968 25L22.4629 29.3189H27.5325L30.0987 25L27.5326 20.6811H22.4629ZM32.8834 25.1495H40.2963L44 31.383L40.2963 37.6164H32.8834L29.1797 31.383L32.8834 25.1495ZM34.055 27.064L31.4889 31.383L34.055 35.7018H39.1247L41.6908 31.383L39.1247 27.064H34.055ZM9.70372 25.1495H17.1165L20.8203 31.383L17.1165 37.6164H9.70373L6 31.383L9.70372 25.1495ZM10.8753 27.0641L8.30917 31.383L10.8753 35.7019H15.9449L18.5111 31.383L15.9449 27.0641H10.8753ZM21.2913 31.5331H28.7042L32.4079 37.7665L28.7042 44H21.2913L17.5876 37.7665L21.2913 31.5331ZM22.4629 33.4476L19.8968 37.7665L22.4629 42.0855H27.5326L30.0987 37.7665L27.5326 33.4476H22.4629Z" fill="#141A1F"/>
<path d="M8.30917 31.383L10.8753 27.0641H15.9449L18.5111 31.383L15.9449 35.7019H10.8753L8.30917 31.383Z" fill="#97C639"/>
<path d="M19.8968 37.7665L22.4629 33.4476H27.5326L30.0987 37.7665L27.5326 42.0855H22.4629L19.8968 37.7665Z" fill="#6B91C7"/>
<path d="M31.4889 31.383L34.055 27.064H39.1247L41.6908 31.383L39.1247 35.7018H34.055L31.4889 31.383Z" fill="#795AA5"/>
<path d="M19.8968 25L22.4629 20.6811H27.5326L30.0987 25L27.5325 29.3189H22.4629L19.8968 25Z" fill="#E83030"/>
<path d="M31.4889 18.6165L34.0551 14.2975H39.1247L41.6908 18.6165L39.1247 22.9354H34.055L31.4889 18.6165Z" fill="#F17423"/>
<path d="M19.8968 12.2335L22.4629 7.91454H27.5325L30.0987 12.2335L27.5326 16.5523H22.4629L19.8968 12.2335Z" fill="#F9C31F"/>
<path d="M8.30917 18.6165L10.8753 14.2975H15.9449L18.5111 18.6165L15.9449 22.9354H10.8753L8.30917 18.6165Z" fill="#C9DB70"/>
</svg>
