<svg width="50" height="50" viewBox="0 0 50 50" fill="none" xmlns="http://www.w3.org/2000/svg">
<path d="M14.7536 8H34.2464L44 25L34.2571 42H14.7642L5 25L14.7536 8ZM6.4921 25L15.4978 40.6912H33.5199L42.5398 25L33.5341 9.3088H15.4943L6.4921 25Z" fill="#BDCCEA"/>
<path fill-rule="evenodd" clip-rule="evenodd" d="M9.21306 25.0001L16.8578 11.6733H16.8614L24.5061 25.0001L16.8614 38.327H16.8578L9.21306 25.0001Z" fill="#1E2D54"/>
<path fill-rule="evenodd" clip-rule="evenodd" d="M32.1531 38.327L39.7978 25.0001H24.5048L16.86 38.327H32.1531Z" fill="#7099D1"/>
<path fill-rule="evenodd" clip-rule="evenodd" d="M32.1531 11.6733L39.7978 25.0001H24.5048L16.86 11.6733H32.1531Z" fill="#004899"/>
<path d="M21.5713 30.3599L18.495 24.9999L21.5713 19.6399H30.4212L28.9114 17.0331H20.0864L15.5179 24.9999L20.0864 32.9668H28.9114L30.4212 30.3599H21.5713Z" fill="white"/>
</svg>
