<svg width="50" height="50" viewBox="0 0 50 50" fill="none" xmlns="http://www.w3.org/2000/svg">
<path d="M26.3486 41.6667V33.041H29.1794C30.1989 33.041 31.504 33.004 32.0512 34.0461C32.4947 34.8697 32.473 36.6167 32.0512 37.4C31.499 38.4254 30.2098 38.4564 29.1794 38.4564H27.8153V41.6667H26.3486ZM27.8153 37.2769H29.282C29.7373 37.2678 30.3339 37.2478 30.6153 36.8256C30.966 36.2996 30.9406 34.9403 30.4717 34.5385C30.1571 34.2481 29.6416 34.2308 29.2409 34.2308H27.8153V37.2769Z" fill="black"/>
<path d="M23.454 41.6667V33.041H24.9207V41.6667H23.454Z" fill="black"/>
<path d="M19.0344 40.2205C20.0406 40.7129 21.4943 40.5049 22.5114 40.1795V41.4205C21.0635 41.9997 18.8822 42.0919 17.6498 41.0513C15.9232 39.5549 15.9984 35.0407 17.6498 33.6461C18.3734 33.0352 19.4042 32.9179 20.3165 32.9179C21.0434 32.9179 21.8363 33.0069 22.5114 33.2769V34.5282C21.4909 34.2016 20.0398 33.9841 19.0344 34.4974C17.6589 35.1852 17.5575 39.4499 19.0344 40.2205Z" fill="black"/>
<path d="M17.4146 7.21143C19.1552 7.21154 20.5659 8.62277 20.5659 10.3633C20.5658 11.3342 20.1262 12.2017 19.436 12.7797L22.6793 18.676C23.1313 18.4255 23.6515 18.2829 24.2049 18.2829C24.9572 18.2829 25.6475 18.5472 26.1893 18.9871L28.8755 16.5689C28.5531 16.0746 28.3653 15.4846 28.3653 14.8505C28.3653 13.1099 29.7765 11.6986 31.5172 11.6986C33.2577 11.6987 34.6685 13.11 34.6685 14.8505C34.6684 16.591 33.2577 18.0017 31.5172 18.0018C30.7579 18.0018 30.0612 17.7335 29.5171 17.2863L26.8353 19.6995C27.1642 20.1973 27.3561 20.7936 27.3561 21.4348C27.356 23.1753 25.9453 24.586 24.2049 24.5861C22.4643 24.5861 21.053 23.1754 21.0529 21.4348C21.0529 20.5984 21.3789 19.8381 21.9106 19.2738L18.6128 13.2774C18.2433 13.4295 17.839 13.5146 17.4146 13.5146C15.674 13.5146 14.2628 12.1039 14.2627 10.3633C14.2627 8.6227 15.674 7.21143 17.4146 7.21143ZM24.2049 19.2444C22.9953 19.2444 22.0145 20.2252 22.0145 21.4348C22.0146 22.6443 22.9953 23.6246 24.2049 23.6246C25.4143 23.6244 26.3945 22.6442 26.3946 21.4348C26.3946 20.2253 25.4144 19.2445 24.2049 19.2444ZM31.5172 12.6601C30.3076 12.6601 29.3268 13.6409 29.3268 14.8505C29.3269 16.06 30.3077 17.0403 31.5172 17.0403C32.7266 17.0402 33.7068 16.06 33.7069 14.8505C33.7069 13.641 32.7267 12.6603 31.5172 12.6601ZM17.4146 8.17296C16.205 8.17296 15.2242 9.15375 15.2242 10.3633C15.2243 11.5728 16.2051 12.5531 17.4146 12.5531C18.624 12.553 19.6043 11.5728 19.6044 10.3633C19.6044 9.15382 18.6241 8.17308 17.4146 8.17296Z" fill="black"/>
<path d="M20.2143 18.8519C20.3237 19.0509 20.3164 19.2914 20.2169 19.4956C19.9314 20.0815 19.7705 20.7398 19.7705 21.4348C19.7707 23.8835 21.7562 25.8681 24.2045 25.8682C26.653 25.868 28.6377 23.8833 28.6379 21.4348C28.6379 21.2307 28.6239 21.0296 28.597 20.8326C28.5277 20.3249 28.6505 19.7898 29.0313 19.447L29.3495 19.1606C29.5399 18.9892 29.8127 18.9518 30.0544 19.0363C30.5127 19.1965 31.005 19.2838 31.5168 19.2839C31.6328 19.2839 31.7477 19.2793 31.8615 19.2705C32.3544 19.232 32.7827 19.6613 32.4476 20.025C32.2902 20.1958 32.101 20.3447 31.8831 20.4626L31.8793 20.4645C31.6906 20.5645 31.5388 20.7067 31.4361 20.8727L31.4342 20.8758C31.2761 21.1269 31.235 21.4204 31.314 21.6946C31.3935 21.9701 31.5921 22.2168 31.8799 22.3701C32.3833 22.6381 32.762 23.0877 32.9178 23.6283C33.074 24.1705 32.989 24.747 32.6875 25.2259L32.6843 25.2309L32.0934 26.1405L32.094 26.1411C31.4745 27.1265 30.1425 27.439 29.1117 26.8904L28.969 26.8253C28.8243 26.7693 28.668 26.7376 28.5083 26.7327C28.1678 26.7315 27.8477 26.8564 27.6175 27.0694C27.3882 27.2816 27.268 27.5613 27.2694 27.8438V27.8488C27.2632 29.0253 26.2423 29.9145 25.0646 29.9146H23.9347C22.7551 29.9145 21.7338 29.0224 21.7306 27.8444L21.7199 27.7124C21.6997 27.5813 21.6513 27.4531 21.5759 27.3355L21.5716 27.3286C21.4154 27.0761 21.1491 26.8814 20.8241 26.8009C20.4988 26.7204 20.1532 26.7642 19.8669 26.9186L19.8594 26.923L19.8588 26.9223C19.3517 27.1852 18.7564 27.2497 18.2018 27.1039C17.6498 26.9587 17.1714 26.6138 16.8803 26.1329L16.3113 25.2246L16.3106 25.224C15.6803 24.2131 16.0716 22.9388 17.1188 22.3782C17.5074 22.1706 17.7266 21.8003 17.7266 21.421C17.7266 21.0418 17.5074 20.6715 17.1188 20.4639L17.1176 20.4633C16.07 19.8993 15.6801 18.6232 16.3106 17.6106L16.3169 17.6005L16.9191 16.6847C17.1886 16.2574 17.5924 15.9579 18.0476 15.8002C18.3 15.7128 18.5637 15.8507 18.6925 16.0847L20.2143 18.8519Z" fill="#FF5200"/>
<path d="M24.2972 20.5315C24.7548 20.578 25.1122 20.9643 25.1122 21.4348C25.1121 21.9049 24.755 22.2917 24.2972 22.3381L24.2045 22.3425C23.7341 22.3424 23.3477 21.985 23.3012 21.5275L23.2962 21.4348C23.2962 20.9333 23.703 20.5266 24.2045 20.5265L24.2972 20.5315Z" fill="#FF5200"/>
<path d="M25.1736 12.93C25.7185 12.9552 26.2409 13.1704 26.6328 13.5434C26.8484 13.7488 27.0144 13.9936 27.1229 14.2608C27.0973 14.4538 27.0829 14.6505 27.0829 14.8505C27.0829 15.0486 27.096 15.2438 27.1214 15.4353C27.1885 15.9408 27.0651 16.4728 26.6862 16.814L26.6625 16.8354C26.2833 17.1769 25.7409 17.2439 25.2449 17.1242C24.9111 17.0436 24.5626 17.0009 24.2045 17.0008C23.6485 17.0009 23.0915 16.7669 22.8235 16.2797L22.073 14.9153C21.909 14.6173 21.8539 14.2558 22.0308 13.9653C22.1289 13.8043 22.25 13.6557 22.3916 13.524C22.8061 13.1386 23.3621 12.9275 23.9347 12.9274H25.0646L25.1736 12.93Z" fill="#FF5200"/>
</svg>
