<svg width="50" height="50" viewBox="0 0 50 50" fill="none" xmlns="http://www.w3.org/2000/svg">
<path fill-rule="evenodd" clip-rule="evenodd" d="M25 43C34.9411 43 43 34.9411 43 25C43 15.0589 34.9411 7 25 7C15.0589 7 7 15.0589 7 25C7 34.9411 15.0589 43 25 43ZM33.5701 18.4448L28.9761 23.0387C29.2774 23.6486 29.4337 24.3197 29.4328 24.9999C29.4328 27.4143 27.4144 29.4328 25 29.4328C22.5856 29.4328 20.5671 27.4143 20.5671 24.9999C20.5671 22.5855 22.5856 20.5671 25 20.5671C25.6632 20.5661 26.3182 20.7146 26.9162 21.0016L31.4987 16.4192C29.6222 15.0266 27.2959 14.2997 24.9617 14.3181C19.2712 14.3181 13.7958 19.3537 14.1119 25.2014H12.1642C11.883 18.2589 18.1839 12.373 24.9664 12.373C28.1033 12.373 30.7892 13.3977 32.887 15.0308L34.2183 13.6996C34.7762 13.1418 35.7088 13.1418 36.2668 13.6996C36.8167 14.2484 36.8223 15.1937 36.2668 15.7481L34.956 17.0588C36.8465 19.3828 37.8955 22.3069 37.8955 25.2014H35.9477C35.9477 22.7993 35.0913 20.3856 33.5701 18.4448Z" fill="#0087C4"/>
</svg>
