<svg width="50" height="50" viewBox="0 0 50 50" fill="none" xmlns="http://www.w3.org/2000/svg">
<path d="M25 42.8752C15.1428 42.8752 7.1248 34.8572 7.1248 25C7.1248 15.1428 15.1428 7.1248 25 7.1248C34.8572 7.1248 42.8752 15.1428 42.8752 25C42.8752 34.8572 34.8572 42.8752 25 42.8752ZM25 6C14.5196 6 6 14.5196 6 25C6 35.4804 14.5196 44 25 44C35.4804 44 44 35.4804 44 25C44 14.5196 35.4804 6 25 6ZM36.704 24.1184V20.7516C36.704 20.7516 33.1776 19.8396 28.8076 19.8396C28.7164 19.8396 28.6252 19.8396 28.534 19.8396C26.5732 19.8548 24.1716 20.1512 22.4844 20.402C23.1152 21.0328 23.5028 21.8992 23.5028 22.8568C23.5028 23.822 23.1076 24.734 22.4008 25.3952V25.5016H36.0276C35.83 27.3104 35.2524 29.0356 34.3556 30.5632V30.1984H33.246V29.636H32.6228V28.9824H32.486H32.2428V28.5872C32.2428 28.534 32.2276 28.4732 32.1972 28.4276C32.1364 28.3364 32.0452 28.2908 31.9464 28.2908C31.8476 28.2908 31.7488 28.344 31.6956 28.4276C31.6652 28.4808 31.65 28.534 31.65 28.5872V28.9824H31.2776V29.636H30.8216V27.5004H27.9488V30.586L27.0824 30.1604C26.8468 29.3624 26.6112 28.572 26.3832 27.7816C26.4516 27.736 26.4896 27.66 26.4896 27.5764C26.4896 27.4396 26.3756 27.3256 26.2388 27.3256C26.102 27.3256 25.988 27.4396 25.988 27.5764C25.988 27.66 26.0336 27.736 26.0944 27.7816C25.8816 28.5188 25.6612 29.2636 25.4408 30.0084L25.4256 30.0008L25.2356 29.9096V30.6544H24.9012L24.7492 28.1084L24.7416 27.9792H23.7156L23.708 28.1084L23.556 30.6544H22.7656C22.4388 30.1072 22.15 29.5296 21.9068 28.9368L21.4508 29.3928C22.8112 32.5544 25.3572 35.0776 28.5264 36.4152C33.3372 34.4012 36.704 29.6512 36.704 24.1184ZM21.998 28.2604V25.2204C22.6668 24.658 23.1 23.8068 23.1 22.8644C23.1 21.9068 22.6592 21.048 21.9752 20.4856C21.8156 20.3564 21.6408 20.2348 21.4584 20.136C21.0328 19.908 20.5388 19.7788 20.022 19.7788C18.9276 19.7788 17.9624 20.3488 17.4228 21.2076C17.3772 21.276 16.4652 22.8568 16.4652 22.8568L16.3512 24.2096L18.4792 21.9524H18.9732C19.0644 21.7092 19.2924 21.542 19.566 21.542C19.718 21.542 19.8548 21.5952 19.9688 21.6864C20.0524 21.7548 20.1208 21.846 20.1588 21.9524H21.2912C21.3824 21.7092 21.6104 21.542 21.8764 21.542C22.2184 21.542 22.5072 21.8232 22.5072 22.1652C22.5072 22.3856 22.3932 22.5832 22.2184 22.6896C22.226 22.7428 22.226 22.796 22.226 22.8492C22.226 23.7232 21.7016 24.5136 20.9112 24.8632V29.3472L21.998 28.2604ZM21.8688 22.3704C21.9752 22.3704 22.0664 22.2792 22.0664 22.1728C22.0664 22.0664 21.9752 21.9752 21.8688 21.9752C21.7624 21.9752 21.6712 22.0664 21.6712 22.1728C21.6712 22.2868 21.7548 22.3704 21.8688 22.3704ZM19.5584 22.3704C19.6648 22.3704 19.756 22.2792 19.756 22.1728C19.756 22.0664 19.6648 21.9752 19.5584 21.9752C19.452 21.9752 19.3608 22.0664 19.3608 22.1728C19.3608 22.2868 19.4444 22.3704 19.5584 22.3704ZM18.4336 27.0748C18.54 27.0748 18.6312 26.9836 18.6312 26.8772C18.6312 26.7708 18.54 26.6796 18.4336 26.6796C18.3272 26.6796 18.236 26.7708 18.236 26.8772C18.236 26.9836 18.3272 27.0748 18.4336 27.0748ZM18.4336 29.4688C18.54 29.4688 18.6312 29.3776 18.6312 29.2712C18.6312 29.1648 18.54 29.0736 18.4336 29.0736C18.3272 29.0736 18.236 29.1648 18.236 29.2712C18.236 29.3776 18.3272 29.4688 18.4336 29.4688ZM20.6148 24.5288C21.314 24.278 21.7852 23.6092 21.7852 22.8644C21.7852 22.8416 21.7852 22.8188 21.7852 22.796C21.5496 22.7656 21.3596 22.606 21.2836 22.3856H20.1512C20.1132 22.492 20.0448 22.5832 19.9612 22.6516C19.8548 22.7428 19.7104 22.796 19.5584 22.796C19.2848 22.796 19.0568 22.6212 18.9656 22.3856H18.654L18.0232 23.0468V25.2128L16.07 27.2724L15.9028 29.218L17.8788 27.1584C17.8332 27.0748 17.8104 26.976 17.8104 26.8772C17.8104 26.5276 18.0916 26.2464 18.4412 26.2464C18.7908 26.2464 19.0644 26.5276 19.0644 26.8772C19.0644 27.2192 18.7832 27.508 18.4412 27.508C18.35 27.508 18.2664 27.4928 18.1904 27.4548L15.8572 29.9172L15.69 31.8628L17.8788 29.5524C17.8332 29.4688 17.8104 29.37 17.8104 29.2712C17.8104 28.9292 18.0916 28.6404 18.4412 28.6404C18.7908 28.6404 19.0644 28.9216 19.0644 29.2712C19.0644 29.6132 18.7832 29.902 18.4412 29.902C18.35 29.902 18.2664 29.8868 18.1904 29.8488L15.6368 32.562L15.4392 34.8116L20.4704 29.788V24.582L20.6148 24.5288ZM16.1384 26.596L17.5976 25.0532V23.5104L16.2828 24.9012L16.1384 26.596ZM18.5172 14.4892L21.3976 16.0396L19.7332 17.7496L20.9644 17.704L19.9536 19.3836C19.9764 19.3836 19.9992 19.3836 20.022 19.3836C20.782 19.3836 21.4888 19.6268 22.0588 20.0448C23.3888 19.8396 25.2812 19.5888 27.0672 19.4748C27.0596 19.4672 27.0596 19.452 27.052 19.4444C27.0292 19.3912 26.9988 19.338 26.976 19.2848C26.938 19.2012 26.8924 19.1252 26.8544 19.0416C26.8012 18.9352 26.748 18.8288 26.6948 18.7224C26.634 18.5932 26.5656 18.4716 26.5048 18.3424C26.4364 18.198 26.3604 18.0536 26.292 17.9168C26.292 17.9168 26.6036 17.4912 27.204 17.3088C27.7588 17.1416 28.3744 17.3088 28.7316 17.7876C28.8456 17.9396 28.9292 18.1144 28.9292 18.2968C28.9292 18.2968 29.8792 16.868 29.6512 16.0472C29.4232 15.2264 27.6068 15.3176 27.6068 15.3176H26.9988L26.4516 14.74C26.3072 14.588 26.102 14.4968 25.8968 14.4968H18.5172V14.4892ZM37.9428 25C37.9428 32.144 32.1516 37.9352 25 37.9352C23.5028 37.9352 22.0664 37.6844 20.7288 37.2132C20.7288 37.2132 23.2292 35.222 24.2856 34.1504C23.5484 33.4512 22.8872 32.676 22.3096 31.8248C21.8536 31.156 21.466 30.4492 21.1392 29.7196L14.9376 35.9136L15.1504 33.3904C13.2276 31.1332 12.0648 28.1996 12.0648 25C12.0648 17.856 17.856 12.0572 25 12.0572C32.1516 12.0572 37.9428 17.856 37.9428 25ZM26.3984 15.3328L25.9804 15.5684L25.7448 15.8876C25.6156 15.8268 25.266 15.6824 24.9544 15.5608C24.6352 15.4392 24.1944 15.3024 24.1944 15.3024C25.0152 15.31 25.2128 15.3176 25.2432 15.3176H25.2508C25.2888 15.3176 25.4864 15.3176 26.3984 15.3328ZM26.7176 29.9932L26.7632 30.016L26.824 30.0464L26.8012 29.9476L26.7176 29.9932ZM26.2464 30.0692L26.7404 29.788L26.254 29.4004L25.76 29.788L26.2464 30.0692ZM26.5808 29.1344L26.3832 29.2864L26.6796 29.522L26.5808 29.1344ZM26.1096 30.3428L26.5732 30.5632V30.4492L26.2464 30.2592L26.1096 30.3428ZM26.5656 30.2516V30.0692L26.4136 30.1604L26.5656 30.2516ZM25.9576 28.9596L26.2464 29.1876L26.5276 28.9672L26.2464 27.8956L25.9576 28.9596ZM25.8056 29.5296L26.1096 29.294L25.912 29.142L25.8056 29.5296ZM25.646 30.1148L25.9196 30.2516L26.0716 30.168L25.6916 29.9476L25.646 30.1148ZM24.582 33.0104C24.8404 33.2764 25.114 33.5348 25.3952 33.778V33.2688C25.3952 32.9952 25.5852 32.7748 25.8132 32.7748C26.0488 32.7748 26.2312 32.9952 26.2312 33.2688V34.4468C26.3604 34.538 26.4972 34.6368 26.6264 34.7204V32.8964C26.6264 32.6228 26.8164 32.4024 27.0444 32.4024C27.28 32.4024 27.47 32.6228 27.47 32.8964V35.2372C27.622 35.3284 27.7816 35.412 27.9412 35.488V32.1288C26.4516 32.2048 25.3268 32.6152 24.582 33.0104ZM26.0716 32.0604C26.672 31.9464 27.318 31.8628 27.9488 31.8476V31.992C26.3984 32.068 25.2432 32.4936 24.4832 32.904C24.3768 32.7976 24.278 32.6836 24.1792 32.5696C24.7036 32.3796 25.3572 32.1972 26.0716 32.0604ZM9.4808 25.8436L9.4732 25.3496C9.7392 25.3496 9.952 25.4104 10.1344 25.5472C10.3092 25.684 10.408 25.874 10.4308 26.1172C10.4536 26.4136 10.3624 26.6492 10.1572 26.824C9.952 26.9988 9.6556 27.0976 9.268 27.128C8.8804 27.1584 8.5688 27.1052 8.3332 26.9684C8.0976 26.8316 7.976 26.6112 7.9456 26.3072C7.9076 25.8056 8.1964 25.5092 8.812 25.4104L8.888 25.8892C8.5308 25.9272 8.3636 26.0564 8.3788 26.2692C8.3864 26.3832 8.4548 26.4668 8.5764 26.52C8.698 26.5732 8.926 26.5884 9.2528 26.5656C9.5492 26.5428 9.7544 26.4972 9.8608 26.4288C9.9672 26.3604 10.0128 26.2616 10.0052 26.1476C9.9748 25.95 9.8076 25.8512 9.4808 25.8436ZM9.3212 24.7264L10.3396 24.7644L10.3548 24.2324L9.3364 24.1944L7.9684 23.4724L7.9532 23.9892L8.8196 24.3844L7.9304 24.696L7.9076 25.2812L9.3212 24.7264ZM9.4352 22.8416L9.4732 22.5832C9.4884 22.4616 9.5264 22.378 9.5872 22.3248C9.6404 22.2716 9.7316 22.2564 9.8456 22.2716C10.0508 22.302 10.142 22.4388 10.104 22.682L10.066 22.9404L9.4352 22.8416ZM8.4776 22.6896L8.508 22.4844C8.5308 22.34 8.5764 22.2488 8.6372 22.2184C8.698 22.1804 8.7664 22.1728 8.8424 22.1804C8.9184 22.1956 8.9868 22.226 9.04 22.2792C9.0932 22.3324 9.1084 22.4464 9.078 22.6136L9.0476 22.7808L8.4776 22.6896ZM10.4004 23.5104L10.5296 22.6972C10.56 22.4996 10.5676 22.34 10.5448 22.226C10.5296 22.112 10.4688 22.0132 10.37 21.922C10.2712 21.8308 10.1496 21.7776 9.9976 21.7472C9.7012 21.7016 9.4884 21.808 9.3516 22.0588C9.3136 21.8232 9.154 21.6788 8.888 21.6408C8.736 21.618 8.5992 21.6332 8.4928 21.6788C8.3788 21.732 8.3028 21.8004 8.2572 21.8916C8.2116 21.9828 8.1736 22.1272 8.1432 22.3172L8.014 23.1304L10.4004 23.5104ZM10.7348 21.5724L11.1376 20.1588L10.7196 20.0372L10.4612 20.9416L9.8912 20.7744L10.0888 20.0752L9.6936 19.9612L9.496 20.6604L8.9564 20.5084L9.2148 19.604L8.8196 19.49L8.4168 20.9036L10.7348 21.5724ZM9.6252 18.5096C9.6556 18.4336 9.686 18.388 9.724 18.3576C9.7544 18.3272 9.8 18.3044 9.8608 18.2968C9.9216 18.2892 9.99 18.2968 10.0584 18.3348C10.2712 18.426 10.3396 18.5628 10.256 18.7604L10.1648 18.9732L9.5416 18.7072L9.6252 18.5096ZM11.206 19.984L11.4112 19.4976L10.5296 19.1252L10.636 18.882L11.6392 18.958L11.8672 18.426H10.7196C10.6968 18.1676 10.5448 17.9852 10.2636 17.8636C10.142 17.8104 10.028 17.7876 9.914 17.7876C9.8 17.7876 9.7012 17.818 9.6176 17.8636C9.534 17.9168 9.4656 17.97 9.42 18.0384C9.3744 18.1068 9.3288 18.2056 9.268 18.3424L8.9716 19.0416L11.206 19.984ZM11.0768 16.0168C10.6968 15.918 10.408 16.0472 10.1952 16.412C10.0812 16.6096 10.0432 16.8072 10.0964 16.9972C10.1496 17.1872 10.2636 17.3392 10.4536 17.4456C10.5676 17.5064 10.674 17.5444 10.7956 17.5368C10.9096 17.5368 11.016 17.5064 11.1072 17.4608C11.1984 17.4076 11.32 17.3164 11.472 17.1948C11.586 17.096 11.6772 17.0428 11.738 17.0276C11.7988 17.02 11.852 17.0276 11.9052 17.058C11.9736 17.096 12.0116 17.1568 12.0268 17.2252C12.042 17.3012 12.0192 17.3772 11.9736 17.4532C11.8748 17.628 11.7 17.6812 11.4644 17.6052L11.3428 18.0764C11.7836 18.1904 12.118 18.0612 12.3384 17.6812C12.4676 17.4532 12.5132 17.2404 12.4676 17.0352C12.422 16.83 12.3004 16.6704 12.1028 16.5564C11.9888 16.4956 11.8824 16.4576 11.7684 16.4576C11.6544 16.4576 11.5556 16.4804 11.4568 16.526C11.3656 16.5716 11.2516 16.6552 11.1224 16.754C10.978 16.868 10.8792 16.9364 10.8108 16.9668C10.75 16.9896 10.6892 16.9896 10.6284 16.9516C10.5752 16.9212 10.5448 16.8756 10.5296 16.8148C10.5144 16.754 10.5296 16.6856 10.5676 16.6248C10.6512 16.4804 10.7956 16.4348 11.0008 16.4804L11.0768 16.0168ZM12.8932 16.716L13.7748 15.538L13.4328 15.2796L12.8704 16.032L12.3916 15.6748L12.8324 15.0896L12.498 14.8388L12.0572 15.424L11.6088 15.0896L12.1712 14.3372L11.8368 14.0864L10.9552 15.2644L12.8932 16.716ZM14.0788 13.942C14.2916 14.1928 14.3296 14.3828 14.1928 14.5272C14.1092 14.6108 14.0104 14.6412 13.8812 14.6108C13.7596 14.5804 13.5924 14.4588 13.3796 14.2536C13.1364 14.0256 12.9996 13.8432 12.9616 13.714C12.9236 13.5848 12.9464 13.486 13.0224 13.4024C13.1668 13.2504 13.372 13.296 13.6456 13.5316L13.9572 13.1592C13.4784 12.7564 13.0604 12.7412 12.7108 13.106C12.498 13.3264 12.422 13.5696 12.4752 13.8356C12.5284 14.1016 12.6956 14.3676 12.9768 14.6412C13.258 14.9072 13.5316 15.0668 13.7976 15.1048C14.0636 15.1428 14.2992 15.0592 14.5044 14.8464C14.6716 14.6716 14.7476 14.474 14.7324 14.246C14.7172 14.0256 14.6184 13.8204 14.4436 13.6228L14.0788 13.942ZM14.5804 13.2352C14.778 13.486 14.9376 13.6456 15.0592 13.714C15.1808 13.7824 15.31 13.8052 15.4468 13.7824C15.5836 13.7596 15.7356 13.6836 15.9028 13.5544C16.0776 13.4176 16.184 13.2656 16.2296 13.1136C16.2676 12.9616 16.26 12.8172 16.1992 12.6956C16.1384 12.574 16.0244 12.4068 15.8572 12.194L15.006 11.13L14.6564 11.4036L15.5228 12.4828C15.6444 12.6348 15.7204 12.7412 15.7584 12.8096C15.7964 12.8704 15.804 12.9388 15.7888 13.0072C15.7736 13.0756 15.7356 13.1364 15.6672 13.1896C15.6064 13.2428 15.538 13.2656 15.4696 13.2732C15.4012 13.2808 15.3328 13.258 15.272 13.2048C15.2112 13.1592 15.12 13.0528 14.9984 12.9008L14.1396 11.8216L13.7216 12.156L14.5804 13.2352ZM16.4196 10.6892C16.488 10.6512 16.5412 10.6284 16.5868 10.6208C16.6324 10.6132 16.678 10.6284 16.7312 10.6588C16.7844 10.6892 16.83 10.7348 16.8756 10.8032C16.9972 11.0008 16.9668 11.1528 16.7844 11.2592L16.5868 11.3808L16.2372 10.7956L16.4196 10.6892ZM16.8224 12.8096L17.2784 12.536L16.7844 11.7152L17.0124 11.5784L17.78 12.232L18.274 11.9356L17.3468 11.2592C17.476 11.0388 17.4684 10.7956 17.3088 10.5372C17.2404 10.4232 17.1644 10.3396 17.0732 10.2712C16.982 10.2028 16.8832 10.1648 16.7844 10.1572C16.6856 10.1496 16.5944 10.1572 16.526 10.1876C16.45 10.218 16.3512 10.2712 16.222 10.3472L15.5684 10.7348L16.8224 12.8096ZM18.4944 11.8596L18.9732 11.6316L17.9396 9.4504L17.4608 9.6784L18.4944 11.8596ZM18.3956 9.724L18.844 9.5492L19.5432 11.3884L20.0372 11.1984L19.338 9.3592L19.8016 9.1844L19.642 8.7588L18.236 9.2908L18.3956 9.724ZM20.8276 9.876L21.0784 10.864L21.5952 10.7348L21.3444 9.7468L21.6484 8.2268L21.1468 8.356L21.01 9.2984L20.4628 8.5308L19.8928 8.6752L20.8276 9.876ZM23.708 8.8196C23.594 8.6828 23.5332 8.5688 23.5256 8.4852C23.518 8.432 23.5332 8.3864 23.5636 8.3484C23.594 8.3104 23.6396 8.2876 23.7004 8.2876C23.7612 8.28 23.8144 8.2952 23.8448 8.3332C23.8828 8.3712 23.898 8.4168 23.9056 8.47C23.9132 8.6144 23.8524 8.7284 23.708 8.8196ZM24.0196 9.8684C23.9284 9.9672 23.822 10.028 23.6928 10.0356C23.5864 10.0432 23.4952 10.0204 23.4344 9.9596C23.366 9.8988 23.3356 9.8152 23.328 9.7164C23.3128 9.5568 23.3888 9.42 23.5408 9.3136L24.0196 9.8684ZM24.4528 8.9564C24.4224 9.192 24.3692 9.3668 24.3084 9.5036L23.9436 9.0856C24.2096 8.9184 24.3312 8.7208 24.316 8.4776C24.3008 8.318 24.24 8.1812 24.1184 8.0824C23.9968 7.9836 23.8448 7.938 23.6548 7.9532C23.4648 7.9684 23.3204 8.0292 23.2064 8.1508C23.0924 8.2648 23.0468 8.394 23.0544 8.5384C23.0696 8.6904 23.1532 8.8652 23.3204 9.0628C22.9708 9.2452 22.8036 9.4884 22.8264 9.8C22.8416 9.99 22.9176 10.1496 23.0468 10.2864C23.1836 10.4232 23.3812 10.4764 23.6472 10.4536C23.8904 10.4384 24.1032 10.3396 24.2856 10.1648C24.4452 10.3092 24.6048 10.37 24.772 10.3548C24.8252 10.3472 24.886 10.3396 24.9544 10.3168L24.924 9.9064C24.8784 9.914 24.8556 9.914 24.8404 9.914C24.7568 9.9216 24.6732 9.8836 24.582 9.8C24.7188 9.5568 24.81 9.2908 24.848 9.002L24.4528 8.9564ZM25.8664 10.3624L26.3984 10.4004L26.5808 7.9912L26.0488 7.9532L25.8664 10.3624ZM26.7708 10.4232L27.1736 10.4916L27.4776 8.7664L27.8956 10.6208L28.3668 10.7044L28.7848 8.3256L28.382 8.2572L28.1236 9.7316L27.774 8.1432L27.1964 8.0368L26.7708 10.4232ZM28.724 10.8032L29.2332 10.9552L29.5144 10.0432L30.1832 10.2484L30.3048 9.8532L29.636 9.648L29.8184 9.04L30.6848 9.306L30.8064 8.9108L29.4308 8.4928L28.724 10.8032ZM31.6804 9.7088C31.7564 9.7392 31.802 9.7696 31.8324 9.8076C31.8628 9.838 31.878 9.8836 31.8856 9.9444C31.8932 10.0052 31.878 10.0736 31.8476 10.142C31.7564 10.3548 31.612 10.4232 31.422 10.3396L31.2092 10.2484L31.4828 9.6252L31.6804 9.7088ZM30.1832 11.2668L30.6696 11.4796L31.0572 10.6056L31.3004 10.712L31.2092 11.7152L31.7412 11.9508L31.7564 10.8032C32.0148 10.7804 32.2048 10.636 32.3264 10.3548C32.3796 10.2332 32.4024 10.1192 32.4024 10.0052C32.4024 9.8912 32.3796 9.7924 32.3264 9.7088C32.2732 9.6252 32.22 9.5568 32.1516 9.5112C32.0832 9.4656 31.9844 9.4124 31.8476 9.3592L31.1484 9.0552L30.1832 11.2668ZM32.9724 11.624L33.6944 10.9096L33.3752 11.8824L32.9724 11.624ZM31.8932 12.0192L32.3112 12.2776L32.676 11.9128L33.2536 12.27L33.094 12.7564L33.5576 13.0452L34.2492 10.6284L33.7932 10.3472L31.8932 12.0192ZM35.982 12.6044C36.134 12.2472 36.0504 11.9356 35.7236 11.6696C35.5412 11.5252 35.3588 11.4644 35.1612 11.4796C34.9636 11.5024 34.7964 11.5936 34.6596 11.7608C34.576 11.8596 34.5304 11.966 34.5152 12.08C34.5 12.194 34.5076 12.3004 34.5456 12.3992C34.5836 12.498 34.652 12.6348 34.7584 12.802C34.8344 12.9312 34.88 13.03 34.88 13.0908C34.88 13.1516 34.8648 13.2048 34.8268 13.2504C34.7812 13.3112 34.7128 13.3416 34.6444 13.3416C34.5684 13.3416 34.5 13.3112 34.424 13.258C34.2644 13.1288 34.2416 12.954 34.348 12.7336L33.9072 12.5436C33.7248 12.9616 33.8008 13.3112 34.1428 13.5848C34.348 13.752 34.5532 13.8204 34.766 13.8052C34.9788 13.79 35.1536 13.6912 35.298 13.5164C35.3816 13.4176 35.4272 13.3112 35.45 13.1972C35.4728 13.0832 35.4576 12.9844 35.4272 12.878C35.3968 12.7792 35.336 12.6576 35.2524 12.5132C35.1612 12.3536 35.108 12.2396 35.0928 12.1788C35.0776 12.1104 35.0928 12.0572 35.1308 12.004C35.1688 11.9584 35.2144 11.9356 35.2828 11.928C35.3436 11.9204 35.4044 11.9432 35.4652 11.9888C35.5944 12.0952 35.6248 12.2396 35.5412 12.4372L35.982 12.6044ZM36.2784 12.7716L36.6204 13.1136L35.222 14.4968L35.5944 14.8768L36.9928 13.4936L37.3424 13.8432L37.6616 13.524L36.5976 12.4524L36.2784 12.7716ZM38.072 14.6412C38.1176 14.702 38.148 14.7552 38.1632 14.8008C38.1708 14.8464 38.1708 14.892 38.148 14.9528C38.1252 15.006 38.0872 15.0592 38.0188 15.1124C37.8364 15.2568 37.6844 15.2492 37.5552 15.082L37.4108 14.8996L37.9428 14.4816L38.072 14.6412ZM36.0276 15.31L36.3544 15.728L37.1068 15.1352L37.274 15.3404L36.7268 16.184L37.084 16.64L37.6388 15.6368C37.8744 15.7356 38.11 15.6976 38.3532 15.5076C38.452 15.424 38.528 15.3404 38.5812 15.2416C38.6344 15.1428 38.6572 15.044 38.6572 14.9452C38.6572 14.8464 38.6344 14.7628 38.5964 14.6868C38.5584 14.6184 38.49 14.5272 38.3988 14.4056L37.9276 13.8128L36.0276 15.31ZM38.0644 16.2676C37.7908 16.4348 37.6084 16.5716 37.5248 16.678C37.4412 16.7844 37.4032 16.9136 37.4032 17.0504C37.4032 17.1872 37.4564 17.3468 37.5704 17.5292C37.6844 17.7192 37.8136 17.8484 37.9656 17.9092C38.11 17.97 38.2544 17.9776 38.3836 17.9396C38.5128 17.894 38.6952 17.8104 38.9308 17.666L40.1012 16.9668L39.8732 16.5868L38.6876 17.2936C38.5204 17.3924 38.3988 17.4608 38.3304 17.4836C38.262 17.5064 38.1936 17.514 38.1328 17.4912C38.072 17.4684 38.0112 17.4228 37.9656 17.3468C37.92 17.2784 37.9048 17.21 37.9124 17.1416C37.92 17.0732 37.9504 17.0124 38.0036 16.9592C38.0568 16.906 38.1708 16.83 38.338 16.7312L39.5236 16.0244L39.25 15.5684L38.0644 16.2676ZM39.4552 19.2848C39.1436 19.3836 38.9536 19.338 38.8776 19.1632C38.832 19.0492 38.8472 18.9504 38.9232 18.8516C38.9992 18.7528 39.1816 18.6464 39.4552 18.5248C39.7592 18.3956 39.9796 18.3348 40.1164 18.35C40.2456 18.3652 40.3368 18.426 40.3824 18.5248C40.466 18.7224 40.3444 18.8896 40.0176 19.0416L40.238 19.4748C40.7928 19.186 40.9752 18.8136 40.7776 18.35C40.656 18.0688 40.466 17.9016 40.2 17.8484C39.934 17.7952 39.6224 17.8408 39.2652 17.9928C38.908 18.1448 38.6572 18.3348 38.5204 18.5628C38.376 18.7908 38.3684 19.0416 38.4824 19.3152C38.5812 19.5432 38.7332 19.6876 38.9384 19.7636C39.1512 19.832 39.3792 19.832 39.6224 19.7408L39.4552 19.2848ZM40.7016 19.49L40.8384 19.9536L38.9536 20.516L39.1056 21.0252L40.9904 20.4628L41.1348 20.934L41.568 20.8048L41.1348 19.3608L40.7016 19.49ZM40.3064 21.428C39.9872 21.4812 39.7744 21.5496 39.6604 21.618C39.5464 21.6864 39.4628 21.7928 39.4172 21.922C39.3716 22.0512 39.364 22.2184 39.402 22.4312C39.44 22.6516 39.516 22.8188 39.6376 22.9252C39.7516 23.0316 39.8808 23.0924 40.0176 23.1C40.1544 23.1076 40.3596 23.0848 40.6256 23.0392L41.9632 22.8036L41.8872 22.3628L40.5268 22.606C40.3368 22.644 40.2 22.6592 40.1316 22.6592C40.0556 22.6592 39.9948 22.6364 39.9416 22.5984C39.8884 22.5528 39.858 22.492 39.8428 22.4008C39.8276 22.3172 39.8352 22.2488 39.8656 22.188C39.896 22.1272 39.9492 22.0816 40.0176 22.0512C40.0936 22.0208 40.2228 21.9904 40.4128 21.9524L41.7732 21.7092L41.682 21.1848L40.3064 21.428ZM41.6592 24.2628C41.6592 24.3388 41.6592 24.3996 41.6364 24.4452C41.6212 24.4832 41.5832 24.5212 41.5376 24.5592C41.4844 24.5896 41.4236 24.6124 41.34 24.6124C41.1044 24.62 40.9904 24.5212 40.9752 24.316L40.9676 24.0804L41.644 24.05L41.6592 24.2628ZM39.6072 23.6092L39.63 24.1412L40.5876 24.1032L40.5952 24.3692L39.6528 24.734L39.6756 25.3116L40.7168 24.8252C40.846 25.0456 41.0664 25.152 41.3704 25.1368C41.4996 25.1292 41.6136 25.1064 41.7124 25.0532C41.8112 25 41.8948 24.9392 41.948 24.8556C42.0012 24.772 42.0392 24.6884 42.0468 24.6124C42.0544 24.5364 42.062 24.4224 42.0544 24.2704L42.024 23.5104L39.6072 23.6092ZM39.6604 25.5092L39.5464 26.976L39.9796 27.0064L40.0556 26.0716L40.6484 26.1172L40.5952 26.8468L41.0056 26.8772L41.0588 26.1476L41.6212 26.1932L41.5452 27.128L41.9556 27.1584L42.0696 25.6916L39.6604 25.5092ZM14.6032 36.2024C14.8008 35.868 14.7552 35.5488 14.4588 35.2448C14.2992 35.0776 14.1168 34.994 13.9268 34.994C13.7292 34.994 13.5544 35.0624 13.4024 35.2144C13.3112 35.3056 13.2504 35.4044 13.22 35.5184C13.1896 35.6324 13.1896 35.7388 13.2124 35.8376C13.2352 35.9364 13.2884 36.0808 13.372 36.2556C13.4328 36.3924 13.4632 36.4912 13.4556 36.5596C13.448 36.6204 13.4252 36.6736 13.3872 36.7116C13.334 36.7648 13.2656 36.7876 13.1896 36.78C13.1136 36.7724 13.0452 36.7344 12.9844 36.666C12.8476 36.5216 12.84 36.3468 12.9768 36.134L12.5588 35.8908C12.3232 36.286 12.3612 36.6432 12.6652 36.9548C12.8476 37.1448 13.0452 37.2436 13.258 37.2512C13.4708 37.2588 13.6532 37.1904 13.8204 37.0308C13.9116 36.9396 13.9724 36.8408 14.0028 36.7344C14.0332 36.628 14.0408 36.5216 14.018 36.4152C13.9952 36.3088 13.9496 36.1872 13.8888 36.0352C13.8204 35.868 13.7748 35.7464 13.7672 35.6856C13.7596 35.6172 13.7824 35.564 13.828 35.5108C13.8736 35.4728 13.9192 35.45 13.9876 35.45C14.0484 35.45 14.1092 35.4804 14.1624 35.5336C14.2764 35.6552 14.284 35.8072 14.1852 35.9896L14.6032 36.2024ZM13.7216 37.9428L14.8616 38.8624L15.1352 38.528L14.4056 37.9352L14.778 37.4716L15.3404 37.9276L15.5988 37.6084L15.0364 37.1524L15.386 36.7192L16.1156 37.312L16.374 36.9928L15.234 36.0732L13.7216 37.9428ZM16.7616 39.0448C16.564 39.3032 16.3816 39.3792 16.2144 39.2728C16.1156 39.212 16.0624 39.1132 16.07 38.9916C16.0776 38.8624 16.1612 38.68 16.3208 38.4216C16.4956 38.1404 16.64 37.9656 16.7616 37.9048C16.8756 37.844 16.982 37.8364 17.0808 37.8972C17.2632 38.0112 17.2632 38.2164 17.0808 38.528L17.5064 38.756C17.7952 38.2012 17.7268 37.7984 17.3012 37.5324C17.0428 37.3728 16.792 37.3424 16.5412 37.4488C16.2904 37.5552 16.07 37.7756 15.8572 38.1024C15.652 38.4292 15.5608 38.7256 15.576 38.9992C15.5912 39.2652 15.728 39.478 15.9788 39.6376C16.184 39.7668 16.3968 39.7972 16.6096 39.7364C16.8224 39.6756 17.0048 39.5388 17.1568 39.326L16.7616 39.0448ZM17.6812 39.3868C17.552 39.6756 17.4836 39.896 17.476 40.0328C17.4684 40.1696 17.5064 40.2912 17.59 40.4052C17.6736 40.5192 17.8104 40.618 18.0004 40.7016C18.2056 40.7928 18.388 40.8232 18.54 40.7852C18.692 40.7472 18.8136 40.6788 18.8972 40.5724C18.9808 40.466 19.0796 40.2836 19.186 40.0404L19.7408 38.8016L19.338 38.6192L18.7756 39.8808C18.692 40.0556 18.6388 40.1772 18.5932 40.238C18.5552 40.2988 18.502 40.3368 18.4336 40.3596C18.3652 40.3748 18.2968 40.3672 18.2132 40.3368C18.1372 40.3064 18.084 40.2608 18.046 40.2C18.008 40.1392 18.0004 40.0708 18.0156 39.9948C18.0308 39.9188 18.0764 39.7896 18.16 39.6148L18.7224 38.3532L18.236 38.1404L17.6812 39.3868ZM20.744 39.5236C20.82 39.5464 20.8732 39.5692 20.9112 39.5996C20.9416 39.63 20.972 39.6756 20.9872 39.7288C21.0024 39.7896 20.9948 39.8504 20.9796 39.934C20.9112 40.1544 20.782 40.238 20.5844 40.1848L20.364 40.1164L20.554 39.4704L20.744 39.5236ZM19.4672 41.2564L19.9764 41.4084L20.2424 40.4888L20.4932 40.5648L20.5388 41.568L21.0936 41.7276L20.9644 40.5876C21.2152 40.5344 21.3824 40.3596 21.466 40.0708C21.504 39.9492 21.5116 39.8276 21.4964 39.7212C21.4812 39.6072 21.4432 39.516 21.3824 39.4324C21.3216 39.3488 21.2532 39.2956 21.1848 39.2576C21.1164 39.2196 21.01 39.1816 20.8656 39.1436L20.136 38.9308L19.4672 41.2564ZM21.58 41.8112L22.1044 41.91L22.5452 39.5388L22.0208 39.44L21.58 41.8112ZM22.6668 40.0328L23.1456 40.086L22.9404 42.0316L23.4648 42.0848L23.67 40.1392L24.164 40.1924L24.2096 39.744L22.7124 39.5844L22.6668 40.0328ZM24.8632 41.1348L24.8708 42.1532L25.4028 42.1456L25.3952 41.1272L26.0488 39.7288L25.532 39.7364L25.1748 40.618L24.8252 39.744L24.24 39.7516L24.8632 41.1348ZM27.47 41.0588L27.5308 40.048L27.9412 40.9828L27.47 41.0588ZM26.9304 42.0772L27.4092 41.9936L27.4396 41.4844L28.1084 41.3704L28.3136 41.8416L28.8456 41.7504L27.7588 39.4856L27.2344 39.5768L26.9304 42.0772ZM29.8412 40.5496L30.1832 40.4432C30.2744 40.7472 30.2212 40.9296 30.016 40.998C29.8868 41.036 29.7728 41.0132 29.674 40.922C29.5752 40.8308 29.4764 40.6484 29.3928 40.3672C29.294 40.0556 29.2636 39.8352 29.3016 39.706C29.332 39.5768 29.408 39.4932 29.522 39.4552C29.712 39.3944 29.864 39.516 29.9932 39.8048L30.4264 39.592C30.206 39.0828 29.864 38.9004 29.3852 39.0448C29.0888 39.136 28.8988 39.3184 28.8152 39.5844C28.7316 39.8504 28.7468 40.1772 28.8684 40.5572C28.9748 40.9068 29.142 41.1576 29.3548 41.3172C29.5752 41.4768 29.8108 41.5148 30.0768 41.4312C30.3276 41.3552 30.4796 41.1956 30.5404 40.96L30.6848 41.2032L30.8976 41.1348L30.5176 39.9036L29.7196 40.1544L29.8412 40.5496ZM31.5436 40.8764L32.8812 40.2684L32.6988 39.8732L31.8476 40.2608L31.6044 39.7212L32.2656 39.4172L32.0908 39.0372L31.4296 39.3412L31.194 38.832L32.0452 38.4444L31.8704 38.0644L30.5328 38.6724L31.5436 40.8764ZM33.3372 40.0176L33.6868 39.8048L32.7672 38.3228L34.31 39.4172L34.7128 39.1664L33.4436 37.1144L33.094 37.3272L33.8844 38.604L32.5696 37.654L32.068 37.9656L33.3372 40.0176ZM35.6476 37.3196C35.8224 37.5932 35.8376 37.7908 35.6932 37.9124C35.602 37.9884 35.4956 38.0036 35.3816 37.958C35.2676 37.9124 35.1156 37.768 34.9256 37.54C34.7128 37.2816 34.5988 37.0916 34.576 36.9548C34.5532 36.8256 34.5836 36.7268 34.6672 36.6508C34.8268 36.514 35.032 36.5824 35.2676 36.856L35.6172 36.5216C35.184 36.0656 34.7812 36.0048 34.386 36.324C34.1504 36.514 34.044 36.7496 34.0668 37.0156C34.0896 37.2816 34.2188 37.5704 34.4696 37.8668C34.7128 38.1632 34.9712 38.3532 35.2296 38.4216C35.488 38.49 35.7312 38.4368 35.9668 38.2468C36.1568 38.0948 36.2556 37.9048 36.2632 37.6844C36.2708 37.464 36.2024 37.2436 36.0504 37.0308L35.6476 37.3196ZM36.4456 36.3772L37.1828 37.084L37.5476 36.704L36.8104 35.9972L36.2708 34.5532L35.9136 34.9256L36.2936 35.7996L35.4196 35.4348L35.0168 35.8528L36.4456 36.3772Z" fill="#005288"/>
<path d="M24.9999 11.0616C17.3011 11.0616 11.0615 17.3012 11.0615 25C11.0615 28.6252 12.4447 31.9236 14.7095 34.4012L14.7475 33.9376C12.5815 31.46 11.4035 28.3212 11.4035 25C11.4035 21.3672 12.8171 17.9548 15.3859 15.3784C17.9547 12.8096 21.3671 11.396 24.9999 11.396C28.6327 11.396 32.0451 12.8096 34.6139 15.3784C37.1827 17.9472 38.5963 21.3596 38.5963 25C38.5963 28.6328 37.1827 32.0452 34.6139 34.614C32.0451 37.1828 28.6327 38.5964 24.9999 38.5964C21.6939 38.5964 18.5703 37.426 16.0927 35.2752L15.8495 35.5108C18.2967 37.6388 21.4963 38.9308 24.9999 38.9308C32.6987 38.9308 38.9383 32.6912 38.9383 24.9924C38.9383 17.3012 32.6987 11.0616 24.9999 11.0616Z" fill="#C41230"/>
<path d="M40.3368 28.6176C39.8656 30.6316 38.9992 32.5012 37.8288 34.1352L38.1252 34.3328C39.3108 32.6684 40.1924 30.7684 40.6788 28.724L40.3368 28.6176ZM9.66316 28.6176L9.32116 28.724C9.80756 30.7684 10.6816 32.6684 11.8672 34.3328L12.1636 34.1352C11.0008 32.5012 10.142 30.6316 9.66316 28.6176ZM41.1348 28.8684C40.6332 30.9584 39.7364 32.8964 38.528 34.5988L38.8244 34.7964C40.0556 33.0712 40.9676 31.1028 41.4768 28.9748L41.1348 28.8684ZM8.87276 28.8684L8.53076 28.9748C9.03996 31.0952 9.95196 33.0636 11.1832 34.7964L11.4796 34.5988C10.2636 32.8964 9.36676 30.9584 8.87276 28.8684ZM39.5768 28.3744C39.1284 30.32 38.2924 32.1136 37.1676 33.6868L37.464 33.8844C38.6116 32.2808 39.4552 30.4568 39.9188 28.4808L39.5768 28.3744ZM10.4308 28.3744L10.0888 28.4808C10.5524 30.4568 11.396 32.2884 12.5436 33.8844L12.84 33.6868C11.7076 32.1212 10.8792 30.32 10.4308 28.3744ZM31.8704 23.1076H31.2776L31.574 22.1272L31.8704 23.1076ZM31.8704 23.1076H31.2776L31.574 22.1272L31.8704 23.1076ZM31.5816 22.1272L31.8704 23.1076H31.2776L31.5816 22.1272ZM32.8964 24.1868L32.0224 21.4052H31.27L30.3808 24.1868H30.9508L31.1256 23.6168H32.0224L32.1972 24.1868H32.8964ZM30.2136 23.2976C30.2136 23.138 30.168 22.9936 30.0768 22.8644C29.9856 22.7352 29.8792 22.644 29.7424 22.5832C29.6132 22.5224 29.4004 22.4692 29.1192 22.4084C28.952 22.378 28.838 22.3324 28.7924 22.2868C28.7468 22.2412 28.7164 22.188 28.7164 22.1196C28.7164 21.9524 28.8456 21.8688 29.104 21.8688C29.3472 21.8688 29.4992 21.9828 29.5752 22.2032L30.13 22.0208C29.978 21.5876 29.6208 21.3672 29.0736 21.3672C28.7696 21.3672 28.5188 21.4508 28.344 21.6256C28.1616 21.7928 28.078 22.0056 28.078 22.2488C28.078 22.492 28.154 22.682 28.306 22.8036C28.458 22.9328 28.7088 23.0316 29.066 23.1076C29.256 23.1456 29.3852 23.1912 29.4536 23.2368C29.522 23.2824 29.5524 23.3432 29.5524 23.4268C29.5524 23.5104 29.5144 23.5788 29.446 23.632C29.37 23.6928 29.2636 23.7156 29.1116 23.7156C28.8 23.7156 28.6176 23.5864 28.5492 23.328L27.9488 23.4648C28.0096 23.7232 28.1464 23.9132 28.344 24.0424C28.5416 24.1716 28.7848 24.24 29.0736 24.24C29.4536 24.24 29.7424 24.1488 29.9324 23.9664C30.1148 23.7688 30.2136 23.5484 30.2136 23.2976ZM27.5916 21.4052H26.938V24.1868H27.5916V21.4052ZM24.9088 22.8036C24.9088 22.2032 25.076 21.8992 25.418 21.8992C25.7144 21.8992 25.8664 22.0968 25.874 22.492L26.558 22.4464C26.4744 21.7244 26.0944 21.3672 25.4256 21.3672C25.038 21.3672 24.734 21.504 24.5136 21.77C24.2932 22.036 24.1792 22.378 24.1792 22.8036C24.1792 23.252 24.2932 23.6016 24.5288 23.86C24.7568 24.1184 25.0608 24.24 25.4256 24.24C25.722 24.24 25.9804 24.1564 26.1856 23.9816C26.3908 23.8068 26.52 23.556 26.558 23.2216L25.9272 23.1836C25.8664 23.5332 25.7068 23.708 25.4332 23.708C25.266 23.708 25.1368 23.6472 25.0456 23.518C24.9544 23.3888 24.9088 23.1532 24.9088 22.8036ZM36.1036 21.2228V24.1108C36.1036 24.4072 36.096 24.7036 36.0732 24.9924H22.7732C23.2444 24.3844 23.5028 23.6396 23.5028 22.8568C23.5028 22.15 23.29 21.4888 22.9252 20.9416C24.5668 20.706 26.748 20.4476 28.5416 20.4324C28.6328 20.4324 28.724 20.4324 28.8076 20.4324C32.1592 20.44 35.032 20.9872 36.1036 21.2228ZM31.8704 23.1076H31.2776L31.574 22.1272L31.8704 23.1076ZM31.8704 23.1076H31.2776L31.574 22.1272L31.8704 23.1076ZM33.246 32.1744C33.6032 31.7336 33.93 31.2776 34.2264 30.7988V30.3428H33.246V32.1744ZM32.486 29.1192H32.1136V28.5948C32.1136 28.5644 32.106 28.534 32.0832 28.5036C32.0528 28.458 32.0072 28.4276 31.9464 28.4276C31.8856 28.4276 31.84 28.458 31.8096 28.5036C31.7944 28.534 31.7792 28.5644 31.7792 28.5948V29.1268H31.4068V29.7804H30.8216V34.4696C31.6728 33.854 32.4404 33.1396 33.1092 32.3416V29.7804H32.486V29.1192ZM28.0856 35.5564C28.2376 35.6324 28.3896 35.7008 28.5416 35.7692C28.572 35.754 28.6024 35.7464 28.6252 35.7312V28.7544C28.6252 28.7468 28.6328 28.7392 28.6404 28.7392H28.762C28.7696 28.7392 28.7772 28.7468 28.7772 28.7544V35.6628C28.9444 35.5792 29.1192 35.4956 29.2788 35.412V28.4124C29.2788 28.4048 29.2864 28.3972 29.294 28.3972H29.4156C29.4232 28.3972 29.4308 28.4048 29.4308 28.4124V35.336C29.598 35.2448 29.7728 35.146 29.9324 35.0472V28.762C29.9324 28.7544 29.94 28.7468 29.9476 28.7468H30.0692C30.0768 28.7468 30.0844 28.7544 30.0844 28.762V34.956C30.2896 34.8268 30.4872 34.6976 30.6772 34.5608V27.6448H28.078V35.5564H28.0856ZM27.0596 32.5392C26.9 32.5392 26.7708 32.6988 26.7708 32.904V34.8116C26.9608 34.9332 27.1508 35.0548 27.3484 35.1612V32.8964C27.3484 32.6988 27.2192 32.5392 27.0596 32.5392ZM25.8208 32.904C25.6612 32.904 25.532 33.0636 25.532 33.2688V33.8996C25.722 34.0592 25.912 34.2036 26.102 34.3556V33.2764C26.102 33.0712 25.9804 32.904 25.8208 32.904ZM26.7024 30.13L27.9488 30.738V31.7108C26.5352 31.7564 25.076 32.0908 24.0804 32.4632C23.6244 31.9388 23.2216 31.384 22.8568 30.7912H23.6928L23.8524 28.1236H24.6276L24.7872 30.7912H25.38V30.13L26.71 30.776V30.13H26.7024Z" fill="#0078AE"/>
<path d="M27.7512 30.4948L27.85 30.5404C27.888 30.5176 27.9184 30.5024 27.9564 30.4796V30.3808C27.888 30.4188 27.8196 30.4568 27.7512 30.4948ZM24.9012 30.662H25.1064C25.038 30.6392 24.9696 30.6088 24.9012 30.5784V30.662ZM22.9632 27.584C22.9632 26.7936 23.2444 26.0716 23.708 25.5092H23.6016C23.1532 26.0792 22.8796 26.8012 22.8796 27.584C22.8796 28.382 23.1608 29.1116 23.6244 29.6892L23.632 29.56C23.214 29.0128 22.9632 28.3288 22.9632 27.584ZM28.7696 25.5092C29.218 26.0564 29.4916 26.748 29.5144 27.5004H29.598C29.5828 26.748 29.3168 26.0564 28.876 25.5092H28.7696ZM28.838 27.5004H28.9292C28.9064 26.7024 28.5264 25.988 27.9488 25.5092H27.8044C28.4124 25.9728 28.8152 26.6872 28.838 27.5004ZM23.5408 27.584C23.5408 27.8956 23.594 28.192 23.6928 28.4656L23.708 28.1996C23.6624 28.002 23.632 27.7968 23.632 27.584C23.632 26.7328 24.0424 25.9804 24.6656 25.5092H24.5212C23.9284 26.0032 23.5408 26.7556 23.5408 27.584ZM24.8632 29.8944C24.9848 29.9628 25.1064 30.0312 25.2432 30.0844V29.9856C25.1064 29.9324 24.9848 29.864 24.8556 29.788L24.8632 29.8944ZM27.1812 30.016C27.1888 30.0464 27.1964 30.0768 27.204 30.0996C27.4776 29.9932 27.7284 29.8412 27.9488 29.6588V29.5372C27.7208 29.7424 27.4624 29.902 27.1812 30.016ZM27.0292 29.4992C27.0368 29.5296 27.0444 29.56 27.0596 29.5904C27.4168 29.446 27.7284 29.2028 27.9564 28.9064V28.7468C27.7208 29.0736 27.4016 29.3396 27.0292 29.4992ZM25.4332 29.5904C25.4408 29.56 25.4484 29.5296 25.4636 29.4992C25.2204 29.4004 25 29.256 24.8176 29.0736L24.8252 29.2104C25 29.37 25.2052 29.4992 25.4332 29.5904ZM26.8316 25.5092H25.646C24.7416 25.7676 24.0804 26.6036 24.0804 27.584C24.0804 27.7208 24.0956 27.8576 24.1184 27.9868H24.2172C24.1944 27.8576 24.1792 27.7208 24.1792 27.584C24.1792 26.444 25.1064 25.5168 26.2464 25.5168C27.356 25.5168 28.268 26.3984 28.306 27.5004H28.3972C28.3592 26.558 27.7132 25.76 26.8316 25.5092ZM22.6896 25.5092H22.5908C22.5224 25.6308 22.4616 25.76 22.4008 25.8892V26.102C22.4844 25.8968 22.5756 25.6992 22.6896 25.5092ZM29.788 25.5092C30.13 26.0944 30.3352 26.7784 30.3504 27.5004H30.434C30.4188 26.7784 30.2212 26.0944 29.8868 25.5092H29.788ZM22.2564 28.61L22.188 28.6784C22.3932 29.446 22.8188 30.13 23.3888 30.662H23.5104C22.9024 30.1224 22.4616 29.4156 22.2564 28.61ZM31.0496 25.5092H30.966C31.2472 26.1476 31.4068 26.8468 31.4068 27.584C31.4068 28.3136 31.2548 29.0052 30.9812 29.636H31.0648C31.1484 29.446 31.2168 29.2408 31.2776 29.0432V28.9824H31.2928C31.4144 28.534 31.4828 28.0704 31.4828 27.584C31.4828 26.8468 31.3232 26.1476 31.0496 25.5092ZM34.1504 25.5092H34.0744C34.2492 26.1704 34.348 26.8696 34.348 27.584C34.348 28.496 34.196 29.3776 33.9148 30.206H33.9908C34.272 29.3852 34.424 28.5036 34.424 27.584C34.4164 26.8696 34.3252 26.1704 34.1504 25.5092ZM32.448 25.5092H32.372C32.5924 26.1628 32.714 26.862 32.714 27.584C32.714 28.0628 32.6608 28.534 32.562 28.9824H32.6228V29.0356C32.7292 28.5644 32.79 28.078 32.79 27.5764C32.7824 26.862 32.6684 26.1628 32.448 25.5092ZM26.9608 27.584C26.9608 27.1888 26.634 26.862 26.2388 26.862C25.8436 26.862 25.5168 27.1888 25.5168 27.584C25.5168 27.8348 25.646 28.0552 25.8436 28.1844C25.8588 28.1464 25.8664 28.1084 25.8816 28.0704C25.7296 27.9564 25.6384 27.7816 25.6384 27.584C25.6384 27.2496 25.912 26.976 26.2464 26.976C26.5808 26.976 26.8544 27.2496 26.8544 27.584C26.8544 27.7816 26.7632 27.9564 26.6188 28.0628C26.6264 28.1008 26.6416 28.1388 26.6568 28.1844C26.8316 28.0552 26.9608 27.8348 26.9608 27.584ZM26.7784 27.584C26.7784 27.2724 26.5352 27.0216 26.2388 27.0216C25.9424 27.0216 25.6992 27.2724 25.6992 27.584C25.6992 27.7588 25.7752 27.9108 25.8968 28.0172C25.912 27.9716 25.9196 27.9336 25.9348 27.888C25.8664 27.812 25.8208 27.7056 25.8208 27.584C25.8208 27.3408 26.0108 27.1432 26.2464 27.1432C26.482 27.1432 26.672 27.3408 26.672 27.584C26.672 27.698 26.6264 27.7968 26.558 27.8804C26.5732 27.926 26.5808 27.964 26.596 28.0096C26.7024 27.9108 26.7784 27.7588 26.7784 27.584ZM27.1356 27.584C27.1356 27.09 26.7328 26.6872 26.2388 26.6872C25.7448 26.6872 25.342 27.09 25.342 27.584C25.342 27.9184 25.5244 28.2072 25.7904 28.3592C25.798 28.3212 25.8132 28.2832 25.8208 28.2452C25.6004 28.1084 25.4484 27.8576 25.4484 27.5764C25.4484 27.1432 25.798 26.786 26.2388 26.786C26.672 26.786 27.0216 27.1356 27.0216 27.5764C27.0216 27.8576 26.8772 28.1008 26.6568 28.2376C26.6644 28.2756 26.6796 28.3136 26.6872 28.3516C26.9608 28.2072 27.1356 27.9184 27.1356 27.584ZM27.356 27.584C27.356 26.9684 26.8544 26.4668 26.2388 26.4668C25.6232 26.4668 25.1216 26.9684 25.1216 27.584C25.1216 28.0172 25.3724 28.3896 25.7296 28.5796C25.7372 28.5416 25.7524 28.5112 25.76 28.4732C25.4408 28.2984 25.228 27.9716 25.228 27.584C25.228 27.0292 25.684 26.5732 26.2388 26.5732C26.7936 26.5732 27.2496 27.0292 27.2496 27.584C27.2496 27.964 27.0368 28.2984 26.7252 28.4656C26.7328 28.5036 26.748 28.534 26.7556 28.572C27.1128 28.3896 27.356 28.0172 27.356 27.584ZM27.6296 27.584C27.6296 26.8164 27.0064 26.1932 26.2388 26.1932C25.4712 26.1932 24.848 26.8164 24.848 27.584C24.848 28.1388 25.1748 28.6176 25.6536 28.8456C25.6612 28.8152 25.6764 28.7772 25.684 28.7468C25.2508 28.5416 24.9544 28.1008 24.9544 27.5916C24.9544 26.8848 25.532 26.3072 26.2388 26.3072C26.9456 26.3072 27.5232 26.8848 27.5232 27.5916C27.5232 28.1008 27.2268 28.534 26.8012 28.7468C26.8088 28.7772 26.824 28.8152 26.8316 28.8456C27.3028 28.6176 27.6296 28.1388 27.6296 27.584ZM27.964 27.5004C27.9184 26.5808 27.166 25.8512 26.2388 25.8512C25.2812 25.8512 24.506 26.6264 24.506 27.584C24.506 27.7208 24.5212 27.8576 24.5516 27.9868H24.6504C24.62 27.8576 24.5972 27.7208 24.5972 27.584C24.5972 26.6796 25.3268 25.95 26.2312 25.95C27.128 25.95 27.8652 26.6796 27.8652 27.584C27.8652 28.2452 27.47 28.8228 26.8924 29.0736C26.9 29.104 26.9076 29.1344 26.9228 29.1724C27.4548 28.9368 27.85 28.4428 27.9412 27.85V27.5004H27.964ZM24.7796 28.5188L24.7644 28.2908C24.9316 28.6404 25.2204 28.9216 25.5776 29.0812C25.57 29.1116 25.5624 29.142 25.5472 29.18C25.2356 29.0356 24.962 28.8076 24.7796 28.5188Z" fill="#5E9732"/>
</svg>
