<svg width="50" height="50" viewBox="0 0 50 50" fill="none" xmlns="http://www.w3.org/2000/svg">
<path d="M25 33.1712C17.7368 33.1712 11.8288 27.2632 11.8288 20C11.8288 12.7368 17.7368 6.8288 25 6.8288C32.2632 6.8288 38.1712 12.7368 38.1712 20C38.1712 27.2632 32.2632 33.1712 25 33.1712ZM25 6C17.2776 6 11 12.2776 11 20C11 27.7224 17.2776 34 25 34C32.7224 34 39 27.7224 39 20C39 12.2776 32.7224 6 25 6ZM33.624 19.3504V16.8696C33.624 16.8696 31.0256 16.1976 27.8056 16.1976C27.7384 16.1976 27.6712 16.1976 27.604 16.1976C26.1592 16.2088 24.3896 16.4272 23.1464 16.612C23.6112 17.0768 23.8968 17.7152 23.8968 18.4208C23.8968 19.132 23.6056 19.804 23.0848 20.2912V20.3696H33.1256C32.98 21.7024 32.5544 22.9736 31.8936 24.0992V23.8304H31.076V23.416H30.6168V22.9344H30.516H30.3368V22.6432C30.3368 22.604 30.3256 22.5592 30.3032 22.5256C30.2584 22.4584 30.1912 22.4248 30.1184 22.4248C30.0456 22.4248 29.9728 22.464 29.9336 22.5256C29.9112 22.5648 29.9 22.604 29.9 22.6432V22.9344H29.6256V23.416H29.2896V21.8424H27.1728V24.116L26.5344 23.8024C26.3608 23.2144 26.1872 22.632 26.0192 22.0496C26.0696 22.016 26.0976 21.96 26.0976 21.8984C26.0976 21.7976 26.0136 21.7136 25.9128 21.7136C25.812 21.7136 25.728 21.7976 25.728 21.8984C25.728 21.96 25.7616 22.016 25.8064 22.0496C25.6496 22.5928 25.4872 23.1416 25.3248 23.6904L25.3136 23.6848L25.1736 23.6176V24.1664H24.9272L24.8152 22.2904L24.8096 22.1952H24.0536L24.048 22.2904L23.936 24.1664H23.3536C23.1128 23.7632 22.9 23.3376 22.7208 22.9008L22.3848 23.2368C23.3872 25.5664 25.2632 27.4256 27.5984 28.4112C31.1432 26.9272 33.624 23.4272 33.624 19.3504ZM22.788 22.4024V20.1624C23.2808 19.748 23.6 19.1208 23.6 18.4264C23.6 17.7208 23.2752 17.088 22.7712 16.6736C22.6536 16.5784 22.5248 16.4888 22.3904 16.416C22.0768 16.248 21.7128 16.1528 21.332 16.1528C20.5256 16.1528 19.8144 16.5728 19.4168 17.2056C19.3832 17.256 18.7112 18.4208 18.7112 18.4208L18.6272 19.4176L20.1952 17.7544H20.5592C20.6264 17.5752 20.7944 17.452 20.996 17.452C21.108 17.452 21.2088 17.4912 21.2928 17.5584C21.3544 17.6088 21.4048 17.676 21.4328 17.7544H22.2672C22.3344 17.5752 22.5024 17.452 22.6984 17.452C22.9504 17.452 23.1632 17.6592 23.1632 17.9112C23.1632 18.0736 23.0792 18.2192 22.9504 18.2976C22.956 18.3368 22.956 18.376 22.956 18.4152C22.956 19.0592 22.5696 19.6416 21.9872 19.8992V23.2032L22.788 22.4024ZM22.6928 18.0624C22.7712 18.0624 22.8384 17.9952 22.8384 17.9168C22.8384 17.8384 22.7712 17.7712 22.6928 17.7712C22.6144 17.7712 22.5472 17.8384 22.5472 17.9168C22.5472 18.0008 22.6088 18.0624 22.6928 18.0624ZM20.9904 18.0624C21.0688 18.0624 21.136 17.9952 21.136 17.9168C21.136 17.8384 21.0688 17.7712 20.9904 17.7712C20.912 17.7712 20.8448 17.8384 20.8448 17.9168C20.8448 18.0008 20.9064 18.0624 20.9904 18.0624ZM20.1616 21.5288C20.24 21.5288 20.3072 21.4616 20.3072 21.3832C20.3072 21.3048 20.24 21.2376 20.1616 21.2376C20.0832 21.2376 20.016 21.3048 20.016 21.3832C20.016 21.4616 20.0832 21.5288 20.1616 21.5288ZM20.1616 23.2928C20.24 23.2928 20.3072 23.2256 20.3072 23.1472C20.3072 23.0688 20.24 23.0016 20.1616 23.0016C20.0832 23.0016 20.016 23.0688 20.016 23.1472C20.016 23.2256 20.0832 23.2928 20.1616 23.2928ZM21.7688 19.6528C22.284 19.468 22.6312 18.9752 22.6312 18.4264C22.6312 18.4096 22.6312 18.3928 22.6312 18.376C22.4576 18.3536 22.3176 18.236 22.2616 18.0736H21.4272C21.3992 18.152 21.3488 18.2192 21.2872 18.2696C21.2088 18.3368 21.1024 18.376 20.9904 18.376C20.7888 18.376 20.6208 18.2472 20.5536 18.0736H20.324L19.8592 18.5608V20.1568L18.42 21.6744L18.2968 23.108L19.7528 21.5904C19.7192 21.5288 19.7024 21.456 19.7024 21.3832C19.7024 21.1256 19.9096 20.9184 20.1672 20.9184C20.4248 20.9184 20.6264 21.1256 20.6264 21.3832C20.6264 21.6352 20.4192 21.848 20.1672 21.848C20.1 21.848 20.0384 21.8368 19.9824 21.8088L18.2632 23.6232L18.14 25.0568L19.7528 23.3544C19.7192 23.2928 19.7024 23.22 19.7024 23.1472C19.7024 22.8952 19.9096 22.6824 20.1672 22.6824C20.4248 22.6824 20.6264 22.8896 20.6264 23.1472C20.6264 23.3992 20.4192 23.612 20.1672 23.612C20.1 23.612 20.0384 23.6008 19.9824 23.5728L18.1008 25.572L17.9552 27.2296L21.6624 23.528V19.692L21.7688 19.6528ZM18.4704 21.176L19.5456 20.0392V18.9024L18.5768 19.9272L18.4704 21.176ZM20.2232 12.2552L22.3456 13.3976L21.1192 14.6576L22.0264 14.624L21.2816 15.8616C21.2984 15.8616 21.3152 15.8616 21.332 15.8616C21.892 15.8616 22.4128 16.0408 22.8328 16.3488C23.8128 16.1976 25.2072 16.0128 26.5232 15.9288C26.5176 15.9232 26.5176 15.912 26.512 15.9064C26.4952 15.8672 26.4728 15.828 26.456 15.7888C26.428 15.7272 26.3944 15.6712 26.3664 15.6096C26.3272 15.5312 26.288 15.4528 26.2488 15.3744C26.204 15.2792 26.1536 15.1896 26.1088 15.0944C26.0584 14.988 26.0024 14.8816 25.952 14.7808C25.952 14.7808 26.1816 14.4672 26.624 14.3328C27.0328 14.2096 27.4864 14.3328 27.7496 14.6856C27.8336 14.7976 27.8952 14.9264 27.8952 15.0608C27.8952 15.0608 28.5952 14.008 28.4272 13.4032C28.2592 12.7984 26.9208 12.8656 26.9208 12.8656H26.4728L26.0696 12.44C25.9632 12.328 25.812 12.2608 25.6608 12.2608H20.2232V12.2552ZM34.5368 20C34.5368 25.264 30.2696 29.5312 25 29.5312C23.8968 29.5312 22.8384 29.3464 21.8528 28.9992C21.8528 28.9992 23.6952 27.532 24.4736 26.7424C23.9304 26.2272 23.4432 25.656 23.0176 25.0288C22.6816 24.536 22.396 24.0152 22.1552 23.4776L17.5856 28.0416L17.7424 26.1824C16.3256 24.5192 15.4688 22.3576 15.4688 20C15.4688 14.736 19.736 10.4632 25 10.4632C30.2696 10.4632 34.5368 14.736 34.5368 20ZM26.0304 12.8768L25.7224 13.0504L25.5488 13.2856C25.4536 13.2408 25.196 13.1344 24.9664 13.0448C24.7312 12.9552 24.4064 12.8544 24.4064 12.8544C25.0112 12.86 25.1568 12.8656 25.1792 12.8656H25.1848C25.2128 12.8656 25.3584 12.8656 26.0304 12.8768ZM26.2656 23.6792L26.2992 23.696L26.344 23.7184L26.3272 23.6456L26.2656 23.6792ZM25.9184 23.7352L26.2824 23.528L25.924 23.2424L25.56 23.528L25.9184 23.7352ZM26.1648 23.0464L26.0192 23.1584L26.2376 23.332L26.1648 23.0464ZM25.8176 23.9368L26.1592 24.0992V24.0152L25.9184 23.8752L25.8176 23.9368ZM26.1536 23.8696V23.7352L26.0416 23.8024L26.1536 23.8696ZM25.7056 22.9176L25.9184 23.0856L26.1256 22.9232L25.9184 22.1336L25.7056 22.9176ZM25.5936 23.3376L25.8176 23.164L25.672 23.052L25.5936 23.3376ZM25.476 23.7688L25.6776 23.8696L25.7896 23.808L25.5096 23.6456L25.476 23.7688ZM24.692 25.9024C24.8824 26.0984 25.084 26.2888 25.2912 26.468V26.0928C25.2912 25.8912 25.4312 25.7288 25.5992 25.7288C25.7728 25.7288 25.9072 25.8912 25.9072 26.0928V26.9608C26.0024 27.028 26.1032 27.1008 26.1984 27.1624V25.8184C26.1984 25.6168 26.3384 25.4544 26.5064 25.4544C26.68 25.4544 26.82 25.6168 26.82 25.8184V27.5432C26.932 27.6104 27.0496 27.672 27.1672 27.728V25.2528C26.0696 25.3088 25.2408 25.6112 24.692 25.9024ZM25.7896 25.2024C26.232 25.1184 26.708 25.0568 27.1728 25.0456V25.152C26.0304 25.208 25.1792 25.5216 24.6192 25.824C24.5408 25.7456 24.468 25.6616 24.3952 25.5776C24.7816 25.4376 25.2632 25.3032 25.7896 25.2024ZM13.5648 20.6216L13.5592 20.2576C13.7552 20.2576 13.912 20.3024 14.0464 20.4032C14.1752 20.504 14.248 20.644 14.2648 20.8232C14.2816 21.0416 14.2144 21.2152 14.0632 21.344C13.912 21.4728 13.6936 21.5456 13.408 21.568C13.1224 21.5904 12.8928 21.5512 12.7192 21.4504C12.5456 21.3496 12.456 21.1872 12.4336 20.9632C12.4056 20.5936 12.6184 20.3752 13.072 20.3024L13.128 20.6552C12.8648 20.6832 12.7416 20.7784 12.7528 20.9352C12.7584 21.0192 12.8088 21.0808 12.8984 21.12C12.988 21.1592 13.156 21.1704 13.3968 21.1536C13.6152 21.1368 13.7664 21.1032 13.8448 21.0528C13.9232 21.0024 13.9568 20.9296 13.9512 20.8456C13.9288 20.7 13.8056 20.6272 13.5648 20.6216ZM13.4472 19.7984L14.1976 19.8264L14.2088 19.4344L13.4584 19.4064L12.4504 18.8744L12.4392 19.2552L13.0776 19.5464L12.4224 19.776L12.4056 20.2072L13.4472 19.7984ZM13.5312 18.4096L13.5592 18.2192C13.5704 18.1296 13.5984 18.068 13.6432 18.0288C13.6824 17.9896 13.7496 17.9784 13.8336 17.9896C13.9848 18.012 14.052 18.1128 14.024 18.292L13.996 18.4824L13.5312 18.4096ZM12.8256 18.2976L12.848 18.1464C12.8648 18.04 12.8984 17.9728 12.9432 17.9504C12.988 17.9224 13.0384 17.9168 13.0944 17.9224C13.1504 17.9336 13.2008 17.956 13.24 17.9952C13.2792 18.0344 13.2904 18.1184 13.268 18.2416L13.2456 18.3648L12.8256 18.2976ZM14.2424 18.9024L14.3376 18.3032C14.36 18.1576 14.3656 18.04 14.3488 17.956C14.3376 17.872 14.2928 17.7992 14.22 17.732C14.1472 17.6648 14.0576 17.6256 13.9456 17.6032C13.7272 17.5696 13.5704 17.648 13.4696 17.8328C13.4416 17.6592 13.324 17.5528 13.128 17.5248C13.016 17.508 12.9152 17.5192 12.8368 17.5528C12.7528 17.592 12.6968 17.6424 12.6632 17.7096C12.6296 17.7768 12.6016 17.8832 12.5792 18.0232L12.484 18.6224L14.2424 18.9024ZM14.4888 17.4744L14.7856 16.4328L14.4776 16.3432L14.2872 17.0096L13.8672 16.8864L14.0128 16.3712L13.7216 16.2872L13.576 16.8024L13.1784 16.6904L13.3688 16.024L13.0776 15.94L12.7808 16.9816L14.4888 17.4744ZM13.6712 15.2176C13.6936 15.1616 13.716 15.128 13.744 15.1056C13.7664 15.0832 13.8 15.0664 13.8448 15.0608C13.8896 15.0552 13.94 15.0608 13.9904 15.0888C14.1472 15.156 14.1976 15.2568 14.136 15.4024L14.0688 15.5592L13.6096 15.3632L13.6712 15.2176ZM14.836 16.304L14.9872 15.9456L14.3376 15.6712L14.416 15.492L15.1552 15.548L15.3232 15.156H14.4776C14.4608 14.9656 14.3488 14.8312 14.1416 14.7416C14.052 14.7024 13.968 14.6856 13.884 14.6856C13.8 14.6856 13.7272 14.708 13.6656 14.7416C13.604 14.7808 13.5536 14.82 13.52 14.8704C13.4864 14.9208 13.4528 14.9936 13.408 15.0944L13.1896 15.6096L14.836 16.304ZM14.7408 13.3808C14.4608 13.308 14.248 13.4032 14.0912 13.672C14.0072 13.8176 13.9792 13.9632 14.0184 14.1032C14.0576 14.2432 14.1416 14.3552 14.2816 14.4336C14.3656 14.4784 14.444 14.5064 14.5336 14.5008C14.6176 14.5008 14.696 14.4784 14.7632 14.4448C14.8304 14.4056 14.92 14.3384 15.032 14.2488C15.116 14.176 15.1832 14.1368 15.228 14.1256C15.2728 14.12 15.312 14.1256 15.3512 14.148C15.4016 14.176 15.4296 14.2208 15.4408 14.2712C15.452 14.3272 15.4352 14.3832 15.4016 14.4392C15.3288 14.568 15.2 14.6072 15.0264 14.5512L14.9368 14.8984C15.2616 14.9824 15.508 14.8872 15.6704 14.6072C15.7656 14.4392 15.7992 14.2824 15.7656 14.1312C15.732 13.98 15.6424 13.8624 15.4968 13.7784C15.4128 13.7336 15.3344 13.7056 15.2504 13.7056C15.1664 13.7056 15.0936 13.7224 15.0208 13.756C14.9536 13.7896 14.8696 13.8512 14.7744 13.924C14.668 14.008 14.5952 14.0584 14.5448 14.0808C14.5 14.0976 14.4552 14.0976 14.4104 14.0696C14.3712 14.0472 14.3488 14.0136 14.3376 13.9688C14.3264 13.924 14.3376 13.8736 14.3656 13.8288C14.4272 13.7224 14.5336 13.6888 14.6848 13.7224L14.7408 13.3808ZM16.0792 13.896L16.7288 13.028L16.4768 12.8376L16.0624 13.392L15.7096 13.1288L16.0344 12.6976L15.788 12.5128L15.4632 12.944L15.1328 12.6976L15.5472 12.1432L15.3008 11.9584L14.6512 12.8264L16.0792 13.896ZM16.9528 11.852C17.1096 12.0368 17.1376 12.1768 17.0368 12.2832C16.9752 12.3448 16.9024 12.3672 16.8072 12.3448C16.7176 12.3224 16.5944 12.2328 16.4376 12.0816C16.2584 11.9136 16.1576 11.7792 16.1296 11.684C16.1016 11.5888 16.1184 11.516 16.1744 11.4544C16.2808 11.3424 16.432 11.376 16.6336 11.5496L16.8632 11.2752C16.5104 10.9784 16.2024 10.9672 15.9448 11.236C15.788 11.3984 15.732 11.5776 15.7712 11.7736C15.8104 11.9696 15.9336 12.1656 16.1408 12.3672C16.348 12.5632 16.5496 12.6808 16.7456 12.7088C16.9416 12.7368 17.1152 12.6752 17.2664 12.5184C17.3896 12.3896 17.4456 12.244 17.4344 12.076C17.4232 11.9136 17.3504 11.7624 17.2216 11.6168L16.9528 11.852ZM17.3224 11.3312C17.468 11.516 17.5856 11.6336 17.6752 11.684C17.7648 11.7344 17.86 11.7512 17.9608 11.7344C18.0616 11.7176 18.1736 11.6616 18.2968 11.5664C18.4256 11.4656 18.504 11.3536 18.5376 11.2416C18.5656 11.1296 18.56 11.0232 18.5152 10.9336C18.4704 10.844 18.3864 10.7208 18.2632 10.564L17.636 9.78L17.3784 9.9816L18.0168 10.7768C18.1064 10.8888 18.1624 10.9672 18.1904 11.0176C18.2184 11.0624 18.224 11.1128 18.2128 11.1632C18.2016 11.2136 18.1736 11.2584 18.1232 11.2976C18.0784 11.3368 18.028 11.3536 17.9776 11.3592C17.9272 11.3648 17.8768 11.348 17.832 11.3088C17.7872 11.2752 17.72 11.1968 17.6304 11.0848L16.9976 10.2896L16.6896 10.536L17.3224 11.3312ZM18.6776 9.4552C18.728 9.4272 18.7672 9.4104 18.8008 9.4048C18.8344 9.3992 18.868 9.4104 18.9072 9.4328C18.9464 9.4552 18.98 9.4888 19.0136 9.5392C19.1032 9.6848 19.0808 9.7968 18.9464 9.8752L18.8008 9.9648L18.5432 9.5336L18.6776 9.4552ZM18.9744 11.0176L19.3104 10.816L18.9464 10.2112L19.1144 10.1104L19.68 10.592L20.044 10.3736L19.3608 9.8752C19.456 9.7128 19.4504 9.5336 19.3328 9.3432C19.2824 9.2592 19.2264 9.1976 19.1592 9.1472C19.092 9.0968 19.0192 9.0688 18.9464 9.0632C18.8736 9.0576 18.8064 9.0632 18.756 9.0856C18.7 9.108 18.6272 9.1472 18.532 9.2032L18.0504 9.4888L18.9744 11.0176ZM20.2064 10.3176L20.5592 10.1496L19.7976 8.5424L19.4448 8.7104L20.2064 10.3176ZM20.1336 8.744L20.464 8.6152L20.9792 9.9704L21.3432 9.8304L20.828 8.4752L21.1696 8.3464L21.052 8.0328L20.016 8.4248L20.1336 8.744ZM21.9256 8.856L22.1104 9.584L22.4912 9.4888L22.3064 8.7608L22.5304 7.6408L22.1608 7.736L22.06 8.4304L21.6568 7.8648L21.2368 7.9712L21.9256 8.856ZM24.048 8.0776C23.964 7.9768 23.9192 7.8928 23.9136 7.8312C23.908 7.792 23.9192 7.7584 23.9416 7.7304C23.964 7.7024 23.9976 7.6856 24.0424 7.6856C24.0872 7.68 24.1264 7.6912 24.1488 7.7192C24.1768 7.7472 24.188 7.7808 24.1936 7.82C24.1992 7.9264 24.1544 8.0104 24.048 8.0776ZM24.2776 8.8504C24.2104 8.9232 24.132 8.968 24.0368 8.9736C23.9584 8.9792 23.8912 8.9624 23.8464 8.9176C23.796 8.8728 23.7736 8.8112 23.768 8.7384C23.7568 8.6208 23.8128 8.52 23.9248 8.4416L24.2776 8.8504ZM24.5968 8.1784C24.5744 8.352 24.5352 8.4808 24.4904 8.5816L24.2216 8.2736C24.4176 8.1504 24.5072 8.0048 24.496 7.8256C24.4848 7.708 24.44 7.6072 24.3504 7.5344C24.2608 7.4616 24.1488 7.428 24.0088 7.4392C23.8688 7.4504 23.7624 7.4952 23.6784 7.5848C23.5944 7.6688 23.5608 7.764 23.5664 7.8704C23.5776 7.9824 23.6392 8.1112 23.7624 8.2568C23.5048 8.3912 23.3816 8.5704 23.3984 8.8C23.4096 8.94 23.4656 9.0576 23.5608 9.1584C23.6616 9.2592 23.8072 9.2984 24.0032 9.2816C24.1824 9.2704 24.3392 9.1976 24.4736 9.0688C24.5912 9.1752 24.7088 9.22 24.832 9.2088C24.8712 9.2032 24.916 9.1976 24.9664 9.1808L24.944 8.8784C24.9104 8.884 24.8936 8.884 24.8824 8.884C24.8208 8.8896 24.7592 8.8616 24.692 8.8C24.7928 8.6208 24.86 8.4248 24.888 8.212L24.5968 8.1784ZM25.6384 9.2144L26.0304 9.2424L26.1648 7.4672L25.7728 7.4392L25.6384 9.2144ZM26.3048 9.2592L26.6016 9.3096L26.8256 8.0384L27.1336 9.4048L27.4808 9.4664L27.7888 7.7136L27.492 7.6632L27.3016 8.7496L27.044 7.5792L26.6184 7.5008L26.3048 9.2592ZM27.744 9.5392L28.1192 9.6512L28.3264 8.9792L28.8192 9.1304L28.9088 8.8392L28.416 8.688L28.5504 8.24L29.1888 8.436L29.2784 8.1448L28.2648 7.8368L27.744 9.5392ZM29.9224 8.7328C29.9784 8.7552 30.012 8.7776 30.0344 8.8056C30.0568 8.828 30.068 8.8616 30.0736 8.9064C30.0792 8.9512 30.068 9.0016 30.0456 9.052C29.9784 9.2088 29.872 9.2592 29.732 9.1976L29.5752 9.1304L29.7768 8.6712L29.9224 8.7328ZM28.8192 9.8808L29.1776 10.0376L29.4632 9.3936L29.6424 9.472L29.5752 10.2112L29.9672 10.3848L29.9784 9.5392C30.1688 9.5224 30.3088 9.416 30.3984 9.2088C30.4376 9.1192 30.4544 9.0352 30.4544 8.9512C30.4544 8.8672 30.4376 8.7944 30.3984 8.7328C30.3592 8.6712 30.32 8.6208 30.2696 8.5872C30.2192 8.5536 30.1464 8.5144 30.0456 8.4752L29.5304 8.2512L28.8192 9.8808ZM30.8744 10.144L31.4064 9.6176L31.1712 10.3344L30.8744 10.144ZM30.0792 10.4352L30.3872 10.6256L30.656 10.3568L31.0816 10.62L30.964 10.9784L31.3056 11.1912L31.8152 9.4104L31.4792 9.2032L30.0792 10.4352ZM33.092 10.8664C33.204 10.6032 33.1424 10.3736 32.9016 10.1776C32.7672 10.0712 32.6328 10.0264 32.4872 10.0376C32.3416 10.0544 32.2184 10.1216 32.1176 10.2448C32.056 10.3176 32.0224 10.396 32.0112 10.48C32 10.564 32.0056 10.6424 32.0336 10.7152C32.0616 10.788 32.112 10.8888 32.1904 11.012C32.2464 11.1072 32.28 11.18 32.28 11.2248C32.28 11.2696 32.2688 11.3088 32.2408 11.3424C32.2072 11.3872 32.1568 11.4096 32.1064 11.4096C32.0504 11.4096 32 11.3872 31.944 11.348C31.8264 11.2528 31.8096 11.124 31.888 10.9616L31.5632 10.8216C31.4288 11.1296 31.4848 11.3872 31.7368 11.5888C31.888 11.712 32.0392 11.7624 32.196 11.7512C32.3528 11.74 32.4816 11.6672 32.588 11.5384C32.6496 11.4656 32.6832 11.3872 32.7 11.3032C32.7168 11.2192 32.7056 11.1464 32.6832 11.068C32.6608 10.9952 32.616 10.9056 32.5544 10.7992C32.4872 10.6816 32.448 10.5976 32.4368 10.5528C32.4256 10.5024 32.4368 10.4632 32.4648 10.424C32.4928 10.3904 32.5264 10.3736 32.5768 10.368C32.6216 10.3624 32.6664 10.3792 32.7112 10.4128C32.8064 10.4912 32.8288 10.5976 32.7672 10.7432L33.092 10.8664ZM33.3104 10.9896L33.5624 11.2416L32.532 12.2608L32.8064 12.5408L33.8368 11.5216L34.0944 11.7792L34.3296 11.544L33.5456 10.7544L33.3104 10.9896ZM34.632 12.3672C34.6656 12.412 34.688 12.4512 34.6992 12.4848C34.7048 12.5184 34.7048 12.552 34.688 12.5968C34.6712 12.636 34.6432 12.6752 34.5928 12.7144C34.4584 12.8208 34.3464 12.8152 34.2512 12.692L34.1448 12.5576L34.5368 12.2496L34.632 12.3672ZM33.1256 12.86L33.3664 13.168L33.9208 12.7312L34.044 12.8824L33.6408 13.504L33.904 13.84L34.3128 13.1008C34.4864 13.1736 34.66 13.1456 34.8392 13.0056C34.912 12.944 34.968 12.8824 35.0072 12.8096C35.0464 12.7368 35.0632 12.664 35.0632 12.5912C35.0632 12.5184 35.0464 12.4568 35.0184 12.4008C34.9904 12.3504 34.94 12.2832 34.8728 12.1936L34.5256 11.7568L33.1256 12.86ZM34.6264 13.5656C34.4248 13.6888 34.2904 13.7896 34.2288 13.868C34.1672 13.9464 34.1392 14.0416 34.1392 14.1424C34.1392 14.2432 34.1784 14.3608 34.2624 14.4952C34.3464 14.6352 34.4416 14.7304 34.5536 14.7752C34.66 14.82 34.7664 14.8256 34.8616 14.7976C34.9568 14.764 35.0912 14.7024 35.2648 14.596L36.1272 14.0808L35.9592 13.8008L35.0856 14.3216C34.9624 14.3944 34.8728 14.4448 34.8224 14.4616C34.772 14.4784 34.7216 14.484 34.6768 14.4672C34.632 14.4504 34.5872 14.4168 34.5536 14.3608C34.52 14.3104 34.5088 14.26 34.5144 14.2096C34.52 14.1592 34.5424 14.1144 34.5816 14.0752C34.6208 14.036 34.7048 13.98 34.828 13.9072L35.7016 13.3864L35.5 13.0504L34.6264 13.5656ZM35.6512 15.7888C35.4216 15.8616 35.2816 15.828 35.2256 15.6992C35.192 15.6152 35.2032 15.5424 35.2592 15.4696C35.3152 15.3968 35.4496 15.3184 35.6512 15.2288C35.8752 15.1336 36.0376 15.0888 36.1384 15.1C36.2336 15.1112 36.3008 15.156 36.3344 15.2288C36.396 15.3744 36.3064 15.4976 36.0656 15.6096L36.228 15.9288C36.6368 15.716 36.7712 15.4416 36.6256 15.1C36.536 14.8928 36.396 14.7696 36.2 14.7304C36.004 14.6912 35.7744 14.7248 35.5112 14.8368C35.248 14.9488 35.0632 15.0888 34.9624 15.2568C34.856 15.4248 34.8504 15.6096 34.9344 15.8112C35.0072 15.9792 35.1192 16.0856 35.2704 16.1416C35.4272 16.192 35.5952 16.192 35.7744 16.1248L35.6512 15.7888ZM36.5696 15.94L36.6704 16.2816L35.2816 16.696L35.3936 17.0712L36.7824 16.6568L36.8888 17.004L37.208 16.9088L36.8888 15.8448L36.5696 15.94ZM36.2784 17.368C36.0432 17.4072 35.8864 17.4576 35.8024 17.508C35.7184 17.5584 35.6568 17.6368 35.6232 17.732C35.5896 17.8272 35.584 17.9504 35.612 18.1072C35.64 18.2696 35.696 18.3928 35.7856 18.4712C35.8696 18.5496 35.9648 18.5944 36.0656 18.6C36.1664 18.6056 36.3176 18.5888 36.5136 18.5552L37.4992 18.3816L37.4432 18.0568L36.4408 18.236C36.3008 18.264 36.2 18.2752 36.1496 18.2752C36.0936 18.2752 36.0488 18.2584 36.0096 18.2304C35.9704 18.1968 35.948 18.152 35.9368 18.0848C35.9256 18.0232 35.9312 17.9728 35.9536 17.928C35.976 17.8832 36.0152 17.8496 36.0656 17.8272C36.1216 17.8048 36.2168 17.7824 36.3568 17.7544L37.3592 17.5752L37.292 17.1888L36.2784 17.368ZM37.2752 19.4568C37.2752 19.5128 37.2752 19.5576 37.2584 19.5912C37.2472 19.6192 37.2192 19.6472 37.1856 19.6752C37.1464 19.6976 37.1016 19.7144 37.04 19.7144C36.8664 19.72 36.7824 19.6472 36.7712 19.496L36.7656 19.3224L37.264 19.3L37.2752 19.4568ZM35.7632 18.9752L35.78 19.3672L36.4856 19.3392L36.4912 19.5352L35.7968 19.804L35.8136 20.2296L36.5808 19.8712C36.676 20.0336 36.8384 20.112 37.0624 20.1008C37.1576 20.0952 37.2416 20.0784 37.3144 20.0392C37.3872 20 37.4488 19.9552 37.488 19.8936C37.5272 19.832 37.5552 19.7704 37.5608 19.7144C37.5664 19.6584 37.572 19.5744 37.5664 19.4624L37.544 18.9024L35.7632 18.9752ZM35.8024 20.3752L35.7184 21.456L36.0376 21.4784L36.0936 20.7896L36.5304 20.8232L36.4912 21.3608L36.7936 21.3832L36.8328 20.8456L37.2472 20.8792L37.1912 21.568L37.4936 21.5904L37.5776 20.5096L35.8024 20.3752ZM17.3392 28.2544C17.4848 28.008 17.4512 27.7728 17.2328 27.5488C17.1152 27.4256 16.9808 27.364 16.8408 27.364C16.6952 27.364 16.5664 27.4144 16.4544 27.5264C16.3872 27.5936 16.3424 27.6664 16.32 27.7504C16.2976 27.8344 16.2976 27.9128 16.3144 27.9856C16.3312 28.0584 16.3704 28.1648 16.432 28.2936C16.4768 28.3944 16.4992 28.4672 16.4936 28.5176C16.488 28.5624 16.4712 28.6016 16.4432 28.6296C16.404 28.6688 16.3536 28.6856 16.2976 28.68C16.2416 28.6744 16.1912 28.6464 16.1464 28.596C16.0456 28.4896 16.04 28.3608 16.1408 28.204L15.8328 28.0248C15.6592 28.316 15.6872 28.5792 15.9112 28.8088C16.0456 28.9488 16.1912 29.0216 16.348 29.0272C16.5048 29.0328 16.6392 28.9824 16.7624 28.8648C16.8296 28.7976 16.8744 28.7248 16.8968 28.6464C16.9192 28.568 16.9248 28.4896 16.908 28.4112C16.8912 28.3328 16.8576 28.2432 16.8128 28.1312C16.7624 28.008 16.7288 27.9184 16.7232 27.8736C16.7176 27.8232 16.7344 27.784 16.768 27.7448C16.8016 27.7168 16.8352 27.7 16.8856 27.7C16.9304 27.7 16.9752 27.7224 17.0144 27.7616C17.0984 27.8512 17.104 27.9632 17.0312 28.0976L17.3392 28.2544ZM16.6896 29.5368L17.5296 30.2144L17.7312 29.968L17.1936 29.5312L17.468 29.1896L17.8824 29.5256L18.0728 29.2904L17.6584 28.9544L17.916 28.6352L18.4536 29.072L18.644 28.8368L17.804 28.1592L16.6896 29.5368ZM18.9296 30.3488C18.784 30.5392 18.6496 30.5952 18.5264 30.5168C18.4536 30.472 18.4144 30.3992 18.42 30.3096C18.4256 30.2144 18.4872 30.08 18.6048 29.8896C18.7336 29.6824 18.84 29.5536 18.9296 29.5088C19.0136 29.464 19.092 29.4584 19.1648 29.5032C19.2992 29.5872 19.2992 29.7384 19.1648 29.968L19.4784 30.136C19.6912 29.7272 19.6408 29.4304 19.3272 29.2344C19.1368 29.1168 18.952 29.0944 18.7672 29.1728C18.5824 29.2512 18.42 29.4136 18.2632 29.6544C18.112 29.8952 18.0448 30.1136 18.056 30.3152C18.0672 30.5112 18.168 30.668 18.3528 30.7856C18.504 30.8808 18.6608 30.9032 18.8176 30.8584C18.9744 30.8136 19.1088 30.7128 19.2208 30.556L18.9296 30.3488ZM19.6072 30.6008C19.512 30.8136 19.4616 30.976 19.456 31.0768C19.4504 31.1776 19.4784 31.2672 19.54 31.3512C19.6016 31.4352 19.7024 31.508 19.8424 31.5696C19.9936 31.6368 20.128 31.6592 20.24 31.6312C20.352 31.6032 20.4416 31.5528 20.5032 31.4744C20.5648 31.396 20.6376 31.2616 20.716 31.0824L21.1248 30.1696L20.828 30.0352L20.4136 30.9648C20.352 31.0936 20.3128 31.1832 20.2792 31.228C20.2512 31.2728 20.212 31.3008 20.1616 31.3176C20.1112 31.3288 20.0608 31.3232 19.9992 31.3008C19.9432 31.2784 19.904 31.2448 19.876 31.2C19.848 31.1552 19.8424 31.1048 19.8536 31.0488C19.8648 30.9928 19.8984 30.8976 19.96 30.7688L20.3744 29.8392L20.016 29.6824L19.6072 30.6008ZM21.864 30.7016C21.92 30.7184 21.9592 30.7352 21.9872 30.7576C22.0096 30.78 22.032 30.8136 22.0432 30.8528C22.0544 30.8976 22.0488 30.9424 22.0376 31.004C21.9872 31.1664 21.892 31.228 21.7464 31.1888L21.584 31.1384L21.724 30.6624L21.864 30.7016ZM20.9232 31.9784L21.2984 32.0904L21.4944 31.4128L21.6792 31.4688L21.7128 32.208L22.1216 32.3256L22.0264 31.4856C22.2112 31.4464 22.3344 31.3176 22.396 31.1048C22.424 31.0152 22.4296 30.9256 22.4184 30.8472C22.4072 30.7632 22.3792 30.696 22.3344 30.6344C22.2896 30.5728 22.2392 30.5336 22.1888 30.5056C22.1384 30.4776 22.06 30.4496 21.9536 30.4216L21.416 30.2648L20.9232 31.9784ZM22.48 32.3872L22.8664 32.46L23.1912 30.7128L22.8048 30.64L22.48 32.3872ZM23.2808 31.0768L23.6336 31.116L23.4824 32.5496L23.8688 32.5888L24.02 31.1552L24.384 31.1944L24.4176 30.864L23.3144 30.7464L23.2808 31.0768ZM24.8992 31.8888L24.9048 32.6392L25.2968 32.6336L25.2912 31.8832L25.7728 30.8528L25.392 30.8584L25.1288 31.508L24.8712 30.864L24.44 30.8696L24.8992 31.8888ZM26.82 31.8328L26.8648 31.088L27.1672 31.7768L26.82 31.8328ZM26.4224 32.5832L26.7752 32.5216L26.7976 32.1464L27.2904 32.0624L27.4416 32.4096L27.8336 32.3424L27.0328 30.6736L26.6464 30.7408L26.4224 32.5832ZM28.5672 31.4576L28.8192 31.3792C28.8864 31.6032 28.8472 31.7376 28.696 31.788C28.6008 31.816 28.5168 31.7992 28.444 31.732C28.3712 31.6648 28.2984 31.5304 28.2368 31.3232C28.164 31.0936 28.1416 30.9312 28.1696 30.836C28.192 30.7408 28.248 30.6792 28.332 30.6512C28.472 30.6064 28.584 30.696 28.6792 30.9088L28.9984 30.752C28.836 30.3768 28.584 30.2424 28.2312 30.3488C28.0128 30.416 27.8728 30.5504 27.8112 30.7464C27.7496 30.9424 27.7608 31.1832 27.8504 31.4632C27.9288 31.7208 28.052 31.9056 28.2088 32.0232C28.3712 32.1408 28.5448 32.1688 28.7408 32.1072C28.9256 32.0512 29.0376 31.9336 29.0824 31.76L29.1888 31.9392L29.3456 31.8888L29.0656 30.9816L28.4776 31.1664L28.5672 31.4576ZM29.8216 31.6984L30.8072 31.2504L30.6728 30.9592L30.0456 31.2448L29.8664 30.8472L30.3536 30.6232L30.2248 30.3432L29.7376 30.5672L29.564 30.192L30.1912 29.9064L30.0624 29.6264L29.0768 30.0744L29.8216 31.6984ZM31.1432 31.0656L31.4008 30.9088L30.7232 29.8168L31.86 30.6232L32.1568 30.4384L31.2216 28.9264L30.964 29.0832L31.5464 30.024L30.5776 29.324L30.208 29.5536L31.1432 31.0656ZM32.8456 29.0776C32.9744 29.2792 32.9856 29.4248 32.8792 29.5144C32.812 29.5704 32.7336 29.5816 32.6496 29.548C32.5656 29.5144 32.4536 29.408 32.3136 29.24C32.1568 29.0496 32.0728 28.9096 32.056 28.8088C32.0392 28.7136 32.0616 28.6408 32.1232 28.5848C32.2408 28.484 32.392 28.5344 32.5656 28.736L32.8232 28.4896C32.504 28.1536 32.2072 28.1088 31.916 28.344C31.7424 28.484 31.664 28.6576 31.6808 28.8536C31.6976 29.0496 31.7928 29.2624 31.9776 29.4808C32.1568 29.6992 32.3472 29.8392 32.5376 29.8896C32.728 29.94 32.9072 29.9008 33.0808 29.7608C33.2208 29.6488 33.2936 29.5088 33.2992 29.3464C33.3048 29.184 33.2544 29.0216 33.1424 28.8648L32.8456 29.0776ZM33.4336 28.3832L33.9768 28.904L34.2456 28.624L33.7024 28.1032L33.3048 27.0392L33.0416 27.3136L33.3216 27.9576L32.6776 27.6888L32.3808 27.9968L33.4336 28.3832Z" fill="#005288"/>
<path d="M24.9999 9.72961C19.3271 9.72961 14.7295 14.3272 14.7295 20C14.7295 22.6712 15.7487 25.1016 17.4175 26.9272L17.4455 26.5856C15.8495 24.76 14.9815 22.4472 14.9815 20C14.9815 17.3232 16.0231 14.8088 17.9159 12.9104C19.8087 11.0176 22.3231 9.97601 24.9999 9.97601C27.6767 9.97601 30.1911 11.0176 32.0839 12.9104C33.9767 14.8032 35.0183 17.3176 35.0183 20C35.0183 22.6768 33.9767 25.1912 32.0839 27.084C30.1911 28.9768 27.6767 30.0184 24.9999 30.0184C22.5639 30.0184 20.2623 29.156 18.4367 27.5712L18.2575 27.7448C20.0607 29.3128 22.4183 30.2648 24.9999 30.2648C30.6727 30.2648 35.2703 25.6672 35.2703 19.9944C35.2703 14.3272 30.6727 9.72961 24.9999 9.72961Z" fill="#C41230"/>
<path d="M36.3007 22.6656C35.9535 24.1496 35.3151 25.5272 34.4527 26.7312L34.6711 26.8768C35.5447 25.6504 36.1943 24.2504 36.5527 22.744L36.3007 22.6656ZM13.6991 22.6656L13.4471 22.744C13.8055 24.2504 14.4495 25.6504 15.3231 26.8768L15.5415 26.7312C14.6847 25.5272 14.0519 24.1496 13.6991 22.6656ZM36.8887 22.8504C36.5191 24.3904 35.8583 25.8184 34.9679 27.0728L35.1863 27.2184C36.0935 25.9472 36.7655 24.4968 37.1407 22.9288L36.8887 22.8504ZM13.1167 22.8504L12.8647 22.9288C13.2399 24.4912 13.9119 25.9416 14.8191 27.2184L15.0375 27.0728C14.1415 25.8184 13.4807 24.3904 13.1167 22.8504ZM35.7407 22.4864C35.4103 23.92 34.7943 25.2416 33.9655 26.4008L34.1839 26.5464C35.0295 25.3648 35.6511 24.0208 35.9927 22.5648L35.7407 22.4864ZM14.2647 22.4864L14.0127 22.5648C14.3543 24.0208 14.9759 25.3704 15.8215 26.5464L16.0399 26.4008C15.2055 25.2472 14.5951 23.92 14.2647 22.4864ZM30.0623 18.6056H29.6255L29.8439 17.8832L30.0623 18.6056ZM30.0623 18.6056H29.6255L29.8439 17.8832L30.0623 18.6056ZM29.8495 17.8832L30.0623 18.6056H29.6255L29.8495 17.8832ZM30.8183 19.4008L30.1743 17.3512H29.6199L28.9647 19.4008H29.3847L29.5135 18.9808H30.1743L30.3031 19.4008H30.8183ZM28.8415 18.7456C28.8415 18.628 28.8079 18.5216 28.7407 18.4264C28.6735 18.3312 28.5951 18.264 28.4943 18.2192C28.3991 18.1744 28.2423 18.1352 28.0351 18.0904C27.9119 18.068 27.8279 18.0344 27.7943 18.0008C27.7607 17.9672 27.7383 17.928 27.7383 17.8776C27.7383 17.7544 27.8335 17.6928 28.0239 17.6928C28.2031 17.6928 28.3151 17.7768 28.3711 17.9392L28.7799 17.8048C28.6679 17.4856 28.4047 17.3232 28.0015 17.3232C27.7775 17.3232 27.5927 17.3848 27.4639 17.5136C27.3295 17.6368 27.2679 17.7936 27.2679 17.9728C27.2679 18.152 27.3239 18.292 27.4359 18.3816C27.5479 18.4768 27.7327 18.5496 27.9959 18.6056C28.1359 18.6336 28.2311 18.6672 28.2815 18.7008C28.3319 18.7344 28.3543 18.7792 28.3543 18.8408C28.3543 18.9024 28.3263 18.9528 28.2759 18.992C28.2199 19.0368 28.1415 19.0536 28.0295 19.0536C27.7999 19.0536 27.6655 18.9584 27.6151 18.768L27.1727 18.8688C27.2175 19.0592 27.3183 19.1992 27.4639 19.2944C27.6095 19.3896 27.7887 19.44 28.0015 19.44C28.2815 19.44 28.4943 19.3728 28.6343 19.2384C28.7687 19.0928 28.8415 18.9304 28.8415 18.7456ZM26.9095 17.3512H26.4279V19.4008H26.9095V17.3512ZM24.9327 18.3816C24.9327 17.9392 25.0559 17.7152 25.3079 17.7152C25.5263 17.7152 25.6383 17.8608 25.6439 18.152L26.1479 18.1184C26.0863 17.5864 25.8063 17.3232 25.3135 17.3232C25.0279 17.3232 24.8039 17.424 24.6415 17.62C24.4791 17.816 24.3951 18.068 24.3951 18.3816C24.3951 18.712 24.4791 18.9696 24.6527 19.16C24.8207 19.3504 25.0447 19.44 25.3135 19.44C25.5319 19.44 25.7223 19.3784 25.8735 19.2496C26.0247 19.1208 26.1199 18.936 26.1479 18.6896L25.6831 18.6616C25.6383 18.9192 25.5207 19.048 25.3191 19.048C25.1959 19.048 25.1007 19.0032 25.0335 18.908C24.9663 18.8128 24.9327 18.6392 24.9327 18.3816ZM33.1815 17.2168V19.3448C33.1815 19.5632 33.1759 19.7816 33.1591 19.9944H23.3591C23.7063 19.5464 23.8967 18.9976 23.8967 18.4208C23.8967 17.9 23.7399 17.4128 23.4711 17.0096C24.6807 16.836 26.2879 16.6456 27.6095 16.6344C27.6767 16.6344 27.7439 16.6344 27.8055 16.6344C30.2751 16.64 32.3919 17.0432 33.1815 17.2168ZM30.0623 18.6056H29.6255L29.8439 17.8832L30.0623 18.6056ZM30.0623 18.6056H29.6255L29.8439 17.8832L30.0623 18.6056ZM31.0759 25.2864C31.3391 24.9616 31.5799 24.6256 31.7983 24.2728V23.9368H31.0759V25.2864ZM30.5159 23.0352H30.2415V22.6488C30.2415 22.6264 30.2359 22.604 30.2191 22.5816C30.1967 22.548 30.1631 22.5256 30.1183 22.5256C30.0735 22.5256 30.0399 22.548 30.0175 22.5816C30.0063 22.604 29.9951 22.6264 29.9951 22.6488V23.0408H29.7207V23.5224H29.2895V26.9776C29.9167 26.524 30.4823 25.9976 30.9751 25.4096V23.5224H30.5159V23.0352ZM27.2735 27.7784C27.3855 27.8344 27.4975 27.8848 27.6095 27.9352C27.6319 27.924 27.6543 27.9184 27.6711 27.9072V22.7664C27.6711 22.7608 27.6767 22.7552 27.6823 22.7552H27.7719C27.7775 22.7552 27.7831 22.7608 27.7831 22.7664V27.8568C27.9063 27.7952 28.0351 27.7336 28.1527 27.672V22.5144C28.1527 22.5088 28.1583 22.5032 28.1639 22.5032H28.2535C28.2591 22.5032 28.2647 22.5088 28.2647 22.5144V27.616C28.3879 27.5488 28.5167 27.476 28.6343 27.4032V22.772C28.6343 22.7664 28.6399 22.7608 28.6455 22.7608H28.7351C28.7407 22.7608 28.7463 22.7664 28.7463 22.772V27.336C28.8975 27.2408 29.0431 27.1456 29.1831 27.0448V21.9488H27.2679V27.7784H27.2735ZM26.5175 25.5552C26.3999 25.5552 26.3047 25.6728 26.3047 25.824V27.2296C26.4447 27.3192 26.5847 27.4088 26.7303 27.4872V25.8184C26.7303 25.6728 26.6351 25.5552 26.5175 25.5552ZM25.6047 25.824C25.4871 25.824 25.3919 25.9416 25.3919 26.0928V26.5576C25.5319 26.6752 25.6719 26.7816 25.8119 26.8936V26.0984C25.8119 25.9472 25.7223 25.824 25.6047 25.824ZM26.2543 23.78L27.1727 24.228V24.9448C26.1311 24.9784 25.0559 25.2248 24.3223 25.4992C23.9863 25.1128 23.6895 24.704 23.4207 24.2672H24.0367L24.1543 22.3016H24.7255L24.8431 24.2672H25.2799V23.78L26.2599 24.256V23.78H26.2543Z" fill="#0078AE"/>
<path d="M27.0274 24.0488L27.1002 24.0824C27.1282 24.0656 27.1506 24.0544 27.1786 24.0376V23.9648C27.1282 23.9928 27.0778 24.0208 27.0274 24.0488ZM24.9274 24.172H25.0786C25.0282 24.1552 24.9778 24.1328 24.9274 24.1104V24.172ZM23.4994 21.904C23.4994 21.3216 23.7066 20.7896 24.0482 20.3752H23.9698C23.6394 20.7952 23.4378 21.3272 23.4378 21.904C23.4378 22.492 23.645 23.0296 23.9866 23.4552L23.9922 23.36C23.6842 22.9568 23.4994 22.4528 23.4994 21.904ZM27.7778 20.3752C28.1082 20.7784 28.3098 21.288 28.3266 21.8424H28.3882C28.377 21.288 28.181 20.7784 27.8562 20.3752H27.7778ZM27.8282 21.8424H27.8954C27.8786 21.2544 27.5986 20.728 27.173 20.3752H27.0666C27.5146 20.7168 27.8114 21.2432 27.8282 21.8424ZM23.925 21.904C23.925 22.1336 23.9642 22.352 24.037 22.5536L24.0482 22.3576C24.0146 22.212 23.9922 22.0608 23.9922 21.904C23.9922 21.2768 24.2946 20.7224 24.7538 20.3752H24.6474C24.2106 20.7392 23.925 21.2936 23.925 21.904ZM24.8994 23.6064C24.989 23.6568 25.0786 23.7072 25.1794 23.7464V23.6736C25.0786 23.6344 24.989 23.584 24.8938 23.528L24.8994 23.6064ZM26.6074 23.696C26.613 23.7184 26.6186 23.7408 26.6242 23.7576C26.8258 23.6792 27.0106 23.5672 27.173 23.4328V23.3432C27.005 23.4944 26.8146 23.612 26.6074 23.696ZM26.4954 23.3152C26.501 23.3376 26.5066 23.36 26.5178 23.3824C26.781 23.276 27.0106 23.0968 27.1786 22.8784V22.7608C27.005 23.0016 26.7698 23.1976 26.4954 23.3152ZM25.3194 23.3824C25.325 23.36 25.3306 23.3376 25.3418 23.3152C25.1626 23.2424 25.0002 23.136 24.8658 23.0016L24.8714 23.1024C25.0002 23.22 25.1514 23.3152 25.3194 23.3824ZM26.3498 20.3752H25.4762C24.8098 20.5656 24.3226 21.1816 24.3226 21.904C24.3226 22.0048 24.3338 22.1056 24.3506 22.2008H24.4234C24.4066 22.1056 24.3954 22.0048 24.3954 21.904C24.3954 21.064 25.0786 20.3808 25.9186 20.3808C26.7362 20.3808 27.4082 21.0304 27.4362 21.8424H27.5034C27.4754 21.148 26.9994 20.56 26.3498 20.3752ZM23.2978 20.3752H23.225C23.1746 20.4648 23.1298 20.56 23.085 20.6552V20.812C23.1466 20.6608 23.2138 20.5152 23.2978 20.3752ZM28.5282 20.3752C28.7802 20.8064 28.9314 21.3104 28.9426 21.8424H29.0042C28.993 21.3104 28.8474 20.8064 28.601 20.3752H28.5282ZM22.9786 22.66L22.9282 22.7104C23.0794 23.276 23.393 23.78 23.813 24.172H23.9026C23.4546 23.7744 23.1298 23.2536 22.9786 22.66ZM29.4578 20.3752H29.3962C29.6034 20.8456 29.721 21.3608 29.721 21.904C29.721 22.4416 29.609 22.9512 29.4074 23.416H29.469C29.5306 23.276 29.581 23.1248 29.6258 22.9792V22.9344H29.637C29.7266 22.604 29.777 22.2624 29.777 21.904C29.777 21.3608 29.6594 20.8456 29.4578 20.3752ZM31.7426 20.3752H31.6866C31.8154 20.8624 31.8882 21.3776 31.8882 21.904C31.8882 22.576 31.7762 23.2256 31.569 23.836H31.625C31.8322 23.2312 31.9442 22.5816 31.9442 21.904C31.9386 21.3776 31.8714 20.8624 31.7426 20.3752ZM30.4882 20.3752H30.4322C30.5946 20.8568 30.6842 21.372 30.6842 21.904C30.6842 22.2568 30.645 22.604 30.5722 22.9344H30.617V22.9736C30.6954 22.6264 30.7402 22.268 30.7402 21.8984C30.7346 21.372 30.6506 20.8568 30.4882 20.3752ZM26.445 21.904C26.445 21.6128 26.2042 21.372 25.913 21.372C25.6218 21.372 25.381 21.6128 25.381 21.904C25.381 22.0888 25.4762 22.2512 25.6218 22.3464C25.633 22.3184 25.6386 22.2904 25.6498 22.2624C25.5378 22.1784 25.4706 22.0496 25.4706 21.904C25.4706 21.6576 25.6722 21.456 25.9186 21.456C26.165 21.456 26.3666 21.6576 26.3666 21.904C26.3666 22.0496 26.2994 22.1784 26.193 22.2568C26.1986 22.2848 26.2098 22.3128 26.221 22.3464C26.3498 22.2512 26.445 22.0888 26.445 21.904ZM26.3106 21.904C26.3106 21.6744 26.1314 21.4896 25.913 21.4896C25.6946 21.4896 25.5154 21.6744 25.5154 21.904C25.5154 22.0328 25.5714 22.1448 25.661 22.2232C25.6722 22.1896 25.6778 22.1616 25.689 22.128C25.6386 22.072 25.605 21.9936 25.605 21.904C25.605 21.7248 25.745 21.5792 25.9186 21.5792C26.0922 21.5792 26.2322 21.7248 26.2322 21.904C26.2322 21.988 26.1986 22.0608 26.1482 22.1224C26.1594 22.156 26.165 22.184 26.1762 22.2176C26.2546 22.1448 26.3106 22.0328 26.3106 21.904ZM26.5738 21.904C26.5738 21.54 26.277 21.2432 25.913 21.2432C25.549 21.2432 25.2522 21.54 25.2522 21.904C25.2522 22.1504 25.3866 22.3632 25.5826 22.4752C25.5882 22.4472 25.5994 22.4192 25.605 22.3912C25.4426 22.2904 25.3306 22.1056 25.3306 21.8984C25.3306 21.5792 25.5882 21.316 25.913 21.316C26.2322 21.316 26.4898 21.5736 26.4898 21.8984C26.4898 22.1056 26.3834 22.2848 26.221 22.3856C26.2266 22.4136 26.2378 22.4416 26.2434 22.4696C26.445 22.3632 26.5738 22.1504 26.5738 21.904ZM26.7362 21.904C26.7362 21.4504 26.3666 21.0808 25.913 21.0808C25.4594 21.0808 25.0898 21.4504 25.0898 21.904C25.0898 22.2232 25.2746 22.4976 25.5378 22.6376C25.5434 22.6096 25.5546 22.5872 25.5602 22.5592C25.325 22.4304 25.1682 22.1896 25.1682 21.904C25.1682 21.4952 25.5042 21.1592 25.913 21.1592C26.3218 21.1592 26.6578 21.4952 26.6578 21.904C26.6578 22.184 26.501 22.4304 26.2714 22.5536C26.277 22.5816 26.2882 22.604 26.2938 22.632C26.557 22.4976 26.7362 22.2232 26.7362 21.904ZM26.9378 21.904C26.9378 21.3384 26.4786 20.8792 25.913 20.8792C25.3474 20.8792 24.8882 21.3384 24.8882 21.904C24.8882 22.3128 25.129 22.6656 25.4818 22.8336C25.4874 22.8112 25.4986 22.7832 25.5042 22.7608C25.185 22.6096 24.9666 22.2848 24.9666 21.9096C24.9666 21.3888 25.3922 20.9632 25.913 20.9632C26.4338 20.9632 26.8594 21.3888 26.8594 21.9096C26.8594 22.2848 26.641 22.604 26.3274 22.7608C26.333 22.7832 26.3442 22.8112 26.3498 22.8336C26.697 22.6656 26.9378 22.3128 26.9378 21.904ZM27.1842 21.8424C27.1506 21.1648 26.5962 20.6272 25.913 20.6272C25.2074 20.6272 24.6362 21.1984 24.6362 21.904C24.6362 22.0048 24.6474 22.1056 24.6698 22.2008H24.7426C24.7202 22.1056 24.7034 22.0048 24.7034 21.904C24.7034 21.2376 25.241 20.7 25.9074 20.7C26.5682 20.7 27.1114 21.2376 27.1114 21.904C27.1114 22.3912 26.8202 22.8168 26.3946 23.0016C26.4002 23.024 26.4058 23.0464 26.417 23.0744C26.809 22.9008 27.1002 22.5368 27.1674 22.1V21.8424H27.1842ZM24.8378 22.5928L24.8266 22.4248C24.9498 22.6824 25.1626 22.8896 25.4258 23.0072C25.4202 23.0296 25.4146 23.052 25.4034 23.08C25.1738 22.9736 24.9722 22.8056 24.8378 22.5928Z" fill="#5E9732"/>
<path d="M20.8027 42.1348C20.8027 42.842 21.07 43.1695 21.4131 43.2773C21.5303 43.3132 21.6507 43.3311 21.7744 43.3311C22.5234 43.3311 22.9483 43.0262 23.1514 42.5518V38.7168H24.0596V44H23.1953L23.1758 43.4717C23.021 43.6566 22.8295 43.8069 22.5947 43.917C22.3311 44.0374 22.0104 44.0977 21.6328 44.0977C20.8683 44.0977 20.2765 43.7837 20.0215 43.0283C19.9401 42.7777 19.8994 42.4766 19.8994 42.125V38.7168H20.8027V42.1348Z" fill="#7F8BA5"/>
<path d="M16.1787 42.751L18.2148 36.8906H19.2354L16.6035 44H15.7686L13.1416 36.8906H14.1621L16.1787 42.751Z" fill="#7F8BA5"/>
<path d="M26.418 44H25.5098V36.5H26.418V44Z" fill="#7F8BA5"/>
<path d="M30.3291 38.6191C31.1107 38.6191 31.6732 38.9259 31.9062 39.6543C31.9844 39.8952 32.0234 40.1898 32.0234 40.5381V44H31.1152V40.5283C31.1152 39.6872 30.7369 39.3809 30.0605 39.3809C29.4852 39.3809 29.0275 39.7216 28.7715 40.2324V44H27.8682V38.7168H28.7227L28.751 39.377C29.1322 38.8954 29.6781 38.6191 30.3291 38.6191Z" fill="#7F8BA5"/>
<path d="M35.5488 38.6191C35.6786 38.6191 35.8839 38.6548 35.9492 38.6875L35.9443 39.5273C35.7979 39.4955 35.678 39.4883 35.5049 39.4883C34.8943 39.4883 34.4989 39.7784 34.2988 40.2461V44H33.3955V38.7168H34.2744L34.292 39.3232C34.2942 39.3196 34.2966 39.3161 34.2988 39.3125C34.5683 38.8722 34.9812 38.6191 35.5488 38.6191Z" fill="#7F8BA5"/>
</svg>
