<svg width="50" height="50" viewBox="0 0 50 50" fill="none" xmlns="http://www.w3.org/2000/svg">
<path d="M8.33301 14.8188C8.85836 14.026 9.64638 13.8694 10.6025 13.8907C12.302 13.9453 14.0041 13.8385 15.6826 14.2017C18.8262 14.8366 21.5921 16.5135 23.4341 18.9014C25.9348 22.0844 28.3435 25.3244 30.8442 28.5026C33.1039 31.3722 36.4032 33.3886 40.0903 33.5679C41.0097 33.632 41.6663 34.1589 41.6663 34.8876C41.6663 35.6163 40.9834 36.1385 40.0745 36.11C35.5723 35.97 31.9921 34.2444 29.3942 30.938C26.9251 27.8262 24.5925 24.6432 22.1234 21.5575C19.8142 18.657 16.2192 16.4886 12.436 16.4519C11.7162 16.4353 11.4851 16.656 11.4851 17.3064C11.4851 22.9128 11.4851 28.5193 11.4851 34.1257C11.4955 34.997 11.1699 35.7973 10.2164 35.9747C9.27216 36.1504 8.92737 35.591 8.33563 35.0348L8.33301 14.8188Z" fill="#079FD9"/>
<path d="M29.5072 23.1251C29.0055 22.4771 28.4932 21.8267 28.0047 21.1645C27.9506 21.0597 27.9556 20.9332 28.0178 20.8322C29.3548 19.0283 30.7233 17.2504 32.7827 16.0162C34.9545 14.69 37.5039 13.9589 40.1245 13.9108C40.7368 13.8642 41.3468 14.2156 41.5587 14.7368C41.9521 15.5896 41.1631 16.3685 40.3477 16.4315C37.6527 16.4719 35.4121 17.4878 33.3921 19.0069C31.9605 20.0845 30.8652 21.4137 29.8408 22.8047C29.7397 22.9417 29.6689 23.0697 29.5072 23.1251Z" fill="#3A4E73"/>
<path d="M23.4052 26.8488C23.7106 27.2545 25.2217 28.6231 24.9497 29.1702C23.329 31.4559 21.535 33.5898 18.7112 34.7861C17.7378 35.1929 16.7282 35.5247 15.6931 35.7783C14.6766 36.0394 13.8229 35.3273 13.8859 34.3778C13.8784 33.9196 14.2358 33.4864 14.7238 33.3619C18.1885 32.4956 20.6576 30.4804 22.6198 27.8671C22.8641 27.5371 23.1189 27.2191 23.4052 26.8488Z" fill="#3A4F73"/>
<path d="M36.9855 20.0745C36.9855 19.3625 37.4189 18.9067 38.0834 18.9115C38.748 18.9162 39.1709 19.3648 39.1736 20.0983V29.9368C39.1736 30.6632 38.7559 31.1236 38.0913 31.1236C37.4268 31.1236 36.9881 30.6988 36.9881 30.0532C36.9725 26.7042 36.9855 23.3952 36.9855 20.0745Z" fill="#AEC43B"/>
<path d="M13.9648 19.9844C13.9648 19.3459 14.3745 18.9329 15.0155 18.9163C15.6564 18.8996 16.1213 19.3411 16.1213 19.9891C16.1213 23.3406 16.1213 26.6922 16.1213 30.0437C16.1213 30.6893 15.6485 31.1261 15.0102 31.1094C14.3719 31.0928 13.9595 30.6869 13.9595 30.0389C13.963 26.6874 13.9648 23.3359 13.9648 19.9844Z" fill="#ABC133"/>
<path d="M32.5752 22.8302C32.5752 22.1751 33.0138 21.755 33.6679 21.755C34.322 21.755 34.758 22.1799 34.7606 22.8374C34.7606 24.3169 34.7606 25.7957 34.7606 27.2736C34.7606 27.9572 34.3167 28.4058 33.6626 28.4034C33.0086 28.4011 32.5778 27.9525 32.5752 27.2665C32.5698 25.7878 32.5752 24.309 32.5752 22.8302Z" fill="#AEC43B"/>
<path d="M18.5747 22.7756C18.5747 22.1443 19.0501 21.6862 19.6727 21.6838C20.2371 21.6856 20.805 22.1279 20.7733 22.7305C20.7908 24.2528 20.7908 25.7735 20.7733 27.2926C20.805 27.8953 20.2371 28.3375 19.6727 28.3394C19.037 28.3394 18.5799 27.9002 18.5721 27.2522C18.5616 25.764 18.5747 24.2686 18.5747 22.7756Z" fill="#ADC339"/>
</svg>
