<svg width="50" height="50" viewBox="0 0 50 50" fill="none" xmlns="http://www.w3.org/2000/svg">
<path d="M31.4881 22.9126C30.2847 22.3017 28.4316 22.5731 28.4316 24.2471C28.4316 25.898 30.2888 26.2236 31.4881 25.5851V27.2641C29.2837 27.8764 26.7156 26.875 26.7156 24.2467C26.7156 21.6534 29.2902 20.5795 31.4881 21.2337V22.9126ZM15.0117 22.9126C13.8111 22.2887 11.9557 22.5834 11.9557 24.2471C11.9557 25.8881 13.8156 26.236 15.0117 25.5851V27.2641C12.8075 27.8826 10.2412 26.8702 10.2412 24.2467C10.2412 21.6572 12.8144 20.5752 15.0117 21.2337V22.9126ZM36.4536 22.6022C35.5171 22.6022 34.8216 23.3391 34.8216 24.2471C34.8216 25.1571 35.5171 25.8936 36.4536 25.8936C37.3891 25.8936 38.0866 25.1571 38.0866 24.2471C38.0866 23.3391 37.3891 22.6022 36.4536 22.6022ZM39.7591 24.2471C39.7591 26.0366 38.3776 27.4866 36.4541 27.4866C34.5296 27.4866 33.1501 26.0366 33.1501 24.2467C33.1501 22.4607 34.5301 21.0091 36.4536 21.0091C38.3776 21.0091 39.7591 22.4606 39.7591 24.2471ZM24.7461 22.5422C24.3078 22.4023 22.5356 22.0274 22.5356 22.8637C22.5356 23.3664 23.3153 23.4775 23.6946 23.5982C24.7196 23.9242 25.1861 24.6256 25.1861 25.3876C25.1861 27.6399 22.5015 27.6483 20.8927 27.3161V25.8761C21.4213 26.0092 23.5296 26.5307 23.5296 25.5251C23.5296 25.2081 23.2171 25.0251 22.8256 24.9021C21.8685 24.5797 20.8767 24.1433 20.8767 22.9631C20.8767 20.9222 23.2621 20.812 24.7461 21.2067V22.5422Z" fill="#049FD9"/>
<path d="M18.76 27.3759H17.1815V21.1204H18.76V27.3759Z" fill="#049FD9"/>
<path d="M8.56749 14.3979C8.56749 13.9669 8.21549 13.6174 7.784 13.6174C7.3525 13.6174 7 13.9669 7 14.3974V16.0399C7.01033 16.4488 7.37475 16.8041 7.78375 16.8041C8.19275 16.8041 8.55717 16.4488 8.56749 16.0399V14.3979ZM12.872 12.2429C12.872 11.8161 12.5151 11.4592 12.0882 11.4592C11.6613 11.4592 11.3045 11.816 11.3045 12.2429V16.0399C11.3045 16.4668 11.6613 16.8237 12.0882 16.8237C12.5151 16.8237 12.872 16.4668 12.872 16.0399V12.2429ZM17.177 9.29394C17.177 8.86294 16.825 8.51294 16.3935 8.51294C15.9615 8.51294 15.6095 8.86294 15.6095 9.29394V17.6004C15.6198 18.0093 15.9842 18.3646 16.3932 18.3646C16.8022 18.3646 17.1666 18.0093 17.177 17.6004V9.29394ZM21.4814 12.2429C21.4814 11.816 21.1246 11.4592 20.6977 11.4592C20.2708 11.4592 19.9139 11.816 19.9139 12.2429V16.0399C19.9139 16.4668 20.2708 16.8237 20.6977 16.8237C21.1246 16.8237 21.4814 16.4668 21.4814 16.0399V12.2429ZM25.7814 14.3979C25.7817 13.9844 25.416 13.6179 25.0024 13.6174C24.5879 13.6171 24.2205 13.9829 24.2189 14.3974V16.0399C24.2189 16.4654 24.5746 16.8212 25.0002 16.8212C25.4146 16.8212 25.7814 16.4543 25.7814 16.0399V14.3979ZM30.0879 12.2429C30.0776 11.8354 29.7143 11.4812 29.3066 11.4812C28.899 11.4812 28.5357 11.8354 28.5254 12.2429V16.0399C28.5254 16.4654 28.8811 16.8212 29.3066 16.8212C29.721 16.8212 30.0879 16.4543 30.0879 16.0399V12.2429ZM34.3954 9.29394C34.3954 8.86842 34.0396 8.5127 33.6141 8.5127C33.1886 8.5127 32.8329 8.86842 32.8329 9.29394V17.6004C32.814 18.0319 33.1773 18.4166 33.6141 18.4166C34.0461 18.4166 34.4145 18.0368 34.3954 17.6004V9.29394ZM38.7018 12.2429C38.7018 11.8114 38.3523 11.4609 37.9108 11.4609C37.4965 11.4612 37.1299 11.8281 37.1299 12.2424V16.0399C37.1299 16.4734 37.4798 16.8229 37.9108 16.8229C38.3523 16.8229 38.7018 16.4734 38.7018 16.0399V12.2429ZM43.0003 14.3979C43.0003 13.972 42.6443 13.6159 42.2183 13.6159C41.7924 13.6159 41.4363 13.972 41.4363 14.3979V16.0399C41.4363 16.4734 41.7868 16.8234 42.2183 16.8234C42.6493 16.8234 42.9998 16.4734 42.9998 16.0399L43.0003 14.3979Z" fill="#049FD9"/>
<path d="M18.6055 37.9653H19.4492C19.3047 39.2945 18.3155 40.0879 17.0234 40.0879C15.5255 40.0879 14.5273 38.9056 14.5273 37.1216C14.5273 35.4009 15.0389 33.5137 17.0981 33.5137C18.547 33.5137 19.3171 34.3858 19.4492 35.6538H18.6055C18.4862 34.7852 17.9887 34.208 17.0981 34.208C15.5489 34.208 15.3711 35.9008 15.3711 37.1216C15.3711 38.3759 15.8822 39.3979 17.0234 39.3979C18.1065 39.3979 18.4654 38.8585 18.6055 37.9653Z" fill="black"/>
<path d="M24.0151 38.3828C24.0151 37.7856 23.7184 37.5 22.4946 37.1436C21.2249 36.7673 20.4204 36.2489 20.4204 35.2539C20.4204 34.2495 21.294 33.5137 22.5957 33.5137C23.712 33.5137 24.8501 34.2174 24.8501 35.4473H24.0063C24.0063 34.7193 23.5463 34.208 22.5957 34.208C21.693 34.208 21.2686 34.6441 21.2686 35.2451C21.2686 35.786 21.728 36.1166 22.7671 36.4053C24.2182 36.8149 24.8677 37.3729 24.8677 38.374C24.8677 39.4137 23.9959 40.0879 22.6353 40.0879C21.4929 40.0879 20.2183 39.4015 20.2183 38.1455H21.062C21.062 39.0232 21.824 39.3979 22.6353 39.3979C23.5256 39.3979 24.0151 39.0031 24.0151 38.3828Z" fill="black"/>
<path d="M28.3086 37.4907H26.5991V36.8008H28.3086C29.3039 36.8008 29.7061 36.2792 29.7061 35.5615C29.7061 34.767 29.0784 34.2959 28.3086 34.2959H26.7969V40H25.9487V33.6016H28.3086C29.7552 33.6016 30.5542 34.4133 30.5542 35.5527C30.5542 36.7819 29.762 37.4907 28.3086 37.4907Z" fill="black"/>
<path d="M35.4893 37.9653H36.333C36.1885 39.2945 35.1993 40.0879 33.9072 40.0879C31.9614 40.0879 31.4111 38.1345 31.4111 36.4844C31.4111 34.9551 32.2979 33.5137 33.9819 33.5137C35.4307 33.5137 36.2009 34.3858 36.333 35.6538H35.4893C35.3653 34.7509 34.9716 34.208 33.9819 34.208C32.8583 34.208 32.2549 35.1077 32.2549 36.4756C32.2549 37.6522 32.3356 39.3979 33.9072 39.3979C34.9903 39.3979 35.3492 38.8585 35.4893 37.9653Z" fill="black"/>
</svg>
