<svg width="50" height="50" viewBox="0 0 50 50" fill="none" xmlns="http://www.w3.org/2000/svg">
<rect width="50" height="50" fill="#374E6F"/>
<path d="M19.4336 33.9002H17.899V28.2957H19.4336V33.9002Z" fill="white"/>
<path d="M31.8082 29.9016C30.6382 29.3542 28.8366 29.5974 28.8366 31.0972C28.8366 32.5763 30.6422 32.868 31.8082 32.296V33.8002C29.6651 34.3488 27.1683 33.4516 27.1683 31.0967C27.1683 28.7734 29.6714 27.8112 31.8082 28.3973V29.9016ZM15.7896 29.9016C14.6224 29.3425 12.8185 29.6065 12.8185 31.0972C12.8185 32.5674 14.6267 32.8791 15.7896 32.296V33.8002C13.6467 34.3544 11.1517 33.4473 11.1517 31.0967C11.1517 28.7768 13.6534 27.8074 15.7896 28.3973V29.9016ZM36.6357 29.6234C35.7252 29.6234 35.0491 30.2837 35.0491 31.0972C35.0491 31.9125 35.7252 32.5724 36.6357 32.5724C37.5452 32.5724 38.2233 31.9125 38.2233 31.0972C38.2233 30.2837 37.5452 29.6234 36.6357 29.6234ZM39.8493 31.0972C39.8493 32.7005 38.5062 33.9996 36.6362 33.9996C34.7652 33.9996 33.424 32.7005 33.424 31.0967C33.424 29.4966 34.7657 28.1961 36.6357 28.1961C38.5062 28.1961 39.8493 29.4966 39.8493 31.0972ZM25.2536 29.5696C25.2307 29.5629 24.5847 29.3985 24.0539 29.3985C23.4389 29.3985 23.1045 29.5884 23.1045 29.8577C23.1045 30.199 23.5556 30.3182 23.8079 30.3916C24.7279 30.6613 25.6813 31.0895 25.6813 32.119C25.6813 33.527 24.3377 34 23.1633 34C22.3472 34 21.5825 33.8611 21.5072 33.8468V32.5567C21.6423 32.588 22.2859 32.7654 22.9562 32.7654C23.7199 32.7654 24.0709 32.5594 24.0709 32.2422C24.0709 31.803 23.4196 31.6949 23.0588 31.5864C22.2042 31.3373 21.4916 30.8741 21.4916 29.9468C21.4916 28.8986 22.3433 28.1948 23.7578 28.1948C24.505 28.1948 25.2079 28.3619 25.2536 28.3731V29.5696Z" fill="white"/>
<path d="M9.52394 22.2728C9.52394 21.8867 9.18172 21.5735 8.76221 21.5735C8.3427 21.5735 8 21.8866 8 22.2723V23.7439C8.0103 24.1197 8.35412 24.4286 8.76197 24.4286C9.16982 24.4286 9.51364 24.1197 9.52394 23.7439V22.2728ZM13.7088 20.3421C13.7088 19.9596 13.3619 19.6399 12.9468 19.6399C12.5318 19.6399 12.1849 19.9596 12.1849 20.3421V23.7439C12.1849 24.1264 12.5318 24.4461 12.9468 24.4461C13.3619 24.4461 13.7088 24.1264 13.7088 23.7439V20.3421ZM17.8942 17.6999C17.8942 17.3138 17.552 17.0002 17.1324 17.0002C16.7124 17.0002 16.3702 17.3138 16.3702 17.6999V25.142C16.3805 25.5177 16.7244 25.8267 17.1322 25.8267C17.54 25.8267 17.8839 25.5177 17.8942 25.142V17.6999ZM22.079 20.3421C22.079 19.9596 21.7321 19.6399 21.3171 19.6399C20.902 19.6399 20.5551 19.9596 20.5551 20.3421V23.7439C20.5551 24.1264 20.902 24.4461 21.3171 24.4461C21.7321 24.4461 22.079 24.1264 22.079 23.7439V20.3421ZM26.2595 22.2728C26.2598 21.8924 25.915 21.574 25.5022 21.5735C25.0885 21.5733 24.742 21.8911 24.7405 22.2723V23.7439C24.7405 24.1252 25.0863 24.4439 25.5 24.4439C25.9137 24.4439 26.2595 24.1252 26.2595 23.7439V22.2728ZM30.4464 20.3421C30.4361 19.9675 30.0934 19.6596 29.6868 19.6596C29.2803 19.6596 28.9376 19.9675 28.9273 20.3421V23.7439C28.9273 24.1252 29.2731 24.4439 29.6868 24.4439C30.1005 24.4439 30.4464 24.1252 30.4464 23.7439V20.3421ZM34.6341 17.6999C34.6341 17.3187 34.2883 17 33.8746 17C33.4609 17 33.1151 17.3187 33.1151 17.6999V25.142C33.0967 25.5287 33.4499 25.8733 33.8746 25.8733C34.2946 25.8733 34.6527 25.533 34.6341 25.142V17.6999ZM38.821 20.3421C38.821 19.9555 38.4812 19.6414 38.0519 19.6414C37.6383 19.6417 37.2927 19.9604 37.2927 20.3416V23.7439C37.2927 24.1323 37.6329 24.4454 38.0519 24.4454C38.4812 24.4454 38.821 24.1323 38.821 23.7439V20.3421ZM43 22.2728C43 21.8912 42.6538 21.5722 42.2397 21.5722C41.8256 21.5722 41.4795 21.8912 41.4795 22.2728V23.7439C41.4795 24.1323 41.8202 24.4459 42.2397 24.4459C42.6587 24.4459 42.9995 24.1323 42.9995 23.7439L43 22.2728Z" fill="white"/>
</svg>
