<svg width="50" height="50" viewBox="0 0 50 50" fill="none" xmlns="http://www.w3.org/2000/svg">
<path d="M15.3467 35.6992H13.4473V34.9326H15.3467C16.4525 34.9326 16.8994 34.3531 16.8994 33.5557C16.8994 32.6729 16.202 32.1494 15.3467 32.1494H13.667V38.4873H12.7246V31.3779H15.3467C16.6691 31.3779 17.8418 32.1519 17.8418 33.5459C17.8418 34.9116 16.9615 35.6992 15.3467 35.6992Z" fill="#1C1D1F"/>
<path d="M19.7998 34.0342V38.4873H18.8965V33.2041H19.7754L19.7998 34.0342ZM21.4502 33.1748L21.4453 34.0146C21.2989 33.9828 21.179 33.9756 21.0059 33.9756C20.1775 33.9756 19.7427 34.5115 19.6631 35.2939L19.4092 35.4404C19.4092 34.42 19.8153 33.1064 21.0498 33.1064C21.1796 33.1064 21.3849 33.1421 21.4502 33.1748Z" fill="#1C1D1F"/>
<path d="M23.2666 33.2041V38.4873H22.3584V33.2041H23.2666ZM22.29 31.8027C22.29 31.5074 22.4735 31.2803 22.8223 31.2803C23.1701 31.2803 23.3594 31.5121 23.3594 31.8027C23.3594 32.078 23.1733 32.3105 22.8223 32.3105C22.4704 32.3105 22.29 32.0824 22.29 31.8027Z" fill="#1C1D1F"/>
<path d="M25.6152 34.2539V38.4873H24.707V33.2041H25.5664L25.6152 34.2539ZM25.4297 35.6455L25.0098 35.6309C25.0163 34.9047 25.2003 34.2777 25.5566 33.8242C25.9156 33.3674 26.4518 33.1064 27.1533 33.1064C28.1394 33.1064 28.8623 33.6371 28.8623 34.9668V38.4873H27.959V35.0107C27.959 34.1833 27.5133 33.8682 26.8311 33.8682C25.768 33.8682 25.4297 34.6822 25.4297 35.6455ZM28.8525 35.1475L28.2471 35.333C28.2503 35.0433 28.2975 34.765 28.3887 34.498C28.6738 33.6918 29.3466 33.1064 30.3467 33.1064C31.4907 33.1064 32.1191 33.6917 32.1191 35.0156V38.4873H31.2109V35.0059C31.2109 34.2917 30.8232 33.8682 30.083 33.8682C29.2961 33.8682 28.8525 34.4485 28.8525 35.1475Z" fill="#1C1D1F"/>
<path d="M35.6787 38.585C34.2198 38.585 33.252 37.4228 33.252 36.0312C33.252 34.6389 33.9615 33.1064 35.5615 33.1064C37.2274 33.1064 37.7344 34.6386 37.7344 36.0996H33.7891V35.3623H36.8311C36.8311 34.5766 36.3965 33.8486 35.5615 33.8486C34.402 33.8486 34.1602 35.1139 34.1602 36.0312C34.1602 36.9485 34.7202 37.8477 35.7275 37.8477C36.3656 37.8477 36.7871 37.5661 37.1191 37.1299L37.666 37.5645C37.3255 38.0801 36.7314 38.585 35.6787 38.585Z" fill="#1C1D1F"/>
<path d="M31.4881 22.9126C30.2847 22.3017 28.4316 22.5731 28.4316 24.2471C28.4316 25.898 30.2888 26.2236 31.4881 25.5851V27.2641C29.2837 27.8764 26.7156 26.875 26.7156 24.2467C26.7156 21.6534 29.2902 20.5795 31.4881 21.2337V22.9126ZM15.0117 22.9126C13.8111 22.2887 11.9557 22.5834 11.9557 24.2471C11.9557 25.8881 13.8156 26.236 15.0117 25.5851V27.2641C12.8075 27.8826 10.2412 26.8702 10.2412 24.2467C10.2412 21.6572 12.8144 20.5752 15.0117 21.2337V22.9126ZM36.4536 22.6022C35.5171 22.6022 34.8216 23.3391 34.8216 24.2471C34.8216 25.1571 35.5171 25.8936 36.4536 25.8936C37.3891 25.8936 38.0866 25.1571 38.0866 24.2471C38.0866 23.3391 37.3891 22.6022 36.4536 22.6022ZM39.7591 24.2471C39.7591 26.0366 38.3776 27.4866 36.4541 27.4866C34.5296 27.4866 33.1501 26.0366 33.1501 24.2467C33.1501 22.4607 34.5301 21.0091 36.4536 21.0091C38.3776 21.0091 39.7591 22.4606 39.7591 24.2471ZM24.7461 22.5422C24.3078 22.4023 22.5356 22.0274 22.5356 22.8637C22.5356 23.3664 23.3153 23.4775 23.6946 23.5982C24.7196 23.9242 25.1861 24.6256 25.1861 25.3876C25.1861 27.6399 22.5015 27.6483 20.8927 27.3161V25.8761C21.4213 26.0092 23.5296 26.5307 23.5296 25.5251C23.5296 25.2081 23.2171 25.0251 22.8256 24.9021C21.8685 24.5797 20.8767 24.1433 20.8767 22.9631C20.8767 20.9222 23.2621 20.812 24.7461 21.2067V22.5422Z" fill="#049FD9"/>
<path d="M18.76 27.3759H17.1815V21.1204H18.76V27.3759Z" fill="#049FD9"/>
<path d="M8.56749 14.3979C8.56749 13.9669 8.21549 13.6174 7.784 13.6174C7.3525 13.6174 7 13.9669 7 14.3974V16.0399C7.01033 16.4488 7.37475 16.8041 7.78375 16.8041C8.19275 16.8041 8.55717 16.4488 8.56749 16.0399V14.3979ZM12.872 12.2429C12.872 11.8161 12.5151 11.4592 12.0882 11.4592C11.6613 11.4592 11.3045 11.816 11.3045 12.2429V16.0399C11.3045 16.4668 11.6613 16.8237 12.0882 16.8237C12.5151 16.8237 12.872 16.4668 12.872 16.0399V12.2429ZM17.177 9.29394C17.177 8.86294 16.825 8.51294 16.3935 8.51294C15.9615 8.51294 15.6095 8.86294 15.6095 9.29394V17.6004C15.6198 18.0093 15.9842 18.3646 16.3932 18.3646C16.8022 18.3646 17.1666 18.0093 17.177 17.6004V9.29394ZM21.4814 12.2429C21.4814 11.816 21.1246 11.4592 20.6977 11.4592C20.2708 11.4592 19.9139 11.816 19.9139 12.2429V16.0399C19.9139 16.4668 20.2708 16.8237 20.6977 16.8237C21.1246 16.8237 21.4814 16.4668 21.4814 16.0399V12.2429ZM25.7814 14.3979C25.7817 13.9844 25.416 13.6179 25.0024 13.6174C24.5879 13.6171 24.2205 13.9829 24.2189 14.3974V16.0399C24.2189 16.4654 24.5746 16.8212 25.0002 16.8212C25.4146 16.8212 25.7814 16.4543 25.7814 16.0399V14.3979ZM30.0879 12.2429C30.0776 11.8354 29.7143 11.4812 29.3066 11.4812C28.899 11.4812 28.5357 11.8354 28.5254 12.2429V16.0399C28.5254 16.4654 28.8811 16.8212 29.3066 16.8212C29.721 16.8212 30.0879 16.4543 30.0879 16.0399V12.2429ZM34.3954 9.29394C34.3954 8.86842 34.0396 8.5127 33.6141 8.5127C33.1886 8.5127 32.8329 8.86842 32.8329 9.29394V17.6004C32.814 18.0319 33.1773 18.4166 33.6141 18.4166C34.0461 18.4166 34.4145 18.0368 34.3954 17.6004V9.29394ZM38.7018 12.2429C38.7018 11.8114 38.3523 11.4609 37.9108 11.4609C37.4965 11.4612 37.1299 11.8281 37.1299 12.2424V16.0399C37.1299 16.4734 37.4798 16.8229 37.9108 16.8229C38.3523 16.8229 38.7018 16.4734 38.7018 16.0399V12.2429ZM43.0003 14.3979C43.0003 13.972 42.6443 13.6159 42.2183 13.6159C41.7924 13.6159 41.4363 13.972 41.4363 14.3979V16.0399C41.4363 16.4734 41.7868 16.8234 42.2183 16.8234C42.6493 16.8234 42.9998 16.4734 42.9998 16.0399L43.0003 14.3979Z" fill="#049FD9"/>
</svg>
