<svg width="50" height="50" viewBox="0 0 50 50" fill="none" xmlns="http://www.w3.org/2000/svg">
<path d="M19.209 30.293H20.1465V35.1025C20.1465 36.5513 18.9972 37.5 17.5684 37.5C16.1125 37.5 15 36.5728 15 35.1025V30.293H15.9326V35.1025C15.9326 36.2198 16.5988 36.7334 17.5684 36.7334C18.5618 36.7334 19.209 36.2118 19.209 35.1025V30.293Z" fill="black"/>
<path d="M25.918 35.1416H26.8555C26.6987 36.5836 25.623 37.5 24.1602 37.5C21.9981 37.5 21.3867 35.3296 21.3867 33.4961C21.3867 31.7969 22.372 30.1953 24.2432 30.1953C25.853 30.1953 26.7087 31.1643 26.8555 32.5732H25.918C25.7803 31.57 25.3428 30.9668 24.2432 30.9668C22.9947 30.9668 22.3242 31.9665 22.3242 33.4863C22.3242 34.7936 22.4139 36.7334 24.1602 36.7334C25.3636 36.7334 25.7623 36.134 25.918 35.1416Z" fill="black"/>
<path d="M28.4375 30.293H29.3506L31.6797 36.0889L34.0039 30.293H34.9219L32.0312 37.4023H31.3184L28.4375 30.293ZM28.1396 30.293H28.9453L29.0771 37.4023H28.1396V30.293ZM34.4092 30.293H35.2148V37.4023H34.2773L34.4092 30.293Z" fill="black"/>
<path d="M31.4881 22.9126C30.2847 22.3017 28.4316 22.5731 28.4316 24.2471C28.4316 25.898 30.2888 26.2236 31.4881 25.5851V27.2641C29.2837 27.8764 26.7156 26.875 26.7156 24.2467C26.7156 21.6534 29.2902 20.5795 31.4881 21.2337V22.9126ZM15.0117 22.9126C13.8111 22.2887 11.9557 22.5834 11.9557 24.2471C11.9557 25.8881 13.8156 26.236 15.0117 25.5851V27.2641C12.8075 27.8826 10.2412 26.8702 10.2412 24.2467C10.2412 21.6572 12.8144 20.5752 15.0117 21.2337V22.9126ZM36.4536 22.6022C35.5171 22.6022 34.8216 23.3391 34.8216 24.2471C34.8216 25.1571 35.5171 25.8936 36.4536 25.8936C37.3891 25.8936 38.0866 25.1571 38.0866 24.2471C38.0866 23.3391 37.3891 22.6022 36.4536 22.6022ZM39.7591 24.2471C39.7591 26.0366 38.3776 27.4866 36.4541 27.4866C34.5296 27.4866 33.1501 26.0366 33.1501 24.2467C33.1501 22.4607 34.5301 21.0091 36.4536 21.0091C38.3776 21.0091 39.7591 22.4606 39.7591 24.2471ZM24.7461 22.5422C24.3078 22.4023 22.5356 22.0274 22.5356 22.8637C22.5356 23.3664 23.3153 23.4775 23.6946 23.5982C24.7196 23.9242 25.1861 24.6256 25.1861 25.3876C25.1861 27.6399 22.5015 27.6483 20.8927 27.3161V25.8761C21.4213 26.0092 23.5296 26.5307 23.5296 25.5251C23.5296 25.2081 23.2171 25.0251 22.8256 24.9021C21.8685 24.5797 20.8767 24.1433 20.8767 22.9631C20.8767 20.9222 23.2621 20.812 24.7461 21.2067V22.5422Z" fill="#049FD9"/>
<path d="M18.76 27.3759H17.1815V21.1204H18.76V27.3759Z" fill="#049FD9"/>
<path d="M8.56749 14.3979C8.56749 13.9669 8.21549 13.6174 7.784 13.6174C7.3525 13.6174 7 13.9669 7 14.3974V16.0399C7.01033 16.4488 7.37475 16.8041 7.78375 16.8041C8.19275 16.8041 8.55717 16.4488 8.56749 16.0399V14.3979ZM12.872 12.2429C12.872 11.8161 12.5151 11.4592 12.0882 11.4592C11.6613 11.4592 11.3045 11.816 11.3045 12.2429V16.0399C11.3045 16.4668 11.6613 16.8237 12.0882 16.8237C12.5151 16.8237 12.872 16.4668 12.872 16.0399V12.2429ZM17.177 9.29394C17.177 8.86294 16.825 8.51294 16.3935 8.51294C15.9615 8.51294 15.6095 8.86294 15.6095 9.29394V17.6004C15.6198 18.0093 15.9842 18.3646 16.3932 18.3646C16.8022 18.3646 17.1666 18.0093 17.177 17.6004V9.29394ZM21.4814 12.2429C21.4814 11.816 21.1246 11.4592 20.6977 11.4592C20.2708 11.4592 19.9139 11.816 19.9139 12.2429V16.0399C19.9139 16.4668 20.2708 16.8237 20.6977 16.8237C21.1246 16.8237 21.4814 16.4668 21.4814 16.0399V12.2429ZM25.7814 14.3979C25.7817 13.9844 25.416 13.6179 25.0024 13.6174C24.5879 13.6171 24.2205 13.9829 24.2189 14.3974V16.0399C24.2189 16.4654 24.5746 16.8212 25.0002 16.8212C25.4146 16.8212 25.7814 16.4543 25.7814 16.0399V14.3979ZM30.0879 12.2429C30.0776 11.8354 29.7143 11.4812 29.3066 11.4812C28.899 11.4812 28.5357 11.8354 28.5254 12.2429V16.0399C28.5254 16.4654 28.8811 16.8212 29.3066 16.8212C29.721 16.8212 30.0879 16.4543 30.0879 16.0399V12.2429ZM34.3954 9.29394C34.3954 8.86842 34.0396 8.5127 33.6141 8.5127C33.1886 8.5127 32.8329 8.86842 32.8329 9.29394V17.6004C32.814 18.0319 33.1773 18.4166 33.6141 18.4166C34.0461 18.4166 34.4145 18.0368 34.3954 17.6004V9.29394ZM38.7018 12.2429C38.7018 11.8114 38.3523 11.4609 37.9108 11.4609C37.4965 11.4612 37.1299 11.8281 37.1299 12.2424V16.0399C37.1299 16.4734 37.4798 16.8229 37.9108 16.8229C38.3523 16.8229 38.7018 16.4734 38.7018 16.0399V12.2429ZM43.0003 14.3979C43.0003 13.972 42.6443 13.6159 42.2183 13.6159C41.7924 13.6159 41.4363 13.972 41.4363 14.3979V16.0399C41.4363 16.4734 41.7868 16.8234 42.2183 16.8234C42.6493 16.8234 42.9998 16.4734 42.9998 16.0399L43.0003 14.3979Z" fill="#049FD9"/>
</svg>
