<svg width="50" height="50" viewBox="0 0 50 50" fill="none" xmlns="http://www.w3.org/2000/svg">
<path d="M6.06152 32.8901H6.97461L9.30371 38.686L11.6279 32.8901H12.5459L9.65527 39.9995H8.94238L6.06152 32.8901ZM5.76367 32.8901H6.56934L6.70117 39.9995H5.76367V32.8901ZM12.0332 32.8901H12.8389V39.9995H11.9014L12.0332 32.8901Z" fill="#1C1D1F"/>
<path d="M17.4727 39.0962V36.3765C17.4727 35.7483 17.09 35.3462 16.3594 35.3462C15.6857 35.3462 15.2168 35.7357 15.2168 36.1812H14.3135C14.3135 35.1455 15.5287 34.6187 16.4131 34.6187C17.5713 34.6187 18.376 35.2057 18.376 36.3862C18.376 37.3804 18.2742 38.4213 18.4199 39.4087C18.4522 39.6055 18.5615 39.8038 18.5615 39.9995H17.6191C17.5736 39.8953 17.5378 39.757 17.5117 39.5845C17.4857 39.4087 17.4727 39.2459 17.4727 39.0962ZM17.6289 36.7964L17.6387 37.4312C16.8555 37.4312 15.1094 37.1975 15.1094 38.4077C15.1094 38.9071 15.4596 39.3062 16.1201 39.3062C16.7164 39.3062 17.5193 38.8812 17.5605 38.2075L17.9463 38.6421C17.8564 39.1812 17.1609 40.0972 15.9883 40.0972C15.084 40.0972 14.2012 39.5131 14.2012 38.5298C14.2012 36.7566 16.3346 36.7964 17.6289 36.7964Z" fill="#1C1D1F"/>
<path d="M20.7002 35.8442V39.9995H19.7969V34.7163H20.6514L20.7002 35.8442ZM20.4854 37.1577L20.1094 37.1431C20.1159 36.417 20.3341 35.79 20.71 35.3364C21.0904 34.8773 21.6245 34.6187 22.2578 34.6187C23.4293 34.6187 23.9521 35.4759 23.9521 36.5376V39.9995H23.0439V36.5278C23.0439 35.6867 22.6656 35.3804 21.9893 35.3804C21.1084 35.3804 20.4854 36.1859 20.4854 37.1577Z" fill="#1C1D1F"/>
<path d="M28.4395 39.0962V36.3765C28.4395 35.7483 28.0568 35.3462 27.3262 35.3462C26.6525 35.3462 26.1836 35.7357 26.1836 36.1812H25.2803C25.2803 35.4157 26.1302 34.6187 27.3799 34.6187C28.5381 34.6187 29.3428 35.2057 29.3428 36.3862C29.3428 37.3804 29.241 38.4213 29.3867 39.4087C29.419 39.6055 29.5283 39.8038 29.5283 39.9995H28.5859C28.5404 39.8953 28.5046 39.757 28.4785 39.5845C28.4525 39.4087 28.4395 39.2459 28.4395 39.0962ZM28.5957 36.7964L28.6055 37.4312C27.8223 37.4312 26.0762 37.1975 26.0762 38.4077C26.0762 38.9071 26.4264 39.3062 27.0869 39.3062C27.6832 39.3062 28.4861 38.8812 28.5273 38.2075L28.9131 38.6421C28.8903 38.7788 28.8285 38.9302 28.7275 39.0962C28.4305 39.5848 27.8303 40.0972 26.9551 40.0972C26.0508 40.0972 25.168 39.5131 25.168 38.5298C25.168 36.7566 27.3014 36.7964 28.5957 36.7964Z" fill="#1C1D1F"/>
<path d="M34.1865 34.7163H35.0068V39.8872C35.0068 41.208 34.0518 42.0845 32.7705 42.0845C32.0422 42.0845 31.2408 41.7784 30.8125 41.1665L31.2861 40.6294C31.7314 41.1663 32.2296 41.3423 32.7021 41.3423C33.56 41.3423 34.1035 40.8524 34.1035 39.9312V35.8784L34.1865 34.7163ZM30.5488 37.4165C30.5488 36.1394 31.1332 34.6187 32.6338 34.6187C33.2998 34.6187 33.7936 34.8559 34.1377 35.2974C34.4893 35.7336 34.6846 36.3569 34.7627 37.1382C34.7627 37.9228 34.6465 38.792 34.1377 39.4233C33.7935 39.8585 33.2963 40.0972 32.624 40.0972C31.1888 40.0972 30.5488 38.6599 30.5488 37.4165ZM31.4521 37.4165C31.4521 38.476 31.8662 39.3306 32.8438 39.3306C33.4427 39.3306 33.8219 39.0539 34.0498 38.6372C34.3841 38.0429 34.3232 37.445 34.3232 36.7817C34.2874 36.6027 34.2321 36.4302 34.1572 36.2642C33.9421 35.7558 33.5367 35.3804 32.8535 35.3804C31.7654 35.3804 31.4521 36.5268 31.4521 37.4165Z" fill="#1C1D1F"/>
<path d="M38.5713 40.0972C37.111 40.0972 36.1445 39.0352 36.1445 37.5435C36.1445 36.1511 36.854 34.6187 38.4541 34.6187C40.2101 34.6187 40.627 36.1562 40.627 37.6118H36.6816V36.8745H39.7236C39.7236 36.0888 39.2891 35.3608 38.4541 35.3608C37.3128 35.3608 37.0527 36.6406 37.0527 37.5435C37.0527 38.5474 37.643 39.3599 38.6201 39.3599C39.2581 39.3599 39.6797 39.0783 40.0117 38.6421L40.5586 39.0767C40.2181 39.5923 39.624 40.0972 38.5713 40.0972Z" fill="#1C1D1F"/>
<path d="M42.585 35.5464V39.9995H41.6816V34.7163H42.5605L42.585 35.5464ZM44.2354 34.687L44.2305 35.5269C44.084 35.495 43.9642 35.4878 43.791 35.4878C43.166 35.4878 42.7656 35.7905 42.5703 36.2788C42.5085 36.4383 42.4678 36.6141 42.4482 36.8062L42.1943 36.9526C42.1943 35.9323 42.6005 34.6187 43.835 34.6187C43.9647 34.6187 44.17 34.6544 44.2354 34.687Z" fill="#1C1D1F"/>
<path d="M31.4881 22.9126C30.2847 22.3017 28.4316 22.5731 28.4316 24.2471C28.4316 25.898 30.2888 26.2236 31.4881 25.5851V27.2641C29.2837 27.8764 26.7156 26.875 26.7156 24.2467C26.7156 21.6534 29.2902 20.5795 31.4881 21.2337V22.9126ZM15.0117 22.9126C13.8111 22.2887 11.9557 22.5834 11.9557 24.2471C11.9557 25.8881 13.8156 26.236 15.0117 25.5851V27.2641C12.8075 27.8826 10.2412 26.8702 10.2412 24.2467C10.2412 21.6572 12.8144 20.5752 15.0117 21.2337V22.9126ZM36.4536 22.6022C35.5171 22.6022 34.8216 23.3391 34.8216 24.2471C34.8216 25.1571 35.5171 25.8936 36.4536 25.8936C37.3891 25.8936 38.0866 25.1571 38.0866 24.2471C38.0866 23.3391 37.3891 22.6022 36.4536 22.6022ZM39.7591 24.2471C39.7591 26.0366 38.3776 27.4866 36.4541 27.4866C34.5296 27.4866 33.1501 26.0366 33.1501 24.2467C33.1501 22.4607 34.5301 21.0091 36.4536 21.0091C38.3776 21.0091 39.7591 22.4606 39.7591 24.2471ZM24.7461 22.5422C24.3078 22.4023 22.5356 22.0274 22.5356 22.8637C22.5356 23.3664 23.3153 23.4775 23.6946 23.5982C24.7196 23.9242 25.1861 24.6256 25.1861 25.3876C25.1861 27.6399 22.5015 27.6483 20.8927 27.3161V25.8761C21.4213 26.0092 23.5296 26.5307 23.5296 25.5251C23.5296 25.2081 23.2171 25.0251 22.8256 24.9021C21.8685 24.5797 20.8767 24.1433 20.8767 22.9631C20.8767 20.9222 23.2621 20.812 24.7461 21.2067V22.5422Z" fill="#049FD9"/>
<path d="M18.76 27.3759H17.1815V21.1204H18.76V27.3759Z" fill="#049FD9"/>
<path d="M8.56749 14.3979C8.56749 13.9669 8.21549 13.6174 7.784 13.6174C7.3525 13.6174 7 13.9669 7 14.3974V16.0399C7.01033 16.4488 7.37475 16.8041 7.78375 16.8041C8.19275 16.8041 8.55717 16.4488 8.56749 16.0399V14.3979ZM12.872 12.2429C12.872 11.8161 12.5151 11.4592 12.0882 11.4592C11.6613 11.4592 11.3045 11.816 11.3045 12.2429V16.0399C11.3045 16.4668 11.6613 16.8237 12.0882 16.8237C12.5151 16.8237 12.872 16.4668 12.872 16.0399V12.2429ZM17.177 9.29394C17.177 8.86294 16.825 8.51294 16.3935 8.51294C15.9615 8.51294 15.6095 8.86294 15.6095 9.29394V17.6004C15.6198 18.0093 15.9842 18.3646 16.3932 18.3646C16.8022 18.3646 17.1666 18.0093 17.177 17.6004V9.29394ZM21.4814 12.2429C21.4814 11.816 21.1246 11.4592 20.6977 11.4592C20.2708 11.4592 19.9139 11.816 19.9139 12.2429V16.0399C19.9139 16.4668 20.2708 16.8237 20.6977 16.8237C21.1246 16.8237 21.4814 16.4668 21.4814 16.0399V12.2429ZM25.7814 14.3979C25.7817 13.9844 25.416 13.6179 25.0024 13.6174C24.5879 13.6171 24.2205 13.9829 24.2189 14.3974V16.0399C24.2189 16.4654 24.5746 16.8212 25.0002 16.8212C25.4146 16.8212 25.7814 16.4543 25.7814 16.0399V14.3979ZM30.0879 12.2429C30.0776 11.8354 29.7143 11.4812 29.3066 11.4812C28.899 11.4812 28.5357 11.8354 28.5254 12.2429V16.0399C28.5254 16.4654 28.8811 16.8212 29.3066 16.8212C29.721 16.8212 30.0879 16.4543 30.0879 16.0399V12.2429ZM34.3954 9.29394C34.3954 8.86842 34.0396 8.5127 33.6141 8.5127C33.1886 8.5127 32.8329 8.86842 32.8329 9.29394V17.6004C32.814 18.0319 33.1773 18.4166 33.6141 18.4166C34.0461 18.4166 34.4145 18.0368 34.3954 17.6004V9.29394ZM38.7018 12.2429C38.7018 11.8114 38.3523 11.4609 37.9108 11.4609C37.4965 11.4612 37.1299 11.8281 37.1299 12.2424V16.0399C37.1299 16.4734 37.4798 16.8229 37.9108 16.8229C38.3523 16.8229 38.7018 16.4734 38.7018 16.0399V12.2429ZM43.0003 14.3979C43.0003 13.972 42.6443 13.6159 42.2183 13.6159C41.7924 13.6159 41.4363 13.972 41.4363 14.3979V16.0399C41.4363 16.4734 41.7868 16.8234 42.2183 16.8234C42.6493 16.8234 42.9998 16.4734 42.9998 16.0399L43.0003 14.3979Z" fill="#049FD9"/>
</svg>
