<svg width="50" height="50" viewBox="0 0 50 50" fill="none" xmlns="http://www.w3.org/2000/svg">
<path d="M18.1277 35.3267H16.3891V28.4369H18.1277V35.3267Z" fill="#049FD9"/>
<path d="M32.1466 30.411C30.8212 29.7381 28.7802 30.037 28.7802 31.8808C28.7802 33.6991 30.8256 34.0577 32.1466 33.3545V35.2037C29.7187 35.8781 26.8902 34.7751 26.8902 31.8802C26.8902 29.0241 29.7259 27.8412 32.1466 28.5617V30.411ZM13.9995 30.411C12.6771 29.7238 10.6336 30.0483 10.6336 31.8808C10.6336 33.6881 12.6821 34.0713 13.9995 33.3545V35.2037C11.5718 35.8849 8.74528 34.7699 8.74528 31.8802C8.74528 29.0282 11.5794 27.8366 13.9995 28.5617V30.411ZM37.6156 30.069C36.5841 30.069 35.8181 30.8807 35.8181 31.8808C35.8181 32.8831 36.5841 33.6943 37.6156 33.6943C38.6459 33.6943 39.4141 32.8831 39.4141 31.8808C39.4141 30.8807 38.6459 30.069 37.6156 30.069ZM41.2562 31.8808C41.2562 33.8517 39.7346 35.4488 37.6161 35.4488C35.4965 35.4488 33.9771 33.8517 33.9771 31.8802C33.9771 29.9132 35.497 28.3145 37.6156 28.3145C39.7347 28.3145 41.2562 29.9131 41.2562 31.8808ZM24.721 30.0029C24.2382 29.8488 22.2864 29.436 22.2864 30.357C22.2864 30.7767 22.7974 30.9231 23.0832 31.0134C24.1255 31.3449 25.2056 31.8714 25.2056 33.1369C25.2056 35.6176 22.2488 35.6268 20.4768 35.261V33.675C21.059 33.8216 23.3812 34.3959 23.3812 33.2884C23.3812 32.7485 22.6433 32.6156 22.2346 32.4821C21.2665 32.176 20.4592 31.6065 20.4592 30.4666C20.4592 28.2187 23.0864 28.0973 24.721 28.532V30.0029Z" fill="#049FD9"/>
<path d="M6.90124 21.0328C6.90124 20.5581 6.51355 20.1731 6.0383 20.1731C5.56305 20.1731 5.1748 20.558 5.1748 21.0322V22.8413C5.18647 23.3032 5.57598 23.6829 6.03802 23.6829C6.50006 23.6829 6.88957 23.3031 6.90124 22.8413V21.0328ZM11.6422 18.6593C11.6422 18.1891 11.2491 17.796 10.779 17.796C10.3088 17.796 9.91576 18.1891 9.91576 18.6593V22.8413C9.91576 23.3114 10.3088 23.7045 10.779 23.7045C11.2491 23.7045 11.6422 23.3114 11.6422 22.8413V18.6593ZM16.3837 15.4112C16.3837 14.9365 15.996 14.5511 15.5208 14.5511C15.0449 14.5511 14.6573 14.9365 14.6573 15.4112V24.56C14.6689 25.0218 15.0584 25.4017 15.5205 25.4017C15.9825 25.4017 16.372 25.0218 16.3837 24.56V15.4112ZM21.1246 18.6593C21.1246 18.1891 20.7316 17.796 20.2614 17.796C19.7913 17.796 19.3982 18.1891 19.3982 18.6593V22.8413C19.3982 23.3114 19.7913 23.7045 20.2614 23.7045C20.7316 23.7045 21.1246 23.3114 21.1246 22.8413V18.6593ZM25.8606 21.0328C25.8609 20.5651 25.4704 20.1737 25.0027 20.1731C24.534 20.1728 24.1415 20.5636 24.1397 21.0322V22.8413C24.1397 23.3099 24.5315 23.7017 25.0002 23.7017C25.4688 23.7017 25.8606 23.3099 25.8606 22.8413V21.0328ZM30.6038 18.6593C30.5921 18.1989 30.2039 17.8203 29.7433 17.8203C29.2828 17.8203 28.8945 18.1989 28.8829 18.6593V22.8413C28.8829 23.3099 29.2747 23.7017 29.7433 23.7017C30.212 23.7017 30.6038 23.3099 30.6038 22.8413V18.6593ZM35.348 15.4112C35.348 14.9426 34.9563 14.5508 34.4876 14.5508C34.0189 14.5508 33.6271 14.9426 33.6271 15.4112V24.56C33.6063 25.0353 34.0064 25.459 34.4876 25.459C34.9634 25.459 35.3691 25.0406 35.348 24.56V15.4112ZM40.0912 18.6593C40.0912 18.184 39.7063 17.798 39.22 17.798C38.7514 17.7983 38.3598 18.1901 38.3598 18.6587V22.8413C38.3598 23.3187 38.7453 23.7036 39.22 23.7036C39.7063 23.7036 40.0912 23.3187 40.0912 22.8413V18.6593ZM44.8255 21.0328C44.8255 20.5636 44.4334 20.1715 43.9642 20.1715C43.4951 20.1715 43.103 20.5636 43.103 21.0328V22.8413C43.103 23.3187 43.489 23.7042 43.9642 23.7042C44.4389 23.7042 44.825 23.3187 44.825 22.8413L44.8255 21.0328Z" fill="#049FD9"/>
</svg>
