<svg width="50" height="50" viewBox="0 0 50 50" fill="none" xmlns="http://www.w3.org/2000/svg">
<rect width="50" height="50" fill="#75BC55"/>
<path fill-rule="evenodd" clip-rule="evenodd" d="M19.65 19.015C19.65 19.015 19.65 19.3522 19.65 24.8873C19.65 30.4225 19.5919 29.8238 19.5919 29.8238C19.5919 33.5001 14.25 33.5001 14.3081 29.7905L14.25 24.9144C14.25 19.4367 14.25 19.1026 14.25 19.1026C14.3081 15.5001 19.5026 15.5001 19.65 19.015ZM25.6 21.3723L29.3169 29.3129C29.3169 29.3129 30.0003 31.5001 28.1063 32.4486C25.7394 33.6339 24.3021 31.3852 24.3021 31.3852L20.5965 23.5333C20.5965 23.5333 19.9687 21.0133 22.2345 20.0657C24.5003 19.118 25.6 21.3723 25.6 21.3723ZM33.174 21.0817L36.9999 29.1167C36.9999 29.1167 37.6819 31.2178 35.925 32.4177C33.5003 33.5001 32.1667 31.5951 32.1667 31.5951L28.4017 23.6667C28.4017 23.6667 27.452 21.3723 29.6322 20.2179C32.0003 19.0001 33.174 21.0817 33.174 21.0817Z" fill="white"/>
</svg>
