<svg width="50" height="50" viewBox="0 0 50 50" fill="none" xmlns="http://www.w3.org/2000/svg">
<rect width="50" height="49.9999" fill="#049FD9"/>
<path d="M31.4881 22.9128C31.4231 22.8798 30.9151 22.5788 30.1601 22.5788C29.1396 22.5788 28.4316 23.2888 28.4316 24.2472C28.4316 25.1767 29.1091 25.9172 30.1601 25.9172C30.9021 25.9172 31.4186 25.6222 31.4881 25.5852V27.2642C31.2901 27.3192 30.7506 27.4867 30.0496 27.4867C28.2741 27.4867 26.7156 26.2627 26.7156 24.2468C26.7156 22.3793 28.1256 21.0093 30.0496 21.0093C30.7896 21.0093 31.3386 21.1893 31.4881 21.2338V22.9128ZM15.0117 22.9128C14.9482 22.8798 14.4407 22.5788 13.6857 22.5788C12.6632 22.5788 11.9557 23.2888 11.9557 24.2472C11.9557 25.1767 12.6337 25.9172 13.6857 25.9172C14.4277 25.9172 14.9437 25.6222 15.0117 25.5852V27.2642C14.8157 27.3192 14.2767 27.4867 13.5717 27.4867C11.7977 27.4867 10.2412 26.2627 10.2412 24.2468C10.2412 22.3793 11.6512 21.0093 13.5722 21.0093C14.3152 21.0093 14.8632 21.1893 15.0117 21.2338V22.9128ZM36.4536 22.6023C35.5171 22.6023 34.8216 23.3393 34.8216 24.2472C34.8216 25.1572 35.5171 25.8938 36.4536 25.8938C37.3891 25.8938 38.0866 25.1572 38.0866 24.2472C38.0866 23.3393 37.3891 22.6023 36.4536 22.6023ZM39.7591 24.2472C39.7591 26.0367 38.3776 27.4867 36.4541 27.4867C34.5296 27.4867 33.1501 26.0367 33.1501 24.2468C33.1501 22.4608 34.5301 21.0093 36.4536 21.0093C38.3776 21.0093 39.7591 22.4608 39.7591 24.2472ZM24.7461 22.5423C24.7226 22.5348 24.0581 22.3513 23.5121 22.3513C22.8796 22.3513 22.5356 22.5633 22.5356 22.8638C22.5356 23.2448 22.9996 23.3777 23.2591 23.4597L23.6946 23.5983C24.7196 23.9243 25.1861 24.6257 25.1861 25.3877C25.1861 26.9592 23.8041 27.4872 22.5961 27.4872C21.7566 27.4872 20.9702 27.3322 20.8927 27.3162V25.8762C21.0317 25.9112 21.6937 26.1092 22.3831 26.1092C23.1686 26.1092 23.5296 25.8793 23.5296 25.5253C23.5296 25.2083 23.2171 25.0252 22.8256 24.9022C22.7306 24.8702 22.5866 24.8252 22.4886 24.7932C21.6097 24.5152 20.8767 23.9983 20.8767 22.9633C20.8767 21.7933 21.7526 21.0078 23.2076 21.0078C23.9761 21.0078 24.6991 21.1943 24.7461 21.2068V22.5423Z" fill="#049FD9"/>
<path d="M18.76 27.3758H17.1815V21.1204H18.76V27.3758Z" fill="#049FD9"/>
<path d="M8.56749 14.398C8.56749 13.967 8.21549 13.6175 7.784 13.6175C7.3525 13.6175 7 13.967 7 14.3975V16.04C7.00516 16.2445 7.09 16.4388 7.23642 16.5815C7.38284 16.7243 7.57925 16.8042 7.78375 16.8042C7.98825 16.8042 8.18465 16.7243 8.33107 16.5815C8.47749 16.4388 8.56233 16.2445 8.56749 16.04V14.398ZM12.872 12.243C12.872 12.0352 12.7894 11.8358 12.6424 11.6889C12.4954 11.5419 12.2961 11.4593 12.0882 11.4593C11.8804 11.4593 11.681 11.5419 11.534 11.6889C11.3871 11.8358 11.3045 12.0352 11.3045 12.243V16.04C11.3045 16.2479 11.3871 16.4472 11.534 16.5942C11.681 16.7412 11.8804 16.8238 12.0882 16.8238C12.2961 16.8238 12.4954 16.7412 12.6424 16.5942C12.7894 16.4472 12.872 16.2479 12.872 16.04V12.243ZM17.177 9.29406C17.177 8.86307 16.825 8.51306 16.3935 8.51306C15.9615 8.51306 15.6095 8.86307 15.6095 9.29406V17.6005C15.6146 17.8049 15.6995 17.9993 15.8459 18.142C15.9923 18.2848 16.1887 18.3647 16.3932 18.3647C16.5977 18.3647 16.7941 18.2848 16.9405 18.142C17.0869 17.9993 17.1718 17.8049 17.177 17.6005V9.29406ZM21.4814 12.243C21.4814 12.0352 21.3989 11.8358 21.2519 11.6889C21.1049 11.5419 20.9055 11.4593 20.6977 11.4593C20.4898 11.4593 20.2905 11.5419 20.1435 11.6889C19.9965 11.8358 19.9139 12.0352 19.9139 12.243V16.04C19.9139 16.2479 19.9965 16.4472 20.1435 16.5942C20.2905 16.7412 20.4898 16.8238 20.6977 16.8238C20.9055 16.8238 21.1049 16.7412 21.2519 16.5942C21.3989 16.4472 21.4814 16.2479 21.4814 16.04V12.243ZM25.7814 14.398C25.7815 14.1912 25.6996 13.9929 25.5535 13.8465C25.4074 13.7002 25.2092 13.6178 25.0024 13.6175C24.7952 13.6174 24.5963 13.6994 24.4495 13.8456C24.3026 13.9918 24.2197 14.1903 24.2189 14.3975V16.04C24.2189 16.2472 24.3012 16.4459 24.4477 16.5924C24.5942 16.739 24.793 16.8213 25.0002 16.8213C25.2074 16.8213 25.4061 16.739 25.5526 16.5924C25.6991 16.4459 25.7814 16.2472 25.7814 16.04V14.398ZM30.0879 12.243C30.0827 12.0393 29.9982 11.8456 29.8522 11.7033C29.7063 11.561 29.5105 11.4813 29.3066 11.4813C29.1028 11.4813 28.907 11.561 28.7611 11.7033C28.6151 11.8456 28.5306 12.0393 28.5254 12.243V16.04C28.5254 16.2472 28.6077 16.4459 28.7542 16.5924C28.9007 16.739 29.0994 16.8213 29.3066 16.8213C29.5138 16.8213 29.7125 16.739 29.8591 16.5924C30.0056 16.4459 30.0879 16.2472 30.0879 16.04V12.243ZM34.3954 9.29406C34.3954 9.08686 34.3131 8.88815 34.1665 8.74164C34.02 8.59513 33.8213 8.51282 33.6141 8.51282C33.4069 8.51282 33.2082 8.59513 33.0617 8.74164C32.9152 8.88815 32.8329 9.08686 32.8329 9.29406V17.6005C32.8282 17.706 32.845 17.8113 32.8822 17.9101C32.9194 18.0089 32.9762 18.0992 33.0492 18.1754C33.1222 18.2517 33.2099 18.3124 33.307 18.3539C33.4041 18.3953 33.5085 18.4167 33.6141 18.4167C33.7197 18.4167 33.8242 18.3953 33.9213 18.3539C34.0184 18.3124 34.106 18.2517 34.179 18.1754C34.252 18.0992 34.3088 18.0089 34.346 17.9101C34.3832 17.8113 34.4 17.706 34.3954 17.6005V9.29406ZM38.7018 12.243C38.7018 11.8115 38.3523 11.461 37.9108 11.461C37.7037 11.4612 37.505 11.5436 37.3586 11.6901C37.2121 11.8366 37.1299 12.0353 37.1299 12.2425V16.04C37.1299 16.4735 37.4798 16.823 37.9108 16.823C38.3523 16.823 38.7018 16.4735 38.7018 16.04V12.243ZM43.0003 14.398C43.0003 14.1906 42.9179 13.9917 42.7713 13.8451C42.6246 13.6984 42.4257 13.616 42.2183 13.616C42.0109 13.616 41.812 13.6984 41.6654 13.8451C41.5187 13.9917 41.4363 14.1906 41.4363 14.398V16.04C41.4363 16.4735 41.7868 16.8235 42.2183 16.8235C42.6493 16.8235 42.9998 16.4735 42.9998 16.04L43.0003 14.398Z" fill="#049FD9"/>
<path d="M22.2072 36.6903C22.2072 36.0268 21.8775 35.7094 20.5177 35.3134C19.1069 34.8954 18.2131 34.3193 18.2131 33.2138C18.2131 32.0977 19.1837 31.2802 20.63 31.2802C21.8764 31.2802 23.1349 32.0914 23.1349 33.4286H22.1974C22.1974 32.6198 21.6862 32.0517 20.63 32.0517C19.627 32.0517 19.1554 32.5362 19.1554 33.204C19.1554 33.805 19.6659 34.1724 20.8205 34.4931C22.4328 34.9481 23.1545 35.5682 23.1545 36.6806C23.1545 37.8357 22.1858 38.5849 20.674 38.5849C19.4029 38.5849 17.9884 37.8245 17.9884 36.4267H18.9259C18.9259 37.4018 19.7726 37.8183 20.674 37.8183C21.6633 37.8183 22.2072 37.3795 22.2072 36.6903Z" fill="white"/>
<path d="M27.6369 31.3778H28.3205L26.4064 38.4872H25.7277L27.6369 31.3778ZM24.7658 31.3778L26.2257 38.4872H25.5519L23.8283 31.3778H24.7658ZM31.2453 31.3778H32.1877L30.4689 38.4872H29.7951L31.2453 31.3778ZM28.423 31.3778L30.2931 38.4872H29.6144L27.7492 31.3778H28.423Z" fill="white"/>
<path d="M31.4881 22.9126C30.2847 22.3017 28.4316 22.5731 28.4316 24.2471C28.4316 25.898 30.2888 26.2236 31.4881 25.5851V27.2641C29.2837 27.8764 26.7156 26.875 26.7156 24.2467C26.7156 21.6534 29.2902 20.5795 31.4881 21.2337V22.9126ZM15.0117 22.9126C13.8111 22.2887 11.9557 22.5834 11.9557 24.2471C11.9557 25.8881 13.8156 26.236 15.0117 25.5851V27.2641C12.8075 27.8826 10.2412 26.8702 10.2412 24.2467C10.2412 21.6572 12.8144 20.5752 15.0117 21.2337V22.9126ZM36.4536 22.6022C35.5171 22.6022 34.8216 23.3391 34.8216 24.2471C34.8216 25.1571 35.5171 25.8936 36.4536 25.8936C37.3891 25.8936 38.0866 25.1571 38.0866 24.2471C38.0866 23.3391 37.3891 22.6022 36.4536 22.6022ZM39.7591 24.2471C39.7591 26.0366 38.3776 27.4866 36.4541 27.4866C34.5296 27.4866 33.1501 26.0366 33.1501 24.2467C33.1501 22.4607 34.5301 21.0091 36.4536 21.0091C38.3776 21.0091 39.7591 22.4606 39.7591 24.2471ZM24.7461 22.5422C24.3078 22.4023 22.5356 22.0274 22.5356 22.8637C22.5356 23.3664 23.3153 23.4775 23.6946 23.5982C24.7196 23.9242 25.1861 24.6256 25.1861 25.3876C25.1861 27.6399 22.5015 27.6483 20.8927 27.3161V25.8761C21.4213 26.0092 23.5296 26.5307 23.5296 25.5251C23.5296 25.2081 23.2171 25.0251 22.8256 24.9021C21.8685 24.5797 20.8767 24.1433 20.8767 22.9631C20.8767 20.9222 23.2621 20.812 24.7461 21.2067V22.5422Z" fill="white"/>
<path d="M18.76 27.3759H17.1815V21.1204H18.76V27.3759Z" fill="white"/>
<path d="M8.56749 14.3979C8.56749 13.9669 8.21549 13.6174 7.784 13.6174C7.3525 13.6174 7 13.9669 7 14.3974V16.0399C7.01033 16.4488 7.37475 16.8041 7.78375 16.8041C8.19275 16.8041 8.55717 16.4488 8.56749 16.0399V14.3979ZM12.872 12.2429C12.872 11.8161 12.5151 11.4592 12.0882 11.4592C11.6613 11.4592 11.3045 11.816 11.3045 12.2429V16.0399C11.3045 16.4668 11.6613 16.8237 12.0882 16.8237C12.5151 16.8237 12.872 16.4668 12.872 16.0399V12.2429ZM17.177 9.29394C17.177 8.86294 16.825 8.51294 16.3935 8.51294C15.9615 8.51294 15.6095 8.86294 15.6095 9.29394V17.6004C15.6198 18.0093 15.9842 18.3646 16.3932 18.3646C16.8022 18.3646 17.1666 18.0093 17.177 17.6004V9.29394ZM21.4814 12.2429C21.4814 11.816 21.1246 11.4592 20.6977 11.4592C20.2708 11.4592 19.9139 11.816 19.9139 12.2429V16.0399C19.9139 16.4668 20.2708 16.8237 20.6977 16.8237C21.1246 16.8237 21.4814 16.4668 21.4814 16.0399V12.2429ZM25.7814 14.3979C25.7817 13.9844 25.416 13.6179 25.0024 13.6174C24.5879 13.6171 24.2205 13.9829 24.2189 14.3974V16.0399C24.2189 16.4654 24.5746 16.8212 25.0002 16.8212C25.4146 16.8212 25.7814 16.4543 25.7814 16.0399V14.3979ZM30.0879 12.2429C30.0776 11.8354 29.7143 11.4812 29.3066 11.4812C28.899 11.4812 28.5357 11.8354 28.5254 12.2429V16.0399C28.5254 16.4654 28.8811 16.8212 29.3066 16.8212C29.721 16.8212 30.0879 16.4543 30.0879 16.0399V12.2429ZM34.3954 9.29394C34.3954 8.86842 34.0396 8.5127 33.6141 8.5127C33.1886 8.5127 32.8329 8.86842 32.8329 9.29394V17.6004C32.814 18.0319 33.1773 18.4166 33.6141 18.4166C34.0461 18.4166 34.4145 18.0368 34.3954 17.6004V9.29394ZM38.7018 12.2429C38.7018 11.8114 38.3523 11.4609 37.9108 11.4609C37.4965 11.4612 37.1299 11.8281 37.1299 12.2424V16.0399C37.1299 16.4734 37.4798 16.8229 37.9108 16.8229C38.3523 16.8229 38.7018 16.4734 38.7018 16.0399V12.2429ZM43.0003 14.3979C43.0003 13.972 42.6443 13.6159 42.2183 13.6159C41.7924 13.6159 41.4363 13.972 41.4363 14.3979V16.0399C41.4363 16.4734 41.7868 16.8234 42.2183 16.8234C42.6493 16.8234 42.9998 16.4734 42.9998 16.0399L43.0003 14.3979Z" fill="white"/>
</svg>
