<svg width="50" height="50" viewBox="0 0 50 50" fill="none" xmlns="http://www.w3.org/2000/svg">
<rect width="50" height="50" fill="#049FD9"/>
<path d="M31.4881 22.9126C30.2847 22.3017 28.4316 22.5731 28.4316 24.2471C28.4316 25.898 30.2888 26.2236 31.4881 25.5851V27.2641C29.2837 27.8764 26.7156 26.875 26.7156 24.2467C26.7156 21.6534 29.2902 20.5795 31.4881 21.2337V22.9126ZM15.0117 22.9126C13.8111 22.2887 11.9557 22.5834 11.9557 24.2471C11.9557 25.8881 13.8156 26.236 15.0117 25.5851V27.2641C12.8075 27.8826 10.2412 26.8702 10.2412 24.2467C10.2412 21.6572 12.8144 20.5752 15.0117 21.2337V22.9126ZM36.4536 22.6022C35.5171 22.6022 34.8216 23.3391 34.8216 24.2471C34.8216 25.1571 35.5171 25.8936 36.4536 25.8936C37.3891 25.8936 38.0866 25.1571 38.0866 24.2471C38.0866 23.3391 37.3891 22.6022 36.4536 22.6022ZM39.7591 24.2471C39.7591 26.0366 38.3776 27.4866 36.4541 27.4866C34.5296 27.4866 33.1501 26.0366 33.1501 24.2467C33.1501 22.4607 34.5301 21.0091 36.4536 21.0091C38.3776 21.0091 39.7591 22.4606 39.7591 24.2471ZM24.7461 22.5422C24.3078 22.4023 22.5356 22.0274 22.5356 22.8637C22.5356 23.3664 23.3153 23.4775 23.6946 23.5982C24.7196 23.9242 25.1861 24.6256 25.1861 25.3876C25.1861 27.6399 22.5015 27.6483 20.8927 27.3161V25.8761C21.4213 26.0092 23.5296 26.5307 23.5296 25.5251C23.5296 25.2081 23.2171 25.0251 22.8256 24.9021C21.8685 24.5797 20.8767 24.1433 20.8767 22.9631C20.8767 20.9222 23.2621 20.812 24.7461 21.2067V22.5422Z" fill="white"/>
<path d="M18.76 27.3759H17.1815V21.1204H18.76V27.3759Z" fill="white"/>
<path d="M8.56749 14.3979C8.56749 13.9669 8.21549 13.6174 7.784 13.6174C7.3525 13.6174 7 13.9669 7 14.3974V16.0399C7.01033 16.4488 7.37475 16.8041 7.78375 16.8041C8.19275 16.8041 8.55717 16.4488 8.56749 16.0399V14.3979ZM12.872 12.2429C12.872 11.8161 12.5151 11.4592 12.0882 11.4592C11.6613 11.4592 11.3045 11.816 11.3045 12.2429V16.0399C11.3045 16.4668 11.6613 16.8237 12.0882 16.8237C12.5151 16.8237 12.872 16.4668 12.872 16.0399V12.2429ZM17.177 9.29394C17.177 8.86294 16.825 8.51294 16.3935 8.51294C15.9615 8.51294 15.6095 8.86294 15.6095 9.29394V17.6004C15.6198 18.0093 15.9842 18.3646 16.3932 18.3646C16.8022 18.3646 17.1666 18.0093 17.177 17.6004V9.29394ZM21.4814 12.2429C21.4814 11.816 21.1246 11.4592 20.6977 11.4592C20.2708 11.4592 19.9139 11.816 19.9139 12.2429V16.0399C19.9139 16.4668 20.2708 16.8237 20.6977 16.8237C21.1246 16.8237 21.4814 16.4668 21.4814 16.0399V12.2429ZM25.7814 14.3979C25.7817 13.9844 25.416 13.6179 25.0024 13.6174C24.5879 13.6171 24.2205 13.9829 24.2189 14.3974V16.0399C24.2189 16.4654 24.5746 16.8212 25.0002 16.8212C25.4146 16.8212 25.7814 16.4543 25.7814 16.0399V14.3979ZM30.0879 12.2429C30.0776 11.8354 29.7143 11.4812 29.3066 11.4812C28.899 11.4812 28.5357 11.8354 28.5254 12.2429V16.0399C28.5254 16.4654 28.8811 16.8212 29.3066 16.8212C29.721 16.8212 30.0879 16.4543 30.0879 16.0399V12.2429ZM34.3954 9.29394C34.3954 8.86842 34.0396 8.5127 33.6141 8.5127C33.1886 8.5127 32.8329 8.86842 32.8329 9.29394V17.6004C32.814 18.0319 33.1773 18.4166 33.6141 18.4166C34.0461 18.4166 34.4145 18.0368 34.3954 17.6004V9.29394ZM38.7018 12.2429C38.7018 11.8114 38.3523 11.4609 37.9108 11.4609C37.4965 11.4612 37.1299 11.8281 37.1299 12.2424V16.0399C37.1299 16.4734 37.4798 16.8229 37.9108 16.8229C38.3523 16.8229 38.7018 16.4734 38.7018 16.0399V12.2429ZM43.0003 14.3979C43.0003 13.972 42.6443 13.6159 42.2183 13.6159C41.7924 13.6159 41.4363 13.972 41.4363 14.3979V16.0399C41.4363 16.4734 41.7868 16.8234 42.2183 16.8234C42.6493 16.8234 42.9998 16.4734 42.9998 16.0399L43.0003 14.3979Z" fill="white"/>
<path d="M18.9124 32V37.2953H18.1639L15.3358 33.2111V37.2953H14.5912V32H15.3358L18.1754 36.0951V32H18.9124Z" fill="white"/>
<path d="M21.8562 37.368C20.7023 37.368 19.9386 36.577 19.9386 35.4659C19.9386 34.4323 20.49 33.2874 21.7636 33.2874C23.0795 33.2874 23.4805 34.4289 23.4805 35.5168H20.363V34.9677H22.7667C22.7667 34.3956 22.4327 33.8402 21.7636 33.8402C20.8432 33.8402 20.6563 34.7847 20.6563 35.4659C20.6563 36.2137 21.1227 36.8188 21.8947 36.8188C22.3989 36.8188 22.732 36.6091 22.9943 36.2842L23.4264 36.6079C23.1574 36.992 22.688 37.368 21.8562 37.368Z" fill="white"/>
<path d="M24.7961 33.3602L25.7105 34.7931L26.6364 33.3602H27.4737L26.1079 35.3023L27.5161 37.2953H26.6905L25.7259 35.8187L24.7614 37.2953H23.9319L25.3362 35.3023L23.9743 33.3602H24.7961Z" fill="white"/>
<path d="M30.7879 36.386V33.3602H31.5055V37.2953H30.8226L30.7879 36.386ZM30.9229 35.5568L31.22 35.5496C31.22 36.0699 31.1123 36.5246 30.8534 36.8516C30.5968 37.1757 30.1861 37.368 29.588 37.368C28.7842 37.368 28.2183 36.9528 28.2183 35.8987V33.3602H28.9321V35.906C28.9321 36.6123 29.3153 36.797 29.6999 36.797C30.6192 36.797 30.9229 36.2392 30.9229 35.5568Z" fill="white"/>
<path d="M34.9547 35.9824C34.8675 35.8132 34.6158 35.6736 34.0635 35.5714C33.1518 35.39 32.5588 35.0927 32.5588 34.4367C32.5588 33.685 33.3946 33.2874 34.1059 33.2874C35.1059 33.2874 35.6955 33.836 35.6955 34.5167H34.9817C34.9817 34.1896 34.6737 33.8402 34.1059 33.8402C33.524 33.8402 33.2764 34.1227 33.2764 34.4185C33.2764 34.7027 33.4443 34.8587 34.2371 35.0259C35.2634 35.2441 35.7379 35.5678 35.7379 36.2006C35.7379 37.0133 34.8695 37.368 34.1252 37.368C33.3232 37.368 32.416 36.9257 32.416 36.0805H33.1336C33.1619 36.586 33.6429 36.8152 34.1252 36.8152C34.6113 36.8152 35.2502 36.5085 34.9547 35.9824Z" fill="white"/>
<path d="M8.52013 43.9273H7.34724L7.35495 43.3563H8.52013C9.94163 43.3563 10.3296 42.2481 10.3296 41.116C10.3296 39.893 9.7019 39.2066 8.58957 39.2066H7.32409V38.632H8.58957C10.0549 38.632 11.0665 39.5815 11.0665 41.1232C11.0665 42.6398 10.3105 43.9273 8.52013 43.9273ZM7.74463 38.632V43.9273H7V38.632H7.74463Z" fill="white"/>
<path d="M14.5389 41.2287C14.5389 40.7608 14.2365 40.4613 13.6592 40.4613C13.1269 40.4613 12.7564 40.7515 12.7564 41.0832H12.0426C12.0426 40.3119 13.0029 39.9195 13.7017 39.9195C14.6169 39.9195 15.2527 40.3567 15.2527 41.236V43.069C15.2527 43.3653 15.3993 43.6424 15.3993 43.9273H14.6546C14.2886 43.1386 14.5389 42.0592 14.5389 41.2287ZM14.6624 41.5415L14.6701 42.0143H13.9486C13.1417 42.0143 12.6715 42.2491 12.6715 42.7416C12.6715 43.1136 12.9482 43.4108 13.4702 43.4108C13.9414 43.4108 14.5758 43.0943 14.6083 42.5925L14.9131 42.9162C14.8421 43.3177 14.2926 44 13.366 44C12.5215 44 11.9539 43.4877 11.9539 42.8326C11.9539 41.9781 12.6983 41.5415 13.8328 41.5415H14.6624Z" fill="white"/>
<path d="M18.806 42.8835C18.806 42.591 18.6716 42.3563 17.8454 42.2034C16.9337 42.022 16.3407 41.7247 16.3407 41.0687C16.3407 40.4412 16.9584 39.9195 17.8878 39.9195C18.8878 39.9195 19.4774 40.4681 19.4774 41.1487H18.7636C18.7636 40.714 18.2972 40.4723 17.8878 40.4723C17.3059 40.4723 17.0583 40.7547 17.0583 41.0505C17.0583 41.3347 17.2262 41.4907 18.019 41.6579C19.0453 41.8761 19.5198 42.1998 19.5198 42.8326C19.5198 43.6453 18.6514 44 17.9071 44C17.1051 44 16.1979 43.5577 16.1979 42.7126H16.9155C16.9438 43.218 17.4248 43.4472 17.9071 43.4472C18.5002 43.4472 18.806 43.209 18.806 42.8835Z" fill="white"/>
<path d="M21.1711 38.3411V43.9273H20.4574V38.3411H21.1711ZM21.0014 41.8106L20.7043 41.7997C20.7131 40.873 21.3145 39.9195 22.4019 39.9195C23.3275 39.9195 23.7407 40.5579 23.7407 41.3487V43.9273H23.023V41.3415C23.023 40.7149 22.7241 40.4868 22.1897 40.4868C21.4458 40.4868 21.0014 41.1719 21.0014 41.8106Z" fill="white"/>
<path d="M24.8055 38.3411H25.5231V43.1635L25.4614 43.9273H24.8055V38.3411ZM28.3435 42.0034C28.3435 43.1399 27.7607 44 26.7192 44C25.4324 44 25.0254 42.8189 25.0254 41.7961C25.1499 40.6227 25.6715 39.9195 26.7115 39.9195C27.9314 39.9195 28.3435 41.0271 28.3435 42.0034ZM27.6259 42.0034C27.6259 41.319 27.3942 40.4868 26.534 40.4868C25.8312 40.4868 25.4891 40.9817 25.3727 41.5306C25.3727 42.3142 25.3957 43.429 26.5417 43.429C27.3296 43.429 27.6259 42.7814 27.6259 42.0034Z" fill="white"/>
<path d="M29.0572 41.9197C29.0572 40.8827 29.7644 39.9195 30.9516 39.9195C32.2016 39.9195 32.8576 40.9233 32.8576 42.0034C32.8576 43.0586 32.1183 44 30.9593 44C29.7164 44 29.0572 43.0006 29.0572 41.9197ZM29.771 41.9197C29.771 42.6235 30.0733 43.4472 30.9593 43.4472C31.7687 43.4472 32.1399 42.6853 32.1399 42.0034C32.1399 41.303 31.8056 40.4723 30.9516 40.4723C30.1877 40.4723 29.771 41.1253 29.771 41.9197Z" fill="white"/>
<path d="M36.1139 40.825C35.9853 40.5923 35.7203 40.4613 35.3345 40.4613C34.8022 40.4613 34.4317 40.7515 34.4317 41.0832H33.7179C33.7179 40.3119 34.6781 39.9195 35.377 39.9195C35.9868 39.9195 36.4662 40.114 36.7273 40.505C36.8611 40.6989 36.9279 40.9426 36.9279 41.236V43.069C36.9279 43.3643 37.0746 43.6468 37.0746 43.9273H36.3299C35.8778 42.9532 36.63 41.7045 36.1139 40.825ZM36.3376 41.5415L36.3454 42.0143H35.6239C34.817 42.0143 34.3468 42.2491 34.3468 42.7416C34.3468 43.1136 34.6235 43.4108 35.1455 43.4108C35.6266 43.4108 36.2508 43.0977 36.2836 42.5925L36.5884 42.9162C36.4739 43.5639 35.697 44 35.0413 44C34.3267 44 33.6292 43.565 33.6292 42.8326C33.6292 41.9781 34.3736 41.5415 35.5081 41.5415H36.3376Z" fill="white"/>
<path d="M38.7644 40.6105V43.9273H38.0507V39.9922H38.7452L38.7644 40.6105ZM40.0685 39.9704L40.0647 40.5959C39.9489 40.5722 39.8542 40.5668 39.7174 40.5668C39.0629 40.5668 38.7193 40.966 38.6564 41.5488L38.4558 41.6579C38.4558 40.8867 38.7708 39.9195 39.7521 39.9195C39.8547 39.9195 40.0169 39.946 40.0685 39.9704Z" fill="white"/>
<path d="M43.2824 38.3411H44V43.9273H43.3441L43.2824 38.3411ZM40.4736 42.0034C40.4736 41.0408 40.9605 39.9195 42.1249 39.9195C43.1779 39.9195 43.6837 40.6329 43.8071 41.7961C43.8071 42.822 43.4113 44 42.1172 44C40.9928 44 40.4736 42.9242 40.4736 42.0034ZM41.1912 42.0034C41.1912 42.7892 41.519 43.429 42.2947 43.429C42.9411 43.429 43.3069 42.9614 43.4637 42.4071C43.4637 41.6175 43.4569 40.4868 42.3024 40.4868C41.4298 40.4868 41.1912 41.329 41.1912 42.0034Z" fill="white"/>
</svg>
