<svg width="50" height="50" viewBox="0 0 50 50" fill="none" xmlns="http://www.w3.org/2000/svg">
<rect width="50" height="50" fill="#049FD9"/>
<path d="M31.4881 22.9126C30.2847 22.3017 28.4316 22.5731 28.4316 24.2471C28.4316 25.898 30.2888 26.2236 31.4881 25.5851V27.2641C29.2837 27.8764 26.7156 26.875 26.7156 24.2467C26.7156 21.6534 29.2902 20.5795 31.4881 21.2337V22.9126ZM15.0117 22.9126C13.8111 22.2887 11.9557 22.5834 11.9557 24.2471C11.9557 25.8881 13.8156 26.236 15.0117 25.5851V27.2641C12.8075 27.8826 10.2412 26.8702 10.2412 24.2467C10.2412 21.6572 12.8144 20.5752 15.0117 21.2337V22.9126ZM36.4536 22.6022C35.5171 22.6022 34.8216 23.3391 34.8216 24.2471C34.8216 25.1571 35.5171 25.8936 36.4536 25.8936C37.3891 25.8936 38.0866 25.1571 38.0866 24.2471C38.0866 23.3391 37.3891 22.6022 36.4536 22.6022ZM39.7591 24.2471C39.7591 26.0366 38.3776 27.4866 36.4541 27.4866C34.5296 27.4866 33.1501 26.0366 33.1501 24.2467C33.1501 22.4607 34.5301 21.0091 36.4536 21.0091C38.3776 21.0091 39.7591 22.4606 39.7591 24.2471ZM24.7461 22.5422C24.3078 22.4023 22.5356 22.0274 22.5356 22.8637C22.5356 23.3664 23.3153 23.4775 23.6946 23.5982C24.7196 23.9242 25.1861 24.6256 25.1861 25.3876C25.1861 27.6399 22.5015 27.6483 20.8927 27.3161V25.8761C21.4213 26.0092 23.5296 26.5307 23.5296 25.5251C23.5296 25.2081 23.2171 25.0251 22.8256 24.9021C21.8685 24.5797 20.8767 24.1433 20.8767 22.9631C20.8767 20.9222 23.2621 20.812 24.7461 21.2067V22.5422Z" fill="white"/>
<path d="M18.76 27.3759H17.1815V21.1204H18.76V27.3759Z" fill="white"/>
<path d="M8.56749 14.3979C8.56749 13.9669 8.21549 13.6174 7.784 13.6174C7.3525 13.6174 7 13.9669 7 14.3974V16.0399C7.01033 16.4488 7.37475 16.8041 7.78375 16.8041C8.19275 16.8041 8.55717 16.4488 8.56749 16.0399V14.3979ZM12.872 12.2429C12.872 11.8161 12.5151 11.4592 12.0882 11.4592C11.6613 11.4592 11.3045 11.816 11.3045 12.2429V16.0399C11.3045 16.4668 11.6613 16.8237 12.0882 16.8237C12.5151 16.8237 12.872 16.4668 12.872 16.0399V12.2429ZM17.177 9.29394C17.177 8.86294 16.825 8.51294 16.3935 8.51294C15.9615 8.51294 15.6095 8.86294 15.6095 9.29394V17.6004C15.6198 18.0093 15.9842 18.3646 16.3932 18.3646C16.8022 18.3646 17.1666 18.0093 17.177 17.6004V9.29394ZM21.4814 12.2429C21.4814 11.816 21.1246 11.4592 20.6977 11.4592C20.2708 11.4592 19.9139 11.816 19.9139 12.2429V16.0399C19.9139 16.4668 20.2708 16.8237 20.6977 16.8237C21.1246 16.8237 21.4814 16.4668 21.4814 16.0399V12.2429ZM25.7814 14.3979C25.7817 13.9844 25.416 13.6179 25.0024 13.6174C24.5879 13.6171 24.2205 13.9829 24.2189 14.3974V16.0399C24.2189 16.4654 24.5746 16.8212 25.0002 16.8212C25.4146 16.8212 25.7814 16.4543 25.7814 16.0399V14.3979ZM30.0879 12.2429C30.0776 11.8354 29.7143 11.4812 29.3066 11.4812C28.899 11.4812 28.5357 11.8354 28.5254 12.2429V16.0399C28.5254 16.4654 28.8811 16.8212 29.3066 16.8212C29.721 16.8212 30.0879 16.4543 30.0879 16.0399V12.2429ZM34.3954 9.29394C34.3954 8.86842 34.0396 8.5127 33.6141 8.5127C33.1886 8.5127 32.8329 8.86842 32.8329 9.29394V17.6004C32.814 18.0319 33.1773 18.4166 33.6141 18.4166C34.0461 18.4166 34.4145 18.0368 34.3954 17.6004V9.29394ZM38.7018 12.2429C38.7018 11.8114 38.3523 11.4609 37.9108 11.4609C37.4965 11.4612 37.1299 11.8281 37.1299 12.2424V16.0399C37.1299 16.4734 37.4798 16.8229 37.9108 16.8229C38.3523 16.8229 38.7018 16.4734 38.7018 16.0399V12.2429ZM43.0003 14.3979C43.0003 13.972 42.6443 13.6159 42.2183 13.6159C41.7924 13.6159 41.4363 13.972 41.4363 14.3979V16.0399C41.4363 16.4734 41.7868 16.8234 42.2183 16.8234C42.6493 16.8234 42.9998 16.4734 42.9998 16.0399L43.0003 14.3979Z" fill="white"/>
<path d="M12.5312 37.2393H13.4688C13.3082 38.7161 12.2091 39.5977 10.7734 39.5977C8.9853 39.5977 8 37.974 8 36.3018C8 34.4474 8.58058 32.293 10.8564 32.293C12.4662 32.293 13.322 33.262 13.4688 34.6709H12.5312C12.3988 33.7057 11.846 33.0645 10.8564 33.0645C9.13505 33.0645 8.9375 34.9453 8.9375 36.3018C8.9375 37.6954 9.50542 38.8311 10.7734 38.8311C11.9768 38.8311 12.3756 38.2317 12.5312 37.2393Z" fill="white"/>
<path d="M17.5314 35.877C17.5314 35.2488 17.1487 34.8467 16.4182 34.8467C15.7444 34.8467 15.2756 35.2362 15.2756 35.6816H14.3723C14.3723 34.646 15.5875 34.1191 16.4719 34.1191C17.2437 34.1191 17.8504 34.3804 18.1809 34.9053C18.3501 35.1657 18.4348 35.4928 18.4348 35.8867C18.4348 36.8809 18.333 37.9218 18.4787 38.9092C18.511 39.1059 18.6203 39.3043 18.6203 39.5H17.6779C17.2283 38.4723 17.5314 36.9589 17.5314 35.877ZM17.6877 36.2969L17.6975 36.9316C16.9143 36.9316 15.1682 36.698 15.1682 37.9082C15.1682 38.4076 15.5184 38.8066 16.1789 38.8066C16.7323 38.8066 17.1669 38.5397 17.4143 38.2012C17.5412 38.0319 17.6096 37.8675 17.6193 37.708L18.0051 38.1426C17.9595 38.416 17.7528 38.7692 17.4143 39.0752C17.085 39.3721 16.6249 39.5977 16.0471 39.5977C14.9783 39.5977 14.26 38.9098 14.26 38.0303C14.26 37.1718 14.7853 36.6318 15.6564 36.4092C16.3146 36.241 17.0148 36.2969 17.6877 36.2969Z" fill="white"/>
<path d="M21.8676 34.2168V34.9102H19.0111V34.2168H21.8676ZM19.9779 32.9326H20.8813V38.1914C20.8813 38.8235 21.3733 38.8813 21.8871 38.7627L21.892 39.5C20.8382 39.8353 19.9779 39.3256 19.9779 38.1865V32.9326Z" fill="white"/>
<path d="M25.8424 38.5967V35.877C25.8424 35.2488 25.4597 34.8467 24.7291 34.8467C24.2453 34.8467 23.5865 35.1112 23.5865 35.6816H22.6832C22.6832 34.646 23.8984 34.1191 24.7828 34.1191C25.9411 34.1191 26.7457 34.7062 26.7457 35.8867C26.7457 36.8809 26.644 37.9218 26.7896 38.9092C26.8219 39.1059 26.9312 39.3043 26.9312 39.5H25.9889C25.9433 39.3958 25.9075 39.2575 25.8814 39.085C25.8554 38.9092 25.8424 38.7464 25.8424 38.5967ZM25.9986 36.2969L26.0084 36.9316H25.0953C24.0741 36.9316 23.4791 37.2469 23.4791 37.9082C23.4791 38.4076 23.8293 38.8066 24.4898 38.8066C25.0987 38.8066 25.8888 38.3862 25.9303 37.708L26.316 38.1426C26.2262 38.6817 25.5307 39.5977 24.358 39.5977C23.2893 39.5977 22.5709 38.9098 22.5709 38.0303C22.5709 36.8831 23.513 36.2969 24.9488 36.2969H25.9986Z" fill="white"/>
<path d="M28.948 32V39.5H28.0398V32H28.948Z" fill="white"/>
<path d="M31.6826 38.9531L33.1523 34.2168H34.1191L32 40.3154C31.6583 41.2266 30.9188 41.8397 29.9248 41.5557L29.9199 40.8232C30.6035 40.9087 31.086 40.6504 31.3066 39.9785L31.6826 38.9531ZM30.6035 34.2168L31.9756 38.3184L32.21 39.2705L31.5605 39.6025L29.6172 34.2168H30.6035Z" fill="white"/>
<path d="M37.8107 38.0986C37.8107 37.7059 37.6406 37.3908 36.5949 37.1855C35.4411 36.942 34.6906 36.5429 34.6906 35.6621C34.6906 34.6529 35.7485 34.1191 36.6486 34.1191C37.9143 34.1191 38.6604 34.8557 38.6604 35.7695H37.757C37.757 35.1859 37.1668 34.8613 36.6486 34.8613C35.9122 34.8613 35.5988 35.2405 35.5988 35.6377C35.5988 36.0193 35.8113 36.2287 36.8146 36.4531C38.1135 36.7461 38.7141 37.1807 38.7141 38.0303C38.7141 39.1214 37.615 39.5977 36.673 39.5977C35.6581 39.5977 34.51 39.0039 34.51 37.8691H35.4182C35.4539 38.5477 36.0626 38.8555 36.673 38.8555C37.4237 38.8555 37.8107 38.5356 37.8107 38.0986Z" fill="white"/>
<path d="M41.9125 34.2168V34.9102H39.0561V34.2168H41.9125ZM40.0229 32.9326H40.9262V38.1914C40.9262 38.7927 41.4094 38.8833 41.932 38.7627L41.9369 39.5C40.8653 39.841 40.0229 39.2769 40.0229 38.1865V32.9326Z" fill="white"/>
</svg>
