<svg width="50" height="50" viewBox="0 0 50 50" fill="none" xmlns="http://www.w3.org/2000/svg">
<path d="M31.4881 19.9126C30.2847 19.3017 28.4316 19.5731 28.4316 21.2471C28.4316 22.898 30.2888 23.2236 31.4881 22.5851V24.2641C29.2837 24.8764 26.7156 23.875 26.7156 21.2467C26.7156 18.6534 29.2902 17.5795 31.4881 18.2337V19.9126ZM15.0117 19.9126C13.8111 19.2887 11.9557 19.5834 11.9557 21.2471C11.9557 22.8881 13.8156 23.236 15.0117 22.5851V24.2641C12.8075 24.8826 10.2412 23.8702 10.2412 21.2467C10.2412 18.6572 12.8144 17.5752 15.0117 18.2337V19.9126ZM36.4536 19.6022C35.5171 19.6022 34.8216 20.3391 34.8216 21.2471C34.8216 22.1571 35.5171 22.8936 36.4536 22.8936C37.3891 22.8936 38.0866 22.1571 38.0866 21.2471C38.0866 20.3391 37.3891 19.6022 36.4536 19.6022ZM39.7591 21.2471C39.7591 23.0366 38.3776 24.4866 36.4541 24.4866C34.5296 24.4866 33.1501 23.0366 33.1501 21.2467C33.1501 19.4607 34.5301 18.0091 36.4536 18.0091C38.3776 18.0091 39.7591 19.4606 39.7591 21.2471ZM24.7461 19.5422C24.3078 19.4023 22.5356 19.0274 22.5356 19.8637C22.5356 20.3664 23.3153 20.4775 23.6946 20.5982C24.7196 20.9242 25.1861 21.6256 25.1861 22.3876C25.1861 24.6399 22.5015 24.6483 20.8927 24.3161V22.8761C21.4213 23.0092 23.5296 23.5307 23.5296 22.5251C23.5296 22.2081 23.2171 22.0251 22.8256 21.9021C21.8685 21.5797 20.8767 21.1433 20.8767 19.9631C20.8767 17.9222 23.2621 17.812 24.7461 18.2067V19.5422Z" fill="#049FD9"/>
<path d="M18.76 24.3759H17.1815V18.1204H18.76V24.3759Z" fill="#049FD9"/>
<path d="M8.56749 11.3979C8.56749 10.9669 8.21549 10.6174 7.784 10.6174C7.3525 10.6174 7 10.9669 7 11.3974V13.0399C7.01033 13.4488 7.37475 13.8041 7.78375 13.8041C8.19275 13.8041 8.55717 13.4488 8.56749 13.0399V11.3979ZM12.872 9.24293C12.872 8.81605 12.5151 8.45918 12.0882 8.45918C11.6613 8.45918 11.3045 8.81605 11.3045 9.24293V13.0399C11.3045 13.4668 11.6613 13.8237 12.0882 13.8237C12.5151 13.8237 12.872 13.4668 12.872 13.0399V9.24293ZM17.177 6.29394C17.177 5.86294 16.825 5.51294 16.3935 5.51294C15.9615 5.51294 15.6095 5.86294 15.6095 6.29394V14.6004C15.6198 15.0093 15.9842 15.3646 16.3932 15.3646C16.8022 15.3646 17.1666 15.0093 17.177 14.6004V6.29394ZM21.4814 9.24293C21.4814 8.81605 21.1246 8.45918 20.6977 8.45918C20.2708 8.45918 19.9139 8.81605 19.9139 9.24293V13.0399C19.9139 13.4668 20.2708 13.8237 20.6977 13.8237C21.1246 13.8237 21.4814 13.4668 21.4814 13.0399V9.24293ZM25.7814 11.3979C25.7817 10.9844 25.416 10.6179 25.0024 10.6174C24.5879 10.6171 24.2205 10.9829 24.2189 11.3974V13.0399C24.2189 13.4654 24.5746 13.8212 25.0002 13.8212C25.4146 13.8212 25.7814 13.4543 25.7814 13.0399V11.3979ZM30.0879 9.24293C30.0776 8.83538 29.7143 8.48119 29.3066 8.48119C28.899 8.48119 28.5357 8.83538 28.5254 9.24293V13.0399C28.5254 13.4654 28.8811 13.8212 29.3066 13.8212C29.721 13.8212 30.0879 13.4543 30.0879 13.0399V9.24293ZM34.3954 6.29394C34.3954 5.86842 34.0396 5.5127 33.6141 5.5127C33.1886 5.5127 32.8329 5.86842 32.8329 6.29394V14.6004C32.814 15.0319 33.1773 15.4166 33.6141 15.4166C34.0461 15.4166 34.4145 15.0368 34.3954 14.6004V6.29394ZM38.7018 9.24293C38.7018 8.81143 38.3523 8.46092 37.9108 8.46092C37.4965 8.46119 37.1299 8.82805 37.1299 9.24241V13.0399C37.1299 13.4734 37.4798 13.8229 37.9108 13.8229C38.3523 13.8229 38.7018 13.4734 38.7018 13.0399V9.24293ZM43.0003 11.3979C43.0003 10.972 42.6443 10.6159 42.2183 10.6159C41.7924 10.6159 41.4363 10.972 41.4363 11.3979V13.0399C41.4363 13.4734 41.7868 13.8234 42.2183 13.8234C42.6493 13.8234 42.9998 13.4734 42.9998 13.0399L43.0003 11.3979Z" fill="#049FD9"/>
<path d="M30.0527 39.7734H30.8418V40.3281H30.0527V42.9531C30.0527 43.2396 30.1504 43.375 30.291 43.4219C30.475 43.4832 30.6727 43.4528 30.8574 43.4102L30.8613 44C30.748 44.0361 30.5661 44.0781 30.3027 44.0781C29.7705 44.0781 29.3301 43.7897 29.3301 42.9492V40.3281H28.6279L27.125 44.6523C27.0466 44.8615 26.9237 45.1181 26.7266 45.3359C26.4038 45.6927 25.9171 45.7737 25.4648 45.6445L25.4609 45.0586C25.786 45.0846 26.1475 45.0734 26.3633 44.793C26.5527 44.5608 26.6255 44.2313 26.7266 43.9541L25.2188 39.7734H26.0078L27.0654 42.9355L28.0469 39.7734H29.3301V38.7461H30.0527V39.7734Z" fill="black"/>
<path fill-rule="evenodd" clip-rule="evenodd" d="M21.8311 39.6953C22.7577 39.6953 23.4014 40.165 23.4014 41.1094V43.0781C23.4014 43.2188 23.4131 43.3685 23.4365 43.5273C23.4623 43.6848 23.5498 43.8435 23.5498 44H22.7959C22.7339 43.8584 22.7132 43.7031 22.6963 43.5508C22.6613 43.5875 22.6246 43.6243 22.585 43.6602C22.3216 43.8977 21.9535 44.0781 21.4912 44.0781C20.6362 44.0781 20.0615 43.5279 20.0615 42.8242C20.0615 41.9064 20.8152 41.4375 21.9639 41.4375H22.6787C22.6787 40.8222 22.5401 40.2773 21.7881 40.2773C21.2491 40.2773 20.874 40.589 20.874 40.9453H20.1514C20.1514 40.1168 21.1235 39.6953 21.8311 39.6953ZM22.0811 41.9453C21.2641 41.9453 20.7881 42.1975 20.7881 42.7266C20.7881 43.1261 21.0682 43.4453 21.5967 43.4453C22.0394 43.4453 22.387 43.2318 22.585 42.9609C22.6235 42.9095 22.6537 42.8579 22.6787 42.8076V41.9453H22.0811Z" fill="black"/>
<path d="M34.5264 39.6953C34.8571 39.6953 35.1462 39.763 35.3936 39.8984C35.641 40.0312 35.835 40.2135 35.9756 40.4453C36.1188 40.6745 36.1969 40.9349 36.21 41.2266H35.5225C35.4837 40.7069 35.1082 40.2891 34.5264 40.2891C33.667 40.2891 33.3701 41.0437 33.3701 41.8047C33.3701 42.5584 33.5999 43.4844 34.5264 43.4844C35.0443 43.4844 35.4837 43.1364 35.5225 42.6641H36.21C36.1659 43.5095 35.3179 44.0781 34.5264 44.0781C33.2661 44.0781 32.6475 43.1048 32.6475 41.9688C32.6475 40.829 33.2467 39.6953 34.5264 39.6953Z" fill="black"/>
<path d="M38.1543 39.6953C39.1668 39.6953 39.7637 40.2846 39.7637 41.0156H39.041C39.041 40.6643 38.7292 40.2891 38.1543 40.2891C37.5651 40.2891 37.3145 40.5924 37.3145 40.9102C37.3145 41.2154 37.4844 41.383 38.2871 41.5625C39.3262 41.7969 39.8066 42.1445 39.8066 42.8242C39.8066 43.6971 38.9274 44.0781 38.1738 44.0781C37.0566 44.0781 36.4434 43.3984 36.4434 42.6953H37.1699C37.2009 43.2832 37.7252 43.4844 38.1738 43.4844C38.7743 43.4844 39.084 43.2285 39.084 42.8789C39.084 42.5647 38.9479 42.3126 38.1113 42.1484C37.1883 41.9536 36.5879 41.6343 36.5879 40.9297C36.5879 40.1223 37.4342 39.6953 38.1543 39.6953Z" fill="black"/>
<path fill-rule="evenodd" clip-rule="evenodd" d="M15.9121 44H15.1387L14.5967 42.5117H12.2188L11.6777 44H10.9082L13.0762 38.3125H13.7363L15.9121 44ZM12.4424 41.8945H14.3721L13.4062 39.2402L12.4424 41.8945Z" fill="black"/>
<path d="M18.1338 39.6953C18.9661 39.6953 19.4893 40.1103 19.4893 41.2305V44H18.7627V41.2227C18.7627 40.5497 18.46 40.3047 17.9189 40.3047C17.4586 40.3047 17.0925 40.5775 16.8877 40.9863V44H16.165V39.7734H16.8486L16.8711 40.3008C17.1761 39.9158 17.6131 39.6953 18.1338 39.6953Z" fill="black"/>
<path d="M24.9238 44H24.1973V38H24.9238V44Z" fill="black"/>
<path d="M32.0752 44H31.3486V39.7734H32.0752V44Z" fill="black"/>
<path d="M31.7197 38.2344C31.998 38.2344 32.1494 38.4198 32.1494 38.6523C32.1494 38.8726 32.0005 39.0586 31.7197 39.0586C31.4382 39.0586 31.2939 38.8761 31.2939 38.6523C31.2939 38.4161 31.4407 38.2344 31.7197 38.2344Z" fill="black"/>
<path d="M6.5791 29.2344C7.5714 29.2344 8.58301 29.8599 8.58301 30.9531H7.83301C7.83301 30.3061 7.42403 29.8516 6.5791 29.8516C5.77666 29.8516 5.39941 30.2392 5.39941 30.7734C5.39941 31.2542 5.80779 31.5481 6.73145 31.8047C8.02129 32.1688 8.59863 32.6648 8.59863 33.5547C8.59863 34.4788 7.82369 35.0781 6.61426 35.0781C5.59886 35.0781 4.46582 34.468 4.46582 33.3516H5.21582C5.21582 34.1317 5.89318 34.4648 6.61426 34.4648C7.40571 34.4648 7.84082 34.1139 7.84082 33.5625C7.84082 33.0317 7.57706 32.7778 6.48926 32.4609C5.3606 32.1265 4.64551 31.6657 4.64551 30.7812C4.64551 29.8884 5.42206 29.2344 6.5791 29.2344Z" fill="black"/>
<path fill-rule="evenodd" clip-rule="evenodd" d="M10.71 30.6953C12.0423 30.6953 12.4482 31.9213 12.4482 33.0898H9.59082C9.61039 33.8663 10.0789 34.4883 10.8428 34.4883C11.3532 34.4883 11.6904 34.263 11.9561 33.9141L12.3936 34.2617C12.1211 34.6743 11.6459 35.0781 10.8037 35.0781C9.63552 35.0781 8.8623 34.2285 8.8623 33.0352C8.8623 31.9213 9.4299 30.6953 10.71 30.6953ZM10.71 31.2891C10.1414 31.2891 9.70986 31.7169 9.61133 32.5H11.7256C11.7256 31.8708 11.3793 31.2891 10.71 31.2891Z" fill="black"/>
<path d="M14.584 30.6953C15.5722 30.6953 16.2284 31.3484 16.2676 32.2266H15.5801C15.5413 31.7069 15.1659 31.2891 14.584 31.2891C13.6635 31.2891 13.4277 32.2198 13.4277 32.9688C13.4277 33.6988 13.7295 34.4844 14.584 34.4844C15.1019 34.4844 15.5414 34.1364 15.5801 33.6641H16.2676C16.2239 34.5021 15.373 35.0781 14.584 35.0781C13.3237 35.0781 12.7051 34.1048 12.7051 32.9688C12.7051 31.7895 13.2762 30.6953 14.584 30.6953Z" fill="black"/>
<path d="M17.3867 33.5078C17.3867 34.2664 17.7747 34.4648 18.1641 34.4648C18.7635 34.4648 19.1033 34.2207 19.2656 33.8408V30.7734H19.9922V35H19.3008L19.2852 34.5771C19.0229 34.8906 18.6231 35.0781 18.0508 35.0781C17.237 35.0781 16.6641 34.6321 16.6641 33.5V30.7734H17.3867V33.5078Z" fill="black"/>
<path fill-rule="evenodd" clip-rule="evenodd" d="M24.5869 30.6953C25.7957 30.6953 26.3252 31.567 26.3252 32.7656V33.0898H23.4678C23.4873 33.8663 23.9559 34.4883 24.7197 34.4883C25.2301 34.4883 25.5674 34.263 25.833 33.9141L26.2705 34.2617C25.9981 34.6743 25.5228 35.0781 24.6807 35.0781C23.5125 35.0781 22.7393 34.2285 22.7393 33.0352C22.7393 31.9213 23.3069 30.6953 24.5869 30.6953ZM24.5869 31.2891C24.0184 31.2891 23.5868 31.7169 23.4883 32.5H25.6025C25.6025 31.8708 25.2563 31.2891 24.5869 31.2891Z" fill="black"/>
<path d="M30.5566 29.2344C31.8445 29.2344 32.5291 30.0096 32.6465 31.1367H31.8965C31.7863 30.3341 31.4363 29.8516 30.5566 29.8516C29.1795 29.8516 29.0215 31.3562 29.0215 32.4414C29.0215 33.5563 29.4758 34.4648 30.4902 34.4648C31.453 34.4648 31.7719 33.9853 31.8965 33.1914H32.6465C32.5181 34.3729 31.6388 35.0781 30.4902 35.0781C29.1588 35.0781 28.2715 34.0272 28.2715 32.4414C28.2715 30.9244 28.6994 29.2344 30.5566 29.2344Z" fill="black"/>
<path fill-rule="evenodd" clip-rule="evenodd" d="M36.4355 30.6953C37.6242 30.6953 38.3652 31.6177 38.3652 32.8438C38.3652 33.9974 37.6612 35.0781 36.4434 35.0781C35.223 35.0781 34.5176 34.0012 34.5176 32.8438C34.5176 31.6107 35.2692 30.6953 36.4355 30.6953ZM36.4355 31.2891C35.5473 31.2891 35.2402 32.1886 35.2402 32.9336C35.2402 33.7712 35.6377 34.4844 36.4434 34.4844C37.3387 34.4844 37.6387 33.5958 37.6387 32.8438C37.6387 32.1113 37.2545 31.2891 36.4355 31.2891Z" fill="black"/>
<path d="M39.5791 33.5078C39.5791 34.0736 39.7929 34.3356 40.0674 34.4219C40.1611 34.4505 40.2575 34.4648 40.3564 34.4648C40.9559 34.4648 41.2957 34.2207 41.458 33.8408V30.7734H42.1846V35H41.4932L41.4775 34.5771C41.2153 34.8906 40.8155 35.0781 40.2432 35.0781C39.4294 35.0781 38.8564 34.6321 38.8564 33.5V30.7734H39.5791V33.5078Z" fill="black"/>
<path fill-rule="evenodd" clip-rule="evenodd" d="M46.2764 35H45.6123L45.5771 34.543C45.3019 34.8883 44.9057 35.0781 44.3701 35.0781C43.1904 35.0781 42.7061 33.8549 42.7061 32.8516C42.7061 31.539 43.3852 30.6953 44.3779 30.6953C44.8917 30.6953 45.2758 30.8734 45.5498 31.2021V29H46.2764V35ZM44.5576 31.3047C43.7868 31.3047 43.4326 31.987 43.4326 32.8516C43.4326 33.5756 43.668 34.4648 44.5498 34.4648C45.0642 34.4648 45.3627 34.2036 45.5498 33.8418V31.9131C45.368 31.5639 45.0637 31.3047 44.5576 31.3047Z" fill="black"/>
<path d="M22.416 30.6953C22.5198 30.6953 22.6841 30.7239 22.7363 30.75L22.7324 31.4219C22.6153 31.3964 22.5194 31.3906 22.3809 31.3906C21.8923 31.3906 21.576 31.6228 21.416 31.9971V35H20.6934V30.7734H21.3965L21.4102 31.2588C21.412 31.2558 21.4142 31.253 21.416 31.25C21.6316 30.8978 21.9619 30.6953 22.416 30.6953Z" fill="black"/>
<path d="M33.9492 35H33.2227V29H33.9492V35Z" fill="black"/>
</svg>
