<svg width="50" height="50" viewBox="0 0 50 50" fill="none" xmlns="http://www.w3.org/2000/svg">
<rect width="50" height="50" fill="#049FD9"/>
<path d="M6.75439 32.5889V38.9873H5.90625V32.5889H6.75439ZM9.43506 35.4673V36.1616H6.56982V35.4673H9.43506ZM9.87012 32.5889V33.2832H6.56982V32.5889H9.87012Z" fill="white"/>
<path d="M11.6411 34.2324V38.9873H10.8237V34.2324H11.6411ZM10.7622 32.9712C10.7622 32.7054 10.9273 32.501 11.2412 32.501C11.5543 32.501 11.7246 32.7096 11.7246 32.9712C11.7246 33.219 11.5571 33.4282 11.2412 33.4282C10.9245 33.4282 10.7622 33.2229 10.7622 32.9712Z" fill="white"/>
<path d="M13.7593 34.9795V38.9873H12.9463V34.2324H13.7373L13.7593 34.9795ZM15.2446 34.2061L15.2402 34.9619C15.1084 34.9333 15.0006 34.9268 14.8447 34.9268C14.2822 34.9268 13.9219 35.1992 13.7461 35.6387C13.6904 35.7822 13.6538 35.9404 13.6362 36.1133L13.4077 36.2451C13.4077 35.958 13.4355 35.6885 13.4912 35.4365C13.5498 35.1846 13.6392 34.9619 13.7593 34.7686C13.8794 34.5723 14.0317 34.4199 14.2163 34.3115C14.4843 34.1524 14.9469 34.0572 15.2446 34.2061Z" fill="white"/>
<path d="M17.8813 39.0752C16.5671 39.0752 15.6973 38.1194 15.6973 36.7769V36.5923C15.6973 35.0356 16.7117 34.1445 17.7759 34.1445C19.3563 34.1445 19.7314 35.5283 19.7314 36.8384H16.1807V36.1748H18.9185C18.9185 35.4677 18.5274 34.8125 17.7759 34.8125C17.0418 34.8125 16.5146 35.4417 16.5146 36.5923V36.7769C16.5146 37.6804 17.0459 38.4116 17.9253 38.4116C18.4995 38.4116 18.8789 38.1582 19.1777 37.7656L19.6699 38.1567C19.3634 38.6208 18.8288 39.0752 17.8813 39.0752Z" fill="white"/>
<path d="M21.4937 35.1465V40.8154H20.6763V34.2324H21.4233L21.4937 35.1465ZM24.6973 36.6626C24.6973 38.0315 24.0417 39.0752 22.8516 39.0752C22.248 39.0752 21.7852 38.8716 21.4629 38.4907C21.1412 38.1105 20.9532 37.5734 20.8828 36.9043V36.4121C20.9531 35.709 21.1465 35.1479 21.4629 34.7554C21.7859 34.356 22.2422 34.1445 22.8384 34.1445C24.187 34.1445 24.6973 35.4803 24.6973 36.6626ZM23.8799 36.6626C23.8799 35.8393 23.5683 34.8301 22.6011 34.8301C21.8006 34.8301 21.411 35.428 21.2783 36.0913V37.2295C21.4523 37.8383 21.8028 38.4072 22.6099 38.4072C23.51 38.4072 23.8799 37.5936 23.8799 36.6626Z" fill="white"/>
<path d="M25.519 36.6626C25.519 35.3948 26.2887 34.1445 27.6768 34.1445C29.0516 34.1445 29.8477 35.36 29.8477 36.6626C29.8477 38.0195 29.0447 39.0752 27.6855 39.0752C26.3448 39.0752 25.519 38.0316 25.519 36.6626ZM26.332 36.6626C26.332 37.6049 26.7792 38.4072 27.6855 38.4072C28.5939 38.4072 29.0303 37.5953 29.0303 36.6626C29.0303 35.8163 28.6495 34.8125 27.6768 34.8125C26.6889 34.8125 26.332 35.8339 26.332 36.6626Z" fill="white"/>
<path d="M32.0713 38.1436L33.293 34.2324H33.8291L33.7236 35.0103L32.48 38.9873H31.957L32.0713 38.1436ZM31.2495 34.2324L32.291 38.1875L32.3657 38.9873H31.8164L30.4365 34.2324H31.2495ZM34.998 38.1567L35.9912 34.2324H36.7998L35.4199 38.9873H34.875L34.998 38.1567ZM33.9478 34.2324L35.1431 38.0776L35.2793 38.9873H34.7607L33.4819 35.0015L33.3765 34.2324H33.9478Z" fill="white"/>
<path d="M39.6079 39.0752C38.2937 39.0752 37.4238 38.1194 37.4238 36.7769C37.4238 35.5279 38.0519 34.1445 39.5024 34.1445C41.0013 34.1445 41.458 35.5238 41.458 36.8384H37.9072V36.1748H40.645C40.645 35.4994 40.2426 34.8125 39.5024 34.8125C38.4541 34.8125 38.2412 35.9537 38.2412 36.7769C38.2412 37.6804 38.7724 38.4116 39.6519 38.4116C40.2261 38.4116 40.6055 38.1582 40.9043 37.7656L41.3965 38.1567C41.09 38.6208 40.5553 39.0752 39.6079 39.0752Z" fill="white"/>
<path d="M43.2202 34.9795V38.9873H42.4072V34.2324H43.1982L43.2202 34.9795ZM44.7056 34.2061L44.7012 34.9619C44.6338 34.9473 44.5693 34.9385 44.5078 34.9355C43.9532 34.8801 43.4246 35.0948 43.207 35.6387C43.1514 35.7822 43.1147 35.9404 43.0972 36.1133L42.8687 36.2451C42.8687 35.6702 42.9803 35.1548 43.2202 34.7686C43.4627 34.3723 43.8343 34.1445 44.3452 34.1445C44.462 34.1445 44.6468 34.1767 44.7056 34.2061Z" fill="white"/>
<path d="M31.4881 22.9126C30.2847 22.3017 28.4316 22.5731 28.4316 24.2471C28.4316 25.898 30.2888 26.2236 31.4881 25.5851V27.2641C29.2837 27.8764 26.7156 26.875 26.7156 24.2467C26.7156 21.6534 29.2902 20.5795 31.4881 21.2337V22.9126ZM15.0117 22.9126C13.8111 22.2887 11.9557 22.5834 11.9557 24.2471C11.9557 25.8881 13.8156 26.236 15.0117 25.5851V27.2641C12.8075 27.8826 10.2412 26.8702 10.2412 24.2467C10.2412 21.6572 12.8144 20.5752 15.0117 21.2337V22.9126ZM36.4536 22.6022C35.5171 22.6022 34.8216 23.3391 34.8216 24.2471C34.8216 25.1571 35.5171 25.8936 36.4536 25.8936C37.3891 25.8936 38.0866 25.1571 38.0866 24.2471C38.0866 23.3391 37.3891 22.6022 36.4536 22.6022ZM39.7591 24.2471C39.7591 26.0366 38.3776 27.4866 36.4541 27.4866C34.5296 27.4866 33.1501 26.0366 33.1501 24.2467C33.1501 22.4607 34.5301 21.0091 36.4536 21.0091C38.3776 21.0091 39.7591 22.4606 39.7591 24.2471ZM24.7461 22.5422C24.3078 22.4023 22.5356 22.0274 22.5356 22.8637C22.5356 23.3664 23.3153 23.4775 23.6946 23.5982C24.7196 23.9242 25.1861 24.6256 25.1861 25.3876C25.1861 27.6399 22.5015 27.6483 20.8927 27.3161V25.8761C21.4213 26.0092 23.5296 26.5307 23.5296 25.5251C23.5296 25.2081 23.2171 25.0251 22.8256 24.9021C21.8685 24.5797 20.8767 24.1433 20.8767 22.9631C20.8767 20.9222 23.2621 20.812 24.7461 21.2067V22.5422Z" fill="white"/>
<path d="M18.76 27.3759H17.1815V21.1204H18.76V27.3759Z" fill="white"/>
<path d="M8.56749 14.3979C8.56749 13.9669 8.21549 13.6174 7.784 13.6174C7.3525 13.6174 7 13.9669 7 14.3974V16.0399C7.01033 16.4488 7.37475 16.8041 7.78375 16.8041C8.19275 16.8041 8.55717 16.4488 8.56749 16.0399V14.3979ZM12.872 12.2429C12.872 11.8161 12.5151 11.4592 12.0882 11.4592C11.6613 11.4592 11.3045 11.816 11.3045 12.2429V16.0399C11.3045 16.4668 11.6613 16.8237 12.0882 16.8237C12.5151 16.8237 12.872 16.4668 12.872 16.0399V12.2429ZM17.177 9.29394C17.177 8.86294 16.825 8.51294 16.3935 8.51294C15.9615 8.51294 15.6095 8.86294 15.6095 9.29394V17.6004C15.6198 18.0093 15.9842 18.3646 16.3932 18.3646C16.8022 18.3646 17.1666 18.0093 17.177 17.6004V9.29394ZM21.4814 12.2429C21.4814 11.816 21.1246 11.4592 20.6977 11.4592C20.2708 11.4592 19.9139 11.816 19.9139 12.2429V16.0399C19.9139 16.4668 20.2708 16.8237 20.6977 16.8237C21.1246 16.8237 21.4814 16.4668 21.4814 16.0399V12.2429ZM25.7814 14.3979C25.7817 13.9844 25.416 13.6179 25.0024 13.6174C24.5879 13.6171 24.2205 13.9829 24.2189 14.3974V16.0399C24.2189 16.4654 24.5746 16.8212 25.0002 16.8212C25.4146 16.8212 25.7814 16.4543 25.7814 16.0399V14.3979ZM30.0879 12.2429C30.0776 11.8354 29.7143 11.4812 29.3066 11.4812C28.899 11.4812 28.5357 11.8354 28.5254 12.2429V16.0399C28.5254 16.4654 28.8811 16.8212 29.3066 16.8212C29.721 16.8212 30.0879 16.4543 30.0879 16.0399V12.2429ZM34.3954 9.29394C34.3954 8.86842 34.0396 8.5127 33.6141 8.5127C33.1886 8.5127 32.8329 8.86842 32.8329 9.29394V17.6004C32.814 18.0319 33.1773 18.4166 33.6141 18.4166C34.0461 18.4166 34.4145 18.0368 34.3954 17.6004V9.29394ZM38.7018 12.2429C38.7018 11.8114 38.3523 11.4609 37.9108 11.4609C37.4965 11.4612 37.1299 11.8281 37.1299 12.2424V16.0399C37.1299 16.4734 37.4798 16.8229 37.9108 16.8229C38.3523 16.8229 38.7018 16.4734 38.7018 16.0399V12.2429ZM43.0003 14.3979C43.0003 13.972 42.6443 13.6159 42.2183 13.6159C41.7924 13.6159 41.4363 13.972 41.4363 14.3979V16.0399C41.4363 16.4734 41.7868 16.8234 42.2183 16.8234C42.6493 16.8234 42.9998 16.4734 42.9998 16.0399L43.0003 14.3979Z" fill="white"/>
</svg>
