<svg width="50" height="50" viewBox="0 0 50 50" fill="none" xmlns="http://www.w3.org/2000/svg">
<path d="M24.9357 41.6662C33.9933 41.729 41.6042 34.0702 41.6659 25.115C41.7118 18.4581 37.6272 12.2354 31.5152 9.64611C29.5051 8.79456 27.3475 8.34848 25.1656 8.33334C15.814 8.30412 8.33339 15.6389 8.33339 24.8699C8.27169 33.9533 15.9268 41.6506 24.9357 41.6662Z" fill="#FEFEFE"/>
<path d="M24.9357 41.6662C15.9268 41.6506 8.27169 33.9533 8.33339 24.8699C8.35605 15.6389 15.8302 8.31061 25.1656 8.33334C27.3475 8.34848 29.5051 8.79456 31.5152 9.64611C37.6268 12.2359 41.7109 18.4602 41.6643 25.1166C41.649 27.3053 41.2041 29.4695 40.355 31.4857C37.782 37.5948 31.5899 41.713 24.9325 41.6662L24.9357 41.6662ZM34.7728 25.8277C34.8149 20.9865 33.1349 18.3208 30.0178 16.4733C25.0069 13.5056 18.1737 15.4311 15.8561 21.269C15.1666 23.0094 14.6001 24.5159 12.6774 25.1036C12.4314 25.1816 12.3537 25.7725 12.1821 26.1232C12.5058 26.2173 12.904 26.4479 13.1824 26.3764C15.0048 25.8082 16.3708 24.753 16.8563 22.7691C17.7691 19.0157 21.0643 16.6 25.0976 16.6C29.079 16.6 32.3031 19.0222 33.1511 22.7853C33.7467 25.4251 33.1803 27.9804 31.9696 30.3344C30.9986 32.2371 29.6552 33.9547 28.5352 35.7892C28.3281 36.1302 28.396 36.6399 28.3378 37.0685C28.7489 36.9516 29.3315 36.9744 29.5516 36.6984C32.3743 33.1657 34.6142 29.3701 34.7728 25.8277ZM31.8175 25.1361C31.8175 22.8275 31.2057 21.3892 29.9854 20.2333C26.2467 16.6909 20.3911 17.9604 18.5945 22.8113C17.6235 25.4088 16.2542 27.396 13.4154 28.0746C13.0658 28.159 12.8198 28.6752 12.5253 28.9934C12.972 29.1298 13.4704 29.4707 13.8621 29.3766C16.9793 28.6071 18.86 26.5712 19.8181 23.5321C20.5076 21.3372 22.084 20.1261 24.3952 19.717C26.7064 19.3079 30.7979 21.3957 30.3932 24.7497C29.8559 29.2272 27.7033 32.7436 24.4081 35.6723C23.8158 36.2016 22.6893 36.4549 23.1781 37.6724C23.874 37.377 24.6897 37.2276 25.2465 36.7666C28.8424 33.8782 31.1948 29.7146 31.8175 25.1361ZM24.9098 12.1484C19.0833 11.9017 14.2667 16.1421 12.6418 21.0937C12.4799 21.5807 12.7713 22.2204 12.8522 22.7886C13.2277 22.3892 13.7941 22.0548 13.943 21.584C15.4741 16.7688 20.336 13.2362 25.2983 13.4082C32.2448 13.6485 37.5501 20.0774 36.4399 26.9771C36.2716 28.0226 35.7342 29.0064 35.4688 30.0454C35.3879 30.3701 35.6468 30.8052 35.7504 31.1851C36.0739 31.0404 36.382 30.8631 36.6697 30.6559C36.8244 30.4663 36.935 30.2444 36.9934 30.0065C40.5897 20.8307 33.546 11.7913 24.9098 12.1452V12.1484ZM25.1008 21.334C23.4241 21.3145 22.1066 22.1652 21.4042 23.9315C20.1321 27.1427 18.4456 29.9123 14.8008 30.8182C14.3208 30.8909 14.189 31.492 14.0466 31.88C14.3703 32.0001 14.762 32.2988 15.0177 32.2046C17.7626 31.276 20.2422 30.0032 21.4463 27.0907C22.2054 25.2743 23.4465 21.7477 26.0395 22.9672C27.234 23.5289 27.5512 24.4348 27.1401 25.9056C26.0072 29.9935 23.4888 32.9774 19.9605 35.208C19.611 35.4321 19.4815 36.01 19.2484 36.4224C19.6886 36.4224 20.2195 36.5653 20.5432 36.3704C24.6962 33.9255 27.5318 30.4513 28.5773 25.6556C29.1179 23.2724 27.535 21.3599 25.1008 21.3307V21.334ZM25.813 25.4998C25.4601 25.1036 25.185 24.6491 25.0587 24.688C24.7027 24.7919 24.2139 25.0419 24.1168 25.3374C22.8706 29.2337 20.2583 31.8053 16.6297 33.4839C16.3675 33.6073 16.2898 34.1333 16.128 34.484C16.5035 34.5489 17.0084 34.8087 17.2383 34.6528C19.1254 33.3865 21.1971 32.2728 22.7411 30.6591C24.0844 29.2694 24.7998 27.2823 25.813 25.4998Z" fill="#05BAE7"/>
<path d="M34.7728 25.8277C34.6142 29.3701 32.3743 33.1658 29.5516 36.6887C29.3315 36.9647 28.7489 36.9419 28.3378 37.0588C28.396 36.6302 28.3378 36.1205 28.5352 35.7795C29.6552 33.945 30.9856 32.2274 31.9696 30.3247C33.1803 27.9837 33.7467 25.4154 33.1511 22.7756C32.3031 19.0125 29.079 16.6065 25.0976 16.5903C21.0546 16.5903 17.7691 19.0157 16.8563 22.7594C16.3708 24.7563 15.0048 25.7985 13.1824 26.3667C12.904 26.4544 12.535 26.2076 12.1821 26.1135C12.344 25.7628 12.4314 25.1719 12.6774 25.0939C14.6001 24.4933 15.1666 22.9997 15.8561 21.2593C18.1737 15.4149 25.007 13.496 30.0178 16.4636C33.1349 18.3209 34.8149 20.9865 34.7728 25.8277Z" fill="#025076"/>
<path d="M31.8175 25.1361C31.1924 29.7128 28.8389 33.8738 25.2432 36.7601C24.6865 37.2211 23.8708 37.3705 23.1748 37.6659C22.686 36.4484 23.8222 36.1951 24.4049 35.6658C27.7001 32.7436 29.8527 29.2207 30.39 24.7432C30.7946 21.3892 26.7322 19.2916 24.3919 19.7105C22.0516 20.1293 20.5076 21.334 19.8149 23.5256C18.8438 26.581 16.976 28.6168 13.8589 29.3701C13.4672 29.4642 12.9687 29.1233 12.522 28.9869C12.8166 28.6622 13.0626 28.1525 13.4122 28.0681C16.2542 27.3895 17.6202 25.3991 18.5913 22.8048C20.3878 17.9604 26.2435 16.6844 29.9821 20.2268C31.2057 21.3892 31.8143 22.8275 31.8175 25.1361Z" fill="#025076"/>
<path d="M24.9098 12.1452C33.546 11.7913 40.5896 20.8307 36.9966 30.0033C36.9382 30.2412 36.8277 30.4631 36.6729 30.6527C36.3852 30.8599 36.0772 31.0372 35.7536 31.1819C35.6501 30.802 35.3911 30.3799 35.472 30.0423C35.7342 29.0032 36.2715 28.0194 36.4431 26.9739C37.5534 20.0742 32.2351 13.6453 25.3015 13.405C20.3393 13.233 15.4773 16.7656 13.9463 21.5808C13.7974 22.0516 13.2309 22.386 12.8554 22.7854C12.7745 22.2172 12.4832 21.5775 12.645 21.0905C14.2667 16.139 19.0704 11.8984 24.9098 12.1452Z" fill="#025077"/>
<path d="M25.1008 21.3307C27.535 21.3599 29.1179 23.2788 28.5967 25.6686C27.5512 30.4545 24.7124 33.9287 20.5626 36.3834C20.2389 36.5782 19.6919 36.4256 19.2678 36.4353C19.5009 36.023 19.6304 35.445 19.9799 35.221C23.5082 32.9904 26.0266 30.0064 27.1595 25.9186C27.5706 24.4477 27.2631 23.5418 26.0589 22.9801C23.4611 21.7683 22.2276 25.2805 21.4657 27.1037C20.2616 30.0259 17.7821 31.289 15.0371 32.2176C14.7782 32.3053 14.3897 32.0065 14.066 31.8929C14.2084 31.5049 14.3402 30.9039 14.8202 30.8312C18.465 29.9253 20.1515 27.1557 21.4236 23.9445C22.1066 22.1489 23.4241 21.3112 25.1008 21.3307Z" fill="#034F76"/>
<path d="M25.813 25.4998C24.7933 27.2823 24.0779 29.2695 22.7443 30.6624C21.197 32.2858 19.1254 33.3898 17.2415 34.6561C17.0117 34.8087 16.5067 34.5522 16.1312 34.4873C16.293 34.1431 16.3707 33.6106 16.6329 33.4872C20.2616 31.8085 22.8738 29.2273 24.12 25.3407C24.2171 25.042 24.7059 24.792 25.062 24.6913C25.1914 24.6491 25.4666 25.1036 25.813 25.4998Z" fill="#035178"/>
</svg>
