<svg width="50" height="50" viewBox="0 0 50 50" fill="none" xmlns="http://www.w3.org/2000/svg">
<path d="M15.9438 34.8691C15.9438 34.2719 15.6471 33.9863 14.4233 33.6299C13.1536 33.2537 12.3491 32.7353 12.3491 31.7402C12.3491 30.7358 13.2227 30 14.5244 30C15.6502 30 16.7788 30.7242 16.7788 31.9336H15.9351C15.9351 31.2057 15.475 30.6943 14.5244 30.6943C13.6217 30.6943 13.1973 31.1304 13.1973 31.7314C13.1973 32.2723 13.6567 32.603 14.6958 32.8916C16.1469 33.3012 16.7964 33.8592 16.7964 34.8604C16.7964 35.9 15.9246 36.5742 14.564 36.5742C13.4216 36.5742 12.147 35.8878 12.147 34.6318H12.9907C12.9907 35.5095 13.7528 35.8843 14.564 35.8843C15.4543 35.8843 15.9438 35.4894 15.9438 34.8691Z" fill="black"/>
<path d="M19.6375 36.5742C18.3233 36.5742 17.4535 35.6184 17.4535 34.2759C17.4535 33.0266 18.1403 31.6436 19.5321 31.6436C21.1125 31.6436 21.4876 33.0273 21.4876 34.3374H17.9369V33.6738H20.6746C20.6746 32.9667 20.2836 32.3115 19.5321 32.3115C18.4885 32.3115 18.2708 33.4503 18.2708 34.2759C18.2708 35.1794 18.8021 35.9106 19.6815 35.9106C20.2557 35.9106 20.6351 35.6572 20.9339 35.2646L21.4261 35.6558C21.1196 36.1199 20.585 36.5742 19.6375 36.5742Z" fill="black"/>
<path d="M24.2497 35.9062C24.8324 35.9062 25.3267 35.5148 25.3703 34.9834H26.1437C26.0946 35.9262 25.1374 36.5742 24.2497 36.5742C22.8101 36.5742 22.1359 35.2988 22.1359 34.0166C22.1359 32.7676 22.8952 31.6436 24.2497 31.6436C25.3615 31.6436 26.0996 32.3783 26.1437 33.3662H25.3703C25.3267 32.7816 24.9043 32.3115 24.2497 32.3115C23.2986 32.3115 22.9489 33.2025 22.9489 34.0166C22.9489 34.8646 23.2074 35.9062 24.2497 35.9062Z" fill="black"/>
<path d="M29.877 35.3877V31.7314H30.6944V36.4863H29.9165L29.877 35.3877ZM30.0308 34.3857L30.3692 34.377C30.3692 35.629 29.8789 36.5742 28.5103 36.5742C27.5947 36.5742 26.9502 36.0725 26.9502 34.7988V31.7314H27.7632V34.8076C27.7632 35.661 28.1997 35.8843 28.6377 35.8843C28.9834 35.8843 29.2573 35.8184 29.4595 35.6865C29.867 35.4149 30.0308 34.9381 30.0308 34.3857Z" fill="black"/>
<path d="M32.6566 32.4785V36.4863H31.8436V31.7314H32.6346L32.6566 32.4785ZM34.142 31.7051L34.1376 32.4609C34.0058 32.4323 33.8979 32.4258 33.7421 32.4258C32.9966 32.4258 32.6052 32.9081 32.5336 33.6123L32.305 33.7441C32.305 33.457 32.3329 33.1875 32.3885 32.9355C32.4471 32.6836 32.5365 32.4609 32.6566 32.2676C32.8991 31.8713 33.2707 31.6436 33.7816 31.6436C33.8984 31.6436 34.0832 31.6757 34.142 31.7051Z" fill="black"/>
<path d="M36.6887 36.5742C35.2798 36.5742 34.5046 35.3855 34.5046 34.0913C34.5046 32.9246 35.0648 32.1304 35.8098 31.8062C37.517 31.063 38.5388 32.8064 38.5388 34.3374H34.988V33.6738H37.7258C37.7258 32.9826 37.3453 32.3115 36.5832 32.3115C35.8491 32.3115 35.322 32.9407 35.322 34.0913C35.322 34.9694 35.71 35.9106 36.7326 35.9106C37.3068 35.9106 37.6862 35.6572 37.9851 35.2646L38.4772 35.6558C38.1708 36.1199 37.6361 36.5742 36.6887 36.5742Z" fill="black"/>
<path d="M13.9839 38.6548L11.8657 44.4863H11L13.439 38.0879H13.9971L13.9839 38.6548ZM15.7593 44.4863L13.6367 38.6548L13.6235 38.0879H14.1816L16.6294 44.4863H15.7593ZM15.6494 42.1177V42.812H12.0547V42.1177H15.6494Z" fill="black"/>
<path d="M19.1761 43.9062C19.7588 43.9062 20.2532 43.5148 20.2967 42.9834H21.0702C21.0206 43.9345 20.0665 44.5742 19.1761 44.5742C17.7573 44.5742 17.0623 43.341 17.0623 42.0166C17.0623 40.7676 17.8217 39.6436 19.1761 39.6436C20.2879 39.6436 21.0261 40.3783 21.0702 41.3662H20.2967C20.2531 40.7816 19.8307 40.3115 19.1761 40.3115C18.2093 40.3115 17.8753 41.1605 17.8753 42.0166C17.8753 42.8646 18.1338 43.9062 19.1761 43.9062Z" fill="black"/>
<path d="M23.7971 43.9062C24.3797 43.9062 24.8741 43.5148 24.9177 42.9834H25.6911C25.642 43.9262 24.6847 44.5742 23.7971 44.5742C22.3256 44.5742 21.6833 43.3433 21.6833 42.0166C21.6833 40.7676 22.4426 39.6436 23.7971 39.6436C24.9088 39.6436 25.647 40.3783 25.6911 41.3662H24.9177C24.874 40.7816 24.4516 40.3115 23.7971 40.3115C22.8459 40.3115 22.4963 41.2025 22.4963 42.0166C22.4963 42.8961 22.7672 43.9062 23.7971 43.9062Z" fill="black"/>
<path d="M28.4883 44.5742C27.1753 44.5742 26.3042 43.5283 26.3042 42.2759C26.3042 41.0266 26.991 39.6436 28.3828 39.6436C29.9633 39.6436 30.3384 41.0273 30.3384 42.3374H26.7876V41.6738H29.5254C29.5254 40.9985 29.123 40.3115 28.3828 40.3115C27.3646 40.3115 27.1216 41.4492 27.1216 42.2759C27.1216 43.1794 27.6528 43.9106 28.5322 43.9106C29.1065 43.9106 29.4859 43.6572 29.7847 43.2646L30.2769 43.6558C29.9704 44.1199 29.4357 44.5742 28.4883 44.5742Z" fill="black"/>
<path d="M33.9662 43.2251C33.9662 42.8717 33.8131 42.588 32.8719 42.4033C31.8335 42.1841 31.1581 41.8249 31.1581 41.0322C31.1581 40.274 31.8616 39.6436 32.9203 39.6436C34.0593 39.6436 34.7308 40.3064 34.7308 41.1289H33.9178C33.9178 40.7337 33.567 40.3115 32.9203 40.3115C32.2575 40.3115 31.9754 40.6528 31.9754 41.0103C31.9754 41.3537 32.1667 41.5422 33.0697 41.7441C34.2386 42.0078 34.7792 42.3989 34.7792 43.1636C34.7792 43.98 34.0821 44.5742 32.9422 44.5742C32.0288 44.5742 30.9955 44.0398 30.9955 43.0186H31.8129C31.845 43.6293 32.3929 43.9062 32.9422 43.9062C33.6178 43.9062 33.9662 43.6184 33.9662 43.2251Z" fill="black"/>
<path d="M38.5256 43.2251C38.5256 42.8717 38.3725 42.588 37.4313 42.4033C36.3929 42.1841 35.7175 41.8249 35.7175 41.0322C35.7175 40.1239 36.6696 39.6436 37.4797 39.6436C38.6188 39.6436 39.2902 40.3064 39.2902 41.1289H38.4772C38.4772 40.6037 37.946 40.3115 37.4797 40.3115C36.8169 40.3115 36.5349 40.6528 36.5349 41.0103C36.5349 41.3537 36.7261 41.5422 37.6291 41.7441C38.798 42.0078 39.3386 42.3989 39.3386 43.1636C39.3386 44.1456 38.3494 44.5742 37.5017 44.5742C36.5882 44.5742 35.5549 44.0398 35.5549 43.0186H36.3723C36.4038 43.6185 36.9415 43.9062 37.5017 43.9062C38.1772 43.9062 38.5256 43.6184 38.5256 43.2251Z" fill="black"/>
<path d="M31.4881 22.9126C30.2847 22.3017 28.4316 22.5731 28.4316 24.2471C28.4316 25.898 30.2888 26.2236 31.4881 25.5851V27.2641C29.2837 27.8764 26.7156 26.875 26.7156 24.2467C26.7156 21.6534 29.2902 20.5795 31.4881 21.2337V22.9126ZM15.0117 22.9126C13.8111 22.2887 11.9557 22.5834 11.9557 24.2471C11.9557 25.8881 13.8156 26.236 15.0117 25.5851V27.2641C12.8075 27.8826 10.2412 26.8702 10.2412 24.2467C10.2412 21.6572 12.8144 20.5752 15.0117 21.2337V22.9126ZM36.4536 22.6022C35.5171 22.6022 34.8216 23.3391 34.8216 24.2471C34.8216 25.1571 35.5171 25.8936 36.4536 25.8936C37.3891 25.8936 38.0866 25.1571 38.0866 24.2471C38.0866 23.3391 37.3891 22.6022 36.4536 22.6022ZM39.7591 24.2471C39.7591 26.0366 38.3776 27.4866 36.4541 27.4866C34.5296 27.4866 33.1501 26.0366 33.1501 24.2467C33.1501 22.4607 34.5301 21.0091 36.4536 21.0091C38.3776 21.0091 39.7591 22.4606 39.7591 24.2471ZM24.7461 22.5422C24.3078 22.4023 22.5356 22.0274 22.5356 22.8637C22.5356 23.3664 23.3153 23.4775 23.6946 23.5982C24.7196 23.9242 25.1861 24.6256 25.1861 25.3876C25.1861 27.6399 22.5015 27.6483 20.8927 27.3161V25.8761C21.4213 26.0092 23.5296 26.5307 23.5296 25.5251C23.5296 25.2081 23.2171 25.0251 22.8256 24.9021C21.8685 24.5797 20.8767 24.1433 20.8767 22.9631C20.8767 20.9222 23.2621 20.812 24.7461 21.2067V22.5422Z" fill="#049FD9"/>
<path d="M18.76 27.3759H17.1815V21.1204H18.76V27.3759Z" fill="#049FD9"/>
<path d="M8.56749 14.3979C8.56749 13.9669 8.21549 13.6174 7.784 13.6174C7.3525 13.6174 7 13.9669 7 14.3974V16.0399C7.01033 16.4488 7.37475 16.8041 7.78375 16.8041C8.19275 16.8041 8.55717 16.4488 8.56749 16.0399V14.3979ZM12.872 12.2429C12.872 11.8161 12.5151 11.4592 12.0882 11.4592C11.6613 11.4592 11.3045 11.816 11.3045 12.2429V16.0399C11.3045 16.4668 11.6613 16.8237 12.0882 16.8237C12.5151 16.8237 12.872 16.4668 12.872 16.0399V12.2429ZM17.177 9.29394C17.177 8.86294 16.825 8.51294 16.3935 8.51294C15.9615 8.51294 15.6095 8.86294 15.6095 9.29394V17.6004C15.6198 18.0093 15.9842 18.3646 16.3932 18.3646C16.8022 18.3646 17.1666 18.0093 17.177 17.6004V9.29394ZM21.4814 12.2429C21.4814 11.816 21.1246 11.4592 20.6977 11.4592C20.2708 11.4592 19.9139 11.816 19.9139 12.2429V16.0399C19.9139 16.4668 20.2708 16.8237 20.6977 16.8237C21.1246 16.8237 21.4814 16.4668 21.4814 16.0399V12.2429ZM25.7814 14.3979C25.7817 13.9844 25.416 13.6179 25.0024 13.6174C24.5879 13.6171 24.2205 13.9829 24.2189 14.3974V16.0399C24.2189 16.4654 24.5746 16.8212 25.0002 16.8212C25.4146 16.8212 25.7814 16.4543 25.7814 16.0399V14.3979ZM30.0879 12.2429C30.0776 11.8354 29.7143 11.4812 29.3066 11.4812C28.899 11.4812 28.5357 11.8354 28.5254 12.2429V16.0399C28.5254 16.4654 28.8811 16.8212 29.3066 16.8212C29.721 16.8212 30.0879 16.4543 30.0879 16.0399V12.2429ZM34.3954 9.29394C34.3954 8.86842 34.0396 8.5127 33.6141 8.5127C33.1886 8.5127 32.8329 8.86842 32.8329 9.29394V17.6004C32.814 18.0319 33.1773 18.4166 33.6141 18.4166C34.0461 18.4166 34.4145 18.0368 34.3954 17.6004V9.29394ZM38.7018 12.2429C38.7018 11.8114 38.3523 11.4609 37.9108 11.4609C37.4965 11.4612 37.1299 11.8281 37.1299 12.2424V16.0399C37.1299 16.4734 37.4798 16.8229 37.9108 16.8229C38.3523 16.8229 38.7018 16.4734 38.7018 16.0399V12.2429ZM43.0003 14.3979C43.0003 13.972 42.6443 13.6159 42.2183 13.6159C41.7924 13.6159 41.4363 13.972 41.4363 14.3979V16.0399C41.4363 16.4734 41.7868 16.8234 42.2183 16.8234C42.6493 16.8234 42.9998 16.4734 42.9998 16.0399L43.0003 14.3979Z" fill="#049FD9"/>
</svg>
