<svg width="50" height="50" viewBox="0 0 50 50" fill="none" xmlns="http://www.w3.org/2000/svg">
<path d="M31.4881 22.9126C30.2847 22.3017 28.4316 22.5731 28.4316 24.2471C28.4316 25.898 30.2888 26.2236 31.4881 25.5851V27.2641C29.2837 27.8764 26.7156 26.875 26.7156 24.2467C26.7156 21.6534 29.2902 20.5795 31.4881 21.2337V22.9126ZM15.0117 22.9126C13.8111 22.2887 11.9557 22.5834 11.9557 24.2471C11.9557 25.8881 13.8156 26.236 15.0117 25.5851V27.2641C12.8075 27.8826 10.2412 26.8702 10.2412 24.2467C10.2412 21.6572 12.8144 20.5752 15.0117 21.2337V22.9126ZM36.4536 22.6022C35.5171 22.6022 34.8216 23.3391 34.8216 24.2471C34.8216 25.1571 35.5171 25.8936 36.4536 25.8936C37.3891 25.8936 38.0866 25.1571 38.0866 24.2471C38.0866 23.3391 37.3891 22.6022 36.4536 22.6022ZM39.7591 24.2471C39.7591 26.0366 38.3776 27.4866 36.4541 27.4866C34.5296 27.4866 33.1501 26.0366 33.1501 24.2467C33.1501 22.4607 34.5301 21.0091 36.4536 21.0091C38.3776 21.0091 39.7591 22.4606 39.7591 24.2471ZM24.7461 22.5422C24.3078 22.4023 22.5356 22.0274 22.5356 22.8637C22.5356 23.3664 23.3153 23.4775 23.6946 23.5982C24.7196 23.9242 25.1861 24.6256 25.1861 25.3876C25.1861 27.6399 22.5015 27.6483 20.8927 27.3161V25.8761C21.4213 26.0092 23.5296 26.5307 23.5296 25.5251C23.5296 25.2081 23.2171 25.0251 22.8256 24.9021C21.8685 24.5797 20.8767 24.1433 20.8767 22.9631C20.8767 20.9222 23.2621 20.812 24.7461 21.2067V22.5422Z" fill="#049FD9"/>
<path d="M18.76 27.3759H17.1815V21.1204H18.76V27.3759Z" fill="#049FD9"/>
<path d="M8.56749 14.3979C8.56749 13.9669 8.21549 13.6174 7.784 13.6174C7.3525 13.6174 7 13.9669 7 14.3974V16.0399C7.01033 16.4488 7.37475 16.8041 7.78375 16.8041C8.19275 16.8041 8.55717 16.4488 8.56749 16.0399V14.3979ZM12.872 12.2429C12.872 11.8161 12.5151 11.4592 12.0882 11.4592C11.6613 11.4592 11.3045 11.816 11.3045 12.2429V16.0399C11.3045 16.4668 11.6613 16.8237 12.0882 16.8237C12.5151 16.8237 12.872 16.4668 12.872 16.0399V12.2429ZM17.177 9.29394C17.177 8.86294 16.825 8.51294 16.3935 8.51294C15.9615 8.51294 15.6095 8.86294 15.6095 9.29394V17.6004C15.6198 18.0093 15.9842 18.3646 16.3932 18.3646C16.8022 18.3646 17.1666 18.0093 17.177 17.6004V9.29394ZM21.4814 12.2429C21.4814 11.816 21.1246 11.4592 20.6977 11.4592C20.2708 11.4592 19.9139 11.816 19.9139 12.2429V16.0399C19.9139 16.4668 20.2708 16.8237 20.6977 16.8237C21.1246 16.8237 21.4814 16.4668 21.4814 16.0399V12.2429ZM25.7814 14.3979C25.7817 13.9844 25.416 13.6179 25.0024 13.6174C24.5879 13.6171 24.2205 13.9829 24.2189 14.3974V16.0399C24.2189 16.4654 24.5746 16.8212 25.0002 16.8212C25.4146 16.8212 25.7814 16.4543 25.7814 16.0399V14.3979ZM30.0879 12.2429C30.0776 11.8354 29.7143 11.4812 29.3066 11.4812C28.899 11.4812 28.5357 11.8354 28.5254 12.2429V16.0399C28.5254 16.4654 28.8811 16.8212 29.3066 16.8212C29.721 16.8212 30.0879 16.4543 30.0879 16.0399V12.2429ZM34.3954 9.29394C34.3954 8.86842 34.0396 8.5127 33.6141 8.5127C33.1886 8.5127 32.8329 8.86842 32.8329 9.29394V17.6004C32.814 18.0319 33.1773 18.4166 33.6141 18.4166C34.0461 18.4166 34.4145 18.0368 34.3954 17.6004V9.29394ZM38.7018 12.2429C38.7018 11.8114 38.3523 11.4609 37.9108 11.4609C37.4965 11.4612 37.1299 11.8281 37.1299 12.2424V16.0399C37.1299 16.4734 37.4798 16.8229 37.9108 16.8229C38.3523 16.8229 38.7018 16.4734 38.7018 16.0399V12.2429ZM43.0003 14.3979C43.0003 13.972 42.6443 13.6159 42.2183 13.6159C41.7924 13.6159 41.4363 13.972 41.4363 14.3979V16.0399C41.4363 16.4734 41.7868 16.8234 42.2183 16.8234C42.6493 16.8234 42.9998 16.4734 42.9998 16.0399L43.0003 14.3979Z" fill="#049FD9"/>
<path d="M4.72656 30.3237V37.4331H3.78418V30.3237H4.72656ZM7.70508 33.522V34.2935H4.52148V33.522H7.70508ZM8.18848 30.3237V31.0952H4.52148V30.3237H8.18848Z" fill="#1C1D1F"/>
<path d="M10.1562 32.1499V37.4331H9.24805V32.1499H10.1562ZM9.17969 30.7485C9.17969 30.4532 9.36314 30.2261 9.71191 30.2261C10.0598 30.2261 10.249 30.4579 10.249 30.7485C10.249 31.0238 10.0629 31.2563 9.71191 31.2563C9.36004 31.2563 9.17969 31.0282 9.17969 30.7485Z" fill="#1C1D1F"/>
<path d="M12.5098 32.98V37.4331H11.6064V32.1499H12.4854L12.5098 32.98ZM14.1602 32.1206L14.1553 32.9604C14.0088 32.9286 13.889 32.9214 13.7158 32.9214C12.8875 32.9214 12.4526 33.4573 12.373 34.2397L12.1191 34.3862C12.1191 33.3508 12.5179 32.0522 13.7598 32.0522C13.8896 32.0522 14.0948 32.0879 14.1602 32.1206Z" fill="#1C1D1F"/>
<path d="M17.0898 37.5308C15.6309 37.5308 14.6631 36.3686 14.6631 34.9771C14.6631 33.5847 15.3726 32.0522 16.9727 32.0522C18.638 32.0522 19.1455 33.5847 19.1455 35.0454H15.2002V34.3081H18.2422C18.2422 33.5224 17.8076 32.7944 16.9727 32.7944C15.8131 32.7944 15.5713 34.0597 15.5713 34.9771C15.5713 35.981 16.1615 36.7935 17.1387 36.7935C17.7767 36.7935 18.1982 36.5119 18.5303 36.0757L19.0771 36.5103C18.7366 37.0259 18.1426 37.5308 17.0898 37.5308Z" fill="#1C1D1F"/>
<path d="M21.1035 33.1655V39.4644H20.1953V32.1499H21.0254L21.1035 33.1655ZM24.6631 34.7476C24.6631 36.0314 24.0815 37.5308 22.6123 37.5308C21.9417 37.5308 21.4274 37.3045 21.0693 36.8813C20.7119 36.4589 20.5031 35.8621 20.4248 35.1187V34.5718C20.5029 33.7905 20.7178 33.1672 21.0693 32.731C21.4283 32.2872 21.9352 32.0522 22.5977 32.0522C23.9185 32.0522 24.6631 33.1228 24.6631 34.7476ZM23.7549 34.8501C23.7549 33.9353 23.4087 32.814 22.334 32.814C21.6607 32.814 21.2533 33.1825 21.0254 33.6978C20.7825 34.2609 20.8643 34.8794 20.8643 35.48C20.9294 35.7078 21.0205 35.9227 21.1377 36.1245C21.3712 36.5202 21.7491 36.7886 22.3438 36.7886C23.3439 36.7886 23.7549 35.8845 23.7549 34.8501Z" fill="#1C1D1F"/>
<path d="M25.5762 34.8501C25.5762 33.4115 26.3992 32.0522 27.9736 32.0522C29.5012 32.0522 30.3857 33.4028 30.3857 34.8501C30.3857 36.2669 29.4502 37.5308 27.9834 37.5308C26.4936 37.5308 25.5762 36.3712 25.5762 34.8501ZM26.4795 34.8501C26.4795 35.7744 26.9545 36.7886 27.9834 36.7886C28.9927 36.7886 29.4775 35.8865 29.4775 34.8501C29.4775 33.905 29.0964 32.7944 27.9736 32.7944C26.876 32.7944 26.4795 33.9293 26.4795 34.8501Z" fill="#1C1D1F"/>
<path d="M32.8564 36.4956L34.2139 32.1499H34.8096L34.6924 33.0142L33.3105 37.4331H32.7295L32.8564 36.4956ZM31.9434 32.1499L33.1006 36.5444L33.1836 37.4331H32.5732L31.04 32.1499H31.9434ZM36.1084 36.5103L37.2119 32.1499H38.1104L36.5771 37.4331H35.9717L36.1084 36.5103ZM34.9414 32.1499L36.2695 36.4224L36.4209 37.4331H35.8447L34.4238 33.0044L34.3066 32.1499H34.9414Z" fill="#1C1D1F"/>
<path d="M41.2305 37.5308C39.6956 37.5308 38.8037 36.2468 38.8037 34.772C38.8037 33.0423 39.9309 32.0522 41.1133 32.0522C42.7787 32.0522 43.2861 33.5847 43.2861 35.0454H39.3408V34.3081H42.3828C42.3828 33.5577 41.9357 32.7944 41.1133 32.7944C39.972 32.7944 39.7119 34.0742 39.7119 34.9771C39.7119 35.8943 40.2719 36.7935 41.2793 36.7935C41.9173 36.7935 42.3389 36.5119 42.6709 36.0757L43.2178 36.5103C42.8772 37.0259 42.2832 37.5308 41.2305 37.5308Z" fill="#1C1D1F"/>
<path d="M45.2441 32.98V37.4331H44.3408V32.1499H45.2197L45.2441 32.98ZM46.8945 32.1206L46.8896 32.9604C46.7432 32.9286 46.6234 32.9214 46.4502 32.9214C45.6219 32.9214 45.187 33.4573 45.1074 34.2397L44.8535 34.3862C44.8535 33.3658 45.2597 32.0522 46.4941 32.0522C46.6239 32.0522 46.8292 32.0879 46.8945 32.1206Z" fill="#1C1D1F"/>
</svg>
