<svg width="50" height="50" viewBox="0 0 50 50" fill="none" xmlns="http://www.w3.org/2000/svg">
<path d="M31.4881 22.9126C30.2847 22.3017 28.4316 22.5731 28.4316 24.2471C28.4316 25.898 30.2888 26.2236 31.4881 25.5851V27.2641C29.2837 27.8764 26.7156 26.875 26.7156 24.2467C26.7156 21.6534 29.2902 20.5795 31.4881 21.2337V22.9126ZM15.0117 22.9126C13.8111 22.2887 11.9557 22.5834 11.9557 24.2471C11.9557 25.8881 13.8156 26.236 15.0117 25.5851V27.2641C12.8075 27.8826 10.2412 26.8702 10.2412 24.2467C10.2412 21.6572 12.8144 20.5752 15.0117 21.2337V22.9126ZM36.4536 22.6022C35.5171 22.6022 34.8216 23.3391 34.8216 24.2471C34.8216 25.1571 35.5171 25.8936 36.4536 25.8936C37.3891 25.8936 38.0866 25.1571 38.0866 24.2471C38.0866 23.3391 37.3891 22.6022 36.4536 22.6022ZM39.7591 24.2471C39.7591 26.0366 38.3776 27.4866 36.4541 27.4866C34.5296 27.4866 33.1501 26.0366 33.1501 24.2467C33.1501 22.4607 34.5301 21.0091 36.4536 21.0091C38.3776 21.0091 39.7591 22.4606 39.7591 24.2471ZM24.7461 22.5422C24.3078 22.4023 22.5356 22.0274 22.5356 22.8637C22.5356 23.3664 23.3153 23.4775 23.6946 23.5982C24.7196 23.9242 25.1861 24.6256 25.1861 25.3876C25.1861 27.6399 22.5015 27.6483 20.8927 27.3161V25.8761C21.4213 26.0092 23.5296 26.5307 23.5296 25.5251C23.5296 25.2081 23.2171 25.0251 22.8256 24.9021C21.8685 24.5797 20.8767 24.1433 20.8767 22.9631C20.8767 20.9222 23.2621 20.812 24.7461 21.2067V22.5422Z" fill="#049FD9"/>
<path d="M18.76 27.3759H17.1815V21.1204H18.76V27.3759Z" fill="#049FD9"/>
<path d="M8.56749 14.3979C8.56749 13.9669 8.21549 13.6174 7.784 13.6174C7.3525 13.6174 7 13.9669 7 14.3974V16.0399C7.01033 16.4488 7.37475 16.8041 7.78375 16.8041C8.19275 16.8041 8.55717 16.4488 8.56749 16.0399V14.3979ZM12.872 12.2429C12.872 11.8161 12.5151 11.4592 12.0882 11.4592C11.6613 11.4592 11.3045 11.816 11.3045 12.2429V16.0399C11.3045 16.4668 11.6613 16.8237 12.0882 16.8237C12.5151 16.8237 12.872 16.4668 12.872 16.0399V12.2429ZM17.177 9.29394C17.177 8.86294 16.825 8.51294 16.3935 8.51294C15.9615 8.51294 15.6095 8.86294 15.6095 9.29394V17.6004C15.6198 18.0093 15.9842 18.3646 16.3932 18.3646C16.8022 18.3646 17.1666 18.0093 17.177 17.6004V9.29394ZM21.4814 12.2429C21.4814 11.816 21.1246 11.4592 20.6977 11.4592C20.2708 11.4592 19.9139 11.816 19.9139 12.2429V16.0399C19.9139 16.4668 20.2708 16.8237 20.6977 16.8237C21.1246 16.8237 21.4814 16.4668 21.4814 16.0399V12.2429ZM25.7814 14.3979C25.7817 13.9844 25.416 13.6179 25.0024 13.6174C24.5879 13.6171 24.2205 13.9829 24.2189 14.3974V16.0399C24.2189 16.4654 24.5746 16.8212 25.0002 16.8212C25.4146 16.8212 25.7814 16.4543 25.7814 16.0399V14.3979ZM30.0879 12.2429C30.0776 11.8354 29.7143 11.4812 29.3066 11.4812C28.899 11.4812 28.5357 11.8354 28.5254 12.2429V16.0399C28.5254 16.4654 28.8811 16.8212 29.3066 16.8212C29.721 16.8212 30.0879 16.4543 30.0879 16.0399V12.2429ZM34.3954 9.29394C34.3954 8.86842 34.0396 8.5127 33.6141 8.5127C33.1886 8.5127 32.8329 8.86842 32.8329 9.29394V17.6004C32.814 18.0319 33.1773 18.4166 33.6141 18.4166C34.0461 18.4166 34.4145 18.0368 34.3954 17.6004V9.29394ZM38.7018 12.2429C38.7018 11.8114 38.3523 11.4609 37.9108 11.4609C37.4965 11.4612 37.1299 11.8281 37.1299 12.2424V16.0399C37.1299 16.4734 37.4798 16.8229 37.9108 16.8229C38.3523 16.8229 38.7018 16.4734 38.7018 16.0399V12.2429ZM43.0003 14.3979C43.0003 13.972 42.6443 13.6159 42.2183 13.6159C41.7924 13.6159 41.4363 13.972 41.4363 14.3979V16.0399C41.4363 16.4734 41.7868 16.8234 42.2183 16.8234C42.6493 16.8234 42.9998 16.4734 42.9998 16.0399L43.0003 14.3979Z" fill="#049FD9"/>
<path d="M9.75098 32.5889H10.3662L8.64355 38.9873H8.03271L9.75098 32.5889ZM7.16699 32.5889L8.48096 38.9873H7.87451L6.32324 32.5889H7.16699ZM12.9985 32.5889H13.8467L12.2998 38.9873H11.6934L12.9985 32.5889ZM10.4585 32.5889L12.1416 38.9873H11.5308L9.85205 32.5889H10.4585Z" fill="#1C1D1F"/>
<path d="M14.3081 36.6626C14.3081 35.3948 15.0777 34.1445 16.4658 34.1445C17.8031 34.1445 18.6367 35.1822 18.6367 36.5615C18.6367 37.8256 17.8562 39.0752 16.4746 39.0752C15.1338 39.0752 14.3081 38.0316 14.3081 36.6626ZM15.1211 36.6626C15.1211 37.6049 15.5683 38.4072 16.4746 38.4072C17.4818 38.4072 17.8193 37.4076 17.8193 36.5615C17.8193 35.7375 17.3871 34.8125 16.4658 34.8125C15.4918 34.8125 15.1211 35.8182 15.1211 36.6626Z" fill="#1C1D1F"/>
<path d="M20.4692 34.9795V38.9873H19.6562V34.2324H20.4473L20.4692 34.9795ZM21.9546 34.2061L21.9502 34.9619C21.8184 34.9333 21.7105 34.9268 21.5547 34.9268C20.8092 34.9268 20.4178 35.4091 20.3462 36.1133L20.1177 36.2451C20.1177 35.0828 20.5833 34.1445 21.5942 34.1445C21.711 34.1445 21.8958 34.1767 21.9546 34.2061Z" fill="#1C1D1F"/>
<path d="M23.5234 32.2373V38.9873H22.7061V32.2373H23.5234ZM26.4282 34.2324L23.1938 37.6558L23.1279 36.79L25.4351 34.2324H26.4282ZM25.6855 38.9873L23.9893 36.7197L24.4111 35.9946L26.6436 38.9873H25.6855Z" fill="#1C1D1F"/>
<path d="M28.1509 32.2373V38.9873H27.3335V32.2373H28.1509Z" fill="#1C1D1F"/>
<path d="M29.2407 36.6626C29.2407 35.3948 30.0104 34.1445 31.3984 34.1445C32.7357 34.1445 33.5693 35.1822 33.5693 36.5615C33.5693 37.8656 32.8317 39.0752 31.4072 39.0752C30.0664 39.0752 29.2407 38.0316 29.2407 36.6626ZM30.0537 36.5615C30.0537 37.4162 30.3997 38.4072 31.4072 38.4072C32.3156 38.4072 32.752 37.5953 32.752 36.6626C32.752 35.8163 32.3712 34.8125 31.3984 34.8125C30.4565 34.8125 30.0537 35.7469 30.0537 36.5615Z" fill="#1C1D1F"/>
<path d="M37.3926 38.1743V35.7266C37.3926 35.1612 37.0481 34.7993 36.3906 34.7993C35.7843 34.7993 35.3623 35.1499 35.3623 35.5508H34.5493C34.5493 34.6187 35.643 34.1445 36.439 34.1445C37.4814 34.1445 38.2056 34.6729 38.2056 35.7354V37.9502C38.2056 38.3071 38.3726 38.6484 38.3726 38.9873H37.5244C37.4834 38.8936 37.4512 38.769 37.4277 38.6138C37.4043 38.4556 37.3926 38.3091 37.3926 38.1743ZM37.5332 36.1045L37.542 36.6758C36.8371 36.6758 35.2656 36.4655 35.2656 37.5547C35.2656 38.0041 35.5808 38.3633 36.1753 38.3633C36.712 38.3633 37.4346 37.9808 37.4717 37.3745L37.8188 37.7656C37.738 38.2508 37.112 39.0752 36.0566 39.0752C35.2428 39.0752 34.4482 38.5495 34.4482 37.6646C34.4482 36.0687 36.3684 36.1045 37.5332 36.1045Z" fill="#1C1D1F"/>
<path d="M42.4814 38.0645V32.2373H43.2988V38.9873H42.5518L42.4814 38.0645ZM39.2822 36.6626C39.2822 35.5041 39.7938 34.1445 41.1631 34.1445C41.7625 34.1445 42.2069 34.3581 42.5166 34.7554C42.9797 35.33 43.0791 36.1022 43.0791 36.8164C43.0148 37.5126 42.8335 38.0756 42.5166 38.4688C42.2068 38.8604 41.7593 39.0752 41.1543 39.0752C40.0512 39.0752 39.2822 38.0468 39.2822 36.6626ZM40.0996 36.5703C40.0996 37.3826 40.3602 38.3853 41.3564 38.3853C42.0928 38.3853 42.5094 37.8202 42.688 37.1504V36.0913C42.5468 35.4443 42.1928 34.8301 41.3652 34.8301C40.4981 34.8301 40.0996 35.5977 40.0996 36.5703Z" fill="#1C1D1F"/>
</svg>
