<svg width="50" height="50" viewBox="0 0 50 50" fill="none" xmlns="http://www.w3.org/2000/svg">
<path d="M31.4881 22.9129C31.4231 22.8799 30.9151 22.5789 30.1601 22.5789C29.1396 22.5789 28.4316 23.2889 28.4316 24.2474C28.4316 25.1769 29.1091 25.9174 30.1601 25.9174C30.9021 25.9174 31.4186 25.6224 31.4881 25.5854V27.2643C31.2901 27.3193 30.7506 27.4868 30.0496 27.4868C28.2741 27.4868 26.7156 26.2629 26.7156 24.2469C26.7156 22.3794 28.1256 21.0094 30.0496 21.0094C30.7896 21.0094 31.3386 21.1894 31.4881 21.2339V22.9129ZM15.0117 22.9129C14.9482 22.8799 14.4407 22.5789 13.6857 22.5789C12.6632 22.5789 11.9557 23.2889 11.9557 24.2474C11.9557 25.1769 12.6337 25.9174 13.6857 25.9174C14.4277 25.9174 14.9437 25.6224 15.0117 25.5854V27.2643C14.8157 27.3193 14.2767 27.4868 13.5717 27.4868C11.7977 27.4868 10.2412 26.2629 10.2412 24.2469C10.2412 22.3794 11.6512 21.0094 13.5722 21.0094C14.3152 21.0094 14.8632 21.1894 15.0117 21.2339V22.9129ZM36.4536 22.6024C35.5171 22.6024 34.8216 23.3394 34.8216 24.2474C34.8216 25.1574 35.5171 25.8939 36.4536 25.8939C37.3891 25.8939 38.0866 25.1574 38.0866 24.2474C38.0866 23.3394 37.3891 22.6024 36.4536 22.6024ZM39.7591 24.2474C39.7591 26.0369 38.3776 27.4868 36.4541 27.4868C34.5296 27.4868 33.1501 26.0369 33.1501 24.2469C33.1501 22.4609 34.5301 21.0094 36.4536 21.0094C38.3776 21.0094 39.7591 22.4609 39.7591 24.2474ZM24.7461 22.5424C24.7226 22.5349 24.0581 22.3514 23.5121 22.3514C22.8796 22.3514 22.5356 22.5634 22.5356 22.8639C22.5356 23.2449 22.9996 23.3779 23.2591 23.4599L23.6946 23.5984C24.7196 23.9244 25.1861 24.6259 25.1861 25.3879C25.1861 26.9594 23.8041 27.4873 22.5961 27.4873C21.7566 27.4873 20.9702 27.3323 20.8927 27.3163V25.8764C21.0317 25.9114 21.6937 26.1094 22.3831 26.1094C23.1686 26.1094 23.5296 25.8794 23.5296 25.5254C23.5296 25.2084 23.2171 25.0254 22.8256 24.9024C22.7306 24.8704 22.5866 24.8254 22.4886 24.7934C21.6097 24.5154 20.8767 23.9984 20.8767 22.9634C20.8767 21.7934 21.7526 21.0079 23.2076 21.0079C23.9761 21.0079 24.6991 21.1944 24.7461 21.2069V22.5424Z" fill="#049FD9"/>
<path d="M18.76 27.376H17.1815V21.1205H18.76V27.376Z" fill="#049FD9"/>
<path d="M8.56749 14.3982C8.56749 13.9672 8.21549 13.6176 7.784 13.6176C7.3525 13.6176 7 13.9671 7 14.3976V16.0401C7.00516 16.2446 7.09 16.4389 7.23642 16.5817C7.38284 16.7244 7.57925 16.8043 7.78375 16.8043C7.98825 16.8043 8.18465 16.7244 8.33107 16.5817C8.47749 16.4389 8.56233 16.2446 8.56749 16.0401V14.3982ZM12.872 12.2432C12.872 12.0353 12.7894 11.836 12.6424 11.689C12.4954 11.542 12.2961 11.4594 12.0882 11.4594C11.8804 11.4594 11.681 11.542 11.534 11.689C11.3871 11.836 11.3045 12.0353 11.3045 12.2432V16.0401C11.3045 16.248 11.3871 16.4474 11.534 16.5943C11.681 16.7413 11.8804 16.8239 12.0882 16.8239C12.2961 16.8239 12.4954 16.7413 12.6424 16.5943C12.7894 16.4474 12.872 16.248 12.872 16.0401V12.2432ZM17.177 9.29418C17.177 8.86319 16.825 8.51318 16.3935 8.51318C15.9615 8.51318 15.6095 8.86319 15.6095 9.29418V17.6006C15.6146 17.805 15.6995 17.9994 15.8459 18.1421C15.9923 18.2849 16.1887 18.3648 16.3932 18.3648C16.5977 18.3648 16.7941 18.2849 16.9405 18.1421C17.0869 17.9994 17.1718 17.805 17.177 17.6006V9.29418ZM21.4814 12.2432C21.4814 12.0353 21.3989 11.836 21.2519 11.689C21.1049 11.542 20.9055 11.4594 20.6977 11.4594C20.4898 11.4594 20.2905 11.542 20.1435 11.689C19.9965 11.836 19.9139 12.0353 19.9139 12.2432V16.0401C19.9139 16.248 19.9965 16.4474 20.1435 16.5943C20.2905 16.7413 20.4898 16.8239 20.6977 16.8239C20.9055 16.8239 21.1049 16.7413 21.2519 16.5943C21.3989 16.4474 21.4814 16.248 21.4814 16.0401V12.2432ZM25.7814 14.3982C25.7815 14.1914 25.6996 13.993 25.5535 13.8466C25.4074 13.7003 25.2092 13.6179 25.0024 13.6176C24.7952 13.6175 24.5963 13.6996 24.4495 13.8458C24.3026 13.992 24.2197 14.1904 24.2189 14.3976V16.0401C24.2189 16.2473 24.3012 16.4461 24.4477 16.5926C24.5942 16.7391 24.793 16.8214 25.0002 16.8214C25.2074 16.8214 25.4061 16.7391 25.5526 16.5926C25.6991 16.4461 25.7814 16.2473 25.7814 16.0401V14.3982ZM30.0879 12.2432C30.0827 12.0394 29.9982 11.8457 29.8522 11.7034C29.7063 11.5611 29.5105 11.4814 29.3066 11.4814C29.1028 11.4814 28.907 11.5611 28.7611 11.7034C28.6151 11.8457 28.5306 12.0394 28.5254 12.2432V16.0401C28.5254 16.2473 28.6077 16.4461 28.7542 16.5926C28.9007 16.7391 29.0994 16.8214 29.3066 16.8214C29.5138 16.8214 29.7125 16.7391 29.8591 16.5926C30.0056 16.4461 30.0879 16.2473 30.0879 16.0401V12.2432ZM34.3954 9.29418C34.3954 9.08698 34.3131 8.88827 34.1665 8.74176C34.02 8.59525 33.8213 8.51294 33.6141 8.51294C33.4069 8.51294 33.2082 8.59525 33.0617 8.74176C32.9152 8.88827 32.8329 9.08698 32.8329 9.29418V17.6006C32.8282 17.7061 32.845 17.8114 32.8822 17.9102C32.9194 18.009 32.9762 18.0993 33.0492 18.1756C33.1222 18.2518 33.2099 18.3125 33.307 18.354C33.4041 18.3955 33.5085 18.4169 33.6141 18.4169C33.7197 18.4169 33.8242 18.3955 33.9213 18.354C34.0184 18.3125 34.106 18.2518 34.179 18.1756C34.252 18.0993 34.3088 18.009 34.346 17.9102C34.3832 17.8114 34.4 17.7061 34.3954 17.6006V9.29418ZM38.7018 12.2432C38.7018 11.8117 38.3523 11.4612 37.9108 11.4612C37.7037 11.4613 37.505 11.5437 37.3586 11.6902C37.2121 11.8368 37.1299 12.0355 37.1299 12.2427V16.0401C37.1299 16.4736 37.4798 16.8231 37.9108 16.8231C38.3523 16.8231 38.7018 16.4736 38.7018 16.0401V12.2432ZM43.0003 14.3982C43.0003 14.1908 42.9179 13.9918 42.7713 13.8452C42.6246 13.6985 42.4257 13.6161 42.2183 13.6161C42.0109 13.6161 41.812 13.6985 41.6654 13.8452C41.5187 13.9918 41.4363 14.1908 41.4363 14.3982V16.0401C41.4363 16.4736 41.7868 16.8236 42.2183 16.8236C42.6493 16.8236 42.9998 16.4736 42.9998 16.0401L43.0003 14.3982Z" fill="#049FD9"/>
<path d="M22.2072 36.6904C22.2072 36.0269 21.8775 35.7095 20.5177 35.3135C19.1069 34.8955 18.2131 34.3195 18.2131 33.2139C18.2131 32.0978 19.1837 31.2803 20.63 31.2803C21.8764 31.2803 23.1349 32.0916 23.1349 33.4287H22.1974C22.1974 32.6199 21.6862 32.0518 20.63 32.0518C19.627 32.0518 19.1554 32.5363 19.1554 33.2041C19.1554 33.8051 19.6659 34.1725 20.8205 34.4932C22.4328 34.9483 23.1545 35.5683 23.1545 36.6807C23.1545 37.8359 22.1858 38.585 20.674 38.585C19.4029 38.585 17.9884 37.8246 17.9884 36.4268H18.9259C18.9259 37.402 19.7726 37.8184 20.674 37.8184C21.6633 37.8184 22.2072 37.3796 22.2072 36.6904Z" fill="#1C1D1F"/>
<path d="M27.6369 31.378H28.3205L26.4064 38.4873H25.7277L27.6369 31.378ZM24.7658 31.378L26.2257 38.4873H25.5519L23.8283 31.378H24.7658ZM31.2453 31.378H32.1877L30.4689 38.4873H29.7951L31.2453 31.378ZM28.423 31.378L30.2931 38.4873H29.6144L27.7492 31.378H28.423Z" fill="#1C1D1F"/>
<path d="M31.4881 22.9126C30.2847 22.3017 28.4316 22.5731 28.4316 24.2471C28.4316 25.898 30.2888 26.2236 31.4881 25.5851V27.2641C29.2837 27.8764 26.7156 26.875 26.7156 24.2467C26.7156 21.6534 29.2902 20.5795 31.4881 21.2337V22.9126ZM15.0117 22.9126C13.8111 22.2887 11.9557 22.5834 11.9557 24.2471C11.9557 25.8881 13.8156 26.236 15.0117 25.5851V27.2641C12.8075 27.8826 10.2412 26.8702 10.2412 24.2467C10.2412 21.6572 12.8144 20.5752 15.0117 21.2337V22.9126ZM36.4536 22.6022C35.5171 22.6022 34.8216 23.3391 34.8216 24.2471C34.8216 25.1571 35.5171 25.8936 36.4536 25.8936C37.3891 25.8936 38.0866 25.1571 38.0866 24.2471C38.0866 23.3391 37.3891 22.6022 36.4536 22.6022ZM39.7591 24.2471C39.7591 26.0366 38.3776 27.4866 36.4541 27.4866C34.5296 27.4866 33.1501 26.0366 33.1501 24.2467C33.1501 22.4607 34.5301 21.0091 36.4536 21.0091C38.3776 21.0091 39.7591 22.4606 39.7591 24.2471ZM24.7461 22.5422C24.3078 22.4023 22.5356 22.0274 22.5356 22.8637C22.5356 23.3664 23.3153 23.4775 23.6946 23.5982C24.7196 23.9242 25.1861 24.6256 25.1861 25.3876C25.1861 27.6399 22.5015 27.6483 20.8927 27.3161V25.8761C21.4213 26.0092 23.5296 26.5307 23.5296 25.5251C23.5296 25.2081 23.2171 25.0251 22.8256 24.9021C21.8685 24.5797 20.8767 24.1433 20.8767 22.9631C20.8767 20.9222 23.2621 20.812 24.7461 21.2067V22.5422Z" fill="#049FD9"/>
<path d="M18.76 27.3759H17.1815V21.1204H18.76V27.3759Z" fill="#049FD9"/>
<path d="M8.56749 14.3979C8.56749 13.9669 8.21549 13.6174 7.784 13.6174C7.3525 13.6174 7 13.9669 7 14.3974V16.0399C7.01033 16.4488 7.37475 16.8041 7.78375 16.8041C8.19275 16.8041 8.55717 16.4488 8.56749 16.0399V14.3979ZM12.872 12.2429C12.872 11.8161 12.5151 11.4592 12.0882 11.4592C11.6613 11.4592 11.3045 11.816 11.3045 12.2429V16.0399C11.3045 16.4668 11.6613 16.8237 12.0882 16.8237C12.5151 16.8237 12.872 16.4668 12.872 16.0399V12.2429ZM17.177 9.29394C17.177 8.86294 16.825 8.51294 16.3935 8.51294C15.9615 8.51294 15.6095 8.86294 15.6095 9.29394V17.6004C15.6198 18.0093 15.9842 18.3646 16.3932 18.3646C16.8022 18.3646 17.1666 18.0093 17.177 17.6004V9.29394ZM21.4814 12.2429C21.4814 11.816 21.1246 11.4592 20.6977 11.4592C20.2708 11.4592 19.9139 11.816 19.9139 12.2429V16.0399C19.9139 16.4668 20.2708 16.8237 20.6977 16.8237C21.1246 16.8237 21.4814 16.4668 21.4814 16.0399V12.2429ZM25.7814 14.3979C25.7817 13.9844 25.416 13.6179 25.0024 13.6174C24.5879 13.6171 24.2205 13.9829 24.2189 14.3974V16.0399C24.2189 16.4654 24.5746 16.8212 25.0002 16.8212C25.4146 16.8212 25.7814 16.4543 25.7814 16.0399V14.3979ZM30.0879 12.2429C30.0776 11.8354 29.7143 11.4812 29.3066 11.4812C28.899 11.4812 28.5357 11.8354 28.5254 12.2429V16.0399C28.5254 16.4654 28.8811 16.8212 29.3066 16.8212C29.721 16.8212 30.0879 16.4543 30.0879 16.0399V12.2429ZM34.3954 9.29394C34.3954 8.86842 34.0396 8.5127 33.6141 8.5127C33.1886 8.5127 32.8329 8.86842 32.8329 9.29394V17.6004C32.814 18.0319 33.1773 18.4166 33.6141 18.4166C34.0461 18.4166 34.4145 18.0368 34.3954 17.6004V9.29394ZM38.7018 12.2429C38.7018 11.8114 38.3523 11.4609 37.9108 11.4609C37.4965 11.4612 37.1299 11.8281 37.1299 12.2424V16.0399C37.1299 16.4734 37.4798 16.8229 37.9108 16.8229C38.3523 16.8229 38.7018 16.4734 38.7018 16.0399V12.2429ZM43.0003 14.3979C43.0003 13.972 42.6443 13.6159 42.2183 13.6159C41.7924 13.6159 41.4363 13.972 41.4363 14.3979V16.0399C41.4363 16.4734 41.7868 16.8234 42.2183 16.8234C42.6493 16.8234 42.9998 16.4734 42.9998 16.0399L43.0003 14.3979Z" fill="#049FD9"/>
</svg>
