<svg width="50" height="50" viewBox="0 0 50 50" fill="none" xmlns="http://www.w3.org/2000/svg">
<path d="M31.4881 22.9126C30.2847 22.3017 28.4316 22.5731 28.4316 24.2471C28.4316 25.898 30.2888 26.2236 31.4881 25.5851V27.2641C29.2837 27.8764 26.7156 26.875 26.7156 24.2467C26.7156 21.6534 29.2902 20.5795 31.4881 21.2337V22.9126ZM15.0117 22.9126C13.8111 22.2887 11.9557 22.5834 11.9557 24.2471C11.9557 25.8881 13.8156 26.236 15.0117 25.5851V27.2641C12.8075 27.8826 10.2412 26.8702 10.2412 24.2467C10.2412 21.6572 12.8144 20.5752 15.0117 21.2337V22.9126ZM36.4536 22.6022C35.5171 22.6022 34.8216 23.3391 34.8216 24.2471C34.8216 25.1571 35.5171 25.8936 36.4536 25.8936C37.3891 25.8936 38.0866 25.1571 38.0866 24.2471C38.0866 23.3391 37.3891 22.6022 36.4536 22.6022ZM39.7591 24.2471C39.7591 26.0366 38.3776 27.4866 36.4541 27.4866C34.5296 27.4866 33.1501 26.0366 33.1501 24.2467C33.1501 22.4607 34.5301 21.0091 36.4536 21.0091C38.3776 21.0091 39.7591 22.4606 39.7591 24.2471ZM24.7461 22.5422C24.3078 22.4023 22.5356 22.0274 22.5356 22.8637C22.5356 23.3664 23.3153 23.4775 23.6946 23.5982C24.7196 23.9242 25.1861 24.6256 25.1861 25.3876C25.1861 27.6399 22.5015 27.6483 20.8927 27.3161V25.8761C21.4213 26.0092 23.5296 26.5307 23.5296 25.5251C23.5296 25.2081 23.2171 25.0251 22.8256 24.9021C21.8685 24.5797 20.8767 24.1433 20.8767 22.9631C20.8767 20.9222 23.2621 20.812 24.7461 21.2067V22.5422Z" fill="#049FD9"/>
<path d="M18.76 27.3759H17.1815V21.1204H18.76V27.3759Z" fill="#049FD9"/>
<path d="M8.56749 14.3979C8.56749 13.9669 8.21549 13.6174 7.784 13.6174C7.3525 13.6174 7 13.9669 7 14.3974V16.0399C7.01033 16.4488 7.37475 16.8041 7.78375 16.8041C8.19275 16.8041 8.55717 16.4488 8.56749 16.0399V14.3979ZM12.872 12.2429C12.872 11.8161 12.5151 11.4592 12.0882 11.4592C11.6613 11.4592 11.3045 11.816 11.3045 12.2429V16.0399C11.3045 16.4668 11.6613 16.8237 12.0882 16.8237C12.5151 16.8237 12.872 16.4668 12.872 16.0399V12.2429ZM17.177 9.29394C17.177 8.86294 16.825 8.51294 16.3935 8.51294C15.9615 8.51294 15.6095 8.86294 15.6095 9.29394V17.6004C15.6198 18.0093 15.9842 18.3646 16.3932 18.3646C16.8022 18.3646 17.1666 18.0093 17.177 17.6004V9.29394ZM21.4814 12.2429C21.4814 11.816 21.1246 11.4592 20.6977 11.4592C20.2708 11.4592 19.9139 11.816 19.9139 12.2429V16.0399C19.9139 16.4668 20.2708 16.8237 20.6977 16.8237C21.1246 16.8237 21.4814 16.4668 21.4814 16.0399V12.2429ZM25.7814 14.3979C25.7817 13.9844 25.416 13.6179 25.0024 13.6174C24.5879 13.6171 24.2205 13.9829 24.2189 14.3974V16.0399C24.2189 16.4654 24.5746 16.8212 25.0002 16.8212C25.4146 16.8212 25.7814 16.4543 25.7814 16.0399V14.3979ZM30.0879 12.2429C30.0776 11.8354 29.7143 11.4812 29.3066 11.4812C28.899 11.4812 28.5357 11.8354 28.5254 12.2429V16.0399C28.5254 16.4654 28.8811 16.8212 29.3066 16.8212C29.721 16.8212 30.0879 16.4543 30.0879 16.0399V12.2429ZM34.3954 9.29394C34.3954 8.86842 34.0396 8.5127 33.6141 8.5127C33.1886 8.5127 32.8329 8.86842 32.8329 9.29394V17.6004C32.814 18.0319 33.1773 18.4166 33.6141 18.4166C34.0461 18.4166 34.4145 18.0368 34.3954 17.6004V9.29394ZM38.7018 12.2429C38.7018 11.8114 38.3523 11.4609 37.9108 11.4609C37.4965 11.4612 37.1299 11.8281 37.1299 12.2424V16.0399C37.1299 16.4734 37.4798 16.8229 37.9108 16.8229C38.3523 16.8229 38.7018 16.4734 38.7018 16.0399V12.2429ZM43.0003 14.3979C43.0003 13.972 42.6443 13.6159 42.2183 13.6159C41.7924 13.6159 41.4363 13.972 41.4363 14.3979V16.0399C41.4363 16.4734 41.7868 16.8234 42.2183 16.8234C42.6493 16.8234 42.9998 16.4734 42.9998 16.0399L43.0003 14.3979Z" fill="#049FD9"/>
<path d="M17.4248 31V37.3984H16.5723L13.3511 32.4634V37.3984H12.5029V31H13.3511L16.5854 35.9482V31H17.4248Z" fill="black"/>
<path d="M20.7778 37.4863C19.4636 37.4863 18.5938 36.5305 18.5938 35.188C18.5938 33.939 19.2218 32.5557 20.6724 32.5557C22.1712 32.5557 22.6279 33.9349 22.6279 35.2495H19.0771V34.5859H21.8149C21.8149 33.8947 21.4345 33.2236 20.6724 33.2236C19.624 33.2236 19.4111 34.3649 19.4111 35.188C19.4111 36.0916 19.9424 36.8228 20.8218 36.8228C21.396 36.8228 21.7754 36.5693 22.0742 36.1768L22.5664 36.5679C22.2599 37.032 21.7253 37.4863 20.7778 37.4863Z" fill="black"/>
<path d="M24.1265 32.6436L25.168 34.375L26.2227 32.6436H27.1763L25.6206 34.9902L27.2246 37.3984H26.2842L25.1855 35.6143L24.0869 37.3984H23.1421L24.7417 34.9902L23.1904 32.6436H24.1265Z" fill="black"/>
<path d="M30.9512 36.2998V32.6436H31.7686V37.3984H30.9907L30.9512 36.2998ZM31.105 35.2979L31.4434 35.2891C31.4434 35.9178 31.3207 36.4672 31.0259 36.8623C30.7336 37.254 30.2658 37.4863 29.5845 37.4863C28.6689 37.4863 28.0244 36.9846 28.0244 35.7109V32.6436H28.8374V35.7197C28.8374 36.5732 29.2739 36.7964 29.7119 36.7964C30.7591 36.7964 31.105 36.1224 31.105 35.2979Z" fill="black"/>
<path d="M35.6973 35.812C35.598 35.6076 35.3112 35.4389 34.6821 35.3154C33.6437 35.0962 32.9683 34.737 32.9683 33.9443C32.9683 33.036 33.9203 32.5557 34.7305 32.5557C35.8695 32.5557 36.541 33.2186 36.541 34.041H35.728C35.728 33.6458 35.3772 33.2236 34.7305 33.2236C34.0676 33.2236 33.7856 33.5649 33.7856 33.9224C33.7856 34.2658 33.9769 34.4543 34.8799 34.6562C36.0488 34.9199 36.5894 35.311 36.5894 36.0757C36.5894 37.0577 35.6002 37.4863 34.7524 37.4863C33.839 37.4863 32.8057 36.9519 32.8057 35.9307H33.623C33.6552 36.5414 34.2031 36.8184 34.7524 36.8184C35.3061 36.8184 36.0338 36.4477 35.6973 35.812Z" fill="black"/>
<path d="M5.58789 45.4121H4.25195L4.26074 44.7222H5.58789C7.20701 44.7222 7.64893 43.3831 7.64893 42.0151C7.64893 40.5374 6.93395 39.708 5.66699 39.708H4.22559V39.0137H5.66699C7.33597 39.0137 8.48828 40.161 8.48828 42.0239C8.48828 43.8564 7.62718 45.4121 5.58789 45.4121ZM4.70459 39.0137V45.4121H3.85645V39.0137H4.70459Z" fill="black"/>
<path d="M12.4434 42.1514C12.4434 41.586 12.0989 41.2241 11.4414 41.2241C10.8351 41.2241 10.4131 41.5747 10.4131 41.9756H9.6001C9.6001 41.0435 10.6938 40.5693 11.4897 40.5693C12.5322 40.5693 13.2563 41.0977 13.2563 42.1602V44.375C13.2563 44.733 13.4233 45.0679 13.4233 45.4121H12.5752C12.1583 44.4592 12.4434 43.1548 12.4434 42.1514ZM12.584 42.5293L12.5928 43.1006H11.771C10.8519 43.1006 10.3164 43.3843 10.3164 43.9795C10.3164 44.4289 10.6316 44.7881 11.2261 44.7881C11.7628 44.7881 12.4853 44.4056 12.5225 43.7993L12.8696 44.1904C12.7888 44.6756 12.1628 45.5 11.1074 45.5C10.1456 45.5 9.49902 44.8809 9.49902 44.0894C9.49902 43.0569 10.347 42.5293 11.6392 42.5293H12.584Z" fill="black"/>
<path d="M17.3037 44.1509C17.3037 43.7974 17.1506 43.5138 16.2095 43.3291C15.1711 43.1099 14.4956 42.7507 14.4956 41.958C14.4956 41.1998 15.1992 40.5693 16.2578 40.5693C17.3969 40.5693 18.0684 41.2322 18.0684 42.0547H17.2554C17.2554 41.5295 16.7241 41.2373 16.2578 41.2373C15.595 41.2373 15.313 41.5786 15.313 41.936C15.313 42.2795 15.5042 42.4679 16.4072 42.6699C17.5762 42.9336 18.1167 43.3247 18.1167 44.0894C18.1167 45.0714 17.1276 45.5 16.2798 45.5C15.3663 45.5 14.333 44.9656 14.333 43.9443H15.1504C15.1825 44.555 15.7304 44.832 16.2798 44.832C16.9553 44.832 17.3037 44.5442 17.3037 44.1509Z" fill="black"/>
<path d="M19.9976 38.6621V45.4121H19.1846V38.6621H19.9976ZM19.8042 42.8545L19.4658 42.8413C19.4759 41.7215 20.1609 40.5693 21.3994 40.5693C22.4537 40.5693 22.9243 41.3408 22.9243 42.2964V45.4121H22.1069V42.2876C22.1069 41.5305 21.7664 41.2549 21.1577 41.2549C20.3104 41.2549 19.8042 42.0827 19.8042 42.8545Z" fill="black"/>
<path d="M24.1372 38.6621H24.9546V44.4893L24.8843 45.4121H24.1372V38.6621ZM28.167 43.0874C28.167 44.4607 27.5032 45.5 26.3169 45.5C24.8512 45.5 24.3877 44.0729 24.3877 42.8369C24.5295 41.4191 25.1236 40.5693 26.3081 40.5693C27.6976 40.5693 28.167 41.9078 28.167 43.0874ZM27.3496 43.0874C27.3496 42.2605 27.0858 41.2549 26.106 41.2549C25.3055 41.2549 24.9159 41.8529 24.7832 42.5161C24.7832 43.463 24.8094 44.8101 26.1147 44.8101C27.0122 44.8101 27.3496 44.0275 27.3496 43.0874Z" fill="black"/>
<path d="M28.98 42.9863C28.98 41.7333 29.7854 40.5693 31.1377 40.5693C32.5614 40.5693 33.3086 41.7823 33.3086 43.0874C33.3086 44.3625 32.4666 45.5 31.1465 45.5C29.7307 45.5 28.98 44.2924 28.98 42.9863ZM29.793 42.9863C29.793 43.8367 30.1373 44.832 31.1465 44.832C32.0683 44.832 32.4912 43.9114 32.4912 43.0874C32.4912 42.2411 32.1104 41.2373 31.1377 41.2373C30.2676 41.2373 29.793 42.0265 29.793 42.9863Z" fill="black"/>
<path d="M37.0176 41.6636C36.8711 41.3823 36.5693 41.2241 36.1299 41.2241C35.5235 41.2241 35.1016 41.5747 35.1016 41.9756H34.2886C34.2886 41.0435 35.3823 40.5693 36.1782 40.5693C36.8728 40.5693 37.4189 40.8044 37.7163 41.2769C37.8687 41.5112 37.9448 41.8057 37.9448 42.1602V44.375C37.9448 44.7319 38.1118 45.0732 38.1118 45.4121H37.2637C36.7487 44.2351 37.6054 42.7262 37.0176 41.6636ZM37.2725 42.5293L37.2812 43.1006H36.4595C35.5404 43.1006 35.0049 43.3843 35.0049 43.9795C35.0049 44.4289 35.3201 44.7881 35.9146 44.7881C36.4625 44.7881 37.1736 44.4097 37.2109 43.7993L37.5581 44.1904C37.4277 44.9731 36.5428 45.5 35.7959 45.5C34.982 45.5 34.1875 44.9744 34.1875 44.0894C34.1875 43.0569 35.0354 42.5293 36.3276 42.5293H37.2725Z" fill="black"/>
<path d="M40.0366 41.4043V45.4121H39.2236V40.6572H40.0146L40.0366 41.4043ZM41.522 40.6309L41.5176 41.3867C41.3858 41.3581 41.2779 41.3516 41.1221 41.3516C40.3766 41.3516 39.9852 41.8339 39.9136 42.5381L39.6851 42.6699C39.6851 41.7381 40.0439 40.5693 41.1616 40.5693C41.2784 40.5693 41.4632 40.6015 41.522 40.6309Z" fill="black"/>
<path d="M45.1826 38.6621H46V45.4121H45.2529L45.1826 38.6621ZM41.9834 43.0874C41.9834 41.9243 42.538 40.5693 43.8643 40.5693C45.0636 40.5693 45.6397 41.4314 45.7803 42.8369C45.7803 44.0766 45.3295 45.5 43.8555 45.5C42.5748 45.5 41.9834 44.2 41.9834 43.0874ZM42.8008 43.0874C42.8008 44.037 43.1741 44.8101 44.0576 44.8101C44.7939 44.8101 45.2105 44.245 45.3892 43.5752C45.3892 42.6212 45.3814 41.2549 44.0664 41.2549C43.0725 41.2549 42.8008 42.2725 42.8008 43.0874Z" fill="black"/>
</svg>
