<svg width="50" height="50" viewBox="0 0 50 50" fill="none" xmlns="http://www.w3.org/2000/svg">
<path d="M31.4881 21.9126C30.2847 21.3017 28.4316 21.5731 28.4316 23.2471C28.4316 24.898 30.2888 25.2236 31.4881 24.5851V26.2641C29.2837 26.8764 26.7156 25.875 26.7156 23.2467C26.7156 20.6534 29.2902 19.5795 31.4881 20.2337V21.9126ZM15.0117 21.9126C13.8111 21.2887 11.9557 21.5834 11.9557 23.2471C11.9557 24.8881 13.8156 25.236 15.0117 24.5851V26.2641C12.8075 26.8826 10.2412 25.8702 10.2412 23.2467C10.2412 20.6572 12.8144 19.5752 15.0117 20.2337V21.9126ZM36.4536 21.6022C35.5171 21.6022 34.8216 22.3391 34.8216 23.2471C34.8216 24.1571 35.5171 24.8936 36.4536 24.8936C37.3891 24.8936 38.0866 24.1571 38.0866 23.2471C38.0866 22.3391 37.3891 21.6022 36.4536 21.6022ZM39.7591 23.2471C39.7591 25.0366 38.3776 26.4866 36.4541 26.4866C34.5296 26.4866 33.1501 25.0366 33.1501 23.2467C33.1501 21.4607 34.5301 20.0091 36.4536 20.0091C38.3776 20.0091 39.7591 21.4606 39.7591 23.2471ZM24.7461 21.5422C24.3078 21.4023 22.5356 21.0274 22.5356 21.8637C22.5356 22.3664 23.3153 22.4775 23.6946 22.5982C24.7196 22.9242 25.1861 23.6256 25.1861 24.3876C25.1861 26.6399 22.5015 26.6483 20.8927 26.3161V24.8761C21.4213 25.0092 23.5296 25.5307 23.5296 24.5251C23.5296 24.2081 23.2171 24.0251 22.8256 23.9021C21.8685 23.5797 20.8767 23.1433 20.8767 21.9631C20.8767 19.9222 23.2621 19.812 24.7461 20.2067V21.5422Z" fill="#049FD9"/>
<path d="M18.76 26.3759H17.1815V20.1204H18.76V26.3759Z" fill="#049FD9"/>
<path d="M8.56749 13.3979C8.56749 12.9669 8.21549 12.6174 7.784 12.6174C7.3525 12.6174 7 12.9669 7 13.3974V15.0399C7.01033 15.4488 7.37475 15.8041 7.78375 15.8041C8.19275 15.8041 8.55717 15.4488 8.56749 15.0399V13.3979ZM12.872 11.2429C12.872 10.8161 12.5151 10.4592 12.0882 10.4592C11.6613 10.4592 11.3045 10.816 11.3045 11.2429V15.0399C11.3045 15.4668 11.6613 15.8237 12.0882 15.8237C12.5151 15.8237 12.872 15.4668 12.872 15.0399V11.2429ZM17.177 8.29394C17.177 7.86294 16.825 7.51294 16.3935 7.51294C15.9615 7.51294 15.6095 7.86294 15.6095 8.29394V16.6004C15.6198 17.0093 15.9842 17.3646 16.3932 17.3646C16.8022 17.3646 17.1666 17.0093 17.177 16.6004V8.29394ZM21.4814 11.2429C21.4814 10.816 21.1246 10.4592 20.6977 10.4592C20.2708 10.4592 19.9139 10.816 19.9139 11.2429V15.0399C19.9139 15.4668 20.2708 15.8237 20.6977 15.8237C21.1246 15.8237 21.4814 15.4668 21.4814 15.0399V11.2429ZM25.7814 13.3979C25.7817 12.9844 25.416 12.6179 25.0024 12.6174C24.5879 12.6171 24.2205 12.9829 24.2189 13.3974V15.0399C24.2189 15.4654 24.5746 15.8212 25.0002 15.8212C25.4146 15.8212 25.7814 15.4543 25.7814 15.0399V13.3979ZM30.0879 11.2429C30.0776 10.8354 29.7143 10.4812 29.3066 10.4812C28.899 10.4812 28.5357 10.8354 28.5254 11.2429V15.0399C28.5254 15.4654 28.8811 15.8212 29.3066 15.8212C29.721 15.8212 30.0879 15.4543 30.0879 15.0399V11.2429ZM34.3954 8.29394C34.3954 7.86842 34.0396 7.5127 33.6141 7.5127C33.1886 7.5127 32.8329 7.86842 32.8329 8.29394V16.6004C32.814 17.0319 33.1773 17.4166 33.6141 17.4166C34.0461 17.4166 34.4145 17.0368 34.3954 16.6004V8.29394ZM38.7018 11.2429C38.7018 10.8114 38.3523 10.4609 37.9108 10.4609C37.4965 10.4612 37.1299 10.8281 37.1299 11.2424V15.0399C37.1299 15.4734 37.4798 15.8229 37.9108 15.8229C38.3523 15.8229 38.7018 15.4734 38.7018 15.0399V11.2429ZM43.0003 13.3979C43.0003 12.972 42.6443 12.6159 42.2183 12.6159C41.7924 12.6159 41.4363 12.972 41.4363 13.3979V15.0399C41.4363 15.4734 41.7868 15.8234 42.2183 15.8234C42.6493 15.8234 42.9998 15.4734 42.9998 15.0399L43.0003 13.3979Z" fill="#049FD9"/>
<path fill-rule="evenodd" clip-rule="evenodd" d="M25.1777 39.1572C25.7771 39.1572 26.2216 39.3713 26.5312 39.7686L26.5752 39.2451H27.3135V43.8994C27.3133 45.1541 26.49 45.877 25.3008 45.877C24.6441 45.8769 23.9227 45.5984 23.5391 45.0508L23.9648 44.5674C24.3654 45.0503 24.8141 45.209 25.2393 45.209C26.0112 45.209 26.501 44.7675 26.501 43.9385V43.5146C26.1924 43.8839 25.7556 44.0879 25.1689 44.0879C23.8322 44.0878 23.3018 42.7194 23.3018 41.583C23.3018 40.1108 24.0294 39.1573 25.1777 39.1572ZM25.376 39.8428C24.5125 39.8428 24.1143 40.6064 24.1143 41.583C24.1143 42.3956 24.3759 43.3984 25.3672 43.3984C25.9502 43.3983 26.2909 43.094 26.501 42.6797V40.5352C26.2961 40.1357 25.9531 39.8428 25.376 39.8428Z" fill="black"/>
<path d="M18.1992 39.1572C19.3379 39.1572 20.0098 39.8203 20.0098 40.6426H19.1973C19.1973 40.1171 18.6656 39.8252 18.1992 39.8252C17.5371 39.8253 17.2549 40.1671 17.2549 40.5244C17.2551 40.8674 17.4475 41.0562 18.3486 41.2578C19.5171 41.5214 20.0586 41.9133 20.0586 42.6777C20.0583 43.6598 19.0692 44.0878 18.2217 44.0879C17.3084 44.0879 16.2744 43.5535 16.2744 42.5322H17.0918C17.1234 43.1328 17.6609 43.4199 18.2217 43.4199C18.8965 43.4199 19.2448 43.1321 19.2451 42.7393C19.2451 42.386 19.0918 42.1016 18.1514 41.917C17.1133 41.6978 16.4375 41.3384 16.4375 40.5459C16.4375 39.7879 17.141 39.1573 18.1992 39.1572Z" fill="black"/>
<path d="M34.7881 39.2451H35.6758V39.8691H34.7881V42.8223C34.7881 43.1442 34.8985 43.2969 35.0566 43.3496C35.2639 43.4187 35.4852 43.3849 35.6934 43.3369L35.6982 44C35.3273 44.118 34.8788 44.1394 34.5205 43.9697C34.1857 43.8111 33.9757 43.4489 33.9756 42.8184V39.8691H33.1055V39.2451H33.9756V38.0898H34.7881V39.2451Z" fill="black"/>
<path d="M38.4424 39.1572C39.5811 39.1572 40.2529 39.8203 40.2529 40.6426H39.4404C39.4404 40.1171 38.9087 39.8252 38.4424 39.8252C37.7802 39.8252 37.498 40.1671 37.498 40.5244C37.4983 40.8674 37.6911 41.0563 38.5918 41.2578C39.76 41.5213 40.3018 41.9134 40.3018 42.6777C40.3014 43.6599 39.3124 44.0878 38.4648 44.0879C37.5516 44.0879 36.5176 43.5535 36.5176 42.5322H37.335C37.3666 43.1327 37.9041 43.4199 38.4648 43.4199C39.1397 43.4198 39.488 43.1322 39.4883 42.7393C39.4883 42.386 39.3345 42.1015 38.3945 41.917C37.3566 41.6979 36.6807 41.3383 36.6807 40.5459C36.6807 39.6381 37.6328 39.1572 38.4424 39.1572Z" fill="black"/>
<path d="M9.90234 44H9.05469V37.6016H9.90234V44Z" fill="black"/>
<path d="M13.627 39.1572C14.5631 39.1572 15.1523 39.6249 15.1523 40.8848V44H14.335V40.876C14.335 40.1196 13.9939 39.8429 13.3857 39.8428C12.8684 39.8428 12.4559 40.1493 12.2256 40.6084V44H11.4121V39.2451H12.1816L12.207 39.8389C12.55 39.4058 13.0413 39.1573 13.627 39.1572Z" fill="black"/>
<path d="M22.0996 44H21.2822V39.2451H22.0996V44Z" fill="black"/>
<path d="M29.4512 39.8154C29.7937 39.3957 30.2785 39.1572 30.8535 39.1572C31.7895 39.1573 32.3779 39.625 32.3779 40.8848V44H31.5605V40.876C31.5605 40.1195 31.2198 39.8428 30.6113 39.8428C30.0935 39.8429 29.6813 40.1503 29.4512 40.6104V44H28.6387V37.25H29.4512V39.8154Z" fill="black"/>
<path d="M21.6992 37.5137C22.0121 37.5137 22.1826 37.7229 22.1826 37.9844C22.1824 38.2318 22.0148 38.4414 21.6992 38.4414C21.383 38.4413 21.2209 38.2357 21.2207 37.9844C21.2207 37.7189 21.3859 37.5138 21.6992 37.5137Z" fill="black"/>
<path d="M37.5361 34.8018L38.6406 31.2451H39.5107L37.6035 36.7344C37.471 37.0876 37.2238 37.574 36.751 37.8018C36.4392 37.9606 36.0638 37.9444 35.7354 37.8506L35.7314 37.1914C35.9623 37.22 36.2013 37.2186 36.4209 37.1338C36.6782 37.0402 36.8504 36.8237 36.9795 36.4307L37.1553 35.9482L35.459 31.2451H36.3467L37.5361 34.8018Z" fill="black"/>
<path fill-rule="evenodd" clip-rule="evenodd" d="M16.3516 36H15.6045L15.5645 35.4854C15.2549 35.8738 14.8094 36.0879 14.207 36.0879C12.9267 36.0878 12.3351 34.7882 12.335 33.6758C12.335 32.5318 12.8732 31.1573 14.2158 31.1572C14.7938 31.1572 15.226 31.3577 15.5342 31.7275V29.25H16.3516V36ZM14.418 31.8428C13.4496 31.8428 13.1523 32.8554 13.1523 33.6758C13.1525 34.6245 13.5264 35.3984 14.4092 35.3984C14.9872 35.3984 15.3238 35.1047 15.5342 34.6982V32.5254C15.3296 32.1335 14.9863 31.8428 14.418 31.8428Z" fill="black"/>
<path fill-rule="evenodd" clip-rule="evenodd" d="M19.5752 31.1572C21.0742 31.1573 21.5303 32.5369 21.5303 33.8516H18.3154C18.3359 34.6575 18.8458 35.4248 19.7246 35.4248C20.2986 35.4247 20.6778 35.1708 20.9766 34.7783L21.4688 35.1699C21.1623 35.6337 20.6274 36.0878 19.6807 36.0879C18.2414 36.0879 17.4961 34.9287 17.4961 33.6055C17.4961 32.0489 18.5111 31.1572 19.5752 31.1572ZM19.5752 31.8252C18.9358 31.8252 18.4497 32.3068 18.3389 33.1875H20.7178C20.7178 32.4804 20.3267 31.8253 19.5752 31.8252Z" fill="black"/>
<path d="M28.7373 31.2451H29.625V31.8691H28.7373V34.8223C28.7373 34.9834 28.7627 35.1055 28.8125 35.1875C28.9808 35.464 29.3771 35.3981 29.6426 35.3369L29.6475 36C29.1036 36.173 28.3827 36.1545 28.0693 35.5742C27.9727 35.3868 27.9249 35.1345 27.9248 34.8184V31.8691H27.0547V31.2451H27.9248V30.0898H28.7373V31.2451Z" fill="black"/>
<path d="M34.0498 31.2451H34.9375V31.8691H34.0498V34.8223C34.0498 34.9834 34.0752 35.1055 34.125 35.1875C34.2933 35.4641 34.6897 35.3981 34.9551 35.3369L34.96 36C34.4162 36.173 33.6952 36.1546 33.3818 35.5742C33.2852 35.3868 33.2374 35.1345 33.2373 34.8184V31.8691H32.3672V31.2451H33.2373V30.0898H34.0498V31.2451Z" fill="black"/>
<path d="M11.0273 36H10.1797V29.6016H11.0273V36Z" fill="black"/>
<path d="M24.7842 31.1572C25.7203 31.1572 26.3096 31.6248 26.3096 32.8848V36H25.4922V32.876C25.4922 32.1192 25.1515 31.8428 24.543 31.8428C24.0254 31.8428 23.6131 32.1498 23.3828 32.6094V36H22.5693V31.2451H23.3389L23.3643 31.8389C23.7072 31.4058 24.1987 31.1573 24.7842 31.1572Z" fill="black"/>
<path d="M31.5518 36H30.7344V31.2451H31.5518V36Z" fill="black"/>
<path d="M31.1523 29.5137C31.4651 29.5138 31.6357 29.7229 31.6357 29.9844C31.6355 30.2316 31.4677 30.4413 31.1523 30.4414C30.8361 30.4414 30.6731 30.2356 30.6729 29.9844C30.6729 29.7186 30.8386 29.5137 31.1523 29.5137Z" fill="black"/>
</svg>
