<svg width="50" height="50" viewBox="0 0 50 50" fill="none" xmlns="http://www.w3.org/2000/svg">
<path d="M24.9831 22.6821L18.9281 29.5718C18.7252 29.8343 18.3869 29.9983 18.0486 29.9983C17.4736 29.9983 17 29.5718 17 29.0141C17 28.7188 17.1015 28.4564 17.3044 28.2595L23.63 21.3042L17.5412 14.5129C17.3044 14.3161 17.1691 14.0208 17.1691 13.7255C17.1691 13.1678 17.6427 12.7085 18.2516 12.7413H18.2854C18.6237 12.7413 18.9281 12.9053 19.1311 13.1678L25.0169 19.8934L30.9028 13.1678C31.1057 12.9053 31.4101 12.7413 31.7484 12.7413C32.3235 12.7085 32.8309 13.135 32.8309 13.6927V13.7255C32.8309 14.0208 32.6956 14.3161 32.4588 14.5129L26.37 21.3042L32.6956 28.2595C32.8985 28.4564 33 28.7516 33 29.0141C33 29.5718 32.5264 30.0312 31.9514 29.9983C31.6131 29.9983 31.2748 29.8343 31.0719 29.5718L24.9831 22.6821Z" fill="black"/>
<path d="M24.9832 10.412C25.9547 10.412 26.7422 9.64823 26.7422 8.70602C26.7422 7.76381 25.9547 7 24.9832 7C24.0118 7 23.2242 7.76381 23.2242 8.70602C23.2242 9.64823 24.0118 10.412 24.9832 10.412Z" fill="black"/>
<path d="M15.2324 36.7168V42H14.3242V36.7168H15.2324Z" fill="black"/>
<path d="M14.2559 35.3154C14.2559 35.0201 14.4393 34.793 14.7881 34.793C15.1359 34.793 15.3252 35.0248 15.3252 35.3154C15.3252 35.5907 15.1391 35.8232 14.7881 35.8232C14.4362 35.8232 14.2559 35.5951 14.2559 35.3154Z" fill="black"/>
<path d="M32.7227 36.7168V37.4102H31.7363V40.6914C31.7363 41.2927 32.2196 41.3833 32.7422 41.2627L32.7471 42C31.6754 42.341 30.833 41.7769 30.833 40.6865V37.4102H29.8662V36.7168H30.833V35.4326H31.7363V36.7168H32.7227Z" fill="black"/>
<path fill-rule="evenodd" clip-rule="evenodd" d="M33.4453 39.417C33.4453 40.8371 34.3846 42.0977 35.8525 42.0977C37.3193 42.0977 38.2549 40.8338 38.2549 39.417C38.2549 37.9999 37.3894 36.6191 35.8428 36.6191C34.3179 36.6191 33.4453 37.977 33.4453 39.417ZM34.3486 39.417C34.3486 38.4962 34.7452 37.3613 35.8428 37.3613C36.9236 37.3613 37.3467 38.4766 37.3467 39.417C37.3467 40.4534 36.8619 41.3555 35.8525 41.3555C34.8455 41.3555 34.3486 40.464 34.3486 39.417Z" fill="black"/>
<path d="M40.291 38.244V42H39.3877V36.7168H40.2666L40.2844 37.3232C40.5626 36.8724 41.0095 36.6191 41.541 36.6191C41.6708 36.6191 41.8761 36.6548 41.9414 36.6875L41.9365 37.5273C41.7901 37.4955 41.6702 37.4883 41.4971 37.4883C40.8873 37.4883 40.4913 37.7773 40.291 38.244Z" fill="black"/>
<path d="M27.3906 41.3555C26.3225 41.3555 25.9453 40.3735 25.9453 39.4609C25.9453 38.4914 26.252 37.3613 27.3906 37.3613C28.118 37.3613 28.5873 37.8837 28.6357 38.5332H29.4951C29.4461 37.4355 28.6259 36.6191 27.3906 36.6191C25.7374 36.6191 25.042 38.0112 25.042 39.4609C25.042 40.8811 25.8153 42.0977 27.3906 42.0977C28.3786 42.0977 29.4401 41.3861 29.4951 40.3301H28.6357C28.5873 40.9205 28.038 41.3555 27.3906 41.3555Z" fill="black"/>
<path fill-rule="evenodd" clip-rule="evenodd" d="M22.166 42.0977C20.7058 42.0977 19.7393 41.0356 19.7393 39.5439C19.7393 38.172 20.4742 36.6191 22.0488 36.6191C23.8049 36.6191 24.2217 38.1566 24.2217 39.6123H20.6483C20.6709 40.508 21.2389 41.3604 22.2148 41.3604C22.8529 41.3604 23.2744 41.0788 23.6064 40.6426L24.1533 41.0771C23.8128 41.5928 23.2187 42.0977 22.166 42.0977ZM20.6748 38.875H23.3184C23.3184 38.0893 22.8838 37.3613 22.0488 37.3613C21.3382 37.3613 20.7979 37.896 20.6748 38.875Z" fill="black"/>
<path d="M17.5794 37.3232C17.836 36.9072 18.2549 36.6191 18.8359 36.6191C18.9657 36.6191 19.171 36.6548 19.2363 36.6875L19.2314 37.5273C19.085 37.4955 18.9652 37.4883 18.792 37.4883C18.1822 37.4883 17.7862 37.7773 17.5859 38.244V42H16.6826V36.7168H17.5615L17.5794 37.3232Z" fill="black"/>
<path fill-rule="evenodd" clip-rule="evenodd" d="M9.74902 42C11.9427 42 12.9717 40.2045 12.9717 38.2354C12.9717 36.1655 11.6913 34.8906 9.83691 34.8906H7.8252V42H9.74902ZM8.76758 41.2334H9.74902C11.548 41.2334 12.0391 39.7456 12.0391 38.2256C12.0391 36.8437 11.2829 35.6621 9.83691 35.6621H8.76758V41.2334Z" fill="black"/>
</svg>
