<svg width="50" height="50" viewBox="0 0 50 50" fill="none" xmlns="http://www.w3.org/2000/svg">
<path d="M24.9831 22.6821L18.9281 29.5718C18.7252 29.8343 18.3869 29.9983 18.0486 29.9983C17.4736 29.9983 17 29.5718 17 29.0141C17 28.7188 17.1015 28.4564 17.3044 28.2595L23.63 21.3042L17.5412 14.5129C17.3044 14.3161 17.1691 14.0208 17.1691 13.7255C17.1691 13.1678 17.6427 12.7085 18.2516 12.7413H18.2854C18.6237 12.7413 18.9281 12.9053 19.1311 13.1678L25.0169 19.8934L30.9028 13.1678C31.1057 12.9053 31.4101 12.7413 31.7484 12.7413C32.3235 12.7085 32.8309 13.135 32.8309 13.6927V13.7255C32.8309 14.0208 32.6956 14.3161 32.4588 14.5129L26.37 21.3042L32.6956 28.2595C32.8985 28.4564 33 28.7516 33 29.0141C33 29.5718 32.5264 30.0312 31.9514 29.9983C31.6131 29.9983 31.2748 29.8343 31.0719 29.5718L24.9831 22.6821Z" fill="black"/>
<path d="M24.9832 10.412C25.9547 10.412 26.7422 9.64823 26.7422 8.70602C26.7422 7.76381 25.9547 7 24.9832 7C24.0118 7 23.2242 7.76381 23.2242 8.70602C23.2242 9.64823 24.0118 10.412 24.9832 10.412Z" fill="black"/>
<path d="M35.0557 40.2031C35.0557 40.8923 34.5118 41.3311 33.5225 41.3311C32.6211 41.3311 31.7744 40.9146 31.7744 39.9395H30.8369C30.8369 41.3613 32.2597 42.0977 33.5225 42.0977C35.0343 42.0977 36.0029 41.3485 36.0029 40.1934C36.0029 39.081 35.2812 38.4609 33.6689 38.0059C32.5144 37.6851 32.0039 37.3178 32.0039 36.7168C32.0039 36.049 32.4755 35.5645 33.4785 35.5645C34.5347 35.5645 35.0459 36.1326 35.0459 36.9414H35.9834C35.9834 35.6042 34.7249 34.793 33.4785 34.793C32.0322 34.793 31.0615 35.6105 31.0615 36.7266C31.0615 37.8321 31.9554 38.4081 33.3662 38.8262C34.726 39.2222 35.0557 39.5396 35.0557 40.2031Z" fill="black"/>
<path fill-rule="evenodd" clip-rule="evenodd" d="M28.826 41.4416C28.6364 41.6402 28.3917 41.8206 28.0928 41.9512C27.0339 42.405 25.5342 41.8061 25.5342 40.5303C25.5342 39.6718 26.0595 39.1318 26.9307 38.9092C27.5405 38.7533 28.182 38.7969 28.8057 38.7969C28.8057 38.0013 28.5753 37.3467 27.6924 37.3467C27.0187 37.3467 26.5498 37.7362 26.5498 38.1816H25.6465C25.6465 37.146 26.8617 36.6191 27.7461 36.6191C28.9043 36.6191 29.709 37.2062 29.709 38.3867C29.709 39.3809 29.6073 40.4218 29.7529 41.4092C29.7852 41.6059 29.8945 41.8043 29.8945 42H28.9521C28.8755 41.8249 28.8471 41.6304 28.826 41.4416ZM28.8057 40.5146V39.4316C28.33 39.4316 27.8387 39.3969 27.3701 39.4951C26.7127 39.6224 26.1964 40.208 26.5547 40.8623C26.857 41.4143 27.6956 41.4022 28.1855 41.1309C28.4431 40.9882 28.672 40.78 28.8057 40.5146Z" fill="black"/>
<path fill-rule="evenodd" clip-rule="evenodd" d="M23.3866 41.4416C23.4077 41.6304 23.4361 41.8249 23.5127 42H24.4551C24.4551 41.6175 24.2695 41.2455 24.2695 40.8477V38.3867C24.2695 37.2062 23.4649 36.6191 22.3066 36.6191C21.0569 36.6191 20.207 37.4162 20.207 38.1816H21.1104C21.1104 37.6112 21.7691 37.3467 22.2529 37.3467C23.1329 37.3467 23.3662 38.0024 23.3662 38.7969C22.0962 38.7969 20.0947 38.8278 20.0947 40.5303C20.0947 41.5136 20.9775 42.0977 21.8818 42.0977C22.5452 42.0977 23.0529 41.7912 23.3866 41.4416ZM23.3662 39.4316V40.5146C23.1151 41.0132 22.563 41.3066 22.0137 41.3066C21.3531 41.3066 21.0029 40.9076 21.0029 40.4082C21.0029 39.2628 22.6045 39.4316 23.3662 39.4316Z" fill="black"/>
<path fill-rule="evenodd" clip-rule="evenodd" d="M15.749 42C17.6557 42 18.9717 40.5844 18.9717 38.6602C18.9717 36.6909 17.9444 34.8906 15.8369 34.8906H13.8252V42H15.749ZM14.7676 41.2334H15.749C17.2821 41.2334 18.0391 40.2002 18.0391 38.6602C18.0391 37.1813 17.5126 35.6621 15.8369 35.6621H14.7676V41.2334Z" fill="black"/>
</svg>
