<svg width="50" height="50" viewBox="0 0 50 50" fill="none" xmlns="http://www.w3.org/2000/svg">
<path d="M24.9831 22.6821L18.9281 29.5718C18.7252 29.8343 18.3869 29.9983 18.0486 29.9983C17.4736 29.9983 17 29.5718 17 29.0141C17 28.7188 17.1015 28.4564 17.3044 28.2595L23.63 21.3042L17.5412 14.5129C17.3044 14.3161 17.1691 14.0208 17.1691 13.7255C17.1691 13.1678 17.6427 12.7085 18.2516 12.7413H18.2854C18.6237 12.7413 18.9281 12.9053 19.1311 13.1678L25.0169 19.8934L30.9028 13.1678C31.1057 12.9053 31.4101 12.7413 31.7484 12.7413C32.3235 12.7085 32.8309 13.135 32.8309 13.6927V13.7255C32.8309 14.0208 32.6956 14.3161 32.4588 14.5129L26.37 21.3042L32.6956 28.2595C32.8985 28.4564 33 28.7516 33 29.0141C33 29.5718 32.5264 30.0312 31.9514 29.9983C31.6131 29.9983 31.2748 29.8343 31.0719 29.5718L24.9831 22.6821Z" fill="black"/>
<path d="M24.9832 10.412C25.9547 10.412 26.7422 9.64823 26.7422 8.70602C26.7422 7.76381 25.9547 7 24.9832 7C24.0118 7 23.2242 7.76381 23.2242 8.70602C23.2242 9.64823 24.0118 10.412 24.9832 10.412Z" fill="black"/>
<path d="M18.9839 35.5669L16.8657 41.3984H16L18.439 35H18.9971L18.9839 35.5669ZM20.7593 41.3984L18.6367 35.5669L18.6235 35H19.1816L21.6294 41.3984H20.7593ZM20.6494 39.0298V39.7241H17.0547V39.0298H20.6494Z" fill="black"/>
<path d="M24.2178 41.3984H22.8818L22.8906 40.7085C24.6413 40.7085 26.2788 40.4435 26.2788 38.3926C26.2788 36.1471 24.8999 35.6943 22.8555 35.6943V35C25.2843 35 27.1182 35.7197 27.1182 38.3926C27.1182 40.1244 25.9338 41.3984 24.2178 41.3984ZM23.3345 35V41.3984H22.4863V35H23.3345Z" fill="black"/>
<path d="M28.6606 35H29.4824L31.5786 40.2163L33.6704 35H34.4966L31.895 41.3984H31.2534L28.6606 35ZM28.3926 35H29.1177L29.2363 41.3984H28.3926V35ZM34.0352 35H34.7603V41.3984H33.9165L34.0352 35Z" fill="black"/>
</svg>
