<svg width="50" height="50" viewBox="0 0 50 50" fill="none" xmlns="http://www.w3.org/2000/svg">
<path d="M24.9831 22.6821L18.9281 29.5718C18.7252 29.8343 18.3869 29.9983 18.0486 29.9983C17.4736 29.9983 17 29.5718 17 29.0141C17 28.7188 17.1015 28.4564 17.3044 28.2595L23.63 21.3042L17.5412 14.5129C17.3044 14.3161 17.1691 14.0208 17.1691 13.7255C17.1691 13.1678 17.6427 12.7085 18.2516 12.7413H18.2854C18.6237 12.7413 18.9281 12.9053 19.1311 13.1678L25.0169 19.8934L30.9028 13.1678C31.1057 12.9053 31.4101 12.7413 31.7484 12.7413C32.3235 12.7085 32.8309 13.135 32.8309 13.6927V13.7255C32.8309 14.0208 32.6956 14.3161 32.4588 14.5129L26.37 21.3042L32.6956 28.2595C32.8985 28.4564 33 28.7516 33 29.0141C33 29.5718 32.5264 30.0312 31.9514 29.9983C31.6131 29.9983 31.2748 29.8343 31.0719 29.5718L24.9831 22.6821Z" fill="black"/>
<path d="M24.9832 10.412C25.9547 10.412 26.7422 9.64823 26.7422 8.70602C26.7422 7.76381 25.9547 7 24.9832 7C24.0118 7 23.2242 7.76381 23.2242 8.70602C23.2242 9.64823 24.0118 10.412 24.9832 10.412Z" fill="black"/>
<path d="M11.5293 34.5V37.3488C11.9158 36.8791 12.4794 36.6191 13.0869 36.6191C14.1273 36.6191 14.7812 37.1379 14.7812 38.5381V42H13.873V38.5283C13.873 37.6872 13.4947 37.3809 12.8184 37.3809C12.2439 37.3809 11.7855 37.7201 11.5293 38.2297V42H10.626V34.5H11.5293Z" fill="black"/>
<path d="M39.1074 34.5V42H38.1992V34.5H39.1074Z" fill="black"/>
<path fill-rule="evenodd" clip-rule="evenodd" d="M42.75 42.0977C41.2898 42.0977 40.3232 41.0356 40.3232 39.5439C40.3232 38.1559 41.0863 36.6191 42.6328 36.6191C44.3888 36.6191 44.8057 38.1566 44.8057 39.6123H41.2323C41.2549 40.508 41.8229 41.3604 42.7988 41.3604C43.4369 41.3604 43.8584 41.0788 44.1904 40.6426L44.7373 41.0771C44.3968 41.5928 43.8027 42.0977 42.75 42.0977ZM41.2587 38.875H43.9023C43.9023 38.0893 43.4678 37.3613 42.6328 37.3613C41.9221 37.3613 41.3819 37.896 41.2587 38.875Z" fill="black"/>
<path d="M36.6758 42V36.7168H35.7676V42H36.6758Z" fill="black"/>
<path d="M35.6992 35.3154C35.6992 35.5951 35.8796 35.8232 36.2314 35.8232C36.5824 35.8232 36.7686 35.5907 36.7686 35.3154C36.7686 35.0248 36.5793 34.793 36.2314 34.793C35.8827 34.793 35.6992 35.0201 35.6992 35.3154Z" fill="black"/>
<path d="M31.2461 35.6621V38.0889H34.2246V38.8604H31.2461V42H30.3037V34.8906H34.708V35.6621H31.2461Z" fill="black"/>
<path fill-rule="evenodd" clip-rule="evenodd" d="M27.0566 42.0977C28.1093 42.0977 28.7034 41.5928 29.0439 41.0771L28.4971 40.6426C28.165 41.0788 27.7435 41.3604 27.1055 41.3604C26.1296 41.3604 25.5615 40.508 25.5389 39.6123H29.1123C29.1123 38.1516 28.6048 36.6191 26.9395 36.6191C25.3394 36.6191 24.6299 38.1516 24.6299 39.5439C24.6299 41.0356 25.5964 42.0977 27.0566 42.0977ZM25.5654 38.875C25.6885 37.896 26.2288 37.3613 26.9395 37.3613C27.7862 37.3613 28.209 38.107 28.209 38.875H25.5654Z" fill="black"/>
<path d="M22.4766 42V38.244C22.7567 37.5914 23.4701 37.3856 24.1221 37.5273L24.127 36.6875C23.5451 36.3966 22.774 36.8305 22.47 37.3232L22.4521 36.7168H21.5732V42H22.4766Z" fill="black"/>
<path fill-rule="evenodd" clip-rule="evenodd" d="M19.2694 41.4416C18.9357 41.7912 18.428 42.0977 17.7646 42.0977C16.8603 42.0977 15.9775 41.5136 15.9775 40.5303C15.9775 38.8278 17.9791 38.7969 19.249 38.7969V38.377C19.249 37.7488 18.8663 37.3467 18.1357 37.3467C17.462 37.3467 16.9932 37.7362 16.9932 38.1816H16.0898C16.0898 37.146 17.3051 36.6191 18.1895 36.6191C19.3477 36.6191 20.1523 37.2062 20.1523 38.3867V40.8477C20.1523 41.2442 20.3379 41.6235 20.3379 42H19.3955C19.3189 41.8249 19.2905 41.6304 19.2694 41.4416ZM19.249 40.5146C18.9964 41.0162 18.4461 41.3066 17.8965 41.3066C17.2359 41.3066 16.8857 40.9076 16.8857 40.4082C16.8857 39.2628 18.4873 39.4316 19.249 39.4316V40.5146Z" fill="black"/>
<path d="M8.61426 40.2031C8.61426 40.8923 8.07037 41.3311 7.08105 41.3311C6.17971 41.3311 5.33301 40.9146 5.33301 39.9395H4.39551C4.39551 41.358 5.81578 42.0977 7.08105 42.0977C8.59285 42.0977 9.56152 41.3485 9.56152 40.1934C9.56152 39.081 8.83984 38.4609 7.22754 38.0059C6.07297 37.6851 5.5625 37.3178 5.5625 36.7168C5.5625 36.049 6.03406 35.5645 7.03711 35.5645C8.09327 35.5645 8.60449 36.1326 8.60449 36.9414H9.54199C9.54199 35.6042 8.28351 34.793 7.03711 34.793C5.59081 34.793 4.62012 35.6105 4.62012 36.7266C4.62012 37.8321 5.51398 38.4082 6.9248 38.8262C8.28456 39.2222 8.61426 39.5396 8.61426 40.2031Z" fill="black"/>
</svg>
