<svg width="50" height="50" viewBox="0 0 50 50" fill="none" xmlns="http://www.w3.org/2000/svg">
<rect width="50" height="50" fill="black"/>
<path d="M24.9831 22.6821L18.9281 29.5718C18.7252 29.8343 18.3869 29.9983 18.0486 29.9983C17.4736 29.9983 17 29.5718 17 29.0141C17 28.7188 17.1015 28.4564 17.3044 28.2595L23.63 21.3042L17.5412 14.5129C17.3044 14.3161 17.1691 14.0208 17.1691 13.7255C17.1691 13.1678 17.6427 12.7085 18.2516 12.7413H18.2854C18.6237 12.7413 18.9281 12.9053 19.1311 13.1678L25.0169 19.8934L30.9028 13.1678C31.1057 12.9053 31.4101 12.7413 31.7484 12.7413C32.3235 12.7085 32.8309 13.135 32.8309 13.6927V13.7255C32.8309 14.0208 32.6956 14.3161 32.4588 14.5129L26.37 21.3042L32.6956 28.2595C32.8985 28.4564 33 28.7516 33 29.0141C33 29.5718 32.5264 30.0312 31.9514 29.9983C31.6131 29.9983 31.2748 29.8343 31.0719 29.5718L24.9831 22.6821Z" fill="white"/>
<path d="M24.9832 10.412C25.9547 10.412 26.7422 9.64823 26.7422 8.70602C26.7422 7.76381 25.9547 7 24.9832 7C24.0118 7 23.2242 7.76381 23.2242 8.70602C23.2242 9.64823 24.0118 10.412 24.9832 10.412Z" fill="white"/>
<path d="M30.7305 37.7168V38.4102H29.7441V41.6914C29.7441 42.2927 30.2274 42.3833 30.75 42.2627L30.7549 43C30.1419 43.195 29.3386 43.1502 29.002 42.5264C28.8945 42.318 28.8408 42.0381 28.8408 41.6865V38.4102H27.874V37.7168H28.8408V36.4326H29.7441V37.7168H30.7305Z" fill="white"/>
<path fill-rule="evenodd" clip-rule="evenodd" d="M25.4082 43.0977C23.9493 43.0977 22.9814 41.9355 22.9814 40.5439C22.9814 39.1516 23.6909 37.6191 25.291 37.6191C26.9842 37.6191 27.4639 39.2104 27.4639 40.6123H23.8905C23.915 41.5829 24.5022 42.3604 25.457 42.3604C26.0951 42.3604 26.5166 42.0788 26.8486 41.6426L27.3955 42.0771C27.055 42.5928 26.4609 43.0977 25.4082 43.0977ZM26.5605 39.875H23.9169C24.0401 38.896 24.5803 38.3613 25.291 38.3613C26.1378 38.3613 26.5605 39.107 26.5605 39.875Z" fill="white"/>
<path d="M18.5714 38.3741C18.9526 37.8936 19.4992 37.6191 20.1494 37.6191C21.3209 37.6191 21.8438 38.4763 21.8438 39.5381V43H20.9355V39.5283C20.9355 38.6872 20.5572 38.3809 19.8809 38.3809C19.3064 38.3809 18.848 38.7201 18.5918 39.2297V43H17.6885V37.7168H18.543L18.5714 38.3741Z" fill="white"/>
</svg>
