<svg width="50" height="50" viewBox="0 0 50 50" fill="none" xmlns="http://www.w3.org/2000/svg">
<path fill-rule="evenodd" clip-rule="evenodd" d="M39.5694 19.0029L41.0632 17.5251L41.0672 17.5172C41.0672 17.5172 47.6923 24.0582 41.0276 31.5462L39.6011 30.1912C39.0226 37.6198 32.9759 38.6736 31.2206 38.8202L32.3736 40.0326C29.8535 42.2709 27.4484 43.0079 25.3562 42.9999V33.9669C25.2136 33.9748 25.0749 33.9788 24.9322 33.9788H24.9085C19.7851 33.9669 15.6365 29.8109 15.6365 24.6882C15.6365 19.5655 19.7851 15.4095 24.9085 15.3976H24.9322C25.0749 15.3976 25.2175 15.4016 25.3562 15.4095V6.00006C27.4484 5.99214 29.8575 6.72905 32.3736 8.96354L31.0106 10.3977C32.4807 10.4889 38.9512 11.3288 39.5694 19.0029ZM34.2162 24.2841L39.2444 19.3199H39.2405L32.6312 19.4862C33.5664 20.865 34.1409 22.5092 34.2162 24.2841ZM30.6738 17.3825L30.7134 10.7147L26.1764 15.4848C27.8604 15.7066 29.4019 16.3841 30.6738 17.3825ZM24.9362 20.6709C22.7133 20.6709 20.9144 22.4696 20.9144 24.6922C20.9144 26.9148 22.7133 28.7135 24.9362 28.7135C27.1591 28.7135 28.958 26.9148 28.958 24.6922C28.958 22.4696 27.1591 20.6709 24.9362 20.6709ZM30.7015 31.9821C29.5009 32.9289 28.0625 33.5905 26.4895 33.8559V33.8599L30.7412 38.3289L30.7015 31.9821ZM34.2202 25.0844C34.1488 26.8039 33.6099 28.4005 32.7264 29.7555H32.7303L39.3078 29.9219L34.2202 25.0844Z" fill="#E20AB7"/>
<path d="M12.8034 24.5019C12.8034 30.3417 17.1145 35.191 22.7253 36.0428V42.9286C13.3423 42.0292 6 34.1253 6 24.5059C6 14.8865 13.3423 6.98252 22.7253 6.08318V12.961C17.1145 13.8128 12.8034 18.6621 12.8034 24.5019Z" fill="#E20AB7"/>
</svg>
