<svg width="50" height="50" viewBox="0 0 50 50" fill="none" xmlns="http://www.w3.org/2000/svg">
<path fill-rule="evenodd" clip-rule="evenodd" d="M35.7353 15.4886L36.836 14.4102L36.839 14.4045C36.839 14.4045 41.7207 19.1776 36.8098 24.6418L35.7587 23.653C35.3324 29.0739 30.877 29.8429 29.5836 29.9499L30.4332 30.8346C28.5763 32.468 26.8041 33.0057 25.2625 33V26.4083C25.1574 26.414 25.0552 26.4169 24.9501 26.4169H24.9326C21.1575 26.4083 18.1006 23.3755 18.1006 19.6374C18.1006 15.8992 21.1575 12.8664 24.9326 12.8577H24.9501C25.0552 12.8577 25.1603 12.8606 25.2625 12.8664V6.00005C26.8041 5.99426 28.5792 6.53201 30.4332 8.16258L29.4288 9.20916C30.5121 9.27566 35.2799 9.88857 35.7353 15.4886ZM31.7909 19.3425L35.4959 15.7199H35.493L30.623 15.8413C31.3121 16.8474 31.7354 18.0472 31.7909 19.3425ZM29.1807 14.3061L29.2099 9.44045L25.8668 12.9213C27.1077 13.0832 28.2435 13.5776 29.1807 14.3061ZM24.953 16.7058C23.3151 16.7058 21.9895 18.0183 21.9895 19.6402C21.9895 21.2621 23.3151 22.5747 24.953 22.5747C26.5909 22.5747 27.9165 21.2621 27.9165 19.6402C27.9165 18.0183 26.5909 16.7058 24.953 16.7058ZM29.2011 24.9599C28.3164 25.6508 27.2566 26.1336 26.0975 26.3273V26.3302L29.2303 29.5914L29.2011 24.9599ZM31.7938 19.9264C31.7412 21.1812 31.3442 22.3463 30.6931 23.3351H30.696L35.5426 23.4565L31.7938 19.9264Z" fill="#E20AB7"/>
<path d="M16.0131 19.5014C16.0131 23.7629 19.1896 27.3016 23.3239 27.9231V32.9479C16.4101 32.2916 11 26.5239 11 19.5043C11 12.4847 16.4101 6.71698 23.3239 6.0607V11.0796C19.1896 11.7012 16.0131 15.2399 16.0131 19.5014Z" fill="#E20AB7"/>
<path d="M18.0677 40.8271H18.9093C18.7678 42.1632 17.8021 43 16.4897 43C14.9954 43 14 41.7894 14 39.9634V39.3111C14 37.7768 14.8545 36.2699 16.5643 36.2699C18.0093 36.2699 18.7776 37.1625 18.9093 38.4608H18.0677C17.9511 37.5884 17.4676 36.9807 16.5643 36.9807C15.4433 36.9807 14.8416 37.902 14.8416 39.3021V39.9634C14.8416 41.0043 15.2751 42.2937 16.4897 42.2937C17.57 42.2937 17.928 41.7416 18.0677 40.8271Z" fill="black"/>
<path d="M20.8205 36V42.91H20.0052V36H20.8205Z" fill="black"/>
<path d="M21.9076 40.4267C21.9076 39.0065 22.7513 37.9524 24.0598 37.9524C25.4751 37.9524 26.2251 39.2508 26.2251 40.5302C26.2251 41.8077 25.4097 43 24.0685 43C22.6257 43 21.9076 41.7314 21.9076 40.4267ZM22.7185 40.4267C22.7185 41.2776 23.046 42.3162 24.0685 42.3162C25.0039 42.3162 25.4098 41.3543 25.4098 40.5302C25.4098 39.6833 25.0473 38.6362 24.0598 38.6362C23.1918 38.6362 22.7185 39.4442 22.7185 40.4267Z" fill="black"/>
<path d="M30.1439 41.7853V38.0424H30.9592V42.91H30.1833L30.1636 42.3477L30.1439 41.7853ZM30.2973 40.7596L30.6348 40.7506C30.6348 42.0324 30.1459 43 28.7806 43C27.8673 43 27.2245 42.4862 27.2245 41.1825V38.0424H28.0355V41.1915C28.0355 42.0645 28.4705 42.2937 28.9078 42.2937C29.5998 42.2937 29.9867 41.9982 30.1614 41.5379C30.252 41.304 30.2973 41.0446 30.2973 40.7596Z" fill="black"/>
<path d="M35.1847 41.9653V36H36V42.91H35.2548L35.1847 41.9653ZM31.9936 40.5302C31.9936 39.366 32.523 37.9524 33.8697 37.9524C34.4675 37.9524 34.9108 38.171 35.2198 38.5778C35.6845 39.1696 35.7808 39.9588 35.7808 40.6877C35.7166 41.4004 35.5358 41.9767 35.2198 42.3792C34.9108 42.78 34.4645 43 33.8609 43C32.5624 43 31.9936 41.646 31.9936 40.5302ZM32.8089 40.5302C32.8089 41.328 33.1367 42.2937 34.0626 42.2937C34.6034 42.2937 34.9361 42.0366 35.1452 41.6549C35.4458 41.1064 35.3907 40.5544 35.3907 39.9454C35.3556 39.7804 35.3045 39.6215 35.2373 39.4685C35.0451 39.0023 34.691 38.6542 34.0713 38.6542C33.0651 38.6542 32.8089 39.7155 32.8089 40.5302Z" fill="black"/>
</svg>
