<svg width="50" height="50" viewBox="0 0 50 50" fill="none" xmlns="http://www.w3.org/2000/svg">
<rect width="50" height="50" fill="#F5831F"/>
<path d="M25.0523 24.8226C22.0116 24.8226 19.5117 22.4473 19.5117 19.5444C19.5117 16.6416 22.01 14.2668 25.0523 14.2668C28.0946 14.2668 30.593 16.6416 30.593 19.5444C30.593 22.4473 28.0946 24.8226 25.0523 24.8226ZM25.0388 10.0447C19.4981 10.0447 15.0391 14.3329 15.0391 19.5444C15.0391 24.8226 19.4987 29.0447 25.0388 29.0447C27.3363 29.0447 29.4307 28.319 31.1203 27.0627C32.1337 28.7123 35.0391 29.0447 35.0391 29.0447V19.5444C35.0391 14.3329 30.5795 10.0447 25.0388 10.0447Z" fill="white"/>
<path d="M10.7453 37.1814H11.5121C11.3808 38.3475 10.4818 39.0435 9.30753 39.0435C7.94623 39.0435 7.03906 38.0063 7.03906 36.4412V35.8822C7.03906 34.2934 7.94507 33.276 9.37543 33.276C10.6921 33.276 11.3921 34.0411 11.5121 35.1535H10.7453C10.6327 34.3614 10.2748 33.8851 9.37543 33.8851C8.3543 33.8851 7.80587 34.6744 7.80587 35.8744V36.4412C7.80587 37.5415 8.27039 38.4382 9.30753 38.4382C10.2918 38.4382 10.618 37.9649 10.7453 37.1814Z" fill="white"/>
<path d="M13.2534 33.0447V38.9664H12.5106V33.0447H13.2534Z" fill="white"/>
<path d="M16.2328 39.0435C15.0384 39.0435 14.2478 38.205 14.2478 37.0272V36.8652C14.2478 35.4995 15.1698 34.7179 16.1369 34.7179C17.5732 34.7179 17.9141 35.9318 17.9141 37.0811H14.6872V36.499H17.1753C17.1753 35.9065 16.8096 35.3039 16.1369 35.3039C15.4697 35.3039 14.9907 35.8558 14.9907 36.8652V37.0272C14.9907 37.8199 15.4735 38.4613 16.2727 38.4613C16.7946 38.4613 17.1394 38.239 17.4109 37.8946L17.8582 38.2377C17.5797 38.6449 17.0938 39.0435 16.2328 39.0435Z" fill="white"/>
<path d="M21.3248 36.1058C21.3248 35.6098 21.0118 35.2923 20.4143 35.2923C19.8632 35.2923 19.4797 35.5998 19.4797 35.9516H18.7409C18.7409 35.1247 19.734 34.7179 20.4582 34.7179C21.4056 34.7179 22.0637 35.1814 22.0637 36.1135V38.0565C22.0637 38.1953 22.0757 38.3431 22.0996 38.4999C22.126 38.6552 22.2155 38.8119 22.2155 38.9664H21.4447C21.4074 38.8841 21.3781 38.7749 21.3568 38.6387C21.2301 37.8135 21.3248 36.937 21.3248 36.1058ZM21.4526 36.4373L21.4606 36.9385C20.82 36.9385 19.3918 36.754 19.3918 37.7096C19.3918 38.4217 20.287 38.5638 20.8176 38.2801C21.1654 38.0942 21.3808 37.8022 21.3967 37.5515L21.7122 37.8946C21.6567 38.2163 21.3166 38.6855 20.7417 38.9278C19.8827 39.2832 18.649 38.805 18.649 37.8059C18.649 36.4059 20.394 36.4373 21.4526 36.4373Z" fill="white"/>
<path d="M23.9647 35.4504V38.9664H23.2259V34.795H23.9448L23.9647 35.4504ZM25.3146 34.7718L25.3106 35.4349C25.0508 35.3804 24.7478 35.3835 24.4999 35.4812C24.239 35.584 24.0593 35.7716 23.9528 36.0287C23.9022 36.1546 23.8689 36.2934 23.8529 36.445L23.6452 36.5607C23.6452 36.3088 23.6705 36.0723 23.7211 35.8513C23.8282 35.4068 24.0464 35.0535 24.3801 34.8644C24.6236 34.7248 25.0441 34.6413 25.3146 34.7718Z" fill="white"/>
<path d="M28.2541 36.765H26.7005V36.1597H28.2541C29.1586 36.1597 29.5241 35.7022 29.5241 35.0725C29.5241 34.3756 28.9537 33.9622 28.2541 33.9622H26.8802V38.9664H26.1094V33.3531H28.2541C29.3357 33.3531 30.2949 33.9642 30.2949 35.0648C30.2949 36.1431 29.5749 36.765 28.2541 36.765Z" fill="white"/>
<path d="M33.6577 38.2531V36.1058C33.6577 35.6098 33.3446 35.2923 32.7471 35.2923C32.196 35.2923 31.8125 35.5998 31.8125 35.9516H31.0737C31.0737 35.1247 32.0668 34.7179 32.791 34.7179C33.7384 34.7179 34.3965 35.1814 34.3965 36.1135V38.0565C34.3965 38.1953 34.4085 38.3431 34.4325 38.4999C34.4588 38.6552 34.5483 38.8119 34.5483 38.9664H33.7775C33.6793 38.7497 33.6577 38.487 33.6577 38.2531ZM33.7855 36.4373L33.7934 36.9385H33.0466C32.2113 36.9385 31.7247 37.1874 31.7247 37.7096C31.7247 38.1038 32.0111 38.4189 32.5514 38.4189C33.0391 38.4189 33.6958 38.0834 33.7295 37.5515L34.0451 37.8946C34.0264 38.0026 33.9758 38.1221 33.8933 38.2531C33.5875 38.7387 33.0296 39.0435 32.4435 39.0435C31.7039 39.0435 30.9818 38.5823 30.9818 37.8059C30.9818 36.9001 31.7524 36.4373 32.9268 36.4373H33.7855Z" fill="white"/>
<path d="M38.0748 37.8599C38.0748 37.5498 37.9357 37.301 37.0803 37.139C36.1366 36.9467 35.5228 36.6315 35.5228 35.9361C35.5228 35.1393 36.388 34.7179 37.1243 34.7179C38.1595 34.7179 38.7697 35.2994 38.7697 36.0209H38.0309C38.0309 35.5602 37.5481 35.3039 37.1243 35.3039C36.5219 35.3039 36.2656 35.6032 36.2656 35.9169C36.2656 36.2181 36.4394 36.3835 37.2601 36.5607C38.3224 36.792 38.8136 37.1351 38.8136 37.8059C38.8136 38.6675 37.9147 39.0435 37.1442 39.0435C36.317 39.0435 35.375 38.5906 35.375 37.6787H36.1178C36.1465 38.205 36.6351 38.4575 37.1442 38.4575C37.7582 38.4575 38.0748 38.2049 38.0748 37.8599Z" fill="white"/>
<path d="M42.3002 37.8599C42.3002 37.5498 42.1611 37.301 41.3058 37.139C40.362 36.9467 39.7482 36.6315 39.7482 35.9361C39.7482 35.1393 40.6134 34.7179 41.3497 34.7179C42.3849 34.7179 42.9951 35.2994 42.9951 36.0209H42.2563C42.2563 35.6742 41.9375 35.3039 41.3497 35.3039C40.7473 35.3039 40.491 35.6032 40.491 35.9169C40.491 36.2181 40.6648 36.3835 41.4855 36.5607C42.5478 36.792 43.0391 37.1351 43.0391 37.8059C43.0391 38.5222 42.4056 39.0435 41.3697 39.0435C40.5424 39.0435 39.6004 38.5906 39.6004 37.6787H40.3433C40.3725 38.2145 40.8704 38.4575 41.3697 38.4575C41.9836 38.4575 42.3002 38.2049 42.3002 37.8599Z" fill="white"/>
</svg>
