<svg width="50" height="50" viewBox="0 0 50 50" fill="none" xmlns="http://www.w3.org/2000/svg">
<path d="M25.0146 23.1112C21.6698 23.1112 18.9199 20.3609 18.9199 16.9997C18.9199 13.6385 21.6681 10.8888 25.0146 10.8888C28.3611 10.8888 31.1093 13.6385 31.1093 16.9997C31.1093 20.3609 28.3611 23.1112 25.0146 23.1112ZM24.9997 6C18.905 6 14 10.9653 14 16.9997C14 23.1112 18.9056 28 24.9997 28C27.5269 28 29.8308 27.1597 31.6893 25.7051C32.8041 27.6152 36 28 36 28V16.9997C36 10.9653 31.0944 6 24.9997 6Z" fill="#F5831F"/>
<path d="M9.31152 36.9653H10.1553C10.0108 38.2945 9.0216 39.0879 7.72949 39.0879C6.2316 39.0879 5.2334 37.9056 5.2334 36.1216V35.4844C5.2334 33.6734 6.23032 32.5137 7.8042 32.5137C9.25301 32.5137 10.0232 33.3858 10.1553 34.6538H9.31152C9.18759 33.7509 8.79383 33.208 7.8042 33.208C6.6806 33.208 6.07715 34.1077 6.07715 35.4756V36.1216C6.07715 37.3759 6.58828 38.3979 7.72949 38.3979C8.81256 38.3979 9.17142 37.8585 9.31152 36.9653Z" fill="#1C1D1F"/>
<path d="M12.0713 32.25V39H11.2539V32.25H12.0713Z" fill="#1C1D1F"/>
<path d="M15.3496 39.0879C14.0354 39.0879 13.1655 38.1321 13.1655 36.7896V36.605C13.1655 35.0482 14.18 34.1572 15.2441 34.1572C16.8246 34.1572 17.1997 35.541 17.1997 36.8511H13.6489V36.1875H16.3867C16.3867 35.5121 15.9843 34.8252 15.2441 34.8252C14.51 34.8252 13.9829 35.4544 13.9829 36.605V36.7896C13.9829 37.6931 14.5141 38.4243 15.3936 38.4243C15.9678 38.4243 16.3472 38.1709 16.646 37.7783L17.1382 38.1694C16.8317 38.6335 16.297 39.0879 15.3496 39.0879Z" fill="#1C1D1F"/>
<path d="M20.9526 35.7393C20.9526 35.1739 20.6082 34.812 19.9507 34.812C19.3443 34.812 18.9224 35.1626 18.9224 35.5635H18.1094C18.1094 34.621 19.2022 34.1572 19.999 34.1572C21.0414 34.1572 21.7656 34.6856 21.7656 35.748V37.9629C21.7656 38.1211 21.7788 38.2896 21.8052 38.4683C21.8342 38.6453 21.9326 38.8239 21.9326 39H21.0845C21.0435 38.9062 21.0112 38.7817 20.9878 38.6265C20.8484 37.6859 20.9526 36.6868 20.9526 35.7393ZM21.0933 36.1172L21.1021 36.6885C20.3972 36.6885 18.8257 36.4782 18.8257 37.5674C18.8257 38.3791 19.8107 38.5411 20.3945 38.2178C20.7771 38.0059 21.0142 37.673 21.0317 37.3872L21.3789 37.7783C21.3178 38.145 20.9436 38.6799 20.311 38.9561C19.3658 39.3611 18.0083 38.8161 18.0083 37.6772C18.0083 36.0814 19.9284 36.1172 21.0933 36.1172Z" fill="#1C1D1F"/>
<path d="M23.8574 34.9922V39H23.0444V34.2451H23.8354L23.8574 34.9922ZM25.3428 34.2188L25.3384 34.9746C25.0524 34.9124 24.7191 34.916 24.4463 35.0273C24.1592 35.1445 23.9614 35.3584 23.8442 35.6514C23.7886 35.7949 23.752 35.9531 23.7344 36.126L23.5059 36.2578C23.5059 35.9707 23.5337 35.7012 23.5894 35.4492C23.7072 34.9426 23.9473 34.5398 24.3145 34.3242C24.5824 34.1651 25.0451 34.0699 25.3428 34.2188Z" fill="#1C1D1F"/>
<path d="M28.5771 36.4907H26.8677V35.8008H28.5771C29.5724 35.8008 29.9746 35.2792 29.9746 34.5615C29.9746 33.767 29.347 33.2959 28.5771 33.2959H27.0654V39H26.2173V32.6016H28.5771C29.7673 32.6016 30.8228 33.2982 30.8228 34.5527C30.8228 35.7819 30.0305 36.4907 28.5771 36.4907Z" fill="#1C1D1F"/>
<path d="M34.5229 38.187V35.7393C34.5229 35.1739 34.1785 34.812 33.521 34.812C32.9146 34.812 32.4927 35.1626 32.4927 35.5635H31.6797C31.6797 34.621 32.7725 34.1572 33.5693 34.1572C34.6118 34.1572 35.3359 34.6856 35.3359 35.748V37.9629C35.3359 38.1211 35.3491 38.2896 35.3755 38.4683C35.4045 38.6453 35.5029 38.8239 35.5029 39H34.6548C34.5467 38.753 34.5229 38.4536 34.5229 38.187ZM34.6636 36.1172L34.6724 36.6885H33.8506C32.9315 36.6885 32.396 36.9722 32.396 37.5674C32.396 38.0168 32.7112 38.376 33.3057 38.376C33.8423 38.376 34.5649 37.9935 34.6021 37.3872L34.9492 37.7783C34.9287 37.9014 34.873 38.0376 34.7822 38.187C34.4458 38.7405 33.8319 39.0879 33.187 39.0879C32.3731 39.0879 31.5786 38.5622 31.5786 37.6772C31.5786 36.6448 32.4265 36.1172 33.7188 36.1172H34.6636Z" fill="#1C1D1F"/>
<path d="M39.3833 37.7388C39.3833 37.3853 39.2302 37.1017 38.2891 36.917C37.2507 36.6978 36.5752 36.3386 36.5752 35.5459C36.5752 34.6376 37.5273 34.1572 38.3374 34.1572C39.4765 34.1572 40.1479 34.8201 40.1479 35.6426H39.335C39.335 35.1173 38.8037 34.8252 38.3374 34.8252C37.6746 34.8252 37.3926 35.1664 37.3926 35.5239C37.3926 35.8674 37.5838 36.0558 38.4868 36.2578C39.6558 36.5215 40.1963 36.9126 40.1963 37.6772C40.1963 38.6593 39.2072 39.0879 38.3594 39.0879C37.4492 39.0879 36.4126 38.5716 36.4126 37.5322H37.23C37.2616 38.1321 37.7992 38.4199 38.3594 38.4199C39.0349 38.4199 39.3833 38.1321 39.3833 37.7388Z" fill="#1C1D1F"/>
<path d="M44.0327 37.7388C44.0327 37.3853 43.8796 37.1017 42.9385 36.917C41.9001 36.6978 41.2246 36.3386 41.2246 35.5459C41.2246 34.6376 42.1767 34.1572 42.9868 34.1572C44.1259 34.1572 44.7974 34.8201 44.7974 35.6426H43.9844C43.9844 35.2474 43.6336 34.8252 42.9868 34.8252C42.324 34.8252 42.042 35.1664 42.042 35.5239C42.042 35.8674 42.2332 36.0558 43.1362 36.2578C44.3052 36.5215 44.8457 36.9126 44.8457 37.6772C44.8457 38.4937 44.1486 39.0879 43.0088 39.0879C42.0986 39.0879 41.062 38.5716 41.062 37.5322H41.8794C41.9115 38.1429 42.4594 38.4199 43.0088 38.4199C43.6843 38.4199 44.0327 38.1321 44.0327 37.7388Z" fill="#1C1D1F"/>
</svg>
