<svg width="50" height="50" viewBox="0 0 50 50" fill="none" xmlns="http://www.w3.org/2000/svg">
<rect width="50" height="50" fill="#D71920"/>
<path d="M15.5763 20.9717L14.019 20.9755L14.3967 20.1408C15.6835 19.7901 17.8271 19.0733 19.8732 17.089L21.0111 17.0851L19.6181 20.0703L21.8555 20.0636L21.4449 20.9524L19.2114 20.9601C19.2114 20.9601 18.1633 23.0546 17.8078 24.553C17.5325 26.2253 17.803 27.4735 19.3013 27.941C20.2267 28.228 21.3811 28.1623 22.6254 27.8097C25.5206 26.9083 28.6157 24.9172 30.8801 22.2827C34.608 17.9517 34.6805 13.5202 31.0453 12.3889C28.7124 11.6644 25.423 12.4701 22.379 14.2844C25.5377 12.2471 31.0631 9.70409 34.6332 12.2691C32.2538 9.64621 28.8186 8 24.9989 8C17.8213 8 12 13.8207 12 20.9997C12 23.6506 12.795 26.1151 14.1562 28.171C13.1385 25.66 14.4914 23.1832 15.5763 20.9717Z" fill="white"/>
<path d="M36.0216 14.1034C36.891 16.4655 35.8032 19.9907 32.8008 23.4803C28.2933 28.7223 21.1727 31.892 16.899 30.5617C16.3686 30.3965 15.9078 30.1695 15.5146 29.8883C17.8862 32.4195 21.2577 34 24.9991 34C32.1797 34 38 28.1803 38 21.0003C38 18.4653 37.2726 16.1022 36.0216 14.1034Z" fill="white"/>
<path fill-rule="evenodd" clip-rule="evenodd" d="M20.1661 35L22.6019 42H21.736L21.1296 40.1683H18.4667L17.8615 42H17L19.4271 35H20.1661ZM18.7176 39.4087H20.8781L19.7968 36.1425L18.7176 39.4087Z" fill="white"/>
<path fill-rule="evenodd" clip-rule="evenodd" d="M23.9621 44V41.4954C24.2812 41.8869 24.7317 42.0962 25.3134 42.0962C26.4977 42.0962 27.1501 40.9543 27.1501 39.4567C27.1501 38.1632 26.6423 36.7019 25.3003 36.7019C24.7073 36.7019 24.2536 36.933 23.9321 37.3694L23.8921 36.7981H23.1487V44H23.9621ZM23.9621 40.6519V38.1685C24.1778 37.7477 24.5243 37.4519 25.0641 37.4519C26.0266 37.4519 26.3367 38.5561 26.3367 39.4567C26.3367 40.4753 25.9686 41.3654 25.0729 41.3654C24.5134 41.3654 24.1696 41.0681 23.9621 40.6519Z" fill="white"/>
<path fill-rule="evenodd" clip-rule="evenodd" d="M28.812 44V41.4954C29.1312 41.8869 29.5816 42.0962 30.1633 42.0962C31.4823 42.0962 32 40.6221 32 39.3558C32 37.756 31.3332 36.7019 30.1502 36.7019C29.5573 36.7019 29.1035 36.933 28.782 37.3694L28.7421 36.7981H27.9986V44H28.812ZM28.812 40.6519V38.1685C29.1328 37.5426 29.899 37.2297 30.4869 37.6058C31.074 37.9696 31.1866 38.784 31.1866 39.4567C31.1866 40.4753 30.8185 41.3654 29.9228 41.3654C29.3633 41.3654 29.0195 41.0681 28.812 40.6519Z" fill="white"/>
</svg>
