<svg width="50" height="50" viewBox="0 0 50 50" fill="none" xmlns="http://www.w3.org/2000/svg">
<path d="M11.4156 37.5312C11.4156 37.5312 12.37 38.2314 14.4932 38.0937C14.4932 38.0937 14.8653 38.0874 15.1442 37.6806C15.1442 37.6806 15.3725 37.1735 14.3884 37.3943C14.3884 37.3943 13.1798 37.5634 12.0499 36.9906C9.47949 35.5897 8.17238 32.4851 9.71413 29.8211C10.7345 28.1317 12.5263 26.8134 14.5969 27.178C14.5969 27.178 15.5822 27.2548 17.5462 28.811C17.5462 28.811 18.1764 28.9846 18.0295 28.4458C18.0295 28.4458 17.5096 27.1531 15.3925 26.6863C15.3925 26.6863 15.3376 24.9687 16.2002 24.2206C16.2002 24.2206 17.6747 21.4914 20.8929 21.7906C20.8929 21.7906 23.793 21.7247 25.3654 25.3936C25.3654 25.3936 25.8671 27.0334 25.5184 28.3262L27.5742 27.9672L25.6101 24.1068C25.6101 24.1068 24.3803 21.6501 21.1498 21.1009C21.1498 21.1009 18.2315 20.4439 15.7719 23.4425C15.7719 23.4425 14.7072 25.2199 14.6338 26.4948C14.6338 26.4948 11.0363 25.5971 8.8153 29.8344C8.8153 29.8344 6.6739 34.6164 11.4156 37.5312Z" fill="#369AC9"/>
<path d="M30.0998 36.1007C30.0998 36.1007 34.1267 32.6534 30.3823 29.1342C30.3823 29.1342 30.5881 28.1467 30.0998 27.8054C30.0998 27.8054 29.9051 27.3208 28.5653 27.9491C27.0009 28.451 26.7416 27.2515 25.3165 28.3801C25.3165 28.3801 23.7563 29.0623 23.0221 30.7322C23.0221 30.7322 22.5265 32.2404 23.0221 32.8149C23.0221 32.8149 23.3891 32.9945 23.6094 32.5636C23.6094 32.5636 23.4258 31.0554 24.6924 29.6728C24.6924 29.6728 27.5086 27.4613 30.3184 30.4238C30.3184 30.4238 32.0013 32.8329 30.0998 35.0593C30.0998 35.0593 29.0609 35.9392 29.171 36.1007C29.171 36.1007 29.4684 36.3701 30.0998 36.1007Z" fill="#369AC9"/>
<path d="M20.1954 21.04C20.1954 21.04 20.1708 19.6719 20.5994 18.5109C20.9829 17.4881 21.9503 16.6949 22.2391 15.6501C22.2391 15.6501 22.8999 13.6152 20.532 13.2925C19.6525 13.1393 19.2151 13.7964 18.4518 13.9982C18.4518 13.9982 17.332 14.3752 17.3688 13.6749C17.3688 13.6749 17.1669 12.6335 19.6999 12.3463C19.6999 12.3463 22.7991 11.8256 23.1583 14.2315C23.1583 14.2315 23.6646 15.7039 21.829 17.9124C21.829 17.9124 20.8195 19.4416 21.0582 21.1009C21.2147 22.1888 21.2273 21.1947 20.1405 21.1009" fill="#369AC9"/>
<path d="M27.3241 22.4521L24.9746 22.2966C24.9746 22.2966 24.3384 22.0782 23.9957 21.0202C23.9957 21.0202 22.5763 20.2736 22.6742 19.1963C22.6742 19.1963 22.8944 17.8557 24.0693 17.6641C25.5624 17.3031 26.3627 20.8802 24.9968 21.0202C24.9968 21.0202 24.7545 21.5423 25.6354 21.5664C25.6354 21.5664 26.7095 21.8776 27.4696 21.2551C27.4696 21.2551 27.9848 20.7912 28.5968 20.8795C28.5968 20.8795 28.7283 20.6506 28.4713 20.507C28.4713 20.507 26.9478 19.2322 26.6817 17.4277C26.6817 17.4277 25.4244 17.2571 25.2684 16.3863C25.2684 16.3863 24.9746 15.0397 26.1127 14.7704C26.1127 14.7704 26.8378 14.6088 27.2048 14.7704C27.2048 14.7704 28.1318 12.3016 30.7749 11.8796C30.7749 11.8796 32.9591 11.377 33.7392 12.9928C33.7392 12.9928 34.0604 13.8727 33.8861 14.6088C33.8861 14.6088 33.7025 15.4168 33.8952 15.6233C33.8952 15.6233 34.6019 15.4616 34.8956 15.9105C35.1892 16.3593 35.3177 17.32 34.7304 17.5444C34.7304 17.5444 34.9047 18.3075 34.3173 18.8282C33.2484 19.436 32.5684 20.2949 31.6742 21.0621C31.3862 21.3095 30.8808 21.6089 30.4904 21.4227C30.4904 21.4227 30.417 21.7818 30.83 21.8447C30.83 21.8447 31.6146 21.7383 32.4681 21.4825L38.64 19.3234C38.64 19.3234 38.3532 18.5694 38.5826 18.2013C38.8289 17.8217 39.2863 17.723 39.3054 17.1734C39.3054 17.1734 39.2457 16.3863 39.8239 16.3504C39.8239 16.3504 40.3775 16.3176 40.3317 16.9818L40.292 17.4188C40.292 17.4188 41.1386 17.1046 41.4219 17.6701C41.4219 17.6701 41.9942 18.8051 41.3874 19.7208C40.6655 20.4169 39.6929 20.2646 38.9154 19.7977C38.9154 19.7977 31.7384 22.7034 31.6559 22.895C31.6559 22.895 31.0922 23.1732 30.6739 23.9184C30.6739 23.9184 29.233 26.4322 28.4896 27.0964C28.4896 27.0964 28.0033 27.671 27.6546 27.8147L27.7922 28.1737H26.2228C25.8063 25.5496 26.8594 24.7657 27.3241 22.4521Z" fill="#369AC9"/>
<path d="M32.0159 13.9263C32.0159 13.9263 32.9888 13.3338 33.3559 13.9802C33.3559 13.9802 33.2457 14.8599 33.3008 15.5782C33.3008 15.5782 33.411 16.422 34.1085 16.9068C34.1085 16.9068 34.7693 17.625 34.1085 18.2714C34.1085 18.2714 32.1262 19.6359 31.759 20.4619C31.759 20.4619 30.878 21.6828 29.4462 20.7492C29.4462 20.7492 27.5741 19.6359 27.9044 18.02C27.9044 18.02 28.1248 17.6969 28.602 17.5891C28.602 17.5891 27.4272 15.7218 28.4918 14.3931C28.4918 14.3931 30.2172 12.2385 32.0159 13.9263Z" fill="#B9DEEB"/>
<path d="M26.8582 15.5423C26.8582 15.5423 26.4635 16.1078 26.4452 16.9517C26.4452 16.9517 25.8396 16.862 25.7845 16.2963C25.7845 16.2963 25.6284 15.4793 26.3717 15.3447C26.3717 15.3447 26.7481 15.2549 26.8582 15.5423Z" fill="#B9DEEB"/>
<path d="M33.7229 16.1796C33.7229 16.1796 34.1267 15.9103 34.4021 16.1796C34.4021 16.1796 34.8131 16.5719 34.5764 16.9068C34.3467 17.037 33.5794 16.476 33.7229 16.1796Z" fill="#B9DEEB"/>
<path d="M24.3742 18.1815C23.5586 17.9715 23.0261 19.1476 23.1995 19.7796C23.1995 19.7796 23.5483 20.5877 24.472 20.7553C24.472 20.7553 24.9922 20.9108 25.2919 20.1387C25.4753 19.5541 24.8896 18.3933 24.3742 18.1815Z" fill="#B9DEEB"/>
<path d="M25.9956 25.0345C25.9956 25.0345 27.1902 24.5595 28.6631 22.8082C28.6631 22.8082 29.0669 22.2574 29.6299 22.4011C29.6299 22.4011 30.4498 22.5925 29.9235 23.8734C29.9235 23.8734 28.8956 27.0455 26.4484 27.3687C26.4484 27.3687 26.4484 25.7048 25.9956 25.0345Z" fill="#B9DEEB"/>
<path d="M16.8669 28.2783C16.8669 28.2783 12.5598 27.4882 11.0425 31.0075C11.0425 31.0075 9.74534 35.1969 15.0315 36.5375C15.0315 36.5375 18.8249 37.136 23.5483 36.3939C23.5483 36.3939 29.04 35.6997 30.0997 34.9096C30.0997 34.9096 29.6176 36.7051 24.5027 37.4952C24.5027 37.4952 17.0383 38.5486 14.5176 38.0698C14.5176 38.0698 14.8847 38.1176 15.2028 37.591C15.2028 37.591 15.3253 37.2079 14.2239 37.4234C5.92531 38.2987 9.56583 22.6773 16.8669 28.2783Z" fill="#B9DEEB"/>
<path d="M30.5981 16.2381C30.5981 16.2381 30.5475 15.7443 29.8547 15.7039C29.8547 15.7039 29.1985 15.5782 29.0379 16.1931C29.0379 16.1931 29.0975 16.4355 29.3728 16.2694C29.3716 15.7016 30.3226 15.8432 30.3916 16.3275C30.3916 16.3275 30.5843 16.3996 30.5981 16.2381Z" fill="#369AC9"/>
<path d="M31.6512 16.3121C31.6512 16.3121 31.688 15.8094 32.1146 15.715C32.1146 15.715 32.7342 15.5199 33.0049 16.063C33.0049 16.063 33.1012 16.2831 33.014 16.3436C33.014 16.3436 32.8202 16.4131 32.7617 16.0832C32.584 15.7432 32.047 15.7685 31.9518 16.1594C31.9518 16.1594 31.9381 16.458 31.6512 16.3121Z" fill="#369AC9"/>
<path d="M29.7952 18.0546C30.208 18.3012 30.6576 18.5061 31.1532 18.5048C31.4723 18.5041 31.7761 18.482 32.0935 18.4506C32.4305 18.4174 32.9083 17.9491 33.1722 17.9953C33.2217 18.0042 33.2688 18.135 33.2558 18.1807C32.8654 18.2936 32.3851 18.6297 32.1752 18.9656C31.7983 19.5697 31.3403 20.1448 30.5766 20.1448C30.1313 20.1445 29.5876 19.9792 29.452 19.4984C29.3925 19.2871 29.2485 18.2146 29.2926 18.047C29.3404 17.849 29.6916 17.9928 29.7952 18.0546Z" fill="#369AC9"/>
<path d="M31.1166 17.2905C31.1166 17.391 31.0293 17.4724 30.9216 17.4724C30.8138 17.4724 30.7265 17.391 30.7265 17.2905C30.7265 17.1901 30.8138 17.1088 30.9216 17.1088C31.0293 17.1088 31.1166 17.1901 31.1166 17.2905Z" fill="#369AC9"/>
<path d="M31.915 17.2592C31.915 17.3596 31.8276 17.441 31.7199 17.441C31.6123 17.441 31.525 17.3596 31.525 17.2592C31.525 17.1587 31.6123 17.0775 31.7199 17.0775C31.8276 17.0775 31.915 17.1587 31.915 17.2592Z" fill="#369AC9"/>
<path d="M39.4339 17.4825C39.4339 17.4825 39.2955 16.8833 39.5817 16.6739C40.2123 16.2506 40.2241 17.4138 40.0505 17.7426C40.0505 17.7426 40.7505 17.5668 41.067 17.7426C41.3837 17.9185 41.4933 18.8578 41.2072 19.3443C41.2072 19.3443 40.8662 19.9269 39.9104 19.8873C37.7748 19.9725 39.4161 17.9792 39.4339 17.4825Z" fill="#B9DEEB"/>
</svg>
