<svg width="50" height="50" viewBox="0 0 50 50" fill="none" xmlns="http://www.w3.org/2000/svg">
<rect width="50" height="50" fill="#3A3A3A"/>
<path d="M32.9739 16.5755C32.5045 16.5755 32.0481 16.6459 31.6109 16.7787C30.4706 14.5252 28.2789 13 25.7622 13C23.4027 13 21.3289 14.3407 20.1394 16.3652C19.4293 16.0393 18.656 15.8604 17.8469 15.8604C14.5634 15.8604 11.8691 18.8077 11.5961 22.5614C8.94585 23.4186 7 26.2568 7 29.6262C7 33.6516 9.77723 36.9192 13.215 36.956C13.2345 36.9562 13.254 36.956 13.2736 36.956H35.8469C39.9511 37.3732 43 34.827 43 29.1495C43 25.8878 41.1672 23.0935 38.5644 21.926C37.8805 18.8394 35.6365 16.5755 32.9739 16.5755Z" fill="url(#paint0_linear_5235_118477)"/>
<path d="M25.5265 20.9182C26.8581 21.0964 28.0887 21.7243 29.023 22.6959L30.1409 21.6412L31.0204 26.8258L26.0359 25.5143L27.2196 24.3975C26.6752 23.8512 25.9685 23.4983 25.2055 23.3963C24.3586 23.2829 23.4999 23.4864 22.7896 23.9688C22.0793 24.4512 21.5658 25.1796 21.3446 26.0183L18.9692 25.3714C19.3447 23.9469 20.217 22.7099 21.4233 21.8905C22.6297 21.0712 24.0881 20.7257 25.5265 20.9182Z" fill="url(#paint1_linear_5235_118477)"/>
<path d="M24.3769 33.131C23.0466 32.943 21.8206 32.306 20.8931 31.3275L19.7678 32.374L18.9254 27.1829L23.9004 28.5312L22.7086 29.6393C23.2491 30.1895 23.9533 30.5477 24.7155 30.6553C25.5617 30.775 26.4217 30.5778 27.1355 30.1006C27.8492 29.6235 28.368 28.8989 28.5951 28.0619L30.9658 28.7263C30.5801 30.148 29.699 31.3785 28.4869 32.189C27.2747 32.9993 25.8138 33.3341 24.3769 33.131Z" fill="url(#paint2_linear_5235_118477)"/>
<defs>
<linearGradient id="paint0_linear_5235_118477" x1="25" y1="13" x2="25" y2="37" gradientUnits="userSpaceOnUse">
<stop stop-color="#F8F8F8"/>
<stop offset="1" stop-color="#C4C4C4"/>
</linearGradient>
<linearGradient id="paint1_linear_5235_118477" x1="24.9729" y1="20.8662" x2="24.9642" y2="35.1087" gradientUnits="userSpaceOnUse">
<stop stop-color="#E06F67"/>
<stop offset="1" stop-color="#872A25"/>
</linearGradient>
<linearGradient id="paint2_linear_5235_118477" x1="24.9729" y1="20.8662" x2="24.9642" y2="35.1087" gradientUnits="userSpaceOnUse">
<stop stop-color="#E06F67"/>
<stop offset="1" stop-color="#872A25"/>
</linearGradient>
</defs>
</svg>
