<svg width="50" height="50" viewBox="0 0 50 50" fill="none" xmlns="http://www.w3.org/2000/svg">
<path d="M14.8513 19.9695L13.1743 19.9737L13.5811 19.0747C14.9668 18.6971 17.2753 17.9251 19.4788 15.7881L20.7043 15.784L19.2041 18.9988L21.6136 18.9915L21.1714 19.9487L18.7662 19.957C18.7662 19.957 17.6374 22.2126 17.2545 23.8263C16.958 25.6272 17.2493 26.9714 18.8629 27.475C19.8596 27.784 21.1028 27.7132 22.4427 27.3335C25.5606 26.3628 28.8939 24.2185 31.3324 21.3813C35.3471 16.7172 35.4252 11.9449 31.5103 10.7266C28.9979 9.94625 25.4556 10.8139 22.1774 12.7678C25.5791 10.5738 31.5295 7.83518 35.3742 10.5975C32.8118 7.77285 29.1124 6 24.9988 6C17.2691 6 11 12.2684 11 19.9997C11 22.8545 11.8562 25.5086 13.322 27.7226C12.2261 25.0185 13.6831 22.3511 14.8513 19.9695Z" fill="#D71920"/>
<path d="M36.8694 12.5729C37.8057 15.1167 36.6343 18.9131 33.4009 22.671C28.5466 28.3163 20.8783 31.7298 16.2758 30.2972C15.7047 30.1193 15.2084 29.8748 14.785 29.572C17.339 32.2979 20.9698 34 24.9991 34C32.7319 34 39 27.7326 39 20.0003C39 17.2703 38.2166 14.7255 36.8694 12.5729Z" fill="#D71920"/>
<path fill-rule="evenodd" clip-rule="evenodd" d="M19.6768 36.8906L22.3965 44H21.4297L20.7526 42.1396H17.7792L17.1035 44H16.1416L18.8516 36.8906H19.6768ZM18.0595 41.3682H20.4718L19.2644 38.051L18.0595 41.3682Z" fill="black"/>
<path fill-rule="evenodd" clip-rule="evenodd" d="M23.9152 46.0312V43.4875C24.2716 43.8851 24.7745 44.0977 25.424 44.0977C26.7464 44.0977 27.4748 42.938 27.4748 41.417C27.4748 40.1033 26.9078 38.6191 25.4094 38.6191C24.7473 38.6191 24.2406 38.8538 23.8817 39.297L23.8371 38.7168H23.007V46.0312H23.9152ZM23.9152 42.6308V40.1086C24.156 39.6813 24.543 39.3809 25.1457 39.3809C26.2204 39.3809 26.5666 40.5022 26.5666 41.417C26.5666 42.4514 26.1556 43.3555 25.1555 43.3555C24.5308 43.3555 24.1469 43.0535 23.9152 42.6308Z" fill="black"/>
<path fill-rule="evenodd" clip-rule="evenodd" d="M29.3305 46.0312V43.4875C29.6868 43.8851 30.1897 44.0977 30.8393 44.0977C32.3119 44.0977 32.89 42.6005 32.89 41.3145C32.89 39.6897 32.1455 38.6191 30.8246 38.6191C30.1626 38.6191 29.6559 38.8538 29.297 39.297L29.2523 38.7168H28.4223V46.0312H29.3305ZM29.3305 42.6308V40.1086C29.6887 39.473 30.5441 39.1552 31.2006 39.5371C31.8561 39.9066 31.9818 40.7338 31.9818 41.417C31.9818 42.4514 31.5708 43.3555 30.5707 43.3555C29.946 43.3555 29.5621 43.0535 29.3305 42.6308Z" fill="black"/>
</svg>
