<svg width="50" height="50" viewBox="0 0 50 50" fill="none" xmlns="http://www.w3.org/2000/svg">
<path d="M32.2883 32.8343C32.7201 31.3504 31.926 29.9367 30.3195 29.8616L16.3169 29.6798C15.9066 29.6798 16.0454 29.0962 16.3948 29.0654L30.5228 28.8837C32.1931 28.8058 34.0148 27.4514 34.6509 25.7898C34.8667 25.2289 35.6547 24.0195 35.4817 23.4142C34.5774 19.2991 30.9036 16.2268 26.5116 16.2268C22.4614 16.2268 19.0257 18.8447 17.7968 22.4709C17.0006 21.878 15.988 21.5622 14.8976 21.6617C12.9504 21.8564 11.3926 23.4142 11.2022 25.357C11.1546 25.859 11.1892 26.348 11.3061 26.8023C8.13429 26.8932 5.59426 29.4851 5.59426 32.6829C5.59426 32.9453 5.49826 33.7733 5.92312 33.7733H31.7691C32.1723 33.7733 32.2105 33.1154 32.2883 32.8343Z" fill="#F38020"/>
<path d="M36.7496 23.838C36.5556 23.838 36.2475 23.7842 36.1611 24.011L35.6159 25.9106C35.184 27.3945 35.9781 28.8082 37.5847 28.8834L40.5661 29.0651C40.9648 29.0651 40.8494 29.6477 40.4882 29.6796L37.3813 29.8613C35.6981 29.9392 33.8893 31.2936 33.2532 32.9552C33.1953 33.1017 32.808 33.7644 33.184 33.7644H43.8461C44.4612 33.7644 44.4043 31.8761 44.4043 31.4926C44.4043 27.2737 40.9685 23.838 36.7496 23.838Z" fill="#FAAE40"/>
</svg>
