<svg width="50" height="50" viewBox="0 0 50 50" fill="none" xmlns="http://www.w3.org/2000/svg">
<path d="M31.6339 15.1712C32.0615 15.7349 31.798 16.4617 31.1659 16.4617C30.5214 16.4617 30.2693 15.6872 30.7395 15.1518L31.6339 15.1712Z" fill="#389EB5"/>
<path d="M28.1548 15.1638C28.6985 15.8238 28.1673 16.7374 27.4443 16.386C26.9913 16.1657 26.9265 15.6058 27.3033 15.1677L28.1548 15.1638Z" fill="#389EB5"/>
<path d="M26.4813 15.1901C27.0091 15.8313 26.4153 16.7521 25.7227 16.3664C25.3043 16.1334 25.2459 15.589 25.5961 15.1864L26.4813 15.1901Z" fill="#389EB5"/>
<path d="M31.4155 16.8631C32.0258 17.099 31.9631 18.1734 31.3334 18.2667C30.137 18.4445 30.3734 16.4599 31.4155 16.8631Z" fill="#389EB5"/>
<path d="M27.9587 16.8736C28.8908 17.1457 28.1566 18.7805 27.347 18.1556C26.7076 17.6616 27.1906 16.6495 27.9587 16.8736Z" fill="#389EB5"/>
<path d="M26.2536 16.884C26.7563 17.0563 26.8433 17.8364 26.3972 18.1722C25.3805 18.9381 24.8726 16.4108 26.2536 16.884Z" fill="#389EB5"/>
<path d="M24.5748 16.8828C25.2666 17.1539 25.0739 18.2532 24.3339 18.2568C23.3016 18.2623 23.6847 16.534 24.5748 16.8828Z" fill="#389EB5"/>
<path d="M34.7584 18.6911C35.1252 18.8138 35.2769 19.0545 35.2551 19.4786C35.2071 20.4132 33.938 20.3209 33.9432 19.3831C33.9457 18.9633 34.4053 18.5733 34.7584 18.6911Z" fill="#389EB5"/>
<path d="M31.2761 18.6921C31.62 18.7657 31.8141 19.0296 31.8131 19.422C31.8106 20.2417 30.8652 20.4092 30.5473 19.6463C30.3553 19.1853 30.8084 18.592 31.2761 18.6921Z" fill="#389EB5"/>
<path d="M29.6381 18.7242C30.3609 18.9985 30.1893 20.124 29.4253 20.12C28.348 20.1146 28.76 18.3909 29.6381 18.7242Z" fill="#389EB5"/>
<path d="M27.9906 18.7251C29.1699 19.33 27.5949 20.9222 27.1039 19.7023C26.8646 19.108 27.4592 18.4525 27.9906 18.7251Z" fill="#389EB5"/>
<path d="M26.3191 18.7558C26.9521 19.097 26.7411 20.1434 26.0403 20.1403C24.8925 20.1356 25.4051 18.2622 26.3191 18.7558Z" fill="#389EB5"/>
<path d="M20.9711 18.6927C21.7778 18.9063 21.697 20.1057 20.8755 20.1105C19.866 20.1163 20.1386 18.4725 20.9711 18.6927Z" fill="#389EB5"/>
<path d="M19.4026 18.7305C19.7061 18.8687 19.8415 19.1071 19.8205 19.467C19.7739 20.2712 18.7163 20.3906 18.5377 19.6119C18.4012 19.0161 18.9041 18.5037 19.4026 18.7305Z" fill="#389EB5"/>
<path d="M17.7688 18.7545C18.6629 19.2993 17.725 20.6452 17.0249 19.9677C16.4355 19.3978 17.0852 18.3382 17.7688 18.7545Z" fill="#389EB5"/>
<path d="M33.2053 18.7599C34.175 19.2364 33.0515 20.7464 32.4019 19.8885C31.9546 19.2976 32.5623 18.444 33.2053 18.7599Z" fill="#389EB5"/>
<path d="M36.4321 20.5454C37.035 20.6435 37.1583 21.5979 36.6095 21.9198C35.6064 22.5086 35.2183 20.3479 36.4321 20.5454Z" fill="#389EB5"/>
<path d="M34.9156 20.602C35.5545 20.9735 35.3247 22.0024 34.6026 22.0024C33.4995 22.0024 33.9609 20.0473 34.9156 20.602Z" fill="#389EB5"/>
<path d="M31.2932 20.5531C31.9047 20.657 32.0343 21.6033 31.479 21.9122C30.4154 22.5037 30.1497 20.3591 31.2932 20.5531Z" fill="#389EB5"/>
<path d="M26.1472 20.5508C26.4155 20.6113 26.6374 20.8454 26.6819 21.1151C26.8405 22.0782 25.5708 22.3566 25.3762 21.4014C25.2786 20.9223 25.7055 20.4513 26.1472 20.5508Z" fill="#389EB5"/>
<path d="M24.5943 20.6126C25.0644 20.8777 25.0957 21.5991 24.65 21.9004C23.3914 22.7516 23.3299 19.8991 24.5943 20.6126Z" fill="#389EB5"/>
<path d="M22.7435 20.5496C23.3658 20.7291 23.4771 21.5579 22.9262 21.9089C21.8455 22.5972 21.6124 20.2234 22.7435 20.5496Z" fill="#389EB5"/>
<path d="M19.4654 20.6012C20.5367 21.1491 19.1005 22.7809 18.5644 21.5888C18.2794 20.9551 18.877 20.3002 19.4654 20.6012Z" fill="#389EB5"/>
<path d="M15.8385 20.5473C16.7815 20.6575 16.3575 22.4278 15.4498 21.9296C14.7524 21.5469 15.0591 20.4563 15.8385 20.5473Z" fill="#389EB5"/>
<path d="M29.8018 20.6717C30.3141 21.0798 30.101 21.9335 29.4714 21.9943C28.2564 22.1121 28.8636 19.9244 29.8018 20.6717Z" fill="#389EB5"/>
<path d="M39.9696 22.4128C40.3937 22.5642 40.5676 23.1749 40.2975 23.5652C39.801 24.2823 38.7856 23.6071 39.1513 22.803C39.2978 22.4812 39.6673 22.3048 39.9696 22.4128Z" fill="#389EB5"/>
<path d="M34.7983 22.4178C35.2384 22.5364 35.4325 23.1622 35.1536 23.5632C34.6784 24.2466 33.7243 23.6654 33.9879 22.8533C34.0939 22.5268 34.4642 22.3278 34.7983 22.4178Z" fill="#389EB5"/>
<path d="M33.0936 22.4197C33.5293 22.5654 33.6964 23.2385 33.3889 23.6094C33.0404 24.0298 32.4642 23.9317 32.2512 23.4156C32.0148 22.8424 32.5315 22.2318 33.0936 22.4197Z" fill="#389EB5"/>
<path d="M31.3751 22.4151C31.9346 22.6008 32.0137 23.4891 31.4966 23.7769C30.3183 24.4332 30.1747 22.0169 31.3751 22.4151Z" fill="#389EB5"/>
<path d="M27.9468 22.4192C28.5096 22.6077 28.5645 23.5148 28.0298 23.7908C26.8584 24.3961 26.7493 22.0177 27.9468 22.4192Z" fill="#389EB5"/>
<path d="M21.052 22.4172C21.967 22.5841 21.5344 24.2431 20.6573 23.7986C19.9274 23.4284 20.2578 22.2727 21.052 22.4172Z" fill="#389EB5"/>
<path d="M19.3829 22.4192C20.1036 22.6608 19.9313 23.8637 19.1761 23.8637C18.1248 23.8637 18.4219 22.0967 19.3829 22.4192Z" fill="#389EB5"/>
<path d="M14.2218 22.4186C14.6818 22.5413 14.8513 23.2725 14.5045 23.6382C14.2135 23.945 13.7567 23.9297 13.5134 23.6052C13.0886 23.0385 13.5635 22.2432 14.2218 22.4186Z" fill="#389EB5"/>
<path d="M12.4929 22.4137C13.2136 22.6693 13.0568 23.8637 12.3025 23.8637C11.2282 23.8637 11.5661 22.0851 12.4929 22.4137Z" fill="#389EB5"/>
<path d="M36.7187 22.5248C37.3768 23.0082 36.8252 24.1482 36.1031 23.7968C35.6219 23.5625 35.5475 22.9058 35.9609 22.5401C36.1522 22.3707 36.4996 22.3637 36.7187 22.5248Z" fill="#389EB5"/>
<path d="M29.7953 22.4928C30.2656 22.7572 30.2435 23.5327 29.7584 23.7808C28.5209 24.4138 28.6051 21.8233 29.7953 22.4928Z" fill="#389EB5"/>
<path d="M26.387 22.5152C26.7374 22.7594 26.7983 23.2812 26.5155 23.6144C25.3382 25.0023 24.9921 21.5434 26.387 22.5152Z" fill="#389EB5"/>
<path d="M24.6417 22.4874C25.3491 22.8915 24.8717 24.1017 24.1199 23.8105C23.2497 23.4734 23.8322 22.0247 24.6417 22.4874Z" fill="#389EB5"/>
<path d="M22.9689 22.5148C23.6302 22.981 23.1352 24.0976 22.3947 23.8105C21.4785 23.4553 22.1807 21.9593 22.9689 22.5148Z" fill="#389EB5"/>
<path d="M16.0986 22.4937C16.8573 23.003 16.1911 24.2421 15.4239 23.7483C14.7003 23.282 15.3734 22.0072 16.0986 22.4937Z" fill="#389EB5"/>
<path d="M38.052 25.6905C37.2666 25.6905 37.1342 24.4768 37.8983 24.2829C38.8085 24.0528 39.0481 25.6905 38.052 25.6905Z" fill="#389EB5"/>
<path d="M36.5914 24.2943C37.2388 24.5476 37.1449 25.5979 36.4648 25.71C35.8155 25.817 35.4132 24.9763 35.8723 24.4716C36.0694 24.2551 36.3284 24.1913 36.5914 24.2943Z" fill="#389EB5"/>
<path d="M31.4073 24.2837C31.8491 24.4129 31.9951 25.1416 31.6527 25.5079C30.6384 26.5931 29.8749 23.8358 31.4073 24.2837Z" fill="#389EB5"/>
<path d="M27.8789 24.279C28.4778 24.409 28.5761 25.4275 28.0106 25.6455C26.8609 26.0885 26.7859 24.0406 27.8789 24.279Z" fill="#389EB5"/>
<path d="M26.1391 24.2811C26.9252 24.4119 26.8371 25.6905 26.042 25.6905C25.0788 25.6905 25.2352 24.1307 26.1391 24.2811Z" fill="#389EB5"/>
<path d="M24.5408 24.2983C24.8654 24.4081 25.0579 24.79 24.9737 25.1577C24.7979 25.9246 23.7433 25.8586 23.6923 25.0775C23.6538 24.4853 24.0411 24.1297 24.5408 24.2983Z" fill="#389EB5"/>
<path d="M22.7911 24.2912C23.5208 24.5404 23.3825 25.6905 22.6229 25.6905C21.6077 25.6905 21.8867 23.981 22.7911 24.2912Z" fill="#389EB5"/>
<path d="M17.6554 24.2823C18.036 24.3787 18.2469 24.9353 18.0563 25.3402C17.3492 26.8422 15.922 23.8428 17.6554 24.2823Z" fill="#389EB5"/>
<path d="M16.0103 24.2912C16.5914 24.5288 16.5772 25.4621 15.9891 25.6768C14.8015 26.1105 14.8825 23.8303 16.0103 24.2912Z" fill="#389EB5"/>
<path fill-rule="evenodd" clip-rule="evenodd" d="M12.5057 24.2848C12.9618 24.4626 13.097 25.1215 12.7545 25.4979C11.6706 26.6881 11.0313 23.7108 12.5057 24.2848Z" fill="#3B4D6C"/>
<path d="M10.835 24.2935C11.8612 24.6953 10.8312 26.3619 10.081 25.4791C9.60015 24.9137 10.1621 24.03 10.835 24.2935Z" fill="#389EB5"/>
<path d="M34.8994 24.3256C35.3938 24.5649 35.377 25.4453 34.8737 25.6538C34.2571 25.9094 33.7154 25.1868 34.0669 24.5779C34.2205 24.3115 34.6202 24.1903 34.8994 24.3256Z" fill="#389EB5"/>
<path d="M14.3043 24.3157C14.82 24.5418 14.7876 25.493 14.2589 25.6557C13.0208 26.0365 13.2125 23.8371 14.3043 24.3157Z" fill="#389EB5"/>
<path d="M27.9508 26.137C28.5731 26.3721 28.5429 27.406 27.9095 27.5503C26.6838 27.8299 26.9346 25.7532 27.9508 26.137Z" fill="#389EB5"/>
<path d="M41.6642 26.1501C42.6476 26.5528 41.8031 28.0779 41.0523 27.4026C40.4878 26.8941 40.9869 25.8725 41.6642 26.1501Z" fill="#389EB5"/>
<path d="M39.974 26.1497C40.9427 26.481 40.1189 28.0716 39.3632 27.4369C38.7602 26.93 39.2482 25.9016 39.974 26.1497Z" fill="#389EB5"/>
<path d="M36.5195 26.152C37.0241 26.35 37.1187 27.1188 36.6791 27.4497C35.593 28.2674 35.2334 25.6469 36.5195 26.152Z" fill="#389EB5"/>
<path d="M34.8296 26.1456C35.1187 26.2301 35.3151 26.6052 35.2625 26.9725C35.1568 27.7088 34.1586 27.7681 33.977 27.049C33.8284 26.4609 34.2778 25.9849 34.8296 26.1456Z" fill="#389EB5"/>
<path d="M33.1306 26.1578C33.4736 26.2739 33.6632 26.7044 33.5355 27.0774C33.2997 27.7665 32.4093 27.7035 32.2729 26.9882C32.1653 26.425 32.6198 25.9851 33.1306 26.1578Z" fill="#389EB5"/>
<path d="M31.4249 26.1613C31.7072 26.271 31.8727 26.6331 31.8092 27.0017C31.6993 27.6377 30.9044 27.7605 30.5993 27.1887C30.2874 26.6039 30.8293 25.9297 31.4249 26.1613Z" fill="#389EB5"/>
<path d="M29.6495 26.152C30.6175 26.5321 29.7855 28.0609 29.0394 27.4342C28.4335 26.925 28.9348 25.8715 29.6495 26.152Z" fill="#389EB5"/>
<path d="M26.2668 26.1497C26.5497 26.2455 26.7176 26.5639 26.6865 26.9453C26.629 27.6483 25.7073 27.8063 25.4293 27.1609C25.1657 26.5485 25.6645 25.9461 26.2668 26.1497Z" fill="#389EB5"/>
<path d="M21.1009 26.1601C21.4035 26.278 21.5484 26.5614 21.5129 26.9661C21.455 27.6274 20.5599 27.7746 20.2847 27.168C20.0117 26.566 20.5228 25.9349 21.1009 26.1601Z" fill="#389EB5"/>
<path d="M19.3952 26.1565C20.0359 26.4151 19.9334 27.4916 19.263 27.5449C18.1944 27.6298 18.4029 25.7562 19.3952 26.1565Z" fill="#389EB5"/>
<path d="M15.952 26.1555C16.9132 26.5254 16.015 28.1884 15.2518 27.3342C14.7656 26.7897 15.2931 25.9016 15.952 26.1555Z" fill="#389EB5"/>
<path d="M14.2422 26.1441C15.2219 26.4476 14.3307 28.2223 13.5588 27.3483C13.0719 26.7971 13.5617 25.9341 14.2422 26.1441Z" fill="#389EB5"/>
<path d="M12.563 26.159C12.8874 26.2896 13.0649 26.7074 12.9509 27.0726C12.703 27.8664 11.6273 27.6261 11.6784 26.7884C11.709 26.2865 12.1319 25.9857 12.563 26.159Z" fill="#389EB5"/>
<path d="M10.7961 26.152C11.504 26.4298 11.3368 27.5517 10.5876 27.5517C9.61082 27.5517 9.84235 25.7776 10.7961 26.152Z" fill="#389EB5"/>
<path d="M9.08181 26.1553C9.43153 26.2898 9.61756 26.8234 9.43751 27.1752C9.10519 27.8247 8.1893 27.5888 8.1842 26.8525C8.18051 26.3305 8.62975 25.9816 9.08181 26.1553Z" fill="#389EB5"/>
<path d="M34.6241 29.4129C33.7243 29.4129 33.6846 28.0347 34.5819 27.9429C35.4176 27.8579 35.5717 29.4129 34.6241 29.4129Z" fill="#389EB5"/>
<path d="M24.4531 27.9528C24.8631 28.0594 25.0961 28.6995 24.8679 29.0922C24.0039 30.5794 22.858 27.5388 24.4531 27.9528Z" fill="#389EB5"/>
<path d="M14.1938 27.9541C14.4465 28.0324 14.6572 28.2982 14.6967 28.5886C14.8207 29.4964 13.6198 29.7668 13.3768 28.8859C13.2328 28.3635 13.7203 27.8075 14.1938 27.9541Z" fill="#389EB5"/>
<path d="M39.7612 29.4123C39.0504 29.4145 38.832 28.3884 39.4672 28.0322C40.3618 27.5312 40.8783 29.4091 39.7612 29.4123Z" fill="#389EB5"/>
<path d="M36.6345 29.3354C36.0488 29.6548 35.4248 29.008 35.7138 28.3813C36.2505 27.2181 37.6336 28.7905 36.6345 29.3354Z" fill="#389EB5"/>
<path d="M31.4785 28.0436C31.9479 28.3359 31.9495 29.0827 31.4811 29.3397C30.1894 30.0484 30.3403 27.3355 31.4785 28.0436Z" fill="#389EB5"/>
<path d="M26.3242 28.0349C26.944 28.3946 26.7357 29.4129 26.042 29.4129C24.8748 29.4129 25.4387 27.5196 26.3242 28.0349Z" fill="#389EB5"/>
<path d="M22.8847 28.0225C23.5342 28.3975 23.3271 29.4129 22.6011 29.4129C21.5097 29.4129 22.0107 27.518 22.8847 28.0225Z" fill="#389EB5"/>
<path d="M19.481 28.0496C20.0836 28.3958 19.8594 29.4104 19.1802 29.4123C18.0459 29.4157 18.5606 27.5211 19.481 28.0496Z" fill="#389EB5"/>
<path d="M16.0685 28.066C16.3669 28.274 16.4851 28.7447 16.3149 29.0472C15.8939 29.7954 14.8775 29.3183 15.0911 28.4728C15.2013 28.0366 15.7177 27.8216 16.0685 28.066Z" fill="#389EB5"/>
<path d="M10.9219 28.0646C11.1761 28.2418 11.2886 28.5217 11.2343 28.8413C11.1107 29.5679 10.1591 29.621 9.95603 28.9127C9.77281 28.2744 10.4144 27.7111 10.9219 28.0646Z" fill="#389EB5"/>
<path d="M39.9184 29.8229C40.1663 29.892 40.3875 30.1492 40.4197 30.4061C40.5389 31.3597 39.3435 31.6541 39.0992 30.7313C38.9602 30.2058 39.4287 29.6863 39.9184 29.8229Z" fill="#389EB5"/>
<path d="M33.0427 29.8252C33.9832 30.0278 33.4543 31.7073 32.5637 31.2063C31.8509 30.8054 32.2502 29.6542 33.0427 29.8252Z" fill="#389EB5"/>
<path d="M31.3475 29.825C31.77 29.9162 31.9865 30.5674 31.7287 30.9712C30.8568 32.3363 29.798 29.4901 31.3475 29.825Z" fill="#389EB5"/>
<path d="M27.9113 29.824C28.489 29.9842 28.5787 30.9306 28.0423 31.2067C26.8737 31.8081 26.7333 29.498 27.9113 29.824Z" fill="#389EB5"/>
<path d="M19.3421 29.8234C19.9309 29.9844 20.0326 30.8881 19.4966 31.1972C18.354 31.8563 18.1369 29.494 19.3421 29.8234Z" fill="#389EB5"/>
<path d="M12.4931 29.8395C12.9398 30.0211 13.1053 30.5622 12.8407 30.9762C11.8722 32.4917 10.9852 29.2259 12.4931 29.8395Z" fill="#389EB5"/>
<path d="M10.7339 29.8252C11.9183 30.0733 10.8021 32.0859 10.0478 30.9973C9.66345 30.4422 10.1021 29.6929 10.7339 29.8252Z" fill="#389EB5"/>
<path d="M41.7764 29.883C42.4122 30.2274 42.2054 31.2664 41.4998 31.2726C40.9389 31.2776 40.6362 30.5848 40.9817 30.0872C41.1448 29.8518 41.5345 29.7518 41.7764 29.883Z" fill="#389EB5"/>
<path d="M36.3461 31.2722C35.4958 31.2614 35.4768 29.8808 36.3266 29.8339C37.1812 29.7865 37.2676 31.2838 36.3461 31.2722Z" fill="#389EB5"/>
<path d="M34.8994 29.8804C35.5378 30.2436 35.3326 31.2743 34.6219 31.2743C33.4635 31.2743 33.9934 29.3658 34.8994 29.8804Z" fill="#389EB5"/>
<path d="M29.8056 29.9253C30.3847 30.3288 30.1566 31.2743 29.4802 31.2743C28.308 31.2743 28.8994 29.2937 29.8056 29.9253Z" fill="#389EB5"/>
<path d="M26.3395 29.9057C26.9388 30.257 26.7179 31.2743 26.0424 31.2743C24.8842 31.2743 25.4244 29.3692 26.3395 29.9057Z" fill="#389EB5"/>
<path d="M22.9207 29.9042C23.5277 30.2682 23.309 31.2743 22.6231 31.2743C21.5109 31.2743 21.9916 29.3463 22.9207 29.9042Z" fill="#389EB5"/>
<path d="M21.1646 29.8611C21.9747 30.2195 21.4067 31.7045 20.5968 31.1934C19.8965 30.7515 20.4169 29.53 21.1646 29.8611Z" fill="#389EB5"/>
<path d="M16.0536 29.8833C16.5603 30.1577 16.5557 30.9652 16.0464 31.2052C14.7831 31.8 14.9314 29.2753 16.0536 29.8833Z" fill="#389EB5"/>
<path d="M14.3206 29.8806C14.9543 30.2413 14.7405 31.2614 14.0293 31.2714C12.8646 31.2879 13.4209 29.3681 14.3206 29.8806Z" fill="#389EB5"/>
<path d="M9.19205 29.9056C9.67892 30.1884 9.66275 30.9652 9.16497 31.2071C8.66615 31.4495 8.14377 31.0052 8.23449 30.4156C8.30623 29.9481 8.80663 29.6815 9.19205 29.9056Z" fill="#389EB5"/>
<path d="M36.9853 32.6626C36.6888 33.5333 35.5007 33.1137 35.6985 32.208C35.7618 31.9182 36.1376 31.6159 36.383 31.657C36.8756 31.7433 37.1386 32.2122 36.9853 32.6626Z" fill="#389EB5"/>
<path d="M31.3658 31.6928C31.6578 31.7675 31.8592 32.108 31.8344 32.4845C31.7814 33.2887 30.7238 33.3737 30.5123 32.5907C30.3685 32.0587 30.8434 31.5591 31.3658 31.6928Z" fill="#389EB5"/>
<path d="M15.9477 31.6912C16.5362 31.845 16.6194 32.8075 16.0669 33.0706C14.9319 33.6117 14.7446 31.3769 15.9477 31.6912Z" fill="#389EB5"/>
<path d="M11.2617 32.4116C11.2617 33.2638 10.1646 33.4199 9.93018 32.6012C9.80059 32.1487 10.2236 31.579 10.6312 31.657C11.015 31.7343 11.2617 32.0342 11.2617 32.4116Z" fill="#389EB5"/>
<path d="M38.3611 31.7625C38.8123 32.0289 38.8242 32.8202 38.3801 33.0362C37.8421 33.2978 37.3373 32.9182 37.4037 32.3021C37.4558 31.8187 37.9676 31.5301 38.3611 31.7625Z" fill="#389EB5"/>
<path d="M34.8456 31.7247C35.279 31.8707 35.4116 32.5625 35.0749 32.9215C34.7301 33.2891 34.1279 33.1321 33.986 32.6375C33.8209 32.062 34.3088 31.5438 34.8456 31.7247Z" fill="#389EB5"/>
<path d="M27.9549 31.7212C28.9594 32.0549 28.0367 33.7509 27.2523 32.9186C26.7531 32.3889 27.2771 31.4959 27.9549 31.7212Z" fill="#389EB5"/>
<path d="M26.2305 31.7194C27.0583 32.0146 26.6705 33.3527 25.8344 33.0855C24.9937 32.8171 25.4341 31.4344 26.2305 31.7194Z" fill="#389EB5"/>
<path d="M24.5452 31.7129C24.8512 31.7985 25.0629 32.2395 24.9711 32.5998C24.7805 33.3479 23.7408 33.2762 23.6903 32.5113C23.6515 31.9207 24.0288 31.5684 24.5452 31.7129Z" fill="#389EB5"/>
<path d="M22.8219 31.7111C23.4148 31.8933 23.4115 32.8969 22.8173 33.0867C22.079 33.3226 21.6207 32.2683 22.2561 31.7959C22.3669 31.7136 22.6783 31.6669 22.8219 31.7111Z" fill="#389EB5"/>
<path d="M17.7428 31.7347C18.2889 32.0081 18.2426 32.8925 17.6719 33.0901C16.454 33.5121 16.6852 31.2062 17.7428 31.7347Z" fill="#389EB5"/>
<path d="M14.2605 31.7229C14.6819 31.8663 14.8228 32.555 14.5028 32.9068C13.4841 34.0261 12.8068 31.228 14.2605 31.7229Z" fill="#389EB5"/>
<path d="M27.9011 33.5532C28.9292 33.818 28.1692 35.5607 27.3156 34.8466C26.7287 34.3556 27.1765 33.3664 27.9011 33.5532Z" fill="#389EB5"/>
<path d="M36.5699 33.595C37.0285 33.7779 37.1006 34.5267 36.6918 34.8638C35.6769 35.7008 35.1522 33.0301 36.5699 33.595Z" fill="#389EB5"/>
<path d="M34.9326 33.6342C35.3557 33.8658 35.3914 34.5393 34.9979 34.8638C33.9114 35.7588 33.5131 32.8569 34.9326 33.6342Z" fill="#389EB5"/>
<path d="M33.1367 33.5824C33.5745 33.7356 33.717 34.4102 33.386 34.7632C32.3417 35.878 31.7263 33.088 33.1367 33.5824Z" fill="#389EB5"/>
<path d="M31.4173 33.5926C32.0316 33.8706 31.9341 34.8965 31.2877 34.9554C30.11 35.0628 30.481 33.1693 31.4173 33.5926Z" fill="#389EB5"/>
<path d="M29.6754 33.5853C30.3586 33.9037 30.1682 34.9649 29.4283 34.961C28.3159 34.9555 28.785 33.1713 29.6754 33.5853Z" fill="#389EB5"/>
<path d="M26.3431 33.6199C26.8763 33.9172 26.7844 34.8312 26.208 34.9628C24.929 35.2543 25.2925 33.0334 26.3431 33.6199Z" fill="#389EB5"/>
<path d="M21.1071 33.5884C21.5748 33.7364 21.6694 34.4769 21.2683 34.8478C20.3257 35.7183 19.6202 33.1182 21.1071 33.5884Z" fill="#389EB5"/>
<path d="M19.4291 33.5994C19.8954 33.7822 19.9705 34.5099 19.5594 34.865C18.5623 35.7272 17.9782 33.0309 19.4291 33.5994Z" fill="#389EB5"/>
<path d="M15.9625 33.5865C16.2516 33.6836 16.4441 34.0901 16.3694 34.4456C16.2273 35.1216 15.278 35.1561 15.1022 34.4918C14.9457 33.9002 15.4178 33.4033 15.9625 33.5865Z" fill="#389EB5"/>
<path d="M12.3239 34.9624C11.4659 34.9624 11.4384 33.6067 12.2956 33.5604C13.1668 33.5129 13.2314 34.9624 12.3239 34.9624Z" fill="#389EB5"/>
<path d="M10.8721 33.6143C11.2811 33.8185 11.3743 34.4212 11.0511 34.7713C10.6896 35.1629 10.0503 34.961 9.9402 34.4203C9.8224 33.842 10.3734 33.3654 10.8721 33.6143Z" fill="#389EB5"/>
<path d="M9.05485 28.0203C9.40458 28.1548 9.5906 28.6884 9.41055 29.0402C9.07824 29.6897 8.16235 29.4538 8.15725 28.7175C8.15355 28.1955 8.6028 27.8466 9.05485 28.0203Z" fill="#3B4D6C"/>
<path d="M12.4764 27.9678C12.9736 28.0797 13.1691 28.854 12.7944 29.228C11.7736 30.247 11.0939 27.6575 12.4764 27.9678Z" fill="#C62D36"/>
<path d="M8.81543 33.1278C7.9762 33.0391 8.04689 31.6872 8.89069 31.6881C9.76836 31.6881 9.75802 33.2272 8.81543 33.1278Z" fill="#C62D36"/>
<path d="M12.5252 31.7229C12.9467 31.8663 13.0875 32.555 12.7675 32.9068C12.4598 33.2449 11.8986 33.1684 11.7171 32.7636C11.4435 32.1532 11.9339 31.5216 12.5252 31.7229Z" fill="#3B4D6C"/>
<path d="M19.4273 31.7349C19.9735 32.0083 19.9272 32.8927 19.3565 33.0903C18.1386 33.5123 18.3698 31.2064 19.4273 31.7349Z" fill="#3B4D6C"/>
<path d="M21.151 31.7349C21.6971 32.0083 21.6509 32.8927 21.0801 33.0903C19.8622 33.5123 20.0935 31.2064 21.151 31.7349Z" fill="#3B4D6C"/>
<path d="M24.5452 33.5884C24.8512 33.674 25.0629 34.115 24.9711 34.4753C24.7805 35.2234 23.7408 35.1517 23.6903 34.3868C23.6515 33.7963 24.0288 33.4439 24.5452 33.5884Z" fill="#3B4D6C"/>
<path d="M22.8219 33.5866C23.4148 33.7688 23.4115 34.7725 22.8173 34.9622C21.6885 35.3228 21.7581 33.259 22.8219 33.5866Z" fill="#3B4D6C"/>
<path d="M38.4299 33.6305C38.8884 33.8135 38.9605 34.5623 38.5517 34.8994C37.5368 35.7363 37.0121 33.0656 38.4299 33.6305Z" fill="#3B4D6C"/>
<path d="M40.1173 31.7959C40.5685 32.0624 40.5804 32.8537 40.1363 33.0697C38.7923 33.7231 38.998 31.1349 40.1173 31.7959Z" fill="#3B4D6C"/>
<path d="M29.7919 31.7594C30.2713 32.02 30.2535 32.8226 29.7631 33.0671C28.5316 33.6813 28.5663 31.0926 29.7919 31.7594Z" fill="#C62D36"/>
<path d="M33.2241 28.0339C33.8516 28.3983 33.6238 29.4129 32.9145 29.4129C31.7853 29.4129 32.2952 27.4943 33.2241 28.0339Z" fill="#C62D36"/>
<path d="M29.6877 24.2852C30.67 24.571 29.838 26.3343 29.0237 25.5243C28.4854 24.989 28.9736 24.0775 29.6877 24.2852Z" fill="#C62D36"/>
<path d="M33.0641 20.5485C33.8288 20.7776 33.7171 22.0024 32.9315 22.0024C31.9107 22.0024 32.1561 20.2762 33.0641 20.5485Z" fill="#C62D36"/>
<path d="M29.6891 16.8626C30.4611 17.1612 30.1983 18.3594 29.3812 18.2665C28.386 18.1531 28.8334 16.5316 29.6891 16.8626Z" fill="#C62D36"/>
<path d="M24.5213 18.7213C25.2436 19.0439 25.0112 20.2011 24.2375 20.1329C23.4994 20.0678 23.3637 19.0284 24.0543 18.7305C24.2521 18.6451 24.3467 18.6434 24.5213 18.7213Z" fill="#C62D36"/>
<path d="M24.5549 26.1613C25.0418 26.3506 25.0956 27.175 24.64 27.4682C23.5329 28.1809 23.1992 25.6339 24.5549 26.1613Z" fill="#C62D36"/>
<path d="M19.3952 24.2952C20.185 24.6138 19.8402 25.8937 19.0189 25.6916C18.1042 25.4667 18.5566 23.9575 19.3952 24.2952Z" fill="#C62D36"/>
<path d="M39.9726 24.284C40.9665 24.5742 40.098 26.3164 39.3058 25.5303C38.7655 24.9938 39.257 24.075 39.9726 24.284Z" fill="#C62D36"/>
<path d="M17.6634 20.6225C18.7348 21.1703 17.2986 22.8021 16.7625 21.6101C16.4775 20.9764 17.0751 20.3215 17.6634 20.6225Z" fill="#3B4D6C"/>
<path d="M17.581 22.4404C18.3017 22.6821 18.1294 23.8849 17.3742 23.8849C16.3228 23.8849 16.62 22.1179 17.581 22.4404Z" fill="#3B4D6C"/>
<path d="M21.0394 20.5496C21.6616 20.7291 21.7729 21.5579 21.2221 21.9089C20.1413 22.5972 19.9083 20.2233 21.0394 20.5496Z" fill="#3B4D6C"/>
<path d="M21.1009 24.3517C21.4035 24.4695 21.5484 24.7529 21.5129 25.1577C21.455 25.819 20.5599 25.9662 20.2847 25.3595C20.0117 24.7576 20.5228 24.1264 21.1009 24.3517Z" fill="#3B4D6C"/>
<path d="M17.7242 26.1441C18.3649 26.4028 18.2624 27.4793 17.592 27.5326C16.5234 27.6174 16.7319 25.7439 17.7242 26.1441Z" fill="#3B4D6C"/>
<path d="M17.81 28.0372C18.4126 28.3834 18.1884 29.398 17.5092 29.4C16.3749 29.4033 16.8896 27.5088 17.81 28.0372Z" fill="#3B4D6C"/>
<path d="M17.6711 29.8111C18.2599 29.972 18.3616 30.8758 17.8256 31.1849C16.683 31.8439 16.4659 29.4816 17.6711 29.8111Z" fill="#3B4D6C"/>
<path d="M21.1832 28.0196C21.8327 28.3946 21.6256 29.41 20.8996 29.41C19.8082 29.41 20.3092 27.5151 21.1832 28.0196Z" fill="#3B4D6C"/>
<path d="M22.9276 26.1613C23.4145 26.3506 23.4683 27.175 23.0127 27.4682C21.9057 28.1809 21.5719 25.6339 22.9276 26.1613Z" fill="#3B4D6C"/>
<path d="M24.64 29.8955C25.2392 30.2467 25.0184 31.2641 24.3428 31.2641C23.1847 31.2641 23.7249 29.359 24.64 29.8955Z" fill="#3B4D6C"/>
<path d="M27.9113 27.9626C28.489 28.1228 28.5787 29.0692 28.0423 29.3453C26.8737 29.9467 26.7333 27.6366 27.9113 27.9626Z" fill="#3B4D6C"/>
<path d="M29.8056 28.0639C30.3847 28.4674 30.1566 29.4129 29.4802 29.4129C28.308 29.4129 28.8994 27.4323 29.8056 28.0639Z" fill="#3B4D6C"/>
<path d="M33.1367 31.7247C33.5745 31.8779 33.717 32.5525 33.386 32.9054C33.0272 33.2885 32.4257 33.1361 32.2912 32.6278C32.1375 32.0469 32.6115 31.5405 33.1367 31.7247Z" fill="#3B4D6C"/>
<path d="M38.2785 26.1456C38.788 26.3199 38.8733 27.0946 38.4218 27.4483C37.4146 28.2381 36.9081 25.6773 38.2785 26.1456Z" fill="#3B4D6C"/>
<path d="M38.0657 29.4083C37.3548 29.4104 37.1365 28.3844 37.7717 28.0281C38.6663 27.5271 39.1828 29.4051 38.0657 29.4083Z" fill="#3B4D6C"/>
<path d="M38.2229 29.8188C39.5781 30.1969 37.8188 32.2956 37.4037 30.7272C37.2646 30.2017 37.7332 29.6822 38.2229 29.8188Z" fill="#3B4D6C"/>
<path d="M41.4998 29.4523C40.9389 29.4574 40.6362 28.7646 40.9817 28.2669C41.7336 27.1826 42.8946 29.4401 41.4998 29.4523Z" fill="#3B4D6C"/>
<path d="M41.6642 24.3457C42.6476 24.7484 41.8031 26.2735 41.0523 25.5981C40.4878 25.0897 40.9869 24.0681 41.6642 24.3457Z" fill="#3B4D6C"/>
<path d="M38.0721 20.5454C38.675 20.6435 38.7982 21.5979 38.2495 21.9198C37.2463 22.5086 36.8583 20.3479 38.0721 20.5454Z" fill="#3B4D6C"/>
<path d="M38.3586 22.5248C39.0168 23.0082 38.4652 24.1482 37.7431 23.7968C36.8791 23.3761 37.5852 21.956 38.3586 22.5248Z" fill="#3B4D6C"/>
<path d="M33.0936 24.279C33.4367 24.3951 33.6262 24.8256 33.4986 25.1986C32.8602 27.0645 31.331 23.683 33.0936 24.279Z" fill="#3B4D6C"/>
<path d="M28.1548 20.6717C28.6672 21.0798 28.4541 21.9335 27.8244 21.9943C26.6094 22.1121 27.2166 19.9244 28.1548 20.6717Z" fill="#3B4D6C"/>
<path d="M29.6891 15.0576C30.4611 15.3563 30.1983 16.5545 29.3812 16.4616C28.386 16.3482 28.8334 14.7267 29.6891 15.0576Z" fill="#3B4D6C"/>
<path d="M33.2053 16.884C33.8156 17.1199 33.7528 18.1942 33.1232 18.2875C31.9268 18.4653 32.1632 16.4808 33.2053 16.884Z" fill="#3B4D6C"/>
<path d="M17.6954 33.5994C18.641 33.97 17.7421 35.56 16.9796 34.7871C16.4456 34.2462 16.9996 33.3268 17.6954 33.5994Z" fill="#3B4D6C"/>
<path d="M14.2605 33.5865C14.5495 33.6836 14.7421 34.0901 14.6674 34.4456C14.5253 35.1216 13.576 35.1561 13.4002 34.4918C13.2437 33.9002 13.7158 33.4033 14.2605 33.5865Z" fill="#389EB5"/>
</svg>
