<svg width="50" height="50" viewBox="0 0 50 50" fill="none" xmlns="http://www.w3.org/2000/svg">
<path d="M32.2888 25.8343C32.7206 24.3504 31.9265 22.9367 30.3199 22.8616L16.3174 22.6798C15.907 22.6798 16.0458 22.0962 16.3952 22.0654L30.5233 21.8837C32.1936 21.8058 34.0153 20.4514 34.6514 18.7898C34.8672 18.2289 35.6552 17.0195 35.4822 16.4142C34.5778 12.2991 30.9041 9.22681 26.5121 9.22681C22.4619 9.22681 19.0261 11.8447 17.7972 15.4709C17.001 14.878 15.9885 14.5622 14.8981 14.6617C12.4202 14.9095 10.6931 17.4166 11.3065 19.8023C8.13475 19.8932 5.59473 22.4851 5.59473 25.6829C5.59473 25.9685 5.61636 26.2497 5.65098 26.5353C5.67261 26.6738 5.78945 26.7733 5.92359 26.7733H31.7695C32.1728 26.7733 32.211 26.1154 32.2888 25.8343Z" fill="#F38020"/>
<path d="M36.75 16.838C36.5561 16.838 36.248 16.7842 36.1615 17.011L35.6163 18.9106C35.3783 19.7285 35.4692 20.4814 35.8673 21.0396C36.2308 21.5502 36.8452 21.8488 37.5852 21.8834L40.5666 22.0651C40.9653 22.0651 40.8499 22.6477 40.4887 22.6796L37.3818 22.8613C35.6985 22.9392 33.8898 24.2936 33.2537 25.9552C33.1958 26.1017 32.8084 26.7644 33.1845 26.7644H43.8465C44.4616 26.7644 44.4047 24.8761 44.4047 24.4926C44.4047 20.2737 40.969 16.838 36.75 16.838Z" fill="#FAAE40"/>
<path d="M24.6143 37.0066V37.7732H19.7998V37.0066H24.6143ZM24.458 31.3474L20.0244 37.7732H19.4434V37.0701L23.8721 30.6638H24.458V31.3474ZM24.0576 30.6638V31.4353H19.5068V30.6638H24.0576Z" fill="#1C1D1F"/>
<path d="M28.4668 30.6638V37.7732H27.5391V30.6638H28.4668ZM30.752 30.6638V31.4353H25.2588V30.6638H30.752Z" fill="#1C1D1F"/>
</svg>
