<svg width="50" height="50" viewBox="0 0 50 50" fill="none" xmlns="http://www.w3.org/2000/svg">
<path d="M14.3388 23.3682C18.3239 21.9783 22.3294 20.3956 26.4201 22.5226C26.56 22.5936 26.689 22.6853 26.8967 22.8136L25.2721 27.0896L25.5519 27.2821C26.1044 26.671 26.6584 26.0538 27.2138 25.4305C28.7991 23.6684 30.6009 22.2614 32.945 21.8764C37.5152 21.1294 42.2668 24.3971 41.6042 30.2381C41.4533 31.5833 40.6815 32.6374 39.6756 33.4784C37.9784 34.9218 35.9076 35.7997 33.7301 35.999C29.9362 36.3496 26.2517 35.9715 23.0154 33.5998C21.837 32.7389 20.8189 31.6505 19.7529 30.6552L19.4774 30.8844L21.9199 34.9197C19.3943 35.724 15.4889 35.2749 12.5697 33.7602C8.91865 31.8733 4.79907 28.3874 8.25328 24.1083C11.7519 19.7545 16.1755 16.7755 21.3033 15.0064C22.9989 14.4585 24.7446 14.0983 26.5119 13.9317C28.1519 13.7461 29.6191 14.5023 30.9421 15.4968C32.1906 16.4363 32.2103 17.7173 31.7336 19.0578C31.5356 19.4238 31.1666 19.6758 30.7671 19.7178C24.8725 19.6315 19.2314 18.4874 14.4721 23.0015C14.4082 23.0888 14.1513 23.6468 14.3388 23.3682Z" fill="#273C93"/>
<path d="M14.3388 23.3682C14.2535 23.251 14.1689 23.5943 14.3388 23.3682Z" fill="#FDFEFE"/>
</svg>
