<svg width="50" height="50" viewBox="0 0 50 50" fill="none" xmlns="http://www.w3.org/2000/svg">
<path d="M23.2194 5C12.1376 6.27966 2.30247 15.5976 4.04262 27.3177C5.3592 36.1849 12.1824 43.9126 21.3142 44.8851C27.2205 45.5141 32.9818 44.2181 37.5096 40.1808C38.0141 39.7319 38.0461 39.0843 37.5679 38.6034C36.4743 37.5038 34.0854 33.9934 32.4641 33.79C32.1652 33.7526 31.9067 33.8162 31.6767 33.9926C29.252 35.8549 26.6117 36.6261 23.5477 36.5429C17.2272 36.3703 13.0902 30.059 13.4853 24.0862C13.8735 18.2226 18.5918 13.0967 24.7596 13.4944C26.229 13.5891 27.6429 13.9273 28.9851 14.546C29.4958 14.7816 29.9336 14.6709 30.2829 14.3207C31.9458 12.6517 33.6151 10.989 35.2812 9.32321C35.7999 8.80453 35.7078 8.01473 35.0707 7.65028C31.4661 5.58787 27.3275 5 23.2194 5Z" fill="#0F73FF"/>
<path d="M23.9897 25.2703C22.8631 24.1285 21.7343 22.989 20.5957 21.8591C20.0774 21.3449 19.4145 21.1848 18.8784 21.4373C18.0736 21.816 17.7729 22.6871 18.1844 23.5369C19.1424 25.5151 20.1677 27.4605 21.1273 29.4379C21.8325 30.89 22.9194 31.8246 24.5721 31.9842C25.6732 32.0909 26.6671 31.7731 27.4799 31.0375L43.5421 11.1886C44.3544 10.1801 44.002 8.71773 42.808 8.16989C42.1603 7.87255 41.3154 7.93122 40.6801 8.56635C35.1139 14.1324 29.4929 19.6413 23.9897 25.2703Z" fill="#0F73FF"/>
</svg>
