<svg width="50" height="50" viewBox="0 0 50 50" fill="none" xmlns="http://www.w3.org/2000/svg">
<path d="M39.1003 28.8207V27.9964C39.6712 28.0441 40.2422 28.0897 40.8142 28.1206C41.3716 28.15 41.9393 28.1675 42.4943 28.0981C42.8091 28.0488 43.2041 27.9395 43.3512 27.6238C43.5475 27.2027 43.6496 26.1673 43.3174 25.7608C43.1496 25.5087 42.7039 25.4922 42.4379 25.4672C41.5531 25.3688 40.4617 25.4233 39.6416 25.0269C39.4236 24.914 39.2582 24.7747 39.1454 24.6091C39.0402 24.436 38.9688 24.2327 38.9312 23.9994C38.8343 23.3783 38.8082 22.6449 39.0552 22.0573C39.183 21.7713 39.3672 21.553 39.6077 21.4024C40.1975 21.0333 40.9878 21.0298 41.6599 21.0298C42.4516 21.0298 43.2753 21.0417 44.0503 21.2105V22.0121C43.3193 21.8995 42.5686 21.8653 41.829 21.8653C41.3188 21.8653 40.6658 21.8327 40.2166 22.125C40.0513 22.2229 39.946 22.3622 39.9009 22.5428C39.8107 22.9583 39.8068 23.4491 39.9009 23.8639C39.946 24.022 40.0362 24.1349 40.1715 24.2026C40.9158 24.5164 41.8964 24.4627 42.686 24.5526C43.1051 24.5876 43.5906 24.6421 43.9376 24.9027C44.0879 25.0156 44.2007 25.1774 44.2758 25.3882C44.5616 26.0559 44.5207 27.0569 44.3209 27.748C44.2382 28.0265 44.1217 28.2486 43.9714 28.4142C43.6707 28.7454 43.2272 28.8997 42.686 28.9449C41.4997 29.0467 40.2822 28.9599 39.1003 28.8207Z" fill="black"/>
<path d="M29.0285 28.8885V21.1202H30.3365L32.9863 25.6141H33.0426L35.6811 21.1202H36.9891V28.8885H36.0419V22.6784H35.9968L33.3471 27.1949H32.6367L29.987 22.6784H29.9418V28.8885H29.0285Z" fill="black"/>
<path d="M20.5085 28.8885L23.4402 21.1202H24.6579L27.5783 28.8885H26.5748L25.7742 26.7658H22.2901L21.4895 28.8885H20.5085ZM22.5832 25.919H25.4811L24.0603 22.1138H24.004L22.5832 25.919Z" fill="black"/>
<path d="M16.1472 28.9788C15.3647 28.9788 14.3837 29.016 13.7116 28.5384C12.7182 27.8089 12.9674 26.0581 12.9674 25.0043C12.9674 24.0882 12.9008 23.0481 13.2155 22.1702C13.3207 21.8691 13.4861 21.6358 13.7116 21.4702C14.374 20.9994 15.3761 21.0298 16.1472 21.0298C16.9063 21.0298 17.9238 20.9946 18.5714 21.4702C18.8044 21.6358 18.9736 21.8691 19.0788 22.1702C19.3935 23.0481 19.3269 24.0882 19.3269 25.0043C19.3269 25.928 19.3887 26.963 19.0788 27.8497C18.9736 28.1432 18.8044 28.3728 18.5714 28.5384C17.9142 29.0211 16.9177 28.9788 16.1472 28.9788ZM16.1472 28.1432C16.6716 28.1432 17.3474 28.2078 17.8159 27.9174C17.9738 27.8195 18.0941 27.6615 18.1768 27.4432C18.2594 27.2173 18.3083 26.9087 18.3233 26.5173C18.3459 26.1259 18.3572 25.6215 18.3572 25.0043C18.3572 24.2418 18.4532 23.3066 18.1768 22.5767C18.0941 22.3509 17.9738 22.189 17.8159 22.0912C17.3574 21.8069 16.6606 21.8653 16.1472 21.8653C15.4317 21.8653 14.4176 21.7573 14.1176 22.5767C13.8601 23.3244 13.9371 24.2285 13.9371 25.0043C13.9371 25.77 13.7124 27.4426 14.4784 27.9174C14.9574 28.2008 15.6148 28.1432 16.1472 28.1432Z" fill="black"/>
<path d="M8.24077 28.8884C7.60375 28.7713 7.06488 28.4752 6.7975 27.8609C6.44628 26.9817 6.48179 25.9331 6.48179 25.0043C6.48179 24.0861 6.44217 23.0375 6.7975 22.1702C7.05308 21.568 7.5041 21.2519 8.24077 21.1314C9.25218 20.9454 10.4139 20.9472 11.4205 21.1992V21.9783C10.5378 21.863 9.64539 21.8081 8.75945 21.9218C8.27582 21.9839 7.85044 22.1779 7.66572 22.6557C7.40064 23.3797 7.45148 24.2478 7.45148 25.0043C7.45148 25.7688 7.40588 26.6308 7.66572 27.3641C7.85732 27.8438 8.27277 28.0243 8.75945 28.0868C9.65173 28.2013 10.5755 28.1532 11.4656 28.0303V28.832C10.431 29.0293 9.28321 29.0589 8.24077 28.8884Z" fill="black"/>
</svg>
