<svg width="50" height="50" viewBox="0 0 50 50" fill="none" xmlns="http://www.w3.org/2000/svg">
<path d="M32.1145 34.447L33.2096 36.4324C33.2872 36.573 33.2411 36.7528 33.1068 36.8341L32.5423 37.1754C32.4104 37.2551 32.2415 37.2078 32.1652 37.0696L31.0695 35.0829C30.9973 34.9522 30.8426 34.9043 30.7124 34.9692C29.592 35.5278 28.3638 35.8875 27.0677 35.9994C26.9234 36.0118 26.8115 36.1348 26.8115 36.2864V38.5706C26.8115 38.7306 26.6876 38.8603 26.5348 38.8603H25.8844C25.7288 38.8603 25.6026 38.7282 25.6026 38.5652V36.2861C25.6026 36.1355 25.4912 36.0131 25.3476 36.0012C24.0506 35.8933 22.8203 35.5386 21.698 34.9835C21.5656 34.9181 21.4087 34.9669 21.3354 35.0997L20.2518 37.065C20.1741 37.2057 20.0022 37.2539 19.8678 37.1727L19.3039 36.8317C19.1717 36.7519 19.1263 36.5748 19.2026 36.4364L20.2885 34.4672C20.3616 34.3347 20.3234 34.1681 20.2032 34.081C19.1592 33.3249 18.252 32.377 17.5281 31.2851C17.4459 31.161 17.2887 31.1216 17.1637 31.1972L15.2863 32.3319C15.1528 32.4127 14.9819 32.3648 14.9047 32.2248L14.5825 31.6407C14.5038 31.498 14.5505 31.3154 14.6868 31.2331L16.5581 30.102C16.6831 30.0264 16.729 29.8645 16.667 29.7279C16.1334 28.5519 15.7918 27.2622 15.6865 25.9019C15.6748 25.7505 15.557 25.633 15.412 25.633H13.2504C13.0948 25.633 12.9687 25.5009 12.9687 25.3379V24.6563C12.9687 24.4966 13.0922 24.3673 13.2446 24.3673H15.408C15.5553 24.3673 15.6748 24.248 15.6868 24.0942C15.7924 22.7363 16.1335 21.4486 16.666 20.2744C16.7285 20.1367 16.6822 19.9733 16.5561 19.8971L14.6842 18.7654C14.5494 18.6838 14.5032 18.5032 14.5811 18.3619L14.9042 17.776C14.9817 17.6355 15.1531 17.5874 15.2873 17.6685L17.164 18.8033C17.2887 18.8788 17.4456 18.8395 17.5277 18.7156C18.2521 17.6228 19.16 16.6741 20.2051 15.9176C20.3242 15.8313 20.3622 15.6661 20.2897 15.5347L19.2029 13.5639C19.1265 13.4253 19.1718 13.248 19.3042 13.168L19.8683 12.827C20.0024 12.7458 20.174 12.794 20.2516 12.9345L21.337 14.903C21.4094 15.0341 21.5644 15.0826 21.6953 15.0178C22.8178 14.4623 24.0481 14.1072 25.3455 13.999C25.4902 13.987 25.6026 13.8637 25.6026 13.7116V11.4377C25.6026 11.2732 25.7301 11.1397 25.8874 11.1397H26.5337C26.6871 11.1397 26.8115 11.27 26.8115 11.4306V13.7136C26.8115 13.8651 26.9234 13.9882 27.0677 14.0007C28.3624 14.1125 29.5893 14.4713 30.7089 15.0291C30.8411 15.0949 30.9983 15.0462 31.0714 14.9134L32.1646 12.9316C32.2413 12.7927 32.4108 12.7451 32.5435 12.8253L33.1058 13.1652C33.2407 13.2468 33.2868 13.4275 33.2089 13.5687L32.1164 15.5497C32.0433 15.6821 32.0812 15.8486 32.2011 15.9358C32.7377 16.3262 33.2388 16.7663 33.6967 17.251C34.0386 17.6128 34.5824 17.6528 34.9552 17.3264L38.6845 14.0606C39.0714 13.7218 39.1079 13.1108 38.7638 12.7247C35.4144 8.96597 30.5472 6.70908 25.1831 7.03028C17.0491 7.51724 9.65677 15.1097 9.0495 23.6159C8.29517 34.1822 16.2603 43 26.1926 43C31.0933 43 35.5135 40.8518 38.645 37.4073C39.058 36.9531 39.0092 36.2238 38.5498 35.8215L34.8726 32.6012C34.5462 32.3155 34.0682 32.3484 33.7722 32.6682C33.293 33.186 32.7655 33.6539 32.1982 34.0664C32.0799 34.1523 32.0425 34.3166 32.1145 34.447Z" fill="#1648A6"/>
<path d="M26.2042 26.6946C25.2824 26.6946 24.5351 25.9122 24.5351 24.9472C24.5351 23.9821 25.2824 23.1997 26.2042 23.1997C27.126 23.1997 27.8733 23.9821 27.8733 24.9472C27.8733 25.9122 27.126 26.6946 26.2042 26.6946ZM26.509 19.6127C24.1566 19.4695 22.1258 20.9959 21.3928 23.1647C21.3476 23.2986 21.4045 23.448 21.5221 23.5189L23.4688 24.6958C23.6537 24.8074 23.6537 25.0868 23.4688 25.1986L21.5217 26.3755C21.4044 26.4464 21.3476 26.5956 21.3927 26.7294C22.0937 28.8041 23.9824 30.2908 26.2042 30.2908C29.1052 30.2908 31.4409 27.757 31.3024 24.6879C31.1865 22.1213 28.959 19.7619 26.509 19.6127Z" fill="#0D2F5F"/>
</svg>
