<svg width="50" height="50" viewBox="0 0 50 50" fill="none" xmlns="http://www.w3.org/2000/svg">
<rect width="50" height="50" fill="black"/>
<path fill-rule="evenodd" clip-rule="evenodd" d="M40 33.9968L25 43L10 33.9968V16.0032L25 7L39.9938 16.0032V33.9968H40ZM17.8293 29.7382L12.4374 26.5474V18.9829L23.7813 25.7865V39.3488L17.8293 35.7744V29.7382ZM32.2076 35.7552L26.2187 39.3488V25.7993L37.5626 18.9893V26.573L32.2076 29.7382V35.7552ZM19.2142 13.3943L24.9877 16.8409L30.7796 13.3879L36.4054 16.7641L25.0062 23.5996L13.6069 16.7577L19.2142 13.3943Z" fill="white"/>
<path fill-rule="evenodd" clip-rule="evenodd" d="M40 33.9968L25 43L10 33.9968V16.0032L25 7L39.9938 16.0032V33.9968H40ZM19.2142 13.3943L24.9877 16.8409L30.7796 13.3879L36.4054 16.7641L25.0062 23.5996L13.6069 16.7577L19.2142 13.3943ZM12.4374 26.5474L17.8293 29.7382V35.7744L23.7813 39.3488V25.7865L12.4374 18.9829V26.5474ZM32.2076 35.7552L26.2187 39.3488V25.7993L37.5626 18.9893V26.573L32.2076 29.7382V35.7552Z" fill="white"/>
</svg>
