<svg width="50" height="50" viewBox="0 0 50 50" fill="none" xmlns="http://www.w3.org/2000/svg">
<path d="M10.7132 28.1083C10.7132 23.8599 12.7763 20.264 17.5426 20.264C19.8412 20.264 21.6613 21.167 22.8756 22.5992C22.9694 22.7228 23.0011 22.9094 22.8433 23.0336L20.833 24.7459C20.6727 24.8713 20.5136 24.8401 20.3849 24.6847C19.6181 23.8447 18.8202 23.3767 17.5432 23.3767C14.8075 23.3767 14.3516 25.9258 14.3516 28.1089C14.3516 30.3008 14.7937 32.8392 17.5432 32.8392C18.8202 32.8392 19.6181 32.3718 20.3849 31.5336C20.5136 31.3758 20.6727 31.3758 20.833 31.5006L22.8433 33.213C23.0011 33.3372 22.9694 33.4932 22.8756 33.6492C21.6619 35.0508 19.8418 35.9526 17.5426 35.9526C12.7776 35.9507 10.7132 32.3565 10.7132 28.1083Z" fill="#204156"/>
<path d="M33.4721 39.8536V42.6898C33.4721 42.8764 33.6001 43 33.7921 43H44.6769C44.8714 43 45 42.8758 45 42.6898V39.8536C45 39.6695 44.8714 39.5453 44.6769 39.5453H33.7921C33.6001 39.5453 33.4721 39.6695 33.4721 39.8536Z" fill="#204156"/>
<path d="M29.5782 7H4.32065C4.13671 7 4 7.1368 4 7.309V42.688C4 42.8718 4.11984 42.997 4.32065 42.997H29.5776C29.7682 42.997 29.8976 42.8746 29.8976 42.6874V7.309C29.8976 7.13029 29.7553 7 29.5782 7ZM7.89381 39.5441C7.70296 39.5441 7.57773 39.4205 7.57688 39.2381V10.7619C7.57688 10.5867 7.72407 10.4541 7.89505 10.4541H26.0019C26.1731 10.4541 26.3201 10.5872 26.3201 10.7625V39.2387C26.3193 39.4153 26.1879 39.5453 26.0044 39.5453H7.89381V39.5441Z" fill="#204156"/>
</svg>
