<svg width="50" height="50" viewBox="0 0 50 50" fill="none" xmlns="http://www.w3.org/2000/svg">
<rect width="50" height="50" fill="#204156"/>
<path d="M12.7308 27.1766C12.7308 23.5182 14.4919 20.4218 18.5607 20.4218C20.523 20.4218 22.0767 21.1993 23.1133 22.4326C23.1934 22.539 23.2205 22.6997 23.0857 22.8067L21.3696 24.2812C21.2328 24.3892 21.0969 24.3623 20.9871 24.2285C20.3325 23.5052 19.6514 23.1022 18.5613 23.1022C16.226 23.1022 15.8367 25.2972 15.8367 27.1771C15.8367 29.0646 16.2142 31.2504 18.5613 31.2504C19.6514 31.2504 20.3325 30.8479 20.9871 30.1262C21.0969 29.9903 21.2328 29.9903 21.3696 30.0978L23.0857 31.5723C23.2205 31.6792 23.1934 31.8136 23.1133 31.9479C22.0773 33.1548 20.5235 33.9314 18.5607 33.9314C14.493 33.9298 12.7308 30.8348 12.7308 27.1766Z" fill="white"/>
<path d="M32.1591 37.2906V39.7329C32.1591 39.8936 32.2684 40 32.4323 40H41.7242C41.8902 40 42 39.8931 42 39.7329V37.2906C42 37.132 41.8902 37.0251 41.7242 37.0251H32.4323C32.2684 37.0251 32.1591 37.132 32.1591 37.2906Z" fill="white"/>
<path d="M28.8351 9H7.27373C7.1167 9 7 9.1178 7 9.26608V39.7314C7 39.8896 7.1023 39.9975 7.27373 39.9975H28.8345C28.9973 39.9975 29.1077 39.892 29.1077 39.7309V9.26608C29.1077 9.11219 28.9862 9 28.8351 9ZM10.324 37.0241C10.1611 37.0241 10.0542 36.9176 10.0534 36.7606V12.2394C10.0534 12.0885 10.1791 11.9744 10.325 11.9744H25.7822C25.9283 11.9744 26.0538 12.089 26.0538 12.24V36.7611C26.0531 36.9132 25.9409 37.0251 25.7843 37.0251H10.324V37.0241Z" fill="white"/>
</svg>
