<svg width="50" height="50" viewBox="0 0 50 50" fill="none" xmlns="http://www.w3.org/2000/svg">
<path d="M15.528 11.2375C14.4033 16.1871 11.7189 20.5671 8 23.8654L8.06943 15.5L15.528 11.2375Z" fill="#DF5D35"/>
<path fill-rule="evenodd" clip-rule="evenodd" d="M21.9916 7.65699L25 6L28.0084 7.65699C28.5592 17.4747 33.9779 26.034 41.9583 31.0938L41.9306 34.5L39.6754 35.7893C35.4543 33.6774 30.6663 32.4848 25.5924 32.4848C20.2663 32.4848 15.2573 33.7983 10.8869 36.1098L8.06943 34.5L8.04166 31.0938C16.0221 26.034 21.4408 17.4747 21.9916 7.65699ZM29.618 27.5909L25 19.8182L20.382 27.5909H29.618Z" fill="#DF5D35"/>
<path d="M33.3033 39.426L25 44L17.1433 39.6723C19.7815 38.7468 22.6268 38.2424 25.5924 38.2424C28.2838 38.2424 30.8757 38.6579 33.3033 39.426Z" fill="#DF5D35"/>
<path d="M34.472 11.2375L41.9306 15.5L42 23.8654C38.2811 20.5671 35.5967 16.1871 34.472 11.2375Z" fill="#DF5D35"/>
</svg>
