<svg width="50" height="50" viewBox="0 0 50 50" fill="none" xmlns="http://www.w3.org/2000/svg">
<path fill-rule="evenodd" clip-rule="evenodd" d="M42 34.9964L25 45L8 34.9964V15.0036L25 5L41.993 15.0036V34.9964H42ZM16.8732 30.2647L10.7624 26.7194V18.3144L23.6188 25.8739V40.9432L16.8732 36.9716V30.2647ZM33.1686 36.9503L26.3812 40.9432V25.8881L39.2376 18.3215V26.7478L33.1686 30.2647V36.9503ZM18.4428 12.1048L24.986 15.9343L31.5503 12.0977L37.9261 15.849L25.007 23.444L12.0878 15.8419L18.4428 12.1048Z" fill="black"/>
<path fill-rule="evenodd" clip-rule="evenodd" d="M42 34.9964L25 45L8 34.9964V15.0036L25 5L41.993 15.0036V34.9964H42ZM18.4428 12.1048L24.986 15.9343L31.5503 12.0977L37.9261 15.849L25.007 23.444L12.0878 15.8419L18.4428 12.1048ZM10.7624 26.7194L16.8732 30.2647V36.9716L23.6188 40.9432V25.8739L10.7624 18.3144V26.7194ZM33.1686 36.9503L26.3812 40.9432V25.8881L39.2376 18.3215V26.7478L33.1686 30.2647V36.9503Z" fill="black"/>
</svg>
