<svg width="50" height="50" viewBox="0 0 50 50" fill="none" xmlns="http://www.w3.org/2000/svg">
<path d="M18.3368 18.8461C20.0168 15.0245 23.5705 12.0974 27.6971 11.3467C34.3309 10.1493 41.0836 14.3371 42.6265 20.9691C44.346 28.3925 39.6206 36.5506 31.7489 37.397C26.1458 38.0634 20.6025 34.9583 18.3475 29.7776C21.9642 26.6679 21.8151 22.0901 18.3368 18.8461ZM33.8817 26.7796V21.892H32.5995V24.9097C31.9067 23.9828 31.2814 23.0033 30.6206 22.0535C30.5736 21.9837 30.4966 21.8877 30.4282 21.8833C30.0564 21.868 29.6824 21.8833 29.302 21.8833V26.7709H30.6163V23.8231C31.2916 24.7175 31.9097 25.6566 32.5589 26.5701C32.6161 26.6621 32.7043 26.7296 32.8068 26.76C33.153 26.7796 33.5077 26.7796 33.8817 26.7796ZM34.2749 25.1584C34.2339 25.4374 34.2813 25.7225 34.4101 25.9721C34.5388 26.2217 34.7423 26.4228 34.9908 26.5461C35.9066 27.0049 37.147 27.0391 38.0126 26.437C38.6431 26.0007 38.7948 24.8355 37.9528 24.3664C37.5519 24.1398 35.8197 23.7147 35.88 23.1902C35.9254 22.7947 36.6834 22.6696 36.8373 23.0397C36.9633 23.343 37.1322 23.3299 37.363 23.3147C37.7312 23.3147 38.0995 23.3147 38.4678 23.3147C38.4918 22.9097 38.3083 22.5032 37.9913 22.2586C37.1621 21.604 35.6726 21.6237 34.8519 22.2848C34.1211 22.8761 34.1681 23.7816 34.9823 24.2485C35.3324 24.424 35.6928 24.577 36.0615 24.7068C36.3022 24.7935 36.5377 24.8948 36.7667 25.01C37.2192 25.2681 36.8978 25.7882 36.4866 25.8237C36.0852 25.8583 35.8483 25.5258 35.7751 25.165L34.2749 25.1584ZM42.2098 25.6734C41.6506 25.6734 41.0914 25.6734 40.5322 25.6734C40.4724 25.6734 40.3655 25.6079 40.3634 25.5664C40.3463 25.333 40.3634 25.0973 40.3634 24.8311H42.1585V23.7402H40.3634C40.372 23.5817 40.372 23.4229 40.3634 23.2645C40.3399 23.0463 40.4125 22.9743 40.6348 22.9808C41.1584 22.9983 41.6841 22.9808 42.2162 22.9808V21.8899H38.9038V26.7731H42.2226L42.2098 25.6734ZM28.7656 21.8833H25.4532V26.7534H28.7656V25.6625H26.9299V24.8159H28.7079V23.7249H26.9256V22.9765H28.7656V21.8833Z" fill="#D82931"/>
<path d="M21.0724 25.5206C20.7803 27.3192 19.6966 28.6215 18.352 29.7776C16.999 30.6402 15.4093 31.0509 13.8105 30.805C10.1314 30.2391 7.67255 26.4207 8.5187 22.7978C9.13779 20.1471 11.4201 18.0568 14.1569 17.79C15.5552 17.6447 16.9609 17.9803 18.1511 18.7435C18.7152 19.0891 19.2329 19.6042 19.6727 20.0985C20.2825 20.7898 21.3519 22.4243 21.081 23.45C21.0639 23.4325 21.0361 23.4172 21.0275 23.3954C20.6172 22.4136 19.6304 21.7495 18.5614 21.7764C17.489 21.7344 16.4965 22.4071 16.1038 23.3998C16.0751 23.4627 16.043 23.5239 16.0076 23.5831C15.5025 22.4345 14.4269 21.5939 13.1055 21.7917C11.6846 21.9313 10.6566 23.3286 10.8808 24.7373C11.083 25.8595 12.0235 26.7545 13.1675 26.8516C14.4718 27.0199 15.473 26.1957 15.9862 25.0602C16.1252 25.4677 16.36 25.8341 16.6701 26.1272C17.8733 27.2444 20.1791 27.2182 21.0297 25.2435L21.0724 25.5206Z" fill="#0F2639"/>
<path d="M15.9433 23.7249C15.5886 23.7249 15.2189 23.7249 14.8513 23.7249C14.7365 23.7393 14.619 23.6686 14.5756 23.5591C14.3481 23.1037 13.8403 22.8234 13.3425 22.8783C12.8493 22.9028 12.3944 23.2462 12.227 23.7205C11.9397 24.4074 12.2061 25.2371 12.8553 25.6101C13.4964 25.9439 14.1632 25.7214 14.6034 25.0472C14.6591 24.9773 14.7439 24.9336 14.8321 24.9293C15.2039 24.9163 15.5779 24.9293 15.9433 24.9293V23.7249Z" fill="#FBFBFB"/>
<path d="M28.7656 21.8833L28.7656 22.9743H26.9256V23.7249H28.7079V24.8159H26.9299L26.9299 25.6668H28.7656V26.7578H25.4532L25.4532 21.8833H28.7656Z" fill="#FEFAFA"/>
<path d="M24.9189 21.879V22.9569H23.1452V23.7926H24.8548V24.8945H23.1452V26.7513H21.6749V21.879H24.9189Z" fill="#FDFAFA"/>
<path d="M15.9433 23.7249V24.9293C15.5779 24.9293 15.2039 24.9293 14.8321 24.9293C14.7439 24.9336 14.6591 24.9773 14.6034 25.0472C14.1632 25.7214 13.4879 25.9439 12.8553 25.6101C12.2061 25.2371 11.9397 24.4074 12.227 23.7205C12.3944 23.2462 12.8493 22.9028 13.3425 22.8783C13.8403 22.8234 14.3481 23.1037 14.5756 23.5591C14.619 23.6686 14.7365 23.7393 14.8513 23.7249C15.2082 23.7249 15.5779 23.7249 15.9433 23.7249Z" fill="#11273A"/>
<path d="M19.899 24.314C19.9389 25.0669 19.3221 25.7652 18.5505 25.7628C17.6418 25.8103 16.9339 24.9496 17.0759 24.0762C17.1689 23.5037 17.6188 23.0203 18.1741 22.8963C19.0623 22.6979 19.8992 23.4293 19.899 24.314Z" fill="#D72B33"/>
</svg>
