<svg width="50" height="50" viewBox="0 0 50 50" fill="none" xmlns="http://www.w3.org/2000/svg">
<path d="M29.0821 41H13.923C12.9262 41 12.1182 40.2354 12.1182 39.2917C12.1182 38.3484 12.9262 37.5838 13.923 37.5838H29.0821C33.663 37.5838 37.3898 34.0568 37.3898 29.7227C37.3898 25.388 33.663 21.8615 29.0821 21.8615H22.3484C21.351 21.8615 20.543 21.0969 20.543 20.1532C20.543 19.2099 21.351 18.4453 22.3484 18.4453H29.0821C35.6538 18.4453 41.0001 23.5042 41.0001 29.7227C41.0001 35.9411 35.6538 41 29.0821 41Z" fill="#96C93D"/>
<path d="M27.6522 31.5547H20.9179C14.3468 31.5547 9 26.4958 9 20.2773C9 14.0589 14.3468 9 20.9179 9H36.0771C37.0745 9 37.8825 9.76459 37.8825 10.7078C37.8825 11.6516 37.0745 12.4162 36.0771 12.4162H20.9179C16.3376 12.4162 12.6108 15.9427 12.6108 20.2773C12.6108 24.6115 16.3376 28.1385 20.9179 28.1385H27.6522C28.6491 28.1385 29.4576 28.9031 29.4576 29.8463C29.4576 30.7901 28.6491 31.5547 27.6522 31.5547Z" fill="#96C93D"/>
</svg>
