<svg width="50" height="50" viewBox="0 0 50 50" fill="none" xmlns="http://www.w3.org/2000/svg">
<path d="M25.2394 10.143C26.0079 9.9598 26.4838 9.18199 26.3024 8.40572C26.1211 7.62946 25.351 7.1487 24.5826 7.33191C23.8141 7.51513 23.3381 8.29294 23.5195 9.0692C23.7009 9.84547 24.4709 10.3262 25.2394 10.143Z" fill="#72BF00"/>
<path d="M25.2369 42.6684C26.0054 42.4852 26.4814 41.7074 26.3 40.9311C26.1186 40.1549 25.3486 39.6741 24.5801 39.8573C23.8116 40.0405 23.3357 40.8184 23.5171 41.5946C23.6984 42.3709 24.4685 42.8516 25.2369 42.6684Z" fill="#72BF00"/>
<path d="M37.2562 14.5641C37.8145 14.0002 37.8145 13.0858 37.2562 12.5218C36.6978 11.9578 35.7926 11.9578 35.2343 12.5218C34.6759 13.0858 34.6759 14.0002 35.2343 14.5641C35.7926 15.1281 36.6978 15.1281 37.2562 14.5641Z" fill="#72BF00"/>
<path d="M36.5704 37.8778C37.3389 37.6945 37.8149 36.9167 37.6335 36.1405C37.4521 35.3642 36.6821 34.8834 35.9136 35.0667C35.1451 35.2499 34.6692 36.0277 34.8506 36.8039C35.0319 37.5802 35.802 38.061 36.5704 37.8778Z" fill="#72BF00"/>
<path d="M14.4852 37.491C15.0435 36.927 15.0435 36.0126 14.4852 35.4487C13.9268 34.8847 13.0216 34.8847 12.4633 35.4487C11.9049 36.0126 11.9049 36.927 12.4633 37.491C13.0216 38.055 13.9268 38.055 14.4852 37.491Z" fill="#72BF00"/>
<path d="M9.04847 26.4294C9.81695 26.2462 10.2929 25.4684 10.1115 24.6921C9.93013 23.9159 9.16012 23.4351 8.39164 23.6183C7.62316 23.8015 7.14722 24.5794 7.32859 25.3556C7.50997 26.1319 8.27999 26.6126 9.04847 26.4294Z" fill="#72BF00"/>
<path d="M41.9891 26.0468C42.5474 25.4828 42.5474 24.5684 41.9891 24.0044C41.4307 23.4404 40.5255 23.4404 39.9672 24.0044C39.4088 24.5684 39.4088 25.4828 39.9672 26.0468C40.5255 26.6108 41.4307 26.6108 41.9891 26.0468Z" fill="#72BF00"/>
<path d="M14.4866 14.5245C15.045 13.9605 15.045 13.0461 14.4866 12.4821C13.9283 11.9181 13.0231 11.9181 12.4647 12.4821C11.9064 13.0461 11.9064 13.9605 12.4647 14.5245C13.0231 15.0885 13.9283 15.0885 14.4866 14.5245Z" fill="#72BF00"/>
<path d="M24.9118 12.095C24.1271 12.095 23.477 12.7764 23.4821 13.5489V19.3158C23.4821 20.0963 24.127 20.76 24.9118 20.76C25.6966 20.76 26.3415 20.0963 26.3415 19.3158V13.5239C26.3334 12.7492 25.6908 12.095 24.9118 12.095Z" fill="#72BF00"/>
<path d="M24.9118 29.2894C24.1301 29.2878 23.4806 29.964 23.4821 30.7335V36.5282C23.4821 37.3086 24.127 37.9724 24.9118 37.9724C25.6966 37.9724 26.3415 37.3087 26.3415 36.5282V30.7335C26.343 29.9563 25.6851 29.2879 24.9118 29.2894Z" fill="#72BF00"/>
<path d="M22.0565 23.5817H13.4728C12.6881 23.5817 12.0431 24.2455 12.0431 25.0259C12.0431 25.8064 12.6881 26.4701 13.4728 26.4701H22.0524C22.8371 26.4701 23.482 25.8064 23.482 25.0259C23.482 24.2455 22.8371 23.5817 22.0524 23.5817H22.0565Z" fill="#72BF00"/>
<path d="M36.3548 26.4701C37.1396 26.4701 37.7845 25.8064 37.7845 25.0259C37.7845 24.2455 37.1396 23.5817 36.3548 23.5817H27.7712C26.9864 23.5817 26.3415 24.2455 26.3415 25.0259C26.3415 25.8064 26.9864 26.4701 27.7712 26.4701H36.3548Z" fill="#72BF00"/>
<path d="M30.6332 20.7658C31.4159 20.7673 32.0658 20.0894 32.0629 19.3188V9.77317C32.0976 8.97212 31.4292 8.26295 30.6318 8.26295C29.8252 8.26295 29.1664 8.98069 29.2008 9.77317V19.3188C29.2008 20.0965 29.8594 20.7645 30.6332 20.763V20.7658Z" fill="#72BF00"/>
<path d="M19.1558 29.2894C18.3742 29.2878 17.7247 29.964 17.7262 30.7335V40.2805C17.6914 41.0816 18.3599 41.7908 19.1572 41.7908C19.9639 41.7908 20.6226 41.073 20.5883 40.2805V30.7335C20.5883 29.9558 19.9296 29.2879 19.1558 29.2894Z" fill="#72BF00"/>
<path d="M9.74966 20.6808H19.1955C19.957 20.6471 20.5653 19.9936 20.5653 19.2352C20.5653 18.4769 19.957 17.8234 19.1955 17.7897H9.74966C8.95315 17.7545 8.25457 18.4335 8.25457 19.2352C8.25457 20.0284 8.94384 20.7164 9.74966 20.6808Z" fill="#72BF00"/>
<path d="M41.0579 29.3351H31.6066C30.8218 29.3351 30.1769 29.9989 30.1769 30.7793C30.1769 31.5598 30.8218 32.2235 31.6066 32.2235H41.0579C41.8427 32.2235 42.4876 31.5598 42.4876 30.7793C42.4876 29.9988 41.8427 29.3351 41.0579 29.3351Z" fill="#72BF00"/>
<path d="M19.1957 14.9877C19.9758 14.9892 20.6247 14.3157 20.6254 13.5477V9.77317C20.6601 8.97212 19.9917 8.26295 19.1943 8.26295C18.3877 8.26295 17.7289 8.9807 17.7633 9.77317V13.5477C17.7633 14.3254 18.4219 14.9933 19.1957 14.9918V14.9877Z" fill="#72BF00"/>
<path d="M13.4746 32.2227C14.236 32.189 14.8443 31.5355 14.8443 30.7772C14.8443 30.0188 14.236 29.3653 13.4746 29.3316H9.75161C8.9551 29.2964 8.25653 29.9754 8.25653 30.7772C8.25653 31.5703 8.9458 32.2584 9.75161 32.2227H13.4746Z" fill="#72BF00"/>
<path d="M36.2399 20.7183H39.9725C40.7573 20.7183 41.4022 20.0546 41.4022 19.2742C41.4022 18.4937 40.7573 17.83 39.9725 17.83H36.2399C35.4551 17.83 34.8102 18.4937 34.8102 19.2742C34.8102 20.0546 35.4551 20.7183 36.2399 20.7183Z" fill="#72BF00"/>
<path d="M30.6348 35.0272C29.8495 35.0272 29.2038 35.6905 29.2023 36.4714V40.2487C29.2352 41.0062 29.8712 41.6323 30.6334 41.6323C31.3955 41.6323 32.0316 41.0062 32.0644 40.2487V36.4714C32.0644 35.6909 31.4196 35.0272 30.6348 35.0272Z" fill="#72BF00"/>
</svg>
