<svg width="50" height="50" viewBox="0 0 50 50" fill="none" xmlns="http://www.w3.org/2000/svg">
<path fill-rule="evenodd" clip-rule="evenodd" d="M18.2121 25.6884C18.1459 29.6819 21.4251 33.0777 25.4184 33.1512C27.7084 33.1412 29.9015 31.9952 31.2174 30.1211L43.2492 31.1771C44.2084 27.7051 44.2487 24.0434 43.3663 20.5511L31.2174 21.2556C29.9015 19.3805 27.7077 18.2339 25.4169 18.224C21.4235 18.2983 18.1451 21.6949 18.2121 25.6884Z" fill="#FF0010"/>
<path fill-rule="evenodd" clip-rule="evenodd" d="M6 22.3347H12.5288C13.132 19.5438 14.6715 17.0431 16.8917 15.2476C20.92 11.99 26.7199 11.5663 31.1558 14.2418L39.9232 13.6766C35.4053 7.55726 27.4184 4.70977 20.0482 6.59083C12.6781 8.47189 7.03264 14.7987 6 22.3347ZM6.18997 28.7859C6.90238 32.3785 8.64356 35.6866 11.2017 38.3077C16.374 43.6074 24.3962 45.402 31.3336 42.8114C34.7647 41.5301 37.7495 39.2793 39.9247 36.3327L31.1954 35.7422C26.2515 38.7418 19.6345 37.8624 15.649 33.629C14.351 32.2503 13.3841 30.594 12.8217 28.7859H6.18997Z" fill="#FF0010"/>
</svg>
