<svg width="50" height="50" viewBox="0 0 50 50" fill="none" xmlns="http://www.w3.org/2000/svg">
<path d="M29.7948 25.2625L38.9992 16.0906V13.0702L27.5299 24.5103C27.1126 24.9264 27.1126 25.5998 27.5299 26.0148L35.9616 34.4194H38.981L29.7948 25.2625Z" fill="black"/>
<path d="M23.98 22.4756C24.1807 22.6756 24.4518 22.7873 24.7346 22.7873C25.0174 22.7873 25.2896 22.6756 25.4892 22.4756L39 9.00979V6L24.7346 20.218L21.2253 16.7199H18.207L23.98 22.4745V22.4756Z" fill="black"/>
<path d="M19.6739 25.2633L11 33.9097V36.9183L21.9376 26.0156C22.3549 25.5995 22.3549 24.9261 21.9376 24.5111L14.1229 16.7202H11.1046L19.6739 25.2623V25.2633Z" fill="black"/>
<path d="M31.8752 34.4163L25.4896 28.0511C25.0723 27.6361 24.3967 27.6361 23.9804 28.0511L11 40.9902V44L24.735 30.3086L28.86 34.4205H31.872L31.8752 34.4174V34.4163Z" fill="black"/>
</svg>
