<svg width="50" height="50" viewBox="0 0 50 50" fill="none" xmlns="http://www.w3.org/2000/svg">
<rect width="50" height="50" fill="black"/>
<path d="M28.4249 18.1935L34.9994 11.4352V9.20962L26.8071 17.6392C26.509 17.9457 26.509 18.4419 26.8071 18.7477L32.8297 24.9406H34.9864L28.4249 18.1935Z" fill="white"/>
<path d="M24.2715 16.1399C24.4148 16.2873 24.6084 16.3696 24.8104 16.3696C25.0125 16.3696 25.2069 16.2873 25.3494 16.1399L35 6.21774V4L24.8104 14.4764L22.3038 11.8989H20.1479L24.2715 16.1391V16.1399Z" fill="white"/>
<path d="M21.1957 18.194L15 24.5651V26.7819L22.8126 18.7483C23.1107 18.4417 23.1107 17.9455 22.8126 17.6398L17.2306 11.8991H15.0747L21.1957 18.1933V18.194Z" fill="white"/>
<path d="M29.9109 24.9383L25.3497 20.2482C25.0516 19.9424 24.5691 19.9424 24.2717 20.2482L15 29.7823V32L24.8107 21.9116L27.7572 24.9415H29.9086L29.9109 24.9391V24.9383Z" fill="white"/>
<path d="M33 37.8022V39.1378C33 39.8557 32.9311 40.4613 32.7933 40.9546C32.6555 41.4479 32.4574 41.8449 32.1991 42.1457C31.9407 42.4465 31.6285 42.6651 31.2625 42.8015C30.9008 42.9338 30.4918 43 30.0353 43C29.6736 43 29.3399 42.9579 29.0342 42.8737C28.7285 42.7894 28.4529 42.6551 28.2075 42.4706C27.9663 42.2821 27.7596 42.0375 27.5874 41.7367C27.4152 41.4359 27.2838 41.0709 27.1934 40.6418C27.103 40.2126 27.0578 39.7113 27.0578 39.1378V37.8022C27.0578 37.0843 27.1267 36.4827 27.2645 35.9975C27.4065 35.5122 27.6068 35.1231 27.8651 34.8304C28.1235 34.5336 28.4335 34.321 28.7952 34.1927C29.1612 34.0643 29.5703 34.0002 30.0224 34.0002C30.3884 34.0002 30.7243 34.0423 31.03 34.1265C31.34 34.2067 31.6156 34.3371 31.8568 34.5175C32.0979 34.694 32.3024 34.9306 32.4704 35.2274C32.6426 35.5202 32.7739 35.8791 32.8644 36.3043C32.9548 36.7294 33 37.2287 33 37.8022ZM31.7986 39.3183V37.6157C31.7986 37.2227 31.7728 36.8778 31.7211 36.581C31.6738 36.2802 31.6027 36.0235 31.508 35.811C31.4133 35.5984 31.2927 35.4259 31.1463 35.2936C31.0042 35.1612 30.8384 35.065 30.6489 35.0048C30.4638 34.9407 30.2549 34.9086 30.0224 34.9086C29.7382 34.9086 29.4863 34.9587 29.2667 35.059C29.0471 35.1552 28.862 35.3096 28.7113 35.5222C28.5649 35.7348 28.4529 36.0135 28.3754 36.3584C28.2979 36.7033 28.2591 37.1224 28.2591 37.6157V39.3183C28.2591 39.7113 28.2828 40.0582 28.3302 40.359C28.3818 40.6598 28.4572 40.9205 28.5562 41.1411C28.6553 41.3577 28.7758 41.5361 28.9179 41.6765C29.06 41.8169 29.2237 41.9211 29.4088 41.9893C29.5983 42.0535 29.8071 42.0856 30.0353 42.0856C30.3281 42.0856 30.5844 42.0334 30.804 41.9292C31.0236 41.8249 31.2066 41.6625 31.353 41.4419C31.5037 41.2173 31.6156 40.9305 31.6888 40.5816C31.762 40.2287 31.7986 39.8075 31.7986 39.3183Z" fill="white"/>
<path d="M23.7576 42.2903C23.7576 42.1018 23.82 41.9434 23.9449 41.8151C24.0741 41.6827 24.2592 41.6166 24.5004 41.6166C24.7415 41.6166 24.9245 41.6827 25.0494 41.8151C25.1786 41.9434 25.2432 42.1018 25.2432 42.2903C25.2432 42.4748 25.1786 42.6313 25.0494 42.7596C24.9245 42.8879 24.7415 42.9521 24.5004 42.9521C24.2592 42.9521 24.0741 42.8879 23.9449 42.7596C23.82 42.6313 23.7576 42.4748 23.7576 42.2903Z" fill="white"/>
<path d="M17.9118 37.9525H18.7644C19.1821 37.9525 19.5266 37.8883 19.7979 37.76C20.0734 37.6276 20.278 37.4491 20.4115 37.2245C20.5493 36.9959 20.6182 36.7393 20.6182 36.4545C20.6182 36.1176 20.5579 35.8349 20.4373 35.6063C20.3167 35.3776 20.1359 35.2052 19.8947 35.0889C19.6536 34.9726 19.3479 34.9144 18.9776 34.9144C18.6417 34.9144 18.3446 34.9766 18.0862 35.1009C17.8322 35.2212 17.632 35.3937 17.4856 35.6183C17.3435 35.8429 17.2724 36.1076 17.2724 36.4124H16.0775C16.0775 35.9672 16.1981 35.5621 16.4392 35.1972C16.6803 34.8322 17.0184 34.5414 17.4533 34.3249C17.8925 34.1083 18.4006 34 18.9776 34C19.546 34 20.0433 34.0942 20.4696 34.2827C20.8959 34.4672 21.2274 34.744 21.4643 35.1129C21.7011 35.4779 21.8195 35.9331 21.8195 36.4786C21.8195 36.6991 21.7635 36.9358 21.6516 37.1884C21.5439 37.4371 21.3738 37.6697 21.1413 37.8863C20.9131 38.1029 20.616 38.2813 20.25 38.4217C19.884 38.5581 19.4448 38.6262 18.9324 38.6262H17.9118V37.9525ZM17.9118 38.8669V38.1991H18.9324C19.5309 38.1991 20.0261 38.2653 20.4179 38.3976C20.8098 38.53 21.1176 38.7065 21.3416 38.927C21.5698 39.1476 21.7291 39.3903 21.8195 39.655C21.9142 39.9157 21.9616 40.1764 21.9616 40.437C21.9616 40.8461 21.8863 41.2091 21.7355 41.5259C21.5891 41.8428 21.3803 42.1115 21.109 42.3321C20.8421 42.5526 20.5277 42.7191 20.166 42.8314C19.8043 42.9437 19.4103 42.9998 18.984 42.9998C18.575 42.9998 18.1896 42.9457 17.8279 42.8374C17.4705 42.7291 17.154 42.5727 16.8784 42.3682C16.6028 42.1596 16.3875 41.9049 16.2325 41.6041C16.0775 41.2993 16 40.9524 16 40.5634H17.1949C17.1949 40.8682 17.266 41.1349 17.4081 41.3635C17.5545 41.5921 17.7611 41.7706 18.0281 41.8989C18.2994 42.0232 18.618 42.0854 18.984 42.0854C19.35 42.0854 19.6644 42.0273 19.927 41.9109C20.194 41.7906 20.3985 41.6101 20.5406 41.3695C20.687 41.1289 20.7602 40.8261 20.7602 40.4611C20.7602 40.0961 20.6784 39.7973 20.5148 39.5647C20.3512 39.3281 20.1187 39.1536 19.8172 39.0413C19.5201 38.925 19.1692 38.8669 18.7644 38.8669H17.9118Z" fill="white"/>
</svg>
