<svg width="50" height="50" viewBox="0 0 50 50" fill="none" xmlns="http://www.w3.org/2000/svg">
<path d="M25.0001 7L9.31152 16.1683V33.8183L25.0001 43L40.6887 33.8183V16.1683L25.0001 7ZM37.9787 32.2431L25.0001 39.8362L12.0215 32.2431V17.7569L25.0001 10.1638L37.9787 17.7569V32.2431Z" fill="#FF4A6A"/>
<path d="M24.0702 36.1741C24.0702 36.3087 23.924 36.3895 23.8045 36.3222L14.6783 30.9774C14.5189 30.8832 14.4126 30.7081 14.4126 30.5197V20.1801C14.4126 20.0455 14.5587 19.9647 14.6783 20.032L23.8045 25.3768C23.9639 25.471 24.0702 25.6461 24.0702 25.8346V36.1741Z" fill="#FF4A6A"/>
<path d="M34.1657 18.6185L25.4247 23.7344C25.2122 23.8556 24.9465 23.8556 24.7339 23.7344L15.993 18.6185C15.8734 18.5512 15.8734 18.3762 15.993 18.3089L24.7339 13.1929C24.9465 13.0718 25.2122 13.0718 25.4247 13.1929L34.1657 18.3089C34.2719 18.3896 34.2719 18.5512 34.1657 18.6185Z" fill="#FF4A6A"/>
<path d="M34.166 31.6909L26.2354 36.3222C26.1159 36.3895 25.9697 36.3087 25.9697 36.1741V26.8981C25.9697 26.7635 26.1159 26.6827 26.2354 26.75L34.166 31.3813C34.2723 31.4486 34.2723 31.6102 34.166 31.6909Z" fill="#FF4A6A"/>
</svg>
