<svg width="50" height="50" viewBox="0 0 50 50" fill="none" xmlns="http://www.w3.org/2000/svg">
<path d="M40.9977 22.0273C39.0796 22.0273 37.1849 22.0273 35.2676 22.0273C35.2676 19.5966 35.2676 17.1779 35.2676 14.7331C34.2836 14.7331 33.3219 14.7331 32.3529 14.7331C32.3529 12.8132 32.3529 10.9196 32.3529 9C35.2344 9 38.1159 9.00009 40.9974 9.00009C40.9974 13.3425 40.9977 17.6849 40.9977 22.0273Z" fill="#00D2AA"/>
<path d="M24.1688 35.2148C29.4548 35.6156 34.156 31.8984 35.1196 26.6838C35.2207 26.1368 35.2469 25.576 35.3096 25.0042C37.1787 25.0042 39.0742 25.0042 40.9902 25.0042C40.9902 26.9422 40.6868 28.8856 39.952 30.6878C37.799 35.969 33.965 39.379 28.3827 40.5933C19.7868 42.4631 10.9111 36.7857 9.30854 28.0816C7.53 18.4217 14.903 9.00807 24.8852 9.00659C26.3999 9.00637 27.9146 9.0065 29.4293 9.0065C29.4293 10.9187 29.4293 12.8131 29.4293 14.7368C27.9913 14.7368 26.5534 14.7332 25.1154 14.7375C20.0081 14.753 15.4722 18.5267 14.8419 23.6469C14.1279 29.4468 18.3736 34.6576 24.1688 35.2148Z" fill="#642AFF"/>
</svg>
