<svg width="50" height="50" viewBox="0 0 50 50" fill="none" xmlns="http://www.w3.org/2000/svg">
<rect width="50" height="50" fill="#173361"/>
<path d="M24.9998 43C17.7967 43 11.1265 38.5431 8.36995 31.8883C4.13337 21.6603 10.5065 9.53023 21.4882 7.34584C32.3461 5.18605 42.9998 13.8032 42.9998 25C42.9886 34.7995 34.7993 42.9888 24.9998 43ZM24.9998 8.68252C14.9635 8.68071 7.0134 18.2257 8.99257 28.1815C10.2658 34.5863 15.4079 39.7293 21.8124 41.0037C31.6557 42.9623 41.3143 35.1506 41.3143 25C41.3047 16.1173 33.8824 8.69369 24.9998 8.68252Z" fill="white"/>
<path d="M36.9998 25.3836V24.6165C33.2495 24.3435 29.4765 24.3108 25.7177 24.2837C25.7177 20.5279 25.6957 16.7485 25.4229 13H24.5768C24.3717 15.8175 24.3155 18.6582 24.3011 21.4818C23.2151 18.8752 22.0587 16.2797 20.7991 13.7512L20.0164 14.0682C20.9101 16.7498 21.9572 19.3831 23.0049 22.008C20.994 20.0293 18.9418 18.0799 16.825 16.214L16.226 16.813C18.0745 18.9475 20.0573 20.9742 22.0256 22.9969C19.4123 21.9169 16.7512 20.912 14.0679 20.0175L13.7509 20.8004C16.2804 22.0608 18.8797 23.1941 21.4805 24.2996C18.6579 24.2996 15.8167 24.3792 12.9998 24.5753V25.4248C16.7517 25.686 20.5257 25.706 24.2852 25.7195C24.2852 29.4745 24.3412 33.2529 24.6148 37H25.3849C25.5923 34.1591 25.6463 31.3028 25.6891 28.4549C26.8091 31.0732 27.9574 33.6946 29.2386 36.2393L29.9453 35.9414C29.0455 33.2416 28.0187 30.5768 26.96 27.9351C28.9909 29.9238 31.0636 31.8814 33.1969 33.7607L33.7578 33.2092C31.8996 31.0545 29.918 28.9973 27.9329 26.9588C30.5707 28.0226 33.239 29.0479 35.9382 29.9477L36.2329 29.2378C33.6884 27.9608 31.0733 26.8145 28.459 25.6878C31.3011 25.6878 34.1641 25.59 36.9998 25.3836Z" fill="white"/>
</svg>
