<svg width="50" height="50" viewBox="0 0 50 50" fill="none" xmlns="http://www.w3.org/2000/svg">
<path d="M24.9998 43.0002C17.7967 43.0002 11.1265 38.5433 8.36995 31.8885C4.13337 21.6605 10.5065 9.53047 21.4882 7.34608C32.3461 5.1863 42.9998 13.8034 42.9998 25.0002C42.9886 34.7998 34.7993 42.989 24.9998 43.0002ZM24.9998 8.68276C14.9635 8.68096 7.0134 18.226 8.99257 28.1818C10.2658 34.5865 15.4079 39.7295 21.8124 41.0039C31.6557 42.9626 41.3143 35.1508 41.3143 25.0002C41.3047 16.1176 33.8824 8.69394 24.9998 8.68276Z" fill="#173361"/>
<path d="M36.9998 25.3838V24.6168C33.2495 24.3438 29.4765 24.311 25.7177 24.284C25.7177 20.5281 25.6957 16.7487 25.4229 13.0003H24.5768C24.3717 15.8178 24.3155 18.6585 24.3011 21.4821C23.2151 18.8754 22.0587 16.28 20.7991 13.7515L20.0164 14.0684C20.9101 16.7501 21.9572 19.3833 23.0049 22.0082C20.994 20.0295 18.9418 18.0801 16.825 16.2142L16.226 16.8133C18.0745 18.9478 20.0573 20.9745 22.0256 22.9971C19.4123 21.9171 16.7512 20.9123 14.0679 20.0177L13.7509 20.8006C16.2804 22.061 18.8797 23.1943 21.4805 24.2998C18.6579 24.2998 15.8167 24.3794 12.9998 24.5756V25.425C16.7517 25.6863 20.5257 25.7063 24.2852 25.7198C24.2852 29.4747 24.3412 33.2531 24.6148 37.0003H25.3849C25.5923 34.1594 25.6463 31.303 25.6891 28.4551C26.8091 31.0735 27.9574 33.6949 29.2386 36.2396L29.9453 35.9417C29.0455 33.2418 28.0187 30.577 26.96 27.9353C28.9909 29.924 31.0636 31.8816 33.1969 33.761L33.7578 33.2095C31.8996 31.0547 29.918 28.9975 27.9329 26.9591C30.5707 28.0229 33.239 29.0482 35.9382 29.948L36.2329 29.238C33.6884 27.9611 31.0733 26.8147 28.459 25.6881C31.3011 25.6881 34.1641 25.5902 36.9998 25.3838Z" fill="#173361"/>
</svg>
