<svg width="50" height="50" viewBox="0 0 50 50" fill="none" xmlns="http://www.w3.org/2000/svg">
<path d="M10.124 32.739C9.8034 33.2618 9.44332 33.8685 9.1375 34.3519C8.8675 34.8082 9.01695 35.4149 9.46798 35.6936L15.8803 39.6397C16.3358 39.9209 16.9702 39.7694 17.2466 39.3042C17.5031 38.8751 17.8336 38.3177 18.1937 37.7209C20.734 33.5282 23.289 34.0412 27.8961 36.2411L34.2542 39.2648C34.7469 39.4993 35.3635 39.2656 35.581 38.7715L38.6343 31.8659C38.8471 31.3795 38.6238 30.7946 38.141 30.5736C36.7994 29.9422 34.1308 28.6844 31.7287 27.5253C23.0868 23.3276 15.7422 23.5989 10.124 32.739Z" fill="url(#paint0_linear_9176_11193)"/>
<path d="M38.8759 17.069C39.1965 16.5462 39.5566 15.9395 39.8624 15.4561C40.1324 14.9998 39.9829 14.3931 39.5319 14.1144L33.1195 10.1683C32.6543 9.85502 31.9906 10.0137 31.7138 10.4939C31.4573 10.923 31.1268 11.4804 30.7667 12.0773C28.2264 16.2699 25.6714 15.757 21.0643 13.557L14.726 10.5482C14.2385 10.3161 13.619 10.5419 13.3991 11.0414L10.3459 17.947C10.1331 18.4335 10.3563 19.0184 10.8391 19.2393C12.1808 19.8707 14.8493 21.1285 17.2515 22.2877C25.9131 26.4804 33.2577 26.1992 38.8759 17.069Z" fill="url(#paint1_linear_9176_11193)"/>
<defs>
<linearGradient id="paint0_linear_9176_11193" x1="39.7307" y1="43.5649" x2="15.0299" y2="36.1704" gradientUnits="userSpaceOnUse">
<stop offset="0.18" stop-color="#0052CC"/>
<stop offset="1" stop-color="#2684FF"/>
</linearGradient>
<linearGradient id="paint1_linear_9176_11193" x1="10.5387" y1="8.1262" x2="29.9435" y2="19.2787" gradientUnits="userSpaceOnUse">
<stop offset="0.18" stop-color="#0052CC"/>
<stop offset="1" stop-color="#2684FF"/>
</linearGradient>
</defs>
</svg>
