<svg width="50" height="50" viewBox="0 0 50 50" fill="none" xmlns="http://www.w3.org/2000/svg">
<rect width="50" height="50" fill="#24336A"/>
<path d="M32.1169 22.0494C30.0953 20.879 27.8227 20.2551 25.4977 20.2551C23.1727 20.2551 20.9028 20.879 18.8785 22.0494C19.6893 22.8879 20.4478 23.8208 21.1511 24.8425C22.3646 26.6053 23.1754 28.2765 23.6608 29.4355L25.4977 26.3248L27.3345 29.4355C27.8199 28.2765 28.628 26.6053 29.8443 24.8425C30.5476 23.8208 31.3088 22.8908 32.1169 22.0494ZM41.3397 18.6812C38.9264 19.1705 36.7366 20.2265 34.7894 21.8262C34.3536 22.1839 33.9317 22.5674 33.5207 22.9795C32.6988 23.8065 31.9238 24.7394 31.2012 25.784C29.1603 28.7344 28.3191 31.4817 28.3108 31.5103C28.2171 31.8222 27.9606 32.0483 27.6489 32.0969C27.6103 32.1027 27.5689 32.1055 27.5303 32.1055C27.26 32.1055 27.0063 31.9682 26.8519 31.7306L25.4977 29.6387L24.1435 31.7306C23.9918 31.9682 23.7353 32.1055 23.465 32.1055C23.4264 32.1055 23.385 32.1027 23.3464 32.0969C23.0348 32.0483 22.7783 31.8222 22.6845 31.5103C22.6762 31.4845 21.835 28.7344 19.7941 25.7868C19.066 24.7366 18.2855 23.7951 17.4581 22.9652C17.3643 22.8707 17.2678 22.7763 17.1713 22.6847C17.1685 22.6819 17.1657 22.679 17.163 22.6761C16.8513 22.3785 16.5314 22.0981 16.2087 21.8291C14.2616 20.2265 12.0717 19.1734 9.65846 18.684C9.21718 18.5896 8.92759 18.146 9.01584 17.6853C9.10134 17.2274 9.53159 16.9269 9.97287 17.0156C12.7695 17.5851 15.351 18.8843 17.607 20.8389C19.9899 19.3451 22.7093 18.5409 25.5004 18.5409C28.2915 18.5409 31.0109 19.3422 33.3938 20.8389C35.6499 18.8843 38.2286 17.5851 41.028 17.0156C41.472 16.9269 41.8995 17.2245 41.985 17.6853C42.0705 18.146 41.7809 18.5896 41.3397 18.6812ZM15.1717 22.7219C12.3503 25.3805 10.4914 29.0406 9.94253 33.0242C9.8791 33.4906 10.1908 33.9256 10.6431 33.9914C11.0954 34.0572 11.5118 33.7339 11.5753 33.2645C12.069 29.6731 13.7403 26.3792 16.2804 23.9868C16.4321 23.8437 16.5893 23.7035 16.7465 23.5661C16.3356 23.1626 15.9136 22.7849 15.4778 22.4386C15.3758 22.533 15.2738 22.6246 15.1717 22.7219ZM41.0556 33.0242C41.119 33.4906 40.8074 33.9256 40.3551 33.9914C40.3164 33.9971 40.2751 34 40.2365 34C39.8338 34 39.4808 33.6909 39.4201 33.2645C38.9264 29.6731 37.2551 26.3792 34.7149 23.9868C34.5605 23.8437 34.406 23.7035 34.2488 23.5661C34.6598 23.1626 35.0817 22.7849 35.5175 22.4386C35.6223 22.5302 35.7244 22.6246 35.8264 22.7219C38.6506 25.3805 40.5067 29.0406 41.0556 33.0242Z" fill="white"/>
</svg>
