<svg width="50" height="50" viewBox="0 0 50 50" fill="none" xmlns="http://www.w3.org/2000/svg">
<path d="M24.9198 5.00182C26.6458 6.23956 29.2421 7.9221 28.6477 10.3152C28.5665 10.6458 28.48 10.9746 28.4169 11.2289C29.9095 11.8865 31.3336 12.5422 32.7902 13.1217C33.8449 13.5432 36.1295 11.3094 37.8863 11.7411C40.5043 12.3859 43.002 13.8514 45.3583 15.1326C45.8662 15.4097 46 15.6818 46 16.2152C45.5007 16.6894 44.9797 17.1435 44.5056 17.643C43.5556 18.6439 42.3875 18.6803 41.1419 18.5113C39.9773 18.3533 38.8074 18.2425 37.4861 18.0935C37.7078 24.1226 37.2391 29.8192 33.4229 34.6494C34.7911 36.2188 36.2531 37.7356 36.8894 39.8174C37.2094 40.8668 37.3917 43.7385 35.7862 43.9899C34.9281 44.1207 33.4986 42.9491 33.3832 42.0444C33.1453 40.1807 31.1858 39.0926 29.7239 38.7783C29.4985 38.7293 29.1975 38.9909 28.9451 39.1344C27.5985 39.8991 26.2574 40.673 24.9144 41.4432C24.9721 40.613 25.0297 39.781 25.0874 38.9509C28.0793 37.4262 30.6728 35.1342 32.4567 32.2806C34.7803 28.564 35.4581 24.4514 35.1336 20.1498C32.7253 19.089 31.3174 17.2761 30.9731 14.6421C29.0731 13.6576 27.0487 13.238 24.9216 13.2743C24.9216 10.5168 24.918 7.75749 24.9162 5L24.9198 5.00182Z" fill="#068583"/>
<path d="M24.9198 5.00182C24.9198 7.75931 24.9234 10.5186 24.9252 13.2761C23.1099 13.2252 21.3433 13.4922 19.6831 14.2461C19.328 14.4077 18.8755 14.7765 18.8178 15.1107C18.3816 17.6085 16.8565 19.1471 14.5563 20.197C14.6429 21.7102 14.7078 23.267 14.8285 24.8183C14.9818 26.8001 15.5694 28.6639 16.4077 30.4568C17.6641 33.1452 19.5046 35.3687 21.839 37.1398C22.8197 37.8845 24.0022 38.3568 25.0928 38.9527C25.0352 39.7828 24.9775 40.6148 24.9198 41.4449C23.7084 40.7547 22.4177 40.1734 21.3109 39.3432C20.2852 38.5748 19.3802 38.8164 18.5132 39.3559C17.5758 39.939 16.6799 40.593 16.5519 41.9263C16.4581 42.8982 15.171 43.999 14.2084 43.9481C13.7992 43.9263 13.2043 43.3795 13.0673 42.9508C12.5338 41.2651 12.7411 39.5975 13.7415 38.1207C14.5545 36.9218 15.4739 35.7955 16.3734 34.6021C14.3598 32.0099 13.2314 28.9527 12.6653 25.6702C12.3003 23.5513 12.4707 21.134 12.5013 18.9981C12.5103 18.4041 12.2832 18.1552 11.7135 18.2152C10.6644 18.3242 9.60625 18.3787 8.57153 18.564C6.43538 18.9473 5.16632 17.7029 4 16.2152C4 15.3854 4.31181 15.2259 5.07799 14.8492C7.01764 13.8955 8.93386 12.8819 10.9204 12.0372C12.7519 11.2597 14.5491 11.5758 16.1517 12.7583C16.6168 13.1017 16.9755 13.1271 17.5055 12.8819C18.7457 12.3078 20.0292 11.8283 21.3037 11.3088C21.3037 10.4532 21.2352 9.52856 21.3325 8.62392C21.5119 6.95645 23.6857 5.7815 24.9198 5.00182Z" fill="#045554"/>
<path d="M24.9234 15.5195C26.0825 15.6757 27.2488 15.7865 28.3935 16.0172C28.7108 16.0808 29.0875 16.4532 29.2101 16.7729C29.9239 18.6203 30.9875 20.1698 32.6279 21.2997C32.8118 21.425 32.9975 21.6921 33.0101 21.9046C33.2264 25.6957 32.1304 29.0999 29.9185 32.1462C28.6278 33.9246 26.9712 35.3088 25.1055 36.4459C25.0622 36.4732 24.9757 36.4296 24.9108 36.4187C24.9144 29.4523 24.9198 22.4859 24.9234 15.5195Z" fill="#068583"/>
<path d="M24.9234 15.5195C24.9198 22.4859 24.9144 29.4523 24.9108 36.4187C23.2469 35.7011 21.9202 34.5149 20.7611 33.1725C19.0161 31.1507 17.7632 28.811 17.2567 26.1734C16.9773 24.722 17.0476 23.1998 16.9953 21.7084C16.9899 21.5431 17.1882 21.3233 17.3486 21.2071C18.9981 20.0118 20.1482 18.4586 20.7863 16.5095C20.8494 16.3151 21.0963 16.0772 21.2892 16.0445C22.4952 15.841 23.7102 15.6884 24.9216 15.5195H24.9234Z" fill="#045554"/>
</svg>
