<svg width="50" height="50" viewBox="0 0 50 50" fill="none" xmlns="http://www.w3.org/2000/svg">
<rect width="50" height="50" fill="#24336A"/>
<path d="M30.6143 15.8613C28.899 14.9663 26.9708 14.4892 24.998 14.4892C23.0253 14.4892 21.0994 14.9663 19.3817 15.8613C20.0697 16.5025 20.7133 17.2159 21.31 17.9972C22.3396 19.3452 23.0276 20.6232 23.4395 21.5095L24.998 19.1308L26.5566 21.5095C26.9684 20.6232 27.6541 19.3452 28.6861 17.9972C29.2828 17.2159 29.9287 16.5047 30.6143 15.8613ZM38.4397 13.2856C36.3921 13.6598 34.534 14.4673 32.8819 15.6906C32.5122 15.9642 32.1541 16.2574 31.8055 16.5725C31.1081 17.205 30.4505 17.9184 29.8374 18.7172C28.1057 20.9734 27.392 23.0742 27.385 23.0961C27.3054 23.3346 27.0878 23.5075 26.8233 23.5447C26.7906 23.5491 26.7555 23.5513 26.7227 23.5513C26.4934 23.5513 26.2781 23.4462 26.147 23.2646L24.998 21.6649L23.849 23.2646C23.7203 23.4462 23.5027 23.5513 23.2734 23.5513C23.2406 23.5513 23.2055 23.5491 23.1727 23.5447C22.9083 23.5075 22.6907 23.3346 22.6111 23.0961C22.6041 23.0764 21.8903 20.9734 20.1587 18.7193C19.5409 17.9162 18.8786 17.1962 18.1766 16.5616C18.097 16.4894 18.0151 16.4172 17.9332 16.3471C17.9309 16.345 17.9285 16.3428 17.9262 16.3406C17.6617 16.113 17.3903 15.8985 17.1165 15.6928C15.4644 14.4673 13.6063 13.662 11.5587 13.2878C11.1843 13.2156 10.9386 12.8764 11.0134 12.524C11.086 12.1739 11.451 11.9441 11.8255 12.012C14.1984 12.4474 16.3887 13.441 18.3029 14.9356C20.3248 13.7933 22.6322 13.1784 25.0004 13.1784C27.3686 13.1784 29.6759 13.7911 31.6978 14.9356C33.612 13.441 35.8001 12.4474 38.1753 12.012C38.552 11.9441 38.9148 12.1717 38.9873 12.524C39.0598 12.8764 38.8141 13.2156 38.4397 13.2856ZM16.2366 16.3756C13.8427 18.4086 12.2654 21.2075 11.7997 24.2538C11.7459 24.6105 12.0103 24.9431 12.3941 24.9934C12.7779 25.0438 13.1313 24.7965 13.1851 24.4376C13.604 21.6912 15.0221 19.1723 17.1773 17.3429C17.306 17.2334 17.4394 17.1262 17.5728 17.0212C17.2241 16.7126 16.8661 16.4237 16.4964 16.1589C16.4098 16.2312 16.3232 16.3012 16.2366 16.3756ZM38.1987 24.2538C38.2525 24.6105 37.9881 24.9431 37.6043 24.9934C37.5715 24.9978 37.5364 25 37.5037 25C37.162 25 36.8625 24.7637 36.811 24.4376C36.3921 21.6912 34.974 19.1723 32.8187 17.3429C32.6877 17.2334 32.5566 17.1262 32.4233 17.0212C32.7719 16.7126 33.13 16.4237 33.4997 16.1589C33.5886 16.229 33.6752 16.3012 33.7618 16.3756C36.1581 18.4086 37.733 21.2075 38.1987 24.2538Z" fill="white"/>
<path d="M24.126 34.6191C25.0987 34.6191 26.1377 35.1736 26.1377 36.2695H25.2344C25.2344 35.8304 24.8446 35.3613 24.126 35.3613C23.3895 35.3613 23.0762 35.7405 23.0762 36.1377C23.0762 36.5193 23.2886 36.7287 24.292 36.9531C25.5908 37.2461 26.1914 37.6807 26.1914 38.5303C26.1914 39.6214 25.0924 40.0977 24.1504 40.0977C23.1355 40.0977 21.9873 39.5039 21.9873 38.3691H22.8955C22.9306 39.0357 23.528 39.3555 24.1504 39.3555C24.901 39.3555 25.2881 39.0356 25.2881 38.5986C25.2881 38.2059 25.118 37.8908 24.0723 37.6855C22.9185 37.442 22.168 37.0429 22.168 36.1621C22.168 35.3197 22.9497 34.6191 24.126 34.6191Z" fill="white"/>
<path fill-rule="evenodd" clip-rule="evenodd" d="M31.9678 34.6191C33.5497 34.6191 34.3799 35.9669 34.3799 37.417C34.3799 38.8338 33.4443 40.0977 31.9775 40.0977C30.4521 40.0977 29.5703 38.7515 29.5703 37.3047C29.5703 35.7634 30.5099 34.6191 31.9678 34.6191ZM31.9678 35.3613C30.8702 35.3613 30.4736 36.4962 30.4736 37.417C30.4736 38.464 30.9705 39.3555 31.9775 39.3555C33.0018 39.3555 33.4717 38.3325 33.4717 37.417C33.4717 36.4719 33.0906 35.3613 31.9678 35.3613Z" fill="white"/>
<path fill-rule="evenodd" clip-rule="evenodd" d="M18.6768 32.8906L21.3965 40H20.4297L19.7529 38.1396H16.7793L16.1035 40H15.1416L17.8516 32.8906H18.6768ZM17.0596 37.3682H19.4717L18.2637 34.0508L17.0596 37.3682Z" fill="white"/>
<path d="M28.3594 40H27.4512V34.7168H28.3594V40Z" fill="white"/>
<path d="M27.915 32.793C28.0876 32.793 28.2194 32.8434 28.3105 32.9443C28.4049 33.0452 28.4521 33.1689 28.4521 33.3154C28.4521 33.5907 28.266 33.8232 27.915 33.8232C27.5632 33.8232 27.3828 33.5951 27.3828 33.3154C27.3828 33.0201 27.5663 32.793 27.915 32.793Z" fill="white"/>
</svg>
