<svg width="50" height="50" viewBox="0 0 50 50" fill="none" xmlns="http://www.w3.org/2000/svg">
<path d="M32.0031 21.4805C29.8635 20.2866 27.4583 19.6503 24.9976 19.6503C22.5369 19.6503 20.1346 20.2866 17.9921 21.4805C18.8503 22.3357 19.653 23.2873 20.3973 24.3294C21.6817 26.1275 22.5398 27.8321 23.0536 29.0143L24.9976 25.8414L26.9416 29.0143C27.4554 27.8321 28.3106 26.1275 29.5979 24.3294C30.3422 23.2873 31.1479 22.3387 32.0031 21.4805ZM41.7641 18.0449C39.21 18.544 36.8924 19.6211 34.8316 21.2528C34.3704 21.6177 33.9238 22.0088 33.4889 22.4291C32.619 23.2727 31.7988 24.2243 31.034 25.2897C28.874 28.2992 27.9837 31.1014 27.9749 31.1306C27.8757 31.4487 27.6042 31.6793 27.2744 31.729C27.2335 31.7348 27.1897 31.7377 27.1489 31.7377C26.8628 31.7377 26.5943 31.5976 26.4308 31.3553L24.9976 29.2216L23.5644 31.3553C23.4038 31.5976 23.1324 31.7377 22.8463 31.7377C22.8055 31.7377 22.7617 31.7348 22.7208 31.729C22.391 31.6793 22.1195 31.4487 22.0203 31.1306C22.0115 31.1043 21.1212 28.2992 18.9612 25.2927C18.1906 24.2214 17.3645 23.2611 16.4888 22.4146C16.3896 22.3182 16.2874 22.2219 16.1853 22.1285C16.1823 22.1256 16.1794 22.1227 16.1765 22.1197C15.8467 21.8162 15.5081 21.5301 15.1665 21.2557C13.1057 19.6211 10.7881 18.5469 8.23399 18.0478C7.76696 17.9515 7.46047 17.499 7.55388 17.0291C7.64436 16.562 8.09972 16.2555 8.56676 16.346C11.5266 16.9269 14.2587 18.2521 16.6464 20.2458C19.1684 18.7221 22.0465 17.9018 25.0005 17.9018C27.9545 17.9018 30.8326 18.7191 33.3546 20.2458C35.7423 18.2521 38.4715 16.9269 41.4343 16.346C41.9042 16.2555 42.3567 16.5591 42.4472 17.0291C42.5377 17.499 42.2312 17.9515 41.7641 18.0449ZM14.069 22.1664C11.0829 24.8782 9.11552 28.6115 8.53465 32.6747C8.46751 33.1505 8.79735 33.5942 9.27606 33.6613C9.75477 33.7285 10.1955 33.3986 10.2627 32.9199C10.7852 29.2566 12.5541 25.8969 15.2424 23.4566C15.403 23.3107 15.5694 23.1676 15.7357 23.0275C15.3008 22.616 14.8542 22.2307 14.393 21.8775C14.285 21.9738 14.177 22.0672 14.069 22.1664ZM41.4635 32.6747C41.5306 33.1505 41.2008 33.5942 40.7221 33.6613C40.6812 33.6672 40.6374 33.6701 40.5965 33.6701C40.1704 33.6701 39.7967 33.3548 39.7325 32.9199C39.21 29.2566 37.4411 25.8969 34.7528 23.4566C34.5893 23.3107 34.4259 23.1676 34.2595 23.0275C34.6944 22.616 35.141 22.2307 35.6022 21.8775C35.7131 21.9709 35.8211 22.0672 35.9291 22.1664C38.9181 24.8782 40.8826 28.6115 41.4635 32.6747Z" fill="#24336A"/>
</svg>
