<svg width="50" height="50" viewBox="0 0 50 50" fill="none" xmlns="http://www.w3.org/2000/svg">
<path d="M23.7855 41C14.9846 41 9 33.8106 9 26.163C9 18.4097 15.0902 11.7137 23.2222 11.3965C23.5391 11.3965 23.8207 11.6432 23.8207 11.9604V14.3216C23.8207 14.6388 23.5743 14.8855 23.2926 14.8855C17.308 15.2027 12.5204 20.0661 12.5204 26.1983C12.5204 32.1542 17.2376 37.511 23.8207 37.511C30.2277 37.511 34.8042 32.4009 35.0506 26.7269C35.0506 26.4097 35.297 26.1983 35.6139 26.1983H37.9725C38.2893 26.1983 38.5358 26.4802 38.5358 26.7974C38.2541 34.304 32.1991 41 23.7855 41Z" fill="#2B55E4"/>
<path d="M23.8207 33.141C19.8779 33.141 16.8504 30.0044 16.8504 26.163C16.8504 22.5683 19.6315 19.5727 23.2222 19.2555C23.5391 19.2203 23.8207 19.5022 23.8207 19.8194V22.1806C23.8207 22.4626 23.6095 22.7093 23.3278 22.7445C21.6029 22.9912 20.3355 24.4714 20.3355 26.1278C20.3355 28.0308 21.8141 29.6167 23.8207 29.6167C25.4752 29.6167 26.9538 28.348 27.2002 26.6211C27.2354 26.3392 27.4818 26.1278 27.7635 26.1278H30.1221C30.4389 26.1278 30.7206 26.4097 30.6854 26.7269C30.4037 30.3216 27.4466 33.141 23.8207 33.141Z" fill="#2B55E4"/>
<path d="M37.4796 23.2731C37.198 17.5286 32.6216 12.7709 26.7074 12.489C26.3905 12.489 26.1793 12.2423 26.1793 11.9251V9.56388C26.1793 9.2467 26.4609 9 26.7778 9C34.4521 9.28194 40.6832 15.4493 41 23.2379C41 23.5551 40.7536 23.837 40.4367 23.837H38.0781C37.7613 23.837 37.5149 23.5903 37.4796 23.2731Z" fill="#F2A340"/>
<path d="M26.813 20.4185C26.4609 20.348 26.1793 20.0661 26.1793 19.7841V17.4581C26.1793 17.141 26.4609 16.859 26.7778 16.8943C30.1925 17.1762 32.7976 19.9251 33.1144 23.2026C33.1496 23.5198 32.868 23.8018 32.5512 23.8018H30.0869C29.8405 23.8018 29.6645 23.6256 29.6293 23.4141C29.4532 22.0396 28.3971 20.7004 26.813 20.4185Z" fill="#F2A340"/>
</svg>
