<svg width="50" height="50" viewBox="0 0 50 50" fill="none" xmlns="http://www.w3.org/2000/svg">
<path d="M8.38593 25.5513C8.38593 21.9358 8.29103 25.5513 8.38593 25.5513Z" fill="#80D4C6"/>
<path d="M8.38593 25.5513C8.38593 23.543 8.48624 21.7355 9.49467 19.9228C11.0824 17.0055 13.5698 15.3766 16.8325 14.8724C18.917 14.5743 21.1273 14.8011 23.2256 14.8011C23.8872 14.8011 24.2709 15.1628 24.2841 15.8307C24.2973 16.8418 24.2841 17.8503 24.2841 18.8615C24.3388 19.6839 23.5032 19.8396 22.8737 19.8409C21.3098 19.8409 19.7459 19.8409 18.182 19.8409C16.425 19.8541 15.1442 20.6329 14.361 22.2169C13.0539 24.8739 14.3062 29.1915 17.7269 29.2051C19.5316 29.2421 21.3336 29.2421 23.1383 29.2526C23.9322 29.2526 24.2894 29.6143 24.2894 30.4063C24.2894 31.355 24.2894 32.3036 24.2894 33.2523C24.2894 34.0443 23.9613 34.3743 23.1542 34.377C21.3945 34.377 19.6348 34.377 17.8619 34.377C13.0192 34.3664 8.75958 30.3729 8.38593 25.5513Z" fill="#4BC0B0"/>
<path d="M30.5637 30.4908C30.5637 29.8978 30.7616 29.2285 31.5005 29.25C33.9323 29.1021 36.0882 27.5341 36.2054 24.9547C36.3268 22.3505 34.5961 19.8024 31.8259 19.8145C31.1977 19.8145 30.4731 19.544 30.5531 18.8034C30.5531 17.8301 30.5531 16.8559 30.5531 15.8809C30.5531 15.1416 30.913 14.7905 31.6487 14.7879C36.4357 14.7879 40.8163 18.0712 41.5321 22.9245C42.0455 26.3697 41.0981 29.3846 38.534 31.8056C36.6586 33.5686 34.1789 34.4056 31.6354 34.3954C30.9051 34.3954 30.5505 34.0232 30.5505 33.2945C30.5763 32.3369 30.5637 31.4173 30.5637 30.4908Z" fill="#221E20"/>
<path d="M28.034 8.33301V40.2775H26.8194V8.33301H28.034Z" fill="#969799"/>
</svg>
