<svg width="50" height="50" viewBox="0 0 50 50" fill="none" xmlns="http://www.w3.org/2000/svg">
<path d="M33.8003 18.3225C30.5751 18.3212 27.4295 19.6456 25.164 21.9387L22.3807 24.725L24.9852 27.3548L27.7529 24.5561C30.1628 22.1256 33.8958 21.3689 37.0561 22.6912C40.2288 24.0188 42.325 27.222 42.3258 30.6538C42.3258 35.3124 38.4779 39.273 33.7945 39.2794C32.0171 39.2777 30.2849 38.7134 28.8415 37.6659C27.9671 38.5488 27.1031 39.4431 26.2436 40.3404C28.3906 42.0602 31.0499 42.9973 33.7904 43C40.4928 42.9927 46.0004 37.3249 46 30.6579C46.0154 24.0041 40.4209 18.3209 33.8003 18.3225ZM15.7214 16.6759C16.8335 13.1831 20.1521 10.7147 23.8278 10.7223C27.5431 10.7215 30.9091 13.2709 31.9595 16.815C33.2203 16.6434 34.5161 16.6564 35.7756 16.8324C34.643 11.21 29.5919 6.98965 23.836 7.00002C17.8667 6.99188 12.7001 11.5268 11.8003 17.4039C13.0655 16.9707 14.3864 16.7255 15.7214 16.6759Z" fill="#00AAEB"/>
<path d="M22.2511 36.7648C20.6703 38.3729 18.4601 39.3023 16.2161 39.3026C11.5296 39.2963 7.6804 35.3304 7.68484 30.6687V30.6472C7.69016 25.9942 11.5384 22.0431 16.2161 22.0431C17.9835 22.0452 19.7063 22.6037 21.1445 23.6408L23.7785 20.9771C21.6296 19.2615 18.9712 18.3264 16.2317 18.3225C9.52677 18.3175 4.00798 23.9794 4 30.6488C4 37.3131 9.5082 42.977 16.2079 42.9793C19.4283 42.9881 22.5725 41.6749 24.8425 39.3929C25.0148 39.2272 27.5725 36.5983 27.5725 36.5983L24.9688 33.9685L22.2511 36.7648Z" fill="#FFB003"/>
</svg>
