<svg width="50" height="50" viewBox="0 0 50 50" fill="none" xmlns="http://www.w3.org/2000/svg">
<path fill-rule="evenodd" clip-rule="evenodd" d="M12.5866 16.3846H36.676C38.1693 16.3846 39.3799 17.5969 39.3799 19.0923V38.2923C39.3799 39.7877 38.1693 41 36.676 41H12.5866C11.0933 41 9.88268 39.7877 9.88268 38.2923V19.0923C9.88268 17.5969 11.0933 16.3846 12.5866 16.3846ZM12.5866 18.8462C12.3151 18.8462 12.095 18.8204 12.095 19.0923V38.2923C12.095 38.5642 12.3151 38.7846 12.5866 38.7846H36.676C36.9475 38.7846 37.1676 38.5642 37.1676 38.2923V19.0923C37.1676 18.8204 36.9475 18.8462 36.676 18.8462H12.5866Z" fill="#115E2E"/>
<path d="M12.095 18.8462H37.1676V38.7846H12.095V18.8462Z" fill="url(#paint0_linear_9176_11284)"/>
<path d="M31.6085 29.7859C32.0704 30.1898 32.1216 30.8973 31.671 31.3137C29.7535 33.0862 27.1835 34.0797 24.571 34.055C21.9585 34.0304 19.4076 32.9885 17.5239 31.1801C17.0813 30.7552 17.1458 30.0488 17.6152 29.6537C18.0845 29.2587 18.7804 29.3262 19.2353 29.7379C20.6947 31.0585 22.6227 31.813 24.592 31.8316C26.5612 31.8502 28.5031 31.1323 29.9871 29.8395C30.4497 29.4365 31.1467 29.3821 31.6085 29.7859Z" fill="#115E2E"/>
<path d="M22.6648 18.8462C22.6648 24.284 18.2627 28.6923 12.8324 28.6923C7.40212 28.6923 3 24.284 3 18.8462C3 13.4083 7.40212 9 12.8324 9C18.2627 9 22.6648 13.4083 22.6648 18.8462Z" fill="#18181B"/>
<path fill-rule="evenodd" clip-rule="evenodd" d="M12.8324 26.2308C16.9051 26.2308 20.2067 22.9246 20.2067 18.8462C20.2067 14.7677 16.9051 11.4615 12.8324 11.4615C8.75969 11.4615 5.4581 14.7677 5.4581 18.8462C5.4581 22.9246 8.75969 26.2308 12.8324 26.2308ZM12.8324 28.6923C18.2627 28.6923 22.6648 24.284 22.6648 18.8462C22.6648 13.4083 18.2627 9 12.8324 9C7.40212 9 3 13.4083 3 18.8462C3 24.284 7.40212 28.6923 12.8324 28.6923Z" fill="white"/>
<path fill-rule="evenodd" clip-rule="evenodd" d="M12.8324 26.2308C16.9051 26.2308 20.2067 22.9246 20.2067 18.8462C20.2067 14.7677 16.9051 11.4615 12.8324 11.4615C8.75969 11.4615 5.4581 14.7677 5.4581 18.8462C5.4581 22.9246 8.75969 26.2308 12.8324 26.2308ZM12.8324 28.6923C18.2627 28.6923 22.6648 24.284 22.6648 18.8462C22.6648 13.4083 18.2627 9 12.8324 9C7.40212 9 3 13.4083 3 18.8462C3 24.284 7.40212 28.6923 12.8324 28.6923Z" fill="white"/>
<path d="M19.001 23.163C19.9816 21.824 20.4912 20.1973 20.4502 18.5374C20.4092 16.8774 19.8198 15.2779 18.7743 13.9892L12.9553 18.7231L19.001 23.163Z" fill="white"/>
<path d="M17.7486 18.8462C17.7486 21.5651 15.5475 23.7692 12.8324 23.7692C10.1173 23.7692 7.9162 21.5651 7.9162 18.8462C7.9162 16.1272 10.1173 13.9231 12.8324 13.9231C15.5475 13.9231 17.7486 16.1272 17.7486 18.8462Z" fill="#115E2E"/>
<path fill-rule="evenodd" clip-rule="evenodd" d="M12.8324 21.3077C14.19 21.3077 15.2905 20.2056 15.2905 18.8462C15.2905 17.4867 14.19 16.3846 12.8324 16.3846C11.4748 16.3846 10.3743 17.4867 10.3743 18.8462C10.3743 20.2056 11.4748 21.3077 12.8324 21.3077ZM12.8324 23.7692C15.5475 23.7692 17.7486 21.5651 17.7486 18.8462C17.7486 16.1272 15.5475 13.9231 12.8324 13.9231C10.1173 13.9231 7.9162 16.1272 7.9162 18.8462C7.9162 21.5651 10.1173 23.7692 12.8324 23.7692Z" fill="white"/>
<path fill-rule="evenodd" clip-rule="evenodd" d="M12.8324 21.3077C14.19 21.3077 15.2905 20.2056 15.2905 18.8462C15.2905 17.4867 14.19 16.3846 12.8324 16.3846C11.4748 16.3846 10.3743 17.4867 10.3743 18.8462C10.3743 20.2056 11.4748 21.3077 12.8324 21.3077ZM12.8324 23.7692C15.5475 23.7692 17.7486 21.5651 17.7486 18.8462C17.7486 16.1272 15.5475 13.9231 12.8324 13.9231C10.1173 13.9231 7.9162 16.1272 7.9162 18.8462C7.9162 21.5651 10.1173 23.7692 12.8324 23.7692Z" fill="white"/>
<path d="M47 18.8462C47 24.284 42.5979 28.6923 37.1676 28.6923C31.7373 28.6923 27.3352 24.284 27.3352 18.8462C27.3352 13.4083 31.7373 9 37.1676 9C42.5979 9 47 13.4083 47 18.8462Z" fill="#18181B"/>
<path fill-rule="evenodd" clip-rule="evenodd" d="M37.1676 26.2308C41.2403 26.2308 44.5419 22.9246 44.5419 18.8462C44.5419 14.7677 41.2403 11.4615 37.1676 11.4615C33.0949 11.4615 29.7933 14.7677 29.7933 18.8462C29.7933 22.9246 33.0949 26.2308 37.1676 26.2308ZM37.1676 28.6923C42.5979 28.6923 47 24.284 47 18.8462C47 13.4083 42.5979 9 37.1676 9C31.7373 9 27.3352 13.4083 27.3352 18.8462C27.3352 24.284 31.7373 28.6923 37.1676 28.6923Z" fill="white"/>
<path fill-rule="evenodd" clip-rule="evenodd" d="M37.1676 26.2308C41.2403 26.2308 44.5419 22.9246 44.5419 18.8462C44.5419 14.7677 41.2403 11.4615 37.1676 11.4615C33.0949 11.4615 29.7933 14.7677 29.7933 18.8462C29.7933 22.9246 33.0949 26.2308 37.1676 26.2308ZM37.1676 28.6923C42.5979 28.6923 47 24.284 47 18.8462C47 13.4083 42.5979 9 37.1676 9C31.7373 9 27.3352 13.4083 27.3352 18.8462C27.3352 24.284 31.7373 28.6923 37.1676 28.6923Z" fill="white"/>
<path d="M42.0838 18.8462C42.0838 21.5651 39.8827 23.7692 37.1676 23.7692C34.4525 23.7692 32.2514 21.5651 32.2514 18.8462C32.2514 16.1272 34.4525 13.9231 37.1676 13.9231C39.8827 13.9231 42.0838 16.1272 42.0838 18.8462Z" fill="#115E2E"/>
<path fill-rule="evenodd" clip-rule="evenodd" d="M37.1676 21.3077C38.5252 21.3077 39.6257 20.2056 39.6257 18.8462C39.6257 17.4867 38.5252 16.3846 37.1676 16.3846C35.81 16.3846 34.7095 17.4867 34.7095 18.8462C34.7095 20.2056 35.81 21.3077 37.1676 21.3077ZM37.1676 23.7692C39.8827 23.7692 42.0838 21.5651 42.0838 18.8462C42.0838 16.1272 39.8827 13.9231 37.1676 13.9231C34.4525 13.9231 32.2514 16.1272 32.2514 18.8462C32.2514 21.5651 34.4525 23.7692 37.1676 23.7692Z" fill="white"/>
<path fill-rule="evenodd" clip-rule="evenodd" d="M37.1676 21.3077C38.5252 21.3077 39.6257 20.2056 39.6257 18.8462C39.6257 17.4867 38.5252 16.3846 37.1676 16.3846C35.81 16.3846 34.7095 17.4867 34.7095 18.8462C34.7095 20.2056 35.81 21.3077 37.1676 21.3077ZM37.1676 23.7692C39.8827 23.7692 42.0838 21.5651 42.0838 18.8462C42.0838 16.1272 39.8827 13.9231 37.1676 13.9231C34.4525 13.9231 32.2514 16.1272 32.2514 18.8462C32.2514 21.5651 34.4525 23.7692 37.1676 23.7692Z" fill="white"/>
<defs>
<linearGradient id="paint0_linear_9176_11284" x1="25" y1="12.2" x2="25" y2="38.12" gradientUnits="userSpaceOnUse">
<stop stop-color="#25CD65"/>
<stop offset="1" stop-color="#28E06E"/>
</linearGradient>
</defs>
</svg>
