<svg width="50" height="50" viewBox="0 0 50 50" fill="none" xmlns="http://www.w3.org/2000/svg">
<rect width="50" height="50" fill="#01A7E2"/>
<path d="M37.6168 20.4495C37.6017 20.6165 37.5815 20.7719 37.5731 20.9339C37.4036 24.101 36.6086 27.2038 35.2334 30.0654C35.0655 30.3995 34.8975 30.7335 34.7295 31.0576C34.7295 31.0676 34.7161 31.0759 34.701 31.0977L31.3249 29.5944C33.0244 26.5335 33.9158 23.0941 33.9158 19.5977C33.9158 16.1012 33.0244 12.6618 31.3249 9.60092L34.706 8.09766C34.7682 8.21291 34.8286 8.32148 34.8857 8.43172C36.5344 11.6123 37.4582 15.1149 37.5916 18.6907C37.5971 18.7197 37.605 18.7482 37.6151 18.7759V19.1868C37.6048 19.2108 37.5974 19.2361 37.5933 19.2619C37.5933 19.4741 37.5933 19.6862 37.5933 19.8966C37.5972 19.9269 37.6045 19.9566 37.6151 19.9852L37.6168 20.4495Z" fill="white"/>
<path d="M37.6172 19.9903C37.6062 19.9617 37.5987 19.932 37.5947 19.9018C37.5947 19.6914 37.5947 19.4792 37.5947 19.2671C37.5989 19.2412 37.6065 19.216 37.6172 19.1919V19.9903Z" fill="white"/>
<path d="M29.3014 14.6153L18.2394 19.6045L29.3081 24.5937C28.8042 25.7095 28.3004 26.8169 27.7814 27.9343L27.4118 27.7673L15.421 22.3689C14.8465 22.1193 14.3648 21.6974 14.0432 21.1623C13.7216 20.6271 13.5761 20.0054 13.6272 19.384C13.6528 18.8378 13.8333 18.3099 14.1477 17.8612C14.4621 17.4126 14.8977 17.0615 15.4042 16.8485C17.9875 15.6693 20.5791 14.5101 23.1691 13.3409L27.6537 11.3215L27.7797 11.2681C28.2852 12.3838 28.7908 13.4929 29.3014 14.6153Z" fill="white"/>
<path d="M19.6757 34.7948L17.5046 41.0041H16.6172L19.1172 34.1912H19.6893L19.6757 34.7948ZM21.4956 41.0041L19.3199 34.7948L19.3064 34.1912H19.8784L22.3875 41.0041H21.4956ZM21.383 38.482V39.2213H17.6983V38.482H21.383Z" fill="white"/>
<path d="M27.1712 38.8376H28.0361C27.9911 39.2681 27.8724 39.6534 27.6803 39.9934C27.4881 40.3334 27.2163 40.6032 26.8649 40.8029C26.5136 40.9994 26.0751 41.0977 25.5496 41.0977C25.1652 41.0977 24.8154 41.0228 24.5001 40.8731C24.1878 40.7233 23.919 40.5112 23.6938 40.2367C23.4685 39.9591 23.2944 39.6268 23.1712 39.24C23.0511 38.8501 22.9911 38.4165 22.9911 37.9392V37.2608C22.9911 36.7835 23.0511 36.3514 23.1712 35.9646C23.2944 35.5747 23.47 35.2409 23.6983 34.9633C23.9295 34.6857 24.2073 34.472 24.5316 34.3223C24.8559 34.1725 25.2208 34.0977 25.6262 34.0977C26.1217 34.0977 26.5406 34.1944 26.883 34.3878C27.2253 34.5812 27.4911 34.8494 27.6803 35.1926C27.8724 35.5326 27.9911 35.9272 28.0361 36.3764H27.1712C27.1292 36.0582 27.0511 35.7853 26.937 35.5575C26.8229 35.3267 26.6607 35.1489 26.4505 35.0241C26.2403 34.8993 25.9655 34.837 25.6262 34.837C25.3349 34.837 25.0781 34.8947 24.8559 35.0101C24.6367 35.1255 24.452 35.2893 24.3019 35.5014C24.1547 35.7135 24.0436 35.9678 23.9685 36.2641C23.8935 36.5604 23.8559 36.8895 23.8559 37.2514V37.9392C23.8559 38.273 23.889 38.5865 23.955 38.8797C24.0241 39.173 24.1277 39.4303 24.2658 39.6518C24.404 39.8733 24.5796 40.048 24.7929 40.1759C25.0061 40.3006 25.2583 40.363 25.5496 40.363C25.919 40.363 26.2133 40.3022 26.4325 40.1805C26.6517 40.0589 26.8169 39.8842 26.928 39.6565C27.0421 39.4288 27.1232 39.1558 27.1712 38.8376Z" fill="white"/>
<path d="M31.5091 34.1912V41.0041H30.6532V34.1912H31.5091ZM33.6172 34.1912V34.9305H28.5496V34.1912H33.6172Z" fill="white"/>
</svg>
