<svg width="50" height="50" viewBox="0 0 50 50" fill="none" xmlns="http://www.w3.org/2000/svg">
<path d="M32.7529 21.6438C34.4177 21.3159 41.5258 19.4695 40.3525 17.3707C39.0643 15.0665 33.1023 16.9375 31.0045 17.5668C31.8899 16.2529 34.755 11.5771 32.625 10.6667C30.4388 9.73228 27.7462 14.0147 26.8081 15.6478C26.3201 13.8353 24.7931 9.06136 22.4411 9.42995C20.1163 9.79429 21.6799 15.1152 22.262 16.6286C20.1533 15.4849 14.5548 12.3982 12.5557 14.3598C10.7909 16.0917 17.8535 19.6401 19.4132 20.3132C16.75 20.7749 7.76371 22.382 7.85614 25.6355C7.93849 28.5342 18.3298 25.6981 20.4367 24.9958C18.7583 27.1106 12.279 36.172 15.4045 38.054C18.5959 39.9757 24.0844 30.1374 25.2899 27.5887C25.8135 30.1413 28.6854 40.67 32.0365 39.2737C35.4351 37.8576 31.7237 28.5252 30.5951 25.9766C32.4475 27.0826 40.9704 31.4661 41.7854 28.6719C42.6487 25.7121 35.0295 22.6023 32.7529 21.6438Z" fill="#44B6E8"/>
<path d="M21.7761 24.0573C19.8029 24.7378 17.7416 25.1749 15.6606 25.3367C11.8566 28.2793 9.21254 31.4948 9.95459 32.723C10.6966 33.9512 14.4068 32.6292 18.4156 29.9937C19.2347 27.8516 20.4039 25.887 21.7761 24.0573Z" fill="#248DCD"/>
<path d="M20.9061 20.4577C20.4797 20.2786 20.0532 20.0825 19.6097 19.8607C18.5195 19.3291 17.4924 18.6768 16.5477 17.916C12.684 17.7966 9.47699 18.4022 9.01641 19.4854C8.55583 20.5686 11.0208 21.7542 14.7651 22.3768C16.7223 21.4588 18.7894 20.8662 20.9061 20.4577Z" fill="#248DCD"/>
<path d="M23.0556 17.5407C22.5727 16.273 22.2594 14.9549 22.2454 13.5917C20.1045 11.6982 17.9808 10.6747 17.0511 11.1438C16.1214 11.6129 16.5649 13.4041 18.0916 15.579C19.8423 15.9833 21.4838 16.6834 23.0556 17.5407Z" fill="#248DCD"/>
<path d="M29.9898 18.283C31.5076 17.8087 33.0819 17.502 34.6724 17.4386C36.6938 15.5878 37.5552 13.8734 36.7961 13.2423C36.037 12.6111 34.1009 13.1143 31.8236 14.3766C31.4916 15.801 30.8258 17.0933 29.9898 18.283Z" fill="#248DCD"/>
<path d="M25.495 25.9764C24.5645 27.9091 23.3363 29.7149 21.9128 31.3157C21.4692 36.2968 22.2198 40.5785 23.9086 40.6979C25.5974 40.8173 27.1412 36.945 27.8747 32.2625C26.728 30.3086 25.9528 28.1892 25.495 25.9764Z" fill="#248DCD"/>
<path d="M26.7059 16.7477C27.3517 15.5483 28.2091 14.4502 29.2135 13.5321C29.1538 11.1354 28.4544 9.42958 27.5077 9.32723C26.5609 9.22488 25.5374 10.6151 24.9489 12.8072C25.7819 14.0033 26.3163 15.3514 26.7059 16.7477Z" fill="#248DCD"/>
<path d="M42.1438 22.3941C41.9817 21.3706 39.5083 20.3215 36.233 19.7586C34.6972 20.6181 33.0279 21.1509 31.3117 21.5071C33.0115 22.1609 34.6315 23.091 36.088 24.1767C39.7641 24.2279 42.3229 23.4944 42.1438 22.3941Z" fill="#248DCD"/>
<path d="M29.5634 24.7907C30.3589 26.6239 30.9169 28.5576 31.1839 30.5394C34.4335 33.755 37.6746 35.5887 38.6214 34.4885C39.5681 33.3882 37.9817 30.3518 35.3718 27.1875C33.3405 26.695 31.3579 25.8675 29.5634 24.7907Z" fill="#248DCD"/>
<path d="M36.088 24.1767C34.6059 23.0845 32.9679 22.1885 31.2604 21.4989C32.9878 21.173 34.6772 20.6156 36.2159 19.759C37.2138 19.1619 37.7085 18.5564 37.4697 18.1043C37.2309 17.6523 36.1476 17.3879 34.6891 17.439C33.0953 17.5083 31.5293 17.8173 30.0066 18.2834C30.836 17.1031 31.4962 15.7857 31.8236 14.3766C32.0112 13.447 31.8916 12.7735 31.4395 12.5774C30.9875 12.3812 30.1175 12.7309 29.2219 13.5241C28.2043 14.4432 27.351 15.5376 26.7059 16.7477C26.3368 15.3381 25.7474 13.9902 24.8891 12.8077C24.2664 11.9547 23.6267 11.5197 23.1235 11.6136C22.6203 11.7074 22.2706 12.4665 22.2706 13.6009C22.2846 14.964 22.5979 16.2822 23.0809 17.5499C21.5012 16.6883 19.8515 15.9837 18.0916 15.579C16.7867 15.2976 15.7713 15.3238 15.4046 15.7161C15.0378 16.1085 15.4645 16.9949 16.5477 17.916C17.4924 18.6768 18.5195 19.3291 19.6097 19.8607C20.0447 20.0825 20.4626 20.2786 20.9061 20.4577C18.7894 20.8662 16.7223 21.4588 14.7651 22.3768C13.2384 23.1103 12.2829 23.8957 12.3426 24.5012C12.4023 25.1068 13.7414 25.465 15.6775 25.3541C17.7555 25.1912 19.8139 24.7543 21.7844 24.0748C20.4123 25.9043 19.2429 27.8693 18.4239 30.0111C17.8013 31.7169 17.7075 33.0731 18.3557 33.4228C19.0039 33.7725 20.4539 32.9281 21.9209 31.3161C23.3444 29.7153 24.5726 27.9095 25.5032 25.9768C25.9565 28.1681 26.7559 30.2952 27.8828 32.2287C28.7954 33.7384 29.7593 34.6169 30.4416 34.3525C31.1239 34.0881 31.4224 32.5443 31.1666 30.5399C30.9032 28.5581 30.3499 26.624 29.5545 24.7912C31.3564 25.8723 33.3178 26.6993 35.363 27.1879C36.847 27.512 37.9217 27.4353 38.1094 26.8638C38.297 26.2924 37.5124 25.277 36.088 24.1767Z" fill="white"/>
</svg>
