<svg width="50" height="50" viewBox="0 0 50 50" fill="none" xmlns="http://www.w3.org/2000/svg">
<rect width="50" height="50" fill="#161A1E"/>
<path d="M11.1055 13.154H38.8949V42.3687H23.4172C16.6181 42.3687 11.1055 36.7854 11.1055 29.8991V13.154Z" fill="white"/>
<path d="M11.1055 7.63184H33.4419C36.3427 7.63142 38.8949 10.1131 38.8949 13.154H11.1055V7.63184Z" fill="#FF0044"/>
<path d="M25.4738 36.7893C29.5614 36.7893 32.787 34.4699 33.772 30.8043L30.1274 29.5569C29.6349 31.6516 27.7638 33.0486 25.4738 33.0486C22.4198 33.0486 20.2782 30.8537 20.2782 27.7614C20.2782 24.644 22.4453 22.4741 25.4738 22.4741C27.6896 22.4741 29.4872 23.7458 30.0044 25.7661L33.5749 24.4693C32.5899 20.9534 29.4872 18.7334 25.4738 18.7334C20.2534 18.7334 16.4124 22.5743 16.4124 27.7614C16.4124 32.9492 20.2534 36.7893 25.4738 36.7893Z" fill="#161A1E"/>
</svg>
