<svg width="50" height="50" viewBox="0 0 50 50" fill="none" xmlns="http://www.w3.org/2000/svg">
<path d="M31.178 33.624C30.2722 33.6396 29.3889 33.344 28.6775 32.7873C27.8586 32.1381 27.1716 31.1644 27.1506 30.0209C27.1386 29.4432 27.7716 29.4432 27.7716 29.4432L29.2985 29.4313C29.7965 29.4432 29.9435 30.1311 29.966 30.3038C30.158 31.8523 31.0415 32.5297 31.718 32.8379C32.1275 33.021 32.024 33.6017 31.175 33.624H31.178ZM22.6356 25.7523L19.7497 25.3741C18.4492 25.0555 18.4837 23.912 18.5392 23.5175C18.9329 20.7776 20.844 18.6031 23.1951 17.2671C25.9791 15.668 29.87 14.7762 34.16 14.7762C37.2949 14.7762 40.5439 15.1782 40.5949 15.1782C40.8904 15.2154 41.0868 15.4953 41.0943 15.8288C41.1075 16.1237 40.8587 16.397 40.5619 16.414L39.1819 16.3991C34.8289 16.3991 31.73 16.9857 29.423 18.2572C27.1326 19.5034 25.5681 21.4092 24.4926 24.2306C24.3786 24.4733 23.9901 25.8982 22.6326 25.7523H22.6356ZM26.4351 37.3999C24.2751 37.3999 22.2396 36.4738 20.6977 34.8003C19.3927 33.3709 18.6022 31.9252 18.4582 30.0894C18.3682 28.879 18.9082 28.4606 19.6402 28.535L22.6221 28.8596C23.2971 28.9966 23.7471 29.3658 23.8596 30.1311C24.4551 34.2047 27.0426 35.8097 28.5845 36.1552C29.1966 36.2969 29.1024 37.1631 28.526 37.2912C27.8391 37.4014 27.1221 37.3999 26.4351 37.3999ZM20.2837 41C17.5148 40.97 14.5911 40.4947 12.2153 38.9989C9.11484 37.0515 7.24437 33.6136 7.02087 29.537C6.96537 28.5693 6.85587 26.723 9.16134 26.8615C10.1183 26.9106 11.6408 27.3722 12.7133 27.6774C14.0438 28.0452 14.6843 29.0666 14.6843 30.0716C14.6843 35.8157 19.9252 39.6124 22.2141 39.6124C23.1951 39.6124 22.8351 40.6561 22.4046 40.7722C21.6516 40.9747 20.6797 41 20.2852 41H20.2837ZM12.2873 24.1339C11.3798 23.9716 10.4963 23.6008 9.63533 23.3894C6.97287 22.7343 7.42586 20.0677 7.67486 19.3352C10.1003 12.2525 17.7937 9.88073 24.0051 9.25093C29.852 8.65537 35.9719 9.11395 41.6718 10.6907C42.1368 10.8143 43.5753 11.1776 42.7488 12.0173C42.2238 12.5503 40.1989 11.9935 39.6394 11.9562C36.2944 11.7076 32.9885 11.6704 29.6555 12.1796C26.1321 12.7111 22.5036 13.8159 19.5907 16.1475C17.7688 17.6089 16.3226 19.5293 15.5902 21.7546C15.4252 22.2415 14.8852 24.5984 12.2678 24.1368L12.2873 24.1339ZM27.1971 25.4992C27.6951 23.2837 29.912 19.7699 36.7744 20.0111C38.3494 20.0603 37.6294 21.1263 36.8524 21.0995C32.9735 20.9655 31.13 23.449 30.167 25.9682C29.8385 26.7811 29.147 26.9002 28.2605 26.7573C27.6381 26.6471 26.9616 26.5742 27.1956 25.4977L27.1971 25.4992Z" fill="#283238"/>
</svg>
