<svg width="50" height="50" viewBox="0 0 50 50" fill="none" xmlns="http://www.w3.org/2000/svg">
<path d="M18.0677 39.8271H18.9093C18.7678 41.1632 17.8021 42 16.4897 42C14.9954 42 14 40.7894 14 38.9634V38.3111C14 36.7768 14.8545 35.2699 16.5643 35.2699C18.0093 35.2699 18.7776 36.1625 18.9093 37.4608H18.0677C17.9511 36.5884 17.4676 35.9807 16.5643 35.9807C15.4433 35.9807 14.8416 36.902 14.8416 38.3021V38.9634C14.8416 40.0043 15.2751 41.2937 16.4897 41.2937C17.57 41.2937 17.928 40.7416 18.0677 39.8271Z" fill="black"/>
<path d="M20.8205 35V41.91H20.0052V35H20.8205Z" fill="black"/>
<path d="M21.9076 39.4267C21.9076 38.0065 22.7513 36.9524 24.0598 36.9524C25.4751 36.9524 26.2251 38.2508 26.2251 39.5302C26.2251 40.8077 25.4097 42 24.0685 42C22.6257 42 21.9076 40.7314 21.9076 39.4267ZM22.7185 39.4267C22.7185 40.2776 23.046 41.3162 24.0685 41.3162C25.0039 41.3162 25.4098 40.3543 25.4098 39.5302C25.4098 38.6833 25.0473 37.6362 24.0598 37.6362C23.1918 37.6362 22.7185 38.4442 22.7185 39.4267Z" fill="black"/>
<path d="M30.1439 40.7853V37.0424H30.9592V41.91H30.1833L30.1636 41.3477L30.1439 40.7853ZM30.2973 39.7596L30.6348 39.7506C30.6348 41.0324 30.1459 42 28.7806 42C27.8673 42 27.2245 41.4862 27.2245 40.1825V37.0424H28.0355V40.1915C28.0355 41.0645 28.4705 41.2937 28.9078 41.2937C29.5998 41.2937 29.9867 40.9982 30.1614 40.5379C30.252 40.304 30.2973 40.0446 30.2973 39.7596Z" fill="black"/>
<path d="M35.1847 40.9653V35H36V41.91H35.2548L35.1847 40.9653ZM31.9936 39.5302C31.9936 38.366 32.523 36.9524 33.8697 36.9524C34.4675 36.9524 34.9108 37.171 35.2198 37.5778C35.6845 38.1696 35.7808 38.9588 35.7808 39.6877C35.7166 40.4004 35.5358 40.9767 35.2198 41.3792C34.9108 41.78 34.4645 42 33.8609 42C32.5624 42 31.9936 40.646 31.9936 39.5302ZM32.8089 39.5302C32.8089 40.328 33.1367 41.2937 34.0626 41.2937C34.6034 41.2937 34.9361 41.0366 35.1452 40.6549C35.4458 40.1064 35.3907 39.5544 35.3907 38.9454C35.3556 38.7804 35.3045 38.6215 35.2373 38.4685C35.0451 38.0023 34.691 37.6542 34.0713 37.6542C33.0651 37.6542 32.8089 38.7155 32.8089 39.5302Z" fill="black"/>
<path d="M8 5.03999C8 5.96644 9.3187 7.48352 9.93576 8.22032C11.3734 9.91393 13.1542 11.2854 14.9815 12.5197C16.5447 13.5694 18.2204 14.4343 19.7715 15.4998C20.7597 16.1712 22.0096 17.3196 22.3874 17.8909C22.5444 18.1324 22.649 18.2089 22.649 18.0794C22.649 17.2991 21.1522 15.749 20.6725 15.2583C19.9575 14.5398 19.8762 14.475 18.8705 13.7152C18.0424 13.0965 17.2026 12.5369 16.3418 11.9661C15.4646 11.3816 14.6045 10.7814 13.7375 10.1815C11.8415 8.95911 9.50854 7.05379 8.27322 5.20489C8.16277 5.03999 8 4.93987 8 5.03999Z" fill="#DA1B1B"/>
<path d="M13.4527 6.10596C13.2066 6.35527 14.6758 8.42459 14.906 8.68557C17.2464 11.3413 20.6606 12.6988 22.6548 15.7294C24.4947 18.5537 25.7742 22.3878 29.1306 23.7451C29.7584 23.9983 31.0722 24.0984 32.7929 24.0219C34.7302 23.9456 36.7157 24.1339 38.4897 25.0113C39.5535 25.5472 40.4138 26.1833 41.3207 27.108C41.9253 27.7264 41.9485 27.744 41.9834 27.5909C42.0299 27.4083 41.9718 26.784 41.8962 26.6427C41.6087 26.0602 41.3038 25.5389 40.8789 25.0407C40.7219 24.8464 40.6115 24.6579 40.6115 24.5755C40.6115 24.334 40.3848 23.9571 40.1174 23.7568C38.8381 22.7959 37.2187 22.864 35.868 22.0253C35.6762 21.9075 35.496 21.6013 35.496 21.3951C35.496 20.7276 35.9621 20.1546 36.0773 19.5046C36.2691 18.362 35.6587 17.6317 33.6939 16.6364C30.8454 15.2255 27.2432 14.3453 24.2186 13.3736C23.0174 13.0174 21.7957 12.4028 20.6726 11.8482C18.0833 10.5602 15.4871 8.7498 13.7317 6.39455C13.6097 6.22964 13.505 6.09418 13.4992 6.0824C13.4876 6.07651 13.4702 6.08829 13.4527 6.10596ZM39.4489 23.9512C40.0418 24.1514 40.2336 24.3046 40.3732 24.6638C40.5127 25.0113 40.2801 25.0938 39.9953 24.7934C39.7556 24.5353 39.042 24.3056 39.042 23.9394C39.042 23.8334 39.1233 23.8334 39.4489 23.9512ZM9.27891 9.81636C9.27891 9.88114 9.77303 10.8706 9.86022 10.9766C10.5776 11.8246 11.2575 12.6401 12.1041 13.3736C13.3221 14.4452 14.8208 15.3249 16.2256 16.1122C16.6557 16.3596 17.1208 16.5952 18.7543 17.402C19.7134 17.8791 19.8936 17.9733 20.597 18.4033C21.126 18.7272 21.9747 19.3986 22.3991 19.8285C22.6374 20.07 22.8409 20.2644 22.8525 20.2644C22.8525 20.2644 22.0092 18.9115 20.5331 17.6435C19.4141 16.6459 18.0282 16.1421 16.8069 15.3172C15.0936 13.9671 13.0872 13.0267 11.3426 11.701C11.017 11.4536 10.5985 11.0649 9.81953 10.2875C9.52306 9.99304 9.27891 9.78102 9.27891 9.81636ZM15.8826 20.3645C15.7271 20.522 18.6118 22.6614 19.2193 22.9853C20.435 23.5687 21.8637 24.116 23.1722 24.3811C23.632 24.4829 26.4785 25.8428 26.7589 25.6061C26.7763 25.5826 26.7182 25.506 26.6252 25.4353C25.5792 24.5875 21.4095 21.2656 20.2482 21.2656C20.1203 21.2715 20.1203 21.2715 20.2366 21.3362C20.5531 21.5112 21.5445 22.0789 21.5445 22.4199C21.5445 22.4552 21.5038 22.52 21.4573 22.5613C21.1952 22.7826 20.0323 22.5143 19.725 22.3846C19.6553 22.361 19.4518 22.2903 19.2774 22.2373C18.3706 21.9605 16.5453 20.9358 16.0163 20.4116C15.964 20.3645 15.9058 20.3409 15.8826 20.3645Z" fill="#DA1B1B"/>
<path d="M25.8172 23.4036C26.9043 24.4166 29.6887 27.2966 29.8631 27.5793C29.9329 27.6853 29.8515 27.8031 29.7178 27.8031C29.2534 27.7603 28.6137 27.3599 28.2878 27.0551C28.1134 26.8902 28.0204 26.8784 28.125 27.0316C28.2936 27.2789 29.1365 28.1211 29.6655 28.5805C29.893 28.7773 31.1362 29.35 31.1362 29.6524C31.1362 29.8848 30.4968 29.6166 30.4968 29.7348C30.4968 29.7761 30.8397 29.9469 31.2525 30.1059C31.8698 30.3585 32.4154 29.8955 32.9499 29.994C33.0778 30.0116 33.0894 30.0293 33.2696 30.4239C33.3974 30.7032 34.6863 32.4104 35.1821 31.9081C35.1996 31.8904 35.0891 31.7844 34.9438 31.6666C34.5369 31.3545 34.3392 31.06 34.3334 30.7714C34.3334 29.7737 35.9298 29.2639 36.6877 29.7466C36.9999 29.9335 37.2981 30.3072 37.2981 30.6948C37.2981 30.8951 37.4085 30.8126 37.4492 30.5829C37.5306 30.1353 37.5074 29.6524 37.3969 29.5228C37.24 29.3461 36.8156 29.2342 36.1645 29.1871C35.0542 29.1164 34.4904 28.928 33.9904 28.4686C33.4731 27.9974 33.4963 27.9444 34.2346 27.9091C35.1466 27.8578 35.9335 27.4891 36.7458 27.0963C37.7224 26.6252 38.3212 26.4838 39.321 26.4838C40.0477 26.4838 40.2395 26.4426 39.9721 26.3601C39.7098 26.2877 39.2821 25.9258 39.0653 25.7594C38.2935 25.1339 37.1771 24.8112 36.2227 24.5815C35.6297 24.4402 33.4033 24.4461 32.4151 24.5815C30.9444 24.7876 30.6886 24.8112 30.0027 24.7818C28.6568 24.7254 26.6221 23.8496 25.5208 22.9913C25.1255 22.691 25.2708 22.8912 25.8172 23.4036Z" fill="#DA1B1B"/>
</svg>
