<svg width="50" height="50" viewBox="0 0 50 50" fill="none" xmlns="http://www.w3.org/2000/svg">
<path d="M5 9.04703C5 10.1367 6.57139 11.921 7.30669 12.7876C9.01977 14.7796 11.1418 16.3926 13.3193 17.8443C15.182 19.079 17.1788 20.0963 19.0272 21.3494C20.2048 22.1391 21.6941 23.4898 22.1443 24.1617C22.3314 24.4457 22.456 24.5358 22.456 24.3834C22.456 23.4657 20.6724 21.6425 20.1009 21.0654C19.2488 20.2203 19.1519 20.1441 17.9535 19.2505C16.9667 18.5228 15.9661 17.8646 14.9402 17.1932C13.895 16.5058 12.87 15.7998 11.8369 15.0943C9.57761 13.6565 6.7976 11.4156 5.32557 9.24099C5.19396 9.04703 5 8.92927 5 9.04703Z" fill="#DA1B1B"/>
<path d="M11.4976 10.3008C11.2043 10.594 12.955 13.0279 13.2293 13.3348C16.0182 16.4584 20.0866 18.055 22.463 21.6195C24.6554 24.9413 26.1801 29.4508 30.1797 31.0471C30.9278 31.345 32.4933 31.4628 34.5437 31.3727C36.8522 31.2831 39.2182 31.5044 41.3321 32.5365C42.5998 33.1668 43.625 33.9149 44.7056 35.0025C45.426 35.7298 45.4537 35.7506 45.4953 35.5705C45.5507 35.3557 45.4814 34.6215 45.3914 34.4552C45.0488 33.7702 44.6855 33.157 44.1791 32.5711C43.9921 32.3425 43.8605 32.1208 43.8605 32.0239C43.8605 31.7398 43.5903 31.2965 43.2717 31.061C41.7473 29.9308 39.8175 30.0109 38.2081 29.0245C37.9795 28.8859 37.7647 28.5257 37.7647 28.2833C37.7647 27.4981 38.3202 26.8243 38.4574 26.0597C38.686 24.7159 37.9587 23.8569 35.6174 22.6863C32.223 21.0268 27.9306 19.9915 24.3264 18.8487C22.895 18.4298 21.4392 17.7069 20.1009 17.0546C17.0155 15.5396 13.9218 13.4104 11.8301 10.6402C11.6846 10.4463 11.5599 10.2869 11.553 10.2731C11.5391 10.2662 11.5183 10.28 11.4976 10.3008ZM42.4751 31.2896C43.1817 31.5251 43.4102 31.7052 43.5765 32.1278C43.7427 32.5365 43.4657 32.6334 43.1262 32.2802C42.8406 31.9766 41.9902 31.7065 41.9902 31.2757C41.9902 31.1511 42.0872 31.1511 42.4751 31.2896ZM6.52398 14.6648C6.52398 14.741 7.11277 15.9047 7.21668 16.0294C8.07156 17.0268 8.88175 17.986 9.8905 18.8487C11.3419 20.1091 13.1278 21.1438 14.8017 22.0698C15.3143 22.3607 15.8685 22.6378 17.815 23.5868C18.9579 24.1479 19.1727 24.2587 20.0108 24.7644C20.6412 25.1453 21.6525 25.935 22.1582 26.4407C22.4422 26.7247 22.6847 26.9533 22.6985 26.9533C22.6985 26.9533 21.6936 25.3621 19.9346 23.8708C18.6013 22.6974 16.9498 22.1049 15.4944 21.1346C13.4528 19.5467 11.0621 18.4407 8.98306 16.8814C8.59515 16.5905 8.09641 16.1333 7.16819 15.219C6.81491 14.8726 6.52398 14.6232 6.52398 14.6648ZM14.393 27.0711C14.2077 27.2564 17.6453 29.7726 18.3691 30.1536C19.8178 30.8398 21.5203 31.4834 23.0795 31.7953C23.6274 31.9149 27.0194 33.5145 27.3535 33.2361C27.3742 33.2084 27.305 33.1183 27.1941 33.0352C25.9477 32.038 20.9791 28.1309 19.5952 28.1309C19.4428 28.1378 19.4428 28.1378 19.5814 28.214C19.9585 28.4197 21.1399 29.0875 21.1399 29.4886C21.1399 29.5301 21.0915 29.6063 21.036 29.6548C20.7236 29.9151 19.338 29.5996 18.9718 29.447C18.8887 29.4193 18.6462 29.3362 18.4384 29.2738C17.3578 28.9483 15.1827 27.743 14.5524 27.1265C14.49 27.0711 14.4208 27.0433 14.393 27.0711Z" fill="#DA1B1B"/>
<path d="M26.2314 30.6456C27.5267 31.837 30.8447 35.2243 31.0526 35.5568C31.1357 35.6815 31.0387 35.82 30.8794 35.82C30.326 35.7697 29.5637 35.2988 29.1753 34.9403C28.9675 34.7463 28.8567 34.7325 28.9814 34.9126C29.1823 35.2035 30.1867 36.1941 30.817 36.7344C31.0882 36.9658 32.5696 37.6395 32.5696 37.9951C32.5696 38.2684 31.8076 37.953 31.8076 38.0921C31.8076 38.1406 32.2163 38.3415 32.7081 38.5285C33.4438 38.8256 34.0939 38.2811 34.7308 38.3969C34.8832 38.4177 34.897 38.4384 35.1118 38.9025C35.264 39.2311 36.7999 41.239 37.3908 40.6481C37.4115 40.6274 37.2799 40.5027 37.1068 40.3641C36.6219 39.997 36.3863 39.6507 36.3794 39.3112C36.3794 38.1378 38.2817 37.5382 39.1848 38.1059C39.5569 38.3258 39.9122 38.7653 39.9122 39.2212C39.9122 39.4567 40.0438 39.3597 40.0923 39.0896C40.1893 38.5631 40.1616 37.9951 40.0299 37.8427C39.8429 37.6349 39.3372 37.5033 38.5614 37.4479C37.2384 37.3647 36.5664 37.1431 35.9707 36.6028C35.3542 36.0486 35.3819 35.9863 36.2617 35.9447C37.3484 35.8843 38.2861 35.4508 39.2541 34.9888C40.4179 34.4346 41.1313 34.2684 42.3228 34.2684C43.1887 34.2684 43.4172 34.2199 43.0986 34.1229C42.7861 34.0377 42.2763 33.6121 42.018 33.4164C41.0984 32.6807 39.7681 32.3011 38.6307 32.031C37.9241 31.8647 35.2711 31.8716 34.0935 32.031C32.341 32.2734 32.0362 32.3011 31.2188 32.2665C29.6151 32.2002 27.1904 31.1702 25.8781 30.1607C25.4071 29.8074 25.5802 30.0429 26.2314 30.6456Z" fill="#DA1B1B"/>
</svg>
