<svg width="50" height="50" viewBox="0 0 50 50" fill="none" xmlns="http://www.w3.org/2000/svg">
<path d="M25.375 44.875C36.1446 44.875 44.875 36.1446 44.875 25.375C44.875 14.6054 36.1446 5.875 25.375 5.875C14.6054 5.875 5.875 14.6054 5.875 25.375C5.875 36.1446 14.6054 44.875 25.375 44.875Z" fill="#EA3D27"/>
<path d="M37.6363 17.2031L36.8529 16.6329L13.6522 16.5739L6.03635 24.5172C6.02212 24.8222 6.01409 25.1289 6.01409 25.4374C6.01415 30.4972 7.98799 35.3574 11.5159 38.9844C15.0438 42.6115 19.8474 44.7192 24.9052 44.8595L37.4638 32.1216L37.6363 17.2031Z" fill="#BE2E26"/>
<path d="M25.4573 27.1835C23.844 27.1835 22.5662 25.6489 22.8845 24.0486C23.0893 23.019 23.916 22.1923 24.9456 21.9876C25.4544 21.8863 25.9818 21.9383 26.4612 22.1368C27.431 22.5385 28.0805 23.5106 28.0805 24.5603C28.0789 25.9884 26.8854 27.1819 25.4573 27.1835ZM25.4573 22.7181C24.3132 22.7181 23.43 23.8113 23.6505 24.9197C23.7927 25.6344 24.3832 26.225 25.0979 26.3671C26.2063 26.5876 27.2995 25.7044 27.2995 24.5603C27.2984 23.5573 26.4603 22.7192 25.4573 22.7181Z" fill="white"/>
<path d="M37.5079 26.031C37.4259 26.031 37.3517 25.9568 37.3518 25.8748V17.3709C37.3515 17.2004 37.2837 17.037 37.1632 16.9165C37.0426 16.7959 36.8792 16.7282 36.7087 16.728H14.2058C13.8649 16.7284 13.5633 17.03 13.5629 17.3709V23.6328C13.5629 23.7156 13.4896 23.789 13.4067 23.789C13.3239 23.789 13.2505 23.7156 13.2505 23.6328V17.3709C13.2509 17.1176 13.3516 16.8748 13.5307 16.6958C13.7098 16.5167 13.9526 16.4159 14.2058 16.4156H36.7087C37.2288 16.4162 37.6635 16.8508 37.6641 17.3709V25.8748C37.6642 25.9568 37.59 26.031 37.5079 26.031Z" fill="white"/>
<path d="M37.5079 18.0417H15.1637C15.0809 18.0417 15.0075 17.9684 15.0075 17.8855C15.0075 17.8027 15.0809 17.7293 15.1637 17.7293H37.5079C37.5908 17.7293 37.6641 17.8027 37.6641 17.8855C37.6641 17.9684 37.5908 18.0417 37.5079 18.0417Z" fill="white"/>
<path d="M37.5078 30.7476H13.4658C13.3829 30.7476 13.3096 30.6743 13.3096 30.5914C13.3096 30.5086 13.3829 30.4353 13.4658 30.4353H37.5078C37.5907 30.4353 37.664 30.5086 37.664 30.5914C37.664 30.6743 37.5907 30.7476 37.5078 30.7476Z" fill="white"/>
<path d="M22.9012 34.577C22.8191 34.577 22.7449 34.5028 22.745 34.4208V32.389C22.745 32.3061 22.8183 32.2328 22.9012 32.2328C22.984 32.2328 23.0573 32.3061 23.0573 32.389V34.4208C23.0574 34.5028 22.9832 34.577 22.9012 34.577Z" fill="white"/>
<path d="M28.0131 34.577C27.9311 34.577 27.8569 34.5028 27.8569 34.4208V32.389C27.8569 32.3069 27.9311 32.2328 28.0131 32.2328C28.0952 32.2328 28.1693 32.3069 28.1693 32.389V34.4208C28.1694 34.5028 28.0952 34.577 28.0131 34.577Z" fill="white"/>
<path d="M29.572 35.6152H28.0143C27.9315 35.6152 27.8581 35.5419 27.8581 35.459C27.8581 35.3762 27.9315 35.3028 28.0143 35.3028H29.572C29.6473 35.3027 29.7139 35.2361 29.714 35.1608V34.8335C29.7139 34.7582 29.6473 34.6915 29.572 34.6913H21.3424C21.2671 34.6915 21.2004 34.7582 21.2004 34.8335V35.1608C21.2005 35.2361 21.2671 35.3027 21.3424 35.3028H25.2948C25.3777 35.3028 25.451 35.3762 25.451 35.459C25.451 35.5419 25.3777 35.6152 25.2948 35.6152H21.3423C21.1014 35.615 20.8882 35.4018 20.8879 35.1608V34.8335C20.8882 34.5925 21.1013 34.3793 21.3423 34.379H29.572C29.813 34.3793 30.0261 34.5925 30.0264 34.8335V35.1608C30.0261 35.4018 29.8129 35.615 29.572 35.6152Z" fill="white"/>
<path d="M36.6114 32.519H14.3625C13.7893 32.5184 13.3103 32.0395 13.3097 31.4663V27.4688C13.3103 26.8957 13.7893 26.4167 14.3625 26.4161H21.5711C21.6232 26.4161 21.6737 26.4436 21.7021 26.4872C22.7829 27.3056 24.1015 27.7483 25.4572 27.7478C26.5698 27.7421 27.6614 27.4451 28.6236 26.8865C29.5857 26.3278 30.3848 25.527 30.9413 24.5636C30.3848 23.6003 29.5857 22.7994 28.6236 22.2407C27.6614 21.6821 26.5697 21.3852 25.4572 21.3795C24.8118 21.379 24.1703 21.4796 23.5559 21.6775C23.4774 21.7028 23.3846 21.6552 23.3593 21.5767C23.3339 21.4978 23.3813 21.4055 23.4601 21.3801C24.1055 21.1724 24.7793 21.0668 25.4572 21.0671C26.6399 21.073 27.7999 21.3924 28.8189 21.9929C29.8379 22.5933 30.6795 23.4533 31.2577 24.4851C31.2854 24.5328 31.2854 24.5945 31.2577 24.6422C30.6794 25.674 29.8379 26.5339 28.8189 27.1344C27.7999 27.7348 26.6399 28.0543 25.4572 28.0602C24.029 28.0608 22.64 27.593 21.5032 26.7285H14.3625C13.9699 26.7289 13.6225 27.0762 13.6221 27.4688V31.4663C13.6225 31.8589 13.9699 32.2063 14.3625 32.2067H36.6114C37.004 32.2063 37.3514 31.8589 37.3518 31.4663V28.9729C37.3518 28.8909 37.4259 28.8167 37.5079 28.8167C37.59 28.8167 37.6641 28.8909 37.6641 28.9729V31.4663C37.6635 32.0394 37.1845 32.5184 36.6114 32.519Z" fill="white"/>
<path d="M18.3206 19.7107H18.0082C18.0075 20.3121 17.7683 20.8888 17.343 21.3141C16.9177 21.7394 16.3411 21.9787 15.7396 21.9793V22.2917C16.3411 22.2924 16.9177 22.5316 17.343 22.9569C17.7683 23.3822 18.0075 23.9588 18.0082 24.5603H18.3206C18.3212 23.9588 18.5605 23.3822 18.9858 22.9569C19.4111 22.5316 19.9878 22.2924 20.5892 22.2917V21.9794C19.9877 21.9787 19.4111 21.7395 18.9858 21.3141C18.5604 20.8888 18.3212 20.3122 18.3206 19.7107Z" fill="white"/>
</svg>
