<svg width="50" height="50" viewBox="0 0 50 50" fill="none" xmlns="http://www.w3.org/2000/svg">
<path d="M25 6L41 15.25V33.75L25 43L9 33.75V15.25L25 6Z" fill="#734499"/>
<path d="M28.6146 14.298C29.728 14.119 30.9094 14.1121 31.9405 14.4996C32.9738 14.8879 33.8524 15.6712 34.359 17.0632C34.8662 18.457 34.6399 19.5667 34.0111 20.5027C33.3847 21.4352 32.3602 22.1932 31.2756 22.8919C30.1875 23.5928 29.0413 24.2331 28.1543 24.9349C27.2836 25.6239 26.6773 26.3618 26.6228 27.257H34.6468V29.5873H24.4831V35.1991H21.8709V32.1554H13.8444V29.9033L13.8551 29.8901L21.7866 20.1408L21.8009 20.1233H24.4352L24.481 25.3683C24.8129 24.6866 25.474 24.0596 26.2645 23.4648C27.1351 22.8096 28.1728 22.1863 29.1175 21.5695C30.0649 20.9509 30.9181 20.3393 31.4315 19.7039C31.6877 19.3868 31.857 19.0664 31.9126 18.739C31.968 18.4127 31.9113 18.0753 31.7085 17.7214C31.3019 17.0119 30.6517 16.6733 29.8989 16.5656C29.1444 16.4576 28.2891 16.5823 27.4815 16.7985C26.6746 17.0146 25.9187 17.3211 25.3643 17.5738C25.0872 17.7002 24.8607 17.813 24.7035 17.8942C24.6249 17.9348 24.5636 17.9674 24.522 17.9899C24.5013 18.0011 24.4854 18.0098 24.4748 18.0157C24.4695 18.0186 24.4655 18.0209 24.4629 18.0224C24.4615 18.0231 24.4605 18.0237 24.4598 18.0241C24.4595 18.0242 24.4591 18.0244 24.4591 18.0244L24.459 18.0245L24.4589 18.0246L24.3881 18.0645V15.7194L24.4133 15.7059L24.4356 15.748C24.4149 15.709 24.4134 15.7061 24.4133 15.7059L24.4137 15.7057C24.414 15.7056 24.4144 15.7054 24.4149 15.7051C24.4159 15.7046 24.4173 15.7038 24.4193 15.7028C24.4231 15.7008 24.4289 15.6977 24.4364 15.6938C24.4515 15.686 24.4739 15.6745 24.5031 15.6598C24.5616 15.6304 24.6475 15.5879 24.7575 15.5359C24.9774 15.4319 25.2936 15.2895 25.6792 15.136C26.4504 14.8291 27.5006 14.4771 28.6146 14.298ZM16.694 29.8726H21.9659V23.4048L16.694 29.8726Z" fill="#E5E5E5"/>
</svg>
