<svg width="50" height="50" viewBox="0 0 50 50" fill="none" xmlns="http://www.w3.org/2000/svg">
<path d="M15.0436 29.6417C12.1673 28.5554 10.7587 26.8364 10.7214 24.3897C10.6885 22.2109 11.9939 20.1712 14.0783 19.3739C16.9832 18.2624 19.333 19.1229 21.1628 21.4579L23.0453 18.0261C20.2545 15.1386 15.5351 14.4404 11.8711 16.3535C8.21106 18.2633 6.17118 22.4959 7.23069 26.5306C8.16974 30.1163 11.7504 33.181 15.0436 33.2V29.6417ZM34.8733 15.4613C34.8733 16.3936 34.9216 17.2858 34.858 18.1696C34.8119 18.8023 35.051 19.0343 35.6478 19.2643C39.9869 20.9417 40.5713 26.9013 36.2929 29.0764C33.3688 30.5664 31.0068 29.1707 28.6861 27.4333L26.9616 30.5866C29.5155 33.47 34.3906 34.1892 38.1732 32.2382C42.0061 30.2639 43.9193 25.8177 42.6797 21.7658C41.6375 18.3531 37.8594 15.2588 34.8733 15.4613ZM32.4445 15.3263C30.2966 15.5372 28.5194 16.2523 27.0297 17.6106C24.4605 19.9484 23.3828 23.4895 21.7574 26.4652C20.9346 27.9691 19.7367 29.1017 17.942 29.5278C17.761 29.591 17.6183 29.7412 17.569 29.9201C17.5383 31.0169 17.5514 32.1158 17.5514 33.259C20.3422 33.008 22.5297 31.81 24.0545 29.6733C25.8753 27.1377 26.9595 24.1627 28.5589 21.4979C29.2658 20.2549 30.5376 19.3391 31.9772 19.0365C32.1928 18.9576 32.3608 18.7751 32.416 18.5598C32.4665 17.5178 32.4445 16.4653 32.4445 15.3263Z" fill="#FCFDFD"/>
<path d="M15.0436 29.6417V33.2C11.7526 33.181 8.16974 30.1142 7.23069 26.5306C6.17118 22.4959 8.21106 18.2633 11.8711 16.3535C15.5351 14.4341 20.2545 15.1386 23.0453 18.0261L21.1628 21.4579C19.333 19.1229 16.9832 18.2624 14.0783 19.3739C11.9939 20.1691 10.6885 22.2109 10.7214 24.3897C10.7587 26.8343 12.1673 28.5554 15.0436 29.6417Z" fill="#033D5D"/>
<path d="M34.8733 15.4613C37.8594 15.2504 41.6375 18.3528 42.6797 21.7592C43.9193 25.811 42.0061 30.2573 38.1731 32.2315C34.3906 34.1826 29.5155 33.4633 26.9616 30.58L28.6861 27.4267C31.0108 29.1671 33.362 30.5464 36.2929 29.0698C40.5794 26.8906 39.979 20.9453 35.6478 19.2576C35.051 19.0277 34.8119 18.7894 34.858 18.1629C34.9238 17.2855 34.8733 16.3936 34.8733 15.4613Z" fill="#989A9C"/>
<path d="M32.4445 15.3263C32.4445 16.4653 32.4665 17.5175 32.4248 18.5679C32.3696 18.7832 32.2016 18.9657 31.986 19.0446C30.544 19.3455 29.2694 20.2617 28.5611 21.5061C26.9618 24.1708 25.8776 27.1457 24.0567 29.6815C22.5209 31.8097 20.3444 33.0077 17.5536 33.2672C17.5536 32.124 17.5405 31.025 17.5712 29.9282C17.6205 29.7493 17.7632 29.5992 17.9442 29.5359C19.7389 29.1141 20.9368 27.9772 21.7596 26.4733C23.3785 23.4967 24.4649 19.9545 27.0318 17.6187C28.5194 16.252 30.2966 15.5288 32.4445 15.3263Z" fill="#03B2A9"/>
</svg>
