<svg width="50" height="50" viewBox="0 0 50 50" fill="none" xmlns="http://www.w3.org/2000/svg">
<path d="M11 11C11 8.79086 12.7909 7 15 7H28.1716C28.702 7 29.2107 7.21071 29.5858 7.58579L38.4142 16.4142C38.7893 16.7893 39 17.298 39 17.8284V39C39 41.2091 37.2091 43 35 43H15C12.7909 43 11 41.2091 11 39V11Z" fill="white"/>
<path fill-rule="evenodd" clip-rule="evenodd" d="M28.1716 7C28.702 7 29.2107 7.21071 29.5858 7.58579L38.4142 16.4142C38.7893 16.7893 39 17.298 39 17.8284V39C39 41.2091 37.2091 43 35 43H15C12.7909 43 11 41.2091 11 39V11C11 8.79086 12.7909 7 15 7H28.1716ZM28 14C28 16.2091 29.7909 18 32 18H38V39C38 40.6569 36.6568 42 35 42H15C13.3431 42 12 40.6569 12 39V11C12 9.34315 13.3431 8 15 8H28V14ZM29 14C29 15.6569 30.3431 17 32 17H37.5858L29 8.41426V14Z" fill="#AEB7CC"/>
<path d="M40.0192 37.3332C41.1578 37.3319 42.1378 36.3993 42.1391 35.2498V24.7498C42.1378 23.6003 41.1578 22.6678 40.0192 22.6665H9.98121C8.84261 22.6678 7.86264 23.6003 7.86133 24.7498V35.2498C7.86264 36.3993 8.84261 37.3319 9.98121 37.3332H40.0192ZM31.0612 25.8485L33.1734 31.9191L35.2173 25.8485H37.0041L34.0153 34.0517H32.2163L29.2331 25.8485H31.0612ZM24.7975 30.4584C23.5397 30.1522 22.1127 29.4785 22.1275 27.9967C22.1272 26.4054 23.7729 25.6724 25.1738 25.7076C26.7049 25.7076 28.3774 26.4211 28.3732 28.1918L26.6882 28.2644C26.6113 27.4702 25.9195 27.0238 25.1568 27.0785C24.651 27.05 23.7233 27.2181 23.7392 27.8842C23.741 28.6901 24.9703 28.7987 25.5381 28.9303C27.0311 29.2302 28.6555 29.9239 28.6119 31.6762C28.5669 33.4794 26.847 34.2412 25.2702 34.1949C23.5235 34.1949 21.9483 33.2685 21.826 31.3806L23.4657 31.2243C23.5756 32.1618 24.3356 32.8465 25.2875 32.7965C25.9908 32.8467 26.9138 32.4753 26.9272 31.6662C26.9501 30.7538 25.4206 30.6107 24.7975 30.4584ZM17.3837 25.7084C18.9204 25.6445 20.3542 26.5967 20.7257 28.1084L19.0577 28.4991C18.8983 27.6763 18.13 27.0916 17.2984 27.1228C15.7915 27.0754 15.2146 28.6011 15.2146 29.898C15.2146 31.2028 15.6619 32.8199 17.264 32.7738C18.2544 32.7929 18.9555 31.9566 19.1141 31.034L20.748 31.5431C20.3773 33.1666 18.9412 34.2545 17.2809 34.1886C14.9129 34.2606 13.4781 32.2162 13.4781 30.0204C13.4784 27.7403 14.8992 25.6107 17.3837 25.7084Z" fill="#A36BAE"/>
</svg>
