<svg width="50" height="50" viewBox="0 0 50 50" fill="none" xmlns="http://www.w3.org/2000/svg">
<path d="M32.7725 41.2031C32.7725 40.5396 32.4428 40.2222 31.083 39.8262C29.6722 39.4081 28.7783 38.8321 28.7783 37.7266C28.7783 36.6105 29.749 35.793 31.1953 35.793C32.4311 35.793 33.7002 36.5767 33.7002 37.9414H32.7627C32.7627 37.1326 32.2515 36.5645 31.1953 36.5645C30.1923 36.5645 29.7207 37.049 29.7207 37.7168C29.7207 38.3178 30.2312 38.6851 31.3857 39.0059C32.998 39.4609 33.7197 40.081 33.7197 41.1934C33.7197 42.3485 32.7511 43.0977 31.2393 43.0977C29.9765 43.0977 28.5537 42.3613 28.5537 40.9395H29.4912C29.4912 41.9146 30.3379 42.3311 31.2393 42.3311C32.2286 42.3311 32.7725 41.8923 32.7725 41.2031Z" fill="black"/>
<path fill-rule="evenodd" clip-rule="evenodd" d="M25.3115 35.8906H24.4863L21.7764 43H22.7383L23.414 41.1396H26.3873L27.0645 43H28.0312L25.3115 35.8906ZM24.8991 37.051L23.6942 40.3682H26.1065L24.8991 37.051Z" fill="black"/>
<path fill-rule="evenodd" clip-rule="evenodd" d="M17.7676 40.2119H19.4473C21.0621 40.2119 21.9424 39.4243 21.9424 38.0586C21.9424 36.7926 21.0546 35.8906 19.4473 35.8906H16.8252V43H17.7676V40.2119ZM17.7676 39.4453V36.6621H19.4473C20.3026 36.6621 21 37.1856 21 38.0684C21 38.8658 20.5531 39.4453 19.4473 39.4453H17.7676Z" fill="black"/>
<path d="M14.3487 24.1053L24.911 30H25.1278L35.6704 24.0861L35.7689 23.9139V17.8278L35.4536 17.6555L30.3301 20.5263V15.2632L35.6507 12.2775V11.933L25.1081 6H24.8913L14.329 11.933L14.2305 12.1053L14.2502 23.933L14.3487 24.1053ZM24.8125 29.4833L14.8808 23.933L19.886 21.1196L24.8125 23.8756V29.4833V29.4833ZM35.3551 18.1914V23.799L25.2263 29.4833V23.8756L35.3551 18.1914ZM25.2066 6.53589L35.1383 12.0861L30.1331 14.8995L25.2066 12.1435V6.53589V6.53589ZM25.2066 12.622L29.9163 15.2632V20.5455L25.2066 17.8852V12.622V12.622ZM25.0096 18.2488L29.7192 20.89L25.0096 23.512L20.2999 20.89L25.0096 18.2488V18.2488ZM20.0831 20.5263V15.2632L24.7928 12.622V17.8852L20.0831 20.5263ZM24.7928 6.53589V12.1435L19.886 14.8995L14.8611 12.1053L24.7928 6.53589ZM19.6496 15.244V20.7751H19.6693L14.664 23.5885L14.6443 12.4498L19.6496 15.244V15.244Z" fill="url(#paint0_linear_9176_11171)"/>
<defs>
<linearGradient id="paint0_linear_9176_11171" x1="24.9997" y1="6" x2="24.9997" y2="30" gradientUnits="userSpaceOnUse">
<stop stop-color="#37ADE3"/>
<stop offset="0.246285" stop-color="#329DD8"/>
<stop offset="0.55088" stop-color="#2F8DCD"/>
<stop offset="1" stop-color="#1A66B5"/>
</linearGradient>
</defs>
</svg>
