<svg width="50" height="50" viewBox="0 0 50 50" fill="none" xmlns="http://www.w3.org/2000/svg">
<path d="M14.3487 24.1053L24.911 30H25.1278L35.6704 24.0861L35.7689 23.9139V17.8278L35.4536 17.6555L30.3301 20.5263V15.2632L35.6507 12.2775V11.933L25.1081 6H24.8913L14.329 11.933L14.2305 12.1053L14.2502 23.933L14.3487 24.1053ZM24.8125 29.4833L14.8808 23.933L19.886 21.1196L24.8125 23.8756V29.4833V29.4833ZM35.3551 18.1914V23.799L25.2263 29.4833V23.8756L35.3551 18.1914ZM25.2066 6.53589L35.1383 12.0861L30.1331 14.8995L25.2066 12.1435V6.53589V6.53589ZM25.2066 12.622L29.9163 15.2632V20.5455L25.2066 17.8852V12.622V12.622ZM25.0096 18.2488L29.7192 20.89L25.0096 23.512L20.2999 20.89L25.0096 18.2488V18.2488ZM20.0831 20.5263V15.2632L24.7928 12.622V17.8852L20.0831 20.5263ZM24.7928 6.53589V12.1435L19.886 14.8995L14.8611 12.1053L24.7928 6.53589ZM19.6496 15.244V20.7751H19.6693L14.664 23.5885L14.6443 12.4498L19.6496 15.244V15.244Z" fill="url(#paint0_linear_9176_11169)"/>
<path d="M21.8151 33.8208V41.1004H20.9336V33.8208H21.8151Z" fill="#1C1D1F"/>
<path d="M29.2469 41.1002V37.4545C29.4413 37.0016 29.8257 36.721 30.4175 36.721C30.5856 36.721 30.7019 36.7281 30.8441 36.759L30.8488 35.9438C30.7854 35.9121 30.5861 35.8774 30.4602 35.8774C29.9092 35.8774 29.5084 36.1231 29.2469 36.5504L29.2405 36.5608L29.2232 35.9722H28.3701V41.1002H29.2469Z" fill="#1C1D1F"/>
<path fill-rule="evenodd" clip-rule="evenodd" d="M31.332 38.5931C31.332 37.2077 32.1206 35.8774 33.659 35.8774C35.1012 35.8774 36.0003 36.9965 36.0003 38.4841C36.0003 39.8905 35.2047 41.195 33.6685 41.195C32.2437 41.195 31.332 39.9715 31.332 38.5931ZM32.2088 38.5931C32.2088 39.6093 32.6911 40.4746 33.6685 40.4746C34.6482 40.4746 35.1188 39.599 35.1188 38.5931C35.1188 37.6803 34.7081 36.5978 33.659 36.5978C32.6086 36.5978 32.2088 37.6825 32.2088 38.5931Z" fill="#1C1D1F"/>
<path fill-rule="evenodd" clip-rule="evenodd" d="M25.3506 41.1955C26.3723 41.1955 26.9489 40.7055 27.2795 40.2049L26.7487 39.7831C26.4264 40.2065 26.0172 40.4798 25.398 40.4798C24.4507 40.4798 23.8994 39.6525 23.8775 38.7831H27.3458C27.3458 37.3703 26.9413 35.8779 25.2368 35.8779C23.7084 35.8779 22.9951 37.3851 22.9951 38.7168C22.9951 40.0675 23.9345 41.1955 25.3506 41.1955ZM26.4691 38.0675H23.9031C24.0227 37.1173 24.547 36.5983 25.2368 36.5983C26.035 36.5983 26.4691 37.3391 26.4691 38.0675Z" fill="#1C1D1F"/>
<path fill-rule="evenodd" clip-rule="evenodd" d="M17.4313 34.2002L20.0711 41.1007H19.1327L18.4755 39.295H15.5895L14.9336 41.1007H14L16.6303 34.2002H17.4313ZM15.8615 38.5462L17.031 35.3264L18.2029 38.5462H15.8615Z" fill="#1C1D1F"/>
<defs>
<linearGradient id="paint0_linear_9176_11169" x1="24.9997" y1="6" x2="24.9997" y2="30" gradientUnits="userSpaceOnUse">
<stop stop-color="#37ADE3"/>
<stop offset="0.246285" stop-color="#329DD8"/>
<stop offset="0.55088" stop-color="#2F8DCD"/>
<stop offset="1" stop-color="#1A66B5"/>
</linearGradient>
</defs>
</svg>
