<svg width="50" height="50" viewBox="0 0 50 50" fill="none" xmlns="http://www.w3.org/2000/svg">
<path d="M14.3487 24.1053L24.911 30H25.1278L35.6704 24.0861L35.7689 23.9139V17.8278L35.4536 17.6555L30.3301 20.5263V15.2632L35.6507 12.2775V11.933L25.1081 6H24.8913L14.329 11.933L14.2305 12.1053L14.2502 23.933L14.3487 24.1053ZM24.8125 29.4833L14.8808 23.933L19.886 21.1196L24.8125 23.8756V29.4833V29.4833ZM35.3551 18.1914V23.799L25.2263 29.4833V23.8756L35.3551 18.1914ZM25.2066 6.53589L35.1383 12.0861L30.1331 14.8995L25.2066 12.1435V6.53589V6.53589ZM25.2066 12.622L29.9163 15.2632V20.5455L25.2066 17.8852V12.622V12.622ZM25.0096 18.2488L29.7192 20.89L25.0096 23.512L20.2999 20.89L25.0096 18.2488V18.2488ZM20.0831 20.5263V15.2632L24.7928 12.622V17.8852L20.0831 20.5263ZM24.7928 6.53589V12.1435L19.886 14.8995L14.8611 12.1053L24.7928 6.53589ZM19.6496 15.244V20.7751H19.6693L14.664 23.5885L14.6443 12.4498L19.6496 15.244V15.244Z" fill="url(#paint0_linear_9176_11172)"/>
<path d="M7.91436 41.2901V41.9198H4.65169V41.2901H7.91436ZM4.81673 36.0802V41.9198H4V36.0802H4.81673ZM7.48272 38.5909V39.2206H4.65169V38.5909H7.48272ZM7.87204 36.0802V36.7139H4.65169V36.0802H7.87204Z" fill="black"/>
<path d="M11.1982 39.6297H9.55204V39H11.1982C12.1568 39 12.5439 38.5237 12.5439 37.869C12.5439 37.116 11.907 36.7139 11.1982 36.7139H9.74247V41.9198H8.92574V36.0802H11.1982C12.5913 36.0802 13.3606 36.8212 13.3606 37.861C13.3606 38.9828 12.5975 39.6297 11.1982 39.6297Z" fill="black"/>
<path d="M14.6513 36.0802H15.4426L17.4612 40.8409L19.4755 36.0802H20.271L17.7658 41.9198H17.148L14.6513 36.0802ZM14.3931 36.0802H15.0914L15.2056 41.9198H14.3931V36.0802ZM19.8267 36.0802H20.5249V41.9198H19.7124L19.8267 36.0802Z" fill="black"/>
<path d="M27.393 40.4439C27.393 39.8995 27.1082 39.6384 25.9289 39.3128C24.7065 38.9696 23.9315 38.4964 23.9315 37.5882C23.9315 36.6716 24.7727 36 26.0262 36C27.0606 36 28.1971 36.6195 28.1971 37.7647H27.3846C27.3846 37.1006 26.9419 36.6337 26.0262 36.6337C25.1571 36.6337 24.7482 37.0314 24.7482 37.5802C24.7482 38.0746 25.1914 38.3758 26.1912 38.639C27.5895 39.0131 28.214 39.5231 28.214 40.4358C28.214 41.3847 27.3743 42 26.0643 42C25.0152 42 23.7368 41.4154 23.7368 40.2273H24.5493C24.5493 41.0288 25.2836 41.3703 26.0643 41.3703C26.9219 41.3703 27.393 41.0097 27.393 40.4439Z" fill="black"/>
<path d="M32.5388 40.4439C32.5388 39.8995 32.254 39.6384 31.0747 39.3128C29.8523 38.9696 29.0773 38.4964 29.0773 37.5882C29.0773 36.6716 29.9185 36 31.172 36C32.2064 36 33.3429 36.6195 33.3429 37.7647H32.5304C32.5304 37.1006 32.0877 36.6337 31.172 36.6337C30.3029 36.6337 29.894 37.0314 29.894 37.5802C29.894 38.0746 30.3372 38.3758 31.337 38.639C32.7353 39.0131 33.3598 39.5231 33.3598 40.4358C33.3598 41.3847 32.5201 42 31.2101 42C30.0825 42 28.8826 41.3982 28.8826 40.2273H29.6951C29.6951 41.0288 30.4294 41.3703 31.2101 41.3703C32.0677 41.3703 32.5388 41.0097 32.5388 40.4439Z" fill="black"/>
<path d="M36.6732 39.6297H35.0271V39H36.6732C37.6318 39 38.0189 38.5237 38.0189 37.869C38.0189 37.116 37.382 36.7139 36.6732 36.7139H35.2175V41.9198H34.4008V36.0802H36.6732C38.0664 36.0802 38.8357 36.8212 38.8357 37.861C38.8357 38.9828 38.0725 39.6297 36.6732 39.6297Z" fill="black"/>
<path d="M40.1263 36.0802H40.9177L42.9362 40.8409L44.9505 36.0802H45.7461L43.2409 41.9198H42.6231L40.1263 36.0802ZM39.8682 36.0802H40.5664L40.6807 39.6417V41.9198H39.8682V36.0802ZM45.3018 36.0802H46V41.9198H45.1875V39.6417L45.3018 36.0802Z" fill="black"/>
<defs>
<linearGradient id="paint0_linear_9176_11172" x1="24.9997" y1="6" x2="24.9997" y2="30" gradientUnits="userSpaceOnUse">
<stop stop-color="#37ADE3"/>
<stop offset="0.246285" stop-color="#329DD8"/>
<stop offset="0.55088" stop-color="#2F8DCD"/>
<stop offset="1" stop-color="#1A66B5"/>
</linearGradient>
</defs>
</svg>
