<svg width="50" height="50" viewBox="0 0 50 50" fill="none" xmlns="http://www.w3.org/2000/svg">
<path d="M14.3487 24.1053L24.911 30H25.1278L35.6704 24.0861L35.7689 23.9139V17.8278L35.4536 17.6555L30.3301 20.5263V15.2632L35.6507 12.2775V11.933L25.1081 6H24.8913L14.329 11.933L14.2305 12.1053L14.2502 23.933L14.3487 24.1053ZM24.8125 29.4833L14.8808 23.933L19.886 21.1196L24.8125 23.8756V29.4833ZM35.3551 18.1914V23.799L25.2263 29.4833V23.8756L35.3551 18.1914ZM25.2066 6.53589L35.1383 12.0861L30.1331 14.8995L25.2066 12.1435V6.53589ZM25.2066 12.622L29.9163 15.2632V20.5455L25.2066 17.8852V12.622ZM25.0096 18.2488L29.7192 20.89L25.0096 23.512L20.2999 20.89L25.0096 18.2488ZM20.0831 20.5263V15.2632L24.7928 12.622V17.8852L20.0831 20.5263ZM24.7928 6.53589V12.1435L19.886 14.8995L14.8611 12.1053L24.7928 6.53589ZM19.6496 15.244V20.7751H19.6693L14.664 23.5885L14.6443 12.4498L19.6496 15.244Z" fill="url(#paint0_linear_9176_11168)"/>
<path d="M9.2334 33.8906V41H8.29102V33.8906H9.2334Z" fill="#1C1D1F"/>
<path d="M14.1406 33.5H15.0488V41H14.2188L14.1406 33.5ZM10.5859 38.417C10.5859 37.1246 11.2021 35.6191 12.6758 35.6191C13.3418 35.6191 13.8356 35.8564 14.1797 36.2979C14.6943 36.9363 14.8047 37.7944 14.8047 38.5879C14.7689 38.9753 14.6989 39.3236 14.5947 39.6328C14.2939 40.5545 13.6777 41.0977 12.666 41.0977C11.4403 41.0977 10.5859 39.955 10.5859 38.417ZM11.4941 38.417C11.4941 39.4721 11.909 40.3311 12.8906 40.3311C13.7088 40.3311 14.1716 39.7032 14.3701 38.959C14.3701 37.9018 14.3404 36.3809 12.9004 36.3809C11.8244 36.3809 11.4941 37.5052 11.4941 38.417Z" fill="#1C1D1F"/>
<path d="M19.5703 37.377C19.5703 36.7488 19.1876 36.3467 18.457 36.3467C17.7833 36.3467 17.3145 36.7362 17.3145 37.1816H16.4111C16.4111 36.146 17.6263 35.6191 18.5107 35.6191C19.2825 35.6191 19.8892 35.8804 20.2197 36.4053C20.389 36.6657 20.4736 36.9928 20.4736 37.3867V39.8477C20.4736 40.0234 20.4883 40.2106 20.5176 40.4092C20.5498 40.6059 20.6592 40.8043 20.6592 41H19.7168C19.2672 39.9723 19.5703 38.4589 19.5703 37.377ZM19.7266 37.7969L19.7363 38.4316H18.8232C17.802 38.4316 17.207 38.7469 17.207 39.4082C17.207 39.9076 17.5572 40.3066 18.2178 40.3066C18.8141 40.3066 19.617 39.8817 19.6582 39.208L20.0439 39.6426C19.9541 40.1817 19.2586 41.0977 18.0859 41.0977C17.1816 41.0977 16.2988 40.5136 16.2988 39.5303C16.2988 38.3831 17.241 37.7969 18.6768 37.7969H19.7266Z" fill="#1C1D1F"/>
<path d="M22.7979 36.7324V43.0312H21.8896V35.7168H22.7197L22.7588 36.2246L22.7979 36.7324ZM26.3574 38.417C26.3574 39.938 25.629 41.0977 24.3066 41.0977C23.6361 41.0977 23.1217 40.8714 22.7637 40.4482C22.5846 40.2367 22.4414 39.9827 22.334 39.6865C22.2298 39.3903 22.1582 39.0566 22.1191 38.6855C22.1191 37.2739 22.6553 35.6191 24.292 35.6191C25.8351 35.6191 26.3574 37.107 26.3574 38.417ZM25.4492 38.417C25.4492 37.504 25.1365 36.3809 24.0283 36.3809C23.1389 36.3809 22.706 37.0453 22.5586 37.7822V39.0469C22.6237 39.2747 22.7148 39.4896 22.832 39.6914C23.0655 40.0871 23.4434 40.3555 24.0381 40.3555C25.0565 40.3555 25.4492 39.3031 25.4492 38.417Z" fill="#1C1D1F"/>
<path d="M29.7217 35.7168V36.4102H26.8652V35.7168H29.7217ZM27.832 34.4326H28.7354V39.6914C28.7354 40.2965 29.2667 40.3722 29.7412 40.2627L29.7461 41C28.6923 41.3353 27.832 40.8256 27.832 39.6865V34.4326Z" fill="#1C1D1F"/>
<path d="M31.7627 35.7168V41H30.8545V35.7168H31.7627ZM30.7861 34.3154C30.7861 34.0201 30.9696 33.793 31.3184 33.793C31.6662 33.793 31.8555 34.0248 31.8555 34.3154C31.8555 34.5907 31.6694 34.8232 31.3184 34.8232C30.9665 34.8232 30.7861 34.5951 30.7861 34.3154Z" fill="#1C1D1F"/>
<path d="M34.8193 40.1846L36.2646 35.7168H37.1875L35.2881 41H34.6826L34.8193 40.1846ZM33.6133 35.7168L35.1025 40.209L35.2051 41H34.5996L32.6855 35.7168H33.6133Z" fill="#1C1D1F"/>
<path d="M40.1807 41.0977C38.7204 41.0977 37.7539 40.0356 37.7539 38.5439C37.7539 37.1562 38.4517 35.6191 40.0635 35.6191C41.7289 35.6191 42.2363 37.1516 42.2363 38.6123H38.291V37.875H41.333C41.333 37.107 40.9103 36.3613 40.0635 36.3613C38.8986 36.3613 38.6621 37.6294 38.6621 38.5439C38.6621 39.5479 39.2524 40.3604 40.2295 40.3604C40.8675 40.3604 41.2891 40.0788 41.6211 39.6426L42.168 40.0771C41.8274 40.5928 41.2334 41.0977 40.1807 41.0977Z" fill="#1C1D1F"/>
<defs>
<linearGradient id="paint0_linear_9176_11168" x1="24.9997" y1="6" x2="24.9997" y2="30" gradientUnits="userSpaceOnUse">
<stop stop-color="#37ADE3"/>
<stop offset="0.246285" stop-color="#329DD8"/>
<stop offset="0.55088" stop-color="#2F8DCD"/>
<stop offset="1" stop-color="#1A66B5"/>
</linearGradient>
</defs>
</svg>
