<svg width="50" height="50" viewBox="0 0 50 50" fill="none" xmlns="http://www.w3.org/2000/svg">
<path d="M7.69213 34.9211L24.8559 44.5H25.2081L42.3399 34.89L42.5 34.61V24.7201L41.9876 24.4402L33.6619 29.1053V20.5526L42.3079 15.701V15.1411L25.1761 5.5H24.8239L7.66011 15.1411L7.5 15.4211L7.53202 34.6411L7.69213 34.9211ZM24.6958 43.6603L8.55672 34.6411L16.6903 30.0694L24.6958 34.5478V43.6603ZM41.8275 25.311V34.4234L25.3683 43.6603V34.5478L41.8275 25.311ZM25.3362 6.37081L41.4753 15.39L33.3417 19.9617L25.3362 15.4833V6.37081ZM25.3362 16.2608L32.9895 20.5526V29.1364L25.3362 24.8134V16.2608ZM25.016 25.4043L32.6693 29.6962L25.016 33.9569L17.3628 29.6962L25.016 25.4043ZM17.0105 29.1053V20.5526L24.6638 16.2608V24.8134L17.0105 29.1053ZM24.6638 6.37081V15.4833L16.6903 19.9617L8.5247 15.4211L24.6638 6.37081ZM16.306 20.5215V29.5096H16.3381L8.20448 34.0813L8.17246 15.9809L16.306 20.5215Z" fill="url(#paint0_linear_1086_12051)"/>
<defs>
<linearGradient id="paint0_linear_1086_12051" x1="25" y1="5.5" x2="25" y2="44.5" gradientUnits="userSpaceOnUse">
<stop stop-color="#37ADE3"/>
<stop offset="0.246285" stop-color="#329DD8"/>
<stop offset="0.55088" stop-color="#2F8DCD"/>
<stop offset="1" stop-color="#1A66B5"/>
</linearGradient>
</defs>
</svg>
