<svg width="50" height="50" viewBox="0 0 50 50" fill="none" xmlns="http://www.w3.org/2000/svg">
<path d="M27.2665 32.8364C27.5584 32.7704 27.8431 32.6819 28.1188 32.5938C28.7936 32.3781 29.4152 32.1639 29.9605 32.2832C31.7398 32.6601 33.5985 32.4289 35.2223 31.6285C37.7181 30.5137 39.4201 28.3182 39.4249 25.5424C39.4287 23.3674 38.3648 21.6031 36.3547 20.2151C32.5873 23.873 29.5111 28.1451 27.2665 32.8364ZM14.3231 20.2326C13.0855 21.2091 12.2389 22.2507 11.7515 23.3456C9.83315 27.6552 14.0544 32.773 18.64 32.4863C20.1186 32.3952 21.6117 32.4688 23.1841 32.4688C23.1819 32.4641 23.1797 32.4594 23.1775 32.4548C21.0922 28.0138 18.0975 24.1145 14.5572 20.4592C14.4795 20.3789 14.4014 20.2987 14.3231 20.2186V20.2326Z" fill="#179BC8"/>
<path d="M8.47707 15.4361L13.1474 18.7061L13.135 18.7175L11.7048 20.0295L8.47934 15.4393L8.47707 15.4361Z" fill="#0C6585"/>
<path d="M38.991 19.998L37.296 18.9792L41.8581 15.7547L41.8482 15.7694L38.9941 19.9934L38.991 19.998Z" fill="#0C6483"/>
<path d="M27.2665 32.8364C29.513 28.1513 32.589 23.8852 36.3547 20.2325C38.3594 21.6169 39.423 23.3754 39.4249 25.5424C39.4274 28.3216 37.7201 30.5285 35.2223 31.6459C33.5985 32.4463 31.7397 32.6776 29.9605 32.3006C29.4104 32.169 28.7914 32.3792 28.1188 32.5938C27.8431 32.6819 27.5584 32.7704 27.2665 32.8364ZM34.3279 26.965C33.5164 26.923 32.687 25.8832 31.9188 26.804C30.9379 27.9803 30.1156 29.2827 29.0661 30.7602C32.5066 30.1335 36.1852 30.6271 37.1084 26.5064C37.4979 24.7839 36.9858 23.3204 35.28 22.4207C33.8699 24.2342 33.8699 24.2342 34.6453 26.741L34.3279 26.965Z" fill="#F2F5F7"/>
<path d="M14.3231 20.2186C14.4014 20.2987 14.4795 20.3789 14.5572 20.4592C18.1012 24.1182 21.0985 28.0183 23.1841 32.4548C23.1819 32.4548 23.1797 32.4548 23.1775 32.4548C21.6075 32.4546 20.1165 32.3814 18.64 32.4723C14.0521 32.7592 9.85234 27.6551 11.7515 23.3456C12.2363 22.2455 13.0819 21.1992 14.3231 20.2186ZM16.1588 27.0002C14.9126 25.825 17.2857 23.7911 14.7414 22.4453C12.1015 25.5962 13.4864 29.5874 17.4751 30.2246C18.6688 30.4172 19.8842 30.5047 21.4422 30.6798C20.5874 29.5559 19.7327 28.7402 19.2783 27.7529C18.4885 26.0934 17.4571 26.2264 16.1588 27.0002Z" fill="#F2F5F6"/>
<path d="M34.6453 26.741C33.8699 24.2342 33.8699 24.2342 35.28 22.4207C36.9858 23.3204 37.4979 24.7839 37.1084 26.5064C36.1852 30.6271 32.5066 30.1335 29.0661 30.7602C30.1156 29.2827 30.9379 27.9803 31.9188 26.804C32.687 25.8832 33.5164 26.923 34.3279 26.965L34.6453 26.741Z" fill="#31363A"/>
<path d="M16.1588 27.0002C17.4571 26.2194 18.4885 26.0934 19.2675 27.7529C19.7291 28.7402 20.5838 29.5559 21.4313 30.6798C19.877 30.5047 18.6616 30.4172 17.4643 30.2246C13.4756 29.5874 12.0907 25.6067 14.7306 22.4453C17.4793 23.8993 15.5395 27.2661 16.1588 27.0002Z" fill="#32373B"/>
<path d="M16.1588 27.0002C15.6954 27.2071 15.7925 26.6447 16.1588 27.0002V27.0002Z" fill="#F2F5F6"/>
<path fill-rule="evenodd" clip-rule="evenodd" d="M6.94434 13.8887L8.09839 15.093L8.47934 15.4393L8.47707 15.4361L13.1474 18.7061L13.135 18.7175L13.1438 18.7236L11.7012 20.047C9.3931 23.0124 8.6105 26.1704 10.5544 29.5874C12.4982 33.0044 15.726 33.9007 19.5452 33.6696C22.5962 33.4841 24.0532 34.5589 25.2686 37.4998C26.9672 34.3488 28.1068 33.5996 31.0965 33.6486C31.7024 33.6591 32.3047 33.7151 32.8998 33.6801C37.4907 33.4106 40.5634 30.7147 41.1296 26.4435C41.4578 23.9822 40.2893 21.9691 39.0018 19.998L38.9941 19.9934L38.991 19.998L37.296 18.9792L41.8581 15.7547L41.8482 15.7694L41.8689 15.7547L43.0554 14.2073C42.1142 14.3823 41.7139 14.4348 41.328 14.5294C39.2795 15.037 37.2635 15.6812 35.197 16.0313C33.502 16.3184 31.7421 16.2764 30.011 16.3814H20.7894C18.878 16.2414 16.9305 16.2694 15.0588 15.9193C12.4838 15.4326 9.96652 14.6624 6.94434 13.8887ZM27.2665 32.8364C29.5111 28.1451 32.5873 23.873 36.3547 20.2151C38.3648 21.6031 39.4287 23.3674 39.4249 25.5424C39.4274 28.3216 37.7201 30.5285 35.2223 31.6459C33.5985 32.4463 31.7397 32.6776 29.9605 32.3006C29.4104 32.169 28.7914 32.3792 28.1188 32.5938C27.8431 32.6819 27.5584 32.7704 27.2665 32.8364ZM11.7515 23.3456C12.2363 22.2455 13.0819 21.1992 14.3231 20.2186C14.4014 20.2987 14.4795 20.3789 14.5572 20.4592C18.1012 24.1182 21.0985 28.0183 23.1841 32.4548C23.1819 32.4548 23.1797 32.4548 23.1775 32.4548C23.1797 32.4594 23.1819 32.4641 23.1841 32.4688C21.6117 32.4688 20.1186 32.3952 18.64 32.4863C14.0544 32.773 9.83315 27.6552 11.7515 23.3456Z" fill="#179BC8"/>
</svg>
