<svg width="50" height="50" viewBox="0 0 50 50" fill="none" xmlns="http://www.w3.org/2000/svg">
<path d="M22.3599 38.9771H20.6504V38.2871H22.3599C23.3551 38.2871 23.7573 37.7655 23.7573 37.0479C23.7573 36.3899 23.3509 35.7822 22.3599 35.7822H20.8481V41.4863H20V35.0879H22.3599C23.8065 35.0879 24.6055 35.8997 24.6055 37.0391C24.6055 38.2682 23.8132 38.9771 22.3599 38.9771Z" fill="black"/>
<path d="M29.5405 39.4517H30.3843C30.2398 40.7808 29.2506 41.5742 27.9585 41.5742C25.9383 41.5742 25.4624 39.6325 25.4624 37.9707C25.4624 36.4414 26.3492 35 28.0332 35C29.482 35 30.2522 35.8721 30.3843 37.1401H29.5405C29.4213 36.2715 28.9238 35.6943 28.0332 35.6943C26.9096 35.6943 26.3062 36.594 26.3062 37.9619C26.3062 39.1265 26.4423 40.8843 27.9585 40.8843C29.0416 40.8843 29.4004 40.3448 29.5405 39.4517Z" fill="black"/>
<path d="M14.3487 24.1053L24.911 30H25.1278L35.6704 24.0861L35.7689 23.9139V17.8278L35.4536 17.6555L30.3301 20.5263V15.2632L35.6507 12.2775V11.933L25.1081 6H24.8913L14.329 11.933L14.2305 12.1053L14.2502 23.933L14.3487 24.1053ZM24.8125 29.4833L14.8808 23.933L19.886 21.1196L24.8125 23.8756V29.4833V29.4833ZM35.3551 18.1914V23.799L25.2263 29.4833V23.8756L35.3551 18.1914ZM25.2066 6.53589L35.1383 12.0861L30.1331 14.8995L25.2066 12.1435V6.53589V6.53589ZM25.2066 12.622L29.9163 15.2632V20.5455L25.2066 17.8852V12.622V12.622ZM25.0096 18.2488L29.7192 20.89L25.0096 23.512L20.2999 20.89L25.0096 18.2488V18.2488ZM20.0831 20.5263V15.2632L24.7928 12.622V17.8852L20.0831 20.5263ZM24.7928 6.53589V12.1435L19.886 14.8995L14.8611 12.1053L24.7928 6.53589ZM19.6496 15.244V20.7751H19.6693L14.664 23.5885L14.6443 12.4498L19.6496 15.244V15.244Z" fill="url(#paint0_linear_9176_11170)"/>
<defs>
<linearGradient id="paint0_linear_9176_11170" x1="24.9997" y1="6" x2="24.9997" y2="30" gradientUnits="userSpaceOnUse">
<stop stop-color="#37ADE3"/>
<stop offset="0.246285" stop-color="#329DD8"/>
<stop offset="0.55088" stop-color="#2F8DCD"/>
<stop offset="1" stop-color="#1A66B5"/>
</linearGradient>
</defs>
</svg>
