<svg width="50" height="50" viewBox="0 0 50 50" fill="none" xmlns="http://www.w3.org/2000/svg">
<path d="M34.4779 33.3333C35.7612 31.7056 36.8285 29.8605 35.5783 27.8093C34.8888 26.678 33.5946 25.8712 32.2403 26.1566C31.4461 26.3239 30.7404 26.8479 30.3429 27.5653C28.9225 30.1448 25.8698 31.5067 23.0072 30.7721C20.1352 30.035 18.097 27.3628 18.0559 24.4119C18.0149 21.4604 19.9783 18.7314 22.8284 17.9125C25.6682 17.0965 28.7583 18.3692 30.2503 20.9079C30.6655 21.6722 31.401 22.2401 32.2376 22.4423C34.5727 22.9962 36.1125 20.5584 36.0043 18.4989C35.9358 17.1958 35.2611 16.2253 34.4471 15.2777C35.3002 15.2908 36.1459 15.4409 36.9528 15.7224C40.8734 17.0329 43.3917 21.017 43.0173 25.1142C42.615 29.5168 38.9259 33.1353 34.4779 33.3333Z" fill="#F85501"/>
<path d="M13.2694 33.3333C8.84523 32.0499 5.37655 28.8936 5.56177 23.9781C5.72006 19.7776 8.86153 16.1003 13.0353 15.4278C13.4021 15.3695 15.0814 15.0553 15.2529 15.384C13.2189 18.0845 11.7981 20.8396 11.7981 24.318C11.7981 27.8715 13.3071 30.5263 15.2775 33.327L13.2694 33.3333Z" fill="#F85601"/>
</svg>
