<svg width="50" height="50" viewBox="0 0 50 50" fill="none" xmlns="http://www.w3.org/2000/svg">
<path d="M17.6833 8.48593C19.6545 7.40321 22.1731 8.18019 23.0997 10.3155C24.1213 12.6696 22.6441 15.2386 20.2405 15.658C19.442 15.7973 18.6118 15.7071 17.8058 15.7311C16.6565 15.7653 15.7437 16.7087 15.7313 17.8635C15.7254 18.4151 15.7292 18.9668 15.7305 19.5185C15.733 20.6058 15.3442 21.5321 14.583 22.3037C14.2055 22.6864 13.8225 23.0635 13.4436 23.4447C12.5667 24.3271 12.5647 25.665 13.4382 26.5445C13.8169 26.9258 14.1973 27.3054 14.5753 27.6875C15.3377 28.4584 15.728 29.3837 15.7269 30.471C15.7263 31.0156 15.7238 31.5602 15.7275 32.1047C15.7343 33.1234 16.411 33.9809 17.3987 34.2124C18.0882 34.3741 18.8564 34.2764 19.5568 34.2772C20.6204 34.2783 21.5283 34.6608 22.2864 35.4011C22.676 35.7816 23.0562 36.1715 23.4425 36.5553C24.3352 37.4422 25.6687 37.4436 26.5578 36.5604C26.9542 36.1667 27.3476 35.7699 27.7488 35.3813C28.4879 34.6653 29.3756 34.2979 30.404 34.2822C30.9625 34.2736 31.5213 34.282 32.0799 34.2802C33.1682 34.2766 34.036 33.5602 34.2414 32.4925C34.363 31.8606 34.2716 31.1607 34.2722 30.5216C34.274 28.7506 35.4144 27.7087 36.5637 26.5523C38.1448 24.9616 36.5609 23.4522 35.419 22.297C34.6674 21.5367 34.2805 20.6179 34.2749 19.5512C34.2657 17.8137 35.4495 16.2559 37.1332 15.8307C38.5735 15.4669 39.8738 15.7564 40.9408 16.8309C41.638 17.5331 41.9752 18.3967 41.9987 19.3912C42.0267 20.5781 41.6093 21.5713 40.7641 22.3956C39.6257 23.5058 38.1929 25.0209 39.7079 26.5445C40.0919 26.9306 40.4812 27.3115 40.862 27.7007C41.7139 28.5715 42.0865 29.62 41.9795 30.8302C41.837 32.4424 40.6168 33.8261 39.034 34.1965C38.2258 34.3856 37.3404 34.3153 36.5179 34.3003C35.2701 34.2774 34.2819 35.2955 34.3059 36.5163C34.3162 37.0395 34.3079 37.563 34.3076 38.0864C34.3064 40.0299 32.9785 41.6303 31.0671 41.9434C29.0675 42.2709 27.8501 40.9967 26.5677 39.7189C25.6684 38.8229 24.3401 38.8219 23.4375 39.7179C22.2768 40.8702 21.2136 42.0563 19.4233 41.9931C17.4674 41.924 16.0444 40.4723 15.764 38.824C15.6375 38.0802 15.6648 37.2873 15.6967 36.5375C15.7448 35.4054 14.8366 34.2918 13.484 34.3014C11.6099 34.3146 9.80071 34.2974 8.63699 32.5497C7.62579 31.031 7.83894 29.0413 9.13123 27.7167C9.51147 27.3269 9.90103 26.9463 10.2853 26.5605C11.1805 25.6617 11.179 24.3303 10.282 23.4308C9.11685 22.2623 7.92825 21.1787 8.01168 19.3719C8.09741 17.5157 9.44002 16.1156 11.0565 15.7812C11.8692 15.6131 12.7291 15.7028 13.5523 15.6914C14.5891 15.6769 15.4417 14.9759 15.6542 13.9619C16.1017 11.8271 15.3527 9.84709 17.6833 8.48593Z" fill="#77FE77"/>
<path d="M32.0776 8.43044C33.1057 9.00391 33.7542 9.8491 33.9831 10.991C34.4063 13.1023 32.9893 15.0142 31.0386 15.3736C28.9623 15.7561 27.0242 14.4118 26.6732 12.3275C26.163 9.29718 29.4424 7.0835 32.0776 8.43044Z" fill="#77FE77"/>
</svg>
