<svg width="50" height="50" viewBox="0 0 50 50" fill="none" xmlns="http://www.w3.org/2000/svg">
<path d="M23.5225 29.2321C22.7322 30.1934 21.9725 31.1702 21.1576 32.0976C20.4973 32.8146 20.1062 33.7408 20.0518 34.7166C19.8315 39.0155 19.5401 40.1945 23.1672 42.4843C24.242 43.2201 25.6949 43.2201 26.7697 42.4843C27.4436 42.0683 28.0869 41.6 28.7609 41.1809C28.9673 41.0694 29.0927 40.8298 29.0672 40.5955C29.0672 38.8978 29.0366 37.2062 29.0672 35.5054C29.0962 34.3426 28.6882 33.2115 27.9246 32.3379C25.2247 29.076 22.5351 25.8048 19.8557 22.5244C18.9793 21.4797 18.5044 20.1537 18.517 18.7869C18.517 15.3308 18.517 11.8748 18.517 8.41871C16.6899 8.707 14.8818 9.27861 13.0857 9.71897C11.2998 10.1596 10.4237 11.2904 10.4237 13.1514C10.4237 19.4678 10.4237 25.7843 10.4237 32.0945C10.3958 32.6943 10.5294 33.2905 10.8103 33.8203C11.0912 34.3501 11.509 34.7939 12.0197 35.1048C14.1809 36.5251 16.3076 38.2283 18.6059 39.4123C18.6059 38.0196 18.6212 36.6793 18.6059 35.3421C18.5836 34.0047 19.0476 32.7052 19.9109 31.6878C20.6369 30.7943 21.3751 29.91 22.1042 29.0195L22.7445 28.2523L23.5225 29.2321Z" fill="#FDFEFC"/>
<path d="M23.5225 29.2321L22.7291 28.2647L22.0889 29.0319C21.3598 29.9223 20.6215 30.8067 19.8955 31.7002C19.0367 32.7194 18.5771 34.0187 18.6028 35.3545C18.6212 36.6917 18.6028 38.032 18.6028 39.4247C16.317 38.1868 14.1874 36.5487 12.0166 35.1172C11.5059 34.8063 11.0881 34.3625 10.8072 33.8327C10.5263 33.3029 10.3928 32.7067 10.4206 32.1069C10.439 25.7936 10.4206 19.4741 10.4206 13.1638C10.4206 11.3151 11.2967 10.172 13.0827 9.73136C14.8788 9.291 16.6868 8.71939 18.514 8.4311C18.514 11.8872 18.514 15.3432 18.514 18.7993C18.5013 20.1661 18.9762 21.4921 19.8526 22.5368C22.5361 25.811 25.2258 29.0822 27.9215 32.3503C28.6851 33.2239 29.0931 34.355 29.0641 35.5178C29.0304 37.2155 29.0641 38.9071 29.0641 40.6079C29.0896 40.8422 28.9643 41.0818 28.7578 41.1933C28.0839 41.6124 27.4406 42.0807 26.7666 42.4967C25.6918 43.2325 24.2389 43.2325 23.1641 42.4967C22.144 41.8527 21.1484 41.1779 20.1529 40.5C20.0206 40.4129 19.9287 40.269 19.9047 40.1118C19.9354 38.3155 19.9568 36.5222 20.0487 34.729C20.1031 33.7532 20.4942 32.827 21.1546 32.11C21.9725 31.1702 22.7322 30.1934 23.5225 29.2321Z" fill="#2ED401"/>
<path d="M39.504 32.8568C39.3171 33.929 38.6738 34.6531 37.7885 35.2262C35.67 36.6003 33.6209 38.1383 31.429 39.392V35.371C31.4537 33.9608 30.9632 32.5904 30.0505 31.5195L21.8836 21.5704C21.2305 20.7969 20.8769 19.8122 20.8881 18.7973V8.32132V7.82833C21.9357 7.57875 22.9558 7.35075 23.9514 7.08577C24.567 6.91254 25.2161 6.89876 25.8384 7.04571C26.8003 7.28296 27.7561 7.53562 28.7241 7.74206C29.0641 7.81292 29.1254 7.96698 29.1254 8.28742C29.1254 11.9201 29.104 15.5559 29.1254 19.1887C29.1453 20.3521 28.7423 21.4828 27.992 22.3684C27.416 23.0679 26.8463 23.7765 26.2612 24.4944L27.0607 25.4681L29.1438 22.9046C29.9882 21.8921 30.4436 20.6087 30.4273 19.2872V8.72495V8.20424C32.5959 8.25617 35.1001 9.27231 37.1942 9.82802C38.4839 10.1731 39.2436 11.0821 39.4918 12.41L39.504 32.8568Z" fill="#2ED401"/>
</svg>
