<svg width="50" height="50" viewBox="0 0 50 50" fill="none" xmlns="http://www.w3.org/2000/svg">
<path d="M18.2333 31.3102C14.815 31.3102 12 28.5281 12 24.9996C12 21.4711 14.815 18.689 18.2333 18.689C21.7186 18.689 24.4666 21.5389 24.4666 24.9996C24.5336 28.5281 21.7186 31.3102 18.2333 31.3102Z" fill="#EF2C1D"/>
<path d="M30.7667 18.6891C27.2814 18.6891 24.5334 15.8391 24.5334 12.3785C24.5334 8.91782 27.2814 6 30.7667 6C34.252 6 37 8.84996 37 12.3106C37 15.7713 34.252 18.6891 30.7667 18.6891Z" fill="#0E54C4"/>
<path d="M30.7667 44C27.2814 44 24.5334 41.15 24.5334 37.6894C24.5334 34.1609 27.3485 31.3787 30.7667 31.3787C34.185 31.3787 37 34.2287 37 37.6894C37 41.15 34.252 44 30.7667 44Z" fill="#6F41B9"/>
</svg>
