<svg width="50" height="50" viewBox="0 0 50 50" fill="none" xmlns="http://www.w3.org/2000/svg">
<path d="M42.6758 19.4919C41.6096 18.5482 40.4713 17.6901 39.2712 16.9254C36.3253 15.3294 32.5908 15.8174 30.1503 18.1117C28.0002 20.1202 25.9141 22.2193 23.8913 24.3563C26.2403 26.5945 28.4183 29.0566 30.9383 31.071C34.209 33.6823 38.9665 32.9586 41.806 29.7803C42.0249 29.4785 42.3312 29.2518 42.6832 29.1312C39.4186 38.9609 26.2306 42.1242 18.8663 34.779C15.3387 31.2706 11.6081 27.8649 8.33301 24.1176C12.0553 21.0437 15.2904 17.3891 18.7176 13.9933C20.4051 12.3029 22.4802 11.0541 24.7609 10.3567C29.3532 8.95245 34.4582 9.95682 38.1809 12.9889C40.2693 14.6898 41.8535 16.9334 42.6758 19.4919Z" fill="#545A64"/>
<path d="M38.0819 19.2755C40.7906 19.2794 43.0874 21.6035 43.0549 24.3339C42.9526 27.0059 40.6977 29.198 38.0187 29.198C35.3397 29.198 33.0848 27.0059 32.9825 24.3339C32.9443 21.5522 35.2949 19.2041 38.0819 19.2755Z" fill="#02A1C8"/>
</svg>
