<svg width="50" height="50" viewBox="0 0 50 50" fill="none" xmlns="http://www.w3.org/2000/svg">
<path d="M40 29.2249C40 36.216 34.1714 41.8994 27.0017 41.9497L12.4559 42C10.5474 42 9 40.3402 9 38.2781V16.4497H16.0666V36.0651C19.8894 36.0651 23.938 36.4848 27.7238 35.8136C29.8518 35.2949 31.3474 33.2959 31.8502 31.2367C32.4432 28.6927 32.5647 26.1472 32.4692 23.5414C32.4099 21.6894 32.3584 19.4023 31.4892 17.7071C36.7307 19.2688 40 23.7257 40 29.2249Z" fill="#231F20"/>
<path d="M16.015 13.8846C19.545 13.8846 23.1789 13.5964 26.6922 14.0858C35.6672 15.0917 38.7105 19.0148 40 20.926C39.381 16.9527 37.9368 13.8846 35.8735 11.8225C33.3461 9.30769 29.4775 8 24.371 8H9V13.9349L16.015 13.8846Z" fill="url(#paint0_linear_9176_11749)"/>
<defs>
<linearGradient id="paint0_linear_9176_11749" x1="32.0256" y1="14.3417" x2="12.1672" y2="14.5532" gradientUnits="userSpaceOnUse">
<stop stop-color="#F1562C"/>
<stop offset="1" stop-color="#F68B27"/>
</linearGradient>
</defs>
</svg>
