<svg width="50" height="50" viewBox="0 0 50 50" fill="none" xmlns="http://www.w3.org/2000/svg">
<path d="M26.7969 21.408L30.6209 22.8107C31.2396 23.0294 31.9916 22.7387 31.9916 22.2774V12.5894C31.9916 12.368 31.8049 12.1707 31.5062 12.056L27.6822 10.6614C27.0636 10.4427 26.3116 10.7334 26.3116 11.1947V20.8747C26.3116 21.0987 26.4982 21.3014 26.7969 21.408Z" fill="#10363D"/>
<path d="M26.7969 38.8027L30.6209 40.2C31.2396 40.4187 31.9916 40.128 31.9916 39.6667V29.9867C31.96 29.7303 31.7585 29.5088 31.5062 29.4534L27.6822 28.0507C27.0636 27.832 26.3116 28.1254 26.3116 28.584V38.272C26.3431 38.5284 26.5446 38.7499 26.7969 38.8054" fill="#10363D"/>
<path d="M19.7116 18.1654L23.5382 19.5707C24.1569 19.7894 24.9009 19.496 24.9009 19.0374V8.49604C24.9009 8.2747 24.7169 8.07204 24.4182 7.9627L20.5996 6.5627C19.9782 6.34404 19.2289 6.6347 19.2289 7.09604V17.6347C19.2593 17.8907 19.4599 18.1123 19.7116 18.168" fill="#10363D"/>
<path d="M19.7116 41.392L23.5382 42.7974C24.1569 43.016 24.9009 42.7254 24.9009 42.264V31.752C24.869 31.4966 24.6692 31.2759 24.4182 31.2187L20.5996 29.816C19.9782 29.5974 19.2289 29.888 19.2289 30.3494V40.864C19.2593 41.12 19.4599 41.3416 19.7116 41.3974" fill="#10363D"/>
<path d="M17.8236 8.89337C17.8236 8.67204 17.6369 8.47204 17.3382 8.36004L13.5142 6.95737C12.8956 6.7387 12.1436 7.03204 12.1436 7.4907V40.4667C12.1751 40.7231 12.3766 40.9446 12.6289 41L16.4662 42.4027C17.0849 42.6214 17.8369 42.3307 17.8369 41.8694L17.8236 8.89337Z" fill="#10363D"/>
<path d="M38.5996 17.648L34.7729 16.2427C34.1569 16.0267 33.4102 16.3174 33.4102 16.776V32.6907C33.4102 32.912 33.5942 33.1147 33.8956 33.224L37.7196 34.6267C38.3382 34.8454 39.0902 34.5547 39.0902 34.0934V18.1787C39.0902 17.9574 38.9036 17.7547 38.6049 17.6454" fill="#10363D"/>
</svg>
