<svg width="50" height="50" viewBox="0 0 50 50" fill="none" xmlns="http://www.w3.org/2000/svg">
<rect width="50" height="50" fill="#10363D"/>
<path d="M26.5948 21.9423L30.1425 23.2531C30.7165 23.4574 31.4142 23.1858 31.4142 22.7547V13.7012C31.4142 13.4944 31.241 13.31 30.9639 13.2028L27.4161 11.8995C26.8422 11.6952 26.1445 11.9668 26.1445 12.3979V21.4439C26.1445 21.6532 26.3177 21.8426 26.5948 21.9423Z" fill="white"/>
<path d="M26.5948 38.1977L30.1425 39.5035C30.7165 39.7078 31.4142 39.4362 31.4142 39.0051V29.9591C31.3849 29.7195 31.1979 29.5125 30.9639 29.4607L27.4161 28.1499C26.8422 27.9455 26.1445 28.2197 26.1445 28.6483V37.7017C26.1737 37.9413 26.3607 38.1483 26.5948 38.2001" fill="white"/>
<path d="M20.0213 18.912L23.5715 20.2253C24.1455 20.4297 24.8357 20.1555 24.8357 19.7269V9.87602C24.8357 9.66919 24.665 9.47979 24.3879 9.37762L20.8451 8.06932C20.2687 7.86498 19.5735 8.1366 19.5735 8.56772V18.4161C19.6017 18.6553 19.7878 18.8624 20.0213 18.9145" fill="white"/>
<path d="M20.0213 40.6174L23.5715 41.9307C24.1455 42.135 24.8357 41.8634 24.8357 41.4323V31.6088C24.8061 31.3701 24.6208 31.1638 24.3879 31.1104L20.8451 29.7996C20.2687 29.5953 19.5735 29.8669 19.5735 30.298V40.124C19.6017 40.3632 19.7878 40.5703 20.0213 40.6224" fill="white"/>
<path d="M18.2697 10.2473C18.2697 10.0405 18.0965 9.85359 17.8194 9.74893L14.2716 8.43814C13.6977 8.23379 13 8.50791 13 8.93654V39.7527C13.0292 39.9923 13.2162 40.1992 13.4503 40.2511L17.0104 41.5619C17.5844 41.7662 18.282 41.4946 18.282 41.0635L18.2697 10.2473Z" fill="white"/>
<path d="M37.5448 18.4286L33.9946 17.1153C33.4231 16.9134 32.7303 17.1851 32.7303 17.6137V32.486C32.7303 32.6928 32.901 32.8822 33.1806 32.9844L36.7284 34.2952C37.3023 34.4995 38 34.2279 38 33.7968V18.9245C38 18.7177 37.8268 18.5283 37.5497 18.4261" fill="white"/>
</svg>
