<svg width="50" height="50" viewBox="0 0 50 50" fill="none" xmlns="http://www.w3.org/2000/svg">
<path d="M40.6136 33.3448V27.2756L39.9477 26.9043L24.8052 35.5111L10.4268 27.34L10.4299 23.8206L24.8052 31.8996L40.6136 23.0044V17.0272L39.9477 16.6559L24.8052 25.2627L11.019 17.4261L24.8052 9.63851L35.9374 15.9256L36.7719 15.4562V14.7566L24.8052 8L9 16.9259V17.8066L24.8052 26.7264L39.1837 18.6074V22.1667L24.8052 30.3378L9.66584 21.7341L9 22.1053V28.1715L24.8052 37.0668L39.1837 28.9754V32.5134L24.8052 40.6845L9.66584 32.0777L9 32.4489V33.3448L24.8052 42.24L40.6136 33.3448Z" fill="#FF3621"/>
</svg>
