<svg width="50" height="50" viewBox="0 0 50 50" fill="none" xmlns="http://www.w3.org/2000/svg">
<path fill-rule="evenodd" clip-rule="evenodd" d="M35.4597 32.3464L32.701 30.427L30.3997 34.4819L27.7231 33.6564L25.3664 37.4507L25.4872 38.645L38.3008 36.1546L37.5565 27.7094L35.4597 32.3464ZM23.51 28.7053L25.5658 28.4071C27.0545 29.1127 28.8666 29.0037 29.9067 27.5889L38.3299 25.9771L39.1891 36.947L24.7589 39.6903L23.51 28.7053ZM39.1566 24.7525L38.3252 24.9195L36.7279 7.51123L9.51074 10.8403L12.8638 39.5429L16.0496 39.0551C15.7952 38.672 15.399 38.2084 14.7225 37.6149C13.7843 36.7926 14.1161 35.396 14.6695 34.5142C15.4017 33.024 19.1746 31.1304 18.9608 28.7486C18.8841 27.8826 18.7536 26.7552 17.9916 25.9828C17.9629 26.3034 18.0144 26.6122 18.0144 26.6122C18.0144 26.6122 17.7015 26.1911 17.5455 25.6168C17.3906 25.3966 17.269 25.3264 17.1044 25.0323C16.9871 25.3725 17.0026 25.7671 17.0026 25.7671C17.0026 25.7671 16.7466 25.1291 16.7052 24.5907C16.5534 24.8317 16.515 25.2896 16.515 25.2896C16.515 25.2896 16.1824 24.2839 16.2583 23.7423C16.1065 23.2709 15.6565 22.3355 15.7839 20.2094C16.6145 20.8234 18.4431 20.6775 19.1556 19.5698C19.3922 19.203 19.554 18.2014 19.0375 16.228C18.7056 14.9626 17.8839 13.0783 17.5637 12.3635C17.271 12.5849 18.694 17.1313 18.4988 17.9734C18.0313 20.0337 15.9411 19.9934 14.6017 18.8525C13.6479 18.0511 12.9103 16.7435 12.8278 16.1084C12.7422 15.4131 13.2077 14.9957 13.4423 14.4271C13.1066 14.5284 12.7321 14.7081 12.7321 14.7081C12.7321 14.7081 13.179 14.2204 13.73 13.7984C13.9581 13.6391 14.0921 13.5378 14.3326 13.3271C13.9845 13.3209 13.7018 13.3316 13.7018 13.3316C13.7018 13.3316 14.2822 13.0007 14.884 12.7597C14.4437 12.7393 14.0224 12.7564 14.0224 12.7564C14.0224 12.7564 15.3177 12.1454 16.3408 11.6969C17.0444 11.3925 17.7317 11.4824 18.1178 12.0714C18.6247 12.843 19.1571 13.2621 20.2855 13.5219C20.9783 13.198 21.1889 13.0313 22.0594 12.7813C22.8258 11.8925 23.4275 11.7773 23.4275 11.7773C23.4275 11.7773 23.129 12.0661 23.0492 12.5199C23.4837 12.1588 23.96 11.8574 23.96 11.8574C23.96 11.8574 23.7757 12.0976 23.6037 12.4791C23.6809 12.6 24.5409 12.0553 24.7465 11.9681C24.7465 11.9681 24.5761 12.1952 24.3763 12.4893C24.7585 12.486 25.5337 12.5064 25.8346 12.5424C27.6108 12.5836 27.9795 10.5413 28.661 10.2852C29.5145 9.9637 29.8959 9.76927 31.3503 11.2761C32.5984 12.5698 33.5735 14.8854 33.0894 15.4042C32.0071 16.5524 30.1427 12.5596 30.0055 11.7924C29.8653 11.009 29.3197 10.5544 29.3197 10.5544C29.3197 10.5544 29.6364 11.297 29.6364 11.953C29.6364 12.3112 29.679 13.6506 30.2235 14.4022C30.1697 14.512 30.1445 14.9458 30.0849 15.0288C29.4514 14.2212 28.091 13.6432 27.8691 13.4729C28.62 14.122 30.3459 15.6129 31.0088 17.0417C31.6357 18.3929 31.2663 19.6314 31.5835 19.9521C31.6737 20.044 32.9318 21.6975 33.1738 22.5283C33.5959 23.9764 33.199 25.4979 32.6464 26.4419L31.1033 26.6956C30.8775 26.6294 30.7254 26.5963 30.5228 26.4725C30.6821 26.175 30.9434 25.7947 30.7714 25.4763C29.7952 26.9354 28.0732 28.1053 26.2787 27.5191C24.4158 26.9129 22.6542 25.5849 22.2294 25.2361C22.2294 25.2361 22.2163 25.5147 22.2964 25.5772C22.7661 26.136 23.8423 27.1469 24.8824 27.8515L22.6651 28.1089L23.7133 36.7187C23.2486 36.7889 23.1762 36.8232 22.6674 36.8996C22.219 35.2286 21.3613 34.1375 20.4238 33.502C19.8507 33.1135 17.8461 32.4544 17.2949 33.129C18.0539 33.0457 18.95 33.1617 19.8704 33.7764C20.7738 34.3789 21.5018 35.9352 21.7698 36.8723C22.1129 38.0699 22.3503 39.3509 21.4267 40.7086C20.7696 41.6739 18.8512 42.2073 17.3015 41.0534C18.2627 42.6838 20.5856 43.0674 21.9386 41.6024C22.5625 40.9259 22.8932 39.5114 22.806 38.0217L23.7931 37.8706L24.1493 40.5444L40.4898 38.469L39.1566 24.7525ZM29.2151 17.491C28.9807 18.0547 29.57 18.9539 30.0368 19.2181C31.1917 19.0133 31.6758 17.8246 30.1437 17.0719C29.4136 16.7143 29.3388 17.1896 29.2151 17.491ZM31.9207 22.4344C31.3015 22.0748 29.4361 22.5857 28.9514 22.985C27.9506 23.8008 30.3821 24.8699 30.9953 24.7847C31.5696 24.7052 32.616 22.84 31.9207 22.4344ZM24.9064 18.147C25.1298 17.9232 23.7935 17.6291 22.7565 18.375C21.8797 19.0058 22.0474 20.3531 22.8897 20.9251C23.4937 20.625 24.15 20.417 24.8185 20.325C25.4364 19.5967 24.4939 18.5608 24.9064 18.147Z" fill="#632CA6"/>
</svg>
