<svg width="50" height="50" viewBox="0 0 50 50" fill="none" xmlns="http://www.w3.org/2000/svg">
<path d="M12.815 22.0579V18.1195H14.5951V30.2518C13.2814 30.4836 12.9083 30.393 12.757 29.8734C12.2199 30.0732 11.6954 30.385 11.1432 30.4516C8.81841 30.7394 7.06093 28.9541 6.94999 26.2148C6.831 23.0809 9.60062 19.6588 12.815 22.0579ZM12.7822 25.1143C12.7393 23.9552 12.2048 23.249 11.2693 23.0891C7.9648 22.3747 7.98509 29.4522 11.2466 28.629C12.972 28.2643 12.7822 26.4808 12.7822 25.1143Z" fill="#05ACE4"/>
<path d="M20.6366 24.6426C20.6644 23.4622 20.2988 22.9586 19.275 23.0092C18.3824 23.0518 17.51 23.3236 16.4812 23.5208L15.8483 22.2578C16.8317 21.3624 19.918 20.7762 21.446 21.7488C22.0159 22.1112 22.4093 22.6015 22.4294 23.321C22.4672 24.6773 22.4698 26.0362 22.4874 27.3952C22.4874 28.5197 22.4874 28.5197 23.3397 29.1406C23.1126 29.5501 22.7322 30.5671 22.1193 30.4489C21.7044 30.2052 21.3021 29.9383 20.914 29.6495C19.4011 30.8566 17.5276 30.8327 16.3047 29.511C15.0213 28.1227 15.3869 26.0309 17.0939 25.3328C18.2012 24.8787 19.4575 24.785 20.6366 24.6426ZM20.6568 26.1135C19.7314 26.324 18.8918 26.4466 18.0975 26.7184C17.457 26.9369 17.3032 27.707 17.684 28.2772C18.0647 28.8475 18.9069 29.0766 19.6533 28.8315C20.8957 28.4234 20.6568 27.1734 20.6568 26.1135Z" fill="#04ACE3"/>
<path d="M34.9713 25.8844C34.9713 23.6034 36.0757 21.8581 37.8105 21.3731C40.7581 20.5444 43.3577 23.0225 43.0274 26.3534C42.8081 28.5997 41.6356 30.1266 39.8705 30.4703C37.1145 31.0032 34.9612 28.9861 34.9713 25.8844ZM39.2074 23.0732C36.8254 22.8615 36.3641 26.0479 37.2431 27.6724C37.9769 28.9728 39.752 29.098 40.5362 27.8483C41.4299 26.4315 41.4018 23.2561 39.2074 23.0732Z" fill="#03ABE3"/>
<path d="M28.5718 28.6023C28.6374 29.0633 28.708 29.5749 28.7887 30.1505C27.4712 30.5389 24.7546 30.7795 24.7492 28.7275C24.6523 26.8523 24.661 24.9717 24.661 23.0944H23.1657V21.4796H24.661C24.661 20.7175 24.6887 20.0221 24.661 19.3293C24.6358 18.8789 24.7644 18.6444 25.1854 18.5299C25.6065 18.4153 25.9974 18.2394 26.4891 18.0555V21.445H28.6298V23.0784H26.5269C26.5269 24.7359 26.4966 26.348 26.5597 27.9574C26.5597 28.7681 28.1313 28.6023 28.5718 28.6023Z" fill="#06ADE4"/>
<path d="M32.5078 18.0581V21.4422H34.6839V23.041H32.4902C32.4902 24.4533 32.4902 25.8656 32.4902 27.2779C32.4902 28.7135 33.4481 28.6441 34.5704 28.5409C34.6723 29.0795 34.7566 29.6114 34.8225 30.1557C33.0714 30.6561 30.7737 30.6152 30.7327 28.3011C30.7001 26.575 30.7201 24.8474 30.7201 23.121H29.2248V21.4636H30.7201C30.7201 20.6801 30.7428 19.9633 30.7201 19.2466C30.6581 18.9336 30.8668 18.5929 31.1891 18.5484C31.6051 18.4258 32.006 18.2473 32.5078 18.0581Z" fill="#02ABE3"/>
</svg>
