<svg width="50" height="50" viewBox="0 0 50 50" fill="none" xmlns="http://www.w3.org/2000/svg">
<path fill-rule="evenodd" clip-rule="evenodd" d="M4 20V29.9285H7.4141C10.3235 29.9135 12.0569 27.5248 12.0569 24.7293C12.0324 19.9955 7.46069 20 4 20ZM6.56553 21.997V27.938C8.62443 27.938 9.445 26.8774 9.445 24.7565C9.445 22.7168 8.39766 21.997 6.56553 21.997Z" fill="#171515"/>
<path fill-rule="evenodd" clip-rule="evenodd" d="M15.7042 29.9285L16.2603 28.1625H19.0877L19.6503 29.9285H22.6714L18.9312 20H16.4091L12.6967 29.9285H15.7042ZM18.3808 25.928H16.9659L17.6711 23.6887L18.3808 25.928Z" fill="#171515"/>
<path d="M32.3094 29.9285V27.7006H27.9194L32.2631 21.4797V20H24.2922V22.2345H28.6921L24.3187 28.4156V29.9285H32.3094Z" fill="#171515"/>
<path d="M42.4554 29.9285V27.7006H38.0654L42.4093 21.4797V20H34.4384V22.2345H38.8383L34.4648 28.4156V29.9285H42.4554Z" fill="#171515"/>
<path d="M45.7922 30C46.4591 30 47 29.467 47 28.8095C47 28.1521 46.4591 27.6191 45.7922 27.6191C45.1251 27.6191 44.5841 28.1521 44.5841 28.8095C44.5841 29.467 45.1251 30 45.7922 30Z" fill="#F36962"/>
</svg>
