<svg width="50" height="50" viewBox="0 0 50 50" fill="none" xmlns="http://www.w3.org/2000/svg">
<path d="M20.0146 39L20.0244 38.2334C21.9696 38.2334 23.7891 37.939 23.7891 35.6602C23.7891 34.1813 23.2626 32.6621 21.5869 32.6621H19.9854V31.8906H21.5869C23.6944 31.8906 24.7217 33.6909 24.7217 35.6602C24.7217 38.6291 22.3754 39 20.0146 39ZM20.5176 31.8906V39H19.5752V31.8906H20.5176Z" fill="#1C1D1F"/>
<path d="M29.9268 37.2031C29.9268 36.5396 29.5971 36.2222 28.2373 35.8262C26.8265 35.4082 25.9326 34.8321 25.9326 33.7266C25.9326 32.6105 26.9033 31.793 28.3496 31.793C29.596 31.793 30.8545 32.6042 30.8545 33.9414H29.917C29.917 33.1326 29.4058 32.5645 28.3496 32.5645C27.3466 32.5645 26.875 33.049 26.875 33.7168C26.875 34.3178 27.3855 34.6851 28.54 35.0059C30.1523 35.4609 30.874 36.081 30.874 37.1934C30.874 38.3485 29.9053 39.0977 28.3936 39.0977C27.1308 39.0977 25.708 38.3613 25.708 36.9395H26.6455C26.6455 37.9146 27.4922 38.3311 28.3936 38.3311C29.3829 38.3311 29.9268 37.8923 29.9268 37.2031Z" fill="#1C1D1F"/>
<path d="M17.751 17.9914L16.5531 17.9944L16.8436 17.3531C17.8334 17.0837 19.4824 16.533 21.0563 15.0086L21.9317 15.0057L20.8601 17.299L22.5811 17.2938L22.2653 17.9766L20.5473 17.9825C20.5473 17.9825 19.741 19.5915 19.4675 20.7426C19.2557 22.0273 19.4638 22.9862 20.6164 23.3454C21.3283 23.5658 22.2163 23.5154 23.1734 23.2445C25.4004 22.552 27.7813 21.0224 29.5232 18.9985C32.3908 15.6714 32.4465 12.2671 29.6502 11.398C27.8557 10.8414 25.3254 11.4603 22.9839 12.8541C25.4136 11.289 29.6639 9.33543 32.4101 11.306C30.5799 9.29097 27.9374 8.02632 24.9992 8.02632C19.4779 8.02632 15 12.4979 15 18.0129C15 20.0494 15.6116 21.9427 16.6586 23.522C15.8758 21.5931 16.9165 19.6903 17.751 17.9914Z" fill="#D71920"/>
<path d="M33.4781 12.7151C34.1469 14.5297 33.3102 17.2378 31.0006 19.9185C27.5333 23.9455 22.0559 26.3806 18.7684 25.3586C18.3605 25.2317 18.006 25.0573 17.7036 24.8413C19.5279 26.7858 22.1213 28 24.9993 28C30.5228 28 35 23.5292 35 18.0134C35 16.0659 34.4404 14.2506 33.4781 12.7151Z" fill="#D71920"/>
</svg>
