<svg width="50" height="50" viewBox="0 0 50 50" fill="none" xmlns="http://www.w3.org/2000/svg">
<path d="M25.0721 9L10.0713 17.0568L10 33.0569L24.9279 41L39.9287 32.9432L40 16.9431L25.0721 9ZM20.738 17.9761L22.6253 17.1033V13.6506L25.0791 12.3326L27.7692 13.7643V17.1033L29.6565 17.9761V14.7732L31.9348 15.9855V19.0715L33.8186 19.9394V16.9848L36.8598 18.6038L36.8024 31.2825L24.9157 37.6674L13.1385 31.3962L13.1959 18.7175L16.5759 16.9015V19.9443L18.4632 19.0715V15.8878L20.7415 14.6643V17.9761H20.738Z" fill="#241F20"/>
<path d="M31.5594 25.3811V28.6993L25.0252 31.9326L18.8316 28.7298V25.4612L24.9731 28.7266L31.5594 25.3811ZM33.8186 21.858L24.9956 26.342L16.5672 21.858V29.9452L24.9956 34.3076L33.8186 29.9452V21.858Z" fill="#241F20"/>
</svg>
