<svg width="50" height="50" viewBox="0 0 50 50" fill="none" xmlns="http://www.w3.org/2000/svg">
<path d="M25.0767 43.7782C22.7248 42.7773 15.5188 39.3578 10.8315 31.0842C5.71061 22.06 7.04505 13.3027 7.49543 10.934C11.4466 10.7145 15.2957 10.1979 18.6881 8.01494C22.7915 5.37941 27.0951 5.34604 31.2152 7.81477C34.7484 9.93473 38.56 10.8506 42.6581 10.8506C42.975 13.0358 44.7932 27.0642 35.1518 37.1226C31.7156 40.7256 27.8958 42.6772 25.0767 43.7782ZM10.0642 13.5029C9.78066 15.7381 9.18016 22.7773 13.417 30.05C17.2869 36.7056 22.975 39.6747 25.0934 40.6589C27.0284 39.8415 33.2502 36.9391 37.2702 29.8165C41.3903 22.5104 40.5063 15.5045 40.1893 13.4695C39.9892 13.3527 39.7723 13.1192 39.5388 13.1025C36.0192 12.7522 32.8666 11.5345 29.7973 9.78308C27.0117 8.18175 23.8591 8.09834 21.0734 9.73304C17.6539 11.7347 14.1009 13.1526 10.0642 13.5029Z" fill="#007EE3"/>
<path d="M37.9874 15.6047C39.472 23.578 33.417 35.1877 25.0934 38.2236C23.2919 37.3395 18.5379 34.704 15.2852 28.9659C11.9991 23.1443 12.2327 17.6231 12.4161 15.6381C14.3678 14.7707 17.07 13.5864 20.4228 12.1685C23.741 10.7464 26.3224 10.8098 29.6138 12.2853C31.5321 13.1527 34.3177 14.337 37.9874 15.6047ZM21.9741 31.8349C24.8432 28.8324 27.6955 25.8299 30.5646 22.8441C29.4136 22.7106 28.2794 22.5772 26.9449 22.4271C27.6622 20.8758 28.2126 19.6414 28.8799 18.2069H25.0934C23.8256 20.7257 22.608 23.161 21.2402 25.88C22.4412 26.0634 23.3252 26.1969 24.4762 26.3637C23.6335 28.164 22.7719 30.0029 21.9741 31.8349Z" fill="#007EE3"/>
</svg>
