<svg width="50" height="50" viewBox="0 0 50 50" fill="none" xmlns="http://www.w3.org/2000/svg">
<path d="M25.5534 33C23.92 32.2847 18.9158 29.8408 15.6607 23.9277C12.1044 17.4782 13.0311 11.2194 13.3439 9.52651C14.5021 9.46029 15.6336 9.29228 16.7843 9.15694C18.3713 8.95427 19.7846 8.32243 21.1167 7.44024C23.9664 5.55664 26.955 5.5328 29.8163 7.29718C32.2604 8.8064 34.9056 9.4669 37.7629 9.4669C37.983 11.0286 39.2456 21.0546 32.5501 28.2433C30.1638 30.8184 27.5111 32.2132 25.5534 33ZM15.1278 11.3624C14.9309 12.9599 14.5139 17.9908 17.4562 23.1886C20.1437 27.9453 24.0938 30.0673 25.565 30.7707C26.9087 30.1865 31.2295 28.1122 34.0213 23.0217C36.8825 17.8 36.2686 12.793 36.0485 11.3386C35.9094 11.2551 35.7589 11.0882 35.5967 11.0763C33.1525 10.826 30.9631 9.95568 28.8316 8.70392C26.8971 7.55946 24.7078 7.49985 22.7732 8.66816C20.3985 10.0987 17.9311 11.1121 15.1278 11.3624Z" fill="#007EE3"/>
<path d="M34.5193 12.8646C35.5503 18.5631 31.3453 26.8605 25.5649 29.0302C24.3139 28.3983 21.0124 26.5147 18.7536 22.4137C16.4715 18.2531 16.6337 14.3071 16.7611 12.8884C18.1164 12.2685 19.993 11.4221 22.3214 10.4088C24.6301 9.39049 26.4151 9.43619 28.7042 10.4922C30.0363 11.1121 31.9709 11.9586 34.5193 12.8646ZM23.3987 24.4642C25.3912 22.3184 27.372 20.1725 29.3645 18.0385C28.5652 17.9432 27.7775 17.8478 26.8507 17.7405C27.3489 16.6318 27.7311 15.7496 28.1945 14.7244H25.5649C24.6845 16.5245 23.8389 18.2651 22.889 20.2083C23.7231 20.3394 24.337 20.4348 25.1363 20.554C24.5512 21.8405 23.9528 23.1548 23.3987 24.4642Z" fill="#007EE3"/>
<path d="M21.0791 44.0625V41.46H18.4961V42.2217H20.1416V43.8135C19.7587 44.2569 19.1191 44.3311 18.5693 44.3311C17.3636 44.3311 16.543 43.3599 16.543 41.7188C16.543 40.3598 16.7602 38.5645 18.457 38.5645C19.5489 38.5645 20.0101 39.2011 20.1367 39.9707H21.0791C20.904 38.7161 20.0941 37.793 18.457 37.793C16.2692 37.793 15.5957 39.7969 15.5957 41.7188C15.5957 43.8357 16.836 45.0977 18.5645 45.0977C19.4815 45.0977 20.5298 44.8763 21.0791 44.0625Z" fill="black"/>
<path d="M26.9336 42.7393H27.8711C27.7106 44.2161 26.6115 45.0977 25.1758 45.0977C23.3876 45.0977 22.4023 43.474 22.4023 41.8018C22.4023 39.9054 23.0618 37.793 25.2588 37.793C26.8686 37.793 27.7243 38.762 27.8711 40.1709H26.9336C26.7959 39.1676 26.3584 38.5645 25.2588 38.5645C23.5374 38.5645 23.3398 40.4453 23.3398 41.8018C23.3398 43.1954 23.9078 44.3311 25.1758 44.3311C26.3792 44.3311 26.7779 43.7317 26.9336 42.7393Z" fill="black"/>
<path d="M33.4473 42.7393H34.3848C34.228 44.1812 33.1523 45.0977 31.6895 45.0977C29.5274 45.0977 28.916 42.9273 28.916 41.0938C28.916 39.3945 29.9013 37.793 31.7725 37.793C33.3822 37.793 34.238 38.762 34.3848 40.1709H33.4473C33.3096 39.1676 32.872 38.5645 31.7725 38.5645C30.524 38.5645 29.8535 39.5641 29.8535 41.084C29.8535 42.3913 29.9432 44.3311 31.6895 44.3311C32.8929 44.3311 33.2916 43.7317 33.4473 42.7393Z" fill="black"/>
</svg>
