<svg width="50" height="50" viewBox="0 0 50 50" fill="none" xmlns="http://www.w3.org/2000/svg">
<rect width="50" height="50" fill="#231556"/>
<path d="M34.1715 13.9665H29.7508V17.1888H34.1715V13.9665Z" fill="#00FF5A"/>
<path d="M34.1715 20.4624H29.7508V23.6847H34.1715V20.4624Z" fill="#00FF5A"/>
<path d="M34.1715 26.9584H29.7508V30.1807H34.1715V26.9584Z" fill="#00FF5A"/>
<path d="M28.1931 13.9665H15.7988V17.1888H28.1931V13.9665Z" fill="white"/>
<path d="M28.1931 20.4624H15.7988V23.6847H28.1931V20.4624Z" fill="white"/>
<path d="M28.1931 26.9584H15.7988V30.1807H28.1931V26.9584Z" fill="white"/>
<path d="M35.7283 19.3869H38.959V8.02874H30.8378V11.251H35.7283V19.3869Z" fill="white"/>
<path d="M35.7694 24.6209V32.7777H30.8789V36H39V24.6209H35.7694Z" fill="white"/>
<path d="M14.2306 24.54H11V35.8981H19.1211V32.6758H14.2306V24.54Z" fill="white"/>
<path d="M14.2437 11.2223H19.1342V8H11.0131V19.3791H14.2437V11.2223Z" fill="white"/>
<path d="M14.9258 39C15.3064 39.0001 15.632 39.0674 15.9014 39.2021C16.1707 39.3369 16.377 39.5177 16.5205 39.7432C16.6639 39.9657 16.7363 40.213 16.7363 40.4854H15.9229C15.9229 40.3537 15.8835 40.2264 15.8047 40.1035C15.7285 39.9775 15.6152 39.873 15.4658 39.791C15.3194 39.709 15.1394 39.668 14.9258 39.668C14.7002 39.668 14.5166 39.7031 14.376 39.7734C14.2383 39.8408 14.1377 39.9277 14.0732 40.0332C14.0118 40.1386 13.9805 40.2501 13.9805 40.3672C13.9805 40.4549 13.9952 40.5343 14.0244 40.6045C14.0567 40.6717 14.1125 40.7345 14.1914 40.793C14.2705 40.8486 14.3818 40.9014 14.5254 40.9512C14.6689 41.001 14.8525 41.0508 15.0752 41.1006C15.4646 41.1885 15.7853 41.294 16.0371 41.417C16.2891 41.54 16.4766 41.6914 16.5996 41.8701C16.7225 42.0488 16.7842 42.2658 16.7842 42.5205C16.7841 42.7283 16.7402 42.9191 16.6523 43.0918C16.5674 43.2645 16.4432 43.4142 16.2793 43.54C16.1182 43.663 15.9247 43.7598 15.6992 43.8301C15.4766 43.8975 15.2256 43.9307 14.9473 43.9307C14.5284 43.9307 14.1738 43.8564 13.8838 43.707C13.5939 43.5577 13.374 43.3641 13.2246 43.127C13.0752 42.8896 13 42.6387 13 42.375H13.8184C13.8301 42.5976 13.8945 42.7754 14.0117 42.9072C14.1288 43.0359 14.2727 43.128 14.4424 43.1836C14.6122 43.2362 14.7804 43.2627 14.9473 43.2627C15.1699 43.2627 15.3564 43.2334 15.5059 43.1748C15.6578 43.1163 15.7735 43.0359 15.8525 42.9336C15.9315 42.8312 15.9716 42.7137 15.9717 42.582C15.9717 42.4651 15.9451 42.3563 15.8926 42.2568C15.8428 42.1543 15.7383 42.0615 15.5801 41.9795C15.4248 41.8945 15.1904 41.8213 14.877 41.7598C14.6135 41.7042 14.3748 41.6386 14.1611 41.5625C13.9502 41.4863 13.7695 41.3936 13.6201 41.2852C13.4738 41.1769 13.3613 41.0496 13.2822 40.9033C13.2031 40.7568 13.1631 40.585 13.1631 40.3887C13.1631 40.2013 13.2042 40.0243 13.2861 39.8574C13.3711 39.6904 13.4902 39.542 13.6426 39.4131C13.7978 39.2843 13.9836 39.1835 14.2002 39.1104C14.417 39.0371 14.6592 39 14.9258 39Z" fill="white"/>
<path fill-rule="evenodd" clip-rule="evenodd" d="M19.7197 39C20.0596 39 20.3525 39.0586 20.5986 39.1758C20.8477 39.293 21.0518 39.457 21.21 39.668C21.3681 39.8759 21.4854 40.1222 21.5615 40.4062C21.6377 40.6875 21.6758 40.9952 21.6758 41.3291V41.6943H18.4609C18.4661 41.8969 18.4949 42.0887 18.5508 42.2695C18.6152 42.4658 18.708 42.6387 18.8281 42.7881C18.9511 42.9374 19.0987 43.0547 19.2715 43.1396C19.4473 43.2246 19.6465 43.2676 19.8691 43.2676C20.1561 43.2676 20.3995 43.2089 20.5986 43.0918C20.7979 42.9746 20.9727 42.8174 21.1221 42.6211L21.6143 43.0127C21.5117 43.1679 21.3808 43.3155 21.2227 43.4561C21.0646 43.5966 20.8699 43.711 20.6387 43.7988C20.4102 43.8867 20.1387 43.9307 19.8252 43.9307C19.4943 43.9307 19.1942 43.8749 18.9248 43.7637C18.6583 43.6495 18.4277 43.4901 18.2344 43.2852C18.044 43.0802 17.8975 42.8367 17.7949 42.5557C17.6924 42.2746 17.6417 41.9666 17.6416 41.6328V41.4482C17.6416 41.0615 17.6982 40.7168 17.8125 40.415C17.9268 40.1104 18.082 39.8525 18.2783 39.6416C18.4746 39.4307 18.6973 39.2715 18.9463 39.1631C19.1953 39.0547 19.4531 39 19.7197 39ZM19.7197 39.668C19.5352 39.668 19.3652 39.708 19.21 39.7871C19.0548 39.8633 18.9218 39.9776 18.8105 40.1299C18.6992 40.2822 18.6123 40.4678 18.5508 40.6875C18.521 40.7939 18.4988 40.9081 18.4834 41.0303H20.8623V40.9688C20.8506 40.7578 20.8066 40.5527 20.7305 40.3535C20.6572 40.1543 20.54 39.9902 20.3789 39.8613C20.2178 39.7324 19.998 39.668 19.7197 39.668Z" fill="white"/>
<path fill-rule="evenodd" clip-rule="evenodd" d="M31.9189 39C32.2588 39 32.5518 39.0586 32.7979 39.1758C33.0469 39.293 33.251 39.457 33.4092 39.668C33.5673 39.8759 33.6846 40.1222 33.7607 40.4062C33.8369 40.6875 33.875 40.9952 33.875 41.3291V41.6943H30.6602C30.6653 41.8969 30.6941 42.0887 30.75 42.2695C30.8145 42.4658 30.9072 42.6387 31.0273 42.7881C31.1504 42.9374 31.2979 43.0547 31.4707 43.1396C31.6465 43.2246 31.8457 43.2676 32.0684 43.2676C32.3554 43.2676 32.5987 43.2089 32.7979 43.0918C32.9971 42.9746 33.1719 42.8174 33.3213 42.6211L33.8135 43.0127C33.7109 43.1679 33.58 43.3155 33.4219 43.4561C33.2638 43.5966 33.0691 43.711 32.8379 43.7988C32.6094 43.8867 32.3379 43.9307 32.0244 43.9307C31.6935 43.9307 31.3934 43.8749 31.124 43.7637C30.8575 43.6495 30.6269 43.4901 30.4336 43.2852C30.2433 43.0802 30.0967 42.8367 29.9941 42.5557C29.8917 42.2746 29.8409 41.9666 29.8408 41.6328V41.4482C29.8408 41.0615 29.8975 40.7168 30.0117 40.415C30.126 40.1104 30.2812 39.8525 30.4775 39.6416C30.6738 39.4307 30.8966 39.2715 31.1455 39.1631C31.3945 39.0547 31.6523 39 31.9189 39ZM31.9189 39.668C31.7344 39.668 31.5645 39.708 31.4092 39.7871C31.254 39.8633 31.121 39.9776 31.0098 40.1299C30.8985 40.2822 30.8115 40.4678 30.75 40.6875C30.7202 40.7939 30.698 40.9081 30.6826 41.0303H33.0615V40.9688C33.0498 40.7578 33.0059 40.5527 32.9297 40.3535C32.8564 40.1543 32.7393 39.9902 32.5781 39.8613C32.417 39.7324 32.1973 39.668 31.9189 39.668Z" fill="white"/>
<path d="M24.5625 39C24.6211 39 24.6885 39.0078 24.7646 39.0225C24.8408 39.0342 24.8936 39.0469 24.9229 39.0615L24.9189 39.8174C24.8517 39.8028 24.787 39.794 24.7256 39.791C24.6671 39.7852 24.5994 39.7822 24.5234 39.7822C24.3359 39.7822 24.1699 39.8115 24.0264 39.8701C23.8829 39.9287 23.7617 40.0109 23.6621 40.1162C23.5693 40.2145 23.4947 40.331 23.4375 40.4648V43.8428H22.625V39.0879H23.416L23.4316 39.6338C23.4336 39.6306 23.4355 39.6272 23.4375 39.624C23.5576 39.4277 23.71 39.2754 23.8945 39.167C24.082 39.0557 24.3047 39 24.5625 39Z" fill="white"/>
<path d="M27.3213 42.7305L28.5 39.0879H29.3311L27.6211 43.8428H27.002L25.2793 39.0879H26.1143L27.3213 42.7305Z" fill="white"/>
<path d="M36.7617 39C36.8203 39 36.8877 39.0078 36.9639 39.0225C37.04 39.0342 37.0928 39.0469 37.1221 39.0615L37.1182 39.8174C37.051 39.8028 36.9862 39.794 36.9248 39.791C36.8663 39.7852 36.7986 39.7822 36.7227 39.7822C36.5352 39.7822 36.3691 39.8115 36.2256 39.8701C36.0821 39.9287 35.9609 40.0109 35.8613 40.1162C35.7685 40.2145 35.6939 40.331 35.6367 40.4648V43.8428H34.8242V39.0879H35.6152L35.6309 39.6338C35.6328 39.6306 35.6347 39.6272 35.6367 39.624C35.7568 39.4277 35.9092 39.2754 36.0938 39.167C36.2812 39.0557 36.5039 39 36.7617 39Z" fill="white"/>
</svg>
