<svg width="50" height="50" viewBox="0 0 50 50" fill="none" xmlns="http://www.w3.org/2000/svg">
<rect width="50" height="50" fill="#0083CA"/>
<path d="M24.5008 8.80667C17.8563 8.80667 12.4598 14.1951 12.4598 20.8493C12.4598 27.4957 17.8534 32.8878 24.5008 32.8878C31.1518 32.8878 36.5373 27.4938 36.5373 20.8493C36.5373 14.197 31.1489 8.80667 24.5008 8.80667ZM24.5008 7.34766C31.9556 7.34766 38 13.3928 38 20.8493C38 28.3033 31.9556 34.3477 24.5008 34.3477C17.0468 34.3477 11 28.3033 11 20.8493C11 13.3928 17.0468 7.34766 24.5008 7.34766Z" fill="white"/>
<path d="M18.1157 20.7394C18.1157 19.6902 17.2448 19.5057 16.4023 19.5057V21.9739C17.2484 21.9739 18.1157 21.7939 18.1157 20.7394ZM26.1614 21.6274L22.8293 24.2512L19.7838 21.8536C19.3444 22.9092 18.2825 23.6425 17.0596 23.6425H14.4532V17.8363H17.0596C18.4261 17.8363 19.4108 18.7052 19.783 19.631L22.8293 17.2359L23.9575 18.1239L21.1657 20.3182L21.7022 20.7381L24.4933 18.5451L25.6232 19.4306L22.8317 21.6274L23.3675 22.0482L26.1614 19.8509V17.8363H28.1869V21.9478H30.2073V23.6495H26.1614V21.6274ZM32.773 21.9486H34.7927V23.6495H30.7455V17.8363H32.773V21.9486Z" fill="white"/>
<path d="M23.4974 37H22.6782V41.0041C22.6782 41.9276 22.1126 42.3618 21.2444 42.3618C20.3972 42.3618 19.815 41.9342 19.815 41.0041V37H19V41.0041C19 42.2281 19.9722 43 21.2444 43C22.4592 43 23.4974 42.2284 23.4974 41.0041V37Z" fill="white"/>
<path fill-rule="evenodd" clip-rule="evenodd" d="M25.3517 40.5976H26.8196C28.2308 40.5976 29 39.9418 29 38.8049C29 37.7509 28.2242 37 26.8196 37H24.5282V42.9187H25.3517V40.5976ZM25.3517 39.9593V37.6423H26.8196C27.567 37.6423 28.1765 38.0781 28.1765 38.813C28.1765 39.4769 27.7859 39.9593 26.8196 39.9593H25.3517Z" fill="white"/>
</svg>
