<svg width="50" height="50" viewBox="0 0 50 50" fill="none" xmlns="http://www.w3.org/2000/svg">
<rect width="50" height="50" fill="#0083CA"/>
<path d="M24.5008 8.55667C17.8563 8.55667 12.4598 13.9451 12.4598 20.5993C12.4598 27.2457 17.8534 32.6378 24.5008 32.6378C31.1518 32.6378 36.5373 27.2438 36.5373 20.5993C36.5373 13.947 31.1489 8.55667 24.5008 8.55667ZM24.5008 7.09766C31.9556 7.09766 38 13.1428 38 20.5993C38 28.0533 31.9556 34.0977 24.5008 34.0977C17.0468 34.0977 11 28.0533 11 20.5993C11 13.1428 17.0468 7.09766 24.5008 7.09766Z" fill="white"/>
<path d="M18.1157 20.4894C18.1157 19.4402 17.2448 19.2557 16.4023 19.2557V21.7239C17.2484 21.7239 18.1157 21.5439 18.1157 20.4894ZM26.1614 21.3774L22.8293 24.0012L19.7838 21.6036C19.3444 22.6592 18.2825 23.3925 17.0596 23.3925H14.4532V17.5863H17.0596C18.4261 17.5863 19.4108 18.4552 19.783 19.381L22.8293 16.9859L23.9575 17.8739L21.1657 20.0682L21.7022 20.4881L24.4933 18.2951L25.6232 19.1806L22.8317 21.3774L23.3675 21.7982L26.1614 19.6009V17.5863H28.1869V21.6978H30.2073V23.3995H26.1614V21.3774ZM32.773 21.6986H34.7927V23.3995H30.7455V17.5863H32.773V21.6986Z" fill="white"/>
<path d="M29.0618 37.7223V35.0977H28.2456V42.0077H29.0618V38.5339C29.3915 37.8651 30.6461 37.3001 31.0691 38.1973C31.1427 38.3502 31.1794 38.5542 31.1794 38.8091V42.0077H32V38.8181C32 38.4972 31.9647 38.2258 31.8941 38.0038C31.5011 36.7515 29.7923 36.817 29.0618 37.7223Z" fill="white"/>
<path d="M25.6976 41.4139C24.6938 41.4139 24.3917 40.5246 24.3917 39.6684C24.3917 38.8058 24.658 37.7339 25.6976 37.7339C26.298 37.7339 26.7776 38.1995 26.8225 38.8136H27.599C27.5547 37.8023 26.8137 37.0501 25.6976 37.0501C24.2733 37.0501 23.5755 38.3126 23.5755 39.6684C23.5755 40.9768 24.2742 42.0977 25.6976 42.0977C26.5888 42.0977 27.5497 41.4338 27.599 40.4691H26.8225C26.7788 41.0131 26.2825 41.4139 25.6976 41.4139Z" fill="white"/>
<path fill-rule="evenodd" clip-rule="evenodd" d="M21.248 42.0977C19.9287 42.0977 19.0554 41.1192 19.0554 39.7448C19.0554 38.4659 19.7449 37.0501 21.1422 37.0501C22.7288 37.0501 23.1054 38.4667 23.1054 39.8078H19.8768C19.8971 40.633 20.4104 41.4184 21.2922 41.4184C21.8686 41.4184 22.2495 41.1589 22.5495 40.757L23.0436 41.1574C22.7359 41.6325 22.1992 42.0977 21.248 42.0977ZM19.9006 39.1285H22.2892C22.2892 38.4046 21.8966 37.7339 21.1422 37.7339C20.5 37.7339 20.0119 38.2265 19.9006 39.1285Z" fill="white"/>
<path d="M18.5809 37.7789V37.1401H17.6897V35.9569H16.8735V37.1401H16V37.7789H16.8735V40.7975C16.8735 41.7898 17.729 42.2912 18.6029 42.0077L18.5985 41.3284C18.1263 41.4395 17.6897 41.356 17.6897 40.802V37.7789H18.5809Z" fill="white"/>
</svg>
