<svg width="50" height="50" viewBox="0 0 50 50" fill="none" xmlns="http://www.w3.org/2000/svg">
<rect width="50" height="50" fill="#0083CA"/>
<path d="M25.0007 8.64456C19.0945 8.64456 14.2976 13.4343 14.2976 19.3491C14.2976 25.257 19.0919 30.05 25.0007 30.05C30.9127 30.05 35.6998 25.2553 35.6998 19.3491C35.6998 13.436 30.9102 8.64456 25.0007 8.64456ZM25.0007 7.34766C31.6272 7.34766 37 12.7212 37 19.3491C37 25.9749 31.6272 31.3477 25.0007 31.3477C18.375 31.3477 13 25.9749 13 19.3491C13 12.7212 18.375 7.34766 25.0007 7.34766Z" fill="white"/>
<path d="M19.3251 19.2514C19.3251 18.3188 18.5509 18.1548 17.8021 18.1548V20.3488C18.5541 20.3488 19.3251 20.1887 19.3251 19.2514ZM26.4768 20.0408L23.5149 22.373L20.8079 20.2418C20.4172 21.1802 19.4733 21.8319 18.3863 21.8319H16.0695V16.6709H18.3863C19.601 16.6709 20.4763 17.4433 20.8071 18.2662L23.5149 16.1372L24.5178 16.9265L22.0362 18.877L22.5131 19.2503L24.994 17.3009L25.9984 18.088L23.5171 20.0408L23.9933 20.4148L26.4768 18.4617V16.6709H28.2772V20.3255H30.0732V21.8382H26.4768V20.0408ZM32.3538 20.3263H34.149V21.8382H30.5516V16.6709H32.3538V20.3263Z" fill="white"/>
<path fill-rule="evenodd" clip-rule="evenodd" d="M15.7123 36.2478V38.2857H15V32.4259H15.6511L15.6861 32.8907C15.9676 32.5356 16.365 32.3477 16.8842 32.3477C17.9203 32.3477 18.5042 33.2053 18.5042 34.5069C18.5042 35.531 18.08 36.7367 16.8957 36.7367C16.3863 36.7367 15.9918 36.5664 15.7123 36.2478ZM15.7123 35.5615C15.894 35.9002 16.1951 36.1421 16.6851 36.1421C17.4695 36.1421 17.7919 35.4178 17.7919 34.5891C17.7919 33.8563 17.5204 32.9579 16.6774 32.9579C16.2047 32.9579 15.9012 33.1986 15.7123 33.5409V35.5615Z" fill="white"/>
<path d="M33.7055 33.6493V36.6584H32.997V32.4259H33.6864L33.7004 32.9117C33.9017 32.5784 34.2302 32.3477 34.686 32.3477C34.7878 32.3477 34.9488 32.3763 35 32.4024L34.9962 33.0752C34.8813 33.0497 34.7873 33.0439 34.6515 33.0439C34.1732 33.0439 33.8626 33.2755 33.7055 33.6493Z" fill="white"/>
<path d="M22.474 38.5893V38.0338H21.7004V37.005H20.9919V38.0338H20.2336V38.5893H20.9919V41.2141C20.9919 42.1266 21.6667 42.5349 22.4932 42.2663L22.4894 41.6756C22.0794 41.7723 21.7004 41.6997 21.7004 41.218V38.5893H22.474Z" fill="white"/>
<path fill-rule="evenodd" clip-rule="evenodd" d="M22.8055 40.107C22.8055 38.8723 23.5425 37.9556 24.686 37.9556C25.8688 37.9556 26.5779 38.9849 26.5779 40.107C26.5779 41.2654 25.924 42.3446 24.6936 42.3446C23.4971 42.3446 22.8055 41.2661 22.8055 40.107ZM23.514 40.107C23.514 40.864 23.8141 41.75 24.6936 41.75C25.497 41.75 25.8655 40.9305 25.8655 40.197C25.8655 39.4399 25.5666 38.5501 24.686 38.5501C23.9277 38.5501 23.514 39.2526 23.514 40.107Z" fill="white"/>
<path d="M27.9396 39.2572V42.2663H27.2311V38.0338H27.9204L27.9396 38.511C28.1509 38.1583 28.4748 37.9556 28.92 37.9556C29.0218 37.9556 29.1828 37.9842 29.234 38.0103L29.2302 38.6831C29.1154 38.6576 29.0214 38.6519 28.8855 38.6519C28.4073 38.6519 28.0967 38.8834 27.9396 39.2572Z" fill="white"/>
<path fill-rule="evenodd" clip-rule="evenodd" d="M31.2966 42.3446C32.1223 42.3446 32.5882 41.9401 32.8553 41.527L32.4264 41.1788C32.166 41.5283 31.8353 41.7539 31.3349 41.7539C30.5695 41.7539 30.1239 41.071 30.1062 40.3535H32.9089C32.9089 39.1873 32.582 37.9556 31.2047 37.9556C29.9917 37.9556 29.3932 39.1867 29.3932 40.2987C29.3932 41.4937 30.1513 42.3446 31.2966 42.3446ZM30.127 39.7628C30.2235 38.9785 30.6473 38.5501 31.2047 38.5501C31.8596 38.5501 32.2004 39.1334 32.2004 39.7628H30.127Z" fill="white"/>
<path d="M19.3353 41.1436C19.3353 40.4112 18.2736 40.4239 17.7574 40.2361C17.2107 40.0344 16.8881 39.7181 16.8881 39.1917C16.8881 38.3831 17.7178 37.9556 18.4238 37.9556C19.1868 37.9556 20.0017 38.3998 20.0017 39.2777H19.2932C19.2932 38.9259 18.9875 38.5501 18.4238 38.5501C17.8462 38.5501 17.6004 38.8539 17.6004 39.1721C17.6004 39.4778 17.7671 39.6456 18.554 39.8254C19.5728 40.0601 20.0438 40.4082 20.0438 41.0889C20.0438 41.963 19.1818 42.3446 18.443 42.3446C17.6497 42.3446 16.7464 41.885 16.7464 40.9598H17.4587C17.4867 41.5034 17.9642 41.75 18.443 41.75C19.0317 41.75 19.3353 41.4937 19.3353 41.1436Z" fill="white"/>
<path fill-rule="evenodd" clip-rule="evenodd" d="M30.7928 36.7367C29.6485 36.7367 28.8894 35.8056 28.8894 34.6908C28.8894 33.5788 29.4879 32.3477 30.7008 32.3477C32.0782 32.3477 32.4051 33.5794 32.4051 34.7456H29.6024C29.6216 35.5231 30.0821 36.146 30.8311 36.146C31.3315 36.146 31.6621 35.9204 31.9225 35.5709L32.3515 35.9191C32.0844 36.3322 31.6184 36.7367 30.7928 36.7367ZM29.6231 34.1549H31.6966C31.6966 33.5255 31.3558 32.9422 30.7008 32.9422C30.1434 32.9422 29.7197 33.3706 29.6231 34.1549Z" fill="white"/>
<path d="M24.2379 36.6584L23.0353 32.4259H23.7438L24.5584 35.5855L25.5247 32.4259H26.0953L27.077 35.6514L27.8762 32.4259H28.5808L27.3783 36.6584H26.8038L25.7972 33.4539L24.8162 36.6584H24.2379Z" fill="white"/>
<path fill-rule="evenodd" clip-rule="evenodd" d="M18.9851 34.5891C18.9851 33.4606 19.6558 32.3477 20.8655 32.3477C22.0309 32.3477 22.7574 33.2713 22.7574 34.4991C22.7574 35.6243 22.0772 36.7367 20.8732 36.7367C19.7047 36.7367 18.9851 35.8077 18.9851 34.5891ZM19.6936 34.5891C19.6936 35.3296 20.0662 36.1421 20.8732 36.1421C21.6648 36.1421 22.0451 35.4194 22.0451 34.5891C22.0451 33.8372 21.743 32.9422 20.8655 32.9422C20.0046 32.9422 19.6936 33.8514 19.6936 34.5891Z" fill="white"/>
</svg>
