<svg width="50" height="50" viewBox="0 0 50 50" fill="none" xmlns="http://www.w3.org/2000/svg">
<rect width="50" height="50" fill="#0083CA"/>
<path d="M25.0008 8.55667C18.6023 8.55667 13.4058 13.9451 13.4058 20.5993C13.4058 27.2457 18.5996 32.6378 25.0008 32.6378C31.4054 32.6378 36.5914 27.2438 36.5914 20.5993C36.5914 13.947 31.4027 8.55667 25.0008 8.55667ZM25.0008 7.09766C32.1795 7.09766 38 13.1428 38 20.5993C38 28.0533 32.1795 34.0977 25.0008 34.0977C17.8229 34.0977 12 28.0533 12 20.5993C12 13.1428 17.8229 7.09766 25.0008 7.09766Z" fill="white"/>
<path d="M18.8521 20.4894C18.8521 19.4402 18.0135 19.2557 17.2022 19.2557V21.7239C18.0169 21.7239 18.8521 21.5439 18.8521 20.4894ZM26.5999 21.3774L23.3911 24.0012L20.4585 21.6036C20.0353 22.6592 19.0128 23.3925 17.8352 23.3925H15.3253V17.5863H17.8352C19.151 17.5863 20.0993 18.4552 20.4577 19.381L23.3911 16.9859L24.4776 17.8739L21.7892 20.0682L22.3058 20.4881L24.9935 18.2951L26.0816 19.1806L23.3935 21.3774L23.9094 21.7982L26.5999 19.6009V17.5863H28.5503V21.6978H30.4959V23.3995H26.5999V21.3774ZM32.9666 21.6986H34.9114V23.3995H31.0142V17.5863H32.9666V21.6986Z" fill="white"/>
<path d="M24.542 36H23.7146V40.0041C23.7146 40.9276 23.1435 41.3618 22.2667 41.3618C21.411 41.3618 20.8231 40.9342 20.8231 40.0041V36H20V40.0041C20 41.2572 21.0122 42 22.2667 42C23.5277 42 24.542 41.2102 24.542 40.0041V36Z" fill="white"/>
<path d="M30 36H29.1726V40.0041C29.1726 40.9276 28.6015 41.3618 27.7247 41.3618C26.869 41.3618 26.2811 40.9342 26.2811 40.0041V36H25.458V40.0041C25.458 41.2572 26.4702 42 27.7247 42C28.9515 42 30 41.2284 30 40.0041V36Z" fill="white"/>
</svg>
