<svg width="50" height="50" viewBox="0 0 50 50" fill="none" xmlns="http://www.w3.org/2000/svg">
<rect width="50" height="50" fill="#0083CA"/>
<path d="M25.0008 9.50263C18.6023 9.50263 13.4058 14.6915 13.4058 21.0993C13.4058 27.4995 18.5996 32.6919 25.0008 32.6919C31.4054 32.6919 36.5914 27.4976 36.5914 21.0993C36.5914 14.6933 31.4027 9.50263 25.0008 9.50263ZM25.0008 8.09766C32.1795 8.09766 38 13.9189 38 21.0993C38 28.2772 32.1795 34.0977 25.0008 34.0977C17.8229 34.0977 12 28.2772 12 21.0993C12 13.9189 17.8229 8.09766 25.0008 8.09766Z" fill="white"/>
<path d="M18.8521 20.9934C18.8521 19.9831 18.0135 19.8054 17.2022 19.8054V22.1822C18.0169 22.1822 18.8521 22.0088 18.8521 20.9934ZM26.5999 21.8485L23.3911 24.3752L20.4585 22.0663C20.0353 23.0829 19.0128 23.789 17.8352 23.789H15.3253V18.1978H17.8352C19.151 18.1978 20.0993 19.0346 20.4577 19.9261L23.3911 17.6196L24.4776 18.4748L21.7892 20.5878L22.3058 20.9922L24.9935 18.8803L26.0816 19.7331L23.3935 21.8485L23.9094 22.2537L26.5999 20.1379V18.1978H28.5503V22.157H30.4959V23.7958H26.5999V21.8485ZM32.9666 22.1578H34.9114V23.7958H31.0142V18.1978H32.9666V22.1578Z" fill="white"/>
<path fill-rule="evenodd" clip-rule="evenodd" d="M20.7704 39.2821C20.7704 37.7625 20.1415 36.0977 18.3832 36.0977C16.9975 36.0977 16 37.1378 16 38.9132C16 39.4369 16.006 39.9578 16.1752 40.4613C16.5277 41.5106 17.3476 42.0977 18.3913 42.0977C19.8446 42.0977 20.7704 41.0328 20.7704 39.2821ZM19.9923 39.2821C19.9923 40.6622 19.4234 41.4439 18.3913 41.4439C17.663 41.4439 17.1208 41.0166 16.8922 40.2126C16.7718 39.785 16.7781 39.3445 16.7781 38.9051C16.7781 37.5059 17.417 36.7554 18.3832 36.7554C19.7516 36.7554 19.9923 38.1914 19.9923 39.2821Z" fill="white"/>
<path d="M22.9581 36.1779L24.9013 40.9386L26.8404 36.1779H27.8507V42.0174H27.0685L27.144 37.2973L25.1946 42.0174H24.5998L22.6543 37.2907L22.7299 42.0174H21.9478V36.1779H22.9581Z" fill="white"/>
<path d="M33 41.3878V42.0174H29.2317V36.1779H32.9593V36.8116H30.018V38.6886H32.5845V39.3182H30.018V41.3878H33Z" fill="white"/>
</svg>
