<svg width="50" height="50" viewBox="0 0 50 50" fill="none" xmlns="http://www.w3.org/2000/svg">
<path d="M25.0009 6.96878C17.6181 6.96878 11.622 12.9559 11.622 20.3495C11.622 27.7344 17.6149 33.7256 25.0009 33.7256C32.3909 33.7256 38.3747 27.7322 38.3747 20.3495C38.3747 12.9581 32.3877 6.96878 25.0009 6.96878ZM25.0009 5.34766C33.2841 5.34766 40 12.0645 40 20.3495C40 28.6317 33.2841 35.3477 25.0009 35.3477C16.7187 35.3477 10 28.6317 10 20.3495C10 12.0645 16.7187 5.34766 25.0009 5.34766Z" fill="#0083CA"/>
<path d="M17.9063 20.2274C17.9063 19.0616 16.9387 18.8566 16.0026 18.8566V21.599C16.9426 21.599 17.9063 21.399 17.9063 20.2274ZM26.846 21.214L23.1436 24.1294L19.7598 21.4653C19.2716 22.6383 18.0917 23.453 16.7329 23.453H13.8369V17.0017H16.7329C18.2512 17.0017 19.3453 17.9672 19.7589 18.9958L23.1436 16.3345L24.3973 17.3212L21.2952 19.7594L21.8914 20.226L24.9925 17.7892L26.248 18.7731L23.1464 21.214L23.7416 21.6816L26.846 19.2402V17.0017H29.0965V21.57H31.3415V23.4608H26.846V21.214ZM34.1923 21.5709H36.4363V23.4608H31.9395V17.0017H34.1923V21.5709Z" fill="#0083CA"/>
<path d="M24.084 38.8906H23.1465V43.7002C23.1465 44.8095 22.4993 45.3311 21.5059 45.3311C20.5363 45.3311 19.8701 44.8175 19.8701 43.7002V38.8906H18.9375V43.7002C18.9375 45.1705 20.05 46.0977 21.5059 46.0977C22.8959 46.0977 24.084 45.1708 24.084 43.7002V38.8906Z" fill="black"/>
<path fill-rule="evenodd" clip-rule="evenodd" d="M26.2059 43.2119H27.8855C29.5004 43.2119 30.3807 42.4243 30.3807 41.0586C30.3807 39.7926 29.4929 38.8906 27.8855 38.8906H25.2635V46H26.2059V43.2119ZM26.2059 42.4453V39.6621H27.8855C28.7409 39.6621 29.4383 40.1856 29.4383 41.0684C29.4383 41.8658 28.9914 42.4453 27.8855 42.4453H26.2059Z" fill="black"/>
</svg>
