<svg width="50" height="50" viewBox="0 0 50 50" fill="none" xmlns="http://www.w3.org/2000/svg">
<path d="M25 44C35.4934 44 44 35.4934 44 25C44 14.5066 35.4934 6 25 6C14.5066 6 6 14.5066 6 25C6 35.4934 14.5066 44 25 44Z" fill="#153D59"/>
<path d="M20.5257 22.7745V11.3399C20.5375 11.0451 20.2015 10.8681 19.9508 11.0206C19.5294 11.2654 17.0995 12.3018 17.1088 12.7763V36.9879C17.1113 37.1903 17.2895 37.3685 17.492 37.3711H20.1748C20.3772 37.3684 20.5554 37.1903 20.558 36.9879V35.3907C22.2195 36.9181 24.4021 37.7524 26.6587 37.7226C31.3646 37.8356 35.3932 33.9961 35.5063 29.2902C35.6193 24.5843 31.7798 20.5557 27.0739 20.4427C24.6373 20.4427 22.3537 21.0854 20.5257 22.7745ZM26.626 34.4962C23.7508 34.5597 21.2863 32.1699 21.2285 29.3227C21.2285 26.3196 23.5143 23.6691 26.6263 23.6691C29.5663 23.6691 32.0241 26.1269 32.0241 29.0669C32.1126 32.0704 29.5744 34.5021 26.626 34.4962Z" fill="white"/>
<path d="M35.117 20.6938C36.2713 20.6938 37.207 19.7581 37.207 18.6038C37.207 17.4496 36.2713 16.5138 35.117 16.5138C33.9627 16.5138 33.027 17.4496 33.027 18.6038C33.027 19.7581 33.9627 20.6938 35.117 20.6938Z" fill="#F37B67"/>
</svg>
