<svg width="50" height="50" viewBox="0 0 50 50" fill="none" xmlns="http://www.w3.org/2000/svg">
<path d="M25.0009 6.96878C17.6181 6.96878 11.622 12.9559 11.622 20.3495C11.622 27.7344 17.6149 33.7256 25.0009 33.7256C32.3909 33.7256 38.3747 27.7322 38.3747 20.3495C38.3747 12.9581 32.3877 6.96878 25.0009 6.96878ZM25.0009 5.34766C33.2841 5.34766 40 12.0645 40 20.3495C40 28.6317 33.2841 35.3477 25.0009 35.3477C16.7187 35.3477 10 28.6317 10 20.3495C10 12.0645 16.7187 5.34766 25.0009 5.34766Z" fill="#0083CA"/>
<path d="M17.9063 20.2274C17.9063 19.0616 16.9387 18.8566 16.0026 18.8566V21.599C16.9426 21.599 17.9063 21.399 17.9063 20.2274ZM26.846 21.214L23.1436 24.1294L19.7598 21.4653C19.2716 22.6383 18.0917 23.453 16.7329 23.453H13.8369V17.0017H16.7329C18.2512 17.0017 19.3453 17.9672 19.7589 18.9958L23.1436 16.3345L24.3973 17.3212L21.2952 19.7594L21.8914 20.226L24.9925 17.7892L26.248 18.7731L23.1464 21.214L23.7416 21.6816L26.846 19.2402V17.0017H29.0965V21.57H31.3415V23.4608H26.846V21.214ZM34.1923 21.5709H36.4363V23.4608H31.9395V17.0017H34.1923V21.5709Z" fill="#0083CA"/>
<path d="M29.7924 41.3488V38.5H28.8891V46H29.7924V42.2297C30.1573 41.5037 31.5459 40.8905 32.0141 41.8643C32.0954 42.0303 32.1361 42.2516 32.1361 42.5283V46H33.0443V42.5381C33.0443 42.1898 33.0053 41.8952 32.9271 41.6543C32.4922 40.2951 30.6009 40.3661 29.7924 41.3488Z" fill="black"/>
<path d="M26.0689 45.3555C24.9581 45.3555 24.6236 44.3903 24.6236 43.4609C24.6236 42.5247 24.9184 41.3613 26.0689 41.3613C26.7335 41.3613 27.2643 41.8667 27.3141 42.5332H28.1734C28.1244 41.4355 27.3042 40.6191 26.0689 40.6191C24.4926 40.6191 23.7203 41.9895 23.7203 43.4609C23.7203 44.8811 24.4936 46.0977 26.0689 46.0977C27.0554 46.0977 28.1189 45.3771 28.1734 44.3301H27.3141C27.2657 44.9205 26.7164 45.3555 26.0689 45.3555Z" fill="black"/>
<path fill-rule="evenodd" clip-rule="evenodd" d="M21.1443 46.0977C19.6841 46.0977 18.7176 45.0356 18.7176 43.5439C18.7176 42.1559 19.4807 40.6191 21.0271 40.6191C22.7832 40.6191 23.2 42.1566 23.2 43.6123H19.6266C19.6492 44.508 20.2172 45.3604 21.1932 45.3604C21.8312 45.3604 22.2527 45.0788 22.5848 44.6426L23.1316 45.0771C22.7911 45.5928 22.197 46.0977 21.1443 46.0977ZM19.6531 42.875H22.2967C22.2967 42.0893 21.8621 41.3613 21.0271 41.3613C20.3165 41.3613 19.7762 41.896 19.6531 42.875Z" fill="black"/>
<path d="M18.1924 41.4102V40.7168H17.2061V39.4326H16.3027V40.7168H15.3359V41.4102H16.3027V44.6865C16.3027 45.7635 17.2495 46.3078 18.2168 46L18.2119 45.2627C17.6893 45.3833 17.2061 45.2927 17.2061 44.6914V41.4102H18.1924Z" fill="black"/>
</svg>
