<svg width="50" height="50" viewBox="0 0 50 50" fill="none" xmlns="http://www.w3.org/2000/svg">
<path d="M25.0009 6.96878C17.6181 6.96878 11.622 12.9559 11.622 20.3495C11.622 27.7344 17.6149 33.7256 25.0009 33.7256C32.3909 33.7256 38.3747 27.7322 38.3747 20.3495C38.3747 12.9581 32.3877 6.96878 25.0009 6.96878ZM25.0009 5.34766C33.2841 5.34766 40 12.0645 40 20.3495C40 28.6317 33.2841 35.3477 25.0009 35.3477C16.7187 35.3477 10 28.6317 10 20.3495C10 12.0645 16.7187 5.34766 25.0009 5.34766Z" fill="#0083CA"/>
<path d="M17.9063 20.2274C17.9063 19.0616 16.9387 18.8566 16.0026 18.8566V21.599C16.9426 21.599 17.9063 21.399 17.9063 20.2274ZM26.846 21.214L23.1436 24.1294L19.7598 21.4653C19.2716 22.6383 18.0917 23.453 16.7329 23.453H13.8369V17.0017H16.7329C18.2512 17.0017 19.3453 17.9672 19.7589 18.9958L23.1436 16.3345L24.3973 17.3212L21.2952 19.7594L21.8914 20.226L24.9925 17.7892L26.248 18.7731L23.1464 21.214L23.7416 21.6816L26.846 19.2402V17.0017H29.0965V21.57H31.3415V23.4608H26.846V21.214ZM34.1923 21.5709H36.4363V23.4608H31.9395V17.0017H34.1923V21.5709Z" fill="#0083CA"/>
<path d="M34.649 44.2031C34.649 43.5396 34.3193 43.2222 32.9596 42.8262C31.5487 42.4081 30.6549 41.8321 30.6549 40.7266C30.6549 39.6105 31.6256 38.793 33.0719 38.793C34.3077 38.793 35.5768 39.5767 35.5768 40.9414H34.6393C34.6393 40.1326 34.128 39.5645 33.0719 39.5645C32.0688 39.5645 31.5973 40.049 31.5973 40.7168C31.5973 41.3178 32.1077 41.6851 33.2623 42.0059C34.8746 42.4609 35.5963 43.081 35.5963 44.1934C35.5963 45.3485 34.6276 46.0977 33.1158 46.0977C31.8448 46.0977 30.4303 45.3373 30.4303 43.9395H31.3678C31.3678 44.9146 32.2145 45.3311 33.1158 45.3311C34.1051 45.3311 34.649 44.8923 34.649 44.2031Z" fill="black"/>
<path d="M23.6404 38.8906L25.9695 44.6865L28.2937 38.8906H29.5047V46H28.5672L28.6576 40.2535L26.3211 46H25.6082L23.2764 40.2455L23.367 46H22.4295V38.8906H23.6404Z" fill="black"/>
<path d="M17.1338 38.8906L15.527 44.6956L14.2627 38.8906H13.3252L15.0488 46H15.9033L17.5335 40.275L19.1113 46H19.9658L21.6846 38.8906H20.7422L19.4925 44.7164L17.9199 38.8906H17.1338Z" fill="black"/>
</svg>
