<svg width="50" height="50" viewBox="0 0 50 50" fill="none" xmlns="http://www.w3.org/2000/svg">
<path d="M25.0009 6.96878C17.6181 6.96878 11.622 12.9559 11.622 20.3495C11.622 27.7344 17.6149 33.7256 25.0009 33.7256C32.3909 33.7256 38.3747 27.7322 38.3747 20.3495C38.3747 12.9581 32.3877 6.96878 25.0009 6.96878ZM25.0009 5.34766C33.2841 5.34766 40 12.0645 40 20.3495C40 28.6317 33.2841 35.3477 25.0009 35.3477C16.7187 35.3477 10 28.6317 10 20.3495C10 12.0645 16.7187 5.34766 25.0009 5.34766Z" fill="#0083CA"/>
<path d="M17.9063 20.2274C17.9063 19.0616 16.9387 18.8566 16.0026 18.8566V21.599C16.9426 21.599 17.9063 21.399 17.9063 20.2274ZM26.846 21.214L23.1436 24.1294L19.7598 21.4653C19.2716 22.6383 18.0917 23.453 16.7329 23.453H13.8369V17.0017H16.7329C18.2512 17.0017 19.3453 17.9672 19.7589 18.9958L23.1436 16.3345L24.3973 17.3212L21.2952 19.7594L21.8914 20.226L24.9925 17.7892L26.248 18.7731L23.1464 21.214L23.7416 21.6816L26.846 19.2402V17.0017H29.0965V21.57H31.3415V23.4608H26.846V21.214ZM34.1923 21.5709H36.4363V23.4608H31.9395V17.0017H34.1923V21.5709Z" fill="#0083CA"/>
<path d="M26.8008 42.7393H27.7383C27.5778 44.2161 26.4786 45.0977 25.043 45.0977C23.3786 45.0977 22.2695 43.784 22.2695 41.8018C22.2695 39.8898 22.8379 37.793 25.126 37.793C26.7358 37.793 27.5915 38.762 27.7383 40.1709H26.8008C26.6631 39.1676 26.2256 38.5645 25.126 38.5645C23.3542 38.5645 23.207 40.4432 23.207 41.8018C23.207 43.1954 23.775 44.3311 25.043 44.3311C26.2464 44.3311 26.6451 43.7317 26.8008 42.7393Z" fill="black"/>
<path d="M32.8115 43.2031C32.8115 42.5396 32.4818 42.2222 31.1221 41.8262C29.7112 41.4082 28.8174 40.8321 28.8174 39.7266C28.8174 38.6105 29.7881 37.793 31.2344 37.793C32.4702 37.793 33.7393 38.5767 33.7393 39.9414H32.8018C32.8018 39.1326 32.2905 38.5645 31.2344 38.5645C30.2313 38.5645 29.7598 39.049 29.7598 39.7168C29.7598 40.3178 30.2702 40.6851 31.4248 41.0059C33.0371 41.4609 33.7588 42.081 33.7588 43.1934C33.7588 44.3485 32.7901 45.0977 31.2783 45.0977C30.013 45.0977 28.5928 44.358 28.5928 42.9395H29.5303C29.5303 43.9146 30.377 44.3311 31.2783 44.3311C32.2676 44.3311 32.8115 43.8923 32.8115 43.2031Z" fill="black"/>
<path d="M21.3418 45V44.2334H17.7676V41.7139H20.8438V40.9473H17.7676V38.6621H21.293V37.8906H16.8252V45H21.3418Z" fill="black"/>
</svg>
