<svg width="50" height="50" viewBox="0 0 50 50" fill="none" xmlns="http://www.w3.org/2000/svg">
<path d="M25.0009 6.96878C17.6181 6.96878 11.622 12.9559 11.622 20.3495C11.622 27.7344 17.6149 33.7256 25.0009 33.7256C32.3909 33.7256 38.3747 27.7322 38.3747 20.3495C38.3747 12.9581 32.3877 6.96878 25.0009 6.96878ZM25.0009 5.34766C33.2841 5.34766 40 12.0645 40 20.3495C40 28.6317 33.2841 35.3477 25.0009 35.3477C16.7187 35.3477 10 28.6317 10 20.3495C10 12.0645 16.7187 5.34766 25.0009 5.34766Z" fill="#0083CA"/>
<path d="M17.9063 20.2274C17.9063 19.0616 16.9387 18.8566 16.0026 18.8566V21.599C16.9426 21.599 17.9063 21.399 17.9063 20.2274ZM26.846 21.214L23.1436 24.1294L19.7598 21.4653C19.2716 22.6383 18.0917 23.453 16.7329 23.453H13.8369V17.0017H16.7329C18.2512 17.0017 19.3453 17.9672 19.7589 18.9958L23.1436 16.3345L24.3973 17.3212L21.2952 19.7594L21.8914 20.226L24.9925 17.7892L26.248 18.7731L23.1464 21.214L23.7416 21.6816L26.846 19.2402V17.0017H29.0965V21.57H31.3415V23.4608H26.846V21.214ZM34.1923 21.5709H36.4363V23.4608H31.9395V17.0017H34.1923V21.5709Z" fill="#0083CA"/>
<path fill-rule="evenodd" clip-rule="evenodd" d="M12.9268 41.4875V44.0313H12.0186V36.7168H12.8486L12.8933 37.297C13.4538 36.6048 14.516 36.4151 15.3047 36.8145C16.0745 37.1945 16.4863 38.0981 16.4863 39.3145C16.4863 40.5927 15.9455 42.0977 14.4355 42.0977C13.786 42.0977 13.2831 41.8851 12.9268 41.4875ZM12.9268 40.6309C13.2762 41.2686 14.1446 41.5786 14.7969 41.2041C15.3394 40.8885 15.5781 40.199 15.5781 39.417C15.5781 38.7368 15.4467 37.9034 14.7969 37.5371C14.1404 37.1552 13.285 37.473 12.9268 38.1086V40.6309Z" fill="black"/>
<path d="M35.8674 38.244V42H34.9641V36.7168H35.843L35.8674 37.3125C36.1368 36.8722 36.5497 36.6192 37.1174 36.6192C37.2472 36.6192 37.4525 36.6549 37.5178 36.6875L37.5129 37.5274C37.3664 37.4955 37.2466 37.4883 37.0734 37.4883C36.4637 37.4883 36.0677 37.7774 35.8674 38.244Z" fill="black"/>
<path d="M16.8016 49V45.1293C17.0026 44.6811 17.3743 44.3809 18.0174 44.3809C18.6996 44.3809 19.1453 44.696 19.1453 45.5235V49H20.0486V45.4809C20.1167 44.8684 20.5511 44.3809 21.2693 44.3809C22.0095 44.3809 22.3973 44.8045 22.3973 45.5186V49H23.3055V45.5283C23.3055 44.2045 22.677 43.6192 21.533 43.6192C20.779 43.6192 20.2055 43.9555 19.8528 44.4643C19.2837 43.267 17.5145 43.4138 16.7795 44.2919L16.7527 43.7168H15.8934V49H16.8016Z" fill="black"/>
<path fill-rule="evenodd" clip-rule="evenodd" d="M27.5083 48.4416C27.1745 48.7912 26.6669 49.0977 26.0035 49.0977C25.0992 49.0977 24.2164 48.5136 24.2164 47.5303C24.2164 46.6718 24.7417 46.1318 25.6129 45.9092C26.2227 45.7534 26.8642 45.7969 27.4879 45.7969C27.4879 45.0278 27.3147 44.3467 26.3746 44.3467C25.7009 44.3467 25.232 44.7362 25.232 45.1817H24.3287C24.3287 44.1461 25.5439 43.6192 26.4283 43.6192C27.5866 43.6192 28.3912 44.2062 28.3912 45.3867V47.8477C28.3912 48.1997 28.4532 48.6358 28.5768 48.9219V49H27.6344C27.5578 48.8249 27.5294 48.6305 27.5083 48.4416ZM27.4879 47.5147C27.2352 48.0163 26.685 48.3067 26.1354 48.3067C25.4748 48.3067 25.1246 47.9076 25.1246 47.4082C25.1246 46.9134 25.4508 46.6116 26.0523 46.4951C26.5209 46.3969 27.0122 46.4317 27.4879 46.4317V47.5147Z" fill="black"/>
<path d="M31.2797 45.6407L30.1225 43.7168H29.0824L30.8061 46.3242L29.0287 49H30.0785L31.2992 47.0176L32.5199 49H33.5648L31.7826 46.3242L33.5111 43.7168H32.4516L31.2797 45.6407Z" fill="black"/>
<path fill-rule="evenodd" clip-rule="evenodd" d="M32.1537 42.0977C30.6935 42.0977 29.727 41.0357 29.727 39.544C29.727 38.1559 30.4901 36.6192 32.0365 36.6192C33.7926 36.6192 34.2094 38.1567 34.2094 39.6123H30.636C30.6586 40.508 31.2266 41.3604 32.2025 41.3604C32.8406 41.3604 33.2621 41.0788 33.5941 40.6426L34.141 41.0772C33.8005 41.5928 33.2064 42.0977 32.1537 42.0977ZM33.3061 38.875H30.6625C30.7856 37.896 31.3258 37.3614 32.0365 37.3614C32.8715 37.3614 33.3061 38.0894 33.3061 38.875Z" fill="black"/>
<path d="M23.7965 42L22.2633 36.7168H23.1666L24.2052 40.6608L25.4371 36.7168H26.1646L27.4162 40.743L28.4352 36.7168H29.3336L27.8004 42H27.068L25.7846 38L24.5338 42H23.7965Z" fill="black"/>
<path fill-rule="evenodd" clip-rule="evenodd" d="M17.0994 39.417C17.0994 37.977 17.972 36.6192 19.4969 36.6192C21.005 36.6192 21.909 37.904 21.909 39.3047C21.909 40.7468 21.0289 42.0977 19.5066 42.0977C18.0387 42.0977 17.0994 40.8371 17.0994 39.417ZM18.0027 39.417C18.0027 40.464 18.4996 41.3555 19.5066 41.3555C20.6258 41.3555 21.0008 40.2448 21.0008 39.3047C21.0008 38.3892 20.5205 37.3614 19.4969 37.3614C18.3993 37.3614 18.0027 38.4962 18.0027 39.417Z" fill="black"/>
</svg>
