<svg width="50" height="50" viewBox="0 0 50 50" fill="none" xmlns="http://www.w3.org/2000/svg">
<rect width="50" height="50" fill="#0083CA"/>
<path d="M25.5008 9.50263C19.3484 9.50263 14.3517 14.6915 14.3517 21.0993C14.3517 27.4995 19.3458 32.6919 25.5008 32.6919C31.6591 32.6919 36.6456 27.4976 36.6456 21.0993C36.6456 14.6933 31.6564 9.50263 25.5008 9.50263ZM25.5008 8.09766C32.4034 8.09766 38 13.9189 38 21.0993C38 28.2772 32.4034 34.0977 25.5008 34.0977C18.5989 34.0977 13 28.2772 13 21.0993C13 13.9189 18.5989 8.09766 25.5008 8.09766Z" fill="white"/>
<path d="M19.5886 20.9934C19.5886 19.9831 18.7822 19.8054 18.0021 19.8054V22.1822C18.7855 22.1822 19.5886 22.0088 19.5886 20.9934ZM27.0383 21.8485L23.953 24.3752L21.1332 22.0663C20.7263 23.0829 19.7431 23.789 18.6107 23.789H16.1974V18.1978H18.6107C19.876 18.1978 20.7878 19.0346 21.1324 19.9261L23.953 17.6196L24.9977 18.4748L22.4127 20.5878L22.9095 20.9922L25.4938 18.8803L26.54 19.7331L23.9553 21.8485L24.4514 22.2537L27.0383 20.1379V18.1978H28.9138V22.157H30.7845V23.7958H27.0383V21.8485ZM33.1602 22.1578H35.0302V23.7958H31.2829V18.1978H33.1602V22.1578Z" fill="white"/>
<path d="M34.1919 41.2821C34.1919 40.6463 33.9106 40.3422 32.7506 39.9626C31.5469 39.562 30.7844 39.0101 30.7844 37.9506C30.7844 36.8811 31.6125 36.0977 32.8464 36.0977C33.9007 36.0977 34.9833 36.8487 34.9833 38.1565H34.1835C34.1835 37.3814 33.7474 36.837 32.8464 36.837C31.9906 36.837 31.5883 37.3013 31.5883 37.9412C31.5883 38.5171 32.0238 38.8692 33.0088 39.1765C34.3843 39.6126 35 40.2068 35 41.2728C35 42.3798 34.1736 43.0977 32.8839 43.0977C31.7995 43.0977 30.5927 42.369 30.5927 41.0295H31.3926C31.3926 41.964 32.1149 42.363 32.8839 42.363C33.7279 42.363 34.1919 41.9426 34.1919 41.2821Z" fill="white"/>
<path d="M24.8002 36.1912L26.7872 41.7454L28.77 36.1912H29.8031V43.0041H29.0033L29.0804 37.4973L27.0871 43.0041H26.4789L24.4896 37.4896L24.5669 43.0041H23.7671V36.1912H24.8002Z" fill="white"/>
<path d="M19.2492 36.1912L17.8784 41.7541L16.7998 36.1912H16L17.4705 43.0041H18.1995L19.5902 37.5179L20.9363 43.0041H21.6653L23.1316 36.1912H22.3276L21.2614 41.774L19.9199 36.1912H19.2492Z" fill="white"/>
</svg>
