<svg width="50" height="50" viewBox="0 0 50 50" fill="none" xmlns="http://www.w3.org/2000/svg">
<g clip-path="url(#clip0_9176_11767)">
<path d="M25.0009 6.96878C17.6181 6.96878 11.622 12.9559 11.622 20.3495C11.622 27.7344 17.6149 33.7256 25.0009 33.7256C32.3909 33.7256 38.3747 27.7322 38.3747 20.3495C38.3747 12.9581 32.3877 6.96878 25.0009 6.96878ZM25.0009 5.34766C33.2841 5.34766 40 12.0645 40 20.3495C40 28.6317 33.2841 35.3477 25.0009 35.3477C16.7187 35.3477 10 28.6317 10 20.3495C10 12.0645 16.7187 5.34766 25.0009 5.34766Z" fill="#0083CA"/>
<path d="M17.9063 20.2274C17.9063 19.0616 16.9387 18.8566 16.0026 18.8566V21.599C16.9426 21.599 17.9063 21.399 17.9063 20.2274ZM26.846 21.214L23.1436 24.1294L19.7598 21.4653C19.2716 22.6383 18.0917 23.453 16.7329 23.453H13.8369V17.0017H16.7329C18.2512 17.0017 19.3453 17.9672 19.7589 18.9958L23.1436 16.3345L24.3973 17.3212L21.2952 19.7594L21.8914 20.226L24.9925 17.7892L26.248 18.7731L23.1464 21.214L23.7416 21.6816L26.846 19.2402V17.0017H29.0965V21.57H31.3415V23.4608H26.846V21.214ZM34.1923 21.5709H36.4363V23.4608H31.9395V17.0017H34.1923V21.5709Z" fill="#0083CA"/>
<path d="M35.3682 38.244V42H34.4648V36.7168H35.3438L35.3616 37.3232C35.664 36.8332 36.4387 36.3976 37.0186 36.6875L37.0137 37.5274C36.3617 37.3856 35.6483 37.5915 35.3682 38.244Z" fill="black"/>
<path d="M25.6654 44.4102V43.7168H24.6791V42.4326H23.7758V43.7168H22.809V44.4102H23.7758V47.6866C23.7758 48.7635 24.7226 49.3078 25.6898 49L25.685 48.2627C25.1624 48.3833 24.6791 48.2928 24.6791 47.6914V44.4102H25.6654Z" fill="black"/>
<path d="M38.574 44.4102V43.7168H37.5877V42.4326H36.6844V43.7168H35.7176V44.4102H36.6844V47.6866C36.6844 48.7769 37.5268 49.341 38.5984 49L38.5936 48.2627C38.119 48.3722 37.5877 48.2966 37.5877 47.6914V44.4102H38.574Z" fill="black"/>
<path d="M33.542 48.3555C32.4311 48.3555 32.0967 47.3904 32.0967 46.461C32.0967 45.4914 32.4033 44.3614 33.542 44.3614C34.2693 44.3614 34.7386 44.8837 34.7871 45.5332H35.6465C35.5975 44.4356 34.7773 43.6192 33.542 43.6192C31.9424 43.6192 31.1934 45.0363 31.1934 46.461C31.1934 47.8728 32.0417 49.0977 33.542 49.0977C34.5284 49.0977 35.592 48.3771 35.6465 47.3301H34.7871C34.7387 47.9205 34.1894 48.3555 33.542 48.3555Z" fill="black"/>
<path fill-rule="evenodd" clip-rule="evenodd" d="M28.6174 49.0977C27.1585 49.0977 26.1906 47.9356 26.1906 46.544C26.1906 45.1559 26.9537 43.6192 28.5002 43.6192C30.2562 43.6192 30.673 45.1567 30.673 46.6123H27.0997C27.1222 47.508 27.6903 48.3604 28.6662 48.3604C29.3042 48.3604 29.7258 48.0788 30.0578 47.6426L30.6047 48.0772C30.2642 48.5929 29.6701 49.0977 28.6174 49.0977ZM29.7697 45.875H27.1261C27.2493 44.896 27.7895 44.3614 28.5002 44.3614C29.3352 44.3614 29.7697 45.0894 29.7697 45.875Z" fill="black"/>
<path fill-rule="evenodd" clip-rule="evenodd" d="M17.8111 46.417C17.8111 44.977 18.6837 43.6192 20.2086 43.6192C21.7553 43.6192 22.6207 44.9999 22.6207 46.417C22.6207 47.8338 21.6851 49.0977 20.2184 49.0977C18.7286 49.0977 17.8111 47.9381 17.8111 46.417ZM18.7145 46.417C18.7145 47.464 19.2113 48.3555 20.2184 48.3555C21.2426 48.3555 21.7125 47.3326 21.7125 46.417C21.7125 45.4766 21.2894 44.3614 20.2086 44.3614C19.111 44.3614 18.7145 45.4962 18.7145 46.417Z" fill="black"/>
<path d="M15.9561 44.3232C16.2343 43.8724 16.6812 43.6192 17.2127 43.6192C17.3425 43.6192 17.5478 43.6549 17.6131 43.6875L17.6082 44.5274C17.4618 44.4955 17.3419 44.4883 17.1687 44.4883C16.559 44.4883 16.163 44.7774 15.9627 45.244V49H15.0594V43.7168H15.9383L15.9561 44.3232Z" fill="black"/>
<path fill-rule="evenodd" clip-rule="evenodd" d="M10.614 44.297L10.5693 43.7168H9.73926V50.0313H10.6475V48.4875C11.0038 48.8851 11.5067 49.0977 12.1562 49.0977C13.6289 49.0977 14.207 47.6006 14.207 46.3145C14.207 44.811 13.568 43.7788 12.4275 43.6364V41.4875C12.7839 41.8851 13.2868 42.0977 13.9363 42.0977C15.2587 42.0977 15.9871 40.938 15.9871 39.417C15.9871 38.107 15.4648 36.6192 13.9217 36.6192C13.2596 36.6192 12.7529 36.8538 12.394 37.297L12.3494 36.7168H11.5193V43.7002C11.1525 43.8048 10.8507 44.0047 10.614 44.297ZM12.4275 40.6309V38.1086C12.6684 37.6813 13.0553 37.3809 13.658 37.3809C14.7327 37.3809 15.0789 38.5023 15.0789 39.417C15.0789 40.3031 14.6862 41.3555 13.6678 41.3555C13.0431 41.3555 12.6592 41.0536 12.4275 40.6309ZM10.6475 47.6309V45.1086C10.8883 44.6813 11.2752 44.3809 11.8779 44.3809C12.8563 44.3809 13.2988 45.2447 13.2988 46.3145C13.2988 47.2196 12.9964 48.3555 11.8877 48.3555C11.263 48.3555 10.8791 48.0536 10.6475 47.6309Z" fill="black"/>
<path fill-rule="evenodd" clip-rule="evenodd" d="M31.6545 42.0977C30.1943 42.0977 29.2277 41.0357 29.2277 39.544C29.2277 38.1562 29.9256 36.6192 31.5373 36.6192C33.2933 36.6192 33.7102 38.1567 33.7102 39.6123H30.1368C30.1594 40.508 30.7274 41.3604 31.7033 41.3604C32.3413 41.3604 32.7629 41.0788 33.0949 40.6426L33.6418 41.0772C33.3013 41.5928 32.7072 42.0977 31.6545 42.0977ZM32.8068 38.875H30.1632C30.2864 37.896 30.8266 37.3614 31.5373 37.3614C32.3723 37.3614 32.8068 38.0894 32.8068 38.875Z" fill="black"/>
<path d="M23.2973 42L21.7641 36.7168H22.6674L23.706 40.6608L24.9379 36.7168H25.6654L26.917 40.743L27.9359 36.7168H28.8344L27.3012 42H26.5688L25.2854 38L24.0346 42H23.2973Z" fill="black"/>
<path fill-rule="evenodd" clip-rule="evenodd" d="M16.6002 39.417C16.6002 37.977 17.4728 36.6192 18.9977 36.6192C20.4835 36.6192 21.4098 37.7721 21.4098 39.3047C21.4098 40.7468 20.5297 42.0977 19.0074 42.0977C17.5176 42.0977 16.6002 40.9381 16.6002 39.417ZM17.5035 39.417C17.5035 40.3413 17.9785 41.3555 19.0074 41.3555C20.1266 41.3555 20.5016 40.2448 20.5016 39.3047C20.5016 38.3892 20.0213 37.3614 18.9977 37.3614C17.9 37.3614 17.5035 38.4962 17.5035 39.417Z" fill="black"/>
</g>
<defs>
<clipPath id="clip0_9176_11767">
<rect width="50" height="50" fill="white"/>
</clipPath>
</defs>
</svg>
