<svg width="50" height="50" viewBox="0 0 50 50" fill="none" xmlns="http://www.w3.org/2000/svg">
<path d="M25.0009 6.96878C17.6181 6.96878 11.622 12.9559 11.622 20.3495C11.622 27.7344 17.6149 33.7256 25.0009 33.7256C32.3909 33.7256 38.3747 27.7322 38.3747 20.3495C38.3747 12.9581 32.3877 6.96878 25.0009 6.96878ZM25.0009 5.34766C33.2841 5.34766 40 12.0645 40 20.3495C40 28.6317 33.2841 35.3477 25.0009 35.3477C16.7187 35.3477 10 28.6317 10 20.3495C10 12.0645 16.7187 5.34766 25.0009 5.34766Z" fill="#0083CA"/>
<path d="M17.9063 20.2274C17.9063 19.0616 16.9387 18.8566 16.0026 18.8566V21.599C16.9426 21.599 17.9063 21.399 17.9063 20.2274ZM26.846 21.214L23.1436 24.1294L19.7598 21.4653C19.2716 22.6383 18.0917 23.453 16.7329 23.453H13.8369V17.0017H16.7329C18.2512 17.0017 19.3453 17.9672 19.7589 18.9958L23.1436 16.3345L24.3973 17.3212L21.2952 19.7594L21.8914 20.226L24.9925 17.7892L26.248 18.7731L23.1464 21.214L23.7416 21.6816L26.846 19.2402V17.0017H29.0965V21.57H31.3415V23.4608H26.846V21.214ZM34.1923 21.5709H36.4363V23.4608H31.9395V17.0017H34.1923V21.5709Z" fill="#0083CA"/>
<path d="M38.0312 42.7393H38.9688C38.812 44.1812 37.7363 45.0977 36.2734 45.0977C35.0273 45.0977 34.095 44.368 33.6953 43.1592C33.4802 42.4868 33.5 41.7901 33.5 41.0938C33.5 39.3945 34.4853 37.793 36.3564 37.793C37.7871 37.793 38.818 38.7237 38.9688 40.1709H38.0312C37.8988 39.2057 37.346 38.5645 36.3564 38.5645C34.9585 38.5645 34.4375 39.888 34.4375 41.084C34.4375 41.653 34.4142 42.2249 34.5449 42.7832C34.7555 43.6437 35.3517 44.3311 36.2734 44.3311C37.4768 44.3311 37.8756 43.7317 38.0312 42.7393Z" fill="#1C1D1F"/>
<path fill-rule="evenodd" clip-rule="evenodd" d="M30.126 37.8906H29.3008L26.5908 45H27.5527L28.2285 43.1396H31.2018L31.8789 45H32.8457L30.126 37.8906ZM30.921 42.3682H28.5087L29.7136 39.051L30.921 42.3682Z" fill="#1C1D1F"/>
<path fill-rule="evenodd" clip-rule="evenodd" d="M23.4658 37.8906H21.1123V45H22.0547V42.1191H23.7224L25.2676 45H26.2734L24.6035 41.9224C25.4621 41.5947 25.9561 40.8925 25.9561 40.0244C25.9561 38.6384 25.0737 37.8906 23.4658 37.8906ZM22.0547 41.3525H23.4951C24.5148 41.3525 25.0186 40.7554 25.0186 40.0244C25.0186 38.4075 23.1834 38.6621 22.0547 38.6621V41.3525Z" fill="#1C1D1F"/>
<path fill-rule="evenodd" clip-rule="evenodd" d="M16.4736 45H14.5498V37.8906H16.5615C18.4159 37.8906 19.6963 39.1655 19.6963 41.2354C19.6963 41.8523 19.6849 42.4632 19.4717 43.0518C19.0256 44.2736 17.9707 45 16.4736 45ZM15.4922 44.2334V38.6621C17.3134 38.6621 18.7637 39.2487 18.7637 41.2256C18.7637 41.8371 18.7591 42.4469 18.5049 43.0176C17.9487 44.2796 16.6608 44.2334 15.4922 44.2334Z" fill="#1C1D1F"/>
<path d="M12.8359 45V37.8906H11.8936V45H12.8359Z" fill="#1C1D1F"/>
</svg>
