<svg width="50" height="50" viewBox="0 0 50 50" fill="none" xmlns="http://www.w3.org/2000/svg">
<path d="M25.0009 6.96878C17.6181 6.96878 11.622 12.9559 11.622 20.3495C11.622 27.7344 17.6149 33.7256 25.0009 33.7256C32.3909 33.7256 38.3747 27.7322 38.3747 20.3495C38.3747 12.9581 32.3877 6.96878 25.0009 6.96878ZM25.0009 5.34766C33.2841 5.34766 40 12.0645 40 20.3495C40 28.6317 33.2841 35.3477 25.0009 35.3477C16.7187 35.3477 10 28.6317 10 20.3495C10 12.0645 16.7187 5.34766 25.0009 5.34766Z" fill="#0083CA"/>
<path d="M17.9063 20.2274C17.9063 19.0616 16.9387 18.8566 16.0026 18.8566V21.599C16.9426 21.599 17.9063 21.399 17.9063 20.2274ZM26.846 21.214L23.1436 24.1294L19.7598 21.4653C19.2716 22.6383 18.0917 23.453 16.7329 23.453H13.8369V17.0017H16.7329C18.2512 17.0017 19.3453 17.9672 19.7589 18.9958L23.1436 16.3345L24.3973 17.3212L21.2952 19.7594L21.8914 20.226L24.9925 17.7892L26.248 18.7731L23.1464 21.214L23.7416 21.6816L26.846 19.2402V17.0017H29.0965V21.57H31.3415V23.4608H26.846V21.214ZM34.1923 21.5709H36.4363V23.4608H31.9395V17.0017H34.1923V21.5709Z" fill="#0083CA"/>
<path fill-rule="evenodd" clip-rule="evenodd" d="M12.9268 41.4875V44.0312H12.0186V36.7168H12.8486L12.8933 37.297C13.2522 36.8538 13.7589 36.6191 14.4209 36.6191C15.964 36.6191 16.4863 38.107 16.4863 39.417C16.4863 40.938 15.758 42.0977 14.4355 42.0977C13.786 42.0977 13.2831 41.8851 12.9268 41.4875ZM12.9268 40.6308C13.1584 41.0535 13.5423 41.3555 14.167 41.3555C15.1854 41.3555 15.5781 40.3031 15.5781 39.417C15.5781 38.504 15.2654 37.3809 14.1572 37.3809C13.5545 37.3809 13.1676 37.6813 12.9268 38.1086V40.6308Z" fill="black"/>
<path d="M35.8674 38.244V42H34.9641V36.7168H35.843L35.8608 37.3232C36.139 36.8724 36.5859 36.6191 37.1174 36.6191C37.2472 36.6191 37.4525 36.6548 37.5178 36.6875L37.5129 37.5273C37.3664 37.4955 37.2466 37.4883 37.0734 37.4883C36.4637 37.4883 36.0677 37.7773 35.8674 38.244Z" fill="black"/>
<path d="M29.0141 49H29.9223V41.5H29.0141V49Z" fill="black"/>
<path fill-rule="evenodd" clip-rule="evenodd" d="M33.2648 49.0977C34.3176 49.0977 34.9116 48.5928 35.2521 48.0771L34.7053 47.6426C34.3732 48.0788 33.9517 48.3604 33.3137 48.3604C32.3588 48.3604 31.7716 47.5829 31.7471 46.6123H35.3205C35.3205 45.1566 34.9037 43.6191 33.1477 43.6191C31.6012 43.6191 30.8381 45.1559 30.8381 46.5439C30.8381 47.9355 31.8059 49.0977 33.2648 49.0977ZM31.7736 45.875C31.8967 44.896 32.437 44.3613 33.1477 44.3613C33.9826 44.3613 34.4172 45.0893 34.4172 45.875H31.7736Z" fill="black"/>
<path fill-rule="evenodd" clip-rule="evenodd" d="M26.937 48.4416C26.9581 48.6304 26.9865 48.8249 27.0631 49H28.0055C28.0055 48.8043 27.8961 48.6059 27.8639 48.4092C27.7182 47.4218 27.8199 46.3809 27.8199 45.3867C27.8199 44.2062 27.0153 43.6191 25.857 43.6191C24.9726 43.6191 23.7574 44.146 23.7574 45.1816H24.6607C24.6607 44.6112 25.3195 44.3467 25.8033 44.3467C26.6833 44.3467 26.9166 45.0024 26.9166 45.7969H26.023C24.5873 45.7969 23.6451 46.3831 23.6451 47.5303C23.6451 48.5136 24.5279 49.0977 25.4322 49.0977C26.0956 49.0977 26.6033 48.7912 26.937 48.4416ZM26.9166 47.5146V46.4316C26.1265 46.4316 24.5533 46.2768 24.5533 47.4082C24.5533 47.9076 24.9035 48.3066 25.5641 48.3066C26.1137 48.3066 26.6639 48.0162 26.9166 47.5146Z" fill="black"/>
<path d="M20.9812 48.3555C19.8704 48.3555 19.5359 47.3903 19.5359 46.4609C19.5359 45.4914 19.8426 44.3613 20.9812 44.3613C21.6458 44.3613 22.1766 44.8667 22.2264 45.5332H23.0857C23.0367 44.4355 22.2165 43.6191 20.9812 43.6191C19.3817 43.6191 18.6326 45.0362 18.6326 46.4609C18.6326 47.8811 19.4059 49.0977 20.9812 49.0977C21.9677 49.0977 23.0312 48.3771 23.0857 47.3301H22.2264C22.178 47.9205 21.6287 48.3555 20.9812 48.3555Z" fill="black"/>
<path d="M17.0771 47.5986C17.0771 47.2059 16.907 46.8908 15.8613 46.6855C14.7075 46.442 13.957 46.0429 13.957 45.1621C13.957 44.1529 15.0149 43.6191 15.915 43.6191C16.8878 43.6191 17.9268 44.1736 17.9268 45.2695H17.0234C17.0234 44.8304 16.6337 44.3613 15.915 44.3613C15.1786 44.3613 14.8652 44.7405 14.8652 45.1377C14.8652 45.5193 15.0777 45.7287 16.0811 45.9531C17.3799 46.2461 17.9805 46.6807 17.9805 47.5303C17.9805 48.6214 16.8814 49.0977 15.9395 49.0977C14.9281 49.0977 13.7764 48.524 13.7764 47.3691H14.6846C14.7203 48.0477 15.329 48.3555 15.9395 48.3555C16.6901 48.3555 17.0771 48.0356 17.0771 47.5986Z" fill="black"/>
<path fill-rule="evenodd" clip-rule="evenodd" d="M32.1537 42.0977C30.6948 42.0977 29.727 40.9355 29.727 39.5439C29.727 38.1516 30.4365 36.6191 32.0365 36.6191C33.7019 36.6191 34.2094 38.1516 34.2094 39.6123H30.636C30.6605 40.5829 31.2477 41.3604 32.2025 41.3604C32.8406 41.3604 33.2621 41.0788 33.5941 40.6426L34.141 41.0771C33.8005 41.5928 33.2064 42.0977 32.1537 42.0977ZM30.6625 38.875H33.3061C33.3061 38.1246 32.8589 37.3613 32.0365 37.3613C31.3258 37.3613 30.7856 37.896 30.6625 38.875Z" fill="black"/>
<path d="M23.7965 42L22.2633 36.7168H23.1666L24.2052 40.6608L25.4371 36.7168H26.1646L27.4162 40.743L28.4352 36.7168H29.3336L27.8004 42H27.068L25.7846 38L24.5338 42H23.7965Z" fill="black"/>
<path fill-rule="evenodd" clip-rule="evenodd" d="M17.0994 39.3047C17.0994 37.9127 17.9944 36.6191 19.4969 36.6191C21.0245 36.6191 21.909 37.9697 21.909 39.417C21.909 40.8338 20.9734 42.0977 19.5066 42.0977C17.9277 42.0977 17.0994 40.7518 17.0994 39.3047ZM18.0027 39.3047C18.0027 40.2552 18.4179 41.3555 19.5066 41.3555C20.5309 41.3555 21.0008 40.3325 21.0008 39.417C21.0008 38.4719 20.6197 37.3613 19.4969 37.3613C18.5301 37.3613 18.0027 38.2382 18.0027 39.3047Z" fill="black"/>
</svg>
