<svg width="50" height="50" viewBox="0 0 50 50" fill="none" xmlns="http://www.w3.org/2000/svg">
<rect width="50" height="50" fill="#0083CA"/>
<path d="M25.0008 8.55667C18.6023 8.55667 13.4058 13.9451 13.4058 20.5993C13.4058 27.2457 18.5996 32.6378 25.0008 32.6378C31.4054 32.6378 36.5914 27.2438 36.5914 20.5993C36.5914 13.947 31.4027 8.55667 25.0008 8.55667ZM25.0008 7.09766C32.1795 7.09766 38 13.1428 38 20.5993C38 28.0533 32.1795 34.0977 25.0008 34.0977C17.8229 34.0977 12 28.0533 12 20.5993C12 13.1428 17.8229 7.09766 25.0008 7.09766Z" fill="white"/>
<path d="M18.8521 20.4894C18.8521 19.4402 18.0135 19.2557 17.2022 19.2557V21.7239C18.0169 21.7239 18.8521 21.5439 18.8521 20.4894ZM26.5999 21.3774L23.3911 24.0012L20.4585 21.6036C20.0353 22.6592 19.0128 23.3925 17.8352 23.3925H15.3253V17.5863H17.8352C19.151 17.5863 20.0993 18.4552 20.4577 19.381L23.3911 16.9859L24.4776 17.8739L21.7892 20.0682L22.3058 20.4881L24.9935 18.2951L26.0816 19.1806L23.3935 21.3774L23.9094 21.7982L26.5999 19.6009V17.5863H28.5503V21.6978H30.4959V23.3995H26.5999V21.3774ZM32.9666 21.6986H34.9114V23.3995H31.0142V17.5863H32.9666V21.6986Z" fill="white"/>
<path d="M36.2036 40.0628H37C36.8669 41.2472 35.9531 42 34.7104 42C33.6518 42 32.8598 41.4007 32.5203 40.4078C32.3375 39.8555 32.3544 39.2832 32.3544 38.7112C32.3544 37.3155 33.1914 36 34.7809 36C35.9962 36 36.8719 36.7645 37 37.9532H36.2036C36.0911 37.1604 35.6215 36.6337 34.7809 36.6337C33.5933 36.6337 33.1508 37.7208 33.1508 38.7032C33.1508 39.1706 33.131 39.6403 33.242 40.0989C33.4209 40.8057 33.9274 41.3703 34.7104 41.3703C35.7326 41.3703 36.0714 40.878 36.2036 40.0628Z" fill="white"/>
<path fill-rule="evenodd" clip-rule="evenodd" d="M29.4882 36.0802H28.7872L26.4851 41.9198H27.3023L27.8763 40.3917H30.4021L30.9773 41.9198H31.7986L29.4882 36.0802ZM30.1635 39.758H28.1143L29.1379 37.0333L30.1635 39.758Z" fill="white"/>
<path fill-rule="evenodd" clip-rule="evenodd" d="M23.8305 36.0802H21.8312V41.9198H22.6317V39.5535H24.0484L25.361 41.9198H26.2155L24.7969 39.3919C25.5263 39.1227 25.9459 38.546 25.9459 37.8329C25.9459 36.6944 25.1964 36.0802 23.8305 36.0802ZM22.6317 38.9238H23.8554C24.7216 38.9238 25.1495 38.4333 25.1495 37.8329C25.1495 36.5047 23.5905 36.7139 22.6317 36.7139V38.9238Z" fill="white"/>
<path fill-rule="evenodd" clip-rule="evenodd" d="M17.8907 41.9198H16.2564V36.0802H17.9654C19.5407 36.0802 20.6283 37.1273 20.6283 38.8275C20.6283 39.3343 20.6186 39.8361 20.4375 40.3195C20.0586 41.3231 19.1624 41.9198 17.8907 41.9198ZM17.057 41.2901V36.7139C18.6041 36.7139 19.8361 37.1957 19.8361 38.8195C19.8361 39.3218 19.8322 39.8227 19.6162 40.2914C19.1438 41.328 18.0497 41.2901 17.057 41.2901Z" fill="white"/>
<path d="M14.8005 41.9198V36.0802H14V41.9198H14.8005Z" fill="white"/>
</svg>
