<svg width="50" height="50" viewBox="0 0 50 50" fill="none" xmlns="http://www.w3.org/2000/svg">
<rect width="50" height="50" fill="#0083CA"/>
<path d="M24.5008 9.69859C18.3484 9.69859 13.3517 14.6879 13.3517 20.8492C13.3517 27.0032 18.3458 31.996 24.5008 31.996C30.6591 31.996 35.6456 27.0015 35.6456 20.8492C35.6456 14.6897 30.6564 9.69859 24.5008 9.69859ZM24.5008 8.34766C31.4034 8.34766 37 13.9451 37 20.8492C37 27.751 31.4034 33.3477 24.5008 33.3477C17.5989 33.3477 12 27.751 12 20.8492C12 13.9451 17.5989 8.34766 24.5008 8.34766Z" fill="white"/>
<path d="M18.5886 20.7474C18.5886 19.7759 17.7822 19.6051 17.0021 19.6051V21.8905C17.7855 21.8905 18.5886 21.7238 18.5886 20.7474ZM26.0383 21.5696L22.953 23.9991L20.1332 21.779C19.7263 22.7565 18.7431 23.4354 17.6107 23.4354H15.1974V18.0594H17.6107C18.876 18.0594 19.7878 18.8639 20.1324 19.7211L22.953 17.5034L23.9977 18.3256L21.4127 20.3574L21.9095 20.7463L24.4938 18.7156L25.54 19.5356L22.9553 21.5696L23.4514 21.9593L26.0383 19.9248V18.0594H27.9138V21.8663H29.7845V23.442H26.0383V21.5696ZM32.1602 21.867H34.0302V23.442H30.2829V18.0594H32.1602V21.867Z" fill="white"/>
<path d="M14.2188 42.3477L12 36.3477H12.862L14.5655 41.2939L16.2851 36.3477H17.1471L14.9241 42.3477H14.2188Z" fill="white"/>
<path fill-rule="evenodd" clip-rule="evenodd" d="M19.9167 39.9946H18.498V42.3477H17.702V36.3477H19.9167C21.2744 36.3477 22.0242 37.1089 22.0242 38.1773C22.0242 39.3299 21.2807 39.9946 19.9167 39.9946ZM18.498 36.9988V39.3477H19.9167C20.8508 39.3477 21.2283 38.8586 21.2283 38.1856C21.2283 37.4406 20.6392 36.9988 19.9167 36.9988H18.498Z" fill="white"/>
<path d="M26.4189 42.3477V41.7007H23.5731V36.3477H22.7772V42.3477H26.4189Z" fill="white"/>
<path d="M30.8919 41.7007V42.3477H27.0769V36.3477H30.8506V36.9988H27.8729V38.9273H30.4712V39.5743H27.8729V41.7007H30.8919Z" fill="white"/>
<path d="M32.1397 36.3477L33.5832 38.6471L35.0267 36.3477H35.9546L34.0575 39.3188L36 42.3477H35.0638L33.5832 40.0029L32.1026 42.3477H31.1664L33.1089 39.3188L31.2117 36.3477H32.1397Z" fill="white"/>
</svg>
