<svg width="50" height="50" viewBox="0 0 50 50" fill="none" xmlns="http://www.w3.org/2000/svg">
<rect width="50" height="50" fill="#0083CA"/>
<path d="M25.0007 8.39456C19.0945 8.39456 14.2976 13.1843 14.2976 19.0991C14.2976 25.007 19.0919 29.8 25.0007 29.8C30.9127 29.8 35.6998 25.0053 35.6998 19.0991C35.6998 13.186 30.9102 8.39456 25.0007 8.39456ZM25.0007 7.09766C31.6272 7.09766 37 12.4712 37 19.0991C37 25.7249 31.6272 31.0977 25.0007 31.0977C18.375 31.0977 13 25.7249 13 19.0991C13 12.4712 18.375 7.09766 25.0007 7.09766Z" fill="white"/>
<path d="M19.3251 19.0014C19.3251 18.0688 18.5509 17.9048 17.8021 17.9048V20.0988C18.5541 20.0988 19.3251 19.9387 19.3251 19.0014ZM26.4768 19.7908L23.5149 22.123L20.8079 19.9918C20.4172 20.9302 19.4733 21.5819 18.3863 21.5819H16.0695V16.4209H18.3863C19.601 16.4209 20.4763 17.1933 20.8071 18.0162L23.5149 15.8872L24.5178 16.6765L22.0362 18.627L22.5131 19.0003L24.994 17.0509L25.9984 17.838L23.5171 19.7908L23.9933 20.1648L26.4768 18.2117V16.4209H28.2772V20.0755H30.0732V21.5882H26.4768V19.7908ZM32.3538 20.0763H34.149V21.5882H30.5516V16.4209H32.3538V20.0763Z" fill="white"/>
<path fill-rule="evenodd" clip-rule="evenodd" d="M14.748 37.0045V39.0412H14V33.1849H14.6836L14.7204 33.6494C15.182 33.0952 16.0568 32.9433 16.7063 33.263C17.3403 33.5673 17.6795 34.2908 17.6795 35.2647C17.6795 36.2881 17.234 37.4931 15.9905 37.4931C15.4556 37.4931 15.0414 37.3229 14.748 37.0045ZM14.748 36.3186C15.0358 36.8293 15.7509 37.0775 16.2881 36.7776C16.7349 36.5249 16.9315 35.9728 16.9315 35.3468C16.9315 34.8022 16.8233 34.1349 16.2881 33.8416C15.7475 33.5358 15.043 33.7903 14.748 34.2992V36.3186Z" fill="white"/>
<path d="M33.6408 34.4076V37.4149H32.8969V33.1849H33.6207L33.6408 33.6618C33.8627 33.3093 34.2028 33.1067 34.6703 33.1067C34.7771 33.1067 34.9462 33.1353 35 33.1614L34.996 33.8338C34.8754 33.8083 34.7767 33.8026 34.6341 33.8026C34.1319 33.8026 33.8058 34.034 33.6408 34.4076Z" fill="white"/>
<path d="M17.9391 43.0195V39.9203C18.1046 39.5615 18.4107 39.3211 18.9404 39.3211C19.5022 39.3211 19.8693 39.5734 19.8693 40.2359V43.0195H20.6132V40.2018C20.6693 39.7115 21.027 39.3211 21.6185 39.3211C22.2281 39.3211 22.5474 39.6603 22.5474 40.232V43.0195H23.2954V40.2398C23.2954 39.1799 22.7779 38.7113 21.8357 38.7113C21.2147 38.7113 20.7424 38.9806 20.452 39.3879C19.9833 38.4293 18.5262 38.5469 17.9209 39.2499L17.8989 38.7894H17.1911V43.0195H17.9391Z" fill="white"/>
<path fill-rule="evenodd" clip-rule="evenodd" d="M26.7566 42.5724C26.4818 42.8523 26.0637 43.0977 25.5174 43.0977C24.7726 43.0977 24.0456 42.63 24.0456 41.8427C24.0456 41.1554 24.4782 40.723 25.1957 40.5448C25.6979 40.42 26.2262 40.4549 26.7398 40.4549C26.7398 39.8391 26.5972 39.2938 25.823 39.2938C25.2682 39.2938 24.882 39.6056 24.882 39.9623H24.1381C24.1381 39.1331 25.1389 38.7113 25.8672 38.7113C26.8211 38.7113 27.4838 39.1813 27.4838 40.1265V42.0968C27.4838 42.3787 27.5348 42.7278 27.6366 42.9569V43.0195H26.8605C26.7974 42.8792 26.774 42.7236 26.7566 42.5724ZM26.7398 41.8302C26.5318 42.2318 26.0786 42.4643 25.626 42.4643C25.082 42.4643 24.7936 42.1448 24.7936 41.745C24.7936 41.3488 25.0622 41.1071 25.5576 41.0139C25.9435 40.9353 26.3481 40.9631 26.7398 40.9631V41.8302Z" fill="white"/>
<path d="M29.8626 40.3298L28.9096 38.7894H28.053L29.4725 40.8771L28.0088 43.0195H28.8734L29.8787 41.4322L30.884 43.0195H31.7445L30.2768 40.8771L31.7003 38.7894H30.8277L29.8626 40.3298Z" fill="white"/>
<path fill-rule="evenodd" clip-rule="evenodd" d="M30.5824 37.4931C29.3798 37.4931 28.5838 36.6428 28.5838 35.4484C28.5838 34.3371 29.2123 33.1067 30.4859 33.1067C31.9321 33.1067 32.2754 34.3377 32.2754 35.5032H29.3325C29.3511 36.2203 29.8189 36.9027 30.6226 36.9027C31.1481 36.9027 31.4952 36.6773 31.7687 36.3281L32.2191 36.676C31.9386 37.0889 31.4494 37.4931 30.5824 37.4931ZM31.5314 34.9128H29.3543C29.4557 34.129 29.9006 33.7009 30.4859 33.7009C31.1736 33.7009 31.5314 34.2838 31.5314 34.9128Z" fill="white"/>
<path d="M23.6998 37.4149L22.4371 33.1849H23.181L24.0363 36.3426L25.0509 33.1849H25.6501L26.6808 36.4084L27.52 33.1849H28.2599L26.9972 37.4149H26.394L25.3371 34.2123L24.307 37.4149H23.6998Z" fill="white"/>
<path fill-rule="evenodd" clip-rule="evenodd" d="M18.1844 35.3468C18.1844 34.1938 18.903 33.1067 20.1588 33.1067C21.4008 33.1067 22.1453 34.1354 22.1453 35.2569C22.1453 36.4115 21.4205 37.4931 20.1668 37.4931C18.9579 37.4931 18.1844 36.4838 18.1844 35.3468ZM18.9283 35.3468C18.9283 36.1851 19.3375 36.8988 20.1668 36.8988C21.0885 36.8988 21.3974 36.0095 21.3974 35.2569C21.3974 34.5238 21.0018 33.7009 20.1588 33.7009C19.2549 33.7009 18.9283 34.6095 18.9283 35.3468Z" fill="white"/>
</svg>
