<svg width="50" height="50" viewBox="0 0 50 50" fill="none" xmlns="http://www.w3.org/2000/svg">
<path d="M25.0009 6.96878C17.6181 6.96878 11.622 12.9559 11.622 20.3495C11.622 27.7344 17.6149 33.7256 25.0009 33.7256C32.3909 33.7256 38.3747 27.7322 38.3747 20.3495C38.3747 12.9581 32.3877 6.96878 25.0009 6.96878ZM25.0009 5.34766C33.2841 5.34766 40 12.0645 40 20.3495C40 28.6317 33.2841 35.3477 25.0009 35.3477C16.7187 35.3477 10 28.6317 10 20.3495C10 12.0645 16.7187 5.34766 25.0009 5.34766Z" fill="#0083CA"/>
<path d="M17.9063 20.2274C17.9063 19.0616 16.9387 18.8566 16.0026 18.8566V21.599C16.9426 21.599 17.9063 21.399 17.9063 20.2274ZM26.846 21.214L23.1436 24.1294L19.7598 21.4653C19.2716 22.6383 18.0917 23.453 16.7329 23.453H13.8369V17.0017H16.7329C18.2512 17.0017 19.3453 17.9672 19.7589 18.9958L23.1436 16.3345L24.3973 17.3212L21.2952 19.7594L21.8914 20.226L24.9925 17.7892L26.248 18.7731L23.1464 21.214L23.7416 21.6816L26.846 19.2402V17.0017H29.0965V21.57H31.3415V23.4608H26.846V21.214ZM34.1923 21.5709H36.4363V23.4608H31.9395V17.0017H34.1923V21.5709Z" fill="#0083CA"/>
<path d="M12.8584 46L10.2314 38.8906H11.252L13.2688 44.7514L15.3047 38.8906H16.3252L13.6934 46H12.8584Z" fill="black"/>
<path fill-rule="evenodd" clip-rule="evenodd" d="M19.6043 43.2119H17.9246V46H16.9822V38.8906H19.6043C21.2117 38.8906 22.0994 39.7926 22.0994 41.0586C22.0994 42.4243 21.2192 43.2119 19.6043 43.2119ZM17.9246 39.6621V42.4453H19.6043C20.7101 42.4453 21.157 41.8658 21.157 41.0684C21.157 40.1856 20.4596 39.6621 19.6043 39.6621H17.9246Z" fill="black"/>
<path d="M27.3023 46V45.2334H23.9332V38.8906H22.9908V46H27.3023Z" fill="black"/>
<path d="M32.598 45.2334V46H28.0814V38.8906H32.5492V39.6621H29.0238V41.9473H32.1V42.7139H29.0238V45.2334H32.598Z" fill="black"/>
<path d="M34.0754 38.8906L35.7844 41.6152L37.4934 38.8906H38.592L36.3459 42.4111L38.6457 46H37.5373L35.7844 43.2217L34.0314 46H32.923L35.2229 42.4111L32.9768 38.8906H34.0754Z" fill="black"/>
</svg>
