<svg width="50" height="50" viewBox="0 0 50 50" fill="none" xmlns="http://www.w3.org/2000/svg">
<path d="M25.0009 6.96878C17.6181 6.96878 11.622 12.9559 11.622 20.3495C11.622 27.7344 17.6149 33.7256 25.0009 33.7256C32.3909 33.7256 38.3747 27.7322 38.3747 20.3495C38.3747 12.9581 32.3877 6.96878 25.0009 6.96878ZM25.0009 5.34766C33.2841 5.34766 40 12.0645 40 20.3495C40 28.6317 33.2841 35.3477 25.0009 35.3477C16.7187 35.3477 10 28.6317 10 20.3495C10 12.0645 16.7187 5.34766 25.0009 5.34766Z" fill="#0083CA"/>
<path d="M17.9063 20.2274C17.9063 19.0616 16.9387 18.8566 16.0026 18.8566V21.599C16.9426 21.599 17.9063 21.399 17.9063 20.2274ZM26.846 21.214L23.1436 24.1294L19.7598 21.4653C19.2716 22.6383 18.0917 23.453 16.7329 23.453H13.8369V17.0017H16.7329C18.2512 17.0017 19.3453 17.9672 19.7589 18.9958L23.1436 16.3345L24.3973 17.3212L21.2952 19.7594L21.8914 20.226L24.9925 17.7892L26.248 18.7731L23.1464 21.214L23.7416 21.6816L26.846 19.2402V17.0017H29.0965V21.57H31.3415V23.4608H26.846V21.214ZM34.1923 21.5709H36.4363V23.4608H31.9395V17.0017H34.1923V21.5709Z" fill="#0083CA"/>
<path d="M11.0322 42.244V46.0001H10.1289V40.7169H11.0078L11.0256 41.3232C11.3419 40.8073 12.086 40.3892 12.6826 40.6876L12.6777 41.5274C12.0189 41.3842 11.3138 41.5881 11.0322 42.244Z" fill="black"/>
<path fill-rule="evenodd" clip-rule="evenodd" d="M15.3123 46.0977C13.7774 46.0977 12.8855 44.8138 12.8855 43.3389C12.8855 41.997 13.7515 40.6192 15.1951 40.6192C16.8605 40.6192 17.368 42.1517 17.368 43.6124H13.7946C13.8191 44.583 14.4063 45.3604 15.3611 45.3604C15.9992 45.3604 16.4207 45.0789 16.7527 44.6427L17.2996 45.0772C16.9591 45.5929 16.365 46.0977 15.3123 46.0977ZM13.821 42.8751H16.4646C16.4646 42.1247 16.0175 41.3614 15.1951 41.3614C14.4844 41.3614 13.9442 41.8961 13.821 42.8751Z" fill="black"/>
<path d="M20.2369 45.3555C19.126 45.3555 18.7916 44.3904 18.7916 43.461C18.7916 42.5248 19.0863 41.3614 20.2369 41.3614C20.9015 41.3614 21.4323 41.8667 21.482 42.5333H22.3414C22.2924 41.4356 21.4722 40.6192 20.2369 40.6192C18.6606 40.6192 17.8883 41.9895 17.8883 43.461C17.8883 44.8811 18.6616 46.0977 20.2369 46.0977C21.2234 46.0977 22.2869 45.3772 22.3414 44.3302H21.482C21.4336 44.9206 20.8843 45.3555 20.2369 45.3555Z" fill="black"/>
<path fill-rule="evenodd" clip-rule="evenodd" d="M22.8178 43.4171C22.8178 41.9898 23.6303 40.6192 25.2152 40.6192C26.7428 40.6192 27.6273 41.9698 27.6273 43.4171C27.6273 44.8338 26.6918 46.0977 25.225 46.0977C23.7352 46.0977 22.8178 44.9381 22.8178 43.4171ZM23.7211 43.4171C23.7211 44.4641 24.2179 45.3555 25.225 45.3555C26.2343 45.3555 26.7191 44.4534 26.7191 43.4171C26.7191 42.4767 26.296 41.3614 25.2152 41.3614C24.0969 41.3614 23.7211 42.4836 23.7211 43.4171Z" fill="black"/>
<path fill-rule="evenodd" clip-rule="evenodd" d="M35.0498 46.0977C33.5909 46.0977 32.623 44.9356 32.623 43.544C32.623 42.156 33.3862 40.6192 34.9326 40.6192C36.6886 40.6192 37.1055 42.1567 37.1055 43.6124H33.5321C33.5547 44.5081 34.1227 45.3604 35.0986 45.3604C35.7367 45.3604 36.1582 45.0789 36.4902 44.6427L37.0371 45.0772C36.6966 45.5929 36.1025 46.0977 35.0498 46.0977ZM33.5585 42.8751H36.2022C36.2022 42.0894 35.7676 41.3614 34.9326 41.3614C34.2219 41.3614 33.6817 41.8961 33.5585 42.8751Z" fill="black"/>
<path d="M38.7635 46.0001V42.244C39.0436 41.5915 39.757 41.3857 40.409 41.5274L40.4139 40.6876C39.8346 40.398 39.0654 40.8192 38.7635 41.3126L38.7391 40.7169H37.8602V46.0001H38.7635Z" fill="black"/>
<path d="M29.7687 46.0001L27.8547 40.7169H28.7824L30.1243 44.7646L31.4338 40.7169H32.3566L30.4572 46.0001H29.7687Z" fill="black"/>
</svg>
