<svg width="50" height="50" viewBox="0 0 50 50" fill="none" xmlns="http://www.w3.org/2000/svg">
<rect width="50" height="50" fill="#0083CA"/>
<path d="M25.4149 8.86071C18.5243 8.86071 12.928 14.4487 12.928 21.3494C12.928 28.2419 18.5213 33.8337 25.4149 33.8337C32.3122 33.8337 37.8971 28.2399 37.8971 21.3494C37.8971 14.4507 32.3093 8.86071 25.4149 8.86071ZM25.4149 7.34766C33.1458 7.34766 39.4141 13.6167 39.4141 21.3494C39.4141 29.0794 33.1458 35.3477 25.4149 35.3477C17.6849 35.3477 11.4141 29.0794 11.4141 21.3494C11.4141 13.6167 17.6849 7.34766 25.4149 7.34766Z" fill="white"/>
<path d="M18.7933 21.2354C18.7933 20.1473 17.8902 19.956 17.0165 19.956V22.5156C17.8938 22.5156 18.7933 22.3289 18.7933 21.2354ZM27.137 22.1563L23.6814 24.8773L20.5232 22.3908C20.0675 23.4856 18.9663 24.246 17.6981 24.246H14.9952V18.2248H17.6981C19.1152 18.2248 20.1364 19.1259 20.5224 20.086L23.6814 17.6021L24.8515 18.523L21.9562 20.7986L22.5127 21.2341L25.4071 18.9598L26.5789 19.8781L23.684 22.1563L24.2396 22.5926L27.137 20.314V18.2248H29.2375V22.4885H31.3328V24.2533H27.137V22.1563ZM33.9935 22.4894H36.0879V24.2533H31.8909V18.2248H33.9935V22.4894Z" fill="white"/>
<path d="M13.2194 39.8506V43.259H12.4141V38.4647H13.1976L13.2135 39.015C13.4955 38.5468 14.1588 38.1674 14.6908 38.4381L14.6864 39.2002C14.099 39.0703 13.4704 39.2554 13.2194 39.8506Z" fill="white"/>
<path fill-rule="evenodd" clip-rule="evenodd" d="M17.0352 43.3477C15.6668 43.3477 14.8717 42.1825 14.8717 40.8441C14.8717 39.6264 15.6437 38.3761 16.9307 38.3761C18.4155 38.3761 18.8679 39.7667 18.8679 41.0923H15.6822C15.704 41.973 16.2275 42.6786 17.0788 42.6786C17.6476 42.6786 18.0234 42.4231 18.3194 42.0272L18.807 42.4216C18.5034 42.8895 17.9737 43.3477 17.0352 43.3477ZM15.7057 40.4232H18.0626C18.0626 39.7422 17.6639 39.0496 16.9307 39.0496C16.2972 39.0496 15.8155 39.5348 15.7057 40.4232Z" fill="white"/>
<path d="M21.4257 42.6741C20.4353 42.6741 20.1371 41.7983 20.1371 40.9549C20.1371 40.1053 20.3999 39.0496 21.4257 39.0496C22.0181 39.0496 22.4914 39.5082 22.5357 40.113H23.3019C23.2582 39.1169 22.527 38.3761 21.4257 38.3761C20.0203 38.3761 19.3318 39.6196 19.3318 40.9549C19.3318 42.2436 20.0212 43.3477 21.4257 43.3477C22.3051 43.3477 23.2533 42.6938 23.3019 41.7436H22.5357C22.4926 42.2794 22.0029 42.6741 21.4257 42.6741Z" fill="white"/>
<path fill-rule="evenodd" clip-rule="evenodd" d="M23.7266 40.915C23.7266 39.6198 24.4509 38.3761 25.864 38.3761C27.2259 38.3761 28.0145 39.6017 28.0145 40.915C28.0145 42.2007 27.1804 43.3477 25.8727 43.3477C24.5445 43.3477 23.7266 42.2954 23.7266 40.915ZM24.5319 40.915C24.5319 41.8652 24.9749 42.6741 25.8727 42.6741C26.7726 42.6741 27.2048 41.8555 27.2048 40.915C27.2048 40.0617 26.8276 39.0496 25.864 39.0496C24.867 39.0496 24.5319 40.0679 24.5319 40.915Z" fill="white"/>
<path fill-rule="evenodd" clip-rule="evenodd" d="M34.6318 43.3477C33.3312 43.3477 32.4683 42.2931 32.4683 41.0302C32.4683 39.7706 33.1486 38.3761 34.5274 38.3761C36.0929 38.3761 36.4645 39.7713 36.4645 41.0923H33.2788C33.2989 41.9051 33.8053 42.6786 34.6754 42.6786C35.2442 42.6786 35.62 42.4231 35.916 42.0272L36.4036 42.4216C36.1 42.8895 35.5704 43.3477 34.6318 43.3477ZM33.3023 40.4232H35.6592C35.6592 39.7102 35.2718 39.0496 34.5274 39.0496C33.8938 39.0496 33.4121 39.5348 33.3023 40.4232Z" fill="white"/>
<path d="M37.9427 43.259V39.8506C38.1924 39.2584 38.8285 39.0716 39.4097 39.2002L39.4141 38.4381C38.8977 38.1753 38.2119 38.5575 37.9427 39.0053L37.9209 38.4647H37.1373V43.259H37.9427Z" fill="white"/>
<path d="M29.9236 43.259L28.2172 38.4647H29.0443L30.2406 42.1379L31.408 38.4647H32.2308L30.5374 43.259H29.9236Z" fill="white"/>
</svg>
