<svg width="50" height="50" viewBox="0 0 50 50" fill="none" xmlns="http://www.w3.org/2000/svg">
<path d="M25.0009 6.96878C17.6181 6.96878 11.622 12.9559 11.622 20.3495C11.622 27.7344 17.6149 33.7256 25.0009 33.7256C32.3909 33.7256 38.3747 27.7322 38.3747 20.3495C38.3747 12.9581 32.3877 6.96878 25.0009 6.96878ZM25.0009 5.34766C33.2841 5.34766 40 12.0645 40 20.3495C40 28.6317 33.2841 35.3477 25.0009 35.3477C16.7187 35.3477 10 28.6317 10 20.3495C10 12.0645 16.7187 5.34766 25.0009 5.34766Z" fill="#0083CA"/>
<path d="M17.9063 20.2274C17.9063 19.0616 16.9387 18.8566 16.0026 18.8566V21.599C16.9426 21.599 17.9063 21.399 17.9063 20.2274ZM26.846 21.214L23.1436 24.1294L19.7598 21.4653C19.2716 22.6383 18.0917 23.453 16.7329 23.453H13.8369V17.0017H16.7329C18.2512 17.0017 19.3453 17.9672 19.7589 18.9958L23.1436 16.3345L24.3973 17.3212L21.2952 19.7594L21.8914 20.226L24.9925 17.7892L26.248 18.7731L23.1464 21.214L23.7416 21.6816L26.846 19.2402V17.0017H29.0965V21.57H31.3415V23.4608H26.846V21.214ZM34.1923 21.5709H36.4363V23.4608H31.9395V17.0017H34.1923V21.5709Z" fill="#0083CA"/>
<path fill-rule="evenodd" clip-rule="evenodd" d="M12.9268 41.4875V44.0312H12.0186V36.7168H12.8486L12.8933 37.297C13.2522 36.8538 13.7589 36.6191 14.4209 36.6191C15.7418 36.6191 16.4863 37.6897 16.4863 39.3145C16.4863 40.5927 15.9455 42.0977 14.4355 42.0977C13.786 42.0977 13.2831 41.8851 12.9268 41.4875ZM12.9268 40.6308C13.1584 41.0535 13.5423 41.3555 14.167 41.3555C15.1671 41.3555 15.5781 40.4514 15.5781 39.417C15.5781 38.5022 15.2319 37.3809 14.1572 37.3809C13.5545 37.3809 13.1676 37.6813 12.9268 38.1086V40.6308Z" fill="black"/>
<path d="M35.8674 38.244V42H34.9641V36.7168H35.843L35.8608 37.3232C36.1175 36.9072 36.5364 36.6191 37.1174 36.6191C37.2472 36.6191 37.4525 36.6548 37.5178 36.6875L37.5129 37.5273C37.3664 37.4955 37.2466 37.4883 37.0734 37.4883C36.4637 37.4883 36.0677 37.7773 35.8674 38.244Z" fill="black"/>
<path d="M21.5477 44.4102V43.7168H20.5613V42.4326H19.658V43.7168H18.6912V44.4102H19.658V47.6865C19.658 48.8256 20.5183 49.3353 21.5721 49L21.5672 48.2627C21.0446 48.3833 20.5613 48.2928 20.5613 47.6914V44.4102H21.5477Z" fill="black"/>
<path fill-rule="evenodd" clip-rule="evenodd" d="M21.9703 46.3047C21.9703 44.7634 22.9099 43.6191 24.3678 43.6191C25.8759 43.6191 26.7799 44.904 26.7799 46.3047C26.7799 47.7507 25.9462 49.0977 24.3775 49.0977C22.8521 49.0977 21.9703 47.7515 21.9703 46.3047ZM22.8736 46.3047C22.8736 47.2496 23.2562 48.3555 24.3775 48.3555C25.4018 48.3555 25.8717 47.3325 25.8717 46.417C25.8717 45.4719 25.4906 44.3613 24.3678 44.3613C23.401 44.3613 22.8736 45.2382 22.8736 46.3047Z" fill="black"/>
<path d="M28.516 45.244V49H27.6127V43.7168H28.4916L28.516 44.3125C28.7854 43.8722 29.1984 43.6191 29.766 43.6191C29.8958 43.6191 30.1011 43.6548 30.1664 43.6875L30.1615 44.5273C30.0151 44.4955 29.8952 44.4883 29.7221 44.4883C29.1123 44.4883 28.7163 44.7773 28.516 45.244Z" fill="black"/>
<path fill-rule="evenodd" clip-rule="evenodd" d="M32.7961 49.0977C33.8488 49.0977 34.4429 48.5928 34.7834 48.0771L34.2365 47.6426C33.9045 48.0788 33.4829 48.3604 32.8449 48.3604C31.869 48.3604 31.301 47.508 31.2784 46.6123H34.8518C34.8518 45.1566 34.4349 43.6191 32.6789 43.6191C31.1324 43.6191 30.3693 45.1559 30.3693 46.5439C30.3693 48.0356 31.3359 49.0977 32.7961 49.0977ZM31.3048 45.875C31.428 44.896 31.9682 44.3613 32.6789 44.3613C33.5139 44.3613 33.9484 45.0893 33.9484 45.875H31.3048Z" fill="black"/>
<path d="M17.5459 47.5986C17.5459 46.6843 16.1922 46.7002 15.5342 46.4658C14.8371 46.2141 14.4258 45.8192 14.4258 45.1621C14.4258 44.1529 15.4836 43.6191 16.3838 43.6191C17.3565 43.6191 18.3955 44.1736 18.3955 45.2695H17.4922C17.4922 44.8304 17.1024 44.3613 16.3838 44.3613C15.6473 44.3613 15.334 44.7405 15.334 45.1377C15.334 45.5193 15.5465 45.7287 16.5498 45.9531C17.8486 46.2461 18.4492 46.6807 18.4492 47.5303C18.4492 48.6214 17.3502 49.0977 16.4082 49.0977C15.3968 49.0977 14.2451 48.524 14.2451 47.3691H15.1533C15.189 48.0477 15.7978 48.3555 16.4082 48.3555C17.1588 48.3555 17.5459 48.0356 17.5459 47.5986Z" fill="black"/>
<path fill-rule="evenodd" clip-rule="evenodd" d="M32.1537 42.0977C30.6948 42.0977 29.727 40.9355 29.727 39.5439C29.727 38.1559 30.4901 36.6191 32.0365 36.6191C33.7926 36.6191 34.2094 38.1566 34.2094 39.6123H30.636C30.6605 40.5829 31.2477 41.3604 32.2025 41.3604C32.8406 41.3604 33.2621 41.0788 33.5941 40.6426L34.141 41.0771C33.8005 41.5928 33.2064 42.0977 32.1537 42.0977ZM30.6625 38.875H33.3061C33.3061 38.0893 32.8715 37.3613 32.0365 37.3613C31.3258 37.3613 30.7856 37.896 30.6625 38.875Z" fill="black"/>
<path d="M23.7965 42L22.2633 36.7168H23.1666L24.2052 40.6608L25.4371 36.7168H26.1646L27.4162 40.743L28.4352 36.7168H29.3336L27.8004 42H27.068L25.7846 38L24.5338 42H23.7965Z" fill="black"/>
<path fill-rule="evenodd" clip-rule="evenodd" d="M17.0994 39.417C17.0994 38.0083 17.9546 36.6191 19.4969 36.6191C20.9827 36.6191 21.909 37.7721 21.909 39.3047C21.909 40.7092 21.0417 42.0977 19.5066 42.0977C18.0169 42.0977 17.0994 40.9381 17.0994 39.417ZM18.0027 39.417C18.0027 40.3413 18.4777 41.3555 19.5066 41.3555C20.516 41.3555 21.0008 40.4534 21.0008 39.417C21.0008 38.4785 20.6157 37.3613 19.4969 37.3613C18.3993 37.3613 18.0027 38.4962 18.0027 39.417Z" fill="black"/>
</svg>
