<svg width="50" height="50" viewBox="0 0 50 50" fill="none" xmlns="http://www.w3.org/2000/svg">
<path d="M16.3107 36.5894C16.2308 35.3954 15.7115 32.143 12.7952 25.8852C9.51934 18.8039 9.0799 13.987 9.03995 12.1755C13.0748 12.1755 16.3107 15.5515 16.3107 19.6685V36.5894Z" fill="url(#paint0_linear_9176_11857)"/>
<path d="M9.03995 12.1755C9.11985 13.9047 9.55929 18.7627 12.7952 25.8028C15.7115 32.1018 16.2308 35.3131 16.3107 36.507H22.383C28.5352 36.507 33.6487 31.4843 33.7686 25.1441C33.8884 18.8039 28.9747 13.5341 22.7825 13.4518H22.3031C18.2682 13.493 15.0324 10.1582 15.0324 6H22.3431C32.4902 6 40.9595 14.3987 40.9994 24.8559C41.0793 35.3543 32.8897 43.9177 22.6627 44H9.67914C9.31959 44 9 43.6706 9 43.3001L9.03995 12.1755Z" fill="#353944"/>
<defs>
<linearGradient id="paint0_linear_9176_11857" x1="24.9822" y1="8.60822" x2="24.9822" y2="43.2083" gradientUnits="userSpaceOnUse">
<stop stop-color="#BFDA33"/>
<stop offset="1" stop-color="#3F4811"/>
</linearGradient>
</defs>
</svg>
