<svg width="50" height="50" viewBox="0 0 50 50" fill="none" xmlns="http://www.w3.org/2000/svg">
<path d="M38 30.6V31.0889C37.891 35 36.1257 38.4889 33.3797 40.8667C33.3797 40.8667 33.1836 41.0667 32.7477 41.3778L32.7259 30.7778C32.777 25.8272 29.871 22.3333 24.8148 22.3333C20.0732 22.3333 16.5113 26.1928 16.5113 30.8667C16.5113 35.4486 19.9871 39.3333 24.6622 39.3333C26.0419 39.3333 27.4693 39.0564 28.6069 38.2444V43.4889C27.5 44 26.2275 44 25.0109 44C17.8407 44 12 38.0444 12 30.7556C12 23.4444 17.8407 17.4889 25.0109 17.4889C27.351 17.4896 29.6475 18.1345 31.658 19.3556V6H38V30.6ZM20.0637 30.8C20.0637 33.4222 22.1341 35.5333 24.7058 35.5333C27.2775 35.5333 29.3479 33.4222 29.3479 30.8C29.3479 28.1778 27.2775 26.0667 24.7058 26.0667C22.1341 26.0667 20.0637 28.2 20.0637 30.8Z" fill="#1177BD"/>
</svg>
