<svg width="50" height="50" viewBox="0 0 50 50" fill="none" xmlns="http://www.w3.org/2000/svg">
<path d="M13.5548 40.6516V41.2951H10.6008V40.6516H13.5548ZM10.7502 35.3279V41.2951H10.0107V35.3279H10.7502ZM13.164 37.8934V38.5369H10.6008V37.8934H13.164ZM13.5165 35.3279V35.9754H10.6008V35.3279H13.5165Z" fill="#7F8BA5"/>
<path d="M15.072 37.8074V41.2951H14.3632V36.8607H15.0337L15.072 37.8074ZM14.9035 38.9098L14.6084 38.8975C14.611 38.5943 14.6531 38.3142 14.7349 38.0574C14.8166 37.7978 14.9316 37.5724 15.0797 37.3811C15.2279 37.1899 15.4041 37.0423 15.6084 36.9385C15.8153 36.832 16.0439 36.7787 16.2943 36.7787C16.4986 36.7787 16.6825 36.8087 16.846 36.8689C17.0095 36.9262 17.1487 37.0191 17.2636 37.1475C17.3811 37.276 17.4705 37.4426 17.5318 37.6475C17.5931 37.8497 17.6238 38.097 17.6238 38.3893V41.2951H16.9111V38.3811C16.9111 38.1489 16.8792 37.9631 16.8153 37.8238C16.7515 37.6817 16.6583 37.5792 16.5356 37.5164C16.413 37.4508 16.2623 37.418 16.0835 37.418C15.9073 37.418 15.7464 37.4577 15.6008 37.5369C15.4577 37.6161 15.3339 37.7254 15.2291 37.8648C15.127 38.0041 15.0465 38.1639 14.9878 38.3443C14.9316 38.5219 14.9035 38.7104 14.9035 38.9098Z" fill="#7F8BA5"/>
<path d="M21.3134 40.4344V35H22.0261V41.2951H21.3747L21.3134 40.4344ZM18.5242 39.127V39.041C18.5242 38.7022 18.5625 38.3948 18.6391 38.1189C18.7183 37.8402 18.8294 37.6011 18.9724 37.4016C19.118 37.2022 19.2904 37.0492 19.4897 36.9426C19.6915 36.8333 19.9162 36.7787 20.164 36.7787C20.4245 36.7787 20.6519 36.8279 20.846 36.9262C21.0427 37.0219 21.2087 37.1626 21.3441 37.3484C21.482 37.5314 21.5906 37.7527 21.6697 38.0123C21.7489 38.2719 21.8038 38.5656 21.8345 38.8934V39.2705C21.8064 39.5956 21.7515 39.888 21.6697 40.1475C21.5906 40.4071 21.482 40.6284 21.3441 40.8115C21.2087 40.9945 21.0427 41.1352 20.846 41.2336C20.6493 41.3292 20.4194 41.377 20.1563 41.377C19.9137 41.377 19.6915 41.321 19.4897 41.209C19.2904 41.097 19.118 40.9399 18.9724 40.7377C18.8294 40.5355 18.7183 40.2978 18.6391 40.0246C18.5625 39.7486 18.5242 39.4495 18.5242 39.127ZM19.2368 39.041V39.127C19.2368 39.3484 19.2572 39.556 19.2981 39.75C19.3415 39.944 19.4079 40.1148 19.4973 40.2623C19.5867 40.4098 19.7004 40.526 19.8383 40.6107C19.9763 40.6926 20.141 40.7336 20.3326 40.7336C20.5676 40.7336 20.7604 40.6803 20.9111 40.5738C21.0644 40.4672 21.187 40.3265 21.2789 40.1516C21.3709 39.9768 21.4424 39.7869 21.4935 39.582V38.5943C21.4628 38.444 21.4181 38.2992 21.3594 38.1598C21.3032 38.0178 21.2291 37.8921 21.1372 37.7828C21.0478 37.6708 20.9367 37.582 20.8038 37.5164C20.6736 37.4508 20.519 37.418 20.3402 37.418C20.1461 37.418 19.9788 37.4617 19.8383 37.5492C19.7004 37.6339 19.5867 37.7514 19.4973 37.9016C19.4079 38.0492 19.3415 38.2213 19.2981 38.418C19.2572 38.612 19.2368 38.8197 19.2368 39.041Z" fill="#7F8BA5"/>
<path d="M23.8383 37.7131V43H23.1257V36.8607H23.777L23.8383 37.7131ZM26.6314 39.041V39.127C26.6314 39.4495 26.5957 39.7486 26.5242 40.0246C26.4526 40.2978 26.3479 40.5355 26.21 40.7377C26.0746 40.9399 25.9073 41.097 25.7081 41.209C25.5088 41.321 25.2802 41.377 25.0222 41.377C24.7591 41.377 24.5267 41.3306 24.3249 41.2377C24.1231 41.1448 23.952 41.0096 23.8115 40.832C23.671 40.6544 23.5586 40.4413 23.4743 40.1926C23.3926 39.944 23.3364 39.6639 23.3058 39.3525V38.8934C23.3364 38.5656 23.3939 38.2719 23.4782 38.0123C23.5625 37.7527 23.6736 37.5314 23.8115 37.3484C23.952 37.1626 24.1219 37.0219 24.3211 36.9262C24.5203 36.8279 24.7502 36.7787 25.0107 36.7787C25.2713 36.7787 25.5024 36.8333 25.7042 36.9426C25.906 37.0492 26.0759 37.2022 26.2138 37.4016C26.3517 37.6011 26.4552 37.8402 26.5242 38.1189C26.5957 38.3948 26.6314 38.7022 26.6314 39.041ZM25.9188 39.127V39.041C25.9188 38.8197 25.8971 38.612 25.8537 38.418C25.8102 38.2213 25.7425 38.0492 25.6506 37.9016C25.5612 37.7514 25.4462 37.6339 25.3058 37.5492C25.1653 37.4617 24.998 37.418 24.8038 37.418C24.625 37.418 24.4692 37.4508 24.3364 37.5164C24.2061 37.582 24.095 37.6708 24.0031 37.7828C23.9111 37.8921 23.8358 38.0178 23.777 38.1598C23.7208 38.2992 23.6787 38.444 23.6506 38.5943V39.6557C23.7017 39.847 23.7732 40.0273 23.8651 40.1967C23.9571 40.3634 24.0797 40.4986 24.233 40.6025C24.3862 40.7036 24.5791 40.7541 24.8115 40.7541C25.0031 40.7541 25.1678 40.7117 25.3058 40.627C25.4462 40.5396 25.5612 40.4208 25.6506 40.2705C25.7425 40.1202 25.8102 39.9481 25.8537 39.7541C25.8971 39.5574 25.9188 39.3484 25.9188 39.127Z" fill="#7F8BA5"/>
<path d="M27.3479 39.127V39.0328C27.3479 38.7131 27.3913 38.4167 27.4782 38.1434C27.565 37.8675 27.6902 37.6284 27.8537 37.4262C28.0171 37.2213 28.2151 37.0628 28.4475 36.9508C28.68 36.8361 28.9405 36.7787 29.2291 36.7787C29.5203 36.7787 29.7821 36.8361 30.0146 36.9508C30.2496 37.0628 30.4488 37.2213 30.6123 37.4262C30.7783 37.6284 30.9047 37.8675 30.9916 38.1434C31.0784 38.4167 31.1219 38.7131 31.1219 39.0328V39.127C31.1219 39.4467 31.0784 39.7432 30.9916 40.0164C30.9047 40.2896 30.7783 40.5287 30.6123 40.7336C30.4488 40.9358 30.2508 41.0943 30.0184 41.209C29.7885 41.321 29.528 41.377 29.2368 41.377C28.9456 41.377 28.6838 41.321 28.4514 41.209C28.2189 41.0943 28.0197 40.9358 27.8537 40.7336C27.6902 40.5287 27.565 40.2896 27.4782 40.0164C27.3913 39.7432 27.3479 39.4467 27.3479 39.127ZM28.0567 39.0328V39.127C28.0567 39.3484 28.081 39.5574 28.1295 39.7541C28.178 39.9481 28.2508 40.1202 28.3479 40.2705C28.4475 40.4208 28.5714 40.5396 28.7196 40.627C28.8677 40.7117 29.0401 40.7541 29.2368 40.7541C29.4309 40.7541 29.6008 40.7117 29.7464 40.627C29.8945 40.5396 30.0171 40.4208 30.1142 40.2705C30.2113 40.1202 30.2841 39.9481 30.3326 39.7541C30.3837 39.5574 30.4092 39.3484 30.4092 39.127V39.0328C30.4092 38.8142 30.3837 38.6079 30.3326 38.4139C30.2841 38.2172 30.21 38.0437 30.1104 37.8934C30.0133 37.7404 29.8907 37.6202 29.7425 37.5328C29.597 37.4454 29.4258 37.4016 29.2291 37.4016C29.035 37.4016 28.8639 37.4454 28.7157 37.5328C28.5701 37.6202 28.4475 37.7404 28.3479 37.8934C28.2508 38.0437 28.178 38.2172 28.1295 38.4139C28.081 38.6079 28.0567 38.8142 28.0567 39.0328Z" fill="#7F8BA5"/>
<path d="M32.7809 36.8607V41.2951H32.0682V36.8607H32.7809ZM32.0146 35.6844C32.0146 35.5615 32.0491 35.4577 32.118 35.373C32.1895 35.2883 32.2943 35.2459 32.4322 35.2459C32.5676 35.2459 32.671 35.2883 32.7425 35.373C32.8166 35.4577 32.8537 35.5615 32.8537 35.6844C32.8537 35.8019 32.8166 35.903 32.7425 35.9877C32.671 36.0697 32.5676 36.1107 32.4322 36.1107C32.2943 36.1107 32.1895 36.0697 32.118 35.9877C32.0491 35.903 32.0146 35.8019 32.0146 35.6844Z" fill="#7F8BA5"/>
<path d="M34.6276 37.8074V41.2951H33.9188V36.8607H34.5893L34.6276 37.8074ZM34.459 38.9098L34.164 38.8975C34.1666 38.5943 34.2087 38.3142 34.2904 38.0574C34.3722 37.7978 34.4871 37.5724 34.6353 37.3811C34.7834 37.1899 34.9597 37.0423 35.164 36.9385C35.3709 36.832 35.5995 36.7787 35.8498 36.7787C36.0542 36.7787 36.2381 36.8087 36.4015 36.8689C36.565 36.9262 36.7042 37.0191 36.8192 37.1475C36.9367 37.276 37.0261 37.4426 37.0874 37.6475C37.1487 37.8497 37.1793 38.097 37.1793 38.3893V41.2951H36.4667V38.3811C36.4667 38.1489 36.4348 37.9631 36.3709 37.8238C36.307 37.6817 36.2138 37.5792 36.0912 37.5164C35.9686 37.4508 35.8179 37.418 35.6391 37.418C35.4629 37.418 35.3019 37.4577 35.1563 37.5369C35.0133 37.6161 34.8894 37.7254 34.7847 37.8648C34.6825 38.0041 34.6021 38.1639 34.5433 38.3443C34.4871 38.5219 34.459 38.7104 34.459 38.9098Z" fill="#7F8BA5"/>
<path d="M39.9916 36.8607V37.4426H37.7502V36.8607H39.9916ZM38.5088 35.7828H39.2176V40.1967C39.2176 40.347 39.2394 40.4604 39.2828 40.5369C39.3262 40.6134 39.3824 40.6639 39.4514 40.6885C39.5203 40.7131 39.5944 40.7254 39.6736 40.7254C39.7323 40.7254 39.7936 40.7199 39.8575 40.709C39.9239 40.6954 39.9737 40.6844 40.0069 40.6762L40.0107 41.2951C39.9545 41.3142 39.8805 41.332 39.7885 41.3484C39.6991 41.3675 39.5906 41.377 39.4629 41.377C39.2892 41.377 39.1295 41.3402 38.9839 41.2664C38.8383 41.1926 38.7221 41.0697 38.6353 40.8975C38.551 40.7227 38.5088 40.4877 38.5088 40.1926V35.7828Z" fill="#7F8BA5"/>
<path d="M29.6099 8.82639C38.9055 15.619 35.0166 31.3019 25.1519 33C37.7673 33 41.9408 14.8198 29.6099 8.82639Z" fill="#FFCE26"/>
<path d="M19.7454 8.72641C30.7483 7.02827 35.3012 21.3127 30.4637 27.9055C38.4314 19.5146 32.0762 4.53099 19.7454 8.72641Z" fill="#0879B8"/>
<path d="M13.2954 15.619C18.702 7.12827 29.9895 12.3226 31.1277 20.9132C32.4557 10.4247 19.1763 4.53111 13.2954 15.619Z" fill="#069B4F"/>
<path d="M13.0107 22.012C14.3387 13.2216 25.1519 12.3226 29.1357 18.5158C25.9107 9.72544 13.2004 10.8242 13.0107 22.012Z" fill="#CB2034"/>
</svg>
