<svg width="50" height="50" viewBox="0 0 50 50" fill="none" xmlns="http://www.w3.org/2000/svg">
<path d="M12.0757 44.3101V45H8.6875V44.3101H12.0757ZM8.85889 38.6016V45H8.01074V38.6016H8.85889ZM11.6274 41.3525V42.0425H8.6875V41.3525H11.6274ZM12.0317 38.6016V39.2959H8.6875V38.6016H12.0317Z" fill="#1C1D1F"/>
<path d="M13.8159 41.2603V45H13.0029V40.2451H13.772L13.8159 41.2603ZM13.6226 42.4424L13.2842 42.4292C13.2871 42.104 13.3354 41.8037 13.4292 41.5283C13.5229 41.25 13.6548 41.0083 13.8247 40.8032C13.9946 40.5981 14.1968 40.4399 14.4312 40.3286C14.6685 40.2144 14.9307 40.1572 15.2178 40.1572C15.4521 40.1572 15.6631 40.1895 15.8506 40.2539C16.0381 40.3154 16.1978 40.415 16.3296 40.5527C16.4644 40.6904 16.5669 40.8691 16.6372 41.0889C16.7075 41.3057 16.7427 41.5708 16.7427 41.8843V45H15.9253V41.8755C15.9253 41.6265 15.8887 41.4272 15.8154 41.2778C15.7422 41.1255 15.6353 41.0156 15.4946 40.9482C15.354 40.8779 15.1812 40.8428 14.9761 40.8428C14.7739 40.8428 14.5894 40.8853 14.4224 40.9702C14.2583 41.0552 14.1162 41.1724 13.9961 41.3218C13.8789 41.4712 13.7866 41.6426 13.7192 41.8359C13.6548 42.0264 13.6226 42.2285 13.6226 42.4424Z" fill="#1C1D1F"/>
<path d="M20.9746 44.0771V38.25H21.792V45H21.0449L20.9746 44.0771ZM17.7754 42.6753V42.583C17.7754 42.2197 17.8193 41.8901 17.9072 41.5942C17.998 41.2954 18.1255 41.0391 18.2896 40.8252C18.4565 40.6113 18.6543 40.4473 18.8828 40.333C19.1143 40.2158 19.3721 40.1572 19.6562 40.1572C19.9551 40.1572 20.2158 40.21 20.4385 40.3154C20.6641 40.418 20.8545 40.5688 21.0098 40.7681C21.168 40.9644 21.2925 41.2017 21.3833 41.48C21.4741 41.7583 21.5371 42.0732 21.5723 42.4248V42.8291C21.54 43.1777 21.4771 43.4912 21.3833 43.7695C21.2925 44.0479 21.168 44.2852 21.0098 44.4814C20.8545 44.6777 20.6641 44.8286 20.4385 44.9341C20.2129 45.0366 19.9492 45.0879 19.6475 45.0879C19.3691 45.0879 19.1143 45.0278 18.8828 44.9077C18.6543 44.7876 18.4565 44.6191 18.2896 44.4023C18.1255 44.1855 17.998 43.9307 17.9072 43.6377C17.8193 43.3418 17.7754 43.021 17.7754 42.6753ZM18.5928 42.583V42.6753C18.5928 42.9126 18.6162 43.1353 18.6631 43.3433C18.7129 43.5513 18.7891 43.7344 18.8916 43.8926C18.9941 44.0508 19.1245 44.1753 19.2827 44.2661C19.4409 44.354 19.6299 44.3979 19.8496 44.3979C20.1191 44.3979 20.3403 44.3408 20.5132 44.2266C20.689 44.1123 20.8296 43.9614 20.9351 43.7739C21.0405 43.5864 21.1226 43.3828 21.1812 43.1631V42.104C21.146 41.9429 21.0947 41.7876 21.0273 41.6382C20.9629 41.4858 20.8779 41.3511 20.7725 41.2339C20.6699 41.1138 20.5425 41.0186 20.3901 40.9482C20.2407 40.8779 20.0635 40.8428 19.8584 40.8428C19.6357 40.8428 19.4438 40.8896 19.2827 40.9834C19.1245 41.0742 18.9941 41.2002 18.8916 41.3613C18.7891 41.5195 18.7129 41.7041 18.6631 41.915C18.6162 42.123 18.5928 42.3457 18.5928 42.583Z" fill="#1C1D1F"/>
<path d="M23.8706 41.1592V46.8281H23.0532V40.2451H23.8003L23.8706 41.1592ZM27.0742 42.583V42.6753C27.0742 43.021 27.0332 43.3418 26.9512 43.6377C26.8691 43.9307 26.749 44.1855 26.5908 44.4023C26.4355 44.6191 26.2437 44.7876 26.0151 44.9077C25.7866 45.0278 25.5244 45.0879 25.2285 45.0879C24.9268 45.0879 24.6602 45.0381 24.4287 44.9385C24.1973 44.8389 24.001 44.6938 23.8398 44.5034C23.6787 44.313 23.5498 44.0845 23.4531 43.8179C23.3594 43.5513 23.2949 43.251 23.2598 42.917V42.4248C23.2949 42.0732 23.3608 41.7583 23.4575 41.48C23.5542 41.2017 23.6816 40.9644 23.8398 40.7681C24.001 40.5688 24.1958 40.418 24.4243 40.3154C24.6528 40.21 24.9165 40.1572 25.2153 40.1572C25.5142 40.1572 25.7793 40.2158 26.0107 40.333C26.2422 40.4473 26.437 40.6113 26.5952 40.8252C26.7534 41.0391 26.8721 41.2954 26.9512 41.5942C27.0332 41.8901 27.0742 42.2197 27.0742 42.583ZM26.2568 42.6753V42.583C26.2568 42.3457 26.2319 42.123 26.1821 41.915C26.1323 41.7041 26.0547 41.5195 25.9492 41.3613C25.8467 41.2002 25.7148 41.0742 25.5537 40.9834C25.3926 40.8896 25.2007 40.8428 24.978 40.8428C24.7729 40.8428 24.5942 40.8779 24.4419 40.9482C24.2925 41.0186 24.165 41.1138 24.0596 41.2339C23.9541 41.3511 23.8677 41.4858 23.8003 41.6382C23.7358 41.7876 23.6875 41.9429 23.6553 42.104V43.2422C23.7139 43.4473 23.7959 43.6406 23.9014 43.8223C24.0068 44.001 24.1475 44.146 24.3232 44.2573C24.499 44.3657 24.7202 44.4199 24.9868 44.4199C25.2065 44.4199 25.3955 44.3745 25.5537 44.2837C25.7148 44.1899 25.8467 44.0625 25.9492 43.9014C26.0547 43.7402 26.1323 43.5557 26.1821 43.3477C26.2319 43.1367 26.2568 42.9126 26.2568 42.6753Z" fill="#1C1D1F"/>
<path d="M27.896 42.6753V42.5742C27.896 42.2314 27.9458 41.9136 28.0454 41.6206C28.145 41.3247 28.2886 41.0684 28.4761 40.8516C28.6636 40.6318 28.8906 40.4619 29.1572 40.3418C29.4238 40.2188 29.7227 40.1572 30.0537 40.1572C30.3877 40.1572 30.688 40.2188 30.9546 40.3418C31.2241 40.4619 31.4526 40.6318 31.6401 40.8516C31.8306 41.0684 31.9756 41.3247 32.0752 41.6206C32.1748 41.9136 32.2246 42.2314 32.2246 42.5742V42.6753C32.2246 43.0181 32.1748 43.3359 32.0752 43.6289C31.9756 43.9219 31.8306 44.1782 31.6401 44.3979C31.4526 44.6147 31.2256 44.7847 30.959 44.9077C30.6953 45.0278 30.3965 45.0879 30.0625 45.0879C29.7285 45.0879 29.4282 45.0278 29.1616 44.9077C28.895 44.7847 28.6665 44.6147 28.4761 44.3979C28.2886 44.1782 28.145 43.9219 28.0454 43.6289C27.9458 43.3359 27.896 43.0181 27.896 42.6753ZM28.709 42.5742V42.6753C28.709 42.9126 28.7368 43.1367 28.7925 43.3477C28.8481 43.5557 28.9316 43.7402 29.043 43.9014C29.1572 44.0625 29.2993 44.1899 29.4692 44.2837C29.6392 44.3745 29.8369 44.4199 30.0625 44.4199C30.2852 44.4199 30.48 44.3745 30.647 44.2837C30.8169 44.1899 30.9575 44.0625 31.0688 43.9014C31.1802 43.7402 31.2637 43.5557 31.3193 43.3477C31.3779 43.1367 31.4072 42.9126 31.4072 42.6753V42.5742C31.4072 42.3398 31.3779 42.1187 31.3193 41.9106C31.2637 41.6997 31.1787 41.5137 31.0645 41.3525C30.9531 41.1885 30.8125 41.0596 30.6426 40.9658C30.4756 40.8721 30.2793 40.8252 30.0537 40.8252C29.8311 40.8252 29.6348 40.8721 29.4648 40.9658C29.2979 41.0596 29.1572 41.1885 29.043 41.3525C28.9316 41.5137 28.8481 41.6997 28.7925 41.9106C28.7368 42.1187 28.709 42.3398 28.709 42.5742Z" fill="#1C1D1F"/>
<path d="M34.1274 40.2451V45H33.3101V40.2451H34.1274ZM33.2485 38.9839C33.2485 38.8521 33.2881 38.7407 33.3672 38.6499C33.4492 38.5591 33.5693 38.5137 33.7275 38.5137C33.8828 38.5137 34.0015 38.5591 34.0835 38.6499C34.1685 38.7407 34.2109 38.8521 34.2109 38.9839C34.2109 39.1099 34.1685 39.2183 34.0835 39.3091C34.0015 39.397 33.8828 39.4409 33.7275 39.4409C33.5693 39.4409 33.4492 39.397 33.3672 39.3091C33.2881 39.2183 33.2485 39.1099 33.2485 38.9839Z" fill="#1C1D1F"/>
<path d="M36.2456 41.2603V45H35.4326V40.2451H36.2017L36.2456 41.2603ZM36.0522 42.4424L35.7139 42.4292C35.7168 42.104 35.7651 41.8037 35.8589 41.5283C35.9526 41.25 36.0845 41.0083 36.2544 40.8032C36.4243 40.5981 36.6265 40.4399 36.8608 40.3286C37.0981 40.2144 37.3604 40.1572 37.6475 40.1572C37.8818 40.1572 38.0928 40.1895 38.2803 40.2539C38.4678 40.3154 38.6274 40.415 38.7593 40.5527C38.894 40.6904 38.9966 40.8691 39.0669 41.0889C39.1372 41.3057 39.1724 41.5708 39.1724 41.8843V45H38.355V41.8755C38.355 41.6265 38.3184 41.4272 38.2451 41.2778C38.1719 41.1255 38.0649 41.0156 37.9243 40.9482C37.7837 40.8779 37.6108 40.8428 37.4058 40.8428C37.2036 40.8428 37.019 40.8853 36.8521 40.9702C36.688 41.0552 36.5459 41.1724 36.4258 41.3218C36.3086 41.4712 36.2163 41.6426 36.1489 41.8359C36.0845 42.0264 36.0522 42.2285 36.0522 42.4424Z" fill="#1C1D1F"/>
<path d="M42.3979 40.2451V40.8691H39.8271V40.2451H42.3979ZM40.6973 39.0894H41.5103V43.8223C41.5103 43.9834 41.5352 44.105 41.585 44.187C41.6348 44.269 41.6992 44.3232 41.7783 44.3496C41.8574 44.376 41.9424 44.3892 42.0332 44.3892C42.1006 44.3892 42.1709 44.3833 42.2441 44.3716C42.3203 44.3569 42.3774 44.3452 42.4155 44.3364L42.4199 45C42.3555 45.0205 42.2705 45.0396 42.165 45.0571C42.0625 45.0776 41.938 45.0879 41.7915 45.0879C41.5923 45.0879 41.4092 45.0483 41.2422 44.9692C41.0752 44.8901 40.9419 44.7583 40.8423 44.5737C40.7456 44.3862 40.6973 44.1343 40.6973 43.8179V39.0894Z" fill="#1C1D1F"/>
<path d="M30.3657 6.95861C41.2106 14.838 36.6734 33.0302 25.1646 35C39.8826 35 44.7517 13.911 30.3657 6.95861Z" fill="#FFCE26"/>
<path d="M18.8571 6.84264C31.6938 4.87279 37.0056 21.4427 31.3618 29.0904C40.6574 19.357 33.2431 1.97595 18.8571 6.84264Z" fill="#0879B8"/>
<path d="M11.3321 14.838C17.6398 4.9888 30.8085 11.0142 32.1365 20.9793C33.6857 8.81263 18.1931 1.97609 11.3321 14.838Z" fill="#069B4F"/>
<path d="M11 22.254C12.5493 12.0571 25.1647 11.0142 29.8125 18.1984C26.05 8.00151 11.2213 9.27612 11 22.254Z" fill="#CB2034"/>
</svg>
