<svg width="50" height="50" viewBox="0 0 50 50" fill="none" xmlns="http://www.w3.org/2000/svg">
<path fill-rule="evenodd" clip-rule="evenodd" d="M9.25928 23.1973H9.23801C8.73079 22.5558 8.21277 22.3421 7.51511 22.3421C5.95115 22.3421 5 23.6355 5 25.0916C5 26.548 6.02522 27.8615 7.53666 27.8615C8.23434 27.8615 8.86843 27.6069 9.30158 26.9859H9.32286V27.7191H10.7815V20.0612H9.25955L9.25928 23.1973ZM7.9593 26.68C7.06095 26.68 6.58525 25.9573 6.58525 25.1323C6.58525 24.3379 7.03967 23.5845 7.91702 23.5845C8.86817 23.5845 9.31207 24.328 9.31207 25.1119C9.31207 25.9878 8.82586 26.68 7.9593 26.68ZM13.7734 22.3421C12.1351 22.3421 10.9938 23.4215 10.9938 25.1119C10.9938 26.7821 12.1354 27.8615 13.7734 27.8615C15.0524 27.8615 16.0458 27.3017 16.4156 26.2322L14.936 26.12C14.7245 26.5275 14.3124 26.7412 13.8472 26.7412C13.0334 26.7412 12.6423 26.1304 12.579 25.5194H16.5527V25.1122C16.553 23.4215 15.4117 22.3421 13.7734 22.3421ZM12.5793 24.5824C12.6638 23.9917 13.055 23.4624 13.8475 23.4624C14.5769 23.4624 14.9783 24.0734 15.0313 24.5824H12.5793ZM18.7737 20.9776H17.2518V22.4848H16.5541V23.6051H17.2518V26.4155C17.2518 27.546 17.8541 27.78 18.8475 27.78C19.0908 27.78 19.3337 27.7495 19.577 27.7191V26.5683C19.4819 26.5886 19.3973 26.5988 19.2705 26.5988C18.8793 26.5988 18.7737 26.4869 18.7737 26.2525V23.6051H19.577V22.4848H18.7737V20.9776ZM22.4732 22.3421C20.8349 22.3421 19.6936 23.4215 19.6936 25.1119C19.6936 26.7821 20.8349 27.8615 22.4732 27.8615C23.7522 27.8615 24.7457 27.3017 25.1155 26.2322L23.6359 26.12C23.4244 26.5275 23.0123 26.7412 22.5473 26.7412C21.7336 26.7412 21.3424 26.1304 21.2791 25.5194H25.2529V25.1122C25.2529 23.4215 24.1116 22.3421 22.4732 22.3421ZM21.2791 24.5824C21.3637 23.9917 21.7548 23.4624 22.5473 23.4624C23.2765 23.4624 23.6782 24.0734 23.7309 24.5824H21.2791ZM28.15 23.5845C28.5516 23.5845 28.9958 23.7576 29.0273 24.4908L30.6125 24.4298C30.5387 23.3197 29.767 22.3421 28.15 22.3421C26.5014 22.3421 25.5074 23.4725 25.5074 25.1526C25.5074 26.7618 26.4061 27.8612 28.1818 27.8612C29.6401 27.8612 30.3588 27.0263 30.5913 25.8756L29.1011 25.8248C29.0168 26.334 28.7205 26.68 28.1395 26.68C27.347 26.68 27.0932 25.906 27.0932 25.2137C27.0932 24.5418 27.2096 23.5845 28.15 23.5845ZM32.9284 20.9776H31.4064V22.4848H30.7087V23.6051H31.4064V26.4155C31.4064 27.546 32.0087 27.78 33.0025 27.78C33.2454 27.78 33.4889 27.7495 33.7319 27.7191V26.5683C33.6364 26.5886 33.5518 26.5988 33.425 26.5988C33.0341 26.5988 32.9284 26.4869 32.9284 26.2525V23.6051H33.7316V22.4848H32.9284V20.9776ZM34.1127 27.7188H35.6346V22.4848H34.1127V27.7188ZM34.8734 20C34.3663 20 33.9858 20.4379 33.9858 20.8654C33.9858 21.2728 34.3663 21.7108 34.8734 21.7108C35.3596 21.7108 35.7614 21.2932 35.7614 20.8451C35.7614 20.3767 35.328 20 34.8734 20ZM36.8082 21.8024V22.4848H36.0365V23.6051H36.8082V27.7191H38.3296V23.6051H39.2073V22.4848H38.3296V21.6701C38.3296 21.3746 38.5201 21.2421 38.7845 21.2421H39.2073V20H38.9111C37.5692 20 36.8082 20.3361 36.8082 21.8024ZM43.3298 22.4848L42.1779 25.9469H42.157L41.0048 22.4848H39.3349L41.3746 27.7188L40.4659 30H42.0618L45 22.4848H43.3298Z" fill="#252734"/>
</svg>
