<svg width="50" height="50" viewBox="0 0 50 50" fill="none" xmlns="http://www.w3.org/2000/svg">
<rect width="50" height="50" fill="#240066"/>
<path fill-rule="evenodd" clip-rule="evenodd" d="M15.0679 18.5748C15.1375 18.5814 15.133 18.5835 15.0679 18.5748ZM40.9397 29.8193C40.5801 29.3119 36.6023 29.9582 36.6023 29.6099C37.4475 28.3157 38.0133 27.3081 39.0313 26.0213C40.2764 24.4472 40.4438 22.668 40.0008 20.9373C39.6057 19.3936 37.9476 18.3944 36.4083 18.2757H36.3981C34.7259 18.1668 32.447 19.2932 31.8667 20.8675C31.7141 21.2403 33.3651 21.805 33.6528 21.7348C34.8105 21.3579 35.1861 19.9147 36.7349 20.419C38.9079 21.0981 37.9918 24.0093 37.0207 25.3135C36.0005 26.8082 32.4791 31.7432 32.4791 31.7432C32.5271 31.8135 37.6245 31.8348 39.8787 31.7976C40.5718 31.7862 40.9701 31.4028 40.9776 30.7257C40.9823 30.2906 40.9738 29.8715 40.9397 29.8193ZM30.6114 26.9284C30.252 26.9077 30.4379 24.3749 30.4379 23.8757C30.4379 23.8109 30.3975 23.7526 30.3359 23.7285C30.2134 23.6787 28.3967 23.7086 28.3457 23.7484C27.7898 24.2914 28.8636 26.3976 28.2028 26.8586C28.1212 26.9184 25.1309 26.9483 24.9778 26.8885C24.6378 26.741 27.6796 20.0347 28.0804 19.3822C28.2845 19.0034 28.2232 18.7542 27.8864 18.6944C27.4489 18.6232 26.9786 18.3607 26.5801 18.1661C26.4243 18.09 26.3145 18.201 26.2433 18.3228C24.6462 21.0531 23.6915 24.1799 22.4059 27.068C22.2756 27.3735 21.5643 28.7275 21.967 28.7427C23.1504 28.7427 28.2232 28.8224 28.2232 28.8224C28.2539 28.8523 28.2743 29.271 28.2743 30.2778C28.2743 32.0522 28.1416 31.8528 29.3561 31.8528C30.5604 31.8528 30.4175 32.0522 30.4175 30.2679C30.4175 29.4704 30.4277 28.8124 30.4481 28.8025C30.8043 28.6285 31.3482 28.8541 31.7341 28.7128C31.9696 28.6142 31.8463 28.0351 31.8463 27.8455C31.8679 26.8232 31.5288 26.9284 30.6114 26.9284Z" fill="url(#paint0_linear_734_6786)"/>
<path fill-rule="evenodd" clip-rule="evenodd" d="M15.0679 18.5748C13.563 18.4334 12.0253 18.4703 10.5142 18.5107C10.3376 18.5154 10.1796 18.6615 10.1721 18.8338C9.98996 23.0307 10.1625 27.263 10.1693 31.4641C10.1693 31.5738 10.2611 31.6635 10.3734 31.6635C11.7938 31.6635 14.6857 32.2582 15.8233 31.5438C18.2106 31.0788 19.5236 29.1016 20.1506 26.9683C20.8723 23.1204 18.9361 18.4552 15.0679 18.5748ZM12.4146 29.6498C12.2615 29.6199 12.1799 29.4106 12.2105 29.1016C12.2309 28.9221 12.2921 21.4756 12.2819 20.6383C12.2819 20.5667 12.3413 20.5087 12.4146 20.5087C16.0014 20.5087 17.1367 20.9778 18.1809 24.0375C19.2333 27.464 15.7381 30.2991 12.4146 29.6498Z" fill="white"/>
<defs>
<linearGradient id="paint0_linear_734_6786" x1="23.2392" y1="25.033" x2="40.9788" y2="25.0401" gradientUnits="userSpaceOnUse">
<stop stop-color="#F37942"/>
<stop offset="1" stop-color="#FBCD36"/>
</linearGradient>
</defs>
</svg>
