<svg width="50" height="50" viewBox="0 0 50 50" fill="none" xmlns="http://www.w3.org/2000/svg">
<rect width="50" height="50" fill="black"/>
<path d="M27.5693 15.2282H35.9634C37.4315 15.2282 38.1579 17.0692 37.1454 18.0817C36.8319 18.3952 36.4067 18.5713 35.9634 18.5713H27.5693C26.6589 18.5713 25.8977 17.8102 25.8977 16.8998C25.8977 15.9893 26.6589 15.2282 27.5693 15.2282Z" fill="#CCDE00"/>
<path d="M19.2418 29.364H40.312C41.2225 29.364 41.9836 28.6029 41.9836 27.6924C41.9836 26.782 41.2225 26.0209 40.312 26.0209H19.2418C18.3313 26.0209 17.5702 26.782 17.5702 27.6924C17.5702 28.6029 18.3313 29.364 19.2418 29.364Z" fill="#CCDE00"/>
<path d="M35.835 23.9566H40.3121C41.2225 23.9566 41.9836 23.1954 41.9836 22.285C41.9836 21.3745 41.2225 20.6134 40.3121 20.6134H35.835C34.9245 20.6134 34.1634 21.3745 34.1634 22.285C34.1634 23.1954 34.9246 23.9566 35.835 23.9566Z" fill="#CCDE00"/>
<path d="M35.835 34.7717C36.8732 34.7717 37.6745 33.7797 37.4745 32.774C37.3455 32.1255 36.8096 31.5896 36.1611 31.4606C35.1429 31.2581 34.1634 32.0747 34.1634 33.1001C34.1634 34.0105 34.9246 34.7717 35.835 34.7717Z" fill="#CCDE00"/>
<path d="M22.047 15.228C22.7083 15.228 23.3383 15.649 23.5914 16.2599C23.9838 17.2073 23.3913 18.3365 22.3732 18.5391C21.3674 18.7391 20.3755 17.9378 20.3755 16.8996C20.3755 15.9891 21.1366 15.228 22.047 15.228Z" fill="white"/>
<path d="M9.68818 23.9563H30.4464C31.3568 23.9563 32.118 23.1952 32.118 22.2847C32.118 21.3743 31.3569 20.6132 30.4464 20.6132H9.68818C8.77772 20.6132 8.0166 21.3743 8.0166 22.2847C8.0166 23.1952 8.77774 23.9563 9.68818 23.9563Z" fill="white"/>
<path d="M25.7798 34.7714H30.4463C31.3567 34.7714 32.1178 34.0103 32.1178 33.0998C32.1178 32.1894 31.3567 31.4283 30.4463 31.4283H25.7798C24.8693 31.4283 24.1082 32.1894 24.1082 33.0998C24.1082 34.0103 24.8693 34.7714 25.7798 34.7714Z" fill="white"/>
<path d="M14.2547 26.0293C15.2928 26.0293 16.0942 27.0212 15.8941 28.027C15.6916 29.0452 14.5624 29.6376 13.615 29.2452C13.0041 28.9922 12.5831 28.3621 12.5831 27.7009C12.5831 26.7904 13.3442 26.0293 14.2547 26.0293Z" fill="white"/>
</svg>
