<svg width="50" height="50" viewBox="0 0 50 50" fill="none" xmlns="http://www.w3.org/2000/svg">
<path d="M24.5237 37.2739V44.999C37.6185 44.999 47.8162 32.3482 43.5313 18.6251C41.6591 12.6285 36.8939 7.86332 30.8973 5.99243C17.1756 1.70755 4.52344 11.9039 4.52344 25.0001H12.2681L12.2694 24.9973C12.2708 16.7793 20.4036 10.4253 29.0446 13.5611C32.246 14.7228 34.7982 17.2764 35.9612 20.4764C39.0963 29.1113 32.7534 37.2429 24.5411 37.2543V29.553L24.5397 29.5516H16.8202L16.8188 29.553V37.2739H24.5237Z" fill="#0069FF"/>
<path d="M16.8171 43.2065H10.8847L10.8833 43.2051V37.2739H5.9149L5.91211 37.2725V32.3021L5.9149 32.2979H10.8853L10.8881 32.2993V37.2727H16.8185V43.2051L16.8171 43.2065Z" fill="#0069FF"/>
</svg>
