<svg width="50" height="50" viewBox="0 0 50 50" fill="none" xmlns="http://www.w3.org/2000/svg">
<path d="M6 24.9545C6 23.3752 7.03967 22.0606 8.68178 22.0606C9.36681 22.0606 10.1745 22.3133 10.5184 22.9545C10.5326 22.9545 10.5184 20.2505 10.5184 20.0151H11.6561V27.7273H10.5672L10.5509 26.8333C10.1747 27.5347 9.34506 27.8485 8.58426 27.8485C6.93626 27.8485 6 26.5113 6 24.9545ZM7.17023 24.9545C7.17023 25.9539 7.75435 26.9242 8.84431 26.9242C9.98411 26.9242 10.5509 25.9678 10.5509 24.9242C10.5509 23.9324 9.95199 22.9545 8.87682 22.9545C7.76684 22.9545 7.17023 23.9355 7.17023 24.9545Z" fill="#0174C3"/>
<path d="M12.6151 21.0909V20.0151H13.769V21.0909H12.6151ZM12.6313 27.7273V22.197H13.769V27.7273H12.6313Z" fill="#0174C3"/>
<path d="M15.5081 28.7273C15.9957 28.9697 16.5483 29.0909 17.1334 29.0909C18.1255 29.0909 19.0188 28.6161 19.0188 27.5303L19.0026 26.7727C18.6287 27.3485 18.0436 27.6363 17.2472 27.6363C15.6405 27.6363 14.5979 26.3573 14.5979 24.803C14.5979 23.2641 15.5858 22.0303 17.1822 22.0303C17.9917 22.0303 18.5348 22.2655 19.0351 22.8485C19.0805 22.8485 19.0513 22.2295 19.0513 22.1667H20.1403V27.4697C20.1403 29.123 18.6413 30 17.1497 30C16.4346 30 15.7519 29.8485 15.118 29.5454L15.5081 28.7273ZM17.4585 26.7424C17.9299 26.7424 18.3037 26.5909 18.58 26.303C18.8725 26 19.0188 25.5151 19.0188 24.8485C19.0188 23.6212 18.45 22.9848 17.3447 22.9848C16.2886 22.9848 15.7194 23.8048 15.7194 24.803C15.7194 25.8442 16.3587 26.7424 17.4585 26.7424Z" fill="#0174C3"/>
<path d="M21.083 21.0909V20.0151H22.237V21.0909H21.083ZM21.083 27.7273V22.197H22.2207V27.7273H21.083Z" fill="#0174C3"/>
<path d="M23.0659 24.9545C23.0659 23.2115 24.5731 22.0606 26.2352 22.0606C27.0825 22.0606 27.8264 22.3135 28.4619 22.8636L27.9256 23.606C27.4737 23.1848 26.8845 22.9848 26.2677 22.9848C25.1418 22.9848 24.2036 23.7818 24.2036 24.9394C24.2036 26.1182 25.1584 26.9242 26.3003 26.9242C26.9841 26.9242 27.6084 26.6378 28.1206 26.197L28.5757 26.9697C27.9413 27.5611 27.0757 27.8333 26.219 27.8333C24.5421 27.8333 23.0659 26.7119 23.0659 24.9545Z" fill="#0174C3"/>
<path d="M28.7545 24.9545C28.7545 23.2679 30.059 22.0454 31.7288 22.0454C33.4945 22.0454 34.3827 23.4502 34.2643 25.106H29.941C30.0044 26.2288 30.8983 26.9242 31.9889 26.9242C32.6353 26.9242 33.2258 26.6747 33.7442 26.303L34.2156 27.0757C33.6114 27.639 32.7356 27.8788 31.9239 27.8788C30.2521 27.8788 28.7545 26.7025 28.7545 24.9545ZM29.9572 24.3182H33.1266C33.0973 23.5 32.5427 22.9242 31.7126 22.9242C30.8726 22.9242 30.0852 23.4529 29.9572 24.3182Z" fill="#0174C3"/>
<path d="M35.0932 27.7273V22.197H36.1985V23.5757C36.4805 22.7578 37.1753 22.1363 38.0676 22.1363L38.3601 22.1667V23.2121C38.2626 23.1818 38.1488 23.1818 38.0351 23.1818C37.242 23.1818 36.6256 23.7571 36.361 24.4697C36.2635 24.7576 36.2147 25.0909 36.2147 25.4697V27.7273H35.0932Z" fill="#0174C3"/>
<path d="M39.8229 25.7121V23.1212H39.0428V22.2727H39.8392V20.6667H40.9444V22.2727H42.3747V23.1212H40.9444V25.5757C40.9444 26 41.1069 26.303 41.2695 26.4848C41.5584 26.8081 42.0576 26.8343 42.4559 26.7879V27.7273C41.7504 27.8212 40.9148 27.7299 40.3755 27.2273C39.9629 26.8426 39.8229 26.2588 39.8229 25.7121Z" fill="#0174C3"/>
</svg>
