<svg width="50" height="50" viewBox="0 0 50 50" fill="none" xmlns="http://www.w3.org/2000/svg">
<path d="M6.6684 29.8322C6.6684 30.8989 5.97359 31.4253 4.87874 31.4253C4.5645 31.4253 4.25486 31.4019 3.94531 31.3481V28.3302C4.26056 28.2754 4.57996 28.253 4.8998 28.253C5.85894 28.253 6.6684 28.7785 6.6684 29.8322ZM4.64714 30.8217C4.71732 30.8217 4.80154 30.8288 4.91383 30.8288C5.53328 30.8288 5.94552 30.4643 5.94552 29.8322C5.94552 29.5093 5.8613 29.2637 5.69988 29.0952C5.44814 28.8326 4.99186 28.7992 4.64714 28.8566V30.8217Z" fill="#626A75"/>
<path d="M7.93168 28.288H7.22986V31.3901H7.93168V28.288Z" fill="#626A75"/>
<path d="M10.1497 28.8215C9.50401 28.8215 9.22328 29.2146 9.22328 29.8322C9.22328 30.4498 9.49699 30.8568 10.0865 30.8568C10.2511 30.8568 10.3511 30.8552 10.4304 30.8288V29.748H11.1322V31.285C10.9638 31.3551 10.5918 31.4464 10.0444 31.4464C9.13118 31.4464 8.50741 30.7596 8.50741 29.8392C8.50741 28.9539 9.14173 28.225 10.0655 28.225C10.4254 28.225 10.767 28.3021 11.0901 28.4636L10.8866 29.0251C10.6883 28.9259 10.4419 28.8215 10.1497 28.8215Z" fill="#626A75"/>
<path d="M12.4866 28.288H11.7848V31.3901H12.4866V28.288Z" fill="#626A75"/>
<path d="M15.4696 28.288V28.8845H14.5362V31.3901H13.8344V28.8845H12.9009V28.288H15.4696Z" fill="#626A75"/>
<path d="M17.6661 31.3901C17.5959 31.1795 17.5187 30.9479 17.4345 30.7233H16.2274C16.1432 30.9479 16.066 31.1795 15.9958 31.3901H15.2729C15.6446 30.3406 16.0225 29.2915 16.5081 28.288H17.1678C17.6475 29.2794 18.0569 30.3305 18.4101 31.3901H17.6661ZM16.8309 28.9898C16.6988 29.3862 16.5262 29.7698 16.3818 30.1619H17.2731C17.129 29.7709 16.9625 29.3846 16.8309 28.9898Z" fill="#626A75"/>
<path d="M20.8806 30.7865V31.3901H18.8102V28.288H19.505V30.7865H20.8806Z" fill="#626A75"/>
<path d="M23.1685 28.8215C22.5228 28.8215 22.2421 29.2146 22.2421 29.8322C22.2421 30.4498 22.5158 30.8568 23.1053 30.8568C23.2699 30.8568 23.3699 30.8552 23.4492 30.8288V29.748H24.1511V31.285C23.9826 31.3551 23.6107 31.4464 23.0632 31.4464C22.15 31.4464 21.5262 30.7596 21.5262 29.8392C21.5262 28.9539 22.1605 28.225 23.0843 28.225C23.4442 28.225 23.7859 28.3021 24.109 28.4636L23.9054 29.0251C23.7072 28.9259 23.4607 28.8215 23.1685 28.8215Z" fill="#E11F93"/>
<path d="M26.0039 31.4462C25.2479 31.4462 24.7406 30.9592 24.7406 30.218V28.288H25.4425V30.1548C25.4425 30.516 25.6011 30.8497 26.0109 30.8497C26.3478 30.8497 26.5864 30.6672 26.5864 30.1619V28.295H27.2883V30.225C27.2883 31.0134 26.7424 31.4462 26.0039 31.4462Z" fill="#E11F93"/>
<path d="M29.913 31.3832C29.8428 31.1726 29.7656 30.941 29.6814 30.7164H28.4673C28.383 30.941 28.3058 31.1726 28.2357 31.3832H27.5128C27.8853 30.3315 28.2686 29.2719 28.748 28.2811H29.4077C29.8922 29.2823 30.2982 30.3279 30.6499 31.3832H29.913ZM29.0779 28.9899C28.9457 29.3863 28.7731 29.7699 28.6287 30.162H29.52C29.376 29.771 29.2094 29.3847 29.0779 28.9899Z" fill="#E11F93"/>
<path d="M33.036 28.4987C33.4247 28.7653 33.546 29.4097 33.2606 29.7971C33.1623 29.9304 33.0149 30.0427 32.8254 30.1199C33.0811 30.4324 33.3806 30.9494 33.5975 31.3832H32.8184C32.6014 31.0034 32.3604 30.5475 32.0955 30.2533H31.7516V31.3832H31.0498V28.3302C31.2042 28.3022 31.3586 28.2811 31.52 28.2671C32.02 28.2254 32.601 28.2208 33.036 28.4987ZM31.871 28.8496C31.8288 28.8496 31.7938 28.8566 31.7587 28.8566V29.6988H31.9552C32.4627 29.6988 32.6921 29.5942 32.6921 29.2637C32.6921 28.866 32.18 28.7878 31.871 28.8496Z" fill="#E11F93"/>
<path d="M36.7488 29.8322C36.7488 30.3655 36.5734 30.7656 36.2646 31.0323C35.6752 31.5413 34.7496 31.474 34.0258 31.3481V28.3302C34.7551 28.2034 35.6447 28.1399 36.2646 28.625C36.5734 28.8777 36.7488 29.2707 36.7488 29.8322ZM34.7276 30.8147C34.7978 30.8147 34.8679 30.8217 34.9943 30.8217C35.6137 30.8217 36.026 30.4572 36.026 29.8251C36.026 29.1795 35.7172 28.8356 35.0153 28.8356C34.9171 28.8356 34.8118 28.8356 34.7276 28.8496V30.8147Z" fill="#E11F93"/>
<path d="M38.0124 28.288H37.3106V31.3901H38.0124V28.288Z" fill="#E11F93"/>
<path d="M40.7987 31.3832C40.7285 31.1726 40.6514 30.941 40.5671 30.7164H39.353C39.2688 30.941 39.1916 31.1726 39.1214 31.3832H38.4055C38.778 30.3315 39.1613 29.2719 39.6407 28.2811H40.3004C40.7849 29.2823 41.1909 30.3279 41.5427 31.3832H40.7987ZM39.9636 28.9899C39.8315 29.3861 39.6588 29.7701 39.5144 30.162H40.3987C40.2548 29.7715 40.0951 29.3845 39.9636 28.9899Z" fill="#E11F93"/>
<path d="M44.027 31.3833C43.6193 30.6664 43.1615 29.9797 42.6303 29.348V31.3763H41.9425V28.2742H42.511C42.8939 28.6571 43.4915 29.4463 43.9217 30.106V28.2742H44.6165V31.3763H44.027V31.3833Z" fill="#E11F93"/>
<path d="M24.2775 22.6034L17.6663 26.295H30.8957L24.2775 22.6034Z" fill="#E45DA1"/>
<path d="M27.0915 24.0701L32.1096 20.7855H41.2053L44.6162 18.5537H30.4322L24.2775 22.6034L29.8918 26.2949H32.7833L40.3982 21.3119H32.2921L28.8882 23.5367H35.8363L35.0292 24.0701H27.0915Z" fill="#E11F93"/>
<path d="M21.47 24.0701L16.4519 20.7855H7.3492L3.94533 18.5537H18.1293L24.2775 22.6034L18.6697 26.2949H15.7781L8.1563 21.3119H16.2694L19.6733 23.5367H12.7252L13.5323 24.0701H21.47Z" fill="#626A75"/>
</svg>
