<svg width="50" height="50" viewBox="0 0 50 50" fill="none" xmlns="http://www.w3.org/2000/svg">
<path fill-rule="evenodd" clip-rule="evenodd" d="M15.4663 30.76H17.7853V19.12H15.4663V30.76Z" fill="#4B4F53"/>
<path fill-rule="evenodd" clip-rule="evenodd" d="M22.741 27.2216C22.741 28.3586 23.2695 29.0232 24.931 29.0232C25.5731 29.0232 26.2341 28.9708 26.8758 28.8834V25.3498H29.1227V30.4752C27.8012 30.8251 26.2341 31 24.912 31C21.8348 31 20.362 29.7929 20.362 27.484V22.5158C20.362 20.1194 21.8726 19 25.1389 19C26.1582 19 27.6122 19.1048 28.7451 19.3847L28.4806 21.309C27.3288 21.0816 26.1774 20.9939 24.9498 20.9939C23.2884 20.9939 22.741 21.6238 22.741 22.8134V27.2216Z" fill="#4B4F53"/>
<path fill-rule="evenodd" clip-rule="evenodd" d="M31.8282 30.76H34.1472V19.12H31.8282V30.76Z" fill="#4B4F53"/>
<path fill-rule="evenodd" clip-rule="evenodd" d="M37.2393 27.28V19.12H46L37.2393 27.28Z" fill="#84C361"/>
<path fill-rule="evenodd" clip-rule="evenodd" d="M8.63273 19.12H4V21.068L8.38967 21.0598C9.97753 21.0598 10.4071 21.6541 10.4071 22.7727V27.1071C10.4071 28.2256 9.97753 28.82 8.38967 28.82H6.35365V22.1587L4 24.3609V30.76H8.63273C11.6962 30.76 12.7607 29.2919 12.7607 27.6314V22.2483C12.7607 20.5705 11.6962 19.12 8.63273 19.12Z" fill="#4B4F53"/>
</svg>
