<svg width="50" height="50" viewBox="0 0 50 50" fill="none" xmlns="http://www.w3.org/2000/svg">
<rect width="50" height="50" fill="#1974BB"/>
<path d="M36.9573 21.7006C36.5734 17.3108 33.5028 14.3591 31.1231 11.1803C32.121 9.74223 34.3472 10.1963 35.9593 10.4991C33.8866 9.06106 31.4301 8.22852 28.8201 8.00146C23.8303 7.92578 19.8385 10.8018 16.1537 13.9806C13.9275 13.2995 15.4628 10.9532 15.4628 9.28812C13.5437 11.8614 12.9295 14.7375 13.0063 17.6892C13.1408 22.3314 16.101 25.6309 18.994 28.8907C17.9193 30.6315 15.7699 29.8746 14.1578 29.5719C16.7678 31.464 19.6849 32.0695 22.6788 31.9938C27.3332 31.8627 30.6485 28.9501 33.9634 26.0903C35.0381 27.3013 35.2684 29.3448 34.6543 30.8585C36.4967 28.2852 37.1876 25.1064 36.9573 21.7006ZM33.426 21.8519C30.7173 25.1901 27.5173 28.5123 22.9091 28.5123C19.8317 25.4782 16.5375 22.597 16.5375 17.9163V17.8406C19.7272 15.0328 23.051 11.7857 27.5918 11.7857C29.8355 14.7017 33.426 17.9804 33.426 21.8519Z" fill="white"/>
<path d="M23.6035 39.7393H24.541C24.3805 41.2161 23.2814 42.0977 21.8457 42.0977C20.1814 42.0977 19.0723 40.784 19.0723 38.8018C19.0723 36.9054 19.7317 34.793 21.9287 34.793C23.5385 34.793 24.3943 35.762 24.541 37.1709H23.6035C23.4658 36.1676 23.0283 35.5645 21.9287 35.5645C20.2073 35.5645 20.0098 37.4453 20.0098 38.8018C20.0098 40.1954 20.5777 41.3311 21.8457 41.3311C23.0491 41.3311 23.4478 40.7317 23.6035 39.7393Z" fill="white"/>
<path d="M30.1172 39.7393H31.0547C30.898 41.1812 29.8222 42.0977 28.3594 42.0977C26.5712 42.0977 25.5859 40.474 25.5859 38.8018C25.5859 36.9474 26.1665 34.793 28.4424 34.793C29.873 34.793 30.9039 35.7237 31.0547 37.1709H30.1172C29.9847 36.2057 29.4319 35.5645 28.4424 35.5645C26.6771 35.5645 26.5234 37.4645 26.5234 38.8018C26.5234 39.9588 27.0285 41.3311 28.3594 41.3311C29.5628 41.3311 29.9615 40.7317 30.1172 39.7393Z" fill="white"/>
</svg>
