<svg width="50" height="50" viewBox="0 0 50 50" fill="none" xmlns="http://www.w3.org/2000/svg">
<path d="M6.6684 23.8322C6.6684 24.8989 5.97359 25.4253 4.87874 25.4253C4.5645 25.4253 4.25486 25.4019 3.94531 25.3481V22.3302C4.26056 22.2754 4.57996 22.253 4.8998 22.253C5.85894 22.253 6.6684 22.7785 6.6684 23.8322ZM4.64714 24.8217C4.71732 24.8217 4.80154 24.8288 4.91383 24.8288C5.53328 24.8288 5.94552 24.4643 5.94552 23.8322C5.94552 23.5093 5.8613 23.2637 5.69988 23.0952C5.44814 22.8326 4.99186 22.7992 4.64714 22.8566V24.8217Z" fill="#626A75"/>
<path d="M7.93168 22.288H7.22986V25.3901H7.93168V22.288Z" fill="#626A75"/>
<path d="M10.1497 22.8215C9.50401 22.8215 9.22328 23.2146 9.22328 23.8322C9.22328 24.4498 9.49699 24.8568 10.0865 24.8568C10.2511 24.8568 10.3511 24.8552 10.4304 24.8288V23.748H11.1322V25.285C10.9638 25.3551 10.5918 25.4464 10.0444 25.4464C9.13118 25.4464 8.50741 24.7596 8.50741 23.8392C8.50741 22.9539 9.14173 22.225 10.0655 22.225C10.4254 22.225 10.767 22.3021 11.0901 22.4636L10.8866 23.0251C10.6883 22.9259 10.4419 22.8215 10.1497 22.8215Z" fill="#626A75"/>
<path d="M12.4866 22.288H11.7848V25.3901H12.4866V22.288Z" fill="#626A75"/>
<path d="M15.4696 22.288V22.8845H14.5362V25.3901H13.8344V22.8845H12.9009V22.288H15.4696Z" fill="#626A75"/>
<path d="M17.6661 25.3901C17.5959 25.1795 17.5187 24.9479 17.4345 24.7233H16.2274C16.1432 24.9479 16.066 25.1795 15.9958 25.3901H15.2729C15.6446 24.3406 16.0225 23.2915 16.5081 22.288H17.1678C17.6475 23.2794 18.0569 24.3305 18.4101 25.3901H17.6661ZM16.8309 22.9898C16.6988 23.3862 16.5262 23.7698 16.3818 24.1619H17.2731C17.129 23.7709 16.9625 23.3846 16.8309 22.9898Z" fill="#626A75"/>
<path d="M20.8806 24.7865V25.3901H18.8102V22.288H19.505V24.7865H20.8806Z" fill="#626A75"/>
<path d="M23.1685 22.8215C22.5228 22.8215 22.2421 23.2146 22.2421 23.8322C22.2421 24.4498 22.5158 24.8568 23.1053 24.8568C23.2699 24.8568 23.3699 24.8552 23.4492 24.8288V23.748H24.1511V25.285C23.9826 25.3551 23.6107 25.4464 23.0632 25.4464C22.15 25.4464 21.5262 24.7596 21.5262 23.8392C21.5262 22.9539 22.1605 22.225 23.0843 22.225C23.4442 22.225 23.7859 22.3021 24.109 22.4636L23.9054 23.0251C23.7072 22.9259 23.4607 22.8215 23.1685 22.8215Z" fill="#E11F93"/>
<path d="M26.0039 25.4462C25.2479 25.4462 24.7406 24.9592 24.7406 24.218V22.288H25.4425V24.1548C25.4425 24.516 25.6011 24.8497 26.0109 24.8497C26.3478 24.8497 26.5864 24.6672 26.5864 24.1619V22.295H27.2883V24.225C27.2883 25.0134 26.7424 25.4462 26.0039 25.4462Z" fill="#E11F93"/>
<path d="M29.913 25.3832C29.8428 25.1726 29.7656 24.941 29.6814 24.7164H28.4673C28.383 24.941 28.3058 25.1726 28.2357 25.3832H27.5128C27.8853 24.3315 28.2686 23.2719 28.748 22.2811H29.4077C29.8922 23.2823 30.2982 24.3279 30.6499 25.3832H29.913ZM29.0779 22.9899C28.9457 23.3863 28.7731 23.7699 28.6287 24.162H29.52C29.376 23.771 29.2094 23.3847 29.0779 22.9899Z" fill="#E11F93"/>
<path d="M33.036 22.4987C33.4247 22.7653 33.546 23.4097 33.2606 23.7971C33.1623 23.9304 33.0149 24.0427 32.8254 24.1199C33.0811 24.4324 33.3806 24.9494 33.5975 25.3832H32.8184C32.6014 25.0034 32.3604 24.5475 32.0955 24.2533H31.7516V25.3832H31.0498V22.3302C31.2042 22.3022 31.3586 22.2811 31.52 22.2671C32.02 22.2254 32.601 22.2208 33.036 22.4987ZM31.871 22.8496C31.8288 22.8496 31.7938 22.8566 31.7587 22.8566V23.6988H31.9552C32.4627 23.6988 32.6921 23.5942 32.6921 23.2637C32.6921 22.866 32.18 22.7878 31.871 22.8496Z" fill="#E11F93"/>
<path d="M36.7488 23.8322C36.7488 24.3655 36.5734 24.7656 36.2646 25.0323C35.6752 25.5413 34.7496 25.474 34.0258 25.3481V22.3302C34.7551 22.2034 35.6447 22.1399 36.2646 22.625C36.5734 22.8777 36.7488 23.2707 36.7488 23.8322ZM34.7276 24.8147C34.7978 24.8147 34.8679 24.8217 34.9943 24.8217C35.6137 24.8217 36.026 24.4572 36.026 23.8251C36.026 23.1795 35.7172 22.8356 35.0153 22.8356C34.9171 22.8356 34.8118 22.8356 34.7276 22.8496V24.8147Z" fill="#E11F93"/>
<path d="M38.0124 22.288H37.3106V25.3901H38.0124V22.288Z" fill="#E11F93"/>
<path d="M40.7987 25.3832C40.7285 25.1726 40.6514 24.941 40.5671 24.7164H39.353C39.2688 24.941 39.1916 25.1726 39.1214 25.3832H38.4055C38.778 24.3315 39.1613 23.2719 39.6407 22.2811H40.3004C40.7849 23.2823 41.1909 24.3279 41.5427 25.3832H40.7987ZM39.9636 22.9899C39.8315 23.3861 39.6588 23.7701 39.5144 24.162H40.3987C40.2548 23.7715 40.0951 23.3845 39.9636 22.9899Z" fill="#E11F93"/>
<path d="M44.027 25.3833C43.6193 24.6664 43.1615 23.9797 42.6303 23.348V25.3763H41.9425V22.2742H42.511C42.8939 22.6571 43.4915 23.4463 43.9217 24.106V22.2742H44.6165V25.3763H44.027V25.3833Z" fill="#E11F93"/>
<path d="M24.2775 16.6034L17.6663 20.295H30.8957L24.2775 16.6034Z" fill="#E45DA1"/>
<path d="M27.0915 18.0701L32.1096 14.7855H41.2053L44.6162 12.5537H30.4322L24.2775 16.6034L29.8918 20.2949H32.7833L40.3982 15.3119H32.2921L28.8882 17.5367H35.8363L35.0292 18.0701H27.0915Z" fill="#E11F93"/>
<path d="M21.47 18.0701L16.4519 14.7855H7.3492L3.94533 12.5537H18.1293L24.2775 16.6034L18.6697 20.2949H15.7781L8.1563 15.3119H16.2694L19.6733 17.5367H12.7252L13.5323 18.0701H21.47Z" fill="#626A75"/>
<path d="M20.6143 38.2031C20.6143 38.8923 20.0704 39.3311 19.0811 39.3311C18.1797 39.3311 17.333 38.9146 17.333 37.9395H16.3955C16.3955 39.3373 17.81 40.0977 19.0811 40.0977C20.5928 40.0977 21.5615 39.3485 21.5615 38.1934C21.5615 37.081 20.8398 36.4609 19.2275 36.0059C18.073 35.6851 17.5625 35.3178 17.5625 34.7168C17.5625 34.049 18.0341 33.5645 19.0371 33.5645C20.0933 33.5645 20.6045 34.1326 20.6045 34.9414H21.542C21.542 33.6042 20.2835 32.793 19.0371 32.793C17.5908 32.793 16.6201 33.6105 16.6201 34.7266C16.6201 35.8321 17.514 36.4081 18.9248 36.8262C20.2846 37.2222 20.6143 37.5396 20.6143 38.2031Z" fill="black"/>
<path fill-rule="evenodd" clip-rule="evenodd" d="M25.3408 40.0977C25.6039 40.0977 25.8513 40.0688 26.0831 40.0111L27.582 41.2012L28.2168 40.6152L26.9517 39.6134C27.7354 39.0551 28.1924 38.0341 28.1924 36.6699C28.1924 34.8163 27.4416 32.793 25.3311 32.793C23.1405 32.793 22.4746 34.8331 22.4746 36.6699C22.4746 38.8153 23.6754 40.0977 25.3408 40.0977ZM27.2598 36.6699C27.2598 35.3402 26.9719 33.5938 25.3311 33.5938C23.6575 33.5938 23.4072 35.3619 23.4072 36.6699C23.4072 38.3621 24.178 39.3018 25.3408 39.3018C26.5778 39.3018 27.2598 38.35 27.2598 36.6699Z" fill="black"/>
<path d="M33.959 39.2334V40H29.6475V32.8906H30.5898V39.2334H33.959Z" fill="black"/>
</svg>
