<svg width="50" height="50" viewBox="0 0 50 50" fill="none" xmlns="http://www.w3.org/2000/svg">
<path d="M14.0384 20.8121V15.9727H16.6679V31.047H14.111L13.9659 30.2605C11.397 31.1868 8.155 31.818 7.75664 27.8938C7.59935 26.3127 7.59935 24.7197 7.75664 23.1385C8.11614 19.6439 11.5746 19.2627 14.0384 20.8121ZM10.2918 25.6479C10.3411 26.8771 10.5206 28.8614 12.2032 28.7059C13.1208 28.684 13.7156 28.1828 13.7918 27.3122C13.8934 26.1378 13.8934 24.9567 13.7918 23.7823C13.712 22.8642 13.1063 22.3448 12.1307 22.3594C10.3011 22.2344 10.3838 24.3887 10.2918 25.6479Z" fill="#7E7E7E"/>
<path d="M27.5922 21.1596L25.9963 22.5898C25.0752 22.4576 21.899 21.4022 21.9016 23.1787C21.8072 25.2946 27.5751 23.6029 27.915 26.9684C28.1 28.3035 27.7663 29.4704 26.6238 30.2898C24.542 31.7822 20.6974 31.4713 18.7534 29.5984L20.1244 28.1352C21.1868 28.3094 25.2701 29.7428 25.2238 27.6048C25.196 26.3187 22.9002 26.5783 22.0176 26.4563C20.5669 26.2551 19.555 25.3918 19.3374 24.2103C19.04 22.5935 19.5767 21.3022 20.8679 20.5304C22.7974 19.3672 25.6627 19.6013 27.5922 21.1596Z" fill="#7F7F7F"/>
<path d="M30.9978 33.8161V31.3762H42.3608L42.1251 33.9807C42.1251 33.9807 34.5734 33.8161 30.9978 33.8161Z" fill="#02D1AD"/>
</svg>
