<svg width="50" height="50" viewBox="0 0 50 50" fill="none" xmlns="http://www.w3.org/2000/svg">
<rect width="50" height="50" fill="#4B4F53"/>
<path fill-rule="evenodd" clip-rule="evenodd" d="M16.8282 29.8H18.816V20.1H16.8282V29.8Z" fill="white"/>
<path fill-rule="evenodd" clip-rule="evenodd" d="M23.0637 26.8514C23.0637 27.7988 23.5167 28.3527 24.9409 28.3527C25.4912 28.3527 26.0578 28.309 26.6078 28.2362V25.2915H28.5337V29.5627C27.401 29.8542 26.0578 30 24.9246 30C22.287 30 21.0245 28.9941 21.0245 27.07V22.9298C21.0245 20.9329 22.3194 20 25.1191 20C25.9927 20 27.2391 20.0874 28.2101 20.3206L27.9834 21.9241C26.9961 21.7347 26.0092 21.6616 24.957 21.6616C23.5329 21.6616 23.0637 22.1865 23.0637 23.1778V26.8514Z" fill="white"/>
<path fill-rule="evenodd" clip-rule="evenodd" d="M30.8528 29.8H32.8405V20.1H30.8528V29.8Z" fill="white"/>
<path fill-rule="evenodd" clip-rule="evenodd" d="M35.4908 26.9V20.1H43L35.4908 26.9Z" fill="#84C361"/>
<path fill-rule="evenodd" clip-rule="evenodd" d="M10.9709 20.1H7V21.7233L10.7626 21.7165C12.1236 21.7165 12.4918 22.2117 12.4918 23.1439V26.7559C12.4918 27.688 12.1236 28.1834 10.7626 28.1834H9.01741V22.6322L7 24.4674V29.8H10.9709C13.5968 29.8 14.5092 28.5765 14.5092 27.1928V22.7069C14.5092 21.3087 13.5968 20.1 10.9709 20.1Z" fill="white"/>
</svg>
