<svg width="50" height="50" viewBox="0 0 50 50" fill="none" xmlns="http://www.w3.org/2000/svg">
<path fill-rule="evenodd" clip-rule="evenodd" d="M12.8638 35.881V44H15.418C17.7692 44 19.1969 42.0024 19.1969 39.902C19.1969 37.7376 17.6445 35.881 15.2897 35.881H12.8638ZM15.4413 42.5954H14.5083V37.2856H15.4413C16.8941 37.2856 17.5524 38.6867 17.5524 39.8965C17.5524 41.0939 16.942 42.5954 15.4413 42.5954Z" fill="#001E50"/>
<path fill-rule="evenodd" clip-rule="evenodd" d="M23.3359 44V41.1798H24.2515C25.8479 41.1798 26.9806 39.9811 26.9806 38.4809C26.9806 36.9801 25.8298 35.881 24.2106 35.881H21.6914V44H23.3359ZM24.1698 39.7753H23.3359V37.2856H24.1115C24.8746 37.2856 25.3478 37.8254 25.3478 38.5249C25.3478 39.1843 24.9105 39.7753 24.1698 39.7753Z" fill="#001E50"/>
<path d="M29.3643 44V35.881H30.6064L33.0965 40.0837L35.6216 35.881H36.8638V44H35.2193L35.2659 39.0152L33.324 42.2539H32.8983L30.9622 39.0152L31.0088 44H29.3643Z" fill="#001E50"/>
<path fill-rule="evenodd" clip-rule="evenodd" d="M25 6C30.5837 6 35.3757 9.38245 37.4301 14.2058L37.4376 14.2101L37.4343 14.2157C38.1205 15.8302 38.5 17.606 38.5 19.4701C38.5 26.9094 32.4558 32.9402 25 32.9402C17.5442 32.9402 11.5 26.9094 11.5 19.4701C11.5 12.0308 17.5442 6 25 6ZM25 31.8331C31.8199 31.8331 37.375 26.3124 37.375 19.4701C37.375 18.0644 37.1405 16.7145 36.7088 15.4567L28.68 29.1899L24.9756 21.6844H24.6648L21.1383 29.2761L13.3502 15.2887C12.8809 16.5939 12.625 18.0016 12.625 19.4701C12.625 26.3124 18.1801 31.8331 25 31.8331ZM28.82 25.2503L35.7661 13.369C34.7798 11.6358 33.3863 10.1652 31.7169 9.08551L26.1173 18.9165H23.5077L18.0931 9.21089C16.4993 10.2837 15.3158 11.4636 14.3661 13.1424L20.9868 25.1641L23.4603 19.8392H26.1494L28.82 25.2503ZM19.7171 8.28767L24.6173 17.0713H25.0077L29.9925 8.15504C28.4644 7.48111 26.7751 7.10713 25 7.10713C23.1117 7.10713 21.3204 7.53035 19.7171 8.28767Z" fill="#001E50"/>
</svg>
