<svg width="50" height="50" viewBox="0 0 50 50" fill="none" xmlns="http://www.w3.org/2000/svg">
<rect width="50" height="50" fill="#001E50"/>
<path fill-rule="evenodd" clip-rule="evenodd" d="M13.2627 35.3083V43H15.6278C17.8048 43 19.1268 41.1075 19.1268 39.1176C19.1268 37.0672 17.6894 35.3083 15.509 35.3083H13.2627ZM15.6494 41.6694H14.7854V36.639H15.6494C16.9945 36.639 17.6041 37.9663 17.6041 39.1124C17.6041 40.2468 17.0389 41.6694 15.6494 41.6694Z" fill="white"/>
<path fill-rule="evenodd" clip-rule="evenodd" d="M22.9592 43V40.3283H23.8069C25.2851 40.3283 26.3339 39.1926 26.3339 37.7713C26.3339 36.3495 25.2683 35.3083 23.7691 35.3083H21.4365V43H22.9592ZM23.7313 38.9976H22.9592V36.639H23.6773C24.3839 36.639 24.822 37.1504 24.822 37.8131C24.822 38.4377 24.4172 38.9976 23.7313 38.9976Z" fill="white"/>
<path d="M28.541 43V35.3083H29.6912L31.9968 39.2898L34.3348 35.3083H35.485V43H33.9623L34.0055 38.2775L32.2074 41.3458H31.8132L30.0205 38.2775L30.0637 43H28.541Z" fill="white"/>
<path fill-rule="evenodd" clip-rule="evenodd" d="M24.5 7C29.6701 7 34.1072 10.2044 36.0094 14.774L36.0163 14.778L36.0133 14.7833C36.6486 16.3129 37 17.9951 37 19.7612C37 26.8089 31.4036 32.5223 24.5 32.5223C17.5964 32.5223 12 26.8089 12 19.7612C12 12.7134 17.5964 7 24.5 7ZM24.5 31.4734C30.8148 31.4734 35.9583 26.2434 35.9583 19.7612C35.9583 18.4294 35.7412 17.1505 35.3415 15.959L27.9074 28.9694L24.4774 21.8589H24.1896L20.9243 29.051L13.7132 15.7998C13.2786 17.0364 13.0417 18.3699 13.0417 19.7612C13.0417 26.2434 18.1852 31.4734 24.5 31.4734ZM28.0371 25.2371L34.4687 13.9812C33.5553 12.3392 32.2651 10.946 30.7193 9.92312L25.5345 19.2367H23.1183L18.1047 10.0419C16.629 11.0582 15.5332 12.176 14.6538 13.7664L20.784 25.1554L23.0743 20.1108H25.5643L28.0371 25.2371ZM19.6084 9.16727L24.1457 17.4886H24.5071L29.1226 9.04162C27.7078 8.40316 26.1436 8.04886 24.5 8.04886C22.7516 8.04886 21.0929 8.44981 19.6084 9.16727Z" fill="white"/>
</svg>
