<svg width="50" height="50" viewBox="0 0 50 50" fill="none" xmlns="http://www.w3.org/2000/svg">
<path d="M25.5394 32.2566C26.6633 34.5953 28.3848 35.8881 30.9386 35.5431C33.3359 35.2271 34.6768 33.6547 35.2601 31.2689C37.1915 32.1949 38.9556 32.0133 40.3499 30.2957C40.8529 29.7288 41.1677 29.0142 41.2495 28.2538C41.3312 27.4935 41.1757 26.7262 40.8052 26.0614C39.8804 24.2457 38.3154 23.5993 36.3058 23.908C37.4358 21.249 36.675 18.0651 34.0683 16.6337C31.778 15.376 29.1466 16.1945 27.4209 18.0396C26.0978 19.5212 24.7818 21.0173 23.4124 22.5643L24.5435 23.632L20.4816 24.5217L20.8871 20.302L22.0573 21.3079L23.8357 19.2888C25.6108 17.2853 27.2323 14.9374 29.9846 14.282C32.8183 13.6072 35.8219 14.8199 37.4501 17.2223C38.4371 18.6786 38.7138 20.3056 38.7138 22.0233C40.5029 22.8262 42.0361 23.9041 42.7182 25.8429C43.5596 28.2349 42.7563 31.0012 40.7216 32.5291C39.7278 33.2753 38.5246 33.6739 37.2911 33.6656C36.7448 33.6017 36.1845 33.8988 35.9217 34.3919C35.376 35.2357 34.6559 35.9472 33.812 36.4764C32.1243 37.5347 29.9959 37.7841 28.1171 37.1436C27.1778 36.8234 26.3185 36.2969 25.5999 35.6012C25.3163 35.2538 24.8102 35.1323 24.4048 35.3143C23.2682 35.7099 21.9836 35.5971 20.9298 35.0093C21.3175 34.5735 21.6411 34.1704 21.9968 33.8036C22.1246 33.6765 22.3023 33.6058 22.4806 33.6112C23.7681 33.8109 24.7213 33.2807 25.5394 32.2566Z" fill="#3673BE"/>
<path d="M27.4815 13.8671L26.2686 15.2434C24.2305 13.0028 21.8226 12.1967 19.1194 13.6529C16.4163 15.1091 15.6515 17.5676 16.3024 20.5526C13.5637 20.7523 11.611 22.0705 10.5938 24.6525C9.5929 27.3484 10.5764 30.5067 12.9856 32.1C15.3753 33.6804 18.6151 33.3232 20.6204 31.2835C22.7545 28.9957 24.7747 26.6244 26.8732 24.2603L25.7137 23.1454L29.772 22.263C29.6298 23.672 29.4982 25.0011 29.3523 26.4827L28.1964 25.4696C26.0027 28.0205 23.8937 30.7104 21.4491 33.0302C19.1159 35.2526 15.431 35.6122 12.5073 33.9998C9.58365 32.3874 7.92262 28.9921 8.42057 25.7964C8.91852 22.6007 10.6827 20.3492 13.6668 19.1981C14.0266 19.1147 14.2943 18.7535 14.2751 18.3774C14.5561 14.0414 17.7963 10.9947 22.0396 11.1145C24.159 11.1701 26.1731 12.2035 27.4815 13.8671Z" fill="#06BD37"/>
</svg>
