<svg width="50" height="50" viewBox="0 0 50 50" fill="none" xmlns="http://www.w3.org/2000/svg">
<path d="M25.3177 26.0728V35.1363C25.3177 35.1363 33.1351 34.0966 33.4844 26.0728H25.3177Z" fill="#5BBD7B"/>
<path d="M25.3177 26.0728V17.0093L16.9209 19.5728L17.2701 26.0728H25.3177Z" fill="#5BBD7B"/>
<path fill-rule="evenodd" clip-rule="evenodd" d="M43 25C43 34.9411 34.9411 43 25 43C15.0589 43 7 34.9411 7 25C7 15.0589 15.0589 7 25 7C34.9411 7 43 15.0589 43 25ZM25.4605 14.8823L35.3732 18.3347C37.4191 36.6462 25.4894 37.0099 25.0073 37.0246C24.9975 37.0249 24.9923 37.0252 24.9923 37.0252C12.3494 34.3585 15.3177 18.1442 15.3177 18.1442L25.4605 14.8823Z" fill="#5BBD7B"/>
</svg>
