<svg width="50" height="50" viewBox="0 0 50 50" fill="none" xmlns="http://www.w3.org/2000/svg">
<rect width="50" height="50" fill="#F0E24C"/>
<path fill-rule="evenodd" clip-rule="evenodd" d="M12.7168 13.4209C15.9555 13.4209 18.7978 15.8233 18.7978 19.2104C18.7978 22.5751 15.9797 24.9998 12.7495 24.9998H8.07812V13.4209H12.7168ZM12.684 22.7365H10.6515V15.6678H12.684C14.6988 15.6678 16.1589 17.1463 16.1589 19.194C16.1589 21.2245 14.7827 22.7365 12.684 22.7365Z" fill="black"/>
<path d="M22.9924 24.9998H20.4354V13.4209L26.3599 22.2532L32.286 13.4209V24.9998H29.7127V19.8262L26.3599 24.9987L22.9924 19.8045V24.9998Z" fill="black"/>
<path d="M33.8819 23.1958L39.39 15.635H34.2097V13.4209H42.815V15.2086L37.2793 22.7857H42.6674V24.9998H33.8819V23.1958Z" fill="black"/>
<path fill-rule="evenodd" clip-rule="evenodd" d="M23.9989 29.6314C25.4152 29.6314 26.6549 31.0708 26.6549 33.1051C26.6549 35.125 25.4248 36.5788 24.0132 36.5788H21.9729V29.6314H23.9989ZM23.9846 35.2208H23.0968V30.9796H23.9846C24.8709 30.9796 25.5023 31.8599 25.5023 33.0953C25.5023 34.319 24.9045 35.2208 23.9846 35.2208Z" fill="black"/>
<path fill-rule="evenodd" clip-rule="evenodd" d="M29.5393 29.6314C30.3154 29.6314 31.0642 30.2826 31.0642 31.4519C31.0642 32.0544 30.8299 32.5754 30.4513 32.8648C30.9296 33.1868 31.236 33.8204 31.236 34.5615C31.236 35.8688 30.385 36.5788 29.525 36.5788H27.3701V29.6314H29.5393ZM29.4176 35.3783H28.4798V33.5479H29.4176C29.8018 33.5479 30.1192 33.9089 30.1192 34.4631C30.1192 35.0123 29.8048 35.3783 29.4176 35.3783ZM28.4798 32.3769H29.3246C30.1058 32.3769 30.1423 30.832 29.3246 30.832H28.4798V32.3769Z" fill="black"/>
</svg>
