<svg width="50" height="50" viewBox="0 0 50 50" fill="none" xmlns="http://www.w3.org/2000/svg">
<path d="M47 25C47 37.1503 36.6737 47 24.5234 47C12.3732 47 3 37.1503 3 25C3 12.8497 12.3732 3 24.5234 3C36.6737 3 47 12.8497 47 25Z" fill="#1774B9"/>
<path d="M35.0391 9L35.1579 39.906C35.1889 40.3348 35.0185 40.5414 34.5639 40.5362C33.5308 40.5207 32.4977 40.5259 31.4646 40.5362C31.0978 40.5362 30.9842 40.3813 30.9894 40.03C31.0049 39.0899 30.9945 38.1445 30.9945 37.1631C29.5 38.5 26.5765 41.4411 22.0737 40.9082C17.9155 40.4226 14.8007 36.755 14.0362 33.3405C13.2768 29.957 13.2665 26.62 14.6509 23.407C16.0146 20.2353 18.4165 18.1948 21.8516 17.5646C26.1735 16.7682 29 18.5 30.7621 20.6847V9H35.0236H35.0391ZM18.0085 29.3475C17.789 32.7079 19.7495 36.4926 23.2669 37.1269C26.5574 37.721 29.6257 35.7167 30.4573 32.4003C31.1133 29.7865 30.9842 27.2037 29.8271 24.719C26.332 17.187 17.8559 23.0475 18.0085 29.3526V29.3475Z" fill="white"/>
</svg>
