<svg width="50" height="50" viewBox="0 0 50 50" fill="none" xmlns="http://www.w3.org/2000/svg">
<path d="M16.2646 43L16.2744 42.2334C18.4245 42.2334 20.0391 41.8364 20.0391 39.2256C20.0391 36.9519 18.1789 36.6621 16.2354 36.6621V35.8906C18.6028 35.8906 20.9717 36.5024 20.9717 39.2354C20.9717 42.3076 18.8102 43 16.2646 43ZM16.7676 35.8906V43H15.8252V35.8906H16.7676Z" fill="black"/>
<path d="M27.8564 35.8906V43H26.9092L23.3301 37.5166V43H22.3877V35.8906H23.3301L26.9238 41.3887V35.8906H27.8564Z" fill="black"/>
<path d="M33.3154 41.2031C33.3154 40.5396 32.9857 40.2222 31.626 39.8262C30.2152 39.4082 29.3213 38.8321 29.3213 37.7266C29.3213 36.6105 30.292 35.793 31.7383 35.793C32.9741 35.793 34.2432 36.5767 34.2432 37.9414H33.3057C33.3057 37.1326 32.7944 36.5645 31.7383 36.5645C30.7352 36.5645 30.2637 37.049 30.2637 37.7168C30.2637 38.3178 30.7741 38.6851 31.9287 39.0059C33.541 39.4609 34.2627 40.081 34.2627 41.1934C34.2627 42.3485 33.294 43.0977 31.7822 43.0977C30.517 43.0977 29.0967 42.358 29.0967 40.9395H30.0342C30.0342 41.9146 30.8809 42.3311 31.7822 42.3311C32.7715 42.3311 33.3154 41.8923 33.3154 41.2031Z" fill="black"/>
<path d="M15.1976 6.88889C15.1976 5.2934 16.4515 4 17.9982 4H27.2205C27.5919 4 27.948 4.15218 28.2106 4.42307L34.392 10.7992C34.6546 11.07 34.8021 11.4374 34.8021 11.8205V27.1111C34.8021 28.7066 33.5482 30 32.0015 30H17.9982C16.4515 30 15.1976 28.7066 15.1976 27.1111V6.88889Z" fill="white"/>
<path fill-rule="evenodd" clip-rule="evenodd" d="M27.2205 4C27.5919 4 27.948 4.15218 28.2106 4.42307L34.392 10.7992C34.6546 11.07 34.8021 11.4374 34.8021 11.8205V27.1111C34.8021 28.7066 33.5482 30 32.0015 30H17.9982C16.4515 30 15.1976 28.7066 15.1976 27.1111V6.88889C15.1976 5.2934 16.4515 4 17.9982 4H27.2205ZM27.1003 9.05556C27.1003 10.651 28.3542 11.9444 29.901 11.9444H34.1019V27.1111C34.1019 28.3077 33.1615 29.2778 32.0015 29.2778H17.9982C16.8382 29.2778 15.8977 28.3077 15.8977 27.1111V6.88889C15.8977 5.69227 16.8382 4.72222 17.9982 4.72222H27.1003V9.05556ZM27.8005 9.05556C27.8005 10.2522 28.7409 11.2222 29.901 11.2222H33.8119L27.8005 5.02141V9.05556Z" fill="#AEB7CC"/>
<path d="M35.5157 25.9073C36.3323 25.9064 36.9991 25.2132 37 24.4027V16.8193C36.9991 16.0088 36.3323 15.3156 35.5157 15.3147H14.4843C13.6677 15.3156 13.0009 16.0088 13 16.8193V24.4027C13.0009 25.2132 13.6677 25.9064 14.4843 25.9073H35.5157ZM29.2437 17.6128L30.7226 21.9971L32.1536 17.6128H33.4046L31.312 23.5373H30.0524L27.9637 17.6128H29.2437ZM24.8581 20.9422C23.9563 20.7157 22.9784 20.2154 22.9886 19.1643C22.9884 18.0188 24.1222 17.4852 25.1215 17.5111C26.2236 17.5111 27.3645 18.0516 27.3616 19.3052L26.1818 19.3576C26.1292 18.7968 25.6564 18.4607 25.1096 18.5011C24.7452 18.48 24.1062 18.6117 24.117 19.083C24.1183 19.6555 24.9693 19.7412 25.3766 19.8386C26.4359 20.058 27.5593 20.5569 27.5287 21.8217C27.4979 23.0977 26.3216 23.6751 25.1891 23.6408C23.9359 23.6408 22.8614 22.9436 22.7775 21.6082L23.9256 21.4953C24.0008 22.1566 24.5199 22.6677 25.2011 22.6308C25.7069 22.6681 26.34 22.3859 26.3492 21.8145C26.3657 21.1364 25.3256 21.06 24.8581 20.9422ZM19.6672 17.5116C20.765 17.4645 21.7523 18.1753 22.0072 19.245L20.8392 19.5271C20.7301 18.9457 20.2019 18.5101 19.6075 18.5331C18.4918 18.4969 18.1485 19.6224 18.1485 20.5375C18.1485 21.4514 18.441 22.6483 19.5834 22.6144C20.2905 22.6285 20.7703 22.0084 20.8788 21.3579L22.0228 21.7255C21.7687 22.8735 20.7811 23.6848 19.5952 23.6362C17.9004 23.6894 16.9327 22.1699 16.9327 20.6259C16.9329 19.0232 17.8894 17.4395 19.6672 17.5116Z" fill="#A36BAE"/>
</svg>
