<svg width="50" height="50" viewBox="0 0 50 50" fill="none" xmlns="http://www.w3.org/2000/svg">
<path fill-rule="evenodd" clip-rule="evenodd" d="M27.6044 16.5559H24.1865V13.5872H27.6044V16.5559ZM19.5478 20.2994H16.2112V17.3306H19.5478V20.2994ZM23.6168 20.2994H20.1988V17.3306H23.6168V20.2994ZM27.6044 20.2994H24.1865V17.3306H27.6044V20.2994ZM15.5602 24.0429H12.1422V21.0741H15.5602V24.0429ZM19.5478 24.0429H16.2112V21.0741H19.5478V24.0429ZM23.6168 24.0429H20.1988V21.0741H23.6168V24.0429ZM27.6044 24.0429H24.1865V21.0741H27.6044V24.0429ZM31.6734 24.0429H28.2555V21.0741H31.6734V24.0429Z" fill="#0096F4"/>
<path d="M42.5784 22.7213C42.5784 22.7213 41.1135 21.3378 38.1025 21.8261C37.777 19.4661 35.2542 18.0826 35.2542 18.0826C35.2542 18.0826 32.8941 20.9309 34.6031 24.1047C34.1148 24.3489 33.301 24.6744 32.0803 24.6744H9.70078C9.29388 26.2206 9.29388 36.4745 20.5244 36.4745C28.581 36.4745 34.6031 32.731 37.4514 25.8951C41.6832 26.2206 42.5784 22.7213 42.5784 22.7213Z" fill="#0096F4"/>
</svg>
