<svg width="50" height="50" viewBox="0 0 50 50" fill="none" xmlns="http://www.w3.org/2000/svg">
<path d="M20.7227 17.2717H23.2086ZM23.623 12.0377H26.109Z" fill="black"/>
<path fill-rule="evenodd" clip-rule="evenodd" d="M26.109 13.0754H23.623V11H26.109V13.0754ZM20.2491 15.6924H17.8223V13.617H20.2491V15.6924ZM23.2086 15.6924H20.7227V13.617H23.2086V15.6924ZM26.109 15.6924H23.623V13.617H26.109V15.6924ZM17.3488 18.3093H14.8628V16.234H17.3488V18.3093ZM20.2491 18.3093H17.8223V16.234H20.2491V18.3093ZM23.2086 18.3093H20.7227V17.2717V16.234H23.2086V17.2717V18.3093ZM26.109 18.3093H23.623V16.234H26.109V18.3093ZM29.0685 18.3093H26.5825V16.234H29.0685V18.3093Z" fill="#0096F4"/>
<path d="M37 17.3854C37 17.3854 35.9346 16.4183 33.7445 16.7596C33.5078 15.1098 31.6729 14.1427 31.6729 14.1427C31.6729 14.1427 29.9563 16.1338 31.1993 18.3526C30.8442 18.5233 30.2523 18.7508 29.3644 18.7508H13.0871C12.7911 19.8317 12.7911 27 20.9594 27C26.8193 27 31.1993 24.383 33.271 19.6042C36.3489 19.8317 37 17.3854 37 17.3854Z" fill="#0096F4"/>
<path d="M16.0649 38.7964V39.4863H12.6768V38.7964H16.0649ZM12.8481 33.0879V39.4863H12V33.0879H12.8481ZM15.6167 35.8389V36.5288H12.6768V35.8389H15.6167ZM16.021 33.0879V33.7822H12.6768V33.0879H16.021Z" fill="black"/>
<path d="M17.8052 39.4863H16.9922V34.7314H17.7612L17.8052 39.4863ZM17.6118 36.9287L17.2734 36.9155C17.2835 35.7957 17.9685 34.6436 19.207 34.6436C20.1434 34.6436 20.7319 35.1104 20.7319 36.3706V39.4863H19.9146V36.3618C19.9146 35.6048 19.574 35.3291 18.9653 35.3291C18.118 35.3291 17.6118 36.157 17.6118 36.9287Z" fill="black"/>
<path d="M25.0474 34.7314H25.7856V39.3853C25.7856 40.6405 24.9625 41.3628 23.7729 41.3628C23.118 41.3628 22.3955 41.0863 22.0107 40.5366L22.437 40.0532C22.8377 40.5364 23.2861 40.6948 23.7114 40.6948C24.4835 40.6948 24.9727 40.2539 24.9727 39.4248L25.0474 34.7314ZM21.7734 37.0693C21.7734 35.5966 22.5013 34.6436 23.6499 34.6436C25.1071 34.6436 25.5659 36.0776 25.5659 37.3154C25.4379 38.6999 24.858 39.5742 23.6411 39.5742C22.3131 39.5742 21.7734 38.2 21.7734 37.0693ZM22.5864 37.0693C22.5864 37.8821 22.8474 38.8843 23.8389 38.8843C24.6493 38.8843 24.9954 38.3057 25.1704 37.6494C25.1704 36.6941 25.166 35.3291 23.8477 35.3291C22.9841 35.3291 22.5864 36.0925 22.5864 37.0693Z" fill="black"/>
<path d="M27.9038 34.7314V39.4863H27.0864V34.7314H27.9038ZM27.0249 33.4702C27.0249 33.2044 27.19 33 27.5039 33C27.817 33 27.9873 33.2086 27.9873 33.4702C27.9873 33.718 27.8198 33.9272 27.5039 33.9272C27.1872 33.9272 27.0249 33.7219 27.0249 33.4702Z" fill="black"/>
<path d="M30.022 39.4863H29.209V34.7314H29.978L30.022 39.4863ZM29.8286 36.9287L29.4902 36.9155C29.5021 35.6005 30.2908 34.6436 31.4238 34.6436C32.4781 34.6436 32.9487 35.415 32.9487 36.3706V39.4863H32.1313V36.3618C32.1313 35.6048 31.7908 35.3291 31.1821 35.3291C30.3893 35.3291 29.8286 36.0541 29.8286 36.9287Z" fill="black"/>
<path d="M36.1567 39.5742C34.8425 39.5742 33.9727 38.6184 33.9727 37.2759C33.9727 36.0269 34.6007 34.6436 36.0513 34.6436C37.5501 34.6436 38.0068 36.0228 38.0068 37.3374H34.4561V36.6738H37.1938C37.1938 35.9826 36.8134 35.3115 36.0513 35.3115C35.0029 35.3115 34.79 36.4528 34.79 37.2759C34.79 38.1794 35.3213 38.9106 36.2007 38.9106C36.7749 38.9106 37.1543 38.6572 37.4531 38.2646L37.9453 38.6558C37.6388 39.1199 37.1042 39.5742 36.1567 39.5742Z" fill="black"/>
</svg>
