<svg width="50" height="50" viewBox="0 0 50 50" fill="none" xmlns="http://www.w3.org/2000/svg">
<path d="M8.33301 24.9999C8.33301 19.537 8.33301 14.074 8.33301 8.61103C8.33301 8.33325 8.33301 8.33325 8.61079 8.33325C19.5367 8.33325 30.4626 8.33325 41.3886 8.33325C41.6663 8.33325 41.6663 8.33325 41.6663 8.61103C41.6663 19.537 41.6663 30.4629 41.6663 41.3888C41.6663 41.574 41.6663 41.6666 41.3886 41.6666C30.4626 41.6666 19.5367 41.6666 8.61079 41.6666C8.33301 41.6666 8.33301 41.6666 8.33301 41.3888C8.33301 35.9258 8.33301 30.4629 8.33301 24.9999Z" fill="#D9FA00"/>
<path d="M23.1478 25.4629C23.1478 25.2777 23.1478 25.1851 23.1478 24.9999C23.1478 20.8333 23.1478 16.7592 23.1478 12.5925C23.1478 12.3147 23.1478 12.2222 23.5181 12.2222C24.5366 12.2222 25.5552 12.2222 26.4811 12.2222C26.7589 12.2222 26.7589 12.3147 26.7589 12.5925C26.7589 16.6666 26.7589 20.8333 26.7589 24.9073C26.7589 24.9999 26.7589 25.1851 26.7589 25.2777C26.9441 25.2777 26.9441 25.1851 27.0366 25.0925C28.6107 23.5185 30.1848 21.9444 31.7589 20.3703C31.9441 20.1851 32.0366 20.1851 32.2218 20.3703C32.9626 21.111 33.6107 21.8518 34.3515 22.4999C34.4441 22.5925 34.5367 22.6851 34.3515 22.8703C31.2033 26.0184 28.1478 29.074 24.9996 32.2222C24.907 32.3147 24.8144 32.3147 24.6292 32.2222C21.4811 29.074 18.4255 26.0184 15.2774 22.8703C15.0922 22.6851 15.1848 22.6851 15.2774 22.4999C16.0181 21.7592 16.7589 21.0184 17.4996 20.2777C17.6848 20.0925 17.7774 20.0925 17.87 20.2777C19.7218 22.037 21.3885 23.7036 23.1478 25.4629Z" fill="black"/>
<path d="M24.9996 34.074C29.0737 34.074 33.2404 34.074 37.3145 34.074C37.5922 34.074 37.6848 34.1666 37.6848 34.4444C37.6848 35.3703 37.6848 36.3888 37.6848 37.3147C37.6848 37.5925 37.5922 37.6851 37.3145 37.6851C35.1848 37.6851 33.1478 37.6851 31.0182 37.6851C24.9071 37.6851 18.7959 37.6851 12.6848 37.6851C12.2219 37.6851 12.3145 37.7777 12.3145 37.2222C12.3145 36.2962 12.3145 35.3703 12.3145 34.4444C12.3145 33.9814 12.2219 33.9814 12.7774 33.9814C16.8515 34.074 20.9256 34.074 24.9996 34.074Z" fill="black"/>
</svg>
