<svg width="50" height="50" viewBox="0 0 50 50" fill="none" xmlns="http://www.w3.org/2000/svg">
<path d="M30.5508 6.19485H30.7108C31.3108 6.03485 31.7908 6.31485 31.9908 6.67485H32.0708C32.6708 6.59485 33.2708 6.91485 33.4308 7.31485H33.6308C34.3508 7.27485 34.7108 7.71485 34.8308 8.07485H34.9908C35.6308 8.07485 35.9908 8.47485 36.1108 8.87485H36.3108C36.8275 8.93759 37.2679 9.36102 37.3508 9.87485C37.8968 9.87485 38.5108 10.4353 38.5108 10.9948C39.0852 10.9719 39.5908 11.5631 39.5908 12.1148H39.6708C40.2308 12.3548 40.5908 12.9149 40.5908 13.3148C41.0901 13.6477 41.5679 13.9901 41.5108 14.6749C42.0154 14.6749 42.3042 15.5114 42.2308 15.9149C42.8366 16.3187 42.6448 17.0364 43.1108 17.4749C43.5908 17.8749 43.6308 18.3549 43.4708 18.7549C43.8551 19.1391 44.182 19.7326 43.9108 20.2749C44.5108 20.9149 44.5108 21.4748 44.3108 21.8748C44.7158 22.2798 44.8422 22.8579 44.5108 23.3549C44.5401 23.393 44.5669 23.4331 44.5908 23.4749C44.9108 24.0349 44.5108 24.8349 44.5108 24.8349V24.8749C44.9108 25.4349 44.8308 26.1549 44.5108 26.4749C44.7987 26.9067 44.7518 27.604 44.3508 27.9549C44.5908 28.6749 44.3908 29.2748 44.0708 29.5548V29.6749C44.148 29.9093 44.151 30.1618 44.0794 30.3981C44.0079 30.6343 43.8652 30.8427 43.6708 30.9949C43.7861 31.5709 43.7074 32.187 43.1108 32.4748C43.2308 33.1549 42.9108 33.7149 42.5108 33.8749V33.9548C42.5108 34.5548 42.1108 35.1549 41.7108 35.2748V35.4748C41.7108 36.0749 41.3108 36.4748 40.8308 36.5948V36.6749C40.7264 37.0927 39.8308 37.7396 39.8308 37.8749C39.7108 38.4748 39.2708 38.9149 38.8308 38.9549V39.0349C38.5908 39.6348 38.1108 39.9949 37.7108 39.9949C37.259 40.8985 34.763 42.8745 33.8308 42.5949C33.373 43.1359 31.5855 44.0922 30.9108 43.7549V43.8749C30.7352 44.0855 30.4967 44.2341 30.2302 44.299C29.9638 44.3638 29.6835 44.3413 29.4308 44.2349L29.3108 44.2749C28.9466 44.6295 28.3598 44.7133 27.9108 44.4749L27.8308 44.5549C27.3508 44.9548 26.7108 44.9549 26.3508 44.6749L26.3108 44.7149C25.9441 44.9405 24.916 44.5271 24.7108 44.8349C24.0573 45.1365 23.7383 44.6749 23.1908 44.6749C22.6308 44.9949 21.9908 44.8349 21.7108 44.5149H21.6308C21.0708 44.6749 20.4308 44.4748 20.1508 44.1549C19.5508 44.3148 18.8708 44.0749 18.6708 43.7149H18.5108C18.264 43.7736 18.0052 43.7553 17.7691 43.6623C17.5331 43.5693 17.3312 43.4062 17.1908 43.1949H17.1508C16.5108 43.2349 15.9508 42.9149 15.7908 42.5149H15.7108C15.1108 42.5149 14.5908 42.1149 14.4308 41.7149H14.3108C13.7508 41.7149 13.3108 41.3148 13.1508 40.8749C13.0976 40.8802 13.044 40.8802 12.9908 40.8749C12.3508 40.6749 11.9908 40.2748 11.9508 39.7948H11.7908C11.5339 39.7534 11.2975 39.6295 11.1171 39.4419C10.9367 39.2543 10.8222 39.0132 10.7908 38.7549C10.4772 38.7549 10.2007 38.5865 10.0067 38.3395C9.84834 38.138 9.75867 37.891 9.75083 37.6349H9.71083C9.11084 37.3549 8.79083 36.7948 8.83083 36.3548C8.27219 36.3548 7.89336 35.5622 7.99083 35.0749L7.87084 34.9949C7.6488 34.8695 7.46927 34.6807 7.35524 34.4526C7.24122 34.2246 7.1979 33.9677 7.23083 33.7148C7.01892 33.1953 6.77856 32.6879 6.51083 32.1948C6.03084 31.7948 5.91084 31.1948 6.11083 30.7948L6.03084 30.6748C5.63084 30.3148 5.51083 29.6749 5.71083 29.2749C5.25303 29.2749 5.25352 27.9808 5.43084 27.7148L5.37084 27.6948L5.31084 27.6748C5.03084 27.1948 5.03084 26.5548 5.31084 26.1948C4.91084 25.5948 4.91084 24.8749 5.23084 24.5548C4.97805 24.0493 5.01438 23.2913 5.43084 22.8749C5.20508 22.3105 5.1667 21.7035 5.67084 21.2749L5.59084 21.0349C5.50066 20.8017 5.49105 20.5452 5.56354 20.306C5.63602 20.0668 5.78644 19.8587 5.99084 19.7149L6.91084 21.3148C7.11975 21.8372 7.24327 22.4514 6.67084 22.7949C6.96192 23.3043 7.09763 23.9114 6.59083 24.3549C6.90398 24.8246 7.02301 25.4951 6.55084 25.9149L6.67084 26.0348C7.0965 26.5456 6.55995 27.3383 6.87083 27.4748C7.27083 27.8748 7.23083 28.4349 6.99084 28.7549L7.11084 28.8749C7.47083 29.3148 7.51083 29.8748 7.31083 30.2748H7.43084C7.87084 30.6748 7.95084 31.1948 7.75084 31.5548L7.91084 31.6348C8.39084 32.0348 8.47083 32.5148 8.31084 32.9148C8.39084 32.9148 8.43084 32.9149 8.47084 32.9949C8.99084 33.2749 9.15084 33.7948 9.03084 34.1948L9.15084 34.2749C9.71083 34.5548 9.87084 35.0348 9.79083 35.4748C9.84411 35.4713 9.89756 35.4713 9.95084 35.4748C10.5108 35.7548 10.7508 36.1949 10.6708 36.6749H10.8308C11.3908 36.8749 11.6308 37.3549 11.6308 37.7548C12.1836 37.7548 12.6708 38.2328 12.6708 38.7948H12.8308C13.4308 38.8749 13.7508 39.2749 13.7908 39.7149H13.9508C14.5508 39.7149 14.9108 40.1148 14.9908 40.5149H15.1508C15.7508 40.5149 16.1108 40.8749 16.2308 41.3149L16.3908 41.1549C16.9908 41.1949 17.3908 41.4749 17.5508 41.8749L17.7108 41.8349C18.3108 41.7149 18.7508 41.9949 18.9108 42.3949L19.0708 42.3549C19.6308 42.1949 20.0708 42.4749 20.2708 42.8349C20.3358 42.8042 20.4026 42.7775 20.4708 42.7548C21.0708 42.5549 21.5108 42.7549 21.7508 43.1549C21.7898 43.1267 21.8298 43.1 21.8708 43.0749C22.2988 42.8773 24.2896 43.0876 24.5908 43.4748C24.6401 43.4176 24.6936 43.3641 24.7508 43.3148C25.2308 42.9949 25.7108 43.0749 26.0708 43.3949C26.108 43.3521 26.1481 43.312 26.1908 43.2749C26.6708 42.9149 27.1908 42.9549 27.5108 43.2349C27.5463 43.1783 27.5865 43.1248 27.6308 43.0749C28.1325 42.6568 28.8144 43.0913 29.0708 42.8349C29.4708 42.3949 29.9508 42.3549 30.3108 42.5949C30.3727 42.5235 30.4395 42.4567 30.5108 42.3949C30.8708 41.9949 31.3508 41.9549 31.7108 42.1149C32.0073 41.6632 32.4576 41.2855 33.0308 41.5149C33.3427 41.0608 33.701 40.6729 34.3108 40.7949L34.4308 40.6749C34.6308 40.1148 35.1508 39.9549 35.5508 39.9949L35.5908 39.8749C35.7259 39.5371 36.7108 39.0089 36.7108 38.9949C36.9108 38.3949 37.3908 38.1549 37.8308 38.1549V37.9949C37.9012 37.4671 39.1785 36.0032 39.7108 35.9549V35.7948C39.7108 35.3224 40.7242 33.63 41.1508 33.4748V33.3549C41.0708 32.6749 41.3908 32.2748 41.8308 32.1548C41.4774 31.739 41.8984 30.9358 42.3508 30.7549L42.3108 30.5949C42.1108 29.9949 42.3108 29.5948 42.7108 29.3948C42.7069 29.3416 42.7069 29.2881 42.7108 29.2348C42.4308 28.6748 42.5908 28.2748 42.9908 28.0348C42.9602 27.9836 42.9335 27.9301 42.9108 27.8748C42.6708 27.3148 42.8708 26.7948 43.2308 26.5548C42.9173 26.1046 42.7584 25.4882 43.2308 25.0749L43.1508 24.9549C42.7908 24.4349 42.9108 23.8749 43.2308 23.5949L43.0708 23.4749C42.6708 22.9549 42.6708 22.4748 42.9908 22.1549C42.9606 22.1173 42.9338 22.0772 42.9108 22.0349C42.5108 21.6349 42.4308 21.1149 42.6708 20.7549L42.5908 20.6749C42.1908 20.2748 42.1108 19.6749 42.3108 19.3149C42.2429 19.2915 42.1761 19.2648 42.1108 19.2349C41.7108 18.8349 41.5908 18.3549 41.7908 17.9949C41.4937 17.5491 40.9297 17.3276 41.1908 16.6749C41.1361 16.651 41.0827 16.6243 41.0308 16.5949C40.5108 16.2748 40.3108 15.7949 40.4308 15.3948L40.3108 15.3549C39.7508 15.0749 39.5108 14.6349 39.6308 14.1948H39.5108C38.8421 13.8828 39.009 13.373 38.6308 12.9948C37.9908 12.8348 37.6708 12.3948 37.7108 11.9548H37.5508C36.9108 11.8348 36.6708 11.4348 36.6708 11.0348H36.5108C35.9108 10.8748 35.5908 10.5148 35.5508 10.0748H35.3108C34.7108 10.1148 34.3508 9.71485 34.2708 9.31485H34.1108C33.5108 9.35485 33.1108 9.07485 32.9908 8.67485H32.9108C32.2708 8.71485 31.7908 8.43485 31.6708 8.03485L31.5108 8.07485C30.9108 8.19485 30.5108 7.95485 30.3508 7.55485L30.1108 7.59485C29.5508 7.79485 29.0708 7.59485 28.9108 7.19485C28.4535 7.30918 27.4667 6.9176 27.3508 6.99485C26.7908 7.23485 26.2708 7.07485 25.9908 6.79485C25.5257 7.0274 24.965 7.19588 24.5908 6.71485C24.5399 6.75792 24.4865 6.79799 24.4308 6.83485C23.9508 7.19485 23.4308 7.07485 23.1108 6.83485L22.9908 6.91485C22.4926 7.41306 20.8946 7.62674 20.2708 7.31485L20.1508 7.43485C19.7508 7.91485 19.3108 7.95485 18.9108 7.75485L18.7908 7.87485C18.3908 8.39485 17.9108 8.47485 17.5108 8.27485L17.4308 8.43485C17.1108 8.95485 16.6308 9.03485 16.2308 8.87485C16.1955 8.94422 16.1554 9.01104 16.1108 9.07485C15.8308 9.63485 15.3108 9.79485 14.9108 9.67485C14.9108 10.3127 13.7108 10.2456 13.7108 10.6748C13.509 11.1457 12.5908 11.3681 12.5908 11.5949C12.4212 12.1038 11.5508 12.3638 11.5508 12.5948C11.4708 13.2348 11.0708 13.5148 10.6308 13.5148V13.7149C10.5508 14.2749 10.2308 14.6749 9.75083 14.6749C9.75083 15.1948 9.67532 15.8163 9.03084 15.8749C9.03084 16.4392 8.9065 17.0182 8.31084 17.2348L8.35084 17.3949C8.42239 17.9315 7.71724 18.4541 7.79083 18.6749C7.91083 19.3549 7.67084 19.7549 7.27083 19.9149L7.35084 20.1149C7.51084 20.6749 7.31084 21.0749 6.91084 21.3148C6.59553 20.7143 6.24961 20.1224 5.95084 19.5149C5.89242 19.2696 5.91547 19.012 6.01652 18.7811C6.15563 18.4631 6.53662 18.3638 6.47084 18.0349C6.38622 17.5386 6.65729 17.0134 7.11084 16.7949L7.07084 16.5949C7.03084 15.9549 7.39083 15.4749 7.79083 15.3549V15.1949C7.78428 14.6789 8.13863 14.1896 8.63084 14.0349C8.63084 13.4624 8.95605 12.9199 9.55083 12.7948C9.55083 12.2364 10.0795 11.685 10.6308 11.6349V11.5348V11.4848V11.4348C10.7908 10.8348 11.2308 10.6748 11.6708 10.5948C11.6708 9.70356 12.8708 9.87072 12.8708 9.39485C12.9725 9.15735 13.1481 8.959 13.3715 8.82928C13.5949 8.69956 13.8542 8.6454 14.1108 8.67485L14.1508 8.47485C14.3909 8.04436 14.9043 7.79598 15.3908 7.87485L15.4708 7.71485C15.7317 7.26887 16.2889 7.03249 16.7908 7.15485C17.2072 6.73846 17.72 6.32546 18.3508 6.55485C18.6029 6.05082 19.2473 5.86307 19.7508 6.11485C20.0708 5.6349 20.8029 5.50089 21.3108 5.75485V5.71485C21.7094 5.4083 22.7681 5.61755 22.9108 5.47485C23.4308 5.07485 24.0308 5.07485 24.3908 5.43485C24.9908 5.07485 25.6308 5.07485 25.9908 5.43485C26.1146 5.5586 27.0487 5.11241 27.4708 5.59485C28.0509 5.47811 28.653 5.54812 29.1908 5.79485C29.6532 5.62561 30.2676 5.7755 30.5508 6.19485Z" fill="#663206"/>
<path d="M24.9108 7.47485H23.9108L23.0708 7.55485L22.1908 7.63485L21.3108 7.79485L20.5108 7.99485L19.5908 8.27485L18.7908 8.55485L17.9908 8.87485L17.1908 9.23485L16.4708 9.63485L15.7108 10.0349L14.9908 10.5149L14.3108 10.9949L13.7108 11.4749L12.4308 12.5949L11.8708 13.1949L11.3108 13.8749L9.83084 15.9149L9.43084 16.6349L9.03084 17.4349L8.67084 18.1949L8.35084 18.9949L8.07084 19.7949L7.83084 20.6749L7.71084 21.4749L7.51084 22.3549L7.39084 23.2349L7.31084 24.1149V25.0749C7.31874 28.5541 8.35768 31.9529 10.2964 34.842C12.2351 37.731 14.9866 39.9806 18.2033 41.3066C21.4199 42.6326 24.9575 42.9754 28.3689 42.2918C31.7803 41.6082 34.9126 39.9288 37.37 37.4658C39.8274 35.0028 41.4997 31.8667 42.1755 28.4538C42.8514 25.0408 42.5005 21.5041 41.1673 18.2904C39.834 15.0768 37.5781 12.3304 34.6847 10.3982C31.7913 8.46608 28.3901 7.47486 24.9108 7.47485Z" fill="#FFD43F"/>
<path d="M24.9108 8.03485H23.9508L23.1508 8.15485L22.2708 8.27485L21.4708 8.43485L20.6308 8.63485L19.8308 8.83485L16.0708 10.5148L14.0708 11.8748L12.8708 13.0348L10.3508 16.2748L9.95083 16.9548L9.55083 17.7149L9.23083 18.4748L8.91083 19.1948L8.43083 20.7949L8.23083 21.5949L8.07083 22.4348L7.99083 23.3148L7.91083 24.1549C7.91083 27.8497 8.69902 31.3752 10.7815 34.4878C12.653 37.2852 15.3128 39.464 18.4238 40.7483C21.5348 42.0326 24.9571 42.3646 28.2569 41.7021C31.5567 41.0397 34.5857 39.4126 36.96 37.0271C39.3342 34.6416 40.947 31.605 41.5939 28.3021C42.2408 24.9991 41.8927 21.5785 40.5937 18.4736C39.2947 15.3687 37.1034 12.7192 34.2972 10.8609C31.4911 9.00256 28.1965 8.01901 24.8308 8.03485H24.9108Z" fill="#002D70"/>
<path d="M5.63084 21.2348C5.915 21.2348 6.71008 22.7135 6.87084 22.9949C7.11084 23.5949 6.91084 24.0749 6.59083 24.3549C5.96393 23.2578 5.22576 22.4501 5.63084 21.2348Z" fill="#663206"/>
<path d="M5.35084 22.9949V22.9548L5.47084 22.9149C5.67084 23.3149 6.39084 23.9549 6.71084 24.4749C6.99084 24.9949 6.91084 25.6349 6.55084 25.9149C5.80765 24.5523 5.04285 24.6374 5.35084 22.9949Z" fill="#663206"/>
<path d="M5.07084 25.7549L5.23084 24.5548H5.31084C5.47084 24.9548 6.35084 25.5548 6.71084 26.0348C7.11084 26.5548 6.99084 27.0349 6.71084 27.3949C6.16173 26.7237 5.36665 26.6423 5.07084 25.7549Z" fill="#663206"/>
<path d="M5.67084 29.2348L5.59084 29.0749L5.43084 27.7548V27.6748C5.71084 28.0748 6.63084 28.4748 7.07084 28.8748C7.51084 29.3548 7.47083 29.8748 7.31083 30.2748C6.87083 29.9148 6.11084 29.7148 5.67084 29.2348Z" fill="#663206"/>
<path d="M6.03083 30.7148L5.83083 30.4349L5.71083 29.2749C6.03084 29.6749 6.95083 29.9148 7.43083 30.3148C7.91083 30.7148 7.95083 31.2349 7.75083 31.5949C7.31083 31.3149 6.51083 31.1948 6.03083 30.7148Z" fill="#663206"/>
<path d="M6.51083 32.1948L6.11083 30.7948C6.43084 31.1548 7.43084 31.3149 7.95084 31.6749C8.47084 32.0749 8.55084 32.5549 8.35084 32.9549C7.87084 32.6749 7.03084 32.6348 6.51083 32.1948Z" fill="#663206"/>
<path d="M6.55084 32.1948C6.99083 32.5548 7.99083 32.6748 8.51083 33.0348C9.07083 33.3548 9.19083 33.8348 9.03083 34.2348C7.90251 33.6707 6.55084 33.7198 6.55084 32.1948Z" fill="#663206"/>
<path d="M7.87084 34.9949L7.31083 34.3948L7.19083 34.1149V33.6748C7.55083 33.9948 8.55083 34.0348 9.11083 34.3148C9.71083 34.5948 9.91084 35.0348 9.79083 35.4748C9.27083 35.2748 8.39084 35.3549 7.87084 34.9949Z" fill="#663206"/>
<path d="M9.75083 37.5948C10.1508 37.7548 11.1508 37.5948 11.7508 37.7148C12.3508 37.8348 12.6708 38.2748 12.6708 38.6748C12.0708 38.6748 11.2308 38.9148 10.6308 38.6748L9.75083 37.5948Z" fill="#663206"/>
<path d="M21.6308 44.4748H21.5908L21.3908 44.5549L20.4308 44.3949C19.8342 44.0965 21.6186 43.1649 21.8708 43.0749C22.4308 42.7949 22.9108 42.9949 23.1508 43.3549C22.6708 43.6349 22.2308 44.2748 21.6308 44.4748Z" fill="#663206"/>
<path d="M23.1908 44.6749C21.7942 45.3732 22.2345 43.813 23.3108 43.2748C23.8708 42.9148 24.3508 43.0749 24.6308 43.3949C24.1108 43.7149 23.7108 44.4349 23.1908 44.6749Z" fill="#663206"/>
<path d="M24.1908 44.9949H23.7108L23.2708 44.5948C23.6308 44.5148 24.1908 43.6348 24.7108 43.3148C25.2708 42.9948 25.7108 43.0749 26.0708 43.3949C25.3635 43.945 25.0712 44.6562 24.1908 44.9949Z" fill="#663206"/>
<path d="M25.1508 44.9949L24.8308 44.7149C25.6333 44.3582 26.3185 42.2128 27.5108 43.2349C26.441 43.9481 26.4798 44.7487 25.1508 44.9949Z" fill="#663206"/>
<path d="M29.3108 44.3149L29.1908 44.3949L28.7108 44.6749H28.1108C27.7819 44.1814 28.7063 43.1889 29.0308 42.8349C29.4708 42.3949 29.9508 42.3549 30.3108 42.5949C30.0308 42.9949 29.8308 43.9149 29.3108 44.3149Z" fill="#663206"/>
<path d="M37.7108 40.0349L37.6308 40.0748L37.4108 40.4548L37.1908 40.7548L36.7908 40.9149C36.2493 41.0696 36.5823 39.3762 36.7508 38.9548C36.9108 38.3548 37.3108 38.1149 37.7908 38.1549C37.7108 38.5949 37.9108 39.4349 37.7108 40.0349Z" fill="#663206"/>
<path d="M38.6708 39.3148L37.9908 39.9148L37.7508 40.0348C37.9108 39.4748 37.7108 38.5948 37.7908 37.9948C38.2775 35.9265 39.479 38.2372 38.6708 39.3148Z" fill="#663206"/>
<path d="M34.9908 8.11485L36.1108 8.87485C36.1108 8.92304 34.3206 9.31485 34.1108 9.31485C33.5508 9.35485 33.1508 9.07485 33.0308 8.59485C33.4708 8.51485 34.3508 8.07485 34.9908 8.11485Z" fill="#663206"/>
<path d="M34.7108 7.87485L34.7908 8.03485L34.8308 8.07485C34.3908 8.07485 33.5108 8.59485 32.9108 8.67485C32.2308 8.71485 31.7908 8.43485 31.6708 8.03485C32.9897 7.55525 33.4363 7.2612 34.7108 7.87485Z" fill="#663206"/>
<path d="M29.2308 5.75485L30.1108 5.87485L30.2708 5.95485L30.5108 6.27485C29.6431 6.54184 28.2957 8.11222 27.4708 6.87485C27.478 6.87161 27.4852 6.86823 27.4924 6.86472C27.9316 6.65165 28.5619 5.95161 29.2308 5.75485Z" fill="#663206"/>
<path d="M28.9908 5.83485V5.87485C24.8416 6.7969 26.7442 5.32134 28.9908 5.83485Z" fill="#663206"/>
<path d="M26.5108 5.27485L27.3508 5.47485H27.4308V5.55485C26.9108 5.87485 26.4708 6.55485 25.9508 6.83485C25.3108 7.15485 24.8708 7.07485 24.5908 6.71485C25.3293 6.16099 25.6047 5.57688 26.5108 5.27485Z" fill="#663206"/>
<path d="M24.4308 5.43485C26.1143 5.48035 25.9391 5.81837 24.4708 6.83485C23.9508 7.19485 23.4308 7.07485 23.1108 6.83485C23.4308 6.51485 23.8708 5.75485 24.4308 5.43485Z" fill="#663206"/>
<path d="M21.3108 5.71485L21.8708 5.39485L22.0308 5.35485L22.7908 5.51485C21.5166 6.27942 18.6204 7.78438 21.3108 5.71485Z" fill="#663206"/>
<path d="M21.3108 5.79485C20.9108 6.03485 20.5908 6.95485 20.1508 7.47485C19.7508 7.91485 19.3108 7.95485 18.9108 7.75485C19.1123 7.352 21.0012 4.86594 21.3108 5.79485Z" fill="#663206"/>
<path d="M19.7108 6.11485C19.7638 6.11485 19.0291 7.58358 18.7908 7.87485C18.4308 8.31485 17.9108 8.47485 17.5108 8.27485C18.1857 6.92518 18.2226 6.44041 19.7108 6.11485Z" fill="#663206"/>
<path d="M16.9508 6.95485L18.3508 6.47485C18.0308 6.91485 17.7908 7.95485 17.4708 8.47485C17.1108 8.95485 16.6308 9.07485 16.2308 8.87485C16.5003 8.22804 16.5533 7.55109 16.9508 6.95485Z" fill="#663206"/>
<path d="M15.4708 7.71485L16.1108 7.19485C17.2513 7.06813 16.5858 8.20497 16.1508 9.07485C15.8308 9.63485 15.3108 9.79485 14.9108 9.67485C15.1108 9.19485 15.1108 8.27485 15.4708 7.71485Z" fill="#663206"/>
<path d="M14.1508 8.47485L14.2708 8.27485L14.4708 8.11485L14.9908 7.87485L15.4308 7.79485C15.1108 8.27485 15.1508 9.27485 14.9108 9.87485C14.6308 10.3548 14.1908 10.5549 13.7108 10.4349C13.9108 9.99485 13.8308 9.07485 14.1508 8.47485Z" fill="#663206"/>
<path d="M12.8708 9.39485L14.1108 8.67485C13.8708 9.07485 13.9108 10.0748 13.7108 10.6748C13.5108 11.1949 13.0708 11.4749 12.6308 11.3949C12.7508 10.8349 12.6308 9.99485 12.9108 9.39485H12.8708Z" fill="#663206"/>
<path d="M12.7908 9.55485C12.5908 9.99485 12.7908 10.9548 12.5908 11.5548C12.4308 12.1948 12.0308 12.4748 11.5908 12.4348C11.6505 11.6594 11.6489 9.55485 12.7908 9.55485Z" fill="#663206"/>
<path d="M11.4708 10.5949L11.6308 10.5549C11.3537 11.3864 12.1408 13.5148 10.6308 13.5148C10.6308 12.9948 10.4308 12.0748 10.6308 11.4348L11.4708 10.5949Z" fill="#663206"/>
<path d="M10.6308 13.7149C10.6308 14.2749 10.2308 14.6749 9.75083 14.6749C9.75083 12.3277 10.8329 10.4822 10.6308 13.7149Z" fill="#663206"/>
<path d="M9.39084 12.8348L9.55083 12.7948C9.47083 13.2348 9.79083 14.1949 9.79083 14.7949C9.79083 15.4749 9.43084 15.7949 8.99083 15.8749C8.89505 15.2522 8.73542 13.1626 9.39084 12.8348Z" fill="#663206"/>
<path d="M7.79083 15.1949L8.51084 14.0749L8.59084 14.0349L8.63084 13.9949C8.47933 14.9797 9.74351 16.6618 8.31084 17.2348C8.17355 16.5484 7.79085 15.9074 7.79083 15.1949Z" fill="#663206"/>
<path d="M6.47084 18.0349L6.99084 16.8749C7.08375 16.7819 7.74881 18.3597 7.79083 18.6749C7.95083 19.3549 7.67083 19.7549 7.27083 19.9149C7.07083 19.3949 6.51084 18.6749 6.47084 18.0349Z" fill="#663206"/>
<path d="M5.95084 19.5149L6.03084 18.7949L6.51084 18.1949C6.51084 18.6749 7.15084 19.4749 7.31084 20.0749C7.55084 20.6749 7.31084 21.0748 6.91084 21.3148C6.59084 20.7548 6.11084 20.1149 5.95084 19.5149Z" fill="#663206"/>
<path d="M40.7908 36.7148L40.0708 37.7948C39.6257 37.7948 39.248 34.866 40.4708 34.7548C40.5108 35.2748 40.8708 36.0748 40.7908 36.7148Z" fill="#663206"/>
<path d="M41.7108 35.4748C40.6278 37.0993 39.7551 33.9736 41.1508 33.5548C41.3108 33.9148 41.7108 34.7948 41.7108 35.4748Z" fill="#663206"/>
<path d="M42.5108 33.8749C42.5108 33.019 40.73 31.2078 42.3908 30.7549C42.8816 32.2272 43.1982 32.4143 42.5108 33.8749Z" fill="#663206"/>
<path d="M43.1108 32.4748C43.0708 32.0348 42.4308 31.2748 42.2708 30.6348C42.1108 29.9948 42.3108 29.5548 42.7108 29.3948C43.5385 30.6954 43.8705 31.1455 43.1108 32.4748Z" fill="#663206"/>
<path d="M44.1108 29.6749V29.8749L43.7508 30.9149C43.746 30.9245 42.7627 29.5363 42.6308 29.2348C42.5108 28.6748 42.6708 28.2749 43.0308 27.9949C43.2708 28.3949 43.9508 29.0749 44.1108 29.6749Z" fill="#663206"/>
<path d="M44.3508 28.0749L44.3908 29.0749L44.3508 29.1949L44.1908 29.4749L44.0708 29.5949C43.9908 29.1149 43.1908 28.4348 42.9108 27.8748C42.6708 27.3148 42.8708 26.8348 43.2308 26.5548C43.5137 26.9634 44.3508 27.5475 44.3508 28.0749Z" fill="#663206"/>
<path d="M44.5908 24.9948C45.1966 26.2064 43.5573 25.6646 43.1108 24.9948C42.7908 24.4348 42.9108 23.8749 43.2308 23.5949C43.525 24.085 44.5908 24.3668 44.5908 24.9948Z" fill="#663206"/>
<path d="M44.5908 23.4749L44.7108 23.7148V23.8748V24.5148C44.4212 25.0941 43.2726 23.7605 43.0308 23.4748C42.6708 22.9548 42.6708 22.4749 42.9908 22.1549C43.5508 22.6748 44.2708 22.9949 44.5908 23.4749Z" fill="#663206"/>
<path d="M44.7108 22.6749V22.9949H44.5908V23.0749L44.5508 23.1949L44.5108 23.2349V23.2749L44.4308 23.3549C44.2308 22.9549 43.3108 22.5549 42.8708 22.0349C42.5108 21.5949 42.4708 21.0749 42.7108 20.7549C43.4425 21.4865 44.2474 21.6901 44.7108 22.6749Z" fill="#663206"/>
<path d="M43.9108 20.2749L43.8708 20.2748C43.6308 19.8748 42.6708 19.6348 42.1108 19.2748C41.7108 18.8348 41.5908 18.3548 41.7908 17.9548C43.131 18.7796 43.5112 18.6763 43.9108 20.2749Z" fill="#663206"/>
<path d="M43.1108 17.4749L43.4708 18.6749L43.4708 18.7549C42.9508 18.3549 42.1108 18.2349 41.6308 17.8749C41.1508 17.5149 40.9908 17.0749 41.1908 16.6749C41.7108 16.9149 42.6308 17.0749 43.1108 17.4749Z" fill="#663206"/>
<path d="M42.9108 16.7949C42.9794 17.7551 41.6603 16.9774 40.9908 16.5948C40.5108 16.2748 40.2708 15.7948 40.4308 15.3948C41.5618 15.8661 42.2518 15.6965 42.9108 16.7949Z" fill="#663206"/>
<path d="M42.2308 15.3549C42.4361 16.3813 40.7259 15.5624 40.3108 15.3549C39.7508 15.0749 39.5108 14.6349 39.6308 14.1549C40.6541 14.6665 41.4335 14.4512 42.2308 15.3549Z" fill="#663206"/>
<path d="M41.5108 14.5949C41.0708 14.3949 40.1108 14.4348 39.5108 14.2348C37.3115 13.0619 40.7938 12.5462 41.5108 14.5949Z" fill="#663206"/>
<path d="M38.5508 13.0349C38.0308 12.8349 37.7108 12.4348 37.7908 11.9948C38.1908 11.9948 39.0308 11.8749 39.6308 12.1149C40.6961 12.541 39.1612 13.2256 38.5508 13.0349Z" fill="#663206"/>
<path d="M39.3108 11.3549L39.5908 12.1148C39.1908 11.8748 38.1908 12.0749 37.5908 11.9549C36.9108 11.7949 36.6708 11.4748 36.6708 11.0348C37.7007 11.1141 38.3771 10.8296 39.3108 11.3549Z" fill="#663206"/>
<path d="M38.5108 10.6748L38.5108 10.9948C38.1108 10.8348 37.1908 11.0748 36.5108 10.9948C35.9108 10.9148 35.5508 10.5548 35.5508 10.1148C36.9466 9.88222 37.412 9.79576 38.5108 10.6748Z" fill="#663206"/>
<path d="M21.3508 5.79485L21.3108 5.79485L21.2708 5.87485L20.9908 6.11485C20.8241 6.36995 20.677 6.63739 20.5508 6.91485L20.4308 7.35485C20.7505 7.07518 21.0119 6.73158 20.7908 7.39485C21.1269 7.25081 21.2935 7.0214 21.5508 6.75485C21.5205 6.87626 22.5108 5.61332 22.5108 5.63485C22.4708 5.67485 22.4308 5.71485 22.5108 5.63485C22.5108 5.63485 21.3214 5.87485 21.2708 5.87485L21.3508 5.79485ZM19.5108 6.47485C19.3108 6.71485 19.2308 6.99485 19.1108 7.35485C19.0525 7.47255 18.9991 7.59266 18.9508 7.71485C19.73 7.18177 20.0955 7.47792 20.6308 6.67485C20.6914 6.51519 21.0751 5.87485 20.9508 5.87485C20.8708 5.99485 20.8708 5.95485 20.9508 5.87485C20.5141 5.87485 19.7985 5.98589 19.5108 6.47485Z" fill="#FFD43F"/>
<path d="M18.0308 6.99485C17.9058 7.26749 17.7989 7.5881 17.7108 7.87485C17.7108 8.20188 18.4492 7.84862 18.7108 7.47485C18.5743 8.56691 18.9922 7.55217 19.2308 7.07485C19.3353 6.79471 19.4694 6.52652 19.6308 6.27485H19.4708C19.4308 6.31485 19.3908 6.35485 19.4708 6.27485C19.5108 6.19485 19.4708 6.15485 19.3908 6.19485C18.944 6.46142 18.4842 6.72281 18.0308 6.99485ZM16.3108 8.87485C16.8484 7.66531 17.1913 8.94039 17.5108 8.19485C17.6148 7.95912 17.7082 7.71889 17.7908 7.47485L17.9908 6.75485C17.9108 6.83485 17.9108 6.79485 17.9908 6.75485C17.9908 6.69615 17.3 6.86028 17.2708 6.87485C16.9353 7.4341 16.4594 7.59078 16.3108 8.87485ZM15.0708 9.35485C15.0708 9.65077 16.2799 8.39858 16.3508 8.11485C16.3851 7.99159 16.5481 7.28316 16.5108 7.39485C16.4708 7.47485 16.4708 7.39485 16.5108 7.39485C16.5108 7.39075 15.1017 9.15226 15.0708 9.35485ZM14.1108 8.67485L13.9908 8.99485C13.9128 9.35076 13.8594 9.71161 13.8308 10.0748V10.3948H13.9508L14.1108 10.0748C14.368 10.2463 14.7721 9.90601 14.9108 9.67485L15.0708 8.75485C15.0842 8.67108 15.2953 7.93037 15.1508 8.07485C15.1508 8.19485 15.1108 8.15485 15.1508 8.07485C15.1508 7.90972 14.3636 8.92762 14.1108 8.67485ZM12.9108 9.47485L12.8308 9.63485L12.7108 10.0348C12.6288 10.8708 13.5086 11.0416 13.7108 10.4349C13.7908 10.1149 13.8308 10.0748 13.8308 9.75485C13.8308 8.43324 13.6155 9.47485 12.9108 9.47485ZM11.5508 11.0748V11.1548L11.5908 12.0748C12.2444 11.5218 12.7587 11.8256 12.6308 10.6748C12.6911 9.40909 11.8899 10.2272 11.5508 11.0748ZM10.5908 11.6748L10.5508 11.8748V11.9948C10.3577 13.1536 11.6145 12.7697 11.5508 11.7148C11.5508 9.76784 11.1209 12.2049 10.5908 11.6748ZM9.55084 12.9148V13.3148C9.55084 13.5948 9.63084 14.1148 9.71084 14.3548C9.95473 15.0052 10.5719 13.1156 10.5508 12.7148L10.3508 12.0348C10.3508 12.1548 10.3508 12.0748 10.3508 12.0348C10.2604 11.6732 9.63056 12.7554 9.55084 12.9148Z" fill="#FFD43F"/>
<path d="M8.71083 14.5549C8.76216 14.9043 8.8289 15.2513 8.91083 15.5949L8.95083 15.7949C9.03083 15.7949 9.07083 15.6749 9.07083 15.6749C9.7126 15.4609 9.78249 14.5256 9.63083 13.9949C9.46487 13.2646 9.56622 13.0195 8.99083 13.5949L8.83083 13.7149L8.75083 14.2749L8.67083 14.1949L8.71083 14.5549ZM8.23083 16.8349L8.35083 17.0749H8.47083C8.64322 15.8681 9.06436 16.716 8.95083 16.0349C8.90204 15.6613 8.51083 14.3091 8.51083 14.4749C8.51083 14.5949 8.51083 14.5549 8.51083 14.4749C8.31257 14.3427 8.02134 15.4104 8.03083 15.5149L8.23083 16.8349Z" fill="#FFD43F"/>
<path d="M7.19084 16.9549V17.1549L7.23084 17.2348L7.59084 18.1549L7.83084 18.3949C7.76758 17.7623 8.3011 17.2702 8.07084 16.3948C7.69655 15.3742 7.32506 16.007 7.39084 16.9149L7.19084 16.9549ZM6.51084 18.1949C6.84707 19.876 8.01393 19.2487 7.39084 17.7949C6.92137 16.6288 6.94554 18.4847 6.51084 18.1949ZM6.03084 19.7149L6.75084 20.9549L6.91084 20.7548C6.91084 19.6467 7.3402 20.4217 7.27084 20.0749L6.87084 19.1948L6.51084 18.4348C6.38437 18.4981 6.41203 18.7572 6.35084 18.6348C6.35084 18.5148 6.31084 18.5548 6.35084 18.6348C6.34216 18.7042 6.05685 19.7214 6.03084 19.7149Z" fill="#FFD43F"/>
<path d="M5.83083 21.4748L6.31084 22.2749C6.56719 21.8476 6.74024 21.7443 6.91084 21.9149C6.43867 21.2656 6.57284 21.8022 6.91084 21.9149C6.91084 21.9149 6.99084 21.6748 6.91084 21.4748C6.81247 21.1921 6.67803 20.9232 6.51083 20.6749C6.27084 20.3549 6.11084 20.0749 6.07083 19.8749C6.07083 19.8749 5.99084 19.9949 6.07083 20.0749C6.07083 20.1949 6.03083 20.1549 5.99083 20.0749C5.99083 20.4213 5.83083 21.0254 5.83083 21.4748ZM5.59084 22.9549C5.59084 23.205 6.30302 23.9043 6.51083 24.1149C6.58149 24.162 6.44181 22.4931 6.31084 22.2749L5.71083 21.6749C5.75084 21.7949 5.71083 21.7549 5.71083 21.6749C5.20482 21.6749 5.83853 22.7072 5.59084 22.9549ZM5.31084 24.5548C5.61056 24.8974 5.91469 25.2285 6.27084 25.5149L6.59083 25.7549C6.63084 25.7549 6.63084 25.6349 6.63084 25.6349C5.89422 24.7509 6.76103 24.7627 6.55084 24.3948C6.3803 24.1427 6.19322 23.9022 5.99083 23.6749C5.86085 23.5015 5.43084 22.8416 5.43084 23.2749C5.51083 23.3549 5.43084 23.3549 5.43084 23.2749C5.43084 23.2749 5.27655 24.4349 5.31084 24.5548ZM5.51083 26.4349L5.59084 26.5149C5.9092 26.7934 6.25809 27.0349 6.63084 27.2349H6.75084C6.61889 27.0652 6.78989 26.5144 6.71084 26.4749C6.46396 26.0799 6.28948 26.0412 6.71084 26.4749C6.71083 26.0333 6.20862 25.5898 5.91083 25.3148C5.59083 25.0749 5.43083 24.9149 5.35083 24.7549V24.9949C5.43083 25.0749 5.35083 25.0349 5.35083 24.9949C5.15381 24.8963 5.27083 25.5103 5.27083 25.6749C5.44467 26.0225 5.41381 26.0953 5.51083 26.4349ZM5.43084 27.6349L5.47084 27.7148L5.75084 27.9949H5.79083L6.59083 28.5149L6.83084 28.5949C6.62376 28.2066 6.86481 27.9522 6.43084 27.4749C6.79675 27.7798 7.21646 27.8895 6.67084 27.4349C6.47679 27.239 6.26222 27.0647 6.03084 26.9149L5.31083 26.4349C5.31083 26.5127 5.4179 26.729 5.35083 26.5949C5.27083 26.5548 5.23083 26.5149 5.27083 26.6749C5.32003 26.802 5.35928 27.5633 5.43084 27.6349ZM5.59084 29.0749L5.75084 29.2348C6.04872 29.5327 6.51392 29.7531 6.91084 29.9149C7.11084 30.0349 7.23083 29.9949 7.23083 29.9949C6.23111 29.1617 7.6559 29.2104 6.27084 28.3949C6.09919 28.309 5.55084 27.8968 5.55084 28.1148C5.63084 28.1948 5.59084 28.1948 5.55084 28.1148C5.47084 28.1148 5.43084 28.1149 5.47084 28.1949C5.69612 28.5242 5.55465 28.6749 5.51083 28.6749C5.57769 28.9423 5.99083 28.9989 5.99083 29.2749L5.59084 29.0749ZM6.03084 30.6748L6.51083 30.9549C6.79316 31.1112 7.08741 31.2849 7.39084 31.3948C7.59084 31.4748 7.63084 31.3948 7.63084 31.3948C6.69875 30.378 7.84727 30.8113 7.31083 30.2748C7.08638 30.1153 6.8449 29.9811 6.59083 29.8749C6.33005 29.7562 6.0763 29.6226 5.83083 29.4749C5.86328 29.5397 6.04538 30.679 6.03084 30.6748ZM7.87084 32.7148C8.04955 32.7744 7.57493 31.5264 7.07084 31.3149C6.79802 31.2243 6.53087 31.1174 6.27084 30.9949L6.35083 31.1549C6.43084 31.1949 6.39083 31.1949 6.35083 31.1549C6.35083 31.1549 6.501 31.8355 6.51083 31.8749C6.91344 32.1768 7.38233 32.5875 7.87084 32.7148ZM8.55083 34.1149H8.91084C7.96854 33.2399 8.80349 33.2966 8.35084 32.9949C8.09557 32.8717 7.8272 32.7777 7.55084 32.7148C7.27851 32.6385 7.01131 32.545 6.75084 32.4349C6.75084 32.4349 6.75083 32.5149 6.87083 32.5949C6.95083 32.6349 6.91084 32.6349 6.87083 32.5949C6.58572 32.5949 7.12947 32.934 7.23083 32.9949C6.66595 32.8536 7.46867 33.557 7.39084 33.6348L8.55083 34.1149ZM8.51084 35.2348C8.8132 35.3105 9.12068 35.364 9.43083 35.3949C9.95361 35.3077 9.36146 34.4117 9.07084 34.3149C8.81185 34.2112 8.54412 34.1308 8.27083 34.0749C7.98741 34.0607 7.49621 34.0875 7.47084 34.0749C7.36883 34.0749 8.27796 35.1055 8.51084 35.2348ZM9.07084 36.3549L9.31083 36.4349L10.2708 36.5548C10.4308 36.5548 10.5108 36.4749 10.5108 36.4749C9.44495 35.8353 10.4567 35.7635 9.83084 35.5549C9.51084 35.4349 9.31083 35.4349 8.99083 35.3549L8.19083 35.2348C8.19083 35.2348 8.19083 35.3149 8.27083 35.3549C8.35084 35.3549 8.31083 35.3949 8.27083 35.3549C8.16016 35.3549 8.9843 36.2807 9.07084 36.3549ZM9.99084 37.6349H10.2308L11.5108 37.6749L11.3508 37.4749C11.1642 37.4375 11.1755 37.4749 11.3508 37.4749C10.834 37.2363 11.1731 36.906 10.7108 36.6749C10.3908 36.6749 10.1108 36.5949 9.79083 36.5949L9.15084 36.6749C9.23083 36.6749 9.19083 36.6749 9.15084 36.6749C9.03083 36.6749 8.99084 36.7148 9.07084 36.7948C9.74942 37.2075 9.07551 36.9157 9.99084 37.6349ZM10.6308 38.6748L10.9108 38.7549H11.1508L11.1908 38.7949C11.4708 38.7949 11.9908 38.7949 12.2308 38.7149H12.6308L12.3108 38.4749C11.59 38.1745 12.9582 38.0428 11.7108 37.8349C11.408 37.7748 11.0995 37.7479 10.7908 37.7549H9.99084C9.92386 37.9558 10.4444 38.4263 10.6308 38.6748ZM12.1108 39.8349H12.3908C12.7908 39.8349 12.9908 39.7549 13.1908 39.7149L13.7108 39.6349L13.2308 38.9549C13.2308 38.9549 12.9908 38.7949 12.7108 38.7949H11.7908L10.9908 38.8749C11.2102 39.2039 11.8563 39.5803 12.1108 39.8349ZM13.7108 40.7949L14.4308 40.5549C14.5454 40.3258 14.0244 39.7549 13.7908 39.7549L12.9908 39.7949C12.9229 39.8088 12.3507 40.0549 12.3108 40.0749C12.2308 40.0749 12.1908 40.0349 12.3108 40.0749C12.7722 40.2833 12.5016 40.2492 12.7908 40.6349L13.3908 40.6749L13.7108 40.7949ZM14.9508 41.5549L15.7508 41.2749L16.1508 41.1549C15.4617 40.8964 14.4888 40.8542 15.5908 40.5949C15.5908 40.5949 15.3108 40.5149 15.0308 40.5549C14.7314 40.5909 14.4365 40.6579 14.1508 40.7549L13.3108 40.9549L13.5108 41.0349C13.6308 41.0349 13.5908 41.0349 13.5108 41.0349C13.3436 41.2021 14.5198 41.4679 14.6308 41.4749L14.9508 41.5549ZM16.3508 42.3149L17.0708 41.9549L17.4308 41.8749C16.6326 41.3959 17.0218 41.1733 16.3108 41.2749C16.0363 41.3258 15.7681 41.4063 15.5108 41.5149C15.2511 41.6269 14.9838 41.7205 14.7108 41.7949C14.7108 41.7949 14.7108 41.8749 14.8308 41.8349C14.9508 41.8349 14.9108 41.7949 14.8308 41.8349C14.8308 41.8349 16.1486 42.2474 16.3508 42.3149ZM16.9908 43.1549L17.5508 42.9949L17.6308 42.9549L18.4308 42.5149L18.5108 42.2749C18.3395 42.3434 18.375 42.3654 18.5108 42.2749C17.9341 42.3636 17.8368 41.8846 17.5908 41.9549C17.3152 42.0202 17.0471 42.114 16.7908 42.2349C16.5194 42.3678 15.8048 42.4432 16.1908 42.6749C16.3108 42.6349 16.2708 42.6749 16.1908 42.6749C16.0488 42.6749 17.2246 43.0087 16.9908 43.1549ZM18.6708 43.5949L19.7908 42.9949L20.1908 42.7949C19.8299 42.7949 19.3266 42.782 18.9908 42.7149C19.181 42.4613 19.6945 42.2003 18.9908 42.4349C18.7706 42.5129 17.064 43.3838 17.6308 43.1949C17.7108 43.1949 17.7108 43.1549 17.6308 43.1949C17.3711 43.3247 17.8821 43.3149 17.9508 43.3149C18.4271 43.0767 17.3408 43.4749 18.3108 43.4749L18.5108 43.5549C18.6863 43.3905 18.7693 43.3486 18.6708 43.5949ZM20.2308 44.0349C20.6286 43.8581 20.9781 43.6406 21.3108 43.3549C21.5265 43.1931 21.5654 43.1149 21.3108 43.1149C21.1728 43.1839 21.2098 43.2664 21.3108 43.1149C20.9684 43.1939 20.4637 43.2661 20.9108 42.8749C20.9108 42.8749 20.6308 42.7949 20.3908 42.8749C20.1087 42.9748 19.84 43.1091 19.5908 43.2749C19.36 43.4359 19.1195 43.5829 18.8708 43.7149C18.8708 43.7149 18.9908 43.7949 19.0708 43.7549C19.1908 43.7549 19.1508 43.7149 19.0708 43.7549C19.0708 44.3429 20.4014 43.8643 20.2308 44.0349ZM21.5908 44.4748L21.7508 44.3549L21.8708 44.3149L22.4708 43.8949L22.8308 43.5949L23.0308 43.3549C21.9563 43.6235 21.3804 43.5384 20.3908 44.1549H20.6308C20.7108 44.1549 20.7108 44.1149 20.6308 44.1549C20.5822 44.1792 21.2179 44.4349 21.3108 44.4349C21.4102 44.3554 21.8468 43.9868 21.7508 44.2749L21.8708 44.3149L21.7508 44.3549L21.6708 44.4149L21.5908 44.4748ZM23.4308 44.4349C23.8625 44.1759 24.1055 43.7244 24.5108 43.4349C24.1721 43.4349 24.2308 43.5833 24.2308 43.3149C23.244 43.9728 23.8797 42.9896 23.2708 43.3549C22.9848 43.5276 22.7168 43.7286 22.4708 43.9549C22.2308 44.2749 22.1108 44.3549 21.9508 44.4349H22.1908C22.2708 44.3949 22.2308 44.3949 22.1908 44.4349C21.8516 44.5479 22.5378 44.4214 22.6708 44.3549C22.2098 44.9312 22.6971 44.4992 23.3108 44.3549L23.4308 44.4349ZM26.3508 44.5949L26.5108 44.3949C26.7653 44.1404 27.0128 43.8821 27.2308 43.5949L27.3108 43.3149C26.8605 43.7652 27.1774 43.3149 27.0308 43.3149C27.0268 43.3122 26.6464 43.2436 26.6308 43.2749C25.9017 44.004 26.6985 42.9451 26.1108 43.4349C25.6701 43.8168 25.3674 44.3119 24.9508 44.7149L25.1908 44.6749C25.2708 44.6749 25.2708 44.5949 25.1908 44.6749C25.1108 44.6749 25.1908 44.7949 25.2708 44.7549C25.5375 44.6282 25.9069 44.5368 25.3908 44.7949C25.4968 44.7525 25.9001 44.5109 25.7108 44.7949C25.9722 44.7426 26.1227 44.4749 26.3908 44.4749V44.5149L26.3508 44.5949ZM25.5908 43.3949C25.1773 43.6844 24.5779 43.8478 25.1908 43.2349C25.1908 43.2349 24.9108 43.2749 24.7108 43.4749C24.4634 43.65 24.2354 43.8511 24.0308 44.0749C23.8446 44.2882 23.6441 44.4886 23.4308 44.6749C23.8588 44.6749 24.2715 44.8077 24.5908 44.5949C24.7742 44.4028 25.6563 43.3949 25.5908 43.3949ZM27.7908 44.4749L27.9908 44.3549V44.2749L28.2308 44.0749L28.6308 43.3949C29.0032 42.8362 28.4164 43.2939 28.1908 43.4349C28.0232 43.4684 27.4803 43.2912 27.0308 43.9549C26.8945 44.1484 26.3397 44.5971 26.7508 44.5149C26.8308 44.4349 26.7908 44.4749 26.7508 44.5149C26.7508 44.6052 27.525 44.2749 27.9508 44.2749L27.8708 44.3749L27.7908 44.4749ZM29.3108 44.2749C29.3108 43.7684 29.9529 43.1195 30.2308 42.6749C29.9774 42.8016 29.8687 42.8349 29.5908 42.8349C29.5456 42.8198 28.9956 42.9901 28.9908 42.9949C28.7978 43.2383 28.1304 44.5558 28.2308 44.3549C28.3108 44.2749 28.2708 44.3549 28.2308 44.3549C28.2308 44.5763 28.4596 44.358 28.5508 44.2749L28.7508 44.1149C28.478 44.4657 28.5878 44.604 28.7108 44.2349C28.7108 44.7438 29.402 43.4541 29.3108 44.2749ZM30.9108 43.6749L31.0308 43.5149C31.2603 43.2089 31.3614 42.8635 31.5108 42.5149C31.6495 41.975 31.2432 42.4855 30.9908 42.6749C30.645 43.0207 30.0719 44.1938 30.3508 43.9149C30.5673 43.8066 30.6859 43.5624 30.9108 43.6749ZM32.3908 43.1149H32.4308L32.8308 41.9549L32.8908 41.7549C33.0326 41.2824 32.5983 41.9962 32.7108 41.7149C32.615 41.4274 32.635 42.2431 32.3508 41.6749C31.8202 42.569 31.9527 41.4962 31.4308 42.8749C31.3545 43.1341 31.261 43.388 31.1508 43.6349C31.7973 43.6349 31.9387 43.141 32.3908 42.9149V43.1149ZM34.2308 40.9549C33.7778 40.9549 33.7108 41.8189 33.7108 41.0349C33.3977 41.348 33.2488 41.9133 33.5108 41.0749C33.5108 41.0749 33.3108 41.2749 33.1108 41.5149C32.9773 41.8253 32.8703 42.1464 32.7908 42.4749L32.5108 43.1149C32.5108 43.1149 32.6708 43.0749 32.7108 42.9949C32.7908 42.9949 32.7508 42.9149 32.7108 42.9949C32.7108 43.0613 33.2612 42.962 33.4308 42.8349C33.6458 42.4049 34.1361 42.0809 34.2308 40.9549ZM35.4308 40.5149V40.1149L35.2308 40.1949C35.2107 40.2386 34.8308 40.3549 34.8308 40.3549C34.3813 40.6117 34.2229 41.2896 34.1108 41.7549L33.9908 42.4349C33.9908 42.4349 34.1108 42.4349 34.1508 42.2749C34.1908 42.1949 34.1508 42.1549 34.1508 42.2749C34.1508 42.3549 34.1508 42.3949 34.2308 42.3149C34.5105 42.1051 34.6667 42.1604 34.8908 41.8549C35.3491 41.7021 35.4006 40.9928 35.4308 40.5149ZM36.4308 40.7949L36.4908 40.5949L36.5508 40.3949L36.5708 39.9549L36.5908 39.5149V39.3149V39.1149L36.4508 39.3649L36.3108 39.6149L36.1908 39.8749C36.1137 40.0292 35.522 40.4354 35.4708 40.9149C35.4609 41.0125 35.3589 41.9706 35.5108 41.5149C35.5508 41.4749 35.5108 41.4349 35.5108 41.5149C35.5108 41.5178 36.1229 41.2442 36.1508 41.2349L36.2708 40.9549L36.4308 40.7949ZM37.6308 39.9949L37.7108 39.0749V38.2749L37.4708 38.4349C37.4593 38.4666 37.1108 38.6749 37.1108 38.6749C36.9835 38.972 36.7003 39.1948 36.6708 39.9949L36.7108 40.6349C36.7508 40.5149 36.7108 40.5549 36.7108 40.6349C36.7108 40.8275 37.3344 40.3877 37.3908 40.2749L37.6308 39.9949ZM38.7908 38.5949L38.7108 37.3549C38.4302 37.425 38.0308 38.1535 38.0308 37.5949C38.0308 37.5949 37.9108 37.8749 37.8708 38.1149C37.8478 38.3397 37.9108 40.2396 37.9108 39.5949C37.9508 39.5149 37.9108 39.5549 37.9108 39.5949C37.9108 39.7149 37.9508 39.7549 38.0308 39.6349C38.3045 39.2334 38.1155 39.2702 38.7908 38.5949ZM39.7508 38.0349L39.8308 37.8749V37.6949L39.8308 37.5149L39.8708 37.3149C39.8308 37.0749 39.7508 36.8749 39.6708 36.4749L39.5108 36.4349C39.5016 36.444 39.0779 36.8278 39.0308 36.8749C38.9747 36.9591 38.8708 37.6601 38.8708 38.0349L38.9108 38.7549C38.9108 38.7549 38.9908 38.7549 38.9908 38.6749C38.9908 38.5949 38.9908 38.5949 38.9908 38.6749C38.9908 38.7549 39.0308 38.7949 39.1108 38.6749C39.3153 38.3381 39.2954 38.4103 39.4308 38.2749L39.5908 38.1949L39.6508 37.9549L39.7108 37.7149L39.7508 38.0349ZM40.4308 34.9149L40.3908 35.0749C40.3908 35.2173 40.3689 35.2783 40.2708 35.1149L40.1508 35.0749C40.1938 35.3325 40.1108 35.9454 40.1108 35.3949L40.0308 35.2749C39.9508 35.1949 39.9108 35.3948 39.9508 35.4748C39.7813 35.4748 39.7108 35.7272 39.7108 35.8748C39.7108 36.1729 39.8951 37.6785 40.0308 37.4749C40.0308 37.3549 40.0708 37.3949 40.1108 37.4749C40.1108 37.5549 40.0708 37.5949 40.1108 37.4749C40.2637 37.1478 40.5323 36.9626 40.2708 37.3549C40.3119 37.0674 40.3646 37.141 40.5508 36.9549L40.7108 36.5149C40.7668 35.955 40.6194 35.4459 40.4308 34.9149ZM41.5908 35.4748V34.7948L41.2308 33.9549L41.1908 33.6748L41.0708 33.8749C40.799 35.053 40.5108 33.6805 40.5108 34.6749C40.5508 34.9949 40.5908 35.2749 40.7108 35.5949L40.7508 35.7849L40.7908 35.9749L40.8708 36.3549L40.9108 36.1949C40.9108 36.1149 40.9108 36.1149 40.9108 36.1949C40.99 36.3532 41.4545 35.7157 41.4708 35.6749V35.3949C41.3613 35.1745 41.3687 35.0283 41.5908 35.1949V35.4748ZM42.3908 34.1549V33.4748L42.3108 33.3948L41.8308 32.2749C41.8308 32.5337 41.798 32.762 41.5508 32.5149C41.7263 33.1728 41.7183 32.779 41.3108 32.9149C41.3108 32.9149 41.1908 33.1948 41.2308 33.4748L41.4708 34.2749L41.7908 35.0749V34.9149C41.7908 34.7948 41.8308 34.8349 41.8708 34.9149C41.8708 34.9949 41.9108 35.0349 41.9508 34.9149C41.9508 34.6429 42.1347 33.7841 42.2708 33.8749L42.3908 34.1549ZM43.0708 32.2749L42.9908 32.0749H42.9508V31.9949C42.8377 31.7314 42.704 31.4772 42.5508 31.2348C42.3908 31.1148 42.3508 30.9149 42.3508 30.9149C42.3508 31.0369 41.9136 31.5467 41.9108 31.5548C41.9108 31.5548 41.8308 31.8349 41.9108 32.0749C41.9865 32.3786 42.0937 32.6735 42.2308 32.9549C42.3395 33.1886 42.4331 33.4291 42.5108 33.6748C42.5108 33.6748 42.5908 33.5949 42.5508 33.4748C42.5108 33.3948 42.5108 33.3548 42.5508 33.4748C42.5508 33.534 42.9528 32.9194 43.0308 32.8748C42.9854 32.7992 42.723 32.3009 42.9108 32.3949L43.0708 32.2749ZM43.6708 31.0749L42.7908 29.5548L42.5908 29.7549C42.8431 30.4108 42.7553 29.9526 42.3508 30.1549C42.3508 30.1549 42.2708 30.4748 42.3508 30.7148C42.4538 30.9956 42.588 31.264 42.7508 31.5149C42.8977 31.7471 43.0313 31.9875 43.1508 32.2349C43.1508 31.8149 43.2339 31.1902 43.4708 30.8349L43.5708 30.9549L43.6708 31.0749ZM44.0708 29.6749L43.9908 29.5548L43.9508 29.4749L43.8308 29.2348C43.673 28.9968 43.4992 28.7296 43.3108 28.5149L43.1108 28.1549L42.9108 28.3549C43.0925 28.7786 43.1115 28.9758 42.8308 28.5549L42.7508 28.7949C42.6095 29.2896 42.9384 29.6448 43.1908 30.0349L43.6308 30.6349C43.6308 30.5548 43.5908 30.5548 43.6308 30.6349C43.6552 30.6592 43.7603 30.261 43.7508 30.1949C43.9553 30.1948 43.9108 29.8928 43.9108 29.7549C43.7553 29.5685 43.6967 29.4749 43.9508 29.4749L43.9908 29.5548L44.0308 29.6349L44.1108 29.7948L44.0708 29.6749ZM44.3508 28.2749L44.3508 28.0749L44.2708 28.0749V27.9549L44.2308 27.8749L43.5108 26.9949C43.0342 26.5351 43.4958 27.3873 43.0308 27.1549C43.0308 27.4448 43.1774 27.6266 43.3108 27.8749L42.9508 27.3949C42.9508 27.3949 42.9108 27.6749 43.0708 27.8749C43.2892 28.3844 43.7433 28.8282 44.0708 29.2749L44.0308 29.1549C44.0308 29.0349 43.9508 29.0349 44.0308 29.1549C44.0606 29.1697 44.2397 28.3813 44.1908 28.2348C44.133 28.1162 44.1108 28.0044 44.1108 27.8749H44.2308L44.2708 27.9549L44.3908 28.2348L44.3508 28.2749ZM44.5508 26.6749V26.5949L44.5108 26.5549L44.3908 26.3948C44.2806 26.0642 43.8807 25.7513 43.6308 25.5149C43.4308 25.4749 43.2308 25.1549 43.2308 25.1549C43.2746 25.2599 43.5224 26.0041 43.1108 25.6749C43.1108 26.0098 43.2016 26.4164 43.2308 26.4749L43.8708 27.2349L44.3108 27.5949C44.3108 27.5149 44.2708 27.5149 44.3108 27.5949C44.4811 27.68 44.1111 26.255 44.3908 26.3948L44.5508 26.6749ZM44.5908 24.9948L44.5108 24.9548L44.5108 24.8948V24.8349L43.6708 23.9949C43.5448 23.9243 43.4245 23.844 43.3108 23.7549C43.3644 23.9693 43.513 24.6359 43.1108 24.4348C43.1108 24.4348 43.1108 24.7549 43.2708 24.9949C43.5108 25.3548 43.6308 25.3949 43.8708 25.6349C43.9574 25.7234 44.5931 26.3383 44.3908 26.0349C44.3508 25.9549 44.3508 25.9549 44.3908 26.0349C44.9656 25.7475 43.9091 24.7676 44.5908 24.9948ZM44.5108 23.5148V23.3949L44.4308 23.3549L43.3508 22.5149L43.0308 22.2749C43.4982 23.0227 43.4572 22.7549 42.9108 22.7549V22.8748V23.0749C42.9108 23.0749 43.0308 23.3148 43.1908 23.4748C43.3908 23.7148 43.5908 23.8748 43.8308 24.0348L44.4308 24.4749C44.4308 24.3949 44.3508 24.3949 44.4308 24.4749C44.6504 24.3651 43.9149 22.9934 44.5108 23.5148ZM44.2308 21.9149V21.8749L44.1508 21.8748L44.0308 21.6749C43.6764 21.3754 43.2469 21.1202 42.8308 20.9149C42.7302 21.5185 42.7897 21.6325 43.0308 22.1149C43.3108 22.3549 43.5108 22.5149 43.7508 22.6749L44.3908 23.1549L44.1908 22.9149C44.1108 22.7949 44.1908 22.7949 44.2308 22.8349C44.2603 22.8643 44.3908 22.4056 44.3908 22.3148C44.1432 22.0053 44.0027 22.023 44.1508 21.8748L44.2308 21.9149ZM43.8308 20.3149L43.7108 20.1149L43.5508 20.0749L42.4308 19.4749L42.6708 19.7949L42.8708 20.1549C42.9508 20.2349 42.9108 20.1549 42.8708 20.1549C42.4884 20.1549 42.5971 20.1933 42.4308 20.2349C42.4308 20.2349 42.5108 20.5149 42.7108 20.6749C43.3579 21.3219 44.0308 21.5104 44.0308 20.7949L43.9108 20.5949C43.6681 20.4545 43.7706 20.4541 43.7108 20.2749L43.8308 20.3149ZM41.9108 18.0749C42.5373 18.7014 41.807 18.3954 41.9508 18.7549C41.9508 18.7549 42.0308 18.9949 42.2708 19.1549C42.7355 19.5049 43.2608 19.7398 43.7108 20.1149L43.5108 19.7549C43.5108 19.7549 43.5981 19.3694 43.5908 19.3549C43.2257 18.6245 42.6173 18.3692 41.9108 18.0749ZM41.3508 16.8349C41.5957 16.9981 41.8324 17.3149 41.3108 17.3149C41.475 17.4243 42.2916 17.7549 41.8308 17.7549C41.0028 17.1753 42.1186 18.0219 42.5508 18.1949C42.9882 18.3198 43.271 18.3342 42.9508 17.9949C43.2421 18.1197 41.6407 16.8876 41.3508 16.8349ZM41.8708 15.8749V15.7949C41.578 15.7332 41.2854 15.664 40.9908 15.6085C40.8845 15.5885 40.7778 15.5703 40.6708 15.5549C40.6708 15.9728 41.5267 15.9949 40.7108 15.9949C40.7665 16.0505 40.9264 16.1949 40.8308 16.1949C40.8308 16.1949 40.9108 16.4749 41.1908 16.5949C41.7299 16.7792 42.2635 16.9793 42.7908 17.1949L42.5108 16.9949C42.4999 16.9894 42.3256 16.6483 42.3108 16.6349C42.7547 16.7458 42.5498 16.4182 42.3108 16.2749C42.1465 16.2135 42.013 16.1682 42.0708 15.9949L41.8708 15.8749ZM41.3908 14.6749C40.9641 14.431 40.4671 14.4144 39.9908 14.3549C40.1938 14.5578 39.9441 14.9903 40.4308 15.3149C40.7108 15.4749 40.8308 15.4749 41.1508 15.5149L42.1108 15.7949L41.7908 15.6349C41.7108 15.5949 41.6708 15.5949 41.7908 15.6349C41.863 15.5868 41.7763 15.1803 41.5108 14.9149C41.4112 14.8914 41.3165 14.8508 41.2308 14.7949L41.3908 14.6749ZM40.6308 13.3549L40.5708 13.3149L40.3908 13.2749L38.9108 13.0749C39.0117 13.6803 39.1984 13.9174 39.5508 14.0349C40.091 14.2275 40.6577 14.3355 41.2308 14.3549C40.3194 14.2247 40.6308 13.1883 40.6308 13.3549Z" fill="#FFD43F"/>
<path d="M39.7108 12.1548L39.5108 12.0748L38.2308 12.1148C38.2077 12.1148 38.6285 12.6517 38.7908 12.6748C37.2675 12.6748 40.0057 13.0793 40.3908 13.1948C40.3022 13.1554 40.0637 12.7077 39.9508 12.5948C39.9508 12.5223 39.1133 11.9557 39.7108 12.1548ZM38.5908 10.9948H38.4308V10.9548H37.3508L36.9508 11.0748L37.0708 11.1948C38.1804 11.6216 37.1842 11.8748 38.5508 11.8748C39.5724 11.8748 38.9035 11.6201 38.5908 10.9948Z" fill="#FFD43F"/>
<path d="M37.2308 9.99485L37.1908 9.91485H36.9508C36.6708 9.91485 36.5508 9.91485 36.3108 9.99485C36.1483 10.024 35.988 10.0641 35.8308 10.1149C36.5822 10.1149 35.8327 10.8285 36.5908 10.9549H37.4708L38.3508 10.8349C38.0228 10.7938 38.0547 10.5549 37.7108 10.5549C38.6042 10.6361 37.5993 10.2116 37.2308 9.99485C37.6951 9.99485 37.6023 10.1187 37.2308 9.99485ZM35.7908 8.95485C35.3796 9.06951 34.9662 9.1762 34.5508 9.27485C34.7695 9.27485 35.2433 9.58902 34.8308 9.63485L35.5908 9.75485C35.1265 9.84191 34.6916 10.0349 35.4708 10.0349L36.1908 9.95485C36.6308 9.83485 37.1908 9.83485 37.1908 9.83485C36.4943 9.7652 36.9508 9.5192 36.9508 9.47485C36.134 9.47485 36.2654 9.07351 35.7908 8.95485ZM34.5908 8.15485C34.1933 8.3536 33.7367 8.46708 33.3108 8.59485H33.5908C33.2193 8.89209 34.0616 8.89312 34.3908 8.95485C33.1802 9.16849 34.4064 9.32463 35.0308 9.07485C35.848 8.8972 34.8686 8.15485 34.5908 8.15485ZM33.3908 7.47485H33.0708C32.8117 7.56335 31.5601 7.99485 32.2708 7.99485C31.7945 8.3759 33.2621 8.20313 32.4308 8.51485C32.4308 8.51485 32.7108 8.63485 32.9908 8.59485C33.5569 8.48163 34.0526 8.14713 34.6308 8.07485C34.5754 8.07485 34.0666 8.09694 34.2708 7.99485C34.2708 7.65544 33.1366 7.72905 33.3908 7.47485C33.4431 7.37027 33.6174 7.24824 33.3908 7.47485ZM30.9908 7.23485L30.9108 7.43485C30.9224 7.44639 31.526 7.9498 31.6308 7.91485C31.9404 7.83639 33.4593 7.23485 32.5508 7.23485C33.0056 7.00746 31.9765 7.07189 31.9108 6.87485C31.9852 6.87485 31.1884 7.12947 30.9908 7.23485ZM30.5108 6.27485C29.9386 6.60865 28.6841 7.92819 30.2708 7.47485C30.5257 7.40538 30.7685 7.29748 30.9908 7.15485L31.7908 6.75485C30.8348 6.87435 31.7428 6.35711 30.5108 6.47485L30.5508 6.43485C30.305 6.43485 30.9242 6.27485 30.5108 6.27485ZM28.9908 5.87485L28.9108 5.99485H28.8308L28.7108 6.03485V6.07485C27.4003 6.91376 28.7168 7.36991 29.5508 6.67485L30.3508 6.27485L30.0308 6.31485C29.9508 6.35485 29.9508 6.35485 30.0308 6.31485C30.0308 6.31485 29.0343 5.99485 28.9908 5.99485C29.2284 5.91565 29.2658 5.82902 28.9908 5.87485ZM26.9908 5.95485L26.5108 6.35485C26.3817 6.46857 26.2734 6.60393 26.1908 6.75485C27.2588 6.41758 26.4603 7.16457 27.3508 6.55485C26.9421 6.86922 26.6554 7.12001 27.3908 6.87485L28.1108 6.39485C28.9054 5.69964 27.7823 6.11912 28.5108 5.75485C28.0093 5.81755 27.4905 5.62174 26.9908 5.95485ZM26.0308 5.43485V5.47485L25.7908 5.67485H25.7108V5.71485L25.5508 5.79485C25.3748 5.93803 25.214 6.09887 25.0708 6.27485C24.7874 6.62916 25.9104 6.74658 26.5108 6.27485C26.7654 6.06408 27.0059 5.83693 27.2308 5.59485L26.9908 5.79485C26.5135 6.11308 27.0879 5.16631 26.2308 5.59485C25.7977 5.86894 26.0388 5.43485 26.0308 5.43485ZM24.4308 5.43485L24.3108 5.55485L24.1908 5.67485H24.1108V5.75485C23.2085 6.20603 23.9911 6.31421 23.7108 6.87485C24.325 6.40239 24.0004 6.7565 23.9508 6.95485C23.9508 6.95485 24.2308 6.91485 24.4708 6.67485C24.7108 6.55485 24.7908 6.43485 25.0308 6.19485C25.2181 6.001 25.9082 5.19749 25.3908 5.71485C25.2832 5.76868 25.3508 5.61907 25.3508 5.55485C24.8158 5.76065 25.6079 5.3263 25.0708 5.59485C25.0708 5.37111 24.6806 5.54995 24.9908 5.39485C24.9503 5.41735 24.4395 5.43485 24.4308 5.43485ZM22.7108 5.75485C22.2296 6.02982 21.6667 6.93417 22.5108 7.07485C22.5108 7.07485 22.7908 7.07485 22.9908 6.83485C23.2308 6.63485 23.3108 6.55485 23.4708 6.31485C23.6985 6.05997 23.9121 5.79291 24.1108 5.51485C23.818 5.80766 22.7108 5.31875 22.7108 5.75485Z" fill="#FFD43F"/>
<path d="M43.6308 20.1548L43.5508 20.0749C43.6798 20.1823 43.7866 20.1548 43.6308 20.1548ZM41.6308 14.8749L41.2308 14.7949C41.3642 14.8215 41.4975 14.8482 41.6308 14.8749ZM38.2308 12.1148C38.6999 12.1149 38.5701 12.1149 38.2308 12.1148ZM37.7108 10.5549C36.9197 10.5548 37.4977 10.3417 37.7108 10.5549ZM35.5908 9.75485C36.3775 9.45231 36.5527 9.69474 35.5908 9.75485Z" fill="#663206"/>
<path d="M33.5908 8.59485C33.9539 8.59485 33.774 8.65589 33.5908 8.59485ZM32.2708 7.99485C32.5578 7.70785 32.6883 7.99484 32.2708 7.99485Z" fill="#663206"/>
<path d="M30.9108 7.43485C30.9109 7.27576 31.333 7.43485 30.9108 7.43485Z" fill="#663206"/>
<path d="M28.9908 5.99485H28.9108C28.7123 6.25958 28.8419 6.00172 28.9908 5.99485ZM27.3508 6.55485C27.3511 5.82996 28.5322 5.79879 27.3508 6.55485Z" fill="#663206"/>
<path d="M24.3108 5.55485L24.1908 5.67485L24.2708 5.63485L24.3108 5.55485Z" fill="#663206"/>
<path d="M8.35084 16.6748C8.24601 16.4128 8.2882 16.3617 8.35084 16.6748ZM6.91084 20.7548C6.61547 20.5439 6.6009 20.4837 6.91084 20.7548Z" fill="#663206"/>
<path d="M10.2708 36.3949C9.80034 36.3949 9.94248 36.3949 10.2708 36.3949Z" fill="#663206"/>
<path d="M18.3108 43.4749C18.4134 43.4749 18.4692 43.3693 18.3108 43.4749Z" fill="#663206"/>
<path d="M39.5108 36.4349C39.7121 36.6361 39.5108 37.0177 39.5108 36.4349Z" fill="#663206"/>
<path d="M43.3108 27.8749C43.4815 27.8749 43.6353 28.459 43.3108 27.8749Z" fill="#663206"/>
<path d="M23.6308 39.8349H24.5908L24.9108 38.9149L25.1908 39.8349H26.1908L25.3908 40.3949L25.7108 41.3549L24.9108 40.7549L24.1108 41.3149L24.4308 40.3949L23.6308 39.8349ZM17.4708 37.9149L18.3508 38.3149L19.0308 37.6349L18.9108 38.5949L19.7908 38.9949L18.8308 39.1949L18.7108 40.1549L18.2308 39.3149L17.3108 39.4749L17.9508 38.7949L17.4708 37.9149ZM30.0308 38.9949L30.9108 38.5949L30.7908 37.6349L31.4308 38.2749L32.3108 37.8749L31.8708 38.7149L32.5108 39.4749L31.5508 39.2749L31.1108 40.1549L30.9908 39.1949L30.0308 38.9949ZM11.2708 27.9148V28.3549L11.1908 28.3948C10.6272 28.7706 9.675 28.7768 9.03083 28.9149H8.87083L8.79083 28.6749C8.63083 27.7948 9.15083 27.4748 9.99083 27.2748C10.5508 27.1549 11.1108 27.1948 11.2708 27.9148H11.3508C11.2308 27.1548 10.6708 26.6349 9.79083 26.8349C8.91083 26.9549 8.47083 27.7149 8.67083 28.5949L8.83083 29.2348L8.91083 29.7948L8.99083 29.7549C8.99083 29.6348 8.95083 29.4349 9.07083 29.3549C9.78444 29.1744 10.5791 28.9567 11.3108 28.9149C11.4308 28.9149 11.4708 29.1148 11.5108 29.2348H11.5908C11.6308 29.0348 11.5508 28.8349 11.5108 28.6749L11.3908 27.9549L11.2708 27.9148ZM8.55083 25.9149C8.39083 25.9549 8.39083 26.1948 8.39083 26.3548H8.31083V24.1948H8.95083V24.2748C8.43083 24.3948 8.43083 24.6748 8.43083 25.0749V25.3549C8.43083 25.5149 8.43083 25.4748 8.59083 25.4748H9.59083C9.59083 24.9148 9.39083 24.8349 9.07083 24.7948V24.7148H10.1508V24.7948C9.75083 24.8748 9.71083 25.0748 9.71083 25.4748H10.3908C10.5108 25.4748 10.7108 25.4748 10.7908 25.3948C10.9908 25.3148 11.0308 25.0749 10.9908 24.8748C10.9508 24.4348 10.9108 24.1549 10.3908 24.0749V23.9949H11.0708V26.3148H10.9908C10.9908 26.1949 10.9908 25.9949 10.8308 25.9548C10.6467 25.9172 10.4584 25.9038 10.2708 25.9149H8.55083ZM9.83083 22.7948L8.83083 22.5948C8.63083 22.5948 8.63083 22.5949 8.67083 22.2749C8.75083 21.8749 8.99083 21.7148 9.39083 21.7948C9.83083 21.8749 9.99083 22.1149 9.91083 22.5548L9.83083 22.7948H9.95083L10.0308 22.5148C10.1108 22.0348 10.0308 21.3948 9.47083 21.3148C8.91083 21.2348 8.67083 21.7148 8.59083 22.1148L8.35083 23.3548H8.51083C8.51083 23.2348 8.51083 23.0748 8.71083 23.0348C9.442 23.1393 10.2112 23.1925 10.9108 23.4348C11.0308 23.5148 10.9908 23.6748 10.9508 23.8349H11.0708L11.3108 22.5948H11.2308C11.2308 22.6748 11.1908 22.8748 11.0308 22.8748L9.95083 22.7948H9.83083ZM10.5108 20.8749L10.8308 19.9949L9.55083 20.0749L10.5108 20.8749L10.6308 20.9949C10.8804 21.1196 11.0517 21.3712 11.3108 21.4748C11.4308 21.5148 11.5108 21.3148 11.5508 21.1948H11.6308C11.5296 21.4733 11.4395 21.7523 11.3508 22.0348H11.2708C11.2708 21.8348 11.2708 21.7148 11.1108 21.5548C10.8985 21.3538 10.6852 21.1538 10.4708 20.9549L9.11083 19.8749V19.6749C9.82656 19.6506 11.3621 19.934 11.9908 19.5149C12.1108 19.4749 12.1108 19.3549 12.2308 19.2349H12.3108L11.9108 20.3948H11.8308C11.8308 20.2748 11.9508 20.0349 11.7908 19.9549H10.9908L10.6308 20.9949L10.5108 20.8749ZM13.7108 13.7149L13.6308 13.7949C13.3108 13.5549 13.1108 13.5949 12.8308 13.8749C12.7508 13.9949 12.5508 14.1949 12.6708 14.2749L14.1908 15.5949C14.4308 15.7949 14.5108 15.7948 14.8308 15.4748L14.9108 15.5949L14.4308 16.1149L14.0308 16.5948L13.8708 16.5549C14.1908 16.2349 14.1108 16.1149 13.9108 15.8749L12.3908 14.5949C12.2708 14.5149 12.1908 14.6749 12.0708 14.7949C11.7908 15.1149 11.6708 15.2749 12.0708 15.5949L11.9508 15.7149L11.4708 15.2748L13.1908 13.2748L13.7108 13.6749V13.7149ZM17.4708 13.1149L17.9108 12.9548L17.9508 13.0749L16.9108 13.8349L16.8708 13.7549C17.455 13.2437 16.1817 12.1557 15.8308 11.6748L16.4708 14.1949H16.4308L14.1108 12.9548C14.4363 13.3888 15.1574 14.9225 15.8708 14.5149L15.9108 14.5949C15.6645 14.7732 15.4244 14.96 15.1908 15.1549L15.1508 15.0749C15.7389 14.5848 14.353 13.2843 13.9508 12.9148C13.7908 12.8348 13.6708 12.9149 13.5508 13.0349L13.5108 12.9548C13.724 12.779 13.9295 12.6008 14.1508 12.4348L16.1508 13.6349L15.6308 11.3148L15.9108 11.0749L16.2308 10.8348L16.3108 10.9148C16.1908 11.0748 16.0708 11.1149 16.1108 11.2748C16.1108 11.8137 17.1646 12.7211 17.4708 13.1149ZM17.3508 10.5548C17.2708 10.4748 17.1108 10.5548 16.9908 10.5948L16.9108 10.5149L18.8308 9.63485L19.1108 10.2748H19.0308C18.7508 9.87485 18.5108 9.95485 18.1108 10.1149L17.8308 10.2748C17.6776 10.2748 18.1647 11.2094 18.2308 11.3548C18.7508 11.1148 18.7508 10.8748 18.6308 10.5548H18.7108L18.9508 11.0749L19.1908 11.4748L19.1108 11.5548C18.8708 11.1548 18.6308 11.2748 18.3108 11.4748C18.3929 11.7211 18.485 12.2619 18.7508 12.3948C19.1817 12.718 19.9593 11.9782 19.7908 11.5148L19.9108 11.3949L20.1508 12.0348L18.1108 13.0749L18.0308 12.9548C18.1908 12.8748 18.3108 12.8348 18.3108 12.6748C18.3108 12.0172 17.6224 11.1266 17.3508 10.5548ZM19.9908 9.39485L19.7108 9.35485V9.27485L20.3908 9.07485L22.5908 10.7948C22.486 10.208 22.4298 9.61012 22.1508 9.07485C22.1108 8.83485 21.9508 8.87485 21.7508 8.91485V8.83485C22.034 8.709 22.3853 8.75855 22.6308 8.59485L22.6708 8.71485C22.4708 8.75485 22.3908 8.75485 22.3508 8.95485L22.9108 11.4748H22.7508C21.9737 10.8202 21.1565 10.2146 20.3508 9.59485L20.9108 11.5949C21.0308 11.7548 21.1508 11.7148 21.3108 11.6748V11.7548L20.3508 11.9948V11.8748C20.5108 11.8748 20.6708 11.7949 20.6708 11.5949L19.9908 9.39485ZM25.7108 9.15485C25.6308 8.75485 25.4308 8.63485 25.0308 8.63485C24.8708 8.63485 24.6308 8.63485 24.6308 8.75485L24.6708 10.7548C24.6708 11.0748 24.7508 11.1548 25.1508 11.1948V11.2748H24.5108L23.7908 11.3148V11.2348C24.1908 11.2348 24.2708 11.0748 24.2708 10.7948L24.1908 8.79485C24.1908 8.67485 23.9908 8.67485 23.8308 8.67485C23.4308 8.67485 23.2308 8.71485 23.2308 9.23485H23.1108V8.55485L25.6708 8.47485L25.7508 9.15485H25.7108ZM41.1908 27.6348H41.3108L40.7908 29.7149L40.1908 29.5548V29.4349C40.7794 29.4801 40.8825 29.0335 40.9508 28.5549C40.9108 28.4349 40.9108 28.4348 40.7908 28.3948L39.8308 28.1948C39.7108 28.6749 39.9108 28.8748 40.1908 28.9949C39.9508 29.0349 39.7508 28.9549 39.5908 28.9149L39.1108 28.7948V28.7149C39.5508 28.7549 39.6308 28.5548 39.7508 28.1549C39.5611 28.1102 38.84 27.8256 38.6708 27.9949C38.4308 27.9949 38.3508 28.2748 38.3108 28.3948C38.2708 28.8748 38.2708 29.1549 38.7508 29.3148V29.4749L38.0308 29.2348L38.5908 27.0349H38.6708C38.6708 27.1949 38.6308 27.3549 38.7508 27.4349C39.1125 27.7965 41.1908 28.1544 41.1908 27.6348ZM41.3908 26.5149V26.5948H40.5908V26.5149C41.0308 26.4349 41.3908 26.1148 41.3908 25.6348C41.3908 24.9149 40.6708 24.6749 40.0308 24.6749C39.4308 24.6749 38.8308 24.8349 38.7908 25.5949C38.7908 26.1549 39.1108 26.3948 39.5908 26.5149V26.5948C39.0525 26.4872 38.5902 26.0574 38.6308 25.4748C38.6308 24.6748 39.1908 24.1149 40.0708 24.1149C40.8708 24.1149 41.5108 24.7549 41.4708 25.5949C41.4708 25.9548 41.3108 26.3148 41.3108 26.3948L41.3908 26.5149ZM40.9508 22.5148C41.1508 22.4748 41.1908 22.2748 41.1508 22.1549H41.2708L41.4308 23.3548H41.2708C41.3108 23.2748 41.3108 23.0749 41.1108 23.0749L38.8708 23.3548C38.7108 23.4348 38.7108 23.5949 38.7508 23.7549H38.6308L38.4708 22.5148H38.5508C38.5508 22.6348 38.6308 22.7949 38.7508 22.8349L40.9508 22.5148ZM40.5108 21.6348L40.4708 21.5149C40.8708 21.3949 40.8708 21.1948 40.7908 20.8349C40.7508 20.6749 40.7108 20.4348 40.5108 20.4748L38.6708 21.0349C38.3908 21.1549 38.2708 21.2348 38.3908 21.6348H38.3108L37.9108 20.3548H37.9908C38.1108 20.6749 38.2708 20.7149 38.5508 20.5949L40.4308 20.0749C40.5508 20.0349 40.5108 19.8749 40.4308 19.6749C40.3108 19.3149 40.2308 19.1549 39.7508 19.3149V19.1149L40.3508 18.9549L41.1108 21.3948L40.5108 21.6348ZM37.5508 17.5948V17.6749C37.2708 17.9549 37.0708 18.2749 37.2708 18.6749C37.3908 19.0749 37.7108 19.1549 37.9908 19.0749C38.3108 18.8349 38.3108 18.4748 38.2708 18.1549C38.2708 17.7549 38.2308 17.3149 38.6708 17.0749C39.0708 16.8749 39.4708 17.0749 39.7108 17.4749C39.7973 17.6627 39.8384 17.8682 39.8308 18.0749C39.8308 18.1549 39.9908 18.1549 39.9908 18.1549L39.3508 18.5549V18.4348C39.5508 18.1948 39.7108 17.8749 39.5508 17.5549C39.4708 17.3149 39.1908 17.1549 38.9908 17.3148C38.6708 17.4348 38.7108 17.7549 38.7508 18.0349C38.7508 18.5149 38.7908 19.0349 38.3508 19.2748C37.7908 19.5548 37.3108 19.1949 37.1108 18.7549C37.0142 18.5562 36.9861 18.3312 37.0308 18.1149C37.0308 17.9949 36.8308 17.9949 36.8308 17.9949V17.9549L37.5508 17.5948ZM36.3508 13.2348C36.5108 13.1149 36.6708 13.2349 36.7908 13.3149L35.8708 12.4748L35.7908 12.5148C35.9108 12.5949 36.0308 12.7148 35.9908 12.8748L35.6308 13.2748L34.5508 14.4749C34.3716 14.6002 34.1118 14.5829 33.9508 14.4348C33.7905 14.3403 33.5496 13.9554 33.7908 13.8349H33.8708L33.9508 13.9549C34.1108 14.0749 34.2708 14.0349 34.3908 13.8749C34.5108 13.7149 34.4308 13.5949 34.3108 13.4748C34.1108 13.3148 33.9108 13.4349 33.7108 13.5949C33.4308 13.8749 33.5508 14.3548 33.8708 14.6348C34.1108 14.7948 34.3108 14.9149 34.5508 14.9149C34.8308 14.8749 35.0308 14.6749 35.1908 14.5149L36.3508 13.2348ZM37.3908 16.8349L35.8708 16.6748C35.3508 16.0749 35.3108 15.6349 35.9508 15.1549L36.7508 14.5549C36.8995 14.4378 37.0337 14.3035 37.1508 14.1549C37.2308 14.1149 37.1508 13.9549 37.0308 13.8749L37.1108 13.7549L37.4708 14.2749L37.8708 14.7549L37.7908 14.8349C37.7108 14.6749 37.5908 14.5549 37.4708 14.5949C37.1204 14.5949 36.4675 15.2812 36.1908 15.4748C35.7908 15.8748 35.6308 16.1948 35.9908 16.6748C36.3508 17.1549 36.7908 17.1948 37.1908 16.8349L37.9108 16.2748L38.3508 15.8749C38.5108 15.7149 38.3508 15.5549 38.2708 15.4349L38.3508 15.3948C38.443 15.529 38.5363 15.6624 38.6308 15.7949L38.9508 16.1149L38.8708 16.1948C38.7908 16.0749 38.7108 15.9549 38.5108 15.9949L37.9908 16.3549L37.3908 16.8349ZM32.9908 11.3148H32.9108C32.9108 11.0748 32.9908 10.8749 32.8308 10.7148C32.4993 10.5363 32.1861 10.1845 31.9108 10.5149L31.5108 11.3148C32.0308 11.5948 32.1908 11.4748 32.3508 11.1948H32.4308C32.3097 11.5582 32.1066 11.8842 31.9508 12.2348L31.8708 12.1549C31.9908 11.7548 31.8308 11.6348 31.4708 11.4348C31.3283 11.7199 31.0308 12.109 31.0308 12.4348C31.0308 12.5948 31.1908 12.6748 31.3108 12.7548V12.8348L30.6708 12.5148C30.4974 12.4351 30.3241 12.3551 30.1508 12.2748V12.1549C30.3108 12.2348 30.4308 12.3149 30.5508 12.1948L31.5908 10.1549C31.5908 9.99485 31.4308 9.91485 31.3108 9.87485L31.3508 9.79485L33.2308 10.7148L32.9908 11.3148ZM29.4708 9.23485L30.1108 10.6348C29.7548 11.169 29.6255 11.9978 28.7508 11.7548C28.0308 11.5548 27.9508 10.8748 28.1508 10.2748C28.3108 9.63485 28.7508 9.03485 29.4708 9.23485V9.07485C28.7508 8.91485 27.9108 9.27485 27.6708 10.0748C27.4308 10.8748 27.9508 11.6748 28.7508 11.8748C29.5508 12.0748 30.3508 11.7148 30.5908 10.8748C30.7908 10.0748 30.2708 9.31485 29.5108 9.11485L29.4708 9.23485ZM10.6708 17.2348L10.5108 16.9549C10.85 16.7005 10.989 16.4072 11.4708 16.6748C12.0103 16.9446 11.7346 17.3873 11.5508 17.7549L11.7108 17.7949C11.7341 17.7138 11.7608 17.6337 11.7908 17.5549L11.9908 17.3148C12.199 17.176 12.5846 17.5065 12.7908 17.5948C13.0137 17.6765 13.303 17.6656 13.4308 17.4348C13.5508 17.2348 13.4308 17.0349 13.4308 16.9949C13.4308 16.8349 13.3108 16.7949 13.3108 16.7949C13.3108 16.9153 13.3247 17.057 13.1908 17.1149C13.0717 17.2339 12.7293 17.041 12.5908 16.9949C12.3508 16.9549 12.1908 16.9549 12.0308 17.0749C12.1108 16.7549 12.0308 16.4348 11.7108 16.2748C11.2308 15.9548 10.8308 16.3149 10.5908 16.7149L9.95083 17.7949H10.1108C10.1108 17.7548 10.1908 17.5949 10.3508 17.6349C10.8799 17.6349 12.0973 18.4145 12.3508 18.7949C12.4708 18.8749 12.3508 19.0349 12.3108 19.1948H12.3908L13.0308 18.0749L12.9108 18.0349C12.8708 18.1549 12.7908 18.2749 12.6308 18.2749C11.9397 18.0498 11.3017 17.5853 10.6708 17.2348Z" fill="#FFD43F"/>
<path d="M24.9108 11.7148H24.1508L23.5108 11.7948L22.8308 11.8748L21.5508 12.1148L20.2708 12.5148L19.7108 12.7548L19.1108 13.0748L18.5108 13.3148L17.9508 13.6348L17.4308 13.9949L16.3908 14.7948L15.4308 15.5948L15.0308 16.0749L14.5908 16.5548L13.7908 17.5948L13.4708 18.1149L12.8708 19.2748L12.3508 20.4748L12.1508 21.0749L11.9508 21.7148L11.7108 22.9949L11.5508 24.3548V25.0748C11.5587 27.7076 12.3467 30.2789 13.8151 32.4641C15.2835 34.6493 17.3665 36.3503 19.8011 37.3524C22.2357 38.3544 24.9127 38.6125 27.4939 38.094C30.0751 37.5756 32.4447 36.3038 34.3035 34.4394C36.1624 32.575 37.427 30.2015 37.9377 27.6188C38.4485 25.036 38.1824 22.3599 37.173 19.9283C36.1637 17.4967 34.4564 15.4188 32.2669 13.9569C30.0773 12.4951 27.5436 11.7149 24.9108 11.7148Z" fill="#FFD43F"/>
<path d="M24.9108 12.4749C20.5108 12.2749 14.6028 15.7447 12.8708 21.3148C12.8033 21.532 12.7108 21.8748 12.7108 21.8748L12.5108 22.5148V23.0749L12.3908 23.7549L12.3108 24.3948V25.0349C12.3108 27.519 13.0475 29.9473 14.4276 32.0128C15.8077 34.0783 17.7693 35.6881 20.0643 36.6388C22.3594 37.5894 24.8848 37.8381 27.3212 37.3535C29.7576 36.8689 31.9955 35.6727 33.7521 33.9161C35.5086 32.1596 36.7049 29.9216 37.1895 27.4852C37.6741 25.0488 37.4254 22.5234 36.4748 20.2283C35.5241 17.9333 33.9143 15.9717 31.8488 14.5916C29.7833 13.2115 29.3108 12.6748 24.9108 12.4749Z" fill="#FFEAB9"/>
<path d="M24.9108 12.4749C20.5108 12.2749 14.6028 15.7447 12.8708 21.3148C12.8033 21.532 12.7108 21.8748 12.7108 21.8748L12.5108 22.5148V23.0749L12.3908 23.7549L12.3108 24.3948V25.0349C12.3108 27.519 13.0475 29.9473 14.4276 32.0128C15.8077 34.0783 17.7693 35.6881 20.0643 36.6388C22.3594 37.5894 24.8848 37.8381 27.3212 37.3535C29.7576 36.8689 31.9955 35.6727 33.7521 33.9161C35.5086 32.1596 36.7049 29.9216 37.1895 27.4852C37.6741 25.0488 37.4254 22.5234 36.4748 20.2283C35.5241 17.9333 33.9143 15.9717 31.8488 14.5916C29.7833 13.2115 29.3108 12.6748 24.9108 12.4749Z" fill="#FFEAB9"/>
<path d="M13.0308 25.0749L13.0708 25.1549L13.1508 25.2349L13.4708 25.3549C13.7827 25.3549 14.0717 25.1264 14.0708 24.7949C14.0931 24.4942 13.8547 24.2158 13.5508 24.1949C13.2833 24.1836 13.0262 24.3881 12.9769 24.6512C12.9605 24.739 12.9653 24.8293 12.9908 24.9149H13.0708V24.7549C13.0708 24.6749 13.0708 24.5949 13.1908 24.5949C13.2708 24.5949 13.3508 24.6349 13.3508 24.7549C13.3108 24.9149 13.1108 24.9149 12.9908 24.9149H12.9508C12.8308 24.9149 12.6708 24.9548 12.6708 25.1549L12.7108 25.3148L12.9108 25.3549L12.7908 25.2749L12.9908 25.1149L13.1108 24.9949C13.3108 25.0749 13.3508 24.9149 13.3508 24.7549C13.3508 24.5949 13.3108 24.5149 13.1508 24.5149C13.2308 24.4349 13.3908 24.4349 13.5508 24.4349C13.7103 24.4408 13.8762 24.4838 13.9908 24.5949C13.9908 24.7181 14.0166 24.8656 13.9597 24.9793C13.9312 25.0363 13.8863 25.0835 13.8308 25.1149C13.6244 25.1446 13.2844 25.1906 13.1108 25.0749H13.0308ZM14.1508 28.8749L14.5508 28.6749H14.5908C14.6847 28.8625 14.7598 29.0955 14.5508 29.2348C14.3508 29.2748 14.2708 29.1949 14.2308 28.9949L14.1108 28.8749C14.1565 29.0573 14.1693 29.256 14.3508 29.3549C14.5195 29.4348 14.8699 29.3521 14.7908 29.1149L14.7508 28.9149L14.5508 28.3949C14.5508 28.3949 14.5508 28.5149 14.5108 28.5549L13.7108 28.8349C13.5508 28.8349 13.4708 28.7549 13.4708 28.7549L13.6308 29.1549V29.0749L14.1108 28.8749H14.1508ZM36.2708 24.7949V24.5149L36.0308 24.3549C35.9108 24.3549 35.8308 24.3948 35.8308 24.5548C35.8242 24.6347 35.8242 24.715 35.8308 24.7949H36.7108L36.9108 24.6348V25.1149L36.8308 24.9949H35.8708C35.7908 24.9949 35.7908 25.1149 35.7908 25.1149V24.5949C35.7108 24.3949 35.7508 24.1949 35.9908 24.1549C36.1508 24.1549 36.2308 24.3149 36.2708 24.5149C36.3108 24.3149 36.3908 24.2749 36.5108 24.2749C36.5893 24.2356 36.7084 24.2397 36.7508 24.1549C36.7908 24.0748 36.7108 24.0749 36.7108 24.0749C36.7508 24.0749 36.8708 24.0749 36.8708 24.1949L36.8308 24.3549L36.5908 24.3949C36.4308 24.4749 36.3108 24.5549 36.3108 24.7549V24.8349L36.2708 24.7949ZM18.1108 33.4749L18.2308 33.5949C18.2308 33.7991 18.2794 33.9788 18.1108 34.1149C17.9508 34.2749 17.7108 34.4349 17.5108 34.2749C17.1218 33.9506 17.5551 33.5527 17.8708 33.3949C17.9508 33.3949 18.0308 33.3949 18.1108 33.4749C17.9912 33.3868 17.8832 33.3463 17.7355 33.361C17.5877 33.3758 17.4506 33.4449 17.3508 33.5549C17.1574 33.7841 17.1958 34.1685 17.4308 34.3549C17.6751 34.5484 18.0616 34.5058 18.2708 34.2749C18.3609 34.162 18.4039 34.0187 18.3908 33.8749C18.3694 33.6826 18.2631 33.5792 18.1108 33.4749ZM16.3108 33.1149L16.8708 32.5549C17.0297 32.5549 17.1334 32.646 17.1908 32.7949C17.3108 32.9149 17.1908 33.0749 17.1508 33.1149C17.0605 33.2353 16.8617 33.4749 16.7108 33.4749C16.5101 33.3946 16.411 33.3152 16.3108 33.1149L16.2308 32.9549L16.1108 32.9949H15.9908C16.1819 33.1646 16.3675 33.3881 16.5908 33.5149C16.7908 33.6349 17.0308 33.5149 17.1908 33.3949C17.4063 33.1334 17.3889 32.833 17.1508 32.5949L16.7508 32.1949V32.3149L16.7908 32.3549L16.2308 32.9549L16.3108 33.1149ZM15.7108 30.9549C15.7503 31.1918 15.7864 31.383 15.5108 31.4749C15.3108 31.6349 15.0308 31.7549 14.8708 31.5149C14.7108 31.1949 14.9108 30.9949 15.0708 30.8749C15.2399 30.8153 15.6404 30.7434 15.7108 30.9549L15.7908 30.9149C15.7083 30.7856 15.5794 30.6928 15.4306 30.6556C15.2819 30.6184 15.1245 30.6396 14.9908 30.7148C14.7253 30.8804 14.6473 31.257 14.8308 31.5149C14.9824 31.7865 15.3667 31.8909 15.6308 31.7149C15.7528 31.6289 15.8384 31.5005 15.8708 31.3549C15.8708 31.1949 15.8708 31.0749 15.7908 30.9149L15.7108 30.9549ZM18.1908 34.8749H18.3508C18.4145 34.833 18.4689 34.7785 18.5108 34.7149L18.8308 34.1549V34.0749C18.8146 34.0498 18.8011 34.0229 18.7908 33.9949L19.1108 34.1549L18.9908 35.0749L19.6708 34.4749L19.9908 34.6749L19.7908 34.8349L19.3908 35.4749V35.6349L19.1108 35.3949C19.1108 35.3949 19.2308 35.3949 19.2708 35.3149L19.7108 34.5949L18.8308 35.2349H18.7508L18.9508 34.1549L18.5108 34.7149C18.4874 34.8295 18.5108 34.9579 18.5108 35.0749L18.1908 34.8749ZM20.5108 36.0749H20.5908C20.7508 36.0749 20.7508 35.8749 20.7908 35.8349L20.9108 35.1949C20.9908 35.1149 20.9108 35.0749 20.9108 35.0749L21.1908 35.1549L21.5908 36.1149L21.7108 35.3149L21.9908 35.4749H21.9108L21.5108 36.4749L21.0308 35.3149L20.8308 35.8749C20.8308 35.8749 20.7508 35.9949 20.8308 36.0749C20.8411 36.1029 20.8546 36.1298 20.8708 36.1549L20.5108 36.0749ZM24.8308 36.7149H24.7508C24.6999 36.8676 24.6033 36.9149 24.4308 36.9149C24.2308 36.9149 24.1108 36.7949 24.1108 36.6349C24.1108 36.5549 24.1108 36.4749 24.2708 36.4749C24.3508 36.4749 24.3908 36.4749 24.3908 36.5549C24.3908 36.6349 24.3508 36.6749 24.2708 36.6749H24.1508L24.3508 36.8349C24.5108 36.8349 24.5908 36.7949 24.6308 36.7149C24.6429 36.6353 24.6429 36.5544 24.6308 36.4749V35.8749L24.5108 35.7949H24.9108V35.8749C24.8308 35.8749 24.8308 35.8749 24.8308 35.9549V36.7149ZM25.1908 35.8349L25.6308 35.7949L25.5508 35.8349L25.5108 35.9149L25.5508 36.4749C25.5508 36.5949 25.5508 36.6749 25.6708 36.7149C25.7508 36.7949 25.8308 36.7949 25.9108 36.7949C26.0756 36.7949 26.2334 36.6373 26.2308 36.4749V35.9949L26.1508 35.8349C26.1108 35.7549 26.0708 35.7549 26.0708 35.7549H26.3908L26.3108 35.7949V36.3549C26.3108 36.6815 26.2112 36.8349 25.8708 36.8349H25.7108C25.5754 36.8349 25.3908 36.7509 25.3908 36.5949L25.3108 35.9549V35.8749C25.2732 35.8552 25.2327 35.8417 25.1908 35.8349ZM26.7108 36.3549L26.8308 36.4749L27.3108 36.5949C27.6971 36.5949 27.2924 36.3692 27.1508 36.2749C27.0308 36.1549 26.9108 36.1949 26.8308 36.1149C26.7582 36.0867 26.699 36.0275 26.6708 35.9549C26.6708 35.7549 26.7508 35.6349 26.9908 35.5549C27.1019 35.559 27.2109 35.5862 27.3108 35.6349H27.3908V35.5549L27.5108 35.9549C27.5108 35.9549 27.3908 35.5949 26.9908 35.6749C26.8834 35.6749 26.7811 35.7596 26.7908 35.8749C26.7908 36.0949 27.1705 36.0349 27.3108 36.0349C27.4637 36.0349 27.6259 36.1175 27.6708 36.2749C27.6708 36.3949 27.6708 36.4749 27.5508 36.5549C27.4839 36.6169 27.4006 36.6585 27.3108 36.6749H26.8708L26.8308 36.7149L26.7108 36.3549ZM29.5508 35.0749L29.4308 34.8349L30.3508 34.3949L30.4708 34.5949L30.3108 34.5149L30.0308 34.6749L30.4708 35.4349H30.6708L30.1108 35.6749L30.2708 35.5549L29.8308 34.7949C29.7437 34.7658 29.5508 34.7676 29.5508 34.9149V35.0749ZM31.1108 35.1949L31.1508 34.9949L30.7508 34.3549L30.6308 34.2749C30.578 34.2641 30.5236 34.2641 30.4708 34.2749L30.9108 34.0749V34.2749L31.3108 34.9149H31.5108L31.1108 35.1949ZM31.7508 34.2749L32.0708 34.0349L31.6708 33.7949L31.7508 34.2749L31.7108 34.3549L31.7508 34.4749L31.7908 34.5549L31.9508 34.6349L31.7108 34.8349V34.5949L31.5508 33.5949L32.5108 34.0349H32.7108L32.3508 34.3549C32.3508 34.3549 32.4308 34.2349 32.3508 34.1949L32.1508 34.0749L31.7108 34.3549L31.7508 34.2749ZM33.4308 31.7949L33.9508 31.0749L34.2708 31.1949C34.0431 31.1949 33.7721 31.3524 33.6708 31.5549L33.7108 31.6749L33.9908 31.8749C34.2308 31.5949 34.0308 31.4749 34.0308 31.4749L34.4308 31.7549C34.2868 31.6468 34.1861 31.798 34.0708 31.8749L34.3908 32.1149C34.5669 31.9388 34.7829 31.7549 34.6708 31.4749L34.9108 31.6348L34.3508 32.4349C34.3508 32.2573 34.3679 32.2349 34.1908 32.2349L33.6308 31.7949H33.4308ZM27.7108 35.7149L27.6708 35.4749L28.6308 35.1949L28.7108 35.3949L28.3108 35.3149L28.2708 35.4349L28.5108 36.1949L28.7108 36.2749L28.1908 36.4349L28.3108 36.2749L28.1108 35.4749C27.9814 35.4749 27.8294 35.4556 27.7108 35.5149V35.7149ZM29.2308 36.1149L29.3108 35.8749L29.0308 35.1949L28.7508 35.0749L29.3108 34.9149L29.1908 34.9949V35.1149L29.4708 35.8749L29.7108 35.9549L29.2308 36.1149ZM34.7508 29.6349L34.9108 29.2348V29.3149L34.9508 29.3549L35.5108 29.5949C35.6867 29.6828 35.8591 29.6033 35.9508 29.4349C35.9508 28.9591 35.5261 28.8799 35.1508 28.7549C35.126 28.7579 35.1022 28.7667 35.0813 28.7806C35.0605 28.7945 35.0432 28.8131 35.0308 28.8349L35.1908 28.5149C35.1908 28.5149 35.1908 28.6348 35.2308 28.6348L35.7508 28.8749C35.8708 28.9149 35.9908 28.9949 36.0308 29.1149C36.1108 29.2349 36.0308 29.3549 36.0308 29.5149C35.9017 29.7479 35.8016 29.7948 35.5508 29.7948L34.9108 29.5549H34.8308L34.7508 29.6349ZM35.6708 26.5149V26.1149L35.7908 26.2348L36.6708 26.2748C36.7508 26.1548 36.7508 26.0749 36.7508 25.9949C36.7508 25.8749 36.7508 25.7549 36.6708 25.6749C36.476 25.5801 36.201 25.611 35.9908 25.5949H35.8308C35.7508 25.5949 35.7508 25.6749 35.7508 25.6749V25.3549L35.9108 25.4748C36.1783 25.4748 36.6264 25.4282 36.7908 25.6749C36.9296 25.8136 36.8708 26.0204 36.8708 26.1949C36.8516 26.272 36.8098 26.3416 36.7508 26.3948C36.6308 26.4748 36.5108 26.4749 36.4708 26.4749L35.8308 26.4349H35.7108L35.6708 26.5149ZM35.6708 27.7549L35.4308 27.7148L35.6308 26.6749L35.8708 26.7149L35.7108 26.8349L35.6308 27.1549H35.7108L36.5908 27.3148L36.6708 27.1549L36.5508 27.7148V27.5149L35.6308 27.3148C35.5778 27.4209 35.4874 27.5714 35.5908 27.6749C35.6167 27.7023 35.6434 27.7289 35.6708 27.7549ZM33.1508 33.0749H33.6308C33.8409 32.8648 33.9147 32.6684 33.6308 32.5549C33.5176 32.5549 33.4835 32.6285 33.3908 32.6749L33.1108 32.8749C32.9908 32.8749 32.9108 32.8749 32.8708 32.7949C32.7108 32.6749 32.7508 32.4749 32.8708 32.3149C32.9578 32.2209 33.0683 32.1519 33.1908 32.1149L33.2308 31.9949L33.4708 32.2749C33.4708 32.2749 33.1908 32.0749 32.9108 32.3549C32.6731 32.6116 32.992 32.7145 33.2308 32.6349L33.4308 32.4749C33.4889 32.4304 33.5581 32.4027 33.6308 32.3949C33.8167 32.3949 33.9832 32.5666 33.9508 32.7549C33.9212 32.8483 33.8657 32.9315 33.7908 32.9949L33.5908 33.1549C33.5418 33.1894 33.4879 33.2163 33.4308 33.2349V33.3549L33.1908 33.0749H33.1508ZM36.3508 28.6348L36.1908 28.3949L35.4708 28.2749L35.3108 28.3549L35.4308 27.8749L35.4708 28.0349L36.3108 28.2749C36.3646 28.249 36.4579 28.2223 36.5108 28.1949L36.3508 28.6348ZM22.1908 36.1949L22.5908 36.2749L22.4308 35.7949L22.1508 36.1949L22.1108 36.2349L22.0308 36.4349C21.9508 36.5549 22.0308 36.5949 22.0308 36.5949L21.7108 36.5149C21.7108 36.5149 21.8308 36.5149 21.9508 36.3949L22.5108 35.5949H22.5908L22.8308 36.6349C22.8308 36.7149 22.9508 36.7949 22.9508 36.7949L22.5508 36.6749C22.5508 36.6749 22.6708 36.6749 22.6308 36.5949L22.5908 36.3549L22.1108 36.2349L22.1908 36.1949ZM19.7108 35.7549H19.8308L19.9108 35.6349L20.2308 34.9549V34.7549L20.6308 34.9549H20.4308V35.0749L20.0708 35.7549V35.8749H20.1508L19.7108 35.7549ZM13.1108 27.1948C13.1139 27.1948 13.3108 27.3148 13.3108 27.3148L14.1108 27.1149C14.2308 27.0749 14.2308 26.9549 14.2308 26.9549L14.3508 27.4349L14.1508 27.3148L13.3108 27.4749C13.2862 27.5292 13.2595 27.5826 13.2308 27.6349L13.1108 27.1948ZM14.0308 25.5149V25.8748L13.9108 25.8349L13.3108 25.8748C13.116 25.8748 13.0139 26.0954 13.0308 26.2748C13.0308 26.3548 13.1108 26.4749 13.2308 26.5149H13.8708H14.0308L14.1108 26.3549V26.6749L14.0708 26.5949H13.1108L12.9508 26.1549C12.9508 25.9938 13.029 25.7148 13.2308 25.7148L13.9508 25.6349L14.0308 25.5149ZM35.4708 30.5549V30.3148H35.3908L35.1908 30.0749C35.0524 30.0031 34.8915 29.988 34.7422 30.0328C34.5929 30.0776 34.4669 30.1788 34.3908 30.3148C34.2143 30.5726 34.3167 30.8981 34.5908 31.0349C34.8109 31.1333 35.0869 31.083 35.2581 30.9132C35.3152 30.8567 35.3603 30.7892 35.3908 30.7148C35.384 30.7567 35.3705 30.7572 35.3508 30.7949C35.3108 30.9149 35.2308 30.9949 35.1508 30.9149C35.0708 30.9149 35.0308 30.7948 35.0708 30.7148C35.1508 30.5948 35.3108 30.6748 35.3908 30.7148H35.4708C35.5908 30.7948 35.7508 30.8349 35.8708 30.6749V30.5149C35.8708 30.4349 35.7108 30.3549 35.7108 30.3549V30.5549H35.3908C35.2308 30.5149 35.1108 30.5549 34.9908 30.6749C34.9508 30.7949 34.9908 30.9549 35.1108 30.9949C34.9908 30.9949 34.8308 30.9949 34.7108 30.9149L34.5108 30.6749C34.4197 30.5642 34.4388 30.4829 34.4708 30.3549C34.4961 30.2919 34.5407 30.2386 34.5982 30.2027C34.7831 30.0871 34.9451 30.232 35.1108 30.3148C35.211 30.3718 35.2939 30.4547 35.3508 30.5549H35.3908H35.4708ZM14.6708 29.8749V29.9949C14.6881 29.9949 15.1687 29.9417 15.1508 29.9149C15.1099 29.8476 15.0661 29.7854 15.0308 29.7149L14.6708 29.9549H14.6308H14.5908L14.2708 30.0749L14.1908 30.1549V30.2749L13.9108 29.8749L13.9908 29.9549H14.1508L14.8308 29.5549C14.93 29.5549 14.9885 29.5079 14.9508 29.3948L15.1508 29.9149C15.2708 30.0749 15.3508 30.3149 15.1908 30.3949C14.9508 30.4749 14.7508 30.2748 14.7108 30.1549C14.7108 30.2748 14.7108 30.3949 14.6308 30.4749L14.4708 30.6749C14.5108 30.7549 14.5508 30.6749 14.5508 30.6749C14.5108 30.7549 14.3908 30.7948 14.3508 30.7148V30.4749C14.5371 30.3817 14.7202 30.2184 14.6308 29.9949V29.9149L14.6708 29.8749Z" fill="#002D70"/>
<path d="M15.9108 29.7149L17.5908 30.3949L21.1908 31.2749L24.3108 31.4749C28.0544 30.8509 31.8394 29.8263 34.5908 27.0749V27.7549C34.3508 27.9949 33.6708 28.9549 31.7108 29.9549C29.6484 31 27.4349 31.7154 25.1508 32.0749C23.5478 32.3206 21.9177 32.3341 20.3108 32.1149C17.9108 31.7949 15.9108 30.4749 15.9108 30.4749V29.7149Z" fill="#BDC3C3"/>
<path d="M16.5108 27.2349L16.3108 27.7549L16.0308 28.6349L15.9108 29.7149C15.9108 29.7149 17.9908 31.1149 20.5108 31.4749C23.5212 31.824 26.4875 31.2669 29.3108 30.2349C33.1508 28.9149 34.2708 27.3549 34.5508 27.0749C34.0708 26.9149 32.5908 26.7149 31.3108 25.8749C30.5042 25.3646 29.8211 24.6815 29.3108 23.8749C28.4097 23.7429 27.5566 23.3851 26.8308 22.8349C25.5438 21.6037 24.4249 21.357 22.7508 21.9549C21.1221 22.5928 19.619 23.5136 18.3108 24.6749C17.5828 25.3657 16.9943 26.3486 16.5108 27.2349Z" fill="white"/>
<path d="M22.3108 23.6348L17.3108 25.8748C17.6805 25.2279 18.2267 24.8249 18.7908 24.3549L21.5108 23.1549L22.3108 23.6348ZM16.2308 27.7549L23.5908 24.5548C22.2342 23.278 16.8821 26.1733 16.2308 27.7549ZM25.6308 25.8748L16.2708 29.9549C16.2708 29.9549 16.9508 30.3549 17.3508 30.4749L26.5508 26.4749L25.6308 25.8748ZM27.4308 27.0749L18.5508 30.9549C18.5508 30.9549 19.3108 31.2349 20.0708 31.3549L28.5108 27.6749L27.4308 27.0749ZM29.4308 28.2749L22.1108 31.5949C22.1108 31.5949 23.6708 31.5949 24.6308 31.4749L30.3508 28.9149L29.4308 28.2749ZM24.7508 25.3549L24.0308 24.9549L16.0808 28.6349L15.9908 29.2348L24.7508 25.3549Z" fill="#BA0034"/>
<path d="M30.7508 29.7149L31.7108 29.2348L32.4708 28.8349L33.1108 28.3949L34.5108 27.1149L34.5508 27.0749C34.0708 26.9149 32.5908 26.7149 31.3108 25.8749C30.5042 25.3646 29.8211 24.6815 29.3108 23.8749C28.4097 23.7429 27.5566 23.3851 26.8308 22.8349C25.5438 21.6037 24.4249 21.357 22.7508 21.9549C17.8099 23.6734 28.5 28.2054 30.7508 29.7149Z" fill="#002D70"/>
<path d="M24.8708 32.6749L25.6708 34.1549V32.5549L24.8708 32.6749Z" fill="white"/>
<path d="M27.5908 33.3548L28.9108 34.4348L28.3108 32.9548L27.5908 33.3548Z" fill="white"/>
<path d="M27.5508 32.3548L28.8708 33.3548L28.1108 31.9148L27.5508 32.3548Z" fill="white"/>
<path d="M28.5508 32.5148L29.9508 33.3948L29.1508 32.0348L28.5508 32.5148Z" fill="white"/>
<path d="M27.9508 31.1948L29.4308 31.8748L28.4708 30.6748L27.9508 31.1948Z" fill="white"/>
<path d="M26.1108 31.8748L27.3108 33.0748L26.8308 31.4748L26.1108 31.8748Z" fill="white"/>
<path d="M26.5108 33.8748L27.5508 35.1948L27.2708 33.5948L26.5108 33.8748Z" fill="white"/>
<path d="M26.1908 34.1148H25.8308L26.6708 35.4748L26.5908 33.8748L26.1908 34.1148Z" fill="white"/>
<path d="M23.5508 33.9948L23.9108 35.5948L24.3108 34.0749L23.5508 33.9948Z" fill="white"/>
<path d="M23.0708 32.9148L23.2708 34.5148L23.7908 33.0748L23.0708 32.9148Z" fill="white"/>
<path d="M22.3908 32.3948V33.9948L23.0708 32.6748L22.3908 32.3948Z" fill="white"/>
<path d="M24.5108 34.0348L25.1108 35.5948L25.3108 33.9948L24.5108 34.0348Z" fill="white"/>
<path d="M24.0308 31.8349L24.5108 33.3948L24.7508 31.7948L24.0308 31.8349Z" fill="white"/>
<path d="M25.0708 26.7548H25.3108C25.4708 26.7948 25.6308 26.9948 25.4308 27.3548C25.4308 27.3548 25.4308 27.0348 25.1908 27.1148C25.1908 27.1148 25.0308 26.9948 25.0708 26.7548Z" fill="#191919"/>
<path d="M23.4708 27.0748C23.3033 27.4099 22.9732 27.6304 22.6308 27.7548L22.1108 27.8748C21.8708 27.8748 21.5908 27.9948 21.7108 28.4748C21.8308 28.9548 22.5108 28.6748 22.6708 28.5148V28.4348C22.9243 28.0828 23.4708 28.0442 23.4708 27.6348C23.4708 27.7948 23.3908 28.1548 23.0308 28.2748C23.0308 28.2748 22.7108 28.5548 22.7908 28.7948C22.9108 29.2348 23.7108 29.0748 23.7108 28.7948C23.7108 28.4957 23.7701 28.1756 23.9908 27.9548C23.9908 27.9548 24.5108 27.9148 24.8308 28.1148C25.1733 28.229 24.845 28.0788 25.1508 28.2748C25.3108 28.3148 25.4708 28.3548 25.5508 28.3148C25.6708 28.3148 25.9508 27.7148 25.5108 27.5548C25.1908 27.4348 25.1908 27.6348 24.8708 27.5548C24.5508 27.4748 24.0308 27.3948 24.0308 26.7548L24.1108 26.3548C24.1108 26.483 24.0213 27.472 24.3908 27.1948L24.7908 26.7948H24.9908L25.1108 27.1948C25.1402 27.3121 24.698 27.332 24.5908 27.4748C24.5908 27.4748 24.3508 27.4748 24.1508 27.2348C23.9908 27.0748 24.0308 26.7948 24.0308 26.7548C24.0308 25.0581 23.4708 25.9738 23.4708 27.0748Z" fill="#FFD43F"/>
<path d="M21.8708 28.2749H21.7908C21.7908 28.556 21.7891 28.811 21.9908 29.0348C21.9908 29.0348 21.9908 28.5149 22.2308 28.5549C22.2308 28.5549 22.3108 28.3149 22.1508 28.1949C22.0458 28.1161 21.7871 28.1073 21.8708 28.2749Z" fill="#191919"/>
<path d="M22.8308 28.7949L22.7908 28.7948C22.7908 29.0668 22.7928 29.3009 22.9908 29.5149C22.9908 29.5149 23.0308 29.0349 23.3108 29.0749C23.2894 29.0749 22.8308 28.78 22.8308 28.7949Z" fill="#191919"/>
<path d="M25.7108 27.7148L25.7508 27.7949L25.8708 27.9149C25.9927 28.0977 26.0186 28.2993 25.9508 28.5149C25.9508 28.5149 25.6308 28.0749 25.5108 28.1949C25.4708 28.1949 25.3108 28.0348 25.3508 27.8748C25.4416 27.7235 25.5589 27.7148 25.7108 27.7148Z" fill="#191919"/>
<path d="M25.3908 26.8748V26.9548L25.4308 27.1148C25.4308 27.1148 25.4308 26.7948 25.1508 26.8748C25.0541 26.8748 25.3082 26.8583 25.3908 26.8748ZM25.7908 27.8748L25.9108 28.1549C25.8338 28.02 25.3823 27.7387 25.7908 27.8748ZM22.9108 28.7948V29.2749C22.9108 29.2749 22.9108 28.9148 22.9908 28.8348C23.0708 28.7548 22.9908 28.6748 22.9108 28.7948ZM21.9108 28.2748V28.7549C21.9108 28.7549 21.9108 28.3948 21.9908 28.2748C22.0308 28.2748 21.9908 28.1948 21.9108 28.2748Z" fill="white"/>
<path d="M15.7108 25.2348L15.2308 25.4748L14.7508 25.5148C14.9108 25.7148 15.4708 25.9949 15.8308 25.9949C16.2122 25.9949 16.513 25.8565 16.8308 25.6748C16.8308 25.6748 17.0308 25.4749 17.1908 25.5949L17.4708 25.7948C17.4708 25.7948 17.5508 25.8748 17.5508 25.7948C17.6228 25.9748 16.9646 25.3072 17.9508 26.1948C17.5508 25.7948 16.7508 26.1149 16.7508 26.1149C16.5908 26.1149 16.3508 26.2748 16.1908 26.4748C16.0614 26.6121 15.928 26.7454 15.7908 26.8748C16.4576 26.6748 17.0747 26.9648 17.6708 26.4348C17.2708 26.8348 16.3508 26.8349 16.3508 26.8349C16.2308 26.8349 16.1108 27.1548 15.9908 27.2748C15.9108 27.3948 15.9908 27.5148 16.1108 27.3948C16.1908 27.3148 16.5508 27.2348 16.8308 27.1948C17.1108 27.1948 17.7508 26.7148 17.7508 26.7148L18.1508 26.5548H18.5108L18.5908 26.4348L18.6708 26.4748H18.5108C18.4036 26.4993 18.2569 26.526 18.1508 26.5548C18.0299 26.5501 17.9495 26.5728 17.8387 26.6213C17.7278 26.6698 17.6294 26.7428 17.5508 26.8349C17.4655 26.9235 17.3854 27.017 17.3108 27.1148C17.3108 27.1148 17.4708 27.0348 17.9108 27.1148C18.0319 27.1331 18.1555 27.1246 18.273 27.0901C18.3904 27.0555 18.4989 26.9957 18.5908 26.9149L19.0308 26.5948L19.0308 26.6348C18.9258 26.6698 19.1694 26.5763 18.7508 26.9948L18.4708 27.3948L18.1108 27.7148C19.4818 27.7265 19.3469 26.9646 19.6708 26.1549C19.6968 25.722 19.6426 25.288 19.5108 24.8748C19.4308 24.5548 19.1508 24.2748 19.1908 24.3948C19.1908 24.4748 19.1908 24.7148 19.0708 24.8748C18.9108 24.9948 18.9908 25.3549 18.9908 25.3549V25.4748C18.9908 25.4748 19.0708 26.2748 19.1508 26.3548C19.3108 26.3948 19.3108 26.4748 19.3508 26.5548L19.3108 26.5149L19.0308 26.2748L19.1908 26.4748H19.0708L18.9108 26.4348L18.7508 26.2748C18.7508 26.2748 19.0308 26.2749 18.9908 25.3549V25.1949C18.9908 24.9549 18.7108 24.3948 18.7108 24.3948C18.7108 24.3948 18.7108 24.5548 18.6308 24.6348C18.2308 24.9548 18.4308 25.4748 18.4308 25.4748C18.2308 24.7948 18.5508 24.7548 18.4308 24.2348C18.3508 23.9948 18.2708 23.9548 18.2708 24.0348C18.2708 24.1148 18.1508 24.2748 17.8708 24.4748C17.6179 24.7784 17.8497 25.4389 17.7108 24.6749C17.7108 24.1982 17.8418 23.8313 17.5508 23.3948C17.5508 23.2348 17.3508 23.1548 17.3908 23.3148C17.4708 23.4748 17.3908 23.7948 17.2308 23.9548C17.1108 24.1148 17.0708 24.4748 17.0708 24.4748L17.1108 24.1148C17.1908 23.6748 16.7108 23.0749 16.7108 22.9149L16.5508 22.7548C16.5908 22.6748 16.5108 22.6748 16.5508 22.8348L16.4708 23.5548C16.3329 24.9347 16.3217 23.3657 15.8708 22.9149C15.7502 22.8029 15.6547 22.6665 15.5908 22.5148C15.5908 22.3148 15.3508 22.2748 15.3508 22.2748V22.9548C15.3508 23.1548 15.3508 23.8748 15.9908 24.1948C15.9908 24.1948 15.5908 23.9948 15.4708 23.6748L14.9508 23.7148C14.7908 23.7548 14.5108 23.6748 14.5108 23.6748C14.5108 23.6748 14.9508 24.5148 15.5908 24.5548C16.3508 24.5548 16.5108 24.8748 16.5108 24.8748L16.3508 24.6749C16.2708 24.5949 15.9508 24.5548 15.7908 24.5548C15.5108 24.5548 15.1508 24.3948 15.1508 24.3948C14.9908 24.3148 14.7508 24.3948 14.5908 24.3948C14.4708 24.3948 14.3908 24.3948 14.5108 24.4748L15.0708 24.8748C15.4708 25.0748 15.9508 25.1148 15.9508 25.1148C15.9508 25.1148 16.5108 25.0748 16.6708 25.1548C16.7508 25.2348 16.8708 25.2348 16.6708 25.2348H15.7108Z" fill="#006546"/>
<path d="M18.8708 26.4348H18.7908V26.3548L18.7508 26.2748C18.5908 26.3548 18.5108 26.2348 18.4308 26.2748L18.5908 26.4348" fill="#00B13E"/>
<path d="M16.5108 24.8748L16.5108 24.7948L16.4308 24.7549L16.3508 24.6749V24.6348L16.2708 24.5949V24.5149C16.3504 24.0375 16.3826 24.6701 16.6708 24.8348" fill="#00B13E"/>
<path d="M16.6308 23.0749L16.7908 23.8748C16.7723 23.6587 16.7222 23.2577 16.6308 23.0749ZM17.5508 23.7948C17.5508 24.1607 17.1917 24.7157 17.5108 25.0349L17.4308 24.7549C17.3386 24.4615 17.753 23.9971 17.5508 23.7948ZM18.0308 24.7948V25.5549C18.1108 25.3149 17.9508 24.8349 18.1108 24.5949C18.2064 24.5092 18.2757 24.3982 18.3108 24.2748C18.2308 24.5148 18.0708 24.6748 18.0308 24.7948ZM18.7108 25.1949V25.3148L18.5908 26.0348C18.6576 25.7737 18.6845 25.504 18.6708 25.2348L18.7108 25.1949ZM19.2708 25.1548H19.1908V25.5549C19.1908 25.7149 19.2308 25.9549 19.3108 26.1149V25.5949L19.2308 25.2748C19.2708 25.0348 19.3908 24.7948 19.2708 24.6348V25.1548ZM15.1508 24.0348C15.3297 24.0796 15.8564 24.1404 15.9908 24.2748C15.8462 24.1302 14.8746 23.8507 15.1508 24.0348ZM14.9108 24.5548H15.0708L16.5508 24.9549C16.2809 24.9549 16.0733 24.9293 15.8308 24.7948C15.6201 24.7201 15.4066 24.6534 15.1908 24.5949L14.9108 24.5548ZM15.1908 25.6348H15.3108L15.3908 25.6748C15.5108 25.7148 15.7108 25.6748 15.8308 25.6348L16.2708 25.4748H16.5908C16.3911 25.4311 16.183 25.445 15.9908 25.5148C15.7362 25.6128 15.4598 25.6805 15.1908 25.6348ZM16.1108 26.6749C16.5041 26.5129 17.0307 26.2233 17.4708 26.3149C16.9864 26.3085 16.5977 26.6749 16.1108 26.6749ZM17.6308 26.9948H17.8308L17.8708 26.9149H17.9508L18.1108 26.8349L18.1508 26.7948C18.2308 26.7148 18.5508 26.5949 18.6308 26.6749C18.5057 26.6973 18.3844 26.7377 18.2708 26.7948C18.1508 26.8748 18.0308 26.9149 17.8708 26.9149L17.6308 26.9948ZM18.5908 27.4748H18.7108C18.9508 27.2748 18.9508 27.1149 19.2308 27.0749C19.1508 27.0749 19.0708 27.1149 19.0308 27.1549L18.9108 27.3148C18.871 27.3802 18.7762 27.435 18.7108 27.4748L18.5108 27.5548L18.5908 27.4748Z" fill="#191919"/>
<path d="M16.3108 24.4749V24.3949L16.3508 24.3549C16.44 24.1766 16.5315 23.7549 16.1908 23.7549C16.0708 23.7549 15.9908 23.9948 15.9908 24.1948C15.9908 24.3921 16.1393 24.4749 16.3108 24.4749Z" fill="#191919"/>
<path d="M17.4708 25.1949C17.4708 25.0749 17.5908 24.8749 17.7108 24.9149C17.8308 24.9149 17.9108 25.0749 17.9108 25.2349C17.9093 25.3404 17.8662 25.441 17.7908 25.5149C17.5538 25.5741 17.4708 25.4585 17.4708 25.1949Z" fill="#191919"/>
<path d="M16.8308 25.2749H16.9108L16.9508 24.8749C16.9508 24.7549 16.7908 24.6349 16.6708 24.6749C16.5508 24.6749 16.5108 24.8749 16.5508 25.0349C16.5908 25.1949 16.7108 25.3149 16.8308 25.2749Z" fill="#191919"/>
<path d="M18.1108 26.0748H18.2708V25.9948H18.3108L18.3908 25.9149V25.8748H18.4708V25.7948C18.5108 25.6748 18.4308 25.4748 18.3508 25.4348C18.2308 25.4748 18.1108 25.5148 18.0308 25.6748C17.9508 25.8348 18.0308 26.0348 18.1108 26.0748Z" fill="#191919"/>
<path d="M18.7508 26.2748L18.7908 26.2748L18.8308 26.0348C18.9108 25.8748 18.8308 25.7148 18.7108 25.7148C18.5908 25.7148 18.4308 25.9549 18.4308 26.1549C18.4308 26.3222 18.6726 26.4313 18.7508 26.2748Z" fill="#191919"/>
<path d="M19.1108 26.3548L19.2708 25.9949C19.2308 25.7949 19.0708 25.6748 18.9508 25.6748C18.8308 25.7548 18.7908 25.9149 18.8308 26.1149C18.8308 26.2749 18.9908 26.3948 19.1108 26.3548Z" fill="#191919"/>
<path d="M17.2308 25.9548V25.8748L17.1108 25.7549L17.0308 25.7148C16.8814 25.7148 16.5508 25.7028 16.5508 25.9149C16.5508 26.0349 16.7508 26.1549 16.9108 26.1549C17.1108 26.1549 17.2308 26.0748 17.2308 25.9548Z" fill="#191919"/>
<path d="M18.0708 26.1949V26.1149H17.9908V26.0749H17.9108L17.7108 26.0349C17.4708 26.0749 17.3508 26.2349 17.3508 26.3549C17.3908 26.4749 17.5508 26.5549 17.7508 26.5149C17.9508 26.4749 18.1108 26.2749 18.0708 26.1949Z" fill="#191919"/>
<path d="M19.1508 26.7549L18.7108 26.6749C18.5908 26.7949 18.5108 26.9149 18.5108 27.0749C18.5108 27.2349 18.7508 27.1549 18.9108 27.0749C19.0708 26.9949 19.1908 26.8349 19.1508 26.7549Z" fill="#191919"/>
<path d="M16.3508 24.9149C16.1476 24.8742 15.6471 24.8105 15.8708 24.4749C15.9508 24.3949 16.1108 24.3949 16.2708 24.5149C16.3908 24.6349 16.4308 24.8349 16.3508 24.9149Z" fill="#191919"/>
<path d="M18.5908 26.4348H18.5108V26.3548H18.1508C17.9908 26.5148 17.9508 26.6748 18.1108 26.7948C18.1908 26.8748 18.3908 26.7949 18.5108 26.6749C18.6308 26.5549 18.6308 26.5148 18.5908 26.4348Z" fill="#191919"/>
<path d="M21.8708 27.2348L20.7908 26.9948C20.7908 26.9948 20.5108 27.1148 20.4308 27.3148C20.4308 27.3148 21.9108 27.3948 22.2708 27.7148C22.2389 27.619 22.0596 27.0461 21.8708 27.2348Z" fill="#00B13E"/>
<path d="M21.8708 27.2348C22.0912 27.2348 21.6175 27.2348 21.8708 27.2348ZM22.1908 25.9949L22.2708 25.9149H22.5108C22.6308 25.9949 22.7508 26.1148 22.6708 26.4748C22.6708 26.4748 22.6708 26.2748 22.5508 26.2748H22.3108C22.3108 26.2748 22.0308 26.1149 22.1908 25.9949Z" fill="#191919"/>
<path d="M22.4308 26.0348H22.5908L22.6308 26.0748V26.2748H22.6708C22.6708 26.2748 22.6708 25.9948 22.3908 26.0748C22.3108 26.0748 22.2308 26.0348 22.3908 26.0748L22.4308 26.0348Z" fill="white"/>
<path d="M20.6708 26.3549C20.3747 26.7004 20.1638 26.6659 19.7108 26.5149C19.6308 26.4349 19.3108 26.3549 19.2708 26.5149C19.2308 26.6749 19.1108 26.8349 19.1908 26.9149L19.7908 26.9549C20.8518 26.7427 20.1116 26.8405 19.3108 26.9549C18.9908 27.0749 18.8708 27.5549 19.3108 27.7549C19.7039 27.9795 20.4459 27.1911 20.9108 27.0749C21.465 27.001 21.6464 27.1067 22.1508 27.2749C22.7735 27.2749 22.6609 26.3448 22.0308 26.5549C20.8074 26.4869 21.5241 26.4216 21.9508 25.9949C22.0708 25.9549 22.1908 25.9549 22.2308 26.0349C22.0766 26.1891 22.6216 26.3497 22.1108 26.4349C21.4752 26.8162 21.2044 26.3135 21.3108 25.6749C21.1411 25.3353 20.6708 26.137 20.6708 26.3549Z" fill="#FFD43F"/>
<path d="M19.0708 27.3949V27.4749H18.9908L18.9508 27.7149C18.9508 27.8749 18.9908 28.0349 19.1508 28.1949C19.1508 28.1949 19.1508 27.7149 19.3508 27.7549C19.5332 27.5725 19.2911 27.248 19.0708 27.3949Z" fill="#191919"/>
<path d="M22.6308 26.8349H22.6708C22.8782 27.0422 22.8082 27.3079 22.6308 27.5149C22.6308 27.5149 22.5508 27.1149 22.3908 27.1549C22.3908 27.1549 22.2708 26.9949 22.3908 26.8749C22.3908 26.7068 22.5531 26.7571 22.6308 26.8349Z" fill="#191919"/>
<path d="M19.0708 27.4749L19.0708 27.8748L19.1108 27.5548L19.0708 27.4749ZM22.6308 26.9148L22.7108 27.2348L22.6308 27.3148C22.6308 27.246 22.4527 26.7477 22.5908 26.9548L22.6308 26.9148Z" fill="white"/>
<path d="M28.0708 19.1549V19.3949C28.0517 19.4394 28.0246 19.48 27.9908 19.5149C28.2308 19.6349 28.4708 19.7949 28.7908 19.6349C28.9108 19.7149 29.3108 19.9549 29.4708 19.7149C30.5137 20.7577 29.8904 18.635 28.0708 19.1549Z" fill="#663206"/>
<path d="M34.792 18.6451L34.7508 18.6348L33.1508 17.7548L32.7108 17.4748C32.1733 17.4748 30.7718 16.1675 30.2308 15.8749L30.3508 15.7548L28.2708 15.1148C27.3229 14.7851 26.3762 14.4518 25.4308 14.1148C24.0355 13.6752 22.5597 13.5522 21.1108 13.7548C20.7253 13.8511 20.3772 14.06 20.1108 14.3548C19.5908 14.9948 20.1108 15.3948 20.1108 15.3948H19.5508C19.3908 15.4748 18.7508 15.8748 18.7508 16.4348C18.7508 17.1548 19.5508 17.6348 19.5508 17.6348L20.3108 17.8748C20.7108 18.1548 20.7908 18.6748 20.7908 18.6748V19.0748L20.1108 19.1548L19.7108 19.1948H19.3908C18.4944 19.4605 17.5164 19.977 16.5908 20.0348H15.2308C14.9508 20.0348 14.7108 20.1948 14.5908 20.2748C14.3371 20.5286 12.7264 21.8018 13.8708 21.4748C14.1908 21.3548 14.2708 21.4748 14.5108 21.4748L14.9108 21.5148C14.5307 21.6416 13.3986 21.966 14.5108 21.7948C15.0308 21.8348 15.3508 21.7548 15.7108 21.7948C16.4808 21.8462 17.6745 21.6591 18.3508 22.0348L20.0308 22.8748C20.4708 23.1148 20.8308 23.5148 21.1508 23.8748C21.5108 24.1948 21.1908 25.6748 21.1908 25.6748C21.3755 25.6394 21.5402 25.5196 21.6308 25.3549C21.7108 25.7549 22.0308 25.8348 22.0308 25.8348C22.1908 25.6748 22.3108 25.4748 22.3108 25.3148L22.5908 25.6348C22.5908 25.6348 22.9108 25.5548 22.9508 25.2348C22.9508 25.126 23.0724 25.0733 23.1508 24.9948C23.1908 24.9948 23.1508 24.7548 23.3108 24.9948L23.4308 25.8348C23.4308 26.1138 23.5501 26.517 23.7108 26.0348C24.0478 26.6124 24.5837 26.5989 24.9908 26.7548C25.2156 26.7548 25.2241 25.7471 25.1508 25.4348C25.3804 25.4348 25.2308 24.7974 25.2308 24.6348C25.4708 24.6348 25.4708 24.5548 25.4708 24.5548L25.5808 24.8248C25.8753 25.5477 27.8022 27.6922 28.4308 26.4348C28.7181 26.6072 29.7 26.9711 29.9508 26.5948C30.2592 26.7711 31.4209 26.7747 31.5908 26.4348C30.0804 25.9337 28.8669 25.1463 27.8308 23.9548C26.6955 22.1205 27.4511 22.8361 27.2308 21.9548C27.3108 21.9948 27.5908 21.9148 27.5908 21.9148C27.5908 21.7148 27.4308 21.5948 27.4308 21.5948C27.5508 21.5948 27.7108 21.4748 27.7108 21.4748C27.6104 21.0231 28.1168 21.0008 27.7108 20.5948C27.7508 20.5948 27.8708 20.5948 27.9908 20.3948L27.8308 20.0748C28.1908 20.0348 27.9508 19.4749 27.9508 19.4749C28.1108 19.4749 28.0708 19.1549 28.0708 19.1549C29.8637 19.1549 32.4477 20.1045 34.1508 19.3948C34.4568 19.5028 35.9418 19.4072 35.5108 19.2348C35.1215 19.1514 34.7473 19.0162 35.2308 18.8348L34.792 18.6451Z" fill="#663206"/>
<path d="M25.4708 24.5548L25.4908 24.6748L25.5108 24.7949L25.5908 24.9549L25.6308 24.9949C25.8798 25.6588 27.8803 27.536 28.4308 26.4348C28.7181 26.6072 29.7 26.9711 29.9508 26.5948C30.2592 26.7711 31.4209 26.7747 31.5908 26.4348C30.0804 25.9337 28.8669 25.1463 27.8308 23.9548C27.5549 23.3817 25.8398 20.6217 26.3508 22.1549C25.6425 22.1549 25.7376 21.7551 25.9508 22.3948C25.9508 22.3948 25.7908 22.3948 25.6708 22.3148C25.8562 22.6393 26.2036 23.5205 25.4708 23.1949C25.5508 23.2749 26.1108 23.9148 26.6708 24.1948C26.6708 24.2866 25.7214 24.3377 25.4708 24.5548Z" fill="white"/>
<path d="M19.1908 19.2749L19.3108 19.2349C19.1732 19.345 19.0506 19.4473 18.9508 19.5949C18.9508 19.5949 19.1908 19.5949 19.3508 19.7149C19.3508 19.7149 19.2708 19.7149 19.1508 19.8349C19.3806 19.8349 19.5289 19.9536 19.7108 20.0749C19.7108 20.0749 19.7108 20.2749 19.2708 20.2349C19.6308 20.2749 19.7108 20.5549 19.7108 20.5549C19.7108 20.5549 19.7108 20.6749 19.3508 20.6749H19.5108C19.5908 20.7149 19.6708 20.7949 19.7908 20.9949C19.6308 21.0749 19.5508 21.0749 19.2308 20.9949C19.2308 20.9949 19.6708 21.1149 19.6308 21.3949L19.3908 21.4749C19.3908 21.4749 19.5508 21.6349 19.5508 21.7949C19.3908 21.8749 19.1108 21.7549 19.1108 21.7549L19.3108 21.8749C19.1908 21.9949 19.0308 21.9949 19.0308 21.9949C19.0308 21.9949 19.1908 22.0749 19.2708 22.2749C19.2708 22.2749 19.0708 22.3549 18.9508 22.2749L19.2308 22.4749L18.3108 22.0349C17.6437 21.6642 16.467 21.8436 15.7108 21.7948H14.5108C13.9908 21.8748 13.9108 21.7149 13.9108 21.7149L14.1908 21.7549C14.4708 21.7149 14.7908 21.5548 14.9108 21.5148L15.2708 21.4749L14.5108 21.4748C14.2308 21.4748 14.1908 21.3948 13.8708 21.4748C13.5908 21.5548 13.5508 21.8749 13.5508 21.8749C13.5508 21.8749 13.4308 21.8349 13.3908 21.3949C13.3908 20.8749 13.9908 20.6749 13.9908 20.6749C13.9908 20.5549 14.3908 20.4749 14.3908 20.4749C14.4708 20.4349 14.4708 20.3548 14.5908 20.2748C14.7832 20.1473 15.002 20.0652 15.2308 20.0348H16.5908C17.2308 19.9948 18.3108 19.4749 18.3108 19.4749L19.1908 19.2749Z" fill="white"/>
<path d="M14.3908 20.7549H14.4308C15.0856 20.9185 15.5533 21.3377 15.0308 21.7949L14.5108 21.7948C13.9908 21.8748 13.9108 21.7149 13.9108 21.7149L14.1908 21.7549C14.4708 21.7149 14.7908 21.5548 14.9108 21.5148L15.2708 21.4749L14.5108 21.4748C14.2308 21.4748 14.1908 21.3948 13.8708 21.4748C13.5908 21.5548 13.5508 21.8749 13.5508 21.8749C13.5508 21.8749 13.4308 21.8349 13.3908 21.3949C13.3908 20.8749 13.9908 20.6749 13.9908 20.6749C13.9908 20.5549 14.3908 20.4749 14.3908 20.4749L14.3908 20.7549Z" fill="#FFD43F"/>
<path d="M14.7908 20.5949L15.1508 20.5149C15.1508 20.5149 15.3108 20.5948 15.7108 20.5548L15.4708 20.6748C15.4308 20.7148 15.3908 20.9149 15.2308 20.9549C15.0708 20.9949 14.9908 20.9148 14.9508 20.8348C14.8308 20.7149 14.7123 20.5534 14.5108 20.7548L14.6308 20.6748L14.7908 20.5949Z" fill="#BDC3C3"/>
<path d="M15.3108 20.6749V20.7149H15.2308L15.1908 20.7549V20.7949C14.9313 20.7949 15.0252 20.4606 15.3108 20.6749Z" fill="#191919"/>
<path d="M15.7108 20.5548C15.4806 20.5549 14.5528 20.6358 14.6308 20.6748L14.5108 20.7548C14.7207 20.6849 14.9355 20.6779 15.1508 20.6348C15.3508 20.5948 15.3108 20.5949 15.4308 20.5949C15.5247 20.5855 15.6181 20.5722 15.7108 20.5548Z" fill="#BDC3C3"/>
<path d="M15.0308 20.6748C15.0308 20.6748 15.0708 20.7949 15.1508 20.7949C15.2308 20.7949 15.3108 20.6749 15.3108 20.6749L15.3908 20.6748C15.3908 20.6748 15.3108 20.9149 15.1908 20.9149C15.1133 20.8761 14.8165 20.6748 15.0308 20.6748Z" fill="white"/>
</svg>
