<svg width="50" height="50" viewBox="0 0 50 50" fill="none" xmlns="http://www.w3.org/2000/svg">
<path d="M46.1554 29.5384C46.1554 29.5384 31.7717 20.9642 21.5228 35.3721C21.5228 35.3721 14.5146 38.5137 9.98343 35.1038C8.39329 33.9124 6.58083 32.042 6.33917 28.7795C5.51993 17.4214 17.0134 17.9047 17.0134 17.9047C17.0134 17.9047 20.4764 10.3649 27.3783 10.5655C34.4203 10.7685 38.6035 15.6718 38.6953 19.9323C38.7001 19.9202 47.2985 22.2281 46.1554 29.5384Z" fill="#EDEDEC"/>
<path d="M44.839 27.9792C44.839 27.9792 30.6071 19.4956 20.3718 33.5861C20.2668 33.7306 20.127 33.8497 19.9611 33.9161C18.6786 34.429 12.6957 36.5641 8.66698 33.5447C7.07684 32.3533 5.26437 30.4804 5.04204 27.218C4.39551 18.2901 11.3741 16.6791 14.3781 16.398C15.1856 16.3224 15.9371 15.8614 16.3617 15.1705C17.6589 13.0601 20.9023 8.85344 26.0787 9.00393C32.8484 9.19908 36.976 13.7379 37.369 17.8737C37.386 18.0532 37.6991 18.4584 37.8698 18.5165C39.6511 19.1232 45.8202 21.7149 44.839 27.9792Z" fill="url(#paint0_linear_9176_11819)"/>
<path d="M20.294 16.1672C20.2752 16.5346 20.0843 16.736 19.7406 16.736C19.3954 16.736 19.1777 16.4543 19.1777 16.0067V15.6952C19.1777 15.2477 19.4009 14.9707 19.7606 14.9707C20.0926 14.9707 20.2783 15.1767 20.294 15.5465H20.0757C20.0568 15.2665 19.9636 15.1571 19.7606 15.1571C19.5269 15.1571 19.396 15.3425 19.396 15.6976V16.0126C19.396 16.361 19.516 16.5519 19.7406 16.5519C19.9656 16.5519 20.0521 16.4567 20.0757 16.1672H20.294Z" fill="white"/>
<path d="M21.7124 16.7124H21.4952V15.9182H20.8038V16.7124H20.5878V14.9943H20.8038V15.733H21.4952V14.9943H21.7124V16.7124Z" fill="white"/>
<path d="M22.91 15.9182H22.3023V16.5271H23.0103V16.7124H22.0864V14.9943H22.9985V15.1807H22.3023V15.733H22.91V15.9182Z" fill="white"/>
<path d="M24.365 16.1672C24.3461 16.5346 24.1552 16.736 23.8116 16.736C23.2546 16.736 23.2487 16.1042 23.2487 15.6952C23.2487 15.2477 23.4719 14.9707 23.8316 14.9707C24.1635 14.9707 24.3492 15.1767 24.365 15.5465H24.1467C24.1278 15.2665 24.0346 15.1571 23.8316 15.1571C23.5979 15.1571 23.467 15.3425 23.467 15.6976C23.467 15.9677 23.3977 16.5519 23.8116 16.5519C24.0365 16.5519 24.1231 16.4567 24.1467 16.1672H24.365Z" fill="white"/>
<path d="M25.0435 15.9206L24.8747 16.1247V16.7124H24.6588V14.9943H24.8747V15.8238L25.4789 14.9943H25.7385L25.1803 15.7507L25.7821 16.7124H25.5237L25.0435 15.9206Z" fill="white"/>
<path d="M26.7462 16.0398V16.7124H26.5303V14.9943H27.0778C27.3965 14.9943 27.5911 15.2009 27.5911 15.5194C27.5911 15.8483 27.4108 16.0335 27.0931 16.0398H26.7462ZM26.7462 15.8545H27.0778C27.2697 15.8545 27.3751 15.7357 27.3751 15.5218C27.3751 15.3157 27.263 15.1807 27.079 15.1807H26.7462V15.8545Z" fill="white"/>
<path d="M28.9882 16.0044C28.9882 16.4732 28.7805 16.736 28.4123 16.736C27.8462 16.736 27.833 16.1315 27.833 15.7058C27.833 15.2456 28.0472 14.9707 28.41 14.9707C28.9783 14.9707 28.9882 15.5779 28.9882 16.0044ZM28.41 15.1654C28.1729 15.1654 28.0493 15.3464 28.0477 15.6964C28.0477 15.984 27.9854 16.5436 28.4123 16.5436C28.6546 16.5436 28.7675 16.3765 28.7722 16.0256C28.7722 15.7338 28.8448 15.1654 28.41 15.1654Z" fill="white"/>
<path d="M29.5475 16.7124H29.3316V14.9943H29.5475V16.7124Z" fill="white"/>
<path d="M31.0484 16.7124H30.8313L30.1434 15.3884V16.7124H29.9263V14.9943H30.1434L30.8337 16.3242V14.9943H31.0484V16.7124Z" fill="white"/>
<path d="M32.3913 15.1807H31.9393V16.7124H31.7234V15.1807H31.2726V14.9943H32.3913V15.1807Z" fill="white"/>
<path d="M12.6702 18.9302C13.0473 18.9302 13.3106 19.0545 13.5982 19.3188L13.3256 19.6378C13.1075 19.4431 12.9199 19.3594 12.6818 19.3594C12.1134 19.3594 11.8293 19.9026 11.8293 20.9892C11.8293 22.0718 12.1192 22.6131 12.6992 22.6131C12.9685 22.6131 13.1448 22.5004 13.3488 22.3115L13.633 22.6189C13.4022 22.8728 13.084 23.0597 12.6876 23.0597C11.5815 23.0597 11.2725 21.8957 11.2725 20.9892C11.2725 20.1054 11.5813 18.9302 12.6702 18.9302Z" fill="white"/>
<path d="M14.0509 22.4565V18.704L14.5613 18.646V22.4449C14.5613 22.6315 14.7212 22.6688 14.8687 22.6073L14.9847 22.9553C14.5519 23.224 14.0509 22.9532 14.0509 22.4565Z" fill="white"/>
<path d="M16.4536 19.8698C17.1796 19.8698 17.5962 20.4137 17.5962 21.4589C17.5962 22.1798 17.3029 23.0597 16.4478 23.0597C15.7286 23.0597 15.3052 22.4623 15.3052 21.4647C15.3052 20.4362 15.7267 19.8698 16.4536 19.8698ZM16.4536 20.2816C16.047 20.2816 15.8446 20.6149 15.8446 21.4647C15.8446 22.2999 16.0457 22.6479 16.4478 22.6479C16.8576 22.6479 17.0568 22.3019 17.0568 21.4589C17.0568 20.6169 16.8525 20.2816 16.4536 20.2816Z" fill="white"/>
<path d="M20.2139 22.9901H19.7732L19.7384 22.5609C19.5485 22.8875 19.3152 23.0597 18.9844 23.0597C18.5436 23.0597 18.2594 22.7291 18.2594 22.2419V19.9336H18.7698V22.1897C18.7698 22.5029 18.88 22.6595 19.1004 22.6595C19.3581 22.6595 19.5428 22.4649 19.7036 22.1433V19.9336H20.2139V22.9901Z" fill="white"/>
<path d="M23.0589 18.704V22.9901H22.6065L22.5717 22.6015C22.39 22.907 22.158 23.0597 21.8757 23.0597C21.2403 23.0597 20.8955 22.4642 20.8955 21.4763C20.8955 20.8573 21.1061 19.8698 21.8931 19.8698C22.1599 19.8698 22.3784 19.9877 22.5485 20.2236V18.646L23.0589 18.704ZM21.9743 22.6537C22.1947 22.6537 22.3861 22.5087 22.5485 22.2187V20.6702C22.39 20.4072 22.2063 20.2758 21.9975 20.2758C21.6432 20.2758 21.4349 20.6495 21.4349 21.4647C21.4349 22.2574 21.6147 22.6537 21.9743 22.6537Z" fill="white"/>
<path d="M25.2061 18.9302C25.6182 18.9302 25.9076 19.0729 26.2152 19.3652L25.9253 19.661C25.6815 19.4477 25.4966 19.3594 25.2061 19.3594C24.3918 19.3594 24.3013 20.3907 24.3013 20.9892C24.3013 22.2289 24.5847 22.6247 25.1597 22.6247C25.3685 22.6247 25.5599 22.5667 25.7339 22.4507V21.2095H25.1887L25.1307 20.7804H26.2442V22.7059C25.904 22.9418 25.5405 23.0597 25.1539 23.0597C24.2143 23.0597 23.7445 22.3695 23.7445 20.9892C23.7445 20.0847 24.1149 18.9302 25.2061 18.9302Z" fill="white"/>
<path d="M28.9025 22.9901H28.4617L28.4269 22.5609C28.237 22.8875 28.0037 23.0597 27.6729 23.0597C27.2321 23.0597 26.9479 22.7291 26.9479 22.2419V19.9336H27.4583V22.1897C27.4583 22.5029 27.5685 22.6595 27.7889 22.6595C28.0466 22.6595 28.2313 22.4649 28.3921 22.1433V19.9336H28.9025V22.9901Z" fill="white"/>
<path d="M31.5096 22.3405C31.5096 22.5513 31.5637 22.6423 31.7068 22.7059L31.5966 23.0597C31.3112 23.0134 31.1502 22.8903 31.0804 22.6189C30.9141 22.9128 30.6705 23.0597 30.3496 23.0597C29.8466 23.0597 29.526 22.6939 29.526 22.1375C29.526 21.4848 29.9414 21.1341 30.7034 21.1341H31.005C31.005 20.9022 31.0474 20.6026 30.8832 20.415C30.7142 20.2121 30.3122 20.2399 29.8276 20.4324L29.7 20.0728C30.1521 19.8774 30.8955 19.6939 31.2776 20.125C31.743 20.6253 31.5096 21.7275 31.5096 22.3405ZM30.454 22.6769C30.6937 22.6769 30.8774 22.5145 31.005 22.1897V21.4763H30.7614C30.2787 21.4763 30.0538 21.6772 30.0538 22.1143C30.0538 22.4807 30.1954 22.6769 30.454 22.6769Z" fill="white"/>
<path d="M33.7667 19.9046L33.6798 20.3976C33.4139 20.3311 33.2361 20.3807 33.0998 20.5716C33.0031 20.7069 32.9277 20.9138 32.8736 21.1921V22.9901H32.3632V19.9336H32.804L32.8446 20.502C32.9822 20.0964 33.318 19.755 33.7667 19.9046Z" fill="white"/>
<path d="M36.0803 18.704V22.9901H35.6279L35.5931 22.6015C35.4114 22.907 35.1794 23.0597 34.8971 23.0597C34.2617 23.0597 33.917 22.4642 33.917 21.4763C33.917 20.8573 34.1276 19.8698 34.9145 19.8698C35.1813 19.8698 35.3998 19.9877 35.5699 20.2236V18.646L36.0803 18.704ZM34.9957 22.6537C35.2161 22.6537 35.4075 22.5087 35.5699 22.2187V20.6702C35.4114 20.4072 35.2277 20.2758 35.0189 20.2758C34.6646 20.2758 34.4563 20.6495 34.4563 21.4647C34.4563 22.2574 34.6361 22.6537 34.9957 22.6537Z" fill="white"/>
<path fill-rule="evenodd" clip-rule="evenodd" d="M43.3138 30.2656C42.6465 30.2656 42.1055 30.8066 42.1055 31.4739V32.6823C42.1055 33.3496 42.6465 33.8906 43.3138 33.8906C43.3211 33.8906 43.3283 33.8905 43.3356 33.8904L42.5583 36.0666H43.374L44.4063 33.1992C44.4805 33.0425 44.5221 32.8672 44.5221 32.6823V31.4739C44.5221 30.8066 43.9811 30.2656 43.3138 30.2656ZM42.8305 31.4739C42.8305 31.207 43.0469 30.9906 43.3138 30.9906C43.5807 30.9906 43.7971 31.207 43.7971 31.4739V32.6823C43.7971 32.9492 43.5807 33.1656 43.3138 33.1656C43.0469 33.1656 42.8305 32.9492 42.8305 32.6823V31.4739Z" fill="#1C1D1F"/>
<path fill-rule="evenodd" clip-rule="evenodd" d="M27.123 30.5325V36.0882H28.4336C29.1976 36.1225 29.8134 35.4655 29.7799 34.7185V31.9022C29.8141 31.154 29.1986 30.4986 28.4336 30.5325H27.123ZM28.4336 35.3846H27.8341V31.2361H28.4336C28.7975 31.2194 29.085 31.5423 29.0689 31.9022V34.7185C29.0851 35.0798 28.8051 35.4016 28.4336 35.3846ZM31.7076 36.088C32.454 36.1204 33.0761 35.4668 33.0415 34.719V33.107C33.0776 32.3591 32.4516 31.7104 31.7076 31.7403C30.9395 31.7285 30.3676 32.36 30.3852 33.107V34.719C30.3676 35.4651 30.9399 36.0998 31.7076 36.088ZM31.7076 35.4069V35.4023C31.3479 35.4152 31.0577 35.1118 31.0706 34.7553V33.0662C31.0616 32.7047 31.3539 32.4387 31.7076 32.4387C32.0625 32.4387 32.3501 32.7044 32.3399 33.0662V34.7621C32.3539 35.1169 32.0614 35.4219 31.7076 35.4069ZM33.6473 36.0642V31.8321H34.3429V32.0763C34.5405 31.8539 34.8518 31.7321 35.1613 31.74C35.5654 31.7338 35.9741 31.9331 36.153 32.2693C36.335 31.9432 36.7157 31.7257 37.1088 31.74C37.7622 31.7346 38.2643 32.2494 38.2379 32.9132V36.0642H37.5424V33.0207C37.549 32.7801 37.4024 32.5399 37.1663 32.4517C36.929 32.3631 36.6368 32.4106 36.4573 32.5821C36.3433 32.7023 36.2827 32.8594 36.2881 33.0207V36.0642H35.5925V33.0207C35.6005 32.7803 35.4533 32.5407 35.2175 32.4522C34.9808 32.3633 34.6893 32.4112 34.5098 32.5821C34.3966 32.7027 34.3361 32.8595 34.3406 33.0207V36.062L33.6473 36.0642ZM40.0514 36.0882C40.8533 36.1191 41.3635 35.4188 41.3635 34.6555H40.6741C40.6741 35.0393 40.4835 35.422 40.0445 35.4003C39.693 35.4141 39.3954 35.1092 39.4103 34.7554V34.0516H41.3795V33.1071C41.415 32.3687 40.8073 31.7109 40.0514 31.7402C39.2882 31.7224 38.7053 32.3436 38.7232 33.1071V34.7191C38.7174 34.9684 38.7751 35.2151 38.891 35.4366C39.1071 35.8519 39.579 36.0993 40.0514 36.0882ZM39.4103 33.4045V33.0662C39.3997 32.7209 39.6947 32.4243 40.0445 32.4373C40.5877 32.412 40.6741 32.974 40.6741 33.4045H39.4103Z" fill="#1C1D1F"/>
<defs>
<linearGradient id="paint0_linear_9176_11819" x1="39.9584" y1="17.682" x2="4.66923" y2="30.5333" gradientUnits="userSpaceOnUse">
<stop stop-color="#E35784"/>
<stop offset="1" stop-color="#C03C6B"/>
</linearGradient>
</defs>
</svg>
