<svg width="50" height="50" viewBox="0 0 50 50" fill="none" xmlns="http://www.w3.org/2000/svg">
<rect width="50" height="50" fill="#171B37"/>
<path d="M34.0896 10.4192C34.0099 9.48943 33.2081 8.75342 32.2749 8.75342C31.3417 8.75342 30.5399 9.48943 30.4602 10.4192C30.4602 17.1275 30.8707 23.9425 30.4602 30.6398C30.1491 33.3359 27.142 35.6172 23.72 35.6172C19.7959 35.1439 16.9082 31.4514 17.3946 27.5289C17.7737 24.2091 20.4981 21.5286 23.8237 21.2035C24.3142 21.2142 24.8016 21.2839 25.2755 21.4109C26.3624 21.4109 27.4301 21.3048 27.7642 20.0629C28.0605 19.0465 27.3402 17.7816 26.2088 17.7816C25.3864 17.627 24.5552 17.5231 23.72 17.4705C20.8324 17.4705 18.0629 18.6176 16.0211 20.6595C13.9792 22.7014 12.832 25.4708 12.832 28.3585C12.832 34.2888 17.7897 39.2465 23.72 39.2465C29.0085 39.2465 33.6748 35.6171 34.0896 31.0546C34.4772 24.2133 34.0896 17.27 34.0896 10.4192ZM25.7939 18.5075C26.5054 18.4924 27.1111 19.1382 27.0383 19.8555C27.0534 20.567 26.4076 21.1726 25.6903 21.0998C24.9925 21.0781 24.4115 20.4566 24.4459 19.7518C24.504 19.0595 25.0992 18.51 25.7939 18.5075ZM32.3267 11.871C31.6525 11.8622 31.0912 11.3008 31.0824 10.6266C31.1272 9.96754 31.6677 9.42703 32.3267 9.38224C33.001 9.39104 33.5623 9.95237 33.5711 10.6266C33.5978 11.3032 33.0115 11.898 32.3267 11.871Z" fill="white"/>
</svg>
