<svg width="50" height="50" viewBox="0 0 50 50" fill="none" xmlns="http://www.w3.org/2000/svg">
<rect width="50" height="50" fill="black"/>
<path d="M36.7922 24.8108C36.7922 24.8108 46.3591 27.2872 41.7399 34C41.5757 29.1906 39.071 27.9012 33.6306 26.1207C30.12 24.9541 27.369 23.542 27.6153 20.3697C27.8617 17.1976 31.2286 15.0691 35.0882 15.3147C35.9095 15.3761 37.6339 15.5194 39.0915 16.0105C39.7624 16.2784 40.397 16.6291 40.9803 17.0543V21.127C40.7134 20.3697 40.0154 18.5279 39.03 17.2385C38.0446 15.9492 34.7598 15.7036 34.7598 15.7036C32.1319 15.6217 29.9558 16.7064 29.5863 18.2618C29.422 18.6916 28.3134 22.2526 36.7922 24.8108ZM31.3518 33.7748C30.6265 33.5681 29.935 33.258 29.2988 32.8539V28.6175C29.2988 28.6175 29.9147 31.1143 31.3518 32.6697V33.7748Z" fill="white"/>
<path d="M8 15H16.4568C22.7625 15 26.2 19.091 26.2 24.0254C26.2 30.0143 21.8135 33.7045 16.3514 33.7045H8V15ZM12.5342 30.1829H15.7609C19.4304 30.1829 21.3917 28.1164 21.3917 24.152C21.3917 20.6936 19.5991 18.5427 15.8241 18.5005H12.5342V30.1829Z" fill="white"/>
</svg>
