<svg width="50" height="50" viewBox="0 0 50 50" fill="none" xmlns="http://www.w3.org/2000/svg">
<path d="M43.6351 34.1293C43.5217 32.7688 42.1746 31.8581 40.9998 31.447C40.8821 31.1175 40.741 30.8117 40.5762 30.5058C40.9057 30.5528 41.2116 30.5999 41.4468 30.6234C42.0351 30.6705 42.6939 30.1293 43.2586 30.6705C42.7645 30.1764 42.0821 29.9646 41.4233 29.894C40.9998 29.8469 40.5998 29.894 40.1998 29.9881C40.0821 29.8469 39.9645 29.7293 39.8233 29.6117C39.588 29.3999 39.3292 29.1881 39.0468 28.9764C39.3762 28.9528 39.6821 28.9058 39.9409 28.8822C40.5998 28.7881 41.188 28.2234 41.8704 28.5058C41.188 28.1999 40.4821 28.0822 39.7527 28.1528C39.2821 28.1999 38.8586 28.3411 38.4351 28.5293C37.6586 27.9881 36.7645 27.4469 35.7056 26.9293C34.2874 26.2044 32.7844 25.4821 31.588 24.4116C31.1409 23.9881 30.788 23.5175 30.5527 22.9763C29.9802 21.6597 30.0834 19.9607 30.788 18.7175C31.5763 17.2283 33.2446 16.4586 34.8821 16.4586C36.2939 16.4586 37.4233 16.8586 38.2939 17.6822C38.7409 18.1057 38.7645 18.3174 38.7174 18.5998C38.0821 19.0704 37.588 19.1645 36.788 19.1175C37.3806 19.236 38.0109 19.2013 38.5998 19.0704C38.5762 19.2116 38.5762 19.3998 38.5998 19.6116C38.2468 20.0116 37.8704 20.1998 37.2586 20.3645C37.8196 20.2897 38.2916 20.0715 38.788 19.8233L43.3998 23.1645L42.2233 17.9645L38.6939 13.5409C38.5998 13.8704 38.9998 15.141 39.1174 15.8704C38.9056 15.6351 38.6704 15.3998 38.388 15.1645C37.588 14.5057 36.6703 14.1762 35.7056 13.7527C36.1292 13.9409 37.0233 14.9998 37.7292 15.6116C37.988 15.8233 38.2939 16.1057 38.6468 16.3645C38.1039 16.2288 37.5744 16.057 37.0233 15.941C36.4115 15.6116 35.7997 15.2821 35.0703 15.0939C34.0586 14.8115 33.0233 14.9292 31.988 14.8821C32.9349 14.9467 33.8275 15.7998 34.7174 15.7998C34.0821 15.8233 33.4703 15.9174 32.9056 16.0586C32.2468 15.8468 31.588 15.6821 30.8585 15.6116C29.9174 15.541 29.0468 15.7292 28.1291 15.9174C28.9997 15.7998 29.7762 16.2468 30.6232 16.341C30.9527 16.3645 31.3762 16.4116 31.8232 16.4351C31.2312 16.6888 30.6633 17.0247 30.1762 17.4469C29.635 17.3763 29.0938 17.3292 28.5291 17.3763C27.5644 17.4704 26.7173 17.7763 25.8703 18.1998C26.7173 17.7763 27.6115 18.1763 28.4585 18.1292C28.7644 18.1057 29.1409 18.0822 29.5409 18.0351C29.2267 18.3778 29.0144 18.8439 28.6938 19.1645C28.3644 19.2586 28.035 19.3763 27.6115 19.6351C26.7644 20.1292 26.0585 20.7645 25.7997 21.6351C26.0114 20.9057 27.3056 20.8586 28.1291 20.4822C27.9879 20.9763 27.9173 21.4704 27.9173 21.9881C27.9173 22.9057 28.082 23.7057 28.4115 24.4116C28.435 24.4351 28.435 24.4587 28.4585 24.4822C19.0139 20.4682 30.8613 8.84521 37.9174 10.2703C31.5886 7.78847 22.8758 8.5077 16.529 10.0821C13.4231 10.8586 10.1055 12.2468 7.94073 14.8586C7.37602 15.541 6.88191 16.2468 6.36426 16.9527C10.9516 11.6356 18.0354 11.4694 24.435 10.5056C19.4357 13.1189 16.0336 16.0253 12.2466 20.0116C15.9019 16.6345 20.8282 13.5482 25.7056 12.3409C22.4252 13.8444 21.4503 18.1537 20.2702 21.1881C21.1408 18.8822 23.0467 16.741 24.6938 15.0468C23.8232 16.1527 23.0703 19.1175 23.2114 20.6234C23.3526 22.3645 24.835 23.5881 26.0114 24.6234C29.405 27.5687 34.4976 28.1914 37.7762 31.3764C40.7109 34.2272 38.0584 38.5251 34.1997 38.1294C33.0079 38.0234 31.7925 37.628 30.9291 36.7646C28.9498 34.9018 28.2439 32.0466 26.2703 30.1293C25.4232 29.3058 24.1997 28.8352 22.5997 28.6705C20.6328 28.4831 18.6058 29.0638 17.2349 30.5293C16.082 31.7617 15.7413 33.7372 16.129 35.3529C16.4117 36.5308 20.6901 39.5691 20.2938 39.6823C20.1291 39.7294 18.482 40.2705 17.9643 40.2941L22.8349 41L20.5761 37.2352L20.6702 39.4C18.6885 38.2243 16.4758 35.9002 16.7643 33.3999C16.9218 31.9038 17.8714 30.6519 19.3761 30.3175C21.0606 29.9566 23.0317 30.237 24.3408 31.4234C26.318 33.2153 27.0437 35.9638 28.882 37.8941C31.396 40.2883 35.919 40.4025 38.5292 38.0823C39.8152 37.2739 40.8045 35.9841 41.1174 34.4823C41.6083 34.9731 42.6704 35.5767 42.6704 36.3411C42.7009 35.2117 42.0396 34.0889 41.2116 33.3529C41.2116 33.0705 41.188 32.7881 41.1645 32.5293C41.8031 33.1041 43.5628 33.2853 43.6351 34.1293ZM40.2233 17.7527C40.5067 17.9147 40.8386 18.0857 41.0704 18.3175C41.3762 18.6233 41.3763 19.0233 41.4468 19.3998C41.033 19.2224 40.3518 18.3627 39.9174 18.4351C40.0115 18.3645 40.1292 18.341 40.2704 18.341C40.2704 18.1763 40.0586 18.1292 39.8704 17.988C39.8704 17.988 40.1527 18.1057 40.2939 18.1292C40.2939 17.988 40.2233 17.8939 40.2233 17.7527Z" fill="#6FD1D2"/>
</svg>
