<svg width="50" height="50" viewBox="0 0 50 50" fill="none" xmlns="http://www.w3.org/2000/svg">
<path d="M42.9768 23.6138C40.6003 29.1745 38.1623 34.6862 32.1061 37.1104C32.814 30.8453 33.2796 25.1782 29.4356 19.664C34.5469 19.4313 38.8997 20.8875 42.9998 23.3161L42.9768 23.6138Z" fill="#FE9504"/>
<path d="M12.9341 31.1609C19.3049 32.5845 25.1516 30.905 31.081 28.8347C31.3745 33.6488 30.255 38.4432 27.8635 42.615C27.6619 42.8765 27.3305 43.0235 27.004 42.9965C20.7987 41.0472 15.3197 38.1534 12.9341 31.1609Z" fill="#FE9504"/>
<path d="M20.0079 21.2741C19.3322 16.217 20.1136 11.653 22.7198 7.47049C22.9789 7.14549 23.3984 6.96637 23.8092 7.00525C30.2213 8.95926 35.4659 12.3276 37.925 19.2271C31.7151 17.7941 25.7535 18.1151 20.0079 21.2741Z" fill="#FE9503"/>
<path d="M20.5137 29.9134C16.8089 31.0765 11.5689 30.0344 7 27.0801C8.99028 20.5901 12.4698 15.2817 18.4912 12.0715C18.2107 18.6839 18.7661 23.5298 20.5137 29.9134Z" fill="#FE9503"/>
</svg>
