<svg width="50" height="50" viewBox="0 0 50 50" fill="none" xmlns="http://www.w3.org/2000/svg">
<rect width="50" height="50" fill="#272435"/>
<path d="M41.4238 9.7152H39.4951C39.3279 9.7152 39.1966 9.84764 39.1966 10.0162V11.7379L28.7769 29.9664L25.839 24.2896L29.2486 17.4629H30.6219C30.7891 17.4629 30.9205 17.3305 30.9205 17.1619V15.2175C30.9205 15.0489 30.7891 14.9165 30.6219 14.9165H28.6933C28.5261 14.9165 28.3947 15.0489 28.3947 15.2175V15.7412H22.1668V15.2175C22.1668 15.0489 22.0354 14.9165 21.8682 14.9165H19.9395C19.7723 14.9165 19.641 15.0489 19.641 15.2175V17.1619C19.641 17.3305 19.7723 17.4629 19.9395 17.4629H21.301L24.8359 24.2956L17.772 38.4486L9.5258 22.5799V20.8401C9.5258 20.6716 9.39444 20.5391 9.22725 20.5391H7.29856C7.13137 20.5391 7 20.6716 7 20.8401V22.7846C7 22.9532 7.13137 23.0856 7.29856 23.0856H8.78538L16.7808 38.4787C16.6196 38.4847 16.4942 38.6172 16.4942 38.7797V40.7242C16.4942 40.8927 16.6255 41.0252 16.7927 41.0252H18.7214C18.8886 41.0252 19.02 40.8927 19.02 40.7242V38.7797C19.02 38.7797 19.02 38.7616 19.02 38.7496C19.008 38.6111 18.8946 38.5028 18.7513 38.4847L25.3434 25.2829L27.7737 29.9785C27.6364 30.0026 27.5229 30.123 27.5229 30.2674V32.2119C27.5229 32.3805 27.6543 32.5129 27.8215 32.5129H29.7502C29.9174 32.5129 30.0487 32.3805 30.0487 32.2119V30.2674C30.0487 30.1169 29.9353 29.9965 29.7979 29.9785L39.925 12.2617H41.4238C41.591 12.2617 41.7224 12.1292 41.7224 11.9607V10.0162C41.7224 9.84764 41.591 9.7152 41.4238 9.7152ZM25.3315 23.3144L22.1608 17.186C22.1608 17.186 22.1608 17.174 22.1608 17.1679V16.6442H28.3887V17.1679C28.3887 17.1679 28.3887 17.1679 28.3887 17.174L25.3255 23.3144H25.3315Z" fill="white"/>
<path d="M40.373 15.6749C40.4626 15.6631 40.5998 15.8674 40.6535 15.9577C42.2478 18.6546 43 21.3398 43 24.5003C42.9999 34.1502 35.2138 41.9999 25.6422 42C24.0658 42 22.5069 41.7894 21.0081 41.368C20.9007 41.338 20.7932 41.3197 20.6798 41.2475C20.5667 41.1751 20.6621 40.9466 20.6979 40.8142C20.7636 40.5735 21.0084 40.4353 21.2472 40.5015C22.6683 40.8988 24.1494 41.097 25.6422 41.097C34.7243 41.0969 42.1107 33.6502 42.1107 24.4938C42.1107 21.496 41.4535 19.0999 39.9369 16.5414C39.8116 16.3307 39.8416 15.97 40.0803 15.8195C40.1997 15.7413 40.2656 15.693 40.373 15.6749Z" fill="#38D92D"/>
<path d="M39.0354 17.0899C40.2355 19.2872 40.9223 21.8158 40.9223 24.5068C40.9222 33.0189 34.079 39.9177 25.6358 39.9177C23.7669 39.9177 21.9757 39.5806 20.3218 38.9606L25.3553 28.7931L25.8988 29.8583V33.6808C25.8988 33.9516 26.1136 34.1686 26.3822 34.1687H31.2011C31.4698 34.1687 31.6845 33.9517 31.6845 33.6808V29.9547L31.6787 29.9606L39.0354 17.0899Z" fill="#38D92D"/>
<path d="M8.76199 25.776C9.00072 25.7401 9.22138 25.9332 9.25123 26.1799C9.68718 30.5623 11.7954 34.5232 15.181 37.3345C15.372 37.491 15.3899 37.7321 15.2346 37.9247C15.1451 38.0331 14.9953 38.1655 14.9058 38.2016V38.1893C14.8104 38.1651 14.6971 38.0873 14.6136 38.0212C11.0429 35.0593 8.82163 30.8813 8.3678 26.264C8.35585 26.1616 8.30811 25.9206 8.39171 25.8724C8.50508 25.8063 8.61877 25.788 8.76199 25.776Z" fill="#38D92D"/>
<path d="M17.7479 34.8607H17.7421L17.7444 34.8548L17.7479 34.8607Z" fill="#38D92D"/>
<path d="M25.648 9.08936C29.8098 9.08939 33.5774 10.7688 36.3361 13.4897L28.8663 26.5532L27.6481 24.1752L30.1562 19.1064H31.9417C32.2103 19.1063 32.4251 18.8899 32.4251 18.619V13.7548C32.4251 13.484 32.2103 13.2676 31.9417 13.2675H18.608C18.3393 13.2675 18.124 13.484 18.124 13.7548V18.6132C18.1241 18.884 18.3394 19.1005 18.608 19.1005H20.4052L23.0147 24.2058L17.7444 34.8548L10.6962 21.2857C12.1652 14.3207 18.2976 9.08936 25.648 9.08936Z" fill="#38D92D"/>
<path d="M25.6422 7C29.9712 7.00004 33.924 8.37283 37.1245 11.3045C37.1842 11.3607 37.2579 11.4468 37.3455 11.5632C37.4171 11.6535 37.2318 11.8462 37.1542 11.9365C36.987 12.1229 36.7064 12.135 36.5273 11.9665C33.494 9.18534 29.7503 7.89716 25.6422 7.89712C18.5962 7.89712 12.9355 11.9846 10.2186 18.6608C10.147 18.8414 9.97965 18.9618 9.80053 18.9618C9.75276 18.9618 9.70485 18.9557 9.65708 18.9377C9.53173 18.8956 9.26928 18.8053 9.2868 18.679C9.30471 18.5345 9.34077 18.474 9.3766 18.3657C11.777 11.2862 18.2141 7 25.6422 7Z" fill="#38D92D"/>
</svg>
