<svg width="50" height="50" viewBox="0 0 50 50" fill="none" xmlns="http://www.w3.org/2000/svg">
<path d="M6 19.2696H12.8757C15.8483 19.2696 18.2581 21.6551 18.2581 24.5978H6V19.2696Z" fill="#74BF4B"/>
<path d="M6 25.1347H18.2581C18.2581 28.2623 15.6969 30.7976 12.5376 30.7976H6V25.1347Z" fill="#85C562"/>
<path d="M30.9247 19.2696V31H25.4389V19.2696H30.9247Z" fill="#85C562"/>
<path d="M24.7957 19.2696V30.9999C21.6364 30.9999 19.0753 28.4645 19.0753 25.337L19.0753 19.2696H24.7957Z" fill="#74BF4B"/>
<path d="M44 25.1347C44 28.2623 41.4389 30.7976 38.2796 30.7976H37.6667C34.5074 30.7976 31.9462 28.2623 31.9462 25.1347L44 25.1347Z" fill="#74BF4B"/>
<path d="M44 24.6299L31.9462 24.6299C31.9462 21.5578 34.4619 19.0674 37.5652 19.0674L38.381 19.0674C41.4843 19.0674 44 21.5578 44 24.6299Z" fill="#85C562"/>
<path d="M16.588 13.9514C16.5556 13.9349 16.3025 13.7846 15.9262 13.7846C15.4177 13.7846 15.0649 14.1392 15.0649 14.6179C15.0649 15.0821 15.4025 15.4519 15.9262 15.4519C16.296 15.4519 16.5534 15.3046 16.588 15.2861V16.1246C16.4893 16.1521 16.2205 16.2357 15.8712 16.2357C14.9864 16.2357 14.2097 15.6244 14.2097 14.6176C14.2097 13.685 14.9124 13.0007 15.8712 13.0007C16.2399 13.0007 16.5135 13.0907 16.588 13.1129V13.9514ZM8.37728 13.9514C8.34564 13.9349 8.09273 13.7846 7.71649 13.7846C7.20695 13.7846 6.85439 14.1392 6.85439 14.6179C6.85439 15.0821 7.19225 15.4519 7.71649 15.4519C8.08625 15.4519 8.34339 15.3046 8.37728 15.2861V16.1246C8.27961 16.1521 8.01101 16.2357 7.65969 16.2357C6.77565 16.2357 6 15.6244 6 14.6176C6 13.685 6.70264 13.0007 7.65993 13.0007C8.03019 13.0007 8.30328 13.0907 8.37728 13.1129V13.9514ZM19.0625 13.7963C18.5958 13.7963 18.2492 14.1644 18.2492 14.6179C18.2492 15.0723 18.5958 15.4401 19.0625 15.4401C19.5286 15.4401 19.8762 15.0723 19.8762 14.6179C19.8762 14.1644 19.5286 13.7963 19.0625 13.7963ZM20.7097 14.6179C20.7097 15.5116 20.0212 16.2357 19.0627 16.2357C18.1037 16.2357 17.4162 15.5116 17.4162 14.6176C17.4162 13.7257 18.1039 13.0007 19.0625 13.0007C20.0212 13.0007 20.7097 13.7256 20.7097 14.6179ZM13.2283 13.7664C13.2166 13.7626 12.8854 13.671 12.6133 13.671C12.2981 13.671 12.1267 13.7768 12.1267 13.9269C12.1267 14.1172 12.3579 14.1836 12.4872 14.2246C12.9595 14.3751 13.4475 14.6142 13.4475 15.1874C13.4475 15.9723 12.7588 16.236 12.1569 16.236C11.7385 16.236 11.3466 16.1585 11.308 16.1506V15.4314C11.3772 15.4489 11.7071 15.5478 12.0507 15.5478C12.4422 15.5478 12.622 15.4329 12.622 15.2561C12.622 15.0115 12.2885 14.9511 12.1033 14.8905C11.6653 14.7517 11.3 14.4935 11.3 13.9766C11.3 13.3923 11.7365 13 12.4616 13C12.8445 13 13.2048 13.0931 13.2283 13.0994V13.7664Z" fill="#4D4D4F"/>
<path d="M10.2452 16.1803H9.45855V13.0562H10.2452V16.1803Z" fill="#4D4D4F"/>
</svg>
