<svg width="50" height="50" viewBox="0 0 50 50" fill="none" xmlns="http://www.w3.org/2000/svg">
<rect width="50" height="50" fill="#40B72F"/>
<path d="M25.3646 29.8829L25.2615 29.7664C25.2615 26.3798 25.254 22.9962 25.2391 19.6156C25.3646 19.5214 25.4902 19.351 25.6157 19.351C27.1269 19.351 28.6381 19.351 30.1986 19.351V29.8829H25.3646Z" fill="#E0EFD9"/>
<path d="M19.7236 19.4721C21.3239 19.1607 23.0317 19.3421 24.6518 19.3421V29.8381C23.1883 29.7046 21.8397 29.0627 20.9055 27.8993C20.1818 26.9981 19.7772 25.8824 19.755 24.7268C19.755 22.9759 19.7217 21.2239 19.7236 19.4721Z" fill="#FAFCFA"/>
<path d="M8.75488 24.2784V19.3465H13.535C16.6426 19.3465 18.5394 20.853 19.2479 23.8659V24.3143L8.75488 24.2784Z" fill="#FAFCFA"/>
<path d="M8.87599 29.901C8.75673 28.2713 8.75941 26.6534 8.75941 25.0184C8.88945 24.9556 8.93429 24.9198 8.97465 24.9198H19.2883V25.2022C18.9072 27.1033 17.943 28.5828 16.1494 29.3899C15.6504 29.5765 15.1414 29.7352 14.6247 29.8652L8.87599 29.901Z" fill="#E0EFD9"/>
<path d="M30.799 24.3233C30.7707 21.4228 33.4283 19.2381 36.2231 19.3689C38.8693 19.4927 41.0589 21.6739 41.2113 24.3009L30.799 24.3233Z" fill="#FAFCFA"/>
<path d="M30.7952 24.9376H41.1581C41.2344 27.5111 38.7501 29.8426 35.8174 29.9861C33.4677 30.1071 30.8265 27.4932 30.7952 24.9376Z" fill="#E0EFD9"/>
</svg>
