<svg width="50" height="50" viewBox="0 0 50 50" fill="none" xmlns="http://www.w3.org/2000/svg">
<path d="M20.0552 12.1879C19.6597 14.2757 19.1762 17.3745 18.9124 20.5172C18.4509 26.0554 18.7366 29.7695 18.7366 29.7695L10.9348 37.1757C10.1878 31.9469 9.79199 26.6358 9.79199 21.3523C9.79199 21.2644 9.83595 21.1765 9.83595 21.0886C9.83595 20.5922 20.6509 9.40812 20.0552 12.1879Z" fill="#1496FF"/>
<path d="M20.0552 12.1879C19.6597 14.2757 19.1762 17.3745 18.9124 20.5172C18.9124 20.5172 10.2755 19.4833 9.79199 21.5711C9.79199 21.0618 20.6665 9.33549 20.0552 12.1879Z" fill="#1284EA"/>
<path d="M9.79197 21.0662V21.5497C9.87988 21.1761 10.0337 20.9123 10.3414 20.4948C10.9787 19.6816 12.0116 19.4619 12.4292 19.4179C14.539 19.1322 17.6597 18.8025 20.8024 18.7146C26.3626 18.5388 30.0328 19.0003 30.0328 19.0003L37.8346 11.5941C32.5589 10.6014 27.1956 9.9269 21.8354 9.61616C21.7255 9.61616 20.6486 9.4843 19.6377 10.4513C18.5388 11.5062 12.9567 16.8026 10.715 18.9344C9.70406 19.9014 9.79197 20.9783 9.79197 21.0662Z" fill="#B4DC00"/>
<path d="M37.5489 30.5383C35.4391 30.824 32.3184 31.1756 29.1757 31.2855C23.6155 31.4613 19.9233 30.9998 19.9233 30.9998L12.1215 38.428C17.2992 39.447 22.5679 40.061 27.8351 40.362C27.945 40.362 28.1208 40.2741 28.2307 40.2741C28.3405 40.2741 29.4174 40.0763 30.4284 39.1093C31.5272 38.0544 38.1643 30.4724 37.5489 30.5383Z" fill="#6F2DA8"/>
<path d="M27.6593 40.3619C28.0549 40.296 28.3186 40.1641 28.7362 39.8565C29.5713 39.2631 29.835 38.2302 29.9229 37.8126C30.2965 35.7248 30.802 32.626 31.0437 29.4833C31.4833 23.9451 31.2196 20.253 31.2196 20.253L39.0214 12.8248C39.0214 12.8248 39.5928 16.9564 39.9225 21.6375C40.1202 24.6923 40.1862 27.3955 40.2082 28.8899C40.2082 28.9998 40.2961 30.0767 39.2851 31.0437C38.1863 32.0986 32.6041 37.417 30.3844 39.5488C29.5532 40.3108 28.6894 40.3619 27.6593 40.3619Z" fill="#73BE28"/>
</svg>
