<svg width="50" height="50" viewBox="0 0 50 50" fill="none" xmlns="http://www.w3.org/2000/svg">
<path fill-rule="evenodd" clip-rule="evenodd" d="M24.8412 34.5998C19.0886 34.4972 14.5359 29.9109 14.6065 24.3322C14.677 18.7534 19.4415 14.3383 25.1941 14.4068C30.9467 14.4752 35.4994 19.0957 35.4288 24.6744C35.3935 25.7697 35.2171 26.8649 34.8289 27.8916L38.6404 34.326C44.2519 27.036 42.6637 16.6999 35.1465 11.258C27.6293 5.8162 16.971 7.35634 11.3596 14.6464C5.74814 21.9364 7.33628 32.2725 14.8535 37.7144C17.7828 39.8363 21.3473 40.9658 24.9823 40.9658H28.6174L28.4057 40.6235L24.8412 34.5998Z" fill="#201C51"/>
<path fill-rule="evenodd" clip-rule="evenodd" d="M22.3354 25.0851L31.829 41H39.4874L29.9938 25.0851H22.3354Z" fill="#52BDBC"/>
</svg>
