<svg width="50" height="50" viewBox="0 0 50 50" fill="none" xmlns="http://www.w3.org/2000/svg">
<path d="M29.1387 27.075C28.0273 27.3298 26.9066 27.4836 25.7765 27.5548C23.477 27.6994 21.2006 27.6099 19.0638 26.6112C17.9919 26.1107 17.0851 25.383 16.2783 24.5266C16.1783 24.423 16.016 24.1224 16.2992 24.2075C17.1688 24.4692 18.0245 24.7769 18.908 24.9996C20.7472 25.4633 22.5864 25.9087 24.4721 26.1566C25.6533 26.3105 26.8298 26.4666 28.0226 26.4781C28.2063 26.4781 28.39 26.4849 28.5784 26.3862C25.7445 25.8716 22.9131 25.3286 20.2101 24.3039C18.2733 23.5693 16.441 22.6487 14.9041 21.2345C13.4811 19.9259 12.3488 18.4175 11.6512 16.6107C11.5321 16.297 11.6536 16.2316 11.9163 16.45C14.5675 18.693 17.5768 20.4669 20.6775 22.0449C22.7771 23.1147 24.9348 24.0652 27.1205 24.9491C27.3344 25.0363 27.546 25.1281 27.7669 25.22C27.8034 24.5941 21.0601 21.3528 20.2217 20.8143C17.964 19.3657 15.8179 17.7678 14.0392 15.7613C11.9558 13.4058 10.5282 10.7197 10.1306 7.55385C9.98873 6.41744 9.94455 5.2925 10.0887 4.15608C10.1103 3.96451 10.2203 3.96915 10.2887 4.1446C11.2876 6.59215 12.5017 8.85593 14.0531 11.009C15.5459 13.0821 17.2827 14.9486 19.1591 16.6819C22.646 19.9016 26.7225 22.4555 30.9872 24.5106C31.5011 24.7585 32.0242 24.9835 32.5404 25.2269C32.7148 25.3095 32.8287 25.2911 33.0031 25.1718C33.431 24.8733 33.8658 24.5932 34.2308 24.2167C35.2864 23.1354 35.1074 22.0082 33.7588 21.3033C33.5286 21.1817 33.2914 21.0692 33.0613 20.9475C32.911 20.8636 32.9292 20.7473 33.1078 20.7547C34.0843 20.8006 35.0655 20.8419 35.9956 21.1771C37.7325 21.8015 38.6695 23.0527 38.9369 24.8343C39.002 25.2636 38.9974 25.6906 38.9951 26.1222C38.9951 26.3148 38.8795 26.3674 38.7695 26.1842C37.9831 24.8953 36.3565 24.7216 34.9911 24.8526C34.3773 24.9123 33.7681 25.0547 33.1822 25.259C32.957 25.3405 32.9639 25.4332 33.1822 25.5207C33.7774 25.7526 34.3726 25.9822 34.9656 26.214C35.2725 26.3334 35.2841 26.3908 35.0214 26.6089C33.9309 27.5158 32.7078 28.2137 31.3825 28.7279C29.8828 29.3088 28.3249 29.6577 26.7089 29.644C25.3278 29.6325 23.9745 29.3822 22.6632 28.9437C22.4909 28.8842 22.2686 28.6852 22.5748 28.6636C22.9794 28.6292 23.384 28.5833 23.7885 28.5626C25.3739 28.4868 27.8371 28.1468 29.1341 27.075H29.1387Z" fill="#0091DA"/>
<path d="M34.1266 30.1351C32.6309 30.7732 31.1612 31.4696 29.8297 32.4148C29.6577 32.5365 29.4879 32.6651 29.3112 32.7822C29.126 32.9088 29.0361 32.7886 29.1112 32.6031C29.36 31.9855 29.7623 31.4758 30.2878 31.0649C31.511 30.1124 32.9429 30.0421 34.2684 29.4188C33.7627 28.9735 31.3409 29.9128 30.7668 30.103C30.6947 30.1259 30.597 30.2246 30.5389 30.1213C30.4924 30.0387 30.5877 29.9629 30.6505 29.9078C31.1574 29.4556 31.7433 29.1548 32.413 29.0171C32.9131 28.9151 33.4086 28.9168 33.908 28.8403C33.9638 28.8311 34.0336 28.8127 34.029 28.7416C34.0233 28.5628 33.2638 28.5676 33.15 28.59C33.0594 28.6084 32.9338 28.6405 32.9175 28.5028C32.9036 28.3811 33.0198 28.3559 33.1152 28.3375C34.2405 28.124 35.3613 28.0941 36.4727 28.4316C36.9563 28.5786 37.419 28.7691 37.8655 29.0033C38.1346 29.1464 38.1572 29.2279 37.8608 29.3522C35.4884 30.3942 33.2211 31.5108 31.3899 33.4135C30.4598 34.3823 29.7111 35.4889 29.3066 36.7883C29.2319 37.0361 29.0609 37.0594 29.0229 36.7745C28.8322 35.4108 29.0996 34.1734 30.039 33.1105C31.1768 31.8184 32.6647 30.9972 34.1545 30.1856C34.1498 30.1774 34.1355 30.1351 34.1266 30.1351Z" fill="#0091DA"/>
<path d="M33.1612 24.5678C33.0682 24.6298 32.9891 24.5816 32.9101 24.5517C29.9804 23.4497 27.2251 22.0378 24.772 20.0864C22.9863 18.6653 21.5982 16.9297 20.6147 14.8864C20.2217 14.0714 19.9985 13.199 19.9218 12.2945C19.8996 12.0322 20.0367 11.9884 20.1543 12.2279C20.8611 13.6329 21.7796 14.8979 22.798 16.0894C24.9976 18.6653 27.5948 20.8027 30.3803 22.7266C31.2127 23.3005 32.0591 23.8561 32.938 24.3657C33.024 24.4163 33.1379 24.4438 33.1612 24.5678Z" fill="#0091DA"/>
<path d="M27.2764 43.001V43.7432C28.2318 43.7432 29.4297 43.7707 29.4297 45.0371C29.4297 45.9159 28.9299 46.3555 28.0869 46.3555C27.2624 46.3555 26.7344 45.8677 26.7344 45.1201H25.8311C25.8311 46.3716 26.8519 47.0977 28.0869 47.0977C29.3833 47.0977 30.3379 46.3352 30.3379 45.0176C30.3379 44.3702 30.0559 43.6587 29.1258 43.3466C29.9079 42.9936 30.2305 42.3158 30.2305 41.8047C30.2305 40.4677 29.3643 39.793 28.082 39.793C26.95 39.793 25.8896 40.5645 25.8896 41.751H26.793C26.793 40.9998 27.3324 40.5352 28.082 40.5352C28.9219 40.5352 29.3223 40.9648 29.3223 41.7852C29.3223 42.9206 28.1687 43.001 27.2764 43.001Z" fill="black"/>
<path d="M21.7686 47L19.1416 39.8906H20.1621L22.179 45.7514L24.2148 39.8906H25.2354L22.6035 47H21.7686Z" fill="black"/>
</svg>
