<svg width="50" height="50" viewBox="0 0 50 50" fill="none" xmlns="http://www.w3.org/2000/svg">
<path d="M24.7161 7.17657C24.7408 6.98693 25.4302 5.83131 25.4302 5.83131L37.0344 5C37.0344 5 34.3876 9.47298 34.0829 9.74443C34.1771 9.83396 34.3111 9.90051 34.4223 9.9731C34.6137 10.099 34.8027 10.2283 34.9893 10.361C35.6057 10.7976 36.1913 11.2743 36.7423 11.788C40.0417 14.849 41.8561 19.0847 41.9933 23.5032C42.0117 24.098 41.9636 24.6914 41.9066 25.2831C41.5648 28.8898 40.0326 32.2897 37.5416 34.9696C34.5005 38.2184 30.2687 40.1578 25.7703 40.3645C23.8117 40.4478 21.8531 40.2013 19.9799 39.6354L14.7965 45L17.63 38.7406C16.0178 37.9818 14.5372 36.9803 13.2421 35.7727C10.0277 32.7525 8.14857 28.6222 8.00637 24.2647C7.88187 19.811 9.58572 15.4941 12.7375 12.2778C15.8762 9.0389 20.1775 7.2959 24.7161 7.17657ZM32.4198 21.1114L27.0938 27.9338L30.4236 27.891L22.9755 36.4168C23.2556 36.4342 23.5594 36.4827 23.8435 36.5037C24.2378 36.5327 24.6414 36.5535 25.0365 36.5518C28.5209 36.5501 31.8576 35.1759 34.294 32.7393C36.7215 30.3471 38.0754 27.1079 38.0564 23.7374C38.0293 20.1462 36.6294 17.0662 34.0285 14.5497L34.0139 14.5725L29.1045 21.3091L32.4198 21.1114ZM20.1496 32.8509L17.4967 32.7307L20.9158 25.9401L20.925 25.9115L18.3375 25.8394L22.5666 18.3552L19.361 18.1646C19.361 18.1646 21.4169 13.1053 22.6881 11.1789C21.8854 11.3667 21.3826 11.4619 20.5819 11.7445C17.7803 12.7367 15.4047 14.6274 13.8419 17.1088C12.0393 19.9992 11.4753 23.4686 12.2725 26.7634C13.0975 30.0698 15.2287 32.9212 18.1993 34.6934C18.5223 34.8857 18.8489 35.046 19.1647 35.2287L20.1496 32.8509ZM31.7577 13.3854L32.5984 13.3729C32.1513 13.1522 31.923 12.7477 31.7577 13.3854Z" fill="#FEFDFE"/>
<path d="M34.0829 9.74443C35.0299 10.3045 35.9254 11.0264 36.7423 11.788C40.0417 14.849 41.8561 19.0847 41.9933 23.5032C42.1223 27.6715 40.3892 31.906 37.5416 34.9696C34.5005 38.2184 30.2687 40.1578 25.7703 40.3645C23.8117 40.4478 21.8531 40.2013 19.9799 39.6354C20.0076 39.5983 19.9798 39.6265 20.0157 39.5994C20.2755 39.4033 22.9532 36.4685 22.9755 36.4168C23.665 36.4596 24.3427 36.5548 25.0365 36.5518C28.5209 36.5501 31.8576 35.1759 34.294 32.7393C36.7215 30.3471 38.0754 27.1079 38.0564 23.7374C38.0293 20.1462 36.6294 17.0662 34.0285 14.5497C34.139 14.4624 34.7225 13.5114 34.7225 13.5114L32.5984 13.3729C32.5984 13.3729 32.1227 13.0651 31.9406 12.9548L34.0829 9.74443Z" fill="#00498C"/>
<path d="M35.3586 11.2798C35.4408 11.3258 35.4559 11.3364 35.5238 11.4007L35.5129 11.4284C35.4431 11.4439 35.3692 11.3472 35.3586 11.2798Z" fill="#0F5596"/>
<path d="M17.63 38.7406C16.0178 37.9818 14.5372 36.9803 13.2421 35.7727C10.0277 32.7525 8.14857 28.6222 8.00637 24.2647C7.88187 19.811 9.58572 15.4941 12.7375 12.2778C15.8762 9.0389 20.1775 7.2959 24.7161 7.17657L22.6881 11.1789C21.8854 11.3667 21.3826 11.4619 20.5819 11.7445C17.7803 12.7367 15.4047 14.6274 13.8419 17.1088C12.0393 19.9992 11.4753 23.4686 12.2725 26.7634C13.0975 30.0698 15.2287 32.9212 18.1993 34.6934C18.5223 34.8857 18.8489 35.046 19.1647 35.2287C18.5425 36.3311 18.1099 37.5749 17.63 38.7406Z" fill="#00498C"/>
<path d="M35.3395 5.90596L29.8822 14.388L32.9742 14.29L27.0822 22.392L30.379 22.1548L25.1029 28.6682L28.32 28.8122L17.9166 40.3291L21.5717 31.9176L18.9928 31.8341L22.3333 25.1303L19.8929 24.8451L24.2223 17.4469L20.8015 17.3168L26.0974 6.6636L35.3395 5.90596Z" fill="#F1D817"/>
</svg>
