<svg width="50" height="50" viewBox="0 0 50 50" fill="none" xmlns="http://www.w3.org/2000/svg">
<path d="M43.3211 23.8534V25.2609C43.2145 25.2878 43.2029 25.3687 43.2042 25.4599C43.2093 25.8015 43.1734 26.1405 43.1413 26.4808C43.0334 27.6584 42.7984 28.8103 42.4645 29.9429C41.8738 31.9411 40.9646 33.7825 39.7485 35.4725C39.0153 36.4921 38.2063 37.4475 37.2586 38.2771C37.1289 38.3914 37.1224 38.4774 37.2085 38.6148C38.3296 40.4062 39.8667 41.6916 41.8469 42.4429C41.8995 42.4634 41.974 42.466 41.9843 42.5353C41.9958 42.6085 41.9213 42.6265 41.8738 42.6548C39.9424 43.8182 37.8531 44.2086 35.6328 43.894C34.2048 43.6924 32.8924 43.1659 31.7239 42.3196C31.3913 42.0782 31.1254 42.0474 30.744 42.1925C29.3816 42.7087 27.96 43.0092 26.5128 43.1479C25.6626 43.2288 24.8087 43.3225 23.9457 43.2288C23.4064 43.171 22.8619 43.1633 22.3213 43.0965C20.0252 42.8153 17.8575 42.1283 15.8209 41.0303C13.815 39.949 12.057 38.5532 10.5648 36.8286C9.3269 35.4006 8.32911 33.8198 7.56632 32.0887C6.61604 29.9352 6.11908 27.6789 6.01634 25.3341C5.97653 24.4287 6.00992 23.5221 6.11137 22.6194C6.35151 20.4864 6.92424 18.4497 7.86296 16.5171C8.90569 14.3725 10.2977 12.4887 12.0609 10.8835C13.4786 9.59289 15.0529 8.53603 16.793 7.72701C18.1786 7.08236 19.6207 6.61236 21.1206 6.3337C22.5113 6.07559 23.9149 5.95102 25.3352 6.0178C26.2855 6.06274 27.228 6.15649 28.159 6.33884C31.2949 6.9501 34.0893 8.28562 36.5471 10.3274C38.0612 11.5859 39.335 13.0537 40.3842 14.7167C41.6671 16.7521 42.5223 18.957 42.9448 21.3275C43.0835 22.1044 43.1837 22.8865 43.2042 23.6762C43.2068 23.7558 43.1837 23.8611 43.3223 23.856L43.3211 23.8534ZM14.3428 25.0901C14.3428 26.8494 14.3428 28.6087 14.3428 30.3692C14.3428 30.4591 14.3428 30.5516 14.3556 30.6402C14.3878 30.8701 14.4699 30.9356 14.7011 30.9574C14.9733 30.9831 15.2443 30.9625 15.5152 30.9625C17.9949 30.9612 20.4734 30.96 22.9531 30.9587C23.2895 30.9587 23.4012 30.8649 23.4064 30.5259C23.4167 29.844 23.4179 29.1609 23.4064 28.479C23.4 28.104 23.2626 27.991 22.8876 27.991C21.3312 27.991 19.7735 27.991 18.2171 27.991C18.1426 27.991 18.0669 27.9936 17.9937 27.9833C17.7291 27.946 17.5994 27.7996 17.5917 27.5313C17.5892 27.4568 17.5943 27.3823 17.5904 27.3078C17.5532 26.6067 17.733 26.563 18.325 26.5656C19.6207 26.572 20.9164 26.5681 22.2121 26.5656C22.6243 26.5656 22.7322 26.4641 22.7682 26.0571C22.7746 25.9774 22.7759 25.8978 22.7759 25.8169C22.7759 25.2994 22.7784 24.7819 22.7759 24.2657C22.7759 24.1539 22.7759 24.0409 22.7579 23.9305C22.7245 23.707 22.5999 23.5953 22.3752 23.5722C22.3059 23.5658 22.2365 23.5671 22.1672 23.5658C20.797 23.5529 19.4268 23.5928 18.0579 23.544C17.7291 23.5324 17.5981 23.4001 17.5917 23.0675C17.5892 22.8967 17.5879 22.726 17.5917 22.5552C17.5969 22.3009 17.7368 22.1506 17.9911 22.1237C18.0707 22.116 18.1503 22.1185 18.2312 22.1185C19.5 22.1185 20.7687 22.1185 22.0375 22.1185C22.3726 22.1185 22.7091 22.1275 23.0442 22.0916C23.269 22.0685 23.3576 21.9953 23.3935 21.7718C23.4089 21.6781 23.4128 21.5805 23.4128 21.4855C23.4154 20.9102 23.4154 20.3336 23.4154 19.7583C23.4154 19.2061 23.3306 19.1226 22.772 19.1226C20.16 19.1226 17.5468 19.1226 14.9348 19.1226C14.8449 19.1226 14.7525 19.1226 14.6638 19.1393C14.4712 19.1753 14.3878 19.2664 14.3672 19.4616C14.3518 19.6042 14.3441 19.748 14.3441 19.8918C14.3428 21.6241 14.3441 23.3578 14.3428 25.0901ZM25.949 19.1226C25.506 19.1226 25.0642 19.1162 24.6212 19.1265C24.2693 19.1342 24.1666 19.2998 24.2873 19.6311C24.3002 19.6658 24.3143 19.7005 24.3284 19.7352C24.9538 21.253 25.5779 22.7722 26.2046 24.2888C26.8685 25.8952 27.5337 27.5004 28.2001 29.1056C28.4069 29.6026 28.6188 30.097 28.8294 30.5927C28.9334 30.8367 29.1029 30.9677 29.3841 30.9638C30.1084 30.9535 30.8339 30.9458 31.5569 30.9638C31.8882 30.9728 32.0667 30.838 32.1849 30.5413C32.4263 29.9313 32.6883 29.3304 32.9387 28.7242C34.0276 26.1007 35.1166 23.4759 36.2056 20.8511C36.3815 20.4273 36.56 20.0048 36.7218 19.5772C36.8143 19.3345 36.6871 19.1547 36.429 19.1277C36.3661 19.1213 36.3006 19.1213 36.2377 19.1213C35.4222 19.1213 34.6068 19.12 33.7901 19.1213C33.401 19.1213 33.2957 19.1958 33.157 19.5554C32.3582 21.6241 31.5582 23.6929 30.7595 25.7617C30.7312 25.8362 30.703 25.9119 30.6516 25.9749C30.5386 26.1148 30.4358 26.1136 30.3293 25.9697C30.2522 25.8657 30.206 25.745 30.1598 25.6269C29.7283 24.5199 29.2968 23.4117 28.8679 22.3035C28.5173 21.3994 28.1706 20.4928 27.8175 19.5888C27.6672 19.2048 27.5439 19.1252 27.1317 19.1239C26.7375 19.1226 26.3432 19.1239 25.9477 19.1239L25.949 19.1226Z" fill="#DC5283"/>
</svg>
