<svg width="50" height="50" viewBox="0 0 50 50" fill="none" xmlns="http://www.w3.org/2000/svg">
<path d="M9.00051 33.712C7.99416 32.5776 7.22925 31.2692 6.74807 29.8591C5.64718 26.6573 5.83301 23.5355 7.41253 20.5445C9.38342 16.809 12.5481 14.4877 16.8813 13.6846C20.0686 13.0831 23.378 13.6201 26.1726 15.1921C27.7371 16.0304 29.0937 17.1768 30.151 18.554L30.3424 18.8208C30.3424 18.8208 30.6699 19.2244 30.7901 19.4212C31 20.5 29.5228 17.7335 26.457 16.4302C25.6602 16.094 24.8042 15.8805 23.9765 15.611C23.7923 15.5668 23.6823 15.4742 23.5147 15.3896C18.5432 13.579 12.6614 14.8624 9.20596 18.9626C5.66338 23.1662 5.72785 29.2745 9.05119 33.5972C9.08216 33.6372 9.10468 33.6826 9.13284 33.7253L9.00051 33.712Z" fill="#F6890D"/>
<path d="M23.9819 15.603C24.8097 15.8698 25.6712 16.0859 26.4624 16.4221C28.2397 17.1777 29.4363 18.3768 30.7758 19.7013C31.063 20.1282 31.3521 20.5534 31.643 20.9767C31.643 21.1162 31.8448 21.3479 31.9105 21.4677C32.1575 22.1548 32.5035 22.8612 32.6454 23.5782C32.285 23.5782 31.9415 23.5915 31.6008 23.5782C31.536 23.5782 31.4572 23.4314 31.4291 23.338C30.0826 18.73 25.3904 15.8972 20.699 16.2436C16.5894 16.5469 12.8444 19.2563 11.5625 23.2126C11.433 23.6102 11.433 23.6102 10.9459 23.5408C12.1374 18.1597 18.083 14.72 23.3794 15.531C23.5852 15.56 23.7795 15.5509 23.9819 15.603Z" fill="#676663"/>
<path d="M41.2132 28.7198H40.4671C40.4671 28.1488 40.4671 27.5805 40.4671 27.0095C40.4806 26.4243 40.4212 25.6546 39.6843 25.5714C38.9515 25.4571 38.4617 26.0789 38.4511 26.7694C38.4371 27.4204 38.4511 28.0688 38.4511 28.7332H37.7304V24.9844H38.4371V25.4913C38.7489 25.0855 39.2763 24.8459 39.8054 24.8696C40.3077 24.8837 40.783 25.1734 41.0048 25.6007C41.3608 25.2339 41.765 24.8952 42.2929 24.8452C43.052 24.7733 43.8105 25.3019 43.9077 26.073C43.995 26.9375 43.9246 27.8153 43.9246 28.7038H43.2263C43.2263 28.0421 43.2263 27.3831 43.2263 26.724C43.2344 26.1696 42.9874 25.5595 42.3366 25.558C41.9439 25.4934 41.529 25.7138 41.3821 26.065C41.2879 26.3089 41.2365 26.5657 41.2301 26.8254C41.1991 27.4391 41.2132 28.0608 41.2132 28.7198Z" fill="#666664"/>
<path d="M24.3369 28.2342V31.2173H23.5965V24.9844H24.306L24.351 25.4353C24.8146 24.9567 25.5555 24.7523 26.2177 24.9203C27.1806 25.143 27.8086 26.0742 27.7062 27.0503C27.6549 27.5387 27.4275 27.9955 27.0624 28.3436C26.3304 29 25.2858 28.9867 24.3369 28.2342ZM27.023 26.8468C27.046 26.1302 26.435 25.56 25.7391 25.526C25.079 25.6078 24.5219 26.1535 24.5139 26.834C24.5059 27.5143 25.0501 28.0719 25.7081 28.1675C26.4112 28.1525 27.0469 27.5678 27.023 26.8521V26.8468Z" fill="#676765"/>
<path d="M19.1646 24.9684C19.3782 24.9519 19.5929 24.9519 19.8066 24.9684C19.9136 25.0069 20.0011 25.0889 20.0431 25.1898C20.4169 26.0265 20.753 26.8812 21.1468 27.7086C21.4639 26.9878 21.8197 26.2705 22.1012 25.5367C22.3828 24.9124 22.3828 24.9124 23.1486 24.9604C23.036 25.2272 22.9262 25.478 22.8164 25.7288C22.0646 27.4338 21.3016 29.1334 20.564 30.8437C20.4344 31.1399 20.2824 31.284 19.9417 31.2253C19.8358 31.217 19.7294 31.217 19.6236 31.2253C19.8902 30.3984 20.308 29.6132 20.64 28.8106C20.6906 28.6751 20.6906 28.5272 20.64 28.3917C20.1547 27.248 19.6318 26.1194 19.1646 24.9684Z" fill="#676765"/>
<path d="M13.1619 27.0549L10.2703 26.8521L12.3482 26.3718C12.1869 25.8835 11.6802 25.5287 11.1403 25.526C10.2782 25.5017 9.50843 26.3074 9.76477 27.1866C10.0799 28.2676 11.2859 28.2874 12.1116 27.7726L12.5875 28.1862C12.2617 28.523 11.8206 28.7397 11.3423 28.7978C10.1363 28.9444 8.92564 27.9821 8.99937 26.7177C9.06543 25.585 10.1501 24.767 11.2577 24.8539C12.364 24.9407 13.293 25.9192 13.1619 27.0442V27.0549Z" fill="#676766"/>
<path d="M36.1596 24.9843H36.8888V28.6931H36.1765L36.1399 28.2662C35.8259 28.5154 35.5182 28.7363 35.1089 28.7995C34.2669 28.9297 33.2618 28.3855 33.2821 27.4417C33.2483 26.6226 33.2821 25.8008 33.2821 24.9603H34.0029C34.0029 25.7082 33.9627 26.4653 34.0029 27.2123C34.0648 27.8019 34.4252 28.1408 34.963 28.1354C35.5357 28.1688 36.0893 27.755 36.1371 27.1669C36.1732 26.442 36.1596 25.7102 36.1596 24.9843Z" fill="#666664"/>
<path d="M28.0027 27.6232C28.198 27.6232 28.5387 27.5525 28.7184 27.6582C28.779 27.6938 28.8231 27.75 28.8417 27.8153C29.0679 28.3297 30.2099 28.3849 30.3442 27.7682C30.3894 27.5607 30.2527 27.334 30.0412 27.2656C29.7915 27.1854 29.5366 27.1203 29.2782 27.0708C28.6306 26.9188 28.2646 26.5906 28.2308 26.1236C28.1716 25.3712 28.7939 24.8189 29.6385 24.8723C30.3678 24.9176 30.838 25.2618 30.9309 25.8195C30.936 25.87 30.936 25.921 30.9309 25.9715C30.624 25.9395 30.2974 26.113 30.0862 25.7047C29.9961 25.5902 29.8635 25.5122 29.7152 25.4864C29.3717 25.4268 29.0613 25.6689 29.005 26.0089C29.0315 26.1649 29.1384 26.3047 29.2866 26.3771C29.5935 26.5052 29.9342 26.5559 30.2551 26.6599C30.8492 26.8494 31.1505 27.2123 31.0801 27.7566C30.9727 28.4936 30.2297 28.8767 29.5338 28.844C28.7408 28.8067 28.2837 28.3103 28.0027 27.6232Z" fill="#686866"/>
<path d="M17.3148 28.2609C16.5659 29.0373 15.1525 29.0293 14.3106 28.2289C13.9313 27.8502 13.7218 27.3467 13.7266 26.8246C13.7313 26.3024 13.9498 25.8024 14.336 25.4299C15.2229 24.6562 16.6081 24.6695 17.343 25.4726C17.2057 25.6198 17.083 25.7624 16.9657 25.9262C16.0466 25.2597 14.4233 25.5563 14.4718 26.8965C14.5178 28.1651 16.0095 28.3866 16.9038 27.794L17.3148 28.2609Z" fill="#676765"/>
<path d="M18.6914 28.7011H17.9931V20.4297H18.6914V28.7011Z" fill="#646462"/>
<path d="M31.7614 28.6958V24.9844H32.4878V28.7011L31.7614 28.6958Z" fill="#686866"/>
<path d="M17.9791 35.6384C15.0453 34.6618 12.9589 32.8075 11.6244 30.1793L11.7004 30.0699C11.8186 30.1419 11.996 30.1846 12.0467 30.286C13.222 32.7099 15.3557 34.5988 17.9875 35.545L17.9791 35.6384Z" fill="#70706F"/>
<path d="M31.6431 20.9821C31.3599 20.5657 30.6856 19.9544 30.7956 19.4185C31.0771 19.9335 31.3587 20.4484 31.6431 20.9821Z" fill="#ED8E2A"/>
<path d="M9.00051 33.712L9.14404 33.712L9.95211 34.5845L9.83949 34.6192L9.00051 33.712Z" fill="#F79E4A"/>
<path d="M9.83938 34.6298L9.952 34.5951L10.8671 35.4142L10.7741 35.5023L9.83938 34.6298Z" fill="#ECBC88"/>
<path d="M19.007 35.8438L20.35 36.1106L20.3331 36.1853L19.0042 35.9185L19.007 35.8438Z" fill="#A6A6A6"/>
<path d="M19.007 35.8438L19.0068 35.9238L17.9819 35.641V35.5476L19.007 35.8438Z" fill="#858585"/>
</svg>
