<svg width="50" height="50" viewBox="0 0 50 50" fill="none" xmlns="http://www.w3.org/2000/svg">
<path fill-rule="evenodd" clip-rule="evenodd" d="M32.9435 18.1144C32.4329 18.1144 32.2178 18.1974 32.0085 18.4306C31.928 18.5228 31.8948 18.6141 31.8649 18.7975L29.2701 28.6408C28.6598 32.0906 24.4184 35.5388 18.8901 35.5388H11.2044L12.538 30.4802H17.476C17.9808 30.4802 18.3736 30.2951 18.7041 29.9274C18.8236 29.7846 18.9839 29.5605 19.0038 29.3306L21.0539 20.7316C21.6584 17.2776 25.3077 13.4634 30.8344 13.4634H38.7036L37.6972 18.1144H32.9435ZM34.7179 24.1118L35.5956 20.9284H43.5918C44.5782 16.3114 43.801 12.0331 40.9978 9.23075C35.3258 3.56207 23.4577 5.48871 14.6155 13.9448C13.2363 15.2572 12.0697 16.6767 11.006 18.1277H15.8203L14.7018 21.3194H8.95092C8.40207 22.3254 7.8856 23.3224 7.49036 24.3359H14.3107L13.2197 27.5276H6.51719C5.37133 32.4011 6.10203 36.9491 8.98413 39.8362C14.5881 45.4351 26.4187 43.4662 35.256 35.0125C36.8029 33.5416 38.0791 31.9545 39.2325 30.3242H33.0481L33.9906 27.1399H41.222C41.7509 26.1264 42.24 25.1253 42.6194 24.1118H34.7179Z" fill="#3DCD58"/>
</svg>
