<svg width="50" height="50" viewBox="0 0 50 50" fill="none" xmlns="http://www.w3.org/2000/svg">
<path d="M30.9632 25.6756H27.955C27.9426 20.4502 22.9774 16.1918 17.7699 16.9885C13.2313 17.5905 9.72366 21.6625 10.0277 26.2721C10.3318 30.8846 14.344 34.476 18.9247 34.4988C19.0054 35.4945 19.0054 36.495 18.9247 37.4908C12.6942 37.5278 7.27103 32.456 6.95861 26.2582C6.57645 18.6769 13.9335 12.624 21.3805 14.1321C26.7952 15.2286 30.9659 20.0876 30.9632 25.6813V25.6756Z" fill="#C60328"/>
<path d="M19.0286 25.7153H22.0137C22.6265 30.6989 26.5037 34.9338 31.7311 34.4648C35.9402 34.1606 39.5825 30.7416 39.9415 26.5143C40.4517 21.0034 36.0249 17.5038 31.0613 16.8582V13.9341C38.0308 13.6034 43.7517 20.2528 42.9799 27.0067C42.3872 32.194 38.275 36.4039 33.1643 37.3114C26.0804 38.5692 18.9664 33.1063 19.0286 25.7153Z" fill="#B3B5B6"/>
</svg>
