<svg width="50" height="50" viewBox="0 0 50 50" fill="none" xmlns="http://www.w3.org/2000/svg">
<path d="M21.4565 17.9969L28.3373 21.1576L35.2713 15.0237C35.7029 12.8894 35.1873 10.5958 33.9074 8.84375C30.8302 4.63126 24.2428 4.6859 21.2705 9.06391L20.1149 15.1041L21.4565 17.9969Z" fill="#FED10A"/>
<path d="M14.3366 25.3367C14.2341 25.8525 14.1852 26.3777 14.1905 26.9037C14.1946 30.3056 16.4593 33.3932 19.6845 34.3932C22.9097 35.3931 26.5036 34.1219 28.4026 31.3099L29.5449 25.2966L28.0174 22.3502L21.1106 19.1761L14.3366 25.3367Z" fill="#24BBB1"/>
<path d="M14.2967 13.3365L19.0123 14.4616L20.0484 9.06372C18.7496 8.0609 16.8983 8.04363 15.5812 9.02203C14.2641 10.0005 13.7318 11.7884 14.2967 13.3365Z" fill="#EF5098"/>
<path d="M13.885 14.476C11.8173 15.1601 10.3621 17.1373 10.3119 19.3308C10.2617 21.5243 11.625 23.567 13.6592 24.3465L20.2746 18.3198L19.0657 15.7082L13.885 14.476Z" fill="#17A8E0"/>
<path d="M29.5992 31.3091C30.8988 32.2995 32.7409 32.3099 34.0514 31.3343C35.3618 30.3586 35.8941 28.5805 35.3377 27.0368L30.6353 25.9252L29.5992 31.3091Z" fill="#93C83E"/>
<path d="M30.5556 24.6825L35.7362 25.9015C37.8042 25.2172 39.259 23.2393 39.3092 21.0455C39.3594 18.8518 37.9965 16.8084 35.962 16.0286L29.1874 22.0167L30.5556 24.6825Z" fill="#0779A1"/>
<path d="M36.7969 37.5H35.8936V45H36.7969V41.2297C37.053 40.7201 37.5114 40.3809 38.0859 40.3809C38.7623 40.3809 39.1406 40.6872 39.1406 41.5283V45H40.0488V41.5381C40.0488 40.1379 39.3949 39.6191 38.3545 39.6191C37.7212 39.6191 37.1871 39.8778 36.8066 40.3369L36.7969 37.5Z" fill="#1C1D1F"/>
<path d="M32.7734 44.3555C31.6626 44.3555 31.3281 43.3903 31.3281 42.4609C31.3281 41.5247 31.6228 40.3613 32.7734 40.3613C33.5008 40.3613 33.9701 40.8837 34.0186 41.5332H34.8779C34.8289 40.4355 34.0087 39.6191 32.7734 39.6191C31.1739 39.6191 30.4248 41.0362 30.4248 42.4609C30.4248 43.8811 31.1981 45.0977 32.7734 45.0977C33.7614 45.0977 34.8229 44.3861 34.8779 43.3301H34.0186C33.9702 43.9205 33.4209 44.3555 32.7734 44.3555Z" fill="#1C1D1F"/>
<path d="M28.2715 45V41.244C28.5483 40.599 29.2585 40.3842 29.917 40.5273L29.9219 39.6875C29.3213 39.3872 28.5867 39.8018 28.2649 40.3232L28.2471 39.7168H27.3682V45H28.2715Z" fill="#1C1D1F"/>
<path fill-rule="evenodd" clip-rule="evenodd" d="M25.0643 44.4416C24.7306 44.7912 24.223 45.0977 23.5596 45.0977C22.4908 45.0977 21.7725 44.4098 21.7725 43.5303C21.7725 42.6718 22.2978 42.1318 23.1689 41.9092C23.7788 41.7533 24.4203 41.7969 25.0439 41.7969C25.0439 41.0277 24.8707 40.3467 23.9307 40.3467C23.2569 40.3467 22.7881 40.7362 22.7881 41.1816H21.8848C21.8848 40.146 23.1 39.6191 23.9844 39.6191C25.1426 39.6191 25.9473 40.2062 25.9473 41.3867V43.8477C25.9473 44.0234 25.9619 44.2106 25.9912 44.4092C26.0235 44.6059 26.1328 44.8043 26.1328 45H25.1904C25.1138 44.8249 25.0854 44.6304 25.0643 44.4416ZM25.0439 43.5146V42.4316C24.5683 42.4316 24.077 42.3969 23.6084 42.4951C23.0069 42.6115 22.6807 42.9134 22.6807 43.4082C22.6807 43.9076 23.0309 44.3066 23.6914 44.3066C24.2408 44.3066 24.7928 44.0132 25.0439 43.5146Z" fill="#1C1D1F"/>
<path fill-rule="evenodd" clip-rule="evenodd" d="M18.8184 45.0977C17.3581 45.0977 16.3916 44.0356 16.3916 42.5439C16.3916 41.1562 17.0894 39.6191 18.7012 39.6191C20.4572 39.6191 20.874 41.1566 20.874 42.6123H17.3007C17.3232 43.508 17.8913 44.3604 18.8672 44.3604C19.5052 44.3604 19.9268 44.0788 20.2588 43.6426L20.8057 44.0771C20.4651 44.5928 19.8711 45.0977 18.8184 45.0977ZM19.9707 41.875H17.3271C17.4502 40.896 17.9905 40.3613 18.7012 40.3613C19.5362 40.3613 19.9707 41.0893 19.9707 41.875Z" fill="#1C1D1F"/>
<path d="M14.6143 43.2031C14.6143 43.8923 14.0704 44.3311 13.0811 44.3311C12.1797 44.3311 11.333 43.9146 11.333 42.9395H10.3955C10.3955 44.3613 11.8183 45.0977 13.0811 45.0977C14.5928 45.0977 15.5615 44.3485 15.5615 43.1934C15.5615 42.081 14.8398 41.4609 13.2275 41.0059C12.073 40.6851 11.5625 40.3178 11.5625 39.7168C11.5625 39.049 12.0341 38.5645 13.0371 38.5645C14.0933 38.5645 14.6045 39.1326 14.6045 39.9414H15.542C15.542 38.5767 14.2729 37.793 13.0371 37.793C11.5908 37.793 10.6201 38.6105 10.6201 39.7266C10.6201 40.8321 11.514 41.4082 12.9248 41.8262C14.2846 42.2222 14.6143 42.5396 14.6143 43.2031Z" fill="#1C1D1F"/>
</svg>
