<svg width="50" height="50" viewBox="0 0 50 50" fill="none" xmlns="http://www.w3.org/2000/svg">
<path d="M42.5662 25.8454C42.5693 24.4197 42.1315 23.0279 41.3127 21.8607C40.4939 20.6936 39.3343 19.8082 37.9927 19.326C38.2678 17.8895 38.2228 16.41 37.8609 14.9928C37.499 13.5756 36.8291 12.2557 35.899 11.1269C34.9689 9.99818 33.8014 9.08841 32.4797 8.46239C31.1579 7.83636 29.7144 7.50948 28.2519 7.50501C26.6804 7.50313 25.1309 7.87519 23.7316 8.59046C22.3322 9.30573 21.123 10.3437 20.2039 11.6186C19.4241 11.0162 18.4911 10.6445 17.5107 10.5456C16.5303 10.4467 15.5419 10.6246 14.6575 11.0592C13.7731 11.4937 13.0282 12.1674 12.5073 13.0039C11.9863 13.8404 11.7103 14.8062 11.7104 15.7916C11.7126 16.4197 11.8231 17.0426 12.0371 17.6331C10.6909 18.1148 9.52622 19.0004 8.70225 20.169C7.87829 21.3376 7.43522 22.7322 7.4336 24.1621C7.43197 25.592 7.87187 26.9876 8.69318 28.1581C9.51448 29.3286 10.6771 30.2168 12.0222 30.7016C11.5901 32.9188 11.9291 35.2171 12.9831 37.215C14.0371 39.2129 15.7426 40.7903 17.8165 41.6851C19.8904 42.58 22.2079 42.7386 24.3843 42.1345C26.5607 41.5305 28.4651 40.2002 29.7814 38.3645C30.6977 39.0928 31.8331 39.4905 33.0035 39.4931C34.4015 39.4927 35.742 38.9371 36.7305 37.9485C37.719 36.9599 38.2745 35.6192 38.2749 34.2211C38.2727 33.5931 38.1622 32.9701 37.9482 32.3797C39.294 31.894 40.4584 31.0071 41.2842 29.8386C42.11 28.6701 42.5575 27.2763 42.5662 25.8454Z" fill="white"/>
<path d="M21.2451 22.5778L28.9378 26.0825L36.6899 19.2809C36.8044 18.719 36.8592 18.1465 36.8532 17.5731C36.8545 15.7218 36.2629 13.9188 35.1651 12.4282C34.0672 10.9376 32.5209 9.83779 30.7526 9.28986C28.9843 8.74194 27.087 8.77472 25.3387 9.38341C23.5903 9.99211 22.0829 11.1447 21.0372 12.6723L19.7452 19.37L21.2451 22.5778Z" fill="#FED10A"/>
<path d="M13.2852 30.7166C13.1706 31.2885 13.1159 31.8708 13.1218 32.4541C13.1241 34.313 13.7217 36.1223 14.8271 37.6168C15.9324 39.1114 17.4874 40.2125 19.2641 40.7588C21.0408 41.3052 22.9458 41.268 24.6998 40.6527C26.4538 40.0375 27.9646 38.8765 29.0108 37.34L30.2879 30.672L28.5802 27.4049L20.8584 23.8853L13.2852 30.7166Z" fill="#24BBB1"/>
<path d="M13.2406 17.41L18.5126 18.6576L19.671 12.6721C18.9558 12.1245 18.0822 11.8239 17.1815 11.8156C16.2809 11.8072 15.4018 12.0916 14.6767 12.6259C13.9515 13.1602 13.4194 13.9155 13.1604 14.7783C12.9015 15.6411 12.9296 16.5646 13.2406 17.41Z" fill="#EF5098"/>
<path d="M12.7804 18.6736C11.6397 19.0479 10.6431 19.7665 9.9277 20.7306C9.21232 21.6946 8.81332 22.8567 8.78564 24.0569C8.75796 25.257 9.10294 26.4362 9.77311 27.4322C10.4433 28.4282 11.4057 29.1921 12.5279 29.6186L19.9238 22.9357L18.5723 20.0399L12.7804 18.6736Z" fill="#17A8E0"/>
<path d="M30.3486 37.3391C31.0642 37.88 31.9356 38.175 32.8327 38.18C33.7297 38.185 34.6044 37.8998 35.326 37.3669C36.0476 36.8341 36.5776 36.0821 36.8368 35.2233C37.096 34.3645 37.0705 33.4449 36.7641 32.6017L31.5069 31.3691L30.3486 37.3391Z" fill="#93C83E"/>
<path d="M31.4178 29.9911L37.2096 31.3428C38.3502 30.9684 39.3468 30.2496 40.0622 29.2853C40.7775 28.3211 41.1765 27.1587 41.2042 25.9582C41.2319 24.7578 40.8869 23.5783 40.2167 22.582C39.5466 21.5858 38.5842 20.8218 37.4621 20.3952L29.8882 27.0351L31.4178 29.9911Z" fill="#0779A1"/>
</svg>
