<svg width="50" height="50" viewBox="0 0 50 50" fill="none" xmlns="http://www.w3.org/2000/svg">
<path d="M21.4565 17.9968L28.3373 21.1575L35.2713 15.0236C35.7029 12.8893 35.1873 10.5957 33.9074 8.84363C30.8302 4.63113 24.2428 4.68578 21.2705 9.06379L20.1149 15.1039L21.4565 17.9968Z" fill="#FED10A"/>
<path d="M14.3366 25.3366C14.2341 25.8524 14.1852 26.3776 14.1905 26.9036C14.1946 30.3055 16.4593 33.3931 19.6845 34.393C22.9097 35.3929 26.5036 34.1218 28.4026 31.3098L29.5449 25.2964L28.0174 22.35L21.1106 19.1759L14.3366 25.3366Z" fill="#24BBB1"/>
<path d="M14.2967 13.3363L19.0123 14.4614L20.0484 9.0636C18.7496 8.06078 16.8983 8.0435 15.5812 9.02191C14.2641 10.0004 13.7318 11.7883 14.2967 13.3363Z" fill="#EF5098"/>
<path d="M13.885 14.4759C11.8173 15.16 10.3621 17.1371 10.3119 19.3307C10.2617 21.5242 11.625 23.5669 13.6592 24.3464L20.2746 18.3196L19.0657 15.708L13.885 14.4759Z" fill="#17A8E0"/>
<path d="M29.5992 31.309C30.8988 32.2994 32.7409 32.3098 34.0514 31.3341C35.3618 30.3585 35.8941 28.5804 35.3377 27.0367L30.6353 25.9251L29.5992 31.309Z" fill="#93C83E"/>
<path d="M30.5556 24.6824L35.7362 25.9014C37.8042 25.217 39.259 23.2392 39.3092 21.0454C39.3594 18.8517 37.9965 16.8083 35.962 16.0285L29.1874 22.0165L30.5556 24.6824Z" fill="#0779A1"/>
<path fill-rule="evenodd" clip-rule="evenodd" d="M24.7227 39.6191C26.2337 39.6191 26.8955 40.7088 26.8955 42.207V42.6123H23.3242C23.3468 43.5083 23.9105 44.3604 24.8887 44.3604C25.5267 44.3604 25.9482 44.0788 26.2803 43.6426L26.8271 44.0771C26.4866 44.5928 25.8926 45.0977 24.8398 45.0977C23.3049 45.0977 22.4131 43.8137 22.4131 42.3389C22.4131 40.997 23.2791 39.6191 24.7227 39.6191ZM24.7227 40.3613C24.012 40.3613 23.4718 40.896 23.3486 41.875H25.9922C25.9922 41.0893 25.5576 40.3613 24.7227 40.3613Z" fill="#7F8BA5"/>
<path fill-rule="evenodd" clip-rule="evenodd" d="M30.0254 39.6191C31.5364 39.6191 32.1982 40.7088 32.1982 42.207V42.6123H28.627C28.6495 43.5083 29.2132 44.3604 30.1914 44.3604C30.8294 44.3604 31.251 44.0788 31.583 43.6426L32.1299 44.0771C31.7893 44.5928 31.1953 45.0977 30.1426 45.0977C28.6077 45.0977 27.7158 43.8137 27.7158 42.3389C27.7158 40.6092 28.843 39.6191 30.0254 39.6191ZM30.0254 40.3613C29.3147 40.3613 28.7745 40.896 28.6514 41.875H31.2949C31.2949 41.0893 30.8604 40.3613 30.0254 40.3613Z" fill="#7F8BA5"/>
<path d="M34.4785 39.7168H35.4648V40.4102H34.4785V43.6914C34.4785 44.0495 34.6006 44.2188 34.7764 44.2773C35.0064 44.354 35.2535 44.316 35.4844 44.2627L35.4893 45C35.0767 45.1313 34.5791 45.1545 34.1807 44.9658C33.8085 44.7895 33.5752 44.3876 33.5752 43.6865V40.4102H32.6084V39.7168H33.5752V38.4326H34.4785V39.7168Z" fill="#7F8BA5"/>
<path d="M19.2295 37.8906V38.6621H15.7676V41.0889H18.7461V41.8604H15.7676V45H14.8252V37.8906H19.2295Z" fill="#7F8BA5"/>
<path d="M21.1973 45H20.2891V37.5H21.1973V45Z" fill="#7F8BA5"/>
</svg>
