<svg width="50" height="50" viewBox="0 0 50 50" fill="none" xmlns="http://www.w3.org/2000/svg">
<path d="M32.9833 22.3412C33.5123 22.3412 34.0307 22.3412 34.5473 22.3412C34.5818 22.3496 34.6141 22.3646 34.6423 22.385C34.6705 22.4055 34.6939 22.4311 34.7113 22.4603C35.1098 23.0576 35.5031 23.6582 35.898 24.2588C35.921 24.2968 35.9474 24.3316 35.9862 24.3878C36.0356 24.3184 36.0761 24.2621 36.1132 24.2042C36.4976 23.6218 36.8784 23.046 37.2646 22.4603C37.2964 22.4107 37.3598 22.3445 37.4092 22.3428C37.9382 22.3346 38.4566 22.3428 38.9962 22.3428V27.6589H37.4427V24.6708L37.4039 24.6575C36.9331 25.3342 36.4623 26.0093 35.9739 26.7075L34.5632 24.6807L34.5262 24.689V27.6523H32.9921L32.9833 22.3412Z" fill="#FE0407"/>
<path d="M14.4404 27.6572H14.3663V22.4289H14.3346V27.6572C13.9819 27.6572 13.6134 27.6672 13.2519 27.6572C13.1862 27.646 13.1276 27.6116 13.0879 27.5613C12.3614 26.691 11.6373 25.8201 10.9155 24.9487C10.8714 24.8941 10.8238 24.8412 10.7391 24.7518V27.6506H9.19447V22.3412H9.73405C9.99149 22.3412 10.2489 22.3495 10.5046 22.3412C10.556 22.3383 10.6072 22.3491 10.6524 22.3722C10.6976 22.3953 10.735 22.4298 10.7603 22.4719C11.4656 23.33 12.178 24.1882 12.8974 25.0464L12.9856 25.139V22.3544H14.5356C14.5356 22.4057 14.5462 22.452 14.5462 22.5C14.5462 24.1689 14.5462 25.8378 14.5462 27.5067C14.5419 27.5581 14.5325 27.6091 14.5179 27.6589H14.4686C14.4686 27.6308 14.4686 27.6043 14.4686 27.5778V22.5199C14.4703 22.4885 14.4703 22.457 14.4686 22.4256H14.4439L14.4404 27.6572ZM13.072 22.4371H13.0544V25.0381H13.072V22.4371Z" fill="#FE0205"/>
<path d="M15.0098 22.3544C15.0609 22.3544 15.0944 22.3461 15.1279 22.3461C15.8632 22.3461 16.5985 22.3461 17.3338 22.3461C17.8781 22.3426 18.4161 22.4558 18.9067 22.677C19.3476 22.8645 19.7218 23.1669 19.9847 23.5482C20.2476 23.9296 20.3882 24.3738 20.3897 24.8279C20.4584 26.317 19.4622 27.4305 17.8769 27.5993C17.1451 27.6771 16.3993 27.6456 15.6587 27.6622C15.4453 27.6622 15.2302 27.6622 15.0098 27.6622V22.3544ZM16.5774 26.3253C16.9184 26.3477 17.2608 26.3477 17.6018 26.3253C18.1626 26.2508 18.5823 25.9663 18.7233 25.4269C18.8644 24.8875 18.7991 24.3398 18.2825 23.9543C17.7658 23.5688 17.1698 23.6483 16.5774 23.6565V26.3253Z" fill="#FE0407"/>
<path d="M24.7628 25.6354H23.6537V24.5665H26.2528V24.9487C26.2528 25.5725 26.2528 26.1963 26.2528 26.82C26.2553 26.8875 26.23 26.9532 26.1823 27.0037C25.0714 27.8409 23.4386 28.0229 22.2324 27.4322C21.7086 27.1768 21.2817 26.7756 21.0105 26.2835C20.7393 25.7915 20.6371 25.2328 20.7177 24.684C20.7896 24.0749 21.077 23.506 21.5342 23.0684C21.9913 22.6307 22.5917 22.3496 23.2393 22.27C23.7059 22.1933 24.1845 22.209 24.6443 22.3161C25.104 22.4233 25.5348 22.6195 25.909 22.8921C25.9583 22.9269 26.0059 22.9666 26.0624 23.0096L25.1384 24.052C24.8249 23.7854 24.4339 23.6125 24.0152 23.5556C23.817 23.5273 23.6147 23.5373 23.4208 23.585C23.2269 23.6327 23.0455 23.7171 22.8876 23.833C22.7297 23.9489 22.5988 24.0939 22.5028 24.259C22.4068 24.4241 22.3478 24.6059 22.3294 24.7932C22.2554 25.3657 22.4123 25.8786 22.9342 26.2277C23.4562 26.5768 24.0222 26.5718 24.6023 26.3617C24.6562 26.3502 24.7034 26.3198 24.7342 26.2767C24.765 26.2337 24.7771 26.1812 24.7681 26.1301C24.7522 25.9795 24.7628 25.829 24.7628 25.6354Z" fill="#FE0407"/>
<path d="M43.694 25.5659H41.0702L41.0314 25.5775L41.012 25.6205V26.4163H44.0096L44.0537 26.4312C44.0537 26.825 44.0537 27.2171 44.0661 27.6109L44.052 27.6523L43.9744 27.6655H39.5061L39.4691 27.6473C39.4691 27.5878 39.4691 27.5282 39.4691 27.467V22.3958L39.5149 22.3445H44.029V23.4862C44.0484 23.6086 43.9585 23.597 43.8756 23.597H41.0085V24.3614L41.0384 24.3978H41.1848C41.9801 24.3978 42.7718 24.3978 43.5723 24.3978C43.634 24.4074 43.6936 24.4264 43.7487 24.4541V24.5054L43.7381 25.551L43.694 25.5659ZM41.2254 23.4514V23.468H43.9391V23.4514H41.2254Z" fill="#FE0407"/>
<path d="M5.79031 24.406H8.41237V25.5642H5.75681L5.73741 25.5742C5.7286 25.8422 5.71802 26.1102 5.7092 26.3799C5.7092 26.3882 5.73565 26.3965 5.74976 26.4064C6.69842 26.4064 7.64827 26.4064 8.59929 26.4064C8.66277 26.4064 8.77562 26.3501 8.77562 26.4908C8.75729 26.5446 8.74488 26.6 8.73859 26.6562C8.73859 26.9375 8.73859 27.2204 8.73859 27.5017C8.73032 27.5583 8.71493 27.6139 8.69274 27.6671H4.22095L4.18569 27.6523C4.18101 27.6254 4.17806 27.5983 4.17687 27.5712V22.3925C4.21214 22.3743 4.2474 22.3428 4.28267 22.3428H8.69098L8.73153 22.3925V23.4448L8.69979 23.4778C8.64721 23.4611 8.5928 23.45 8.53757 23.4448C7.70528 23.4448 6.87299 23.4448 6.0407 23.4448C6.00763 23.4464 5.97466 23.4497 5.94196 23.4547V23.4778H8.69803V23.587H5.7427C5.73389 23.587 5.71625 23.6003 5.71625 23.6069C5.71625 23.8518 5.70391 24.1033 5.70567 24.3432C5.70038 24.3746 5.75857 24.3895 5.79031 24.406Z" fill="#FE0407"/>
<path d="M26.3019 27.6688L26.9279 26.2774C27.5039 24.9978 28.08 23.7183 28.656 22.4388C28.6684 22.3949 28.6975 22.3567 28.7377 22.3315C28.778 22.3062 28.8266 22.2955 28.8746 22.3015C29.3278 22.3015 29.7827 22.3015 30.2359 22.3015C31.0418 24.0867 31.8388 25.8588 32.6464 27.649C32.601 27.6576 32.555 27.6637 32.5088 27.6672C32.0433 27.6672 31.576 27.6672 31.1088 27.6672C31.0635 27.6734 31.0174 27.663 30.9803 27.638C30.9431 27.613 30.9177 27.5754 30.9095 27.5331C30.8125 27.2932 30.7085 27.0533 30.5956 26.82C30.5784 26.7925 30.555 26.7689 30.5269 26.7509C30.4989 26.7329 30.467 26.7209 30.4334 26.7158C29.7863 26.7158 29.1391 26.7158 28.4938 26.7158C28.4547 26.7122 28.4156 26.7217 28.3833 26.7426C28.351 26.7635 28.3277 26.7944 28.3174 26.83C28.2187 27.0748 28.1146 27.3181 28.0053 27.5596C27.9859 27.6026 27.9348 27.6639 27.896 27.6639C27.3723 27.6705 26.8539 27.6688 26.3019 27.6688ZM30.1001 25.5642L29.4653 24.0487C29.2414 24.5781 29.0369 25.0613 28.8253 25.5642H30.1001Z" fill="#FE0407"/>
<path d="M44.5067 27.6489V26.4378C44.6196 26.4295 44.7324 26.413 44.8453 26.413C45.1292 26.413 45.4148 26.413 45.6987 26.413H45.8204C45.8204 26.4494 45.8292 26.4874 45.8327 26.5238V27.6373C45.7252 27.6373 45.734 27.5745 45.734 27.5066V26.633H45.6987V27.6605H44.5808L44.5067 27.6489Z" fill="#FE0406"/>
<path d="M14.3345 27.6588V22.4305H14.365V27.6588L14.3498 27.6671L14.3345 27.6588Z" fill="#FE0D26"/>
<path d="M14.4404 27.6572L14.4403 22.4305H14.464C14.4657 22.4619 14.4657 22.4934 14.464 22.5248V27.5778C14.464 27.6042 14.464 27.6307 14.464 27.6588H14.4505L14.4404 27.6572Z" fill="#FE0D26"/>
<path d="M8.69347 27.6654C8.71566 27.6122 8.73105 27.5566 8.73932 27.5C8.73932 27.2187 8.73932 26.9358 8.73932 26.6545C8.74342 26.6019 8.75287 26.5499 8.76753 26.499C8.76753 26.8646 8.7834 27.2303 8.7834 27.5943C8.78693 27.6191 8.72698 27.6489 8.69347 27.6654Z" fill="#FE6864"/>
<path d="M8.40966 25.5642V24.406C8.42729 24.4291 8.46256 24.4507 8.46256 24.4722C8.46256 24.8163 8.46256 25.1605 8.46256 25.5046C8.46432 25.5245 8.42906 25.5443 8.40966 25.5642Z" fill="#FE6864"/>
<path d="M5.79132 24.406C5.75958 24.3895 5.70139 24.3746 5.70139 24.358C5.70139 24.1132 5.70139 23.8617 5.71197 23.6218C5.71197 23.6218 5.72961 23.6085 5.73842 23.6019C5.73842 23.8104 5.73842 24.0172 5.73842 24.224C5.74851 24.2864 5.76626 24.3475 5.79132 24.406Z" fill="#FE6864"/>
<path d="M5.74045 26.4097C5.72686 26.3998 5.70139 26.3915 5.70139 26.3832C5.70988 26.1135 5.72007 25.8455 5.72856 25.5775C5.74045 25.8538 5.74045 26.1317 5.74045 26.4097Z" fill="#FE6864"/>
<path d="M45.6916 27.672V26.6446H45.7269V27.5182C45.7269 27.586 45.7269 27.6555 45.8256 27.6489L45.6916 27.672Z" fill="#FD2A37"/>
<path d="M8.6989 23.4812L8.72947 23.4481L8.6972 23.5904V23.4812H8.6989Z" fill="#FE6864"/>
<path d="M45.8301 26.5354C45.8301 26.499 45.8301 26.461 45.8186 26.4246C45.8236 26.461 45.8268 26.499 45.8301 26.5354Z" fill="#FD2A37"/>
<path d="M4.17687 22.3925L4.17691 22.4322C4.17691 22.4239 4.17691 22.414 4.16868 22.404C4.16046 22.3941 4.17358 22.3958 4.17687 22.3925Z" fill="#FE6864"/>
<path d="M13.072 22.4371L13.0724 25.0348H13.0541V22.4355L13.072 22.4371Z" fill="#FE1B0A"/>
<path d="M41.2254 23.4514L43.9334 23.4514V23.4679H41.2196L41.2254 23.4514Z" fill="#FA1900"/>
<path d="M8.6989 23.4812L5.94265 23.4812V23.458C5.97536 23.4531 6.00832 23.4497 6.0414 23.4481C6.87369 23.4481 7.70598 23.4481 8.53826 23.4481C8.59349 23.4534 8.64791 23.4645 8.70049 23.4812L8.6989 23.4812Z" fill="#FA1A00"/>
<path d="M30.1001 25.5642H28.8253C29.0369 25.0679 29.2414 24.5715 29.4653 24.0487L30.1001 25.5642Z" fill="#FCF3F2"/>
</svg>
