<svg width="50" height="50" viewBox="0 0 50 50" fill="none" xmlns="http://www.w3.org/2000/svg">
<path d="M25 37L10 28.5V11.5L25 3L40 11.5V28.5L25 37ZM37.5858 27.1414V12.876L25 5.75205L12.4142 12.876V27.1414L25 34.2654L37.5858 27.1414Z" fill="#762B8A"/>
<path d="M27.361 27.8558V25.487L35.1539 21.028V18.6591L27.361 23.0659V20.697L35.1717 16.3077V14.2523L25.0001 8.48697L14.8107 14.2523V25.7657L25.0001 31.531L35.1717 25.7657V23.3968L27.361 27.8558Z" fill="url(#paint0_linear_9176_12110)"/>
<path d="M24.0547 44.7393H23.1172C22.9615 45.7317 22.5628 46.3311 21.3594 46.3311C19.6747 46.3311 19.5234 44.378 19.5234 43.084C19.5234 41.888 20.0444 40.5645 21.4424 40.5645C22.4319 40.5645 22.9847 41.2057 23.1172 42.1709H24.0547C23.9079 40.762 23.0522 39.793 21.4424 39.793C19.5713 39.793 18.5859 41.3945 18.5859 43.0938C18.5859 44.924 19.0649 47.0977 21.3594 47.0977C22.795 47.0977 23.8942 46.2161 24.0547 44.7393Z" fill="black"/>
<path d="M29.8652 43.7139H26.2812V47H25.3389V39.8906H26.2812V42.9473H29.8652V39.8906H30.8027V47H29.8652V43.7139Z" fill="black"/>
<defs>
<linearGradient id="paint0_linear_9176_12110" x1="24.9932" y1="8.47682" x2="24.9932" y2="31.5324" gradientUnits="userSpaceOnUse">
<stop offset="0.2" stop-color="#C6168D"/>
<stop offset="0.8" stop-color="#762B8A"/>
</linearGradient>
</defs>
</svg>
