<svg width="50" height="50" viewBox="0 0 50 50" fill="none" xmlns="http://www.w3.org/2000/svg">
<path d="M25 36L12 28.75V14.25L25 7L38 14.25V28.75L25 36ZM35.9077 27.5912V15.4237L25 9.34733L14.0923 15.4237V27.5912L25 33.6675L35.9077 27.5912Z" fill="#762B8A"/>
<path d="M27.0462 28.2006V26.1801L33.8001 22.3768V20.3563L27.0462 24.115V22.0945L33.8154 18.3507V16.5976L25.0001 11.6801L16.1693 16.5976V26.4178L25.0001 31.3353L33.8154 26.4178V24.3973L27.0462 28.2006Z" fill="url(#paint0_linear_12457_16352)"/>
<path d="M23.4764 42.0628H22.709C22.5816 42.878 22.2552 43.3703 21.2702 43.3703C19.8912 43.3703 19.7674 41.7661 19.7674 40.7032C19.7674 39.7208 20.1938 38.6337 21.3381 38.6337C22.1481 38.6337 22.6006 39.1604 22.709 39.9532H23.4764C23.3563 38.7959 22.6558 38 21.3381 38C19.8065 38 19 39.3155 19 40.7112C19 42.2146 19.392 44 21.2702 44C22.4453 44 23.345 43.2759 23.4764 42.0628Z" fill="#7F8BA5"/>
<path d="M28.2326 41.2206H25.299V43.9198H24.5276V38.0802H25.299V40.5909H28.2326V38.0802H29V43.9198H28.2326V41.2206Z" fill="#7F8BA5"/>
<defs>
<linearGradient id="paint0_linear_12457_16352" x1="24.9941" y1="11.6714" x2="24.9941" y2="31.3364" gradientUnits="userSpaceOnUse">
<stop offset="0.2" stop-color="#C6168D"/>
<stop offset="0.8" stop-color="#762B8A"/>
</linearGradient>
</defs>
</svg>
