<svg width="50" height="50" viewBox="0 0 50 50" fill="none" xmlns="http://www.w3.org/2000/svg">
<rect width="50" height="50" fill="#1A073D"/>
<path d="M9 37.2126C9 37.909 9.56517 38.4736 10.2623 38.4736H23.1223C23.8195 38.4736 24.3847 37.909 24.3847 37.2126V30.1924C24.3847 29.4961 23.8195 28.9315 23.1223 28.9315H10.2623C9.56517 28.9315 9 29.4961 9 30.1924V37.2126Z" fill="#EB73DA"/>
<path d="M40.5385 33.0534C40.5385 37.148 37.5719 40 33.5384 40C29.4086 40 26.5384 37.0549 26.5384 33.0534C26.5384 28.9643 29.5103 26.1068 33.5384 26.1068C37.5719 26.1068 40.5385 28.9589 40.5385 33.0534Z" fill="#8753EA"/>
<path d="M26.8664 19.2963C25.8136 18.2516 25.8136 16.5577 26.8664 15.5129L31.6321 10.7836C32.6849 9.73881 34.3919 9.73881 35.4447 10.7836L40.2104 15.5129C41.2632 16.5577 41.2632 18.2516 40.2103 19.2963L35.4447 24.0256C34.3919 25.0704 32.6849 25.0704 31.6321 24.0256L26.8664 19.2963Z" fill="#8BEA1E"/>
<path fill-rule="evenodd" clip-rule="evenodd" d="M16.6844 25.9542C19.516 25.9542 23.3118 24.8545 23.6859 21.547H19.6539C19.2516 22.7416 17.5812 22.7718 16.5518 22.7718C14.427 22.7718 13.141 22.0086 12.8789 19.8546H23.7401C24.4445 15.2748 21.1788 12.1373 16.6048 12.1373C12.4835 12.1373 9.23078 14.937 9.23078 19.059C9.23078 23.3778 12.3624 25.9542 16.6844 25.9542ZM12.9363 17.7596C13.2904 15.8516 14.6508 15.2402 16.5253 15.2402C18.3061 15.2402 19.8931 15.7917 20.0169 17.7596H12.9363Z" fill="white"/>
</svg>
