<svg width="50" height="50" viewBox="0 0 50 50" fill="none" xmlns="http://www.w3.org/2000/svg">
<path d="M24.9835 11.4258L13 6V27.5742L24.9835 33V27.7033L17.9189 24.506V13.5251L24.9835 16.7225V11.4258Z" fill="#C01818"/>
<path d="M24.9835 11.4258L37 6V27.5742L24.9835 33V27.7033L32.0811 24.506V13.5251L24.9835 16.7225V11.4258Z" fill="#75160D"/>
<path d="M19.9414 43.9922C18.6891 43.9922 18 42.9355 18 41.7852C18 40.4014 18.9017 39.6094 19.8477 39.6094C21.2525 39.6094 21.5859 40.8394 21.5859 42.0039H18.4297V41.4141H20.8633C20.8633 40.7848 20.517 40.2031 19.8477 40.2031C18.92 40.2031 18.7266 41.2154 18.7266 41.9492C18.7266 42.7524 19.1988 43.4023 19.9805 43.4023C20.4909 43.4023 20.8281 43.1771 21.0938 42.8281L21.5312 43.1758C21.2588 43.5883 20.7836 43.9922 19.9414 43.9922Z" fill="#7F8BA5"/>
<path d="M24.3967 41.6836H22.8772V41.0703H24.3967C25.2814 41.0703 25.6389 40.6067 25.6389 39.9688C25.6389 39.2625 25.081 38.8438 24.3967 38.8438H23.053V43.9141H22.2991V38.2266H24.3967C25.6826 38.2266 26.3928 38.9481 26.3928 39.9609C26.3928 41.0535 25.6886 41.6836 24.3967 41.6836Z" fill="#7F8BA5"/>
<path d="M31.7488 40.7422C31.7488 42.2224 31.1565 43.8438 29.4675 43.8438C28.1352 43.8438 27.1746 42.8179 27.1746 41.1016C27.1746 39.627 27.7241 38 29.4597 38C30.8509 38 31.7488 39.0302 31.7488 40.7422ZM31.0027 40.7344C31.0027 39.3864 30.4372 38.6406 29.4597 38.6406C28.5333 38.6406 27.9207 39.3716 27.9207 40.7344C27.9207 41.7853 28.1638 43.207 29.4675 43.207C30.7862 43.207 31.0027 41.7986 31.0027 40.7344Z" fill="#7F8BA5"/>
</svg>
