<svg width="50" height="50" viewBox="0 0 50 50" fill="none" xmlns="http://www.w3.org/2000/svg">
<path d="M33 33L16.8375 12H11L19.0779 22.4955L11 33H16.8375L21.9983 26.2897L27.1625 33H33Z" fill="black"/>
<path d="M28.6571 19H23L33.3429 5H39L28.6571 19Z" fill="url(#paint0_linear_8184_2656)"/>
<path fill-rule="evenodd" clip-rule="evenodd" d="M18.7637 39.6191C20.5197 39.6191 20.9365 41.1566 20.9365 42.6123H17.3652C17.3878 43.5083 17.9515 44.3604 18.9297 44.3604C19.5677 44.3604 19.9893 44.0788 20.3213 43.6426L20.8682 44.0771C20.5276 44.5928 19.9336 45.0977 18.8809 45.0977C17.4206 45.0977 16.4541 44.0356 16.4541 42.5439C16.4541 41.1562 17.1519 39.6191 18.7637 39.6191ZM18.7637 40.3613C18.053 40.3613 17.5128 40.896 17.3896 41.875H20.0332C20.0332 41.0893 19.5987 40.3613 18.7637 40.3613Z" fill="black"/>
<path fill-rule="evenodd" clip-rule="evenodd" d="M30.6484 37.793C32.7559 37.793 33.5098 39.8198 33.5098 41.6699C33.5098 43.8008 32.3998 45.0977 30.6582 45.0977C28.9932 45.0975 27.792 43.8148 27.792 41.6699C27.792 39.8334 28.4582 37.7932 30.6484 37.793ZM30.6484 38.5938C28.9926 38.594 28.7246 40.3799 28.7246 41.6699C28.7246 43.3662 29.4926 44.3016 30.6582 44.3018C31.895 44.3018 32.5771 43.3496 32.5771 41.6699C32.5771 40.3393 32.3477 38.5938 30.6484 38.5938Z" fill="black"/>
<path fill-rule="evenodd" clip-rule="evenodd" d="M24.5498 37.8906C26.157 37.8906 27.0449 38.7927 27.0449 40.0586C27.0449 42.4125 24.5568 42.2119 22.8701 42.2119V45H21.9277V37.8906H24.5498ZM22.8701 41.4453C24.0506 41.4453 26.1025 41.7923 26.1025 40.0684C26.1025 39.1856 25.4051 38.6621 24.5498 38.6621H22.8701V41.4453Z" fill="black"/>
<defs>
<linearGradient id="paint0_linear_8184_2656" x1="23" y1="12" x2="39" y2="12" gradientUnits="userSpaceOnUse">
<stop offset="0.07" stop-color="#3600FF"/>
<stop offset="0.12" stop-color="#2E17FF"/>
<stop offset="0.25" stop-color="#1A54FF"/>
<stop offset="0.36" stop-color="#0C7FFF"/>
<stop offset="0.45" stop-color="#039AFF"/>
<stop offset="0.5" stop-color="#00A5FF"/>
<stop offset="1" stop-color="#00D300"/>
</linearGradient>
</defs>
</svg>
