<svg width="50" height="50" viewBox="0 0 50 50" fill="none" xmlns="http://www.w3.org/2000/svg">
<path d="M6 10C6 7.79086 7.79086 6 10 6H40C42.2091 6 44 7.79086 44 10V44H6V10Z" fill="#162C00"/>
<path fill-rule="evenodd" clip-rule="evenodd" d="M22.2296 29.9438C27.3546 34.5663 33.2245 37.521 37.1311 38.0023C38.5171 38.1744 41.3606 37.8713 41.3956 35.1724C41.9271 36.708 41.2519 38.5572 39.7279 39.1918C35.9187 40.7331 27.8207 37.9444 19.0662 30.6962C9.24562 22.5723 6.20715 15.0819 8.29982 11.7647C9.16643 10.8007 11.1098 10.0285 13.1385 10.3011C15.1672 10.5722 18.3854 12.9284 20.1293 14.1255C16.8944 13.3792 13.9518 12.0556 12.9588 13.3487C11.0672 15.8298 13.3655 19.6252 16.8578 24.2568" fill="#4E5B3B"/>
<path d="M38.3769 18.1158C38.7775 18.1356 38.7897 18.125 38.7348 18.5225C38.6541 19.0967 38.5551 19.6694 38.4668 20.242C38.4516 20.3425 38.3967 20.3578 38.3084 20.3578C34.3165 20.3413 30.3246 20.3425 26.3327 20.3425C26.2117 20.3425 25.9737 20.3719 26.0814 20.1811C26.7698 18.9855 27.743 18.189 29.1686 18.1296C32.2123 18.005 35.3304 17.9614 38.3769 18.1158Z" fill="white"/>
<path d="M36.0802 22.5555C36.2949 22.5555 36.3254 22.5997 36.2934 22.8053C35.9568 24.9352 35.6353 27.0681 35.2867 29.196C35.2623 29.3514 35.1953 29.4108 35.0384 29.4077C34.1673 29.3955 33.296 29.4062 32.4249 29.4001C32.2177 29.3986 32.1995 29.3666 32.233 29.161C32.5723 27.0311 32.9226 24.903 33.2625 22.7733C33.3006 22.5357 33.3387 22.5205 33.5824 22.5418C34.4087 22.6083 35.2519 22.5501 36.0802 22.5555Z" fill="white"/>
<path d="M30.8729 25.8301C30.4759 28.0806 28.4621 29.7976 26.1453 29.5311C25.6306 29.4717 25.1249 29.3635 24.6406 29.1686C24.4974 29.1107 24.4578 29.03 24.4822 28.8777C24.6451 27.8694 24.8005 26.8581 24.9589 25.8499C24.9792 25.7176 25.027 25.5774 25.1417 25.7524C25.5665 26.417 26.3364 27.0114 27.1627 26.7226C27.7796 26.5063 27.9669 25.8986 27.577 25.3716C27.2257 24.9016 26.6816 24.5593 26.2885 24.1182C25.9474 23.7359 25.7433 23.2881 25.626 22.7946C25.5757 22.5829 25.591 22.5616 25.8042 22.5601C26.9742 22.5571 28.161 22.6154 29.3285 22.5327C29.4184 22.5266 29.5082 22.5327 29.5798 22.5951C30.59 23.4694 31.1125 24.4745 30.8729 25.8301Z" fill="white"/>
<path d="M23.4496 18.3657C22.8656 22.0414 22.3062 25.721 21.7057 29.394C21.1727 32.6757 20.6883 35.9632 20.1369 39.2421C20.076 39.6015 20.073 39.6015 19.7029 39.6015C17.7447 39.6015 15.7866 39.6029 13.8285 39.6C13.5528 39.6 13.5482 39.5832 13.5894 39.3213C14.4545 33.8092 15.076 28.2439 16.1846 22.7749C16.2227 22.586 16.1603 22.5144 15.9653 22.5282C15.4916 22.5617 15.018 22.5358 14.5443 22.5403C14.3189 22.5419 14.3098 22.516 14.3372 22.2997C14.4971 21.0401 14.7347 19.7943 14.9129 18.5378C14.97 18.2333 14.9915 18.1434 15.3272 18.1494C15.9394 18.1585 16.5532 18.1555 17.1655 18.154C19.0662 18.154 20.967 18.1494 22.8678 18.1463C23.0582 18.1463 23.4925 18.0752 23.4496 18.3657Z" fill="white"/>
<path d="M6 40H44V44H6V40Z" fill="#FF8500"/>
</svg>
