<svg width="50" height="50" viewBox="0 0 50 50" fill="none" xmlns="http://www.w3.org/2000/svg">
<path d="M24.0186 9.5C22.2815 9.50259 20.5578 9.79897 18.9232 10.3762C19.45 10.8491 19.9933 11.3031 20.553 11.7381C22.751 11.1516 25.0659 11.1302 27.2747 11.676C29.4836 12.2219 31.5123 13.3166 33.1655 14.8549H35.6547C32.8716 11.5849 28.6879 9.5 24.0186 9.5Z" fill="#828282"/>
<path d="M24.0186 38.7196C22.8554 38.7187 21.6974 38.5678 20.5743 38.2706C20.0142 38.7036 19.4674 39.1569 18.9395 39.6282C20.569 40.2029 22.2871 40.4981 24.0186 40.501C28.3515 40.501 32.2622 38.707 35.0284 35.8361H32.3614C29.9976 37.7045 27.0534 38.7221 24.0186 38.7196Z" fill="#828282"/>
<path d="M27.0052 28.8292V28.4127C20.1643 29.8538 14.9222 32.3887 10.5557 36.6647C11.1759 37.7382 11.8947 38.7539 12.7031 39.699C16.39 35.101 20.874 32.1074 27.0052 29.319V28.8627" fill="url(#paint0_linear_9176_12101)"/>
<path d="M27.0052 24.6162V24.2118C20.4587 23.7052 14.0065 23.2276 7.80868 21.1087C7.40992 23.5989 7.39743 26.1341 7.77164 28.628C14.0124 26.6701 20.4646 26.225 27.0052 25.8056V24.6162Z" fill="url(#paint1_linear_9176_12101)"/>
<path d="M27.0052 22.7277V22.3146C20.6166 21.0677 14.7196 19.0518 9.97291 14.3787C9.0679 16.1757 8.40544 18.0808 8.00229 20.0459C14.0332 22.4479 20.3989 23.2125 27.0052 23.486V22.7277Z" fill="url(#paint2_linear_9176_12101)"/>
<path d="M27.0052 21.243V20.7843C20.8844 17.912 16.3871 14.9266 12.6858 10.2918C11.8795 11.2372 11.1627 12.2529 10.5443 13.3261C14.9202 17.6458 20.149 20.1564 27.0052 21.693V21.2779" fill="url(#paint3_linear_9176_12101)"/>
<path d="M27.0052 27.0076V26.5969C20.4118 26.7879 14.0431 27.539 7.98747 29.8455C8.38886 31.8338 9.05525 33.7616 9.96945 35.5791C14.7179 31.0371 20.6434 28.78 27.0067 27.6971V27.0076H27.0052Z" fill="url(#paint4_linear_9176_12101)"/>
<path d="M16.7022 14.9979C16.4413 15.6803 16.2246 16.3781 16.0532 17.0872C19.1089 18.9404 22.658 20.2931 27.0052 21.2779V21.243C23.0348 19.3913 19.6497 17.4547 16.7022 14.9979Z" fill="url(#paint5_linear_9176_12101)"/>
<path d="M18.9785 31.4078C19.2852 31.832 19.6092 32.2456 19.949 32.6432C22.1088 31.2371 24.4577 30.0138 27.0052 28.8612V28.8278C24.0117 29.4678 21.362 30.3178 18.9785 31.4078Z" fill="url(#paint6_linear_9176_12101)"/>
<path d="M15.6882 19.1435C15.5861 20.0339 15.5496 20.9402 15.5934 21.8326C19.3059 22.5837 23.1217 22.9187 27.0052 23.0821V22.7277C23.0853 21.9626 19.2304 21.035 15.6882 19.1435Z" fill="url(#paint7_linear_9176_12101)"/>
<path d="M15.7366 23.4259C15.8734 24.4207 16.0971 25.4022 16.4053 26.3593C19.9416 25.8696 23.502 25.6238 27.0052 25.3998L27.0052 24.6162C23.2392 24.3144 19.4691 24.0312 15.7366 23.4259Z" fill="url(#paint8_linear_9176_12101)"/>
<path d="M16.9827 27.8973C17.2607 28.5445 17.5773 29.1749 17.931 29.7854C20.8391 28.5222 23.8866 27.8123 27.0052 27.282V27.0057C23.4675 27.1123 20.1505 27.3737 16.9827 27.8973Z" fill="url(#paint9_linear_9176_12101)"/>
<path d="M40.4889 30.9568H32.3575V26.369H39.2384C40.5284 26.369 41.2253 25.8441 41.2253 24.864C41.2253 23.8361 40.5626 23.3347 39.2384 23.3347H32.3575V19.5528H40.0128C41.3377 19.5528 42.0242 19.0238 42.0229 18.0366C42.0229 17.0087 41.3367 16.4714 40.0118 16.4714H30.9469C29.1353 16.4714 28.6894 17.6113 28.6879 19.2647V31.4262C28.6879 33.0738 29.1412 34.2099 30.9454 34.2064H40.4874C41.811 34.2064 42.5012 33.6401 42.4985 32.5811C42.4985 31.4905 41.8277 30.9536 40.4889 30.9568Z" fill="url(#paint10_linear_9176_12101)"/>
<defs>
<linearGradient id="paint0_linear_9176_12101" x1="25.1832" y1="22.6252" x2="1.55523" y2="34.7714" gradientUnits="userSpaceOnUse">
<stop stop-color="#00B1E4"/>
<stop offset="1" stop-color="#252875"/>
</linearGradient>
<linearGradient id="paint1_linear_9176_12101" x1="28.3628" y1="24.9985" x2="10.0726" y2="24.9985" gradientUnits="userSpaceOnUse">
<stop stop-color="#6DA31E"/>
<stop offset="1" stop-color="#009033"/>
</linearGradient>
<linearGradient id="paint2_linear_9176_12101" x1="17.6786" y1="26.15" x2="9.42011" y2="24.0494" gradientUnits="userSpaceOnUse">
<stop stop-color="#FECD00"/>
<stop offset="1" stop-color="#EDAA00"/>
</linearGradient>
<linearGradient id="paint3_linear_9176_12101" x1="12.9678" y1="23.0044" x2="18.8336" y2="23.5236" gradientUnits="userSpaceOnUse">
<stop stop-color="#FECD00"/>
<stop offset="1" stop-color="#EDAA00"/>
</linearGradient>
<linearGradient id="paint4_linear_9176_12101" x1="33.2002" y1="16.3043" x2="5.17806" y2="21.2134" gradientUnits="userSpaceOnUse">
<stop stop-color="#75679E"/>
<stop offset="1" stop-color="#252875"/>
</linearGradient>
<linearGradient id="paint5_linear_9176_12101" x1="5.97222" y1="25.0005" x2="58.7833" y2="25.0005" gradientUnits="userSpaceOnUse">
<stop stop-color="white"/>
<stop offset="0.06" stop-color="white"/>
<stop offset="1" stop-color="white"/>
</linearGradient>
<linearGradient id="paint6_linear_9176_12101" x1="-7.3397" y1="25.0064" x2="64.7204" y2="25.0064" gradientUnits="userSpaceOnUse">
<stop stop-color="white"/>
<stop offset="0.06" stop-color="white"/>
<stop offset="1" stop-color="white"/>
</linearGradient>
<linearGradient id="paint7_linear_9176_12101" x1="7.5" y1="24.9986" x2="58.1022" y2="24.9986" gradientUnits="userSpaceOnUse">
<stop stop-color="white"/>
<stop offset="0.06" stop-color="white"/>
<stop offset="1" stop-color="white"/>
</linearGradient>
<linearGradient id="paint8_linear_9176_12101" x1="6.9984" y1="25.0005" x2="58.3273" y2="25.0005" gradientUnits="userSpaceOnUse">
<stop stop-color="white"/>
<stop offset="0.06" stop-color="white"/>
<stop offset="1" stop-color="white"/>
</linearGradient>
<linearGradient id="paint9_linear_9176_12101" x1="2.58472" y1="25.014" x2="60.2953" y2="25.014" gradientUnits="userSpaceOnUse">
<stop stop-color="white"/>
<stop offset="0.06" stop-color="white"/>
<stop offset="1" stop-color="white"/>
</linearGradient>
<linearGradient id="paint10_linear_9176_12101" x1="35.5946" y1="30.4574" x2="35.5946" y2="34.7669" gradientUnits="userSpaceOnUse">
<stop stop-color="#2E1D86"/>
<stop offset="0.11" stop-color="#29248A"/>
<stop offset="0.28" stop-color="#1B3795"/>
<stop offset="0.47" stop-color="#0556A6"/>
<stop offset="0.5" stop-color="#005CAA"/>
<stop offset="1" stop-color="#00A6EB"/>
</linearGradient>
</defs>
</svg>
