<svg width="50" height="50" viewBox="0 0 50 50" fill="none" xmlns="http://www.w3.org/2000/svg">
<path d="M12.4256 25.1771L22.8858 35.7031L20.5799 38.0208L7.66699 25.0281L27.7548 4.81494L40.6678 17.8076L38.3667 20.1278L27.9053 9.60295L21.2426 16.3044L34.9553 30.1055L32.653 32.422L18.9367 18.6233L12.4256 25.1771Z" fill="#501693"/>
<path d="M39.5984 36.9425C36.4526 40.1077 32.7109 40.0997 29.109 37.9976L27.4646 44.8151L24.422 41.7537L26.274 34.9619L17.3758 26.016L19.6816 23.6971L30.7062 34.7909C32.5595 36.7088 35.3057 36.0133 37.0243 34.3562C38.7684 32.6013 39.3025 29.8528 37.4563 27.9991L26.4294 16.9028L28.7365 14.5838L40.0899 26.0086C43.3597 29.3025 42.6672 33.8547 39.5984 36.9425Z" fill="#8905C6"/>
</svg>
