<svg width="50" height="50" viewBox="0 0 50 50" fill="none" xmlns="http://www.w3.org/2000/svg">
<path d="M29.3448 6.81494H20.6552C13.1448 6.81494 7 12.9598 7 20.4701V29.1598C7 36.6701 13.1448 42.8149 20.6552 42.8149H29.3448C36.8552 42.8149 43 36.6701 43 29.1598V20.4701C43 12.9598 36.8552 6.81494 29.3448 6.81494ZM39.8965 29.1598C39.8965 34.9943 35.1793 39.7115 29.3448 39.7115H20.6552C14.8207 39.7115 10.1034 34.9943 10.1034 29.1598V20.4701C10.1034 14.6356 14.8207 9.91839 20.6552 9.91839H29.3448C35.1793 9.91839 39.8965 14.6356 39.8965 20.4701V29.1598Z" fill="#0094A1"/>
<path d="M39.8965 20.4701V29.1598C39.8965 34.9943 35.1793 39.7115 29.3448 39.7115H20.6552C14.8207 39.7115 10.1034 34.9943 10.1034 29.1598V20.4701C10.1034 14.6356 14.8207 9.91839 20.6552 9.91839H29.3448C35.1793 9.91839 39.8965 14.6356 39.8965 20.4701Z" fill="white"/>
<path d="M34.1243 25.3735V24.877C34.1243 20.9666 33.5657 18.6701 32.2623 17.3046C30.9588 15.9391 28.7864 15.4425 25.2485 15.4425C21.4623 15.4425 19.2278 16.0632 17.9864 17.4287C16.683 18.8563 16.3105 21.1528 16.3105 24.8149C16.3105 28.3528 16.745 30.7115 18.0485 32.077C19.3519 33.5046 21.5243 34.1253 25.2485 34.1253C28.0416 34.1253 30.214 33.877 31.7657 33.008C32.5105 32.5735 33.0692 32.0149 33.4416 31.208C33.814 30.4632 34.0002 29.5942 34.0623 28.4149H28.9105C28.8485 28.8494 28.7243 29.2218 28.6002 29.5322C28.414 29.9046 28.1037 30.1529 27.7312 30.3391C27.0485 30.7115 26.1795 30.7115 25.2485 30.7115C23.8209 30.7115 22.8278 30.4011 22.2692 29.5322C22.0209 29.0977 21.8347 28.6011 21.7105 27.9804C21.5864 27.3597 21.5864 26.6149 21.5864 25.746V25.2494H34.1243V25.3735ZM21.5864 22.9529V22.6425C21.5864 21.9597 21.6485 21.4011 21.7105 20.9046C21.8347 20.408 21.9588 20.0356 22.2692 19.7253C22.8278 19.1046 23.7588 18.9184 25.1243 18.9184C25.683 18.9184 26.1795 18.9184 26.614 18.9804C27.0485 19.0425 27.483 19.1666 27.7933 19.4149C28.4761 19.9115 28.7864 20.9046 28.7864 22.4563V22.9529H21.5864Z" fill="#0094A1"/>
</svg>
