<svg width="50" height="50" viewBox="0 0 50 50" fill="none" xmlns="http://www.w3.org/2000/svg">
<path d="M38.8105 19.3771C42.9923 19.3232 44.2194 23.2172 44.2194 26.6884C44.2194 30.1593 42.9922 34.0537 38.8105 33.9997H10.4089C6.22698 34.0536 5 30.1596 5 26.6884C5 23.2175 6.2271 19.3232 10.4089 19.3771H38.8125H38.8105ZM29.3086 25.8832C29.3361 24.9493 29.5146 24.6413 30.4736 24.6413C31.3652 24.6413 31.7013 24.9803 31.7013 25.8851H29.3086M12.525 24.7134C11.5974 24.7134 11.4111 24.998 11.3856 25.9124H13.7311C13.7311 25.0251 13.3909 24.7134 12.527 24.7134M9.21258 26.7313C9.21258 24.0895 9.80486 23.2355 12.5662 23.2355C15.2482 23.2355 15.906 24.569 15.906 27.0627H11.3875C11.3875 27.9811 11.4954 28.7375 12.5681 28.7375C13.2526 28.7375 13.7488 28.6634 13.7723 27.9323H15.908C15.8845 29.9233 14.2287 30.2173 12.5681 30.2173C9.85781 30.2173 9.21455 29.2971 9.21455 26.7332M17.3475 25.4543C17.3475 23.2804 18.7556 23.2375 20.7011 23.2375C22.1841 23.2375 23.7232 23.3948 23.7232 25.1794H21.6738C21.5738 24.6374 21.1384 24.5984 20.7011 24.5984C19.5067 24.5984 19.4558 24.7465 19.4558 25.2047C19.4558 25.5927 19.5244 25.8364 20.7011 25.8637C23.0682 25.9163 24.0566 26.0509 24.0566 27.9362C24.0566 29.9151 22.5348 30.2193 20.7031 30.2193C19.1013 30.2193 17.3734 30.1304 17.3495 28.0805H19.5244C19.5499 28.8467 20.1324 28.8584 20.7031 28.8584C21.7287 28.8584 21.9484 28.794 21.9484 28.1994C21.9484 27.4799 21.2927 27.4175 20.7031 27.4585C17.8241 27.4585 17.3495 26.819 17.3495 25.4523M35.1941 24.7933H36.7846V30.1374H38.9595V24.7914H40.5481V23.2336H35.1941V24.7933ZM27.1847 26.6826C27.1847 29.2347 27.8201 30.1432 30.5167 30.1432C32.1498 30.1432 33.8035 29.866 33.835 27.903H31.7425C31.7111 28.6342 31.1933 28.7083 30.5167 28.7083C29.42 28.7083 29.3165 27.9228 29.3165 26.9906H33.835C33.835 24.5127 33.1719 23.2063 30.5167 23.2063C27.7691 23.2063 27.1847 24.0486 27.1847 26.6806M7.62208 31.4203C8.31241 32.1592 9.63816 32.7109 10.7737 32.7129H25.4216V20.662H10.7737C7.37703 20.6678 6.29437 23.792 6.29437 26.6884C6.29437 28.4275 6.53363 30.2563 7.62208 31.4222" fill="#0096A1"/>
</svg>
