<svg width="50" height="50" viewBox="0 0 50 50" fill="none" xmlns="http://www.w3.org/2000/svg">
<path d="M24.225 16.8441V17.7054C23.9919 21.7926 23.7086 25.9757 21.594 29.6011C20.2906 31.8343 18.6009 33.4877 16.5284 34.9945C16.2935 35.165 15.2106 36.0201 15.0107 35.9996C14.9525 35.9934 14.1565 35.4536 14.031 35.3683C10.9374 33.2728 8.36294 30.5388 7.12141 26.9844C6.78983 26.0355 5.99997 23.699 6 16.7739C6.23127 16.7331 6.56832 16.7606 6.80498 16.7278C8.80216 16.4444 11.9375 15.5744 15.1667 14C18.2572 15.7679 21.1257 16.5511 24.225 16.8441ZM23.6799 17.3059C21.6128 17.0599 19.5789 16.5795 17.6381 15.7679C16.7794 15.4092 15.9609 14.959 15.1031 14.5976C12.3565 15.8851 9.45119 17.0092 6.4258 17.3058C6.64859 20.902 6.72998 24.5426 7.9497 27.4958C9.2226 30.5779 11.5676 33.0277 14.3322 34.8702C14.5168 34.9927 14.8117 35.2316 15.0107 35.3311C18.5261 33.1556 20.4914 30.2848 20.4914 30.2848C23.0775 26.5351 23.5213 22.1913 23.6799 17.7711C23.6853 17.6192 23.7086 17.4666 23.6799 17.3059Z" fill="#050505"/>
<path d="M36.8818 19.4821C36.9768 19.5008 37.3802 19.6553 37.5039 19.7095C39.0762 20.4029 39.2752 22.803 38.8072 24.23C38.4424 25.3426 37.4564 26.0201 36.2767 26.0076V30.4029H34.6631V19.4813H36.8818V19.4821ZM36.2767 24.3658C36.5402 24.4138 37.0189 24.3028 37.1892 24.0888C37.5326 23.6581 37.5048 22.2561 37.33 21.7455C37.1552 21.2349 36.7957 21.1213 36.2767 21.0795V24.3658Z" fill="#050505"/>
<path d="M41.2186 28.6386C41.4436 29.158 42.1742 29.2042 42.3418 28.6208C42.5534 27.8847 42.4261 27.3502 42.0765 26.6789C41.3925 25.3674 40.186 24.2451 39.831 22.732C39.4617 21.1612 40.1089 19.198 42.0353 19.3498C43.2185 19.4431 43.7761 20.3008 43.9383 21.3717C43.9769 21.6256 43.9383 22.3688 43.9383 22.3688H42.4611C42.4372 21.9025 42.4738 21.275 42.098 20.9304C41.7645 20.624 41.4006 20.9428 41.3181 21.3024C41.1272 22.1344 41.4643 22.7808 41.8775 23.4575C42.8752 25.0877 44.3184 26.5235 43.9375 28.6031C43.7842 29.4386 43.3862 30.1552 42.5256 30.4012C41.5091 30.6924 40.2846 30.4074 39.8292 29.3925C39.5854 28.8491 39.5468 27.3617 39.5468 27.3617L41.0716 27.2072C41.1166 27.7045 41.0162 28.16 41.2186 28.6386Z" fill="#050505"/>
<path d="M32.0304 21.0494C31.8 20.6418 31.2819 20.7821 31.1439 21.2127C30.701 22.597 32.3343 24.2761 32.9994 25.4251C33.7192 26.6682 34.1128 27.9416 33.5301 29.3481C33.0407 30.529 31.5239 30.7759 30.4402 30.26C29.4048 29.7663 29.3519 28.3571 29.3277 27.3671L30.8543 27.2081C30.8678 27.7942 30.8588 29.2575 31.8072 29.0177C32.0179 28.9645 32.2196 28.5383 32.2456 28.3429C32.4401 26.9107 31.0551 25.5521 30.3685 24.3818C29.6953 23.2337 29.2426 21.9764 29.7428 20.6702C30.0951 19.7485 30.9449 19.2451 31.9399 19.3623C33.4494 19.5399 33.757 21.068 33.7202 22.3697H32.242C32.1878 21.8872 32.2829 21.4883 32.0304 21.0494Z" fill="#050505"/>
<path d="M28.79 19.4813V21.124H26.7731V23.9654H28.2073C28.2073 24.1527 28.2073 25.7413 28.2073 25.7413H26.7731V28.7159H28.79V30.403H25.1595C25.1595 29.4673 25.1595 19.4813 25.1595 19.4813H28.79Z" fill="#050505"/>
<path d="M20.8549 17.4231C21.6387 17.5969 22.4524 17.7216 23.2492 17.7818C23.2492 17.7818 22.9971 21.2181 22.9346 21.7109C22.5311 24.9003 20.8549 31.2777 15.0686 34.6509C12.5201 33.1556 10.0477 30.5775 8.91023 28.2693C8.46504 27.3652 7.38112 25.6392 7.05197 17.7889C9.91123 17.4768 12.4942 16.3261 15.1645 15.308C15.1645 15.308 18.8989 16.9885 20.8549 17.4231ZM13.7697 28.1707H16.5934C16.5934 28.1707 16.2402 25.7857 16.1219 24.3765C16.1326 24.2664 16.3487 24.1492 16.4338 24.0498C16.6292 23.8216 16.839 23.517 16.882 23.216C17.2513 20.6196 13.8575 20.2076 13.3582 22.3449C13.1969 23.0348 13.3699 23.5188 13.7957 24.0498C13.9938 24.2975 14.1623 24.2282 14.1031 24.6376C13.9992 25.9633 13.7706 28.1698 13.7706 28.1698L13.7697 28.1707Z" fill="#51468F"/>
</svg>
