<svg width="50" height="50" viewBox="0 0 50 50" fill="none" xmlns="http://www.w3.org/2000/svg">
<path fill-rule="evenodd" clip-rule="evenodd" d="M24.777 8.34251C27.3032 8.34754 31.4264 8.34754 33.9395 8.34251C36.4526 8.33737 34.3857 8.33325 29.3463 8.33325C24.307 8.33325 22.2508 8.33737 24.777 8.34251ZM39.4828 8.58219C39.5423 8.60913 39.5978 8.62461 39.6061 8.61655C39.6299 8.59337 39.5989 8.57779 39.4828 8.55479L39.3746 8.53335L39.4828 8.58219ZM18.8427 8.7089C18.6558 8.81527 18.5768 8.8883 18.6486 8.8883C18.6696 8.8883 18.6869 8.8751 18.6869 8.85907C18.6869 8.84304 18.7761 8.79319 18.8852 8.7483C18.9944 8.7034 19.0837 8.6521 19.0837 8.63432C19.0837 8.58274 19.0416 8.59575 18.8427 8.7089ZM39.8616 8.72384C39.8616 8.73098 39.9022 8.76323 39.9517 8.79548C40.0013 8.82774 40.042 8.84029 40.042 8.82325C40.042 8.8063 40.0013 8.77404 39.9517 8.7516C39.9022 8.72924 39.8616 8.71669 39.8616 8.72384ZM18.4704 8.96224C18.4208 9.00209 18.3437 9.04964 18.299 9.06797C18.2544 9.08629 18.2179 9.11772 18.2179 9.13788C18.2179 9.20064 18.2663 9.17654 18.4343 9.03004C18.6029 8.88298 18.6281 8.83561 18.4704 8.96224ZM40.1862 8.93704C40.1862 8.94694 40.2349 8.98936 40.2944 9.03141C40.354 9.07346 40.4027 9.09985 40.4027 9.08996C40.4027 9.08015 40.354 9.03773 40.2944 8.99568C40.2349 8.95362 40.1862 8.92724 40.1862 8.93704ZM40.4388 9.11882C40.4388 9.14557 40.8716 9.56831 40.8989 9.56831C40.9221 9.56831 40.5054 9.12651 40.4657 9.10901C40.4509 9.10242 40.4388 9.10682 40.4388 9.11882ZM17.8211 9.54257C17.7913 9.56657 17.7137 9.67478 17.6487 9.78298L17.5303 9.97988L17.6386 9.85463C17.6983 9.78573 17.7474 9.70923 17.748 9.68458C17.7485 9.66003 17.7646 9.63987 17.7837 9.63987C17.8029 9.63987 17.8359 9.60762 17.8571 9.56831C17.9015 9.48604 17.8961 9.4821 17.8211 9.54257ZM40.9447 9.66672C40.9453 9.68147 40.9934 9.74991 41.0518 9.81881L41.1579 9.94406L41.0832 9.79196C41.0173 9.6582 40.942 9.58994 40.9447 9.66672ZM41.2341 10.0381C41.2304 10.0853 41.4167 10.471 41.4346 10.4532C41.4451 10.4428 41.4045 10.3401 41.3447 10.2251C41.2848 10.1099 41.235 10.0257 41.2341 10.0381ZM17.3753 10.199C17.341 10.2703 17.3218 10.3375 17.3325 10.3482C17.3564 10.3718 17.3573 10.3705 17.4338 10.2035C17.5128 10.0312 17.458 10.027 17.3753 10.199ZM17.1941 10.6834C17.1626 10.8398 17.1875 10.8474 17.2345 10.6956C17.2558 10.6267 17.2606 10.5704 17.245 10.5704C17.2295 10.5704 17.2066 10.6213 17.1941 10.6834ZM17.0447 14.3462C17.0447 15.9406 17.0491 16.5982 17.0545 15.8073C17.0599 15.0165 17.0599 13.7119 17.0545 12.9084C17.0491 12.1048 17.0447 12.7518 17.0447 14.3462ZM22.2756 12.8538C21.8433 13.002 21.4753 13.3298 21.3178 13.7066L21.23 13.9168L21.2103 21.5924L13.6907 21.6115L13.4476 21.7258C13.1329 21.8738 12.8728 22.1318 12.7238 22.444L12.6085 22.6853V36.5717L12.7258 36.8094C12.8591 37.0797 13.1703 37.3916 13.4247 37.5098C13.7712 37.6707 13.6313 37.6679 20.7971 37.6564L27.6148 37.6454L27.7986 37.5704C28.2134 37.4012 28.5268 37.0956 28.6854 36.706L28.7691 36.5001L28.7888 28.8603L36.3084 28.8411L36.5515 28.7268C36.8663 28.5788 37.1263 28.3209 37.2754 28.0087L37.3906 27.7673V13.8794L37.2747 13.6459C37.0743 13.2421 36.7231 12.9517 36.3041 12.8434C35.961 12.7547 22.5353 12.7646 22.2756 12.8538ZM33.2602 16.3233C33.6649 16.487 33.9566 16.7866 34.1325 17.2187L34.2162 17.4242L34.2264 20.9494C34.2388 25.1533 34.2436 25.1043 33.7735 25.5583C33.3045 26.0112 33.4334 25.9991 29.1789 25.9877L25.5559 25.9779L25.6024 26.1557C25.6907 26.4935 25.668 33.443 25.5776 33.7316C25.4375 34.1789 25.0971 34.5362 24.6518 34.7029L24.4404 34.7822L20.8692 34.7927C18.3985 34.8 17.227 34.7911 17.0678 34.764C16.4399 34.657 15.9585 34.1824 15.8378 33.5513C15.788 33.2909 15.7875 26.5066 15.8372 26.2423C15.9258 25.7715 16.2404 25.3749 16.6948 25.1613L16.9373 25.0474H24.4634L24.4361 24.9579C24.3738 24.7546 24.3807 17.5156 24.4433 17.3018C24.5888 16.8052 25.0325 16.3818 25.5315 16.2636C25.6076 16.2456 27.2863 16.2341 29.3644 16.2373L33.0619 16.2431L33.2602 16.3233ZM10.0654 17.6271C9.77459 17.7865 9.5488 17.9435 9.5741 17.9686C9.58269 17.9771 9.67264 17.9262 9.77403 17.8556C9.87543 17.7849 10.0596 17.6712 10.1832 17.6028C10.3069 17.5346 10.3918 17.4787 10.3721 17.4787C10.3522 17.4788 10.2142 17.5456 10.0654 17.6271ZM9.29291 18.1974C9.19539 18.2938 9.12641 18.3834 9.13961 18.3965C9.15282 18.4095 9.16769 18.4132 9.17258 18.4046C9.17757 18.396 9.26216 18.3047 9.3606 18.2018C9.58639 17.9657 9.53089 17.9622 9.29291 18.1974ZM9.01929 18.4979C8.9938 18.5283 8.98105 18.5613 8.99094 18.5712C9.00091 18.581 9.02991 18.5641 9.05539 18.5336C9.08088 18.5032 9.09363 18.4701 9.08365 18.4603C9.07377 18.4505 9.04477 18.4674 9.01929 18.4979ZM8.90136 18.6857C8.75878 18.8426 8.48368 19.4105 8.55035 19.4105C8.57021 19.4105 8.58646 19.3887 8.58646 19.3621C8.58646 19.3096 8.82046 18.8534 8.89203 18.7662C8.99842 18.6369 9.00608 18.5706 8.90136 18.6857ZM41.4132 30.6574C41.4137 30.7225 41.4205 30.7276 41.4488 30.6842C41.4939 30.6149 41.4939 30.5769 41.4488 30.5769C41.4289 30.5769 41.4129 30.6131 41.4132 30.6574ZM41.1639 31.1406C41.0792 31.2734 41.0418 31.3499 41.0806 31.3105C41.1523 31.2379 41.3597 30.899 41.3326 30.899C41.3244 30.899 41.2485 31.0077 41.1639 31.1406ZM40.6543 31.7767C40.547 31.8845 40.4699 31.9727 40.4829 31.9727C40.5207 31.9727 40.8851 31.6162 40.8663 31.5976C40.857 31.5883 40.7615 31.669 40.6543 31.7767ZM39.9388 32.3143C39.6659 32.483 39.6593 32.5065 39.9247 32.3637C40.0487 32.297 40.1502 32.2301 40.1502 32.2149C40.1502 32.1809 40.1682 32.1723 39.9388 32.3143ZM32.9439 38.4148C32.9439 38.4837 32.9514 38.5119 32.9605 38.4775C32.9695 38.443 32.9695 38.3867 32.9605 38.3522C32.9514 38.3178 32.9439 38.3459 32.9439 38.4148ZM8.55201 39.5512C8.55432 39.5877 8.76293 39.9775 8.76506 39.9493C8.76792 39.9123 8.58877 39.5243 8.56882 39.5243C8.55866 39.5243 8.55109 39.5364 8.55201 39.5512ZM32.595 39.7574C32.5171 39.9424 32.5275 39.9633 32.6151 39.7983C32.6554 39.7226 32.6799 39.6524 32.6698 39.6424C32.6596 39.6322 32.6259 39.684 32.595 39.7574ZM8.91595 40.1954C8.95714 40.279 9.00534 40.3475 9.02307 40.3475C9.0782 40.3475 9.05752 40.2986 8.94735 40.1685L8.84124 40.0433L8.91595 40.1954ZM32.1411 40.4207C32.1046 40.4883 32.1073 40.4904 32.1759 40.4479C32.2539 40.3995 32.2744 40.3475 32.2154 40.3475C32.1962 40.3475 32.1628 40.3805 32.1411 40.4207ZM9.29337 40.6428C9.503 40.8629 9.56044 40.9115 9.56044 40.8685C9.56044 40.8418 9.12752 40.419 9.10018 40.419C9.08929 40.419 9.17628 40.5197 9.29337 40.6428ZM31.6884 40.8657C31.6274 40.9115 31.6263 40.918 31.6799 40.919C31.7135 40.9197 31.7517 40.903 31.7647 40.882C31.804 40.8189 31.7626 40.81 31.6884 40.8657ZM9.59645 40.8974C9.59645 40.9072 9.64512 40.9496 9.70468 40.9917C9.76425 41.0337 9.81291 41.0601 9.81291 41.0503C9.81291 41.0404 9.76425 40.998 9.70468 40.9559C9.64512 40.9139 9.59645 40.8875 9.59645 40.8974ZM31.15 41.2199C31.031 41.2814 30.9268 41.3357 30.9185 41.3407C30.9103 41.3456 30.9132 41.3593 30.9251 41.3711C30.9506 41.3964 31.2957 41.2157 31.3535 41.1467C31.4025 41.0881 31.4117 41.0848 31.15 41.2199ZM9.95716 41.1641C9.95716 41.1811 9.99779 41.2133 10.0474 41.2358C10.097 41.2581 10.1376 41.2707 10.1376 41.2635C10.1376 41.2564 10.097 41.2241 10.0474 41.1919C9.99779 41.1596 9.95716 41.1471 9.95716 41.1641ZM10.3901 41.3831C10.3901 41.4115 10.5766 41.4622 10.5993 41.4401C10.6053 41.4342 10.5606 41.4123 10.5002 41.3914C10.4396 41.3704 10.3901 41.3667 10.3901 41.3831ZM16.0834 41.6628C18.6097 41.6678 22.7328 41.6678 25.2459 41.6628C27.7591 41.6577 25.6922 41.6535 20.6528 41.6535C15.6134 41.6535 13.5572 41.6577 16.0834 41.6628Z" fill="#FBFBFB"/>
<path fill-rule="evenodd" clip-rule="evenodd" d="M21.203 8.37824C21.7436 8.38383 22.6283 8.38383 23.169 8.37824C23.7096 8.37265 23.2673 8.36816 22.186 8.36816C21.1047 8.36816 20.6624 8.37265 21.203 8.37824ZM25.5315 16.2636C25.0325 16.3818 24.5888 16.8052 24.4433 17.3018C24.3807 17.5156 24.3738 24.7546 24.4361 24.9579L24.4634 25.0474H16.9373L16.6948 25.1613C16.2404 25.3749 15.9258 25.7715 15.8372 26.2423C15.7875 26.5066 15.788 33.2909 15.8378 33.5513C15.9585 34.1824 16.4399 34.657 17.0678 34.764C17.227 34.7911 18.3985 34.8 20.8692 34.7927L24.4404 34.7822L24.6518 34.7029C25.0971 34.5362 25.4375 34.1789 25.5776 33.7316C25.668 33.443 25.6907 26.4935 25.6024 26.1557L25.5559 25.9779L29.1789 25.9877C33.4334 25.9991 33.3045 26.0112 33.7735 25.5583C34.2436 25.1043 34.2388 25.1533 34.2264 20.9494L34.2162 17.4242L34.1325 17.2187C33.9566 16.7866 33.6649 16.487 33.2602 16.3233L33.0619 16.2431L29.3644 16.2373C27.2863 16.2341 25.6076 16.2456 25.5315 16.2636Z" fill="#F4C444"/>
<path fill-rule="evenodd" clip-rule="evenodd" d="M19.8129 8.41607C19.6846 8.44173 19.4776 8.50092 19.3528 8.54746C19.2282 8.594 19.1166 8.62268 19.1049 8.61104C19.0933 8.5995 19.0837 8.60637 19.0837 8.62635C19.0837 8.64632 19.0147 8.69286 18.9304 8.7297C18.846 8.76662 18.7652 8.81335 18.7506 8.83359C18.7336 8.85723 18.7237 8.8576 18.7229 8.8346C18.7223 8.8127 18.7116 8.81362 18.6953 8.83698C18.6807 8.85797 18.5877 8.92989 18.4885 8.99686C18.1117 9.25121 17.6064 9.83511 17.4442 10.2035C17.4075 10.2872 17.3626 10.3556 17.3446 10.3556C17.3266 10.3556 17.3219 10.3717 17.3342 10.3914C17.3464 10.4111 17.3398 10.4273 17.3194 10.4273C17.299 10.4273 17.2917 10.4514 17.3031 10.481C17.3145 10.5105 17.3086 10.5346 17.2899 10.5346C17.2713 10.5346 17.2553 10.5547 17.2544 10.5794C17.2534 10.6039 17.2147 10.7448 17.168 10.8925L17.0832 11.1609L17.0613 17.2249L14.1316 17.2413C11.0992 17.2582 11.0033 17.2603 11.0034 17.312C11.0034 17.3291 10.9709 17.3345 10.9312 17.3243C10.8916 17.314 10.8591 17.3219 10.8591 17.3419C10.8591 17.3618 10.8347 17.3688 10.805 17.3575C10.7752 17.3462 10.7509 17.3542 10.7509 17.3754C10.7509 17.3966 10.7265 17.4046 10.6967 17.3933C10.667 17.382 10.6426 17.3878 10.6426 17.4063C10.6426 17.4247 10.6183 17.4305 10.5885 17.4192C10.5579 17.4075 10.5344 17.4184 10.5344 17.4441C10.5344 17.4692 10.5248 17.4801 10.513 17.4684C10.4117 17.3679 9.29881 18.1857 9.07607 18.5244C9.04051 18.5783 8.9997 18.6152 8.98538 18.6064C8.97098 18.5977 8.9586 18.6098 8.95786 18.6337C8.95712 18.6574 8.89701 18.7734 8.82415 18.8915C8.75138 19.0097 8.68258 19.1425 8.67131 19.1868C8.66005 19.231 8.63539 19.2673 8.61655 19.2673C8.59771 19.2673 8.59143 19.2822 8.6027 19.3002C8.61406 19.3183 8.6015 19.3547 8.5749 19.3811C8.54831 19.4074 8.53335 19.449 8.54156 19.4735C8.54969 19.4978 8.53935 19.5178 8.51848 19.5178C8.49761 19.5178 8.48985 19.542 8.5013 19.5715C8.51275 19.6011 8.50758 19.6252 8.48985 19.6252C8.47212 19.6252 8.45633 19.6534 8.45467 19.6879C8.45291 19.7223 8.42484 19.8959 8.39224 20.0736C8.30036 20.5742 8.32132 38.6883 8.41422 38.9846C8.44765 39.0913 8.46667 39.192 8.45651 39.2083C8.44626 39.2247 8.45688 39.2381 8.47997 39.2381C8.50315 39.2381 8.51275 39.2621 8.5013 39.2917C8.48985 39.3212 8.49576 39.3454 8.51432 39.3454C8.53298 39.3454 8.53879 39.3695 8.52744 39.3991C8.51598 39.4286 8.52559 39.4528 8.54868 39.4528C8.57185 39.4528 8.58072 39.4688 8.56844 39.4885C8.55625 39.5082 8.56077 39.5244 8.5786 39.5244C8.59642 39.5244 8.63299 39.5904 8.65986 39.6712C8.68673 39.752 8.78915 39.9332 8.8874 40.0738C8.98566 40.2146 9.06637 40.3498 9.06674 40.3743C9.06711 40.399 9.08087 40.4191 9.09731 40.4191C9.14339 40.4191 9.56042 40.8371 9.56042 40.8834C9.56042 40.9059 9.57529 40.9153 9.59348 40.9041C9.61168 40.893 9.67253 40.9221 9.72877 40.9687C9.88197 41.0959 10.2547 41.3258 10.3076 41.3258C10.3332 41.3258 10.354 41.3419 10.354 41.3616C10.354 41.3813 10.3637 41.3879 10.3753 41.3763C10.387 41.3647 10.4976 41.3929 10.621 41.4391C11.1811 41.6483 10.5554 41.636 20.6529 41.636C30.751 41.636 30.1526 41.6477 30.6694 41.4394C30.7822 41.3938 30.8838 41.3658 30.895 41.377C30.9064 41.3881 30.9156 41.3818 30.9156 41.3628C30.9156 41.3438 30.9718 41.3081 31.0405 41.2834C31.1516 41.2436 31.5282 41.0119 31.6731 40.8941C31.8959 40.7133 32.0824 40.5291 32.1271 40.4459C32.1562 40.3918 32.2049 40.3475 32.2353 40.3475C32.2657 40.3475 32.2821 40.3339 32.2717 40.3171C32.2613 40.3004 32.2991 40.2239 32.3558 40.1471C32.4909 39.964 32.7287 39.5245 32.693 39.5238C32.6777 39.5235 32.682 39.5115 32.7025 39.497C32.7595 39.4567 32.8993 38.8651 32.9369 38.5043C32.9554 38.3271 32.9707 36.9627 32.9711 35.4722L32.9717 32.7621L35.9026 32.7461C39.0871 32.7286 39.032 32.7298 39.032 32.6796C39.032 32.6606 39.0558 32.6541 39.085 32.6652C39.1141 32.6763 39.1477 32.6697 39.1596 32.6505C39.1715 32.6314 39.1951 32.6241 39.2119 32.6345C39.2504 32.6581 39.6366 32.4948 39.8977 32.3445C40.0069 32.2817 40.1123 32.2262 40.1322 32.2214C40.152 32.2164 40.1881 32.1866 40.2123 32.1552C40.2364 32.1237 40.2567 32.1136 40.2573 32.1328C40.258 32.1519 40.2837 32.1318 40.3146 32.0881C40.3455 32.0443 40.3834 32.0084 40.3988 32.0084C40.4358 32.0084 40.9078 31.5395 40.9078 31.5027C40.9078 31.487 40.9416 31.4561 40.983 31.4342C41.0243 31.4123 41.05 31.3861 41.04 31.3761C41.0298 31.3661 41.0934 31.2478 41.1812 31.1132C41.2689 30.9787 41.3406 30.8432 41.3406 30.8122C41.3406 30.7812 41.3569 30.7559 41.3767 30.7559C41.3966 30.7559 41.4128 30.7156 41.4128 30.6664C41.4128 30.6172 41.43 30.5769 41.451 30.5769C41.472 30.5769 41.4792 30.5608 41.4669 30.5411C41.4547 30.5214 41.4635 30.5053 41.4866 30.5053C41.5098 30.5053 41.5194 30.4812 41.508 30.4516C41.4965 30.4221 41.5012 30.3979 41.5183 30.3979C41.5355 30.3979 41.5492 30.3617 41.5489 30.3174C41.5486 30.2731 41.5749 30.108 41.6074 29.9506C41.6991 29.5057 41.6777 11.2982 41.5851 11.0027C41.5516 10.8961 41.5326 10.7954 41.5428 10.7791C41.553 10.7627 41.5424 10.7493 41.5193 10.7493C41.4961 10.7493 41.4865 10.7252 41.498 10.6956C41.5094 10.6661 41.5035 10.6419 41.485 10.6419C41.4663 10.6419 41.4605 10.6178 41.4719 10.5882C41.4833 10.5587 41.4737 10.5346 41.4506 10.5346C41.4274 10.5346 41.4186 10.5185 41.4309 10.4988C41.443 10.4791 41.4385 10.463 41.4207 10.463C41.4029 10.463 41.3663 10.3969 41.3394 10.3161C41.3126 10.2353 41.2102 10.0542 41.1119 9.91354C41.0136 9.77281 40.9329 9.63758 40.9326 9.61302C40.9322 9.58838 40.9184 9.56831 40.902 9.56831C40.8559 9.56831 40.4389 9.15024 40.4389 9.10397C40.4389 9.08143 40.4246 9.07172 40.4071 9.08244C40.3897 9.09316 40.3044 9.04588 40.2177 8.97753C40.131 8.90909 40.0397 8.85302 40.015 8.85283C39.9902 8.85265 39.9698 8.839 39.9698 8.82242C39.9698 8.78943 39.7878 8.69305 39.7444 8.70303C39.7296 8.70651 39.7174 8.69222 39.7174 8.67142C39.7174 8.65053 39.7011 8.64348 39.6813 8.65566C39.6615 8.66776 39.6452 8.65805 39.6452 8.63386C39.6452 8.60976 39.6356 8.5995 39.624 8.61104C39.6123 8.62268 39.5017 8.59446 39.3783 8.54828C38.7934 8.32995 39.4876 8.34314 29.3136 8.35679C21.87 8.36687 20.0003 8.37851 19.8129 8.41607ZM36.3701 12.8603C36.6845 12.9567 36.9723 13.1689 37.1534 13.4379C37.4308 13.85 37.4106 13.2386 37.4 20.8972L37.3906 27.7673L37.2754 28.0087C37.1263 28.3209 36.8663 28.5788 36.5515 28.7268L36.3084 28.8411L28.7888 28.8603L28.7691 36.5001L28.6869 36.7021C28.5252 37.0991 28.2195 37.4031 27.8224 37.5623L27.6148 37.6454L20.7791 37.6551C16.2064 37.6615 13.8857 37.6526 13.7693 37.6281C13.3347 37.5364 12.9002 37.1891 12.7064 36.7786L12.6085 36.5717L12.6086 22.6494L12.7067 22.4526C12.8661 22.1324 13.0974 21.9007 13.4113 21.7468L13.687 21.6116L21.212 21.5924V17.821C21.212 14.162 21.2141 14.0427 21.2835 13.8198C21.4239 13.3688 21.7879 13.005 22.2436 12.8607C22.5857 12.7523 36.0164 12.7519 36.3701 12.8603Z" fill="#86B54A"/>
</svg>
