<svg width="50" height="50" viewBox="0 0 50 50" fill="none" xmlns="http://www.w3.org/2000/svg">
<path d="M19.1411 6L19.9838 7.47368L21.65 7.13004L20.5046 8.38446L21.3473 9.85814L19.7967 9.15973L18.6514 10.4142L18.8384 8.7281L17.2879 8.02969L18.9541 7.68606L19.1411 6Z" fill="#304B92"/>
<path d="M25.7698 7.31848L26.4285 8.47037L27.7309 8.20177L26.8356 9.18228L27.4943 10.3342L26.2823 9.78826L25.387 10.7688L25.5332 9.45088L24.3212 8.90497L25.6236 8.63637L25.7698 7.31848Z" fill="#304B92"/>
<path d="M29.8717 11.5469L30.4658 12.5858L31.6405 12.3435L30.833 13.2279L31.4271 14.2668L30.3339 13.7744L29.5264 14.6588L29.6583 13.4701L28.5652 12.9778L29.7398 12.7355L29.8717 11.5469Z" fill="#304B92"/>
<path d="M31.5349 16.6168L32.0415 17.5027L33.0433 17.2961L32.3546 18.0503L32.8613 18.9363L31.9291 18.5164L31.2404 19.2706L31.3529 18.2569L30.4207 17.837L31.4224 17.6304L31.5349 16.6168Z" fill="#304B92"/>
<path d="M28.6831 29.9785L29.1897 30.8645L30.1915 30.6579L29.5029 31.4121L30.0095 32.2981L29.0773 31.8782L28.3887 32.6323L28.5011 31.6187L27.5689 31.1988L28.5706 30.9922L28.6831 29.9785Z" fill="#B4BAD2"/>
<path d="M25.5741 34.7622L26.1608 35.7883L27.321 35.549L26.5234 36.4225L27.1102 37.4485L26.0306 36.9623L25.2331 37.8357L25.3633 36.6617L24.2837 36.1754L25.4438 35.9362L25.5741 34.7622Z" fill="#9DA2CA"/>
<path d="M20.4046 38.541L21.013 39.6049L22.2159 39.3568L21.389 40.2624L21.9973 41.3263L20.8779 40.8221L20.051 41.7277L20.1861 40.5105L19.0667 40.0063L20.2696 39.7582L20.4046 38.541Z" fill="#6D78AE"/>
<path d="M13.3855 38.686L14.2091 40.1263L15.8374 39.7904L14.7181 41.0164L15.5416 42.4566L14.0262 41.7741L12.9068 43L13.0897 41.3522L11.5743 40.6697L13.2027 40.3338L13.3855 38.686Z" fill="#596EAD"/>
<path d="M8.15723 33.9474L8.98079 35.3876L10.6092 35.0518L9.48978 36.2777L10.3133 37.718L8.79796 37.0354L7.67857 38.2614L7.86141 36.6136L6.34603 35.931L7.9744 35.5952L8.15723 33.9474Z" fill="#596EAD"/>
<path d="M5.9395 25.859L6.82139 27.4012L8.56511 27.0416L7.36644 28.3544L8.24833 29.8966L6.62561 29.1657L5.42694 30.4785L5.62272 28.714L4 27.9831L5.74372 27.6235L5.9395 25.859Z" fill="#596EAD"/>
<path d="M8.03039 17.3558L8.98199 19.0199L10.8635 18.6319L9.57011 20.0484L10.5217 21.7126L8.77073 20.9239L7.47731 22.3404L7.68857 20.4365L5.93759 19.6478L7.81913 19.2598L8.03039 17.3558Z" fill="#304B92"/>
<path d="M12.7834 10.326L13.735 11.9902L15.6165 11.6021L14.3231 13.0187L15.2747 14.6828L13.5237 13.8942L12.2303 15.3107L12.4415 13.4067L10.6906 12.6181L12.5721 12.23L12.7834 10.326Z" fill="#304B92"/>
<path d="M45.1226 27.7987H43.479C43.4914 27.4414 43.5285 27.0348 43.5655 26.6036H43.5285C42.9724 27.6016 42.2062 27.9342 41.5018 27.9342C40.4143 27.9342 39.6728 27.0964 39.6728 25.8397C39.6728 23.8069 41.0198 21.6385 43.998 21.6385C44.7148 21.6385 45.4933 21.774 46 21.9342L45.3574 25.0882C45.2091 25.8644 45.0979 27.0471 45.1226 27.7987ZM43.7138 24.4229L43.998 23.0307C43.8621 23.006 43.6891 22.9814 43.5161 22.9814C42.3668 22.9814 41.5265 24.3859 41.5265 25.5071C41.5265 26.0985 41.7613 26.505 42.2556 26.505C42.787 26.505 43.4419 25.9013 43.7138 24.4229Z" fill="#CF1433"/>
<path d="M34.1734 27.4537L34.606 26.2094C34.952 26.3818 35.6069 26.6282 36.1878 26.6282C36.6944 26.6282 36.9539 26.3818 36.9539 26.0861C36.9539 25.7905 36.7562 25.581 36.2001 25.31C35.4957 24.965 34.9149 24.4598 34.9149 23.7083C34.9149 22.4639 36.0148 21.6385 37.5718 21.6385C38.2762 21.6385 38.8323 21.774 39.1289 21.9465L38.7087 23.2032C38.4492 23.08 38.0291 22.9321 37.4977 22.9321C37.0281 22.9321 36.7068 23.1416 36.7068 23.4619C36.7068 23.7083 36.9539 23.9177 37.4482 24.1518C38.1032 24.4845 38.7952 24.965 38.7952 25.8028C38.7952 27.1827 37.6213 27.9219 36.0271 27.9219C35.2609 27.9219 34.5318 27.7248 34.1734 27.4537Z" fill="#CF1433"/>
<path d="M32.8926 27.7987H31.1131L32.2623 21.774H34.0419L32.8926 27.7987ZM33.3745 21.0225C32.8802 21.0225 32.5095 20.6898 32.5095 20.16C32.5219 19.5563 32.9914 19.1498 33.5352 19.1498C34.0542 19.1498 34.4249 19.4947 34.4249 20.0245C34.4249 20.6529 33.943 21.0225 33.3745 21.0225Z" fill="#CF1433"/>
<path d="M25.9293 27.7987H24.1498L24.916 23.7329C25.0642 22.9691 25.1631 22.3038 25.2373 21.774H26.819L26.6955 22.7719H26.7202C27.2886 21.9834 28.0425 21.6385 28.8457 21.6385C29.8343 21.6385 30.3904 22.2422 30.3904 23.2771C30.3904 23.5481 30.341 24.004 30.2916 24.2997L29.6243 27.7987H27.8447L28.475 24.4598C28.5121 24.2504 28.5368 24.004 28.5368 23.7822C28.5368 23.3633 28.3885 23.0676 27.9436 23.0676C27.3628 23.0676 26.6831 23.7945 26.436 25.1252L25.9293 27.7987Z" fill="#CF1433"/>
<path d="M22.8896 26.1724L23.0132 27.4537C22.3088 27.811 21.4314 27.9219 20.764 27.9219C19.034 27.9219 18.1442 26.9486 18.1442 25.3839C18.1442 23.5481 19.4788 21.6385 21.6662 21.6385C22.8896 21.6385 23.767 22.3161 23.767 23.4373C23.767 24.9773 22.2717 25.5317 19.8496 25.4701C19.8496 25.6426 19.9114 25.9137 20.0349 26.0861C20.2697 26.3942 20.6775 26.5543 21.1966 26.5543C21.8515 26.5543 22.4076 26.4065 22.8896 26.1724ZM22.0987 23.4496C22.0987 23.1416 21.8515 22.9321 21.4437 22.9321C20.6158 22.9321 20.1462 23.6097 20.0226 24.1765C21.4066 24.1888 22.0987 23.9917 22.0987 23.4496Z" fill="#CF1433"/>
</svg>
