<svg width="50" height="50" viewBox="0 0 50 50" fill="none" xmlns="http://www.w3.org/2000/svg">
<rect width="50" height="50" fill="#009D00"/>
<path d="M26.8763 7L28.8937 9.82124L15.4036 28.6861H19.4385L30.9112 12.6425L32.9286 15.4637L21.1046 32H9L26.8763 7ZM25.1395 32H37.2442L39.6129 28.6894L41 26.7503L38.9826 23.9291L35.578 28.6894H31.5431L36.9651 21.1062L34.9477 18.285L25.1412 32H25.1395Z" fill="white"/>
<path fill-rule="evenodd" clip-rule="evenodd" d="M16.749 42C17.2438 42 17.6882 41.9235 18.082 41.7705C18.4792 41.6143 18.8177 41.3913 19.0977 41.1016C19.3809 40.8118 19.5973 40.4619 19.7471 40.0518C19.8968 39.6383 19.9717 39.1745 19.9717 38.6602V38.2354C19.9717 37.721 19.8968 37.2588 19.7471 36.8486C19.5973 36.4352 19.3825 36.0837 19.1025 35.7939C18.8258 35.501 18.4954 35.278 18.1113 35.125C17.7272 34.9688 17.3024 34.8906 16.8369 34.8906H14.8252V42H16.749ZM15.7676 41.2334H16.749C17.2568 41.2334 17.68 41.1276 18.0186 40.916C18.3571 40.7012 18.611 40.4017 18.7803 40.0176C18.9528 39.6302 19.0391 39.1777 19.0391 38.6602V38.2256C19.0391 37.8187 18.9902 37.4574 18.8926 37.1416C18.7949 36.8226 18.6517 36.554 18.4629 36.3359C18.2741 36.1146 18.043 35.9469 17.7695 35.833C17.4993 35.7191 17.1885 35.6621 16.8369 35.6621H15.7676V41.2334Z" fill="white"/>
<path d="M28.9023 37.4102V36.7168H27.916V35.4326H27.0127V36.7168H26.0459V37.4102H27.0127V40.6865C27.0127 41.0381 27.0664 41.318 27.1738 41.5264C27.2845 41.7314 27.4326 41.8779 27.6182 41.9658C27.8037 42.0537 28.0072 42.0977 28.2285 42.0977C28.3913 42.0977 28.5296 42.0863 28.6436 42.0635C28.7607 42.0439 28.8551 42.0228 28.9268 42L28.9219 41.2627C28.8796 41.2725 28.8161 41.2855 28.7314 41.3018C28.6501 41.3148 28.5719 41.3213 28.4971 41.3213C28.3962 41.3213 28.3018 41.3066 28.2139 41.2773C28.126 41.248 28.0544 41.1878 27.999 41.0967C27.9437 41.0055 27.916 40.8704 27.916 40.6914V37.4102H28.9023Z" fill="white"/>
<path fill-rule="evenodd" clip-rule="evenodd" d="M33.0975 41.4416C33.0545 41.4866 33.0086 41.5312 32.96 41.5752C32.7939 41.7249 32.5954 41.8503 32.3643 41.9512C32.1364 42.0488 31.8792 42.0977 31.5928 42.0977C31.2347 42.0977 30.9206 42.0277 30.6504 41.8877C30.3835 41.7477 30.1751 41.5605 30.0254 41.3262C29.8789 41.0885 29.8057 40.8232 29.8057 40.5303C29.8057 40.2471 29.861 39.998 29.9717 39.7832C30.0824 39.5651 30.2419 39.3844 30.4502 39.2412C30.6585 39.0947 30.9092 38.984 31.2021 38.9092C31.4951 38.8343 31.8223 38.7969 32.1836 38.7969H33.0771V38.377C33.0771 38.1686 33.0348 37.988 32.9502 37.835C32.8688 37.6787 32.7451 37.5583 32.5791 37.4736C32.4131 37.389 32.208 37.3467 31.9639 37.3467C31.736 37.3467 31.5358 37.3857 31.3633 37.4639C31.194 37.542 31.0605 37.6445 30.9629 37.7715C30.8685 37.8984 30.8213 38.0352 30.8213 38.1816H29.918C29.918 37.9928 29.9668 37.8057 30.0645 37.6201C30.1621 37.4346 30.3021 37.2669 30.4844 37.1172C30.6699 36.9642 30.8913 36.8438 31.1484 36.7559C31.4089 36.6647 31.6986 36.6191 32.0176 36.6191C32.4017 36.6191 32.7402 36.6842 33.0332 36.8145C33.3294 36.9447 33.5605 37.1416 33.7266 37.4053C33.8958 37.6657 33.9805 37.9928 33.9805 38.3867V40.8477C33.9805 41.0234 33.9951 41.2106 34.0244 41.4092C34.057 41.6077 34.1042 41.7786 34.166 41.9219V42H33.2236C33.1781 41.8958 33.1423 41.7575 33.1162 41.585C33.109 41.5362 33.1028 41.4884 33.0975 41.4416ZM33.0771 40.5146C33.0462 40.5761 33.0071 40.6383 32.96 40.7012C32.8363 40.8704 32.6686 41.0137 32.457 41.1309C32.2454 41.248 32.0013 41.3066 31.7246 41.3066C31.5033 41.3066 31.3161 41.2676 31.1631 41.1895C31.0133 41.1081 30.901 40.999 30.8262 40.8623C30.7513 40.7256 30.7139 40.5742 30.7139 40.4082C30.7139 40.2454 30.7497 40.1038 30.8213 39.9834C30.8929 39.8597 30.9971 39.7572 31.1338 39.6758C31.2705 39.5944 31.4398 39.5342 31.6416 39.4951C31.8434 39.4528 32.0729 39.4316 32.3301 39.4316H33.0771V40.5146Z" fill="white"/>
<path fill-rule="evenodd" clip-rule="evenodd" d="M24.249 41.5752C24.2977 41.5312 24.3436 41.4866 24.3866 41.4416C24.3918 41.4884 24.398 41.5362 24.4053 41.585C24.4313 41.7575 24.4671 41.8958 24.5127 42H25.4551V41.9219C25.3932 41.7786 25.346 41.6077 25.3135 41.4092C25.2842 41.2106 25.2695 41.0234 25.2695 40.8477V38.3867C25.2695 37.9928 25.1849 37.6657 25.0156 37.4053C24.8496 37.1416 24.6185 36.9447 24.3223 36.8145C24.0293 36.6842 23.6908 36.6191 23.3066 36.6191C22.9876 36.6191 22.6979 36.6647 22.4375 36.7559C22.1803 36.8438 21.959 36.9642 21.7734 37.1172C21.5911 37.2669 21.4512 37.4346 21.3535 37.6201C21.2559 37.8057 21.207 37.9928 21.207 38.1816H22.1104C22.1104 38.0352 22.1576 37.8984 22.252 37.7715C22.3496 37.6445 22.4831 37.542 22.6523 37.4639C22.8249 37.3857 23.0251 37.3467 23.2529 37.3467C23.4971 37.3467 23.7021 37.389 23.8682 37.4736C24.0342 37.5583 24.1579 37.6787 24.2393 37.835C24.3239 37.988 24.3662 38.1686 24.3662 38.377V38.7969H23.4727C23.1113 38.7969 22.7842 38.8343 22.4912 38.9092C22.1982 38.984 21.9476 39.0947 21.7393 39.2412C21.5309 39.3844 21.3714 39.5651 21.2607 39.7832C21.1501 39.998 21.0947 40.2471 21.0947 40.5303C21.0947 40.8232 21.168 41.0885 21.3145 41.3262C21.4642 41.5605 21.6725 41.7477 21.9395 41.8877C22.2096 42.0277 22.5238 42.0977 22.8818 42.0977C23.1683 42.0977 23.4255 42.0488 23.6533 41.9512C23.8844 41.8503 24.083 41.7249 24.249 41.5752ZM24.249 40.7012C24.2962 40.6383 24.3352 40.5761 24.3662 40.5146V39.4316H23.6191C23.362 39.4316 23.1325 39.4528 22.9307 39.4951C22.7288 39.5342 22.5596 39.5944 22.4229 39.6758C22.2861 39.7572 22.182 39.8597 22.1104 39.9834C22.0387 40.1038 22.0029 40.2454 22.0029 40.4082C22.0029 40.5742 22.0404 40.7256 22.1152 40.8623C22.1901 40.999 22.3024 41.1081 22.4521 41.1895C22.6051 41.2676 22.7923 41.3066 23.0137 41.3066C23.2904 41.3066 23.5345 41.248 23.7461 41.1309C23.9577 41.0137 24.1253 40.8704 24.249 40.7012Z" fill="white"/>
</svg>
