<svg width="50" height="50" viewBox="0 0 50 50" fill="none" xmlns="http://www.w3.org/2000/svg">
<path d="M26.8763 6L28.8937 8.82124L15.4036 27.6861H19.4385L30.9112 11.6425L32.9286 14.4637L21.1046 31H9L26.8763 6ZM25.1395 31H37.2442L39.6129 27.6894L41 25.7503L38.9826 22.9291L35.578 27.6894H31.5431L36.9651 20.1062L34.9477 17.285L25.1412 31H25.1395Z" fill="#009D00"/>
<path fill-rule="evenodd" clip-rule="evenodd" d="M16.749 43C17.2438 43 17.6882 42.9235 18.082 42.7705C18.4792 42.6143 18.8177 42.3913 19.0977 42.1016C19.3809 41.8118 19.5973 41.4619 19.7471 41.0518C19.8968 40.6383 19.9717 40.1745 19.9717 39.6602V39.2354C19.9717 38.721 19.8968 38.2588 19.7471 37.8486C19.5973 37.4352 19.3825 37.0837 19.1025 36.7939C18.8258 36.501 18.4954 36.278 18.1113 36.125C17.7272 35.9688 17.3024 35.8906 16.8369 35.8906H14.8252V43H16.749ZM15.7676 42.2334H16.749C17.2568 42.2334 17.68 42.1276 18.0186 41.916C18.3571 41.7012 18.611 41.4017 18.7803 41.0176C18.9528 40.6302 19.0391 40.1777 19.0391 39.6602V39.2256C19.0391 38.8187 18.9902 38.4574 18.8926 38.1416C18.7949 37.8226 18.6517 37.554 18.4629 37.3359C18.2741 37.1146 18.043 36.9469 17.7695 36.833C17.4993 36.7191 17.1885 36.6621 16.8369 36.6621H15.7676V42.2334Z" fill="#1C1D1F"/>
<path d="M28.9023 38.4102V37.7168H27.916V36.4326H27.0127V37.7168H26.0459V38.4102H27.0127V41.6865C27.0127 42.0381 27.0664 42.318 27.1738 42.5264C27.2845 42.7314 27.4326 42.8779 27.6182 42.9658C27.8037 43.0537 28.0072 43.0977 28.2285 43.0977C28.3913 43.0977 28.5296 43.0863 28.6436 43.0635C28.7607 43.0439 28.8551 43.0228 28.9268 43L28.9219 42.2627C28.8796 42.2725 28.8161 42.2855 28.7314 42.3018C28.6501 42.3148 28.5719 42.3213 28.4971 42.3213C28.3962 42.3213 28.3018 42.3066 28.2139 42.2773C28.126 42.248 28.0544 42.1878 27.999 42.0967C27.9437 42.0055 27.916 41.8704 27.916 41.6914V38.4102H28.9023Z" fill="#1C1D1F"/>
<path fill-rule="evenodd" clip-rule="evenodd" d="M33.0975 42.4416C33.0545 42.4866 33.0086 42.5312 32.96 42.5752C32.7939 42.7249 32.5954 42.8503 32.3643 42.9512C32.1364 43.0488 31.8792 43.0977 31.5928 43.0977C31.2347 43.0977 30.9206 43.0277 30.6504 42.8877C30.3835 42.7477 30.1751 42.5605 30.0254 42.3262C29.8789 42.0885 29.8057 41.8232 29.8057 41.5303C29.8057 41.2471 29.861 40.998 29.9717 40.7832C30.0824 40.5651 30.2419 40.3844 30.4502 40.2412C30.6585 40.0947 30.9092 39.984 31.2021 39.9092C31.4951 39.8343 31.8223 39.7969 32.1836 39.7969H33.0771V39.377C33.0771 39.1686 33.0348 38.988 32.9502 38.835C32.8688 38.6787 32.7451 38.5583 32.5791 38.4736C32.4131 38.389 32.208 38.3467 31.9639 38.3467C31.736 38.3467 31.5358 38.3857 31.3633 38.4639C31.194 38.542 31.0605 38.6445 30.9629 38.7715C30.8685 38.8984 30.8213 39.0352 30.8213 39.1816H29.918C29.918 38.9928 29.9668 38.8057 30.0645 38.6201C30.1621 38.4346 30.3021 38.2669 30.4844 38.1172C30.6699 37.9642 30.8913 37.8438 31.1484 37.7559C31.4089 37.6647 31.6986 37.6191 32.0176 37.6191C32.4017 37.6191 32.7402 37.6842 33.0332 37.8145C33.3294 37.9447 33.5605 38.1416 33.7266 38.4053C33.8958 38.6657 33.9805 38.9928 33.9805 39.3867V41.8477C33.9805 42.0234 33.9951 42.2106 34.0244 42.4092C34.057 42.6077 34.1042 42.7786 34.166 42.9219V43H33.2236C33.1781 42.8958 33.1423 42.7575 33.1162 42.585C33.109 42.5362 33.1028 42.4884 33.0975 42.4416ZM33.0771 41.5146C33.0462 41.5761 33.0071 41.6383 32.96 41.7012C32.8363 41.8704 32.6686 42.0137 32.457 42.1309C32.2454 42.248 32.0013 42.3066 31.7246 42.3066C31.5033 42.3066 31.3161 42.2676 31.1631 42.1895C31.0133 42.1081 30.901 41.999 30.8262 41.8623C30.7513 41.7256 30.7139 41.5742 30.7139 41.4082C30.7139 41.2454 30.7497 41.1038 30.8213 40.9834C30.8929 40.8597 30.9971 40.7572 31.1338 40.6758C31.2705 40.5944 31.4398 40.5342 31.6416 40.4951C31.8434 40.4528 32.0729 40.4316 32.3301 40.4316H33.0771V41.5146Z" fill="#1C1D1F"/>
<path fill-rule="evenodd" clip-rule="evenodd" d="M24.249 42.5752C24.2977 42.5312 24.3436 42.4866 24.3866 42.4416C24.3918 42.4884 24.398 42.5362 24.4053 42.585C24.4313 42.7575 24.4671 42.8958 24.5127 43H25.4551V42.9219C25.3932 42.7786 25.346 42.6077 25.3135 42.4092C25.2842 42.2106 25.2695 42.0234 25.2695 41.8477V39.3867C25.2695 38.9928 25.1849 38.6657 25.0156 38.4053C24.8496 38.1416 24.6185 37.9447 24.3223 37.8145C24.0293 37.6842 23.6908 37.6191 23.3066 37.6191C22.9876 37.6191 22.6979 37.6647 22.4375 37.7559C22.1803 37.8438 21.959 37.9642 21.7734 38.1172C21.5911 38.2669 21.4512 38.4346 21.3535 38.6201C21.2559 38.8057 21.207 38.9928 21.207 39.1816H22.1104C22.1104 39.0352 22.1576 38.8984 22.252 38.7715C22.3496 38.6445 22.4831 38.542 22.6523 38.4639C22.8249 38.3857 23.0251 38.3467 23.2529 38.3467C23.4971 38.3467 23.7021 38.389 23.8682 38.4736C24.0342 38.5583 24.1579 38.6787 24.2393 38.835C24.3239 38.988 24.3662 39.1686 24.3662 39.377V39.7969H23.4727C23.1113 39.7969 22.7842 39.8343 22.4912 39.9092C22.1982 39.984 21.9476 40.0947 21.7393 40.2412C21.5309 40.3844 21.3714 40.5651 21.2607 40.7832C21.1501 40.998 21.0947 41.2471 21.0947 41.5303C21.0947 41.8232 21.168 42.0885 21.3145 42.3262C21.4642 42.5605 21.6725 42.7477 21.9395 42.8877C22.2096 43.0277 22.5238 43.0977 22.8818 43.0977C23.1683 43.0977 23.4255 43.0488 23.6533 42.9512C23.8844 42.8503 24.083 42.7249 24.249 42.5752ZM24.249 41.7012C24.2962 41.6383 24.3352 41.5761 24.3662 41.5146V40.4316H23.6191C23.362 40.4316 23.1325 40.4528 22.9307 40.4951C22.7288 40.5342 22.5596 40.5944 22.4229 40.6758C22.2861 40.7572 22.182 40.8597 22.1104 40.9834C22.0387 41.1038 22.0029 41.2454 22.0029 41.4082C22.0029 41.5742 22.0404 41.7256 22.1152 41.8623C22.1901 41.999 22.3024 42.1081 22.4521 42.1895C22.6051 42.2676 22.7923 42.3066 23.0137 42.3066C23.2904 42.3066 23.5345 42.248 23.7461 42.1309C23.9577 42.0137 24.1253 41.8704 24.249 41.7012Z" fill="#1C1D1F"/>
</svg>
