<svg width="50" height="50" viewBox="0 0 50 50" fill="none" xmlns="http://www.w3.org/2000/svg">
<path d="M26.8763 6L28.8937 8.82124L15.4036 27.6861H19.4385L30.9112 11.6425L32.9286 14.4637L21.1046 31H9L26.8763 6ZM25.1395 31H37.2442L39.6129 27.6894L41 25.7503L38.9826 22.9291L35.578 27.6894H31.5431L36.9651 20.1062L34.9477 17.285L25.1412 31H25.1395Z" fill="#009D00"/>
<path d="M18.0781 40.7153H18.9219C18.8779 41.1196 18.7622 41.4814 18.5747 41.8008C18.3872 42.1201 18.1221 42.3735 17.7793 42.561C17.4365 42.7456 17.0088 42.8379 16.4961 42.8379C16.1211 42.8379 15.7798 42.7676 15.4722 42.627C15.1675 42.4863 14.9053 42.2871 14.6855 42.0293C14.4658 41.7686 14.2959 41.4565 14.1758 41.0933C14.0586 40.7271 14 40.3198 14 39.8716V39.2344C14 38.7861 14.0586 38.3804 14.1758 38.0171C14.2959 37.6509 14.4673 37.3374 14.6899 37.0767C14.9155 36.8159 15.1865 36.6152 15.5029 36.4746C15.8193 36.334 16.1753 36.2637 16.5708 36.2637C17.0542 36.2637 17.4629 36.3545 17.7969 36.5361C18.1309 36.7178 18.3901 36.9697 18.5747 37.292C18.7622 37.6113 18.8779 37.9819 18.9219 38.4038H18.0781C18.0371 38.105 17.9609 37.8486 17.8496 37.6348C17.7383 37.418 17.5801 37.251 17.375 37.1338C17.1699 37.0166 16.9019 36.958 16.5708 36.958C16.2866 36.958 16.0361 37.0122 15.8193 37.1206C15.6055 37.229 15.4253 37.3828 15.2788 37.582C15.1353 37.7812 15.0269 38.02 14.9536 38.2983C14.8804 38.5767 14.8438 38.8857 14.8438 39.2256V39.8716C14.8438 40.1851 14.876 40.4795 14.9404 40.7549C15.0078 41.0303 15.1089 41.272 15.2437 41.48C15.3784 41.688 15.5498 41.8521 15.7578 41.9722C15.9658 42.0894 16.2119 42.1479 16.4961 42.1479C16.8564 42.1479 17.1436 42.0908 17.3574 41.9766C17.5713 41.8623 17.7324 41.6982 17.8408 41.4844C17.9521 41.2705 18.0312 41.0142 18.0781 40.7153Z" fill="black"/>
<path d="M20.8379 36V42.75H20.0205V36H20.8379Z" fill="black"/>
<path d="M21.9277 40.4253V40.3242C21.9277 39.9814 21.9775 39.6636 22.0771 39.3706C22.1768 39.0747 22.3203 38.8184 22.5078 38.6016C22.6953 38.3818 22.9224 38.2119 23.189 38.0918C23.4556 37.9688 23.7544 37.9072 24.0854 37.9072C24.4194 37.9072 24.7197 37.9688 24.9863 38.0918C25.2559 38.2119 25.4844 38.3818 25.6719 38.6016C25.8623 38.8184 26.0073 39.0747 26.1069 39.3706C26.2065 39.6636 26.2563 39.9814 26.2563 40.3242V40.4253C26.2563 40.7681 26.2065 41.0859 26.1069 41.3789C26.0073 41.6719 25.8623 41.9282 25.6719 42.1479C25.4844 42.3647 25.2573 42.5347 24.9907 42.6577C24.7271 42.7778 24.4282 42.8379 24.0942 42.8379C23.7603 42.8379 23.46 42.7778 23.1934 42.6577C22.9268 42.5347 22.6982 42.3647 22.5078 42.1479C22.3203 41.9282 22.1768 41.6719 22.0771 41.3789C21.9775 41.0859 21.9277 40.7681 21.9277 40.4253ZM22.7407 40.3242V40.4253C22.7407 40.6626 22.7686 40.8867 22.8242 41.0977C22.8799 41.3057 22.9634 41.4902 23.0747 41.6514C23.189 41.8125 23.3311 41.9399 23.501 42.0337C23.6709 42.1245 23.8687 42.1699 24.0942 42.1699C24.3169 42.1699 24.5117 42.1245 24.6787 42.0337C24.8486 41.9399 24.9893 41.8125 25.1006 41.6514C25.2119 41.4902 25.2954 41.3057 25.3511 41.0977C25.4097 40.8867 25.439 40.6626 25.439 40.4253V40.3242C25.439 40.0898 25.4097 39.8687 25.3511 39.6606C25.2954 39.4497 25.2104 39.2637 25.0962 39.1025C24.9849 38.9385 24.8442 38.8096 24.6743 38.7158C24.5073 38.6221 24.311 38.5752 24.0854 38.5752C23.8628 38.5752 23.6665 38.6221 23.4966 38.7158C23.3296 38.8096 23.189 38.9385 23.0747 39.1025C22.9634 39.2637 22.8799 39.4497 22.8242 39.6606C22.7686 39.8687 22.7407 40.0898 22.7407 40.3242Z" fill="black"/>
<path d="M30.1851 41.6514V37.9951H31.0024V42.75H30.2246L30.1851 41.6514ZM30.3389 40.6494L30.6772 40.6406C30.6772 40.957 30.6436 41.25 30.5762 41.5195C30.5117 41.7861 30.4062 42.0176 30.2598 42.2139C30.1133 42.4102 29.9214 42.564 29.6841 42.6753C29.4468 42.7837 29.1582 42.8379 28.8184 42.8379C28.5869 42.8379 28.3745 42.8042 28.1812 42.7368C27.9907 42.6694 27.8267 42.5654 27.689 42.4248C27.5513 42.2842 27.4443 42.1011 27.3682 41.8755C27.2949 41.6499 27.2583 41.3789 27.2583 41.0625V37.9951H28.0713V41.0713C28.0713 41.2852 28.0947 41.4624 28.1416 41.603C28.1914 41.7407 28.2573 41.8506 28.3394 41.9326C28.4243 42.0117 28.5181 42.0674 28.6206 42.0996C28.7261 42.1318 28.8345 42.1479 28.9458 42.1479C29.2915 42.1479 29.5654 42.082 29.7676 41.9502C29.9697 41.8154 30.1147 41.6353 30.2026 41.4097C30.2935 41.1812 30.3389 40.9277 30.3389 40.6494Z" fill="black"/>
<path d="M35.2388 41.8271V36H36.0562V42.75H35.3091L35.2388 41.8271ZM32.0396 40.4253V40.333C32.0396 39.9697 32.0835 39.6401 32.1714 39.3442C32.2622 39.0454 32.3896 38.7891 32.5537 38.5752C32.7207 38.3613 32.9185 38.1973 33.147 38.083C33.3784 37.9658 33.6362 37.9072 33.9204 37.9072C34.2192 37.9072 34.48 37.96 34.7026 38.0654C34.9282 38.168 35.1187 38.3188 35.2739 38.5181C35.4321 38.7144 35.5566 38.9517 35.6475 39.23C35.7383 39.5083 35.8013 39.8232 35.8364 40.1748V40.5791C35.8042 40.9277 35.7412 41.2412 35.6475 41.5195C35.5566 41.7979 35.4321 42.0352 35.2739 42.2314C35.1187 42.4277 34.9282 42.5786 34.7026 42.6841C34.4771 42.7866 34.2134 42.8379 33.9116 42.8379C33.6333 42.8379 33.3784 42.7778 33.147 42.6577C32.9185 42.5376 32.7207 42.3691 32.5537 42.1523C32.3896 41.9355 32.2622 41.6807 32.1714 41.3877C32.0835 41.0918 32.0396 40.771 32.0396 40.4253ZM32.8569 40.333V40.4253C32.8569 40.6626 32.8804 40.8853 32.9272 41.0933C32.9771 41.3013 33.0532 41.4844 33.1558 41.6426C33.2583 41.8008 33.3887 41.9253 33.5469 42.0161C33.7051 42.104 33.894 42.1479 34.1138 42.1479C34.3833 42.1479 34.6045 42.0908 34.7773 41.9766C34.9531 41.8623 35.0938 41.7114 35.1992 41.5239C35.3047 41.3364 35.3867 41.1328 35.4453 40.9131V39.854C35.4102 39.6929 35.3589 39.5376 35.2915 39.3882C35.2271 39.2358 35.1421 39.1011 35.0366 38.9839C34.9341 38.8638 34.8066 38.7686 34.6543 38.6982C34.5049 38.6279 34.3276 38.5928 34.1226 38.5928C33.8999 38.5928 33.708 38.6396 33.5469 38.7334C33.3887 38.8242 33.2583 38.9502 33.1558 39.1113C33.0532 39.2695 32.9771 39.4541 32.9272 39.665C32.8804 39.873 32.8569 40.0957 32.8569 40.333Z" fill="black"/>
</svg>
