<svg width="50" height="50" viewBox="0 0 50 50" fill="none" xmlns="http://www.w3.org/2000/svg">
<path d="M7.75888 25.9855C7.7692 26.0091 7.78984 26.0248 7.78984 26.0483C7.78984 26.135 6.92705 26.4575 6.1671 26.4575C4.80087 26.4496 4 25.6548 4 24.4587C4 23.2626 4.75996 22.4603 6.03368 22.4603C7.74893 22.4603 7.90298 23.7349 7.90298 24.4116C7.90298 24.5218 7.90298 24.5846 7.79021 24.5846H4.84251C4.84251 25.0645 5.08908 25.9302 6.25997 25.9302C6.92742 25.9302 7.46182 25.6077 7.52337 25.6077C7.55433 25.6077 7.56428 25.6313 7.58492 25.6548L7.75962 25.9855H7.75888ZM7.06047 24.097C7.06047 23.6878 6.88577 22.9479 5.9924 22.9479C5.04743 22.9479 4.84215 23.7031 4.84215 24.097H7.06084H7.06047Z" fill="#455560"/>
<path d="M16.2894 25.1044C16.2894 25.6002 16.32 25.6709 16.4125 25.891C16.4534 25.9855 16.5975 26.135 16.5975 26.1821C16.5975 26.2135 16.5463 26.2292 16.505 26.2452L16.1044 26.4339C16.0631 26.4496 16.0429 26.4578 16.0222 26.4578C15.8682 26.4578 15.6832 26.0408 15.6319 25.9306C15.5088 26.0173 15.0054 26.4578 14.1529 26.4578C13.3005 26.4578 12.8176 26.0487 12.8176 25.3484C12.8176 24.0185 14.872 23.9949 15.5088 23.9792V23.696C15.5088 23.2397 15.3238 22.9879 14.5948 22.9879C13.9067 22.9879 13.4342 23.2397 13.3417 23.2397C13.3108 23.2397 13.2802 23.224 13.2699 23.2005L13.1364 22.9251C13.1158 22.8858 13.1055 22.8623 13.1055 22.8227C13.1055 22.6889 14.0505 22.4606 14.708 22.4606C15.8892 22.4606 16.2898 22.9012 16.2898 23.5622V25.1044H16.2894ZM15.5088 24.4669C15.057 24.4747 13.5883 24.4747 13.5883 25.3009C13.5883 25.6156 13.8142 25.9698 14.3379 25.9698C14.8616 25.9698 15.3445 25.592 15.5088 25.4822V24.4669Z" fill="#455560"/>
<path d="M20.5517 25.9855C20.5621 26.0091 20.5827 26.0248 20.5827 26.0483C20.5827 26.135 19.7199 26.4575 18.96 26.4575C17.7378 26.4575 17.0291 25.7255 17.0291 24.5768C17.0291 23.2629 17.8506 22.4603 19.114 22.4603C19.8021 22.4603 20.593 22.8302 20.593 22.9483C20.593 22.9718 20.5724 22.9875 20.5624 23.0111L20.3262 23.3414C20.3056 23.365 20.2952 23.3888 20.2646 23.3888C20.2237 23.3888 19.7818 22.9875 19.1759 22.9875C18.1694 22.9875 17.8716 23.5619 17.8716 24.459C17.8716 25.175 18.0563 25.9306 19.0528 25.9306C19.7203 25.9306 20.2543 25.6081 20.3162 25.6081C20.3468 25.6081 20.3571 25.6316 20.3778 25.6552L20.5525 25.9859L20.5517 25.9855Z" fill="#455560"/>
<path d="M24.6349 27.7952C24.6349 27.8502 24.6044 27.8819 24.5631 27.8898L24.0497 27.9843C23.9675 28 23.9981 27.9922 23.9266 28C23.8547 28 23.8547 27.9369 23.8547 27.8976V25.9934C23.5978 26.1585 23.1869 26.4578 22.6016 26.4578C21.3898 26.4578 20.9173 25.5136 20.9173 24.3802C20.9173 23.4045 21.5129 22.4603 22.8069 22.4603C23.4335 22.4603 23.875 22.7278 24.06 22.838C24.1525 22.72 24.2653 22.4603 24.3681 22.4603C24.3991 22.4603 24.4297 22.476 24.4709 22.4917L24.8303 22.649C24.8815 22.6725 24.9125 22.6882 24.9125 22.7196C24.9125 22.7746 24.7894 22.924 24.7278 23.0739C24.6663 23.2312 24.6353 23.3493 24.6353 23.554V27.7952H24.6349ZM23.8547 23.2943C23.6494 23.2001 23.3 22.9875 22.8482 22.9875C21.9545 22.9875 21.7595 23.7349 21.7595 24.3959C21.7595 25.1593 21.9135 25.9302 22.7457 25.9302C23.2182 25.9302 23.5573 25.6705 23.8551 25.474V23.2943H23.8547Z" fill="#455560"/>
<path d="M12.4285 22.5121H11.6327L10.3458 24.4017L11.6641 26.4073H12.5541L11.0158 24.3727L12.4285 22.5121Z" fill="url(#paint0_linear_9176_12133)"/>
<path d="M8.2122 22.5029H9.00791L10.2949 24.3922L8.97658 26.3981H8.08653L9.62487 24.3632L8.2122 22.5029Z" fill="url(#paint1_linear_9176_12133)"/>
<path d="M30.6918 22.6056C30.6918 22.5408 30.733 22.508 30.816 22.508H31.3441C31.4576 22.508 31.4786 22.5568 31.4786 22.6299V26.308C31.4786 26.3729 31.437 26.4056 31.3544 26.4056H30.8163C30.7334 26.4056 30.6921 26.3729 30.6921 26.308V23.0114" fill="url(#paint2_linear_9176_12133)"/>
<path d="M34.9567 23.0442C34.9154 23.109 34.8947 23.1418 34.8325 23.1418C34.7602 23.1418 34.3253 22.9227 33.7876 22.9227C33.3734 22.9227 33.0218 23.0851 33.0218 23.4585C33.0218 24.3516 35.319 24.1 35.319 25.3665C35.319 26.1295 34.5531 26.5193 33.6634 26.5193C33.1666 26.5193 32.0908 26.292 32.0908 26.1295C32.0908 26.0889 32.1114 26.0647 32.1321 26.0323L32.2769 25.7804C32.3075 25.7238 32.3388 25.7074 32.3698 25.7074C32.463 25.7074 33.0011 25.9917 33.7047 25.9917C34.1495 25.9917 34.5325 25.7968 34.5325 25.4071C34.5325 24.5631 32.2353 24.7495 32.2353 23.5233C32.2353 22.8657 32.8872 22.3947 33.7979 22.3947C34.1495 22.3947 34.7499 22.5248 35.0186 22.6384C35.1015 22.6708 35.1325 22.7032 35.1325 22.7442C35.1325 22.7684 35.1015 22.7927 35.0912 22.8251L34.9567 23.0445V23.0442Z" fill="url(#paint3_linear_9176_12133)"/>
<path d="M39.5979 26.5193C38.201 26.5193 37.601 25.6344 37.601 24.4734C37.601 23.3124 38.201 22.3947 39.7018 22.3947C41.1192 22.3947 41.7196 23.2878 41.7196 24.4328C41.7196 25.5777 41.1093 26.5193 39.5982 26.5193H39.5979ZM40.8708 24.4246C40.8708 23.6291 40.5911 22.8981 39.6601 22.8981C38.7292 22.8981 38.4498 23.5963 38.4498 24.4004C38.4498 25.3259 38.7189 26.0159 39.6708 26.0159C40.6228 26.0159 40.8712 25.3583 40.8712 24.4246H40.8708Z" fill="url(#paint4_linear_9176_12133)"/>
<path d="M46 26.308C46 26.3729 45.9587 26.4056 45.8758 26.4056H45.3377C45.2552 26.4056 45.2135 26.3729 45.2135 26.308V23.5963C45.2135 23.2472 45.0996 22.9387 44.5409 22.9387C43.8683 22.9387 43.4338 23.2554 43.175 23.4339V26.308C43.175 26.3729 43.1338 26.4056 43.0512 26.4056H42.5131C42.4302 26.4056 42.3889 26.3729 42.3889 26.308V23.5069C42.3889 23.239 42.3889 23.1496 42.3476 23.0278C42.2651 22.7841 42.1822 22.7271 42.1822 22.6869C42.1822 22.6705 42.1925 22.6544 42.2337 22.6299L42.6992 22.4268C42.7202 22.4186 42.7512 22.3944 42.7822 22.3944C42.9683 22.3944 43.0925 22.8817 43.1028 22.9466C43.4445 22.7357 43.9825 22.3944 44.7687 22.3944C45.9174 22.3944 46 23.0278 46 23.6124V26.308Z" fill="url(#paint5_linear_9176_12133)"/>
<path d="M36.0476 22.6026C36.0476 22.5377 36.0889 22.5053 36.1718 22.5053H36.6999C36.8134 22.5053 36.8344 22.5541 36.8344 22.6271V26.3053C36.8344 26.3705 36.7928 26.4029 36.7102 26.4029H36.1722C36.0892 26.4029 36.0479 26.3705 36.0479 26.3053V23.0087" fill="url(#paint6_linear_9176_12133)"/>
<path d="M28.6835 26.4043L27.8252 26.4046L29.9196 21L30.9391 21.0024L28.6835 26.4043Z" fill="url(#paint7_linear_9176_12133)"/>
<path d="M26.9097 26.4043L27.768 26.4046L25.6735 21L24.6541 21.0024L26.9097 26.4043Z" fill="url(#paint8_linear_9176_12133)"/>
<defs>
<linearGradient id="paint0_linear_9176_12133" x1="14.3805" y1="21" x2="14.3805" y2="27.9835" gradientUnits="userSpaceOnUse">
<stop stop-color="#7BACDC"/>
<stop offset="1" stop-color="#007AC2"/>
</linearGradient>
<linearGradient id="paint1_linear_9176_12133" x1="14.3805" y1="21" x2="14.3805" y2="27.9835" gradientUnits="userSpaceOnUse">
<stop stop-color="#7BACDC"/>
<stop offset="1" stop-color="#007AC2"/>
</linearGradient>
<linearGradient id="paint2_linear_9176_12133" x1="24.9902" y1="21" x2="24.9902" y2="28" gradientUnits="userSpaceOnUse">
<stop stop-color="#7BACDC"/>
<stop offset="1" stop-color="#007AC2"/>
</linearGradient>
<linearGradient id="paint3_linear_9176_12133" x1="24.9976" y1="20.9994" x2="24.9976" y2="28" gradientUnits="userSpaceOnUse">
<stop stop-color="#7BACDC"/>
<stop offset="1" stop-color="#007AC2"/>
</linearGradient>
<linearGradient id="paint4_linear_9176_12133" x1="24.9944" y1="20.9994" x2="24.9944" y2="28" gradientUnits="userSpaceOnUse">
<stop stop-color="#7BACDC"/>
<stop offset="1" stop-color="#007AC2"/>
</linearGradient>
<linearGradient id="paint5_linear_9176_12133" x1="24.998" y1="21" x2="24.998" y2="28" gradientUnits="userSpaceOnUse">
<stop stop-color="#7BACDC"/>
<stop offset="1" stop-color="#007AC2"/>
</linearGradient>
<linearGradient id="paint6_linear_9176_12133" x1="25.0098" y1="21" x2="25.0098" y2="28" gradientUnits="userSpaceOnUse">
<stop stop-color="#7BACDC"/>
<stop offset="1" stop-color="#007AC2"/>
</linearGradient>
<linearGradient id="paint7_linear_9176_12133" x1="24.9975" y1="21" x2="24.9975" y2="28" gradientUnits="userSpaceOnUse">
<stop stop-color="#7BACDC"/>
<stop offset="1" stop-color="#007AC2"/>
</linearGradient>
<linearGradient id="paint8_linear_9176_12133" x1="26.2113" y1="21" x2="26.2113" y2="26.4046" gradientUnits="userSpaceOnUse">
<stop stop-color="#7BACDC"/>
<stop offset="1" stop-color="#007AC2"/>
</linearGradient>
</defs>
</svg>
