<svg width="50" height="50" viewBox="0 0 50 50" fill="none" xmlns="http://www.w3.org/2000/svg">
<path fill-rule="evenodd" clip-rule="evenodd" d="M41.4227 8.37118C41.5396 8.28355 41.5636 8.11737 41.4763 8C38.425 8.24568 35.8702 8.89069 33.7285 9.43141C32.6344 9.70763 31.6481 9.95663 30.7586 10.1113C30.6906 10.1231 30.5992 10.1426 30.5092 10.1777C30.2799 10.2674 30.0961 10.4977 29.9368 10.6972C29.9112 10.7293 29.8862 10.7606 29.8618 10.7903C29.6137 11.0927 29.5627 11.0874 29.4788 11.0786C25.6409 17.372 20.2068 22.72 15.2319 28.1061C15.1288 28.2177 14.7892 28.5372 14.3103 28.9878C12.1521 31.0183 7.16559 35.7099 8.25695 36.0204L8.27703 36.0261C8.60911 36.1206 8.93539 36.2135 9.33716 36.1636C9.54084 36.1383 9.78504 36.2593 9.93287 36.4625C9.99914 36.5536 10.0624 36.6478 10.1272 36.7462C10.0431 36.6763 9.95912 36.6031 9.87277 36.5279C9.79569 36.4607 9.71677 36.3919 9.63432 36.3225C9.52259 36.2284 9.35605 36.243 9.26234 36.3553C9.16863 36.4675 9.18324 36.6348 9.29497 36.7289C9.36171 36.7851 9.43052 36.8452 9.50144 36.907C9.78875 37.1577 10.0937 37.3791 10.3981 37.6C10.8425 37.9226 11.2855 38.2442 11.6703 38.6546C12.1896 39.2085 12.7628 39.7042 13.3359 40.1997C13.9256 40.7097 14.5153 41.2196 15.0458 41.7927C15.1048 41.8563 15.1974 41.9441 15.3248 41.9868C15.4784 42.0382 15.6456 41.9337 15.6694 41.7743C15.9737 41.6729 16.2766 41.4265 16.4611 41.1711C16.492 41.1283 16.5191 41.0893 16.5437 41.054C18.0876 38.8336 20.6001 36.6319 22.7682 35.0449C22.8308 34.9991 22.8985 34.9514 22.9675 34.9027C23.1413 34.7802 23.3271 34.6493 23.4816 34.5135C23.6383 34.3758 23.7962 34.2464 23.9582 34.1136C24.0404 34.0462 24.1236 33.978 24.2083 33.9074C25.7227 32.6446 27.091 31.2444 28.4585 29.8451C30.4305 27.8273 32.4008 25.8112 34.8051 24.211C35.2018 23.9469 35.6017 23.6895 36.0008 23.4324C37.0736 22.7417 38.1428 22.0532 39.1422 21.243C39.5016 20.9517 39.7505 20.6379 39.9526 20.2176C40.2808 19.5358 40.3732 18.7965 40.4658 18.0561C40.5292 17.5488 40.5927 17.0409 40.7322 16.5507C40.9918 14.5267 41.2203 11.1589 41.2203 8.51466C41.2886 8.47126 41.3542 8.42263 41.4227 8.37118ZM40.0764 17.5001C39.8997 17.49 39.7246 17.4744 39.5518 17.4566C39.5418 17.563 39.5328 17.6718 39.5238 17.7815C39.4838 18.267 39.4419 18.7758 39.3021 19.225C39.2388 19.4285 39.1472 19.6065 39.0572 19.7662C38.5574 20.6537 37.708 21.2989 36.8663 21.9383C36.3736 22.3124 35.8836 22.6846 35.4679 23.1022C35.4116 23.1587 35.3576 23.2169 35.3044 23.2768C35.6876 23.0393 36.0377 22.7574 36.3877 22.4755C36.8103 22.1352 37.2327 21.795 37.7131 21.5334C37.9197 21.4208 38.1197 21.3119 38.3158 21.1923C38.5173 21.0694 38.7132 20.9103 38.9268 20.7354C39.1675 20.5383 39.3374 20.2775 39.477 19.987C39.6117 19.7069 39.7033 19.4079 39.7653 19.1033C39.8001 18.9323 39.8446 18.7643 39.8869 18.6046L39.8943 18.5766C39.9394 18.4058 39.9816 18.2436 40.0128 18.0799C40.0367 17.9546 40.0473 17.8274 40.0578 17.7002C40.0634 17.6334 40.0689 17.5666 40.0764 17.5001ZM25.851 31.5336L21.5477 35.2514C21.2623 35.8095 20.7692 36.2931 20.3186 36.7203C20.4154 36.6646 20.4055 36.6608 20.4848 36.6276L20.5728 36.5392C20.5728 36.5392 21.8823 35.0188 22.6725 34.4624L22.6907 34.4495C23.8072 33.6631 25.851 31.5336 25.851 31.5336ZM21.629 23.0134L27.5295 15.5919C26.9137 16.3937 26.2169 17.1373 25.5896 17.9327L25.5577 17.9732C22.092 22.3636 18.1417 26.0181 14.4386 30.1267C12.644 31.82 10.8437 33.5578 9.7607 34.6085C9.4005 34.9212 9.05547 35.247 8.74121 35.6005C8.74121 35.6005 9.12889 35.2214 9.7607 34.6085C10.0928 34.3201 10.4359 34.0449 10.7783 33.7689C12.1304 32.6816 13.2809 31.411 14.4386 30.1267C16.9943 27.7151 19.2565 25.6055 21.629 23.0134ZM33.3895 14.3758C33.3895 14.5212 33.3079 14.6212 33.227 14.6761C33.1566 14.7238 33.0785 14.7451 33.0272 14.7564C32.9755 14.7678 32.9225 14.7747 32.886 14.7794L32.8848 14.7796L32.8793 14.7803C32.84 14.7854 32.8281 14.7874 32.8281 14.7874C32.7891 14.8012 32.7199 14.8562 32.6322 14.9821C32.5499 15.1003 32.4805 15.2371 32.4239 15.3495L32.4232 15.3509C32.3071 15.5814 32.2408 15.8317 32.1748 16.0813C32.1415 16.2071 32.1082 16.3329 32.0685 16.4559C31.843 17.1562 32.0375 17.8439 32.743 18.1674C32.8618 18.2219 32.9816 18.2827 33.0949 18.3402C33.1532 18.3697 33.2096 18.3984 33.2633 18.4249C34.1258 18.8499 34.8834 18.7424 35.5275 17.9757C35.9001 17.532 36.1659 16.8707 36.0747 16.3322C36.0242 16.0342 35.9332 15.7888 35.8254 15.498C35.8025 15.4362 35.7787 15.372 35.7545 15.3051C35.7467 15.2834 35.72 15.2439 35.6509 15.174C35.6384 15.1613 35.6226 15.1459 35.6051 15.1289C35.5494 15.0746 35.4978 15.0004 35.4451 14.9245C35.3485 14.7853 35.248 14.6405 35.1101 14.6025C34.9307 14.5531 34.7602 14.48 34.5897 14.4069C34.4907 14.3645 34.3916 14.322 34.2908 14.2842C34.2079 14.2531 34.1107 14.2055 34.0313 14.1667C33.9944 14.1486 33.9614 14.1324 33.9354 14.1207C33.8325 14.0741 33.7567 14.0517 33.6871 14.0517C33.6145 14.0517 33.5422 14.0566 33.4639 14.0632C33.4682 14.104 33.463 14.1463 33.4472 14.1871L33.4429 14.198C33.4017 14.3041 33.3895 14.3354 33.3895 14.3758ZM24.1029 18.9523C24.5118 18.3567 24.9982 17.8215 25.4846 17.2901C26.1853 16.5247 26.9028 15.7409 27.3635 14.8438C27.3414 14.8753 27.3197 14.9077 27.2965 14.9423C24.1128 19.1889 20.2009 22.7719 17.0395 27.0655C19.0971 24.2762 21.8235 22.0738 23.8776 19.2738C23.955 19.1683 24.0289 19.0603 24.1029 18.9523Z" fill="#6965DB"/>
<path fill-rule="evenodd" clip-rule="evenodd" d="M8.27683 8.7072C8.13839 8.70034 8.01689 8.803 8.00159 8.94322C7.99023 9.04734 8.04051 9.14398 8.12309 9.19643C8.19921 9.30761 8.27413 9.41503 8.34636 9.52169C8.31191 9.68315 8.3722 9.88208 8.39048 10.0432C8.43648 10.4487 8.48138 10.8445 8.49947 11.2442C8.51211 11.5235 8.58462 11.8454 8.75786 12.105C8.82168 12.2006 8.87732 12.2965 8.93061 12.3952C8.95093 12.6879 8.96054 13.0228 9.05109 13.3621C9.54954 15.23 10.1236 17.0935 10.5152 18.9879C10.5268 19.0442 10.546 19.1371 10.5732 19.2128C10.6104 19.3162 10.6864 19.4658 10.8556 19.5422C10.8556 19.5422 13.9084 21.938 15.4177 23.3742C15.6054 23.5528 15.9945 23.6764 16.255 23.6657C16.3554 23.6616 16.4918 23.6396 16.6015 23.5652C19.3406 20.9802 22.5451 15.8171 22.5451 15.8171C22.6483 15.7135 22.6483 15.5456 22.5451 15.442C22.3723 15.2684 22.1599 15.08 21.9612 14.9276C20.7141 13.9711 19.4021 12.6851 18.4423 11.4181C18.3092 11.2423 18.1994 11.1099 18.1069 10.9499C18.0084 10.7795 17.884 10.6169 17.7053 10.4858C17.6451 10.4417 17.5811 10.425 17.5414 10.4174C15.1931 9.96625 12.3876 10.1272 9.7408 9.18805C9.32719 8.9554 8.7662 8.68276 8.27683 8.7072ZM9.87182 13.1078C9.78531 12.2649 9.39683 11.0613 9.47763 10.2549C9.48218 10.2095 9.49555 10.167 9.51652 10.1288C9.51439 10.1283 9.51222 10.1277 9.51002 10.1272C9.45073 10.1119 9.33657 10.0866 9.24611 10.0418C9.22151 10.0296 9.19154 10.0144 9.1583 9.99721C9.1595 10.0087 9.16223 10.036 9.16142 10.064C9.12793 11.2128 9.47958 12.0764 9.87182 13.1078ZM17.9231 11.6103C17.405 11.4105 16.915 11.0108 16.3673 10.9262C16.2625 10.91 16.1581 10.8907 16.0541 10.8688H16.5265C16.9484 10.8688 17.421 10.8197 17.6502 11.2163C17.7334 11.3601 17.8313 11.4909 17.9231 11.6103Z" fill="#6965DB"/>
<path fill-rule="evenodd" clip-rule="evenodd" d="M34.1857 27.4549C34.2957 27.3587 34.4625 27.3703 34.5582 27.4808C34.6212 27.5535 34.6997 27.6598 34.7498 27.7221C35.7685 28.991 36.8762 30.2232 37.9208 31.4752C37.9596 31.5218 38.0898 31.6863 38.1438 31.6992C38.1438 31.6992 40.3758 33.9519 41.477 35.5889L41.4794 35.5902C41.6542 35.6822 41.7851 35.8292 41.9227 35.9673C42.0258 36.0709 42.0258 36.2388 41.9227 36.3424C40.7412 37.5293 39.1216 38.9457 38.2787 40.3825C38.2219 40.4794 38.1833 40.5858 38.1273 40.6833C38.0611 40.7986 37.9579 40.8618 37.8876 40.8972C37.8229 40.9297 37.7348 40.9613 37.709 40.9719C37.5183 41.0499 37.3478 41.2046 37.1621 41.3024C36.9872 41.3944 36.7824 41.3984 36.6148 41.2875C36.4799 41.1983 36.3916 41.0556 36.3327 40.9465C36.1226 40.5578 35.3928 40.0998 35.0285 39.8757C34.8111 39.742 34.6306 39.6132 34.4327 39.4457C34.3406 39.3678 34.2476 39.2926 34.152 39.2153C34.1188 39.1884 34.0853 39.1613 34.0514 39.1338C34.0029 39.0943 33.9541 39.0548 33.9052 39.0152C32.221 37.6505 30.6657 35.9806 28.9003 34.747C28.8305 34.6982 28.7592 34.6609 28.664 34.6074C28.5746 34.5571 28.4696 34.4951 28.3698 34.4083C28.29 34.3388 28.1982 34.2733 28.096 34.2042C28.049 34.1724 27.998 34.1387 27.9462 34.1039C27.8868 34.0965 27.8296 34.0688 27.7856 34.0214C27.6854 33.9131 27.6259 33.7508 27.7206 33.6189C27.7746 33.5438 27.8604 33.5054 27.9461 33.509C28.3503 33.1305 28.7566 32.7494 29.2042 32.4224C29.1419 32.2948 29.2116 32.1724 29.2674 32.0582C29.2107 32.0542 29.1548 32.0318 29.1093 31.9906C29.001 31.8925 28.9924 31.7248 29.09 31.616C29.202 31.4913 29.3148 31.3623 29.4293 31.2314C30.6259 29.8628 32.092 28.4363 33.8217 27.8109C33.9198 27.7754 34.007 27.7114 34.095 27.6564C34.0947 27.5818 34.1254 27.5076 34.1857 27.4549ZM36.7844 40.2533C36.8079 40.1362 36.8305 39.9516 36.713 39.88C36.6866 39.8639 36.6532 39.8452 36.6167 39.821C35.5537 39.4739 34.7422 38.1975 33.8045 37.5569C34.6152 38.4243 35.3632 39.1549 36.291 39.9287C36.3252 39.9573 36.3578 39.9844 36.3887 40.0094C36.527 40.1211 36.6491 40.2053 36.7844 40.2533ZM29.2002 33.9519C29.1932 34.0363 29.2265 34.1227 29.2969 34.1801C29.398 34.2626 29.4573 34.353 29.5312 34.4665C29.574 34.5325 29.6185 34.6009 29.6643 34.6694C29.519 34.5401 29.3561 34.4194 29.2018 34.3116C29.1046 34.2436 29 34.1884 28.922 34.1446C28.8382 34.0974 28.7726 34.057 28.7157 34.0075C28.6216 33.9256 28.5206 33.8528 28.4241 33.7868C29.0938 33.1616 29.8103 32.4115 30.546 31.8776C30.2625 32.2025 29.1681 33.5687 29.2002 33.9519Z" fill="#6965DB"/>
</svg>
