<svg width="50" height="50" viewBox="0 0 50 50" fill="none" xmlns="http://www.w3.org/2000/svg">
<path d="M15.1976 6.88889C15.1976 5.2934 16.4515 4 17.9982 4H27.2205C27.5919 4 27.948 4.15218 28.2106 4.42307L34.392 10.7992C34.6546 11.07 34.8021 11.4374 34.8021 11.8205V27.1111C34.8021 28.7066 33.5482 30 32.0015 30H17.9982C16.4515 30 15.1976 28.7066 15.1976 27.1111V6.88889Z" fill="white"/>
<path fill-rule="evenodd" clip-rule="evenodd" d="M27.2205 4C27.5919 4 27.948 4.15218 28.2106 4.42307L34.392 10.7992C34.6546 11.07 34.8021 11.4374 34.8021 11.8205V27.1111C34.8021 28.7066 33.5482 30 32.0015 30H17.9982C16.4515 30 15.1976 28.7066 15.1976 27.1111V6.88889C15.1976 5.2934 16.4515 4 17.9982 4H27.2205ZM27.1003 9.05556C27.1003 10.651 28.3542 11.9444 29.901 11.9444H34.1019V27.1111C34.1019 28.3077 33.1615 29.2778 32.0015 29.2778H17.9982C16.8382 29.2778 15.8977 28.3077 15.8977 27.1111V6.88889C15.8977 5.69227 16.8382 4.72222 17.9982 4.72222H27.1003V9.05556ZM27.8005 9.05556C27.8005 10.2522 28.7409 11.2222 29.901 11.2222H33.8119L27.8005 5.02141V9.05556Z" fill="#AEB7CC"/>
<path d="M35.5157 25.9073C36.3323 25.9064 36.9991 25.2132 37 24.4027V16.8193C36.9991 16.0088 36.3323 15.3156 35.5157 15.3147H14.4843C13.6677 15.3156 13.0009 16.0088 13 16.8193V24.4027C13.0009 25.2132 13.6677 25.9064 14.4843 25.9073H35.5157ZM29.2437 17.6128L30.7226 21.9971L32.1536 17.6128H33.4046L31.312 23.5373H30.0524L27.9637 17.6128H29.2437ZM24.8581 20.9422C23.9563 20.7157 22.9784 20.2154 22.9886 19.1643C22.9884 18.0188 24.1222 17.4852 25.1215 17.5111C26.2236 17.5111 27.3645 18.0516 27.3616 19.3052L26.1818 19.3576C26.1292 18.7968 25.6564 18.4607 25.1096 18.5011C24.7452 18.48 24.1062 18.6117 24.117 19.083C24.1183 19.6555 24.9693 19.7412 25.3766 19.8386C26.4359 20.058 27.5593 20.5569 27.5287 21.8217C27.4979 23.0977 26.3216 23.6751 25.1891 23.6408C23.9359 23.6408 22.8614 22.9436 22.7775 21.6082L23.9256 21.4953C24.0008 22.1566 24.5199 22.6677 25.2011 22.6308C25.7069 22.6681 26.34 22.3859 26.3492 21.8145C26.3657 21.1364 25.3256 21.06 24.8581 20.9422ZM19.6672 17.5116C20.765 17.4645 21.7523 18.1753 22.0072 19.245L20.8392 19.5271C20.7301 18.9457 20.2019 18.5101 19.6075 18.5331C18.4918 18.4969 18.1485 19.6224 18.1485 20.5375C18.1485 21.4514 18.441 22.6483 19.5834 22.6144C20.2905 22.6285 20.7703 22.0084 20.8788 21.3579L22.0228 21.7255C21.7687 22.8735 20.7811 23.6848 19.5952 23.6362C17.9004 23.6894 16.9327 22.1699 16.9327 20.6259C16.9329 19.0232 17.8894 17.4395 19.6672 17.5116Z" fill="#A36BAE"/>
<path d="M9.3418 42.2334V43H5.57715V42.2334H9.3418ZM5.76758 35.8906V43H4.8252V35.8906H5.76758ZM8.84375 38.9473V39.7139H5.57715V38.9473H8.84375ZM9.29297 35.8906V36.6621H5.57715V35.8906H9.29297Z" fill="black"/>
<path d="M10.9824 37.7168L12.1396 39.6406L13.3115 37.7168H14.3711L12.6426 40.3242L14.4248 43H13.3799L12.1592 41.0176L10.9385 43H9.88867L11.666 40.3242L9.94238 37.7168H10.9824Z" fill="black"/>
<path d="M16.2363 38.7324V45.0312H15.3281V37.7168H16.1582L16.1973 38.2246L16.2363 38.7324ZM19.7959 40.3145C19.7959 41.5927 19.255 43.0977 17.7451 43.0977C16.4051 43.0977 15.7143 42.1738 15.5576 40.6855C15.5576 39.2821 16.0411 37.6191 17.7305 37.6191C19.0514 37.6191 19.7959 38.6897 19.7959 40.3145ZM18.8877 40.417C18.8877 39.5022 18.5415 38.3809 17.4668 38.3809C16.637 38.3809 16.1469 39.0333 15.9971 39.7822V41.0469C16.2061 41.7784 16.6795 42.3555 17.4766 42.3555C18.4767 42.3555 18.8877 41.4514 18.8877 40.417Z" fill="black"/>
<path d="M23.1406 43.0977C21.6804 43.0977 20.7139 42.0356 20.7139 40.5439C20.7139 39.1562 21.4117 37.6191 23.0234 37.6191C24.7795 37.6191 25.1963 39.1566 25.1963 40.6123H21.251V39.875H24.293C24.293 39.107 23.8702 38.3613 23.0234 38.3613C21.8921 38.3613 21.6221 39.6254 21.6221 40.5439C21.6221 41.4612 22.1821 42.3604 23.1895 42.3604C23.8275 42.3604 24.249 42.0788 24.5811 41.6426L25.1279 42.0771C24.7874 42.5928 24.1933 43.0977 23.1406 43.0977Z" fill="black"/>
<path d="M27.1543 38.8447V43H26.251V37.7168H27.1055L27.1543 38.8447ZM26.9395 40.1582L26.5635 40.1436C26.57 39.4175 26.7882 38.7905 27.1641 38.3369C27.5445 37.8778 28.0786 37.6191 28.7119 37.6191C29.8834 37.6191 30.4062 38.4763 30.4062 39.5381V43H29.498V39.5283C29.498 38.6872 29.1197 38.3809 28.4434 38.3809C27.5625 38.3809 26.9395 39.1864 26.9395 40.1582Z" fill="black"/>
<path d="M34.8545 41.5986C34.8545 40.9638 34.1504 40.786 33.6387 40.6855C32.4849 40.442 31.7344 40.0429 31.7344 39.1621C31.7344 38.1529 32.7922 37.6191 33.6924 37.6191C34.958 37.6191 35.7041 38.3557 35.7041 39.2695H34.8008C34.8008 38.8304 34.411 38.3613 33.6924 38.3613C32.9559 38.3613 32.6426 38.7405 32.6426 39.1377C32.6426 39.5193 32.8551 39.7287 33.8584 39.9531C35.1572 40.2461 35.7578 40.6807 35.7578 41.5303C35.7578 42.6214 34.6588 43.0977 33.7168 43.0977C32.7019 43.0977 31.5537 42.5039 31.5537 41.3691H32.4619C32.497 42.0357 33.0944 42.3555 33.7168 42.3555C34.4674 42.3555 34.8545 42.0356 34.8545 41.5986Z" fill="black"/>
<path d="M39.1367 43.0977C37.6778 43.0977 36.71 41.9355 36.71 40.5439C36.71 39.1562 37.4078 37.6191 39.0195 37.6191C40.7844 37.6191 41.1924 39.1672 41.1924 40.6123H37.2471V39.875H40.2891C40.2891 39.0893 39.8545 38.3613 39.0195 38.3613C37.8547 38.3613 37.6182 39.6294 37.6182 40.5439C37.6182 41.5479 38.2084 42.3604 39.1855 42.3604C39.8236 42.3604 40.2451 42.0788 40.5771 41.6426L41.124 42.0771C40.7835 42.5928 40.1894 43.0977 39.1367 43.0977Z" fill="black"/>
<path d="M45.3232 41.5986C45.3232 41.2059 45.1531 40.8908 44.1074 40.6855C42.9536 40.442 42.2031 40.0429 42.2031 39.1621C42.2031 38.3197 42.9849 37.6191 44.1611 37.6191C45.4268 37.6191 46.1729 38.3557 46.1729 39.2695H45.2695C45.2695 38.6859 44.6793 38.3613 44.1611 38.3613C43.4247 38.3613 43.1113 38.7405 43.1113 39.1377C43.1113 39.5193 43.3238 39.7287 44.3271 39.9531C45.626 40.2461 46.2266 40.6807 46.2266 41.5303C46.2266 42.4375 45.452 43.0977 44.1855 43.0977C43.1742 43.0977 42.0225 42.524 42.0225 41.3691H42.9307C42.9664 42.0477 43.5751 42.3555 44.1855 42.3555C44.9362 42.3555 45.3232 42.0356 45.3232 41.5986Z" fill="black"/>
</svg>
