<svg width="50" height="50" viewBox="0 0 50 50" fill="none" xmlns="http://www.w3.org/2000/svg">
<path d="M18.6001 34.2001H31.4001V30.4001H23.2801V26.8401H30.2001V22.9601H23.2801V19.5601H31.4001V15.8H18.6001V34.2001Z" fill="#0B1B34"/>
<path d="M40.9999 25C40.9999 28.84 39.6399 32.36 37.3999 35.12L40.2399 37.96C43.1999 34.48 44.9999 29.96 44.9999 25C44.9999 20.12 43.2399 15.64 40.3599 12.2L37.5199 15.04C39.6799 17.76 40.9999 21.24 40.9999 25Z" fill="#03D47C"/>
<path d="M35.1202 37.4C32.3602 39.64 28.8402 41 25.0002 41C21.2402 41 17.7602 39.68 15.0402 37.52L12.2002 40.36C15.6802 43.28 20.1602 45 25.0002 45C29.9602 45 34.4802 43.2 37.9602 40.24L35.1202 37.4Z" fill="#0185FF"/>
<path d="M12.72 35.28C10.4 32.48 9 28.92 9 25C9 16.16 16.16 9 25 9C28.92 9 32.48 10.4 35.28 12.72L38.12 9.88C34.6 6.84 30 5 25 5C13.96 5 5 13.96 5 25C5 30 6.84 34.6 9.88 38.12L12.72 35.28Z" fill="#FED607"/>
</svg>
