<svg width="50" height="50" viewBox="0 0 50 50" fill="none" xmlns="http://www.w3.org/2000/svg">
<rect width="50" height="50" fill="#050505"/>
<path d="M24.0634 26.3727C24.7074 28.2576 25.2089 29.987 25.9034 31.6363C26.3312 32.6589 27.2834 33.0783 28.4011 33.05C30.8068 33.0029 33.2078 33.05 35.7009 33.05C35.4755 34.8076 35.2179 36.5229 34.0864 37.8706C33.647 38.3626 33.046 38.6713 32.3983 38.7376C29.6384 38.8554 24.1187 38.879 24.1187 38.879C23.3676 38.9615 22.6483 38.5066 22.3708 37.8093C22.048 37.0827 21.8192 36.316 21.6901 35.5286C21.2821 32.9032 21.5468 30.2143 22.4582 27.7252C22.7894 26.8817 23.3689 26.368 24.0634 26.3727Z" fill="white"/>
<path d="M14.6201 27.499C14.0668 27.5586 13.5125 27.1752 13.3597 26.6272C12.5962 24.5209 12.8078 22.4145 13.5345 20.3647C13.7776 19.9163 14.2127 19.5881 14.7029 19.4835C16.6072 19.1159 18.5298 18.8285 20.4571 18.5976C20.8569 18.5907 21.2496 18.7927 21.4829 19.1254C21.8066 19.8794 22.0041 20.6838 22.067 21.505C22.1192 22.5708 22.0699 23.6392 21.9199 24.6952C21.4327 28.3735 17.4406 27.499 14.6201 27.499Z" fill="white"/>
<path d="M37.3567 31.3253C38.8608 31.4148 39.7716 30.6561 40.3787 29.3791C41.4265 27.1704 41.7146 24.8464 41.6602 22.4876C41.6182 20.6866 41.3956 18.9206 40.7652 17.2216C40.5122 16.4818 40.0155 15.8692 39.0725 16.0106C35.5997 16.5384 32.1269 17.0709 28.6541 17.5798C27.9512 17.6231 27.3062 18.114 27.0626 18.7908C26.6121 20.0102 26.2839 21.2732 26.0828 22.5606C25.951 23.6802 25.856 24.8042 25.8814 25.9229C25.9085 27.1051 26.0701 28.2815 26.4645 29.4404C26.9705 30.9153 27.5822 31.3771 29.0864 31.3771C31.7025 31.3471 34.361 31.1784 36.9772 31.309C37.1038 31.3138 37.2303 31.3193 37.3567 31.3253Z" fill="white"/>
<path d="M11.9937 12.5235C10.6673 12.652 9.34845 12.8517 8.04253 13.1219C7.68835 13.1926 7.17318 13.5932 7.12258 13.8853C7.00435 14.9358 6.94486 15.9922 6.94434 17.0493C6.94441 17.2717 6.9471 17.4941 6.95239 17.7164C6.96619 18.4563 7.48596 18.7673 8.22652 18.7013C8.44755 18.6851 8.6878 18.6879 8.93919 18.6986C10.2346 18.7281 11.8028 19.0355 12.6147 17.9379C13.0283 17.0993 13.2381 16.1657 13.2398 15.2314C13.2384 14.4854 13.1043 13.7396 12.8355 13.0418C12.66 12.7403 12.336 12.5408 11.9937 12.5235Z" fill="white"/>
</svg>
