<svg width="50" height="50" viewBox="0 0 50 50" fill="none" xmlns="http://www.w3.org/2000/svg">
<path d="M23.8857 40C22.158 39.8559 21.2794 37.0308 21.3673 33.5428C21.4844 29.9682 22.2165 26.6819 24.0029 26.3937L24.7057 26.3072C25.0864 30.4583 26.4627 33.4563 28.7469 33.6869L37.9422 33.6292C37.5029 37.5497 36.0387 39.7982 34.4281 39.9712L23.8857 40Z" fill="white"/>
<path d="M23.8857 40C22.158 39.8559 21.2794 37.0308 21.3673 33.5428C21.4844 29.9682 22.2165 26.6819 24.0029 26.3937L24.7057 26.3072C25.0864 30.4583 26.4627 33.4563 28.7469 33.6869L37.9422 33.6292C37.5029 37.5497 36.0387 39.7982 34.4281 39.9712L23.8857 40Z" fill="#ADAFB2"/>
<path d="M12.9041 27.5756C11.7913 27.4603 11.2057 25.6442 11.2935 23.3956C11.3814 21.0895 11.8499 18.9851 12.992 18.7833L20.2252 17.7455C20.3131 17.7167 20.4009 17.6879 20.4888 17.6879C21.5137 17.6879 22.2165 19.7634 22.0701 22.6173C21.9237 25.6442 20.8695 27.4026 19.7567 27.5179L12.9041 27.5756Z" fill="white"/>
<path d="M12.9041 27.5756C11.7913 27.4603 11.2057 25.6442 11.2935 23.3956C11.3814 21.0895 11.8499 18.9851 12.992 18.7833L20.2252 17.7455C20.3131 17.7167 20.4009 17.6879 20.4888 17.6879C21.5137 17.6879 22.2165 19.7634 22.0701 22.6173C21.9237 25.6442 20.8695 27.4026 19.7567 27.5179L12.9041 27.5756Z" fill="#ADAFB2"/>
<path d="M5.14365 17.8897C4.35298 17.832 3.97228 16.5636 4.00157 14.9781C4.06014 13.3638 4.38226 11.8936 5.17294 11.7495L10.2391 11.0288C10.2977 11 10.3563 11 10.4148 11C11.1469 11 11.6155 12.4702 11.4983 14.4304C11.3812 16.5348 10.6784 17.7744 9.85842 17.8608L5.14365 17.8897Z" fill="white"/>
<path d="M5.14365 17.8897C4.35298 17.832 3.97228 16.5636 4.00157 14.9781C4.06014 13.3638 4.38226 11.8936 5.17294 11.7495L10.2391 11.0288C10.2977 11 10.3563 11 10.4148 11C11.1469 11 11.6155 12.4702 11.4983 14.4304C11.3812 16.5348 10.6784 17.7744 9.85842 17.8608L5.14365 17.8897Z" fill="#ADAFB2"/>
<path d="M29.274 31.7843C27.3412 31.6113 26.3748 28.498 26.4919 24.6351C26.6384 20.6858 27.429 17.0536 29.3911 16.7077L41.8076 14.9493C41.954 14.8916 42.1297 14.8628 42.2762 14.8628C44.0332 14.8628 45.2046 18.4373 44.9703 23.3091C44.736 28.498 42.9204 31.5248 40.9876 31.6978L29.274 31.7843Z" fill="white"/>
<path d="M29.274 31.7843C27.3412 31.6113 26.3748 28.498 26.4919 24.6351C26.6384 20.6858 27.429 17.0536 29.3911 16.7077L41.8076 14.9493C41.954 14.8916 42.1297 14.8628 42.2762 14.8628C44.0332 14.8628 45.2046 18.4373 44.9703 23.3091C44.736 28.498 42.9204 31.5248 40.9876 31.6978L29.274 31.7843Z" fill="#126B95"/>
</svg>
