<svg width="50" height="50" viewBox="0 0 50 50" fill="none" xmlns="http://www.w3.org/2000/svg">
<path fill-rule="evenodd" clip-rule="evenodd" d="M10.0186 33.3097C10.0186 25.6901 10.0186 18.0704 10.0186 10.4508C10.0186 9.74526 10.1393 9.49984 10.9453 9.50597C20.3 9.5346 29.6569 9.5346 39.0159 9.50597C39.841 9.50597 40.0503 9.71462 40.0186 10.4876C39.9509 11.9396 39.9509 13.3935 40.0186 14.8495C40.0503 15.5857 39.7711 15.7208 39.0793 15.7146C31.9014 15.7146 24.7235 15.7146 17.5456 15.7146C16.6825 15.7146 16.4096 15.8741 16.4286 16.7575C16.4857 20.2852 16.4286 23.8189 16.4286 27.3465C16.4286 27.6594 16.5111 27.9968 16.2318 28.2668L10.0186 34.2176V33.3097Z" fill="#5F2E88"/>
<path fill-rule="evenodd" clip-rule="evenodd" d="M10.2598 34.2545H11.0404C20.3486 34.2545 29.6696 34.2545 39.0032 34.2545C39.7331 34.2545 40.025 34.3834 39.987 35.1625C39.9235 36.7024 39.987 38.23 39.987 39.7821C39.987 40.2913 39.898 40.5183 39.2888 40.5183C31.838 40.5183 24.3872 40.5183 16.9364 40.5183C16.816 40.5374 16.6929 40.532 16.5749 40.5024C16.4568 40.4729 16.3465 40.4197 16.2509 40.3465L10.1075 34.5367C10.1583 34.457 10.209 34.3711 10.2662 34.2914L10.2598 34.2545Z" fill="#5F2E88"/>
<path fill-rule="evenodd" clip-rule="evenodd" d="M29.2295 21.8558C31.1334 21.8558 33.0946 21.8558 35.0239 21.8558C35.5824 21.8558 35.7664 22.003 35.7537 22.5552C35.7537 24.1871 35.7537 25.8128 35.7537 27.4631C35.7537 27.9846 35.5698 28.0766 35.0684 28.0766C31.2097 28.0766 27.3447 28.0766 23.486 28.0766C22.9719 28.0766 22.7942 27.9478 22.8005 27.4631C22.8344 25.8271 22.8344 24.1911 22.8005 22.5552C22.8005 22.003 22.9655 21.8436 23.5303 21.8558C25.4343 21.8865 27.3382 21.8558 29.2422 21.8558H29.2295Z" fill="#5F2E88"/>
</svg>
