<svg width="50" height="50" viewBox="0 0 50 50" fill="none" xmlns="http://www.w3.org/2000/svg">
<rect width="50" height="50" fill="#5F2E88"/>
<path fill-rule="evenodd" clip-rule="evenodd" d="M12.0195 8.23686C12.0195 7.69106 12.1201 7.5012 12.7917 7.50595C20.5866 7.52809 28.3832 7.52809 36.1815 7.50595C36.869 7.50595 37.0434 7.66736 37.017 8.26537C36.9606 9.38861 36.9606 10.5134 37.017 11.6398C37.0434 12.2093 36.8108 12.3138 36.2344 12.309C30.2534 12.309 24.2724 12.309 18.2914 12.309C17.5722 12.309 17.3448 12.4324 17.3607 13.1159C17.4083 15.8449 17.3607 18.5786 17.3607 21.3076C17.3607 21.5497 17.4294 21.8107 17.1967 22.0195L12.0195 26.6232C12.0195 20.4944 12.0195 14.3656 12.0195 8.23686Z" fill="white"/>
<path fill-rule="evenodd" clip-rule="evenodd" d="M36.171 26.6517C36.7791 26.6517 37.0224 26.7514 36.9907 27.3541C36.9378 28.5454 36.9907 29.7272 36.9907 30.928C36.9907 31.3219 36.9166 31.4975 36.4089 31.4975C30.2005 31.4975 23.9922 31.4975 17.7838 31.4975C17.5833 31.527 17.3719 31.4778 17.2126 31.3646L12.0936 26.87C12.1359 26.8083 12.2258 26.6802 12.2258 26.6802L36.171 26.6517Z" fill="white"/>
<path fill-rule="evenodd" clip-rule="evenodd" d="M32.8552 17.0599C33.3206 17.0599 33.4739 17.1738 33.4633 17.6009C33.4633 18.8634 33.4633 20.1211 33.4633 21.3978C33.4633 21.8012 33.3101 21.8724 32.8923 21.8724C29.677 21.8724 26.4565 21.8724 23.2413 21.8724C22.8129 21.8724 22.6648 21.7728 22.6701 21.3978C22.6983 20.1322 22.6983 18.8666 22.6701 17.6009C22.6701 17.1738 22.8075 17.0505 23.2782 17.0599C26.4694 17.1077 29.6636 17.0599 32.8552 17.0599Z" fill="white"/>
<path d="M27.6961 36.1622V40.7108H26.9418V36.1622H27.6961Z" fill="white"/>
<path d="M26.885 34.9557C26.885 34.7014 27.0374 34.5059 27.3271 34.5059C27.616 34.5059 27.7732 34.7055 27.7732 34.9557C27.7732 35.1927 27.6186 35.3929 27.3271 35.3929C27.0348 35.3929 26.885 35.1965 26.885 34.9557Z" fill="white"/>
<path d="M29.6508 37.4647V40.7108H28.9006V36.1622H29.6103L29.6339 36.7281C29.9505 36.3144 30.4045 36.0781 30.9445 36.0781C31.9175 36.0781 32.3517 36.8161 32.3517 37.7302V40.7108H31.5974V37.7218C31.5974 36.9976 31.2832 36.7339 30.7215 36.7339C30.2443 36.7339 29.8636 37.026 29.6508 37.4647Z" fill="white"/>
<path fill-rule="evenodd" clip-rule="evenodd" d="M35.3122 40.7949C36.1865 40.7949 36.6799 40.3602 36.9628 39.9163L36.5085 39.5421C36.2328 39.9177 35.8827 40.1601 35.3528 40.1601C34.5422 40.1601 34.0704 39.4262 34.0517 38.6551H37.0195C37.0195 37.4481 36.6211 36.0781 35.2149 36.0781C33.9304 36.0781 33.2967 37.4012 33.2967 38.5962C33.2967 39.8805 34.0994 40.7949 35.3122 40.7949ZM34.0736 38.0203C34.1759 37.1774 34.6246 36.7171 35.2149 36.7171C35.8978 36.7171 36.2693 37.3753 36.2693 38.0203H34.0736Z" fill="white"/>
<path fill-rule="evenodd" clip-rule="evenodd" d="M25.7414 36.1622H25.0601L25.0251 36.6697L25.0195 36.6625C24.7338 36.2824 24.3236 36.0781 23.7705 36.0781C22.5378 36.0781 22.0388 37.3654 22.0388 38.4869C22.0388 39.8067 22.7195 40.7949 23.7624 40.7949C24.3025 40.7949 24.7064 40.6023 24.9911 40.2508V40.6519C24.9911 41.4451 24.5397 41.8669 23.8272 41.8669C23.4347 41.8669 23.021 41.7153 22.6512 41.2531L22.2578 41.7155C22.6135 42.2423 23.2791 42.5059 23.884 42.5059C24.9817 42.5059 25.7414 41.8149 25.7414 40.6141V36.1622ZM24.9911 37.3958V39.4515C24.797 39.8468 24.482 40.1349 23.9448 40.1349C23.133 40.1349 22.789 39.3991 22.789 38.4869C22.789 37.7077 23.0301 36.7339 23.953 36.7339C24.4764 36.7339 24.8019 37.0137 24.9911 37.3958Z" fill="white"/>
<path d="M18.3598 36.7281L18.3362 36.1622H17.6265V40.7108H18.3767V37.4647C18.5895 37.026 18.9702 36.7339 19.4474 36.7339C20.0091 36.7339 20.3233 36.9976 20.3233 37.7218V40.7108H21.0777V37.7302C21.0777 36.8161 20.6434 36.0781 19.6704 36.0781C19.1304 36.0781 18.6764 36.3144 18.3598 36.7281Z" fill="white"/>
<path d="M16.7708 40.7108V40.0508H13.8022V37.8816H16.3571V37.2216H13.8022V35.2542H16.7302V34.5899H13.0195V40.7108H16.7708Z" fill="white"/>
</svg>
