<svg width="50" height="50" viewBox="0 0 50 50" fill="none" xmlns="http://www.w3.org/2000/svg">
<rect width="50" height="50" fill="#5F2E88"/>
<path fill-rule="evenodd" clip-rule="evenodd" d="M12.0195 8.82866C12.0195 8.28286 12.1201 8.093 12.7917 8.09774C20.5866 8.11989 28.3832 8.11989 36.1815 8.09774C36.869 8.09774 37.0434 8.25916 37.017 8.85716C36.9606 9.9804 36.9606 11.1052 37.017 12.2316C37.0434 12.8011 36.8108 12.9056 36.2344 12.9008C30.2534 12.9008 24.2724 12.9008 18.2914 12.9008C17.5722 12.9008 17.3448 13.0242 17.3607 13.7076C17.4083 16.4366 17.3607 19.1704 17.3607 21.8994C17.3607 22.1414 17.4294 22.4025 17.1967 22.6113L12.0195 27.215C12.0195 21.0862 12.0195 14.9574 12.0195 8.82866Z" fill="white"/>
<path fill-rule="evenodd" clip-rule="evenodd" d="M36.171 27.2435C36.7791 27.2435 37.0224 27.3432 36.9907 27.9459C36.9378 29.1372 36.9907 30.319 36.9907 31.5198C36.9907 31.9137 36.9166 32.0893 36.4089 32.0893C30.2005 32.0893 23.9922 32.0893 17.7838 32.0893C17.5833 32.1188 17.3719 32.0696 17.2126 31.9564L12.0936 27.4618C12.1359 27.4001 12.2258 27.272 12.2258 27.272L36.171 27.2435Z" fill="white"/>
<path fill-rule="evenodd" clip-rule="evenodd" d="M32.8552 17.6517C33.3206 17.6517 33.4739 17.7656 33.4633 18.1927C33.4633 19.4552 33.4633 20.7129 33.4633 21.9896C33.4633 22.393 33.3101 22.4642 32.8923 22.4642C29.677 22.4642 26.4565 22.4642 23.2413 22.4642C22.8129 22.4642 22.6648 22.3646 22.6701 21.9896C22.6983 20.724 22.6983 19.4584 22.6701 18.1927C22.6701 17.7656 22.8075 17.6422 23.2782 17.6517C26.4694 17.6995 29.6636 17.6517 32.8552 17.6517Z" fill="white"/>
<path d="M20.22 35.0977V42.0077H19.4788V35.0977H20.22Z" fill="white"/>
<path fill-rule="evenodd" clip-rule="evenodd" d="M33.3066 41.482L33.3421 42.0077H34.0195V35.0977H33.2783V37.6308C32.9989 37.2534 32.6062 37.0501 32.0829 37.0501C30.8954 37.0501 30.3774 38.372 30.3774 39.5334C30.3774 40.6995 30.8934 42.0977 32.0749 42.0977C32.6212 42.0977 33.0258 41.8796 33.3066 41.482ZM33.2783 38.4515V40.6776C33.0875 41.093 32.7817 41.3914 32.2582 41.3914C31.386 41.3914 31.1186 40.3713 31.1186 39.5334C31.1186 38.7198 31.4085 37.7519 32.2662 37.7519C32.7821 37.7519 33.0928 38.0498 33.2783 38.4515Z" fill="white"/>
<path d="M28.7163 41.5261L28.7316 42.0077H29.4369V37.1401H28.6958V40.6793C28.5292 41.1134 28.1809 41.3914 27.572 41.3914C27.1748 41.3914 26.779 41.1628 26.779 40.2892V37.1401H26.0418V40.2802C26.0418 41.584 26.6263 42.0977 27.4565 42.0977C28.0388 42.0977 28.4487 41.8854 28.7163 41.5261Z" fill="white"/>
<path fill-rule="evenodd" clip-rule="evenodd" d="M21.2082 39.6279C21.2082 40.9363 21.9748 42.0977 23.1727 42.0977C24.3698 42.0977 25.1333 40.9332 25.1333 39.6279C25.1333 38.3222 24.427 37.0501 23.1648 37.0501C21.9203 37.0501 21.2082 38.3011 21.2082 39.6279ZM21.9454 39.6279C21.9454 38.7795 22.269 37.7339 23.1648 37.7339C24.0468 37.7339 24.3921 38.7615 24.3921 39.6279C24.3921 40.4714 24.0087 41.4139 23.1727 41.4139C22.3509 41.4139 21.9454 40.5925 21.9454 39.6279Z" fill="white"/>
<path d="M18.4826 39.9248H17.7175C17.5904 40.8391 17.265 41.3914 16.2829 41.3914C15.1968 41.3914 14.7846 40.1271 14.7846 39.061C14.7846 37.829 14.9101 36.0784 16.3507 36.0784C17.1582 36.0784 17.6094 36.6692 17.7175 37.5585H18.4826C18.3628 36.2603 17.6644 35.3676 16.3507 35.3676C14.4933 35.3676 14.0195 37.3526 14.0195 39.061C14.0195 40.6017 14.8236 42.0977 16.2829 42.0977C17.4768 42.0977 18.3547 41.2533 18.4826 39.9248Z" fill="white"/>
</svg>
