<svg width="50" height="50" viewBox="0 0 50 50" fill="none" xmlns="http://www.w3.org/2000/svg">
<path fill-rule="evenodd" clip-rule="evenodd" d="M10.0195 6.38915C10.0195 5.72965 10.1402 5.50023 10.9462 5.50596C20.3 5.53273 29.6559 5.53273 39.014 5.50596C39.8389 5.50596 40.0482 5.701 40.0165 6.4236C39.9488 7.78085 39.9488 9.13993 40.0165 10.501C40.0482 11.1892 39.769 11.3154 39.0773 11.3097C31.9001 11.3097 24.723 11.3097 17.5458 11.3097C16.6828 11.3097 16.4099 11.4588 16.4289 12.2846C16.486 15.5821 16.4289 18.8854 16.4289 22.183C16.4289 22.4754 16.5114 22.7909 16.2322 23.0432L10.0195 28.606C10.0195 21.2004 10.0195 13.7948 10.0195 6.38915Z" fill="#5F2E88"/>
<path fill-rule="evenodd" clip-rule="evenodd" d="M39.0013 28.6405C39.731 28.6405 40.023 28.7609 39.9849 29.4892C39.9214 30.9286 39.9849 32.3566 39.9849 33.8076C39.9849 34.2836 39.896 34.4957 39.2868 34.4957C31.8367 34.4957 24.3867 34.4957 16.9366 34.4957C16.696 34.5314 16.4424 34.4719 16.2512 34.3351L10.1085 28.9042C10.1592 28.8297 10.2671 28.6749 10.2671 28.6749L39.0013 28.6405Z" fill="#5F2E88"/>
<path fill-rule="evenodd" clip-rule="evenodd" d="M35.0224 17.0504C35.5808 17.0504 35.7648 17.188 35.7521 17.7041C35.7521 19.2296 35.7521 20.7493 35.7521 22.292C35.7521 22.7794 35.5682 22.8655 35.0668 22.8655C31.2086 22.8655 27.3439 22.8655 23.4856 22.8655C22.9716 22.8655 22.7939 22.745 22.8002 22.292C22.8341 20.7627 22.8341 19.2334 22.8002 17.7041C22.8002 17.188 22.9652 17.0389 23.5299 17.0504C27.3594 17.1081 31.1924 17.0504 35.0224 17.0504Z" fill="#5F2E88"/>
<path d="M28.4961 39.7168V45H27.5879V39.7168H28.4961Z" fill="black"/>
<path d="M27.5195 38.3154C27.5195 38.0201 27.703 37.793 28.0518 37.793C28.3996 37.793 28.5889 38.0248 28.5889 38.3154C28.5889 38.5907 28.4027 38.8232 28.0518 38.8232C27.6999 38.8232 27.5195 38.5951 27.5195 38.3154Z" fill="black"/>
<path d="M30.8496 41.2297V45H29.9463V39.7168H30.8008L30.8292 40.3741C31.2104 39.8936 31.757 39.6191 32.4072 39.6191C33.5787 39.6191 34.1016 40.4763 34.1016 41.5381V45H33.1934V41.5283C33.1934 40.6872 32.815 40.3809 32.1387 40.3809C31.5642 40.3809 31.1058 40.7201 30.8496 41.2297Z" fill="black"/>
<path fill-rule="evenodd" clip-rule="evenodd" d="M37.666 45.0977C38.7187 45.0977 39.3128 44.5928 39.6533 44.0771L39.1064 43.6426C38.7744 44.0788 38.3529 44.3604 37.7148 44.3604C36.7389 44.3604 36.1709 43.508 36.1483 42.6123H39.7217C39.7217 41.2104 39.242 39.6191 37.5488 39.6191C36.0024 39.6191 35.2393 41.1559 35.2393 42.5439C35.2393 44.0356 36.2058 45.0977 37.666 45.0977ZM36.1748 41.875C36.2979 40.896 36.8382 40.3613 37.5488 40.3613C38.3711 40.3613 38.8184 41.1258 38.8184 41.875H36.1748Z" fill="black"/>
<path fill-rule="evenodd" clip-rule="evenodd" d="M26.1426 39.7168H25.3223L25.2802 40.3062L25.2734 40.2979C24.9294 39.8564 24.4355 39.6191 23.7695 39.6191C22.2854 39.6191 21.6846 41.1143 21.6846 42.417C21.6846 43.9499 22.5041 45.0977 23.7598 45.0977C24.4101 45.0977 24.8965 44.874 25.2393 44.4658V44.9316C25.2393 45.8529 24.6957 46.3428 23.8379 46.3428C23.3653 46.3428 22.8671 46.1668 22.4219 45.6299L21.9482 46.167C22.3766 46.7789 23.1779 47.085 23.9062 47.085C25.2279 47.085 26.1426 46.2824 26.1426 44.8877V39.7168ZM25.2393 41.1496V43.5374C25.0056 43.9964 24.6262 44.3311 23.9795 44.3311C23.002 44.3311 22.5879 43.4765 22.5879 42.417C22.5879 41.5119 22.8782 40.3809 23.9893 40.3809C24.6195 40.3809 25.0114 40.7058 25.2393 41.1496Z" fill="black"/>
<path d="M17.255 40.3741L17.2266 39.7168H16.3721V45H17.2754V41.2297C17.5316 40.7201 17.99 40.3809 18.5645 40.3809C19.2408 40.3809 19.6191 40.6872 19.6191 41.5283V45H20.5273V41.5381C20.5273 40.4763 20.0045 39.6191 18.833 39.6191C18.1828 39.6191 17.6362 39.8936 17.255 40.3741Z" fill="black"/>
<path d="M15.3418 45V44.2334H11.7676V41.7139H14.8438V40.9473H11.7676V38.6621H15.293V37.8906H10.8252V45H15.3418Z" fill="black"/>
</svg>
