<svg width="50" height="50" viewBox="0 0 50 50" fill="none" xmlns="http://www.w3.org/2000/svg">
<path fill-rule="evenodd" clip-rule="evenodd" d="M10.0195 6.38915C10.0195 5.72965 10.1402 5.50023 10.9462 5.50596C20.3 5.53273 29.6559 5.53273 39.014 5.50596C39.8389 5.50596 40.0482 5.701 40.0165 6.4236C39.9488 7.78085 39.9488 9.13993 40.0165 10.501C40.0482 11.1892 39.769 11.3154 39.0773 11.3097C31.9001 11.3097 24.723 11.3097 17.5458 11.3097C16.6828 11.3097 16.4099 11.4588 16.4289 12.2846C16.486 15.5821 16.4289 18.8854 16.4289 22.183C16.4289 22.4754 16.5114 22.7909 16.2322 23.0432L10.0195 28.606C10.0195 21.2004 10.0195 13.7948 10.0195 6.38915Z" fill="#5F2E88"/>
<path fill-rule="evenodd" clip-rule="evenodd" d="M39.0013 28.6405C39.731 28.6405 40.023 28.7609 39.9849 29.4892C39.9214 30.9286 39.9849 32.3566 39.9849 33.8076C39.9849 34.2836 39.896 34.4957 39.2868 34.4957C31.8367 34.4957 24.3867 34.4957 16.9366 34.4957C16.696 34.5314 16.4424 34.4719 16.2512 34.3351L10.1085 28.9042C10.1592 28.8297 10.2671 28.6749 10.2671 28.6749L39.0013 28.6405Z" fill="#5F2E88"/>
<path fill-rule="evenodd" clip-rule="evenodd" d="M35.0224 17.0504C35.5808 17.0504 35.7648 17.188 35.7521 17.7041C35.7521 19.2296 35.7521 20.7493 35.7521 22.292C35.7521 22.7794 35.5682 22.8655 35.0668 22.8655C31.2086 22.8655 27.3439 22.8655 23.4856 22.8655C22.9716 22.8655 22.7939 22.745 22.8002 22.292C22.8341 20.7627 22.8341 19.2334 22.8002 17.7041C22.8002 17.188 22.9652 17.0389 23.5299 17.0504C27.3594 17.1081 31.1924 17.0504 35.0224 17.0504Z" fill="#5F2E88"/>
<path d="M20.1836 37.5V45H19.2754V37.5H20.1836Z" fill="#1C1D1F"/>
<path fill-rule="evenodd" clip-rule="evenodd" d="M36.2192 44.4294L36.2627 45H37.0928V37.5H36.1846V40.2494C35.8422 39.8398 35.3609 39.6191 34.7197 39.6191C33.2646 39.6191 32.6299 41.0539 32.6299 42.3145C32.6299 43.5801 33.2622 45.0977 34.71 45.0977C35.3793 45.0977 35.8752 44.8609 36.2192 44.4294ZM36.1846 41.1402V43.5564C35.9507 44.0072 35.5761 44.3311 34.9346 44.3311C33.8658 44.3311 33.5381 43.2239 33.5381 42.3145C33.5381 41.4314 33.8933 40.3809 34.9443 40.3809C35.5765 40.3809 35.9572 40.7042 36.1846 41.1402Z" fill="#1C1D1F"/>
<path d="M30.5945 44.4773L30.6133 45H31.4775V39.7168H30.5693V43.5582C30.3652 44.0294 29.9384 44.3311 29.1924 44.3311C28.7057 44.3311 28.2207 44.083 28.2207 43.1348V39.7168H27.3174V43.125C27.3174 44.5402 28.0335 45.0977 29.0508 45.0977C29.7643 45.0977 30.2666 44.8672 30.5945 44.4773Z" fill="#1C1D1F"/>
<path fill-rule="evenodd" clip-rule="evenodd" d="M21.3945 42.417C21.3945 43.8371 22.3338 45.0977 23.8018 45.0977C25.2685 45.0977 26.2041 43.8338 26.2041 42.417C26.2041 40.9999 25.3387 39.6191 23.792 39.6191C22.2671 39.6191 21.3945 40.977 21.3945 42.417ZM22.2979 42.417C22.2979 41.4962 22.6944 40.3613 23.792 40.3613C24.8728 40.3613 25.2959 41.4766 25.2959 42.417C25.2959 43.3325 24.826 44.3555 23.8018 44.3555C22.7947 44.3555 22.2979 43.464 22.2979 42.417Z" fill="#1C1D1F"/>
<path d="M18.0547 42.7393H17.1172C16.9615 43.7317 16.5628 44.3311 15.3594 44.3311C14.0285 44.3311 13.5234 42.9588 13.5234 41.8018C13.5234 40.4645 13.6771 38.5645 15.4424 38.5645C16.4319 38.5645 16.9847 39.2057 17.1172 40.1709H18.0547C17.9079 38.762 17.0522 37.793 15.4424 37.793C13.1665 37.793 12.5859 39.9474 12.5859 41.8018C12.5859 43.474 13.5712 45.0977 15.3594 45.0977C16.8222 45.0977 17.898 44.1812 18.0547 42.7393Z" fill="#1C1D1F"/>
</svg>
