<svg width="50" height="50" viewBox="0 0 50 50" fill="none" xmlns="http://www.w3.org/2000/svg">
<rect width="50" height="50" fill="#01A7E2"/>
<path d="M36.9528 21.0218C36.9383 21.1816 36.919 21.3302 36.9109 21.4852C36.7484 24.5145 35.9865 27.4825 34.6687 30.2197C34.5077 30.5392 34.3468 30.8587 34.1858 31.1687C34.1858 31.1783 34.1729 31.1863 34.1584 31.207L30.9231 29.7691C32.5517 26.8413 33.406 23.5515 33.406 20.207C33.406 16.8626 32.5517 13.5727 30.9231 10.6449L34.1633 9.20703C34.2228 9.31727 34.2808 9.42112 34.3355 9.52657C35.9154 12.5688 36.8008 15.9192 36.9286 19.3395C36.9339 19.3672 36.9414 19.3945 36.9512 19.421V19.814C36.9412 19.837 36.9342 19.8612 36.9302 19.8859C36.9302 20.0888 36.9302 20.2917 36.9302 20.493C36.934 20.5219 36.941 20.5503 36.9512 20.5777L36.9528 21.0218Z" fill="white"/>
<path d="M36.9531 20.5826C36.9426 20.5553 36.9354 20.5269 36.9315 20.498C36.9315 20.2967 36.9315 20.0938 36.9315 19.8908C36.9356 19.8661 36.9429 19.842 36.9531 19.8189V20.5826Z" fill="white"/>
<path d="M28.9838 15.4413L18.3828 20.2136L28.9903 24.9859C28.5074 26.0531 28.0245 27.1124 27.5271 28.1812L27.173 28.0214L15.6818 22.8578C15.1312 22.619 14.6696 22.2155 14.3614 21.7036C14.0532 21.1917 13.9138 20.5971 13.9627 20.0027C13.9873 19.4802 14.1602 18.9752 14.4615 18.5461C14.7629 18.117 15.1803 17.7812 15.6657 17.5774C18.1413 16.4495 20.625 15.3407 23.1071 14.2223L27.4048 12.2907L27.5255 12.2396C28.01 13.3068 28.4945 14.3677 28.9838 15.4413Z" fill="white"/>
<path d="M11.3234 39.0335V39.608H8.51423V39.0335H11.3234ZM8.65633 34.2802V39.608H7.95312V34.2802H8.65633ZM10.9518 36.5709V37.1453H8.51423V36.5709H10.9518ZM11.287 34.2802V34.8584H8.51423V34.2802H11.287Z" fill="white"/>
<path d="M13.1051 39.1981L14.2018 35.6487H14.9232L13.3419 40.2191C13.3055 40.3166 13.2569 40.4215 13.1962 40.5337C13.1379 40.6484 13.0626 40.757 12.9703 40.8594C12.878 40.9619 12.7663 41.0448 12.6351 41.1082C12.5064 41.1741 12.3521 41.207 12.1724 41.207C12.1189 41.207 12.0509 41.1997 11.9683 41.1851C11.8857 41.1704 11.8274 41.1582 11.7934 41.1485L11.7898 40.5996C11.8092 40.602 11.8396 40.6045 11.8809 40.6069C11.9246 40.6118 11.955 40.6142 11.972 40.6142C12.125 40.6142 12.255 40.5935 12.3618 40.552C12.4687 40.513 12.5586 40.4459 12.6315 40.3508C12.7068 40.2581 12.7711 40.13 12.8246 39.9666L13.1051 39.1981ZM12.2999 35.6487L13.3237 38.7225L13.4986 39.436L13.014 39.6848L11.5639 35.6487H12.2999Z" fill="white"/>
<path d="M17.1167 39.6812C16.8422 39.6812 16.5932 39.6348 16.3697 39.5421C16.1487 39.447 15.958 39.314 15.7977 39.1433C15.6398 38.9725 15.5184 38.77 15.4333 38.5358C15.3483 38.3016 15.3058 38.0455 15.3058 37.7674V37.6137C15.3058 37.2917 15.3532 37.0051 15.4479 36.7538C15.5427 36.5001 15.6714 36.2854 15.8341 36.1098C15.9969 35.9342 16.1815 35.8012 16.388 35.711C16.5944 35.6207 16.8082 35.5756 17.0292 35.5756C17.311 35.5756 17.5539 35.6244 17.7579 35.7219C17.9644 35.8195 18.1332 35.9561 18.2644 36.1318C18.3956 36.305 18.4927 36.5099 18.5559 36.7465C18.619 36.9807 18.6506 37.2368 18.6506 37.5149V37.8186H15.7066V37.2661H17.9765V37.2149C17.9668 37.0392 17.9304 36.8685 17.8672 36.7026C17.8065 36.5367 17.7094 36.4001 17.5758 36.2928C17.4422 36.1854 17.26 36.1318 17.0292 36.1318C16.8762 36.1318 16.7353 36.1647 16.6066 36.2306C16.4778 36.294 16.3673 36.3891 16.275 36.516C16.1827 36.6428 16.111 36.7977 16.06 36.9807C16.009 37.1636 15.9835 37.3747 15.9835 37.6137V37.7674C15.9835 37.9552 16.009 38.1321 16.06 38.298C16.1135 38.4614 16.19 38.6054 16.2896 38.7298C16.3916 38.8542 16.5143 38.9518 16.6576 39.0225C16.8033 39.0932 16.9685 39.1286 17.1531 39.1286C17.3911 39.1286 17.5928 39.0798 17.7579 38.9823C17.9231 38.8847 18.0676 38.7542 18.1915 38.5907L18.5996 38.9164C18.5146 39.0457 18.4065 39.1689 18.2753 39.286C18.1442 39.4031 17.9826 39.4982 17.7907 39.5714C17.6013 39.6446 17.3766 39.6812 17.1167 39.6812Z" fill="white"/>
<path d="M20.17 35.6487V39.608H19.4923V35.6487H20.17ZM19.4413 34.5986C19.4413 34.4888 19.474 34.3961 19.5396 34.3205C19.6076 34.2448 19.7072 34.207 19.8384 34.207C19.9671 34.207 20.0655 34.2448 20.1335 34.3205C20.204 34.3961 20.2392 34.4888 20.2392 34.5986C20.2392 34.7035 20.204 34.7937 20.1335 34.8693C20.0655 34.9425 19.9671 34.9791 19.8384 34.9791C19.7072 34.9791 19.6076 34.9425 19.5396 34.8693C19.474 34.7937 19.4413 34.7035 19.4413 34.5986Z" fill="white"/>
<path d="M21.9262 36.494V39.608H21.2521V35.6487H21.8897L21.9262 36.494ZM21.7658 37.4783L21.4853 37.4674C21.4877 37.1966 21.5278 36.9465 21.6055 36.7172C21.6833 36.4855 21.7926 36.2842 21.9334 36.1135C22.0743 35.9427 22.2419 35.811 22.4363 35.7183C22.633 35.6231 22.8504 35.5756 23.0885 35.5756C23.2828 35.5756 23.4577 35.6024 23.6131 35.6561C23.7686 35.7073 23.901 35.7902 24.0103 35.9049C24.122 36.0195 24.207 36.1683 24.2653 36.3513C24.3236 36.5318 24.3528 36.7526 24.3528 37.0136V39.608H23.6751V37.0063C23.6751 36.7989 23.6447 36.6331 23.584 36.5087C23.5233 36.3818 23.4346 36.2903 23.318 36.2342C23.2014 36.1757 23.0581 36.1464 22.8881 36.1464C22.7205 36.1464 22.5674 36.1818 22.429 36.2525C22.2929 36.3233 22.1751 36.4208 22.0755 36.5452C21.9784 36.6697 21.9019 36.8124 21.846 36.9734C21.7926 37.1319 21.7658 37.3003 21.7658 37.4783Z" fill="white"/>
<path d="M27.6721 38.5578C27.6721 38.4602 27.6502 38.37 27.6065 38.287C27.5652 38.2016 27.4789 38.1248 27.3478 38.0565C27.219 37.9857 27.0247 37.9248 26.7648 37.8735C26.5462 37.8272 26.3482 37.7723 26.1709 37.7089C25.996 37.6454 25.8466 37.5686 25.7227 37.4783C25.6013 37.3881 25.5078 37.282 25.4422 37.16C25.3766 37.038 25.3438 36.8953 25.3438 36.7319C25.3438 36.5757 25.3778 36.4281 25.4458 36.2891C25.5163 36.1501 25.6147 36.0269 25.741 35.9195C25.8697 35.8122 26.0239 35.728 26.2037 35.667C26.3834 35.6061 26.5838 35.5756 26.8049 35.5756C27.1207 35.5756 27.3903 35.6317 27.6138 35.7439C27.8372 35.8561 28.0085 36.0061 28.1275 36.194C28.2465 36.3794 28.306 36.5855 28.306 36.8124H27.632C27.632 36.7026 27.5992 36.5965 27.5336 36.494C27.4704 36.3891 27.3769 36.3025 27.253 36.2342C27.1316 36.1659 26.9822 36.1318 26.8049 36.1318C26.6178 36.1318 26.466 36.161 26.3494 36.2196C26.2353 36.2757 26.1515 36.3476 26.098 36.4355C26.047 36.5233 26.0215 36.616 26.0215 36.7136C26.0215 36.7867 26.0337 36.8526 26.058 36.9112C26.0847 36.9673 26.1308 37.0197 26.1964 37.0685C26.262 37.1149 26.3543 37.1588 26.4733 37.2002C26.5923 37.2417 26.7442 37.2832 26.9288 37.3246C27.2518 37.3978 27.5178 37.4857 27.7267 37.5881C27.9356 37.6906 28.0911 37.8162 28.1931 37.965C28.2951 38.1138 28.3461 38.2943 28.3461 38.5066C28.3461 38.6798 28.3097 38.8383 28.2368 38.9823C28.1664 39.1262 28.0631 39.2506 27.9271 39.3555C27.7935 39.4579 27.6332 39.5384 27.4461 39.597C27.2615 39.6531 27.0539 39.6812 26.8231 39.6812C26.4757 39.6812 26.1818 39.6189 25.9414 39.4945C25.7009 39.3701 25.5187 39.2091 25.3948 39.0115C25.2709 38.8139 25.209 38.6054 25.209 38.3858H25.8867C25.8964 38.5712 25.9499 38.7188 26.047 38.8286C26.1442 38.9359 26.2632 39.0127 26.4041 39.0591C26.545 39.103 26.6846 39.125 26.8231 39.125C27.0077 39.125 27.162 39.1006 27.2858 39.0518C27.4121 39.003 27.5081 38.9359 27.5737 38.8505C27.6393 38.7651 27.6721 38.6676 27.6721 38.5578Z" fill="white"/>
<path d="M29.9056 36.4099V41.1302H29.2278V35.6487H29.8473L29.9056 36.4099ZM32.5617 37.5954V37.6723C32.5617 37.9601 32.5277 38.2272 32.4597 38.4736C32.3917 38.7176 32.2921 38.9298 32.1609 39.1103C32.0322 39.2908 31.8731 39.4311 31.6836 39.5311C31.4941 39.6311 31.2767 39.6812 31.0314 39.6812C30.7812 39.6812 30.5602 39.6397 30.3683 39.5567C30.1764 39.4738 30.0136 39.353 29.88 39.1945C29.7464 39.0359 29.6396 38.8456 29.5594 38.6237C29.4817 38.4017 29.4282 38.1516 29.3991 37.8735V37.4637C29.4282 37.171 29.4829 36.9087 29.5631 36.677C29.6432 36.4452 29.7489 36.2476 29.88 36.0842C30.0136 35.9183 30.1752 35.7927 30.3646 35.7073C30.5541 35.6195 30.7727 35.5756 31.0205 35.5756C31.2682 35.5756 31.4881 35.6244 31.68 35.7219C31.8719 35.8171 32.0334 35.9537 32.1646 36.1318C32.2957 36.3098 32.3941 36.5233 32.4597 36.7721C32.5277 37.0185 32.5617 37.2929 32.5617 37.5954ZM31.884 37.6723V37.5954C31.884 37.3978 31.8634 37.2124 31.8221 37.0392C31.7808 36.8636 31.7164 36.7099 31.629 36.5782C31.5439 36.444 31.4346 36.3391 31.301 36.2635C31.1674 36.1854 31.0083 36.1464 30.8237 36.1464C30.6537 36.1464 30.5055 36.1757 30.3792 36.2342C30.2553 36.2928 30.1497 36.372 30.0622 36.4721C29.9748 36.5696 29.9031 36.6819 29.8473 36.8087C29.7938 36.9331 29.7537 37.0624 29.727 37.1966V38.1443C29.7756 38.3151 29.8436 38.4761 29.9311 38.6273C30.0185 38.7761 30.1351 38.8969 30.2808 38.9896C30.4266 39.0798 30.61 39.125 30.831 39.125C31.0132 39.125 31.1699 39.0871 31.301 39.0115C31.4346 38.9335 31.5439 38.8273 31.629 38.6932C31.7164 38.559 31.7808 38.4053 31.8221 38.2321C31.8634 38.0565 31.884 37.8699 31.884 37.6723Z" fill="white"/>
<path d="M35.0575 39.6812C34.7831 39.6812 34.5341 39.6348 34.3106 39.5421C34.0896 39.447 33.8989 39.314 33.7386 39.1433C33.5807 38.9725 33.4592 38.77 33.3742 38.5358C33.2892 38.3016 33.2467 38.0455 33.2467 37.7674V37.6137C33.2467 37.2917 33.2941 37.0051 33.3888 36.7538C33.4835 36.5001 33.6123 36.2854 33.775 36.1098C33.9378 35.9342 34.1224 35.8012 34.3288 35.711C34.5353 35.6207 34.7491 35.5756 34.9701 35.5756C35.2519 35.5756 35.4948 35.6244 35.6988 35.7219C35.9053 35.8195 36.0741 35.9561 36.2053 36.1318C36.3364 36.305 36.4336 36.5099 36.4967 36.7465C36.5599 36.9807 36.5915 37.2368 36.5915 37.5149V37.8186H33.6475V37.2661H35.9174V37.2149C35.9077 37.0392 35.8713 36.8685 35.8081 36.7026C35.7474 36.5367 35.6502 36.4001 35.5166 36.2928C35.383 36.1854 35.2009 36.1318 34.9701 36.1318C34.8171 36.1318 34.6762 36.1647 34.5474 36.2306C34.4187 36.294 34.3082 36.3891 34.2159 36.516C34.1236 36.6428 34.0519 36.7977 34.0009 36.9807C33.9499 37.1636 33.9244 37.3747 33.9244 37.6137V37.7674C33.9244 37.9552 33.9499 38.1321 34.0009 38.298C34.0543 38.4614 34.1309 38.6054 34.2305 38.7298C34.3325 38.8542 34.4551 38.9518 34.5984 39.0225C34.7442 39.0932 34.9094 39.1286 35.094 39.1286C35.332 39.1286 35.5336 39.0798 35.6988 38.9823C35.864 38.8847 36.0085 38.7542 36.1324 38.5907L36.5405 38.9164C36.4555 39.0457 36.3474 39.1689 36.2162 39.286C36.085 39.4031 35.9235 39.4982 35.7316 39.5714C35.5421 39.6446 35.3174 39.6812 35.0575 39.6812Z" fill="white"/>
<path d="M38.9561 39.125C39.1165 39.125 39.2646 39.092 39.4007 39.0262C39.5367 38.9603 39.6484 38.87 39.7359 38.7554C39.8233 38.6383 39.8731 38.5053 39.8853 38.3565H40.5265C40.5144 38.5907 40.4354 38.8091 40.2897 39.0115C40.1464 39.2116 39.9581 39.3738 39.7249 39.4982C39.4917 39.6202 39.2355 39.6812 38.9561 39.6812C38.6598 39.6812 38.4011 39.6287 38.1801 39.5238C37.9615 39.4189 37.7793 39.275 37.6335 39.092C37.4902 38.9091 37.3821 38.6993 37.3093 38.4627C37.2388 38.2236 37.2036 37.9711 37.2036 37.7052V37.5515C37.2036 37.2856 37.2388 37.0344 37.3093 36.7977C37.3821 36.5587 37.4902 36.3476 37.6335 36.1647C37.7793 35.9817 37.9615 35.8378 38.1801 35.7329C38.4011 35.628 38.6598 35.5756 38.9561 35.5756C39.2646 35.5756 39.5343 35.639 39.765 35.7658C39.9958 35.8903 40.1767 36.061 40.3079 36.2781C40.4415 36.4928 40.5144 36.7367 40.5265 37.01H39.8853C39.8731 36.8465 39.827 36.6989 39.7468 36.5672C39.6691 36.4355 39.5622 36.3306 39.4262 36.2525C39.2926 36.172 39.1359 36.1318 38.9561 36.1318C38.7497 36.1318 38.576 36.1732 38.4351 36.2562C38.2967 36.3367 38.1861 36.4464 38.1036 36.5855C38.0234 36.7221 37.9651 36.8746 37.9287 37.0429C37.8947 37.2088 37.8777 37.3783 37.8777 37.5515V37.7052C37.8777 37.8784 37.8947 38.0492 37.9287 38.2175C37.9627 38.3858 38.0197 38.5383 38.0999 38.6749C38.1825 38.8115 38.293 38.9213 38.4315 39.0042C38.5724 39.0847 38.7472 39.125 38.9561 39.125Z" fill="white"/>
<path d="M42.9349 35.6487V36.1683H40.8034V35.6487H42.9349ZM41.5248 34.6864H42.1989V38.6273C42.1989 38.7615 42.2196 38.8627 42.2608 38.931C42.3021 38.9993 42.3556 39.0445 42.4212 39.0664C42.4867 39.0884 42.5572 39.0993 42.6325 39.0993C42.6884 39.0993 42.7467 39.0945 42.8074 39.0847C42.8705 39.0725 42.9179 39.0628 42.9495 39.0554L42.9531 39.608C42.8997 39.625 42.8292 39.6409 42.7418 39.6555C42.6568 39.6726 42.5535 39.6812 42.4321 39.6812C42.2669 39.6812 42.1151 39.6482 41.9767 39.5824C41.8382 39.5165 41.7277 39.4067 41.6451 39.253C41.5649 39.0969 41.5248 38.8871 41.5248 38.6237V34.6864Z" fill="white"/>
</svg>
