<svg width="50" height="50" viewBox="0 0 50 50" fill="none" xmlns="http://www.w3.org/2000/svg">
<path d="M37.617 20.3889C37.6011 20.5632 37.5799 20.7253 37.571 20.8943C37.3928 24.1991 36.5569 27.4369 35.111 30.4229C34.9344 30.7714 34.7578 31.12 34.5812 31.4581C34.5812 31.4686 34.567 31.4773 34.5511 31.5L31.0014 29.9313C32.7884 26.7374 33.7256 23.1485 33.7256 19.5C33.7256 15.8515 32.7884 12.2626 31.0014 9.06863L34.5564 7.5C34.6218 7.62026 34.6854 7.73355 34.7454 7.84858C36.4789 11.1674 37.4502 14.8223 37.5905 18.5536C37.5962 18.5838 37.6045 18.6136 37.6152 18.6425V19.0712C37.6043 19.0963 37.5966 19.1227 37.5922 19.1497C37.5922 19.371 37.5922 19.5924 37.5922 19.812C37.5963 19.8435 37.604 19.8745 37.6152 19.9043L37.617 20.3889Z" fill="#01A7E2"/>
<path d="M37.6173 19.9097C37.6058 19.8799 37.5979 19.8489 37.5937 19.8174C37.5937 19.5978 37.5937 19.3764 37.5937 19.1551C37.5982 19.1281 37.6061 19.1017 37.6173 19.0766V19.9097Z" fill="#41BDE9"/>
<path d="M28.8738 14.3011L17.2428 19.5072L28.8809 24.7132C28.3511 25.8775 27.8213 27.0331 27.2756 28.1991L26.887 28.0248L14.2794 22.3917C13.6754 22.1312 13.1689 21.691 12.8307 21.1326C12.4926 20.5742 12.3397 19.9255 12.3933 19.2771C12.4203 18.7071 12.61 18.1562 12.9406 17.6881C13.2712 17.2199 13.7292 16.8536 14.2618 16.6313C16.9779 15.4008 19.7029 14.1913 22.4261 12.9712L27.1414 10.864L27.2738 10.8083C27.8054 11.9725 28.3369 13.1298 28.8738 14.3011Z" fill="#01A7E2"/>
<path d="M10.043 39.8867V40.5H7.03125V39.8867H10.043ZM7.18359 34.8125V40.5H6.42969V34.8125H7.18359ZM9.64453 37.2578V37.8711H7.03125V37.2578H9.64453ZM10.0039 34.8125V35.4297H7.03125V34.8125H10.0039Z" fill="#1C1D1F"/>
<path d="M11.9531 40.0625L13.1289 36.2734H13.9023L12.207 41.1523C12.168 41.2565 12.1159 41.3685 12.0508 41.4883C11.9883 41.6107 11.9076 41.7266 11.8086 41.8359C11.7096 41.9453 11.5898 42.0339 11.4492 42.1016C11.3112 42.1719 11.1458 42.207 10.9531 42.207C10.8958 42.207 10.8229 42.1992 10.7344 42.1836C10.6458 42.168 10.5833 42.1549 10.5469 42.1445L10.543 41.5586C10.5638 41.5612 10.5964 41.5638 10.6406 41.5664C10.6875 41.5716 10.7201 41.5742 10.7383 41.5742C10.9023 41.5742 11.0417 41.5521 11.1562 41.5078C11.2708 41.4661 11.3672 41.3945 11.4453 41.293C11.526 41.194 11.5951 41.0573 11.6523 40.8828L11.9531 40.0625ZM11.0898 36.2734L12.1875 39.5547L12.375 40.3164L11.8555 40.582L10.3008 36.2734H11.0898Z" fill="#1C1D1F"/>
<path d="M16.2539 40.5781C15.9596 40.5781 15.6927 40.5286 15.4531 40.4297C15.2161 40.3281 15.0117 40.1862 14.8398 40.0039C14.6706 39.8216 14.5404 39.6055 14.4492 39.3555C14.3581 39.1055 14.3125 38.832 14.3125 38.5352V38.3711C14.3125 38.0273 14.3633 37.7214 14.4648 37.4531C14.5664 37.1823 14.7044 36.9531 14.8789 36.7656C15.0534 36.5781 15.2513 36.4362 15.4727 36.3398C15.694 36.2435 15.9232 36.1953 16.1602 36.1953C16.4622 36.1953 16.7227 36.2474 16.9414 36.3516C17.1628 36.4557 17.3438 36.6016 17.4844 36.7891C17.625 36.974 17.7292 37.1927 17.7969 37.4453C17.8646 37.6953 17.8984 37.9688 17.8984 38.2656V38.5898H14.7422V38H17.1758V37.9453C17.1654 37.7578 17.1263 37.5755 17.0586 37.3984C16.9935 37.2214 16.8893 37.0755 16.7461 36.9609C16.6029 36.8464 16.4076 36.7891 16.1602 36.7891C15.9961 36.7891 15.8451 36.8242 15.707 36.8945C15.569 36.9622 15.4505 37.0638 15.3516 37.1992C15.2526 37.3346 15.1758 37.5 15.1211 37.6953C15.0664 37.8906 15.0391 38.1159 15.0391 38.3711V38.5352C15.0391 38.7357 15.0664 38.9245 15.1211 39.1016C15.1784 39.276 15.2604 39.4297 15.3672 39.5625C15.4766 39.6953 15.6081 39.7995 15.7617 39.875C15.918 39.9505 16.0951 39.9883 16.293 39.9883C16.5482 39.9883 16.7643 39.9362 16.9414 39.832C17.1185 39.7279 17.2734 39.5885 17.4062 39.4141L17.8438 39.7617C17.7526 39.8997 17.6367 40.0312 17.4961 40.1562C17.3555 40.2812 17.1823 40.3828 16.9766 40.4609C16.7734 40.5391 16.5326 40.5781 16.2539 40.5781Z" fill="#1C1D1F"/>
<path d="M19.5273 36.2734V40.5H18.8008V36.2734H19.5273ZM18.7461 35.1523C18.7461 35.0352 18.7812 34.9362 18.8516 34.8555C18.9245 34.7747 19.0312 34.7344 19.1719 34.7344C19.3099 34.7344 19.4154 34.7747 19.4883 34.8555C19.5638 34.9362 19.6016 35.0352 19.6016 35.1523C19.6016 35.2643 19.5638 35.3607 19.4883 35.4414C19.4154 35.5195 19.3099 35.5586 19.1719 35.5586C19.0312 35.5586 18.9245 35.5195 18.8516 35.4414C18.7812 35.3607 18.7461 35.2643 18.7461 35.1523Z" fill="#1C1D1F"/>
<path d="M21.4102 37.1758V40.5H20.6875V36.2734H21.3711L21.4102 37.1758ZM21.2383 38.2266L20.9375 38.2148C20.9401 37.9258 20.9831 37.6589 21.0664 37.4141C21.1497 37.1667 21.2669 36.9518 21.418 36.7695C21.569 36.5872 21.7487 36.4466 21.957 36.3477C22.168 36.2461 22.401 36.1953 22.6562 36.1953C22.8646 36.1953 23.0521 36.224 23.2188 36.2812C23.3854 36.3359 23.5273 36.4245 23.6445 36.5469C23.7643 36.6693 23.8555 36.8281 23.918 37.0234C23.9805 37.2161 24.0117 37.4518 24.0117 37.7305V40.5H23.2852V37.7227C23.2852 37.5013 23.2526 37.3242 23.1875 37.1914C23.1224 37.056 23.0273 36.9583 22.9023 36.8984C22.7773 36.8359 22.6237 36.8047 22.4414 36.8047C22.2617 36.8047 22.0977 36.8424 21.9492 36.918C21.8034 36.9935 21.6771 37.0977 21.5703 37.2305C21.4661 37.3633 21.3841 37.5156 21.3242 37.6875C21.2669 37.8568 21.2383 38.0365 21.2383 38.2266Z" fill="#1C1D1F"/>
<path d="M27.5703 39.3789C27.5703 39.2747 27.5469 39.1784 27.5 39.0898C27.4557 38.9987 27.3633 38.9167 27.2227 38.8438C27.0846 38.7682 26.8763 38.7031 26.5977 38.6484C26.3633 38.599 26.151 38.5404 25.9609 38.4727C25.7734 38.4049 25.6133 38.3229 25.4805 38.2266C25.3503 38.1302 25.25 38.0169 25.1797 37.8867C25.1094 37.7565 25.0742 37.6042 25.0742 37.4297C25.0742 37.263 25.1107 37.1055 25.1836 36.957C25.2591 36.8086 25.3646 36.6771 25.5 36.5625C25.638 36.4479 25.8034 36.3581 25.9961 36.293C26.1888 36.2279 26.4036 36.1953 26.6406 36.1953C26.9792 36.1953 27.2682 36.2552 27.5078 36.375C27.7474 36.4948 27.931 36.6549 28.0586 36.8555C28.1862 37.0534 28.25 37.2734 28.25 37.5156H27.5273C27.5273 37.3984 27.4922 37.2852 27.4219 37.1758C27.3542 37.0638 27.2539 36.9714 27.1211 36.8984C26.9909 36.8255 26.8307 36.7891 26.6406 36.7891C26.4401 36.7891 26.2773 36.8203 26.1523 36.8828C26.0299 36.9427 25.9401 37.0195 25.8828 37.1133C25.8281 37.207 25.8008 37.306 25.8008 37.4102C25.8008 37.4883 25.8138 37.5586 25.8398 37.6211C25.8685 37.681 25.918 37.737 25.9883 37.7891C26.0586 37.8385 26.1576 37.8854 26.2852 37.9297C26.4128 37.974 26.5755 38.0182 26.7734 38.0625C27.1198 38.1406 27.4049 38.2344 27.6289 38.3438C27.8529 38.4531 28.0195 38.5872 28.1289 38.7461C28.2383 38.9049 28.293 39.0977 28.293 39.3242C28.293 39.5091 28.2539 39.6784 28.1758 39.832C28.1003 39.9857 27.9896 40.1185 27.8438 40.2305C27.7005 40.3398 27.5286 40.4258 27.3281 40.4883C27.1302 40.5482 26.9076 40.5781 26.6602 40.5781C26.2878 40.5781 25.9727 40.5117 25.7148 40.3789C25.457 40.2461 25.2617 40.0742 25.1289 39.8633C24.9961 39.6523 24.9297 39.4297 24.9297 39.1953H25.6562C25.6667 39.3932 25.724 39.5508 25.8281 39.668C25.9323 39.7826 26.0599 39.8646 26.2109 39.9141C26.362 39.9609 26.5117 39.9844 26.6602 39.9844C26.8581 39.9844 27.0234 39.9583 27.1562 39.9062C27.2917 39.8542 27.3945 39.7826 27.4648 39.6914C27.5352 39.6003 27.5703 39.4961 27.5703 39.3789Z" fill="#1C1D1F"/>
<path d="M29.9648 37.0859V42.125H29.2383V36.2734H29.9023L29.9648 37.0859ZM32.8125 38.3516V38.4336C32.8125 38.7409 32.776 39.026 32.7031 39.2891C32.6302 39.5495 32.5234 39.776 32.3828 39.9688C32.2448 40.1615 32.0742 40.3112 31.8711 40.418C31.668 40.5247 31.4349 40.5781 31.1719 40.5781C30.9036 40.5781 30.6667 40.5339 30.4609 40.4453C30.2552 40.3568 30.0807 40.2279 29.9375 40.0586C29.7943 39.8893 29.6797 39.6862 29.5938 39.4492C29.5104 39.2122 29.4531 38.9453 29.4219 38.6484V38.2109C29.4531 37.8984 29.5117 37.6185 29.5977 37.3711C29.6836 37.1237 29.7969 36.9128 29.9375 36.7383C30.0807 36.5612 30.2539 36.4271 30.457 36.3359C30.6602 36.2422 30.8945 36.1953 31.1602 36.1953C31.4258 36.1953 31.6615 36.2474 31.8672 36.3516C32.0729 36.4531 32.2461 36.599 32.3867 36.7891C32.5273 36.9792 32.6328 37.207 32.7031 37.4727C32.776 37.7357 32.8125 38.0286 32.8125 38.3516ZM32.0859 38.4336V38.3516C32.0859 38.1406 32.0638 37.9427 32.0195 37.7578C31.9753 37.5703 31.9062 37.4062 31.8125 37.2656C31.7214 37.1224 31.6042 37.0104 31.4609 36.9297C31.3177 36.8464 31.1471 36.8047 30.9492 36.8047C30.7669 36.8047 30.6081 36.8359 30.4727 36.8984C30.3398 36.9609 30.2266 37.0456 30.1328 37.1523C30.0391 37.2565 29.9622 37.3763 29.9023 37.5117C29.8451 37.6445 29.8021 37.7826 29.7734 37.9258V38.9375C29.8255 39.1198 29.8984 39.2917 29.9922 39.4531C30.0859 39.612 30.2109 39.7409 30.3672 39.8398C30.5234 39.9362 30.7201 39.9844 30.957 39.9844C31.1523 39.9844 31.3203 39.944 31.4609 39.8633C31.6042 39.7799 31.7214 39.6667 31.8125 39.5234C31.9062 39.3802 31.9753 39.2161 32.0195 39.0312C32.0638 38.8438 32.0859 38.6445 32.0859 38.4336Z" fill="#1C1D1F"/>
<path d="M35.4883 40.5781C35.194 40.5781 34.9271 40.5286 34.6875 40.4297C34.4505 40.3281 34.2461 40.1862 34.0742 40.0039C33.9049 39.8216 33.7747 39.6055 33.6836 39.3555C33.5924 39.1055 33.5469 38.832 33.5469 38.5352V38.3711C33.5469 38.0273 33.5977 37.7214 33.6992 37.4531C33.8008 37.1823 33.9388 36.9531 34.1133 36.7656C34.2878 36.5781 34.4857 36.4362 34.707 36.3398C34.9284 36.2435 35.1576 36.1953 35.3945 36.1953C35.6966 36.1953 35.957 36.2474 36.1758 36.3516C36.3971 36.4557 36.5781 36.6016 36.7188 36.7891C36.8594 36.974 36.9635 37.1927 37.0312 37.4453C37.099 37.6953 37.1328 37.9688 37.1328 38.2656V38.5898H33.9766V38H36.4102V37.9453C36.3997 37.7578 36.3607 37.5755 36.293 37.3984C36.2279 37.2214 36.1237 37.0755 35.9805 36.9609C35.8372 36.8464 35.6419 36.7891 35.3945 36.7891C35.2305 36.7891 35.0794 36.8242 34.9414 36.8945C34.8034 36.9622 34.6849 37.0638 34.5859 37.1992C34.487 37.3346 34.4102 37.5 34.3555 37.6953C34.3008 37.8906 34.2734 38.1159 34.2734 38.3711V38.5352C34.2734 38.7357 34.3008 38.9245 34.3555 39.1016C34.4128 39.276 34.4948 39.4297 34.6016 39.5625C34.7109 39.6953 34.8424 39.7995 34.9961 39.875C35.1523 39.9505 35.3294 39.9883 35.5273 39.9883C35.7826 39.9883 35.9987 39.9362 36.1758 39.832C36.3529 39.7279 36.5078 39.5885 36.6406 39.4141L37.0781 39.7617C36.987 39.8997 36.8711 40.0312 36.7305 40.1562C36.5898 40.2812 36.4167 40.3828 36.2109 40.4609C36.0078 40.5391 35.7669 40.5781 35.4883 40.5781Z" fill="#1C1D1F"/>
<path d="M39.668 39.9844C39.8398 39.9844 39.9987 39.9492 40.1445 39.8789C40.2904 39.8086 40.4102 39.7122 40.5039 39.5898C40.5977 39.4648 40.651 39.3229 40.6641 39.1641H41.3516C41.3385 39.4141 41.2539 39.6471 41.0977 39.8633C40.944 40.0768 40.7422 40.25 40.4922 40.3828C40.2422 40.513 39.9674 40.5781 39.668 40.5781C39.3503 40.5781 39.0729 40.5221 38.8359 40.4102C38.6016 40.2982 38.4062 40.1445 38.25 39.9492C38.0964 39.7539 37.9805 39.5299 37.9023 39.2773C37.8268 39.0221 37.7891 38.7526 37.7891 38.4688V38.3047C37.7891 38.0208 37.8268 37.7526 37.9023 37.5C37.9805 37.2448 38.0964 37.0195 38.25 36.8242C38.4062 36.6289 38.6016 36.4753 38.8359 36.3633C39.0729 36.2513 39.3503 36.1953 39.668 36.1953C39.9987 36.1953 40.2878 36.263 40.5352 36.3984C40.7826 36.5312 40.9766 36.7135 41.1172 36.9453C41.2604 37.1745 41.3385 37.4349 41.3516 37.7266H40.6641C40.651 37.5521 40.6016 37.3945 40.5156 37.2539C40.4323 37.1133 40.3177 37.0013 40.1719 36.918C40.0286 36.832 39.8607 36.7891 39.668 36.7891C39.4466 36.7891 39.2604 36.8333 39.1094 36.9219C38.9609 37.0078 38.8424 37.125 38.7539 37.2734C38.668 37.4193 38.6055 37.582 38.5664 37.7617C38.5299 37.9388 38.5117 38.1198 38.5117 38.3047V38.4688C38.5117 38.6536 38.5299 38.8359 38.5664 39.0156C38.6029 39.1953 38.6641 39.3581 38.75 39.5039C38.8385 39.6497 38.957 39.7669 39.1055 39.8555C39.2565 39.9414 39.444 39.9844 39.668 39.9844Z" fill="#1C1D1F"/>
<path d="M43.9336 36.2734V36.8281H41.6484V36.2734H43.9336ZM42.4219 35.2461H43.1445V39.4531C43.1445 39.5964 43.1667 39.7044 43.2109 39.7773C43.2552 39.8503 43.3125 39.8984 43.3828 39.9219C43.4531 39.9453 43.5286 39.957 43.6094 39.957C43.6693 39.957 43.7318 39.9518 43.7969 39.9414C43.8646 39.9284 43.9154 39.918 43.9492 39.9102L43.9531 40.5C43.8958 40.5182 43.8203 40.5352 43.7266 40.5508C43.6354 40.569 43.5247 40.5781 43.3945 40.5781C43.2174 40.5781 43.0547 40.543 42.9062 40.4727C42.7578 40.4023 42.6393 40.2852 42.5508 40.1211C42.4648 39.9544 42.4219 39.7305 42.4219 39.4492V35.2461Z" fill="#1C1D1F"/>
</svg>
