<svg width="50" height="50" viewBox="0 0 50 50" fill="none" xmlns="http://www.w3.org/2000/svg">
<path d="M21.4668 23.0449V26.3294H13.2606V32.1442H21.8625V35.5H9.22852V14.5H21.8625V17.8262H13.2666V23.0449H21.4668Z" fill="#486ECD"/>
<path d="M26.0085 35.4948C26.0085 34.5189 26.0047 33.56 26.0146 32.6011C26.0157 32.5034 26.0887 32.3992 26.1474 32.3108C27.8122 29.8074 29.4785 27.3056 31.1455 24.8033C32.5791 22.6517 34.0128 20.5006 35.4459 18.3485C35.4904 18.2821 35.5288 18.2118 35.5947 18.1031H26.3461V14.502H40.663C40.663 14.6139 40.663 14.7204 40.663 14.8263C40.663 15.6952 40.6707 16.5646 40.6559 17.433C40.6531 17.6026 40.5993 17.7969 40.5049 17.9357C37.8846 21.7998 35.256 25.6584 32.6291 29.5181C32.1203 30.2657 31.6104 31.0132 31.1016 31.7614C31.0769 31.7976 31.0588 31.8382 31.0165 31.9161H40.7706V35.4948H26.0085Z" fill="#486ECD"/>
</svg>
