<svg width="50" height="50" viewBox="0 0 50 50" fill="none" xmlns="http://www.w3.org/2000/svg">
<rect width="50" height="50" fill="#F5002E"/>
<path d="M13.5109 17.0094L13.4046 18.5263L15.2097 18.4218C15.2097 21.4228 15.2722 24.3854 15.5167 27.38C15.5725 27.7382 15.0716 27.758 14.8403 27.8233C14.6851 27.8671 14.599 27.7964 14.5029 27.6733C12.7261 25.24 11.8256 22.1916 12.028 19.1837C12.4744 12.0847 18.8947 6.47389 26.0413 7.03928C29.5706 7.31849 33.0747 9.09705 35.2174 11.9513C34.9576 11.9109 34.7113 11.8789 34.4802 11.835C32.3972 11.4563 30.3002 11.2475 28.1861 11.1474C28.1034 11.1474 28.0882 11.1828 28.068 11.2401C26.9311 14.5705 25.6326 17.8818 24.7058 21.277C26.5025 21.4475 28.3076 21.6718 30.0232 22.2579C31.3407 22.6731 32.7673 23.4649 33.2774 24.8249C34.0276 26.9811 31.9793 28.6993 29.949 28.6071C28.8404 28.5805 27.7928 28.0777 27.2076 27.1104C26.7015 26.33 26.1954 25.553 25.6893 24.776C25.6465 24.6784 25.5066 24.6414 25.4211 24.7052C24.8692 25.0082 24.4573 25.5535 24.0259 25.998C23.8925 26.1197 23.8496 26.3252 23.923 26.4901C24.2422 27.28 24.601 28.0528 24.9352 28.8363C24.9662 28.9244 25.041 28.9945 25.1309 29.02C26.5763 29.4316 28.0295 29.657 29.5407 29.6268C31.6904 29.5746 33.9252 28.7305 35.4233 27.1576C36.7544 25.7169 37.2873 23.687 36.9955 21.7641C36.6784 19.6493 35.0392 18.0226 33.1003 17.2639C31.541 16.6443 29.7249 16.2459 28.041 16.2459C28.2379 15.6153 28.4454 14.988 28.6449 14.3582C28.6543 14.2938 28.7252 14.2464 28.7883 14.2621C31.026 14.3985 33.2603 14.5729 35.4924 14.7812C35.6071 14.134 35.7202 13.4902 35.8298 12.8328C37.9031 15.8566 38.8175 20.3955 37.0984 24.7541C35.3199 29.2833 31.0281 32.5011 26.1836 32.9454C21.3571 33.3837 17.477 31.1066 15.456 28.8262C18.0253 29.2571 20.6231 29.496 23.228 29.5408V28.6644C22.4892 28.5991 21.7564 28.5443 21.0416 28.329C20.7353 28.2165 20.4738 28.0409 20.4529 27.6851C20.1721 24.5452 20.2302 21.392 20.2302 18.2381C21.2 18.2381 22.1692 18.212 23.1386 18.1842C23.184 18.1825 23.2286 18.1722 23.2702 18.1538C23.72 17.9403 24.1699 17.7246 24.6198 17.5066C24.6493 17.4918 24.6717 17.4643 24.6805 17.4325C24.6805 17.1223 24.6805 16.8105 24.6805 16.4768L20.2353 16.5442C20.2353 15.4806 20.3387 14.4078 20.3905 13.3452C20.371 12.4747 20.88 11.6435 21.8531 11.7457C22.9694 11.8513 23.961 12.4784 24.9622 12.934C25.1728 13.0157 25.4878 13.1014 25.6454 12.8817C25.8631 12.6255 26.0841 12.3761 26.3051 12.1131C26.4301 11.9968 26.408 11.7834 26.2663 11.6935C25.8057 11.3395 25.3401 10.9906 24.8846 10.6283C24.6644 10.4598 24.3975 10.3633 24.1204 10.3518C23.0121 10.2656 21.9376 10.3995 20.8628 10.6805C19.358 11.0783 17.9831 11.7423 16.841 12.8261C16.1799 13.4174 15.7145 14.1957 15.5066 15.0576C15.406 15.6109 15.35 16.1683 15.3109 16.7482C15.3109 16.8156 15.2789 16.8375 15.208 16.8442C14.6446 16.8948 14.0828 16.9504 13.521 17.0128C13.5177 17.0116 13.5143 17.0105 13.5109 17.0094Z" fill="white"/>
<path fill-rule="evenodd" clip-rule="evenodd" d="M26.1585 43.0093C25.9584 43.0573 25.7448 43.0813 25.5178 43.0813C23.8705 43.0813 23.0439 41.6489 23.0439 40.2276C23.0439 38.6985 23.6186 37 25.5093 37C26.9975 37 27.9789 38.0638 27.9789 39.8537C27.9789 40.8763 27.8373 42.0396 26.9081 42.6781L28 43.5122L27.4521 44L26.1585 43.0093ZM27.174 39.8455C27.174 40.953 26.9404 42.4187 25.5178 42.4187C24.5142 42.4187 23.8489 41.6364 23.8489 40.2276C23.8489 39.1387 24.0649 37.6667 25.5093 37.6667C26.5664 37.6667 27.174 38.4389 27.174 39.8455Z" fill="white"/>
<path d="M21.8134 43V37.0813H21V43H21.8134Z" fill="white"/>
</svg>
