<svg width="50" height="50" viewBox="0 0 50 50" fill="none" xmlns="http://www.w3.org/2000/svg">
<path d="M10.8015 17.9343L10.6747 19.7429L12.827 19.6183C12.827 23.1965 12.9015 26.7288 13.193 30.2993C13.2596 30.7263 12.6622 30.7499 12.3865 30.8278C12.2014 30.8801 12.0988 30.7957 11.9842 30.649C9.86574 27.7477 8.79209 24.113 9.03343 20.5267C9.56562 12.0625 17.2206 5.37271 25.7416 6.04683C29.9496 6.37974 34.1275 8.50033 36.6823 11.9035C36.3726 11.8553 36.0789 11.8171 35.8033 11.7649C33.3198 11.3133 30.8195 11.0643 28.2988 10.9449C28.2002 10.9449 28.1821 10.9871 28.158 11.0555C26.8024 15.0264 25.2543 18.9744 24.1492 23.0226C26.2914 23.2259 28.4436 23.4933 30.4892 24.1921C32.0601 24.6872 33.7611 25.6312 34.3692 27.2528C35.2637 29.8237 32.8215 31.8722 30.4007 31.7623C29.079 31.7306 27.8299 31.1311 27.1321 29.9778C26.5287 29.0473 25.9253 28.1209 25.3219 27.1945C25.2708 27.0781 25.104 27.034 25.002 27.1101C24.344 27.4714 23.853 28.1215 23.3386 28.6514C23.1796 28.7965 23.1283 29.0416 23.2159 29.2382C23.5965 30.18 24.0242 31.1014 24.4228 32.0356C24.4598 32.1406 24.5489 32.2242 24.6561 32.2546C26.3794 32.7454 28.1121 33.0141 29.9139 32.9781C32.477 32.9159 35.1415 31.9094 36.9277 30.034C38.5148 28.3163 39.1502 25.8961 38.8024 23.6033C38.4243 21.0818 36.4698 19.1424 34.158 18.2377C32.2988 17.499 30.1335 17.0239 28.1258 17.0239C28.3605 16.272 28.6079 15.5241 28.8459 14.7732C28.857 14.6965 28.9416 14.6399 29.0168 14.6587C31.6849 14.8213 34.3488 15.0293 37.0102 15.2776C37.147 14.5059 37.2817 13.7383 37.4125 12.9545C39.8845 16.5597 40.9747 21.9716 38.9251 27.1683C36.8045 32.5686 31.6874 36.4051 25.9112 36.9349C20.1566 37.4574 15.5303 34.7425 13.1206 32.0235C16.184 32.5373 19.2814 32.8221 22.3872 32.8756V31.8306C21.5064 31.7528 20.6327 31.6875 19.7804 31.4307C19.4152 31.2966 19.1034 31.0872 19.0784 30.663C18.7436 26.9192 18.8129 23.1597 18.8129 19.3993C19.9692 19.3993 21.1248 19.3682 22.2806 19.335C22.3347 19.333 22.388 19.3208 22.4375 19.2988C22.9739 19.0443 23.5102 18.787 24.0466 18.5271C24.0818 18.5094 24.1086 18.4767 24.119 18.4387C24.119 18.0689 24.119 17.6972 24.119 17.2993L18.819 17.3796C18.819 16.1114 18.9423 14.8323 19.004 13.5654C18.9808 12.5275 19.5877 11.5365 20.7479 11.6583C22.0789 11.7842 23.2612 12.532 24.4549 13.0751C24.706 13.1726 25.0816 13.2747 25.2696 13.0128C25.529 12.7074 25.7925 12.4099 26.056 12.0964C26.2051 11.9578 26.1788 11.7033 26.0098 11.5961C25.4607 11.174 24.9055 10.7581 24.3624 10.326C24.0998 10.1252 23.7817 10.0101 23.4512 9.99642C22.1298 9.89354 20.8487 10.0533 19.5672 10.3883C17.773 10.8626 16.1337 11.6543 14.772 12.9465C13.9837 13.6516 13.4288 14.5795 13.181 15.6072C13.061 16.2668 12.9942 16.9314 12.9476 17.6228C12.9476 17.7032 12.9094 17.7293 12.8249 17.7373C12.1531 17.7976 11.4833 17.864 10.8135 17.9383C10.8095 17.9369 10.8055 17.9355 10.8015 17.9343Z" fill="#F5002E"/>
<path fill-rule="evenodd" clip-rule="evenodd" d="M25.8703 46.0111C25.6384 46.0688 25.391 46.0977 25.1279 46.0977C23.2194 46.0977 22.2617 44.3771 22.2617 42.6699C22.2617 40.8331 22.9276 38.793 25.1182 38.793C26.8424 38.793 27.9795 40.0708 27.9795 42.2207C27.9795 43.4491 27.8154 44.8464 26.7388 45.6134L28.0039 46.6152L27.3691 47.2012L25.8703 46.0111ZM27.0469 42.2109C27.0469 43.5412 26.7762 45.3018 25.1279 45.3018C23.9651 45.3018 23.1943 44.3621 23.1943 42.6699C23.1943 41.3619 23.4446 39.5938 25.1182 39.5938C26.3429 39.5938 27.0469 40.5214 27.0469 42.2109Z" fill="black"/>
<path d="M20.8359 46V38.8906H19.8936V46H20.8359Z" fill="black"/>
</svg>
