<svg width="50" height="50" viewBox="0 0 50 50" fill="none" xmlns="http://www.w3.org/2000/svg">
<path d="M36.5491 12.0936C36.3777 12.8032 36.2874 13.5372 36.1222 14.2888C34.0227 14.0166 31.5565 13.8171 28.7865 13.7198C28.5639 14.4197 28.354 15.1105 28.1132 15.8621C32.7476 16.1462 35.0004 17.3675 36.3357 18.8077C37.4303 20.0422 37.983 21.7213 37.8354 23.3646C37.7966 24.412 37.5084 25.4378 36.9976 26.3516C35.6948 28.6816 33.0005 30.0186 30.4101 30.2581C28.2889 30.417 25.4517 29.9121 24.8485 29.5419C24.4853 28.7154 24.1269 27.8819 23.742 26.9735C23.607 26.781 23.6604 26.4849 23.854 26.3516C24.2669 25.9562 24.6644 25.5724 25.0808 25.1679C25.2656 24.9873 25.4699 24.818 25.6253 25.0776C26.1964 25.9581 26.7304 26.765 27.2664 27.5705C29.0227 30.1584 33.4702 29.4502 33.959 26.2942C34.1081 23.6746 31.4564 21.8152 24.5636 21.2203C25.8856 17.2256 27.1755 13.3603 28.2063 10.2879C29.8439 10.3635 31.3598 10.4978 32.8078 10.684C33.8792 10.824 34.8744 11.0695 35.8717 11.185C34.561 9.56369 32.904 8.25663 31.0222 7.35938C29.1404 6.46213 27.0816 5.99769 24.9968 6.00001C21.2847 6.00001 17.7245 7.47471 15.0996 10.0996C12.4747 12.7246 11 16.2847 11 19.9969C10.9961 22.9823 11.9512 25.89 13.7245 28.2915C14.3173 28.2957 14.7281 28.1632 14.7743 27.9071C14.8099 27.541 14.7972 27.1719 14.7365 26.8091C14.4497 23.9238 14.3582 21.0223 14.4628 18.1246C13.7532 18.1554 13.1163 18.1877 12.5033 18.2234C12.5285 17.674 12.5579 17.1535 12.602 16.6139C13.2052 16.5565 13.8449 16.5052 14.5468 16.4464C14.5769 15.9726 14.6112 15.5152 14.6518 15.0526C14.9667 12.2182 17.9522 10.4837 20.4381 9.81396C21.194 9.61374 21.9674 9.48629 22.7476 9.43329C23.4264 9.41091 24.0938 9.37285 24.7197 9.69299C25.2558 10.0947 25.7863 10.4945 26.3496 10.9403C26.4063 11.0159 26.4672 11.1346 26.3272 11.3418C26.0683 11.6441 25.8185 11.9339 25.5574 12.2446C25.4063 12.4287 25.1543 12.3796 24.943 12.3229C24.4993 12.0954 24.0724 11.887 23.6399 11.6777C22.8703 11.2626 22.0147 11.0322 21.1407 11.0045C20.4738 11.1353 19.9776 11.7359 19.9748 12.4155C19.8971 13.6157 19.8446 14.8467 19.8005 16.1799C21.3668 16.1351 22.9281 16.1101 24.5762 16.101C24.5762 16.4761 24.5762 16.8195 24.5762 17.203C24.0395 17.4438 23.5321 17.6866 22.9932 17.9322C21.8818 17.9441 20.8237 17.9533 19.7592 17.9722C19.7102 21.1439 19.7592 24.3028 19.8992 27.224C19.8977 27.6272 19.9572 28.0284 20.0756 28.4139C20.2274 28.7904 21.1015 29.0808 23.0037 29.1879C23.0107 29.5189 23.0205 29.831 23.0303 30.1522C20.1962 30.0826 17.3707 29.8101 14.5755 29.3369C15.8867 30.8053 17.4935 31.9802 19.2907 32.7838C21.0878 33.5875 23.0345 34.0018 25.0031 34C28.7153 34 32.2755 32.5253 34.9004 29.9004C37.5253 27.2754 39 23.7153 39 20.0031C39.0044 17.1818 38.152 14.4258 36.5554 12.0997" fill="#E71B2A"/>
<path d="M20.1836 38.5V46H19.2754V38.5H20.1836Z" fill="#1C1D1F"/>
<path fill-rule="evenodd" clip-rule="evenodd" d="M36.2192 45.4294L36.2627 46H37.0928V38.5H36.1846V41.2494C35.8422 40.8398 35.3609 40.6191 34.7197 40.6191C33.2646 40.6191 32.6299 42.0539 32.6299 43.3145C32.6299 44.5801 33.2622 46.0977 34.71 46.0977C35.3793 46.0977 35.8752 45.8609 36.2192 45.4294ZM36.1846 42.1402V44.5564C35.9507 45.0072 35.5761 45.3311 34.9346 45.3311C33.8658 45.3311 33.5381 44.2239 33.5381 43.3145C33.5381 42.4314 33.8933 41.3809 34.9443 41.3809C35.5765 41.3809 35.9572 41.7042 36.1846 42.1402Z" fill="#1C1D1F"/>
<path d="M30.5945 45.4773L30.6133 46H31.4775V40.7168H30.5693V44.5582C30.3652 45.0294 29.9384 45.3311 29.1924 45.3311C28.7057 45.3311 28.2207 45.083 28.2207 44.1348V40.7168H27.3174V44.125C27.3174 45.5402 28.0335 46.0977 29.0508 46.0977C29.7643 46.0977 30.2666 45.8672 30.5945 45.4773Z" fill="#1C1D1F"/>
<path fill-rule="evenodd" clip-rule="evenodd" d="M21.3945 43.417C21.3945 44.8371 22.3338 46.0977 23.8018 46.0977C25.2685 46.0977 26.2041 44.8338 26.2041 43.417C26.2041 41.9999 25.3387 40.6191 23.792 40.6191C22.2671 40.6191 21.3945 41.977 21.3945 43.417ZM22.2979 43.417C22.2979 42.4962 22.6944 41.3613 23.792 41.3613C24.8728 41.3613 25.2959 42.4766 25.2959 43.417C25.2959 44.3325 24.826 45.3555 23.8018 45.3555C22.7947 45.3555 22.2979 44.464 22.2979 43.417Z" fill="#1C1D1F"/>
<path d="M18.0547 43.7393H17.1172C16.9615 44.7317 16.5628 45.3311 15.3594 45.3311C14.0285 45.3311 13.5234 43.9588 13.5234 42.8018C13.5234 41.4645 13.6771 39.5645 15.4424 39.5645C16.4319 39.5645 16.9847 40.2057 17.1172 41.1709H18.0547C17.9079 39.762 17.0522 38.793 15.4424 38.793C13.1665 38.793 12.5859 40.9474 12.5859 42.8018C12.5859 44.474 13.5712 46.0977 15.3594 46.0977C16.8222 46.0977 17.898 45.1812 18.0547 43.7393Z" fill="#1C1D1F"/>
</svg>
