<svg width="50" height="50" viewBox="0 0 50 50" fill="none" xmlns="http://www.w3.org/2000/svg">
<rect width="50" height="50" fill="#E71B2A"/>
<path d="M35.7242 13.756C35.565 14.4149 35.4812 15.0965 35.3278 15.7944C33.3782 15.5416 31.0881 15.3564 28.516 15.2661C28.3094 15.9159 28.1144 16.5574 27.8909 17.2553C32.1942 17.5192 34.2861 18.6531 35.526 19.9906C36.5425 21.1368 37.0556 22.696 36.9186 24.2219C36.8825 25.1945 36.615 26.1471 36.1406 26.9956C34.9309 29.1591 32.429 30.4007 30.0237 30.6231C28.054 30.7706 25.4195 30.3018 24.8593 29.958C24.522 29.1905 24.1893 28.4166 23.8319 27.5731C23.7065 27.3943 23.7561 27.1194 23.9359 26.9956C24.3193 26.6284 24.6884 26.272 25.0751 25.8964C25.2466 25.7287 25.4364 25.5715 25.5806 25.8126C26.1109 26.6301 26.6068 27.3794 27.1045 28.1274C28.7353 30.5305 32.8651 29.8729 33.3191 26.9422C33.4575 24.5098 30.9952 22.7832 24.5948 22.2308C25.8224 18.5214 27.0201 14.9322 27.9773 12.0793C29.498 12.1495 30.9055 12.2742 32.2501 12.4471C33.245 12.577 34.1691 12.805 35.0951 12.9123C33.8781 11.4068 32.3395 10.1931 30.5921 9.35994C28.8447 8.52678 26.9329 8.09551 24.9971 8.09766C21.55 8.09766 18.2442 9.46703 15.8068 11.9045C13.3693 14.3419 12 17.6477 12 21.0948C11.9964 23.8669 12.8833 26.5669 14.5299 28.7969C15.0803 28.8008 15.4618 28.6778 15.5047 28.44C15.5378 28.1 15.526 27.7573 15.4696 27.4204C15.2033 24.7412 15.1184 22.0469 15.2155 19.3562C14.5565 19.3848 13.9652 19.4148 13.3959 19.4479C13.4193 18.9378 13.4466 18.4544 13.4875 17.9534C14.0477 17.9001 14.6417 17.8525 15.2935 17.7979C15.3214 17.358 15.3533 16.9332 15.3909 16.5036C15.6834 13.8717 18.4556 12.2611 20.7639 11.6392C21.4659 11.4533 22.184 11.3349 22.9084 11.2857C23.5388 11.2649 24.1585 11.2296 24.7397 11.5269C25.2375 11.8999 25.7301 12.2711 26.2532 12.6851C26.3059 12.7552 26.3624 12.8655 26.2324 13.0579C25.992 13.3386 25.76 13.6077 25.5176 13.8962C25.3772 14.0672 25.1433 14.0215 24.947 13.9689C24.535 13.7577 24.1386 13.5641 23.737 13.3698C23.0224 12.9844 22.2279 12.7704 21.4164 12.7447C20.7971 12.8661 20.3363 13.4239 20.3337 14.0549C20.2616 15.1694 20.2129 16.3124 20.1719 17.5504C21.6263 17.5088 23.0761 17.4856 24.6065 17.4771C24.6065 17.8254 24.6065 18.1443 24.6065 18.5005C24.1081 18.724 23.6369 18.9495 23.1365 19.1776C22.1046 19.1886 21.122 19.1972 20.1336 19.2147C20.0881 22.1599 20.1336 25.0931 20.2635 27.8057C20.2622 28.18 20.3174 28.5526 20.4273 28.9105C20.5683 29.2602 21.38 29.5298 23.1463 29.6293C23.1528 29.9366 23.1619 30.2264 23.171 30.5247C20.5393 30.4601 17.9156 30.207 15.3201 29.7676C16.5376 31.1312 18.0297 32.2221 19.6985 32.9683C21.3672 33.7146 23.1749 34.0993 25.0029 34.0977C28.45 34.0977 31.7558 32.7283 34.1932 30.2908C36.6307 27.8534 38 24.5476 38 21.1005C38.0041 18.4808 37.2126 15.9216 35.73 13.7617" fill="white"/>
<path d="M20.1305 37.0977V44.0077H19.2781V37.0977H20.1305Z" fill="white"/>
<path fill-rule="evenodd" clip-rule="evenodd" d="M35.1802 43.482L35.221 44.0077H36V37.0977H35.1476V39.6308C34.8263 39.2534 34.3746 39.0501 33.7729 39.0501C32.4072 39.0501 31.8115 40.372 31.8115 41.5334C31.8115 42.6995 32.405 44.0977 33.7637 44.0977C34.3919 44.0977 34.8573 43.8796 35.1802 43.482ZM35.1476 40.4515V42.6776C34.9281 43.093 34.5765 43.3914 33.9745 43.3914C32.9714 43.3914 32.6639 42.3713 32.6639 41.5334C32.6639 40.7198 32.9973 39.7519 33.9837 39.7519C34.577 39.7519 34.9343 40.0498 35.1476 40.4515Z" fill="white"/>
<path d="M29.9012 43.5261L29.9189 44.0077H30.73V39.1401H29.8777V42.6793C29.6861 43.1134 29.2856 43.3914 28.5854 43.3914C28.1286 43.3914 27.6734 43.1628 27.6734 42.2892V39.1401H26.8257V42.2802C26.8257 43.584 27.4978 44.0977 28.4525 44.0977C29.1222 44.0977 29.5936 43.8854 29.9012 43.5261Z" fill="white"/>
<path fill-rule="evenodd" clip-rule="evenodd" d="M21.267 41.6279C21.267 42.9363 22.1485 44.0977 23.5262 44.0977C24.9028 44.0977 25.7808 42.9332 25.7808 41.6279C25.7808 40.3222 24.9686 39.0501 23.517 39.0501C22.0859 39.0501 21.267 40.3011 21.267 41.6279ZM22.1148 41.6279C22.1148 40.7795 22.4869 39.7339 23.517 39.7339C24.5314 39.7339 24.9285 40.7615 24.9285 41.6279C24.9285 42.4714 24.4875 43.4139 23.5262 43.4139C22.5811 43.4139 22.1148 42.5925 22.1148 41.6279Z" fill="white"/>
<path d="M18.1325 41.9248H17.2526C17.1065 42.8391 16.7323 43.3914 15.6029 43.3914C14.3539 43.3914 13.8799 42.1271 13.8799 41.061C13.8799 39.829 14.0241 38.0784 15.6808 38.0784C16.6095 38.0784 17.1283 38.6692 17.2526 39.5585H18.1325C17.9948 38.2603 17.1916 37.3676 15.6808 37.3676C13.5449 37.3676 13 39.3526 13 41.061C13 42.6017 13.9247 44.0977 15.6029 44.0977C16.9758 44.0977 17.9854 43.2533 18.1325 41.9248Z" fill="white"/>
</svg>
