<svg width="50" height="50" viewBox="0 0 50 50" fill="none" xmlns="http://www.w3.org/2000/svg">
<path d="M42.1975 29.5047C42.2987 27.5059 41.9275 25.3497 40.1875 23.3997C38.3987 21.4722 35.38 19.8372 29.1737 19.4547C29.4962 18.4497 29.7775 17.5272 30.0737 16.5859C33.7862 16.7172 37.09 16.9834 39.8987 17.3472C40.1237 16.3422 40.2437 15.3597 40.4725 14.4072C40.1875 13.9897 39.885 13.5847 39.565 13.1922C38.23 13.0347 36.895 12.7047 35.4625 12.5172C33.4157 12.256 31.3589 12.0796 29.2975 11.9884C27.6595 16.8658 26.0332 21.747 24.4187 26.6322C33.6512 27.4309 37.2062 29.9209 37 33.4309C36.8125 35.3284 35.0837 37.0497 32.8 37.2559C30.0925 37.4397 28.8512 36.3409 28.0375 35.1409C27.2976 34.0325 26.5638 32.92 25.8362 31.8034C25.63 31.4584 25.3562 31.6834 25.1087 31.9234C24.5616 32.4539 24.0129 32.9826 23.4625 33.5097C23.11 33.8172 23.1887 34.0834 23.3125 34.3422C23.8004 35.4927 24.2954 36.6402 24.7975 37.7847C25.6037 38.2797 29.4062 38.9547 32.2487 38.7447C34.5373 38.5329 36.7246 37.7005 38.575 36.3372C40.5437 34.8109 41.9762 32.7559 42.1975 29.5047Z" fill="white"/>
<path d="M9.89877 36.1047C10.2538 36.5872 10.6313 37.0509 11.0313 37.4959C14.7752 38.1317 18.5599 38.4976 22.3563 38.5909L22.3188 37.2972C19.7725 37.1547 18.6025 36.7647 18.4 36.2622C18.2275 35.8609 18.1975 35.2609 18.1638 34.6722C17.9699 30.544 17.9074 26.4106 17.9763 22.2784C19.4013 22.2522 20.8188 22.2409 22.3075 22.2222C23.0275 21.8959 23.7063 21.5697 24.4263 21.2472L24.43 19.7734C22.225 19.7809 20.1325 19.8184 18.0325 19.8784C18.0925 18.0897 18.1638 16.4434 18.2688 14.8347C18.3438 13.7772 19.075 13.0047 19.8288 12.9447C21.04 12.8959 22.1238 13.3797 23.1775 13.8447C23.755 14.1259 24.3288 14.4072 24.9213 14.7072C25.2063 14.7822 25.5438 14.8497 25.7463 14.6059C26.0988 14.1859 26.4325 13.7997 26.7775 13.3947C26.965 13.1172 26.8862 12.9597 26.8075 12.8584C26.0872 12.2916 25.3597 11.734 24.625 11.1859C24.1825 10.8859 23.4813 10.8222 22.7875 10.8222C22.5138 10.8222 22.24 10.8297 21.9813 10.8372C21.2725 10.8747 20.3688 10.9872 18.8913 11.3509C15.5613 12.2472 11.5638 14.5684 11.14 18.3634C11.0859 18.9866 11.0396 19.6104 11.0013 20.2347C10.06 20.3097 9.20127 20.3809 8.39503 20.4597C8.33794 21.1788 8.29418 21.8989 8.26378 22.6197C9.08127 22.5709 9.93627 22.5259 10.8888 22.4847C10.7463 26.4672 10.8775 30.4384 11.2525 34.1209C11.3163 34.6797 11.3763 35.2347 11.305 35.5909C11.245 35.9322 10.6938 36.1122 9.89877 36.1047Z" fill="white"/>
<path d="M40.4762 14.4072C40.2437 15.356 40.1237 16.3422 39.9025 17.3472C37.09 16.9835 33.79 16.7172 30.0775 16.586C29.7775 17.5235 29.4962 18.4497 29.1775 19.4547C35.3837 19.8372 38.4025 21.4722 40.1912 23.3997C41.9312 25.3497 42.2987 27.5059 42.1975 29.5047C41.9725 32.7559 40.5437 34.811 38.575 36.3335C36.5875 37.8335 34.1762 38.576 32.2487 38.741C29.41 38.951 25.6112 38.276 24.8012 37.781C24.2985 36.6368 23.8035 35.4893 23.3162 34.3385C23.1925 34.0797 23.1137 33.8135 23.4662 33.506C24.0167 32.9789 24.5654 32.4502 25.1125 31.9197C25.36 31.6797 25.6337 31.4547 25.84 31.7997C26.605 32.9772 27.3212 34.061 28.0375 35.1372C28.8512 36.3372 30.0925 37.436 32.8075 37.2522C35.0837 37.0497 36.82 35.3247 37.0037 33.4272C37.2025 29.9172 33.6512 27.4272 24.415 26.6285C26.1887 21.281 27.9175 16.106 29.2975 11.9922C31.4912 12.0935 33.52 12.2735 35.4625 12.5247C36.895 12.7047 38.23 13.0384 39.565 13.1922C37.1251 10.1826 33.8129 8.00275 30.0836 6.95231C26.3544 5.90187 22.3913 6.03245 18.7393 7.3261C15.0873 8.61976 11.9258 11.013 9.68932 14.1766C7.45287 17.3403 6.25137 21.1191 6.25002 24.9935C6.24421 28.9925 7.52331 32.8876 9.89877 36.1047C10.6938 36.1122 11.245 35.9322 11.305 35.5909C11.3763 35.2309 11.3163 34.6797 11.2525 34.1209C10.8775 30.4384 10.7463 26.4672 10.885 22.4847C10.0097 22.5228 9.13465 22.5678 8.26002 22.6197C8.29752 21.881 8.33503 21.1834 8.39503 20.4597C9.20502 20.3809 10.06 20.3097 11.0013 20.2347C11.0388 19.5972 11.0838 18.986 11.14 18.3672C11.5638 14.5685 15.5613 12.2434 18.8913 11.3509C19.9025 11.0823 20.9373 10.9116 21.9812 10.841C22.24 10.8297 22.5138 10.8222 22.7912 10.8222C23.4812 10.8222 24.1788 10.8859 24.625 11.1859C25.345 11.7259 26.05 12.2622 26.8075 12.8584C26.8825 12.9597 26.965 13.1209 26.7775 13.3947L25.75 14.606C25.5475 14.8497 25.21 14.786 24.925 14.711C24.3325 14.4072 23.7625 14.126 23.1812 13.8485C22.1312 13.3797 21.0438 12.896 19.8325 12.9485C19.0788 13.0047 18.3475 13.7772 18.2725 14.8347C18.1675 16.4435 18.0963 18.0897 18.0363 19.8785C20.1363 19.8185 22.2287 19.781 24.4375 19.7697L24.4337 21.2472C23.7137 21.5697 23.035 21.896 22.3112 22.2222C20.8225 22.241 19.405 22.2522 17.98 22.2785C17.9106 26.4107 17.9731 30.544 18.1675 34.6722C18.205 35.261 18.235 35.861 18.4038 36.2585C18.6063 36.7647 19.7763 37.151 22.3263 37.2972L22.3638 38.5872C18.5676 38.4966 14.7828 38.1331 11.0388 37.4997C13.5718 40.3252 16.9025 42.3157 20.5908 43.2081C24.2791 44.1004 28.1514 43.8527 31.6959 42.4975C35.2404 41.1424 38.2902 38.7437 40.4425 35.6183C42.5947 32.493 43.748 28.7882 43.75 24.9935C43.7566 21.2134 42.6149 17.5204 40.4762 14.4035V14.4072Z" fill="#E4002B"/>
</svg>
