<svg width="50" height="50" viewBox="0 0 50 50" fill="none" xmlns="http://www.w3.org/2000/svg">
<rect width="50" height="50" fill="#F5002E"/>
<path d="M13.5109 17.0094L13.4046 18.5263L15.2097 18.4218C15.2097 21.4228 15.2722 24.3854 15.5167 27.38C15.5725 27.7382 15.0716 27.758 14.8403 27.8233C14.6851 27.8671 14.599 27.7964 14.5029 27.6733C12.7261 25.24 11.8256 22.1916 12.028 19.1837C12.4744 12.0847 18.8947 6.47389 26.0413 7.03928C29.5706 7.31849 33.0747 9.09705 35.2174 11.9513C34.9576 11.9109 34.7113 11.8789 34.4802 11.835C32.3972 11.4563 30.3002 11.2475 28.1861 11.1474C28.1034 11.1474 28.0882 11.1828 28.068 11.2401C26.9311 14.5705 25.6326 17.8818 24.7058 21.277C26.5025 21.4475 28.3076 21.6718 30.0232 22.2579C31.3407 22.6731 32.7673 23.4649 33.2774 24.8249C34.0276 26.9811 31.9793 28.6993 29.949 28.6071C28.8404 28.5805 27.7928 28.0777 27.2076 27.1104C26.7015 26.33 26.1954 25.553 25.6893 24.776C25.6465 24.6784 25.5066 24.6414 25.4211 24.7052C24.8692 25.0082 24.4573 25.5535 24.0259 25.998C23.8925 26.1197 23.8496 26.3252 23.923 26.4901C24.2422 27.28 24.601 28.0528 24.9352 28.8363C24.9662 28.9244 25.041 28.9945 25.1309 29.02C26.5763 29.4316 28.0295 29.657 29.5407 29.6268C31.6904 29.5746 33.9252 28.7305 35.4233 27.1576C36.7544 25.7169 37.2873 23.687 36.9955 21.7641C36.6784 19.6493 35.0392 18.0226 33.1003 17.2639C31.541 16.6443 29.7249 16.2459 28.041 16.2459C28.2379 15.6153 28.4454 14.988 28.6449 14.3582C28.6543 14.2938 28.7252 14.2464 28.7883 14.2621C31.026 14.3985 33.2603 14.5729 35.4924 14.7812C35.6071 14.134 35.7202 13.4902 35.8298 12.8328C37.9031 15.8566 38.8175 20.3955 37.0984 24.7541C35.3199 29.2834 31.0281 32.5011 26.1836 32.9454C21.3571 33.3837 17.477 31.1066 15.456 28.8262C18.0253 29.2571 20.6231 29.496 23.228 29.5408V28.6644C22.4892 28.5991 21.7564 28.5443 21.0416 28.329C20.7353 28.2165 20.4738 28.0409 20.4529 27.6851C20.1721 24.5452 20.2302 21.392 20.2302 18.2381C21.2 18.2381 22.1692 18.212 23.1386 18.1842C23.184 18.1825 23.2286 18.1722 23.2702 18.1538C23.72 17.9403 24.1699 17.7246 24.6198 17.5066C24.6493 17.4918 24.6717 17.4643 24.6805 17.4325C24.6805 17.1223 24.6805 16.8105 24.6805 16.4768L20.2353 16.5442C20.2353 15.4806 20.3387 14.4078 20.3905 13.3452C20.371 12.4747 20.88 11.6435 21.8531 11.7457C22.9694 11.8513 23.961 12.4784 24.9622 12.934C25.1728 13.0157 25.4878 13.1014 25.6454 12.8817C25.8631 12.6255 26.0841 12.3761 26.3051 12.1131C26.4301 11.9968 26.408 11.7834 26.2663 11.6935C25.8057 11.3395 25.3401 10.9906 24.8846 10.6283C24.6644 10.4598 24.3975 10.3633 24.1204 10.3518C23.0121 10.2656 21.9376 10.3995 20.8628 10.6805C19.358 11.0783 17.9831 11.7423 16.841 12.8261C16.1799 13.4174 15.7145 14.1957 15.5066 15.0576C15.406 15.6109 15.35 16.1683 15.3109 16.7482C15.3109 16.8156 15.2789 16.8375 15.208 16.8442C14.6446 16.8948 14.0828 16.9504 13.521 17.0128C13.5177 17.0116 13.5143 17.0105 13.5109 17.0094Z" fill="white"/>
<path fill-rule="evenodd" clip-rule="evenodd" d="M25.8271 37.1572C26.8688 37.1574 27.5938 37.6862 27.5938 38.748V40.9629C27.5938 41.3198 27.7607 41.6611 27.7607 42H26.9121C26.8424 41.8406 26.8188 41.6657 26.7998 41.4941C26.4995 41.8097 26.0427 42.0879 25.4443 42.0879C24.4831 42.0879 23.8362 41.4688 23.8359 40.6777C23.8359 39.6453 24.6846 39.1172 25.9766 39.1172H26.7803C26.7803 38.4023 26.57 37.8125 25.7783 37.8125C25.1722 37.8125 24.75 38.1627 24.75 38.5635H23.9375C23.9375 37.6319 25.0317 37.1572 25.8271 37.1572ZM26.1084 39.6885C25.1896 39.6885 24.6533 39.9724 24.6533 40.5674C24.6533 41.0165 24.9693 41.376 25.5635 41.376C26.0613 41.3758 26.5554 41.11 26.7803 40.6582V39.6885H26.1084Z" fill="white"/>
<path d="M39.917 37.1572C41.0557 37.1572 41.7275 37.8203 41.7275 38.6426H40.915C40.915 38.1171 40.3833 37.8252 39.917 37.8252C39.2548 37.8252 38.9727 38.1671 38.9727 38.5244C38.9729 38.8674 39.1658 39.0564 40.0664 39.2578C41.2346 39.5213 41.7764 39.9134 41.7764 40.6777C41.776 41.6599 40.787 42.0878 39.9395 42.0879C39.0291 42.0879 37.9922 41.5721 37.9922 40.5322H38.8096C38.8417 41.1432 39.39 41.4199 39.9395 41.4199C40.6143 41.4198 40.9626 41.1322 40.9629 40.7393C40.9629 40.3861 40.809 40.1015 39.8691 39.917C38.8313 39.6979 38.1553 39.3383 38.1553 38.5459C38.1553 37.6381 39.1074 37.1572 39.917 37.1572Z" fill="white"/>
<path d="M9.59082 41.3105H12.623V42H8.74219V35.6016H9.59082V41.3105Z" fill="white"/>
<path fill-rule="evenodd" clip-rule="evenodd" d="M15.1514 35.6016C16.4617 35.6017 17.2383 36.1126 17.2383 37.3066C17.2383 37.8941 16.8772 38.3782 16.293 38.6309C17.0064 38.8204 17.4102 39.4324 17.4102 40.1543C17.4102 41.3383 16.5873 42 15.2959 42H13.0547V35.6016H15.1514ZM13.9033 41.3105H15.2959C16.1146 41.3105 16.5664 40.8572 16.5664 40.1631C16.5664 39.4515 16.1965 39.008 15.3359 39.0078H13.9033V41.3105ZM13.9033 38.3262H15.1777C15.9124 38.326 16.3906 37.93 16.3906 37.2979C16.3906 36.5943 15.9977 36.296 15.1514 36.2959H13.9033V38.3262Z" fill="white"/>
<path d="M23.7783 36.2959H20.6631V38.4805H23.3438V39.1748H20.6631V42H19.8145V35.6016H23.7783V36.2959Z" fill="white"/>
<path d="M30.2705 37.1572C30.387 37.1573 30.5722 37.1894 30.6309 37.2188L30.626 37.9746C30.4942 37.946 30.3863 37.9395 30.2305 37.9395C29.6818 37.9395 29.3257 38.2001 29.1455 38.6201V42H28.332V37.2451H29.123L29.1387 37.791C29.1407 37.7877 29.1435 37.7845 29.1455 37.7812C29.3879 37.3853 29.7599 37.1572 30.2705 37.1572Z" fill="white"/>
<path d="M35.9092 37.1572C36.6798 37.1574 37.1885 37.4554 37.3984 38.1025C37.4687 38.3192 37.5039 38.5774 37.5039 38.876V42H36.6865V38.8672C36.6865 38.0673 36.298 37.8429 35.6719 37.8428C35.0246 37.8428 34.6334 38.2835 34.5732 38.8359V42H33.7598V38.8711C33.7598 38.1269 33.3585 37.8429 32.7451 37.8428C32.1653 37.8428 31.8309 38.1149 31.6504 38.5195V42H30.833V37.2451H31.6064L31.6299 37.7656C31.9524 37.3791 32.4239 37.1572 33.0352 37.1572C33.6459 37.1574 34.1448 37.3883 34.3965 37.918C34.7139 37.4601 35.2305 37.1572 35.9092 37.1572Z" fill="white"/>
</svg>
