<svg width="50" height="50" viewBox="0 0 50 50" fill="none" xmlns="http://www.w3.org/2000/svg">
<path d="M11 10.9643L22.8515 9.41083L22.8566 20.4143L11.0108 20.4792L11 10.9643ZM22.8458 21.682L22.8549 32.695L11.0092 31.1274L11.0085 21.6082L22.8458 21.682ZM24.2825 9.20748L39.9964 7V20.2743L24.2825 20.3942V9.20748ZM40 21.7856L39.9963 35L24.2823 32.8653L24.2604 21.7608L40 21.7856Z" fill="#00ADEF"/>
<path d="M26.1325 42.1845C26.1325 41.5486 25.8293 41.2445 24.5789 40.865C23.2815 40.4644 22.4595 39.9124 22.4595 38.8529C22.4595 37.7834 23.3521 37 24.6821 37C25.8186 37 26.9856 37.751 26.9856 39.0588H26.1235C26.1235 38.2837 25.6534 37.7393 24.6821 37.7393C23.7597 37.7393 23.3261 38.2036 23.3261 38.8436C23.3261 39.4195 23.7955 39.7715 24.8572 40.0789C26.3399 40.515 27.0036 41.1092 27.0036 42.1751C27.0036 43.2821 26.1128 44 24.7225 44C23.5537 44 22.2529 43.2714 22.2529 41.9318H23.1151C23.1151 42.8663 23.8937 43.2654 24.7225 43.2654C25.6323 43.2654 26.1325 42.8449 26.1325 42.1845Z" fill="#7F8BA5"/>
<path d="M38 41.74H37.1379C36.9947 42.691 36.6281 43.2654 35.5214 43.2654C34.2976 43.2654 33.8331 41.9504 33.8331 40.8416C33.8331 39.5601 33.9745 37.7393 35.5978 37.7393C36.5077 37.7393 37.0161 38.3538 37.1379 39.2787H38C37.8614 37.8919 36.9134 37 35.5978 37C33.5049 37 32.971 39.0646 32.971 40.8416C32.971 42.4441 33.8771 44 35.5214 44C36.8667 44 37.8559 43.1218 38 41.74Z" fill="#7F8BA5"/>
<path d="M28.9747 40.1584V37.8329H32.1583V37.0936H28.1081V43.9064H28.9747V40.8977H31.7138V40.1584H28.9747Z" fill="#7F8BA5"/>
<path d="M17.5023 37.0936L16.0247 42.6564L14.8621 37.0936H14L15.585 43.9064H16.3708L17.8699 38.4202L19.3209 43.9064H20.1066L21.6872 37.0936H20.8206L19.6714 42.6763L18.2253 37.0936H17.5023Z" fill="#7F8BA5"/>
</svg>
