<svg width="50" height="50" viewBox="0 0 50 50" fill="none" xmlns="http://www.w3.org/2000/svg">
<path d="M10 10.1059L22.2602 8.49693L22.2654 19.8934L10.0111 19.9606L10 10.1059ZM22.2543 21.2063L22.2637 32.6127L10.0095 30.9891L10.0088 21.1299L22.2543 21.2063ZM23.7405 8.28631L39.9962 6V19.7484L23.7405 19.8726V8.28631ZM40 21.3136L39.9961 35L23.7404 32.789L23.7176 21.288L40 21.3136Z" fill="#00ADEF"/>
<path d="M25.4912 43.8906C25.4912 43.2271 25.1615 42.9097 23.8018 42.5137C22.3909 42.0956 21.4971 41.5196 21.4971 40.4141C21.4971 39.298 22.4678 38.4805 23.9141 38.4805C25.1499 38.4805 26.4189 39.2642 26.4189 40.6289H25.4814C25.4814 39.8201 24.9702 39.252 23.9141 39.252C22.911 39.252 22.4395 39.7365 22.4395 40.4043C22.4395 41.0053 22.9499 41.3726 24.1045 41.6934C25.7168 42.1484 26.4385 42.7685 26.4385 43.8809C26.4385 45.036 25.4698 45.7852 23.958 45.7852C22.6869 45.7852 21.2725 45.0248 21.2725 43.627H22.21C22.21 44.6021 23.0567 45.0186 23.958 45.0186C24.9473 45.0186 25.4912 44.5798 25.4912 43.8906Z" fill="black"/>
<path d="M38.3965 43.4268H37.459C37.3033 44.4192 36.9046 45.0186 35.7012 45.0186C34.3703 45.0186 33.8652 43.6463 33.8652 42.4893C33.8652 41.152 34.0189 39.252 35.7842 39.252C36.7737 39.252 37.3265 39.8932 37.459 40.8584H38.3965C38.2457 39.4112 37.2148 38.4805 35.7842 38.4805C33.5083 38.4805 32.9277 40.6349 32.9277 42.4893C32.9277 44.1615 33.913 45.7852 35.7012 45.7852C37.164 45.7852 38.2397 44.8687 38.3965 43.4268Z" fill="black"/>
<path d="M28.582 41.7764V39.3496H32.0439V38.5781H27.6396V45.6875H28.582V42.5479H31.5605V41.7764H28.582Z" fill="black"/>
<path d="M16.1064 38.5781L14.4997 44.3831L13.2354 38.5781H12.2979L14.0215 45.6875H14.876L16.5061 39.9625L18.084 45.6875H18.9385L20.6572 38.5781H19.7148L18.4651 44.4039L16.8926 38.5781H16.1064Z" fill="black"/>
</svg>
