<svg width="50" height="50" viewBox="0 0 50 50" fill="none" xmlns="http://www.w3.org/2000/svg">
<rect width="50" height="50" fill="#FF0015"/>
<path d="M28.8153 23.8015L26.3025 26.6034C26.3437 26.7374 26.3661 26.8799 26.3661 27.0278C26.3661 27.8074 25.7491 28.4392 24.9891 28.4392C24.2287 28.4392 23.6131 27.8074 23.6131 27.0278C23.6131 26.249 24.2287 25.617 24.9891 25.617C25.148 25.617 25.3002 25.6462 25.4425 25.697L28.2605 23.248L28.8153 23.8015Z" fill="white"/>
<path fill-rule="evenodd" clip-rule="evenodd" d="M28.6812 9.84669H27.7916V12.3578H27.741C34.7149 13.6381 40 19.7281 40 27.053C40 35.2873 33.2379 41.966 24.9883 41.9996L24.9885 42C24.978 42 24.9675 41.9998 24.9571 41.9997C24.9466 41.9998 24.9362 42 24.9258 42L24.9257 41.9996C16.6766 41.9659 10 35.2872 10 27.053C10 19.7281 15.2851 13.6381 22.259 12.3578H22.2084V9.84669H21.3188V8H28.6812V9.84669ZM25.4484 20.2147H24.5516V19.3579C20.6577 19.5842 17.5403 22.69 17.3082 26.5718H18.172V27.443H17.3037C17.5079 31.352 20.6381 34.4875 24.5516 34.7149V33.8626H25.4484V34.7149C29.3619 34.4875 32.4921 31.352 32.6963 27.443H31.828V26.5718H32.6918C32.4597 22.69 29.3424 19.5842 25.4484 19.3579V20.2147Z" fill="white"/>
</svg>
