<svg width="50" height="50" viewBox="0 0 50 50" fill="none" xmlns="http://www.w3.org/2000/svg">
<path d="M18.2582 39.9619L8.33038 29.6825C7.12295 28.4407 7.12295 25.7502 8.33038 24.5774L22.5514 9.88277C23.6918 8.70997 26.2408 8.70997 27.3812 9.88277L41.6692 24.5774C42.8767 25.8192 42.8767 28.5098 41.6692 29.6825L31.7414 39.9619C31.1377 40.5827 30.1985 40.9967 29.2594 40.9967H20.6061C19.734 40.9967 18.8619 40.5827 18.2582 39.9619ZM27.3141 35.9605C27.5154 35.7536 27.5154 35.3397 27.3141 35.1327L25.3687 33.132C25.1675 32.925 24.7651 32.925 24.5638 33.132L22.6184 35.1327C22.4172 35.3397 22.4172 35.7536 22.6184 35.9605L24.1613 37.4783H25.7712L27.3141 35.9605ZM27.3141 27.475C27.4482 27.337 27.4482 26.992 27.3141 26.8541L25.2346 24.7154C25.1005 24.5775 24.7651 24.5775 24.631 24.7154L18.5937 30.9244C18.3924 31.1314 18.3924 31.6143 18.5937 31.8213L20.0024 33.27H21.6123L27.3141 27.475V27.475ZM27.3141 19.0583C27.4482 18.9203 27.5154 18.5064 27.3141 18.3684L25.3017 16.2987C25.1675 16.1608 24.7651 16.1608 24.5638 16.2987L14.4347 26.716C14.3006 26.854 14.2334 27.2679 14.3676 27.4059L15.9775 28.9927H17.5204L27.3141 19.0583V19.0583Z" fill="#6CC655"/>
</svg>
