<svg width="50" height="50" viewBox="0 0 50 50" fill="none" xmlns="http://www.w3.org/2000/svg">
<path d="M13.4702 33.1605V40.7099C13.4702 42.4895 14.9142 43.9335 16.6939 43.9335H20.3609C22.1406 43.9335 23.5846 42.4895 23.5846 40.7099V30.7444C23.5846 30.2979 23.2236 29.94 22.7802 29.94H16.6939C14.9142 29.94 13.4702 31.3809 13.4702 33.1605Z" fill="#1E2C3A"/>
<path d="M34.0344 29.9399C35.814 29.9399 37.258 28.4959 37.258 26.7162V25.5509C37.258 23.7712 35.814 22.3304 34.0344 22.3304H24.3887C23.9454 22.3304 23.5844 22.6882 23.5844 23.1347V29.1324C23.5844 29.5789 23.9454 29.9399 24.3887 29.9399H34.0344Z" fill="#1E2C3A"/>
<path d="M16.2917 22.3307H22.7802C23.2236 22.3307 23.5846 21.9697 23.5846 21.5232V16.5515C23.5846 16.1082 23.2236 15.7472 22.7802 15.7472H16.2917C14.7337 15.7472 13.4702 17.0107 13.4702 18.5687V19.5092C13.4702 21.0672 14.7337 22.3307 16.2917 22.3307Z" fill="#1E2C3A"/>
<path d="M36.6691 6.13624L24.3887 6.1394C23.9422 6.1394 23.5844 6.49723 23.5844 6.94057L23.5781 14.9427C23.5781 15.3861 23.9391 15.7471 24.3824 15.7471H36.6722C38.4519 15.7471 39.8927 14.3062 39.8927 12.5297V9.35357C39.8896 7.5739 38.4456 6.13307 36.6691 6.13624Z" fill="#1E2C3A"/>
</svg>
