<svg width="50" height="50" viewBox="0 0 50 50" fill="none" xmlns="http://www.w3.org/2000/svg">
<path d="M19.0924 44.2368C22.4966 44.2368 25.3424 41.353 25.3424 37.9035V31.5702H19.0924C15.6882 31.5702 12.8423 34.4539 12.8423 37.9035C12.8423 41.353 15.6882 44.2368 19.0924 44.2368Z" fill="#0ACF83"/>
<path d="M12.8423 25.2368C12.8423 21.7872 15.6882 18.9034 19.0924 18.9034H25.3424V31.5702H19.0924C15.6882 31.5702 12.8423 28.6863 12.8423 25.2368Z" fill="#A259FF"/>
<path d="M12.8423 12.5702C12.8423 9.12248 15.6851 6.23951 19.0875 6.23682H25.3376V18.9035L19.0924 18.9034C15.6881 18.9034 12.8423 16.0197 12.8423 12.5702Z" fill="#F24E1E"/>
<path d="M25.3421 6.23682H31.5922C34.9964 6.23682 37.8423 9.12059 37.8423 12.5702C37.8423 16.0197 34.9964 18.9035 31.5922 18.9035L25.3424 18.9034L25.3421 6.23682Z" fill="#FF7262"/>
<path d="M37.8423 25.2368C37.8423 28.6863 34.9964 31.5701 31.5922 31.5701C28.188 31.5701 25.3421 28.6863 25.3421 25.2368C25.3421 21.7872 28.188 18.9035 31.5922 18.9035C34.9964 18.9035 37.8423 21.7872 37.8423 25.2368Z" fill="#1ABCFE"/>
</svg>
