<svg width="50" height="50" viewBox="0 0 50 50" fill="none" xmlns="http://www.w3.org/2000/svg">
<path d="M9.578 12.3561C11.128 12.1046 12.6957 11.9788 14.266 11.9801C19.566 11.9801 24.406 13.3801 28.11 15.6971C19.573 14.5411 9.039 16.0511 5 17.6451C6.54972 17.3944 8.11713 17.269 9.687 17.2701C21.326 17.2701 30.762 24.0301 30.762 32.3701C30.762 35.0811 29.762 37.6261 28.018 39.8251C27.647 40.4341 27.38 40.7821 27.38 40.7821L32.127 35.2591C32.021 35.4111 31.959 35.4921 31.959 35.4921L44.959 20.3641C46.244 6.79115 16.988 9.43315 9.578 12.3561Z" fill="#CE1300"/>
<path d="M34.55 31.1912C35.0699 29.8846 35.338 28.4914 35.34 27.0852C35.34 22.5432 32.54 18.4702 28.114 15.7022L27.769 15.6542H27.74L27.364 15.6092L27.292 15.6012L26.954 15.5632C26.926 15.5632 26.897 15.5632 26.869 15.5542L26.536 15.5212L26.453 15.5142C26.336 15.5032 26.22 15.4912 26.103 15.4822L26.04 15.4772L25.63 15.4442C25.202 15.4115 24.7717 15.3845 24.339 15.3632C24.324 15.3623 24.309 15.3623 24.294 15.3632C24.168 15.3562 24.042 15.3512 23.915 15.3462H23.848L23.487 15.3322H23.416L23.045 15.3212H22.992L22.572 15.3132C29.779 17.7132 34.772 22.9432 34.772 29.0132C34.7714 29.7448 34.697 30.4745 34.55 31.1912Z" fill="#8C0700"/>
</svg>
