<svg width="50" height="50" viewBox="0 0 50 50" fill="none" xmlns="http://www.w3.org/2000/svg">
<path d="M32.124 4.45953C34.1902 5.21237 34.8166 6.95311 35.128 8.86173C35.2811 9.80543 35.2829 10.7757 35.3149 11.7353C35.338 12.4033 35.1387 12.6507 34.313 12.5482C26.9297 11.6294 18.4831 14.1367 12.1704 17.8269C9.78923 19.216 7.5522 20.8454 5.25821 22.3811C4.85067 22.655 4.46092 22.9555 4.06228 23.2435C3.9263 22.5234 4.47369 21.6171 4.81686 20.9938C7.02008 17.0034 9.82482 13.506 13.3254 10.5406C16.5128 7.84026 20.1486 6.05005 24.128 4.86423C26.6624 4.09761 29.6146 3.54786 32.124 4.45953Z" fill="#CC1B26"/>
<path d="M35.5 44.9983C30.827 44.9983 26.6349 44.9754 22.1134 43.7577C18.91 42.8953 15.9469 41.4991 13.3272 39.4739C11.1449 37.7852 7.82347 35.5234 6.641 32.921C6.04126 31.6026 5.23863 30.1694 5.63194 28.6195C6.20285 26.3738 8.25462 24.9155 10.1701 23.8197C10.9513 23.3726 11.2414 23.5298 11.6703 24.3198C13.6185 27.9081 15.8374 30.9805 18.6306 33.9866C21.0936 36.6392 24.0443 38.6981 27.1676 40.5183C28.9751 41.5716 35.5554 43.2388 35.5 44.9983Z" fill="#CC1C27"/>
<path d="M39.0968 6.42467C39.4314 6.83997 39.8033 7.23054 40.097 7.67235C44.2289 13.896 45.963 20.8356 45.799 28.2024C45.7076 32.2755 44.4974 37.6578 41.1327 40.3575C40.024 41.2464 38.6376 41.3524 37.3812 41.0255C36.0447 40.6773 34.8096 39.9333 33.5371 39.3466C32.8324 39.0214 32.8715 38.4506 33.2631 37.9717C35.5037 35.2342 36.7103 32.009 37.8154 28.722C40.1432 21.7875 39.8327 14.1515 38.8903 6.97959C38.8513 6.69436 38.8601 6.56115 39.0986 6.42467H39.0968Z" fill="#CC1C27"/>
</svg>
