<svg width="50" height="50" viewBox="0 0 50 50" fill="none" xmlns="http://www.w3.org/2000/svg">
<path fill-rule="evenodd" clip-rule="evenodd" d="M30.1536 16.1316C30.1536 21.7271 25.6421 26.2632 20.0768 26.2632C14.5115 26.2632 10 21.7271 10 16.1316C10 10.5361 14.5115 6 20.0768 6C25.6421 6 30.1536 10.5361 30.1536 16.1316ZM20.0768 23.5001C24.1243 23.5001 27.4054 20.2011 27.4054 16.1316C27.4054 12.0621 24.1243 8.76317 20.0768 8.76317C16.0293 8.76317 12.7482 12.0621 12.7482 16.1316C12.7482 20.2011 16.0293 23.5001 20.0768 23.5001Z" fill="#FFC72C"/>
<path d="M26.4893 27.0264L29.0804 24.4213L31.6714 27.0264L29.0804 29.6316L26.4893 27.0264Z" fill="#FFC72C"/>
<path d="M30.1536 30.7106L32.7447 28.1055L35.3357 30.7106L32.7447 33.3158L30.1536 30.7106Z" fill="#F29A02"/>
<path d="M33.8179 34.3949L36.409 31.7897L39 34.3949L36.409 37L33.8179 34.3949Z" fill="#C75300"/>
<path fill-rule="evenodd" clip-rule="evenodd" d="M20.6768 39.8906L23.3965 47H22.4297L21.7526 45.1396H18.7792L18.1035 47H17.1416L19.8516 39.8906H20.6768ZM19.0595 44.3682H21.4718L20.2644 41.051L19.0595 44.3682Z" fill="black"/>
<path d="M25.5596 39.8906H24.3486V47H25.2861L25.1955 41.2455L27.5273 47H28.2402L30.5767 41.2535L30.4863 47H31.4238V39.8906H30.2129L27.8887 45.6865L25.5596 39.8906Z" fill="black"/>
</svg>
