<svg width="50" height="50" viewBox="0 0 50 50" fill="none" xmlns="http://www.w3.org/2000/svg">
<path d="M30.9048 16.1129C31.1741 16.1706 31.4323 15.9582 31.4323 15.6875C31.5004 14.3941 31.4153 11.2119 29.3051 10.4291C26.5483 9.40803 22.1238 10.8375 18.7203 12.7775C15.2828 14.7515 10.9434 19.3462 9.22461 24.026C9.22461 24.026 15.6231 18.4953 22.1919 16.8787C27.1609 15.6534 29.8667 15.9087 30.9048 16.1129Z" fill="#3A3A3A"/>
<path d="M14.7723 24.1961C14.6539 23.8648 14.3913 23.9238 14.1256 23.9238C12.9684 24.5194 10.2626 26.1701 10.637 28.3994C11.1305 31.2923 14.5851 34.4235 17.9545 36.3975C21.375 38.4056 27.5183 39.8521 32.4363 39.0012C32.4363 39.0012 24.4381 36.2274 19.7584 31.3434C16.2358 27.6676 15.1126 25.2001 14.7723 24.1961Z" fill="#3A3A3A"/>
<path d="M29.9005 34.2363C29.7895 34.3584 29.7049 34.8999 29.9856 34.8999C31.0747 35.5977 33.8656 37.1292 35.6014 35.6827C37.8647 33.8108 38.8347 29.2502 38.8687 25.3362C38.8857 21.3711 37.0819 15.3299 33.8996 11.501C33.8996 11.501 35.4993 19.8055 33.6103 26.3062C32.1809 31.2242 30.5982 33.4535 29.9005 34.2363Z" fill="#3A3A3A"/>
</svg>
