<svg width="50" height="50" viewBox="0 0 50 50" fill="none" xmlns="http://www.w3.org/2000/svg">
<path d="M30.9535 20.2059C30.7852 26.4022 26.0258 30.8636 19.8008 30.6689C14.1126 30.4861 9.42618 25.4433 9.73731 19.7013C9.95868 14.1865 14.9661 9.36661 21.0759 9.74282C26.5692 10.0076 31.0068 14.7056 30.9535 20.2059ZM20.4517 27.4468C24.3747 27.4628 27.69 24.0206 27.4691 20.0598C27.3496 15.5409 24.1574 12.8366 20.1373 12.9782C15.8516 13.1066 12.9959 16.2711 13.1553 20.5776C13.268 24.3927 16.5998 27.564 20.4517 27.4468Z" fill="#FEC306"/>
<path d="M37.7097 40.2777L35.1993 37.6885L37.7805 35.1746L40.2776 37.7018L37.7097 40.2777Z" fill="#E25803"/>
<path d="M27.5754 30.3857C28.5494 29.3721 29.3817 28.5135 30.2761 27.5884L32.7244 30.3193C33.0516 30.191 30.2489 32.7769 30.0414 32.6828C29.1914 31.9171 28.3723 31.1292 27.5754 30.3857Z" fill="#FDC304"/>
<path d="M34.004 36.582L31.4494 34.0326L34.0439 31.4301L36.6206 34.0237L34.004 36.582Z" fill="#FA8300"/>
</svg>
