<svg width="50" height="50" viewBox="0 0 50 50" fill="none" xmlns="http://www.w3.org/2000/svg">
<path fill-rule="evenodd" clip-rule="evenodd" d="M30.3738 16.8243C30.3738 21.6978 26.4845 25.6486 21.6869 25.6486C16.8893 25.6486 13 21.6978 13 16.8243C13 11.9508 16.8893 8 21.6869 8C26.4845 8 30.3738 11.9508 30.3738 16.8243ZM21.6869 23.242C25.1761 23.242 28.0046 20.3687 28.0046 16.8243C28.0046 13.2799 25.1761 10.4066 21.6869 10.4066C18.1977 10.4066 15.3692 13.2799 15.3692 16.8243C15.3692 20.3687 18.1977 23.242 21.6869 23.242Z" fill="#FFC72C"/>
<path d="M27.2149 26.3133L29.4486 24.0443L31.6823 26.3133L29.4486 28.5823L27.2149 26.3133Z" fill="#FFC72C"/>
<path d="M30.3738 29.5222L32.6075 27.2532L34.8411 29.5222L32.6075 31.7912L30.3738 29.5222Z" fill="#F29A02"/>
<path d="M33.5327 32.731L35.7663 30.462L38 32.731L35.7663 35L33.5327 32.731Z" fill="#C75300"/>
<path fill-rule="evenodd" clip-rule="evenodd" d="M21.9703 38L24.2554 44H23.4431L22.8741 42.4299H20.376L19.8082 44H19L21.2769 38H21.9703ZM20.6114 41.7788H22.6382L21.6238 38.9793L20.6114 41.7788Z" fill="#7F8BA5"/>
<path d="M26.0728 38H25.0554V44H25.8431L25.7669 39.1434L27.7262 44H28.3251L30.2883 39.1502L30.2123 44H31V38H29.9826L28.0297 42.8915L26.0728 38Z" fill="#7F8BA5"/>
</svg>
