<svg width="50" height="50" viewBox="0 0 50 50" fill="none" xmlns="http://www.w3.org/2000/svg">
<rect width="50" height="50" fill="#0073FF"/>
<path d="M29.3669 25H32.5602C32.8321 25 33.2692 24.5605 33.0092 24.3L27.5207 9.3C27.4209 9.15 27.2713 9 27.0717 9H23.8784C23.6256 9 23.1785 9.39868 23.4293 9.65L28.9677 24.75C29.0176 24.9 29.1673 25 29.3669 25Z" fill="white"/>
<path d="M28.818 41H32.0113C32.2641 41 32.7112 40.6013 32.4604 40.35L21.0842 9.3C21.0343 9.15 20.8348 9 20.6352 9H17.4419C17.1891 9 16.742 9.39868 16.9928 9.65L28.369 40.7C28.4189 40.9 28.6184 41 28.818 41Z" fill="white"/>
<path d="M22.4813 41H25.6746C25.9138 41 26.37 40.5968 26.1237 40.35L20.5853 25.3C20.5354 25.1 20.3358 25 20.1362 25H16.893C16.6468 25 16.2669 25.4226 16.4939 25.65L21.9824 40.7C22.132 40.9 22.2817 41 22.4813 41Z" fill="white"/>
<path d="M29.766 9.65L32.3606 16.7C32.4105 16.9 32.6101 17 32.8097 17H35.9531C36.2059 17 36.6529 16.6013 36.4021 16.35L33.8076 9.3C33.7577 9.15 33.608 9 33.4084 9H30.2151C29.9623 9 29.5152 9.39868 29.766 9.65Z" fill="white"/>
<path d="M16.5936 41H19.7869C20.0397 41 20.4868 40.6013 20.236 40.35L17.6414 33.3C17.5916 33.1 17.392 33 17.1924 33H13.9991C13.7463 33 13.2992 33.3987 13.55 33.65L16.1446 40.7C16.1945 40.9 16.3941 41 16.5936 41Z" fill="white"/>
</svg>
