<svg width="50" height="50" viewBox="0 0 50 50" fill="none" xmlns="http://www.w3.org/2000/svg">
<path d="M38.4642 8.04883H33.0961L26.2168 14.1939L28.9351 16.6217L38.4642 8.04883Z" fill="#8A8C8E"/>
<path d="M28.8861 18.8275L26.2168 21.1609L35.2551 29.0488H40L28.8861 18.8275Z" fill="#4D4D4F"/>
<path d="M16.904 8.04883H11.536L21.6391 17.1365H27.0808L16.904 8.04883Z" fill="#00AAE7"/>
<path d="M10 29.0488H14.7449L27.0315 18.3268H21.6586L10 29.0488Z" fill="#00AAE7"/>
<path d="M10.8629 32.4087V38.9589H10V32.4087H10.8629ZM13.5902 35.3554V36.0662H10.6751V35.3554H13.5902ZM14.0328 32.4087V33.1195H10.6751V32.4087H14.0328Z" fill="#7F8BA5"/>
<path d="M15.8346 32.0488V38.9589H15.003V32.0488H15.8346Z" fill="#7F8BA5"/>
<path d="M19.1699 39.0488C18.8331 39.0488 18.5276 38.9918 18.2534 38.8779C17.9821 38.7609 17.7481 38.5975 17.5514 38.3875C17.3577 38.1776 17.2086 37.9286 17.1043 37.6407C17 37.3528 16.9478 37.0379 16.9478 36.696V36.5071C16.9478 36.1112 17.006 35.7588 17.1222 35.4499C17.2385 35.1379 17.3964 34.874 17.5961 34.6581C17.7958 34.4421 18.0224 34.2787 18.2757 34.1677C18.5291 34.0568 18.7914 34.0013 19.0626 34.0013C19.4083 34.0013 19.7064 34.0613 19.9568 34.1812C20.2101 34.3012 20.4173 34.4691 20.5782 34.6851C20.7392 34.898 20.8584 35.1499 20.9359 35.4409C21.0134 35.7288 21.0522 36.0437 21.0522 36.3856V36.759H17.4396V36.0797H20.225V36.0167C20.2131 35.8008 20.1684 35.5908 20.0909 35.3869C20.0164 35.1829 19.8972 35.015 19.7332 34.883C19.5693 34.7511 19.3458 34.6851 19.0626 34.6851C18.8748 34.6851 18.7019 34.7256 18.544 34.8065C18.386 34.8845 18.2504 35.0015 18.1371 35.1574C18.0238 35.3134 17.9359 35.5038 17.8733 35.7288C17.8107 35.9537 17.7794 36.2131 17.7794 36.5071V36.696C17.7794 36.9269 17.8107 37.1444 17.8733 37.3483C17.9389 37.5493 18.0328 37.7262 18.155 37.8792C18.2802 38.0321 18.4307 38.1521 18.6066 38.2391C18.7854 38.326 18.9881 38.3695 19.2146 38.3695C19.5067 38.3695 19.7541 38.3095 19.9568 38.1896C20.1595 38.0696 20.3368 37.9092 20.4888 37.7082L20.9896 38.1086C20.8852 38.2676 20.7526 38.419 20.5917 38.563C20.4307 38.7069 20.2325 38.8239 19.997 38.9139C19.7645 39.0038 19.4888 39.0488 19.1699 39.0488Z" fill="#7F8BA5"/>
<path d="M22.5768 34.0912L23.6364 35.8637L24.7094 34.0912H25.6796L24.0969 36.4936L25.7288 38.9589H24.772L23.6542 37.1324L22.5365 38.9589H21.5753L23.2027 36.4936L21.6244 34.0912H22.5768Z" fill="#7F8BA5"/>
<path d="M31.693 32.4087V38.9589H30.8256L27.5484 33.9068V38.9589H26.6855V32.4087H27.5484L30.839 37.4743V32.4087H31.693Z" fill="#7F8BA5"/>
<path d="M35.1043 39.0488C34.7675 39.0488 34.462 38.9918 34.1878 38.8779C33.9165 38.7609 33.6826 38.5975 33.4858 38.3875C33.2921 38.1776 33.1431 37.9286 33.0387 37.6407C32.9344 37.3528 32.8823 37.0379 32.8823 36.696V36.5071C32.8823 36.1112 32.9404 35.7588 33.0566 35.4499C33.1729 35.1379 33.3308 34.874 33.5306 34.6581C33.7303 34.4421 33.9568 34.2787 34.2101 34.1677C34.4635 34.0568 34.7258 34.0013 34.997 34.0013C35.3428 34.0013 35.6408 34.0613 35.8912 34.1812C36.1446 34.3012 36.3517 34.4691 36.5127 34.6851C36.6736 34.898 36.7928 35.1499 36.8703 35.4409C36.9478 35.7288 36.9866 36.0437 36.9866 36.3856V36.759H33.3741V36.0797H36.1595V36.0167C36.1475 35.8008 36.1028 35.5908 36.0253 35.3869C35.9508 35.1829 35.8316 35.015 35.6677 34.883C35.5037 34.7511 35.2802 34.6851 34.997 34.6851C34.8092 34.6851 34.6364 34.7256 34.4784 34.8065C34.3204 34.8845 34.1848 35.0015 34.0715 35.1574C33.9583 35.3134 33.8703 35.5038 33.8077 35.7288C33.7452 35.9537 33.7139 36.2131 33.7139 36.5071V36.696C33.7139 36.9269 33.7452 37.1444 33.8077 37.3483C33.8733 37.5493 33.9672 37.7262 34.0894 37.8792C34.2146 38.0321 34.3651 38.1521 34.541 38.2391C34.7198 38.326 34.9225 38.3695 35.149 38.3695C35.4411 38.3695 35.6885 38.3095 35.8912 38.1896C36.0939 38.0696 36.2712 37.9092 36.4232 37.7082L36.924 38.1086C36.8197 38.2676 36.687 38.419 36.5261 38.563C36.3651 38.7069 36.1669 38.8239 35.9314 38.9139C35.699 39.0038 35.4232 39.0488 35.1043 39.0488Z" fill="#7F8BA5"/>
<path d="M39.9776 34.0912V34.7301H37.3621V34.0912H39.9776ZM38.2474 32.9081H39.0745V37.7532C39.0745 37.9182 39.0999 38.0426 39.1505 38.1266C39.2012 38.2106 39.2668 38.2661 39.3472 38.293C39.4277 38.32 39.5142 38.3335 39.6066 38.3335C39.6751 38.3335 39.7466 38.3275 39.8212 38.3155C39.8987 38.3005 39.9568 38.2885 39.9955 38.2795L40 38.9589C39.9344 38.9798 39.848 38.9993 39.7407 39.0173C39.6364 39.0383 39.5097 39.0488 39.3607 39.0488C39.158 39.0488 38.9717 39.0083 38.8018 38.9274C38.6319 38.8464 38.4963 38.7114 38.3949 38.5225C38.2966 38.3305 38.2474 38.0726 38.2474 37.7487V32.9081Z" fill="#7F8BA5"/>
</svg>
