<svg width="50" height="50" viewBox="0 0 50 50" fill="none" xmlns="http://www.w3.org/2000/svg">
<path d="M40.0278 8.09766H34.3019L26.9639 14.828L29.8635 17.487L40.0278 8.09766Z" fill="#8A8C8E"/>
<path d="M29.8112 19.9029L26.9639 22.4584L36.6048 31.0977H41.666L29.8112 19.9029Z" fill="#4D4D4F"/>
<path d="M17.0303 8.09766H11.3044L22.0811 18.0509H27.8855L17.0303 8.09766Z" fill="#00AAE7"/>
<path d="M9.66602 31.0976H14.7272L27.833 19.3545H22.1018L9.66602 31.0976Z" fill="#00AAE7"/>
<path d="M19.7124 39.2821C19.7124 39.1231 19.6874 38.9827 19.6374 38.861C19.5906 38.7362 19.5063 38.6239 19.3845 38.5241C19.2659 38.4243 19.1004 38.3292 18.8881 38.2387C18.6789 38.1482 18.4135 38.0562 18.0919 37.9626C17.7548 37.8628 17.4503 37.7521 17.1787 37.6304C16.9071 37.5056 16.6745 37.3637 16.4809 37.2046C16.2873 37.0455 16.139 36.863 16.036 36.6571C15.933 36.4513 15.8814 36.2157 15.8814 35.9506C15.8814 35.6854 15.9361 35.4406 16.0454 35.216C16.1546 34.9914 16.3107 34.7964 16.5137 34.6311C16.7197 34.4626 16.9648 34.3316 17.249 34.238C17.5331 34.1444 17.85 34.0977 18.1997 34.0977C18.7117 34.0977 19.1457 34.1959 19.5016 34.3924C19.8607 34.5858 20.1338 34.8401 20.3212 35.1551C20.5085 35.4671 20.6022 35.8009 20.6022 36.1565H19.703C19.703 35.9007 19.6484 35.6745 19.5391 35.478C19.4298 35.2784 19.2643 35.1224 19.0426 35.0101C18.821 34.8947 18.54 34.837 18.1997 34.837C17.8781 34.837 17.6127 34.8853 17.4035 34.982C17.1943 35.0787 17.0382 35.2097 16.9352 35.3751C16.8353 35.5404 16.7853 35.7291 16.7853 35.9412C16.7853 36.0847 16.815 36.2157 16.8743 36.3343C16.9367 36.4497 17.032 36.5573 17.16 36.6571C17.2911 36.757 17.4566 36.849 17.6564 36.9332C17.8593 37.0174 18.1013 37.0985 18.3823 37.1765C18.7695 37.2857 19.1035 37.4074 19.3845 37.5415C19.6655 37.6756 19.8966 37.8269 20.0777 37.9954C20.2619 38.1607 20.3977 38.3494 20.4851 38.5616C20.5756 38.7706 20.6209 39.0076 20.6209 39.2728C20.6209 39.5504 20.5647 39.8015 20.4523 40.0261C20.3399 40.2507 20.1791 40.4426 19.9699 40.6017C19.7607 40.7608 19.5094 40.884 19.2159 40.9713C18.9256 41.0555 18.6009 41.0977 18.2418 41.0977C17.9265 41.0977 17.6158 41.054 17.3098 40.9666C17.007 40.8793 16.7307 40.7483 16.4809 40.5736C16.2343 40.3989 16.036 40.1837 15.8861 39.9279C15.7394 39.669 15.666 39.3695 15.666 39.0295H16.5652C16.5652 39.2634 16.6105 39.4646 16.701 39.6331C16.7916 39.7984 16.9149 39.9357 17.071 40.0448C17.2302 40.154 17.4098 40.2351 17.6096 40.2882C17.8125 40.3381 18.0233 40.363 18.2418 40.363C18.5572 40.363 18.8241 40.3194 19.0426 40.232C19.2612 40.1447 19.4267 40.0199 19.5391 39.8577C19.6546 39.6955 19.7124 39.5036 19.7124 39.2821Z" fill="#7F8BA5"/>
<path d="M23.9741 39.97L25.9832 34.1912H26.962L24.4378 41.0041H23.74L23.9741 39.97ZM22.0961 34.1912L24.0865 39.97L24.3347 41.0041H23.6369L21.1173 34.1912H22.0961Z" fill="#7F8BA5"/>
<path d="M28.1656 34.1912H29.0414L31.2753 39.7454L33.5046 34.1912H34.385L31.6125 41.0041H30.9288L28.1656 34.1912ZM27.88 34.1912H28.6527L28.7792 38.3463V41.0041H27.88V34.1912ZM33.8933 34.1912H34.666V41.0041H33.7668V38.3463L33.8933 34.1912Z" fill="#7F8BA5"/>
</svg>
