<svg width="50" height="50" viewBox="0 0 50 50" fill="none" xmlns="http://www.w3.org/2000/svg">
<path d="M39.9599 6H33.9954L26.3516 13.0229L29.3721 15.7976L39.9599 6Z" fill="#8A8C8E"/>
<path d="M29.3175 18.3185L26.3516 20.9852L36.3942 30H41.6663L29.3175 18.3185Z" fill="#4D4D4F"/>
<path d="M16.0042 6H10.0397L21.2654 16.386H27.3116L16.0042 6Z" fill="#00AAE7"/>
<path d="M8.33301 30H13.6051L27.2569 17.7463H21.287L8.33301 30Z" fill="#00AAE7"/>
<path d="M9.7998 33.8906V41H8.85742V33.8906H9.7998ZM12.7783 37.0889V37.8604H9.59473V37.0889H12.7783ZM13.2617 33.8906V34.6621H9.59473V33.8906H13.2617Z" fill="#1C1D1F"/>
<path d="M15.2295 33.5V41H14.3213V33.5H15.2295Z" fill="#1C1D1F"/>
<path d="M18.8721 41.0977C18.5042 41.0977 18.1706 41.0358 17.8711 40.9121C17.5749 40.7852 17.3193 40.6077 17.1045 40.3799C16.8929 40.152 16.7301 39.8818 16.6162 39.5693C16.5023 39.2568 16.4453 38.915 16.4453 38.5439V38.3389C16.4453 37.9092 16.5088 37.5267 16.6357 37.1914C16.7627 36.8529 16.9352 36.5664 17.1533 36.332C17.3714 36.0977 17.6188 35.9202 17.8955 35.7998C18.1722 35.6794 18.4587 35.6191 18.7549 35.6191C19.1325 35.6191 19.458 35.6842 19.7314 35.8145C20.0081 35.9447 20.2344 36.127 20.4102 36.3613C20.5859 36.5924 20.7161 36.8659 20.8008 37.1816C20.8854 37.4941 20.9277 37.8359 20.9277 38.207V38.6123H16.9824V37.875H20.0244V37.8066C20.0114 37.5723 19.9626 37.3444 19.8779 37.123C19.7965 36.9017 19.6663 36.7194 19.4873 36.5762C19.3083 36.4329 19.0641 36.3613 18.7549 36.3613C18.5498 36.3613 18.361 36.4053 18.1885 36.4932C18.016 36.5778 17.8678 36.7048 17.7441 36.874C17.6204 37.0433 17.5244 37.25 17.4561 37.4941C17.3877 37.7383 17.3535 38.0199 17.3535 38.3389V38.5439C17.3535 38.7946 17.3877 39.0306 17.4561 39.252C17.5277 39.4701 17.6302 39.6621 17.7637 39.8281C17.9004 39.9941 18.0648 40.1243 18.2568 40.2188C18.4521 40.3132 18.6735 40.3604 18.9209 40.3604C19.2399 40.3604 19.5101 40.2952 19.7314 40.165C19.9528 40.0348 20.1465 39.8607 20.3125 39.6426L20.8594 40.0771C20.7454 40.2497 20.6006 40.4141 20.4248 40.5703C20.249 40.7266 20.0326 40.8535 19.7754 40.9512C19.5215 41.0488 19.2204 41.0977 18.8721 41.0977Z" fill="#1C1D1F"/>
<path d="M22.5928 35.7168L23.75 37.6406L24.9219 35.7168H25.9814L24.2529 38.3242L26.0352 41H24.9902L23.7695 39.0176L22.5488 41H21.499L23.2764 38.3242L21.5527 35.7168H22.5928Z" fill="#1C1D1F"/>
<path d="M32.5488 33.8906V41H31.6016L28.0225 35.5166V41H27.0801V33.8906H28.0225L31.6162 39.3887V33.8906H32.5488Z" fill="#1C1D1F"/>
<path d="M36.2744 41.0977C35.9066 41.0977 35.5729 41.0358 35.2734 40.9121C34.9772 40.7852 34.7217 40.6077 34.5068 40.3799C34.2952 40.152 34.1325 39.8818 34.0186 39.5693C33.9046 39.2568 33.8477 38.915 33.8477 38.5439V38.3389C33.8477 37.9092 33.9111 37.5267 34.0381 37.1914C34.165 36.8529 34.3376 36.5664 34.5557 36.332C34.7738 36.0977 35.0212 35.9202 35.2979 35.7998C35.5745 35.6794 35.861 35.6191 36.1572 35.6191C36.5348 35.6191 36.8604 35.6842 37.1338 35.8145C37.4105 35.9447 37.6367 36.127 37.8125 36.3613C37.9883 36.5924 38.1185 36.8659 38.2031 37.1816C38.2878 37.4941 38.3301 37.8359 38.3301 38.207V38.6123H34.3848V37.875H37.4268V37.8066C37.4137 37.5723 37.3649 37.3444 37.2803 37.123C37.1989 36.9017 37.0687 36.7194 36.8896 36.5762C36.7106 36.4329 36.4665 36.3613 36.1572 36.3613C35.9521 36.3613 35.7633 36.4053 35.5908 36.4932C35.4183 36.5778 35.2702 36.7048 35.1465 36.874C35.0228 37.0433 34.9268 37.25 34.8584 37.4941C34.79 37.7383 34.7559 38.0199 34.7559 38.3389V38.5439C34.7559 38.7946 34.79 39.0306 34.8584 39.252C34.93 39.4701 35.0326 39.6621 35.166 39.8281C35.3027 39.9941 35.4671 40.1243 35.6592 40.2188C35.8545 40.3132 36.0758 40.3604 36.3232 40.3604C36.6423 40.3604 36.9124 40.2952 37.1338 40.165C37.3551 40.0348 37.5488 39.8607 37.7148 39.6426L38.2617 40.0771C38.1478 40.2497 38.0029 40.4141 37.8271 40.5703C37.6514 40.7266 37.4349 40.8535 37.1777 40.9512C36.9238 41.0488 36.6227 41.0977 36.2744 41.0977Z" fill="#1C1D1F"/>
<path d="M41.5967 35.7168V36.4102H38.7402V35.7168H41.5967ZM39.707 34.4326H40.6104V39.6914C40.6104 39.8704 40.638 40.0055 40.6934 40.0967C40.7487 40.1878 40.8203 40.248 40.9082 40.2773C40.9961 40.3066 41.0905 40.3213 41.1914 40.3213C41.2663 40.3213 41.3444 40.3148 41.4258 40.3018C41.5104 40.2855 41.5739 40.2725 41.6162 40.2627L41.6211 41C41.5495 41.0228 41.4551 41.0439 41.3379 41.0635C41.224 41.0863 41.0856 41.0977 40.9229 41.0977C40.7015 41.0977 40.498 41.0537 40.3125 40.9658C40.127 40.8779 39.9788 40.7314 39.8682 40.5264C39.7607 40.318 39.707 40.0381 39.707 39.6865V34.4326Z" fill="#1C1D1F"/>
</svg>
