<svg width="50" height="50" viewBox="0 0 50 50" fill="none" xmlns="http://www.w3.org/2000/svg">
<path d="M39.9599 6H33.9954L26.3516 13.0229L29.3721 15.7976L39.9599 6Z" fill="#8A8C8E"/>
<path d="M29.3175 18.3185L26.3516 20.9852L36.3942 30H41.6663L29.3175 18.3185Z" fill="#4D4D4F"/>
<path d="M16.0042 6H10.0397L21.2654 16.386H27.3116L16.0042 6Z" fill="#00AAE7"/>
<path d="M8.33301 30H13.6051L27.2569 17.7463H21.287L8.33301 30Z" fill="#00AAE7"/>
<path d="M18.6143 39.2031C18.6143 39.0371 18.5882 38.8906 18.5361 38.7637C18.4873 38.6335 18.3994 38.5163 18.2725 38.4121C18.1488 38.3079 17.9762 38.2087 17.7549 38.1143C17.5368 38.0199 17.2601 37.9238 16.9248 37.8262C16.5732 37.722 16.2559 37.6064 15.9727 37.4795C15.6895 37.3493 15.4469 37.2012 15.2451 37.0352C15.0433 36.8691 14.8887 36.6787 14.7812 36.4639C14.6738 36.249 14.6201 36.0033 14.6201 35.7266C14.6201 35.4499 14.6771 35.1943 14.791 34.96C14.9049 34.7256 15.0677 34.5221 15.2793 34.3496C15.4941 34.1738 15.7497 34.0371 16.0459 33.9395C16.3421 33.8418 16.6725 33.793 17.0371 33.793C17.571 33.793 18.0234 33.8955 18.3945 34.1006C18.7689 34.3024 19.0537 34.5677 19.249 34.8965C19.4443 35.222 19.542 35.5703 19.542 35.9414H18.6045C18.6045 35.6745 18.5475 35.4385 18.4336 35.2334C18.3197 35.0251 18.1471 34.8623 17.916 34.7451C17.6849 34.6247 17.3919 34.5645 17.0371 34.5645C16.7018 34.5645 16.4251 34.6149 16.207 34.7158C15.9889 34.8167 15.8262 34.9535 15.7188 35.126C15.6146 35.2985 15.5625 35.4954 15.5625 35.7168C15.5625 35.8665 15.5934 36.0033 15.6553 36.127C15.7204 36.2474 15.8197 36.3597 15.9531 36.4639C16.0898 36.568 16.2624 36.6641 16.4707 36.752C16.6823 36.8398 16.9346 36.9245 17.2275 37.0059C17.6312 37.1198 17.9795 37.2467 18.2725 37.3867C18.5654 37.5267 18.8063 37.6846 18.9951 37.8604C19.1872 38.0329 19.3288 38.2298 19.4199 38.4512C19.5143 38.6693 19.5615 38.9167 19.5615 39.1934C19.5615 39.4831 19.5029 39.7451 19.3857 39.9795C19.2686 40.2139 19.1009 40.4141 18.8828 40.5801C18.6647 40.7461 18.4027 40.8747 18.0967 40.9658C17.7939 41.0537 17.4554 41.0977 17.0811 41.0977C16.7523 41.0977 16.4284 41.0521 16.1094 40.9609C15.7936 40.8698 15.5055 40.7331 15.2451 40.5508C14.988 40.3685 14.7812 40.1439 14.625 39.877C14.472 39.6068 14.3955 39.2943 14.3955 38.9395H15.333C15.333 39.1836 15.3802 39.3936 15.4746 39.5693C15.569 39.7419 15.6976 39.8851 15.8604 39.999C16.0264 40.113 16.2135 40.1976 16.4219 40.2529C16.6335 40.305 16.8532 40.3311 17.0811 40.3311C17.4098 40.3311 17.6882 40.2855 17.916 40.1943C18.1439 40.1032 18.3164 39.973 18.4336 39.8037C18.554 39.6344 18.6143 39.4342 18.6143 39.2031Z" fill="#1C1D1F"/>
<path d="M23.0576 39.9209L25.1523 33.8906H26.1729L23.541 41H22.8135L23.0576 39.9209ZM21.0996 33.8906L23.1748 39.9209L23.4336 41H22.7061L20.0791 33.8906H21.0996Z" fill="#1C1D1F"/>
<path d="M27.4277 33.8906H28.3408L30.6699 39.6865L32.9941 33.8906H33.9121L31.0215 41H30.3086L27.4277 33.8906ZM27.1299 33.8906H27.9355L28.0674 38.2266V41H27.1299V33.8906ZM33.3994 33.8906H34.2051V41H33.2676V38.2266L33.3994 33.8906Z" fill="#1C1D1F"/>
</svg>
