<svg width="50" height="50" viewBox="0 0 50 50" fill="none" xmlns="http://www.w3.org/2000/svg">
<path d="M16.6428 30.5654C18.0275 30.5654 19.1355 29.949 19.7445 29.0975L22.6246 30.8588C21.3229 32.8551 19.2461 34 16.5877 34C11.9356 34 8.99951 30.6238 8.99951 26.2502C8.99951 21.8766 11.9626 18.5004 16.31 18.5004C20.4087 18.5004 23.3167 21.9355 23.3167 26.2502C23.3144 26.7722 23.268 27.293 23.1781 27.8062H12.7383C13.2372 29.7432 14.7601 30.5654 16.6428 30.5654ZM19.7445 24.8703C19.3016 22.7568 17.8058 21.9053 16.3105 21.9053C14.3998 21.9053 13.0981 22.9913 12.6828 24.8703H19.7445Z" fill="#414042"/>
<path d="M23.997 26.2502C23.997 21.8756 27.0987 18.5004 31.3075 18.5004C34.0219 18.5004 36.3755 20.0272 37.511 22.2877L34.4372 24.196C33.8833 22.9923 32.6922 22.2289 31.28 22.2289C29.1476 22.2289 27.5692 23.9026 27.5692 26.2512C27.5692 28.5701 29.1476 30.2439 31.28 30.2439C32.7198 30.2439 33.9108 29.5097 34.4648 28.3059L37.5665 30.185C36.3755 32.4747 34.0219 34.0015 31.3075 34.0015C27.0987 34.0005 23.997 30.6243 23.997 26.2502Z" fill="#414042"/>
<path d="M38.1984 18.9106H41.7705V33.9899H38.1984V18.9106Z" fill="#414042"/>
<path d="M41.771 14H38.1984V17.7873H41.771V14Z" fill="#CC3333"/>
</svg>
