<svg width="50" height="50" viewBox="0 0 50 50" fill="none" xmlns="http://www.w3.org/2000/svg">
<path d="M23.5557 16.5926H29.2224V22.3704H23.5557V16.5926Z" fill="#00AF9A"/>
<path d="M33 6H16V16.5926H21.2889V11.1037H33V6Z" fill="#1D252C"/>
<path d="M16 22.3704H21.2889V32H16V22.3704Z" fill="#1D252C"/>
<path d="M18.4741 42H17.1382L17.147 41.3101H18.4741C18.9312 41.3101 19.312 41.2148 19.6167 41.0244C19.9214 40.8311 20.1499 40.5615 20.3022 40.2158C20.4575 39.8672 20.5352 39.46 20.5352 38.9941V38.603C20.5352 38.2368 20.4912 37.9116 20.4033 37.6274C20.3154 37.3403 20.1865 37.0986 20.0166 36.9023C19.8467 36.7031 19.6387 36.5522 19.3926 36.4497C19.1494 36.3472 18.8696 36.2959 18.5532 36.2959H17.1118V35.6016H18.5532C18.9722 35.6016 19.3545 35.6719 19.7002 35.8125C20.0459 35.9502 20.3433 36.1509 20.5923 36.4146C20.8442 36.6753 21.0376 36.9917 21.1724 37.3638C21.3071 37.7329 21.3745 38.1489 21.3745 38.6118V38.9941C21.3745 39.457 21.3071 39.8745 21.1724 40.2466C21.0376 40.6157 20.8428 40.9307 20.5879 41.1914C20.3359 41.4521 20.0312 41.6528 19.6738 41.7935C19.3193 41.9312 18.9194 42 18.4741 42ZM17.5908 35.6016V42H16.7427V35.6016H17.5908Z" fill="black"/>
<path d="M26.5293 41.3101V42H23.3301V41.3101H26.5293ZM23.4971 35.6016V42H22.6489V35.6016H23.4971Z" fill="black"/>
<path d="M29.8604 39.4907H28.1509V38.8008H29.8604C30.1914 38.8008 30.4595 38.748 30.6646 38.6426C30.8696 38.5371 31.019 38.3906 31.1128 38.2031C31.2095 38.0156 31.2578 37.8018 31.2578 37.5615C31.2578 37.3418 31.2095 37.1353 31.1128 36.9419C31.019 36.7485 30.8696 36.5933 30.6646 36.4761C30.4595 36.356 30.1914 36.2959 29.8604 36.2959H28.3486V42H27.5005V35.6016H29.8604C30.3438 35.6016 30.7524 35.6851 31.0864 35.8521C31.4204 36.019 31.6738 36.2505 31.8467 36.5464C32.0195 36.8394 32.106 37.1748 32.106 37.5527C32.106 37.9629 32.0195 38.313 31.8467 38.603C31.6738 38.8931 31.4204 39.1143 31.0864 39.2666C30.7524 39.416 30.3438 39.4907 29.8604 39.4907Z" fill="black"/>
</svg>
