<svg width="50" height="50" viewBox="0 0 50 50" fill="none" xmlns="http://www.w3.org/2000/svg">
<path d="M24.1108 16.7777H29.4442V22.111H24.1108V16.7777Z" fill="#00AF9A"/>
<path d="M33 7H17V16.7778H21.9778V11.7111H33V7Z" fill="#1D252C"/>
<path d="M17 22.1111H21.9778V31H17V22.1111Z" fill="#1D252C"/>
<path d="M17.2939 35.8906V43H16.3467L12.7676 37.5166V43H11.8252V35.8906H12.7676L16.3613 41.3887V35.8906H17.2939Z" fill="#1C1D1F"/>
<path d="M24.2178 39.46V42.0625C24.1299 42.1927 23.9899 42.3392 23.7979 42.502C23.6058 42.6615 23.3405 42.8014 23.002 42.9219C22.6667 43.0391 22.2337 43.0977 21.7031 43.0977C21.2702 43.0977 20.8714 43.0228 20.5068 42.873C20.1455 42.7201 19.8314 42.4987 19.5645 42.209C19.3008 41.916 19.0957 41.5612 18.9492 41.1445C18.806 40.7246 18.7344 40.2493 18.7344 39.7188V39.167C18.7344 38.6364 18.7962 38.1628 18.9199 37.7461C19.0469 37.3294 19.2324 36.9762 19.4766 36.6865C19.7207 36.3936 20.0202 36.1722 20.375 36.0225C20.7298 35.8695 21.1367 35.793 21.5957 35.793C22.1393 35.793 22.5934 35.8874 22.958 36.0762C23.3258 36.2617 23.6123 36.5189 23.8174 36.8477C24.0257 37.1764 24.1592 37.5508 24.2178 37.9707H23.2754C23.2331 37.7135 23.1484 37.4792 23.0215 37.2676C22.8978 37.056 22.7204 36.8867 22.4893 36.7598C22.2581 36.6296 21.9603 36.5645 21.5957 36.5645C21.2669 36.5645 20.9821 36.6247 20.7412 36.7451C20.5003 36.8656 20.3018 37.0381 20.1455 37.2627C19.9893 37.4873 19.8721 37.7591 19.7939 38.0781C19.7191 38.3971 19.6816 38.7568 19.6816 39.1572V39.7188C19.6816 40.1289 19.7288 40.4951 19.8232 40.8174C19.9209 41.1396 20.0592 41.4147 20.2383 41.6426C20.4173 41.8672 20.6305 42.0381 20.8779 42.1553C21.1286 42.2725 21.4053 42.3311 21.708 42.3311C22.0433 42.3311 22.3151 42.3034 22.5234 42.248C22.7318 42.1895 22.8945 42.1211 23.0117 42.043C23.1289 41.9616 23.2184 41.8851 23.2803 41.8135V40.2217H21.6348V39.46H24.2178Z" fill="#1C1D1F"/>
<path d="M26.7227 35.8906V43H25.7803V35.8906H26.7227ZM29.7012 39.0889V39.8604H26.5176V39.0889H29.7012ZM30.1846 35.8906V36.6621H26.5176V35.8906H30.1846Z" fill="#1C1D1F"/>
<path d="M33.1777 40.8516L34.5889 35.8906H35.2725L34.877 37.8193L33.3584 43H32.6797L33.1777 40.8516ZM31.7178 35.8906L32.8408 40.7539L33.1777 43H32.5039L30.7803 35.8906H31.7178ZM37.0986 40.749L38.1973 35.8906H39.1396L37.4209 43H36.7471L37.0986 40.749ZM35.375 35.8906L36.7471 40.8516L37.2451 43H36.5664L35.1016 37.8193L34.7012 35.8906H35.375Z" fill="#1C1D1F"/>
</svg>
