<svg width="50" height="50" viewBox="0 0 50 50" fill="none" xmlns="http://www.w3.org/2000/svg">
<path d="M23.5557 16.5926H29.2224V22.3704H23.5557V16.5926Z" fill="#00AF9A"/>
<path d="M33 6H16V16.5926H21.2889V11.1037H33V6Z" fill="#1D252C"/>
<path d="M16 22.3704H21.2889V32H16V22.3704Z" fill="#1D252C"/>
<path d="M21.6055 39.9653H22.4492C22.4053 40.3696 22.2896 40.7314 22.1021 41.0508C21.9146 41.3701 21.6494 41.6235 21.3066 41.811C20.9639 41.9956 20.5361 42.0879 20.0234 42.0879C19.6484 42.0879 19.3071 42.0176 18.9995 41.877C18.6948 41.7363 18.4326 41.5371 18.2129 41.2793C17.9932 41.0186 17.8232 40.7065 17.7031 40.3433C17.5859 39.9771 17.5273 39.5698 17.5273 39.1216V38.4844C17.5273 38.0361 17.5859 37.6304 17.7031 37.2671C17.8232 36.9009 17.9946 36.5874 18.2173 36.3267C18.4429 36.0659 18.7139 35.8652 19.0303 35.7246C19.3467 35.584 19.7026 35.5137 20.0981 35.5137C20.5815 35.5137 20.9902 35.6045 21.3242 35.7861C21.6582 35.9678 21.9175 36.2197 22.1021 36.542C22.2896 36.8613 22.4053 37.2319 22.4492 37.6538H21.6055C21.5645 37.355 21.4883 37.0986 21.377 36.8848C21.2656 36.668 21.1074 36.501 20.9023 36.3838C20.6973 36.2666 20.4292 36.208 20.0981 36.208C19.814 36.208 19.5635 36.2622 19.3467 36.3706C19.1328 36.479 18.9526 36.6328 18.8062 36.832C18.6626 37.0312 18.5542 37.27 18.481 37.5483C18.4077 37.8267 18.3711 38.1357 18.3711 38.4756V39.1216C18.3711 39.4351 18.4033 39.7295 18.4678 40.0049C18.5352 40.2803 18.6362 40.522 18.771 40.73C18.9058 40.938 19.0771 41.1021 19.2852 41.2222C19.4932 41.3394 19.7393 41.3979 20.0234 41.3979C20.3838 41.3979 20.6709 41.3408 20.8848 41.2266C21.0986 41.1123 21.2598 40.9482 21.3682 40.7344C21.4795 40.5205 21.5586 40.2642 21.6055 39.9653Z" fill="black"/>
<path d="M27.0151 40.3828C27.0151 40.2334 26.9917 40.1016 26.9448 39.9873C26.9009 39.8701 26.8218 39.7646 26.7075 39.6709C26.5962 39.5771 26.4409 39.4878 26.2417 39.4028C26.0454 39.3179 25.7964 39.2314 25.4946 39.1436C25.1782 39.0498 24.8926 38.9458 24.6377 38.8315C24.3828 38.7144 24.1646 38.5811 23.9829 38.4316C23.8013 38.2822 23.6621 38.1108 23.5654 37.9175C23.4688 37.7241 23.4204 37.5029 23.4204 37.2539C23.4204 37.0049 23.4717 36.7749 23.5742 36.564C23.6768 36.353 23.8232 36.1699 24.0137 36.0146C24.207 35.8564 24.437 35.7334 24.7036 35.6455C24.9702 35.5576 25.2676 35.5137 25.5957 35.5137C26.0762 35.5137 26.4834 35.606 26.8174 35.7905C27.1543 35.9722 27.4106 36.2109 27.5864 36.5068C27.7622 36.7998 27.8501 37.1133 27.8501 37.4473H27.0063C27.0063 37.207 26.9551 36.9946 26.8525 36.8101C26.75 36.6226 26.5947 36.4761 26.3867 36.3706C26.1787 36.2622 25.915 36.208 25.5957 36.208C25.2939 36.208 25.0449 36.2534 24.8486 36.3442C24.6523 36.4351 24.5059 36.5581 24.4092 36.7134C24.3154 36.8687 24.2686 37.0459 24.2686 37.2451C24.2686 37.3799 24.2964 37.5029 24.3521 37.6143C24.4106 37.7227 24.5 37.8237 24.6201 37.9175C24.7432 38.0112 24.8984 38.0977 25.0859 38.1768C25.2764 38.2559 25.5034 38.332 25.7671 38.4053C26.1304 38.5078 26.4438 38.6221 26.7075 38.748C26.9712 38.874 27.188 39.0161 27.3579 39.1743C27.5308 39.3296 27.6582 39.5068 27.7402 39.7061C27.8252 39.9023 27.8677 40.125 27.8677 40.374C27.8677 40.6348 27.8149 40.8706 27.7095 41.0815C27.604 41.2925 27.4531 41.4727 27.2568 41.6221C27.0605 41.7715 26.8247 41.8872 26.5493 41.9692C26.2769 42.0483 25.9722 42.0879 25.6353 42.0879C25.3394 42.0879 25.0479 42.0469 24.7607 41.9648C24.4766 41.8828 24.2173 41.7598 23.9829 41.5957C23.7515 41.4316 23.5654 41.2295 23.4248 40.9893C23.2871 40.7461 23.2183 40.4648 23.2183 40.1455H24.062C24.062 40.3652 24.1045 40.5542 24.1895 40.7124C24.2744 40.8677 24.3901 40.9966 24.5366 41.0991C24.686 41.2017 24.8545 41.2778 25.042 41.3276C25.2324 41.3745 25.4302 41.3979 25.6353 41.3979C25.9312 41.3979 26.1816 41.3569 26.3867 41.2749C26.5918 41.1929 26.7471 41.0757 26.8525 40.9233C26.9609 40.771 27.0151 40.5908 27.0151 40.3828Z" fill="black"/>
<path d="M31.0142 41.0288L32.8994 35.6016H33.8179L31.4492 42H30.7944L31.0142 41.0288ZM29.252 35.6016L31.1196 41.0288L31.3525 42H30.6978L28.3335 35.6016H29.252Z" fill="black"/>
</svg>
