<svg width="50" height="50" viewBox="0 0 50 50" fill="none" xmlns="http://www.w3.org/2000/svg">
<path d="M23.5557 16.5926H29.2224V22.3704H23.5557V16.5926Z" fill="#00AF9A"/>
<path d="M33 6H16V16.5926H21.2889V11.1037H33V6Z" fill="#1D252C"/>
<path d="M16 22.3704H21.2889V32H16V22.3704Z" fill="#1D252C"/>
<path d="M13.6523 35.6016V42H12.8042V35.6016H13.6523Z" fill="black"/>
<path d="M15.8848 38.2603V42H15.0718V37.2451H15.8408L15.8848 38.2603ZM15.6914 39.4424L15.353 39.4292C15.356 39.104 15.4043 38.8037 15.498 38.5283C15.5918 38.25 15.7236 38.0083 15.8936 37.8032C16.0635 37.5981 16.2656 37.4399 16.5 37.3286C16.7373 37.2144 16.9995 37.1572 17.2866 37.1572C17.521 37.1572 17.7319 37.1895 17.9194 37.2539C18.1069 37.3154 18.2666 37.415 18.3984 37.5527C18.5332 37.6904 18.6357 37.8691 18.7061 38.0889C18.7764 38.3057 18.8115 38.5708 18.8115 38.8843V42H17.9941V38.8755C17.9941 38.6265 17.9575 38.4272 17.8843 38.2778C17.811 38.1255 17.7041 38.0156 17.5635 37.9482C17.4229 37.8779 17.25 37.8428 17.0449 37.8428C16.8428 37.8428 16.6582 37.8853 16.4912 37.9702C16.3271 38.0552 16.1851 38.1724 16.0649 38.3218C15.9478 38.4712 15.8555 38.6426 15.7881 38.8359C15.7236 39.0264 15.6914 39.2285 15.6914 39.4424Z" fill="black"/>
<path d="M20.0596 41.5693C20.0596 41.4316 20.1021 41.3159 20.187 41.2222C20.2749 41.1255 20.4009 41.0771 20.5649 41.0771C20.729 41.0771 20.8535 41.1255 20.9385 41.2222C21.0264 41.3159 21.0703 41.4316 21.0703 41.5693C21.0703 41.7041 21.0264 41.8184 20.9385 41.9121C20.8535 42.0059 20.729 42.0527 20.5649 42.0527C20.4009 42.0527 20.2749 42.0059 20.187 41.9121C20.1021 41.8184 20.0596 41.7041 20.0596 41.5693Z" fill="black"/>
<path d="M26.9634 35.6016V42H26.1284V35.6016H26.9634ZM29.02 35.6016V36.2959H24.0762V35.6016H29.02Z" fill="black"/>
<path d="M30.6592 35.25V42H29.8462V35.25H30.6592ZM30.4658 39.4424L30.1274 39.4292C30.1304 39.104 30.1787 38.8037 30.2725 38.5283C30.3662 38.25 30.498 38.0083 30.668 37.8032C30.8379 37.5981 31.04 37.4399 31.2744 37.3286C31.5117 37.2144 31.7739 37.1572 32.061 37.1572C32.2954 37.1572 32.5063 37.1895 32.6938 37.2539C32.8813 37.3154 33.041 37.415 33.1729 37.5527C33.3076 37.6904 33.4102 37.8691 33.4805 38.0889C33.5508 38.3057 33.5859 38.5708 33.5859 38.8843V42H32.7686V38.8755C32.7686 38.6265 32.7319 38.4272 32.6587 38.2778C32.5854 38.1255 32.4785 38.0156 32.3379 37.9482C32.1973 37.8779 32.0244 37.8428 31.8193 37.8428C31.6172 37.8428 31.4326 37.8853 31.2656 37.9702C31.1016 38.0552 30.9595 38.1724 30.8394 38.3218C30.7222 38.4712 30.6299 38.6426 30.5625 38.8359C30.498 39.0264 30.4658 39.2285 30.4658 39.4424Z" fill="black"/>
<path d="M35.6162 37.9922V42H34.8032V37.2451H35.5942L35.6162 37.9922ZM37.1016 37.2188L37.0972 37.9746C37.0298 37.96 36.9653 37.9512 36.9038 37.9482C36.8452 37.9424 36.7778 37.9395 36.7017 37.9395C36.5142 37.9395 36.3486 37.9688 36.2051 38.0273C36.0615 38.0859 35.9399 38.168 35.8403 38.2734C35.7407 38.3789 35.6616 38.5049 35.603 38.6514C35.5474 38.7949 35.5107 38.9531 35.4932 39.126L35.2646 39.2578C35.2646 38.9707 35.2925 38.7012 35.3481 38.4492C35.4067 38.1973 35.4961 37.9746 35.6162 37.7812C35.7363 37.585 35.8887 37.4326 36.0732 37.3242C36.2607 37.2129 36.4834 37.1572 36.7412 37.1572C36.7998 37.1572 36.8672 37.1646 36.9434 37.1792C37.0195 37.1909 37.0723 37.2041 37.1016 37.2188Z" fill="black"/>
<path d="M37.3213 41.5693C37.3213 41.4316 37.3638 41.3159 37.4487 41.2222C37.5366 41.1255 37.6626 41.0771 37.8267 41.0771C37.9907 41.0771 38.1152 41.1255 38.2002 41.2222C38.2881 41.3159 38.332 41.4316 38.332 41.5693C38.332 41.7041 38.2881 41.8184 38.2002 41.9121C38.1152 42.0059 37.9907 42.0527 37.8267 42.0527C37.6626 42.0527 37.5366 42.0059 37.4487 41.9121C37.3638 41.8184 37.3213 41.7041 37.3213 41.5693Z" fill="black"/>
</svg>
