<svg width="50" height="50" viewBox="0 0 50 50" fill="none" xmlns="http://www.w3.org/2000/svg">
<path d="M23.5557 16.5926H29.2224V22.3704H23.5557V16.5926Z" fill="#00AF9A"/>
<path d="M33 6H16V16.5926H21.2889V11.1037H33V6Z" fill="#1D252C"/>
<path d="M16 22.3704H21.2889V32H16V22.3704Z" fill="#1D252C"/>
<path d="M21.6689 38.5986V39.0029C21.6689 39.4834 21.6089 39.9141 21.4888 40.2949C21.3687 40.6758 21.1958 40.9995 20.9702 41.2661C20.7446 41.5327 20.4736 41.7363 20.1572 41.877C19.8438 42.0176 19.4922 42.0879 19.1025 42.0879C18.7246 42.0879 18.3774 42.0176 18.061 41.877C17.7476 41.7363 17.4751 41.5327 17.2437 41.2661C17.0151 40.9995 16.8379 40.6758 16.7119 40.2949C16.5859 39.9141 16.5229 39.4834 16.5229 39.0029V38.5986C16.5229 38.1182 16.5845 37.689 16.7075 37.311C16.8335 36.9302 17.0107 36.6064 17.2393 36.3398C17.4678 36.0703 17.7388 35.8652 18.0522 35.7246C18.3687 35.584 18.7158 35.5137 19.0938 35.5137C19.4834 35.5137 19.835 35.584 20.1484 35.7246C20.4648 35.8652 20.7358 36.0703 20.9614 36.3398C21.1899 36.6064 21.3643 36.9302 21.4844 37.311C21.6074 37.689 21.6689 38.1182 21.6689 38.5986ZM20.8296 39.0029V38.5898C20.8296 38.209 20.79 37.8721 20.7109 37.5791C20.6348 37.2861 20.522 37.04 20.3726 36.8408C20.2231 36.6416 20.04 36.4907 19.8232 36.3882C19.6094 36.2856 19.3662 36.2344 19.0938 36.2344C18.8301 36.2344 18.5913 36.2856 18.3774 36.3882C18.1665 36.4907 17.9849 36.6416 17.8325 36.8408C17.6831 37.04 17.5674 37.2861 17.4854 37.5791C17.4033 37.8721 17.3623 38.209 17.3623 38.5898V39.0029C17.3623 39.3867 17.4033 39.7266 17.4854 40.0225C17.5674 40.3154 17.6846 40.563 17.8369 40.7651C17.9922 40.9644 18.1753 41.1152 18.3862 41.2178C18.6001 41.3203 18.8389 41.3716 19.1025 41.3716C19.3779 41.3716 19.6226 41.3203 19.8364 41.2178C20.0503 41.1152 20.2305 40.9644 20.377 40.7651C20.5264 40.563 20.6392 40.3154 20.7153 40.0225C20.7915 39.7266 20.8296 39.3867 20.8296 39.0029Z" fill="black"/>
<path d="M27.8608 35.6016V42H27.0083L23.7871 37.0649V42H22.939V35.6016H23.7871L27.0215 40.5498V35.6016H27.8608Z" fill="black"/>
<path d="M33.4287 41.3101V42H30.0405V41.3101H33.4287ZM30.2119 35.6016V42H29.3638V35.6016H30.2119ZM32.9805 38.3525V39.0425H30.0405V38.3525H32.9805ZM33.3848 35.6016V36.2959H30.0405V35.6016H33.3848Z" fill="black"/>
</svg>
