<svg width="50" height="50" viewBox="0 0 50 50" fill="none" xmlns="http://www.w3.org/2000/svg">
<rect width="50" height="50" fill="#01A7E2"/>
<path d="M35.5875 20.9125C35.573 21.0722 35.5537 21.2208 35.5457 21.3758C35.3832 24.4052 34.6213 27.3731 33.3035 30.1103C33.1425 30.4298 32.9815 30.7494 32.8206 31.0593C32.8206 31.0689 32.8077 31.0769 32.7932 31.0977L29.5578 29.6597C31.1865 26.732 32.0408 23.4421 32.0408 20.0977C32.0408 16.7532 31.1865 13.4634 29.5578 10.5356L32.798 9.09766C32.8576 9.2079 32.9155 9.31174 32.9703 9.41719C34.5502 12.4594 35.4356 15.8098 35.5634 19.2301C35.5686 19.2578 35.5762 19.2851 35.5859 19.3116V19.7046C35.576 19.7277 35.569 19.7518 35.565 19.7765C35.565 19.9794 35.565 20.1823 35.565 20.3836C35.5687 20.4126 35.5758 20.441 35.5859 20.4683L35.5875 20.9125Z" fill="white"/>
<path d="M35.5879 20.4733C35.5774 20.4459 35.5702 20.4175 35.5663 20.3886C35.5663 20.1873 35.5663 19.9844 35.5663 19.7815C35.5704 19.7567 35.5777 19.7326 35.5879 19.7096V20.4733Z" fill="white"/>
<path d="M27.6186 15.332L17.0175 20.1042L27.625 24.8765C27.1422 25.9437 26.6593 27.003 26.1619 28.0718L25.8078 27.9121L14.3166 22.7484C13.766 22.5096 13.3044 22.1061 12.9962 21.5942C12.6879 21.0824 12.5486 20.4877 12.5975 19.8933C12.622 19.3708 12.795 18.8659 13.0963 18.4367C13.3976 18.0076 13.8151 17.6718 14.3005 17.4681C16.7761 16.3401 19.2598 15.2313 21.7418 14.1129L26.0396 12.1813L26.1603 12.1302C26.6448 13.1975 27.1293 14.2583 27.6186 15.332Z" fill="white"/>
<path d="M12.3768 38.5415C12.3768 38.4051 12.3535 38.2848 12.3067 38.1805C12.2628 38.0736 12.1839 37.9773 12.0699 37.8918C11.9588 37.8062 11.8038 37.7247 11.605 37.6471C11.4091 37.5696 11.1606 37.4907 10.8595 37.4105C10.5438 37.3249 10.2587 37.23 10.0044 37.1257C9.75001 37.0188 9.53221 36.8971 9.35094 36.7608C9.16968 36.6244 9.03081 36.468 8.93433 36.2915C8.83786 36.115 8.78962 35.9132 8.78962 35.6859C8.78962 35.4586 8.84078 35.2487 8.94311 35.0562C9.04543 34.8637 9.19161 34.6966 9.38164 34.5549C9.5746 34.4105 9.8041 34.2982 10.0701 34.218C10.3362 34.1378 10.6329 34.0977 10.9604 34.0977C11.4398 34.0977 11.8462 34.1819 12.1795 34.3503C12.5157 34.5161 12.7715 34.734 12.9469 35.0041C13.1224 35.2715 13.2101 35.5575 13.2101 35.8624H12.3681C12.3681 35.6431 12.3169 35.4493 12.2146 35.2808C12.1123 35.1097 11.9573 34.976 11.7497 34.8797C11.5422 34.7808 11.279 34.7313 10.9604 34.7313C10.6592 34.7313 10.4107 34.7728 10.2149 34.8557C10.019 34.9386 9.8728 35.0509 9.77632 35.1926C9.68277 35.3343 9.63599 35.4961 9.63599 35.6779C9.63599 35.8009 9.66377 35.9132 9.71931 36.0148C9.77779 36.1137 9.86696 36.2059 9.98682 36.2915C10.1096 36.3771 10.2646 36.4559 10.4517 36.5281C10.6417 36.6003 10.8683 36.6698 11.1314 36.7367C11.4939 36.8303 11.8067 36.9346 12.0699 37.0495C12.333 37.1645 12.5493 37.2942 12.7189 37.4386C12.8914 37.5803 13.0186 37.742 13.1004 37.9239C13.1852 38.103 13.2276 38.3062 13.2276 38.5335C13.2276 38.7715 13.175 38.9867 13.0697 39.1792C12.9645 39.3717 12.8139 39.5362 12.618 39.6725C12.4222 39.8089 12.1868 39.9145 11.912 39.9894C11.6401 40.0616 11.3361 40.0977 10.9998 40.0977C10.7046 40.0977 10.4137 40.0602 10.1272 39.9854C9.84357 39.9105 9.58483 39.7982 9.35094 39.6485C9.11998 39.4987 8.93433 39.3142 8.794 39.095C8.65659 38.8731 8.58789 38.6164 8.58789 38.3249H9.42988C9.42988 38.5255 9.47227 38.6979 9.55706 38.8423C9.64184 38.984 9.75732 39.1017 9.9035 39.1953C10.0526 39.2888 10.2207 39.3584 10.4078 39.4038C10.5978 39.4466 10.7952 39.468 10.9998 39.468C11.2951 39.468 11.5451 39.4305 11.7497 39.3557C11.9544 39.2808 12.1093 39.1739 12.2146 39.0348C12.3228 38.8958 12.3768 38.7313 12.3768 38.5415Z" fill="white"/>
<path d="M15.986 38.2527L17.2534 34.1779H17.8673L17.5121 35.7621L16.1483 40.0174H15.5387L15.986 38.2527ZM14.6748 34.1779L15.6834 38.1725L15.986 40.0174H15.3808L13.8328 34.1779H14.6748ZM19.5074 38.1685L20.4942 34.1779H21.3405L19.7969 40.0174H19.1917L19.5074 38.1685ZM17.9594 34.1779L19.1917 38.2527L19.639 40.0174H19.0294L17.7138 35.7621L17.3542 34.1779H17.9594Z" fill="white"/>
<path d="M23.1868 34.1779V40.0174H22.3404V34.1779H23.1868Z" fill="white"/>
<path d="M26.9538 34.1779V40.0174H26.1206V34.1779H26.9538ZM29.0061 34.1779V34.8116H24.0726V34.1779H29.0061Z" fill="white"/>
<path d="M33.6853 38.1605H34.5273C34.4835 38.5295 34.368 38.8597 34.1809 39.1511C33.9938 39.4426 33.7292 39.6739 33.3871 39.845C33.0451 40.0134 32.6182 40.0977 32.1066 40.0977C31.7324 40.0977 31.3918 40.0335 31.0848 39.9051C30.7808 39.7768 30.5191 39.595 30.2998 39.3597C30.0806 39.1217 29.911 38.837 29.7911 38.5054C29.6742 38.1712 29.6157 37.7995 29.6157 37.3904V36.8089C29.6157 36.3998 29.6742 36.0295 29.7911 35.6979C29.911 35.3637 30.082 35.0776 30.3042 34.8396C30.5293 34.6017 30.7998 34.4185 31.1155 34.2902C31.4312 34.1618 31.7865 34.0977 32.1811 34.0977C32.6635 34.0977 33.0714 34.1805 33.4047 34.3463C33.738 34.5121 33.9967 34.742 34.1809 35.0362C34.368 35.3276 34.4835 35.6658 34.5273 36.0509H33.6853C33.6444 35.7781 33.5684 35.5442 33.4573 35.349C33.3462 35.1511 33.1883 34.9987 32.9837 34.8918C32.779 34.7848 32.5115 34.7313 32.1811 34.7313C31.8976 34.7313 31.6476 34.7808 31.4312 34.8797C31.2178 34.9787 31.038 35.119 30.8919 35.3009C30.7486 35.4827 30.6404 35.7006 30.5673 35.9546C30.4942 36.2086 30.4577 36.4907 30.4577 36.8009V37.3904C30.4577 37.6765 30.4899 37.9452 30.5542 38.1966C30.6214 38.4479 30.7223 38.6685 30.8568 38.8584C30.9913 39.0482 31.1623 39.1979 31.3699 39.3075C31.5774 39.4145 31.823 39.468 32.1066 39.468C32.4662 39.468 32.7527 39.4158 32.9661 39.3116C33.1795 39.2073 33.3403 39.0575 33.4485 38.8624C33.5596 38.6672 33.6385 38.4332 33.6853 38.1605Z" fill="white"/>
<path d="M39.8511 36.6886V37.3182H36.3955V36.6886H39.8511ZM36.527 34.1779V40.0174H35.6807V34.1779H36.527ZM40.5879 34.1779V40.0174H39.7459V34.1779H40.5879Z" fill="white"/>
</svg>
