<svg width="50" height="50" viewBox="0 0 50 50" fill="none" xmlns="http://www.w3.org/2000/svg">
<g opacity="0.535714" filter="url(#filter0_f_9176_12471)">
<path d="M9.27549 30.6362C5.5561 31.7445 13.8162 36.98 17.3011 37.9908C24.4058 40.0515 29.0237 40.6252 39.146 34.0789C43.2334 30.4682 36.1991 30.2557 26.91 30.8551C11.2052 30.0148 10.0522 27.6738 9.27549 30.6362Z" fill="#2E3436"/>
</g>
<path d="M9.27549 29.7312C5.5561 30.8395 13.8162 36.075 17.3011 37.0858C24.4058 39.1464 29.0237 39.7202 39.146 33.1739C43.2334 29.5632 36.1991 29.3507 26.91 29.9501C11.2052 29.1097 10.0522 26.7688 9.27549 29.7312Z" fill="url(#paint0_radial_9176_12471)"/>
<path d="M23.9585 12.4259C18.0662 12.2989 14.8031 13.7655 12.7755 16.6199C10.8174 19.3767 9.22263 25.6764 9.39626 29.47C13.6648 36.19 34.102 36.0674 37.7303 29.9411C36.1508 24.3948 36.6551 19.6935 34.1444 16.4845C31.8164 13.5089 27.688 12.257 23.9585 12.4259Z" fill="url(#paint1_radial_9176_12471)"/>
<path d="M22.7976 24.6188L26.1568 24.4055C25.7492 20.5926 23.9985 17.7786 21.8378 14.5045C22.8278 14.2806 24.83 13.668 26.3502 14.5045C28.808 17.5631 30.2723 20.1554 31.3091 23.7824L34.7217 23.5691C32.8179 19.1058 32.2457 15.9752 29.1762 13.1714C29.1762 13.1714 25.9968 11.7851 22.7976 11.7851C15.0248 11.474 10.6812 20.304 10.2137 27.7282C10.0645 31.8876 9.86727 31.544 11.4401 32.5271C12.7198 33.3269 12.5599 32.2605 12.5599 32.2605C11.9167 24.1937 16.6365 17.8818 18.7451 15.7842C20.649 18.4217 21.8877 21.6972 22.7976 24.6188Z" fill="url(#paint2_radial_9176_12471)"/>
<g opacity="0.709821" filter="url(#filter1_f_9176_12471)">
<path fill-rule="evenodd" clip-rule="evenodd" d="M21.0725 15.482C23.4541 16.1015 25.1737 17.7028 24.9109 19.0563C24.6836 20.2269 23.0438 20.8323 21.0652 20.5735C20.3411 17.8816 19.1993 16.1576 18.0718 15.3572C18.9115 15.166 19.9657 15.1941 21.0725 15.482V15.482Z" fill="url(#paint3_radial_9176_12471)"/>
</g>
<g opacity="0.709821" filter="url(#filter2_f_9176_12471)">
<path fill-rule="evenodd" clip-rule="evenodd" d="M28.7868 13.9312C31.2372 14.1577 33.1929 15.4601 33.1522 16.8384C33.117 18.0303 31.5966 18.8927 29.6022 18.957C28.4527 16.4174 27.0474 14.9005 25.8053 14.2928C26.6032 13.9685 27.648 13.8259 28.7868 13.9312Z" fill="url(#paint4_radial_9176_12471)"/>
</g>
<path fill-rule="evenodd" clip-rule="evenodd" d="M23.695 29.0727C22.0227 21.5624 20.1588 16.1257 17.4966 14.4585C18.5989 15.0762 20.708 15.5903 23.347 27.2813L23.695 29.0727V29.0727Z" fill="url(#paint5_radial_9176_12471)"/>
<path fill-rule="evenodd" clip-rule="evenodd" d="M33.4368 28.894C30.9319 20.6264 28.3316 14.6809 25.0161 12.9841C26.3842 13.6058 28.958 14.0512 32.9006 26.9189L33.4368 28.894V28.894Z" fill="url(#paint6_radial_9176_12471)"/>
<path fill-rule="evenodd" clip-rule="evenodd" d="M13.3353 28.8271C12.5403 28.5926 11.1323 32.1295 11.1323 32.1295C11.1323 32.1295 11.5764 32.8501 12.3714 33.0846C13.1664 33.3191 14.3123 33.0674 14.3123 33.0674C14.3123 33.0674 14.1303 29.0616 13.3353 28.8271V28.8271Z" fill="url(#paint7_linear_9176_12471)"/>
<path d="M9.27549 29.7312C5.5561 30.8394 13.8162 36.075 17.3011 37.0858C24.4058 39.1464 29.0237 39.7201 39.146 33.1738C41.1897 31.3685 40.453 30.4127 38.0442 29.9832" stroke="url(#paint8_radial_9176_12471)"/>
<path d="M9.27549 29.7312C5.5561 30.8394 13.8162 36.075 17.3011 37.0858C24.4058 39.1464 29.0237 39.7201 39.146 33.1738C41.1897 31.3685 40.453 30.4127 38.0442 29.9832" stroke="url(#paint9_radial_9176_12471)"/>
<defs>
<filter id="filter0_f_9176_12471" x="2.80962" y="23.6573" width="43.0492" height="21.2563" filterUnits="userSpaceOnUse" color-interpolation-filters="sRGB">
<feFlood flood-opacity="0" result="BackgroundImageFix"/>
<feBlend mode="normal" in="SourceGraphic" in2="BackgroundImageFix" result="shape"/>
<feGaussianBlur stdDeviation="2.76194" result="effect1_foregroundBlur_9176_12471"/>
</filter>
<filter id="filter1_f_9176_12471" x="15.6324" y="12.796" width="11.7444" height="10.2759" filterUnits="userSpaceOnUse" color-interpolation-filters="sRGB">
<feFlood flood-opacity="0" result="BackgroundImageFix"/>
<feBlend mode="normal" in="SourceGraphic" in2="BackgroundImageFix" result="shape"/>
<feGaussianBlur stdDeviation="1.21966" result="effect1_foregroundBlur_9176_12471"/>
</filter>
<filter id="filter2_f_9176_12471" x="23.3658" y="11.4576" width="12.2263" height="9.93871" filterUnits="userSpaceOnUse" color-interpolation-filters="sRGB">
<feFlood flood-opacity="0" result="BackgroundImageFix"/>
<feBlend mode="normal" in="SourceGraphic" in2="BackgroundImageFix" result="shape"/>
<feGaussianBlur stdDeviation="1.21966" result="effect1_foregroundBlur_9176_12471"/>
</filter>
<radialGradient id="paint0_radial_9176_12471" cx="0" cy="0" r="1" gradientUnits="userSpaceOnUse" gradientTransform="translate(27.7743 33.8466) scale(16.0797 4.82396)">
<stop stop-color="#F2DA06"/>
<stop offset="0.445111" stop-color="#FCEE72"/>
<stop offset="1" stop-color="#F2DA06"/>
</radialGradient>
<radialGradient id="paint1_radial_9176_12471" cx="0" cy="0" r="1" gradientUnits="userSpaceOnUse" gradientTransform="translate(24.4617 22.4116) rotate(10.806) scale(18.8255 14.5308)">
<stop stop-color="#E9D012"/>
<stop offset="0.460285" stop-color="#EFD840"/>
<stop offset="0.76601" stop-color="#D2B828"/>
<stop offset="1" stop-color="#EACF4E"/>
</radialGradient>
<radialGradient id="paint2_radial_9176_12471" cx="0" cy="0" r="1" gradientUnits="userSpaceOnUse" gradientTransform="translate(18.7926 15.1558) rotate(121.036) scale(13.9821 14.6268)">
<stop stop-color="#EFDD52"/>
<stop offset="1" stop-color="#F2E26D" stop-opacity="0"/>
</radialGradient>
<radialGradient id="paint3_radial_9176_12471" cx="0" cy="0" r="1" gradientUnits="userSpaceOnUse" gradientTransform="translate(20.8388 18.4831) rotate(-165.42) scale(3.71671 2.46468)">
<stop stop-color="white"/>
<stop offset="1" stop-color="white" stop-opacity="0"/>
</radialGradient>
<radialGradient id="paint4_radial_9176_12471" cx="0" cy="0" r="1" gradientUnits="userSpaceOnUse" gradientTransform="translate(29.041 16.9306) rotate(-174.718) scale(3.71671 2.46469)">
<stop stop-color="white"/>
<stop offset="1" stop-color="white" stop-opacity="0"/>
</radialGradient>
<radialGradient id="paint5_radial_9176_12471" cx="0" cy="0" r="1" gradientUnits="userSpaceOnUse" gradientTransform="translate(20.5958 21.7656) rotate(177.856) scale(2.05739 7.41792)">
<stop stop-color="#DDBE0C"/>
<stop offset="1" stop-color="#DDBE0C" stop-opacity="0"/>
</radialGradient>
<radialGradient id="paint6_radial_9176_12471" cx="0" cy="0" r="1" gradientUnits="userSpaceOnUse" gradientTransform="translate(29.2265 20.9391) rotate(175.141) scale(2.48019 8.28296)">
<stop stop-color="#DDBE0C"/>
<stop offset="1" stop-color="#DDBE0C" stop-opacity="0"/>
</radialGradient>
<linearGradient id="paint7_linear_9176_12471" x1="13.1236" y1="31.0133" x2="11.5178" y2="30.6068" gradientUnits="userSpaceOnUse">
<stop stop-color="#EDD60C"/>
<stop offset="1" stop-color="#AD9C08"/>
</linearGradient>
<radialGradient id="paint8_radial_9176_12471" cx="0" cy="0" r="1" gradientUnits="userSpaceOnUse" gradientTransform="translate(12.3902 36.7206) rotate(-8.56624) scale(22.5082 7.0133)">
<stop stop-opacity="0.33"/>
<stop offset="1" stop-opacity="0"/>
</radialGradient>
<radialGradient id="paint9_radial_9176_12471" cx="0" cy="0" r="1" gradientUnits="userSpaceOnUse" gradientTransform="translate(37.2912 34.801) rotate(-8.56624) scale(22.5082 7.0133)">
<stop stop-opacity="0.33"/>
<stop offset="1" stop-opacity="0"/>
</radialGradient>
</defs>
</svg>
