<svg width="50" height="50" viewBox="0 0 50 50" fill="none" xmlns="http://www.w3.org/2000/svg">
<rect width="50" height="50" fill="#01A7E2"/>
<path d="M37.7056 21.5386C37.5148 25.1012 36.4945 28.5117 34.8606 31.6623C34.8606 31.6723 34.8472 31.6807 34.832 31.7024L31.4544 30.1991C33.1547 27.1382 34.0465 23.6989 34.0465 20.2024C34.0465 16.7059 33.1547 13.2665 31.4544 10.2057L34.8371 8.70239C36.9462 12.6119 37.9359 17.0969 37.7056 21.5386Z" fill="white"/>
<path d="M29.4298 15.2201L18.3625 20.2093L29.4366 25.1984C28.9324 26.3142 28.4283 27.4216 27.909 28.539L15.5427 22.9736C14.3864 22.4714 13.6438 21.2569 13.748 19.9888C13.8002 18.878 14.5096 17.8804 15.5259 17.4533C19.6445 15.5741 23.7782 13.7283 27.9074 11.8728C28.4132 12.9886 28.919 14.0976 29.4298 15.2201Z" fill="white"/>
<path d="M17.2441 38.8286L18.1891 35.5443H18.9339L17.3014 40.6117C17.2259 40.8289 17.1076 41.0954 16.9178 41.3217C16.6047 41.695 16.136 41.7757 15.7028 41.6422L15.6991 41.0336C15.8989 41.0509 16.0981 41.0607 16.2896 40.9809C16.697 40.8211 16.7873 40.2724 16.9178 39.8865L15.4658 35.5443H16.2257L17.2441 38.8286Z" fill="white"/>
<path fill-rule="evenodd" clip-rule="evenodd" d="M30.8877 35.4632C31.4007 35.4632 31.7811 35.6603 32.0462 36.0271C32.0479 36.0294 32.0492 36.032 32.0509 36.0342L32.0838 35.5443H32.7157V39.8408C32.7157 40.9997 32.0111 41.6665 30.993 41.6665C30.4324 41.6665 29.814 41.4113 29.4847 40.9038L29.8495 40.4575C30.1925 40.9036 30.5763 41.0499 30.9403 41.0499C31.6012 41.0499 32.0198 40.6428 32.0198 39.8773V39.4868C31.7557 39.8273 31.3821 40.0153 30.8801 40.0153C29.9129 40.0153 29.2815 39.0616 29.2815 37.7879C29.2815 36.7059 29.7102 35.4632 30.8877 35.4632ZM31.0569 36.0961C30.2066 36.0961 29.9774 37.0372 29.9774 37.7879C29.9774 38.6683 30.2964 39.3783 31.0494 39.3783C31.5108 39.3783 31.8029 39.1484 31.9785 38.8022C31.9932 38.7741 32.0062 38.7449 32.0198 38.716V36.7361C31.8444 36.3668 31.5429 36.0961 31.0569 36.0961Z" fill="white"/>
<path fill-rule="evenodd" clip-rule="evenodd" d="M21.108 35.4632C22.272 35.4632 22.7818 36.3686 22.7818 37.6135V37.9502H20.0303C20.0492 38.7566 20.5003 39.4027 21.2359 39.4027C21.7274 39.4027 22.0521 39.1687 22.3079 38.8063L22.7291 39.1673C22.4668 39.5958 22.0092 40.0153 21.1982 40.0153C20.0159 40.0153 19.3288 38.9485 19.3288 37.723C19.3288 36.2858 20.1971 35.4632 21.108 35.4632ZM21.108 36.0799C20.5605 36.0799 20.145 36.5242 20.0501 37.3376H22.0859C22.0859 36.9458 21.9648 36.5109 21.6722 36.2584C21.5343 36.1394 21.3462 36.0799 21.108 36.0799Z" fill="white"/>
<path d="M25.0687 35.4632C26.0437 35.4632 26.6185 36.0752 26.6185 36.8345H25.9226C25.9226 36.4696 25.6223 36.0799 25.0687 36.0799C24.5014 36.0799 24.26 36.3949 24.26 36.725C24.26 37.042 24.4237 37.216 25.1966 37.4025C26.1972 37.6459 26.6598 38.007 26.6598 38.7129C26.6598 39.6196 25.8132 40.0153 25.0876 40.0153C24.0118 40.0153 23.4212 39.3093 23.4212 38.5791H24.1209C24.1507 39.1897 24.6555 39.3986 25.0876 39.3986C25.6658 39.3986 25.964 39.1329 25.964 38.7697C25.964 38.4434 25.8329 38.1816 25.0274 38.0111C24.1386 37.8087 23.5604 37.4771 23.5604 36.7452C23.5604 35.9067 24.3753 35.4632 25.0687 35.4632Z" fill="white"/>
<path d="M38.9597 35.5443H39.7195V36.1204H38.9597V38.8468C38.9597 38.9956 38.981 39.1078 39.0236 39.1836C39.1677 39.4396 39.5069 39.3782 39.7345 39.3215L39.7383 39.9341C39.2722 40.0941 38.646 40.0563 38.3879 39.5406C38.3052 39.3675 38.2638 39.1349 38.2638 38.8428V36.1204H37.519V35.5443H38.2638V34.4773H38.9597V35.5443Z" fill="white"/>
<path d="M15.18 34.027V34.668H12.4642V36.5667H14.8339V37.2037H12.4642V39.2972H15.2176V39.9341H11.7383V34.027H15.18Z" fill="white"/>
<path d="M28.3299 39.9341H27.6303V35.5443H28.3299V39.9341Z" fill="white"/>
<path d="M34.4685 36.0697C34.7618 35.6825 35.1763 35.4632 35.6684 35.4632C36.5709 35.4632 36.9736 36.1754 36.9736 37.0576V39.9341H36.274V37.0495C36.274 36.3506 35.9826 36.0961 35.4615 36.0961C35.0182 36.0961 34.6657 36.3795 34.4685 36.8041V39.9341H33.7727V33.7024H34.4685V36.0697Z" fill="white"/>
<path d="M27.9876 33.9458C28.2556 33.9458 28.4014 34.1384 28.4014 34.3799C28.4014 34.6087 28.258 34.8019 27.9876 34.8019C27.7165 34.8019 27.5776 34.6123 27.5776 34.3799C27.5776 34.1345 27.7189 33.9458 27.9876 33.9458Z" fill="white"/>
</svg>
