<svg width="50" height="50" viewBox="0 0 50 50" fill="none" xmlns="http://www.w3.org/2000/svg">
<path d="M37.617 18.8889C37.6011 19.0632 37.5799 19.2253 37.571 19.3943C37.3928 22.6991 36.5569 25.9369 35.111 28.9229C34.9344 29.2714 34.7578 29.62 34.5812 29.9581C34.5812 29.9686 34.567 29.9773 34.5511 30L31.0014 28.4313C32.7884 25.2374 33.7256 21.6485 33.7256 18C33.7256 14.3515 32.7884 10.7626 31.0014 7.56863L34.5564 6C34.6218 6.12026 34.6854 6.23355 34.7454 6.34858C36.4789 9.6674 37.4502 13.3223 37.5905 17.0536C37.5962 17.0838 37.6045 17.1136 37.6152 17.1425V17.5712C37.6043 17.5963 37.5966 17.6227 37.5922 17.6497C37.5922 17.871 37.5922 18.0924 37.5922 18.312C37.5963 18.3435 37.604 18.3745 37.6152 18.4043L37.617 18.8889Z" fill="#01A7E2"/>
<path d="M37.6173 18.4097C37.6058 18.3799 37.5979 18.3489 37.5937 18.3174C37.5937 18.0978 37.5937 17.8764 37.5937 17.6551C37.5982 17.6281 37.6061 17.6017 37.6173 17.5766V18.4097Z" fill="#41BDE9"/>
<path d="M28.8738 12.8011L17.2428 18.0072L28.8809 23.2132C28.3511 24.3775 27.8213 25.5331 27.2756 26.6991L26.887 26.5248L14.2794 20.8917C13.6754 20.6312 13.1689 20.191 12.8307 19.6326C12.4926 19.0742 12.3397 18.4255 12.3933 17.7771C12.4203 17.2071 12.61 16.6562 12.9406 16.1881C13.2712 15.7199 13.7292 15.3536 14.2618 15.1313C16.9779 13.9008 19.7029 12.6913 22.4261 11.4712L27.1414 9.36402L27.2738 9.30825C27.8054 10.4725 28.3369 11.6298 28.8738 12.8011Z" fill="#01A7E2"/>
<path d="M19.0576 34.5205L16.7041 41H15.7422L18.4521 33.8906H19.0723L19.0576 34.5205ZM21.0303 41L18.6719 34.5205L18.6572 33.8906H19.2773L21.9971 41H21.0303ZM20.9082 38.3682V39.1396H16.9141V38.3682H20.9082Z" fill="#1C1D1F"/>
<path d="M27.1826 38.7393H28.1201C28.0713 39.1885 27.9427 39.5905 27.7344 39.9453C27.526 40.3001 27.2314 40.5817 26.8506 40.79C26.4697 40.9951 25.9945 41.0977 25.4248 41.0977C25.0081 41.0977 24.6289 41.0195 24.2871 40.8633C23.9486 40.707 23.6572 40.4857 23.4131 40.1992C23.1689 39.9095 22.9801 39.5628 22.8467 39.1592C22.7165 38.7523 22.6514 38.2998 22.6514 37.8018V37.0938C22.6514 36.5957 22.7165 36.1449 22.8467 35.7412C22.9801 35.3343 23.1706 34.986 23.418 34.6963C23.6686 34.4066 23.9697 34.1836 24.3213 34.0273C24.6729 33.8711 25.0684 33.793 25.5078 33.793C26.0449 33.793 26.499 33.8939 26.8701 34.0957C27.2412 34.2975 27.5293 34.5775 27.7344 34.9355C27.9427 35.2904 28.0713 35.7021 28.1201 36.1709H27.1826C27.137 35.8389 27.0524 35.554 26.9287 35.3164C26.805 35.0755 26.6292 34.89 26.4014 34.7598C26.1735 34.6296 25.8757 34.5645 25.5078 34.5645C25.1921 34.5645 24.9137 34.6247 24.6729 34.7451C24.4352 34.8656 24.235 35.0365 24.0723 35.2578C23.9128 35.4792 23.7923 35.7445 23.7109 36.0537C23.6296 36.363 23.5889 36.7064 23.5889 37.084V37.8018C23.5889 38.1501 23.6247 38.4772 23.6963 38.7832C23.7712 39.0892 23.8835 39.3577 24.0332 39.5889C24.1829 39.82 24.3734 40.0023 24.6045 40.1357C24.8356 40.266 25.109 40.3311 25.4248 40.3311C25.8252 40.3311 26.1442 40.2676 26.3818 40.1406C26.6195 40.0137 26.7985 39.8314 26.9189 39.5938C27.0426 39.3561 27.1305 39.0713 27.1826 38.7393Z" fill="#1C1D1F"/>
<path d="M31.8848 33.8906V41H30.957V33.8906H31.8848ZM34.1699 33.8906V34.6621H28.6768V33.8906H34.1699Z" fill="#1C1D1F"/>
</svg>
