<svg width="50" height="50" viewBox="0 0 50 50" fill="none" xmlns="http://www.w3.org/2000/svg">
<path d="M37.5708 20.8943C37.3702 24.6118 36.2979 28.1706 34.5809 31.4581C34.5809 31.4686 34.5668 31.4773 34.5509 31.5L31.0012 29.9313C32.7881 26.7374 33.7253 23.1485 33.7253 19.5C33.7253 15.8515 32.7881 12.2626 31.0012 9.06863L34.5562 7.5C36.7727 11.5795 37.8128 16.2595 37.5708 20.8943Z" fill="#01A7E2"/>
<path d="M28.8735 14.3011L17.2425 19.5072L28.8806 24.7132C28.3508 25.8775 27.821 27.0331 27.2753 28.1991L14.2791 22.3917C13.0639 21.8677 12.2835 20.6004 12.393 19.2771C12.4478 18.118 13.1934 17.0771 14.2615 16.6313C18.5898 14.6705 22.9341 12.7444 27.2735 10.8083C27.8051 11.9725 28.3367 13.1298 28.8735 14.3011Z" fill="#01A7E2"/>
<path d="M16.3779 38.9355L17.3594 35.7734H18.1328L16.4375 40.6523C16.3591 40.8615 16.2362 41.1181 16.0391 41.3359C15.7139 41.6953 15.2272 41.7731 14.7773 41.6445L14.7734 41.0586C14.981 41.0752 15.1879 41.0846 15.3867 41.0078C15.8098 40.854 15.9036 40.3257 16.0391 39.9541L14.5312 35.7734H15.3203L16.3779 38.9355Z" fill="#1C1D1F"/>
<path fill-rule="evenodd" clip-rule="evenodd" d="M30.5469 35.6953C31.0797 35.6953 31.4748 35.8851 31.75 36.2383C31.7518 36.2405 31.7531 36.2429 31.7549 36.2451L31.7891 35.7734H32.4453V39.9102C32.4453 41.0259 31.7136 41.668 30.6562 41.668C30.0741 41.668 29.4319 41.4222 29.0898 40.9336L29.4688 40.5039C29.8249 40.9334 30.2235 41.0742 30.6016 41.0742C31.2878 41.0742 31.7227 40.6823 31.7227 39.9453V39.5693C31.4483 39.8972 31.0603 40.0781 30.5391 40.0781C29.5346 40.0781 28.8789 39.1599 28.8789 37.9336C28.8789 36.8918 29.3241 35.6953 30.5469 35.6953ZM30.7227 36.3047C29.8396 36.3047 29.6016 37.2108 29.6016 37.9336C29.6016 38.7812 29.9328 39.4648 30.7148 39.4648C31.194 39.4648 31.4974 39.2435 31.6797 38.9102C31.6949 38.8831 31.7085 38.855 31.7227 38.8271V36.9209C31.5405 36.5653 31.2273 36.3047 30.7227 36.3047Z" fill="#1C1D1F"/>
<path fill-rule="evenodd" clip-rule="evenodd" d="M20.3906 35.6953C21.5994 35.6953 22.1289 36.567 22.1289 37.7656V38.0898H19.2715C19.2911 38.8663 19.7596 39.4883 20.5234 39.4883C21.0339 39.4883 21.3711 39.263 21.6367 38.9141L22.0742 39.2617C21.8018 39.6743 21.3265 40.0781 20.4844 40.0781C19.2565 40.0781 18.543 39.051 18.543 37.8711C18.543 36.4873 19.4447 35.6953 20.3906 35.6953ZM20.3906 36.2891C19.8221 36.2891 19.3905 36.7169 19.292 37.5H21.4062C21.4062 37.1228 21.2804 36.704 20.9766 36.4609C20.8333 36.3464 20.638 36.2891 20.3906 36.2891Z" fill="#1C1D1F"/>
<path d="M24.5039 35.6953C25.5164 35.6953 26.1133 36.2846 26.1133 37.0156H25.3906C25.3906 36.6643 25.0788 36.2891 24.5039 36.2891C23.9147 36.2891 23.6641 36.5924 23.6641 36.9102C23.6641 37.2154 23.834 37.383 24.6367 37.5625C25.6758 37.7969 26.1562 38.1445 26.1562 38.8242C26.1562 39.6971 25.277 40.0781 24.5234 40.0781C23.4062 40.0781 22.793 39.3984 22.793 38.6953H23.5195C23.5505 39.2832 24.0748 39.4844 24.5234 39.4844C25.1239 39.4844 25.4336 39.2285 25.4336 38.8789C25.4336 38.5647 25.2975 38.3126 24.4609 38.1484C23.5379 37.9536 22.9375 37.6343 22.9375 36.9297C22.9375 36.1223 23.7838 35.6953 24.5039 35.6953Z" fill="#1C1D1F"/>
<path d="M38.9297 35.7734H39.7188V36.3281H38.9297V38.9531C38.9297 39.0964 38.9518 39.2044 38.9961 39.2773C39.1457 39.5238 39.498 39.4647 39.7344 39.4102L39.7383 40C39.2542 40.154 38.6039 40.1176 38.3359 39.6211C38.25 39.4544 38.207 39.2305 38.207 38.9492V36.3281H37.4336V35.7734H38.207V34.7461H38.9297V35.7734Z" fill="#1C1D1F"/>
<path d="M14.2344 34.3125V34.9297H11.4141V36.7578H13.875V37.3711H11.4141V39.3867H14.2734V40H10.6602V34.3125H14.2344Z" fill="#1C1D1F"/>
<path d="M27.8906 40H27.1641V35.7734H27.8906V40Z" fill="#1C1D1F"/>
<path d="M34.2656 36.2793C34.5702 35.9064 35.0007 35.6953 35.5117 35.6953C36.4489 35.6953 36.8672 36.3811 36.8672 37.2305V40H36.1406V37.2227C36.1406 36.5497 35.8379 36.3047 35.2969 36.3047C34.8365 36.3047 34.4704 36.5775 34.2656 36.9863V40H33.543V34H34.2656V36.2793Z" fill="#1C1D1F"/>
<path d="M27.5352 34.2344C27.8134 34.2344 27.9648 34.4198 27.9648 34.6523C27.9648 34.8726 27.816 35.0586 27.5352 35.0586C27.2537 35.0586 27.1094 34.8761 27.1094 34.6523C27.1094 34.4161 27.2561 34.2344 27.5352 34.2344Z" fill="#1C1D1F"/>
</svg>
