<svg width="50" height="50" viewBox="0 0 50 50" fill="none" xmlns="http://www.w3.org/2000/svg">
<path d="M37.617 18.8889C37.6011 19.0632 37.5799 19.2253 37.571 19.3943C37.3928 22.6991 36.5569 25.9369 35.111 28.9229C34.9344 29.2714 34.7578 29.62 34.5812 29.9581C34.5812 29.9686 34.567 29.9773 34.5511 30L31.0014 28.4313C32.7884 25.2374 33.7256 21.6485 33.7256 18C33.7256 14.3515 32.7884 10.7626 31.0014 7.56863L34.5564 6C34.6218 6.12026 34.6854 6.23355 34.7454 6.34858C36.4789 9.6674 37.4502 13.3223 37.5905 17.0536C37.5962 17.0838 37.6045 17.1136 37.6152 17.1425V17.5712C37.6043 17.5963 37.5966 17.6227 37.5922 17.6497C37.5922 17.871 37.5922 18.0924 37.5922 18.312C37.5963 18.3435 37.604 18.3745 37.6152 18.4043L37.617 18.8889Z" fill="#01A7E2"/>
<path d="M37.6173 18.4097C37.6058 18.3799 37.5979 18.3489 37.5937 18.3174C37.5937 18.0978 37.5937 17.8764 37.5937 17.6551C37.5982 17.6281 37.6061 17.6017 37.6173 17.5766V18.4097Z" fill="#41BDE9"/>
<path d="M28.8738 12.8011L17.2428 18.0072L28.8809 23.2132C28.3511 24.3775 27.8213 25.5331 27.2756 26.6991L26.887 26.5248L14.2794 20.8917C13.6754 20.6312 13.1689 20.191 12.8307 19.6326C12.4926 19.0742 12.3397 18.4255 12.3933 17.7771C12.4203 17.2071 12.61 16.6562 12.9406 16.1881C13.2712 15.7199 13.7292 15.3536 14.2618 15.1313C16.9779 13.9008 19.7029 12.6913 22.4261 11.4712L27.1414 9.36402L27.2738 9.30825C27.8054 10.4725 28.3369 11.6298 28.8738 12.8011Z" fill="#01A7E2"/>
<path d="M11.1768 39.2031C11.1768 39.0371 11.1507 38.8906 11.0986 38.7637C11.0498 38.6335 10.9619 38.5163 10.835 38.4121C10.7113 38.3079 10.5387 38.2087 10.3174 38.1143C10.0993 38.0199 9.82259 37.9238 9.4873 37.8262C9.13574 37.722 8.81836 37.6064 8.53516 37.4795C8.25195 37.3493 8.00944 37.2012 7.80762 37.0352C7.60579 36.8691 7.45117 36.6787 7.34375 36.4639C7.23633 36.249 7.18262 36.0033 7.18262 35.7266C7.18262 35.4499 7.23958 35.1943 7.35352 34.96C7.46745 34.7256 7.63021 34.5221 7.8418 34.3496C8.05664 34.1738 8.31217 34.0371 8.6084 33.9395C8.90462 33.8418 9.23503 33.793 9.59961 33.793C10.1335 33.793 10.5859 33.8955 10.957 34.1006C11.3314 34.3024 11.6162 34.5677 11.8115 34.8965C12.0068 35.222 12.1045 35.5703 12.1045 35.9414H11.167C11.167 35.6745 11.11 35.4385 10.9961 35.2334C10.8822 35.0251 10.7096 34.8623 10.4785 34.7451C10.2474 34.6247 9.95443 34.5645 9.59961 34.5645C9.26432 34.5645 8.98763 34.6149 8.76953 34.7158C8.55143 34.8167 8.38867 34.9535 8.28125 35.126C8.17708 35.2985 8.125 35.4954 8.125 35.7168C8.125 35.8665 8.15592 36.0033 8.21777 36.127C8.28288 36.2474 8.38216 36.3597 8.51562 36.4639C8.65234 36.568 8.82487 36.6641 9.0332 36.752C9.24479 36.8398 9.49707 36.9245 9.79004 37.0059C10.1937 37.1198 10.542 37.2467 10.835 37.3867C11.1279 37.5267 11.3688 37.6846 11.5576 37.8604C11.7497 38.0329 11.8913 38.2298 11.9824 38.4512C12.0768 38.6693 12.124 38.9167 12.124 39.1934C12.124 39.4831 12.0654 39.7451 11.9482 39.9795C11.8311 40.2139 11.6634 40.4141 11.4453 40.5801C11.2272 40.7461 10.9652 40.8747 10.6592 40.9658C10.3564 41.0537 10.0179 41.0977 9.64355 41.0977C9.31478 41.0977 8.99089 41.0521 8.67188 40.9609C8.35612 40.8698 8.06803 40.7331 7.80762 40.5508C7.55046 40.3685 7.34375 40.1439 7.1875 39.877C7.03451 39.6068 6.95801 39.2943 6.95801 38.9395H7.89551C7.89551 39.1836 7.94271 39.3936 8.03711 39.5693C8.13151 39.7419 8.26009 39.8851 8.42285 39.999C8.58887 40.113 8.77604 40.1976 8.98438 40.2529C9.19596 40.305 9.41569 40.3311 9.64355 40.3311C9.97233 40.3311 10.2507 40.2855 10.4785 40.1943C10.7064 40.1032 10.8789 39.973 10.9961 39.8037C11.1165 39.6344 11.1768 39.4342 11.1768 39.2031Z" fill="#1C1D1F"/>
<path d="M15.1953 38.8516L16.6064 33.8906H17.29L16.8945 35.8193L15.376 41H14.6973L15.1953 38.8516ZM13.7354 33.8906L14.8584 38.7539L15.1953 41H14.5215L12.7979 33.8906H13.7354ZM19.1162 38.749L20.2148 33.8906H21.1572L19.4385 41H18.7646L19.1162 38.749ZM17.3926 33.8906L18.7646 38.8516L19.2627 41H18.584L17.1191 35.8193L16.7188 33.8906H17.3926Z" fill="#1C1D1F"/>
<path d="M23.2129 33.8906V41H22.2705V33.8906H23.2129Z" fill="#1C1D1F"/>
<path d="M27.4072 33.8906V41H26.4795V33.8906H27.4072ZM29.6924 33.8906V34.6621H24.1992V33.8906H29.6924Z" fill="#1C1D1F"/>
<path d="M34.9023 38.7393H35.8398C35.791 39.1885 35.6624 39.5905 35.4541 39.9453C35.2458 40.3001 34.9512 40.5817 34.5703 40.79C34.1895 40.9951 33.7142 41.0977 33.1445 41.0977C32.7279 41.0977 32.3486 41.0195 32.0068 40.8633C31.6683 40.707 31.377 40.4857 31.1328 40.1992C30.8887 39.9095 30.6999 39.5628 30.5664 39.1592C30.4362 38.7523 30.3711 38.2998 30.3711 37.8018V37.0938C30.3711 36.5957 30.4362 36.1449 30.5664 35.7412C30.6999 35.3343 30.8903 34.986 31.1377 34.6963C31.3883 34.4066 31.6895 34.1836 32.041 34.0273C32.3926 33.8711 32.7881 33.793 33.2275 33.793C33.7646 33.793 34.2188 33.8939 34.5898 34.0957C34.9609 34.2975 35.249 34.5775 35.4541 34.9355C35.6624 35.2904 35.791 35.7021 35.8398 36.1709H34.9023C34.8568 35.8389 34.7721 35.554 34.6484 35.3164C34.5247 35.0755 34.349 34.89 34.1211 34.7598C33.8932 34.6296 33.5954 34.5645 33.2275 34.5645C32.9118 34.5645 32.6335 34.6247 32.3926 34.7451C32.1549 34.8656 31.9548 35.0365 31.792 35.2578C31.6325 35.4792 31.512 35.7445 31.4307 36.0537C31.3493 36.363 31.3086 36.7064 31.3086 37.084V37.8018C31.3086 38.1501 31.3444 38.4772 31.416 38.7832C31.4909 39.0892 31.6032 39.3577 31.7529 39.5889C31.9027 39.82 32.0931 40.0023 32.3242 40.1357C32.5553 40.266 32.8288 40.3311 33.1445 40.3311C33.5449 40.3311 33.8639 40.2676 34.1016 40.1406C34.3392 40.0137 34.5182 39.8314 34.6387 39.5938C34.7624 39.3561 34.8503 39.0713 34.9023 38.7393Z" fill="#1C1D1F"/>
<path d="M41.7676 36.9473V37.7139H37.9199V36.9473H41.7676ZM38.0664 33.8906V41H37.124V33.8906H38.0664ZM42.5879 33.8906V41H41.6504V33.8906H42.5879Z" fill="#1C1D1F"/>
</svg>
