<svg width="50" height="50" viewBox="0 0 50 50" fill="none" xmlns="http://www.w3.org/2000/svg">
<rect width="50" height="50" fill="#902E2C"/>
<path d="M33.0866 12.7631L32.0522 13.4818C33.5821 15.6121 34.3192 18.3576 33.8856 21.1938C33.0371 26.7495 28.0262 30.5504 22.7119 29.6633C20.1353 29.236 17.8745 27.7855 16.3446 25.5775C14.8147 23.3694 14.1953 20.6758 14.6041 17.9821C15.3722 12.9703 19.5283 9.383 24.2418 9.383C24.4648 9.383 24.6877 9.39595 24.9107 9.4089L24.8736 11.1378C24.0807 11.086 23.3065 11.1507 22.557 11.3256C22.365 11.0795 22.0987 10.8982 21.7704 10.8464C21.0767 10.7298 20.4264 11.222 20.3211 11.9472C20.3087 12.0443 20.3025 12.135 20.3087 12.2256C18.2152 13.4624 16.6543 15.6445 16.2455 18.3123C15.5394 22.9615 18.5806 27.3517 23.0278 28.0899C23.4614 28.1611 23.8887 28.1999 24.3161 28.1999C24.9788 28.1999 25.623 28.1093 26.2486 27.9474C26.2981 27.9604 26.3415 27.9798 26.391 27.9863C26.8742 28.064 27.3325 27.8438 27.605 27.4618C30.0516 26.3286 31.9222 23.9652 32.3743 20.9995C32.715 18.7461 32.2009 16.4863 30.9188 14.6409C30.8568 14.5567 30.7949 14.4725 30.7267 14.3883L29.68 15.1136C29.7543 15.2107 29.841 15.2949 29.9153 15.3985C30.9993 16.9655 31.439 18.8821 31.1479 20.7923C30.8011 23.0781 29.457 24.9364 27.6608 25.979C27.475 25.6617 27.1653 25.4221 26.7875 25.3638C26.0937 25.2473 25.4434 25.7394 25.3381 26.4646C25.3195 26.5876 25.3257 26.7042 25.3381 26.8143C24.6506 26.9243 23.9445 26.9243 23.2198 26.8078C19.4477 26.1797 16.8649 22.4564 17.4657 18.513C17.8126 16.2208 19.1628 14.356 20.9714 13.3134C21.0953 13.3847 21.2254 13.4365 21.3678 13.4624C21.981 13.566 22.557 13.1904 22.7614 12.6012C23.2631 12.4781 23.7772 12.4134 24.3037 12.4134C24.4833 12.4134 24.6568 12.4199 24.8364 12.4328L24.7992 14.1358C22.0863 13.8768 19.6026 15.8582 19.169 18.7073C18.9832 19.9117 19.1938 21.1161 19.745 22.1715C19.6274 22.3399 19.5406 22.5277 19.5097 22.7478C19.3982 23.473 19.8689 24.1529 20.5626 24.263C20.8661 24.3148 21.1634 24.2436 21.4112 24.0882C22.0368 24.5285 22.7429 24.8264 23.5109 24.9559C23.7896 25.0012 24.0622 25.0271 24.3347 25.0271C26.8556 25.0271 29.0792 23.1104 29.488 20.4297C29.7048 18.9922 29.3765 17.5482 28.5589 16.3697C28.4846 16.2661 28.404 16.1755 28.3235 16.0784L27.2892 16.7971C27.3821 16.9072 27.475 17.0108 27.5555 17.1273C28.1811 18.0274 28.435 19.1282 28.2678 20.2225C27.9209 22.4888 25.8831 24.0364 23.7091 23.6803C23.0959 23.5767 22.5261 23.3306 22.0306 22.9615C22.0306 22.3205 21.5908 21.7506 20.9652 21.647C20.9343 21.647 20.9095 21.647 20.8847 21.647C20.4326 20.8247 20.2591 19.8728 20.4016 18.9145C20.7113 16.8683 22.4084 15.4049 24.3347 15.4049C24.4833 15.4049 24.632 15.4244 24.7806 15.4438L24.7249 17.8072C24.6692 17.7943 24.6196 17.7749 24.5639 17.7619C24.0931 17.6842 23.6224 17.8008 23.2322 18.0921C22.8482 18.3835 22.5942 18.8174 22.5199 19.3095C22.4456 19.8016 22.557 20.2937 22.8358 20.7017C23.1145 21.1031 23.5295 21.3686 24.0002 21.4463C24.0931 21.4593 24.1922 21.4722 24.2851 21.4722C24.6568 21.4722 25.0222 21.3492 25.3319 21.1161C25.7159 20.8247 25.9699 20.3908 26.0442 19.8987C26.1185 19.4066 26.007 18.9145 25.7283 18.5066C25.623 18.3512 25.4867 18.2217 25.3443 18.1116L26.7007 16.2143C26.7007 16.2143 26.7193 16.2273 26.7255 16.2338L27.4564 15.1848C27.4564 15.1848 27.4502 15.1783 27.444 15.1718L28.2492 14.0451L30.8135 10.3672C29.4322 9.29234 27.797 8.53474 25.9822 8.23041C19.9928 7.2397 14.3378 11.5198 13.3901 17.7813C12.9256 20.8117 13.6255 23.8551 15.3474 26.3416C17.0755 28.828 19.6212 30.4598 22.5199 30.9454C23.1083 31.0426 23.6905 31.0879 24.2727 31.0879C26.5707 31.0879 28.8066 30.3368 30.7082 28.8928C33.0866 27.0927 34.6475 24.4249 35.112 21.3945C35.5951 18.2281 34.7837 15.1589 33.0866 12.7631ZM24.824 19.6915C24.7992 19.8405 24.7249 19.9764 24.6072 20.0671C24.4895 20.1577 24.3409 20.1901 24.1984 20.1707C24.056 20.1448 23.9259 20.0671 23.8392 19.9441C23.7525 19.821 23.7215 19.6721 23.7401 19.5167C23.7649 19.3678 23.8392 19.2318 23.9569 19.1411C24.0498 19.0699 24.1613 19.0311 24.2789 19.0311C24.3099 19.0311 24.3347 19.0311 24.3657 19.0375C24.5081 19.0634 24.6382 19.1411 24.7249 19.2642C24.8116 19.3872 24.8426 19.5426 24.824 19.6915Z" fill="white"/>
<path d="M8.04907 35.1681V41.0077H7.25V35.1681H8.04907ZM10.5746 37.7951V38.4288H7.87518V37.7951H10.5746ZM10.9845 35.1681V35.8018H7.87518V35.1681H10.9845Z" fill="white"/>
<path d="M11.5269 38.886V38.7938C11.5269 38.4809 11.5738 38.1908 11.6677 37.9235C11.7615 37.6534 11.8968 37.4194 12.0734 37.2216C12.2501 37.021 12.464 36.866 12.7152 36.7563C12.9664 36.644 13.2479 36.5879 13.5598 36.5879C13.8745 36.5879 14.1574 36.644 14.4085 36.7563C14.6625 36.866 14.8778 37.021 15.0544 37.2216C15.2338 37.4194 15.3705 37.6534 15.4643 37.9235C15.5582 38.1908 15.6051 38.4809 15.6051 38.7938V38.886C15.6051 39.1989 15.5582 39.489 15.4643 39.7563C15.3705 40.0237 15.2338 40.2577 15.0544 40.4582C14.8778 40.6561 14.6639 40.8112 14.4127 40.9235C14.1643 41.0331 13.8827 41.0879 13.5681 41.0879C13.2534 41.0879 12.9705 41.0331 12.7193 40.9235C12.4681 40.8112 12.2528 40.6561 12.0734 40.4582C11.8968 40.2577 11.7615 40.0237 11.6677 39.7563C11.5738 39.489 11.5269 39.1989 11.5269 38.886ZM12.2929 38.7938V38.886C12.2929 39.1026 12.3191 39.3071 12.3715 39.4997C12.424 39.6895 12.5026 39.8579 12.6075 40.005C12.7152 40.1521 12.849 40.2684 13.0091 40.3539C13.1692 40.4368 13.3555 40.4783 13.5681 40.4783C13.7778 40.4783 13.9614 40.4368 14.1187 40.3539C14.2788 40.2684 14.4113 40.1521 14.5162 40.005C14.6211 39.8579 14.6997 39.6895 14.7522 39.4997C14.8074 39.3071 14.835 39.1026 14.835 38.886V38.7938C14.835 38.5799 14.8074 38.378 14.7522 38.1882C14.6997 37.9956 14.6197 37.8259 14.5121 37.6788C14.4072 37.5291 14.2747 37.4114 14.1146 37.3259C13.9573 37.2403 13.7723 37.1975 13.5598 37.1975C13.35 37.1975 13.1651 37.2403 13.005 37.3259C12.8477 37.4114 12.7152 37.5291 12.6075 37.6788C12.5026 37.8259 12.424 37.9956 12.3715 38.1882C12.3191 38.378 12.2929 38.5799 12.2929 38.7938Z" fill="white"/>
<path d="M17.3316 37.3499V41.0077H16.5656V36.6681H17.3109L17.3316 37.3499ZM18.731 36.644L18.7269 37.3339C18.6634 37.3205 18.6027 37.3125 18.5447 37.3098C18.4895 37.3045 18.426 37.3018 18.3542 37.3018C18.1776 37.3018 18.0216 37.3285 17.8864 37.382C17.7511 37.4355 17.6366 37.5104 17.5427 37.6066C17.4489 37.7029 17.3744 37.8178 17.3192 37.9515C17.2667 38.0825 17.2322 38.2269 17.2157 38.3847L17.0004 38.505C17.0004 38.243 17.0266 37.997 17.079 37.767C17.1342 37.5371 17.2184 37.3339 17.3316 37.1574C17.4448 36.9783 17.5883 36.8392 17.7622 36.7403C17.9388 36.6387 18.1486 36.5879 18.3915 36.5879C18.4467 36.5879 18.5102 36.5946 18.582 36.6079C18.6537 36.6186 18.7034 36.6307 18.731 36.644Z" fill="white"/>
<path d="M21.5216 36.6681V37.2376H19.0995V36.6681H21.5216ZM19.9193 35.6133H20.6852V39.9328C20.6852 40.0799 20.7087 40.1908 20.7556 40.2657C20.8025 40.3406 20.8632 40.39 20.9378 40.4141C21.0123 40.4382 21.0923 40.4502 21.1779 40.4502C21.2414 40.4502 21.3076 40.4448 21.3766 40.4341C21.4484 40.4208 21.5022 40.4101 21.5381 40.4021L21.5423 41.0077C21.4815 41.0264 21.4015 41.0438 21.3021 41.0598C21.2055 41.0785 21.0882 41.0879 20.9502 41.0879C20.7625 41.0879 20.59 41.0518 20.4327 40.9796C20.2753 40.9074 20.1497 40.7871 20.0559 40.6186C19.9648 40.4475 19.9193 40.2176 19.9193 39.9288V35.6133Z" fill="white"/>
<path d="M23.2522 36.6681V41.0077H22.4821V36.6681H23.2522ZM22.4241 35.517C22.4241 35.3967 22.4614 35.2951 22.5359 35.2122C22.6132 35.1293 22.7264 35.0879 22.8754 35.0879C23.0217 35.0879 23.1335 35.1293 23.2108 35.2122C23.2908 35.2951 23.3309 35.3967 23.3309 35.517C23.3309 35.632 23.2908 35.7309 23.2108 35.8138C23.1335 35.894 23.0217 35.9341 22.8754 35.9341C22.7264 35.9341 22.6132 35.894 22.5359 35.8138C22.4614 35.7309 22.4241 35.632 22.4241 35.517Z" fill="white"/>
<path d="M29.0527 38.0999V40.2376C28.9782 40.3446 28.8595 40.4649 28.6967 40.5986C28.5338 40.7296 28.3089 40.8446 28.0218 40.9435C27.7375 41.0398 27.3704 41.0879 26.9205 41.0879C26.5534 41.0879 26.2153 41.0264 25.9061 40.9034C25.5997 40.7777 25.3334 40.5959 25.107 40.3579C24.8835 40.1173 24.7096 39.8259 24.5854 39.4836C24.4639 39.1387 24.4032 38.7483 24.4032 38.3125V37.8593C24.4032 37.4235 24.4556 37.0344 24.5605 36.6922C24.6682 36.3499 24.8255 36.0598 25.0325 35.8218C25.2395 35.5812 25.4935 35.3994 25.7943 35.2764C26.0952 35.1507 26.4402 35.0879 26.8294 35.0879C27.2903 35.0879 27.6754 35.1654 27.9845 35.3205C28.2964 35.4729 28.5393 35.6841 28.7132 35.9542C28.8899 36.2243 29.003 36.5317 29.0527 36.8767H28.2537C28.2178 36.6654 28.146 36.4729 28.0384 36.2991C27.9335 36.1253 27.783 35.9863 27.5871 35.882C27.3911 35.7751 27.1385 35.7216 26.8294 35.7216C26.5506 35.7216 26.3091 35.771 26.1048 35.87C25.9006 35.9689 25.7322 36.1106 25.5997 36.2951C25.4672 36.4796 25.3679 36.7029 25.3016 36.9649C25.2381 37.2269 25.2064 37.5224 25.2064 37.8513V38.3125C25.2064 38.6494 25.2464 38.9502 25.3265 39.2149C25.4093 39.4796 25.5266 39.7055 25.6784 39.8927C25.8302 40.0772 26.011 40.2176 26.2208 40.3138C26.4333 40.4101 26.6679 40.4582 26.9246 40.4582C27.2089 40.4582 27.4394 40.4355 27.616 40.39C27.7927 40.3419 27.9307 40.2858 28.0301 40.2216C28.1294 40.1547 28.2053 40.0919 28.2578 40.0331V38.7256H26.8625V38.0999H29.0527Z" fill="white"/>
<path d="M32.9032 40.2657V38.0317C32.9032 37.8606 32.8673 37.7122 32.7955 37.5866C32.7265 37.4582 32.6217 37.3593 32.4809 37.2898C32.3401 37.2202 32.1662 37.1855 31.9592 37.1855C31.766 37.1855 31.5962 37.2176 31.45 37.2817C31.3064 37.3459 31.1933 37.4301 31.1104 37.5344C31.0304 37.6387 30.9904 37.751 30.9904 37.8713H30.2244C30.2244 37.7162 30.2658 37.5625 30.3486 37.4101C30.4314 37.2577 30.5501 37.12 30.7047 36.997C30.862 36.8713 31.0497 36.7724 31.2678 36.7002C31.4886 36.6253 31.7343 36.5879 32.0047 36.5879C32.3305 36.5879 32.6175 36.6414 32.8659 36.7483C33.1171 36.8553 33.3131 37.017 33.4538 37.2336C33.5974 37.4475 33.6691 37.7162 33.6691 38.0398V40.0612C33.6691 40.2055 33.6816 40.3593 33.7064 40.5224C33.734 40.6855 33.774 40.8259 33.8265 40.9435V41.0077H33.0274C32.9888 40.9221 32.9584 40.8085 32.9363 40.6668C32.9142 40.5224 32.9032 40.3887 32.9032 40.2657ZM33.0357 38.3767L33.044 38.8981H32.2697C32.0517 38.8981 31.8571 38.9154 31.6859 38.9502C31.5148 38.9823 31.3713 39.0317 31.2554 39.0986C31.1394 39.1654 31.0511 39.2497 30.9904 39.3513C30.9297 39.4502 30.8993 39.5665 30.8993 39.7002C30.8993 39.8366 30.931 39.9609 30.9945 40.0732C31.058 40.1855 31.1532 40.2751 31.2802 40.3419C31.4099 40.4061 31.5686 40.4382 31.7563 40.4382C31.9909 40.4382 32.198 40.39 32.3774 40.2938C32.5568 40.1975 32.6989 40.0799 32.8038 39.9408C32.9115 39.8018 32.9694 39.6668 32.9777 39.5358L33.3048 39.8927C33.2855 40.005 33.233 40.1293 33.1475 40.2657C33.0619 40.4021 32.9474 40.5331 32.8038 40.6587C32.6631 40.7817 32.4947 40.8847 32.2987 40.9676C32.1055 41.0478 31.8874 41.0879 31.6445 41.0879C31.3409 41.0879 31.0746 41.0304 30.8455 40.9154C30.6191 40.8005 30.4425 40.6467 30.3155 40.4542C30.1913 40.259 30.1292 40.0411 30.1292 39.8005C30.1292 39.5678 30.1761 39.3633 30.27 39.1868C30.3638 39.0077 30.4991 38.8593 30.6757 38.7416C30.8524 38.6213 31.0649 38.5304 31.3133 38.4689C31.5617 38.4074 31.8391 38.3767 32.1455 38.3767H33.0357Z" fill="white"/>
<path d="M36.7495 36.6681V37.2376H34.3274V36.6681H36.7495ZM35.1472 35.6133H35.9132V39.9328C35.9132 40.0799 35.9366 40.1908 35.9836 40.2657C36.0305 40.3406 36.0912 40.39 36.1657 40.4141C36.2403 40.4382 36.3203 40.4502 36.4059 40.4502C36.4694 40.4502 36.5356 40.4448 36.6046 40.4341C36.6764 40.4208 36.7302 40.4101 36.7661 40.4021L36.7702 41.0077C36.7095 41.0264 36.6294 41.0438 36.5301 41.0598C36.4335 41.0785 36.3162 41.0879 36.1782 41.0879C35.9905 41.0879 35.8179 41.0518 35.6606 40.9796C35.5033 40.9074 35.3777 40.7871 35.2839 40.6186C35.1928 40.4475 35.1472 40.2176 35.1472 39.9288V35.6133Z" fill="white"/>
<path d="M39.5069 41.0879C39.195 41.0879 38.9121 41.0371 38.6582 40.9355C38.407 40.8312 38.1903 40.6855 38.0082 40.4983C37.8287 40.3112 37.6907 40.0892 37.5941 39.8325C37.4975 39.5759 37.4492 39.2951 37.4492 38.9903V38.8218C37.4492 38.4689 37.503 38.1547 37.6107 37.8793C37.7183 37.6013 37.8646 37.366 38.0496 37.1735C38.2345 36.9809 38.4443 36.8352 38.6789 36.7363C38.9135 36.6374 39.1564 36.5879 39.4076 36.5879C39.7278 36.5879 40.0038 36.6414 40.2356 36.7483C40.4702 36.8553 40.6621 37.005 40.8111 37.1975C40.9602 37.3874 41.0706 37.612 41.1424 37.8713C41.2141 38.128 41.25 38.4087 41.25 38.7136V39.0464H37.9047V38.4408H40.484V38.3847C40.473 38.1922 40.4316 38.005 40.3598 37.8232C40.2908 37.6414 40.1804 37.4916 40.0286 37.374C39.8768 37.2563 39.6698 37.1975 39.4076 37.1975C39.2337 37.1975 39.0736 37.2336 38.9273 37.3058C38.781 37.3753 38.6554 37.4796 38.5505 37.6186C38.4456 37.7577 38.3642 37.9275 38.3063 38.128C38.2483 38.3285 38.2193 38.5598 38.2193 38.8218V38.9903C38.2193 39.1962 38.2483 39.39 38.3063 39.5718C38.367 39.751 38.4539 39.9087 38.5671 40.0451C38.683 40.1815 38.8224 40.2884 38.9853 40.366C39.1509 40.4435 39.3386 40.4823 39.5483 40.4823C39.8188 40.4823 40.0479 40.4288 40.2356 40.3218C40.4233 40.2149 40.5876 40.0718 40.7283 39.8927L41.192 40.2497C41.0954 40.3914 40.9726 40.5264 40.8236 40.6547C40.6745 40.7831 40.4909 40.8874 40.2729 40.9676C40.0576 41.0478 39.8023 41.0879 39.5069 41.0879Z" fill="white"/>
</svg>
