<svg width="50" height="50" viewBox="0 0 50 50" fill="none" xmlns="http://www.w3.org/2000/svg">
<path d="M38.1622 36.696C40.0382 36.0708 41.4982 33.9512 41.849 31.2865V30.5163H32.2309V36.6967H38.1608L38.1622 36.696ZM41.8503 19.1844V18.4875C41.4817 15.7068 39.9131 13.5155 37.9134 13.0007H32.2322V19.1837L41.8503 19.1844ZM8 30.5169V31.2805C8.34829 33.9479 9.80807 36.0712 11.6896 36.6967H17.5896V30.5163L8 30.5169ZM11.9356 13.0053C9.93858 13.5204 8.36569 15.7128 8 18.4975V19.1895H17.5896V13.0064H11.9356V13.0053ZM41.8571 21.7625H32.239V27.9455H41.8571V21.7625ZM20.2147 36.7H29.6234V30.5196H20.2147V36.7ZM29.6234 13H20.2147V19.1831H29.6234V13ZM8.00816 27.9375H17.5977V21.7545H8.00816V27.9375Z" fill="#EE2E24"/>
</svg>
