<svg width="50" height="50" viewBox="0 0 50 50" fill="none" xmlns="http://www.w3.org/2000/svg">
<rect width="50" height="50" fill="#902E2C"/>
<path d="M34.6393 10.8784L33.511 11.6284C35.1799 13.8514 35.9839 16.7163 35.511 19.6757C34.5853 25.473 29.1191 29.4392 23.3218 28.5135C20.511 28.0676 18.0448 26.5541 16.3758 24.25C14.7069 21.946 14.0313 19.1352 14.4772 16.3244C15.315 11.0946 19.8488 7.35141 24.9907 7.35141C25.2339 7.35141 25.4772 7.36493 25.7204 7.37844L25.6799 9.18249C24.815 9.12844 23.9704 9.196 23.1529 9.37844C22.9434 9.12168 22.6529 8.93249 22.2948 8.87844C21.538 8.75682 20.8285 9.27033 20.7137 10.0271C20.7002 10.1284 20.6934 10.223 20.7002 10.3176C18.4164 11.6082 16.7137 13.8852 16.2677 16.669C15.4975 21.5203 18.815 26.1014 23.6664 26.8716C24.1393 26.946 24.6056 26.9865 25.0718 26.9865C25.7948 26.9865 26.4975 26.8919 27.1799 26.723C27.2339 26.7365 27.2812 26.7568 27.3353 26.7635C27.8623 26.8446 28.3623 26.6149 28.6596 26.2162C31.3285 25.0338 33.3691 22.5676 33.8623 19.473C34.2339 17.1217 33.6731 14.7636 32.2745 12.8379C32.2069 12.75 32.1393 12.6622 32.065 12.5744L30.9231 13.3311C31.0042 13.4325 31.0988 13.5203 31.1799 13.6284C32.3623 15.2636 32.842 17.2635 32.5245 19.2568C32.1461 21.6419 30.6799 23.5811 28.7204 24.6689C28.5177 24.3379 28.1799 24.0879 27.7677 24.027C27.011 23.9054 26.3015 24.4189 26.1866 25.1757C26.1664 25.3041 26.1731 25.4257 26.1866 25.5406C25.4366 25.6554 24.6664 25.6554 23.8758 25.5338C19.761 24.8784 16.9434 20.9933 17.5988 16.8784C17.9772 14.4865 19.4502 12.5406 21.4231 11.4528C21.5583 11.5271 21.7002 11.5811 21.8556 11.6082C22.5245 11.7163 23.1529 11.3244 23.3758 10.7095C23.9231 10.5811 24.4839 10.5136 25.0583 10.5136C25.2542 10.5136 25.4434 10.5203 25.6393 10.5338L25.5988 12.3109C22.6394 12.0406 19.9299 14.1082 19.4569 17.0811C19.2542 18.3379 19.484 19.5946 20.0853 20.696C19.9569 20.8716 19.8623 21.0676 19.8285 21.2973C19.7069 22.0541 20.2204 22.7635 20.9772 22.8784C21.3083 22.9325 21.6326 22.8581 21.9029 22.696C22.5853 23.1554 23.3556 23.4662 24.1934 23.6014C24.4975 23.6487 24.7948 23.6757 25.0921 23.6757C27.842 23.6757 30.2677 21.6757 30.7137 18.8784C30.9501 17.3784 30.592 15.8717 29.7002 14.6419C29.6191 14.5338 29.5312 14.4392 29.4434 14.3379L28.315 15.0879C28.4164 15.2027 28.5177 15.3109 28.6056 15.4325C29.288 16.3717 29.565 17.5203 29.3826 18.6622C29.0042 21.0271 26.7812 22.6419 24.4096 22.2703C23.7407 22.1622 23.1191 21.9054 22.5785 21.5203C22.5785 20.8514 22.0988 20.2568 21.4164 20.1487C21.3826 20.1487 21.3556 20.1487 21.3285 20.1487C20.8353 19.2906 20.6461 18.2973 20.8015 17.2973C21.1394 15.1622 22.9907 13.6352 25.0921 13.6352C25.2542 13.6352 25.4164 13.6555 25.5785 13.6757L25.5177 16.1419C25.4569 16.1284 25.4029 16.1081 25.3421 16.0946C24.8285 16.0136 24.315 16.1352 23.8893 16.4392C23.4704 16.7433 23.1934 17.196 23.1123 17.7095C23.0312 18.223 23.1529 18.7365 23.4569 19.1622C23.761 19.5811 24.2137 19.8581 24.7272 19.9392C24.8285 19.9527 24.9366 19.9662 25.038 19.9662C25.4434 19.9662 25.842 19.8379 26.1799 19.5946C26.5988 19.2906 26.8758 18.8379 26.9569 18.3244C27.038 17.8108 26.9164 17.2973 26.6123 16.8717C26.4975 16.7095 26.3488 16.5744 26.1934 16.4595L27.6731 14.4798C27.6731 14.4798 27.6934 14.4933 27.7002 14.5L28.4975 13.4055C28.4975 13.4055 28.4907 13.3987 28.4839 13.3919L29.3623 12.2163L32.1596 8.37844C30.6529 7.25682 28.8691 6.46628 26.8893 6.14871C20.3556 5.11493 14.1867 9.58114 13.1529 16.1149C12.6461 19.2771 13.4096 22.4527 15.288 25.0473C17.1731 27.6419 19.9502 29.3446 23.1123 29.8514C23.7542 29.9527 24.3893 30 25.0245 30C27.5312 30 29.9704 29.2162 32.0447 27.7095C34.6393 25.8311 36.342 23.0473 36.8488 19.8852C37.3758 16.5811 36.4907 13.3784 34.6393 10.8784ZM25.6258 18.1081C25.5988 18.2635 25.5177 18.4054 25.3893 18.5C25.261 18.5946 25.0988 18.6284 24.9434 18.6081C24.788 18.5811 24.6461 18.5 24.5515 18.3717C24.4569 18.2433 24.4231 18.0879 24.4434 17.9257C24.4704 17.7703 24.5515 17.6284 24.6799 17.5338C24.7812 17.4595 24.9029 17.419 25.0312 17.419C25.065 17.419 25.0921 17.419 25.1258 17.4257C25.2812 17.4527 25.4231 17.5338 25.5177 17.6622C25.6123 17.7906 25.6461 17.9527 25.6258 18.1081Z" fill="white"/>
<path d="M8.2915 34.6016V41H7.44336V34.6016H8.2915ZM10.9722 37.48V38.1743H8.10693V37.48H10.9722ZM11.4072 34.6016V35.2959H8.10693V34.6016H11.4072Z" fill="white"/>
<path d="M11.9829 38.6753V38.5742C11.9829 38.2314 12.0327 37.9136 12.1323 37.6206C12.2319 37.3247 12.3755 37.0684 12.563 36.8516C12.7505 36.6318 12.9775 36.4619 13.2441 36.3418C13.5107 36.2188 13.8096 36.1572 14.1406 36.1572C14.4746 36.1572 14.7749 36.2188 15.0415 36.3418C15.311 36.4619 15.5396 36.6318 15.7271 36.8516C15.9175 37.0684 16.0625 37.3247 16.1621 37.6206C16.2617 37.9136 16.3115 38.2314 16.3115 38.5742V38.6753C16.3115 39.0181 16.2617 39.3359 16.1621 39.6289C16.0625 39.9219 15.9175 40.1782 15.7271 40.3979C15.5396 40.6147 15.3125 40.7847 15.0459 40.9077C14.7822 41.0278 14.4834 41.0879 14.1494 41.0879C13.8154 41.0879 13.5151 41.0278 13.2485 40.9077C12.9819 40.7847 12.7534 40.6147 12.563 40.3979C12.3755 40.1782 12.2319 39.9219 12.1323 39.6289C12.0327 39.3359 11.9829 39.0181 11.9829 38.6753ZM12.7959 38.5742V38.6753C12.7959 38.9126 12.8237 39.1367 12.8794 39.3477C12.9351 39.5557 13.0186 39.7402 13.1299 39.9014C13.2441 40.0625 13.3862 40.1899 13.5562 40.2837C13.7261 40.3745 13.9238 40.4199 14.1494 40.4199C14.3721 40.4199 14.5669 40.3745 14.7339 40.2837C14.9038 40.1899 15.0444 40.0625 15.1558 39.9014C15.2671 39.7402 15.3506 39.5557 15.4062 39.3477C15.4648 39.1367 15.4941 38.9126 15.4941 38.6753V38.5742C15.4941 38.3398 15.4648 38.1187 15.4062 37.9106C15.3506 37.6997 15.2656 37.5137 15.1514 37.3525C15.04 37.1885 14.8994 37.0596 14.7295 36.9658C14.5625 36.8721 14.3662 36.8252 14.1406 36.8252C13.918 36.8252 13.7217 36.8721 13.5518 36.9658C13.3848 37.0596 13.2441 37.1885 13.1299 37.3525C13.0186 37.5137 12.9351 37.6997 12.8794 37.9106C12.8237 38.1187 12.7959 38.3398 12.7959 38.5742Z" fill="white"/>
<path d="M18.144 36.9922V41H17.3311V36.2451H18.1221L18.144 36.9922ZM19.6294 36.2188L19.625 36.9746C19.5576 36.96 19.4932 36.9512 19.4316 36.9482C19.373 36.9424 19.3057 36.9395 19.2295 36.9395C19.042 36.9395 18.8765 36.9688 18.7329 37.0273C18.5894 37.0859 18.4678 37.168 18.3682 37.2734C18.2686 37.3789 18.1895 37.5049 18.1309 37.6514C18.0752 37.7949 18.0386 37.9531 18.021 38.126L17.7925 38.2578C17.7925 37.9707 17.8203 37.7012 17.876 37.4492C17.9346 37.1973 18.0239 36.9746 18.144 36.7812C18.2642 36.585 18.4165 36.4326 18.6011 36.3242C18.7886 36.2129 19.0112 36.1572 19.269 36.1572C19.3276 36.1572 19.395 36.1646 19.4712 36.1792C19.5474 36.1909 19.6001 36.2041 19.6294 36.2188Z" fill="white"/>
<path d="M22.5913 36.2451V36.8691H20.0205V36.2451H22.5913ZM20.8906 35.0894H21.7036V39.8223C21.7036 39.9834 21.7285 40.105 21.7783 40.187C21.8281 40.269 21.8926 40.3232 21.9717 40.3496C22.0508 40.376 22.1357 40.3892 22.2266 40.3892C22.2939 40.3892 22.3643 40.3833 22.4375 40.3716C22.5137 40.3569 22.5708 40.3452 22.6089 40.3364L22.6133 41C22.5488 41.0205 22.4639 41.0396 22.3584 41.0571C22.2559 41.0776 22.1313 41.0879 21.9849 41.0879C21.7856 41.0879 21.6025 41.0483 21.4355 40.9692C21.2686 40.8901 21.1353 40.7583 21.0356 40.5737C20.939 40.3862 20.8906 40.1343 20.8906 39.8179V35.0894Z" fill="white"/>
<path d="M24.4282 36.2451V41H23.6108V36.2451H24.4282ZM23.5493 34.9839C23.5493 34.8521 23.5889 34.7407 23.668 34.6499C23.75 34.5591 23.8701 34.5137 24.0283 34.5137C24.1836 34.5137 24.3022 34.5591 24.3843 34.6499C24.4692 34.7407 24.5117 34.8521 24.5117 34.9839C24.5117 35.1099 24.4692 35.2183 24.3843 35.3091C24.3022 35.397 24.1836 35.4409 24.0283 35.4409C23.8701 35.4409 23.75 35.397 23.668 35.3091C23.5889 35.2183 23.5493 35.1099 23.5493 34.9839Z" fill="white"/>
<path d="M30.7783 34.6016V41H29.9258L26.7046 36.0649V41H25.8564V34.6016H26.7046L29.939 39.5498V34.6016H30.7783Z" fill="white"/>
<path d="M34.729 35.1685L32.6108 41H31.7451L34.1841 34.6016H34.7422L34.729 35.1685ZM36.5044 41L34.3818 35.1685L34.3687 34.6016H34.9268L37.3745 41H36.5044ZM36.3945 38.6313V39.3257H32.7998V38.6313H36.3945Z" fill="white"/>
<path d="M42.0415 38.9653H42.8853C42.8413 39.3696 42.7256 39.7314 42.5381 40.0508C42.3506 40.3701 42.0854 40.6235 41.7427 40.811C41.3999 40.9956 40.9722 41.0879 40.4595 41.0879C40.0845 41.0879 39.7432 41.0176 39.4355 40.877C39.1309 40.7363 38.8687 40.5371 38.6489 40.2793C38.4292 40.0186 38.2593 39.7065 38.1392 39.3433C38.022 38.9771 37.9634 38.5698 37.9634 38.1216V37.4844C37.9634 37.0361 38.022 36.6304 38.1392 36.2671C38.2593 35.9009 38.4307 35.5874 38.6533 35.3267C38.8789 35.0659 39.1499 34.8652 39.4663 34.7246C39.7827 34.584 40.1387 34.5137 40.5342 34.5137C41.0176 34.5137 41.4263 34.6045 41.7603 34.7861C42.0942 34.9678 42.3535 35.2197 42.5381 35.542C42.7256 35.8613 42.8413 36.2319 42.8853 36.6538H42.0415C42.0005 36.355 41.9243 36.0986 41.813 35.8848C41.7017 35.668 41.5435 35.501 41.3384 35.3838C41.1333 35.2666 40.8652 35.208 40.5342 35.208C40.25 35.208 39.9995 35.2622 39.7827 35.3706C39.5688 35.479 39.3887 35.6328 39.2422 35.832C39.0986 36.0312 38.9902 36.27 38.917 36.5483C38.8438 36.8267 38.8071 37.1357 38.8071 37.4756V38.1216C38.8071 38.4351 38.8394 38.7295 38.9038 39.0049C38.9712 39.2803 39.0723 39.522 39.207 39.73C39.3418 39.938 39.5132 40.1021 39.7212 40.2222C39.9292 40.3394 40.1753 40.3979 40.4595 40.3979C40.8198 40.3979 41.1069 40.3408 41.3208 40.2266C41.5347 40.1123 41.6958 39.9482 41.8042 39.7344C41.9155 39.5205 41.9946 39.2642 42.0415 38.9653Z" fill="white"/>
</svg>
