<svg width="50" height="50" viewBox="0 0 50 50" fill="none" xmlns="http://www.w3.org/2000/svg">
<path d="M36.7261 28.9966C38.3884 28.4426 39.6822 26.5645 39.993 24.2033V23.5208H31.4705V28.9972H36.7249L36.7261 28.9966ZM39.9942 13.4799V12.8624C39.6675 10.3984 38.2776 8.45676 36.5057 8.00059H31.4717V13.4793L39.9942 13.4799ZM10 23.5214V24.198C10.3086 26.5615 11.6021 28.4429 13.2692 28.9972H18.4971V23.5208L10 23.5214ZM13.4873 8.00473C11.7177 8.46113 10.324 10.4037 10 12.8713V13.4844H18.4971V8.00567L13.4873 8.00473ZM40.0002 15.7643H31.4777V21.243H40.0002V15.7643ZM20.8232 29.0001H29.1601V23.5238H20.8232V29.0001ZM29.1601 8H20.8232V13.4787H29.1601V8ZM10.0072 21.2359H18.5044V15.7572H10.0072V21.2359Z" fill="#EE2E24"/>
<path d="M33.7705 39.9355L34.752 36.7734H35.5254L33.8301 41.6523C33.7517 41.8614 33.6286 42.1182 33.4316 42.3359C33.3328 42.4452 33.2128 42.5339 33.0723 42.6016C32.7973 42.7417 32.4611 42.7275 32.1699 42.6445L32.166 42.0586C32.3736 42.0752 32.5805 42.0846 32.7793 42.0078C33.0078 41.9246 33.1607 41.732 33.2754 41.3828L33.4316 40.9541L31.9238 36.7734H32.7129L33.7705 39.9355Z" fill="black"/>
<path fill-rule="evenodd" clip-rule="evenodd" d="M10.2129 36.6953C11.435 36.6953 12.1426 37.7758 12.1426 38.9336C12.1426 40.0669 11.3941 41.0781 10.2207 41.0781C9.02944 41.0779 8.29492 40.15 8.29492 38.9336C8.29492 37.8067 8.97921 36.6955 10.2129 36.6953ZM10.2129 37.2891C9.32505 37.2893 9.01758 38.1888 9.01758 38.9336C9.01758 39.7708 9.4156 40.4842 10.2207 40.4844C11.0279 40.4844 11.416 39.7624 11.416 38.9336C11.416 38.1813 11.0775 37.2891 10.2129 37.2891Z" fill="black"/>
<path d="M16.1357 36.7734H16.9248V37.3281H16.1357V39.9531C16.1357 40.0963 16.1579 40.2044 16.2021 40.2773C16.2906 40.4231 16.4393 40.457 16.6006 40.457C16.723 40.457 16.8742 40.4254 16.9404 40.4102L16.9443 41C16.831 41.036 16.6488 41.0781 16.3857 41.0781C16.0317 41.0781 15.719 40.9491 15.542 40.6211C15.4561 40.4544 15.4131 40.2304 15.4131 39.9492V37.3281H14.6895C14.452 37.2588 14.0271 37.4151 13.8955 37.4688C13.6492 37.5693 13.4775 37.7506 13.3721 37.9971V41H12.6494V36.7734H13.3525L13.3662 37.2588C13.368 37.2558 13.3702 37.253 13.3721 37.25C13.5876 36.8979 13.9181 36.6953 14.3721 36.6953C14.4758 36.6953 14.6402 36.7239 14.6924 36.75L15.4131 36.7734V35.7461H16.1357V36.7734Z" fill="black"/>
<path fill-rule="evenodd" clip-rule="evenodd" d="M20.5625 36.6953C21.4891 36.6953 22.1328 37.165 22.1328 38.1094C22.1328 38.9047 22.0514 39.7375 22.168 40.5273C22.1938 40.6848 22.2812 40.8435 22.2812 41H21.5273C21.4654 40.8584 21.4446 40.7031 21.4277 40.5508C21.1608 40.8313 20.7546 41.0781 20.2227 41.0781C19.3677 41.0781 18.793 40.5279 18.793 39.8242C18.793 38.9064 19.5467 38.4375 20.6953 38.4375H21.4102V38.1016C21.4102 37.599 21.104 37.2773 20.5195 37.2773C19.9806 37.2773 19.6055 37.589 19.6055 37.9453H18.8828C18.8828 37.7943 18.9219 37.6445 19 37.4961C19.2386 37.0427 19.8093 36.6953 20.5625 36.6953ZM20.8125 38.9453C19.9955 38.9453 19.5195 39.1975 19.5195 39.7266C19.5195 40.1261 19.7997 40.4453 20.3281 40.4453C20.7706 40.4453 21.2101 40.2092 21.4102 39.8076V38.9453H20.8125Z" fill="black"/>
<path fill-rule="evenodd" clip-rule="evenodd" d="M28.5361 36.6953C29.4625 36.6954 30.1064 37.1651 30.1064 38.1094C30.1064 38.9047 30.0251 39.7375 30.1416 40.5273C30.1674 40.6848 30.2549 40.8435 30.2549 41H29.501C29.4645 40.9167 29.4359 40.806 29.415 40.668C29.4091 40.6281 29.4056 40.5889 29.4014 40.5508C29.1345 40.8312 28.728 41.0781 28.1963 41.0781C27.3414 41.0781 26.7666 40.5278 26.7666 39.8242C26.7666 38.9066 27.5206 38.4375 28.6689 38.4375H29.3838V38.1016C29.3838 37.5992 29.0774 37.2774 28.4932 37.2773C27.9543 37.2773 27.5791 37.589 27.5791 37.9453H26.8564C26.8564 37.1169 27.8287 36.6953 28.5361 36.6953ZM28.7861 38.9453C27.9695 38.9453 27.4932 39.1976 27.4932 39.7266C27.4932 40.126 27.7735 40.4453 28.3018 40.4453C28.7442 40.4453 29.1838 40.2092 29.3838 39.8076V38.9453H28.7861Z" fill="black"/>
<path fill-rule="evenodd" clip-rule="evenodd" d="M40.9434 36.6953C42.1519 36.6953 42.6816 37.5673 42.6816 38.7656V39.0898H39.8242C39.8438 39.8659 40.3128 40.4881 41.0762 40.4883C41.5863 40.4883 41.9239 40.2628 42.1895 39.9141L42.627 40.2617C42.3546 40.6741 41.8788 41.0781 41.0371 41.0781C39.8695 41.078 39.0957 40.2281 39.0957 39.0352C39.0957 37.9215 39.6637 36.6956 40.9434 36.6953ZM40.9434 37.2891C40.3752 37.2893 39.9432 37.7174 39.8447 38.5H41.959C41.959 37.8708 41.6127 37.2891 40.9434 37.2891Z" fill="black"/>
<path d="M8.18359 35.3125V35.9297H5.41406V37.8711H7.79688V38.4883H5.41406V41H4.66016V35.3125H8.18359Z" fill="black"/>
<path d="M18.1582 41H17.4316V36.7734H18.1582V41Z" fill="black"/>
<path d="M24.8379 36.6953C25.6699 36.6953 26.1934 37.1107 26.1934 38.2305V41H25.4668V38.2227C25.4668 37.55 25.1639 37.3047 24.623 37.3047C24.163 37.3048 23.7964 37.5777 23.5918 37.9863V41H22.8691V36.7734H23.5527L23.5752 37.3008C23.88 36.9159 24.3175 36.6954 24.8379 36.6953Z" fill="black"/>
<path d="M31.6279 41H30.9014V35H31.6279V41Z" fill="black"/>
<path d="M38.8125 37.2852L36.4629 40.4062H38.9258V41H35.5742V40.4688L37.9023 37.3711H35.6055V36.7734H38.8125V37.2852Z" fill="black"/>
<path d="M44.8486 36.6953C44.9524 36.6953 45.1167 36.7239 45.1689 36.75L45.165 37.4219C45.048 37.3964 44.9518 37.3906 44.8135 37.3906C44.3251 37.3906 44.0086 37.6229 43.8486 37.9971V41H43.126V36.7734H43.8291L43.8428 37.2588C43.8446 37.2558 43.8468 37.253 43.8486 37.25C44.0641 36.8979 44.3946 36.6953 44.8486 36.6953Z" fill="black"/>
<path d="M17.8027 35.2344C18.0806 35.2345 18.2324 35.42 18.2324 35.6523C18.2324 35.8724 18.0831 36.0584 17.8027 36.0586C17.5213 36.0586 17.377 35.876 17.377 35.6523C17.377 35.4162 17.5238 35.2344 17.8027 35.2344Z" fill="black"/>
</svg>
