<svg width="50" height="50" viewBox="0 0 50 50" fill="none" xmlns="http://www.w3.org/2000/svg">
<rect width="50" height="50" fill="#EE2E24"/>
<path d="M39.0711 30.5936C41.0659 29.9604 42.6184 27.8141 42.9913 25.1156V24.3356H32.7645V30.5943H39.0697L39.0711 30.5936ZM42.9928 12.8603V12.1547C42.6008 9.33868 40.9329 7.11966 38.8066 6.59833H32.7659V12.8597H42.9928V12.8603ZM7 24.3363V25.1095C7.37034 27.8107 8.9225 29.9609 10.9231 30.5943H17.1965V24.3356H7V24.3363ZM11.1847 6.60306C9.06127 7.12466 7.38884 9.34476 7 12.1648V12.8655H17.1965V6.60414H11.1847V6.60306ZM43 15.471H32.7731V21.7324H43V15.471ZM19.9878 30.5977H29.992V24.339H19.9878V30.5977ZM29.992 6.59766H19.9878V12.859H29.992V6.59766ZM7.00867 21.7243H17.2052V15.4629H7.00867V21.7243Z" fill="white"/>
<path d="M11.374 37.626C11.374 37.7923 11.3923 37.9307 11.4287 38.04C11.5458 38.3634 11.7989 38.4637 12.0537 38.4639C12.5778 38.4639 12.8754 38.2499 13.0176 37.918V35.2334H13.6533V38.9316H13.0488L13.0352 38.5625C12.8058 38.8363 12.4553 39 11.9551 39C11.4203 39 11.0057 38.7802 10.8271 38.252C10.7702 38.0765 10.7412 37.8652 10.7412 37.6191V35.2334H11.374V37.626Z" fill="white"/>
<path d="M15.2656 35.2334H15.9561V35.7188H15.2656V38.0156C15.2656 38.2659 15.3508 38.3846 15.4736 38.4258C15.6351 38.4796 15.8076 38.4534 15.9697 38.416L15.9727 38.9316C15.6842 39.0233 15.3353 39.0402 15.0566 38.9082C14.7964 38.7848 14.6329 38.5028 14.6328 38.0127V35.7188H13.9561V35.2334H14.6328V34.335H15.2656V35.2334Z" fill="white"/>
<path fill-rule="evenodd" clip-rule="evenodd" d="M21.5859 35.165C22.6434 35.1651 23.1064 35.928 23.1064 36.9766V37.2607H20.6064C20.6237 37.9397 21.0341 38.4844 21.7021 38.4844C22.1486 38.4843 22.4434 38.2866 22.6758 37.9814L23.0586 38.2861C22.8202 38.6468 22.4042 39 21.668 39C20.6464 39 19.969 38.2562 19.9688 37.2129V37.0693C19.9688 35.8587 20.7583 35.165 21.5859 35.165ZM21.5859 35.6846C21.0887 35.6846 20.7112 36.0593 20.625 36.7441H22.4746V36.6963C22.4474 36.2058 22.2362 35.6846 21.5859 35.6846Z" fill="white"/>
<path d="M28.1523 35.2334H28.8428V35.7188H28.1523V38.0156C28.1523 38.2659 28.2375 38.3847 28.3604 38.4258C28.5218 38.4796 28.6943 38.4534 28.8564 38.416L28.8594 38.9316C28.5678 39.0243 28.2238 39.0411 27.9434 38.9082C27.683 38.7849 27.5196 38.5028 27.5195 38.0127V35.7188H26.8428V35.2334H27.5195V34.335H28.1523V35.2334Z" fill="white"/>
<path d="M32.3467 35.165C33.211 35.1652 33.785 35.7367 33.8193 36.5049H33.2178C33.1839 36.0504 32.8554 35.6847 32.3467 35.6846C31.595 35.6846 31.335 36.3452 31.335 37.0107V37.1543C31.335 37.8045 31.5695 38.4805 32.3467 38.4805C32.7996 38.4803 33.1839 38.1758 33.2178 37.7627H33.8193C33.7811 38.4964 33.0379 38.9999 32.3467 39C31.2443 39 30.7021 38.148 30.7021 37.1543V37.0107C30.7021 36.0029 31.2495 35.165 32.3467 35.165Z" fill="white"/>
<path fill-rule="evenodd" clip-rule="evenodd" d="M35.7598 35.165C36.5699 35.1652 37.1338 35.5765 37.1338 36.4023V38.125C37.1338 38.4036 37.2637 38.664 37.2637 38.9316H36.6035C36.5494 38.8079 36.5304 38.6714 36.5156 38.5381C36.2821 38.7833 35.927 39 35.4619 39C34.7144 38.9999 34.2112 38.5185 34.2109 37.9033C34.2109 37.3026 34.579 36.9244 35.1885 36.7686C35.6156 36.6594 36.0642 36.6895 36.501 36.6895V36.3955C36.501 35.956 36.2329 35.6748 35.7217 35.6748C35.2503 35.6749 34.9219 35.9471 34.9219 36.2588H34.29C34.29 35.5343 35.1412 35.165 35.7598 35.165ZM35.4961 37.1787C35.0755 37.2602 34.8467 37.4713 34.8467 37.8174C34.8467 38.1667 35.0926 38.4463 35.5547 38.4463C35.9417 38.4462 36.2459 38.2593 36.4189 38.0225C36.4526 37.9776 36.4791 37.9325 36.501 37.8887V37.1338C36.1678 37.1338 35.8243 37.1099 35.4961 37.1787Z" fill="white"/>
<path d="M38.7764 35.2334H39.4668V35.7188H38.7764V38.0156C38.7764 38.2659 38.8614 38.3848 38.9844 38.4258C39.1458 38.4796 39.3183 38.4534 39.4805 38.416L39.4834 38.9316C39.195 39.0234 38.846 39.0401 38.5674 38.9082C38.3071 38.7849 38.1437 38.5028 38.1436 38.0127V35.7188H37.4668V35.2334H38.1436V34.335H38.7764V35.2334Z" fill="white"/>
<path fill-rule="evenodd" clip-rule="evenodd" d="M41.4404 35.165C42.5478 35.165 43.1289 36.1091 43.1289 37.124C43.1287 38.1162 42.4741 39 41.4473 39C40.4051 39 39.7629 38.1879 39.7627 37.124V37.0449C39.7627 36.071 40.3892 35.1651 41.4404 35.165ZM41.4404 35.6846C40.7639 35.6846 40.3945 36.2986 40.3945 37.0449V37.124C40.3947 37.8564 40.7428 38.4804 41.4473 38.4805C42.1535 38.4805 42.493 37.8491 42.4932 37.124V37.0449C42.4932 36.3118 42.1461 35.6846 41.4404 35.6846Z" fill="white"/>
<path fill-rule="evenodd" clip-rule="evenodd" d="M8.53223 33.9551L10.4355 38.9316H9.75879L9.28516 37.6299H7.20312L6.73047 38.9316H6.05664L7.9541 33.9551H8.53223ZM7.39941 37.0898H9.08887L8.24316 34.7666L7.39941 37.0898Z" fill="white"/>
<path d="M17.1201 35.6768C17.1225 35.6739 17.1246 35.6708 17.127 35.668C17.3932 35.3467 17.7669 35.1651 18.21 35.165C18.5735 35.165 18.8697 35.258 19.0752 35.4727C19.2835 35.6856 19.3965 36.0182 19.3965 36.5088V38.9316H18.7607V36.502C18.7607 35.9135 18.4957 35.6983 18.0225 35.6982C17.7102 35.6982 17.4479 35.8373 17.2598 36.0713C17.2063 36.1395 17.1602 36.214 17.1201 36.2939V38.9316H16.4873V33.6816H17.1201V35.6768Z" fill="white"/>
<path d="M25.3574 35.165C26.0855 35.165 26.5439 35.5289 26.5439 36.5088V38.9316H25.9082V36.502C25.9082 35.9136 25.6431 35.6983 25.1699 35.6982C24.7676 35.6982 24.4467 35.9368 24.2676 36.2939V38.9316H23.6348V35.2334H24.2334L24.2529 35.6953C24.5197 35.3584 24.902 35.1651 25.3574 35.165Z" fill="white"/>
<path d="M30.0615 38.9316H29.4258V35.2334H30.0615V38.9316Z" fill="white"/>
<path d="M45.377 35.1826C45.4359 35.1917 45.4773 35.2015 45.5 35.2129L45.4961 35.8008C45.3936 35.7785 45.3097 35.7734 45.1885 35.7734C44.897 35.7734 44.6734 35.8692 44.5186 36.0332C44.4467 36.1093 44.3891 36.1993 44.3447 36.3027V38.9316H43.7119V35.2334H44.3271C44.3313 35.3725 44.2713 35.7686 44.3447 35.6504C44.4381 35.4978 44.5567 35.3792 44.7002 35.2949C44.9 35.1764 45.1495 35.1389 45.377 35.1826Z" fill="white"/>
<path d="M29.75 33.8867C29.9932 33.8867 30.126 34.0496 30.126 34.2529C30.1258 34.4453 29.9954 34.6084 29.75 34.6084C29.5041 34.6083 29.3781 34.4483 29.3779 34.2529C29.3779 34.0464 29.5063 33.8868 29.75 33.8867Z" fill="white"/>
</svg>
