<svg width="50" height="50" viewBox="0 0 50 50" fill="none" xmlns="http://www.w3.org/2000/svg">
<path d="M34.6398 10.8784L33.5114 11.6284C35.1804 13.8514 35.9844 16.7163 35.5114 19.6757C34.5858 25.473 29.1196 29.4392 23.3223 28.5135C20.5115 28.0676 18.0453 26.5541 16.3763 24.25C14.7074 21.946 14.0317 19.1352 14.4777 16.3244C15.3155 11.0946 19.8493 7.35141 24.9912 7.35141C25.2344 7.35141 25.4777 7.36493 25.7209 7.37844L25.6804 9.18249C24.8155 9.12844 23.9709 9.196 23.1534 9.37844C22.9439 9.12168 22.6534 8.93249 22.2952 8.87844C21.5385 8.75682 20.829 9.27033 20.7142 10.0271C20.7007 10.1284 20.6939 10.223 20.7007 10.3176C18.4169 11.6082 16.7142 13.8852 16.2682 16.669C15.498 21.5203 18.8155 26.1014 23.6669 26.8716C24.1398 26.946 24.6061 26.9865 25.0723 26.9865C25.7952 26.9865 26.4979 26.8919 27.1804 26.723C27.2344 26.7365 27.2817 26.7568 27.3358 26.7635C27.8628 26.8446 28.3628 26.6149 28.6601 26.2162C31.329 25.0338 33.3696 22.5676 33.8628 19.473C34.2344 17.1217 33.6736 14.7636 32.275 12.8379C32.2074 12.75 32.1398 12.6622 32.0655 12.5744L30.9236 13.3311C31.0047 13.4325 31.0993 13.5203 31.1804 13.6284C32.3628 15.2636 32.8425 17.2635 32.525 19.2568C32.1466 21.6419 30.6804 23.5811 28.7209 24.6689C28.5182 24.3379 28.1804 24.0879 27.7682 24.027C27.0115 23.9054 26.302 24.4189 26.1871 25.1757C26.1669 25.3041 26.1736 25.4257 26.1871 25.5406C25.4371 25.6554 24.6669 25.6554 23.8763 25.5338C19.7615 24.8784 16.9439 20.9933 17.5993 16.8784C17.9777 14.4865 19.4507 12.5406 21.4236 11.4528C21.5588 11.5271 21.7007 11.5811 21.8561 11.6082C22.525 11.7163 23.1534 11.3244 23.3763 10.7095C23.9236 10.5811 24.4844 10.5136 25.0588 10.5136C25.2547 10.5136 25.4439 10.5203 25.6398 10.5338L25.5993 12.3109C22.6398 12.0406 19.9304 14.1082 19.4574 17.0811C19.2547 18.3379 19.4844 19.5946 20.0858 20.696C19.9574 20.8716 19.8628 21.0676 19.829 21.2973C19.7074 22.0541 20.2209 22.7635 20.9777 22.8784C21.3088 22.9325 21.6331 22.8581 21.9034 22.696C22.5858 23.1554 23.3561 23.4662 24.1939 23.6014C24.4979 23.6487 24.7952 23.6757 25.0925 23.6757C27.8425 23.6757 30.2682 21.6757 30.7142 18.8784C30.9506 17.3784 30.5925 15.8717 29.7006 14.6419C29.6196 14.5338 29.5317 14.4392 29.4439 14.3379L28.3155 15.0879C28.4169 15.2027 28.5182 15.3109 28.606 15.4325C29.2885 16.3717 29.5655 17.5203 29.3831 18.6622C29.0047 21.0271 26.7817 22.6419 24.4101 22.2703C23.7412 22.1622 23.1196 21.9054 22.579 21.5203C22.579 20.8514 22.0993 20.2568 21.4169 20.1487C21.3831 20.1487 21.3561 20.1487 21.329 20.1487C20.8358 19.2906 20.6466 18.2973 20.802 17.2973C21.1398 15.1622 22.9912 13.6352 25.0925 13.6352C25.2547 13.6352 25.4169 13.6555 25.579 13.6757L25.5182 16.1419C25.4574 16.1284 25.4033 16.1081 25.3425 16.0946C24.829 16.0136 24.3155 16.1352 23.8898 16.4392C23.4709 16.7433 23.1939 17.196 23.1128 17.7095C23.0317 18.223 23.1534 18.7365 23.4574 19.1622C23.7615 19.5811 24.2142 19.8581 24.7277 19.9392C24.829 19.9527 24.9371 19.9662 25.0385 19.9662C25.4439 19.9662 25.8425 19.8379 26.1804 19.5946C26.5993 19.2906 26.8763 18.8379 26.9574 18.3244C27.0385 17.8108 26.9169 17.2973 26.6128 16.8717C26.4979 16.7095 26.3493 16.5744 26.1939 16.4595L27.6736 14.4798C27.6736 14.4798 27.6939 14.4933 27.7006 14.5L28.4979 13.4055C28.4979 13.4055 28.4912 13.3987 28.4844 13.3919L29.3628 12.2163L32.1601 8.37844C30.6533 7.25682 28.8696 6.46628 26.8898 6.14871C20.3561 5.11493 14.1871 9.58114 13.1534 16.1149C12.6466 19.2771 13.4101 22.4527 15.2885 25.0473C17.1736 27.6419 19.9507 29.3446 23.1128 29.8514C23.7547 29.9527 24.3898 30 25.025 30C27.5317 30 29.9709 29.2162 32.0452 27.7095C34.6398 25.8311 36.3425 23.0473 36.8493 19.8852C37.3763 16.5811 36.4912 13.3784 34.6398 10.8784V10.8784ZM25.6263 18.1081C25.5993 18.2635 25.5182 18.4054 25.3898 18.5C25.2615 18.5946 25.0993 18.6284 24.9439 18.6081C24.7885 18.5811 24.6466 18.5 24.552 18.3717C24.4574 18.2433 24.4236 18.0879 24.4439 17.9257C24.4709 17.7703 24.552 17.6284 24.6804 17.5338C24.7817 17.4595 24.9033 17.419 25.0317 17.419C25.0655 17.419 25.0925 17.419 25.1263 17.4257C25.2817 17.4527 25.4236 17.5338 25.5182 17.6622C25.6128 17.7906 25.6466 17.9527 25.6263 18.1081Z" fill="#902E2C"/>
<path d="M8.29199 34.6016V41H7.44385V34.6016H8.29199ZM10.9727 37.48V38.1743H8.10742V37.48H10.9727ZM11.4077 34.6016V35.2959H8.10742V34.6016H11.4077Z" fill="#1C1D1F"/>
<path d="M11.9834 38.6753V38.5742C11.9834 38.2314 12.0332 37.9136 12.1328 37.6206C12.2324 37.3247 12.376 37.0684 12.5635 36.8516C12.751 36.6318 12.978 36.4619 13.2446 36.3418C13.5112 36.2188 13.8101 36.1572 14.1411 36.1572C14.4751 36.1572 14.7754 36.2188 15.042 36.3418C15.3115 36.4619 15.54 36.6318 15.7275 36.8516C15.918 37.0684 16.063 37.3247 16.1626 37.6206C16.2622 37.9136 16.312 38.2314 16.312 38.5742V38.6753C16.312 39.0181 16.2622 39.3359 16.1626 39.6289C16.063 39.9219 15.918 40.1782 15.7275 40.3979C15.54 40.6147 15.313 40.7847 15.0464 40.9077C14.7827 41.0278 14.4839 41.0879 14.1499 41.0879C13.8159 41.0879 13.5156 41.0278 13.249 40.9077C12.9824 40.7847 12.7539 40.6147 12.5635 40.3979C12.376 40.1782 12.2324 39.9219 12.1328 39.6289C12.0332 39.3359 11.9834 39.0181 11.9834 38.6753ZM12.7964 38.5742V38.6753C12.7964 38.9126 12.8242 39.1367 12.8799 39.3477C12.9355 39.5557 13.019 39.7402 13.1304 39.9014C13.2446 40.0625 13.3867 40.1899 13.5566 40.2837C13.7266 40.3745 13.9243 40.4199 14.1499 40.4199C14.3726 40.4199 14.5674 40.3745 14.7344 40.2837C14.9043 40.1899 15.0449 40.0625 15.1562 39.9014C15.2676 39.7402 15.3511 39.5557 15.4067 39.3477C15.4653 39.1367 15.4946 38.9126 15.4946 38.6753V38.5742C15.4946 38.3398 15.4653 38.1187 15.4067 37.9106C15.3511 37.6997 15.2661 37.5137 15.1519 37.3525C15.0405 37.1885 14.8999 37.0596 14.73 36.9658C14.563 36.8721 14.3667 36.8252 14.1411 36.8252C13.9185 36.8252 13.7222 36.8721 13.5522 36.9658C13.3853 37.0596 13.2446 37.1885 13.1304 37.3525C13.019 37.5137 12.9355 37.6997 12.8799 37.9106C12.8242 38.1187 12.7964 38.3398 12.7964 38.5742Z" fill="#1C1D1F"/>
<path d="M18.1445 36.9922V41H17.3315V36.2451H18.1226L18.1445 36.9922ZM19.6299 36.2188L19.6255 36.9746C19.5581 36.96 19.4937 36.9512 19.4321 36.9482C19.3735 36.9424 19.3062 36.9395 19.23 36.9395C19.0425 36.9395 18.877 36.9688 18.7334 37.0273C18.5898 37.0859 18.4683 37.168 18.3687 37.2734C18.269 37.3789 18.1899 37.5049 18.1313 37.6514C18.0757 37.7949 18.0391 37.9531 18.0215 38.126L17.793 38.2578C17.793 37.9707 17.8208 37.7012 17.8765 37.4492C17.9351 37.1973 18.0244 36.9746 18.1445 36.7812C18.2646 36.585 18.417 36.4326 18.6016 36.3242C18.7891 36.2129 19.0117 36.1572 19.2695 36.1572C19.3281 36.1572 19.3955 36.1646 19.4717 36.1792C19.5479 36.1909 19.6006 36.2041 19.6299 36.2188Z" fill="#1C1D1F"/>
<path d="M22.5918 36.2451V36.8691H20.021V36.2451H22.5918ZM20.8911 35.0894H21.7041V39.8223C21.7041 39.9834 21.729 40.105 21.7788 40.187C21.8286 40.269 21.8931 40.3232 21.9722 40.3496C22.0513 40.376 22.1362 40.3892 22.2271 40.3892C22.2944 40.3892 22.3647 40.3833 22.438 40.3716C22.5142 40.3569 22.5713 40.3452 22.6094 40.3364L22.6138 41C22.5493 41.0205 22.4644 41.0396 22.3589 41.0571C22.2563 41.0776 22.1318 41.0879 21.9854 41.0879C21.7861 41.0879 21.603 41.0483 21.436 40.9692C21.269 40.8901 21.1357 40.7583 21.0361 40.5737C20.9395 40.3862 20.8911 40.1343 20.8911 39.8179V35.0894Z" fill="#1C1D1F"/>
<path d="M24.4287 36.2451V41H23.6113V36.2451H24.4287ZM23.5498 34.9839C23.5498 34.8521 23.5894 34.7407 23.6685 34.6499C23.7505 34.5591 23.8706 34.5137 24.0288 34.5137C24.1841 34.5137 24.3027 34.5591 24.3848 34.6499C24.4697 34.7407 24.5122 34.8521 24.5122 34.9839C24.5122 35.1099 24.4697 35.2183 24.3848 35.3091C24.3027 35.397 24.1841 35.4409 24.0288 35.4409C23.8706 35.4409 23.7505 35.397 23.6685 35.3091C23.5894 35.2183 23.5498 35.1099 23.5498 34.9839Z" fill="#1C1D1F"/>
<path d="M30.7788 34.6016V41H29.9263L26.7051 36.0649V41H25.8569V34.6016H26.7051L29.9395 39.5498V34.6016H30.7788Z" fill="#1C1D1F"/>
<path d="M34.7295 35.1685L32.6113 41H31.7456L34.1846 34.6016H34.7427L34.7295 35.1685ZM36.5049 41L34.3823 35.1685L34.3691 34.6016H34.9272L37.375 41H36.5049ZM36.395 38.6313V39.3257H32.8003V38.6313H36.395Z" fill="#1C1D1F"/>
<path d="M42.042 38.9653H42.8857C42.8418 39.3696 42.7261 39.7314 42.5386 40.0508C42.3511 40.3701 42.0859 40.6235 41.7432 40.811C41.4004 40.9956 40.9727 41.0879 40.46 41.0879C40.085 41.0879 39.7437 41.0176 39.436 40.877C39.1313 40.7363 38.8691 40.5371 38.6494 40.2793C38.4297 40.0186 38.2598 39.7065 38.1396 39.3433C38.0225 38.9771 37.9639 38.5698 37.9639 38.1216V37.4844C37.9639 37.0361 38.0225 36.6304 38.1396 36.2671C38.2598 35.9009 38.4312 35.5874 38.6538 35.3267C38.8794 35.0659 39.1504 34.8652 39.4668 34.7246C39.7832 34.584 40.1392 34.5137 40.5347 34.5137C41.0181 34.5137 41.4268 34.6045 41.7607 34.7861C42.0947 34.9678 42.354 35.2197 42.5386 35.542C42.7261 35.8613 42.8418 36.2319 42.8857 36.6538H42.042C42.001 36.355 41.9248 36.0986 41.8135 35.8848C41.7021 35.668 41.5439 35.501 41.3389 35.3838C41.1338 35.2666 40.8657 35.208 40.5347 35.208C40.2505 35.208 40 35.2622 39.7832 35.3706C39.5693 35.479 39.3892 35.6328 39.2427 35.832C39.0991 36.0312 38.9907 36.27 38.9175 36.5483C38.8442 36.8267 38.8076 37.1357 38.8076 37.4756V38.1216C38.8076 38.4351 38.8398 38.7295 38.9043 39.0049C38.9717 39.2803 39.0728 39.522 39.2075 39.73C39.3423 39.938 39.5137 40.1021 39.7217 40.2222C39.9297 40.3394 40.1758 40.3979 40.46 40.3979C40.8203 40.3979 41.1074 40.3408 41.3213 40.2266C41.5352 40.1123 41.6963 39.9482 41.8047 39.7344C41.916 39.5205 41.9951 39.2642 42.042 38.9653Z" fill="#1C1D1F"/>
</svg>
