<svg width="50" height="50" viewBox="0 0 50 50" fill="none" xmlns="http://www.w3.org/2000/svg">
<rect width="50" height="50" fill="#EE2E24"/>
<path d="M39.1803 30.9961C41.1197 30.3893 42.629 28.3324 42.9916 25.7464V24.9989H33.0488V30.9968H39.1789L39.1803 30.9961ZM42.993 14.0017V13.3255C42.6118 10.6268 40.9904 8.50025 38.9231 8.00065H33.0502V14.0011H42.993V14.0017ZM8 24.9995V25.7405C8.36005 28.3292 9.8691 30.3897 11.8141 30.9968H17.9133V24.9989H8V24.9995ZM12.0685 8.00518C10.004 8.50504 8.37804 10.6326 8 13.3352V14.0067H17.9133V8.00621H12.0685V8.00518ZM43 16.5037H33.0572V22.5041H43V16.5037ZM20.627 31H30.3533V25.0021H20.627V31ZM30.3533 8H20.627V14.0005H30.3533V8ZM8.00843 22.4963H17.9217V16.4959H8.00843V22.4963Z" fill="white"/>
<path d="M37 41.9088V35H36.1688V41.9088H37Z" fill="white"/>
<path fill-rule="evenodd" clip-rule="evenodd" d="M33.9934 41.3944C33.688 41.7164 33.2234 41.9987 32.6163 41.9987C31.7887 41.9987 30.9808 41.4607 30.9808 40.5549C30.9808 40.03 31.1916 39.6298 31.5706 39.3675C32.2639 38.8768 33.1725 38.9582 33.9747 38.9582V38.5713C33.9747 37.9927 33.6245 37.6223 32.9559 37.6223C32.3393 37.6223 31.9102 37.9811 31.9102 38.3914H31.0835C31.0835 37.4374 32.1957 36.9521 33.0051 36.9521C34.0651 36.9521 34.8014 37.4929 34.8014 38.5803V40.8473C34.8014 41.0092 34.8148 41.1816 34.8417 41.3645C34.8712 41.5458 34.9712 41.7285 34.9712 41.9088H34.1088C34.0387 41.7474 34.0127 41.5683 33.9934 41.3944ZM33.9747 40.5405C33.7449 40.9998 33.2397 41.2701 32.7369 41.2701C32.1324 41.2701 31.8119 40.9025 31.8119 40.4425C31.8119 40.1396 31.9484 39.9162 32.1962 39.7678C32.7151 39.4569 33.4007 39.5429 33.9747 39.5429V40.5405Z" fill="white"/>
<path d="M30.1541 37.042V37.6807H29.2514V40.7033C29.2514 41.2573 29.6937 41.3407 30.1719 41.2296L30.1764 41.9088C29.1957 42.2229 28.4247 41.7032 28.4247 40.6988V37.6807H27.5399V37.042H28.4247V35.8591H29.2514V37.042H30.1541Z" fill="white"/>
<path d="M25.6318 38.4488V41.9088H24.8051V37.042H25.6095L25.6258 37.6006L25.6318 37.5908C25.9185 37.1193 26.6041 36.7442 27.1422 37.0151L27.1378 37.7887C26.5515 37.6604 25.8831 37.8596 25.6318 38.4488Z" fill="white"/>
<path fill-rule="evenodd" clip-rule="evenodd" d="M19.3668 39.4259C19.3668 38.0062 20.2267 36.9521 21.5609 36.9521C22.9411 36.9521 23.7684 38.1357 23.7684 39.4259C23.7684 40.7543 22.963 41.9987 21.5698 41.9987C20.1738 41.9987 19.3668 40.7587 19.3668 39.4259ZM20.1935 39.5294C20.1935 40.4938 20.6482 41.315 21.5698 41.315C22.5072 41.315 22.9372 40.3727 22.9372 39.5294C22.9372 38.6588 22.5885 37.6358 21.5609 37.6358C20.5705 37.6358 20.1935 38.6651 20.1935 39.5294Z" fill="white"/>
<path fill-rule="evenodd" clip-rule="evenodd" d="M14.8624 39.3405H16.3997C17.8775 39.3405 18.6831 38.6149 18.6831 37.3569C18.6831 36.1907 17.8707 35.3598 16.3997 35.3598H14V41.9088H14.8624V39.3405ZM14.8624 38.6343V36.0705H16.3997C17.4074 36.0705 17.8207 36.6925 17.8207 37.3659C17.8207 38.1005 17.4117 38.6343 16.3997 38.6343H14.8624Z" fill="white"/>
</svg>
