<svg width="50" height="50" viewBox="0 0 50 50" fill="none" xmlns="http://www.w3.org/2000/svg">
<rect width="50" height="50" fill="#EE2E24"/>
<path d="M21.3359 35.7734H22.125V36.3281H21.3359V38.9531C21.3359 39.2396 21.4336 39.375 21.5742 39.4219C21.7582 39.4832 21.9559 39.4528 22.1406 39.4102L22.1445 40C21.8115 40.106 21.4177 40.1243 21.0977 39.9727C20.7999 39.8316 20.6133 39.5101 20.6133 38.9492V36.3281H19.8398V35.7734H20.6133V34.7461H21.3359V35.7734Z" fill="white"/>
<path fill-rule="evenodd" clip-rule="evenodd" d="M14.6133 35.6953C15.8019 35.6953 16.543 36.6177 16.543 37.8438C16.543 39.003 15.8873 40.0781 14.6211 40.0781C13.4007 40.0781 12.6953 39.0012 12.6953 37.8438C12.6953 36.6107 13.4469 35.6953 14.6133 35.6953ZM14.6133 36.2891C13.7475 36.2891 13.418 37.183 13.418 37.9336C13.418 38.7712 13.8154 39.4844 14.6211 39.4844C15.4286 39.4844 15.8164 38.7627 15.8164 37.9336C15.8164 37.1813 15.4779 36.2891 14.6133 36.2891Z" fill="white"/>
<path d="M26.7969 34.2344C27.7892 34.2344 28.8008 34.8599 28.8008 35.9531H28.0508C28.0508 35.3061 27.6418 34.8516 26.7969 34.8516C25.9944 34.8516 25.6172 35.2392 25.6172 35.7734C25.6172 36.2542 26.0256 36.5481 26.9492 36.8047C28.2391 37.1688 28.8164 37.6648 28.8164 38.5547C28.8164 39.4788 28.0415 40.0781 26.832 40.0781C25.8166 40.0781 24.6836 39.468 24.6836 38.3516H25.4336C25.4336 39.1317 26.111 39.4648 26.832 39.4648C27.6235 39.4648 28.0586 39.1139 28.0586 38.5625C28.0586 38.0317 27.7948 37.7778 26.707 37.4609C25.5784 37.1265 24.8633 36.6657 24.8633 35.7812C24.8633 34.8884 25.6398 34.2344 26.7969 34.2344Z" fill="white"/>
<path d="M36.7656 34.2344C37.7579 34.2344 38.7695 34.8599 38.7695 35.9531H38.0195C38.0195 35.3061 37.6106 34.8516 36.7656 34.8516C35.9632 34.8516 35.5859 35.2392 35.5859 35.7734C35.5859 36.2542 35.9943 36.5481 36.918 36.8047C38.2078 37.1688 38.7852 37.6648 38.7852 38.5547C38.7852 39.4788 38.0102 40.0781 36.8008 40.0781C35.7595 40.0781 34.6523 39.4912 34.6523 38.3516H35.4023C35.4023 39.1317 36.0797 39.4648 36.8008 39.4648C37.5922 39.4648 38.0273 39.1139 38.0273 38.5625C38.0273 38.0317 37.7636 37.7778 36.6758 37.4609C35.5471 37.1265 34.832 36.6657 34.832 35.7812C34.832 34.8884 35.6086 34.2344 36.7656 34.2344Z" fill="white"/>
<path d="M12.1836 34.9297H9.41406V36.8711H11.7969V37.4883H9.41406V40H8.66016V34.3125H12.1836V34.9297Z" fill="white"/>
<path d="M19.1719 35.6953C19.2757 35.6953 19.4399 35.7239 19.4922 35.75L19.4883 36.4219C19.3711 36.3964 19.2752 36.3906 19.1367 36.3906C18.6482 36.3906 18.3319 36.6228 18.1719 36.9971V40H17.4492V35.7734H18.1523C18.1568 35.9324 18.088 36.3851 18.1719 36.25C18.3874 35.8978 18.7178 35.6953 19.1719 35.6953Z" fill="white"/>
<path d="M23.7578 40H23.0312V35.7734H23.7578V40Z" fill="white"/>
<path fill-rule="evenodd" clip-rule="evenodd" d="M34.2344 40H33.4609L32.9189 38.5117H30.541L30 40H29.2305L31.3984 34.3125H32.0586L34.2344 40ZM30.7646 37.8945H32.6943L31.7285 35.2402L30.7646 37.8945Z" fill="white"/>
<path d="M43.3203 34.9297H40.5V36.7578H42.9609V37.3711H40.5V39.3867H43.3594V40H39.7461V34.3125H43.3203V34.9297Z" fill="white"/>
<path d="M23.4023 34.2344C23.6806 34.2344 23.832 34.4198 23.832 34.6523C23.832 34.8726 23.6831 35.0586 23.4023 35.0586C23.1208 35.0586 22.9766 34.8761 22.9766 34.6523C22.9766 34.4161 23.1233 34.2344 23.4023 34.2344Z" fill="white"/>
<path d="M28.9658 21.3057V26H21.7402V21.3057H28.9658Z" fill="white"/>
<path d="M19.7246 21.3037V25.9971H15.1934C13.7487 25.5218 12.6278 23.9095 12.3604 21.8838V21.3037H19.7246Z" fill="white"/>
<path d="M38.3545 21.3037V21.8887C38.0851 23.9125 36.9631 25.5222 35.5225 25.9971H30.9678V21.3037H38.3545Z" fill="white"/>
<path d="M38.3604 14.6553V19.3506H30.9746V14.6553H38.3604Z" fill="white"/>
<path d="M19.7305 14.6494V19.3447H12.3662V14.6494H19.7305Z" fill="white"/>
<path d="M19.7246 8.00488V12.7012H12.3604V12.1758C12.6412 10.0608 13.8492 8.3951 15.3828 8.00391L19.7246 8.00488Z" fill="white"/>
<path d="M35.332 8.00098C36.8675 8.39213 38.0724 10.0561 38.3555 12.168V12.6973L30.9688 12.6963V8.00098H35.332Z" fill="white"/>
<path d="M28.9658 8V12.6963H21.7402V8H28.9658Z" fill="white"/>
</svg>
