<svg width="50" height="50" viewBox="0 0 50 50" fill="none" xmlns="http://www.w3.org/2000/svg">
<path d="M36.7261 28.9966C38.3884 28.4426 39.6822 26.5645 39.993 24.2033V23.5208H31.4705V28.9972H36.7249L36.7261 28.9966ZM39.9942 13.4799V12.8624C39.6675 10.3984 38.2776 8.45676 36.5057 8.00059H31.4717V13.4793L39.9942 13.4799ZM10 23.5214V24.198C10.3086 26.5615 11.6021 28.4429 13.2692 28.9972H18.4971V23.5208L10 23.5214ZM13.4873 8.00473C11.7177 8.46113 10.324 10.4037 10 12.8713V13.4844H18.4971V8.00567L13.4873 8.00473ZM40.0002 15.7643H31.4777V21.243H40.0002V15.7643ZM20.8232 29.0001H29.1601V23.5238H20.8232V29.0001ZM29.1601 8H20.8232V13.4787H29.1601V8ZM10.0072 21.2359H18.5044V15.7572H10.0072V21.2359Z" fill="#EE2E24"/>
<path fill-rule="evenodd" clip-rule="evenodd" d="M12.4531 36.6953C13.6417 36.6953 14.3828 37.6178 14.3828 38.8438C14.3828 40.0029 13.727 41.0781 12.4609 41.0781C11.2406 41.078 10.5352 40.0012 10.5352 38.8438C10.5352 37.6109 11.287 36.6954 12.4531 36.6953ZM12.4531 37.2891C11.6799 37.2891 11.2578 37.9907 11.2578 38.8438C11.2578 39.5996 11.5641 40.4843 12.4609 40.4844C13.3261 40.4844 13.6562 39.5958 13.6562 38.8438C13.6562 38.0058 13.2597 37.2891 12.4531 37.2891Z" fill="black"/>
<path d="M18.8555 36.7734H19.6445V37.3281H18.8555V39.9531C18.8555 40.2391 18.9534 40.3749 19.0938 40.4219C19.2778 40.4832 19.4754 40.4527 19.6602 40.4102L19.6641 41C19.3339 41.1048 18.936 41.1237 18.6172 40.9727C18.3197 40.8315 18.1328 40.5097 18.1328 39.9492V37.3281H17.3594V36.7734H18.1328V35.7461H18.8555V36.7734Z" fill="black"/>
<path fill-rule="evenodd" clip-rule="evenodd" d="M28.5479 36.6953C29.9526 36.6953 30.2861 37.9253 30.2861 39.0898H27.4287C27.4483 39.8663 27.9168 40.4883 28.6807 40.4883C29.191 40.4883 29.5283 40.263 29.7939 39.9141L30.2314 40.2617C29.959 40.6742 29.4837 41.0781 28.6416 41.0781C27.4137 41.0781 26.7002 40.051 26.7002 38.8711C26.7002 37.4874 27.6019 36.6953 28.5479 36.6953ZM28.5479 37.2891C27.9793 37.2891 27.5478 37.7169 27.4492 38.5H29.5635C29.5635 37.8708 29.2172 37.2891 28.5479 37.2891Z" fill="black"/>
<path d="M32.6611 36.6953C33.6493 36.6953 34.3055 37.3485 34.3447 38.2266H33.6572C33.6184 37.707 33.2429 37.2891 32.6611 37.2891C31.8158 37.2891 31.5049 38.0811 31.5049 38.8047C31.5049 39.5865 31.7457 40.4843 32.6611 40.4844C33.179 40.4844 33.6185 40.1363 33.6572 39.6641H34.3447C34.3011 40.502 33.4502 41.0781 32.6611 41.0781C31.3815 41.0781 30.7822 39.9444 30.7822 38.8047C30.7822 37.6525 31.4069 36.6954 32.6611 36.6953Z" fill="black"/>
<path fill-rule="evenodd" clip-rule="evenodd" d="M36.7236 36.6953C37.9121 36.6953 38.6533 37.6179 38.6533 38.8438C38.6533 39.9673 37.9595 41.0781 36.7314 41.0781C35.462 41.078 34.8057 39.9892 34.8057 38.8438C34.8057 37.7302 35.5218 36.6955 36.7236 36.6953ZM36.7236 37.2891C35.9506 37.2892 35.5283 37.9908 35.5283 38.8438C35.5283 39.6043 35.8605 40.4842 36.7314 40.4844C37.6266 40.4844 37.9268 39.5957 37.9268 38.8438C37.9268 38.0059 37.5302 37.2891 36.7236 37.2891Z" fill="black"/>
<path d="M10.1836 35.3125V35.9297H7.41406V37.8711H9.79688V38.4883H7.41406V41H6.66016V35.3125H10.1836Z" fill="black"/>
<path d="M17.1719 36.75L17.168 37.4219C16.9138 37.3667 16.6175 37.3698 16.375 37.4688C16.1288 37.5693 15.9569 37.7506 15.8516 37.9971V41H15.1289V36.7734H15.832L15.8457 37.2588C15.8475 37.2558 15.8497 37.253 15.8516 37.25C15.9583 37.0756 16.0939 36.9401 16.2578 36.8438C16.4992 36.7004 16.9043 36.617 17.1719 36.75Z" fill="black"/>
<path d="M21.1182 41H20.3916V36.7734H21.1182V41Z" fill="black"/>
<path fill-rule="evenodd" clip-rule="evenodd" d="M24.1104 35.3125C25.3964 35.3126 26.1025 35.9109 26.1025 37.0195C26.1025 37.714 25.7064 38.274 25.0195 38.5361L26.3564 40.9531V41H25.5518L24.3154 38.6953H22.9814V41H22.2275V35.3125H24.1104ZM22.9814 38.082H24.1338C24.9493 38.082 25.3525 37.6042 25.3525 37.0195C25.3525 36.3647 24.9806 35.9297 24.1104 35.9297H22.9814V38.082Z" fill="black"/>
<path d="M41.9307 36.7812C42.4321 36.9458 42.7236 37.391 42.7236 38.2305V41H41.9971V38.2227C41.9971 37.55 41.6941 37.3047 41.1533 37.3047C40.6933 37.3048 40.3267 37.5777 40.1221 37.9863V41H39.3994V36.7734H40.083L40.1055 37.3008C40.2608 37.1046 40.4491 36.9521 40.6689 36.8477C41.0512 36.6636 41.5297 36.6436 41.9307 36.7812Z" fill="black"/>
<path d="M20.7627 35.2344C21.0406 35.2345 21.1924 35.42 21.1924 35.6523C21.1924 35.8724 21.0431 36.0585 20.7627 36.0586C20.4813 36.0586 20.3369 35.876 20.3369 35.6523C20.3369 35.4162 20.4838 35.2344 20.7627 35.2344Z" fill="black"/>
</svg>
