<svg width="50" height="50" viewBox="0 0 50 50" fill="none" xmlns="http://www.w3.org/2000/svg">
<path d="M36.7261 28.9966C38.3884 28.4426 39.6822 26.5645 39.993 24.2033V23.5208H31.4705V28.9972H36.7249L36.7261 28.9966ZM39.9942 13.4799V12.8624C39.6675 10.3984 38.2776 8.45676 36.5057 8.00059H31.4717V13.4793L39.9942 13.4799ZM10 23.5214V24.198C10.3086 26.5615 11.6021 28.4429 13.2692 28.9972H18.4971V23.5208L10 23.5214ZM13.4873 8.00473C11.7177 8.46113 10.324 10.4037 10 12.8713V13.4844H18.4971V8.00567L13.4873 8.00473ZM40.0002 15.7643H31.4777V21.243H40.0002V15.7643ZM20.8232 29.0001H29.1601V23.5238H20.8232V29.0001ZM29.1601 8H20.8232V13.4787H29.1601V8ZM10.0072 21.2359H18.5044V15.7572H10.0072V21.2359Z" fill="#EE2E24"/>
<path fill-rule="evenodd" clip-rule="evenodd" d="M30.9189 41.6953C31.4517 41.6953 31.8468 41.8852 32.1221 42.2383C32.1238 42.2405 32.1252 42.2429 32.127 42.2451L32.1611 41.7734H32.8174V45.9102C32.8174 47.0259 32.0856 47.668 31.0283 47.668C30.4462 47.668 29.8039 47.4222 29.4619 46.9336L29.8408 46.5039C30.197 46.9334 30.5956 47.0742 30.9736 47.0742C31.6599 47.0742 32.0947 46.6823 32.0947 45.9453V45.5693C31.8204 45.8972 31.4324 46.0781 30.9111 46.0781C29.763 46.0781 29.251 44.9283 29.251 43.9336V43.8516C29.251 42.5425 29.898 41.6953 30.9189 41.6953ZM31.0947 42.3047C30.2549 42.3047 29.9736 43.1466 29.9736 43.8516C29.9736 44.5787 30.2312 45.4648 31.0869 45.4648C31.5468 45.4648 31.8912 45.228 32.0947 44.8271V42.9209C31.9126 42.5653 31.5993 42.3047 31.0947 42.3047Z" fill="black"/>
<path fill-rule="evenodd" clip-rule="evenodd" d="M17.7021 41.6953C18.6286 41.6953 19.2725 42.1651 19.2725 43.1094C19.2725 43.9047 19.1911 44.7375 19.3076 45.5273C19.3334 45.6848 19.4209 45.8434 19.4209 46H18.667C18.605 45.8584 18.5843 45.7031 18.5674 45.5508C18.3005 45.8312 17.894 46.0781 17.3623 46.0781C16.5076 46.078 15.9326 45.5277 15.9326 44.8242C15.9326 44.1376 16.3531 43.7055 17.0498 43.5273C17.5377 43.4027 18.0509 43.4375 18.5498 43.4375V43.1016C18.5498 42.5991 18.2435 42.2773 17.6592 42.2773C17.1205 42.2774 16.7451 42.5891 16.7451 42.9453H16.0225C16.0225 42.1169 16.9947 41.6954 17.7021 41.6953ZM17.4014 43.9961C16.9204 44.0892 16.6592 44.3309 16.6592 44.7266C16.6592 45.1259 16.9396 45.4452 17.4678 45.4453C17.9103 45.4453 18.3497 45.2091 18.5498 44.8076V43.9453C18.1693 43.9453 17.7762 43.9175 17.4014 43.9961Z" fill="black"/>
<path fill-rule="evenodd" clip-rule="evenodd" d="M26.6357 41.6953C27.2532 41.6953 27.7385 41.9043 28.0029 42.3242C28.1383 42.5326 28.2061 42.7943 28.2061 43.1094V45.0781C28.2061 45.2187 28.2178 45.3685 28.2412 45.5273C28.267 45.6848 28.3545 45.8435 28.3545 46H27.6006C27.5641 45.9167 27.5355 45.806 27.5146 45.668C27.5087 45.6281 27.5052 45.589 27.501 45.5508C27.349 45.7104 27.1532 45.8561 26.9131 45.9609C26.7308 46.0391 26.5251 46.0781 26.2959 46.0781C25.441 46.0781 24.8662 45.5278 24.8662 44.8242C24.8662 44.1374 25.2865 43.7055 25.9834 43.5273C26.4713 43.4027 26.9845 43.4375 27.4834 43.4375V43.1016C27.4834 42.599 27.1772 42.2773 26.5928 42.2773C26.0539 42.2774 25.6787 42.589 25.6787 42.9453H24.9561C24.9561 42.1168 25.9282 41.6953 26.6357 41.6953ZM26.335 43.9961C25.8538 44.0892 25.5928 44.3307 25.5928 44.7266C25.5928 45.126 25.873 45.4453 26.4014 45.4453C26.8424 45.4453 27.2824 45.2111 27.4834 44.8076V43.9453C27.1029 43.9453 26.7098 43.9175 26.335 43.9961Z" fill="black"/>
<path fill-rule="evenodd" clip-rule="evenodd" d="M35.6553 41.6953C36.8639 41.6954 37.3936 42.5672 37.3936 43.7656V44.0898H34.5361C34.5557 44.8662 35.0243 45.4883 35.7881 45.4883C36.2984 45.4882 36.6358 45.263 36.9014 44.9141L37.3389 45.2617C37.0665 45.6742 36.591 46.0781 35.749 46.0781C34.5809 46.0781 33.8076 45.2284 33.8076 44.0352C33.8076 42.925 34.3659 41.6953 35.6553 41.6953ZM35.6553 42.2891C35.0868 42.2891 34.6552 42.717 34.5566 43.5H36.6709C36.6709 42.8708 36.3246 42.2891 35.6553 42.2891Z" fill="black"/>
<path d="M11.9346 44.9492L13.7939 40.3125H14.7627V46H14.0127L14.085 41.4023L12.2158 46H11.6455L9.7793 41.3955L9.85254 46H9.10254V40.3125H10.0713L11.9346 44.9492Z" fill="black"/>
<path d="M22.458 41.6953C23.2902 41.6953 23.8135 42.1104 23.8135 43.2305V46H23.0869V43.2227C23.0869 42.5498 22.7842 42.3047 22.2432 42.3047C21.7829 42.3047 21.4166 42.5776 21.2119 42.9863V46H20.4893V41.7734H21.1729L21.1953 42.3008C21.5002 41.9158 21.9374 41.6953 22.458 41.6953Z" fill="black"/>
<path d="M40.04 41.6953C40.0921 41.6953 40.1521 41.7018 40.2197 41.7148C40.2873 41.7253 40.3343 41.737 40.3604 41.75L40.3564 42.4219C40.2966 42.4089 40.2392 42.4011 40.1846 42.3984C40.1325 42.3932 40.0725 42.3906 40.0049 42.3906C39.8383 42.3906 39.691 42.4167 39.5635 42.4688C39.4359 42.5208 39.3278 42.5938 39.2393 42.6875C39.1568 42.7748 39.0909 42.8782 39.04 42.9971V46H38.3174V41.7734H39.0205L39.0342 42.2588C39.036 42.2558 39.0382 42.253 39.04 42.25C39.1468 42.0756 39.2823 41.9401 39.4463 41.8438C39.6129 41.7448 39.8109 41.6953 40.04 41.6953Z" fill="black"/>
<path fill-rule="evenodd" clip-rule="evenodd" d="M22.8496 34.6953C24.0382 34.6953 24.7793 35.6178 24.7793 36.8438C24.7793 37.9876 24.1263 39.0781 22.8574 39.0781C21.599 39.0781 20.9316 38.0047 20.9316 36.8438C20.9316 35.7301 21.6477 34.6954 22.8496 34.6953ZM22.8496 35.2891C21.9614 35.2891 21.6543 36.1887 21.6543 36.9336C21.6543 37.7711 22.0519 38.4843 22.8574 38.4844C23.7226 38.4844 24.0527 37.5958 24.0527 36.8438C24.0527 36.1113 23.6685 35.2891 22.8496 35.2891Z" fill="black"/>
<path d="M29.7324 34.7734H30.5215V35.3281H29.7324V37.9531C29.7324 38.2396 29.8301 38.375 29.9707 38.4219C30.1547 38.4832 30.3524 38.4528 30.5371 38.4102L30.541 39C30.2109 39.105 29.8129 39.1236 29.4941 38.9727C29.1964 38.8316 29.0098 38.5101 29.0098 37.9492V35.3281H28.2363V34.7734H29.0098V33.7461H29.7324V34.7734Z" fill="black"/>
<path d="M20.3398 33.3125V33.9297H17.5703V35.8711H19.9531V36.4883H17.5703V39H16.8164V33.3125H20.3398Z" fill="black"/>
<path d="M27.4883 34.6953C27.5921 34.6953 27.7563 34.7239 27.8086 34.75L27.8047 35.4219C27.6875 35.3964 27.5917 35.3906 27.4531 35.3906C26.9646 35.3906 26.6483 35.6228 26.4883 35.9971V39H25.7656V34.7734H26.4688L26.4824 35.2588C26.4843 35.2558 26.4864 35.253 26.4883 35.25C26.7038 34.8978 27.0342 34.6953 27.4883 34.6953Z" fill="black"/>
<path d="M32.2344 39H31.5078V34.7734H32.2344V39Z" fill="black"/>
<path d="M31.8789 33.2344C32.157 33.2344 32.3086 33.4199 32.3086 33.6523C32.3086 33.8725 32.1595 34.0585 31.8789 34.0586C31.5974 34.0586 31.4531 33.8761 31.4531 33.6523C31.4531 33.4161 31.5999 33.2344 31.8789 33.2344Z" fill="black"/>
</svg>
