<svg width="50" height="50" viewBox="0 0 50 50" fill="none" xmlns="http://www.w3.org/2000/svg">
<path d="M34.6398 10.8784L33.5114 11.6284C35.1804 13.8514 35.9844 16.7163 35.5114 19.6757C34.5858 25.473 29.1196 29.4392 23.3223 28.5135C20.5115 28.0676 18.0453 26.5541 16.3763 24.25C14.7074 21.946 14.0317 19.1352 14.4777 16.3244C15.3155 11.0946 19.8493 7.35141 24.9912 7.35141C25.2344 7.35141 25.4777 7.36493 25.7209 7.37844L25.6804 9.18249C24.8155 9.12844 23.9709 9.196 23.1534 9.37844C22.9439 9.12168 22.6534 8.93249 22.2952 8.87844C21.5385 8.75682 20.829 9.27033 20.7142 10.0271C20.7007 10.1284 20.6939 10.223 20.7007 10.3176C18.4169 11.6082 16.7142 13.8852 16.2682 16.669C15.498 21.5203 18.8155 26.1014 23.6669 26.8716C24.1398 26.946 24.6061 26.9865 25.0723 26.9865C25.7952 26.9865 26.4979 26.8919 27.1804 26.723C27.2344 26.7365 27.2817 26.7568 27.3358 26.7635C27.8628 26.8446 28.3628 26.6149 28.6601 26.2162C31.329 25.0338 33.3696 22.5676 33.8628 19.473C34.2344 17.1217 33.6736 14.7636 32.275 12.8379C32.2074 12.75 32.1398 12.6622 32.0655 12.5744L30.9236 13.3311C31.0047 13.4325 31.0993 13.5203 31.1804 13.6284C32.3628 15.2636 32.8425 17.2635 32.525 19.2568C32.1466 21.6419 30.6804 23.5811 28.7209 24.6689C28.5182 24.3379 28.1804 24.0879 27.7682 24.027C27.0115 23.9054 26.302 24.4189 26.1871 25.1757C26.1669 25.3041 26.1736 25.4257 26.1871 25.5406C25.4371 25.6554 24.6669 25.6554 23.8763 25.5338C19.7615 24.8784 16.9439 20.9933 17.5993 16.8784C17.9777 14.4865 19.4507 12.5406 21.4236 11.4528C21.5588 11.5271 21.7007 11.5811 21.8561 11.6082C22.525 11.7163 23.1534 11.3244 23.3763 10.7095C23.9236 10.5811 24.4844 10.5136 25.0588 10.5136C25.2547 10.5136 25.4439 10.5203 25.6398 10.5338L25.5993 12.3109C22.6398 12.0406 19.9304 14.1082 19.4574 17.0811C19.2547 18.3379 19.4844 19.5946 20.0858 20.696C19.9574 20.8716 19.8628 21.0676 19.829 21.2973C19.7074 22.0541 20.2209 22.7635 20.9777 22.8784C21.3088 22.9325 21.6331 22.8581 21.9034 22.696C22.5858 23.1554 23.3561 23.4662 24.1939 23.6014C24.4979 23.6487 24.7952 23.6757 25.0925 23.6757C27.8425 23.6757 30.2682 21.6757 30.7142 18.8784C30.9506 17.3784 30.5925 15.8717 29.7006 14.6419C29.6196 14.5338 29.5317 14.4392 29.4439 14.3379L28.3155 15.0879C28.4169 15.2027 28.5182 15.3109 28.606 15.4325C29.2885 16.3717 29.5655 17.5203 29.3831 18.6622C29.0047 21.0271 26.7817 22.6419 24.4101 22.2703C23.7412 22.1622 23.1196 21.9054 22.579 21.5203C22.579 20.8514 22.0993 20.2568 21.4169 20.1487C21.3831 20.1487 21.3561 20.1487 21.329 20.1487C20.8358 19.2906 20.6466 18.2973 20.802 17.2973C21.1398 15.1622 22.9912 13.6352 25.0925 13.6352C25.2547 13.6352 25.4169 13.6555 25.579 13.6757L25.5182 16.1419C25.4574 16.1284 25.4033 16.1081 25.3425 16.0946C24.829 16.0136 24.3155 16.1352 23.8898 16.4392C23.4709 16.7433 23.1939 17.196 23.1128 17.7095C23.0317 18.223 23.1534 18.7365 23.4574 19.1622C23.7615 19.5811 24.2142 19.8581 24.7277 19.9392C24.829 19.9527 24.9371 19.9662 25.0385 19.9662C25.4439 19.9662 25.8425 19.8379 26.1804 19.5946C26.5993 19.2906 26.8763 18.8379 26.9574 18.3244C27.0385 17.8108 26.9169 17.2973 26.6128 16.8717C26.4979 16.7095 26.3493 16.5744 26.1939 16.4595L27.6736 14.4798C27.6736 14.4798 27.6939 14.4933 27.7006 14.5L28.4979 13.4055C28.4979 13.4055 28.4912 13.3987 28.4844 13.3919L29.3628 12.2163L32.1601 8.37844C30.6533 7.25682 28.8696 6.46628 26.8898 6.14871C20.3561 5.11493 14.1871 9.58114 13.1534 16.1149C12.6466 19.2771 13.4101 22.4527 15.2885 25.0473C17.1736 27.6419 19.9507 29.3446 23.1128 29.8514C23.7547 29.9527 24.3898 30 25.025 30C27.5317 30 29.9709 29.2162 32.0452 27.7095C34.6398 25.8311 36.3425 23.0473 36.8493 19.8852C37.3763 16.5811 36.4912 13.3784 34.6398 10.8784V10.8784ZM25.6263 18.1081C25.5993 18.2635 25.5182 18.4054 25.3898 18.5C25.2615 18.5946 25.0993 18.6284 24.9439 18.6081C24.7885 18.5811 24.6466 18.5 24.552 18.3717C24.4574 18.2433 24.4236 18.0879 24.4439 17.9257C24.4709 17.7703 24.552 17.6284 24.6804 17.5338C24.7817 17.4595 24.9033 17.419 25.0317 17.419C25.0655 17.419 25.0925 17.419 25.1263 17.4257C25.2817 17.4527 25.4236 17.5338 25.5182 17.6622C25.6128 17.7906 25.6466 17.9527 25.6263 18.1081Z" fill="#902E2C"/>
<path d="M8.01074 34.6016V41H7.1626V34.6016H8.01074ZM10.6914 37.48V38.1743H7.82617V37.48H10.6914ZM11.1265 34.6016V35.2959H7.82617V34.6016H11.1265Z" fill="#1C1D1F"/>
<path d="M11.7021 38.6753V38.5742C11.7021 38.2314 11.752 37.9136 11.8516 37.6206C11.9512 37.3247 12.0947 37.0684 12.2822 36.8516C12.4697 36.6318 12.6968 36.4619 12.9634 36.3418C13.23 36.2188 13.5288 36.1572 13.8599 36.1572C14.1938 36.1572 14.4941 36.2188 14.7607 36.3418C15.0303 36.4619 15.2588 36.6318 15.4463 36.8516C15.6367 37.0684 15.7817 37.3247 15.8813 37.6206C15.981 37.9136 16.0308 38.2314 16.0308 38.5742V38.6753C16.0308 39.0181 15.981 39.3359 15.8813 39.6289C15.7817 39.9219 15.6367 40.1782 15.4463 40.3979C15.2588 40.6147 15.0317 40.7847 14.7651 40.9077C14.5015 41.0278 14.2026 41.0879 13.8687 41.0879C13.5347 41.0879 13.2344 41.0278 12.9678 40.9077C12.7012 40.7847 12.4727 40.6147 12.2822 40.3979C12.0947 40.1782 11.9512 39.9219 11.8516 39.6289C11.752 39.3359 11.7021 39.0181 11.7021 38.6753ZM12.5151 38.5742V38.6753C12.5151 38.9126 12.543 39.1367 12.5986 39.3477C12.6543 39.5557 12.7378 39.7402 12.8491 39.9014C12.9634 40.0625 13.1055 40.1899 13.2754 40.2837C13.4453 40.3745 13.6431 40.4199 13.8687 40.4199C14.0913 40.4199 14.2861 40.3745 14.4531 40.2837C14.623 40.1899 14.7637 40.0625 14.875 39.9014C14.9863 39.7402 15.0698 39.5557 15.1255 39.3477C15.1841 39.1367 15.2134 38.9126 15.2134 38.6753V38.5742C15.2134 38.3398 15.1841 38.1187 15.1255 37.9106C15.0698 37.6997 14.9849 37.5137 14.8706 37.3525C14.7593 37.1885 14.6187 37.0596 14.4487 36.9658C14.2817 36.8721 14.0854 36.8252 13.8599 36.8252C13.6372 36.8252 13.4409 36.8721 13.271 36.9658C13.104 37.0596 12.9634 37.1885 12.8491 37.3525C12.7378 37.5137 12.6543 37.6997 12.5986 37.9106C12.543 38.1187 12.5151 38.3398 12.5151 38.5742Z" fill="#1C1D1F"/>
<path d="M17.8633 36.9922V41H17.0503V36.2451H17.8413L17.8633 36.9922ZM19.3486 36.2188L19.3442 36.9746C19.2769 36.96 19.2124 36.9512 19.1509 36.9482C19.0923 36.9424 19.0249 36.9395 18.9487 36.9395C18.7612 36.9395 18.5957 36.9688 18.4521 37.0273C18.3086 37.0859 18.187 37.168 18.0874 37.2734C17.9878 37.3789 17.9087 37.5049 17.8501 37.6514C17.7944 37.7949 17.7578 37.9531 17.7402 38.126L17.5117 38.2578C17.5117 37.9707 17.5396 37.7012 17.5952 37.4492C17.6538 37.1973 17.7432 36.9746 17.8633 36.7812C17.9834 36.585 18.1357 36.4326 18.3203 36.3242C18.5078 36.2129 18.7305 36.1572 18.9883 36.1572C19.0469 36.1572 19.1143 36.1646 19.1904 36.1792C19.2666 36.1909 19.3193 36.2041 19.3486 36.2188Z" fill="#1C1D1F"/>
<path d="M22.3105 36.2451V36.8691H19.7397V36.2451H22.3105ZM20.6099 35.0894H21.4229V39.8223C21.4229 39.9834 21.4478 40.105 21.4976 40.187C21.5474 40.269 21.6118 40.3232 21.6909 40.3496C21.77 40.376 21.855 40.3892 21.9458 40.3892C22.0132 40.3892 22.0835 40.3833 22.1567 40.3716C22.2329 40.3569 22.29 40.3452 22.3281 40.3364L22.3325 41C22.2681 41.0205 22.1831 41.0396 22.0776 41.0571C21.9751 41.0776 21.8506 41.0879 21.7041 41.0879C21.5049 41.0879 21.3218 41.0483 21.1548 40.9692C20.9878 40.8901 20.8545 40.7583 20.7549 40.5737C20.6582 40.3862 20.6099 40.1343 20.6099 39.8179V35.0894Z" fill="#1C1D1F"/>
<path d="M24.1475 36.2451V41H23.3301V36.2451H24.1475ZM23.2686 34.9839C23.2686 34.8521 23.3081 34.7407 23.3872 34.6499C23.4692 34.5591 23.5894 34.5137 23.7476 34.5137C23.9028 34.5137 24.0215 34.5591 24.1035 34.6499C24.1885 34.7407 24.231 34.8521 24.231 34.9839C24.231 35.1099 24.1885 35.2183 24.1035 35.3091C24.0215 35.397 23.9028 35.4409 23.7476 35.4409C23.5894 35.4409 23.4692 35.397 23.3872 35.3091C23.3081 35.2183 23.2686 35.1099 23.2686 34.9839Z" fill="#1C1D1F"/>
<path d="M30.3042 37.814V40.1562C30.2251 40.2734 30.0991 40.4053 29.9263 40.5518C29.7534 40.6953 29.5146 40.8213 29.21 40.9297C28.9082 41.0352 28.5186 41.0879 28.041 41.0879C27.6514 41.0879 27.2925 41.0205 26.9644 40.8857C26.6392 40.748 26.3564 40.5488 26.1162 40.2881C25.8789 40.0244 25.6943 39.7051 25.5625 39.3301C25.4336 38.9521 25.3691 38.5244 25.3691 38.0469V37.5503C25.3691 37.0728 25.4248 36.6465 25.5361 36.2715C25.6504 35.8965 25.8174 35.5786 26.0371 35.3179C26.2568 35.0542 26.5264 34.855 26.8457 34.7202C27.165 34.5825 27.5312 34.5137 27.9443 34.5137C28.4336 34.5137 28.8423 34.5986 29.1704 34.7686C29.5015 34.9355 29.7593 35.167 29.9438 35.4629C30.1313 35.7588 30.2515 36.0957 30.3042 36.4736H29.4561C29.418 36.2422 29.3418 36.0312 29.2275 35.8408C29.1162 35.6504 28.9565 35.498 28.7485 35.3838C28.5405 35.2666 28.2725 35.208 27.9443 35.208C27.6484 35.208 27.3921 35.2622 27.1753 35.3706C26.9585 35.479 26.7798 35.6343 26.6392 35.8364C26.4985 36.0386 26.3931 36.2832 26.3228 36.5703C26.2554 36.8574 26.2217 37.1812 26.2217 37.5415V38.0469C26.2217 38.416 26.2642 38.7456 26.3491 39.0356C26.437 39.3257 26.5615 39.5732 26.7227 39.7783C26.8838 39.9805 27.0757 40.1343 27.2983 40.2397C27.5239 40.3452 27.7729 40.3979 28.0454 40.3979C28.3472 40.3979 28.5918 40.373 28.7793 40.3232C28.9668 40.2705 29.1133 40.209 29.2188 40.1387C29.3242 40.0654 29.4048 39.9966 29.4604 39.9321V38.4995H27.9795V37.814H30.3042Z" fill="#1C1D1F"/>
<path d="M34.3911 40.187V37.7393C34.3911 37.5518 34.353 37.3892 34.2769 37.2515C34.2036 37.1108 34.0923 37.0024 33.9429 36.9263C33.7935 36.8501 33.6089 36.812 33.3892 36.812C33.1841 36.812 33.0039 36.8472 32.8486 36.9175C32.6963 36.9878 32.5762 37.0801 32.4883 37.1943C32.4033 37.3086 32.3608 37.4316 32.3608 37.5635H31.5479C31.5479 37.3936 31.5918 37.2251 31.6797 37.0581C31.7676 36.8911 31.8936 36.7402 32.0576 36.6055C32.2246 36.4678 32.4238 36.3594 32.6553 36.2803C32.8896 36.1982 33.1504 36.1572 33.4375 36.1572C33.7832 36.1572 34.0879 36.2158 34.3516 36.333C34.6182 36.4502 34.8262 36.6274 34.9756 36.8647C35.1279 37.0991 35.2041 37.3936 35.2041 37.748V39.9629C35.2041 40.1211 35.2173 40.2896 35.2437 40.4683C35.2729 40.647 35.3154 40.8008 35.3711 40.9297V41H34.5229C34.4819 40.9062 34.4497 40.7817 34.4263 40.6265C34.4028 40.4683 34.3911 40.3218 34.3911 40.187ZM34.5317 38.1172L34.5405 38.6885H33.7188C33.4873 38.6885 33.2808 38.7075 33.0991 38.7456C32.9175 38.7808 32.7651 38.835 32.6421 38.9082C32.519 38.9814 32.4253 39.0737 32.3608 39.1851C32.2964 39.2935 32.2642 39.4209 32.2642 39.5674C32.2642 39.7168 32.2979 39.853 32.3652 39.9761C32.4326 40.0991 32.5337 40.1973 32.6685 40.2705C32.8062 40.3408 32.9746 40.376 33.1738 40.376C33.4229 40.376 33.6426 40.3232 33.833 40.2178C34.0234 40.1123 34.1743 39.9834 34.2856 39.8311C34.3999 39.6787 34.4614 39.5308 34.4702 39.3872L34.8174 39.7783C34.7969 39.9014 34.7412 40.0376 34.6504 40.187C34.5596 40.3364 34.438 40.48 34.2856 40.6177C34.1362 40.7524 33.9575 40.8652 33.7495 40.9561C33.5444 41.0439 33.313 41.0879 33.0552 41.0879C32.7329 41.0879 32.4502 41.0249 32.207 40.8989C31.9668 40.7729 31.7793 40.6045 31.6445 40.3936C31.5127 40.1797 31.4468 39.9409 31.4468 39.6772C31.4468 39.4224 31.4966 39.1982 31.5962 39.0049C31.6958 38.8086 31.8394 38.646 32.0269 38.5171C32.2144 38.3853 32.4399 38.2856 32.7036 38.2183C32.9673 38.1509 33.2617 38.1172 33.5869 38.1172H34.5317Z" fill="#1C1D1F"/>
<path d="M38.4736 36.2451V36.8691H35.9028V36.2451H38.4736ZM36.7729 35.0894H37.5859V39.8223C37.5859 39.9834 37.6108 40.105 37.6606 40.187C37.7104 40.269 37.7749 40.3232 37.854 40.3496C37.9331 40.376 38.0181 40.3892 38.1089 40.3892C38.1763 40.3892 38.2466 40.3833 38.3198 40.3716C38.396 40.3569 38.4531 40.3452 38.4912 40.3364L38.4956 41C38.4312 41.0205 38.3462 41.0396 38.2407 41.0571C38.1382 41.0776 38.0137 41.0879 37.8672 41.0879C37.668 41.0879 37.4849 41.0483 37.3179 40.9692C37.1509 40.8901 37.0176 40.7583 36.918 40.5737C36.8213 40.3862 36.7729 40.1343 36.7729 39.8179V35.0894Z" fill="#1C1D1F"/>
<path d="M41.4004 41.0879C41.0693 41.0879 40.769 41.0322 40.4995 40.9209C40.2329 40.8066 40.0029 40.647 39.8096 40.4419C39.6191 40.2368 39.4727 39.9937 39.3701 39.7124C39.2676 39.4312 39.2163 39.1235 39.2163 38.7896V38.605C39.2163 38.2183 39.2734 37.874 39.3877 37.5723C39.502 37.2676 39.6572 37.0098 39.8535 36.7988C40.0498 36.5879 40.2725 36.4282 40.5215 36.3198C40.7705 36.2114 41.0283 36.1572 41.2949 36.1572C41.6348 36.1572 41.9277 36.2158 42.1738 36.333C42.4229 36.4502 42.6265 36.6143 42.7847 36.8252C42.9429 37.0332 43.0601 37.2793 43.1362 37.5635C43.2124 37.8447 43.2505 38.1523 43.2505 38.4863V38.8511H39.6997V38.1875H42.4375V38.126C42.4258 37.915 42.3818 37.71 42.3057 37.5107C42.2324 37.3115 42.1152 37.1475 41.9541 37.0186C41.793 36.8896 41.5732 36.8252 41.2949 36.8252C41.1104 36.8252 40.9404 36.8647 40.7852 36.9438C40.6299 37.02 40.4966 37.1343 40.3853 37.2866C40.2739 37.439 40.1875 37.625 40.126 37.8447C40.0645 38.0645 40.0337 38.3179 40.0337 38.605V38.7896C40.0337 39.0151 40.0645 39.2275 40.126 39.4268C40.1904 39.623 40.2827 39.7959 40.4028 39.9453C40.5259 40.0947 40.6738 40.2119 40.8467 40.2969C41.0225 40.3818 41.2217 40.4243 41.4443 40.4243C41.7314 40.4243 41.9746 40.3657 42.1738 40.2485C42.373 40.1313 42.5474 39.9746 42.6968 39.7783L43.189 40.1694C43.0864 40.3247 42.9561 40.4727 42.7979 40.6133C42.6396 40.7539 42.4448 40.8682 42.2134 40.9561C41.9849 41.0439 41.7139 41.0879 41.4004 41.0879Z" fill="#1C1D1F"/>
</svg>
