<svg width="50" height="50" viewBox="0 0 50 50" fill="none" xmlns="http://www.w3.org/2000/svg">
<path d="M32.4264 36.9979C33.4792 36.6662 34.2986 35.5419 34.4954 34.1285V33.7199H29.0979V36.9982L32.4264 36.9979ZM34.4962 27.709V27.3394C34.2893 25.8643 33.4091 24.702 32.2868 24.4289H29.0987V27.7087L34.4962 27.709ZM15.5 33.7203V34.1253C15.6955 35.5402 16.5147 36.6664 17.5705 36.9982H20.8815V33.7199L15.5 33.7203ZM17.7086 24.4314C16.5879 24.7046 15.7052 25.8675 15.5 27.3447V27.7117H20.8815V24.432L17.7086 24.4314ZM34.5 29.0765H29.1025V32.3563H34.5V29.0765ZM22.3546 37H27.6347V33.7217H22.3546V37ZM27.6347 24.4286H22.3546V27.7083H27.6347V24.4286ZM15.5046 32.352H20.8861V29.0723H15.5046V32.352Z" fill="#307FE2"/>
<path d="M41.625 29C41.625 31.3316 39.8113 33.2555 37.4676 33.5362C37.1422 33.5752 36.875 33.8273 36.875 34.1429V35.2857C36.875 35.6013 37.1418 35.8596 37.4686 35.8337C41.1259 35.5434 44 32.5947 44 29C44 26.0137 42.0165 23.4733 39.2483 22.5325C39.1475 17.2513 34.6678 13 29.1562 13C25.5407 13 22.3692 14.8294 20.5866 17.5789C20.475 17.574 20.3628 17.5714 20.25 17.5714C17.1436 17.5714 14.5015 19.4847 13.5265 22.1536C13.3936 22.1465 13.2597 22.1429 13.125 22.1429C9.18997 22.1429 6 25.2129 6 29C6 32.5947 8.87412 35.5434 12.5314 35.8337C12.8582 35.8596 13.125 35.6013 13.125 35.2857V34.1429C13.125 33.8273 12.8578 33.5752 12.5324 33.5362C10.1887 33.2555 8.375 31.3316 8.375 29C8.375 26.4753 10.5016 24.4286 13.125 24.4286C13.2158 24.4286 13.3057 24.431 13.3948 24.4358C14.4498 24.4922 15.4166 23.871 15.7671 22.9117C16.4182 21.1294 18.1828 19.8571 20.25 19.8571C20.326 19.8571 20.4014 19.8588 20.4763 19.8622C21.3342 19.9006 22.1469 19.4902 22.6015 18.7889C23.9686 16.6804 26.3941 15.2857 29.1562 15.2857C33.3707 15.2857 36.7966 18.5368 36.8737 22.5744C36.8919 23.5278 37.5231 24.3702 38.4574 24.6877C40.3061 25.316 41.625 27.0127 41.625 29Z" fill="black"/>
</svg>
