<svg width="50" height="50" viewBox="0 0 50 50" fill="none" xmlns="http://www.w3.org/2000/svg">
<path d="M39.8529 31.9956C41.9585 31.3097 43.5972 28.9845 43.9908 26.0611V25.2162H33.1958V31.9963H39.8514L39.8529 31.9956ZM43.9924 12.7846V12.0201C43.5786 8.96944 41.8181 6.5655 39.5737 6.00073H33.1973V12.7838H43.9924V12.7846ZM6 25.2169V26.0545C6.39091 28.9808 8.02931 31.3101 10.141 31.9963H16.763V25.2162H6V25.2169ZM10.4172 6.00585C8.17579 6.57092 6.41044 8.97603 6 12.0311V12.7901H16.763V6.00702H10.4172V6.00585ZM44 15.6128H33.205V22.3959H44V15.6128ZM19.7093 32H30.2693V25.2198H19.7093V32ZM30.2693 6H19.7093V12.7831H30.2693V6ZM6.00916 22.3872H16.7721V15.6041H6.00916V22.3872Z" fill="#EE2E24"/>
<path d="M9.4873 36.3906V43.5H8.54492V36.3906H9.4873ZM12.4658 39.5889V40.3604H9.28223V39.5889H12.4658ZM12.9492 36.3906V37.1621H9.28223V36.3906H12.9492Z" fill="#1C1D1F"/>
<path d="M13.5889 40.917V40.8047C13.5889 40.4238 13.6442 40.0706 13.7549 39.7451C13.8656 39.4163 14.0251 39.1315 14.2334 38.8906C14.4417 38.6465 14.694 38.4577 14.9902 38.3242C15.2865 38.1875 15.6185 38.1191 15.9863 38.1191C16.3574 38.1191 16.6911 38.1875 16.9873 38.3242C17.2868 38.4577 17.5407 38.6465 17.749 38.8906C17.9606 39.1315 18.1217 39.4163 18.2324 39.7451C18.3431 40.0706 18.3984 40.4238 18.3984 40.8047V40.917C18.3984 41.2979 18.3431 41.651 18.2324 41.9766C18.1217 42.3021 17.9606 42.5869 17.749 42.8311C17.5407 43.0719 17.2884 43.2607 16.9922 43.3975C16.6992 43.5309 16.3672 43.5977 15.9961 43.5977C15.625 43.5977 15.2913 43.5309 14.9951 43.3975C14.6989 43.2607 14.445 43.0719 14.2334 42.8311C14.0251 42.5869 13.8656 42.3021 13.7549 41.9766C13.6442 41.651 13.5889 41.2979 13.5889 40.917ZM14.4922 40.8047V40.917C14.4922 41.1807 14.5231 41.4297 14.585 41.6641C14.6468 41.8952 14.7396 42.1003 14.8633 42.2793C14.9902 42.4583 15.1481 42.5999 15.3369 42.7041C15.5257 42.805 15.7454 42.8555 15.9961 42.8555C16.2435 42.8555 16.46 42.805 16.6455 42.7041C16.8343 42.5999 16.9906 42.4583 17.1143 42.2793C17.238 42.1003 17.3307 41.8952 17.3926 41.6641C17.4577 41.4297 17.4902 41.1807 17.4902 40.917V40.8047C17.4902 40.5443 17.4577 40.2985 17.3926 40.0674C17.3307 39.833 17.2363 39.6263 17.1094 39.4473C16.9857 39.265 16.8294 39.1217 16.6406 39.0176C16.4551 38.9134 16.237 38.8613 15.9863 38.8613C15.7389 38.8613 15.5208 38.9134 15.332 39.0176C15.1465 39.1217 14.9902 39.265 14.8633 39.4473C14.7396 39.6263 14.6468 39.833 14.585 40.0674C14.5231 40.2985 14.4922 40.5443 14.4922 40.8047Z" fill="#1C1D1F"/>
<path d="M20.4346 39.0469V43.5H19.5312V38.2168H20.4102L20.4346 39.0469ZM22.085 38.1875L22.0801 39.0273C22.0052 39.0111 21.9336 39.0013 21.8652 38.998C21.8001 38.9915 21.7253 38.9883 21.6406 38.9883C21.4323 38.9883 21.2484 39.0208 21.0889 39.0859C20.9294 39.151 20.7943 39.2422 20.6836 39.3594C20.5729 39.4766 20.485 39.6165 20.4199 39.7793C20.3581 39.9388 20.3174 40.1146 20.2979 40.3066L20.0439 40.4531C20.0439 40.1341 20.0749 39.8346 20.1367 39.5547C20.2018 39.2747 20.3011 39.0273 20.4346 38.8125C20.568 38.5944 20.7373 38.4251 20.9424 38.3047C21.1507 38.181 21.3981 38.1191 21.6846 38.1191C21.7497 38.1191 21.8245 38.1273 21.9092 38.1436C21.9938 38.1566 22.0524 38.1712 22.085 38.1875Z" fill="#1C1D1F"/>
<path d="M25.376 38.2168V38.9102H22.5195V38.2168H25.376ZM23.4863 36.9326H24.3896V42.1914C24.3896 42.3704 24.4173 42.5055 24.4727 42.5967C24.528 42.6878 24.5996 42.748 24.6875 42.7773C24.7754 42.8066 24.8698 42.8213 24.9707 42.8213C25.0456 42.8213 25.1237 42.8148 25.2051 42.8018C25.2897 42.7855 25.3532 42.7725 25.3955 42.7627L25.4004 43.5C25.3288 43.5228 25.2344 43.5439 25.1172 43.5635C25.0033 43.5863 24.8649 43.5977 24.7021 43.5977C24.4808 43.5977 24.2773 43.5537 24.0918 43.4658C23.9062 43.3779 23.7581 43.2314 23.6475 43.0264C23.54 42.818 23.4863 42.5381 23.4863 42.1865V36.9326Z" fill="#1C1D1F"/>
<path d="M27.417 38.2168V43.5H26.5088V38.2168H27.417ZM26.4404 36.8154C26.4404 36.6689 26.4844 36.5452 26.5723 36.4443C26.6634 36.3434 26.7969 36.293 26.9727 36.293C27.1452 36.293 27.277 36.3434 27.3682 36.4443C27.4626 36.5452 27.5098 36.6689 27.5098 36.8154C27.5098 36.9554 27.4626 37.0758 27.3682 37.1768C27.277 37.2744 27.1452 37.3232 26.9727 37.3232C26.7969 37.3232 26.6634 37.2744 26.5723 37.1768C26.4844 37.0758 26.4404 36.9554 26.4404 36.8154Z" fill="#1C1D1F"/>
<path d="M29.7705 39.3447V43.5H28.8672V38.2168H29.7217L29.7705 39.3447ZM29.5557 40.6582L29.1797 40.6436C29.1829 40.2822 29.2367 39.9486 29.3408 39.6426C29.445 39.3333 29.5915 39.0648 29.7803 38.8369C29.9691 38.609 30.1937 38.4333 30.4541 38.3096C30.7178 38.1826 31.0091 38.1191 31.3281 38.1191C31.5885 38.1191 31.8229 38.1549 32.0312 38.2266C32.2396 38.2949 32.417 38.4056 32.5635 38.5586C32.7132 38.7116 32.8271 38.9102 32.9053 39.1543C32.9834 39.3952 33.0225 39.6898 33.0225 40.0381V43.5H32.1143V40.0283C32.1143 39.7516 32.0736 39.5303 31.9922 39.3643C31.9108 39.195 31.792 39.0729 31.6357 38.998C31.4795 38.9199 31.2874 38.8809 31.0596 38.8809C30.835 38.8809 30.6299 38.9281 30.4443 39.0225C30.262 39.1169 30.1042 39.2471 29.9707 39.4131C29.8405 39.5791 29.738 39.7695 29.6631 39.9844C29.5915 40.196 29.5557 40.4206 29.5557 40.6582Z" fill="#1C1D1F"/>
<path d="M36.5869 43.5977C36.2191 43.5977 35.8854 43.5358 35.5859 43.4121C35.2897 43.2852 35.0342 43.1077 34.8193 42.8799C34.6077 42.652 34.445 42.3818 34.3311 42.0693C34.2171 41.7568 34.1602 41.415 34.1602 41.0439V40.8389C34.1602 40.4092 34.2236 40.0267 34.3506 39.6914C34.4775 39.3529 34.6501 39.0664 34.8682 38.832C35.0863 38.5977 35.3337 38.4202 35.6104 38.2998C35.887 38.1794 36.1735 38.1191 36.4697 38.1191C36.8473 38.1191 37.1729 38.1842 37.4463 38.3145C37.723 38.4447 37.9492 38.627 38.125 38.8613C38.3008 39.0924 38.431 39.3659 38.5156 39.6816C38.6003 39.9941 38.6426 40.3359 38.6426 40.707V41.1123H34.6973V40.375H37.7393V40.3066C37.7262 40.0723 37.6774 39.8444 37.5928 39.623C37.5114 39.4017 37.3812 39.2194 37.2021 39.0762C37.0231 38.9329 36.779 38.8613 36.4697 38.8613C36.2646 38.8613 36.0758 38.9053 35.9033 38.9932C35.7308 39.0778 35.5827 39.2048 35.459 39.374C35.3353 39.5433 35.2393 39.75 35.1709 39.9941C35.1025 40.2383 35.0684 40.5199 35.0684 40.8389V41.0439C35.0684 41.2946 35.1025 41.5306 35.1709 41.752C35.2425 41.9701 35.3451 42.1621 35.4785 42.3281C35.6152 42.4941 35.7796 42.6243 35.9717 42.7188C36.167 42.8132 36.3883 42.8604 36.6357 42.8604C36.9548 42.8604 37.2249 42.7952 37.4463 42.665C37.6676 42.5348 37.8613 42.3607 38.0273 42.1426L38.5742 42.5771C38.4603 42.7497 38.3154 42.9141 38.1396 43.0703C37.9639 43.2266 37.7474 43.3535 37.4902 43.4512C37.2363 43.5488 36.9352 43.5977 36.5869 43.5977Z" fill="#1C1D1F"/>
<path d="M41.9092 38.2168V38.9102H39.0527V38.2168H41.9092ZM40.0195 36.9326H40.9229V42.1914C40.9229 42.3704 40.9505 42.5055 41.0059 42.5967C41.0612 42.6878 41.1328 42.748 41.2207 42.7773C41.3086 42.8066 41.403 42.8213 41.5039 42.8213C41.5788 42.8213 41.6569 42.8148 41.7383 42.8018C41.8229 42.7855 41.8864 42.7725 41.9287 42.7627L41.9336 43.5C41.862 43.5228 41.7676 43.5439 41.6504 43.5635C41.5365 43.5863 41.3981 43.5977 41.2354 43.5977C41.014 43.5977 40.8105 43.5537 40.625 43.4658C40.4395 43.3779 40.2913 43.2314 40.1807 43.0264C40.0732 42.818 40.0195 42.5381 40.0195 42.1865V36.9326Z" fill="#1C1D1F"/>
</svg>
