<svg width="50" height="50" viewBox="0 0 50 50" fill="none" xmlns="http://www.w3.org/2000/svg">
<path fill-rule="evenodd" clip-rule="evenodd" d="M24.0395 11.1511C23.9694 11.1764 23.9123 11.2159 23.9123 11.239C23.9123 11.262 23.8722 11.2808 23.8232 11.2808C23.7742 11.2808 23.7027 11.3117 23.6647 11.3495C23.6265 11.3872 23.5806 11.4181 23.5624 11.4181C23.5246 11.4181 23.1149 11.6122 23.0802 11.6466C23.0673 11.6593 22.62 11.8847 22.0862 12.1475C21.5521 12.4105 21.0423 12.6699 20.9535 12.7238C20.8644 12.7779 20.7411 12.8379 20.6796 12.8573C20.6179 12.8767 20.545 12.9104 20.5176 12.9326C20.4903 12.9547 20.1663 13.1201 19.7975 13.3003C19.4288 13.4806 19.1166 13.6436 19.1035 13.6626C19.0906 13.6814 19.023 13.7111 18.9534 13.7285C18.8835 13.7458 18.8265 13.7766 18.8265 13.7972C18.8265 13.8176 18.7642 13.8477 18.6879 13.8644C18.6117 13.881 18.5492 13.9111 18.5492 13.9317C18.5492 13.9521 18.4922 13.9828 18.4226 14.0002C18.3529 14.0175 18.2853 14.0454 18.2722 14.0624C18.2594 14.0791 17.8742 14.2781 17.4165 14.5043C16.9588 14.7305 16.5738 14.9261 16.5611 14.9388C16.5188 14.981 16.1126 15.1674 16.063 15.1674C16.036 15.1674 16.007 15.183 15.9987 15.2022C15.9901 15.2212 15.6608 15.3961 15.2667 15.5906C14.8725 15.7853 14.4667 15.9885 14.365 16.0423C14.1552 16.1529 14.088 16.1877 13.7641 16.3523C13.6368 16.4169 13.5259 16.4854 13.5174 16.5046C13.509 16.5236 13.4769 16.5392 13.4465 16.5392C13.4159 16.5392 13.0482 16.711 12.6295 16.9211C12.2111 17.1312 11.4627 17.5067 10.9668 17.7557C10.471 18.0046 10.0547 18.2219 10.0416 18.2389C10.0288 18.2557 9.96118 18.2837 9.89153 18.3009C9.82189 18.3183 9.7647 18.3492 9.7647 18.3696C9.7647 18.39 9.70241 18.4203 9.62602 18.4368C9.54984 18.4534 9.48734 18.4837 9.48734 18.5041C9.48734 18.5245 9.43036 18.5554 9.36071 18.5726C9.29107 18.5899 9.22347 18.6178 9.2104 18.6348C9.19753 18.6515 8.68755 18.9139 8.07728 19.2175L6.96766 19.7698L6.95541 21.3136C6.94356 22.8275 6.94499 22.858 7.03629 22.8816C7.08755 22.8947 7.12942 22.9228 7.12942 22.944C7.12942 22.965 7.20233 22.9957 7.29117 23.0123C7.38022 23.0288 7.45314 23.0589 7.45314 23.0793C7.45314 23.0997 7.51543 23.1298 7.59181 23.1464C7.66799 23.163 7.73049 23.1939 7.73049 23.2151C7.73049 23.2361 7.79299 23.267 7.86917 23.2836C7.94555 23.3001 8.00784 23.3326 8.00784 23.3559C8.00784 23.3789 8.0444 23.3981 8.08872 23.3983C8.13325 23.3983 8.2321 23.4395 8.30848 23.4894C8.38466 23.5393 8.48352 23.5803 8.52804 23.5805C8.57256 23.5807 8.60892 23.5997 8.60892 23.6229C8.60892 23.6461 8.67141 23.6786 8.7476 23.6952C8.82398 23.7118 8.88627 23.7443 8.88627 23.7673C8.88627 23.7905 8.90833 23.8095 8.93549 23.8095C8.96245 23.8095 9.16118 23.8917 9.37726 23.9923C9.59334 24.0929 9.80024 24.1753 9.8368 24.1753C9.87356 24.1753 9.90358 24.1941 9.90358 24.2173C9.90358 24.2404 9.96587 24.2729 10.0423 24.2895C10.1184 24.306 10.1809 24.3369 10.1809 24.3581C10.1809 24.3793 10.2432 24.4102 10.3196 24.4268C10.3958 24.4434 10.4583 24.4757 10.4583 24.4989C10.4583 24.5221 10.4842 24.5413 10.5161 24.5415C10.548 24.5419 10.6964 24.6038 10.8461 24.6787C11.1192 24.8156 11.2906 24.8522 11.2906 24.7732C11.2906 24.7502 11.3529 24.7177 11.4292 24.7011C11.5054 24.6845 11.5679 24.6542 11.5679 24.6338C11.5679 24.6134 11.6249 24.5825 11.6945 24.5652C11.7642 24.548 11.8318 24.5199 11.8449 24.503C11.8577 24.4862 12.2429 24.2872 12.7006 24.0608C13.1583 23.8346 13.5435 23.6356 13.5564 23.6187C13.5694 23.6019 13.6371 23.574 13.7067 23.5566C13.7763 23.5393 13.8333 23.5084 13.8333 23.488C13.8333 23.4676 13.8958 23.4373 13.972 23.4207C14.0484 23.4041 14.1107 23.374 14.1107 23.3538C14.1107 23.3336 14.1523 23.3064 14.2032 23.2932C14.4007 23.2421 14.2434 23.0325 13.9538 22.9606C13.8874 22.9442 13.8333 22.9125 13.8333 22.8901C13.8333 22.8677 13.8096 22.8493 13.7804 22.8493C13.7512 22.8493 13.576 22.7772 13.3909 22.6891C13.2059 22.6012 13.0321 22.5291 13.0047 22.5291C12.9774 22.5291 12.9549 22.5085 12.9549 22.4835C12.9549 22.4582 12.9324 22.4376 12.9051 22.4376C12.8583 22.4376 12.7025 22.3681 11.776 21.9341C11.1272 21.6301 10.8817 21.5232 10.831 21.5232C10.8041 21.5232 10.782 21.5042 10.782 21.4812C10.782 21.458 10.7195 21.4255 10.6431 21.4089C10.5669 21.3923 10.5044 21.3614 10.5044 21.34C10.5044 21.3188 10.4681 21.2932 10.4236 21.2831C10.3641 21.2697 10.3886 21.2425 10.5161 21.1798C10.6115 21.133 10.6895 21.078 10.6895 21.0574C10.6895 21.037 10.7136 21.0203 10.743 21.0203C10.8014 21.0203 11.4842 20.6949 11.5218 20.6492C11.5344 20.6337 11.5967 20.6052 11.6604 20.5858C11.724 20.5664 11.7864 20.5377 11.7991 20.522C11.8118 20.5064 11.9366 20.4432 12.0765 20.3818C12.2164 20.3204 12.362 20.246 12.4002 20.2164C12.4382 20.1867 12.5215 20.1469 12.585 20.1279C12.6485 20.1089 12.711 20.0808 12.7237 20.0653C12.7601 20.021 13.1671 19.8314 13.2259 19.8314C13.2549 19.8314 13.2786 19.813 13.2786 19.7906C13.2786 19.7681 13.3356 19.7356 13.4052 19.7185C13.4749 19.7011 13.5425 19.6726 13.5556 19.655C13.5684 19.6373 13.7455 19.5413 13.9489 19.4413C14.1523 19.3415 14.3257 19.2444 14.3343 19.2256C14.3427 19.2066 14.3723 19.1913 14.4001 19.1913C14.4689 19.1913 15.2397 18.8121 15.2589 18.7689C15.2673 18.7497 15.3049 18.734 15.3422 18.734C15.4033 18.734 15.7638 18.5621 15.8214 18.5053C15.834 18.4928 16.0734 18.3694 16.353 18.231C16.6328 18.0926 16.8687 17.9642 16.8771 17.9452C16.8857 17.9264 16.9145 17.9109 16.9412 17.9109C17.0149 17.9109 18.0615 17.4 18.0792 17.3554C18.0876 17.334 18.1329 17.3166 18.1799 17.3166C18.2269 17.3166 18.2953 17.2867 18.3323 17.2502C18.3692 17.2138 18.4538 17.1704 18.5206 17.1538C18.5872 17.1372 18.6417 17.1069 18.6417 17.0865C18.6417 17.0661 18.704 17.0358 18.7804 17.0193C18.8568 17.0027 18.9191 16.9724 18.9191 16.952C18.9191 16.9316 18.9711 16.9019 19.0347 16.8862C19.0982 16.8704 19.1503 16.8373 19.1503 16.8126C19.1503 16.788 19.1819 16.7678 19.2209 16.7678C19.2924 16.7678 20.3093 16.2679 20.3528 16.2113C20.3657 16.1946 20.4335 16.1665 20.5031 16.1493C20.5728 16.1319 20.6298 16.101 20.6298 16.0806C20.6298 16.0602 20.6922 16.0299 20.7684 16.0134C20.8448 15.9968 20.9071 15.9659 20.9071 15.9447C20.9071 15.9237 20.9696 15.8928 21.0458 15.8762C21.1222 15.8597 21.1845 15.8288 21.1845 15.8075C21.1845 15.7865 21.247 15.7556 21.3231 15.7391C21.3995 15.7225 21.462 15.6916 21.462 15.6704C21.462 15.6494 21.5243 15.6185 21.6007 15.6019C21.6769 15.5854 21.7394 15.5528 21.7394 15.5296C21.7394 15.5066 21.7653 15.4874 21.7972 15.4872C21.8288 15.4872 21.9173 15.4541 21.9937 15.4139C22.0698 15.3737 22.4236 15.1937 22.7796 15.0141C23.1355 14.8344 23.4337 14.672 23.4423 14.653C23.4507 14.6342 23.4866 14.6188 23.522 14.6188C23.6024 14.6188 24.2074 14.3001 24.2282 14.2466C24.2472 14.1983 24.4206 14.1939 24.4218 14.2415C24.4224 14.2603 24.5364 14.3274 24.6751 14.3902C24.814 14.453 24.9279 14.5183 24.9286 14.5352C24.929 14.552 24.9919 14.5793 25.0683 14.5958C25.1444 14.6126 25.2069 14.6433 25.2069 14.6645C25.2069 14.6857 25.2692 14.7166 25.3456 14.7332C25.4218 14.7497 25.4843 14.7804 25.4843 14.8016C25.4843 14.8229 25.5468 14.8538 25.623 14.8703C25.6993 14.8869 25.7616 14.9172 25.7616 14.9376C25.7616 14.958 25.8186 14.9889 25.8883 15.0061C25.9581 15.0234 26.0257 15.0515 26.0386 15.0685C26.0517 15.0854 26.2494 15.1917 26.4783 15.3048C26.7073 15.4179 26.905 15.5242 26.918 15.5411C26.9309 15.5579 26.9985 15.586 27.0684 15.6031C27.138 15.6205 27.195 15.6514 27.195 15.6718C27.195 15.6922 27.2573 15.7225 27.3337 15.7391C27.4098 15.7556 27.4723 15.7859 27.4723 15.8063C27.4723 15.8267 27.5293 15.8576 27.599 15.8748C27.6686 15.8922 27.7362 15.9201 27.7493 15.937C27.7709 15.9651 28.0322 16.1045 28.5887 16.3852C28.7067 16.4448 28.8264 16.4935 28.8544 16.4935C28.8826 16.4935 28.9057 16.5141 28.9057 16.5392C28.9057 16.5644 28.9447 16.585 28.9925 16.585C29.0401 16.585 29.104 16.6145 29.1342 16.6506C29.1646 16.6866 29.2504 16.7294 29.325 16.7456C29.3993 16.7619 29.4604 16.79 29.4604 16.8084C29.4604 16.8268 29.5746 16.892 29.7143 16.9534C29.8537 17.0148 29.9683 17.0789 29.9685 17.0956C29.9687 17.1126 30.0314 17.1399 30.1076 17.1564C30.184 17.173 30.2463 17.2039 30.2463 17.2251C30.2463 17.2463 30.3088 17.277 30.385 17.2936C30.4614 17.3101 30.5239 17.341 30.5239 17.3623C30.5239 17.3835 30.5861 17.4144 30.6625 17.4309C30.7387 17.4475 30.8012 17.4782 30.8012 17.4994C30.8012 17.5206 30.8635 17.5515 30.9399 17.5681C31.0161 17.5846 31.0786 17.6123 31.0786 17.6295C31.0786 17.6467 31.1797 17.7083 31.3032 17.7662L31.5281 17.8719L31.5555 18.1771C31.5841 18.4944 31.6327 18.6722 31.7785 18.9905C31.8259 19.0939 31.8645 19.2018 31.8645 19.2304C31.8645 19.2591 31.8853 19.2828 31.9108 19.2828C31.9362 19.2828 31.957 19.3066 31.957 19.3361C31.957 19.4001 32.0007 19.452 32.3561 19.812C32.6467 20.1063 33.1234 20.4125 33.3624 20.4583C33.4412 20.4735 33.5184 20.5048 33.5337 20.5276C33.6109 20.6434 35.0641 20.6399 35.2105 20.5236C35.2391 20.5008 35.3328 20.4672 35.4186 20.449C35.936 20.3396 36.6508 19.677 36.9484 19.0313C37.0064 18.9054 37.0711 18.7685 37.0921 18.7269C37.2416 18.4322 37.2402 17.0082 37.0905 16.9589C37.0642 16.9502 37.0427 16.9043 37.0427 16.8569C37.0427 16.7613 36.872 16.4133 36.7786 16.3188C36.746 16.2855 36.719 16.2406 36.719 16.2188C36.719 16.1047 35.9208 15.3961 35.7924 15.3961C35.7681 15.3961 35.7483 15.3755 35.7483 15.3504C35.7483 15.3252 35.7254 15.3046 35.6974 15.3046C35.6694 15.3046 35.581 15.2745 35.5009 15.2377C35.1547 15.0786 33.8064 14.9428 33.8064 15.0673C33.8064 15.0903 33.7179 15.1214 33.6099 15.1361C33.4381 15.1594 33.2547 15.2248 33.0237 15.3448C32.9661 15.3747 32.5425 15.202 32.3963 15.0889C32.3708 15.0693 32.0483 14.9028 31.6796 14.719C31.311 14.5352 30.8948 14.3243 30.7549 14.2504C30.6152 14.1763 30.4746 14.1159 30.4428 14.1159C30.4111 14.1159 30.385 14.0975 30.385 14.0751C30.385 14.0527 30.328 14.0201 30.2583 14.0028C30.1887 13.9856 30.1211 13.9575 30.1082 13.9408C30.0952 13.9238 29.839 13.7879 29.5388 13.6388C29.2388 13.4897 28.9827 13.3508 28.9698 13.3302C28.9569 13.3096 28.9085 13.2928 28.8624 13.2928C28.816 13.2928 28.7535 13.2633 28.7231 13.2271C28.6929 13.191 28.6071 13.1482 28.5325 13.132C28.458 13.1158 28.3969 13.0853 28.3969 13.0641C28.3969 13.0429 28.3346 13.012 28.2582 12.9955C28.1821 12.9789 28.1196 12.9482 28.1196 12.927C28.1196 12.9058 28.0573 12.8749 27.9809 12.8583C27.9047 12.8417 27.8422 12.8114 27.8422 12.791C27.8422 12.7706 27.7852 12.7397 27.7156 12.7226C27.6459 12.7052 27.5783 12.6773 27.5653 12.6604C27.5342 12.62 27.1619 12.4257 26.1779 11.9362C25.7328 11.7151 25.3581 11.5197 25.3452 11.5026C25.3321 11.4852 25.2645 11.4569 25.1949 11.4395C25.1252 11.4224 25.0683 11.3915 25.0683 11.3711C25.0683 11.3507 25.0058 11.3204 24.9296 11.3038C24.8532 11.2872 24.7907 11.2588 24.7907 11.2408C24.7907 11.1271 24.276 11.0657 24.0395 11.1511ZM35.082 16.5165C35.9748 16.9334 36.1765 18.1541 35.4707 18.8669C34.7371 19.6078 33.5184 19.4211 33.0644 18.4982C33.0107 18.389 32.9475 18.2639 32.9243 18.2203C32.8695 18.1183 32.8685 17.4538 32.9228 17.4538C32.9455 17.4538 32.9776 17.4006 32.9941 17.3356C33.1918 16.5569 34.2661 16.1354 35.082 16.5165ZM37.8392 18.151C37.8086 18.2579 37.7637 18.4584 37.7398 18.5968C37.6373 19.1882 37.1965 19.9919 36.8464 20.2265C36.7104 20.3176 36.6741 20.4715 36.7884 20.4715C36.8266 20.4715 36.8579 20.4898 36.8579 20.5123C36.8579 20.5347 36.9149 20.5672 36.9845 20.5846C37.0542 20.6018 37.1218 20.6302 37.1348 20.6478C37.1477 20.6652 37.3366 20.7676 37.5543 20.875C37.7723 20.9827 38.0292 21.1178 38.1254 21.1752L38.3006 21.2796L38.1385 21.3558C38.0494 21.3976 37.9536 21.4317 37.9258 21.4317C37.8979 21.4317 37.875 21.4523 37.875 21.4776C37.875 21.5026 37.8527 21.5232 37.8258 21.5232C37.7633 21.5232 37.0911 21.828 35.9507 22.3732C35.7186 22.4841 35.5054 22.5748 35.4768 22.5748C35.448 22.5748 35.4245 22.5954 35.4245 22.6206C35.4245 22.6457 35.4021 22.6663 35.3747 22.6663C35.3281 22.6663 35.108 22.7644 34.2861 23.1515C34.105 23.2367 33.9334 23.3064 33.9048 23.3064C33.876 23.3064 33.8525 23.3254 33.8525 23.3486C33.8525 23.3716 33.7902 23.4041 33.7138 23.4207C33.6377 23.4373 33.5752 23.4698 33.5752 23.493C33.5752 23.5162 33.5439 23.535 33.5057 23.535C33.4675 23.535 33.3585 23.5762 33.2637 23.6265C33.1687 23.6768 33.0648 23.718 33.0327 23.718C33.0004 23.718 32.9741 23.737 32.9741 23.76C32.9741 23.7833 32.9118 23.8158 32.8354 23.8324C32.7592 23.8489 32.6967 23.8798 32.6967 23.9008C32.6967 23.922 32.6342 23.9529 32.5581 23.9695C32.4817 23.9861 32.4194 24.0186 32.4194 24.0416C32.4194 24.0648 32.3973 24.0838 32.3706 24.0838C32.3438 24.0838 32.2241 24.1273 32.1047 24.1802C31.7656 24.3309 31.0422 24.6664 30.6813 24.8403C30.501 24.9271 30.3294 24.9982 30.3 24.9982C30.2704 24.9982 30.2463 25.0188 30.2463 25.0441C30.2463 25.0691 30.2202 25.0897 30.1879 25.0897C30.1558 25.0897 30.0519 25.1309 29.9569 25.1812C29.8619 25.2315 29.7531 25.2725 29.7149 25.2725C29.6767 25.2725 29.6454 25.2931 29.6454 25.3184C29.6454 25.3434 29.6242 25.364 29.5982 25.364C29.5723 25.364 29.3383 25.4644 29.0781 25.5868C28.0485 26.0718 27.8939 26.1415 27.8459 26.1415C27.8183 26.1415 27.7961 26.1603 27.7961 26.1835C27.7961 26.2067 27.7336 26.2391 27.6574 26.2556C27.581 26.2722 27.5185 26.3047 27.5185 26.3279C27.5185 26.3512 27.4942 26.3699 27.4644 26.3699C27.4348 26.3699 27.2838 26.4295 27.1292 26.5024C26.9746 26.5754 26.6609 26.7214 26.4322 26.8272C25.8392 27.1009 25.1969 27.4025 24.766 27.6093C24.3218 27.8222 24.371 27.8196 24.0279 27.6503C23.8753 27.575 23.7246 27.5134 23.6927 27.5134C23.6608 27.5132 23.6349 27.4942 23.6349 27.471C23.6349 27.448 23.5726 27.4154 23.4962 27.3989C23.4198 27.3823 23.3576 27.3498 23.3576 27.3266C23.3576 27.3035 23.3332 27.2845 23.3034 27.2845C23.2736 27.2845 23.1227 27.225 22.9683 27.152C22.8137 27.0791 22.5 26.9331 22.271 26.8272C22.0423 26.7214 21.7285 26.5754 21.5739 26.5024C21.4193 26.4295 21.2684 26.3699 21.2386 26.3699C21.209 26.3699 21.1845 26.3495 21.1845 26.3243C21.1845 26.299 21.1624 26.2786 21.1356 26.2786C21.1087 26.2786 20.9161 26.1985 20.708 26.1005C20.4997 26.0027 20.084 25.8072 19.7842 25.6662C19.4846 25.5252 19.2205 25.4099 19.1974 25.4099C19.1411 25.4099 17.7002 26.1411 17.6708 26.1845C17.6581 26.2033 17.5905 26.2326 17.5204 26.2496C17.4506 26.2665 17.3934 26.3005 17.3934 26.3251C17.3934 26.3497 17.3697 26.3699 17.3407 26.3699C17.2792 26.3699 16.8728 26.5612 16.8381 26.6065C16.8252 26.6232 16.7584 26.6511 16.6898 26.6681C16.6212 26.685 16.5407 26.7279 16.5111 26.7632C16.4815 26.7984 16.4235 26.8274 16.3822 26.8274C16.3408 26.8276 16.2466 26.8755 16.1729 26.9337L16.0389 27.0397L16.1445 27.1369C16.2025 27.1904 16.3097 27.2472 16.3824 27.2629C16.4553 27.2789 16.515 27.3108 16.515 27.3338C16.515 27.3571 16.5391 27.376 16.5685 27.376C16.5979 27.376 16.7697 27.4463 16.95 27.5324C17.4875 27.7889 17.6969 27.879 17.7547 27.879C17.7849 27.879 17.8094 27.8996 17.8094 27.9246C17.8094 27.9499 17.8356 27.9705 17.8672 27.9707C17.8991 27.9707 18.0668 28.0428 18.24 28.1307C18.4132 28.2185 18.5847 28.2904 18.6213 28.2904C18.658 28.2904 18.6879 28.3094 18.6879 28.3325C18.6879 28.3557 18.7504 28.3882 18.8265 28.4048C18.9029 28.4213 18.9654 28.4539 18.9654 28.4769C18.9654 28.5001 18.9895 28.5191 19.0189 28.5191C19.0483 28.5191 19.2199 28.5894 19.4002 28.6754C19.938 28.932 20.1473 29.0221 20.2051 29.0221C20.2352 29.0221 20.2599 29.041 20.2599 29.0641C20.2599 29.0873 20.3224 29.1198 20.3986 29.1364C20.4749 29.1529 20.5372 29.1838 20.5372 29.2049C20.5372 29.2261 20.5997 29.257 20.6759 29.2735C20.7523 29.2901 20.8146 29.3226 20.8146 29.3458C20.8146 29.3689 20.8407 29.3885 20.8724 29.3895C20.9042 29.3903 21.0135 29.4307 21.1152 29.4794C21.2169 29.5278 21.3244 29.5684 21.354 29.5692C21.3838 29.57 21.4148 29.5862 21.4234 29.605C21.4398 29.6416 21.5705 29.7076 22.0862 29.9397C22.2641 30.0197 22.6427 30.1958 22.9274 30.3309C23.2123 30.4661 23.4774 30.5768 23.5171 30.5768C23.5565 30.5768 23.5888 30.5933 23.5888 30.6139C23.5888 30.6521 24.0158 30.8511 24.0977 30.8511C24.1228 30.8511 24.1435 30.8694 24.1435 30.8919C24.1435 30.9706 24.3775 30.9916 24.5039 30.9242C24.5728 30.8874 24.7329 30.8097 24.8601 30.7513C24.9874 30.6931 25.1017 30.6331 25.1144 30.618C25.1271 30.603 25.1947 30.577 25.2647 30.56C25.3346 30.543 25.3918 30.5099 25.3918 30.4865C25.3918 30.4628 25.4647 30.4301 25.5537 30.4136C25.6426 30.3972 25.7155 30.3653 25.7155 30.3431C25.7155 30.3206 25.7351 30.3023 25.759 30.3023C25.7829 30.3023 25.9794 30.22 26.1954 30.1195C26.4115 30.0189 26.6102 29.9365 26.6372 29.9365C26.6644 29.9365 26.6864 29.9161 26.6864 29.8908C26.6864 29.8658 26.7148 29.8452 26.7495 29.8452C26.7845 29.8452 26.955 29.773 27.1288 29.685C27.3026 29.5971 27.4717 29.525 27.5048 29.525C27.5379 29.525 27.5649 29.506 27.5649 29.483C27.5649 29.4598 27.6271 29.4272 27.7035 29.4107C27.7797 29.3941 27.8422 29.3616 27.8422 29.3386C27.8422 29.3153 27.8665 29.2964 27.8963 29.2964C27.9262 29.2964 28.0769 29.2368 28.2315 29.1638C28.3861 29.0911 28.6998 28.9449 28.9288 28.8391C29.1575 28.7334 29.4712 28.5872 29.6258 28.5143C29.7804 28.4415 29.9314 28.382 29.961 28.382C29.9908 28.382 30.0151 28.363 30.0151 28.3397C30.0151 28.3167 30.0776 28.2842 30.154 28.2676C30.2302 28.2511 30.2927 28.2185 30.2927 28.1953C30.2927 28.1723 30.3163 28.1533 30.3453 28.1533C30.4156 28.1533 30.8202 27.9568 30.8396 27.9131C30.8482 27.8944 30.8833 27.879 30.9178 27.879C30.9699 27.879 31.6161 27.6023 31.8645 27.4738C32.3066 27.2448 32.623 27.1015 32.6863 27.1015C32.7133 27.1015 32.7423 27.0862 32.7507 27.0674C32.7703 27.0238 33.1749 26.8272 33.2451 26.8272C33.2741 26.8272 33.2978 26.8076 33.2978 26.7836C33.2978 26.7596 33.3705 26.7264 33.4596 26.7099C33.5486 26.6933 33.6215 26.6616 33.6215 26.6392C33.6215 26.617 33.6477 26.5986 33.6797 26.5986C33.7118 26.5986 33.9042 26.5168 34.1074 26.4168C34.3106 26.317 34.5028 26.2346 34.5345 26.234C34.5663 26.2334 34.5923 26.2122 34.5923 26.1871C34.5923 26.1619 34.6325 26.1415 34.6815 26.1415C34.7305 26.1415 34.8018 26.1106 34.84 26.0728C34.8782 26.035 34.9264 26.0035 34.9474 26.0027C34.9683 26.0017 35.0686 25.9613 35.1703 25.9128C35.272 25.8642 35.3812 25.8238 35.4129 25.823C35.4448 25.8219 35.4707 25.8024 35.4707 25.7793C35.4707 25.7561 35.5332 25.7236 35.6096 25.707C35.6858 25.6904 35.7483 25.6579 35.7483 25.6347C35.7483 25.6117 35.7726 25.5927 35.8024 25.5927C35.8322 25.5927 35.9829 25.5331 36.1375 25.4602C37.044 25.033 37.2235 24.9526 37.2694 24.9526C37.2972 24.9526 37.3201 24.9336 37.3201 24.9104C37.3201 24.8873 37.3826 24.8548 37.4588 24.8383C37.5351 24.8217 37.5976 24.7892 37.5976 24.7659C37.5976 24.7429 37.6289 24.7239 37.6671 24.7239C37.7053 24.7239 37.8141 24.6827 37.9091 24.6324C38.0041 24.5821 38.108 24.5409 38.1401 24.5409C38.1724 24.5409 38.1985 24.5205 38.1985 24.4953C38.1985 24.4702 38.2224 24.4496 38.2514 24.4496C38.3215 24.4496 38.7261 24.2531 38.7457 24.2095C38.7542 24.1907 38.7926 24.1753 38.831 24.1753C38.8947 24.1753 39.4962 23.9091 39.84 23.7289C39.9161 23.6889 40.0099 23.6413 40.0479 23.6231C40.6463 23.3383 40.8223 23.2607 40.8699 23.2607C40.901 23.2607 40.9263 23.2417 40.9263 23.2187C40.9263 23.1955 40.9888 23.163 41.065 23.1464C41.1414 23.1298 41.2039 23.0983 41.2039 23.0763C41.2039 23.0543 41.2766 23.0228 41.3656 23.0062C41.4547 22.9897 41.5274 22.9579 41.5274 22.9355C41.5274 22.9133 41.5586 22.8949 41.5968 22.8949C41.6571 22.8949 41.666 22.6921 41.666 21.3449V19.7946L41.51 19.7035C41.4242 19.6534 41.3046 19.5973 41.2441 19.5787C41.1838 19.5599 41.124 19.5304 41.1113 19.5128C41.0987 19.4953 40.8385 19.3603 40.5334 19.2131C40.2282 19.0658 39.9717 18.9287 39.9631 18.9083C39.9547 18.8879 39.9257 18.8711 39.899 18.8711C39.8465 18.8711 39.4393 18.6825 39.4007 18.6402C39.3504 18.5853 38.0296 17.9567 37.9646 17.9567C37.9224 17.9567 37.8731 18.0331 37.8392 18.151Z" fill="#0484D4"/>
<path fill-rule="evenodd" clip-rule="evenodd" d="M24.1432 18.9885C24.105 19.0042 24.0636 19.0295 24.0507 19.0444C24.0158 19.0862 23.6081 19.2777 23.5544 19.2777C23.5285 19.2777 23.4815 19.3084 23.4498 19.3462C23.4182 19.384 23.3559 19.4149 23.3116 19.4149C23.2672 19.4149 23.1782 19.4561 23.1134 19.5064C23.0489 19.5567 22.9627 19.5977 22.9223 19.5977C22.8818 19.5977 22.8488 19.6183 22.8488 19.6435C22.8488 19.6686 22.8189 19.6892 22.7826 19.6892C22.7464 19.6892 22.6888 19.7166 22.6551 19.75C22.6212 19.7835 22.5365 19.8251 22.4668 19.8423C22.3972 19.8597 22.3402 19.894 22.3402 19.9186C22.3402 19.9433 22.3165 19.9635 22.2875 19.9635C22.2352 19.9635 21.8298 20.1481 21.7853 20.1921C21.7389 20.238 20.9642 20.6036 20.9132 20.6036C20.8842 20.6036 20.8607 20.622 20.8607 20.6444C20.8607 20.6668 20.8037 20.6993 20.7341 20.7167C20.6642 20.7339 20.5966 20.7619 20.5838 20.7789C20.5505 20.8219 20.1438 21.0152 20.086 21.0152C20.0599 21.0152 20.0264 21.0461 20.0117 21.0837C19.9972 21.1215 19.9565 21.1524 19.9214 21.1524C19.8277 21.1524 19.566 21.2895 19.566 21.3386C19.566 21.3618 19.5297 21.381 19.4852 21.3812C19.4406 21.3814 19.3418 21.4224 19.2656 21.4725C19.1892 21.5224 19.0922 21.5634 19.0499 21.5636C19.0074 21.5638 18.9658 21.58 18.9574 21.5996C18.9488 21.6194 18.6923 21.7563 18.3872 21.9042C18.082 22.0518 17.8218 22.1874 17.8092 22.2051C17.7965 22.2229 17.734 22.2532 17.6705 22.2726C17.607 22.292 17.5445 22.3205 17.5318 22.336C17.4955 22.3803 17.0884 22.5697 17.0298 22.5697C17.0008 22.5697 16.9769 22.5887 16.9769 22.612C16.9769 22.635 16.9146 22.6675 16.8382 22.6841C16.7621 22.7006 16.6996 22.7287 16.6996 22.7463C16.6996 22.7641 16.5643 22.8382 16.3991 22.9111C16.2339 22.984 16.0985 23.0604 16.0985 23.081C16.0985 23.1016 16.0585 23.1185 16.0094 23.1185C15.9604 23.1185 15.8889 23.1494 15.8509 23.187C15.8128 23.2248 15.7668 23.2557 15.7486 23.2557C15.7045 23.2557 15.2956 23.454 15.2664 23.4896C15.2536 23.5051 15.1913 23.5336 15.1277 23.5528C15.064 23.5722 15.0017 23.6007 14.9889 23.6162C14.9539 23.6589 14.5465 23.8501 14.4907 23.8501C14.4638 23.8501 14.435 23.8675 14.4264 23.8885C14.418 23.9097 14.099 24.0776 13.7175 24.2616C13.3362 24.4456 13.0171 24.6135 13.0086 24.6347C13.0002 24.6559 12.9585 24.6737 12.916 24.6743C12.8738 24.6747 12.787 24.7155 12.7235 24.7645C12.6599 24.8138 12.5742 24.8544 12.5327 24.855C12.4912 24.8556 12.4316 24.887 12.3999 24.9247C12.3683 24.9623 12.3135 24.9932 12.2786 24.9932C12.2435 24.9932 12.2149 25.0122 12.2149 25.0354C12.2149 25.0584 12.1526 25.091 12.0762 25.1075C12 25.1241 11.9375 25.155 11.9375 25.1762C11.9375 25.1972 11.875 25.2281 11.7989 25.2447C11.7225 25.2612 11.6602 25.2938 11.6602 25.317C11.6602 25.34 11.633 25.359 11.5997 25.359C11.5666 25.359 11.3326 25.4644 11.0795 25.5933C10.8267 25.7222 10.4742 25.9009 10.2963 25.9906C10.1182 26.0803 9.96215 26.1674 9.94949 26.1837C9.93683 26.2003 9.86657 26.2282 9.79366 26.2459C9.72054 26.2635 9.63068 26.3079 9.59391 26.3443C9.55695 26.3809 9.48832 26.4108 9.44135 26.4108C9.39458 26.4108 9.34924 26.4261 9.34066 26.4451C9.33228 26.4639 9.20055 26.541 9.04799 26.6164C8.89542 26.6919 8.75981 26.7675 8.74694 26.7842C8.73387 26.8012 8.66627 26.8291 8.59662 26.8464C8.52698 26.8636 8.46999 26.8945 8.46999 26.9149C8.46999 26.9355 8.4075 26.9656 8.33132 26.9822C8.25493 26.9987 8.19264 27.0296 8.19264 27.0509C8.19264 27.0721 8.13014 27.1028 8.05396 27.1195C7.97758 27.1361 7.91528 27.1668 7.91528 27.188C7.91528 27.2092 7.85279 27.2401 7.7764 27.2567C7.70022 27.2732 7.63772 27.3039 7.63772 27.3252C7.63772 27.3464 7.57543 27.3773 7.49905 27.3938C7.42287 27.4104 7.36016 27.4377 7.35996 27.4546C7.35976 27.4714 7.26601 27.5259 7.15184 27.5754L6.94434 27.6657V30.7986L7.05993 30.8272C7.12345 30.843 7.17553 30.8727 7.17553 30.8931C7.17553 30.9135 7.24314 30.9446 7.32565 30.9624C7.40837 30.9801 7.48638 31.0074 7.49905 31.0232C7.51171 31.0389 7.59504 31.0862 7.68408 31.1284C7.77293 31.1704 8.02333 31.2888 8.24043 31.3912C8.45754 31.4938 8.66177 31.5776 8.69445 31.5776C8.72733 31.5776 8.78513 31.6085 8.82332 31.6461C8.86152 31.6839 8.9328 31.7148 8.98181 31.7148C9.03083 31.7148 9.07107 31.7338 9.07107 31.7568C9.07107 31.78 9.13336 31.8125 9.20974 31.8291C9.28592 31.8457 9.34842 31.8766 9.34842 31.8976C9.34842 31.9188 9.41092 31.9497 9.4871 31.9662C9.56348 31.9828 9.62578 32.0143 9.62578 32.0363C9.62578 32.0584 9.69869 32.0899 9.78774 32.1064C9.87658 32.123 9.94949 32.1509 9.94949 32.1684C9.94949 32.202 10.3817 32.4007 10.4546 32.4007C10.4777 32.4007 10.504 32.4225 10.513 32.4494C10.522 32.4761 10.6147 32.5094 10.7189 32.5231L10.9086 32.5482L10.9415 32.2002C10.9597 32.0087 10.9909 31.8519 11.0107 31.8519C11.0307 31.8519 11.0581 31.755 11.0716 31.6362C11.0853 31.5176 11.1183 31.4132 11.1455 31.4043C11.1727 31.3954 11.2082 31.3175 11.2245 31.2314C11.2409 31.1452 11.2689 31.0747 11.2864 31.0747C11.3042 31.0747 11.3534 30.9967 11.3959 30.9014C11.4386 30.806 11.5154 30.6834 11.5666 30.6289C11.6181 30.5743 11.6602 30.515 11.6602 30.4968C11.6602 30.4786 11.7537 30.3774 11.8681 30.2722C12.102 30.0569 12.1373 29.9314 11.9645 29.9314C11.903 29.9314 11.8458 29.9157 11.8373 29.8965C11.8215 29.8607 11.4298 29.6642 10.7477 29.3493C10.3772 29.1784 10.3692 29.1713 10.4591 29.0952C10.5099 29.0522 10.5722 29.017 10.5975 29.017C10.6519 29.017 11.6726 28.505 11.7068 28.4605C11.7198 28.4436 11.7874 28.4157 11.8571 28.3983C11.9267 28.3812 11.9837 28.3502 11.9837 28.3298C11.9837 28.3094 12.0462 28.2791 12.1224 28.2626C12.1988 28.246 12.2613 28.2151 12.2613 28.1939C12.2613 28.1729 12.3236 28.142 12.3999 28.1254C12.4761 28.1089 12.5386 28.078 12.5386 28.0568C12.5386 28.0356 12.6009 28.0048 12.6773 27.9883C12.7535 27.9717 12.816 27.9408 12.816 27.9196C12.816 27.8984 12.8781 27.8677 12.954 27.8511C13.0302 27.8346 13.1017 27.8061 13.1131 27.7879C13.1246 27.7697 13.3172 27.6633 13.5412 27.5518C13.7653 27.4401 13.9591 27.3365 13.9718 27.3211C13.9846 27.306 14.0522 27.2797 14.1221 27.2627C14.1919 27.2458 14.2493 27.2118 14.2493 27.1872C14.2493 27.1626 14.273 27.1424 14.302 27.1424C14.3543 27.1424 14.7595 26.9577 14.804 26.9137C14.8167 26.9012 14.9313 26.8394 15.0583 26.7766C15.1855 26.7135 15.2964 26.6467 15.3048 26.6279C15.3134 26.6091 15.3446 26.5938 15.3743 26.594C15.4619 26.5948 17.0233 25.8106 17.0233 25.7658C17.0233 25.7432 17.0596 25.7246 17.1042 25.7246C17.1487 25.7244 17.2475 25.6834 17.3237 25.6333C17.4001 25.5834 17.4989 25.5424 17.5435 25.5422C17.5878 25.542 17.6243 25.5218 17.6243 25.4972C17.6243 25.4723 17.6762 25.4394 17.7399 25.4236C17.8035 25.4077 17.8555 25.3766 17.8555 25.3541C17.8555 25.3317 17.8815 25.3135 17.9133 25.3138C17.9781 25.3142 18.744 24.9445 18.7805 24.895C18.7936 24.8777 18.8612 24.8492 18.9309 24.8318C19.0005 24.8146 19.0575 24.7837 19.0575 24.7633C19.0575 24.7429 19.12 24.7126 19.1962 24.6961C19.2725 24.6795 19.3348 24.6492 19.3348 24.6288C19.3348 24.6084 19.3894 24.5781 19.4562 24.5615C19.5227 24.545 19.6075 24.5016 19.6443 24.4652C19.6812 24.4286 19.7515 24.3987 19.8005 24.3987C19.8495 24.3987 19.8898 24.3781 19.8898 24.3531C19.8898 24.3278 19.9194 24.3074 19.9557 24.3074C19.9921 24.3074 20.0495 24.28 20.0834 24.2464C20.1173 24.2129 20.2004 24.1719 20.2684 24.1549C20.3362 24.1382 20.423 24.0935 20.4612 24.0558C20.4992 24.0182 20.5474 23.9879 20.5684 23.9885C20.6166 23.9899 21.2918 23.6548 21.3235 23.6136C21.3364 23.5968 21.404 23.569 21.4736 23.5516C21.5435 23.5342 21.6005 23.5039 21.6005 23.4843C21.6005 23.4645 21.6574 23.4345 21.7271 23.4171C21.7967 23.3997 21.8643 23.3718 21.8774 23.3549C21.8903 23.3381 22.0673 23.242 22.2708 23.1414C22.4742 23.0408 22.6476 22.943 22.6562 22.9242C22.6645 22.9052 22.6976 22.8899 22.7293 22.8899C22.7889 22.8899 23.6682 22.457 24.0666 22.2316C24.2788 22.1114 24.4825 22.0969 24.5588 22.1963C24.5923 22.2397 25.7612 22.8255 25.898 22.8673C25.9603 22.8865 26.04 22.9301 26.0747 22.9644C26.1094 22.999 26.178 23.027 26.2271 23.027C26.2761 23.027 26.3163 23.0428 26.3163 23.062C26.3163 23.0812 26.4203 23.1458 26.5475 23.2054C26.6745 23.2652 26.7785 23.3318 26.7785 23.3535C26.7785 23.3751 26.8046 23.3924 26.8363 23.3916C26.89 23.3906 27.5593 23.7077 27.6108 23.7586C27.6563 23.8037 28.4281 24.1703 28.4773 24.1703C28.5051 24.1703 28.5347 24.1856 28.5431 24.2044C28.5627 24.2481 28.9673 24.4446 29.0376 24.4446C29.0666 24.4446 29.0903 24.4612 29.0903 24.4816C29.0903 24.5854 29.4456 24.6753 29.581 24.6054C29.6544 24.5676 29.7404 24.5365 29.7722 24.5363C29.8041 24.5361 29.83 24.5155 29.83 24.4902C29.83 24.4652 29.8537 24.4446 29.8827 24.4446C29.953 24.4446 30.3576 24.2481 30.3772 24.2044C30.3855 24.1856 30.4264 24.1703 30.4681 24.1703C30.5095 24.1703 30.7209 24.0863 30.938 23.9839C31.1551 23.8815 31.4055 23.7631 31.4943 23.7209C31.5834 23.6789 31.6632 23.629 31.6716 23.61C31.6802 23.5912 31.7166 23.5758 31.7527 23.5758C31.7889 23.5758 31.8961 23.5346 31.9908 23.4843C32.0858 23.434 32.1898 23.3928 32.2218 23.3928C32.2541 23.3928 32.2805 23.3739 32.2805 23.3508C32.2805 23.3276 32.344 23.2949 32.4218 23.2779C32.6544 23.2274 32.5874 23.0796 32.2574 22.9143C32.1048 22.838 31.9692 22.7618 31.9563 22.7449C31.9433 22.7281 31.8757 22.7 31.806 22.6829C31.7364 22.6655 31.6794 22.6352 31.6794 22.6156C31.6794 22.5958 31.6224 22.5655 31.5528 22.5483C31.4831 22.531 31.4153 22.5031 31.4024 22.4861C31.3667 22.4397 30.6845 22.1126 30.6233 22.1126C30.5939 22.1126 30.5698 22.0934 30.5698 22.07C30.5698 22.0466 30.5305 22.0151 30.4828 21.9999C30.435 21.985 30.2215 21.8797 30.0089 21.7664C29.7961 21.6529 29.5751 21.5483 29.5179 21.5341C29.4607 21.5198 29.414 21.4921 29.414 21.4725C29.414 21.4527 29.357 21.4224 29.2871 21.4053C29.2175 21.3879 29.1499 21.36 29.137 21.3431C29.124 21.3263 28.9469 21.2301 28.7435 21.1296C28.54 21.029 28.3632 20.9361 28.3505 20.9233C28.3378 20.9104 28.2131 20.849 28.0732 20.7866C27.9333 20.7242 27.8085 20.6626 27.7958 20.6494C27.7829 20.6365 27.4604 20.4717 27.0791 20.2832C26.6976 20.0948 26.3786 19.9253 26.3702 19.9063C26.3616 19.8875 26.3328 19.872 26.3059 19.872C26.2565 19.872 25.8502 19.6857 25.8077 19.6435C25.7949 19.6308 25.6805 19.5712 25.5535 19.511C25.4262 19.4506 25.291 19.3838 25.2528 19.3622C25.2146 19.3405 25.069 19.2664 24.9293 19.1975C24.7894 19.1285 24.662 19.0541 24.646 19.0327C24.6095 18.9832 24.2359 18.9503 24.1432 18.9885ZM37.0886 25.7284C36.9489 25.8009 36.8084 25.8607 36.7765 25.8611C36.7449 25.8617 36.7188 25.8817 36.7188 25.9056C36.7188 25.9296 36.646 25.9627 36.557 25.9793C36.4679 25.9959 36.3952 26.0276 36.3952 26.05C36.3952 26.0724 36.3654 26.0906 36.3291 26.0906C36.2929 26.0906 36.2345 26.1191 36.1994 26.1536C36.1644 26.1884 36.0693 26.2312 35.988 26.2488C35.9069 26.2663 35.8403 26.2997 35.8403 26.3229C35.8403 26.3461 35.8166 26.3649 35.7874 26.3649C35.7584 26.3649 35.5762 26.439 35.3828 26.5293C34.705 26.8462 34.6549 26.8679 34.6006 26.8679C34.5706 26.8679 34.5459 26.8862 34.5459 26.9087C34.5459 26.9311 34.4938 26.9624 34.4303 26.9781C34.242 27.025 34.3815 27.2795 34.5953 27.2795C34.6402 27.2795 34.6837 27.2951 34.6923 27.3142C34.7166 27.3692 35.6982 27.8725 35.7825 27.8734C35.8144 27.8736 35.8403 27.8921 35.8403 27.9146C35.8403 27.9372 35.8975 27.9695 35.9672 27.9869C36.0368 28.0042 36.1044 28.0321 36.1173 28.0491C36.1303 28.0658 36.2449 28.1311 36.3722 28.1939C36.4992 28.2569 36.6136 28.321 36.6264 28.3363C36.6391 28.3519 36.7016 28.3803 36.7651 28.3997C36.8286 28.4191 36.8911 28.4476 36.9038 28.463C36.9446 28.5126 37.6182 28.8364 37.6783 28.8352C37.7099 28.8346 37.7361 28.8514 37.7361 28.8726C37.7361 28.9188 37.9438 29.017 38.042 29.017C38.2495 29.017 38.2795 29.2156 38.0794 29.2653C38.0134 29.2816 37.8784 29.3456 37.7794 29.4075C37.6803 29.4693 37.5778 29.52 37.5518 29.52C37.5257 29.52 37.4268 29.5612 37.3319 29.6115C37.2371 29.6618 37.1332 29.703 37.1009 29.703C37.0688 29.703 37.0425 29.7218 37.0425 29.745C37.0425 29.7682 36.98 29.8005 36.9038 29.8171C36.8274 29.8339 36.7651 29.8646 36.7651 29.8858C36.7651 29.907 36.704 29.9375 36.6295 29.9536C36.555 29.9698 36.4694 30.0126 36.4389 30.0488C36.4087 30.0849 36.3362 30.1144 36.2778 30.1144C36.2194 30.1144 36.1649 30.1298 36.1563 30.1488C36.1479 30.1675 36.068 30.217 35.9792 30.2586C35.8902 30.3002 35.6404 30.416 35.4243 30.516C35.2082 30.616 34.8935 30.762 34.7252 30.8406C34.5567 30.9189 34.3955 30.9832 34.3667 30.9832C34.3382 30.9832 34.3147 31.0038 34.3147 31.0288C34.3147 31.0541 34.2957 31.0747 34.2726 31.0747C34.2495 31.0747 34.0749 31.1466 33.885 31.2346C33.6948 31.3227 33.5161 31.3946 33.4879 31.3946C33.4595 31.3946 33.4362 31.4152 33.4362 31.4405C33.4362 31.4655 33.4125 31.4861 33.3837 31.4861C33.3547 31.4861 33.1624 31.5665 32.9561 31.6649C32.7498 31.763 32.4925 31.8802 32.3844 31.925C32.2764 31.9699 32.1879 32.021 32.1879 32.0386C32.1879 32.0561 32.115 32.0838 32.0262 32.1004C31.9371 32.1169 31.8642 32.1501 31.8642 32.1741C31.8642 32.1981 31.8442 32.2177 31.8195 32.2177C31.795 32.2177 31.5088 32.3438 31.1839 32.4977C30.2168 32.956 29.8272 33.1321 29.781 33.1321C29.7571 33.1321 29.7375 33.1505 29.7375 33.1729C29.7375 33.1951 29.6648 33.2271 29.5757 33.2434C29.4867 33.26 29.414 33.2909 29.414 33.3123C29.414 33.3335 29.3603 33.3642 29.2945 33.3806C29.2287 33.3969 29.0939 33.4608 28.9949 33.5228C28.8958 33.5846 28.8013 33.6353 28.7847 33.6353C28.7684 33.6353 28.617 33.6993 28.4487 33.7777C28.2803 33.8561 27.9968 33.9869 27.8189 34.0683C27.6408 34.1499 27.3367 34.2915 27.1429 34.383C26.949 34.4747 26.7687 34.5497 26.7421 34.5497C26.7156 34.5497 26.6868 34.565 26.6784 34.584C26.6553 34.6351 26.2483 34.824 26.1609 34.824C26.1192 34.824 26.0851 34.843 26.0851 34.8662C26.0851 34.8892 26.0226 34.9217 25.9464 34.9383C25.87 34.9549 25.8077 34.9852 25.8077 35.0056C25.8077 35.026 25.7506 35.0569 25.6809 35.0742C25.6113 35.0914 25.5437 35.1195 25.5308 35.1363C25.4944 35.1835 25.098 35.373 25.0359 35.3728C25.0055 35.3728 24.912 35.4128 24.8278 35.4619C24.3664 35.7307 24.3528 35.7289 23.4897 35.2777C23.3971 35.2294 23.2881 35.1898 23.247 35.1898C23.206 35.1898 23.1723 35.1708 23.1723 35.1478C23.1723 35.1245 23.11 35.092 23.0336 35.0755C22.9574 35.0589 22.8949 35.028 22.8949 35.007C22.8949 34.9858 22.8326 34.9549 22.7562 34.9383C22.68 34.9217 22.6176 34.8902 22.6176 34.8682C22.6176 34.8462 22.5446 34.8147 22.4558 34.7981C22.3667 34.7816 22.2938 34.7529 22.2938 34.7343C22.2938 34.7157 22.169 34.6517 22.0165 34.5917C21.8639 34.5317 21.7391 34.4669 21.7391 34.4477C21.7391 34.4283 21.7163 34.4125 21.6883 34.4125C21.6603 34.4125 21.4679 34.3323 21.2606 34.2344C20.5611 33.9039 20.2637 33.7724 20.2153 33.7724C20.1888 33.7724 20.1671 33.7518 20.1671 33.7266C20.1671 33.7015 20.1446 33.6809 20.1173 33.6809C20.0899 33.6809 19.9161 33.6088 19.7311 33.521C19.546 33.4329 19.3708 33.3608 19.3416 33.3608C19.3126 33.3608 19.2887 33.342 19.2887 33.3188C19.2887 33.2955 19.2264 33.263 19.15 33.2465C19.0736 33.2299 19.0113 33.1974 19.0113 33.1743C19.0113 33.1511 18.9872 33.1321 18.9578 33.1321C18.9282 33.1321 18.7566 33.0628 18.5763 32.978C17.9793 32.6968 17.8227 32.6292 17.7696 32.6292C17.7406 32.6292 17.7167 32.611 17.7167 32.5886C17.7167 32.5662 17.6595 32.5336 17.5896 32.5163C17.3059 32.4464 17.1783 32.2931 17.1454 31.983C17.1289 31.8257 17.0972 31.6855 17.0752 31.6715C17.0529 31.6576 17.0202 31.5792 17.0022 31.4976C16.9843 31.4158 16.9528 31.349 16.9322 31.349C16.9116 31.349 16.8815 31.2975 16.8656 31.2346C16.8497 31.1718 16.8162 31.1203 16.7913 31.1203C16.7663 31.1203 16.7459 31.0902 16.7459 31.0533C16.7459 30.969 16.0956 30.3132 15.9512 30.2516C15.8924 30.2265 15.8132 30.1879 15.775 30.1657C15.5638 30.0425 15.2617 29.9314 15.138 29.9314C15.0603 29.9314 14.9887 29.9076 14.9786 29.8781C14.9556 29.8096 13.8645 29.804 13.7777 29.872C13.7446 29.8979 13.6243 29.9308 13.5104 29.9452C13.3966 29.9595 13.2963 29.9926 13.2876 30.0185C13.2788 30.0445 13.2018 30.0787 13.1164 30.0946C13.031 30.1104 12.95 30.1522 12.9363 30.1875C12.9226 30.2227 12.8795 30.2516 12.8405 30.2516C12.8017 30.2516 12.7698 30.2708 12.7698 30.2942C12.7698 30.3176 12.7279 30.3499 12.6771 30.3659C12.5756 30.3978 12.1224 30.8167 12.1224 30.8785C12.1224 30.8997 12.0809 30.9523 12.0301 30.9955C11.9792 31.0385 11.9375 31.1048 11.9375 31.1427C11.9375 31.1807 11.9183 31.2118 11.8951 31.2118C11.8716 31.2118 11.8387 31.2734 11.8219 31.349C11.8052 31.4243 11.7766 31.4861 11.7584 31.4861C11.7405 31.4861 11.6974 31.5839 11.6628 31.7033C11.6285 31.8228 11.5881 31.9616 11.5732 32.0119C11.5182 32.1971 11.5421 33.3083 11.6024 33.3678C11.634 33.3992 11.6602 33.468 11.6602 33.5208C11.6602 33.6181 11.9224 34.1604 12.0368 34.2994C12.2259 34.5293 12.51 34.824 12.5425 34.824C12.5631 34.824 12.6317 34.8715 12.6951 34.9296C12.838 35.0605 13.2869 35.2813 13.4103 35.2813C13.4605 35.2813 13.5087 35.3017 13.5171 35.3265C13.5257 35.3514 13.6678 35.3841 13.8331 35.3988C13.9983 35.4138 14.1909 35.4473 14.2607 35.4736C14.3447 35.5049 14.4078 35.5057 14.4458 35.476C14.4774 35.4512 14.67 35.4176 14.8735 35.4015C15.0769 35.3853 15.2501 35.3516 15.2587 35.3267C15.267 35.3017 15.3101 35.2813 15.3542 35.2813C15.3984 35.2813 15.5519 35.2217 15.6957 35.149C15.979 35.0058 15.9812 35.006 16.4322 35.2053C16.5268 35.2472 16.6256 35.2813 16.652 35.2813C16.6781 35.2813 16.6996 35.3003 16.6996 35.3233C16.6996 35.3465 16.7621 35.379 16.8382 35.3956C16.9146 35.4122 16.9769 35.4431 16.9769 35.4641C16.9769 35.4853 17.0394 35.5162 17.1158 35.5328C17.192 35.5493 17.2545 35.5792 17.2545 35.5992C17.2545 35.6192 17.318 35.6483 17.3958 35.6636C17.4736 35.679 17.5686 35.7226 17.6072 35.7608C17.6456 35.7988 17.7173 35.8299 17.7663 35.8299C17.8153 35.8299 17.8555 35.8489 17.8555 35.8721C17.8555 35.8951 17.9178 35.9276 17.9942 35.9442C18.0704 35.9608 18.1329 35.9933 18.1329 36.0165C18.1329 36.0398 18.1566 36.0585 18.1856 36.0585C18.2387 36.0585 18.5222 36.1813 18.8326 36.3391C18.9251 36.386 19.0344 36.4243 19.0755 36.4243C19.1165 36.4243 19.15 36.4433 19.15 36.4666C19.15 36.4896 19.2125 36.5221 19.2887 36.5387C19.3651 36.5552 19.4274 36.5861 19.4274 36.6073C19.4274 36.6285 19.4899 36.6593 19.566 36.6758C19.6424 36.6924 19.7047 36.7233 19.7047 36.7445C19.7047 36.7657 19.7713 36.7974 19.8524 36.815C19.9337 36.8326 20.0288 36.8754 20.0638 36.9101C20.0989 36.9447 20.1677 36.9731 20.2167 36.9731C20.2658 36.9731 20.3058 36.9921 20.3058 37.0152C20.3058 37.0384 20.3683 37.0709 20.4445 37.0875C20.5208 37.104 20.5833 37.1366 20.5833 37.1596C20.5833 37.1828 20.6095 37.2018 20.6418 37.2018C20.6738 37.2018 20.7778 37.2428 20.8727 37.2931C20.9675 37.3434 21.0747 37.3846 21.1109 37.3846C21.147 37.3846 21.1836 37.4006 21.192 37.4201C21.2102 37.4622 21.7504 37.7047 21.8257 37.7047C21.8543 37.7047 21.8778 37.7237 21.8778 37.7468C21.8778 37.77 21.9403 37.8025 22.0165 37.8191C22.0929 37.8356 22.1552 37.8671 22.1552 37.8892C22.1552 37.9112 22.2281 37.9427 22.3169 37.9593C22.406 37.9756 22.4789 38.0037 22.4789 38.0213C22.4789 38.0558 22.9121 38.2533 22.9878 38.2533C23.013 38.2533 23.0336 38.2739 23.0336 38.2992C23.0336 38.3242 23.0567 38.3448 23.0846 38.3448C23.129 38.3448 23.971 38.7262 24.2004 38.8502C24.3236 38.9167 24.3856 38.9046 24.6799 38.7569C24.8299 38.6818 24.9783 38.6202 25.0102 38.6198C25.0419 38.6194 25.068 38.6002 25.068 38.5771C25.068 38.5539 25.1303 38.5214 25.2067 38.5048C25.2829 38.4883 25.3454 38.4557 25.3454 38.4327C25.3454 38.4095 25.3766 38.3905 25.4148 38.3905C25.453 38.3905 25.562 38.3495 25.6568 38.2992C25.7518 38.2489 25.8557 38.2077 25.8878 38.2077C25.9201 38.2077 25.9464 38.1887 25.9464 38.1655C25.9464 38.1425 26.0087 38.1099 26.0851 38.0934C26.1613 38.0768 26.2238 38.0443 26.2238 38.0211C26.2238 37.998 26.2501 37.979 26.2822 37.979C26.3145 37.979 26.4184 37.9378 26.5132 37.8875C26.6082 37.8372 26.717 37.796 26.7552 37.796C26.7936 37.796 26.8249 37.7756 26.8249 37.7504C26.8249 37.7253 26.8469 37.7047 26.8739 37.7047C26.9008 37.7047 27.0971 37.6223 27.3103 37.5217C27.5233 37.4212 27.7198 37.3389 27.7468 37.3389C27.7737 37.3389 27.7958 37.3183 27.7958 37.2931C27.7958 37.268 27.8181 37.2474 27.8456 37.2474C27.873 37.2474 28.0468 37.1753 28.2318 37.0875C28.4169 36.9994 28.5921 36.9273 28.6211 36.9273C28.6503 36.9273 28.6742 36.9085 28.6742 36.8853C28.6742 36.862 28.7365 36.8297 28.8129 36.813C28.8891 36.7964 28.9516 36.7641 28.9516 36.7409C28.9516 36.7176 28.9755 36.6988 29.0045 36.6988C29.0337 36.6988 29.2157 36.6247 29.4091 36.5344C30.0869 36.2175 30.137 36.1957 30.1913 36.1957C30.2215 36.1957 30.246 36.1753 30.246 36.15C30.246 36.125 30.2667 36.1044 30.292 36.1044C30.3676 36.1044 30.801 35.9068 30.801 35.8723C30.801 35.8545 30.8737 35.8267 30.9627 35.8101C31.0518 35.7935 31.1245 35.762 31.1245 35.74C31.1245 35.718 31.187 35.6865 31.2634 35.6699C31.3395 35.6533 31.402 35.6208 31.402 35.5978C31.402 35.5746 31.4227 35.5556 31.4478 35.5556C31.5297 35.5556 31.9567 35.3566 31.9567 35.3185C31.9567 35.298 31.99 35.2813 32.0307 35.2813C32.0713 35.2813 32.2774 35.1991 32.4884 35.0985C32.6996 34.9977 32.8952 34.9155 32.9232 34.9155C32.951 34.9155 32.9738 34.8965 32.9738 34.8735C32.9738 34.8502 33.0363 34.8177 33.1125 34.8012C33.1889 34.7846 33.2514 34.7521 33.2514 34.729C33.2514 34.7058 33.2878 34.6866 33.3323 34.6866C33.3768 34.6864 33.4755 34.6454 33.5518 34.5953C33.6282 34.5454 33.7269 34.5044 33.7714 34.5042C33.8159 34.504 33.8523 34.485 33.8523 34.4618C33.8523 34.4388 33.9148 34.4063 33.9912 34.3897C34.0673 34.3731 34.1298 34.3422 34.1298 34.321C34.1298 34.2998 34.1921 34.2691 34.2685 34.2526C34.3447 34.236 34.4072 34.2043 34.4072 34.1823C34.4072 34.1602 34.4799 34.1287 34.5689 34.1124C34.658 34.0958 34.7307 34.0639 34.7307 34.0417C34.7307 34.0193 34.7519 34.0011 34.7779 34.0011C34.8038 34.0011 35.0379 33.9007 35.2981 33.7783C36.3276 33.2933 36.4822 33.2236 36.5302 33.2236C36.5578 33.2236 36.5801 33.2046 36.5801 33.1816C36.5801 33.1584 36.6426 33.1259 36.7188 33.1093C36.7951 33.0927 36.8576 33.0602 36.8576 33.0372C36.8576 33.014 36.8795 32.995 36.9062 32.995C36.9824 32.995 37.3572 32.8176 37.3893 32.7665C37.405 32.7413 37.4499 32.7207 37.4889 32.7207C37.5465 32.7207 38.1155 32.4753 38.4294 32.3151C38.4676 32.2955 38.5612 32.2476 38.6376 32.2086C38.9086 32.0699 39.2033 31.9434 39.2552 31.9434C39.2842 31.9434 39.3079 31.925 39.3079 31.9026C39.3079 31.8802 39.3649 31.8477 39.4347 31.8303C39.5044 31.8131 39.572 31.7851 39.5848 31.7683C39.621 31.7216 39.9098 31.5776 39.9674 31.5776C39.9953 31.5776 40.2903 31.4471 40.6226 31.288C40.9549 31.1286 41.2876 30.969 41.3617 30.9335C41.6968 30.7731 41.6658 30.9474 41.6658 29.2212V27.6641L41.4579 27.5793C41.3433 27.5324 41.2498 27.4768 41.2498 27.4554C41.2498 27.434 41.2238 27.4165 41.192 27.4165C41.1601 27.4163 41.0717 27.3827 40.9955 27.3419C40.4581 27.0541 39.3289 26.5021 39.2779 26.5021C39.2435 26.5021 39.2156 26.4833 39.2156 26.46C39.2156 26.4368 39.1531 26.4045 39.0767 26.3879C39.0005 26.3714 38.938 26.3431 38.938 26.3251C38.938 26.3073 38.8704 26.2609 38.7879 26.2221C38.7052 26.1831 38.3917 26.0246 38.091 25.8696C37.473 25.5509 37.4395 25.5462 37.0886 25.7284ZM14.7483 31.2074C14.9829 31.2682 15.2458 31.4247 15.4057 31.5988C15.4688 31.6677 15.557 31.763 15.6016 31.8109C15.6461 31.8586 15.6827 31.9234 15.6827 31.9547C15.6829 31.9862 15.7182 32.0737 15.7613 32.149C15.8671 32.3347 15.8661 32.9178 15.7594 33.1093C15.7174 33.1848 15.6829 33.2723 15.6827 33.3036C15.6827 33.3351 15.6616 33.3608 15.6363 33.3608C15.6108 33.3608 15.5899 33.3874 15.5899 33.4198C15.5899 33.506 15.1735 33.8952 15.0121 33.9597C14.7785 34.053 14.746 34.0591 14.3849 34.0793C13.8917 34.1069 13.0933 33.6961 13.0933 33.4145C13.0933 33.385 13.0725 33.3608 13.0472 33.3608C13.0216 33.3608 13.0008 33.3351 13.0006 33.3036C13.0004 33.2723 12.9661 33.1848 12.924 33.1093C12.8174 32.9178 12.8162 32.3347 12.922 32.149C12.9651 32.0737 13.0004 31.9852 13.0006 31.9527C13.0008 31.92 13.0529 31.8457 13.1164 31.7873C13.1801 31.7291 13.232 31.658 13.232 31.6295C13.232 31.6009 13.2496 31.5776 13.271 31.5776C13.2927 31.5776 13.3707 31.5261 13.4444 31.4633C13.6196 31.3142 13.8406 31.2118 13.9877 31.2118C14.0522 31.2118 14.119 31.1894 14.1362 31.1619C14.1707 31.1066 14.4348 31.1262 14.7483 31.2074Z" fill="#7C7C7C"/>
</svg>
