<svg width="50" height="50" viewBox="0 0 50 50" fill="none" xmlns="http://www.w3.org/2000/svg">
<path d="M24.0932 17.2747L11 8V26.5494L24.0932 17.2747Z" fill="#FC642C"/>
<path d="M11.0221 29.0631C11.177 30.4283 11.8405 31.8585 13.0569 33.3754C14.2733 34.8923 15.9763 36.4308 18.1659 37.9911C20.8863 39.9197 23.6509 41.3499 25 42C26.3491 41.3499 29.1138 39.9197 31.8341 37.9911C34.0016 36.4525 35.7267 34.8923 36.9431 33.3754C38.3144 31.6635 39 30.0382 39 28.5214V9.27853L11.0221 29.0631ZM26.8799 32.8987H22.9431L23.6951 28.0663C22.8768 27.6329 22.3018 26.7878 22.3018 25.8126C22.3018 24.3824 23.4739 23.2339 24.9337 23.2339C26.3934 23.2339 27.5877 24.3824 27.5877 25.8126C27.5877 26.7878 27.0126 27.6329 26.1943 28.0663L26.8799 32.8987Z" fill="#FC642C"/>
</svg>
