<svg width="50" height="50" viewBox="0 0 50 50" fill="none" xmlns="http://www.w3.org/2000/svg">
<path d="M11.9999 23.264L14.4999 25.8681C13.998 25.3454 13.9977 24.6552 14.4999 24.1321L22.8332 15.4516C23.3337 14.9301 24.0005 14.9314 24.4999 15.4516L28.6665 19.7917L30.3331 18.0557L25.3332 12.8474C24.3338 11.8064 22.9992 11.8064 21.9999 12.8474L11.9999 23.264Z" fill="#78BF40"/>
<path d="M22.8333 34.5486L25.3333 37.1528L28.6666 33.6806L27 31.9445L24.5 34.5487C24.0005 35.069 23.3351 35.0712 22.8333 34.5486Z" fill="#78BF40"/>
<path d="M25.3333 23.2641C24.3339 24.3051 24.3339 25.6953 25.3333 26.7363L35.3333 37.153C36.3327 38.194 37.6672 38.194 38.6666 37.153L31.9999 30.2085L35.3333 26.7363C36.3327 25.6953 36.3327 24.3051 35.3333 23.2641L30.3331 18.0557L28.6665 19.7917L25.3333 23.2641ZM27.8334 24.1322L30.3334 21.528L32.8333 24.1321C33.3339 24.6535 33.3327 25.3481 32.8333 25.8683L31.1667 27.6044C30.6647 28.1272 29.9991 28.1244 29.4999 27.6044L27.8333 25.8683C27.3332 25.3474 27.3334 24.653 27.8334 24.1322Z" fill="#00689E"/>
<path d="M11.9999 23.264C11.0006 24.305 11.0007 25.6952 12 26.7362L21.9999 37.153C22.9993 38.194 24.334 38.1938 25.3333 37.1528L22.8333 34.5486L14.4999 25.8681L11.9999 23.264Z" fill="#00689E"/>
</svg>
