<svg width="50" height="50" viewBox="0 0 50 50" fill="none" xmlns="http://www.w3.org/2000/svg">
<path d="M25.0174 41.2676C16.053 41.2676 8.75 33.9991 8.75 25.0001C8.75 16.0357 16.0184 8.73267 25.0174 8.73267H37.2007C39.4505 8.73267 41.2503 10.5671 41.2503 12.7822V24.9655C41.2503 33.9991 33.9818 41.2676 25.0174 41.2676Z" fill="#08C7FB"/>
<path d="M25.3982 32.9611L31.6976 24.1698C31.9744 23.789 31.6976 23.2352 31.213 23.2352H23.5292L25.4329 17.4897C25.617 17.0294 24.9162 16.6553 24.6368 17.0744L18.3375 25.8657C18.0606 26.2464 18.3375 26.8002 18.822 26.8002H26.5404L24.6368 32.5457C24.3723 32.9866 25.1196 33.3791 25.3982 32.9611Z" fill="white"/>
</svg>
