<svg width="50" height="50" viewBox="0 0 50 50" fill="none" xmlns="http://www.w3.org/2000/svg">
<path d="M25.0138 32C17.8424 32 12 26.1915 12 19C12 11.8362 17.8147 6 25.0138 6H34.7604C36.5602 6 38 7.46595 38 9.23617V18.9723C38 26.1915 32.1853 32 25.0138 32Z" fill="#08C7FB"/>
<path d="M25.3185 25.362L30.3579 18.3364C30.5794 18.0322 30.3579 17.5896 29.9702 17.5896H23.8233L25.3462 12.9981C25.4935 12.6303 24.9328 12.3313 24.7093 12.6662L19.6699 19.6917C19.4484 19.996 19.6699 20.4385 20.0576 20.4385H26.2322L24.7093 25.03C24.4977 25.3823 25.0956 25.696 25.3185 25.362Z" fill="white"/>
<path d="M12.208 36.293V43.4023H11.2803V36.293H12.208ZM14.4932 36.293V37.0645H9V36.293H14.4932Z" fill="black"/>
<path d="M16.3926 38.1191V43.4023H15.4844V38.1191H16.3926ZM15.416 36.7178C15.416 36.4224 15.5995 36.1953 15.9482 36.1953C16.2961 36.1953 16.4854 36.4271 16.4854 36.7178C16.4854 36.9931 16.2992 37.2256 15.9482 37.2256C15.5964 37.2256 15.416 36.9975 15.416 36.7178Z" fill="black"/>
<path d="M19.957 42.7578C20.6045 42.7578 21.1538 42.3228 21.2021 41.7324H22.0615C22.007 42.7794 20.9435 43.5 19.957 43.5C18.3817 43.5 17.6084 42.2834 17.6084 40.8633V40.6582C17.6084 39.2704 18.4521 38.0215 19.957 38.0215C21.1923 38.0215 22.0125 38.8379 22.0615 39.9355H21.2021C21.1537 39.286 20.6844 38.7637 19.957 38.7637C18.9002 38.7637 18.5117 39.7537 18.5117 40.6582V40.8633C18.5117 41.7927 18.8461 42.7578 19.957 42.7578Z" fill="black"/>
<path d="M23.9854 35.9023V43.4023H23.0771V35.9023H23.9854ZM27.2129 38.1191L23.6191 41.9229L23.5459 40.9609L26.1094 38.1191H27.2129ZM26.3877 43.4023L24.5029 40.8828L24.9717 40.0771L27.4521 43.4023H26.3877Z" fill="black"/>
<path d="M30.2402 43.5C28.78 43.5 27.8135 42.438 27.8135 40.9463V40.7412C27.8135 39.0115 28.9406 38.0215 30.123 38.0215C31.8791 38.0215 32.2959 39.559 32.2959 41.0146H28.3506V40.2773H31.3926C31.3926 39.5269 30.9454 38.7637 30.123 38.7637C29.0936 38.7637 28.7217 39.8641 28.7217 40.7412V40.9463C28.7217 41.8636 29.2817 42.7627 30.2891 42.7627C30.9271 42.7627 31.3486 42.4811 31.6807 42.0449L32.2275 42.4795C31.887 42.9952 31.2929 43.5 30.2402 43.5Z" fill="black"/>
<path d="M35.5625 38.1191V38.8125H32.7061V38.1191H35.5625ZM33.6729 36.835H34.5762V42.0938C34.5762 42.6989 35.1075 42.7745 35.582 42.665L35.5869 43.4023C34.9736 43.5975 34.1709 43.5531 33.834 42.9287C33.7266 42.7204 33.6729 42.4404 33.6729 42.0889V36.835Z" fill="black"/>
<path d="M39.6982 42.001C39.6982 41.6083 39.5281 41.2931 38.4824 41.0879C37.3286 40.8443 36.5781 40.4452 36.5781 39.5645C36.5781 38.722 37.3599 38.0215 38.5361 38.0215C39.8018 38.0215 40.5479 38.758 40.5479 39.6719H39.6445C39.6445 39.0883 39.0543 38.7637 38.5361 38.7637C37.7997 38.7637 37.4863 39.1428 37.4863 39.54C37.4863 39.9216 37.6988 40.131 38.7021 40.3555C40.001 40.6484 40.6016 41.083 40.6016 41.9326C40.6016 42.8398 39.827 43.5 38.5605 43.5C37.5456 43.5 36.3975 42.9062 36.3975 41.7715H37.3057C37.3414 42.4501 37.9501 42.7578 38.5605 42.7578C39.3112 42.7578 39.6982 42.438 39.6982 42.001Z" fill="black"/>
</svg>
