<svg width="50" height="50" viewBox="0 0 50 50" fill="none" xmlns="http://www.w3.org/2000/svg">
<path fill-rule="evenodd" clip-rule="evenodd" d="M24.9518 8.62964H37.2415C39.5458 8.62964 41.3701 10.4539 41.3701 12.7582V25.0481C41.3701 34.0733 34.0731 41.3703 25.0477 41.3703H24.9518C15.9264 41.3703 8.62939 34.0733 8.62939 25.0481C8.62939 16.0227 15.9264 8.72565 24.9518 8.62964Z" fill="#20A849"/>
<path fill-rule="evenodd" clip-rule="evenodd" d="M24.9989 15.7917C21.0512 15.7917 17.8379 19.0128 17.8379 22.97C17.8379 22.97 17.8379 22.97 17.8379 23.062V27.8476C17.8379 29.1359 18.9396 30.2403 20.2249 30.2403H22.2447V24.6265H19.4904V23.062C19.5823 19.9331 22.2447 17.5403 25.2744 17.7244C28.2123 17.8164 30.5076 20.2092 30.5993 23.062V24.6265H27.8451V30.2403H29.6812V30.3324C29.6812 31.5288 28.6713 32.5411 27.4778 32.5411H25.2744C25.0907 32.5411 24.9071 32.6332 24.9071 32.8171C24.9071 33.0012 25.0907 33.1852 25.2744 33.1852H27.4778C29.0385 33.1852 30.3238 31.8969 30.3238 30.3324V30.1483C31.4255 29.8722 32.1601 28.952 32.1601 27.8476V23.062C32.2519 19.0128 29.0385 15.7917 24.9989 15.7917Z" fill="white"/>
</svg>
