<svg width="50" height="50" viewBox="0 0 50 50" fill="none" xmlns="http://www.w3.org/2000/svg">
<rect width="50" height="50" fill="#08C7FB"/>
<path d="M25.0174 41.2673C16.053 41.2673 8.75 33.9989 8.75 24.9999C8.75 16.0355 16.0184 8.73242 25.0174 8.73242H37.2007C39.4505 8.73242 41.2503 10.5668 41.2503 12.782V24.9653C41.2503 33.9989 33.9818 41.2673 25.0174 41.2673Z" fill="white"/>
<path d="M25.3982 32.9608L31.6976 24.1695C31.9744 23.7888 31.6976 23.235 31.213 23.235H23.5292L25.4329 17.4895C25.617 17.0292 24.9162 16.6551 24.6368 17.0741L18.3375 25.8655C18.0606 26.2462 18.3375 26.8 18.822 26.8H26.5404L24.6368 32.5455C24.3723 32.9863 25.1196 33.3789 25.3982 32.9608Z" fill="#08C7FB"/>
</svg>
