<svg width="50" height="50" viewBox="0 0 50 50" fill="none" xmlns="http://www.w3.org/2000/svg">
<rect width="50" height="50" fill="#08C7FB"/>
<path d="M24.6143 31.5051C17.9945 31.5051 12.6016 26.1434 12.6016 19.5051C12.6016 12.8924 17.969 7.50513 24.6143 7.50513H33.6111C35.2725 7.50513 36.6016 8.85831 36.6016 10.4924V19.4796C36.6016 26.1434 31.2341 31.5051 24.6143 31.5051Z" fill="white"/>
<path d="M24.8956 25.3777L29.5473 18.8926C29.7518 18.6117 29.5473 18.2032 29.1895 18.2032H23.5154L24.9211 13.9649C25.0571 13.6254 24.5396 13.3494 24.3333 13.6586L19.6815 20.1437C19.477 20.4245 19.6815 20.833 20.0393 20.833H25.739L24.3333 25.0713C24.1379 25.3965 24.6898 25.6861 24.8956 25.3777Z" fill="#08C7FB"/>
<path d="M13.5455 35.8648V42.4106H12.6941V35.8648H13.5455ZM15.6425 35.8648V36.5751H10.6016V35.8648H15.6425Z" fill="white"/>
<path d="M17.3856 37.5462V42.4106H16.5521V37.5462H17.3856ZM16.4894 36.2559C16.4894 35.984 16.6577 35.7749 16.9778 35.7749C17.297 35.7749 17.4707 35.9883 17.4707 36.2559C17.4707 36.5094 17.2999 36.7235 16.9778 36.7235C16.6549 36.7235 16.4894 36.5134 16.4894 36.2559Z" fill="white"/>
<path d="M20.6566 41.8171C21.2507 41.8171 21.7548 41.4166 21.7992 40.873H22.5878C22.5378 41.837 21.5618 42.5005 20.6566 42.5005C19.2109 42.5005 18.5013 41.3803 18.5013 40.0728V39.884C18.5013 38.6062 19.2755 37.4563 20.6566 37.4563C21.7902 37.4563 22.5428 38.208 22.5878 39.2186H21.7992C21.7547 38.6205 21.324 38.1396 20.6566 38.1396C19.6868 38.1396 19.3302 39.0511 19.3302 39.884V40.0728C19.3302 40.9285 19.6371 41.8171 20.6566 41.8171Z" fill="white"/>
<path d="M24.3533 35.5051V42.4106H23.5198V35.5051H24.3533ZM27.3151 37.5462L24.0172 41.0484L23.95 40.1627L26.3024 37.5462H27.3151ZM26.5578 42.4106L24.8282 40.0908L25.2584 39.349L27.5347 42.4106H26.5578Z" fill="white"/>
<path d="M30.0932 42.5005C28.7532 42.5005 27.8662 41.5227 27.8662 40.1492V39.9604C27.8662 38.3678 28.9006 37.4563 29.9857 37.4563C31.5971 37.4563 31.9797 38.8719 31.9797 40.2122H28.3591V39.5333H31.1507C31.1507 38.8424 30.7404 38.1396 29.9857 38.1396C29.041 38.1396 28.6997 39.1528 28.6997 39.9604V40.1492C28.6997 40.9938 29.2136 41.8216 30.138 41.8216C30.7235 41.8216 31.1104 41.5624 31.4151 41.1608L31.9169 41.5609C31.6044 42.0357 31.0593 42.5005 30.0932 42.5005Z" fill="white"/>
<path d="M34.9773 37.5462V38.1846H32.356V37.5462H34.9773ZM33.2432 36.3638H34.0722V41.2057C34.0722 41.7629 34.5598 41.8325 34.9953 41.7317L34.9997 42.4106C34.4369 42.5902 33.7003 42.5494 33.3911 41.9745C33.2925 41.7827 33.2432 41.5249 33.2432 41.2012V36.3638Z" fill="white"/>
<path d="M38.7726 41.1203C38.7726 40.7587 38.6165 40.4686 37.6569 40.2796C36.5981 40.0553 35.9093 39.6879 35.9093 38.8769C35.9093 38.1013 36.6267 37.4563 37.7062 37.4563C38.8676 37.4563 39.5523 38.1344 39.5523 38.9758H38.7233C38.7233 38.4385 38.1816 38.1396 37.7062 38.1396C37.0303 38.1396 36.7428 38.4887 36.7428 38.8544C36.7428 39.2058 36.9378 39.3986 37.8585 39.6052C39.0504 39.875 39.6016 40.2751 39.6016 41.0574C39.6016 41.8926 38.8908 42.5005 37.7286 42.5005C36.7972 42.5005 35.7436 41.9538 35.7436 40.909H36.577C36.6098 41.5338 37.1684 41.8171 37.7286 41.8171C38.4174 41.8171 38.7726 41.5227 38.7726 41.1203Z" fill="white"/>
</svg>
