<svg width="50" height="50" viewBox="0 0 50 50" fill="none" xmlns="http://www.w3.org/2000/svg">
<path d="M39.8921 12.7019C39.5187 14.1484 38.6227 15.742 36.8196 15.169C32.6714 13.7874 28.3523 13.0942 23.9755 13.1755C20.5242 13.2476 17.0963 13.8402 13.7898 14.8165C12.4528 15.1102 11.6069 16.1904 11.3442 17.4983C10.0812 15.874 9.60145 12.8504 9.13353 10.8846C8.71278 9.41277 9.6459 7.8263 11.1315 7.43738C14.6836 6.35066 18.3059 5.82406 22.0056 5.56506C25.9689 5.59248 29.8612 5.50691 33.7695 6.2424C36.2129 6.69493 38.6519 7.29489 40.9722 8.19181C40.9459 9.66591 40.2524 11.2837 39.8921 12.7019Z" fill="#0B02A7"/>
<path d="M17.8584 28.716C16.392 26.7403 14.9838 24.7526 13.7729 22.6034C13.0194 21.4381 13.6311 19.8053 14.9706 19.3984C18.5268 18.0711 22.3601 17.5044 26.158 17.7078C29.7757 17.8724 33.3255 18.733 36.6068 20.241C36.8418 20.3511 36.8586 20.3952 36.7467 20.6154C35.8758 22.3376 34.908 24.0106 33.8477 25.6266C33.2042 26.7646 31.8524 26.9036 30.7248 26.4361C29.0041 25.8428 27.2022 25.5086 25.3801 25.4449C23.4512 25.368 21.5225 25.6043 19.6716 26.1443C18.5398 26.4476 17.7485 27.5422 17.8584 28.716Z" fill="#0B02A7"/>
<path d="M22.0896 33.4408C21.0878 32.3395 20.0693 31.2932 19.0731 30.2083C18.1416 29.0954 18.6955 27.3096 20.1084 26.9043C21.4188 26.5521 22.7644 26.3416 24.1211 26.2765C24.5412 26.232 24.973 26.4062 25.2405 26.728C26.5953 28.2468 28.1576 29.4805 29.9303 30.4617C30.0926 30.5498 30.1206 30.6214 29.9863 30.77C29.5218 31.2712 29.0629 31.7778 28.5928 32.2734C28.1227 32.769 27.7645 33.1435 27.3336 33.5675C25.9053 34.9421 23.4529 34.9155 22.0896 33.4408Z" fill="#0C03A7"/>
<path d="M17.7579 17.6582C16.4852 17.9713 14.5451 18.2059 13.5677 19.1789C13.2969 19.4485 13.2309 19.9376 12.9785 20.1583C12.6567 19.9304 12.4159 19.6087 12.2901 19.2387C11.8245 18.1531 12.1587 16.8588 13.0693 16.1203C13.3703 15.8762 13.721 15.6983 14.0978 15.5987C15.3066 15.2463 16.5267 14.9654 17.7467 14.657C17.8322 14.6421 17.9203 14.6599 17.9929 14.7066C19.0834 15.6358 20.3146 16.392 21.6419 16.9479C21.7049 17.072 19.1132 17.3248 17.7579 17.6582Z" fill="#0D04A7"/>
<path fill-rule="evenodd" clip-rule="evenodd" d="M18.7676 44.2119H20.4473C22.0621 44.2119 22.9424 43.4243 22.9424 42.0586C22.9424 40.7926 22.0546 39.8906 20.4473 39.8906H17.8252V47H18.7676V44.2119ZM18.7676 43.4453V40.6621H20.4473C21.5484 40.6621 22 41.3374 22 42.0684C22 42.8658 21.5531 43.4453 20.4473 43.4453H18.7676Z" fill="black"/>
<path d="M25.3447 39.8906H24.1338V47H25.0713L24.9806 41.2455L27.3125 47H28.0254L30.3619 41.2535L30.2715 47H31.209V39.8906H29.998L27.6738 45.6865L25.3447 39.8906Z" fill="black"/>
</svg>
