<svg width="50" height="50" viewBox="0 0 50 50" fill="none" xmlns="http://www.w3.org/2000/svg">
<path d="M42.6871 16.176C42.2429 17.9213 41.1769 19.8441 39.0317 19.1526C34.0965 17.4857 28.9579 16.6494 23.7507 16.7474C19.6445 16.8344 15.5663 17.5495 11.6325 18.7274C10.0417 19.0817 9.03528 20.3851 8.72275 21.9631C7.22017 20.0034 6.6494 16.3552 6.0927 13.9834C5.59211 12.2075 6.70227 10.2934 8.46973 9.82411C12.6957 8.51293 17.0053 7.87756 21.407 7.56506C26.1223 7.59815 30.7531 7.4949 35.4028 8.38231C38.3098 8.9283 41.2117 9.65219 43.9722 10.7344C43.9409 12.5129 43.1158 14.4649 42.6871 16.176Z" fill="#0B02A7"/>
<path d="M16.4729 35.4978C14.7283 33.1141 13.0529 30.7158 11.6123 28.1227C10.7158 26.7166 11.4435 24.7467 13.0372 24.2557C17.2681 22.6543 21.8288 21.9705 26.3473 22.2159C30.6513 22.4144 34.8747 23.4528 38.7785 25.2723C39.0581 25.4052 39.0781 25.4583 38.9449 25.7241C37.9088 27.8019 36.7574 29.8205 35.4959 31.7703C34.7303 33.1433 33.1221 33.3111 31.7805 32.7471C29.7334 32.0312 27.5896 31.628 25.4218 31.5511C23.1268 31.4583 20.8323 31.7434 18.6302 32.3949C17.2836 32.7608 16.3422 34.0815 16.4729 35.4978Z" fill="#0B02A7"/>
<path d="M21.507 41.1986C20.3151 39.8697 19.1033 38.6073 17.9181 37.2984C16.8099 35.9556 17.4688 33.8009 19.1499 33.3119C20.7089 32.887 22.3097 32.633 23.9239 32.5544C24.4237 32.5008 24.9375 32.711 25.2556 33.0992C26.8675 34.9318 28.7262 36.4202 30.8353 37.6041C31.0284 37.7104 31.0617 37.7967 30.9019 37.9761C30.3493 38.5808 29.8033 39.192 29.244 39.79C28.6847 40.388 28.2585 40.8398 27.7459 41.3514C26.0467 43.0099 23.1289 42.9778 21.507 41.1986Z" fill="#0C03A7"/>
<path d="M16.3534 22.1561C14.8392 22.5338 12.531 22.8169 11.3681 23.9909C11.046 24.3161 10.9674 24.9062 10.6671 25.1726C10.2843 24.8975 9.99786 24.5094 9.84815 24.063C9.29427 22.7531 9.69188 21.1915 10.7752 20.3005C11.1333 20.0059 11.5506 19.7913 11.9988 19.6711C13.437 19.2459 14.8885 18.9071 16.3401 18.535C16.4418 18.517 16.5465 18.5384 16.633 18.5948C17.9304 19.7159 19.3951 20.6283 20.9743 21.299C21.0493 21.4487 17.9658 21.7538 16.3534 22.1561Z" fill="#0D04A7"/>
</svg>
