<svg width="50" height="50" viewBox="0 0 50 50" fill="none" xmlns="http://www.w3.org/2000/svg">
<rect width="50" height="50" fill="#0B02A7"/>
<path d="M38.0934 13.9046C37.7895 15.1014 37.0601 16.4199 35.5923 15.9458C32.2156 14.8027 28.6998 14.2292 25.1369 14.2965C22.3274 14.3561 19.537 14.8465 16.8455 15.6542C15.7571 15.8971 15.0685 16.7909 14.8546 17.873C13.8266 16.5291 13.436 14.0275 13.0551 12.4012C12.7126 11.1834 13.4722 9.87083 14.6815 9.54906C17.573 8.64996 20.5217 8.21428 23.5333 8C26.7596 8.02269 29.928 7.95189 33.1094 8.5604C35.0984 8.93479 37.0839 9.43117 38.9727 10.1732C38.9513 11.3928 38.3867 12.7313 38.0934 13.9046Z" fill="white"/>
<path d="M20.1574 27.1539C18.9637 25.5193 17.8174 23.8748 16.8317 22.0966C16.2183 21.1325 16.7162 19.7817 17.8066 19.445C20.7015 18.3469 23.8219 17.878 26.9135 18.0463C29.8584 18.1824 32.748 18.8944 35.4191 20.1421C35.6104 20.2332 35.6241 20.2697 35.533 20.4519C34.8241 21.8767 34.0362 23.2609 33.1731 24.5979C32.6493 25.5394 31.5489 25.6544 30.631 25.2676C29.2303 24.7768 27.7635 24.5003 26.2803 24.4476C24.7101 24.384 23.1401 24.5794 21.6334 25.0262C20.7121 25.2771 20.068 26.1827 20.1574 27.1539Z" fill="white"/>
<path d="M23.6017 31.063C22.7863 30.1518 21.9571 29.2861 21.1462 28.3886C20.3879 27.4678 20.8388 25.9903 21.989 25.6549C23.0557 25.3636 24.151 25.1894 25.2554 25.1356C25.5974 25.0988 25.9489 25.2429 26.1666 25.5091C27.2694 26.7657 28.5412 27.7864 29.9843 28.5982C30.1164 28.6711 30.1392 28.7303 30.0299 28.8533C29.6517 29.2679 29.2782 29.6871 28.8955 30.0971C28.5128 30.5071 28.2212 30.817 27.8704 31.1678C26.7078 32.305 24.7115 32.283 23.6017 31.063Z" fill="white"/>
<path d="M20.0756 18.0053C19.0396 18.2643 17.4603 18.4584 16.6646 19.2634C16.4442 19.4865 16.3905 19.8911 16.185 20.0737C15.9231 19.8851 15.7271 19.6189 15.6246 19.3129C15.2457 18.4147 15.5177 17.3438 16.2589 16.7329C16.504 16.5309 16.7894 16.3837 17.0961 16.3013C18.0802 16.0097 19.0733 15.7774 20.0665 15.5222C20.1361 15.5099 20.2078 15.5246 20.2669 15.5632C21.1546 16.332 22.1568 16.9576 23.2373 17.4175C23.2886 17.5202 21.1788 17.7294 20.0756 18.0053Z" fill="white"/>
<path fill-rule="evenodd" clip-rule="evenodd" d="M20.7472 39.647H22.1277C23.455 39.647 24.1784 38.9823 24.1784 37.8297C24.1784 36.7612 23.4488 36 22.1277 36H19.9727V42H20.7472V39.647ZM20.7472 39V36.6511H22.1277C23.0328 36.6511 23.4039 37.221 23.4039 37.8379C23.4039 38.5109 23.0366 39 22.1277 39H20.7472Z" fill="white"/>
<path d="M26.1529 36H25.1576V42H25.9281L25.8536 37.1434L27.7702 42H28.3561L30.2764 37.1502L30.2021 42H30.9727V36H29.9774L28.0671 40.8915L26.1529 36Z" fill="white"/>
</svg>
