<svg width="50" height="50" viewBox="0 0 50 50" fill="none" xmlns="http://www.w3.org/2000/svg">
<path d="M40.0441 26.1447C40.212 29.1964 39.0953 31.8576 37.3304 34.2954C35.5375 36.7783 32.9007 38.3244 30.3944 40.0173C29.1891 40.8322 27.9907 41.6583 26.7457 42.4099C24.9086 43.5205 23.0155 43.1638 21.9617 41.5748C20.8403 39.8932 21.2483 37.9272 22.9642 36.7625C25.2303 35.2208 27.5524 33.7491 29.7533 32.124C31.8515 30.5801 33.0755 28.5283 33.0545 25.8783C33.0266 22.6822 33.0196 19.486 33.0545 16.2921C33.0545 15.3576 32.7212 15.0461 31.7723 15.0529C27.1887 15.0845 22.6075 15.0529 18.0169 15.08C16.96 15.08 16.8066 15.6021 16.7323 16.5381C16.7036 19.7429 16.6731 22.9303 16.9188 26.1244C16.9224 27.1182 17.1454 28.0997 17.5728 29.0033C18.0002 29.9068 18.6222 30.7115 19.3971 31.3633C20.2784 32.142 21.1736 32.9433 21.3415 34.2006C21.5513 35.7941 20.9522 36.9611 19.488 37.7353C18.1685 38.435 16.6181 38.2048 15.3265 37.0582C12.7362 34.7626 10.7476 32.0924 10.0878 28.675C9.94088 27.9098 9.87094 27.1333 9.76602 26.3614C9.76602 22.6905 9.70277 19.0193 9.74737 15.3486C9.79633 11.1863 13.5802 8.22944 17.3408 8.33553C22.4956 8.47999 27.6596 8.45516 32.8144 8.33553C36.8081 8.24976 40.0068 11.534 40.0605 14.773L40.0441 26.1447ZM22.8033 39.5501C22.7893 40.8186 23.6986 41.7305 24.9529 41.7102C26.2958 41.6876 27.2074 40.866 27.2377 39.6539C27.2703 38.3741 26.3377 37.3764 25.0741 37.3358C23.8746 37.3346 22.7928 38.318 22.8033 39.5501Z" fill="black"/>
<path d="M16.9263 26.1244C16.6806 22.9303 16.7175 19.7424 16.7398 16.5381C16.9493 13.8988 16.9277 24.4382 16.9263 26.1244Z" fill="#565961"/>
<path d="M22.8033 39.5501C22.7928 38.318 23.8746 37.3346 25.0741 37.3358C26.3377 37.3764 27.2703 38.3741 27.2377 39.6539C27.2074 40.866 26.3051 41.6854 24.9529 41.7102C23.6986 41.7305 22.7893 40.8164 22.8033 39.5501Z" fill="white"/>
</svg>
