<svg width="50" height="50" viewBox="0 0 50 50" fill="none" xmlns="http://www.w3.org/2000/svg">
<path d="M40 22.9908H25.4396V28.2652H33.9949L40 23.1582V22.9908Z" fill="#5B6670"/>
<path d="M14.3342 24.9999V24.9162C14.3342 18.2185 19.1054 12.6092 25.4396 12.6092C28.9769 12.5255 32.4319 13.8651 35.0643 16.3767L38.8483 11.772C35.2288 8.67435 31.6093 6.99994 25.6041 6.99994C15.9794 6.91622 8.08226 14.7023 8 24.4976C8 24.6651 8 24.8325 8 24.9999V25.0837C8 32.6185 11.9486 38.8976 18.365 41.5767L23.4653 37.2232C17.8715 36.1348 14.3342 31.3627 14.3342 24.9999Z" fill="#5B6670"/>
<path d="M40 37.5582L40 23.1582L33.9949 28.2652L34.2416 28.2652V34.7954C31.856 36.5536 28.9769 37.4745 26.0154 37.3908C25.1928 37.3908 24.3702 37.307 23.5476 37.1396L18.4473 41.4931C20.6684 42.414 23.1362 42.9163 25.8509 42.9163C30.9512 43.0001 36.0514 41.0745 40 37.5582Z" fill="#00B2E3"/>
</svg>
