<svg width="50" height="50" viewBox="0 0 50 50" fill="none" xmlns="http://www.w3.org/2000/svg">
<path d="M29.4846 17.7669H30.5017L33.3996 14.9162L33.5421 13.7067C28.1502 9.02514 19.9192 9.52958 15.1603 14.8338C13.8372 16.3072 12.8773 18.0597 12.3547 19.9565C12.6775 19.8259 13.0352 19.8053 13.3719 19.896L19.1661 18.9559C19.1661 18.9559 19.461 18.4762 19.6132 18.5064C22.1911 15.7217 26.5295 15.3973 29.5055 17.7669H29.4846Z" fill="#EA4335"/>
<path d="M37.527 19.9566C36.8605 17.5443 35.4941 15.3754 33.5925 13.7164L29.5266 17.7161C31.2437 19.0961 32.2218 21.1757 32.1799 23.3571V24.0677C34.1793 24.0677 35.7987 25.6621 35.7987 27.6276C35.7987 29.5945 34.1779 31.1875 32.1799 31.1875H24.9409L24.2186 31.9078V36.1783L24.9409 36.8889H32.1799C36.3296 36.9206 40.0113 34.2747 41.2436 30.3766C42.4732 26.4772 40.9642 22.2437 37.527 19.9566Z" fill="#4285F4"/>
<path d="M17.6919 36.8491H24.9309V31.149H17.6919C17.1763 31.149 16.6663 31.0405 16.1969 30.8288L15.1797 31.1381L12.2623 33.9887L12.008 34.9894C13.6442 36.2044 15.6408 36.8573 17.6919 36.8491Z" fill="#34A853"/>
<path d="M17.6919 18.3567C13.6707 18.38 10.1092 20.9132 8.82653 24.6615C7.54389 28.4097 8.82234 32.5469 12.0094 34.9578L16.208 30.8274C14.386 30.0179 13.5771 27.9094 14.4 26.117C15.223 24.3247 17.3663 23.5289 19.1883 24.3385C19.9903 24.6958 20.633 25.3281 20.9963 26.117L25.1949 21.9867C23.4079 19.6899 20.6316 18.347 17.6919 18.3567Z" fill="#FBBC05"/>
</svg>
