<svg width="50" height="50" viewBox="0 0 50 50" fill="none" xmlns="http://www.w3.org/2000/svg">
<rect width="50" height="50" fill="#003087"/>
<path d="M7.85487 21.3909C8.93189 21.3485 9.57591 21.5337 10.3936 22.1563C10.2513 22.3162 10.0826 22.4972 9.95407 22.6642C8.41779 21.3783 6.11875 21.9642 5.75648 23.9549C5.63562 24.6191 5.78245 25.3967 6.19916 25.95C6.5533 26.4215 7.09209 26.737 7.69353 26.8249C8.5372 26.9562 9.26919 26.7425 9.95203 26.2746L9.95677 24.8122C9.33045 24.7923 8.70227 24.8075 8.07567 24.8122L8.07415 24.2158L10.6176 24.2156L10.6215 26.5442C10.0756 27.0475 9.19659 27.3876 8.44538 27.4376C7.58451 27.5005 6.71225 27.3043 6.04886 26.7568C4.74353 25.6795 4.65922 23.5978 5.78118 22.3694C6.30408 21.7943 7.04661 21.4425 7.84335 21.3922C7.84718 21.3918 7.85103 21.3913 7.85487 21.3909Z" fill="white"/>
<path d="M18.7967 21.4868L21.0621 24.7014L23.3162 21.4867L24.0053 21.4855L24.0155 27.3438L23.3156 27.3522L23.3267 22.5429L21.0456 25.7648L18.7767 22.5895L18.7775 27.3466L18.1067 27.3562L18.1072 21.4832L18.7967 21.4868Z" fill="white"/>
<path d="M16.6457 21.4853L16.6434 22.0745L12.8842 22.0755L12.8837 24.0904L16.2571 24.0888L16.2549 24.6912L12.8852 24.6832L12.884 26.7556L16.6956 26.7578L16.6965 27.3466L12.1912 27.344L12.1956 21.4843L16.6457 21.4853Z" fill="white"/>
<path fill-rule="evenodd" clip-rule="evenodd" d="M29.1667 21.0028C31.1951 20.9257 32.9045 22.4316 32.9829 24.3648C33.0613 26.298 31.4791 27.9251 29.4505 27.9975C27.4253 28.0698 25.7214 26.5651 25.6429 24.6352C25.5647 22.7054 27.1417 21.0798 29.1667 21.0028ZM27.7872 26.3267C27.4299 26.3285 27.0535 26.3247 26.6979 26.3341C26.6807 26.3674 26.6547 26.3986 26.6788 26.436C26.9895 26.92 27.9695 27.533 28.5642 27.5933C28.5777 27.563 28.6184 27.4961 28.597 27.4705C28.295 27.1076 27.9848 26.7584 27.7872 26.3267ZM30.6326 22.9892C30.3571 22.9786 30.0661 22.986 29.7893 22.9887L29.4833 23.0008L29.5081 24.3105L30.4116 24.3567L30.3857 24.6168L29.485 24.6619C29.4851 24.665 29.4993 25.4 29.4384 25.4907C29.3655 25.5217 29.3559 25.5252 29.2748 25.5216C29.1156 25.4412 29.1366 25.3011 29.1381 25.1455C29.1398 24.9814 29.1421 24.66 29.1421 24.6582C29.1421 24.6582 28.1206 24.6408 27.7008 24.6612C27.7033 25.1394 27.825 25.5659 27.999 26.0119C28.2008 26.0076 28.8723 25.9312 28.5807 26.3028C28.3906 26.4122 27.9367 26.1241 28.4883 26.8372C28.5894 26.9678 28.9022 27.3594 29.0601 27.3976C29.2648 27.3199 28.9607 26.6976 29.4233 26.8316C29.5481 26.8678 29.4111 27.2867 29.5282 27.3991C29.7304 27.4141 30.3726 26.5937 30.3976 26.3834L30.3808 26.3488C30.2259 26.3109 30.0621 26.3492 29.982 26.236C29.897 25.9233 30.4357 26.0144 30.6248 26.0097C30.6903 25.842 30.8812 24.8414 31.1923 25.2125C31.1722 25.4262 30.9999 25.9115 31.052 25.9882C31.2487 26.0564 31.5636 25.9451 31.6886 26.0666C31.8211 26.4575 31.0892 26.3232 30.8424 26.3303C30.6691 26.6479 30.5141 26.9031 30.2746 27.1828C30.2138 27.2537 30.0845 27.4141 30.0248 27.4953C30.0307 27.5132 30.0356 27.5289 30.04 27.5423C30.1568 27.6221 30.4495 27.4911 30.5733 27.4425C31.1726 27.208 31.6883 26.8136 32.0581 26.3067C32.3819 25.8636 32.6508 25.2071 32.6419 24.6619C32.4541 24.6533 31.8311 24.6463 31.8311 24.6463L31.7948 24.3939C31.7981 24.3941 32.4675 24.4425 32.6277 24.2917C32.7089 24.0156 32.3953 23.2563 32.2656 22.9945C31.8847 22.9911 31.3784 22.975 31.008 22.9996C31.0677 23.2832 31.1684 23.5331 31.2065 23.8232C31.1054 23.8415 31.0012 23.8617 30.8999 23.8764C30.8106 23.5756 30.7483 23.2844 30.6326 22.9892ZM28.596 21.4747C28.5504 21.4051 28.5203 21.4183 28.4374 21.428C27.872 21.5982 27.3863 21.8434 26.9594 22.2395C26.8473 22.3435 26.6704 22.4709 26.6869 22.632C26.7925 22.7596 27.0554 22.5781 27.2012 22.7208C27.2336 22.7872 27.2447 22.9537 27.154 22.9695C26.9308 23.0086 26.5968 23.0019 26.3741 22.9821C25.9466 23.8014 25.8385 24.6404 26.1496 25.5184C26.2109 25.6878 26.2842 25.8529 26.369 26.0128C26.5996 26.0135 27.4216 26.0346 27.5899 25.9773C27.6219 25.918 27.581 25.8191 27.5581 25.7548C27.4303 25.3983 27.3937 25.0364 27.3557 24.6617C27.0662 24.6544 26.7706 24.6619 26.4864 24.6532C26.4364 24.4764 26.4871 24.3716 26.5844 24.3119L27.3426 24.2909C27.3423 24.2889 27.2633 23.6807 27.4868 23.5078C27.5576 23.453 27.6589 23.4419 27.8027 23.5078C27.7777 23.7081 27.7183 24.3088 27.7183 24.3088L29.119 24.3119L29.1415 23.0021C29.1383 23.0023 28.7225 23.0301 28.6144 22.937C28.4245 22.5902 28.9547 22.6773 29.1406 22.671C29.1448 22.4677 29.1862 21.7903 29.1058 21.6494C28.9189 21.5434 28.4819 22.1914 28.3495 22.3281C28.2336 22.2792 28.0598 22.2372 28.1388 22.0785C28.2143 21.9265 28.5875 21.6183 28.596 21.4747ZM30.0413 21.4131C30.0271 21.4719 30.0026 21.5103 30.0481 21.5603C30.3719 21.916 30.6305 22.2453 30.8437 22.6757C31.1171 22.6743 31.6893 22.6895 31.9349 22.664C31.9981 22.4947 31.7211 22.2914 31.5992 22.1808C31.2843 21.8946 30.4792 21.4151 30.0413 21.4131ZM29.5444 21.5772C29.4267 21.7123 29.4717 22.4704 29.4867 22.6711C29.783 22.6732 30.0793 22.6736 30.3755 22.6723C30.4012 22.6167 30.4199 22.6017 30.3902 22.5378C30.2726 22.2845 29.7796 21.6875 29.5444 21.5772Z" fill="white"/>
<path d="M39.2183 21.4924L39.2274 27.3515L38.883 27.3529L34.5211 22.1216L34.5292 27.3534L34.0835 27.3554L34.0841 21.4853L34.5063 21.4852L38.7854 26.5979L38.7815 21.4826L39.1961 21.4777L39.2183 21.4924Z" fill="white"/>
<path d="M44.9551 21.8835L41.0202 21.8746L41.0287 24.189L44.5645 24.1781L44.5696 24.5924L41.0166 24.5868L41.0288 26.9548L44.9971 26.9411L45 27.342L40.5628 27.3548L40.5633 21.4839L44.9563 21.4831L44.9551 21.8835Z" fill="white"/>
<path d="M29.6511 25.743C29.7047 25.743 29.7482 25.7844 29.7482 25.8355V26.4368C29.7482 26.4879 29.7047 26.5293 29.6511 26.5293H29.0199C28.9663 26.5293 28.9228 26.4879 28.9228 26.4368V25.8355C28.9228 25.7844 28.9663 25.743 29.0199 25.743H29.6511Z" fill="white"/>
<path d="M31.4474 24.1241C31.501 24.1241 31.5445 24.1655 31.5445 24.2166V24.8179C31.5445 24.869 31.501 24.9104 31.4474 24.9104H30.8163C30.7626 24.9104 30.7192 24.869 30.7192 24.8179V24.2166C30.7192 24.1655 30.7626 24.1241 30.8163 24.1241H31.4474Z" fill="white"/>
<path d="M28.2431 22.459C28.2968 22.459 28.3402 22.5004 28.3402 22.5515V23.1528C28.3402 23.2039 28.2968 23.2453 28.2431 23.2453H27.612C27.5584 23.2453 27.5149 23.2039 27.5149 23.1528V22.5515C27.5149 22.5004 27.5584 22.459 27.612 22.459H28.2431Z" fill="white"/>
</svg>
