<svg width="50" height="50" viewBox="0 0 50 50" fill="none" xmlns="http://www.w3.org/2000/svg">
<path d="M11.0004 11C11.0004 8.79086 12.7912 7 15.0004 7H28.172C28.7024 7 29.2111 7.21071 29.5862 7.58579L38.4146 16.4142C38.7897 16.7893 39.0004 17.298 39.0004 17.8284V39C39.0004 41.2091 37.2095 43 35.0004 43H15.0004C12.7912 43 11.0004 41.2091 11.0004 39V11Z" fill="white"/>
<path fill-rule="evenodd" clip-rule="evenodd" d="M28.172 7C28.7024 7 29.2111 7.21071 29.5862 7.58579L38.4146 16.4142C38.7897 16.7893 39.0004 17.298 39.0004 17.8284V39C39.0004 41.2091 37.2095 43 35.0004 43H15.0004C12.7912 43 11.0004 41.2091 11.0004 39V11C11.0004 8.79086 12.7912 7 15.0004 7H28.172ZM28.0004 14C28.0004 16.2091 29.7913 18 32.0004 18H38.0004V39C38.0004 40.6569 36.6572 42 35.0004 42H15.0004C13.3435 42 12.0004 40.6569 12.0004 39V11C12.0004 9.34315 13.3435 8 15.0004 8H28.0004V14ZM29.0004 14C29.0004 15.6569 30.3435 17 32.0004 17H37.5862L29.0004 8.41426V14Z" fill="#AEB7CC"/>
<path d="M39.6142 38.3332C40.7528 38.3319 41.7327 37.3993 41.7341 36.2498V21.7498C41.7327 20.6003 40.7528 19.6678 39.6142 19.6665H10.3289C9.19027 19.6678 8.2103 20.6003 8.20898 21.7498V36.2498C8.2103 37.3993 9.19027 38.3319 10.3289 38.3332H39.6142Z" fill="#7F8BA5"/>
<path d="M14.8051 26.1133H15.973C15.8977 27.3442 14.8827 28.0781 13.684 28.0781C11.9638 28.0781 11.3363 26.4915 11.3363 24.9609C11.3363 23.5586 12.1454 22.2305 13.6918 22.2305C15.1214 22.2305 15.872 23.0795 15.9809 24.2305H14.809C14.7697 23.5384 14.4729 23.1602 13.6918 23.1602C12.9131 23.1602 12.5199 23.7325 12.5199 24.9531C12.5199 25.825 12.5084 27.1523 13.684 27.1523C14.4201 27.1523 14.7584 26.7975 14.8051 26.1133Z" fill="white"/>
<path d="M19.3323 26.9883V23.7734H20.4573V28H19.3987L19.3655 27.4941L19.3323 26.9883ZM19.4573 26.1211L19.7893 26.1133C19.7893 26.673 19.6604 27.1675 19.3987 27.5234C18.5104 28.7137 16.801 27.8808 16.801 26.5039V23.7734H17.926V26.5117C17.926 27.0194 18.1841 27.1914 18.5393 27.1914C19.2453 27.1914 19.4573 26.7125 19.4573 26.1211Z" fill="white"/>
<path d="M23.7618 26.832C23.7618 26.5906 23.6023 26.4189 22.8868 26.2773C22.0396 26.0914 21.3868 25.7168 21.3868 25C21.3868 24.2784 22.0455 23.6953 23.0743 23.6953C24.181 23.6953 24.8438 24.2703 24.8438 25.0508H23.7188C23.7188 24.7213 23.5248 24.4727 23.0704 24.4727C22.7032 24.4727 22.4649 24.6792 22.4649 24.9453C22.4649 25.2031 22.6681 25.3549 23.2579 25.4688C23.8661 25.5935 24.3628 25.7767 24.6446 26.1211C24.908 26.4381 24.9206 26.9484 24.7305 27.3047C24.483 27.7688 23.9007 28.0781 23.0782 28.0781C22.2535 28.0781 21.254 27.5998 21.254 26.6602H22.3204C22.3363 27.1284 22.7025 27.2969 23.1016 27.2969C23.5484 27.2969 23.7618 27.097 23.7618 26.832Z" fill="white"/>
<path d="M27.8163 23.7734V24.5703H25.3554V23.7734H27.8163ZM25.9648 22.7305H27.0898V26.7266C27.0898 27.1812 27.5094 27.2192 27.8632 27.1484L27.8671 27.9766C26.9063 28.2882 25.9648 27.8975 25.9648 26.8398V22.7305Z" fill="white"/>
<path d="M28.3357 25.9297C28.3357 24.7368 29.0302 23.6953 30.3318 23.6953C31.5799 23.6953 32.3396 24.7161 32.3396 25.9297C32.3396 27.1421 31.633 28.0781 30.3396 28.0781C29.0634 28.0781 28.3357 27.1528 28.3357 25.9297ZM29.4607 25.9297C29.4607 26.6357 29.6916 27.1992 30.3396 27.1992C30.9704 27.1992 31.2107 26.6303 31.2107 25.9297C31.2107 25.3509 31.0584 24.5742 30.3318 24.5742C29.6035 24.5742 29.4607 25.3527 29.4607 25.9297Z" fill="white"/>
<path d="M34.316 24.6484V28H33.1871V23.7734H34.2457L34.316 24.6484ZM34.1598 25.7383H33.8473C33.8473 25.1461 33.9948 24.6397 34.2691 24.2773C34.5504 23.9076 34.9618 23.6953 35.5035 23.6953C36.2481 23.6953 36.7809 24.1161 36.7809 25.1797V28H35.6559V25.3047C35.6559 24.7309 35.4198 24.5781 35.0152 24.5781C34.3837 24.5781 34.1598 25.2044 34.1598 25.7383ZM36.6754 25.6094L36.273 25.6602C36.273 25.1073 36.4128 24.6245 36.6832 24.2656C36.9599 23.9053 37.3681 23.6953 37.898 23.6953C38.708 23.6953 39.2496 24.1251 39.2496 25.3008V28H38.1207V25.3008C38.1207 24.7134 37.8807 24.5781 37.4879 24.5781C36.9531 24.5781 36.6754 25.0158 36.6754 25.6094Z" fill="white"/>
<path d="M12.6684 29.7344V35.4219H11.4965V29.7344H12.6684ZM14.934 32.1641V33.0781H12.348V32.1641H14.934ZM15.2074 29.7344V30.6523H12.348V29.7344H15.2074Z" fill="white"/>
<path d="M17.1643 31.1953V35.4219H16.0354V31.1953H17.1643ZM15.9651 30.0938C15.9651 29.7656 16.2125 29.5273 16.5979 29.5273C16.9804 29.5273 17.2307 29.7676 17.2307 30.0938C17.2307 30.4199 16.9804 30.6602 16.5979 30.6602C16.2125 30.6602 15.9651 30.4219 15.9651 30.0938Z" fill="white"/>
<path d="M19.4415 29.4219V35.4219H18.3126V29.4219H19.4415Z" fill="white"/>
<path d="M22.4765 35.5C21.296 35.5 20.371 34.6289 20.371 33.4531C20.371 32.2476 20.995 31.1172 22.3515 31.1172C23.7741 31.1172 24.2109 32.4042 24.2109 33.6562H20.8515V32.9062H23.1054C23.1054 32.414 22.8632 31.9961 22.3398 31.9961C21.5774 31.9961 21.4999 32.8766 21.4999 33.4531C21.4999 34.1402 21.9036 34.6211 22.5468 34.6211C22.9567 34.6211 23.3173 34.4607 23.5702 34.1406L24.1171 34.7344C23.8537 35.114 23.3018 35.5 22.4765 35.5Z" fill="white"/>
<path d="M27.2966 34.2539C27.2966 34.0125 27.1371 33.8407 26.4216 33.6992C25.5744 33.5132 24.9216 33.1386 24.9216 32.4219C24.9216 31.7003 25.5804 31.1172 26.6091 31.1172C27.7158 31.1172 28.3787 31.6922 28.3787 32.4727H27.2537C27.2537 32.1432 27.0597 31.8945 26.6052 31.8945C26.238 31.8945 25.9998 32.101 25.9998 32.3672C25.9998 32.625 26.2029 32.7768 26.7927 32.8906C27.5194 33.0397 28.3904 33.343 28.3904 34.2109C28.3904 34.9553 27.7125 35.5 26.613 35.5C25.7883 35.5 24.7888 35.0216 24.7888 34.082H25.8552C25.8711 34.5503 26.2374 34.7188 26.6365 34.7188C27.0832 34.7188 27.2966 34.5189 27.2966 34.2539Z" fill="white"/>
</svg>
