<svg width="50" height="50" viewBox="0 0 50 50" fill="none" xmlns="http://www.w3.org/2000/svg">
<path d="M30.1548 32.4037H26.3896C24.8572 32.4037 23.3876 33.0145 22.3041 34.102C21.2205 35.1894 20.6118 36.664 20.6118 38.2019C20.6118 39.7397 21.2205 41.2145 22.3041 42.3017C23.3876 43.3892 24.8572 44 26.3896 44H30.1548C31.6872 44 33.1568 43.3892 34.2403 42.3017C35.3238 41.2145 35.9327 39.7397 35.9327 38.2019C35.9327 36.664 35.3238 35.1894 34.2403 34.102C33.1568 33.0145 31.6872 32.4037 30.1548 32.4037Z" fill="#FF451A"/>
<path d="M29.7883 17.4178H20.2118C18.5643 17.4178 16.9843 18.0757 15.8194 19.2467C14.6545 20.4177 14 22.0059 14 23.662C14 25.318 14.6545 26.9062 15.8194 28.0771C16.9843 29.2482 18.5643 29.9061 20.2118 29.9061H29.7883C30.604 29.9061 31.4118 29.7446 32.1654 29.4308C32.9191 29.117 33.6039 28.6571 34.1807 28.0771C34.7575 27.4974 35.2152 26.8091 35.5273 26.0515C35.8395 25.2939 36 24.482 36 23.662C36 22.842 35.8395 22.03 35.5273 21.2724C35.2152 20.5149 34.7575 19.8265 34.1807 19.2467C33.6039 18.6669 32.9191 18.2069 32.1654 17.8932C31.4118 17.5793 30.604 17.4178 29.7883 17.4178Z" fill="#FF451A"/>
<path d="M27.2236 10.4601C27.2236 7.99685 29.1711 6 31.5735 6C33.9759 6 35.9233 7.99685 35.9233 10.4601C35.9233 12.9233 33.9759 14.9202 31.5735 14.9202C29.1711 14.9202 27.2236 12.9233 27.2236 10.4601Z" fill="#FF451A"/>
</svg>
