<svg width="50" height="50" viewBox="0 0 50 50" fill="none" xmlns="http://www.w3.org/2000/svg">
<path d="M45 30.9993C44.1183 30.9993 43.2569 30.9993 42.3725 30.9993C42.3725 28.3838 42.3725 25.7729 42.3725 23.162C42.3578 23.1567 42.343 23.1509 42.3287 23.1455L39.0519 27.8561C38.9433 28.013 38.8935 28.0151 38.7909 27.8665C37.7179 26.31 36.6128 24.7688 35.5642 23.199C35.5451 23.204 35.526 23.2091 35.5069 23.2141C35.5069 25.8038 35.5069 30.9936 35.5069 30.9936C34.6038 30.9936 33.7312 30.9936 32.834 30.9936C32.834 30.9936 32.836 22.9097 32.8307 19.004C33.8054 19.005 34.7805 18.9952 35.755 19.0038C36.8128 20.6155 37.7975 22.2804 38.927 23.852C40.112 22.3142 41.0136 20.616 42.101 19.023L45 19.023C45 23.0113 45 26.9974 45 30.9993Z" fill="#1E293B"/>
<path d="M14.2672 20.4753C13.8009 21.119 13.3454 21.7479 12.8743 22.398C11.6569 21.7098 9.99632 20.6836 8.61832 21.4963C8.07723 21.815 7.9702 22.4827 8.38716 22.9408C9.08864 23.7115 10.7437 23.7727 11.6779 24.063C12.9529 24.4588 14.279 25.136 14.5768 26.5554C14.72 27.2393 14.6707 27.9145 14.4399 28.5736C13.8601 30.2287 12.0503 30.8774 10.4346 30.9328C8.3928 31.0029 6.63302 30.2753 5 29.1076C5 29.1076 6.20409 27.6973 6.59637 27.2547C7.81529 28.0963 9.07846 28.7752 10.6208 28.6375C11.4392 28.5641 12.7686 27.4376 11.559 26.7794C9.47622 25.6457 5.70506 25.9653 5.47876 22.8428C5.37292 21.3801 6.12122 20.0899 7.44939 19.4533C9.54351 18.4495 12.5255 19.0353 14.2672 20.4753Z" fill="#1E293B"/>
<path d="M23.8904 21.7292C22.2496 21.2698 20.4219 21.1353 19.2899 22.7265C18.5013 23.8347 18.3752 25.019 18.7703 26.2607C19.1917 27.5859 20.4478 28.572 21.8474 28.6117C22.3586 28.626 22.8663 28.6084 23.3577 28.4587C23.7721 28.3314 23.8126 28.2151 24.0834 28.5887C24.4718 29.1223 24.9064 29.6428 25.24 30.2127C25.0271 30.3258 24.831 30.4486 24.6185 30.5401C23.6409 30.9608 22.6021 31.0373 21.5374 30.9842C18.8178 30.8485 16.3832 28.8869 15.8459 26.1749C15.5603 24.7318 15.7759 23.3508 16.5068 22.0505C18.0703 19.2695 22.6062 17.7537 25.2912 19.7921C24.836 20.4203 24.3428 21.1043 23.8904 21.7292Z" fill="#1E293B"/>
<path d="M29.8568 27.8255C30.1731 28.0757 30.1675 28.2954 29.8393 28.5158C29.7199 28.5962 29.7335 28.6906 29.7498 28.8023C29.7927 29.0963 29.8866 29.3982 29.8488 29.685C29.7434 30.4816 29.1952 30.9953 28.2478 30.9967C27.9033 30.9971 27.5583 30.9899 27.2142 31C27.0606 31.0043 27.0244 30.9551 27.0256 30.8248C27.0578 26.98 27.0284 23.1341 27.0284 19.2892C27.0284 19.074 26.9998 19.0088 27.2305 19.0074C27.7143 19.0064 28.1981 19.01 28.6819 19.0046C28.8005 19.0031 28.8713 19.0398 28.9441 19.1248C29.219 19.4472 29.3893 19.8137 29.5341 20.1932C29.6372 20.4631 29.7398 20.7334 29.8405 21.0045C29.9634 21.3358 30.0609 21.6707 29.9328 22.0193C29.7687 22.4656 29.4454 22.7234 29.8246 23.2018C30.2212 23.7015 30.6223 24.1983 31.0249 24.6941C31.2485 24.9698 31.3798 25.2523 31.1765 25.5879C31.0472 25.8008 30.8356 25.9351 30.6008 26.0026C30.1295 26.1378 30.0559 26.5478 30.2384 26.9277C30.4735 27.4155 30.4584 27.4521 29.8568 27.8255Z" fill="#1E293B"/>
</svg>
