<svg width="50" height="50" viewBox="0 0 50 50" fill="none" xmlns="http://www.w3.org/2000/svg">
<path d="M39.4897 17.3868C39.4101 14.6312 38.2454 12.061 36.0485 10.3286C33.7796 8.43492 31.0839 7.69036 28.0414 8.11644L28.0198 8.12074C25.2014 8.59631 22.941 10.0381 21.2969 12.4116C20.4889 12.3126 19.655 12.3729 18.7586 12.5881C16.3495 13.1476 14.5848 14.5592 13.5074 16.7864C12.8889 16.8467 12.1994 16.9155 11.5594 17.0382C9.52136 17.4904 7.74201 19.03 6.80384 20.8599C5.88159 22.6611 5.74584 24.7312 6.43321 26.5345C7.69798 29.9367 10.8461 31.5333 14.3197 31.5333V29.8699C11.5479 29.8699 9.01229 28.6938 7.99112 25.9491C7.46966 24.5784 7.57525 22.9989 8.28417 21.6174C9.45547 19.332 11.5257 18.6642 13.8758 18.4197C14.2228 18.4089 14.6645 18.2734 14.9015 17.7246L14.9252 17.673C15.7785 15.7987 17.1554 14.6646 19.14 14.2041C19.8941 14.0212 20.5772 13.9803 21.2215 14.0772C21.7537 14.2127 22.2623 14.0126 22.523 13.5607C23.9107 11.4497 25.8478 10.1715 28.2806 9.75833C30.8749 9.39681 33.0685 10.0015 34.9862 11.6068L35.0056 11.624C36.9776 13.1714 37.8241 15.426 37.8241 17.8623C37.9743 18.3019 38.1603 18.6616 38.6343 18.8264C41.474 20.0426 42.9711 23.1004 42.097 26.0417C41.414 27.8084 40.009 29.0737 38.2378 29.5987V31.3181C40.733 30.7457 42.7327 29.05 43.6636 26.6033L43.6829 26.5452C44.765 22.8909 43.0066 18.9759 39.4897 17.3868Z" fill="black"/>
<path d="M20.8334 36.3752C21.8698 36.4591 23.8328 37.154 23.8501 39.1831C23.8523 39.4822 23.6109 39.7277 23.3114 39.7321H23.3074V39.7301C23.0101 39.7301 22.7665 39.4911 22.7642 39.1921C22.7491 37.6513 20.827 37.4641 20.7451 37.4576C20.4478 37.4318 20.2256 37.1689 20.2493 36.8698C20.2752 36.5708 20.5361 36.3494 20.8334 36.3752Z" fill="#2CCCD3"/>
<path d="M21.2195 31.4538C21.5189 31.4645 21.7537 31.714 21.7452 32.0151C21.6935 33.5559 23.6071 33.825 23.689 33.8358C23.9862 33.8746 24.1971 34.1456 24.1584 34.4425C24.1234 34.7194 23.8413 34.9693 23.5528 34.9117C22.9555 34.838 22.3721 34.3295 21.838 34.2836C20.3016 34.1523 19.9332 36.048 19.9181 36.1276C19.8647 36.4232 19.5753 36.6221 19.2867 36.5645C18.9914 36.5107 18.7955 36.2307 18.8472 35.9359C18.9957 35.0976 19.6122 33.6797 20.9461 33.2913C20.7526 32.9277 20.6399 32.4936 20.6568 31.9788C20.6676 31.6797 20.9178 31.443 21.2195 31.4538Z" fill="#2CCCD3"/>
<path d="M23.5638 23.4549C23.8482 23.3603 24.1563 23.5156 24.2511 23.7996C24.3458 24.0836 24.1908 24.3913 23.9065 24.486C23.8224 24.514 22.0037 25.1508 22.3547 26.6484C22.4772 27.1682 23.0657 27.6733 23.2251 28.2518C23.3048 28.5401 23.1349 28.8392 22.844 28.9188C22.5576 28.9968 22.2563 28.8288 22.1762 28.5402C22.1525 28.4563 21.6112 26.6099 20.0942 26.881C19.7992 26.9346 19.5172 26.7367 19.4632 26.4421C19.4094 26.1473 19.6075 25.8653 19.9027 25.8115C20.411 25.7207 20.8577 25.7695 21.2459 25.9087C21.4407 24.5364 22.7567 23.723 23.5638 23.4549Z" fill="#2CCCD3"/>
<path fill-rule="evenodd" clip-rule="evenodd" d="M23.4541 21.3593C24.8324 21.3594 25.9638 22.4297 26.0603 23.7802H26.0722L26.0677 25.2755H27.4768L28.3936 24.359C28.3176 24.0276 28.4079 23.6653 28.6659 23.4076C29.0645 23.0095 29.7133 23.0096 30.1119 23.4076C30.5106 23.8057 30.5106 24.4535 30.1119 24.8516C29.8556 25.1076 29.4963 25.1978 29.1662 25.1246L28.0863 26.203C27.9851 26.3041 27.8471 26.3624 27.7028 26.3624L27.7008 26.36H26.0677V28.9726H28.3452L31.5061 25.8155C31.6073 25.7144 31.7453 25.6566 31.8896 25.6566H33.4269C33.6078 25.3709 33.9264 25.1809 34.2903 25.1809C34.8548 25.181 35.3114 25.6373 35.3114 26.2011C35.3113 26.7647 34.8547 27.2206 34.2903 27.2207C33.9247 27.2207 33.6048 27.029 33.4244 26.741H32.1136L28.9527 29.8976C28.8515 29.9988 28.7135 30.057 28.5692 30.057H26.0677V31.2047L32.5271 31.2411C32.7729 30.2473 33.6717 29.5106 34.7427 29.5106C36.003 29.5106 37.0247 30.5309 37.0247 31.7895C37.0246 33.048 36.0029 34.0684 34.7427 34.0684C33.6683 34.0684 32.7674 33.3266 32.5251 32.328L26.0677 32.2916V33.5862H28.5737C28.718 33.5863 28.856 33.6445 28.9572 33.7456L32.1181 36.9022H33.4259C33.6066 36.6155 33.9256 36.4245 34.2903 36.4245C34.8548 36.4246 35.3114 36.8809 35.3114 37.4447C35.3113 38.0083 34.8547 38.4642 34.2903 38.4643C33.9256 38.4643 33.6066 38.2735 33.4259 37.9866H31.8916C31.7473 37.9866 31.6093 37.9288 31.5081 37.8277L28.3472 34.6706H26.0677V37.761H27.7008C27.8451 37.761 27.9831 37.8188 28.0844 37.9199L29.1627 38.9973C29.4943 38.9219 29.8562 39.012 30.1139 39.2693C30.5126 39.6674 30.5126 40.3152 30.1139 40.7133C29.7153 41.1112 29.067 41.1113 28.6684 40.7133C28.4108 40.456 28.3206 40.0945 28.3961 39.7634L27.4768 38.8454H26.1725C26.21 39.0223 26.2293 39.2036 26.2293 39.3878C26.2293 40.8273 25.0571 41.9979 23.6157 41.998L23.6177 42C22.8959 42 22.2129 41.7032 21.7238 41.1891C21.5147 41.2429 21.3011 41.2683 21.0813 41.2683C19.5941 41.2682 18.4676 40.0269 18.4676 38.5764C17.4679 38.202 16.7654 37.2295 16.7653 36.1321C16.7653 35.833 16.8173 35.5378 16.9164 35.2559C16.4359 34.7718 16.1578 34.1114 16.1577 33.4164C16.1577 32.8138 16.3604 32.2432 16.7288 31.787C16.3626 31.3308 16.1577 30.7606 16.1577 30.1581C16.1578 29.3986 16.4877 28.6906 17.0436 28.2C16.8626 27.8385 16.7653 27.4383 16.7653 27.0294C16.7653 25.9105 17.4721 24.9379 18.4956 24.5742C18.7052 23.1874 20.01 22.2272 21.3876 22.3705C21.8789 21.7401 22.6375 21.3593 23.4541 21.3593ZM23.4561 22.4482C22.6658 22.4482 22.2526 22.9972 21.9108 23.6163C21.6389 23.5391 21.3696 23.4425 21.0838 23.4425C19.926 23.4425 19.4979 24.4714 19.6183 25.4454C18.737 25.6032 17.8576 25.97 17.8576 27.0339C17.8577 27.593 18.1831 27.9736 18.517 28.3788C18.6512 28.0573 18.8628 27.7441 19.1764 27.4553C19.3962 27.2531 19.741 27.2661 19.9436 27.4877C20.1461 27.7093 20.1331 28.0515 19.9111 28.2538C19.4415 28.6842 19.3035 29.2245 19.4867 29.9001C19.6418 30.4703 19.9717 30.9095 19.976 30.9138C20.1568 31.1526 20.1095 31.4922 19.8727 31.6729C19.7737 31.7482 19.6593 31.785 19.543 31.785C19.6557 31.8975 19.2113 31.7004 19.1141 31.5743C18.6474 30.9651 18.0899 29.7578 18.4332 28.614C17.8083 28.9547 17.2526 29.368 17.2526 30.1626C17.2526 30.9514 17.8317 31.3577 18.3903 31.7915C17.8316 32.2253 17.2527 32.6316 17.2526 33.4203C17.2526 34.1631 17.757 34.5657 18.306 34.9506C18.0912 35.3274 17.8601 35.6853 17.8601 36.1361C17.8601 36.8828 18.4159 37.5305 19.155 37.6424L19.7455 37.7306C19.6708 38.0351 19.5625 38.3461 19.5625 38.6626C19.5625 39.5039 20.2475 40.1858 21.0878 40.1858C21.4572 40.1858 21.7766 40.0261 22.1073 39.883C22.4801 40.4284 22.8878 40.9136 23.6177 40.9136C24.4601 40.9136 25.143 40.229 25.143 39.3898C25.143 39.1456 25.0765 38.9231 24.9814 38.7014V30.3853C24.3351 31.0443 23.6527 31.2454 22.7986 31.1524C22.5014 31.1179 22.2862 30.8487 22.3228 30.5497C22.3574 30.2528 22.6264 30.0379 22.9258 30.0745C24.3808 30.2424 24.4071 28.9603 24.9814 28.1004V23.9715C24.9813 23.1323 24.2963 22.4482 23.4561 22.4482Z" fill="#2CCCD3"/>
</svg>
