<svg width="50" height="50" viewBox="0 0 50 50" fill="none" xmlns="http://www.w3.org/2000/svg">
<path d="M43.8336 21.5134C43.8336 21.4915 43.8308 21.4685 43.8268 21.4488C42.4714 14.3786 37.1624 9.08894 30.793 9.00421C30.8057 9.00421 30.8138 9 30.8259 9H21.7337C12.3062 9 4.66699 16.1632 4.66699 25.0017C4.66699 33.8339 12.3062 40.9986 21.7337 40.9986C21.7337 40.9986 27.7814 41 27.7928 41C27.8009 41 27.8102 41 27.8189 40.9986C27.9113 40.9846 27.984 40.902 27.984 40.8025C27.984 40.7199 27.9402 40.6372 27.7928 40.6021C20.1892 38.9885 14.5107 32.6153 14.5107 25.0017C14.5107 18.8483 18.2158 13.5039 23.6486 10.8272C23.6486 10.8272 23.7099 10.8033 23.7416 10.8033C23.8472 10.8033 23.9341 10.893 23.9341 11.0037C23.9341 11.0788 23.8985 11.1299 23.8312 11.1759C19.8169 13.9528 17.1197 19.1033 17.1197 25.0017C17.1197 26.4885 17.2907 27.9292 17.6119 29.2942C17.616 29.3089 17.6193 29.323 17.6234 29.3362C17.651 29.4119 17.721 29.4679 17.8038 29.4679C17.9089 29.4679 17.993 29.3803 17.9944 29.2718V29.2703C17.9944 29.2557 17.993 29.243 17.991 29.2284C17.9567 28.8425 17.9419 28.4524 17.9419 28.058C17.9419 21.3584 22.7775 15.9236 28.7443 15.9236C32.5982 15.9236 35.9795 18.1926 37.893 21.6048C37.9247 21.6678 37.9854 21.7141 38.0573 21.7169H43.6491C43.752 21.7129 43.8336 21.6239 43.8336 21.5134Z" fill="#F36E21"/>
<path d="M45.667 23.8938C45.667 23.7817 45.5982 23.7313 45.514 23.7145C45.5019 23.713 45.4905 23.7102 45.4784 23.7102C45.4676 23.7102 30.2329 23.7145 30.2222 23.7145C30.1104 23.7145 30.066 23.8104 30.0692 23.9051C30.0719 23.9729 30.1238 24.0443 30.175 24.08C32.1619 25.4984 33.4682 27.8767 33.4682 30.5702C33.4682 34.9153 30.0828 38.4338 25.9091 38.4338C25.5616 38.4338 25.221 38.4115 24.8856 38.3666C24.8708 38.3611 24.854 38.3582 24.8371 38.3582H24.8357C24.7327 38.3582 24.6486 38.445 24.6486 38.5516C24.6486 38.6328 24.6937 38.7013 24.7589 38.7281C24.767 38.7309 24.7751 38.7365 24.7839 38.7393C26.4738 39.4018 28.3078 39.7674 30.2262 39.7674C38.6854 39.7674 45.5523 32.691 45.6656 23.9239C45.667 23.9183 45.667 23.8995 45.667 23.8938Z" fill="#F36E21"/>
</svg>
