<svg width="50" height="50" viewBox="0 0 50 50" fill="none" xmlns="http://www.w3.org/2000/svg">
<path d="M24.9988 40.465L31.1573 21.4354H18.849L24.9988 40.465Z" fill="#E24329"/>
<path d="M10.2231 21.4354L8.34763 27.2169C8.17794 27.7418 8.36121 28.3213 8.80911 28.6486L24.9988 40.465L10.2231 21.4354Z" fill="#FCA326"/>
<path d="M10.2231 21.4354H18.849L15.1368 9.97481C14.9468 9.38844 14.1188 9.38844 13.9219 9.97481L10.2231 21.4354Z" fill="#E24329"/>
<path d="M39.7841 21.4354L41.6528 27.2169C41.8224 27.7419 41.6392 28.3213 41.1913 28.6486L24.9988 40.465L39.7841 21.4354Z" fill="#FCA326"/>
<path d="M39.7841 21.4354H31.1573L34.8634 9.97481C35.0534 9.38844 35.8814 9.38844 36.0783 9.97481L39.7841 21.4354Z" fill="#E24329"/>
<path d="M24.9988 40.465L31.1573 21.4354H39.7841L24.9988 40.465Z" fill="#FC6D26"/>
<path d="M24.9988 40.465L10.2231 21.4354H18.849L24.9988 40.465Z" fill="#FC6D26"/>
</svg>
