<svg width="50" height="50" viewBox="0 0 50 50" fill="none" xmlns="http://www.w3.org/2000/svg">
<path fill-rule="evenodd" clip-rule="evenodd" d="M22.3316 13.3876C20.0554 11.3348 17.0469 10.7672 14.6367 12.3767C15.1423 10.6353 16.1462 9.07552 17.5276 7.88536C17.7094 7.72878 17.9885 7.73255 18.1772 7.89429C19.7446 9.23355 21.6957 9.9715 23.8121 9.9715C25.9286 9.9715 27.885 9.23355 29.4471 7.89429C29.6354 7.73255 29.9149 7.72878 30.0967 7.88536C31.4942 9.08966 32.4876 10.6549 32.9875 12.3767C30.5773 10.7672 27.5689 11.3348 25.2927 13.3876C24.2909 14.291 24.2385 14.5624 23.8121 14.5624C23.3858 14.5624 23.3334 14.291 22.3316 13.3876ZM16.1724 23.002C17.9397 24.6351 20.1869 25.6361 22.6174 25.8851C23.6357 27.5921 24.1962 29.7407 24.1962 31.9642C24.1962 35.3928 22.7517 38.6698 20.2253 41.0225C19.1345 40.383 17.9393 39.4833 16.6269 38.3131C14.448 36.3703 12.7488 33.6136 11.7033 30.4822L16.1724 23.002Z" fill="#32466E"/>
<path fill-rule="evenodd" clip-rule="evenodd" d="M11.5688 19.141L13.0817 18.0353C13.4745 19.3717 14.1192 20.6224 14.9875 21.724L11.0849 28.2555C10.7221 26.6306 10.5292 24.9389 10.5292 23.2332V21.1467C10.5292 20.3456 10.9056 19.6163 11.5688 19.141ZM34.5657 18.0518L36.0623 19.1459C36.7188 19.6163 37.0956 20.3453 37.0956 21.1465V23.233C37.0956 27.5323 35.8745 31.7424 33.7777 35.0126C34.401 33.2708 34.7555 31.4395 34.7555 29.6982C34.7555 26.951 33.9595 24.3058 32.451 22.0178C33.4497 20.8461 34.1749 19.4017 34.5657 18.0518Z" fill="white"/>
<path fill-rule="evenodd" clip-rule="evenodd" d="M33.7777 35.0126C35.8745 31.7424 37.0956 27.5323 37.0956 23.233V21.1465C37.0956 20.3453 36.7188 19.6163 36.0623 19.1459L34.5657 18.0518C34.1749 19.4017 33.4497 20.8461 32.451 22.0178C33.9595 24.3058 34.7555 26.951 34.7555 29.6982C34.7555 31.4395 34.401 33.2708 33.7777 35.0126ZM28.1172 40.5724C30.9549 38.2776 33.0759 33.6492 33.0759 29.6981C33.0759 27.3997 32.4437 25.1827 31.2447 23.2385C29.3958 24.8387 27.0572 25.7748 24.5382 25.9248C25.4051 27.7132 25.8756 29.8134 25.8756 31.9645C25.8756 35.6454 24.406 39.171 21.8168 41.7981C24.0704 42.6491 26.1723 41.86 28.1172 40.5724ZM16.6269 38.3131C17.9393 39.4833 19.1345 40.383 20.2253 41.0225C22.7517 38.6698 24.1962 35.3928 24.1962 31.9642C24.1962 29.7407 23.6357 27.5921 22.6174 25.8851C20.1869 25.6361 17.9397 24.6351 16.1724 23.002L11.7033 30.4822C12.7488 33.6136 14.448 36.3703 16.6269 38.3131ZM10.5292 21.1467V23.2332C10.5292 24.9389 10.7221 26.6306 11.0849 28.2555L14.9875 21.724C14.1192 20.6224 13.4745 19.3717 13.0817 18.0353L11.5688 19.141C10.9056 19.6163 10.5292 20.3456 10.5292 21.1467ZM23.8118 16.8993C23.0628 16.8993 22.5469 15.9117 21.6113 14.944C19.9281 13.1783 17.7764 12.7363 16.2118 13.3489C14.8754 13.8723 14.2338 15.0803 14.4114 16.6205C14.7421 18.5387 15.6421 20.2829 17.0316 21.644C18.8072 23.384 21.1906 24.3421 23.8118 24.3421C26.4334 24.3421 28.8167 23.384 30.5923 21.644C31.9814 20.2829 32.8815 18.5387 33.2126 16.6205C33.3899 15.0803 32.7486 13.8723 31.4118 13.3489C29.8479 12.7363 27.6963 13.1783 26.0127 14.944C25.0772 15.9116 24.5608 16.8993 23.8118 16.8993ZM29.4471 7.89429C27.885 9.23355 25.9286 9.9715 23.8121 9.9715C21.6957 9.9715 19.7446 9.23355 18.1772 7.89429C17.9885 7.73255 17.7094 7.72878 17.5276 7.88536C16.1462 9.07552 15.1423 10.6353 14.6367 12.3767C17.0469 10.7672 20.0554 11.3348 22.3316 13.3876C23.3334 14.291 23.3858 14.5624 23.8121 14.5624C24.2385 14.5624 24.2909 14.291 25.2927 13.3876C27.5689 11.3348 30.5773 10.7672 32.9875 12.3767C32.4876 10.6549 31.4942 9.08966 30.0967 7.88536C29.9149 7.72878 29.6354 7.73255 29.4471 7.89429ZM34.9178 16.2046L37.0789 17.7842C38.1617 18.56 38.812 19.8189 38.812 21.1469V23.2332C38.812 29.6438 36.2595 35.9022 32.15 39.5659C28.8408 42.5164 26.1917 43.8924 23.8136 43.8965C21.4326 43.8924 18.7835 42.5164 15.474 39.5659C11.3649 35.9022 8.81201 29.6438 8.81201 23.2332V21.1469C8.81201 19.8189 9.46262 18.56 10.5517 17.7795L12.7104 16.2015C12.5007 14.2064 12.5573 10.1255 16.4518 6.67774C17.2451 5.99404 18.4479 5.99644 19.2492 6.68358C20.5138 7.76838 22.1342 8.36554 23.8118 8.36554C25.4897 8.36554 27.1101 7.76838 28.375 6.68358C29.176 5.99679 30.3786 5.99369 31.1715 6.67705C34.9571 10.0087 35.1383 14.112 34.9178 16.2046ZM17.0611 17.1482C17.0611 16.2306 17.6514 15.4841 18.377 15.4841C19.1026 15.4841 19.6925 16.2306 19.6925 17.1482C19.6925 18.0662 19.1026 18.8124 18.377 18.8124C17.6514 18.8124 17.0611 18.0662 17.0611 17.1482ZM23.8083 18.243C24.4324 18.243 24.8807 18.6862 24.9242 19.346C24.9983 20.4484 24.7274 21.5367 24.2154 22.5101L24.1962 22.5468C23.9735 22.981 23.6448 22.9814 23.421 22.5481L23.4203 22.5468L23.4014 22.5101C22.889 21.5368 22.6185 20.4484 22.6926 19.346C22.7359 18.6862 23.1845 18.243 23.8083 18.243ZM30.9417 16.8884C30.7683 16.3455 30.259 15.9269 29.674 15.8472C28.857 15.736 28.0267 16.2184 27.4522 17.137C27.0651 17.7535 27.8157 18.0402 28.2619 17.728C28.7886 17.3675 29.3655 17.246 29.9308 17.5999C30.4825 17.9457 31.1585 17.5676 30.9417 16.8884Z" fill="#081736"/>
</svg>
