<svg width="50" height="50" viewBox="0 0 50 50" fill="none" xmlns="http://www.w3.org/2000/svg">
<path d="M25.0001 7C15.0602 7 7 15.2627 7 25.4557C7 33.61 12.1576 40.5279 19.3096 42.9683C20.2091 43.1391 20.5395 42.5679 20.5395 42.0804C20.5395 41.6404 20.5227 40.1865 20.5151 38.6443C15.5073 39.7608 14.4506 36.4668 14.4506 36.4668C13.6318 34.3336 12.452 33.7665 12.452 33.7665C10.819 32.6209 12.5751 32.6444 12.5751 32.6444C14.3827 32.7747 15.3345 34.5463 15.3345 34.5463C16.9399 37.3678 19.5453 36.5521 20.5725 36.0806C20.734 34.8876 21.2006 34.0736 21.7153 33.6127C17.7173 33.1459 13.5144 31.5634 13.5144 24.4918C13.5144 22.477 14.2175 20.8305 15.3691 19.5381C15.1822 19.0731 14.5661 17.1961 15.5434 14.6539C15.5434 14.6539 17.0549 14.1579 20.4947 16.5458C21.9304 16.1367 23.4703 15.9318 25.0001 15.9248C26.5298 15.9318 28.0708 16.1367 29.5094 16.5458C32.9451 14.1579 34.4545 14.6539 34.4545 14.6539C35.4342 17.1961 34.8178 19.0731 34.6309 19.5381C35.785 20.8305 36.4834 22.4768 36.4834 24.4918C36.4834 31.5802 32.2725 33.1412 28.2644 33.598C28.91 34.1707 29.4852 35.2939 29.4852 37.0157C29.4852 39.485 29.4643 41.4725 29.4643 42.0804C29.4643 42.5716 29.7883 43.1471 30.7009 42.9658C37.8489 40.5227 43 33.6072 43 25.4557C43 15.2627 34.9409 7 25.0001 7Z" fill="#161614"/>
<path d="M13.7417 33.2905C13.7022 33.3821 13.5613 33.4096 13.4332 33.3468C13.3027 33.2866 13.2293 33.1615 13.2716 33.0695C13.3104 32.9751 13.4513 32.9487 13.5816 33.0121C13.7125 33.0722 13.787 33.1984 13.7417 33.2905ZM14.6271 34.1005C14.5413 34.1821 14.3734 34.1442 14.2595 34.0152C14.1418 33.8865 14.1198 33.7146 14.2069 33.6316C14.2954 33.5501 14.4582 33.5882 14.5762 33.717C14.6939 33.8472 14.7169 34.018 14.6271 34.1005ZM15.2346 35.1368C15.1242 35.2154 14.9438 35.1418 14.8324 34.9776C14.7221 34.8136 14.7221 34.6168 14.8348 34.5379C14.9466 34.459 15.1242 34.5299 15.2371 34.6928C15.3472 34.8597 15.3474 35.0564 15.2346 35.1368ZM16.2618 36.3372C16.1631 36.4487 15.953 36.4188 15.7991 36.2666C15.6419 36.1178 15.598 35.9066 15.6969 35.795C15.7967 35.6832 16.0081 35.7147 16.1631 35.8656C16.3194 36.0141 16.3669 36.2269 16.2618 36.3372ZM17.5893 36.7425C17.546 36.8869 17.3436 36.9527 17.1397 36.8913C16.9361 36.828 16.8029 36.6587 16.8439 36.5126C16.8863 36.3672 17.0896 36.2987 17.295 36.3644C17.4983 36.4274 17.6317 36.5954 17.5893 36.7425ZM19.1004 36.9143C19.1055 37.0666 18.9326 37.1928 18.7186 37.1955C18.5033 37.2003 18.3292 37.0771 18.327 36.9275C18.327 36.7738 18.4959 36.6487 18.7111 36.6451C18.9251 36.6407 19.1004 36.763 19.1004 36.9143ZM20.5847 36.856C20.6104 37.0045 20.4616 37.157 20.2491 37.1976C20.0402 37.2366 19.8468 37.145 19.8201 36.9978C19.7941 36.8455 19.9458 36.6931 20.1543 36.6536C20.3672 36.6157 20.5576 36.705 20.5847 36.856Z" fill="#161614"/>
</svg>
