<svg width="50" height="50" viewBox="0 0 50 50" fill="none" xmlns="http://www.w3.org/2000/svg">
<path fill-rule="evenodd" clip-rule="evenodd" d="M31.4 36.4286H13C13 38.9533 15.0596 41 17.6 41H31.4C33.9404 41 36 38.9533 36 36.4286V17.6563C36 17.5643 35.9249 17.4898 35.8323 17.4898H31.5675C31.475 17.4898 31.4 17.5643 31.4 17.6563V36.4286ZM31.4 9C33.9404 9 36 11.0467 36 13.5714H17.6V32.3437C17.6 32.4357 17.525 32.5103 17.4325 32.5103H13.1676C13.0751 32.5103 13 32.4357 13 32.3437V13.5714C13 11.0467 15.0596 9 17.6 9H31.4Z" fill="#31AF40"/>
</svg>
