<svg width="50" height="50" viewBox="0 0 50 50" fill="none" xmlns="http://www.w3.org/2000/svg">
<path d="M25.0017 7C34.9429 7 43.0034 15.0605 43.0034 25.0017C43.0034 34.9428 34.9429 43.0033 25.0017 43.0033C15.0605 43.0033 7 34.9428 7 25.0017C7 15.0605 15.0605 7 25.0017 7Z" fill="#0068B2"/>
<path d="M25.0017 7.13528C34.8684 7.13528 42.8681 15.1349 42.8681 25.0016C42.8681 34.8684 34.8684 42.868 25.0017 42.868C15.1349 42.868 7.13527 34.8684 7.13527 25.0016C7.13527 15.1349 15.1349 7.13528 25.0017 7.13528Z" fill="#0068B3"/>
<path d="M25.0017 7.26719C34.794 7.26719 42.7328 15.2059 42.7328 24.9983C42.7328 34.7906 34.794 42.7293 25.0017 42.7293C15.2093 42.7293 7.26719 34.794 7.26719 25.0016C7.26719 15.2093 15.2059 7.26719 25.0017 7.26719Z" fill="#0069B4"/>
<path d="M25.0017 7.40249C34.7196 7.40249 42.6008 15.2803 42.6008 25.0016C42.6008 34.723 34.723 42.6008 25.0017 42.6008C15.2803 42.6008 7.40249 34.7196 7.40249 25.0016C7.40249 15.2837 15.2803 7.40249 25.0017 7.40249Z" fill="#006AB4"/>
<path d="M25.0017 7.53779C34.6452 7.53779 42.4655 15.3548 42.4655 25.0016C42.4655 34.6485 34.6486 42.4655 25.0017 42.4655C15.3548 42.4655 7.53779 34.6452 7.53779 25.0016C7.53779 15.3581 15.3548 7.53779 25.0017 7.53779Z" fill="#006BB4"/>
<path d="M25.0017 7.6731C34.5708 7.6731 42.3302 15.4326 42.3302 25.0016C42.3302 34.5707 34.5708 42.3302 25.0017 42.3302C15.4326 42.3302 7.67309 34.5707 7.67309 25.0016C7.67309 15.4326 15.4292 7.6731 25.0017 7.6731Z" fill="#006CB5"/>
<path d="M25.0017 7.80501C34.4964 7.80501 42.1949 15.5036 42.1949 24.9983C42.1949 34.4929 34.4964 42.1915 25.0017 42.1915C15.507 42.1915 7.80501 34.4963 7.80501 25.0016C7.80501 15.507 15.5036 7.80501 25.0017 7.80501Z" fill="#006DB6"/>
<path d="M25.0017 7.80501C34.4964 7.80501 42.1949 15.5036 42.1949 24.9983C42.1949 34.4929 34.4964 42.1915 25.0017 42.1915C15.507 42.1915 7.80501 34.4963 7.80501 25.0016C7.80501 15.507 15.5036 7.80501 25.0017 7.80501Z" fill="#006DB7"/>
<path d="M25.0017 7.94031C34.4253 7.94031 42.063 15.578 42.063 25.0016C42.063 34.4253 34.4253 42.063 25.0017 42.063C15.578 42.063 7.94031 34.4219 7.94031 25.0016C7.94031 15.5814 15.578 7.94031 25.0017 7.94031Z" fill="#006EB6"/>
<path d="M25.0017 8.07561C34.3509 8.07561 41.9277 15.6524 41.9277 25.0016C41.9277 34.3509 34.3509 41.9277 25.0017 41.9277C15.6524 41.9277 8.07561 34.3475 8.07561 25.0016C8.07561 15.6558 15.6524 8.07561 25.0017 8.07561Z" fill="#006FB8"/>
<path d="M25.0017 8.20753C34.2765 8.20753 41.7924 15.7268 41.7924 24.9983C41.7924 34.2697 34.2731 41.789 25.0017 41.789C15.7302 41.789 8.20752 34.2731 8.20752 25.0016C8.20752 15.7302 15.7268 8.20753 25.0017 8.20753Z" fill="#0070B8"/>
<path d="M25.0017 8.34283C34.2021 8.34283 41.6605 15.8012 41.6605 25.0016C41.6605 34.2021 34.2021 41.6605 25.0017 41.6605C15.8012 41.6605 8.34282 34.1987 8.34282 25.0016C8.34282 15.8046 15.8012 8.34283 25.0017 8.34283Z" fill="#0071B8"/>
<path d="M25.0017 8.47813C34.1277 8.47813 41.5252 15.8757 41.5252 25.0016C41.5252 34.1276 34.1277 41.5252 25.0017 41.5252C15.8757 41.5252 8.47812 34.1276 8.47812 25.0016C8.47812 15.8757 15.8757 8.47813 25.0017 8.47813Z" fill="#0071B9"/>
<path d="M25.0017 8.61343C34.0532 8.61343 41.3899 15.9501 41.3899 25.0016C41.3899 34.0532 34.0532 41.3899 25.0017 41.3899C15.9501 41.3899 8.61342 34.0532 8.61342 25.0016C8.61342 15.9501 15.9501 8.61343 25.0017 8.61343Z" fill="#0072BA"/>
<path d="M25.0017 8.74535C33.9788 8.74535 41.2546 16.0211 41.2546 24.9983C41.2546 33.9754 33.9788 41.2512 25.0017 41.2512C16.0245 41.2512 8.74534 33.9788 8.74534 25.0016C8.74534 16.0245 16.0245 8.74535 25.0017 8.74535Z" fill="#0073BB"/>
<path d="M25.0017 8.74535C33.9788 8.74535 41.2546 16.0211 41.2546 24.9983C41.2546 33.9754 33.9788 41.2512 25.0017 41.2512C16.0245 41.2512 8.74534 33.9788 8.74534 25.0016C8.74534 16.0245 16.0245 8.74535 25.0017 8.74535Z" fill="#0174BA"/>
<path d="M25.0017 8.88065C33.9044 8.88065 41.1227 16.0989 41.1227 25.0016C41.1227 33.9044 33.9044 41.1226 25.0017 41.1226C16.0989 41.1226 8.88064 33.9044 8.88064 25.0016C8.88064 16.0989 16.0989 8.88065 25.0017 8.88065Z" fill="#0175BB"/>
<path d="M25.0017 9.01595C33.83 9.01595 40.9874 16.1733 40.9874 25.0016C40.9874 33.83 33.83 40.9874 25.0017 40.9874C16.1733 40.9874 9.01594 33.83 9.01594 25.0016C9.01594 16.1733 16.1733 9.01595 25.0017 9.01595Z" fill="#0175BC"/>
<path d="M25.0017 9.14787C33.7556 9.14787 40.8521 16.2444 40.8521 24.9983C40.8521 33.7522 33.7556 40.8487 25.0017 40.8487C16.2477 40.8487 9.14786 33.7556 9.14786 25.0016C9.14786 16.2477 16.2477 9.14787 25.0017 9.14787Z" fill="#0176BD"/>
<path d="M25.0017 9.28316C33.6812 9.28316 40.7202 16.3188 40.7202 25.0016C40.7202 33.6845 33.6846 40.7167 25.0017 40.7167C16.3188 40.7167 9.28316 33.6811 9.28316 25.0016C9.28316 16.3221 16.3188 9.28316 25.0017 9.28316Z" fill="#0477BC"/>
<path d="M25.0017 9.41847C33.6068 9.41847 40.5849 16.3966 40.5849 25.0016C40.5849 33.6067 33.6068 40.5848 25.0017 40.5848C16.3966 40.5848 9.41846 33.6067 9.41846 25.0016C9.41846 16.3966 16.3932 9.41847 25.0017 9.41847Z" fill="#0478BD"/>
<path d="M25.0017 9.55377C33.5323 9.55377 40.4496 16.471 40.4496 25.0016C40.4496 33.5323 33.5323 40.4495 25.0017 40.4495C16.471 40.4495 9.55376 33.5323 9.55376 25.0016C9.55376 16.471 16.4676 9.55377 25.0017 9.55377Z" fill="#0479BE"/>
<path d="M25.0017 9.68568C33.4579 9.68568 40.3143 16.542 40.3143 24.9983C40.3143 33.4545 33.4579 40.3109 25.0017 40.3109C16.5454 40.3109 9.68568 33.4579 9.68568 25.0016C9.68568 16.5454 16.542 9.68568 25.0017 9.68568Z" fill="#0579BE"/>
<path d="M25.0017 9.82098C33.3835 9.82098 40.1823 16.6164 40.1823 25.0016C40.1823 33.3869 33.3869 40.1823 25.0017 40.1823C16.6164 40.1823 9.82098 33.3835 9.82098 25.0016C9.82098 16.6198 16.6164 9.82098 25.0017 9.82098Z" fill="#057ABF"/>
<path d="M25.0017 9.82098C33.3835 9.82098 40.1823 16.6164 40.1823 25.0016C40.1823 33.3869 33.3869 40.1823 25.0017 40.1823C16.6164 40.1823 9.82098 33.3835 9.82098 25.0016C9.82098 16.6198 16.6164 9.82098 25.0017 9.82098Z" fill="#047BC0"/>
<path d="M25.0017 9.95628C33.3125 9.95628 40.047 16.6908 40.047 25.0016C40.047 33.3125 33.3125 40.047 25.0017 40.047C16.6908 40.047 9.95628 33.3091 9.95628 25.0016C9.95628 16.6942 16.6908 9.95628 25.0017 9.95628Z" fill="#047CC1"/>
<path d="M25.0017 10.0882C33.2381 10.0882 39.9117 16.7653 39.9117 24.9983C39.9117 33.2313 33.2347 39.9083 25.0017 39.9083C16.7686 39.9083 10.0882 33.2347 10.0882 25.0016C10.0882 16.7686 16.7653 10.0882 25.0017 10.0882Z" fill="#067DC0"/>
<path d="M25.0017 10.2235C33.1636 10.2235 39.7798 16.8397 39.7798 25.0016C39.7798 33.1636 33.1636 39.7798 25.0017 39.7798C16.8397 39.7798 10.2235 33.1602 10.2235 25.0016C10.2235 16.8431 16.8397 10.2235 25.0017 10.2235Z" fill="#067EC2"/>
<path d="M25.0017 10.3588C33.0892 10.3588 39.6445 16.9141 39.6445 25.0016C39.6445 33.0892 33.0892 39.6445 25.0017 39.6445C16.9141 39.6445 10.3588 33.0858 10.3588 25.0016C10.3588 16.9175 16.9141 10.3588 25.0017 10.3588Z" fill="#057FC3"/>
<path d="M25.0017 10.4941C33.0148 10.4941 39.5092 16.9885 39.5092 25.0016C39.5092 33.0148 33.0148 39.5092 25.0017 39.5092C16.9885 39.5092 10.4941 33.0114 10.4941 25.0016C10.4941 16.9919 16.9885 10.4941 25.0017 10.4941Z" fill="#047FC4"/>
<path d="M25.0017 10.626C32.9404 10.626 39.3739 17.0629 39.3739 24.9983C39.3739 32.9336 32.937 39.3705 25.0017 39.3705C17.0663 39.3705 10.626 32.9404 10.626 25.0016C10.626 17.0629 17.0629 10.626 25.0017 10.626Z" fill="#0580C3"/>
<path d="M25.0017 10.7613C32.866 10.7613 39.242 17.1373 39.242 25.0016C39.242 32.866 32.866 39.242 25.0017 39.242C17.1373 39.242 10.7613 32.866 10.7613 25.0016C10.7613 17.1373 17.1373 10.7613 25.0017 10.7613Z" fill="#0481C5"/>
<path d="M25.0017 10.7613C32.866 10.7613 39.242 17.1373 39.242 25.0016C39.242 32.866 32.866 39.242 25.0017 39.242C17.1373 39.242 10.7613 32.866 10.7613 25.0016C10.7613 17.1373 17.1373 10.7613 25.0017 10.7613Z" fill="#0482C6"/>
<path d="M25.0017 10.8966C32.7916 10.8966 39.1067 17.2117 39.1067 25.0016C39.1067 32.7915 32.7916 39.1067 25.0017 39.1067C17.2118 39.1067 10.8966 32.7915 10.8966 25.0016C10.8966 17.2117 17.2118 10.8966 25.0017 10.8966Z" fill="#0483C5"/>
<path d="M25.0017 11.0285C32.7172 11.0285 38.9714 17.2828 38.9714 24.9983C38.9714 32.7137 32.7172 38.968 25.0017 38.968C17.2862 38.968 11.0285 32.7171 11.0285 25.0016C11.0285 17.2862 17.2862 11.0285 25.0017 11.0285Z" fill="#0384C6"/>
<path d="M25.0017 11.1638C32.6427 11.1638 38.8395 17.3572 38.8395 25.0016C38.8395 32.6461 32.6461 38.8395 25.0017 38.8395C17.3572 38.8395 11.1638 32.6427 11.1638 25.0016C11.1638 17.3606 17.3606 11.1638 25.0017 11.1638Z" fill="#0285C7"/>
<path d="M25.0017 11.2991C32.5683 11.2991 38.7042 17.435 38.7042 25.0016C38.7042 32.5683 32.5683 38.7042 25.0017 38.7042C17.435 38.7042 11.2991 32.5683 11.2991 25.0016C11.2991 17.435 17.4316 11.2991 25.0017 11.2991Z" fill="#0286C8"/>
<path d="M25.0017 11.4344C32.4939 11.4344 38.5689 17.5094 38.5689 25.0016C38.5689 32.4939 32.4939 38.5689 25.0017 38.5689C17.5094 38.5689 11.4344 32.4939 11.4344 25.0016C11.4344 17.5094 17.506 11.4344 25.0017 11.4344Z" fill="#0286C8"/>
<path d="M25.0017 11.5664C32.4195 11.5664 38.4336 17.5804 38.4336 24.9983C38.4336 32.4161 32.4195 38.4302 25.0017 38.4302C17.5838 38.4302 11.5664 32.4195 11.5664 25.0016C11.5664 17.5838 17.5804 11.5664 25.0017 11.5664Z" fill="#0287C9"/>
<path d="M25.0017 11.7017C32.3451 11.7017 38.3017 17.6549 38.3017 25.0016C38.3017 32.3484 32.3485 38.3016 25.0017 38.3016C17.6549 38.3016 11.7017 32.3451 11.7017 25.0016C11.7017 17.6582 17.6549 11.7017 25.0017 11.7017Z" fill="#0187C9"/>
<path d="M25.0017 11.837C32.2707 11.837 38.1664 17.7327 38.1664 25.0016C38.1664 32.2706 32.2707 38.1663 25.0017 38.1663C17.7327 38.1663 11.837 32.2706 11.837 25.0016C11.837 17.7327 17.7293 11.837 25.0017 11.837Z" fill="#0288CA"/>
<path d="M25.0017 11.837C32.2707 11.837 38.1664 17.7327 38.1664 25.0016C38.1664 32.2706 32.2707 38.1663 25.0017 38.1663C17.7327 38.1663 11.837 32.2706 11.837 25.0016C11.837 17.7327 17.7293 11.837 25.0017 11.837Z" fill="#0089CB"/>
<path d="M25.0017 11.9689C32.1996 11.9689 38.0311 17.8037 38.0311 24.9983C38.0311 32.1928 32.1962 38.0277 25.0017 38.0277C17.8071 38.0277 11.9689 32.1962 11.9689 25.0016C11.9689 17.8071 17.8037 11.9689 25.0017 11.9689Z" fill="#018ACB"/>
<path d="M25.0017 12.1042C32.1252 12.1042 37.8991 17.8781 37.8991 25.0016C37.8991 32.1252 32.1252 37.8957 25.0017 37.8957C17.8781 37.8957 12.1042 32.1218 12.1042 25.0016C12.1042 17.8815 17.8781 12.1042 25.0017 12.1042Z" fill="#018BCC"/>
<path d="M25.0017 12.2395C32.0508 12.2395 37.7639 17.9525 37.7639 25.0016C37.7639 32.0508 32.0508 37.7638 25.0017 37.7638C17.9525 37.7638 12.2395 32.0474 12.2395 25.0016C12.2395 17.9559 17.9525 12.2395 25.0017 12.2395Z" fill="#008CCD"/>
<path d="M25.0017 12.3748C31.9764 12.3748 37.6286 18.0269 37.6286 25.0016C37.6286 31.9764 31.9764 37.6285 25.0017 37.6285C18.0269 37.6285 12.3748 31.973 12.3748 25.0016C12.3748 18.0303 18.0269 12.3748 25.0017 12.3748Z" fill="#018DCD"/>
<path d="M25.0017 12.5067C31.902 12.5067 37.4933 18.1013 37.4933 24.9983C37.4933 31.8952 31.8986 37.4898 25.0017 37.4898C18.1047 37.4898 12.5067 31.9019 12.5067 25.0016C12.5067 18.1013 18.1014 12.5067 25.0017 12.5067Z" fill="#028ECE"/>
<path d="M25.0017 12.642C31.8276 12.642 37.3613 18.1758 37.3613 25.0016C37.3613 31.8275 31.8276 37.3613 25.0017 37.3613C18.1758 37.3613 12.642 31.8275 12.642 25.0016C12.642 18.1758 18.1758 12.642 25.0017 12.642Z" fill="#028FCF"/>
<path d="M25.0017 12.7773C31.7531 12.7773 37.226 18.2502 37.226 25.0016C37.226 31.7531 31.7531 37.226 25.0017 37.226C18.2502 37.226 12.7773 31.7531 12.7773 25.0016C12.7773 18.2502 18.2502 12.7773 25.0017 12.7773Z" fill="#0090CF"/>
<path d="M25.0017 12.7773C31.7531 12.7773 37.226 18.2502 37.226 25.0016C37.226 31.7531 31.7531 37.226 25.0017 37.226C18.2502 37.226 12.7773 31.7531 12.7773 25.0016C12.7773 18.2502 18.2502 12.7773 25.0017 12.7773Z" fill="#0091D0"/>
<path d="M25.0017 12.9092C31.6787 12.9092 37.0907 18.3212 37.0907 24.9983C37.0907 31.6753 31.6787 37.0873 25.0017 37.0873C18.3246 37.0873 12.9092 31.6787 12.9092 25.0016C12.9092 18.3246 18.3246 12.9092 25.0017 12.9092Z" fill="#0092D1"/>
<path d="M25.0017 13.0445C31.6043 13.0445 36.9588 18.3956 36.9588 25.0016C36.9588 31.6077 31.6077 36.9588 25.0017 36.9588C18.3956 36.9588 13.0445 31.6077 13.0445 25.0016C13.0445 18.3956 18.399 13.0445 25.0017 13.0445Z" fill="#0093D1"/>
<path d="M25.0017 13.1798C31.5299 13.1798 36.8235 18.4734 36.8235 25.0016C36.8235 31.5299 31.5299 36.8235 25.0017 36.8235C18.4734 36.8235 13.1798 31.5299 13.1798 25.0016C13.1798 18.4734 18.4734 13.1798 25.0017 13.1798Z" fill="#0094D2"/>
<path d="M25.0017 13.3151C31.4555 13.3151 36.6882 18.5478 36.6882 25.0016C36.6882 31.4555 31.4555 36.6882 25.0017 36.6882C18.5478 36.6882 13.3151 31.4555 13.3151 25.0016C13.3151 18.5478 18.5445 13.3151 25.0017 13.3151Z" fill="#0095D3"/>
<path d="M25.0017 13.447C31.3811 13.447 36.5529 18.6189 36.5529 24.9983C36.5529 31.3777 31.3811 36.5495 25.0017 36.5495C18.6223 36.5495 13.4504 31.3777 13.4504 24.9983C13.4504 18.6189 18.6189 13.447 25.0017 13.447Z" fill="#0095D4"/>
<path d="M25.0017 13.5823C31.3067 13.5823 36.421 18.6933 36.421 25.0016C36.421 31.31 31.31 36.421 25.0017 36.421C18.6933 36.421 13.5823 31.31 13.5823 25.0016C13.5823 18.6933 18.6933 13.5823 25.0017 13.5823Z" fill="#0096D4"/>
<path d="M25.0017 13.7176C31.2322 13.7176 36.2857 18.7711 36.2857 25.0016C36.2857 31.2322 31.2322 36.2857 25.0017 36.2857C18.7711 36.2857 13.7176 31.2322 13.7176 25.0016C13.7176 18.7711 18.7677 13.7176 25.0017 13.7176Z" fill="#0097D5"/>
<path d="M25.0017 13.8495C31.1578 13.8495 36.1504 18.8421 36.1504 24.9983C36.1504 31.1544 31.1578 36.147 25.0017 36.147C18.8455 36.147 13.8529 31.1544 13.8529 24.9983C13.8529 18.8421 18.8421 13.8495 25.0017 13.8495Z" fill="#0098D6"/>
<path d="M25.0017 13.8495C31.1578 13.8495 36.1504 18.8421 36.1504 24.9983C36.1504 31.1544 31.1578 36.147 25.0017 36.147C18.8455 36.147 13.8529 31.1544 13.8529 24.9983C13.8529 18.8421 18.8421 13.8495 25.0017 13.8495Z" fill="#0099D7"/>
<path d="M25.0017 13.9848C31.0868 13.9848 36.0185 18.9165 36.0185 25.0016C36.0185 31.0868 31.0868 36.0185 25.0017 36.0185C18.9165 36.0185 13.9848 31.0868 13.9848 25.0016C13.9848 18.9165 18.9165 13.9848 25.0017 13.9848Z" fill="#009AD7"/>
<path d="M25.0017 14.1201C31.0124 14.1201 35.8832 18.9909 35.8832 25.0016C35.8832 31.0124 31.0124 35.8832 25.0017 35.8832C18.991 35.8832 14.1201 31.0124 14.1201 25.0016C14.1201 18.9909 18.991 14.1201 25.0017 14.1201Z" fill="#009BD8"/>
<path d="M25.0017 14.2554C30.938 14.2554 35.7479 19.0654 35.7479 25.0016C35.7479 30.9379 30.938 35.7479 25.0017 35.7479C19.0654 35.7479 14.2554 30.9379 14.2554 25.0016C14.2554 19.0654 19.0654 14.2554 25.0017 14.2554Z" fill="#009CD9"/>
<path d="M25.0017 14.3874C30.8635 14.3874 35.6126 19.1398 35.6126 24.9983C35.6126 30.8568 30.8602 35.6092 25.0017 35.6092C19.1432 35.6092 14.3907 30.8568 14.3907 24.9983C14.3907 19.1398 19.1432 14.3874 25.0017 14.3874Z" fill="#009DD9"/>
<path d="M25.0017 14.5227C30.7891 14.5227 35.4807 19.2142 35.4807 25.0016C35.4807 30.7891 30.7891 35.4806 25.0017 35.4806C19.2142 35.4806 14.5227 30.7891 14.5227 25.0016C14.5227 19.2142 19.2142 14.5227 25.0017 14.5227Z" fill="#009EDA"/>
<path d="M25.0017 14.658C30.7147 14.658 35.3454 19.2886 35.3454 25.0016C35.3454 30.7147 30.7147 35.3453 25.0017 35.3453C19.2886 35.3453 14.658 30.7147 14.658 25.0016C14.658 19.2886 19.2886 14.658 25.0017 14.658Z" fill="#009FDB"/>
<path d="M25.0017 14.7899C30.6403 14.7899 35.2101 19.3596 35.2101 24.9983C35.2101 30.6369 30.6403 35.2067 25.0017 35.2067C19.363 35.2067 14.7933 30.6369 14.7933 24.9983C14.7933 19.3596 19.363 14.7899 25.0017 14.7899Z" fill="#00A0DC"/>
<path d="M25.0017 14.7899C30.6403 14.7899 35.2101 19.3596 35.2101 24.9983C35.2101 30.6369 30.6403 35.2067 25.0017 35.2067C19.363 35.2067 14.7933 30.6369 14.7933 24.9983C14.7933 19.3596 19.363 14.7899 25.0017 14.7899Z" fill="#00A1DC"/>
<path d="M25.0017 14.9252C30.5659 14.9252 35.0781 19.4374 35.0781 25.0016C35.0781 30.5659 30.5659 35.0781 25.0017 35.0781C19.4374 35.0781 14.9252 30.5692 14.9252 25.0016C14.9252 19.4341 19.4374 14.9252 25.0017 14.9252Z" fill="#00A2DD"/>
<path d="M25.0017 15.0605C30.4915 15.0605 34.9428 19.5119 34.9428 25.0016C34.9428 30.4914 30.4915 34.9428 25.0017 34.9428C19.5119 34.9428 15.0605 30.4914 15.0605 25.0016C15.0605 19.5119 19.5119 15.0605 25.0017 15.0605Z" fill="#00A3DE"/>
<path d="M25.0017 15.1958C30.4171 15.1958 34.8075 19.5863 34.8075 25.0016C34.8075 30.417 30.4171 34.8075 25.0017 34.8075C19.5863 34.8075 15.1958 30.417 15.1958 25.0016C15.1958 19.5863 19.5863 15.1958 25.0017 15.1958Z" fill="#00A5DF"/>
<path d="M25.0017 15.3277C30.3426 15.3277 34.6722 19.6573 34.6722 24.9983C34.6722 30.3392 30.3426 34.6688 25.0017 34.6688C19.6607 34.6688 15.3311 30.3392 15.3311 24.9983C15.3311 19.6573 19.6607 15.3277 25.0017 15.3277Z" fill="#00A6E0"/>
<path d="M25.0017 15.463C30.2682 15.463 34.5403 19.7317 34.5403 25.0016C34.5403 30.2716 30.2716 34.5403 25.0017 34.5403C19.7317 34.5403 15.463 30.2682 15.463 25.0016C15.463 19.7351 19.7317 15.463 25.0017 15.463Z" fill="#00A7E0"/>
<path d="M25.0017 15.5983C30.1938 15.5983 34.405 19.8095 34.405 25.0016C34.405 30.1938 30.1938 34.405 25.0017 34.405C19.8095 34.405 15.5983 30.1938 15.5983 25.0016C15.5983 19.8095 19.8095 15.5983 25.0017 15.5983Z" fill="#00A8E1"/>
<path d="M25.0017 15.7302C30.1194 15.7302 34.2697 19.8805 34.2697 24.9983C34.2697 30.116 30.1194 34.2663 25.0017 34.2663C19.8839 34.2663 15.7336 30.116 15.7336 24.9983C15.7336 19.8805 19.8839 15.7302 25.0017 15.7302Z" fill="#00A9E2"/>
<path d="M25.0017 15.8655C30.045 15.8655 34.1378 19.955 34.1378 25.0016C34.1378 30.0483 30.0484 34.1378 25.0017 34.1378C19.955 34.1378 15.8655 30.0483 15.8655 25.0016C15.8655 19.955 19.955 15.8655 25.0017 15.8655Z" fill="#00AAE3"/>
<path d="M25.0017 15.8655C30.045 15.8655 34.1378 19.955 34.1378 25.0016C34.1378 30.0483 30.0484 34.1378 25.0017 34.1378C19.955 34.1378 15.8655 30.0483 15.8655 25.0016C15.8655 19.955 19.955 15.8655 25.0017 15.8655Z" fill="#00ABE3"/>
<path d="M25.0017 16.0008C29.9739 16.0008 34.0025 20.0294 34.0025 25.0016C34.0025 29.9739 29.9739 34.0025 25.0017 34.0025C20.0294 34.0025 16.0008 29.9739 16.0008 25.0016C16.0008 20.0294 20.0294 16.0008 25.0017 16.0008Z" fill="#00ABE4"/>
<path d="M25.0017 16.1361C29.8995 16.1361 33.8672 20.1072 33.8672 25.0016C33.8672 29.8961 29.8961 33.8672 25.0017 33.8672C20.1072 33.8672 16.1361 29.8995 16.1361 25.0016C16.1361 20.1038 20.1072 16.1361 25.0017 16.1361Z" fill="#00ACE4"/>
<path d="M25.0017 16.268C29.8251 16.268 33.7319 20.1782 33.7319 24.9983C33.7319 29.8183 29.8217 33.7285 25.0017 33.7285C20.1816 33.7285 16.2714 29.8183 16.2714 24.9983C16.2714 20.1782 20.1816 16.268 25.0017 16.268Z" fill="#00ADE5"/>
<path d="M25.0017 16.4033C29.7507 16.4033 33.6 20.2526 33.6 25.0016C33.6 29.7507 29.7507 33.6 25.0017 33.6C20.2526 33.6 16.4033 29.7507 16.4033 25.0016C16.4033 20.2526 20.2526 16.4033 25.0017 16.4033Z" fill="#00AEE6"/>
<path d="M25.0017 16.5386C29.6763 16.5386 33.4647 20.327 33.4647 25.0016C33.4647 29.6763 29.6763 33.4647 25.0017 33.4647C20.327 33.4647 16.5386 29.6763 16.5386 25.0016C16.5386 20.327 20.327 16.5386 25.0017 16.5386Z" fill="#00AFE6"/>
<path d="M25.0017 16.6705C29.6019 16.6705 33.3294 20.3981 33.3294 24.9983C33.3294 29.5985 29.6019 33.326 25.0017 33.326C20.4015 33.326 16.6739 29.5985 16.6739 24.9983C16.6739 20.3981 20.4015 16.6705 25.0017 16.6705Z" fill="#00B0E7"/>
<path d="M25.0017 16.8058C29.5275 16.8058 33.1975 20.4759 33.1975 25.0016C33.1975 29.5274 29.5275 33.1974 25.0017 33.1974C20.4759 33.1974 16.8059 29.5274 16.8059 25.0016C16.8059 20.4759 20.4759 16.8058 25.0017 16.8058Z" fill="#00B1E8"/>
<path d="M25.0017 16.8058C29.5275 16.8058 33.1975 20.4759 33.1975 25.0016C33.1975 29.5274 29.5275 33.1974 25.0017 33.1974C20.4759 33.1974 16.8059 29.5274 16.8059 25.0016C16.8059 20.4759 20.4759 16.8058 25.0017 16.8058Z" fill="#00B2E9"/>
<path d="M25.0017 16.9411C29.453 16.9411 33.0622 20.5503 33.0622 25.0016C33.0622 29.453 29.453 33.0622 25.0017 33.0622C20.5503 33.0622 16.9412 29.453 16.9412 25.0016C16.9412 20.5503 20.5503 16.9411 25.0017 16.9411Z" fill="#00B3E9"/>
<path d="M25.0017 17.0764C29.3786 17.0764 32.9269 20.6247 32.9269 25.0016C32.9269 29.3786 29.3786 32.9268 25.0017 32.9268C20.6247 32.9268 17.0765 29.3786 17.0765 25.0016C17.0765 20.6247 20.6247 17.0764 25.0017 17.0764Z" fill="#00B5EA"/>
<path d="M25.0017 17.2084C29.3042 17.2084 32.7916 20.6957 32.7916 24.9983C32.7916 29.3008 29.3042 32.7882 25.0017 32.7882C20.6991 32.7882 17.2118 29.3008 17.2118 24.9983C17.2118 20.6957 20.6991 17.2084 25.0017 17.2084Z" fill="#00B6EB"/>
<path d="M25.0017 17.3437C29.2298 17.3437 32.6597 20.7735 32.6597 25.0016C32.6597 29.2298 29.2298 32.6596 25.0017 32.6596C20.7735 32.6596 17.3437 29.2332 17.3437 25.0016C17.3437 20.7701 20.7735 17.3437 25.0017 17.3437Z" fill="#00B7EC"/>
<path d="M25.0017 17.479C29.1554 17.479 32.5244 20.8479 32.5244 25.0016C32.5244 29.1554 29.1554 32.5243 25.0017 32.5243C20.8479 32.5243 17.479 29.1554 17.479 25.0016C17.479 20.8479 20.8479 17.479 25.0017 17.479Z" fill="#00B8ED"/>
<path d="M25.0017 17.6109C29.081 17.6109 32.3891 20.919 32.3891 24.9983C32.3891 29.0776 29.081 32.3856 25.0017 32.3856C20.9224 32.3856 17.6143 29.0776 17.6143 24.9983C17.6143 20.919 20.9224 17.6109 25.0017 17.6109Z" fill="#00B9ED"/>
<path d="M25.0017 15.7302C30.1194 15.7302 34.2697 19.8805 34.2697 24.9983C34.2697 30.116 30.1194 34.2663 25.0017 34.2663C19.8839 34.2663 15.7336 30.116 15.7336 24.9983C15.7336 19.8805 19.8839 15.7302 25.0017 15.7302Z" fill="#010402"/>
<path d="M18.8218 12.1042C21.0475 12.1042 22.8504 13.907 22.8504 16.1327C22.8504 18.3584 21.0475 20.1613 18.8218 20.1613C16.5961 20.1613 14.7933 18.3584 14.7933 16.1327C14.7933 13.907 16.5961 12.1042 18.8218 12.1042Z" fill="white"/>
</svg>
