<svg width="50" height="50" viewBox="0 0 50 50" fill="none" xmlns="http://www.w3.org/2000/svg">
<path d="M36.6423 10.9948H10.9677C9.88071 10.9948 8.99951 11.876 8.99951 12.963V38.6376C8.99951 39.7246 9.88071 40.6058 10.9677 40.6058H36.6423C37.7293 40.6058 38.6105 39.7246 38.6105 38.6376V12.963C38.6105 11.876 37.7293 10.9948 36.6423 10.9948Z" fill="#B3E3FC"/>
<path d="M39.0313 9H13.3567C12.2697 9 11.3885 9.88119 11.3885 10.9682V36.6428C11.3885 37.7298 12.2697 38.611 13.3567 38.611H39.0313C40.1183 38.611 40.9995 37.7298 40.9995 36.6428V10.9682C40.9995 9.88119 40.1183 9 39.0313 9Z" fill="#00A4F7"/>
<path d="M26.519 22.0257C26.4328 22.0523 26.4484 22.1779 26.5391 22.1797L27.1543 22.1935C27.7236 22.2063 28.2919 22.2265 28.8612 22.2485C29.3599 22.2677 29.8558 22.3236 30.3454 22.4208C30.7973 22.5097 31.2438 22.6151 31.6123 22.9076C31.846 23.0928 31.9707 23.3201 31.9616 23.6235C31.9506 23.9636 31.8882 24.2927 31.7883 24.6173C31.538 25.4276 31.0843 26.1207 30.5562 26.7706C29.8962 27.5829 26.211 30.3926 25.407 31.0591C24.5407 31.5633 23.6836 32.0821 22.8072 32.5662C21.9299 33.0511 21.0397 33.5131 20.1432 33.9614C19.2512 34.4069 18.3446 34.8213 17.4609 35.2421C17.4572 35.243 17.4719 35.2393 17.4856 35.2347C17.9577 35.0587 18.4289 34.8763 18.9038 34.7058C20.6245 34.0879 22.3406 33.4563 24.0099 32.7082C24.9587 32.2829 25.8929 31.8264 26.8316 31.379C27.0653 31.2232 30.5947 29.1825 30.8166 29.0313C31.813 28.3502 32.7637 27.6113 33.6337 26.7716C34.3203 26.1097 34.9464 25.3956 35.4258 24.565C35.7934 23.9288 36.0675 23.2669 36.0336 22.5088C36.0125 22.0367 35.854 21.6269 35.5294 21.2841C35.1609 20.8954 34.6888 20.7084 34.1773 20.6048C33.4778 20.4636 32.0386 20.5608 31.3474 20.7038C30.8065 20.8156 30.4306 20.8092 26.519 22.0257Z" fill="#BCE5FC"/>
<path d="M31.5215 31.919C31.1228 31.919 30.7212 31.9107 30.3188 31.8942C29.6899 31.8685 29.0555 31.8154 28.4432 31.764C28.1187 31.7365 27.7914 31.6971 27.476 31.6586L27.1964 31.6247L25.3465 31.2956C24.2437 31.0453 23.2472 30.729 22.2993 30.3266C21.4953 29.9856 20.7968 29.5914 20.1643 29.1239C19.1925 28.4052 18.4289 27.5489 17.8945 26.5781C17.4306 25.7357 17.1308 24.7914 17.0025 23.7711C16.9172 23.0909 16.9026 22.4245 16.9594 21.7883C17.0932 20.2903 17.6094 18.951 18.4958 17.8069C19.0779 17.0552 19.815 16.397 20.8133 15.7352C21.7823 15.0934 22.8328 14.6773 23.6405 14.3867C24.7644 13.9824 25.9644 13.6716 27.2093 13.4626C28.0802 13.3168 28.8713 13.2059 29.6267 13.1243C30.2024 13.062 30.7881 13.0372 31.3547 13.0134L31.5894 13.0033C32.0386 12.9841 32.5611 12.9639 33.08 12.9804C33.5704 12.996 34.0654 13.0336 34.544 13.0702L34.8648 13.0941C35.2434 13.1216 35.3177 13.2967 35.3177 13.59V13.9182C35.3177 14.2189 35.3177 14.5205 35.3186 14.8212C35.3186 14.8661 35.3195 15.0027 35.2141 15.1063C35.1077 15.2099 34.9711 15.2062 34.9262 15.2053C34.8144 15.2025 34.7025 15.1989 34.5898 15.1952C34.1507 15.1815 33.6969 15.1677 33.2541 15.1769C32.6674 15.1897 32.089 15.2355 31.6004 15.2786C30.8496 15.3446 30.0603 15.4803 29.2554 15.682C28.2323 15.9377 27.3605 16.2659 26.5896 16.6849C25.3777 17.3431 24.4985 18.1828 23.9017 19.2508C23.591 19.8072 23.381 20.4462 23.2591 21.2052C23.0602 22.4465 23.1381 23.6327 23.4892 24.7291C23.7184 25.446 24.1007 26.0904 24.6571 26.7001C25.1861 27.2794 25.858 27.7662 26.7711 28.231C27.2753 28.4877 27.8051 28.6683 28.2103 28.7966C28.3148 28.8296 29.5194 29.1395 30.3023 29.2751H30.306C30.3353 29.2815 30.371 29.2843 30.4086 29.288C30.4407 29.2907 30.4728 29.2935 30.504 29.298C31.5802 29.442 32.7298 29.508 34.2323 29.5135C34.3084 29.5135 34.3844 29.5181 34.4605 29.5226C34.5155 29.5254 34.5696 29.5291 34.6246 29.53C34.8437 29.5346 34.9895 29.6849 34.9876 29.904C34.984 30.4018 34.9803 30.8996 34.9794 31.3973C34.9794 31.6082 34.8419 31.7539 34.6292 31.7686C34.4055 31.7842 34.1828 31.8007 33.9591 31.8172C33.8152 31.8282 33.6712 31.8383 33.5282 31.8493C32.8709 31.8969 32.199 31.9208 31.5206 31.9208L31.5215 31.919ZM27.2854 31.0811L27.543 31.1122C27.8537 31.1498 28.1755 31.1892 28.4899 31.2158C29.0968 31.2672 29.7248 31.3194 30.3417 31.3451C31.4079 31.3882 32.4667 31.3735 33.4897 31.2992C33.6327 31.2892 33.7767 31.2782 33.9197 31.2672C34.0902 31.2543 34.2607 31.2415 34.4312 31.2296C34.4321 30.8427 34.4349 30.4568 34.4376 30.0699C34.4349 30.0699 34.433 30.0699 34.4303 30.0699C34.3643 30.0663 34.2974 30.0626 34.2314 30.0617C32.7041 30.0562 31.5325 29.9883 30.4325 29.8417C30.4086 29.8389 30.3848 29.8362 30.36 29.8343C30.3142 29.8307 30.262 29.8252 30.2079 29.8151C29.4158 29.6776 28.1902 29.365 28.0453 29.3191C27.62 29.1844 27.0626 28.9946 26.5226 28.7196C25.5491 28.2236 24.8276 27.6993 24.2519 27.0695C23.6496 26.4095 23.2169 25.6779 22.9667 24.8959C22.589 23.7161 22.5047 22.4446 22.7173 21.1172C22.8493 20.2931 23.0804 19.5945 23.4232 18.9813C24.0722 17.8198 25.0229 16.9095 26.3283 16.2008C27.1405 15.7599 28.0545 15.4152 29.1234 15.1475C29.9567 14.9394 30.7744 14.7983 31.5536 14.7295C32.0505 14.6855 32.6408 14.6388 33.244 14.6259C33.7006 14.6158 34.1626 14.6305 34.609 14.6443C34.6622 14.6461 34.7163 14.6479 34.7695 14.6488C34.7695 14.4022 34.7695 14.1593 34.7695 13.9164V13.6377L34.5036 13.6175C34.0315 13.5818 33.5429 13.5442 33.0644 13.5295C32.5638 13.5139 32.0532 13.5332 31.615 13.5524L31.3794 13.5625C30.8221 13.5864 30.2464 13.6102 29.6872 13.6707C28.9428 13.7514 28.1627 13.8605 27.3019 14.0044C26.09 14.2079 24.9211 14.5104 23.8284 14.9037C23.0501 15.1842 22.039 15.5839 21.1186 16.1935C20.1707 16.8215 19.4758 17.4412 18.9322 18.1443C18.1117 19.2031 17.6332 20.4453 17.5094 21.8378C17.4563 22.4346 17.47 23.0616 17.5507 23.7033C17.6699 24.6539 17.9485 25.5322 18.3785 26.3132C18.8818 27.2263 19.573 28.0009 20.4934 28.682C21.0911 29.1239 21.7529 29.497 22.5166 29.8215C23.4315 30.2102 24.3959 30.5173 25.4638 30.7593L27.2872 31.0829L27.2854 31.0811Z" fill="white"/>
<path d="M30.2555 29.2696C30.3252 29.2825 30.3985 29.2852 30.4682 29.2944C31.7177 29.4612 32.9736 29.508 34.2323 29.5116C34.3615 29.5116 34.4908 29.5254 34.6191 29.5281C34.687 29.53 34.7136 29.5575 34.7136 29.6244C34.7099 30.1231 34.7062 30.6209 34.7053 31.1196C34.7053 31.1874 34.6778 31.2131 34.6118 31.2177C34.2442 31.2433 33.8775 31.2717 33.5099 31.2983C32.4511 31.3744 31.3904 31.3882 30.3307 31.3442C29.7083 31.3185 29.0876 31.2662 28.467 31.2149C28.0591 31.181 27.652 31.1269 27.2459 31.0783L25.4088 30.752C24.3812 30.5191 23.3792 30.2102 22.4084 29.7977C21.6714 29.4841 20.9737 29.1028 20.3293 28.6261C19.4281 27.9596 18.6801 27.1557 18.1374 26.1693C17.6717 25.3231 17.3976 24.4174 17.2775 23.4604C17.1968 22.8196 17.1785 22.1788 17.2353 21.5362C17.3618 20.1162 17.8385 18.83 18.7149 17.6988C19.342 16.8893 20.1184 16.2503 20.9673 15.6875C21.829 15.1164 22.7696 14.7158 23.7358 14.3683C24.8808 13.9558 26.0579 13.6579 27.2569 13.4562C28.0536 13.3223 28.8548 13.2068 29.6578 13.1197C30.3032 13.0501 30.9541 13.0281 31.6031 12.9997C32.0926 12.9786 32.584 12.9621 33.0735 12.9767C33.6648 12.9951 34.2561 13.0464 34.8465 13.0895C35.0427 13.1042 35.0445 13.117 35.0445 13.3113C35.0445 13.722 35.0427 14.1336 35.0454 14.5443C35.0454 14.6259 35.0271 14.6534 34.9363 14.6507C34.3744 14.6351 33.8115 14.6103 33.2505 14.6223C32.6922 14.6342 32.1348 14.6763 31.5784 14.7249C30.7717 14.7955 29.9759 14.9385 29.1903 15.1356C28.2406 15.373 27.3229 15.6948 26.4603 16.1633C25.2869 16.8013 24.3225 17.6584 23.6634 18.8364C23.3068 19.4754 23.1042 20.1657 22.9896 20.8816C22.7925 22.1155 22.8466 23.3366 23.2298 24.5329C23.481 25.3158 23.9027 25.9988 24.4564 26.6056C25.0788 27.2877 25.8342 27.7818 26.6492 28.1961C27.124 28.4382 27.6236 28.6178 28.1306 28.7792C28.2534 28.8186 29.4672 29.1294 30.2583 29.2669" fill="white"/>
</svg>
