<svg width="50" height="50" viewBox="0 0 50 50" fill="none" xmlns="http://www.w3.org/2000/svg">
<path d="M14.4863 6.5777C11.5917 7.18624 9.24434 8.78737 7.68137 11.2452C6.71086 12.7576 6.07892 14.5419 5.68959 16.7752C5.37361 18.6658 5.4526 21.3067 5.92657 23.8472C6.67138 27.8589 8.76475 32.1423 11.7214 35.7167C13.8148 38.2395 17.426 40.7446 20.4503 41.7667C23.4916 42.8006 26.9053 42.7356 29.9354 41.6072C31.7917 40.9159 34.3309 39.3621 36.0123 37.9087C36.9208 37.1229 38.8167 35.1023 38.9013 34.8246C38.9239 34.7478 39.0931 34.5056 39.2681 34.2692C41.4009 31.5042 43.1162 27.8057 43.8385 24.4322C44.3689 21.9625 44.6228 19.3807 44.4422 18.4236C44.3802 18.1341 44.256 17.3896 44.1657 16.7752C43.3984 11.5642 40.594 8.03111 36.176 6.74904C35.4932 6.55998 35.1152 6.52453 33.3491 6.52453C31.4645 6.51271 31.2275 6.53635 30.2175 6.80222C28.5642 7.23942 26.7982 8.00158 25.3311 8.91734L24.9756 9.14184L23.802 8.50377C22.3124 7.67662 21.2911 7.25714 19.8353 6.85539C18.7858 6.5777 18.4811 6.53635 16.8279 6.50681C15.8235 6.48317 14.774 6.52453 14.4863 6.5777ZM18.6109 10.2467C19.4065 10.418 20.3544 10.7548 21.3249 11.192L21.9061 11.4697L20.8171 12.6513C20.2134 13.3012 19.6548 13.957 19.5645 14.1106C19.4742 14.2642 19.0962 14.8137 18.7181 15.3454C17.3696 17.2596 16.2185 19.4693 15.4624 21.6199C15.2762 22.1398 15.0843 22.6302 15.0336 22.6952C14.9038 22.8842 14.6781 23.7468 14.3677 25.2357C14.1138 26.5236 14.0913 26.8013 14.0913 29.2768C14.08 31.3742 14.1195 32.0714 14.2436 32.5972C14.3339 32.9694 14.3847 33.2648 14.3452 33.2648C14.2549 33.253 13.07 31.7228 12.5001 30.8602C9.89889 26.9549 8.55032 21.8503 9.06379 17.8091C9.24999 16.3734 9.83118 14.4592 10.3785 13.5139C11.1007 12.2259 12.6016 10.9379 13.9276 10.4535C15.1802 9.9808 16.9859 9.90992 18.6109 10.2467ZM35.4481 10.2999C39.4035 11.4047 41.525 15.9362 40.8028 21.6908C40.4022 24.8694 39.3527 27.7525 37.5922 30.5412C36.949 31.5515 35.6456 33.2826 35.5835 33.2235C35.5609 33.1999 35.6117 32.7686 35.6964 32.2427C36.0405 30.0213 35.9841 27.6403 35.5045 25.1293C35.2619 23.865 34.7823 22.0984 34.6469 21.9921C34.6187 21.9625 34.4324 21.5372 34.2406 21.035C34.0487 20.5328 33.7215 19.7588 33.4958 19.3039C33.0895 18.4413 32.83 18.2286 32.435 18.3881C32.3109 18.4295 30.6407 19.4929 28.7109 20.7514C26.7812 22.0039 25.0208 23.1324 24.7838 23.2505C24.5581 23.3687 24.3155 23.5459 24.2421 23.6345C24.0277 23.9004 24.1688 24.5799 24.5299 25.0998C24.7048 25.3538 24.9982 25.8028 25.1957 26.0983C25.5342 26.6182 25.7261 26.7777 26.0026 26.7777C26.1154 26.7777 28.4514 25.2652 30.2683 24.0009C30.7366 23.6818 31.1767 23.3746 31.2501 23.3391C31.4024 23.2446 31.7071 24.2313 32.0569 25.9742C32.8243 29.844 32.2206 33.7257 30.4771 36.1303C29.8564 36.9929 28.9874 37.7137 28 38.2041C26.911 38.7476 25.9574 38.9249 24.6032 38.8658C22.6453 38.7594 21.4322 38.2041 20.0554 36.7684C19.3331 36.0121 19.0961 35.6754 18.7576 34.9487C17.3582 31.906 17.1777 28.9105 18.1256 24.8871C19.604 18.5713 24.4396 12.6867 29.8056 10.678C30.4771 10.4357 31.7015 10.1344 32.5083 10.0281C33.1629 9.95126 34.6864 10.0872 35.4481 10.2999Z" fill="#72C2C9"/>
</svg>
