<svg width="50" height="50" viewBox="0 0 50 50" fill="none" xmlns="http://www.w3.org/2000/svg">
<path d="M42.1237 22.2592H31.5504C30.9382 22.2592 30.493 22.8557 30.6971 23.416L33.2384 29.8328C33.3497 30.122 33.1271 30.4293 32.8117 30.4112L29.5656 30.2123C29.4172 30.1943 29.2688 30.2666 29.1946 30.3931L26.6718 33.8816C26.542 34.0805 26.2637 34.1528 26.0597 34.0082L22.3127 31.5319C22.1643 31.4415 21.9602 31.4415 21.8304 31.5319L16.6365 34.9481C16.3026 35.165 15.8574 34.8577 15.9687 34.4781L17.4155 29.4532C17.4712 29.2363 17.3784 29.0375 17.1559 28.9471L14.4105 27.8626C14.1323 27.7541 14.0581 27.4288 14.2436 27.2118L16.655 24.2836C16.7663 24.139 16.7849 23.9402 16.6736 23.7775L14.6331 20.9035C14.4476 20.6324 14.6146 20.2709 14.967 20.2528L18.139 20.0179C18.3616 19.9998 18.5471 19.801 18.5471 19.566L18.2874 15.246C18.2688 14.9387 18.5842 14.7218 18.8995 14.8302L22.832 16.4209C22.999 16.4932 23.203 16.457 23.3143 16.3124L26.0226 13.3661C26.2452 13.1312 26.6347 13.2035 26.7646 13.4746L28.3969 17.5596C28.6195 18.0657 29.2688 18.2465 29.714 17.903L36.0765 13.2938C36.7999 12.7697 36.3362 11.649 35.4458 11.7755L31.2536 12.3178C31.0495 12.3539 30.864 12.2274 30.7898 12.0466L28.5824 6.53366C28.3413 5.95525 27.5807 5.81064 27.1356 6.2806L22.3497 11.3417C22.2199 11.4682 22.0344 11.5044 21.8675 11.4321L15.5606 8.8473C15.0041 8.6304 14.3734 9.00998 14.3549 9.60647L14.1323 15.9509C14.1137 16.1678 13.9468 16.3486 13.7242 16.3486L7.97379 16.7101C7.306 16.7462 6.93501 17.4873 7.306 18.0296L11.1272 23.5245C11.2385 23.6872 11.22 23.886 11.0901 24.0487L7.21325 28.3867C6.82371 28.8206 6.99066 29.4893 7.5286 29.7243L11.9805 31.6042C12.1846 31.6945 12.2773 31.8934 12.2217 32.0922L9.36501 42.9374C9.16096 43.7146 10.0513 44.293 10.7191 43.8412L21.4223 36.358C21.5707 36.2676 21.7747 36.2495 21.9231 36.358L26.8017 39.7019C27.2098 39.9911 27.7477 39.8646 28.0259 39.485L31.0681 34.93C31.1608 34.7854 31.3278 34.7131 31.4762 34.7493L38.7662 35.5988C39.3598 35.6892 39.9533 35.2011 39.7308 34.677L36.6886 27.0311C36.5959 26.8142 36.6886 26.5973 36.9483 26.4708L42.4946 23.9221C43.3479 23.4883 43.0511 22.2592 42.1237 22.2592Z" fill="#8039E9"/>
</svg>
