<svg width="50" height="50" viewBox="0 0 50 50" fill="none" xmlns="http://www.w3.org/2000/svg">
<path d="M41.5105 38.7406C41.456 39.092 41.4076 39.4436 41.3072 39.7873C40.8182 41.4651 39.2901 42.7398 37.5551 42.9641C35.5914 43.2181 33.992 42.0867 33.2196 40.7266C32.8021 39.9915 32.6105 39.2009 32.6108 38.3578C32.6121 29.4567 32.6127 20.5555 32.6108 11.6544C32.6102 9.35597 34.2366 7.42082 36.5007 7.03734C36.5806 7.02387 36.6651 7.04101 36.7404 7H37.4131C37.4838 7.03795 37.5627 7.02357 37.6374 7.03428C39.4917 7.29534 40.9495 8.60584 41.4055 10.4235C41.4437 10.5759 41.4753 10.7301 41.5101 10.8835L41.5105 38.7406Z" fill="#FCB100"/>
<path d="M29.6538 31.8558C29.6538 34.0673 29.6452 36.2791 29.6574 38.4906C29.6636 39.6328 29.2724 40.6164 28.5327 41.4639C27.6485 42.4769 26.5134 42.9816 25.1753 42.9895C23.6763 42.9987 22.5396 42.315 21.7332 41.0709C21.204 40.255 20.9537 39.3408 20.8337 38.3841C20.7759 37.9226 20.7722 37.4598 20.7722 36.9965C20.7731 33.0726 20.7719 29.1488 20.7734 25.2249C20.774 23.9309 21.2472 22.8215 22.1568 21.9165C23.0455 21.032 24.1259 20.5451 25.3975 20.5745C26.4023 20.5978 27.2853 20.9708 28.0461 21.62C28.9003 22.3487 29.4172 23.2748 29.6048 24.383C29.6467 24.63 29.655 24.8788 29.655 25.1288C29.6538 27.3709 29.6538 29.6137 29.6538 31.8558Z" fill="#E87A00"/>
<path d="M9.00092 38.4719C8.93909 36.1423 10.9269 34.1089 13.4292 34.0936C15.8806 34.0783 17.869 36.0805 17.8852 38.531C17.9005 40.8567 16.0284 42.9819 13.4503 42.9874C10.873 42.9929 8.94124 40.8573 9.00092 38.4719Z" fill="#E87A00"/>
</svg>
