<svg width="50" height="50" viewBox="0 0 50 50" fill="none" xmlns="http://www.w3.org/2000/svg">
<path d="M25.003 17.8594C23.908 17.8594 22.8844 18.1212 21.9321 18.5734L26.6217 23.2621C27.074 23.6905 27.3598 24.3094 27.3598 24.9996H32.1209C32.1209 21.0726 28.9071 17.8594 24.9792 17.8594H25.003Z" fill="#FBBC04"/>
<path d="M25.0028 27.38C23.6937 27.38 22.6224 26.309 22.6224 25H17.8613C17.8613 28.9271 21.0751 32.14 25.0028 32.14C28.9308 32.14 32.1445 28.9271 32.1445 25H27.3835C27.3835 26.309 26.3122 27.38 25.0028 27.38Z" fill="#34A853"/>
<path d="M30.1451 35.7102C27.8121 36.8288 25.0744 37.2333 22.194 36.5671C17.8853 35.5673 14.4335 32.0925 13.4337 27.8083C13.2194 26.8565 13.1004 25.9281 13.1004 25H8.33936C8.33936 26.0233 8.43456 27.0706 8.625 28.1177C9.86288 34.7819 15.2191 40.1371 21.8846 41.3748C25.5744 42.065 29.0976 41.4938 32.0969 40.0656C33.5967 39.3517 34.0015 37.3762 32.8111 36.21C32.0969 35.496 31.0257 35.3056 30.1451 35.734V35.7102Z" fill="#4285F4"/>
<path d="M40.0478 32.1162C41.0713 29.9504 41.6666 27.5467 41.6666 25H36.9055C36.9055 26.8325 36.477 28.57 35.7391 30.1171C35.3105 31.0215 35.4772 32.0925 36.1913 32.8065C37.3578 33.9727 39.3336 33.6158 40.0478 32.0925V32.1162Z" fill="#4285F4"/>
<path d="M27.7169 8.55343C26.2886 8.31543 25.0029 9.48166 25.0029 10.9335C25.0029 12.0997 25.86 13.0756 27.0265 13.266C32.6206 14.2418 36.9056 19.1209 36.9056 24.9997H41.6667C41.6667 16.7408 35.6202 9.86247 27.7169 8.55343Z" fill="#FBBC04"/>
<path d="M21.9322 18.5737L12.4101 9.02967C11.4817 8.10144 9.9582 8.10144 9.02981 9.02967C8.10139 9.9579 8.10139 11.4811 9.02981 12.4094L11.6722 15.0512C9.60112 17.8121 8.33945 21.2631 8.33945 25H13.1005C13.1005 22.5723 13.8385 20.335 15.0763 18.4547L18.5519 21.9295C18.0996 22.8579 17.8377 23.905 17.8377 25H22.5987C22.5987 23.6908 23.67 22.6198 24.9793 22.6198C25.5983 22.6198 26.1935 22.8816 26.6218 23.2625L21.9322 18.5737Z" fill="#EA4335"/>
</svg>
