<svg width="50" height="50" viewBox="0 0 50 50" fill="none" xmlns="http://www.w3.org/2000/svg">
<g clip-path="url(#clip0_9176_12666)">
<path d="M15.8051 37.9172L9.13926 26.3711C8.88297 25.9272 8.74805 25.4237 8.74805 24.9111C8.74805 24.3986 8.88297 23.895 9.13926 23.4511L15.8051 11.9053C16.0614 11.4614 16.4301 11.0927 16.8741 10.8364C17.3181 10.5801 17.8217 10.4452 18.3343 10.4452H31.6661C32.1787 10.4452 32.6822 10.5801 33.1262 10.8365C33.5701 11.0928 33.9387 11.4614 34.195 11.9053L40.8609 23.4511C41.1172 23.895 41.2522 24.3986 41.2522 24.9113C41.2522 25.4239 41.1172 25.9275 40.8609 26.3714L34.195 37.9172C33.9387 38.3611 33.57 38.7297 33.1261 38.9859C32.6822 39.2422 32.1786 39.3771 31.6661 39.3771H18.3343C17.8217 39.3771 17.3181 39.2422 16.8741 38.9859C16.4301 38.7296 16.0614 38.3609 15.8051 37.9169V37.9172Z" fill="url(#paint0_linear_9176_12666)"/>
<path opacity="0.07" d="M39.0249 30.6197L29.2219 20.8162L25.0002 19.6864L21.2081 21.0958L19.7437 24.9112L20.9212 29.1593L31.3169 39.555L33.5228 39.457L39.0249 30.6197Z" fill="black"/>
<path d="M24.9999 19.0209C21.747 19.0209 19.1099 21.658 19.1099 24.9112C19.1099 28.1642 21.747 30.8013 24.9999 30.8013C28.2529 30.8013 30.8898 28.1642 30.8898 24.9112C30.8898 21.658 28.2526 19.0209 24.9999 19.0209ZM24.9999 29.3803C22.5317 29.3803 20.5306 27.3792 20.5306 24.911C20.5306 22.4427 22.5317 20.4419 24.9999 20.4419C27.4682 20.4419 29.4693 22.4429 29.4693 24.9112C29.4693 27.3795 27.4682 29.3803 24.9999 29.3803Z" fill="white"/>
<path d="M22.2041 24.6837V26.5146C22.475 26.9796 22.8572 27.3701 23.3163 27.6509V24.6837H22.2041ZM24.4095 23.1403V28.0694C24.5987 28.1042 24.7922 28.1253 24.9911 28.1253C25.1724 28.1253 25.3491 28.1063 25.5226 28.0773V23.1403H24.4095ZM26.7181 25.4445V27.6187C27.1846 27.3221 27.5676 26.9113 27.8309 26.4252V25.4447L26.7181 25.4445ZM29.2384 28.5392L28.6282 29.1499C28.5765 29.2017 28.5475 29.2719 28.5475 29.3451C28.5475 29.4183 28.5765 29.4884 28.6282 29.5402L30.9429 31.8541C30.9947 31.9058 31.0648 31.9348 31.138 31.9348C31.2112 31.9348 31.2814 31.9058 31.3332 31.8541L31.9434 31.2442C31.9947 31.1922 32.0235 31.1222 32.0235 31.0491C32.0235 30.9761 31.9947 30.906 31.9434 30.8541L29.6285 28.5392C29.5766 28.4877 29.5065 28.4588 29.4335 28.4588C29.3604 28.4588 29.2903 28.4877 29.2384 28.5392Z" fill="white"/>
</g>
<defs>
<linearGradient id="paint0_linear_9176_12666" x1="25.0002" y1="10.4454" x2="25.0002" y2="39.3321" gradientUnits="userSpaceOnUse">
<stop stop-color="#4387FD"/>
<stop offset="1" stop-color="#4683EA"/>
</linearGradient>
<clipPath id="clip0_9176_12666">
<rect width="33.3333" height="33.3333" fill="white" transform="translate(8.3335 8.33337)"/>
</clipPath>
</defs>
</svg>
