<svg width="50" height="50" viewBox="0 0 50 50" fill="none" xmlns="http://www.w3.org/2000/svg">
<g clip-path="url(#clip0_9176_12696)">
<path d="M28.7174 41.4849L22.2949 35.2222L36.0879 21.137L42.7374 27.654L28.7174 41.4849Z" fill="#8AB4F8"/>
<path d="M28.7449 13.7958L22.3455 7.26196L8.35281 21.1222C6.54906 22.926 6.54906 25.8503 8.35281 27.6561L22.1353 41.529L28.6524 35.4324L18.1515 24.3892L28.7449 13.7958Z" fill="#4285F4"/>
<path d="M42.645 21.2294L28.77 7.35439C26.9642 5.54854 24.0357 5.54854 22.2299 7.35439C20.424 9.16024 20.424 12.0887 22.2299 13.8946L36.1049 27.7696C37.9107 29.5754 40.8392 29.5754 42.645 27.7696C44.4509 25.9637 44.4509 23.0352 42.645 21.2294Z" fill="#8AB4F8"/>
<path d="M25.3939 43.0005C27.8902 43.0005 29.9138 40.9768 29.9138 38.4806C29.9138 35.9843 27.8902 33.9607 25.3939 33.9607C22.8976 33.9607 20.874 35.9843 20.874 38.4806C20.874 40.9768 22.8976 43.0005 25.3939 43.0005Z" fill="#246FDB"/>
</g>
<defs>
<clipPath id="clip0_9176_12696">
<rect width="37" height="37" fill="white" transform="translate(7 6)"/>
</clipPath>
</defs>
</svg>
