<svg width="50" height="50" viewBox="0 0 50 50" fill="none" xmlns="http://www.w3.org/2000/svg">
<rect width="50" height="50" fill="white"/>
<path d="M25.0023 15.4304C24.1482 15.4304 23.3498 15.6346 22.607 15.9874L26.2649 19.6446C26.6177 19.9787 26.8406 20.4615 26.8406 20.9998H30.5542C30.5542 17.9367 28.0475 15.4304 24.9837 15.4304H25.0023Z" fill="#FBBC04"/>
<path d="M25.0023 22.8562C23.9811 22.8562 23.1455 22.0208 23.1455 20.9998H19.4319C19.4319 24.0629 21.9387 26.569 25.0023 26.569C28.066 26.569 30.5728 24.0629 30.5728 20.9998H26.8592C26.8592 22.0208 26.0236 22.8562 25.0023 22.8562Z" fill="#34A853"/>
<path d="M29.0131 29.3538C27.1934 30.2262 25.058 30.5418 22.8113 30.0221C19.4505 29.2423 16.7581 26.532 15.9782 23.1903C15.8111 22.4479 15.7183 21.7238 15.7183 20.9998H12.0046C12.0046 21.798 12.0789 22.6149 12.2275 23.4316C13.193 28.6297 17.3708 32.8067 22.57 33.7721C25.448 34.3105 28.196 33.8649 30.5356 32.751C31.7054 32.1941 32.0211 30.6533 31.0926 29.7436C30.5356 29.1867 29.7 29.0382 29.0131 29.3723V29.3538Z" fill="#4285F4"/>
<path d="M36.7374 26.5505C37.5357 24.8611 38 22.9862 38 20.9998H34.2864C34.2864 22.4292 33.9521 23.7844 33.3765 24.9911C33.0423 25.6966 33.1723 26.532 33.7293 27.0889C34.6392 27.9985 36.1803 27.7202 36.7374 26.532V26.5505Z" fill="#4285F4"/>
<path d="M27.1192 8.17172C26.0051 7.98608 25.0023 8.89573 25.0023 10.0282C25.0023 10.9378 25.6708 11.699 26.5806 11.8475C30.9441 12.6086 34.2864 16.4143 34.2864 20.9998H38C38 14.5579 33.2838 9.19277 27.1192 8.17172Z" fill="#FBBC04"/>
<path d="M22.607 15.9874L15.1798 8.54301C14.4556 7.819 13.2673 7.819 12.5431 8.54301C11.819 9.26703 11.819 10.4551 12.5431 11.1792L14.6042 13.2398C12.9887 15.3933 12.0046 18.0851 12.0046 20.9998H15.7183C15.7183 19.1062 16.2939 17.3611 17.2594 15.8945L19.9704 18.6049C19.6176 19.329 19.4133 20.1457 19.4133 20.9998H23.1269C23.1269 19.9787 23.9624 19.1433 24.9837 19.1433C25.4665 19.1433 25.9308 19.3475 26.2649 19.6446L22.607 15.9874Z" fill="#EA4335"/>
<path d="M24.9648 36.793C26.2007 36.793 27.4697 37.5767 27.4697 38.9414H26.5322C26.5322 38.1326 26.021 37.5645 24.9648 37.5645C23.9618 37.5645 23.4902 38.049 23.4902 38.7168C23.4902 39.3178 24.0007 39.6851 25.1553 40.0059C26.7676 40.4609 27.4893 41.081 27.4893 42.1934C27.4893 43.3485 26.5206 44.0977 25.0088 44.0977C23.7571 44.0977 22.3232 43.3501 22.3232 41.9395H23.2607C23.2607 42.9146 24.1074 43.3311 25.0088 43.3311C25.9981 43.3311 26.542 42.8923 26.542 42.2031C26.542 41.5396 26.2123 41.2222 24.8525 40.8262C23.4417 40.4082 22.5479 39.8321 22.5479 38.7266C22.5479 37.6105 23.5185 36.793 24.9648 36.793Z" fill="#7F8BA5"/>
<path fill-rule="evenodd" clip-rule="evenodd" d="M19.0811 36.8906L21.8008 44H20.834L20.1572 42.1396H17.1836L16.5078 44H15.5459L18.2559 36.8906H19.0811ZM17.4639 41.3682H19.876L18.668 38.0508L17.4639 41.3682Z" fill="#7F8BA5"/>
<path d="M32.2305 42.6865L34.5547 36.8906H35.7656V44H34.8281L34.918 38.2529L32.582 44H31.8691L29.5371 38.2451L29.6279 44H28.6904V36.8906H29.9014L32.2305 42.6865Z" fill="#7F8BA5"/>
</svg>
