<svg width="50" height="50" viewBox="0 0 50 50" fill="none" xmlns="http://www.w3.org/2000/svg">
<path d="M28.2155 34.6325C27.296 35.0574 26.3553 35.4992 25.4301 35.9118C24.9851 36.1101 24.5689 35.9367 24.1553 35.7581C22.2305 34.9269 20.375 33.9676 18.6573 32.776C17.764 32.1563 16.9279 31.4557 16.0791 30.7758C14.871 29.8081 13.8829 28.6445 13.0137 27.3802C12.0478 25.9753 11.4115 24.4349 11.0905 22.772C11.0226 22.4203 11.0043 22.0549 11.0039 21.6957C10.9985 16.7917 11.0002 11.8877 11.0003 6.98372C11.0004 6.29057 11.2986 5.99994 12.0099 6C20.1306 6.00073 36.4329 6.00051 36.4329 6.00051V8.49946C28.7966 8.4991 21.1604 8.49875 13.5448 8.49875C13.5448 12.808 13.5996 17.1178 13.6224 21.427C13.6277 22.4332 13.905 23.3762 14.3136 24.2801C15.0948 26.0079 16.2282 27.491 17.708 28.6987C18.7103 29.5168 19.7081 30.3589 20.8026 31.0445C22.1507 31.8889 23.5972 32.5819 25.0168 33.3621L25.4269 33.5561C26.3476 33.9188 28.2155 34.6325 28.2155 34.6325Z" fill="#4285F4"/>
<path d="M28.2155 34.6325C28.2155 34.6325 26.3476 33.9188 25.4269 33.5561L25.0168 33.3621C26.3762 32.5993 27.7858 31.913 29.0925 31.1167C30.7574 30.1019 32.3074 28.9215 33.5715 27.4311C34.1348 26.7669 34.6736 26.0722 35.1363 25.3384C36.1383 23.7493 36.4537 21.9766 36.4474 20.1306C36.4342 16.2536 36.4441 12.3765 36.4329 8.49946V6.00051L38.0735 6.00069C38.6579 5.99982 38.9896 6.33154 38.9896 6.91329C38.99 11.4896 38.9743 16.066 38.9997 20.6421C39.007 21.9486 38.8836 23.2194 38.4525 24.4584C37.984 25.8054 37.3107 27.0486 36.4083 28.1557C35.7625 28.9479 35.0798 29.7218 34.3341 30.4222C33.0083 31.6676 31.5377 32.7405 29.954 33.6568C29.3865 33.9851 28.812 34.302 28.2155 34.6325Z" fill="#34A853"/>
<path d="M19.9063 12.2592C22.0511 12.2549 24.1958 12.2491 26.3406 12.2466C28.1281 12.2445 29.9157 12.2457 31.7032 12.2465C32.2991 12.2467 32.6281 12.5681 32.6283 13.151C32.629 15.5433 32.5952 17.9363 32.6424 20.3277C32.6666 21.5549 32.4463 22.6919 31.8446 23.7646C31.2031 24.9082 30.2935 25.8163 29.2926 26.6555C28.2759 27.508 27.1097 28.1123 25.9277 28.6978C25.3791 28.9696 24.8242 29.0783 24.2535 28.7864C23.5993 28.4518 22.9413 28.0758 22.2972 27.6856C22.2972 27.6856 24.0993 26.7115 25.0181 26.2234C25.8287 25.7458 26.6438 25.3229 27.3887 24.8029C28.2991 24.1674 29.0415 23.3651 29.5875 22.3855C29.9656 21.7073 30.0582 20.9791 30.073 20.2465C30.1099 18.4238 30.1774 16.5662 30.0614 14.7462C26.6616 14.7462 23.2819 14.7485 19.9057 14.712L19.9063 12.2592Z" fill="#EA4335"/>
<path d="M24.9915 26.2351C24.0993 26.7115 22.2972 27.6856 22.2972 27.6856C21.6623 27.2912 20.9959 26.9301 20.4385 26.4477C19.4448 25.5877 18.5348 24.6412 17.9711 23.4313C17.594 22.6221 17.3475 21.7931 17.3546 20.8856C17.3745 18.3228 17.3614 15.7598 17.3617 13.1969C17.3617 12.5545 17.6729 12.2466 18.3221 12.2464C18.8256 12.2462 19.9063 12.2592 19.9063 12.2592C19.9063 12.2592 19.897 17.6329 19.9107 20.3196C19.9125 20.6644 19.9354 21.018 20.0157 21.352C20.3433 22.7151 21.2084 23.7468 22.301 24.5663C23.1406 25.1961 24.0906 25.6841 24.9915 26.2351Z" fill="#FBBC04"/>
<path d="M16.499 38.793C17.7349 38.793 19.0039 39.5767 19.0039 40.9414H18.0664C18.0664 40.1326 17.5552 39.5645 16.499 39.5645C15.496 39.5645 15.0244 40.049 15.0244 40.7168C15.0244 41.3178 15.5349 41.6851 16.6895 42.0059C18.3018 42.4609 19.0234 43.081 19.0234 44.1934C19.0234 45.3485 18.0548 46.0977 16.543 46.0977C15.2719 46.0977 13.8574 45.3373 13.8574 43.9395H14.7949C14.7949 44.9146 15.6416 45.3311 16.543 45.3311C17.5323 45.3311 18.0762 44.8923 18.0762 44.2031C18.0762 43.5396 17.7465 43.2222 16.3867 42.8262C14.9759 42.4082 14.082 41.8321 14.082 40.7266C14.082 39.6105 15.0527 38.793 16.499 38.793Z" fill="black"/>
<path d="M21.2354 46H20.293V38.8906H21.2354V46Z" fill="black"/>
<path d="M27.417 39.6621H23.8916V41.9473H26.9678V42.7139H23.8916V45.2334H27.4658V46H22.9492V38.8906H27.417V39.6621Z" fill="black"/>
<path d="M32.1729 44.6865L34.4971 38.8906H35.708V46H34.7705V43.2266L34.8604 40.2529L32.5244 46H31.8115L29.4795 40.2451L29.5703 43.2266V46H28.6328V38.8906H29.8438L32.1729 44.6865Z" fill="black"/>
</svg>
