<svg width="50" height="50" viewBox="0 0 50 50" fill="none" xmlns="http://www.w3.org/2000/svg">
<path d="M41.6667 25.3998C41.6667 24.2742 41.5556 23.1122 41.3704 22.0229H25.3295V28.4498H34.5169C34.1464 30.5195 32.9239 32.335 31.1086 33.4969L36.5914 37.6726C39.8144 34.7315 41.6667 30.4469 41.6667 25.3998Z" fill="#4280EF"/>
<path d="M25.3287 41.6667C29.9226 41.6667 33.7754 40.178 36.591 37.6363L31.1086 33.4969C29.5897 34.5136 27.6257 35.0946 25.3287 35.0946C20.8831 35.0946 17.1414 32.1535 15.7706 28.232L10.1395 32.4803C13.0292 38.1083 18.8826 41.6667 25.3287 41.6667Z" fill="#34A353"/>
<path d="M15.7707 28.1956C15.0668 26.126 15.0668 23.8747 15.7707 21.805L10.1396 17.5205C7.73152 22.2408 7.73145 27.7963 10.1395 32.4803L15.7707 28.1956Z" fill="#F6B704"/>
<path d="M25.3289 14.9424C27.7369 14.9061 30.1079 15.8139 31.8491 17.4478L36.7023 12.6549C33.6274 9.82272 29.5522 8.2977 25.3289 8.33401C18.8827 8.33401 13.0292 11.8924 10.1396 17.5205L15.7707 21.805C17.1414 17.8472 20.8832 14.9424 25.3289 14.9424Z" fill="#E54335"/>
</svg>
