<svg width="50" height="50" viewBox="0 0 50 50" fill="none" xmlns="http://www.w3.org/2000/svg">
<path d="M36.1736 38.2013C36.1736 38.6765 35.9848 39.1323 35.6488 39.4683C35.3127 39.8043 34.857 39.9931 34.3818 39.9931H15.6966C15.4609 39.9938 15.2274 39.9479 15.0094 39.8582C14.7915 39.7684 14.5934 39.6365 14.4265 39.4701C14.2596 39.3036 14.1271 39.1059 14.0368 38.8882C13.9464 38.6705 13.8999 38.437 13.8999 38.2013V10.7973C13.8999 10.3221 14.0887 9.86632 14.4247 9.5303C14.7607 9.19427 15.2165 9.00549 15.6917 9.00549H27.7096L36.1736 17.6749V38.2013Z" fill="#23A566"/>
<path d="M28.6426 17.4578L36.1736 24.6534L36.1513 17.662H29.4915C29.199 17.6623 28.9109 17.591 28.6525 17.4541L28.6426 17.4578Z" fill="#1C8F5A"/>
<path d="M36.1736 17.662L29.4915 17.662C29.0162 17.662 28.5605 17.4732 28.2245 17.1372C27.8885 16.8012 27.6997 16.3454 27.6997 15.8702V9L36.1736 17.662Z" fill="#8ED1B1"/>
<path fill-rule="evenodd" clip-rule="evenodd" d="M30.8294 34.2667H19.2446V24.2349H30.8294V34.2667ZM25.756 25.6678V27.4596H29.3989V25.6678H25.756ZM25.756 28.5337V30.2054H29.3989V28.5337H25.756ZM25.756 31.2808V32.8337H29.3989V31.2808H25.756ZM24.323 32.8337V31.2808H20.6776V32.8337H24.323ZM24.323 30.2054V28.5337H20.6776V30.2054H24.323ZM24.323 27.4596V25.6678H20.6776V27.4596H24.323Z" fill="white"/>
</svg>
