<svg width="50" height="50" viewBox="0 0 50 50" fill="none" xmlns="http://www.w3.org/2000/svg">
<path fill-rule="evenodd" clip-rule="evenodd" d="M35.8355 23.0617C36.3555 21.0252 38.1666 19.5223 40.321 19.5223C42.8811 19.5223 44.9565 21.6446 44.9565 24.2626C44.9565 26.4057 43.5659 28.2166 41.657 28.8031C41.4481 29.6766 41.1764 30.5308 40.8452 31.3595C37.2792 40.2838 26.883 45.1511 17.653 42.0773C10.9578 39.8475 6.00547 33.8509 5.10349 26.8814C3.72101 16.1992 12.2729 6.20925 23.1988 6.00001L23.1994 6L23.2587 9.07074C14.1446 9.24501 7.01066 17.5782 8.16393 26.489C8.91635 32.3026 13.0473 37.3047 18.6321 39.1647C26.9542 41.9362 36.2011 36.9686 38.516 28.6302C37.4031 28.1486 36.5124 27.2353 36.0447 26.0955H27.8331C27.1322 27.8034 25.4814 29.0029 23.5568 29.0029C20.9966 29.0029 18.9212 26.8806 18.9212 24.2626C18.9212 21.6446 20.9966 19.5223 23.5568 19.5223C25.7111 19.5223 27.5223 21.0252 28.0422 23.0617H35.8355ZM36.9554 24.2626C36.9554 22.3103 38.4944 20.7864 40.321 20.7864C42.1476 20.7864 43.6865 22.3103 43.6865 24.2626C43.6865 26.2149 42.1476 27.7388 40.321 27.7388C38.4944 27.7388 36.9554 26.2149 36.9554 24.2626ZM23.5568 20.7864C21.7302 20.7864 20.1912 22.3103 20.1912 24.2626C20.1912 26.2149 21.7302 27.7388 23.5568 27.7388C25.3833 27.7388 26.9223 26.2149 26.9223 24.2626C26.9223 22.3103 25.3833 20.7864 23.5568 20.7864Z" fill="#4CA7C0"/>
<path d="M32.2827 30.6856L34.2493 32.2421C30.8683 36.4755 24.9638 38.3658 19.7552 36.7296C14.4924 35.0671 10.7384 30.157 10.2231 24.7429L12.6919 24.4937L12.6934 24.5091C13.1281 28.9653 16.1923 32.9527 20.5196 34.3034C24.7565 35.6164 29.5099 34.1067 32.2827 30.6856Z" fill="#4CA7C0"/>
<path d="M29.6812 14.838L29.6844 14.8399C31.6078 16.0045 33.1176 17.7631 34.0145 19.8133L36.3097 18.7436C35.209 16.2042 33.3628 14.0835 31.0157 12.6615L31.0126 12.6596C28.664 11.2376 25.9236 10.5818 23.155 10.7788L23.2611 13.3024C25.5019 13.1506 27.7589 13.675 29.6812 14.838Z" fill="#4CA7C0"/>
</svg>
