<svg width="50" height="50" viewBox="0 0 50 50" fill="none" xmlns="http://www.w3.org/2000/svg">
<path d="M15 7H35V12.1572H15V7Z" fill="#4285F4"/>
<path d="M20.1366 15.3392L20.1366 19.7283L15 23.0201L15 12.1572L20.1366 15.3392Z" fill="#34A853"/>
<path d="M15.9088 27.1137C15.3427 26.7509 15 26.1232 15 25.4489L15 23.0201L20.1366 19.7283L20.1366 29.8232L15.9088 27.1137Z" fill="#FBBC05"/>
<path d="M20.1366 29.8232L35 20.4964V25.492C35 26.2073 34.6348 26.8727 34.0324 27.2547L24.9726 33L20.1366 29.8232Z" fill="#EA4335"/>
<path d="M32.0566 35.6016H34.1748C35.6219 35.6016 36.416 36.2746 36.416 37.522C36.416 38.5833 35.5939 39.0587 34.6978 39.4072H32.707L32.6982 38.7173H34.2012C35.1189 38.7173 35.5723 38.1798 35.5723 37.522C35.5723 36.7851 35.1542 36.2959 34.1748 36.2959H32.9048V42H32.0566V35.6016ZM35.7964 42L34.2407 39.0996L35.124 39.0952L36.7017 42H35.7964Z" fill="black"/>
<path d="M28.5542 36.1685L26.436 42H25.5703L28.0093 35.6016H28.5674L28.5542 36.1685ZM30.3296 42L28.207 36.1685L28.1938 35.6016H28.752L31.1997 42H30.3296ZM30.2197 39.6313V40.3257H26.625V39.6313H30.2197Z" fill="black"/>
<path d="M25.0122 38.5986V39.0029C25.0122 40.9211 24.0135 42.0879 22.4458 42.0879C20.9469 42.0879 19.8662 40.9338 19.8662 39.0029V38.5986C19.8662 36.6534 20.9422 35.5137 22.437 35.5137C24.0021 35.5137 25.0122 36.6727 25.0122 38.5986ZM24.1729 39.0029V38.5898C24.1729 37.0734 23.5367 36.2344 22.437 36.2344C21.3948 36.2344 20.7056 37.0567 20.7056 38.5898V39.0029C20.7056 40.5301 21.3964 41.3716 22.4458 41.3716C23.5591 41.3716 24.1729 40.515 24.1729 39.0029Z" fill="black"/>
<path d="M18.1523 40.3828C18.1523 39.7856 17.8556 39.5 16.6318 39.1436C15.3621 38.7673 14.5576 38.2489 14.5576 37.2539C14.5576 36.2495 15.4312 35.5137 16.7329 35.5137C17.8587 35.5137 18.9873 36.2378 18.9873 37.4473H18.1436C18.1436 36.7193 17.6835 36.208 16.7329 36.208C15.8302 36.208 15.4058 36.6441 15.4058 37.2451C15.4058 37.786 15.8652 38.1166 16.9043 38.4053C18.3554 38.8149 19.0049 39.3729 19.0049 40.374C19.0049 41.4137 18.1331 42.0879 16.7725 42.0879C15.601 42.0879 14.3555 41.4276 14.3555 40.1455H15.1992C15.1992 41.0232 15.9613 41.3979 16.7725 41.3979C17.6628 41.3979 18.1523 41.0031 18.1523 40.3828Z" fill="black"/>
</svg>
