<svg width="50" height="50" viewBox="0 0 50 50" fill="none" xmlns="http://www.w3.org/2000/svg">
<path d="M27.1022 37.7738C27.9068 39.2394 29.4582 40.2233 31.1451 40.2065C34.9815 40.2065 38.482 39.4158 40.4496 35.8137C41.9252 33.1124 41.923 29.7319 40.4436 27.0326L32.8835 13.2469C31.3072 10.3776 28.2821 8.44043 24.9798 8.44043C21.6774 8.44043 18.6523 10.3776 17.076 13.2469L9.58329 27.0326C8.10389 29.7319 8.1017 33.1124 9.57729 35.8137C11.0089 38.4345 13.7669 40.2063 16.7795 40.2065H21.4288C23.5467 40.2002 25.58 39.3283 27.1022 37.7738Z" fill="url(#paint0_linear_9176_12654)"/>
<path d="M33.1665 37.034H31.145C30.2501 37.034 29.5683 36.2382 29.5683 35.3695C29.5683 34.5008 30.2501 33.705 31.145 33.705H33.153C33.9288 33.7048 34.6788 33.2476 35.0667 32.5382C35.4545 31.8289 35.4545 30.9145 35.0666 30.2052L27.5334 16.4765C27.0112 15.5318 26.009 14.9244 24.973 14.9244C23.9369 14.9244 22.9348 15.5318 22.4125 16.4765L14.8794 30.2052C14.4915 30.9145 14.4914 31.8289 14.8793 32.5382C15.2671 33.2476 16.0171 33.7048 16.793 33.705H21.3075C22.081 33.6999 22.8264 33.2406 23.2111 32.5321C23.5958 31.8236 23.5944 30.9124 23.2076 30.2052L21.0919 26.364C20.5178 25.5981 20.7013 24.4076 21.5322 23.8945C22.3516 23.3884 23.4405 23.8074 23.7871 24.6995C24.9161 26.7492 26.6201 28.9361 26.6251 31.374C26.6291 33.3357 25.6407 35.2564 23.9597 36.2962C21.8953 37.5731 19.0723 37.0767 16.766 37.0767C14.8195 37.0644 13.043 35.9123 12.1221 34.2166C11.1729 32.4688 11.1759 30.2857 12.1302 28.5407L19.6634 14.8119C20.7077 12.8852 22.7348 11.5848 24.946 11.5967C27.1572 11.5848 29.1844 12.8852 30.2287 14.8119L37.7618 28.5407C38.6925 30.2762 38.6888 32.4346 37.7516 34.1667C36.8424 35.8472 35.0932 36.998 33.1665 37.034Z" fill="url(#paint1_linear_9176_12654)"/>
<defs>
<linearGradient id="paint0_linear_9176_12654" x1="25.0128" y1="8.4388" x2="25.0128" y2="40.2067" gradientUnits="userSpaceOnUse">
<stop stop-color="#75BFB8"/>
<stop offset="0.11" stop-color="#6CB9B4"/>
<stop offset="0.29" stop-color="#54AAAB"/>
<stop offset="0.52" stop-color="#2C929B"/>
<stop offset="0.55" stop-color="#268E98"/>
<stop offset="1" stop-color="#085981"/>
</linearGradient>
<linearGradient id="paint1_linear_9176_12654" x1="24.9352" y1="12.8061" x2="24.9352" y2="35.9386" gradientUnits="userSpaceOnUse">
<stop offset="0.01" stop-color="white"/>
<stop offset="1" stop-color="#E6E6E5"/>
</linearGradient>
</defs>
</svg>
