<svg width="50" height="50" viewBox="0 0 50 50" fill="none" xmlns="http://www.w3.org/2000/svg">
<path fill-rule="evenodd" clip-rule="evenodd" d="M25.2002 8C34.5936 8 42.2002 15.6242 42.2002 25C42.2002 33.1909 36.3805 40.0938 28.6207 41.6393C27.4976 41.8454 26.3744 42 25.2002 42H8.2002V25C8.2002 15.6243 15.8068 8.00005 25.2002 8ZM33.4193 16.3969C31.0709 14.1819 27.9058 12.8939 24.4344 13.1515C18.5126 13.5636 13.7137 18.4576 13.4584 24.3817C13.101 31.1816 18.5124 36.797 25.251 36.7972C31.9898 36.7972 37.095 31.4911 37.0951 24.9487C37.0951 24.4336 37.0439 23.9184 36.9929 23.4032H29.3352L27.5484 26.5455H33.8789C32.909 32.006 26.834 35.6636 20.81 32.5728C19.5337 31.9032 18.4616 30.8729 17.7469 29.585C14.2244 22.8882 18.9718 16.2426 25.251 16.2424C27.8547 16.2424 30.1524 17.3759 31.786 19.1789L33.4193 16.3969Z" fill="#027E6F"/>
</svg>
