<svg width="50" height="50" viewBox="0 0 50 50" fill="none" xmlns="http://www.w3.org/2000/svg">
<path d="M24.1118 44.0003C23.9202 43.9823 23.7283 43.9637 23.5364 43.946C21.3962 43.7469 19.5293 42.9755 17.9578 41.6105C16.4953 40.3398 15.5766 38.7793 15.1831 36.9564C14.9929 36.0898 14.9514 35.2008 15.06 34.3221C15.4022 31.5934 16.8319 29.4802 19.2634 27.9419C19.9844 27.4865 20.7927 27.1914 21.595 26.8859C21.8984 26.7729 22.1947 26.6439 22.4824 26.4996C22.9197 26.2766 23.1931 25.9454 23.1773 25.4558C23.1668 25.1302 23.0079 24.8619 22.7441 24.6674C22.4191 24.4286 22.0789 24.2083 21.7253 24.0076C21.128 23.6671 20.5052 23.3637 19.9691 22.9375C18.6869 21.9178 17.8297 20.6556 17.5288 19.1C16.8672 15.6746 19.1577 12.4341 22.7916 11.6354C23.5425 11.4703 24.304 11.4366 25.0719 11.4953C25.4576 11.5249 25.8436 11.5564 26.2302 11.5726C26.5682 11.5862 26.9029 11.5525 27.2185 11.4258C27.6899 11.2373 27.932 10.844 27.8644 10.3698C27.8197 10.0564 27.7579 9.74476 27.7121 9.43132C27.5549 8.34833 28.2856 7.35007 29.435 7.07269C30.8216 6.73788 32.1948 7.6035 32.3517 8.92447C32.4474 9.73188 32.1396 10.3866 31.4253 10.8666C31.0972 11.0871 30.732 11.2347 30.3524 11.3622C30.1785 11.4184 30.0107 11.49 29.8515 11.5759C29.3349 11.8631 29.1599 12.3154 29.3934 12.8317C29.519 13.1096 29.6935 13.3726 29.874 13.624C30.2681 14.1728 30.6782 14.7106 30.9791 15.313C31.4264 16.2126 31.6149 17.1586 31.585 18.146C31.5348 19.8039 30.834 21.2044 29.6361 22.41C29.0684 22.9812 28.3774 23.3964 27.6672 23.7907C27.2443 24.0253 26.8258 24.2692 26.421 24.5294C26.1523 24.7019 25.9412 24.9335 25.8561 25.2392C25.7371 25.6662 25.8994 26.1056 26.317 26.3657C26.6015 26.5431 26.9179 26.6796 27.2299 26.8151C27.9137 27.1121 28.6344 27.3472 29.2856 27.6957C31.6502 28.9623 33.1301 30.8594 33.7682 33.3218C33.999 34.2117 34.0511 35.1193 33.9585 36.0284C33.751 38.0602 32.9025 39.8288 31.3759 41.302C29.9705 42.658 28.2615 43.5009 26.2698 43.8396C25.8725 43.9073 25.4656 43.9298 25.0638 43.9738C25.005 43.9802 24.9468 43.9918 24.8883 44.0008L24.1118 44.0003ZM30.8806 35.0974C30.8562 34.8859 30.8315 34.5004 30.7639 34.1213C30.5168 32.7362 29.8624 31.5416 28.7395 30.5975C27.2271 29.3265 25.4396 28.875 23.4366 29.1681C21.8282 29.4035 20.5176 30.1362 19.5368 31.3374C18.2362 32.9309 17.8652 34.7324 18.3078 36.6741C18.6225 38.0561 19.3688 39.2184 20.557 40.1085C21.9946 41.1853 23.6454 41.5765 25.4673 41.3298C26.9581 41.1276 28.2038 40.4871 29.1976 39.4389C30.3232 38.2505 30.8393 36.8428 30.8806 35.0974ZM24.411 21.8743C24.9745 21.8784 25.4307 21.8032 25.8713 21.6536C28.3214 20.8214 29.4059 18.1767 28.1769 16.0339C27.2637 14.4422 25.2901 13.6224 23.4729 14.0798C21.2619 14.6361 19.9195 16.7084 20.4211 18.7912C20.8521 20.5824 22.5633 21.8748 24.411 21.8743Z" fill="#008561"/>
</svg>
