<svg width="50" height="50" viewBox="0 0 50 50" fill="none" xmlns="http://www.w3.org/2000/svg">
<path d="M35.5168 7.67491C35.0403 7.14126 34.6149 6.9473 33.901 7.01197C32.8555 7.10668 31.7272 8.06292 30.9545 9.2849C30.5466 9.93 30.5086 10.5786 30.1941 11.2737C29.0741 13.7496 28.3218 15.1006 26.7724 17.3349C25.7574 18.7985 23.1605 21.0284 23.0654 22.0701C23.0216 22.5504 23.6276 22.9942 24.111 23.0172C25.4416 23.0803 26.2337 20.6114 26.9625 19.5131C28.8746 16.6313 30.004 14.9672 32.3802 12.5049C33.1938 11.6618 33.996 11.3684 34.8515 10.8002C35.421 10.4219 35.7461 10.1395 35.897 9.47432C36.0499 8.80039 35.9778 8.19111 35.5168 7.67491Z" fill="#F24141"/>
<path d="M12.0394 10.7055C11.5431 10.5519 10.979 10.4653 10.5186 10.7055C9.95964 10.9972 9.85872 11.7894 9.75852 12.4102C9.637 13.163 9.96878 13.6315 10.3289 14.3043C11.0893 15.7249 11.7967 16.1795 12.7051 17.5243C13.8894 19.2775 14.5108 20.5548 15.7463 22.0701C16.0909 22.4927 16.7798 22.4612 17.2671 21.9754C17.3431 21.8996 17.4889 21.5335 17.5523 21.2178C17.6156 20.9021 16.754 20.1394 16.5067 19.7972C15.8073 18.8293 15.5312 18.1125 14.9859 17.0507C14.4108 15.9308 14.4413 15.9691 14.0355 14.7778C13.6911 13.767 13.9593 12.9229 13.3701 12.0314C12.9512 11.3976 12.7667 10.9306 12.0394 10.7055Z" fill="#55468C"/>
<path d="M25.9532 25.8108C26.374 24.9722 34.5122 28.1103 36.3136 28.4626C38.7319 28.9355 41.7313 28.7467 44.0125 30.1672C45.4595 31.0684 45.2482 33.6714 43.8224 33.9555C40.9594 34.526 40.3347 32.3298 38.4046 31.209L38.3698 31.1888C36.6185 30.1718 36.2642 29.9661 34.3177 29.3149C32.5963 28.739 31.1811 28.2789 29.5651 28.0837C27.7158 27.8604 26.7459 27.7493 26.2385 27.2314C25.8853 26.8709 25.6681 26.379 25.9532 25.8108Z" fill="#55468C"/>
<path d="M22.0199 22.6384C23.3413 23.232 24.121 23.7328 24.5862 25.1007C25.2585 27.0777 24.4563 27.2011 23.2555 27.7524C22.5813 28.062 22.3078 28.4186 21.7347 28.8889C20.1945 30.153 19.5363 31.0899 18.2179 32.5824C16.8582 34.1217 16.0406 34.9538 14.8912 36.6547C13.3337 38.9598 11.6596 43 11.6596 43H9.85363C9.85363 43 10.5515 41.7316 10.9942 40.9165C11.5554 39.8833 11.9116 39.3247 12.42 38.2647L12.4576 38.1862C12.9725 37.1128 13.2751 36.4821 13.6556 35.3289C14.6063 32.4477 14.6061 28.9405 14.6061 27.5924L14.6061 27.563C14.6061 26.8831 14.3931 26.4621 13.9407 25.953C13.2637 25.1912 11.9447 24.9113 11.9447 24.9113C11.9447 24.9113 10.2685 24.6054 9.28333 24.4378C8.03331 24.225 5.77819 24.5906 5.19624 23.0172C4.99087 22.4619 4.88373 22.0051 5.19624 21.5019C5.7419 20.6232 6.54881 20.9127 7.38236 21.1231C8.67222 21.4486 9.08387 22.3599 10.3289 22.8278C11.6709 23.332 12.5087 23.5701 13.9407 23.4907C14.4649 23.4616 14.7585 23.4125 15.2714 23.3013C16.4433 23.0471 16.1742 22.5161 17.3625 22.3542C18.7773 22.1615 20.7181 22.0535 22.0199 22.6384Z" fill="#72BF3B"/>
<path d="M19.7387 7.39081C20.1805 7.08068 20.53 6.97715 21.0693 7.01198C21.8707 7.06373 22.4982 7.3993 22.7802 8.14845C23.0654 8.90608 22.7339 10.2896 22.5901 11.6525C22.4607 12.8802 22.0859 14.3115 21.9248 15.5355C21.605 17.9657 21.3545 19.7025 21.5446 21.0284C21.6175 21.537 20.824 21.855 20.309 21.8807C19.827 21.9048 19.2634 21.6986 19.2634 21.2178C19.2635 20.3654 20.1189 18.9448 20.1189 16.1984C20.1189 14.6063 20.309 13.6414 20.309 12.0314C20.309 11.6001 19.9661 11.4513 19.7387 11.0843C19.4141 10.5606 19.0215 10.3584 18.8832 9.75844C18.7918 9.36193 18.7918 9.11319 18.8832 8.71668C19.0215 8.11675 19.2336 7.7453 19.7387 7.39081Z" fill="#F2CD5C"/>
</svg>
