<svg width="50" height="50" viewBox="0 0 50 50" fill="none" xmlns="http://www.w3.org/2000/svg">
<path d="M40.7088 25.3037C40.6005 28.3588 39.2321 31.255 36.8923 33.3815C34.5524 35.508 31.424 36.6984 28.1669 36.7019C26.3791 36.7035 24.6119 36.3443 22.985 35.6487L22.5299 36.7946C24.3012 37.5361 26.2193 37.9188 28.1588 37.9177C31.7618 37.9191 35.2234 36.6024 37.8087 34.2472C40.3939 31.8919 41.899 28.6836 42.0043 25.3037H40.7088ZM28.1669 11.9298C24.4949 11.9298 20.9732 13.2988 18.3767 15.7357C15.7801 18.1725 14.3214 21.4776 14.3214 24.9238C14.3184 26.8999 14.7976 28.8505 15.7222 30.6259L16.9043 30.1152C16.0525 28.5014 15.6092 26.7248 15.6088 24.9238C15.6127 21.8011 16.9361 18.8074 19.2889 16.5994C21.6416 14.3913 24.8315 13.1493 28.1588 13.1456H28.2398V11.9298H28.1669Z" fill="#414042"/>
<path d="M28.1588 8.89032C19.0628 8.89032 11.9215 15.4374 11.1426 23.7839H12.4381C13.2154 16.1213 19.7883 10.1061 28.1458 10.1061C31.0679 10.1025 33.9353 10.8499 36.4369 12.2672L37.0377 11.1806C34.3523 9.67958 31.2843 8.88821 28.1588 8.89032Z" fill="#414042"/>
<path d="M35.305 38.2915C28.6656 41.3067 20.6142 39.8736 15.8727 34.1973C14.1916 32.1859 13.0862 29.8045 12.6615 27.2794H11.345C11.7858 30.0789 12.9969 32.7222 14.859 34.9481C19.9858 41.0909 28.6947 42.6563 35.8685 39.3888L35.305 38.2915Z" fill="#414042"/>
<path d="M28.1588 14.9694C25.3458 14.9698 22.6482 16.0187 20.6591 17.8854C18.6701 19.7521 17.5524 22.2838 17.552 24.9238C17.5524 27.5637 18.6701 30.0954 20.6591 31.9622C22.6482 33.8289 25.3458 34.8778 28.1588 34.8782C30.903 34.8797 33.5411 33.8831 35.5189 32.0978C37.4967 30.3124 38.6604 27.8772 38.7656 25.3037H31.3165V26.5195H37.3081C36.9088 28.5246 35.7756 30.3358 34.1044 31.64C32.4332 32.9442 30.329 33.6595 28.1555 33.6624C25.6868 33.66 23.3199 32.7385 21.5743 31.1002C19.8286 29.4619 18.8468 27.2407 18.8442 24.9238C18.8468 22.6069 19.8286 20.3856 21.5743 18.7473C23.3199 17.109 25.6868 16.1876 28.1555 16.1852C29.6012 16.1845 31.0272 16.5 32.3202 17.1068C33.6132 17.7135 34.7378 18.5948 35.6046 19.6806H37.177C36.2264 18.2393 34.8991 17.0499 33.3211 16.2253C31.743 15.4008 29.9666 14.9684 28.1604 14.9694H28.1588Z" fill="#414042"/>
<path d="M27.4302 42.7809C25.0432 42.7797 22.6815 42.3215 20.4896 41.4344C18.3313 40.5667 16.3671 39.324 14.7004 37.7718C13.0308 36.2312 11.6897 34.4057 10.7492 32.3934C9.79016 30.3509 9.29386 28.1436 9.29177 25.9116C9.28381 24.2802 9.44106 22.6518 9.76138 21.0484H8.44647C8.14069 22.6534 7.99002 24.2811 7.99628 25.9116C7.99628 35.7323 16.9643 43.9967 27.4286 43.9967C28.4598 43.9977 29.4892 43.9153 30.5053 43.7505V42.5165C29.4911 42.6927 28.4617 42.7812 27.4302 42.7809Z" fill="#414042"/>
<path d="M28.5102 6.00317H28.0648C22.4764 6.00317 17.5261 8.05181 13.9764 11.3223L14.8914 12.181L15.0371 12.0472C18.4944 8.93175 23.1193 7.21594 28.0616 7.21442H28.4794C30.8263 7.259 33.1473 7.68529 35.339 8.4743L35.7568 7.3208C33.4391 6.49641 30.9882 6.05076 28.5102 6.00317Z" fill="#414042"/>
</svg>
