<svg width="50" height="50" viewBox="0 0 50 50" fill="none" xmlns="http://www.w3.org/2000/svg">
<rect width="50" height="50" fill="#E5E5E5"/>
<g clip-path="url(#clip0_0_1)">
<rect width="540" height="6147" transform="translate(-30 -3895)" fill="white"/>
<path d="M36.5399 7.71834C37.213 7.75502 38.0293 8.0129 38.2472 8.74947C38.5359 10.189 38.5348 11.631 38.5 13.0988C38.4798 13.9529 38.6267 15.7922 38.1508 16.4942C36.8953 18.3461 20.802 15.2136 20.3903 19.2309C20.1726 21.3545 20.1978 24.129 20.3782 26.2508C20.5473 28.24 21.9479 29.8707 23.7443 30.5835C25.7113 31.364 28.1916 31.3968 30.0468 30.1825C30.5266 29.8615 31.2916 28.7606 31.5152 28.2183C31.6155 28.2169 31.8257 28.1867 31.9244 28.182C34.3028 28.0706 36.6671 28.3329 37.5032 30.9685C38.9286 33.5227 36.5152 36.2183 34.9514 38.2511C34.8803 38.413 34.3468 38.8474 34.1835 38.9635C32.3337 40.2781 30.151 41.1393 27.9321 41.5C23.5157 42.1599 18.8147 41.358 15.16 38.6304C12.4203 36.6504 10.1954 33.2119 9.53593 29.8609C8.82383 27.5198 8.7144 11.4948 10.0248 10.2174C10.364 9.88676 11.0403 9.56322 11.496 9.41778C15.16 8.74952 30.0468 7.71836 36.5399 7.71834Z" fill="#1A4EFF"/>
<path d="M27.935 28.3072C27.6896 28.2791 27.4053 28.1856 27.1646 28.1345C25.8915 27.8642 24.4954 27.0553 23.6499 26.0448C22.6167 24.6871 20.6678 19.7137 23.5416 19.5087C27.6196 19.2179 31.893 19.0279 35.9551 19.4107C38.6374 19.4393 41.3522 20.0194 41.9379 23.1985C42.0797 25.6062 42.0687 28.299 40.9045 30.4931C39.5773 33.5651 37.5825 36.2162 34.9514 38.2511C36.6065 35.9104 38.4476 33.7754 37.5032 30.9685C36.164 26.7473 31.0837 29.0592 27.935 28.3072Z" fill="url(#paint0_linear_0_1)"/>
</g>
<defs>
<linearGradient id="paint0_linear_0_1" x1="22.5906" y1="19.9703" x2="38.0519" y2="36.292" gradientUnits="userSpaceOnUse">
<stop stop-color="#506BFF"/>
<stop offset="0.281713" stop-color="#4B80FF"/>
<stop offset="0.472257" stop-color="#488EFD"/>
<stop offset="0.573" stop-color="#4599FB"/>
<stop offset="0.842686" stop-color="#37D5E1"/>
<stop offset="1" stop-color="#25FFC0"/>
</linearGradient>
<clipPath id="clip0_0_1">
<rect width="540" height="6147" fill="white" transform="translate(-30 -3895)"/>
</clipPath>
</defs>
</svg>
