<svg width="50" height="50" viewBox="0 0 50 50" fill="none" xmlns="http://www.w3.org/2000/svg">
<path d="M18.3977 20.8334L11.1113 25L18.3977 29.1667V20.8334Z" fill="#9266A9"/>
<path d="M32.9701 20.8334L25.6838 25L32.9701 29.1667V20.8334Z" fill="#9266A9"/>
<path d="M11.1113 16.6667V25L18.3977 20.8334L11.1113 16.6667Z" fill="#83539F"/>
<path d="M11.1113 25V33.3334L18.3977 29.1667L11.1113 25Z" fill="#AB84BA"/>
<path d="M18.3977 29.1667L11.1113 33.3334L18.3977 37.5L25.684 33.3334L18.3977 29.1667Z" fill="#BD9BC7"/>
<path d="M18.3977 12.5L11.1113 16.6667L18.3977 20.8334L25.684 16.6667L18.3977 12.5Z" fill="#774A9A"/>
<path d="M32.9701 12.5L25.684 16.6667L32.9701 20.8334L40.2779 16.6667L32.9701 12.5Z" fill="#634397"/>
<path d="M25.6842 8.33337L18.3977 12.5L25.684 16.6667L32.9701 12.5L25.6842 8.33337Z" fill="#6D4598"/>
<path d="M25.684 33.3334L18.3977 37.5L25.6842 41.6667L32.9706 37.5L25.684 33.3334Z" fill="#CBAED2"/>
<path d="M32.9701 29.1667L25.684 33.3334L32.9706 37.5L40.2779 33.3334L32.9701 29.1667Z" fill="#D9C2DE"/>
</svg>
