<svg width="50" height="50" viewBox="0 0 50 50" fill="none" xmlns="http://www.w3.org/2000/svg">
<path d="M11.0024 22.1321C11.0024 19.3674 11.0029 16.6027 11.0003 13.8377C11.0003 13.7414 11.0272 13.692 11.1162 13.6475C13.3739 12.5261 15.6297 11.4011 17.8859 10.2769C19.5055 9.46971 21.1253 8.66281 22.7451 7.85615C23.2994 7.58006 23.855 7.30613 24.4079 7.02692C24.4804 6.99019 24.5344 6.99163 24.6064 7.02764C26.1749 7.81246 27.7445 8.59487 29.3144 9.37728C31.4991 10.466 33.684 11.5543 35.869 12.6426C36.5484 12.9808 37.2273 13.3198 37.9089 13.654C37.99 13.6939 38.0131 13.7395 38.0131 13.8269C38.0109 19.1684 38.0237 24.5101 38.0044 29.8516C37.9975 31.777 37.5346 33.6126 36.691 35.3448C35.3967 38.0032 33.4386 40.0304 30.8348 41.4281C29.3578 42.2208 27.7812 42.7104 26.1151 42.9029C23.5554 43.1987 21.0984 42.8227 18.7673 41.7203C16.004 40.4135 13.9131 38.394 12.4923 35.6869C11.7875 34.3441 11.3321 32.9171 11.1333 31.4147C11.0557 30.8296 11.0111 30.2362 11.0079 29.6461C10.9945 27.1413 11.0022 24.6366 11.0022 22.1319L11.0024 22.1321ZM35.7585 19.3129V19.1631C35.7585 17.8547 35.7571 16.5462 35.7612 15.2378C35.7614 15.1351 35.7311 15.0846 35.6387 15.0388C33.7812 14.1176 31.9257 13.1928 30.0696 12.2685C28.2494 11.362 26.4291 10.4557 24.61 9.54654C24.5332 9.50813 24.4763 9.51005 24.4007 9.54798C23.075 10.2106 21.7476 10.8696 20.4209 11.5303C18.0679 12.7026 15.7156 13.8761 13.3614 15.0455C13.2738 15.089 13.2532 15.1387 13.2532 15.2287C13.2551 19.9661 13.2553 24.7038 13.2544 29.4413C13.2544 30.187 13.3115 30.9276 13.4577 31.6591C13.9431 34.0901 15.0885 36.1613 16.934 37.8137C19.524 40.1329 22.5679 41.0673 26.0193 40.6455C27.448 40.4709 28.7847 40.0037 30.0384 39.2981C30.0749 39.2777 30.11 39.2547 30.1585 39.2252C30.1169 39.2023 30.0936 39.1884 30.0696 39.1764C28.253 38.272 26.4365 37.3672 24.6187 36.465C24.5368 36.4244 24.5034 36.3802 24.5039 36.2844C24.5087 35.5323 24.5063 34.7799 24.5068 34.0277C24.5068 33.9867 24.5104 33.9456 24.513 33.893C27.0836 35.1736 29.6358 36.4451 32.1924 37.7187C33.1393 36.8301 33.9121 35.8175 34.5099 34.6651C34.4688 34.6435 34.4412 34.6281 34.4129 34.614C33.0752 33.9483 31.7372 33.283 30.4 32.6165C28.4693 31.6543 26.5391 30.6911 24.6076 29.7303C24.5332 29.6934 24.5044 29.6523 24.5049 29.5673C24.5085 28.807 24.5068 28.0469 24.5073 27.2866C24.5073 27.2523 24.5121 27.2179 24.5159 27.1673C28.1305 28.9676 31.7319 30.7617 35.3413 32.5596C35.5045 31.9835 35.6128 31.4116 35.6839 30.8318C35.7715 30.1149 35.7559 29.3947 35.7612 28.6752C35.7619 28.5861 35.734 28.5424 35.6546 28.5033C34.5982 27.9809 33.5433 27.4551 32.4887 26.9293C29.8641 25.6212 27.2403 24.312 24.6148 23.0055C24.5366 22.9666 24.5044 22.9251 24.5049 22.8348C24.5087 22.0827 24.507 21.3303 24.5073 20.5781C24.5073 20.5368 24.5109 20.4955 24.5135 20.4386C28.2679 22.3088 32.003 24.1694 35.7525 26.037C35.7552 25.9791 35.7585 25.9407 35.7585 25.9025C35.7588 24.5862 35.7576 23.2696 35.7612 21.9533C35.7614 21.8596 35.7331 21.8138 35.6493 21.7722C34.1995 21.0539 32.7513 20.3325 31.3029 19.6111C29.0714 18.4995 26.8406 17.3872 24.6081 16.2776C24.5342 16.2409 24.5044 16.2003 24.5049 16.1151C24.5085 15.3547 24.5068 14.5946 24.5073 13.8343C24.5073 13.7998 24.5116 13.7649 24.515 13.7119C28.2657 15.5804 32.0035 17.4422 35.7588 19.3129H35.7585Z" fill="black"/>
</svg>
