<svg width="50" height="50" viewBox="0 0 50 50" fill="none" xmlns="http://www.w3.org/2000/svg">
<rect width="50" height="50" fill="#FF6112"/>
<path fill-rule="evenodd" clip-rule="evenodd" d="M11.342 30.4852C10.5912 31.168 9.96558 31.0415 9.28988 31.1427C8.66423 31.2438 8.08863 31.3197 7.63816 31.7749C6.78728 32.6347 6.78728 34.0256 7.63816 34.8854C8.48905 35.7452 9.86548 35.7452 10.7164 34.8854C11.1418 34.4555 11.317 33.7221 11.342 33.2164C11.3921 32.5588 11.367 31.8508 11.9927 31.1427C12.6934 30.5104 13.3942 30.5357 14.0448 30.4852C14.5454 30.4599 15.2711 30.2828 15.6966 29.8529C16.5474 28.9931 16.5474 27.6022 15.6966 26.7424C14.8457 25.8826 13.4692 25.8826 12.6183 26.7424C12.1679 27.1976 12.0678 27.7793 11.9927 28.4115C11.8926 29.069 12.0177 29.7265 11.342 30.4852Z" fill="black"/>
<path fill-rule="evenodd" clip-rule="evenodd" d="M26.2318 15.3876C25.481 16.0704 24.8554 15.944 24.1797 16.0451C23.554 16.1463 22.9784 16.2221 22.5279 16.6773C21.6771 17.5372 21.6771 18.9281 22.5279 19.7879C23.3788 20.6477 24.7553 20.6477 25.6062 19.7879C26.0316 19.358 26.2068 18.6246 26.2318 18.1188C26.2819 17.4613 26.2568 16.7532 26.8825 16.0451C27.5832 15.4129 28.2839 15.4382 28.9346 15.3876C29.4351 15.3623 30.1609 15.1853 30.5863 14.7554C31.4372 13.8956 31.4372 12.5047 30.5863 11.6449C29.7355 10.785 28.359 10.785 27.5081 11.6449C27.0577 12.1001 26.9576 12.6817 26.8825 13.3139C26.7824 13.9714 26.8825 14.629 26.2318 15.3876Z" fill="black"/>
<path fill-rule="evenodd" clip-rule="evenodd" d="M11.342 16.0704C12.0177 16.8291 11.8926 17.4613 11.9927 18.1441C12.0928 18.7763 12.1679 19.358 12.6183 19.8132C13.4692 20.673 14.8457 20.673 15.6966 19.8132C16.5474 18.9533 16.5474 17.5624 15.6966 16.7026C15.2711 16.2727 14.5454 16.0957 14.0448 16.0704C13.3942 16.0198 12.6934 16.0451 11.9927 15.4129C11.367 14.7048 11.3921 13.9967 11.342 13.3392C11.317 12.8334 11.1418 12.1001 10.7164 11.6701C9.86548 10.8103 8.48905 10.8103 7.63816 11.6701C6.78728 12.53 6.78728 13.9209 7.63816 14.7807C8.08863 15.2359 8.66423 15.337 9.28988 15.4129C9.96558 15.4888 10.5912 15.3876 11.342 16.0704Z" fill="black"/>
<path d="M27.5077 28.4116C27.5077 28.4116 19.1123 20.0596 17.5982 22.0109C16.084 23.9622 25.3059 32.0459 25.3059 32.0459C25.3059 32.0459 19.7632 32.0459 19.3874 34.1365C19.3874 34.1365 19.6627 35.3909 21.3144 36.0878L26.2314 37.0636C26.2314 37.0636 27.9204 37.4818 32.6004 38.7361C37.2805 39.9903 40.8588 36.3667 40.8588 36.3667C45.2736 31.13 41.5972 25.8935 40.9514 25.0543C40.8892 24.9735 40.823 24.9015 40.7515 24.8291L36.3167 20.3384C36.3167 20.3384 34.803 19.084 33.7016 20.3384C32.6001 21.5928 33.7016 23.1259 33.7016 23.1259C33.7016 23.1259 30.9488 20.3382 29.5728 21.8714C28.1967 23.4045 30.5859 25.6347 30.5859 25.6347C30.5859 25.6347 27.2705 22.5683 25.9942 24.1014C24.7178 25.6345 27.5077 28.4116 27.5077 28.4116Z" fill="white"/>
</svg>
