<svg width="50" height="50" viewBox="0 0 50 50" fill="none" xmlns="http://www.w3.org/2000/svg">
<rect width="50" height="50" fill="#06165F"/>
<path d="M35.0481 23.5904H23.5454V29.6877H35.0481V23.5904Z" fill="white"/>
<path d="M42.975 23.5904H36.2401V29.6877H42.975V23.5904Z" fill="#FF4D08"/>
<path d="M40.9328 15.2159L35.2565 18.6942L35.3398 18.6358C33.306 15.6497 29.8719 13.6812 25.9876 13.6812C19.7445 13.6812 14.6766 18.7525 14.6766 25C14.6766 31.2475 19.7445 36.3188 25.9876 36.3188C30.2803 36.3188 34.0145 33.9249 35.9316 30.3967H43C40.7078 37.7034 34.0395 43 25.9876 43C16.0519 43 8 34.9425 8 25C8 15.0575 16.0519 7 25.9876 7C32.2891 7 37.8321 10.2363 41.0412 15.1409" fill="white"/>
</svg>
