<svg width="50" height="50" viewBox="0 0 50 50" fill="none" xmlns="http://www.w3.org/2000/svg">
<path d="M7 6V41.625C7 42.9367 8.09894 44 9.45455 44H15.5909C17.2466 43.733 18.1531 42.979 18.4545 41.2292V30.5417H31.5455L33.4343 35.6547C33.5861 36.0655 34.2126 35.9714 34.2284 35.5353L34.4092 30.5417L34.4091 27.7708H15.5909V41.2292H9.86364V8.77083H19.0189L21.8466 15.8972L25.0001 15.8958L20.9091 6H7Z" fill="url(#paint0_linear_9176_12773)"/>
<path d="M43 6H31.5455V19.4583L18.4546 19.4583L16.3826 14.1599C16.2217 13.7484 15.5909 13.86 15.5909 14.3L15.5909 22.2292H34.4091V8.77083H40.1364V41.2292H31.2647L28.4772 34.104L25.4091 34.1042L29.4994 43.9986L29.5 44H43V6Z" fill="url(#paint1_linear_9176_12773)"/>
<defs>
<linearGradient id="paint0_linear_9176_12773" x1="43" y1="6" x2="8.28479" y2="45.1396" gradientUnits="userSpaceOnUse">
<stop stop-color="#1AA693"/>
<stop offset="0.484829" stop-color="#1D9EB6"/>
<stop offset="1" stop-color="#279AE5"/>
</linearGradient>
<linearGradient id="paint1_linear_9176_12773" x1="43" y1="6" x2="8.28479" y2="45.1396" gradientUnits="userSpaceOnUse">
<stop stop-color="#1AA693"/>
<stop offset="0.484829" stop-color="#1D9EB6"/>
<stop offset="1" stop-color="#279AE5"/>
</linearGradient>
</defs>
</svg>
