<svg width="50" height="50" viewBox="0 0 50 50" fill="none" xmlns="http://www.w3.org/2000/svg">
<rect width="50" height="50" fill="black"/>
<path d="M19.0409 9C18.2319 9 17 9.32026 17 10.3334V37.2567C17 38.211 18.2768 38.6283 19.0409 38.6283C19.7904 38.6283 21.122 38.1988 21.122 37.2567V10.3359C21.122 9.3315 19.8377 9 19.0409 9ZM23.9102 23.4996C23.2109 24.1496 23.7301 25.3303 24.2539 25.9015C24.7665 26.4608 25.9856 27.1862 26.696 26.5329L28.8786 25.1816V37.2567C28.8786 38.2077 30.1126 38.6283 30.8811 38.6283C31.6378 38.6283 33 38.2186 33 37.2568V21.022C33 19.4969 30.3815 19.4186 29.4287 20.0648L23.9102 23.4996Z" fill="white"/>
</svg>
