<svg width="50" height="50" viewBox="0 0 50 50" fill="none" xmlns="http://www.w3.org/2000/svg">
<path fill-rule="evenodd" clip-rule="evenodd" d="M20.8878 15.0537L25.044 19.7525L24.9223 19.8601L20.7661 15.1614L20.8878 15.0537Z" fill="#284A6A"/>
<path fill-rule="evenodd" clip-rule="evenodd" d="M15.0947 20.9655L11.8415 16.2155L11.9086 16.1696L15.0947 20.9655Z" fill="#284A6A"/>
<path fill-rule="evenodd" clip-rule="evenodd" d="M29.1589 14.864L29.6226 20.2562L34.8424 20.855L34.8323 20.943L34.8849 21.0054L30.0813 25.0527L35.0297 29.4054L29.6327 29.8505L29.2053 34.9563L24.9838 30.2758L20.7654 34.9528L20.2303 29.7582L14.9396 29.2214L19.7102 25.0473L15.1334 20.9369L20.226 20.2694L20.7461 15.1001L20.9077 15.1164L20.3912 20.2504L24.949 19.7279L29.1589 14.864ZM24.9831 19.8875L20.3745 20.4159L19.9085 25.0481L20.3784 29.6099L24.9474 30.0735L25.0155 30.0684L29.4822 29.6999L29.8716 25.0483L29.4721 20.4025L24.9831 19.8875ZM29.4579 20.2373L25.1507 19.7432L29.0299 15.2612L29.4579 20.2373ZM29.6368 20.4214L30.0212 24.8909L34.644 20.9958L29.6368 20.4214ZM30.0206 25.2158L29.6465 29.6864L34.6353 29.2748L30.0206 25.2158ZM29.4685 29.8641L25.1524 30.2201L29.0747 34.5689L29.4685 29.8641ZM24.8124 30.2231L20.3954 29.775L20.8896 34.5724L24.8124 30.2231ZM20.2133 29.5932L19.7626 25.2174L15.328 29.0975L20.2133 29.5932ZM19.7624 24.8771L20.2093 20.4349L15.3253 20.9948L19.7624 24.8771Z" fill="#284A6A"/>
<path fill-rule="evenodd" clip-rule="evenodd" d="M28.0372 9.52432L29.1211 14.9914L33.8154 11.6869L33.8379 11.7189L33.8729 11.7151L34.3027 15.6763L38.0907 16.1523L38.0864 16.1868L38.1192 16.2093L34.8983 20.9123L39.5048 22.1768L37.6193 25.0978L39.4141 27.8254L34.8984 29.3606L38.1602 33.7548L34.3245 34.2008L33.8729 38.1997L33.8391 38.1958L33.8148 38.2291L29.1677 34.8332L28.0899 40.3848L24.9854 38.0036L21.936 40.3448L21.9196 40.3235L21.8714 40.3329L20.8 34.8367L16.0501 38.2704L15.6251 34.225L11.8021 33.8004L15.0682 29.1818L10.5071 27.7823L12.3763 24.9874L10.5515 22.1771L15.0963 20.9048L15.6239 15.7791L11.8799 16.2329L11.8701 16.1523L15.6324 15.6962L16.0493 11.6465L20.7999 15.0357L21.884 9.52454L24.9733 11.8756L28.0372 9.52432ZM24.9065 11.9269L21.9385 9.66816L20.8875 15.0111L24.9065 11.9269ZM20.7212 15.0794L16.1158 11.7937L15.7151 15.6862L20.7212 15.0794ZM15.7066 15.7691L15.1804 20.8813L15.2292 20.8676L12.4736 24.9881L15.1732 29.1455L15.6991 34.1515L20.7763 34.7154L20.7665 34.6651L20.8416 34.7227L20.9423 34.7338L20.8979 34.7659L24.9854 37.9011L29.1242 34.7235L34.251 34.1275L34.7932 29.3261L37.5223 25.0982L34.7932 20.9505L34.2288 15.7489L29.0779 15.1015L24.9735 11.9779L20.7663 15.2066L20.7765 15.1545L15.7066 15.7691ZM34.2198 15.6658L33.8001 11.797L29.2003 15.035L34.2198 15.6658ZM29.0331 14.9654L25.0403 11.9266L27.9829 9.66838L29.0331 14.9654ZM34.3117 15.7593L34.8611 20.8228L38.0105 16.2241L34.3117 15.7593ZM34.9257 21.0041L37.5705 25.0236L39.3765 22.2259L34.9257 21.0041ZM37.5712 25.1724L34.93 29.2641L39.2885 27.7823L37.5712 25.1724ZM34.8613 29.4471L34.3338 34.1179L38.0111 33.6904L34.8613 29.4471ZM34.2416 34.2104L29.2477 34.791L33.8003 38.118L34.2416 34.2104ZM29.0797 34.8601L25.0522 37.9523L28.0352 40.2404L29.0797 34.8601ZM24.9187 37.9524L20.8873 34.8601L21.9365 40.242L24.9187 37.9524ZM20.724 34.7914L15.7077 34.2342L16.1162 38.1223L20.724 34.7914ZM15.6164 34.1423L15.1046 29.271L11.948 33.7348L15.6164 34.1423ZM15.0388 29.0878L12.4244 25.0616L10.6354 27.7367L15.0388 29.0878ZM12.4254 24.9139L15.0396 21.0051L10.6798 22.2256L12.4254 24.9139Z" fill="#284A6A"/>
<path d="M17.4138 27.3969L17.4469 22.6469L22.2 22.68L22.1669 27.43L17.4138 27.3969ZM22.5563 22.1644L22.5894 17.4144L27.3425 17.4475L27.3094 22.1975L22.5563 22.1644ZM22.555 32.5831L22.5881 27.8331L27.3413 27.8662L27.3081 32.6163L22.555 32.5831ZM27.7425 27.3519L27.7756 22.6019L32.5288 22.635L32.4956 27.385L27.7425 27.3519Z" fill="#256EA5"/>
<path d="M27.4688 16.715L27.4919 13.4169L30.8044 13.44L30.7813 16.7381L27.4688 16.715ZM19.1875 16.7144L19.2106 13.4163L22.5231 13.4394L22.5 16.7375L19.1875 16.7144ZM13.455 22.5894L13.4781 19.2913L16.7906 19.3144L16.7675 22.6125L13.455 22.5894ZM13.4513 30.875L13.4856 27.5769L16.7969 27.6113L16.7625 30.9094L13.4513 30.875ZM33.2 30.8125L33.2231 27.5144L36.5356 27.5375L36.5125 30.8356L33.2 30.8125ZM33.2669 22.6125L33.3013 19.3144L36.6125 19.3488L36.5781 22.6469L33.2669 22.6125Z" fill="#3378BC"/>
<path d="M10.7706 17.2687L10.7856 15.1L12.95 15.115L12.935 17.2837L10.7706 17.2687ZM15.0019 12.855L15.0169 10.6862L17.1813 10.7012L17.1663 12.87L15.0019 12.855ZM20.8269 10.6719L20.8419 8.50312L23.0063 8.51812L22.9913 10.6869L20.8269 10.6719ZM9.49627 23.275L9.51127 21.1063L11.6613 21.1213L11.6463 23.29L9.49627 23.275ZM36.9919 15.13L39.1606 15.115L39.1756 17.2794L37.0069 17.2944L36.9919 15.13ZM32.7588 10.6425L34.9275 10.6275L34.9425 12.7919L32.7738 12.8069L32.7588 10.6425ZM26.915 8.51375L29.0838 8.49875L29.0988 10.6631L26.93 10.6781L26.915 8.51375ZM38.2525 21.13L40.4213 21.115L40.4363 23.2794L38.2675 23.2944L38.2525 21.13Z" fill="#169BD6"/>
<path d="M19.1419 36.5L19.165 33.2019L22.4775 33.225L22.4544 36.5231L19.1419 36.5ZM27.4231 36.5L27.4463 33.2019L30.7588 33.225L30.7356 36.5231L27.4231 36.5Z" fill="#3378BC"/>
<path d="M36.9775 34.8312L36.9925 32.6625L39.1569 32.6775L39.1419 34.8463L36.9775 34.8312ZM32.7913 39.29L32.8063 37.1213L34.9706 37.1362L34.9556 39.305L32.7913 39.29ZM26.9663 41.4275L26.9813 39.2588L29.1456 39.2738L29.1306 41.4425L26.9663 41.4275ZM38.2513 28.825L38.2663 26.6562L40.4306 26.6712L40.4156 28.84L38.2513 28.825ZM10.775 32.6625L12.9438 32.6475L12.9588 34.8119L10.79 34.8269L10.775 32.6625ZM15.0075 37.105L17.1763 37.09L17.1913 39.2544L15.0225 39.2694L15.0075 37.105ZM20.805 39.2331L22.9738 39.2181L22.9888 41.3825L20.82 41.3975L20.805 39.2331ZM9.51252 26.6625L11.6813 26.6475L11.6963 28.8119L9.52752 28.8269L9.51252 26.6625Z" fill="#169BD6"/>
<path d="M41.5275 16.4575L41.5356 15.2825L42.7331 15.2906L42.725 16.4656L41.5275 16.4575Z" fill="#00A8DA"/>
<path d="M43.0738 20.0062L43.0819 18.8312L44.2794 18.8394L44.2713 20.0144L43.0738 20.0062Z" fill="#00A8DA"/>
<path d="M39.435 13.3175L39.4431 12.1425L40.6406 12.1506L40.6325 13.3256L39.435 13.3175Z" fill="#00A8DA"/>
<path d="M12 10.6331L12.0081 9.45812L13.2056 9.46625L13.1975 10.6412L12 10.6331Z" fill="#00A8DA"/>
<path d="M5.12939 23.7356L5.13752 22.5606L6.33502 22.5688L6.32689 23.7437L5.12939 23.7356Z" fill="#00A8DA"/>
<path d="M36.7963 10.6337L36.8044 9.45875L38.0019 9.46687L37.9938 10.6419L36.7963 10.6337Z" fill="#00A8DA"/>
<path d="M5.81252 20.005L5.82065 18.83L7.01814 18.8381L7.01002 20.0131L5.81252 20.005Z" fill="#00A8DA"/>
<path d="M18.7325 6.99375L18.7406 5.81875L19.9381 5.82687L19.93 7.00187L18.7325 6.99375Z" fill="#00A8DA"/>
<path d="M7.26752 16.4562L7.27564 15.2812L8.47314 15.2894L8.46502 16.4644L7.26752 16.4562Z" fill="#00A8DA"/>
<path d="M9.40627 13.2725L9.4144 12.0975L10.6119 12.1056L10.6038 13.2806L9.40627 13.2725Z" fill="#00A8DA"/>
<path d="M15.2063 7.33125L16.3813 7.32312L16.3894 8.52062L15.2144 8.52875L15.2063 7.33125ZM22.4638 5.02125L23.6388 5.01312L23.6469 6.21062L22.4719 6.21875L22.4638 5.02125Z" fill="#00A8DA"/>
<path d="M33.6106 8.54062L33.6188 7.36562L34.8163 7.37375L34.8081 8.54875L33.6106 8.54062Z" fill="#00A8DA"/>
<path d="M43.6663 23.6912L43.6744 22.5162L44.8719 22.5244L44.8638 23.6994L43.6663 23.6912Z" fill="#00A8DA"/>
<path d="M26.2856 6.175L26.2938 5L27.4913 5.00812L27.4831 6.18313L26.2856 6.175Z" fill="#00A8DA"/>
<path d="M30.0169 6.94812L30.025 5.77312L31.2225 5.78125L31.2144 6.95625L30.0169 6.94812Z" fill="#00A8DA"/>
<path d="M36.795 40.5706L36.8031 39.3956L38.0006 39.4038L37.9925 40.5788L36.795 40.5706Z" fill="#00A8DA"/>
<path d="M43.6663 27.4675L43.6744 26.2925L44.8719 26.3006L44.8638 27.4756L43.6663 27.4675Z" fill="#00A8DA"/>
<path d="M11.9988 40.57L12.0069 39.395L13.2044 39.4031L13.1963 40.5781L11.9988 40.57Z" fill="#00A8DA"/>
<path d="M43.0738 31.25L43.0819 30.075L44.2794 30.0831L44.2713 31.2581L43.0738 31.25Z" fill="#00A8DA"/>
<path d="M30.0156 44.2562L30.0238 43.0812L31.2213 43.0894L31.2131 44.2644L30.0156 44.2562Z" fill="#00A8DA"/>
<path d="M41.5269 34.7925L41.535 33.6175L42.7325 33.6256L42.7244 34.8006L41.5269 34.7925Z" fill="#00A8DA"/>
<path d="M39.4344 37.9775L39.4425 36.8025L40.64 36.8106L40.6319 37.9856L39.4344 37.9775Z" fill="#00A8DA"/>
<path d="M33.5625 41.5838L34.7375 41.5756L34.7456 42.7731L33.5706 42.7812L33.5625 41.5838ZM26.3488 43.8025L27.5238 43.7944L27.5319 44.9919L26.3569 45L26.3488 43.8025Z" fill="#00A8DA"/>
<path d="M15.2294 42.8L15.2375 41.625L16.435 41.6331L16.4269 42.8081L15.2294 42.8Z" fill="#00A8DA"/>
<path d="M7.22189 34.7463L7.23002 33.5713L8.42752 33.5794L8.41939 34.7544L7.22189 34.7463Z" fill="#00A8DA"/>
<path d="M5.81127 31.2437L5.81939 30.0688L7.01689 30.0769L7.00877 31.2519L5.81127 31.2437Z" fill="#00A8DA"/>
<path d="M9.35939 37.9762L9.36752 36.8013L10.565 36.8094L10.5569 37.9844L9.35939 37.9762Z" fill="#00A8DA"/>
<path d="M5.12939 27.4669L5.13752 26.2919L6.33502 26.3L6.32689 27.475L5.12939 27.4669Z" fill="#00A8DA"/>
<path d="M22.5088 44.9837L22.5169 43.8088L23.7144 43.8169L23.7063 44.9919L22.5088 44.9837Z" fill="#00A8DA"/>
<path d="M18.6875 44.21L18.6956 43.035L19.8931 43.0431L19.885 44.2181L18.6875 44.21Z" fill="#00A8DA"/>
</svg>
