<svg width="50" height="50" viewBox="0 0 50 50" fill="none" xmlns="http://www.w3.org/2000/svg">
<path d="M39.4488 19.1312L30.8836 10.555C27.5132 7.36873 22.5141 7.18894 19.1432 10.555L10.557 19.1312C7.37208 22.5005 7.185 27.5016 10.557 30.8687L19.1327 39.4451C22.475 42.6111 27.517 42.7906 30.8695 39.4451L39.4418 30.8687C42.6321 27.4995 42.8115 22.5012 39.4418 19.1312H39.4488ZM29.9478 16.5832L25.0064 21.5215L20.0649 16.5797C24.2561 12.3825 25.743 12.3723 29.9478 16.5832ZM16.5919 20.0495L21.5333 24.9913L16.5884 29.933C12.3963 25.7349 12.3823 24.2593 16.5919 20.0495ZM20.0649 33.4378L25.0064 28.4925L29.9478 33.4343C26.1232 37.2645 24.2391 37.5773 20.0649 33.4378ZM35.9582 27.4306L33.4244 29.933L28.4829 24.9913L33.4244 20.0495L35.9722 22.5975C36.6556 23.2774 37.3741 24.2412 36.964 25.6501" fill="#00ABE4"/>
</svg>
