<svg width="50" height="50" viewBox="0 0 50 50" fill="none" xmlns="http://www.w3.org/2000/svg">
<path d="M28.1092 24.8251C28.1429 23.0349 26.6294 21.5161 24.8571 21.5217C23.0883 21.5266 21.6051 22.9924 21.5793 24.761C21.5489 26.5586 23.0593 28.0764 24.8571 28.0548C26.6312 28.0907 28.1326 26.5811 28.1092 24.8251ZM38.9048 31.9997C38.9185 30.7047 37.2925 29.9436 36.3501 30.9131C35.4473 31.8417 36.1017 33.4396 37.3654 33.5071C38.1945 33.5142 38.8944 32.8288 38.9048 31.9997ZM35.9157 17.6441C35.8982 18.465 36.5963 19.1841 37.4263 19.1804C38.2472 19.1735 38.9492 18.4639 38.9369 17.6345C38.9213 16.8021 38.2171 16.1168 37.3846 16.1238C36.5755 16.1495 35.9136 16.8346 35.9157 17.6441ZM40.0807 28.6756C40.6522 28.4507 41.0306 27.8707 41.0088 27.2594C40.972 26.4587 40.2917 25.809 39.4902 25.809C38.6886 25.809 38.0083 26.4587 37.9715 27.2594C37.9496 27.8715 38.3291 28.4523 38.9018 28.6766C39.2672 28.8196 39.7156 28.8193 40.0807 28.6756ZM32.6988 24.8251C32.743 23.9911 32.0363 23.2713 31.2106 23.2888C30.3818 23.2693 29.6721 23.9762 29.6776 24.7963C29.6788 25.6062 30.3402 26.2908 31.1497 26.3197C31.9783 26.3445 32.6939 25.6452 32.6988 24.8251ZM36.7816 22.394C36.8112 21.5594 36.0967 20.8498 35.271 20.8738C34.4595 20.8702 33.7757 21.5409 33.7636 22.3523C33.7461 23.1823 34.4431 23.8974 35.2646 23.9111C36.0975 23.9311 36.8015 23.2181 36.7816 22.394ZM33.7444 27.3524C33.7314 28.1744 34.4405 28.8792 35.271 28.8502C36.1012 28.8295 36.7798 28.1218 36.7656 27.2915C36.7332 26.4854 36.0457 25.8311 35.2389 25.8386C34.414 25.8022 33.6968 26.5182 33.7444 27.3524ZM39.5174 23.8245C40.3119 23.7942 40.9615 23.1244 40.9674 22.3294C40.9733 21.5344 40.3338 20.8549 39.5399 20.8128C38.4748 20.7564 37.6487 21.8954 38.0697 22.9005C38.2271 23.2763 38.5401 23.5799 38.9206 23.7257C39.1108 23.7986 39.3138 23.8322 39.5174 23.8245Z" fill="#FDFDFD"/>
<path d="M26.156 9.72217C29 9.72217 32.0489 10.9277 34.0747 12.8973L32.2402 15.29C29.2061 13.0737 25.8513 12.3265 22.1983 13.1315C16.6661 14.3337 12.7323 19.5238 12.878 25.1521C13.0328 31.1332 17.7068 36.1326 23.6509 36.7647C26.7162 37.0907 29.7913 36.2455 32.2594 34.3988L34.1036 36.8042C33.7251 37.064 33.3755 37.3238 33.0099 37.5579C22.6516 44.181 10.2007 36.7647 9.72207 25.8578C9.27664 15.706 17.1838 9.72217 26.156 9.72217Z" fill="#E80386"/>
<path d="M28.1092 24.8251C28.1326 26.5811 26.6312 28.0907 24.8571 28.0548C23.0819 28.0761 21.5543 26.5641 21.5793 24.7706C21.6 22.9984 23.0847 21.5267 24.8571 21.5217C26.6294 21.5161 28.1429 23.0349 28.1092 24.8251Z" fill="#A4025B"/>
<path d="M38.9048 31.9997C38.8944 32.8288 38.1945 33.5142 37.3654 33.5071C37.0627 33.5039 36.7678 33.411 36.5179 33.2401C36.0182 32.8984 35.7598 32.2544 35.8846 31.662C36.0094 31.0696 36.5057 30.5846 37.1008 30.4735C38.0238 30.3012 38.9232 31.046 38.9113 31.9965L38.9048 31.9997Z" fill="#E90687"/>
<path d="M35.9157 17.6441C35.9136 16.8346 36.5755 16.1495 37.3846 16.1238C38.2171 16.1168 38.9213 16.8021 38.9369 17.6345C38.9492 18.4639 38.2472 19.1735 37.4263 19.1804C36.5963 19.1841 35.8982 18.465 35.9157 17.6441Z" fill="#E90687"/>
<path d="M38.9018 28.6766C38.3326 28.454 37.951 27.8759 37.9715 27.2626C38.0083 26.4619 38.6886 25.8122 39.4902 25.8122C40.2917 25.8122 40.972 26.4619 41.0088 27.2626C41.0292 27.8727 40.6513 28.4514 40.0807 28.6756C39.7156 28.8193 39.2672 28.8196 38.9018 28.6766Z" fill="#E80487"/>
<path d="M32.6988 24.8251C32.6939 25.6452 31.9783 26.3445 31.1497 26.3197C30.3402 26.2908 29.6788 25.6062 29.6776 24.7963C29.6721 23.9762 30.3818 23.2693 31.2106 23.2888C32.0363 23.2713 32.743 23.9911 32.6988 24.8251Z" fill="#E90587"/>
<path d="M36.7816 22.394C36.8015 23.2181 36.0975 23.9311 35.2646 23.9111C34.4431 23.8974 33.7461 23.1823 33.7636 22.3523C33.7757 21.5409 34.4595 20.8702 35.271 20.8738C36.0967 20.8498 36.8112 21.5594 36.7816 22.394Z" fill="#E90587"/>
<path d="M33.7444 27.3524C33.6968 26.5182 34.414 25.8022 35.2389 25.8386C36.0457 25.8311 36.7332 26.4854 36.7656 27.2915C36.7798 28.1218 36.1012 28.8295 35.271 28.8502C34.4405 28.8792 33.7314 28.1744 33.7444 27.3524Z" fill="#E90587"/>
<path d="M38.1122 22.8892C37.2051 20.7345 40.9857 20.1098 41.0088 22.2882C41.0229 22.6883 40.8673 23.0878 40.5863 23.373C40.4458 23.5156 40.2777 23.628 40.0923 23.7034C39.3323 24.0126 38.4294 23.6424 38.1122 22.8892Z" fill="#E80486"/>
</svg>
