<svg width="50" height="50" viewBox="0 0 50 50" fill="none" xmlns="http://www.w3.org/2000/svg">
<path fill-rule="evenodd" clip-rule="evenodd" d="M16.0338 17.2995C15.758 17.4086 15.7581 17.4083 15.7969 18.3022C15.9012 20.701 15.9507 21.5464 15.9974 21.7306C16.0794 22.0542 17.3472 22.1225 17.6001 21.817C17.6546 21.7511 17.7 21.172 17.7647 19.7167C17.7843 19.2767 17.8152 18.7327 17.8336 18.5077C17.8797 17.9409 17.8748 17.4967 17.8218 17.427C17.674 17.2325 16.4277 17.1436 16.0338 17.2995ZM20.3505 22.7834C20.3499 23.8697 20.5757 24.1097 21.5983 24.1097C22.5752 24.1097 22.8668 23.8091 22.8668 22.8022C22.8668 20.9933 20.3516 20.9363 20.3505 22.7834ZM24.8513 24.462C24.7842 24.4766 24.7201 24.5317 24.6514 24.6335C24.4061 24.9972 24.4317 25.9059 24.7041 26.2161C24.7695 26.2907 24.8639 26.3334 24.9631 26.3334H28.7518C28.8178 26.3334 28.8809 26.3061 28.9261 26.258C29.2101 25.9556 29.1963 24.7075 28.9067 24.511C28.8142 24.4483 25.1176 24.4035 24.8513 24.462ZM30.518 24.462C30.4509 24.4766 30.3867 24.5317 30.3181 24.6335C30.0728 24.9972 30.0984 25.9059 30.3707 26.2161C30.4362 26.2907 30.5306 26.3334 30.6298 26.3334H34.4184C34.4845 26.3334 34.5475 26.3061 34.5927 26.258C34.8767 25.9556 34.863 24.7075 34.5734 24.511C34.4809 24.4483 30.7842 24.4035 30.518 24.462ZM21.0835 27.3635C20.5331 27.5096 20.4668 27.6717 20.4668 28.8718C20.4668 29.652 20.4608 29.7448 20.4021 29.8741C20.1782 30.3669 20.1335 30.4691 20.1335 30.4881C20.1335 30.8038 19.8009 31.2915 19.6717 31.575C19.2357 32.5301 19.2445 32.5504 20.0944 32.5495C20.7407 32.5488 20.8858 32.4905 21.1159 32.1395C21.6136 31.3808 22.1773 30.6659 22.6017 29.8606C22.9059 29.283 22.967 27.9654 22.7063 27.6055C22.5447 27.3825 21.5635 27.2361 21.0835 27.3635Z" fill="#F2F3F3"/>
<path fill-rule="evenodd" clip-rule="evenodd" d="M8.3335 37.6667C8.3335 39.8758 10.1244 41.6667 12.3335 41.6667H37.6668C39.876 41.6667 41.6668 39.8758 41.6668 37.6667V12.3334C41.6668 10.1242 39.876 8.33337 37.6668 8.33337H12.3335C10.1244 8.33337 8.3335 10.1242 8.3335 12.3334V37.6667ZM17.605 17.302C17.8885 17.4137 17.9123 17.5392 17.8336 18.5077C17.8152 18.7327 17.7843 19.2767 17.7647 19.7167C17.7 21.172 17.6546 21.7511 17.6001 21.817C17.3472 22.1225 16.0794 22.0542 15.9974 21.7306C15.9507 21.5464 15.9012 20.701 15.7969 18.3022C15.7581 17.4083 15.758 17.4086 16.0338 17.2995C16.2723 17.2051 17.3637 17.2069 17.605 17.302ZM22.2335 21.5225C22.6934 21.673 22.8668 22.0234 22.8668 22.8022C22.8668 23.8091 22.5752 24.1097 21.5983 24.1097C20.5757 24.1097 20.3499 23.8697 20.3505 22.7834C20.351 21.939 20.4736 21.676 20.9373 21.5249C21.2387 21.4267 21.937 21.4254 22.2335 21.5225ZM28.9067 24.511C29.1963 24.7075 29.2101 25.9556 28.9261 26.258C28.8809 26.3061 28.8178 26.3334 28.7518 26.3334H24.9631C24.8639 26.3334 24.7695 26.2907 24.7041 26.2161C24.4317 25.9059 24.4061 24.9972 24.6514 24.6335C24.9784 24.149 28.3823 24.1554 28.9067 24.511ZM34.5734 24.511C34.863 24.7075 34.8767 25.9556 34.5927 26.258C34.5475 26.3061 34.4845 26.3334 34.4184 26.3334H30.6298C30.5306 26.3334 30.4362 26.2907 30.3707 26.2161C30.0984 25.9059 30.0728 24.9972 30.3181 24.6335C30.6451 24.149 34.049 24.1554 34.5734 24.511ZM22.4713 27.4245C22.7807 27.5645 22.8668 27.7804 22.8668 28.4157C22.8668 28.9736 22.7588 29.5623 22.6017 29.8606C22.1773 30.6659 21.6136 31.3808 21.1159 32.1395C20.8858 32.4905 20.7407 32.5488 20.0944 32.5495C19.2445 32.5504 19.2357 32.5301 19.6717 31.575C19.8009 31.2915 20.1335 30.8038 20.1335 30.4881C20.1335 30.4691 20.1782 30.3669 20.4021 29.8741C20.4608 29.7448 20.4668 29.652 20.4668 28.8718C20.4668 27.6717 20.5331 27.5096 21.0835 27.3635C21.3038 27.305 22.3046 27.349 22.4713 27.4245Z" fill="#3C9CC4"/>
</svg>
