<svg width="50" height="50" viewBox="0 0 50 50" fill="none" xmlns="http://www.w3.org/2000/svg">
<path d="M34.9996 40.0002H29.9998V45H34.9996V40.0002Z" fill="#72ACD1"/>
<path d="M29.9998 40.0002H25V45H29.9998V40.0002Z" fill="#4596CB"/>
<path d="M25 40.0002H20.0002V45H25V40.0002Z" fill="#4596CB"/>
<path d="M20.0342 39.9961H15.0344V44.9959H20.0342V39.9961Z" fill="#72ACD1"/>
<path d="M40.0002 35.0004H35.0004L34.9996 40.0002H40.0002V35.0004Z" fill="#45A0CB"/>
<path d="M35.0004 35.0004H29.9998V40.0002H34.9996L35.0004 35.0004Z" fill="#2E96C7"/>
<path d="M29.9998 35.0004H25V40.0002H29.9998V35.0004Z" fill="#0082BF"/>
<path d="M25 35.0004H20.0002V40.0002H25V35.0004Z" fill="#0082BF"/>
<path d="M20.0002 35.0004H15.0004V40.0002H20.0002V35.0004Z" fill="#2E96C7"/>
<path d="M15.0004 35.0004H9.99979V40.0002H15.0004V35.0004Z" fill="#45A0CB"/>
<path d="M45 29.9998H40.0002V35.0004L45 34.9996V29.9998Z" fill="#72B9D1"/>
<path d="M40.0002 29.9998H35.0004V35.0004H40.0002V29.9998Z" fill="#2EA0C7"/>
<path d="M35.0004 29.9998H29.9998V35.0004L34.9996 34.9996L35.0004 29.9998Z" fill="#008FBF"/>
<path d="M29.9998 29.9998H25V35.0004H29.9998V29.9998Z" fill="#008FBF"/>
<path d="M25 29.9998H20.0002V35.0004H25V29.9998Z" fill="#008FBF"/>
<path d="M20.0002 29.9998H15.0004V35.0004H20.0002V29.9998Z" fill="#008FBF"/>
<path d="M15.0004 29.9998H9.99979V35.0004L14.9996 34.9996L15.0004 29.9998Z" fill="#2EA0C7"/>
<path d="M9.99979 29.9998H5V34.9996L9.99979 35.0004V29.9998Z" fill="#72B9D1"/>
<path d="M45 25H40.0002V29.9998H45V25Z" fill="#45B3CB"/>
<path d="M40.0002 25H35.0004V29.9998H40.0002V25Z" fill="#009DBF"/>
<path d="M35.0004 25H29.9998V29.9998H35.0004V25Z" fill="#009DBF"/>
<path d="M29.9998 25H25V29.9998H29.9998V25Z" fill="#009DBF"/>
<path d="M25 25H20.0002V29.9998H25V25Z" fill="#009DBF"/>
<path d="M20.0002 25H15.0004V29.9998H20.0002V25Z" fill="#009DBF"/>
<path d="M15.0004 25H9.99979V29.9998H15.0004V25Z" fill="#009DBF"/>
<path d="M9.99979 25H5V29.9998H9.99979V25Z" fill="#45B3CB"/>
<path d="M45 20.0002H40.0002V25H45V20.0002Z" fill="#45BDCB"/>
<path d="M40.0002 20.0002H35.0004V25H40.0002V20.0002Z" fill="#00ABBF"/>
<path d="M35.0004 20.0002H29.9998V25H35.0004V20.0002Z" fill="#00ABBF"/>
<path d="M29.9998 20.0002H25V25H29.9998V20.0002Z" fill="#00ABBF"/>
<path d="M25 20.0002H20.0002V25H25V20.0002Z" fill="#00ABBF"/>
<path d="M20.0002 20.0002H15.0004V25H20.0002V20.0002Z" fill="#00ABBF"/>
<path d="M15.0004 20.0002H9.99979V25H15.0004V20.0002Z" fill="#00ABBF"/>
<path d="M9.99979 20.0002H5V25H9.99979V20.0002Z" fill="#45BDCB"/>
<path d="M45 15.0004H40.0002V20.0002H45V15.0004Z" fill="#72CED1"/>
<path d="M40.0002 15.0004H35.0004V20.0002H40.0002V15.0004Z" fill="#2EC2C7"/>
<path d="M35.0004 15.0004H29.9998V20.0002H35.0004V15.0004Z" fill="#00B9BF"/>
<path d="M29.9998 15.0004H25V20.0002H29.9998V15.0004Z" fill="#00B9BF"/>
<path d="M25 15.0004H20.0002V20.0002H25V15.0004Z" fill="#00B9BF"/>
<path d="M20.0002 15.0004H15.0004V20.0002H20.0002V15.0004Z" fill="#00B9BF"/>
<path d="M15.0004 15.0004H9.99979V20.0002H15.0004V15.0004Z" fill="#2EC2C7"/>
<path d="M9.99979 15.0004H5V20.0002H9.99979V15.0004Z" fill="#72CED1"/>
<path d="M40.0002 9.99979H35.0004V15.0004H40.0002V9.99979Z" fill="#45D0CB"/>
<path d="M35.0004 9.99979H29.9998V15.0004L34.9996 14.9996L35.0004 9.99979Z" fill="#2ECCC7"/>
<path d="M29.9998 9.99979H25V15.0004H29.9998V9.99979Z" fill="#00C6BF"/>
<path d="M25 9.99979H20.0002V15.0004H25V9.99979Z" fill="#00C6BF"/>
<path d="M20.0002 9.99979H15.0004V15.0004H20.0002V9.99979Z" fill="#2ECCC7"/>
<path d="M15.0004 9.99979H9.99979V15.0004L14.9996 14.9996L15.0004 9.99979Z" fill="#45D0CB"/>
<path d="M34.9996 5H29.9998V9.99979H35.0004L34.9996 5Z" fill="#72DCD1"/>
<path d="M29.9998 5H25V9.99979H29.9998V5Z" fill="#45D9CB"/>
<path d="M25 5H20.0002V9.99979H25V5Z" fill="#45D9CB"/>
<path d="M20.0002 5H15.0004V9.99979H20.0002V5Z" fill="#72DCD1"/>
<path d="M18.165 23.4227L19.5582 20.3046C20.8842 18.2159 17.966 16.5649 16.751 18.5224C16.751 18.5224 14.8437 22.9724 14.1338 24.9726C13.4239 26.9729 13.7076 30.6408 16.4442 33.3833C19.0115 35.9506 23.4846 37.2546 26.5441 34.7326L34.8039 27.8353C36.2678 26.6255 34.9058 25.0658 33.3584 26.0549L28.6049 29.5113C28.2496 29.8051 28.0789 28.997 28.3454 28.7782L35.6323 22.5942C37.0099 21.3528 35.3141 19.4147 33.9165 20.6736L27.356 25.8028C27.0266 26.0714 26.6279 25.4835 26.9032 25.2098L34.3337 17.9991C35.7231 16.7029 33.6487 14.6811 32.3541 15.93L24.762 23.0619C24.5138 23.3102 23.9813 22.8967 24.2462 22.6374L30.0578 16.0204C31.4467 14.725 29.2492 12.7015 28.0369 13.9928L19.224 23.7362C18.8978 24.0624 17.7193 24.0018 18.165 23.4227Z" fill="white"/>
</svg>
