<svg width="50" height="50" viewBox="0 0 50 50" fill="none" xmlns="http://www.w3.org/2000/svg">
<path d="M22.7065 21.0086H20.7441C20.3416 21.0086 20.3213 21.6904 20.7441 21.6904H22.7065" fill="#0071FE"/>
<path d="M23.4035 23.0895H21.4418C21.0382 23.0895 21.0184 23.7747 21.4418 23.7747H23.4035" fill="#0071FE"/>
<path d="M33.2963 17.4885H31.3346C30.931 17.4885 30.9112 18.1737 31.3346 18.1737H33.2963" fill="#0071FE"/>
<path d="M33.2963 19.5702H31.3346C30.931 19.5702 30.9112 20.2554 31.3346 20.2554H33.2963" fill="#0071FE"/>
<path d="M35.3971 23.2264C35.6217 23.2267 35.8249 23.0114 35.8245 22.7734V21.416C35.7383 20.7556 35.5908 20.1058 35.3842 19.4761V19.4706L33.6773 14.7857C33.5435 14.4102 33.0154 14.55 33.0165 14.9146V15.5744C31.8748 14.4143 30.4759 13.5773 28.9488 13.1407C27.4217 12.7041 25.8154 12.6819 24.278 13.0761L23.3295 11.2164C23.2837 11.1272 23.2111 11.0568 23.1233 11.0163L14.7624 7.23109C14.3765 7.05627 14.046 7.52899 14.22 7.86493L17.2117 13.6825C17.2618 13.7801 17.3439 13.8549 17.4425 13.8929L17.9119 14.0697L19.1669 16.5118C18.0261 18.01 17.3187 19.826 17.1301 21.7408C16.9415 23.6555 17.2797 25.5872 18.1039 27.3028C18.0869 27.3494 18.078 27.3988 18.0774 27.4487V29.5195C18.0774 29.789 18.367 30.0207 18.6276 29.8916L18.4615 31.0195C17.1955 31.9526 16.1487 33.1815 15.4019 34.6114C15.3011 34.8074 15.3087 35.0573 15.4213 35.2459C15.5571 35.4721 15.7446 35.803 15.9217 36.1669C16.2558 36.8438 16.5274 37.5738 16.5476 38.3377C16.5529 38.695 16.4522 39.063 16.2133 39.3155C15.9801 39.5558 16.0929 40.0094 16.4235 40.085L24.5903 43.9627C25.2696 44.2855 26.075 44.2716 26.7441 43.9257L34.4577 39.9336C34.5672 39.8761 34.6394 39.7506 34.6374 39.6211C34.616 38.6689 34.3678 37.7378 33.9158 36.9145L35.1508 37.7367C35.4678 37.9492 35.8038 37.6394 35.8038 37.3133L35.1204 29.6449C35.256 29.568 35.3449 29.4111 35.3454 29.2481V27.9195H35.3603C35.6579 27.9195 35.8487 27.6033 35.7689 27.3295L34.9284 24.4406V23.2264H35.3971ZM34.7771 19.7036C34.9664 20.2822 35.1024 20.8788 35.1831 21.4852V22.5446H29.1053L28.5351 21.4249H33.2285C33.4552 21.4249 33.6559 21.2122 33.6559 20.972V16.6187L34.7771 19.7036ZM31.7847 30.8543L32.7003 30.032C32.9374 29.82 33.2377 29.7037 33.5479 29.7038H34.4829L35.1256 36.9186L32.9919 35.4906L32.0363 33.6315L31.4731 33.9563L31.8798 34.7464L30.7864 34.0166L29.7383 31.9788L29.1758 32.3036L29.6737 33.2732L26.5701 31.2004V29.5359L26.9671 30.3075C27.0407 30.4507 27.189 30.544 27.3428 30.5439H27.3518L30.3985 30.5316C30.7402 30.5295 30.9203 30.1152 30.7606 29.8402L29.6827 28.0051L31.1446 28.5629C31.1017 28.7237 31.0799 28.8899 31.08 29.057V30.5144C31.0758 30.8641 31.5059 31.1192 31.7847 30.8543ZM26.4951 13.4811C27.7243 13.4794 28.94 13.7523 30.063 14.2819C31.1859 14.8116 32.191 15.5861 33.0126 16.555V20.7513H28.1859L24.5903 13.6976C25.2158 13.5511 25.8545 13.4773 26.4951 13.4776V13.4811ZM19.5031 17.1642L20.3908 18.8896C20.441 18.9848 20.5218 19.0577 20.6184 19.0951L21.3426 19.374L23.2325 23.0489L23.7957 22.7241L22.253 19.7235L23.0935 20.0469L23.3127 19.409L20.9152 18.4866L18.8203 14.4123L19.9964 14.8556L20.2111 14.2156L17.7367 13.2823L15.0786 8.1123L22.7974 11.6111L28.6456 23.079L28.2577 26.6868C28.2567 26.7039 28.2567 26.721 28.2577 26.7382C28.2578 26.8227 28.2802 26.9055 28.3223 26.9773L30.0125 29.8553L27.4689 29.8655L25.3662 25.7836L24.8037 26.1084L25.9249 28.2888V30.276C25.692 30.2511 25.458 30.2387 25.224 30.239C23.9496 30.2805 22.6811 30.4386 21.4325 30.7118C20.4477 30.9098 19.5813 31.1229 19.0744 31.2545L19.3408 29.4407L24.7352 26.0194L24.4061 25.4369L18.7201 29.0426V27.6036L23.5655 24.5612L23.2422 23.9774L18.6238 26.8766C17.9067 25.3295 17.6093 23.6018 17.7648 21.8861C17.9203 20.1703 18.5226 18.5342 19.5044 17.16L19.5031 17.1642ZM17.8867 32.3721C18.1123 32.1542 18.3173 31.9774 18.4848 31.8417C18.5856 31.9757 18.7612 32.0402 18.918 31.998C19.2968 31.8965 20.3372 31.6259 21.5521 31.3813C22.7616 31.1165 23.9903 30.9625 25.2246 30.9208C25.4588 30.9196 25.6928 30.9328 25.9255 30.9605V31.1894C21.1499 34.0927 18.2863 34.595 16.8851 34.595C16.6472 34.5966 16.4094 34.5794 16.1739 34.5436C16.6447 33.7366 17.2209 33.0044 17.8854 32.3687L17.8867 32.3721ZM26.4609 43.3179C25.9606 43.5767 25.3583 43.5872 24.8503 43.346L21.8372 41.9132C24.0424 40.2112 26.7598 39.4249 29.4752 39.7033L29.5289 39.0263C26.5351 38.6981 23.5388 39.6213 21.1777 41.5994L16.9136 39.5725C18.4431 38.2099 20.2188 37.1921 22.1321 36.5815C23.8064 36.0515 25.5456 35.7868 27.293 35.7962C28.3649 35.7954 29.435 35.8871 30.4929 36.0703C30.9037 36.1422 31.3146 36.2256 31.7156 36.3416H31.7188L31.8947 35.6886C28.6146 34.8483 25.1843 34.9315 21.9439 35.9298C20.2294 36.4784 18.6183 37.3399 17.1832 38.4754C17.1832 37.9663 17.1135 37.4732 16.9543 37.0008C16.75 36.3839 16.4856 35.7912 16.1655 35.2322C16.4046 35.2641 16.6454 35.2795 16.8864 35.2781C18.4337 35.2781 21.4008 34.7265 26.2391 31.7835L32.1636 35.7427C32.5097 36.0427 32.8156 36.3912 33.0727 36.7788C33.6046 37.5507 33.9209 38.4656 33.9857 39.419L26.4609 43.3179ZM34.7034 29.0282H33.5486C33.087 29.0282 32.6403 29.2015 32.2878 29.5174L31.7168 30.0279V29.0556C31.7168 28.472 32.1815 27.9195 32.7889 27.9195H34.704L34.7034 29.0282ZM34.2934 24.5653L34.2967 24.59L35.0726 27.2425H32.7889C32.2636 27.2423 31.7502 27.511 31.4311 27.9531L29.1319 27.0767L28.903 26.6868L29.2741 23.2291H34.2844V24.5064L34.2934 24.5653Z" fill="#0C3C64"/>
<path d="M30.6824 24.8271C30.682 25.2358 30.9697 25.6153 31.3464 25.7028L32.9163 26.0667C33.4465 26.189 33.9399 25.7241 33.9411 25.1937V24.1494H30.6824V24.8271ZM33.0521 25.4048L31.4822 25.0409C31.3919 25.0195 31.3229 24.9287 31.3225 24.8306H33.2997C33.2997 25.0267 33.3692 25.4389 33.0521 25.4048Z" fill="#0C3C64"/>
<path d="M25.6676 22.3336C25.1847 22.3336 24.7245 22.6596 24.5398 23.1324C24.355 23.6053 24.4631 24.1806 24.8047 24.5424C24.9755 24.7233 25.1931 24.8464 25.4299 24.8963C25.9036 24.996 26.4149 24.7713 26.683 24.3456C26.817 24.1328 26.8885 23.8826 26.8884 23.6267C26.888 22.9538 26.3623 22.3336 25.6676 22.3336ZM25.7413 24.3953C25.406 24.4305 25.0707 24.1934 24.9725 23.8518C24.8262 23.3427 25.2493 22.7521 25.8102 22.8691C26.1409 22.938 26.3973 23.2675 26.3983 23.6246C26.3984 23.7266 26.3794 23.8276 26.3423 23.9217C26.2437 24.172 26.0096 24.3672 25.7413 24.3953Z" fill="#0C3C64"/>
<path d="M25.6709 20.8879C24.6043 20.8879 23.6645 21.6002 23.2815 22.5799C23.0858 23.0808 23.0345 23.6319 23.1343 24.1636C23.3295 25.2031 24.1165 26.0958 25.1664 26.3171C25.6681 26.4228 26.1881 26.3686 26.6607 26.1611C27.6481 25.7276 28.2572 24.6938 28.2572 23.6288C28.2572 22.2028 27.1432 20.8879 25.6709 20.8879ZM27.0449 25.0836C26.7277 25.4215 26.3097 25.6323 25.8623 25.6802C24.3423 25.8428 23.3552 24.1712 23.8699 22.8466C24.2061 21.9811 25.1158 21.4164 26.0427 21.6099C26.9771 21.8049 27.6092 22.6929 27.6106 23.6275C27.6119 24.1692 27.4038 24.7033 27.0423 25.0863L27.0449 25.0836Z" fill="#0071FE"/>
</svg>
