<svg width="50" height="50" viewBox="0 0 50 50" fill="none" xmlns="http://www.w3.org/2000/svg">
<rect width="50" height="50" fill="#D50C2D"/>
<path d="M6.8649 22C7.01359 22 7.07432 22.0674 7.07432 22.2247V23.9933H9.66901V22.2247C9.66901 22.0652 9.73191 22 9.87844 22H10.5298C10.6764 22 10.7371 22.0719 10.7413 22.2247V26.7753C10.7413 26.9348 10.6785 27 10.5319 27H9.88069C9.732 27 9.67126 26.9326 9.67126 26.7753V24.9775H7.07432V26.7753C7.07432 26.9371 7.01149 27 6.8649 27H6.20942C6.06073 27 6 26.9348 6 26.7753V22.2247C6 22.0652 6.06073 22 6.20942 22H6.8649Z" fill="white"/>
<path d="M27.0471 22C27.1937 22 27.2566 22.0674 27.2566 22.2247V22.6742C27.2507 22.755 27.229 22.8336 27.193 22.9048C27.1569 22.976 27.1071 23.0383 27.0471 23.0876L24.0565 25.9078H27.0408C27.1783 25.9078 27.2404 25.9652 27.2441 26.102V26.7753C27.2441 26.9348 27.1812 27 27.0347 27H22.71C22.5613 27 22.5005 26.9326 22.5005 26.7753V26.2877C22.5071 26.207 22.5291 26.1286 22.5652 26.0575C22.6012 25.9863 22.6505 25.924 22.71 25.8742L25.4932 23.0718H22.7184C22.5697 23.0718 22.5089 23.0044 22.5089 22.8471V22.2247C22.5089 22.0652 22.5718 22 22.7184 22H27.0471Z" fill="white"/>
<path d="M16.0335 22C16.1822 22 16.243 22.0674 16.243 22.2247V22.8449C16.243 23.0044 16.1801 23.0696 16.0335 23.0696H12.578V24.0045H15.3402C15.491 24.0045 15.5497 24.0719 15.5497 24.2292V24.7752C15.5497 24.9347 15.4868 24.9999 15.3402 24.9999H12.578V25.937H16.0335C16.1801 25.937 16.2409 26.0022 16.243 26.1595V26.7731C16.243 26.9326 16.1801 26.9978 16.0335 26.9978H11.7236C11.5749 26.9978 11.5142 26.9304 11.5142 26.7731V22.2247C11.5142 22.0652 11.577 22 11.7236 22H16.0335Z" fill="white"/>
<path d="M21.5371 22C21.6837 22 21.7446 22.0719 21.7487 22.2247V22.8427C21.7487 23.0022 21.6859 23.0674 21.5393 23.0674H19.9539V26.7731C19.9539 26.9326 19.8911 26.9978 19.7445 26.9978H19.0534C18.9048 26.9978 18.844 26.9304 18.844 26.7731V23.0696H17.2146C17.0638 23.0696 17.0052 23.0022 17.0052 22.8449V22.2247C17.0052 22.0629 17.0659 22 17.2146 22H21.5371Z" fill="white"/>
<path d="M31.3906 22C31.6204 22.0137 31.8434 22.0887 32.0394 22.2181C32.2353 22.3476 32.3981 22.5276 32.513 22.7415C32.672 23.0099 32.7544 23.3224 32.7499 23.6404L32.756 26.7731C32.756 26.9326 32.6952 26.9978 32.5466 26.9978H31.9289C31.7803 26.9978 31.7195 26.9304 31.7195 26.7731V23.7618C31.7195 23.3416 31.3383 23.063 30.9466 23.063H29.1078V26.7685C29.1078 26.9303 29.045 26.9932 28.8984 26.9932H28.2157C28.0671 26.9932 28.0063 26.9258 28.0063 26.7685V22.2247C28.0063 22.0652 28.0671 22 28.2157 22H31.3906Z" fill="white"/>
<path d="M38.0419 22C38.1906 22 38.2513 22.0674 38.2513 22.2247V22.8449C38.2513 23.0044 38.1885 23.0696 38.0419 23.0696H34.578V24.0045H37.3425C37.4911 24.0045 37.5519 24.0719 37.5519 24.2292V24.7752C37.5519 24.9347 37.489 24.9999 37.3425 24.9999H34.5801V25.937H38.0419C38.1822 25.937 38.2513 26.0022 38.2513 26.1595V26.7731C38.2513 26.9326 38.1885 26.9978 38.0419 26.9978H33.7236C33.5749 26.9978 33.5141 26.9304 33.5141 26.7731V22.2247C33.5141 22.0652 33.577 22 33.7236 22H38.0419Z" fill="white"/>
<path fill-rule="evenodd" clip-rule="evenodd" d="M42.178 22.0202H42.4063C43.1968 22.0597 43.7532 22.8346 43.7508 23.6494C43.8206 24.5126 43.177 25.0383 42.4503 25.1731L43.9414 26.7843C44.044 26.8966 44.0084 26.9888 43.8618 26.9888H42.9258C42.7672 26.9776 42.618 26.904 42.5069 26.7821L41.288 25.4673C41.1632 25.3447 41.0025 25.2723 40.8336 25.2628H40.065V26.7685C40.065 26.928 40.0022 26.9932 39.8556 26.9932H39.2273C39.0786 26.9932 39.0179 26.9258 39.0179 26.7685V22.2247C39.0179 22.0652 39.0807 22 39.2273 22L42.178 22.0202ZM40.0609 24.2068H42.2911C42.624 24.1614 42.6828 23.8388 42.6828 23.5438C42.6866 23.3022 42.5147 23.0901 42.2911 23.0606H40.0609V24.2068Z" fill="white"/>
</svg>
