<svg width="50" height="50" viewBox="0 0 50 50" fill="none" xmlns="http://www.w3.org/2000/svg">
<rect width="50" height="50" fill="#020A19"/>
<path d="M8.54297 21.0947C8.81438 21.0948 9.07221 21.3096 9.07227 21.6191V23.6387C9.28943 23.531 9.52032 23.4771 9.62891 23.4502C9.94104 23.3695 10.2264 23.3959 10.335 23.4229C10.9456 23.5037 11.5427 23.9214 11.7734 24.5674C11.8684 24.7021 12.0039 25.0116 12.0039 25.4287V27.5293C12.0036 27.7714 11.7867 27.9999 11.502 28C11.2307 28 11.0003 27.7849 11 27.5293V25.5498C11 25.4952 10.9991 25.1051 10.6602 24.7959C10.6054 24.7283 10.2931 24.4863 9.8457 24.54C9.54733 24.567 9.34345 24.7688 9.28906 24.8496C9.16691 24.9842 9.11289 25.1328 9.05859 25.3213V27.4209C9.05859 27.6901 8.84147 27.9463 8.5293 27.9463C8.25786 27.9463 8 27.7305 8 27.4209V21.6191C8.00006 21.3365 8.27154 21.0947 8.54297 21.0947Z" fill="white"/>
<path fill-rule="evenodd" clip-rule="evenodd" d="M15.0039 23.4502C15.0857 23.4502 15.7101 23.4774 16.2393 23.8945C16.8227 24.3792 17.1077 25.1872 17.0127 26.0352H13.7275C13.7818 26.1564 13.8911 26.4255 14.2031 26.6543C14.5424 26.9368 14.9364 26.9102 15.0449 26.9102C15.1806 26.9102 15.3975 26.9097 15.6279 26.7754C15.7499 26.7216 15.8315 26.6408 15.8857 26.5869C15.9129 26.56 16.1308 26.4256 16.3887 26.4795C16.4169 26.48 16.5648 26.5336 16.6729 26.6406C16.8086 26.7752 16.809 26.9909 16.7275 27.2197C16.5647 27.4081 16.3065 27.6364 15.9131 27.7979C15.6009 27.9055 15.3701 27.933 15.2344 27.96C15.1526 27.9869 14.8402 28.0138 14.5283 27.96C14.3242 27.9329 13.6188 27.8244 13.0898 27.1787C12.588 26.5328 12.6152 25.8331 12.6152 25.6445C12.6424 25.5099 12.669 24.6749 13.3477 24.0557C13.4291 23.9749 13.7418 23.7192 14.2168 23.5576C14.6103 23.45 14.9225 23.4502 15.0039 23.4502ZM14.8818 24.541C14.7325 24.541 14.4606 24.5811 14.1484 24.7695C14.0128 24.8503 13.9048 24.9852 13.8506 25.0928H15.8994C15.818 24.9852 15.7232 24.8372 15.5605 24.7295C15.2757 24.5411 14.9905 24.541 14.8818 24.541Z" fill="white"/>
<path fill-rule="evenodd" clip-rule="evenodd" d="M39.9775 23.4229C40.0593 23.4229 40.6837 23.45 41.2129 23.8672C41.8099 24.3384 42.0813 25.1868 41.9863 26.0078H38.7012C38.7555 26.129 38.8647 26.3982 39.1768 26.627C39.516 26.9095 39.91 26.8828 40.0186 26.8828C40.1543 26.8828 40.3711 26.8824 40.6016 26.748C40.7235 26.6943 40.8051 26.6134 40.8594 26.5596C40.8865 26.5326 41.1044 26.3983 41.3623 26.4521C41.3905 26.4527 41.5385 26.5063 41.6465 26.6133C41.7822 26.7479 41.7826 26.9635 41.7012 27.1924C41.5383 27.3808 41.2802 27.609 40.8867 27.7705C40.5745 27.8782 40.3437 27.9057 40.208 27.9326C40.1262 27.9595 39.8139 27.9864 39.502 27.9326C39.2978 27.9056 38.5924 27.7971 38.0635 27.1514C37.5616 26.5054 37.5889 25.8058 37.5889 25.6172C37.616 25.4826 37.6427 24.6476 38.3213 24.0283C38.4027 23.9475 38.7154 23.6918 39.1904 23.5303C39.5839 23.4226 39.8961 23.4229 39.9775 23.4229ZM39.8691 24.5C39.7198 24.5 39.4479 24.5401 39.1357 24.7285C39 24.8496 38.8776 24.9575 38.8369 25.0518H40.8867C40.8053 24.9441 40.7105 24.7961 40.5479 24.6885C40.2631 24.5002 39.9779 24.5 39.8691 24.5Z" fill="white"/>
<path d="M21.0166 23.5576C21.2202 23.3423 21.573 23.3015 21.8037 23.5303C22.0209 23.7591 22.0481 24.0963 21.8174 24.3252L20.5273 25.6572L21.7627 26.9092C21.9934 27.138 21.9934 27.4879 21.7627 27.7168C21.532 27.9456 21.179 27.9456 20.9482 27.7168L19.7129 26.4922L18.5049 27.7441C18.3012 27.9593 17.9484 27.9992 17.7178 27.7705C17.501 27.5685 17.4608 27.2189 17.6914 26.9902L21.0166 23.5576Z" fill="white"/>
<path fill-rule="evenodd" clip-rule="evenodd" d="M29.6074 23.3691C29.7432 23.3422 29.8932 23.3691 29.9746 23.3691C31.1825 23.45 32.1052 24.4602 32.0645 25.6582C32.0643 26.4926 31.6166 27.0853 31.5352 27.166C31.5042 27.1971 30.8533 27.8921 29.9062 27.9189C29.7574 27.9189 29.676 27.8927 29.5947 27.8926C28.9162 27.8387 28.3596 27.5558 27.9932 27.1387C27.491 26.5464 27.4639 25.8866 27.4639 25.6309C27.4639 25.496 27.4902 24.688 28.1416 24.042C28.2638 23.9208 28.8205 23.4231 29.6074 23.3691ZM29.8115 24.4863C29.1602 24.4594 28.6036 24.9576 28.5762 25.6035C28.549 26.2497 29.079 26.7748 29.7305 26.8018C30.3818 26.8285 30.9377 26.3306 30.9648 25.6846C30.9919 25.0385 30.4765 24.4864 29.8115 24.4863Z" fill="white"/>
<path fill-rule="evenodd" clip-rule="evenodd" d="M36.585 21C36.8563 21.0003 37.1144 21.2563 37.1279 21.5254V27.3408C37.1277 27.6367 36.8832 27.8924 36.5713 27.8926C36.327 27.8926 36.0963 27.7307 36.042 27.502C35.757 27.6904 35.3625 27.892 34.8604 27.9189C34.7115 27.9189 34.6301 27.8926 34.5488 27.8926C33.8704 27.8387 33.3411 27.5558 32.9746 27.1387C32.4725 26.5464 32.4453 25.8867 32.4453 25.6309C32.4453 25.4963 32.4447 24.6885 33.123 24.0693C33.2452 23.9482 33.7753 23.4503 34.5625 23.3965C34.6982 23.3696 34.8473 23.3965 34.9287 23.3965C35.3223 23.4234 35.7162 23.5573 36.0283 23.7861V21.5518C36.0284 21.2557 36.2728 21 36.585 21ZM34.7793 24.4326C34.1008 24.4057 33.5439 24.9306 33.5166 25.6035C33.4895 26.2766 33.9923 26.8285 34.6709 26.8555C35.3495 26.8823 35.9055 26.3576 35.9326 25.6846C35.9597 25.0115 35.4579 24.4595 34.7793 24.4326Z" fill="white"/>
<path d="M23.1201 23.3965C23.3644 23.3965 23.568 23.531 23.6494 23.7598C23.9887 23.531 24.3821 23.4229 24.8027 23.4229C25.8999 23.4497 26.4835 24.3348 26.5264 24.4053C26.757 24.7686 26.8117 25.1188 26.8389 25.3477V27.3945C26.8386 27.6768 26.6218 27.865 26.3643 27.8652C26.3371 27.8652 26.1599 27.8651 25.9971 27.7305C25.8616 27.6094 25.835 27.4747 25.835 27.4209V25.4961C25.835 25.4153 25.78 25.0522 25.4951 24.7695C25.3322 24.5945 25.1012 24.5406 25.0469 24.5137C24.9654 24.5136 24.8432 24.4863 24.6807 24.4863C24.6262 24.4864 24.4364 24.5132 24.2061 24.6475C24.1518 24.6744 23.9475 24.8097 23.8389 25.0654C23.8118 25.1594 23.7582 25.32 23.7578 25.3477C23.7307 25.4284 23.7031 25.4828 23.7031 25.5098V27.4346C23.7031 27.7172 23.4864 27.9053 23.2285 27.9053H23.1201C22.8215 27.9053 22.5635 27.6631 22.5635 27.3535V23.9482C22.5635 23.6521 22.8079 23.3965 23.1201 23.3965Z" fill="white"/>
<path d="M17.6914 23.6387C17.9221 23.4098 18.2751 23.4098 18.5059 23.6387C18.8722 23.9751 19.2116 24.312 19.5508 24.6484C19.2659 24.931 19.0213 25.1998 18.7363 25.4824C18.37 25.1191 18.0306 24.7962 17.6914 24.4463C17.4607 24.2174 17.4607 23.8675 17.6914 23.6387Z" fill="white"/>
</svg>
