<svg width="50" height="50" viewBox="0 0 50 50" fill="none" xmlns="http://www.w3.org/2000/svg">
<rect width="50" height="50" fill="#E52C51"/>
<path d="M26.805 18.3438C23.9243 18.3414 21.1414 19.3883 18.9766 21.289V9.9569C18.9774 8.87653 18.087 8 16.9887 8C15.8904 8 15 8.87653 15 9.9569V29.9621C15 36.3685 20.2959 41.5796 26.805 41.5796C33.3141 41.5796 38.61 36.3685 38.61 29.9621C38.61 23.5557 33.315 18.3438 26.805 18.3438ZM26.805 37.6658C22.4892 37.6658 18.9766 34.2102 18.9766 29.9629C18.9766 25.7157 22.4884 22.2585 26.805 22.2585C31.1216 22.2585 34.6334 25.7148 34.6334 29.9629C34.6334 34.211 31.1216 37.6658 26.805 37.6658Z" fill="white"/>
</svg>
