<svg width="50" height="50" viewBox="0 0 50 50" fill="none" xmlns="http://www.w3.org/2000/svg">
<path d="M15.5715 31.9112C16.9085 33.7277 17.6923 35.8947 17.6923 38.1538C17.6923 44 11.8462 44 11.8462 44C11.8462 44 6 44 6 38.1538V11.8462C6 6 11.8462 6 11.8462 6C11.8462 6 17.6923 6 17.6923 11.8462C17.6923 14.1053 16.9085 16.2722 15.5715 18.0888C14.1514 20.0252 13.3123 22.4135 13.3123 25.0046C13.3123 27.5957 14.1514 29.984 15.5715 31.9204V31.9112ZM36.6877 24.9954C36.6877 27.5865 35.8486 29.9748 34.4285 31.9112C33.0915 33.7277 32.3077 35.8947 32.3077 38.1538C32.3077 44 38.1538 44 38.1538 44C38.1538 44 44 44 44 38.1538V11.8462C44 6 38.1538 6 38.1538 6C38.1538 6 32.3077 6 32.3077 11.8462C32.3077 14.1053 33.0915 16.2722 34.4285 18.0888C35.8486 20.0252 36.6877 22.4135 36.6877 25.0046V24.9954ZM24.9954 17.6923C20.9566 17.6923 17.6923 20.9658 17.6923 24.9954C17.6923 29.025 20.9658 32.2985 24.9954 32.2985C29.025 32.2985 32.2985 29.025 32.2985 24.9954C32.2985 20.9658 29.025 17.6923 24.9954 17.6923Z" fill="#FA672F"/>
</svg>
