<svg width="50" height="50" viewBox="0 0 50 50" fill="none" xmlns="http://www.w3.org/2000/svg">
<path d="M28.9297 7.59497C35.5848 9.17981 40.9721 14.5665 42.5563 21.2215C43.1891 23.4399 44.7746 25.3418 46.9859 25.6512C44.4505 25.9676 42.8656 27.5525 42.5563 29.7715C40.9714 36.4266 35.5848 41.814 28.9297 43.3981C26.7113 44.0309 24.8094 45.6165 24.5 47.8278C24.1836 45.2923 22.5987 43.7075 20.0703 43.3981C13.4082 41.8196 8.02086 36.4336 6.42969 29.7786C5.79688 27.5602 4.21133 25.6583 2 25.6583C4.53547 25.3418 6.12031 23.757 6.42969 21.2286C8.33797 14.5665 13.7253 9.18052 20.3797 7.59497C22.598 6.96216 24.5 5.37661 24.5 3.16528C24.8164 5.38364 26.7184 6.96778 28.9297 7.59497ZM24.8094 33.264C28.9297 33.264 32.098 30.095 32.098 25.9754C32.098 21.8558 28.9297 18.6797 24.8164 18.6797C20.7031 18.6797 17.5278 21.8487 17.5278 25.9683C17.2114 29.7708 20.6968 33.2569 24.8164 33.2569L24.8094 33.264ZM14.9937 14.5665H22.9166V11.0804C19.7476 11.3968 17.2121 12.6652 14.9937 14.5665ZM26.7191 14.5665H34.6419C32.4235 12.6652 29.5723 11.3975 26.7191 11.0804V14.5665ZM24.8164 40.5525C29.2461 40.5525 32.105 39.2848 34.6405 36.75H14.9937C17.5292 39.2855 21.0146 40.5525 24.8178 40.5525H24.8164ZM24.8164 29.4608C27.0348 29.4608 28.6189 27.8759 28.6189 25.6583C28.6189 23.4406 27.0341 21.8558 24.8164 21.8558C22.9152 21.8558 21.0139 23.4406 21.0139 25.6583C21.0139 27.8759 22.5987 29.4608 24.8164 29.4608ZM16.5772 33.2633C14.6759 31.0449 13.7253 28.5101 13.7253 25.6575C13.7253 22.805 14.6759 20.2702 16.5772 18.369H11.8241C10.5563 20.5873 9.92281 23.1221 9.92281 25.6575C9.92281 28.5094 10.5556 30.7271 11.8241 32.9461H16.5772V33.2633ZM37.4923 33.2633C38.7601 31.0449 39.3936 28.5101 39.3936 25.9747C39.3936 23.1228 38.7608 20.5873 37.4923 18.6861H33.0627C34.9639 20.5873 35.9145 23.1158 35.9145 25.9747C35.9145 28.8336 34.9639 31.362 33.0627 33.2633H37.4923Z" fill="#151515"/>
</svg>
