<svg width="50" height="50" viewBox="0 0 50 50" fill="none" xmlns="http://www.w3.org/2000/svg">
<rect width="50" height="50" fill="#10243E"/>
<path fill-rule="evenodd" clip-rule="evenodd" d="M25 9C33.8366 9 41 16.1634 41 25C41 27.4976 40.4272 29.8614 39.4066 31.9677C39.2689 32.2856 39.1138 32.598 38.9379 32.9027L38.7788 33.1676C38.698 33.2972 38.6132 33.4234 38.5266 33.5479C36.8639 36.1736 34.4584 38.2821 31.6048 39.5771C31.2629 39.7605 30.9034 39.9097 30.5256 40.0199C28.8034 40.6537 26.9421 41 25 41C18.9027 41 13.6024 37.5892 10.902 32.5717C10.8416 32.4762 10.7898 32.3771 10.7457 32.2749C9.62962 30.0923 9 27.6197 9 25C9 22.8532 9.42382 20.8056 10.1907 18.935L10.1836 18.9322C10.1948 18.9047 10.2081 18.8794 10.2227 18.8562C12.2802 13.9129 16.7454 10.2234 22.1545 9.25249L22.1531 9.2468C22.6461 9.1147 23.1458 9.0536 23.6477 9.05717C24.0936 9.01986 24.5445 9 25 9ZM13.3494 34.8743C16.1509 38.1764 20.3304 40.2727 25 40.2727C25.6637 40.2727 26.3174 40.2298 26.9588 40.1477C26.7455 40.0392 26.533 39.911 26.3232 39.7639C25.7199 39.3408 25.1171 38.7558 24.5273 38.0384C24.1677 38.1393 23.7371 38.1571 23.2905 38.0685C22.5854 37.9287 22.0176 37.5603 21.7546 37.1264C18.5977 37.2732 15.6306 36.5112 13.3494 34.8743ZM33.0664 37.3846C30.7298 38.107 28.0191 38.2018 25.239 37.6321C25.221 37.6517 25.2022 37.6707 25.1825 37.6893C25.7087 38.3143 26.2326 38.8116 26.7408 39.168C27.5493 39.735 28.2769 39.9197 28.9027 39.7628L28.9038 39.7681C29.3511 39.6502 29.7906 39.5131 30.2209 39.3565L30.2195 39.3505C30.2485 39.3427 30.2769 39.3332 30.3058 39.3249C30.6324 39.2039 30.9539 39.0727 31.2695 38.9304C31.9393 38.5684 32.5418 38.0467 33.0664 37.3846ZM34.8438 36.6758C34.649 36.7727 34.4508 36.8649 34.2486 36.9514C34.1679 37.0843 34.0842 37.2136 33.9986 37.3398C34.2882 37.1283 34.5701 36.9068 34.8438 36.6758ZM35.3665 30.359C34.0812 31.8528 32.5046 33.2044 30.6768 34.3168C28.9618 35.3604 27.1613 36.1108 25.3619 36.5756C25.4235 36.6935 25.4631 36.8153 25.4766 36.9382C27.237 37.2895 28.9606 37.3625 30.5621 37.1708C31.6993 37.0347 32.7694 36.7655 33.7472 36.3718C34.2072 35.5668 34.5814 34.6262 34.8587 33.5717C35.1182 32.5844 35.2893 31.5053 35.3665 30.359ZM11.9432 29.119C11.7491 29.4871 11.5963 29.837 11.4865 30.1655C11.2785 30.788 11.2338 31.3035 11.3267 31.7156C13.3573 34.8762 17.1412 36.5158 21.3786 36.4158C20.6126 36.0878 19.8517 35.7089 19.103 35.2766L18.7479 35.0671C16.1443 33.4974 14.041 31.4825 12.5497 29.2852C12.3393 29.3089 12.1313 29.2472 11.9432 29.119ZM20.5199 22.142C20.2638 22.6707 19.8277 23.0461 19.3434 23.2102C19.515 24.2025 19.7302 25.2214 19.9897 26.256C20.9097 29.9238 22.231 33.1524 23.6715 35.5433C23.7099 35.5494 23.7486 35.5563 23.7873 35.5639C24.1728 35.6404 24.5169 35.7855 24.793 35.9719C26.6411 35.5376 28.5089 34.7845 30.2987 33.6953C32.0529 32.6278 33.5541 31.3447 34.7759 29.9364C34.4353 29.5166 34.347 28.8412 34.5661 28.1701C32.1319 26.9475 28.8942 25.4848 25.2955 24.0124C23.6314 23.3316 22.0238 22.7033 20.5199 22.142ZM17.6108 22.7631C15.8803 24.2023 14.4372 25.6505 13.3661 26.9957C13.4144 27.1379 13.451 27.2899 13.473 27.4492C13.5524 28.0246 13.4262 28.5594 13.169 28.9027C14.6613 31.0926 16.7977 33.1057 19.4666 34.6467C20.2909 35.1226 21.1292 35.5316 21.9716 35.8761C22.1877 35.7049 22.4836 35.5869 22.8228 35.5355C21.4266 33.115 20.1697 29.9634 19.2841 26.4329C19.017 25.3679 18.7958 24.3175 18.6197 23.293C18.455 23.2749 18.292 23.2314 18.1357 23.1591C17.9296 23.0638 17.7537 22.9278 17.6108 22.7631ZM37.0714 29.5064C36.8062 29.8813 36.46 30.1495 36.1009 30.2749C36.0254 31.5142 35.8441 32.6842 35.5621 33.7567C35.3643 34.5092 35.1148 35.2177 34.8171 35.8707C36.0701 35.1944 37.1259 34.2817 37.9176 33.1495C38.2206 32.6703 38.498 32.1734 38.7472 31.6602C38.8745 31.3639 38.9853 31.0619 39.0778 30.7539L38.9613 30.7063C38.932 30.7782 38.9474 30.8319 38.9521 30.8448C38.9445 30.8297 38.9177 30.7885 38.8509 30.7198C38.7192 30.5846 38.4935 30.4048 38.1673 30.1836C37.8703 29.9822 37.5027 29.7556 37.0714 29.5064ZM10.0075 22.0788C9.8243 23.0244 9.72727 24.0009 9.72727 25C9.72727 26.8729 10.0649 28.6669 10.6818 30.3249C10.7144 30.1963 10.7528 30.0664 10.7965 29.9354C10.9462 29.4874 11.163 29.0146 11.4396 28.5234C11.3248 28.3021 11.2412 28.0436 11.2024 27.7624C11.1629 27.476 11.1745 27.1997 11.2276 26.9521C10.4873 25.343 10.0678 23.6886 10.0075 22.0788ZM38.7404 24.2628C38.4328 25.3328 37.9892 26.3936 37.4197 27.4219C37.5774 27.8296 37.58 28.3466 37.4031 28.8583C37.8607 29.122 38.2543 29.3644 38.5753 29.582C38.8445 29.7646 39.0724 29.9362 39.2468 30.0934C39.6437 28.2566 39.4591 26.2562 38.7404 24.2628ZM30.4805 15.392C27.8521 16.2386 24.7316 17.756 21.5852 19.8271C21.2538 20.0452 20.9279 20.2652 20.6083 20.4872C20.7227 20.779 20.7653 21.108 20.7259 21.4428C22.2519 22.0117 23.8834 22.6486 25.571 23.3391C29.1785 24.8151 32.4315 26.2844 34.8864 27.517C35.0169 27.3252 35.1685 27.16 35.3324 27.0259C35.2091 25.5464 34.9443 24.0042 34.5252 22.4403C33.9281 20.212 33.0821 18.1788 32.0771 16.4244C31.7264 16.3316 31.3374 16.1373 30.9705 15.8523C30.7847 15.7079 30.6207 15.5516 30.4805 15.392ZM39.1392 19.2184C39.317 20.4648 39.2752 21.7525 39.032 23.0405C39.6274 24.3799 40.0002 25.7482 40.1289 27.0941C40.2228 26.4094 40.2727 25.7105 40.2727 25C40.2727 22.9537 39.8692 21.0019 39.1392 19.2184ZM33.1026 16.7795C33.9679 18.4209 34.6951 20.2648 35.2276 22.2521C35.6291 23.7506 35.8935 25.2341 36.0302 26.668C36.2957 26.6051 36.5632 26.6221 36.8054 26.734C36.8493 26.7543 36.8913 26.7772 36.9315 26.8026C37.5649 25.6002 38.0157 24.3595 38.2702 23.1218C37.2039 20.825 35.4431 18.6097 33.1026 16.7795ZM11.0352 19.2958C10.4617 21.424 10.6984 23.7969 11.6655 26.1367C11.7936 26.0246 11.9423 25.9513 12.1065 25.9286C12.4219 25.8851 12.7332 26.036 12.9812 26.3143C14.0894 24.9619 15.5422 23.528 17.2585 22.1112C17.1549 21.7586 17.1509 21.3632 17.261 20.9744C16.4499 20.6974 15.6918 20.4501 14.9979 20.2358C13.6533 19.8205 12.5591 19.5321 11.7894 19.3913C11.4702 19.3329 11.2191 19.3025 11.0352 19.2958ZM35.0746 14.6396C34.427 14.585 33.6501 14.6391 32.7681 14.8015C33.1041 15.2112 33.2775 15.6383 33.2333 15.9638C35.4946 17.6633 37.2695 19.714 38.4592 21.8849C38.6753 19.7047 38.2626 17.579 37.1442 15.7411L37.1452 15.7404C37.0784 15.6529 37.0108 15.5661 36.9421 15.4801L36.9311 15.4876C36.6259 15.0239 36.0207 14.7193 35.0746 14.6396ZM17.75 13.0021C15.1822 13.6945 13.0986 15.1505 11.8714 17.2759C11.6287 17.6963 11.4256 18.1327 11.261 18.582C11.4561 18.5995 11.6775 18.6318 11.9201 18.6761C12.7321 18.8246 13.8584 19.1227 15.2124 19.5408C15.9354 19.7641 16.7262 20.023 17.5728 20.3129C17.7395 20.0724 17.9473 19.876 18.1779 19.7315C18.0558 18.0693 18.0688 16.5299 18.2116 15.1765C18.2444 14.8657 18.2846 14.564 18.3313 14.272C18.0429 14.2588 17.8079 14.1572 17.6776 13.9624C17.5097 13.7113 17.5499 13.3582 17.75 13.0021ZM30.011 14.7805C26.8906 13.1346 23.6149 12.4203 20.6697 12.5575C20.5906 12.9787 20.2329 13.4668 19.6903 13.8295C19.4934 13.9612 19.2902 14.0636 19.0916 14.1371C19.0288 14.4898 18.9763 14.8621 18.935 15.2528C18.8031 16.5025 18.7855 17.9252 18.8885 19.4666C19.1897 19.423 19.4981 19.4607 19.7844 19.593C19.9436 19.6666 20.0847 19.7645 20.2067 19.881C20.5272 19.6585 20.8536 19.4379 21.1854 19.2195C24.2758 17.1852 27.3596 15.6654 30.011 14.7805ZM26.6523 9.81641C27.732 10.3452 28.784 11.132 29.7649 12.1222C30.2378 12.5995 30.6961 13.1265 31.1367 13.6978C31.4488 13.7858 31.7887 13.9529 32.1158 14.1914C33.252 13.9419 34.2762 13.8423 35.136 13.9148C35.2812 13.927 35.4229 13.9447 35.5607 13.9673C33.1915 11.6989 30.0931 10.1866 26.6523 9.81641ZM23.6634 9.78587C22.916 9.85066 22.1842 9.96889 21.4716 10.1374L21.4727 10.1417C20.8468 10.2987 20.2925 10.8053 19.8473 11.6868C19.8436 11.6941 19.8403 11.7015 19.8366 11.7088C20.0577 11.7049 20.2524 11.7495 20.4002 11.8441C23.4364 11.6567 26.7974 12.3413 30.0018 13.9574C30.0177 13.9255 30.0366 13.8952 30.0586 13.8668C30.1045 13.8077 30.1618 13.7599 30.2283 13.7227C29.9094 13.3343 29.5824 12.9705 29.2486 12.6335C27.4476 10.8156 25.4977 9.80756 23.6634 9.78587ZM19.5771 10.7191C18.0726 11.2907 16.6822 12.093 15.4485 13.0831C16.462 12.5928 17.577 12.2423 18.761 12.0355C18.8193 12.0025 18.8779 11.9723 18.9364 11.9442C19.0176 11.7383 19.1047 11.5429 19.1978 11.3587C19.3135 11.1296 19.4401 10.9157 19.5771 10.7191Z" fill="#FFB600"/>
</svg>
