<svg width="50" height="50" viewBox="0 0 50 50" fill="none" xmlns="http://www.w3.org/2000/svg">
<path fill-rule="evenodd" clip-rule="evenodd" d="M4 21.0198H5.89309V23.6173H7.36761V21H9.24168V27.2815H7.36761V24.4074H5.87407V27.2519H4V21.0198Z" fill="#EE3124"/>
<path fill-rule="evenodd" clip-rule="evenodd" d="M12.2383 22.5506C12.6093 22.5309 12.9803 22.5901 13.3323 22.7086C13.846 22.8765 14.2741 23.242 14.5309 23.7259C14.8734 24.3975 14.921 25.1877 14.6736 25.9086C14.3283 26.9275 13.3322 27.4547 12.2954 27.4099C11.1855 27.4489 10.1757 26.782 9.86954 25.7012C9.66025 24.9605 9.77441 24.1605 10.2025 23.5185C10.6768 22.8619 11.4463 22.5506 12.2383 22.5506ZM12.8661 23.5975C12.9422 23.8444 12.9803 24.1012 12.9803 24.358V25.8494C12.9708 26.1951 12.8376 26.521 12.6093 26.7778C12.419 26.9556 12.1241 26.9358 11.9529 26.7383C11.6092 26.3815 11.6432 25.7216 11.6485 25.2765C11.6675 24.4765 11.6199 23.9235 11.7721 23.5975C12.0463 23.0105 12.6003 22.9168 12.8661 23.5975Z" fill="#EE3124"/>
<path fill-rule="evenodd" clip-rule="evenodd" d="M17.0994 23.9827V27.2617H15.349V22.6988H17.0994V23.3111C17.2612 23.0938 17.4704 22.9062 17.7083 22.7877C18.5907 22.3382 19.9772 22.6263 20.0485 23.7852V27.2519H18.3266V24.0914C18.3509 23.663 17.9792 23.3082 17.5561 23.5383C17.3087 23.6864 17.0709 23.9432 17.0994 23.9827Z" fill="#EE3124"/>
<path fill-rule="evenodd" clip-rule="evenodd" d="M22.4267 24.6543C22.4172 24.358 22.4362 24.0716 22.4648 23.7753C22.5833 23.0368 23.5417 22.7642 23.7395 23.637C23.8192 23.968 23.8061 24.3068 23.8061 24.6444L22.4267 24.6543ZM20.8571 23.7852C21.3327 22.9457 22.246 22.4617 23.1878 22.5506C24.2818 22.6099 24.9191 23.0148 25.2997 23.7654C25.5185 24.2296 25.6136 24.7432 25.5946 25.2568H22.4267V26.1852C22.5336 26.7952 23.2165 26.9033 23.749 26.8173C24.7099 26.6593 24.6718 25.9679 24.7099 25.9679H25.4614C25.4322 26.8478 24.416 27.328 23.6539 27.4099C22.4034 27.5297 21.128 27.0886 20.7239 25.8C20.5336 25.1383 20.5812 24.4272 20.8761 23.7951L20.8571 23.7852Z" fill="#EE3124"/>
<path fill-rule="evenodd" clip-rule="evenodd" d="M38.4086 24.6543C38.3991 24.358 38.4181 24.0716 38.4467 23.7753C38.5682 23.0184 39.4809 22.7882 39.7214 23.637C39.8017 23.9703 39.788 24.3046 39.788 24.6444L38.4086 24.6543ZM36.8485 23.7852C37.3241 22.9457 38.2374 22.4617 39.1792 22.5506C40.2827 22.6099 40.9105 23.0148 41.3006 23.7654C41.5099 24.2296 41.605 24.7432 41.5764 25.2568H38.4276C38.4276 25.6289 38.3185 26.1485 38.5323 26.4815C38.5989 26.5802 38.8938 26.9556 39.7499 26.8173C40.7012 26.6593 40.6727 25.9679 40.6917 25.9679H41.4433C41.4242 26.2543 41.3101 26.521 41.1198 26.7284C40.7108 27.1136 40.1875 27.3506 39.6358 27.4099C38.3853 27.5297 37.1099 27.0886 36.7058 25.8C36.5155 25.1383 36.5726 24.4272 36.858 23.7951L36.8485 23.7852Z" fill="#EE3124"/>
<path fill-rule="evenodd" clip-rule="evenodd" d="M25.4424 22.7086H27.3545L28.1726 24.8815L29.0478 22.7185H31.4546L32.2251 25.2667L32.9101 22.7086H34.4512L35.2122 25.2272L35.8877 22.7086H36.6677L35.4501 27.2617H33.9946L33.186 24.6049L32.4915 27.2617H31.0075L29.6852 22.8667L27.8301 27.5086C27.7065 27.8938 27.5067 28.2494 27.2498 28.5654C26.9169 28.921 26.4412 29.0691 25.9656 28.9802C25.3853 28.8716 25.1379 28.5556 25.0904 28.1802C25.0238 27.7852 25.2711 27.4099 25.6516 27.3309C25.9561 27.2321 26.2795 27.3506 26.4412 27.6272C26.5879 27.9013 26.547 28.1954 26.3556 28.4272C26.5268 28.4568 26.6981 28.3877 26.8122 28.2593C27.0251 28.0137 27.1632 27.7028 27.2118 27.4L25.4424 22.7086Z" fill="#EE3124"/>
<path d="M43.7835 21H42.0997V27.2617H43.7835V21Z" fill="#EE3124"/>
<path d="M46 21.0099H44.3162V27.2716H46V21.0099Z" fill="#EE3124"/>
</svg>
