<svg width="50" height="50" viewBox="0 0 50 50" fill="none" xmlns="http://www.w3.org/2000/svg">
<rect width="50" height="50" fill="#EE3124"/>
<path fill-rule="evenodd" clip-rule="evenodd" d="M4 15.0207H5.89309V17.7452H7.36761V15H9.24168V21.5884H7.36761V18.5739H5.87407V21.5573H4V15.0207Z" fill="white"/>
<path fill-rule="evenodd" clip-rule="evenodd" d="M12.2383 16.6264C12.6093 16.6057 12.9803 16.6678 13.3323 16.7921C13.846 16.9682 14.2741 17.3515 14.5309 17.8591C14.8734 18.5635 14.9209 19.3923 14.6736 20.1485C14.4929 20.7079 14.1123 21.174 13.6272 21.4434C13.2086 21.6505 12.752 21.7438 12.2954 21.7231C11.7341 21.7438 11.1918 21.578 10.7257 21.2465C10.3071 20.9254 10.0122 20.4592 9.86953 19.9309C9.66025 19.154 9.7744 18.3149 10.2025 17.6416C10.5735 17.1029 11.1253 16.761 11.7436 16.6678C11.9053 16.6471 12.0766 16.6264 12.2383 16.6264ZM12.8661 17.7244C12.9422 17.9834 12.9803 18.2528 12.9803 18.5221V20.0863C12.9708 20.4489 12.8376 20.7907 12.6093 21.0601C12.419 21.2465 12.1241 21.2258 11.9529 21.0186C11.9243 20.9876 11.9053 20.9461 11.8863 20.9047C11.7055 20.6043 11.639 20.3246 11.6485 19.4855C11.6675 18.6464 11.6199 18.0663 11.7721 17.7244C11.9243 17.3826 12.067 17.2376 12.2097 17.2065C12.4951 17.134 12.7234 17.3412 12.8661 17.7244Z" fill="white"/>
<path fill-rule="evenodd" clip-rule="evenodd" d="M17.0994 18.1284V21.5677H15.349V16.7818H17.0994V17.424C17.2612 17.1961 17.4704 16.9993 17.7083 16.875C18.2125 16.6057 18.7928 16.5849 19.316 16.8025C19.7345 16.9993 20.0199 17.4344 20.0485 17.9213V21.5573H18.3266V18.2424C18.3361 18.0663 18.2886 17.8798 18.1839 17.7348C18.0127 17.5691 17.7558 17.5483 17.5561 17.6623C17.3087 17.8177 17.0709 18.087 17.0994 18.1284Z" fill="white"/>
<path fill-rule="evenodd" clip-rule="evenodd" d="M22.4267 18.8329C22.4172 18.5221 22.4362 18.2217 22.4648 17.9109C22.5028 17.6623 22.6265 17.424 22.8072 17.2583C23.026 17.1133 23.3019 17.134 23.4922 17.3101C23.6159 17.4344 23.7015 17.5898 23.7395 17.7659C23.7871 17.9731 23.8061 18.1802 23.8061 18.3874V18.8225L22.4267 18.8329ZM20.8571 17.9213C21.3327 17.0407 22.246 16.5331 23.1878 16.6264C24.2818 16.6885 24.9191 17.1133 25.2997 17.9005C25.5185 18.3874 25.6136 18.9261 25.5946 19.4648H22.4267V20.4385C22.4458 20.5525 22.4743 20.6561 22.5314 20.7493C22.6075 20.8529 22.8929 21.2465 23.749 21.1015C24.7099 20.9358 24.6718 20.2106 24.7099 20.2106H25.4614C25.4519 20.511 25.3377 20.7907 25.1379 21.0083C24.7289 21.4123 24.2057 21.6609 23.6539 21.7231C23.0356 21.7852 22.1508 21.8059 21.4469 21.174C21.1139 20.8736 20.8571 20.48 20.7239 20.0345C20.5336 19.3405 20.5812 18.5946 20.8761 17.9316L20.8571 17.9213Z" fill="white"/>
<path fill-rule="evenodd" clip-rule="evenodd" d="M38.4086 18.8329C38.3991 18.5221 38.4181 18.2217 38.4467 17.9109C38.4847 17.6623 38.6084 17.424 38.7891 17.2583C39.0079 17.1133 39.2838 17.134 39.4741 17.3101C39.5882 17.4344 39.6738 17.5898 39.7214 17.7659C39.769 17.9731 39.7975 18.1802 39.788 18.3874V18.8225L38.4086 18.8329ZM36.8485 17.9213C37.3241 17.0407 38.2374 16.5331 39.1792 16.6264C40.2827 16.6885 40.9105 17.1133 41.3006 17.9005C41.5098 18.3874 41.605 18.9261 41.5764 19.4648H38.4276V20.4385C38.4467 20.5525 38.4752 20.6561 38.5323 20.7493C38.5989 20.8529 38.8938 21.2465 39.7499 21.1015C40.7012 20.9358 40.6727 20.2106 40.6917 20.2106H41.4433C41.4242 20.511 41.3101 20.7907 41.1198 21.0083C40.7108 21.4123 40.1875 21.6609 39.6358 21.7231C39.0174 21.7852 38.1327 21.8059 37.4288 21.174C37.0958 20.8736 36.839 20.48 36.7058 20.0345C36.5155 19.3405 36.5726 18.5946 36.858 17.9316L36.8485 17.9213Z" fill="white"/>
<path fill-rule="evenodd" clip-rule="evenodd" d="M25.4424 16.7921H27.3545L28.1726 19.0711L29.0478 16.8025H31.4546L32.2251 19.4751L32.9101 16.7921H34.4512L35.2122 19.4337L35.8877 16.7921H36.6677L35.4501 21.5677H33.9946L33.186 18.7811L32.4915 21.5677H31.0075L29.6852 16.9579L27.8301 21.8266C27.7065 22.2306 27.5067 22.6036 27.2498 22.9351C26.9169 23.308 26.4412 23.4634 25.9656 23.3701C25.3853 23.2562 25.1379 22.9247 25.0904 22.5311C25.0238 22.1167 25.2711 21.723 25.6516 21.6402C25.9561 21.5366 26.2795 21.6609 26.4412 21.9509C26.5364 22.1374 26.5554 22.355 26.4983 22.5621C26.4602 22.645 26.4127 22.7175 26.3556 22.79C26.5268 22.8211 26.6981 22.7486 26.8122 22.6139C26.9835 22.4067 27.1071 22.1581 27.1737 21.8992C27.1928 21.837 27.2023 21.7748 27.2118 21.7127L25.4424 16.7921Z" fill="white"/>
<path d="M43.7835 15H42.0997V21.5677H43.7835V15Z" fill="white"/>
<path d="M46 15.0104H44.3162V21.578H46V15.0104Z" fill="white"/>
<path d="M31.2656 33.1914H32.0156C31.9766 33.5508 31.8737 33.8724 31.707 34.1562C31.5404 34.4401 31.3047 34.6654 31 34.832C30.6953 34.9961 30.3151 35.0781 29.8594 35.0781C29.526 35.0781 29.2227 35.0156 28.9492 34.8906C28.6784 34.7656 28.4453 34.5885 28.25 34.3594C28.0547 34.1276 27.9036 33.8503 27.7969 33.5273C27.6927 33.2018 27.6406 32.8398 27.6406 32.4414V31.875C27.6406 31.4766 27.6927 31.1159 27.7969 30.793C27.9036 30.4674 28.056 30.1888 28.2539 29.957C28.4544 29.7253 28.6953 29.5469 28.9766 29.4219C29.2578 29.2969 29.5742 29.2344 29.9258 29.2344C30.3555 29.2344 30.7188 29.3151 31.0156 29.4766C31.3125 29.638 31.543 29.862 31.707 30.1484C31.8737 30.4323 31.9766 30.7617 32.0156 31.1367H31.2656C31.2292 30.8711 31.1615 30.6432 31.0625 30.4531C30.9635 30.2604 30.8229 30.112 30.6406 30.0078C30.4583 29.9036 30.2201 29.8516 29.9258 29.8516C29.6732 29.8516 29.4505 29.8997 29.2578 29.9961C29.0677 30.0924 28.9076 30.2292 28.7773 30.4062C28.6497 30.5833 28.5534 30.7956 28.4883 31.043C28.4232 31.2904 28.3906 31.5651 28.3906 31.8672V32.4414C28.3906 32.7201 28.4193 32.9818 28.4766 33.2266C28.5365 33.4714 28.6263 33.6862 28.7461 33.8711C28.8659 34.056 29.0182 34.2018 29.2031 34.3086C29.388 34.4128 29.6068 34.4648 29.8594 34.4648C30.1797 34.4648 30.4349 34.4141 30.625 34.3125C30.8151 34.2109 30.9583 34.0651 31.0547 33.875C31.1536 33.6849 31.224 33.457 31.2656 33.1914Z" fill="white"/>
<path d="M26.1133 33.5625C26.1133 33.4297 26.0924 33.3125 26.0508 33.2109C26.0117 33.1068 25.9414 33.013 25.8398 32.9297C25.7409 32.8464 25.6029 32.7669 25.4258 32.6914C25.2513 32.6159 25.0299 32.5391 24.7617 32.4609C24.4805 32.3776 24.2266 32.2852 24 32.1836C23.7734 32.0794 23.5794 31.9609 23.418 31.8281C23.2565 31.6953 23.1328 31.543 23.0469 31.3711C22.9609 31.1992 22.918 31.0026 22.918 30.7812C22.918 30.5599 22.9635 30.3555 23.0547 30.168C23.1458 29.9805 23.276 29.8177 23.4453 29.6797C23.6172 29.5391 23.8216 29.4297 24.0586 29.3516C24.2956 29.2734 24.5599 29.2344 24.8516 29.2344C25.2786 29.2344 25.6406 29.3164 25.9375 29.4805C26.237 29.6419 26.4648 29.8542 26.6211 30.1172C26.7773 30.3776 26.8555 30.6562 26.8555 30.9531H26.1055C26.1055 30.7396 26.0599 30.5508 25.9688 30.3867C25.8776 30.2201 25.7396 30.0898 25.5547 29.9961C25.3698 29.8997 25.1354 29.8516 24.8516 29.8516C24.5833 29.8516 24.362 29.8919 24.1875 29.9727C24.013 30.0534 23.8828 30.1628 23.7969 30.3008C23.7135 30.4388 23.6719 30.5964 23.6719 30.7734C23.6719 30.8932 23.6966 31.0026 23.7461 31.1016C23.7982 31.1979 23.8776 31.2878 23.9844 31.3711C24.0938 31.4544 24.2318 31.5312 24.3984 31.6016C24.5677 31.6719 24.7695 31.7396 25.0039 31.8047C25.3268 31.8958 25.6055 31.9974 25.8398 32.1094C26.0742 32.2214 26.2669 32.3477 26.418 32.4883C26.5716 32.6263 26.6849 32.7839 26.7578 32.9609C26.8333 33.1354 26.8711 33.3333 26.8711 33.5547C26.8711 33.7865 26.8242 33.9961 26.7305 34.1836C26.6367 34.3711 26.5026 34.5312 26.3281 34.6641C26.1536 34.7969 25.944 34.8997 25.6992 34.9727C25.457 35.043 25.1862 35.0781 24.8867 35.0781C24.6237 35.0781 24.3646 35.0417 24.1094 34.9688C23.8568 34.8958 23.6263 34.7865 23.418 34.6406C23.2122 34.4948 23.0469 34.3151 22.9219 34.1016C22.7995 33.8854 22.7383 33.6354 22.7383 33.3516H23.4883C23.4883 33.5469 23.526 33.7148 23.6016 33.8555C23.6771 33.9935 23.7799 34.1081 23.9102 34.1992C24.043 34.2904 24.1927 34.3581 24.3594 34.4023C24.5286 34.444 24.7044 34.4648 24.8867 34.4648C25.1497 34.4648 25.3724 34.4284 25.5547 34.3555C25.737 34.2826 25.875 34.1784 25.9688 34.043C26.0651 33.9076 26.1133 33.7474 26.1133 33.5625Z" fill="white"/>
<path d="M19.4141 29.3125V35H18.6602V29.3125H19.4141ZM21.7969 31.8711V32.4883H19.25V31.8711H21.7969ZM22.1836 29.3125V29.9297H19.25V29.3125H22.1836Z" fill="white"/>
</svg>
