<svg width="50" height="50" viewBox="0 0 50 50" fill="none" xmlns="http://www.w3.org/2000/svg">
<path fill-rule="evenodd" clip-rule="evenodd" d="M21.8083 16.9891C21.8576 15.7454 22.1223 14.0979 22.9311 13.1235C24.0706 11.7618 26.3823 11.9807 26.7623 13.9465C26.9437 14.9053 26.6957 16.0815 26.2663 16.9052C25.3588 18.7034 23.6739 20.1824 21.7749 20.687C21.7917 19.5612 21.7756 18.0985 21.8083 16.9891ZM37.2972 34.3689C36.339 35.4955 35.1175 36.3689 33.9447 36.3185C32.6239 36.2687 32.7558 34.6043 32.7558 33.6633C32.7558 31.616 32.9177 29.4999 32.6898 27.4608C32.4751 25.2591 31.2036 23.4943 28.8093 23.3259C24.6487 23.1575 22.9971 27.2426 21.7756 30.6036V23.242C25.4081 22.6705 30.4442 20.6031 30.5928 15.8967C30.8409 7.8955 17.5484 7.61047 17.5977 17.6785C17.6144 18.4518 17.6144 19.9308 17.6144 20.704C15.8308 20.4347 14.3946 17.7794 13.7338 16.1988C13.6511 15.9806 13.4204 15.8633 13.2057 15.9302C10.7121 16.5861 10.3493 19.2584 12.0336 21.0736C13.4204 22.5696 15.6327 23.1411 17.581 23.242C17.565 29.0742 17.565 32.6718 17.565 38.4869C17.6477 39.3107 18.7539 39.5295 19.398 39.5459C20.1241 39.563 21.4783 39.3447 21.5442 38.3867C21.7756 35.5289 24.1693 27.0913 27.4224 27.0913C28.1819 27.0913 28.5453 27.5952 28.5453 28.335V35.2097C28.5453 38.0669 30.1308 39.9829 33.0199 40C35.5796 40 37.8252 37.8486 38.9481 35.3775C39.2948 34.5878 37.8092 33.7805 37.2972 34.3689Z" fill="#F26C25"/>
</svg>
