<svg width="50" height="50" viewBox="0 0 50 50" fill="none" xmlns="http://www.w3.org/2000/svg">
<rect width="50" height="50" fill="#FF3C00"/>
<path d="M22.7157 22.2681C26.0907 20.3382 30.7131 17.6944 30.7131 10H25.116C25.116 14.305 23.0797 15.4694 19.9975 17.232C16.6224 19.1626 12 21.8053 12 29.5004H17.5972C17.5972 25.1951 19.6334 24.0307 22.7157 22.2681Z" fill="white"/>
<path d="M32.4031 20.4999C32.4031 24.8051 30.3668 25.9695 27.2846 27.7318C23.9104 29.6617 19.2871 32.3052 19.2871 40.0001H24.884C24.884 35.6949 26.9203 34.5305 30.0025 32.768C33.3776 30.838 37.9998 28.1949 37.9998 20.4999H32.4031Z" fill="white"/>
</svg>
