<svg width="50" height="50" viewBox="0 0 50 50" fill="none" xmlns="http://www.w3.org/2000/svg">
<path fill-rule="evenodd" clip-rule="evenodd" d="M36.7868 16.1064C36.2015 24.2846 31.8398 31.6939 24.9986 36.1318C18.1353 31.6805 13.7721 24.2445 13.2059 16.035C16.8132 14.1715 20.8545 13.19 24.9294 13.19C29.0574 13.19 33.1427 14.1968 36.7868 16.1064ZM39.9441 13.1037C35.403 10.4327 30.2103 9.01831 24.9294 9.01831C19.7088 9.01831 14.5677 10.4014 10.0632 13.0174L9 13.6331L9.02794 14.8735C9.26176 25.5071 14.8456 35.0417 23.9677 40.3778L24.9986 40.9816L26.0309 40.3778C35.1221 35.0595 40.7074 25.5562 40.9692 14.9598L41 13.7254L39.9441 13.1037Z" fill="#EE295C"/>
</svg>
