<svg width="50" height="50" viewBox="0 0 50 50" fill="none" xmlns="http://www.w3.org/2000/svg">
<rect width="50" height="50" fill="#0096D6"/>
<path d="M25 35C24.8704 35 24.7191 35 24.5895 35L27.4414 27.1358H31.3735C32.0648 27.1358 32.821 26.5957 33.0586 25.9475L36.1698 17.4136C36.6883 16.0093 35.8673 14.8642 34.3981 14.8642H28.9321L24.3519 27.4815L21.7593 34.6327C15.6019 33.1636 11 27.6327 11 21C11 14.5833 15.321 9.16049 21.2191 7.51852L18.5401 14.8858L14.0895 27.1358H17.0494L20.8302 16.7222H23.0556L19.2747 27.1358H22.2346L25.7778 17.4352C26.2963 16.0309 25.4969 14.8858 24.0062 14.8858H21.5L24.3735 7.0216C24.5895 7.0216 24.784 7 25 7C32.7346 7 39 13.2654 39 21C39 28.7346 32.7346 35 25 35ZM33.4691 16.7222H31.2438L28.1111 25.2994H30.3364L33.4691 16.7222Z" fill="white"/>
<path fill-rule="evenodd" clip-rule="evenodd" d="M21.6269 43.7795C22.8124 43.2937 23.1511 42.0438 23.1511 40.8097C23.1511 39.0709 22.1184 38 20.6226 38H19V43.9723C19.8513 43.9723 20.8151 44.1079 21.6269 43.7795ZM19.7601 43.3283C20.3649 43.3283 21.039 43.411 21.5757 43.0616C22.3199 42.5698 22.3989 41.6388 22.3989 40.8015C22.3989 39.4222 21.7581 38.6481 20.6226 38.6481H19.7601V43.3283Z" fill="white"/>
<path d="M25.27 38H24.2932V43.9723H25.0494L24.9763 39.1381L26.8571 43.9723H27.4322L29.3167 39.1449L29.2438 43.9723H30V38H29.0233L27.1486 42.8689L25.27 38Z" fill="white"/>
</svg>
