<svg width="50" height="50" viewBox="0 0 50 50" fill="none" xmlns="http://www.w3.org/2000/svg">
<path d="M25 38C24.8519 38 24.679 38 24.5309 38L27.7901 29.0123H32.284C33.0741 29.0123 33.9383 28.3951 34.2099 27.6543L37.7654 17.9012C38.358 16.2963 37.4198 14.9877 35.7407 14.9877H29.4938L24.2593 29.4074L21.2963 37.5802C14.2593 35.9012 9 29.5802 9 22C9 14.6667 13.9383 8.46914 20.679 6.59259L17.6173 15.0123L12.5309 29.0123H15.9136L20.2346 17.1111H22.7778L18.4568 29.0123H21.8395L25.8889 17.9259C26.4815 16.321 25.5679 15.0123 23.8642 15.0123H21L24.2839 6.02469C24.5309 6.02469 24.7531 6 25 6C33.8395 6 41 13.1605 41 22C41 30.8395 33.8395 38 25 38ZM34.679 17.1111H32.1358L28.5556 26.9136H31.0988L34.679 17.1111Z" fill="#0096D6"/>
<path fill-rule="evenodd" clip-rule="evenodd" d="M21.082 47.7705C22.5518 47.1922 22.9717 45.7044 22.9717 44.2354C22.9717 42.1655 21.6913 40.8906 19.8369 40.8906H17.8252V48C18.8806 48 20.0756 48.1614 21.082 47.7705ZM18.7676 47.2334C19.5174 47.2334 20.3531 47.3319 21.0186 46.916C21.9412 46.3305 22.0391 45.2222 22.0391 44.2256C22.0391 42.5837 21.2447 41.6621 19.8369 41.6621H18.7676V47.2334Z" fill="black"/>
<path d="M25.5986 40.8906H24.3877V48H25.3252L25.2346 42.2455L27.5664 48H28.2793L30.6158 42.2535L30.5254 48H31.4629V40.8906H30.252L27.9277 46.6865L25.5986 40.8906Z" fill="black"/>
</svg>
