<svg width="50" height="50" viewBox="0 0 50 50" fill="none" xmlns="http://www.w3.org/2000/svg">
<path fill-rule="evenodd" clip-rule="evenodd" d="M42.4603 16.6667H7.53968V23.3333H42.4603V16.6667ZM5 14V26H45V14H5Z" fill="#00B587"/>
<path d="M19.6699 40V34.7168H18.7617V40H19.6699Z" fill="black"/>
<path d="M18.6934 33.3154C18.6934 33.5951 18.8737 33.8232 19.2256 33.8232C19.5766 33.8232 19.7627 33.5907 19.7627 33.3154C19.7627 33.0248 19.5734 32.793 19.2256 32.793C18.8768 32.793 18.6934 33.0201 18.6934 33.3154Z" fill="black"/>
<path fill-rule="evenodd" clip-rule="evenodd" d="M31.7988 36.6699C31.7988 38.8012 30.6891 40.0977 28.9473 40.0977C27.2818 40.0977 26.0811 38.8153 26.0811 36.6699C26.0811 34.8458 26.7306 32.793 28.9375 32.793C31.045 32.793 31.7988 34.8198 31.7988 36.6699ZM30.8662 36.6699C30.8662 35.3391 30.6369 33.5938 28.9375 33.5938C27.2816 33.5938 27.0137 35.3799 27.0137 36.6699C27.0137 38.3668 27.7812 39.3018 28.9473 39.3018C30.1843 39.3018 30.8662 38.35 30.8662 36.6699Z" fill="black"/>
<path d="M25.5684 39.2334V40H21.2568V32.8906H22.1992V39.2334H25.5684Z" fill="black"/>
</svg>
