<svg width="50" height="50" viewBox="0 0 50 50" fill="none" xmlns="http://www.w3.org/2000/svg">
<path d="M25 38C24.8519 38 24.679 38 24.5309 38L27.7901 29.0123H32.284C33.0741 29.0123 33.9383 28.3951 34.2099 27.6543L37.7654 17.9012C38.358 16.2963 37.4198 14.9877 35.7407 14.9877H29.4938L24.2593 29.4074L21.2963 37.5802C14.2593 35.9012 9 29.5802 9 22C9 14.6667 13.9383 8.46914 20.679 6.59259L17.6173 15.0123L12.5309 29.0123H15.9136L20.2346 17.1111H22.7778L18.4568 29.0123H21.8395L25.8889 17.9259C26.4815 16.321 25.5679 15.0123 23.8642 15.0123H21L24.2839 6.02469C24.5309 6.02469 24.7531 6 25 6C33.8395 6 41 13.1605 41 22C41 30.8395 33.8395 38 25 38ZM34.679 17.1111H32.1358L28.5556 26.9136H31.0988L34.679 17.1111Z" fill="#0096D6"/>
<path fill-rule="evenodd" clip-rule="evenodd" d="M27.5845 47.4294C27.2404 47.8609 26.7446 48.0977 26.0752 48.0977C24.8495 48.0977 23.9951 46.955 23.9951 45.417C23.9951 44.1458 24.5932 42.6191 26.085 42.6191C26.7262 42.6191 27.2074 42.8398 27.5498 43.2494V40.5H28.458V48H27.6279L27.5845 47.4294ZM27.5498 44.1402C27.3225 43.7042 26.9417 43.3809 26.3096 43.3809C25.2586 43.3809 24.9033 44.4314 24.9033 45.3145C24.9033 46.2239 25.231 47.3311 26.2998 47.3311C26.9413 47.3311 27.3159 47.0072 27.5498 46.5564V44.1402Z" fill="black"/>
<path d="M39.6152 48V42.7168H38.707V48H39.6152Z" fill="black"/>
<path d="M38.6387 41.3154C38.6387 41.5951 38.819 41.8232 39.1709 41.8232C39.5219 41.8232 39.708 41.5907 39.708 41.3154C39.708 41.0248 39.5188 40.793 39.1709 40.793C38.8221 40.793 38.6387 41.0201 38.6387 41.3154Z" fill="black"/>
<path d="M41.9688 44.2297V48H41.0654V42.7168H41.9199L41.9484 43.3741C42.3295 42.8936 42.8761 42.6191 43.5264 42.6191C44.5667 42.6191 45.2207 43.1379 45.2207 44.5381V48H44.3125V44.5283C44.3125 43.6872 43.9341 43.3809 43.2578 43.3809C42.6833 43.3809 42.2249 43.7201 41.9688 44.2297Z" fill="black"/>
<path d="M30.7627 48V44.1292C31.0657 43.4536 31.9125 43.1926 32.5742 43.498C32.9142 43.6484 33.1064 43.9724 33.1064 44.5234V48H34.0098V44.4808C34.0779 43.8684 34.5123 43.3809 35.2305 43.3809C35.9706 43.3809 36.3584 43.8044 36.3584 44.5186V48H37.2666V44.5283C37.2666 43.2044 36.6382 42.6191 35.4941 42.6191C34.7401 42.6191 34.1667 42.9555 33.814 43.4642C33.636 43.0899 33.3497 42.8464 32.9844 42.7266C32.2137 42.4616 31.2727 42.6563 30.7406 43.2919L30.7139 42.7168H29.8545V48H30.7627Z" fill="black"/>
<path fill-rule="evenodd" clip-rule="evenodd" d="M21.9159 47.4416C21.937 47.6304 21.9654 47.8249 22.042 48H22.9844C22.9844 47.8043 22.875 47.6059 22.8428 47.4092C22.8135 47.2106 22.7988 47.0234 22.7988 46.8477V44.3867C22.7988 43.2062 21.9942 42.6191 20.8359 42.6191C19.9515 42.6191 18.7363 43.146 18.7363 44.1816H19.6396C19.6396 43.6112 20.2984 43.3467 20.7822 43.3467C21.5128 43.3467 21.8955 43.7488 21.8955 44.377V44.7969H21.002C19.5662 44.7969 18.624 45.3831 18.624 46.5303C18.624 47.5136 19.5068 48.0977 20.4111 48.0977C21.0745 48.0977 21.5822 47.7912 21.9159 47.4416ZM21.8955 45.4316V46.5146C21.6428 47.0162 21.0926 47.3066 20.543 47.3066C19.8824 47.3066 19.5322 46.9076 19.5322 46.4082C19.5322 45.9134 19.8585 45.6115 20.46 45.4951C20.9285 45.3969 21.4198 45.4316 21.8955 45.4316Z" fill="black"/>
<path d="M17.7207 43.4102V42.7168H16.7344V41.4326H15.8311V42.7168H14.8643V43.4102H15.8311V46.6865C15.8311 47.7769 16.6735 48.341 17.7451 48L17.7402 47.2627C17.2176 47.3833 16.7344 47.2927 16.7344 46.6914V43.4102H17.7207Z" fill="black"/>
<path fill-rule="evenodd" clip-rule="evenodd" d="M12.3984 48.0977C10.9382 48.0977 9.97168 47.0356 9.97168 45.5439C9.97168 44.1559 10.7348 42.6191 12.2812 42.6191C14.0373 42.6191 14.4541 44.1566 14.4541 45.6123H10.8807C10.8989 46.3314 11.2265 46.9451 11.7832 47.2188C12.5107 47.5704 13.3677 47.2615 13.8389 46.6426L14.3857 47.0771C14.0452 47.5928 13.4511 48.0977 12.3984 48.0977ZM10.9072 44.875H13.5508C13.5508 44.0891 13.1168 43.3613 12.2812 43.3613C11.5706 43.3613 11.0303 43.896 10.9072 44.875Z" fill="black"/>
<path d="M7.80859 40.8906V45.9248C7.80859 46.8296 7.25996 47.3311 6.50488 47.3311C5.75003 47.3311 5.20117 46.9348 5.20117 46.0322H4.25879C4.25879 47.3645 5.25923 48.0977 6.50488 48.0977C7.77703 48.0977 8.74609 47.2462 8.74609 45.9248V40.8906H7.80859Z" fill="black"/>
</svg>
