<svg width="50" height="50" viewBox="0 0 50 50" fill="none" xmlns="http://www.w3.org/2000/svg">
<rect width="50" height="50" fill="#0096D6"/>
<path d="M24.7588 33C24.6338 33 24.488 33 24.363 33L27.113 25.9784H30.9046C31.5713 25.9784 32.3005 25.4961 32.5296 24.9174L35.5296 17.2978C36.0296 16.044 35.238 15.0216 33.8213 15.0216H28.5505L24.1338 26.287L21.6338 32.6721C15.6963 31.3603 11.2588 26.4221 11.2588 20.5C11.2588 14.7708 15.4255 9.92901 21.113 8.46296L18.5296 15.0409L14.238 25.9784H17.0921L20.738 16.6806H22.8838L19.238 25.9784H22.0921L25.5088 17.3171C26.0088 16.0633 25.238 15.0409 23.8005 15.0409H21.3838L24.1546 8.01929C24.363 8.01929 24.5505 8 24.7588 8C32.2171 8 38.2588 13.5941 38.2588 20.5C38.2588 27.4059 32.2171 33 24.7588 33ZM32.9255 16.6806H30.7796L27.7588 24.3387H29.9046L32.9255 16.6806Z" fill="white"/>
<path fill-rule="evenodd" clip-rule="evenodd" d="M27.1895 41.3831C26.8955 41.7807 26.4718 41.9987 25.8999 41.9987C24.8526 41.9987 24.1225 40.9462 24.1225 39.5294C24.1225 38.3584 24.6336 36.9521 25.9082 36.9521C26.4561 36.9521 26.8673 37.1553 27.1598 37.5327V35H27.9359V41.9088H27.2266L27.1895 41.3831ZM27.1598 38.3532C26.9656 37.9516 26.6403 37.6538 26.1001 37.6538C25.2021 37.6538 24.8986 38.6215 24.8986 39.4349C24.8986 40.2727 25.1785 41.2926 26.0918 41.2926C26.6399 41.2926 26.96 40.9942 27.1598 40.579V38.3532Z" fill="white"/>
<path d="M37.4692 41.9088V37.042H36.6932V41.9088H37.4692Z" fill="white"/>
<path d="M36.6348 35.7511C36.6348 36.0088 36.7889 36.2189 37.0895 36.2189C37.3894 36.2189 37.5485 36.0047 37.5485 35.7511C37.5485 35.4834 37.3867 35.2699 37.0895 35.2699C36.7915 35.2699 36.6348 35.4791 36.6348 35.7511Z" fill="white"/>
<path d="M39.4802 38.4357V41.9088H38.7083V37.042H39.4384L39.4627 37.6475C39.7884 37.2049 40.2555 36.9521 40.8111 36.9521C41.7 36.9521 42.2588 37.4299 42.2588 38.7198V41.9088H41.4828V38.7108C41.4828 37.9359 41.1595 37.6538 40.5816 37.6538C40.0907 37.6538 39.699 37.9662 39.4802 38.4357Z" fill="white"/>
<path d="M29.9051 41.9088V38.3431C30.1641 37.7208 30.8875 37.4804 31.453 37.7617C31.7435 37.9002 31.9077 38.1986 31.9077 38.7063V41.9088H32.6796V38.667C32.7378 38.1028 33.1089 37.6538 33.7226 37.6538C34.355 37.6538 34.6864 38.0439 34.6864 38.7018V41.9088H35.4624V38.7108C35.4624 37.4912 34.9254 36.9521 33.9479 36.9521C33.3036 36.9521 32.8136 37.2619 32.5123 37.7306C32.3602 37.3857 32.1156 37.1615 31.8034 37.051C31.1449 36.807 30.3409 36.9863 29.8862 37.5718L29.8634 37.042H29.1291V41.9088H29.9051Z" fill="white"/>
<path fill-rule="evenodd" clip-rule="evenodd" d="M22.3459 41.3944C22.3639 41.5683 22.3882 41.7474 22.4537 41.9088H23.2589C23.2589 41.7285 23.1655 41.5458 23.1379 41.3645C23.1129 41.1816 23.1004 41.0092 23.1004 40.8473V38.5803C23.1004 37.4929 22.4128 36.9521 21.4232 36.9521C20.6675 36.9521 19.6292 37.4374 19.6292 38.3914H20.401C20.401 37.866 20.9639 37.6223 21.3773 37.6223C22.0015 37.6223 22.3285 37.9927 22.3285 38.5713V38.9581H21.565C20.3382 38.9581 19.5332 39.4981 19.5332 40.5549C19.5332 41.4607 20.2875 41.9987 21.0602 41.9987C21.627 41.9987 22.0608 41.7164 22.3459 41.3944ZM22.3285 39.5429V40.5405C22.1126 41.0026 21.6425 41.2701 21.1728 41.2701C20.6084 41.2701 20.3092 40.9025 20.3092 40.4425C20.3092 39.9867 20.588 39.7086 21.1019 39.6013C21.5023 39.5108 21.9221 39.5429 22.3285 39.5429Z" fill="white"/>
<path d="M18.7614 37.6807V37.042H17.9186V35.8591H17.1467V37.042H16.3207V37.6807H17.1467V40.6988C17.1467 41.7032 17.8666 42.2229 18.7822 41.9088L18.778 41.2296C18.3315 41.3407 17.9186 41.2572 17.9186 40.7033V37.6807H18.7614Z" fill="white"/>
<path fill-rule="evenodd" clip-rule="evenodd" d="M14.2137 41.9987C12.966 41.9987 12.1402 41.0204 12.1402 39.6463C12.1402 38.3677 12.7922 36.9521 14.1136 36.9521C15.614 36.9521 15.9702 38.3684 15.9702 39.7093H12.9169C12.9324 40.3717 13.2124 40.937 13.688 41.1891C14.3097 41.513 15.042 41.2285 15.4445 40.6584L15.9118 41.0587C15.6208 41.5337 15.1132 41.9987 14.2137 41.9987ZM12.9395 39.0301H15.1984C15.1984 38.3062 14.8275 37.6358 14.1136 37.6358C13.5064 37.6358 13.0447 38.1283 12.9395 39.0301Z" fill="white"/>
<path d="M10.2919 35.3598V39.9972C10.2919 40.8306 9.82315 41.2926 9.17797 41.2926C8.53298 41.2926 8.06401 40.9275 8.06401 40.0961H7.25879C7.25879 41.3234 8.11362 41.9987 9.17797 41.9987C10.265 41.9987 11.093 41.2144 11.093 39.9972V35.3598H10.2919Z" fill="white"/>
</svg>
