<svg width="50" height="50" viewBox="0 0 50 50" fill="none" xmlns="http://www.w3.org/2000/svg">
<rect width="50" height="50" fill="#0096D6"/>
<path d="M25 34C24.8704 34 24.7191 34 24.5895 34L27.4414 26.1358H31.3735C32.0648 26.1358 32.821 25.5957 33.0586 24.9475L36.1698 16.4136C36.6883 15.0093 35.8673 13.8642 34.3981 13.8642H28.9321L24.3519 26.4815L21.7593 33.6327C15.6019 32.1636 11 26.6327 11 20C11 13.5833 15.321 8.16049 21.2191 6.51852L18.5401 13.8858L14.0895 26.1358H17.0494L20.8302 15.7222H23.0556L19.2747 26.1358H22.2346L25.7778 16.4352C26.2963 15.0309 25.4969 13.8858 24.0062 13.8858H21.5L24.3735 6.0216C24.5895 6.0216 24.784 6 25 6C32.7346 6 39 12.2654 39 20C39 27.7346 32.7346 34 25 34ZM33.4691 15.7222H31.2438L28.1111 24.2994H30.3364L33.4691 15.7222Z" fill="white"/>
<path d="M18.7815 43V37H17.966V41.6401L14.8239 37H14V43H14.8239V38.3723L17.9532 43H18.7815Z" fill="white"/>
<path d="M25.023 37V43H24.1948L21.0655 38.3723V43H20.2415V37H21.0655L24.2076 41.6401V37H25.023Z" fill="white"/>
<path d="M27.5418 37H26.483V43H27.3027L27.2235 38.1434L29.2622 43H29.8855L31.9284 38.1502L31.8494 43H32.669V37H31.6103L29.5782 41.8915L27.5418 37Z" fill="white"/>
<path d="M35 43V37H34.1761V43H35Z" fill="white"/>
</svg>
