<svg width="50" height="50" viewBox="0 0 50 50" fill="none" xmlns="http://www.w3.org/2000/svg">
<path d="M25 38C24.8519 38 24.679 38 24.5309 38L27.7901 29.0123H32.284C33.0741 29.0123 33.9383 28.3951 34.2099 27.6543L37.7654 17.9012C38.358 16.2963 37.4198 14.9877 35.7407 14.9877H29.4938L24.2593 29.4074L21.2963 37.5802C14.2593 35.9012 9 29.5802 9 22C9 14.6667 13.9383 8.46914 20.679 6.59259L17.6173 15.0123L12.5309 29.0123H15.9136L20.2346 17.1111H22.7778L18.4568 29.0123H21.8395L25.8889 17.9259C26.4815 16.321 25.5679 15.0123 23.8642 15.0123H21L24.2839 6.02469C24.5309 6.02469 24.7531 6 25 6C33.8395 6 41 13.1605 41 22C41 30.8395 33.8395 38 25 38ZM34.679 17.1111H32.1358L28.5556 26.9136H31.0988L34.679 17.1111Z" fill="#0096D6"/>
<path d="M18.2939 48V40.8906H17.3613V46.3887L13.7676 40.8906H12.8252V48H13.7676V42.5166L17.3467 48H18.2939Z" fill="black"/>
<path d="M25.4326 40.8906V48H24.4854L20.9062 42.5166V48H19.9639V40.8906H20.9062L24.5 46.3887V40.8906H25.4326Z" fill="black"/>
<path d="M28.3135 40.8906H27.1025V48H28.04L27.9494 42.2455L30.2812 48H30.9941L33.3306 42.2535L33.2402 48H34.1777V40.8906H32.9668L30.6426 46.6865L28.3135 40.8906Z" fill="black"/>
<path d="M36.8438 48V40.8906H35.9014V48H36.8438Z" fill="black"/>
</svg>
