<svg width="50" height="50" viewBox="0 0 50 50" fill="none" xmlns="http://www.w3.org/2000/svg">
<rect width="50" height="50" fill="#0096D6"/>
<path d="M25 35C24.8704 35 24.7191 35 24.5895 35L27.4414 27.1358H31.3735C32.0648 27.1358 32.821 26.5957 33.0586 25.9475L36.1698 17.4136C36.6883 16.0093 35.8673 14.8642 34.3981 14.8642H28.9321L24.3519 27.4815L21.7593 34.6327C15.6019 33.1636 11 27.6327 11 21C11 14.5833 15.321 9.16049 21.2191 7.51852L18.5401 14.8858L14.0895 27.1358H17.0494L20.8302 16.7222H23.0556L19.2747 27.1358H22.2346L25.7778 17.4352C26.2963 16.0309 25.4969 14.8858 24.0062 14.8858H21.5L24.3735 7.0216C24.5895 7.0216 24.784 7 25 7C32.7346 7 39 13.2654 39 21C39 28.7346 32.7346 35 25 35ZM33.4691 16.7222H31.2438L28.1111 25.2994H30.3364L33.4691 16.7222Z" fill="white"/>
<path d="M18.4501 40.2995L16.9867 38H16.046L17.9693 40.9712L16 44H16.9491L18.4501 41.6552L19.9511 44H20.9001L18.9309 40.9712L20.8542 38H19.9134L18.4501 40.2995Z" fill="white"/>
<path d="M22.8694 38L24.8637 42.8915L26.8539 38H27.8908V44H27.088L27.1655 39.1502L25.1648 44H24.5544L22.5577 39.1434L22.6353 44H21.8325V38H22.8694Z" fill="white"/>
<path d="M33 43.353V44H29.3082V38H30.1151V43.353H33Z" fill="white"/>
</svg>
