<svg width="50" height="50" viewBox="0 0 50 50" fill="none" xmlns="http://www.w3.org/2000/svg">
<rect width="50" height="50" fill="#0075F3"/>
<path d="M18.2692 12.2696H31.7307V25.7251H36V8H18.2692V12.2696Z" fill="white"/>
<path d="M31.7273 25.725V30H14V12.2696H18.2746V25.725H31.7273Z" fill="white"/>
<path d="M20.6928 39.9251C20.6928 39.7433 20.6639 39.5829 20.6059 39.4439C20.5516 39.3012 20.4538 39.1729 20.3126 39.0588C20.175 38.9447 19.9831 38.836 19.7369 38.7326C19.4943 38.6292 19.1865 38.5241 18.8135 38.4171C18.4225 38.303 18.0694 38.1765 17.7544 38.0374C17.4393 37.8948 17.1696 37.7326 16.9451 37.5508C16.7206 37.369 16.5486 37.1604 16.4291 36.9251C16.3096 36.6898 16.2498 36.4207 16.2498 36.1176C16.2498 35.8146 16.3132 35.5348 16.44 35.2781C16.5667 35.0214 16.7477 34.7986 16.9831 34.6096C17.2221 34.4171 17.5063 34.2674 17.8358 34.1604C18.1654 34.0535 18.5329 34 18.9384 34C19.5323 34 20.0356 34.1123 20.4484 34.3369C20.8648 34.5579 21.1817 34.8485 21.3989 35.2086C21.6162 35.5651 21.7248 35.9465 21.7248 36.3529H20.682C20.682 36.0606 20.6186 35.8021 20.4919 35.5775C20.3651 35.3494 20.1732 35.1711 19.9161 35.0428C19.659 34.9109 19.3331 34.8449 18.9384 34.8449C18.5655 34.8449 18.2577 34.9002 18.0151 35.0107C17.7725 35.1212 17.5914 35.2709 17.4719 35.4599C17.3561 35.6488 17.2981 35.8645 17.2981 36.107C17.2981 36.2709 17.3325 36.4207 17.4013 36.5561C17.4737 36.6881 17.5842 36.8111 17.7326 36.9251C17.8847 37.0392 18.0766 37.1444 18.3084 37.2406C18.5438 37.3369 18.8244 37.4296 19.1503 37.5187C19.5993 37.6435 19.9867 37.7825 20.3126 37.9358C20.6385 38.0891 20.9065 38.262 21.1165 38.4545C21.3301 38.6435 21.4876 38.8592 21.589 39.1016C21.694 39.3405 21.7465 39.6114 21.7465 39.9144C21.7465 40.2317 21.6814 40.5187 21.551 40.7754C21.4206 41.0321 21.2342 41.2513 20.9916 41.4332C20.7489 41.615 20.4575 41.7558 20.1171 41.8556C19.7803 41.9519 19.4037 42 18.9873 42C18.6216 42 18.2613 41.9501 17.9065 41.8503C17.5552 41.7504 17.2348 41.6007 16.9451 41.4011C16.659 41.2014 16.4291 40.9554 16.2553 40.6631C16.0851 40.3672 16 40.025 16 39.6364H17.0428C17.0428 39.9037 17.0954 40.1337 17.2004 40.3262C17.3054 40.5152 17.4484 40.672 17.6295 40.7968C17.8141 40.9216 18.0223 41.0143 18.2541 41.0749C18.4894 41.1319 18.7339 41.1604 18.9873 41.1604C19.353 41.1604 19.6626 41.1105 19.9161 41.0107C20.1696 40.9109 20.3615 40.7683 20.4919 40.5829C20.6258 40.3975 20.6928 40.1783 20.6928 39.9251Z" fill="white"/>
<path d="M24.0223 36.107V41.893H23.0121V36.107H24.0223ZM22.936 34.5722C22.936 34.4118 22.9849 34.2763 23.0827 34.1658C23.1841 34.0553 23.3325 34 23.5281 34C23.72 34 23.8666 34.0553 23.968 34.1658C24.073 34.2763 24.1255 34.4118 24.1255 34.5722C24.1255 34.7255 24.073 34.8574 23.968 34.9679C23.8666 35.0749 23.72 35.1283 23.5281 35.1283C23.3325 35.1283 23.1841 35.0749 23.0827 34.9679C22.9849 34.8574 22.936 34.7255 22.936 34.5722Z" fill="white"/>
<path d="M28.096 36.107V36.8663H24.9185V36.107H28.096ZM25.994 34.7005H26.9988V40.4599C26.9988 40.656 27.0296 40.8039 27.0911 40.9037C27.1527 41.0036 27.2323 41.0695 27.3301 41.1016C27.4279 41.1337 27.5329 41.1497 27.6451 41.1497C27.7284 41.1497 27.8153 41.1426 27.9059 41.1283C28 41.1105 28.0706 41.0963 28.1177 41.0856L28.1231 41.893C28.0435 41.918 27.9384 41.9412 27.8081 41.9626C27.6814 41.9875 27.5275 42 27.3464 42C27.1002 42 26.8739 41.9519 26.6675 41.8556C26.4611 41.7594 26.2963 41.5989 26.1732 41.3743C26.0537 41.1462 25.994 40.8396 25.994 40.4545V34.7005Z" fill="white"/>
<path d="M31.7133 42C31.3042 42 30.933 41.9323 30.5999 41.7968C30.2704 41.6578 29.9861 41.4635 29.7471 41.2139C29.5118 40.9643 29.3307 40.6684 29.204 40.3262C29.0772 39.984 29.0139 39.6096 29.0139 39.2032V38.9786C29.0139 38.508 29.0845 38.0891 29.2257 37.7219C29.3669 37.3512 29.5588 37.0374 29.8014 36.7807C30.0441 36.5241 30.3193 36.3298 30.627 36.1979C30.9348 36.066 31.2535 36 31.583 36C32.003 36 32.3651 36.0713 32.6693 36.2139C32.9771 36.3565 33.2287 36.5561 33.4243 36.8128C33.6198 37.066 33.7646 37.3654 33.8588 37.7112C33.9529 38.0535 34 38.4278 34 38.8342V39.2781H29.6113V38.4706H32.9952V38.3957C32.9807 38.139 32.9264 37.8895 32.8322 37.6471C32.7417 37.4046 32.5969 37.205 32.3977 37.0481C32.1986 36.8913 31.927 36.8128 31.583 36.8128C31.3549 36.8128 31.1448 36.861 30.9529 36.9572C30.761 37.0499 30.5963 37.1889 30.4587 37.3743C30.3211 37.5597 30.2142 37.7861 30.1382 38.0535C30.0622 38.3209 30.0241 38.6292 30.0241 38.9786V39.2032C30.0241 39.4777 30.0622 39.7362 30.1382 39.9786C30.2179 40.2175 30.3319 40.4278 30.4804 40.6096C30.6325 40.7914 30.8153 40.934 31.029 41.0374C31.2462 41.1408 31.4925 41.1925 31.7677 41.1925C32.1225 41.1925 32.4231 41.1212 32.6693 40.9786C32.9155 40.836 33.131 40.6453 33.3156 40.4064L33.924 40.8824C33.7972 41.0713 33.6361 41.2513 33.4406 41.4225C33.245 41.5936 33.0042 41.7326 32.7182 41.8396C32.4357 41.9465 32.1008 42 31.7133 42Z" fill="white"/>
</svg>
