<svg width="50" height="50" viewBox="0 0 50 50" fill="none" xmlns="http://www.w3.org/2000/svg">
<path d="M18.881 11.8815H31.1187V24.1137H34.9998V8H18.881V11.8815Z" fill="#0075F3"/>
<path d="M31.1155 24.1136V28H15V11.8814H18.886V24.1136H31.1155Z" fill="#0075F3"/>
<path d="M21.1426 37.2031C21.1426 37.0371 21.1165 36.8906 21.0645 36.7637C21.0156 36.6335 20.9277 36.5163 20.8008 36.4121C20.6771 36.3079 20.5046 36.2087 20.2832 36.1143C20.0651 36.0199 19.7884 35.9238 19.4531 35.8262C19.1016 35.722 18.7842 35.6064 18.501 35.4795C18.2178 35.3493 17.9753 35.2012 17.7734 35.0352C17.5716 34.8691 17.417 34.6787 17.3096 34.4639C17.2021 34.249 17.1484 34.0033 17.1484 33.7266C17.1484 33.4499 17.2054 33.1943 17.3193 32.96C17.4333 32.7256 17.596 32.5221 17.8076 32.3496C18.0225 32.1738 18.278 32.0371 18.5742 31.9395C18.8704 31.8418 19.2008 31.793 19.5654 31.793C20.0993 31.793 20.5518 31.8955 20.9229 32.1006C21.2972 32.3024 21.582 32.5677 21.7773 32.8965C21.9727 33.222 22.0703 33.5703 22.0703 33.9414H21.1328C21.1328 33.6745 21.0758 33.4385 20.9619 33.2334C20.848 33.0251 20.6755 32.8623 20.4443 32.7451C20.2132 32.6247 19.9202 32.5645 19.5654 32.5645C19.2301 32.5645 18.9535 32.6149 18.7354 32.7158C18.5173 32.8167 18.3545 32.9535 18.2471 33.126C18.1429 33.2985 18.0908 33.4954 18.0908 33.7168C18.0908 33.8665 18.1217 34.0033 18.1836 34.127C18.2487 34.2474 18.348 34.3597 18.4814 34.4639C18.6182 34.568 18.7907 34.6641 18.999 34.752C19.2106 34.8398 19.4629 34.9245 19.7559 35.0059C20.1595 35.1198 20.5078 35.2467 20.8008 35.3867C21.0938 35.5267 21.3346 35.6846 21.5234 35.8604C21.7155 36.0329 21.8571 36.2298 21.9482 36.4512C22.0426 36.6693 22.0898 36.9167 22.0898 37.1934C22.0898 37.4831 22.0312 37.7451 21.9141 37.9795C21.7969 38.2139 21.6292 38.4141 21.4111 38.5801C21.193 38.7461 20.931 38.8747 20.625 38.9658C20.3223 39.0537 19.9837 39.0977 19.6094 39.0977C19.2806 39.0977 18.9567 39.0521 18.6377 38.9609C18.3219 38.8698 18.0339 38.7331 17.7734 38.5508C17.5163 38.3685 17.3096 38.1439 17.1533 37.877C17.0003 37.6068 16.9238 37.2943 16.9238 36.9395H17.8613C17.8613 37.1836 17.9085 37.3936 18.0029 37.5693C18.0973 37.7419 18.2259 37.8851 18.3887 37.999C18.5547 38.113 18.7419 38.1976 18.9502 38.2529C19.1618 38.305 19.3815 38.3311 19.6094 38.3311C19.9382 38.3311 20.2165 38.2855 20.4443 38.1943C20.6722 38.1032 20.8447 37.973 20.9619 37.8037C21.0824 37.6344 21.1426 37.4342 21.1426 37.2031Z" fill="#1C1D1F"/>
<path d="M24.1357 33.7168V39H23.2275V33.7168H24.1357ZM23.1592 32.3154C23.1592 32.1689 23.2031 32.0452 23.291 31.9443C23.3822 31.8434 23.5156 31.793 23.6914 31.793C23.8639 31.793 23.9958 31.8434 24.0869 31.9443C24.1813 32.0452 24.2285 32.1689 24.2285 32.3154C24.2285 32.4554 24.1813 32.5758 24.0869 32.6768C23.9958 32.7744 23.8639 32.8232 23.6914 32.8232C23.5156 32.8232 23.3822 32.7744 23.291 32.6768C23.2031 32.5758 23.1592 32.4554 23.1592 32.3154Z" fill="#1C1D1F"/>
<path d="M27.7979 33.7168V34.4102H24.9414V33.7168H27.7979ZM25.9082 32.4326H26.8115V37.6914C26.8115 37.8704 26.8392 38.0055 26.8945 38.0967C26.9499 38.1878 27.0215 38.248 27.1094 38.2773C27.1973 38.3066 27.2917 38.3213 27.3926 38.3213C27.4674 38.3213 27.5456 38.3148 27.627 38.3018C27.7116 38.2855 27.7751 38.2725 27.8174 38.2627L27.8223 39C27.7507 39.0228 27.6562 39.0439 27.5391 39.0635C27.4251 39.0863 27.2868 39.0977 27.124 39.0977C26.9027 39.0977 26.6992 39.0537 26.5137 38.9658C26.3281 38.8779 26.18 38.7314 26.0693 38.5264C25.9619 38.318 25.9082 38.0381 25.9082 37.6865V32.4326Z" fill="#1C1D1F"/>
<path d="M31.0498 39.0977C30.682 39.0977 30.3483 39.0358 30.0488 38.9121C29.7526 38.7852 29.4971 38.6077 29.2822 38.3799C29.0706 38.152 28.9079 37.8818 28.7939 37.5693C28.68 37.2568 28.623 36.915 28.623 36.5439V36.3389C28.623 35.9092 28.6865 35.5267 28.8135 35.1914C28.9404 34.8529 29.113 34.5664 29.3311 34.332C29.5492 34.0977 29.7965 33.9202 30.0732 33.7998C30.3499 33.6794 30.6364 33.6191 30.9326 33.6191C31.3102 33.6191 31.6357 33.6842 31.9092 33.8145C32.1859 33.9447 32.4121 34.127 32.5879 34.3613C32.7637 34.5924 32.8939 34.8659 32.9785 35.1816C33.0632 35.4941 33.1055 35.8359 33.1055 36.207V36.6123H29.1602V35.875H32.2021V35.8066C32.1891 35.5723 32.1403 35.3444 32.0557 35.123C31.9743 34.9017 31.8441 34.7194 31.665 34.5762C31.486 34.4329 31.2419 34.3613 30.9326 34.3613C30.7275 34.3613 30.5387 34.4053 30.3662 34.4932C30.1937 34.5778 30.0456 34.7048 29.9219 34.874C29.7982 35.0433 29.7021 35.25 29.6338 35.4941C29.5654 35.7383 29.5312 36.0199 29.5312 36.3389V36.5439C29.5312 36.7946 29.5654 37.0306 29.6338 37.252C29.7054 37.4701 29.8079 37.6621 29.9414 37.8281C30.0781 37.9941 30.2425 38.1243 30.4346 38.2188C30.6299 38.3132 30.8512 38.3604 31.0986 38.3604C31.4176 38.3604 31.6878 38.2952 31.9092 38.165C32.1305 38.0348 32.3242 37.8607 32.4902 37.6426L33.0371 38.0771C32.9232 38.2497 32.7783 38.4141 32.6025 38.5703C32.4268 38.7266 32.2103 38.8535 31.9531 38.9512C31.6992 39.0488 31.3981 39.0977 31.0498 39.0977Z" fill="#1C1D1F"/>
</svg>
