<svg width="50" height="50" viewBox="0 0 50 50" fill="none" xmlns="http://www.w3.org/2000/svg">
<rect width="50" height="50" fill="#00B587"/>
<path d="M41.1185 18.0226V24.9774H8.88153V18.0226H41.1185ZM43 16H7V27H43V16Z" fill="white"/>
<path d="M20.5002 36.0628H21.2244C21.1004 37.2759 20.2514 38 19.1424 38C17.8567 38 17 36.921 17 35.2928C17 33.7403 17.3989 32 19.2065 32C20.45 32 21.1111 32.7959 21.2244 33.9532H20.5002C20.3979 33.1604 19.9709 32.6337 19.2065 32.6337C17.8768 32.6337 17.7242 34.1786 17.7242 35.2928C17.7242 36.4375 18.1629 37.3703 19.1424 37.3703C20.072 37.3703 20.38 36.878 20.5002 36.0628Z" fill="white"/>
<path d="M26.4446 35.1845C26.4446 36.9351 25.5874 38 24.2419 38C22.5516 38 22.0278 36.3244 22.0278 34.8155C22.0278 33.0402 22.9514 32 24.2343 32C25.9446 32 26.4446 33.6578 26.4446 35.1845ZM25.7242 35.1845C25.7242 34.0914 25.5471 32.6578 24.2343 32.6578C23.3398 32.6578 22.7482 33.4082 22.7482 34.8075C22.7482 35.8879 22.942 37.3463 24.2419 37.3463C25.1974 37.3463 25.7242 36.5645 25.7242 35.1845Z" fill="white"/>
<path d="M27.7647 32.0802H28.4701L30.2692 36.8409L32.0646 32.0802H32.7737L30.5408 37.9198H29.9901L27.7647 32.0802ZM27.5347 32.0802H28.157L28.2588 37.9198H27.5347V32.0802ZM32.3777 32.0802H33V37.9198H32.2758L32.3777 32.0802Z" fill="white"/>
</svg>
