<svg width="50" height="50" viewBox="0 0 50 50" fill="none" xmlns="http://www.w3.org/2000/svg">
<path d="M42.9094 17.2064V24.7936H7.09059V17.2064H42.9094ZM45 15H5V27H45V15Z" fill="#50B288"/>
<path d="M20.0781 37.4517H20.9219C20.7774 38.7808 19.7882 39.5742 18.4961 39.5742C16.9982 39.5742 16 38.392 16 36.6079C16 34.9069 16.4647 33 18.5708 33C20.0196 33 20.7898 33.8721 20.9219 35.1401H20.0781C19.9589 34.2715 19.4614 33.6943 18.5708 33.6943C17.0215 33.6943 16.8438 35.3871 16.8438 36.6079C16.8438 37.8622 17.3549 38.8843 18.4961 38.8843C19.5792 38.8843 19.938 38.3448 20.0781 37.4517Z" fill="black"/>
<path d="M27.0039 36.4893C27.0039 38.4074 26.0052 39.5742 24.4375 39.5742C22.4681 39.5742 21.8579 37.7383 21.8579 36.085C21.8579 34.1397 22.9339 33 24.4287 33C26.4214 33 27.0039 34.8164 27.0039 36.4893ZM26.1646 36.4893C26.1646 35.2915 25.9582 33.7207 24.4287 33.7207C23.3865 33.7207 22.6973 34.543 22.6973 36.0762C22.6973 37.26 22.9231 38.8579 24.4375 38.8579C25.5508 38.8579 26.1646 38.0013 26.1646 36.4893Z" fill="black"/>
<path d="M28.542 33.0879H29.3638L31.46 38.3042L33.5518 33.0879H34.3779L31.7764 39.4863H31.1348L28.542 33.0879ZM28.2739 33.0879H28.999L29.1177 39.4863H28.2739V33.0879ZM33.9165 33.0879H34.6416V39.4863H33.7979L33.9165 33.0879Z" fill="black"/>
</svg>
