<svg width="50" height="50" viewBox="0 0 50 50" fill="none" xmlns="http://www.w3.org/2000/svg">
<path d="M42.9094 17.2064V24.7936H7.09059V17.2064H42.9094ZM45 15H5V27H45V15Z" fill="#50B288"/>
<path d="M19.6143 40.2031C19.6143 40.8923 19.0704 41.3311 18.0811 41.3311C17.1797 41.3311 16.333 40.9146 16.333 39.9395H15.3955C15.3955 41.3373 16.81 42.0977 18.0811 42.0977C19.5928 42.0977 20.5615 41.3485 20.5615 40.1934C20.5615 39.081 19.8398 38.4609 18.2275 38.0059C17.073 37.6851 16.5625 37.3178 16.5625 36.7168C16.5625 36.049 17.0341 35.5645 18.0371 35.5645C19.0933 35.5645 19.6045 36.1326 19.6045 36.9414H20.542C20.542 35.6042 19.2835 34.793 18.0371 34.793C16.5908 34.793 15.6201 35.6105 15.6201 36.7266C15.6201 37.8321 16.514 38.4081 17.9248 38.8262C19.2846 39.2222 19.6143 39.5396 19.6143 40.2031Z" fill="black"/>
<path fill-rule="evenodd" clip-rule="evenodd" d="M24.6143 34.8906H23.7891L21.0791 42H22.041L22.7167 40.1396H25.6901L26.3672 42H27.334L24.6143 34.8906ZM25.4093 39.3682H22.997L24.2019 36.051L25.4093 39.3682Z" fill="black"/>
<path d="M33.7549 34.8906V42H32.8076L29.2285 36.5166V42H28.2861V34.8906H29.2285L32.8223 40.3887V34.8906H33.7549Z" fill="black"/>
</svg>
