<svg width="50" height="50" viewBox="0 0 50 50" fill="none" xmlns="http://www.w3.org/2000/svg">
<path d="M42.9094 17.2064V24.7936H7.09059V17.2064H42.9094ZM45 15H5V27H45V15Z" fill="#50B288"/>
<path d="M32.5723 38.7393H33.5098C33.3492 40.2161 32.2501 41.0977 30.8145 41.0977C29.0263 41.0977 28.041 39.474 28.041 37.8018C28.041 35.9117 28.5574 33.793 30.8975 33.793C32.3281 33.793 33.359 34.7237 33.5098 36.1709H32.5723C32.4346 35.1676 31.997 34.5645 30.8975 34.5645C29.1761 34.5645 28.9785 36.4453 28.9785 37.8018C28.9785 39.1954 29.5464 40.3311 30.8145 40.3311C32.0179 40.3311 32.4166 39.7317 32.5723 38.7393Z" fill="black"/>
<path d="M20.7607 33.8906L23.0898 39.6865L25.4141 33.8906H26.625V41H25.6875L25.7779 35.2535L23.4414 41H22.7285L20.3967 35.2455L20.4873 41H19.5498V33.8906H20.7607Z" fill="black"/>
<path d="M17.8359 41V33.8906H16.8936V41H17.8359Z" fill="black"/>
</svg>
