<svg width="50" height="50" viewBox="0 0 50 50" fill="none" xmlns="http://www.w3.org/2000/svg">
<rect width="50" height="50" fill="#00B587"/>
<path d="M41.1185 17.0226V23.9774H8.88153V17.0226H41.1185ZM43 15H7V26H43V15Z" fill="white"/>
<path d="M19.9064 37.4439C19.9064 38.01 19.4028 38.3703 18.4867 38.3703C17.6521 38.3703 16.8681 38.0283 16.8681 37.2273H16C16 38.3755 17.3098 39 18.4867 39C19.8866 39 20.7835 38.3847 20.7835 37.4358C20.7835 36.5221 20.1153 36.0128 18.6223 35.639C17.5533 35.3756 17.0806 35.0738 17.0806 34.5802C17.0806 34.0317 17.5172 33.6337 18.446 33.6337C19.424 33.6337 19.8973 34.1003 19.8973 34.7647H20.7654C20.7654 33.6664 19.6001 33 18.446 33C17.1068 33 16.208 33.6715 16.208 34.5882C16.208 35.4963 17.0357 35.9695 18.342 36.3128C19.6011 36.6381 19.9064 36.8988 19.9064 37.4439Z" fill="white"/>
<path fill-rule="evenodd" clip-rule="evenodd" d="M24.5362 33.0802H23.7721L21.2628 38.9198H22.1535L22.7792 37.3917H25.5323L26.1593 38.9198H27.0545L24.5362 33.0802ZM25.2723 36.758H23.0386L24.1543 34.0333L25.2723 36.758Z" fill="white"/>
<path d="M33 33.0802V38.9198H32.1229L28.8088 34.4158V38.9198H27.9362V33.0802H28.8088L32.1364 37.5963V33.0802H33Z" fill="white"/>
</svg>
