<svg width="50" height="50" viewBox="0 0 50 50" fill="none" xmlns="http://www.w3.org/2000/svg">
<path d="M42.9094 17.2064V24.7936H7.09059V17.2064H42.9094ZM45 15H5V27H45V15Z" fill="#50B288"/>
<path d="M30.9863 34.5V37.3488L30.9961 37.3369C31.3765 36.8778 31.9107 36.6191 32.5439 36.6191C33.5843 36.6191 34.2383 37.1379 34.2383 38.5381V42H33.3301V38.5283C33.3301 37.6872 32.9517 37.3809 32.2754 37.3809C31.7009 37.3809 31.2425 37.7201 30.9863 38.2297V42H30.083V34.5H30.9863Z" fill="#1C1D1F"/>
<path fill-rule="evenodd" clip-rule="evenodd" d="M37.7832 42.0977C38.8359 42.0977 39.43 41.5928 39.7705 41.0771L39.2236 40.6426C38.8916 41.0788 38.4701 41.3604 37.832 41.3604C36.8561 41.3604 36.2881 40.508 36.2655 39.6123H39.8389C39.8389 38.1566 39.422 36.6191 37.666 36.6191C36.0659 36.6191 35.3564 38.1516 35.3564 39.5439C35.3564 41.0356 36.323 42.0977 37.7832 42.0977ZM36.2919 38.875C36.4151 37.896 36.9553 37.3613 37.666 37.3613C38.501 37.3613 38.9355 38.0893 38.9355 38.875H36.2919Z" fill="#1C1D1F"/>
<path d="M43.9697 40.5986C43.9697 41.0356 43.5826 41.3555 42.832 41.3555C42.2216 41.3555 41.6129 41.0477 41.5771 40.3691H40.6689C40.6689 41.524 41.8207 42.0977 42.832 42.0977C44.0985 42.0977 44.873 41.4375 44.873 40.5303C44.873 39.6807 44.2725 39.2461 42.9736 38.9531C41.9703 38.7287 41.7578 38.5193 41.7578 38.1377C41.7578 37.7405 42.0711 37.3613 42.8076 37.3613C43.5262 37.3613 43.916 37.8304 43.916 38.2695H44.8193C44.8193 37.1736 43.7803 36.6191 42.8076 36.6191C41.9075 36.6191 40.8496 37.1529 40.8496 38.1621C40.8496 39.0429 41.6001 39.442 42.7539 39.6855C43.7996 39.8908 43.9697 40.2059 43.9697 40.5986Z" fill="#1C1D1F"/>
<path d="M26.9629 41.3555C25.8048 41.3555 25.5176 40.198 25.5176 39.2559C25.5176 38.3046 25.8887 37.3613 26.9629 37.3613C27.6274 37.3613 28.1583 37.8667 28.208 38.5332H29.0674C29.0184 37.4355 28.1982 36.6191 26.9629 36.6191C25.4579 36.6191 24.6143 37.8681 24.6143 39.2559C24.6143 40.7274 25.3865 42.0977 26.9629 42.0977C27.9508 42.0977 29.0124 41.3861 29.0674 40.3301H28.208C28.1596 40.9205 27.6103 41.3555 26.9629 41.3555Z" fill="#1C1D1F"/>
<path d="M23.7891 36.7168V37.4102H22.8027V40.6914C22.8027 41.2927 23.286 41.3833 23.8086 41.2627L23.8135 42C22.7418 42.341 21.8994 41.7769 21.8994 40.6865V37.4102H20.9326V36.7168H21.8994V35.4326H22.8027V36.7168H23.7891Z" fill="#1C1D1F"/>
<path d="M20.127 42V36.7168H19.2188V42H20.127Z" fill="#1C1D1F"/>
<path d="M19.1504 35.3154C19.1504 35.5951 19.3307 35.8232 19.6826 35.8232C20.0336 35.8232 20.2197 35.5907 20.2197 35.3154C20.2197 35.0248 20.0305 34.793 19.6826 34.793C19.3338 34.793 19.1504 35.0201 19.1504 35.3154Z" fill="#1C1D1F"/>
<path d="M12.6807 42H13.418L14.6688 38L15.9521 42H16.6846L18.2178 36.7168H17.3193L16.3004 40.743L15.0488 36.7168H14.3213L13.0894 40.6608L12.0508 36.7168H11.1475L12.6807 42Z" fill="#1C1D1F"/>
<path d="M9.61426 40.2031C9.61426 40.8923 9.07037 41.3311 8.08105 41.3311C7.17971 41.3311 6.33301 40.9146 6.33301 39.9395H5.39551C5.39551 41.3373 6.80999 42.0977 8.08105 42.0977C9.59285 42.0977 10.5615 41.3485 10.5615 40.1934C10.5615 39.081 9.83984 38.4609 8.22754 38.0059C7.07297 37.6851 6.5625 37.3178 6.5625 36.7168C6.5625 36.049 7.03406 35.5645 8.03711 35.5645C9.09327 35.5645 9.60449 36.1326 9.60449 36.9414H10.542C10.542 35.6042 9.28351 34.793 8.03711 34.793C6.59081 34.793 5.62012 35.6105 5.62012 36.7266C5.62012 37.8321 6.51398 38.4082 7.9248 38.8262C9.28456 39.2222 9.61426 39.5396 9.61426 40.2031Z" fill="#1C1D1F"/>
</svg>
