<svg width="50" height="50" viewBox="0 0 50 50" fill="none" xmlns="http://www.w3.org/2000/svg">
<rect width="50" height="50" fill="#00B587"/>
<path d="M41.1185 17.0226V23.9774H8.88153V17.0226H41.1185ZM43 15H7V26H43V15Z" fill="white"/>
<path d="M30.0401 34V36.6242L30.0485 36.6133C30.3761 36.1903 30.8362 35.9521 31.3816 35.9521C32.2776 35.9521 32.8408 36.4299 32.8408 37.7198V40.9088H32.0586V37.7108C32.0586 36.9359 31.7328 36.6538 31.1503 36.6538C30.6555 36.6538 30.2607 36.9662 30.0401 37.4357V40.9088H29.2621V34H30.0401Z" fill="white"/>
<path fill-rule="evenodd" clip-rule="evenodd" d="M35.8939 40.9987C36.8005 40.9987 37.3122 40.5337 37.6054 40.0587L37.1344 39.6584C36.8485 40.0602 36.4854 40.3195 35.9359 40.3195C35.0954 40.3195 34.6062 39.5344 34.5868 38.7093H37.6643C37.6643 37.3684 37.3053 35.9521 35.7929 35.9521C34.4149 35.9521 33.8038 37.3637 33.8038 38.6463C33.8038 40.0204 34.6362 40.9987 35.8939 40.9987ZM34.6095 38.0301C34.7156 37.1283 35.1809 36.6358 35.7929 36.6358C36.5121 36.6358 36.8863 37.3064 36.8863 38.0301H34.6095Z" fill="white"/>
<path d="M41.222 39.6179C41.222 40.0204 40.8886 40.315 40.2422 40.315C39.7164 40.315 39.1922 40.0316 39.1614 39.4065H38.3792C38.3792 40.4703 39.3711 40.9987 40.2422 40.9987C41.333 40.9987 42 40.3906 42 39.5549C42 38.7723 41.4827 38.372 40.3641 38.1021C39.5 37.8953 39.317 37.7025 39.317 37.3509C39.317 36.985 39.5869 36.6358 40.2211 36.6358C40.84 36.6358 41.1758 37.0679 41.1758 37.4724H41.9537C41.9537 36.4629 41.0589 35.9521 40.2211 35.9521C39.4459 35.9521 38.5348 36.4437 38.5348 37.3734C38.5348 38.1848 39.1812 38.5524 40.1749 38.7768C41.0755 38.9658 41.222 39.2561 41.222 39.6179Z" fill="white"/>
<path d="M26.5749 40.315C25.5775 40.315 25.3301 39.2489 25.3301 38.381C25.3301 37.5047 25.6497 36.6358 26.5749 36.6358C27.1472 36.6358 27.6044 37.1013 27.6472 37.7153H28.3874C28.3452 36.7041 27.6388 35.9521 26.5749 35.9521C25.2787 35.9521 24.5521 37.1026 24.5521 38.381C24.5521 39.7365 25.2172 40.9987 26.5749 40.9987C27.4257 40.9987 28.34 40.3432 28.3874 39.3705H27.6472C27.6056 39.9144 27.1325 40.315 26.5749 40.315Z" fill="white"/>
<path d="M23.8414 36.042V36.6807H22.992V39.7033C22.992 40.2573 23.4082 40.3407 23.8583 40.2296L23.8625 40.9088C22.9395 41.2229 22.214 40.7032 22.214 39.6988V36.6807H21.3813V36.042H22.214V34.8591H22.992V36.042H23.8414Z" fill="white"/>
<path d="M20.6874 40.9088V36.042H19.9053V40.9088H20.6874Z" fill="white"/>
<path d="M19.8464 34.7511C19.8464 35.0088 20.0017 35.2189 20.3048 35.2189C20.6071 35.2189 20.7673 35.0047 20.7673 34.7511C20.7673 34.4834 20.6043 34.2699 20.3048 34.2699C20.0044 34.2699 19.8464 34.4791 19.8464 34.7511Z" fill="white"/>
<path d="M14.2743 40.9088H14.9093L15.9866 37.2241L17.0919 40.9088H17.7227L19.0432 36.042H18.2694L17.3918 39.7508L16.3139 36.042H15.6873L14.6263 39.6751L13.7318 36.042H12.9539L14.2743 40.9088Z" fill="white"/>
<path d="M11.6334 39.2535C11.6334 39.8884 11.165 40.2926 10.3129 40.2926C9.53665 40.2926 8.80742 39.909 8.80742 39.0107H8C8 40.2983 9.21822 40.9987 10.3129 40.9987C11.615 40.9987 12.4492 40.3087 12.4492 39.2445C12.4492 38.2199 11.8277 37.6487 10.4391 37.2295C9.44471 36.9341 9.00507 36.5956 9.00507 36.042C9.00507 35.4269 9.4112 34.9805 10.2751 34.9805C11.1847 34.9805 11.625 35.5039 11.625 36.2489H12.4324C12.4324 35.0172 11.3485 34.2699 10.2751 34.2699C9.02945 34.2699 8.19344 35.023 8.19344 36.051C8.19344 37.0695 8.96328 37.6001 10.1784 37.9851C11.3494 38.35 11.6334 38.6423 11.6334 39.2535Z" fill="white"/>
</svg>
