<svg width="50" height="50" viewBox="0 0 50 50" fill="none" xmlns="http://www.w3.org/2000/svg">
<path d="M23.3534 20.9755C21.5556 17.1175 19.315 13.4823 16.675 10.1433C14.9147 11.8102 13.8172 14.7141 15.9419 16.5303C17.7719 18.3142 22.2033 20.5653 23.2338 21.0753C23.2664 21.0933 23.3073 21.0873 23.3328 21.0603M22.5539 22.5228V22.525L15.1761 22.7819C15.976 24.2088 17.3234 25.3162 18.7274 24.9772C19.696 24.7349 21.8913 23.2042 22.6139 22.6874L22.6131 22.6844C22.6683 22.6345 22.6484 22.5944 22.6484 22.5944M22.732 21.8227L22.7328 21.8197C19.4924 19.6308 13.2119 16.2749 13.2119 16.2749C12.5058 18.4582 13.6094 20.8154 15.7394 21.6704C16.1898 21.8494 16.6662 21.9543 17.1501 21.9809C17.2611 22.0015 21.5376 21.9832 22.6836 21.9779C22.7159 21.9742 22.7444 21.9554 22.7601 21.9265M23.2495 6.95654C22.9278 6.98429 22.0608 7.18154 22.0608 7.18154C20.0364 7.69831 19.126 9.85857 19.6555 11.7997C20.3069 14.6924 23.5161 19.447 24.2043 20.4442C24.2615 20.5015 24.3662 20.4752 24.3614 20.383H24.3629C25.4234 9.76942 23.2495 6.95654 23.2495 6.95654ZM25.798 20.4329C26.5105 19.4084 29.6961 14.6804 30.3445 11.8004C31.002 9.19536 29.3441 7.31924 26.7569 6.95729C26.7569 6.95729 24.5699 9.77204 25.6334 20.3924H25.6349C25.6357 20.4718 25.7609 20.5043 25.798 20.4329ZM27.4375 22.525C27.3556 22.536 27.3245 22.6228 27.3835 22.6818C28.0893 23.188 30.2328 24.6858 31.2618 24.976C31.2618 24.976 33.169 25.6248 34.8258 22.78L27.4383 22.5224L27.4375 22.525ZM36.79 16.2595C36.79 16.2595 30.5181 19.6244 27.2748 21.8125C27.2098 21.8548 27.2271 21.9757 27.3145 21.9757V21.9772L32.977 21.9622C35.7711 21.7433 37.6255 18.897 36.787 16.2595M26.779 21.067V21.0685C27.8358 20.5413 32.2341 18.3048 34.0555 16.5299C36.1534 14.7098 35.1195 11.7913 33.3235 10.138C30.6905 13.4677 28.4533 17.092 26.6568 20.938H26.659C26.64 20.9764 26.6483 21.0255 26.6789 21.0554" fill="#E12229"/>
<path d="M14.8432 30.9566H14V27.0029H14.8432V28.6049H16.7197V27.0029H17.563V30.9562H16.7197V29.3017H14.8432V30.9566ZM19.0922 29.3704C19.0922 30.0698 19.2987 30.361 19.996 30.361C20.6933 30.361 20.8909 30.0668 20.8909 29.3704V27.0026H21.7334V29.3925C21.7768 29.765 21.6939 30.1415 21.4994 30.454C21.169 30.8408 20.6895 31 19.9926 31C19.2956 31 18.81 30.8408 18.4809 30.454C18.2964 30.2415 18.251 29.8933 18.251 29.3925V27.0026H19.0884L19.0922 29.3704ZM24.49 27.0026L26.1971 30.9562H25.2634L24.8951 30.0142H23.1535L22.7966 30.9562H21.9007L23.5958 27.0026H24.49ZM23.4241 29.3101H24.6184L24.0102 27.7909L23.4241 29.3101ZM31.9061 27.0029L30.667 30.9562H29.6345L28.7844 28.0089L28.0375 30.9603H27.0101L25.6757 27.007H26.5809L27.5102 30.0462L28.2915 27.007H29.2851L30.1828 30.0462L31.0477 27.007L31.9061 27.0029ZM33.0436 28.6104H35.3761V29.2958H33.0357C33.0402 30.0062 33.3248 30.2643 33.9891 30.2643H35.3727V30.9529H33.9499C33.5079 30.9971 33.0653 30.8746 32.6998 30.6062C32.486 30.4199 32.3184 30.1804 32.2114 29.9087C32.1045 29.637 32.0616 29.3415 32.0864 29.048C32.0864 27.6508 32.6836 27 33.9726 27H35.3724V27.689H33.9887C33.3816 27.6887 33.0749 27.9854 33.0405 28.6075M36.1189 27.0029H37V30.9566H36.1189V27.0029Z" fill="#0A0808"/>
<path d="M36.9258 37.2451V37.8691H34.355V37.2451H36.9258ZM35.2251 36.0894H36.0381V40.8223C36.0381 41.3635 36.473 41.445 36.9434 41.3364L36.9478 42C35.9814 42.3075 35.2251 41.8036 35.2251 40.8179V36.0894Z" fill="black"/>
<path d="M30.791 35.25V42H29.978V35.25H30.791ZM30.5977 39.4424L30.2593 39.4292C30.2694 38.3094 30.9543 37.1572 32.1929 37.1572C33.1292 37.1572 33.7178 37.6241 33.7178 38.8843V42H32.9004V38.8755C32.9004 38.1184 32.5599 37.8428 31.9512 37.8428C31.1039 37.8428 30.5977 38.6706 30.5977 39.4424Z" fill="black"/>
<path d="M28.0049 37.2451H28.7432V41.8989C28.7432 43.1542 27.92 43.8765 26.7305 43.8765C26.0738 43.8765 25.3517 43.5981 24.9683 43.0503L25.3945 42.5669C25.7952 43.0501 26.2436 43.2085 26.6689 43.2085C27.441 43.2085 27.9302 42.7676 27.9302 41.9385V38.291L27.9675 37.7681L28.0049 37.2451ZM24.731 39.6753C24.731 38.5033 25.2318 37.1572 26.6074 37.1572C27.8068 37.1572 28.3829 38.0193 28.5234 39.4248V39.8291C28.4591 40.5253 28.2778 41.0882 27.9609 41.4814C27.6512 41.8731 27.2036 42.0879 26.5986 42.0879C25.4686 42.0879 24.731 41.0549 24.731 39.6753ZM25.5439 39.6753C25.5439 40.6288 25.9166 41.3979 26.7964 41.3979C27.3354 41.3979 27.6768 41.1489 27.8818 40.7739C27.9873 40.5864 28.0693 40.3828 28.1279 40.1631V39.104C27.998 38.4545 27.6229 37.8428 26.8052 37.8428C25.8258 37.8428 25.5439 38.8746 25.5439 39.6753Z" fill="black"/>
<path d="M23.6191 37.2451V42H22.8018V37.2451H23.6191ZM22.7402 35.9839C22.7402 35.7181 22.9053 35.5137 23.2192 35.5137C23.5323 35.5137 23.7026 35.7223 23.7026 35.9839C23.7026 36.2316 23.5351 36.4409 23.2192 36.4409C22.9026 36.4409 22.7402 36.2356 22.7402 35.9839Z" fill="black"/>
<path d="M20.9253 40.3828C20.9253 39.7856 20.6286 39.5 19.4048 39.1436C18.135 38.7673 17.3306 38.2489 17.3306 37.2539C17.3306 36.2495 18.2042 35.5137 19.5059 35.5137C20.6317 35.5137 21.7603 36.2378 21.7603 37.4473H20.9165C20.9165 36.7193 20.4564 36.208 19.5059 36.208C18.6031 36.208 18.1787 36.6441 18.1787 37.2451C18.1787 37.786 18.6381 38.1166 19.6772 38.4053C21.1283 38.8149 21.7778 39.3729 21.7778 40.374C21.7778 41.4137 20.906 42.0879 19.5454 42.0879C18.374 42.0879 17.1284 41.4276 17.1284 40.1455H17.9722C17.9722 41.0232 18.7342 41.3979 19.5454 41.3979C20.4358 41.3979 20.9253 41.0031 20.9253 40.3828Z" fill="black"/>
<path d="M14.5928 42.0879C13.2786 42.0879 12.4087 41.1321 12.4087 39.7896C12.4087 38.5406 13.0367 37.1572 14.4873 37.1572C16.0677 37.1572 16.4429 38.541 16.4429 39.8511H12.8921V39.1875H15.6299C15.6299 38.4804 15.2388 37.8252 14.4873 37.8252C13.9364 37.8252 13.5034 38.1839 13.3184 38.8447C13.2319 39.1536 13.2261 39.4714 13.2261 39.7896C13.2261 40.6931 13.7573 41.4243 14.6367 41.4243C15.2109 41.4243 15.5903 41.1709 15.8892 40.7783L16.3813 41.1694C16.0749 41.6335 15.5402 42.0879 14.5928 42.0879Z" fill="black"/>
</svg>
