<svg width="50" height="50" viewBox="0 0 50 50" fill="none" xmlns="http://www.w3.org/2000/svg">
<path d="M23.3534 20.9755C21.5556 17.1175 19.315 13.4823 16.675 10.1433C14.9147 11.8102 13.8172 14.7141 15.9419 16.5303C17.7719 18.3142 22.2033 20.5653 23.2338 21.0753C23.2664 21.0933 23.3073 21.0873 23.3328 21.0603M22.5539 22.5228V22.525L15.1761 22.7819C15.976 24.2088 17.3234 25.3162 18.7274 24.9772C19.696 24.7349 21.8913 23.2042 22.6139 22.6874L22.6131 22.6844C22.6683 22.6345 22.6484 22.5944 22.6484 22.5944M22.732 21.8227L22.7328 21.8197C19.4924 19.6308 13.2119 16.2749 13.2119 16.2749C12.5058 18.4582 13.6094 20.8154 15.7394 21.6704C16.1898 21.8494 16.6662 21.9543 17.1501 21.9809C17.2611 22.0015 21.5376 21.9832 22.6836 21.9779C22.7159 21.9742 22.7444 21.9554 22.7601 21.9265M23.2495 6.95654C22.9278 6.98429 22.0608 7.18154 22.0608 7.18154C20.0364 7.69831 19.126 9.85857 19.6555 11.7997C20.3069 14.6924 23.5161 19.447 24.2043 20.4442C24.2615 20.5015 24.3662 20.4752 24.3614 20.383H24.3629C25.4234 9.76942 23.2495 6.95654 23.2495 6.95654ZM25.798 20.4329C26.5105 19.4084 29.6961 14.6804 30.3445 11.8004C31.002 9.19536 29.3441 7.31924 26.7569 6.95729C26.7569 6.95729 24.5699 9.77204 25.6334 20.3924H25.6349C25.6357 20.4718 25.7609 20.5043 25.798 20.4329ZM27.4375 22.525C27.3556 22.536 27.3245 22.6228 27.3835 22.6818C28.0893 23.188 30.2328 24.6858 31.2618 24.976C31.2618 24.976 33.169 25.6248 34.8258 22.78L27.4383 22.5224L27.4375 22.525ZM36.79 16.2595C36.79 16.2595 30.5181 19.6244 27.2748 21.8125C27.2098 21.8548 27.2271 21.9757 27.3145 21.9757V21.9772L32.977 21.9622C35.7711 21.7433 37.6255 18.897 36.787 16.2595M26.779 21.067V21.0685C27.8358 20.5413 32.2341 18.3048 34.0555 16.5299C36.1534 14.7098 35.1195 11.7913 33.3235 10.138C30.6905 13.4677 28.4533 17.092 26.6568 20.938H26.659C26.64 20.9764 26.6483 21.0255 26.6789 21.0554" fill="#E12229"/>
<path d="M14.8432 30.9566H14V27.0029H14.8432V28.6049H16.7197V27.0029H17.563V30.9562H16.7197V29.3017H14.8432V30.9566ZM19.0922 29.3704C19.0922 30.0698 19.2987 30.361 19.996 30.361C20.6933 30.361 20.8909 30.0668 20.8909 29.3704V27.0026H21.7334V29.3925C21.7768 29.765 21.6939 30.1415 21.4994 30.454C21.169 30.8408 20.6895 31 19.9926 31C19.2956 31 18.81 30.8408 18.4809 30.454C18.2964 30.2415 18.251 29.8933 18.251 29.3925V27.0026H19.0884L19.0922 29.3704ZM24.49 27.0026L26.1971 30.9562H25.2634L24.8951 30.0142H23.1535L22.7966 30.9562H21.9007L23.5958 27.0026H24.49ZM23.4241 29.3101H24.6184L24.0102 27.7909L23.4241 29.3101ZM31.9061 27.0029L30.667 30.9562H29.6345L28.7844 28.0089L28.0375 30.9603H27.0101L25.6757 27.007H26.5809L27.5102 30.0462L28.2915 27.007H29.2851L30.1828 30.0462L31.0477 27.007L31.9061 27.0029ZM33.0436 28.6104H35.3761V29.2958H33.0357C33.0402 30.0062 33.3248 30.2643 33.9891 30.2643H35.3727V30.9529H33.9499C33.5079 30.9971 33.0653 30.8746 32.6998 30.6062C32.486 30.4199 32.3184 30.1804 32.2114 29.9087C32.1045 29.637 32.0616 29.3415 32.0864 29.048C32.0864 27.6508 32.6836 27 33.9726 27H35.3724V27.689H33.9887C33.3816 27.6887 33.0749 27.9854 33.0405 28.6075M36.1189 27.0029H37V30.9566H36.1189V27.0029Z" fill="#0A0808"/>
<path d="M16.2681 36H17.0898L19.186 41.2163L21.2778 36H22.104L19.5024 42.3984H18.8608L16.2681 36ZM16 36H16.7251L16.8438 39.9023V42.3984H16V36ZM21.6426 36H22.3677V42.3984H21.5239V39.9023L21.6426 36Z" fill="black"/>
<path d="M26.3052 36.5669L24.187 42.3984H23.3213L25.7603 36H26.3184L26.3052 36.5669ZM28.0806 42.3984L25.958 36.5669L25.9448 36H26.5029L28.9507 42.3984H28.0806ZM27.9707 40.0298V40.7241H24.376V40.0298H27.9707Z" fill="black"/>
<path d="M33.8726 41.7085V42.3984H30.4844V41.7085H33.8726ZM30.6558 36V42.3984H29.8076V36H30.6558ZM33.4243 38.751V39.4409H30.4844V38.751H33.4243ZM33.8286 36V36.6943H30.4844V36H33.8286Z" fill="black"/>
</svg>
