<svg width="50" height="50" viewBox="0 0 50 50" fill="none" xmlns="http://www.w3.org/2000/svg">
<path d="M23.3534 20.9755C21.5556 17.1175 19.315 13.4823 16.675 10.1433C14.9147 11.8102 13.8172 14.7141 15.9419 16.5303C17.7719 18.3142 22.2033 20.5653 23.2338 21.0753C23.2664 21.0933 23.3073 21.0873 23.3328 21.0603M22.5539 22.5228V22.525L15.1761 22.7819C15.976 24.2088 17.3234 25.3162 18.7274 24.9772C19.696 24.7349 21.8913 23.2042 22.6139 22.6874L22.6131 22.6844C22.6683 22.6345 22.6484 22.5944 22.6484 22.5944M22.732 21.8227L22.7328 21.8197C19.4924 19.6308 13.2119 16.2749 13.2119 16.2749C12.5058 18.4582 13.6094 20.8154 15.7394 21.6704C16.1898 21.8494 16.6662 21.9543 17.1501 21.9809C17.2611 22.0015 21.5376 21.9832 22.6836 21.9779C22.7159 21.9742 22.7444 21.9554 22.7601 21.9265M23.2495 6.95654C22.9278 6.98429 22.0608 7.18154 22.0608 7.18154C20.0364 7.69831 19.126 9.85857 19.6555 11.7997C20.3069 14.6924 23.5161 19.447 24.2043 20.4442C24.2615 20.5015 24.3662 20.4752 24.3614 20.383H24.3629C25.4234 9.76942 23.2495 6.95654 23.2495 6.95654ZM25.798 20.4329C26.5105 19.4084 29.6961 14.6804 30.3445 11.8004C31.002 9.19536 29.3441 7.31924 26.7569 6.95729C26.7569 6.95729 24.5699 9.77204 25.6334 20.3924H25.6349C25.6357 20.4718 25.7609 20.5043 25.798 20.4329ZM27.4375 22.525C27.3556 22.536 27.3245 22.6228 27.3835 22.6818C28.0893 23.188 30.2328 24.6858 31.2618 24.976C31.2618 24.976 33.169 25.6248 34.8258 22.78L27.4383 22.5224L27.4375 22.525ZM36.79 16.2595C36.79 16.2595 30.5181 19.6244 27.2748 21.8125C27.2098 21.8548 27.2271 21.9757 27.3145 21.9757V21.9772L32.977 21.9622C35.7711 21.7433 37.6255 18.897 36.787 16.2595M26.779 21.067V21.0685C27.8358 20.5413 32.2341 18.3048 34.0555 16.5299C36.1534 14.7098 35.1195 11.7913 33.3235 10.138C30.6905 13.4677 28.4533 17.092 26.6568 20.938H26.659C26.64 20.9764 26.6483 21.0255 26.6789 21.0554" fill="#E12229"/>
<path d="M14.8432 30.9566H14V27.0029H14.8432V28.6049H16.7197V27.0029H17.563V30.9562H16.7197V29.3017H14.8432V30.9566ZM19.0922 29.3704C19.0922 30.0698 19.2987 30.361 19.996 30.361C20.6933 30.361 20.8909 30.0668 20.8909 29.3704V27.0026H21.7334V29.3925C21.7768 29.765 21.6939 30.1415 21.4994 30.454C21.169 30.8408 20.6895 31 19.9926 31C19.2956 31 18.81 30.8408 18.4809 30.454C18.2964 30.2415 18.251 29.8933 18.251 29.3925V27.0026H19.0884L19.0922 29.3704ZM24.49 27.0026L26.1971 30.9562H25.2634L24.8951 30.0142H23.1535L22.7966 30.9562H21.9007L23.5958 27.0026H24.49ZM23.4241 29.3101H24.6184L24.0102 27.7909L23.4241 29.3101ZM31.9061 27.0029L30.667 30.9562H29.6345L28.7844 28.0089L28.0375 30.9603H27.0101L25.6757 27.007H26.5809L27.5102 30.0462L28.2915 27.007H29.2851L30.1828 30.0462L31.0477 27.007L31.9061 27.0029ZM33.0436 28.6104H35.3761V29.2958H33.0357C33.0402 30.0062 33.3248 30.2643 33.9891 30.2643H35.3727V30.9529H33.9499C33.5079 30.9971 33.0653 30.8746 32.6998 30.6062C32.486 30.4199 32.3184 30.1804 32.2114 29.9087C32.1045 29.637 32.0616 29.3415 32.0864 29.048C32.0864 27.6508 32.6836 27 33.9726 27H35.3724V27.689H33.9887C33.3816 27.6887 33.0749 27.9854 33.0405 28.6075M36.1189 27.0029H37V30.9566H36.1189V27.0029Z" fill="#0A0808"/>
<path d="M24.8789 37.3488V34.5H23.9756V42H24.8789V38.2297C24.9362 38.1158 25.0029 38.0103 25.0791 37.9131C25.2126 37.7471 25.3704 37.6169 25.5527 37.5225C25.7383 37.4281 25.9434 37.3809 26.168 37.3809C26.3958 37.3809 26.5879 37.4199 26.7441 37.498C26.9004 37.5729 27.0192 37.695 27.1006 37.8643C27.182 38.0303 27.2227 38.2516 27.2227 38.5283V42H28.1309V38.5381C28.1309 38.1898 28.0918 37.8952 28.0137 37.6543C27.9355 37.4102 27.8216 37.2116 27.6719 37.0586C27.5254 36.9056 27.348 36.7949 27.1396 36.7266C26.9313 36.6549 26.6969 36.6191 26.4365 36.6191C26.1175 36.6191 25.8262 36.6826 25.5625 36.8096C25.3021 36.9333 25.0775 37.109 24.8887 37.3369L24.8789 37.3488Z" fill="#1C1D1F"/>
<path d="M39.7959 42V41.2578H36.2314L38.1357 39.1924C38.318 38.9938 38.4889 38.792 38.6484 38.5869C38.8112 38.3818 38.9528 38.1735 39.0732 37.9619C39.1969 37.7503 39.293 37.5387 39.3613 37.3271C39.4329 37.1123 39.4688 36.9007 39.4688 36.6924C39.4688 36.3115 39.3825 35.9795 39.21 35.6963C39.0407 35.4098 38.7966 35.1885 38.4775 35.0322C38.1585 34.8727 37.7744 34.793 37.3252 34.793C36.8206 34.793 36.3958 34.8923 36.0508 35.0908C35.7057 35.2861 35.4453 35.5498 35.2695 35.8818C35.0938 36.2139 35.0059 36.5801 35.0059 36.9805H35.9092C35.9092 36.6973 35.9613 36.4466 36.0654 36.2285C36.1696 36.0104 36.3258 35.8411 36.5342 35.7207C36.7458 35.597 37.0094 35.5352 37.3252 35.5352C37.5889 35.5352 37.8135 35.5921 37.999 35.7061C38.1846 35.82 38.3245 35.973 38.4189 36.165C38.5166 36.3538 38.5654 36.5654 38.5654 36.7998C38.5654 36.9854 38.5329 37.1676 38.4678 37.3467C38.4059 37.5225 38.2952 37.7227 38.1357 37.9473C37.9795 38.1686 37.7581 38.4388 37.4717 38.7578L35.1426 41.3506V42H39.7959Z" fill="#1C1D1F"/>
<path d="M43.7314 42V34.8516H43.5898L41.0068 35.8281V36.6436L42.8281 35.9795V42H43.7314Z" fill="#1C1D1F"/>
<path d="M31.6953 36.7168V37.4102H30.709V40.6914C30.709 40.8704 30.7367 41.0055 30.792 41.0967C30.8473 41.1878 30.9189 41.248 31.0068 41.2773C31.0947 41.3066 31.1891 41.3213 31.29 41.3213C31.3649 41.3213 31.443 41.3148 31.5244 41.3018C31.609 41.2855 31.6725 41.2725 31.7148 41.2627L31.7197 42C31.6481 42.0228 31.5537 42.0439 31.4365 42.0635C31.3226 42.0863 31.1842 42.0977 31.0215 42.0977C30.8001 42.0977 30.5967 42.0537 30.4111 41.9658C30.2256 41.8779 30.0775 41.7314 29.9668 41.5264C29.8594 41.318 29.8057 41.0381 29.8057 40.6865V37.4102H28.8389V36.7168H29.8057V35.4326H30.709V36.7168H31.6953Z" fill="#1C1D1F"/>
<path fill-rule="evenodd" clip-rule="evenodd" d="M21.7832 36.7168H22.6035V41.8877C22.6035 42.3532 22.5091 42.7503 22.3203 43.0791C22.1315 43.4079 21.8678 43.6569 21.5293 43.8262C21.194 43.9987 20.8066 44.085 20.3672 44.085C20.1849 44.085 19.9701 44.0557 19.7227 43.9971C19.4785 43.9417 19.2376 43.8457 19 43.709C18.7656 43.5755 18.5687 43.3949 18.4092 43.167L18.8828 42.6299C19.1042 42.8968 19.3353 43.0824 19.5762 43.1865C19.8203 43.2907 20.0612 43.3428 20.2988 43.3428C20.5853 43.3428 20.8327 43.2891 21.041 43.1816C21.2493 43.0742 21.4105 42.9147 21.5244 42.7031C21.6416 42.4948 21.7002 42.2376 21.7002 41.9316V41.4658C21.5341 41.6635 21.3339 41.8172 21.0996 41.9268C20.849 42.0407 20.556 42.0977 20.2207 42.0977C19.9049 42.0977 19.6185 42.0309 19.3613 41.8975C19.1074 41.764 18.8893 41.5768 18.707 41.3359C18.5247 41.0951 18.3848 40.8118 18.2871 40.4863C18.1927 40.1576 18.1455 39.8011 18.1455 39.417V39.3145C18.1455 38.9108 18.1927 38.5446 18.2871 38.2158C18.3848 37.8838 18.5231 37.599 18.7021 37.3613C18.8844 37.1237 19.1042 36.9414 19.3613 36.8145C19.6185 36.6842 19.9082 36.6191 20.2305 36.6191C20.5625 36.6191 20.8522 36.6777 21.0996 36.7949C21.3503 36.9089 21.5618 37.0765 21.7344 37.2979L21.7411 37.3062L21.7832 36.7168ZM21.7002 40.5374V38.1496C21.6371 38.0267 21.5606 37.9153 21.4707 37.8154C21.3568 37.682 21.2152 37.5762 21.0459 37.498C20.8766 37.4199 20.6781 37.3809 20.4502 37.3809C20.2028 37.3809 19.9896 37.4329 19.8105 37.5371C19.6348 37.638 19.4899 37.778 19.376 37.957C19.2653 38.1328 19.1823 38.3379 19.127 38.5723C19.0749 38.8034 19.0488 39.0508 19.0488 39.3145V39.417C19.0488 39.6807 19.0749 39.9281 19.127 40.1592C19.1823 40.3903 19.2653 40.5938 19.376 40.7695C19.4899 40.9453 19.6348 41.0837 19.8105 41.1846C19.9863 41.2822 20.1963 41.3311 20.4404 41.3311C20.7399 41.3311 20.9873 41.2676 21.1826 41.1406C21.3779 41.0137 21.5326 40.846 21.6465 40.6377C21.665 40.6047 21.6829 40.5713 21.7002 40.5374Z" fill="#1C1D1F"/>
<path d="M16.9102 42V36.7168H16.002V42H16.9102Z" fill="#1C1D1F"/>
<path d="M16.0654 34.9443C15.9775 35.0452 15.9336 35.1689 15.9336 35.3154C15.9336 35.4554 15.9775 35.5758 16.0654 35.6768C16.1566 35.7744 16.29 35.8232 16.4658 35.8232C16.6383 35.8232 16.7702 35.7744 16.8613 35.6768C16.9557 35.5758 17.0029 35.4554 17.0029 35.3154C17.0029 35.1689 16.9557 35.0452 16.8613 34.9443C16.7702 34.8434 16.6383 34.793 16.4658 34.793C16.29 34.793 16.1566 34.8434 16.0654 34.9443Z" fill="#1C1D1F"/>
<path d="M13.917 40.2031C13.917 40.0371 13.891 39.8906 13.8389 39.7637C13.79 39.6335 13.7021 39.5163 13.5752 39.4121C13.4515 39.3079 13.279 39.2087 13.0576 39.1143C12.8395 39.0199 12.5628 38.9238 12.2275 38.8262C11.876 38.722 11.5586 38.6064 11.2754 38.4795C10.9922 38.3493 10.7497 38.2012 10.5479 38.0352C10.346 37.8691 10.1914 37.6787 10.084 37.4639C9.97656 37.249 9.92285 37.0033 9.92285 36.7266C9.92285 36.4499 9.97982 36.1943 10.0938 35.96C10.2077 35.7256 10.3704 35.5221 10.582 35.3496C10.7969 35.1738 11.0524 35.0371 11.3486 34.9395C11.6449 34.8418 11.9753 34.793 12.3398 34.793C12.8737 34.793 13.3262 34.8955 13.6973 35.1006C14.0716 35.3024 14.3564 35.5677 14.5518 35.8965C14.7471 36.222 14.8447 36.5703 14.8447 36.9414H13.9072C13.9072 36.6745 13.8503 36.4385 13.7363 36.2334C13.6224 36.0251 13.4499 35.8623 13.2188 35.7451C12.9876 35.6247 12.6947 35.5645 12.3398 35.5645C12.0046 35.5645 11.7279 35.6149 11.5098 35.7158C11.2917 35.8167 11.1289 35.9535 11.0215 36.126C10.9173 36.2985 10.8652 36.4954 10.8652 36.7168C10.8652 36.8665 10.8962 37.0033 10.958 37.127C11.0231 37.2474 11.1224 37.3597 11.2559 37.4639C11.3926 37.568 11.5651 37.6641 11.7734 37.752C11.985 37.8398 12.2373 37.9245 12.5303 38.0059C12.9339 38.1198 13.2822 38.2467 13.5752 38.3867C13.8682 38.5267 14.109 38.6846 14.2979 38.8604C14.4899 39.0329 14.6315 39.2298 14.7227 39.4512C14.8171 39.6693 14.8643 39.9167 14.8643 40.1934C14.8643 40.4831 14.8057 40.7451 14.6885 40.9795C14.5713 41.2139 14.4036 41.4141 14.1855 41.5801C13.9674 41.7461 13.7054 41.8747 13.3994 41.9658C13.0967 42.0537 12.7581 42.0977 12.3838 42.0977C12.055 42.0977 11.7311 42.0521 11.4121 41.9609C11.0964 41.8698 10.8083 41.7331 10.5479 41.5508C10.2907 41.3685 10.084 41.1439 9.92773 40.877C9.77474 40.6068 9.69824 40.2943 9.69824 39.9395H10.6357C10.6357 40.1836 10.6829 40.3936 10.7773 40.5693C10.8717 40.7419 11.0003 40.8851 11.1631 40.999C11.3291 41.113 11.5163 41.1976 11.7246 41.2529C11.9362 41.305 12.1559 41.3311 12.3838 41.3311C12.7126 41.3311 12.9909 41.2855 13.2188 41.1943C13.4466 41.1032 13.6191 40.973 13.7363 40.8037C13.8568 40.6344 13.917 40.4342 13.917 40.2031Z" fill="#1C1D1F"/>
<path fill-rule="evenodd" clip-rule="evenodd" d="M5.87988 41.9121C6.17936 42.0358 6.51302 42.0977 6.88086 42.0977C7.22917 42.0977 7.53027 42.0488 7.78418 41.9512C8.04134 41.8535 8.25781 41.7266 8.43359 41.5703C8.60938 41.4141 8.75423 41.2497 8.86816 41.0771L8.32129 40.6426C8.15527 40.8607 7.96159 41.0348 7.74023 41.165C7.51888 41.2952 7.2487 41.3604 6.92969 41.3604C6.68229 41.3604 6.46094 41.3132 6.26562 41.2188C6.07357 41.1243 5.90918 40.9941 5.77246 40.8281C5.639 40.6621 5.53646 40.4701 5.46484 40.252C5.40273 40.0508 5.36884 39.8376 5.36316 39.6123H8.93652V39.207C8.93652 38.8359 8.89421 38.4941 8.80957 38.1816C8.72494 37.8659 8.59473 37.5924 8.41895 37.3613C8.24316 37.127 8.01693 36.9447 7.74023 36.8145C7.4668 36.6842 7.14128 36.6191 6.76367 36.6191C6.46745 36.6191 6.18099 36.6794 5.9043 36.7998C5.6276 36.9202 5.38021 37.0977 5.16211 37.332C4.94401 37.5664 4.77148 37.8529 4.64453 38.1914C4.51758 38.5267 4.4541 38.9092 4.4541 39.3389V39.5439C4.4541 39.915 4.51107 40.2568 4.625 40.5693C4.73893 40.8818 4.90169 41.152 5.11328 41.3799C5.32812 41.6077 5.58366 41.7852 5.87988 41.9121ZM5.3896 38.875C5.40667 38.7393 5.43175 38.6123 5.46484 38.4941C5.5332 38.25 5.62923 38.0433 5.75293 37.874C5.87663 37.7048 6.02474 37.5778 6.19727 37.4932C6.36979 37.4053 6.55859 37.3613 6.76367 37.3613C7.07292 37.3613 7.31706 37.4329 7.49609 37.5762C7.67513 37.7194 7.80534 37.9017 7.88672 38.123C7.97135 38.3444 8.02018 38.5723 8.0332 38.8066V38.875H5.3896Z" fill="#1C1D1F"/>
</svg>
