<svg width="50" height="50" viewBox="0 0 50 50" fill="none" xmlns="http://www.w3.org/2000/svg">
<rect width="50" height="50" fill="#E12229"/>
<path d="M23.3544 22.019C21.5566 18.161 19.316 14.5258 16.676 11.1868C14.9157 12.8537 13.8181 15.7576 15.9429 17.5738C17.7729 19.3576 22.2042 21.6088 23.2347 22.1188C23.2674 22.1368 23.3082 22.1308 23.3337 22.1038M22.5549 23.5663V23.5685L15.1771 23.8254C15.977 25.2523 17.3244 26.3596 18.7284 26.0206C19.697 25.7784 21.8922 24.2476 22.6149 23.7309L22.6141 23.7279C22.6692 23.678 22.6494 23.6379 22.6494 23.6379M22.733 22.8661L22.7337 22.8631C19.4934 20.6743 13.2129 17.3184 13.2129 17.3184C12.5067 19.5016 13.6104 21.8589 15.7404 22.7139C16.1908 22.8929 16.6672 22.9977 17.1511 23.0244C17.2621 23.045 21.5386 23.0266 22.6846 23.0214C22.7169 23.0176 22.7454 22.9989 22.7611 22.97M23.2505 8C22.9287 8.02775 22.0617 8.225 22.0617 8.225C20.0374 8.74177 19.127 10.902 19.6565 12.8431C20.3079 15.7359 23.5171 20.4905 24.2052 21.4876C24.2625 21.5449 24.3672 21.5186 24.3624 21.4265H24.3639C25.4244 10.8129 23.2505 8 23.2505 8ZM25.799 21.4764C26.5115 20.4519 29.6971 15.7239 30.3455 12.8439C31.003 10.2388 29.3451 8.3627 26.7579 8.00075C26.7579 8.00075 24.5709 10.8155 25.6344 21.4359H25.6359C25.6367 21.5152 25.7619 21.5478 25.799 21.4764ZM27.4385 23.5685C27.3566 23.5794 27.3255 23.6663 27.3845 23.7253C28.0902 24.2315 30.2337 25.7293 31.2627 26.0195C31.2627 26.0195 33.17 26.6683 34.8267 23.8235L27.4392 23.5659L27.4385 23.5685ZM36.791 17.303C36.791 17.303 30.5191 20.6679 27.2757 22.856C27.2108 22.8982 27.2281 23.0191 27.3155 23.0191V23.0206L32.978 23.0056C35.7721 22.7867 37.6264 19.9405 36.788 17.303M26.78 22.1105V22.112C27.8367 21.5848 32.2351 19.3483 34.0565 17.5734C36.1544 15.7532 35.1205 12.8347 33.3245 11.1815C30.6915 14.5112 28.4542 18.1355 26.6577 21.9815H26.66C26.641 22.0198 26.6493 22.069 26.6799 22.0989" fill="white"/>
<path d="M14.8432 31.9566H14V28.0029H14.8432V29.6049H16.7197V28.0029H17.563V31.9562H16.7197V30.3017H14.8432V31.9566ZM19.0922 30.3704C19.0922 31.0698 19.2987 31.361 19.996 31.361C20.6933 31.361 20.8909 31.0668 20.8909 30.3704V28.0026H21.7334V30.3925C21.7768 30.765 21.6939 31.1415 21.4994 31.454C21.169 31.8408 20.6895 32 19.9926 32C19.2956 32 18.81 31.8408 18.4809 31.454C18.2964 31.2415 18.251 30.8933 18.251 30.3925V28.0026H19.0884L19.0922 30.3704ZM24.49 28.0026L26.1971 31.9562H25.2634L24.8951 31.0142H23.1535L22.7966 31.9562H21.9007L23.5958 28.0026H24.49ZM23.4241 30.3101H24.6184L24.0102 28.7909L23.4241 30.3101ZM31.9061 28.0029L30.667 31.9562H29.6345L28.7844 29.0089L28.0375 31.9603H27.0101L25.6757 28.007H26.5809L27.5102 31.0462L28.2915 28.007H29.2851L30.1828 31.0462L31.0477 28.007L31.9061 28.0029ZM33.0436 29.6104H35.3761V30.2958H33.0357C33.0402 31.0062 33.3248 31.2643 33.9891 31.2643H35.3727V31.9529H33.9499C33.5079 31.9971 33.0653 31.8746 32.6998 31.6062C32.486 31.4199 32.3184 31.1804 32.2114 30.9087C32.1045 30.637 32.0616 30.3415 32.0864 30.048C32.0864 28.6508 32.6836 28 33.9726 28H35.3724V28.689H33.9887C33.3816 28.6887 33.0749 28.9854 33.0405 29.6075M36.1189 28.0029H37V31.9566H36.1189V28.0029Z" fill="#0A0808"/>
<path d="M25.7205 37.3777V35H24.8926V41.2598H25.7205V38.1129C25.773 38.0179 25.8342 37.9298 25.904 37.8487C26.0264 37.7101 26.1711 37.6015 26.3381 37.5227C26.5082 37.4439 26.6962 37.4045 26.902 37.4045C27.1109 37.4045 27.2869 37.4371 27.4301 37.5023C27.5733 37.5648 27.6822 37.6667 27.7568 37.8079C27.8314 37.9465 27.8687 38.1313 27.8687 38.3622V41.2598H28.7011V38.3704C28.7011 38.0796 28.6653 37.8338 28.5937 37.6327C28.5221 37.4289 28.4177 37.2632 28.2805 37.1355C28.1462 37.0078 27.9836 36.9154 27.7926 36.8584C27.6017 36.7986 27.3869 36.7687 27.1482 36.7687C26.8558 36.7687 26.5888 36.8217 26.3471 36.9277C26.1084 37.0309 25.9025 37.1776 25.7295 37.3678L25.7205 37.3777Z" fill="white"/>
<path d="M39.3928 41.2598V40.6403H36.1258L37.8712 38.9165C38.0383 38.7507 38.1949 38.5823 38.3411 38.4111C38.4903 38.2399 38.6201 38.0661 38.7305 37.8895C38.8439 37.7129 38.9319 37.5363 38.9945 37.3597C39.0602 37.1803 39.093 37.0037 39.093 36.8299C39.093 36.512 39.0139 36.2348 38.8558 35.9985C38.7006 35.7594 38.4769 35.5746 38.1845 35.4442C37.8921 35.3111 37.54 35.2445 37.1283 35.2445C36.6658 35.2445 36.2765 35.3274 35.9602 35.4931C35.644 35.6561 35.4053 35.8762 35.2442 36.1533C35.083 36.4305 35.0025 36.7361 35.0025 37.0703H35.8304C35.8304 36.8339 35.8782 36.6247 35.9736 36.4427C36.0691 36.2607 36.2123 36.1194 36.4033 36.0188C36.5972 35.9156 36.8389 35.864 37.1283 35.864C37.37 35.864 37.5758 35.9115 37.7459 36.0066C37.916 36.1017 38.0443 36.2294 38.1308 36.3897C38.2203 36.5473 38.265 36.7239 38.265 36.9195C38.265 37.0744 38.2352 37.2265 38.1755 37.376C38.1188 37.5227 38.0174 37.6898 37.8712 37.8772C37.728 38.062 37.5251 38.2875 37.2626 38.5537L35.1278 40.7178V41.2598H39.3928Z" fill="white"/>
<path d="M43 41.2598V35.2934H42.8702L40.5027 36.1085V36.7891L42.1721 36.2348V41.2598H43Z" fill="white"/>
<path d="M31.9682 36.8502V37.4289H31.0641V40.1676C31.0641 40.317 31.0895 40.4298 31.1402 40.5059C31.1909 40.5819 31.2566 40.6322 31.3371 40.6566C31.4177 40.6811 31.5042 40.6933 31.5967 40.6933C31.6653 40.6933 31.7369 40.6879 31.8115 40.677C31.8891 40.6634 31.9473 40.6526 31.9861 40.6444L31.9906 41.2598C31.9249 41.2788 31.8384 41.2965 31.731 41.3128C31.6266 41.3318 31.4998 41.3413 31.3506 41.3413C31.1477 41.3413 30.9612 41.3046 30.7911 41.2313C30.6211 41.1579 30.4853 41.0357 30.3839 40.8645C30.2854 40.6906 30.2362 40.457 30.2362 40.1635V37.4289H29.3501V36.8502H30.2362V35.7784H31.0641V36.8502H31.9682Z" fill="white"/>
<path fill-rule="evenodd" clip-rule="evenodd" d="M22.8831 36.8502H23.635V41.1661C23.635 41.5546 23.5485 41.8861 23.3754 42.1605C23.2024 42.4349 22.9607 42.6427 22.6504 42.784C22.3431 42.928 21.9881 43 21.5853 43C21.4182 43 21.2213 42.9755 20.9945 42.9266C20.7708 42.8805 20.55 42.8003 20.3322 42.6862C20.1174 42.5748 19.9368 42.424 19.7907 42.2338L20.2248 41.7855C20.4276 42.0083 20.6395 42.1632 20.8603 42.2501C21.084 42.3371 21.3048 42.3805 21.5226 42.3805C21.7852 42.3805 22.0119 42.3357 22.2029 42.2461C22.3938 42.1564 22.5415 42.0233 22.6459 41.8467C22.7534 41.6728 22.8071 41.4581 22.8071 41.2028V40.8139C22.6549 40.979 22.4714 41.1072 22.2566 41.1987C22.0269 41.2938 21.7583 41.3413 21.451 41.3413C21.1616 41.3413 20.8991 41.2856 20.6634 41.1742C20.4306 41.0628 20.2307 40.9066 20.0637 40.7056C19.8966 40.5045 19.7683 40.2681 19.6788 39.9964C19.5922 39.722 19.549 39.4245 19.549 39.1039V39.0183C19.549 38.6814 19.5922 38.3758 19.6788 38.1014C19.7683 37.8242 19.8951 37.5865 20.0592 37.3882C20.2263 37.1898 20.4276 37.0377 20.6634 36.9317C20.8991 36.8231 21.1646 36.7687 21.46 36.7687C21.7643 36.7687 22.0298 36.8176 22.2566 36.9154C22.4863 37.0105 22.6803 37.1504 22.8384 37.3352L22.8446 37.3422L22.8831 36.8502ZM22.8071 40.039V38.0461C22.7492 37.9436 22.6791 37.8506 22.5967 37.7672C22.4923 37.6558 22.3625 37.5675 22.2074 37.5023C22.0522 37.4371 21.8702 37.4045 21.6614 37.4045C21.4346 37.4045 21.2392 37.448 21.0751 37.5349C20.914 37.6191 20.7812 37.7359 20.6768 37.8854C20.5753 38.0321 20.4993 38.2033 20.4485 38.3989C20.4008 38.5918 20.3769 38.7983 20.3769 39.0183V39.1039C20.3769 39.324 20.4008 39.5305 20.4485 39.7234C20.4993 39.9163 20.5753 40.0861 20.6768 40.2328C20.7812 40.3795 20.914 40.495 21.0751 40.5792C21.2362 40.6607 21.4286 40.7015 21.6524 40.7015C21.9269 40.7015 22.1537 40.6485 22.3327 40.5425C22.5117 40.4366 22.6534 40.2967 22.7578 40.1228C22.7748 40.0952 22.7913 40.0673 22.8071 40.039Z" fill="white"/>
<path d="M18.4167 41.2598V36.8502H17.5843V41.2598H18.4167Z" fill="white"/>
<path d="M17.6425 35.3709C17.5619 35.4551 17.5216 35.5583 17.5216 35.6806C17.5216 35.7974 17.5619 35.8979 17.6425 35.9822C17.726 36.0637 17.8483 36.1044 18.0094 36.1044C18.1676 36.1044 18.2884 36.0637 18.372 35.9822C18.4585 35.8979 18.5017 35.7974 18.5017 35.6806C18.5017 35.5583 18.4585 35.4551 18.372 35.3709C18.2884 35.2866 18.1676 35.2445 18.0094 35.2445C17.8483 35.2445 17.726 35.2866 17.6425 35.3709Z" fill="white"/>
<path d="M15.6733 39.7601C15.6733 39.6215 15.6494 39.4992 15.6017 39.3933C15.5569 39.2846 15.4764 39.1868 15.36 39.0998C15.2466 39.0129 15.0885 38.93 14.8856 38.8512C14.6857 38.7725 14.4321 38.6923 14.1248 38.6108C13.8026 38.5239 13.5117 38.4274 13.2521 38.3214C12.9925 38.2128 12.7703 38.0891 12.5853 37.9506C12.4003 37.812 12.2586 37.6531 12.1601 37.4738C12.0617 37.2944 12.0124 37.0893 12.0124 36.8584C12.0124 36.6274 12.0646 36.4142 12.1691 36.2185C12.2735 36.0229 12.4227 35.8531 12.6166 35.7091C12.8135 35.5624 13.0477 35.4483 13.3192 35.3668C13.5908 35.2853 13.8936 35.2445 14.2277 35.2445C14.7171 35.2445 15.1318 35.3301 15.4719 35.5013C15.815 35.6697 16.0761 35.8912 16.2551 36.1656C16.4341 36.4373 16.5236 36.728 16.5236 37.0377H15.6643C15.6643 36.8149 15.6121 36.6179 15.5077 36.4468C15.4033 36.2729 15.2452 36.137 15.0333 36.0392C14.8215 35.9387 14.553 35.8884 14.2277 35.8884C13.9204 35.8884 13.6668 35.9305 13.4669 36.0148C13.267 36.099 13.1179 36.2131 13.0194 36.3571C12.9239 36.5011 12.8762 36.6655 12.8762 36.8502C12.8762 36.9752 12.9045 37.0893 12.9612 37.1926C13.0209 37.2931 13.1119 37.3868 13.2342 37.4738C13.3595 37.5607 13.5177 37.6409 13.7086 37.7142C13.9025 37.7876 14.1338 37.8582 14.4023 37.9261C14.7723 38.0212 15.0915 38.1272 15.36 38.244C15.6285 38.3608 15.8493 38.4926 16.0224 38.6393C16.1984 38.7833 16.3282 38.9477 16.4117 39.1325C16.4983 39.3145 16.5415 39.521 16.5415 39.7519C16.5415 39.9937 16.4878 40.2124 16.3804 40.408C16.273 40.6037 16.1193 40.7708 15.9194 40.9093C15.7195 41.0479 15.4794 41.1552 15.1989 41.2313C14.9214 41.3046 14.6111 41.3413 14.268 41.3413C13.9667 41.3413 13.6698 41.3033 13.3774 41.2272C13.088 41.1511 12.824 41.037 12.5853 40.8849C12.3496 40.7327 12.1601 40.5453 12.0169 40.3225C11.8767 40.097 11.8066 39.8361 11.8066 39.54H12.6658C12.6658 39.7438 12.7091 39.919 12.7956 40.0657C12.8821 40.2097 13 40.3293 13.1492 40.4244C13.3013 40.5194 13.4729 40.5901 13.6638 40.6363C13.8578 40.6797 14.0592 40.7015 14.268 40.7015C14.5694 40.7015 14.8245 40.6634 15.0333 40.5874C15.2422 40.5113 15.4003 40.4026 15.5077 40.2613C15.6181 40.1201 15.6733 39.953 15.6733 39.7601Z" fill="white"/>
<path fill-rule="evenodd" clip-rule="evenodd" d="M8.30681 41.1864C8.5813 41.2897 8.88712 41.3413 9.22427 41.3413C9.54351 41.3413 9.81949 41.3006 10.0522 41.2191C10.2879 41.1375 10.4863 41.0316 10.6474 40.9012C10.8086 40.7708 10.9413 40.6336 11.0457 40.4896L10.5445 40.1268C10.3923 40.3089 10.2148 40.4542 10.0119 40.5629C9.80905 40.6716 9.56141 40.7259 9.26902 40.7259C9.04227 40.7259 8.83938 40.6865 8.66037 40.6077C8.48434 40.529 8.33366 40.4203 8.20835 40.2817C8.08603 40.1431 7.99204 39.9828 7.9264 39.8008C7.86948 39.6329 7.83841 39.455 7.83321 39.2669H11.1084V38.9287C11.1084 38.619 11.0696 38.3337 10.992 38.0728C10.9145 37.8093 10.7951 37.5811 10.634 37.3882C10.4729 37.1926 10.2655 37.0404 10.0119 36.9317C9.76131 36.8231 9.46295 36.7687 9.11686 36.7687C8.84535 36.7687 8.58279 36.819 8.32919 36.9195C8.07558 37.02 7.84883 37.1681 7.64893 37.3637C7.44903 37.5593 7.2909 37.7984 7.17454 38.081C7.05818 38.3608 7 38.6801 7 39.0387V39.2099C7 39.5196 7.05221 39.8049 7.15664 40.0657C7.26106 40.3265 7.41024 40.552 7.60418 40.7422C7.80109 40.9324 8.03531 41.0805 8.30681 41.1864ZM7.85744 38.6516C7.87309 38.5383 7.89608 38.4323 7.9264 38.3337C7.98906 38.1299 8.07708 37.9574 8.19045 37.8161C8.30383 37.6748 8.43958 37.5689 8.59771 37.4982C8.75584 37.4249 8.92889 37.3882 9.11686 37.3882C9.4003 37.3882 9.62407 37.448 9.78817 37.5675C9.95226 37.687 10.0716 37.8392 10.1462 38.0239C10.2238 38.2087 10.2685 38.3989 10.2805 38.5945V38.6516H7.85744Z" fill="white"/>
</svg>
