<svg width="50" height="50" viewBox="0 0 50 50" fill="none" xmlns="http://www.w3.org/2000/svg">
<path d="M23.2359 26.3413C20.764 21.0366 17.6831 16.0381 14.0531 11.447C11.6327 13.739 10.1236 17.7318 13.0451 20.2291C15.5613 22.6819 21.6545 25.7772 23.0714 26.4785C23.1163 26.5032 23.1725 26.495 23.2075 26.4578M22.1366 28.4688V28.4719L11.9922 28.8251C13.092 30.787 14.9446 32.3097 16.8751 31.8435C18.207 31.5105 21.2255 29.4057 22.2191 28.6951L22.2181 28.691C22.2938 28.6224 22.2665 28.5673 22.2665 28.5673M22.3815 27.5061L22.3825 27.502C17.927 24.4923 9.29133 19.878 9.29133 19.878C8.08641 23.6034 10.871 27.5124 14.7064 27.7237C14.8591 27.7521 20.7392 27.7268 22.315 27.7196C22.3593 27.7144 22.3985 27.6886 22.4202 27.6489M23.0931 7.06519C19.5394 7.37168 17.2015 10.2425 18.1513 13.7245C19.047 17.702 23.4597 24.2396 24.4058 25.6107C24.4729 25.6777 24.5281 25.653 24.5281 25.653C24.5858 25.639 24.625 25.5859 24.6219 25.5266H24.624C26.0821 10.9329 23.0931 7.06519 23.0931 7.06519ZM26.5973 25.5952H26.5983C27.578 24.1865 31.9572 17.6855 32.8487 13.7255C33.7528 10.1436 31.4731 7.56389 27.9157 7.06622C27.9157 7.06622 24.9086 10.9365 26.3709 25.5395H26.373C26.3742 25.6581 26.5413 25.703 26.5973 25.5952ZM28.8516 28.4719C28.739 28.4869 28.6962 28.6063 28.7773 28.6874H28.7763C29.7467 29.3835 32.695 31.4429 34.1099 31.842C34.1099 31.842 36.7324 32.734 39.0104 28.8225L28.8526 28.4683L28.8516 28.4719ZM41.7113 19.8568C41.7113 19.8568 33.0874 24.4835 28.6278 27.4922H28.6288C28.5396 27.5502 28.5613 27.7165 28.6824 27.7165V27.7185L36.4684 27.6979C40.233 27.403 42.8641 23.4964 41.7071 19.8568M27.9461 26.4671V26.4692C29.3992 25.7442 35.4469 22.669 37.9513 20.2286C40.8359 17.7259 39.4144 13.7129 36.9448 11.4397C33.3244 16.018 30.2482 21.0015 27.778 26.2897H27.7811C27.755 26.3424 27.7664 26.41 27.8085 26.4511" fill="#E12229"/>
<path d="M10.1732 40.9458H9V36.0037H10.1732V38.0062H12.784V36.0037H13.9572V40.9453H12.784V38.8771H10.1732V40.9458ZM16.0848 38.963C16.0848 39.8372 16.3721 40.2012 17.3423 40.2012C18.3124 40.2012 18.5873 39.8335 18.5873 38.963V36.0032H19.7596V38.9906C19.8199 39.4562 19.7045 39.9268 19.4339 40.3175C18.9742 40.801 18.3072 41 17.3375 41C16.3678 41 15.6921 40.801 15.2343 40.3175C14.9776 40.0518 14.9144 39.6166 14.9144 38.9906V36.0032H16.0795L16.0848 38.963ZM23.5948 36.0032L25.9699 40.9453H24.6708L24.1584 39.7678H21.7354L21.2388 40.9453H19.9923L22.3507 36.0032H23.5948ZM22.1117 38.8877H23.7734L22.9272 36.9886L22.1117 38.8877ZM33.9128 36.0037L32.1889 40.9453H30.7523L29.5695 37.2611L28.5304 40.9504H27.101L25.2445 36.0087H26.5039L27.7968 39.8078L28.8838 36.0087H30.2663L31.5152 39.8078L32.7185 36.0087L33.9128 36.0037ZM35.4955 38.0131H38.7407V38.8697H35.4845C35.4907 39.7577 35.8867 40.0803 36.8109 40.0803H38.7359V40.9412H36.7563C36.1415 40.9963 35.5256 40.8433 35.0171 40.5078C34.7197 40.2749 34.4864 39.9755 34.3376 39.6359C34.1889 39.2963 34.1292 38.9269 34.1638 38.56C34.1638 36.8135 34.9946 36 36.7879 36H38.7355V36.8613H36.8104C35.9657 36.8608 35.5391 37.2317 35.4912 38.0094M39.7741 36.0037H41V40.9458H39.7741V36.0037Z" fill="#0A0808"/>
</svg>
