<svg width="50" height="50" viewBox="0 0 50 50" fill="none" xmlns="http://www.w3.org/2000/svg">
<path d="M33.2024 20.8657V16.936C34.2971 16.4244 34.9472 15.3142 34.9472 14.1183C34.9472 12.3982 33.5127 11.0921 31.8309 11.0921C30.1108 11.0921 28.8047 12.5267 28.8047 14.2084C28.81 15.3666 29.5003 16.4456 30.5495 16.936V20.8657C29.057 21.0943 27.6514 21.7131 26.4749 22.6597L15.6975 14.2652C16.3608 11.8708 14.1197 9.59723 11.7501 10.0644C9.66894 10.4747 8.45791 12.7708 9.25768 14.7096C10.0279 16.5767 12.3515 17.3693 14.0842 16.3621L24.6968 24.6204C22.7457 27.5679 22.7979 31.4092 24.8283 34.3028L21.6005 37.5315C19.8568 36.9746 17.9955 38.3578 17.996 40.2009C17.9964 41.7466 19.2495 42.9996 20.7952 43C22.637 43.0005 24.0232 41.139 23.4645 39.3957L26.6577 36.2013C29.5108 38.3977 33.4295 38.587 36.4811 36.6757C39.5326 34.7642 41.0726 31.1558 40.3414 27.6302C39.6102 24.1044 36.7624 21.4062 33.2024 20.8657ZM31.8788 33.7901C29.4319 33.856 27.3423 31.7968 27.3423 29.3741C27.3423 26.9263 29.457 24.8928 31.8788 24.958C34.2561 25.0412 36.1407 26.992 36.142 29.3709C36.1431 31.7495 34.2605 33.7022 31.8832 33.7879" fill="#F8761F"/>
</svg>
