<svg width="50" height="50" viewBox="0 0 50 50" fill="none" xmlns="http://www.w3.org/2000/svg">
<rect width="50" height="50" fill="#43128D"/>
<path d="M25.7837 10C26.2124 10.0771 26.6478 10.1289 27.0694 10.2354C29.4963 10.8488 31.1197 12.2947 31.6511 14.8096C31.9817 16.3753 31.6435 17.8654 31.0065 19.2996C30.5863 20.2463 30.15 21.1859 29.7258 22.1311C29.6459 22.3087 29.564 22.4289 29.3314 22.4279C27.2246 22.4188 25.1178 22.4218 23.0116 22.4203C22.9529 22.4203 22.8943 22.4031 22.7926 22.3873C23.1096 21.707 23.416 21.0479 23.7234 20.3889C24.0945 19.5934 24.4727 18.8014 24.8307 18.0003C24.8767 17.8968 24.8711 17.6954 24.8024 17.6254C23.321 16.1226 21.8275 14.6326 20.335 13.1405C20.3193 13.1247 20.291 13.1217 20.2374 13.1009C17.306 19.3676 14.374 25.6364 11.4012 31.9919C10.9244 31.5013 10.4537 31.0675 10.0416 30.5835C8.31757 28.5571 7.31195 26.2188 7.07179 23.5568C7.06118 23.437 7.02427 23.3198 7 23.2011C7 22.6877 7 22.1742 7 21.6608C7.04854 21.3366 7.10213 21.0129 7.14561 20.6882C7.82209 15.6062 11.7839 11.3353 16.7928 10.3029C17.3975 10.1781 18.0113 10.0999 18.621 10C21.0084 10 23.3958 10 25.7837 10Z" fill="white"/>
<path d="M24.1755 39.8496C23.7245 39.7628 23.267 39.7004 22.823 39.5852C19.293 38.6695 17.4678 35.4727 18.5372 31.9137C18.931 30.6027 19.611 29.381 20.1015 28.0959C20.3123 27.5439 20.6126 27.4029 21.1779 27.4151C23.0283 27.4551 24.8803 27.4298 26.7318 27.4298C26.8749 27.4298 27.0184 27.4298 27.2303 27.4298C27.0073 27.9173 26.8147 28.3465 26.616 28.7722C26.1417 29.7884 25.667 30.8051 25.1857 31.8183C25.1068 31.9842 25.0593 32.1065 25.2221 32.2673C26.705 33.7345 28.1788 35.2109 29.6561 36.6837C29.6723 36.7 29.6976 36.7071 29.7749 36.7482C32.7109 30.4723 35.6453 24.1995 38.5944 17.8958C39.4519 18.6162 40.1592 19.4158 40.7715 20.3016C44.2004 25.2624 43.6261 31.9193 39.3675 36.1865C37.2415 38.3169 34.6599 39.5208 31.6547 39.7816C31.5475 39.7907 31.4429 39.8267 31.3372 39.8501H24.1745L24.1755 39.8496Z" fill="white"/>
</svg>
