<svg width="50" height="50" viewBox="0 0 50 50" fill="none" xmlns="http://www.w3.org/2000/svg">
<path d="M15 11.7432L23.1734 10.6682L23.177 18.2822L15.0074 18.3271L15 11.7432V11.7432ZM23.1695 19.1594L23.1758 26.7801L15.0063 25.6953L15.0059 19.1083L23.1695 19.1594H23.1695ZM24.1603 10.5275L34.9975 9V18.1853L24.1603 18.2683V10.5276V10.5275ZM35 19.2311L34.9974 28.375L24.1602 26.8978L24.1451 19.214L35 19.2311Z" fill="#00ADEF"/>
<path d="M32.8926 35.3488V32.5H31.9893V40H32.8926V36.2297C32.9498 36.1158 33.0166 36.0103 33.0928 35.9131C33.2262 35.7471 33.3841 35.6169 33.5664 35.5225C33.752 35.4281 33.957 35.3809 34.1816 35.3809C34.4095 35.3809 34.6016 35.4199 34.7578 35.498C34.9141 35.5729 35.0329 35.695 35.1143 35.8643C35.1956 36.0303 35.2363 36.2516 35.2363 36.5283V40H36.1445V36.5381C36.1445 36.1898 36.1055 35.8952 36.0273 35.6543C35.9492 35.4102 35.8353 35.2116 35.6855 35.0586C35.5391 34.9056 35.3617 34.7949 35.1533 34.7266C34.945 34.6549 34.7106 34.6191 34.4502 34.6191C34.1312 34.6191 33.8398 34.6826 33.5762 34.8096C33.3158 34.9333 33.0911 35.109 32.9023 35.3369L32.8926 35.3488Z" fill="#1C1D1F"/>
<path d="M29.8115 38.2373C29.8701 38.348 29.8994 38.4684 29.8994 38.5986C29.8994 38.7451 29.8555 38.8753 29.7676 38.9893C29.6797 39.1032 29.5511 39.1927 29.3818 39.2578C29.2158 39.3229 29.0091 39.3555 28.7617 39.3555C28.5762 39.3555 28.389 39.3262 28.2002 39.2676C28.0114 39.2057 27.8519 39.1032 27.7217 38.96C27.5915 38.8135 27.5199 38.6165 27.5068 38.3691H26.5986C26.5986 38.6621 26.6816 38.9404 26.8477 39.2041C27.0137 39.4678 27.2578 39.6826 27.5801 39.8486C27.9023 40.0146 28.2962 40.0977 28.7617 40.0977C29.071 40.0977 29.3493 40.0602 29.5967 39.9854C29.8473 39.9072 30.0622 39.7998 30.2412 39.6631C30.4235 39.5231 30.5618 39.3571 30.6562 39.165C30.7539 38.973 30.8027 38.7614 30.8027 38.5303C30.8027 38.2471 30.7344 38.0062 30.5977 37.8076C30.4609 37.609 30.2526 37.4414 29.9727 37.3047C29.6927 37.168 29.3363 37.0508 28.9033 36.9531C28.6559 36.8978 28.4525 36.8424 28.293 36.7871C28.1335 36.7318 28.0098 36.6732 27.9219 36.6113C27.834 36.5462 27.7721 36.4762 27.7363 36.4014C27.7038 36.3232 27.6875 36.2354 27.6875 36.1377C27.6875 36.0075 27.7217 35.8838 27.79 35.7666C27.8617 35.6494 27.974 35.5534 28.127 35.4785C28.2832 35.4004 28.4867 35.3613 28.7373 35.3613C28.9749 35.3613 29.1751 35.4069 29.3379 35.498C29.5039 35.5892 29.6292 35.7048 29.7139 35.8447C29.8018 35.9814 29.8457 36.123 29.8457 36.2695H30.749C30.749 35.9668 30.6693 35.6917 30.5098 35.4443C30.3503 35.1937 30.1208 34.9935 29.8213 34.8438C29.5218 34.694 29.1605 34.6191 28.7373 34.6191C28.4411 34.6191 28.1725 34.6598 27.9316 34.7412C27.6908 34.8226 27.484 34.9349 27.3115 35.0781C27.1423 35.2214 27.0104 35.3857 26.916 35.5713C26.8249 35.7568 26.7793 35.9538 26.7793 36.1621C26.7793 36.3802 26.8232 36.5706 26.9111 36.7334C26.999 36.8962 27.1243 37.0378 27.2871 37.1582C27.4531 37.2786 27.6533 37.3812 27.8877 37.4658C28.1253 37.5505 28.3906 37.6237 28.6836 37.6855C29.0319 37.7539 29.2923 37.8353 29.4648 37.9297C29.6406 38.0208 29.7562 38.1234 29.8115 38.2373Z" fill="#1C1D1F"/>
<path d="M20.3584 40H21.0957L22.3465 36L23.6299 40H24.3623L25.8955 34.7168H24.9971L23.9781 38.743L22.7266 34.7168H21.999L20.7671 38.6608L19.7285 34.7168H18.8252L20.3584 40Z" fill="#1C1D1F"/>
<path fill-rule="evenodd" clip-rule="evenodd" d="M14.5583 35.297C14.7372 35.0761 14.9534 34.9087 15.207 34.7949C15.4609 34.6777 15.7539 34.6191 16.0859 34.6191C16.418 34.6191 16.7126 34.6842 16.9697 34.8145C17.2269 34.9414 17.4434 35.1237 17.6191 35.3613C17.7949 35.599 17.9268 35.8838 18.0146 36.2158C18.1058 36.5446 18.1514 36.9108 18.1514 37.3145V37.417C18.1514 37.8011 18.1058 38.1576 18.0146 38.4863C17.9235 38.8118 17.79 39.0951 17.6143 39.3359C17.4417 39.5768 17.2285 39.764 16.9746 39.8975C16.7207 40.0309 16.4294 40.0977 16.1006 40.0977C15.7653 40.0977 15.4691 40.0423 15.2119 39.9316C14.9709 39.8279 14.7642 39.6799 14.5918 39.4875V42.0312H13.6836V34.7168H14.5137L14.5583 35.297ZM14.5918 38.6308C14.6029 38.6511 14.6143 38.6713 14.626 38.6914C14.7432 38.89 14.8994 39.0511 15.0947 39.1748C15.29 39.2952 15.5358 39.3555 15.832 39.3555C16.0762 39.3555 16.2861 39.305 16.4619 39.2041C16.641 39.0999 16.7874 38.9583 16.9014 38.7793C17.0186 38.6003 17.1048 38.3952 17.1602 38.1641C17.2155 37.9297 17.2432 37.6807 17.2432 37.417V37.3145C17.2432 37.0508 17.2155 36.8034 17.1602 36.5723C17.1048 36.3379 17.0186 36.1328 16.9014 35.957C16.7874 35.778 16.641 35.638 16.4619 35.5371C16.2829 35.4329 16.0697 35.3809 15.8223 35.3809C15.5944 35.3809 15.3958 35.4199 15.2266 35.498C15.0605 35.5762 14.9189 35.682 14.8018 35.8154C14.722 35.9041 14.652 36.0018 14.5918 36.1086V38.6308Z" fill="#1C1D1F"/>
</svg>
