<svg width="50" height="50" viewBox="0 0 50 50" fill="none" xmlns="http://www.w3.org/2000/svg">
<path d="M15 11.7432L23.1734 10.6682L23.177 18.2822L15.0074 18.3271L15 11.7432V11.7432ZM23.1695 19.1594L23.1758 26.7801L15.0063 25.6953L15.0059 19.1083L23.1695 19.1594H23.1695ZM24.1603 10.5275L34.9975 9V18.1853L24.1603 18.2683V10.5276V10.5275ZM35 19.2311L34.9974 28.375L24.1602 26.8978L24.1451 19.214L35 19.2311Z" fill="#00ADEF"/>
<path d="M12.8125 35.0264V35.7844H8.96484V35.0264H12.8125ZM9.11133 32.0042V39.0336H8.16895V32.0042H9.11133ZM13.6328 32.0042V39.0336H12.6953V32.0042H13.6328Z" fill="#1C1D1F"/>
<path d="M16.6553 38.4929L18.125 33.8098H19.0918L16.9727 39.8399C16.9238 39.9687 16.8587 40.1071 16.7773 40.2551C16.6992 40.4064 16.5983 40.5496 16.4746 40.6848C16.3509 40.82 16.2012 40.9294 16.0254 41.0131C15.8529 41.1 15.6462 41.1435 15.4053 41.1435C15.3337 41.1435 15.2425 41.1338 15.1318 41.1145C15.0212 41.0952 14.943 41.0791 14.8975 41.0662L14.8926 40.342C14.9186 40.3452 14.9593 40.3485 15.0146 40.3517C15.0732 40.3581 15.1139 40.3613 15.1367 40.3613C15.3418 40.3613 15.516 40.334 15.6592 40.2793C15.8024 40.2278 15.9229 40.1392 16.0205 40.0137C16.1214 39.8914 16.2077 39.7224 16.2793 39.5068L16.6553 38.4929ZM15.5762 33.8098L16.9482 37.8653L17.1826 38.8067L16.5332 39.135L14.5898 33.8098H15.5762Z" fill="#1C1D1F"/>
<path d="M20.8105 34.814V41.0421H19.9023V33.8098H20.7324L20.8105 34.814ZM24.3701 36.3783V36.4797C24.3701 36.8595 24.3245 37.2119 24.2334 37.537C24.1423 37.8588 24.0088 38.1389 23.833 38.377C23.6605 38.6152 23.4473 38.8003 23.1934 38.9323C22.9395 39.0642 22.6481 39.1302 22.3193 39.1302C21.984 39.1302 21.6878 39.0755 21.4307 38.9661C21.1735 38.8566 20.9554 38.6973 20.7764 38.4881C20.5973 38.2789 20.4541 38.0278 20.3467 37.7349C20.2425 37.442 20.1709 37.1121 20.1318 36.7452V36.2045C20.1709 35.8182 20.2441 35.4722 20.3516 35.1665C20.459 34.8607 20.6006 34.6 20.7764 34.3843C20.9554 34.1655 21.1719 33.9997 21.4258 33.8871C21.6797 33.7712 21.9727 33.7132 22.3047 33.7132C22.6367 33.7132 22.9313 33.7776 23.1885 33.9064C23.4456 34.0319 23.6621 34.2121 23.8379 34.4471C24.0137 34.6821 24.1455 34.9637 24.2334 35.292C24.3245 35.6171 24.3701 35.9792 24.3701 36.3783ZM23.4619 36.4797V36.3783C23.4619 36.1176 23.4342 35.8729 23.3789 35.6444C23.3236 35.4127 23.2373 35.2099 23.1201 35.0361C23.0062 34.8591 22.8597 34.7207 22.6807 34.6209C22.5016 34.5179 22.2884 34.4664 22.041 34.4664C21.8132 34.4664 21.6146 34.505 21.4453 34.5823C21.2793 34.6595 21.1377 34.7641 21.0205 34.8961C20.9033 35.0248 20.8073 35.1729 20.7324 35.3403C20.6608 35.5044 20.6071 35.675 20.5713 35.852V37.1025C20.6364 37.3278 20.7275 37.5402 20.8447 37.7398C20.9619 37.9361 21.1182 38.0954 21.3135 38.2177C21.5088 38.3368 21.7546 38.3964 22.0508 38.3964C22.2949 38.3964 22.5049 38.3465 22.6807 38.2467C22.8597 38.1437 23.0062 38.0037 23.1201 37.8267C23.2373 37.6496 23.3236 37.4469 23.3789 37.2183C23.4342 36.9866 23.4619 36.7404 23.4619 36.4797Z" fill="#1C1D1F"/>
<path d="M27.7148 39.1302C27.347 39.1302 27.0133 39.069 26.7139 38.9467C26.4176 38.8212 26.1621 38.6458 25.9473 38.4205C25.7357 38.1952 25.5729 37.928 25.459 37.6191C25.3451 37.3101 25.2881 36.9721 25.2881 36.6052V36.4024C25.2881 35.9776 25.3516 35.5994 25.4785 35.2678C25.6055 34.9331 25.778 34.6499 25.9961 34.4181C26.2142 34.1864 26.4616 34.011 26.7383 33.8919C27.015 33.7728 27.3014 33.7132 27.5977 33.7132C27.9753 33.7132 28.3008 33.7776 28.5742 33.9064C28.8509 34.0351 29.0771 34.2154 29.2529 34.4471C29.4287 34.6756 29.5589 34.946 29.6436 35.2582C29.7282 35.5672 29.7705 35.9051 29.7705 36.2721V36.6728H25.8252V35.9438H28.8672V35.8762C28.8542 35.6444 28.8053 35.4191 28.7207 35.2003C28.6393 34.9814 28.5091 34.8011 28.3301 34.6595C28.151 34.5179 27.9069 34.4471 27.5977 34.4471C27.3926 34.4471 27.2038 34.4905 27.0312 34.5774C26.8587 34.6611 26.7106 34.7867 26.5869 34.954C26.4632 35.1214 26.3672 35.3258 26.2988 35.5672C26.2305 35.8086 26.1963 36.087 26.1963 36.4024V36.6052C26.1963 36.853 26.2305 37.0864 26.2988 37.3052C26.3704 37.5209 26.473 37.7108 26.6064 37.8749C26.7432 38.0391 26.9076 38.1678 27.0996 38.2612C27.2949 38.3545 27.5163 38.4012 27.7637 38.4012C28.0827 38.4012 28.3529 38.3368 28.5742 38.2081C28.7956 38.0793 28.9893 37.9071 29.1553 37.6915L29.7021 38.1212C29.5882 38.2917 29.4434 38.4543 29.2676 38.6088C29.0918 38.7633 28.8753 38.8888 28.6182 38.9854C28.3643 39.0819 28.0632 39.1302 27.7148 39.1302Z" fill="#1C1D1F"/>
<path d="M31.7285 34.6306V39.0336H30.8252V33.8098H31.7041L31.7285 34.6306ZM33.3789 33.7808L33.374 34.6112C33.2992 34.5951 33.2275 34.5855 33.1592 34.5823C33.0941 34.5758 33.0192 34.5726 32.9346 34.5726C32.7262 34.5726 32.5423 34.6048 32.3828 34.6692C32.2233 34.7336 32.0882 34.8237 31.9775 34.9395C31.8669 35.0554 31.779 35.1938 31.7139 35.3547C31.652 35.5125 31.6113 35.6863 31.5918 35.8762L31.3379 36.021C31.3379 35.7056 31.3688 35.4095 31.4307 35.1327C31.4958 34.8559 31.5951 34.6112 31.7285 34.3988C31.862 34.1832 32.0312 34.0158 32.2363 33.8967C32.4447 33.7744 32.6921 33.7132 32.9785 33.7132C33.0436 33.7132 33.1185 33.7213 33.2031 33.7374C33.2878 33.7503 33.3464 33.7647 33.3789 33.7808Z" fill="#1C1D1F"/>
<path d="M36.0938 35.6782V36.4121H33.7109V35.6782H36.0938Z" fill="#1C1D1F"/>
<path d="M39.4092 37.9667L41.5039 32.0042H42.5244L39.8926 39.0336H39.165L39.4092 37.9667ZM37.4512 32.0042L39.5264 37.9667L39.7852 39.0336H39.0576L36.4307 32.0042H37.4512Z" fill="#1C1D1F"/>
</svg>
