<svg width="50" height="50" viewBox="0 0 50 50" fill="none" xmlns="http://www.w3.org/2000/svg">
<path d="M32.8926 37.8488V35H31.9893V42.5H32.8926V38.7297C32.9498 38.6158 33.0166 38.5103 33.0928 38.4131C33.2262 38.2471 33.3841 38.1169 33.5664 38.0225C33.752 37.9281 33.957 37.8809 34.1816 37.8809C34.4095 37.8809 34.6016 37.9199 34.7578 37.998C34.9141 38.0729 35.0329 38.195 35.1143 38.3643C35.1956 38.5303 35.2363 38.7516 35.2363 39.0283V42.5H36.1445V39.0381C36.1445 38.6898 36.1055 38.3952 36.0273 38.1543C35.9492 37.9102 35.8353 37.7116 35.6855 37.5586C35.5391 37.4056 35.3617 37.2949 35.1533 37.2266C34.945 37.1549 34.7106 37.1191 34.4502 37.1191C34.1312 37.1191 33.8398 37.1826 33.5762 37.3096C33.3158 37.4333 33.0911 37.609 32.9023 37.8369L32.8926 37.8488Z" fill="#7F8BA5"/>
<path d="M29.8115 40.7373C29.8701 40.848 29.8994 40.9684 29.8994 41.0986C29.8994 41.2451 29.8555 41.3753 29.7676 41.4893C29.6797 41.6032 29.5511 41.6927 29.3818 41.7578C29.2158 41.8229 29.0091 41.8555 28.7617 41.8555C28.5762 41.8555 28.389 41.8262 28.2002 41.7676C28.0114 41.7057 27.8519 41.6032 27.7217 41.46C27.5915 41.3135 27.5199 41.1165 27.5068 40.8691H26.5986C26.5986 41.1621 26.6816 41.4404 26.8477 41.7041C27.0137 41.9678 27.2578 42.1826 27.5801 42.3486C27.9023 42.5146 28.2962 42.5977 28.7617 42.5977C29.071 42.5977 29.3493 42.5602 29.5967 42.4854C29.8473 42.4072 30.0622 42.2998 30.2412 42.1631C30.4235 42.0231 30.5618 41.8571 30.6562 41.665C30.7539 41.473 30.8027 41.2614 30.8027 41.0303C30.8027 40.7471 30.7344 40.5062 30.5977 40.3076C30.4609 40.109 30.2526 39.9414 29.9727 39.8047C29.6927 39.668 29.3363 39.5508 28.9033 39.4531C28.6559 39.3978 28.4525 39.3424 28.293 39.2871C28.1335 39.2318 28.0098 39.1732 27.9219 39.1113C27.834 39.0462 27.7721 38.9762 27.7363 38.9014C27.7038 38.8232 27.6875 38.7354 27.6875 38.6377C27.6875 38.5075 27.7217 38.3838 27.79 38.2666C27.8617 38.1494 27.974 38.0534 28.127 37.9785C28.2832 37.9004 28.4867 37.8613 28.7373 37.8613C28.9749 37.8613 29.1751 37.9069 29.3379 37.998C29.5039 38.0892 29.6292 38.2048 29.7139 38.3447C29.8018 38.4814 29.8457 38.623 29.8457 38.7695H30.749C30.749 38.4668 30.6693 38.1917 30.5098 37.9443C30.3503 37.6937 30.1208 37.4935 29.8213 37.3438C29.5218 37.194 29.1605 37.1191 28.7373 37.1191C28.4411 37.1191 28.1725 37.1598 27.9316 37.2412C27.6908 37.3226 27.484 37.4349 27.3115 37.5781C27.1423 37.7214 27.0104 37.8857 26.916 38.0713C26.8249 38.2568 26.7793 38.4538 26.7793 38.6621C26.7793 38.8802 26.8232 39.0706 26.9111 39.2334C26.999 39.3962 27.1243 39.5378 27.2871 39.6582C27.4531 39.7786 27.6533 39.8812 27.8877 39.9658C28.1253 40.0505 28.3906 40.1237 28.6836 40.1855C29.0319 40.2539 29.2923 40.3353 29.4648 40.4297C29.6406 40.5208 29.7562 40.6234 29.8115 40.7373Z" fill="#7F8BA5"/>
<path d="M20.3584 42.5H21.0957L22.3465 38.5L23.6299 42.5H24.3623L25.8955 37.2168H24.9971L23.9781 41.243L22.7266 37.2168H21.999L20.7671 41.1608L19.7285 37.2168H18.8252L20.3584 42.5Z" fill="#7F8BA5"/>
<path fill-rule="evenodd" clip-rule="evenodd" d="M14.5583 37.797C14.7372 37.5761 14.9534 37.4087 15.207 37.2949C15.4609 37.1777 15.7539 37.1191 16.0859 37.1191C16.418 37.1191 16.7126 37.1842 16.9697 37.3145C17.2269 37.4414 17.4434 37.6237 17.6191 37.8613C17.7949 38.099 17.9268 38.3838 18.0146 38.7158C18.1058 39.0446 18.1514 39.4108 18.1514 39.8145V39.917C18.1514 40.3011 18.1058 40.6576 18.0146 40.9863C17.9235 41.3118 17.79 41.5951 17.6143 41.8359C17.4417 42.0768 17.2285 42.264 16.9746 42.3975C16.7207 42.5309 16.4294 42.5977 16.1006 42.5977C15.7653 42.5977 15.4691 42.5423 15.2119 42.4316C14.9709 42.3279 14.7642 42.1799 14.5918 41.9875V44.5312H13.6836V37.2168H14.5137L14.5583 37.797ZM14.5918 41.1308C14.6029 41.1511 14.6143 41.1713 14.626 41.1914C14.7432 41.39 14.8994 41.5511 15.0947 41.6748C15.29 41.7952 15.5358 41.8555 15.832 41.8555C16.0762 41.8555 16.2861 41.805 16.4619 41.7041C16.641 41.5999 16.7874 41.4583 16.9014 41.2793C17.0186 41.1003 17.1048 40.8952 17.1602 40.6641C17.2155 40.4297 17.2432 40.1807 17.2432 39.917V39.8145C17.2432 39.5508 17.2155 39.3034 17.1602 39.0723C17.1048 38.8379 17.0186 38.6328 16.9014 38.457C16.7874 38.278 16.641 38.138 16.4619 38.0371C16.2829 37.9329 16.0697 37.8809 15.8223 37.8809C15.5944 37.8809 15.3958 37.9199 15.2266 37.998C15.0605 38.0762 14.9189 38.182 14.8018 38.3154C14.722 38.4041 14.652 38.5018 14.5918 38.6086V41.1308Z" fill="#7F8BA5"/>
<path d="M11 10.9643L22.8515 9.41083L22.8566 20.4143L11.0108 20.4792L11 10.9643ZM22.8458 21.682L22.8549 32.695L11.0092 31.1274L11.0085 21.6082L22.8458 21.682ZM24.2825 9.20748L39.9964 7V20.2743L24.2825 20.3942V9.20748ZM40 21.7856L39.9963 35L24.2823 32.8653L24.2604 21.7608L40 21.7856Z" fill="#00ADEF"/>
</svg>
