<svg width="50" height="50" viewBox="0 0 50 50" fill="none" xmlns="http://www.w3.org/2000/svg">
<path d="M11 10.9643L22.8515 9.41083L22.8566 20.4143L11.0108 20.4792L11 10.9643ZM22.8458 21.682L22.8549 32.695L11.0092 31.1274L11.0085 21.6082L22.8458 21.682ZM24.2825 9.20748L39.9964 7V20.2743L24.2825 20.3942V9.20748ZM40 21.7856L39.9963 35L24.2823 32.8653L24.2604 21.7608L40 21.7856Z" fill="#00ADEF"/>
<path d="M12.8125 37.0223V37.7803H8.96484V37.0223H12.8125ZM9.11133 34V41.0295H8.16895V34H9.11133ZM13.6328 34V41.0295H12.6953V34H13.6328Z" fill="#7F8BA5"/>
<path d="M16.6553 40.4888L18.125 35.8057H19.0918L16.9727 41.8358C16.9238 41.9645 16.8587 42.1029 16.7773 42.251C16.6992 42.4022 16.5983 42.5455 16.4746 42.6807C16.3509 42.8158 16.2012 42.9253 16.0254 43.009C15.8529 43.0959 15.6462 43.1393 15.4053 43.1393C15.3337 43.1393 15.2425 43.1297 15.1318 43.1103C15.0212 43.091 14.943 43.0749 14.8975 43.0621L14.8926 42.3379C14.9186 42.3411 14.9593 42.3443 15.0146 42.3475C15.0732 42.354 15.1139 42.3572 15.1367 42.3572C15.3418 42.3572 15.516 42.3298 15.6592 42.2751C15.8024 42.2236 15.9229 42.1351 16.0205 42.0096C16.1214 41.8873 16.2077 41.7183 16.2793 41.5026L16.6553 40.4888ZM15.5762 35.8057L16.9482 39.8611L17.1826 40.8026L16.5332 41.1309L14.5898 35.8057H15.5762Z" fill="#7F8BA5"/>
<path d="M20.8105 36.8099V43.0379H19.9023V35.8057H20.7324L20.8105 36.8099ZM24.3701 38.3741V38.4755C24.3701 38.8553 24.3245 39.2077 24.2334 39.5328C24.1423 39.8547 24.0088 40.1347 23.833 40.3729C23.6605 40.6111 23.4473 40.7961 23.1934 40.9281C22.9395 41.0601 22.6481 41.1261 22.3193 41.1261C21.984 41.1261 21.6878 41.0713 21.4307 40.9619C21.1735 40.8525 20.9554 40.6931 20.7764 40.4839C20.5973 40.2747 20.4541 40.0237 20.3467 39.7308C20.2425 39.4379 20.1709 39.108 20.1318 38.741V38.2003C20.1709 37.8141 20.2441 37.4681 20.3516 37.1623C20.459 36.8565 20.6006 36.5958 20.7764 36.3802C20.9554 36.1613 21.1719 35.9956 21.4258 35.8829C21.6797 35.767 21.9727 35.7091 22.3047 35.7091C22.6367 35.7091 22.9313 35.7735 23.1885 35.9022C23.4456 36.0277 23.6621 36.208 23.8379 36.4429C24.0137 36.6779 24.1455 36.9595 24.2334 37.2878C24.3245 37.6129 24.3701 37.975 24.3701 38.3741ZM23.4619 38.4755V38.3741C23.4619 38.1134 23.4342 37.8688 23.3789 37.6403C23.3236 37.4085 23.2373 37.2058 23.1201 37.032C23.0062 36.8549 22.8597 36.7165 22.6807 36.6167C22.5016 36.5138 22.2884 36.4623 22.041 36.4623C21.8132 36.4623 21.6146 36.5009 21.4453 36.5781C21.2793 36.6554 21.1377 36.76 21.0205 36.8919C20.9033 37.0207 20.8073 37.1687 20.7324 37.3361C20.6608 37.5003 20.6071 37.6709 20.5713 37.8479V39.0983C20.6364 39.3236 20.7275 39.536 20.8447 39.7356C20.9619 39.9319 21.1182 40.0913 21.3135 40.2136C21.5088 40.3327 21.7546 40.3922 22.0508 40.3922C22.2949 40.3922 22.5049 40.3423 22.6807 40.2425C22.8597 40.1395 23.0062 39.9995 23.1201 39.8225C23.2373 39.6455 23.3236 39.4427 23.3789 39.2142C23.4342 38.9824 23.4619 38.7362 23.4619 38.4755Z" fill="#7F8BA5"/>
<path d="M27.7148 41.1261C27.347 41.1261 27.0133 41.0649 26.7139 40.9426C26.4176 40.8171 26.1621 40.6416 25.9473 40.4163C25.7357 40.191 25.5729 39.9239 25.459 39.6149C25.3451 39.3059 25.2881 38.968 25.2881 38.601V38.3983C25.2881 37.9734 25.3516 37.5952 25.4785 37.2637C25.6055 36.929 25.778 36.6457 25.9961 36.414C26.2142 36.1822 26.4616 36.0068 26.7383 35.8877C27.015 35.7686 27.3014 35.7091 27.5977 35.7091C27.9753 35.7091 28.3008 35.7735 28.5742 35.9022C28.8509 36.031 29.0771 36.2112 29.2529 36.4429C29.4287 36.6715 29.5589 36.9418 29.6436 37.254C29.7282 37.563 29.7705 37.901 29.7705 38.2679V38.6686H25.8252V37.9396H28.8672V37.872C28.8542 37.6403 28.8053 37.415 28.7207 37.1961C28.6393 36.9772 28.5091 36.797 28.3301 36.6554C28.151 36.5138 27.9069 36.4429 27.5977 36.4429C27.3926 36.4429 27.2038 36.4864 27.0312 36.5733C26.8587 36.657 26.7106 36.7825 26.5869 36.9499C26.4632 37.1172 26.3672 37.3216 26.2988 37.563C26.2305 37.8044 26.1963 38.0828 26.1963 38.3983V38.601C26.1963 38.8489 26.2305 39.0822 26.2988 39.3011C26.3704 39.5167 26.473 39.7066 26.6064 39.8708C26.7432 40.0349 26.9076 40.1637 27.0996 40.257C27.2949 40.3504 27.5163 40.397 27.7637 40.397C28.0827 40.397 28.3529 40.3327 28.5742 40.2039C28.7956 40.0752 28.9893 39.903 29.1553 39.6873L29.7021 40.117C29.5882 40.2876 29.4434 40.4501 29.2676 40.6046C29.0918 40.7591 28.8753 40.8847 28.6182 40.9812C28.3643 41.0778 28.0632 41.1261 27.7148 41.1261Z" fill="#7F8BA5"/>
<path d="M31.7285 36.6264V41.0295H30.8252V35.8057H31.7041L31.7285 36.6264ZM33.3789 35.7767L33.374 36.6071C33.2992 36.591 33.2275 36.5813 33.1592 36.5781C33.0941 36.5717 33.0192 36.5685 32.9346 36.5685C32.7262 36.5685 32.5423 36.6007 32.3828 36.665C32.2233 36.7294 32.0882 36.8195 31.9775 36.9354C31.8669 37.0513 31.779 37.1897 31.7139 37.3506C31.652 37.5083 31.6113 37.6821 31.5918 37.872L31.3379 38.0169C31.3379 37.7014 31.3688 37.4053 31.4307 37.1285C31.4958 36.8517 31.5951 36.6071 31.7285 36.3947C31.862 36.179 32.0312 36.0116 32.2363 35.8926C32.4447 35.7702 32.6921 35.7091 32.9785 35.7091C33.0436 35.7091 33.1185 35.7171 33.2031 35.7332C33.2878 35.7461 33.3464 35.7606 33.3789 35.7767Z" fill="#7F8BA5"/>
<path d="M36.0938 37.6741V38.4079H33.7109V37.6741H36.0938Z" fill="#7F8BA5"/>
<path d="M39.4092 39.9625L41.5039 34H42.5244L39.8926 41.0295H39.165L39.4092 39.9625ZM37.4512 34L39.5264 39.9625L39.7852 41.0295H39.0576L36.4307 34H37.4512Z" fill="#7F8BA5"/>
</svg>
