<svg width="50" height="50" viewBox="0 0 50 50" fill="none" xmlns="http://www.w3.org/2000/svg">
<rect width="50" height="50" fill="#291294"/>
<path fill-rule="evenodd" clip-rule="evenodd" d="M23.4276 15.7989L25.1624 15.2257V25.7107H35.548V27.4301H25.17V34.7054L23.4352 33.2076V15.7989H23.4276Z" fill="white"/>
<path fill-rule="evenodd" clip-rule="evenodd" d="M25.0326 12.9485C18.3764 12.9485 12.981 18.3438 12.981 25.0001C12.981 31.6563 18.3764 37.0517 25.0326 37.0517C31.6889 37.0517 37.0842 31.6563 37.0842 25.0001C37.0842 18.3438 31.6889 12.9485 25.0326 12.9485ZM11.2769 25.0001C11.2769 17.4038 17.4364 11.2443 25.0326 11.2443C32.6289 11.2443 38.7884 17.4038 38.7884 25.0001C38.7884 32.5963 32.6289 38.7558 25.0326 38.7558C17.4364 38.7558 11.2769 32.5963 11.2769 25.0001Z" fill="url(#paint0_linear_744_7215)"/>
<defs>
<linearGradient id="paint0_linear_744_7215" x1="11.2756" y1="11.2428" x2="38.7872" y2="38.7543" gradientUnits="userSpaceOnUse">
<stop stop-color="#ED28B6"/>
<stop offset="1" stop-color="#1FF1FC"/>
</linearGradient>
</defs>
</svg>
