<svg width="50" height="50" viewBox="0 0 50 50" fill="none" xmlns="http://www.w3.org/2000/svg">
<path fill-rule="evenodd" clip-rule="evenodd" d="M6.74273 24.9696C6.72911 35.0694 14.8898 43.252 24.9801 43.2572C35.0805 43.2624 43.254 35.1003 43.2573 25.0069C43.2605 14.9261 35.0699 6.73824 24.9855 6.74278C14.9296 6.74732 6.75636 14.9129 6.74273 24.9696ZM6.00002 24.9686C5.98584 35.4783 14.4784 43.9946 24.9798 44C35.4898 44.0054 43.9966 35.5114 44 25.0071C44.0034 14.5157 35.4797 5.99528 24.9852 6C14.5196 6.00473 6.0142 14.5021 6.00002 24.9686Z" fill="#F1CA21"/>
<path d="M13.3644 37.0253C13.0511 36.7869 12.6311 37.1583 12.3313 36.845C12.4967 36.4257 12.8229 36.6789 13.0848 36.6647C13.1719 36.6762 13.047 36.5479 13.0794 36.6296C13.0896 36.6559 13.0713 36.6674 13.0254 36.6586C12.7277 36.5999 12.4225 36.5675 12.1436 36.4358C11.9728 36.3554 11.7176 36.3075 11.7743 36.057C11.835 35.7896 12.0849 35.878 12.2665 35.9118C12.5649 35.9672 12.864 36.0246 13.1551 36.1157C12.9005 35.9192 12.6223 35.7734 12.3023 35.7079C12.016 35.6491 11.8384 35.4844 11.8222 35.1771C11.5137 35.0995 11.2584 34.8969 10.8918 34.9387C10.5488 34.9779 10.5096 34.7368 10.725 34.4816C10.9526 34.3661 11.1126 34.5721 11.3023 34.595C11.1464 34.5113 10.9283 34.5019 10.8418 34.2952C10.9181 33.8725 10.5299 33.6564 10.4084 33.3215C10.3584 33.1844 10.2531 33.0278 10.4158 32.915C10.5657 32.811 10.7081 32.9157 10.8175 33.0217C11.0633 33.2601 11.2341 33.568 11.5069 33.7827C11.6183 33.541 11.1099 33.2729 11.54 33.046C11.6028 32.9251 11.6656 32.8043 11.7284 32.6834C12.0417 32.7921 11.9323 33.075 11.9654 33.2891C12.0545 33.8698 12.1747 34.435 12.6426 35.0346C12.5892 34.5356 12.3752 34.2426 12.2733 33.9151C12.2273 33.7679 12.1814 33.5896 12.33 33.4964C12.5352 33.3674 12.6392 33.5653 12.7378 33.6963C12.8553 33.8516 12.9734 34.0157 13.0403 34.196C13.1814 34.5768 13.3171 34.2277 13.4521 34.2081C13.6371 34.3925 13.8059 33.8941 13.9964 34.1946C14.1078 34.4701 14.0828 34.7517 14.0423 35.034C13.9255 35.4256 13.9619 35.768 14.3549 35.9948C14.4913 36.0536 14.5953 36.1893 14.8167 36.1549C14.7107 35.7518 14.5041 35.3918 14.3947 35.0009C14.3596 34.8766 14.3191 34.726 14.4663 34.6524C14.6061 34.5829 14.7148 34.6936 14.8066 34.7848C15.0112 34.9874 15.0969 35.2716 15.2799 35.4952C15.2488 35.3027 15.1881 35.1096 15.3967 34.9766C15.5007 34.9516 15.5918 34.9718 15.6688 35.0488C15.8464 35.4614 15.9335 35.8888 15.8828 36.3386C15.7782 36.7957 15.7991 37.1786 16.3967 37.2245C16.5324 36.8707 16.2333 36.635 16.1576 36.3399C16.1158 36.1751 15.9774 35.9712 16.1549 35.8612C16.3663 35.7302 16.5094 35.9456 16.6276 36.0941C16.8301 36.3507 17.0064 36.6249 17.0793 36.9328C17.0887 36.5985 16.7133 36.3149 16.9098 35.93C17.3575 35.8071 17.346 36.1846 17.425 36.4284C17.5202 36.7207 17.4756 37.0354 17.5087 37.3393C17.5465 37.6897 17.6539 37.9794 18.0279 38.0929C17.9213 37.7789 17.7525 37.4824 17.6755 37.1543C17.6417 37.0118 17.5742 36.8308 17.7646 36.7545C17.9017 36.6991 18.007 36.8214 18.0907 36.92C18.2859 37.1516 18.4378 37.4115 18.5816 37.8234C18.4864 37.3663 18.1819 37.1002 18.3487 36.7255C18.5141 36.6222 18.6498 36.6796 18.7734 36.8038C19.0414 37.4932 19.6855 37.8937 20.0846 38.4838C20.1143 38.5277 20.1933 38.3819 20.2669 38.3447C20.4431 38.2475 20.5282 38.0767 20.6362 37.9187C20.8219 37.6465 21.0454 37.55 21.2918 37.8626C20.88 38.3164 21.1325 38.7992 21.2311 39.2759C21.2088 39.6108 21.2716 39.8728 21.699 39.8256C21.778 39.7938 22.0069 39.9613 21.8995 39.6865C21.7888 39.4049 21.5639 39.18 21.4822 38.8822C21.4525 38.7729 21.4532 38.6574 21.5599 38.5946C21.6382 38.5487 21.7307 38.5892 21.8043 38.6364C22.1041 38.8289 22.3026 39.1078 22.4599 39.4197C22.4424 39.2077 22.1925 38.9525 22.5707 38.812C22.8583 39.045 22.9589 39.3678 23.0136 39.7162C23.0541 39.9748 23.1176 40.2253 23.4781 40.33C23.2263 39.9242 23.019 39.5514 22.8461 39.1604C22.8009 39.0585 22.7449 38.9538 22.8509 38.8708C22.9528 38.7904 23.0588 38.8586 23.1486 38.9167C23.3924 39.0733 23.5389 39.3185 23.7144 39.5393C23.8528 39.7135 23.8927 40.0079 24.2087 39.9937C24.4092 40.0734 24.4126 40.253 24.4065 40.4205C24.3984 40.6501 24.5071 40.7757 24.7164 40.8337C24.8353 40.8898 24.9372 40.9634 24.9838 41.093C24.9872 41.1606 24.9615 41.2152 24.9102 41.2585C24.1337 41.3901 23.4977 40.8695 22.759 40.7851C22.4403 40.7486 22.1392 40.642 21.8192 40.75C21.7125 40.8148 21.6058 40.8796 21.4991 40.9445C20.7848 40.9728 20.0447 41.1626 19.3398 40.6339C19.8253 40.2672 20.3547 40.4482 20.8253 40.2827C20.013 40.1558 19.3142 40.7473 18.5195 40.5596C18.4702 40.5049 18.4209 40.4502 18.3716 40.3962C18.4864 39.987 18.851 40.23 19.0374 40.1456C18.6464 40.0889 18.2481 39.9255 17.851 39.7641C17.7086 39.7061 17.5499 39.6061 17.5931 39.4305C17.639 39.2449 17.8301 39.2617 17.978 39.2847C18.3811 39.3455 18.7734 39.4576 19.1643 39.5318C18.7268 39.2057 18.2379 39.0018 17.6674 39.0078C17.427 39.0105 17.1792 38.9869 17.0428 38.733C16.8518 38.7438 16.6526 38.6783 16.4763 38.8154C16.2893 38.9606 16.0868 38.9754 16.0152 38.7175C15.9416 38.4555 16.1347 38.3792 16.3629 38.3886C16.4372 38.392 16.4824 38.3697 16.4932 38.284C16.2765 37.976 15.9943 38.2063 15.7404 38.2029C15.3778 37.999 14.9592 37.943 14.5878 37.7647C14.4143 37.6816 14.1854 37.5851 14.2766 37.3467C14.3529 37.1475 14.5763 37.236 14.7418 37.2529C14.9139 37.2704 15.08 37.3278 15.3265 37.3582C14.9038 37.0388 14.4872 37.0226 14.0571 37.0618C13.8255 37.0827 13.5885 37.1928 13.3664 37.0266L13.3644 37.0253Z" fill="#E5C331"/>
<path d="M24.9406 41.2078C24.9406 41.1653 24.9406 41.1227 24.9406 41.0802C24.9581 40.9816 25.0155 40.9107 25.0959 40.856C25.3119 40.7554 25.4193 40.59 25.4396 40.3482C25.4551 40.1618 25.4416 39.9431 25.6874 39.8688C25.7873 39.9714 25.8535 39.9903 25.8906 39.9242C26.0715 39.5987 26.2721 39.286 26.5786 39.0625C26.6812 38.9876 26.8089 38.8991 26.9263 39.022C27.0114 39.1105 26.9574 39.2239 26.9169 39.3279C26.7913 39.6493 26.5658 39.9242 26.4638 40.2922C26.956 40.097 26.8041 39.6203 26.9655 39.2975C27.029 39.1699 27.0688 38.9471 27.2471 38.9943C27.4746 39.0544 27.3828 39.2678 27.3659 39.4684C27.534 39.1935 27.6981 38.9336 27.9358 38.7384C28.0499 38.6446 28.1863 38.5021 28.3361 38.6108C28.4901 38.7222 28.3935 38.8897 28.3274 39.0247C28.222 39.2401 28.0796 39.4366 27.9763 39.652C27.8635 39.887 28.062 39.8175 28.1727 39.8262C28.6913 39.8782 28.6899 39.5278 28.6798 39.1712C28.7831 38.7404 28.9978 38.3022 28.588 37.9092C28.7581 37.552 28.9985 37.6317 29.1943 37.8532C29.3375 38.0152 29.43 38.2185 29.6622 38.2799C29.7858 38.4021 29.7898 38.5325 29.7615 38.5716C30.0025 37.9517 30.7594 37.5749 31.0815 36.8619C31.1342 36.8268 31.1915 36.8099 31.2543 36.8099C31.7276 37.1509 31.2699 37.4561 31.2483 37.7438C31.4562 37.4223 31.6169 37.0165 31.91 36.6978C31.9991 36.6012 32.1098 36.5087 32.2509 36.6019C32.3691 36.6802 32.313 36.8058 32.2847 36.901C32.1679 37.2934 31.991 37.6648 31.8323 38.0686C32.2502 37.92 32.3981 37.6485 32.3157 37.2461C32.2692 37.0206 32.338 36.8126 32.4103 36.606C32.4535 36.4837 32.498 36.3271 32.6601 36.3629C32.8039 36.3946 32.7938 36.5708 32.8525 36.6931C33.0335 36.4142 33.151 36.1009 33.3765 35.8578C33.4636 35.7639 33.5628 35.6376 33.7053 35.7038C33.8795 35.7848 33.8484 35.957 33.8093 36.1063C33.7424 36.3622 33.5844 36.581 33.498 36.8281C33.4588 36.9389 33.263 37.0678 33.4892 37.1914C34.0449 37.132 34.0746 36.7653 33.997 36.3338C33.9409 35.8861 33.9889 35.456 34.2049 35.0529C34.2792 34.9739 34.3704 34.9523 34.4737 34.9739C34.7309 35.1454 34.5675 35.3574 34.5527 35.537C34.7046 35.2764 34.8639 34.982 35.109 34.7524C35.2022 34.6646 35.3258 34.5721 35.4534 34.6801C35.5432 34.7564 35.5229 34.882 35.4878 34.988C35.3636 35.3601 35.163 35.7031 35.0645 36.0887C35.2171 36.1981 35.3015 36.032 35.4169 36.0077C35.9044 35.8409 35.9618 35.483 35.8423 35.0468C35.8011 34.7605 35.7727 34.4755 35.8835 34.1987C36.0665 33.9576 36.3379 34.3121 36.5269 34.1048C36.6167 34.2095 36.637 34.3324 36.6161 34.4944C36.8294 34.1933 36.9591 33.8698 37.1913 33.6159C37.2791 33.5194 37.3878 33.4039 37.5228 33.4707C37.6613 33.5396 37.6309 33.6929 37.5931 33.8205C37.4763 34.2169 37.2636 34.5802 37.1907 34.9921C37.1805 35.0745 37.1393 35.1494 37.1339 35.2541C37.3358 35.1238 37.4736 34.9624 37.5485 34.7483C37.5937 34.512 37.6133 34.2662 37.7376 34.0548C37.8348 33.8894 37.8564 33.5822 38.1899 33.8003C38.3378 33.8968 38.4215 33.7348 38.5086 33.6477C38.6173 33.5389 38.6963 33.4046 38.799 33.2918C38.9549 33.1203 39.1237 32.809 39.3614 32.9643C39.6207 33.1331 39.3695 33.3924 39.2669 33.5957C39.1501 33.8273 38.9455 34.0143 38.9151 34.2905C38.8786 34.4357 38.7659 34.4911 38.5707 34.5464C38.8077 34.512 38.9691 34.3695 39.1494 34.4904C39.4006 34.8334 39.2527 34.982 38.8921 34.9421C38.5046 34.8996 38.2298 35.0765 37.9611 35.3041C37.9293 35.6511 37.6261 35.6565 37.3959 35.7403C37.1697 35.8227 36.9631 35.9415 36.7275 36.0759C37.0934 36.0468 37.4175 35.9226 37.7551 35.8861C37.9097 35.8693 38.0806 35.8659 38.1163 36.0664C38.1434 36.2163 38.0225 36.2987 37.903 36.3602C37.5384 36.5472 37.1434 36.6262 36.7362 36.6498C37.0273 36.6458 37.3493 36.4459 37.5505 36.8382C37.1974 37.0503 36.7936 36.901 36.4243 36.9983C36.3446 37.0867 36.2393 37.1171 36.1292 37.0948C35.4939 36.9659 34.897 37.0746 34.3974 37.3791C34.5682 37.373 34.789 37.2738 35.0213 37.24C35.2265 37.2103 35.5114 37.0732 35.6006 37.3339C35.7086 37.6485 35.3643 37.6904 35.1671 37.7924C34.8396 37.9625 34.4642 38.0199 34.1421 38.2063C33.8167 38.207 33.4494 37.8504 33.1739 38.3022C33.2124 38.4278 33.3036 38.421 33.3832 38.4089C33.5554 38.3839 33.7316 38.336 33.8376 38.5331C33.8943 38.6385 33.8754 38.7472 33.791 38.8282C33.6243 38.9883 33.4913 38.8579 33.3312 38.7891C33.182 38.7249 32.9977 38.7438 32.8289 38.7263C32.7182 38.9626 32.498 39.0038 32.2786 39.0038C31.6979 39.0038 31.172 39.1726 30.6973 39.4906C31.0774 39.4724 31.4501 39.3522 31.8323 39.2894C31.9984 39.2624 32.2199 39.2077 32.28 39.4224C32.3373 39.6264 32.1409 39.7418 31.9788 39.7891C31.1416 40.0336 30.3644 40.6102 29.4151 40.2645C29.3192 40.2294 29.2024 40.2267 29.0917 40.2739C29.5292 40.4677 30.0545 40.2584 30.5346 40.6237C29.829 41.1261 29.0903 40.9762 28.3733 40.9519C28.2727 40.8898 28.1721 40.8276 28.0708 40.7662C27.9432 40.7122 27.7305 40.827 27.694 40.6122C27.6765 40.5083 27.7494 40.3854 27.8385 40.411C27.2227 40.9762 26.3504 40.8688 25.6502 41.1734C25.7177 41.2254 26.2208 41.0147 25.9763 41.5184C25.5753 41.5995 25.2201 41.5306 24.9406 41.2078Z" fill="#E5C331"/>
<path d="M34.2016 32.0102C34.9044 32.26 35.3933 32.8036 35.8598 33.3303C35.4047 33.9556 33.2225 35.3398 32.2651 35.88C32.2651 35.88 30.3064 33.1954 29.3617 31.896L29.9019 31.5922C30.1092 31.474 30.2307 31.2478 30.4515 31.1553C31.3192 31.6212 32.2982 31.5166 33.2225 31.6962C33.5595 31.7617 33.8707 31.9177 34.2016 32.0102Z" fill="#0172BB"/>
<path d="M14.1955 33.4761C14.7992 32.9657 15.4021 32.4545 16.0057 31.944C16.683 31.7488 17.3251 31.2816 18.0799 31.6928C18.2366 31.7779 18.3635 31.6259 18.4986 31.5692C18.7956 31.445 19.0617 31.2296 19.4128 31.2667L20.618 31.8623C19.99 32.6665 17.6134 35.9496 17.6134 35.9496L14.1955 33.4761Z" fill="#0172BB"/>
<path d="M23.0818 25.3454C23.0089 25.3184 22.9359 25.2914 22.863 25.2637C21.9812 25.4305 21.1163 25.4372 20.2777 25.0463C20.1258 24.9754 20.0333 24.8869 19.9779 24.741C19.539 24.5317 19.4168 24.0381 19.3959 23.6971C19.2871 21.9042 17.2832 21.7744 15.8504 21.5599C15.4926 21.3303 15.1962 21.0481 15.0564 20.6314C17.7656 18.0213 20.5338 23.5073 22.7503 23.8517C22.9393 24.0381 22.9845 24.294 23.0791 24.5263C23.1405 24.7437 23.2425 24.9544 23.1986 25.1908C23.1797 25.2569 23.1398 25.3083 23.0818 25.3454Z" fill="#9A7241"/>
<path d="M22.57 21.6004C22.7408 21.2723 23.1412 21.4357 23.3681 21.2263C24.4626 21.1561 25.5577 21.0258 26.6515 21.2398C26.7366 21.275 26.823 21.308 26.8879 21.3776C27.0269 21.4688 27.1654 21.5599 27.3044 21.6511C27.719 21.7672 27.6522 21.3641 27.7973 21.1905C27.9547 21.0096 27.9135 20.784 27.9405 20.5734C28.1356 19.0479 30.7398 19.0206 29.9661 20.5112C30.3874 19.7698 31.0045 19.5693 31.679 19.9582C32.4107 20.3802 30.912 21.2555 30.5197 21.3925C28.6316 22.0546 30.3845 22.5256 28.06 23.5742C27.6664 23.7518 27.3942 23.8355 27.0688 23.5418C26.9648 23.4493 26.8737 23.3493 26.8514 23.2048C26.8055 21.8233 27.1552 21.8091 25.4051 21.8226C24.8359 21.8273 24.2667 21.8192 23.6976 21.8246C22.9481 21.8314 22.9116 21.8699 22.8995 22.5944C22.8961 22.7916 22.9062 22.9888 22.8981 23.1859C22.8785 23.3716 22.8812 23.5634 22.7611 23.7221C22.549 23.8436 22.3532 23.8963 22.2432 23.5965C22.3208 23.2123 22.495 22.8334 22.1797 22.4533C22.0528 22.3 18.7369 21.1865 18.8226 21.0103C18.8949 20.8644 22.4755 21.7206 22.5707 21.5984L22.57 21.6004Z" fill="#68594C"/>
<path d="M26.6063 21.3371C25.761 21.2628 24.917 21.2966 24.0716 21.3492C23.84 21.3634 23.5551 21.5261 23.3681 21.2263C23.4072 21.1541 23.4471 21.0825 23.4862 21.0103C24.2532 20.3559 24.3147 20.102 23.919 19.2087C23.9015 18.7812 23.7239 18.6982 23.4862 18.3997C24.1054 18.345 24.5801 17.7913 25.2127 18.2984C25.7198 18.6624 25.6644 19.1965 25.9588 19.6692C25.9743 20.3033 26.3605 20.7921 26.6063 21.3371Z" fill="#FEFEFE"/>
<path d="M24.9406 41.2078L25.9898 41.4732C26.0547 41.4057 26.1283 41.3949 26.21 41.4408C26.8548 41.5448 27.5003 41.6481 28.1451 41.7534C28.4887 41.8101 28.5556 42.0499 28.4955 42.3382C28.4199 42.6995 28.1592 42.6272 27.9337 42.5246C25.9426 41.6157 23.9555 41.59 21.9589 42.5131C21.7294 42.6191 21.4248 42.7251 21.3499 42.3105C21.2885 41.9668 21.4444 41.7865 21.8009 41.7372C22.4228 41.6515 23.0473 41.5644 23.7475 41.3057C23.0473 41.062 22.4511 40.8452 21.8171 40.7507C22.4768 40.176 23.096 40.7817 23.7124 40.8702C24.1074 40.9269 24.5301 41.0937 24.9406 41.2078Z" fill="#FFD51D"/>
<path d="M19.4047 31.3248C18.9563 31.4335 18.5998 31.732 18.188 31.9156C18.0529 31.9757 17.8726 32.1682 17.9138 31.7738C17.9449 31.4747 17.6836 31.6442 17.5533 31.6631C17.0341 31.7367 16.5594 32.0561 16.0057 31.944C16.0712 31.6854 15.9794 31.6064 15.7208 31.6712C15.3488 31.7637 14.9882 31.9204 14.5919 31.8913C14.44 31.9528 14.2921 32.0068 14.3063 31.7448C15.2954 31.3079 16.2853 30.8717 17.2623 30.4402C17.4817 30.6137 17.1887 30.7717 17.3284 30.9473C17.9827 30.6921 18.6471 30.4334 19.3115 30.1748C19.483 30.4854 19.7099 30.3274 19.9279 30.2484C20.4161 30.0722 20.8806 29.8223 21.414 29.7886C21.5444 29.8109 21.6598 29.8527 21.6895 30.0033C21.2304 30.5894 20.5262 30.8035 19.9219 31.1695C19.7639 31.2667 19.6059 31.3673 19.406 31.3255L19.4047 31.3248Z" fill="#FFD51D"/>
<path d="M19.9387 29.6576C19.2021 29.9311 18.4189 30.002 17.6593 30.1762C17.5141 30.2093 17.2832 30.2937 17.4304 29.9486C17.5465 29.6765 17.2731 29.7724 17.1644 29.7656C16.7518 29.7386 16.3359 29.746 15.9267 29.6961C15.8923 29.692 15.0983 30.0249 15.6283 29.3618C15.71 29.2592 15.496 29.2504 15.4055 29.2423C14.8417 29.1923 14.2779 29.1505 13.7141 29.1032C13.5406 29.089 13.2975 29.1822 13.307 28.8594C13.4501 28.7541 13.5987 28.7183 13.76 28.8196C14.7708 28.7237 15.7836 28.6413 16.7923 28.5258C17.1833 28.4813 17.4891 28.4279 17.0833 28.9789H17.7936C18.1866 28.9519 18.5755 28.7912 18.9732 28.9418C19.3358 29.2268 19.7558 29.0087 20.1447 29.0721C21.1018 29.2883 21.3305 29.4255 20.1744 29.5779C20.088 29.5894 20.0036 29.5907 19.9387 29.6576Z" fill="#FFD51D"/>
<path d="M34.2016 32.0102C33.5831 32.102 33.0564 31.7428 32.4737 31.6617C32.3434 31.6435 32.0794 31.4058 32.1213 31.8495C32.1503 32.156 31.9268 31.9426 31.8303 31.9015C31.3711 31.705 30.9768 31.3754 30.486 31.241C30.3651 31.2302 30.2429 31.2242 30.1322 31.1654C29.5373 30.7549 28.7494 30.6407 28.3179 29.9803C28.3267 29.9162 28.3605 29.8683 28.4172 29.8372C28.8135 29.7312 29.1457 29.9567 29.4678 30.0999C30.0079 30.3396 30.5629 30.2126 31.1071 30.2795C31.2226 30.3349 31.3381 30.3902 31.4535 30.4456C31.9106 30.4834 32.2253 30.9237 32.708 30.8879C32.6587 30.5665 32.6932 30.4294 33.0922 30.5719C33.8126 30.8291 34.4034 31.3727 35.1813 31.4902C35.2799 31.549 35.3832 31.6428 35.2981 31.7421C35.1867 31.8724 35.0199 31.8123 34.8747 31.7644C34.6641 31.7536 34.4487 31.7117 34.2468 31.7056C33.922 31.6955 34.0983 31.8846 34.2002 32.0095L34.2016 32.0102Z" fill="#FFD51D"/>
<path d="M36.8139 16.3651L36.583 15.96L37.903 14.5757L36.292 15.6899L36.0462 15.2847L38.4431 13.5628L38.9158 14.2043L37.7166 15.4401L39.3546 14.8121L39.7598 15.386L37.3966 17.1754L37.0927 16.669L38.7807 15.5211L36.8139 16.3651Z" fill="#050505"/>
<path d="M18.7612 11.5033L18.3223 11.7396L17.242 9.00486L17.8497 8.70099L18.8625 10.1528L18.5924 8.46465L19.2338 8.19455L20.4154 10.8619L19.9428 11.0307L19.2338 9.37625L19.4702 11.1319L19.0988 11.3007L18.0185 9.71387L18.7612 11.5033Z" fill="#050505"/>
<path d="M21.8124 22.6511C21.1973 23.0718 16.1907 21.2162 15.9186 20.9218C13.1916 17.9697 18.34 21.7447 18.1076 18.8879C18.953 18.7839 19.8037 18.5658 20.6241 19.002C19.9183 19.7454 20.9673 21.4809 21.8124 22.6511Z" fill="#68594C"/>
<path d="M28.374 40.9532C28.7804 40.7034 29.2328 40.8756 29.6588 40.8094C29.8884 40.7736 30.1112 40.6973 30.334 40.6048C29.748 40.5562 29.1639 40.5461 28.5556 40.357C28.8142 40.0984 29.1288 39.9458 29.4293 40.0673C30.5069 40.5042 31.2874 39.7094 32.1888 39.4008C31.569 39.5183 30.9492 39.6358 30.1761 39.7824C30.7452 39.1706 31.2975 38.8647 31.9964 38.8471C32.28 38.8397 32.5662 38.8667 32.8302 38.7269C33.1975 39.0011 33.2354 39.2611 32.8478 39.5723C32.0686 40.199 31.2408 40.7574 30.3394 41.1741C29.6825 41.4779 28.9816 41.4455 28.374 40.9532Z" fill="#FFD51D"/>
<path d="M37.0475 35.0488C37.0286 34.5093 37.4054 34.0933 37.5168 33.5626C37.032 33.805 37.03 34.4033 36.5897 34.7078C36.4338 34.51 36.5404 34.2865 36.4972 34.0954C36.4243 34.0177 36.425 33.9387 36.4938 33.859C36.7497 33.4174 37.0853 33.0541 37.5181 32.7773C37.8625 32.5571 38.1839 32.3532 38.2649 33.0433C38.6349 32.6827 38.9117 32.3451 39.354 32.21C39.7969 32.0743 40.0325 32.129 39.9441 32.6679C39.8374 33.3141 39.6099 33.8854 39.0488 34.2743C38.9914 34.3182 38.9387 34.3121 38.8921 34.2574C38.5822 34.011 38.9475 33.8968 39.0069 33.7307C39.09 33.4957 39.3371 33.3364 39.354 32.9846C38.8894 33.2398 38.7328 33.7186 38.3898 34.0177C38.0542 34.3108 38.0718 34.0407 38.0549 33.6348C37.9023 34.1419 37.6403 34.4046 37.7531 34.7726C37.5255 34.8841 37.4141 35.2926 37.0475 35.0488Z" fill="#FFD51D"/>
<path d="M18.9901 28.2105C18.3318 27.9971 17.6735 27.7837 16.9085 27.5352C17.1394 27.4259 17.2589 27.3691 17.4574 27.2753C16.9645 27.0558 16.5405 26.8674 16.1171 26.679C16.1252 26.2725 16.3865 26.4582 16.5783 26.4819C17.2521 26.8411 18.0151 26.704 18.7301 26.8532C19.2494 26.962 19.1413 27.1092 18.8226 27.3901C19.4269 27.5103 19.9658 27.5994 20.4917 27.7378C20.595 27.7648 21.1939 27.6062 20.7618 28.1416C20.6842 28.2375 21.1939 28.5454 21.5248 28.6062C21.9664 28.9167 21.5942 29.0232 21.1237 29.0357C20.7071 29.0168 20.2797 29.0944 19.8793 28.9141C19.7443 28.8567 19.6174 28.7561 19.4648 28.7642C19.0569 28.7858 19.0401 28.4867 18.9914 28.2092L18.9901 28.2105Z" fill="#FFD51D"/>
<path d="M32.1658 20.4525C32.2962 20.4113 27.193 24.7431 27.5077 24.741C28.0943 24.738 25.2334 21.5018 28.8811 19.0176C30.8539 17.8869 34.2536 20.2142 33.5946 19.2573C33.5149 19.106 33.1894 19.3397 33.2192 19.0176C33.837 19.0324 34.4548 19.0466 35.0726 19.0615C36.5085 19.3706 33.6209 19.4322 35.3695 19.002C35.4741 18.9764 37.56 18.7239 37.6666 18.7063C38.58 18.5531 36.9657 19.4426 36.375 19.9582C36.325 20.0021 36.3014 20.0635 36.2899 20.129C35.9618 20.7044 35.3987 20.7753 34.82 20.8151C34.0665 21.0731 33.3137 21.1669 32.5676 20.7901C32.4082 20.7098 32.1557 20.7361 32.1658 20.4525Z" fill="#68594C"/>
<path d="M23.0818 25.3454C23.0926 25.2826 23.1034 25.2191 23.1142 25.1563C23.1695 24.5621 22.9353 23.9685 23.1128 23.3743C23.1615 23.269 23.2242 23.1826 23.3559 23.1859C23.7192 23.766 23.4781 24.4061 23.5281 25.0172C23.5524 25.3157 23.4741 25.625 23.68 25.889C23.8164 26.0544 23.9366 26.2327 24.0757 26.3961C24.1938 26.5568 24.3167 26.7135 24.4632 26.8512C24.5382 26.941 24.6023 27.0383 24.6671 27.1362C24.7522 27.2665 24.8055 27.4063 24.8055 27.5643C24.7941 27.8465 24.6253 28.0829 24.5767 28.3543C24.4916 28.5414 24.5699 28.7973 24.339 28.9236C24.3174 28.9256 24.2951 28.931 24.2748 28.9276C23.9001 28.8669 23.9102 28.4725 23.7124 28.2956C23.6017 28.1963 23.2681 28.5596 22.9697 28.4286C22.2188 28.0984 22.6417 26.3974 22.8347 25.8525C22.8704 25.7499 22.9096 25.6486 22.9656 25.5554C23.0041 25.4852 23.0433 25.4156 23.0818 25.3454Z" fill="#9A7241"/>
<path d="M11.7392 15.2172L13.2631 16.3314L12.943 16.7365L10.5238 15.0484L10.9289 14.3731L12.6169 14.9471L11.2328 13.9005L11.5859 13.5291L13.9335 15.386L13.6972 15.7912L11.7392 15.2172Z" fill="#050505"/>
<path d="M8.73455 22.4763L10.6251 22.799L10.5596 23.2528L7.65424 22.799L7.72176 22.1447L9.47727 21.9361L7.91554 21.6308V21.1258L10.8277 21.6308V22.1447L8.73455 22.4763Z" fill="#050505"/>
<path d="M28.0033 8.85296L28.3827 7.55311H28.8891L28.3314 10.4567H27.821L27.3753 8.61864L27.1552 10.2541H26.6272L27.1552 7.31677L27.775 7.48558L28.0026 8.85431L28.0033 8.85296Z" fill="#050505"/>
<path d="M41.3694 20.9515C41.6463 20.9556 42.1182 21.0386 42.2654 21.6261C42.364 22.0171 41.8191 22.51 41.3492 22.6788L41.3127 22.1724C41.5828 22.1049 41.782 21.9077 41.7158 21.726C41.6577 21.5667 41.5126 21.5099 41.3492 21.5039C40.9056 21.4877 40.4795 21.5687 40.0737 21.7456C39.907 21.8185 39.7712 21.9313 39.8104 22.1454C39.8327 22.2669 39.9623 22.4087 39.9623 22.4087H40.4012L40.3337 22.0603L40.8401 21.9698L40.9076 22.7801C40.9076 22.7801 39.5153 23.0124 39.5295 22.9644C39.6922 22.5775 39.2345 22.3945 39.2405 22.0603C39.2459 21.7699 39.3769 21.5626 39.5883 21.3891C39.913 21.1223 40.5315 20.9481 41.3681 20.9529L41.3694 20.9515Z" fill="#050505"/>
<path d="M26.4888 8.58893C26.4645 8.97923 26.4395 9.37088 26.2619 9.73079C26.1148 10.0286 25.8825 10.2021 25.5388 10.1906C25.1958 10.1792 24.9534 9.99684 24.8447 9.6869C24.5983 8.98261 24.6307 8.27494 24.9156 7.58685C25.0439 7.27691 25.2951 7.12363 25.6381 7.13241C25.9838 7.14186 26.2106 7.3235 26.3349 7.63074C26.4584 7.93596 26.5003 8.26008 26.4895 8.59028L26.4888 8.58893Z" fill="#050505"/>
<path d="M32.5845 27.1632C32.5014 27.1794 32.3448 27.203 32.3455 27.2104C32.4157 27.9053 31.7688 27.7162 31.4616 27.9418C31.2435 28.1018 30.6581 27.8918 30.8688 28.515C30.9019 28.613 30.7385 28.5954 30.6629 28.594C30.0167 28.5819 29.3867 28.827 28.7345 28.7122C28.6737 28.6069 28.6825 28.515 28.7858 28.4401C28.8459 28.2362 29.6724 28.5731 29.1403 27.9235C29.039 27.7999 29.3024 27.7959 29.403 27.7729C29.9053 27.6575 30.4117 27.5609 30.9154 27.4488C31.0329 27.4225 31.2712 27.4562 31.1017 27.201C31.0491 27.072 31.1051 26.9984 31.228 26.9701C31.8674 26.8202 32.5143 26.7081 33.157 26.575C33.2968 26.546 33.5601 26.4353 33.606 26.7499C33.2658 26.8877 32.9248 27.0254 32.5845 27.1632Z" fill="#FFD51D"/>
<path d="M39.5234 25.5149V25.0422L42.4943 25.1435V25.7174L40.6713 26.3502H42.4943V26.7641L39.4897 26.6966V26.1226L41.5828 25.5149H39.5234Z" fill="#050505"/>
<path d="M14.3731 10.9517C15.0652 10.9557 16.2245 12.3271 16.1151 13.0119C16.0294 13.5473 15.4636 13.8201 14.9491 13.5359C14.3339 13.1955 13.9052 12.6634 13.6655 12.0105C13.4623 11.4554 13.8276 10.9483 14.3731 10.9517Z" fill="#050505"/>
<path d="M39.9056 17.4496C40.1986 17.1127 40.0967 16.846 39.9056 16.8068C39.6814 16.7602 39.5937 16.9263 39.5741 17.1127C39.5518 17.3288 39.5802 17.5509 39.5444 17.7636C39.4681 18.2133 39.1399 18.4166 38.7281 18.4929C38.3479 18.5631 38.0427 18.4281 37.8436 18.0864C37.6579 17.7663 37.7004 17.2767 38.1055 16.9729L38.5107 17.2767C38.173 17.5468 38.2196 17.9095 38.5525 17.9527C38.8807 17.9952 38.9158 17.7008 38.8921 17.4496C38.8321 16.8 39.1116 16.3929 39.749 16.2733C40.3195 16.166 40.9751 16.8068 40.3674 17.7636L39.9056 17.4496Z" fill="#050505"/>
<path d="M30.1855 11.1171C29.4968 11.1171 29.3955 10.0853 29.3955 10.0853H29.9357C29.9357 10.0853 29.9019 10.5587 30.2199 10.5587C30.3334 10.5674 30.4252 10.5026 30.4765 10.3925C30.5832 10.1663 30.434 10.0299 30.307 9.87799C29.8162 9.29052 29.7797 8.80704 30.1936 8.38838C30.407 8.17297 30.6541 8.06898 30.9626 8.175C31.4886 8.35571 31.5561 9.07241 31.5561 9.07241L30.9897 9.13993C30.9897 9.13993 30.9173 8.46468 30.5697 8.778C30.3644 8.96302 30.5271 9.14669 30.6676 9.27769C31.072 9.65584 31.2807 10.0711 30.9897 10.6113C30.8222 10.9213 30.5717 11.1056 30.1855 11.1171Z" fill="#050505"/>
<path d="M33.2948 12.7019C32.5014 12.6175 32.4892 11.8882 32.5689 11.4021L33.1091 11.6384C33.0875 11.9153 33.1422 12.2441 33.4643 12.1124C33.7667 11.9888 33.6702 11.7194 33.5257 11.5054C33.1611 10.9672 33.1982 10.483 33.7087 10.063C33.9497 9.86449 34.2326 9.83208 34.5081 9.96848C34.9321 10.1191 34.9476 10.7113 34.9321 11.0361H34.3919C34.5081 10.7943 34.3278 10.3588 34.0631 10.481C33.7667 10.6181 33.9416 10.8456 34.0328 11.0361C34.4575 11.9254 34.0895 12.7573 33.2948 12.7019Z" fill="#050505"/>
<path d="M11.1261 20.4322C11.0842 20.8475 10.7601 21.2608 10.2193 21.2608V20.7658C10.4813 20.6929 10.7149 20.547 10.4867 20.2702C10.2409 19.971 10.0343 20.2357 9.84458 20.4174C9.31455 20.9265 8.7987 20.9718 8.36185 20.5531C7.96686 20.1743 8.16064 19.1337 9.13967 19.1337L9.13967 19.6564C8.95062 19.7232 8.53199 19.7414 8.72646 20.1527C8.89661 20.3607 9.08431 20.2459 9.2234 20.0872C9.59273 19.6665 9.98907 19.3626 10.5846 19.6564C10.9046 19.8144 11.0923 20.0568 11.1261 20.4322Z" fill="#050505"/>
<path d="M37.6666 13.5291L37.059 12.8201L36.5863 13.2928L37.059 13.833L36.6876 14.1706L36.1812 13.6642L35.6748 14.1031L36.3163 14.7784L35.9449 15.1835L34.8308 14.1031L37.059 12.0098L38.1055 13.1577L37.6666 13.5291Z" fill="#050505"/>
<path d="M41.9535 27.5589C42.2897 27.8141 42.3897 28.1599 42.204 28.5454C41.9994 28.9708 41.0089 28.9924 41.0089 28.9924V28.4522C41.0089 28.4522 41.7057 28.4799 41.7192 28.2233C41.7448 27.7548 40.7459 27.7061 40.4343 27.6717C40.225 27.6487 39.961 27.5893 39.8421 27.8256C39.6956 28.1166 40.1568 28.2909 40.1568 28.2909L40.1568 28.7561C40.1568 28.7561 39.2177 28.5454 39.2534 27.8877C39.277 27.4522 39.5471 27.224 39.9529 27.1443C40.8715 26.9656 41.9535 27.5589 41.9535 27.5589Z" fill="#050505"/>
<path d="M8.70077 18.4584L9.37596 17.0404L9.8486 17.3234L9.47724 18.1546L10.0512 18.3909L10.3888 17.7231L10.8952 17.9858L10.5913 18.661L11.1315 18.9311L11.5366 18.0567L12.0767 18.2937L11.4353 19.7077L8.70077 18.4584Z" fill="#050505"/>
<path d="M10.0208 26.7054H10.5947L10.7298 28.0559L7.86019 28.5286L7.66775 27.0842H8.1701L8.26531 27.9208L8.9405 27.8195L8.83922 27.0842L9.37938 27.043L9.48066 27.6845L10.1221 27.6507L10.0208 26.7054Z" fill="#050505"/>
<path d="M39.5181 23.3541L42.4605 23.219L42.528 24.637L42.0082 24.6708V23.7491H41.3228L41.3127 24.502H40.809V23.793H40.0609L40.0973 24.7721H39.5181V23.3541Z" fill="#050505"/>
<path d="M7.49952 24.8734V23.3203H8.12688V24.2994H8.73455V23.5796H9.30847V24.2994H10.0174V23.4891H10.4901V24.8734H7.49952Z" fill="#050505"/>
<path d="M17.0415 38.7317C17.8868 38.8789 18.7896 38.8525 19.4621 39.5271C19.5053 39.5703 19.5451 39.6169 19.643 39.7229C18.9266 39.7553 18.3237 39.4474 17.4966 39.3954C18.1772 39.7992 18.7767 39.8877 19.3432 40.1099C19.0752 40.4691 18.6376 40.1362 18.3716 40.3962C17.8315 40.2571 17.4088 39.9363 17.0003 39.5663C16.6364 39.2368 16.6391 38.991 17.0415 38.7317Z" fill="#FEFEFE"/>
<path d="M7.5901 26.6041L7.55634 25.1523H8.0965V26.0639H8.80545V25.2873H9.37937V26.0301L10.5947 25.9963V26.469C9.59143 26.5262 8.59467 26.5855 7.5901 26.6041Z" fill="#050505"/>
<path d="M12.964 12.014L13.4271 12.4487L12.8532 13.0227L13.3596 13.5291L13.7985 13.0902L14.2036 13.4616L13.731 13.9005L14.575 14.7108L14.2036 15.1497L11.9755 13.0902L12.964 12.014Z" fill="#050505"/>
<path d="M41.9541 29.3639V29.8365L40.6713 29.8703L41.6165 30.5456L41.4815 31.1195L40.1986 30.0391L38.9495 29.7352L38.9833 29.0938L40.2324 29.4651L41.9541 29.3639Z" fill="#050505"/>
<path d="M13.442 34.2486C13.3259 34.3715 13.4332 34.6153 13.178 34.6916C12.9363 34.3074 12.6892 33.9151 12.355 33.3836C12.3577 34.0069 12.7142 34.3324 12.7803 34.7504C12.8033 34.8955 13.0443 35.0502 12.7709 35.1845C12.5454 35.2953 12.4312 35.0981 12.355 34.9705C12.039 34.4458 11.8384 33.8766 11.7986 33.258C11.7864 33.0656 11.8452 32.863 11.7284 32.6834C11.8634 32.4221 12.0255 32.6024 12.1558 32.6739C12.7695 33.0095 13.2273 33.489 13.467 34.1582C13.5156 34.1933 13.5278 34.2189 13.5041 34.2338C13.4886 34.2439 13.4683 34.2486 13.442 34.2486Z" fill="#FFD51D"/>
<path d="M33.2104 9.27502L33.7167 9.57888L32.3664 10.5918L31.5899 11.8072L31.1848 11.5371L31.8937 10.2879L31.9612 8.70105L32.4676 8.97115L32.4339 9.95027L33.2104 9.27502Z" fill="#050505"/>
<path d="M35.1124 34.2284C35.238 34.1318 35.3636 34.0353 35.4885 33.9394C35.6681 33.8887 35.8511 33.7571 36.0259 33.9536C36.0523 34.0082 36.0401 34.0521 35.9908 34.0866C35.9834 34.4391 35.976 34.7922 35.9685 35.1447C35.9848 35.5681 35.8207 35.8929 35.4432 36.1002C35.3102 36.3446 35.0874 36.3791 34.7951 36.3737C34.9436 35.7936 35.2008 35.2798 35.4048 34.7409C34.9476 35.0042 34.8329 35.5418 34.4494 35.8618C34.3008 35.5424 34.529 35.2872 34.5223 35.007C34.4149 34.516 34.8768 34.4586 35.1124 34.2284Z" fill="#FFD51D"/>
<path d="M11.54 33.046C11.4218 33.4458 11.8587 33.7327 11.7567 34.1609C11.1855 33.9171 10.9938 33.2729 10.3928 32.8914C10.5272 33.3472 10.775 33.5889 10.9431 33.8759C11.0086 33.9873 11.2348 34.1669 10.8952 34.2453C10.8445 34.3195 10.7946 34.3195 10.7446 34.2439C10.1889 33.8205 10.0026 33.2081 9.87968 32.5605C9.80879 32.1871 9.98164 32.0892 10.3118 32.1607C10.8493 32.2769 11.2362 32.6037 11.5386 33.046L11.54 33.046Z" fill="#FFD51D"/>
<path d="M34.0206 13.3265L35.5398 11.5709L35.2022 11.2333L35.6073 10.7606L36.7551 11.8072L36.35 12.2461L35.9787 11.8747L34.3919 13.6979L34.0206 13.3265Z" fill="#050505"/>
<path d="M23.285 7.28296L23.3187 7.89069L22.8799 7.92445L23.1837 10.3216H22.6436L22.3735 7.99197L21.8333 8.09326L21.7658 7.41801L23.285 7.28296Z" fill="#050505"/>
<path d="M37.5505 36.8382C37.2305 36.637 36.8639 36.8193 36.4743 36.7012C36.9813 36.402 37.5809 36.4203 37.9995 36.003C37.4607 36.1123 36.9219 36.2217 36.2832 36.3521C36.6944 35.643 37.454 35.6707 37.9611 35.3041C38.2946 35.4175 38.8253 35.3689 38.8746 35.7538C38.9165 36.0806 38.4701 36.3196 38.1818 36.5391C37.9955 36.6809 37.7929 36.8058 37.5505 36.8382Z" fill="#FFD51D"/>
<path d="M18.5195 40.5596C19.19 40.386 19.8564 40.1943 20.5322 40.0464C20.8239 39.9822 21.0589 40.1787 21.3222 40.3543C20.7105 40.5494 20.1305 40.5576 19.4904 40.5704C20.1427 41.0491 20.8887 40.6116 21.4978 40.9445C20.5572 41.5846 19.4681 41.4442 18.5181 40.5596H18.5195Z" fill="#FFD51D"/>
<path d="M34.1428 38.2077C34.0645 38.0307 34.0902 37.9578 34.3123 37.9105C34.7451 37.8187 35.1671 37.6715 35.5047 37.3204C35.0064 37.4196 34.5081 37.5189 33.9983 37.6209C34.4676 36.9274 35.2069 36.741 36.4243 36.9983C36.2204 37.9011 35.1448 38.471 34.1428 38.2077Z" fill="#FFD51D"/>
<path d="M13.3644 37.0253C14.1807 36.8247 14.9842 36.6971 15.6911 37.4365C15.211 37.6992 14.7978 37.2994 14.3123 37.392C14.6891 37.7478 15.1516 37.7883 15.5669 37.9085C15.7728 37.9679 15.8228 38.0193 15.7384 38.2023C14.7667 38.4676 13.7452 37.9612 13.3644 37.0253Z" fill="#FFD51D"/>
<path d="M11.8222 35.1771C11.9863 35.3351 12.0822 35.537 12.3745 35.5735C12.9221 35.6417 12.9235 35.6809 13.5892 36.3372C13.2422 36.2778 12.9511 36.2339 12.6635 36.1758C12.4029 36.1231 12.1456 36.0536 11.887 35.9915L11.8418 36.1461C12.3138 36.3129 12.7857 36.4797 13.3063 36.664C12.9586 36.8443 12.6061 36.6249 12.3313 36.845C12.0619 36.8126 11.8452 36.6633 11.6352 36.5114C10.7952 35.9057 10.8081 35.7565 11.7135 35.327C11.7628 35.3034 11.7871 35.2271 11.8229 35.1758L11.8222 35.1771Z" fill="#FFD51D"/>
<path d="M31.515 22.1724C30.9741 22.2831 30.9039 22.7463 30.8539 23.1555C30.6082 25.1719 29.1052 25.7404 27.6002 25.4582C27.5259 25.5115 27.4908 25.6094 27.3949 25.6378C27.0729 25.6432 26.9392 25.4298 27.004 25.1725C27.0756 24.8882 27.3335 25.0739 27.5077 25.0814C28.3746 25.1185 29.1903 25.0679 29.8195 24.3197C30.0511 24.0442 30.1565 23.7504 30.2625 23.4351C30.3813 23.0826 30.4414 22.7105 30.5926 22.3709C30.7783 21.9556 31.068 21.7429 31.5305 22.0036C31.5629 22.0637 31.5602 22.1197 31.515 22.1724Z" fill="#68594C"/>
<path d="M21.177 12.683L21.6632 13.3906L22.4864 13.1467L21.9638 13.8279L22.45 14.5354L21.6408 14.2488L21.1182 14.93L21.1406 14.0717L20.3314 13.7851L21.1545 13.5413L21.177 12.683Z" fill="#0172BB"/>
<path d="M24.8042 12.2124L25.0695 13.0289H25.9279L25.2334 13.5335L25.4987 14.3501L24.8042 13.8454L24.1097 14.3501L24.3749 13.5335L23.6804 13.0289H24.5389L24.8042 12.2124Z" fill="#0172BB"/>
<path d="M28.1439 12.6532L28.1888 13.5106L29.018 13.7328L28.2165 14.0405L28.2615 14.8979L27.7212 14.2307L26.9198 14.5383L27.3873 13.8183L26.8471 13.1511L27.6763 13.3733L28.1439 12.6532Z" fill="#0172BB"/>
<path d="M31.2905 13.8279L31.1445 14.6739L31.904 15.0742L31.0543 15.1968L30.9083 16.0429L30.5292 15.2726L29.6795 15.3952L30.2948 14.7965L29.9157 14.0262L30.6752 14.4265L31.2905 13.8279Z" fill="#0172BB"/>
<path d="M18.1168 14.1149L18.7809 14.6589L19.5035 14.1954L19.1914 14.9952L19.8555 15.5392L18.9985 15.4895L18.6864 16.2892L18.4688 15.4587L17.6118 15.409L18.3344 14.9454L18.1168 14.1149Z" fill="#0172BB"/>
<path d="M15.577 16.1887L16.3577 16.5458L16.9385 15.9135L16.8402 16.7664L17.6209 17.1235L16.7794 17.2936L16.6811 18.1465L16.2593 17.3987L15.4179 17.5687L15.9987 16.9365L15.577 16.1887Z" fill="#0172BB"/>
<path d="M12.4269 21.828L13.2846 21.7895L13.513 20.9619L13.8146 21.7657L14.6722 21.7272L14.001 22.2625L14.3026 23.0663L13.5862 22.5933L12.9149 23.1286L13.1434 22.301L12.4269 21.828Z" fill="#0172BB"/>
<path d="M11.9802 25.0753L12.8048 24.8368L12.8328 23.9787L13.3145 24.6893L14.1392 24.4507L13.6122 25.1285L14.094 25.8391L13.2866 25.5474L12.7596 26.2252L12.7876 25.3671L11.9802 25.0753Z" fill="#0172BB"/>
<path d="M12.4442 28.3382L13.1666 27.8743L12.9487 27.0438L13.613 27.5876L14.3354 27.1237L14.0236 27.9236L14.688 28.4674L13.8309 28.418L13.5191 29.218L13.3012 28.3875L12.4442 28.3382Z" fill="#0172BB"/>
<path d="M33.8932 15.8833L33.5041 16.6486L34.1116 17.2552L33.2636 17.1216L32.8745 17.8869L32.7395 17.039L31.8915 16.9054L32.656 16.515L32.521 15.6671L33.1286 16.2737L33.8932 15.8833Z" fill="#0172BB"/>
<path d="M37.3518 21.7945L36.6318 22.2621L36.854 23.0914L36.1869 22.5511L35.4669 23.0187L35.7745 22.2171L35.1074 21.6768L35.9647 21.7218L36.2723 20.9202L36.4945 21.7495L37.3518 21.7945Z" fill="#0172BB"/>
<path d="M37.8017 25.1435L36.9852 25.4088V26.2674L36.4806 25.5728L35.6642 25.8381L36.1688 25.1435L35.6642 24.4489L36.4806 24.7142L36.9852 24.0196V24.8782L37.8017 25.1435Z" fill="#0172BB"/>
<path d="M37.3518 28.3484L36.4945 28.3933L36.2723 29.2226L35.9647 28.4211L35.1074 28.466L35.7745 27.9257L35.4669 27.1242L36.1868 27.5918L36.854 27.0515L36.6318 27.8808L37.3518 28.3484Z" fill="#0172BB"/>
<path d="M13.5838 20.2047C13.0355 19.7428 12.3482 19.414 12.0099 18.5138C12.9775 18.9764 13.918 18.8589 14.8133 19.054C14.7863 19.1514 14.5903 19.9673 14.5412 19.944C14.4433 19.8974 14.076 19.6543 13.9714 19.626C13.8242 19.5861 13.675 19.5625 13.4812 19.5625C13.6101 19.7813 13.9437 19.9157 13.7526 20.231C13.6912 20.256 13.6344 20.2479 13.5838 20.2047Z" fill="#68594C"/>
<path d="M23.6564 7.21546H24.1965L24.3316 10.2541H23.8252L23.6564 7.21546Z" fill="#050505"/>
<path d="M31.1085 30.2788C31.0653 30.2761 31.0072 30.2538 30.9809 30.2741C30.1848 30.8798 29.5501 30.0884 28.8338 30.0107C28.6859 29.9945 28.5326 29.8723 28.3544 29.9189C28.1863 29.6285 28.1363 29.3895 28.5941 29.374C29.2321 29.5381 29.8702 29.7015 30.5049 29.8649C30.6851 30.029 30.9998 30.0033 31.1085 30.2788Z" fill="#0172BB"/>
<path d="M12.8532 17.0067L12.5156 17.5131L9.91613 15.96L10.2875 15.4536L12.8532 17.0067Z" fill="#050505"/>
<path d="M14.1901 19.2195C14.4589 19.1479 14.6364 19.1013 14.8133 19.054C15.9119 18.9987 17.0091 18.9433 18.1076 18.8879C19.3959 22.2625 14.9752 19.3828 14.1901 19.2195Z" fill="#68594C"/>
<path d="M19.3 22.5933C19.8003 22.5933 20.3155 19.002 20.6241 19.002C20.9137 19.0054 21.1534 19.1479 21.3958 19.2809C22.2087 19.8036 22.6226 21.119 22.1426 21.8881C21.9203 21.9437 19.9899 22.9211 19.3 22.5933Z" fill="#C4934F"/>
<path d="M21.3627 29.8973C20.6761 30.1471 19.9894 30.397 19.3 30.6475C19.1164 30.478 19.3439 30.3288 19.3108 30.1735C19.7889 29.9851 20.2662 29.7967 20.7443 29.6083C21.069 29.3942 21.4174 29.2463 21.8124 29.2254C21.9812 29.2234 22.1473 29.2335 22.2938 29.3335C22.3451 29.3848 22.3627 29.4462 22.3472 29.5164C22.1075 29.8703 21.7098 29.8196 21.3627 29.8973Z" fill="#0172BB"/>
<path d="M19.693 24.342C19.6653 24.7181 20.2925 24.1468 20.0778 24.6546C19.9293 24.7613 19.776 24.7154 19.6228 24.6681C19.2953 24.138 20.358 23.5232 20.2777 22.9276C20.1946 22.3124 17.8153 20.8732 17.3284 20.8489C16.8666 20.8259 17.215 22.0711 16.7957 21.8753C16.6221 21.745 19.7546 23.5043 19.693 24.342Z" fill="#68594C"/>
<path d="M36.2447 20.0595C36.2974 20.0615 36.3487 20.0642 36.4013 20.0669C36.294 20.5322 35.9415 20.784 35.5283 20.8293C35.053 20.8813 34.7235 21.0798 34.4473 21.4384C34.3839 21.5207 34.2779 21.6227 34.1894 21.6247C33.263 21.6443 32.4771 22.3425 31.515 22.1724C31.5136 22.1244 31.5123 22.0778 31.5109 22.0299C32.2786 21.7861 32.9889 21.3567 33.8106 21.2878C34.24 21.252 34.396 20.78 34.7957 20.7145C35.3872 20.7361 35.8929 20.5686 36.2447 20.0595Z" fill="#68594C"/>
<path d="M23.4464 18.2221C24.0966 18.2194 24.0595 18.7455 24.1682 19.1594C23.6901 19.26 23.3194 19.1625 23.0149 19.0574C23.019 18.7178 23.1128 18.2654 23.4464 18.2221Z" fill="#FFD51D"/>
<path d="M19.6228 24.6681C19.7747 24.6634 19.9259 24.6593 20.0778 24.6546C20.6133 25.2894 21.3843 25.207 22.0825 25.2394C22.2655 25.2482 22.5896 25.2961 22.8212 25.0929C22.9062 25.0179 22.8603 25.1975 22.863 25.2637C22.175 25.7134 20.4215 25.6223 19.907 24.8038C19.8597 24.7289 19.72 24.712 19.6228 24.6681Z" fill="#68594C"/>
<path d="M26.21 41.4408C26.1364 41.4516 26.0634 41.4624 25.9898 41.4732C25.9777 41.0957 25.6111 41.2915 25.478 41.1707C26.1937 40.6237 27.1876 40.8553 27.9641 40.2496C27.7656 40.5278 27.8007 40.6872 28.0708 40.7662C27.4395 40.7952 26.8743 41.0795 26.2748 41.2315C26.1559 41.2612 26.2039 41.3618 26.21 41.4408Z" fill="#FFD51D"/>
<path d="M33.606 26.7499C32.7128 26.5784 31.9012 26.8526 31.1017 27.201C30.8924 27.1213 30.7533 26.9836 31.0761 26.9147C32.3211 26.6473 33.5736 26.415 34.8383 26.2165C34.4703 26.5008 34.0659 26.6885 33.606 26.7499Z" fill="#E5C331"/>
<path d="M21.8401 29.3483C21.4728 29.4354 21.1062 29.5225 20.7416 29.6096C20.4755 29.6252 20.2075 29.6414 19.9387 29.6576C20.5598 29.1225 21.5487 29.2409 20.0468 29.2409C20.4463 28.5781 21.3119 29.4476 21.5234 28.6082C21.6875 28.6406 21.8522 28.6724 22.0163 28.7048C22.2965 29.012 22.2054 29.218 21.8401 29.3483Z" fill="#E5C331"/>
<path d="M27.4226 25.5851C27.4813 25.5426 27.5414 25.5007 27.6002 25.4582C27.7643 25.6553 27.9418 25.8424 28.0877 26.0517C28.3922 26.4886 28.692 26.9046 28.5488 27.5211C28.4854 27.7945 28.6981 28.1315 28.7858 28.4401C28.7689 28.5306 28.7521 28.6217 28.7345 28.7122C28.7109 28.7122 28.6866 28.7115 28.6636 28.7068C28.4469 28.669 28.3044 28.5286 28.1856 28.357C28.1694 28.3003 28.1673 28.2436 28.1781 28.1855C28.5054 27.4424 27.8708 26.295 27.405 25.7593C27.3841 25.6986 27.3909 25.6405 27.4226 25.5851Z" fill="#B2ACA2"/>
<path d="M33.2192 19.0176C33.3441 19.0973 33.4697 19.1776 33.5946 19.2573C32.8937 19.4423 32.201 19.2121 31.4913 19.2728C31.5096 18.9413 31.8323 19.0702 31.9133 18.892C32.3556 18.8609 32.7945 18.869 33.2192 19.0176Z" fill="#9A7241"/>
<path d="M22.9656 25.5554C22.9629 25.6547 22.9609 25.7553 22.9582 25.8545C22.8563 26.047 22.705 26.1928 22.5423 26.336C22.1379 26.6919 21.8185 27.0768 22.1426 27.6689C22.2351 27.8378 22.2094 28.0464 22.0805 28.2179C22.0224 28.2584 21.965 28.2564 21.9096 28.2125C21.4296 27.2618 21.5133 26.7877 22.3013 26.0848C22.5119 25.8964 22.7435 25.731 22.9656 25.5554Z" fill="#B2ACA2"/>
<path d="M21.3958 19.2809C22.1324 19.5936 22.443 20.1068 22.3802 20.9218C22.3607 21.1737 22.2256 21.4525 22.57 21.6004C22.5761 21.7773 22.5126 21.8915 22.3154 21.8881C21.6663 21.6574 22.2012 20.006 21.3958 19.2809Z" fill="#68594C"/>
<path d="M13.5838 20.2047C13.6453 20.1999 13.7074 20.1952 13.7688 20.1905C14.2165 20.3465 14.6803 20.4619 15.0922 20.7091C15.4534 20.8739 15.552 21.2979 15.8734 21.5018C15.9186 21.5322 15.9335 21.5626 15.9186 21.5937C15.9038 21.6241 15.8889 21.6396 15.8734 21.6396C15.6776 21.647 15.5534 21.5214 15.4473 21.3877C15.1989 21.0724 14.918 20.8732 14.4832 20.8489C14.0862 20.8266 13.7641 20.5862 13.5825 20.2047H13.5838Z" fill="#68594C"/>
<path d="M14.1955 33.4761C14.3643 33.9846 14.893 34.0879 15.2367 34.3992C15.4446 34.5876 15.7377 34.6693 15.8984 34.9192C15.8126 35.0029 15.7167 35.0198 15.6094 34.9637C15.5236 34.9799 15.4386 34.9961 15.3528 35.0124C14.9173 34.6511 14.5156 34.2459 13.9991 33.992C13.9464 33.9603 13.9032 33.9184 13.8687 33.8678C13.9795 33.7381 14.0105 33.5437 14.1955 33.4761Z" fill="#D3DDD1"/>
<path d="M26.6063 21.3371C26.293 20.8306 25.95 20.3863 25.8204 19.6827L25.9635 19.4214C26.1242 20.0541 26.2307 20.7294 26.8879 21.3776C26.794 21.3641 26.6995 21.3506 26.6063 21.3371Z" fill="#B2ACA2"/>
<path d="M23.4822 19.2755C23.6753 19.2337 23.8988 19.3512 24.0662 19.1675C24.4112 20.2222 24.0662 20.6571 23.4862 21.0089C23.5774 20.8914 23.6638 20.7692 23.7617 20.6571C24.2235 20.1297 24.0662 20.1216 24.0662 19.4126L23.4822 19.2755Z" fill="#B2ACA2"/>
<path d="M34.8761 31.7644C35.0037 31.7009 35.344 31.8765 35.1826 31.4902C35.6283 31.6232 36.0712 31.763 36.5728 32.1391C35.9017 32.0257 35.3771 31.9561 34.8761 31.7644Z" fill="#DCB610"/>
<path d="M25.9635 19.4214C25.9203 19.5098 25.8771 19.599 25.8339 19.6881C25.8116 18.8049 25.952 17.5469 23.5551 18.1209C26.1715 17.4943 25.8332 17.8926 25.9635 19.4214Z" fill="#B2ACA2"/>
<path d="M27.8689 21.225C27.7568 21.4681 27.8952 22.0427 27.3044 21.6511C27.7744 21.4512 27.4678 21.0204 27.5833 20.7145C27.6414 20.6767 27.7008 20.6726 27.7622 20.7057C27.931 20.8509 27.9911 21.0197 27.8689 21.225Z" fill="#68594C"/>
<path d="M21.9096 28.2125C21.9623 28.2051 22.015 28.197 22.0676 28.1902C22.1988 28.0996 22.4791 28.2988 22.518 28.4198C22.5004 28.7494 22.3762 29.0519 22.2803 29.3611C22.1331 29.3571 21.9859 29.3524 21.8401 29.3483C22.0629 29.1781 22.0913 28.9553 22.0177 28.7041C22.0629 28.5225 21.9819 28.3685 21.911 28.2119L21.9096 28.2125Z" fill="#68594C"/>
<path d="M27.7069 20.7057C27.6657 20.7091 27.6245 20.7118 27.5833 20.7145C27.5117 20.0953 27.8061 19.676 28.3139 19.3714L28.3665 19.395C28.2673 19.8927 27.9648 20.2884 27.7069 20.7057Z" fill="#68594C"/>
<path d="M16.5783 26.4819C16.4075 26.5075 16.2103 26.4724 16.1171 26.679C15.8187 26.5798 15.5095 26.5014 15.186 26.2293C15.7323 26.23 16.161 26.3211 16.5776 26.4832L16.5783 26.4819Z" fill="#E5C331"/>
<path d="M35.9908 34.0866C36.0023 34.042 36.0145 33.9974 36.0259 33.9536C36.1718 33.8691 36.3169 33.7915 36.4938 33.859C36.4945 33.938 36.4965 34.0164 36.4972 34.0954C36.427 34.2608 36.3568 34.4262 36.2825 34.6004C35.9881 34.5154 36.159 34.2081 35.9908 34.0866Z" fill="#0172BB"/>
<path d="M15.8747 21.6396C15.8747 21.5937 15.8747 21.5478 15.8747 21.5018C16.2463 21.4817 16.7864 21.3259 16.7957 21.8753C16.5472 21.568 16.1624 21.7942 15.8747 21.6396Z" fill="#68594C"/>
<path d="M32.7094 30.8879C32.2057 30.9824 31.8411 30.6833 31.4549 30.4456C31.9714 30.3146 32.2779 30.7785 32.7094 30.8879Z" fill="#74966E"/>
<path d="M36.1157 28.8588C36.2346 28.8466 36.3534 28.8351 36.4722 28.823C36.5796 28.875 36.7329 28.8135 36.8173 28.987C36.508 29.1829 36.1725 29.1451 35.8376 29.1093C35.9301 29.0255 36.0232 28.9425 36.1157 28.8588Z" fill="#E5C331"/>
<path d="M14.3063 31.7448C14.363 31.869 14.4811 31.8717 14.5919 31.8913C14.2759 32.0453 13.9342 32.0689 13.5129 32.129C13.7681 31.8393 14.0254 31.7671 14.3063 31.7448Z" fill="#E5C331"/>
<path d="M13.442 34.2486C13.4582 34.2203 13.4663 34.1899 13.467 34.1568C13.6007 34.0609 13.7351 33.9637 13.8687 33.8678L13.8741 33.8968C13.9923 33.9482 13.9511 34.0116 13.8883 34.0771C13.8566 34.1521 13.8201 34.225 13.7938 34.3013C13.7573 34.408 13.808 34.591 13.6358 34.5856C13.4359 34.5795 13.4954 34.3702 13.442 34.2486Z" fill="#0172BB"/>
<path d="M38.8921 34.2574C38.9441 34.2628 38.9961 34.2689 39.0488 34.2743C39.0825 34.3466 39.1156 34.4181 39.1494 34.4904C38.8746 34.5775 38.5991 34.6659 38.2318 34.7828C38.3986 34.4316 38.747 34.4715 38.8921 34.2574Z" fill="#E5C331"/>
<path d="M10.7446 34.2439C10.7946 34.2439 10.8445 34.2446 10.8952 34.2453C11.0464 34.5113 11.4164 34.4208 11.6149 34.6963C11.2598 34.7713 11.0187 34.5025 10.725 34.4816C10.7318 34.4026 10.7392 34.3236 10.746 34.2446L10.7446 34.2439Z" fill="#E5C331"/>
<path d="M19.4513 37.2535C20.7098 37.3467 21.9096 37.8059 23.1763 37.8511C23.3282 37.8565 23.4788 37.8883 23.6307 37.8984L24.6793 37.9261C24.6793 37.9261 24.68 40.3016 24.6793 40.9539C24.366 40.9654 24.1648 40.8749 24.2242 40.5002C24.2512 40.3313 24.2782 40.151 24.1661 39.9924C23.8137 39.338 23.4187 38.7236 22.6895 38.4244C22.1973 38.3123 21.6126 38.4616 21.2689 37.9261C21.0319 37.7701 20.7652 37.6296 20.7449 38.0794C20.7267 38.4926 20.5046 38.4528 20.2345 38.3954C19.9401 38.0368 19.5505 37.7438 19.4513 37.2522V37.2535Z" fill="#0172BB"/>
<path d="M21.2696 37.9274C21.7003 38.2833 22.2526 38.1597 22.7381 38.3022C22.6105 38.4622 22.6334 38.6675 22.5754 38.8485C22.3242 39.1854 22.7914 39.469 22.6503 39.8499C22.2472 39.4785 22.1021 38.9295 21.5592 38.6344C21.6801 39.2023 22.1433 39.5555 22.2283 40.1051C21.9934 40.1389 21.8421 39.9478 21.6483 39.8971C21.3013 39.8897 21.1379 39.7054 21.1352 39.365C21.0812 39.0139 20.8266 38.7256 20.8584 38.3373C20.882 38.0436 20.9711 37.9031 21.2696 37.9274Z" fill="#FFD51D"/>
<path d="M13.8883 34.0771C13.8836 34.017 13.8789 33.9569 13.8741 33.8968C14.5878 33.9758 15.022 34.4256 15.3528 35.0124C15.2846 35.2966 15.5642 35.5451 15.4305 35.8774C14.9909 35.591 14.9328 35.0245 14.4663 34.7591C14.6661 35.2811 14.866 35.8031 15.0746 36.348C14.7148 36.5053 14.5129 36.2717 14.2968 36.0806C14.0591 35.8395 13.8532 35.5836 13.8849 35.2149C13.8863 34.8361 13.887 34.4559 13.8883 34.0771Z" fill="#FFD51D"/>
<path d="M15.6094 34.9637C15.7053 34.9489 15.8025 34.934 15.8984 34.9192C16.2819 35.1906 16.6647 35.4621 17.0482 35.7335C17.0752 35.8422 17.0118 35.8996 16.9294 35.9476C16.9746 36.3473 17.3399 36.685 17.1313 37.1644C16.7944 36.7633 16.6546 36.2217 16.0935 35.7538C16.3656 36.4149 16.5655 36.9004 16.7728 37.4041C16.585 37.4892 16.5094 37.2657 16.3663 37.2853C15.9544 37.1928 15.7309 36.9456 15.7309 36.5141C15.8309 35.9867 15.5507 35.4877 15.6094 34.9637Z" fill="#FFD51D"/>
<path d="M16.9294 35.9476C16.9692 35.876 17.0084 35.8051 17.0482 35.7335C17.1779 35.7794 17.3075 35.8254 17.4371 35.8713C17.7646 36.1292 18.1589 36.3115 18.375 36.6964C18.4121 37.1698 18.8098 37.5493 18.7315 38.1361C18.2879 37.7498 18.242 37.1482 17.6816 36.7383C17.9172 37.3656 18.1056 37.8673 18.3014 38.3873C17.4223 38.2137 17.3021 37.6006 17.3156 36.8848C17.3224 36.5276 17.3635 36.134 16.9294 35.9476Z" fill="#FFD51D"/>
<path d="M22.5754 38.8485C22.4417 38.6108 22.1108 38.3137 22.7381 38.3022C23.5159 38.6108 24.0662 39.1105 24.1661 39.9924C24.0433 40.4488 23.892 40.0882 23.8184 39.9849C23.5504 39.6081 23.3519 39.1753 22.8029 38.8579C23.1635 39.49 23.4565 40.0045 23.782 40.5751C23.1304 40.5224 22.8245 40.2273 22.8421 39.6392C22.8509 39.336 22.6915 39.1024 22.5754 38.8485Z" fill="#FFD51D"/>
<path d="M19.4513 37.2535C19.7605 37.602 20.1724 37.8795 20.2345 38.3967C20.14 38.4676 20.3114 38.9288 19.9955 38.6277C19.5863 38.2367 19.3223 37.7046 18.8355 37.3683C18.7079 37.2799 18.6363 37.0847 18.768 36.9085C18.9286 37.1563 19.2615 37.0618 19.4513 37.2522V37.2535Z" fill="#FFD51D"/>
<path d="M19.878 39.1699C18.9158 38.9268 18.8767 38.8647 18.9185 37.7593C19.3554 38.1381 19.5053 38.6527 19.878 39.1699Z" fill="#FFD51D"/>
<path d="M15.7309 36.5141C15.8606 36.8389 16.1104 37.0638 16.3663 37.2853C16.2211 37.5986 16.0449 37.3467 15.9537 37.2691C15.7303 37.0786 15.5142 36.8504 15.7309 36.5141Z" fill="#74966E"/>
<path d="M13.8849 35.2149C13.8809 35.5708 14.2894 35.7302 14.2968 36.0806C13.7222 36.0003 13.8127 35.6032 13.8849 35.2149Z" fill="#0172BB"/>
<path d="M21.1352 39.365C21.2581 39.5892 21.4377 39.758 21.6483 39.8971C21.1757 40.0477 21.0326 39.8992 21.1352 39.365Z" fill="#0172BB"/>
<path d="M20.7429 39.783C20.4364 39.546 20.3634 39.3299 20.2736 38.9255C20.6571 39.1658 20.7024 39.4056 20.7429 39.783Z" fill="#0172BB"/>
<path d="M25.0898 40.9782C25.0891 40.1072 25.0871 38.8026 25.0898 37.9315H25.3356C27.0236 37.9389 28.6548 37.5419 30.3023 37.2569C30.3401 37.7573 29.9215 37.9767 29.6636 38.2948C29.3834 38.4906 29.1653 38.5696 29.1234 38.0895C29.087 37.6695 28.8533 37.735 28.6008 37.9227C28.3949 38.1921 28.1235 38.4069 27.7886 38.3819C26.9297 38.317 26.4294 38.8019 26.0094 39.4441C25.9162 39.5865 25.8818 39.7695 25.7144 39.8593C25.5867 40.0281 25.6057 40.2287 25.6306 40.4117C25.6894 40.8439 25.4834 40.9924 25.0898 40.9782Z" fill="#0172BB"/>
<path d="M25.7144 39.8593C25.8663 38.9498 26.5205 38.3238 27.297 38.2603C27.7913 38.2205 28.1599 37.9875 28.6008 37.9227C29.0424 37.8876 29.0053 38.1894 29.0147 38.4845C29.0248 38.7877 28.8054 39.0112 28.773 39.2948C28.746 39.6412 28.6373 39.9113 28.2173 39.8918C28.0438 39.9762 27.8703 40.0606 27.6137 40.1848C27.688 39.5521 28.1484 39.1962 28.3571 38.6277C27.7973 38.9025 27.6461 39.4515 27.2396 39.7756C27.056 39.5521 27.3308 39.3488 27.2498 38.9984C26.9149 39.6115 27.2086 40.5731 26.1634 40.5467C26.3328 40.0457 26.609 39.5744 26.9891 38.9734C26.4307 39.2638 26.2525 39.6655 26.006 40.0032C25.946 40.0855 25.9054 40.2375 25.7866 40.1639C25.7238 40.1254 25.736 39.9653 25.7144 39.8593Z" fill="#FFD51D"/>
<path d="M31.2483 36.8592C31.5703 36.5668 31.8917 36.2744 32.2138 35.982C32.9525 35.7896 33.4345 35.1602 34.1151 34.8692C34.2333 34.8348 34.2691 34.8996 34.2745 35.0015C34.2684 35.508 34.0605 35.9975 34.1462 36.5121C34.0821 36.8902 33.9423 37.2049 33.5102 37.2772C33.394 37.3325 33.2786 37.3879 33.1375 37.4554C33.1732 36.8436 33.6249 36.3959 33.764 35.7099C33.2394 36.1063 33.1321 36.664 32.8093 37.0699C32.5966 36.8855 32.762 36.662 32.6203 36.4405C32.5514 36.6384 32.4096 36.8301 32.4528 36.9591C32.7161 37.7397 32.2685 38.1037 31.6149 38.4271C31.6649 37.7762 32.0565 37.2704 32.2496 36.5668C31.7202 37.055 31.5649 37.6445 31.1814 38.0787C30.9127 37.6438 31.5069 37.2778 31.2483 36.8592Z" fill="#FFD51D"/>
<path d="M29.6636 38.2948C29.6953 37.8369 30.1436 37.6357 30.3023 37.2569C30.5204 37.0206 30.8296 36.9922 31.1125 36.9031C31.1125 37.0962 31.1713 37.3386 30.9762 37.4426C30.4164 37.739 30.2112 38.3684 29.6926 38.7519C29.6818 38.5831 29.673 38.4386 29.6636 38.2948Z" fill="#FFD51D"/>
<path d="M30.9323 37.6263C31.0011 38.4348 30.718 38.9468 30.0829 39.1625C30.2544 38.6094 30.5515 38.1806 30.9323 37.6263Z" fill="#FFD51D"/>
<path d="M35.4432 36.1002C35.6181 35.7815 35.7937 35.4634 35.9685 35.1447C36.0881 35.6248 36.136 36.0664 35.4432 36.1002Z" fill="#0172BB"/>
<path d="M34.2745 35.0015C34.2211 34.9577 34.1685 34.9131 34.1151 34.8692C34.4007 34.5829 34.714 34.3398 35.1124 34.2284C34.9355 34.5032 34.5972 34.6551 34.5223 35.007C34.4399 35.0049 34.3569 35.0029 34.2745 35.0015Z" fill="#D7E1DA"/>
<path d="M37.0475 35.0488C37.3291 35.0758 37.4938 34.803 37.7531 34.7726C37.5593 35.1211 37.3243 35.4249 36.8389 35.5607C36.9206 35.3608 36.9834 35.2041 37.0475 35.0488Z" fill="#C4BD73"/>
<path d="M33.5102 37.2772C33.7782 37.0685 33.9835 36.8085 34.1462 36.5121C34.1901 37.1853 34.0821 37.315 33.5102 37.2772Z" fill="#74966E"/>
<path d="M28.2173 39.8918C28.4482 39.7351 28.6528 39.5541 28.773 39.2948C28.8081 39.908 28.692 40.0329 28.2173 39.8918Z" fill="#0172BB"/>
<path d="M29.1714 39.7108C29.0694 39.4177 29.2693 39.228 29.3449 38.9565C29.4745 39.1924 29.4167 39.4438 29.1714 39.7108Z" fill="#0172BB"/>
<path d="M15.0922 20.7091C14.5919 20.6868 14.1098 20.6179 13.7688 20.1905C13.708 19.8002 13.2827 19.7482 13.0288 19.4545C15.4814 18.956 17.2916 19.3441 15.0922 20.7091Z" fill="#68594C"/>
<path d="M23.3525 23.2865C23.2917 23.8996 23.5051 24.7802 23.2391 25.3798C23.1864 25.1651 23.0089 24.7269 22.9562 24.5121C22.8812 24.1313 22.755 23.7525 22.9164 23.3628C23.0116 23.2643 23.2323 23.2244 23.3525 23.2865Z" fill="#A90A35"/>
<path d="M22.9663 23.3541C22.9629 23.7396 22.9602 24.1266 22.9562 24.5121C22.7766 24.3312 22.7908 24.0752 22.7003 23.8592C22.7158 23.8186 22.7131 23.7788 22.6929 23.741C22.7057 23.5668 22.7178 23.3926 22.7307 23.2183C22.863 23.1704 22.9299 23.2359 22.9663 23.3541Z" fill="#FEFEFE"/>
<path d="M22.9663 23.3541C22.888 23.3088 22.8569 23.2305 22.7786 23.1853L22.7786 21.62H27.0661V23.219C27.0661 23.219 27.0837 23.2791 26.8676 23.3872C26.7974 23.4223 26.7245 23.4256 26.6495 23.4088C26.5793 23.3905 26.5091 23.3703 26.4361 23.3622C26.3612 23.3635 26.2876 23.375 26.214 23.3939C26.0823 23.4337 25.9507 23.4729 25.8129 23.4857C25.6948 23.4972 25.5773 23.4999 25.4591 23.4959C25.3383 23.4925 25.2194 23.4756 25.102 23.4493C24.865 23.3547 24.6374 23.4628 24.4065 23.4871C24.2856 23.4999 24.1641 23.4992 24.0433 23.4891C23.892 23.4743 23.7468 23.4331 23.6024 23.3912C23.5166 23.3662 23.4369 23.3257 23.3525 23.2953L23.2918 23.2791L23.2384 23.3129C23.1479 23.3264 23.0568 23.3399 22.9663 23.3541Z" fill="#0C3E73"/>
<path d="M22.3154 21.8881C22.3256 22.1467 22.2081 22.3824 22.4856 22.645C22.6983 22.8463 22.678 23.2616 22.3094 23.4756C21.9387 23.6951 21.6983 23.3649 21.5052 23.1947C21.3047 23.0185 21.0819 22.9368 20.8678 22.8145C20.8678 22.8145 21.867 21.0103 22.3154 21.8881Z" fill="#68594C"/>
<path d="M27.7069 20.7057C27.7703 20.1898 28.0431 19.7793 28.3665 19.395C31.8478 18.3257 28.1853 19.2739 28.0836 20.8799C28.0769 20.9866 28.2916 21.3384 27.8689 21.225C27.8149 21.0521 27.7609 20.8786 27.7069 20.7057Z" fill="#C1914E"/>
<path d="M27.187 23.4803C27.1849 23.5614 27.1822 23.6431 27.1802 23.7241C27.1768 24.0212 27.4402 24.4338 26.8527 24.4777C26.6826 24.0867 26.6623 23.7025 26.902 23.3298L26.9135 23.3264C27.0526 23.2926 27.1336 23.3608 27.187 23.4803Z" fill="#DBDAD8"/>
<path d="M28.2598 28.3091C28.4172 28.4185 28.6055 28.4975 28.6636 28.7068C28.6623 28.7933 28.6602 28.879 28.6589 28.9654C28.6947 29.0195 28.6852 29.0667 28.6359 29.1072C28.6224 29.1964 28.6082 29.2848 28.5941 29.374C28.272 29.4489 28.3665 29.7075 28.3544 29.9189L28.3631 29.9088C28.166 30.0513 28.0039 30.0134 27.873 29.8136C27.7372 29.3476 27.9202 28.9087 27.9871 28.459C28.0478 28.3543 28.116 28.2645 28.2598 28.3091Z" fill="#050505"/>
<path d="M32.8203 27.3926C32.7093 27.3443 32.6093 27.3008 32.5845 27.1632L32.5838 27.1646C32.4656 27.0504 32.2921 27.0572 32.2489 27.176C32.1086 27.5618 31.7947 27.6588 31.4787 27.7564C31.4069 27.7785 31.3351 27.8007 31.2651 27.8263C31.2295 27.8392 31.1903 27.8503 31.1506 27.8615C31.0307 27.8953 30.906 27.9305 30.8614 28.0228C30.6755 28.4077 30.3473 28.4467 30.0187 28.4857C29.927 28.4966 29.8353 28.5075 29.7466 28.5259C29.5955 28.5572 29.4413 28.5602 29.287 28.5632C29.0926 28.5669 28.8981 28.5706 28.7095 28.6312C28.6508 28.6603 28.6028 28.7021 28.5677 28.7575C28.538 28.8574 28.5481 28.9486 28.6251 29.0269C28.633 29.0266 28.6409 29.0263 28.6487 29.026C28.6519 29.0061 28.6557 28.9855 28.6589 28.9654C28.8223 28.9452 28.9853 28.927 29.1489 28.9082C29.5246 28.8651 29.9003 28.822 30.2733 28.7608C30.6453 28.7 30.8553 28.8128 30.916 29.2463C30.1429 29.199 29.3894 29.1532 28.6359 29.1072C28.6183 29.113 28.6008 29.1186 28.5833 29.1248C28.536 29.2214 28.54 29.318 28.5914 29.4125C29.1862 29.74 29.8276 29.9054 30.5008 29.9547C30.5636 29.9594 30.5825 29.9277 30.5528 29.9034C30.5405 29.8935 30.5277 29.8844 30.5149 29.8751C30.5102 29.8718 30.5055 29.8684 30.5008 29.8649C30.9082 29.8654 31.3003 29.9547 31.6924 30.044C31.8702 30.0846 32.048 30.1251 32.2273 30.1573C32.3711 30.183 32.6567 30.2228 32.6405 30.1357C32.5481 29.6368 32.7982 29.6934 33.0231 29.7443C33.1088 29.7637 33.1908 29.7822 33.2489 29.769C33.5824 29.6934 33.9389 29.6995 34.2853 29.7056C34.6897 29.7125 34.5824 29.5748 34.4782 29.4411C34.43 29.3792 34.3825 29.3182 34.3866 29.2727C34.6151 29.2472 34.8376 29.2223 35.0567 29.1978C35.3199 29.1683 35.5783 29.1394 35.8369 29.1106C35.8725 29.0796 35.9217 29.0682 35.9707 29.0568C36.0572 29.0367 36.1435 29.0167 36.1556 28.8892C36.1454 28.8264 36.1103 28.796 36.0455 28.8041C34.9503 28.7008 33.8559 28.5975 32.7114 28.4894C32.7521 28.5845 32.7864 28.6646 32.8204 28.7443C32.854 28.8232 32.8875 28.9015 32.9268 28.9932C32.7806 28.9796 32.6378 28.9665 32.4974 28.9536C32.0697 28.9142 31.6651 28.877 31.2604 28.8378C31.2549 28.8373 31.2488 28.8368 31.2422 28.8363C31.1729 28.8308 31.0554 28.8214 31.1929 28.7264C31.4183 28.5707 31.31 28.5021 31.2007 28.4329C31.1161 28.3794 31.031 28.3256 31.099 28.2308L31.4101 28.1224C31.9419 27.9371 32.4913 27.7457 33.0591 27.5481C32.991 27.4667 32.9026 27.4283 32.8203 27.3926Z" fill="#FFD51D"/>
<path d="M27.9567 28.8574C27.775 28.3023 28.2241 29.8993 28.3631 29.9088C28.6488 30.3436 29.1464 30.4496 29.5623 30.6833C29.7662 30.7981 29.9573 30.9345 30.1544 31.0614C27.7521 32.3019 25.2066 32.3478 22.6145 31.9426C21.6429 31.7907 20.6882 31.5571 19.8017 31.1053C20.4134 30.7474 21.0251 30.3896 21.6369 30.0317C21.8151 29.7771 22.1102 29.7082 22.3613 29.5745C22.5902 29.5023 22.3094 29.2896 22.4633 29.1944C22.6497 29.0762 22.8428 28.9952 23.0676 29.0715C23.2499 29.2342 23.1486 29.4807 23.2533 29.6657C23.3235 29.4604 23.4221 29.2673 23.651 29.1822C23.9656 29.1322 24.0939 29.3733 24.2553 29.5644C24.4531 29.8169 24.6253 30.0769 24.4511 30.4199C24.6597 30.0891 24.6341 29.7177 24.6651 29.3571C24.7549 28.7789 25.6248 28.9455 25.8048 29.3983C25.8575 29.584 25.7994 29.7818 25.8906 30.0567C26.0054 29.719 26.1289 29.4557 26.368 29.2754C26.5151 29.1822 26.6644 29.1295 26.8237 29.2497C27.0101 29.5502 26.9425 29.8669 26.8791 30.1762C26.9554 29.927 27.1518 29.2389 27.3699 29.0883C27.7597 28.9593 27.4318 28.8574 27.9567 28.8574Z" fill="#0172BB"/>
<path d="M26.927 24.5054C27.1356 24.2859 27.008 23.9557 27.1802 23.7241C27.4307 23.9814 27.6616 23.9598 27.9837 23.7883C29.6049 22.9256 30.4248 21.4337 32.1658 20.4525C32.656 20.6092 33.1483 20.7577 33.6344 20.9245C33.9052 21.0177 34.0969 20.8732 34.2934 20.7429C34.4608 20.6314 34.6141 20.4896 34.7957 20.7145C34.4392 21.0872 34.2306 21.6234 33.4886 21.4552C33.2266 21.3958 32.8039 21.7213 32.4548 21.8665C32.1307 22.0015 31.8296 22.0042 31.5109 22.0299C31.0302 21.9644 30.7554 22.1325 30.6858 22.6511C30.6089 23.2231 30.2064 23.7201 30.2773 24.3366C30.2956 24.4946 30.1666 24.4892 30.0545 24.4493C29.8432 24.3744 29.7716 24.3832 29.7703 24.6681C29.7676 25.0415 29.276 25.0591 29.1065 25.0969C28.4543 25.2434 27.7663 25.4082 27.0729 25.1455C27.1147 25.3812 27.193 25.5466 27.424 25.5844C27.4348 25.6331 27.4456 25.6823 27.4557 25.731C27.9377 26.2308 27.6193 27.6058 27.2525 28.1734C26.9419 28.3793 26.582 28.1599 26.2599 28.2855C25.9237 28.1578 25.9669 27.856 25.9453 27.5893C25.925 27.3367 25.9304 27.0815 25.8636 26.8337C25.846 26.7249 25.8467 26.6162 25.8636 26.5075C25.9054 26.2854 26.0277 26.1044 26.1546 25.9248C26.4821 25.4521 26.2808 24.9153 26.3396 24.4108C26.3828 24.0367 26.2181 23.6269 26.528 23.298C26.5671 23.3021 26.607 23.3068 26.6461 23.3109C26.8939 23.6937 26.7339 24.1205 26.7785 24.525C26.7825 24.5641 26.7312 24.6127 26.7947 24.6431C26.8224 24.5817 26.8669 24.5364 26.927 24.5054Z" fill="#9A7241"/>
<path d="M21.8124 22.6511C21.8124 20.5105 21.4046 22.5825 21.8124 22.6511Z" fill="#9A7241"/>
<path d="M24.1655 29.6569C23.9683 29.5495 23.9616 29.2025 23.6456 29.245C23.4835 29.1356 23.312 29.0944 23.1236 29.1714C22.9083 29.1842 22.6929 29.1964 22.4775 29.2092C22.3424 28.9303 22.6118 28.6481 22.4701 28.3692C22.0873 28.2256 22.2233 28.0092 22.7016 27.9782C23.1169 28.7433 23.4585 28.1794 23.8238 27.8513C23.9325 28.2834 23.8697 28.7649 24.416 28.8594C24.6536 28.7838 24.7468 28.9324 24.815 29.118C24.8116 29.2112 24.8089 29.3051 24.8055 29.3983C24.5618 29.4098 24.3856 29.588 24.1655 29.6569Z" fill="#E5C331"/>
<path d="M22.7016 27.9782C22.5477 28.1743 22.2936 28.2606 22.0676 28.1902C21.9684 27.9667 22.123 27.702 21.863 27.4772C21.6436 27.2874 21.8111 26.993 21.9583 26.7682C22.2128 26.3772 22.5443 26.0713 22.9582 25.8545C22.8725 26.5622 22.7874 27.2705 22.7016 27.9782Z" fill="#FEFEFE"/>
<path d="M24.3802 23.3601C24.6151 23.3048 24.844 23.1697 25.0939 23.3075C25.0858 23.3453 25.0777 23.3831 25.0702 23.4209C24.9055 24.3264 25.0338 25.2407 24.9912 26.1496C24.9764 26.4717 25.0452 26.8039 24.8832 27.1098C24.7961 27.2253 24.6874 27.2273 24.5679 27.1679C24.4423 27.0997 24.4214 26.9714 24.389 26.8505C24.052 26.0834 24.2735 25.2765 24.2296 24.4892C24.2087 24.1131 24.1256 23.7079 24.3802 23.3601Z" fill="#A90A35"/>
<path d="M24.3802 23.3601C24.3829 24.5236 24.3863 25.6871 24.389 26.8505C24.389 26.8505 24.1135 26.6392 24.0196 26.4893C23.7631 25.4426 23.628 24.3987 24.0649 23.3622C24.1702 23.3622 24.2748 23.3608 24.3802 23.3601Z" fill="#FEFEFE"/>
<path d="M24.0649 23.3622C24.05 24.4048 24.0345 25.4467 24.0196 26.4893C23.8137 26.4231 23.7759 26.2016 23.6368 26.074C23.4119 25.1489 23.3991 24.2245 23.6469 23.3007C23.786 23.321 23.9258 23.3412 24.0649 23.3622Z" fill="#A90A35"/>
<path d="M24.815 29.118C24.682 29.0316 24.549 28.9459 24.416 28.8594C24.2499 28.665 24.4315 28.4901 24.447 28.3057C24.6597 28.2436 24.7509 28.0829 24.8137 27.8844C24.8805 27.675 24.9987 27.5278 25.2492 27.6689C25.528 28.0619 25.474 28.592 25.788 28.9702C25.8352 29.1039 25.8372 29.2295 25.7258 29.3362C25.4524 29.137 25.1506 29.0573 24.815 29.118Z" fill="#B2ACA2"/>
<path d="M23.6469 23.3007C23.6435 24.2251 23.6402 25.1496 23.6368 26.074C23.4119 25.914 23.3032 25.7033 23.3113 25.421C23.3316 24.7127 23.3397 24.0043 23.3525 23.2953C23.4504 23.2973 23.549 23.2987 23.6469 23.3007Z" fill="#FEFEFE"/>
<path d="M25.1729 27.7054C24.8758 27.7324 24.9912 27.9883 24.9305 28.1457C24.8332 28.3996 24.7184 28.5839 24.447 28.3057C24.5314 28.0424 24.6151 27.7783 24.6995 27.515C24.8947 27.3529 25.1114 27.2712 25.368 27.3333C25.7859 27.7176 25.9243 28.1707 25.7387 28.8061C25.3363 28.4772 25.4693 27.9775 25.1729 27.7054Z" fill="#D7E1DA"/>
<path fill-rule="evenodd" clip-rule="evenodd" d="M17.242 12.4487L16.4655 11.4358C16.4655 11.4358 16.5148 11.2906 16.9044 11.3683C17.294 11.4459 17.7146 12.2123 17.7146 12.2123L18.1535 11.841L17.4783 11.1319C17.4793 11.0874 17.0732 10.8956 17.0732 10.8956C17.1421 10.6859 17.2842 10.2123 16.9719 9.91645C16.3305 9.30875 15.1827 10.3216 15.1827 10.3216L15.5189 10.7923L16.8369 12.7863L17.242 12.4487ZM15.9261 10.3588L16.3298 10.9901C16.3298 10.9901 16.6371 10.8477 16.631 10.6782C16.6222 10.4216 16.4993 10.2109 16.2205 10.1704C16.0915 10.1515 15.9261 10.3588 15.9261 10.3588Z" fill="#050505"/>
<path fill-rule="evenodd" clip-rule="evenodd" d="M11.1929 29.8392C11.172 29.1599 10.7237 28.6981 10.0323 28.7008C9.72169 28.6893 9.42798 28.7649 9.139 28.8655C8.22613 29.1836 8.0776 29.6035 8.36658 30.453L8.56915 30.8244C9.4359 30.5422 10.3226 30.2469 11.2024 30.0141C11.2024 30.0141 11.1994 30.0475 11.1929 29.8392ZM10.561 29.5077C10.4934 29.2038 10.2234 29.167 9.98705 29.2038C9.64405 29.2571 9.19437 29.3874 8.8534 29.6454C8.72917 29.7393 8.70217 29.9857 8.77171 30.1492L10.5947 29.6454L10.561 29.5077Z" fill="#050505"/>
<path d="M25.8899 8.62202C25.8899 8.68752 25.9007 8.75504 25.8879 8.81784C25.8271 9.11428 25.9676 9.6295 25.5395 9.60046C25.1499 9.57413 25.2964 9.07106 25.2694 8.76247C25.2566 8.61189 25.2714 8.45523 25.3005 8.306C25.3464 8.06831 25.2681 7.68004 25.6381 7.71245C25.9851 7.74284 25.8649 8.11828 25.898 8.3607C25.9095 8.44645 25.9 8.53491 25.9 8.62269C25.8967 8.62269 25.8926 8.62202 25.8899 8.62202Z" fill="#FEFEFE"/>
<path d="M14.3643 11.5006C14.6837 11.5229 15.5837 12.5777 15.5702 12.8545C15.5608 13.0436 15.4568 13.1239 15.2698 13.0942C15.0206 13.0551 14.178 12.0523 14.1604 11.7809C14.1483 11.5904 14.2306 11.4973 14.3643 11.5006Z" fill="#FEFEFE"/>
<path fill-rule="evenodd" clip-rule="evenodd" d="M41.7178 19.7414L41.6165 19.2012L38.5106 19.3701L38.5782 19.9103L39.3884 19.8515L39.5234 20.4167L38.9158 20.7881L39.1183 21.2945L41.7178 19.7414ZM40.8063 19.7077H39.861L39.9623 20.1466L40.8063 19.7077Z" fill="#050505"/>
<path fill-rule="evenodd" clip-rule="evenodd" d="M20.5167 10.8618L20.9893 10.7605V9.984L21.5295 9.84896L21.8333 10.4567L22.3735 10.3554L20.9522 7.65436L20.4492 7.78942L20.5167 10.8618ZM20.8388 8.60132L20.9222 9.57886L21.3944 9.47755L20.8388 8.60132Z" fill="#050505"/>
<path d="M22.4701 28.3692C22.78 28.6467 22.6085 28.9283 22.4775 29.2092C22.4457 29.3429 22.9974 29.4739 22.4795 29.6096C22.4235 29.5671 22.3674 29.5252 22.3107 29.4834C22.306 29.4415 22.2958 29.401 22.2803 29.3611C22.046 28.9729 22.3715 28.6933 22.4701 28.3692Z" fill="#050505"/>
<path d="M25.7258 29.3362C25.7326 29.2315 25.7407 29.1275 25.7474 29.0228C25.8285 28.6521 26.1566 28.4887 26.395 28.2497C26.6218 27.6919 26.9162 28.2254 27.1762 28.2011C27.3882 27.9201 27.688 27.987 27.9742 28.0005C28.0965 28.0228 28.1944 28.0768 28.2362 28.2037C28.2396 28.2395 28.2484 28.2747 28.2598 28.3091C28.193 28.3611 28.1248 28.4131 28.058 28.4651C28.0107 28.9303 27.7845 29.1734 27.2896 29.0836C27.0567 28.9526 26.952 29.2477 26.7582 29.2457C26.5928 29.1862 26.5172 29.3308 26.4078 29.3996C26.1796 29.4219 25.952 29.4354 25.7265 29.3807L25.7258 29.3362Z" fill="#E5C331"/>
<path d="M27.3206 27.3887C27.4604 26.8438 27.7251 26.309 27.4557 25.731C28.0492 26.1402 28.4421 26.6399 28.2173 27.4191C28.0627 27.9761 27.7654 27.4314 27.4354 27.4711C27.3753 27.4731 27.3382 27.4441 27.3206 27.3887Z" fill="#DBDAD8"/>
<path d="M27.4327 27.4238C27.5218 26.8997 27.8918 27.868 28.2166 27.4205C28.2558 27.6811 28.6785 27.9316 28.2362 28.2037C28.1559 28.1612 28.0755 28.1193 27.9952 28.0768C27.6772 27.9721 27.428 27.8081 27.4327 27.4238Z" fill="#FEFEFE"/>
<path d="M25.713 37.5169H25.0736C25.1209 36.2737 25.0945 33.8043 25.0736 32.5598H25.5948C26.5813 32.5659 27.557 32.4282 28.5056 32.1547C28.8419 32.0581 28.9566 32.0311 28.9566 32.0311C29.7743 33.1108 31.0666 34.9266 31.8262 36.0489L31.3725 36.3696C29.5805 37.0591 27.7197 37.394 25.713 37.5169Z" fill="#0172BB"/>
<path d="M24.6786 35.0988C24.6786 35.7538 24.6651 36.8646 24.684 37.5196H24.2472C22.225 37.423 20.2622 37.055 18.3777 36.298L18.0185 36.0489C18.8145 34.8719 20.1062 33.1095 20.9893 31.9973L21.3857 32.1047C22.3148 32.3539 23.2641 32.518 24.2269 32.545H24.684C24.6644 33.2216 24.6786 34.4215 24.6786 35.0988Z" fill="#0172BB"/>
<path d="M25.4983 26.8553C25.4193 27.0275 25.3086 27.1585 25.0986 27.1598C24.9797 27.0761 24.9494 26.9498 24.948 26.8175C24.9392 25.7573 24.9284 24.6972 24.9527 23.6377C24.9554 23.5256 25.0041 23.429 25.0702 23.3412L25.0925 23.3081C25.2269 23.325 25.3606 23.3426 25.4949 23.3595C25.6502 23.5357 25.6711 23.7538 25.6563 23.9692C25.5908 24.9308 25.8264 25.9092 25.4983 26.8553Z" fill="#A90A35"/>
<path d="M25.4983 26.8553C25.4976 25.6898 25.4956 24.525 25.4949 23.3595C25.6009 23.3608 25.7069 23.3615 25.8129 23.3622C25.8859 23.4121 25.9709 23.4749 25.977 23.5566C26.0526 24.5425 26.2295 25.5338 25.8426 26.4981C25.7724 26.6594 25.6691 26.7904 25.4983 26.8553Z" fill="#FEFEFE"/>
<path d="M25.8426 26.4981C25.8325 25.4528 25.8231 24.4075 25.8129 23.3622C25.952 23.3412 26.0911 23.3203 26.2302 23.2994C26.4895 24.2224 26.4632 25.1462 26.239 26.0706C26.1526 26.207 26.0661 26.3434 25.9797 26.4798C25.9338 26.4859 25.8886 26.492 25.8426 26.4981Z" fill="#A90A35"/>
<path d="M26.239 26.0706C26.2363 25.1469 26.2343 24.2224 26.2316 23.2994C26.3301 23.2994 26.4287 23.298 26.528 23.298C26.5367 23.9983 26.5415 24.6992 26.5563 25.3994C26.5624 25.6817 26.4827 25.9119 26.239 26.0706Z" fill="#DBDAD8"/>
<path d="M26.927 24.5054C26.8703 24.6863 26.8129 24.8673 26.7562 25.0483L26.5597 25.5149C26.5597 24.9369 26.4922 23.9078 26.4922 23.3298C26.5772 23.3358 26.817 23.3237 26.902 23.3298C26.9108 23.7214 26.9182 24.1137 26.927 24.5054Z" fill="#A90A35"/>
<path d="M27.3483 28.9776C27.3402 29.1971 27.3321 29.4172 27.3247 29.6366C27.2801 29.9094 27.1174 30.0884 26.8129 30.2667C26.7933 29.8892 26.7764 29.5678 26.7596 29.2457C26.9594 28.8657 27.1552 28.7764 27.3483 28.9776Z" fill="#050505"/>
<path d="M24.1655 29.6569C24.2505 29.2524 24.422 29.0627 24.8055 29.3983C24.7968 29.8487 24.8548 30.322 24.3457 30.6421C24.2762 30.2957 24.4956 29.9149 24.1655 29.6569Z" fill="#050505"/>
<path d="M25.7265 29.3807C25.9595 29.1707 26.1904 29.0512 26.4078 29.3996C26.1175 29.6569 26.0722 30.0337 25.9554 30.4145C25.58 30.0972 25.6367 29.7427 25.7265 29.3807Z" fill="#050505"/>
<path d="M23.1236 29.1714C23.1675 28.9864 23.2735 28.8419 23.4727 28.8729C23.6719 28.9047 23.5976 29.1147 23.6456 29.245C23.4295 29.4428 23.3147 29.6778 23.4963 30.1552C23.0818 29.773 22.913 29.5306 23.1236 29.17L23.1236 29.1714Z" fill="#050505"/>
<path d="M26.395 28.2497C26.3436 28.6454 25.9925 28.7899 25.7474 29.0228C25.1884 28.744 25.3855 28.1349 25.1729 27.7054C25.6009 27.8567 25.3835 28.3591 25.6982 28.6231C25.6968 28.1497 25.557 27.7567 25.3065 27.3961C25.53 27.1888 25.7535 26.9809 25.9777 26.7736C26.1742 27.1017 26.1404 27.4704 26.1492 27.8276C26.1539 28.0248 26.1235 28.2186 26.395 28.2497Z" fill="#FEFEFE"/>
<path d="M27.4327 27.4238C27.5333 27.7162 27.8088 27.858 27.9952 28.0768C27.7413 28.2402 27.4456 28.1362 27.1762 28.2011C27.2241 27.9303 27.2727 27.6595 27.3206 27.3887C27.3585 27.3988 27.3956 27.411 27.4327 27.4238Z" fill="#68594C"/>
<path d="M25.0716 23.3412C25.081 24.6141 25.0891 25.8869 25.0986 27.1598C24.9912 27.3252 24.8852 27.3185 24.7785 27.1598C24.7853 26.0537 24.7542 24.3251 24.7785 23.219H25.0716V23.3412Z" fill="#FEFEFE"/>
<path d="M25.1533 28.2308C25.1756 28.5961 25.4179 28.7838 25.1999 28.9648C25.0972 29.0498 24.8751 29.0465 24.8035 28.8986C24.6773 28.6379 24.9906 28.5805 25.1533 28.2308Z" fill="#FEFEFE"/>
<path d="M24.5003 18.5935C24.5003 18.6495 24.4399 18.6948 24.3653 18.6948C24.2907 18.6948 24.2303 18.6495 24.2303 18.5935C24.2303 18.5376 24.2907 18.4922 24.3653 18.4922C24.4399 18.4922 24.5003 18.5376 24.5003 18.5935Z" fill="#B2ACA2"/>
</svg>
