<svg width="50" height="50" viewBox="0 0 50 50" fill="none" xmlns="http://www.w3.org/2000/svg">
<path fill-rule="evenodd" clip-rule="evenodd" d="M41.0338 18.7264V17.7551H35.9757L35.6281 18.7264H41.0338Z" fill="black"/>
<path d="M32.0244 26.9908H27.0029V27.9444H32.0244V26.9908Z" fill="black"/>
<path d="M32.0244 25.1366H27.0029V26.1079H32.0244V25.1366Z" fill="black"/>
<path fill-rule="evenodd" clip-rule="evenodd" d="M34.4119 18.7264L34.0643 17.7551H29.0245V18.7264H34.4119Z" fill="black"/>
<path d="M32.0246 21.4459H29.0245V22.4172H32.0246V21.4459Z" fill="black"/>
<path fill-rule="evenodd" clip-rule="evenodd" d="M32.0246 20.5717V19.7947H32.0429L32.3356 20.5717H37.7047L38.0065 19.7947H38.0339V20.5717H41.034V19.6005H35.3174L35.0247 20.3333H35.0064L34.7229 19.6005H29.0245V20.5717H32.0246Z" fill="black"/>
<path d="M32.0246 23.2913H29.0245V24.2625H32.0246V23.2913Z" fill="black"/>
<path fill-rule="evenodd" clip-rule="evenodd" d="M37.0458 22.4172L37.3933 21.4459H32.6371L32.9938 22.4172H37.0458Z" fill="black"/>
<path fill-rule="evenodd" clip-rule="evenodd" d="M36.3875 24.2714L36.7351 23.2913H33.2959L33.6526 24.2714H36.3875Z" fill="black"/>
<path fill-rule="evenodd" clip-rule="evenodd" d="M35.7106 26.1167L36.0582 25.1366H33.9544L34.3111 26.1167H35.7106Z" fill="black"/>
<path fill-rule="evenodd" clip-rule="evenodd" d="M34.6129 26.9908L34.9696 27.9444H35.0886L35.4178 26.9908H34.6129Z" fill="black"/>
<path fill-rule="evenodd" clip-rule="evenodd" d="M27.0029 15.9098V16.881H33.7531L33.4055 15.9098H27.0029Z" fill="black"/>
<path fill-rule="evenodd" clip-rule="evenodd" d="M33.0945 15.0356L32.747 14.0555H27.0029V15.0356H33.0945Z" fill="black"/>
<path fill-rule="evenodd" clip-rule="evenodd" d="M14.9661 15.9098V16.881H26.0975C26.0335 16.5278 25.7317 15.9098 25.7317 15.9098H14.9661Z" fill="black"/>
<path fill-rule="evenodd" clip-rule="evenodd" d="M26.015 18.7264C26.015 18.7264 26.1979 18.073 26.1979 17.7551H22.9966V18.7264H26.015Z" fill="black"/>
<path fill-rule="evenodd" clip-rule="evenodd" d="M25.5212 22.3995C25.5212 22.3995 24.9907 21.7461 24.6339 21.4459H16.9782V22.3995H25.5212Z" fill="black"/>
<path fill-rule="evenodd" clip-rule="evenodd" d="M14.9661 25.1366V26.1079H25.7225C25.9055 25.8077 26.0335 25.4722 26.0884 25.1366H14.9661Z" fill="black"/>
<path fill-rule="evenodd" clip-rule="evenodd" d="M14.9661 26.9908V27.9444H22.0639C24.3505 27.9444 24.9816 26.9908 24.9816 26.9908H14.9661Z" fill="black"/>
<path fill-rule="evenodd" clip-rule="evenodd" d="M24.5608 20.5717C24.9541 20.298 25.2833 19.9801 25.5669 19.6005C25.5486 19.6005 16.9873 19.6005 16.9873 19.6005V20.5717H24.5608Z" fill="black"/>
<path fill-rule="evenodd" clip-rule="evenodd" d="M26.2254 24.2714C26.2254 23.9359 26.1613 23.618 26.0424 23.3001H22.9966V24.2714H26.2254Z" fill="black"/>
<path d="M19.9874 23.2913H16.9873V24.2625H19.9874V23.2913Z" fill="black"/>
<path fill-rule="evenodd" clip-rule="evenodd" d="M16.9873 17.7551V18.7264H19.9874V17.7551H16.9873Z" fill="black"/>
<path fill-rule="evenodd" clip-rule="evenodd" d="M24.9907 15.0091C24.1492 14.3557 23.1797 14.0555 22.0913 14.0555H14.9752V15.0091H24.9907Z" fill="black"/>
<path d="M11.9661 23.2913H8.96596V24.2625H11.9661V23.2913Z" fill="black"/>
<path d="M13.9598 25.1366H6.94434V26.1079H13.9598V25.1366Z" fill="black"/>
<path d="M13.9598 26.9908H6.94434V27.9444H13.9598V26.9908Z" fill="black"/>
<path d="M13.9598 14.0555H6.94434V15.0268H13.9598V14.0555Z" fill="black"/>
<path d="M13.9687 15.9098H6.97146V16.881H13.9687V15.9098Z" fill="black"/>
<path d="M11.9661 17.7551H8.96596V18.7264H11.9661V17.7551Z" fill="black"/>
<path d="M11.9661 19.6005H8.96596V20.5717H11.9661V19.6005Z" fill="black"/>
<path d="M11.9661 21.4459H8.96596V22.4172H11.9661V21.4459Z" fill="black"/>
<path d="M41.034 21.4459H38.0339V22.4172H41.034V21.4459Z" fill="black"/>
<path d="M41.034 23.2913H38.0339V24.2625H41.034V23.2913Z" fill="black"/>
<path d="M43.0555 25.1366H38.0339V26.1079H43.0555V25.1366Z" fill="black"/>
<path d="M43.0555 26.9908H38.0339V27.9444H43.0555V26.9908Z" fill="black"/>
<path fill-rule="evenodd" clip-rule="evenodd" d="M43.046 16.881V15.9098H36.6708L36.305 16.881H43.046Z" fill="black"/>
<path fill-rule="evenodd" clip-rule="evenodd" d="M43.0461 15.0356V14.0555H37.3935L37.0002 15.0356H43.0461Z" fill="black"/>
<path d="M33.7253 39.9653H34.569C34.5251 40.3696 34.4094 40.7314 34.2219 41.0508C34.0344 41.3701 33.7692 41.6235 33.4264 41.811C33.0837 41.9956 32.6559 42.0879 32.1432 42.0879C31.7682 42.0879 31.4269 42.0176 31.1193 41.877C30.8146 41.7363 30.5524 41.5371 30.3327 41.2793C30.113 41.0186 29.943 40.7065 29.8229 40.3433C29.7057 39.9771 29.6471 39.5698 29.6471 39.1216V38.4844C29.6471 38.0361 29.7057 37.6304 29.8229 37.2671C29.943 36.9009 30.1144 36.5874 30.3371 36.3267C30.5627 36.0659 30.8337 35.8652 31.1501 35.7246C31.4665 35.584 31.8224 35.5137 32.2179 35.5137C32.7013 35.5137 33.11 35.6045 33.444 35.7861C33.778 35.9678 34.0373 36.2197 34.2219 36.542C34.4094 36.8613 34.5251 37.2319 34.569 37.6538H33.7253C33.6843 37.355 33.6081 37.0986 33.4968 36.8848C33.3854 36.668 33.2272 36.501 33.0221 36.3838C32.8171 36.2666 32.549 36.208 32.2179 36.208C31.9338 36.208 31.6833 36.2622 31.4665 36.3706C31.2526 36.479 31.0724 36.6328 30.926 36.832C30.7824 37.0312 30.674 37.27 30.6008 37.5483C30.5275 37.8267 30.4909 38.1357 30.4909 38.4756V39.1216C30.4909 39.4351 30.5231 39.7295 30.5876 40.0049C30.655 40.2803 30.756 40.522 30.8908 40.73C31.0256 40.938 31.197 41.1021 31.405 41.2222C31.613 41.3394 31.8591 41.3979 32.1432 41.3979C32.5036 41.3979 32.7907 41.3408 33.0046 41.2266C33.2184 41.1123 33.3796 40.9482 33.488 40.7344C33.5993 40.5205 33.6784 40.2642 33.7253 39.9653Z" fill="black"/>
<path d="M23.1849 35.6016L25.2811 40.8179L27.3729 35.6016H28.4627V42H27.619V39.5039L27.7003 36.8281L25.5975 42H24.9559L22.8572 36.8209L22.9388 39.5039V42H22.0951V35.6016H23.1849Z" fill="black"/>
<path d="M19.834 39.0425H16.6084V42H15.7603V35.6016H16.6084V38.3525H19.834V35.6016H20.6777V42H19.834V39.0425Z" fill="black"/>
</svg>
