<svg width="50" height="50" viewBox="0 0 50 50" fill="none" xmlns="http://www.w3.org/2000/svg">
<path d="M4 35.9326H46.0813V14H4V35.9326Z" fill="#EF4035"/>
<path d="M15.4633 19.2542V21.0819H13.0702V30.3143H10.8624V21.0819H8.46928V19.2542H15.4633Z" fill="white"/>
<path d="M16.1529 19.2407H18.2694V21.0501H16.1529V19.2407ZM16.1529 22.0627H18.2694V30.313H16.1529V22.0627Z" fill="white"/>
<path d="M23.6674 22.0627H25.7839L23.7137 30.3143H21.2597L19.1285 22.0627H21.3364L22.5171 27.9675H22.5488L23.6674 22.0627Z" fill="white"/>
<path d="M26.2896 26.1884C26.2896 29.0554 26.9963 30.5737 29.5405 30.5286C31.964 30.5286 32.7926 29.0104 32.7926 26.1884C32.7926 23.3201 32.0871 21.8018 29.5405 21.8481C27.1182 21.8481 26.2896 23.3664 26.2896 26.1884ZM28.4061 26.1884C28.4061 24.502 28.4987 23.2896 29.5405 23.2896C30.3995 23.2896 30.6761 24.1328 30.6761 26.1884C30.6761 28.2439 30.3995 29.0871 29.5405 29.0871C28.4987 29.0871 28.4061 27.876 28.4061 26.1884Z" fill="white"/>
<path d="M34.0038 30.3143H36.1203V19.2554H34.0038V30.3143Z" fill="white"/>
<path d="M37.6834 19.2407H39.7999V21.0501H37.6834V19.2407ZM37.6834 22.0627H39.7999V30.313H37.6834V22.0627Z" fill="white"/>
<path d="M42.2478 28.339H42.5256C42.6852 28.339 42.8656 28.3719 42.8656 28.5681C42.8656 28.7935 42.7072 28.8191 42.522 28.8191H42.2478V28.339ZM41.9359 29.778H42.2478V29.0554H42.4355L42.8704 29.778H43.1909L42.7389 29.0445C43.0142 29.0189 43.1775 28.88 43.1775 28.5936C43.1775 28.2403 42.9606 28.1014 42.5585 28.1014H41.9359V29.778ZM42.5061 30.4262C43.3213 30.4262 43.9854 29.7609 43.9854 28.9458C43.9854 28.1294 43.3213 27.4653 42.5061 27.4653C41.6897 27.4653 41.0257 28.1294 41.0257 28.9458C41.0257 29.7609 41.6897 30.4262 42.5061 30.4262ZM42.5061 30.1387C41.8871 30.1387 41.3863 29.6391 41.3863 28.9458C41.3863 28.2525 41.8871 27.7529 42.5061 27.7529C43.1239 27.7529 43.6247 28.2525 43.6247 28.9458C43.6247 29.6391 43.1239 30.1387 42.5061 30.1387Z" fill="white"/>
</svg>
