<svg width="50" height="50" viewBox="0 0 50 50" fill="none" xmlns="http://www.w3.org/2000/svg">
<path fill-rule="evenodd" clip-rule="evenodd" d="M38.2641 17.0356V16.1964H33.9219L33.6235 17.0356H38.2641Z" fill="black"/>
<path d="M30.53 24.1761H26.2192V25H30.53V24.1761Z" fill="black"/>
<path d="M30.53 22.5741H26.2192V23.4132H30.53V22.5741Z" fill="black"/>
<path fill-rule="evenodd" clip-rule="evenodd" d="M32.5794 17.0356L32.281 16.1964H27.9546V17.0356H32.5794Z" fill="black"/>
<path d="M30.53 19.3852H27.9546V20.2244H30.53V19.3852Z" fill="black"/>
<path fill-rule="evenodd" clip-rule="evenodd" d="M30.53 18.63V17.9587H30.5457L30.797 18.63H35.4061L35.6653 17.9587H35.6888V18.63H38.2643V17.7908H33.3568L33.1055 18.424H33.0898L32.8464 17.7908H27.9546V18.63H30.53Z" fill="black"/>
<path d="M30.53 20.9797H27.9546V21.8188H30.53V20.9797Z" fill="black"/>
<path fill-rule="evenodd" clip-rule="evenodd" d="M34.8413 20.2244L35.1397 19.3852H31.0566L31.3629 20.2244H34.8413Z" fill="black"/>
<path fill-rule="evenodd" clip-rule="evenodd" d="M34.2756 21.8265L34.5739 20.9797H31.6216L31.9278 21.8265H34.2756Z" fill="black"/>
<path fill-rule="evenodd" clip-rule="evenodd" d="M33.6946 23.4209L33.993 22.5741H32.187L32.4932 23.4209H33.6946Z" fill="black"/>
<path fill-rule="evenodd" clip-rule="evenodd" d="M32.752 24.1761L33.0582 25H33.1603L33.4429 24.1761H32.752Z" fill="black"/>
<path fill-rule="evenodd" clip-rule="evenodd" d="M26.2192 14.602V15.4412H32.014L31.7156 14.602H26.2192Z" fill="black"/>
<path fill-rule="evenodd" clip-rule="evenodd" d="M31.4489 13.8468L31.1505 13H26.2194V13.8468H31.4489Z" fill="black"/>
<path fill-rule="evenodd" clip-rule="evenodd" d="M15.8862 14.602V15.4412H25.4421C25.3872 15.136 25.128 14.602 25.128 14.602H15.8862Z" fill="black"/>
<path fill-rule="evenodd" clip-rule="evenodd" d="M25.3714 17.0356C25.3714 17.0356 25.5285 16.4711 25.5285 16.1964H22.7803V17.0356H25.3714Z" fill="black"/>
<path fill-rule="evenodd" clip-rule="evenodd" d="M24.9471 20.2092C24.9471 20.2092 24.4916 19.6446 24.1854 19.3852H17.6133V20.2092H24.9471Z" fill="black"/>
<path fill-rule="evenodd" clip-rule="evenodd" d="M15.8862 22.5741V23.4132H25.1202C25.2772 23.1539 25.3872 22.864 25.4343 22.5741H15.8862Z" fill="black"/>
<path fill-rule="evenodd" clip-rule="evenodd" d="M15.8862 24.1761V25H21.9794C23.9424 25 24.4842 24.1761 24.4842 24.1761H15.8862Z" fill="black"/>
<path fill-rule="evenodd" clip-rule="evenodd" d="M24.123 18.63C24.4607 18.3935 24.7433 18.1189 24.9868 17.7908C24.9711 17.7908 17.6216 17.7908 17.6216 17.7908V18.63H24.123Z" fill="black"/>
<path fill-rule="evenodd" clip-rule="evenodd" d="M25.552 21.8265C25.552 21.5367 25.4971 21.262 25.395 20.9874H22.7803V21.8265H25.552Z" fill="black"/>
<path d="M20.197 20.9797H17.6216V21.8188H20.197V20.9797Z" fill="black"/>
<path fill-rule="evenodd" clip-rule="evenodd" d="M17.6216 16.1964V17.0356H20.197V16.1964H17.6216Z" fill="black"/>
<path fill-rule="evenodd" clip-rule="evenodd" d="M24.4918 13.8239C23.7694 13.2594 22.9371 13 22.0027 13H15.8938V13.8239H24.4918Z" fill="black"/>
<path d="M13.3108 20.9797H10.7354V21.8188H13.3108V20.9797Z" fill="black"/>
<path d="M15.0225 22.5741H9V23.4132H15.0225V22.5741Z" fill="black"/>
<path d="M15.0225 24.1761H9V25H15.0225V24.1761Z" fill="black"/>
<path d="M15.0225 13H9V13.8392H15.0225V13Z" fill="black"/>
<path d="M15.0302 14.602H9.02344V15.4412H15.0302V14.602Z" fill="black"/>
<path d="M13.3108 16.1964H10.7354V17.0356H13.3108V16.1964Z" fill="black"/>
<path d="M13.3108 17.7908H10.7354V18.63H13.3108V17.7908Z" fill="black"/>
<path d="M13.3108 19.3852H10.7354V20.2244H13.3108V19.3852Z" fill="black"/>
<path d="M38.2644 19.3852H35.689V20.2244H38.2644V19.3852Z" fill="black"/>
<path d="M38.2644 20.9797H35.689V21.8188H38.2644V20.9797Z" fill="black"/>
<path d="M39.9997 22.5741H35.689V23.4132H39.9997V22.5741Z" fill="black"/>
<path d="M39.9997 24.1761H35.689V25H39.9997V24.1761Z" fill="black"/>
<path fill-rule="evenodd" clip-rule="evenodd" d="M39.992 15.4412V14.602H34.5192L34.2051 15.4412H39.992Z" fill="black"/>
<path fill-rule="evenodd" clip-rule="evenodd" d="M39.9918 13.8468V13H35.1393L34.8016 13.8468H39.9918Z" fill="black"/>
<path d="M16.3468 33V39H15.5235V33H16.3468ZM18.3747 33V33.6511H13.5V33H18.3747Z" fill="black"/>
<path d="M21.2995 33.5316L19.211 39H18.3574L20.7622 33H21.3125L21.2995 33.5316ZM23.0501 39L20.9572 33.5316L20.9442 33H21.4945L23.9081 39H23.0501ZM22.9418 36.7788V37.4299H19.3973V36.7788H22.9418Z" fill="black"/>
<path d="M24.753 33H26.8416C27.3153 33 27.7154 33.0687 28.0418 33.206C28.3711 33.3434 28.621 33.5467 28.7914 33.8159C28.9648 34.0824 29.0514 34.4107 29.0514 34.8008C29.0514 35.0755 28.9922 35.3269 28.8738 35.5549C28.7582 35.7802 28.5907 35.9725 28.3711 36.1319C28.1545 36.2885 27.8945 36.4052 27.5912 36.4821L27.3572 36.5687H25.3943L25.3856 35.9217H26.8676C27.168 35.9217 27.4179 35.8723 27.6172 35.7734C27.8165 35.6717 27.9667 35.5357 28.0678 35.3654C28.1689 35.1951 28.2195 35.0069 28.2195 34.8008C28.2195 34.5701 28.1718 34.3681 28.0765 34.1951C27.9812 34.022 27.8309 33.8887 27.6258 33.7953C27.4236 33.6992 27.1622 33.6511 26.8416 33.6511H25.5893V39H24.753V33ZM28.4405 39L26.9066 36.2802L27.7775 36.2761L29.3331 38.9505V39H28.4405Z" fill="black"/>
<path d="M30.4857 33H31.296L33.3628 37.8915L35.4254 33H36.24L33.6748 39H33.0422L30.4857 33ZM30.2214 33H30.9363L31.0533 36.6593V39H30.2214V33ZM35.785 33H36.5V39H35.668V36.6593L35.785 33Z" fill="black"/>
</svg>
