<svg width="50" height="50" viewBox="0 0 50 50" fill="none" xmlns="http://www.w3.org/2000/svg">
<path fill-rule="evenodd" clip-rule="evenodd" d="M41.0338 12.7264V11.7551H35.9757L35.6281 12.7264H41.0338Z" fill="black"/>
<path d="M32.0244 20.9908H27.0029V21.9444H32.0244V20.9908Z" fill="black"/>
<path d="M32.0244 19.1366H27.0029V20.1079H32.0244V19.1366Z" fill="black"/>
<path fill-rule="evenodd" clip-rule="evenodd" d="M34.4119 12.7264L34.0643 11.7551H29.0245V12.7264H34.4119Z" fill="black"/>
<path d="M32.0246 15.4459H29.0245V16.4172H32.0246V15.4459Z" fill="black"/>
<path fill-rule="evenodd" clip-rule="evenodd" d="M32.0246 14.5717V13.7947H32.0429L32.3356 14.5717H37.7047L38.0065 13.7947H38.0339V14.5717H41.034V13.6005H35.3174L35.0247 14.3333H35.0064L34.7229 13.6005H29.0245V14.5717H32.0246Z" fill="black"/>
<path d="M32.0246 17.2913H29.0245V18.2625H32.0246V17.2913Z" fill="black"/>
<path fill-rule="evenodd" clip-rule="evenodd" d="M37.0458 16.4172L37.3933 15.4459H32.6371L32.9938 16.4172H37.0458Z" fill="black"/>
<path fill-rule="evenodd" clip-rule="evenodd" d="M36.3875 18.2714L36.7351 17.2913H33.2959L33.6526 18.2714H36.3875Z" fill="black"/>
<path fill-rule="evenodd" clip-rule="evenodd" d="M35.7106 20.1167L36.0582 19.1366H33.9544L34.3111 20.1167H35.7106Z" fill="black"/>
<path fill-rule="evenodd" clip-rule="evenodd" d="M34.6129 20.9908L34.9696 21.9444H35.0886L35.4178 20.9908H34.6129Z" fill="black"/>
<path fill-rule="evenodd" clip-rule="evenodd" d="M27.0029 9.90975V10.881H33.7531L33.4055 9.90975H27.0029Z" fill="black"/>
<path fill-rule="evenodd" clip-rule="evenodd" d="M33.0945 9.03562L32.747 8.05554H27.0029V9.03562H33.0945Z" fill="black"/>
<path fill-rule="evenodd" clip-rule="evenodd" d="M14.9661 9.90975V10.881H26.0975C26.0335 10.5278 25.7317 9.90975 25.7317 9.90975H14.9661Z" fill="black"/>
<path fill-rule="evenodd" clip-rule="evenodd" d="M26.015 12.7264C26.015 12.7264 26.1979 12.073 26.1979 11.7551H22.9966V12.7264H26.015Z" fill="black"/>
<path fill-rule="evenodd" clip-rule="evenodd" d="M25.5212 16.3995C25.5212 16.3995 24.9907 15.7461 24.6339 15.4459H16.9782V16.3995H25.5212Z" fill="black"/>
<path fill-rule="evenodd" clip-rule="evenodd" d="M14.9661 19.1366V20.1079H25.7225C25.9055 19.8077 26.0335 19.4722 26.0884 19.1366H14.9661Z" fill="black"/>
<path fill-rule="evenodd" clip-rule="evenodd" d="M14.9661 20.9908V21.9444H22.0639C24.3505 21.9444 24.9816 20.9908 24.9816 20.9908H14.9661Z" fill="black"/>
<path fill-rule="evenodd" clip-rule="evenodd" d="M24.5608 14.5717C24.9541 14.298 25.2833 13.9801 25.5669 13.6005C25.5486 13.6005 16.9873 13.6005 16.9873 13.6005V14.5717H24.5608Z" fill="black"/>
<path fill-rule="evenodd" clip-rule="evenodd" d="M26.2254 18.2714C26.2254 17.9359 26.1613 17.618 26.0424 17.3001H22.9966V18.2714H26.2254Z" fill="black"/>
<path d="M19.9874 17.2913H16.9873V18.2625H19.9874V17.2913Z" fill="black"/>
<path fill-rule="evenodd" clip-rule="evenodd" d="M16.9873 11.7551V12.7264H19.9874V11.7551H16.9873Z" fill="black"/>
<path fill-rule="evenodd" clip-rule="evenodd" d="M24.9907 9.00913C24.1492 8.35575 23.1797 8.05554 22.0913 8.05554H14.9752V9.00913H24.9907Z" fill="black"/>
<path d="M11.9661 17.2913H8.96596V18.2625H11.9661V17.2913Z" fill="black"/>
<path d="M13.9598 19.1366H6.94434V20.1079H13.9598V19.1366Z" fill="black"/>
<path d="M13.9598 20.9908H6.94434V21.9444H13.9598V20.9908Z" fill="black"/>
<path d="M13.9598 8.05554H6.94434V9.02679H13.9598V8.05554Z" fill="black"/>
<path d="M13.9687 9.90975H6.97146V10.881H13.9687V9.90975Z" fill="black"/>
<path d="M11.9661 11.7551H8.96596V12.7264H11.9661V11.7551Z" fill="black"/>
<path d="M11.9661 13.6005H8.96596V14.5717H11.9661V13.6005Z" fill="black"/>
<path d="M11.9661 15.4459H8.96596V16.4172H11.9661V15.4459Z" fill="black"/>
<path d="M41.034 15.4459H38.0339V16.4172H41.034V15.4459Z" fill="black"/>
<path d="M41.034 17.2913H38.0339V18.2625H41.034V17.2913Z" fill="black"/>
<path d="M43.0555 19.1366H38.0339V20.1079H43.0555V19.1366Z" fill="black"/>
<path d="M43.0555 20.9908H38.0339V21.9444H43.0555V20.9908Z" fill="black"/>
<path fill-rule="evenodd" clip-rule="evenodd" d="M43.046 10.881V9.90975H36.6708L36.305 10.881H43.046Z" fill="black"/>
<path fill-rule="evenodd" clip-rule="evenodd" d="M43.0461 9.03562V8.05554H37.3935L37.0002 9.03562H43.0461Z" fill="black"/>
<path d="M13.3882 32.9873C13.4351 33.1016 13.4585 33.2334 13.4585 33.3828C13.4585 33.5908 13.4043 33.771 13.2959 33.9233C13.1904 34.0757 13.0352 34.1929 12.8301 34.2749C12.625 34.3569 12.3745 34.3979 12.0786 34.3979C11.8735 34.3979 11.6758 34.3745 11.4854 34.3276C11.2979 34.2778 11.1294 34.2017 10.98 34.0991C10.8335 33.9966 10.7178 33.8677 10.6328 33.7124C10.5479 33.5542 10.5054 33.3652 10.5054 33.1455H9.66162C9.66162 33.4648 9.73047 33.7461 9.86816 33.9893C10.0088 34.2295 10.1948 34.4316 10.4263 34.5957C10.6606 34.7598 10.9199 34.8828 11.2041 34.9648C11.4912 35.0469 11.7827 35.0879 12.0786 35.0879C12.4155 35.0879 12.7202 35.0483 12.9927 34.9692C13.2681 34.8872 13.5039 34.7715 13.7002 34.6221C13.8965 34.4727 14.0474 34.2925 14.1528 34.0815C14.2583 33.8706 14.311 33.6348 14.311 33.374C14.311 33.125 14.2686 32.9023 14.1836 32.7061C14.1016 32.5068 13.9741 32.3296 13.8013 32.1743C13.6313 32.0161 13.4146 31.874 13.1509 31.748C12.8872 31.6221 12.5737 31.5078 12.2104 31.4053C11.9468 31.332 11.7197 31.2559 11.5293 31.1768C11.3418 31.0977 11.1865 31.0112 11.0635 30.9175C10.9434 30.8237 10.854 30.7227 10.7954 30.6143C10.7397 30.5029 10.7119 30.3799 10.7119 30.2451C10.7119 30.0459 10.7588 29.8687 10.8525 29.7134C10.9492 29.5581 11.0957 29.4351 11.292 29.3442C11.4883 29.2534 11.7373 29.208 12.0391 29.208C12.3584 29.208 12.6221 29.2622 12.8301 29.3706C13.0381 29.4761 13.1934 29.6226 13.2959 29.8101C13.3984 29.9946 13.4497 30.207 13.4497 30.4473H14.2935C14.2935 30.1133 14.2056 29.7998 14.0298 29.5068C13.854 29.2109 13.5977 28.9722 13.2607 28.7905C12.9268 28.606 12.5195 28.5137 12.0391 28.5137C11.7109 28.5137 11.4136 28.5576 11.147 28.6455C10.8804 28.7334 10.6504 28.8564 10.457 29.0146C10.2666 29.1699 10.1201 29.353 10.0176 29.564C9.91504 29.7749 9.86377 30.0049 9.86377 30.2539C9.86377 30.5029 9.91211 30.7241 10.0088 30.9175C10.1055 31.1108 10.2446 31.2822 10.4263 31.4316C10.6079 31.5811 10.8262 31.7144 11.0811 31.8315C11.3359 31.9458 11.6216 32.0498 11.938 32.1436C12.2397 32.2314 12.4888 32.3179 12.6851 32.4028C12.8843 32.4878 13.0396 32.5771 13.1509 32.6709C13.2651 32.7646 13.3442 32.8701 13.3882 32.9873Z" fill="black"/>
<path d="M17.1698 30.2451V30.8691H16.2821V33.8223C16.2821 33.9834 16.307 34.105 16.3568 34.187C16.4066 34.269 16.471 34.3232 16.5501 34.3496C16.6292 34.376 16.7142 34.3892 16.805 34.3892C16.8724 34.3892 16.9427 34.3833 17.016 34.3716C17.0921 34.3569 17.1493 34.3452 17.1873 34.3364L17.1917 35C17.1273 35.0205 17.0423 35.0396 16.9369 35.0571C16.8343 35.0776 16.7098 35.0879 16.5633 35.0879C16.3641 35.0879 16.181 35.0483 16.014 34.9692C15.847 34.8901 15.7137 34.7583 15.6141 34.5737C15.5174 34.3862 15.4691 34.1343 15.4691 33.8179V30.8691H14.599V30.2451H15.4691V29.0894H16.2821V30.2451H17.1698Z" fill="black"/>
<path fill-rule="evenodd" clip-rule="evenodd" d="M36.6138 34.9209C36.8833 35.0322 37.1836 35.0879 37.5147 35.0879C37.8282 35.0879 38.0992 35.0439 38.3277 34.9561C38.5591 34.8682 38.7539 34.7539 38.9121 34.6133C39.0704 34.4727 39.2007 34.3247 39.3033 34.1694L38.8111 33.7783C38.6617 33.9746 38.4873 34.1313 38.2881 34.2485C38.0889 34.3657 37.8457 34.4243 37.5586 34.4243C37.336 34.4243 37.1368 34.3818 36.961 34.2969C36.7881 34.2119 36.6402 34.0947 36.5171 33.9453C36.397 33.7959 36.3047 33.623 36.2403 33.4268C36.1844 33.2457 36.1539 33.0539 36.1488 32.8511H39.3648V32.4863C39.3648 32.1523 39.3267 31.8447 39.2505 31.5635C39.1744 31.2793 39.0572 31.0332 38.899 30.8252C38.7408 30.6143 38.5371 30.4502 38.2881 30.333C38.042 30.2158 37.7491 30.1572 37.4092 30.1572C37.1426 30.1572 36.8848 30.2114 36.6358 30.3198C36.3868 30.4282 36.1641 30.5879 35.9678 30.7988C35.7715 31.0098 35.6162 31.2676 35.502 31.5723C35.3877 31.874 35.3306 32.2183 35.3306 32.605V32.7896C35.3306 33.1235 35.3819 33.4312 35.4844 33.7124C35.587 33.9937 35.7334 34.2368 35.9239 34.4419C36.1172 34.647 36.3472 34.8066 36.6138 34.9209ZM36.1726 32.1875C36.1879 32.0653 36.2105 31.9511 36.2403 31.8447C36.3018 31.625 36.3882 31.439 36.4995 31.2866C36.6109 31.1343 36.7442 31.02 36.8995 30.9438C37.0547 30.8647 37.2246 30.8252 37.4092 30.8252C37.6875 30.8252 37.9073 30.8896 38.0684 31.0186C38.2295 31.1475 38.3467 31.3115 38.42 31.5107C38.4961 31.71 38.5401 31.915 38.5518 32.126V32.1875H36.1726Z" fill="black"/>
<path fill-rule="evenodd" clip-rule="evenodd" d="M13.3003 42.4907H11.7886V45H10.9404V38.6016H13.3003C13.7837 38.6016 14.1924 38.6851 14.5264 38.8521C14.8604 39.019 15.1138 39.2505 15.2866 39.5464C15.4595 39.8394 15.5459 40.1748 15.5459 40.5527C15.5459 40.9629 15.4595 41.313 15.2866 41.603C15.1138 41.8931 14.8604 42.1143 14.5264 42.2666C14.1924 42.416 13.7837 42.4907 13.3003 42.4907ZM11.7886 39.2959V41.8008H13.3003C13.6313 41.8008 13.8994 41.748 14.1045 41.6426C14.3096 41.5371 14.459 41.3906 14.5527 41.2031C14.6494 41.0156 14.6978 40.8018 14.6978 40.5615C14.6978 40.3418 14.6494 40.1353 14.5527 39.9419C14.459 39.7485 14.3096 39.5933 14.1045 39.4761C13.8994 39.356 13.6313 39.2959 13.3003 39.2959H11.7886Z" fill="black"/>
<path d="M26.3106 40.8691V40.2451H25.4229V39.0894H24.6099V40.2451H23.7398V40.8691H24.6099V43.8179C24.6099 44.1343 24.6582 44.3862 24.7549 44.5737C24.8545 44.7583 24.9878 44.8901 25.1548 44.9692C25.3218 45.0483 25.5049 45.0879 25.7041 45.0879C25.8506 45.0879 25.9751 45.0776 26.0777 45.0571C26.1831 45.0396 26.2681 45.0205 26.3325 45L26.3281 44.3364C26.2901 44.3452 26.2329 44.3569 26.1568 44.3716C26.0835 44.3833 26.0132 44.3892 25.9458 44.3892C25.855 44.3892 25.77 44.376 25.6909 44.3496C25.6118 44.3232 25.5474 44.269 25.4976 44.187C25.4478 44.105 25.4229 43.9834 25.4229 43.8223V40.8691H26.3106Z" fill="black"/>
<path d="M38.4683 40.8691V40.2451H37.5806V39.0894H36.7676V40.2451H35.8975V40.8691H36.7676V43.8179C36.7676 44.1343 36.816 44.3862 36.9126 44.5737C37.0122 44.7583 37.1455 44.8901 37.3125 44.9692C37.4795 45.0483 37.6626 45.0879 37.8619 45.0879C38.0083 45.0879 38.1329 45.0776 38.2354 45.0571C38.3409 45.0396 38.4258 45.0205 38.4903 45L38.4859 44.3364C38.4478 44.3452 38.3907 44.3569 38.3145 44.3716C38.2412 44.3833 38.1709 44.3892 38.1036 44.3892C38.0127 44.3892 37.9278 44.376 37.8487 44.3496C37.7696 44.3232 37.7051 44.269 37.6553 44.187C37.6055 44.105 37.5806 43.9834 37.5806 43.8223V40.8691H38.4683Z" fill="black"/>
<path d="M34.2956 44.3013C34.1315 44.3804 33.9528 44.4199 33.7595 44.4199C33.5075 44.4199 33.2966 44.3716 33.1267 44.2749C32.9597 44.1753 32.8264 44.0435 32.7268 43.8794C32.6301 43.7153 32.5612 43.5322 32.5202 43.3301C32.4792 43.1279 32.4587 42.9229 32.4587 42.7148V42.5303C32.4587 42.3223 32.4792 42.1187 32.5202 41.9194C32.5642 41.7173 32.6345 41.5342 32.7312 41.3701C32.8308 41.2031 32.9641 41.0713 33.1311 40.9746C33.301 40.875 33.5104 40.8252 33.7595 40.8252C33.9763 40.8252 34.1652 40.8735 34.3264 40.9702C34.4904 41.064 34.6193 41.1899 34.7131 41.3481C34.8098 41.5063 34.8654 41.6836 34.8801 41.8799H35.6535C35.6389 41.5518 35.551 41.2588 35.3898 41.001C35.2316 40.7402 35.0134 40.5352 34.7351 40.3857C34.4567 40.2334 34.1315 40.1572 33.7595 40.1572C33.4021 40.1572 33.09 40.2202 32.8234 40.3462C32.5598 40.4722 32.34 40.645 32.1643 40.8647C31.9914 41.0845 31.861 41.3379 31.7731 41.625C31.6882 41.9092 31.6457 42.2109 31.6457 42.5303V42.7148C31.6457 43.0342 31.6882 43.3374 31.7731 43.6245C31.861 43.9087 31.9914 44.1606 32.1643 44.3804C32.34 44.6001 32.5598 44.7729 32.8234 44.8989C33.09 45.0249 33.4021 45.0879 33.7595 45.0879C34.0964 45.0879 34.4055 45.0146 34.6867 44.8682C34.968 44.7188 35.195 44.5239 35.3679 44.2837C35.5437 44.0405 35.6389 43.7783 35.6535 43.4971H34.8801C34.8654 43.6758 34.8054 43.8354 34.6999 43.9761C34.5944 44.1138 34.4597 44.2222 34.2956 44.3013Z" fill="black"/>
<path fill-rule="evenodd" clip-rule="evenodd" d="M29.1473 45.0879C28.8163 45.0879 28.516 45.0322 28.2464 44.9209C27.9798 44.8066 27.7499 44.647 27.5565 44.4419C27.3661 44.2368 27.2196 43.9937 27.1171 43.7124C27.0145 43.4312 26.9632 43.1235 26.9632 42.7896V42.605C26.9632 42.2183 27.0204 41.874 27.1346 41.5723C27.2489 41.2676 27.4042 41.0098 27.6004 40.7988C27.7967 40.5879 28.0194 40.4282 28.2684 40.3198C28.5174 40.2114 28.7753 40.1572 29.0419 40.1572C29.3817 40.1572 29.6747 40.2158 29.9208 40.333C30.1698 40.4502 30.3734 40.6143 30.5316 40.8252C30.6898 41.0332 30.807 41.2793 30.8832 41.5635C30.9593 41.8447 30.9974 42.1523 30.9974 42.4863V42.8511H27.7814C27.7865 43.0539 27.817 43.2457 27.8729 43.4268C27.9374 43.623 28.0296 43.7959 28.1498 43.9453C28.2728 44.0947 28.4208 44.2119 28.5936 44.2969C28.7694 44.3818 28.9686 44.4243 29.1913 44.4243C29.4784 44.4243 29.7215 44.3657 29.9208 44.2485C30.12 44.1313 30.2943 43.9746 30.4437 43.7783L30.9359 44.1694C30.8334 44.3247 30.703 44.4727 30.5448 44.6133C30.3866 44.7539 30.1918 44.8682 29.9603 44.9561C29.7318 45.0439 29.4608 45.0879 29.1473 45.0879ZM30.1844 42.1875H27.8052C27.8206 42.0653 27.8431 41.9511 27.8729 41.8447C27.9344 41.625 28.0209 41.439 28.1322 41.2866C28.2435 41.1343 28.3768 41.02 28.5321 40.9438C28.6874 40.8647 28.8573 40.8252 29.0419 40.8252C29.3202 40.8252 29.5399 40.8896 29.701 41.0186C29.8622 41.1475 29.9794 41.3115 30.0526 41.5107C30.1288 41.71 30.1727 41.915 30.1844 42.126V42.1875Z" fill="black"/>
<path fill-rule="evenodd" clip-rule="evenodd" d="M19.0617 42.6753V42.5742C19.0617 42.2314 19.1115 41.9136 19.2111 41.6206C19.3107 41.3247 19.4543 41.0684 19.6418 40.8516C19.8293 40.6318 20.0563 40.4619 20.3229 40.3418C20.5895 40.2188 20.8884 40.1572 21.2194 40.1572C21.5534 40.1572 21.8537 40.2188 22.1203 40.3418C22.3898 40.4619 22.6183 40.6318 22.8058 40.8516C22.9963 41.0684 23.1413 41.3247 23.2409 41.6206C23.3405 41.9136 23.3903 42.2314 23.3903 42.5742V42.6753C23.3903 43.0181 23.3405 43.3359 23.2409 43.6289C23.1413 43.9219 22.9963 44.1782 22.8058 44.3979C22.6183 44.6147 22.3913 44.7847 22.1247 44.9077C21.861 45.0278 21.5622 45.0879 21.2282 45.0879C20.8942 45.0879 20.5939 45.0278 20.3273 44.9077C20.0607 44.7847 19.8322 44.6147 19.6418 44.3979C19.4543 44.1782 19.3107 43.9219 19.2111 43.6289C19.1115 43.3359 19.0617 43.0181 19.0617 42.6753ZM19.8747 42.5742V42.6753C19.8747 42.9126 19.9025 43.1367 19.9582 43.3477C20.0138 43.5557 20.0973 43.7402 20.2087 43.9014C20.3229 44.0625 20.465 44.1899 20.6349 44.2837C20.8049 44.3745 21.0026 44.4199 21.2282 44.4199C21.4509 44.4199 21.6457 44.3745 21.8127 44.2837C21.9826 44.1899 22.1232 44.0625 22.2346 43.9014C22.3459 43.7402 22.4294 43.5557 22.485 43.3477C22.5436 43.1367 22.5729 42.9126 22.5729 42.6753V42.5742C22.5729 42.3398 22.5436 42.1187 22.485 41.9106C22.4294 41.6997 22.3444 41.5137 22.2302 41.3525C22.1188 41.1885 21.9782 41.0596 21.8083 40.9658C21.6413 40.8721 21.445 40.8252 21.2194 40.8252C20.9968 40.8252 20.8005 40.8721 20.6305 40.9658C20.4636 41.0596 20.3229 41.1885 20.2087 41.3525C20.0973 41.5137 20.0138 41.6997 19.9582 41.9106C19.9025 42.1187 19.8747 42.3398 19.8747 42.5742Z" fill="black"/>
<path d="M17.2122 40.7908L17.2181 40.7812C17.3382 40.585 17.4906 40.4326 17.6751 40.3242C17.8626 40.2129 18.0853 40.1572 18.3431 40.1572C18.4017 40.1572 18.4691 40.1646 18.5453 40.1792C18.6214 40.1909 18.6742 40.2041 18.7035 40.2188L18.6991 40.9746C18.6317 40.96 18.5672 40.9512 18.5057 40.9482C18.4471 40.9424 18.3797 40.9395 18.3036 40.9395C18.1161 40.9395 17.9505 40.9688 17.807 41.0273C17.6634 41.0859 17.5418 41.168 17.4422 41.2734C17.3499 41.3712 17.2752 41.4866 17.2181 41.6196V45H16.4051V40.2451H17.1961L17.2122 40.7908Z" fill="black"/>
<path fill-rule="evenodd" clip-rule="evenodd" d="M33.6584 30.2451H34.3967V34.8989C34.3967 35.3179 34.3117 35.6753 34.1418 35.9712C33.9719 36.2671 33.7346 36.4912 33.4299 36.6436C33.1281 36.7988 32.7795 36.8765 32.384 36.8765C32.2199 36.8765 32.0266 36.8501 31.8039 36.7974C31.5842 36.7476 31.3674 36.6611 31.1535 36.5381C30.9426 36.418 30.7653 36.2554 30.6218 36.0503L31.048 35.5669C31.2473 35.8071 31.4553 35.9741 31.6721 36.0679C31.8918 36.1616 32.1086 36.2085 32.3225 36.2085C32.5803 36.2085 32.8029 36.1602 32.9904 36.0635C33.1779 35.9668 33.3229 35.8232 33.4255 35.6328C33.531 35.4453 33.5837 35.2139 33.5837 34.9385V34.5192C33.4342 34.6972 33.2541 34.8355 33.0432 34.9341C32.8176 35.0366 32.5539 35.0879 32.2521 35.0879C31.968 35.0879 31.7102 35.0278 31.4787 34.9077C31.2502 34.7876 31.0539 34.6191 30.8898 34.4023C30.7258 34.1855 30.5998 33.9307 30.5119 33.6377C30.427 33.3418 30.3845 33.021 30.3845 32.6753V32.583C30.3845 32.2197 30.427 31.8901 30.5119 31.5942C30.5998 31.2954 30.7243 31.0391 30.8854 30.8252C31.0495 30.6113 31.2473 30.4473 31.4787 30.333C31.7102 30.2158 31.9709 30.1572 32.2609 30.1572C32.5598 30.1572 32.8205 30.21 33.0432 30.3154C33.2687 30.418 33.4592 30.5688 33.6145 30.7681L33.6205 30.7756L33.6584 30.2451ZM33.5837 33.6836V31.5347C33.5269 31.4241 33.4581 31.3238 33.3771 31.2339C33.2746 31.1138 33.1472 31.0186 32.9948 30.9482C32.8425 30.8779 32.6638 30.8428 32.4587 30.8428C32.236 30.8428 32.0441 30.8896 31.883 30.9834C31.7248 31.0742 31.5944 31.2002 31.4919 31.3613C31.3923 31.5195 31.3176 31.7041 31.2678 31.915C31.2209 32.123 31.1975 32.3457 31.1975 32.583V32.6753C31.1975 32.9126 31.2209 33.1353 31.2678 33.3433C31.3176 33.5513 31.3923 33.7344 31.4919 33.8926C31.5944 34.0508 31.7248 34.1753 31.883 34.2661C32.0412 34.354 32.2302 34.3979 32.4499 34.3979C32.7194 34.3979 32.9421 34.3408 33.1179 34.2266C33.2937 34.1123 33.4328 33.9614 33.5354 33.7739C33.5521 33.7442 33.5682 33.7141 33.5837 33.6836Z" fill="black"/>
<path fill-rule="evenodd" clip-rule="evenodd" d="M28.5944 34.4974C28.5557 34.538 28.5144 34.5781 28.4706 34.6177C28.3212 34.7524 28.1424 34.8652 27.9344 34.9561C27.7294 35.0439 27.4979 35.0879 27.2401 35.0879C26.9178 35.0879 26.6351 35.0249 26.392 34.8989C26.1517 34.7729 25.9642 34.6045 25.8295 34.3936C25.6976 34.1797 25.6317 33.9409 25.6317 33.6772C25.6317 33.4224 25.6815 33.1982 25.7811 33.0049C25.8807 32.8086 26.0243 32.646 26.2118 32.5171C26.3993 32.3853 26.6249 32.2856 26.8885 32.2183C27.1522 32.1509 27.4466 32.1172 27.7718 32.1172H28.576V31.7393C28.576 31.5518 28.5379 31.3892 28.4618 31.2515C28.3885 31.1108 28.2772 31.0024 28.1278 30.9263C27.9784 30.8501 27.7938 30.812 27.5741 30.812C27.369 30.812 27.1888 30.8472 27.0336 30.9175C26.8812 30.9878 26.7611 31.0801 26.6732 31.1943C26.5882 31.3086 26.5458 31.4316 26.5458 31.5635H25.7328C25.7328 31.3936 25.7767 31.2251 25.8646 31.0581C25.9525 30.8911 26.0785 30.7402 26.2425 30.6055C26.4095 30.4678 26.6087 30.3594 26.8402 30.2803C27.0746 30.1982 27.3353 30.1572 27.6224 30.1572C27.9681 30.1572 28.2728 30.2158 28.5365 30.333C28.8031 30.4502 29.0111 30.6274 29.1605 30.8647C29.3129 31.0991 29.389 31.3936 29.389 31.748V33.9629C29.389 34.1211 29.4022 34.2896 29.4286 34.4683C29.4579 34.647 29.5004 34.8008 29.556 34.9297V35H28.7079C28.6669 34.9062 28.6346 34.7817 28.6112 34.6265C28.6047 34.5825 28.5991 34.5395 28.5944 34.4974ZM28.576 32.6885V33.6632C28.5481 33.7185 28.513 33.7745 28.4706 33.8311C28.3592 33.9834 28.2084 34.1123 28.0179 34.2178C27.8275 34.3232 27.6078 34.376 27.3587 34.376C27.1595 34.376 26.9911 34.3408 26.8534 34.2705C26.7186 34.1973 26.6175 34.0991 26.5502 33.9761C26.4828 33.853 26.4491 33.7168 26.4491 33.5674C26.4491 33.4209 26.4813 33.2935 26.5458 33.1851C26.6102 33.0737 26.704 32.9814 26.827 32.9082C26.9501 32.835 27.1024 32.7808 27.284 32.7456C27.4657 32.7075 27.6722 32.6885 27.9037 32.6885H28.576Z" fill="black"/>
<path d="M23.8013 35V31.6196C23.8584 31.4866 23.9331 31.3712 24.0254 31.2734C24.125 31.168 24.2466 31.0859 24.3902 31.0273C24.5337 30.9688 24.6992 30.9395 24.8867 30.9395C24.9629 30.9395 25.0303 30.9424 25.0889 30.9482C25.1504 30.9512 25.2149 30.96 25.2822 30.9746L25.2866 30.2188C25.2573 30.2041 25.2046 30.1909 25.1284 30.1792C25.0523 30.1646 24.9849 30.1572 24.9263 30.1572C24.6685 30.1572 24.4458 30.2129 24.2583 30.3242C24.0737 30.4326 23.9214 30.585 23.8013 30.7812L23.7954 30.7908L23.7793 30.2451H22.9883V35H23.8013Z" fill="black"/>
<path fill-rule="evenodd" clip-rule="evenodd" d="M17.7302 32.5742V32.6753C17.7302 33.0181 17.78 33.3359 17.8796 33.6289C17.9792 33.9219 18.1227 34.1782 18.3102 34.3979C18.5007 34.6147 18.7292 34.7847 18.9958 34.9077C19.2624 35.0278 19.5627 35.0879 19.8967 35.0879C20.2306 35.0879 20.5295 35.0278 20.7931 34.9077C21.0597 34.7847 21.2868 34.6147 21.4743 34.3979C21.6647 34.1782 21.8097 33.9219 21.9094 33.6289C22.009 33.3359 22.0588 33.0181 22.0588 32.6753V32.5742C22.0588 32.2314 22.009 31.9136 21.9094 31.6206C21.8097 31.3247 21.6647 31.0684 21.4743 30.8516C21.2868 30.6318 21.0583 30.4619 20.7887 30.3418C20.5221 30.2188 20.2219 30.1572 19.8879 30.1572C19.5568 30.1572 19.258 30.2188 18.9914 30.3418C18.7248 30.4619 18.4977 30.6318 18.3102 30.8516C18.1227 31.0684 17.9792 31.3247 17.8796 31.6206C17.78 31.9136 17.7302 32.2314 17.7302 32.5742ZM18.5431 32.6753V32.5742C18.5431 32.3398 18.571 32.1187 18.6266 31.9106C18.6823 31.6997 18.7658 31.5137 18.8771 31.3525C18.9914 31.1885 19.132 31.0596 19.299 30.9658C19.4689 30.8721 19.6652 30.8252 19.8879 30.8252C20.1135 30.8252 20.3097 30.8721 20.4767 30.9658C20.6467 31.0596 20.7873 31.1885 20.8986 31.3525C21.0129 31.5137 21.0978 31.6997 21.1535 31.9106C21.2121 32.1187 21.2414 32.3398 21.2414 32.5742V32.6753C21.2414 32.9126 21.2121 33.1367 21.1535 33.3477C21.0978 33.5557 21.0143 33.7402 20.903 33.9014C20.7917 34.0625 20.6511 34.1899 20.4811 34.2837C20.3141 34.3745 20.1193 34.4199 19.8967 34.4199C19.6711 34.4199 19.4733 34.3745 19.3034 34.2837C19.1335 34.1899 18.9914 34.0625 18.8771 33.9014C18.7658 33.7402 18.6823 33.5557 18.6266 33.3477C18.571 33.1367 18.5431 32.9126 18.5431 32.6753Z" fill="black"/>
</svg>
