<svg width="50" height="50" viewBox="0 0 50 50" fill="none" xmlns="http://www.w3.org/2000/svg">
<path fill-rule="evenodd" clip-rule="evenodd" d="M41.0338 18.7264V17.7551H35.9757L35.6281 18.7264H41.0338Z" fill="black"/>
<path d="M32.0244 26.9908H27.0029V27.9444H32.0244V26.9908Z" fill="black"/>
<path d="M32.0244 25.1366H27.0029V26.1079H32.0244V25.1366Z" fill="black"/>
<path fill-rule="evenodd" clip-rule="evenodd" d="M34.4119 18.7264L34.0643 17.7551H29.0245V18.7264H34.4119Z" fill="black"/>
<path d="M32.0246 21.4459H29.0245V22.4172H32.0246V21.4459Z" fill="black"/>
<path fill-rule="evenodd" clip-rule="evenodd" d="M32.0246 20.5717V19.7947H32.0429L32.3356 20.5717H37.7047L38.0065 19.7947H38.0339V20.5717H41.034V19.6005H35.3174L35.0247 20.3333H35.0064L34.7229 19.6005H29.0245V20.5717H32.0246Z" fill="black"/>
<path d="M32.0246 23.2913H29.0245V24.2625H32.0246V23.2913Z" fill="black"/>
<path fill-rule="evenodd" clip-rule="evenodd" d="M37.0458 22.4172L37.3933 21.4459H32.6371L32.9938 22.4172H37.0458Z" fill="black"/>
<path fill-rule="evenodd" clip-rule="evenodd" d="M36.3875 24.2714L36.7351 23.2913H33.2959L33.6526 24.2714H36.3875Z" fill="black"/>
<path fill-rule="evenodd" clip-rule="evenodd" d="M35.7106 26.1167L36.0582 25.1366H33.9544L34.3111 26.1167H35.7106Z" fill="black"/>
<path fill-rule="evenodd" clip-rule="evenodd" d="M34.6129 26.9908L34.9696 27.9444H35.0886L35.4178 26.9908H34.6129Z" fill="black"/>
<path fill-rule="evenodd" clip-rule="evenodd" d="M27.0029 15.9098V16.881H33.7531L33.4055 15.9098H27.0029Z" fill="black"/>
<path fill-rule="evenodd" clip-rule="evenodd" d="M33.0945 15.0356L32.747 14.0555H27.0029V15.0356H33.0945Z" fill="black"/>
<path fill-rule="evenodd" clip-rule="evenodd" d="M14.9661 15.9098V16.881H26.0975C26.0335 16.5278 25.7317 15.9098 25.7317 15.9098H14.9661Z" fill="black"/>
<path fill-rule="evenodd" clip-rule="evenodd" d="M26.015 18.7264C26.015 18.7264 26.1979 18.073 26.1979 17.7551H22.9966V18.7264H26.015Z" fill="black"/>
<path fill-rule="evenodd" clip-rule="evenodd" d="M25.5212 22.3995C25.5212 22.3995 24.9907 21.7461 24.6339 21.4459H16.9782V22.3995H25.5212Z" fill="black"/>
<path fill-rule="evenodd" clip-rule="evenodd" d="M14.9661 25.1366V26.1079H25.7225C25.9055 25.8077 26.0335 25.4722 26.0884 25.1366H14.9661Z" fill="black"/>
<path fill-rule="evenodd" clip-rule="evenodd" d="M14.9661 26.9908V27.9444H22.0639C24.3505 27.9444 24.9816 26.9908 24.9816 26.9908H14.9661Z" fill="black"/>
<path fill-rule="evenodd" clip-rule="evenodd" d="M24.5608 20.5717C24.9541 20.298 25.2833 19.9801 25.5669 19.6005C25.5486 19.6005 16.9873 19.6005 16.9873 19.6005V20.5717H24.5608Z" fill="black"/>
<path fill-rule="evenodd" clip-rule="evenodd" d="M26.2254 24.2714C26.2254 23.9359 26.1613 23.618 26.0424 23.3001H22.9966V24.2714H26.2254Z" fill="black"/>
<path d="M19.9874 23.2913H16.9873V24.2625H19.9874V23.2913Z" fill="black"/>
<path fill-rule="evenodd" clip-rule="evenodd" d="M16.9873 17.7551V18.7264H19.9874V17.7551H16.9873Z" fill="black"/>
<path fill-rule="evenodd" clip-rule="evenodd" d="M24.9907 15.0091C24.1492 14.3557 23.1797 14.0555 22.0913 14.0555H14.9752V15.0091H24.9907Z" fill="black"/>
<path d="M11.9661 23.2913H8.96596V24.2625H11.9661V23.2913Z" fill="black"/>
<path d="M13.9598 25.1366H6.94434V26.1079H13.9598V25.1366Z" fill="black"/>
<path d="M13.9598 26.9908H6.94434V27.9444H13.9598V26.9908Z" fill="black"/>
<path d="M13.9598 14.0555H6.94434V15.0268H13.9598V14.0555Z" fill="black"/>
<path d="M13.9687 15.9098H6.97146V16.881H13.9687V15.9098Z" fill="black"/>
<path d="M11.9661 17.7551H8.96596V18.7264H11.9661V17.7551Z" fill="black"/>
<path d="M11.9661 19.6005H8.96596V20.5717H11.9661V19.6005Z" fill="black"/>
<path d="M11.9661 21.4459H8.96596V22.4172H11.9661V21.4459Z" fill="black"/>
<path d="M41.034 21.4459H38.0339V22.4172H41.034V21.4459Z" fill="black"/>
<path d="M41.034 23.2913H38.0339V24.2625H41.034V23.2913Z" fill="black"/>
<path d="M43.0555 25.1366H38.0339V26.1079H43.0555V25.1366Z" fill="black"/>
<path d="M43.0555 26.9908H38.0339V27.9444H43.0555V26.9908Z" fill="black"/>
<path fill-rule="evenodd" clip-rule="evenodd" d="M43.046 16.881V15.9098H36.6708L36.305 16.881H43.046Z" fill="black"/>
<path fill-rule="evenodd" clip-rule="evenodd" d="M43.0461 15.0356V14.0555H37.3935L37.0002 15.0356H43.0461Z" fill="black"/>
<path fill-rule="evenodd" clip-rule="evenodd" d="M13.6016 39.4907H15.1133C15.5967 39.4907 16.0054 39.416 16.3394 39.2666C16.6733 39.1143 16.9268 38.8931 17.0996 38.603C17.2725 38.313 17.3589 37.9629 17.3589 37.5527C17.3589 37.1748 17.2725 36.8394 17.0996 36.5464C16.9268 36.2505 16.6733 36.019 16.3394 35.8521C16.0054 35.6851 15.5967 35.6016 15.1133 35.6016H12.7534V42H13.6016V39.4907ZM13.6016 38.8008V36.2959H15.1133C15.4443 36.2959 15.7124 36.356 15.9175 36.4761C16.1226 36.5933 16.272 36.7485 16.3657 36.9419C16.4624 37.1353 16.5107 37.3418 16.5107 37.5615C16.5107 37.8018 16.4624 38.0156 16.3657 38.2031C16.272 38.3906 16.1226 38.5371 15.9175 38.6426C15.7124 38.748 15.4443 38.8008 15.1133 38.8008H13.6016Z" fill="black"/>
<path fill-rule="evenodd" clip-rule="evenodd" d="M17.9412 39.6753V39.5742C17.9412 39.2314 17.9911 38.9136 18.0907 38.6206C18.1903 38.3247 18.3338 38.0684 18.5213 37.8516C18.7088 37.6318 18.9359 37.4619 19.2025 37.3418C19.4691 37.2188 19.7679 37.1572 20.099 37.1572C20.4329 37.1572 20.7332 37.2188 20.9998 37.3418C21.2694 37.4619 21.4979 37.6318 21.6854 37.8516C21.8758 38.0684 22.0208 38.3247 22.1204 38.6206C22.2201 38.9136 22.2699 39.2314 22.2699 39.5742V39.6753C22.2699 40.0181 22.2201 40.3359 22.1204 40.6289C22.0208 40.9219 21.8758 41.1782 21.6854 41.3979C21.4979 41.6147 21.2708 41.7847 21.0042 41.9077C20.7406 42.0278 20.4417 42.0879 20.1078 42.0879C19.7738 42.0879 19.4735 42.0278 19.2069 41.9077C18.9403 41.7847 18.7118 41.6147 18.5213 41.3979C18.3338 41.1782 18.1903 40.9219 18.0907 40.6289C17.9911 40.3359 17.9412 40.0181 17.9412 39.6753ZM18.7542 39.5742V39.6753C18.7542 39.9126 18.7821 40.1367 18.8377 40.3477C18.8934 40.5557 18.9769 40.7402 19.0882 40.9014C19.2025 41.0625 19.3446 41.1899 19.5145 41.2837C19.6844 41.3745 19.8822 41.4199 20.1078 41.4199C20.3304 41.4199 20.5252 41.3745 20.6922 41.2837C20.8621 41.1899 21.0028 41.0625 21.1141 40.9014C21.2254 40.7402 21.3089 40.5557 21.3646 40.3477C21.4232 40.1367 21.4525 39.9126 21.4525 39.6753V39.5742C21.4525 39.3398 21.4232 39.1187 21.3646 38.9106C21.3089 38.6997 21.224 38.5137 21.1097 38.3525C20.9984 38.1885 20.8578 38.0596 20.6878 37.9658C20.5208 37.8721 20.3246 37.8252 20.099 37.8252C19.8763 37.8252 19.68 37.8721 19.5101 37.9658C19.3431 38.0596 19.2025 38.1885 19.0882 38.3525C18.9769 38.5137 18.8934 38.6997 18.8377 38.9106C18.7821 39.1187 18.7542 39.3398 18.7542 39.5742Z" fill="black"/>
<path fill-rule="evenodd" clip-rule="evenodd" d="M31.8501 42.0879C31.5191 42.0879 31.2188 42.0322 30.9492 41.9209C30.6826 41.8066 30.4527 41.647 30.2593 41.4419C30.0689 41.2368 29.9224 40.9937 29.8198 40.7124C29.7173 40.4312 29.666 40.1235 29.666 39.7896V39.605C29.666 39.2183 29.7232 38.874 29.8374 38.5723C29.9517 38.2676 30.107 38.0098 30.3032 37.7988C30.4995 37.5879 30.7222 37.4282 30.9712 37.3198C31.2202 37.2114 31.478 37.1572 31.7446 37.1572C32.0845 37.1572 32.3775 37.2158 32.6236 37.333C32.8726 37.4502 33.0762 37.6143 33.2344 37.8252C33.3926 38.0332 33.5098 38.2793 33.586 38.5635C33.6621 38.8447 33.7002 39.1523 33.7002 39.4863V39.8511H30.4842C30.4893 40.0539 30.5198 40.2457 30.5757 40.4268C30.6402 40.623 30.7324 40.7959 30.8526 40.9453C30.9756 41.0947 31.1236 41.2119 31.2964 41.2969C31.4722 41.3818 31.6714 41.4243 31.8941 41.4243C32.1812 41.4243 32.4243 41.3657 32.6236 41.2485C32.8228 41.1313 32.9971 40.9746 33.1465 40.7783L33.6387 41.1694C33.5362 41.3247 33.4058 41.4727 33.2476 41.6133C33.0894 41.7539 32.8946 41.8682 32.6631 41.9561C32.4346 42.0439 32.1636 42.0879 31.8501 42.0879ZM30.5757 38.8447C30.5459 38.9511 30.5233 39.0653 30.508 39.1875H32.8872V39.126C32.8755 38.915 32.8316 38.71 32.7554 38.5107C32.6821 38.3115 32.565 38.1475 32.4038 38.0186C32.2427 37.8896 32.023 37.8252 31.7446 37.8252C31.5601 37.8252 31.3902 37.8647 31.2349 37.9438C31.0796 38.02 30.9463 38.1343 30.835 38.2866C30.7237 38.439 30.6372 38.625 30.5757 38.8447Z" fill="black"/>
<path d="M35.3724 42V38.6196C35.4295 38.4866 35.5042 38.3712 35.5965 38.2734C35.6962 38.168 35.8177 38.0859 35.9613 38.0273C36.1048 37.9688 36.2704 37.9395 36.4579 37.9395C36.534 37.9395 36.6014 37.9424 36.66 37.9482C36.7215 37.9512 36.786 37.96 36.8534 37.9746L36.8578 37.2188C36.8285 37.2041 36.7757 37.1909 36.6996 37.1792C36.6234 37.1646 36.556 37.1572 36.4974 37.1572C36.2396 37.1572 36.017 37.2129 35.8295 37.3242C35.6449 37.4326 35.4925 37.585 35.3724 37.7812L35.3665 37.7908L35.3504 37.2451H34.5594V42H35.3724Z" fill="black"/>
<path d="M24.1486 42L22.7687 37.2451H23.5817L24.5164 40.7947L25.6252 37.2451H26.28L27.4064 40.8687L28.3234 37.2451H29.132L27.7521 42H27.0929L25.9379 38.4L24.8122 42H24.1486Z" fill="black"/>
</svg>
