<svg width="50" height="50" viewBox="0 0 50 50" fill="none" xmlns="http://www.w3.org/2000/svg">
<path fill-rule="evenodd" clip-rule="evenodd" d="M41.0338 18.7264V17.7551H35.9757L35.6281 18.7264H41.0338Z" fill="black"/>
<path d="M32.0244 26.9908H27.0029V27.9444H32.0244V26.9908Z" fill="black"/>
<path d="M32.0244 25.1366H27.0029V26.1079H32.0244V25.1366Z" fill="black"/>
<path fill-rule="evenodd" clip-rule="evenodd" d="M34.4119 18.7264L34.0643 17.7551H29.0245V18.7264H34.4119Z" fill="black"/>
<path d="M32.0246 21.4459H29.0245V22.4172H32.0246V21.4459Z" fill="black"/>
<path fill-rule="evenodd" clip-rule="evenodd" d="M32.0246 20.5717V19.7947H32.0429L32.3356 20.5717H37.7047L38.0065 19.7947H38.0339V20.5717H41.034V19.6005H35.3174L35.0247 20.3333H35.0064L34.7229 19.6005H29.0245V20.5717H32.0246Z" fill="black"/>
<path d="M32.0246 23.2913H29.0245V24.2625H32.0246V23.2913Z" fill="black"/>
<path fill-rule="evenodd" clip-rule="evenodd" d="M37.0458 22.4172L37.3933 21.4459H32.6371L32.9938 22.4172H37.0458Z" fill="black"/>
<path fill-rule="evenodd" clip-rule="evenodd" d="M36.3875 24.2714L36.7351 23.2913H33.2959L33.6526 24.2714H36.3875Z" fill="black"/>
<path fill-rule="evenodd" clip-rule="evenodd" d="M35.7106 26.1167L36.0582 25.1366H33.9544L34.3111 26.1167H35.7106Z" fill="black"/>
<path fill-rule="evenodd" clip-rule="evenodd" d="M34.6129 26.9908L34.9696 27.9444H35.0886L35.4178 26.9908H34.6129Z" fill="black"/>
<path fill-rule="evenodd" clip-rule="evenodd" d="M27.0029 15.9098V16.881H33.7531L33.4055 15.9098H27.0029Z" fill="black"/>
<path fill-rule="evenodd" clip-rule="evenodd" d="M33.0945 15.0356L32.747 14.0555H27.0029V15.0356H33.0945Z" fill="black"/>
<path fill-rule="evenodd" clip-rule="evenodd" d="M14.9661 15.9098V16.881H26.0975C26.0335 16.5278 25.7317 15.9098 25.7317 15.9098H14.9661Z" fill="black"/>
<path fill-rule="evenodd" clip-rule="evenodd" d="M26.015 18.7264C26.015 18.7264 26.1979 18.073 26.1979 17.7551H22.9966V18.7264H26.015Z" fill="black"/>
<path fill-rule="evenodd" clip-rule="evenodd" d="M25.5212 22.3995C25.5212 22.3995 24.9907 21.7461 24.6339 21.4459H16.9782V22.3995H25.5212Z" fill="black"/>
<path fill-rule="evenodd" clip-rule="evenodd" d="M14.9661 25.1366V26.1079H25.7225C25.9055 25.8077 26.0335 25.4722 26.0884 25.1366H14.9661Z" fill="black"/>
<path fill-rule="evenodd" clip-rule="evenodd" d="M14.9661 26.9908V27.9444H22.0639C24.3505 27.9444 24.9816 26.9908 24.9816 26.9908H14.9661Z" fill="black"/>
<path fill-rule="evenodd" clip-rule="evenodd" d="M24.5608 20.5717C24.9541 20.298 25.2833 19.9801 25.5669 19.6005C25.5486 19.6005 16.9873 19.6005 16.9873 19.6005V20.5717H24.5608Z" fill="black"/>
<path fill-rule="evenodd" clip-rule="evenodd" d="M26.2254 24.2714C26.2254 23.9359 26.1613 23.618 26.0424 23.3001H22.9966V24.2714H26.2254Z" fill="black"/>
<path d="M19.9874 23.2913H16.9873V24.2625H19.9874V23.2913Z" fill="black"/>
<path fill-rule="evenodd" clip-rule="evenodd" d="M16.9873 17.7551V18.7264H19.9874V17.7551H16.9873Z" fill="black"/>
<path fill-rule="evenodd" clip-rule="evenodd" d="M24.9907 15.0091C24.1492 14.3557 23.1797 14.0555 22.0913 14.0555H14.9752V15.0091H24.9907Z" fill="black"/>
<path d="M11.9661 23.2913H8.96596V24.2625H11.9661V23.2913Z" fill="black"/>
<path d="M13.9598 25.1366H6.94434V26.1079H13.9598V25.1366Z" fill="black"/>
<path d="M13.9598 26.9908H6.94434V27.9444H13.9598V26.9908Z" fill="black"/>
<path d="M13.9598 14.0555H6.94434V15.0268H13.9598V14.0555Z" fill="black"/>
<path d="M13.9687 15.9098H6.97146V16.881H13.9687V15.9098Z" fill="black"/>
<path d="M11.9661 17.7551H8.96596V18.7264H11.9661V17.7551Z" fill="black"/>
<path d="M11.9661 19.6005H8.96596V20.5717H11.9661V19.6005Z" fill="black"/>
<path d="M11.9661 21.4459H8.96596V22.4172H11.9661V21.4459Z" fill="black"/>
<path d="M41.034 21.4459H38.0339V22.4172H41.034V21.4459Z" fill="black"/>
<path d="M41.034 23.2913H38.0339V24.2625H41.034V23.2913Z" fill="black"/>
<path d="M43.0555 25.1366H38.0339V26.1079H43.0555V25.1366Z" fill="black"/>
<path d="M43.0555 26.9908H38.0339V27.9444H43.0555V26.9908Z" fill="black"/>
<path fill-rule="evenodd" clip-rule="evenodd" d="M43.046 16.881V15.9098H36.6708L36.305 16.881H43.046Z" fill="black"/>
<path fill-rule="evenodd" clip-rule="evenodd" d="M43.0461 15.0356V14.0555H37.3935L37.0002 15.0356H43.0461Z" fill="black"/>
<path d="M21.3228 39.9873C21.3696 40.1016 21.3931 40.2334 21.3931 40.3828C21.3931 40.5908 21.3389 40.771 21.2305 40.9233C21.125 41.0757 20.9697 41.1929 20.7646 41.2749C20.5596 41.3569 20.3091 41.3979 20.0132 41.3979C19.8081 41.3979 19.6104 41.3745 19.4199 41.3276C19.2324 41.2778 19.064 41.2017 18.9146 41.0991C18.7681 40.9966 18.6523 40.8677 18.5674 40.7124C18.4824 40.5542 18.4399 40.3652 18.4399 40.1455H17.5962C17.5962 40.4648 17.665 40.7461 17.8027 40.9893C17.9434 41.2295 18.1294 41.4316 18.3608 41.5957C18.5952 41.7598 18.8545 41.8828 19.1387 41.9648C19.4258 42.0469 19.7173 42.0879 20.0132 42.0879C20.3501 42.0879 20.6548 42.0483 20.9272 41.9692C21.2026 41.8872 21.4385 41.7715 21.6348 41.6221C21.8311 41.4727 21.9819 41.2925 22.0874 41.0815C22.1929 40.8706 22.2456 40.6348 22.2456 40.374C22.2456 40.125 22.2031 39.9023 22.1182 39.7061C22.0361 39.5068 21.9087 39.3296 21.7358 39.1743C21.5659 39.0161 21.3491 38.874 21.0854 38.748C20.8218 38.6221 20.5083 38.5078 20.145 38.4053C19.8813 38.332 19.6543 38.2559 19.4639 38.1768C19.2764 38.0977 19.1211 38.0112 18.998 37.9175C18.8779 37.8237 18.7886 37.7227 18.73 37.6143C18.6743 37.5029 18.6465 37.3799 18.6465 37.2451C18.6465 37.0459 18.6934 36.8687 18.7871 36.7134C18.8838 36.5581 19.0303 36.4351 19.2266 36.3442C19.4229 36.2534 19.6719 36.208 19.9736 36.208C20.293 36.208 20.5566 36.2622 20.7646 36.3706C20.9727 36.4761 21.1279 36.6226 21.2305 36.8101C21.333 36.9946 21.3843 37.207 21.3843 37.4473H22.228C22.228 37.1133 22.1401 36.7998 21.9644 36.5068C21.7886 36.2109 21.5322 35.9722 21.1953 35.7905C20.8613 35.606 20.4541 35.5137 19.9736 35.5137C19.6455 35.5137 19.3481 35.5576 19.0815 35.6455C18.8149 35.7334 18.585 35.8564 18.3916 36.0146C18.2012 36.1699 18.0547 36.353 17.9521 36.564C17.8496 36.7749 17.7983 37.0049 17.7983 37.2539C17.7983 37.5029 17.8467 37.7241 17.9434 37.9175C18.04 38.1108 18.1792 38.2822 18.3608 38.4316C18.5425 38.5811 18.7607 38.7144 19.0156 38.8315C19.2705 38.9458 19.5562 39.0498 19.8726 39.1436C20.1743 39.2314 20.4233 39.3179 20.6196 39.4028C20.8188 39.4878 20.9741 39.5771 21.0854 39.6709C21.1997 39.7646 21.2788 39.8701 21.3228 39.9873Z" fill="black"/>
<path fill-rule="evenodd" clip-rule="evenodd" d="M25.5965 39.4907H24.0848V42H23.2367V35.6016H25.5965C26.0799 35.6016 26.4886 35.6851 26.8226 35.8521C27.1566 36.019 27.41 36.2505 27.5829 36.5464C27.7557 36.8394 27.8421 37.1748 27.8421 37.5527C27.8421 37.9629 27.7557 38.313 27.5829 38.603C27.41 38.8931 27.1566 39.1143 26.8226 39.2666C26.4886 39.416 26.0799 39.4907 25.5965 39.4907ZM24.0848 36.2959V38.8008H25.5965C25.9276 38.8008 26.1956 38.748 26.4007 38.6426C26.6058 38.5371 26.7552 38.3906 26.849 38.2031C26.9456 38.0156 26.994 37.8018 26.994 37.5615C26.994 37.3418 26.9456 37.1353 26.849 36.9419C26.7552 36.7485 26.6058 36.5933 26.4007 36.4761C26.1956 36.356 25.9276 36.2959 25.5965 36.2959H24.0848Z" fill="black"/>
<path fill-rule="evenodd" clip-rule="evenodd" d="M31.1843 39.4907H29.6725V42H28.8244V35.6016H31.1843C31.6677 35.6016 32.0763 35.6851 32.4103 35.8521C32.7443 36.019 32.9977 36.2505 33.1706 36.5464C33.3434 36.8394 33.4299 37.1748 33.4299 37.5527C33.4299 37.9629 33.3434 38.313 33.1706 38.603C32.9977 38.8931 32.7443 39.1143 32.4103 39.2666C32.0763 39.416 31.6677 39.4907 31.1843 39.4907ZM29.6725 36.2959V38.8008H31.1843C31.5153 38.8008 31.7834 38.748 31.9885 38.6426C32.1935 38.5371 32.3429 38.3906 32.4367 38.2031C32.5334 38.0156 32.5817 37.8018 32.5817 37.5615C32.5817 37.3418 32.5334 37.1353 32.4367 36.9419C32.3429 36.7485 32.1935 36.5933 31.9885 36.4761C31.7834 36.356 31.5153 36.2959 31.1843 36.2959H29.6725Z" fill="black"/>
</svg>
