<svg width="50" height="50" viewBox="0 0 50 50" fill="none" xmlns="http://www.w3.org/2000/svg">
<path fill-rule="evenodd" clip-rule="evenodd" d="M41.0338 18.7264V17.7551H35.9757L35.6281 18.7264H41.0338Z" fill="black"/>
<path d="M32.0244 26.9908H27.0029V27.9444H32.0244V26.9908Z" fill="black"/>
<path d="M32.0244 25.1366H27.0029V26.1079H32.0244V25.1366Z" fill="black"/>
<path fill-rule="evenodd" clip-rule="evenodd" d="M34.4119 18.7264L34.0643 17.7551H29.0245V18.7264H34.4119Z" fill="black"/>
<path d="M32.0246 21.4459H29.0245V22.4172H32.0246V21.4459Z" fill="black"/>
<path fill-rule="evenodd" clip-rule="evenodd" d="M32.0246 20.5717V19.7947H32.0429L32.3356 20.5717H37.7047L38.0065 19.7947H38.0339V20.5717H41.034V19.6005H35.3174L35.0247 20.3333H35.0064L34.7229 19.6005H29.0245V20.5717H32.0246Z" fill="black"/>
<path d="M32.0246 23.2913H29.0245V24.2625H32.0246V23.2913Z" fill="black"/>
<path fill-rule="evenodd" clip-rule="evenodd" d="M37.0458 22.4172L37.3933 21.4459H32.6371L32.9938 22.4172H37.0458Z" fill="black"/>
<path fill-rule="evenodd" clip-rule="evenodd" d="M36.3875 24.2714L36.7351 23.2913H33.2959L33.6526 24.2714H36.3875Z" fill="black"/>
<path fill-rule="evenodd" clip-rule="evenodd" d="M35.7106 26.1167L36.0582 25.1366H33.9544L34.3111 26.1167H35.7106Z" fill="black"/>
<path fill-rule="evenodd" clip-rule="evenodd" d="M34.6129 26.9908L34.9696 27.9444H35.0886L35.4178 26.9908H34.6129Z" fill="black"/>
<path fill-rule="evenodd" clip-rule="evenodd" d="M27.0029 15.9098V16.881H33.7531L33.4055 15.9098H27.0029Z" fill="black"/>
<path fill-rule="evenodd" clip-rule="evenodd" d="M33.0945 15.0356L32.747 14.0555H27.0029V15.0356H33.0945Z" fill="black"/>
<path fill-rule="evenodd" clip-rule="evenodd" d="M14.9661 15.9098V16.881H26.0975C26.0335 16.5278 25.7317 15.9098 25.7317 15.9098H14.9661Z" fill="black"/>
<path fill-rule="evenodd" clip-rule="evenodd" d="M26.015 18.7264C26.015 18.7264 26.1979 18.073 26.1979 17.7551H22.9966V18.7264H26.015Z" fill="black"/>
<path fill-rule="evenodd" clip-rule="evenodd" d="M25.5212 22.3995C25.5212 22.3995 24.9907 21.7461 24.6339 21.4459H16.9782V22.3995H25.5212Z" fill="black"/>
<path fill-rule="evenodd" clip-rule="evenodd" d="M14.9661 25.1366V26.1079H25.7225C25.9055 25.8077 26.0335 25.4722 26.0884 25.1366H14.9661Z" fill="black"/>
<path fill-rule="evenodd" clip-rule="evenodd" d="M14.9661 26.9908V27.9444H22.0639C24.3505 27.9444 24.9816 26.9908 24.9816 26.9908H14.9661Z" fill="black"/>
<path fill-rule="evenodd" clip-rule="evenodd" d="M24.5608 20.5717C24.9541 20.298 25.2833 19.9801 25.5669 19.6005C25.5486 19.6005 16.9873 19.6005 16.9873 19.6005V20.5717H24.5608Z" fill="black"/>
<path fill-rule="evenodd" clip-rule="evenodd" d="M26.2254 24.2714C26.2254 23.9359 26.1613 23.618 26.0424 23.3001H22.9966V24.2714H26.2254Z" fill="black"/>
<path d="M19.9874 23.2913H16.9873V24.2625H19.9874V23.2913Z" fill="black"/>
<path fill-rule="evenodd" clip-rule="evenodd" d="M16.9873 17.7551V18.7264H19.9874V17.7551H16.9873Z" fill="black"/>
<path fill-rule="evenodd" clip-rule="evenodd" d="M24.9907 15.0091C24.1492 14.3557 23.1797 14.0555 22.0913 14.0555H14.9752V15.0091H24.9907Z" fill="black"/>
<path d="M11.9661 23.2913H8.96596V24.2625H11.9661V23.2913Z" fill="black"/>
<path d="M13.9598 25.1366H6.94434V26.1079H13.9598V25.1366Z" fill="black"/>
<path d="M13.9598 26.9908H6.94434V27.9444H13.9598V26.9908Z" fill="black"/>
<path d="M13.9598 14.0555H6.94434V15.0268H13.9598V14.0555Z" fill="black"/>
<path d="M13.9687 15.9098H6.97146V16.881H13.9687V15.9098Z" fill="black"/>
<path d="M11.9661 17.7551H8.96596V18.7264H11.9661V17.7551Z" fill="black"/>
<path d="M11.9661 19.6005H8.96596V20.5717H11.9661V19.6005Z" fill="black"/>
<path d="M11.9661 21.4459H8.96596V22.4172H11.9661V21.4459Z" fill="black"/>
<path d="M41.034 21.4459H38.0339V22.4172H41.034V21.4459Z" fill="black"/>
<path d="M41.034 23.2913H38.0339V24.2625H41.034V23.2913Z" fill="black"/>
<path d="M43.0555 25.1366H38.0339V26.1079H43.0555V25.1366Z" fill="black"/>
<path d="M43.0555 26.9908H38.0339V27.9444H43.0555V26.9908Z" fill="black"/>
<path fill-rule="evenodd" clip-rule="evenodd" d="M43.046 16.881V15.9098H36.6708L36.305 16.881H43.046Z" fill="black"/>
<path fill-rule="evenodd" clip-rule="evenodd" d="M43.0461 15.0356V14.0555H37.3935L37.0002 15.0356H43.0461Z" fill="black"/>
<path d="M15.5746 37.2451V42H14.7572V37.2451H15.5746Z" fill="black"/>
<path d="M14.6956 35.9839C14.6956 35.8521 14.7352 35.7407 14.8143 35.6499C14.8963 35.5591 15.0164 35.5137 15.1746 35.5137C15.3299 35.5137 15.4486 35.5591 15.5306 35.6499C15.6156 35.7407 15.658 35.8521 15.658 35.9839C15.658 36.1099 15.6156 36.2183 15.5306 36.3091C15.4486 36.397 15.3299 36.4409 15.1746 36.4409C15.0164 36.4409 14.8963 36.397 14.8143 36.3091C14.7352 36.2183 14.6956 36.1099 14.6956 35.9839Z" fill="black"/>
<path d="M19.2287 41.3013C19.0646 41.3804 18.8859 41.4199 18.6926 41.4199C18.4406 41.4199 18.2297 41.3716 18.0597 41.2749C17.8928 41.1753 17.7595 41.0435 17.6598 40.8794C17.5632 40.7153 17.4943 40.5322 17.4533 40.3301C17.4123 40.1279 17.3918 39.9229 17.3918 39.7148V39.5303C17.3918 39.3223 17.4123 39.1187 17.4533 38.9194C17.4972 38.7173 17.5676 38.5342 17.6642 38.3701C17.7638 38.2031 17.8971 38.0713 18.0641 37.9746C18.2341 37.875 18.4435 37.8252 18.6926 37.8252C18.9094 37.8252 19.0983 37.8735 19.2595 37.9702C19.4235 38.064 19.5524 38.1899 19.6462 38.3481C19.7429 38.5063 19.7985 38.6836 19.8132 38.8799H20.5866C20.572 38.5518 20.4841 38.2588 20.3229 38.001C20.1647 37.7402 19.9465 37.5352 19.6681 37.3857C19.3898 37.2334 19.0646 37.1572 18.6926 37.1572C18.3351 37.1572 18.0231 37.2202 17.7565 37.3462C17.4929 37.4722 17.2731 37.645 17.0973 37.8647C16.9245 38.0845 16.7941 38.3379 16.7062 38.625C16.6213 38.9092 16.5788 39.2109 16.5788 39.5303V39.7148C16.5788 40.0342 16.6213 40.3374 16.7062 40.6245C16.7941 40.9087 16.9245 41.1606 17.0973 41.3804C17.2731 41.6001 17.4929 41.7729 17.7565 41.8989C18.0231 42.0249 18.3351 42.0879 18.6926 42.0879C19.0295 42.0879 19.3386 42.0146 19.6198 41.8682C19.9011 41.7188 20.1281 41.5239 20.301 41.2837C20.4767 41.0405 20.572 40.7783 20.5866 40.4971H19.8132C19.7985 40.6758 19.7385 40.8354 19.633 40.9761C19.5275 41.1138 19.3928 41.2222 19.2287 41.3013Z" fill="black"/>
<path fill-rule="evenodd" clip-rule="evenodd" d="M23.3838 42.0879C23.0528 42.0879 22.7525 42.0322 22.4829 41.9209C22.2163 41.8066 21.9863 41.647 21.793 41.4419C21.6026 41.2368 21.4561 40.9937 21.3535 40.7124C21.251 40.4312 21.1997 40.1235 21.1997 39.7896V39.605C21.1997 39.2183 21.2569 38.874 21.3711 38.5723C21.4854 38.2676 21.6406 38.0098 21.8369 37.7988C22.0332 37.5879 22.2559 37.4282 22.5049 37.3198C22.7539 37.2114 23.0117 37.1572 23.2783 37.1572C23.6182 37.1572 23.9112 37.2158 24.1572 37.333C24.4063 37.4502 24.6099 37.6143 24.7681 37.8252C24.9263 38.0332 25.0435 38.2793 25.1196 38.5635C25.1958 38.8447 25.2339 39.1523 25.2339 39.4863V39.8511H22.0179C22.023 40.0539 22.0535 40.2457 22.1094 40.4268C22.1738 40.623 22.2661 40.7959 22.3862 40.9453C22.5093 41.0947 22.6572 41.2119 22.8301 41.2969C23.0059 41.3818 23.2051 41.4243 23.4278 41.4243C23.7149 41.4243 23.958 41.3657 24.1572 41.2485C24.3565 41.1313 24.5308 40.9746 24.6802 40.7783L25.1724 41.1694C25.0698 41.3247 24.9395 41.4727 24.7813 41.6133C24.6231 41.7539 24.4282 41.8682 24.1968 41.9561C23.9683 42.0439 23.6973 42.0879 23.3838 42.0879ZM22.1094 38.8447C22.0796 38.9511 22.057 39.0653 22.0417 39.1875H24.4209V39.126C24.4092 38.915 24.3653 38.71 24.2891 38.5107C24.2158 38.3115 24.0987 38.1475 23.9375 38.0186C23.7764 37.8896 23.5567 37.8252 23.2783 37.8252C23.0938 37.8252 22.9238 37.8647 22.7686 37.9438C22.6133 38.02 22.48 38.1343 22.3687 38.2866C22.2573 38.439 22.1709 38.625 22.1094 38.8447Z" fill="black"/>
<path d="M26.9061 38.6067V42H26.0931V37.2451H26.8622L26.8878 37.8367C26.8967 37.8254 26.9058 37.8143 26.9149 37.8032C27.0848 37.5981 27.287 37.4399 27.5213 37.3286C27.7587 37.2144 28.0209 37.1572 28.308 37.1572C28.5423 37.1572 28.7533 37.1895 28.9408 37.2539C29.1283 37.3154 29.2879 37.415 29.4198 37.5527C29.5546 37.6904 29.6571 37.8691 29.7274 38.0889C29.7977 38.3057 29.8329 38.5708 29.8329 38.8843V42H29.0155V38.8755C29.0155 38.6265 28.9789 38.4272 28.9056 38.2778C28.8324 38.1255 28.7254 38.0156 28.5848 37.9482C28.4442 37.8779 28.2713 37.8428 28.0663 37.8428C27.8641 37.8428 27.6796 37.8853 27.5126 37.9702C27.3485 38.0552 27.2064 38.1724 27.0863 38.3218C27.0177 38.4092 26.9576 38.5042 26.9061 38.6067Z" fill="black"/>
<path d="M33.7463 40.7388C33.7463 40.6216 33.7199 40.5132 33.6672 40.4136C33.6174 40.311 33.5134 40.2188 33.3552 40.1367C33.1999 40.0518 32.9655 39.9785 32.6521 39.917C32.3884 39.8613 32.1496 39.7954 31.9357 39.7192C31.7248 39.6431 31.5446 39.5508 31.3952 39.4424C31.2487 39.334 31.1359 39.2065 31.0568 39.0601C30.9777 38.9136 30.9382 38.7422 30.9382 38.5459C30.9382 38.3584 30.9792 38.1812 31.0612 38.0142C31.1462 37.8472 31.2648 37.6992 31.4172 37.5703C31.5725 37.4414 31.7585 37.3403 31.9753 37.2671C32.1921 37.1938 32.4338 37.1572 32.7004 37.1572C33.0812 37.1572 33.4064 37.2246 33.676 37.3594C33.9455 37.4941 34.1521 37.6743 34.2956 37.8999C34.4392 38.1226 34.5109 38.3701 34.5109 38.6426H33.6979C33.6979 38.5107 33.6584 38.3833 33.5793 38.2603C33.5031 38.1343 33.3903 38.0303 33.2409 37.9482C33.0944 37.8662 32.9143 37.8252 32.7004 37.8252C32.4748 37.8252 32.2917 37.8604 32.1511 37.9307C32.0134 37.998 31.9123 38.0845 31.8479 38.1899C31.7863 38.2954 31.7556 38.4067 31.7556 38.5239C31.7556 38.6118 31.7702 38.6909 31.7995 38.7612C31.8317 38.8286 31.8874 38.8916 31.9665 38.9502C32.0456 39.0059 32.1569 39.0586 32.3005 39.1084C32.444 39.1582 32.6271 39.208 32.8498 39.2578C33.2395 39.3457 33.5603 39.4512 33.8122 39.5742C34.0642 39.6973 34.2517 39.8481 34.3747 40.0269C34.4978 40.2056 34.5593 40.4224 34.5593 40.6772C34.5593 40.8853 34.5153 41.0757 34.4274 41.2485C34.3425 41.4214 34.218 41.5708 34.0539 41.6968C33.8928 41.8198 33.6994 41.9165 33.4738 41.9868C33.2512 42.0542 33.0007 42.0879 32.7224 42.0879C32.3034 42.0879 31.9489 42.0132 31.6589 41.8638C31.3688 41.7144 31.1491 41.521 30.9997 41.2837C30.8503 41.0464 30.7756 40.7959 30.7756 40.5322H31.593C31.6047 40.7549 31.6691 40.9321 31.7863 41.064C31.9035 41.1929 32.0471 41.2852 32.217 41.3408C32.3869 41.3936 32.5554 41.4199 32.7224 41.4199C32.945 41.4199 33.1311 41.3906 33.2805 41.332C33.4328 41.2734 33.5485 41.1929 33.6276 41.0903C33.7067 40.9878 33.7463 40.8706 33.7463 40.7388Z" fill="black"/>
<path fill-rule="evenodd" clip-rule="evenodd" d="M37.5103 42.0879C37.1792 42.0879 36.8789 42.0322 36.6094 41.9209C36.3428 41.8066 36.1128 41.647 35.9195 41.4419C35.729 41.2368 35.5826 40.9937 35.48 40.7124C35.3775 40.4312 35.3262 40.1235 35.3262 39.7896V39.605C35.3262 39.2183 35.3833 38.874 35.4976 38.5723C35.6119 38.2676 35.7671 38.0098 35.9634 37.7988C36.1597 37.5879 36.3824 37.4282 36.6314 37.3198C36.8804 37.2114 37.1382 37.1572 37.4048 37.1572C37.7447 37.1572 38.0376 37.2158 38.2837 37.333C38.5328 37.4502 38.7364 37.6143 38.8946 37.8252C39.0528 38.0332 39.17 38.2793 39.2461 38.5635C39.3223 38.8447 39.3604 39.1523 39.3604 39.4863V39.8511H36.1444C36.1495 40.0539 36.18 40.2457 36.2359 40.4268C36.3003 40.623 36.3926 40.7959 36.5127 40.9453C36.6358 41.0947 36.7837 41.2119 36.9566 41.2969C37.1324 41.3818 37.3316 41.4243 37.5542 41.4243C37.8413 41.4243 38.0845 41.3657 38.2837 41.2485C38.4829 41.1313 38.6573 40.9746 38.8067 40.7783L39.2989 41.1694C39.1963 41.3247 39.066 41.4727 38.9078 41.6133C38.7495 41.7539 38.5547 41.8682 38.3233 41.9561C38.0948 42.0439 37.8238 42.0879 37.5103 42.0879ZM36.2359 38.8447C36.2061 38.9511 36.1835 39.0653 36.1682 39.1875H38.5474V39.126C38.5357 38.915 38.4917 38.71 38.4156 38.5107C38.3423 38.3115 38.2251 38.1475 38.064 38.0186C37.9029 37.8896 37.6831 37.8252 37.4048 37.8252C37.2203 37.8252 37.0503 37.8647 36.8951 37.9438C36.7398 38.02 36.6065 38.1343 36.4952 38.2866C36.3838 38.439 36.2974 38.625 36.2359 38.8447Z" fill="black"/>
<path d="M13.9331 42V41.3101H10.9009V35.6016H10.0527V42H13.9331Z" fill="black"/>
</svg>
