<svg width="50" height="50" viewBox="0 0 50 50" fill="none" xmlns="http://www.w3.org/2000/svg">
<path d="M22.7083 41.46C16.1365 40.4542 10.1824 35.8381 8.67535 28.9933C6.88597 20.8665 12.3917 13.6555 18.8855 11.5981C18.8855 13.8829 18.8855 16.1425 18.8855 18.4652C18.5719 18.7353 18.2213 19.0286 17.8802 19.3324C13.1811 23.5175 13.8041 30.3898 19.1806 33.6907C23.6539 36.4371 29.5491 35.7631 33.073 32.1025C36.4021 28.6444 36.4051 23.4026 33.0651 19.9643C32.554 19.4381 31.9807 18.971 31.3953 18.4395C31.3953 16.2065 31.3953 13.9314 31.3953 11.5061C34.0952 12.4825 36.3126 13.9833 38.113 16.0572C44.5884 23.5151 41.7825 35.2179 33.1946 39.7655C29.9129 41.5035 26.2222 41.9979 22.7083 41.46ZM21.9837 27.299C24.1882 27.299 26.2872 27.299 28.3275 27.299C28.3275 21.45 28.3275 15.7146 28.3275 9.96713C26.1501 9.64574 24.0949 9.63271 21.9837 9.9749C21.9837 15.8718 21.9837 21.6101 21.9837 27.299Z" fill="#58873C"/>
</svg>
