<svg width="50" height="50" viewBox="0 0 50 50" fill="none" xmlns="http://www.w3.org/2000/svg">
<path d="M6.1519 21.8419C7.07473 21.8419 7.82284 21.0938 7.82284 20.1709C7.82284 19.2481 7.07473 18.5 6.1519 18.5C5.22906 18.5 4.48096 19.2481 4.48096 20.1709C4.48096 21.0938 5.22906 21.8419 6.1519 21.8419Z" fill="#48A8AF"/>
<path d="M12.9694 24.4151C13.7381 24.4151 14.2059 24.8162 14.4399 25.4845H17.4475C16.9797 23.2789 15.3422 22.009 13.0363 22.009C10.2959 22.009 8.39105 23.847 8.39105 26.7544C8.39105 29.6619 10.2959 31.4999 13.0028 31.4999C15.3087 31.4999 16.9463 30.1632 17.4141 28.0244H14.4064C14.1725 28.6927 13.7046 29.0938 12.936 29.0938C11.9334 29.0938 11.2317 28.2917 11.2317 26.7544C11.2317 25.2172 11.9669 24.4151 12.9694 24.4151Z" fill="#010101"/>
<path d="M40.4395 24.8162C40.4395 24.3817 40.8071 24.1144 41.4755 24.1144C42.2776 24.1144 42.7454 24.5154 42.8457 25.1503H45.4524C45.2853 23.3457 43.9485 22.009 41.5758 22.009C39.1696 22.009 37.8329 23.3123 37.8329 24.8496C37.8329 28.2249 42.8457 27.1555 42.8457 28.6593C42.8457 29.0603 42.4781 29.3945 41.7429 29.3945C40.9742 29.3945 40.3727 28.9601 40.3393 28.3251H37.5321C37.6658 30.0963 39.3033 31.4665 41.7763 31.4665C44.0822 31.4665 45.5192 30.2634 45.5192 28.6593C45.4524 25.2506 40.4395 26.2866 40.4395 24.8162Z" fill="#010101"/>
<path d="M6.152 22.6775C5.6173 22.6775 5.14943 22.5104 4.74841 22.243V31.3664H7.589V22.243C7.15456 22.5104 6.6867 22.6775 6.152 22.6775Z" fill="#010101"/>
<path d="M20.7893 22.1426H17.9487V31.3662H20.7893V22.1426Z" fill="#010101"/>
<path d="M33.2546 22.0424C31.9179 22.0424 30.7482 22.7776 30.1467 23.7467C29.5117 22.6439 28.4089 22.0424 27.0053 22.0424C25.8022 22.0424 24.8665 22.5437 24.2984 23.3123V22.1426H21.4578V31.3662H24.2984V26.3534C24.2984 25.1503 25.0002 24.4819 26.0696 24.4819C27.139 24.4819 27.8408 25.1503 27.8408 26.3534V31.3662H30.648V26.3534C30.648 25.1503 31.3498 24.4819 32.4192 24.4819C33.4886 24.4819 34.1904 25.1503 34.1904 26.3534V31.3662H36.9975V25.9524C37.031 23.4794 35.5605 22.0424 33.2546 22.0424Z" fill="#010101"/>
</svg>
