<svg width="50" height="50" viewBox="0 0 50 50" fill="none" xmlns="http://www.w3.org/2000/svg">
<rect width="50" height="50" fill="black"/>
<path fill-rule="evenodd" clip-rule="evenodd" d="M26.5996 8.34911C26.5629 8.35656 26.4504 8.37914 26.3495 8.39931C24.8313 8.70234 23.9371 10.4274 24.5211 11.9266C24.6934 12.3694 25.1733 12.9794 25.4752 13.1398C25.5381 13.1732 25.5821 13.2232 25.5821 13.2612C25.5821 13.3134 25.1465 14.4641 24.9651 14.8914C24.9411 14.948 24.7683 15.3876 24.5814 15.8683C24.3944 16.349 24.2187 16.7963 24.191 16.8623C24.1632 16.9283 24.1291 17.0131 24.1151 17.0508C24.0791 17.1477 24.0341 17.26 23.9365 17.4964C23.8899 17.6095 23.8416 17.7445 23.8291 17.7966C23.8166 17.8487 23.7931 17.8996 23.7767 17.91C23.7604 17.9203 23.7471 17.95 23.7471 17.9759C23.7471 18.0017 23.7043 18.1204 23.652 18.2395C23.5998 18.3586 23.5376 18.5101 23.5138 18.5761C23.3702 18.9756 23.3028 19.0953 23.2326 19.0758C21.6234 18.6269 19.5966 19.1251 18.2708 20.2953C18.0254 20.5118 18.1641 20.5904 16.8667 19.4995C16.2377 18.9706 15.3975 18.2649 14.9997 17.9314C14.1796 17.2439 14.2188 17.2919 14.3065 17.0818C15.1281 15.1124 12.8555 13.3079 11.1852 14.6034C9.26465 16.093 11.1222 19.1571 13.324 18.1315C13.4457 18.0748 13.5624 18.0391 13.5832 18.0523C13.6041 18.0654 13.8603 18.2774 14.1527 18.5232C14.445 18.7691 14.8128 19.0771 14.97 19.2079C15.1273 19.3386 15.2635 19.4544 15.2727 19.465C15.2819 19.4756 15.3636 19.5461 15.4543 19.6215C15.8909 19.9844 17.1105 21.008 17.2986 21.1693L17.3849 21.2434L17.2091 21.5249C16.2796 23.0134 16.0554 24.7562 16.5752 26.4521C16.8538 27.3614 17.4705 28.3551 18.1193 28.9403C18.3847 29.1797 18.3799 29.1459 18.1836 29.3936C18.0435 29.5704 17.2598 30.5461 17.1129 30.7267C17.0822 30.7644 16.8172 31.0961 16.5239 31.4637C16.2307 31.8312 15.9756 32.1485 15.957 32.1688C15.9384 32.1891 15.8782 32.2644 15.8232 32.3363C15.5393 32.7068 14.6638 33.7817 14.622 33.8106C14.5874 33.8348 14.4789 33.7977 14.2311 33.6769C13.786 33.4599 13.8059 33.4672 13.2542 33.3257C12.7005 33.1838 11.7448 33.2506 11.1022 33.4761C9.47396 34.0475 8.33301 35.6706 8.33301 37.4155C8.33301 40.5813 11.533 42.6239 14.2797 41.2114C16.704 39.9647 17.2827 36.7228 15.4592 34.6039C15.4124 34.5497 15.3843 34.488 15.3968 34.4668C15.4226 34.4227 15.804 33.9393 15.9551 33.7589C16.011 33.6922 16.1093 33.5701 16.1735 33.4876C16.3102 33.3118 16.8962 32.58 17.1766 32.2349C17.2838 32.1029 17.5691 31.7482 17.8105 31.4464C18.0519 31.1448 18.3059 30.8287 18.375 30.7438C18.444 30.659 18.5803 30.4893 18.678 30.3668C18.7758 30.2443 18.8641 30.1363 18.8743 30.1269C18.8847 30.1175 18.9455 30.0372 19.0096 29.9484C19.1661 29.7317 19.1741 29.7306 19.4871 29.8835C20.845 30.547 22.4685 30.6225 23.8805 30.088C23.9815 30.0499 24.0901 30.0044 24.122 29.9871C24.1537 29.9698 24.2026 29.9555 24.2303 29.9555C24.2582 29.9555 24.2809 29.9401 24.2809 29.9212C24.2809 29.9024 24.3171 29.887 24.3615 29.887C24.432 29.887 24.6479 30.1613 24.6479 30.251C24.6479 30.262 24.6929 30.3397 24.748 30.4236C24.803 30.5073 24.848 30.5805 24.848 30.5861C24.848 30.5918 25.0378 30.9187 25.2698 31.3127C25.8577 32.311 25.8734 32.3426 25.8251 32.4151C24.7192 34.0737 25.552 36.5156 27.4338 37.1316C30.2055 38.039 32.5324 34.8936 30.9448 32.3854C30.0543 30.9784 28.0161 30.5552 26.7069 31.5054C26.5902 31.5901 26.5503 31.5741 26.4633 31.408C26.425 31.3349 26.1436 30.8462 25.8377 30.322C25.532 29.7978 25.2818 29.3571 25.2818 29.3426C25.2818 29.3282 25.4084 29.2056 25.5631 29.0703C25.8622 28.8086 26.1905 28.4483 26.4116 28.139C26.4858 28.0353 26.5605 27.9337 26.5776 27.9132C26.6788 27.7922 27.1502 26.8401 27.1502 26.7566C27.1502 26.7327 27.1626 26.6984 27.1777 26.6805C27.1929 26.6626 27.2247 26.5785 27.2483 26.4937C27.272 26.4089 27.3039 26.3009 27.3192 26.2538C27.433 25.9036 27.4915 25.4467 27.5085 24.7732L27.5266 24.0637L27.9138 23.9389C28.6261 23.7093 29.0342 23.5799 29.152 23.546C29.2162 23.5276 29.4189 23.4647 29.6024 23.4063C30.0032 23.2786 30.0602 23.2606 30.4031 23.1544C30.9554 22.9832 31.5209 22.8045 32.037 22.6379C32.1833 22.5907 32.3216 22.552 32.3445 22.552C32.3673 22.552 32.4353 22.5304 32.4955 22.5039C32.5558 22.4774 32.6652 22.4391 32.7386 22.4186C32.8631 22.384 33.4348 22.2052 33.6227 22.1423C33.6686 22.127 33.7737 22.0951 33.8562 22.0715C33.9388 22.0479 34.0858 21.9999 34.1828 21.9648C34.4165 21.88 34.4321 21.8823 34.5045 22.0122C34.9009 22.7231 35.8228 23.5117 36.2573 23.5117C36.2925 23.5117 36.3295 23.5255 36.3397 23.5424C36.359 23.5744 36.4555 23.5915 36.9258 23.6461C37.2573 23.6846 38.0355 23.6146 38.079 23.5424C38.0891 23.5255 38.1269 23.5117 38.1628 23.5117C38.1989 23.5117 38.3246 23.467 38.442 23.4122C40.4781 22.4637 40.9131 19.7443 39.277 18.1918C39.1013 18.025 38.5726 17.6679 38.4491 17.6327C38.4095 17.6213 38.3471 17.5987 38.3104 17.5823C37.7256 17.3223 36.6838 17.3226 36.1 17.5829C35.8949 17.6743 35.8233 17.7124 35.6035 17.8475C34.6792 18.4151 34.16 19.4013 34.1439 20.6202L34.1398 20.9205L33.8062 21.0315C33.6227 21.0926 33.2774 21.2033 33.0389 21.2774C32.8003 21.3515 32.4249 21.4694 32.2047 21.5393C31.9845 21.6092 31.7593 21.6801 31.7043 21.6968C31.6492 21.7136 31.409 21.7895 31.1705 21.8657C30.9319 21.9419 30.6767 22.0213 30.6033 22.0424C30.5299 22.0633 30.3347 22.123 30.1696 22.175C30.0044 22.2269 29.8017 22.2885 29.7192 22.3118C29.6366 22.3351 29.539 22.3674 29.5023 22.3836C29.4656 22.3999 29.2028 22.4836 28.9184 22.5698C28.634 22.656 28.3112 22.7565 28.2011 22.7931C27.2848 23.0981 27.3207 23.0981 27.2188 22.792C27.1011 22.4385 26.9189 22.0353 26.7389 21.7293C26.207 20.8257 25.3995 20.0348 24.5509 19.5864C24.2126 19.4076 24.2295 19.4424 24.3428 19.1552C24.3978 19.0158 24.5777 18.5624 24.7424 18.1476C24.9072 17.7328 25.3076 16.7149 25.6323 15.8855C26.1451 14.5756 26.2703 14.2564 26.413 13.8974C26.428 13.8597 26.4636 13.7732 26.4922 13.7051L26.5441 13.5813L26.9556 13.5625C29.5058 13.4459 30.371 10.1505 28.2257 8.7248C28.0957 8.63833 27.9685 8.56764 27.9434 8.56764C27.9181 8.56764 27.8832 8.5546 27.8658 8.53871C27.7284 8.41344 26.897 8.28894 26.5996 8.34911Z" fill="white"/>
</svg>
