<svg width="50" height="50" viewBox="0 0 50 50" fill="none" xmlns="http://www.w3.org/2000/svg">
<rect width="50" height="50" fill="#012169"/>
<path d="M25.6728 5.81102L27.3291 10.4622C34.2866 11.7911 39.5877 17.7722 39.5877 25.081C39.5877 33.2216 32.9612 40.0323 24.6783 40.0323C21.1995 40.0323 17.8867 38.7047 15.2359 36.7104C16.5609 36.378 18.218 36.378 19.5425 36.2114C24.0155 32.5569 26.9973 27.075 26.9973 19.2672C27.1626 13.6182 25.341 8.30266 23.6839 4.48193C22.3587 14.1173 18.0513 27.2411 12.4198 33.5537C10.7632 31.228 9.9351 28.4046 9.9351 25.2481C9.9351 18.2707 14.5731 12.4557 21.0342 10.7941L21.8623 6.14297C12.5861 7.47271 5.46289 15.4464 5.46289 25.2484C5.46289 35.8798 14.0768 44.5184 24.6788 44.5184C35.2815 44.5184 43.8954 35.8798 43.8954 25.2484C44.0604 14.9483 35.9435 6.47541 25.6728 5.81102Z" fill="white"/>
<path d="M20.6769 37.3116L33.6321 35.632C34.604 33.7835 35.09 31.6 35.09 29.4157C35.09 24.2086 32.1747 18.3287 27.9647 13.2898C28.1264 13.9617 28.612 16.3136 28.612 19.8414C28.6116 27.2318 25.2109 33.1106 20.6769 37.3116Z" fill="white"/>
</svg>
