<svg width="50" height="50" viewBox="0 0 50 50" fill="none" xmlns="http://www.w3.org/2000/svg">
<path d="M25.6724 5.81102L27.3287 10.4622C34.2861 11.7911 39.5872 17.7722 39.5872 25.081C39.5872 33.2216 32.9608 40.0323 24.6779 40.0323C21.199 40.0323 17.8862 38.7047 15.2354 36.7104C16.5604 36.378 18.2176 36.378 19.5421 36.2114C24.0151 32.5569 26.9969 27.075 26.9969 19.2672C27.1622 13.6182 25.3406 8.30266 23.6834 4.48193C22.3583 14.1173 18.0509 27.2411 12.4194 33.5537C10.7628 31.228 9.93467 28.4046 9.93467 25.2481C9.93467 18.2707 14.5726 12.4557 21.0338 10.7941L21.8619 6.14297C12.5856 7.47271 5.46246 15.4464 5.46246 25.2484C5.46246 35.8798 14.0764 44.5184 24.6784 44.5184C35.2811 44.5184 43.895 35.8798 43.895 25.2484C44.0599 14.9483 35.9431 6.47541 25.6724 5.81102Z" fill="#012169"/>
<path d="M20.6765 37.3116L33.6317 35.632C34.6035 33.7835 35.0896 31.6 35.0896 29.4157C35.0896 24.2086 32.1743 18.3287 27.9643 13.2898C28.126 13.9617 28.6116 16.3136 28.6116 19.8414C28.6111 27.2318 25.2105 33.1106 20.6765 37.3116Z" fill="#012169"/>
</svg>
