<svg width="50" height="50" viewBox="0 0 50 50" fill="none" xmlns="http://www.w3.org/2000/svg">
<path d="M23.1661 38.2083C25.6661 39.4028 28.68 40 32.2077 40C33.4855 40 34.7633 39.875 36.0411 39.625C37.3188 39.4028 38.5549 39.0972 39.7494 38.7083C40.9438 38.2917 42.0272 37.8333 42.9994 37.3333V23.0833H29.6244V27.875H37.5411V34.5417C36.6522 34.7639 35.7633 34.9306 34.8744 35.0417C33.9855 35.1528 33.1383 35.2083 32.3327 35.2083C29.9439 35.2083 27.9022 34.8333 26.2078 34.0833C24.5133 33.3056 23.2217 32.1667 22.3328 30.6667C21.4439 29.1389 20.9994 27.25 20.9994 25C20.9994 22.7222 21.4578 20.8611 22.3744 19.4167C23.3189 17.9444 24.5966 16.8472 26.2078 16.125C27.8466 15.4028 29.7216 15.0417 31.8327 15.0417C32.805 15.0417 33.8327 15.125 34.9161 15.2917C36.0272 15.4306 37.1661 15.625 38.3327 15.875L39.916 16.2083L40.8744 12L39.541 11.4583C38.2633 10.9861 36.9577 10.625 35.6244 10.375C34.2911 10.125 32.9716 10 31.6661 10C29.4161 10 27.305 10.3194 25.3328 10.9583C23.3605 11.5972 21.6244 12.5556 20.1244 13.8333C18.6522 15.0833 17.4994 16.6389 16.6661 18.5C15.8328 20.3611 15.4161 22.5139 15.4161 24.9583C15.4161 28.0694 16.0828 30.75 17.4161 33C18.7494 35.25 20.6661 36.9861 23.1661 38.2083Z" fill="#002957"/>
<path d="M7.38916 10.4168V39.5835H12.8475V10.4168H7.38916Z" fill="#002957"/>
</svg>
