<svg width="50" height="50" viewBox="0 0 50 50" fill="none" xmlns="http://www.w3.org/2000/svg">
<rect width="50" height="50" fill="#002957"/>
<path d="M23.1656 38.2083C25.6656 39.4028 28.6795 40 32.2073 40C33.485 40 34.7628 39.875 36.0406 39.625C37.3183 39.4028 38.5545 39.0972 39.7489 38.7083C40.9433 38.2917 42.0267 37.8333 42.9989 37.3333V23.0833H29.6239V27.875H37.5406V34.5417C36.6517 34.7639 35.7628 34.9306 34.8739 35.0417C33.985 35.1528 33.1378 35.2083 32.3323 35.2083C29.9434 35.2083 27.9017 34.8333 26.2073 34.0833C24.5128 33.3056 23.2212 32.1667 22.3323 30.6667C21.4434 29.1389 20.9989 27.25 20.9989 25C20.9989 22.7222 21.4573 20.8611 22.3739 19.4167C23.3184 17.9444 24.5962 16.8472 26.2073 16.125C27.8462 15.4028 29.7211 15.0417 31.8323 15.0417C32.8045 15.0417 33.8322 15.125 34.9156 15.2917C36.0267 15.4306 37.1656 15.625 38.3322 15.875L39.9156 16.2083L40.8739 12L39.5406 11.4583C38.2628 10.9861 36.9572 10.625 35.6239 10.375C34.2906 10.125 32.9711 10 31.6656 10C29.4156 10 27.3045 10.3194 25.3323 10.9583C23.3601 11.5972 21.6239 12.5556 20.124 13.8333C18.6517 15.0833 17.499 16.6389 16.6656 18.5C15.8323 20.3611 15.4156 22.5139 15.4156 24.9583C15.4156 28.0694 16.0823 30.75 17.4156 33C18.749 35.25 20.6656 36.9861 23.1656 38.2083Z" fill="white"/>
<path d="M7.38867 10.4168V39.5835H12.847V10.4168H7.38867Z" fill="white"/>
</svg>
