<svg width="50" height="50" viewBox="0 0 50 50" fill="none" xmlns="http://www.w3.org/2000/svg">
<path d="M35.1721 23.5682C35.1597 23.5682 43.0427 20.3116 43.0551 20.3116C43.0675 20.3116 36.7561 25.2551 36.7561 25.2551C36.2735 24.6576 35.7414 24.0953 35.1721 23.5682Z" fill="#FBCE4B"/>
<path d="M32.1281 21.4127C32.1281 21.4362 39.3924 15.9773 39.4047 15.9655L34.3557 22.8653C33.6626 22.3147 32.9201 21.8344 32.1281 21.4127Z" fill="#FBCE4B"/>
<path d="M28.9351 20.2062L28.898 20.1828C28.9104 20.1828 35.2712 13.5407 35.2712 13.5173C35.2712 13.529 31.4968 21.1082 31.4968 21.1082C30.6677 20.7216 29.8138 20.417 28.9351 20.2062Z" fill="#FBCE4B"/>
<path d="M25.4451 19.7141L29.6898 12.2755C29.6898 12.2755 28.378 20.0772 28.378 20.0655C27.4128 19.8547 26.4228 19.7375 25.4451 19.7141Z" fill="#FBCE4B"/>
<path d="M24.0965 11.8889L24.6162 19.7024C24.542 19.7024 24.4677 19.7024 24.3935 19.7141C23.5767 19.7375 22.7476 19.8078 21.9432 19.9484C21.9556 19.925 24.0965 11.8889 24.0965 11.8889Z" fill="#FBCE4B"/>
<path d="M18.4159 20.9441V13.2712L21.3117 20.0773C20.3217 20.2764 19.3564 20.5693 18.4159 20.9441Z" fill="#FBCE4B"/>
<path d="M15.397 22.4787L13.5036 15.8953C13.5036 15.8953 17.8597 21.155 17.872 21.1667C17.0058 21.5416 16.1766 21.975 15.397 22.4787Z" fill="#FBCE4B"/>
<path d="M13.2313 24.1773L13.1323 24.271C13.021 24.3765 12.9096 24.4936 12.7982 24.6108C12.7982 24.5991 10.5088 18.695 10.5088 18.695C10.5088 18.695 14.8154 22.8536 14.8401 22.8653C14.2585 23.2519 13.7263 23.697 13.2313 24.1773Z" fill="#FBCE4B"/>
<path d="M13.1691 27.305C13.1814 27.3401 13.1938 27.3636 13.2062 27.387L13.2309 27.4339C12.1296 29.2964 10.9044 31.1356 9.18425 32.635H16.8074V33.9705H7.73635L6.94434 32.225C9.54313 30.5967 11.1643 27.9376 12.1791 25.2784L13.1691 27.305Z" fill="#FBCE4B"/>
<path d="M14.0599 30.2219C13.7629 30.0462 13.6886 29.8587 13.602 29.6245C13.4659 29.1325 13.8743 28.4296 14.6539 28.4999C15.0499 28.5584 15.4212 28.863 15.4212 29.2496C15.2603 28.9216 14.4064 28.617 14.3198 28.9567C14.3074 29.0153 14.3445 29.0739 14.4064 29.0856C14.4188 29.0856 14.4435 29.0856 14.4559 29.0856C14.6663 29.027 15.2232 29.0856 15.3593 29.3316C15.4583 29.4956 15.4212 29.8353 15.2603 30.0462C14.9757 30.4093 14.4188 30.4327 14.0599 30.2219Z" fill="#FBCE4B"/>
<path d="M18.3416 26.1102V34.0174L20.3959 33.8534V25.9345L18.3416 26.1102Z" fill="#858585"/>
<path d="M29.566 27.0239C28.6502 26.3093 27.4993 25.9228 26.3237 25.9345C23.9105 25.9345 21.9057 27.7385 21.9057 30.0228C21.9057 32.3071 23.9105 34.1111 26.3237 34.1111C27.5736 34.1111 28.9844 33.7714 29.8135 33.3145V29.2614H26.2123L25.6307 30.9131H27.7716V32.0494C27.5365 32.2719 26.9053 32.3305 26.5836 32.3305C25.1604 32.3305 23.9724 31.4754 23.9724 30.0111C23.9724 28.6639 25.0119 27.7033 26.4351 27.7033C27.1528 27.7033 27.8458 27.9611 28.378 28.4179L29.566 27.0239Z" fill="#858585"/>
<path d="M36.3475 33.9354L36.8549 32.2836H33.6126V30.7842H35.7535V29.1208H33.6126V27.7736H36.6074L36.2485 26.1102H31.5707V33.9354H36.3475Z" fill="#858585"/>
<path d="M42.3992 33.9354L42.9437 32.1548H40.2459V25.9345L38.1916 26.1102V33.9354H42.3992Z" fill="#858585"/>
</svg>
