<svg width="50" height="50" viewBox="0 0 50 50" fill="none" xmlns="http://www.w3.org/2000/svg">
<path d="M35.5094 29.4393H30.5813L28.4438 27.486V21.4486L30.3438 20.2648H35.3906C35.8656 20.2648 36.3406 19.7913 36.3406 19.3178V14.405C36.3406 13.8481 35.9736 13.5171 35.45 13.5171H30.4031C29.8469 13.5171 29.5125 13.8804 29.5125 14.405V19.081L27.375 20.3832H21.2L17.9344 17.4237V14.8785C17.9344 14.5984 17.6939 14.2866 17.4 14.2866H14.2531C13.9159 14.2866 13.6594 14.4725 13.6594 14.8193V18.0748C13.6594 18.3461 13.8971 18.6075 14.2531 18.6075H17.1625L20.25 21.3894V27.3676L17.0437 29.3209H14.2531C13.8961 29.3209 13.6594 29.5052 13.6594 29.9128V33.3458C13.6594 33.6182 13.8217 33.8785 14.2531 33.8785H17.5187C17.849 33.8785 18.1125 33.74 18.1125 33.3458V30.6231L21.3781 28.6698H27.4344L29.5719 30.6231V35.4766C29.5719 35.9502 30.0469 36.4237 30.5219 36.4237H35.5688C36.0438 36.4237 36.5188 35.9502 36.5188 35.4766V30.4455C36.5188 29.8152 36.152 29.4393 35.5094 29.4393Z" fill="#FA6624"/>
<path fill-rule="evenodd" clip-rule="evenodd" d="M10 10V40H40V10H10ZM8 6C6.89543 6 6 6.89543 6 8V42C6 43.1046 6.89543 44 8 44H42C43.1046 44 44 43.1046 44 42V8C44 6.89543 43.1046 6 42 6H8Z" fill="#FA6624"/>
</svg>
