<svg width="50" height="50" viewBox="0 0 50 50" fill="none" xmlns="http://www.w3.org/2000/svg">
<path d="M6.00848 27.0215L7.23455 24.6767H6.53499L7.26026 23.2804H9.68761L7.80558 26.8763C7.74248 26.9948 7.6871 27.1183 7.63987 27.2457C7.54807 27.5022 7.60958 27.6479 7.88959 27.6479C7.96946 27.6479 8.0833 27.6366 8.0833 27.6366L7.35757 29.0314C7.1812 29.0531 7.00392 29.0644 6.82647 29.0652C6.03694 29.0652 5.24466 28.9867 5.6789 27.7361C5.77207 27.4887 5.88226 27.2498 6.00848 27.0215ZM9.14687 21.0474H10.8352L10.0512 22.5545H8.36239L9.14687 21.0474Z" fill="#0000BA"/>
<path d="M9.3661 26.9097L11.6998 22.4432H10.9993L11.7251 21.0474H14.1529L11.1921 26.7414C11.1155 26.8809 11.0481 27.0264 10.9906 27.1769C10.8988 27.4447 10.9722 27.5453 11.2518 27.5453C11.362 27.5453 11.4657 27.534 11.4657 27.534L10.6675 29.0529C10.4909 29.0744 10.3135 29.0855 10.1359 29.0862C9.34682 29.0862 8.59952 28.9077 9.04249 27.6345C9.1327 27.3835 9.24092 27.1411 9.3661 26.9097Z" fill="#0000BA"/>
<path d="M12.693 26.9097L15.0267 22.4432H14.3271L15.0528 21.0474H17.4806L14.5199 26.7414C14.4432 26.8809 14.3759 27.0264 14.3184 27.1769C14.2266 27.4447 14.3 27.5453 14.5796 27.5453C14.6897 27.5453 14.7935 27.534 14.7935 27.534L13.9952 29.0529C13.8187 29.0744 13.6413 29.0855 13.4637 29.0862C12.6746 29.0862 11.9273 28.9077 12.3703 27.6345C12.4602 27.3836 12.5681 27.1412 12.693 26.9097Z" fill="#0000BA"/>
<path d="M16.2518 26.9322L17.4265 24.6751H16.7278L17.4623 23.2788H19.8906L18.1274 26.6516C18.0708 26.756 18.0197 26.8641 17.9746 26.9753C17.8543 27.3216 17.9635 27.4668 18.2532 27.4668C18.9629 27.4668 19.7997 26.5844 20.1935 25.8252L20.7962 24.6767H20.0953L20.8297 23.2803H23.258L21.376 26.8763C21.3126 26.9948 21.2569 27.1182 21.2093 27.2457C21.1203 27.5022 21.1795 27.6478 21.4591 27.6478C21.5394 27.6478 21.6528 27.6366 21.6528 27.6366L20.9275 29.0324C20.7011 29.0574 20.4737 29.0687 20.2463 29.0662C19.6955 29.0662 18.9748 29.0437 19.2263 28.0054H19.2066C18.5534 28.6753 17.773 29.1668 16.9436 29.1668C16.1141 29.1668 15.5858 28.6753 15.9704 27.5699C16.0497 27.3497 16.1438 27.1365 16.2518 26.9322Z" fill="#0000BA"/>
<path d="M22.5861 26.9989H24.0347L23.925 27.2C23.6955 27.6242 24.2096 27.7027 24.5397 27.7027C25.0492 27.7027 25.2649 27.5129 25.331 27.3231C25.584 26.5972 23.1507 26.8984 23.7878 25.066C24.2656 23.6927 25.7157 23.1454 26.9445 23.1454C27.8337 23.1454 28.8146 23.5142 28.2913 24.5304L27.9558 25.1778H26.5052L26.6127 24.9547C26.7614 24.6418 26.4433 24.6084 26.2335 24.6084C25.8139 24.6084 25.5812 24.731 25.5036 24.9547C25.2282 25.7472 27.7276 25.3138 27.0979 27.121C26.6512 28.4034 25.2778 29.1647 23.8089 29.1647C22.9294 29.1647 21.6487 28.7959 22.2822 27.5786L22.5861 26.9989Z" fill="#0000BA"/>
<path d="M28.4121 27.0214L29.6377 24.6766H28.9382L29.6639 23.2803H32.0922L30.2102 26.8763C30.1463 26.9945 30.09 27.1175 30.0417 27.2446C29.9526 27.5011 30.0119 27.6468 30.2919 27.6468C30.3717 27.6468 30.4856 27.6355 30.4856 27.6355L29.7598 29.0313C29.5835 29.0531 29.4062 29.0644 29.2288 29.0651C28.4392 29.0651 27.6469 28.9867 28.0812 27.736C28.175 27.4887 28.2857 27.2498 28.4121 27.0214Z" fill="#0000BA"/>
<path d="M32.9058 24.6766H32.3261L33.0605 23.2803H35.7486L35.0142 24.6766H34.5551L34.0621 26.7532C33.9997 27.0151 33.9146 27.2695 33.8078 27.5129H33.8478C34.0093 27.2452 34.1884 26.9913 34.3834 26.7532L36.0557 24.6766H35.5967L36.3311 23.2803H39.1193L38.3848 24.6766H37.8023L34.0984 29.0313H32.0598L32.9058 24.6766Z" fill="#0000BA"/>
<path d="M41.9622 23.1464C43.4209 23.1464 43.8377 24.0734 43.3755 25.4036C43.1919 25.9283 42.8008 26.509 42.8008 26.509H39.5633C39.5447 26.5448 39.5284 26.582 39.5146 26.6203C39.3122 27.201 39.5839 27.5699 40.1935 27.5699C40.9426 27.5699 41.9245 26.9892 41.9245 26.9892L41.8658 28.4173C41.8658 28.4173 40.6961 29.1657 39.527 29.1657C37.768 29.1657 37.303 28.0044 37.7731 26.6521C38.4689 24.6541 40.2633 23.1464 41.9622 23.1464ZM41.661 25.4472C41.661 25.4472 41.7354 25.2933 41.7588 25.2235C41.8832 24.8644 41.7767 24.5982 41.4269 24.5982C40.927 24.5982 40.463 24.9891 40.1416 25.4472H41.661Z" fill="#0000BA"/>
<path d="M32.1968 20.8333H33.2613L32.6329 21.9875H31.5684L32.1968 20.8333Z" fill="#0000BA"/>
<path opacity="0.9" d="M33.5947 20.8333H34.6588L34.0308 21.9875H32.9663L33.5947 20.8333Z" fill="#0000BA"/>
<path opacity="0.8" d="M34.9927 20.8333H36.0571L35.4287 21.9875H34.3643L34.9927 20.8333Z" fill="#0000BA"/>
<path opacity="0.7" d="M36.3911 20.8333H37.4552L36.8272 21.9875H35.7627L36.3911 20.8333Z" fill="#0000BA"/>
<path opacity="0.6" d="M37.7891 20.8333H38.8531L38.2251 21.9875H37.1606L37.7891 20.8333Z" fill="#0000BA"/>
<path opacity="0.5" d="M39.1871 20.8333H40.2516L39.6237 21.9875H38.5605L39.1871 20.8333Z" fill="#0000BA"/>
<path opacity="0.4" d="M40.5854 20.8333H41.6499L41.0215 21.9875H39.957L40.5854 20.8333Z" fill="#0000BA"/>
<path opacity="0.3" d="M41.9839 20.8333H43.0479L42.42 21.9875H41.3555L41.9839 20.8333Z" fill="#0000BA"/>
<path opacity="0.1" d="M43.38 20.8333H44.444L43.8179 21.9875H42.7534L43.38 20.8333Z" fill="#0000BA"/>
</svg>
