<svg width="50" height="50" viewBox="0 0 50 50" fill="none" xmlns="http://www.w3.org/2000/svg">
<path d="M19.1919 9.11207L24.8758 10.8389V17.5703L19.1919 15.8435V9.11207Z" fill="#53676C"/>
<path d="M24.8758 10.8466L29.7632 8.75616V15.4796L24.8758 17.5703L24.8758 10.8466Z" fill="#6F8A91"/>
<path d="M29.7603 8.74214L24.8767 10.8381L19.1901 9.09593L24.0737 7L29.7603 8.74214Z" fill="#DCEDF1"/>
<path d="M25.9276 11.0979L31.6115 12.8247V19.5561L25.9276 17.8293V11.0979Z" fill="#53676C"/>
<path d="M31.6114 12.8325L36.4989 10.742V17.4655L31.6115 19.5561L31.6114 12.8325Z" fill="#6F8A91"/>
<path d="M36.4959 10.728L31.6123 12.8239L25.9257 11.0818L30.8094 8.98585L36.4959 10.728Z" fill="#DCEDF1"/>
<path d="M13.2317 11.7079L18.9634 13.4493V20.2376L13.2317 18.4961V11.7079Z" fill="#53676C"/>
<path d="M18.9629 13.4575L23.8908 11.3497V18.1298L18.9634 20.2376L18.9629 13.4575Z" fill="#6F8A91"/>
<path d="M23.8898 11.3344L18.9649 13.4483L13.2302 11.6926L18.1551 9.57871L23.8898 11.3344Z" fill="#DCEDF1"/>
<path d="M20.0723 13.653L25.804 15.3945V20.8045V22.1827L20.0723 20.4412V13.653Z" fill="#53676C"/>
<path d="M25.8037 15.4014L30.7316 13.2936V20.0737L25.8037 22.1815L25.804 20.8045L25.8037 15.4014Z" fill="#6F8A91"/>
<path d="M30.7308 13.2794L25.8059 15.3933L20.0712 13.6376L24.9961 11.5237L30.7308 13.2794Z" fill="#DCEDF1"/>
<path d="M7.0696 29.7695L12.8011 31.5108V38.2986L7.0696 36.5573V29.7695Z" fill="#0086CF"/>
<path d="M12.8016 31.5193L17.73 29.4113V36.1912L12.8011 38.2986L12.8016 31.5193Z" fill="#53676C"/>
<path d="M17.7286 29.412L12.8041 31.5255L7.0696 29.7695L11.9944 27.6553L17.7286 29.412Z" fill="#DCEDF1"/>
<path d="M7 21.9077L12.7315 23.649V30.4368L7 28.6956V21.9077Z" fill="#0086CF"/>
<path d="M12.732 23.6576L17.6604 21.5496V28.3294L12.7315 30.4368L12.732 23.6576Z" fill="#53676C"/>
<path d="M17.659 21.5502L12.7345 23.6637L7 21.9077L11.9248 19.7935L17.659 21.5502Z" fill="#DCEDF1"/>
<path d="M7.0696 14.2361L12.8011 15.9773V22.7652L7.0696 21.0239V14.2361Z" fill="#0086CF"/>
<path d="M12.8016 15.9859L17.73 13.8779V20.6577L12.8011 22.7652L12.8016 15.9859Z" fill="#53676C"/>
<path d="M17.7286 13.8786L12.8041 15.9921L7.0696 14.2361L11.9944 12.1218L17.7286 13.8786Z" fill="#DCEDF1"/>
<path d="M13.8582 31.8422L19.5897 33.5835V40.3713L13.8582 38.6301V31.8422Z" fill="#0086CF"/>
<path d="M19.5901 33.5921L24.5185 31.4841V38.2639L19.5897 40.3713L19.5901 33.5921Z" fill="#53676C"/>
<path d="M24.5172 31.4848L19.5926 33.5983L13.8582 31.8422L18.7829 29.728L24.5172 31.4848Z" fill="#DCEDF1"/>
<path d="M13.8582 24.0757L19.5897 25.8169V32.6048L13.8582 30.8635V24.0757Z" fill="#0086CF"/>
<path d="M19.5901 25.8255L24.5185 23.7175V30.4974L19.5897 32.6048L19.5901 25.8255Z" fill="#53676C"/>
<path d="M24.5172 23.7182L19.5926 25.8317L13.8582 24.0757L18.7829 21.9614L24.5172 23.7182Z" fill="#DCEDF1"/>
<path d="M13.8582 16.309L19.5897 18.0502V24.8381L13.8582 23.0968V16.309Z" fill="#FD1212"/>
<path d="M19.5901 18.0588L24.5185 15.9508V22.7306L19.5897 24.8381L19.5901 18.0588Z" fill="#53676C"/>
<path d="M24.517 15.9515L19.5925 18.065L13.8582 16.309L18.7828 14.1947L24.517 15.9515Z" fill="#DCEDF1"/>
<path d="M32.7804 28.862L38.2738 30.6685V37.4563L32.7804 35.6498V28.862Z" fill="#53676C"/>
<path d="M38.2738 30.677L42.9974 28.6251V35.405L38.2738 37.4563L38.2738 30.677Z" fill="#FD1212"/>
<path d="M43.0002 28.6086L38.2803 30.666L32.7843 28.844L37.5042 26.7866L43.0002 28.6086Z" fill="#DCEDF1"/>
<path d="M32.753 20.9924L38.2464 22.7989V29.5867L32.753 27.7802V20.9924Z" fill="#53676C"/>
<path d="M38.2464 22.8074L42.97 20.7555V27.5353L38.2464 29.5867L38.2464 22.8074Z" fill="#FD1212"/>
<path d="M42.9728 20.739L38.2529 22.7964L32.7569 20.9744L37.4768 18.917L42.9728 20.739Z" fill="#DCEDF1"/>
<path d="M32.477 13.1731L38.2721 14.8058V21.7534L32.477 20.1208V13.1731Z" fill="#53676C"/>
<path d="M42.9817 12.6925L38.269 14.8164L32.5106 13.1673L37.2233 11.0435L42.9817 12.6925Z" fill="#DCEDF1"/>
<path d="M38.2723 14.7934L42.994 12.6869V19.6471L38.2721 21.7534L38.2723 14.7934Z" fill="#FD1212"/>
<path d="M26.5523 31.5395L32.3473 33.1523V40.0153L26.5523 38.4025V31.5395Z" fill="#53676C"/>
<path d="M32.3474 33.1607L37.3304 30.9022V37.7571L32.3473 40.0153L32.3474 33.1607Z" fill="#FD1212"/>
<path d="M37.333 30.8855L32.3539 33.1494L26.5561 31.5211L31.5352 29.2572L37.333 30.8855Z" fill="#DCEDF1"/>
<path d="M26.5512 23.6882L32.3462 25.3009V32.164L26.5512 30.5512V23.6882Z" fill="#53676C"/>
<path d="M32.3465 25.3094L37.3295 23.0509V29.9059L32.3462 32.164L32.3465 25.3094Z" fill="#FD1212"/>
<path d="M37.3322 23.034L32.3531 25.298L26.5553 23.6696L31.5344 21.4057L37.3322 23.034Z" fill="#DCEDF1"/>
<path d="M26.5523 15.8611L32.3473 17.4739V24.3369L26.5523 22.7242V15.8611Z" fill="#53676C"/>
<path d="M32.3474 17.4827L37.3304 15.2243V22.0792L32.3473 24.3369L32.3474 17.4827Z" fill="#0086CF"/>
<path d="M37.333 15.2074L32.3539 17.4713L26.5561 15.843L31.5352 13.5791L37.333 15.2074Z" fill="#DCEDF1"/>
<path d="M20.78 33.9786L26.5115 35.7199V42.5077L20.78 40.7664V33.9786Z" fill="#0086CF"/>
<path d="M26.512 35.7284L31.4404 33.6204V40.4002L26.5115 42.5077L26.512 35.7284Z" fill="#FD1212"/>
<path d="M31.439 33.6211L26.5145 35.7346L20.78 33.9786L25.7048 31.8643L31.439 33.6211Z" fill="#DCEDF1"/>
<path d="M20.78 26.2119L26.5115 27.9531V34.7409L20.78 32.9997V26.2119Z" fill="#0086CF"/>
<path d="M26.512 27.9617L31.4404 25.8537V32.6335L26.5115 34.7409L26.512 27.9617Z" fill="#FD1212"/>
<path d="M31.439 25.8544L26.5145 27.9679L20.78 26.2119L25.7048 24.0976L31.439 25.8544Z" fill="#DCEDF1"/>
<path d="M20.78 18.4451L26.5115 20.1864V26.9742L20.78 25.233V18.4451Z" fill="#0086CF"/>
<path d="M26.512 20.195L31.4404 18.087V24.8668L26.5115 26.9742L26.512 20.195Z" fill="#FD1212"/>
<path d="M31.4389 18.0877L26.5143 20.2011L20.78 18.4451L25.7046 16.3309L31.4389 18.0877Z" fill="#DCEDF1"/>
</svg>
