<svg width="50" height="50" viewBox="0 0 50 50" fill="none" xmlns="http://www.w3.org/2000/svg">
<path d="M30.7104 28.3457H26.538C26.538 27.9764 26.538 27.6476 26.538 27.3187C26.538 24.4502 26.5498 21.5835 26.5278 18.715C26.5177 17.2513 25.822 16.3035 24.6619 16.059C23.0764 15.7251 21.5752 16.914 21.5685 18.5362C21.5566 21.4604 21.5651 24.3845 21.5651 27.3086C21.5651 27.6391 21.5651 27.968 21.5651 28.3406H17.4635V12.6661H21.5161C21.5482 13.0371 21.5786 13.3912 21.6141 13.801C24.5387 11.6712 27.3147 11.6644 30.0147 14.2445C30.9992 13.3524 32.1001 12.6374 33.4848 12.4047C37.1541 11.7909 39.741 13.6223 39.9132 17.3052C40.0838 20.9494 39.9504 24.6088 39.9504 28.3238H35.7711C35.7711 28.0961 35.7711 27.828 35.7711 27.5615C35.7711 24.8347 35.7762 22.1062 35.7677 19.3794C35.7677 18.9595 35.739 18.5346 35.6715 18.1214C35.4587 16.8212 34.6381 16.0455 33.4443 15.9814C32.2673 15.9174 31.1309 16.7656 30.8438 17.968C30.7476 18.3727 30.7172 18.801 30.7155 19.2192C30.7054 21.9747 30.7104 24.7302 30.7104 27.4857C30.7104 27.7605 30.7104 28.0354 30.7104 28.3457Z" fill="#3C55E2"/>
<path d="M14.1421 12.6627V28.3406H10.0422V12.6627H14.1421Z" fill="#3C55E2"/>
<path d="M10 6H14.2552V10.3103H10V6Z" fill="black"/>
<path d="M39.9419 35H35.6867V30.6897H39.9419V35Z" fill="black"/>
<path d="M18.1064 37.8906L16.6953 42.8516L16.4997 43.6956L16.3584 42.7539L15.2354 37.8906H14.2979L16.0215 45H16.876L18.3945 39.8193L18.5061 39.275L18.6191 39.8193L20.084 45H20.9385L22.6572 37.8906H21.7148L20.6162 42.749L20.4651 43.7164L20.2646 42.8516L18.8926 37.8906H18.1064Z" fill="black"/>
<path fill-rule="evenodd" clip-rule="evenodd" d="M26.3389 37.8906H25.5137L22.8037 45H23.7656L24.4414 43.1396H27.4147L28.0918 45H29.0586L26.3389 37.8906ZM27.1339 42.3682H24.7216L25.9265 39.051L27.1339 42.3682Z" fill="black"/>
<path d="M30.9531 38.6621V41.0889H33.9316V41.8604H30.9531V45H30.0107V37.8906H34.415V38.6621H30.9531Z" fill="black"/>
</svg>
