<svg width="50" height="50" viewBox="0 0 50 50" fill="none" xmlns="http://www.w3.org/2000/svg">
<rect width="50" height="50" fill="#3C55E2"/>
<path d="M30.0201 27.8046H25.9867C25.9867 27.4608 25.9867 27.1546 25.9867 26.8485C25.9867 24.1778 25.9981 21.5087 25.9769 18.8381C25.9671 17.4753 25.2946 16.5929 24.1732 16.3653C22.6405 16.0544 21.1894 17.1613 21.1829 18.6717C21.1714 21.3941 21.1796 24.1166 21.1796 26.839C21.1796 27.1468 21.1796 27.4529 21.1796 27.7999H17.2147V13.2064H21.1323C21.1633 13.5518 21.1926 13.8815 21.2269 14.263C24.0541 12.28 26.7376 12.2738 29.3476 14.6759C30.2992 13.8454 31.3635 13.1797 32.702 12.963C36.2489 12.3915 38.7496 14.0966 38.9161 17.5256C39.081 20.9184 38.952 24.3254 38.952 27.7842H34.9121C34.9121 27.5722 34.9121 27.3226 34.9121 27.0745C34.9121 24.5358 34.917 21.9955 34.9088 19.4567C34.9088 19.0658 34.8811 18.6701 34.8158 18.2855C34.6101 17.0749 33.8168 16.3527 32.6628 16.2931C31.5251 16.2334 30.4265 17.0231 30.149 18.1426C30.056 18.5194 30.0266 18.9182 30.025 19.3075C30.0152 21.873 30.0201 24.4384 30.0201 27.0039C30.0201 27.2598 30.0201 27.5157 30.0201 27.8046Z" fill="white"/>
<path d="M14.004 13.2032V27.7999H10.0408V13.2032H14.004Z" fill="white"/>
<path d="M10 7H14.1134V11.013H10V7Z" fill="black"/>
<path d="M38.9439 34H34.8305V29.987H38.9439V34Z" fill="black"/>
<path d="M17.7864 36L16.3835 40.8846L16.189 41.7157L16.0485 40.7885L14.932 36H14L15.7136 43H16.5631L18.0728 37.899L18.1838 37.3631L18.2961 37.899L19.7524 43H20.6019L22.3107 36H21.3738L20.2816 40.7837L20.1314 41.7361L19.932 40.8846L18.568 36H17.7864Z" fill="white"/>
<path fill-rule="evenodd" clip-rule="evenodd" d="M25.9709 36H25.1505L22.4563 43H23.4126L24.0844 41.1683H27.0404L27.7136 43H28.6748L25.9709 36ZM26.7612 40.4087H24.363L25.5609 37.1425L26.7612 40.4087Z" fill="white"/>
<path d="M30.5583 36.7596V39.149H33.5194V39.9087H30.5583V43H29.6214V36H34V36.7596H30.5583Z" fill="white"/>
</svg>
