<svg width="50" height="50" viewBox="0 0 50 50" fill="none" xmlns="http://www.w3.org/2000/svg">
<rect width="50" height="50" fill="#3C55E2"/>
<path d="M30.6394 28.9023H26.8842C26.8842 28.5584 26.8842 28.2523 26.8842 27.9461C26.8842 25.2755 26.8948 22.6064 26.875 19.9358C26.8659 18.573 26.2398 17.6906 25.1958 17.4629C23.7687 17.1521 22.4177 18.259 22.4116 19.7693C22.401 22.4918 22.4086 25.2142 22.4086 27.9367C22.4086 28.2444 22.4086 28.5506 22.4086 28.8976H18.7172V14.304H22.3645C22.3934 14.6494 22.4207 14.9791 22.4527 15.3607C25.0848 13.3777 27.5832 13.3714 30.0133 15.7736C30.8993 14.943 31.8901 14.2773 33.1363 14.0607C36.4387 13.4892 38.7669 15.1942 38.9219 18.6232C39.0754 22.0161 38.9553 25.4231 38.9553 28.8819H35.194C35.194 28.6699 35.194 28.4203 35.194 28.1722C35.194 25.6334 35.1986 23.0931 35.191 20.5544C35.191 20.1634 35.1651 19.7678 35.1043 19.3831C34.9129 18.1726 34.1743 17.4504 33.0998 17.3907C32.0406 17.3311 31.0178 18.1208 30.7595 19.2402C30.6728 19.617 30.6455 20.0158 30.644 20.4052C30.6348 22.9707 30.6394 25.5361 30.6394 28.1015C30.6394 28.3575 30.6394 28.6134 30.6394 28.9023Z" fill="white"/>
<path d="M15.7279 14.3009V28.8976H12.038V14.3009H15.7279Z" fill="white"/>
<path d="M12 8.09766H15.8297V12.1107H12V8.09766Z" fill="black"/>
<path d="M38.9477 35.0977H35.118V31.0846H38.9477V35.0977Z" fill="black"/>
<path d="M20.8205 37.0977V44.0077H20.0052V37.0977H20.8205Z" fill="white"/>
<path fill-rule="evenodd" clip-rule="evenodd" d="M35.2158 43.482L35.2548 44.0077H36V37.0977H35.1847V39.6308C34.8773 39.2534 34.4453 39.0501 33.8697 39.0501C32.5634 39.0501 31.9936 40.372 31.9936 41.5334C31.9936 42.6995 32.5613 44.0977 33.8609 44.0977C34.4618 44.0977 34.9069 43.8796 35.2158 43.482ZM35.1847 40.4515V42.6776C34.9747 43.093 34.6384 43.3914 34.0626 43.3914C33.1031 43.3914 32.8089 42.3713 32.8089 41.5334C32.8089 40.7198 33.1278 39.7519 34.0713 39.7519C34.6388 39.7519 34.9806 40.0498 35.1847 40.4515Z" fill="white"/>
<path d="M30.1664 43.5261L30.1833 44.0077H30.9592V39.1401H30.1439V42.6793C29.9606 43.1134 29.5775 43.3914 28.9078 43.3914C28.4708 43.3914 28.0355 43.1628 28.0355 42.2892V39.1401H27.2245V42.2802C27.2245 43.584 27.8674 44.0977 28.7806 44.0977C29.4212 44.0977 29.8721 43.8854 30.1664 43.5261Z" fill="white"/>
<path fill-rule="evenodd" clip-rule="evenodd" d="M21.9076 41.6279C21.9076 42.9363 22.7508 44.0977 24.0685 44.0977C25.3853 44.0977 26.2251 42.9332 26.2251 41.6279C26.2251 40.3222 25.4482 39.0501 24.0598 39.0501C22.6909 39.0501 21.9076 40.3011 21.9076 41.6279ZM22.7185 41.6279C22.7185 40.7795 23.0744 39.7339 24.0598 39.7339C25.03 39.7339 25.4098 40.7615 25.4098 41.6279C25.4098 42.4714 24.988 43.4139 24.0685 43.4139C23.1645 43.4139 22.7185 42.5925 22.7185 41.6279Z" fill="white"/>
<path d="M18.9093 41.9248H18.0677C17.928 42.8391 17.57 43.3914 16.4897 43.3914C15.295 43.3914 14.8416 42.1271 14.8416 41.061C14.8416 39.829 14.9796 38.0784 16.5643 38.0784C17.4526 38.0784 17.9488 38.6692 18.0677 39.5585H18.9093C18.7776 38.2603 18.0094 37.3676 16.5643 37.3676C14.5212 37.3676 14 39.3526 14 41.061C14 42.6017 14.8845 44.0977 16.4897 44.0977C17.803 44.0977 18.7686 43.2533 18.9093 41.9248Z" fill="white"/>
</svg>
