<svg width="50" height="50" viewBox="0 0 50 50" fill="none" xmlns="http://www.w3.org/2000/svg">
<path d="M30.7104 28.3457H26.538C26.538 27.9764 26.538 27.6476 26.538 27.3187C26.538 24.4502 26.5498 21.5835 26.5278 18.715C26.5177 17.2513 25.822 16.3035 24.6619 16.059C23.0764 15.7251 21.5752 16.914 21.5685 18.5362C21.5566 21.4604 21.5651 24.3845 21.5651 27.3086C21.5651 27.6391 21.5651 27.968 21.5651 28.3406H17.4635V12.6661H21.5161C21.5482 13.0371 21.5786 13.3912 21.6141 13.801C24.5387 11.6712 27.3147 11.6644 30.0147 14.2445C30.9992 13.3524 32.1001 12.6374 33.4848 12.4047C37.1541 11.7909 39.741 13.6223 39.9132 17.3052C40.0838 20.9494 39.9504 24.6088 39.9504 28.3238H35.7711C35.7711 28.0961 35.7711 27.828 35.7711 27.5615C35.7711 24.8347 35.7762 22.1062 35.7677 19.3794C35.7677 18.9595 35.739 18.5346 35.6715 18.1214C35.4587 16.8212 34.6381 16.0455 33.4443 15.9814C32.2673 15.9174 31.1309 16.7656 30.8438 17.968C30.7476 18.3727 30.7172 18.801 30.7155 19.2192C30.7054 21.9747 30.7104 24.7302 30.7104 27.4857C30.7104 27.7605 30.7104 28.0354 30.7104 28.3457Z" fill="#3C55E2"/>
<path d="M14.1421 12.6627V28.3406H10.0422V12.6627H14.1421Z" fill="#3C55E2"/>
<path d="M10 6H14.2552V10.3103H10V6Z" fill="black"/>
<path d="M39.9419 35H35.6867V30.6897H39.9419V35Z" fill="black"/>
<path d="M20.1836 37.5V45H19.2754V37.5H20.1836Z" fill="#1C1D1F"/>
<path fill-rule="evenodd" clip-rule="evenodd" d="M36.2192 44.4294L36.2627 45H37.0928V37.5H36.1846V40.2494C35.8422 39.8398 35.3609 39.6191 34.7197 39.6191C33.2646 39.6191 32.6299 41.0539 32.6299 42.3145C32.6299 43.5801 33.2622 45.0977 34.71 45.0977C35.3793 45.0977 35.8752 44.8609 36.2192 44.4294ZM36.1846 41.1402V43.5564C35.9507 44.0072 35.5761 44.3311 34.9346 44.3311C33.8658 44.3311 33.5381 43.2239 33.5381 42.3145C33.5381 41.4314 33.8933 40.3809 34.9443 40.3809C35.5765 40.3809 35.9572 40.7042 36.1846 41.1402Z" fill="#1C1D1F"/>
<path d="M30.5945 44.4773L30.6133 45H31.4775V39.7168H30.5693V43.5582C30.3652 44.0294 29.9384 44.3311 29.1924 44.3311C28.7057 44.3311 28.2207 44.083 28.2207 43.1348V39.7168H27.3174V43.125C27.3174 44.5402 28.0335 45.0977 29.0508 45.0977C29.7643 45.0977 30.2666 44.8672 30.5945 44.4773Z" fill="#1C1D1F"/>
<path fill-rule="evenodd" clip-rule="evenodd" d="M21.3945 42.417C21.3945 43.8371 22.3338 45.0977 23.8018 45.0977C25.2685 45.0977 26.2041 43.8338 26.2041 42.417C26.2041 40.9999 25.3387 39.6191 23.792 39.6191C22.2671 39.6191 21.3945 40.977 21.3945 42.417ZM22.2979 42.417C22.2979 41.4962 22.6944 40.3613 23.792 40.3613C24.8728 40.3613 25.2959 41.4766 25.2959 42.417C25.2959 43.3325 24.826 44.3555 23.8018 44.3555C22.7947 44.3555 22.2979 43.464 22.2979 42.417Z" fill="#1C1D1F"/>
<path d="M18.0547 42.7393H17.1172C16.9615 43.7317 16.5628 44.3311 15.3594 44.3311C14.0285 44.3311 13.5234 42.9588 13.5234 41.8018C13.5234 40.4645 13.6771 38.5645 15.4424 38.5645C16.4319 38.5645 16.9847 39.2057 17.1172 40.1709H18.0547C17.9079 38.762 17.0522 37.793 15.4424 37.793C13.1665 37.793 12.5859 39.9474 12.5859 41.8018C12.5859 43.474 13.5712 45.0977 15.3594 45.0977C16.8222 45.0977 17.898 44.1812 18.0547 42.7393Z" fill="#1C1D1F"/>
</svg>
