<svg width="50" height="50" viewBox="0 0 50 50" fill="none" xmlns="http://www.w3.org/2000/svg">
<path d="M30.841 33.2891H26.341C26.341 32.0164 26.341 30.78 26.341 29.5436C26.341 27.3791 26.37 25.2116 26.3177 23.0472C26.28 21.439 25.4782 20.5774 24.1651 20.5623C22.7474 20.5442 21.7335 21.5538 21.7131 23.1349C21.6754 25.9523 21.7131 28.7727 21.7131 31.5992V33.283H17.3235V16.7352C18.8777 17.1403 20.5569 16.0127 22.0007 17.5423C25.2516 15.7285 27.3462 15.916 29.6092 18.0169C31.3116 17.4335 32.8049 16.6354 34.3475 16.4541C37.4269 16.1004 39.7277 18.0351 39.8933 21.2334C40.0996 25.1935 39.9427 29.1748 39.9427 33.2588H35.5705C35.5705 30.7074 35.5705 28.1621 35.5705 25.6167C35.6066 24.6616 35.5784 23.705 35.4863 22.754C35.2626 21.1578 34.3998 20.4504 33.0489 20.5804C31.698 20.7104 30.9252 21.6324 30.9107 23.1439C30.8788 26.1125 30.9107 29.0841 30.9107 32.0557C30.8904 32.4063 30.8642 32.757 30.841 33.2891Z" fill="#3A54E1"/>
<path d="M14.285 33.277H10V16.8622H14.285V33.277Z" fill="#3A54E1"/>
<path d="M10.0176 14.5707V10H14.291V14.5707H10.0176Z" fill="black"/>
<path d="M35.6171 40.0001V35.6016H39.9399V40.0001H35.6171Z" fill="black"/>
</svg>
