<svg width="50" height="50" viewBox="0 0 50 50" fill="none" xmlns="http://www.w3.org/2000/svg">
<rect width="50" height="50" fill="#F25533"/>
<path fill-rule="evenodd" clip-rule="evenodd" d="M21.5946 43.9156V38.7644H28.2372V44C34.3754 42.48 39 36.9067 39 30.2356C39 24.7467 35.1321 17.1467 30.6757 14.6978C31.2643 16.8089 30.3393 19.5956 29.1622 19.3422C28.7417 19.2578 28.6577 18.4978 28.5736 17.4C28.4054 14.9511 28.1532 10.56 23.6967 6C23.4444 9.20889 18.3994 15.7111 15.1201 20.0178C14.6997 20.6089 14.2793 21.1156 13.8589 21.6222C12.009 24.0711 11 27.1111 11 30.2356C11 36.6533 15.3724 42.3111 21.5946 43.9156ZM28.7417 33.0222C28.7417 35.1333 27.0601 36.8222 25.042 36.8222C22.9399 36.8222 21.3423 35.1333 21.3423 33.0222C21.3423 32.1778 21.6787 31.3333 22.0991 30.7422L22.4354 30.32C23.2763 29.2222 24.6216 27.4489 24.7898 26.6044C27.4805 28.5467 28.7417 31.5867 28.7417 33.0222Z" fill="white"/>
</svg>
