<svg width="50" height="50" viewBox="0 0 50 50" fill="none" xmlns="http://www.w3.org/2000/svg">
<rect width="50" height="50" fill="#3FC0F0"/>
<path d="M43.25 25.25C43.25 35.1911 35.1911 43.25 25.25 43.25C15.3089 43.25 7.25 35.1911 7.25 25.25C7.25 15.3089 15.3089 7.25 25.25 7.25C35.1911 7.25 43.25 15.3089 43.25 25.25Z" fill="#5AB56A"/>
<path fill-rule="evenodd" clip-rule="evenodd" d="M25.25 42.75C25.9028 42.75 26.5473 42.7143 27.1816 42.6446C27.351 42.626 27.5196 42.605 27.6875 42.5816C28.8792 42.4155 30.0324 42.1295 31.1347 41.736C31.3293 41.6665 31.5223 41.5937 31.7137 41.5176C33.0101 41.002 34.2302 40.336 35.3527 39.5411C35.6319 39.3434 35.9051 39.1376 36.1719 38.9243C37.6093 37.7747 38.8615 36.4032 39.8765 34.8616C40.0694 34.5687 40.2537 34.2696 40.4292 33.9647C41.0616 32.8656 41.5781 31.6912 41.9619 30.4584C42.0221 30.265 42.079 30.0702 42.1326 29.874C42.3574 29.0513 42.5237 28.2044 42.6267 27.3381C42.6467 27.1702 42.6643 27.0015 42.6794 26.8321C42.7261 26.311 42.75 25.7833 42.75 25.25C42.75 24.6306 42.7178 24.0187 42.655 23.4159C42.6374 23.2463 42.6173 23.0774 42.5948 22.9093C42.4514 21.8363 42.2107 20.7941 41.882 19.7918C41.8167 19.5927 41.7479 19.3952 41.6758 19.1993C41.2814 18.129 40.7853 17.1078 40.1993 16.1475C40.0117 15.8399 39.8148 15.5386 39.6091 15.2439C38.081 13.0552 36.0653 11.2322 33.7195 9.93236C33.3727 9.74018 33.0186 9.55944 32.6579 9.39065C32.0926 9.12613 31.5108 8.89095 30.9144 8.68706C30.714 8.61854 30.512 8.55356 30.3084 8.49218C29.4658 8.2382 28.5965 8.04603 27.7056 7.92093C27.5377 7.89736 27.3691 7.87617 27.1998 7.8574C26.5596 7.78643 25.9091 7.75 25.25 7.75C24.6772 7.75 24.1108 7.77752 23.5521 7.83132C23.3829 7.8476 23.2145 7.86629 23.0468 7.88736C22.3616 7.97342 21.6888 8.0991 21.0307 8.26202C20.8304 8.31161 20.6314 8.36464 20.4339 8.42107C19.6841 8.63523 18.9549 8.89815 18.25 9.20617C17.893 9.36213 17.5423 9.52964 17.1982 9.70825C14.5952 11.0596 12.3746 13.0456 10.7416 15.4614C10.5378 15.7629 10.3431 16.071 10.158 16.3855C9.64957 17.2492 9.21316 18.1605 8.85705 19.111C8.78403 19.3059 8.7144 19.5024 8.64821 19.7005C8.32472 20.6687 8.08355 21.6746 7.93302 22.7098C7.90864 22.8775 7.88664 23.0459 7.86705 23.215C7.78974 23.8826 7.75 24.5617 7.75 25.25C7.75 25.852 7.7804 26.4469 7.83974 27.0332C7.85684 27.2022 7.87634 27.3705 7.89822 27.538C8.00649 28.3671 8.17279 29.178 8.39293 29.9665C8.44746 30.1618 8.5053 30.3557 8.56637 30.5482C8.9187 31.6587 9.37884 32.7211 9.93449 33.7233C10.1072 34.0349 10.2892 34.3407 10.4801 34.6402C11.605 36.4059 13.0378 37.9563 14.7028 39.2157C14.9686 39.4168 15.2404 39.6104 15.5177 39.7964C16.779 40.6419 18.1565 41.3278 19.621 41.825C19.8103 41.8893 20.0011 41.9504 20.1932 42.0083C21.1204 42.2877 22.0799 42.4922 23.0649 42.6149C23.2326 42.6358 23.4011 42.6543 23.5703 42.6704C24.1231 42.7231 24.6834 42.75 25.25 42.75ZM25.25 43.25C35.1911 43.25 43.25 35.1911 43.25 25.25C43.25 15.3089 35.1911 7.25 25.25 7.25C15.3089 7.25 7.25 15.3089 7.25 25.25C7.25 35.1911 15.3089 43.25 25.25 43.25Z" fill="#75C182"/>
<path fill-rule="evenodd" clip-rule="evenodd" d="M42.6267 27.3381C42.6467 27.1702 42.6643 27.0015 42.6794 26.8321C41.3771 26.9388 39.978 27.0347 38.4967 27.1183C38.4989 26.9543 38.5 26.7899 38.5 26.625C38.5 25.4324 38.4414 24.2624 38.3287 23.1223C39.863 23.2075 41.3105 23.3059 42.655 23.4159C42.6374 23.2463 42.6173 23.0774 42.5948 22.9093C41.2505 22.8004 39.8054 22.703 38.2752 22.6186C38.1197 21.2513 37.8862 19.9294 37.5825 18.6659C39.1368 18.9836 40.5687 19.3586 41.8506 19.7814C41.861 19.7848 41.8715 19.7883 41.882 19.7918C41.8167 19.5927 41.7479 19.3952 41.6758 19.1993C40.3954 18.793 38.9778 18.4334 37.4482 18.1287C37.0944 16.7657 36.6581 15.4748 36.1496 14.2729C37.6256 14.7995 38.9848 15.4303 40.1993 16.1475C40.0117 15.8399 39.8148 15.5386 39.6091 15.2439C38.4646 14.6361 37.2135 14.1004 35.8752 13.6483C35.2482 12.2733 34.524 11.0254 33.7195 9.93236C33.3727 9.74018 33.0186 9.55944 32.6579 9.39065C33.214 10.0511 33.7393 10.7874 34.2283 11.5932C34.5812 12.1745 34.9139 12.7903 35.2245 13.4373C34.2155 13.1235 33.1605 12.8563 32.0673 12.6406C31.7318 11.1967 31.3448 9.87071 30.9144 8.68706C30.714 8.61854 30.512 8.55356 30.3084 8.49218C30.4493 8.86177 30.5861 9.24774 30.7186 9.64945C31.0133 10.5429 31.2848 11.5093 31.5298 12.5392C30.3747 12.3315 29.1792 12.1807 27.9523 12.0922C27.8812 10.6285 27.7986 9.23386 27.7056 7.92093C27.5377 7.89736 27.3691 7.87617 27.1998 7.8574C27.2942 9.17822 27.378 10.5833 27.4501 12.0596C26.7672 12.0202 26.075 12 25.375 12C24.675 12 23.9828 12.0202 23.2999 12.0596C23.3724 10.5736 23.4569 9.15972 23.5521 7.83132C23.3829 7.8476 23.2145 7.86629 23.0468 7.88736C22.9528 9.21008 22.8694 10.616 22.7977 12.0922C21.7544 12.1674 20.7339 12.2877 19.7415 12.4498C19.9809 11.4533 20.2452 10.517 20.5314 9.64945C20.6916 9.16357 20.8583 8.7007 21.0307 8.26202C20.8304 8.31161 20.6314 8.36464 20.4339 8.42107C19.974 9.64435 19.5614 11.0275 19.2058 12.5418C17.9254 12.7727 16.6946 13.0737 15.5255 13.4373C15.8361 12.7903 16.1688 12.1745 16.5217 11.5932C17.0568 10.7116 17.6352 9.91311 18.25 9.20617C17.893 9.36213 17.5423 9.52964 17.1982 9.70825C16.3264 10.8537 15.5451 12.1784 14.8748 13.6483C13.379 14.1535 11.9924 14.7633 10.7416 15.4614C10.5378 15.7629 10.3431 16.071 10.158 16.3855C10.2193 16.3473 10.2811 16.3094 10.3432 16.2717C11.6097 15.503 13.0398 14.8297 14.6004 14.2729C14.1046 15.4448 13.6774 16.7014 13.3284 18.0269C11.7103 18.3308 10.2104 18.6953 8.85705 19.111C8.78403 19.3059 8.7144 19.5024 8.64821 19.7005C10.0109 19.2641 11.5364 18.8808 13.1928 18.5616C12.8876 19.8121 12.6513 21.1204 12.4916 22.4738C10.8954 22.5396 9.37092 22.6187 7.93302 22.7098C7.90864 22.8775 7.88664 23.0459 7.86705 23.215C9.30674 23.123 10.8347 23.043 12.436 22.9766C12.3137 24.1626 12.25 25.3815 12.25 26.625C12.25 26.8394 12.2519 27.053 12.2557 27.2659C10.7098 27.2005 9.2333 27.1225 7.83974 27.0332C7.85684 27.2022 7.87634 27.3705 7.89822 27.538C9.2791 27.6257 10.74 27.7025 12.268 27.7668C12.3034 28.8876 12.3905 29.9857 12.5256 31.0549C11.026 30.7435 9.64218 30.3785 8.39945 29.9686C8.39728 29.9679 8.3951 29.9672 8.39293 29.9665C8.44746 30.1618 8.5053 30.3557 8.56637 30.5482C9.79128 30.9373 11.1419 31.2836 12.5961 31.5798C12.7907 32.9473 13.064 34.2648 13.4078 35.5186C12.3057 35.063 11.2798 34.5468 10.3432 33.9783C10.2049 33.8944 10.0687 33.8094 9.93449 33.7233C10.1072 34.0349 10.2892 34.3407 10.4801 34.6402C11.4353 35.1913 12.4735 35.6898 13.582 36.1284C13.9042 37.2115 14.2796 38.2437 14.7028 39.2157C14.9686 39.4168 15.2404 39.6104 15.5177 39.7964C15.0064 38.7291 14.5553 37.5769 14.1736 36.3542C15.5771 36.8711 17.0853 37.2937 18.6743 37.6077C18.9403 39.1176 19.2583 40.5307 19.621 41.825C19.8103 41.8893 20.0011 41.9504 20.1932 42.0083C19.8126 40.6981 19.4787 39.2562 19.1998 37.7071C20.3612 37.9168 21.5636 38.0688 22.7977 38.1578C22.874 39.7282 22.9635 41.2191 23.0649 42.6149C23.2326 42.6358 23.4011 42.6543 23.5703 42.6704C23.4677 41.2693 23.377 39.7707 23.2999 38.1904C23.9828 38.2298 24.675 38.25 25.375 38.25C26.075 38.25 26.7672 38.2298 27.4501 38.1904C27.3734 39.761 27.2834 41.2509 27.1816 42.6446C27.351 42.626 27.5196 42.605 27.6875 42.5816C27.7879 41.1954 27.8766 39.7158 27.9523 38.1578C29.3707 38.0555 30.7471 37.8699 32.0677 37.6093C31.8044 39.0886 31.4909 40.4713 31.1347 41.736C31.3293 41.6665 31.5223 41.5937 31.7137 41.5176C32.0498 40.277 32.3454 38.9319 32.5945 37.5008C33.9935 37.2001 35.3265 36.8145 36.5764 36.3542C36.2249 37.4801 35.8146 38.5461 35.3527 39.5411C35.6319 39.3434 35.9051 39.1376 36.1719 38.9243C36.5444 38.0381 36.8778 37.1039 37.168 36.1284C38.1261 35.7494 39.0316 35.3255 39.8765 34.8616C40.0694 34.5687 40.2537 34.2696 40.4292 33.9647C40.4217 33.9693 40.4142 33.9738 40.4068 33.9783C39.4702 34.5468 38.4443 35.063 37.3422 35.5186C37.695 34.2318 37.9736 32.878 38.1691 31.4719C39.5371 31.177 40.8079 30.837 41.9619 30.4584C42.0221 30.265 42.079 30.0702 42.1326 29.874C42.0395 29.9058 41.9455 29.9373 41.8506 29.9686C40.751 30.3313 39.541 30.6588 38.2381 30.9451C38.3711 29.8638 38.4552 28.7531 38.4864 27.6197C39.9505 27.5374 41.3353 27.443 42.6267 27.3381ZM25.375 37.75C24.6664 37.75 23.9662 37.729 23.276 37.6881C23.2025 36.106 23.1424 34.4455 23.0972 32.722C23.7657 32.7405 24.442 32.75 25.125 32.75C25.9789 32.75 26.8224 32.7352 27.6532 32.7064C27.608 34.4355 27.5478 36.1013 27.474 37.6881C26.7838 37.729 26.0836 37.75 25.375 37.75ZM22.7739 37.6547C22.701 36.0772 22.6414 34.4227 22.5967 32.7064C21.1942 32.6577 19.8279 32.5689 18.5085 32.4437C18.6531 34.103 18.8553 35.6895 19.1081 37.1819C20.2884 37.402 21.5136 37.5617 22.7739 37.6547ZM25.125 32.25C24.4374 32.25 23.7569 32.2403 23.0846 32.2215C23.0512 30.8498 23.0273 29.4397 23.0136 27.9988C23.2997 27.9996 23.5869 28 23.875 28C25.184 28 26.4729 27.9916 27.7366 27.9754C27.723 29.4189 27.6991 30.8315 27.6658 32.2056C26.8314 32.2349 25.9837 32.25 25.125 32.25ZM22.5841 32.2056C22.5509 30.838 22.5272 29.4326 22.5136 27.997C21.0683 27.9905 19.6503 27.9738 18.2669 27.9477C18.2964 29.3132 18.364 30.6464 18.4664 31.9374C19.7934 32.0652 21.1696 32.1559 22.5841 32.2056ZM23.875 27.5C23.5854 27.5 23.2968 27.4996 23.0093 27.4988C23.0031 26.7159 23 25.9242 23 25.125C23 24.3258 23.0031 23.5341 23.0093 22.7512C23.2968 22.7504 23.5854 22.75 23.875 22.75C25.1857 22.75 26.4761 22.7584 27.7409 22.7747C27.7469 23.55 27.75 24.3338 27.75 25.125C27.75 25.9162 27.7469 26.7 27.7409 27.4753C26.4761 27.4916 25.1857 27.5 23.875 27.5ZM22.5 25.125C22.5 24.3265 22.5031 23.5355 22.5092 22.7531C21.09 22.7594 19.6974 22.7757 18.3383 22.8011C18.2802 23.966 18.25 25.1595 18.25 26.375C18.25 26.7345 18.2526 27.092 18.2579 27.4474C19.6424 27.4737 21.062 27.4904 22.5092 27.4969C22.5031 26.7145 22.5 25.9235 22.5 25.125ZM23.875 22.25C23.5869 22.25 23.2997 22.2504 23.0136 22.2512C23.029 20.6345 23.0572 19.0566 23.0972 17.5282C23.7654 17.5095 24.4417 17.5 25.125 17.5C25.9794 17.5 26.8228 17.5149 27.6532 17.5439C27.6932 19.0748 27.7213 20.6553 27.7366 22.2746C26.4729 22.2584 25.184 22.25 23.875 22.25ZM22.5136 22.253C22.5289 20.6417 22.5569 19.0684 22.5967 17.5439C21.2887 17.5897 20.0133 17.6704 18.7794 17.7833C18.5944 19.2244 18.4544 20.7355 18.365 22.3005C19.7173 22.2754 21.1025 22.2593 22.5136 22.253ZM25.125 17C24.4466 17 23.7749 17.0093 23.1108 17.0276C23.1542 15.4827 23.2096 13.9903 23.276 12.5619C23.9662 12.521 24.6664 12.5 25.375 12.5C26.0836 12.5 26.7838 12.521 27.474 12.5619C27.5406 13.9951 27.5962 15.4927 27.6396 17.0432C26.8132 17.0146 25.9743 17 25.125 17ZM22.6102 17.0432C22.6532 15.5053 22.7081 14.0189 22.7739 12.5953C21.6943 12.675 20.6404 12.8036 19.6184 12.9772C19.3151 14.3149 19.0557 15.754 18.8469 17.2751C20.0653 17.1658 21.3225 17.0876 22.6102 17.0432ZM27.9761 12.5953C28.0422 14.0248 28.0973 15.5175 28.1403 17.0622C29.6117 17.1234 31.0413 17.2287 32.4166 17.374C32.2103 15.8516 31.9534 14.4105 31.6525 13.07C30.4689 12.849 29.2402 12.6886 27.9761 12.5953ZM28.1538 17.5632C28.1936 19.0906 28.2215 20.667 28.2367 22.2815C29.8333 22.3047 31.388 22.3406 32.8899 22.3879C32.8028 20.8282 32.6655 19.3216 32.4835 17.884C31.0936 17.7344 29.646 17.626 28.1538 17.5632ZM28.241 22.7816C28.247 23.5547 28.25 24.3362 28.25 25.125C28.25 25.9138 28.247 26.6953 28.241 27.4684C29.8733 27.4446 31.4613 27.4076 32.9934 27.3585C32.9978 27.0324 33 26.7045 33 26.375C33 25.19 32.9713 24.026 32.9161 22.889C31.4079 22.8412 29.8458 22.805 28.241 22.7816ZM28.2367 27.9685C28.2232 29.4073 28.1995 30.8157 28.1664 32.1863C29.7648 32.1188 31.312 31.9988 32.7919 31.832C32.8918 30.5459 32.9572 29.2185 32.9849 27.8591C31.4536 27.9079 29.867 27.9448 28.2367 27.9685ZM28.1538 32.6872C28.109 34.4104 28.0493 36.0713 27.9761 37.6547C29.4214 37.548 30.8206 37.3537 32.1589 37.0811C32.409 35.5869 32.6085 33.9995 32.7504 32.3398C31.2773 32.5035 29.7398 32.621 28.1538 32.6872ZM18.584 37.0797C18.3386 35.5991 18.1426 34.0305 18.0023 32.3936C16.2819 32.2165 14.6451 31.9769 13.1163 31.6828C13.3258 33.1017 13.6214 34.4634 13.9928 35.7519C15.4149 36.2991 16.9542 36.7474 18.584 37.0797ZM17.9609 31.8866C17.8611 30.607 17.7954 29.2877 17.7666 27.9378C16.0399 27.902 14.3691 27.8514 12.7689 27.7874C12.8064 28.9389 12.8994 30.0652 13.0432 31.1593C14.5768 31.4599 16.2246 31.7052 17.9609 31.8866ZM17.75 26.375C17.75 25.1638 17.7797 23.9736 17.8372 22.8109C16.1466 22.8455 14.5099 22.8944 12.9408 22.9562C12.8155 24.147 12.75 25.3729 12.75 26.625C12.75 26.8463 12.752 27.0669 12.7561 27.2865C14.3568 27.3507 16.0289 27.4016 17.7577 27.4375C17.7526 27.0852 17.75 26.731 17.75 26.375ZM17.8637 22.3103C17.9513 20.7614 18.0881 19.2635 18.2691 17.832C16.6785 17.9902 15.16 18.202 13.733 18.4606C13.4125 19.7324 13.1643 21.0681 12.9975 22.4536C14.5581 22.3926 16.1846 22.3444 17.8637 22.3103ZM18.3357 17.323C18.5385 15.8236 18.7902 14.4007 19.0847 13.0724C17.7401 13.3242 16.4539 13.6543 15.2407 14.0534C14.7068 15.253 14.2468 16.5506 13.8725 17.9277C15.2817 17.6789 16.7754 17.4753 18.3357 17.323ZM32.9287 17.4303C32.7286 15.93 32.4797 14.5055 32.1879 13.1748C33.3438 13.4114 34.4541 13.7063 35.5093 14.0534C36.0555 15.2807 36.5245 16.6107 36.9033 18.0234C35.6453 17.7876 34.316 17.5885 32.9287 17.4303ZM33.3916 22.4042C33.3064 20.8614 33.1724 19.3686 32.9946 17.9411C34.4114 18.1056 35.7653 18.3131 37.0415 18.5586C37.3607 19.8432 37.6062 21.1922 37.7688 22.5913C36.3735 22.5178 34.9106 22.4551 33.3916 22.4042ZM33.5 26.375C33.5 25.1966 33.4718 24.0381 33.4174 22.9054C34.9477 22.9569 36.4203 23.0205 37.8235 23.0949C37.9395 24.2422 38 25.4214 38 26.625C38 26.7991 37.9987 26.9728 37.9962 27.1459C36.5645 27.2231 35.0594 27.2889 33.4937 27.342C33.4979 27.0213 33.5 26.6989 33.5 26.375ZM33.2979 31.7729C33.395 30.4988 33.4585 29.1857 33.4854 27.8426C35.0495 27.7896 36.5537 27.7241 37.9854 27.6472C37.9521 28.8112 37.8621 29.9497 37.7202 31.0557C36.3379 31.3426 34.8572 31.5839 33.2979 31.7729ZM32.6841 36.9694C32.9266 35.4874 33.1198 33.9182 33.2572 32.2814C34.8014 32.0969 36.2714 31.8613 37.6486 31.5809C37.4383 33.0365 37.1375 34.4325 36.7572 35.7519C35.4867 36.2407 34.1226 36.6506 32.6841 36.9694Z" fill="#75C182"/>
<path fill-rule="evenodd" clip-rule="evenodd" d="M23.0468 7.88736C23.0589 7.71651 23.0712 7.54706 23.0837 7.37902C22.4668 7.45302 21.8594 7.55823 21.2633 7.69302C21.1847 7.87787 21.1071 8.06757 21.0307 8.26202C21.6888 8.0991 22.3616 7.97342 23.0468 7.88736Z" fill="#75C182"/>
<path fill-rule="evenodd" clip-rule="evenodd" d="M23.5521 7.83132C24.1108 7.77752 24.6772 7.75 25.25 7.75C25.9091 7.75 26.5596 7.78643 27.1998 7.8574C27.1876 7.687 27.1753 7.518 27.1628 7.35043C26.5342 7.28404 25.8961 7.25 25.25 7.25C24.69 7.25 24.136 7.27557 23.5891 7.32561C23.5766 7.49276 23.5642 7.66134 23.5521 7.83132Z" fill="#75C182"/>
<path fill-rule="evenodd" clip-rule="evenodd" d="M27.7056 7.92093C27.6935 7.74958 27.6811 7.57963 27.6686 7.4111C28.4896 7.52136 29.2931 7.68696 30.0751 7.90403C30.154 8.09517 30.2318 8.29125 30.3084 8.49218C29.4658 8.2382 28.5965 8.04603 27.7056 7.92093Z" fill="#75C182"/>
<path fill-rule="evenodd" clip-rule="evenodd" d="M30.6873 8.0858C30.7643 8.28188 30.84 8.48234 30.9144 8.68706C31.5108 8.89095 32.0926 9.12613 32.6579 9.39065C32.3912 9.07387 32.1173 8.77454 31.837 8.49338C31.4598 8.34498 31.0764 8.20896 30.6873 8.0858Z" fill="#75C182"/>
<path fill-rule="evenodd" clip-rule="evenodd" d="M33.7195 9.93236C33.4762 9.60181 33.2255 9.28542 32.968 8.98396C36.1053 10.4752 38.7428 12.8474 40.5609 15.7807C40.2525 15.5961 39.9351 15.4171 39.6091 15.2439C38.081 13.0552 36.0653 11.2322 33.7195 9.93236Z" fill="#75C182"/>
<path fill-rule="evenodd" clip-rule="evenodd" d="M40.1993 16.1475C40.7853 17.1078 41.2814 18.129 41.6758 19.1993C41.8797 19.264 42.0801 19.3299 42.277 19.397C41.9569 18.4655 41.5625 17.5686 41.1009 16.7133C40.8757 16.5631 40.6442 16.4158 40.4068 16.2717C40.3381 16.23 40.269 16.1886 40.1993 16.1475Z" fill="#75C182"/>
<path fill-rule="evenodd" clip-rule="evenodd" d="M41.882 19.7918C42.2107 20.7941 42.4514 21.8363 42.5948 22.9093C42.7664 22.9232 42.9364 22.9373 43.1046 22.9516C42.9753 21.9368 42.7615 20.9484 42.4704 19.9937C42.2783 19.9253 42.0821 19.858 41.882 19.7918Z" fill="#75C182"/>
<path fill-rule="evenodd" clip-rule="evenodd" d="M42.655 23.4159C42.7178 24.0187 42.75 24.6306 42.75 25.25C42.75 25.7833 42.7261 26.311 42.6794 26.8321C42.8497 26.8182 43.0182 26.8041 43.1851 26.7897C43.2281 26.2822 43.25 25.7687 43.25 25.25C43.25 24.6453 43.2202 24.0476 43.1619 23.4583C42.9947 23.444 42.8257 23.4298 42.655 23.4159Z" fill="#75C182"/>
<path fill-rule="evenodd" clip-rule="evenodd" d="M42.6267 27.3381C42.5237 28.2044 42.3574 29.0513 42.1326 29.874C42.3265 29.8078 42.5166 29.7406 42.7027 29.6724C42.8981 28.8989 43.0434 28.1055 43.135 27.2958C42.9672 27.3101 42.7978 27.3242 42.6267 27.3381Z" fill="#75C182"/>
<path fill-rule="evenodd" clip-rule="evenodd" d="M41.9619 30.4584C41.5781 31.6912 41.0616 32.8656 40.4292 33.9647C40.7306 33.7812 41.0223 33.5926 41.3039 33.3992C41.8106 32.403 42.2273 31.3533 42.5433 30.2609C42.353 30.3278 42.1591 30.3937 41.9619 30.4584Z" fill="#75C182"/>
<path fill-rule="evenodd" clip-rule="evenodd" d="M31.7137 41.5176C31.6587 41.7207 31.6026 41.921 31.5454 42.1184C32.7317 41.6755 33.8587 41.1111 34.9112 40.4402C35.0631 40.1475 35.2103 39.8477 35.3527 39.5411C34.2302 40.336 33.0101 41.002 31.7137 41.5176Z" fill="#75C182"/>
<path fill-rule="evenodd" clip-rule="evenodd" d="M39.8765 34.8616C38.8615 36.4032 37.6093 37.7747 36.1719 38.9243C36.0364 39.2466 35.8957 39.5626 35.75 39.8719C37.7962 38.3999 39.5208 36.5091 40.7984 34.3248C40.4999 34.5092 40.1924 34.6882 39.8765 34.8616Z" fill="#75C182"/>
<path fill-rule="evenodd" clip-rule="evenodd" d="M31.1347 41.736C30.0324 42.1295 28.8792 42.4155 27.6875 42.5816C27.6751 42.753 27.6625 42.9229 27.6497 43.0914C28.7916 42.9393 29.8995 42.6802 30.9633 42.3244C31.0214 42.1312 31.0786 41.9351 31.1347 41.736Z" fill="#75C182"/>
<path fill-rule="evenodd" clip-rule="evenodd" d="M18.25 9.20617C18.9549 8.89815 19.6841 8.63523 20.4339 8.42107C20.5083 8.22326 20.5839 8.02963 20.6607 7.84031C20.1198 7.98251 19.5889 8.14924 19.0691 8.33926C18.7896 8.61057 18.5164 8.89977 18.25 9.20617Z" fill="#75C182"/>
<path fill-rule="evenodd" clip-rule="evenodd" d="M17.1982 9.70825C17.4413 9.38888 17.6914 9.08343 17.9481 8.79264C14.5397 10.3072 11.689 12.8495 9.7897 16.0262C10.0974 15.8321 10.4148 15.6437 10.7416 15.4614C12.3746 13.0456 14.5952 11.0596 17.1982 9.70825Z" fill="#75C182"/>
<path fill-rule="evenodd" clip-rule="evenodd" d="M8.25586 19.3022C8.45287 19.2374 8.6533 19.1736 8.85705 19.111C9.21316 18.1605 9.64957 17.2492 10.158 16.3855C9.84674 16.5791 9.54618 16.7783 9.25673 16.9826C8.87116 17.727 8.53603 18.5017 8.25586 19.3022Z" fill="#75C182"/>
<path fill-rule="evenodd" clip-rule="evenodd" d="M7.42321 22.7429C7.5919 22.7317 7.76185 22.7207 7.93302 22.7098C8.08355 21.6746 8.32472 20.6687 8.64821 19.7005C8.56467 19.7273 8.48175 19.7542 8.39945 19.7814C8.28493 19.8191 8.17169 19.8573 8.05974 19.8957C7.77362 20.8153 7.55926 21.7666 7.42321 22.7429Z" fill="#75C182"/>
<path fill-rule="evenodd" clip-rule="evenodd" d="M7.33399 27.0001C7.50132 27.0113 7.66992 27.0223 7.83974 27.0332C7.7804 26.4469 7.75 25.852 7.75 25.25C7.75 24.5617 7.78974 23.8826 7.86705 23.215C7.69681 23.2259 7.52781 23.237 7.36006 23.2482C7.28734 23.9054 7.25 24.5734 7.25 25.25C7.25 25.8404 7.27843 26.4242 7.33399 27.0001Z" fill="#75C182"/>
<path fill-rule="evenodd" clip-rule="evenodd" d="M7.82264 29.7716C8.00903 29.8375 8.19915 29.9025 8.39293 29.9665C8.17279 29.178 8.00649 28.3671 7.89822 27.538C7.72754 27.5271 7.55808 27.5161 7.38988 27.5049C7.48633 28.2767 7.63165 29.0333 7.82264 29.7716Z" fill="#75C182"/>
<path fill-rule="evenodd" clip-rule="evenodd" d="M9.0604 33.1268C9.34099 33.3307 9.63247 33.5297 9.93449 33.7233C9.37884 32.7211 8.9187 31.6587 8.56637 30.5482C8.36922 30.4856 8.17533 30.4218 7.98478 30.357C8.26802 31.3161 8.62899 32.2418 9.0604 33.1268Z" fill="#75C182"/>
<path fill-rule="evenodd" clip-rule="evenodd" d="M23.0649 42.6149C23.0773 42.7858 23.0899 42.9552 23.1027 43.1232C22.166 43.0119 21.2514 42.8286 20.3646 42.5791C20.3065 42.3918 20.2493 42.2015 20.1932 42.0083C21.1204 42.2877 22.0799 42.4922 23.0649 42.6149Z" fill="#75C182"/>
<path fill-rule="evenodd" clip-rule="evenodd" d="M25.25 43.25C24.6965 43.25 24.1489 43.225 23.6082 43.1761C23.5954 43.009 23.5827 42.8404 23.5703 42.6704C24.1231 42.7231 24.6834 42.75 25.25 42.75C25.9028 42.75 26.5473 42.7143 27.1816 42.6446C27.1691 42.815 27.1565 42.984 27.1437 43.1516C26.5214 43.2166 25.8896 43.25 25.25 43.25Z" fill="#75C182"/>
<path fill-rule="evenodd" clip-rule="evenodd" d="M19.7894 42.4068C19.7323 42.2157 19.6761 42.0217 19.621 41.825C18.1565 41.3278 16.779 40.6419 15.5177 39.7964C15.6605 40.0945 15.808 40.386 15.96 40.6706C17.1531 41.3909 18.4366 41.9766 19.7894 42.4068Z" fill="#75C182"/>
<path fill-rule="evenodd" clip-rule="evenodd" d="M14.7028 39.2157C14.839 39.5285 14.9802 39.8351 15.126 40.1352C12.8359 38.5746 10.9246 36.4993 9.55854 34.0757C9.85632 34.2694 10.1637 34.4577 10.4801 34.6402C11.605 36.4059 13.0378 37.9563 14.7028 39.2157Z" fill="#75C182"/>
<path d="M43.25 25V25.5L7.25 25.5V25L43.25 25Z" fill="#C2E4CC"/>
<path d="M43.25 25V25.5L7.25 25.5V25L43.25 25Z" fill="#C2E4CC"/>
<path d="M25 7.25H25.5V43.25H25V7.25Z" fill="#C2E4CC"/>
<path d="M25 7.25H25.5V43.25H25V7.25Z" fill="#C2E4CC"/>
<path fill-rule="evenodd" clip-rule="evenodd" d="M25.25 42.5C34.7769 42.5 42.5 34.7769 42.5 25.25C42.5 15.7231 34.7769 8 25.25 8C15.7231 8 8 15.7231 8 25.25C8 34.7769 15.7231 42.5 25.25 42.5ZM25.25 43.25C35.1911 43.25 43.25 35.1911 43.25 25.25C43.25 15.3089 35.1911 7.25 25.25 7.25C15.3089 7.25 7.25 15.3089 7.25 25.25C7.25 35.1911 15.3089 43.25 25.25 43.25Z" fill="#C2E4CC"/>
<path fill-rule="evenodd" clip-rule="evenodd" d="M14.6657 12.5609C14.6026 12.1995 14.1116 12.1344 13.9565 12.4669L7.75 26.1476V24.1476L13.2768 12.1497C13.7423 11.1523 15.2152 11.3477 15.4045 12.4319L16.0132 15.9179C16.0351 16.0433 16.2154 16.0631 16.2557 15.9334L17.1634 13.0087C17.4925 11.948 18.9963 11.9551 19.3154 13.0188L19.7399 14.4339C19.7727 14.5431 19.9225 14.5551 19.9721 14.4525L20.484 13.3945C20.9237 12.486 22.2448 12.5712 22.564 13.5288L22.6745 13.8604C22.7005 13.9382 22.8046 13.9521 22.8501 13.8839C23.2877 13.2275 24.3058 13.4712 24.3988 14.2546L27.3041 38.7421C27.3524 39.1494 27.9258 39.1946 28.0373 38.7999L28.9684 35.5054C29.3732 34.073 31.4482 34.2154 31.6534 35.6897L31.8219 36.8993C31.8791 37.31 32.462 37.3378 32.5581 36.9344L33.0209 34.9907C33.2346 34.093 34.5125 34.0947 34.7238 34.9929L34.8563 35.5558C34.9305 35.8712 35.3427 35.9504 35.5285 35.685L35.8981 35.1571C36.2513 34.6525 37.0013 34.661 37.3429 35.1735L37.44 35.319C37.603 35.5635 37.9711 35.5341 38.0931 35.2667L42.7838 24.9918L42.625 26.8976L38.7754 35.5782C38.4093 36.3801 37.3049 36.4685 36.8159 35.735L36.7189 35.5895C36.6701 35.5163 36.563 35.5151 36.5125 35.5872L36.1429 36.1151C35.5856 36.9113 34.3488 36.6737 34.1262 35.7276L33.9938 35.1647C33.9625 35.0318 33.7801 35.04 33.7505 35.1644L33.2877 37.1082C32.9996 38.3183 31.2506 38.2349 31.079 37.0027L30.9106 35.7931C30.8173 35.123 29.8741 35.0583 29.6901 35.7093L28.7591 39.0039C28.4244 40.188 26.7043 40.0524 26.5593 38.8305L23.654 14.343C23.6429 14.2498 23.5235 14.2258 23.4741 14.2999C23.0824 14.8875 22.1863 14.7675 21.963 14.0976L21.8525 13.7659C21.7461 13.4468 21.3057 13.4183 21.1592 13.7212L20.6473 14.7791C20.2997 15.4974 19.2508 15.4137 19.0215 14.6494L18.597 13.2344C18.4906 12.8798 17.9894 12.8774 17.8797 13.231L16.972 16.1557C16.6997 17.033 15.4323 16.9517 15.2743 16.0469L14.6657 12.5609Z" fill="white"/>
</svg>
