<svg width="50" height="50" viewBox="0 0 50 50" fill="none" xmlns="http://www.w3.org/2000/svg">
<path d="M25.0979 44L6.09814 24.9997L25.0979 6L44.0981 24.9997L25.0979 44ZM25.0979 30.3539L26.1473 30.2489L27.1972 29.9345L28.1422 29.4095L28.8766 28.7801L29.506 28.0457L30.031 27.1007L30.3454 26.0513L30.4504 25.0014L30.3454 23.952L30.031 22.9026L29.506 21.9565L28.8766 21.2221L28.1422 20.5927L27.1972 20.0677L26.1473 19.7533L25.0979 19.6483L24.0485 19.7533L22.9985 20.0677L22.0536 20.5927L21.3186 21.2221L20.6892 21.9565L20.1642 22.9026L19.8498 23.952L19.7448 25.0014L19.8498 26.0513L20.1642 27.1007L20.6892 28.0457L21.3186 28.7801L22.0536 29.4095L22.9985 29.9345L24.0485 30.2489L25.0979 30.3539Z" fill="#F77619"/>
</svg>
