<svg width="50" height="50" viewBox="0 0 50 50" fill="none" xmlns="http://www.w3.org/2000/svg">
<path d="M31.5774 24.9994C31.5773 23.6458 31.1806 22.3227 30.4374 21.1974C29.6943 20.072 28.6381 19.1949 27.4024 18.677C26.1666 18.1591 24.8069 18.0237 23.4951 18.2878C22.1834 18.5519 20.9784 19.2038 20.0327 20.1609C19.087 21.118 18.443 22.3375 18.1821 23.665C17.9212 24.9925 18.0551 26.3685 18.567 27.619C19.0789 28.8695 19.9457 29.9383 21.0577 30.6903C22.1698 31.4422 23.4773 31.8436 24.8148 31.8436C25.7029 31.8436 26.5824 31.6666 27.4029 31.3226C28.2234 30.9786 28.9689 30.4745 29.5969 29.8389C30.2249 29.2034 30.723 28.4489 31.0628 27.6185C31.4026 26.7881 31.5775 25.8981 31.5774 24.9994Z" fill="#FC2E06"/>
<path d="M32.5041 31.8436V18.1562C34.2056 18.2514 35.807 19.0139 36.9787 20.2866C38.1505 21.5594 38.8035 23.2458 38.8035 24.9988C38.8035 26.7518 38.1505 28.4382 36.9787 29.711C35.807 30.9838 34.2056 31.7462 32.5041 31.8414V31.8436Z" fill="#FC2E06"/>
<path d="M39.9151 30.8931V19.1068C40.9336 19.7231 41.7753 20.5888 42.3593 21.6208C42.9433 22.6528 43.25 23.8165 43.25 24.9999C43.25 26.1834 42.9433 27.347 42.3593 28.379C41.7753 29.411 40.9336 30.2768 39.9151 30.8931Z" fill="#FC2E06"/>
<path d="M17.3112 31.8436V18.1562C15.6114 18.2462 14.01 19.0065 12.8377 20.28C11.6654 21.5536 11.0117 23.2432 11.0117 24.9999C11.0117 26.7566 11.6654 28.4462 12.8377 29.7198C14.01 30.9934 15.6114 31.7537 17.3112 31.8436Z" fill="#FC2E06"/>
<path d="M9.9002 30.8931V19.1068C8.93825 19.7231 8.14333 20.5888 7.59176 21.6208C7.04018 22.6528 6.75049 23.8165 6.75049 24.9999C6.75049 26.1834 7.04018 27.347 7.59176 28.379C8.14333 29.411 8.93825 30.2768 9.9002 30.8931Z" fill="#FC2E06"/>
</svg>
