<svg width="50" height="50" viewBox="0 0 50 50" fill="none" xmlns="http://www.w3.org/2000/svg">
<path d="M15.4078 22.7231L9.94984 18.6285C9.79813 18.4767 9.72227 18.3249 9.72227 18.249C9.71866 18.09 9.80896 17.9418 9.94984 17.8695L15.4078 13.7713C15.7871 13.4677 16.5457 13.4677 17.0008 13.7713L22.4588 17.8695C22.6105 18.0213 22.6864 18.1731 22.6864 18.249C22.69 18.408 22.5997 18.5562 22.4588 18.6285L17.0008 22.7231C16.5457 23.0267 15.7907 23.0267 15.4078 22.7231Z" fill="#95C840"/>
<path d="M15.4078 35.9251L9.94984 31.8268C9.79813 31.675 9.72227 31.5232 9.72227 31.4473C9.71866 31.2883 9.80896 31.1401 9.94984 31.0679L15.4078 26.9696C15.7871 26.666 16.5457 26.666 17.0008 26.9696L22.4588 31.0679C22.6105 31.2197 22.6864 31.3714 22.6864 31.4473C22.69 31.6064 22.5997 31.7545 22.4588 31.8268L17.0008 35.9251C16.5457 36.3046 15.7871 36.3046 15.4078 35.9251Z" fill="#59C9E6"/>
<path d="M24.2073 16.1998L18.7457 12.1015C18.5939 11.9497 18.5181 11.7979 18.5181 11.6462C18.5145 11.4871 18.6048 11.339 18.7457 11.2667L24.2073 7.17202C24.6624 6.86844 25.3451 6.86844 25.8002 7.17202L31.2582 11.2667C31.4099 11.4185 31.4858 11.5703 31.4858 11.6462C31.4858 11.7979 31.4099 11.9497 31.2582 12.1015L25.8002 16.1998C25.3451 16.5034 24.6624 16.5034 24.2073 16.1998Z" fill="#EBE719"/>
<path d="M24.2073 29.3982L18.7457 25.3035C18.594 25.1518 18.5181 25 18.5181 24.9241C18.5145 24.7651 18.6048 24.6169 18.7457 24.5446L24.2073 20.4499C24.6624 20.1464 25.3451 20.1464 25.8003 20.4499L31.2582 24.5482C31.41 24.7 31.4858 24.8518 31.4858 24.9277C31.4894 25.0867 31.3991 25.2349 31.2582 25.3072L25.8003 29.3982C25.3451 29.7018 24.6624 29.7018 24.2073 29.3982Z" fill="#50C0AF"/>
<path d="M24.2073 42.8278L18.7457 38.7331C18.594 38.5813 18.5181 38.4296 18.5181 38.2778C18.5145 38.1188 18.6048 37.9706 18.7457 37.8983L24.2073 33.8C24.6624 33.4964 25.3451 33.4964 25.8002 33.8L31.2582 37.8983C31.4099 38.0501 31.4858 38.2019 31.4858 38.2778C31.4858 38.4296 31.4099 38.5813 31.2582 38.7331L25.8002 42.8278C25.3451 43.1314 24.6624 43.1314 24.2073 42.8278Z" fill="#0377BB"/>
<path d="M33.0028 22.7231L27.5412 18.6285C27.3895 18.4767 27.3136 18.3249 27.3136 18.249C27.31 18.09 27.4003 17.9418 27.5412 17.8695L32.9992 13.7713C33.3785 13.4677 34.137 13.4677 34.5921 13.7713L40.0501 17.8695C40.2019 18.0213 40.2777 18.1731 40.2777 18.249C40.2813 18.408 40.191 18.5562 40.0501 18.6285L34.5958 22.7231C34.2165 23.0267 33.4579 23.0267 33.0028 22.7231Z" fill="#78BC43"/>
<path d="M33.0028 35.9251L27.5412 31.8268C27.3895 31.675 27.3136 31.5232 27.3136 31.4473C27.31 31.2883 27.4003 31.1401 27.5412 31.0679L32.9992 26.9696C33.3785 26.666 34.137 26.666 34.5921 26.9696L40.0501 31.0679C40.2019 31.2197 40.2777 31.3714 40.2777 31.4473C40.2813 31.6064 40.191 31.7545 40.0501 31.8268L34.5958 35.9251C34.2165 36.3046 33.4579 36.3046 33.0028 35.9251Z" fill="#109FDA"/>
</svg>
