<svg width="50" height="50" viewBox="0 0 50 50" fill="none" xmlns="http://www.w3.org/2000/svg">
<path d="M17.9237 18.3607L13.994 15.4126C13.8848 15.3033 13.8302 15.194 13.8302 15.1394C13.8276 15.0249 13.8926 14.9182 13.994 14.8661L17.9237 11.9154C18.1968 11.6968 18.743 11.6968 19.0707 11.9154L23.0004 14.8661C23.1097 14.9754 23.1643 15.0847 23.1643 15.1394C23.1669 15.2539 23.1018 15.3605 23.0004 15.4126L19.0707 18.3607C18.743 18.5793 18.1994 18.5793 17.9237 18.3607Z" fill="#95C840"/>
<path d="M17.9237 27.8661L13.994 24.9154C13.8848 24.8061 13.8302 24.6968 13.8302 24.6421C13.8276 24.5277 13.8926 24.421 13.994 24.3689L17.9237 21.4182C18.1968 21.1996 18.743 21.1996 19.0707 21.4182L23.0004 24.3689C23.1097 24.4782 23.1643 24.5875 23.1643 24.6421C23.1669 24.7566 23.1018 24.8633 23.0004 24.9154L19.0707 27.8661C18.743 28.1393 18.1968 28.1393 17.9237 27.8661Z" fill="#59C9E6"/>
<path d="M24.2593 13.6639L20.327 10.7132C20.2177 10.6039 20.1631 10.4946 20.1631 10.3853C20.1605 10.2708 20.2255 10.1641 20.327 10.1121L24.2593 7.16393C24.587 6.94536 25.0785 6.94536 25.4062 7.16393L29.336 10.1121C29.4452 10.2214 29.4998 10.3307 29.4998 10.3853C29.4998 10.4946 29.4452 10.6039 29.336 10.7132L25.4062 13.6639C25.0785 13.8825 24.587 13.8825 24.2593 13.6639Z" fill="#EBE719"/>
<path d="M24.2593 23.1668L20.327 20.2186C20.2178 20.1093 20.1631 20 20.1631 19.9454C20.1605 19.8309 20.2256 19.7242 20.327 19.6722L24.2593 16.724C24.587 16.5054 25.0786 16.5054 25.4063 16.724L29.336 19.6748C29.4452 19.7841 29.4999 19.8934 29.4999 19.948C29.5025 20.0625 29.4374 20.1692 29.336 20.2212L25.4063 23.1668C25.0786 23.3853 24.587 23.3853 24.2593 23.1668Z" fill="#50C0AF"/>
<path d="M24.2593 32.8361L20.327 29.8879C20.2178 29.7786 20.1631 29.6693 20.1631 29.56C20.1605 29.4456 20.2256 29.3389 20.327 29.2868L24.2593 26.3361C24.587 26.1175 25.0786 26.1175 25.4063 26.3361L29.336 29.2868C29.4452 29.3961 29.4998 29.5054 29.4998 29.56C29.4998 29.6693 29.4452 29.7786 29.336 29.8879L25.4063 32.8361C25.0786 33.0546 24.587 33.0546 24.2593 32.8361Z" fill="#0377BB"/>
<path d="M30.5921 18.3607L26.6597 15.4126C26.5505 15.3033 26.4959 15.194 26.4959 15.1394C26.4933 15.0249 26.5583 14.9182 26.6597 14.8661L30.5895 11.9154C30.8626 11.6968 31.4087 11.6968 31.7364 11.9154L35.6662 14.8661C35.7754 14.9754 35.83 15.0847 35.83 15.1394C35.8326 15.2539 35.7676 15.3605 35.6662 15.4126L31.739 18.3607C31.4659 18.5793 30.9198 18.5793 30.5921 18.3607Z" fill="#78BC43"/>
<path d="M30.5921 27.8661L26.6597 24.9154C26.5505 24.8061 26.4959 24.6968 26.4959 24.6421C26.4933 24.5277 26.5583 24.421 26.6597 24.3689L30.5895 21.4182C30.8626 21.1996 31.4087 21.1996 31.7364 21.4182L35.6662 24.3689C35.7754 24.4782 35.83 24.5875 35.83 24.6421C35.8326 24.7566 35.7676 24.8633 35.6662 24.9154L31.739 27.8661C31.4659 28.1393 30.9198 28.1393 30.5921 27.8661Z" fill="#109FDA"/>
<path d="M25.1816 36L27.3452 41.6283L29.5043 36H30.6292V42.9038H29.7583L29.8423 37.3235L27.6718 42.9038H27.0096L24.8434 37.3157L24.9276 42.9038H24.0567V36H25.1816Z" fill="#7F8BA5"/>
<path fill-rule="evenodd" clip-rule="evenodd" d="M34.3532 36H32.1669V42.9038H33.0423V40.1063H34.5915L36.0269 42.9038H36.9613V42.8469L35.41 39.9152C36.2076 39.597 36.6665 38.9151 36.6665 38.0721C36.6665 36.7262 35.8468 36 34.3532 36ZM33.0423 39.3618H34.3804C35.3276 39.3618 35.7956 38.7819 35.7956 38.0721C35.7956 37.277 35.3641 36.7492 34.3532 36.7492H33.0423V39.3618Z" fill="#7F8BA5"/>
<path d="M38.8301 42.9038V36H37.9547V42.9038H38.8301Z" fill="#7F8BA5"/>
<path d="M22.9454 38.4467V37.7734H22.0292V36.5263H21.19V37.7734H20.2919V38.4467H21.19V41.6283C21.19 42.6871 21.9726 43.2349 22.9681 42.9038L22.9636 42.1878C22.4781 42.305 22.0292 42.217 22.0292 41.6331V38.4467H22.9454Z" fill="#7F8BA5"/>
<path fill-rule="evenodd" clip-rule="evenodd" d="M18.0013 42.9987C16.5755 42.9987 15.747 41.7518 15.747 40.3196C15.747 38.6399 16.7941 37.6785 17.8924 37.6785C19.5237 37.6785 19.9109 39.1716 19.9109 40.5852H16.5914C16.6124 41.4549 17.1401 42.2827 18.0467 42.2827C18.6394 42.2827 19.031 42.0092 19.3394 41.5857L19.8474 42.0077C19.5311 42.5084 18.9792 42.9987 18.0013 42.9987ZM16.616 39.8692H19.0718C19.0718 39.1062 18.6681 38.3993 17.8924 38.3993C17.2323 38.3993 16.7304 38.9185 16.616 39.8692Z" fill="#7F8BA5"/>
<path d="M11.6503 38.4117C12.0044 37.9451 12.5121 37.6785 13.1162 37.6785C14.2044 37.6785 14.6901 38.511 14.6901 39.542V42.9038H13.8464V39.5325C13.8464 38.7157 13.495 38.4182 12.8667 38.4182C12.333 38.4182 11.9072 38.7477 11.6692 39.2425V42.9038H10.8301V37.7734H11.6239L11.6503 38.4117Z" fill="#7F8BA5"/>
</svg>
