<svg width="50" height="50" viewBox="0 0 50 50" fill="none" xmlns="http://www.w3.org/2000/svg">
<rect width="50" height="50" fill="#101820"/>
<path fill-rule="evenodd" clip-rule="evenodd" d="M25 41.7727C34.2633 41.7727 41.7727 34.2633 41.7727 25C41.7727 15.7367 34.2633 8.22727 25 8.22727C15.7367 8.22727 8.22727 15.7367 8.22727 25C8.22727 34.2633 15.7367 41.7727 25 41.7727ZM25 43C34.9411 43 43 34.9411 43 25C43 15.0589 34.9411 7 25 7C15.0589 7 7 15.0589 7 25C7 34.9411 15.0589 43 25 43Z" fill="white"/>
<path d="M20.979 16.7317L18.3935 19.2633C18.2406 19.4131 17.9926 19.4131 17.8397 19.2633L15.2542 16.7317C15.1012 16.5819 15.1012 16.3391 15.2542 16.1894L17.8397 13.6578C17.9926 13.508 18.2406 13.508 18.3935 13.6578L20.979 16.1894C21.132 16.3391 21.132 16.5819 20.979 16.7317Z" fill="#00BD4D"/>
<path d="M30.4276 19.7983C28.5067 19.7983 26.9105 20.6126 25.9058 21.95V14.6586C25.9058 14.4468 25.7305 14.2752 25.5141 14.2752H22.1364C21.9202 14.2752 21.7449 14.4468 21.7449 14.6586V34.1431C21.7449 34.3548 21.9201 34.5265 22.1364 34.5265H25.5141C25.7305 34.5265 25.9058 34.3549 25.9058 34.1431V32.7072C26.9105 34.0446 28.5067 34.8182 30.4573 34.8182C34.5655 34.8182 37.3617 31.5735 37.3617 27.3286C37.3617 23.0837 34.5656 19.7983 30.4276 19.7983ZM29.6001 30.992C27.4722 30.992 25.9058 29.3056 25.9058 27.3286C25.9058 25.3517 27.4722 23.6941 29.6001 23.6941C31.6986 23.6941 33.2354 25.3517 33.2354 27.3286C33.2354 29.3056 31.6986 30.992 29.6001 30.992Z" fill="white"/>
<path d="M18.133 34.4152H14.7553C14.539 34.4152 14.3636 34.2435 14.3636 34.0317V23.7613C14.3636 23.5549 14.4486 23.3572 14.5993 23.2129L17.8592 20.0921C18.1071 19.8547 18.5246 20.0267 18.5246 20.3663V34.0317C18.5246 34.2435 18.3493 34.4152 18.133 34.4152Z" fill="white"/>
</svg>
