<svg width="50" height="50" viewBox="0 0 50 50" fill="none" xmlns="http://www.w3.org/2000/svg">
<path d="M17.4658 18.2346L13.1788 15.0597C13.0597 14.942 13.0001 14.8243 13.0001 14.7655C12.9972 14.6422 13.0682 14.5273 13.1788 14.4712L17.4658 11.2935C17.7637 11.0581 18.3595 11.0581 18.717 11.2935L23.004 14.4712C23.1232 14.5889 23.1828 14.7066 23.1828 14.7655C23.1856 14.8888 23.1147 15.0037 23.004 15.0597L18.717 18.2346C18.3595 18.47 17.7666 18.47 17.4658 18.2346Z" fill="#95C840"/>
<path d="M17.4658 28.4712L13.1788 25.2935C13.0597 25.1758 13.0001 25.0581 13.0001 24.9992C12.9972 24.8759 13.0682 24.761 13.1788 24.705L17.4658 21.5273C17.7637 21.2919 18.3595 21.2919 18.717 21.5273L23.004 24.705C23.1232 24.8227 23.1828 24.9404 23.1828 24.9992C23.1856 25.1225 23.1147 25.2374 23.004 25.2935L18.717 28.4712C18.3595 28.7654 17.7637 28.7654 17.4658 28.4712Z" fill="#59C9E6"/>
<path d="M24.3773 13.1765L20.0875 9.9988C19.9684 9.8811 19.9088 9.76341 19.9088 9.64571C19.9059 9.52242 19.9769 9.40752 20.0875 9.35148L24.3773 6.17654C24.7348 5.94115 25.2711 5.94115 25.6285 6.17654L29.9155 9.35148C30.0347 9.46917 30.0943 9.58687 30.0943 9.64571C30.0943 9.76341 30.0347 9.8811 29.9155 9.9988L25.6285 13.1765C25.2711 13.4119 24.7348 13.4119 24.3773 13.1765Z" fill="#EBE719"/>
<path d="M24.3774 23.4104L20.0875 20.2354C19.9684 20.1177 19.9088 20 19.9088 19.9412C19.906 19.8179 19.9769 19.703 20.0875 19.647L24.3774 16.472C24.7349 16.2366 25.2711 16.2366 25.6286 16.472L29.9156 19.6498C30.0347 19.7675 30.0943 19.8852 30.0943 19.944C30.0971 20.0673 30.0262 20.1822 29.9156 20.2382L25.6286 23.4104C25.2711 23.6458 24.7349 23.6458 24.3774 23.4104Z" fill="#50C0AF"/>
<path d="M24.3774 33.8235L20.0875 30.6485C19.9684 30.5308 19.9088 30.4131 19.9088 30.2954C19.906 30.1721 19.9769 30.0572 20.0875 30.0012L24.3774 26.8235C24.7349 26.5881 25.2711 26.5881 25.6286 26.8235L29.9156 30.0012C30.0347 30.1189 30.0943 30.2366 30.0943 30.2954C30.0943 30.4131 30.0347 30.5308 29.9156 30.6485L25.6286 33.8235C25.2711 34.0588 24.7349 34.0588 24.3774 33.8235Z" fill="#0377BB"/>
<path d="M31.2858 18.2346L26.996 15.0597C26.8768 14.942 26.8172 14.8243 26.8172 14.7655C26.8144 14.6422 26.8853 14.5273 26.996 14.4712L31.283 11.2935C31.5809 11.0581 32.1767 11.0581 32.5342 11.2935L36.8212 14.4712C36.9403 14.5889 36.9999 14.7066 36.9999 14.7655C37.0028 14.8888 36.9318 15.0037 36.8212 15.0597L32.537 18.2346C32.2391 18.47 31.6433 18.47 31.2858 18.2346Z" fill="#78BC43"/>
<path d="M31.2858 28.4712L26.996 25.2935C26.8768 25.1758 26.8172 25.0581 26.8172 24.9992C26.8144 24.8759 26.8853 24.761 26.996 24.705L31.283 21.5273C31.5809 21.2919 32.1767 21.2919 32.5342 21.5273L36.8212 24.705C36.9403 24.8227 36.9999 24.9404 36.9999 24.9992C37.0028 25.1225 36.9318 25.2374 36.8212 25.2935L32.537 28.4712C32.2391 28.7654 31.6433 28.7654 31.2858 28.4712Z" fill="#109FDA"/>
<path d="M25.1377 37.8906L27.4668 43.6865L29.791 37.8906H31.002V45H30.0645L30.1549 39.2535L27.8184 45H27.1055L24.7736 39.2455L24.8643 45H23.9268V37.8906H25.1377Z" fill="#1C1D1F"/>
<path fill-rule="evenodd" clip-rule="evenodd" d="M35.0107 37.8906H32.6572V45H33.5996V42.1191H35.2673L36.8125 45H37.8184V44.9414L36.1484 41.9224C37.007 41.5947 37.501 40.8925 37.501 40.0244C37.501 38.6384 36.6186 37.8906 35.0107 37.8906ZM33.5996 41.3525H35.04C36.0597 41.3525 36.5635 40.7554 36.5635 40.0244C36.5635 39.2057 36.099 38.6621 35.0107 38.6621H33.5996V41.3525Z" fill="#1C1D1F"/>
<path d="M39.8301 45V37.8906H38.8877V45H39.8301Z" fill="#1C1D1F"/>
<path d="M22.7305 40.4102V39.7168H21.7441V38.4326H20.8408V39.7168H19.874V40.4102H20.8408V43.6865C20.8408 44.7769 21.6833 45.341 22.7549 45L22.75 44.2627C22.2274 44.3833 21.7441 44.2927 21.7441 43.6914V40.4102H22.7305Z" fill="#1C1D1F"/>
<path fill-rule="evenodd" clip-rule="evenodd" d="M17.4082 45.0977C15.8733 45.0977 14.9814 43.8137 14.9814 42.3389C14.9814 40.6092 16.1086 39.6191 17.291 39.6191C19.047 39.6191 19.4639 41.1566 19.4639 42.6123H15.8905C15.9131 43.508 16.4811 44.3604 17.457 44.3604C18.0951 44.3604 18.5166 44.0788 18.8486 43.6426L19.3955 44.0771C19.055 44.5928 18.4609 45.0977 17.4082 45.0977ZM15.9169 41.875H18.5605C18.5605 41.0893 18.126 40.3613 17.291 40.3613C16.5803 40.3613 16.0401 40.896 15.9169 41.875Z" fill="#1C1D1F"/>
<path d="M10.5714 40.3741C10.9526 39.8936 11.4992 39.6191 12.1494 39.6191C13.3209 39.6191 13.8438 40.4763 13.8438 41.5381V45H12.9355V41.5283C12.9355 40.6872 12.5572 40.3809 11.8809 40.3809C11.3064 40.3809 10.848 40.7201 10.5918 41.2297V45H9.68848V39.7168H10.543L10.5714 40.3741Z" fill="#1C1D1F"/>
</svg>
