<svg width="50" height="50" viewBox="0 0 50 50" fill="none" xmlns="http://www.w3.org/2000/svg">
<rect width="50" height="50" fill="#C42121"/>
<path d="M23.3194 17.73C23.2294 17.7584 23.0685 17.7962 22.9643 17.8199C22.0412 18.014 21.2932 18.7288 21.0281 19.6662C20.8624 20.2626 20.853 20.594 20.8672 26.3647L20.8814 32.0455H23.5797L23.6034 28.6749C23.6223 26.27 23.6413 25.2901 23.6791 25.2522C23.717 25.2144 24.0294 25.2002 24.6496 25.2002C25.1656 25.2049 25.6011 25.186 25.639 25.1576C25.6958 25.1197 25.7147 24.9445 25.7242 24.1445C25.7337 23.5054 25.7195 23.1409 25.6863 23.0746C25.639 22.9847 25.5917 22.9799 24.6685 22.9799C23.7596 22.9799 23.6981 22.9752 23.6507 22.89C23.6223 22.8332 23.6034 22.4403 23.6034 21.9479C23.6034 21.2189 23.6176 21.0485 23.7028 20.7786C23.8212 20.3952 24.0342 20.1727 24.4082 20.0401C24.7206 19.9313 25.2271 19.9218 25.4638 20.0212C25.5585 20.0591 25.7005 20.0922 25.7763 20.0922C25.9609 20.0922 25.9609 20.0969 25.9893 19.0034C26.0035 18.5205 26.0272 18.0708 26.0461 17.9998C26.0698 17.8862 26.0556 17.8625 25.8946 17.7915C25.7384 17.7205 25.5443 17.7063 24.5975 17.6968C23.9632 17.6874 23.414 17.7063 23.3194 17.73ZM8.65826 18.2128C8.58725 18.2744 8.218 18.5347 7.83929 18.7904C7.46057 19.046 6.93983 19.4058 6.67947 19.5809C6.4191 19.7608 6.19187 19.9407 6.17293 19.9881C6.13506 20.0875 6.12559 21.1668 6.16346 21.3136L6.19187 21.4177L7.55052 21.4083L8.90443 21.3941L8.91863 19.7466C8.93283 17.9477 8.93757 17.9856 8.65826 18.2128ZM15.2243 22.7764C14.3154 22.9563 13.8325 23.1504 13.5058 23.4581C13.236 23.7184 13.1934 23.7042 13.1792 23.3208L13.165 23.0036H10.5613V32.0455L11.8963 32.0597L13.236 32.0691L13.2597 31.965C13.2691 31.9035 13.2881 30.6726 13.2976 29.2288C13.3165 26.4073 13.307 26.4973 13.5627 25.9718C13.6715 25.7493 13.9698 25.4605 14.2254 25.3374C14.41 25.2475 14.5236 25.2333 14.9639 25.2286C15.4231 25.2286 15.513 25.2428 15.6977 25.3422C16.0575 25.5268 16.2563 25.8156 16.3983 26.341C16.4551 26.5493 16.474 27.1222 16.4977 29.3234L16.5261 32.0455H19.2718L19.286 29.2761C19.305 26.2842 19.286 25.9481 19.0635 24.9114C19.0351 24.7883 18.9972 24.651 18.9736 24.6037C18.9499 24.5563 18.8789 24.4096 18.8221 24.2818C18.3724 23.3018 17.4256 22.7953 15.9817 22.7622C15.6314 22.7574 15.2905 22.7622 15.2243 22.7764ZM30.586 22.7716C30.5339 22.7858 30.3635 22.8142 30.2073 22.8426C28.0297 23.2498 26.6805 24.5232 26.2355 26.6014C26.1739 26.8902 26.155 27.1411 26.1692 27.6429C26.1929 28.3909 26.2449 28.6891 26.4722 29.2998C27.1775 31.1981 28.9338 32.3058 31.2345 32.3058C31.5896 32.3058 31.992 32.2822 32.134 32.2538C33.4074 31.9981 34.2596 31.5815 34.9602 30.8715C35.5756 30.2466 35.9164 29.6122 36.1531 28.6465C36.281 28.1163 36.281 26.8855 36.1484 26.4121C35.9401 25.6546 35.7981 25.3185 35.4667 24.8072C34.7992 23.7847 33.6252 23.0935 32.1009 22.819C31.7174 22.748 30.8322 22.7243 30.586 22.7716ZM32.2003 25.3753C32.5553 25.5221 33.024 25.915 33.1707 26.2038C33.4169 26.6914 33.4595 26.8902 33.4595 27.5482C33.4595 28.2536 33.398 28.4997 33.1045 28.9589C32.9009 29.2714 32.6784 29.4655 32.3328 29.6312C31.9825 29.8016 31.6795 29.8631 31.2251 29.8631C30.6049 29.8584 30.2641 29.7684 29.8664 29.5033C29.2321 29.0773 28.9528 28.4761 28.9528 27.5435C28.9528 26.5067 29.2984 25.8677 30.0842 25.4463C30.4345 25.2617 30.7801 25.2049 31.4002 25.2286C31.779 25.2475 31.9494 25.2759 32.2003 25.3753ZM42.3026 22.819C41.441 22.9894 40.8398 23.2261 40.4894 23.5433C40.3853 23.638 40.2906 23.6853 40.267 23.6616C40.2433 23.638 40.2196 23.4817 40.2101 23.3113L40.1959 23.0036L38.8657 22.9894C37.7816 22.9799 37.526 22.9894 37.4786 23.0415C37.4408 23.0935 37.4313 24.2865 37.436 27.5766L37.4502 32.0455H40.1959L40.2243 29.7732C40.2528 27.5198 40.2859 26.9801 40.4374 26.5399C40.4705 26.431 40.5037 26.3174 40.5037 26.2937C40.5037 26.2085 40.8019 25.754 40.9723 25.5694C41.1759 25.3516 41.4599 25.2002 41.8812 25.0865C42.1321 25.0203 42.3073 25.0108 42.7807 25.0345C43.1026 25.0487 43.4813 25.0723 43.6186 25.0913L43.8648 25.1197V23.9599C43.8648 22.9468 43.8553 22.7953 43.789 22.7716C43.6517 22.7196 42.6623 22.7527 42.3026 22.819ZM6.1824 23.0699C6.12559 23.1835 6.11612 31.9177 6.17293 32.0123C6.20607 32.0549 6.51378 32.0691 7.55998 32.0597L8.90443 32.0455L8.91863 27.5529C8.9281 23.9883 8.91863 23.0509 8.87129 23.0178C8.83815 22.9989 8.23221 22.9799 7.52211 22.9799C6.29602 22.9799 6.22974 22.9847 6.1824 23.0699Z" fill="white"/>
</svg>
