<svg width="50" height="50" viewBox="0 0 50 50" fill="none" xmlns="http://www.w3.org/2000/svg">
<path d="M15.9394 27.9107L9 25V17.0373L15.915 20.1373L15.9394 27.9107Z" fill="#0089FF"/>
<path d="M24.3369 31.628L17.3975 28.7173V20.7547L24.3124 23.8547L24.3369 31.628Z" fill="#0089FF"/>
<path d="M25.8934 31.4947L32.8329 28.584V20.6213L25.9179 23.7213L25.8934 31.4947Z" fill="#0089FF"/>
<path d="M25.8934 41L32.8329 38.0893V30.1267L25.9179 33.2267L25.8934 41Z" fill="#0089FF"/>
<path d="M34.0606 27.9107L41 25V17.0373L34.085 20.1373L34.0606 27.9107Z" fill="#0089FF"/>
<path d="M15.9394 37.2827L9 34.372V26.4093L15.915 29.5087L15.9394 37.2827Z" fill="#0089FF"/>
<path d="M24.3369 41L17.3975 38.0893V30.1267L24.3124 33.2267L24.3369 41Z" fill="#0089FF"/>
<path d="M16.5502 18.466L10.0538 15.56L16.4932 12.7127L23.0474 15.596L16.5502 18.466Z" fill="#0089FF"/>
<path d="M25 22.262L18.5028 19.356L24.9429 16.5087L31.4972 19.392L25 22.262Z" fill="#0089FF"/>
<path d="M33.3845 18.466L26.8881 15.56L33.3275 12.7127L39.8817 15.596L33.3845 18.466Z" fill="#0089FF"/>
<path d="M25 14.7533L18.5028 11.8473L24.9429 9L31.4972 11.8833L25 14.7533Z" fill="#0089FF"/>
</svg>
