<svg width="50" height="50" viewBox="0 0 50 50" fill="none" xmlns="http://www.w3.org/2000/svg">
<path d="M7.4473 15.5527C8.00553 14.8551 8.63356 14.2367 9.28815 13.6324C9.36612 13.5608 9.39972 13.6082 9.39972 13.7078C9.39998 13.9787 9.39825 14.2496 9.40092 14.5205C9.40171 14.6007 9.37786 14.6632 9.32334 14.724C7.26176 17.0214 6.04335 20.417 6.86949 23.4767C8.33455 28.9027 15.4347 29.8531 20.1951 29.6779C26.2815 29.4538 32.7428 28.3992 38.0802 25.2759C38.1899 25.2116 38.2324 25.2189 38.2326 25.3544C38.2336 26.2727 38.2088 27.1939 38.2344 28.1119C38.237 28.2084 38.201 28.2648 38.1152 28.311C32.3406 31.4216 25.4923 32.5949 18.9819 32.334C14.143 32.1396 8.01009 30.7847 5.79145 25.9221C4.22524 22.489 5.1472 18.4267 7.4473 15.5527Z" fill="#0071C5"/>
<path d="M39.1358 23.5837C39.0037 23.6348 38.9736 23.5969 38.9736 23.4705C38.9736 22.8445 38.9756 22.2183 38.9716 21.5922C38.9709 21.4831 39.0024 21.4151 39.0998 21.356C41.165 20.1053 42.7431 17.9518 42.9255 15.5079C43.3114 10.3357 37.6778 8.05129 33.3955 7.55587C30.3161 7.19992 27.1756 7.43478 24.1345 8.00252C20.5788 8.66641 17.1196 9.80956 13.887 11.4338C13.8296 11.4628 13.7197 11.5376 13.7176 11.4234C13.7137 11.2148 13.7159 11.006 13.716 10.7973C13.716 10.7295 13.7629 10.6958 13.8141 10.6659C16.7575 8.95087 19.8944 7.69183 23.2139 6.90809C26.5931 6.11029 30.1253 5.76529 33.5857 6.11116C37.8961 6.5428 43.3101 8.19951 44.6738 12.869C45.8893 17.0325 43.112 22.0469 39.1358 23.5837Z" fill="#0071C5"/>
<path d="M29.3168 20.2303C29.1166 20.2303 29.1029 20.2442 29.1245 20.4424C29.2151 21.27 29.7846 21.922 30.6352 22.0032C31.383 22.0743 32.0934 21.9147 32.6544 21.3898C32.8126 21.2418 32.7901 21.2277 32.9656 21.3966C33.3079 21.7258 33.6523 22.0527 33.9964 22.38C34.082 22.4614 34.0844 22.4743 33.9991 22.5599C33.3612 23.1996 32.6038 23.6041 31.7024 23.7243C29.1676 24.0622 27.2448 22.4973 27.0558 20.0257C26.9077 18.0925 27.7575 16.0442 29.7632 15.5145C32.7384 14.7289 34.3642 17.5046 34.3198 20.0921C34.3177 20.2143 34.3042 20.2259 34.1791 20.2299C32.561 20.2786 30.9357 20.2303 29.3168 20.2303ZM32.0383 18.8093C32.1907 18.8093 32.2465 18.7756 32.2316 18.6239C32.1345 17.6496 31.4339 16.9383 30.4334 17.1275C29.8364 17.2404 29.4193 17.5741 29.2216 18.1603C29.163 18.334 29.1313 18.5129 29.1222 18.6952C29.1155 18.8306 29.2327 18.8094 29.3339 18.8094C30.2354 18.8094 31.137 18.8093 32.0383 18.8093Z" fill="#0071C5"/>
<path d="M14.7255 15.7211C14.7255 15.5799 14.7968 15.5091 14.9393 15.5089C16.2802 15.5092 17.6212 15.5096 18.9621 15.5103C20.4042 15.5108 21.418 16.5728 21.4173 17.9772C21.417 19.793 21.4173 21.6086 21.4172 23.4244C21.4172 23.5708 21.344 23.644 21.1978 23.6441C20.6472 23.6441 20.0965 23.6441 19.5461 23.6441C19.3584 23.6441 19.3347 23.5771 19.3347 23.39C19.3347 21.6098 19.3344 19.8296 19.3349 18.0494C19.3349 17.5427 19.0544 17.1944 18.5404 17.1944C18.0164 17.194 17.4925 17.1937 16.9685 17.1944C16.815 17.1945 16.81 17.1994 16.8096 17.3507C16.8055 19.3751 16.8094 21.3995 16.8094 23.4239C16.8094 23.5708 16.7367 23.6443 16.5914 23.6443C16.0408 23.6443 15.4902 23.6443 14.9397 23.6443C14.7415 23.6443 14.7257 23.5677 14.7257 23.3927C14.7257 20.8356 14.7255 18.2783 14.7255 15.7211Z" fill="#0071C5"/>
<path d="M25.0112 21.1725C25.0112 21.6094 25.2661 21.9068 25.7317 21.9028C25.9582 21.9009 26.1847 21.9011 26.411 21.9031C26.5331 21.9041 26.5544 21.9219 26.5549 22.0403C26.5572 22.5286 26.5571 23.017 26.5549 23.5052C26.5544 23.6172 26.5325 23.6377 26.4199 23.6381C26.007 23.6398 25.5938 23.6498 25.1814 23.6351C24.1278 23.5979 23.2312 22.9632 22.9889 21.9076C22.9471 21.7255 22.9276 21.5408 22.9277 21.3531C22.9288 18.7297 22.9284 16.1063 22.9284 13.4828C22.9284 13.3374 22.9779 13.2971 23.1285 13.2971C23.6879 13.2971 24.2473 13.2971 24.8067 13.2971C24.9942 13.2971 25.0109 13.389 25.0109 13.55C25.0109 14.1315 25.0109 14.7129 25.0109 15.2945C25.0109 15.4531 25.0334 15.5085 25.2086 15.5085C25.5859 15.5085 25.9634 15.5085 26.3407 15.5087C26.5064 15.5087 26.5563 15.5511 26.5563 15.7099C26.5563 16.1361 26.5563 16.5622 26.5563 16.9883C26.5563 17.1182 26.5483 17.1922 26.3979 17.1932C25.985 17.1957 25.5722 17.1904 25.1593 17.1942C24.9882 17.1958 25.0108 17.3076 25.0108 17.4438C25.0108 18.6867 25.0104 19.9296 25.0112 21.1725Z" fill="#0071C5"/>
<path d="M37.5931 23.3419C37.5931 23.5624 37.5922 23.5669 37.3739 23.5345C36.9183 23.4671 36.4956 23.3187 36.1404 23.0124C35.6834 22.6183 35.49 22.0168 35.4897 21.4224C35.4873 18.3908 35.4882 15.3591 35.4883 12.3275C35.4883 12.1806 35.5362 12.1498 35.6695 12.1498C36.251 12.1498 36.8327 12.1494 37.4142 12.1498C37.5885 12.1498 37.593 12.1541 37.5931 12.3293C37.5937 16.0001 37.5931 19.6711 37.5931 23.3419Z" fill="#0071C5"/>
<path d="M12.9399 23.5103C12.9399 23.7359 12.9299 23.7428 12.7027 23.7062C12.3759 23.6535 12.0618 23.5646 11.7735 23.3962C11.2872 23.1121 11.0041 22.6852 10.8891 22.1407C10.8504 21.9581 10.8315 21.7732 10.8316 21.5857C10.833 19.6322 10.8324 17.6789 10.8324 15.7254C10.8324 15.581 10.9065 15.5088 11.0545 15.5087C11.6051 15.5087 12.1557 15.5087 12.7063 15.5087C12.7197 15.5087 12.733 15.5087 12.7463 15.5087C12.9324 15.5097 12.9396 15.5159 12.9396 15.7053C12.9404 18.3069 12.9399 20.9086 12.9399 23.5103Z" fill="#0071C5"/>
<path d="M12.7673 12.4213C12.9081 12.422 12.9204 12.4341 12.9207 12.5734C12.9216 13.1369 12.9216 13.7005 12.9207 14.2639C12.9204 14.4049 12.9084 14.4181 12.7698 14.4184C12.1751 14.4196 11.5805 14.4196 10.9857 14.4184C10.8447 14.4181 10.833 14.4061 10.8328 14.2663C10.8319 13.7027 10.8319 13.1392 10.8328 12.5758C10.8331 12.4309 10.8434 12.4216 10.9967 12.421C11.5867 12.4189 12.1772 12.4181 12.7673 12.4213Z" fill="#0071C5"/>
<path d="M22.6797 41.7393H23.6172C23.4605 43.1812 22.3847 44.0977 20.9219 44.0977C18.7598 44.0977 18.1484 41.9273 18.1484 40.0938C18.1484 38.3945 19.1338 36.793 21.0049 36.793C22.4355 36.793 23.4664 37.7237 23.6172 39.1709H22.6797C22.5472 38.2057 21.9944 37.5645 21.0049 37.5645C19.7564 37.5645 19.0859 38.5641 19.0859 40.084C19.0859 41.378 19.2372 43.3311 20.9219 43.3311C22.1253 43.3311 22.524 42.7317 22.6797 41.7393Z" fill="black"/>
<path d="M38.8613 41.7393H37.9238C37.7682 42.7317 37.3694 43.3311 36.166 43.3311C34.8352 43.3311 34.3301 41.9588 34.3301 40.8018C34.3301 39.4453 34.5276 37.5645 36.249 37.5645C37.2386 37.5645 37.7914 38.2057 37.9238 39.1709H38.8613C38.7106 37.7237 37.6797 36.793 36.249 36.793C33.9732 36.793 33.3926 38.9474 33.3926 40.8018C33.3926 42.7841 34.5017 44.0977 36.166 44.0977C37.6017 44.0977 38.7008 43.2161 38.8613 41.7393Z" fill="black"/>
<path d="M26.1123 36.8906H24.9014V44H25.8389L25.7482 38.2455L28.0801 44H28.793L31.1295 38.2535L31.0391 44H31.9766V36.8906H30.7656L28.4414 42.6865L26.1123 36.8906Z" fill="black"/>
<path fill-rule="evenodd" clip-rule="evenodd" d="M13.749 44C15.6557 44 16.9717 42.5844 16.9717 40.6602C16.9717 38.6909 15.9444 36.8906 13.8369 36.8906H11.8252V44H13.749ZM12.7676 43.2334H13.749C15.2821 43.2334 16.0391 42.2002 16.0391 40.6602C16.0391 39.1813 15.5126 37.6621 13.8369 37.6621H12.7676V43.2334Z" fill="black"/>
</svg>
