<svg width="50" height="50" viewBox="0 0 50 50" fill="none" xmlns="http://www.w3.org/2000/svg">
<rect width="50" height="50" fill="#0071C5"/>
<path d="M20.013 42.3477V43.1025H16.6372V42.3477H20.013ZM16.8079 36.1025V43.1025H15.9629V36.1025H16.8079ZM19.5664 39.1122V39.867H16.6372V39.1122H19.5664ZM19.9692 36.1025V36.8622H16.6372V36.1025H19.9692Z" fill="white"/>
<path d="M21.3265 36.1025H22.1453L24.2339 41.8093L26.318 36.1025H27.1412L24.5491 43.1025H23.9099L21.3265 36.1025ZM21.0595 36.1025H21.7819L21.9001 43.1025H21.0595V36.1025ZM26.6815 36.1025H27.4039V43.1025H26.5632L26.6815 36.1025Z" fill="white"/>
<path d="M31.327 36.7227L29.2166 43.1025H28.354L30.7841 36.1025H31.3402L31.327 36.7227ZM33.0959 43.1025L30.9811 36.7227L30.968 36.1025H31.5241L33.9629 43.1025H33.0959ZM32.9865 40.5112V41.2708H29.4049V40.5112H32.9865Z" fill="white"/>
<path d="M9.21733 16.8101C9.73435 16.1757 10.316 15.6134 10.9223 15.0638C10.9945 14.9987 11.0256 15.0418 11.0256 15.1324C11.0259 15.3787 11.0243 15.6252 11.0267 15.8714C11.0275 15.9444 11.0054 16.0013 10.9549 16.0565C9.04548 18.1457 7.91701 21.2336 8.68217 24.0159C10.0391 28.9502 16.6151 29.8145 21.0241 29.6552C26.6613 29.4514 32.6456 28.4923 37.589 25.6521C37.6907 25.5936 37.73 25.6003 37.7302 25.7235C37.7311 26.5586 37.7081 27.3963 37.7318 28.2311C37.7343 28.3188 37.7009 28.3701 37.6214 28.4122C32.2731 31.2408 25.9303 32.3078 19.9004 32.0705C15.4188 31.8937 9.73858 30.6616 7.68371 26.2398C6.23311 23.1178 7.08701 19.4236 9.21733 16.8101Z" fill="white"/>
<path d="M38.5667 24.1133C38.4444 24.1598 38.4165 24.1252 38.4165 24.0104C38.4165 23.441 38.4183 22.8716 38.4146 22.3023C38.414 22.203 38.4431 22.1412 38.5334 22.0875C40.4461 20.9501 41.9077 18.9918 42.0766 16.7694C42.434 12.0659 37.2163 9.98857 33.2501 9.53805C30.398 9.21436 27.4894 9.42793 24.6728 9.94422C21.3795 10.5479 18.1757 11.5875 15.1817 13.0645C15.1285 13.0909 15.0267 13.1589 15.0248 13.055C15.0212 12.8653 15.0232 12.6755 15.0233 12.4857C15.0233 12.424 15.0668 12.3934 15.1142 12.3662C17.8402 10.8066 20.7456 9.66169 23.8201 8.94898C26.9499 8.22348 30.2213 7.90975 33.4262 8.22427C37.4185 8.61679 42.4329 10.1234 43.6959 14.3697C44.8217 18.1558 42.2494 22.7158 38.5667 24.1133Z" fill="white"/>
<path d="M29.4725 21.0638C29.2871 21.0638 29.2744 21.0764 29.2944 21.2566C29.3783 22.0093 29.9058 22.6022 30.6936 22.676C31.3861 22.7407 32.0441 22.5955 32.5637 22.1182C32.7102 21.9836 32.6894 21.9708 32.852 22.1244C33.169 22.4237 33.488 22.7211 33.8067 23.0186C33.886 23.0927 33.8882 23.1044 33.8092 23.1823C33.2184 23.7639 32.5169 24.1318 31.682 24.2411C29.3343 24.5484 27.5534 23.1253 27.3784 20.8777C27.2412 19.1197 28.0283 17.2571 29.8859 16.7754C32.6415 16.061 34.1473 18.5851 34.1062 20.9381C34.1042 21.0492 34.0918 21.0598 33.9758 21.0634C32.4772 21.1077 30.9719 21.0638 29.4725 21.0638ZM31.9931 19.7716C32.1342 19.7716 32.186 19.7409 32.1721 19.603C32.0822 18.7169 31.4334 18.0702 30.5067 18.2422C29.9537 18.3448 29.5674 18.6483 29.3844 19.1814C29.33 19.3393 29.3007 19.502 29.2923 19.6678C29.286 19.791 29.3946 19.7717 29.4883 19.7717C30.3233 19.7717 31.1583 19.7716 31.9931 19.7716Z" fill="white"/>
<path d="M15.9583 16.9633C15.9583 16.8348 16.0243 16.7705 16.1563 16.7703C17.3982 16.7706 18.6403 16.7709 19.8822 16.7715C21.2178 16.772 22.1567 17.7378 22.1561 19.0149C22.1559 20.6661 22.1561 22.3172 22.156 23.9684C22.156 24.1015 22.0883 24.1681 21.9528 24.1682C21.4428 24.1682 20.9329 24.1682 20.423 24.1682C20.2492 24.1682 20.2272 24.1072 20.2272 23.9372C20.2272 22.3183 20.227 20.6994 20.2275 19.0806C20.2275 18.6198 19.9676 18.303 19.4916 18.303C19.0063 18.3026 18.521 18.3024 18.0357 18.303C17.8935 18.3031 17.8889 18.3076 17.8886 18.4452C17.8847 20.2861 17.8883 22.127 17.8883 23.9679C17.8883 24.1015 17.8211 24.1683 17.6865 24.1684C17.1765 24.1684 16.6665 24.1684 16.1567 24.1684C15.9731 24.1684 15.9584 24.0987 15.9584 23.9396C15.9584 21.6142 15.9583 19.2887 15.9583 16.9633Z" fill="white"/>
<path d="M25.4847 21.9206C25.4847 22.3179 25.7208 22.5883 26.1521 22.5847C26.3618 22.583 26.5716 22.5831 26.7812 22.5849C26.8943 22.5859 26.914 22.602 26.9145 22.7098C26.9166 23.1538 26.9165 23.5979 26.9145 24.0419C26.914 24.1437 26.8938 24.1624 26.7894 24.1627C26.407 24.1643 26.0243 24.1734 25.6423 24.1601C24.6666 24.1262 23.8361 23.549 23.6117 22.5891C23.573 22.4235 23.5549 22.2555 23.5551 22.0848C23.556 19.6992 23.5557 17.3136 23.5557 14.9278C23.5557 14.7956 23.6015 14.759 23.741 14.759C24.2591 14.759 24.7772 14.759 25.2953 14.759C25.469 14.759 25.4845 14.8425 25.4845 14.9889C25.4845 15.5178 25.4845 16.0465 25.4845 16.5753C25.4845 16.7195 25.5053 16.77 25.6675 16.77C26.017 16.77 26.3666 16.77 26.7161 16.7701C26.8695 16.7701 26.9157 16.8087 26.9157 16.9531C26.9157 17.3406 26.9157 17.7281 26.9157 18.1156C26.9157 18.2337 26.9084 18.301 26.7691 18.3019C26.3866 18.3042 26.0043 18.2994 25.6219 18.3029C25.4634 18.3043 25.4843 18.4059 25.4843 18.5298C25.4843 19.6601 25.484 20.7903 25.4847 21.9206Z" fill="white"/>
<path d="M37.1379 23.8934C37.1379 24.0939 37.137 24.098 36.9348 24.0685C36.5129 24.0072 36.1214 23.8723 35.7924 23.5938C35.3691 23.2354 35.19 22.6884 35.1897 22.1479C35.1875 19.391 35.1884 16.6341 35.1885 13.8772C35.1885 13.7436 35.2328 13.7156 35.3563 13.7156C35.8949 13.7156 36.4336 13.7153 36.9722 13.7156C37.1336 13.7156 37.1378 13.7195 37.1379 13.8789C37.1384 17.217 37.1379 20.5553 37.1379 23.8934Z" fill="white"/>
<path d="M14.3045 24.0465C14.3045 24.2517 14.2952 24.258 14.0848 24.2247C13.7821 24.1768 13.4912 24.0959 13.2241 23.9427C12.7738 23.6844 12.5116 23.2962 12.4051 22.8011C12.3693 22.635 12.3517 22.4669 12.3518 22.2964C12.3531 20.5199 12.3526 18.7436 12.3526 16.9672C12.3526 16.8359 12.4211 16.7702 12.5583 16.7701C13.0682 16.7701 13.5782 16.7701 14.0882 16.7701C14.1005 16.7701 14.1129 16.7701 14.1252 16.7701C14.2975 16.7711 14.3042 16.7766 14.3042 16.9489C14.3049 19.3147 14.3045 21.6806 14.3045 24.0465Z" fill="white"/>
<path d="M14.1446 13.9625C14.2751 13.9631 14.2864 13.9742 14.2867 14.1008C14.2875 14.6133 14.2875 15.1258 14.2867 15.6381C14.2864 15.7664 14.2753 15.7784 14.1469 15.7786C13.5961 15.7797 13.0454 15.7797 12.4946 15.7786C12.3639 15.7784 12.3531 15.7674 12.353 15.6403C12.3521 15.1278 12.3521 14.6154 12.353 14.103C12.3532 13.9713 12.3627 13.9628 12.5047 13.9623C13.0512 13.9603 13.5981 13.9596 14.1446 13.9625Z" fill="white"/>
</svg>
