<svg width="50" height="50" viewBox="0 0 50 50" fill="none" xmlns="http://www.w3.org/2000/svg">
<rect width="50" height="50" fill="#1B1B1B"/>
<path d="M34.5992 12.7769C35.2959 12.112 35.691 11.1977 35.7014 10.2315C35.7118 9.60817 35.5558 8.99519 35.2335 8.46533L27.0395 15.7275L18.8246 8.46533C18.5023 8.99519 18.3463 9.60817 18.3567 10.2315C18.3567 11.1666 18.7206 12.0601 19.3965 12.7146C19.3965 12.7146 14.3013 17.3794 14.3013 25.5039C14.3013 38.3764 20.478 41.5348 20.478 41.5348C20.478 41.5348 17.0569 35.8102 18.0343 30.3454C18.3567 28.5272 19.199 27.3532 20.2596 26.2416C21.6634 24.8079 23.5039 23.8832 25.5005 23.6235L27.029 26.2935V21.2028C25.0533 21.3378 23.1192 21.8365 21.3307 22.6884C19.6669 23.5092 18.2527 24.7663 17.2336 26.3039C16.9737 23.8728 17.3376 21.4209 18.3047 19.1768C19.6669 15.9561 21.4554 14.3457 21.4554 14.3457L27.029 18.4288L32.3842 14.3561C32.3842 14.3561 34.7447 15.7171 35.951 19.208C36.159 19.821 36.4709 20.6625 36.4709 20.6625C37.438 16.621 34.5992 12.7873 34.5992 12.7873" fill="white"/>
<path d="M26.2131 19.4375L24.4558 18.222C24.4558 18.222 24.2166 18.8557 23.2703 18.8557C22.4072 18.8557 21.8145 17.7128 22.4488 16.8609L21.1802 15.9882C20.6499 16.5181 20.3483 17.235 20.3379 17.983C20.3379 19.6037 21.9601 20.5595 23.2807 20.5595C25.2669 20.5492 26.2235 19.4271 26.2235 19.4271" fill="#CC0033"/>
<path d="M27.8942 19.4375L29.6515 18.222C29.6515 18.222 29.8907 18.8557 30.8369 18.8557C31.7 18.8557 32.3031 17.7128 31.6584 16.8609L32.927 15.9882C33.4573 16.5181 33.7589 17.235 33.7693 17.983C33.7693 19.6037 32.1472 20.5595 30.8266 20.5595C28.8404 20.5492 27.8838 19.4271 27.8838 19.4271" fill="#CC0033"/>
<path d="M29.7701 11.8506H24.3629L27.0041 14.0532L29.7701 11.8506Z" fill="white"/>
</svg>
