<svg width="50" height="50" viewBox="0 0 50 50" fill="none" xmlns="http://www.w3.org/2000/svg">
<rect width="50" height="50" fill="#0071C5"/>
<path d="M9.14527 17.3223C9.63434 16.7143 10.1846 16.1754 10.7581 15.6488C10.8264 15.5864 10.8558 15.6277 10.8558 15.7145C10.8561 15.9506 10.8545 16.1867 10.8569 16.4227C10.8576 16.4927 10.8367 16.5471 10.7889 16.6001C8.98271 18.6022 7.91524 21.5615 8.63904 24.2279C9.92261 28.9565 16.1432 29.7848 20.3138 29.6321C25.6463 29.4368 31.3071 28.5177 35.9833 25.7959C36.0795 25.7399 36.1167 25.7462 36.1169 25.8643C36.1178 26.6646 36.096 27.4674 36.1184 28.2674C36.1208 28.3515 36.0892 28.4006 36.014 28.4409C30.9547 31.1517 24.9548 32.1742 19.2509 31.9468C15.0115 31.7774 9.63835 30.5967 7.69455 26.359C6.32237 23.3672 7.13011 19.8269 9.14527 17.3223Z" fill="white"/>
<path d="M36.9082 24.3212C36.7925 24.3657 36.7661 24.3326 36.7661 24.2225C36.7661 23.6769 36.7678 23.1312 36.7643 22.5856C36.7637 22.4905 36.7913 22.4313 36.8767 22.3798C38.686 21.2898 40.0686 19.4131 40.2284 17.2832C40.5665 12.7758 35.6308 10.785 31.879 10.3532C29.1811 10.043 26.4296 10.2477 23.7653 10.7425C20.65 11.3211 17.6194 12.3173 14.7872 13.7327C14.7369 13.758 14.6406 13.8232 14.6388 13.7237C14.6354 13.5419 14.6373 13.36 14.6374 13.1781C14.6374 13.119 14.6785 13.0896 14.7234 13.0636C17.3021 11.5689 20.0504 10.4717 22.9587 9.78871C25.9193 9.09344 29.0139 8.79278 32.0456 9.0942C35.8221 9.47037 40.5654 10.9142 41.7602 14.9835C42.8251 18.6119 40.3918 22.9819 36.9082 24.3212Z" fill="white"/>
<path d="M28.3056 21.3987C28.1302 21.3987 28.1182 21.4108 28.1371 21.5835C28.2164 22.3048 28.7154 22.873 29.4606 22.9437C30.1158 23.0057 30.7382 22.8667 31.2297 22.4092C31.3683 22.2803 31.3486 22.2679 31.5024 22.4151C31.8022 22.702 32.104 22.987 32.4055 23.2721C32.4805 23.3431 32.4826 23.3544 32.4078 23.4289C31.8489 23.9864 31.1854 24.3389 30.3957 24.4437C28.1748 24.7382 26.4902 23.3743 26.3247 21.2204C26.1949 19.5357 26.9394 17.7506 28.6967 17.2891C31.3033 16.6044 32.7277 19.0233 32.6888 21.2783C32.6869 21.3848 32.6751 21.3949 32.5655 21.3984C31.1478 21.4408 29.724 21.3987 28.3056 21.3987ZM30.6899 20.1604C30.8234 20.1604 30.8723 20.131 30.8593 19.9988C30.7742 19.1497 30.1604 18.5299 29.2838 18.6947C28.7608 18.7931 28.3954 19.0839 28.2222 19.5948C28.1708 19.7461 28.143 19.902 28.1351 20.0609C28.1292 20.179 28.2319 20.1605 28.3205 20.1605C29.1104 20.1605 29.9003 20.1604 30.6899 20.1604Z" fill="white"/>
<path d="M15.5219 17.4691C15.5219 17.346 15.5843 17.2843 15.7092 17.2842C16.884 17.2844 18.0589 17.2848 19.2336 17.2853C20.497 17.2858 21.3853 18.2113 21.3847 19.4352C21.3844 21.0176 21.3847 22.5999 21.3846 24.1823C21.3846 24.3099 21.3205 24.3737 21.1923 24.3738C20.7099 24.3738 20.2275 24.3738 19.7452 24.3738C19.5808 24.3738 19.56 24.3154 19.56 24.1524C19.56 22.601 19.5598 21.0496 19.5603 19.4981C19.5603 19.0566 19.3145 18.753 18.8642 18.753C18.4051 18.7526 17.9461 18.7524 17.487 18.753C17.3525 18.7531 17.3482 18.7574 17.3478 18.8892C17.3442 20.6535 17.3476 22.4177 17.3476 24.1819C17.3476 24.3099 17.2839 24.3739 17.1566 24.374C16.6742 24.374 16.1918 24.374 15.7095 24.374C15.5359 24.374 15.522 24.3072 15.522 24.1547C15.522 21.9262 15.5219 19.6976 15.5219 17.4691Z" fill="white"/>
<path d="M24.5333 22.2199C24.5333 22.6006 24.7567 22.8597 25.1646 22.8563C25.363 22.8547 25.5614 22.8548 25.7597 22.8565C25.8667 22.8574 25.8854 22.8729 25.8858 22.9762C25.8878 23.4016 25.8877 23.8272 25.8858 24.2527C25.8854 24.3503 25.8662 24.3682 25.7675 24.3685C25.4058 24.3701 25.0438 24.3788 24.6825 24.366C23.7594 24.3335 22.9739 23.7804 22.7616 22.8605C22.7249 22.7018 22.7079 22.5408 22.708 22.3772C22.7089 20.091 22.7086 17.8048 22.7086 15.5184C22.7086 15.3917 22.752 15.3566 22.8839 15.3566C23.374 15.3566 23.8641 15.3566 24.3542 15.3566C24.5185 15.3566 24.5331 15.4367 24.5331 15.577C24.5331 16.0838 24.5331 16.5905 24.5331 17.0973C24.5331 17.2355 24.5528 17.2838 24.7063 17.2838C25.0369 17.2838 25.3676 17.2838 25.6982 17.2839C25.8433 17.2839 25.887 17.3209 25.887 17.4593C25.887 17.8307 25.887 18.2021 25.887 18.5734C25.887 18.6866 25.8801 18.7511 25.7483 18.7519C25.3865 18.7541 25.0248 18.7496 24.6631 18.7529C24.5132 18.7542 24.533 18.8516 24.533 18.9703C24.533 20.0535 24.5326 21.1367 24.5333 22.2199Z" fill="white"/>
<path d="M35.5566 24.1104C35.5566 24.3026 35.5558 24.3065 35.3645 24.2783C34.9654 24.2195 34.5951 24.0902 34.2839 23.8233C33.8835 23.4799 33.714 22.9557 33.7138 22.4376C33.7117 19.7956 33.7125 17.1536 33.7126 14.5116C33.7126 14.3836 33.7545 14.3567 33.8713 14.3567C34.3808 14.3567 34.8904 14.3564 35.3999 14.3567C35.5525 14.3567 35.5565 14.3605 35.5566 14.5132C35.5571 17.7122 35.5566 20.9114 35.5566 24.1104Z" fill="white"/>
<path d="M13.9574 24.2572C13.9574 24.4538 13.9487 24.4598 13.7497 24.4279C13.4633 24.382 13.1881 24.3045 12.9355 24.1577C12.5095 23.9102 12.2615 23.5381 12.1607 23.0636C12.1268 22.9045 12.1102 22.7434 12.1104 22.5799C12.1115 20.8775 12.1111 19.1752 12.1111 17.4728C12.1111 17.347 12.1759 17.284 12.3056 17.2839C12.788 17.2839 13.2704 17.2839 13.7528 17.2839C13.7645 17.2839 13.7762 17.2839 13.7879 17.2839C13.9509 17.2849 13.9572 17.2902 13.9572 17.4553C13.9579 19.7226 13.9574 21.9899 13.9574 24.2572Z" fill="white"/>
<path d="M13.8062 14.5934C13.9296 14.5939 13.9404 14.6045 13.9406 14.7259C13.9414 15.217 13.9414 15.7081 13.9406 16.1991C13.9404 16.322 13.9299 16.3335 13.8084 16.3338C13.2874 16.3348 12.7664 16.3348 12.2454 16.3338C12.1218 16.3335 12.1115 16.3231 12.1114 16.2012C12.1106 15.7101 12.1106 15.219 12.1114 14.728C12.1116 14.6017 12.1206 14.5936 12.2549 14.5931C12.7719 14.5913 13.2892 14.5906 13.8062 14.5934Z" fill="white"/>
<path d="M22.6482 40.0404H23.4805C23.3413 41.2248 22.3864 41.9775 21.0878 41.9775C19.1686 41.9775 18.6258 40.1948 18.6258 38.6888C18.6258 37.293 19.5005 35.9775 21.1615 35.9775C22.4315 35.9775 23.3466 36.742 23.4805 37.9307H22.6482C22.5306 37.138 22.0399 36.6112 21.1615 36.6112C20.0533 36.6112 19.4581 37.4323 19.4581 38.6807C19.4581 39.7436 19.5923 41.3479 21.0878 41.3479C22.1561 41.3479 22.51 40.8555 22.6482 40.0404Z" fill="white"/>
<path d="M37.0127 40.0404H36.1805C36.0423 40.8555 35.6883 41.3479 34.6201 41.3479C33.4387 41.3479 32.9903 40.2207 32.9903 39.2703C32.9903 38.1561 33.1657 36.6112 34.6938 36.6112C35.5722 36.6112 36.0629 37.138 36.1805 37.9307H37.0127C36.8789 36.742 35.9637 35.9775 34.6938 35.9775C32.6735 35.9775 32.1581 37.7472 32.1581 39.2703C32.1581 40.8986 33.1426 41.9775 34.6201 41.9775C35.8945 41.9775 36.8702 41.2535 37.0127 40.0404Z" fill="white"/>
<path d="M25.6954 36.0578H24.6204V41.8973H25.4526L25.3722 37.1706L27.4422 41.8973H28.075L30.1491 37.1772L30.0689 41.8973H30.9011V36.0578H29.8261L27.7629 40.8184L25.6954 36.0578Z" fill="white"/>
<path fill-rule="evenodd" clip-rule="evenodd" d="M14.7205 41.8973C16.413 41.8973 17.5812 40.7346 17.5812 39.154C17.5812 37.5365 16.6693 36.0578 14.7985 36.0578H13.0127V41.8973H14.7205ZM13.8492 41.2676H14.7205C16.0814 41.2676 16.7533 40.419 16.7533 39.154C16.7533 37.9393 16.286 36.6914 14.7985 36.6914H13.8492V41.2676Z" fill="white"/>
</svg>
