<svg width="50" height="50" viewBox="0 0 50 50" fill="none" xmlns="http://www.w3.org/2000/svg">
<path d="M16.2256 25.2493C15.205 25.1244 14.261 24.6661 13.5224 23.9277C12.6477 23.0529 12.166 21.8901 12.166 20.653C12.166 19.749 12.427 18.877 12.9118 18.1315C14.6564 19.0054 18.3558 20.8584 21.1063 22.2361L23.5246 21.0248C20.3489 19.4342 12.3657 15.4355 12.3657 15.4355L11.8131 16.0311C10.644 17.2914 10 18.9329 10 20.653C10 21.5701 10.1799 22.4604 10.5346 23.299C10.8769 24.1085 11.3669 24.8353 11.9908 25.4591C12.6147 26.083 13.3415 26.5729 14.151 26.9154C14.8351 27.2047 15.5533 27.3777 16.2925 27.4316C16.2241 26.7069 16.2018 25.9784 16.2256 25.2493Z" fill="#4C569D"/>
<path d="M38.1383 16.0312L37.5857 15.4357L19.7901 24.35C19.1345 24.6785 18.4561 24.9357 17.7739 25.1146C17.6855 25.1378 17.6039 25.1579 17.5287 25.1753C17.4918 26.0982 17.5348 27.0202 17.6577 27.9339C17.7442 28.5521 17.863 29.1648 18.0133 29.7681C18.3335 31.0521 18.7993 32.3027 19.3976 33.485C19.9855 34.6464 20.7037 35.7468 21.5323 36.7554C22.3576 37.7597 23.2894 38.6715 24.3115 39.4747L24.9806 40.0003L25.6497 39.4747C26.6701 38.6732 27.605 37.7582 28.4289 36.7554C29.2575 35.7468 29.9757 34.6464 30.5636 33.485C31.162 32.3027 31.6277 31.0523 31.9479 29.7681C32.1435 28.9835 32.2854 28.1832 32.3729 27.375C32.3733 27.375 32.3738 27.375 32.3742 27.3752C32.4461 26.6461 32.4678 25.9128 32.4384 25.179C32.3588 25.1608 32.272 25.1395 32.1775 25.1148C31.4953 24.9358 30.8171 24.6786 30.1615 24.3502L28.8446 23.6906L26.4263 24.9019L29.1915 26.2869C29.5389 26.4611 29.894 26.6194 30.2558 26.7613C30.1855 27.6008 30.0487 28.4321 29.8464 29.2441C29.5653 30.3712 29.1565 31.4689 28.6311 32.5067C28.1147 33.5271 27.4836 34.4939 26.7553 35.3804C26.2151 36.0382 25.6205 36.6527 24.9808 37.2152C24.3412 36.6528 23.7464 36.0382 23.2062 35.3806C22.4779 34.4941 21.8468 33.5273 21.3304 32.5069C20.8051 31.469 20.3962 30.3713 20.1151 29.2442C19.9123 28.4312 19.7754 27.5985 19.7054 26.7578C20.0615 26.6176 20.4138 26.4605 20.7604 26.2869C20.7604 26.2869 34.962 19.1727 37.04 18.1319C37.5247 18.8774 37.7857 19.7494 37.7857 20.6534C37.7857 21.8903 37.304 23.0533 36.4293 23.9281C35.6945 24.6629 34.7563 25.1203 33.7416 25.2477C33.7655 25.9773 33.7432 26.706 33.6748 27.431C34.4085 27.3757 35.1214 27.2031 35.8006 26.916C36.6101 26.5736 37.3369 26.0837 37.9607 25.4597C38.5845 24.8359 39.0745 24.109 39.417 23.2995C39.7717 22.4608 39.9516 21.5706 39.9516 20.6535C39.9516 18.9333 39.3076 17.2915 38.1383 16.0312ZM28.9468 14.7851C29.2905 14.0888 29.8011 13.4893 30.4434 13.0326C31.241 12.4657 32.182 12.166 33.1648 12.166V10C31.7298 10 30.3548 10.4381 29.1886 11.2672C28.628 11.6656 28.1302 12.1456 27.7117 12.6914C27.6248 12.8046 27.5418 12.9206 27.4623 13.0386C26.896 12.4526 26.2904 11.9059 25.6497 11.4023L24.9808 10.8768L24.2891 11.42C23.7069 11.8791 23.1536 12.3737 22.6325 12.9011C22.5857 12.9484 22.5391 12.9961 22.4928 13.0441C22.4122 12.9239 22.3278 12.8063 22.2397 12.6914C21.8212 12.1456 21.3234 11.6656 20.7628 11.2672C19.5966 10.4381 18.2216 10 16.7866 10V12.166C17.7693 12.166 18.7104 12.4657 19.508 13.0326C20.1526 13.4908 20.6644 14.0929 21.0082 14.7923C20.8267 15.0358 20.6514 15.2839 20.4825 15.5364C20.0659 16.1596 19.6883 16.8108 19.3533 17.4818L21.2894 18.4516C22.0286 16.9671 22.9957 15.6155 24.1735 14.4233C24.4327 14.1611 24.7026 13.9065 24.9808 13.662C26.5084 15.0053 27.7641 16.6356 28.6698 18.4487L30.6067 17.4786C30.1343 16.5332 29.578 15.6314 28.9468 14.7851Z" fill="#4C569D"/>
</svg>
