<svg width="50" height="50" viewBox="0 0 50 50" fill="none" xmlns="http://www.w3.org/2000/svg">
<path d="M19.2823 6H13.5811V8.86525H19.2823V6Z" fill="#FFC400"/>
<path d="M36.4445 6H30.6957V8.86525H36.4445V6Z" fill="#FFC400"/>
<path d="M10.7891 40.3171H7.89823V43.1824H10.7891V40.3171Z" fill="#FFC400"/>
<path d="M7.8909 37.4592H5V40.3244H7.8909V37.4592Z" fill="#FFC400"/>
<path d="M30.8093 34.5463H27.9184V37.4115H30.8093V34.5463Z" fill="#FFC400"/>
<path d="M42.1054 40.2768H39.2145V43.1421H42.1054V40.2768Z" fill="#FFC400"/>
<path d="M45.0037 37.4042H42.1128V40.2695H45.0037V37.4042Z" fill="#FFC400"/>
<path d="M42.0944 37.4189V31.6884H39.2622V20.242H42.1201V11.7085H39.3501V8.85793H36.4592V14.5188H33.5866V11.6865H16.3584V14.5445H13.5335V8.8909H10.6499V11.7232H7.83228V20.2567H10.6975V31.7213H7.88724V37.4225H13.4822V40.2402H16.3731V34.5426H13.5152V31.6517H19.297V34.495H22.1805V31.6517H25.0458V34.5023H22.1732V37.4262H25.0641V34.5683H27.9367V31.7103H36.4848V34.6012H33.6123V40.3024H36.5032V37.4299H42.0981L42.0944 37.4189ZM21.9607 17.4061V20.3043H19.3373V23.2172H21.9204V26.0091H16.3914V20.2786H19.3702V17.4061H21.9607ZM27.8451 26.0128V23.1952H30.6774V20.2786H27.8854V17.4061H30.6774V20.2713H33.5683V26.0018L27.8451 26.0091V26.0128Z" fill="#FFC400"/>
</svg>
