<svg width="50" height="50" viewBox="0 0 50 50" fill="none" xmlns="http://www.w3.org/2000/svg">
<path fill-rule="evenodd" clip-rule="evenodd" d="M24.742 8.34105C24.1115 8.40165 23.3366 8.57061 23.2162 8.67361C23.1881 8.69755 23.1367 8.71716 23.1017 8.71716C23.0667 8.71716 22.7517 8.86956 22.4018 9.05584C22.0518 9.24211 21.6569 9.45219 21.5245 9.52273C21.392 9.59327 21.1579 9.72734 21.0041 9.82066C20.8505 9.91399 20.712 9.99039 20.6963 9.99039C20.6807 9.99039 20.5045 10.0858 20.3049 10.2023C20.1052 10.3188 19.7899 10.4911 19.6041 10.5851C19.4184 10.6792 19.1714 10.813 19.0554 10.8825C18.9396 10.9521 18.8316 11.009 18.8157 11.009C18.7997 11.009 18.6891 11.0675 18.5698 11.139C18.3335 11.2805 18.2922 11.3035 17.4212 11.7728C17.0968 11.9477 16.6985 12.1659 16.5363 12.2579C16.3741 12.3497 16.1327 12.4806 16 12.5487C15.8673 12.6168 15.6742 12.7194 15.5709 12.7766C15.4677 12.8339 14.9971 13.0923 14.5251 13.3508C14.0532 13.6093 13.6429 13.8382 13.6134 13.8596C13.5839 13.881 13.4149 13.9739 13.2379 14.0664C13.061 14.1587 12.8076 14.2911 12.6748 14.3605C12.5421 14.4299 12.3694 14.5293 12.2911 14.5813C12.2128 14.6333 12.1338 14.6759 12.1154 14.6759C12.0213 14.6759 11.3986 15.0967 11.3449 15.1966C11.0353 15.7724 11.1915 16.0647 12.0822 16.5754C12.2875 16.6932 13.1504 17.2036 13.9998 17.7097C16.3151 19.0894 16.3325 19.0912 18.0648 18.114C18.3893 17.931 18.7513 17.7353 18.8693 17.6792C19.1033 17.5677 19.2143 17.5056 19.4592 17.3487C19.5477 17.2921 19.6925 17.2125 19.781 17.1719C19.8695 17.1313 20.0626 17.027 20.2101 16.9402C20.3576 16.8535 20.6834 16.6742 20.9341 16.542C21.1849 16.4097 21.4262 16.2803 21.4704 16.2542C21.6706 16.1361 22.6621 15.5926 22.6773 15.5926C22.6867 15.5926 22.8613 15.5028 23.0653 15.3929C24.3911 14.6796 25.9759 14.7272 27.4344 15.5243C27.7337 15.688 28.089 15.8811 28.224 15.9534C28.3589 16.0259 28.5539 16.1336 28.6571 16.1927C28.7604 16.2517 28.9052 16.3314 28.9789 16.3698C29.3333 16.554 29.7406 16.7745 30.1202 16.9878C30.3496 17.1168 30.5578 17.2223 30.5829 17.2223C30.6078 17.2223 30.6565 17.2545 30.691 17.294C30.7254 17.3335 30.8432 17.4059 30.9523 17.4549C31.0616 17.5041 31.3886 17.6781 31.6789 17.8416C31.9693 18.0052 32.2163 18.139 32.2277 18.139C32.2392 18.139 32.3998 18.2264 32.5847 18.3332C33.5912 18.9144 34.2453 18.9394 35.0661 18.4279C35.2431 18.3177 36.0999 17.8028 36.9701 17.2838C38.9067 16.1287 38.7686 16.2231 38.9058 15.9599C39.1535 15.4844 38.9552 15.1337 38.2153 14.7386C37.9581 14.6013 37.4702 14.333 37.131 14.1423C36.7917 13.9515 36.4073 13.74 36.2766 13.6721C36.146 13.6042 35.8443 13.4408 35.6062 13.3091C35.3682 13.1774 35.0829 13.0247 34.9723 12.9699C34.8617 12.915 34.7711 12.8525 34.7711 12.8308C34.7711 12.8092 34.7446 12.7915 34.7122 12.7915C34.6798 12.7915 34.4204 12.6602 34.1356 12.4998C33.851 12.3394 33.5698 12.1829 33.5108 12.1522C33.4045 12.0968 32.7188 11.7271 32.3577 11.5304C32.2545 11.4741 31.8954 11.2765 31.5599 11.0912C31.2243 10.906 30.9397 10.7543 30.9275 10.7543C30.9151 10.7543 30.876 10.7299 30.8403 10.7001C30.8047 10.6703 30.6738 10.5958 30.5495 10.5346C30.4251 10.4733 29.8484 10.1597 29.2678 9.8376C27.1566 8.6661 26.8807 8.54323 26.0828 8.41884C25.6683 8.35442 25.0042 8.31584 24.742 8.34105ZM9.55129 17.7348C9.01792 18.0022 9.02784 17.8615 9.02784 25.1716C9.02784 32.464 9.02355 32.4054 9.63509 33.4178C9.72814 33.5718 9.84077 33.7603 9.88528 33.8365C10.0317 34.0869 10.5793 34.6728 10.8791 34.8999C11.0408 35.0225 11.1731 35.1402 11.1731 35.1616C11.1731 35.1828 11.1969 35.2003 11.2257 35.2003C11.2711 35.2003 11.5953 35.3771 11.9521 35.5965C12.0103 35.6323 12.1003 35.6751 12.1519 35.6915C12.2035 35.7081 12.2458 35.7417 12.2458 35.7665C12.2458 35.7912 12.2716 35.8114 12.3033 35.8114C12.3349 35.8114 12.5944 35.94 12.8798 36.0972C13.1653 36.2543 13.5074 36.4408 13.6402 36.5118C13.7729 36.5828 13.9419 36.6805 14.0156 36.7291C14.0894 36.7774 14.2945 36.8894 14.4715 36.9776C14.6485 37.0657 14.8657 37.18 14.9542 37.2316C15.2376 37.3965 16.0564 37.8455 16.9237 38.3116C17.3874 38.5608 17.8943 38.8412 18.0499 38.9347C18.2056 39.0281 18.3692 39.1202 18.4134 39.1393C18.4577 39.1584 18.5904 39.2273 18.7084 39.2922C18.8264 39.3571 19.0436 39.4752 19.1911 39.5545C19.3386 39.6338 19.7127 39.8404 20.0224 40.0137C20.3321 40.187 20.7303 40.403 20.9073 40.4939C21.0843 40.5846 21.2672 40.6912 21.3137 40.7307C21.3604 40.7702 21.4128 40.8025 21.4304 40.8025C21.4479 40.8025 21.7717 40.9697 22.1501 41.1739C23.3246 41.8081 23.6294 41.8222 24.0314 41.2614L24.152 41.093L24.1518 38.8215C24.1514 36.4396 24.1435 36.3454 23.9009 35.8799C23.6794 35.4544 23.3909 35.226 22.4894 34.7622C22.3862 34.709 22.2897 34.6525 22.2749 34.6368C22.25 34.61 21.4774 34.1941 21.1567 34.0347C21.0785 33.9958 20.8037 33.8411 20.5458 33.6909C20.2881 33.5406 20.0637 33.4178 20.0472 33.4178C20.0307 33.4178 19.8852 33.3376 19.7238 33.2395C19.5624 33.1415 19.4201 33.0613 19.4075 33.0613C19.3949 33.0613 19.1147 32.9123 18.7848 32.7302C18.4549 32.5482 18.178 32.3992 18.1694 32.3992C18.1608 32.3992 17.9592 32.2846 17.7214 32.1445C17.4836 32.0045 17.2735 31.8899 17.2544 31.8899C17.1572 31.8899 16.4467 31.3316 16.1953 31.0576C15.8103 30.6379 15.4107 29.9699 15.292 29.5472C15.2646 29.4491 15.2159 29.2772 15.1838 29.1652C15.1454 29.0301 15.1204 27.7089 15.11 25.2437C15.0927 21.1668 15.0916 21.1446 14.8921 20.7983C14.6907 20.4488 14.0679 19.8742 13.7715 19.7642C13.6893 19.7338 12.2775 18.8885 12.2458 18.8508C12.231 18.8332 12.1345 18.7748 12.0312 18.7209C11.928 18.6669 11.8315 18.6106 11.8167 18.5959C11.7762 18.555 10.545 17.8206 10.3507 17.7213C10.1246 17.6059 9.79746 17.6114 9.55129 17.7348Z" fill="#7E7FF5"/>
<path fill-rule="evenodd" clip-rule="evenodd" d="M39.5215 17.6058C39.24 17.7685 37.9288 18.5539 37.6775 18.7103C37.6099 18.7523 37.3885 18.8837 37.1854 19.0021C36.9824 19.1206 36.6474 19.3209 36.4409 19.4471C36.2344 19.5734 36.0095 19.6998 35.9413 19.7282C35.7211 19.8197 35.265 20.3059 35.1045 20.6201C34.8881 21.044 34.8638 21.5346 34.8629 25.5093C34.8623 27.302 34.8465 28.849 34.8276 28.947C34.5768 30.2461 33.8677 31.1133 32.3917 31.9259C31.9934 32.1451 31.5173 32.4125 31.3338 32.5201C31.1501 32.6277 30.9868 32.7158 30.9707 32.7158C30.9546 32.7158 30.843 32.7749 30.7226 32.8469C30.6024 32.9191 30.3916 33.0375 30.2544 33.11C30.1173 33.1826 29.9326 33.2831 29.8441 33.3334C29.7557 33.3836 29.4781 33.5333 29.2274 33.666C28.9766 33.7985 28.646 33.9828 28.4925 34.0753C28.3391 34.1679 28.1991 34.2437 28.1816 34.2437C28.1539 34.2437 28.0196 34.319 27.4813 34.6361C27.4239 34.6698 27.226 34.7691 27.0415 34.857C26.4655 35.1307 26.0383 35.6519 25.8531 36.3063C25.7503 36.6701 25.7755 40.7822 25.8818 40.9816C26.0722 41.3386 26.3174 41.4863 26.7149 41.4834C26.9933 41.4813 27.1717 41.4035 28.1279 40.867C28.5699 40.6191 29.4765 40.1269 30.005 39.8479C30.123 39.7856 30.3282 39.6717 30.4609 39.5947C30.5936 39.5176 30.9557 39.3167 31.2654 39.1483C31.5751 38.9798 32.2147 38.6299 32.6866 38.3706C33.1586 38.1114 33.774 37.7736 34.0542 37.6199C34.3345 37.4663 34.9378 37.1342 35.395 36.8819C35.8523 36.6296 36.3832 36.3418 36.5749 36.2424C39.4209 34.7671 40.3843 33.8606 40.7828 32.2829C40.8322 32.0868 40.8953 31.8435 40.9228 31.7423C40.9525 31.6329 40.9725 28.841 40.9722 24.8669L40.9717 18.1755L40.8411 17.909C40.5934 17.4041 40.076 17.2852 39.5215 17.6058Z" fill="#6057E4"/>
</svg>
