<svg width="50" height="50" viewBox="0 0 50 50" fill="none" xmlns="http://www.w3.org/2000/svg">
<path d="M24.4563 6H14V16.4564H24.4563V6Z" fill="#F26522"/>
<path d="M36.0001 6H25.5438V16.4564H36.0001V6Z" fill="#8DC63F"/>
<path d="M24.4563 17.5436H14V28H24.4563V17.5436Z" fill="#00AEEF"/>
<path d="M36 17.5436H25.5437V28H36V17.5436Z" fill="#FFC20E"/>
<path d="M12.8359 42V34.8906H11.8936V42H12.8359Z" fill="#7F8BA5"/>
<path d="M22.1523 37.4102V36.7168H21.166V35.4326H20.2627V36.7168H19.2959V37.4102H20.2627V40.6865C20.2627 41.7769 21.1051 42.341 22.1768 42L22.1719 41.2627C21.6974 41.3722 21.166 41.2965 21.166 40.6914V37.4102H22.1523Z" fill="#7F8BA5"/>
<path d="M29.6328 38.2297V42H28.7295V36.7168H29.584L29.6124 37.3741C29.9936 36.8936 30.5402 36.6191 31.1904 36.6191C32.2308 36.6191 32.8848 37.1379 32.8848 38.5381V42H31.9766V38.5283C31.9766 37.6872 31.5982 37.3809 30.9219 37.3809C30.3474 37.3809 29.889 37.7201 29.6328 38.2297Z" fill="#7F8BA5"/>
<path fill-rule="evenodd" clip-rule="evenodd" d="M36.4492 42.0977C37.5019 42.0977 38.096 41.5928 38.4365 41.0771L37.8896 40.6426C37.5576 41.0788 37.1361 41.3604 36.498 41.3604C35.5221 41.3604 34.9541 40.508 34.9315 39.6123H38.5049C38.5049 38.1566 38.0881 36.6191 36.332 36.6191C35.1496 36.6191 34.0225 37.6092 34.0225 39.3389C34.0225 40.8137 34.9143 42.0977 36.4492 42.0977ZM34.958 38.875C35.0811 37.896 35.6214 37.3613 36.332 37.3613C37.1532 37.3613 37.6016 38.1256 37.6016 38.875H34.958Z" fill="#7F8BA5"/>
<path d="M26.4695 41.4773L26.4883 42H27.3525V36.7168H26.4443V40.5582C26.2402 41.0294 25.8134 41.3311 25.0674 41.3311C24.3896 41.3311 24.0957 40.7706 24.0957 40.1348V36.7168H23.1924V40.125C23.1924 41.5402 23.9085 42.0977 24.9258 42.0977C25.6393 42.0977 26.1416 41.8672 26.4695 41.4773Z" fill="#7F8BA5"/>
<path d="M15.296 37.3741L15.2676 36.7168H14.4131V42H15.3164V38.2297C15.5726 37.7201 16.031 37.3809 16.6055 37.3809C17.2818 37.3809 17.6602 37.6872 17.6602 38.5283V42H18.5684V38.5381C18.5684 37.1379 17.9144 36.6191 16.874 36.6191C16.2238 36.6191 15.6772 36.8936 15.296 37.3741Z" fill="#7F8BA5"/>
</svg>
