<svg width="50" height="50" viewBox="0 0 50 50" fill="none" xmlns="http://www.w3.org/2000/svg">
<path fill-rule="evenodd" clip-rule="evenodd" d="M33.225 30.5662C33.225 32.0572 32.0286 33.2499 30.5332 33.2499C29.0377 33.2499 27.8413 32.0572 27.8413 30.5662C27.8413 29.0752 29.0377 27.8825 30.5332 27.8825C32.1283 27.8825 33.225 29.0752 33.225 30.5662Z" fill="#546484"/>
<path fill-rule="evenodd" clip-rule="evenodd" d="M22.1586 19.5331C22.1586 21.0241 20.9622 22.2168 19.4667 22.2168C17.9713 22.2168 16.7749 21.0241 16.7749 19.5331C16.7749 18.0422 17.9713 16.8494 19.4667 16.8494C20.9622 16.8494 22.1586 18.0422 22.1586 19.5331Z" fill="#4C4D4F"/>
<path d="M25.1495 27.7831L22.2583 24.9006C21.4607 25.2982 20.4637 25.5964 19.4668 25.5964C16.077 25.5964 13.2855 22.8133 13.2855 19.4337C13.2855 16.0542 16.077 13.2711 19.4668 13.2711C20.4637 13.2711 21.361 13.4699 22.1586 13.8675L27.642 8.5H8.5V41.4006H16.8746L25.0499 33.25C24.6511 32.4548 24.352 31.4608 24.352 30.4669C24.4517 29.5723 24.7508 28.5783 25.1495 27.7831Z" fill="#546484"/>
<path d="M33.0257 8.5L24.8504 16.6506C25.3489 17.5452 25.5483 18.4398 25.5483 19.5331C25.5483 20.5271 25.3489 21.5211 24.8504 22.3163L27.642 25.0994C28.5393 24.7018 29.4366 24.4036 30.5332 24.4036C33.923 24.4036 36.7145 27.1867 36.7145 30.5663C36.7145 33.9458 33.923 36.7289 30.5332 36.7289C29.5363 36.7289 28.5393 36.5301 27.7417 36.0331L22.2583 41.5H41.5V8.5H33.0257Z" fill="#4C4D4F"/>
</svg>
