<svg width="50" height="50" viewBox="0 0 50 50" fill="none" xmlns="http://www.w3.org/2000/svg">
<path d="M25 3.125C12.9173 3.125 3.125 12.9173 3.125 25C3.125 37.0827 12.9173 46.875 25 46.875C37.0827 46.875 46.875 37.0783 46.875 25C46.875 12.9217 37.0783 3.125 25 3.125ZM24.9912 5.8227C35.5981 5.8227 44.1948 14.4194 44.1948 25.0263C44.1948 35.6331 35.5981 44.2299 24.9912 44.2299C14.3844 44.2299 5.78766 35.6288 5.78766 25.0263C5.78766 14.4238 14.3844 5.8227 24.9912 5.8227Z" fill="#5514B4"/>
<path d="M14.0947 17.5244V32.4187H20.1558C22.9104 32.4187 25.0257 30.6976 25.0257 27.9736C25.0257 25.5737 23.1513 24.654 23.1513 24.654C23.1513 24.654 24.5921 23.7344 24.5921 21.6936C24.5921 19.32 22.7177 17.5244 19.9543 17.5244H14.0947ZM17.4493 20.4323H19.2405C20.5149 20.4323 21.0667 21.0848 21.0667 21.895C21.0667 22.7709 20.4361 23.3271 19.3237 23.3271H17.4493V20.4323ZM17.4493 26.3094H19.2405C20.5149 26.3094 21.0667 26.962 21.0667 27.7722C21.0667 28.648 20.4361 29.2042 19.3237 29.2042H17.4493V26.3094Z" fill="#5514B4"/>
<path d="M29.5241 32.3704V20.9402H26.1738V17.498H36.5968V20.9402H33.102V32.3704H29.5241Z" fill="#5514B4"/>
</svg>
