<svg width="50" height="50" viewBox="0 0 50 50" fill="none" xmlns="http://www.w3.org/2000/svg">
<path d="M18.2776 44C11.0885 41.203 6 34.0178 6 25.6269C6 14.7767 14.4963 6 25 6C35.5037 6 44 14.7767 44 25.6269C44 28.1345 43.5332 30.5457 42.6929 32.7157C42.8796 31.5584 42.7396 30.3528 42.1327 29.2919C41.3391 27.8934 39.1916 27.1218 37.4177 28.231C34.4767 30.0152 36.6241 33.7766 31.1155 37.1523C26.8673 39.7563 22.7125 38.4061 20.4251 34.4518L36.9042 24.2767C39.3317 22.7817 39.7051 21.6244 38.2113 19.0685C34.6634 12.8477 26.3071 9.66498 17.9042 14.8249C9.26781 20.1777 7.49385 29.2437 12.5823 37.9721C13.9361 40.3832 15.8501 42.5533 18.2776 44ZM17.5774 28.9061L29.9017 21.3832C27.4742 18.8756 24.0197 18.2487 21.0786 20.033C17.7641 22.0584 16.7838 25.2411 17.5774 28.9061Z" fill="#7FC026"/>
</svg>
