<svg width="50" height="50" viewBox="0 0 50 50" fill="none" xmlns="http://www.w3.org/2000/svg">
<path d="M9 15.5012L13.2244 21.9623V36.3648H33.8386L20.2248 15.3211H26.1655L39.8888 36.3648L40.5164 37.1954C41.7009 38.7628 40.5751 41.0024 38.603 41L11.3021 40.968C10.6913 40.9674 10.1058 40.7257 9.67412 40.296C9.24246 39.8663 9 39.2838 9 38.6764V15.5012Z" fill="#050708"/>
<path d="M41 34.4989L36.7756 28.0377V13.6352H16.1622L29.7752 34.6789H23.8345L10.1112 13.6352L9.48359 12.8047C8.29915 11.2372 9.42566 8.9976 11.397 9L38.6987 9.03201C39.3094 9.03264 39.8949 9.27439 40.3264 9.7041C40.7579 10.1338 41.0002 10.7163 41 11.3236V34.4989Z" fill="#050708"/>
</svg>
