<svg width="50" height="50" viewBox="0 0 50 50" fill="none" xmlns="http://www.w3.org/2000/svg">
<path d="M41.6668 41.6666H8.3335V8.33325H41.6668V41.6666Z" fill="#E87C1D"/>
<path d="M24.835 38.833L22.0737 36.0718L24.835 33.3105L27.5962 36.0718L24.835 38.833Z" fill="white"/>
<path fill-rule="evenodd" clip-rule="evenodd" d="M24.8349 39.5439L28.307 36.0719L24.8349 32.5998L21.3628 36.0719L24.8349 39.5439ZM22.7845 36.0719L24.8349 34.0215L26.8853 36.0719L24.8349 38.1222L22.7845 36.0719Z" fill="white"/>
<path fill-rule="evenodd" clip-rule="evenodd" d="M25.3373 33.6826V16.7039H24.332V33.6826H25.3373Z" fill="white"/>
<path d="M24.835 16.6812L22.0737 13.922L24.835 11.1587L27.5962 13.922L24.835 16.6812Z" fill="white"/>
<path fill-rule="evenodd" clip-rule="evenodd" d="M24.8349 17.3916L28.307 13.9221L24.8349 10.4474L21.3628 13.9221L24.8349 17.3916ZM22.7845 13.9216L24.8349 11.8696L26.8853 13.9216L24.8349 15.9704L22.7845 13.9216Z" fill="white"/>
<path d="M38.6724 24.9958L35.9111 27.7571L33.1499 24.9958L35.9111 22.2346L38.6724 24.9958Z" fill="white"/>
<path fill-rule="evenodd" clip-rule="evenodd" d="M33.7301 24.7395H15.7407V25.2686H33.7301V24.7395Z" fill="white"/>
<path d="M16.52 24.9958L13.7588 27.7571L10.9976 24.9958L13.7588 22.2346L16.52 24.9958Z" fill="white"/>
<path d="M34.6191 34.78H30.7129V30.8758H34.6191V34.78Z" fill="white"/>
<path fill-rule="evenodd" clip-rule="evenodd" d="M30.21 35.2827H35.1215V30.3732H30.21V35.2827ZM31.2153 34.2774V31.3785H34.1162V34.2774H31.2153Z" fill="white"/>
<path d="M18.9712 19.1324L30.9752 31.1384Z" fill="white"/>
<path d="M18.9567 19.1179H15.0505V15.2116H18.9567V19.1179Z" fill="white"/>
<path fill-rule="evenodd" clip-rule="evenodd" d="M14.5479 19.6205H19.4594V14.709H14.5479V19.6205ZM15.5531 18.6152V15.7143H18.4541V18.6152H15.5531Z" fill="white"/>
<path d="M34.6191 19.1179H30.7129V15.2117H34.6191V19.1179Z" fill="white"/>
<path fill-rule="evenodd" clip-rule="evenodd" d="M30.21 19.6204H35.1215V14.7088H30.21V19.6204ZM31.2153 18.6151V15.7141H34.1162V18.6151H31.2153Z" fill="white"/>
<path d="M18.9712 30.8594L30.9752 18.8554Z" fill="white"/>
<path d="M18.957 30.8758L18.955 34.78H15.0508V30.8758H18.957Z" fill="white"/>
<path fill-rule="evenodd" clip-rule="evenodd" d="M14.5479 35.2827H19.4571L19.4597 30.3732H14.5479V35.2827ZM15.5531 34.2774V31.3785H18.4538L18.4523 34.2774H15.5531Z" fill="white"/>
<path fill-rule="evenodd" clip-rule="evenodd" d="M30.6197 18.4998L18.6157 30.5038L19.3266 31.2146L31.3305 19.2106L30.6197 18.4998Z" fill="white"/>
<path fill-rule="evenodd" clip-rule="evenodd" d="M31.3306 30.7829L19.3266 18.7768L18.6157 19.4876L30.6197 31.4937L31.3306 30.7829Z" fill="white"/>
<path d="M29.5471 21.3685L29.5533 28.5093C29.5533 29.6191 27.4411 30.5161 24.8348 30.5161C22.2286 30.5161 20.1143 29.6191 20.1143 28.5093L20.1246 21.3788L29.5471 21.3685Z" fill="white"/>
<path d="M29.5533 21.1907C29.5533 22.3006 27.4411 23.1996 24.8348 23.1996C22.2286 23.1996 20.1143 22.3006 20.1143 21.1907C20.1143 20.0829 22.2286 19.1838 24.8348 19.1838C27.4411 19.1838 29.5533 20.0829 29.5533 21.1907Z" fill="white"/>
<path fill-rule="evenodd" clip-rule="evenodd" d="M21.3993 22.8415C22.2915 23.2211 23.5064 23.4497 24.8348 23.4497C26.1633 23.4497 27.3777 23.2211 28.2693 22.8415C28.7147 22.6519 29.0911 22.4197 29.3599 22.1491C29.6298 21.8774 29.8033 21.5533 29.8033 21.1908C29.8033 20.8286 29.6296 20.5049 29.3598 20.2336C29.091 19.9633 28.7146 19.7313 28.2693 19.5419C27.3777 19.1626 26.1633 18.9339 24.8348 18.9339C23.5064 18.9339 22.2915 19.1626 21.3994 19.5419C20.9538 19.7313 20.5771 19.9632 20.3082 20.2335C20.0382 20.5047 19.8643 20.8285 19.8643 21.1908C19.8643 21.5534 20.038 21.8775 20.308 22.1492C20.577 22.4197 20.9537 22.6519 21.3993 22.8415ZM20.6626 21.7966C20.4548 21.5875 20.3643 21.3831 20.3643 21.1908C20.3643 20.9992 20.4546 20.7951 20.6625 20.5862C20.8714 20.3763 21.1862 20.1758 21.595 20.002C22.4117 19.6548 23.5571 19.4339 24.8348 19.4339C26.1126 19.4339 27.2575 19.6548 28.0735 20.002C28.4821 20.1758 28.7966 20.3763 29.0053 20.5861C29.213 20.795 29.3033 20.9991 29.3033 21.1908C29.3033 21.3831 29.2129 21.5876 29.0052 21.7967C28.7965 22.0068 28.482 22.2075 28.0735 22.3814C27.2574 22.7288 26.1126 22.9497 24.8348 22.9497C23.5571 22.9497 22.4117 22.7288 21.5951 22.3814C21.1863 22.2075 20.8715 22.0068 20.6626 21.7966Z" fill="#E87C1D"/>
</svg>
