<svg width="50" height="50" viewBox="0 0 50 50" fill="none" xmlns="http://www.w3.org/2000/svg">
<rect width="50" height="50" fill="#FF1515"/>
<path d="M27.1827 16.8173V30H36V8H14V16.8173H27.1827Z" fill="white"/>
<path d="M22.7741 21.1826H14V29.9783H22.7741V21.1826Z" fill="white"/>
<path d="M24.5039 34.793C25.0378 34.793 25.4902 34.8955 25.8613 35.1006C26.2357 35.3024 26.5205 35.5677 26.7158 35.8965C26.9111 36.222 27.0088 36.5703 27.0088 36.9414H26.0713C26.0713 36.6745 26.0143 36.4385 25.9004 36.2334C25.7865 36.0251 25.6139 35.8623 25.3828 35.7451C25.1517 35.6247 24.8587 35.5645 24.5039 35.5645C24.1686 35.5645 23.8919 35.6149 23.6738 35.7158C23.4557 35.8167 23.293 35.9535 23.1855 36.126C23.0814 36.2985 23.0293 36.4954 23.0293 36.7168C23.0293 36.8665 23.0602 37.0033 23.1221 37.127C23.1872 37.2474 23.2865 37.3597 23.4199 37.4639C23.5566 37.568 23.7292 37.6641 23.9375 37.752C24.1491 37.8398 24.4014 37.9245 24.6943 38.0059C25.098 38.1198 25.4463 38.2467 25.7393 38.3867C26.0322 38.5267 26.2731 38.6846 26.4619 38.8604C26.654 39.0329 26.7956 39.2298 26.8867 39.4512C26.9811 39.6693 27.0283 39.9167 27.0283 40.1934C27.0283 40.4831 26.9697 40.7451 26.8525 40.9795C26.7354 41.2139 26.5677 41.4141 26.3496 41.5801C26.1315 41.7461 25.8695 41.8747 25.5635 41.9658C25.2607 42.0537 24.9222 42.0977 24.5479 42.0977C24.2191 42.0977 23.8952 42.0521 23.5762 41.9609C23.2604 41.8698 22.9723 41.7331 22.7119 41.5508C22.4548 41.3685 22.248 41.1439 22.0918 40.877C21.9388 40.6068 21.8623 40.2943 21.8623 39.9395H22.7998C22.7998 40.1836 22.847 40.3936 22.9414 40.5693C23.0358 40.7419 23.1644 40.8851 23.3271 40.999C23.4932 41.113 23.6803 41.1976 23.8887 41.2529C24.1003 41.305 24.32 41.3311 24.5479 41.3311C24.8766 41.3311 25.1549 41.2855 25.3828 41.1943C25.6107 41.1032 25.7832 40.973 25.9004 40.8037C26.0208 40.6344 26.0811 40.4342 26.0811 40.2031C26.0811 40.0371 26.055 39.8906 26.0029 39.7637C25.9541 39.6335 25.8662 39.5163 25.7393 39.4121C25.6156 39.3079 25.443 39.2087 25.2217 39.1143C25.0036 39.0199 24.7269 38.9238 24.3916 38.8262C24.04 38.722 23.7227 38.6064 23.4395 38.4795C23.1562 38.3493 22.9137 38.2012 22.7119 38.0352C22.5101 37.8691 22.3555 37.6787 22.248 37.4639C22.1406 37.249 22.0869 37.0033 22.0869 36.7266C22.0869 36.4499 22.1439 36.1943 22.2578 35.96C22.3717 35.7256 22.5345 35.5221 22.7461 35.3496C22.9609 35.1738 23.2165 35.0371 23.5127 34.9395C23.8089 34.8418 24.1393 34.793 24.5039 34.793Z" fill="white"/>
<path d="M14.8359 42H13.8936V34.8906H14.8359V42Z" fill="white"/>
<path d="M21.3154 35.6621H19.0303V42H18.1025V35.6621H15.8223V34.8906H21.3154V35.6621Z" fill="white"/>
<path d="M31.7695 40.6865L34.0938 34.8906H35.3047V42H34.3672V39.2266L34.457 36.2529L32.1211 42H31.4082L29.0762 36.2451L29.167 39.2266V42H28.2295V34.8906H29.4404L31.7695 40.6865Z" fill="white"/>
</svg>
