<svg width="50" height="50" viewBox="0 0 50 50" fill="none" xmlns="http://www.w3.org/2000/svg">
<path d="M27.9764 18.0236V36H40V6H10V18.0236H27.9764Z" fill="#FF1515"/>
<path d="M21.9646 23.9765H10V35.9706H21.9646V23.9765Z" fill="#FF1515"/>
<path d="M24.5166 47.4404V48.207H20.752V47.4404H24.5166ZM20.9424 41.0977V48.207H20V41.0977H20.9424ZM24.0186 44.1543V44.9209H20.752V44.1543H24.0186ZM24.4678 41.0977V41.8691H20.752V41.0977H24.4678Z" fill="#1C1D1F"/>
<path d="M29.4727 46.4102C29.4727 46.2441 29.4466 46.0977 29.3945 45.9707C29.3457 45.8405 29.2578 45.7233 29.1309 45.6191C29.0072 45.515 28.8346 45.4157 28.6133 45.3213C28.3952 45.2269 28.1185 45.1309 27.7832 45.0332C27.4316 44.929 27.1143 44.8135 26.8311 44.6865C26.5479 44.5563 26.3053 44.4082 26.1035 44.2422C25.9017 44.0762 25.7471 43.8857 25.6396 43.6709C25.5322 43.4561 25.4785 43.2103 25.4785 42.9336C25.4785 42.6569 25.5355 42.4014 25.6494 42.167C25.7633 41.9326 25.9261 41.7292 26.1377 41.5566C26.3525 41.3809 26.6081 41.2441 26.9043 41.1465C27.2005 41.0488 27.5309 41 27.8955 41C28.4294 41 28.8818 41.1025 29.2529 41.3076C29.6273 41.5094 29.9121 41.7747 30.1074 42.1035C30.3027 42.429 30.4004 42.7773 30.4004 43.1484H29.4629C29.4629 42.8815 29.4059 42.6455 29.292 42.4404C29.1781 42.2321 29.0055 42.0693 28.7744 41.9521C28.5433 41.8317 28.2503 41.7715 27.8955 41.7715C27.5602 41.7715 27.2835 41.8219 27.0654 41.9229C26.8473 42.0238 26.6846 42.1605 26.5771 42.333C26.473 42.5055 26.4209 42.7025 26.4209 42.9238C26.4209 43.0736 26.4518 43.2103 26.5137 43.334C26.5788 43.4544 26.6781 43.5667 26.8115 43.6709C26.9482 43.7751 27.1208 43.8711 27.3291 43.959C27.5407 44.0469 27.793 44.1315 28.0859 44.2129C28.4896 44.3268 28.8379 44.4538 29.1309 44.5938C29.4238 44.7337 29.6647 44.8916 29.8535 45.0674C30.0456 45.2399 30.1872 45.4368 30.2783 45.6582C30.3727 45.8763 30.4199 46.1237 30.4199 46.4004C30.4199 46.6901 30.3613 46.9521 30.2441 47.1865C30.127 47.4209 29.9593 47.6211 29.7412 47.7871C29.5231 47.9531 29.2611 48.0817 28.9551 48.1729C28.6523 48.2607 28.3138 48.3047 27.9395 48.3047C27.6107 48.3047 27.2868 48.2591 26.9678 48.168C26.652 48.0768 26.3639 47.9401 26.1035 47.7578C25.8464 47.5755 25.6396 47.3509 25.4834 47.084C25.3304 46.8138 25.2539 46.5013 25.2539 46.1465H26.1914C26.1914 46.3906 26.2386 46.6006 26.333 46.7764C26.4274 46.9489 26.556 47.0921 26.7188 47.2061C26.8848 47.32 27.0719 47.4046 27.2803 47.46C27.4919 47.512 27.7116 47.5381 27.9395 47.5381C28.2682 47.5381 28.5465 47.4925 28.7744 47.4014C29.0023 47.3102 29.1748 47.18 29.292 47.0107C29.4124 46.8415 29.4727 46.6413 29.4727 46.4102Z" fill="#1C1D1F"/>
</svg>
