<svg width="50" height="50" viewBox="0 0 50 50" fill="none" xmlns="http://www.w3.org/2000/svg">
<path d="M27.9764 18.0236V36H40V6H10V18.0236H27.9764Z" fill="#FF1515"/>
<path d="M21.9646 23.9765H10V35.9706H21.9646V23.9765Z" fill="#FF1515"/>
<path d="M22.6143 45.2031C22.6143 45.8923 22.0704 46.3311 21.0811 46.3311C20.1797 46.3311 19.333 45.9146 19.333 44.9395H18.3955C18.3955 46.3373 19.81 47.0977 21.0811 47.0977C22.5928 47.0977 23.5615 46.3485 23.5615 45.1934C23.5615 44.081 22.8398 43.4609 21.2275 43.0059C20.073 42.6851 19.5625 42.3178 19.5625 41.7168C19.5625 41.049 20.0341 40.5645 21.0371 40.5645C22.0933 40.5645 22.6045 41.1326 22.6045 41.9414H23.542C23.542 40.5767 22.2729 39.793 21.0371 39.793C19.5908 39.793 18.6201 40.6105 18.6201 41.7266C18.6201 42.8321 19.514 43.4081 20.9248 43.8262C22.2846 44.2222 22.6143 44.5396 22.6143 45.2031Z" fill="black"/>
<path d="M29.9922 44.7393H29.0547C28.899 45.7317 28.5003 46.3311 27.2969 46.3311C26.0289 46.3311 25.4609 45.1954 25.4609 43.8018C25.4609 42.4453 25.6585 40.5645 27.3799 40.5645C28.4795 40.5645 28.917 41.1676 29.0547 42.1709H29.9922C29.8414 40.7237 28.8105 39.793 27.3799 39.793C25.104 39.793 24.5234 41.9474 24.5234 43.8018C24.5234 45.474 25.5087 47.0977 27.2969 47.0977C28.7597 47.0977 29.8355 46.1812 29.9922 44.7393Z" fill="black"/>
</svg>
