<svg width="50" height="50" viewBox="0 0 50 50" fill="none" xmlns="http://www.w3.org/2000/svg">
<rect width="50" height="50" fill="#FF1515"/>
<path d="M14.5146 35V40.9187H13.7583L10.9008 36.3537V40.9187H10.1484V35H10.9008L13.77 39.5772V35H14.5146Z" fill="white"/>
<path d="M17.4891 41C17.1954 41 16.929 40.9485 16.6899 40.8455C16.4534 40.7398 16.2494 40.5921 16.0779 40.4024C15.9089 40.2127 15.779 39.9878 15.688 39.7276C15.5971 39.4675 15.5516 39.1829 15.5516 38.874V38.7033C15.5516 38.3455 15.6023 38.0271 15.7036 37.748C15.805 37.4661 15.9427 37.2276 16.1168 37.0325C16.291 36.8374 16.4885 36.6897 16.7094 36.5894C16.9303 36.4892 17.159 36.439 17.3955 36.439C17.697 36.439 17.9569 36.4932 18.1752 36.6016C18.3961 36.71 18.5767 36.8618 18.7171 37.0569C18.8574 37.2493 18.9614 37.477 19.0289 37.7398C19.0965 38 19.1303 38.2846 19.1303 38.5935V38.9309H15.9804V38.3171H18.4091V38.2602C18.3987 38.065 18.3597 37.8753 18.2921 37.6911C18.2272 37.5068 18.1232 37.355 17.9803 37.2358C17.8373 37.1165 17.6424 37.0569 17.3955 37.0569C17.2318 37.0569 17.081 37.0935 16.9433 37.1667C16.8056 37.2371 16.6873 37.3428 16.5886 37.4837C16.4898 37.6247 16.4131 37.7967 16.3585 38C16.304 38.2033 16.2767 38.4377 16.2767 38.7033V38.874C16.2767 39.0827 16.304 39.2791 16.3585 39.4634C16.4157 39.645 16.4976 39.8049 16.6041 39.9431C16.7133 40.0813 16.8445 40.1897 16.9979 40.2683C17.1538 40.3469 17.3305 40.3862 17.5281 40.3862C17.7828 40.3862 17.9985 40.332 18.1752 40.2236C18.3519 40.1152 18.5065 39.9702 18.6391 39.7886L19.0757 40.1504C18.9848 40.294 18.8691 40.4309 18.7288 40.561C18.5884 40.6911 18.4156 40.7967 18.2103 40.878C18.0076 40.9593 17.7672 41 17.4891 41Z" fill="white"/>
<path d="M22.5531 39.9024V36.5203H23.2782V40.9187H22.5881L22.5531 39.9024ZM22.6895 38.9756L22.9897 38.9675C22.9897 39.2602 22.9598 39.5312 22.9 39.7805C22.8428 40.0271 22.7493 40.2412 22.6193 40.4228C22.4894 40.6043 22.3192 40.7466 22.1086 40.8496C21.8981 40.9499 21.6421 41 21.3407 41C21.1354 41 20.9469 40.9688 20.7754 40.9065C20.6065 40.8442 20.4609 40.748 20.3388 40.6179C20.2166 40.4878 20.1218 40.3184 20.0542 40.1098C19.9892 39.9011 19.9567 39.6504 19.9567 39.3577V36.5203H20.6779V39.3659C20.6779 39.5637 20.6987 39.7276 20.7403 39.8577C20.7845 39.9851 20.843 40.0867 20.9157 40.1626C20.9911 40.2358 21.0743 40.2873 21.1652 40.3171C21.2588 40.3469 21.355 40.3618 21.4537 40.3618C21.7604 40.3618 22.0034 40.3008 22.1827 40.1789C22.362 40.0542 22.4907 39.8875 22.5687 39.6789C22.6492 39.4675 22.6895 39.2331 22.6895 38.9756Z" fill="white"/>
<path d="M25.0987 37.2114V40.9187H24.3775V36.5203H25.0792L25.0987 37.2114ZM26.4163 36.4959L26.4125 37.1951C26.3527 37.1816 26.2955 37.1734 26.2409 37.1707C26.1889 37.1653 26.1292 37.1626 26.0616 37.1626C25.8953 37.1626 25.7484 37.1897 25.6211 37.2439C25.4937 37.2981 25.3859 37.374 25.2975 37.4715C25.2092 37.5691 25.139 37.6856 25.087 37.8211C25.0376 37.9539 25.0051 38.1003 24.9895 38.2602L24.7868 38.3821C24.7868 38.1165 24.8115 37.8672 24.8609 37.6341C24.9129 37.4011 24.9921 37.1951 25.0987 37.0163C25.2053 36.8347 25.3404 36.6938 25.5041 36.5935C25.6705 36.4905 25.868 36.439 26.0967 36.439C26.1487 36.439 26.2084 36.4458 26.276 36.4593C26.3436 36.4702 26.3904 36.4824 26.4163 36.4959Z" fill="white"/>
<path d="M26.814 38.7683V38.6748C26.814 38.3577 26.8582 38.0637 26.9465 37.7927C27.0349 37.519 27.1622 37.2818 27.3286 37.0813C27.4949 36.878 27.6963 36.7209 27.9328 36.6098C28.1693 36.4959 28.4344 36.439 28.7281 36.439C29.0244 36.439 29.2908 36.4959 29.5273 36.6098C29.7664 36.7209 29.9691 36.878 30.1354 37.0813C30.3043 37.2818 30.433 37.519 30.5213 37.7927C30.6097 38.0637 30.6539 38.3577 30.6539 38.6748V38.7683C30.6539 39.0854 30.6097 39.3794 30.5213 39.6504C30.433 39.9214 30.3043 40.1585 30.1354 40.3618C29.9691 40.5623 29.7677 40.7195 29.5312 40.8333C29.2972 40.9444 29.0322 41 28.7359 41C28.4396 41 28.1732 40.9444 27.9367 40.8333C27.7002 40.7195 27.4975 40.5623 27.3286 40.3618C27.1622 40.1585 27.0349 39.9214 26.9465 39.6504C26.8582 39.3794 26.814 39.0854 26.814 38.7683ZM27.5352 38.6748V38.7683C27.5352 38.9878 27.5599 39.1951 27.6093 39.3902C27.6586 39.5827 27.7327 39.7534 27.8315 39.9024C27.9328 40.0515 28.0589 40.1694 28.2096 40.2561C28.3603 40.3401 28.5358 40.3821 28.7359 40.3821C28.9334 40.3821 29.1062 40.3401 29.2544 40.2561C29.4051 40.1694 29.5299 40.0515 29.6286 39.9024C29.7274 39.7534 29.8014 39.5827 29.8508 39.3902C29.9028 39.1951 29.9288 38.9878 29.9288 38.7683V38.6748C29.9288 38.458 29.9028 38.2534 29.8508 38.061C29.8014 37.8659 29.7261 37.6938 29.6247 37.5447C29.526 37.393 29.4012 37.2737 29.2505 37.187C29.1023 37.1003 28.9282 37.0569 28.7281 37.0569C28.5306 37.0569 28.3564 37.1003 28.2057 37.187C28.0576 37.2737 27.9328 37.393 27.8315 37.5447C27.7327 37.6938 27.6586 37.8659 27.6093 38.061C27.5599 38.2534 27.5352 38.458 27.5352 38.6748Z" fill="white"/>
<path d="M32.2795 37.4593V40.9187H31.5583V36.5203H32.2405L32.2795 37.4593ZM32.108 38.5528L31.8078 38.5407C31.8104 38.2398 31.8533 37.9621 31.9364 37.7073C32.0196 37.4499 32.1366 37.2263 32.2873 37.0366C32.438 36.8469 32.6174 36.7005 32.8253 36.5976C33.0358 36.4919 33.2684 36.439 33.5231 36.439C33.731 36.439 33.9181 36.4688 34.0844 36.5285C34.2508 36.5854 34.3924 36.6775 34.5094 36.8049C34.6289 36.9322 34.7199 37.0976 34.7823 37.3008C34.8446 37.5014 34.8758 37.7466 34.8758 38.0366V40.9187H34.1507V38.0285C34.1507 37.7981 34.1182 37.6138 34.0533 37.4756C33.9883 37.3347 33.8934 37.2331 33.7687 37.1707C33.6439 37.1057 33.4906 37.0732 33.3087 37.0732C33.1293 37.0732 32.9656 37.1125 32.8175 37.1911C32.6719 37.2696 32.5459 37.378 32.4393 37.5163C32.3354 37.6545 32.2535 37.813 32.1937 37.9919C32.1366 38.168 32.108 38.355 32.108 38.5528Z" fill="white"/>
<path d="M38.4272 39.752C38.4272 39.6436 38.4038 39.5434 38.3571 39.4512C38.3129 39.3564 38.2206 39.271 38.0803 39.1951C37.9425 39.1165 37.7346 39.0488 37.4565 38.9919C37.2226 38.9404 37.0108 38.8794 36.8211 38.8089C36.634 38.7385 36.4742 38.6531 36.3416 38.5528C36.2117 38.4526 36.1116 38.3347 36.0414 38.1992C35.9713 38.0637 35.9362 37.9051 35.9362 37.7236C35.9362 37.5501 35.9726 37.3862 36.0453 37.2317C36.1207 37.0772 36.226 36.9404 36.3611 36.8211C36.4988 36.7019 36.6639 36.6084 36.8562 36.5407C37.0485 36.4729 37.2629 36.439 37.4994 36.439C37.8373 36.439 38.1258 36.5014 38.3649 36.626C38.604 36.7507 38.7872 36.9173 38.9145 37.126C39.0419 37.332 39.1056 37.561 39.1056 37.813H38.3844C38.3844 37.6911 38.3493 37.5732 38.2791 37.4593C38.2115 37.3428 38.1115 37.2466 37.9789 37.1707C37.849 37.0949 37.6891 37.0569 37.4994 37.0569C37.2993 37.0569 37.1369 37.0894 37.0121 37.1545C36.89 37.2168 36.8003 37.2967 36.7431 37.3943C36.6886 37.4919 36.6613 37.5949 36.6613 37.7033C36.6613 37.7846 36.6743 37.8577 36.7003 37.9228C36.7288 37.9851 36.7782 38.0434 36.8484 38.0976C36.9186 38.1491 37.0173 38.1978 37.1447 38.2439C37.272 38.29 37.4345 38.336 37.632 38.3821C37.9776 38.4634 38.2622 38.561 38.4857 38.6748C38.7092 38.7886 38.8756 38.9282 38.9847 39.0935C39.0939 39.2588 39.1484 39.4593 39.1484 39.6951C39.1484 39.8875 39.1095 40.0637 39.0315 40.2236C38.9561 40.3835 38.8457 40.5217 38.7001 40.6382C38.5572 40.752 38.3857 40.8415 38.1855 40.9065C37.988 40.9688 37.7658 41 37.5189 41C37.1473 41 36.8328 40.9309 36.5755 40.7927C36.3182 40.6545 36.1233 40.4756 35.9908 40.2561C35.8582 40.0366 35.7919 39.8049 35.7919 39.561H36.517C36.5274 39.7669 36.5846 39.9309 36.6886 40.0528C36.7925 40.1721 36.9199 40.2575 37.0706 40.3089C37.2213 40.3577 37.3708 40.3821 37.5189 40.3821C37.7164 40.3821 37.8815 40.355 38.014 40.3008C38.1492 40.2466 38.2518 40.1721 38.322 40.0772C38.3922 39.9824 38.4272 39.874 38.4272 39.752Z" fill="white"/>
<path d="M27.5296 18.6189V33H37.1484V9H13.1484V18.6189H27.5296Z" fill="white"/>
<path d="M22.7201 23.3812H13.1484V32.9765H22.7201V23.3812Z" fill="white"/>
</svg>
