<svg width="50" height="50" viewBox="0 0 50 50" fill="none" xmlns="http://www.w3.org/2000/svg">
<path d="M22.2803 45.2031C22.2803 45.0371 22.2542 44.8906 22.2021 44.7637C22.1533 44.6335 22.0654 44.5163 21.9385 44.4121C21.8148 44.3079 21.6423 44.2087 21.4209 44.1143C21.2028 44.0199 20.9261 43.9238 20.5908 43.8262C20.2393 43.722 19.9219 43.6064 19.6387 43.4795C19.3555 43.3493 19.113 43.2012 18.9111 43.0352C18.7093 42.8691 18.5547 42.6787 18.4473 42.4639C18.3398 42.249 18.2861 42.0033 18.2861 41.7266C18.2861 41.4499 18.3431 41.1943 18.457 40.96C18.571 40.7256 18.7337 40.5221 18.9453 40.3496C19.1602 40.1738 19.4157 40.0371 19.7119 39.9395C20.0081 39.8418 20.3385 39.793 20.7031 39.793C21.237 39.793 21.6895 39.8955 22.0605 40.1006C22.4349 40.3024 22.7197 40.5677 22.915 40.8965C23.1104 41.222 23.208 41.5703 23.208 41.9414H22.2705C22.2705 41.6745 22.2135 41.4385 22.0996 41.2334C21.9857 41.0251 21.8132 40.8623 21.582 40.7451C21.3509 40.6247 21.0579 40.5645 20.7031 40.5645C20.3678 40.5645 20.0911 40.6149 19.873 40.7158C19.6549 40.8167 19.4922 40.9535 19.3848 41.126C19.2806 41.2985 19.2285 41.4954 19.2285 41.7168C19.2285 41.8665 19.2594 42.0033 19.3213 42.127C19.3864 42.2474 19.4857 42.3597 19.6191 42.4639C19.7559 42.568 19.9284 42.6641 20.1367 42.752C20.3483 42.8398 20.6006 42.9245 20.8936 43.0059C21.2972 43.1198 21.6455 43.2467 21.9385 43.3867C22.2314 43.5267 22.4723 43.6846 22.6611 43.8604C22.8532 44.0329 22.9948 44.2298 23.0859 44.4512C23.1803 44.6693 23.2275 44.9167 23.2275 45.1934C23.2275 45.4831 23.1689 45.7451 23.0518 45.9795C22.9346 46.2139 22.7669 46.4141 22.5488 46.5801C22.3307 46.7461 22.0687 46.8747 21.7627 46.9658C21.46 47.0537 21.1214 47.0977 20.7471 47.0977C20.4183 47.0977 20.0944 47.0521 19.7754 46.9609C19.4596 46.8698 19.1715 46.7331 18.9111 46.5508C18.654 46.3685 18.4473 46.1439 18.291 45.877C18.138 45.6068 18.0615 45.2943 18.0615 44.9395H18.999C18.999 45.1836 19.0462 45.3936 19.1406 45.5693C19.235 45.7419 19.3636 45.8851 19.5264 45.999C19.6924 46.113 19.8796 46.1976 20.0879 46.2529C20.2995 46.305 20.5192 46.3311 20.7471 46.3311C21.0758 46.3311 21.3542 46.2855 21.582 46.1943C21.8099 46.1032 21.9824 45.973 22.0996 45.8037C22.2201 45.6344 22.2803 45.4342 22.2803 45.2031Z" fill="#1C1D1F"/>
<path d="M24.7266 39.8906H25.6396L27.9688 45.6865L30.293 39.8906H31.2109L28.3203 47H27.6074L24.7266 39.8906ZM24.4287 39.8906H25.2344L25.3662 44.2266V47H24.4287V39.8906ZM30.6982 39.8906H31.5039V47H30.5664V44.2266L30.6982 39.8906Z" fill="#1C1D1F"/>
<path d="M27.9764 18.0236V36H40V6H10V18.0236H27.9764Z" fill="#FF1515"/>
<path d="M21.9646 23.9765H10V35.9706H21.9646V23.9765Z" fill="#FF1515"/>
</svg>
