<svg width="50" height="50" viewBox="0 0 50 50" fill="none" xmlns="http://www.w3.org/2000/svg">
<rect width="50" height="50" fill="#FF1515"/>
<path d="M27.5796 17.4204V33H38V7H12V17.4204H27.5796Z" fill="white"/>
<path d="M22.3693 22.5796H12V32.9745H22.3693V22.5796Z" fill="white"/>
<path fill-rule="evenodd" clip-rule="evenodd" d="M32.1797 36V38.6242L32.1881 38.6133C32.5181 38.1903 32.9813 37.9521 33.5306 37.9521C34.4328 37.9521 35 38.4299 35 39.7198V42.9088H34.2123V39.7108C34.2123 38.9359 33.8842 38.6538 33.2976 38.6538C32.7994 38.6538 32.4018 38.9662 32.1797 39.4357V42.9088H31.3962V36H32.1797ZM28.6903 42.315C29.2518 42.315 29.7281 41.9144 29.7701 41.3705H30.5154C30.4681 42.335 29.5458 42.9987 28.6903 42.9987C27.324 42.9987 26.6534 41.878 26.6534 40.5699C26.6534 39.2344 27.2565 37.9521 28.6903 37.9521C29.7616 37.9521 30.4729 38.7041 30.5154 39.7153H29.7701C29.7281 39.1169 29.3211 38.6358 28.6903 38.6358C27.7027 38.6358 27.4368 39.6767 27.4368 40.5699C27.4368 41.4105 27.7639 42.315 28.6903 42.315ZM25.9377 38.6807V38.042H25.0823V36.8591H24.2989V38.042H23.4604V38.6807H24.2989V41.6988C24.2989 42.7032 25.0295 43.2229 25.9589 42.9088L25.9546 42.2296C25.5014 42.3407 25.0823 42.2572 25.0823 41.7033V38.6807H25.9377ZM22.0213 42.3944C22.0396 42.5683 22.0642 42.7474 22.1307 42.9088H22.948C22.948 42.7285 22.8531 42.5458 22.8252 42.3645C22.6988 41.455 22.7871 40.4961 22.7871 39.5803C22.7871 38.4929 22.0892 37.9521 21.0847 37.9521C20.2682 37.9521 19.6495 38.3521 19.3908 38.8742C19.3061 39.0451 19.2638 39.2175 19.2638 39.3914H20.0472C20.0472 38.9811 20.4538 38.6223 21.0381 38.6223C21.6717 38.6223 22.0036 38.9927 22.0036 39.5713V39.9581C20.9022 39.9581 19.1664 39.9867 19.1664 41.5549C19.1664 42.4607 19.932 42.9987 20.7163 42.9987C21.2916 42.9987 21.7319 42.7164 22.0213 42.3944ZM22.0036 41.5405V40.5429C21.343 40.5429 19.954 40.3874 19.954 41.4425C19.954 41.9025 20.2577 42.2701 20.8306 42.2701C21.3071 42.2701 21.7858 41.9998 22.0036 41.5405ZM14.8173 40.3405H16.274C17.6746 40.3405 18.438 39.6149 18.438 38.3569C18.438 37.1907 17.6681 36.3598 16.274 36.3598H14V42.9088H14.8173V40.3405ZM14.8173 39.6343V37.0705H16.274C17.2291 37.0705 17.6207 37.6925 17.6207 38.3659C17.6207 39.1005 17.2331 39.6343 16.274 39.6343H14.8173Z" fill="white"/>
</svg>
