<svg width="50" height="50" viewBox="0 0 50 50" fill="none" xmlns="http://www.w3.org/2000/svg">
<rect width="50" height="50" fill="#FF1515"/>
<path d="M23.4522 41.4439C23.4522 41.3075 23.4309 41.1872 23.3883 41.0829C23.3483 40.9759 23.2764 40.8797 23.1725 40.7941C23.0713 40.7086 22.9301 40.627 22.749 40.5495C22.5705 40.4719 22.3441 40.393 22.0697 40.3128C21.7821 40.2273 21.5223 40.1324 21.2906 40.0281C21.0588 39.9211 20.8604 39.7995 20.6952 39.6631C20.5301 39.5267 20.4036 39.3703 20.3157 39.1939C20.2278 39.0174 20.1838 38.8155 20.1838 38.5882C20.1838 38.361 20.2304 38.1511 20.3236 37.9586C20.4169 37.766 20.5501 37.5989 20.7232 37.4572C20.899 37.3128 21.1081 37.2005 21.3505 37.1203C21.5929 37.0401 21.8633 37 22.1616 37C22.5985 37 22.9688 37.0842 23.2724 37.2527C23.5788 37.4184 23.8118 37.6364 23.9717 37.9064C24.1315 38.1738 24.2114 38.4599 24.2114 38.7647H23.4442C23.4442 38.5455 23.3976 38.3516 23.3044 38.1832C23.2112 38.012 23.07 37.8783 22.8809 37.7821C22.6917 37.6832 22.452 37.6337 22.1616 37.6337C21.8873 37.6337 21.6609 37.6751 21.4824 37.758C21.3039 37.8409 21.1707 37.9532 21.0828 38.0949C20.9976 38.2366 20.955 38.3984 20.955 38.5802C20.955 38.7032 20.9803 38.8155 21.0309 38.9171C21.0842 39.016 21.1654 39.1083 21.2746 39.1939C21.3865 39.2794 21.5277 39.3583 21.6981 39.4305C21.8713 39.5027 22.0777 39.5722 22.3175 39.639C22.6478 39.7326 22.9328 39.8369 23.1725 39.9519C23.4123 40.0668 23.6094 40.1965 23.7639 40.3409C23.9211 40.4826 24.0369 40.6444 24.1115 40.8262C24.1888 41.0053 24.2274 41.2086 24.2274 41.4358C24.2274 41.6738 24.1794 41.889 24.0835 42.0816C23.9876 42.2741 23.8505 42.4385 23.672 42.5749C23.4935 42.7112 23.2791 42.8168 23.0287 42.8917C22.781 42.9639 22.5039 43 22.1976 43C21.9286 43 21.6635 42.9626 21.4025 42.8877C21.1441 42.8128 20.9083 42.7005 20.6952 42.5508C20.4848 42.4011 20.3157 42.2166 20.1878 41.9973C20.0626 41.7754 20 41.5187 20 41.2273H20.7672C20.7672 41.4278 20.8058 41.6003 20.883 41.7447C20.9603 41.8864 21.0655 42.004 21.1987 42.0976C21.3345 42.1912 21.4877 42.2607 21.6582 42.3061C21.8313 42.3489 22.0111 42.3703 22.1976 42.3703C22.4666 42.3703 22.6944 42.3329 22.8809 42.258C23.0673 42.1832 23.2085 42.0762 23.3044 41.9372C23.403 41.7981 23.4522 41.6337 23.4522 41.4439Z" fill="white"/>
<path d="M25.4541 37.0802H26.2012L28.1072 41.8409L30.0091 37.0802H30.7603L28.3948 42.9198H27.8115L25.4541 37.0802ZM25.2103 37.0802H25.8696L25.9775 40.6417V42.9198H25.2103V37.0802ZM30.3407 37.0802H31V42.9198H30.2328V40.6417L30.3407 37.0802Z" fill="white"/>
<path d="M28.1788 17.8212V34H39V7H12V17.8212H28.1788Z" fill="white"/>
<path d="M22.7682 23.1788H12V33.9735H22.7682V23.1788Z" fill="white"/>
</svg>
