<svg width="50" height="50" viewBox="0 0 50 50" fill="none" xmlns="http://www.w3.org/2000/svg">
<rect width="50" height="50" fill="#FF1515"/>
<path d="M27.9804 18.0196V33H38V8H13V18.0196H27.9804Z" fill="white"/>
<path d="M22.9705 22.9804H13V32.9755H22.9705V22.9804Z" fill="white"/>
<path d="M24.0017 40.4439C24.0017 41.01 23.4858 41.3703 22.5474 41.3703C21.6924 41.3703 20.8893 41.0283 20.8893 40.2273H20C20 41.3755 21.3417 42 22.5474 42C23.9814 42 24.9002 41.3847 24.9002 40.4358C24.9002 39.5221 24.2157 39.0128 22.6863 38.639C21.5912 38.3756 21.1069 38.0738 21.1069 37.5802C21.1069 37.0317 21.5542 36.6337 22.5057 36.6337C23.5075 36.6337 23.9924 37.1003 23.9924 37.7647H24.8817C24.8817 36.6437 23.6779 36 22.5057 36C21.1338 36 20.2131 36.6715 20.2131 37.5882C20.2131 38.4963 21.0609 38.9695 22.3992 39.3128C23.6889 39.6381 24.0017 39.8988 24.0017 40.4439Z" fill="white"/>
<path d="M31 40.0628H30.1107C29.9631 40.878 29.5849 41.3703 28.4434 41.3703C27.2406 41.3703 26.7019 40.4375 26.7019 39.2928C26.7019 38.1786 26.8893 36.6337 28.5221 36.6337C29.5651 36.6337 29.9801 37.1291 30.1107 37.9532H31C30.857 36.7645 29.8791 36 28.5221 36C26.3633 36 25.8126 37.7696 25.8126 39.2928C25.8126 40.6664 26.7472 42 28.4434 42C29.831 42 30.8513 41.2472 31 40.0628Z" fill="white"/>
</svg>
