<svg width="50" height="50" viewBox="0 0 50 50" fill="none" xmlns="http://www.w3.org/2000/svg">
<rect width="50" height="50" fill="#FF1515"/>
<path d="M27.5796 17.4204V33H38V7H12V17.4204H27.5796Z" fill="white"/>
<path d="M22.3693 22.5796H12V32.9745H22.3693V22.5796Z" fill="white"/>
<path d="M24.9011 42.2901V42.9198H21.6495V42.2901H24.9011ZM21.814 37.0802V42.9198H21V37.0802H21.814ZM24.4709 39.5909V40.2206H21.6495V39.5909H24.4709ZM24.859 37.0802V37.7139H21.6495V37.0802H24.859Z" fill="white"/>
<path d="M29.1818 41.4439C29.1818 41.3075 29.1593 41.1872 29.1143 41.0829C29.0722 40.9759 28.9963 40.8797 28.8866 40.7941C28.7798 40.7086 28.6307 40.627 28.4395 40.5495C28.2512 40.4719 28.0122 40.393 27.7226 40.3128C27.4189 40.2273 27.1448 40.1324 26.9002 40.0281C26.6556 39.9211 26.4461 39.7995 26.2718 39.6631C26.0975 39.5267 25.9639 39.3703 25.8711 39.1939C25.7784 39.0174 25.732 38.8155 25.732 38.5882C25.732 38.361 25.7812 38.1511 25.8796 37.9586C25.978 37.766 26.1186 37.5989 26.3013 37.4572C26.4869 37.3128 26.7076 37.2005 26.9634 37.1203C27.2193 37.0401 27.5047 37 27.8196 37C28.2807 37 28.6715 37.0842 28.992 37.2527C29.3154 37.4184 29.5614 37.6364 29.7301 37.9064C29.8988 38.1738 29.9831 38.4599 29.9831 38.7647H29.1734C29.1734 38.5455 29.1242 38.3516 29.0258 38.1832C28.9274 38.012 28.7784 37.8783 28.5787 37.7821C28.3791 37.6832 28.1261 37.6337 27.8196 37.6337C27.53 37.6337 27.291 37.6751 27.1026 37.758C26.9142 37.8409 26.7737 37.9532 26.6809 38.0949C26.5909 38.2366 26.5459 38.3984 26.5459 38.5802C26.5459 38.7032 26.5726 38.8155 26.6261 38.9171C26.6823 39.016 26.768 39.1083 26.8833 39.1939C27.0014 39.2794 27.1504 39.3583 27.3304 39.4305C27.5131 39.5027 27.731 39.5722 27.9841 39.639C28.3327 39.7326 28.6336 39.8369 28.8866 39.9519C29.1396 40.0668 29.3477 40.1965 29.5108 40.3409C29.6767 40.4826 29.799 40.6444 29.8777 40.8262C29.9592 41.0053 30 41.2086 30 41.4358C30 41.6738 29.9494 41.889 29.8482 42.0816C29.747 42.2741 29.6022 42.4385 29.4138 42.5749C29.2254 42.7112 28.9991 42.8168 28.7348 42.8917C28.4733 42.9639 28.1809 43 27.8575 43C27.5736 43 27.2938 42.9626 27.0183 42.8877C26.7455 42.8128 26.4967 42.7005 26.2718 42.5508C26.0497 42.4011 25.8711 42.2166 25.7362 41.9973C25.604 41.7754 25.538 41.5187 25.538 41.2273H26.3477C26.3477 41.4278 26.3885 41.6003 26.47 41.7447C26.5515 41.8864 26.6626 42.004 26.8032 42.0976C26.9466 42.1912 27.1082 42.2607 27.2882 42.3061C27.4709 42.3489 27.6607 42.3703 27.8575 42.3703C28.1415 42.3703 28.3819 42.3329 28.5787 42.258C28.7755 42.1832 28.9246 42.0762 29.0258 41.9372C29.1298 41.7981 29.1818 41.6337 29.1818 41.4439Z" fill="white"/>
</svg>
