<svg width="50" height="50" viewBox="0 0 50 50" fill="none" xmlns="http://www.w3.org/2000/svg">
<path d="M12.2939 38.8906V46H11.3467L7.76758 40.5166V46H6.8252V38.8906H7.76758L11.3613 44.3887V38.8906H12.2939Z" fill="#1C1D1F"/>
<path d="M16.0195 46.0977C15.6517 46.0977 15.318 46.0358 15.0186 45.9121C14.7223 45.7852 14.4668 45.6077 14.252 45.3799C14.0404 45.152 13.8776 44.8818 13.7637 44.5693C13.6497 44.2568 13.5928 43.915 13.5928 43.5439V43.3389C13.5928 42.9092 13.6562 42.5267 13.7832 42.1914C13.9102 41.8529 14.0827 41.5664 14.3008 41.332C14.5189 41.0977 14.7663 40.9202 15.043 40.7998C15.3197 40.6794 15.6061 40.6191 15.9023 40.6191C16.2799 40.6191 16.6055 40.6842 16.8789 40.8145C17.1556 40.9447 17.3818 41.127 17.5576 41.3613C17.7334 41.5924 17.8636 41.8659 17.9482 42.1816C18.0329 42.4941 18.0752 42.8359 18.0752 43.207V43.6123H14.1299V42.875H17.1719V42.8066C17.1589 42.5723 17.11 42.3444 17.0254 42.123C16.944 41.9017 16.8138 41.7194 16.6348 41.5762C16.4557 41.4329 16.2116 41.3613 15.9023 41.3613C15.6973 41.3613 15.5085 41.4053 15.3359 41.4932C15.1634 41.5778 15.0153 41.7048 14.8916 41.874C14.7679 42.0433 14.6719 42.25 14.6035 42.4941C14.5352 42.7383 14.501 43.0199 14.501 43.3389V43.5439C14.501 43.7946 14.5352 44.0306 14.6035 44.252C14.6751 44.4701 14.7777 44.6621 14.9111 44.8281C15.0479 44.9941 15.2122 45.1243 15.4043 45.2188C15.5996 45.3132 15.821 45.3604 16.0684 45.3604C16.3874 45.3604 16.6576 45.2952 16.8789 45.165C17.1003 45.0348 17.2939 44.8607 17.46 44.6426L18.0068 45.0771C17.8929 45.2497 17.748 45.4141 17.5723 45.5703C17.3965 45.7266 17.18 45.8535 16.9229 45.9512C16.6689 46.0488 16.3678 46.0977 16.0195 46.0977Z" fill="#1C1D1F"/>
<path d="M22.3623 44.7793V40.7168H23.2705V46H22.4062L22.3623 44.7793ZM22.5332 43.666L22.9092 43.6562C22.9092 44.0078 22.8717 44.3333 22.7969 44.6328C22.7253 44.929 22.6081 45.1862 22.4453 45.4043C22.2826 45.6224 22.0693 45.7933 21.8057 45.917C21.542 46.0374 21.2214 46.0977 20.8438 46.0977C20.5866 46.0977 20.3506 46.0602 20.1357 45.9854C19.9242 45.9105 19.7419 45.7949 19.5889 45.6387C19.4359 45.4824 19.3171 45.279 19.2324 45.0283C19.151 44.7777 19.1104 44.4766 19.1104 44.125V40.7168H20.0137V44.1348C20.0137 44.3724 20.0397 44.5693 20.0918 44.7256C20.1471 44.8786 20.2204 45.0007 20.3115 45.0918C20.4059 45.1797 20.5101 45.2415 20.624 45.2773C20.7412 45.3132 20.8617 45.3311 20.9854 45.3311C21.3695 45.3311 21.6738 45.2578 21.8984 45.1113C22.123 44.9616 22.2842 44.7614 22.3818 44.5107C22.4827 44.2568 22.5332 43.9753 22.5332 43.666Z" fill="#1C1D1F"/>
<path d="M25.5508 41.5469V46H24.6475V40.7168H25.5264L25.5508 41.5469ZM27.2012 40.6875L27.1963 41.5273C27.1214 41.5111 27.0498 41.5013 26.9814 41.498C26.9163 41.4915 26.8415 41.4883 26.7568 41.4883C26.5485 41.4883 26.3646 41.5208 26.2051 41.5859C26.0456 41.651 25.9105 41.7422 25.7998 41.8594C25.6891 41.9766 25.6012 42.1165 25.5361 42.2793C25.4743 42.4388 25.4336 42.6146 25.4141 42.8066L25.1602 42.9531C25.1602 42.6341 25.1911 42.3346 25.2529 42.0547C25.318 41.7747 25.4173 41.5273 25.5508 41.3125C25.6842 41.0944 25.8535 40.9251 26.0586 40.8047C26.2669 40.681 26.5143 40.6191 26.8008 40.6191C26.8659 40.6191 26.9408 40.6273 27.0254 40.6436C27.11 40.6566 27.1686 40.6712 27.2012 40.6875Z" fill="#1C1D1F"/>
<path d="M27.6992 43.417V43.3047C27.6992 42.9238 27.7546 42.5706 27.8652 42.2451C27.9759 41.9163 28.1354 41.6315 28.3438 41.3906C28.5521 41.1465 28.8044 40.9577 29.1006 40.8242C29.3968 40.6875 29.7288 40.6191 30.0967 40.6191C30.4678 40.6191 30.8014 40.6875 31.0977 40.8242C31.3971 40.9577 31.651 41.1465 31.8594 41.3906C32.071 41.6315 32.2321 41.9163 32.3428 42.2451C32.4535 42.5706 32.5088 42.9238 32.5088 43.3047V43.417C32.5088 43.7979 32.4535 44.151 32.3428 44.4766C32.2321 44.8021 32.071 45.0869 31.8594 45.3311C31.651 45.5719 31.3988 45.7607 31.1025 45.8975C30.8096 46.0309 30.4775 46.0977 30.1064 46.0977C29.7354 46.0977 29.4017 46.0309 29.1055 45.8975C28.8092 45.7607 28.5553 45.5719 28.3438 45.3311C28.1354 45.0869 27.9759 44.8021 27.8652 44.4766C27.7546 44.151 27.6992 43.7979 27.6992 43.417ZM28.6025 43.3047V43.417C28.6025 43.6807 28.6335 43.9297 28.6953 44.1641C28.7572 44.3952 28.8499 44.6003 28.9736 44.7793C29.1006 44.9583 29.2585 45.0999 29.4473 45.2041C29.6361 45.305 29.8558 45.3555 30.1064 45.3555C30.3538 45.3555 30.5703 45.305 30.7559 45.2041C30.9447 45.0999 31.1009 44.9583 31.2246 44.7793C31.3483 44.6003 31.4411 44.3952 31.5029 44.1641C31.568 43.9297 31.6006 43.6807 31.6006 43.417V43.3047C31.6006 43.0443 31.568 42.7985 31.5029 42.5674C31.4411 42.333 31.3467 42.1263 31.2197 41.9473C31.096 41.765 30.9398 41.6217 30.751 41.5176C30.5654 41.4134 30.3473 41.3613 30.0967 41.3613C29.8493 41.3613 29.6312 41.4134 29.4424 41.5176C29.2568 41.6217 29.1006 41.765 28.9736 41.9473C28.8499 42.1263 28.7572 42.333 28.6953 42.5674C28.6335 42.7985 28.6025 43.0443 28.6025 43.3047Z" fill="#1C1D1F"/>
<path d="M34.5449 41.8447V46H33.6416V40.7168H34.4961L34.5449 41.8447ZM34.3301 43.1582L33.9541 43.1436C33.9574 42.7822 34.0111 42.4486 34.1152 42.1426C34.2194 41.8333 34.3659 41.5648 34.5547 41.3369C34.7435 41.109 34.9681 40.9333 35.2285 40.8096C35.4922 40.6826 35.7835 40.6191 36.1025 40.6191C36.363 40.6191 36.5973 40.6549 36.8057 40.7266C37.014 40.7949 37.1914 40.9056 37.3379 41.0586C37.4876 41.2116 37.6016 41.4102 37.6797 41.6543C37.7578 41.8952 37.7969 42.1898 37.7969 42.5381V46H36.8887V42.5283C36.8887 42.2516 36.848 42.0303 36.7666 41.8643C36.6852 41.695 36.5664 41.5729 36.4102 41.498C36.2539 41.4199 36.0618 41.3809 35.834 41.3809C35.6094 41.3809 35.4043 41.4281 35.2188 41.5225C35.0365 41.6169 34.8786 41.7471 34.7451 41.9131C34.6149 42.0791 34.5124 42.2695 34.4375 42.4844C34.3659 42.696 34.3301 42.9206 34.3301 43.1582Z" fill="#1C1D1F"/>
<path d="M42.2451 44.5986C42.2451 44.4684 42.2158 44.348 42.1572 44.2373C42.1019 44.1234 41.9863 44.0208 41.8105 43.9297C41.638 43.8353 41.3776 43.7539 41.0293 43.6855C40.7363 43.6237 40.471 43.5505 40.2334 43.4658C39.999 43.3812 39.7988 43.2786 39.6328 43.1582C39.4701 43.0378 39.3447 42.8962 39.2568 42.7334C39.1689 42.5706 39.125 42.3802 39.125 42.1621C39.125 41.9538 39.1706 41.7568 39.2617 41.5713C39.3561 41.3857 39.488 41.2214 39.6572 41.0781C39.8298 40.9349 40.0365 40.8226 40.2773 40.7412C40.5182 40.6598 40.7868 40.6191 41.083 40.6191C41.5062 40.6191 41.8675 40.694 42.167 40.8438C42.4665 40.9935 42.696 41.1937 42.8555 41.4443C43.015 41.6917 43.0947 41.9668 43.0947 42.2695H42.1914C42.1914 42.123 42.1475 41.9814 42.0596 41.8447C41.9749 41.7048 41.8496 41.5892 41.6836 41.498C41.5208 41.4069 41.3206 41.3613 41.083 41.3613C40.8324 41.3613 40.6289 41.4004 40.4727 41.4785C40.3197 41.5534 40.2074 41.6494 40.1357 41.7666C40.0674 41.8838 40.0332 42.0075 40.0332 42.1377C40.0332 42.2354 40.0495 42.3232 40.082 42.4014C40.1178 42.4762 40.1797 42.5462 40.2676 42.6113C40.3555 42.6732 40.4792 42.7318 40.6387 42.7871C40.7982 42.8424 41.0016 42.8978 41.249 42.9531C41.682 43.0508 42.0384 43.168 42.3184 43.3047C42.5983 43.4414 42.8066 43.609 42.9434 43.8076C43.0801 44.0062 43.1484 44.2471 43.1484 44.5303C43.1484 44.7614 43.0996 44.973 43.002 45.165C42.9076 45.3571 42.7692 45.5231 42.5869 45.6631C42.4079 45.7998 42.193 45.9072 41.9424 45.9854C41.695 46.0602 41.4167 46.0977 41.1074 46.0977C40.6419 46.0977 40.248 46.0146 39.9258 45.8486C39.6035 45.6826 39.3594 45.4678 39.1934 45.2041C39.0273 44.9404 38.9443 44.6621 38.9443 44.3691H39.8525C39.8656 44.6165 39.9372 44.8135 40.0674 44.96C40.1976 45.1032 40.3571 45.2057 40.5459 45.2676C40.7347 45.3262 40.9219 45.3555 41.1074 45.3555C41.3548 45.3555 41.5615 45.3229 41.7275 45.2578C41.8968 45.1927 42.0254 45.1032 42.1133 44.9893C42.2012 44.8753 42.2451 44.7451 42.2451 44.5986Z" fill="#1C1D1F"/>
<path d="M27.9764 18.0236V36H40V6H10V18.0236H27.9764Z" fill="#FF1515"/>
<path d="M21.9646 23.9765H10V35.9706H21.9646V23.9765Z" fill="#FF1515"/>
</svg>
