<svg width="50" height="50" viewBox="0 0 50 50" fill="none" xmlns="http://www.w3.org/2000/svg">
<path d="M27.9764 18.0236V36H40V6H10V18.0236H27.9764Z" fill="#FF1515"/>
<path d="M21.9646 23.9765H10V35.9706H21.9646V23.9765Z" fill="#FF1515"/>
<path fill-rule="evenodd" clip-rule="evenodd" d="M33.7871 39.5V42.3488L33.7969 42.3369C34.1773 41.8778 34.7114 41.6191 35.3447 41.6191C36.3851 41.6191 37.0391 42.1379 37.0391 43.5381V47H36.1309V43.5283C36.1309 42.6872 35.7525 42.3809 35.0762 42.3809C34.5017 42.3809 34.0433 42.7201 33.7871 43.2297V47H32.8838V39.5H33.7871ZM29.7637 46.3555C30.4111 46.3555 30.9604 45.9205 31.0088 45.3301H31.8682C31.8136 46.3771 30.7501 47.0977 29.7637 47.0977C28.1883 47.0977 27.415 45.8811 27.415 44.4609C27.415 43.0112 28.1105 41.6191 29.7637 41.6191C30.999 41.6191 31.8192 42.4355 31.8682 43.5332H31.0088C30.9603 42.8837 30.491 42.3613 29.7637 42.3613C28.625 42.3613 28.3184 43.4914 28.3184 44.4609C28.3184 45.3735 28.6955 46.3555 29.7637 46.3555ZM26.5898 42.4102V41.7168H25.6035V40.4326H24.7002V41.7168H23.7334V42.4102H24.7002V45.6865C24.7002 46.7769 25.5426 47.341 26.6143 47L26.6094 46.2627C26.0868 46.3833 25.6035 46.2927 25.6035 45.6914V42.4102H26.5898ZM22.0741 46.4416C22.0952 46.6304 22.1236 46.8249 22.2002 47H23.1426C23.1426 46.8043 23.0332 46.6059 23.001 46.4092C22.8553 45.4218 22.957 44.3809 22.957 43.3867C22.957 42.2062 22.1524 41.6191 20.9941 41.6191C20.0527 41.6191 19.3393 42.0534 19.041 42.6201C18.9434 42.8057 18.8945 42.9928 18.8945 43.1816H19.7979C19.7979 42.7362 20.2667 42.3467 20.9404 42.3467C21.671 42.3467 22.0537 42.7488 22.0537 43.377V43.7969C20.7837 43.7969 18.7822 43.8278 18.7822 45.5303C18.7822 46.5136 19.665 47.0977 20.5693 47.0977C21.2327 47.0977 21.7404 46.7912 22.0741 46.4416ZM22.0537 45.5146V44.4316C21.292 44.4316 19.6904 44.2628 19.6904 45.4082C19.6904 45.9076 20.0406 46.3066 20.7012 46.3066C21.2505 46.3066 21.8026 46.0132 22.0537 45.5146ZM13.7676 44.2119H15.4473C17.0621 44.2119 17.9424 43.4243 17.9424 42.0586C17.9424 40.7926 17.0546 39.8906 15.4473 39.8906H12.8252V47H13.7676V44.2119ZM13.7676 43.4453V40.6621H15.4473C16.5484 40.6621 17 41.3374 17 42.0684C17 42.8658 16.5531 43.4453 15.4473 43.4453H13.7676Z" fill="black"/>
</svg>
