<svg width="50" height="50" viewBox="0 0 50 50" fill="none" xmlns="http://www.w3.org/2000/svg">
<rect width="50" height="50" fill="#778EB1"/>
<path d="M10 6H40V36H10V6Z" fill="#778EB1"/>
<path d="M29.4614 15.8551C27.4411 15.8551 26.2328 16.6969 25.6782 18.539L24.2818 22.9065C23.7668 24.3425 22.925 24.9268 21.4197 24.9268H17.9336C17.4978 24.9268 17.1215 25.2933 17.1215 25.7389V27.9771C17.1215 28.3832 17.4483 28.71 17.894 28.71H32.0661C32.5019 28.71 32.8782 28.3436 32.8782 27.8979V16.6275C32.8782 16.1918 32.5514 15.8551 32.1057 15.8551H29.4614ZM17.9633 13.29C17.5275 13.29 17.1215 13.6961 17.1215 14.1318V20.0839C17.1215 20.5593 17.4879 20.9257 17.9633 20.9257H20.974C22.3308 20.9257 24.2422 20.6286 24.7572 18.2121C24.7572 18.2121 25.2722 15.756 25.5693 14.32C25.6782 13.7654 25.2722 13.29 24.7275 13.29H17.9633Z" fill="white"/>
<path d="M12.2559 38.2119H10.3564V37.4453H12.2559C12.6237 37.4453 12.9215 37.3867 13.1494 37.2695C13.3773 37.1523 13.5433 36.9896 13.6475 36.7812C13.7549 36.5729 13.8086 36.3353 13.8086 36.0684C13.8086 35.8242 13.7549 35.5947 13.6475 35.3799C13.5433 35.165 13.3773 34.9925 13.1494 34.8623C12.9215 34.7288 12.6237 34.6621 12.2559 34.6621H10.5762V41H9.63379V33.8906H12.2559C12.793 33.8906 13.2471 33.9834 13.6182 34.1689C13.9893 34.3545 14.2708 34.6117 14.4629 34.9404C14.6549 35.266 14.751 35.6387 14.751 36.0586C14.751 36.5143 14.6549 36.9033 14.4629 37.2256C14.2708 37.5479 13.9893 37.7936 13.6182 37.9629C13.2471 38.1289 12.793 38.2119 12.2559 38.2119Z" fill="white"/>
<path d="M16.709 36.5469V41H15.8057V35.7168H16.6846L16.709 36.5469ZM18.3594 35.6875L18.3545 36.5273C18.2796 36.5111 18.208 36.5013 18.1396 36.498C18.0745 36.4915 17.9997 36.4883 17.915 36.4883C17.7067 36.4883 17.5228 36.5208 17.3633 36.5859C17.2038 36.651 17.0687 36.7422 16.958 36.8594C16.8473 36.9766 16.7594 37.1165 16.6943 37.2793C16.6325 37.4388 16.5918 37.6146 16.5723 37.8066L16.3184 37.9531C16.3184 37.6341 16.3493 37.3346 16.4111 37.0547C16.4762 36.7747 16.5755 36.5273 16.709 36.3125C16.8424 36.0944 17.0117 35.9251 17.2168 35.8047C17.4251 35.681 17.6725 35.6191 17.959 35.6191C18.0241 35.6191 18.099 35.6273 18.1836 35.6436C18.2682 35.6566 18.3268 35.6712 18.3594 35.6875Z" fill="white"/>
<path d="M18.8574 38.417V38.3047C18.8574 37.9238 18.9128 37.5706 19.0234 37.2451C19.1341 36.9163 19.2936 36.6315 19.502 36.3906C19.7103 36.1465 19.9626 35.9577 20.2588 35.8242C20.555 35.6875 20.887 35.6191 21.2549 35.6191C21.626 35.6191 21.9596 35.6875 22.2559 35.8242C22.5553 35.9577 22.8092 36.1465 23.0176 36.3906C23.2292 36.6315 23.3903 36.9163 23.501 37.2451C23.6117 37.5706 23.667 37.9238 23.667 38.3047V38.417C23.667 38.7979 23.6117 39.151 23.501 39.4766C23.3903 39.8021 23.2292 40.0869 23.0176 40.3311C22.8092 40.5719 22.557 40.7607 22.2607 40.8975C21.9678 41.0309 21.6357 41.0977 21.2646 41.0977C20.8936 41.0977 20.5599 41.0309 20.2637 40.8975C19.9674 40.7607 19.7135 40.5719 19.502 40.3311C19.2936 40.0869 19.1341 39.8021 19.0234 39.4766C18.9128 39.151 18.8574 38.7979 18.8574 38.417ZM19.7607 38.3047V38.417C19.7607 38.6807 19.7917 38.9297 19.8535 39.1641C19.9154 39.3952 20.0081 39.6003 20.1318 39.7793C20.2588 39.9583 20.4167 40.0999 20.6055 40.2041C20.7943 40.305 21.014 40.3555 21.2646 40.3555C21.512 40.3555 21.7285 40.305 21.9141 40.2041C22.1029 40.0999 22.2591 39.9583 22.3828 39.7793C22.5065 39.6003 22.5993 39.3952 22.6611 39.1641C22.7262 38.9297 22.7588 38.6807 22.7588 38.417V38.3047C22.7588 38.0443 22.7262 37.7985 22.6611 37.5674C22.5993 37.333 22.5049 37.1263 22.3779 36.9473C22.2542 36.765 22.098 36.6217 21.9092 36.5176C21.7236 36.4134 21.5055 36.3613 21.2549 36.3613C21.0075 36.3613 20.7894 36.4134 20.6006 36.5176C20.415 36.6217 20.2588 36.765 20.1318 36.9473C20.0081 37.1263 19.9154 37.333 19.8535 37.5674C19.7917 37.7985 19.7607 38.0443 19.7607 38.3047Z" fill="white"/>
<path d="M27.0117 35.7168V36.4102H24.1553V35.7168H27.0117ZM25.1221 34.4326H26.0254V39.6914C26.0254 39.8704 26.0531 40.0055 26.1084 40.0967C26.1637 40.1878 26.2354 40.248 26.3232 40.2773C26.4111 40.3066 26.5055 40.3213 26.6064 40.3213C26.6813 40.3213 26.7594 40.3148 26.8408 40.3018C26.9255 40.2855 26.9889 40.2725 27.0312 40.2627L27.0361 41C26.9645 41.0228 26.8701 41.0439 26.7529 41.0635C26.639 41.0863 26.5007 41.0977 26.3379 41.0977C26.1165 41.0977 25.9131 41.0537 25.7275 40.9658C25.542 40.8779 25.3939 40.7314 25.2832 40.5264C25.1758 40.318 25.1221 40.0381 25.1221 39.6865V34.4326Z" fill="white"/>
<path d="M30.2637 41.0977C29.8958 41.0977 29.5622 41.0358 29.2627 40.9121C28.9665 40.7852 28.7109 40.6077 28.4961 40.3799C28.2845 40.152 28.1217 39.8818 28.0078 39.5693C27.8939 39.2568 27.8369 38.915 27.8369 38.5439V38.3389C27.8369 37.9092 27.9004 37.5267 28.0273 37.1914C28.1543 36.8529 28.3268 36.5664 28.5449 36.332C28.763 36.0977 29.0104 35.9202 29.2871 35.7998C29.5638 35.6794 29.8503 35.6191 30.1465 35.6191C30.5241 35.6191 30.8496 35.6842 31.123 35.8145C31.3997 35.9447 31.626 36.127 31.8018 36.3613C31.9775 36.5924 32.1077 36.8659 32.1924 37.1816C32.277 37.4941 32.3193 37.8359 32.3193 38.207V38.6123H28.374V37.875H31.416V37.8066C31.403 37.5723 31.3542 37.3444 31.2695 37.123C31.1882 36.9017 31.0579 36.7194 30.8789 36.5762C30.6999 36.4329 30.4557 36.3613 30.1465 36.3613C29.9414 36.3613 29.7526 36.4053 29.5801 36.4932C29.4076 36.5778 29.2594 36.7048 29.1357 36.874C29.012 37.0433 28.916 37.25 28.8477 37.4941C28.7793 37.7383 28.7451 38.0199 28.7451 38.3389V38.5439C28.7451 38.7946 28.7793 39.0306 28.8477 39.252C28.9193 39.4701 29.0218 39.6621 29.1553 39.8281C29.292 39.9941 29.4564 40.1243 29.6484 40.2188C29.8438 40.3132 30.0651 40.3604 30.3125 40.3604C30.6315 40.3604 30.9017 40.2952 31.123 40.165C31.3444 40.0348 31.5381 39.8607 31.7041 39.6426L32.251 40.0771C32.137 40.2497 31.9922 40.4141 31.8164 40.5703C31.6406 40.7266 31.4242 40.8535 31.167 40.9512C30.9131 41.0488 30.612 41.0977 30.2637 41.0977Z" fill="white"/>
<path d="M35.4883 40.3555C35.7031 40.3555 35.9017 40.3115 36.084 40.2236C36.2663 40.1357 36.416 40.0153 36.5332 39.8623C36.6504 39.7061 36.7171 39.5286 36.7334 39.3301H37.5928C37.5765 39.6426 37.4707 39.9339 37.2754 40.2041C37.0833 40.471 36.8311 40.6875 36.5186 40.8535C36.2061 41.0163 35.8626 41.0977 35.4883 41.0977C35.0911 41.0977 34.7445 41.0277 34.4482 40.8877C34.1553 40.7477 33.9111 40.5557 33.7158 40.3115C33.5238 40.0674 33.3789 39.7874 33.2812 39.4717C33.1868 39.1527 33.1396 38.8158 33.1396 38.4609V38.2559C33.1396 37.901 33.1868 37.5658 33.2812 37.25C33.3789 36.931 33.5238 36.6494 33.7158 36.4053C33.9111 36.1611 34.1553 35.9691 34.4482 35.8291C34.7445 35.6891 35.0911 35.6191 35.4883 35.6191C35.9017 35.6191 36.263 35.7038 36.5723 35.873C36.8815 36.0391 37.124 36.2669 37.2998 36.5566C37.4788 36.8431 37.5765 37.1686 37.5928 37.5332H36.7334C36.7171 37.3151 36.6553 37.1182 36.5479 36.9424C36.4437 36.7666 36.3005 36.6266 36.1182 36.5225C35.9391 36.415 35.7292 36.3613 35.4883 36.3613C35.2116 36.3613 34.9788 36.4167 34.79 36.5273C34.6045 36.6348 34.4564 36.7812 34.3457 36.9668C34.2383 37.1491 34.1602 37.3525 34.1113 37.5771C34.0658 37.7985 34.043 38.0247 34.043 38.2559V38.4609C34.043 38.6921 34.0658 38.9199 34.1113 39.1445C34.1569 39.3691 34.2334 39.5726 34.3408 39.7549C34.4515 39.9372 34.5996 40.0837 34.7852 40.1943C34.974 40.3018 35.2083 40.3555 35.4883 40.3555Z" fill="white"/>
<path d="M40.8203 35.7168V36.4102H37.9639V35.7168H40.8203ZM38.9307 34.4326H39.834V39.6914C39.834 39.8704 39.8617 40.0055 39.917 40.0967C39.9723 40.1878 40.0439 40.248 40.1318 40.2773C40.2197 40.3066 40.3141 40.3213 40.415 40.3213C40.4899 40.3213 40.568 40.3148 40.6494 40.3018C40.734 40.2855 40.7975 40.2725 40.8398 40.2627L40.8447 41C40.7731 41.0228 40.6787 41.0439 40.5615 41.0635C40.4476 41.0863 40.3092 41.0977 40.1465 41.0977C39.9251 41.0977 39.7217 41.0537 39.5361 40.9658C39.3506 40.8779 39.2025 40.7314 39.0918 40.5264C38.9844 40.318 38.9307 40.0381 38.9307 39.6865V34.4326Z" fill="white"/>
</svg>
