<svg width="50" height="50" viewBox="0 0 50 50" fill="none" xmlns="http://www.w3.org/2000/svg">
<path d="M10 6H40V36H10V6Z" fill="#778EB1"/>
<path d="M29.4614 15.8551C27.4411 15.8551 26.2328 16.6969 25.6782 18.539L24.2818 22.9065C23.7668 24.3425 22.925 24.9268 21.4197 24.9268H17.9336C17.4978 24.9268 17.1215 25.2933 17.1215 25.7389V27.9771C17.1215 28.3832 17.4483 28.71 17.894 28.71H32.0661C32.5019 28.71 32.8782 28.3436 32.8782 27.8979V16.6275C32.8782 16.1918 32.5514 15.8551 32.1057 15.8551H29.4614ZM17.9633 13.29C17.5275 13.29 17.1215 13.6961 17.1215 14.1318V20.0839C17.1215 20.5593 17.4879 20.9257 17.9633 20.9257H20.974C22.3308 20.9257 24.2422 20.6286 24.7572 18.2121C24.7572 18.2121 25.2722 15.756 25.5693 14.32C25.6782 13.7654 25.2722 13.29 24.7275 13.29H17.9633Z" fill="white"/>
<path d="M12.2559 43.2119H10.3564V42.4453H12.2559C12.6237 42.4453 12.9215 42.3867 13.1494 42.2695C13.3773 42.1523 13.5433 41.9896 13.6475 41.7812C13.7549 41.5729 13.8086 41.3353 13.8086 41.0684C13.8086 40.8242 13.7549 40.5947 13.6475 40.3799C13.5433 40.165 13.3773 39.9925 13.1494 39.8623C12.9215 39.7288 12.6237 39.6621 12.2559 39.6621H10.5762V46H9.63379V38.8906H12.2559C12.793 38.8906 13.2471 38.9834 13.6182 39.1689C13.9893 39.3545 14.2708 39.6117 14.4629 39.9404C14.6549 40.266 14.751 40.6387 14.751 41.0586C14.751 41.5143 14.6549 41.9033 14.4629 42.2256C14.2708 42.5479 13.9893 42.7936 13.6182 42.9629C13.2471 43.1289 12.793 43.2119 12.2559 43.2119Z" fill="#1C1D1F"/>
<path d="M16.709 41.5469V46H15.8057V40.7168H16.6846L16.709 41.5469ZM18.3594 40.6875L18.3545 41.5273C18.2796 41.5111 18.208 41.5013 18.1396 41.498C18.0745 41.4915 17.9997 41.4883 17.915 41.4883C17.7067 41.4883 17.5228 41.5208 17.3633 41.5859C17.2038 41.651 17.0687 41.7422 16.958 41.8594C16.8473 41.9766 16.7594 42.1165 16.6943 42.2793C16.6325 42.4388 16.5918 42.6146 16.5723 42.8066L16.3184 42.9531C16.3184 42.6341 16.3493 42.3346 16.4111 42.0547C16.4762 41.7747 16.5755 41.5273 16.709 41.3125C16.8424 41.0944 17.0117 40.9251 17.2168 40.8047C17.4251 40.681 17.6725 40.6191 17.959 40.6191C18.0241 40.6191 18.099 40.6273 18.1836 40.6436C18.2682 40.6566 18.3268 40.6712 18.3594 40.6875Z" fill="#1C1D1F"/>
<path d="M18.8574 43.417V43.3047C18.8574 42.9238 18.9128 42.5706 19.0234 42.2451C19.1341 41.9163 19.2936 41.6315 19.502 41.3906C19.7103 41.1465 19.9626 40.9577 20.2588 40.8242C20.555 40.6875 20.887 40.6191 21.2549 40.6191C21.626 40.6191 21.9596 40.6875 22.2559 40.8242C22.5553 40.9577 22.8092 41.1465 23.0176 41.3906C23.2292 41.6315 23.3903 41.9163 23.501 42.2451C23.6117 42.5706 23.667 42.9238 23.667 43.3047V43.417C23.667 43.7979 23.6117 44.151 23.501 44.4766C23.3903 44.8021 23.2292 45.0869 23.0176 45.3311C22.8092 45.5719 22.557 45.7607 22.2607 45.8975C21.9678 46.0309 21.6357 46.0977 21.2646 46.0977C20.8936 46.0977 20.5599 46.0309 20.2637 45.8975C19.9674 45.7607 19.7135 45.5719 19.502 45.3311C19.2936 45.0869 19.1341 44.8021 19.0234 44.4766C18.9128 44.151 18.8574 43.7979 18.8574 43.417ZM19.7607 43.3047V43.417C19.7607 43.6807 19.7917 43.9297 19.8535 44.1641C19.9154 44.3952 20.0081 44.6003 20.1318 44.7793C20.2588 44.9583 20.4167 45.0999 20.6055 45.2041C20.7943 45.305 21.014 45.3555 21.2646 45.3555C21.512 45.3555 21.7285 45.305 21.9141 45.2041C22.1029 45.0999 22.2591 44.9583 22.3828 44.7793C22.5065 44.6003 22.5993 44.3952 22.6611 44.1641C22.7262 43.9297 22.7588 43.6807 22.7588 43.417V43.3047C22.7588 43.0443 22.7262 42.7985 22.6611 42.5674C22.5993 42.333 22.5049 42.1263 22.3779 41.9473C22.2542 41.765 22.098 41.6217 21.9092 41.5176C21.7236 41.4134 21.5055 41.3613 21.2549 41.3613C21.0075 41.3613 20.7894 41.4134 20.6006 41.5176C20.415 41.6217 20.2588 41.765 20.1318 41.9473C20.0081 42.1263 19.9154 42.333 19.8535 42.5674C19.7917 42.7985 19.7607 43.0443 19.7607 43.3047Z" fill="#1C1D1F"/>
<path d="M27.0117 40.7168V41.4102H24.1553V40.7168H27.0117ZM25.1221 39.4326H26.0254V44.6914C26.0254 44.8704 26.0531 45.0055 26.1084 45.0967C26.1637 45.1878 26.2354 45.248 26.3232 45.2773C26.4111 45.3066 26.5055 45.3213 26.6064 45.3213C26.6813 45.3213 26.7594 45.3148 26.8408 45.3018C26.9255 45.2855 26.9889 45.2725 27.0312 45.2627L27.0361 46C26.9645 46.0228 26.8701 46.0439 26.7529 46.0635C26.639 46.0863 26.5007 46.0977 26.3379 46.0977C26.1165 46.0977 25.9131 46.0537 25.7275 45.9658C25.542 45.8779 25.3939 45.7314 25.2832 45.5264C25.1758 45.318 25.1221 45.0381 25.1221 44.6865V39.4326Z" fill="#1C1D1F"/>
<path d="M30.2637 46.0977C29.8958 46.0977 29.5622 46.0358 29.2627 45.9121C28.9665 45.7852 28.7109 45.6077 28.4961 45.3799C28.2845 45.152 28.1217 44.8818 28.0078 44.5693C27.8939 44.2568 27.8369 43.915 27.8369 43.5439V43.3389C27.8369 42.9092 27.9004 42.5267 28.0273 42.1914C28.1543 41.8529 28.3268 41.5664 28.5449 41.332C28.763 41.0977 29.0104 40.9202 29.2871 40.7998C29.5638 40.6794 29.8503 40.6191 30.1465 40.6191C30.5241 40.6191 30.8496 40.6842 31.123 40.8145C31.3997 40.9447 31.626 41.127 31.8018 41.3613C31.9775 41.5924 32.1077 41.8659 32.1924 42.1816C32.277 42.4941 32.3193 42.8359 32.3193 43.207V43.6123H28.374V42.875H31.416V42.8066C31.403 42.5723 31.3542 42.3444 31.2695 42.123C31.1882 41.9017 31.0579 41.7194 30.8789 41.5762C30.6999 41.4329 30.4557 41.3613 30.1465 41.3613C29.9414 41.3613 29.7526 41.4053 29.5801 41.4932C29.4076 41.5778 29.2594 41.7048 29.1357 41.874C29.012 42.0433 28.916 42.25 28.8477 42.4941C28.7793 42.7383 28.7451 43.0199 28.7451 43.3389V43.5439C28.7451 43.7946 28.7793 44.0306 28.8477 44.252C28.9193 44.4701 29.0218 44.6621 29.1553 44.8281C29.292 44.9941 29.4564 45.1243 29.6484 45.2188C29.8438 45.3132 30.0651 45.3604 30.3125 45.3604C30.6315 45.3604 30.9017 45.2952 31.123 45.165C31.3444 45.0348 31.5381 44.8607 31.7041 44.6426L32.251 45.0771C32.137 45.2497 31.9922 45.4141 31.8164 45.5703C31.6406 45.7266 31.4242 45.8535 31.167 45.9512C30.9131 46.0488 30.612 46.0977 30.2637 46.0977Z" fill="#1C1D1F"/>
<path d="M35.4883 45.3555C35.7031 45.3555 35.9017 45.3115 36.084 45.2236C36.2663 45.1357 36.416 45.0153 36.5332 44.8623C36.6504 44.7061 36.7171 44.5286 36.7334 44.3301H37.5928C37.5765 44.6426 37.4707 44.9339 37.2754 45.2041C37.0833 45.471 36.8311 45.6875 36.5186 45.8535C36.2061 46.0163 35.8626 46.0977 35.4883 46.0977C35.0911 46.0977 34.7445 46.0277 34.4482 45.8877C34.1553 45.7477 33.9111 45.5557 33.7158 45.3115C33.5238 45.0674 33.3789 44.7874 33.2812 44.4717C33.1868 44.1527 33.1396 43.8158 33.1396 43.4609V43.2559C33.1396 42.901 33.1868 42.5658 33.2812 42.25C33.3789 41.931 33.5238 41.6494 33.7158 41.4053C33.9111 41.1611 34.1553 40.9691 34.4482 40.8291C34.7445 40.6891 35.0911 40.6191 35.4883 40.6191C35.9017 40.6191 36.263 40.7038 36.5723 40.873C36.8815 41.0391 37.124 41.2669 37.2998 41.5566C37.4788 41.8431 37.5765 42.1686 37.5928 42.5332H36.7334C36.7171 42.3151 36.6553 42.1182 36.5479 41.9424C36.4437 41.7666 36.3005 41.6266 36.1182 41.5225C35.9391 41.415 35.7292 41.3613 35.4883 41.3613C35.2116 41.3613 34.9788 41.4167 34.79 41.5273C34.6045 41.6348 34.4564 41.7812 34.3457 41.9668C34.2383 42.1491 34.1602 42.3525 34.1113 42.5771C34.0658 42.7985 34.043 43.0247 34.043 43.2559V43.4609C34.043 43.6921 34.0658 43.9199 34.1113 44.1445C34.1569 44.3691 34.2334 44.5726 34.3408 44.7549C34.4515 44.9372 34.5996 45.0837 34.7852 45.1943C34.974 45.3018 35.2083 45.3555 35.4883 45.3555Z" fill="#1C1D1F"/>
<path d="M40.8203 40.7168V41.4102H37.9639V40.7168H40.8203ZM38.9307 39.4326H39.834V44.6914C39.834 44.8704 39.8617 45.0055 39.917 45.0967C39.9723 45.1878 40.0439 45.248 40.1318 45.2773C40.2197 45.3066 40.3141 45.3213 40.415 45.3213C40.4899 45.3213 40.568 45.3148 40.6494 45.3018C40.734 45.2855 40.7975 45.2725 40.8398 45.2627L40.8447 46C40.7731 46.0228 40.6787 46.0439 40.5615 46.0635C40.4476 46.0863 40.3092 46.0977 40.1465 46.0977C39.9251 46.0977 39.7217 46.0537 39.5361 45.9658C39.3506 45.8779 39.2025 45.7314 39.0918 45.5264C38.9844 45.318 38.9307 45.0381 38.9307 44.6865V39.4326Z" fill="#1C1D1F"/>
</svg>
