<svg width="50" height="50" viewBox="0 0 50 50" fill="none" xmlns="http://www.w3.org/2000/svg">
<path d="M10 6H40V36H10V6Z" fill="#778EB1"/>
<path d="M29.4614 15.8551C27.4411 15.8551 26.2328 16.6969 25.6782 18.539L24.2818 22.9065C23.7668 24.3425 22.925 24.9268 21.4197 24.9268H17.9336C17.4978 24.9268 17.1215 25.2933 17.1215 25.7389V27.9771C17.1215 28.3832 17.4483 28.71 17.894 28.71H32.0661C32.5019 28.71 32.8782 28.3436 32.8782 27.8979V16.6275C32.8782 16.1918 32.5514 15.8551 32.1057 15.8551H29.4614ZM17.9633 13.29C17.5275 13.29 17.1215 13.6961 17.1215 14.1318V20.0839C17.1215 20.5593 17.4879 20.9257 17.9633 20.9257H20.974C22.3308 20.9257 24.2422 20.6286 24.7572 18.2121C24.7572 18.2121 25.2722 15.756 25.5693 14.32C25.6782 13.7654 25.2722 13.29 24.7275 13.29H17.9633Z" fill="white"/>
<path d="M36.2693 40.8217V41.5133H33.4199V40.8217H36.2693ZM34.3843 39.5406H35.2854V44.7865C35.2854 44.9651 35.313 45.0998 35.3682 45.1907C35.4234 45.2817 35.4949 45.3417 35.5825 45.3709C35.6702 45.4002 35.7644 45.4148 35.865 45.4148C35.9397 45.4148 36.0177 45.4083 36.0988 45.3953C36.1833 45.3791 36.2466 45.3661 36.2888 45.3563L36.2937 46.0918C36.2222 46.1146 36.1281 46.1357 36.0112 46.1551C35.8975 46.1779 35.7595 46.1892 35.5972 46.1892C35.3763 46.1892 35.1734 46.1454 34.9883 46.0577C34.8032 45.9701 34.6555 45.8239 34.5451 45.6194C34.4379 45.4115 34.3843 45.1323 34.3843 44.7816V39.5406Z" fill="#1C1D1F"/>
<path d="M31.9777 44.6939C31.9777 44.564 31.9485 44.4439 31.89 44.3335C31.8348 44.2198 31.7195 44.1175 31.5442 44.0266C31.3721 43.9325 31.1123 43.8513 30.7649 43.7831C30.4726 43.7214 30.208 43.6483 29.9709 43.5639C29.7371 43.4795 29.5374 43.3772 29.3718 43.257C29.2095 43.1369 29.0845 42.9956 28.9968 42.8333C28.9091 42.6709 28.8653 42.481 28.8653 42.2634C28.8653 42.0556 28.9107 41.8591 29.0017 41.674C29.0958 41.489 29.2273 41.325 29.3962 41.1821C29.5683 41.0392 29.7745 40.9272 30.0148 40.846C30.2551 40.7648 30.523 40.7242 30.8185 40.7242C31.2406 40.7242 31.601 40.7989 31.8998 40.9483C32.1985 41.0977 32.4274 41.2974 32.5865 41.5474C32.7456 41.7942 32.8252 42.0686 32.8252 42.3706H31.9241C31.9241 42.2244 31.8803 42.0832 31.7926 41.9468C31.7082 41.8072 31.5832 41.6919 31.4176 41.601C31.2552 41.5101 31.0555 41.4646 30.8185 41.4646C30.5684 41.4646 30.3655 41.5036 30.2096 41.5815C30.057 41.6562 29.945 41.752 29.8735 41.8689C29.8053 41.9858 29.7712 42.1092 29.7712 42.239C29.7712 42.3365 29.7875 42.4241 29.8199 42.5021C29.8557 42.5768 29.9174 42.6466 30.005 42.7115C30.0927 42.7732 30.2161 42.8317 30.3752 42.8869C30.5343 42.9421 30.7373 42.9973 30.9841 43.0525C31.4159 43.1499 31.7715 43.2668 32.0508 43.4032C32.33 43.5395 32.5378 43.7068 32.6742 43.9048C32.8106 44.1029 32.8788 44.3432 32.8788 44.6257C32.8788 44.8563 32.8301 45.0673 32.7327 45.2589C32.6385 45.4505 32.5005 45.6161 32.3186 45.7557C32.1401 45.8921 31.9257 45.9993 31.6757 46.0772C31.4289 46.1519 31.1513 46.1892 30.8428 46.1892C30.3785 46.1892 29.9856 46.1064 29.6641 45.9408C29.3426 45.7752 29.0991 45.5609 28.9335 45.2979C28.7679 45.0349 28.6851 44.7572 28.6851 44.465H29.591C29.604 44.7118 29.6754 44.9082 29.8053 45.0543C29.9352 45.1972 30.0943 45.2995 30.2827 45.3612C30.471 45.4197 30.6577 45.4489 30.8428 45.4489C31.0896 45.4489 31.2958 45.4164 31.4614 45.3515C31.6302 45.2865 31.7585 45.1972 31.8462 45.0836C31.9339 44.9699 31.9777 44.84 31.9777 44.6939Z" fill="#1C1D1F"/>
<path d="M26.6302 44.8741V40.8217H27.5361V46.0918H26.674L26.6302 44.8741ZM26.8006 43.7636L27.1757 43.7539C27.1757 44.1045 27.1383 44.4293 27.0637 44.728C26.9922 45.0235 26.8753 45.28 26.713 45.4976C26.5506 45.7151 26.3379 45.8856 26.0749 46.009C25.8119 46.1292 25.492 46.1892 25.1154 46.1892C24.8588 46.1892 24.6234 46.1519 24.4091 46.0772C24.198 46.0025 24.0162 45.8872 23.8636 45.7314C23.7109 45.5755 23.5924 45.3726 23.508 45.1225C23.4268 44.8725 23.3862 44.5721 23.3862 44.2214V40.8217H24.2873V44.2312C24.2873 44.4682 24.3133 44.6647 24.3653 44.8205C24.4205 44.9732 24.4935 45.0949 24.5844 45.1859C24.6786 45.2735 24.7825 45.3352 24.8962 45.3709C25.0131 45.4067 25.1332 45.4245 25.2566 45.4245C25.6398 45.4245 25.9434 45.3515 26.1674 45.2053C26.3915 45.056 26.5522 44.8563 26.6496 44.6062C26.7503 44.353 26.8006 44.0721 26.8006 43.7636Z" fill="#1C1D1F"/>
<path d="M20.926 41.6497V46.0918H20.0249V40.8217H20.9016L20.926 41.6497ZM22.5723 40.7924L22.5674 41.6302C22.4928 41.614 22.4213 41.6042 22.3531 41.601C22.2882 41.5945 22.2135 41.5912 22.1291 41.5912C21.9213 41.5912 21.7378 41.6237 21.5787 41.6887C21.4196 41.7536 21.2848 41.8445 21.1744 41.9614C21.064 42.0783 20.9763 42.2179 20.9114 42.3803C20.8497 42.5394 20.8091 42.7148 20.7896 42.9063L20.5363 43.0525C20.5363 42.7342 20.5672 42.4355 20.6289 42.1562C20.6938 41.877 20.7929 41.6302 20.926 41.4159C21.0591 41.1983 21.228 41.0295 21.4326 40.9093C21.6404 40.7859 21.8872 40.7242 22.1729 40.7242C22.2379 40.7242 22.3125 40.7324 22.397 40.7486C22.4814 40.7616 22.5398 40.7762 22.5723 40.7924Z" fill="#1C1D1F"/>
<path d="M17.2001 39V46.0918H16.2746V39H17.2001ZM19.4796 39V39.7696H14V39H19.4796Z" fill="#1C1D1F"/>
</svg>
