<svg width="50" height="50" viewBox="0 0 50 50" fill="none" xmlns="http://www.w3.org/2000/svg">
<rect width="50" height="50" fill="#778EB1"/>
<path d="M10 6H40V36H10V6Z" fill="#778EB1"/>
<path d="M29.4614 15.8551C27.4411 15.8551 26.2328 16.6969 25.6782 18.539L24.2818 22.9065C23.7668 24.3425 22.925 24.9268 21.4197 24.9268H17.9336C17.4978 24.9268 17.1215 25.2933 17.1215 25.7389V27.9771C17.1215 28.3832 17.4483 28.71 17.894 28.71H32.0661C32.5019 28.71 32.8782 28.3436 32.8782 27.8979V16.6275C32.8782 16.1918 32.5514 15.8551 32.1057 15.8551H29.4614ZM17.9633 13.29C17.5275 13.29 17.1215 13.6961 17.1215 14.1318V20.0839C17.1215 20.5593 17.4879 20.9257 17.9633 20.9257H20.974C22.3308 20.9257 24.2422 20.6286 24.7572 18.2121C24.7572 18.2121 25.2722 15.756 25.5693 14.32C25.6782 13.7654 25.2722 13.29 24.7275 13.29H17.9633Z" fill="white"/>
<path d="M24.2871 40.2314C24.2871 40.4683 24.3133 40.6645 24.3652 40.8203C24.4204 40.9728 24.4932 41.0946 24.584 41.1855C24.6781 41.2732 24.7819 41.3354 24.8955 41.3711C25.0123 41.4068 25.1326 41.4248 25.2559 41.4248C25.639 41.4248 25.9429 41.3512 26.167 41.2051C26.3785 41.064 26.5313 40.8773 26.6299 40.6465V36.8223H27.5352V42.0918H26.6738L26.6543 41.5654C26.4999 41.7499 26.3083 41.899 26.0742 42.0088C25.8113 42.1289 25.4917 42.1894 25.1152 42.1895C24.8587 42.1895 24.6225 42.1518 24.4082 42.0771C24.1973 42.0025 24.0158 41.8872 23.8633 41.7314C23.7108 41.5757 23.5922 41.3729 23.5078 41.123C23.4266 40.873 23.3858 40.5723 23.3857 40.2217V36.8223H24.2871V40.2314Z" fill="white"/>
<path d="M30.8193 36.7246C31.2413 36.7247 31.6017 36.7989 31.9004 36.9482C32.1991 37.0976 32.4278 37.2978 32.5869 37.5479C32.7459 37.7946 32.8262 38.0692 32.8262 38.3711H31.9248C31.9248 38.225 31.8806 38.0836 31.793 37.9473C31.7086 37.8077 31.5835 37.6925 31.418 37.6016C31.2557 37.5107 31.0562 37.4649 30.8193 37.4648C30.5693 37.4648 30.3658 37.5041 30.21 37.582C30.0575 37.6567 29.9454 37.7523 29.874 37.8691C29.8059 37.986 29.7715 38.1094 29.7715 38.2393C29.7715 38.3365 29.7879 38.4241 29.8203 38.502C29.856 38.5766 29.9182 38.647 30.0059 38.7119C30.0935 38.7735 30.2171 38.8316 30.376 38.8867C30.535 38.9419 30.7377 38.9976 30.9844 39.0527C31.4161 39.1501 31.7716 39.267 32.0508 39.4033C32.33 39.5397 32.5384 39.7072 32.6748 39.9053C32.8111 40.1033 32.8789 40.3436 32.8789 40.626C32.8789 40.8564 32.8307 41.0673 32.7334 41.2588C32.6393 41.4503 32.5011 41.6163 32.3193 41.7559C32.1407 41.8922 31.9258 41.9992 31.6758 42.0771C31.4292 42.1517 31.1519 42.1894 30.8438 42.1895C30.3797 42.1895 29.9864 42.1068 29.665 41.9414C29.3436 41.7758 29.0992 41.5609 28.9336 41.2979C28.7681 41.0349 28.6855 40.757 28.6855 40.4648H29.5918C29.6048 40.7116 29.6758 40.9086 29.8057 41.0547C29.9355 41.1975 30.0949 41.2996 30.2832 41.3613C30.4715 41.4198 30.6587 41.4492 30.8438 41.4492C31.0903 41.4492 31.2964 41.4165 31.4619 41.3516C31.6307 41.2867 31.759 41.1975 31.8467 41.084C31.9343 40.9704 31.9785 40.8403 31.9785 40.6943C31.9785 40.5646 31.949 40.4443 31.8906 40.334C31.8354 40.2203 31.7202 40.1173 31.5449 40.0264C31.3729 39.9322 31.1129 39.8514 30.7656 39.7832C30.4735 39.7215 30.2086 39.6488 29.9717 39.5645C29.7379 39.48 29.5377 39.377 29.3721 39.2568C29.2099 39.1367 29.0847 38.9953 28.9971 38.833C28.9096 38.6708 28.8662 38.481 28.8662 38.2637C28.8662 38.0559 28.911 37.8589 29.002 37.6738C29.0961 37.4889 29.2278 37.3254 29.3965 37.1826C29.5686 37.0397 29.7753 36.9269 30.0156 36.8457C30.2558 36.7646 30.524 36.7246 30.8193 36.7246Z" fill="white"/>
<path d="M35.2852 36.8223H36.2695V37.5137H35.2852V40.7861C35.2852 40.9645 35.3131 41.0995 35.3682 41.1904C35.4234 41.2814 35.4953 41.3419 35.583 41.3711C35.6706 41.4002 35.7647 41.415 35.8652 41.415C35.9398 41.415 36.0176 41.4085 36.0986 41.3955C36.1831 41.3793 36.2468 41.3662 36.2891 41.3564L36.2939 42.0918C36.2225 42.1145 36.1276 42.1358 36.0107 42.1553C35.8972 42.1779 35.7588 42.1895 35.5967 42.1895C35.3761 42.1894 35.1732 42.1452 34.9883 42.0576C34.8032 41.9699 34.6553 41.8237 34.5449 41.6191C34.4379 41.4114 34.3848 41.1318 34.3848 40.7812V37.5137H33.4199V36.8223H34.3848V35.541H35.2852V36.8223Z" fill="white"/>
<path d="M19.4795 35.7695H17.2002V42.0918H16.2744V35.7695H14V35H19.4795V35.7695Z" fill="white"/>
<path d="M22.1738 36.7246C22.2387 36.7246 22.3132 36.7328 22.3975 36.749C22.4819 36.762 22.5408 36.7767 22.5732 36.793L22.5684 37.6299C22.4937 37.6136 22.4217 37.6048 22.3535 37.6016C22.2887 37.5951 22.2142 37.5918 22.1299 37.5918C21.9221 37.5918 21.7382 37.6235 21.5791 37.6885C21.42 37.7534 21.2852 37.845 21.1748 37.9619C21.0721 38.0707 20.9901 38.1995 20.9268 38.3477V42.0918H20.0254V36.8223H20.9023L20.9199 37.4268C20.9221 37.4232 20.9245 37.4196 20.9268 37.416C21.0598 37.1986 21.2282 37.0293 21.4326 36.9092C21.6404 36.7858 21.8881 36.7246 22.1738 36.7246Z" fill="white"/>
</svg>
