<svg width="50" height="50" viewBox="0 0 50 50" fill="none" xmlns="http://www.w3.org/2000/svg">
<path fill-rule="evenodd" clip-rule="evenodd" d="M37.9767 24.3294C37.9767 31.66 32.1669 37.6027 25 37.6027C17.8332 37.6027 12.0233 31.66 12.0233 24.3294C12.0233 16.9987 17.8332 11.0559 25 11.0559C32.1669 11.0559 37.9767 16.9987 37.9767 24.3294Z" fill="#D33833"/>
<path d="M12.5521 27.6167C12.5521 27.6167 11.6127 13.7749 24.367 13.3794L23.4773 11.8963L16.5564 14.2198L14.5789 16.4938L12.8487 19.8061L11.8599 23.662L12.1565 26.2326" fill="#EF3D3A"/>
<path d="M16.1121 15.2745C13.8353 17.6041 12.4264 20.8206 12.4264 24.3789C12.4264 27.9364 13.8353 31.1533 16.1121 33.4825C18.3899 35.8116 21.5292 37.2489 24.9998 37.2489C28.4705 37.2489 31.61 35.8116 33.8877 33.4825C36.1643 31.1533 37.5735 27.9364 37.5735 24.3789C37.5735 20.8206 36.1643 17.6041 33.8877 15.2745C31.61 12.9458 28.4705 11.5086 24.9998 11.5083C21.5292 11.5086 18.3899 12.9458 16.1121 15.2745ZM15.5357 34.0459C13.116 31.5713 11.6201 28.1513 11.6201 24.3789C11.6201 20.6058 13.116 17.1862 15.5357 14.7114C17.9549 12.2362 21.3036 10.702 24.9998 10.7024C28.6961 10.702 32.0451 12.2362 34.4638 14.7114C36.8837 17.1862 38.3798 20.6061 38.3796 24.3789C38.3798 28.1513 36.8837 31.5713 34.4638 34.0459C32.0451 36.521 28.6961 38.055 24.9998 38.055C21.3036 38.055 17.9549 36.521 15.5357 34.0459Z" fill="#231F20"/>
<path fill-rule="evenodd" clip-rule="evenodd" d="M30.4625 24.4029L28.485 24.6995L25.8155 24.9961L24.0852 25.0455L22.4045 24.9961L21.1191 24.6006L19.982 23.3647L19.0922 20.8435L18.8945 20.2997L17.708 19.9043L17.0159 18.7672L16.5216 17.1359L17.0654 15.7022L18.3507 15.2573L19.3888 15.7517L19.8833 16.8393L20.4765 16.7403L20.6741 16.4933L20.4765 15.3562L20.4269 13.9225L20.7236 11.9452L20.712 10.8157L21.6134 9.37458L23.1953 8.23752L25.9638 7.05107L29.0287 7.49599L31.6982 9.42397L32.9342 11.4013L33.7251 12.835L33.9228 16.3943L33.3296 19.4594L32.2421 22.1783L31.2039 23.612" fill="#F0D6B7"/>
<path fill-rule="evenodd" clip-rule="evenodd" d="M28.7816 32.9551L21.7123 33.2517V34.4381L22.3055 38.5907L22.0089 38.9369L17.0654 37.256L16.7193 36.6627L16.2249 31.0766L15.0881 27.715L14.8408 26.9241L18.7956 24.2052L20.0315 23.7107L21.119 25.0455L22.0583 25.8859L23.146 26.2319L23.6402 26.3802L24.2335 28.9508L24.6784 29.4946L25.8155 29.0991L25.0244 30.6317L29.3253 32.6585L28.7816 32.9551Z" fill="#335061"/>
<path fill-rule="evenodd" clip-rule="evenodd" d="M17.0654 15.7022L18.3507 15.2573L19.3888 15.7517L19.8833 16.8393L20.4765 16.7403L20.6248 16.1471L20.3282 15.0102L20.6248 12.2912L20.3775 10.8081L21.2674 9.76996L23.1953 8.23752L22.6515 7.49598L19.9326 8.83073L18.7956 9.72057L18.1529 11.1047L17.1642 12.4395L16.8676 14.0214L17.0654 15.7022Z" fill="#6D6B6D"/>
<path fill-rule="evenodd" clip-rule="evenodd" d="M19.0922 11.0554C19.0922 11.0554 19.8338 9.22632 22.7999 8.33648C25.766 7.44665 22.9482 7.69372 22.9482 7.69372L19.735 8.92971L18.499 10.1655L17.9553 11.1543L19.0922 11.0554Z" fill="#DCD9D8"/>
<path fill-rule="evenodd" clip-rule="evenodd" d="M17.6091 15.3563C17.6091 15.3563 16.571 11.8957 20.5258 11.4014L20.3775 10.8081L17.6587 11.4509L16.8676 14.0214L17.0654 15.7022L17.6091 15.3563Z" fill="#DCD9D8"/>
<path fill-rule="evenodd" clip-rule="evenodd" d="M19.1911 19.9537L19.8384 19.3265C19.8384 19.3265 20.1305 19.3605 20.1799 19.7065C20.2292 20.0527 20.3775 23.1671 22.5032 24.848C22.6971 25.0013 20.9214 24.6006 20.9214 24.6006L19.3394 22.1289" fill="#F7E4CD"/>
<path fill-rule="evenodd" clip-rule="evenodd" d="M28.2875 19.0146C28.2875 19.0146 28.4027 17.5161 28.8063 17.6313C29.2098 17.7465 29.2098 18.1501 29.2098 18.1501C29.2098 18.1501 28.2298 18.7841 28.2875 19.0146Z" fill="#F7E4CD"/>
<path d="M32.3904 13.5272C32.3904 13.5272 31.5756 13.6992 31.5005 14.417C31.4255 15.135 32.3904 14.5654 32.5387 14.516" fill="#F7E4CD"/>
<path d="M26.4087 13.5767C26.4087 13.5767 25.321 13.725 25.321 14.417C25.321 15.1092 26.5571 15.0598 26.9031 14.7632" fill="#F7E4CD"/>
<path fill-rule="evenodd" clip-rule="evenodd" d="M19.6854 16.7899C19.6854 16.7899 17.8068 15.6529 17.6091 16.7405C17.4114 17.8281 16.9664 18.6191 17.9057 19.756L17.2631 19.5583L16.6699 18.0259L16.4722 16.5428L17.6091 15.3563L18.8945 15.4552L19.636 16.0484L19.6854 16.7899Z" fill="#F7E4CD"/>
<path fill-rule="evenodd" clip-rule="evenodd" d="M20.5752 13.6754C20.5752 13.6754 21.4156 9.32518 25.6671 8.48473C29.1673 7.79288 31.0061 8.63305 31.6982 9.42397C31.6982 9.42397 28.5838 5.71645 25.6176 6.85336C22.6515 7.99043 20.4765 10.0668 20.5258 11.4014C20.61 13.6746 20.5752 13.6754 20.5752 13.6754Z" fill="#F7E4CD"/>
<path fill-rule="evenodd" clip-rule="evenodd" d="M32.0444 9.91832C32.0444 9.91832 30.6109 9.86893 30.5613 11.1543C30.5613 11.1543 30.5612 11.352 30.6601 11.5497C30.6601 11.5497 31.7973 10.2643 32.4893 10.9565" fill="#F7E4CD"/>
<path fill-rule="evenodd" clip-rule="evenodd" d="M25.7668 11.6836C25.7668 11.6836 25.52 9.71067 23.838 10.8577C22.7504 11.5992 22.8494 12.6373 23.047 12.835C23.2447 13.0329 23.191 13.4311 23.3415 13.1578C23.4919 12.8844 23.4424 11.9946 23.9863 11.7475C24.5301 11.5003 25.4215 11.2241 25.7668 11.6836Z" fill="#F7E4CD"/>
<path fill-rule="evenodd" clip-rule="evenodd" d="M21.119 25.0455L16.4722 27.1218C16.4722 27.1218 18.4002 34.7843 17.4114 37.1572L16.7193 36.9101L16.6699 33.9933L15.3847 28.4567L14.8408 26.9241L19.6854 23.6615L21.119 25.0455Z" fill="#49728B"/>
<path fill-rule="evenodd" clip-rule="evenodd" d="M21.5969 29.2836L22.2561 30.088V33.0541H21.4651C21.4651 33.0541 21.3663 30.9778 21.3663 30.7306C21.3663 30.4834 21.4651 29.5935 21.4651 29.5935" fill="#49728B"/>
<path fill-rule="evenodd" clip-rule="evenodd" d="M21.6134 33.4991L19.3888 33.5979L20.0316 34.0428L21.6134 34.29" fill="#49728B"/>
<path fill-rule="evenodd" clip-rule="evenodd" d="M29.2266 33.0046L31.0556 32.9552L31.5006 37.5033L29.622 37.7504L29.2266 33.0046Z" fill="#335061"/>
<path fill-rule="evenodd" clip-rule="evenodd" d="M29.7208 33.0047L32.4893 32.8564C32.4893 32.8564 33.6262 29.9892 33.6262 29.8409C33.6262 29.6926 34.6149 25.6884 34.6149 25.6884L32.3903 23.365L31.9454 22.9695L30.759 24.1559V28.7534L29.7208 33.0047Z" fill="#335061"/>
<path fill-rule="evenodd" clip-rule="evenodd" d="M30.9567 32.6586L29.2266 33.0046L29.4737 34.389C30.1163 34.6856 31.2039 33.8945 31.2039 33.8945" fill="#49728B"/>
<path fill-rule="evenodd" clip-rule="evenodd" d="M31.0062 24.0076L34.4667 26.5782L34.5656 25.3917L31.9454 22.9695L31.0062 24.0076Z" fill="#49728B"/>
<path fill-rule="evenodd" clip-rule="evenodd" d="M23.329 42.7439L22.3055 38.5907L21.7965 35.5263L21.7123 33.2517L26.3446 33.0051L29.2266 33.0046L28.9645 38.1958L29.4094 42.2001L29.36 42.9416L25.6031 43.2382L23.329 42.7439Z" fill="white"/>
<path fill-rule="evenodd" clip-rule="evenodd" d="M28.5838 32.9553C28.5838 32.9553 28.3367 38.0966 29.0782 41.7547C29.0782 41.7547 27.5952 42.6941 25.4199 42.9412L29.5725 42.7929L30.0668 42.4963L29.4737 34.389L29.3253 32.6585" fill="#DCD9D8"/>
<path fill-rule="evenodd" clip-rule="evenodd" d="M31.5848 37.1083L33.5127 36.5645L37.1709 36.3668L37.7147 34.6861L36.7259 31.7693L35.589 31.621L34.0071 32.1153L32.4893 32.8564L31.6835 32.7086L31.0556 32.9552" fill="white"/>
<path fill-rule="evenodd" clip-rule="evenodd" d="M31.5499 36.119C31.5499 36.119 32.8351 35.5259 33.033 35.5754L32.4893 32.8564L33.1319 32.6092C33.1319 32.6092 33.5768 35.1798 33.5768 35.4764C33.5768 35.4764 36.3451 35.6247 36.5923 35.6247C36.5923 35.6247 37.1855 34.4877 37.0372 33.3012L37.5811 34.8832L37.6304 35.773L36.8395 36.9595L35.9497 37.1572L34.4666 37.1078L33.9723 36.4652L32.242 36.7123L31.6982 36.9101" fill="#DCD9D8"/>
<path d="M29.6073 32.6098L28.5197 29.8413L27.3827 28.21C27.3827 28.21 27.6298 27.5178 27.9759 27.5178C28.3221 27.5178 29.113 27.5178 29.113 27.5178L30.2005 27.9134L30.1017 29.7424L29.6073 32.6098Z" fill="white"/>
<path fill-rule="evenodd" clip-rule="evenodd" d="M29.8198 31.6698C29.8198 31.6698 28.4355 29.0004 28.4355 28.6049C28.4355 28.6049 28.6825 28.0117 29.0287 28.16C29.3748 28.3083 30.1164 28.7037 30.1164 28.7037V27.7645L28.4355 27.4183L27.2986 27.5666L29.2265 32.1147L29.6219 32.1643" fill="#DCD9D8"/>
<path d="M23.7739 25.1451L22.4045 24.9961L21.1191 24.6006L21.119 25.0455L21.7471 25.7381L23.7245 26.628" fill="white"/>
<path fill-rule="evenodd" clip-rule="evenodd" d="M21.5641 25.2932C21.5641 25.2932 23.0967 25.9359 23.591 25.7876L23.6402 26.3802L22.2563 26.0842L21.4158 25.491L21.5641 25.2932Z" fill="#DCD9D8"/>
<path fill-rule="evenodd" clip-rule="evenodd" d="M31.5794 27.6861C30.7406 27.6614 29.9828 27.5618 29.3193 27.3746C29.3643 27.1026 29.28 26.8357 29.3477 26.6398C29.5327 26.5066 29.8426 26.5087 30.1222 26.4774C29.8804 26.3586 29.5408 26.3116 29.2619 26.3802C29.2553 26.1914 29.1707 26.0744 29.1193 25.9267C29.591 25.7584 30.7043 24.6548 31.3306 25.0203C31.629 25.1941 31.7558 26.1868 31.7789 26.6696C31.7982 27.07 31.7426 27.474 31.5794 27.6861Z" fill="#D33833"/>
<path fill-rule="evenodd" clip-rule="evenodd" d="M27.5682 26.3148C27.566 26.3783 27.5633 26.4422 27.5608 26.5063C27.2989 26.6783 26.876 26.6763 26.5886 26.8209C27.0123 26.8394 27.3459 26.9414 27.6345 27.0853C27.6281 27.2452 27.622 27.4049 27.6158 27.5648C27.1357 27.8934 26.6972 28.3828 26.132 28.691C25.8647 28.8368 24.9268 29.2118 24.6425 29.1455C24.4816 29.1082 24.4671 28.9086 24.4028 28.7204C24.2658 28.3174 23.9503 27.676 23.9228 27.0694C23.8878 26.3033 23.8105 25.0193 24.6361 25.177C25.3022 25.3041 26.0769 25.611 26.5926 25.8928C26.9078 26.0651 27.09 26.2781 27.5682 26.3148Z" fill="#D33833"/>
<path fill-rule="evenodd" clip-rule="evenodd" d="M28.045 27.229C27.9717 26.8117 27.887 26.6926 27.9198 26.3285C29.0329 25.5864 29.2418 27.6032 28.045 27.229Z" fill="#D33833"/>
<path fill-rule="evenodd" clip-rule="evenodd" d="M29.6567 27.5674C29.6567 27.5674 29.3105 27.0729 29.5577 26.9246C29.805 26.7763 30.0522 26.9248 30.2005 26.6775C30.3488 26.4303 30.2005 26.282 30.2499 25.9854C30.2993 25.6888 30.5467 25.6392 30.7937 25.5899C31.0408 25.5405 31.7331 25.4416 31.8319 25.6888L31.5353 24.7989L30.942 24.6013L29.0634 25.6888L28.9645 26.2326V27.3201" fill="#EF3D3A"/>
<path fill-rule="evenodd" clip-rule="evenodd" d="M24.4659 29.1987C24.4066 28.4272 24.3437 27.6567 24.2738 26.886C24.1692 25.7351 24.5502 25.9359 25.5478 25.9359C25.7002 25.9359 26.486 26.1176 26.5422 26.2325C26.8118 26.7832 26.0914 26.6609 26.8528 27.0761C27.4955 27.4266 28.6309 26.8633 28.3713 26.0842C28.2259 25.911 27.614 26.0303 27.3947 25.9165C27.0085 25.7163 26.6223 25.5161 26.2361 25.3159C25.7447 25.0609 24.609 24.6892 24.0852 25.0455C22.7578 25.9482 24.1689 28.2038 24.6425 29.1455" fill="#EF3D3A"/>
<path fill-rule="evenodd" clip-rule="evenodd" d="M25.7668 11.6836C24.4194 11.3698 23.7499 12.2474 23.3415 13.1578C22.9768 13.0694 23.1219 12.5734 23.214 12.3207C23.4552 11.6575 24.4271 10.7746 25.2213 10.8943C25.563 10.9457 26.0255 11.2582 25.7668 11.6836Z" fill="#231F20"/>
<path fill-rule="evenodd" clip-rule="evenodd" d="M32.3318 13.218C32.353 13.2189 32.3745 13.2196 32.3957 13.2205C32.7002 13.853 32.9637 14.5231 33.3478 15.0814C33.0905 15.6807 31.3994 16.2111 31.4255 15.135C31.7912 14.9751 32.4226 15.1023 32.7468 14.8981C32.5593 14.3836 32.2888 13.9457 32.3318 13.218Z" fill="#231F20"/>
<path fill-rule="evenodd" clip-rule="evenodd" d="M26.4567 13.2345C26.7456 13.7641 26.8396 14.3205 27.2503 14.7208C27.4352 14.901 27.7948 15.1206 27.6166 15.6218C27.5749 15.74 27.2704 16.0035 27.0947 16.0553C26.4527 16.2448 24.9567 16.0944 25.4633 15.294C25.9942 15.3188 26.7079 15.6388 27.1048 15.2534C26.8 14.7662 26.2567 13.8023 26.4567 13.2345Z" fill="#231F20"/>
<path fill-rule="evenodd" clip-rule="evenodd" d="M32.0908 18.617C31.1241 19.238 30.0462 19.9132 28.4623 19.7566C28.1239 19.4623 27.9949 18.8076 28.3236 18.3751C28.4948 18.6694 28.3873 19.2105 28.8642 19.2919C29.763 19.4457 30.809 18.7422 31.4554 18.4963C31.8563 17.8204 31.4209 17.5719 31.0597 17.1369C30.3204 16.2457 29.3287 15.1412 29.3648 13.807C29.6636 13.5903 29.6894 14.1377 29.7323 14.2374C30.1183 15.1409 31.0898 16.2963 31.7989 17.0696C31.973 17.26 32.2597 17.4427 32.2916 17.5686C32.3835 17.9348 32.0524 18.3735 32.0908 18.617Z" fill="#231F20"/>
<path fill-rule="evenodd" clip-rule="evenodd" d="M19.3471 17.9633C19.0441 17.7904 18.972 17.0287 18.6163 17.007C18.1079 16.9762 18.2006 17.9952 18.2027 18.5911C17.8528 18.2734 17.7912 17.2953 18.0483 16.793C17.7553 16.6491 17.6245 16.9517 17.462 17.0583C17.6708 15.5412 19.6814 16.3546 19.3471 17.9633Z" fill="#231F20"/>
<path fill-rule="evenodd" clip-rule="evenodd" d="M32.7063 19.2488C32.2563 20.1053 31.6198 21.0485 30.2994 21.0759C30.2726 20.7994 30.252 20.3785 30.3009 20.2119C31.3103 20.1149 31.9334 19.6012 32.7063 19.2488Z" fill="#231F20"/>
<path fill-rule="evenodd" clip-rule="evenodd" d="M26.3805 19.804C27.2226 20.2469 28.7704 20.2945 29.915 20.261C29.9764 20.5118 29.9749 20.8216 29.9773 21.1274C28.5059 21.2008 26.7663 20.8367 26.3805 19.804Z" fill="#231F20"/>
<path fill-rule="evenodd" clip-rule="evenodd" d="M26.2205 20.6299C26.8028 22.092 28.8044 21.9237 30.4922 21.8834C30.4179 22.0732 30.2569 22.2975 30.0567 22.3786C29.5158 22.5987 28.024 22.7657 27.2731 22.3669C26.7969 22.1137 26.4909 21.5417 26.23 21.2064C26.104 21.0444 25.4766 20.6308 26.2205 20.6299Z" fill="#231F20"/>
<path fill-rule="evenodd" clip-rule="evenodd" d="M32.0205 28.6951C31.3371 29.8656 30.6832 31.0678 29.8725 32.1002C30.2124 31.1007 30.3579 29.4279 30.4092 28.1527C31.1203 27.8199 31.7292 28.2276 32.0205 28.6951Z" fill="#81B0C4"/>
<path fill-rule="evenodd" clip-rule="evenodd" d="M35.6979 32.9019C34.9328 33.0551 34.3952 33.7987 33.6487 33.751C34.059 33.1727 34.7778 32.9289 35.6979 32.9019Z" fill="#231F20"/>
<path fill-rule="evenodd" clip-rule="evenodd" d="M36.0354 34.0992C35.4118 34.1651 34.6793 34.2661 34.0468 34.214C34.3462 33.7567 35.4999 33.9145 36.0354 34.0992Z" fill="#231F20"/>
<path fill-rule="evenodd" clip-rule="evenodd" d="M36.2515 35.1317C35.5506 35.1468 34.6795 35.1329 34.0133 35.077C34.4073 34.6537 35.7969 34.9199 36.2515 35.1317Z" fill="#231F20"/>
<path fill-rule="evenodd" clip-rule="evenodd" d="M30.7017 37.9567C30.8023 38.8369 31.1512 39.7288 31.1075 40.6928C30.72 40.8235 30.4974 40.9378 29.9782 40.9371C29.9415 40.1178 29.8319 38.8654 29.8647 38.0844C30.1201 38.1013 30.4966 37.902 30.7017 37.9567Z" fill="#DCD9D8"/>
<path fill-rule="evenodd" clip-rule="evenodd" d="M29.5718 24.9842C29.2199 25.2139 28.9201 25.5007 28.5822 25.746C27.8326 25.7831 27.4236 25.6941 26.8729 25.2638C26.882 25.2292 26.9373 25.2446 26.9394 25.2022C27.7417 25.5598 28.7616 25.0566 29.5718 24.9842Z" fill="#F0D6B7"/>
<path fill-rule="evenodd" clip-rule="evenodd" d="M25.3598 30.4534C25.5803 29.4982 26.444 29.0035 27.2284 28.4774C28.038 29.5049 28.5304 30.8263 29.0726 32.1014C27.7915 31.7152 26.4826 31.0886 25.3598 30.4534Z" fill="#81B0C4"/>
<path fill-rule="evenodd" clip-rule="evenodd" d="M29.8647 38.0844C29.8319 38.8654 29.9415 40.1178 29.9782 40.9371C30.4974 40.9378 30.72 40.8235 31.1075 40.6928C31.1512 39.7288 30.8023 38.8369 30.7017 37.9567C30.4966 37.902 30.1201 38.1013 29.8647 38.0844ZM21.78 33.6429C22.1224 36.7903 22.6183 39.4362 23.5278 42.2234C25.5464 42.8363 27.9799 42.8897 29.7642 42.3366C29.4366 40.7635 29.5797 38.8484 29.3882 37.1697C29.2439 35.9079 29.3175 34.6384 29.1197 33.3511C26.9577 32.9013 23.9017 33.246 21.78 33.6429ZM29.6309 33.3709C29.6126 34.7226 29.6914 36.0561 29.7946 37.4095C30.3137 37.3316 30.6659 37.2796 31.1482 37.1739C30.9916 35.8709 31.0109 34.4047 30.6919 33.252C30.3232 33.2556 29.9985 33.2477 29.6309 33.3709ZM32.264 33.153C32.0177 33.0965 31.7309 33.1508 31.4955 33.1553C31.6062 34.2573 31.8746 35.4732 31.9691 36.6299C32.3394 36.6414 32.5372 36.4667 32.8418 36.408C32.8582 35.3927 32.7532 33.9939 32.264 33.153ZM36.2511 36.7958C37.023 36.6083 37.5084 35.6629 37.2925 34.6919C37.1476 34.0394 36.8896 32.8106 36.6134 32.3932C36.4093 32.0844 35.856 31.6802 35.4142 31.9631C34.6955 32.4233 33.4294 32.5569 32.9053 33.114C33.1681 33.989 33.2497 35.1908 33.3581 36.2995C34.2559 36.3555 35.3607 36.0525 36.1074 36.3741C35.5861 36.5429 34.9097 36.5442 34.4593 36.7903C34.8274 36.9681 35.6892 36.9322 36.2511 36.7958ZM29.0726 32.1014C28.5304 30.8263 28.038 29.5049 27.2284 28.4774C26.444 29.0035 25.5803 29.4982 25.3598 30.4534C26.4826 31.0886 27.7915 31.7152 29.0726 32.1014ZM30.4092 28.1527C30.3579 29.4279 30.2124 31.1007 29.8725 32.1002C30.6832 31.0678 31.3371 29.8656 32.0205 28.6951C31.7292 28.2276 31.1203 27.8199 30.4092 28.1527ZM28.8941 27.6143C28.587 27.5813 28.3262 27.9675 27.9268 27.8005C27.8353 27.9016 27.7521 28.0112 27.6589 28.11C28.541 29.173 28.9418 30.6813 29.6232 31.9306C29.9887 30.7305 29.9466 29.4158 30.0271 28.106C29.5248 28.1379 29.2462 27.6517 28.8941 27.6143ZM28.045 27.229C27.9717 26.8117 27.887 26.6926 27.9198 26.3285C29.0329 25.5864 29.2418 27.6032 28.045 27.229ZM26.5926 25.8928C26.0769 25.611 25.3022 25.3041 24.6361 25.177C23.8105 25.0193 23.8878 26.3033 23.9228 27.0694C23.9503 27.676 24.2658 28.3174 24.4028 28.7204C24.4671 28.9086 24.4816 29.1082 24.6425 29.1455C24.9268 29.2118 25.8647 28.8368 26.132 28.691C26.6972 28.3828 27.1357 27.8934 27.6158 27.5648C27.622 27.4049 27.6281 27.2452 27.6345 27.0853C27.3459 26.9414 27.0123 26.8394 26.5886 26.8209C26.876 26.6763 27.2989 26.6783 27.5608 26.5063C27.5633 26.4422 27.566 26.3783 27.5682 26.3148C27.09 26.2781 26.9078 26.0651 26.5926 25.8928ZM21.6669 24.9981C21.2389 25.4326 22.8674 26.0249 23.3859 26.0568C23.383 25.7819 23.5426 25.5226 23.5104 25.3254C22.8946 25.2173 22.0853 25.2886 21.6669 24.9981ZM26.9394 25.2022C26.9373 25.2446 26.882 25.2292 26.8729 25.2638C27.4236 25.6941 27.8326 25.7831 28.5822 25.746C28.9201 25.5007 29.2199 25.2139 29.5718 24.9842C28.7616 25.0566 27.7417 25.5598 26.9394 25.2022ZM31.7789 26.6696C31.7558 26.1868 31.629 25.1941 31.3306 25.0203C30.7043 24.6548 29.591 25.7584 29.1193 25.9267C29.1707 26.0744 29.2553 26.1914 29.2619 26.3802C29.5408 26.3116 29.8804 26.3586 30.1222 26.4774C29.8426 26.5087 29.5327 26.5066 29.3477 26.6398C29.28 26.8357 29.3643 27.1026 29.3193 27.3746C29.9828 27.5618 30.7406 27.6614 31.5794 27.6861C31.7426 27.474 31.7982 27.07 31.7789 26.6696ZM20.9463 25.4184C20.8119 25.3226 19.9027 24.1395 19.7781 24.1886C18.1329 24.8375 16.5945 25.9594 15.2198 27.0205C16.5305 29.833 17.0596 33.2787 17.1531 36.5999C18.6545 37.3021 19.9734 38.3145 22.0108 38.4202C21.7751 36.7521 21.5598 35.2638 21.426 33.6932C20.9141 33.4774 20.1796 33.703 19.7005 33.6263C19.6965 33.049 20.4322 33.3735 20.4935 32.9853C20.5397 32.6916 20.0887 32.6694 20.2355 32.2069C20.6101 32.3431 20.8067 32.6438 21.2062 32.7567C21.5711 31.9582 21.2011 30.5455 21.2537 29.8781C21.2636 29.7528 21.3162 29.1838 21.5969 29.2836C21.8453 29.3719 21.5827 30.7967 21.61 31.4283C21.6348 32.0103 21.5397 32.5734 21.7753 32.9387C23.7442 32.6707 25.7448 32.4975 27.8751 32.439C27.4064 32.2379 26.8497 32.0476 26.2393 31.7036C25.9084 31.517 24.8653 31.1289 24.7699 30.8146C24.6175 30.3138 25.1696 30.047 25.264 29.6177C24.2702 30.1597 24.0763 29.0981 23.8412 28.3461C23.6282 27.6649 23.5069 27.1561 23.4547 26.7632C22.5986 26.3551 21.6832 25.9417 20.9463 25.4184ZM30.9094 24.3317C32.2802 23.667 32.5273 26.816 31.99 27.8304C32.073 28.133 32.3587 28.2488 32.4752 28.5208C31.7103 29.8911 30.8606 31.1702 30.0801 32.5245C30.6607 32.163 31.49 32.4598 32.1733 32.1893C32.423 32.0905 32.6038 31.5188 32.7929 31.0614C33.313 29.803 33.8591 28.2166 34.102 27.0158C34.1569 26.7421 34.3064 26.146 34.2729 25.9024C34.2131 25.4664 33.6215 25.1431 33.3206 24.8735C32.7662 24.3755 32.4171 23.9372 31.8389 23.4716C31.6044 23.8177 31.1012 24.0502 30.9094 24.3317ZM17.8114 12.1754C17.1582 12.8941 17.2949 14.2407 17.374 15.1988C18.5546 14.456 20.1217 15.2575 20.1069 16.5208C20.6706 16.5058 20.3175 15.8167 20.2155 15.3729C19.8823 13.923 20.7769 12.3479 20.2561 11.022C19.2449 11.0987 18.4141 11.5117 17.8114 12.1754ZM22.485 8.00414C21.0063 8.42325 19.1112 9.49773 18.5035 10.8261C18.974 10.7577 19.3007 10.5204 19.7648 10.4911C19.9402 10.4797 20.1701 10.5646 20.3717 10.5145C20.7734 10.4149 21.1125 9.51404 21.4156 9.17887C21.711 8.85156 22.0662 8.71171 22.3092 8.41331C22.4653 8.33798 22.6962 8.34316 22.705 8.10869C22.6374 8.03632 22.5661 7.98115 22.485 8.00414ZM30.1826 8.39833C28.6478 7.53237 26.0499 6.88102 24.4172 7.69492C23.0999 8.35177 21.3191 9.4385 20.712 10.8157C21.2791 12.1446 20.544 13.3624 20.4971 14.7117C20.4722 15.4297 20.8351 16.0564 20.8629 16.838C20.6689 17.1582 20.0759 17.1976 19.6655 17.1757C19.5273 16.4843 19.2854 15.7071 18.5735 15.6291C17.566 15.5189 16.8294 16.3527 16.7836 17.224C16.7295 18.2487 17.5706 19.9469 18.7629 19.829C19.2234 19.7835 19.3365 19.3218 19.8384 19.3265C20.1103 19.8692 19.4189 20.0396 19.3477 20.4277C19.3292 20.528 19.4051 20.9198 19.4492 21.1036C19.6658 21.9983 20.1485 23.1563 20.6237 23.8374C21.2267 24.7015 22.4116 24.8317 23.6862 24.9164C23.9139 24.4259 24.7526 24.4662 25.2991 24.5945C24.6441 24.3351 24.0353 23.7063 23.5307 23.1497C22.9511 22.5111 22.3639 21.8261 22.3343 20.9914C23.4296 22.511 24.3345 23.838 26.3262 24.5064C27.8333 25.0119 29.5934 24.2748 30.7513 23.4616C31.2318 23.1236 31.5187 22.5874 31.8602 22.0965C33.1382 20.2582 33.7345 17.6344 33.6034 15.0912C33.5494 14.0424 33.5518 12.9972 33.1999 12.2915C32.8321 11.5537 31.5881 10.8936 30.8599 11.561C30.7249 10.8435 31.4654 10.3997 32.3352 10.6579C31.715 9.85752 31.0641 8.89575 30.1826 8.39833ZM33.0421 32.0631C34.2414 31.4669 36.4823 30.4583 37.2342 32.0653C37.5117 32.6577 37.8372 33.659 37.9809 34.2705C38.184 35.1331 37.7609 36.9464 36.8741 37.2358C36.0909 37.4915 35.1771 37.4759 34.2337 37.2864C34.1226 37.194 33.9989 37.033 33.9125 36.8651C33.2389 36.8389 32.6081 36.9012 32.076 37.1781C32.1264 37.6763 31.7895 37.7562 31.4736 37.8588C31.2394 38.7874 31.9421 40 31.7739 40.8466C31.6539 41.4498 30.9118 41.5431 30.3663 41.6559C30.3485 41.9911 30.3902 42.2709 30.4274 42.5545C30.3027 43.0141 29.7433 43.2757 29.2132 43.3398C27.4693 43.5495 24.8214 43.6437 23.144 43.0405C22.6759 41.8924 22.3072 40.4959 21.9173 39.1848C20.2813 39.3596 18.9581 38.4789 17.7107 37.902C17.2788 37.7018 16.6814 37.5915 16.5201 37.2477C16.3636 36.9149 16.4276 36.277 16.3888 35.6745C16.2901 34.1355 16.2055 32.6511 15.7991 31.0753C15.6166 30.3682 15.2985 29.7443 15.0767 29.063C14.8716 28.4315 14.5133 27.6511 14.4198 27.0214C14.2813 26.0881 15.1601 26.0362 15.722 25.6318C16.5907 25.0064 17.2726 24.6605 18.2134 24.0961C18.492 23.9289 19.3324 23.5058 19.4279 23.3109C19.618 22.9246 19.1018 22.3799 18.9638 22.077C18.7455 21.5982 18.6317 21.1914 18.6004 20.7188C17.8112 20.5941 17.2129 20.1244 16.8515 19.5948C16.2537 18.7183 15.8392 17.0968 16.3564 15.8633C16.3969 15.7662 16.5992 15.5752 16.6291 15.426C16.6879 15.1322 16.5183 14.7415 16.5078 14.429C16.4534 12.8259 16.779 11.4445 17.8583 10.9611C18.2964 9.21565 19.8646 8.63533 21.342 7.76789C21.8943 7.44369 22.5031 7.23651 23.1318 7.00515C25.3873 6.17508 28.8478 6.3314 30.7197 7.74712C31.5135 8.34747 32.7822 9.61503 33.236 10.5328C34.4347 12.9556 34.3495 17.0048 33.5112 19.9521C33.3984 20.3478 33.235 20.9294 33.0068 21.4048C32.8476 21.7367 32.353 22.4008 32.4131 22.6938C32.4749 22.9968 33.5408 23.8061 33.7694 24.0265C34.1809 24.4235 34.9628 24.9505 35.0261 25.4514C35.0942 25.9846 34.7912 26.714 34.6377 27.2284C34.1245 28.9454 33.6239 30.5324 33.0421 32.0631Z" fill="#231F20"/>
<path fill-rule="evenodd" clip-rule="evenodd" d="M25.0405 20.1782C25.1056 20.0916 25.4633 19.96 25.9638 20.201C25.9638 20.201 25.3706 20.2999 25.42 21.289L25.1728 21.2394C25.1728 21.2394 24.9173 20.3426 25.0405 20.1782Z" fill="#F7E4CD"/>
<path fill-rule="evenodd" clip-rule="evenodd" d="M29.3748 28.6792C29.3748 28.8293 29.2531 28.951 29.1028 28.951C28.9528 28.951 28.831 28.8293 28.831 28.6792C28.831 28.5291 28.9528 28.4072 29.1028 28.4072C29.2531 28.4072 29.3748 28.5291 29.3748 28.6792Z" fill="#1D1919"/>
<path fill-rule="evenodd" clip-rule="evenodd" d="M29.6467 29.9398C29.6467 30.0899 29.5249 30.2116 29.3747 30.2116C29.2246 30.2116 29.1028 30.0899 29.1028 29.9398C29.1028 29.7897 29.2246 29.6678 29.3747 29.6678C29.5249 29.6678 29.6467 29.7897 29.6467 29.9398Z" fill="#1D1919"/>
</svg>
