<svg width="50" height="50" viewBox="0 0 50 50" fill="none" xmlns="http://www.w3.org/2000/svg">
<path d="M28.5568 35H12.4799C11.11 35 10 33.9221 10 32.596V17.0255C10 16.3899 10.2604 15.7821 10.7264 15.3259L19.6891 6.7045C20.1602 6.24878 20.7898 5.996 21.4438 6.00005H37.5195C38.89 6.00005 40 7.07788 40 8.40402V23.9746C39.9985 24.2923 39.9335 24.6065 39.8087 24.8985C39.6839 25.1904 39.5019 25.4542 39.2736 25.6741L30.3103 34.2955C29.8395 34.7509 29.2103 35.0037 28.5568 35Z" fill="url(#paint0_linear_9176_13305)"/>
<path d="M32.2898 13.2017H13.3403V32.2401H32.2898V13.2017Z" fill="black"/>
<path d="M23.5087 28.1137H15.7084V29.8597H23.5087V28.1137Z" fill="white"/>
<path d="M21.2822 42.5986C21.2822 42.2059 21.1121 41.8908 20.0664 41.6855C18.9126 41.442 18.1621 41.0429 18.1621 40.1621C18.1621 39.1529 19.22 38.6191 20.1201 38.6191C21.3857 38.6191 22.1318 39.3557 22.1318 40.2695H21.2285C21.2285 39.6859 20.6382 39.3613 20.1201 39.3613C19.3836 39.3613 19.0703 39.7405 19.0703 40.1377C19.0703 40.5193 19.2828 40.7287 20.2861 40.9531C21.585 41.2461 22.1855 41.6807 22.1855 42.5303C22.1855 43.6214 21.0865 44.0977 20.1445 44.0977C19.1296 44.0977 17.9814 43.5039 17.9814 42.3691H18.8896C18.9247 43.0357 19.5221 43.3555 20.1445 43.3555C20.8951 43.3555 21.2822 43.0356 21.2822 42.5986Z" fill="#1C1D1F"/>
<path fill-rule="evenodd" clip-rule="evenodd" d="M25.5645 44.0977C26.6172 44.0977 27.2112 43.5928 27.5518 43.0771L27.0049 42.6426C26.6729 43.0788 26.2513 43.3604 25.6133 43.3604C24.6374 43.3604 24.0693 42.508 24.0468 41.6123H27.6201C27.6201 40.1516 27.1127 38.6191 25.4473 38.6191C24.0037 38.6191 23.1377 39.997 23.1377 41.3389C23.1377 42.8137 24.0295 44.0977 25.5645 44.0977ZM24.0732 40.875C24.1963 39.896 24.7366 39.3613 25.4473 39.3613C26.2696 39.3613 26.7168 40.1246 26.7168 40.875H24.0732Z" fill="#1C1D1F"/>
<path d="M29.5781 44V40.244C29.7784 39.7773 30.1744 39.4883 30.7842 39.4883C30.9573 39.4883 31.0772 39.4955 31.2236 39.5273L31.2285 38.6875C31.1632 38.6548 30.9579 38.6191 30.8281 38.6191C30.2967 38.6191 29.8497 38.8724 29.5715 39.3232L29.5537 38.7168H28.6748V44H29.5781Z" fill="#1C1D1F"/>
<path d="M35.1396 42.5986C35.1396 41.9638 34.4355 41.786 33.9238 41.6855C32.77 41.442 32.0195 41.0429 32.0195 40.1621C32.0195 39.1529 33.0774 38.6191 33.9775 38.6191C34.9503 38.6191 35.9893 39.1736 35.9893 40.2695H35.0859C35.0859 39.8304 34.6962 39.3613 33.9775 39.3613C33.2411 39.3613 32.9277 39.7405 32.9277 40.1377C32.9277 40.5193 33.1402 40.7287 34.1436 40.9531C35.4424 41.2461 36.043 41.6807 36.043 42.5303C36.043 43.6214 34.9439 44.0977 34.002 44.0977C32.987 44.0977 31.8389 43.5039 31.8389 42.3691H32.7471C32.7822 43.0357 33.3795 43.3555 34.002 43.3555C34.7526 43.3555 35.1396 43.0356 35.1396 42.5986Z" fill="#1C1D1F"/>
<path d="M15.946 43.4773C15.6182 43.8672 15.1159 44.0977 14.4023 44.0977C13.3851 44.0977 12.6689 43.5402 12.6689 42.125V38.7168H13.5723V42.1348C13.5723 42.7706 13.8661 43.3311 14.5439 43.3311C15.29 43.3311 15.7168 43.0294 15.9209 42.5582V38.7168H16.8291V44H15.9648L15.946 43.4773Z" fill="#1C1D1F"/>
<defs>
<linearGradient id="paint0_linear_9176_13305" x1="12.6669" y1="35" x2="39.0416" y2="6.71735" gradientUnits="userSpaceOnUse">
<stop stop-color="#FF7300"/>
<stop offset="0.335" stop-color="#FF4C62"/>
<stop offset="0.975" stop-color="#A202C9"/>
</linearGradient>
</defs>
</svg>
