<svg width="50" height="50" viewBox="0 0 50 50" fill="none" xmlns="http://www.w3.org/2000/svg">
<path d="M29.6496 42H10.8932C9.29505 42 8 40.7363 8 39.1815V20.9264C8 20.1812 8.30377 19.4686 8.84746 18.9339L19.304 8.82597C19.8536 8.29168 20.5881 7.99531 21.3511 8.00006H40.1061C41.7049 8.00006 43 9.26372 43 10.8185V29.0736C42.9983 29.4461 42.9224 29.8145 42.7768 30.1568C42.6312 30.4991 42.4189 30.8084 42.1525 31.0662L31.6953 41.174C31.1461 41.708 30.4121 42.0043 29.6496 42Z" fill="url(#paint0_linear_9176_13304)"/>
<path d="M34.0048 16.4433H11.8971V38.7643H34.0048V16.4433Z" fill="black"/>
<path d="M23.7602 33.9264H14.6598V35.9734H23.7602V33.9264Z" fill="white"/>
<defs>
<linearGradient id="paint0_linear_9176_13304" x1="11.1113" y1="42" x2="42.0436" y2="8.99266" gradientUnits="userSpaceOnUse">
<stop stop-color="#FF7300"/>
<stop offset="0.335" stop-color="#FF4C62"/>
<stop offset="0.975" stop-color="#A202C9"/>
</linearGradient>
</defs>
</svg>
