<svg width="50" height="50" viewBox="0 0 50 50" fill="none" xmlns="http://www.w3.org/2000/svg">
<path d="M33.3496 34.6665H27.3871C27.1437 34.6665 26.9612 34.4895 26.9612 34.2535C26.9612 34.0175 27.1437 33.8405 27.3871 33.8405H33.3496C33.593 33.8405 33.7755 34.0175 33.7755 34.2535C33.7755 34.4305 33.593 34.6665 33.3496 34.6665Z" fill="#45F3C4"/>
<path d="M25.6232 34.6665H23.372C23.1287 34.6665 22.9461 34.4895 22.9461 34.2535C22.9461 34.0175 23.1287 33.8405 23.372 33.8405H25.6232C25.8666 33.8405 26.0491 34.0175 26.0491 34.2535C26.0491 34.4305 25.8666 34.6665 25.6232 34.6665Z" fill="#45F3C4"/>
<path d="M13.7583 31.2446H19.7209C19.9643 31.2446 20.1468 31.4216 20.1468 31.6576C20.1468 31.8936 19.9643 32.0706 19.7209 32.0706H13.7583C13.5149 32.0706 13.3324 31.8936 13.3324 31.6576C13.2715 31.4806 13.5149 31.2446 13.7583 31.2446Z" fill="#45F3C4"/>
<path d="M21.4243 31.2446H23.6755C23.9189 31.2446 24.1014 31.4216 24.1014 31.6576C24.1014 31.8936 23.9189 32.0706 23.6755 32.0706H21.4243C21.1809 32.0706 20.9984 31.8936 20.9984 31.6576C20.9984 31.4806 21.1809 31.2446 21.4243 31.2446Z" fill="#45F3C4"/>
<path d="M13.7583 26.2889H19.7209C19.9643 26.2889 20.1468 26.4658 20.1468 26.7018C20.1468 26.9378 19.9643 27.1148 19.7209 27.1148H13.7583C13.5149 27.1148 13.3324 26.9378 13.3324 26.7018C13.2715 26.4658 13.5149 26.2889 13.7583 26.2889Z" fill="#45F3C4"/>
<path d="M21.4243 26.2889H23.6755C23.9189 26.2889 24.1014 26.4658 24.1014 26.7018C24.1014 26.9378 23.9189 27.1148 23.6755 27.1148H21.4243C21.1809 27.1148 20.9984 26.9378 20.9984 26.7018C20.9984 26.4658 21.1809 26.2889 21.4243 26.2889Z" fill="#45F3C4"/>
<path d="M9.86444 28.7668H15.827C16.0704 28.7668 16.2529 28.9438 16.2529 29.1798C16.2529 29.4158 16.0704 29.5928 15.827 29.5928H9.86444C9.62107 29.5928 9.43854 29.4158 9.43854 29.1798C9.43854 29.0028 9.62107 28.7668 9.86444 28.7668Z" fill="#45F3C4"/>
<path d="M17.5916 28.7668H19.8428C20.0862 28.7668 20.2687 28.9438 20.2687 29.1798C20.2687 29.4158 20.0862 29.5928 19.8428 29.5928H17.5916C17.3483 29.5928 17.1658 29.4158 17.1658 29.1798C17.1049 29.0028 17.3483 28.7668 17.5916 28.7668Z" fill="#45F3C4"/>
<path d="M6.0924 28.7668H8.34358C8.58695 28.7668 8.76948 28.9438 8.76948 29.1798C8.76948 29.4158 8.58695 29.5928 8.34358 29.5928H6.0924C5.84903 29.5928 5.6665 29.4158 5.6665 29.1798C5.6665 29.0028 5.84903 28.7668 6.0924 28.7668Z" fill="#45F3C4"/>
<path d="M17.8349 23.811H11.8723C11.629 23.811 11.4464 23.6341 11.4464 23.3981C11.4464 23.1621 11.629 22.9851 11.8723 22.9851H17.8349C18.0783 22.9851 18.2608 23.1621 18.2608 23.3981C18.2608 23.6341 18.0783 23.811 17.8349 23.811Z" fill="#45F3C4"/>
<path d="M10.1081 23.811H7.85693C7.61356 23.811 7.43103 23.6341 7.43103 23.3981C7.43103 23.1621 7.61356 22.9851 7.85693 22.9851H10.1081C10.3515 22.9851 10.534 23.1621 10.534 23.3981C10.534 23.6341 10.3515 23.811 10.1081 23.811Z" fill="#45F3C4"/>
<path d="M38.7648 22.6901C38.8864 22.2771 38.8864 21.8051 38.8864 21.3332C38.8864 17.6753 35.7835 14.6665 31.9504 14.6665C29.5775 14.6665 27.3872 15.8464 26.1095 17.7933C24.8318 16.8494 23.3107 16.3184 21.668 16.3184C18.5041 16.3184 15.7054 18.3243 14.7927 21.1562L14.671 21.5102C14.6102 21.7461 14.671 21.9821 14.9144 22.0411C15.1578 22.1001 15.4012 21.9821 15.462 21.8051L15.8271 20.8612C16.8005 18.6193 19.1126 17.0854 21.668 17.0854C23.2499 17.0854 24.7709 17.6164 25.9269 18.6783C26.0486 18.7373 26.1703 18.7963 26.292 18.7963C26.4137 18.7963 26.5354 18.6783 26.5962 18.5603C27.6305 16.6134 29.6992 15.4335 31.9504 15.4335C35.2967 15.4335 37.9738 18.0293 37.9738 21.2742C37.9738 21.8051 37.913 22.3951 37.7304 22.9261C37.6696 23.0441 37.7304 23.2211 37.7913 23.2801C37.8521 23.3981 38.0346 23.4571 38.1563 23.4571H38.3997C41.3202 23.4571 43.7539 25.7579 43.7539 28.5898C43.7539 31.3036 41.5635 33.6045 38.7039 33.7225H34.9925C34.7491 33.7225 34.5666 33.8995 34.5666 34.1355C34.5666 34.3715 34.7491 34.5485 34.9925 34.5485H38.8864C42.1111 34.3125 44.6665 31.7166 44.6665 28.5898C44.6665 25.4629 42.0503 22.8081 38.7648 22.6901Z" fill="white"/>
<path fill-rule="evenodd" clip-rule="evenodd" d="M38.8864 34.5485H34.9925C34.7491 34.5485 34.5666 34.3715 34.5666 34.1355C34.5666 33.8995 34.7491 33.7225 34.9925 33.7225H38.7039C41.5635 33.6045 43.7539 31.3036 43.7539 28.5898C43.7539 25.7579 41.3202 23.4571 38.3997 23.4571H38.1563C38.0346 23.4571 37.8521 23.3981 37.7913 23.2801C37.7304 23.2211 37.6696 23.0441 37.7304 22.9261C37.913 22.3951 37.9738 21.8051 37.9738 21.2742C37.9738 18.0293 35.2967 15.4335 31.9504 15.4335C29.6992 15.4335 27.6305 16.6134 26.5962 18.5603C26.5354 18.6783 26.4137 18.7963 26.292 18.7963C26.1703 18.7963 26.0486 18.7373 25.9269 18.6783C24.7709 17.6164 23.2499 17.0854 21.668 17.0854C19.1126 17.0854 16.8005 18.6193 15.8271 20.8612L15.462 21.8051C15.4012 21.9821 15.1578 22.1001 14.9144 22.0411C14.671 21.9821 14.6102 21.7461 14.671 21.5102L14.7927 21.1562C15.7054 18.3243 18.5041 16.3184 21.668 16.3184C23.1021 16.3184 24.4434 16.7231 25.6111 17.4539C25.781 17.5602 25.9472 17.6735 26.1095 17.7933C26.2191 17.6263 26.3355 17.4648 26.4581 17.3093C27.7645 15.6526 29.7812 14.6665 31.9504 14.6665C35.7835 14.6665 38.8864 17.6753 38.8864 21.3332C38.8864 21.5933 38.8864 21.8535 38.8661 22.1038C38.8495 22.3076 38.8194 22.5048 38.7648 22.6901C38.9725 22.6976 39.1777 22.7152 39.3796 22.7424C42.3707 23.1458 44.6665 25.6607 44.6665 28.5898C44.6665 31.7166 42.1111 34.3125 38.8864 34.5485Z" fill="#0A3459"/>
</svg>
