<svg width="50" height="50" viewBox="0 0 50 50" fill="none" xmlns="http://www.w3.org/2000/svg">
<path d="M17.0371 39L18.5752 41.4521L20.1133 39H21.1021L19.0806 42.1685L21.1504 45.3984H20.1528L18.5752 42.8979L16.9976 45.3984H16L18.0698 42.1685L16.0483 39H17.0371Z" fill="black"/>
<path d="M22.8203 41.3906V45.3984H22.0073V40.6436H22.7983L22.8203 41.3906ZM24.3057 40.6172L24.3013 41.373C24.2339 41.3584 24.1694 41.3496 24.1079 41.3467C24.0493 41.3408 23.9819 41.3379 23.9058 41.3379C23.7183 41.3379 23.5527 41.3672 23.4092 41.4258C23.2656 41.4844 23.144 41.5664 23.0444 41.6719C22.9448 41.7773 22.8657 41.9033 22.8071 42.0498C22.7515 42.1934 22.7148 42.3516 22.6973 42.5244L22.4688 42.6562C22.4688 42.3691 22.4966 42.0996 22.5522 41.8477C22.6108 41.5957 22.7002 41.373 22.8203 41.1797C22.9404 40.9834 23.0928 40.8311 23.2773 40.7227C23.4648 40.6113 23.6875 40.5557 23.9453 40.5557C24.0039 40.5557 24.0713 40.563 24.1475 40.5776C24.2236 40.5894 24.2764 40.6025 24.3057 40.6172Z" fill="black"/>
<path d="M27.6851 44.5854V42.1377C27.6851 41.9502 27.647 41.7876 27.5708 41.6499C27.4976 41.5093 27.3862 41.4009 27.2368 41.3247C27.0874 41.2485 26.9028 41.2104 26.6831 41.2104C26.478 41.2104 26.2979 41.2456 26.1426 41.3159C25.9902 41.3862 25.8701 41.4785 25.7822 41.5928C25.6973 41.707 25.6548 41.8301 25.6548 41.9619H24.8418C24.8418 41.792 24.8857 41.6235 24.9736 41.4565C25.0615 41.2896 25.1875 41.1387 25.3516 41.0039C25.5186 40.8662 25.7178 40.7578 25.9492 40.6787C26.1836 40.5967 26.4443 40.5557 26.7314 40.5557C27.0771 40.5557 27.3818 40.6143 27.6455 40.7314C27.9121 40.8486 28.1201 41.0259 28.2695 41.2632C28.4219 41.4976 28.498 41.792 28.498 42.1465V44.3613C28.498 44.5195 28.5112 44.688 28.5376 44.8667C28.5669 45.0454 28.6094 45.1992 28.665 45.3281V45.3984H27.8169C27.7759 45.3047 27.7437 45.1802 27.7202 45.0249C27.6968 44.8667 27.6851 44.7202 27.6851 44.5854ZM27.8257 42.5156L27.8345 43.0869H27.0127C26.7812 43.0869 26.5747 43.106 26.3931 43.144C26.2114 43.1792 26.0591 43.2334 25.936 43.3066C25.813 43.3799 25.7192 43.4722 25.6548 43.5835C25.5903 43.6919 25.5581 43.8193 25.5581 43.9658C25.5581 44.1152 25.5918 44.2515 25.6592 44.3745C25.7266 44.4976 25.8276 44.5957 25.9624 44.6689C26.1001 44.7393 26.2686 44.7744 26.4678 44.7744C26.7168 44.7744 26.9365 44.7217 27.127 44.6162C27.3174 44.5107 27.4683 44.3818 27.5796 44.2295C27.6938 44.0771 27.7554 43.9292 27.7642 43.7856L28.1113 44.1768C28.0908 44.2998 28.0352 44.436 27.9443 44.5854C27.8535 44.7349 27.7319 44.8784 27.5796 45.0161C27.4302 45.1509 27.2515 45.2637 27.0435 45.3545C26.8384 45.4424 26.6069 45.4863 26.3491 45.4863C26.0269 45.4863 25.7441 45.4233 25.501 45.2974C25.2607 45.1714 25.0732 45.0029 24.9385 44.792C24.8066 44.5781 24.7407 44.3394 24.7407 44.0757C24.7407 43.8208 24.7905 43.5967 24.8901 43.4033C24.9897 43.207 25.1333 43.0444 25.3208 42.9155C25.5083 42.7837 25.7339 42.6841 25.9976 42.6167C26.2612 42.5493 26.5557 42.5156 26.8809 42.5156H27.8257Z" fill="black"/>
<path d="M31.0425 44.9062L32.3652 40.6436H33.2354L31.3281 46.1323C31.2842 46.2495 31.2256 46.3755 31.1523 46.5103C31.082 46.6479 30.9912 46.7783 30.8799 46.9014C30.7686 47.0244 30.6338 47.124 30.4756 47.2002C30.3203 47.2793 30.1343 47.3188 29.9175 47.3188C29.853 47.3188 29.771 47.3101 29.6714 47.2925C29.5718 47.2749 29.5015 47.2603 29.4604 47.2485L29.4561 46.5894C29.4795 46.5923 29.5161 46.5952 29.5659 46.5981C29.6187 46.604 29.6553 46.6069 29.6758 46.6069C29.8604 46.6069 30.0171 46.582 30.146 46.5322C30.2749 46.4854 30.3833 46.4048 30.4712 46.2905C30.562 46.1792 30.6396 46.0254 30.7041 45.8291L31.0425 44.9062ZM30.0713 40.6436L31.3062 44.335L31.5171 45.1919L30.9326 45.4907L29.1836 40.6436H30.0713Z" fill="black"/>
<path d="M23.1651 26.1984L21.4742 26.655C21.6212 27.0687 21.7388 27.8107 21.7388 28.8095V33.7177H23.6356V28.5241C23.9885 28.1103 24.3708 27.9106 24.7825 27.9106C24.9883 27.9106 25.1501 27.9534 25.3265 28.0532L25.8412 26.3553C25.5471 26.2269 25.4147 26.1984 25.1354 26.1984C24.9295 26.1984 24.6796 26.2412 24.5178 26.3125C24.1649 26.4837 23.7238 26.869 23.4445 27.24C23.4445 26.8262 23.3415 26.498 23.1651 26.1984ZM16.6366 23.7728H16.4308V33.7034H18.4011V29.3088H20.886V27.668H18.4011V25.3851H21.5036L21.6212 24.5147C19.7538 24.3863 18.0629 24.101 16.6366 23.7728ZM12.0344 35.0304L12.946 36.0577C13.8282 35.7152 14.931 34.9448 15.2251 33.7177C15.328 33.3182 15.3574 33.0614 15.3574 31.763V23.7871H13.3724V31.977C13.3724 33.0471 13.3283 33.4466 13.1813 33.8176C12.9901 34.2314 12.5343 34.7165 12.0344 35.0304ZM29.9288 29.9937C29.9288 31.7344 29.5759 32.4764 28.7672 32.4764C28.3996 32.4764 27.9879 32.2766 27.8114 31.8771C27.6644 31.5061 27.5762 30.8783 27.5762 30.0222C27.5762 29.2946 27.6497 28.7809 27.7673 28.3814C27.9144 27.9248 28.282 27.6395 28.7378 27.6395C29.076 27.6395 29.37 27.7821 29.5465 28.0247C29.8111 28.3671 29.9288 29.0092 29.9288 29.9937ZM31.0904 32.8473C31.7079 32.1339 31.9873 31.2636 31.9873 30.008C31.9873 28.8237 31.7373 28.0104 31.1639 27.3256C30.5463 26.5836 29.7523 26.2269 28.7231 26.2269C26.7822 26.2269 25.4883 27.7536 25.4883 30.0651C25.4883 32.3765 26.7675 33.8604 28.7231 33.8604C29.8259 33.8747 30.5463 33.4751 31.0904 32.8473ZM36.4719 28.7381C36.4719 29.4087 36.0602 29.7797 35.325 29.7797C34.6634 29.7797 34.2223 29.4801 34.2223 28.7381C34.2223 28.0532 34.634 27.6537 35.3397 27.6537C36.0455 27.6537 36.4719 28.0532 36.4719 28.7381ZM39.8097 27.1686L39.0304 25.9558C38.5892 26.3553 38.0599 26.5836 37.5453 26.5836C37.31 26.5836 37.1777 26.5551 36.6631 26.4267C36.1484 26.284 35.7808 26.2412 35.3691 26.2412C33.5312 26.2412 32.3402 27.2114 32.3402 28.7238C32.3402 29.8082 32.8401 30.4931 33.8841 30.7642C33.4577 30.8641 33.0018 31.0781 32.796 31.3207C32.649 31.4919 32.5754 31.7202 32.5754 31.9913C32.5754 32.2195 32.6343 32.4193 32.7225 32.5905C32.8254 32.7475 32.9577 32.8759 33.1342 32.9472C33.4724 33.0756 34.0164 33.1612 34.8545 33.1755C35.2956 33.1755 35.5603 33.1898 35.6485 33.1898C36.1631 33.2183 36.4278 33.3039 36.6337 33.4038C36.8248 33.5179 36.9718 33.7748 36.9718 34.0601C36.9718 34.3455 36.7954 34.6309 36.516 34.8021C36.2661 34.9733 35.8544 35.0446 35.325 35.0446C34.4575 35.0446 33.9723 34.7307 33.9723 34.1458C33.9723 33.8889 34.0017 33.8319 34.0605 33.6749H32.3255C32.252 33.8176 32.1637 34.0173 32.1637 34.4168C32.1637 34.9162 32.3549 35.3443 32.7519 35.7153C33.3988 36.3288 34.4575 36.5 35.4721 36.5C36.5895 36.5 37.6776 36.2432 38.3099 35.5583C38.7069 35.1303 38.8833 34.6594 38.8833 34.0459C38.8833 33.3895 38.6922 32.8902 38.2658 32.4764C37.7658 32.0055 37.1924 31.8343 36.0896 31.82L35.0751 31.8058C34.8839 31.8058 34.7663 31.7344 34.7663 31.6346C34.7663 31.4348 35.031 31.2636 35.5162 31.0353C35.6632 31.0496 35.7073 31.0496 35.7955 31.0496C37.3247 31.0496 38.4422 30.1364 38.4422 28.8665C38.4422 28.3814 38.2952 28.0104 38.0158 27.668C38.2511 27.6965 38.3246 27.7108 38.501 27.7108C39.001 27.7108 39.398 27.5539 39.8097 27.1686ZM16.1367 15.1405C13.7841 15.697 12.1814 16.7956 12.1814 18.0512C12.1814 18.836 12.799 19.5494 13.8135 20.1059C13.5048 19.635 13.343 19.1214 13.343 18.6077C13.3577 17.3093 14.4017 16.0965 16.1367 15.1405ZM40.9565 20.0631C40.9565 19.2355 40.4272 18.4793 39.545 17.8515C39.6185 18.1083 39.6773 18.3651 39.6773 18.622C39.6773 20.9762 36.2808 23.0023 31.458 23.8441C32.002 23.9012 32.5607 23.9297 33.1489 23.9297C37.4571 23.9155 40.9565 22.189 40.9565 20.0631ZM38.1775 18.7789C38.1775 17.9086 37.413 17.1095 36.1043 16.4532C36.4131 16.8099 36.5748 17.1952 36.5748 17.5947C36.5748 19.6921 31.9873 21.39 26.3117 21.39C20.6508 21.39 16.0485 19.6921 16.0485 17.5947C16.0485 17.3236 16.122 17.0667 16.2691 16.8242C15.3574 17.4092 14.8428 18.0798 14.8428 18.7932C14.8428 21.0618 20.0626 22.9024 26.5028 22.9024C32.943 22.9024 38.1775 21.0333 38.1775 18.7789ZM33.0901 18.6648C30.7081 20.1487 23.3856 20.7194 20.239 18.8075C17.7688 17.3093 18.6216 14.9265 11.5492 9.70437C10.6228 9.01949 11.7256 8.29182 12.4167 8.76267C13.1078 9.23352 12.4755 9.34766 13.8724 10.7031C16.6955 13.4426 16.6661 10.9742 17.1072 11.9159C18.0482 13.8707 20.1067 15.8397 20.1067 15.8397C22.1799 17.1524 23.8267 17.4377 26.8851 15.4259C28.826 14.156 28.032 17.452 32.7813 15.0692C34.5163 14.1988 34.4428 14.7838 36.2073 12.4011C36.9424 11.4165 38.3393 13.1573 36.7513 13.3998C36.119 13.4997 35.0457 14.1703 34.5898 15.2261C33.9282 16.8099 34.2076 17.9799 33.0901 18.6648ZM19.8862 14.6412C19.298 14.3843 18.6805 13.4141 18.4452 13.0289C19.1069 12.4011 18.8422 11.3595 18.4599 10.7887C18.0923 10.218 17.6365 10.375 17.1513 9.84705C16.6513 9.31913 17.3424 7.94938 17.9747 9.00523C20.342 12.9575 21.9006 11.3167 23.8267 11.0741C25.6794 10.8458 27.3262 11.8303 27.8261 9.04803C27.9144 8.59145 28.3702 8.49157 28.4143 9.23352C28.4584 9.98973 28.7525 11.8161 29.767 12.0443C30.7816 12.2869 31.605 11.8161 31.8403 11.5592C32.0755 11.3024 32.2078 11.3309 32.3108 11.9873C32.4137 12.6293 32.6784 13.5282 34.1046 12.5295C37.0307 10.5034 36.1925 9.71863 37.3394 9.19071C37.9864 8.89108 39.0157 9.86132 37.5306 10.589C35.4133 11.6306 35.1927 12.9147 33.8547 13.728C31.605 15.0977 32.2961 13.7851 28.679 13.2857C27.2821 13.1002 26.841 14.5983 25.7529 14.1703C23.268 13.1715 21.5183 13.3713 19.8862 14.6412ZM27.7232 7.32158C27.8114 7.92084 27.9144 7.90658 28.1349 7.94938C28.3555 8.00645 28.6349 7.66402 28.6349 7.35012C28.6496 7.02195 28.4878 6.82219 28.1643 6.83646C27.8262 6.85073 27.7085 7.00768 27.7232 7.32158ZM38.604 8.39169C38.8686 8.63425 39.5744 8.4773 39.7361 8.29182C40.1625 7.83524 40.1772 7.56414 39.9567 7.25024C39.7361 6.95061 39.2803 6.99341 38.8245 7.32158C38.3687 7.64975 38.4569 8.26328 38.604 8.39169ZM38.4128 11.4165C38.1922 11.7019 38.1775 11.9159 38.3393 12.0729C38.5157 12.2441 38.8686 12.3868 39.1186 12.2013C39.3685 12.0015 39.3685 11.7162 39.1627 11.4736C38.9421 11.2168 38.6481 11.2168 38.4128 11.4165ZM16.0926 7.8495C16.4308 7.94938 16.5925 8.26328 16.8719 7.90658C17.0189 7.73536 17.0336 7.4928 16.8425 7.23597C16.7249 7.07902 16.1661 6.96488 15.9309 7.19317C15.6956 7.42146 15.9162 7.79243 16.0926 7.8495ZM9.19658 7.64975C9.81413 8.02072 10.2111 8.57718 10.6817 8.07779C10.8434 7.90658 11.0345 7.60694 10.6964 7.00768C10.4464 6.56537 9.63769 6.39415 9.35832 6.56537C9.06424 6.72232 8.71136 7.36439 9.19658 7.64975ZM14.8869 10.4891C15.0781 10.6889 15.4162 10.6746 15.6221 10.5605C15.8132 10.4463 15.7838 10.1467 15.5927 9.88985C15.4751 9.7329 15.1222 9.64729 14.8869 9.88985C14.6516 10.1324 14.7546 10.3464 14.8869 10.4891Z" fill="#41BF47"/>
</svg>
