<svg width="50" height="50" viewBox="0 0 50 50" fill="none" xmlns="http://www.w3.org/2000/svg">
<rect width="50" height="50" fill="#41BF47"/>
<path d="M23.8335 24.2285L22.3011 24.6395C22.4344 25.0119 22.541 25.6796 22.541 26.5785V30.9959H24.2599V26.3217C24.5797 25.9493 24.9262 25.7695 25.2993 25.7695C25.4858 25.7695 25.6324 25.808 25.7923 25.8979L26.2587 24.3698C25.9922 24.2542 25.8723 24.2285 25.6191 24.2285C25.4325 24.2285 25.206 24.2671 25.0594 24.3313C24.7396 24.4854 24.3399 24.8321 24.0867 25.166C24.0867 24.7936 23.9934 24.4982 23.8335 24.2285ZM17.9171 22.0455H17.7306V30.9831H19.5161V27.028H21.7681V25.5512H19.5161V23.4966H22.3278L22.4344 22.7133C20.7421 22.5977 19.2097 22.3409 17.9171 22.0455ZM13.7463 32.1773L14.5725 33.1019C15.372 32.7937 16.3714 32.1003 16.6379 30.9959C16.7312 30.6364 16.7578 30.4052 16.7578 29.2367V22.0583H14.9589V29.4293C14.9589 30.3924 14.9189 30.7519 14.7857 31.0858C14.6125 31.4582 14.1994 31.8948 13.7463 32.1773ZM29.9631 27.6443C29.9631 29.211 29.6433 29.8787 28.9104 29.8787C28.5773 29.8787 28.2042 29.699 28.0443 29.3394C27.911 29.0055 27.8311 28.4405 27.8311 27.67C27.8311 27.0151 27.8977 26.5528 28.0043 26.1933C28.1376 25.7823 28.4707 25.5255 28.8838 25.5255C29.1903 25.5255 29.4568 25.6539 29.6167 25.8722C29.8565 26.1804 29.9631 26.7583 29.9631 27.6443ZM31.0158 30.2126C31.5755 29.5705 31.8286 28.7872 31.8286 27.6572C31.8286 26.5914 31.6021 25.8594 31.0824 25.243C30.5228 24.5753 29.8032 24.2542 28.8705 24.2542C27.1115 24.2542 25.9389 25.6282 25.9389 27.7085C25.9389 29.7888 27.0982 31.1243 28.8705 31.1243C29.8698 31.1372 30.5228 30.7776 31.0158 30.2126ZM35.8928 26.5143C35.8928 27.1178 35.5197 27.4517 34.8535 27.4517C34.2538 27.4517 33.8541 27.1821 33.8541 26.5143C33.8541 25.8979 34.2272 25.5384 34.8668 25.5384C35.5064 25.5384 35.8928 25.8979 35.8928 26.5143ZM38.9177 25.1018L38.2114 24.0102C37.8117 24.3698 37.332 24.5753 36.8656 24.5753C36.6524 24.5753 36.5325 24.5496 36.0661 24.434C35.5997 24.3056 35.2666 24.2671 34.8934 24.2671C33.2278 24.2671 32.1485 25.1403 32.1485 26.5015C32.1485 27.4774 32.6015 28.0938 33.5476 28.3378C33.1612 28.4277 32.7481 28.6203 32.5615 28.8386C32.4283 28.9927 32.3617 29.1981 32.3617 29.4421C32.3617 29.6476 32.415 29.8274 32.4949 29.9815C32.5882 30.1227 32.7081 30.2383 32.868 30.3025C33.1745 30.4181 33.6675 30.4951 34.4271 30.508C34.8268 30.508 35.0667 30.5208 35.1466 30.5208C35.613 30.5465 35.8529 30.6235 36.0394 30.7134C36.2126 30.8162 36.3459 31.0473 36.3459 31.3041C36.3459 31.561 36.186 31.8178 35.9328 31.9719C35.7063 32.126 35.3332 32.1902 34.8535 32.1902C34.0673 32.1902 33.6276 31.9077 33.6276 31.3812C33.6276 31.15 33.6542 31.0987 33.7075 30.9574H32.1351C32.0685 31.0858 31.9886 31.2656 31.9886 31.6252C31.9886 32.0746 32.1618 32.4599 32.5216 32.7937C33.1079 33.3459 34.0673 33.5 34.9867 33.5C35.9994 33.5 36.9855 33.2689 37.5585 32.6525C37.9183 32.2672 38.0782 31.8435 38.0782 31.2913C38.0782 30.7006 37.9049 30.2511 37.5185 29.8787C37.0655 29.455 36.5458 29.3009 35.5464 29.288L34.6269 29.2752C34.4537 29.2752 34.3471 29.211 34.3471 29.1211C34.3471 28.9413 34.587 28.7872 35.0267 28.5818C35.16 28.5946 35.1999 28.5946 35.2799 28.5946C36.6657 28.5946 37.6784 27.7728 37.6784 26.6299C37.6784 26.1933 37.5452 25.8594 37.292 25.5512C37.5052 25.5769 37.5718 25.5897 37.7317 25.5897C38.1848 25.5897 38.5446 25.4485 38.9177 25.1018ZM17.4641 14.2765C15.332 14.7773 13.8796 15.7661 13.8796 16.8961C13.8796 17.6024 14.4392 18.2445 15.3587 18.7453C15.0789 18.3215 14.9323 17.8592 14.9323 17.3969C14.9456 16.2284 15.8917 15.1369 17.4641 14.2765ZM39.957 18.7068C39.957 17.962 39.4773 17.2814 38.6778 16.7163C38.7444 16.9475 38.7977 17.1786 38.7977 17.4098C38.7977 19.5286 35.7196 21.3521 31.3489 22.1097C31.842 22.1611 32.3483 22.1868 32.8813 22.1868C36.7856 22.1739 39.957 20.6201 39.957 18.7068ZM37.4386 17.551C37.4386 16.7677 36.7457 16.0486 35.5597 15.4579C35.8395 15.7789 35.9861 16.1256 35.9861 16.4852C35.9861 18.3729 31.8286 19.901 26.6851 19.901C21.5549 19.901 17.3841 18.3729 17.3841 16.4852C17.3841 16.2412 17.4507 16.0101 17.584 15.7918C16.7578 16.3183 16.2914 16.9218 16.2914 17.5639C16.2914 19.6056 21.0219 21.2622 26.8583 21.2622C32.6948 21.2622 37.4386 19.58 37.4386 17.551ZM32.828 17.4483C30.6694 18.7838 24.0334 19.2975 21.1818 17.5767C18.9432 16.2284 19.716 14.0839 13.3066 9.38393C12.4671 8.76754 13.4665 8.11264 14.0928 8.5364C14.7191 8.96016 14.1461 9.0629 15.412 10.2828C17.9704 12.7484 17.9438 10.5268 18.3435 11.3743C19.1963 13.1336 21.0619 14.9057 21.0619 14.9057C22.9407 16.0871 24.4332 16.3439 27.2048 14.5333C28.9637 13.3904 28.2442 16.3568 32.5482 14.2123C34.1206 13.429 34.054 13.9555 35.653 11.8109C36.3192 10.9249 37.5851 12.4915 36.146 12.7098C35.573 12.7997 34.6003 13.4033 34.1872 14.3535C33.5876 15.7789 33.8408 16.8319 32.828 17.4483ZM20.862 13.827C20.329 13.5959 19.7693 12.7227 19.5561 12.376C20.1558 11.8109 19.9159 10.8735 19.5695 10.3599C19.2363 9.84622 18.8232 9.98747 18.3835 9.51234C17.9304 9.03721 18.5567 7.80444 19.1297 8.7547C21.2751 12.3118 22.6876 10.835 24.4332 10.6167C26.1121 10.4112 27.6046 11.2973 28.0576 8.79323C28.1376 8.3823 28.5506 8.29241 28.5906 8.96016C28.6306 9.64076 28.8971 11.2844 29.8165 11.4899C30.736 11.7082 31.4822 11.2845 31.6954 11.0533C31.9086 10.8222 32.0285 10.8478 32.1218 11.4385C32.2151 12.0164 32.4549 12.8254 33.7475 11.9265C36.3992 10.103 35.6397 9.39677 36.679 8.92164C37.2653 8.65197 38.1981 9.52518 36.8523 10.1801C34.9334 11.1175 34.7335 12.2732 33.521 13.0052C31.4822 14.238 32.1085 13.0566 28.8305 12.6071C27.5646 12.4402 27.1648 13.7885 26.1788 13.4033C23.9268 12.5044 22.3411 12.6842 20.862 13.827ZM27.9643 7.23942C28.0443 7.77876 28.1376 7.76592 28.3374 7.80444C28.5373 7.85581 28.7905 7.54762 28.7905 7.26511C28.8038 6.96975 28.6572 6.78998 28.3641 6.80282C28.0576 6.81566 27.951 6.95691 27.9643 7.23942ZM37.825 8.20252C38.0649 8.42083 38.7045 8.27957 38.851 8.11264C39.2375 7.70171 39.2508 7.45773 39.0509 7.17522C38.851 6.90555 38.438 6.94407 38.0249 7.23942C37.6118 7.53477 37.6917 8.08695 37.825 8.20252ZM37.6518 10.9249C37.4519 11.1817 37.4386 11.3743 37.5851 11.5156C37.745 11.6697 38.0649 11.7981 38.2914 11.6312C38.5179 11.4514 38.5179 11.1946 38.3314 10.9763C38.1315 10.7451 37.865 10.7451 37.6518 10.9249ZM17.4241 7.71455C17.7306 7.80444 17.8771 8.08695 18.1303 7.76592C18.2636 7.61182 18.2769 7.39352 18.1037 7.16237C17.9971 7.02112 17.4907 6.91839 17.2775 7.12385C17.0643 7.32931 17.2642 7.66319 17.4241 7.71455ZM11.1746 7.53477C11.7342 7.86865 12.094 8.36946 12.5204 7.92001C12.667 7.76592 12.8402 7.49625 12.5337 6.95691C12.3072 6.55883 11.5743 6.40473 11.3211 6.55883C11.0546 6.70009 10.7348 7.27795 11.1746 7.53477ZM16.3314 10.0902C16.5047 10.27 16.8111 10.2571 16.9977 10.1544C17.1709 10.0517 17.1443 9.78201 16.971 9.55087C16.8644 9.40961 16.5446 9.33256 16.3314 9.55087C16.1182 9.76917 16.2115 9.96179 16.3314 10.0902Z" fill="white"/>
<path fill-rule="evenodd" clip-rule="evenodd" d="M22.2355 36.5L24.7578 42.4187H23.8612L23.2332 40.8699H20.4758L19.8491 42.4187H18.957L21.4702 36.5H22.2355ZM20.7357 40.2276H22.9728L21.8531 37.466L20.7357 40.2276Z" fill="white"/>
<path d="M30.9344 38.0203V38.5976H30.0197V41.3293C30.0197 41.4783 30.0453 41.5908 30.0967 41.6667C30.148 41.7425 30.2144 41.7927 30.2959 41.8171C30.3774 41.8415 30.465 41.8537 30.5585 41.8537C30.628 41.8537 30.7004 41.8482 30.7759 41.8374C30.8544 41.8238 30.9133 41.813 30.9525 41.8049L30.957 42.4187C30.8906 42.4377 30.8031 42.4553 30.6944 42.4715C30.5887 42.4905 30.4604 42.5 30.3095 42.5C30.1042 42.5 29.9155 42.4634 29.7434 42.3902C29.5714 42.3171 29.434 42.1951 29.3314 42.0244C29.2317 41.8509 29.1819 41.6179 29.1819 41.3252V38.5976H28.2853V38.0203H29.1819V36.9512H30.0197V38.0203H30.9344Z" fill="white"/>
<path d="M26.3517 38.5163L26.3456 38.5251L26.3291 38.0203H25.514V42.4187H26.3517V39.2917C26.4106 39.1687 26.4876 39.062 26.5827 38.9715C26.6853 38.874 26.8106 38.7981 26.9585 38.7439C27.1065 38.6897 27.277 38.6626 27.4702 38.6626C27.5487 38.6626 27.6182 38.6653 27.6785 38.6707C27.7419 38.6734 27.8084 38.6816 27.8778 38.6951L27.8823 37.9959C27.8521 37.9824 27.7978 37.9702 27.7193 37.9593C27.6408 37.9458 27.5714 37.939 27.511 37.939C27.2453 37.939 27.0159 37.9905 26.8227 38.0935C26.6325 38.1938 26.4755 38.3347 26.3517 38.5163Z" fill="white"/>
</svg>
