<svg width="50" height="50" viewBox="0 0 50 50" fill="none" xmlns="http://www.w3.org/2000/svg">
<rect width="50" height="50" fill="#41BF47"/>
<path d="M17.9198 36.5L19.3476 38.8582L20.7755 36.5H21.6934L19.8168 39.547L21.7383 42.6532H20.8122L19.3476 40.2485L17.8831 42.6532H16.957L18.8785 39.547L17.0019 36.5H17.9198Z" fill="white"/>
<path d="M23.2885 38.799V42.6532H22.5338V38.0806H23.2681L23.2885 38.799ZM24.6674 38.0552L24.6633 38.7821C24.6008 38.768 24.5409 38.7596 24.4838 38.7567C24.4294 38.7511 24.3669 38.7483 24.2961 38.7483C24.1221 38.7483 23.9684 38.7765 23.8352 38.8328C23.7019 38.8892 23.589 38.968 23.4966 39.0695C23.4041 39.1709 23.3307 39.292 23.2763 39.4329C23.2246 39.571 23.1906 39.7231 23.1743 39.8893L22.9621 40.0161C22.9621 39.74 22.988 39.4808 23.0396 39.2385C23.094 38.9962 23.177 38.7821 23.2885 38.5961C23.4 38.4074 23.5414 38.2609 23.7128 38.1566C23.8868 38.0496 24.0935 37.996 24.3329 37.996C24.3873 37.996 24.4498 38.0031 24.5205 38.0172C24.5912 38.0284 24.6402 38.0411 24.6674 38.0552Z" fill="white"/>
<path d="M27.8046 41.8714V39.5174C27.8046 39.3371 27.7692 39.1808 27.6985 39.0483C27.6305 38.9131 27.5271 38.8089 27.3884 38.7356C27.2497 38.6624 27.0784 38.6257 26.8744 38.6257C26.684 38.6257 26.5168 38.6595 26.3726 38.7272C26.2312 38.7948 26.1197 38.8835 26.0381 38.9934C25.9592 39.1033 25.9198 39.2216 25.9198 39.3484H25.1651C25.1651 39.185 25.2059 39.023 25.2875 38.8624C25.3691 38.7018 25.486 38.5567 25.6383 38.4271C25.7933 38.2947 25.9783 38.1904 26.1931 38.1144C26.4107 38.0355 26.6528 37.996 26.9193 37.996C27.2402 37.996 27.5231 38.0524 27.7678 38.1651C28.0153 38.2778 28.2084 38.4482 28.3471 38.6764C28.4886 38.9018 28.5593 39.185 28.5593 39.5259V41.6558C28.5593 41.808 28.5715 41.97 28.596 42.1418C28.6232 42.3137 28.6626 42.4616 28.7143 42.5856V42.6532H27.9269C27.8889 42.563 27.859 42.4433 27.8372 42.294C27.8154 42.1418 27.8046 42.001 27.8046 41.8714ZM27.9351 39.8809L27.9433 40.4303H27.1804C26.9655 40.4303 26.7738 40.4486 26.6052 40.4852C26.4365 40.519 26.2951 40.5711 26.1809 40.6416C26.0667 40.712 25.9796 40.8008 25.9198 40.9078C25.86 41.0121 25.8301 41.1346 25.8301 41.2755C25.8301 41.4192 25.8613 41.5502 25.9239 41.6685C25.9864 41.7868 26.0803 41.8812 26.2054 41.9517C26.3332 42.0193 26.4896 42.0531 26.6745 42.0531C26.9057 42.0531 27.1097 42.0024 27.2865 41.901C27.4632 41.7995 27.6033 41.6756 27.7066 41.5291C27.8127 41.3825 27.8698 41.2403 27.878 41.1022L28.2003 41.4783C28.1812 41.5967 28.1296 41.7277 28.0453 41.8714C27.9609 42.0151 27.8481 42.1531 27.7066 42.2855C27.5679 42.4151 27.402 42.5236 27.2089 42.6109C27.0186 42.6955 26.8037 42.7377 26.5644 42.7377C26.2652 42.7377 26.0028 42.6771 25.777 42.556C25.554 42.4348 25.3799 42.2728 25.2548 42.07C25.1325 41.8643 25.0713 41.6347 25.0713 41.3811C25.0713 41.136 25.1175 40.9205 25.21 40.7345C25.3024 40.5458 25.4357 40.3894 25.6098 40.2655C25.7838 40.1387 25.9932 40.0429 26.238 39.9781C26.4828 39.9133 26.7561 39.8809 27.058 39.8809H27.9351Z" fill="white"/>
<path d="M30.9213 42.1799L32.1493 38.0806H32.957L31.1865 43.359C31.1457 43.4716 31.0913 43.5928 31.0233 43.7224C30.9581 43.8548 30.8737 43.9802 30.7704 44.0985C30.667 44.2169 30.5419 44.3126 30.3951 44.3859C30.2509 44.462 30.0782 44.5 29.877 44.5C29.8171 44.5 29.741 44.4915 29.6485 44.4746C29.556 44.4577 29.4908 44.4437 29.4527 44.4324L29.4486 43.7985C29.4704 43.8013 29.5044 43.8041 29.5506 43.8069C29.5996 43.8126 29.6336 43.8154 29.6526 43.8154C29.8239 43.8154 29.9694 43.7914 30.0891 43.7435C30.2088 43.6985 30.3094 43.621 30.391 43.5111C30.4753 43.404 30.5474 43.2561 30.6072 43.0674L30.9213 42.1799ZM30.0198 38.0806L31.1661 41.6305L31.3619 42.4546L30.8193 42.7419L29.1957 38.0806H30.0198Z" fill="white"/>
<path d="M23.2775 24.8852L21.6923 25.3113C21.8301 25.6975 21.9404 26.39 21.9404 27.3222V31.9032H23.7186V27.0558C24.0495 26.6696 24.4079 26.4832 24.7939 26.4832C24.9868 26.4832 25.1385 26.5231 25.3039 26.6164L25.7864 25.0316C25.5107 24.9118 25.3866 24.8852 25.1247 24.8852C24.9317 24.8852 24.6974 24.9251 24.5457 24.9917C24.2149 25.1515 23.8014 25.511 23.5394 25.8573C23.5394 25.4711 23.443 25.1648 23.2775 24.8852ZM17.1571 22.6213H16.9641V31.8899H18.8113V27.7882H21.1409V26.2568H18.8113V24.1261H21.7199L21.8301 23.3138C20.0795 23.1939 18.4942 22.9276 17.1571 22.6213ZM12.8425 33.1284L13.6972 34.0872C14.5242 33.7676 15.5581 33.0485 15.8338 31.9032C15.9303 31.5303 15.9579 31.2906 15.9579 30.0788V22.6346H14.0969V30.2785C14.0969 31.2773 14.0556 31.6502 13.9177 31.9964C13.7385 32.3826 13.3112 32.8354 12.8425 33.1284ZM29.6185 28.4275C29.6185 30.0521 29.2877 30.7446 28.5295 30.7446C28.1849 30.7446 27.7989 30.5582 27.6335 30.1853C27.4957 29.8391 27.413 29.2531 27.413 28.4541C27.413 27.7749 27.4819 27.2955 27.5922 26.9226C27.73 26.4965 28.0746 26.2302 28.5019 26.2302C28.819 26.2302 29.0947 26.3633 29.2601 26.5897C29.5082 26.9093 29.6185 27.5086 29.6185 28.4275ZM30.7075 31.0909C31.2865 30.425 31.5484 29.6127 31.5484 28.4408C31.5484 27.3355 31.314 26.5764 30.7764 25.9372C30.1975 25.2447 29.4531 24.9118 28.4882 24.9118C26.6686 24.9118 25.4555 26.3367 25.4555 28.494C25.4555 30.6514 26.6548 32.0364 28.4882 32.0364C29.522 32.0497 30.1975 31.6768 30.7075 31.0909ZM35.7527 27.2556C35.7527 27.8815 35.3667 28.2277 34.6775 28.2277C34.0572 28.2277 33.6436 27.9481 33.6436 27.2556C33.6436 26.6164 34.0296 26.2435 34.6913 26.2435C35.3529 26.2435 35.7527 26.6164 35.7527 27.2556ZM38.8818 25.7907L38.1512 24.6588C37.7377 25.0316 37.2414 25.2447 36.759 25.2447C36.5384 25.2447 36.4144 25.2181 35.9319 25.0982C35.4494 24.9651 35.1048 24.9251 34.7188 24.9251C32.9958 24.9251 31.8792 25.8307 31.8792 27.2423C31.8792 28.2543 32.3479 28.8936 33.3266 29.1466C32.9268 29.2398 32.4995 29.4396 32.3065 29.6659C32.1687 29.8257 32.0997 30.0388 32.0997 30.2918C32.0997 30.5049 32.1549 30.6913 32.2376 30.8512C32.3341 30.9976 32.4582 31.1175 32.6236 31.1841C32.9406 31.3039 33.4507 31.3838 34.2364 31.3971C34.6499 31.3971 34.898 31.4105 34.9808 31.4105C35.4632 31.4371 35.7113 31.517 35.9043 31.6102C36.0835 31.7168 36.2214 31.9565 36.2214 32.2228C36.2214 32.4891 36.056 32.7555 35.7941 32.9153C35.5597 33.0751 35.1737 33.1417 34.6775 33.1417C33.8642 33.1417 33.4093 32.8487 33.4093 32.3027C33.4093 32.063 33.4369 32.0097 33.492 31.8632H31.8654C31.7965 31.9964 31.7138 32.1828 31.7138 32.5557C31.7138 33.0218 31.893 33.4213 32.2652 33.7676C32.8717 34.3402 33.8642 34.5 34.8153 34.5C35.863 34.5 36.883 34.2603 37.4758 33.6211C37.848 33.2216 38.0134 32.7821 38.0134 32.2095C38.0134 31.5969 37.8342 31.1308 37.4344 30.7446C36.9658 30.3052 36.4281 30.1454 35.3943 30.132L34.4431 30.1187C34.2639 30.1187 34.1537 30.0521 34.1537 29.9589C34.1537 29.7725 34.4018 29.6127 34.8567 29.3996C34.9945 29.4129 35.0359 29.4129 35.1186 29.4129C36.5522 29.4129 37.5998 28.5606 37.5998 27.3754C37.5998 26.9226 37.462 26.5764 37.2001 26.2568C37.4206 26.2834 37.4896 26.2968 37.655 26.2968C38.1237 26.2968 38.4959 26.1503 38.8818 25.7907ZM16.6884 14.5645C14.4829 15.0839 12.9804 16.1093 12.9804 17.2812C12.9804 18.0136 13.5593 18.6794 14.5105 19.1988C14.221 18.7593 14.0694 18.2799 14.0694 17.8005C14.0831 16.5887 15.0619 15.4567 16.6884 14.5645ZM39.957 19.1589C39.957 18.3865 39.4608 17.6807 38.6337 17.0947C38.7026 17.3344 38.7578 17.5741 38.7578 17.8138C38.7578 20.0111 35.5735 21.9022 31.0521 22.6879C31.5621 22.7411 32.086 22.7678 32.6374 22.7678C36.6763 22.7544 39.957 21.1431 39.957 19.1589ZM37.3517 17.9603C37.3517 17.148 36.6349 16.4022 35.4081 15.7897C35.6976 16.1226 35.8492 16.4821 35.8492 16.855C35.8492 18.8126 31.5484 20.3973 26.2275 20.3973C20.9204 20.3973 16.6057 18.8126 16.6057 16.855C16.6057 16.602 16.6747 16.3623 16.8125 16.1359C15.9579 16.6819 15.4754 17.3078 15.4754 17.9736C15.4754 20.091 20.369 21.8089 26.4067 21.8089C32.4444 21.8089 37.3517 20.0644 37.3517 17.9603ZM32.5822 17.8538C30.3491 19.2388 23.4843 19.7714 20.5344 17.987C18.2185 16.5887 19.0181 14.3648 12.3876 9.49074C11.5192 8.85153 12.553 8.17236 13.2009 8.61182C13.8488 9.05128 13.2561 9.15782 14.5656 10.4229C17.2123 12.9798 17.1847 10.676 17.5982 11.5549C18.4805 13.3793 20.4103 15.217 20.4103 15.217C22.354 16.4422 23.8978 16.7085 26.7651 14.8308C28.5847 13.6456 27.8403 16.7219 32.2927 14.4979C33.9193 13.6856 33.8504 14.2316 35.5046 12.0076C36.1938 11.0888 37.5034 12.7134 36.0146 12.9398C35.4219 13.0331 34.4156 13.659 33.9883 14.6444C33.3679 16.1226 33.6299 17.2146 32.5822 17.8538ZM20.2035 14.0984C19.6522 13.8587 19.0732 12.9532 18.8526 12.5936C19.473 12.0076 19.2248 11.0355 18.8664 10.5028C18.5218 9.97015 18.0945 10.1166 17.6396 9.62391C17.1709 9.13118 17.8188 7.85276 18.4115 8.83821C20.6309 12.527 22.0921 10.9956 23.8978 10.7692C25.6347 10.5561 27.1786 11.475 27.6473 8.87816C27.73 8.45202 28.1573 8.3588 28.1987 9.05128C28.24 9.75708 28.5157 11.4617 29.4669 11.6747C30.418 11.9011 31.19 11.4617 31.4105 11.2219C31.6311 10.9822 31.7551 11.0089 31.8516 11.6215C31.9481 12.2207 32.1962 13.0597 33.5334 12.1275C36.2765 10.2365 35.4908 9.50406 36.566 9.01133C37.1725 8.73167 38.1375 9.63723 36.7452 10.3164C34.7602 11.2885 34.5534 12.4871 33.299 13.2461C31.19 14.5246 31.8378 13.2994 28.4468 12.8333C27.1373 12.6602 26.7237 14.0585 25.7036 13.659C23.374 12.7268 21.7336 12.9132 20.2035 14.0984ZM27.5508 7.26681C27.6335 7.82612 27.73 7.8128 27.9368 7.85276C28.1435 7.90602 28.4054 7.58642 28.4054 7.29344C28.4192 6.98715 28.2676 6.80072 27.9643 6.81403C27.6473 6.82735 27.537 6.97384 27.5508 7.26681ZM37.7515 8.26558C37.9996 8.49197 38.6613 8.34548 38.8129 8.17236C39.2127 7.74622 39.2264 7.4932 39.0197 7.20022C38.8129 6.92057 38.3856 6.96052 37.9583 7.26681C37.5309 7.5731 37.6136 8.14573 37.7515 8.26558ZM37.5723 11.0888C37.3655 11.3551 37.3517 11.5549 37.5034 11.7014C37.6688 11.8612 37.9996 11.9943 38.2339 11.8212C38.4683 11.6348 38.4683 11.3684 38.2753 11.142C38.0685 10.9023 37.7928 10.9023 37.5723 11.0888ZM16.6471 7.75954C16.9641 7.85276 17.1158 8.14573 17.3777 7.8128C17.5155 7.653 17.5293 7.42661 17.3501 7.18691C17.2398 7.04042 16.716 6.93388 16.4955 7.14696C16.2749 7.36003 16.4817 7.70627 16.6471 7.75954ZM10.1821 7.5731C10.761 7.91934 11.1332 8.4387 11.5743 7.97261C11.726 7.8128 11.9052 7.53315 11.5881 6.97384C11.3538 6.56101 10.5956 6.40121 10.3337 6.56101C10.058 6.7075 9.72717 7.30676 10.1821 7.5731ZM15.5167 10.2232C15.6959 10.4096 16.013 10.3963 16.206 10.2898C16.3852 10.1832 16.3576 9.90357 16.1784 9.66386C16.0681 9.51738 15.7373 9.43747 15.5167 9.66386C15.2962 9.89025 15.3927 10.09 15.5167 10.2232Z" fill="white"/>
</svg>
