<svg width="50" height="50" viewBox="0 0 50 50" fill="none" xmlns="http://www.w3.org/2000/svg">
<path d="M22.5342 39.5V44.0331L23.0176 43.4551L24.6582 41.7168H25.7617L23.703 43.9194L26.001 47H24.9365L23.1035 44.5496L22.5342 45.1404V47H21.626V39.5H22.5342Z" fill="black"/>
<path d="M34.1113 41.7168V42.4102H33.125V45.6914C33.125 45.8704 33.1527 46.0055 33.208 46.0967C33.2633 46.1878 33.335 46.248 33.4229 46.2773C33.5107 46.3066 33.6051 46.3213 33.7061 46.3213C33.7809 46.3213 33.859 46.3148 33.9404 46.3018C34.0251 46.2855 34.0885 46.2725 34.1309 46.2627L34.1357 47C34.0641 47.0228 33.9697 47.0439 33.8525 47.0635C33.7386 47.0863 33.6003 47.0977 33.4375 47.0977C33.2161 47.0977 33.0127 47.0537 32.8271 46.9658C32.6416 46.8779 32.4935 46.7314 32.3828 46.5264C32.2754 46.318 32.2217 46.0381 32.2217 45.6865V42.4102H31.2549V41.7168H32.2217V40.4326H33.125V41.7168H34.1113Z" fill="black"/>
<path d="M38.2471 45.5986C38.2471 45.4684 38.2178 45.348 38.1592 45.2373C38.1038 45.1234 37.9883 45.0208 37.8125 44.9297C37.64 44.8353 37.3796 44.7539 37.0312 44.6855C36.7383 44.6237 36.473 44.5505 36.2354 44.4658C36.001 44.3812 35.8008 44.2786 35.6348 44.1582C35.472 44.0378 35.3467 43.8962 35.2588 43.7334C35.1709 43.5706 35.127 43.3802 35.127 43.1621C35.127 42.9538 35.1725 42.7568 35.2637 42.5713C35.3581 42.3857 35.4899 42.2214 35.6592 42.0781C35.8317 41.9349 36.0384 41.8226 36.2793 41.7412C36.5202 41.6598 36.7887 41.6191 37.085 41.6191C37.5081 41.6191 37.8695 41.694 38.1689 41.8438C38.4684 41.9935 38.6979 42.1937 38.8574 42.4443C39.0169 42.6917 39.0967 42.9668 39.0967 43.2695H38.1934C38.1934 43.123 38.1494 42.9814 38.0615 42.8447C37.9769 42.7048 37.8516 42.5892 37.6855 42.498C37.5228 42.4069 37.3226 42.3613 37.085 42.3613C36.8343 42.3613 36.6309 42.4004 36.4746 42.4785C36.3216 42.5534 36.2093 42.6494 36.1377 42.7666C36.0693 42.8838 36.0352 43.0075 36.0352 43.1377C36.0352 43.2354 36.0514 43.3232 36.084 43.4014C36.1198 43.4762 36.1816 43.5462 36.2695 43.6113C36.3574 43.6732 36.4811 43.7318 36.6406 43.7871C36.8001 43.8424 37.0036 43.8978 37.251 43.9531C37.6839 44.0508 38.0404 44.168 38.3203 44.3047C38.6003 44.4414 38.8086 44.609 38.9453 44.8076C39.082 45.0062 39.1504 45.2471 39.1504 45.5303C39.1504 45.7614 39.1016 45.973 39.0039 46.165C38.9095 46.3571 38.7712 46.5231 38.5889 46.6631C38.4098 46.7998 38.195 46.9072 37.9443 46.9854C37.6969 47.0602 37.4186 47.0977 37.1094 47.0977C36.6439 47.0977 36.25 47.0146 35.9277 46.8486C35.6055 46.6826 35.3613 46.4678 35.1953 46.2041C35.0293 45.9404 34.9463 45.6621 34.9463 45.3691H35.8545C35.8675 45.6165 35.9391 45.8135 36.0693 45.96C36.1995 46.1032 36.359 46.2057 36.5479 46.2676C36.7367 46.3262 36.9238 46.3555 37.1094 46.3555C37.3568 46.3555 37.5635 46.3229 37.7295 46.2578C37.8988 46.1927 38.0273 46.1032 38.1152 45.9893C38.2031 45.8753 38.2471 45.7451 38.2471 45.5986Z" fill="black"/>
<path fill-rule="evenodd" clip-rule="evenodd" d="M27.7881 46.9121C28.0876 47.0358 28.4212 47.0977 28.7891 47.0977C29.1374 47.0977 29.4385 47.0488 29.6924 46.9512C29.9495 46.8535 30.166 46.7266 30.3418 46.5703C30.5176 46.4141 30.6624 46.2497 30.7764 46.0771L30.2295 45.6426C30.0635 45.8607 29.8698 46.0348 29.6484 46.165C29.4271 46.2952 29.1569 46.3604 28.8379 46.3604C28.5905 46.3604 28.3691 46.3132 28.1738 46.2188C27.9818 46.1243 27.8174 45.9941 27.6807 45.8281C27.5472 45.6621 27.4447 45.4701 27.373 45.252C27.3109 45.0508 27.277 44.8376 27.2714 44.6123H30.8447V44.207C30.8447 43.8359 30.8024 43.4941 30.7178 43.1816C30.6331 42.8659 30.5029 42.5924 30.3271 42.3613C30.1514 42.127 29.9251 41.9447 29.6484 41.8145C29.375 41.6842 29.0495 41.6191 28.6719 41.6191C28.3757 41.6191 28.0892 41.6794 27.8125 41.7998C27.5358 41.9202 27.2884 42.0977 27.0703 42.332C26.8522 42.5664 26.6797 42.8529 26.5527 43.1914C26.4258 43.5267 26.3623 43.9092 26.3623 44.3389V44.5439C26.3623 44.915 26.4193 45.2568 26.5332 45.5693C26.6471 45.8818 26.8099 46.152 27.0215 46.3799C27.2363 46.6077 27.4919 46.7852 27.7881 46.9121ZM27.2978 43.875H29.9414V43.8066C29.9284 43.5723 29.8796 43.3444 29.7949 43.123C29.7135 42.9017 29.5833 42.7194 29.4043 42.5762C29.2253 42.4329 28.9811 42.3613 28.6719 42.3613C28.4668 42.3613 28.278 42.4053 28.1055 42.4932C27.9329 42.5778 27.7848 42.7048 27.6611 42.874C27.5374 43.0433 27.4414 43.25 27.373 43.4941C27.34 43.6123 27.3149 43.7393 27.2978 43.875Z" fill="black"/>
<path d="M19.1016 46.2236C18.9193 46.3115 18.7207 46.3555 18.5059 46.3555C18.2259 46.3555 17.9915 46.3018 17.8027 46.1943C17.6172 46.0837 17.4691 45.9372 17.3584 45.7549C17.251 45.5726 17.1745 45.3691 17.1289 45.1445C17.0833 44.9199 17.0605 44.6921 17.0605 44.4609V44.2559C17.0605 44.0247 17.0833 43.7985 17.1289 43.5771C17.1777 43.3525 17.2559 43.1491 17.3633 42.9668C17.474 42.7812 17.6221 42.6348 17.8076 42.5273C17.9964 42.4167 18.2292 42.3613 18.5059 42.3613C18.7467 42.3613 18.9567 42.415 19.1357 42.5225C19.318 42.6266 19.4613 42.7666 19.5654 42.9424C19.6729 43.1182 19.7347 43.3151 19.751 43.5332H20.6104C20.5941 43.1686 20.4964 42.8431 20.3174 42.5566C20.1416 42.2669 19.8991 42.0391 19.5898 41.873C19.2806 41.7038 18.9193 41.6191 18.5059 41.6191C18.1087 41.6191 17.762 41.6891 17.4658 41.8291C17.1729 41.9691 16.9287 42.1611 16.7334 42.4053C16.5413 42.6494 16.3965 42.931 16.2988 43.25C16.2044 43.5658 16.1572 43.901 16.1572 44.2559V44.4609C16.1572 44.8158 16.2044 45.1527 16.2988 45.4717C16.3965 45.7874 16.5413 46.0674 16.7334 46.3115C16.9287 46.5557 17.1729 46.7477 17.4658 46.8877C17.762 47.0277 18.1087 47.0977 18.5059 47.0977C18.8802 47.0977 19.2236 47.0163 19.5361 46.8535C19.8486 46.6875 20.1009 46.471 20.293 46.2041C20.4883 45.9339 20.5941 45.6426 20.6104 45.3301H19.751C19.7347 45.5286 19.668 45.7061 19.5508 45.8623C19.4336 46.0153 19.2839 46.1357 19.1016 46.2236Z" fill="black"/>
<path d="M14.9414 41.7168V47H14.0332V41.7168H14.9414Z" fill="black"/>
<path d="M13.9648 40.3154C13.9648 40.1689 14.0088 40.0452 14.0967 39.9443C14.1878 39.8434 14.3213 39.793 14.4971 39.793C14.6696 39.793 14.8014 39.8434 14.8926 39.9443C14.987 40.0452 15.0342 40.1689 15.0342 40.3154C15.0342 40.4554 14.987 40.5758 14.8926 40.6768C14.8014 40.7744 14.6696 40.8232 14.4971 40.8232C14.3213 40.8232 14.1878 40.7744 14.0967 40.6768C14.0088 40.5758 13.9648 40.4554 13.9648 40.3154Z" fill="black"/>
<path d="M12.9004 42.4102V41.7168H11.9141V40.4326H11.0107V41.7168H10.0439V42.4102H11.0107V45.6865C11.0107 46.0381 11.0645 46.318 11.1719 46.5264C11.2826 46.7314 11.4307 46.8779 11.6162 46.9658C11.8018 47.0537 12.0052 47.0977 12.2266 47.0977C12.3893 47.0977 12.5277 47.0863 12.6416 47.0635C12.7588 47.0439 12.8532 47.0228 12.9248 47L12.9199 46.2627C12.8776 46.2725 12.8141 46.2855 12.7295 46.3018C12.6481 46.3148 12.57 46.3213 12.4951 46.3213C12.3942 46.3213 12.2998 46.3066 12.2119 46.2773C12.124 46.248 12.0524 46.1878 11.9971 46.0967C11.9417 46.0055 11.9141 45.8704 11.9141 45.6914V42.4102H12.9004Z" fill="black"/>
<path d="M27.0615 18.5515L35.6659 18.5823C36.3986 18.5854 36.9998 19.1425 36.9998 19.8182C36.9998 20.0861 36.9055 20.3472 36.7305 20.5612L24.0306 36.2C21.752 34.6307 20.4072 32.1567 20.4072 29.5341C20.4072 27.7392 21.0368 25.9913 22.202 24.5537L27.0615 18.5515Z" fill="url(#paint0_linear_9176_13284)"/>
<path d="M22.0747 23.9818L13.4553 23.9314C12.7171 23.9283 12.1113 23.3672 12.1113 22.6866C12.1113 22.4167 12.2064 22.1538 12.3827 21.9382L25.053 6.33337C27.349 7.91402 28.7039 10.406 28.7039 13.0476C28.7039 14.8555 28.0696 16.6161 26.8955 18.0641L22.0747 23.9818Z" fill="#2684FF"/>
<defs>
<linearGradient id="paint0_linear_9176_13284" x1="26.7192" y1="19.7228" x2="29.8436" y2="29.9585" gradientUnits="userSpaceOnUse">
<stop stop-color="#0052CC"/>
<stop offset="1" stop-color="#2684FF"/>
</linearGradient>
</defs>
</svg>
