<svg width="50" height="50" viewBox="0 0 50 50" fill="none" xmlns="http://www.w3.org/2000/svg">
<path d="M43.1574 23.9066L25.0508 5.80005L6.94424 23.9066C6.65978 24.1914 6.5 24.5775 6.5 24.98C6.5 25.3826 6.65978 25.7687 6.94424 26.0535L25.0508 44.16L43.1574 26.0535C43.4418 25.7687 43.6016 25.3826 43.6016 24.98C43.6016 24.5775 43.4418 24.1914 43.1574 23.9066ZM25.0508 30.651L19.3798 24.98L25.0508 19.3091L30.7218 24.98L25.0508 30.651Z" fill="#2684FF"/>
<path d="M25.0508 19.3091C23.2672 17.5253 22.2619 15.1081 22.2543 12.5856C22.2467 10.0631 23.2375 7.64 25.0103 5.84549L12.6 18.2507L19.3545 25.0052L25.0508 19.3091Z" fill="url(#paint0_linear_9176_13289)"/>
<path d="M30.737 24.9649L25.0508 30.651C25.9382 31.5378 26.6421 32.5908 27.1224 33.7498C27.6026 34.9088 27.8498 36.151 27.8498 37.4055C27.8498 38.6601 27.6026 39.9023 27.1224 41.0613C26.6421 42.2203 25.9382 43.2732 25.0508 44.16L37.4915 31.7194L30.737 24.9649Z" fill="url(#paint1_linear_9176_13289)"/>
<defs>
<linearGradient id="paint0_linear_9176_13289" x1="40.584" y1="21.2698" x2="25.9051" y2="43.1171" gradientUnits="userSpaceOnUse">
<stop offset="0.18" stop-color="#0052CC"/>
<stop offset="1" stop-color="#2684FF"/>
</linearGradient>
<linearGradient id="paint1_linear_9176_13289" x1="26.1343" y1="36.322" x2="34.0382" y2="28.4181" gradientUnits="userSpaceOnUse">
<stop offset="0.18" stop-color="#0052CC"/>
<stop offset="1" stop-color="#2684FF"/>
</linearGradient>
</defs>
</svg>
