<svg width="50" height="50" viewBox="0 0 50 50" fill="none" xmlns="http://www.w3.org/2000/svg">
<path d="M23.2011 37V41.1765L23.6329 40.644L25.0985 39.0424H26.0842L24.2452 41.0718L26.2979 43.91H25.3471L23.7097 41.6524L23.2011 42.1967V43.91H22.3899V37H23.2011Z" fill="#7F8BA5"/>
<path d="M33.5427 39.0424V39.6812H32.6616V42.7044C32.6616 42.8693 32.6863 42.9938 32.7358 43.0778C32.7852 43.1617 32.8492 43.2172 32.9277 43.2442C33.0062 43.2712 33.0905 43.2847 33.1807 43.2847C33.2475 43.2847 33.3173 43.2787 33.39 43.2667C33.4656 43.2517 33.5223 43.2397 33.5601 43.2307L33.5645 43.91C33.5005 43.931 33.4162 43.9505 33.3115 43.9685C33.2097 43.9895 33.0862 44 32.9408 44C32.743 44 32.5613 43.9595 32.3956 43.8785C32.2298 43.7976 32.0975 43.6626 31.9987 43.4737C31.9027 43.2817 31.8547 43.0238 31.8547 42.6999V39.6812H30.9911V39.0424H31.8547V37.8593H32.6616V39.0424H33.5427Z" fill="#7F8BA5"/>
<path d="M37.237 42.6189C37.237 42.4989 37.2109 42.388 37.1585 42.286C37.1091 42.181 37.0059 42.0865 36.8488 42.0026C36.6947 41.9156 36.4621 41.8406 36.151 41.7776C35.8893 41.7207 35.6523 41.6532 35.44 41.5752C35.2307 41.4972 35.0518 41.4027 34.9035 41.2918C34.7581 41.1808 34.6462 41.0503 34.5677 40.9004C34.4892 40.7504 34.4499 40.575 34.4499 40.374C34.4499 40.1821 34.4906 40.0006 34.572 39.8297C34.6564 39.6587 34.7741 39.5073 34.9253 39.3753C35.0795 39.2434 35.2641 39.1399 35.4793 39.0649C35.6945 38.9899 35.9343 38.9524 36.199 38.9524C36.577 38.9524 36.8997 39.0214 37.1672 39.1594C37.4348 39.2973 37.6398 39.4818 37.7822 39.7127C37.9247 39.9407 37.996 40.1941 37.996 40.473H37.1891C37.1891 40.338 37.1498 40.2076 37.0713 40.0816C36.9957 39.9527 36.8837 39.8462 36.7354 39.7622C36.5901 39.6782 36.4112 39.6362 36.199 39.6362C35.9751 39.6362 35.7933 39.6722 35.6537 39.7442C35.5171 39.8132 35.4168 39.9017 35.3528 40.0096C35.2917 40.1176 35.2612 40.2316 35.2612 40.3515C35.2612 40.4415 35.2757 40.5225 35.3048 40.5945C35.3368 40.6635 35.392 40.7279 35.4706 40.7879C35.5491 40.8449 35.6596 40.8989 35.802 40.9499C35.9445 41.0009 36.1263 41.0518 36.3472 41.1028C36.734 41.1928 37.0524 41.3008 37.3025 41.4267C37.5525 41.5527 37.7386 41.7072 37.8608 41.8901C37.9829 42.0731 38.0439 42.295 38.0439 42.5559C38.0439 42.7689 38.0003 42.9638 37.9131 43.1407C37.8288 43.3177 37.7052 43.4707 37.5424 43.5996C37.3824 43.7256 37.1905 43.8246 36.9666 43.8965C36.7456 43.9655 36.497 44 36.2208 44C35.8049 44 35.4531 43.9235 35.1652 43.7706C34.8774 43.6176 34.6593 43.4197 34.511 43.1767C34.3627 42.9338 34.2885 42.6774 34.2885 42.4075H35.0998C35.1114 42.6354 35.1754 42.8168 35.2917 42.9518C35.408 43.0838 35.5505 43.1782 35.7192 43.2352C35.8878 43.2892 36.055 43.3162 36.2208 43.3162C36.4418 43.3162 36.6264 43.2862 36.7747 43.2262C36.9259 43.1662 37.0408 43.0838 37.1193 42.9788C37.1978 42.8738 37.237 42.7539 37.237 42.6189Z" fill="#7F8BA5"/>
<path fill-rule="evenodd" clip-rule="evenodd" d="M27.8943 43.829C28.1618 43.943 28.4599 44 28.7885 44C29.0996 44 29.3686 43.955 29.5954 43.865C29.8251 43.7751 30.0184 43.6581 30.1755 43.5141C30.3325 43.3702 30.4619 43.2187 30.5637 43.0598L30.0751 42.6594C29.9269 42.8603 29.7538 43.0208 29.5561 43.1407C29.3584 43.2607 29.117 43.3207 28.8321 43.3207C28.6111 43.3207 28.4133 43.2772 28.2389 43.1902C28.0673 43.1033 27.9205 42.9833 27.7983 42.8303C27.6791 42.6774 27.5875 42.5004 27.5236 42.2995C27.4681 42.1142 27.4378 41.9177 27.4327 41.7102H30.6247V41.3368C30.6247 40.9949 30.5869 40.6799 30.5113 40.392C30.4357 40.1011 30.3194 39.8492 30.1624 39.6362C30.0054 39.4203 29.8033 39.2524 29.5561 39.1324C29.3119 39.0124 29.0211 38.9524 28.6838 38.9524C28.4192 38.9524 28.1633 39.0079 27.9161 39.1189C27.669 39.2299 27.448 39.3933 27.2531 39.6093C27.0583 39.8252 26.9042 40.0891 26.7908 40.401C26.6774 40.7099 26.6207 41.0623 26.6207 41.4582V41.6472C26.6207 41.9891 26.6716 42.304 26.7734 42.5919C26.8751 42.8798 27.0205 43.1287 27.2095 43.3387C27.4014 43.5486 27.6297 43.7121 27.8943 43.829ZM27.4563 41.0308H29.8178V40.9679C29.8062 40.7519 29.7626 40.542 29.687 40.338C29.6143 40.1341 29.498 39.9662 29.338 39.8342C29.1781 39.7022 28.96 39.6362 28.6838 39.6362C28.5006 39.6362 28.3319 39.6767 28.1778 39.7577C28.0237 39.8357 27.8914 39.9527 27.7809 40.1086C27.6704 40.2646 27.5846 40.455 27.5236 40.6799C27.494 40.7888 27.4716 40.9058 27.4563 41.0308Z" fill="#7F8BA5"/>
<path d="M20.1349 43.1947C19.972 43.2757 19.7947 43.3162 19.6027 43.3162C19.3527 43.3162 19.1433 43.2667 18.9747 43.1677C18.8089 43.0658 18.6766 42.9308 18.5777 42.7629C18.4818 42.5949 18.4135 42.4075 18.3727 42.2005C18.332 41.9936 18.3117 41.7836 18.3117 41.5707V41.3817C18.3117 41.1688 18.332 40.9604 18.3727 40.7564C18.4164 40.5495 18.4862 40.362 18.5821 40.1941C18.681 40.0231 18.8133 39.8882 18.979 39.7892C19.1477 39.6872 19.3556 39.6362 19.6027 39.6362C19.8179 39.6362 20.0055 39.6857 20.1654 39.7847C20.3282 39.8807 20.4562 40.0096 20.5492 40.1716C20.6452 40.3335 20.7004 40.515 20.715 40.7159H21.4826C21.4681 40.38 21.3809 40.0801 21.2209 39.8162C21.0639 39.5493 20.8473 39.3393 20.571 39.1864C20.2948 39.0304 19.972 38.9524 19.6027 38.9524C19.248 38.9524 18.9383 39.0169 18.6737 39.1459C18.412 39.2748 18.1939 39.4518 18.0195 39.6767C17.8479 39.9017 17.7185 40.1611 17.6313 40.455C17.5469 40.7459 17.5048 41.0548 17.5048 41.3817V41.5707C17.5048 41.8976 17.5469 42.208 17.6313 42.5019C17.7185 42.7928 17.8479 43.0508 18.0195 43.2757C18.1939 43.5006 18.412 43.6776 18.6737 43.8066C18.9383 43.9355 19.248 44 19.6027 44C19.9371 44 20.2439 43.925 20.5231 43.7751C20.8022 43.6221 21.0276 43.4227 21.1991 43.1767C21.3736 42.9278 21.4681 42.6594 21.4826 42.3715H20.715C20.7004 42.5544 20.6408 42.7179 20.5361 42.8618C20.4315 43.0028 20.2977 43.1138 20.1349 43.1947Z" fill="#7F8BA5"/>
<path d="M16.4187 39.0424V43.91H15.6074V39.0424H16.4187Z" fill="#7F8BA5"/>
<path d="M15.5464 37.7513C15.5464 37.6163 15.5856 37.5024 15.6641 37.4094C15.7456 37.3164 15.8648 37.2699 16.0218 37.2699C16.1759 37.2699 16.2937 37.3164 16.3751 37.4094C16.4594 37.5024 16.5016 37.6163 16.5016 37.7513C16.5016 37.8802 16.4594 37.9912 16.3751 38.0842C16.2937 38.1742 16.1759 38.2192 16.0218 38.2192C15.8648 38.2192 15.7456 38.1742 15.6641 38.0842C15.5856 37.9912 15.5464 37.8802 15.5464 37.7513Z" fill="#7F8BA5"/>
<path d="M14.5955 39.6812V39.0424H13.7145V37.8593H12.9076V39.0424H12.0439V39.6812H12.9076V42.6999C12.9076 43.0238 12.9555 43.2817 13.0515 43.4737C13.1504 43.6626 13.2827 43.7976 13.4484 43.8785C13.6142 43.9595 13.7959 44 13.9936 44C14.139 44 14.2626 43.9895 14.3644 43.9685C14.469 43.9505 14.5534 43.931 14.6173 43.91L14.613 43.2307C14.5752 43.2397 14.5185 43.2517 14.4429 43.2667C14.3702 43.2787 14.3004 43.2847 14.2335 43.2847C14.1434 43.2847 14.059 43.2712 13.9805 43.2442C13.902 43.2172 13.8381 43.1617 13.7886 43.0778C13.7392 42.9938 13.7145 42.8693 13.7145 42.7044V39.6812H14.5955Z" fill="#7F8BA5"/>
<path d="M27.2632 18.2295L34.9363 18.257C35.5896 18.2597 36.1258 18.7565 36.1258 19.359C36.1258 19.598 36.0416 19.8308 35.8856 20.0217L24.5603 33.9677C22.5283 32.5683 21.3291 30.3621 21.3291 28.0233C21.3291 26.4227 21.8905 24.864 22.9296 23.582L27.2632 18.2295Z" fill="url(#paint0_linear_12437_12050)"/>
<path d="M22.8166 23.0718L15.1302 23.0268C14.4718 23.024 13.9316 22.5236 13.9316 21.9167C13.9316 21.676 14.0164 21.4416 14.1736 21.2493L25.4725 7.3335C27.52 8.74306 28.7283 10.9653 28.7283 13.321C28.7283 14.9332 28.1626 16.5033 27.1156 17.7945L22.8166 23.0718Z" fill="#2684FF"/>
<defs>
<linearGradient id="paint0_linear_12437_12050" x1="26.9579" y1="19.274" x2="29.7441" y2="28.4018" gradientUnits="userSpaceOnUse">
<stop stop-color="#0052CC"/>
<stop offset="1" stop-color="#2684FF"/>
</linearGradient>
</defs>
</svg>
