<svg width="50" height="50" viewBox="0 0 50 50" fill="none" xmlns="http://www.w3.org/2000/svg">
<path fill-rule="evenodd" clip-rule="evenodd" d="M24.9036 8.41464C13.8864 9.20499 6.16846 19.147 8.87825 29.058C11.9387 40.2518 26.1254 45.2538 36.5835 38.8264C38.4732 37.6652 41.6727 34.63 41.6667 34.0046C41.6659 33.92 40.8341 33.4456 40.7902 33.5046C37.1815 38.358 31.9301 40.8647 25.7915 40.6645C13.521 40.2641 5.79057 28.3975 11.1227 18.1472C15.3305 10.0586 26.5049 6.88823 34.9029 11.4005C35.3005 11.6141 35.6374 11.7742 35.6517 11.7562C36.3124 10.9279 36.336 10.9628 34.5541 10.1363C31.526 8.7318 28.2197 8.17683 24.9036 8.41464ZM24.3292 10.1409C14.0876 11.4363 7.76703 20.793 11.0242 29.8368C14.6119 39.7979 28.2553 43.2622 37.0103 36.4352L37.4187 36.1167L37.1733 35.8115C36.8542 35.4143 36.8826 35.4076 35.8894 36.113C25.3488 43.5995 10.0124 36.063 11.1572 23.9592C12.2877 12.0061 27.3157 6.69711 37.0531 14.8108L37.8212 15.4507L38.4818 14.8309L37.6463 14.1153C34.0946 11.0729 28.9942 9.55082 24.3292 10.1409ZM24.7952 11.5835C14.8603 12.6244 8.89517 22.4987 13.2036 30.7717C16.5936 37.2812 24.6722 40.1853 31.9539 37.5118C33.1685 37.0659 33.2369 37.0113 33.02 36.6605C32.8091 36.3196 32.773 36.316 32.1628 36.5738C21.3317 41.1489 9.54682 31.4708 13.3182 21.0983C17.1772 10.4849 32.466 9.17549 38.594 18.9334C38.9607 19.517 39.3389 18.5907 38.9607 17.9953C36.1931 13.6382 30.3647 11.0001 24.7952 11.5835ZM24.1121 13.0681C10.4013 15.452 9.54807 33.4505 22.9916 36.7041C25.0525 37.2028 28.7133 37.2703 29.2042 36.8187C29.3237 36.7088 29.1123 36.1659 28.9696 36.2162C28.1495 36.5058 25.3586 36.5148 23.9262 36.2325C13.1169 34.1022 10.4091 21.0835 19.6039 15.4522C26.4439 11.263 36.1465 14.5068 38.343 21.7171C38.4719 22.1399 38.5876 22.5007 38.6004 22.519C38.6131 22.5373 38.7679 22.523 38.9443 22.4874C39.3524 22.4049 39.3503 22.3238 38.9095 21.1195C36.8521 15.4993 30.381 11.9782 24.1121 13.0681ZM25.3737 14.1392C13.3492 15.1684 10.585 30.2084 21.5514 34.9363C23.2195 35.6554 25.8959 36.1334 25.8959 35.7122C25.8959 35.5989 25.8975 35.4739 25.8993 35.4345C25.9012 35.3951 25.4787 35.3106 24.9605 35.2468C15.9153 34.1321 12.0388 24.0137 18.3277 17.9338C25.1508 11.3376 37.0098 15.4034 37.6622 24.5626L37.7305 25.5226L38.2729 25.4647L38.2518 24.5558C38.111 18.4825 32.0364 13.5689 25.3737 14.1392ZM24.5903 15.3719C14.0078 17.1607 12.6432 30.5293 22.6718 34.1659C22.9664 34.2728 23.219 34.3477 23.2331 34.3326C23.4987 34.0476 23.3641 33.901 22.5582 33.5978C12.3998 29.7768 15.472 15.7801 26.4704 15.7742C32.8661 15.7707 37.6399 21.0963 36.3557 26.8022C36.128 27.8139 36.1359 27.915 36.4429 27.915C36.883 27.915 37.2186 25.2283 36.9723 23.6784C36.0967 18.1689 30.4508 14.3813 24.5903 15.3719ZM25.5826 16.2522C19.022 17.002 15.1582 22.9339 17.6473 28.4347C18.4136 30.1283 20.9813 32.7564 21.4078 32.2837C21.4799 32.2037 21.5204 32.1269 21.4979 32.1128C14.3173 27.6382 16.9261 17.5962 25.5112 16.6646C32.5198 15.9042 37.7643 22.8347 34.6329 28.7186C34.2622 29.4154 34.2117 29.5742 34.332 29.6661C34.4986 29.7933 34.5318 29.7585 34.9498 29.0201C38.3476 23.0178 32.7804 15.4295 25.5826 16.2522ZM24.6947 17.2914C18.464 18.6368 15.8323 25.1512 19.6433 29.7951C19.8791 30.0823 20.1105 30.3173 20.1576 30.3173C20.38 30.3173 20.3038 30.1264 19.8707 29.5995C15.7551 24.5912 19.6346 17.4458 26.4704 17.4441C33.6133 17.4424 37.3576 25.348 32.489 30.1523C32.1184 30.5181 32.0501 30.6357 32.1542 30.7288C32.6067 31.1331 34.4658 28.2345 34.838 26.5446C36.0322 21.1221 30.4667 16.0451 24.6947 17.2914ZM25.5303 18.0154C20.4633 18.5618 17.2148 23.8949 19.4861 27.939C19.7623 28.431 19.8282 28.207 19.567 27.6636C16.7799 21.8657 23.5809 16.1069 29.8626 18.9457C34.9886 21.262 35.2252 28.5119 30.2529 30.9032C30.0355 31.0078 29.8859 31.1356 29.9206 31.1873C30.0001 31.3056 30.6622 30.9472 31.3683 30.4038C35.8756 26.9349 34.5757 20.2586 29.0306 18.3967C27.892 18.0144 26.7129 17.8878 25.5303 18.0154ZM22.8869 19.6271C21.8733 20.1938 20.2556 21.8435 20.2557 22.3105C20.2557 22.3541 20.4819 22.0655 20.7581 21.6691C21.482 20.6306 23.7199 19.2711 23.6431 19.2694C23.5817 19.2679 23.2414 19.429 22.8869 19.6271ZM29.4471 19.3998C29.4471 19.4223 29.6939 19.5691 29.9955 19.7262C31.0711 20.2862 32.1834 21.4779 32.6787 22.6005C32.7908 22.8546 32.8845 22.9975 32.8869 22.9183C32.9018 22.4253 31.7646 20.8902 30.8863 20.2177C30.3363 19.7965 29.4471 19.2913 29.4471 19.3998ZM32.4419 27.8398C31.81 29.0558 29.3382 30.7041 29.4815 30.6619C30.5654 30.3434 33.3101 27.4763 32.8842 27.1076C32.8608 27.0874 32.6618 27.4169 32.4419 27.8398Z" fill="#982C2F"/>
</svg>
