<svg width="50" height="50" viewBox="0 0 50 50" fill="none" xmlns="http://www.w3.org/2000/svg">
<path d="M25.8652 40.7417C24.2252 39.0642 24.2252 36.3443 25.8652 34.6667L31.784 28.6124C33.424 26.9349 36.083 26.9349 37.723 28.6124C39.363 30.29 39.363 33.0099 37.723 34.6874L31.8042 40.7417C30.1642 42.4193 27.5052 42.4193 25.8652 40.7417Z" fill="#FFB629"/>
<path d="M10.23 25.5292C8.59 23.8516 8.59 21.1317 10.23 19.4542L20.1907 9.25818C21.8307 7.58061 24.4897 7.58061 26.1297 9.25818C27.7697 10.9357 27.7697 13.6556 26.1297 15.3332L16.169 25.5292C14.529 27.2067 11.87 27.2067 10.23 25.5292Z" fill="#0099FF"/>
<path d="M18.3724 32.7959C16.7324 31.1183 16.7324 28.3985 18.3724 26.7209L31.8311 12.954C33.4711 11.2764 36.1301 11.2764 37.7701 12.954C39.4101 14.6316 39.4101 17.3514 37.7701 19.029L24.3114 32.7959C22.6714 34.4734 20.0124 34.4734 18.3724 32.7959Z" fill="#FF6100"/>
</svg>
