<svg width="50" height="50" viewBox="0 0 50 50" fill="none" xmlns="http://www.w3.org/2000/svg">
<path d="M37.0939 9.80013C37.2591 7.15656 38.8452 6 40.5965 6C42.48 6 44 7.52005 44 9.4036C44 11.2871 42.6122 12.8072 40.2 12.9063C38.746 12.9724 37.953 13.2037 37.226 13.9307C36.4991 14.6577 36.3008 15.4508 36.2017 16.9047C36.0365 19.5483 34.4504 20.7049 32.699 20.7049C30.8155 20.7049 29.2955 19.1848 29.2955 17.3013C29.2955 15.4177 30.6834 13.8977 33.0956 13.7985C34.5495 13.7324 35.3425 13.5011 36.0695 12.7741C36.7965 12.0472 36.9947 11.2541 37.0939 9.80013Z" fill="black"/>
<path d="M13.7983 33.0953C13.9635 30.4517 15.5496 29.2951 17.301 29.2951C19.1845 29.2951 20.7045 30.8152 20.7045 32.6987C20.7045 34.5823 19.3166 36.1023 16.9044 36.2015C15.4505 36.2676 14.6575 36.4989 13.9305 37.2259C13.2035 37.9528 13.0053 38.7459 12.9061 40.1999C12.7409 42.8434 11.1548 44 9.40351 44C7.52001 44 6 42.4799 6 40.5964C6 38.7129 7.38784 37.1928 9.80003 37.0937C11.254 37.0276 12.047 36.7963 12.774 36.0693C13.5009 35.3423 13.6992 34.5492 13.7983 33.0953Z" fill="black"/>
<path d="M16.9044 13.7985C15.4505 13.7324 14.6575 13.5011 13.9305 12.7741C13.2035 12.0472 13.0053 11.2541 12.9061 9.80013C12.7409 7.15656 11.1548 6 9.40351 6C7.52001 6 6 7.52005 6 9.4036C6 11.2871 7.38784 12.8072 9.80003 12.9063C11.254 12.9724 12.047 13.2037 12.774 13.9307C13.5009 14.6577 13.6992 15.4508 13.7983 16.9047C13.9635 19.5483 15.5496 20.7049 17.301 20.7049C19.1845 20.7049 20.7045 19.1848 20.7045 17.3013C20.7045 15.4177 19.3166 13.8977 16.9044 13.7985Z" fill="black"/>
<path d="M20.9362 25.0004C20.9362 22.6873 22.6875 20.9359 25.0006 20.9359C27.3137 20.9359 29.065 22.6873 29.065 25.0004C29.065 27.3135 27.3137 29.0649 25.0006 29.0649C22.6875 29.0649 20.9362 27.3135 20.9362 25.0004Z" fill="black"/>
<path d="M29.2309 33.4V36.6C29.2309 37.56 28.7722 38.4128 28.0614 39C28.7722 39.5872 29.2309 40.44 29.2309 41.4V44.6C29.2309 45.0408 29.6099 45.4 30.077 45.4C31.161 45.4 31.161 47 30.077 47C28.6775 47 27.5385 45.9232 27.5385 44.6V41.4C27.5385 40.5176 26.7795 39.8 25.8462 39.8C24.7622 39.8 24.7622 38.2 25.8462 38.2C26.7795 38.2 27.5385 37.4824 27.5385 36.6V33.4C27.5385 32.0768 28.6775 31 30.077 31C31.161 31 31.161 32.6 30.077 32.6C29.6099 32.6 29.2309 32.9592 29.2309 33.4Z" fill="black"/>
<path d="M37.2699 36.2001C37.2699 36.8628 36.7016 37.4001 36.0006 37.4001C35.2997 37.4001 34.7314 36.8628 34.7314 36.2001C34.7314 35.5373 35.2997 35.0001 36.0006 35.0001C36.7016 35.0001 37.2699 35.5373 37.2699 36.2001Z" fill="black"/>
<path d="M46.1538 38.2C45.2205 38.2 44.4615 37.4824 44.4615 36.6V33.4C44.4615 32.0768 43.3225 31 41.923 31C40.839 31 40.839 32.6 41.923 32.6C42.3901 32.6 42.7691 32.9592 42.7691 33.4V36.6C42.7691 37.56 43.2278 38.4128 43.9385 39C43.2278 39.5872 42.7691 40.44 42.7691 41.4V44.6C42.7691 45.0408 42.3901 45.4 41.923 45.4C40.839 45.4 40.839 47 41.923 47C43.3225 47 44.4615 45.9232 44.4615 44.6V41.4C44.4615 40.5176 45.2205 39.8 46.1538 39.8C47.2378 39.8 47.2378 38.2 46.1538 38.2Z" fill="black"/>
<path d="M35.1544 41.4001C35.1544 40.3611 36.8468 40.3611 36.8468 41.4001V43.8001C36.8468 44.839 35.1544 44.839 35.1544 43.8001V41.4001Z" fill="black"/>
</svg>
