<svg width="50" height="50" viewBox="0 0 50 50" fill="none" xmlns="http://www.w3.org/2000/svg">
<rect width="50" height="50" fill="black"/>
<path d="M35.324 11.3367C35.4692 9.01552 36.863 8 38.402 8C40.0572 8 41.3929 9.33468 41.3929 10.9885C41.3929 12.6424 40.1733 13.977 38.0536 14.0641C36.7759 14.1221 36.079 14.3252 35.4402 14.9635C34.8014 15.6019 34.6271 16.2982 34.54 17.5749C34.3948 19.8961 33.001 20.9116 31.4621 20.9116C29.8069 20.9116 28.4712 19.5769 28.4712 17.9231C28.4712 16.2692 29.6908 14.9345 31.8105 14.8475C33.0882 14.7895 33.7851 14.5864 34.4239 13.948C35.0627 13.3097 35.2369 12.6134 35.324 11.3367Z" fill="white"/>
<path d="M14.8529 31.791C14.998 29.4698 16.3918 28.4543 17.9308 28.4543C19.586 28.4543 20.9217 29.789 20.9217 31.4428C20.9217 33.0966 19.7021 34.4313 17.5824 34.5184C16.3047 34.5764 15.6078 34.7795 14.969 35.4178C14.3302 36.0561 14.156 36.7525 14.0688 38.0292C13.9237 40.3503 12.5299 41.3659 10.9909 41.3659C9.33573 41.3659 8 40.0312 8 38.3773C8 36.7235 9.21958 35.3888 11.3393 35.3018C12.617 35.2437 13.3139 35.0406 13.9527 34.4023C14.5915 33.764 14.7657 33.0676 14.8529 31.791Z" fill="white"/>
<path d="M17.5824 14.8475C16.3047 14.7895 15.6078 14.5864 14.969 13.948C14.3302 13.3097 14.156 12.6134 14.0688 11.3367C13.9237 9.01552 12.5299 8 10.9909 8C9.33573 8 8 9.33468 8 10.9885C8 12.6424 9.21958 13.977 11.3393 14.0641C12.617 14.1221 13.3139 14.3252 13.9527 14.9635C14.5915 15.6019 14.7657 16.2982 14.8529 17.5749C14.998 19.8961 16.3918 20.9116 17.9308 20.9116C19.586 20.9116 20.9217 19.5769 20.9217 17.9231C20.9217 16.2692 19.7021 14.9345 17.5824 14.8475Z" fill="white"/>
<path d="M21.1253 24.6833C21.1253 22.6523 22.6643 21.1145 24.697 21.1145C26.7296 21.1145 28.2686 22.6523 28.2686 24.6833C28.2686 26.7143 26.7296 28.2521 24.697 28.2521C22.6643 28.2521 21.1253 26.7143 21.1253 24.6833Z" fill="white"/>
<path d="M28.4144 32.0585V34.8683C28.4144 35.7112 28.0113 36.46 27.3867 36.9756C28.0113 37.4912 28.4144 38.24 28.4144 39.0829V41.8927C28.4144 42.2797 28.7475 42.5951 29.1579 42.5951C30.1105 42.5951 30.1105 44 29.1579 44C27.928 44 26.9272 43.0545 26.9272 41.8927V39.0829C26.9272 38.3081 26.2602 37.678 25.44 37.678C24.4875 37.678 24.4875 36.2732 25.44 36.2732C26.2602 36.2732 26.9272 35.6431 26.9272 34.8683V32.0585C26.9272 30.8967 27.928 29.9512 29.1579 29.9512C30.1105 29.9512 30.1105 31.3561 29.1579 31.3561C28.7475 31.3561 28.4144 31.6715 28.4144 32.0585Z" fill="white"/>
<path d="M35.4787 34.5171C35.4787 35.0991 34.9794 35.5708 34.3634 35.5708C33.7474 35.5708 33.248 35.0991 33.248 34.5171C33.248 33.9352 33.7474 33.4635 34.3634 33.4635C34.9794 33.4635 35.4787 33.9352 35.4787 34.5171Z" fill="white"/>
<path d="M43.2856 36.2732C42.4654 36.2732 41.7984 35.6431 41.7984 34.8683V32.0585C41.7984 30.8967 40.7976 29.9512 39.5677 29.9512C38.6151 29.9512 38.6151 31.3561 39.5677 31.3561C39.9781 31.3561 40.3113 31.6715 40.3113 32.0585V34.8683C40.3113 35.7112 40.7143 36.46 41.3389 36.9756C40.7143 37.4912 40.3113 38.24 40.3113 39.0829V41.8927C40.3113 42.2797 39.9781 42.5951 39.5677 42.5951C38.6151 42.5951 38.6151 44 39.5677 44C40.7976 44 41.7984 43.0545 41.7984 41.8927V39.0829C41.7984 38.3081 42.4654 37.678 43.2856 37.678C44.2381 37.678 44.2381 36.2732 43.2856 36.2732Z" fill="white"/>
<path d="M33.6197 39.083C33.6197 38.1708 35.1069 38.1708 35.1069 39.083V41.1903C35.1069 42.1025 33.6197 42.1025 33.6197 41.1903V39.083Z" fill="white"/>
</svg>
