<svg width="50" height="50" viewBox="0 0 50 50" fill="none" xmlns="http://www.w3.org/2000/svg">
<rect width="50" height="50" fill="#052A48"/>
<path d="M41.7249 32.5826C42.5448 31.735 43.0009 30.6119 42.9992 29.445C43.0109 28.826 42.8935 28.2113 42.6543 27.6382C42.415 27.0652 42.0589 26.5458 41.6076 26.1119C41.1563 25.678 40.6194 25.3387 40.0296 25.1146C39.4398 24.8905 38.8094 24.7864 38.1771 24.8086H36.93C36.8048 23.3847 36.1368 22.0588 35.0587 21.0945C33.9806 20.1301 32.5711 19.5976 31.1103 19.6029H30.2789C29.625 18.7913 28.7915 18.1354 27.8411 17.6845C26.8906 17.2337 25.848 16.9997 24.7918 17C23.3587 16.9961 21.9607 17.4341 20.7966 18.2518C19.6325 19.0695 18.7613 20.2253 18.3069 21.555C17.3444 21.6017 16.4066 21.8689 15.5691 22.3352C14.7315 22.8014 14.0176 23.4536 13.4849 24.2392C13.0176 24.1552 12.5387 24.1552 12.0715 24.2392C10.7264 24.2392 9.4365 24.762 8.48541 25.6925C7.53432 26.623 7 27.885 7 29.201C6.99838 30.4326 7.4808 31.6177 8.34743 32.511C9.21406 33.4042 10.3986 33.9374 11.6558 34H12.9859C13.8428 32.5562 15.1993 31.4599 16.8102 30.9092C16.062 30.3576 15.5412 29.5613 15.3428 28.6655C15.1444 27.7697 15.2816 26.8339 15.7294 26.0288C16.2154 25.3206 16.9295 24.7919 17.7581 24.5266C18.5867 24.2612 19.4822 24.2747 20.3021 24.5647C20.9211 24.8069 21.4627 25.2065 21.8709 25.7222C22.2791 26.2379 22.539 26.8509 22.6238 27.4978C22.7086 28.1448 22.6151 28.8022 22.3531 29.4019C22.0911 30.0017 21.67 30.522 21.1335 30.9092C22.1312 31.2545 23.0394 31.8098 23.7939 32.536C24.7344 31.4535 25.9766 30.6621 27.3689 30.2584C26.657 29.8188 26.0949 29.1818 25.7544 28.4285C25.4139 27.6753 25.3102 26.8399 25.4567 26.0288C25.5695 25.3137 25.861 24.637 26.3055 24.0587C26.75 23.4804 27.3336 23.0185 28.0044 22.7141C28.6753 22.4096 29.4127 22.272 30.151 22.3134C30.8893 22.3549 31.6057 22.5742 32.2366 22.9517C32.8674 23.3293 33.3932 23.8535 33.7671 24.4778C34.141 25.102 34.3515 25.8069 34.3799 26.5299C34.4083 27.2529 34.2537 27.9716 33.9298 28.622C33.606 29.2725 33.1229 29.8346 32.5235 30.2584C34.2304 30.792 35.698 31.8833 36.6805 33.3494L37.0961 34H38.5928C39.7839 33.9375 40.905 33.4301 41.7249 32.5826Z" fill="white"/>
</svg>
