<svg width="50" height="50" viewBox="0 0 50 50" fill="none" xmlns="http://www.w3.org/2000/svg">
<path d="M43.583 33.0139C44.494 32.0549 45.0008 30.7841 44.9989 29.4637C45.0119 28.7634 44.8815 28.0678 44.6157 27.4193C44.3498 26.7709 43.9541 26.1833 43.4527 25.6924C42.9512 25.2014 42.3547 24.8174 41.6993 24.5639C41.044 24.3103 40.3436 24.1925 39.641 24.2176H38.2554C38.1162 22.6064 37.374 21.1063 36.1761 20.0151C34.9781 18.9239 33.4121 18.3214 31.7889 18.3274H30.8652C30.1386 17.4091 29.2125 16.6669 28.1564 16.1568C27.1004 15.6466 25.9419 15.3818 24.7683 15.3822C23.1759 15.3778 21.6227 15.8733 20.3292 16.7986C19.0357 17.7238 18.0677 19.0316 17.5628 20.5362C16.4934 20.589 15.4514 20.8914 14.5208 21.4189C13.5901 21.9465 12.7969 22.6845 12.205 23.5734C11.6858 23.4783 11.1537 23.4783 10.6345 23.5734C9.14004 23.5734 7.70675 24.1649 6.64998 25.2178C5.59321 26.2706 4.99952 27.6986 4.99952 29.1876C4.99771 30.5812 5.53374 31.9221 6.49667 32.9328C7.4596 33.9436 8.77572 34.5468 10.1727 34.6177H11.6505C12.6027 32.9841 14.1099 31.7436 15.8998 31.1204C15.0685 30.4963 14.4898 29.5953 14.2694 28.5817C14.049 27.5681 14.2014 26.5093 14.6989 25.5983C15.2389 24.797 16.0324 24.1987 16.9531 23.8985C17.8737 23.5983 18.8687 23.6135 19.7797 23.9416C20.4675 24.2157 21.0693 24.6678 21.5229 25.2513C21.9764 25.8348 22.2652 26.5285 22.3594 27.2605C22.4536 27.9925 22.3498 28.7363 22.0587 29.415C21.7675 30.0936 21.2996 30.6824 20.7035 31.1204C21.8121 31.5111 22.8212 32.1395 23.6595 32.9611C24.7046 31.7363 26.0848 30.8409 27.6318 30.3841C26.8407 29.8867 26.2163 29.1659 25.8379 28.3136C25.4595 27.4613 25.3443 26.516 25.5071 25.5983C25.6324 24.7892 25.9564 24.0234 26.4502 23.3691C26.9441 22.7148 27.5925 22.1922 28.3379 21.8477C29.0833 21.5031 29.9026 21.3474 30.723 21.3944C31.5434 21.4413 32.3394 21.6894 33.0403 22.1166C33.7413 22.5438 34.3255 23.137 34.7409 23.8433C35.1564 24.5496 35.3903 25.3472 35.4218 26.1653C35.4534 26.9834 35.2816 27.7965 34.9217 28.5325C34.5619 29.2685 34.0251 29.9046 33.3592 30.3841C35.2557 30.9879 36.8864 32.2226 37.978 33.8815L38.4399 34.6177H40.1029C41.4263 34.547 42.672 33.9729 43.583 33.0139Z" fill="#052A48"/>
</svg>
