<svg width="50" height="50" viewBox="0 0 50 50" fill="none" xmlns="http://www.w3.org/2000/svg">
<path d="M37.6966 24.3295C38.1163 24.0569 38.4935 23.733 38.8179 23.3668C39.6825 22.3883 40.2034 21.1919 40.3116 19.9358C40.4199 18.6797 40.1104 17.423 39.4241 16.3318C38.7378 15.2406 37.707 14.3662 36.4679 13.8242C35.2288 13.2822 33.8397 13.0981 32.4842 13.2963C31.9771 13.3709 31.4834 13.5084 31.0166 13.705C30.9681 13.2353 30.85 12.774 30.6655 12.3336C30.175 11.1568 29.307 10.1443 28.1762 9.43005C27.0455 8.71579 25.7052 8.33337 24.3326 8.33337C22.96 8.33337 21.6197 8.71579 20.4889 9.43005C19.3582 10.1443 18.4902 11.1568 17.9997 12.3336C17.8156 12.7739 17.6977 13.2351 17.6491 13.7045C17.1825 13.5079 16.689 13.3704 16.1821 13.2958C14.8266 13.0977 13.4375 13.2818 12.1984 13.8237C10.9592 14.3657 9.92844 15.2401 9.24214 16.3313C8.55585 17.4225 8.24638 18.6792 8.35462 19.9353C8.46286 21.1914 8.98372 22.3878 9.84837 23.3664C10.1727 23.7327 10.5499 24.0567 10.9696 24.3295C10.5499 24.602 10.1727 24.9259 9.84837 25.2921C8.98372 26.2707 8.46286 27.4671 8.35462 28.7232C8.24638 29.9793 8.55585 31.2359 9.24214 32.3271C9.92844 33.4183 10.9592 34.2927 12.1984 34.8347C13.4375 35.3767 14.8266 35.5608 16.1821 35.3627C16.6889 35.2883 17.1823 35.1508 17.6485 34.9539C17.6976 35.4238 17.8157 35.8855 17.9997 36.3263C19.0064 38.7274 21.5279 40.3318 24.3318 40.3284C25.704 40.325 27.0431 39.941 28.1734 39.2266C29.3037 38.5122 30.1724 37.5009 30.6655 36.3253C30.8497 35.8846 30.9679 35.4229 31.0166 34.9529C31.4833 35.1498 31.977 35.2873 32.4842 35.3617C33.8397 35.5601 35.229 35.3762 36.4683 34.8342C37.7076 34.2923 38.7386 33.4179 39.4249 32.3266C40.1113 31.2353 40.4207 29.9785 40.3123 28.7223C40.2039 27.4661 39.6828 26.2696 38.8179 25.2911C38.4935 24.9249 38.1163 24.6021 37.6966 24.3295Z" fill="white"/>
<path d="M9.85962 25.2799C10.1795 24.9193 10.5507 24.5997 10.9631 24.3296C10.5501 24.5987 10.1781 24.9173 9.85693 25.2769" fill="#CAD6DD"/>
<path d="M16.1948 35.3622C16.6965 35.287 17.1849 35.1502 17.6468 34.9554V34.9589C17.1846 35.1523 16.6963 35.288 16.1948 35.3622Z" fill="#CAD6DD"/>
<path d="M15.1271 35.4398C13.8452 35.441 12.5892 35.1089 11.5046 34.4817C10.42 33.8546 9.55112 32.9582 8.99869 31.8964C8.44627 30.8346 8.23289 29.6508 8.38328 28.4822C8.53367 27.3136 9.04167 26.2081 9.84844 25.2936L9.85274 25.2887V25.2862L9.85597 25.2828C10.1771 24.9232 10.5491 24.6046 10.9621 24.3354C12.3716 25.2625 14.144 25.6002 15.8396 26.0178L16.6559 26.2187L11.0277 31.3829L18.7177 29.4887L18.4988 30.2376C18.046 31.7946 17.4771 33.3718 17.6486 34.9555C17.1867 35.1504 16.6984 35.2872 16.1967 35.3623H16.1838C15.8348 35.413 15.482 35.4384 15.1287 35.4383" fill="#CAD6DD"/>
<path d="M24.3224 40.3294C21.5229 40.3294 19.0051 38.726 17.9995 36.3274C17.9993 36.3256 17.9993 36.3237 17.9995 36.3219C17.9992 36.321 17.9992 36.3199 17.9995 36.319C17.9994 36.318 17.9994 36.317 17.9995 36.316V36.3096C17.9997 36.3081 17.9997 36.3066 17.9995 36.3051C17.8224 35.8736 17.7083 35.4224 17.6602 34.9634C19.2401 34.3073 20.4452 33.0677 21.6896 31.9274L22.2859 31.3799C22.9721 33.733 23.6579 36.0861 24.3434 38.4392C25.0296 36.0855 25.7159 33.7324 26.4025 31.3799L26.9994 31.9274C28.2421 33.0677 29.4472 34.3073 31.0272 34.9634C30.979 35.4283 30.8626 35.8852 30.6808 36.3214V36.3259C30.6808 36.3259 30.6808 36.3293 30.6808 36.3313C30.1876 37.5067 29.3188 38.5178 28.1886 39.232C27.0583 39.9462 25.7193 40.3301 24.3471 40.3334H24.338" fill="#CAD6DD"/>
<path d="M17.6484 34.9588L17.6486 34.9555C17.6487 34.9569 17.6486 34.9574 17.6484 34.9588Z" fill="#A9BBC5"/>
<path d="M17.6484 34.9588C17.6486 34.9574 17.6487 34.9569 17.6486 34.9555C17.4787 33.3718 18.0455 31.7961 18.4988 30.2376C18.5705 29.9878 18.6438 29.7382 18.7177 29.4887L21.5236 28.7971C21.7745 29.6558 22.0255 30.5147 22.2764 31.374L21.68 31.9215C20.4357 33.0618 19.2306 34.3014 17.6506 34.9575" fill="#A9BBC5"/>
<path d="M38.7892 25.2611C38.4719 24.9092 38.1056 24.5972 37.6997 24.333C38.1049 24.5979 38.4703 24.9106 38.7865 25.263" fill="#CAD6DD"/>
<path d="M33.5408 35.4398C33.187 35.4399 32.8336 35.4144 32.4841 35.3637C31.9772 35.2904 31.4836 35.1542 31.0166 34.9589V34.9555C31.4832 35.1519 31.9773 35.2892 32.4841 35.3637C33.4519 35.5063 34.4414 35.4543 35.3852 35.2112C36.329 34.9682 37.204 34.5399 37.9498 33.956C38.6956 33.3721 39.2944 32.6465 39.7048 31.8293C40.1152 31.0122 40.3274 30.1229 40.3268 29.2231C40.3274 30.0408 40.1522 30.8505 39.8112 31.6059C39.4702 32.3613 38.9701 33.0474 38.3396 33.625C37.7091 34.2025 36.9606 34.6602 36.137 34.9716C35.3134 35.283 34.4315 35.4421 33.5408 35.4398Z" fill="#CAD6DD"/>
<path d="M33.5408 35.4398C33.187 35.4399 32.8336 35.4144 32.4841 35.3637C31.9773 35.2892 31.4832 35.1519 31.0166 34.9555C31.1865 33.3718 30.6196 31.7961 30.1658 30.2376L29.9507 29.4882L37.6406 31.3829L32.0071 26.2158L32.8223 26.0154C34.5184 25.5977 36.2903 25.2596 37.6997 24.333C38.1056 24.5972 38.4719 24.9092 38.7892 25.2611L38.7892 25.2635C38.7978 25.2734 38.807 25.2828 38.815 25.2927C39.6228 26.2067 40.1318 27.3122 40.2828 28.481C40.4338 29.6498 40.2208 30.834 39.6683 31.8961C39.1159 32.9583 38.2468 33.8549 37.1617 34.4819C36.0767 35.109 34.8202 35.4407 33.538 35.4388" fill="#CAD6DD"/>
<path d="M31.0166 34.9589C31.0166 34.9589 31.0166 34.9598 31.0166 34.9555V34.9589Z" fill="#A9BBC5"/>
<path d="M31.0157 34.9584C29.4358 34.3023 28.2313 33.0628 26.9885 31.9224L26.3916 31.375L27.1445 28.7976L29.9494 29.4887L30.1645 30.2381C30.6178 31.7956 31.1871 33.3718 31.0166 34.9555C31.0166 34.9555 31.0157 34.9574 31.0157 34.9584Z" fill="#A9BBC5"/>
<path d="M11.0277 31.3829L16.6604 26.2158L19.4696 26.907C19.2187 27.7672 18.9686 28.6281 18.7177 29.4887L11.0269 31.3824" fill="#A9BBC5"/>
<path d="M18.7177 29.4887C18.9686 28.6281 19.2187 27.7672 19.4696 26.907L21.0883 27.3062C21.2335 27.8032 21.3787 28.2995 21.5236 28.7971L18.7177 29.4887Z" fill="#92A8B4"/>
<path d="M31.0176 13.706V13.703C31.4786 13.5099 31.9659 13.3745 32.4663 13.3007C31.9658 13.3758 31.4786 13.5121 31.0176 13.706Z" fill="#CAD6DD"/>
<path d="M37.7001 24.3295C36.2906 23.4029 34.5181 23.0653 32.8226 22.6471L32.0068 22.4462L37.6382 17.2791C35.0752 17.911 32.5119 18.5424 29.9482 19.1733L30.1633 18.4249C30.6172 16.8669 31.1851 15.2897 31.0146 13.7065C31.4757 13.5127 31.9629 13.3762 32.4633 13.3007H32.4816C33.8368 13.1037 35.2252 13.2885 36.4636 13.8308C37.702 14.3731 38.7322 15.2473 39.4183 16.3381C40.1043 17.4288 40.4139 18.685 40.3063 19.9406C40.1987 21.1963 39.6788 22.3925 38.8154 23.3713C38.8073 23.3812 38.7987 23.3906 38.7895 23.4004C38.4723 23.7526 38.106 24.0649 37.7001 24.3295Z" fill="#CAD6DD"/>
<path d="M32.0068 22.4462L29.1953 21.7547C29.4463 20.8948 29.6973 20.0339 29.9482 19.1733L37.6382 17.2791L32.0068 22.4462Z" fill="#A9BBC5"/>
<path d="M32.0071 26.2158L29.9517 24.3295L32.0064 22.4447L32.8222 22.6457C34.5178 23.0638 36.2902 23.4015 37.6997 24.3281C36.2902 25.2547 34.5183 25.5928 32.8222 26.0104L32.007 26.2109" fill="#A9BBC5"/>
<path d="M29.9517 24.3295L28.7632 23.2385C28.9066 22.7449 29.0511 22.2496 29.1966 21.7526L32.0069 22.4438L29.9517 24.3295Z" fill="#92A8B4"/>
<path d="M37.6381 31.3829L29.9482 29.4882C29.6972 28.6283 29.4463 27.7682 29.1953 26.9079L32.0067 26.2168L37.6381 31.3829Z" fill="#A9BBC5"/>
<path d="M29.9482 29.4882L27.1431 28.7971C27.2883 28.2998 27.4333 27.8027 27.5781 27.3057L29.1953 26.9079C29.4463 27.7682 29.6972 28.6283 29.9482 29.4882Z" fill="#92A8B4"/>
<path d="M29.1953 26.9079L28.7656 25.422L29.9517 24.3295L32.0071 26.2158L29.1958 26.906" fill="#92A8B4"/>
<path d="M28.7631 25.4219C28.6556 25.058 28.5496 24.6943 28.4453 24.331L28.7632 23.2385L29.9521 24.3305L28.7631 25.4219Z" fill="#859BA8"/>
<path d="M27.5781 27.3057L27.8058 26.5263C27.8352 26.4233 27.8652 26.3203 27.8956 26.2173L28.1409 25.9922L28.7631 25.4219L29.1932 26.9079L27.5757 27.3063" fill="#859BA8"/>
<path d="M27.8956 26.2173C28.0792 25.5884 28.2625 24.9592 28.4453 24.331C28.5529 24.693 28.6588 25.057 28.7631 25.4219C28.5556 25.6122 28.3481 25.802 28.1409 25.9922L27.8956 26.2173Z" fill="#7B929F"/>
<path d="M17.6483 13.7055C17.1895 13.5122 16.7046 13.3763 16.2065 13.3012C16.7044 13.3753 17.1893 13.5101 17.6483 13.702V13.7055Z" fill="#CAD6DD"/>
<path d="M10.9631 24.3296C10.5492 24.0585 10.1769 23.7377 9.85596 23.3758C10.1775 23.7381 10.5508 24.059 10.9659 24.3295" fill="#CAD6DD"/>
<path d="M10.9659 24.3295C10.551 24.0597 10.1783 23.7398 9.85657 23.3783L9.85388 23.3748L9.84958 23.3699C8.87093 22.2567 8.33725 20.8694 8.33741 19.4389C8.33563 18.3482 8.64804 17.2765 9.24299 16.3324C9.84138 15.3867 10.6997 14.6018 11.732 14.056C12.7644 13.5103 13.9347 13.2222 15.126 13.2217C15.4791 13.2217 15.8318 13.2475 16.1806 13.2978H16.2048C16.7029 13.3729 17.1878 13.5089 17.6465 13.7022C17.4766 15.2853 18.0434 16.8616 18.4967 18.421L18.715 19.1694C16.1514 18.5382 13.5881 17.9068 11.0251 17.2752L16.6571 22.4423L15.844 22.6467C14.1473 23.0648 12.376 23.402 10.9665 24.3286" fill="#CAD6DD"/>
<path d="M16.6604 26.2158L15.8438 26.0149C14.1482 25.5972 12.3758 25.2591 10.9663 24.3325C12.3758 23.4059 14.1471 23.0692 15.8438 22.6511L16.6596 22.4501L18.7143 24.3295L16.6601 26.2143" fill="#A9BBC5"/>
<path d="M16.6598 22.4457C14.783 20.7232 12.9057 19.001 11.0278 17.2791L18.7178 19.1728C18.9687 20.0334 19.2197 20.8938 19.4706 21.7541L16.6598 22.4457Z" fill="#A9BBC5"/>
<path d="M18.7143 24.3295L16.6597 22.4442L19.4695 21.7531C19.6129 22.2468 19.7573 22.7421 19.9029 23.239L18.7143 24.3295Z" fill="#92A8B4"/>
<path d="M19.4696 26.907L16.6604 26.2158C17.3451 25.5876 18.0296 24.9597 18.7144 24.3315L19.9028 25.4219C19.7594 25.9156 19.6152 26.41 19.4696 26.907Z" fill="#92A8B4"/>
<path d="M21.0883 27.3062L19.4696 26.907C19.613 26.4133 19.7573 25.9189 19.9028 25.4219L20.5259 25.9922L20.7711 26.2178L20.8614 26.5263C20.9367 26.7863 21.0123 27.0462 21.0883 27.3062Z" fill="#859BA8"/>
<path d="M19.9028 25.4219L18.7143 24.3295L19.9029 23.239L20.2206 24.3295L19.9028 25.42" fill="#859BA8"/>
<path d="M20.7711 26.2178L20.5259 25.9922L19.9028 25.4219L20.2206 24.331C20.4046 24.9599 20.5883 25.5889 20.7711 26.2178Z" fill="#7B929F"/>
<path d="M24.3318 38.4353C23.6471 36.0815 22.9614 33.7284 22.2749 31.376C22.9607 30.7461 23.6467 30.1164 24.3329 29.4868L26.3914 31.376C25.7045 33.7291 25.018 36.0822 24.3318 38.4353Z" fill="#499973"/>
<path d="M22.2748 31.375C22.0239 30.516 21.7729 29.6571 21.522 28.7981L23.146 28.3978L24.3291 29.4838C23.6429 30.1134 22.9569 30.7431 22.2711 31.373" fill="#41866A"/>
<path d="M26.3916 31.375L24.3325 29.4857L25.5183 28.3972L27.1431 28.7971L26.39 31.3749" fill="#41866A"/>
<path d="M24.3325 29.4857L23.1504 28.3997L24.3372 28.1075L25.5219 28.3992L24.3361 29.4877" fill="#41866A"/>
<path d="M21.5236 28.7971C21.3802 28.2999 21.2349 27.8032 21.0883 27.3062L22.2752 27.5986L23.146 28.3978L21.5236 28.7971Z" fill="#377261"/>
<path d="M23.1471 28.3978L22.2752 27.5986L24.3339 28.1055L23.1471 28.3978Z" fill="#377261"/>
<path d="M17.6483 13.702C17.6972 13.2333 17.8163 12.7733 17.9997 12.3336C17.8164 12.7728 17.698 13.2329 17.6489 13.7011" fill="#A2B4BF"/>
<path d="M26.3913 17.288C25.7044 14.9342 25.0178 12.5812 24.3316 10.2287C23.6465 12.5821 22.9609 14.9352 22.2747 17.288L21.6778 16.7405C20.4351 15.5997 19.2309 14.3571 17.6483 13.702C17.6974 13.2338 17.816 12.7743 17.9995 12.3352C18.4934 11.1607 19.3621 10.1505 20.492 9.43698C21.6219 8.72347 22.9602 8.33991 24.3316 8.33654H24.3419C25.7122 8.3398 27.0495 8.72343 28.178 9.43705C29.3066 10.1507 30.1736 11.1609 30.6654 12.3352C30.6655 12.337 30.6655 12.3388 30.6654 12.3406C30.8481 12.7782 30.9655 13.2365 31.0144 13.7031C29.4339 14.3596 28.2288 15.6002 26.986 16.7405L26.3891 17.288" fill="#A0CC8B"/>
<path d="M24.3334 19.1758L22.2747 17.288C22.9609 14.9352 23.6465 12.5821 24.3316 10.2287C25.0182 12.5821 25.7047 14.9352 26.3913 17.288L24.3334 19.1758Z" fill="#69A973"/>
<path d="M27.1425 19.864C26.8916 19.0057 26.6401 18.147 26.3891 17.288L26.986 16.7405C28.2288 15.6002 29.4339 14.3596 31.0144 13.7031L31.0146 13.7065C31.1845 15.2897 30.6167 16.8659 30.1633 18.4249L29.9482 19.1733L27.1425 19.864Z" fill="#69A973"/>
<path d="M29.1952 21.7536L27.5771 21.3552C27.4337 20.8583 27.2891 20.3612 27.1425 19.864L29.9482 19.1733C29.6973 20.0339 29.4462 20.8936 29.1952 21.7536Z" fill="#568B69"/>
<path d="M25.5203 20.2638L24.3335 19.1778L26.3915 17.29C26.6425 18.1483 26.8934 19.007 27.1444 19.8659L25.5219 20.2658" fill="#568B69"/>
<path d="M27.5771 21.3552L26.3912 21.063L25.5203 20.2638L27.1425 19.864C27.2859 20.3612 27.4305 20.8583 27.5771 21.3552Z" fill="#386756"/>
<path d="M28.7629 23.2395C28.556 23.0493 28.3488 22.8591 28.1412 22.6689L27.8944 22.4428C27.8648 22.3401 27.8347 22.2379 27.8051 22.1352L27.5771 21.3552L29.1952 21.7536C29.0518 22.2472 28.9089 22.7426 28.7655 23.2395" fill="#386756"/>
<path d="M27.8944 22.4428L26.3912 21.063L27.5771 21.3552L27.8051 22.1352C27.8347 22.2379 27.8648 22.3401 27.8944 22.4428Z" fill="#376954"/>
<path d="M21.5231 19.864L18.7178 19.1728L18.4987 18.4245C18.0454 16.8665 17.4767 15.2886 17.6483 13.7055V13.702C19.2293 14.3581 20.435 15.6002 21.6778 16.7405L22.2747 17.288L21.5214 19.8635" fill="#69A973"/>
<path d="M23.1465 20.2642L21.5231 19.864L22.2758 17.2874L24.3334 19.1758L23.1475 20.2642" fill="#568B69"/>
<path d="M27.1431 28.7971L25.5183 28.3972L26.3881 27.5996L27.5781 27.3057C27.4333 27.8027 27.2883 28.2998 27.1431 28.7971Z" fill="#377261"/>
<path d="M25.5183 28.3972L24.3339 28.1055L26.3881 27.5996L25.5183 28.3972Z" fill="#377261"/>
<path d="M19.4695 21.7531C19.2185 20.8925 18.9673 20.033 18.7163 19.1728L21.5231 19.864C21.3797 20.3613 21.2341 20.8582 21.0878 21.3552L19.4686 21.7541" fill="#568B69"/>
<path d="M19.9029 23.2405C19.7595 22.7449 19.6161 22.2494 19.4727 21.7541L21.0913 21.3553L20.8638 22.1352L20.7735 22.4438L20.5283 22.6694L19.9056 23.2405" fill="#386756"/>
<path d="M21.0878 21.3552C21.2312 20.8582 21.3768 20.3613 21.5231 19.864L23.1465 20.2642L22.2753 21.063L21.0878 21.3552Z" fill="#386756"/>
<path d="M20.7706 22.4439L20.8609 22.1353L21.0878 21.3552L22.2753 21.063L20.77 22.4453" fill="#376954"/>
<path d="M22.2752 27.5986L21.0883 27.3062C21.0123 27.0462 20.9367 26.7863 20.8614 26.5263L20.7711 26.2178L22.2762 27.6" fill="#377261"/>
<path d="M24.3328 20.5566L23.1465 20.2642C23.5408 19.9022 23.9366 19.5395 24.3334 19.1758L25.5201 20.2619L24.3328 20.5546" fill="#386756"/>
<path d="M26.3912 21.063L24.3328 20.5566L25.5203 20.2638L26.3912 21.063Z" fill="#376954"/>
<path d="M20.2206 24.3295L19.9029 23.239L20.5256 22.6679L20.7708 22.4423L20.2206 24.3295Z" fill="#376954"/>
<path d="M28.4452 24.3296C28.2613 23.7003 28.0777 23.0709 27.8945 22.4413L28.1414 22.6674C28.3482 22.858 28.5556 23.0487 28.7632 23.2385L28.4452 24.3296Z" fill="#376954"/>
<path d="M22.2753 21.063L23.1465 20.2642L24.3328 20.5566L22.2753 21.063Z" fill="#376954"/>
<path d="M26.3881 27.5996L27.8935 26.2172C27.8634 26.3199 27.8335 26.4229 27.8037 26.5263L27.5757 27.3063L26.3862 27.5995" fill="#377261"/>
<path d="M24.3339 28.1055L22.2752 27.5986L20.7693 26.2163L20.2206 24.3295L20.7708 22.4423L22.2761 21.0601L24.333 20.5536L26.3915 21.0601L27.8945 22.4398C28.0781 23.0694 28.2616 23.6988 28.4452 24.3281L27.8956 26.2143L26.3899 27.5965L24.3357 28.1025" fill="#356857"/>
</svg>
