<svg width="50" height="50" viewBox="0 0 50 50" fill="none" xmlns="http://www.w3.org/2000/svg">
<path d="M38.3664 24.9974C38.7862 24.7246 39.1637 24.4007 39.4884 24.0346C40.3532 23.0558 40.8742 21.8592 40.9824 20.6029C41.0907 19.3466 40.7811 18.0897 40.0947 16.9983C39.4083 15.9069 38.3773 15.0323 37.1379 14.4903C35.8986 13.9482 34.5092 13.764 33.1535 13.9622C32.6461 14.0368 32.1521 14.1743 31.6851 14.371C31.6368 13.9012 31.5187 13.4397 31.3339 12.9994C30.8433 11.8223 29.9751 10.8097 28.8442 10.0953C27.7132 9.38089 26.3727 8.99841 24.9998 8.99841C23.6269 8.99841 22.2864 9.38089 21.1554 10.0953C20.0244 10.8097 19.1563 11.8223 18.6657 12.9994C18.4816 13.4397 18.3636 13.901 18.315 14.3705C17.8483 14.1738 17.3547 14.0363 16.8477 13.9617C15.492 13.7635 14.1026 13.9477 12.8632 14.4898C11.6239 15.0318 10.5929 15.9064 9.90647 16.9978C9.22004 18.0892 8.91051 19.3461 9.01877 20.6024C9.12703 21.8587 9.64799 23.0553 10.5128 24.0341C10.8373 24.4004 11.2146 24.7244 11.6342 24.9974C11.2146 25.2701 10.8373 25.594 10.5128 25.9602C9.64793 26.9389 9.12694 28.1356 9.01868 29.392C8.91043 30.6483 9.22001 31.9053 9.90651 32.9967C10.593 34.0882 11.6241 34.9627 12.8636 35.5047C14.103 36.0467 15.4924 36.2308 16.8483 36.0325C17.3551 35.958 17.8486 35.8205 18.315 35.6237C18.3636 36.0937 18.4816 36.5555 18.6657 36.9963C19.6726 39.3979 22.1951 41.0025 24.999 40.9991C26.3715 40.9957 27.7109 40.6116 28.8414 39.8971C29.9719 39.1826 30.8407 38.1711 31.3339 36.9953C31.5182 36.5545 31.6363 36.0927 31.6851 35.6227C32.152 35.8196 32.6461 35.9572 33.1535 36.0315C34.5092 36.2297 35.8986 36.0455 37.1379 35.5035C38.3773 34.9614 39.4083 34.0868 40.0947 32.9954C40.7811 31.904 41.0907 30.6471 40.9824 29.3908C40.8742 28.1345 40.3532 26.9379 39.4884 25.9592C39.1637 25.593 38.7862 25.2701 38.3664 24.9974Z" fill="white"/>
<path d="M10.5244 25.9478C10.8444 25.5871 11.2156 25.2674 11.6281 24.9973H11.6313C11.2179 25.2664 10.8457 25.585 10.5244 25.9448" fill="#CAD6DD"/>
<path d="M16.8604 36.032C17.3622 35.9568 17.8506 35.8199 18.3126 35.6251V35.6286C17.8503 35.8219 17.3619 35.9576 16.8604 36.032Z" fill="#CAD6DD"/>
<path d="M15.7922 36.1095C14.6005 36.1093 13.4298 35.8218 12.3971 35.276C11.3644 34.7301 10.5059 33.9449 9.90748 32.9989C9.31215 32.0554 8.99912 30.9841 9.00011 29.8938C8.99993 28.4632 9.53373 27.0757 10.5126 25.9626L10.5169 25.9576V25.9552L10.5206 25.9516C10.8419 25.5919 11.2136 25.2733 11.627 25.0042C13.0362 25.9315 14.809 26.2692 16.5054 26.6869L17.3213 26.8878L11.6926 32.0519L19.384 30.1574C19.3123 30.4072 19.2395 30.6569 19.1657 30.9064C18.7123 32.4637 18.1437 34.0412 18.3153 35.6251C17.8533 35.8199 17.3649 35.9568 16.8631 36.032H16.8604H16.8507C16.5015 36.0827 16.1485 36.1081 15.7949 36.108" fill="#CAD6DD"/>
<path d="M24.9901 41C22.1895 41 19.6715 39.3954 18.6657 36.9963C18.6657 36.9963 18.6655 36.9938 18.6655 36.9918C18.6652 36.9908 18.6652 36.9898 18.6655 36.9888C18.6654 36.9879 18.6654 36.9869 18.6655 36.9859C18.6655 36.9859 18.6655 36.9859 18.6655 36.9829V36.975C18.4884 36.5434 18.3742 36.0921 18.3261 35.633C19.9063 34.9768 21.1116 33.7371 22.3562 32.5965L22.9527 32.0489C23.639 34.4025 24.325 36.756 25.0106 39.1095C25.6969 36.7553 26.3834 34.4018 27.0701 32.0489L27.6671 32.5965C28.9101 33.7371 30.1154 34.9768 31.6956 35.633C31.6475 36.0981 31.531 36.555 31.3493 36.9913C31.3495 36.9928 31.3495 36.9943 31.3493 36.9958C31.3493 36.9958 31.3493 36.9992 31.3493 37.0012C30.8559 38.1768 29.987 39.1881 28.8565 39.9024C27.726 40.6167 26.3867 41.0007 25.0143 41.004H25.0057" fill="#CAD6DD"/>
<path d="M18.3148 35.628L18.315 35.6237C18.145 34.0398 18.7123 32.4652 19.1657 30.9064C19.2374 30.6566 19.3102 30.4069 19.384 30.1574L22.19 29.4657L22.9431 32.043L22.3466 32.5906C21.102 33.7311 19.8966 34.9709 18.3164 35.6271" fill="#A9BBC5"/>
<path d="M39.4591 25.929C39.1417 25.5771 38.7754 25.265 38.3694 25.0008H38.3727C38.7776 25.2658 39.1429 25.5786 39.4591 25.931" fill="#CAD6DD"/>
<path d="M34.2096 36.1095C33.8559 36.1096 33.5027 36.0842 33.1533 36.0335C32.6461 35.9601 32.1516 35.8234 31.6844 35.6281L31.6849 35.6251C32.1518 35.8217 32.6461 35.959 33.1533 36.0335C34.1212 36.176 35.1108 36.1239 36.0547 35.8808C36.9986 35.6376 37.8737 35.2092 38.6196 34.6252C39.3655 34.0412 39.9643 33.3155 40.3748 32.4983C40.7852 31.681 40.9975 30.7917 40.9969 29.8918C40.9975 30.7096 40.8223 31.5194 40.4812 32.275C40.1401 33.0305 39.6399 33.7167 39.0093 34.2944C38.3787 34.8721 37.6301 35.3297 36.8063 35.6412C35.9826 35.9527 35.1005 36.1118 34.2096 36.1095Z" fill="#CAD6DD"/>
<path d="M34.2096 36.1095C33.8559 36.1096 33.5027 36.0842 33.1533 36.0335C32.6461 35.959 32.1518 35.8217 31.6849 35.6251C31.8549 34.0412 31.288 32.4651 30.834 30.9064L30.6162 30.1569L38.3076 32.0519L32.6756 26.8839L33.491 26.6834C35.1875 26.2657 36.9597 25.9275 38.3694 25.0008C38.7754 25.265 39.1417 25.5771 39.4591 25.929V25.931L39.4855 25.9606C40.2935 26.8748 40.8025 27.9806 40.9536 29.1496C41.1046 30.3187 40.8915 31.5031 40.3389 32.5655C39.7863 33.6278 38.9169 34.5246 37.8315 35.1517C36.7462 35.7788 35.4894 36.1105 34.2069 36.1085" fill="#CAD6DD"/>
<path d="M31.6844 35.6281C30.1041 34.9719 28.8988 33.7321 27.6558 32.5916L27.0588 32.044L27.8118 29.4662L30.6172 30.1574C30.6889 30.4072 30.7617 30.6571 30.8356 30.9069C31.289 32.4647 31.8575 34.0417 31.6865 35.6256C31.6868 35.6267 31.6868 35.6279 31.6865 35.629" fill="#A9BBC5"/>
<path d="M11.6926 32.0519L17.3256 26.8839L20.136 27.5752C19.885 28.4356 19.634 29.2962 19.383 30.1569L11.6916 32.0514" fill="#A9BBC5"/>
<path d="M19.383 30.1569C19.634 29.2962 19.885 28.4356 20.136 27.5752L21.7544 27.9746C21.8978 28.4716 22.0429 28.969 22.1895 29.4667L19.383 30.1569Z" fill="#92A8B4"/>
<path d="M31.686 14.3719V14.369C32.1471 14.1758 32.6345 14.0405 33.135 13.9666C32.6346 14.0416 32.1469 14.178 31.686 14.3719Z" fill="#CAD6DD"/>
<path d="M38.3727 24.9973H38.3694C38.7756 24.7331 39.142 24.4208 39.4591 24.0686C39.1431 24.4213 38.7778 24.7342 38.3727 24.9993" fill="#CAD6DD"/>
<path d="M38.3694 24.9973C36.9597 24.0705 35.1869 23.7328 33.491 23.3146L32.6751 23.1137L38.3081 17.9457C35.7443 18.5777 33.1805 19.2092 30.6167 19.8402L30.8345 19.0916C31.2885 17.5334 31.8559 15.9554 31.686 14.3719C32.1469 14.178 32.6346 14.0416 33.135 13.9666L33.1538 13.9666C34.5092 13.7695 35.8979 13.9544 37.1365 14.4967C38.3752 15.0391 39.4055 15.9134 40.0917 17.0044C40.7779 18.0954 41.0876 19.3517 40.9799 20.6076C40.8722 21.8635 40.3523 23.0599 39.4887 24.0389L39.4623 24.0681C39.1441 24.4206 38.7767 24.733 38.3694 24.9973Z" fill="#CAD6DD"/>
<path d="M32.6751 23.1137L29.8642 22.4219L30.6167 19.8402L38.3081 17.9457L32.6751 23.1137Z" fill="#A9BBC5"/>
<path d="M32.6756 26.8839L30.6205 24.9973L32.6751 23.1122L33.491 23.3131C35.1874 23.7313 36.9597 24.0691 38.3694 24.9958C36.9597 25.9226 35.1874 26.2608 33.491 26.6785L32.6756 26.879" fill="#A9BBC5"/>
<path d="M30.6205 24.9973L29.4307 23.9061C29.5742 23.4124 29.7187 22.917 29.8642 22.42L32.6751 23.1122L30.6205 24.9973Z" fill="#92A8B4"/>
<path d="M38.3076 32.0519L30.6162 30.1569C30.3652 29.2968 30.1147 28.4366 29.8637 27.5761L32.6756 26.8839L38.3081 32.0529" fill="#A9BBC5"/>
<path d="M30.6162 30.1569L27.8107 29.4657C27.9559 28.9683 28.1009 28.4711 28.2458 27.9741L29.8637 27.5761C30.1147 28.4366 30.3652 29.2968 30.6162 30.1569Z" fill="#92A8B4"/>
<path d="M29.8637 27.5761L29.4334 26.09L30.6205 24.9973L32.6756 26.8839L29.8637 27.5742" fill="#92A8B4"/>
<path d="M29.4307 26.09L29.1129 24.9973L29.4307 23.9061L30.6205 24.9973L29.4307 26.0885" fill="#859BA8"/>
<path d="M28.2458 27.9741L28.4733 27.1945C28.5035 27.0914 28.5334 26.9884 28.5632 26.8854L29.4307 26.09L29.861 27.5761L28.2431 27.9746" fill="#859BA8"/>
<path d="M28.5632 26.8854C28.7464 26.2563 28.9296 25.6276 29.1129 24.9993C29.2204 25.3614 29.3264 25.7249 29.4307 26.09L28.5632 26.8854Z" fill="#7B929F"/>
<path d="M18.3142 14.3715C17.8555 14.1782 17.3708 14.0422 16.8728 13.9671C17.3707 14.0413 17.8556 14.1761 18.3148 14.368C18.3145 14.3691 18.314 14.3703 18.3142 14.3715Z" fill="#CAD6DD"/>
<path d="M11.6281 24.9973C11.2141 24.7262 10.8417 24.4054 10.5206 24.0434C10.8424 24.4058 11.216 24.7267 11.6313 24.9973H11.6281Z" fill="#CAD6DD"/>
<path d="M11.6313 24.9973C11.2162 24.7275 10.8425 24.4074 10.5205 24.0459L10.5179 24.0424L10.5136 24.0375C9.53494 22.924 9.00118 21.5365 9.00109 20.1058C8.9993 19.0149 9.31141 17.9421 9.90647 16.9978C10.5051 16.052 11.3641 15.2678 12.3967 14.722C13.4294 14.1762 14.5995 13.8881 15.7911 13.8876C16.1443 13.8875 16.4974 13.9133 16.8463 13.9636H16.8705C17.3685 14.0388 17.8533 14.1748 18.312 14.368C18.142 15.9514 18.7089 17.528 19.1624 19.0877C19.2341 19.3372 19.3069 19.5867 19.3807 19.8362C16.8173 19.2049 14.2535 18.5734 11.6893 17.9417L17.3256 23.1132L16.5091 23.3141C14.8121 23.7323 13.0405 24.0705 11.6313 24.9973Z" fill="#CAD6DD"/>
<path d="M17.3256 26.8839L16.5097 26.683C14.8133 26.2653 13.0403 25.927 11.6306 25.0002C13.0398 24.0735 14.8122 23.7368 16.5092 23.3186L17.3251 23.1176L19.3803 24.9973L17.3256 26.8824" fill="#A9BBC5"/>
<path d="M17.3256 23.1132L11.6921 17.9457L19.3835 19.8397C19.6345 20.7004 19.8855 21.561 20.1365 22.4214L17.3256 23.1132Z" fill="#A9BBC5"/>
<path d="M19.3803 24.9973L17.3256 23.1117L20.136 22.4205C20.2794 22.9142 20.4239 23.4096 20.5695 23.9066L19.3803 24.9973Z" fill="#92A8B4"/>
<path d="M20.136 27.5752L17.3256 26.8839L19.3803 24.9973L20.5689 26.088L20.1387 27.5742" fill="#92A8B4"/>
<path d="M21.7544 27.9746L20.136 27.5752L20.5663 26.0895L21.4349 26.8859C21.4645 26.9886 21.4946 27.0918 21.5247 27.1945C21.6007 27.4545 21.6764 27.7145 21.7517 27.9746" fill="#859BA8"/>
<path d="M20.5695 26.0895L19.3803 24.9973L20.5695 23.9066C20.6749 24.2687 20.7809 24.6323 20.8874 24.9973C20.7798 25.3594 20.6733 25.7229 20.5689 26.088" fill="#859BA8"/>
<path d="M21.4376 26.8859L21.1918 26.6607L20.5695 26.0895C20.6771 25.7254 20.7826 25.3618 20.8874 24.9988C21.0709 25.6278 21.2544 26.2568 21.4376 26.8859Z" fill="#7B929F"/>
<path d="M24.9993 39.1055C24.3141 36.7514 23.6281 34.3978 22.9414 32.045C23.6274 31.415 24.3135 30.7851 24.9998 30.1554L27.0588 32.045C26.3721 34.3985 25.6856 36.752 24.9993 39.1055Z" fill="#8097A4"/>
<path d="M22.9414 32.045L22.1884 29.4667L23.8128 29.0663L24.9961 30.1525C24.3097 30.7822 23.6236 31.412 22.9377 32.0421" fill="#6A8391"/>
<path d="M27.0588 32.045L24.9998 30.1554L26.1831 29.0657L27.808 29.4662L27.055 32.044" fill="#6A8391"/>
<path d="M24.9998 30.1554L23.8165 29.0682L25.0036 28.776L26.1869 29.0658L25.0036 30.1545" fill="#5B7886"/>
<path d="M22.19 29.4657C22.0466 28.9683 21.9007 28.4716 21.7544 27.9746L22.9425 28.2669L23.8139 29.0662L22.19 29.4657Z" fill="#5B7886"/>
<path d="M23.8139 29.0662L22.9425 28.2669L25.0036 28.774L23.8165 29.0663" fill="#52707F"/>
<path d="M18.3148 14.368C18.3633 13.8992 18.4819 13.4391 18.6657 12.9994C18.482 13.4386 18.364 13.8987 18.3153 14.367" fill="#A2B4BF"/>
<path d="M31.6849 14.369C31.6362 13.9024 31.5189 13.444 31.3364 13.0063C31.5192 13.444 31.6371 13.9024 31.686 14.369" fill="#A2B4BF"/>
<path d="M27.0588 17.9545C26.3724 15.6004 25.6858 13.2469 24.9988 10.894C24.3139 13.2479 23.6281 15.6014 22.9414 17.9545L22.3449 17.407C21.1014 16.2659 19.8934 15.0232 18.3148 14.368C18.3633 13.8992 18.4819 13.4391 18.6657 12.9994C19.1597 11.8246 20.0285 10.8142 21.1587 10.1006C22.2889 9.38697 23.6275 9.00336 24.9993 9.00002H25.009C26.3796 9.00328 27.7171 9.38698 28.8459 10.1007C29.9746 10.8145 30.8421 11.825 31.3339 12.9994C31.3338 13.0012 31.3336 13.003 31.3337 13.0048C31.5162 13.4425 31.6335 13.9009 31.6822 14.3675C30.1014 15.0242 28.8961 16.265 27.6531 17.4055L27.0561 17.9531" fill="#A2B4BF"/>
<path d="M25.0004 19.8426L22.9414 17.9545C23.6281 15.6014 24.3139 13.2479 24.9988 10.894C25.6854 13.2479 26.3721 15.6014 27.0588 17.9545L25.0004 19.8426Z" fill="#8097A4"/>
<path d="M27.8101 20.5309C27.5591 19.6724 27.3081 18.8137 27.0571 17.9545L27.6541 17.407C28.8972 16.2664 30.1025 15.0257 31.6833 14.369V14.3724C31.8532 15.9559 31.2853 17.5324 30.8318 19.0916C30.7601 19.3411 30.6873 19.5906 30.6135 19.8402L27.8074 20.5314" fill="#8097A4"/>
<path d="M29.8642 22.4219L28.2453 22.0225C28.1001 21.5255 27.955 21.0283 27.8101 20.5309L30.6167 19.8402L29.8632 22.421" fill="#6A8391"/>
<path d="M26.1869 20.9308L24.9998 19.8446L27.0582 17.9565C27.3092 18.815 27.5602 19.6738 27.8112 20.5329L26.1885 20.9328" fill="#6A8391"/>
<path d="M28.2453 22.0225L27.0588 21.7302L26.1869 20.9308L27.8101 20.5309C27.9536 21.0283 28.0986 21.5255 28.2453 22.0225Z" fill="#5B7886"/>
<path d="M29.4307 23.9061C29.2238 23.7159 29.0166 23.5266 28.809 23.3363L28.5621 23.1102C28.5325 23.0075 28.5024 22.9053 28.4728 22.8026L28.2453 22.0225L29.8642 22.4219C29.7208 22.9157 29.5763 23.4091 29.4307 23.9061Z" fill="#5B7886"/>
<path d="M28.5621 23.1102L27.0561 21.7302L28.2426 22.0225L28.4701 22.8026C28.4997 22.9053 28.5298 23.0075 28.5594 23.1102" fill="#52707F"/>
<path d="M18.3148 14.368C18.3145 14.3691 18.314 14.3703 18.3142 14.3715L18.3148 14.368Z" fill="#8198A5"/>
<path d="M22.1901 20.5309L19.3835 19.8397C19.3118 19.5905 19.2385 19.341 19.1646 19.0911C18.7112 17.5329 18.1426 15.9549 18.3142 14.3715C18.314 14.3703 18.3145 14.3691 18.3148 14.368C19.8955 15.0242 21.1004 16.2655 22.3434 17.406L22.9404 17.9536C22.6894 18.8127 22.4384 19.6716 22.1874 20.5304" fill="#8097A4"/>
<path d="M23.8133 20.9313L22.1901 20.5309C22.4411 19.6724 22.692 18.8135 22.943 17.9541L25.002 19.8426L23.8149 20.9313" fill="#6A8391"/>
<path d="M27.8107 29.4657L26.1869 29.0658L27.0566 28.2679L28.2469 27.9746C28.1035 28.4716 27.9584 28.9688 27.8118 29.4662" fill="#5B7886"/>
<path d="M26.1869 29.0658L25.002 28.774L27.0566 28.2679L26.1869 29.0658Z" fill="#52707F"/>
<path d="M20.1365 22.4214C19.8855 21.561 19.6345 20.7004 19.3835 19.8397L22.1901 20.5309C22.0448 21.0283 21.8998 21.5255 21.7549 22.0225L20.1365 22.4214Z" fill="#6A8391"/>
<path d="M20.5695 23.9081C20.426 23.4124 20.2815 22.9158 20.136 22.4205L21.7549 22.0225L21.5274 22.8026C21.4973 22.9053 21.4672 23.0085 21.4376 23.1112L21.1918 23.3368C20.9842 23.5274 20.7767 23.7178 20.5695 23.9081Z" fill="#5B7886"/>
<path d="M21.7549 22.0225C21.8998 21.5255 22.0448 21.0283 22.1901 20.5309L23.8133 20.9313L22.9425 21.7302L21.7549 22.0225Z" fill="#5B7886"/>
<path d="M21.4376 23.1112C21.4672 23.0085 21.4973 22.9053 21.5274 22.8026L21.7549 22.0225L22.9425 21.7302L21.4365 23.1127" fill="#52707F"/>
<path d="M22.9425 28.2669L21.7544 27.9746C21.6791 27.7149 21.6034 27.4548 21.5274 27.1945C21.4973 27.0918 21.4672 26.9886 21.4376 26.8859L22.9436 28.2683" fill="#52707F"/>
<path d="M24.9999 21.2236L23.8133 20.9313L25.0004 19.8426L26.1875 20.9289L24.9999 21.2217" fill="#5B7886"/>
<path d="M27.0588 21.7302L24.9999 21.2236L26.1869 20.9308L27.0588 21.7302Z" fill="#52707F"/>
<path d="M20.8874 24.9973L20.5695 23.9066L21.4376 23.1097C21.2536 23.7394 21.0702 24.3686 20.8874 24.9973Z" fill="#52707F"/>
<path d="M29.1129 24.9973C28.9293 24.368 28.7457 23.7384 28.5621 23.1087L28.809 23.3349C29.0159 23.5255 29.2231 23.7162 29.4307 23.9061L29.1129 24.9973Z" fill="#52707F"/>
<path d="M22.9425 21.7302L23.8133 20.9313L24.9999 21.2236L22.9425 21.7302Z" fill="#52707F"/>
<path d="M27.0555 28.2679L28.5616 26.8854C28.5318 26.9881 28.5018 27.0911 28.4717 27.1945L28.2442 27.9746L27.0539 28.2679" fill="#52707F"/>
<path d="M25.0036 28.774L22.9452 28.2669L21.4392 26.8844C21.2553 26.2554 21.0719 25.6263 20.889 24.9973C21.0726 24.368 21.256 23.7388 21.4392 23.1097L22.9452 21.7273L25.0025 21.2207L27.0615 21.7273L28.5675 23.1073C28.7507 23.737 28.9343 24.3665 29.1182 24.9958L28.5686 26.8824L27.0625 28.2649L25.0036 28.774Z" fill="#4B6A79"/>
</svg>
