<svg width="50" height="50" viewBox="0 0 50 50" fill="none" xmlns="http://www.w3.org/2000/svg">
<path d="M41.6666 24.9999C41.6666 34.2048 34.2049 41.6666 25 41.6666C15.7959 41.6666 8.33331 34.2048 8.33331 24.9999C8.33331 15.795 15.7959 8.33325 25 8.33325C34.2049 8.33325 41.6666 15.795 41.6666 24.9999Z" fill="#F05223"/>
<path d="M25.0003 9.85816C16.6506 9.85816 9.85883 16.6509 9.85883 24.9997C9.85883 33.3493 16.6506 40.1411 25.0003 40.1411C33.349 40.1411 40.1418 33.3493 40.1418 24.9997C40.1418 16.6509 33.349 9.85816 25.0003 9.85816ZM25.0003 40.669C16.3602 40.669 9.33192 33.6397 9.33192 24.9997C9.33192 16.3605 16.3602 9.33124 25.0003 9.33124C33.6403 9.33124 40.6687 16.3605 40.6687 24.9997C40.6687 33.6397 33.6403 40.669 25.0003 40.669Z" fill="white"/>
<path d="M30.9772 33.6928C30.3373 33.6928 29.8166 33.172 29.8166 32.5321C29.8166 31.8922 30.3373 31.3714 30.9772 31.3714C31.6171 31.3714 32.1379 31.8922 32.1379 32.5321C32.1379 33.172 31.6171 33.6928 30.9772 33.6928ZM20.0926 18.0526C19.4527 18.0526 18.932 17.5318 18.932 16.8928C18.932 16.252 19.4527 15.7322 20.0926 15.7322C20.7326 15.7322 21.2533 16.252 21.2533 16.8928C21.2533 17.5318 20.7326 18.0526 20.0926 18.0526ZM21.2533 32.5321C21.2533 33.172 20.7326 33.6928 20.0926 33.6928C19.4527 33.6928 18.932 33.172 18.932 32.5321C18.932 31.8922 19.4527 31.3714 20.0926 31.3714C20.7326 31.3714 21.2533 31.8922 21.2533 32.5321ZM30.9772 15.7322C31.6171 15.7322 32.1379 16.252 32.1379 16.8928C32.1379 17.5318 31.6171 18.0526 30.9772 18.0526C30.3373 18.0526 29.8166 17.5318 29.8166 16.8928C29.8166 16.252 30.3373 15.7322 30.9772 15.7322ZM30.9772 30.1137C30.6692 30.1137 30.3753 30.1737 30.1034 30.2796L25.4229 24.7085L30.1026 19.1444C30.3744 19.2503 30.6683 19.3112 30.9772 19.3112C32.3109 19.3112 33.3956 18.2256 33.3956 16.8928C33.3956 15.5592 32.3109 14.4735 30.9772 14.4735C29.6436 14.4735 28.5588 15.5592 28.5588 16.8928C28.5588 17.3491 28.6887 17.7746 28.9092 18.1391L24.0407 23.9274H20.8729V19.1797C21.8244 18.854 22.5111 17.9529 22.5111 16.8928C22.5111 15.5592 21.4263 14.4735 20.0926 14.4735C18.759 14.4735 17.6743 15.5592 17.6743 16.8928C17.6743 17.9529 18.3609 18.854 19.3124 19.1797V30.2452C18.3609 30.5709 17.6743 31.4721 17.6743 32.5321C17.6743 33.8658 18.759 34.9505 20.0926 34.9505C21.4263 34.9505 22.5111 33.8658 22.5111 32.5321C22.5111 31.4721 21.8244 30.5709 20.8729 30.2452V25.4887H24.0398L28.9092 31.2841C28.6886 31.6486 28.5588 32.0749 28.5588 32.5321C28.5588 33.8658 29.6436 34.9505 30.9772 34.9505C32.3109 34.9505 33.3956 33.8658 33.3956 32.5321C33.3956 31.1985 32.3109 30.1137 30.9772 30.1137Z" fill="white"/>
</svg>
