<svg width="50" height="50" viewBox="0 0 50 50" fill="none" xmlns="http://www.w3.org/2000/svg">
<path d="M21.3276 22.917L21.116 22.6307C19.7082 20.7611 15.1175 15.0259 11.1832 13.9774C11.0968 13.9578 11.0105 13.9409 10.9241 13.9269C10.3843 13.8494 9.83409 13.9672 9.3776 14.2581C8.92067 14.549 8.58906 14.9929 8.44528 15.5059C8.28805 16.1592 8.29669 16.8401 8.47118 17.4892C8.94624 19.5062 10.6305 21.8517 13.1698 23.157L14.3142 23.7213C14.0831 23.7732 13.8555 23.8379 13.6319 23.915C13.3771 24.0015 13.1313 24.1115 12.8977 24.2434C12.6218 24.4008 12.4101 24.647 12.3 24.9397C12.1894 25.2325 12.1873 25.5535 12.2931 25.8477C12.3199 25.9321 12.3575 26.0128 12.4054 26.0877C12.8372 26.8078 13.9169 27.3804 15.2082 27.5699C17.4538 27.8942 20.3343 27.052 21.578 23.7507L21.686 23.376L21.3276 22.917Z" fill="url(#paint0_linear_9176_13319)"/>
<path d="M27.284 22.9023L27.4955 22.6159C28.9034 20.7463 33.4941 15.0112 37.4282 13.9627C37.5147 13.943 37.601 13.9262 37.6874 13.9122C38.2273 13.8346 38.7774 13.9525 39.2339 14.2434C39.6908 14.5343 40.0225 14.9782 40.1663 15.4912C40.3237 16.1445 40.315 16.8254 40.1404 17.4745C39.6653 19.4915 37.9811 21.8369 35.4418 23.1423L34.2973 23.7065C34.5284 23.7585 34.7564 23.8232 34.9796 23.9002C35.2344 23.9868 35.4801 24.0967 35.7138 24.2287C35.9897 24.3861 36.2014 24.6322 36.3115 24.925C36.4221 25.2177 36.4242 25.5387 36.3184 25.8329C36.2916 25.9174 36.254 25.9981 36.2062 26.073C35.7743 26.793 34.6947 27.3657 33.4034 27.5552C31.1577 27.8795 28.2773 27.0373 27.0334 23.736L26.9255 23.3612L27.284 22.9023Z" fill="url(#paint1_linear_9176_13319)"/>
<path d="M27.275 18.6133C27.275 18.8903 27.1872 19.1606 27.0231 19.3868C26.859 19.6131 26.6271 19.7842 26.3594 19.8765L24.3944 20.5502C24.3176 20.5756 24.2338 20.5756 24.1569 20.5502L22.1919 19.8765C21.8871 19.7718 21.6297 19.5652 21.466 19.2933C21.3024 19.0214 21.2427 18.7018 21.2975 18.3911C21.3524 18.0804 21.5182 17.7986 21.7657 17.5958C22.0132 17.3929 22.3262 17.282 22.6497 17.2827H25.9059C26.2691 17.2827 26.6172 17.4233 26.8742 17.6736C27.1307 17.9239 27.275 18.2635 27.275 18.6175" fill="#F79C39"/>
<path d="M24.9248 15.2364L24.277 14.4658L23.625 15.2364L22.5669 14.4658V16.4912H25.9829V14.4658L24.9248 15.2364Z" fill="#F79C39"/>
<path d="M28.8815 29.7806H19.644C19.644 29.8437 19.644 29.9069 19.6656 29.9701C19.736 30.6596 19.8806 31.3398 20.0975 31.9997H28.4021C28.6358 31.2769 28.796 30.5337 28.8815 29.7806Z" fill="#F79C39"/>
<path d="M20.571 33.1071C21.0841 34.1107 21.8757 34.9539 22.8557 35.5409C23.1968 35.7388 23.9136 36.1978 24.3498 36.0968C25.1458 35.9033 25.8847 35.5327 26.5087 35.014C27.1328 34.4953 27.6251 33.8425 27.9472 33.1071H20.571Z" fill="#F79C39"/>
<path d="M28.9633 28.673C28.9633 27.8646 28.7949 27.0393 28.0003 26.6182C27.0545 26.1171 25.7978 26.2308 24.757 26.235C23.3362 26.235 20.5248 25.7929 19.7949 27.4098C19.6308 27.8112 19.5531 28.2412 19.566 28.673H28.9633Z" fill="#F79C39"/>
<path d="M27.3911 23.3592C27.3911 23.9615 27.2075 24.5503 26.8638 25.0508C26.52 25.5513 26.0315 25.9409 25.4602 26.1703C24.8889 26.3997 24.2605 26.4584 23.655 26.339C23.0496 26.2196 22.4942 25.9276 22.0589 25.4999C21.624 25.0721 21.3291 24.5281 21.2116 23.9366C21.0945 23.3452 21.1597 22.7332 21.3999 22.1781C21.64 21.6231 22.0433 21.15 22.5599 20.819C23.0759 20.488 23.6813 20.314 24.299 20.319C24.7084 20.319 25.1134 20.3976 25.4914 20.5505C25.8696 20.7033 26.2129 20.9273 26.5023 21.2097C26.7912 21.4921 27.0206 21.8272 27.1768 22.1961C27.3331 22.5649 27.4131 22.9601 27.4127 23.3592" fill="#F79C39"/>
<defs>
<linearGradient id="paint0_linear_9176_13319" x1="8.29117" y1="13.8652" x2="8.29117" y2="36.1023" gradientUnits="userSpaceOnUse">
<stop stop-color="#F48020"/>
<stop offset="1" stop-color="#F9A61A"/>
</linearGradient>
<linearGradient id="paint1_linear_9176_13319" x1="8.35441" y1="13.8652" x2="8.35441" y2="36.1023" gradientUnits="userSpaceOnUse">
<stop stop-color="#F48020"/>
<stop offset="1" stop-color="#F9A61A"/>
</linearGradient>
</defs>
</svg>
