<svg width="50" height="50" viewBox="0 0 50 50" fill="none" xmlns="http://www.w3.org/2000/svg">
<path d="M20.6415 22.7183C20.6415 22.7183 23.5551 21.0101 28.2395 19.3303C30.7388 18.4478 33.2382 17.9922 35.0234 17.7787C34.0237 17.494 33.0811 17.2378 32.3813 17.0385C30.1533 16.4264 26.9256 15.6719 24.2263 15.2591C24.112 15.9139 23.7836 16.9531 23.0123 18.4478C21.9412 20.5261 20.6415 22.7183 20.6415 22.7183ZM19.3276 25.1098C18.7992 25.2664 17.0282 29.8074 16.1285 32.3128C17.7852 33.4516 19.499 34.4766 21.0986 35.1599C24.2977 36.5549 25.2974 35.9855 27.2826 35.0887C28.7108 34.4623 30.9388 32.9534 32.8811 31.5299C30.5103 30.0067 27.5254 28.1277 25.8116 27.3163C22.6125 25.7931 20.0988 24.8821 19.3276 25.1098ZM22.0697 15.0313C19.6133 14.8605 19.2419 15.4299 18.7563 15.7431C17.4995 16.4264 12.2724 19.5296 9.75875 21.7218C7.35939 23.8002 7.77357 25.1098 8.88755 26.4052C9.8016 27.4586 11.3726 28.7113 13.8434 30.6473C13.9576 30.7327 14.0719 30.8181 14.1861 30.9035C15.1859 28.7113 17.3282 23.971 18.385 21.7503C19.6275 19.1595 21.3271 16.284 22.0697 15.0313ZM43.4926 20.4976C42.6357 20.0563 41.8787 19.8143 41.2075 19.5866C40.8647 19.4869 39.9935 19.2307 38.8938 18.9033C36.9372 19.1595 33.6952 19.6435 30.5675 20.3837C27.3112 21.1524 21.8555 23.8002 21.8555 23.8002C21.8555 23.8002 28.7679 26.0209 35.2234 29.7647C35.4519 29.5939 35.6375 29.4373 35.8232 29.2807C37.8227 27.6437 42.9213 23.4158 44.021 21.5937C44.2638 21.1524 44.0496 20.7823 43.4926 20.4976Z" fill="#0C77BD"/>
</svg>
