<svg width="50" height="50" viewBox="0 0 50 50" fill="none" xmlns="http://www.w3.org/2000/svg">
<path d="M33.8814 44.7563C33.8814 44.6399 33.8814 44.5782 33.8814 44.5166C33.8814 37.0393 33.8814 29.5607 33.8814 22.0835C33.8814 22.0597 33.8786 22.0358 33.8814 22.0134C33.9192 21.7793 33.8155 21.6405 33.6122 21.5256C32.2861 20.7742 30.9656 20.0158 29.6451 19.2546C28.9036 18.8285 28.1662 18.3953 27.4289 17.9636C26.6144 17.4884 25.8042 17.0104 24.9869 16.5393C24.2762 16.13 23.5585 15.7333 22.8464 15.324C22.1202 14.9076 21.3983 14.4815 20.6722 14.0624C19.6601 13.4778 18.6451 12.8961 17.633 12.3115C17.0934 12.0003 16.5593 11.6821 16.0182 11.3737C15.3621 10.9994 14.7005 10.6321 14.0416 10.2607C13.9982 10.2354 13.9561 10.2074 13.8874 10.1639C14.0458 10.0644 14.1804 9.9761 14.3192 9.89619C15.3874 9.2808 16.4569 8.66681 17.5251 8.05142C18.6746 7.38977 19.8227 6.72952 20.9707 6.06506C21.9772 5.48331 22.9907 4.91278 23.986 4.31C24.6645 3.89927 25.3177 3.89927 25.992 4.29458C26.9761 4.87072 27.9629 5.44126 28.9512 6.01179C30.0334 6.637 31.1184 7.258 32.202 7.8832C33.2295 8.47616 34.2542 9.07333 35.2818 9.6663C36.1285 10.1541 36.9779 10.6377 37.8246 11.1256C38.6405 11.5966 39.4549 12.0704 40.2708 12.5428C41.4189 13.2059 42.5669 13.8689 43.715 14.532C44.0823 14.7436 44.4496 14.9581 44.8182 15.167C44.9164 15.2231 44.9823 15.2889 44.9837 15.4095C44.9837 15.5553 44.9991 15.6997 44.9991 15.8455C44.9991 21.8326 44.9991 27.8197 44.9991 33.8054C44.9991 34.8007 45.0019 35.7973 44.9977 36.7926C44.9963 37.1122 45.0061 37.4374 44.9528 37.75C44.8687 38.2477 44.5645 38.6122 44.1314 38.8645C43.1164 39.4574 42.1001 40.0462 41.0838 40.6378C40.0886 41.2181 39.0961 41.8027 38.098 42.3788C36.8125 43.1204 35.5243 43.8535 34.236 44.5895C34.1379 44.6455 34.03 44.6848 33.88 44.7535L33.8814 44.7563Z" fill="#20EB00"/>
<path d="M19.4736 46.6908C19.461 46.58 19.4442 46.5071 19.4442 46.4342C19.4442 41.0653 19.4428 35.6964 19.4484 30.3275C19.4484 30.1004 19.3629 29.9798 19.1779 29.8733C18.2485 29.342 17.3261 28.7995 16.3995 28.2654C15.5472 27.7748 14.6907 27.2926 13.8398 26.802C13.0982 26.3744 12.3637 25.9384 11.6235 25.5109C10.254 24.7189 8.88161 23.9325 7.51064 23.1404C6.73545 22.6919 5.96165 22.2391 5.18926 21.7877C5.15141 21.7653 5.11636 21.7358 5.04908 21.6854C5.23411 21.5676 5.39392 21.4569 5.56073 21.3601C6.76348 20.6649 7.96903 19.9724 9.17318 19.2771C10.2105 18.6785 11.2465 18.0785 12.2838 17.48C12.9328 17.1057 13.5791 16.7244 14.2365 16.3627C14.7524 16.0795 15.2879 16.1188 15.7939 16.3823C16.3294 16.6613 16.8453 16.9809 17.3681 17.2837C18.8751 18.1514 20.3806 19.0205 21.8875 19.8883C23.0118 20.5359 24.1374 21.1793 25.2603 21.8283C26.5542 22.5769 27.8438 23.3325 29.1419 24.074C29.369 24.203 29.4531 24.3544 29.4517 24.6151C29.4447 29.6756 29.4461 34.7362 29.4461 39.7967C29.4461 40.3224 29.3171 40.8074 28.9232 41.1747C28.7255 41.3583 28.4844 41.4999 28.2489 41.6372C27.1695 42.2695 26.086 42.8947 25.001 43.5185C23.972 44.11 22.9375 44.6904 21.91 45.2833C21.1796 45.7053 20.4549 46.1384 19.7274 46.5646C19.6587 46.6052 19.5844 46.6361 19.4736 46.6908Z" fill="#20EB00"/>
<path d="M14.957 32.6181V44.1255C11.6305 42.2036 8.32648 40.2943 5 38.3725C8.29704 36.4674 11.6053 34.5553 14.957 32.6181Z" fill="#20EB00"/>
</svg>
