<svg width="50" height="50" viewBox="0 0 50 50" fill="none" xmlns="http://www.w3.org/2000/svg">
<path d="M25.0002 41.6667C34.2049 41.6667 41.6668 34.2048 41.6668 25C41.6668 15.7953 34.2049 8.33337 25.0002 8.33337C15.7954 8.33337 8.3335 15.7953 8.3335 25C8.3335 34.2048 15.7954 41.6667 25.0002 41.6667Z" fill="url(#paint0_linear_9176_13311)"/>
<path d="M32.2184 32.6149L25.1923 23.8499L31.5701 17.4691C31.6666 17.3726 31.7432 17.2581 31.7955 17.132C31.8478 17.006 31.8748 16.8708 31.8748 16.7344C31.8749 16.5979 31.8481 16.4627 31.7959 16.3366C31.7438 16.2105 31.6673 16.0959 31.5708 15.9993C31.4744 15.9028 31.3598 15.8262 31.2338 15.7739C31.1077 15.7216 30.9726 15.6946 30.8361 15.6946C30.6996 15.6945 30.5645 15.7213 30.4384 15.7735C30.3122 15.8256 30.1976 15.9021 30.1011 15.9986L19.6322 26.469V16.7369C19.6318 16.4615 19.5222 16.1975 19.3275 16.0028C19.1327 15.808 18.8687 15.6985 18.5934 15.6981C18.3181 15.6989 18.0543 15.8086 17.8597 16.0032C17.6651 16.1979 17.5554 16.4616 17.5546 16.7369V33.2632C17.5554 33.5385 17.6651 33.8022 17.8597 33.9969C18.0543 34.1915 18.3181 34.3012 18.5934 34.302C18.8687 34.3016 19.1327 34.192 19.3275 33.9973C19.5222 33.8026 19.6318 33.5386 19.6322 33.2632V29.3429C19.7259 29.2939 19.8118 29.2312 19.8869 29.1568L23.7142 25.328L30.5984 33.9146C30.7733 34.1212 31.022 34.2514 31.2915 34.2773C31.561 34.3033 31.83 34.223 32.0412 34.0536C32.2524 33.8842 32.3891 33.639 32.4222 33.3702C32.4553 33.1015 32.3821 32.8305 32.2184 32.6149Z" fill="white"/>
<defs>
<linearGradient id="paint0_linear_9176_13311" x1="8.3335" y1="24.9604" x2="41.74" y2="24.9604" gradientUnits="userSpaceOnUse">
<stop offset="0.1875" stop-color="#8181BE"/>
<stop offset="1" stop-color="#50C4E2"/>
</linearGradient>
</defs>
</svg>
