<svg width="50" height="50" viewBox="0 0 50 50" fill="none" xmlns="http://www.w3.org/2000/svg">
<path d="M25.0002 41.6667C34.2049 41.6667 41.6668 34.2048 41.6668 25C41.6668 15.7953 34.2049 8.33337 25.0002 8.33337C15.7954 8.33337 8.3335 15.7953 8.3335 25C8.3335 34.2048 15.7954 41.6667 25.0002 41.6667Z" fill="#008AAA"/>
<path d="M33.9262 21.2077H31.3025C31.2537 21.2077 31.2049 21.1816 31.1821 21.1393L29.076 17.487C29.0499 17.4447 29.0043 17.4186 28.9523 17.4186H20.3585C20.3097 17.4186 20.2608 17.4447 20.2381 17.487L15.9379 24.9284C15.9151 24.9707 15.9151 25.0228 15.9379 25.0684L20.2348 32.513C20.2576 32.5553 20.3064 32.5846 20.3552 32.5814H28.9523C29.0011 32.5814 29.0499 32.5553 29.076 32.513L31.1853 28.8607C31.2081 28.8184 31.2569 28.7891 31.3058 28.7923H33.9295C34.0174 28.7923 34.0857 28.7207 34.0857 28.6361V21.3672C34.0825 21.2793 34.0108 21.2077 33.9262 21.2077ZM23.8774 28.8607L23.2166 30C23.2068 30.0163 23.1905 30.0326 23.1743 30.0423C23.1547 30.0521 23.1352 30.0586 23.1124 30.0586H21.8006C21.755 30.0586 21.7127 30.0358 21.6931 29.9935L19.7368 26.5983L19.5447 26.263L18.8416 25.0619C18.8318 25.0456 18.8253 25.026 18.8286 25.0033C18.8286 24.9837 18.8351 24.9609 18.8448 24.9447L21.6964 20.0098C21.7192 19.9707 21.7615 19.9447 21.8038 19.9447H23.1124C23.1352 19.9447 23.158 19.9512 23.1808 19.9609C23.197 19.9707 23.2133 19.9837 23.2231 20.0033L23.8839 21.1491C23.9034 21.1882 23.9002 21.237 23.8774 21.2728L21.7582 24.9447C21.7485 24.9609 21.7452 24.9805 21.7452 24.9968C21.7452 25.0163 21.7517 25.0326 21.7582 25.0488L23.8774 28.7175C23.9067 28.7663 23.9034 28.8184 23.8774 28.8607ZM30.4562 25.0619L29.753 26.263L29.561 26.5983L27.6046 29.9935C27.5818 30.0326 27.5427 30.0586 27.4972 30.0586H26.1853C26.1625 30.0586 26.143 30.0521 26.1235 30.0423C26.1072 30.0326 26.0909 30.0195 26.0812 30L25.4204 28.8607C25.3911 28.8184 25.3911 28.7663 25.4171 28.724L27.5362 25.0553C27.546 25.0391 27.5493 25.0195 27.5493 25.0033C27.5493 24.9837 27.5427 24.9675 27.5362 24.9512L25.4171 21.2793C25.3943 21.2402 25.3911 21.1947 25.4106 21.1556L26.0714 20.0098C26.0812 19.9935 26.0974 19.9772 26.1137 19.9675C26.1332 19.9544 26.156 19.9512 26.1821 19.9512H27.4972C27.5427 19.9512 27.5851 19.974 27.6046 20.0163L30.4562 24.9512C30.4659 24.9707 30.4724 24.9902 30.4724 25.0098C30.4724 25.0228 30.4659 25.0423 30.4562 25.0619Z" fill="white"/>
</svg>
