<svg width="50" height="50" viewBox="0 0 50 50" fill="none" xmlns="http://www.w3.org/2000/svg">
<path d="M20.2542 17H18.0848C17.9724 17 17.8814 17.0907 17.8814 17.2025V32.7975C17.8814 32.9094 17.9724 33 18.0848 33H20.2542C20.3666 33 20.4576 32.9093 20.4576 32.7975V17.2025C20.4576 17.0907 20.3666 17 20.2542 17Z" fill="#362E77"/>
<path d="M7.37288 17H5.20339C5.09106 17 5 17.0907 5 17.2025V32.7975C5 32.9094 5.09106 33 5.20339 33H7.37288C7.48521 33 7.57627 32.9094 7.57627 32.7975V17.2025C7.57627 17.0907 7.48521 17 7.37288 17Z" fill="#362E77"/>
<path d="M30.0501 21.1181C29.9378 21.1181 29.8467 21.2088 29.8467 21.3207V27.2868C29.8467 28.2401 29.8118 30.5089 27.5763 30.5089H27.1695C24.8671 30.5089 24.9238 28.2391 24.9238 27.2868V21.3207C24.9238 21.2088 24.8328 21.1181 24.7205 21.1181H22.4915C22.3792 21.1181 22.2882 21.2088 22.2882 21.3207V27.118C22.2882 28.8335 22.5593 33 27.0339 33H27.7118C32.1865 33 32.4576 28.8245 32.4576 27.1091V21.3207C32.4576 21.2088 32.3666 21.1181 32.2542 21.1181H30.0501Z" fill="#362E77"/>
<path d="M7.86872 26.6321C7.79969 26.5496 7.80721 26.4279 7.88586 26.3545L13.435 21.1773C13.4727 21.1422 13.5224 21.1226 13.5741 21.1226H16.2256C16.4085 21.1226 16.4985 21.3442 16.3669 21.4708L11.2068 26.436C11.1305 26.5094 11.1237 26.6288 11.1911 26.7104L16.1161 32.6687C16.2252 32.8009 16.1309 33 15.959 33H13.1061C13.0439 33 12.9852 32.9717 12.9466 32.9232L9.34993 28.3982L9.34779 28.398L7.86872 26.6321Z" fill="#362E77"/>
<path d="M33.9535 27.0456C33.9535 26.2489 34.0624 25.4919 34.336 24.7673C34.6097 24.0426 35.0211 23.3834 35.5456 22.8295C36.07 22.2755 36.6965 21.8384 37.3873 21.5444C38.0781 21.2504 38.8187 21.1057 39.5646 21.119C42.8627 21.119 45 23.6473 45 27.3531V27.8047C45 27.9166 44.9089 28.0073 44.7966 28.0073H37.1752C37.0523 28.0073 36.957 28.1152 36.9787 28.2357C37.0978 28.8974 37.3455 29.4242 37.8672 29.8626C38.4476 30.3504 39.2737 30.565 40.0656 30.565C41.0639 30.5508 42.0289 30.2574 42.8165 29.6296C42.9005 29.5626 43.0224 29.5662 43.0982 29.6423L44.4393 30.9889C44.5224 31.0724 44.5169 31.2089 44.4261 31.284C42.6373 32.7631 41.339 33 39.7562 32.9901C38.8983 33 38.2265 32.9164 37.5095 32.6359C36.7924 32.3553 36.1396 31.9211 35.593 31.3611C35.0464 30.8012 34.6181 30.1279 34.3357 29.3846C34.0533 28.6414 33.9535 27.8692 33.9535 27.0456ZM39.5646 23.4896L39.5635 23.4885C38.8942 23.4686 38.2432 23.718 37.7451 24.1853C37.2999 24.6031 37.0073 25.0585 36.9128 25.6483C36.8941 25.7646 36.9884 25.865 37.1066 25.865H42.0193C42.1348 25.865 42.2287 25.7691 42.2126 25.6553C42.1793 25.421 42.106 25.2401 41.9947 24.9928C41.8525 24.6768 41.6514 24.3936 41.403 24.1599C41.1546 23.9262 40.8641 23.7466 40.5484 23.6317C40.2331 23.5169 39.899 23.469 39.5657 23.4907L39.5646 23.4896Z" fill="#362E77"/>
</svg>
