<svg width="50" height="50" viewBox="0 0 50 50" fill="none" xmlns="http://www.w3.org/2000/svg">
<rect width="50" height="50" fill="#362E77"/>
<path d="M20.7288 19H18.7763C18.6752 19 18.5932 19.0793 18.5932 19.1772V32.8228C18.5932 32.9207 18.6752 33 18.7763 33H20.7288C20.8299 33 20.9119 32.9206 20.9119 32.8228V19.1772C20.9119 19.0793 20.8299 19 20.7288 19Z" fill="white"/>
<path d="M9.1356 19H7.18305C7.08195 19 7 19.0793 7 19.1772V32.8228C7 32.9207 7.08195 33 7.18305 33H9.1356C9.23669 33 9.31865 32.9207 9.31865 32.8228V19.1772C9.31865 19.0793 9.23669 19 9.1356 19Z" fill="white"/>
<path d="M29.5451 22.6034C29.444 22.6034 29.3621 22.6827 29.3621 22.7806V28.001C29.3621 28.8351 29.3306 30.8203 27.3186 30.8203H26.9526C24.8804 30.8203 24.9314 28.8342 24.9314 28.001V22.7806C24.9314 22.6827 24.8495 22.6034 24.7484 22.6034H22.7423C22.6413 22.6034 22.5593 22.6827 22.5593 22.7806V27.8532C22.5593 29.3543 22.8034 33 26.8305 33H27.4407C31.4678 33 31.7119 29.3465 31.7119 27.8454V22.7806C31.7119 22.6827 31.6299 22.6034 31.5288 22.6034H29.5451Z" fill="white"/>
<path d="M9.58185 27.4281C9.51972 27.3559 9.52649 27.2494 9.59727 27.1852L14.5915 22.6552C14.6254 22.6244 14.6701 22.6073 14.7167 22.6073H17.1031C17.2677 22.6073 17.3487 22.8012 17.2302 22.9119L12.5861 27.2565C12.5175 27.3207 12.5113 27.4252 12.572 27.4966L17.0044 32.7102C17.1027 32.8258 17.0178 33 16.8631 33H14.2955C14.2396 33 14.1867 32.9752 14.1519 32.9328L10.9149 28.9734L10.913 28.9733L9.58185 27.4281Z" fill="white"/>
<path d="M33.0581 27.7899C33.0581 27.0928 33.1561 26.4304 33.4024 25.7963C33.6487 25.1623 34.019 24.5855 34.491 24.1008C34.963 23.6161 35.5269 23.2336 36.1485 22.9763C36.7703 22.7191 37.4368 22.5925 38.1081 22.6041C41.0764 22.6041 43 24.8164 43 28.0589V28.4542C43 28.552 42.918 28.6313 42.8169 28.6313H35.9577C35.8471 28.6313 35.7613 28.7258 35.7808 28.8312C35.888 29.4102 36.111 29.8712 36.5805 30.2548C37.1028 30.6816 37.8463 30.8694 38.5591 30.8694C39.4576 30.857 40.326 30.6002 41.0349 30.0509C41.1105 29.9923 41.2202 29.9955 41.2884 30.062L42.4953 31.2403C42.5702 31.3134 42.5652 31.4328 42.4834 31.4985C40.8735 32.7927 39.7051 33 38.2806 32.9913C37.5085 33 36.9038 32.9269 36.2585 32.6814C35.6132 32.4359 35.0256 32.0559 34.5337 31.5659C34.0418 31.076 33.6563 30.4869 33.4021 29.8365C33.148 29.1862 33.0581 28.5106 33.0581 27.7899ZM38.1081 24.6784L38.1071 24.6774C37.5048 24.66 36.9189 24.8783 36.4706 25.2871C36.0699 25.6527 35.8065 26.0512 35.7215 26.5672C35.7047 26.669 35.7895 26.7569 35.8959 26.7569H40.3174C40.4213 26.7569 40.5058 26.6729 40.4913 26.5733C40.4614 26.3684 40.3954 26.2101 40.2952 25.9937C40.1673 25.7172 39.9862 25.4694 39.7627 25.2649C39.5392 25.0604 39.2777 24.9033 38.9936 24.8027C38.7098 24.7023 38.4091 24.6604 38.1091 24.6793L38.1081 24.6784Z" fill="white"/>
</svg>
