<svg width="50" height="50" viewBox="0 0 50 50" fill="none" xmlns="http://www.w3.org/2000/svg">
<rect width="50" height="50" fill="#F16823"/>
<path d="M25.3246 33C18.464 33 12.8252 27.382 12.8252 20.4532C12.8252 13.618 18.464 8 25.3246 8C32.2792 8 37.824 13.618 37.824 20.4532C37.918 27.382 32.2792 33 25.3246 33ZM32.5611 14.0861C30.8695 12.2135 28.6139 11.0899 26.0765 10.9963C23.539 10.809 21.1895 11.6517 19.3099 13.3371C17.6182 14.8352 16.5844 16.8015 16.3025 18.9551L14.6108 18.8614L17.0543 23.1685L20.1557 19.0487L18.2761 18.9551C18.464 17.3633 19.3099 15.8652 20.5316 14.7416C22.0353 13.4307 23.9149 12.7753 25.9825 12.8689C27.9561 12.9625 29.8357 13.8989 31.1514 15.397C32.4671 16.8951 33.125 18.7678 33.031 20.8277C32.937 22.794 31.9972 24.6667 30.4935 25.9775L31.8093 27.382C33.6889 25.6966 34.8167 23.4494 34.9106 20.9213C35.0986 18.3933 34.2528 15.9588 32.5611 14.0861Z" fill="white"/>
<path d="M16.7597 36V38.2497L16.7679 38.2404C16.9262 38.0604 17.1146 37.9216 17.333 37.8239C17.5542 37.7237 17.7986 37.6735 18.0662 37.6735C18.2846 37.6735 18.4812 37.7018 18.6559 37.7584C18.8307 37.8123 18.9795 37.8997 19.1023 38.0206C19.2279 38.1414 19.3235 38.2982 19.389 38.491C19.4545 38.6812 19.4873 38.9139 19.4873 39.1889V41.9229H18.7255V39.1812C18.7255 38.9627 18.6914 38.7879 18.6231 38.6568C18.5549 38.5231 18.4552 38.4267 18.3242 38.3676C18.1931 38.3059 18.032 38.2751 17.8409 38.2751C17.6525 38.2751 17.4805 38.3123 17.3249 38.3869C17.172 38.4614 17.0395 38.5643 16.9276 38.6954C16.8637 38.7721 16.8077 38.8554 16.7597 38.9454V41.9229H16.002V36H16.7597Z" fill="white"/>
<path d="M27.7522 38.2497V36H26.9945V41.9229H27.7522V38.9454C27.8002 38.8554 27.8562 38.7721 27.9201 38.6954C28.032 38.5643 28.1644 38.4614 28.3173 38.3869C28.473 38.3123 28.645 38.2751 28.8334 38.2751C29.0245 38.2751 29.1856 38.3059 29.3167 38.3676C29.4477 38.4267 29.5474 38.5231 29.6156 38.6568C29.6839 38.7879 29.718 38.9627 29.718 39.1812V41.9229H30.4798V39.1889C30.4798 38.9139 30.447 38.6812 30.3815 38.491C30.316 38.2982 30.2204 38.1414 30.0948 38.0206C29.972 37.8997 29.8231 37.8123 29.6484 37.7584C29.4737 37.7018 29.2771 37.6735 29.0586 37.6735C28.7911 37.6735 28.5467 37.7237 28.3255 37.8239C28.1071 37.9216 27.9187 38.0604 27.7603 38.2404L27.7522 38.2497Z" fill="white"/>
<path d="M35.5173 41.3175V41.9229H31.729V36.3085H35.4764V36.9177H32.5194V38.7224H35.0996V39.3278H32.5194V41.3175H35.5173Z" fill="white"/>
<path fill-rule="evenodd" clip-rule="evenodd" d="M36.4962 36.3085H38.4702C38.918 36.3085 39.2962 36.3728 39.6047 36.5013C39.916 36.6298 40.1522 36.8201 40.3132 37.072C40.4771 37.3213 40.559 37.6285 40.559 37.9936C40.559 38.2506 40.503 38.4859 40.3911 38.6992C40.2819 38.91 40.1235 39.09 39.916 39.2391C39.7723 39.3419 39.6085 39.4263 39.4245 39.4925L40.8252 41.8766V41.9229H39.9815L38.6854 39.6478H37.2866V41.9229H36.4962V36.3085ZM38.4948 39.0424H37.2866V36.9177H38.4702C38.7733 36.9177 39.0204 36.9627 39.2115 37.0527C39.4054 37.1401 39.5474 37.2648 39.6375 37.4267C39.7276 37.5887 39.7726 37.7776 39.7726 37.9936C39.7726 38.1864 39.7249 38.3625 39.6293 38.5219C39.5337 38.6812 39.3917 38.8085 39.2034 38.9036C39.015 38.9961 38.7788 39.0424 38.4948 39.0424Z" fill="white"/>
<path d="M25.2416 40.8162C25.2416 40.7134 25.217 40.6183 25.1679 40.5308C25.1214 40.4409 25.0245 40.3599 24.8771 40.2879C24.7324 40.2134 24.5139 40.1491 24.2218 40.0951C23.976 40.0463 23.7535 39.9884 23.5542 39.9216C23.3576 39.8548 23.1897 39.7738 23.0505 39.6787C22.9139 39.5835 22.8088 39.4717 22.7351 39.3432C22.6614 39.2147 22.6245 39.0643 22.6245 38.892C22.6245 38.7275 22.6627 38.572 22.7392 38.4254C22.8184 38.2789 22.929 38.1491 23.0709 38.036C23.2156 37.9229 23.389 37.8342 23.5911 37.7699C23.7931 37.7057 24.0184 37.6735 24.2668 37.6735C24.6218 37.6735 24.9249 37.7326 25.176 37.8509C25.4272 37.9692 25.6197 38.1272 25.7535 38.3252C25.8873 38.5206 25.9542 38.7378 25.9542 38.9769H25.1965C25.1965 38.8612 25.1597 38.7494 25.0859 38.6414C25.015 38.5308 24.9098 38.4396 24.7706 38.3676C24.6341 38.2956 24.4662 38.2596 24.2668 38.2596C24.0566 38.2596 23.8859 38.2905 23.7549 38.3522C23.6266 38.4113 23.5324 38.4871 23.4723 38.5797C23.415 38.6722 23.3863 38.7699 23.3863 38.8728C23.3863 38.9499 23.3999 39.0193 23.4272 39.081C23.4573 39.1401 23.5092 39.1954 23.5829 39.2468C23.6566 39.2956 23.7603 39.3419 23.8941 39.3856C24.0279 39.4293 24.1986 39.473 24.4061 39.5167C24.7692 39.5938 25.0682 39.6864 25.303 39.7943C25.5378 39.9023 25.7126 40.0347 25.8272 40.1915C25.9419 40.3483 25.9993 40.5386 25.9993 40.7622C25.9993 40.9447 25.9583 41.1118 25.8764 41.2635C25.7972 41.4152 25.6812 41.5463 25.5283 41.6568C25.3781 41.7648 25.1979 41.8496 24.9877 41.9113C24.7801 41.9704 24.5467 42 24.2873 42C23.8969 42 23.5665 41.9344 23.2962 41.8033C23.0259 41.6722 22.8211 41.5026 22.6819 41.2943C22.5426 41.0861 22.473 40.8663 22.473 40.635H23.2348C23.2457 40.8303 23.3057 40.9859 23.415 41.1015C23.5242 41.2147 23.658 41.2956 23.8163 41.3445C23.9747 41.3907 24.1317 41.4139 24.2873 41.4139C24.4948 41.4139 24.6682 41.3882 24.8074 41.3368C24.9494 41.2853 25.0573 41.2147 25.131 41.1247C25.2047 41.0347 25.2416 40.9319 25.2416 40.8162Z" fill="white"/>
<path d="M21.445 41.9229V37.7506H20.6832V41.9229H21.445Z" fill="white"/>
<path d="M20.7365 36.3509C20.6627 36.4306 20.6259 36.5283 20.6259 36.644C20.6259 36.7545 20.6627 36.8496 20.7365 36.9293C20.8129 37.0064 20.9249 37.045 21.0723 37.045C21.217 37.045 21.3276 37.0064 21.404 36.9293C21.4832 36.8496 21.5228 36.7545 21.5228 36.644C21.5228 36.5283 21.4832 36.4306 21.404 36.3509C21.3276 36.2712 21.217 36.2314 21.0723 36.2314C20.9249 36.2314 20.8129 36.2712 20.7365 36.3509Z" fill="white"/>
<path fill-rule="evenodd" clip-rule="evenodd" d="M11.6156 39.7211H13.0245C13.475 39.7211 13.8559 39.6555 14.1672 39.5244C14.4784 39.3907 14.7146 39.1967 14.8757 38.9422C15.0368 38.6877 15.1173 38.3805 15.1173 38.0206C15.1173 37.6889 15.0368 37.3946 14.8757 37.1375C14.7146 36.8779 14.4784 36.6748 14.1672 36.5283C13.8559 36.3817 13.475 36.3085 13.0245 36.3085H10.8252V41.9229H11.6156V39.7211ZM11.6156 39.1157V36.9177H13.0245C13.333 36.9177 13.5829 36.9704 13.774 37.0758C13.9651 37.1787 14.1044 37.3149 14.1917 37.4846C14.2819 37.6542 14.3269 37.8355 14.3269 38.0283C14.3269 38.2391 14.2819 38.4267 14.1917 38.5913C14.1044 38.7558 13.9651 38.8843 13.774 38.9769C13.5829 39.0694 13.333 39.1157 13.0245 39.1157H11.6156Z" fill="white"/>
</svg>
