<svg width="50" height="50" viewBox="0 0 50 50" fill="none" xmlns="http://www.w3.org/2000/svg">
<path d="M24.9992 42C15.6688 42 8 34.3595 8 24.9363C8 15.6404 15.6688 8 24.9992 8C34.4574 8 41.9984 15.6404 41.9984 24.9363C42.1262 34.3595 34.4574 42 24.9992 42ZM34.8409 16.2772C32.5402 13.7303 29.4727 12.2022 26.0217 12.0749C22.5708 11.8202 19.3754 12.9663 16.8191 15.2584C14.5185 17.2959 13.1125 19.97 12.7291 22.8989L10.4285 22.7715L13.7516 28.6292L17.9695 23.0262L15.4132 22.8989C15.6688 20.7341 16.8191 18.6966 18.4807 17.1685C20.5257 15.3858 23.082 14.4944 25.8939 14.6217C28.578 14.7491 31.1343 16.0225 32.9237 18.0599C34.713 20.0974 35.6077 22.6442 35.4799 25.4457C35.3521 28.1198 34.074 30.6667 32.029 32.4494L33.8184 34.3596C36.3746 32.0674 37.9084 29.0112 38.0362 25.573C38.2918 22.1348 37.1415 18.824 34.8409 16.2772Z" fill="#F16823"/>
</svg>
