<svg width="50" height="50" viewBox="0 0 50 50" fill="none" xmlns="http://www.w3.org/2000/svg">
<path d="M24.9993 36C16.7666 36 10 29.2584 10 20.9438C10 12.7416 16.7666 6 24.9993 6C33.3448 6 39.9986 12.7416 39.9986 20.9438C40.1114 29.2584 33.3448 36 24.9993 36ZM33.6831 13.3034C31.6531 11.0562 28.9465 9.70787 25.9015 9.59551C22.8565 9.37079 20.0371 10.382 17.7816 12.4045C15.7516 14.2022 14.5111 16.5618 14.1727 19.1461L12.1428 19.0337L15.075 24.2022L18.7966 19.2584L16.5411 19.1461C16.7666 17.236 17.7816 15.4382 19.2477 14.0899C21.0521 12.5169 23.3077 11.7303 25.7887 11.8427C28.1571 11.9551 30.4126 13.0787 31.9915 14.8764C33.5703 16.6742 34.3598 18.9213 34.247 21.3933C34.1342 23.7528 33.0065 26 31.202 27.573L32.7809 29.2584C35.0364 27.236 36.3898 24.5393 36.5025 21.5056C36.7281 18.4719 35.7131 15.5506 33.6831 13.3034Z" fill="#F16823"/>
<path d="M14.9004 38.5V41.3488L14.9102 41.3369C15.099 41.109 15.3236 40.9333 15.584 40.8096C15.8477 40.6826 16.139 40.6191 16.458 40.6191C16.7184 40.6191 16.9528 40.6549 17.1611 40.7266C17.3695 40.7949 17.5469 40.9056 17.6934 41.0586C17.8431 41.2116 17.957 41.4102 18.0352 41.6543C18.1133 41.8952 18.1523 42.1898 18.1523 42.5381V46H17.2441V42.5283C17.2441 42.2516 17.2035 42.0303 17.1221 41.8643C17.0407 41.695 16.9219 41.5729 16.7656 41.498C16.6094 41.4199 16.4173 41.3809 16.1895 41.3809C15.9648 41.3809 15.7598 41.4281 15.5742 41.5225C15.3919 41.6169 15.234 41.7471 15.1006 41.9131C15.0244 42.0103 14.9576 42.1158 14.9004 42.2297V46H13.9971V38.5H14.9004Z" fill="black"/>
<path d="M28.0059 41.3488V38.5H27.1025V46H28.0059V42.2297C28.0631 42.1158 28.1298 42.0103 28.2061 41.9131C28.3395 41.7471 28.4974 41.6169 28.6797 41.5225C28.8652 41.4281 29.0703 41.3809 29.2949 41.3809C29.5228 41.3809 29.7148 41.4199 29.8711 41.498C30.0273 41.5729 30.1462 41.695 30.2275 41.8643C30.3089 42.0303 30.3496 42.2516 30.3496 42.5283V46H31.2578V42.5381C31.2578 42.1898 31.2188 41.8952 31.1406 41.6543C31.0625 41.4102 30.9486 41.2116 30.7988 41.0586C30.6523 40.9056 30.4749 40.7949 30.2666 40.7266C30.0583 40.6549 29.8239 40.6191 29.5635 40.6191C29.2445 40.6191 28.9531 40.6826 28.6895 40.8096C28.429 40.9333 28.2044 41.109 28.0156 41.3369L28.0059 41.3488Z" fill="black"/>
<path d="M37.2637 45.2334V46H32.7471V38.8906H37.2148V39.6621H33.6895V41.9473H36.7656V42.7139H33.6895V45.2334H37.2637Z" fill="black"/>
<path fill-rule="evenodd" clip-rule="evenodd" d="M38.4307 38.8906H40.7842C41.318 38.8906 41.7689 38.972 42.1367 39.1348C42.5078 39.2975 42.7894 39.5384 42.9814 39.8574C43.1768 40.1732 43.2744 40.5622 43.2744 41.0244C43.2744 41.3499 43.2077 41.6478 43.0742 41.918C42.944 42.1849 42.7552 42.4128 42.5078 42.6016C42.3365 42.7317 42.1412 42.8387 41.9218 42.9224L43.5918 45.9414V46H42.5859L41.0407 43.1191H39.373V46H38.4307V38.8906ZM40.8135 42.3525H39.373V39.6621H40.7842C41.1455 39.6621 41.4401 39.7191 41.668 39.833C41.8991 39.9437 42.0684 40.1016 42.1758 40.3066C42.2832 40.5117 42.3369 40.751 42.3369 41.0244C42.3369 41.2686 42.2799 41.4915 42.166 41.6934C42.0521 41.8952 41.8828 42.0563 41.6582 42.1768C41.4336 42.2939 41.152 42.3525 40.8135 42.3525Z" fill="black"/>
<path d="M25.0127 44.5986C25.0127 44.4684 24.9834 44.348 24.9248 44.2373C24.8695 44.1234 24.7539 44.0208 24.5781 43.9297C24.4056 43.8353 24.1452 43.7539 23.7969 43.6855C23.5039 43.6237 23.2386 43.5505 23.001 43.4658C22.7666 43.3812 22.5664 43.2786 22.4004 43.1582C22.2376 43.0378 22.1123 42.8962 22.0244 42.7334C21.9365 42.5706 21.8926 42.3802 21.8926 42.1621C21.8926 41.9538 21.9382 41.7568 22.0293 41.5713C22.1237 41.3857 22.2555 41.2214 22.4248 41.0781C22.5973 40.9349 22.804 40.8226 23.0449 40.7412C23.2858 40.6598 23.5544 40.6191 23.8506 40.6191C24.2738 40.6191 24.6351 40.694 24.9346 40.8438C25.234 40.9935 25.4635 41.1937 25.623 41.4443C25.7826 41.6917 25.8623 41.9668 25.8623 42.2695H24.959C24.959 42.123 24.915 41.9814 24.8271 41.8447C24.7425 41.7048 24.6172 41.5892 24.4512 41.498C24.2884 41.4069 24.0882 41.3613 23.8506 41.3613C23.5999 41.3613 23.3965 41.4004 23.2402 41.4785C23.0872 41.5534 22.9749 41.6494 22.9033 41.7666C22.835 41.8838 22.8008 42.0075 22.8008 42.1377C22.8008 42.2354 22.8171 42.3232 22.8496 42.4014C22.8854 42.4762 22.9473 42.5462 23.0352 42.6113C23.123 42.6732 23.2467 42.7318 23.4062 42.7871C23.5658 42.8424 23.7692 42.8978 24.0166 42.9531C24.4495 43.0508 24.806 43.168 25.0859 43.3047C25.3659 43.4414 25.5742 43.609 25.7109 43.8076C25.8477 44.0062 25.916 44.2471 25.916 44.5303C25.916 44.7614 25.8672 44.973 25.7695 45.165C25.6751 45.3571 25.5368 45.5231 25.3545 45.6631C25.1755 45.7998 24.9606 45.9072 24.71 45.9854C24.4626 46.0602 24.1842 46.0977 23.875 46.0977C23.4095 46.0977 23.0156 46.0146 22.6934 45.8486C22.3711 45.6826 22.127 45.4678 21.9609 45.2041C21.7949 44.9404 21.7119 44.6621 21.7119 44.3691H22.6201C22.6331 44.6165 22.7048 44.8135 22.835 44.96C22.9652 45.1032 23.1247 45.2057 23.3135 45.2676C23.5023 45.3262 23.6895 45.3555 23.875 45.3555C24.1224 45.3555 24.3291 45.3229 24.4951 45.2578C24.6644 45.1927 24.793 45.1032 24.8809 44.9893C24.9688 44.8753 25.0127 44.7451 25.0127 44.5986Z" fill="black"/>
<path d="M20.4863 46V40.7168H19.5781V46H20.4863Z" fill="black"/>
<path d="M19.6416 38.9443C19.5537 39.0452 19.5098 39.1689 19.5098 39.3154C19.5098 39.4554 19.5537 39.5758 19.6416 39.6768C19.7327 39.7744 19.8662 39.8232 20.042 39.8232C20.2145 39.8232 20.3464 39.7744 20.4375 39.6768C20.5319 39.5758 20.5791 39.4554 20.5791 39.3154C20.5791 39.1689 20.5319 39.0452 20.4375 38.9443C20.3464 38.8434 20.2145 38.793 20.042 38.793C19.8662 38.793 19.7327 38.8434 19.6416 38.9443Z" fill="black"/>
<path fill-rule="evenodd" clip-rule="evenodd" d="M8.76758 43.2119H10.4473C10.9844 43.2119 11.4385 43.1289 11.8096 42.9629C12.1807 42.7936 12.4622 42.5479 12.6543 42.2256C12.8464 41.9033 12.9424 41.5143 12.9424 41.0586C12.9424 40.6387 12.8464 40.266 12.6543 39.9404C12.4622 39.6117 12.1807 39.3545 11.8096 39.1689C11.4385 38.9834 10.9844 38.8906 10.4473 38.8906H7.8252V46H8.76758V43.2119ZM8.76758 42.4453V39.6621H10.4473C10.8151 39.6621 11.113 39.7288 11.3408 39.8623C11.5687 39.9925 11.7347 40.165 11.8389 40.3799C11.9463 40.5947 12 40.8242 12 41.0684C12 41.3353 11.9463 41.5729 11.8389 41.7812C11.7347 41.9896 11.5687 42.1523 11.3408 42.2695C11.113 42.3867 10.8151 42.4453 10.4473 42.4453H8.76758Z" fill="black"/>
</svg>
