<svg width="50" height="50" viewBox="0 0 50 50" fill="none" xmlns="http://www.w3.org/2000/svg">
<path fill-rule="evenodd" clip-rule="evenodd" d="M24.1128 8.93899C24.6354 8.41698 25.3976 8.21261 26.1103 8.40385L34.5802 10.6735C35.2932 10.865 35.851 11.4221 36.0423 12.1356L41.5963 32.8631C41.7875 33.5772 41.5835 34.338 41.0612 34.8614L34.8609 41.0609C34.3386 41.5837 33.5767 41.7872 32.8629 41.5963L12.1356 36.0419C11.4223 35.8509 10.8645 35.2931 10.6741 34.5801L8.40385 26.1101C8.21289 25.3964 8.41698 24.6352 8.93953 24.1132L24.1128 8.93899ZM25.6937 28.4723L29.8604 35.4167H35.4159L30.2076 27.0834L35.4159 19.4445H29.8604L26.3882 25H24.9993V19.4445H17.3604V20.8334L20.1382 22.2223V35.4167H24.9993V29.8611L22.9159 28.4723H25.6937Z" fill="#5F3CDB"/>
</svg>
