<svg width="50" height="50" viewBox="0 0 50 50" fill="none" xmlns="http://www.w3.org/2000/svg">
<path d="M17.9809 31.5415C11.3248 31.5415 6 26.4304 6 20.0415C6 13.6526 11.3248 8.5415 17.9809 8.5415H32.0191C38.6752 8.5415 44 13.6526 44 20.0415C44 26.4304 38.6752 31.5415 32.0191 31.5415H17.9809ZM31.6561 27.4758C36.0127 27.4758 39.4013 24.1072 39.4013 20.0415C39.4013 15.8597 35.8917 12.6072 31.6561 12.6072H18.3439C13.9873 12.6072 10.5987 15.9758 10.5987 20.0415C10.5987 24.1072 14.1083 27.4758 18.3439 27.4758H31.6561Z" fill="#C74634"/>
<path d="M10.5371 36.3491V43.4585H9.59473V36.3491H10.5371ZM14.8291 36.3491L11.875 39.6646L10.2148 41.3882L10.0586 40.3823L11.3086 39.0054L13.6963 36.3491H14.8291ZM13.9209 43.4585L11.2891 39.9917L11.8506 39.2446L15.0439 43.4585H13.9209Z" fill="#1C1D1F"/>
<path d="M18.8135 42.0571C18.8135 41.9269 18.7842 41.8065 18.7256 41.6958C18.6702 41.5819 18.5547 41.4793 18.3789 41.3882C18.2064 41.2938 17.946 41.2124 17.5977 41.144C17.3047 41.0822 17.0394 41.009 16.8018 40.9243C16.5674 40.8397 16.3672 40.7371 16.2012 40.6167C16.0384 40.4963 15.9131 40.3547 15.8252 40.1919C15.7373 40.0291 15.6934 39.8387 15.6934 39.6206C15.6934 39.4123 15.7389 39.2153 15.8301 39.0298C15.9245 38.8442 16.0563 38.6799 16.2256 38.5366C16.3981 38.3934 16.6048 38.2811 16.8457 38.1997C17.0866 38.1183 17.3551 38.0776 17.6514 38.0776C18.0745 38.0776 18.4359 38.1525 18.7354 38.3022C19.0348 38.452 19.2643 38.6522 19.4238 38.9028C19.5833 39.1502 19.6631 39.4253 19.6631 39.728H18.7598C18.7598 39.5815 18.7158 39.4399 18.6279 39.3032C18.5433 39.1632 18.418 39.0477 18.252 38.9565C18.0892 38.8654 17.889 38.8198 17.6514 38.8198C17.4007 38.8198 17.1973 38.8589 17.041 38.937C16.888 39.0119 16.7757 39.1079 16.7041 39.2251C16.6357 39.3423 16.6016 39.466 16.6016 39.5962C16.6016 39.6938 16.6178 39.7817 16.6504 39.8599C16.6862 39.9347 16.748 40.0047 16.8359 40.0698C16.9238 40.1317 17.0475 40.1903 17.207 40.2456C17.3665 40.3009 17.57 40.3563 17.8174 40.4116C18.2503 40.5093 18.6068 40.6265 18.8867 40.7632C19.1667 40.8999 19.375 41.0675 19.5117 41.2661C19.6484 41.4647 19.7168 41.7056 19.7168 41.9888C19.7168 42.2199 19.668 42.4315 19.5703 42.6235C19.4759 42.8156 19.3376 42.9816 19.1553 43.1216C18.9762 43.2583 18.7614 43.3657 18.5107 43.4438C18.2633 43.5187 17.985 43.5562 17.6758 43.5562C17.2103 43.5562 16.8164 43.4731 16.4941 43.3071C16.1719 43.1411 15.9277 42.9263 15.7617 42.6626C15.5957 42.3989 15.5127 42.1206 15.5127 41.8276H16.4209C16.4339 42.075 16.5055 42.272 16.6357 42.4185C16.766 42.5617 16.9255 42.6642 17.1143 42.7261C17.3031 42.7847 17.4902 42.814 17.6758 42.814C17.9232 42.814 18.1299 42.7814 18.2959 42.7163C18.4652 42.6512 18.5938 42.5617 18.6816 42.4478C18.7695 42.3338 18.8135 42.2036 18.8135 42.0571Z" fill="#1C1D1F"/>
<path d="M21.8066 39.1909V45.4897H20.8984V38.1753H21.7285L21.8066 39.1909ZM25.3662 40.7729V40.8755C25.3662 41.2596 25.3206 41.616 25.2295 41.9448C25.1383 42.2703 25.0049 42.5535 24.8291 42.7944C24.6566 43.0353 24.4434 43.2225 24.1895 43.356C23.9355 43.4894 23.6442 43.5562 23.3154 43.5562C22.9801 43.5562 22.6839 43.5008 22.4268 43.3901C22.1696 43.2795 21.9515 43.1183 21.7725 42.9067C21.5934 42.6951 21.4502 42.4412 21.3428 42.145C21.2386 41.8488 21.167 41.5151 21.1279 41.144V40.5972C21.167 40.2065 21.2402 39.8566 21.3477 39.5474C21.4551 39.2381 21.5967 38.9744 21.7725 38.7563C21.9515 38.535 22.168 38.3674 22.4219 38.2534C22.6758 38.1362 22.9688 38.0776 23.3008 38.0776C23.6328 38.0776 23.9274 38.1427 24.1846 38.2729C24.4417 38.3999 24.6582 38.5822 24.834 38.8198C25.0098 39.0575 25.1416 39.3423 25.2295 39.6743C25.3206 40.0031 25.3662 40.3693 25.3662 40.7729ZM24.458 40.8755V40.7729C24.458 40.5093 24.4303 40.2619 24.375 40.0308C24.3197 39.7964 24.2334 39.5913 24.1162 39.4155C24.0023 39.2365 23.8558 39.0965 23.6768 38.9956C23.4977 38.8914 23.2845 38.8394 23.0371 38.8394C22.8092 38.8394 22.6107 38.8784 22.4414 38.9565C22.2754 39.0347 22.1338 39.1405 22.0166 39.2739C21.8994 39.4041 21.8034 39.5539 21.7285 39.7231C21.6569 39.8892 21.6032 40.0617 21.5674 40.2407V41.5054C21.6325 41.7332 21.7236 41.9481 21.8408 42.1499C21.958 42.3485 22.1143 42.5096 22.3096 42.6333C22.5049 42.7537 22.7507 42.814 23.0469 42.814C23.291 42.814 23.501 42.7635 23.6768 42.6626C23.8558 42.5584 24.0023 42.4168 24.1162 42.2378C24.2334 42.0588 24.3197 41.8537 24.375 41.6226C24.4303 41.3882 24.458 41.1392 24.458 40.8755Z" fill="#1C1D1F"/>
<path d="M27.5 35.9585V43.4585H26.5918V35.9585H27.5Z" fill="#1C1D1F"/>
<path d="M29.9316 38.1753V43.4585H29.0234V38.1753H29.9316ZM28.9551 36.7739C28.9551 36.6274 28.999 36.5037 29.0869 36.4028C29.1781 36.3019 29.3115 36.2515 29.4873 36.2515C29.6598 36.2515 29.7917 36.3019 29.8828 36.4028C29.9772 36.5037 30.0244 36.6274 30.0244 36.7739C30.0244 36.9139 29.9772 37.0343 29.8828 37.1353C29.7917 37.2329 29.6598 37.2817 29.4873 37.2817C29.3115 37.2817 29.1781 37.2329 29.0869 37.1353C28.999 37.0343 28.9551 36.9139 28.9551 36.7739Z" fill="#1C1D1F"/>
<path d="M33.4961 42.814C33.7109 42.814 33.9095 42.77 34.0918 42.6821C34.2741 42.5942 34.4238 42.4738 34.541 42.3208C34.6582 42.1646 34.7249 41.9871 34.7412 41.7886H35.6006C35.5843 42.1011 35.4785 42.3924 35.2832 42.6626C35.0911 42.9295 34.8389 43.146 34.5264 43.312C34.2139 43.4748 33.8704 43.5562 33.4961 43.5562C33.099 43.5562 32.7523 43.4862 32.4561 43.3462C32.1631 43.2062 31.9189 43.0142 31.7236 42.77C31.5316 42.5259 31.3867 42.2459 31.2891 41.9302C31.1947 41.6112 31.1475 41.2743 31.1475 40.9194V40.7144C31.1475 40.3595 31.1947 40.0243 31.2891 39.7085C31.3867 39.3895 31.5316 39.1079 31.7236 38.8638C31.9189 38.6196 32.1631 38.4276 32.4561 38.2876C32.7523 38.1476 33.099 38.0776 33.4961 38.0776C33.9095 38.0776 34.2708 38.1623 34.5801 38.3315C34.8893 38.4976 35.1318 38.7254 35.3076 39.0151C35.4867 39.3016 35.5843 39.6271 35.6006 39.9917H34.7412C34.7249 39.7736 34.6631 39.5767 34.5557 39.4009C34.4515 39.2251 34.3083 39.0851 34.126 38.981C33.9469 38.8735 33.737 38.8198 33.4961 38.8198C33.2194 38.8198 32.9867 38.8752 32.7979 38.9858C32.6123 39.0933 32.4642 39.2397 32.3535 39.4253C32.2461 39.6076 32.168 39.811 32.1191 40.0356C32.0736 40.257 32.0508 40.4832 32.0508 40.7144V40.9194C32.0508 41.1506 32.0736 41.3784 32.1191 41.603C32.1647 41.8276 32.2412 42.0311 32.3486 42.2134C32.4593 42.3957 32.6074 42.5422 32.793 42.6528C32.9818 42.7603 33.2161 42.814 33.4961 42.814Z" fill="#1C1D1F"/>
<path d="M38.8086 43.5562C38.4408 43.5562 38.1071 43.4943 37.8076 43.3706C37.5114 43.2437 37.2559 43.0662 37.041 42.8384C36.8294 42.6105 36.6667 42.3403 36.5527 42.0278C36.4388 41.7153 36.3818 41.3735 36.3818 41.0024V40.7974C36.3818 40.3677 36.4453 39.9852 36.5723 39.6499C36.6992 39.3114 36.8717 39.0249 37.0898 38.7905C37.3079 38.5562 37.5553 38.3787 37.832 38.2583C38.1087 38.1379 38.3952 38.0776 38.6914 38.0776C39.069 38.0776 39.3945 38.1427 39.668 38.2729C39.9447 38.4032 40.1709 38.5854 40.3467 38.8198C40.5225 39.0509 40.6527 39.3244 40.7373 39.6401C40.8219 39.9526 40.8643 40.2944 40.8643 40.6655V41.0708H36.9189V40.3335H39.9609V40.2651C39.9479 40.0308 39.8991 39.8029 39.8145 39.5815C39.7331 39.3602 39.6029 39.1779 39.4238 39.0347C39.2448 38.8914 39.0007 38.8198 38.6914 38.8198C38.4863 38.8198 38.2975 38.8638 38.125 38.9517C37.9525 39.0363 37.8044 39.1632 37.6807 39.3325C37.557 39.5018 37.4609 39.7085 37.3926 39.9526C37.3242 40.1968 37.29 40.4784 37.29 40.7974V41.0024C37.29 41.2531 37.3242 41.4891 37.3926 41.7104C37.4642 41.9285 37.5667 42.1206 37.7002 42.2866C37.8369 42.4526 38.0013 42.5828 38.1934 42.6772C38.3887 42.7716 38.61 42.8188 38.8574 42.8188C39.1764 42.8188 39.4466 42.7537 39.668 42.6235C39.8893 42.4933 40.083 42.3192 40.249 42.1011L40.7959 42.5356C40.682 42.7082 40.5371 42.8726 40.3613 43.0288C40.1855 43.1851 39.9691 43.312 39.7119 43.4097C39.458 43.5073 39.1569 43.5562 38.8086 43.5562Z" fill="#1C1D1F"/>
</svg>
