<svg width="50" height="50" viewBox="0 0 50 50" fill="none" xmlns="http://www.w3.org/2000/svg">
<path d="M24.7308 42.1067C26.9671 42.1067 29.2005 42.1067 31.4456 42.1067C31.8195 42.1195 32.1911 42.0436 32.5301 41.8849C32.869 41.7263 33.1657 41.4896 33.3959 41.194L41.7077 30.8241C41.9548 30.5299 42.1272 30.1802 42.2101 29.8047C42.2929 29.4293 42.2838 29.0393 42.1835 28.6682C41.2006 24.3954 40.2207 20.1138 39.2436 15.8235C39.1692 15.4465 39.0054 15.0929 38.7661 14.7926C38.5268 14.4922 38.219 14.2539 37.8685 14.0976C33.8883 12.1982 29.9119 10.2968 25.9395 8.39343C25.572 8.2054 25.1649 8.10859 24.7524 8.11113C24.3398 8.11368 23.9339 8.21551 23.5688 8.40805C19.6509 10.2938 15.729 12.167 11.8033 14.0274C11.4057 14.2001 11.0563 14.4677 10.7855 14.8068C10.5148 15.1458 10.331 15.5461 10.2501 15.9727C9.30222 20.1558 8.34268 24.3359 7.37146 28.5132C7.2575 28.9315 7.24741 29.3715 7.34206 29.7947C7.43671 30.2179 7.63323 30.6115 7.91449 30.9411C10.6471 34.308 13.3506 37.6954 16.0599 41.077C16.3087 41.4086 16.6337 41.675 17.0073 41.8538C17.3808 42.0325 17.792 42.1183 18.2057 42.1038C20.3953 42.095 22.5558 42.1067 24.7308 42.1067Z" fill="#FEFEFE"/>
<path d="M24.7308 42.1067C22.5558 42.1067 20.3807 42.1068 18.2057 42.1068C17.792 42.1213 17.3808 42.0355 17.0073 41.8568C16.6337 41.678 16.3087 41.4116 16.0599 41.08C13.3506 37.6984 10.6471 34.311 7.91449 30.9441C7.63323 30.6144 7.43671 30.2209 7.34206 29.7977C7.24741 29.3745 7.2575 28.9345 7.37146 28.5161C8.34463 24.3389 9.30417 20.1588 10.2501 15.9757C10.331 15.5491 10.5148 15.1488 10.7855 14.8098C11.0563 14.4707 11.4057 14.2031 11.8033 14.0304C15.731 12.1739 19.6528 10.3007 23.5688 8.41105C23.9339 8.21851 24.3398 8.11667 24.7524 8.11413C25.1649 8.11158 25.572 8.2084 25.9395 8.39642C29.9119 10.3037 33.8883 12.2051 37.8685 14.1006C38.219 14.2569 38.5268 14.4952 38.7661 14.7956C39.0054 15.0959 39.1692 15.4495 39.2436 15.8265C40.2168 20.1051 41.2007 24.3838 42.1952 28.6624C42.2955 29.0336 42.3046 29.4235 42.2218 29.799C42.1389 30.1744 41.9665 30.5242 41.7193 30.8183L33.3871 41.197C33.157 41.4925 32.8603 41.7293 32.5213 41.8879C32.1824 42.0465 31.8108 42.1225 31.4369 42.1097C29.2005 42.1038 26.9671 42.1067 24.7308 42.1067ZM34.2104 26.9219C34.46 24.8496 34.0164 22.7529 32.9492 20.9603C32.6309 20.4337 32.8645 20.1061 33.1506 19.7639C33.3507 19.566 33.5777 19.3976 33.825 19.2636C34.117 19.0647 34.4556 18.9009 34.7505 18.6786C35.2322 18.3363 35.3578 17.8595 35.0921 17.488C34.8264 17.1165 34.3097 17.0931 33.8192 17.488C33.6644 17.6167 33.5272 17.7806 33.3929 17.9151C33.101 18.2076 32.8324 18.5002 32.5171 18.7488C32.012 19.1496 31.6266 19.1115 31.1624 18.6932C29.7834 17.4425 28.0712 16.6203 26.2343 16.3267C25.5891 16.2185 25.3234 15.9347 25.3264 15.2649C25.3357 15.023 25.3581 14.7818 25.3935 14.5423C25.4616 14.1468 25.5026 13.7471 25.5161 13.3459C25.4986 12.8779 25.268 12.521 24.7279 12.5473C24.1878 12.5736 24.0389 12.9159 24.0126 13.3576C24.0093 13.5996 24.0279 13.8415 24.0681 14.0801C24.1338 14.4769 24.1738 14.8775 24.1878 15.2795C24.1878 15.7212 24.0768 16.2156 23.5396 16.2887C21.509 16.5556 19.6156 17.4621 18.1327 18.8775C18.0638 18.9347 17.9827 18.9753 17.8956 18.9961C17.8085 19.0169 17.7179 19.0174 17.6306 18.9975C17.2812 18.8748 16.9532 18.6981 16.6584 18.4738C16.2672 18.1608 15.9635 17.7367 15.5694 17.4325C15.1753 17.1282 14.752 17.0961 14.4425 17.5231C14.3808 17.6047 14.3366 17.6982 14.3126 17.7977C14.2887 17.8972 14.2855 18.0006 14.3033 18.1014C14.3212 18.2022 14.3596 18.2983 14.4162 18.3835C14.4728 18.4687 14.5463 18.5413 14.6322 18.5967C14.8058 18.7325 14.9882 18.8566 15.1782 18.9682C15.5315 19.1993 15.9052 19.407 16.2409 19.6586C16.3513 19.7244 16.4467 19.8128 16.5209 19.9179C16.5951 20.023 16.6466 20.1425 16.6719 20.2687C16.6972 20.3949 16.6958 20.5251 16.6678 20.6508C16.6399 20.7764 16.5859 20.8948 16.5095 20.9983C15.6302 22.5504 15.2071 24.32 15.2891 26.1028C15.3329 27.1852 15.041 27.4835 13.9345 27.5801C13.5326 27.5834 13.1322 27.6305 12.7404 27.7205C12.4283 27.8213 12.1563 28.019 11.9638 28.2851C11.9271 28.403 11.9218 28.5284 11.9484 28.649C11.975 28.7696 12.0327 28.8811 12.1156 28.9725C12.371 29.1498 12.6845 29.222 12.9915 29.1743C13.5958 29.0456 14.1593 28.7443 14.7695 28.6185C15.1811 28.5337 15.6774 28.4723 15.8993 29.0573C16.6052 30.9468 17.8938 32.5616 19.5779 33.6675C19.7085 33.8096 19.793 33.9881 19.8202 34.1794C19.9954 34.8142 19.5107 35.2179 19.2567 35.7034C19.0201 36.0476 18.8315 36.4226 18.6962 36.818C18.6896 36.9665 18.72 37.1144 18.7848 37.2482C18.8495 37.382 18.9465 37.4975 19.067 37.5844C19.2116 37.6179 19.3616 37.6201 19.5071 37.5909C19.6526 37.5616 19.7902 37.5015 19.9107 37.4147C20.0975 37.2918 20.1793 36.9847 20.2756 36.7448C20.445 36.3148 20.5676 35.8673 20.7457 35.4402C21.0376 34.8025 21.4172 34.6328 22.0653 34.82C23.8521 35.3465 25.7525 35.3465 27.5393 34.82C28.1232 34.6504 28.4969 34.7995 28.7685 35.3729C28.9057 35.6654 29.002 35.9726 29.113 36.2739C29.2127 36.6007 29.3347 36.9202 29.4779 37.2304C29.5153 37.3254 29.5723 37.4114 29.6452 37.4828C29.7181 37.5542 29.8052 37.6094 29.9008 37.6447C29.9964 37.6801 30.0984 37.6948 30.2001 37.6879C30.3018 37.681 30.4009 37.6527 30.491 37.6048C30.9172 37.4088 30.9668 37.0198 30.8355 36.6249C30.7362 36.3843 30.6119 36.1549 30.4647 35.9404C30.2162 35.5737 29.9909 35.1917 29.7903 34.7966C29.5947 34.3374 29.5888 33.919 30.1202 33.5709C31.6909 32.5227 32.9025 31.0166 33.5915 29.2562C33.8513 28.6215 34.2016 28.4342 34.8848 28.6302C35.4687 28.797 36.0205 29.031 36.5985 29.2007C36.6981 29.2411 36.8052 29.2594 36.9126 29.2545C37.0199 29.2495 37.1248 29.2213 37.2203 29.1718C37.3157 29.1223 37.3993 29.0528 37.4653 28.9679C37.5314 28.883 37.5783 28.7848 37.6029 28.68C37.7488 28.2031 37.4481 27.8989 37.0335 27.7614C36.7053 27.6644 36.3656 27.6122 36.0234 27.6064C35.349 27.5625 34.7009 27.4806 34.2104 26.9219Z" fill="#246BEA"/>
<path d="M34.2104 26.9219C34.7038 27.4806 35.3488 27.5625 36.0232 27.5946C36.3653 27.6005 36.7051 27.6526 37.0333 27.7497C37.4479 27.8872 37.7486 28.1914 37.6026 28.6682C37.5781 28.773 37.5311 28.8712 37.4651 28.9561C37.3991 29.041 37.3155 29.1106 37.22 29.1601C37.1246 29.2095 37.0197 29.2377 36.9123 29.2427C36.805 29.2477 36.6979 29.2293 36.5983 29.1889C36.0144 29.0192 35.4626 28.7852 34.8846 28.6185C34.2014 28.4225 33.8511 28.6185 33.5912 29.2445C32.9023 31.0049 31.6906 32.5109 30.12 33.5592C29.5886 33.9102 29.5945 34.3256 29.7901 34.7849C29.9907 35.1799 30.2159 35.5619 30.4645 35.9286C30.6117 36.1431 30.736 36.3726 30.8352 36.6131C30.9666 37.011 30.917 37.3971 30.4907 37.5931C30.4007 37.641 30.3016 37.6693 30.1999 37.6762C30.0982 37.683 29.9962 37.6683 29.9006 37.633C29.805 37.5976 29.7179 37.5425 29.645 37.4711C29.5721 37.3997 29.5151 37.3136 29.4777 37.2187C29.3345 36.9085 29.2125 36.5889 29.1127 36.2621C29.0018 35.9696 28.9055 35.6507 28.7682 35.3611C28.4967 34.7761 28.1347 34.6386 27.5391 34.8083C25.7523 35.3348 23.8519 35.3348 22.0651 34.8083C21.4169 34.621 21.0228 34.7907 20.7455 35.4284C20.5615 35.8526 20.4535 36.306 20.2754 36.7331C20.1791 36.9729 20.0973 37.2801 19.9105 37.4029C19.79 37.4898 19.6524 37.5498 19.5069 37.5791C19.3614 37.6084 19.2113 37.6061 19.0668 37.5726C18.9463 37.4858 18.8493 37.3702 18.7846 37.2364C18.7198 37.1026 18.6894 36.9547 18.696 36.8062C18.8313 36.4108 19.0199 36.0359 19.2565 35.6917C19.5105 35.2061 19.9952 34.8141 19.82 34.1676C19.7928 33.9763 19.7083 33.7978 19.5777 33.6557C17.8983 32.5508 16.6131 30.9393 15.9079 29.0543C15.686 28.4693 15.1897 28.5307 14.778 28.6155C14.1737 28.7413 13.6102 29.0426 13 29.1713C12.6931 29.2191 12.3795 29.1468 12.1242 28.9695C12.0412 28.8781 11.9836 28.7666 11.9569 28.646C11.9303 28.5254 11.9356 28.4 11.9724 28.2821C12.1648 28.016 12.4368 27.8183 12.749 27.7175C13.1407 27.6275 13.5411 27.5804 13.943 27.5771C15.0495 27.4806 15.3415 27.1822 15.2977 26.0999C15.2156 24.3171 15.6387 22.5474 16.518 20.9953C16.5945 20.8918 16.6484 20.7734 16.6764 20.6478C16.7044 20.5221 16.7057 20.392 16.6804 20.2657C16.6551 20.1395 16.6037 20.02 16.5295 19.9149C16.4552 19.8098 16.3598 19.7215 16.2494 19.6556C15.9137 19.404 15.54 19.1963 15.1867 18.9652C14.9968 18.8536 14.8144 18.7295 14.6408 18.5937C14.5549 18.5383 14.4813 18.4657 14.4247 18.3805C14.3681 18.2953 14.3297 18.1993 14.3119 18.0985C14.2941 17.9977 14.2972 17.8943 14.3212 17.7947C14.3451 17.6952 14.3893 17.6017 14.451 17.5202C14.7605 17.0931 15.2159 17.1487 15.578 17.4295C15.94 17.7103 16.2757 18.1579 16.6669 18.4709C16.9618 18.6951 17.2898 18.8718 17.6391 18.9945C17.7264 19.0144 17.8171 19.0139 17.9041 18.9931C17.9912 18.9723 18.0723 18.9318 18.1413 18.8745C19.6241 17.4592 21.5176 16.5526 23.5482 16.2857C24.0854 16.2126 24.1846 15.7182 24.1963 15.2765C24.1823 14.8746 24.1423 14.4739 24.0766 14.0772C24.0364 13.8385 24.0178 13.5967 24.0211 13.3546C24.0474 12.9129 24.2343 12.5677 24.7364 12.5443C25.2386 12.5209 25.5072 12.8749 25.5247 13.3429C25.5112 13.7441 25.4702 14.1438 25.4021 14.5393C25.3667 14.7788 25.3443 15.02 25.3349 15.2619C25.3349 15.9318 25.5977 16.2155 26.2429 16.3237C28.082 16.6232 29.7944 17.4526 31.171 18.7107C31.6352 19.129 32.0206 19.1671 32.5256 18.7663C32.838 18.5177 33.1095 18.2134 33.4015 17.9326C33.5445 17.7922 33.673 17.6401 33.8277 17.5055C34.3182 17.1018 34.8174 17.1048 35.1006 17.5055C35.3838 17.9063 35.2408 18.3538 34.759 18.6961C34.4671 18.9067 34.1372 19.0705 33.8336 19.2811C33.5863 19.4151 33.3592 19.5835 33.1592 19.7814C32.8672 20.1236 32.6395 20.4512 32.9577 20.9778C34.0181 22.7665 34.4587 24.8564 34.2104 26.9219ZM19.5018 20.3079C20.5645 21.0655 21.5454 21.7705 22.538 22.4579C23.011 22.7826 23.5102 22.6364 23.5628 22.1215C23.6883 20.8461 23.735 19.562 23.8168 18.2281C22.1908 18.432 20.6757 19.1623 19.5018 20.3079ZM32.2833 26.4509C32.4244 24.8149 32.0442 23.1763 31.1973 21.7705C30.2192 22.6481 29.2646 23.4759 28.3508 24.3476C28.271 24.4184 28.212 24.5097 28.1803 24.6117C28.1486 24.7136 28.1454 24.8223 28.171 24.926C28.1965 25.0297 28.2499 25.1244 28.3254 25.1998C28.4008 25.2752 28.4954 25.3285 28.5989 25.3539C29.7784 25.7693 30.9754 26.0823 32.2833 26.4655V26.4509ZM31.8454 28.3055C30.5812 28.089 29.3959 27.8725 28.2077 27.6795C27.6238 27.5859 27.2209 27.9457 27.4136 28.4576C27.8632 29.6511 28.377 30.8212 28.8733 32.0381C30.2368 31.1507 31.2789 29.847 31.8454 28.3201V28.3055ZM17.2859 26.445C18.5412 26.0794 19.7587 25.743 20.9615 25.3627C21.057 25.3412 21.1449 25.2945 21.2162 25.2273C21.2874 25.1601 21.3394 25.0749 21.3665 24.9808C21.3937 24.8866 21.3951 24.7868 21.3706 24.6919C21.346 24.597 21.2965 24.5104 21.2272 24.4413C20.29 23.5461 19.312 22.6861 18.3369 21.8085C17.4708 23.1949 17.1003 24.8348 17.2859 26.4597V26.445ZM17.7004 28.3143C18.2698 29.8392 19.3179 31.1378 20.6871 32.0147C21.1659 30.8446 21.633 29.7652 22.068 28.6624C22.3278 28.0042 21.9716 27.5917 21.2739 27.7087C20.1032 27.9076 18.9354 28.1095 17.7004 28.3289V28.3143ZM27.1508 32.8454C26.5319 31.728 25.948 30.6486 25.3349 29.5897C25.043 29.0865 24.5175 29.069 24.2372 29.5546C23.6182 30.6281 23.0314 31.7221 22.4125 32.8454C23.9454 33.384 25.6147 33.3892 27.1508 32.8601V32.8454ZM25.7203 18.2193C25.7991 19.559 25.8429 20.852 25.9626 22.1128C25.9648 22.2067 25.9921 22.2984 26.0417 22.3782C26.0912 22.4581 26.1612 22.5231 26.2443 22.5667C26.3274 22.6103 26.4207 22.6308 26.5144 22.6261C26.6081 22.6213 26.6988 22.5916 26.7771 22.5399C27.8632 21.8378 28.9055 21.0772 30.0061 20.2903C28.8296 19.1682 27.3299 18.4466 25.7203 18.2281V18.2193ZM24.7744 24.5232C24.1905 24.5232 23.5307 25.0614 23.519 25.5558C23.5015 26.2432 24.1584 26.9833 24.7773 26.9803C25.3962 26.9774 26.0327 26.2754 26.0356 25.5528C26.0356 25.0994 25.3291 24.5232 24.7744 24.5232Z" fill="#F8FCFD"/>
<path d="M19.5018 20.3079C20.6757 19.1623 22.1908 18.432 23.8168 18.2281C23.735 19.562 23.6883 20.8461 23.5628 22.1215C23.5102 22.6364 23.011 22.7826 22.538 22.4579C21.5425 21.7764 20.5645 21.0655 19.5018 20.3079Z" fill="#2A6DE5"/>
<path d="M32.2833 26.4655C30.9754 26.0823 29.7791 25.7547 28.5996 25.3744C28.4961 25.349 28.4015 25.2957 28.3261 25.2202C28.2506 25.1448 28.1972 25.0501 28.1717 24.9465C28.1461 24.8428 28.1494 24.7341 28.181 24.6322C28.2127 24.5302 28.2717 24.4389 28.3515 24.3681C29.2653 23.4905 30.2199 22.6715 31.198 21.791C32.0437 23.1951 32.4231 24.8315 32.2833 26.4655Z" fill="#2A6DE6"/>
<path d="M31.8454 28.3201C31.2831 29.8516 30.2433 31.1606 28.8796 32.0527C28.3774 30.8358 27.8636 29.6657 27.4198 28.4722C27.2271 27.9603 27.6154 27.5946 28.2139 27.6941C29.3963 27.8872 30.5812 28.1095 31.8454 28.3201Z" fill="#2A6DE6"/>
<path d="M17.2859 26.4597C17.1043 24.8406 17.4744 23.2076 18.3365 21.8261C19.3116 22.7037 20.2896 23.5608 21.2268 24.4588C21.2961 24.528 21.3457 24.6146 21.3702 24.7095C21.3947 24.8044 21.3933 24.9042 21.3661 24.9983C21.339 25.0925 21.2871 25.1777 21.2158 25.2449C21.1446 25.3121 21.0566 25.3588 20.9611 25.3803C19.7583 25.7693 18.5412 26.094 17.2859 26.4597Z" fill="#286DE6"/>
<path d="M17.7004 28.3289C18.9354 28.1095 20.1031 27.9077 21.2708 27.7087C21.9686 27.5917 22.3248 28.0013 22.065 28.6624C21.6299 29.7652 21.1628 30.8563 20.684 32.0147C19.3184 31.1411 18.2717 29.848 17.7004 28.3289Z" fill="#2A6DE5"/>
<path d="M27.1508 32.8601C25.6163 33.3939 23.9477 33.3939 22.4132 32.86C23.0322 31.7367 23.619 30.6427 24.2379 29.5691C24.5299 29.0835 25.0437 29.1011 25.3356 29.6042C25.9429 30.6632 26.5261 31.7426 27.1508 32.8601Z" fill="#296DE5"/>
<path d="M25.7203 18.2281C27.3309 18.449 28.8306 19.1738 30.0059 20.2991C28.9053 21.0743 27.863 21.8465 26.777 22.5486C26.6986 22.6003 26.6079 22.6301 26.5142 22.6348C26.4205 22.6395 26.3272 22.619 26.2441 22.5755C26.161 22.5319 26.091 22.4668 26.0415 22.387C25.992 22.3071 25.9647 22.2155 25.9624 22.1215C25.8427 20.849 25.7991 19.5678 25.7203 18.2281Z" fill="#296DE5"/>
<path d="M24.7744 24.5232C25.332 24.5232 26.0385 25.1082 26.0356 25.5528C26.0356 26.2754 25.4137 26.9745 24.7773 26.9803C24.1408 26.9862 23.5015 26.2432 23.519 25.5558C23.5277 25.0614 24.1905 24.5232 24.7744 24.5232Z" fill="#2C6EE3"/>
</svg>
