<svg width="50" height="50" viewBox="0 0 50 50" fill="none" xmlns="http://www.w3.org/2000/svg">
<path d="M42.5097 20.8589V18.5421L40.2631 18.5497V17H44V20.8589H42.5097Z" fill="#FF1515"/>
<path d="M6 18.542H8.23918V20.8589H6V18.542Z" fill="#FF1515"/>
<path d="M6 22.8868H8.23918V30.8098H6V22.8868Z" fill="#FF1515"/>
<path d="M13.4149 28.2574L15.1695 22.8868H17.328L14.5675 30.8098H12.0861L9.28161 22.8868H11.6896L13.4149 28.2574Z" fill="#FF1515"/>
<path fill-rule="evenodd" clip-rule="evenodd" d="M24.2292 25.6294C24.2292 25.2723 24.2145 24.3304 23.7006 23.6847C22.9444 22.7731 21.6082 22.6668 20.9769 22.6668C20.25 22.6668 19.3544 22.7959 18.6569 23.3125C17.8567 23.905 17.8053 24.7558 17.7906 25.1736H19.9931C19.9784 24.9229 20.0371 24.6798 20.1619 24.4671C20.3602 24.1861 20.6759 24.0189 21.0136 24.0265C21.2265 24.0265 21.8138 24.1025 22.012 24.6874C22.1001 24.9685 22.1148 25.2192 22.1148 25.7357C21.3733 25.7357 20.0225 25.7357 19.0901 26.1763C17.6805 26.8524 17.4676 28.007 17.4676 28.6375C17.4603 29.2832 17.6952 29.9137 18.1357 30.3771C18.4367 30.6734 18.9359 31 20.0445 31C20.4703 31 21.4834 31 22.3277 29.7314C22.3204 30.096 22.3497 30.4531 22.4011 30.8101H24.4274C24.3026 30.1492 24.2365 29.4807 24.2439 28.8047L24.2292 25.6294ZM21.689 29.0477C21.4467 29.3364 21.1017 29.5035 20.7346 29.5035C19.9931 29.5035 19.6407 28.911 19.6407 28.3717C19.6407 27.4297 20.6685 26.9587 22.1075 27.0879C22.1148 27.9387 22.0781 28.5464 21.689 29.0477Z" fill="#FF1515"/>
<path d="M30.2199 22.6818C31.7249 22.6818 32.3563 23.6237 32.5545 24.1706C32.716 24.6568 32.7674 25.067 32.7674 26.5331V30.8099H30.4768V25.8874C30.4768 25.5608 30.4768 25.2797 30.3594 25.029C30.1538 24.596 29.728 24.3378 29.2655 24.353C28.803 24.3454 28.3625 24.5733 28.0982 24.9683C27.966 25.1734 27.8265 25.5684 27.8265 26.1761V30.8099H25.5727V24.3074C25.5727 24.277 25.5727 23.4262 25.5286 22.8793H27.6797L27.7384 24.0567L27.7403 24.0535C27.9549 23.6936 28.5583 22.6818 30.2199 22.6818Z" fill="#FF1515"/>
<path d="M37.2531 20.8893L35.0286 21.5198V22.8871H33.5603V24.4216H35.0286V28.8199C35.0286 29.4808 35.0286 30.9545 37.2825 30.9545C37.8698 30.9469 38.4571 30.8633 39.0224 30.7038V29.1845C38.7728 29.2149 38.5158 29.2301 38.2662 29.2301C37.2769 29.2301 37.2679 28.7826 37.2535 28.0724L37.2531 28.0526V24.414H39.0738V22.8795H37.2531V20.8893Z" fill="#FF1515"/>
<path d="M42.5023 22.8868H40.2631V30.8098H42.5023V22.8868Z" fill="#FF1515"/>
<path d="M40.2631 19.3168H41.7535V20.8589H40.2631V19.3168Z" fill="#FF1515"/>
</svg>
