<svg width="50" height="50" viewBox="0 0 50 50" fill="none" xmlns="http://www.w3.org/2000/svg">
<rect width="50" height="50" fill="#515253"/>
<path d="M30.3517 28.6016C31.4676 28.6016 32.5835 28.6267 33.7034 28.6016C34.4073 28.5803 35.1367 28.4545 35.3536 27.6593C35.5961 26.7712 34.912 26.3668 34.2476 26.0707C32.4889 25.2851 30.677 24.6099 28.94 23.7817C26.858 22.793 25.9728 21.2664 26.1798 19.3314C26.4282 17.0947 27.9325 15.6725 30.4956 15.5294C32.8201 15.3978 35.1584 15.4578 37.481 15.5061C38.6817 15.5313 38.5042 16.2801 38.4944 17.6674C38.4944 18.4569 38.3682 18.6349 37.4021 18.6562C35.468 18.6852 33.5299 18.6426 31.5938 18.6562C31.2693 18.6516 30.9452 18.6776 30.6257 18.7336C30.4203 18.7716 30.2308 18.8682 30.0811 19.0114C29.9313 19.1546 29.8279 19.3379 29.7839 19.5385C29.7769 19.7203 29.8112 19.9014 29.8841 20.0687C29.9571 20.236 30.0669 20.3853 30.2058 20.5059C30.7973 20.8929 31.4755 21.1619 32.1281 21.456C33.6738 22.1564 35.261 22.7775 36.7613 23.5573C38.033 24.2171 38.8749 25.2716 38.9814 26.7576C39.1785 29.5342 37.8142 31.324 34.772 31.6684C32.1143 31.9702 29.4053 31.8735 26.718 31.9064C26.5209 31.9064 26.1049 31.9064 26.1265 31.3472C26.1265 31.2988 26.1167 31.2234 26.1265 31.1537C26.1818 28.0424 25.6691 28.6964 28.5851 28.6209C29.1766 28.6074 29.7681 28.6209 30.3596 28.6209L30.3517 28.6016Z" fill="#FF8300"/>
<path d="M23.91 28.3694V31.9877C21.2838 31.889 18.6971 32.2702 16.1656 31.5272C13.0524 30.61 11.1479 28.2378 11.071 24.755C10.9547 19.4379 11.0237 14.113 11 8.79589C11 8.26766 11.1814 8.01225 11.7334 8.05095C11.7663 8.05289 11.7992 8.05289 11.832 8.05095C14.9057 7.8981 14.9057 7.8981 14.9057 10.9243C14.9057 15.154 14.9057 19.3837 14.9057 23.6134C14.896 24.0616 14.921 24.5098 14.9807 24.9543C15.3375 27.1349 16.6526 28.2939 18.9238 28.3617C20.5583 28.4042 22.1947 28.3694 23.91 28.3694Z" fill="white"/>
<path d="M17.6224 40.8271H18.5788C18.529 41.241 18.3978 41.6114 18.1853 41.9383C17.9728 42.2652 17.6722 42.5246 17.2837 42.7166C16.8952 42.9055 16.4104 43 15.8292 43C15.4042 43 15.0173 42.928 14.6687 42.7841C14.3233 42.6401 14.0261 42.4362 13.777 42.1722C13.528 41.9053 13.3354 41.5859 13.1992 41.214C13.0664 40.8391 13 40.4222 13 39.9634V39.3111C13 38.8522 13.0664 38.4368 13.1992 38.0649C13.3354 37.69 13.5297 37.3691 13.782 37.1022C14.0377 36.8353 14.3449 36.6298 14.7035 36.4859C15.0622 36.3419 15.4656 36.2699 15.9139 36.2699C16.4618 36.2699 16.9251 36.3629 17.3036 36.5488C17.6822 36.7348 17.9761 36.9927 18.1853 37.3226C18.3978 37.6495 18.529 38.0289 18.5788 38.4608H17.6224C17.5759 38.1549 17.4896 37.8925 17.3634 37.6735C17.2372 37.4516 17.0579 37.2806 16.8255 37.1607C16.593 37.0407 16.2892 36.9807 15.9139 36.9807C15.5918 36.9807 15.3079 37.0362 15.0622 37.1472C14.8198 37.2581 14.6155 37.4156 14.4495 37.6195C14.2868 37.8235 14.1639 38.0679 14.0809 38.3528C13.9979 38.6377 13.9564 38.9542 13.9564 39.3021V39.9634C13.9564 40.2843 13.9929 40.5857 14.0659 40.8676C14.1423 41.1495 14.2569 41.397 14.4096 41.6099C14.5624 41.8228 14.7567 41.9908 14.9924 42.1138C15.2282 42.2337 15.5071 42.2937 15.8292 42.2937C16.2377 42.2937 16.5631 42.2352 16.8055 42.1183C17.048 42.0013 17.2306 41.8333 17.3535 41.6144C17.4796 41.3955 17.5693 41.133 17.6224 40.8271Z" fill="white"/>
<path d="M20.7505 36V42.91H19.8241V36H20.7505Z" fill="white"/>
<path d="M21.9859 40.5302V40.4267C21.9859 40.0758 22.0423 39.7504 22.1552 39.4505C22.2681 39.1476 22.4308 38.8852 22.6434 38.6632C22.8559 38.4383 23.1132 38.2644 23.4154 38.1414C23.7176 38.0154 24.0563 37.9524 24.4316 37.9524C24.8101 37.9524 25.1505 38.0154 25.4527 38.1414C25.7582 38.2644 26.0172 38.4383 26.2297 38.6632C26.4456 38.8852 26.6099 39.1476 26.7229 39.4505C26.8358 39.7504 26.8922 40.0758 26.8922 40.4267V40.5302C26.8922 40.8811 26.8358 41.2065 26.7229 41.5064C26.6099 41.8063 26.4456 42.0688 26.2297 42.2937C26.0172 42.5156 25.7598 42.6896 25.4577 42.8156C25.1588 42.9385 24.8201 43 24.4415 43C24.063 43 23.7226 42.9385 23.4204 42.8156C23.1182 42.6896 22.8592 42.5156 22.6434 42.2937C22.4308 42.0688 22.2681 41.8063 22.1552 41.5064C22.0423 41.2065 21.9859 40.8811 21.9859 40.5302ZM22.9074 40.4267V40.5302C22.9074 40.7731 22.9389 41.0026 23.002 41.2185C23.0651 41.4314 23.1597 41.6204 23.2859 41.7853C23.4154 41.9503 23.5765 42.0808 23.7691 42.1767C23.9617 42.2697 24.1858 42.3162 24.4415 42.3162C24.6939 42.3162 24.9147 42.2697 25.104 42.1767C25.2966 42.0808 25.456 41.9503 25.5822 41.7853C25.7084 41.6204 25.803 41.4314 25.8661 41.2185C25.9325 41.0026 25.9657 40.7731 25.9657 40.5302V40.4267C25.9657 40.1868 25.9325 39.9604 25.8661 39.7474C25.803 39.5315 25.7067 39.341 25.5772 39.1761C25.451 39.0081 25.2916 38.8762 25.099 38.7802C24.9097 38.6842 24.6873 38.6362 24.4316 38.6362C24.1792 38.6362 23.9567 38.6842 23.7641 38.7802C23.5748 38.8762 23.4154 39.0081 23.2859 39.1761C23.1597 39.341 23.0651 39.5315 23.002 39.7474C22.9389 39.9604 22.9074 40.1868 22.9074 40.4267Z" fill="white"/>
<path d="M31.3453 41.7853V38.0424H32.2718V42.91H31.3901L31.3453 41.7853ZM31.5196 40.7596L31.9032 40.7506C31.9032 41.0746 31.865 41.3745 31.7886 41.6504C31.7155 41.9233 31.596 42.1602 31.43 42.3612C31.2639 42.5621 31.0464 42.7196 30.7774 42.8335C30.5085 42.9445 30.1814 43 29.7962 43C29.5338 43 29.2931 42.9655 29.0739 42.8965C28.8581 42.8275 28.6721 42.7211 28.516 42.5771C28.36 42.4332 28.2388 42.2457 28.1524 42.0148C28.0694 41.7838 28.0279 41.5064 28.0279 41.1825V38.0424H28.9494V41.1915C28.9494 41.4105 28.976 41.5919 29.0291 41.7359C29.0855 41.8768 29.1603 41.9893 29.2532 42.0733C29.3495 42.1542 29.4558 42.2112 29.572 42.2442C29.6916 42.2772 29.8144 42.2937 29.9406 42.2937C30.3325 42.2937 30.643 42.2262 30.8721 42.0913C31.1012 41.9533 31.2656 41.7689 31.3652 41.5379C31.4682 41.304 31.5196 41.0446 31.5196 40.7596Z" fill="white"/>
<path d="M37.0735 41.9653V36H38V42.91H37.1532L37.0735 41.9653ZM33.4473 40.5302V40.4357C33.4473 40.0638 33.4971 39.7264 33.5967 39.4235C33.6997 39.1176 33.8441 38.8552 34.0301 38.6362C34.2194 38.4173 34.4435 38.2494 34.7025 38.1324C34.9649 38.0124 35.2571 37.9524 35.5792 37.9524C35.9179 37.9524 36.2135 38.0064 36.4658 38.1144C36.7215 38.2194 36.9374 38.3738 37.1134 38.5778C37.2927 38.7787 37.4338 39.0216 37.5368 39.3066C37.6397 39.5915 37.7111 39.9139 37.7509 40.2738V40.6877C37.7144 41.0446 37.643 41.3655 37.5368 41.6504C37.4338 41.9353 37.2927 42.1782 37.1134 42.3792C36.9374 42.5801 36.7215 42.7346 36.4658 42.8425C36.2101 42.9475 35.9113 43 35.5692 43C35.2538 43 34.9649 42.9385 34.7025 42.8156C34.4435 42.6926 34.2194 42.5201 34.0301 42.2982C33.8441 42.0763 33.6997 41.8153 33.5967 41.5154C33.4971 41.2125 33.4473 40.8841 33.4473 40.5302ZM34.3738 40.4357V40.5302C34.3738 40.7731 34.4003 41.0011 34.4535 41.214C34.5099 41.4269 34.5963 41.6144 34.7125 41.7763C34.8287 41.9383 34.9765 42.0658 35.1558 42.1587C35.3351 42.2487 35.5493 42.2937 35.7984 42.2937C36.1039 42.2937 36.3546 42.2352 36.5505 42.1183C36.7498 42.0013 36.9091 41.8468 37.0287 41.6549C37.1482 41.4629 37.2412 41.2545 37.3076 41.0296V39.9454C37.2678 39.7804 37.2097 39.6215 37.1333 39.4685C37.0602 39.3126 36.9639 39.1746 36.8444 39.0546C36.7282 38.9317 36.5837 38.8342 36.411 38.7622C36.2417 38.6902 36.0408 38.6542 35.8083 38.6542C35.556 38.6542 35.3384 38.7022 35.1558 38.7982C34.9765 38.8912 34.8287 39.0201 34.7125 39.1851C34.5963 39.347 34.5099 39.536 34.4535 39.7519C34.4003 39.9649 34.3738 40.1928 34.3738 40.4357Z" fill="white"/>
</svg>
