<svg width="50" height="50" viewBox="0 0 50 50" fill="none" xmlns="http://www.w3.org/2000/svg">
<path d="M32.9905 19.6536C35.6333 18.8362 38.4953 19.0468 40.984 20.242L41 20.2499C39.6892 21.5412 39.2722 22.4022 38.4696 23.982C35.987 28.837 33.0641 33.1277 27.7946 35.4226C23.2266 37.4001 18.0464 37.523 13.3863 35.7646C12.3122 35.3571 11.2788 34.8532 10.2991 34.2594C9.58823 33.8285 9.02296 33.4686 9 32.5537L9.00915 19.5719C9.04363 19.5012 9.10751 19.4485 9.18446 19.4273C10.2991 20.2685 18.4932 26.6014 19.9089 27.3322C20.2735 27.5187 21.1045 27.9555 21.4642 28.0879C21.7076 27.979 22.1193 27.7299 22.3521 27.595C23.5622 26.8937 24.5595 26.0911 25.5965 25.1745C28.1352 22.9257 29.4943 20.708 32.9905 19.6536Z" fill="#4B6FFC"/>
<path d="M32.9905 19.6536C35.6333 18.8362 38.4953 19.0468 40.984 20.242L41 20.2499C39.6892 21.5412 39.2722 22.4022 38.4696 23.982C36.7339 27.3765 34.9245 30.8277 30.4804 30.8316C27.2647 30.8552 24.3544 29.2713 21.4642 28.0879C22.9975 27.4019 24.3582 26.269 25.5965 25.1745C28.1352 22.9257 29.4943 20.708 32.9905 19.6536Z" fill="#293E96"/>
<path d="M25.5965 25.1745C22.7372 20.8767 19.8402 16.8999 15.7095 13.622C15.5095 13.4628 14.1941 12.5099 14.1387 12.3928C14.0116 12.1243 14.3224 12.0351 14.535 12.0337C19.0686 12.0346 23.6098 11.9545 28.1428 12.0382C29.0526 12.0551 29.4734 12.686 29.9553 13.3351C31.4057 15.289 32.223 17.3933 32.9905 19.6536C29.4943 20.708 28.1352 22.9257 25.5965 25.1745Z" fill="#77D5B8"/>
</svg>
