<svg width="50" height="50" viewBox="0 0 50 50" fill="none" xmlns="http://www.w3.org/2000/svg">
<path d="M12.4948 29.1204C14.4249 29.1204 15.9896 27.5558 15.9896 25.6257C15.9896 23.6955 14.4249 22.1309 12.4948 22.1309C10.5647 22.1309 9 23.6955 9 25.6257C9 27.5558 10.5647 29.1204 12.4948 29.1204Z" fill="#D32D27"/>
<path d="M21.9466 29.1204C23.8767 29.1204 25.4414 27.5558 25.4414 25.6257C25.4414 23.6955 23.8767 22.1309 21.9466 22.1309C20.0165 22.1309 18.4518 23.6955 18.4518 25.6257C18.4518 27.5558 20.0165 29.1204 21.9466 29.1204Z" fill="#D32D27"/>
<path d="M31.4778 29.1204C33.4079 29.1204 34.9726 27.5558 34.9726 25.6257C34.9726 23.6955 33.4079 22.1309 31.4778 22.1309C29.5477 22.1309 27.983 23.6955 27.983 25.6257C27.983 27.5558 29.5477 29.1204 31.4778 29.1204Z" fill="#D32D27"/>
<path d="M39.4984 18H37.9131L37.9115 18.0016V33.2484L37.9131 33.25H39.4984L39.5 33.2484V18.0016L39.4984 18Z" fill="#D32D27"/>
</svg>
