<svg width="50" height="50" viewBox="0 0 50 50" fill="none" xmlns="http://www.w3.org/2000/svg">
<path d="M15.6747 29.7783L10.6911 24.8134C9.85113 23.9734 8.46989 23.9734 7.62995 24.8134C6.79002 25.6533 6.79002 27.0345 7.62995 27.8745L14.1441 34.37C14.9841 35.2099 16.3653 35.2099 17.2053 34.37L23.3275 28.2478L20.2477 25.1867L15.6747 29.7783Z" fill="#1AAD94"/>
<path d="M34.396 20.2214L24.8394 29.7781L15.2827 20.2214C14.4428 19.3815 13.0616 19.3815 12.2216 20.2214C11.3817 21.0614 11.3817 22.4426 12.2216 23.2825L23.3088 34.3697C24.1487 35.2097 25.53 35.2097 26.3699 34.3697L37.4571 23.2825C38.297 22.4426 38.297 21.0614 37.4571 20.2214C36.6172 19.3815 35.2359 19.3815 34.396 20.2214Z" fill="#F2AE20"/>
<path d="M42.0488 27.8744L35.5533 34.3699C34.7133 35.2099 33.3321 35.2099 32.4921 34.3699L16.8133 18.6911C15.9734 17.8511 15.9734 16.4699 16.8133 15.63C17.6532 14.79 19.0345 14.79 19.8744 15.63L34.0227 29.7783L38.9877 24.8133C39.8276 23.9733 41.2088 23.9733 42.0488 24.8133C42.8887 25.6532 42.8887 27.0345 42.0488 27.8744Z" fill="#E76450"/>
<path d="M32.8654 15.63C32.0255 14.79 30.6443 14.79 29.8043 15.63L20.2477 25.1867L23.3088 28.2477L32.8654 18.6911C33.7054 17.8511 33.7054 16.4699 32.8654 15.63Z" fill="#1AAD94"/>
</svg>
