<svg width="50" height="50" viewBox="0 0 50 50" fill="none" xmlns="http://www.w3.org/2000/svg">
<rect width="50" height="50" fill="#282828"/>
<path d="M24.4302 39.3629C26.868 36.0363 29.2795 32.6894 31.7931 29.2186C31.5012 29.3046 31.3362 29.3381 31.183 29.4008C27.122 31.0636 23.0609 32.7273 18.9999 34.392C18.5095 34.5917 17.9153 35.0159 17.5402 34.2783C17.165 33.5407 17.8774 33.3337 18.3314 33.064C21.7988 31.0057 25.2676 28.9523 28.7379 26.9037C28.9379 26.7856 29.1262 26.6471 29.4678 26.4154C28.0401 26.3206 26.7935 26.2273 25.544 26.1559C20.0313 25.845 14.5171 25.5601 9.00505 25.239C8.55253 25.2113 8.18029 25.0655 8.173 24.5261C8.16424 23.943 8.55691 23.8089 9.04884 23.7827C15.2625 23.4358 21.4771 23.0878 27.6927 22.739C28.2416 22.7069 28.789 22.65 29.5393 22.5932C25.7915 20.3388 22.0176 18.1277 18.2525 15.9022C17.7958 15.6264 17.2265 15.316 17.5606 14.6967C17.8292 14.2011 18.2584 14.2973 18.7007 14.4809C22.844 16.2037 26.9952 17.9072 31.1494 19.5961C31.3187 19.6646 31.4895 19.7258 31.8326 19.8541C29.3523 16.426 26.92 12.9563 24.3849 9.56841C23.966 9.01156 23.947 8.56987 24.5659 8.1792C24.9846 8.1792 25.1285 8.26356 25.4287 8.56987C30.4005 13.5563 35.371 18.5436 40.34 23.532C41.0056 24.1996 40.9983 24.8133 40.34 25.4839C35.247 30.6203 30.1194 35.7227 25.0039 40.8366C24.0985 40.8366 23.8701 40.1254 24.4302 39.3629Z" fill="white"/>
</svg>
