<svg width="50" height="50" viewBox="0 0 50 50" fill="none" xmlns="http://www.w3.org/2000/svg">
<path d="M26.4304 40.3629C28.8682 37.0363 31.2797 33.6894 33.7934 30.2186C33.5014 30.3046 33.3365 30.3381 33.1832 30.4008C29.1222 32.0636 25.0612 33.7273 21.0002 35.392C20.5097 35.5917 19.9156 36.0159 19.5404 35.2783C19.1653 34.5407 19.8776 34.3337 20.3316 34.064C23.799 32.0057 27.2678 29.9523 30.7381 27.9037C30.9381 27.7856 31.1264 27.6471 31.468 27.4154C30.0404 27.3206 28.7938 27.2273 27.5442 27.1559C22.0316 26.845 16.5173 26.5601 11.0053 26.239C10.5528 26.2113 10.1805 26.0655 10.1732 25.5261C10.1645 24.943 10.5572 24.8089 11.0491 24.7827C17.2627 24.4358 23.4774 24.0878 29.693 23.739C30.2418 23.7069 30.7892 23.65 31.5395 23.5932C27.7917 21.3388 24.0178 19.1277 20.2528 16.9022C19.796 16.6264 19.2268 16.316 19.5609 15.6967C19.8295 15.2011 20.2586 15.2973 20.7009 15.4809C24.8443 17.2037 28.9954 18.9072 33.1496 20.5961C33.319 20.6646 33.4898 20.7258 33.8328 20.8541C31.3526 17.426 28.9202 13.9563 26.3852 10.5684C25.9662 10.0116 25.9473 9.56987 26.5662 9.1792C26.9849 9.1792 27.1288 9.26356 27.4289 9.56987C32.4008 14.5563 37.3712 19.5436 42.3402 24.532C43.0058 25.1996 42.9986 25.8133 42.3402 26.4839C37.2472 31.6203 32.1197 36.7227 27.0041 41.8366C26.0987 41.8366 25.8703 41.1254 26.4304 40.3629Z" fill="#282828"/>
</svg>
