<svg width="50" height="50" viewBox="0 0 50 50" fill="none" xmlns="http://www.w3.org/2000/svg">
<path d="M3 17H47V32H3V17Z" fill="#E22319"/>
<path d="M22.1539 22.0568C21.4888 22.0568 20.783 22.3545 20.326 22.9915V22.1841H18.7884V27.9627H20.326V24.648C20.326 24.0534 20.783 23.4156 21.614 23.4156C22.2368 23.4156 22.902 23.883 22.902 24.648V27.9203H24.4396V24.3511C24.481 23.0339 23.5248 22.0568 22.1539 22.0568ZM35.4914 22.1416L34.079 26.0933L32.6666 22.1416H30.9217L33.2488 27.9203H34.9523L37.2371 22.1416H35.4914ZM17.1272 26.1357C16.4621 26.6455 16.0881 26.7303 15.5067 26.7303C14.9668 26.7303 14.5513 26.5606 14.2602 26.2629L18.207 24.5632C18.1241 23.9262 17.8745 23.3732 17.5419 22.9483C17.002 22.3113 16.2539 22.0136 15.2985 22.0136C13.5951 22.0136 12.3071 23.2884 12.3071 24.9881C12.3071 26.6879 13.5951 27.9627 15.4644 27.9627C16.5028 27.9627 17.5834 27.4529 18.0818 26.8575L17.1264 26.1349L17.1272 26.1357ZM14.1358 23.8838C14.3854 23.5013 14.8009 23.2892 15.3408 23.2892C15.8807 23.2892 16.3377 23.6293 16.5458 24.0967L13.8455 25.2443C13.7626 24.6921 13.9284 24.2247 14.1366 23.8846L14.1358 23.8838ZM12.1827 26.4758H8.65133V20.4419H7.07227V27.9203H12.1827V26.4758ZM40.0204 28.0059C38.317 28.0059 36.9875 26.7311 36.9875 25.0314C36.9875 23.3316 38.317 22.0568 40.0204 22.0568C41.7239 22.0568 43.0533 23.3316 43.0533 25.0314C43.0948 26.7311 41.7654 28.0059 40.0204 28.0059ZM40.0204 23.4164C39.148 23.4164 38.5243 24.0967 38.5243 25.0314C38.5243 25.9661 39.1894 26.6463 40.0204 26.6463C40.8929 26.6463 41.5166 25.9661 41.5166 25.0314C41.558 24.1391 40.8929 23.4164 40.0204 23.4164ZM28.0961 28.0059C26.3927 28.0059 25.0632 26.7311 25.0632 25.0314C25.0632 23.3316 26.3927 22.0568 28.0961 22.0568C29.7996 22.0568 31.129 23.3316 31.129 25.0314C31.129 26.7311 29.7996 28.0059 28.0961 28.0059ZM28.0961 23.4164C27.2237 23.4164 26.6 24.0967 26.6 25.0314C26.6 25.9661 27.2651 26.6463 28.0961 26.6463C28.9686 26.6463 29.5923 25.9661 29.5923 25.0314C29.6337 24.1391 28.9694 23.4164 28.0961 23.4164Z" fill="white"/>
</svg>
