<svg width="50" height="50" viewBox="0 0 50 50" fill="none" xmlns="http://www.w3.org/2000/svg">
<path d="M32.1118 26.2869H28.0332V24.1878C28.0332 22.5113 26.6721 21.1474 24.9995 21.1474C23.327 21.1474 21.9664 22.5118 21.9664 24.1878V26.2869H17.8877V24.1878C17.8877 20.257 21.0781 17.0585 25 17.0585C28.9219 17.0585 32.1123 20.2565 32.1123 24.1878L32.1118 26.2869Z" fill="#F9A11D"/>
<path d="M33.7571 26.2871H16.2426C15.4949 26.2871 14.8831 26.9003 14.8831 27.6499V40.6372C14.8831 41.3867 15.4949 42 16.2426 42H33.7571C34.5049 42 35.1167 41.3867 35.1167 40.6372V27.6499C35.1167 26.9003 34.5049 26.2871 33.7571 26.2871ZM25.8874 34.8143V36.5742C25.8874 37.0654 25.4897 37.4636 25.0001 37.4636C24.5106 37.4636 24.1128 37.0649 24.1128 36.5742V34.8148C23.567 34.5041 23.1982 33.9178 23.1982 33.2435C23.1982 32.2458 24.0053 31.4372 25.0001 31.4372C25.9954 31.4372 26.802 32.2463 26.802 33.2435C26.802 33.9172 26.4332 34.5036 25.8874 34.8143Z" fill="#2C3C69"/>
<path d="M14.4672 24.3504H10.2409C9.55549 24.3504 9 23.7936 9 23.1066C9 22.4196 9.55549 21.8627 10.2409 21.8627H14.4672C15.1525 21.8627 15.708 22.4196 15.708 23.1066C15.708 23.7936 15.152 24.3504 14.4672 24.3504Z" fill="#F9A11D"/>
<path d="M17.444 17.6868C17.167 17.6868 16.8875 17.5943 16.6566 17.4036L13.3135 14.6479C12.7844 14.2116 12.7078 13.428 13.1436 12.8971C13.5789 12.3668 14.3606 12.29 14.8902 12.7263L18.2333 15.4819C18.7624 15.9182 18.839 16.7018 18.4033 17.2327C18.1582 17.5322 17.8026 17.6868 17.444 17.6868Z" fill="#F9A11D"/>
<path d="M24.9999 14.7576C24.3145 14.7576 23.759 14.2008 23.759 13.5138V9.24382C23.759 8.55682 24.3145 8 24.9999 8C25.6852 8 26.2407 8.55682 26.2407 9.24382V13.5138C26.2407 14.2008 25.6852 14.7576 24.9999 14.7576Z" fill="#F9A11D"/>
<path d="M32.5553 17.6868C32.1967 17.6868 31.8415 17.5322 31.596 17.2327C31.1608 16.7023 31.2368 15.9182 31.766 15.4819L35.1091 12.7263C35.6387 12.29 36.4204 12.3668 36.8557 12.8971C37.2909 13.4275 37.2149 14.2116 36.6857 14.6479L33.3426 17.4036C33.1118 17.5943 32.8328 17.6868 32.5553 17.6868Z" fill="#F9A11D"/>
<path d="M39.7594 24.3504H35.493C34.8077 24.3504 34.2522 23.7936 34.2522 23.1066C34.2522 22.4196 34.8077 21.8627 35.493 21.8627H39.7594C40.4448 21.8627 41.0003 22.4196 41.0003 23.1066C41.0003 23.7936 40.4448 24.3504 39.7594 24.3504Z" fill="#F9A11D"/>
</svg>
