<svg width="50" height="50" viewBox="0 0 50 50" fill="none" xmlns="http://www.w3.org/2000/svg">
<path d="M33.2505 12.8317L36.6765 16.2578L34.426 18.5083L31 15.0822L33.2505 12.8317Z" fill="#343232"/>
<path d="M30.7771 15.2415L28.5356 13L25 16.5355L27.2271 18.7625L25.0303 20.9591L22.7939 18.7229L19.3467 22.1702L21.5884 24.4117L25.019 20.9811L28.5593 24.5215L30.7937 22.2871L27.2627 18.7559L30.7771 15.2415Z" fill="#343232"/>
<path d="M31.0139 27.005L28.5229 24.514L25.043 27.9939L27.5339 30.4849L31.0139 27.005Z" fill="#343232"/>
<path d="M34.2429 30.2928L36.4844 32.5343L33.0193 35.9995L30.7776 33.7579L34.2429 30.2928Z" fill="#343232"/>
<path d="M42.2424 26.776L40.001 24.5345L36.521 28.0143L38.7627 30.2559L42.2424 26.776Z" fill="#343232"/>
<path d="M34.2341 18.8578L36.5508 21.1744L33.1335 24.5916L30.8169 22.2749L34.2341 18.8578Z" fill="#343232"/>
<path d="M39.1748 18.7999L42.4351 22.0601L40.2065 24.2885L36.9465 21.0283L39.1748 18.7999Z" fill="#343232"/>
<path d="M36.4497 28.016L33.27 24.8365L31.1018 27.0049L34.2812 30.1844L36.4497 28.016Z" fill="#343232"/>
<path d="M27.3286 7.11511L30.7153 10.502L28.3857 12.8315L24.999 9.4447L27.3286 7.11511Z" fill="#F60606"/>
<path d="M13.2439 21.2205L11.0024 18.9789L7.7229 22.2584L9.96436 24.4999L13.2439 21.2205Z" fill="#F60606"/>
<path d="M16.8489 24.6871L19.0808 26.9192L21.582 24.4181L25.1497 27.9857L22.6453 30.4901L19.0872 26.9319L15.8105 30.2085L13.5691 27.967L16.8489 24.6871Z" fill="#F60606"/>
<path d="M24.918 32.8361L22.6765 30.5945L19.3679 33.9033L21.6094 36.1448L24.918 32.8361Z" fill="#F60606"/>
<path d="M30.5054 38.6283L28.2637 36.3867L25.0842 39.5663L27.3257 41.8077L30.5054 38.6283Z" fill="#F60606"/>
<path d="M25.0283 16.4923L21.519 12.983L19.3047 15.1973L22.814 18.7065L25.0283 16.4923Z" fill="#F60606"/>
<path d="M15.8035 18.7224L19.2905 22.2095L16.8347 24.6652L13.3477 21.1781L15.8035 18.7224Z" fill="#F60606"/>
<path d="M13.512 27.994L10.0103 24.4922L7.95898 26.5435L11.4607 30.0452L13.512 27.994Z" fill="#F60606"/>
<path d="M19.2 33.6528L15.7683 30.2211L13.6365 32.3528L17.0684 35.7845L19.2 33.6528Z" fill="#F60606"/>
<path d="M27.4324 30.4324L30.74 33.7401L28.3469 36.1332L25.0393 32.8254L27.4324 30.4324Z" fill="#F60606"/>
<path d="M24.8086 39.4811L21.717 36.3895L19.6145 38.4921L22.7061 41.5836L24.8086 39.4811Z" fill="#F60606"/>
<path d="M17.1777 13.0809L19.3142 15.2174L15.8594 18.672L13.7229 16.5356L17.1777 13.0809Z" fill="#F60606"/>
<path d="M25.0151 9.4679L22.7737 7.22632L19.2534 10.7466L21.4951 12.988L25.0151 9.4679Z" fill="#F60606"/>
</svg>
