<svg width="50" height="50" viewBox="0 0 50 50" fill="none" xmlns="http://www.w3.org/2000/svg">
<path d="M10.1367 42.2334V43H6.58203V42.2334H10.1367ZM6.76758 35.8906V43H5.8252V35.8906H6.76758Z" fill="black"/>
<path d="M12.0605 37.7168V43H11.1523V37.7168H12.0605ZM11.084 36.3154C11.084 36.0201 11.2674 35.793 11.6162 35.793C11.9641 35.793 12.1533 36.0248 12.1533 36.3154C12.1533 36.5907 11.9672 36.8232 11.6162 36.8232C11.2643 36.8232 11.084 36.5951 11.084 36.3154Z" fill="black"/>
<path d="M15.625 42.3555C16.2724 42.3555 16.8217 41.9205 16.8701 41.3301H17.7295C17.675 42.3771 16.6114 43.0977 15.625 43.0977C14.0486 43.0977 13.2764 41.7274 13.2764 40.2559C13.2764 38.8681 14.12 37.6191 15.625 37.6191C16.8603 37.6191 17.6805 38.4355 17.7295 39.5332H16.8701C16.8204 38.8667 16.2895 38.3613 15.625 38.3613C14.5682 38.3613 14.1797 39.3513 14.1797 40.2559C14.1797 41.233 14.4807 42.3555 15.625 42.3555Z" fill="black"/>
<path d="M20.9375 43.0977C19.4773 43.0977 18.5107 42.0356 18.5107 40.5439C18.5107 39.1516 19.2202 37.6191 20.8203 37.6191C22.5763 37.6191 22.9932 39.1566 22.9932 40.6123H19.0479V39.875H22.0898C22.0898 39.0893 21.6553 38.3613 20.8203 38.3613C19.6608 38.3613 19.4189 39.6266 19.4189 40.5439C19.4189 41.5479 20.0092 42.3604 20.9863 42.3604C21.6243 42.3604 22.0459 42.0788 22.3779 41.6426L22.9248 42.0771C22.5843 42.5928 21.9902 43.0977 20.9375 43.0977Z" fill="black"/>
<path d="M24.9512 43H24.0479V37.7168H24.9023L24.9512 43ZM24.7363 40.1582L24.3604 40.1436C24.3669 39.4175 24.5851 38.7905 24.9609 38.3369C25.3414 37.8778 25.8755 37.6191 26.5088 37.6191C27.6803 37.6191 28.2031 38.4763 28.2031 39.5381V43H27.2949V39.5283C27.2949 38.6872 26.9166 38.3809 26.2402 38.3809C25.3594 38.3809 24.7363 39.1864 24.7363 40.1582Z" fill="black"/>
<path d="M32.6514 41.5986C32.6514 40.9638 31.9473 40.786 31.4355 40.6855C30.2818 40.442 29.5312 40.0429 29.5312 39.1621C29.5312 38.1529 30.5891 37.6191 31.4893 37.6191C32.462 37.6191 33.501 38.1736 33.501 39.2695H32.5977C32.5977 38.6859 32.0074 38.3613 31.4893 38.3613C30.7528 38.3613 30.4395 38.7405 30.4395 39.1377C30.4395 39.5193 30.6519 39.7287 31.6553 39.9531C32.9541 40.2461 33.5547 40.6807 33.5547 41.5303C33.5547 42.6214 32.4556 43.0977 31.5137 43.0977C30.4987 43.0977 29.3506 42.5039 29.3506 41.3691H30.2588C30.2939 42.0357 30.8913 42.3555 31.5137 42.3555C32.2643 42.3555 32.6514 42.0356 32.6514 41.5986Z" fill="black"/>
<path d="M36.9336 43.0977C35.4734 43.0977 34.5068 42.0356 34.5068 40.5439C34.5068 39.1562 35.2047 37.6191 36.8164 37.6191C38.4818 37.6191 38.9893 39.1516 38.9893 40.6123H35.0439V39.875H38.0859C38.0859 39.0893 37.6514 38.3613 36.8164 38.3613C35.6516 38.3613 35.415 39.6294 35.415 40.5439C35.415 41.5479 36.0053 42.3604 36.9824 42.3604C37.6204 42.3604 38.042 42.0788 38.374 41.6426L38.9209 42.0771C38.5804 42.5928 37.9863 43.0977 36.9336 43.0977Z" fill="black"/>
<path d="M43.1201 41.5986C43.1201 41.2059 42.95 40.8908 41.9043 40.6855C40.7505 40.442 40 40.0429 40 39.1621C40 38.3197 40.7818 37.6191 41.958 37.6191C42.9307 37.6191 43.9697 38.1736 43.9697 39.2695H43.0664C43.0664 38.8304 42.6766 38.3613 41.958 38.3613C41.2215 38.3613 40.9082 38.7405 40.9082 39.1377C40.9082 39.5193 41.1207 39.7287 42.124 39.9531C43.4229 40.2461 44.0234 40.6807 44.0234 41.5303C44.0234 42.4375 43.2489 43.0977 41.9824 43.0977C40.9711 43.0977 39.8193 42.524 39.8193 41.3691H40.7275C40.7633 42.0477 41.372 42.3555 41.9824 42.3555C42.733 42.3555 43.1201 42.0356 43.1201 41.5986Z" fill="black"/>
<path d="M15.1976 6.88889C15.1976 5.2934 16.4515 4 17.9982 4H27.2205C27.5919 4 27.948 4.15218 28.2106 4.42307L34.392 10.7992C34.6546 11.07 34.8021 11.4374 34.8021 11.8205V27.1111C34.8021 28.7066 33.5482 30 32.0015 30H17.9982C16.4515 30 15.1976 28.7066 15.1976 27.1111V6.88889Z" fill="white"/>
<path fill-rule="evenodd" clip-rule="evenodd" d="M27.2205 4C27.5919 4 27.948 4.15218 28.2106 4.42307L34.392 10.7992C34.6546 11.07 34.8021 11.4374 34.8021 11.8205V27.1111C34.8021 28.7066 33.5482 30 32.0015 30H17.9982C16.4515 30 15.1976 28.7066 15.1976 27.1111V6.88889C15.1976 5.2934 16.4515 4 17.9982 4H27.2205ZM27.1003 9.05556C27.1003 10.651 28.3542 11.9444 29.901 11.9444H34.1019V27.1111C34.1019 28.3077 33.1615 29.2778 32.0015 29.2778H17.9982C16.8382 29.2778 15.8977 28.3077 15.8977 27.1111V6.88889C15.8977 5.69227 16.8382 4.72222 17.9982 4.72222H27.1003V9.05556ZM27.8005 9.05556C27.8005 10.2522 28.7409 11.2222 29.901 11.2222H33.8119L27.8005 5.02141V9.05556Z" fill="#AEB7CC"/>
<path d="M35.5157 25.9073C36.3323 25.9064 36.9991 25.2132 37 24.4027V16.8193C36.9991 16.0088 36.3323 15.3156 35.5157 15.3147H14.4843C13.6677 15.3156 13.0009 16.0088 13 16.8193V24.4027C13.0009 25.2132 13.6677 25.9064 14.4843 25.9073H35.5157ZM29.2437 17.6128L30.7226 21.9971L32.1536 17.6128H33.4046L31.312 23.5373H30.0524L27.9637 17.6128H29.2437ZM24.8581 20.9422C23.9563 20.7157 22.9784 20.2154 22.9886 19.1643C22.9884 18.0188 24.1222 17.4852 25.1215 17.5111C26.2236 17.5111 27.3645 18.0516 27.3616 19.3052L26.1818 19.3576C26.1292 18.7968 25.6564 18.4607 25.1096 18.5011C24.7452 18.48 24.1062 18.6117 24.117 19.083C24.1183 19.6555 24.9693 19.7412 25.3766 19.8386C26.4359 20.058 27.5593 20.5569 27.5287 21.8217C27.4979 23.0977 26.3216 23.6751 25.1891 23.6408C23.9359 23.6408 22.8614 22.9436 22.7775 21.6082L23.9256 21.4953C24.0008 22.1566 24.5199 22.6677 25.2011 22.6308C25.7069 22.6681 26.34 22.3859 26.3492 21.8145C26.3657 21.1364 25.3256 21.06 24.8581 20.9422ZM19.6672 17.5116C20.765 17.4645 21.7523 18.1753 22.0072 19.245L20.8392 19.5271C20.7301 18.9457 20.2019 18.5101 19.6075 18.5331C18.4918 18.4969 18.1485 19.6224 18.1485 20.5375C18.1485 21.4514 18.441 22.6483 19.5834 22.6144C20.2905 22.6285 20.7703 22.0084 20.8788 21.3579L22.0228 21.7255C21.7687 22.8735 20.7811 23.6848 19.5952 23.6362C17.9004 23.6894 16.9327 22.1699 16.9327 20.6259C16.9329 19.0232 17.8894 17.4395 19.6672 17.5116Z" fill="#A36BAE"/>
</svg>
