<svg width="50" height="50" viewBox="0 0 50 50" fill="none" xmlns="http://www.w3.org/2000/svg">
<path fill-rule="evenodd" clip-rule="evenodd" d="M33.5677 27.2501H41.3356L30.3508 38.1836L17.6502 25.5433L30.3508 12.903L41.6666 24.1661H33.7236C33.4091 23.4033 32.8428 22.7699 32.1182 22.3704C31.3936 21.9708 30.5538 21.829 29.7373 21.9681C28.9208 22.1073 28.1764 22.5192 27.6266 23.1359C27.0768 23.7527 26.7545 24.5374 26.7129 25.3609C26.6713 26.1844 26.9128 26.9974 27.3976 27.6659C27.8824 28.3345 28.5816 28.8187 29.3799 29.0387C30.1783 29.2587 31.0281 29.2014 31.7894 28.8763C32.5506 28.5512 33.1779 27.9776 33.5677 27.2501Z" fill="#449CD4"/>
<path fill-rule="evenodd" clip-rule="evenodd" d="M15.8302 25.5433L25.0851 35.1581L21.3368 38.8889L8.3335 25.5433L21.438 12.5L25.1863 16.2308L15.8302 25.5433Z" fill="#449CD4"/>
</svg>
