<svg width="50" height="50" viewBox="0 0 50 50" fill="none" xmlns="http://www.w3.org/2000/svg">
<path d="M14.7579 34.0179L15.828 39.2437L20.292 44.0329L19.5298 38.7569L14.7579 34.0179Z" fill="#123D10"/>
<path d="M15.7423 12.6091L17.232 22.9703L11.5785 18.5162L9.56772 8.72204L15.7423 12.6091Z" fill="#123D10"/>
<path fill-rule="evenodd" clip-rule="evenodd" d="M18.3977 27.5161L19.4883 35.0449L19.4901 35.0568L26.489 30.2915L26.4865 30.2889L26.1811 23.0368L26.1642 23.0466L18.3977 27.5161ZM20.0239 38.7531L20.8261 44.2866L20.8283 44.3014L26.8763 39.4331L26.6454 33.9665L26.6441 33.9652L26.6274 33.9773L20.0239 38.7531ZM29.7041 31.7544L29.7487 37.1051L29.7488 37.1182L34.4661 33.314L34.7801 28.0819L34.7788 28.0829L29.6905 31.7532L29.7041 31.7544ZM37.0893 31.2022L40.7921 28.2062L41.4509 23.2744L37.5248 26.1146L37.0893 31.2022ZM25.9874 18.8286L25.5716 8.9918L23.4073 9.83224L25.5741 8.99054L25.9899 18.8273L17.7534 23.161L17.7532 23.1598L25.9874 18.8286ZM17.7532 23.1598L17.7509 23.161L16.224 12.6216L23.4073 9.83224L16.2265 12.6216L17.7532 23.1598Z" fill="#33B652"/>
<path d="M25.9874 18.8286L25.5716 8.9918L23.4073 9.83224L16.2265 12.6216L17.7532 23.1598L25.9874 18.8286Z" fill="#33B652"/>
<path fill-rule="evenodd" clip-rule="evenodd" d="M18.9575 34.8196L17.8999 27.5148L13.3967 23.7219L12.4924 22.9603L13.9448 30.0468L13.9461 30.048L18.9575 34.8196ZM37.0208 26.1008L32.0303 22.9592L32.0181 22.9515L31.9721 25.2802L35.1501 27.4006C35.1644 27.4111 35.1777 27.4229 35.1898 27.4358C35.2047 27.4508 35.2196 27.4684 35.2295 27.486C35.2395 27.5035 35.2469 27.5211 35.2543 27.5612L35.2549 27.565C35.2562 27.5735 35.2581 27.5855 35.2581 27.6114L35.0967 30.2689L35.0979 30.2697L36.5863 31.3078L37.0332 26.0983L37.0319 26.0974L37.0208 26.1008ZM26.4691 30.2877L26.1642 23.0466L26.1811 23.0368L26.4865 30.2889L26.489 30.2915L19.4901 35.0568L19.4883 35.0449L26.4716 30.2902L26.4691 30.2877ZM26.8577 39.4294L26.6274 33.9773L26.6441 33.9652L26.6454 33.9665L26.8763 39.4331L20.8283 44.3014L20.8261 44.2866L26.8589 39.4306L26.8577 39.4294ZM34.4648 33.314L34.7788 28.0829L34.7801 28.0819L34.4661 33.314L29.7488 37.1182L29.7487 37.1051L34.4512 33.3128L34.4648 33.314ZM29.2131 31.7517L26.9346 29.9941L26.9346 29.9948L29.2131 31.7517Z" fill="#123D10"/>
<path fill-rule="evenodd" clip-rule="evenodd" d="M41.8957 22.5299L36.4734 19.4936C36.3989 19.4522 36.3083 19.4534 36.235 19.5036L31.6742 22.3217C31.6084 22.3217 31.5706 22.4427 31.565 22.4998L31.5128 24.9716L29.6582 23.7332C29.5812 23.683 29.4819 23.6805 29.4037 23.7332L26.7348 25.3818L26.6193 22.6391C26.6074 22.5671 26.5897 22.5072 26.5287 22.4609L23.7356 20.5613L26.335 19.1812C26.417 19.1385 26.4666 19.0507 26.4629 18.9578L26.0259 8.63421C26.0199 8.57327 25.9824 8.53562 25.9479 8.50102C25.9227 8.47574 25.8991 8.45208 25.8906 8.42217L18.893 5.02446C18.8389 4.99759 18.7767 4.99266 18.7192 5.01066L9.16427 8.01941C9.06308 8.07668 8.98778 8.16803 9.00165 8.29419L11.1343 18.7106C11.1468 18.7659 11.1765 18.816 11.2212 18.8512L14.1137 21.1309L12.0219 22.1372C11.9299 22.1744 11.8775 22.2985 11.8916 22.3919L13.4954 30.2337C13.5053 30.2818 13.5296 30.3256 13.565 30.3592L15.5785 32.2764L14.244 33.102C14.1633 33.1486 14.1157 33.2554 14.1348 33.3466L15.3761 39.4219C15.3848 39.4645 15.4059 39.5047 15.4357 39.5373L20.4608 44.93C20.5298 45.0229 20.6749 45.0145 20.7612 44.9563L27.245 39.7406C27.3046 39.6904 27.3368 39.6188 27.3343 39.5436L27.1829 35.9677L29.3429 37.8046C29.4307 37.8711 29.5344 37.8923 29.6284 37.8184L34.8248 33.6315C34.8782 33.5888 34.9092 33.5261 34.9142 33.4583L35.0719 30.836L36.6484 31.9451C36.7413 32.0077 36.8227 32.0028 36.924 31.9414L41.1633 28.5261C41.213 28.4885 41.2428 28.4308 41.2502 28.3705L42 22.762L41.8957 22.5299ZM18.9575 34.8196L13.9461 30.048L13.9448 30.0468L12.4924 22.9603L13.3967 23.7219L17.9011 27.5148L18.9588 34.8209L18.9575 34.8196ZM15.828 39.2437L14.7579 34.0179L19.5298 38.7569L20.292 44.0329L15.828 39.2437ZM26.9495 30.4069L26.9321 29.9928L26.9346 29.9948L26.9346 29.9941L29.2131 31.7517L29.2684 37.0931L27.1581 35.3077L27.0786 33.4884C27.0786 33.4269 27.0364 33.3717 26.9954 33.3303L25.1247 31.7871L26.8452 30.6152C26.9124 30.5696 26.953 30.4886 26.9495 30.4069ZM35.0967 30.2689L35.2581 27.6114C35.2581 27.5855 35.2562 27.5735 35.2549 27.565L35.2543 27.5612C35.2469 27.5211 35.2395 27.5035 35.2295 27.486C35.2196 27.4684 35.2047 27.4508 35.1898 27.4358C35.1777 27.4229 35.1644 27.4111 35.1501 27.4006L31.9721 25.2802L32.0181 22.9515L32.0303 22.9592L32.0305 22.949L37.0319 26.0974L37.0332 26.0983L36.5863 31.309L35.0967 30.2701L35.0979 30.2697L35.0967 30.2689ZM25.5741 8.99054L25.9899 18.8273L17.7534 23.161L17.7532 23.1598L17.7509 23.161L16.224 12.6216L23.4073 9.83224L25.5741 8.99054ZM26.1811 23.0368L26.4865 30.2889L26.489 30.2915L19.4901 35.0568L19.4883 35.0449L19.4727 35.0555L18.3803 27.5148L26.1637 23.0356L26.1642 23.0466L26.1811 23.0368ZM26.8763 39.4331L20.8283 44.3014L20.8261 44.2866L20.8109 44.2988L20.0065 38.7506L26.6268 33.9627L26.6274 33.9773L26.6441 33.9652L26.6454 33.9665L26.8763 39.4331ZM34.4661 33.314L29.7488 37.1182L29.7487 37.1051L29.7339 37.117L29.6892 31.7532L34.7789 28.0819L34.7788 28.0829L34.7801 28.0819L34.4661 33.314ZM17.232 22.9703L15.7423 12.6091L9.56772 8.72204L11.5785 18.5162L17.232 22.9703ZM37.0705 31.2036L37.5074 26.0995L41.455 23.2439L41.4509 23.2744L40.7921 28.2062L37.0893 31.2022L37.0705 31.2174V31.2036Z" fill="#231F20"/>
<path d="M26.9321 29.9928L26.9495 30.4069C26.953 30.4886 26.9124 30.5696 26.8452 30.6152L25.1247 31.7871L26.9954 33.3303C27.0364 33.3717 27.0786 33.4269 27.0786 33.4884L27.1581 35.3077L29.2684 37.0931L29.2131 31.7517L26.9346 29.9948L26.9321 29.9928Z" fill="#123D10"/>
</svg>
