<svg width="50" height="50" viewBox="0 0 50 50" fill="none" xmlns="http://www.w3.org/2000/svg">
<path d="M38.9093 35.1916L38.9085 35.1903C38.024 34.1733 38.6061 32.3788 37.0694 31.7868C37.7226 29.8131 37.4667 27.8473 36.8071 26.0715C35.9981 23.8915 34.5853 21.9921 33.5064 20.693C32.2986 19.1405 31.1175 17.667 31.1409 15.4902C31.1783 12.0335 31.5243 5.49834 25.0323 6.03036C18.6214 6.55597 20.3221 13.4578 20.2268 15.7685C20.1093 17.4587 19.7732 18.7906 18.6324 20.4426C17.2926 22.0662 15.4053 24.6945 14.5118 27.4308C14.0901 28.7217 13.8895 30.0378 14.0745 31.2836C13.1634 32.1175 12.9085 32.8994 11.6929 33.3429C10.3887 33.8197 10.08 34.9042 10.2672 36.1445C10.4509 37.3681 9.62034 38.8543 10.1663 39.9382C11.0029 41.5973 14.3524 40.9506 15.799 41.7324C17.523 42.6509 20.5938 43.2853 21.6045 41.0214C22.4937 41.0171 23.4693 40.6333 25.0323 40.5456C26.0926 40.4587 27.4172 40.9296 28.9408 40.8432C29.2512 42.1599 30.6585 43.0978 31.977 42.9919C33.1744 42.8957 34.7955 42.0526 35.4007 40.9722C36.4134 39.7211 39.8945 39.1441 39.9978 37.3261C40.0305 36.7365 39.6906 36.0756 38.9093 35.1916Z" fill="black"/>
<path d="M39.516 37.2977C39.4357 38.732 35.8892 39.5975 35.0306 40.6574C34.0915 41.7958 32.9469 42.4209 31.9389 42.5021C29.4905 42.6986 29.1575 40.2914 29.6285 38.4875C30.1114 36.638 29.9262 32.0716 31.6698 31.1934C31.7267 32.1438 32.1889 33.1136 33.0048 33.3229C33.8981 33.5629 35.1853 32.782 35.729 32.1452C38.0688 32.051 37.4028 34.2034 38.5493 35.5175L38.5498 35.5188C39.2969 36.3629 39.5369 36.9333 39.516 37.2977Z" fill="#FFCD00"/>
<path d="M21.366 39.9885L21.3657 39.9909V39.9942C21.1568 42.7833 17.7431 42.2128 16.0254 41.2977L16.0241 41.2972C14.7739 40.6224 11.2844 41.0814 10.5957 39.7138C10.125 38.7759 10.9112 37.1817 10.7441 36.0695C10.5833 35.0006 10.7655 34.2029 11.8559 33.805C13.0743 33.3597 13.4277 32.6909 14.2609 31.7846C14.5997 31.4157 14.9427 31.1947 15.5174 31.2855C16.089 31.3735 16.5871 31.7805 17.0672 32.4438L18.4532 35.0178L18.4537 35.0191C19.1747 36.5541 21.5479 38.139 21.366 39.9885Z" fill="#FFCD00"/>
<path d="M28.2781 15.9938C28.1668 15.7716 27.9393 15.5603 27.5525 15.3985L27.5504 15.3977C26.7457 15.0464 26.3964 15.0216 25.9474 14.7239C25.2162 14.245 24.6121 14.0772 24.11 14.0794C23.0829 14.0826 22.4716 14.7792 22.1298 15.109L22.129 15.1104C21.8329 15.3961 21.4536 15.6216 21.1277 15.8708C20.8267 16.1007 20.7288 16.4002 20.8332 16.7509C20.9367 17.1016 21.2688 17.5061 21.8758 17.856L21.878 17.8573C22.631 18.3082 22.8824 19.0266 23.9766 19.0922C25.2609 19.1683 25.874 18.2846 26.6856 18.0164L26.6872 18.0156C27.5195 17.7507 28.1131 17.2172 28.2987 16.7102C28.3918 16.4565 28.3891 16.216 28.2781 15.9938Z" fill="#FFCD00"/>
<path d="M23.9082 18.0238C23.3038 18.0238 21.0375 16.2551 21.2854 16.275C22.2041 16.3924 23.1577 17.7187 23.9082 17.83C25.1472 17.83 26.6401 15.9226 27.4366 16.0175C27.6211 16.0395 25.0179 18.0238 23.9082 18.0238Z" fill="black"/>
<path d="M36.3052 31.6426C36.2048 31.6387 36.1128 31.6421 36.0101 31.6421C36.2376 30.9106 35.7346 30.3708 34.3942 29.7531C33.0045 29.1305 31.897 29.1919 31.71 30.4558C31.6667 30.6986 31.5841 30.6797 31.368 30.7997C29.3611 31.9197 29.9462 35.59 29.3691 37.614C27.0923 39.269 23.9327 39.9859 21.2496 38.1199C20.952 37.6398 20.585 37.1671 20.227 36.7063C21.8023 36.7094 21.5671 35.206 20.8834 34.2627C19.6292 32.533 17.0905 31.8901 16.4267 29.7528C16.1759 28.9449 16.2107 28.0713 16.4044 27.2092C16.7751 25.554 17.7276 23.9441 18.3354 22.9338C18.4988 22.8114 18.3939 23.1618 17.7198 24.4369C17.1163 25.6023 15.9873 28.2922 17.5329 30.3921C17.5742 28.8978 17.9245 27.374 18.5125 25.9484C19.3687 23.9706 21.16 20.54 21.3021 17.806C21.3759 17.8603 21.6278 18.0336 21.7399 18.099C22.3979 18.4936 22.7529 19.2995 23.9606 19.371C25.3826 19.4515 26.1022 18.5037 26.7691 18.2826C27.4732 18.0585 28.0335 17.6611 28.3517 17.1986C28.8986 19.3951 30.1703 22.5679 30.9879 24.116C31.4224 24.9371 32.287 26.6825 32.6604 28.7852C32.8969 28.7779 33.1579 28.8128 33.4366 28.8858C34.4133 26.3059 32.6086 23.5275 31.7832 22.7537C31.4501 22.4241 31.434 22.2765 31.5995 22.2833C32.4943 23.0905 33.67 24.7127 34.0976 26.5442C34.2926 27.3795 34.3342 28.2577 34.1252 29.1244C35.1169 29.5431 36.7003 30.3328 36.3052 31.6426Z" fill="white"/>
<path d="M27.7932 15.2013C27.5043 15.0605 27.1991 14.9514 26.8965 14.8443C27.3704 14.2606 27.6358 12.5369 26.5086 12.5369C25.7629 12.5398 25.5994 13.6597 25.6913 14.2028C25.4 14.0549 25.0274 13.947 24.7699 13.8844C24.6245 12.7662 25.1716 11.1317 26.5239 11.1172H26.5395C28.4526 11.1172 28.7655 14.0065 27.7932 15.2013Z" fill="white"/>
<path d="M23.4378 13.897C23.1532 13.9809 22.9263 14.0881 22.7162 14.2299C22.7765 13.7944 22.6785 12.7568 22.0381 12.8097C21.1521 12.8873 21.4607 14.5209 21.9625 14.8837C21.788 15.0216 21.6949 15.0928 21.4952 15.2437C20.66 14.4451 20.392 11.5644 22.0287 11.4783C23.1616 11.4281 23.5108 13.0459 23.4378 13.897Z" fill="white"/>
<path d="M24.524 14.7946C24.5382 14.8413 24.9211 15.0331 24.9851 15.0349C25.062 15.0373 25.1822 15.0078 25.1921 14.9299C25.2269 14.6629 24.4696 14.6203 24.524 14.7946Z" fill="black"/>
<path d="M23.6873 14.7946C23.673 14.8413 23.2899 15.0331 23.2259 15.0349C22.9087 15.045 23.0505 14.8023 23.2482 14.7238C23.3075 14.7003 23.74 14.6204 23.6873 14.7946Z" fill="black"/>
</svg>
