<svg width="50" height="50" viewBox="0 0 50 50" fill="none" xmlns="http://www.w3.org/2000/svg">
<path d="M25.0258 44C14.5274 44.0047 6.00156 35.4938 6 25.007C5.99688 14.5172 14.5243 5.99376 25.0133 6C35.5023 6.00625 44.0125 14.5375 44 25.032C43.9875 35.4844 35.4742 43.9937 25.0258 44ZM15.2349 30.9954C15.1443 31.0189 15.0537 31.0423 14.9631 31.0657C15.1615 32.081 15.2474 33.1337 15.58 34.1037C17.2059 38.8503 21.9303 41.5665 26.8515 40.4404C30.7763 39.5423 33.2955 37.0307 34.2934 33.0775C35.66 27.6693 31.755 22.7905 29.0661 18.4844C26.8579 14.9518 25.5804 11.5154 24.9852 7.4401C23.8722 12.3551 25.6039 17.0776 26.8765 21.7848C28.1174 26.3842 28.5843 33.7881 22.4004 34.8924C19.0684 35.4889 16.936 33.5286 15.2364 30.9954H15.2349Z" fill="#0072BB"/>
</svg>
