<svg width="50" height="50" viewBox="0 0 50 50" fill="none" xmlns="http://www.w3.org/2000/svg">
<path d="M41.2474 23.0572C39.973 22.9013 39.8832 22.1252 39.4999 21.0638C37.9031 17.939 36.4165 15.4625 33.0545 13.8548C32.4134 13.5455 31.7461 13.2276 31.2894 12.7035C30.2796 11.5693 29.8405 10.1258 29.8581 8.02925C29.8581 7.31977 29.7009 6.48703 28.8219 6.45686C28.3741 6.45686 28.0316 6.76618 27.6189 7.25594C26.7056 8.37294 26.2227 9.97111 26.328 11.5435C26.328 11.5521 26.328 11.5607 26.328 11.5779C25.7133 10.564 25.4938 9.36106 25.3094 8.03784C25.2374 7.3337 25.2795 6.04726 24.2732 6.00146C22.1107 5.89697 21.8591 11.4242 21.911 12.6519C21.3578 11.9302 20.9715 11.1225 20.7344 10.2117C20.3452 8.7732 18.9017 10.1499 18.6883 10.985C18.3546 12.1793 18.381 13.3651 18.7674 14.5336C16.0188 16.0717 14.0869 18.2541 13.0332 21.0552L12.5327 22.4214C12.3586 22.9324 11.8923 23.0118 11.3647 23.0744C10.1361 23.2226 9.85314 25.2002 11.1803 25.4287C11.435 25.4717 11.4438 25.4803 11.4789 25.6263L12.0321 29.8452C12.1112 30.4724 12.4097 31.0653 12.8576 31.5292L13.8411 38.6265C13.8762 38.8499 13.9991 39.0561 14.1835 39.1936C17.7399 41.6854 21.9374 43 26.3105 43C30.7977 43 35.0742 41.6252 38.6745 39.0218C38.8677 38.8843 38.9906 38.6781 39.017 38.4461L39.8248 31.4519C40.2463 30.9965 40.5098 30.4466 40.5888 29.8366L41.142 25.6263C41.1771 25.4631 41.1859 25.4631 41.4406 25.4115C42.7587 25.1704 42.4726 23.205 41.2474 23.0572ZM20.3831 14.0525C20.2777 13.7346 20.1987 13.4166 20.1636 13.0901C20.6904 13.915 21.3754 14.6453 22.2272 15.3241C22.5881 15.6184 23.1582 15.556 23.4829 15.2382C24.4437 14.2981 23.5076 10.9638 23.8429 9.62742C24.2319 11.5622 25.3607 13.8753 27.3291 14.7141C28.0426 15.016 28.7743 14.2601 28.4267 13.5799C27.8561 12.4631 27.8383 10.8065 28.216 9.62742C28.4092 11.3115 28.9887 12.6433 29.9898 13.7775C30.6748 14.5508 31.5353 14.9633 32.2905 15.3327C35.0303 16.6473 36.8656 18.7009 37.8754 21.5965C37.9567 21.8352 38.0525 22.0718 38.1388 22.3097C35.4166 21.7941 32.5188 21.5622 29.5244 21.6309C28.3022 21.6671 28.0773 22.7689 27.2501 22.9713C26.6168 22.7943 25.96 22.7943 25.327 22.9713C24.4998 22.769 24.2738 21.6671 23.0526 21.6309C20.0143 21.5622 17.0813 21.7941 14.3328 22.3269C15.3365 19.6025 16.9797 17.3992 19.5928 15.9342C20.1197 15.6678 20.7607 15.1523 20.3831 14.0525ZM23.8429 24.7843C23.72 26.3223 23.2809 27.7143 22.8331 28.9773C22.0586 31.1774 18.7657 30.7731 16.8443 30.7731C14.4997 30.8075 13.8674 30.5669 13.5601 28.2556C13.5074 27.8947 13.4371 27.4651 13.3669 27.0097C13.2439 26.245 13.1034 25.3857 13.0507 24.7241C13.0244 24.3804 13.0859 24.2601 13.4898 24.157C16.3555 23.4296 19.4656 23.2425 22.4204 23.4353C23.4035 23.5083 23.9176 23.7617 23.8429 24.7843ZM20.6026 32.5088C22.6048 32.4143 23.7727 31.6152 24.6157 29.7592C24.9605 28.9944 25.3587 25.6369 26.3105 25.4373C27.2524 25.628 27.6636 29.0014 28.0053 29.7592C28.8483 31.6152 30.0162 32.4143 32.0183 32.5088C33.9548 32.6008 36.101 32.7718 38.0159 32.3971L37.3836 37.8876C34.1346 40.1388 30.3147 41.3245 26.3192 41.3245C22.4204 41.3245 18.6795 40.1817 15.4744 38.0336L14.6928 32.4057C16.6683 32.4057 18.6121 32.6128 20.6026 32.5088ZM33.0369 30.7044C31.6407 30.6185 30.3235 30.5325 29.7791 28.9859C29.3312 27.7143 28.9009 26.3309 28.7692 24.7929C28.6762 23.7733 29.2134 23.5245 30.183 23.4525C32.8789 23.2634 36.7953 23.5814 39.1135 24.1656C39.5175 24.2687 39.579 24.389 39.5526 24.7327C39.457 25.9174 39.2149 27.0886 39.0433 28.2642C38.736 30.5755 38.1125 30.8247 35.7591 30.7817C34.848 30.7817 33.9458 30.7512 33.0369 30.7044Z" fill="#F0AB00"/>
<path d="M20.1373 25.317C19.3256 25.2997 18.6445 25.9811 18.6445 26.7691C18.6445 27.5682 19.3119 28.2298 20.1286 28.2298C20.954 28.2298 21.6214 27.5768 21.6214 26.7777C21.6214 25.9786 20.954 25.3256 20.1373 25.317Z" fill="#F0AB00"/>
<path d="M32.5364 25.317C31.7251 25.299 31.0436 25.9835 31.0436 26.7691C31.0436 27.5682 31.7109 28.2298 32.5276 28.2298C33.353 28.2298 34.0204 27.5768 34.0204 26.7777C34.0204 25.9786 33.3531 25.3256 32.5364 25.317Z" fill="#F0AB00"/>
</svg>
