<svg width="50" height="50" viewBox="0 0 50 50" fill="none" xmlns="http://www.w3.org/2000/svg">
<path fill-rule="evenodd" clip-rule="evenodd" d="M14.2271 16.7104L11.5889 14.352L14.3501 11.5897L16.7005 14.227C17.1823 13.8566 17.6831 13.5234 18.203 13.2274L16.6719 10.0345L20.2811 8.53731L21.4563 11.882C22.0391 11.7243 22.6308 11.6038 23.2312 11.5205L23.0269 7.99512H26.9348L26.7305 11.5205C27.3221 11.6038 27.9094 11.7243 28.4922 11.882L29.6674 8.53731L33.2765 10.0345L31.7872 13.2274C32.3056 13.5234 32.8065 13.8566 33.2897 14.227L35.6402 11.5897L38.3992 14.352L35.7632 16.7104C36.1366 17.1909 36.4734 17.6907 36.7736 18.2098L39.9588 16.6837L41.4613 20.2916L38.1004 21.4697C38.2644 22.0528 38.3823 22.6404 38.4541 23.2324L41.9951 23.0383V26.9519L38.4541 26.7578C38.3823 27.3498 38.2644 27.9374 38.1004 28.5205L41.4481 29.7009L39.9434 33.3088L36.7605 31.7804C36.4603 32.2995 36.1234 32.7993 35.75 33.2798L38.386 35.6382L35.627 38.4006L33.2765 35.7632C32.7933 36.1336 32.2917 36.4668 31.7718 36.7628L33.3029 39.9557L29.696 41.4529L28.5208 38.1105C27.9379 38.2667 27.3455 38.3864 26.7437 38.4697L26.948 41.9951H23.0401L23.2312 38.4697C22.6308 38.3864 22.0391 38.2667 21.4563 38.1105L20.2943 41.4529L16.6719 39.9557L18.2162 36.7628C17.6875 36.4668 17.1867 36.1336 16.7137 35.7632L14.3501 38.4006L11.5889 35.6382L14.2271 33.2798C13.8624 32.7993 13.53 32.2995 13.2298 31.7804L10.0314 33.3088L8.54209 29.7009L11.8766 28.5205C11.7214 27.9374 11.6072 27.3498 11.5339 26.7578L7.99512 26.9519V23.0383L11.5339 23.2324C11.6072 22.6315 11.7214 22.0394 11.8766 21.4563L8.54209 20.2916L10.0314 16.6837L13.2298 18.2098C13.53 17.6907 13.8624 17.1909 14.2271 16.7104ZM16.7554 24.9951C16.7269 26.6463 17.1926 28.284 18.08 29.6718C18.9675 31.0597 20.2393 32.1552 21.7419 32.809C23.2466 33.4605 24.9116 33.6413 26.5108 33.3356C28.1232 33.0299 29.5993 32.24 30.7614 31.0731C31.9366 29.9084 32.7296 28.4223 33.0569 26.8002C33.3842 25.1758 33.2348 23.4823 32.6066 21.9561C31.9915 20.4166 30.9393 19.0979 29.573 18.1808C28.2198 17.2526 26.6206 16.7528 24.9819 16.7528C23.9144 16.7528 22.849 16.9603 21.8517 17.362C20.8544 17.7792 19.9516 18.375 19.1871 19.138C18.4227 19.9034 17.8208 20.8182 17.3968 21.8178C16.9729 22.8308 16.7554 23.8996 16.7554 24.9951Z" fill="#FE5E00"/>
</svg>
