<svg width="50" height="50" viewBox="0 0 50 50" fill="none" xmlns="http://www.w3.org/2000/svg">
<path d="M30.04 22H24.58V23.087H26.68V27H27.94V23.087H30.04V22Z" fill="#1F1B18"/>
<path d="M5.47 22H4V25.913C4 26.5134 4.4701 27 5.05 27H9.46V25.6957H5.47V22Z" fill="#1F1B18"/>
<path d="M22.9 22H17.65V27H19.12V23.087H22.48V27H23.95V23.087C23.95 22.4866 23.4799 22 22.9 22Z" fill="#1F1B18"/>
<path d="M15.97 22H10.09V27H11.56V23.087H12.82V27H14.29V23.087H15.55V27H17.02V23.087C17.02 22.4866 16.5499 22 15.97 22Z" fill="#1F1B18"/>
<path fill-rule="evenodd" clip-rule="evenodd" d="M30.67 22H35.92C36.4999 22 36.97 22.4866 36.97 23.087V24.1739C36.97 24.7742 36.4999 25.2609 35.92 25.2609L37.285 27H35.71L34.24 25.2609H32.14V27H30.67V22ZM35.5 23.087H32.14V24.1739H35.5V23.087Z" fill="#1F1B18"/>
<path d="M39.07 22H37.6V27H39.07V22Z" fill="#1F1B18"/>
<path d="M41.275 22H39.49L41.905 24.5L39.49 27H41.275L43.585 24.5L41.275 22Z" fill="#1789C3"/>
<path d="M45.895 22H44.215L42.955 23.3043L43.795 24.1739L45.895 22Z" fill="#1F1B18"/>
<path d="M42.955 25.6957L43.795 24.8261L46 27H44.32L42.955 25.6957Z" fill="#1F1B18"/>
</svg>
