<svg width="50" height="50" viewBox="0 0 50 50" fill="none" xmlns="http://www.w3.org/2000/svg">
<path d="M23.3899 8.72217H27.2073C27.4504 8.81774 27.701 8.89155 27.9563 8.94278C29.6079 9.10383 31.2701 9.16339 32.9089 9.41268C36.3231 9.92891 38.937 11.6409 40.2963 15.0339C41.6747 18.4798 41.7302 22.1111 41.6384 25.7997H35.4866C34.2852 22.1067 33.0668 18.4247 31.9039 14.7228C31.6905 14.0146 31.3918 13.7654 30.6556 13.7786C29.9621 13.7918 29.7146 14.0477 29.5076 14.7008C28.2059 18.8196 26.8552 22.923 25.5194 27.0308C25.4063 27.3771 25.2826 27.7169 25.0735 28.3169C23.4368 23.2804 21.9047 18.5593 20.379 13.847H18.5845C17.366 17.5974 16.1327 21.3037 14.9569 25.0386C14.7435 25.6894 14.4704 25.8637 13.8473 25.8505C12.0101 25.8108 10.1729 25.8372 8.3335 25.8372V22.7575C8.42674 22.5875 8.49846 22.4059 8.54688 22.217C8.70052 20.9926 8.77307 19.755 8.97365 18.5416C9.76957 13.9396 12.1552 10.7341 16.7067 9.69286C18.6271 9.25164 20.6052 9.18766 22.5555 8.93837C22.838 8.88585 23.1168 8.81361 23.3899 8.72217Z" fill="#011B60"/>
<path d="M8.68207 29.1178C8.79517 29.8965 8.87412 30.5473 8.98721 31.1893C9.80234 35.7648 12.2627 38.8666 16.748 39.7932C22.2 40.945 27.8198 40.9578 33.2767 39.8307C38.2571 38.7938 41.6542 34.1786 41.3469 29.1178C39.0573 29.1178 36.7634 29.0825 34.4716 29.1354C33.6053 29.1553 33.17 28.9148 32.9054 27.9948C32.2653 25.7622 31.4949 23.5716 30.714 21.1801C30.5539 21.6214 30.4643 21.8618 30.3853 22.1023C28.9941 26.3844 27.5858 30.662 26.2308 34.9574C26.0174 35.606 25.693 35.6942 25.1468 35.6699C24.6005 35.6457 24.1609 35.7273 23.9454 34.9684C23.3885 33.0093 22.7206 31.0856 22.0911 29.1508C21.2376 26.5454 20.384 23.9422 19.4665 21.1338C18.6706 23.598 17.9109 25.8306 17.2409 28.0897C17.0019 28.8971 16.62 29.153 15.8219 29.1354C13.4939 29.0847 11.1637 29.1178 8.68207 29.1178Z" fill="#FAFBFC"/>
<path d="M8.68207 29.1178C11.1637 29.1178 13.4939 29.0847 15.8219 29.1354C16.62 29.153 17.0019 28.8971 17.2409 28.0897C17.9109 25.8306 18.6706 23.598 19.4665 21.1338C20.3862 23.9422 21.2418 26.5454 22.0911 29.1508C22.7313 31.0856 23.3885 33.0093 23.9454 34.9684C24.1588 35.7273 24.6133 35.6479 25.1468 35.6699C25.6802 35.692 26.0259 35.606 26.2308 34.9574C27.5858 30.662 29.0048 26.3844 30.3853 22.1023C30.4643 21.8618 30.5539 21.628 30.714 21.1801C31.4949 23.5716 32.2717 25.7622 32.9054 27.9948C33.17 28.9236 33.6053 29.1553 34.4716 29.1354C36.7634 29.0825 39.0573 29.1178 41.3469 29.1178C41.6542 34.1786 38.2571 38.7938 33.2767 39.8307C27.8198 40.9578 22.2 40.945 16.748 39.7932C12.2669 38.8666 9.80234 35.7648 8.98721 31.1893C8.87412 30.5473 8.79517 29.8965 8.68207 29.1178Z" fill="#021C60"/>
</svg>
