<svg width="50" height="50" viewBox="0 0 50 50" fill="none" xmlns="http://www.w3.org/2000/svg">
<rect width="50" height="50" fill="#011B60"/>
<path d="M23.3903 8.72217H27.2078C27.4509 8.81774 27.7015 8.89155 27.9568 8.94278C29.6084 9.10383 31.2706 9.16339 32.9094 9.41268C36.3235 9.92891 38.9375 11.6409 40.2967 15.0339C41.6752 18.4798 41.7307 22.1111 41.6389 25.7997H35.4871C34.2857 22.1067 33.0673 18.4247 31.9044 14.7228C31.691 14.0146 31.3922 13.7654 30.6561 13.7786C29.9626 13.7918 29.715 14.0477 29.5081 14.7008C28.2064 18.8196 26.8557 22.923 25.5199 27.0308C25.4068 27.3771 25.2831 27.7169 25.0739 28.3169C23.4373 23.2804 21.9052 18.5593 20.3795 13.847H18.5849C17.3665 17.5974 16.1332 21.3037 14.9574 25.0386C14.744 25.6894 14.4709 25.8637 13.8478 25.8505C12.0106 25.8108 10.1734 25.8372 8.33398 25.8372V22.7575C8.42723 22.5875 8.49895 22.4059 8.54737 22.217C8.701 20.9926 8.77356 19.755 8.97414 18.5416C9.77006 13.9396 12.1557 10.7341 16.7072 9.69286C18.6276 9.25164 20.6057 9.18766 22.556 8.93837C22.8385 8.88585 23.1173 8.81361 23.3903 8.72217Z" fill="white"/>
<path d="M8.68256 29.1178C8.79566 29.8965 8.87461 30.5473 8.9877 31.1893C9.80283 35.7648 12.2631 38.8666 16.7485 39.7932C22.2005 40.945 27.8203 40.9578 33.2772 39.8307C38.2576 38.7938 41.6546 34.1786 41.3474 29.1178C39.0578 29.1178 36.7639 29.0825 34.4721 29.1354C33.6058 29.1553 33.1705 28.9148 32.9059 27.9948C32.2658 25.7622 31.4954 23.5716 30.7144 21.1801C30.5544 21.6214 30.4648 21.8618 30.3858 22.1023C28.9946 26.3844 27.5862 30.662 26.2313 34.9574C26.0179 35.6059 25.6935 35.6942 25.1473 35.6699C24.601 35.6457 24.1614 35.7273 23.9459 34.9684C23.389 33.0093 22.7211 31.0856 22.0916 29.1508C21.2381 26.5454 20.3845 23.9422 19.467 21.1338C18.6711 23.598 17.9114 25.8306 17.2414 28.0897C17.0024 28.8971 16.6204 29.153 15.8224 29.1354C13.4944 29.0847 11.1642 29.1178 8.68256 29.1178Z" fill="#011B60"/>
<path d="M8.68256 29.1178C11.1642 29.1178 13.4944 29.0847 15.8224 29.1354C16.6204 29.153 17.0024 28.8971 17.2414 28.0897C17.9114 25.8306 18.6711 23.598 19.467 21.1338C20.3867 23.9422 21.2423 26.5454 22.0916 29.1508C22.7318 31.0856 23.389 33.0093 23.9459 34.9684C24.1593 35.7273 24.6138 35.6479 25.1473 35.6699C25.6807 35.692 26.0264 35.6059 26.2313 34.9574C27.5862 30.662 29.0052 26.3844 30.3858 22.1023C30.4648 21.8618 30.5544 21.628 30.7144 21.1801C31.4954 23.5716 32.2722 25.7622 32.9059 27.9948C33.1705 28.9236 33.6058 29.1553 34.4721 29.1354C36.7639 29.0825 39.0578 29.1178 41.3474 29.1178C41.6546 34.1786 38.2576 38.7938 33.2772 39.8307C27.8203 40.9578 22.2005 40.945 16.7485 39.7932C12.2674 38.8666 9.80283 35.7648 8.9877 31.1893C8.87461 30.5473 8.79566 29.8965 8.68256 29.1178Z" fill="white"/>
</svg>
