<svg width="50" height="50" viewBox="0 0 50 50" fill="none" xmlns="http://www.w3.org/2000/svg">
<path d="M11 26.639H13.4559C13.4559 29.9168 15.4489 32.9367 17.6854 35.1756L15.98 36.9512C16.7511 37.7166 17.5966 38.4029 18.504 39L20.2777 37.1561C22.8439 38.6974 25.9852 39.2715 28.9414 38.8795C31.806 38.4995 34.4789 37.2278 36.582 35.2439L34.2625 32.9219C31.6007 35.3593 27.7808 36.2769 24.3026 35.3122C19.7713 34.0068 16.5757 29.7299 16.5757 25C16.5757 20.2917 19.7423 16.0016 24.3026 14.6878C27.7808 13.7231 31.6007 14.6407 34.2625 17.078L36.582 14.7561C34.4789 12.7722 31.806 11.5004 28.9414 11.1205C25.752 10.6975 23.1668 11.6188 20.2777 12.7756L18.504 11C17.5969 11.5974 16.7514 12.2838 15.98 13.0488L17.6854 14.8244C15.1935 16.8202 13.9623 20.3196 13.4559 23.361H11" fill="#0027D6"/>
<path d="M25.1516 17.1463C24.1097 17.542 23.1502 18.1407 22.3547 18.922C23.9107 20.4796 25.4683 21.9876 27.13 23.4293H20.0352C19.8128 24.5106 19.8128 25.626 20.0352 26.7073H27.13C25.4242 28.0734 23.8988 29.6005 22.3547 31.1463C23.0275 31.8049 23.8131 32.337 24.6741 32.7171L25.1516 32.922C29.1083 29.0976 32.5192 26.7756 39 26.7073V23.4293C32.5192 23.2927 29.1083 20.9707 25.1516 17.1463Z" fill="#0027D6"/>
</svg>
