<svg width="50" height="50" viewBox="0 0 50 50" fill="none" xmlns="http://www.w3.org/2000/svg">
<path d="M43 25C43 34.9411 34.9411 43 25 43C15.0589 43 7 34.9411 7 25C7 15.0589 15.0589 7 25 7C34.9411 7 43 15.0589 43 25Z" fill="#165C7D"/>
<path d="M20.1229 33.1708C20.0456 33.3062 19.8716 33.4028 19.6202 33.4802C19.4849 33.5188 19.3496 33.5188 19.1949 33.4995C19.0402 33.4802 18.9049 33.4802 18.7502 33.4802H17.0874C16.8747 33.4802 16.6813 33.4802 16.5073 33.4608C16.3333 33.4415 16.1786 33.3835 16.082 33.2868C15.9853 33.1902 15.9273 33.0548 15.9079 32.8615C15.8886 32.6681 15.8693 32.4748 15.8693 32.2814V15.4987C15.8693 15.2474 15.8693 14.938 15.8499 14.5707C15.8306 14.2226 15.8886 13.9713 15.9659 13.8166C16.0433 13.7006 16.1593 13.6039 16.3333 13.5266C16.3913 13.5266 16.4493 13.5266 16.488 13.5073C16.5267 13.5073 16.5847 13.4879 16.6233 13.4879H19.0402C19.2529 13.4879 19.4462 13.4879 19.6202 13.5073C19.8136 13.5266 19.9489 13.5846 20.0456 13.7199C20.1423 13.8553 20.181 14.0293 20.2003 14.2226C20.2003 14.4353 20.2196 14.648 20.2196 14.8994V31.682C20.2196 31.9334 20.2196 32.2041 20.239 32.4941C20.2583 32.7841 20.2196 33.0161 20.1229 33.1708ZM36.5769 24.7021V31.74C36.5769 32.0881 36.5769 32.4361 36.5576 32.7648C36.5383 33.0935 36.4029 33.3062 36.1516 33.4028C36.0356 33.4415 35.9002 33.4608 35.7649 33.4608H33.7927C33.5607 33.4608 33.3673 33.4415 33.1933 33.4222C33.0193 33.4028 32.884 33.3062 32.7873 33.1902C32.71 33.0741 32.6713 32.9388 32.6519 32.7648C32.6519 32.5908 32.6326 32.3974 32.6326 32.1847V26.0362C32.6326 25.3402 32.6133 24.7021 32.5553 24.1221C32.4973 23.5421 32.3233 23.0393 32.0526 22.614C31.8399 22.3046 31.5305 22.0533 31.1245 21.8986C30.8731 21.7632 30.4478 21.6859 29.9837 21.6859C29.423 21.6859 28.959 21.8019 28.727 21.9759C28.5336 22.0533 28.3596 22.1499 28.2243 22.2466C27.6249 22.672 27.2769 23.31 27.1608 24.1221C27.0448 24.9535 26.9868 25.8816 26.9868 26.9063V32.6294C26.9868 32.8035 26.9675 32.9388 26.9095 33.0548C26.8128 33.2675 26.6581 33.3835 26.4648 33.4222C26.2521 33.4608 26.0007 33.4802 25.7107 33.4802H24.2993C24.0866 33.4802 23.8933 33.4802 23.6806 33.4608C23.4679 33.4415 23.3325 33.3835 23.2359 33.2675C23.1005 33.0935 23.0425 32.8615 23.0618 32.5328C23.0618 32.2234 23.0812 31.9141 23.0812 31.6434V20.2164C23.0812 20.0038 23.0812 19.8298 23.1005 19.6557C23.1199 19.4817 23.1585 19.3464 23.2552 19.2304C23.2939 19.1724 23.3519 19.1337 23.4292 19.1144C23.5066 19.095 23.6032 19.0564 23.6999 19.037H23.8353C23.9319 19.0177 24.0286 19.0177 24.1253 19.0177H25.5947C25.7494 19.0177 25.8847 19.0177 26.0394 19.037C26.1748 19.037 26.3101 19.0757 26.4261 19.1144C26.5615 19.1724 26.6388 19.2497 26.6968 19.3657C26.7355 19.4624 26.7355 19.5784 26.7742 19.6944C26.8515 20.0231 26.9288 20.3711 27.1802 20.3905C27.2962 20.4098 27.3929 20.3518 27.4895 20.2745C27.5282 20.2358 27.6442 20.1198 27.6829 20.0811C27.8182 19.9264 28.0696 19.6944 28.2243 19.5977C28.3403 19.5204 28.4176 19.4624 28.5143 19.4044C28.785 19.211 29.191 19.037 29.6744 18.9017C29.6937 18.9017 29.713 18.8823 29.7324 18.8823C29.8871 18.8243 30.0417 18.805 30.2158 18.7857C30.2931 18.7663 30.3511 18.7663 30.4284 18.747C31.0471 18.6503 31.6272 18.631 32.0719 18.6697C32.8646 18.7083 33.5413 18.863 34.1021 19.1337C34.8561 19.4817 35.4362 20.0038 35.8615 20.6998C35.9969 20.9125 36.0936 21.1252 36.1709 21.3572C36.2482 21.5892 36.3256 21.8212 36.4029 22.0726C36.4416 22.2273 36.4609 22.3626 36.4803 22.498C36.4803 22.6333 36.5189 22.7687 36.5576 22.8847C36.5576 23.0007 36.5769 23.078 36.5963 23.1167C36.6349 23.3874 36.6543 23.6581 36.6543 23.9287V24.7021H36.5769Z" fill="white"/>
</svg>
