<svg width="50" height="50" viewBox="0 0 50 50" fill="none" xmlns="http://www.w3.org/2000/svg">
<path d="M24.1812 9.5C30.5016 9.60533 35.6704 10.9204 40.4876 13.653C41.2055 14.0592 41.5249 14.5257 41.4985 15.4074C41.3403 20.5836 39.8195 25.3595 37.4988 29.8947C35.4799 33.84 33.0069 37.4513 29.4848 40.1507C28.2902 41.0026 27.0243 41.7439 25.702 42.3656C25.2453 42.5448 24.7404 42.5448 24.2838 42.3656C21.38 41.2461 19.0681 39.2539 17.0931 36.8674C12.6979 31.5348 9.81166 25.4317 8.75387 18.4951C8.57513 17.3244 8.60443 16.1237 8.50774 14.941C8.48105 14.7243 8.52381 14.5046 8.62955 14.3151C8.73529 14.1256 8.89825 13.9766 9.09377 13.8907C12.334 11.9359 15.9019 10.6212 19.6131 10.0146C21.3917 9.72871 23.2055 9.61135 24.1812 9.5ZM36.9538 22.5879C37.2761 20.8244 37.5603 19.1571 37.8944 17.502C38.0116 16.9151 37.8475 16.6323 37.3289 16.3674C33.2271 14.2757 28.6816 13.2692 24.105 13.4393C20.0897 13.5367 16.1471 14.56 12.569 16.4336C12.3463 16.551 12.0327 16.879 12.062 17.0626C12.3375 18.8682 12.6744 20.6739 13.0114 22.5758C21.0635 17.5712 28.9281 17.5772 36.9538 22.5879ZM32.9043 31.1496L35.5034 26.2443C29.5522 21.3119 19.8123 21.673 14.4765 26.2443C15.2002 27.6045 15.9416 28.9828 16.6712 30.3581C16.803 30.5989 16.9642 30.8186 17.1224 31.0533C19.3737 29.2288 22.1621 28.2445 25.0298 28.262C27.8975 28.2795 30.6743 29.2977 32.9043 31.1496V31.1496ZM19.3669 34.2342C20.8496 35.9977 22.4143 37.5927 24.4156 38.64C24.5855 38.7202 24.7695 38.764 24.9564 38.7686C25.1434 38.7733 25.3292 38.7387 25.5027 38.6671C27.5392 37.6198 29.1039 35.9917 30.5807 34.2583C27.8234 31.4204 22.4495 31.3964 19.3669 34.2342Z" fill="#02B739"/>
</svg>
