<svg width="50" height="50" viewBox="0 0 50 50" fill="none" xmlns="http://www.w3.org/2000/svg">
<path d="M10.0925 16.2563V33.7563L24.9999 42.5V38.1345L13.8194 31.5609V18.4391L10.0925 16.2563Z" fill="#F96B13"/>
<path d="M36.1805 18.4391V35.9391L39.9074 33.7563V16.2563L36.1805 18.4391Z" fill="#CC4E00"/>
<path d="M21.2731 9.68277L36.1805 18.4391L39.9074 16.2563L24.9999 7.5L21.2731 9.68277Z" fill="#FFCA73"/>
<path d="M10.0925 16.2563L13.8194 18.4391L17.5462 16.2563L13.8194 14.0609L10.0925 16.2563Z" fill="#FFCA73"/>
<path d="M13.8194 18.4391V31.5609L17.5462 29.3781L17.5462 16.2563L13.8194 18.4391Z" fill="#CC4E00"/>
<path d="M24.9999 38.1345V42.5L28.7268 40.3173V35.9391L24.9999 38.1345Z" fill="#CC4E00"/>
<path d="M13.8194 31.5609L24.9999 38.1345L28.7268 35.9391L17.5462 29.3781L13.8194 31.5609Z" fill="#FFCA73"/>
<path d="M21.2731 9.68277V14.0609L32.4537 20.6219V33.7564L36.1805 35.9391V18.4391L21.2731 9.68277Z" fill="#F96B13"/>
</svg>
