<svg width="50" height="50" viewBox="0 0 50 50" fill="none" xmlns="http://www.w3.org/2000/svg">
<path d="M36.6299 26.7808C36.6462 28.4639 37.868 29.8717 39.4755 30.0809C41.1277 30.2955 42.6655 29.241 43.0731 27.5865C43.1549 27.2552 43.1647 26.8986 43.1669 26.554L43.1451 21.7294H45C45 21.7294 44.9978 27.6735 44.891 27.9025C44.3592 29.9763 42.9271 31.3611 40.8563 31.9676H38.7311C36.5754 31.3875 34.8807 29.2487 34.8414 26.9998L34.8621 21.7228H36.6048L36.6299 26.7808Z" fill="#4B4C4D"/>
<path d="M14.8327 26.7808C14.8491 28.4639 16.0708 29.8717 17.6783 30.0809C19.3306 30.2955 20.8683 29.241 21.276 27.5865C21.3577 27.2552 21.3675 26.8986 21.3697 26.554C21.3784 24.9623 21.3479 21.7294 21.3479 21.7294H23.2028C23.2028 23.6621 23.2007 27.6735 23.0938 27.9025C22.5851 29.8861 21.2527 31.2394 19.3256 31.8841C19.1501 31.9428 18.9653 31.9676 18.7805 31.9676H17.1908C17.0203 31.9676 16.8498 31.9473 16.6877 31.8939C14.6505 31.223 13.082 29.1623 13.0443 26.9998L13.065 21.7228H14.8076L14.8327 26.7808Z" fill="#4B4C4D"/>
<path d="M5 21.7294H6.82878C6.82878 21.7294 6.82878 22.1554 6.82878 22.3502C6.82878 24.4185 6.8266 26.4858 6.82878 28.5541C6.82987 29.5624 7.37589 30.1172 8.36657 30.1194C10.0144 30.1227 13.3756 30.1194 13.3756 30.1194V31.9852C13.3756 31.9852 9.45424 31.9852 7.50668 31.9852C6.5803 31.9852 5 30.5905 5 29.3434V21.7294Z" fill="#4C4D4E"/>
<path d="M25.6681 31.9995C25.0708 32.0006 23.8546 31.9995 23.8546 31.9995H23.8742V21.7294C24.7372 22.396 25.5895 23.0493 26.4356 23.6978C27.2881 24.3512 28.1345 24.9999 28.9794 25.6528C30.0362 24.8362 31.0857 24.0256 32.1492 23.2043C32.7794 22.7176 33.4145 22.2272 34.0589 21.7294V31.9995H34.0785C34.0785 31.9995 32.8622 32.0006 32.265 31.9995V25.4335L28.9802 27.9674H28.9529L25.6681 25.4335V31.9995Z" fill="#4B4C4D"/>
<path d="M18.111 23.823C19.6281 23.8186 20.888 25.0933 20.876 26.6201C20.864 28.1424 19.6499 29.3665 18.1383 29.3808C16.5994 29.3951 15.3558 28.1633 15.3515 26.6201C15.3471 25.0757 16.5787 23.8285 18.1099 23.8241L18.111 23.823ZM15.9803 26.6278C15.9923 27.8232 16.9623 28.7809 18.147 28.7644C19.3218 28.749 20.2678 27.7561 20.2493 26.5584C20.2319 25.3729 19.2565 24.4439 18.05 24.4637C16.8882 24.4824 15.9683 25.4445 15.9792 26.6289L15.9803 26.6278Z" fill="#F8900A"/>
<path d="M24.0898 18.0254C24.1962 17.9179 24.3687 17.9179 24.4751 18.0254C24.5815 18.1329 24.5815 18.3071 24.4751 18.4146L19.4192 23.5211C19.3128 23.6286 19.1403 23.6286 19.0339 23.5211C18.9275 23.4136 18.9275 23.2394 19.0339 23.1319L24.0898 18.0254Z" fill="#F8900A"/>
<path d="M24.6427 22.0752C24.7491 21.9677 24.9217 21.9677 25.0281 22.0752C25.1345 22.1826 25.1345 22.3569 25.0281 22.4643L21.802 25.7226C21.6956 25.8301 21.5231 25.8301 21.4167 25.7226C21.3103 25.6152 21.3103 25.4409 21.4167 25.3335L24.6427 22.0752Z" fill="#F8900A"/>
<path d="M25.6927 21.0377C25.7991 20.9303 25.9716 20.9303 26.078 21.0377C26.1844 21.1452 26.1844 21.3195 26.078 21.4269L25.7255 21.783C25.6191 21.8904 25.4466 21.8904 25.3402 21.783C25.2338 21.6755 25.2338 21.5013 25.3402 21.3938L25.6927 21.0377Z" fill="#F8900A"/>
<path d="M25.0536 17.0806C25.1601 16.9731 25.3326 16.9731 25.439 17.0806C25.5454 17.1881 25.5454 17.3623 25.439 17.4698L25.0865 17.8258C24.9801 17.9333 24.8075 17.9333 24.7011 17.8258C24.5947 17.7184 24.5947 17.5441 24.7011 17.4366L25.0536 17.0806Z" fill="#F8900A"/>
<path d="M26.5362 17.8511C26.6426 17.7437 26.8151 17.7437 26.9215 17.8511C27.0279 17.9586 27.0279 18.1328 26.9215 18.2403L20.9301 24.2916C20.8237 24.3991 20.6512 24.3991 20.5448 24.2916C20.4384 24.1842 20.4384 24.0099 20.5448 23.9025L26.5362 17.8511Z" fill="#F8900A"/>
</svg>
