<svg width="50" height="50" viewBox="0 0 50 50" fill="none" xmlns="http://www.w3.org/2000/svg">
<path d="M40.9201 21.8923C40.5549 20.9941 40.0363 20.1796 39.3783 19.4749C38.7287 18.776 37.9787 18.2243 37.1562 17.8344C36.2947 17.4272 35.4026 17.2193 34.502 17.2193H32.6201L30.9222 14.9405C30.6713 14.6026 30.3423 14.3282 29.9715 14.1434C29.6146 13.9672 29.2159 13.8719 28.82 13.8719C28.229 13.8719 27.6686 14.0712 27.2002 14.4437C26.1268 15.3015 25.8647 16.8467 26.5422 18.0222C25.6528 18.5305 24.8499 19.241 24.203 20.1103C23.7068 20.7775 23.3192 21.5139 23.0516 22.2995C22.77 23.1284 22.625 23.992 22.625 24.8642C22.625 25.8953 22.823 26.9061 23.2133 27.8621C23.5813 28.7661 24.1054 29.5863 24.7662 30.2968C25.4214 30.9986 26.1742 31.556 27.005 31.9488C27.8721 32.3589 28.7754 32.5669 29.6843 32.5669H31.6805L33.3088 34.7532C33.5541 35.0825 33.8775 35.354 34.2372 35.533C34.5857 35.7063 34.976 35.7987 35.3635 35.7987C35.9407 35.7987 36.4899 35.6052 36.9471 35.2384C38.0122 34.3864 38.2631 32.8413 37.5605 31.6831C38.4638 31.1777 39.2807 30.4614 39.9331 29.5834C40.4238 28.922 40.8086 28.1913 41.0762 27.4115C41.3578 26.5884 41.5 25.7335 41.5 24.8642C41.5028 23.8447 41.3076 22.8454 40.9201 21.8923ZM36.3923 24.8988C36.3923 26.2736 35.3161 27.3884 33.989 27.3884H30.2559C28.9287 27.3884 27.8526 26.2736 27.8526 24.8988C27.8526 23.5241 28.9287 22.4093 30.2559 22.4093H33.989C35.3161 22.4093 36.3923 23.5241 36.3923 24.8988Z" fill="#0069B3"/>
<path d="M40.4424 24.8701C40.4424 21.2541 37.5484 18.3198 34.4983 18.3198H33.4862L36.5754 22.4614C36.5893 22.4816 36.6004 22.5018 36.6144 22.5191C37.1358 23.1516 37.4508 23.9719 37.4508 24.8672C37.4508 26.8629 35.8867 28.4832 33.9602 28.4832H33.9407C33.9379 28.4832 33.9323 28.4832 33.9295 28.4832H29.9761L32.1619 31.4146L34.1498 34.0891C34.6683 34.7851 35.633 34.9122 36.3049 34.3779C36.9768 33.8407 37.0995 32.8414 36.5837 32.1453L35.8923 31.2182C38.3736 30.4962 40.4424 27.9286 40.4424 24.8701Z" fill="white"/>
<path d="M23.7422 24.8701C23.7422 28.486 26.6362 31.4204 29.6863 31.4204H30.6983L27.612 27.2759C27.598 27.2557 27.5869 27.2354 27.5729 27.2181C27.0516 26.5856 26.7365 25.7654 26.7365 24.8701C26.7365 22.8743 28.3006 21.2541 30.2272 21.2541H30.2467C30.2495 21.2541 30.255 21.2541 30.2578 21.2541H34.2113L32.5942 19.0851L32.0282 18.3197L30.0404 15.6511C29.5218 14.955 28.5571 14.828 27.8852 15.3623C27.2133 15.8995 27.0906 16.8988 27.6064 17.5948L28.2978 18.5219C25.8137 19.2439 23.7422 21.8115 23.7422 24.8701Z" fill="white"/>
<path d="M8.5 12.0784V37.9216L27.5311 41.5V8.5L8.5 12.0784Z" fill="#0069B3"/>
<path d="M22.1642 32.0123L14.2295 31.5358V17.3809L17.012 17.1412V28.9509L22.1642 29.1877V32.0123Z" fill="white"/>
</svg>
