<svg width="50" height="50" viewBox="0 0 50 50" fill="none" xmlns="http://www.w3.org/2000/svg">
<path d="M29.6911 6.66111C37.4374 12.0952 34.1966 24.6415 25.976 26C36.4888 26 39.9668 11.4559 29.6911 6.66111Z" fill="#FFCE26"/>
<path d="M21.4706 6.58113C30.6397 5.22261 34.4338 16.6501 30.4025 21.9244C37.0422 15.2117 31.7463 3.22479 21.4706 6.58113Z" fill="#0879B8"/>
<path d="M16.0956 12.0952C20.6011 5.30262 30.0073 9.45809 30.9559 16.3306C32.0625 7.93974 20.9963 3.22489 16.0956 12.0952Z" fill="#069B4F"/>
<path d="M15.8584 17.2096C16.965 10.1773 25.976 9.45809 29.2959 14.4127C26.6084 7.38036 16.0165 8.2594 15.8584 17.2096Z" fill="#CB2034"/>
<path d="M32.3147 42.863C32.3147 42.5652 32.1846 42.3261 31.3838 42.1704C30.5004 41.9856 29.9257 41.6829 29.9257 41.0148C29.9257 40.3757 30.5243 39.8444 31.4249 39.8444C32.394 39.8444 32.9652 40.4032 32.9652 41.0963H32.2736C32.2736 40.7633 31.9752 40.4074 31.4249 40.4074C30.861 40.4074 30.6211 40.695 30.6211 40.9963C30.6211 41.2859 30.7839 41.4446 31.552 41.6148C32.5465 41.837 33.0064 42.1667 33.0064 42.8111C33.0064 43.4992 32.4133 44 31.4436 44C30.3743 44 29.7874 43.3556 29.7874 42.6889H30.4828C30.5124 43.2463 31.0142 43.437 31.4436 43.437C32.0183 43.437 32.3147 43.1944 32.3147 42.863Z" fill="#7F8BA5"/>
<path d="M28.2096 43V39.9185H28.905V43.9259H28.2433L28.2096 43ZM28.2732 43.4741C28.0245 43.8042 27.6265 44 27.0469 44C26.2681 44 25.7197 43.5772 25.7197 42.5037V39.9185H26.4113V42.5111C26.4113 43.2306 26.7828 43.4185 27.1553 43.4185C27.7455 43.4185 28.0755 43.1753 28.2246 42.7963C28.6984 41.6152 28.6222 43.0108 28.2732 43.4741Z" fill="#7F8BA5"/>
<path d="M24.6243 38.237V43.9259H23.9289V38.237H24.6243Z" fill="#7F8BA5"/>
<path d="M21.1548 41.8111H19.7004V41.2296H21.1548C22.0015 41.2296 22.3437 40.79 22.3437 40.1852C22.3437 40 22.3026 39.8259 22.2203 39.663C22.0603 39.336 21.7164 39.1185 21.1548 39.1185H19.8687V43.9259H19.1471V38.5333H21.1548C22.3855 38.5333 23.0652 39.2175 23.0652 40.1778C23.0652 41.2137 22.3912 41.8111 21.1548 41.8111Z" fill="#7F8BA5"/>
<path d="M43.7363 32.0148V35.3926H43.0447V31.3852H43.7176L43.7363 32.0148ZM45 31.363L44.9963 32C44.7529 31.9476 44.4697 31.9505 44.2373 32.0444C43.9931 32.1432 43.8248 32.3235 43.7251 32.5704C43.3742 33.4669 43.5224 32.1782 43.7363 31.837C43.8385 31.6716 43.9681 31.5432 44.1252 31.4519C44.3537 31.3174 44.7465 31.2374 45 31.363Z" fill="#7F8BA5"/>
<path d="M40.6631 35.4667C39.8233 35.4667 39.1993 35.0233 38.9359 34.3074C38.8247 34.0052 38.805 33.6924 38.805 33.3741C38.805 32.0621 39.6681 31.3111 40.5734 31.3111C41.4439 31.3111 41.945 31.7759 42.1399 32.4963C42.2047 32.7333 42.2371 32.9926 42.2371 33.2741V33.5815H39.2163V33.0222H41.5455V32.9704C41.5157 32.4388 41.2849 31.8741 40.5734 31.8741C39.9488 31.8741 39.5004 32.4044 39.5004 33.3741V33.5296C39.5004 33.7198 39.5266 33.8988 39.5789 34.0667C39.7453 34.5685 40.1392 34.9074 40.7005 34.9074C41.189 34.9074 41.5118 34.6938 41.7661 34.363L42.1848 34.6926C41.924 35.0837 41.4692 35.4667 40.6631 35.4667Z" fill="#7F8BA5"/>
<path d="M37.3058 31.3852H37.9339V35.3074C37.9339 36.3653 37.2337 36.9741 36.2216 36.9741C35.6646 36.9741 35.0499 36.7413 34.7224 36.2778L35.0851 35.8704C35.426 36.2776 35.8074 36.4111 36.1693 36.4111C36.8261 36.4111 37.2423 36.0395 37.2423 35.3407V32.2667L37.3058 31.3852ZM34.5205 33.4333V33.3556C34.5205 32.1143 35.1397 31.3111 36.1169 31.3111C36.6269 31.3111 37.005 31.4911 37.2684 31.8259C37.9412 32.6529 37.9287 34.144 37.2684 34.9556C37.0049 35.2856 36.6241 35.4667 36.1094 35.4667C35.0171 35.4667 34.5205 34.3836 34.5205 33.4333ZM35.2122 33.3556V33.4333C35.2122 34.2371 35.5293 34.8852 36.2777 34.8852C37.8402 34.8852 37.8681 31.8889 36.2852 31.8889C35.5504 31.8889 35.2122 32.5323 35.2122 33.3556Z" fill="#7F8BA5"/>
<path d="M32.9054 34.7074V32.6444C32.9054 32.168 32.6124 31.863 32.053 31.863C31.5372 31.863 31.1781 32.1584 31.1781 32.4963H30.4865C30.4865 31.9157 31.1372 31.3111 32.0941 31.3111C32.981 31.3111 33.5971 31.7565 33.5971 32.6519V34.5185C33.5971 34.7855 33.6445 35.1163 33.7391 35.3333V35.3926H33.0176C32.9827 35.3136 32.9553 35.2086 32.9353 35.0778C32.9154 34.9444 32.9054 34.821 32.9054 34.7074ZM33.025 32.963L33.0325 33.4444C32.6278 33.4444 32.2052 33.4097 31.8062 33.4926C31.3457 33.5809 31.0959 33.8099 31.0959 34.1852C31.0959 34.8736 31.9374 35.0039 32.4306 34.7333C32.5926 34.6444 32.721 34.5358 32.8157 34.4074C32.9129 34.279 32.9652 34.1543 32.9727 34.0333C33.3332 34.4356 33.2497 34.6817 32.8157 35.0704C32.6886 35.184 32.5365 35.279 32.3596 35.3556C31.5545 35.6974 30.4005 35.2526 30.4005 34.2778C30.4005 33.6266 30.8027 33.217 31.4698 33.0481C31.9739 32.9205 32.5098 32.963 33.025 32.963Z" fill="#7F8BA5"/>
<path d="M26.9796 32.2407V35.3926H26.288V31.3852H26.9422L26.9796 32.2407ZM26.9871 31.8556C27.2784 31.5073 27.6874 31.3111 28.1723 31.3111C28.7707 31.3111 29.2014 31.5438 29.3798 32.0963C29.4397 32.279 29.4696 32.5025 29.4696 32.7667V35.3926H28.7742V32.7593C28.7742 32.1213 28.4845 31.8889 27.9666 31.8889C27.6251 31.8889 27.3387 32.039 27.1329 32.2926C27.0332 32.4185 26.9547 32.563 26.8974 32.7259C26.5635 33.7032 26.6184 32.2964 26.9871 31.8556Z" fill="#7F8BA5"/>
<path d="M24.5084 34.7074V32.6444C24.5084 32.168 24.2154 31.863 23.6559 31.863C23.1401 31.863 22.7811 32.1584 22.7811 32.4963H22.0894C22.0894 32.0639 22.4484 31.6123 23.0316 31.4148C23.6821 31.1893 24.6054 31.2777 25.0056 31.9074C25.1352 32.1049 25.2 32.3531 25.2 32.6519V34.5185C25.2 34.7855 25.2475 35.1163 25.3421 35.3333V35.3926H24.6205C24.5856 35.3136 24.5582 35.2086 24.5383 35.0778C24.5183 34.9444 24.5084 34.821 24.5084 34.7074ZM24.628 32.963L24.6355 33.4444C24.2307 33.4444 23.8082 33.4097 23.4092 33.4926C22.9486 33.5809 22.6989 33.8099 22.6989 34.1852C22.6989 34.8736 23.5403 35.0039 24.0336 34.7333C24.3591 34.5547 24.5608 34.2742 24.5757 34.0333C24.8095 34.2943 24.9293 34.3809 24.7289 34.7074C24.576 34.9567 24.3201 35.2009 23.9625 35.3556C23.1574 35.6974 22.0035 35.2526 22.0035 34.2778C22.0035 33.6266 22.4056 33.217 23.0727 33.0481C23.5769 32.9205 24.1128 32.963 24.628 32.963Z" fill="#7F8BA5"/>
<path d="M15.7711 30H16.4702L18.2536 34.3963L20.0332 30H20.736L18.5228 35.3926H17.9769L15.7711 30ZM15.543 30H16.1599L16.2609 33.2889V35.3926H15.543V30ZM20.3435 30H20.9604V35.3926H20.2425V33.2889L20.3435 30Z" fill="#7F8BA5"/>
<path d="M11.9913 35.3926H10.8548L10.8622 34.8111H11.9913C13.1651 34.8111 13.7447 34.0274 13.7447 32.8593V32.5296C13.7447 31.2843 13.1365 30.5852 12.0586 30.5852H10.8323V30H12.0586C13.4786 30 14.4588 30.9671 14.4588 32.537V32.8593C14.4588 34.4035 13.5251 35.3926 11.9913 35.3926ZM11.2398 30V35.3926H10.5183V30H11.2398Z" fill="#7F8BA5"/>
<path d="M7.53855 30.4778L5.73652 35.3926H5L7.07496 30H7.54977L7.53855 30.4778ZM9.04898 35.3926L7.2432 30.4778L7.23198 30H7.70679L9.78923 35.3926H9.04898ZM8.95551 33.3963V33.9815H5.89728V33.3963H8.95551Z" fill="#7F8BA5"/>
</svg>
