<svg width="50" height="50" viewBox="0 0 50 50" fill="none" xmlns="http://www.w3.org/2000/svg">
<path d="M29.6741 7.92556C40.1316 15.5333 35.7565 33.0981 24.6588 35C38.8511 35 43.5463 14.6382 29.6741 7.92556Z" fill="#FFCE26"/>
<path d="M18.5765 7.81358C30.9547 5.91166 36.0768 21.9102 30.6346 29.2941C39.5982 19.8964 32.4487 3.11471 18.5765 7.81358Z" fill="#0879B8"/>
<path d="M11.3203 15.5333C17.4027 6.02367 30.1011 11.8413 31.3816 21.4628C32.8755 9.71564 17.9362 3.11484 11.3203 15.5333Z" fill="#069B4F"/>
<path d="M11 22.6935C12.4939 12.8482 24.6588 11.8413 29.1406 18.7777C25.5125 8.9325 11.2134 10.1632 11 22.6935Z" fill="#CB2034"/>
<path d="M15.1369 37H14V43H14.8802V40.6593L14.7951 38.1434L16.9843 43H17.6536L19.8471 38.1502L19.7623 40.6593V43H20.6424V37H19.5056L17.3235 41.8915L15.1369 37Z" fill="#7F8BA5"/>
<path fill-rule="evenodd" clip-rule="evenodd" d="M24.0026 43H22.1965V37H24.0851C24.5222 37 24.921 37.0659 25.2816 37.1978C25.6422 37.3269 25.9524 37.5151 26.2122 37.7624C26.475 38.0069 26.6767 38.3036 26.8173 38.6525C26.9579 38.9986 27.0282 39.3887 27.0282 39.8228V40.1813C27.0282 40.6154 26.9579 41.0069 26.8173 41.3558C26.6767 41.7019 26.4735 41.9973 26.2076 42.2418C25.9448 42.4863 25.6269 42.6745 25.2541 42.8063C24.8843 42.9354 24.4671 43 24.0026 43ZM24.0026 42.353H23.0812V37.6511H24.0851C24.4152 37.6511 24.7071 37.6992 24.9607 37.7953C25.2174 37.8915 25.4344 38.033 25.6117 38.2198C25.7889 38.4038 25.9234 38.6305 26.0151 38.8997C26.1067 39.1662 26.1526 39.4712 26.1526 39.8146V40.1813C26.1526 40.6181 26.0716 41 25.9096 41.3269C25.7507 41.6511 25.5123 41.9038 25.1945 42.0852C24.8767 42.2637 24.4794 42.353 24.0026 42.353Z" fill="#7F8BA5"/>
<path d="M29.4944 37L31.6811 41.8915L33.8631 37H35V43H34.1198V40.6593L34.2047 38.1502L32.0111 43H31.3418L29.1526 38.1434L29.2377 40.6593V43H28.3576V37H29.4944Z" fill="#7F8BA5"/>
</svg>
