<svg width="50" height="50" viewBox="0 0 50 50" fill="none" xmlns="http://www.w3.org/2000/svg">
<path d="M29.5992 7.82639C38.8948 14.619 35.0058 30.3019 25.1411 32C37.7565 32 41.9301 13.8198 29.5992 7.82639Z" fill="#FFCE26"/>
<path d="M19.7346 7.72641C30.7375 6.02827 35.2905 20.3127 30.453 26.9055C38.4206 18.5146 32.0655 3.53099 19.7346 7.72641Z" fill="#0879B8"/>
<path d="M13.2847 14.619C18.6913 6.12827 29.9788 11.3226 31.117 19.9132C32.4449 9.42468 19.1655 3.53111 13.2847 14.619Z" fill="#069B4F"/>
<path d="M13 21.012C14.3279 12.2216 25.1412 11.3226 29.125 17.5158C25.9 8.72544 13.1897 9.82424 13 21.012Z" fill="#CB2034"/>
<path fill-rule="evenodd" clip-rule="evenodd" d="M22.9219 37.6953C23.4547 37.6953 23.8498 37.8851 24.125 38.2383C24.1268 38.2405 24.1281 38.2429 24.1299 38.2451L24.1641 37.7734H24.8203V41.9102C24.8203 43.0259 24.0886 43.668 23.0312 43.668C22.4491 43.668 21.8069 43.4222 21.4648 42.9336L21.8438 42.5039C22.1999 42.9334 22.5985 43.0742 22.9766 43.0742C23.6628 43.0742 24.0977 42.6823 24.0977 41.9453V41.5693C23.8233 41.8972 23.4353 42.0781 22.9141 42.0781C21.7659 42.0781 21.2539 40.9283 21.2539 39.9336V39.8516C21.2539 38.5425 21.9009 37.6953 22.9219 37.6953ZM23.0977 38.3047C22.33 38.3047 21.9766 38.9833 21.9766 39.8516V39.9336C21.9766 40.7812 22.3078 41.4648 23.0898 41.4648C23.569 41.4648 23.8724 41.2435 24.0547 40.9102C24.0699 40.8831 24.0835 40.855 24.0977 40.8271V38.9209C23.9155 38.5653 23.6023 38.3047 23.0977 38.3047Z" fill="#1C1D1F"/>
<path fill-rule="evenodd" clip-rule="evenodd" d="M18.5898 37.6953C19.7785 37.6953 20.5195 38.6177 20.5195 39.8438C20.5195 40.9974 19.8155 42.0781 18.5977 42.0781C17.4058 42.0781 16.6719 41.1505 16.6719 39.9336V39.8438C16.6719 38.7301 17.3879 37.6953 18.5898 37.6953ZM18.5898 38.2891C17.8165 38.2891 17.3945 38.9905 17.3945 39.8438C17.3945 40.5997 17.7006 41.4844 18.5977 41.4844C19.4051 41.4844 19.793 40.7627 19.793 39.9336C19.793 39.1813 19.4545 38.2891 18.5898 38.2891Z" fill="#1C1D1F"/>
<path d="M27.5391 36.2344C28.5649 36.2344 29.2578 36.7742 29.2578 37.8438C29.2578 38.3945 28.8507 38.8609 28.3682 39.0771C28.3822 39.0818 28.3966 39.0849 28.4102 39.0898C29.1232 39.3484 29.3438 39.9046 29.3438 40.4141C29.3438 41.4681 28.5801 42.0781 27.543 42.0781C26.555 42.0781 25.7383 41.4973 25.7383 40.4961H26.4609C26.4609 41.0942 26.8834 41.4844 27.543 41.4844C28.2174 41.4844 28.6172 41.1327 28.6172 40.4297C28.6172 39.7148 28.1452 39.3945 27.4102 39.3945H26.8945V38.8008H27.4102C28.1831 38.8008 28.5312 38.3717 28.5312 37.8281C28.5312 37.1719 28.2109 36.8281 27.5391 36.8281C26.9393 36.8281 26.5078 37.1998 26.5078 37.8008H25.7852C25.7852 36.9314 26.4975 36.2344 27.5391 36.2344Z" fill="#1C1D1F"/>
<path fill-rule="evenodd" clip-rule="evenodd" d="M33.1758 36.918H33.1133C31.7407 36.918 31.2212 37.8181 31.1289 38.7734C31.4449 38.4167 31.8771 38.2695 32.3477 38.2695C33.3992 38.2695 33.9805 39.181 33.9805 40.1445C33.9805 41.2136 33.3753 42.0781 32.2148 42.0781C31.0564 42.0781 30.3867 40.974 30.3867 39.8945V39.5547C30.3867 37.8764 31.2207 36.3047 33.1133 36.3047H33.1758V36.918ZM32.2305 38.8672C31.649 38.8672 31.1133 39.3181 31.1133 39.918C31.1133 40.9231 31.6469 41.4805 32.2148 41.4805C32.894 41.4805 33.2656 40.9293 33.2656 40.1797C33.2656 39.491 32.9347 38.8672 32.2305 38.8672Z" fill="#1C1D1F"/>
<path fill-rule="evenodd" clip-rule="evenodd" d="M36.6094 36.2344C37.7164 36.2344 38.4102 36.8326 38.4102 38.7031V39.5703C38.4102 41.4283 37.7333 42.0781 36.6172 42.0781C35.5247 42.0781 34.8164 41.4337 34.8164 39.5703V38.7031C34.8164 37.5185 35.1883 36.2344 36.6094 36.2344ZM36.6094 36.8242C35.9287 36.8242 35.543 37.2927 35.543 38.582V39.6875C35.543 40.9569 35.9299 41.4844 36.6172 41.4844C37.3351 41.4844 37.6836 40.9348 37.6836 39.6875V38.582C37.6836 37.3057 37.3249 36.8242 36.6094 36.8242Z" fill="#1C1D1F"/>
<path d="M13.4141 41.3867H16.1094V42H12.6602V36.3125H13.4141V41.3867Z" fill="#1C1D1F"/>
</svg>
