<svg width="50" height="50" viewBox="0 0 50 50" fill="none" xmlns="http://www.w3.org/2000/svg">
<path d="M30.2908 8.85945C39.9737 15.9237 35.9227 32.2339 25.647 34C38.7881 34 43.1355 15.0926 30.2908 8.85945Z" fill="#FFCE26"/>
<path d="M20.0152 8.75547C31.4766 6.9894 36.2193 21.8452 31.1802 28.7017C39.4798 19.9752 32.8599 4.39223 20.0152 8.75547Z" fill="#0879B8"/>
<path d="M13.2965 15.9238C18.9284 7.09341 30.6862 12.4955 31.8719 21.4298C33.2551 10.5217 19.4224 4.39236 13.2965 15.9238Z" fill="#069B4F"/>
<path d="M13 22.5725C14.3833 13.4305 25.647 12.4955 29.7968 18.9365C26.4375 9.79446 13.1976 10.9372 13 22.5725Z" fill="#CB2034"/>
<path d="M16.8428 39.959V37H16V43H16.8428V40.9704L17.622 40.2069L19.869 43H20.8734L18.1813 39.6477L20.6812 37H19.6681L17.5328 39.2418L16.8428 39.959Z" fill="#7F8BA5"/>
<path d="M22.6987 37L24.7817 41.8915L26.8603 37H27.9432V43H27.1048V40.6593L27.1856 38.1502L25.0961 43H24.4585L22.3731 38.1434L22.4541 40.6593V43H21.6157V37H22.6987Z" fill="#7F8BA5"/>
<path fill-rule="evenodd" clip-rule="evenodd" d="M31.7686 40.647H30.2664V43H29.4236V37H31.7686C32.2489 37 32.655 37.0783 32.9869 37.2349C33.3188 37.3915 33.5706 37.6085 33.7424 37.886C33.9141 38.1607 34 38.4753 34 38.8297C34 39.2143 33.9141 39.5426 33.7424 39.8146C33.5706 40.0865 33.3188 40.294 32.9869 40.4368C32.655 40.5769 32.2489 40.647 31.7686 40.647ZM30.2664 37.6511V40H31.7686C32.0975 40 32.3639 39.9505 32.5677 39.8516C32.7715 39.7527 32.9199 39.6154 33.0131 39.4396C33.1092 39.2637 33.1572 39.0632 33.1572 38.8379C33.1572 38.6319 33.1092 38.4382 33.0131 38.2569C32.9199 38.0755 32.7715 37.9299 32.5677 37.8201C32.3639 37.7074 32.0975 37.6511 31.7686 37.6511H30.2664Z" fill="#7F8BA5"/>
</svg>
