<svg width="50" height="50" viewBox="0 0 50 50" fill="none" xmlns="http://www.w3.org/2000/svg">
<path d="M30.3657 6.95861C41.2106 14.838 36.6734 33.0302 25.1646 35C39.8826 35 44.7517 13.911 30.3657 6.95861Z" fill="#FFCE26"/>
<path d="M18.8571 6.84264C31.6938 4.87279 37.0056 21.4427 31.3618 29.0904C40.6574 19.357 33.2431 1.97595 18.8571 6.84264Z" fill="#0879B8"/>
<path d="M11.3321 14.838C17.6398 4.9888 30.8085 11.0142 32.1365 20.9793C33.6857 8.81263 18.1931 1.97609 11.3321 14.838Z" fill="#069B4F"/>
<path d="M11 22.254C12.5493 12.0571 25.1647 11.0142 29.8125 18.1984C26.05 8.00151 11.2213 9.27612 11 22.254Z" fill="#CB2034"/>
<path d="M15.0361 37.8906H13.8252V45H14.7627V42.2266L14.6721 39.2455L17.0039 45H17.7168L20.0533 39.2535L19.9629 42.2266V45H20.9004V37.8906H19.6895L17.3652 43.6865L15.0361 37.8906Z" fill="black"/>
<path fill-rule="evenodd" clip-rule="evenodd" d="M24.4795 45H22.5557V37.8906H24.5674C25.0329 37.8906 25.4577 37.9688 25.8418 38.125C26.2259 38.278 26.5563 38.501 26.833 38.7939C27.113 39.0837 27.3278 39.4352 27.4775 39.8486C27.6273 40.2588 27.7021 40.721 27.7021 41.2354V41.6602C27.7021 42.1745 27.6273 42.6383 27.4775 43.0518C27.3278 43.4619 27.1113 43.8118 26.8281 44.1016C26.5482 44.3913 26.2096 44.6143 25.8125 44.7705C25.4186 44.9235 24.9743 45 24.4795 45ZM24.4795 44.2334H23.498V38.6621H24.5674C24.9189 38.6621 25.2298 38.7191 25.5 38.833C25.7734 38.9469 26.0046 39.1146 26.1934 39.3359C26.3822 39.554 26.5254 39.8226 26.623 40.1416C26.7207 40.4574 26.7695 40.8187 26.7695 41.2256V41.6602C26.7695 42.1777 26.6833 42.6302 26.5107 43.0176C26.3415 43.4017 26.0876 43.7012 25.749 43.916C25.4105 44.1276 24.9873 44.2334 24.4795 44.2334Z" fill="black"/>
<path d="M30.3291 37.8906L32.6582 43.6865L34.9824 37.8906H36.1934V45H35.2559V42.2266L35.3463 39.2535L33.0098 45H32.2969L29.965 39.2455L30.0557 42.2266V45H29.1182V37.8906H30.3291Z" fill="black"/>
</svg>
