<svg width="50" height="50" viewBox="0 0 50 50" fill="none" xmlns="http://www.w3.org/2000/svg">
<path d="M30.3657 6.95861C41.2106 14.838 36.6734 33.0302 25.1646 35C39.8826 35 44.7517 13.911 30.3657 6.95861Z" fill="#FFCE26"/>
<path d="M18.8571 6.84264C31.6938 4.87279 37.0056 21.4427 31.3618 29.0904C40.6574 19.357 33.2431 1.97595 18.8571 6.84264Z" fill="#0879B8"/>
<path d="M11.3321 14.838C17.6398 4.9888 30.8085 11.0142 32.1365 20.9793C33.6857 8.81263 18.1931 1.97609 11.3321 14.838Z" fill="#069B4F"/>
<path d="M11 22.254C12.5493 12.0571 25.1647 11.0142 29.8125 18.1984C26.05 8.00151 11.2213 9.27612 11 22.254Z" fill="#CB2034"/>
<path fill-rule="evenodd" clip-rule="evenodd" d="M20.6768 37.8906L23.3965 45H22.4297L21.7526 43.1396H18.7792L18.1035 45H17.1416L19.8516 37.8906H20.6768ZM19.0595 42.3682H21.4718L20.2644 39.051L19.0595 42.3682Z" fill="black"/>
<path d="M25.5596 37.8906H24.3486V45H25.2861V42.2266L25.1955 39.2455L27.5273 45H28.2402L30.5767 39.2535L30.4863 42.2266V45H31.4238V37.8906H30.2129L27.8887 43.6865L25.5596 37.8906Z" fill="black"/>
</svg>
