<svg width="50" height="50" viewBox="0 0 50 50" fill="none" xmlns="http://www.w3.org/2000/svg">
<path d="M30.3657 6.95861C41.2106 14.838 36.6734 33.0302 25.1646 35C39.8826 35 44.7517 13.911 30.3657 6.95861Z" fill="#FFCE26"/>
<path d="M18.8571 6.84264C31.6938 4.87279 37.0056 21.4427 31.3618 29.0904C40.6574 19.357 33.2431 1.97595 18.8571 6.84264Z" fill="#0879B8"/>
<path d="M11.3321 14.838C17.6398 4.9888 30.8085 11.0142 32.1365 20.9793C33.6857 8.81263 18.1931 1.97609 11.3321 14.838Z" fill="#069B4F"/>
<path d="M11 22.254C12.5493 12.0571 25.1647 11.0142 29.8125 18.1984C26.05 8.00151 11.2213 9.27612 11 22.254Z" fill="#CB2034"/>
<path d="M18.7676 41.0889V38.6621H22.2295V37.8906H17.8252V45H18.7676V41.8604H21.7461V41.0889H18.7676Z" fill="black"/>
<path d="M26.6338 37.8906L25.2227 42.8516L25.027 43.6956L24.8857 42.7539L23.7627 37.8906H22.8252L24.5488 45H25.4033L26.9219 39.8193L27.0335 39.275L27.1465 39.8193L28.6113 45H29.4658L31.1846 37.8906H30.2422L29.1436 42.749L28.9925 43.7164L28.792 42.8516L27.4199 37.8906H26.6338Z" fill="black"/>
</svg>
