<svg width="50" height="50" viewBox="0 0 50 50" fill="none" xmlns="http://www.w3.org/2000/svg">
<path d="M29.9825 7.8925C40.0527 15.2285 35.8396 32.166 25.1529 34C38.8196 34 43.3409 14.3654 29.9825 7.8925Z" fill="#FFCE26"/>
<path d="M19.2958 7.78452C31.2157 5.95053 36.148 21.3777 30.9074 28.4979C39.539 19.4358 32.6543 3.25347 19.2958 7.78452Z" fill="#0879B8"/>
<path d="M12.3084 15.2285C18.1655 6.05854 30.3937 11.6684 31.6267 20.9463C33.0653 9.61865 18.6793 3.2536 12.3084 15.2285Z" fill="#069B4F"/>
<path d="M12 22.133C13.4386 12.6394 25.1529 11.6684 29.4687 18.3571C25.975 8.86348 12.2055 10.0502 12 22.133Z" fill="#CB2034"/>
<path fill-rule="evenodd" clip-rule="evenodd" d="M21.2178 36L23.6933 43H22.8133L22.197 41.1683H19.4906L18.8756 43H18L20.4667 36H21.2178ZM19.7457 40.4087H21.9414L20.8424 37.1425L19.7457 40.4087Z" fill="#7F8BA5"/>
<path d="M25.6622 36H24.56V43H25.4133V40.2692L25.3308 37.334L27.4533 43H28.1022L30.2289 37.3419L30.1467 40.2692V43H31V36H29.8978L27.7822 41.7067L25.6622 36Z" fill="#7F8BA5"/>
</svg>
