<svg width="50" height="50" viewBox="0 0 50 50" fill="none" xmlns="http://www.w3.org/2000/svg">
<path d="M30.3657 6.95861C41.2106 14.838 36.6734 33.0302 25.1646 35C39.8826 35 44.7517 13.911 30.3657 6.95861Z" fill="#FFCE26"/>
<path d="M18.8571 6.84264C31.6938 4.87279 37.0056 21.4427 31.3618 29.0904C40.6574 19.357 33.2431 1.97595 18.8571 6.84264Z" fill="#0879B8"/>
<path d="M11.3321 14.838C17.6398 4.9888 30.8085 11.0142 32.1365 20.9793C33.6857 8.81263 18.1931 1.97609 11.3321 14.838Z" fill="#069B4F"/>
<path d="M11 22.254C12.5493 12.0571 25.1647 11.0142 29.8125 18.1984C26.05 8.00151 11.2213 9.27612 11 22.254Z" fill="#CB2034"/>
<path d="M15.7676 41.3967V37.8906H14.8252V45H15.7676V42.5951L16.6389 41.6905L19.1514 45H20.2744L17.2642 41.0279L20.0596 37.8906H18.9268L16.5391 40.5469L15.7676 41.3967Z" fill="black"/>
<path d="M22.3154 37.8906L24.6445 43.6865L26.9688 37.8906H28.1797V45H27.2422V42.2266L27.3326 39.2535L24.9961 45H24.2832L21.9514 39.2455L22.042 42.2266V45H21.1045V37.8906H22.3154Z" fill="black"/>
<path fill-rule="evenodd" clip-rule="evenodd" d="M32.457 42.2119H30.7773V45H29.835V37.8906H32.457C32.9941 37.8906 33.4482 37.9834 33.8193 38.1689C34.1904 38.3545 34.472 38.6117 34.6641 38.9404C34.8561 39.266 34.9521 39.6387 34.9521 40.0586C34.9521 40.5143 34.8561 40.9033 34.6641 41.2256C34.472 41.5479 34.1904 41.7936 33.8193 41.9629C33.4482 42.1289 32.9941 42.2119 32.457 42.2119ZM30.7773 38.6621V41.4453H32.457C32.8249 41.4453 33.1227 41.3867 33.3506 41.2695C33.5785 41.1523 33.7445 40.9896 33.8486 40.7812C33.9561 40.5729 34.0098 40.3353 34.0098 40.0684C34.0098 39.8242 33.9561 39.5947 33.8486 39.3799C33.7445 39.165 33.5785 38.9925 33.3506 38.8623C33.1227 38.7288 32.8249 38.6621 32.457 38.6621H30.7773Z" fill="black"/>
</svg>
