<svg width="50" height="50" viewBox="0 0 50 50" fill="none" xmlns="http://www.w3.org/2000/svg">
<path d="M29.9825 7.99016C40.0527 15.3261 35.8396 32.2637 25.1529 34.0977C38.8196 34.0977 43.3409 14.4631 29.9825 7.99016Z" fill="#FFCE26"/>
<path d="M19.2958 7.88218C31.2157 6.04818 36.148 21.4753 30.9074 28.5956C39.539 19.5335 32.6543 3.35113 19.2958 7.88218Z" fill="#0879B8"/>
<path d="M12.3084 15.3262C18.1655 6.15619 30.3937 11.7661 31.6267 21.0439C33.0653 9.71631 18.6793 3.35126 12.3084 15.3262Z" fill="#069B4F"/>
<path d="M12 22.2306C13.4386 12.737 25.1529 11.7661 29.4687 18.4548C25.975 8.96113 12.2055 10.1478 12 22.2306Z" fill="#CB2034"/>
<path d="M26.5743 41.8376H27.4795C27.4323 42.2681 27.3082 42.6534 27.107 42.9934C26.9059 43.3334 26.6214 43.6032 26.2537 43.8029C25.8859 43.9994 25.427 44.0977 24.8769 44.0977C24.4746 44.0977 24.1084 44.0228 23.7784 43.8731C23.4515 43.7233 23.1702 43.5112 22.9345 43.2367C22.6987 42.9591 22.5164 42.6268 22.3876 42.24C22.2618 41.8501 22.199 41.4165 22.199 40.9392V40.2608C22.199 39.7835 22.2618 39.3514 22.3876 38.9646C22.5164 38.5747 22.7003 38.2409 22.9392 37.9633C23.1812 37.6857 23.4719 37.472 23.8114 37.3223C24.1509 37.1725 24.5328 37.0977 24.9571 37.0977C25.4757 37.0977 25.9142 37.1944 26.2725 37.3878C26.6308 37.5812 26.909 37.8494 27.107 38.1926C27.3082 38.5326 27.4323 38.9272 27.4795 39.3764H26.5743C26.5303 39.0582 26.4485 38.7853 26.3291 38.5575C26.2096 38.3267 26.0399 38.1489 25.8199 38.0241C25.5999 37.8993 25.3123 37.837 24.9571 37.837C24.6522 37.837 24.3835 37.8947 24.1509 38.0101C23.9214 38.1255 23.7281 38.2893 23.571 38.5014C23.4169 38.7135 23.3006 38.9678 23.2221 39.2641C23.1435 39.5604 23.1042 39.8895 23.1042 40.2514V40.9392C23.1042 41.273 23.1388 41.5865 23.2079 41.8797C23.2802 42.173 23.3887 42.4303 23.5332 42.6518C23.6778 42.8733 23.8617 43.048 24.0849 43.1759C24.308 43.3006 24.5721 43.363 24.8769 43.363C25.2636 43.363 25.5716 43.3022 25.801 43.1805C26.0305 43.0589 26.2034 42.8842 26.3197 42.6565C26.4391 42.4288 26.524 42.1558 26.5743 41.8376Z" fill="#7F8BA5"/>
<path d="M34 37.1912V44.0041H33.0853L29.6294 38.7494V44.0041H28.7195V37.1912H29.6294L33.0995 42.46V37.1912H34Z" fill="#7F8BA5"/>
<path d="M15.1693 37.1912H14V44.0041H14.9052V41.3463L14.8177 38.4896L17.0693 44.0041H17.7577L20.0137 38.4973L19.9264 41.3463V44.0041H20.8317V37.1912H19.6624L17.4182 42.7454L15.1693 37.1912Z" fill="#7F8BA5"/>
</svg>
