<svg width="50" height="50" viewBox="0 0 50 50" fill="none" xmlns="http://www.w3.org/2000/svg">
<path d="M30.3657 6.95861C41.2106 14.838 36.6734 33.0302 25.1646 35C39.8826 35 44.7517 13.911 30.3657 6.95861Z" fill="#FFCE26"/>
<path d="M18.8571 6.84264C31.6938 4.87279 37.0056 21.4427 31.3618 29.0904C40.6574 19.357 33.2431 1.97595 18.8571 6.84264Z" fill="#0879B8"/>
<path d="M11.3321 14.838C17.6398 4.9888 30.8085 11.0142 32.1365 20.9793C33.6857 8.81263 18.1931 1.97609 11.3321 14.838Z" fill="#069B4F"/>
<path d="M11 22.254C12.5493 12.0571 25.1647 11.0142 29.8125 18.1984C26.05 8.00151 11.2213 9.27612 11 22.254Z" fill="#CB2034"/>
<path d="M26.8477 42.7393H27.7852C27.7363 43.1885 27.6077 43.5905 27.3994 43.9453C27.1911 44.3001 26.8965 44.5817 26.5156 44.79C26.1348 44.9951 25.6595 45.0977 25.0898 45.0977C24.6732 45.0977 24.2939 45.0195 23.9521 44.8633C23.6136 44.707 23.3223 44.4857 23.0781 44.1992C22.834 43.9095 22.6452 43.5628 22.5117 43.1592C22.3815 42.7523 22.3164 42.2998 22.3164 41.8018V41.0938C22.3164 40.5957 22.3815 40.1449 22.5117 39.7412C22.6452 39.3343 22.8356 38.986 23.083 38.6963C23.3337 38.4066 23.6348 38.1836 23.9863 38.0273C24.3379 37.8711 24.7334 37.793 25.1729 37.793C25.71 37.793 26.1641 37.8939 26.5352 38.0957C26.9062 38.2975 27.1943 38.5775 27.3994 38.9355C27.6077 39.2904 27.7363 39.7021 27.7852 40.1709H26.8477C26.8021 39.8389 26.7174 39.554 26.5938 39.3164C26.4701 39.0755 26.2943 38.89 26.0664 38.7598C25.8385 38.6296 25.5407 38.5645 25.1729 38.5645C24.8571 38.5645 24.5788 38.6247 24.3379 38.7451C24.1003 38.8656 23.9001 39.0365 23.7373 39.2578C23.5778 39.4792 23.4574 39.7445 23.376 40.0537C23.2946 40.363 23.2539 40.7064 23.2539 41.084V41.8018C23.2539 42.1501 23.2897 42.4772 23.3613 42.7832C23.4362 43.0892 23.5485 43.3577 23.6982 43.5889C23.848 43.82 24.0384 44.0023 24.2695 44.1357C24.5007 44.266 24.7741 44.3311 25.0898 44.3311C25.4902 44.3311 25.8092 44.2676 26.0469 44.1406C26.2845 44.0137 26.4635 43.8314 26.584 43.5938C26.7077 43.3561 26.7956 43.0713 26.8477 42.7393Z" fill="black"/>
<path d="M34.5381 37.8906V45H33.5908L30.0117 39.5166V45H29.0693V37.8906H30.0117L33.6055 43.3887V37.8906H34.5381Z" fill="black"/>
<path d="M15.0361 37.8906H13.8252V45H14.7627V42.2266L14.6721 39.2455L17.0039 45H17.7168L20.0533 39.2535L19.9629 42.2266V45H20.9004V37.8906H19.6895L17.3652 43.6865L15.0361 37.8906Z" fill="black"/>
</svg>
