<svg width="50" height="50" viewBox="0 0 50 50" fill="none" xmlns="http://www.w3.org/2000/svg">
<path d="M38.6253 8.21955C39.1281 7.70858 39.1244 6.88382 38.6171 6.3774C38.1099 5.87099 37.2911 5.87469 36.7883 6.38566L25.6011 17.756C25.3839 17.9768 25.0306 17.9799 24.8095 17.7631L13.3863 6.55672C12.4956 5.6829 11 6.31864 11 7.57104V21.5747H13.5863V10.3895L24.5223 21.1179C24.9202 21.5083 25.5562 21.5026 25.9472 21.1052L38.6253 8.21955Z" fill="#FB2F2A"/>
<path d="M19.5307 30.8227C16.3597 28.4479 13.5864 25.2764 13.5863 21.5747H11C11 26.5947 14.6928 30.4459 17.9876 32.9134C19.4699 34.0235 20.9461 34.9099 22.1327 35.5543L25.2182 34.1948L25.2064 34.1894C24.1963 33.7249 21.8472 32.5575 19.5307 30.8227Z" fill="#3185F8"/>
<path fill-rule="evenodd" clip-rule="evenodd" d="M24.6787 36.7972L25.1713 37L25.6633 36.7954L24.6787 36.7972Z" fill="#FDBC14"/>
<path d="M26.3383 33.5653C25.8543 33.8287 25.4508 34.0292 25.162 34.1664L22.0765 35.5259C22.9233 35.9857 23.7843 36.4254 24.6745 36.7955L24.6787 36.7972L25.6633 36.7954L25.6644 36.7949C27.8475 35.8815 29.9135 34.5577 31.7639 33.0992C35.1213 30.4528 38.9439 26.0289 38.9439 21.4614H36.3575C35.8048 25.5967 33.0142 28.8056 30.17 31.0474C28.7548 32.1629 27.37 33.0037 26.3383 33.5653Z" fill="#FDBC14"/>
<path d="M36.3575 21.4898V16.251C36.3575 15.5315 36.9365 14.9483 37.6507 14.9483C38.3649 14.9483 38.9439 15.5315 38.9439 16.251V21.4898H36.3575Z" fill="#16AD4D"/>
<path d="M23.4521 46V39.6621H25.7373V38.8906H20.2441V39.6621H22.5244V46H23.4521Z" fill="black"/>
<path d="M27.8027 46V38.8906H26.8604V46H27.8027Z" fill="black"/>
</svg>
