<svg width="50" height="50" viewBox="0 0 50 50" fill="none" xmlns="http://www.w3.org/2000/svg">
<rect width="50" height="50" fill="#003545"/>
<path d="M43.8139 13.1373C43.4453 12.7633 42.7386 13.1668 42.3923 13.3777C42.0967 13.6777 41.3176 13.7624 40.9233 13.7624C40.4495 13.7624 40.023 13.8105 39.4544 13.8586C36.2321 14.1952 34.7632 16.6957 33.389 19.1481C32.6308 20.4465 31.8726 21.841 30.7828 22.8989C29.621 24.0779 28.0166 24.8057 26.4707 25.3514C25.4282 25.736 24.2909 26.1207 23.201 26.4573C21.9092 26.8943 20.5674 27.2593 19.3154 27.8038C18.5099 28.0923 17.9412 28.2847 17.0883 28.8617C16.7566 29.1021 16.4249 29.3426 16.1879 29.5349C15.5245 30.0639 14.9559 30.689 14.4347 31.4103C14.0082 32.0354 13.5343 32.6606 12.9657 33.1895C12.7762 33.3819 12.4919 33.4299 12.018 33.4299C11.4494 33.4299 10.786 33.3338 10.0752 33.1895C9.06305 32.9841 7.68793 32.6937 6.71079 33.1895C6.71079 33.1895 6.18954 33.478 6 33.8627C6.39028 34.0608 6.75628 34.3019 7.08987 34.584C7.37419 34.8245 7.6585 35.0649 8.03759 35.2572C8.13236 35.3053 8.22713 35.3534 8.3219 35.4496C8.22713 35.5939 8.08498 35.7381 7.9902 35.9305C7.23203 36.9403 6.80556 37.5654 7.04249 37.902C8.4859 38.195 9.88182 37.6593 11.1651 37.0365C12.2603 36.5601 13.2854 35.9922 14.2925 35.3534C15.2876 34.7283 16.2827 34.0551 17.2304 33.7666C19.0818 33.214 20.9868 33.458 22.8693 33.7185C23.6749 33.8146 24.4805 33.9108 25.2386 33.9589C25.8638 33.9589 26.6992 34.2036 27.2762 33.9108C27.8449 33.5742 28.0818 32.8048 28.3661 32.0835C28.4362 31.8465 28.6552 30.8813 28.9821 30.8813C28.8475 33.5684 27.667 35.9479 25.8547 37.902C28.8434 37.902 31.2791 35.6841 32.5834 33.1895C32.8677 32.6125 33.1521 31.9873 33.389 31.3622C33.389 31.3141 33.5785 31.218 33.5785 31.5065C33.5785 32.0396 33.4978 32.5637 33.4364 33.0933L34.0998 32.7086C35.7583 31.6507 36.9903 29.5349 37.938 26.265C38.3171 24.9186 38.6488 23.524 38.8858 22.3219C39.1701 20.8793 39.4544 19.629 39.7861 19.1481C40.3021 18.3104 41.1593 17.7222 41.9658 17.1766C42.8662 16.5515 43.7191 15.8301 43.9086 14.4837C44.0982 13.522 43.956 13.2335 43.8139 13.1373Z" fill="white"/>
</svg>
