<svg width="50" height="50" viewBox="0 0 50 50" fill="none" xmlns="http://www.w3.org/2000/svg">
<path d="M34.6204 26.9636C30.4001 31.2426 24.8902 34.0561 18.9701 35.0526C19.9079 37.6903 21.2561 40.1522 22.9559 42.3796C29.7553 40.7383 35.9686 37.1628 40.7751 32.0632C39.6614 29.4841 38.196 27.1395 36.4375 24.9707C35.8514 25.6741 35.2652 26.3189 34.6204 26.9636Z" fill="#16AB03"/>
<path d="M18.97 35.0539C16.6254 28.5476 16.6254 21.3965 19.0287 14.9488C16.2737 14.4798 13.4602 14.4212 10.7052 14.7143C8.77091 21.3965 8.7123 28.5476 10.6466 35.2298C13.4602 35.5815 16.2151 35.5229 18.97 35.0539Z" fill="black"/>
<path d="M23.0732 7.62109C21.3733 9.84849 20.0251 12.3104 19.0287 14.8894C24.9489 15.8859 30.3415 18.6995 34.5618 22.9198C35.2066 23.5646 35.7927 24.2093 36.3789 24.9127C38.1374 22.8026 39.6028 20.3993 40.7165 17.8202C35.9686 12.8965 29.814 9.32095 23.0732 7.62109Z" fill="#5E33BF"/>
</svg>
