<svg width="50" height="50" viewBox="0 0 50 50" fill="none" xmlns="http://www.w3.org/2000/svg">
<path d="M21.0492 43.0557C20.9964 42.9647 20.9674 42.8617 20.9648 42.7563C20.9623 42.6509 20.9863 42.5466 21.0347 42.4531C21.2931 41.592 21.5999 40.7455 21.8173 39.8746C22.1458 38.5695 22.4623 37.257 22.6918 35.9324C22.9213 34.6078 23.0517 33.2173 23.2184 31.8585C23.2268 31.7261 23.2268 31.5932 23.2184 31.4608C23.0179 32.1414 22.8343 32.8221 22.6169 33.4929C22.0489 35.3322 21.2362 37.0851 20.2013 38.7036C19.8051 39.3062 19.3389 39.8599 18.892 40.4283C18.7915 40.5472 18.6704 40.6464 18.5345 40.7211C18.3775 40.8162 18.2325 40.7333 18.2591 40.5552C18.2864 40.3357 18.3535 40.1231 18.4572 39.9282C19.2796 38.5547 19.9804 37.1107 20.5515 35.6128C21.194 33.9439 21.625 32.1997 21.8342 30.4216C22.0258 28.7481 22.1065 27.0636 22.0758 25.3792C22.0613 24.8572 22.0106 24.3376 21.9767 23.8033C21.4574 23.8033 20.9549 23.8033 20.4501 23.8033C19.9452 23.8033 19.3872 23.8033 18.8558 23.8179C18.7636 23.8172 18.6727 23.7964 18.5893 23.7568C18.5059 23.7172 18.432 23.6598 18.3726 23.5886C18.3462 23.5691 18.325 23.5432 18.311 23.5133C18.2971 23.4834 18.2907 23.4504 18.2927 23.4174C18.2946 23.3844 18.3047 23.3524 18.322 23.3244C18.3394 23.2963 18.3634 23.2731 18.392 23.2569C18.5251 23.1588 18.6804 23.0959 18.8437 23.0739C19.8244 23.03 20.8052 23.0056 21.8004 22.9763V22.386C21.4598 22.3299 21.1047 22.2664 20.7496 22.2152C20.223 22.1396 19.6964 22.081 19.1722 21.9957C19.0756 21.981 18.991 21.8712 18.8992 21.8054C18.979 21.7224 19.0514 21.5785 19.1408 21.5614C19.4334 21.5358 19.7276 21.5358 20.0201 21.5614C20.6361 21.6127 21.2521 21.6834 21.885 21.7468L21.9453 20.671L20.1578 20.915L18.6408 21.1321C18.5734 21.1406 18.5052 21.1406 18.4379 21.1321C18.2277 21.1028 18.1746 21.0101 18.2519 20.8101C18.2807 20.7009 18.3429 20.6036 18.4296 20.5322C18.5164 20.4608 18.6233 20.4189 18.735 20.4124C19.8099 20.3051 20.8849 20.1685 21.9719 20.0392V19.5196H21.7593C20.7351 19.5196 19.7133 19.5196 18.6891 19.5196C18.4799 19.5127 18.2811 19.4255 18.1335 19.2756C18.0151 19.1707 18.0393 19.061 18.1552 18.9658C18.3026 18.8581 18.4839 18.8086 18.6649 18.8268C19.7326 18.856 20.8028 18.878 21.8729 18.9024H22.0106V17.5314C22.0106 14.8016 21.9912 12.0743 21.9912 9.34452C21.9912 8.44191 22.0202 7.53931 22.0589 6.6367C22.0785 6.35408 22.1345 6.07525 22.2256 5.80728C22.2482 5.74741 22.2849 5.69396 22.3324 5.65149C22.3799 5.60901 22.4369 5.57876 22.4985 5.56333C22.5951 5.56333 22.7401 5.69506 22.7787 5.80728C22.9344 6.20636 22.998 6.636 22.9647 7.06361C22.9647 7.83692 22.9647 8.61024 22.9647 9.38355C22.9647 9.50553 22.9647 9.6275 22.9647 9.78851C24.3272 9.59944 25.7088 9.59944 27.0713 9.78851C27.0713 9.08838 27.0713 8.4102 27.0713 7.73202C27.0713 7.27096 27.0858 6.80746 27.122 6.34884C27.1436 6.14074 27.2 5.93784 27.2887 5.74873C27.3273 5.65847 27.4578 5.54869 27.5303 5.55601C27.5866 5.56724 27.6395 5.59193 27.6844 5.628C27.7294 5.66407 27.7652 5.71049 27.7887 5.76337C27.8931 6.04805 27.9574 6.34614 27.9796 6.6489C28.0182 9.76167 28.0464 12.8728 28.0641 15.9823C28.0641 16.9142 28.0182 17.8437 27.9916 18.7731V18.8512C28.7163 18.8512 29.4217 18.8512 30.1319 18.8512C30.615 18.8512 31.0981 18.8268 31.5668 18.8512C31.6972 18.8702 31.8183 18.9309 31.9122 19.0244C31.9334 19.0615 31.9446 19.1035 31.9446 19.1463C31.9446 19.1892 31.9334 19.2312 31.9122 19.2683C31.7589 19.3916 31.5781 19.4753 31.3856 19.5123C30.3686 19.5342 29.3516 19.5123 28.3347 19.5123H28.0496V20.0367L29.3516 20.1929L31.475 20.4368C31.6416 20.4588 31.8808 20.8418 31.8083 20.993C31.785 21.0301 31.7534 21.061 31.7161 21.0835C31.6787 21.106 31.6367 21.1193 31.5933 21.1223C31.26 21.1028 30.9242 21.0662 30.5933 21.0223C29.7671 20.9101 28.9434 20.793 28.1003 20.6735L28.1583 21.7468L29.3226 21.6395C29.7309 21.6005 30.1391 21.5541 30.5498 21.5248C30.6819 21.5139 30.8148 21.5331 30.9387 21.5809C31.0232 21.6151 31.0764 21.7249 31.144 21.8005C31.0643 21.8615 30.9918 21.9615 30.9025 21.9786C30.6078 22.0371 30.3034 22.0615 30.0063 22.1054L28.226 22.3835V22.9739L29.7212 23.0178C30.2043 23.0324 30.6875 23.0373 31.1706 23.0641C31.3095 23.0764 31.4436 23.1215 31.5619 23.1959C31.789 23.3325 31.8035 23.5081 31.5837 23.6545C31.4542 23.7448 31.3033 23.7987 31.1464 23.8106C30.1246 23.8106 29.1028 23.8106 28.0496 23.8106C28.023 24.1985 27.9796 24.6157 27.9651 25.0304C27.9182 26.5768 27.9641 28.1246 28.1028 29.6654C28.2389 31.3133 28.5631 32.9398 29.069 34.5126C29.6685 36.3519 30.4715 38.1171 31.4629 39.7746C31.5783 39.9721 31.6684 40.1835 31.731 40.4039C31.7423 40.4574 31.7412 40.5127 31.7278 40.5656C31.7144 40.6185 31.689 40.6675 31.6537 40.7089C31.6127 40.7479 31.4315 40.7089 31.3711 40.6455C31.0691 40.3569 30.7852 40.0498 30.5208 39.7258C29.6184 38.5362 28.8669 37.2373 28.2839 35.8592C27.6948 34.5086 27.2181 33.1108 26.8587 31.6804C26.8455 31.628 26.8285 31.5766 26.808 31.5267C26.808 31.5267 26.7862 31.5267 26.7452 31.5047C26.7452 31.6023 26.7718 31.6877 26.779 31.7755C26.9613 34.4863 27.4087 37.1723 28.1148 39.7941C28.3564 40.6674 28.6487 41.5261 28.9144 42.3946C28.949 42.5181 28.9717 42.6447 28.982 42.7727C28.9956 42.8293 28.9887 42.8889 28.9626 42.9408C28.9365 42.9927 28.8928 43.0334 28.8395 43.0557C28.6996 42.9353 28.5761 42.7966 28.4723 42.6434C28.0955 41.8725 27.7018 41.109 27.395 40.3112C26.6816 38.3624 26.1147 36.3621 25.6992 34.3272C25.4577 33.2343 25.2161 32.1317 24.989 31.0242C24.9697 31.0998 24.9504 31.1559 24.9359 31.2144C24.559 32.9221 24.2112 34.6151 23.7981 36.3056C23.3752 38.201 22.7524 40.0452 21.9405 41.8066C21.7304 42.2482 21.5564 42.719 21.1748 43.0557H21.0492ZM24.8465 15.4481C25.1343 15.4698 25.423 15.422 25.6889 15.3088C25.9548 15.1955 26.1901 15.02 26.3756 14.7968C26.6729 14.4644 26.8567 14.0446 26.9002 13.5989C26.9437 13.1532 26.8445 12.7052 26.6172 12.3207C26.4196 11.9556 26.1081 11.6667 25.731 11.499C25.3539 11.3313 24.9325 11.2943 24.5325 11.3937C24.1408 11.5035 23.7919 11.7319 23.5328 12.0481C23.2736 12.3644 23.1167 12.7532 23.0831 13.1623C22.9551 14.3552 23.8513 15.453 24.8465 15.4481ZM24.9963 21.6005L24.9794 21.5468C24.6946 21.6142 24.417 21.7098 24.1508 21.8322C23.7083 22.0727 23.3685 22.4688 23.1958 22.9453C23.023 23.4219 23.0294 23.9459 23.2135 24.4181C23.3695 24.8947 23.7053 25.29 24.148 25.5184C24.5907 25.7467 25.1046 25.7896 25.5784 25.6378C26.0445 25.4525 26.4291 25.1042 26.6619 24.6563C26.8947 24.2084 26.9603 23.691 26.8466 23.1983C26.5906 22.2201 25.8683 21.6029 24.9963 21.6005ZM25.0808 16.4458C24.7937 16.4328 24.5076 16.4883 24.2457 16.6078C23.9838 16.7274 23.7535 16.9076 23.5735 17.1338C23.2806 17.476 23.1053 17.9048 23.074 18.356C23.0426 18.8072 23.1569 19.2565 23.3995 19.6367C23.5637 19.9382 23.8106 20.1854 24.1106 20.3486C24.4106 20.5117 24.7509 20.5839 25.0905 20.5564C25.5544 20.5181 25.9894 20.3136 26.3172 19.98C26.645 19.6463 26.8439 19.2053 26.878 18.7365C27.0206 17.5631 26.1606 16.4654 25.0808 16.4458Z" fill="#020202"/>
<path d="M24.8465 15.4481C23.8513 15.4481 22.9552 14.3552 23.0929 13.1623C23.1265 12.7532 23.2834 12.3644 23.5426 12.0481C23.8017 11.7319 24.1506 11.5035 24.5423 11.3937C24.9423 11.2943 25.3637 11.3313 25.7408 11.499C26.1179 11.6667 26.4294 11.9556 26.627 12.3207C26.8543 12.7052 26.9535 13.1532 26.91 13.5989C26.8665 14.0446 26.6827 14.4644 26.3854 14.7967C26.199 15.0214 25.962 15.1978 25.6943 15.3111C25.4266 15.4244 25.1358 15.4714 24.8465 15.4481ZM25.6124 12.5207C25.5101 12.5185 25.4083 12.5367 25.3131 12.5745C25.2178 12.6122 25.1309 12.6687 25.0574 12.7407C24.9839 12.8126 24.9253 12.8986 24.885 12.9936C24.8447 13.0885 24.8234 13.1907 24.8225 13.294C24.815 13.4001 24.8289 13.5065 24.8635 13.6069C24.8981 13.7073 24.9525 13.7996 25.0235 13.8781C25.0945 13.9565 25.1806 14.0196 25.2765 14.0634C25.3724 14.1072 25.4762 14.1308 25.5814 14.1328C25.6867 14.1347 25.7912 14.1151 25.8887 14.0749C25.9861 14.0348 26.0745 13.9751 26.1484 13.8993C26.2222 13.8236 26.2801 13.7335 26.3183 13.6344C26.3566 13.5354 26.3745 13.4295 26.3709 13.3233C26.3728 13.2209 26.3547 13.1191 26.3176 13.0238C26.2805 12.9285 26.2251 12.8415 26.1546 12.7679C26.0842 12.6942 26 12.6353 25.9069 12.5946C25.8139 12.5538 25.7138 12.5321 25.6124 12.5305V12.5207Z" fill="#FCFCFC"/>
<path d="M24.9963 21.6005C25.8683 21.6005 26.5906 22.2201 26.8467 23.1812C26.9603 23.6738 26.8947 24.1913 26.6619 24.6392C26.4291 25.087 26.0445 25.4354 25.5785 25.6207C25.1047 25.7725 24.5907 25.7296 24.148 25.5013C23.7053 25.2729 23.3696 24.8776 23.2136 24.4009C23.0341 23.9309 23.0303 23.4109 23.2028 22.9382C23.3753 22.4654 23.7122 22.0723 24.1508 21.8322C24.4155 21.7101 24.6914 21.6145 24.9746 21.5468L24.9963 21.6005ZM26.2766 23.6081C26.2753 23.4032 26.1938 23.2072 26.0499 23.0627C25.906 22.9183 25.7113 22.8372 25.5084 22.8372C25.4034 22.8324 25.2986 22.8492 25.2002 22.8867C25.1019 22.9241 25.0122 22.9815 24.9365 23.0551C24.8609 23.1288 24.8009 23.2173 24.7602 23.3152C24.7196 23.413 24.6991 23.5183 24.7001 23.6244C24.7011 23.7305 24.7235 23.8353 24.766 23.9324C24.8084 24.0295 24.87 24.1168 24.9471 24.1891C25.0241 24.2613 25.1148 24.3169 25.2139 24.3525C25.3129 24.3881 25.418 24.4029 25.5229 24.3961C25.7262 24.3922 25.9197 24.3071 26.061 24.1594C26.2023 24.0117 26.2798 23.8134 26.2766 23.6081Z" fill="#FCFCFC"/>
<path d="M25.0808 16.4458C26.1606 16.4458 27.0137 17.5631 26.8905 18.7341C26.8563 19.2028 26.6574 19.6438 26.3297 19.9775C26.0019 20.3112 25.5668 20.5157 25.1029 20.5539C24.7633 20.5815 24.423 20.5093 24.1231 20.3461C23.8231 20.183 23.5762 19.9358 23.412 19.6343C23.1699 19.2543 23.056 18.8055 23.0873 18.3548C23.1187 17.9041 23.2936 17.4758 23.5859 17.1338C23.7648 16.9093 23.9931 16.7301 24.2527 16.6107C24.5124 16.4912 24.7957 16.4348 25.0808 16.4458ZM24.3565 17.5558C24.2542 17.5545 24.1527 17.5739 24.0579 17.6127C23.9631 17.6516 23.8769 17.7092 23.8045 17.7821C23.732 17.8551 23.6747 17.9419 23.636 18.0375C23.5972 18.1331 23.5777 18.2356 23.5787 18.3389C23.5897 18.5381 23.6759 18.7254 23.8194 18.8625C23.9629 18.9995 24.1529 19.0759 24.3505 19.0759C24.548 19.0759 24.7381 18.9995 24.8816 18.8625C25.0251 18.7254 25.1112 18.5381 25.1223 18.3389C25.1236 18.2357 25.1044 18.1333 25.0659 18.0377C25.0274 17.9421 24.9703 17.8552 24.898 17.7823C24.8258 17.7093 24.7398 17.6516 24.6451 17.6128C24.5505 17.5739 24.449 17.5545 24.3469 17.5558H24.3565Z" fill="#FCFCFC"/>
<path d="M25.6124 12.5305C25.8155 12.5337 26.009 12.6177 26.1511 12.7644C26.2931 12.911 26.3721 13.1084 26.3708 13.3135C26.3743 13.4198 26.3564 13.5256 26.3182 13.6247C26.2799 13.7237 26.2221 13.8138 26.1482 13.8896C26.0744 13.9653 25.986 14.025 25.8885 14.0652C25.7911 14.1053 25.6865 14.125 25.5813 14.123C25.476 14.121 25.3723 14.0974 25.2764 14.0536C25.1805 14.0098 25.0944 13.9468 25.0234 13.8683C24.9524 13.7898 24.8979 13.6976 24.8634 13.5972C24.8288 13.4967 24.8149 13.3903 24.8224 13.2843C24.8293 13.0789 24.9161 12.8846 25.064 12.7435C25.2119 12.6024 25.409 12.5259 25.6124 12.5305Z" fill="#030303"/>
<path d="M26.2766 23.6081C26.2798 23.8134 26.2023 24.0117 26.061 24.1594C25.9197 24.3071 25.7262 24.3922 25.5229 24.3961C25.418 24.4029 25.3129 24.3881 25.2139 24.3525C25.1148 24.3169 25.0241 24.2613 24.9471 24.1891C24.87 24.1168 24.8084 24.0295 24.766 23.9324C24.7235 23.8353 24.7011 23.7305 24.7001 23.6244C24.6991 23.5183 24.7196 23.413 24.7602 23.3152C24.8009 23.2173 24.8609 23.1288 24.9365 23.0551C25.0122 22.9815 25.1019 22.9241 25.2002 22.8867C25.2986 22.8492 25.4034 22.8324 25.5084 22.8372C25.7113 22.8372 25.906 22.9183 26.0499 23.0627C26.1938 23.2072 26.2753 23.4032 26.2766 23.6081Z" fill="#030303"/>
<path d="M24.3469 17.5558C24.5499 17.5558 24.7442 17.6373 24.8878 17.7823C25.0314 17.9273 25.1121 18.124 25.1121 18.3291C25.101 18.5283 25.0149 18.7156 24.8714 18.8527C24.7279 18.9898 24.5378 19.0661 24.3403 19.0661C24.1428 19.0661 23.9527 18.9898 23.8092 18.8527C23.6657 18.7156 23.5795 18.5283 23.5685 18.3291C23.5688 18.2266 23.5892 18.1252 23.6286 18.0307C23.6679 17.9362 23.7254 17.8506 23.7977 17.7787C23.8701 17.7068 23.9558 17.65 24.05 17.6118C24.1441 17.5735 24.2454 17.5545 24.3469 17.5558Z" fill="#030303"/>
</svg>
