<svg width="50" height="50" viewBox="0 0 50 50" fill="none" xmlns="http://www.w3.org/2000/svg">
<path d="M21.5556 33.4386L24.3333 36.3339C22.9798 37.6319 21.6887 39.1259 20.1523 40.289C17.1917 42.5331 12.7966 41.9473 10.3496 39.1722C7.78194 36.2601 7.59275 31.8857 10.2082 29.1084C13.9131 25.1786 17.8154 21.4405 21.5868 17.6666L24.1877 20.4438C22.2085 22.4372 20.0463 24.6118 17.8882 26.7885C16.3684 28.3246 14.8341 29.8481 13.3392 31.4095C11.8839 32.9203 11.8985 35.1602 13.306 36.6057C14.7613 38.0807 17.0025 38.0976 18.5036 36.5952C19.5452 35.5669 20.5369 34.4964 21.5556 33.4386Z" fill="#314376"/>
<path d="M25.6666 28.3058C26.1236 27.9438 26.6612 27.5799 27.114 27.1427C30.2446 24.169 33.3656 21.1868 36.4769 18.196C38.1125 16.6274 38.2262 14.5128 36.7664 13.0886C35.2549 11.615 33.0217 11.6921 31.353 13.2864C30.4059 14.1924 29.492 15.1201 28.6028 15.9845L25.7907 13.3141C27.0975 12.1411 28.3857 10.7426 29.9138 9.66262C32.9762 7.48676 37.2958 8.06039 39.804 10.8099C42.2853 13.5218 42.3225 17.6579 39.7047 20.265C36.0861 23.8888 32.3352 27.3801 28.6256 30.9228C28.5716 30.9571 28.5123 30.9832 28.4498 30.9999L25.6666 28.3058Z" fill="#314275"/>
<path d="M16.476 21.5841L13.6426 24.3333C12.0592 22.474 9.84243 21.1183 8.8735 18.6741C7.56273 15.3714 8.69104 11.7052 11.6733 9.64124C14.5025 7.68384 18.5481 7.92617 21.0438 10.3494C24.7475 13.9446 28.3716 17.6233 32.0271 21.2687C32.1385 21.395 32.2409 21.529 32.3333 21.6698L29.676 24.3228C29.4139 24.0763 29.1371 23.8277 28.8728 23.5666C25.4627 20.1726 22.0505 16.7773 18.6362 13.3806C17.5645 12.3194 16.281 11.9016 14.8003 12.4008C13.3197 12.9001 12.4787 13.9174 12.2689 15.432C12.0991 16.6499 12.5206 17.6965 13.3847 18.5655C14.3851 19.562 15.4148 20.5521 16.476 21.5841Z" fill="#FEA204"/>
<path d="M34.0364 28.4926L36.631 25.6666C38.2068 27.6275 40.3851 28.9938 41.2474 31.5453C42.3296 34.7602 41.2672 38.3806 38.6429 40.2937C35.9631 42.2443 32.2248 42.1549 29.8562 39.778C26.1635 36.0723 22.6254 32.1962 19.0002 28.3699L21.5947 25.7893C21.8108 25.9972 22.0744 26.2572 22.3261 26.5213C25.4777 29.8179 28.6312 33.1195 31.7868 36.4259C33.426 38.1435 35.4774 38.2683 36.968 36.7523C38.4585 35.2364 38.3555 32.9677 36.7182 31.2334C35.8263 30.3018 34.9165 29.3993 34.0364 28.4926Z" fill="#FEA203"/>
</svg>
