<svg width="50" height="50" viewBox="0 0 50 50" fill="none" xmlns="http://www.w3.org/2000/svg">
<rect width="50" height="50" fill="#FF1154"/>
<path d="M35.7159 34.9589C36.7693 35.1431 37.8087 35.3237 37.9749 36.6554C38.4143 40.1971 32.9526 38.8796 31.7019 38.1111C29.7443 36.9033 28.5556 34.1443 29.0654 31.4207C29.2598 30.3688 30.3217 27.6417 31.3189 25.074C32.254 22.6691 33.1329 20.406 33.2005 19.7897C33.3357 18.4828 32.7836 18.373 32.4371 18.3518C31.9921 18.3234 31.64 18.5962 31.2034 19.4249C30.9273 19.9456 28.7077 25.4813 27.2261 29.1824C26.5529 30.8576 26.0346 32.1574 25.9106 32.4443C25.2121 34.1018 24.3332 34.502 23.4516 34.4418C22.1615 34.3568 21.5728 33.4891 21.7587 31.9272C21.8094 31.5093 22.4375 29.5755 23.1164 27.4859C23.9164 25.0138 24.7924 22.3221 24.8712 21.635C24.9614 20.8522 24.8374 20.0235 24.2234 19.6268C23.6037 19.2266 22.877 19.8358 22.6573 20.2997C22.5136 20.6043 21.5221 23.7742 20.4771 27.1175C19.3222 30.8045 18.1025 34.7004 17.8772 35.2139C17.1336 36.921 16.3477 37.4629 15.1674 37.5338C12.376 37.7002 10.3057 34.8102 11.2183 31.272C11.2944 30.978 11.4465 30.3299 11.6577 29.4445C12.5788 25.5627 14.5675 17.1724 15.6745 14.6932C16.5899 12.6461 19.1335 11.0948 20.8968 12.0546C21.4742 12.3698 22.1953 12.8019 22.7389 13.1313C23.0544 13.3225 23.3108 13.4748 23.446 13.5527C24.2009 13.9742 25.0036 13.0286 25.4346 12.5186C25.4966 12.4477 25.5501 12.384 25.5952 12.3344C25.6384 12.2872 25.6806 12.2399 25.7219 12.1927C26.043 11.8386 26.3613 11.4879 26.7529 11.279C27.1951 11.0381 27.8908 10.939 28.4288 11.0381C28.9697 11.1373 29.2908 11.3958 29.4908 11.5977C29.8231 11.9306 30.0485 12.2034 30.333 12.5469L30.5076 12.7559C31.0259 13.3757 31.409 13.0817 31.6879 12.8692L31.7611 12.8161L31.7752 12.8054C32.2568 12.4513 32.6456 12.1679 34.0793 12.1998C35.5694 12.2317 37.282 12.9046 37.6397 16.0992C37.8313 17.8241 36.7468 20.8664 35.6201 24.0292C34.4258 27.3761 33.1864 30.8576 33.3667 33.0393C33.4962 34.5729 34.6117 34.7677 35.7159 34.9589Z" fill="white"/>
</svg>
