<svg width="50" height="50" viewBox="0 0 50 50" fill="none" xmlns="http://www.w3.org/2000/svg">
<path d="M29.8705 16.5114C29.8731 18.2229 29.3467 19.895 28.3606 21.3074C26.3421 19.4975 23.7045 18.4955 20.9688 18.4993C18.3601 18.4954 15.8361 19.4067 13.8534 21.0682C12.9698 19.7063 12.5017 18.1253 12.5042 16.5114C12.5042 11.8113 16.3919 8.00098 21.1874 8.00098C25.9829 8.00098 29.8705 11.8104 29.8705 16.5114Z" fill="#FFDB00"/>
<path d="M42.001 31.4911C42.001 36.1912 38.1133 40.0015 33.3178 40.0015C31.191 40.0046 29.1377 39.2396 27.55 37.8527C30.2146 35.8906 31.9381 32.7686 31.9381 29.2513C31.9414 27.2249 31.3574 25.2393 30.2541 23.5256C31.2332 23.1641 32.2711 22.9794 33.3175 22.9806C38.1123 22.9791 42.001 26.7885 42.001 31.4911Z" fill="#FFDB00"/>
<path d="M27.549 37.8511C25.6522 39.2493 23.3422 40.0037 20.9688 39.9999C14.9108 39.9999 10 35.1868 10 29.2497C9.99826 27.6936 10.342 26.1558 11.0074 24.743C11.6728 23.3302 12.6439 22.0763 13.8534 21.0682C14.6365 22.2801 15.7197 23.278 17.0022 23.9691C18.2847 24.6603 19.7247 25.0222 21.1883 25.0211C22.6021 25.0218 23.9946 24.6838 25.2446 24.0365C26.4947 23.3892 27.5644 22.4524 28.3606 21.3074C29.0902 21.9597 29.7269 22.7052 30.2534 23.5241C26.9695 24.7387 24.6337 27.8464 24.6337 31.4895C24.6323 32.6918 24.8915 33.8806 25.3941 34.9773C25.8967 36.074 26.6312 37.0535 27.549 37.8511Z" fill="black"/>
</svg>
