<svg width="50" height="51" viewBox="0 0 50 51" fill="none" xmlns="http://www.w3.org/2000/svg">
<path d="M41.2077 9L27.1764 19.3062L29.788 13.2138L41.2077 9Z" fill="#E17726"/>
<path d="M8.79232 9L22.7212 19.4077L20.2119 13.2646L8.79232 9ZM36.138 32.9123L32.3997 38.5985L40.4395 40.7815L42.744 33.0646C42.6927 33.0646 36.138 32.9123 36.138 32.9123ZM7.30725 33.0646L9.61166 40.7815L17.6003 38.5985L13.862 32.9123L7.30725 33.0646Z" fill="#E27625"/>
<path d="M17.1394 23.3677L14.9374 26.7185L22.8236 27.0231L22.5676 18.5954L17.1394 23.3677ZM32.8606 23.3677L27.33 18.4938L27.1252 27.0738L35.0626 26.7185C35.0626 26.6677 32.8606 23.3677 32.8606 23.3677ZM17.6003 38.5985L22.4139 36.3138L18.266 33.1154L17.6003 38.5985ZM27.6373 36.2631L32.3997 38.5477L31.734 33.0646C31.7852 33.1154 27.6373 36.2631 27.6373 36.2631Z" fill="#E27625"/>
<path d="M32.3997 38.5985L27.6373 36.3138L28.0469 39.4108L27.9957 40.7308L32.3997 38.5985ZM17.6003 38.5985L22.0555 40.68L22.0043 39.36L22.4139 36.2631L17.6003 38.5985Z" fill="#D5BFB2"/>
<path d="M22.1067 31.0846L18.1636 29.9169L20.9801 28.6477L22.1067 31.0846ZM27.8933 31.0846L29.0711 28.6477L31.8876 29.9169L27.8933 31.0846Z" fill="#233447"/>
<path d="M17.6003 38.5985L18.3172 32.9123L13.9132 33.0646C13.862 33.0646 17.6003 38.5985 17.6003 38.5985ZM31.734 32.9123L32.3997 38.5985L36.138 33.0646L31.734 32.9123ZM35.0626 26.6677L27.1252 27.0231L27.8421 31.0338L29.0199 28.5969L31.8364 29.8662C31.8876 29.9169 35.0626 26.6677 35.0626 26.6677ZM18.1636 29.9169L20.9801 28.6477L22.1579 31.0846L22.8748 27.0738L14.9374 26.7185L18.1636 29.9169Z" fill="#CC6228"/>
<path d="M14.9374 26.6677L18.266 33.0646L18.1636 29.8662C18.1636 29.9169 14.9374 26.6677 14.9374 26.6677ZM31.8876 29.9169L31.734 33.1154L35.0626 26.7185C35.0626 26.6677 31.8876 29.9169 31.8876 29.9169ZM22.8748 27.0231L22.1067 31.0338L23.0284 35.8062L23.2333 29.5108L22.8748 27.0231ZM27.1764 27.0231L26.7667 29.5108L26.9715 35.8062L27.8933 31.0338L27.1764 27.0231Z" fill="#E27525"/>
<path d="M27.8933 31.0846L26.9715 35.8569L27.6373 36.3138L31.734 33.1154L31.8876 29.9169L27.8933 31.0846ZM18.1636 29.9169L18.266 33.1154L22.4139 36.3138L23.0797 35.8569L22.1579 31.0846L18.1636 29.9169Z" fill="#F5841F"/>
<path d="M27.9957 40.68L28.0469 39.36L27.6885 39.0554H22.3627L22.0043 39.36L22.0555 40.68L17.6003 38.5985L19.1878 39.8677L22.3627 42H27.7909L30.9659 39.8169L32.5021 38.5477L27.9957 40.68Z" fill="#C0AC9D"/>
<path d="M27.6373 36.2631L26.9715 35.8062H23.0797L22.4139 36.2631L22.0043 39.36L22.3627 39.0554H27.6885L28.0469 39.36L27.6373 36.2631Z" fill="#161616"/>
<path d="M41.8222 20.0169L43 14.3308L41.2077 9L27.6373 19.0015L32.8606 23.3677L40.2347 25.5L41.8734 23.6215L41.1565 23.1138L42.2831 22.0985L41.4125 21.4385L42.5391 20.5754L41.8222 20.0169ZM7 14.3308L8.17781 20.0169L7.46088 20.5754L8.58748 21.4385L7.71693 22.0985L8.84353 23.1138L8.1266 23.6215L9.76529 25.5L17.1394 23.3677L22.3627 19.0015L8.79232 9L7 14.3308Z" fill="#763E1A"/>
<path d="M40.2347 25.5L32.8606 23.3677L35.0626 26.6677L31.734 33.0646L36.138 33.0138H42.6927L40.2347 25.5ZM17.1394 23.3677L9.76529 25.5L7.30725 33.0646L13.862 33.0646L18.266 33.1154L14.9374 26.7185L17.1394 23.3677ZM27.1764 27.0231L27.6373 18.9508L29.788 13.2138H20.2119L22.3627 18.9508L22.8236 27.0231L23.0284 29.5615V35.8062H26.9715V29.5615L27.1764 27.0231Z" fill="#F5841F"/>
<path d="M41.2077 9L27.1764 19.3062L29.788 13.2138M41.2077 9L29.788 13.2138M41.2077 9L43 14.3308L41.8222 20.0169L42.5391 20.5754L41.4125 21.4385L42.2831 22.0985L41.1565 23.1138L41.8734 23.6215L40.2347 25.5M41.2077 9L27.6373 19.0015L32.8606 23.3677M29.788 13.2138L27.6373 18.9508L27.1764 27.0231M29.788 13.2138H20.2119L22.3627 18.9508L22.8236 27.0231M8.79232 9L22.7212 19.4077L20.2119 13.2646L8.79232 9ZM8.79232 9L22.3627 19.0015L17.1394 23.3677M8.79232 9L7 14.3308L8.17781 20.0169L7.46088 20.5754L8.58748 21.4385L7.71693 22.0985L8.84353 23.1138L8.1266 23.6215L9.76529 25.5M32.3997 38.5985L36.138 32.9123C36.138 32.9123 42.6927 33.0646 42.744 33.0646L40.4395 40.7815L32.3997 38.5985ZM32.3997 38.5985L27.6373 36.3138M32.3997 38.5985L27.9957 40.7308L28.0469 39.4108L27.6373 36.3138M32.3997 38.5985L31.734 32.9123L36.138 33.0646L32.3997 38.5985ZM7.30725 33.0646L9.61166 40.7815L17.6003 38.5985M7.30725 33.0646L13.862 32.9123L17.6003 38.5985M7.30725 33.0646L9.76529 25.5M7.30725 33.0646L13.862 33.0646L18.266 33.1154M17.6003 38.5985L22.4139 36.3138M17.6003 38.5985L18.266 33.1154M17.6003 38.5985L22.0555 40.68L22.0043 39.36M17.6003 38.5985L22.4139 36.2631M17.6003 38.5985L18.3172 32.9123L13.9132 33.0646C13.862 33.0646 17.6003 38.5985 17.6003 38.5985ZM17.6003 38.5985L19.1878 39.8677L22.3627 42H27.7909L30.9659 39.8169L32.5021 38.5477L27.9957 40.68L28.0469 39.36M17.1394 23.3677L14.9374 26.7185M17.1394 23.3677L22.5676 18.5954L22.8236 27.0231M17.1394 23.3677L9.76529 25.5M14.9374 26.7185L22.8236 27.0231M14.9374 26.7185L22.8748 27.0738L22.1579 31.0846M14.9374 26.7185L18.1636 29.9169M14.9374 26.7185L18.266 33.1154M22.8236 27.0231L23.0284 29.5615V35.8062M32.8606 23.3677L27.33 18.4938L27.1252 27.0738L35.0626 26.7185M32.8606 23.3677C32.8606 23.3677 35.0626 26.6677 35.0626 26.7185M32.8606 23.3677L40.2347 25.5M32.8606 23.3677L35.0626 26.6677M35.0626 26.7185L31.734 33.1154M35.0626 26.7185C35.0626 26.6677 31.8876 29.9169 31.8876 29.9169M22.4139 36.3138L18.266 33.1154M22.4139 36.3138L23.0797 35.8569L22.1579 31.0846M18.266 33.1154L18.1636 29.9169M27.6373 36.2631L32.3997 38.5477L31.734 33.0646M27.6373 36.2631C27.6373 36.2631 31.7852 33.1154 31.734 33.0646M27.6373 36.2631L26.9715 35.8062M27.6373 36.2631L28.0469 39.36M31.734 33.0646L35.0626 26.6677M31.734 33.0646L36.138 33.0138H42.6927L40.2347 25.5M27.6373 36.3138L26.9715 35.8569L27.8933 31.0846M27.6373 36.3138L31.734 33.1154M22.0043 39.36L22.4139 36.2631M22.0043 39.36L22.3627 39.0554H27.6885L28.0469 39.36M22.4139 36.2631L23.0797 35.8062H26.9715M18.1636 29.9169L22.1067 31.0846L20.9801 28.6477M18.1636 29.9169L20.9801 28.6477M18.1636 29.9169L22.1579 31.0846M20.9801 28.6477L22.1579 31.0846M27.8933 31.0846L29.0711 28.6477L31.8876 29.9169M27.8933 31.0846L31.8876 29.9169M31.8876 29.9169L31.734 33.1154M35.0626 26.6677L27.1252 27.0231L27.8421 31.0338L29.0199 28.5969L31.8364 29.8662C31.8876 29.9169 35.0626 26.6677 35.0626 26.6677ZM23.0284 35.8062L22.1067 31.0338L22.8748 27.0231L23.2333 29.5108L23.0284 35.8062ZM23.0284 35.8062H26.9715M27.1764 27.0231L26.7667 29.5108L26.9715 35.8062M27.1764 27.0231L27.8933 31.0338L26.9715 35.8062M27.1764 27.0231L26.9715 29.5615V35.8062M14.9374 26.6677L18.266 33.0646L18.1636 29.8662C18.1636 29.9169 14.9374 26.6677 14.9374 26.6677Z" stroke="#F5841F" stroke-width="0.25" stroke-linecap="round" stroke-linejoin="round"/>
</svg>
