<svg width="50" height="50" viewBox="0 0 50 50" fill="none" xmlns="http://www.w3.org/2000/svg">
<path d="M10.8884 22.8274C10.8884 24.2071 11.1902 25.2664 11.5845 25.9072C12.1015 26.7466 12.8727 27.1022 13.6589 27.1022C14.673 27.1022 15.6006 26.8496 17.3884 24.368C18.8206 22.3788 20.5081 19.5868 21.6436 17.8364L23.5666 14.871C24.9024 12.8115 26.4485 10.5221 28.2212 8.97026C29.6684 7.70366 31.2295 7 32.8007 7C35.4384 7 37.951 8.53424 39.874 11.4117C41.9784 14.5631 43 18.5326 43 22.6289C43 25.0641 42.5218 26.8534 41.708 28.267C40.9218 29.6341 39.3895 31 36.8118 31V27.1022C39.0189 27.1022 39.5698 25.0666 39.5698 22.737C39.5698 19.4172 38.7986 15.733 37.0997 13.1005C35.8941 11.2333 34.3318 10.0924 32.6129 10.0924C30.7538 10.0924 29.2578 11.4997 27.5764 14.009C26.6826 15.3422 25.7649 16.9669 24.7346 18.8002L23.6004 20.817C21.3219 24.8718 20.7448 25.7954 19.6055 27.3196C17.6087 29.9885 15.9036 31 13.6589 31C10.9961 31 9.31228 29.8427 8.26944 28.0986C7.41814 26.6775 7 24.8128 7 22.688L10.8884 22.8274Z" fill="#0081FB"/>
<path d="M10.0659 11.6869C11.8487 8.9288 14.4213 7 17.3721 7C19.081 7 20.7798 7.50764 22.5538 8.96147C24.4942 10.551 26.5624 13.1684 29.1426 17.4821L30.0677 19.0302C32.3012 22.7646 33.5718 24.6859 34.3155 25.5918C35.2719 26.7554 35.9417 27.1022 36.8118 27.1022C39.0189 27.1022 39.5698 25.0666 39.5698 22.737L43 22.6289C43 25.0641 42.5218 26.8534 41.708 28.267C40.9218 29.6341 39.3895 31 36.8118 31C35.2093 31 33.7897 30.6507 32.2198 29.1642C31.0129 28.0232 29.602 25.9964 28.5166 24.1744L25.2879 18.7613C23.668 16.0446 22.1819 14.0191 21.3219 13.1018C20.3967 12.1154 19.2074 10.9242 17.3095 10.9242C15.7734 10.9242 14.4689 12.0061 13.3772 13.6609L10.0659 11.6869Z" fill="url(#paint0_linear_9176_13694)"/>
<path d="M17.3095 10.9242C15.7734 10.9242 14.4689 12.0061 13.3772 13.6609C11.8336 15.9994 10.8884 19.4825 10.8884 22.8274C10.8884 24.2071 11.1902 25.2664 11.5845 25.9072L8.26944 28.0986C7.41814 26.6775 7 24.8128 7 22.688C7 18.8241 8.05661 14.7969 10.0659 11.6869C11.8487 8.9288 14.4213 7 17.3721 7L17.3095 10.9242Z" fill="url(#paint1_linear_9176_13694)"/>
<path d="M10.2808 39.4937H8.65918L8.65039 38.8125H10.1226C10.3657 38.8125 10.5781 38.7715 10.7598 38.6895C10.9414 38.6074 11.082 38.4902 11.1816 38.3379C11.2842 38.1826 11.3354 37.998 11.3354 37.7842C11.3354 37.5498 11.29 37.3594 11.1992 37.2129C11.1113 37.0635 10.9751 36.9551 10.7905 36.8877C10.6089 36.8174 10.3774 36.7822 10.0962 36.7822H8.84814V42.4863H8V36.0879H10.0962C10.4243 36.0879 10.7173 36.1216 10.9751 36.189C11.2329 36.2534 11.4512 36.356 11.6299 36.4966C11.8115 36.6343 11.9492 36.8101 12.043 37.0239C12.1367 37.2378 12.1836 37.4941 12.1836 37.793C12.1836 38.0566 12.1162 38.2954 11.9814 38.5093C11.8467 38.7202 11.6592 38.8931 11.4189 39.0278C11.1816 39.1626 10.9033 39.249 10.584 39.2871L10.2808 39.4937ZM10.2412 42.4863H8.3252L8.8042 41.7964H10.2412C10.5107 41.7964 10.7393 41.7495 10.9268 41.6558C11.1172 41.562 11.2622 41.4302 11.3618 41.2603C11.4614 41.0874 11.5112 40.8838 11.5112 40.6494C11.5112 40.4121 11.4688 40.207 11.3838 40.0342C11.2988 39.8613 11.1655 39.728 10.9839 39.6343C10.8022 39.5405 10.5679 39.4937 10.2808 39.4937H9.07227L9.08105 38.8125H10.7334L10.9136 39.0586C11.2212 39.085 11.4819 39.1729 11.6958 39.3223C11.9097 39.4688 12.0723 39.6562 12.1836 39.8848C12.2979 40.1133 12.355 40.3652 12.355 40.6406C12.355 41.0391 12.2671 41.376 12.0913 41.6514C11.9185 41.9238 11.6738 42.1318 11.3574 42.2754C11.041 42.416 10.6689 42.4863 10.2412 42.4863Z" fill="black"/>
<path d="M16.3936 41.3877V37.7314H17.2109V42.4863H16.4331L16.3936 41.3877ZM16.5474 40.3857L16.8857 40.377C16.8857 40.6934 16.8521 40.9863 16.7847 41.2559C16.7202 41.5225 16.6147 41.7539 16.4683 41.9502C16.3218 42.1465 16.1299 42.3003 15.8926 42.4116C15.6553 42.52 15.3667 42.5742 15.0269 42.5742C14.7954 42.5742 14.583 42.5405 14.3896 42.4731C14.1992 42.4058 14.0352 42.3018 13.8975 42.1611C13.7598 42.0205 13.6528 41.8374 13.5767 41.6118C13.5034 41.3862 13.4668 41.1152 13.4668 40.7988V37.7314H14.2798V40.8076C14.2798 41.0215 14.3032 41.1987 14.3501 41.3394C14.3999 41.4771 14.4658 41.5869 14.5479 41.6689C14.6328 41.748 14.7266 41.8037 14.8291 41.8359C14.9346 41.8682 15.043 41.8843 15.1543 41.8843C15.5 41.8843 15.7739 41.8184 15.9761 41.6865C16.1782 41.5518 16.3232 41.3716 16.4111 41.146C16.502 40.9175 16.5474 40.6641 16.5474 40.3857Z" fill="black"/>
<path d="M21.2188 41.2251C21.2188 41.1079 21.1924 40.9995 21.1396 40.8999C21.0898 40.7974 20.9858 40.7051 20.8276 40.623C20.6724 40.5381 20.438 40.4648 20.1245 40.4033C19.8608 40.3477 19.6221 40.2817 19.4082 40.2056C19.1973 40.1294 19.0171 40.0371 18.8677 39.9287C18.7212 39.8203 18.6084 39.6929 18.5293 39.5464C18.4502 39.3999 18.4106 39.2285 18.4106 39.0322C18.4106 38.8447 18.4517 38.6675 18.5337 38.5005C18.6187 38.3335 18.7373 38.1855 18.8896 38.0566C19.0449 37.9277 19.231 37.8267 19.4478 37.7534C19.6646 37.6802 19.9062 37.6436 20.1729 37.6436C20.5537 37.6436 20.8789 37.7109 21.1484 37.8457C21.418 37.9805 21.6245 38.1606 21.7681 38.3862C21.9116 38.6089 21.9834 38.8564 21.9834 39.1289H21.1704C21.1704 38.9971 21.1309 38.8696 21.0518 38.7466C20.9756 38.6206 20.8628 38.5166 20.7134 38.4346C20.5669 38.3525 20.3867 38.3115 20.1729 38.3115C19.9473 38.3115 19.7642 38.3467 19.6235 38.417C19.4858 38.4844 19.3848 38.5708 19.3203 38.6763C19.2588 38.7817 19.228 38.8931 19.228 39.0103C19.228 39.0981 19.2427 39.1772 19.272 39.2476C19.3042 39.3149 19.3599 39.3779 19.439 39.4365C19.5181 39.4922 19.6294 39.5449 19.7729 39.5947C19.9165 39.6445 20.0996 39.6943 20.3223 39.7441C20.7119 39.832 21.0327 39.9375 21.2847 40.0605C21.5366 40.1836 21.7241 40.3345 21.8472 40.5132C21.9702 40.6919 22.0317 40.9087 22.0317 41.1636C22.0317 41.3716 21.9878 41.562 21.8999 41.7349C21.8149 41.9077 21.6904 42.0571 21.5264 42.1831C21.3652 42.3062 21.1719 42.4028 20.9463 42.4731C20.7236 42.5405 20.4731 42.5742 20.1948 42.5742C19.7759 42.5742 19.4214 42.4995 19.1313 42.3501C18.8413 42.2007 18.6216 42.0073 18.4722 41.77C18.3228 41.5327 18.248 41.2822 18.248 41.0186H19.0654C19.0771 41.2412 19.1416 41.4185 19.2588 41.5503C19.376 41.6792 19.5195 41.7715 19.6895 41.8271C19.8594 41.8799 20.0278 41.9062 20.1948 41.9062C20.4175 41.9062 20.6035 41.877 20.7529 41.8184C20.9053 41.7598 21.021 41.6792 21.1001 41.5767C21.1792 41.4741 21.2188 41.3569 21.2188 41.2251Z" fill="black"/>
<path d="M23.9829 37.7314V42.4863H23.1655V37.7314H23.9829ZM23.104 36.4702C23.104 36.3384 23.1436 36.2271 23.2227 36.1362C23.3047 36.0454 23.4248 36 23.583 36C23.7383 36 23.8569 36.0454 23.939 36.1362C24.0239 36.2271 24.0664 36.3384 24.0664 36.4702C24.0664 36.5962 24.0239 36.7046 23.939 36.7954C23.8569 36.8833 23.7383 36.9272 23.583 36.9272C23.4248 36.9272 23.3047 36.8833 23.2227 36.7954C23.1436 36.7046 23.104 36.5962 23.104 36.4702Z" fill="black"/>
<path d="M26.1011 38.7466V42.4863H25.2881V37.7314H26.0571L26.1011 38.7466ZM25.9077 39.9287L25.5693 39.9155C25.5723 39.5903 25.6206 39.29 25.7144 39.0146C25.8081 38.7363 25.9399 38.4946 26.1099 38.2896C26.2798 38.0845 26.4819 37.9263 26.7163 37.8149C26.9536 37.7007 27.2158 37.6436 27.5029 37.6436C27.7373 37.6436 27.9482 37.6758 28.1357 37.7402C28.3232 37.8018 28.4829 37.9014 28.6147 38.0391C28.7495 38.1768 28.8521 38.3555 28.9224 38.5752C28.9927 38.792 29.0278 39.0571 29.0278 39.3706V42.4863H28.2104V39.3618C28.2104 39.1128 28.1738 38.9136 28.1006 38.7642C28.0273 38.6118 27.9204 38.502 27.7798 38.4346C27.6392 38.3643 27.4663 38.3291 27.2612 38.3291C27.0591 38.3291 26.8745 38.3716 26.7075 38.4565C26.5435 38.5415 26.4014 38.6587 26.2812 38.8081C26.1641 38.9575 26.0718 39.1289 26.0044 39.3223C25.9399 39.5127 25.9077 39.7148 25.9077 39.9287Z" fill="black"/>
<path d="M32.2358 42.5742C31.9048 42.5742 31.6045 42.5186 31.335 42.4072C31.0684 42.293 30.8384 42.1333 30.645 41.9282C30.4546 41.7231 30.3081 41.48 30.2056 41.1987C30.103 40.9175 30.0518 40.6099 30.0518 40.2759V40.0913C30.0518 39.7046 30.1089 39.3604 30.2231 39.0586C30.3374 38.7539 30.4927 38.4961 30.689 38.2852C30.8853 38.0742 31.1079 37.9146 31.3569 37.8062C31.606 37.6978 31.8638 37.6436 32.1304 37.6436C32.4702 37.6436 32.7632 37.7021 33.0093 37.8193C33.2583 37.9365 33.4619 38.1006 33.6201 38.3115C33.7783 38.5195 33.8955 38.7656 33.9717 39.0498C34.0479 39.3311 34.0859 39.6387 34.0859 39.9727V40.3374H30.5352V39.6738H33.2729V39.6123C33.2612 39.4014 33.2173 39.1963 33.1411 38.9971C33.0679 38.7979 32.9507 38.6338 32.7896 38.5049C32.6284 38.376 32.4087 38.3115 32.1304 38.3115C31.9458 38.3115 31.7759 38.3511 31.6206 38.4302C31.4653 38.5063 31.332 38.6206 31.2207 38.7729C31.1094 38.9253 31.0229 39.1113 30.9614 39.3311C30.8999 39.5508 30.8691 39.8042 30.8691 40.0913V40.2759C30.8691 40.5015 30.8999 40.7139 30.9614 40.9131C31.0259 41.1094 31.1182 41.2822 31.2383 41.4316C31.3613 41.5811 31.5093 41.6982 31.6821 41.7832C31.8579 41.8682 32.0571 41.9106 32.2798 41.9106C32.5669 41.9106 32.8101 41.8521 33.0093 41.7349C33.2085 41.6177 33.3828 41.4609 33.5322 41.2646L34.0244 41.6558C33.9219 41.811 33.7915 41.959 33.6333 42.0996C33.4751 42.2402 33.2803 42.3545 33.0488 42.4424C32.8203 42.5303 32.5493 42.5742 32.2358 42.5742Z" fill="black"/>
<path d="M37.8037 41.2251C37.8037 41.1079 37.7773 40.9995 37.7246 40.8999C37.6748 40.7974 37.5708 40.7051 37.4126 40.623C37.2573 40.5381 37.0229 40.4648 36.7095 40.4033C36.4458 40.3477 36.207 40.2817 35.9932 40.2056C35.7822 40.1294 35.6021 40.0371 35.4526 39.9287C35.3062 39.8203 35.1934 39.6929 35.1143 39.5464C35.0352 39.3999 34.9956 39.2285 34.9956 39.0322C34.9956 38.8447 35.0366 38.6675 35.1187 38.5005C35.2036 38.3335 35.3223 38.1855 35.4746 38.0566C35.6299 37.9277 35.8159 37.8267 36.0327 37.7534C36.2495 37.6802 36.4912 37.6436 36.7578 37.6436C37.1387 37.6436 37.4639 37.7109 37.7334 37.8457C38.0029 37.9805 38.2095 38.1606 38.353 38.3862C38.4966 38.6089 38.5684 38.8564 38.5684 39.1289H37.7554C37.7554 38.9971 37.7158 38.8696 37.6367 38.7466C37.5605 38.6206 37.4478 38.5166 37.2983 38.4346C37.1519 38.3525 36.9717 38.3115 36.7578 38.3115C36.5322 38.3115 36.3491 38.3467 36.2085 38.417C36.0708 38.4844 35.9697 38.5708 35.9053 38.6763C35.8438 38.7817 35.813 38.8931 35.813 39.0103C35.813 39.0981 35.8276 39.1772 35.8569 39.2476C35.8892 39.3149 35.9448 39.3779 36.0239 39.4365C36.103 39.4922 36.2144 39.5449 36.3579 39.5947C36.5015 39.6445 36.6846 39.6943 36.9072 39.7441C37.2969 39.832 37.6177 39.9375 37.8696 40.0605C38.1216 40.1836 38.3091 40.3345 38.4321 40.5132C38.5552 40.6919 38.6167 40.9087 38.6167 41.1636C38.6167 41.3716 38.5728 41.562 38.4849 41.7349C38.3999 41.9077 38.2754 42.0571 38.1113 42.1831C37.9502 42.3062 37.7568 42.4028 37.5312 42.4731C37.3086 42.5405 37.0581 42.5742 36.7798 42.5742C36.3608 42.5742 36.0063 42.4995 35.7163 42.3501C35.4263 42.2007 35.2065 42.0073 35.0571 41.77C34.9077 41.5327 34.833 41.2822 34.833 41.0186H35.6504C35.6621 41.2412 35.7266 41.4185 35.8438 41.5503C35.9609 41.6792 36.1045 41.7715 36.2744 41.8271C36.4443 41.8799 36.6128 41.9062 36.7798 41.9062C37.0024 41.9062 37.1885 41.877 37.3379 41.8184C37.4902 41.7598 37.606 41.6792 37.6851 41.5767C37.7642 41.4741 37.8037 41.3569 37.8037 41.2251Z" fill="black"/>
<path d="M42.4531 41.2251C42.4531 41.1079 42.4268 40.9995 42.374 40.8999C42.3242 40.7974 42.2202 40.7051 42.062 40.623C41.9067 40.5381 41.6724 40.4648 41.3589 40.4033C41.0952 40.3477 40.8564 40.2817 40.6426 40.2056C40.4316 40.1294 40.2515 40.0371 40.1021 39.9287C39.9556 39.8203 39.8428 39.6929 39.7637 39.5464C39.6846 39.3999 39.645 39.2285 39.645 39.0322C39.645 38.8447 39.686 38.6675 39.7681 38.5005C39.853 38.3335 39.9717 38.1855 40.124 38.0566C40.2793 37.9277 40.4653 37.8267 40.6821 37.7534C40.8989 37.6802 41.1406 37.6436 41.4072 37.6436C41.7881 37.6436 42.1133 37.7109 42.3828 37.8457C42.6523 37.9805 42.8589 38.1606 43.0024 38.3862C43.146 38.6089 43.2178 38.8564 43.2178 39.1289H42.4048C42.4048 38.9971 42.3652 38.8696 42.2861 38.7466C42.21 38.6206 42.0972 38.5166 41.9478 38.4346C41.8013 38.3525 41.6211 38.3115 41.4072 38.3115C41.1816 38.3115 40.9985 38.3467 40.8579 38.417C40.7202 38.4844 40.6191 38.5708 40.5547 38.6763C40.4932 38.7817 40.4624 38.8931 40.4624 39.0103C40.4624 39.0981 40.4771 39.1772 40.5063 39.2476C40.5386 39.3149 40.5942 39.3779 40.6733 39.4365C40.7524 39.4922 40.8638 39.5449 41.0073 39.5947C41.1509 39.6445 41.334 39.6943 41.5566 39.7441C41.9463 39.832 42.2671 39.9375 42.519 40.0605C42.771 40.1836 42.9585 40.3345 43.0815 40.5132C43.2046 40.6919 43.2661 40.9087 43.2661 41.1636C43.2661 41.3716 43.2222 41.562 43.1343 41.7349C43.0493 41.9077 42.9248 42.0571 42.7607 42.1831C42.5996 42.3062 42.4062 42.4028 42.1807 42.4731C41.958 42.5405 41.7075 42.5742 41.4292 42.5742C41.0103 42.5742 40.6558 42.4995 40.3657 42.3501C40.0757 42.2007 39.856 42.0073 39.7065 41.77C39.5571 41.5327 39.4824 41.2822 39.4824 41.0186H40.2998C40.3115 41.2412 40.376 41.4185 40.4932 41.5503C40.6104 41.6792 40.7539 41.7715 40.9238 41.8271C41.0938 41.8799 41.2622 41.9062 41.4292 41.9062C41.6519 41.9062 41.8379 41.877 41.9873 41.8184C42.1396 41.7598 42.2554 41.6792 42.3345 41.5767C42.4136 41.4741 42.4531 41.3569 42.4531 41.2251Z" fill="black"/>
<defs>
<linearGradient id="paint0_linear_9176_13694" x1="11.9962" y1="21.7016" x2="39.0789" y2="23.1912" gradientUnits="userSpaceOnUse">
<stop stop-color="#0064E1"/>
<stop offset="0.4" stop-color="#0064E1"/>
<stop offset="0.83" stop-color="#0073EE"/>
<stop offset="1" stop-color="#0082FB"/>
</linearGradient>
<linearGradient id="paint1_linear_9176_13694" x1="12.6336" y1="24.466" x2="12.6336" y2="15.2932" gradientUnits="userSpaceOnUse">
<stop stop-color="#0082FB"/>
<stop offset="1" stop-color="#0064E0"/>
</linearGradient>
</defs>
</svg>
