<svg width="50" height="50" viewBox="0 0 50 50" fill="none" xmlns="http://www.w3.org/2000/svg">
<path d="M24.6122 31.2686C24.6122 31.2686 24.5824 31.2835 24.5675 31.2984C25.5204 31.7153 26.1607 32.0132 26.2501 32.0578C26.4437 31.5665 26.3543 30.7772 26.3096 30.4497C25.7587 30.7177 25.1929 30.9857 24.6271 31.2686H24.6122Z" fill="black"/>
<path d="M26.3544 30.4201L26.4884 30.5839C26.9351 30.8817 27.5009 31.0157 28.0668 30.9264C29.1984 30.7328 29.9727 29.7352 29.9132 28.6184C28.7666 29.2289 27.5753 29.8245 26.3395 30.4201H26.3544Z" fill="black"/>
<path d="M25 6C14.5023 6 6 14.5024 6 25C6 35.4976 14.5023 44 25 44C35.4977 44 44 35.4976 44 25C44 14.5024 35.4828 6 25 6ZM13.4302 19.2821C14.279 19.6395 14.8746 20.3393 15.1129 21.1583C16.2594 21.337 17.1528 22.3048 17.2124 23.511C17.2571 24.5682 16.6465 25.4914 15.7383 25.8934C16.1701 25.4616 16.4381 24.8511 16.4083 24.181C16.3785 23.3471 15.8871 22.6622 15.2171 22.2899C15.1873 22.558 15.1278 22.826 15.0235 23.0792C14.547 24.2257 13.4451 24.8958 12.2688 24.866C12.9538 24.6277 13.5345 24.1066 13.8323 23.377C14.3981 22.022 13.7429 20.4585 12.3879 19.8927C11.6732 19.5948 10.884 19.6395 10.2437 19.9522C11.0478 19.1183 12.3135 18.8056 13.4451 19.2673L13.4302 19.2821ZM11.018 31.5666C10.9585 31.4623 10.5564 30.6434 10.2735 29.9138C10.5713 29.9436 11.3158 29.7202 11.3158 29.7202C12.4922 29.1842 13.058 27.7994 12.5517 26.5932C12.2837 25.9381 11.7476 25.4616 11.1371 25.2233C11.9412 25.2233 12.7155 25.5658 13.2367 26.1912C13.326 26.1466 13.4153 26.1168 13.5196 26.0869C14.8299 25.6999 16.2147 26.4444 16.6019 27.7547C16.8997 28.7673 16.5275 29.8096 15.7383 30.42C16.0658 29.8989 16.1701 29.2288 15.9765 28.6034C15.6638 27.576 14.696 26.9357 13.6834 26.9804C14.0854 28.0823 13.7132 29.2735 12.8346 29.9733C12.8049 30.0031 12.7602 30.0329 12.7006 30.0776C12.6708 30.0924 12.6411 30.1223 12.6113 30.1372C11.3903 30.8519 11.0925 31.6559 11.0478 31.5666H11.018ZM11.5839 32.5494L12.8049 30.2563C13.0133 30.5094 12.6113 31.4475 12.6708 31.6411C12.7304 31.8346 14.8895 31.4028 14.8895 31.4028L11.6732 32.6834L11.5839 32.5494ZM12.656 34.0682L12.1944 33.4576C12.4773 33.0258 14.5917 32.2068 15.1724 31.9984C13.5196 32.7727 12.656 34.0682 12.656 34.0682ZM24.5533 31.8495C28.4099 33.3683 27.7994 36.9122 27.5165 37.1356C26.4444 33.2492 24.5533 31.8495 24.5533 31.8495ZM29.7798 34.8573C29.482 35.6317 28.0823 39.7265 28.0823 39.7265L27.2634 39.8605C27.2931 39.2053 27.3824 38.9522 28.1716 36.0635C28.9757 33.1748 32.6387 32.594 31.9835 32.8174C31.3283 33.0407 30.0627 34.083 29.7649 34.8573H29.7798ZM31.7453 32.3409C31.0008 32.6387 29.7649 33.145 29.0055 33.4428C29.2437 33.0407 30.0925 31.4028 30.0925 31.4028C30.1372 31.5964 30.0925 31.9389 30.0031 32.5643C30.569 32.6238 31.2093 32.4004 31.7453 32.3409ZM33.4576 35.0658C32.609 35.036 31.924 34.4851 31.6559 33.7257C31.9835 34.1128 32.4451 34.3511 32.9812 34.3809C33.9789 34.4255 34.8276 33.6364 34.8722 32.6387C34.8871 32.1026 34.6787 31.6113 34.3213 31.2688C35.0509 31.5815 35.5423 32.326 35.5126 33.1598C35.4679 34.2618 34.5446 35.1105 33.4576 35.0658ZM36.272 29.8096C35.9443 30.5838 35.185 31.0454 34.3958 31.0305C34.8574 30.8668 35.2594 30.5094 35.4679 30.018C35.855 29.0948 35.4083 28.0227 34.4851 27.6356C33.9937 27.4271 33.4577 27.4569 33.011 27.6653C33.5619 27.0995 34.4256 26.8762 35.1999 27.2038C36.2124 27.6207 36.6888 28.7821 36.272 29.7946V29.8096ZM36.8825 23.645C35.4232 25.2085 33.6066 26.5188 31.5369 27.71C32.1771 27.9483 32.7132 28.4546 32.9365 29.1693C33.2045 30.0776 32.877 31.0305 32.1771 31.5815C32.46 31.105 32.5494 30.5094 32.3855 29.9287C32.1473 29.1543 31.5071 28.6332 30.7774 28.4992C30.8072 28.6034 30.837 28.6928 30.8519 28.797C30.9114 29.0948 30.8817 29.3927 30.837 29.6755C30.837 29.7053 30.837 29.7202 30.8221 29.75C30.8221 29.75 30.8221 29.7797 30.8221 29.7946C30.6583 30.5987 29.9138 31.4028 29.348 31.7155C28.7524 32.058 27.8291 34.0384 27.844 33.7555C27.844 33.4725 27.7696 32.058 27.5463 31.7304C27.308 31.3879 27.2187 31.4922 26.7422 31.2092C26.7422 31.4772 26.8613 32.4302 26.906 32.877C26.5635 32.6238 24.9255 31.6113 24.4937 31.3581C22.3197 32.7876 21.3519 38.9373 21.0243 39.5031C20.4734 39.3393 20.3393 39.3096 19.7735 39.116C19.8777 38.2225 20.5478 33.5619 20.1309 33.3683C19.9075 33.2641 19.5203 33.3683 19.163 33.4576C18.8056 34.1873 18.0909 34.7084 17.2124 34.7829C16.185 34.8723 15.2617 34.3064 14.8299 33.4428C15.2766 33.8597 15.8871 34.083 16.5275 34.0235C17.7484 33.9193 18.6568 32.8471 18.5525 31.6113C18.4929 30.971 18.1654 30.4051 17.6888 30.0478C18.3143 30.2265 18.8354 30.6732 19.1481 31.239C21.0094 30.5541 30.1223 26.9655 36.7782 22.5877C27.0548 26.1317 22.0815 26.7422 20.7861 26.8464C20.8903 27.3229 20.8605 27.8292 20.6669 28.3056C20.2649 29.2586 19.3417 29.8245 18.3738 29.7946C18.9397 29.5862 19.4162 29.1544 19.6693 28.5588C20.1309 27.4271 19.5948 26.1317 18.4631 25.6551C17.8676 25.402 17.2124 25.4467 16.6763 25.6999C17.3464 25 18.4036 24.7469 19.3417 25.134C19.6544 25.268 19.9224 25.4467 20.1458 25.6849C22.558 25.1638 28.9012 21.7986 31.3879 19.0885C29.7202 19.6395 24.0471 21.1285 20.0713 21.2327C22.4686 20.1904 26.4295 18.0611 28.1567 15.8424C27.3973 15.8424 25.7445 16.6317 22.2304 16.7657C24.8064 14.2641 25.8339 8.41223 25.8339 8.41223C26.6826 10.5713 26.0572 13.0878 25.4616 14.7108C27.8738 15.2469 30.0031 14.6513 31.3581 14.0407C30.8221 15.1427 28.5141 17.9718 26.221 19.2673C27.2038 19.5352 30.971 18.3738 34.9467 17.4804C33.7853 18.9546 29.1246 23.1834 25.3127 24.6575C29.6309 23.7343 35.4977 22.0964 39.5776 20.5924C38.9075 21.471 38.2672 22.1262 36.8974 23.6152L36.8825 23.645Z" fill="black"/>
</svg>
