<svg width="50" height="50" viewBox="0 0 50 50" fill="none" xmlns="http://www.w3.org/2000/svg">
<rect width="50" height="50" fill="#0075F3"/>
<path d="M17.0454 13.24H32.9545V29.7535H38V8H17.0454V13.24Z" fill="white"/>
<path d="M32.9504 29.7535V35H12V13.2399H17.0518V29.7535H32.9504Z" fill="white"/>
<path d="M15.8947 41.7634C15.9437 41.885 15.9682 42.0254 15.9682 42.1845C15.9682 42.406 15.9116 42.5978 15.7983 42.76C15.688 42.9222 15.5258 43.047 15.3114 43.1344C15.0971 43.2217 14.8353 43.2654 14.5261 43.2654C14.3117 43.2654 14.105 43.2404 13.906 43.1905C13.7101 43.1375 13.534 43.0564 13.3778 42.9472C13.2248 42.838 13.1038 42.7008 13.015 42.5354C12.9262 42.367 12.8818 42.1658 12.8818 41.9318H12C12 42.2718 12.072 42.5713 12.2159 42.8302C12.3628 43.086 12.5573 43.3012 12.7992 43.4759C13.0441 43.6506 13.3151 43.7816 13.6121 43.869C13.9121 43.9563 14.2168 44 14.5261 44C14.8782 44 15.1966 43.9579 15.4814 43.8737C15.7692 43.7863 16.0157 43.6631 16.2208 43.504C16.426 43.3449 16.5836 43.1531 16.6939 42.9285C16.8041 42.7039 16.8592 42.4528 16.8592 42.1751C16.8592 41.91 16.8148 41.6729 16.726 41.4639C16.6403 41.2518 16.5071 41.0631 16.3264 40.8977C16.1489 40.7293 15.9223 40.578 15.6467 40.4439C15.3711 40.3097 15.0435 40.1881 14.6638 40.0789C14.3883 40.0009 14.151 39.9198 13.952 39.8356C13.756 39.7513 13.5937 39.6593 13.4651 39.5595C13.3396 39.4597 13.2462 39.352 13.1849 39.2366C13.1268 39.1181 13.0977 38.9871 13.0977 38.8436C13.0977 38.6315 13.1467 38.4427 13.2447 38.2774C13.3457 38.1121 13.4988 37.9811 13.7039 37.8844C13.9091 37.7877 14.1693 37.7393 14.4847 37.7393C14.8185 37.7393 15.094 37.797 15.3114 37.9124C15.5288 38.0247 15.6911 38.1807 15.7983 38.3803C15.9054 38.5769 15.959 38.803 15.959 39.0588H16.8408C16.8408 38.7032 16.749 38.3694 16.5653 38.0575C16.3816 37.7424 16.1136 37.4882 15.7615 37.2948C15.4125 37.0983 14.9869 37 14.4847 37C14.1418 37 13.831 37.0468 13.5524 37.1404C13.2737 37.234 13.0334 37.365 12.8313 37.5334C12.6323 37.6988 12.4792 37.8937 12.372 38.1183C12.2649 38.3429 12.2113 38.5878 12.2113 38.8529C12.2113 39.1181 12.2618 39.3536 12.3628 39.5595C12.4639 39.7654 12.6093 39.9479 12.7992 40.107C12.989 40.266 13.2171 40.408 13.4835 40.5328C13.7499 40.6544 14.0484 40.7652 14.3791 40.865C14.6945 40.9586 14.9547 41.0506 15.1599 41.141C15.3681 41.2315 15.5304 41.3266 15.6467 41.4265C15.7661 41.5263 15.8488 41.6386 15.8947 41.7634Z" fill="white"/>
<path fill-rule="evenodd" clip-rule="evenodd" d="M19.9226 44C19.5766 44 19.2628 43.9407 18.9811 43.8222C18.7025 43.7005 18.4621 43.5305 18.26 43.3122C18.061 43.0938 17.9079 42.8349 17.8007 42.5354C17.6936 42.236 17.64 41.9084 17.64 41.5528V41.3563C17.64 40.9445 17.6997 40.578 17.8191 40.2567C17.9385 39.9323 18.1008 39.6578 18.306 39.4332C18.5111 39.2086 18.7438 39.0385 19.0041 38.9231C19.2643 38.8077 19.5338 38.75 19.8124 38.75C20.1676 38.75 20.4738 38.8124 20.731 38.9372C20.9912 39.0619 21.204 39.2366 21.3694 39.4612C21.5347 39.6827 21.6572 39.9447 21.7368 40.2473C21.8164 40.5468 21.8562 40.8743 21.8562 41.2299V41.6183H18.4951C18.5004 41.8342 18.5323 42.0385 18.5907 42.2313C18.6581 42.4403 18.7545 42.6243 18.8801 42.7834C19.0087 42.9425 19.1633 43.0673 19.3439 43.1578C19.5276 43.2482 19.7359 43.2934 19.9686 43.2934C20.2686 43.2934 20.5228 43.2311 20.731 43.1063C20.9392 42.9815 21.1214 42.8146 21.2775 42.6056L21.7919 43.0221C21.6847 43.1874 21.5485 43.3449 21.3831 43.4947C21.2178 43.6444 21.0142 43.766 20.7723 43.8596C20.5335 43.9532 20.2503 44 19.9226 44ZM18.5907 40.5468C18.5596 40.66 18.536 40.7817 18.5199 40.9118H21.0065V40.8463C20.9943 40.6217 20.9484 40.4033 20.8688 40.1912C20.7922 39.9791 20.6697 39.8044 20.5013 39.6671C20.3329 39.5299 20.1033 39.4612 19.8124 39.4612C19.6195 39.4612 19.4419 39.5033 19.2796 39.5876C19.1174 39.6687 18.978 39.7903 18.8617 39.9525C18.7453 40.1148 18.655 40.3128 18.5907 40.5468Z" fill="white"/>
<path d="M23.6979 40.307V43.9064H22.8483V38.8436H23.675L23.6917 39.4247L23.6979 39.4144C23.8235 39.2054 23.9827 39.0432 24.1756 38.9278C24.3715 38.8093 24.6043 38.75 24.8737 38.75C24.9349 38.75 25.0054 38.7578 25.085 38.7734C25.1646 38.7859 25.2197 38.7999 25.2503 38.8155L25.2457 39.6203C25.1753 39.6047 25.1079 39.5954 25.0436 39.5922C24.9824 39.586 24.912 39.5829 24.8324 39.5829C24.6364 39.5829 24.4634 39.6141 24.3134 39.6765C24.1633 39.7389 24.0363 39.8262 23.9322 39.9385C23.8357 40.0426 23.7576 40.1654 23.6979 40.307Z" fill="white"/>
<path fill-rule="evenodd" clip-rule="evenodd" d="M31.7308 43.8222C32.0125 43.9407 32.3263 44 32.6723 44C32.9999 44 33.2832 43.9532 33.522 43.8596C33.7639 43.766 33.9675 43.6444 34.1328 43.4947C34.2982 43.3449 34.4344 43.1874 34.5416 43.0221L34.0272 42.6056C33.871 42.8146 33.6889 42.9815 33.4807 43.1063C33.2724 43.2311 33.0183 43.2934 32.7182 43.2934C32.4855 43.2934 32.2773 43.2482 32.0936 43.1578C31.913 43.0673 31.7583 42.9425 31.6297 42.7834C31.5042 42.6243 31.4078 42.4403 31.3404 42.2313C31.282 42.0385 31.2501 41.8342 31.2448 41.6183H34.6059V41.2299C34.6059 40.8743 34.5661 40.5468 34.4865 40.2473C34.4069 39.9447 34.2844 39.6827 34.1191 39.4612C33.9537 39.2366 33.7409 39.0619 33.4807 38.9372C33.2235 38.8124 32.9173 38.75 32.5621 38.75C32.2835 38.75 32.014 38.8077 31.7538 38.9231C31.4935 39.0385 31.2608 39.2086 31.0556 39.4332C30.8505 39.6578 30.6882 39.9323 30.5688 40.2567C30.4494 40.578 30.3897 40.9445 30.3897 41.3563V41.5528C30.3897 41.9084 30.4433 42.236 30.5504 42.5354C30.6576 42.8349 30.8107 43.0938 31.0097 43.3122C31.2118 43.5305 31.4522 43.7005 31.7308 43.8222ZM31.2696 40.9118C31.2857 40.7817 31.3093 40.66 31.3404 40.5468C31.4047 40.3128 31.495 40.1148 31.6114 39.9525C31.7277 39.7903 31.867 39.6687 32.0293 39.5876C32.1916 39.5033 32.3692 39.4612 32.5621 39.4612C32.853 39.4612 33.0826 39.5299 33.251 39.6671C33.4194 39.8044 33.5419 39.9791 33.6184 40.1912C33.698 40.4033 33.744 40.6217 33.7562 40.8463V40.9118H31.2696Z" fill="white"/>
<path d="M36.4476 40.307V43.9064H35.5979V38.8436H36.4247L36.4414 39.4247L36.4476 39.4144C36.5732 39.2054 36.7324 39.0432 36.9253 38.9278C37.1212 38.8093 37.3539 38.75 37.6234 38.75C37.6846 38.75 37.755 38.7578 37.8347 38.7734C37.9143 38.7859 37.9694 38.7999 38 38.8155L37.9954 39.6203C37.925 39.6047 37.8576 39.5954 37.7933 39.5922C37.7321 39.586 37.6617 39.5829 37.5821 39.5829C37.3861 39.5829 37.2131 39.6141 37.0631 39.6765C36.913 39.7389 36.786 39.8262 36.6819 39.9385C36.5854 40.0426 36.5073 40.1654 36.4476 40.307Z" fill="white"/>
<path d="M27.4227 43.9064H28.0703L29.8569 38.8436H28.9889L27.7572 42.7225L26.495 38.8436H25.6223L27.4227 43.9064Z" fill="white"/>
</svg>
