<svg width="50" height="50" viewBox="0 0 50 50" fill="none" xmlns="http://www.w3.org/2000/svg">
<path d="M16.4335 11.6281H33.5664V29.3649H39V6H16.4335V11.6281Z" fill="#0075F3"/>
<path d="M33.562 29.3648V35H11V11.6281H16.4404V29.3648H33.562Z" fill="#0075F3"/>
<path d="M15.5361 42.7637C15.5882 42.8906 15.6143 43.0371 15.6143 43.2031C15.6143 43.4342 15.554 43.6344 15.4336 43.8037C15.3164 43.973 15.1439 44.1032 14.916 44.1943C14.6882 44.2855 14.4098 44.3311 14.0811 44.3311C13.8532 44.3311 13.6335 44.305 13.4219 44.2529C13.2135 44.1976 13.0264 44.113 12.8604 43.999C12.6976 43.8851 12.569 43.7419 12.4746 43.5693C12.3802 43.3936 12.333 43.1836 12.333 42.9395H11.3955C11.3955 43.2943 11.472 43.6068 11.625 43.877C11.7812 44.1439 11.988 44.3685 12.2451 44.5508C12.5055 44.7331 12.7936 44.8698 13.1094 44.9609C13.4284 45.0521 13.7523 45.0977 14.0811 45.0977C14.4554 45.0977 14.7939 45.0537 15.0967 44.9658C15.4027 44.8747 15.6647 44.7461 15.8828 44.5801C16.1009 44.4141 16.2686 44.2139 16.3857 43.9795C16.5029 43.7451 16.5615 43.4831 16.5615 43.1934C16.5615 42.9167 16.5143 42.6693 16.4199 42.4512C16.3288 42.2298 16.1872 42.0329 15.9951 41.8604C15.8063 41.6846 15.5654 41.5267 15.2725 41.3867C14.9795 41.2467 14.6312 41.1198 14.2275 41.0059C13.9346 40.9245 13.6823 40.8398 13.4707 40.752C13.2624 40.6641 13.0898 40.568 12.9531 40.4639C12.8197 40.3597 12.7204 40.2474 12.6553 40.127C12.5934 40.0033 12.5625 39.8665 12.5625 39.7168C12.5625 39.4954 12.6146 39.2985 12.7188 39.126C12.8262 38.9535 12.9889 38.8167 13.207 38.7158C13.4251 38.6149 13.7018 38.5645 14.0371 38.5645C14.3919 38.5645 14.6849 38.6247 14.916 38.7451C15.1471 38.8623 15.3197 39.0251 15.4336 39.2334C15.5475 39.4385 15.6045 39.6745 15.6045 39.9414H16.542C16.542 39.5703 16.4443 39.222 16.249 38.8965C16.0537 38.5677 15.7689 38.3024 15.3945 38.1006C15.0234 37.8955 14.571 37.793 14.0371 37.793C13.6725 37.793 13.3421 37.8418 13.0459 37.9395C12.7497 38.0371 12.4941 38.1738 12.2793 38.3496C12.0677 38.5221 11.9049 38.7256 11.791 38.96C11.6771 39.1943 11.6201 39.4499 11.6201 39.7266C11.6201 40.0033 11.6738 40.249 11.7812 40.4639C11.8887 40.6787 12.0433 40.8691 12.2451 41.0352C12.4469 41.2012 12.6895 41.3493 12.9727 41.4795C13.2559 41.6064 13.5732 41.722 13.9248 41.8262C14.2601 41.9238 14.5368 42.0199 14.7549 42.1143C14.9762 42.2087 15.1488 42.3079 15.2725 42.4121C15.3994 42.5163 15.4873 42.6335 15.5361 42.7637Z" fill="#1C1D1F"/>
<path fill-rule="evenodd" clip-rule="evenodd" d="M19.8184 45.0977C19.4505 45.0977 19.1169 45.0358 18.8174 44.9121C18.5212 44.7852 18.2656 44.6077 18.0508 44.3799C17.8392 44.152 17.6764 43.8818 17.5625 43.5693C17.4486 43.2568 17.3916 42.915 17.3916 42.5439V42.3389C17.3916 41.9092 17.4551 41.5267 17.582 41.1914C17.709 40.8529 17.8815 40.5664 18.0996 40.332C18.3177 40.0977 18.5651 39.9202 18.8418 39.7998C19.1185 39.6794 19.4049 39.6191 19.7012 39.6191C20.0788 39.6191 20.4043 39.6842 20.6777 39.8145C20.9544 39.9447 21.1807 40.127 21.3564 40.3613C21.5322 40.5924 21.6624 40.8659 21.7471 41.1816C21.8317 41.4941 21.874 41.8359 21.874 42.207V42.6123H18.3007C18.3063 42.8376 18.3402 43.0508 18.4023 43.252C18.474 43.4701 18.5765 43.6621 18.71 43.8281C18.8467 43.9941 19.0111 44.1243 19.2031 44.2188C19.3984 44.3132 19.6198 44.3604 19.8672 44.3604C20.1862 44.3604 20.4564 44.2952 20.6777 44.165C20.8991 44.0348 21.0928 43.8607 21.2588 43.6426L21.8057 44.0771C21.6917 44.2497 21.5469 44.4141 21.3711 44.5703C21.1953 44.7266 20.9788 44.8535 20.7217 44.9512C20.4678 45.0488 20.1667 45.0977 19.8184 45.0977ZM18.4023 41.4941C18.3693 41.6123 18.3442 41.7393 18.3271 41.875H20.9707V41.8066C20.9577 41.5723 20.9089 41.3444 20.8242 41.123C20.7428 40.9017 20.6126 40.7194 20.4336 40.5762C20.2546 40.4329 20.0104 40.3613 19.7012 40.3613C19.4961 40.3613 19.3073 40.4053 19.1348 40.4932C18.9622 40.5778 18.8141 40.7048 18.6904 40.874C18.5667 41.0433 18.4707 41.25 18.4023 41.4941Z" fill="#1C1D1F"/>
<path d="M23.832 41.244V45H22.9287V39.7168H23.8076L23.8255 40.3232L23.832 40.3125C23.9655 40.0944 24.1348 39.9251 24.3398 39.8047C24.5482 39.681 24.7956 39.6191 25.082 39.6191C25.1471 39.6191 25.222 39.6273 25.3066 39.6436C25.3913 39.6566 25.4499 39.6712 25.4824 39.6875L25.4775 40.5273C25.4027 40.5111 25.3311 40.5013 25.2627 40.498C25.1976 40.4915 25.1227 40.4883 25.0381 40.4883C24.8298 40.4883 24.6458 40.5208 24.4863 40.5859C24.3268 40.651 24.1917 40.7422 24.0811 40.8594C23.9785 40.968 23.8955 41.0962 23.832 41.244Z" fill="#1C1D1F"/>
<path fill-rule="evenodd" clip-rule="evenodd" d="M32.3721 44.9121C32.6715 45.0358 33.0052 45.0977 33.373 45.0977C33.7214 45.0977 34.0225 45.0488 34.2764 44.9512C34.5335 44.8535 34.75 44.7266 34.9258 44.5703C35.1016 44.4141 35.2464 44.2497 35.3604 44.0771L34.8135 43.6426C34.6475 43.8607 34.4538 44.0348 34.2324 44.165C34.0111 44.2952 33.7409 44.3604 33.4219 44.3604C33.1745 44.3604 32.9531 44.3132 32.7578 44.2188C32.5658 44.1243 32.4014 43.9941 32.2646 43.8281C32.1312 43.6621 32.0286 43.4701 31.957 43.252C31.8949 43.0508 31.861 42.8376 31.8553 42.6123H35.4287V42.207C35.4287 41.8359 35.3864 41.4941 35.3018 41.1816C35.2171 40.8659 35.0869 40.5924 34.9111 40.3613C34.7354 40.127 34.5091 39.9447 34.2324 39.8145C33.959 39.6842 33.6335 39.6191 33.2559 39.6191C32.9596 39.6191 32.6732 39.6794 32.3965 39.7998C32.1198 39.9202 31.8724 40.0977 31.6543 40.332C31.4362 40.5664 31.2637 40.8529 31.1367 41.1914C31.0098 41.5267 30.9463 41.9092 30.9463 42.3389V42.5439C30.9463 42.915 31.0033 43.2568 31.1172 43.5693C31.2311 43.8818 31.3939 44.152 31.6055 44.3799C31.8203 44.6077 32.0758 44.7852 32.3721 44.9121ZM31.8818 41.875C31.8989 41.7393 31.9239 41.6123 31.957 41.4941C32.0254 41.25 32.1214 41.0433 32.2451 40.874C32.3688 40.7048 32.5169 40.5778 32.6895 40.4932C32.862 40.4053 33.0508 40.3613 33.2559 40.3613C33.5651 40.3613 33.8092 40.4329 33.9883 40.5762C34.1673 40.7194 34.2975 40.9017 34.3789 41.123C34.4635 41.3444 34.5124 41.5723 34.5254 41.8066V41.875H31.8818Z" fill="#1C1D1F"/>
<path d="M37.3867 41.244V45H36.4834V39.7168H37.3623L37.3801 40.3232L37.3867 40.3125C37.5202 40.0944 37.6895 39.9251 37.8945 39.8047C38.1029 39.681 38.3503 39.6191 38.6367 39.6191C38.7018 39.6191 38.7767 39.6273 38.8613 39.6436C38.946 39.6566 39.0046 39.6712 39.0371 39.6875L39.0322 40.5273C38.9574 40.5111 38.8857 40.5013 38.8174 40.498C38.7523 40.4915 38.6774 40.4883 38.5928 40.4883C38.3844 40.4883 38.2005 40.5208 38.041 40.5859C37.8815 40.651 37.7464 40.7422 37.6357 40.8594C37.5332 40.968 37.4501 41.0962 37.3867 41.244Z" fill="#1C1D1F"/>
<path d="M27.792 45H28.4805L30.3799 39.7168H29.457L28.1476 43.7646L26.8057 39.7168H25.8779L27.792 45Z" fill="#1C1D1F"/>
</svg>
