<svg width="50" height="50" viewBox="0 0 50 50" fill="none" xmlns="http://www.w3.org/2000/svg">
<rect width="50" height="50" fill="#0075F3"/>
<path d="M17.8513 12.0459H33.1485V27.9478H38V7H17.8513V12.0459Z" fill="white"/>
<path d="M33.1446 27.9478V33H13V12.0459H17.8575V27.9478H33.1446Z" fill="white"/>
<path d="M19.0843 41.4292V39.1755H16.6893V39.8351H18.2151V41.2135C18.1577 41.2755 18.0747 41.3418 17.966 41.4123C17.8574 41.4799 17.7065 41.5391 17.5133 41.5899C17.3201 41.6378 17.0681 41.6617 16.7572 41.6617C16.4765 41.6617 16.22 41.611 15.9875 41.5095C15.7582 41.408 15.5605 41.26 15.3945 41.0655C15.2284 40.8682 15.1002 40.63 15.0096 40.351C14.9221 40.0719 14.8783 39.7548 14.8783 39.3996V38.9133C14.8783 38.5666 14.913 38.2551 14.9825 37.9789C15.0549 37.7026 15.1636 37.4672 15.3084 37.2727C15.4533 37.0782 15.6374 36.9288 15.8608 36.8245C16.0841 36.7202 16.3482 36.6681 16.6531 36.6681C16.9911 36.6681 17.2673 36.7245 17.4816 36.8372C17.6959 36.9471 17.8604 37.0937 17.9751 37.277C18.0928 37.4602 18.1713 37.6631 18.2105 37.8858H19.0843C19.03 37.5222 18.9062 37.198 18.7131 36.9133C18.5229 36.6286 18.2573 36.4059 17.9162 36.2452C17.5782 36.0817 17.1571 36 16.6531 36C16.2275 36 15.8502 36.0662 15.5212 36.1987C15.1922 36.3284 14.9145 36.5201 14.6882 36.7738C14.4618 37.0247 14.2898 37.3305 14.172 37.6913C14.0573 38.0521 14 38.4623 14 38.9218V39.3996C14 39.8591 14.0664 40.2706 14.1992 40.6342C14.335 40.9951 14.5252 41.3023 14.7697 41.556C15.0172 41.8069 15.3084 41.9986 15.6435 42.1311C15.9815 42.2607 16.3513 42.3256 16.7527 42.3256C17.2447 42.3256 17.6461 42.2748 17.957 42.1734C18.2709 42.0691 18.5169 41.9479 18.695 41.8097C18.873 41.6688 19.0028 41.5419 19.0843 41.4292Z" fill="white"/>
<path d="M21.2439 42.241V38.9884C21.3027 38.8605 21.3797 38.7494 21.4748 38.6554C21.5774 38.5539 21.7027 38.475 21.8506 38.4186C21.9985 38.3622 22.169 38.334 22.3622 38.334C22.4407 38.334 22.5101 38.3369 22.5705 38.3425C22.6338 38.3453 22.7002 38.3538 22.7697 38.3679L22.7742 37.6406C22.744 37.6265 22.6897 37.6138 22.6112 37.6025C22.5327 37.5884 22.4633 37.5814 22.4029 37.5814C22.1373 37.5814 21.9079 37.635 21.7148 37.7421C21.5246 37.8464 21.3677 37.993 21.2439 38.1818L21.2378 38.1911L21.2213 37.666H20.4063V42.241H21.2439Z" fill="white"/>
<path fill-rule="evenodd" clip-rule="evenodd" d="M23.236 39.907V40.0042C23.236 40.334 23.2873 40.6399 23.3899 40.9218C23.4925 41.2037 23.6404 41.4503 23.8336 41.6617C24.0298 41.8703 24.2652 42.0338 24.5399 42.1522C24.8146 42.2678 25.1239 42.3256 25.468 42.3256C25.8121 42.3256 26.12 42.2678 26.3916 42.1522C26.6663 42.0338 26.9002 41.8703 27.0934 41.6617C27.2896 41.4503 27.439 41.2037 27.5416 40.9218C27.6442 40.6399 27.6955 40.334 27.6955 40.0042V39.907C27.6955 39.5772 27.6442 39.2713 27.5416 38.9894C27.439 38.7047 27.2896 38.4581 27.0934 38.2495C26.9002 38.0381 26.6648 37.8746 26.3871 37.759C26.1124 37.6406 25.8031 37.5814 25.459 37.5814C25.1179 37.5814 24.81 37.6406 24.5354 37.759C24.2607 37.8746 24.0268 38.0381 23.8336 38.2495C23.6404 38.4581 23.4925 38.7047 23.3899 38.9894C23.2873 39.2713 23.236 39.5772 23.236 39.907ZM24.0736 40.0042V39.907C24.0736 39.6815 24.1022 39.4686 24.1596 39.2685C24.2169 39.0655 24.303 38.8865 24.4177 38.7315C24.5354 38.5736 24.6802 38.4496 24.8523 38.3594C25.0274 38.2692 25.2296 38.2241 25.459 38.2241C25.6914 38.2241 25.8936 38.2692 26.0656 38.3594C26.2407 38.4496 26.3856 38.5736 26.5003 38.7315C26.618 38.8865 26.7055 39.0655 26.7629 39.2685C26.8232 39.4686 26.8534 39.6815 26.8534 39.907V40.0042C26.8534 40.2326 26.8232 40.4482 26.7629 40.6512C26.7055 40.8513 26.6195 41.0289 26.5048 41.1839C26.3901 41.339 26.2452 41.4616 26.0702 41.5518C25.8981 41.6392 25.6974 41.6829 25.468 41.6829C25.2356 41.6829 25.0319 41.6392 24.8568 41.5518C24.6818 41.4616 24.5354 41.339 24.4177 41.1839C24.303 41.0289 24.2169 40.8513 24.1596 40.6512C24.1022 40.4482 24.0736 40.2326 24.0736 40.0042Z" fill="white"/>
<path fill-rule="evenodd" clip-rule="evenodd" d="M34.6995 44V41.7972C34.8593 41.9638 35.051 42.092 35.2745 42.1818C35.5129 42.2777 35.7876 42.3256 36.0985 42.3256C36.4033 42.3256 36.6735 42.2678 36.9089 42.1522C37.1443 42.0366 37.342 41.8746 37.502 41.666C37.665 41.4574 37.7887 41.2121 37.8732 40.9302C37.9577 40.6455 38 40.3369 38 40.0042V39.9154C38 39.5659 37.9577 39.2488 37.8732 38.9641C37.7917 38.6765 37.6695 38.4299 37.5065 38.2241C37.3435 38.0183 37.1428 37.8605 36.9044 37.7505C36.6659 37.6378 36.3928 37.5814 36.0849 37.5814C35.777 37.5814 35.5054 37.6321 35.2699 37.7336C35.0348 37.8322 34.8343 37.9771 34.6684 38.1684L34.6271 37.666H33.8574V44H34.6995ZM34.7312 41.1078C34.7204 41.0904 34.7098 41.073 34.6995 41.0554V38.8712C34.7553 38.7787 34.8202 38.6941 34.8942 38.6173C35.0028 38.5018 35.1341 38.4101 35.2881 38.3425C35.445 38.2748 35.6291 38.241 35.8404 38.241C36.0698 38.241 36.2675 38.2861 36.4335 38.3763C36.5995 38.4637 36.7353 38.5849 36.841 38.74C36.9496 38.8922 37.0296 39.0698 37.0809 39.2727C37.1322 39.4729 37.1579 39.6871 37.1579 39.9154V40.0042C37.1579 40.2326 37.1322 40.4482 37.0809 40.6512C37.0296 40.8513 36.9496 41.0289 36.841 41.1839C36.7353 41.339 36.5995 41.4616 36.4335 41.5518C36.2705 41.6392 36.0758 41.6829 35.8495 41.6829C35.5748 41.6829 35.3469 41.6307 35.1658 41.5264C34.9847 41.4193 34.8398 41.2798 34.7312 41.1078Z" fill="white"/>
<path d="M31.2269 42.1691C31.4434 42.0743 31.6232 41.9474 31.7664 41.7884L31.7838 42.241H32.5852V37.666H31.7431V40.9925C31.6513 41.1904 31.5079 41.3501 31.313 41.4715C31.1047 41.5983 30.8225 41.6617 30.4663 41.6617C30.3516 41.6617 30.24 41.6462 30.1313 41.6152C30.0257 41.5842 29.9291 41.5307 29.8415 41.4545C29.757 41.3756 29.6891 41.2699 29.6378 41.1374C29.5895 41.0021 29.5654 40.8316 29.5654 40.6258V37.666H28.7278V40.6173C28.7278 40.9218 28.7655 41.1825 28.841 41.3996C28.9194 41.6166 29.0296 41.7928 29.1715 41.9281C29.3133 42.0634 29.4824 42.1635 29.6786 42.2283C29.8778 42.2932 30.0966 42.3256 30.335 42.3256C30.6852 42.3256 30.9825 42.2734 31.2269 42.1691Z" fill="white"/>
</svg>
