<svg width="50" height="50" viewBox="0 0 50 50" fill="none" xmlns="http://www.w3.org/2000/svg">
<path d="M16.4335 11.6281H33.5664V29.3649H39V6H16.4335V11.6281Z" fill="#0075F3"/>
<path d="M33.562 29.3648V35H11V11.6281H16.4404V29.3648H33.562Z" fill="#0075F3"/>
<path d="M18.0791 44.0625V41.46H15.4961V42.2217H17.1416V43.8135C17.0798 43.8851 16.9902 43.9616 16.873 44.043C16.7559 44.1211 16.5931 44.1895 16.3848 44.248C16.1764 44.3034 15.9046 44.3311 15.5693 44.3311C15.2666 44.3311 14.9899 44.2725 14.7393 44.1553C14.4919 44.0381 14.2786 43.8672 14.0996 43.6426C13.9206 43.4147 13.7822 43.1396 13.6846 42.8174C13.5902 42.4951 13.543 42.1289 13.543 41.7188V41.1572C13.543 40.7568 13.5804 40.3971 13.6553 40.0781C13.7334 39.7591 13.8506 39.4873 14.0068 39.2627C14.1631 39.0381 14.3617 38.8656 14.6025 38.7451C14.8434 38.6247 15.1283 38.5645 15.457 38.5645C15.8216 38.5645 16.1195 38.6296 16.3506 38.7598C16.5817 38.8867 16.7591 39.056 16.8828 39.2676C17.0098 39.4792 17.0944 39.7135 17.1367 39.9707H18.0791C18.0205 39.5508 17.887 39.1764 17.6787 38.8477C17.4736 38.5189 17.1872 38.2617 16.8193 38.0762C16.4548 37.8874 16.0007 37.793 15.457 37.793C14.998 37.793 14.5911 37.8695 14.2363 38.0225C13.8815 38.1722 13.582 38.3936 13.3379 38.6865C13.0938 38.9762 12.9082 39.3294 12.7812 39.7461C12.6576 40.1628 12.5957 40.6364 12.5957 41.167V41.7188C12.5957 42.2493 12.6673 42.7246 12.8105 43.1445C12.957 43.5612 13.1621 43.916 13.4258 44.209C13.6927 44.4987 14.0068 44.7201 14.3682 44.873C14.7327 45.0228 15.1315 45.0977 15.5645 45.0977C16.0951 45.0977 16.528 45.0391 16.8633 44.9219C17.2018 44.8014 17.4671 44.6615 17.6592 44.502C17.8512 44.3392 17.9912 44.1927 18.0791 44.0625Z" fill="#1C1D1F"/>
<path d="M20.4082 45V41.244C20.4716 41.0962 20.5546 40.968 20.6572 40.8594C20.7679 40.7422 20.903 40.651 21.0625 40.5859C21.222 40.5208 21.4059 40.4883 21.6143 40.4883C21.6989 40.4883 21.7738 40.4915 21.8389 40.498C21.9072 40.5013 21.9788 40.5111 22.0537 40.5273L22.0586 39.6875C22.026 39.6712 21.9674 39.6566 21.8828 39.6436C21.7982 39.6273 21.7233 39.6191 21.6582 39.6191C21.3717 39.6191 21.1243 39.681 20.916 39.8047C20.7109 39.9251 20.5417 40.0944 20.4082 40.3125L20.4016 40.3232L20.3838 39.7168H19.5049V45H20.4082Z" fill="#1C1D1F"/>
<path fill-rule="evenodd" clip-rule="evenodd" d="M22.5566 42.3047V42.417C22.5566 42.7979 22.612 43.151 22.7227 43.4766C22.8333 43.8021 22.9928 44.0869 23.2012 44.3311C23.4128 44.5719 23.6667 44.7607 23.9629 44.8975C24.2591 45.0309 24.5928 45.0977 24.9639 45.0977C25.335 45.0977 25.667 45.0309 25.96 44.8975C26.2562 44.7607 26.5085 44.5719 26.7168 44.3311C26.9284 44.0869 27.0895 43.8021 27.2002 43.4766C27.3109 43.151 27.3662 42.7979 27.3662 42.417V42.3047C27.3662 41.9238 27.3109 41.5706 27.2002 41.2451C27.0895 40.9163 26.9284 40.6315 26.7168 40.3906C26.5085 40.1465 26.2546 39.9577 25.9551 39.8242C25.6589 39.6875 25.3252 39.6191 24.9541 39.6191C24.5863 39.6191 24.2542 39.6875 23.958 39.8242C23.6618 39.9577 23.4095 40.1465 23.2012 40.3906C22.9928 40.6315 22.8333 40.9163 22.7227 41.2451C22.612 41.5706 22.5566 41.9238 22.5566 42.3047ZM23.46 42.417V42.3047C23.46 42.0443 23.4909 41.7985 23.5527 41.5674C23.6146 41.333 23.7074 41.1263 23.8311 40.9473C23.958 40.765 24.1143 40.6217 24.2998 40.5176C24.4886 40.4134 24.7067 40.3613 24.9541 40.3613C25.2048 40.3613 25.4229 40.4134 25.6084 40.5176C25.7972 40.6217 25.9535 40.765 26.0771 40.9473C26.2041 41.1263 26.2985 41.333 26.3604 41.5674C26.4255 41.7985 26.458 42.0443 26.458 42.3047V42.417C26.458 42.6807 26.4255 42.9297 26.3604 43.1641C26.2985 43.3952 26.2057 43.6003 26.082 43.7793C25.9583 43.9583 25.8021 44.0999 25.6133 44.2041C25.4277 44.305 25.2113 44.3555 24.9639 44.3555C24.7132 44.3555 24.4935 44.305 24.3047 44.2041C24.1159 44.0999 23.958 43.9583 23.8311 43.7793C23.7074 43.6003 23.6146 43.3952 23.5527 43.1641C23.4909 42.9297 23.46 42.6807 23.46 42.417Z" fill="#1C1D1F"/>
<path fill-rule="evenodd" clip-rule="evenodd" d="M34.9199 47.0312V44.4875C35.0923 44.6799 35.299 44.8279 35.54 44.9316C35.7972 45.0423 36.0934 45.0977 36.4287 45.0977C36.7575 45.0977 37.0488 45.0309 37.3027 44.8975C37.5566 44.764 37.7699 44.5768 37.9424 44.3359C38.1182 44.0951 38.2516 43.8118 38.3428 43.4863C38.4339 43.1576 38.4795 42.8011 38.4795 42.417V42.3145C38.4795 41.9108 38.4339 41.5446 38.3428 41.2158C38.2549 40.8838 38.123 40.599 37.9473 40.3613C37.7715 40.1237 37.555 39.9414 37.2979 39.8145C37.0407 39.6842 36.7461 39.6191 36.4141 39.6191C36.082 39.6191 35.7891 39.6777 35.5352 39.7949C35.2816 39.9087 35.0653 40.0761 34.8864 40.297L34.8418 39.7168H34.0117V47.0312H34.9199ZM34.9541 43.6914C34.9425 43.6713 34.9311 43.6511 34.9199 43.6308V41.1086C34.9801 41.0018 35.0501 40.9041 35.1299 40.8154C35.2471 40.682 35.3887 40.5762 35.5547 40.498C35.724 40.4199 35.9225 40.3809 36.1504 40.3809C36.3978 40.3809 36.611 40.4329 36.79 40.5371C36.9691 40.638 37.1156 40.778 37.2295 40.957C37.3467 41.1328 37.4329 41.3379 37.4883 41.5723C37.5436 41.8034 37.5713 42.0508 37.5713 42.3145V42.417C37.5713 42.6807 37.5436 42.9297 37.4883 43.1641C37.4329 43.3952 37.3467 43.6003 37.2295 43.7793C37.1156 43.9583 36.9691 44.0999 36.79 44.2041C36.6143 44.305 36.4043 44.3555 36.1602 44.3555C35.8639 44.3555 35.6182 44.2952 35.4229 44.1748C35.2275 44.0511 35.0713 43.89 34.9541 43.6914Z" fill="#1C1D1F"/>
<path d="M31.1748 44.917C31.4083 44.8075 31.6022 44.6609 31.7566 44.4773L31.7754 45H32.6396V39.7168H31.7314V43.5582C31.6324 43.7868 31.4778 43.9712 31.2676 44.1113C31.043 44.2578 30.7386 44.3311 30.3545 44.3311C30.2308 44.3311 30.1104 44.3132 29.9932 44.2773C29.8792 44.2415 29.7751 44.1797 29.6807 44.0918C29.5895 44.0007 29.5163 43.8786 29.4609 43.7256C29.4089 43.5693 29.3828 43.3724 29.3828 43.1348V39.7168H28.4795V43.125C28.4795 43.4766 28.5202 43.7777 28.6016 44.0283C28.6862 44.279 28.805 44.4824 28.958 44.6387C29.111 44.7949 29.2933 44.9105 29.5049 44.9854C29.7197 45.0602 29.9557 45.0977 30.2129 45.0977C30.5905 45.0977 30.9111 45.0374 31.1748 44.917Z" fill="#1C1D1F"/>
</svg>
