<svg width="50" height="50" viewBox="0 0 50 50" fill="none" xmlns="http://www.w3.org/2000/svg">
<path d="M24.4563 6H14V16.4564H24.4563V6Z" fill="#F26522"/>
<path d="M36.0001 6H25.5438V16.4564H36.0001V6Z" fill="#8DC63F"/>
<path d="M24.4563 17.5436H14V28H24.4563V17.5436Z" fill="#00AEEF"/>
<path d="M36 17.5436H25.5437V28H36V17.5436Z" fill="#FFC20E"/>
<path d="M14.749 42H13.2646L13.2744 41.2334H14.749C15.2568 41.2334 15.68 41.1276 16.0186 40.916C16.3571 40.7012 16.611 40.4017 16.7803 40.0176C16.9528 39.6302 17.0391 39.1777 17.0391 38.6602V38.2256C17.0391 37.8187 16.9902 37.4574 16.8926 37.1416C16.7949 36.8226 16.6517 36.554 16.4629 36.3359C16.2741 36.1146 16.043 35.9469 15.7695 35.833C15.4993 35.7191 15.1885 35.6621 14.8369 35.6621H13.2354V34.8906H14.8369C15.3024 34.8906 15.7272 34.9688 16.1113 35.125C16.4954 35.278 16.8258 35.501 17.1025 35.7939C17.3825 36.0837 17.5973 36.4352 17.7471 36.8486C17.8968 37.2588 17.9717 37.721 17.9717 38.2354V38.6602C17.9717 39.1745 17.8968 39.6383 17.7471 40.0518C17.5973 40.4619 17.3809 40.8118 17.0977 41.1016C16.8177 41.3913 16.4792 41.6143 16.082 41.7705C15.6882 41.9235 15.2438 42 14.749 42ZM13.7676 34.8906V42H12.8252V34.8906H13.7676ZM24.0312 37.9473V38.7139H20.1836V37.9473H24.0312ZM20.3301 34.8906V42H19.3877V34.8906H20.3301ZM24.8516 34.8906V42H23.9141V34.8906H24.8516ZM30.8184 39.7393H31.7559C31.707 40.1885 31.5785 40.5905 31.3701 40.9453C31.1618 41.3001 30.8672 41.5817 30.4863 41.79C30.1055 41.9951 29.6302 42.0977 29.0605 42.0977C28.6439 42.0977 28.2646 42.0195 27.9229 41.8633C27.5843 41.707 27.293 41.4857 27.0488 41.1992C26.8047 40.9095 26.6159 40.5628 26.4824 40.1592C26.3522 39.7523 26.2871 39.2998 26.2871 38.8018V38.0938C26.2871 37.5957 26.3522 37.1449 26.4824 36.7412C26.6159 36.3343 26.8063 35.986 27.0537 35.6963C27.3044 35.4066 27.6055 35.1836 27.957 35.0273C28.3086 34.8711 28.7041 34.793 29.1436 34.793C29.6807 34.793 30.1348 34.8939 30.5059 35.0957C30.877 35.2975 31.165 35.5775 31.3701 35.9355C31.5785 36.2904 31.707 36.7021 31.7559 37.1709H30.8184C30.7728 36.8389 30.6882 36.554 30.5645 36.3164C30.4408 36.0755 30.265 35.89 30.0371 35.7598C29.8092 35.6296 29.5114 35.5645 29.1436 35.5645C28.8278 35.5645 28.5495 35.6247 28.3086 35.7451C28.071 35.8656 27.8708 36.0365 27.708 36.2578C27.5485 36.4792 27.4281 36.7445 27.3467 37.0537C27.2653 37.363 27.2246 37.7064 27.2246 38.084V38.8018C27.2246 39.1501 27.2604 39.4772 27.332 39.7832C27.4069 40.0892 27.5192 40.3577 27.6689 40.5889C27.8187 40.82 28.0091 41.0023 28.2402 41.1357C28.4714 41.266 28.7448 41.3311 29.0605 41.3311C29.4609 41.3311 29.7799 41.2676 30.0176 41.1406C30.2552 41.0137 30.4342 40.8314 30.5547 40.5938C30.6784 40.3561 30.7663 40.0713 30.8184 39.7393ZM35.6621 39.2119H33.7627V38.4453H35.6621C36.0299 38.4453 36.3278 38.3867 36.5557 38.2695C36.7835 38.1523 36.9495 37.9896 37.0537 37.7812C37.1611 37.5729 37.2148 37.3353 37.2148 37.0684C37.2148 36.8242 37.1611 36.5947 37.0537 36.3799C36.9495 36.165 36.7835 35.9925 36.5557 35.8623C36.3278 35.7288 36.0299 35.6621 35.6621 35.6621H33.9824V42H33.04V34.8906H35.6621C36.1992 34.8906 36.6533 34.9834 37.0244 35.1689C37.3955 35.3545 37.6771 35.6117 37.8691 35.9404C38.0612 36.266 38.1572 36.6387 38.1572 37.0586C38.1572 37.5143 38.0612 37.9033 37.8691 38.2256C37.6771 38.5479 37.3955 38.7936 37.0244 38.9629C36.6533 39.1289 36.1992 39.2119 35.6621 39.2119Z" fill="black"/>
</svg>
