<svg width="50" height="50" viewBox="0 0 50 50" fill="none" xmlns="http://www.w3.org/2000/svg">
<rect width="50" height="50" fill="#FF5C09"/>
<path d="M28.3357 21.8701C26.8453 21.3033 24.9702 21.034 23.8905 19.833C23.1491 18.9892 23.4008 17.4834 24.3203 16.822C25.4848 15.8955 27.3291 16.0048 28.7719 16.6119C29.5352 16.9238 30.305 17.4076 31.0682 18.0633L33.865 12.2958C32.5243 11.5446 31.126 10.9717 29.6699 10.5834C25.8548 9.53215 21.4361 9.73469 18.637 12.5823C16.1377 15.0099 15.4307 19.7172 16.7383 22.8377C17.546 24.6376 18.9387 25.816 20.7153 26.5681C22.1379 27.1792 23.9969 27.7442 25.3401 28.3187C26.6244 28.8454 27.6248 29.6057 27.5852 31.0305C27.5277 32.7617 26.1 33.7957 24.1791 33.7424C23.1721 33.7424 22.1586 33.5069 21.1323 33.0294C20.1059 32.552 19.0668 31.8262 18.0148 30.8459L15 36.798C17.9186 38.9304 21.0873 40 24.5062 40C27.4532 40.0015 30.2045 39.2262 32.2357 37.3392C35.4094 34.4977 35.9295 28.3255 33.3839 25.0848C32.3191 23.7416 30.6385 22.6658 28.3421 21.8637L28.3357 21.8701Z" fill="black"/>
</svg>
