<svg width="50" height="50" viewBox="0 0 50 50" fill="none" xmlns="http://www.w3.org/2000/svg">
<g clip-path="url(#clip0_761_4052)">
<path d="M31.5179 21.25H40.0419C40.8472 21.25 41.5001 21.888 41.5001 22.675V30.2627C41.5001 33.1552 39.1007 35.5 36.141 35.5H36.1157C33.1559 35.5004 30.7563 33.1559 30.7559 30.2635C30.7559 30.2632 30.7559 30.263 30.7559 30.2627V21.9948C30.7559 21.5834 31.0971 21.25 31.5179 21.25Z" fill="#5059C9"/>
<path d="M37.2792 19.75C39.1865 19.75 40.7327 18.239 40.7327 16.375C40.7327 14.511 39.1865 13 37.2792 13C35.3719 13 33.8257 14.511 33.8257 16.375C33.8257 18.239 35.3719 19.75 37.2792 19.75Z" fill="#5059C9"/>
<path d="M26.5348 19.75C29.2898 19.75 31.5231 17.5674 31.5231 14.875C31.5231 12.1826 29.2898 10 26.5348 10C23.7798 10 21.5464 12.1826 21.5464 14.875C21.5464 17.5674 23.7798 19.75 26.5348 19.75Z" fill="#7B83EB"/>
<path d="M33.1864 21.25H19.1161C18.3204 21.2692 17.691 21.9146 17.7094 22.6923V31.3465C17.5983 36.0132 21.3762 39.8858 26.1513 40C30.9264 39.8858 34.7043 36.0132 34.5932 31.3465V22.6923C34.6116 21.9146 33.9821 21.2692 33.1864 21.25Z" fill="#7B83EB"/>
<path opacity="0.1" d="M26.9187 21.25V33.3775C26.9149 33.9336 26.57 34.4333 26.0438 34.645C25.8763 34.7143 25.6962 34.75 25.5143 34.75H18.3847C18.285 34.5025 18.1929 34.255 18.1161 34C17.8475 33.1394 17.7104 32.2448 17.7094 31.345V22.69C17.6909 21.9136 18.3194 21.2692 19.1138 21.25H26.9187Z" fill="black"/>
<path opacity="0.2" d="M26.1513 21.25V34.1275C26.1512 34.3053 26.1147 34.4813 26.0438 34.645C25.8272 35.1593 25.3159 35.4963 24.7469 35.5H18.7454C18.615 35.2525 18.4922 35.005 18.3847 34.75C18.2773 34.495 18.1929 34.255 18.1161 34C17.8475 33.1394 17.7104 32.2448 17.7094 31.345V22.69C17.6909 21.9136 18.3194 21.2692 19.1138 21.25H26.1513Z" fill="black"/>
<path opacity="0.2" d="M26.1513 21.25V32.6275C26.1454 33.3831 25.5201 33.9943 24.7468 34H18.1161C17.8475 33.1394 17.7104 32.2448 17.7094 31.345V22.69C17.6909 21.9136 18.3194 21.2692 19.1138 21.25H26.1513Z" fill="black"/>
<path opacity="0.2" d="M25.3838 21.25V32.6275C25.3779 33.3831 24.7526 33.9943 23.9794 34H18.1161C17.8475 33.1394 17.7104 32.2448 17.7094 31.345V22.69C17.6909 21.9136 18.3194 21.2692 19.1138 21.25H25.3838Z" fill="black"/>
<path opacity="0.1" d="M26.9185 17.3725V19.735C26.7881 19.7425 26.6653 19.75 26.5348 19.75C26.4043 19.75 26.2816 19.7425 26.1511 19.735C25.892 19.7182 25.6351 19.678 25.3836 19.615C23.8296 19.2553 22.5457 18.1902 21.9302 16.75C21.8243 16.5081 21.742 16.257 21.6846 16H25.5141C26.2885 16.0029 26.9156 16.6157 26.9185 17.3725Z" fill="black"/>
<path opacity="0.2" d="M26.1511 18.1225V19.735C25.8921 19.7182 25.6352 19.678 25.3837 19.615C23.8296 19.2553 22.5457 18.1902 21.9302 16.75H24.7467C25.5211 16.7529 26.1482 17.3657 26.1511 18.1225Z" fill="black"/>
<path opacity="0.2" d="M26.1511 18.1225V19.735C25.8921 19.7182 25.6352 19.678 25.3837 19.615C23.8296 19.2553 22.5457 18.1902 21.9302 16.75H24.7467C25.5211 16.7529 26.1482 17.3657 26.1511 18.1225Z" fill="black"/>
<path opacity="0.2" d="M25.3837 18.1225V19.615C23.8296 19.2553 22.5457 18.1902 21.9302 16.75H23.9792C24.7537 16.7529 25.3807 17.3657 25.3837 18.1225Z" fill="black"/>
<path d="M9.90671 16.75H23.977C24.7539 16.75 25.3837 17.3655 25.3837 18.1247V31.8752C25.3837 32.6345 24.7539 33.25 23.977 33.25H9.90671C9.1298 33.25 8.5 32.6345 8.5 31.8752V18.1247C8.5 17.3655 9.12982 16.75 9.90671 16.75Z" fill="url(#paint0_linear_761_4052)"/>
<path d="M20.644 21.9837H17.8313V29.4687H16.0394V21.9837H13.2397V20.5317H20.644V21.9837Z" fill="white"/>
</g>
<defs>
<linearGradient id="paint0_linear_761_4052" x1="11.433" y1="15.6758" x2="22.0751" y2="34.5361" gradientUnits="userSpaceOnUse">
<stop stop-color="#5A62C3"/>
<stop offset="0.5" stop-color="#4D55BD"/>
<stop offset="1" stop-color="#3940AB"/>
</linearGradient>
<clipPath id="clip0_761_4052">
<rect width="33" height="30" fill="white" transform="translate(8.5 10)"/>
</clipPath>
</defs>
</svg>
