<svg width="50" height="50" viewBox="0 0 50 50" fill="none" xmlns="http://www.w3.org/2000/svg">
<mask id="mask0_9176_13676" style="mask-type:alpha" maskUnits="userSpaceOnUse" x="10" y="5" width="30" height="40">
<path d="M39.1667 17.9363C39.1666 17.0769 38.9009 16.2386 38.4058 15.5361C37.9107 14.8337 37.2106 14.3015 36.4012 14.0125L12.2271 5.37875C11.1417 4.99125 10 5.79542 10 6.94834V20.0754C10 20.4192 10.1063 20.7546 10.3044 21.0355C10.5024 21.3165 10.7825 21.5294 11.1062 21.645L21.9396 25.5142C23.025 25.9017 24.1667 25.0971 24.1667 23.9446V16.4071C24.1667 16.2724 24.1993 16.1397 24.2619 16.0203C24.3244 15.901 24.4149 15.7986 24.5257 15.7219C24.6364 15.6452 24.7641 15.5966 24.8978 15.58C25.0315 15.5635 25.1672 15.5797 25.2933 15.6271L28.1342 16.6963C28.9272 16.9947 29.6104 17.5278 30.0927 18.2246C30.5749 18.9213 30.8333 19.7485 30.8333 20.5958V23.8783L18.5946 28.35C18.2737 28.4673 17.9966 28.6803 17.8008 28.9603C17.605 29.2404 17.5 29.5738 17.5 29.9154V43.0333C17.5 44.1908 18.6513 44.9958 19.7388 44.5988L36.43 38.5C37.2323 38.2068 37.9252 37.6742 38.4147 36.9741C38.9042 36.2741 39.1667 35.4405 39.1667 34.5863V17.9363Z" fill="white"/>
</mask>
<g mask="url(#mask0_9176_13676)">
<path d="M10 4.5835L39.1667 15.0002V29.3022C39.1667 30.4543 38.025 31.2593 36.9396 30.8718L30.8333 28.6914V20.5935C30.8333 19.7458 30.5747 18.9182 30.0921 18.2213C29.6094 17.5243 28.9257 16.9912 28.1321 16.6931L25.2929 15.6264C25.1668 15.5791 25.0312 15.563 24.8975 15.5796C24.7639 15.5961 24.6362 15.6448 24.5255 15.7215C24.4148 15.7982 24.3244 15.9005 24.2619 16.0198C24.1994 16.1391 24.1667 16.2717 24.1667 16.4064V26.3097L10 21.2502V4.5835Z" fill="url(#paint0_linear_9176_13676)"/>
<path d="M39.1667 18.0835C39.1667 19.8335 38.0733 21.3997 36.43 22.0002L17.5 28.9168V45.5835L39.1667 37.6668V18.0835Z" fill="black" fill-opacity="0.24"/>
<path d="M39.1667 18.75C39.1667 20.5 38.0733 22.0663 36.43 22.6667L17.5 29.5833V46.25L39.1667 38.3333V18.75Z" fill="black" fill-opacity="0.32"/>
<path d="M39.1667 17.9165C39.1667 19.6665 38.0733 21.2328 36.43 21.8332L17.5 28.7498V45.4165L39.1667 37.4998V17.9165Z" fill="url(#paint1_linear_9176_13676)"/>
<path opacity="0.5" d="M39.1667 17.9165C39.1667 19.6665 38.0733 21.2328 36.43 21.8332L17.5 28.7498V45.4165L39.1667 37.4998V17.9165Z" fill="url(#paint2_linear_9176_13676)"/>
<path opacity="0.5" d="M30.8337 23.8833L24.1633 26.3237V36.0979C24.1633 36.2327 24.196 36.3654 24.2585 36.4848C24.3211 36.6042 24.4116 36.7066 24.5224 36.7833C24.6333 36.86 24.761 36.9086 24.8948 36.9251C25.0285 36.9416 25.1643 36.9254 25.2904 36.8779L28.135 35.807C28.928 35.5085 29.6112 34.9753 30.0934 34.2785C30.5756 33.5817 30.8338 32.7544 30.8337 31.9071V23.8833Z" fill="#B0ADFF"/>
</g>
<defs>
<linearGradient id="paint0_linear_9176_13676" x1="20.8521" y1="4.5835" x2="28.6075" y2="24.8847" gradientUnits="userSpaceOnUse">
<stop stop-color="#0B53CE"/>
<stop offset="1" stop-color="#7252AA"/>
</linearGradient>
<linearGradient id="paint1_linear_9176_13676" x1="31.7242" y1="43.9548" x2="31.7242" y2="19.7561" gradientUnits="userSpaceOnUse">
<stop stop-color="#2266E3"/>
<stop offset="1" stop-color="#AE7FE2"/>
</linearGradient>
<linearGradient id="paint2_linear_9176_13676" x1="39.1667" y1="28.6607" x2="30.865" y2="28.6607" gradientUnits="userSpaceOnUse">
<stop stop-color="#94B9FF"/>
<stop offset="0.288" stop-color="#94B9FF" stop-opacity="0.524"/>
<stop offset="1" stop-color="#538FFF" stop-opacity="0"/>
</linearGradient>
</defs>
</svg>
