<svg width="50" height="50" viewBox="0 0 50 50" fill="none" xmlns="http://www.w3.org/2000/svg">
<path d="M38.2438 21.1194H42V17.1263H38.2438V13.0001H32.5448V17.0598H31.6381L29.0476 21.0529H32.5448V30.3036C32.5448 32.167 32.6095 33.5646 33.3867 34.696C34.6171 36.4929 36.7543 36.626 38.7619 36.626C39.7981 36.626 40.5752 36.4929 41.741 36.2932V31.8343L39.7333 31.9008C38.179 31.9008 38.179 30.9025 38.2438 29.7046V21.1194Z" fill="black"/>
<path d="M28.7886 26.751C28.7886 31.6759 25.939 37 18.4267 37C12.9867 37 8 33.9386 8 26.751C8 20.8279 11.7562 16.2359 19.139 16.6352C27.04 17.101 28.7886 23.2238 28.7886 26.751ZM14.7352 23.0241C14.0229 24.089 13.7638 25.42 13.7638 26.751C13.7638 29.7459 15.2533 32.4745 18.4267 32.4745C21.5352 32.4745 23.0248 29.9455 23.0248 27.0172C23.0248 24.8876 22.5067 23.2904 21.4057 22.2921C20.24 21.2273 18.88 21.1607 18.0381 21.2273C16.4838 21.2938 15.5124 21.8262 14.7352 23.0241Z" fill="black"/>
</svg>
