<svg width="50" height="50" viewBox="0 0 50 50" fill="none" xmlns="http://www.w3.org/2000/svg">
<path d="M27.6798 33.5916C26.0559 33.1464 24.5313 32.367 23.156 31.4692C26.0121 30.0527 27.8771 28.6842 28.088 28.4654C28.1001 30.3555 27.9329 32.1137 27.6798 33.5916ZM27.6391 33.8209C26.4189 34.5479 22.3365 36.0947 20.4278 36.7992C21.4266 35.0245 22.1421 33.3473 22.6453 31.8379C24.7543 33.1239 26.9612 33.6635 27.6406 33.8089C27.6406 33.8134 27.6406 33.8164 27.6391 33.8209ZM27.4644 34.7008C27.1992 35.8939 26.6298 37.7915 26.0423 39.5767C24.0613 39.2439 21.9207 38.6384 20.0362 37.736C22.0955 36.8682 26.3812 34.9301 27.5803 34.1402C27.5427 34.332 27.5035 34.5194 27.4644 34.7008ZM16.7642 42.5235C16.7446 42.5295 16.7265 42.5355 16.71 42.543C16.6075 42.519 16.5111 42.4965 16.4162 42.4726C17.6454 41.0486 18.6789 39.6396 19.5436 38.2771C22.5338 39.5182 25.5301 39.743 25.9157 39.782C24.5042 40.3276 17.1227 42.4216 16.7642 42.5235ZM24.4801 43.8455C22.8652 43.6522 19.5466 43.1486 17.3276 42.6794C20.4052 41.9704 22.4314 41.6542 25.9022 39.9994C25.3418 41.6782 24.7844 43.195 24.4801 43.8455ZM15.9989 42.3646C15.8603 42.3256 15.7353 42.2882 15.6269 42.2522C13.548 41.5597 12.6034 41.1655 11.3471 40.3171C12.3082 40.0473 16.4945 38.9561 18.5327 38.3026C17.3878 40.1642 16.374 41.6332 16.0035 42.3541C16.002 42.3586 16.0004 42.3601 15.9989 42.3646ZM10.8138 39.9454C12.0235 38.1707 13.4907 36.5489 14.8224 34.9256C15.1508 35.3228 15.5139 35.699 15.898 36.0483C16.5849 36.6703 17.3562 37.189 18.1576 37.6206C15.8136 38.4615 13.3762 39.3278 11.0548 40.1163C10.9765 40.0608 10.8952 40.0039 10.8138 39.9454ZM8.10373 36.0378C10.032 35.5656 12.0792 35.1265 14.0993 34.6333C12.6004 36.8487 11.3019 38.4765 10.5351 39.7355C9.4038 38.8482 8.17905 37.4408 8.10373 36.0378ZM18.715 33.3233C19.7906 32.9576 20.8029 32.5513 21.7399 32.1332C21.0213 33.9333 20.0799 35.699 19.1594 37.2609C19.1519 37.2639 19.1443 37.2669 19.1368 37.2699C18.6789 37.0136 18.242 36.7378 17.8338 36.4425C16.951 35.7995 16.145 35.0755 15.5259 34.2706C16.615 33.9828 17.6861 33.6725 18.715 33.3233ZM23.6667 25.6459C24.6428 26.2934 27.1661 27.7609 28.0579 28.0981C26.9039 28.9465 25.2725 29.8638 22.9511 30.8486C23.6079 28.5508 23.7525 26.7236 23.6667 25.6459ZM28.564 23.8113C28.5294 23.6464 27.8847 24.0211 27.7174 24.0556C27.9314 25.3371 28.0428 26.6082 28.0774 27.8328C26.8994 27.2228 24.6307 25.7539 24.0252 25.2337L23.644 25.4286C23.6365 25.3716 23.6305 25.3177 23.6215 25.2652L23.0068 25.4691C22.811 25.6175 22.8848 25.4466 22.9134 25.6834C23.1108 27.2722 22.8065 29.0274 22.2295 30.7871C21.0138 29.7739 19.9081 28.3455 19.6053 26.9919C19.4758 27.0399 19.3447 27.0879 19.2136 27.1359C19.063 27.1913 18.9801 27.1628 19.0268 27.3247C19.5345 29.1069 20.9024 30.5338 21.862 31.2953C20.7367 31.7435 19.4683 32.2036 18.0371 32.6773C17.528 32.8466 16.8591 33.064 16.0818 33.3098C16.7928 32.2965 18.4333 29.1428 19.0133 27.1943L18.1411 27.5435C17.1725 29.8383 15.6555 32.2276 15.0363 33.2064C15.0017 33.2603 14.9671 33.3113 14.9339 33.3652C14.3027 32.2006 14.0873 30.8846 14.5603 29.4127L14.5422 29.4381C14.6281 29.1908 13.7875 29.8144 13.7047 29.8518C13.4591 29.9598 13.4772 30.1396 13.429 30.3809C13.3566 30.7422 13.3205 31.1124 13.325 31.4871C13.3356 32.3175 13.6323 33.1449 14.1053 33.9259C12.257 34.4909 10.1239 35.119 8.11278 35.6556C8.12032 35.5881 8.12937 35.5207 8.14143 35.4532C8.42463 33.9993 9.9024 32.1826 11.558 31.2143L11.9572 30.7347L9.68399 32.3115C8.59183 33.2273 7.38217 34.6528 7.08089 35.9419C6.63498 37.8545 8.10224 39.3758 9.64482 40.464C11.3486 41.6632 13.1337 42.2612 15.1885 42.8503C17.4376 43.4948 21.996 44.1018 24.3265 44.1303C24.4786 44.1318 24.7196 44.1093 24.7196 44.1093C24.7196 44.1093 24.8311 43.8995 24.8447 43.886C25.045 43.5308 27.746 38.5035 28.4752 34.2541C28.9663 31.3882 29.3248 27.5091 28.564 23.8113Z" fill="url(#paint0_radial_9176_13656)"/>
<path d="M21.6904 5.29975C21.7958 6.47039 22.0625 7.59159 22.5249 8.77871C21.0818 8.40249 17.5673 7.88539 16.3607 7.734C18.444 6.49291 21.3394 5.44964 21.6904 5.29975ZM14.5906 10.4065C13.8313 9.82194 14.6358 8.99454 15.1118 8.59583C15.2986 8.43995 15.508 8.28407 15.734 8.13118C16.3245 8.86564 17.8384 10.7827 18.4214 11.3883L19.473 11.3134C18.9382 10.8412 16.6228 8.55538 15.9645 7.97831C15.9735 7.97231 15.9826 7.96779 15.9916 7.9618C17.0717 8.38898 20.7669 9.11446 22.7087 9.22987C22.7132 9.24187 22.7178 9.25085 22.7223 9.26135C22.0354 9.6001 20.7911 10.2057 19.4458 11.087L20.3256 11.2354C21.3409 10.7168 22.0625 10.1952 22.8338 9.51467C23.1863 10.3031 23.6231 11.1275 24.1579 12.0208L25.012 12.1123C23.4664 9.43823 22.2975 7.02051 21.8079 5C20.6856 5.33875 14.4836 7.48366 13.3448 9.03652C12.9034 9.63908 14.1793 10.1097 14.5906 10.4065Z" fill="url(#paint1_radial_9176_13656)"/>
<path d="M32.6265 22.1204C34.7973 20.1134 35.8427 18.8513 37.0253 16.2897C39.532 17.6507 41.2779 19.2995 42.1742 20.3367C42.2209 20.3907 42.3053 20.4611 42.4077 20.5301C41.2086 20.5975 37.7845 20.8584 32.6265 22.1204ZM14.819 10.5819C15.5135 10.8277 16.3978 11.0661 17.3317 11.2849C17.743 12.4645 18.0714 13.5362 18.3275 14.5105C17.5201 13.0146 16.3119 11.6851 14.819 10.5819ZM22.4009 12.2742C21.6235 12.6684 19.8309 13.7416 18.9843 14.7758C18.5685 13.184 18.0111 11.9504 17.7264 11.3763C19.4739 11.772 21.3253 12.0973 22.4009 12.2742ZM28.9584 13.4733C27.1823 14.2482 25.6714 14.9947 23.9917 16.1833C24.0414 14.7788 23.7702 13.4988 23.2686 12.4151C25.1772 12.7238 27.0799 13.0491 28.9584 13.4733ZM36.141 15.8385C33.3707 16.4276 30.8911 17.2295 28.6797 18.1409C29.5173 16.4666 29.8938 14.9692 29.9872 13.7176C31.5012 14.0953 32.9956 14.548 34.4568 15.1265C35.0473 15.3439 35.6092 15.5822 36.141 15.8385ZM28.7746 18.9712C31.1397 17.925 33.7578 16.9507 36.5718 16.1818C35.6559 17.7331 34.154 19.4089 31.8944 22.2973L31.9034 22.3003C31.8959 22.3033 31.8884 22.3048 31.8808 22.3063L31.8944 22.2973C31.0161 20.9258 29.9496 19.8451 28.7746 18.9712ZM27.7803 19.7177C29.0442 20.5166 30.2493 21.4354 31.2903 22.4607C28.8589 23.1022 26.0901 23.9566 23.0291 25.0957C25.1757 23.2026 26.7093 21.392 27.7803 19.7177ZM21.0662 23.381C21.6251 24.0855 21.8917 24.8439 21.955 25.5019C19.6019 26.4012 17.7219 27.1522 15.9248 28.083C18.1362 26.5482 19.8234 24.9593 21.0662 23.381ZM20.1593 23.6103C18.8337 25.2531 17.0998 26.7775 14.9697 28.0591C15.7123 27.3126 16.3541 26.5692 16.9024 25.8287C17.6857 25.2606 18.7855 24.4887 20.1593 23.6103ZM22.6826 17.1726C21.7004 17.9625 20.6338 18.9218 19.4106 20.1254C19.5839 18.7404 19.4965 17.3884 19.2856 16.1668C20.2211 16.3437 21.3976 16.6839 22.6826 17.1726ZM20.4018 22.6945C19.3549 23.4305 18.4329 24.1409 17.6285 24.7929C18.3034 23.8351 18.7614 22.8384 19.0566 21.8356C19.5869 22.0859 20.0312 22.3782 20.4018 22.6945ZM19.5386 20.7909C20.1698 20.1854 21.3826 19.0792 23.0758 17.7856C22.7519 19.2231 22.1433 20.677 21.259 22.0755C20.6835 21.401 20.0056 21.0023 19.5386 20.7909ZM24.543 16.7109C25.9832 15.6976 27.6688 14.6304 29.5594 13.6396C29.457 14.7458 28.8574 16.2882 27.6915 18.2383C26.6852 17.6222 25.6216 17.1276 24.543 16.7109ZM26.652 19.0417C25.0989 19.7806 23.6979 20.5631 22.4385 21.347C23.1586 20.0714 23.606 18.8228 23.8275 17.6387C24.7509 18.0374 25.7075 18.5066 26.652 19.0417ZM22.8468 12.3476C22.8588 12.3491 22.8694 12.3506 22.8814 12.3521C23.2927 13.5797 23.4358 14.9077 23.3168 16.2702C22.0318 15.8415 20.7498 15.4983 19.5357 15.1685C20.3326 14.2437 21.5241 13.3309 22.8468 12.3476ZM22.3692 25.343C22.3798 24.2174 22.0951 23.339 21.6853 22.663C23.1029 21.8102 24.7374 20.8988 26.5556 20.0055C25.477 21.5808 24.0926 23.3615 22.3752 25.3415C22.3722 25.3415 22.3707 25.3415 22.3692 25.343ZM42.8551 20.5391C40.719 17.1831 37.4305 14.0938 27.6342 12.2952C25.5614 11.9129 23.1089 11.6117 18.8246 10.8667C17.3197 10.6059 12.814 9.91942 13.3774 9.00059C13.0716 9.36033 13.3096 9.71105 13.5009 9.90891C15.7364 12.4405 18.9542 13.926 18.9542 19.0837C18.9542 23.8217 14.6654 28.2149 10.3721 31.7658C10.1431 31.9502 9.91258 32.1376 9.67607 32.3354C14.8582 29.1907 18.0955 27.9002 22.1147 26.3413C27.1657 24.3823 37.203 21.5733 42.9998 20.7684" fill="url(#paint2_radial_9176_13656)"/>
<defs>
<radialGradient id="paint0_radial_9176_13656" cx="0" cy="0" r="1" gradientUnits="userSpaceOnUse" gradientTransform="translate(-1.25341 49.4625) rotate(90) scale(49.8155 49.2805)">
<stop stop-color="#F0F0F1"/>
<stop offset="1" stop-color="#909CA9"/>
</radialGradient>
<radialGradient id="paint1_radial_9176_13656" cx="0" cy="0" r="1" gradientUnits="userSpaceOnUse" gradientTransform="translate(78.6204 67.3907) rotate(90) scale(69.3098 104.897)">
<stop stop-color="#F0F0F1"/>
<stop offset="1" stop-color="#909CA9"/>
</radialGradient>
<radialGradient id="paint2_radial_9176_13656" cx="0" cy="0" r="1" gradientUnits="userSpaceOnUse" gradientTransform="translate(22.4613 21.269) scale(15.2315 15.1553)">
<stop stop-color="#74BEEA"/>
<stop offset="1" stop-color="#3363A2"/>
</radialGradient>
</defs>
</svg>
