<svg width="50" height="50" viewBox="0 0 50 50" fill="none" xmlns="http://www.w3.org/2000/svg">
<path d="M24.4563 6H14V16.4564H24.4563V6Z" fill="#F26522"/>
<path d="M36.0001 6H25.5438V16.4564H36.0001V6Z" fill="#8DC63F"/>
<path d="M24.4563 17.5436H14V28H24.4563V17.5436Z" fill="#00AEEF"/>
<path d="M36 17.5436H25.5437V28H36V17.5436Z" fill="#FFC20E"/>
<path fill-rule="evenodd" clip-rule="evenodd" d="M20.0869 35.6191C21.595 35.6191 22.499 36.904 22.499 38.3047C22.499 39.7467 21.619 41.0977 20.0967 41.0977C18.5603 41.0977 17.6895 39.7119 17.6895 38.3047C17.6895 36.7634 18.629 35.6191 20.0869 35.6191ZM20.0869 36.3613C18.9893 36.3613 18.5928 37.4962 18.5928 38.417C18.5928 39.464 19.0896 40.3555 20.0967 40.3555C21.121 40.3555 21.5908 39.3325 21.5908 38.417C21.5908 37.4766 21.1677 36.3613 20.0869 36.3613Z" fill="#7F8BA5"/>
<path fill-rule="evenodd" clip-rule="evenodd" d="M33.2266 35.6191C34.6773 35.6191 35.3994 36.8381 35.3994 38.207V38.6123H31.8281C31.8526 39.5829 32.4378 40.3604 33.3926 40.3604C34.0306 40.3604 34.4521 40.0788 34.7842 39.6426L35.3311 40.0771C34.9905 40.5928 34.3965 41.0977 33.3438 41.0977C31.8848 41.0977 30.917 39.9355 30.917 38.5439C30.917 37.1516 31.6265 35.6191 33.2266 35.6191ZM33.2266 36.3613C32.5159 36.3613 31.9757 36.896 31.8525 37.875H34.4961C34.4961 37.0893 34.0616 36.3613 33.2266 36.3613Z" fill="#7F8BA5"/>
<path fill-rule="evenodd" clip-rule="evenodd" d="M14.4473 33.8906C16.0546 33.8906 16.9424 34.7926 16.9424 36.0586C16.9424 37.4243 16.0621 38.2119 14.4473 38.2119H12.7676V41H11.8252V33.8906H14.4473ZM12.7676 37.4453H14.4473C15.5531 37.4453 16 36.8658 16 36.0684C16 35.3374 15.5484 34.6621 14.4473 34.6621H12.7676V37.4453Z" fill="#7F8BA5"/>
<path d="M25.0947 39.6602L26.3271 35.7168H27.0547L28.3057 39.7422L29.3252 35.7168H30.2236L28.6904 41H27.958L26.6738 37L25.4238 41H24.6865L23.1533 35.7168H24.0566L25.0947 39.6602Z" fill="#7F8BA5"/>
<path d="M38.6074 35.6191C38.7372 35.6191 38.9425 35.6548 39.0078 35.6875L39.0029 36.5273C38.8565 36.4955 38.7366 36.4883 38.5635 36.4883C37.9529 36.4883 37.5575 36.7784 37.3574 37.2461V41H36.4541V35.7168H37.333L37.3506 36.3232C37.3528 36.3196 37.3552 36.3161 37.3574 36.3125C37.6269 35.8722 38.0398 35.6191 38.6074 35.6191Z" fill="#7F8BA5"/>
</svg>
