<svg width="50" height="50" viewBox="0 0 50 50" fill="none" xmlns="http://www.w3.org/2000/svg">
<path d="M35.4522 39.8792C34.5495 39.8792 33.9863 39.3397 33.5891 38.6463C32.2366 36.3393 33.6093 33.4675 33.6093 30.9974C33.5068 30.3379 33.7826 29.6515 33.4649 29.0075C33.3577 28.6015 33.4458 27.4758 32.7052 27.5768C32.109 27.6582 30.4848 32.4717 29.8614 33.3036C28.9948 34.4532 28.1123 35.6156 28.0878 37.1465C27.9553 37.9918 27.8849 39.2357 28.2567 40.0402C28.5008 40.5571 28.4589 40.817 27.7975 40.7294C27.1157 40.7072 26.2443 40.6971 25.5891 40.8551C24.7124 40.7337 23.8228 40.9582 22.949 40.7591C23.1309 40.5006 23.4155 40.5698 23.6711 40.5515C24.3398 40.5021 24.4395 40.3862 24.3572 39.714C24.1318 37.8597 23.1454 36.4333 21.6982 35.2907C21.1186 34.8377 20.4973 34.4382 19.8423 34.0974C18.2995 33.0064 14.6386 29.5663 17.1631 27.7604C18.5503 26.5729 20.0145 27.2642 21.5783 27.937C21.169 27.4224 20.1299 26.8032 19.4783 26.6109C16.9508 26.0248 14.5143 27.9398 14.7035 30.424C14.7483 31.0002 14.7555 31.5807 14.7945 32.1597C15.0169 33.5381 15.7448 34.7018 16.4222 35.898C16.8555 36.6522 17.2801 37.4148 17.2556 38.2989C17.2137 39.7437 16.7284 40.334 15.2335 40.4173C12.9706 40.5501 10.3702 41.0986 8.1464 41.0175C7.54991 40.9963 7.40548 40.6419 7.49502 40.2069C7.63945 39.5007 7.66401 38.7593 7.9182 38.0645C8.3876 36.7807 7.83732 35.5068 7.84743 34.2273C6.90141 32.1798 8.20569 29.3661 7.30293 27.1517C7.30293 25.2314 6.70149 22.3622 7.40692 20.5437C7.49936 18.7487 7.87487 16.9904 8.15362 15.2208C8.20525 14.654 8.32299 14.0007 8.18106 13.447C8.13773 12.0347 7.72755 10.6902 7.43147 9.3231C6.82949 7.83367 7.45386 7.31369 8.92921 7.56764C9.62254 7.70511 10.305 7.89058 10.9714 8.12267C12.8172 8.71017 14.6399 8.40512 16.48 8.07747C17.8376 7.83738 19.2155 7.70604 20.6959 7.51256C20.2407 8.56302 20.0008 9.69061 19.9896 10.8314C19.9779 12.3517 20.4366 13.8399 21.3054 15.1008C21.8527 15.9185 22.4319 16.7178 23.0298 17.5016C24.1524 18.9692 24.8996 20.6781 25.2093 22.4856C25.2699 22.8273 25.2887 23.2934 25.722 23.3089C26.2131 23.3287 26.4442 22.9262 26.5193 22.4616C26.5944 21.9969 26.694 21.545 26.7836 21.0874C26.8387 21.1287 26.8754 21.1891 26.8862 21.2562C26.8969 21.3232 26.8809 21.3918 26.8413 21.4475C27.5057 19.4223 27.2746 17.4155 26.8413 15.3832C26.6244 14.2471 26.6396 13.0803 26.8861 11.95C27.3483 9.58438 29.0309 8.24695 31.5078 7.84162C31.7645 7.83346 32.0334 7.67945 32.2777 7.81056C34.1105 8.37547 35.9476 8.49551 37.8093 7.92918C38.6759 7.6665 39.5237 7.37133 40.4292 7.24988C41.5731 7.09876 41.8952 7.3911 41.6396 8.51246C41.3507 9.79622 41.137 11.1054 40.6603 12.3426C40.279 13.3312 40.6863 14.2802 40.838 15.2222C41.1081 16.9 41.2973 18.5849 41.55 20.2626C42.3155 22.0161 42.1064 25.2469 41.693 27.1715C41.6569 28.131 41.733 29.505 41.407 30.4184C41.372 32.0992 40.6608 35.4342 41.5096 36.9558C41.4894 37.8498 41.7306 38.7042 41.9068 39.5685C41.9934 39.9922 42.0252 40.4074 41.6627 40.7436C41.334 40.824 40.9904 40.8269 40.6603 40.752C39.45 40.6715 38.3711 40.0981 37.194 39.8792C36.6452 39.706 36.0218 39.8724 35.4522 39.8792Z" fill="#0FB6B2"/>
<path d="M31.9933 7.85273C31.1816 7.6762 30.3642 7.7694 29.5482 7.81177C27.2893 8.01938 26.0818 9.00656 25.4608 11.1419C25.0072 12.639 25.098 14.2435 25.7179 15.6824C26.5766 17.6468 26.6495 19.591 26.8358 21.6705C27.8358 18.561 26.6283 16.0623 26.9398 12.9638C27.1333 11.0318 27.815 9.43731 29.7561 8.55887C30.4812 8.22699 31.2568 8.11259 31.9933 7.85273Z" fill="#018D89"/>
<path d="M19.8475 34.0974C20.3284 34.7795 21.1372 35.1185 21.6196 35.8402C22.5887 37.2863 23.3831 38.7311 22.8285 40.5346C22.8271 40.5391 22.8257 40.5438 22.8242 40.5486C22.7959 40.6397 22.7539 40.7752 22.9556 40.7591C23.2343 40.7478 23.5232 40.7252 23.8121 40.7252C24.4822 40.7154 24.6772 40.464 24.592 39.8143C24.3161 37.6955 22.3326 34.3666 19.8475 34.0974Z" fill="#018D89"/>
<path d="M33.5197 34.1114C33.3868 35.1 33.0864 36.0477 33.2641 37.0871C33.4923 38.4485 34.1307 39.3962 35.4522 39.8792C34.4037 40.2704 33.5269 39.954 32.916 38.6971C32.0899 37.0024 32.1115 35.2638 32.8683 33.538C33.3262 32.7774 33.1153 31.6535 33.5601 30.9762C34.1344 31.2314 33.583 33.6367 33.5197 34.1114Z" fill="#018D89"/>
<path d="M22.9125 15.7349C21.3339 13.2026 21.4495 9.71431 23.5408 7.47019C24.0189 6.95753 24.585 6.4364 25.3635 6.30647C25.3904 6.32037 25.4135 6.34052 25.4306 6.36514C25.4477 6.38976 25.4584 6.4181 25.4617 6.4477C23.1985 7.83456 22.1398 9.85553 22.1889 12.44C22.2092 13.5543 22.6583 14.5683 23.0555 15.5922C23.1176 15.7405 23.0396 15.7603 22.9125 15.7349Z" fill="#0FB6B2"/>
<path d="M26.36 8.20593C26.1318 8.19181 26.0075 8.0647 26.1216 7.84156C26.2416 7.59729 26.4169 7.38289 26.634 7.21456C26.8512 7.04624 27.1047 6.92838 27.3753 6.86991C27.5166 6.82991 27.6694 6.98461 27.6237 7.1213C27.5228 7.37364 27.3645 7.60024 27.1608 7.78399C26.9318 7.99055 26.6579 8.12471 26.36 8.20593Z" fill="#0FB6B2"/>
<path d="M24.9852 10.1846C24.8682 10.2001 24.8206 10.138 24.7844 10.0434C24.6689 9.74112 25.1744 8.8994 25.4979 8.8542C25.6134 8.82953 25.7402 8.91157 25.7622 9.02509C25.8561 9.3019 25.2712 10.1747 24.9852 10.1846Z" fill="#0FB6B2"/>
<path d="M18.7312 38.2862C18.7066 38.0249 18.7095 37.7636 19.0547 37.7848C19.3999 37.806 19.5588 38.0503 19.5674 38.3582C19.5936 38.5699 19.3872 38.7761 19.1703 38.7551C18.8265 38.7607 18.6893 38.5969 18.7312 38.2862Z" fill="#0FB6B2"/>
<path d="M32.8624 39.3185C32.8624 39.5261 32.8624 39.6885 32.6588 39.6744C32.1461 39.6419 32.1504 39.1942 32.0218 38.8665C31.9583 38.7027 32.0493 38.5841 32.2356 38.6166C32.6588 38.6956 32.7122 39.0798 32.8624 39.3185Z" fill="#0FB6B2"/>
<path d="M24.2127 11.8455C24.243 11.6619 24.243 11.3003 24.6127 11.2269C24.8554 11.1789 24.9016 11.4613 24.8698 11.6364C24.8236 11.9471 24.8525 12.3624 24.4206 12.416C24.2213 12.4386 24.1881 12.1562 24.2127 11.8455Z" fill="#0FB6B2"/>
<path d="M16.2689 42.7462C16.9824 42.5513 17.4431 42.0075 17.9804 41.5683C18.1248 41.5358 18.1942 41.5683 18.1422 41.7265C17.7089 42.2208 17.3045 42.7673 16.5535 42.8563C16.4206 42.9199 16.292 42.9707 16.2689 42.7462Z" fill="#0FB6B2"/>
<path d="M32.1235 37.3286C32.0961 37.5094 32.0614 37.7438 31.8895 37.717C31.5386 37.6619 31.4562 37.3541 31.4158 37.0462C31.3705 36.8636 31.5467 36.6658 31.7379 36.6846C32.0831 36.7496 32.0224 37.1069 32.1235 37.3286Z" fill="#0FB6B2"/>
<path d="M18.1468 41.7265L17.985 41.5683L18.4356 40.3227C18.5801 40.0134 18.4544 39.6801 18.5165 39.3623C18.5801 39.1962 18.7136 39.3691 18.7462 39.4626C18.8104 39.7849 18.8104 40.1162 18.7462 40.4385C18.5801 40.8834 18.492 41.365 18.1468 41.7265Z" fill="#0FB6B2"/>
<path d="M16.3934 34.0155C16.398 33.8727 16.5062 33.7403 16.6477 33.7046C16.8001 33.666 16.9696 33.738 17.06 33.864C17.1224 33.9511 17.147 34.0621 17.1271 34.1666C17.1098 34.401 16.9624 34.5084 16.7415 34.4589C16.5205 34.4095 16.4281 34.2189 16.3934 34.0155Z" fill="#0FB6B2"/>
<path d="M16.3169 32.6356C16.2476 32.7641 16.2938 32.983 16.028 32.9633C15.6944 32.9378 15.6698 32.7048 15.68 32.4633C15.68 32.2924 15.7262 32.1343 15.9688 32.1724C16.2533 32.2162 16.2822 32.4266 16.3169 32.6356Z" fill="#0FB6B2"/>
<path d="M18.4119 36.35C18.6295 36.3586 18.8172 36.5611 18.8047 36.7736C18.8101 36.9817 18.619 37.1734 18.4061 37.1733C18.175 37.1649 18.162 36.9276 18.1404 36.7496C18.1144 36.5378 18.1577 36.3711 18.4119 36.35Z" fill="#0FB6B2"/>
<path d="M17.9283 35.5124C17.9047 35.6751 17.728 35.7987 17.5629 35.7681C17.29 35.7426 17.2596 35.5251 17.2741 35.3105C17.2741 35.1438 17.2076 34.908 17.5283 34.9546C17.807 34.9955 17.8677 35.2243 17.9283 35.5124Z" fill="#0FB6B2"/>
<path d="M15.7852 31.2671C15.5527 31.2671 15.3967 31.2742 15.3866 31.0327C15.3765 30.7912 15.4703 30.6288 15.7115 30.5793C15.9527 30.5299 16.0726 30.6782 16.0957 30.8773C16.1386 31.0617 15.9785 31.2626 15.7852 31.2671Z" fill="#0FB6B2"/>
<path d="M24.8467 14.0895C24.8034 14.2307 24.8583 14.4793 24.6185 14.4299C24.3788 14.3804 24.3427 14.1474 24.3398 13.9285C24.3398 13.7647 24.3297 13.5274 24.5247 13.5401C24.8323 13.5613 24.7817 13.8706 24.8467 14.0895Z" fill="#0FB6B2"/>
<path d="M31.6017 35.367C31.665 35.2046 31.6017 34.9235 31.8809 34.9645C32.0594 34.9899 32.0378 35.2145 32.0248 35.3769C32.0119 35.5393 31.9442 35.7455 31.7643 35.7455C31.511 35.7427 31.629 35.5082 31.6017 35.367Z" fill="#0FB6B2"/>
<path d="M19.546 41.1375C19.4649 41.2439 19.3232 41.2999 19.1893 41.2788C18.9842 41.2689 19.0059 41.1107 18.9986 40.9751C18.9654 40.8143 19.1204 40.646 19.2875 40.6616C19.4608 40.6616 19.6038 40.7492 19.546 41.1375Z" fill="#0FB6B2"/>
<path d="M25.1096 15.3338C25.2913 15.4361 25.4004 15.6438 25.3796 15.8478C25.3796 15.9891 25.2944 16.071 25.1572 16.0032C24.9927 15.9139 24.8934 15.7272 24.9131 15.5442C24.9131 15.4241 24.9463 15.3182 25.1096 15.3338Z" fill="#0FB6B2"/>
<path d="M31.9984 33.894C32.0085 33.7824 32.1746 33.7076 32.3681 33.6808C32.4706 33.6652 32.5645 33.7387 32.5241 33.8432C32.4605 34.0084 32.4172 34.2146 32.1818 34.2329C32.0287 34.2442 31.9868 34.1412 31.9984 33.894Z" fill="#0FB6B2"/>
<path d="M22.9125 15.7349L23.0495 15.5936C23.194 15.8281 23.3384 16.0639 23.4828 16.2998C23.529 16.4565 23.4568 16.4947 23.3138 16.4608C23.1044 16.2668 22.9639 16.0125 22.9125 15.7349Z" fill="#0FB6B2"/>
<path d="M15.9685 28.5584L16.2573 28.5979C16.2573 28.8339 16.2245 29.0668 15.9497 29.1332C15.8652 29.1414 15.7805 29.1194 15.7114 29.071C15.7133 28.8734 15.8098 28.6808 15.9685 28.5584Z" fill="#0FB6B2"/>
<path d="M15.8164 29.4382C15.9593 29.4508 16.0729 29.5967 16.0475 29.7347C16.0471 29.8962 15.8759 30.0339 15.7139 30.0031C15.5694 29.9889 15.5218 29.8986 15.5304 29.77C15.534 29.6122 15.6579 29.4684 15.8164 29.4382Z" fill="#0FB6B2"/>
<path d="M19.7214 39.8821C19.7214 40.0233 19.707 40.1646 19.5098 40.1646C19.3126 40.1646 19.2924 40.0403 19.2939 39.892C19.2953 39.7437 19.3342 39.618 19.5155 39.6095C19.6969 39.6011 19.7214 39.7395 19.7214 39.8821Z" fill="#0FB6B2"/>
<path d="M24.6111 18.4944C24.4364 18.1823 24.1475 17.9295 24.0753 17.5679C24.0842 17.5368 24.1002 17.508 24.1219 17.4835C24.1436 17.4591 24.1706 17.4397 24.2009 17.4267C24.422 17.6568 24.5783 17.939 24.6544 18.2458C24.681 18.2848 24.6914 18.3323 24.6833 18.3785C24.6753 18.4248 24.6494 18.4662 24.6111 18.4944Z" fill="#0FB6B2"/>
<path d="M23.3145 16.4552L23.4834 16.2942L23.8821 16.8817C23.8387 16.9735 23.8821 17.1006 23.7607 17.1642C23.6192 16.9227 23.3462 16.7631 23.3145 16.4552Z" fill="#0FB6B2"/>
<path d="M16.2689 42.7462L16.5574 42.8492C16.1949 43.0992 15.7934 42.9622 15.402 42.9651C15.3669 42.9298 15.3601 42.8713 15.3863 42.8292C15.4808 42.6773 15.9694 42.8074 16.1429 42.7151C16.1832 42.731 16.2258 42.7414 16.2689 42.7462Z" fill="#0FB6B2"/>
<path d="M18.436 39.2917C18.5397 39.0657 18.1956 38.885 18.3813 38.6138C18.8649 38.883 18.4746 39.4556 18.436 39.2917Z" fill="#0FB6B2"/>
<path d="M23.7601 17.1627L23.881 16.8802C23.9875 17.0624 24.0925 17.246 24.1991 17.4296L24.0738 17.5708C23.9702 17.4324 23.8651 17.2968 23.7601 17.1627Z" fill="#0FB6B2"/>
<path d="M25.4609 6.44484L25.3627 6.30362L25.9289 6.03387C25.9483 6.04511 25.9645 6.06112 25.9757 6.08031C25.9869 6.0995 25.9928 6.12122 25.9928 6.14332C25.9928 6.16542 25.9869 6.18715 25.9757 6.20634C25.9645 6.22554 25.9483 6.24154 25.9289 6.25278L25.4609 6.44484Z" fill="#0FB6B2"/>
<path d="M33.1859 32.123C33.0607 32.2134 32.9196 32.2868 32.8736 32.0665C32.8333 31.8801 32.8275 31.6739 33.1298 31.6979C33.2533 31.8003 33.2787 31.9931 33.1859 32.123Z" fill="#0FB6B2"/>
<path d="M18.7728 42.129C18.6159 42.122 18.5785 42.0527 18.5713 41.9539C18.5713 41.831 18.5828 41.7251 18.7382 41.7223C18.8664 41.7223 18.9873 41.7816 18.9642 41.9087C18.947 41.9977 18.8275 42.0697 18.7728 42.129Z" fill="#0FB6B2"/>
<path d="M16.2696 28.4341C16.2437 28.2392 16.2883 28.0514 16.51 28.0415C16.7662 28.0288 16.6453 28.2576 16.677 28.3861C16.6662 28.4244 16.6227 28.4493 16.5834 28.4398L16.2696 28.4341Z" fill="#0FB6B2"/>
<path d="M15.402 42.9651L14.72 42.7955C14.9598 42.643 15.1649 42.7348 15.3598 42.715C15.4869 42.7438 15.3985 42.8619 15.402 42.9651Z" fill="#0FB6B2"/>
<path d="M24.9185 18.9548C24.9988 19.0053 25.061 19.0791 25.0966 19.1659C25.1322 19.2527 25.1394 19.3483 25.1171 19.4392C25.1171 19.5771 24.8893 19.2953 24.878 19.2254C24.8631 19.1333 24.8772 19.0389 24.9185 18.9548Z" fill="#0FB6B2"/>
<path d="M32.8618 32.6808C32.8834 32.8969 32.9539 33.1426 32.5739 33.0974C32.5595 32.8842 32.5754 32.6935 32.8618 32.6808Z" fill="#0FB6B2"/>
<path d="M33.3237 31.1343C33.2143 31.2416 33.0848 31.2981 33.0286 31.1103C32.9725 30.9224 33.1092 30.8419 33.2949 30.8448C33.3715 30.9198 33.384 31.0462 33.3237 31.1343Z" fill="#0FB6B2"/>
<path d="M24.6111 18.4944L24.6539 18.2502C24.7863 18.4027 24.9821 18.6032 24.7979 18.7572C24.6712 18.8603 24.6212 18.6272 24.6111 18.4944Z" fill="#0FB6B2"/>
<path d="M25.9284 6.25562V6.03672L26.4599 6C26.2923 6.19489 26.1002 6.20337 25.9284 6.25562Z" fill="#0FB6B2"/>
<path d="M20.5869 27.146C20.4933 27.163 20.4429 27.1121 20.4185 27.0359L20.5869 27.146Z" fill="#0FB6B2"/>
<path d="M16.7241 27.7802C16.8324 27.6785 16.9191 27.5105 17.1068 27.5994C17.2513 27.6686 17.1184 27.7901 17.1271 27.8819C16.9797 27.8974 16.831 27.913 16.7241 27.7802Z" fill="#0FB6B2"/>
</svg>
