<svg width="50" height="50" viewBox="0 0 50 50" fill="none" xmlns="http://www.w3.org/2000/svg">
<path d="M37.7555 5.3999C37.7087 6.53096 37.2392 7.60329 36.4399 8.40489C35.5286 9.31337 34.5379 10.1385 33.4796 10.8704C32.7443 11.3727 32.2095 12.1181 31.9692 12.9755C31.6745 14.0807 31.814 15.6358 33.5191 17.4488C33.5417 17.4723 33.5705 17.4889 33.6021 17.4969C33.6338 17.5048 33.667 17.5036 33.698 17.4935C34.3901 17.262 38.366 15.7963 38.7134 12.6124C39.1002 9.13377 37.7555 5.3999 37.7555 5.3999Z" fill="#5BA46D"/>
<path d="M39.358 22.7878C39.5199 23.864 39.5614 24.9548 39.4817 26.0401C39.2168 29.5569 37.6912 32.8599 35.1856 35.3419C32.68 37.8238 29.3627 39.3179 25.8435 39.5494C23.7783 39.6781 21.7091 39.367 19.773 38.6366C17.8369 37.9062 16.0778 36.7732 14.6121 35.3125C13.1464 33.8518 12.0074 32.0966 11.2705 30.1629C10.5335 28.2293 10.2154 26.1613 10.3371 24.0956C10.5607 20.5472 12.0671 17.2012 14.5754 14.6813C17.0837 12.1614 20.4227 10.6396 23.97 10.3995C25.2784 10.3108 26.5929 10.3993 27.8776 10.6626C28.4947 10.7974 29.1399 10.6909 29.6811 10.365C30.2222 10.0392 30.6182 9.51863 30.7878 8.91015C30.8762 8.58874 30.8983 8.25269 30.8527 7.92247C30.807 7.59225 30.6946 7.27479 30.5223 6.98943C30.3499 6.70408 30.1213 6.45681 29.8502 6.26271C29.5792 6.06861 29.2715 5.93174 28.9458 5.86044C27.2325 5.49928 25.4784 5.37007 23.7306 5.47626C18.936 5.783 14.4213 7.84141 11.0455 11.2599C7.66969 14.6784 5.6682 19.2185 5.42174 24.0166C5.29686 26.6562 5.70858 29.2936 6.63199 31.7695C7.55539 34.2453 8.9713 36.5082 10.7941 38.4213C12.617 40.3344 14.8088 41.858 17.2372 42.8999C19.6656 43.9418 22.2801 44.4804 24.9226 44.4831C30.0982 44.4769 35.06 42.4181 38.7197 38.7584C42.3794 35.0987 44.4382 30.1369 44.4444 24.9613C44.4447 23.9808 44.3699 23.0017 44.2207 22.0326C44.1665 21.6925 44.0411 21.3678 43.8528 21.0794C43.6646 20.7911 43.4176 20.5457 43.1281 20.3592C42.8386 20.1727 42.5131 20.0494 42.1727 19.9972C41.8323 19.9451 41.4847 19.9653 41.1526 20.0565C40.5692 20.21 40.0631 20.5739 39.7318 21.0782C39.4005 21.5824 39.2674 22.1913 39.358 22.7878Z" fill="#F4A04E"/>
<path d="M43.6866 10.6942C42.5825 10.9461 41.6134 11.6035 40.9711 12.5361C40.2406 13.5956 39.6082 14.7194 39.0817 15.8937C38.7177 16.7038 38.0846 17.3629 37.2898 17.7593C35.9084 18.4277 33.1928 17.2857 33.1639 17.233C32.6139 16.1594 33.2139 11.9151 36.4162 11.0652C39.8238 10.1574 43.6866 10.6942 43.6866 10.6942Z" fill="#A4D47F"/>
<path d="M29.1353 22.2958C29.1356 21.8024 29.0388 21.3139 28.8503 20.858C28.6617 20.4021 28.3852 19.9879 28.0364 19.6389C27.6877 19.29 27.2737 19.0132 26.818 18.8243C26.3622 18.6354 25.8738 18.5382 25.3804 18.5382C24.3839 18.5382 23.4281 18.9341 22.7234 19.6388C22.0187 20.3435 21.6229 21.2992 21.6229 22.2958C21.6234 22.9704 21.8054 23.6325 22.1499 24.2126C22.4943 24.7927 22.9885 25.2694 23.5806 25.5928L22.9175 30.816C22.9044 30.918 22.9132 31.0217 22.9433 31.12C22.9734 31.2184 23.0242 31.3092 23.0922 31.3864C23.1601 31.4635 23.2438 31.5254 23.3376 31.5677C23.4313 31.61 23.533 31.6318 23.6358 31.6317H27.1566C27.2594 31.6318 27.3611 31.61 27.4549 31.5677C27.5486 31.5254 27.6323 31.4635 27.7003 31.3864C27.7682 31.3092 27.8189 31.2184 27.8491 31.12C27.8792 31.0217 27.888 30.918 27.8749 30.816L27.2092 25.5744C27.7929 25.2486 28.2791 24.773 28.6176 24.1967C28.9562 23.6204 29.1349 22.9642 29.1353 22.2958Z" fill="#F4A04E"/>
</svg>
