<svg width="50" height="50" viewBox="0 0 50 50" fill="none" xmlns="http://www.w3.org/2000/svg">
<path d="M35.2702 9C35.3408 9 35.4779 9.03957 35.6814 9.11871C36.2156 9.31372 36.6777 9.61473 37.1186 9.94541C38.1827 10.7467 38.8484 11.7684 38.8484 13.1463C38.8484 16.9406 38.8484 20.735 38.8484 24.5294C38.8484 25.5426 38.8314 26.5516 38.8484 27.5649C38.8738 28.8664 38.1827 29.7186 37.1483 30.3672C36.1902 30.9692 35.1133 31.1473 34.0195 31.1515C28.347 31.1685 22.6703 31.16 16.9978 31.1515C16.5908 31.1515 16.2389 31.2363 15.887 31.4483C13.4705 32.8812 11.0455 34.3015 8.62048 35.7175C8.4085 35.8404 8.14565 36.1033 7.94639 35.9676C7.73018 35.8192 7.97183 35.5309 8.03542 35.319C8.4085 34.081 8.76886 32.8431 9.03595 31.5797C9.09531 31.2914 8.90877 31.0031 8.62472 30.9395C7.44613 30.6809 6.40744 30.1891 5.59769 29.2564C5.18222 28.7816 5.0084 28.2262 5.00416 27.62C4.99992 22.753 4.99992 17.8818 5.00416 13.0148C5.00416 11.8914 5.65704 11.0943 6.43712 10.399C7.11968 9.78855 7.91672 9.34764 8.87485 9.14838C9.40055 9.03816 9.30728 9.05935 9.53622 9.0212C9.62525 9.00848 9.71852 9 9.80755 9C18.9225 9 26.1425 9 35.2702 9ZM30.3142 21.6083C31.5224 21.6083 32.4763 20.6841 32.4975 19.4928C32.5145 18.3439 31.4758 17.301 30.3142 17.301C29.1695 17.301 28.1435 18.3312 28.1435 19.4674C28.1435 20.6375 29.1186 21.5999 30.3099 21.6041L30.3142 21.6083ZM21.9411 21.6083C23.1366 21.6083 24.0778 20.6629 24.0821 19.4631C24.0821 18.3015 23.0985 17.3179 21.9284 17.3095C20.771 17.301 19.7662 18.3015 19.762 19.4589C19.7535 20.6587 20.7201 21.6083 21.9453 21.6083H21.9411ZM13.5129 21.6083C14.7339 21.6083 15.7175 20.646 15.709 19.4631C15.7047 18.3312 14.6788 17.3179 13.5299 17.3052C12.3555 17.2925 11.3804 18.2888 11.3847 19.5013C11.3889 20.6841 12.3216 21.6126 13.5129 21.6126V21.6083Z" fill="#2FA1DB"/>
<path d="M42.7996 40.5505C40.8537 39.4016 38.9586 38.2824 37.0635 37.1589C36.6904 36.9385 36.2919 36.8706 35.8637 36.8706C30.8441 36.8749 25.8287 36.8706 20.8091 36.8791C19.7577 36.8791 18.8081 36.6163 17.9559 36.0015C17.0275 35.3317 16.4297 34.4668 16.3619 33.2882C16.3449 33.0339 16.4467 32.9364 16.6714 32.9236C16.8113 32.9152 16.9512 32.9109 17.0911 32.9109C23.6284 32.9109 30.1658 32.9109 36.7074 32.9109C37.1992 32.9109 37.691 32.8897 38.187 32.8473C39.6666 32.7244 40.807 31.4228 40.9724 29.9772C41.0232 29.5235 41.0402 29.0699 41.0402 28.6163C41.0402 25.0848 41.0402 21.5575 41.0402 18.0259C41.0402 17.3264 41.0402 17.3095 41.7228 17.3434C42.4265 17.3815 43.1345 17.3985 43.7747 17.7843C44.3598 18.1362 44.6735 18.6619 44.8388 19.2893C44.9406 19.6794 44.9999 20.0821 44.9957 20.4891C44.9957 24.7414 44.9999 28.9936 44.9872 33.2458C44.9872 33.9114 44.9321 34.5898 44.6099 35.2045C44.1393 36.099 43.5161 36.7901 42.4096 36.8113C42.0662 36.8198 41.9644 36.9554 42.0577 37.3158C42.2569 38.0492 42.4265 38.7869 42.647 39.5161C42.7445 39.8383 42.842 40.1647 42.7996 40.5505Z" fill="#2FA1DB"/>
</svg>
