<svg width="50" height="50" viewBox="0 0 50 50" fill="none" xmlns="http://www.w3.org/2000/svg">
<path d="M9.33472 24.7962C9.33472 24.7393 9.33472 24.6831 9.33472 24.6268C9.35626 24.4823 9.36319 24.336 9.35539 24.1902C9.41184 23.0504 9.60049 21.9209 9.91762 20.8239C10.0353 20.4207 10.29 20.0704 10.6386 19.8324C10.9872 19.5944 11.4081 19.4835 11.8298 19.5186C12.239 19.5537 12.6246 19.7239 12.9248 20.0021C13.225 20.2802 13.4225 20.6502 13.4858 21.0528C13.5261 21.3157 13.5081 21.5842 13.4331 21.8395C13.2435 22.5042 13.1145 23.1844 13.0476 23.8719C12.989 24.4479 12.9774 25.0276 13.0129 25.6053C13.1876 28.2934 14.1594 30.6646 15.9475 32.6931C17.6148 34.5859 19.7017 35.796 22.1694 36.361C22.7656 36.4955 23.3718 36.5814 23.9821 36.6177C24.4229 36.6458 24.8649 36.6492 25.306 36.6277C26.5291 36.5674 27.735 36.3167 28.8795 35.8847C30.6521 35.2234 32.2366 34.1455 33.4972 32.7436C34.7577 31.3416 35.6567 29.6572 36.1172 27.8349C36.2655 27.2468 36.367 26.6479 36.4206 26.044C36.4696 25.5197 36.4816 24.9927 36.4566 24.4667C36.3881 22.9663 36.027 21.4934 35.3935 20.1292L35.3675 20.0743C35.3658 20.0685 35.3627 20.0632 35.3584 20.0589C35.3542 20.0546 35.3489 20.0514 35.343 20.0497C35.3372 20.0479 35.331 20.0476 35.3251 20.0488C35.3191 20.05 35.3135 20.0526 35.3088 20.0565L35.2561 20.0862L33.5728 21.0251C33.5621 21.031 33.5514 21.0363 33.5414 21.0429C33.4701 21.0853 33.4687 21.0859 33.5041 21.1627C33.668 21.521 33.8073 21.8899 33.9209 22.2669C34.1241 22.9153 34.2525 23.5845 34.3037 24.2616C34.4611 26.5991 33.8182 28.6983 32.3583 30.5369C31.0911 32.1321 29.4504 33.1781 27.4736 33.7034C26.882 33.8573 26.2766 33.9531 25.6662 33.9892C25.189 34.0206 24.7101 34.0166 24.2336 33.9773C22.619 33.8514 21.0638 33.3173 19.7164 32.4258C18.1739 31.4221 16.9735 29.979 16.2729 28.2862C15.9801 27.5846 15.7784 26.8489 15.6727 26.0969C15.5872 25.5079 15.5595 24.9121 15.59 24.3179C15.6455 23.0984 15.9519 21.9031 16.4904 20.8054C17.3006 19.1206 18.6084 17.7202 20.2399 16.7901C21.184 16.2466 22.2196 15.8777 23.2965 15.7011C24.0149 15.5771 24.7436 15.5208 25.4727 15.5331C26.0884 15.5529 26.6987 15.6528 27.2882 15.8301C27.7437 15.9589 28.1921 16.1115 28.6314 16.2873C29.2536 16.5407 29.6091 17.0085 29.6872 17.6727C29.7322 18.1015 29.6067 18.5308 29.3374 18.8692C29.068 19.2076 28.6762 19.4282 28.2452 19.4842C27.9629 19.5239 27.675 19.4904 27.4095 19.3869C27.0541 19.2546 26.6959 19.1223 26.3311 19.0178C25.8082 18.8692 25.2613 18.8223 24.7204 18.8795C24.3115 18.9056 23.9053 18.9629 23.5053 19.0508C21.7419 19.4875 20.4407 20.5117 19.589 22.0995C19.2484 22.7363 19.0368 23.4331 18.966 24.1505C18.7246 26.4747 19.8331 28.6302 21.8492 29.8164C22.6031 30.2614 23.4448 30.5401 24.3169 30.6335C25.8282 30.7983 27.2281 30.4919 28.4807 29.6246C29.7479 28.7473 30.5402 27.5452 30.863 26.044C30.9634 25.5724 30.998 25.0893 30.9657 24.6083C30.9228 23.9785 30.7815 23.3591 30.5469 22.7724C30.5412 22.761 30.5342 22.7504 30.5262 22.7406C30.4908 22.7333 30.4668 22.7591 30.4401 22.7737C29.3566 23.3775 28.273 23.9813 27.1895 24.5851C27.1501 24.6032 27.1161 24.6309 27.0905 24.6656C27.065 24.7004 27.0488 24.741 27.0434 24.7836C26.9717 25.1801 26.7761 25.5441 26.4843 25.8241C26.1924 26.1041 25.8192 26.2858 25.4174 26.3437C24.8976 26.4284 24.3649 26.311 23.9301 26.016C23.4954 25.721 23.192 25.2711 23.0831 24.7598C22.9881 24.3026 23.0643 23.8267 23.2976 23.4213C23.5308 23.0159 23.9051 22.7087 24.3503 22.5573C24.8482 22.3802 25.3967 22.4059 25.8756 22.6288C25.9067 22.6452 25.9418 22.6529 25.9771 22.6511C26.0124 22.6492 26.0464 22.6378 26.0757 22.6182C28.1112 21.4811 30.1471 20.3445 32.1835 19.2083L39.4879 15.1322C39.9781 14.8583 40.4676 14.583 40.9592 14.3111C41.1674 14.1898 41.4093 14.1379 41.6494 14.1631C41.8895 14.1884 42.1152 14.2894 42.2931 14.4514C42.4074 14.5484 42.4995 14.6687 42.563 14.8041C42.6265 14.9394 42.66 15.0867 42.6612 15.236C42.6612 15.2724 42.6612 15.3081 42.6652 15.3445C42.6576 15.5423 42.5968 15.7345 42.4893 15.9013C42.3818 16.0681 42.2314 16.2034 42.0536 16.2933L38.6342 18.2013C38.5315 18.2609 38.5448 18.247 38.5935 18.3462C39.078 19.3409 39.4522 20.3849 39.7093 21.4597C39.8449 22.0268 39.9474 22.6011 40.0161 23.1799C40.1039 23.8898 40.1404 24.6051 40.1255 25.3202C40.0838 27.4227 39.6033 29.4939 38.7142 31.403C37.8921 33.1825 36.7266 34.7851 35.2835 36.1202C33.358 37.9149 30.9999 39.1884 28.4353 39.8186C27.7167 39.9973 26.9861 40.1242 26.2491 40.1983C25.8489 40.2393 25.4487 40.2585 25.0486 40.2724C25.0206 40.2724 24.9919 40.2724 24.9639 40.2777C24.7938 40.2698 24.6237 40.2704 24.453 40.2777C24.1749 40.2579 23.8954 40.2539 23.6166 40.2341C22.9216 40.1846 22.2308 40.088 21.5491 39.9449C20.1949 39.6617 18.8857 39.1972 17.6575 38.5642C16.3385 37.8884 15.128 37.0222 14.0653 35.9938C11.9569 33.953 10.5374 31.5165 9.80691 28.6844C9.64702 28.0664 9.52915 27.4385 9.4541 26.8048C9.41008 26.4423 9.37607 26.0771 9.35739 25.7138C9.36463 25.568 9.35816 25.4218 9.33805 25.2772V25.0847L9.33472 24.7962Z" fill="#0076AF"/>
<path d="M25.2327 9.72217C25.281 9.72875 25.3299 9.72875 25.3781 9.72217C25.6762 9.74797 25.9784 9.76186 26.2738 9.78833C26.8536 9.84632 27.4295 9.938 27.9985 10.0629C29.8935 10.4748 31.694 11.2346 33.3074 12.3031C33.5311 12.4435 33.7202 12.6317 33.861 12.854C34.0018 13.0764 34.0907 13.3271 34.1211 13.5879C34.1825 14.0246 34.08 14.4685 33.8331 14.8352C33.5862 15.2019 33.2121 15.4657 32.7819 15.5767C32.5271 15.6469 32.2598 15.6607 31.9991 15.6169C31.7383 15.5731 31.4905 15.4728 31.2732 15.3233C30.3801 14.7314 29.4099 14.2629 28.3894 13.9306C27.6521 13.689 26.8925 13.5206 26.1218 13.4278C25.4061 13.3399 24.6837 13.3199 23.9642 13.3683C23.0309 13.4336 22.1085 13.6068 21.2157 13.8843C20.8148 14.0129 20.3814 13.9995 19.9894 13.8464C19.5974 13.6933 19.2711 13.4099 19.0662 13.0447C18.9356 12.8144 18.8575 12.5585 18.8372 12.295C18.817 12.0316 18.8551 11.7669 18.949 11.5196C19.0429 11.2723 19.1902 11.0484 19.3806 10.8636C19.5711 10.6788 19.7999 10.5376 20.0512 10.4499C20.5969 10.2694 21.1538 10.1246 21.7186 10.0166C22.246 9.91021 22.7788 9.83181 23.3146 9.78171C23.5967 9.75525 23.8802 9.74268 24.1629 9.72415C24.276 9.73044 24.3894 9.73044 24.5024 9.72415C24.6572 9.73143 24.8125 9.73077 24.9693 9.72415L25.2327 9.72217Z" fill="#0076AF"/>
<path d="M17.0659 15.2704C17.0671 15.8031 16.8891 16.321 16.5602 16.7421C16.2312 17.1632 15.7702 17.4634 15.2499 17.5953C14.6286 17.758 13.9683 17.6832 13.4001 17.3856C12.8318 17.0881 12.397 16.5896 12.1819 15.9889C12.0707 15.672 12.0277 15.3354 12.0557 15.001C12.0837 14.6666 12.1822 14.3417 12.3446 14.0474C12.5071 13.753 12.73 13.4957 12.9989 13.2922C13.2679 13.0886 13.5769 12.9432 13.906 12.8655C14.5462 12.7092 15.2225 12.8039 15.7941 13.13C16.3656 13.4562 16.7882 13.9885 16.9739 14.6161C17.0376 14.8284 17.0686 15.0489 17.0659 15.2704Z" fill="#0076AF"/>
</svg>
