<svg width="50" height="50" viewBox="0 0 50 50" fill="none" xmlns="http://www.w3.org/2000/svg">
<path d="M34.2639 19.224C34.2639 14.2632 29.9584 10.2403 24.6389 10.2403C19.3195 10.2403 15.0139 14.2632 15.0139 19.224C15.0139 24.1848 19.3195 28.2078 24.6389 28.2078C29.9584 28.1942 34.2639 24.1848 34.2639 19.224Z" fill="#F49500"/>
<path d="M25.6389 9.50652C25.6389 11.4365 24.0417 13.013 22.0556 13.013C20.0833 13.013 18.4722 11.4501 18.4722 9.50652C18.4722 7.57658 20.0695 6 22.0556 6C24.0278 6 25.6389 7.57658 25.6389 9.50652Z" fill="#FCC000"/>
<path d="M35.5835 12.4831C35.5835 14.4131 33.9862 15.9897 32.0001 15.9897C30.0279 15.9897 28.4168 14.4267 28.4168 12.4831C28.4168 10.5532 30.014 8.97662 32.0001 8.97662C33.9862 8.97662 35.5835 10.5532 35.5835 12.4831Z" fill="#FCC000"/>
<path d="M39 21.7254C39 23.6553 37.4028 25.2319 35.4167 25.2319C33.4444 25.2319 31.8333 23.6689 31.8333 21.7254C31.8333 19.7954 33.4305 18.2189 35.4167 18.2189C37.4028 18.2324 39 19.7954 39 21.7254Z" fill="#FCC000"/>
<path d="M31.4166 28.4935C31.4166 30.4234 29.8194 32 27.8333 32C25.861 32 24.2499 30.437 24.2499 28.4935C24.2499 26.5635 25.8471 24.987 27.8333 24.987C29.8055 24.987 31.4166 26.5499 31.4166 28.4935Z" fill="#FCC000"/>
<path d="M21.0557 26.0607C21.0557 27.9906 19.4584 29.5672 17.4723 29.5672C15.5001 29.5672 13.889 28.0042 13.889 26.0607C13.889 24.1307 15.4862 22.5542 17.4723 22.5542C19.4446 22.5542 21.0557 24.1307 21.0557 26.0607Z" fill="#FCC000"/>
<path d="M18.1667 16.5055C18.1667 18.4355 16.5695 20.012 14.5833 20.012C12.6111 20.012 11 18.449 11 16.5055C11 14.5756 12.5972 12.999 14.5833 12.999C16.5556 12.999 18.1667 14.5756 18.1667 16.5055Z" fill="#FCC000"/>
<path d="M25.3611 17.1723L25.0972 16.2752L24.5416 17.3082L22.5555 10.5941L23.5555 11.165L23.3055 10.3087L21.9166 9.5612L21.1389 10.9203L21.4028 11.7766L21.9305 10.7708L23.9305 17.4848L22.9028 16.9004L23.1666 17.7974L24.5694 18.5314L25.3611 17.1723Z" fill="#03A239"/>
<path d="M27.0832 18.8167L27.6943 18.2595L26.5832 18.1779L31.2499 13.9511V15.0112L31.8332 14.4811L31.8054 12.9997L30.3054 12.8638L29.7221 13.4074L30.8054 13.4754L26.1388 17.7158L26.1526 16.6149L25.5276 17.1858L25.5693 18.6672L27.0832 18.8167Z" fill="#03A239"/>
<path d="M19.3611 26.0609L19.9861 25.4493L18.8472 25.4221L23.5277 20.9099L23.5416 21.9972L24.1388 21.4263L24.0972 19.9177L22.5555 19.8498L21.9722 20.4206L23.0694 20.4478L18.3888 24.9736L18.3749 23.8592L17.7499 24.4572L17.8194 25.9658L19.3611 26.0609Z" fill="#03A239"/>
<path d="M23.0554 17.7427L22.1666 17.4708L22.736 18.4766L16.0277 16.4651L17.0415 15.9486L16.1943 15.6904L14.8054 16.4243L15.5415 17.797L16.3888 18.0553L15.8471 17.0767L22.5416 19.0882L21.4999 19.6047L22.3888 19.8765L23.7777 19.129L23.0554 17.7427Z" fill="#03A239"/>
<path d="M28.4999 26.8083L28.2221 26.0064L27.6944 26.985L25.6527 20.9777L26.6527 21.4262L26.3888 20.6651L24.986 20.0671L24.2499 21.3582L24.5138 22.1193L25.0277 21.1815L27.0833 27.1888L26.0555 26.7131L26.3333 27.515L27.736 28.113L28.4999 26.8083Z" fill="#03A239"/>
<path d="M33.4585 20.5148L32.6251 20.2701L33.139 21.2623L26.9168 19.4954L27.8612 18.9518L27.0835 18.7343L25.7779 19.509L26.4585 20.841L27.2362 21.072L26.7362 20.107L32.9585 21.8603L31.9863 22.4175L32.8196 22.6622L34.1113 21.8603L33.4585 20.5148Z" fill="#03A239"/>
<path d="M9.62316 35.5C10.7293 35.5 11.9838 36.1008 12.024 37.2901H11.1919C11.0987 36.5381 10.3029 36.2292 9.59549 36.2292C8.88628 36.2292 8.02692 36.5776 8.02674 37.3557C8.02674 38.0539 8.80478 38.3334 9.40083 38.4832L10.1232 38.6682C11.09 38.9107 12.1212 39.4505 12.1213 40.5376C12.1213 41.8785 10.7837 42.5 9.5535 42.5C8.03422 42.4999 7.08363 41.7488 7 40.6306H7.88838C7.96039 41.4283 8.80082 41.7571 9.5535 41.7572C10.5431 41.7572 11.2881 41.2626 11.2883 40.5249C11.2883 39.8089 10.4778 39.5579 9.87317 39.3974L8.99814 39.1586C8.0977 38.9112 7.19375 38.3903 7.19371 37.3958C7.19371 36.1565 8.4696 35.5 9.62316 35.5Z" fill="black"/>
<path fill-rule="evenodd" clip-rule="evenodd" d="M20.5328 37.2236C21.2273 37.2236 21.9416 37.4451 22.2953 38.0585C22.434 38.2993 22.5033 38.6221 22.5033 39.0264V42.3806H21.6845V41.6915H21.6435C21.4769 42.0229 20.9901 42.5 20.0605 42.5C19.0433 42.4998 18.2429 41.9243 18.2427 40.9359C18.2427 40.6443 18.3027 40.4071 18.423 40.2259C18.7851 39.674 19.5737 39.5296 20.3105 39.4375C21.2955 39.3165 21.6844 39.3451 21.6845 38.9736C21.6845 38.308 21.2525 37.9126 20.5605 37.9126C19.9826 37.9127 19.4258 38.1618 19.173 38.6819L18.3953 38.4167C18.7634 37.5963 19.6257 37.2236 20.5328 37.2236ZM21.6845 39.8221C21.4285 40.1138 20.6568 40.0651 20.2694 40.1138C19.8471 40.1664 19.4568 40.2689 19.2284 40.5048C19.1174 40.6197 19.0614 40.7763 19.0614 40.9751C19.0614 41.5671 19.6436 41.7972 20.1855 41.7973C20.8353 41.7973 21.285 41.5273 21.5109 41.1447C21.6265 40.9524 21.6845 40.7498 21.6845 40.5376V39.8221Z" fill="black"/>
<path d="M15.3809 37.2236C16.505 37.2236 17.3518 37.8598 17.4907 38.8141H16.672C16.5212 38.2543 15.9804 37.9264 15.3953 37.9263C14.2997 37.9263 13.7989 38.9176 13.7988 39.8349C13.7988 41.0191 14.429 41.7836 15.3953 41.7836C16.0335 41.7835 16.5194 41.4525 16.672 40.8958H17.4907C17.3365 41.8974 16.4013 42.4863 15.3953 42.4863C13.8443 42.4863 12.9801 41.2229 12.9801 39.8613C12.9802 38.5164 13.842 37.2237 15.3809 37.2236Z" fill="black"/>
<path fill-rule="evenodd" clip-rule="evenodd" d="M36.9951 37.2236C38.1025 37.2236 39.2852 37.8643 39.2852 39.7693V40.1001H35.4177C35.4552 41.1815 36.1134 41.7835 37.0781 41.7836C37.7321 41.7836 38.2053 41.5129 38.4111 40.9888L39.2022 41.2003C38.9536 41.9654 38.1645 42.4863 37.0781 42.4863C35.5368 42.4862 34.5943 41.3078 34.5942 39.875C34.5942 38.5256 35.4462 37.2236 36.9951 37.2236ZM36.9951 37.9263C36.1127 37.9263 35.4732 38.616 35.4196 39.4238H38.4522C38.452 38.5669 37.8888 37.9263 36.9951 37.9263Z" fill="black"/>
<path d="M26.2181 37.2236C27.2955 37.2236 28.0225 37.8401 28.0225 39.1458V42.3806H27.2038V39.1987C27.2037 38.397 26.7388 37.9264 25.9824 37.9263C25.4619 37.9263 25.0361 38.1454 24.7991 38.5625C24.6812 38.7702 24.6217 39.022 24.6217 39.3181V42.3806H23.8029V37.2901H24.594V38.0849H24.6636C24.914 37.567 25.415 37.2236 26.2181 37.2236Z" fill="black"/>
<path d="M31.7383 37.2236C32.8158 37.2236 33.5427 37.84 33.5427 39.1458V42.3806H32.724V39.1987C32.7239 38.3969 32.2591 37.9263 31.5026 37.9263C30.723 37.9263 30.1418 38.4274 30.1418 39.3181V42.3806H29.3231V37.2901H30.1142V38.0849H30.1838C30.4341 37.567 30.9354 37.2236 31.7383 37.2236Z" fill="black"/>
<path d="M43 37.2236V38.0193C42.9447 38.0061 42.72 37.9655 42.5009 37.9655C41.9864 37.9655 41.5657 38.1813 41.3282 38.5461C41.2126 38.725 41.1546 38.929 41.1545 39.1586V42.3806H40.3358V37.2901H41.1269V38.0585H41.1822C41.3911 37.5172 41.9852 37.21 42.5696 37.2099C42.6897 37.2099 42.9074 37.2148 43 37.2236Z" fill="black"/>
</svg>
