<svg width="50" height="50" viewBox="0 0 50 50" fill="none" xmlns="http://www.w3.org/2000/svg">
<path d="M25 44C35.4934 44 44 35.4934 44 25C44 14.5066 35.4934 6 25 6C14.5066 6 6 14.5066 6 25C6 35.4934 14.5066 44 25 44Z" fill="url(#paint0_radial_9176_13696)"/>
<path d="M32.9621 31.5542V24.448C32.9621 21.8682 31.6253 20.3673 29.4208 20.3673C27.4038 20.3673 25.6449 21.9152 25.6449 24.5888V31.5542H24.4957V24.3776C24.4957 21.8913 23.1355 20.3672 21.0012 20.3672C18.867 20.3672 17.1785 22.2434 17.1785 24.659V31.554H16.0293V19.5932H17.1785V21.7275C17.9524 20.4845 19.0313 19.3118 21.1654 19.3118C23.2527 19.3118 24.5424 20.5079 25.1994 21.8916C25.9733 20.5548 27.2632 19.3118 29.5147 19.3118C32.3524 19.3118 34.1114 21.3053 34.1114 24.3072V31.5541L32.9621 31.5542Z" fill="white"/>
<defs>
<radialGradient id="paint0_radial_9176_13696" cx="0" cy="0" r="1" gradientUnits="userSpaceOnUse" gradientTransform="translate(1602 462) scale(2812)">
<stop stop-color="#08C5A3"/>
<stop offset="1" stop-color="#08A9C5"/>
</radialGradient>
</defs>
</svg>
