<svg width="50" height="50" viewBox="0 0 50 50" fill="none" xmlns="http://www.w3.org/2000/svg">
<path d="M11.877 35.4227C11.1046 35.4244 10.3457 35.2211 9.67766 34.8334C9.00964 34.4458 8.45649 33.8878 8.07472 33.2164C7.6988 32.5497 7.51132 31.7933 7.53236 31.0283C7.5534 30.2632 7.78217 29.5183 8.19417 28.8733L16.0243 16.5773C16.4251 15.9165 16.9941 15.3738 17.6731 15.0048C18.3522 14.6359 19.1171 14.4537 19.8896 14.4771C20.6615 14.4956 21.4147 14.7188 22.072 15.124C22.7293 15.5292 23.2671 16.1017 23.6305 16.783C24.3604 18.1632 24.2692 19.8238 23.3949 21.1194L15.5698 33.4154C15.1729 34.0338 14.6264 34.542 13.9809 34.8929C13.3354 35.2438 12.6117 35.426 11.877 35.4227Z" fill="#F62B54"/>
<path d="M25.3078 35.4225C23.7285 35.4225 22.2753 34.5781 21.5122 33.2211C21.1371 32.5563 20.9501 31.8019 20.9711 31.0388C20.9922 30.2758 21.2205 29.5328 21.6317 28.8897L29.4469 16.6219C29.8417 15.9518 30.4087 15.3995 31.0889 15.0223C31.7692 14.6451 32.5379 14.4568 33.3155 14.4769C34.9081 14.5117 36.3513 15.4026 37.0813 16.7961C37.8062 18.1896 37.7 19.8601 36.7992 21.1524L28.9857 33.4202C28.5901 34.0359 28.0458 34.5421 27.403 34.8921C26.7603 35.242 26.0397 35.4244 25.3078 35.4225Z" fill="#FFCC00"/>
<path d="M38.4382 35.5251C40.6646 35.5251 42.4694 33.7582 42.4694 31.5785C42.4694 29.3989 40.6646 27.6319 38.4382 27.6319C36.2119 27.6319 34.407 29.3989 34.407 31.5785C34.407 33.7582 36.2119 35.5251 38.4382 35.5251Z" fill="#00CA72"/>
</svg>
