<svg width="50" height="50" viewBox="0 0 50 50" fill="none" xmlns="http://www.w3.org/2000/svg">
<path d="M24.3752 5.10876L25.4427 7.11376C25.6827 7.48376 25.9427 7.81126 26.2489 8.11626C27.1427 9.01001 27.9914 9.94626 28.7539 10.9488C30.5627 13.3238 31.7827 15.9613 32.6539 18.8138C33.1764 20.5563 33.4602 22.3438 33.4814 24.1513C33.5689 29.555 31.7164 34.195 27.9814 38.0513C27.3714 38.6613 26.7189 39.2263 26.0189 39.7288C25.6489 39.7288 25.4739 39.445 25.3214 39.1838C25.0377 38.705 24.8639 38.1588 24.7764 37.615C24.6452 36.9613 24.5589 36.3075 24.6014 35.6325V35.3275C24.5714 35.2625 24.2452 5.26251 24.3752 5.10876Z" fill="#599636"/>
<path d="M24.375 5.04252C24.3312 4.95502 24.2875 5.02127 24.2437 5.06377C24.265 5.50127 24.1125 5.89127 23.8737 6.26377C23.6112 6.63377 23.2637 6.91752 22.915 7.22252C20.9775 8.90002 19.4525 10.9263 18.2312 13.1925C16.6062 16.2425 15.7687 19.5113 15.5312 22.9525C15.4225 24.1938 15.9237 28.5738 16.315 29.8375C17.3825 33.1925 19.3 36.0038 21.7837 38.4438C22.3937 39.0313 23.0462 39.5763 23.7212 40.1C23.9175 40.1 23.9387 39.925 23.9837 39.795C24.0698 39.5168 24.1353 39.2327 24.18 38.945L24.6175 35.6775L24.375 5.04252Z" fill="#6CAC48"/>
<path d="M25.4424 41.0564C25.4862 40.5564 25.7262 40.1414 25.9874 39.7277C25.7249 39.6189 25.5299 39.4027 25.3774 39.1614C25.2462 38.9439 25.1374 38.6827 25.0524 38.4427C24.7474 37.5277 24.6824 36.5677 24.5949 35.6327V35.0664C24.4862 35.1539 24.4637 35.8939 24.4637 36.0039C24.4001 36.9921 24.2689 37.9748 24.0712 38.9452C24.0062 39.3377 23.9624 39.7289 23.7212 40.0777C23.7212 40.1214 23.7212 40.1652 23.7424 40.2302C24.1349 41.3852 24.2424 42.5614 24.3087 43.7602V44.1977C24.3087 44.7202 24.2874 44.6102 24.7212 44.7852C24.8962 44.8502 25.0912 44.8727 25.2662 45.0027C25.3974 45.0027 25.4187 44.8939 25.4187 44.8064L25.3537 44.0877V42.0827C25.3324 41.7327 25.3974 41.3852 25.4412 41.0577L25.4424 41.0564Z" fill="#C2BFBF"/>
</svg>
