<svg width="50" height="50" viewBox="0 0 50 50" fill="none" xmlns="http://www.w3.org/2000/svg">
<path d="M24.9165 6.07647L25.6294 7.47986C25.7897 7.73884 25.9633 7.96807 26.1678 8.18156C26.7647 8.80713 27.3316 9.46245 27.8408 10.1641C29.0488 11.8265 29.8635 13.6726 30.4454 15.6692C30.7943 16.8889 30.9838 18.14 30.998 19.4052C31.0565 23.1875 29.8193 26.4352 27.3249 29.1344C26.9175 29.5614 26.4817 29.9568 26.0142 30.3086C25.7671 30.3086 25.6503 30.11 25.5484 29.9271C25.3589 29.592 25.2429 29.2096 25.1844 28.8291C25.0968 28.3715 25.0392 27.9139 25.0676 27.4414V27.2279C25.0475 27.1824 24.8297 6.18409 24.9165 6.07647Z" fill="#599636"/>
<path d="M24.9163 6.0301C24.8871 5.96886 24.8579 6.01523 24.8287 6.04497C24.8429 6.3512 24.741 6.62418 24.5816 6.88491C24.4063 7.14389 24.1742 7.3425 23.9413 7.55598C22.6473 8.73014 21.6289 10.1484 20.8133 11.7347C19.728 13.8695 19.1687 16.1574 19.0101 18.5661C18.9375 19.4349 19.2722 22.5007 19.5335 23.3852C20.2464 25.7336 21.527 27.7013 23.1858 29.4091C23.5932 29.8204 24.0289 30.2018 24.4797 30.5684C24.6108 30.5684 24.625 30.4459 24.655 30.3549C24.7125 30.1602 24.7563 29.9614 24.7861 29.76L25.0783 27.4729L24.9163 6.0301Z" fill="#6CAC48"/>
<path d="M25.6292 31.2378C25.6584 30.8879 25.8187 30.5974 25.9932 30.3078C25.8179 30.2317 25.6877 30.0803 25.5858 29.9114C25.4982 29.7592 25.4255 29.5763 25.3688 29.4084C25.1651 28.7679 25.1217 28.096 25.0632 27.4415V27.0452C24.9906 27.1064 24.9756 27.6244 24.9756 27.7014C24.9331 28.3931 24.8455 29.0809 24.7134 29.7601C24.67 30.0348 24.6408 30.3087 24.4797 30.5528C24.4797 30.5834 24.4797 30.614 24.4939 30.6595C24.756 31.4679 24.8278 32.2913 24.8721 33.1303V33.4365C24.8721 33.8023 24.8579 33.7253 25.1475 33.8478C25.2644 33.8933 25.3946 33.909 25.5115 34C25.5992 34 25.6134 33.9239 25.6134 33.8626L25.57 33.3596V31.9562C25.5558 31.7112 25.5992 31.4679 25.6284 31.2387L25.6292 31.2378Z" fill="#C2BFBF"/>
<path d="M17.9839 37.9185L15.8657 43.75H15L17.439 37.3516H17.9971L17.9839 37.9185ZM19.7593 43.75L17.6367 37.9185L17.6235 37.3516H18.1816L20.6294 43.75H19.7593ZM19.6494 41.3813V42.0757H16.0547V41.3813H19.6494Z" fill="black"/>
<path d="M23.2749 38.9951V39.6191H20.7041V38.9951H23.2749ZM21.5742 37.8394H22.3872V42.5723C22.3872 42.7334 22.4121 42.855 22.4619 42.937C22.5117 43.019 22.5762 43.0732 22.6553 43.0996C22.7344 43.126 22.8193 43.1392 22.9102 43.1392C22.9775 43.1392 23.0479 43.1333 23.1211 43.1216C23.1973 43.1069 23.2544 43.0952 23.2925 43.0864L23.2969 43.75C23.2324 43.7705 23.1475 43.7896 23.042 43.8071C22.9395 43.8276 22.8149 43.8379 22.6685 43.8379C22.4692 43.8379 22.2861 43.7983 22.1191 43.7192C21.9521 43.6401 21.8188 43.5083 21.7192 43.3237C21.6226 43.1362 21.5742 42.8843 21.5742 42.5679V37.8394Z" fill="black"/>
<path d="M25.1118 37V43.75H24.2944V37H25.1118Z" fill="black"/>
<path d="M29.2207 42.937V40.4893C29.2207 40.3018 29.1826 40.1392 29.1064 40.0015C29.0332 39.8608 28.9219 39.7524 28.7725 39.6763C28.623 39.6001 28.4385 39.562 28.2188 39.562C28.0137 39.562 27.8335 39.5972 27.6782 39.6675C27.5259 39.7378 27.4058 39.8301 27.3179 39.9443C27.2329 40.0586 27.1904 40.1816 27.1904 40.3135H26.3774C26.3774 40.1436 26.4214 39.9751 26.5093 39.8081C26.5972 39.6411 26.7231 39.4902 26.8872 39.3555C27.0542 39.2178 27.2534 39.1094 27.4849 39.0303C27.7192 38.9482 27.98 38.9072 28.2671 38.9072C28.6128 38.9072 28.9175 38.9658 29.1812 39.083C29.4478 39.2002 29.6558 39.3774 29.8052 39.6147C29.9575 39.8491 30.0337 40.1436 30.0337 40.498V42.7129C30.0337 42.8711 30.0469 43.0396 30.0732 43.2183C30.1025 43.397 30.145 43.5508 30.2007 43.6797V43.75H29.3525C29.3115 43.6562 29.2793 43.5317 29.2559 43.3765C29.2324 43.2183 29.2207 43.0718 29.2207 42.937ZM29.3613 40.8672L29.3701 41.4385H28.5483C28.3169 41.4385 28.1104 41.4575 27.9287 41.4956C27.7471 41.5308 27.5947 41.585 27.4717 41.6582C27.3486 41.7314 27.2549 41.8237 27.1904 41.9351C27.126 42.0435 27.0938 42.1709 27.0938 42.3174C27.0938 42.4668 27.1274 42.603 27.1948 42.7261C27.2622 42.8491 27.3633 42.9473 27.498 43.0205C27.6357 43.0908 27.8042 43.126 28.0034 43.126C28.2524 43.126 28.4722 43.0732 28.6626 42.9678C28.853 42.8623 29.0039 42.7334 29.1152 42.5811C29.2295 42.4287 29.291 42.2808 29.2998 42.1372L29.647 42.5283C29.6265 42.6514 29.5708 42.7876 29.48 42.937C29.3892 43.0864 29.2676 43.23 29.1152 43.3677C28.9658 43.5024 28.7871 43.6152 28.5791 43.7061C28.374 43.7939 28.1426 43.8379 27.8848 43.8379C27.5625 43.8379 27.2798 43.7749 27.0366 43.6489C26.7964 43.5229 26.6089 43.3545 26.4741 43.1436C26.3423 42.9297 26.2764 42.6909 26.2764 42.4272C26.2764 42.1724 26.3262 41.9482 26.4258 41.7549C26.5254 41.5586 26.6689 41.396 26.8564 41.2671C27.0439 41.1353 27.2695 41.0356 27.5332 40.9683C27.7969 40.9009 28.0913 40.8672 28.4165 40.8672H29.3613Z" fill="black"/>
<path d="M34.0811 42.4888C34.0811 42.3716 34.0547 42.2632 34.002 42.1636C33.9521 42.061 33.8481 41.9688 33.6899 41.8867C33.5347 41.8018 33.3003 41.7285 32.9868 41.667C32.7231 41.6113 32.4844 41.5454 32.2705 41.4692C32.0596 41.3931 31.8794 41.3008 31.73 41.1924C31.5835 41.084 31.4707 40.9565 31.3916 40.8101C31.3125 40.6636 31.2729 40.4922 31.2729 40.2959C31.2729 40.1084 31.314 39.9312 31.396 39.7642C31.481 39.5972 31.5996 39.4492 31.752 39.3203C31.9072 39.1914 32.0933 39.0903 32.3101 39.0171C32.5269 38.9438 32.7686 38.9072 33.0352 38.9072C33.416 38.9072 33.7412 38.9746 34.0107 39.1094C34.2803 39.2441 34.4868 39.4243 34.6304 39.6499C34.7739 39.8726 34.8457 40.1201 34.8457 40.3926H34.0327C34.0327 40.2607 33.9932 40.1333 33.9141 40.0103C33.8379 39.8843 33.7251 39.7803 33.5757 39.6982C33.4292 39.6162 33.249 39.5752 33.0352 39.5752C32.8096 39.5752 32.6265 39.6104 32.4858 39.6807C32.3481 39.748 32.2471 39.8345 32.1826 39.9399C32.1211 40.0454 32.0903 40.1567 32.0903 40.2739C32.0903 40.3618 32.105 40.4409 32.1343 40.5112C32.1665 40.5786 32.2222 40.6416 32.3013 40.7002C32.3804 40.7559 32.4917 40.8086 32.6353 40.8584C32.7788 40.9082 32.9619 40.958 33.1846 41.0078C33.5742 41.0957 33.895 41.2012 34.147 41.3242C34.3989 41.4473 34.5864 41.5981 34.7095 41.7769C34.8325 41.9556 34.894 42.1724 34.894 42.4272C34.894 42.6353 34.8501 42.8257 34.7622 42.9985C34.6772 43.1714 34.5527 43.3208 34.3887 43.4468C34.2275 43.5698 34.0342 43.6665 33.8086 43.7368C33.5859 43.8042 33.3354 43.8379 33.0571 43.8379C32.6382 43.8379 32.2837 43.7632 31.9937 43.6138C31.7036 43.4644 31.4839 43.271 31.3345 43.0337C31.1851 42.7964 31.1104 42.5459 31.1104 42.2822H31.9277C31.9395 42.5049 32.0039 42.6821 32.1211 42.814C32.2383 42.9429 32.3818 43.0352 32.5518 43.0908C32.7217 43.1436 32.8901 43.1699 33.0571 43.1699C33.2798 43.1699 33.4658 43.1406 33.6152 43.082C33.7676 43.0234 33.8833 42.9429 33.9624 42.8403C34.0415 42.7378 34.0811 42.6206 34.0811 42.4888Z" fill="black"/>
</svg>
