<svg width="50" height="50" viewBox="0 0 50 50" fill="none" xmlns="http://www.w3.org/2000/svg">
<path d="M42.0333 17.8894L39.0538 16.9146C37.9613 16.6457 36.8025 16.8138 35.8425 17.4188L34.2865 18.4945C34.8493 17.9231 35.2797 17.1835 35.4783 16.4104C35.5776 16.007 35.6438 15.6037 35.6769 15.2003C35.7763 14.36 35.71 13.5196 35.5114 12.7465C35.4452 12.4776 35.3459 12.2086 35.2466 11.9397C35.081 11.5028 34.8824 11.0994 34.6506 10.696L34.5182 10.5279L34.452 10.3935C34.3196 10.1918 34.1872 10.0237 34.0216 9.85566L33.823 9.62036C33.6575 9.4859 33.4588 9.35145 33.2602 9.2506C33.0616 9.11615 32.6643 8.94808 32.565 9.01531C32.4656 9.08253 32.565 9.35145 32.565 9.41867C32.6643 9.88927 32.7305 10.3599 32.7636 10.8641C32.7967 11.0994 32.7967 11.3347 32.7636 11.57V11.9734C32.7305 12.3095 32.6312 12.6456 32.5319 12.9482C32.4325 13.1498 32.3663 13.3851 32.267 13.5868C31.8366 14.4608 31.1414 15.1667 30.2806 15.6037C30.0489 15.7045 29.8503 15.8054 29.6516 15.9398C29.0226 15.4356 28.2281 15.1667 27.4335 15.2339L20.5806 15.9734C19.8191 16.0743 19.1239 16.4777 18.6273 17.0491C18.3956 16.9482 18.1638 16.881 17.9321 16.8474C17.0051 16.6121 16.1443 16.1079 15.5484 15.3684C15.416 15.1667 15.2836 14.965 15.1512 14.7969C14.9856 14.528 14.8201 14.2255 14.7208 13.8894C14.7208 13.8221 14.6546 13.6877 14.5884 13.486C14.5221 13.2507 14.4559 13.0154 14.4228 12.7801C14.3235 12.3095 14.2904 11.8389 14.2904 11.3683C14.2904 11.2675 14.2904 10.9985 14.1911 10.9649C14.0918 10.8977 13.7276 11.2002 13.5621 11.3683C13.3965 11.5028 13.231 11.6708 13.0986 11.8725C13.0324 11.9397 12.9662 12.0406 12.9331 12.1078C12.8006 12.3095 12.7013 12.5112 12.6351 12.7465C12.6351 12.7801 12.6351 12.8473 12.6351 12.8809C12.5689 12.9482 12.5027 13.0154 12.4696 13.049C12.304 13.486 12.2047 13.9566 12.1385 14.4272C12.1054 14.6961 12.0723 14.965 12.0723 15.2339C12.0723 16.0743 12.2047 16.9146 12.4696 17.7214C12.602 18.1247 12.7344 18.5281 12.9331 18.8979C13.2641 19.6374 13.7938 20.2424 14.4559 20.6794L12.7013 19.9063C11.6088 19.5029 10.417 19.6038 9.4238 20.108L6.70911 21.7551C5.81524 22.0912 5.74903 23.3349 6.60979 23.7719L8.62926 25.1837C9.62244 25.7888 10.7812 26.0241 11.9399 25.8224L13.7276 25.3854C14.489 25.2846 15.2174 24.9148 15.7471 24.377C15.8795 24.0744 15.7471 24.377 15.5484 25.1165C15.3167 26.1249 15.4822 27.1669 15.9788 28.0409L18.1307 31.9065C18.6604 32.9822 18.9253 34.1587 18.8921 35.3688L18.7928 36.7806C18.7597 37.9235 19.2894 38.9991 20.1833 39.6714L22.3352 41.1504C23.3615 41.7555 24.5202 42.058 25.6789 41.9908L27.599 41.7891C28.7578 41.621 29.8834 41.1168 30.7772 40.3101L32.5981 38.3941C33.3264 37.5201 33.6244 36.3772 33.3926 35.268L32.9953 33.9234C32.6974 32.7469 32.6974 31.5032 32.9953 30.3267L34.2865 26.0913C34.5844 25.1165 34.5182 24.0744 34.1209 23.1332C33.7237 22.4946 33.5581 22.1921 33.7568 22.461C34.4189 22.8643 35.1803 23.066 35.9418 22.9988L37.7957 23.066C38.9544 23.0324 40.0469 22.5618 40.9077 21.7551L42.5961 19.9399C43.3244 19.3348 43.0265 18.0239 42.0333 17.8894Z" fill="#152A40"/>
</svg>
