<svg width="50" height="50" viewBox="0 0 50 50" fill="none" xmlns="http://www.w3.org/2000/svg">
<path d="M18.0775 36.5309C15.9023 35.3099 14.0939 33.5809 12.8249 31.5092C11.556 29.4375 10.8689 27.0921 10.8293 24.6971C10.7897 22.3021 11.3988 19.9375 12.5987 17.8291C13.7985 15.7207 15.5488 13.939 17.6826 12.654C17.8773 12.5408 18.0166 12.359 18.0701 12.1486C18.1235 11.9382 18.0868 11.7163 17.9678 11.5315L17.902 11.4414L16.0809 9.30043C15.9489 9.1473 15.7628 9.04468 15.557 9.01156C15.3513 8.97844 15.1398 9.01706 14.9619 9.12028C12.1858 10.7717 9.90395 13.0708 8.33497 15.7974C6.76598 18.524 5.96244 21.5867 6.00135 24.6919C6.04026 27.7971 6.92031 30.8409 8.55717 33.5314C10.194 36.2219 12.5328 38.4691 15.3495 40.0577C15.4842 40.1344 15.6384 40.1751 15.7956 40.1754C15.923 40.1758 16.0488 40.1493 16.164 40.0977C16.2791 40.0462 16.3806 39.971 16.4612 39.8775L18.3116 37.7296C18.4507 37.5614 18.5148 37.3484 18.4902 37.136C18.4656 36.9236 18.3542 36.7288 18.1799 36.5932L18.0629 36.517" fill="#7EC242"/>
<path d="M35.0528 9.12028C34.8749 9.01706 34.6634 8.97844 34.4577 9.01156C34.2519 9.04468 34.0658 9.1473 33.9338 9.30043L32.0908 11.4414C31.9463 11.6096 31.8782 11.8252 31.9015 12.0409C31.9248 12.2566 32.0376 12.4547 32.2151 12.5916L32.3102 12.654C34.4439 13.939 36.1943 15.7207 37.3941 17.8291C38.5939 19.9375 39.2031 22.3021 39.1635 24.6971C39.1239 27.0921 38.4368 29.4375 37.1678 31.5092C35.8989 33.5809 34.0904 35.3099 31.9152 36.5309C31.8162 36.5835 31.729 36.6542 31.6588 36.7388C31.5886 36.8234 31.5368 36.9203 31.5062 37.0239C31.4756 37.1275 31.4669 37.2359 31.4806 37.3427C31.4944 37.4495 31.5302 37.5527 31.5861 37.6464L31.6666 37.7573L33.5169 39.9052C33.5975 39.9987 33.699 40.0739 33.8142 40.1255C33.9293 40.177 34.0552 40.2035 34.1825 40.2032C34.3397 40.2028 34.4939 40.1621 34.6286 40.0854C37.4486 38.4967 39.7909 36.2489 41.4314 33.5572C43.072 30.8655 43.9558 27.8199 43.9984 24.7119C44.041 21.604 43.2408 18.5377 41.6745 15.8066C40.1083 13.0754 37.8283 10.7708 35.0528 9.11335" fill="#7EC242"/>
</svg>
