<svg width="50" height="50" viewBox="0 0 50 50" fill="none" xmlns="http://www.w3.org/2000/svg">
<path d="M43.395 29.7766C41.3327 38.0873 33.7873 44 24.9004 44C15.9733 44 8.49282 37.7373 6.51506 29.3924C8.89321 29.3924 11.1164 29.4033 12.1486 29.4033C12.6355 29.4033 12.73 29.4117 12.7582 29.4097C13.5348 29.3714 14.5086 29.1142 15.1564 27.534L17.6251 21.0565L23.1077 34.2973C23.6007 35.3528 24.4236 35.278 24.9145 35.278H24.9608C25.9185 35.278 26.3349 34.9414 26.6991 34.2451L32.8919 21.1557L35.0045 27.0548L35.1333 27.3405C35.5799 28.3233 35.9012 29.2941 37.0066 29.4209C37.2345 29.4471 39.8806 29.4007 43.4478 29.4007C43.4478 29.4007 43.4478 29.4237 43.395 29.7766Z" fill="#3DB5E6"/>
<path d="M44 24.8819C44 24.9808 44 25.2295 43.998 25.2295H38.3002L34.9783 15.9217C34.6826 15.2295 34.2379 14.1918 32.9422 14.1918C32.1495 14.1918 31.4333 14.8485 31.0268 15.9322L25.005 29.9233L19.2086 16.0171C18.6412 14.782 18.2488 14.2011 17.1141 14.2011C16.3435 14.2011 15.7782 14.4858 15.1625 15.949L11.722 25.3677L6.00603 25.3617C6.002 25.2184 6 25.0751 6 24.9318C6 14.4618 14.4623 6 24.9004 6C35.3385 6 44 14.4118 44 24.8819Z" fill="#D8292F"/>
</svg>
