<svg width="50" height="50" viewBox="0 0 50 50" fill="none" xmlns="http://www.w3.org/2000/svg">
<path d="M17.1072 38.2155C12.4403 29.383 12.445 20.6028 17.1072 11.7846L14.0212 10.0001C11.3869 14.5605 10 19.7338 10 25C10 30.2662 11.3869 35.4396 14.0212 40L17.1072 38.2155ZM19.6186 13.2226C17.552 16.803 16.464 20.864 16.464 24.9977C16.464 29.1314 17.552 33.1923 19.6186 36.7727L21.2043 35.8662L22.7093 34.9787C19.1914 28.3009 19.1914 21.6896 22.7093 15.0167L19.6186 13.2226ZM40 24.9977C38.8084 24.3 37.6927 23.6403 36.5675 22.9948C35.8079 22.5582 35.034 22.15 34.2744 21.7134C33.2157 21.1011 32.1665 20.4794 31.1173 19.8482C30.8894 19.7105 30.7422 19.6915 30.6425 19.9858C30.5186 20.3095 30.3775 20.6263 30.22 20.935C29.7029 22.0322 29.4199 23.2251 29.3892 24.4376C29.3623 25.2762 29.4164 26.1154 29.5506 26.9435C29.7203 27.9968 30.0738 29.0121 30.595 29.9431C30.6144 30.0038 30.6489 30.0585 30.6952 30.1022C30.7416 30.1459 30.7984 30.177 30.8601 30.1927C30.9219 30.2084 30.9866 30.2081 31.0482 30.1918C31.1098 30.1755 31.1663 30.1438 31.2122 30.0997C31.9386 29.6631 32.6792 29.2454 33.4151 28.8183C34.3314 28.2867 35.2477 27.7551 36.1687 27.2331C36.9948 26.7585 37.8256 26.2838 38.6517 25.8092C39.0837 25.5719 39.4968 25.2967 39.9905 24.9977H40ZM28.3115 31.7561C25.9187 27.2441 25.9187 22.7401 28.3115 18.244L25.2208 16.4595C21.7551 22.2497 22.5716 29.4447 25.2588 33.5216L28.3115 31.7561Z" fill="#00AAD9"/>
<path d="M17.1072 38.2155L14.0256 39.9999C11.3913 35.4395 10.0044 30.2662 10.0044 25C10.0044 19.7338 11.3913 14.5604 14.0256 10L17.1116 11.7845C12.4447 20.6027 12.4403 29.383 17.1072 38.2155Z" fill="#00AAD9"/>
<path d="M19.6186 13.2226L22.7043 15.0072C19.1816 21.6517 19.1816 28.2962 22.7043 34.9692L21.1946 35.8899L19.6186 36.7727C17.552 33.1923 16.464 29.1314 16.464 24.9977C16.464 20.864 17.552 16.803 19.6186 13.2226Z" fill="#00AAD9"/>
<path d="M39.9905 24.9977C39.5158 25.2967 39.0697 25.5719 38.6282 25.8234C37.8021 26.298 36.9713 26.7727 36.1452 27.2473C35.2242 27.7693 34.3079 28.3009 33.3916 28.8325C32.6557 29.2596 31.9151 29.6773 31.1887 30.1139C31.1428 30.158 31.0864 30.1897 31.0247 30.206C30.9631 30.2223 30.8984 30.2226 30.8367 30.2069C30.7749 30.1912 30.7181 30.1601 30.6718 30.1164C30.6254 30.0727 30.5909 30.018 30.5716 29.9573C30.0504 29.0263 29.6968 28.011 29.5271 26.9577C29.3929 26.1296 29.3388 25.2904 29.3657 24.4518C29.3964 23.2393 29.6794 22.0464 30.1965 20.9492C30.354 20.6405 30.4951 20.3237 30.619 20C30.733 19.7057 30.8802 19.7247 31.0938 19.8624C32.143 20.4936 33.1922 21.1153 34.2509 21.7276C35.0106 22.1642 35.7844 22.5724 36.544 23.009C37.6834 23.6402 38.7989 24.3 39.9905 24.9977Z" fill="#00C4C5"/>
<path d="M28.301 31.7561L25.2483 33.5169C22.5612 29.44 21.7446 22.245 25.2103 16.4547L28.301 18.2393C25.9145 22.748 25.9145 27.2536 28.301 31.7561Z" fill="#00AAD9"/>
</svg>
