<svg width="50" height="50" viewBox="0 0 50 50" fill="none" xmlns="http://www.w3.org/2000/svg">
<path d="M34.0511 10.0027C34.3356 10.0558 34.6254 10.093 34.9046 10.1648C37.5795 10.8664 39.2413 12.57 39.8768 15.2569C39.9655 15.6672 40.0066 16.0863 39.9991 16.506C39.9991 22.1758 39.9991 27.8358 39.9991 33.486C39.992 35.1214 39.3717 36.6947 38.2606 37.8953C37.1496 39.0959 35.6286 39.8364 33.9979 39.9708C33.7586 39.9894 33.5193 40 33.28 40H16.5285C14.9506 39.9907 13.4289 39.4138 12.2418 38.3747C11.0548 37.3356 10.2819 35.9039 10.0646 34.3418C10.0221 34.0148 10.0008 33.6855 10.0008 33.3558C10.0008 27.7853 10.0008 22.2156 10.0008 16.6469C9.9763 15.0604 10.5289 13.519 11.556 12.3091C12.583 11.0993 14.0146 10.3033 15.5846 10.0691C15.6697 10.0532 15.7521 10.0239 15.8505 10L34.0511 10.0027ZM20.5781 32.399C17.9644 27.453 17.967 22.5363 20.5781 17.5983L18.8498 16.599C17.3744 19.1528 16.5976 22.0497 16.5976 24.9987C16.5976 27.9476 17.3744 30.8446 18.8498 33.3983L20.5781 32.399ZM21.9847 18.4036C20.8272 20.4085 20.2179 22.6826 20.2179 24.9973C20.2179 27.3121 20.8272 29.5861 21.9847 31.5911L22.8728 31.0835L23.7157 30.5865C21.7454 26.8471 21.7454 23.1449 23.7157 19.4082L21.9847 18.4036ZM33.3996 24.9973C32.7322 24.6067 32.1074 24.2372 31.4772 23.8758C31.0518 23.6313 30.6183 23.4027 30.1929 23.1582C29.6 22.8154 29.0123 22.4672 28.4247 22.1137C28.2971 22.0367 28.2146 22.026 28.1588 22.1908C28.0894 22.3721 28.0104 22.5495 27.9222 22.7224C27.6325 23.3368 27.4741 24.0047 27.4568 24.6837C27.4418 25.1533 27.4721 25.6232 27.5472 26.087C27.6423 26.6768 27.8403 27.2453 28.1322 27.7667C28.143 27.8006 28.1624 27.8313 28.1883 27.8558C28.2143 27.8802 28.2461 27.8977 28.2807 27.9064C28.3153 27.9152 28.3515 27.915 28.386 27.9059C28.4205 27.8968 28.4521 27.8791 28.4779 27.8544C28.8847 27.6099 29.2995 27.376 29.7116 27.1368C30.2248 26.8391 30.738 26.5415 31.2538 26.2491C31.7165 25.9833 32.1818 25.7176 32.6445 25.4518C32.8864 25.3189 33.1178 25.1648 33.3943 24.9973H33.3996ZM26.8533 28.7819C25.5131 26.2553 25.5131 23.7332 26.8533 21.2155L25.1223 20.2162C23.1812 23.4585 23.6386 27.4876 25.1435 29.7706L26.8533 28.7819Z" fill="#00AAD9"/>
<path d="M20.5781 32.399L18.8523 33.3983C17.3769 30.8445 16.6001 27.9476 16.6001 24.9986C16.6001 22.0497 17.3769 19.1527 18.8523 16.599L20.5806 17.5983C17.9668 22.5363 17.9644 27.453 20.5781 32.399Z" fill="#FBFDFD"/>
<path d="M21.9847 18.4036L23.7129 19.4029C21.74 23.1237 21.74 26.8444 23.7129 30.5812L22.8674 31.0968L21.9847 31.5911C20.8272 29.5861 20.2179 27.3121 20.2179 24.9973C20.2179 22.6826 20.8272 20.4085 21.9847 18.4036Z" fill="#FBFDFD"/>
<path d="M33.3943 24.9973C33.1284 25.1648 32.8786 25.3189 32.6313 25.4598C32.1687 25.7255 31.7033 25.9913 31.2407 26.2571C30.7248 26.5494 30.2117 26.8471 29.6985 27.1447C29.2863 27.3839 28.8715 27.6178 28.4647 27.8623C28.439 27.887 28.4074 27.9048 28.3729 27.9139C28.3384 27.923 28.3021 27.9232 28.2675 27.9144C28.2329 27.9056 28.2012 27.8882 28.1752 27.8637C28.1492 27.8393 28.1299 27.8086 28.1191 27.7746C27.8272 27.2533 27.6292 26.6848 27.5341 26.0949C27.4589 25.6312 27.4286 25.1613 27.4437 24.6917C27.4609 24.0127 27.6194 23.3447 27.909 22.7303C27.9972 22.5574 28.0762 22.38 28.1457 22.1988C28.2095 22.034 28.2919 22.0446 28.4115 22.1217C28.9992 22.4752 29.5868 22.8233 30.1798 23.1662C30.6052 23.4107 31.0386 23.6392 31.464 23.8837C32.1022 24.2372 32.7269 24.6067 33.3943 24.9973Z" fill="#00C4C5"/>
<path d="M26.8474 28.7819L25.1377 29.7679C23.6327 27.4849 23.1754 23.4559 25.1164 20.2135L26.8474 21.2128C25.5108 23.7376 25.5108 26.2606 26.8474 28.7819Z" fill="#FBFDFD"/>
</svg>
