<svg width="50" height="50" viewBox="0 0 50 50" fill="none" xmlns="http://www.w3.org/2000/svg">
<path d="M38.3273 32.7787L38.3274 32.7863C38.3271 32.7751 38.3266 32.7636 38.3262 32.7518C38.3265 32.7609 38.327 32.7699 38.3273 32.7787Z" fill="#D8D8D8"/>
<path fill-rule="evenodd" clip-rule="evenodd" d="M12.4907 10.2674C16.8129 5.65384 23.9621 5.12267 29.6157 7.05216C29.8643 7.13705 30.9244 7.51139 31.1095 7.49264C31.8875 7.35083 32.929 7.21867 33.6738 7.5456C34.3237 7.76305 34.7386 8.01894 35.2597 8.48139C36.2088 8.23714 37.0083 8.17236 37.8946 8.70342C38.5962 9.1165 39.1022 9.8014 39.2964 10.6008C39.3931 10.9961 39.4145 11.6875 39.2774 12.0708C39.5495 12.246 39.922 12.6776 40.1165 12.9525C40.8101 13.9543 41.1089 14.9237 40.9956 16.1615L41.0121 16.2578C42.8848 19.4086 44.0185 22.1696 43.9998 25.8955C44.0023 27.2151 43.8435 28.5299 43.5273 29.8097C43.2134 31.0931 42.7489 32.3336 42.1441 33.5048C41.8824 34.0105 41.5478 34.4935 41.3063 35.0047C41.2187 35.1905 41.5507 35.8403 41.5608 36.0994C41.655 38.4978 40.0928 39.5474 37.9293 39.3067C35.1063 41.404 32.7307 42.281 29.2139 42.1722C28.8036 42.9036 28.2557 43.4779 27.4536 43.752C26.2841 44.2698 25.041 43.8571 24.0674 43.1293C22.5925 43.9615 21.1803 44.0315 19.6354 43.3156C18.6283 42.8487 18.0365 42.3271 17.4483 41.3817C17.305 41.2549 17.1043 40.7346 17.0362 40.5469C16.5123 39.1023 16.4758 37.6935 16.4979 36.1746C16.1605 35.9056 15.9814 35.6845 15.5855 35.483C14.1057 35.7868 12.5776 35.7526 11.1125 35.3825C10.1528 35.1322 8.69496 34.5576 8.17883 33.6701C8.11724 33.5459 7.98141 33.3351 7.90561 33.2097C7.44617 32.2863 7.32001 31.5571 7.23469 30.5543C7.28299 30.1652 7.52993 30.2108 7.82709 30.2655C7.82846 29.9941 7.84306 29.588 7.80326 29.3306C7.64336 29.264 7.48839 29.1081 7.32774 29.1123C7.22639 29.1854 7.25037 29.2154 7.21989 29.3705L7.22031 28.9032C6.33844 28.1787 5.88361 27.0159 6.02564 25.8688C6.10399 25.2364 6.52473 24.2757 7.03605 23.8845C7.06005 23.8511 7.17269 23.6872 7.17125 23.6628C7.1444 23.2535 7.11202 22.7585 7.10386 22.3558C7.09466 21.6212 7.1185 20.8864 7.17534 20.154C7.30281 18.5279 7.55947 16.9663 8.1708 15.4492C8.1876 15.1737 8.80522 14.2614 8.80281 14.0808C8.79598 13.5963 8.65215 13.1459 8.76954 12.5579C8.90498 11.8446 9.32252 11.2186 9.92459 10.8262C10.6762 10.3265 11.4342 10.3107 12.2819 10.4955C12.3507 10.4188 12.4203 10.3426 12.4907 10.2674ZM17.8126 37.1679C17.966 38.7364 18.2022 40.5551 19.4932 41.6017C20.2156 42.1873 20.9144 42.2559 21.8139 42.1474C22.2028 42.1005 22.5809 42.0508 22.9417 41.8932L23.1193 41.818C23.1312 41.7858 22.9515 40.736 22.9479 40.5105C21.8276 39.8296 20.7195 39.1277 19.6246 38.4054C19.3427 38.2175 17.9948 37.2335 17.8126 37.1679ZM37.4194 14.1106C37.4291 14.5497 37.3833 16.3863 37.4476 16.6345C37.8106 17.2099 38.2768 18.1051 38.5441 18.7787L38.5949 18.9103C38.7382 19.3161 39.0059 20.3046 39.177 20.5945C39.1727 20.8008 39.4477 21.9651 39.4932 22.3285C39.7465 24.2833 39.6234 26.2696 39.1307 28.1768C38.8337 29.1621 38.541 29.9505 38.0906 30.8817C36.2427 34.3999 33.4619 36.899 29.7106 38.1655C29.5054 38.3117 29.423 38.4404 29.2975 38.661C29.2313 38.743 29.1339 38.8306 29.1574 38.9401C29.2427 39.337 29.3969 39.6328 29.5028 40.0472L30.1134 40.055L30.0705 40.0636C29.93 40.088 29.8122 40.0726 29.701 40.0777C29.6454 40.0803 29.5915 40.0881 29.537 40.1085L29.5345 40.2009C29.565 40.2422 29.5887 40.2864 29.6369 40.3022C29.6443 40.3046 29.6523 40.3064 29.661 40.3074C29.6653 40.3078 29.6699 40.3081 29.6746 40.3082C31.0535 40.3277 32.4994 40.2062 33.8523 39.8215C34.2052 39.7212 34.5518 39.6029 34.8892 39.4646C34.9455 39.4416 35.0015 39.418 35.0573 39.3938C35.1687 39.3454 35.279 39.2947 35.3881 39.2417C35.4964 39.189 35.5073 39.1702 35.6311 39.1266L35.6653 39.1149L35.6412 39.0916C35.5991 39.0945 35.5644 39.0971 35.5297 39.0977C35.5123 39.098 35.495 39.0979 35.4767 39.097C35.4583 39.0961 35.439 39.0944 35.4177 39.0919L35.3622 39.0846L35.7295 38.9527C36.0604 38.8318 36.3059 38.7265 36.6773 38.4827C36.5502 38.3141 36.0285 37.4139 35.9739 37.3742C35.9825 37.2736 35.9223 36.8135 35.9108 36.6779C35.8602 36.0117 36.0476 35.3491 36.4384 34.8115C36.8979 34.1885 37.5781 33.7715 38.3349 33.6491C38.3216 33.3944 38.3209 33.2151 38.3307 32.9601C38.3588 33.2129 38.3624 33.4234 38.3675 33.6763C38.6292 33.6232 39.2088 33.665 39.4754 33.7068C39.6295 33.7705 39.784 33.8328 39.9395 33.8936C40.125 33.6968 40.3767 33.2416 40.5102 32.9924C41.2941 31.5342 41.8286 29.9513 42.0913 28.3115C42.5143 25.5981 42.0321 22.7082 41.0591 20.17C40.8606 19.652 40.6353 18.9795 40.3185 18.5357C40.3123 18.3584 39.5584 16.9432 39.3932 16.8291L39.3859 16.8247L39.3811 16.8045C39.2574 16.3571 37.7461 14.5046 37.4194 14.1106ZM9.97859 29.585C9.96032 29.5812 9.93867 29.5866 9.92064 29.5899L9.72116 29.6096C9.48748 29.6575 9.17142 29.6485 8.92687 29.6507C8.85585 30.756 8.741 32.1602 9.51843 33.035C10.5103 34.1504 12.692 34.1286 14.0287 34.1649C13.5807 33.7005 13.095 33.2783 12.6434 32.8184C11.9367 32.099 11.2925 31.344 10.667 30.5517C10.541 30.392 10.0873 29.6079 9.97859 29.585ZM28.1874 8.23044C23.5623 7.22395 18.1205 7.45119 14.3251 10.6448C14.1306 10.8085 13.6799 11.2107 13.5368 11.3955L13.5152 11.4724C13.7461 11.4474 14.4733 11.374 14.6653 11.4226C14.7257 11.5444 14.6493 11.6136 14.6588 11.688C14.6749 11.8134 14.8104 11.9075 14.7993 12.054C14.4531 12.511 14.767 12.4214 14.6529 12.7918C14.534 12.8727 14.3183 12.8609 14.1825 12.8361C14.1622 12.7246 14.1482 12.6024 14.0984 12.5027C14.0011 12.6269 14.0524 13.258 14.0911 13.4837L14.0987 13.5232C13.9534 14.9125 12.6869 15.9161 11.3389 15.8805C11.1929 15.8766 10.9738 15.8819 10.8367 15.8531C10.6895 16.7227 10.6257 21.847 10.8555 22.4865L10.9247 22.5491C10.9291 22.4907 10.9347 22.4323 10.9412 22.3741C11.355 18.7124 13.3747 15.3032 16.1747 12.9925L16.3086 12.8833C16.8488 12.4591 17.3851 12.0639 17.9903 11.7388C18.188 11.6327 18.3475 11.5454 18.5319 11.4153C21.4385 10.0133 23.6288 9.58807 26.8594 9.8565C27.3492 9.95786 27.878 10.0108 28.4024 10.1103L28.5073 10.1308C29.5677 10.4832 30.1257 10.6012 31.1882 11.0769C31.4449 11.0009 31.6455 10.9675 31.9119 10.9449C32.2616 10.9231 33.3707 10.8453 33.5299 10.5114C33.5274 10.465 33.5294 10.3775 33.4931 10.3495C33.0711 10.0243 31.0914 9.08932 30.606 8.96495L30.5638 8.95551L30.5449 8.94405C30.3158 8.81827 29.0402 8.47774 28.7691 8.4048C28.6206 8.29688 28.3698 8.27011 28.1874 8.23044Z" fill="#D8D8D8"/>
<path d="M17.4483 41.398C17.5888 41.4171 17.877 41.748 18.0393 41.8638C19.6358 43.0032 21.5268 43.5059 23.3529 42.5879C23.401 42.5637 23.4388 42.4916 23.4613 42.4425C23.4668 42.3531 23.4505 42.3453 23.4025 42.2695C23.6737 42.2454 24.1007 43.1556 24.3689 43.3224C24.981 43.7024 25.7642 43.9684 26.4909 43.9457C26.7499 43.9277 27.2738 43.7335 27.4537 43.7683C26.2841 44.2862 25.0409 43.8736 24.0674 43.1458C22.5924 43.978 21.1804 44.0479 19.6355 43.3319C18.6283 42.865 18.0365 42.3435 17.4483 41.398Z" fill="#888787"/>
<path d="M23.8346 41.4182C24.4454 41.4446 25.0565 41.4663 25.6676 41.4828C25.7018 41.5235 25.7696 41.6023 25.7944 41.6444C26.0515 42.0827 26.0599 43.2568 25.6207 43.558C25.4463 43.587 25.2847 43.4855 25.1282 43.418L25.0974 43.4049C24.3649 43.049 24.2265 42.8045 23.7757 42.169L23.7102 42.231C23.5726 42.1533 23.2716 41.6102 23.5402 41.4537C23.6523 41.453 23.6509 41.4329 23.72 41.4886C23.6086 41.5414 23.5859 41.5472 23.4953 41.6278L23.5416 41.7367C23.6927 41.6993 23.7832 41.5567 23.8346 41.4182Z" fill="#888787"/>
<path d="M35.9738 37.3908C36.028 37.4296 36.5503 38.3308 36.6773 38.4993C36.1822 38.8244 35.9107 38.9033 35.3621 39.1012L35.4177 39.1085C35.5025 39.1187 35.557 39.1139 35.6411 39.108L35.6654 39.1315L35.631 39.1432C35.5072 39.1868 35.4964 39.2056 35.3882 39.2583C33.6414 40.106 31.593 40.3518 29.6746 40.3247C29.5991 40.3236 29.5721 40.2682 29.5346 40.2173L29.537 40.125C29.7112 40.0597 29.8808 40.1242 30.1133 40.0714L29.5028 40.0638C29.3969 39.6494 29.2426 39.3536 29.1573 38.9567C29.1337 38.8471 29.2312 38.7595 29.2974 38.6774C31.8451 38.6591 33.589 38.4454 35.9738 37.3908Z" fill="#888787"/>
<path d="M39.1308 28.1933C39.504 28.9183 39.5076 32.7482 39.4755 33.7231C39.2088 33.6813 38.629 33.6396 38.3674 33.6927C38.3623 33.4399 38.3587 33.2295 38.3306 32.9767C38.3335 32.615 38.2408 31.1823 38.0906 30.8981C38.541 29.9669 38.8338 29.1786 39.1308 28.1933Z" fill="#888787"/>
<path d="M7.32774 29.1123C7.48839 29.1081 7.64336 29.264 7.80326 29.3306C7.84306 29.588 7.82846 29.9941 7.82709 30.2655C7.52993 30.2108 7.28299 30.1652 7.23469 30.5543C7.19399 30.2172 7.21141 29.7104 7.21989 29.3705C7.25037 29.2154 7.22639 29.1854 7.32774 29.1123Z" fill="#888787"/>
<path d="M8.18171 26.8587C8.90411 26.4584 11.1468 26.4268 11.81 26.9232L11.7977 26.967C11.6774 26.9774 11.5823 26.9824 11.4632 27.011C11.1936 27.1142 10.298 27.1227 10.0174 27.0598C9.50897 26.9458 9.47527 27.0938 9.06255 27.1016C9.13075 27.0776 9.10129 27.0973 9.15053 27.0416L9.11091 26.959C8.80082 26.9294 8.49101 26.8958 8.18171 26.8587Z" fill="#888787"/>
<path d="M9.93705 15.4225C10.1932 15.5921 10.7819 15.8047 10.8367 15.8531C10.6895 16.7227 10.6257 21.847 10.8555 22.4865L10.9247 22.5491C10.9303 22.6507 10.9101 22.8192 10.9421 22.8968C10.7977 23.0668 10.6829 23.1646 10.4989 23.2919C10.4028 23.2335 10.2571 23.1519 10.1721 23.0859L10.1332 23.0774C9.80796 23.0116 9.4807 23.0098 9.14912 22.9914C9.01417 20.4579 8.97714 17.7969 9.93705 15.4225Z" fill="#888787"/>
<path d="M39.2774 12.0708C39.5495 12.246 39.922 12.6776 40.1165 12.9525C39.8317 13.0968 39.0961 12.8607 38.9539 13.1168C38.9542 13.1176 38.9561 13.1203 38.9589 13.1249C39.1125 12.8825 39.8348 13.1117 40.1164 12.9689C40.808 13.9678 41.1069 14.9342 40.9964 16.1668L41.0121 16.2578L40.9754 16.275C40.9245 16.2255 40.527 15.6261 40.5076 15.5724C40.3755 15.2011 38.8013 13.194 38.7602 13.0031C38.8933 12.837 38.9189 12.966 39.0131 12.6435C39.0607 12.4803 39.1846 12.208 39.2774 12.0708Z" fill="#888787"/>
<path d="M13.5368 11.3955C14.1197 11.3895 14.733 11.2988 15.3178 11.3212C15.4629 11.3682 15.6912 11.3571 15.7759 11.4143C15.7976 11.5469 15.8014 11.6078 15.853 11.7296C16.0229 11.8165 16.1912 11.7199 16.3343 11.8001C16.2677 11.8204 16.2209 11.8343 16.1553 11.86C16.1938 11.9345 16.2032 11.9933 16.2751 12.0075C16.4457 12.0411 16.8512 12.0013 16.9985 12.0423C16.5614 12.0759 16.0192 12.0679 15.5734 12.0726C15.6445 12.0839 15.7089 12.0945 15.7797 12.1094C15.8711 12.4067 15.5786 12.753 16.1505 12.8351C15.4899 12.8806 14.7916 12.8737 14.1185 12.9094C14.1256 13.1378 14.1158 13.2942 14.0987 13.5232C14.0599 13.3445 13.9946 12.6351 14.0984 12.5027C14.1482 12.6024 14.1622 12.7246 14.1825 12.8361C14.3183 12.8609 14.534 12.8727 14.6529 12.7918C14.767 12.4214 14.4531 12.511 14.7993 12.054C14.8104 11.9075 14.6749 11.8134 14.6588 11.688C14.6493 11.6136 14.7257 11.5444 14.6653 11.4226C14.4733 11.374 13.7461 11.4474 13.5152 11.4724L13.5368 11.3955Z" fill="#888787"/>
<path d="M32.5727 7.34246C32.9652 7.34739 33.3479 7.40257 33.6738 7.5456C34.3237 7.76305 34.7386 8.01894 35.2597 8.48139C35.0655 8.66418 34.7103 8.80542 34.4483 9.03681C33.5031 8.6271 32.6044 8.11864 31.6094 7.7576C31.4401 7.70384 31.2251 7.62922 31.1095 7.49264C31.4985 7.42172 31.9533 7.3532 32.4041 7.34332C32.4604 7.34209 32.5166 7.34176 32.5727 7.34246Z" fill="#888787"/>
<path d="M31.9119 10.9449L31.9606 10.9935C32.6048 10.9148 33.5533 10.7205 34.1224 10.7147C34.6093 10.7097 35.1481 12.1076 34.5732 12.5168C34.1982 12.7837 33.9456 12.6061 33.7399 12.7837L33.7792 12.8023C34.0809 13.3564 34.8576 14.1264 35.5047 14.1971C35.6148 14.9842 35.4275 17.3188 35.338 18.145C34.5411 25.0933 31.941 31.702 27.8033 37.2948C27.7289 37.3955 27.6533 37.4948 27.5766 37.5934C26.2404 36.9613 24.6419 37.4113 23.7019 38.5345C23.145 38.3505 21.9987 37.7345 21.4632 37.4377C17.5793 35.2869 14.287 32.1836 11.8862 28.4105C11.8551 28.3019 11.5781 27.8628 11.476 27.7557C10.7912 27.5403 9.96297 27.6569 9.7174 28.4663C9.66803 28.6289 9.65432 28.7411 9.68081 28.9117C9.80684 29.0194 9.927 29.431 9.92064 29.5899L9.72116 29.6096C9.33711 29.5778 9.12014 29.6337 8.67326 29.5482C8.43185 29.502 7.97033 29.3338 7.80326 29.3306C7.64336 29.264 7.48839 29.1081 7.32774 29.1123C7.22639 29.1854 7.25037 29.2154 7.21989 29.3705L7.22031 28.9032C6.33844 28.1787 5.88361 27.0159 6.02564 25.8688C6.10399 25.2364 6.52473 24.2757 7.03605 23.8845C7.11281 23.8477 7.36049 23.6466 7.4771 23.5712C7.92008 23.2846 8.6245 23.0472 9.14912 22.9914C9.4807 23.0098 9.80796 23.0116 10.1332 23.0774L10.1721 23.0859C10.2571 23.1519 10.4028 23.2335 10.4989 23.2919C10.6829 23.1646 10.7977 23.0668 10.9421 22.8968C11.9205 21.9392 12.8731 21.0301 13.9135 20.139C18.4263 16.2738 24.4387 12.6176 30.2505 11.3162C30.4509 11.2656 31.0434 11.1518 31.1882 11.0769C31.4449 11.0009 31.6455 10.9675 31.9119 10.9449Z" fill="url(#paint0_radial_12932_1709)"/>
<path d="M10.9421 22.8968C11.9205 21.9392 12.8731 21.0301 13.9135 20.139C18.4263 16.2738 24.4387 12.6176 30.2505 11.3162C29.0576 11.9602 28.0838 12.6127 27.546 13.94C27.5038 14.0441 27.4385 14.2331 27.3855 14.318L27.3961 14.3404L27.371 14.3533C27.0407 14.5181 26.4064 14.7364 26.0402 14.8839C25.2818 15.1945 24.533 15.5288 23.795 15.8865C20.1416 17.7232 16.7634 20.0771 13.7615 22.8779C13.2432 23.3637 12.5462 24.0245 12.0818 24.5435C12.7907 25.8048 12.7783 27.2394 11.8862 28.4105C11.8551 28.3019 11.5781 27.8628 11.476 27.7557C10.7912 27.5403 9.96297 27.6569 9.7174 28.4663C9.66803 28.6289 9.65432 28.7411 9.68081 28.9117C9.80684 29.0194 9.927 29.431 9.92064 29.5899L9.72116 29.6096C9.33711 29.5778 9.12014 29.6337 8.67326 29.5482C8.43185 29.502 7.97033 29.3338 7.80326 29.3306C7.64336 29.264 7.48839 29.1081 7.32774 29.1123C7.22639 29.1854 7.25037 29.2154 7.21989 29.3705L7.22031 28.9032C6.33844 28.1787 5.88361 27.0159 6.02564 25.8688C6.10399 25.2364 6.52473 24.2757 7.03605 23.8845C7.11281 23.8477 7.36049 23.6466 7.4771 23.5712C7.92008 23.2846 8.6245 23.0472 9.14912 22.9914C9.4807 23.0098 9.80796 23.0116 10.1332 23.0774L10.1721 23.0859C10.2571 23.1519 10.4028 23.2335 10.4989 23.2919C10.6829 23.1646 10.7977 23.0668 10.9421 22.8968Z" fill="#D5D3D4"/>
<path d="M9.68081 28.9117C9.56748 28.9975 9.49371 29.0246 9.36476 28.9596L9.37126 28.9203L9.43431 28.9012C8.8012 28.9003 8.41683 28.5948 8.04221 28.0951C7.82065 27.7995 7.53636 27.3329 7.93253 27.0589L7.9317 27.0356C7.78856 27.0382 7.77903 27.0657 7.70267 26.9947C7.79199 26.9097 8.0498 26.8803 8.18171 26.8587C8.49101 26.8958 8.80082 26.9294 9.11091 26.959L9.15053 27.0416C9.10129 27.0973 9.13075 27.0776 9.06255 27.1016C9.47527 27.0938 9.50897 26.9458 10.0174 27.0598C10.298 27.1227 11.1936 27.1142 11.4632 27.011C11.6814 27.3006 11.6276 27.3924 11.5126 27.7288L11.476 27.7557C10.7912 27.5403 9.96297 27.6569 9.7174 28.4663C9.66803 28.6289 9.65432 28.7411 9.68081 28.9117Z" fill="#717070"/>
<path d="M9.29911 23.8989C9.36115 23.8729 9.92789 23.9123 10.0893 23.8972C10.3885 24.4183 10.643 24.6406 11.1512 24.9472C11.2621 25.0141 11.4984 25.1567 11.5888 25.2429C11.5035 25.2218 11.5349 25.22 11.4526 25.2333C11.4874 25.8453 11.8148 25.8675 11.1093 26.2139C11.2024 26.2982 11.2923 26.1894 11.4479 26.2832C11.3055 26.3874 10.3634 26.4904 10.1476 26.5086C9.60314 26.5344 8.65536 26.5521 8.18498 26.2781C8.28099 26.2718 8.41355 26.3 8.51164 26.3161L8.53005 26.2754C8.49807 26.2542 8.47963 26.2391 8.4417 26.2322C7.57833 26.0742 7.63896 25.8675 7.95743 25.1243C8.20187 24.5539 8.61919 23.9225 9.29911 23.8989Z" fill="white"/>
<path d="M24.5567 14.7132L24.5849 14.713C24.5138 14.8894 23.858 15.1126 23.6526 15.2169C22.9288 15.5861 22.2131 15.9713 21.506 16.3723C18.8081 17.9129 16.2796 19.741 13.9631 21.8255C13.246 22.4656 12.611 23.0169 11.9816 23.7493L11.9371 23.7239L11.9487 23.6491C12.1767 23.3339 13.2957 22.3167 13.6305 22.0085C15.9302 19.897 18.4479 18.0441 21.1397 16.4817C22.2815 15.8314 23.3904 15.3061 24.5567 14.7132Z" fill="#706F74"/>
<path d="M31.9119 10.9449L31.9606 10.9935C32.6048 10.9148 33.5533 10.7205 34.1224 10.7147C34.6093 10.7097 35.1481 12.1076 34.5732 12.5168C34.1982 12.7837 33.9456 12.6061 33.7399 12.7837C31.863 13.1039 30.0731 13.4076 28.2666 14.0594C28.0019 14.1549 27.667 14.2679 27.3961 14.3404L27.3855 14.318C27.4385 14.2331 27.5038 14.0441 27.546 13.94C28.0838 12.6127 29.0576 11.9602 30.2505 11.3162C30.4509 11.2656 31.0434 11.1518 31.1882 11.0769C31.4449 11.0009 31.6455 10.9675 31.9119 10.9449Z" fill="white"/>
<path d="M26.8594 9.8565C27.3819 9.96465 27.9486 10.0176 28.5073 10.1308C29.5677 10.4832 30.1257 10.6012 31.1882 11.0769C31.0434 11.1518 30.4509 11.2656 30.2505 11.3162C24.4387 12.6176 18.4263 16.2738 13.9135 20.139C12.8731 21.0301 11.9205 21.9392 10.9421 22.8968C11.907 13.5552 19.7394 9.26489 26.8594 9.8565Z" fill="#84110F"/>
<path d="M15.3178 11.3212C16.1151 11.2762 17.7476 11.2813 18.5319 11.4153C18.3475 11.5454 18.188 11.6327 17.9903 11.7388C17.3851 12.0639 16.8488 12.4591 16.3086 12.8833L16.1505 12.8351C15.4899 12.8806 14.7916 12.8737 14.1185 12.9094C14.1256 13.1378 14.1158 13.2942 14.0987 13.5232C14.0599 13.3445 13.9946 12.6351 14.0984 12.5027C14.1482 12.6024 14.1622 12.7246 14.1825 12.8361C14.3183 12.8609 14.534 12.8727 14.6529 12.7918C14.767 12.4214 14.4531 12.511 14.7993 12.054C14.8104 11.9075 14.6749 11.8134 14.6588 11.688C14.6493 11.6136 14.7257 11.5444 14.6653 11.4226C14.4733 11.374 13.7461 11.4474 13.5152 11.4724L13.5368 11.3955C14.1197 11.3895 14.733 11.2988 15.3178 11.3212Z" fill="#7A797A"/>
<path d="M28.7691 8.4048C29.0486 8.48 30.3993 8.84047 30.5638 8.95551C29.8562 9.25422 29.1116 9.64943 28.5073 10.1308C27.9486 10.0176 27.3819 9.96465 26.8594 9.8565C27.3961 9.30636 28.1048 8.78087 28.7691 8.4048Z" fill="#6A6969"/>
<path d="M10.1332 23.0774C10.0231 22.9325 9.95658 21.4839 10.0371 21.2768L10.0516 21.3113L10.0269 21.321L10.0608 21.3669C10.0788 21.6364 10.2082 22.953 10.1721 23.0859L10.1332 23.0774Z" fill="#706F74"/>
<path d="M34.8623 12.0792C35.7805 11.9313 35.7978 12.4486 35.7808 13.2192C35.4943 13.5588 35.4625 13.7482 35.5047 14.1971C34.8576 14.1264 34.0809 13.3564 33.7792 12.8023C34.0578 12.7644 34.291 12.7364 34.5653 12.665L34.7154 12.457C34.7714 12.3304 34.8147 12.2088 34.8623 12.0792Z" fill="#ACA9A7"/>
<path d="M34.7154 12.457C34.8071 12.4409 34.8832 12.4273 34.9717 12.3945C35.5249 12.1894 35.539 13.0597 35.4008 13.3725L35.343 13.4192C35.1478 13.3695 35.1463 13.2185 35.0153 13.1162C34.8785 13.0094 34.5992 12.8525 34.5653 12.665L34.7154 12.457Z" fill="#706F74"/>
<path d="M34.8623 12.0792C34.9431 11.7219 34.8663 11.5461 34.7851 11.2037C34.8757 11.321 34.8879 11.5068 34.9334 11.4923C35.2647 11.3859 35.7523 11.2996 36.0753 11.216C36.0342 11.1492 36.0371 11.1706 35.9526 11.1222C36.2738 10.7278 36.6582 11.4165 36.6235 11.8285L36.5416 11.8817C36.5088 11.8309 36.4774 11.7852 36.4326 11.7449L36.4276 11.7802C36.3821 12.0721 36.2056 12.5143 36.3005 12.7399C36.3778 12.8001 36.4012 12.7947 36.4969 12.8031C36.097 12.914 36.0775 12.9168 35.7808 13.2192C35.7978 12.4486 35.7805 11.9313 34.8623 12.0792Z" fill="#9A9999"/>
<path d="M7.23469 30.5543C7.28299 30.1652 7.52993 30.2108 7.82709 30.2655C7.84968 31.0438 7.89969 31.7837 8.03907 32.5493C8.07317 32.737 8.11984 32.9814 8.13168 33.1654C8.0831 33.1657 8.03827 33.1599 7.99063 33.1503L7.90561 33.2097C7.44617 32.2863 7.32001 31.5571 7.23469 30.5543Z" fill="#717070"/>
<path d="M8.13168 33.1654C8.16528 33.2933 8.24867 33.5591 8.17883 33.6701C8.11724 33.5459 7.98141 33.3351 7.90561 33.2097L7.99063 33.1503C8.03827 33.1599 8.0831 33.1657 8.13168 33.1654Z" fill="#9A9999"/>
<path d="M37.4476 16.6345C37.8348 17.2482 38.3394 18.2257 38.5949 18.9103C43.3784 32.8317 30.0969 38.1655 29.7106 38.1655C29.7201 38.0559 31.1299 35.9678 31.3126 35.6709C33.9308 31.4628 35.7797 26.8094 36.7697 21.9345C36.9841 20.846 37.1494 19.7483 37.2656 18.6445C37.3021 18.2784 37.3494 16.9229 37.4476 16.6345Z" fill="#84110F"/>
<path d="M39.3859 16.8247C39.5342 16.8977 40.3124 18.3558 40.3185 18.5357C40.0911 19.0647 39.5487 20.1717 39.177 20.5945C39.0059 20.3046 38.7382 19.3161 38.5949 18.9103C39.0081 18.2835 39.2784 17.571 39.3859 16.8247Z" fill="#525151"/>
<path d="M34.4707 38.9208L34.5267 38.9417C34.3469 39.1707 31.8794 39.546 31.4704 39.5859C31.0837 39.6266 30.6946 39.6394 30.306 39.6244L30.2272 39.6042C30.3291 39.5529 31.4066 39.5053 31.6446 39.4796C32.6001 39.3734 33.5453 39.1865 34.4707 38.9208Z" fill="#706F74"/>
<path d="M42.366 22.3031C42.4172 22.3526 42.4161 22.3478 42.4331 22.4175C43.365 26.2213 43.3162 30.2089 41.3814 33.6946C41.1937 34.0324 40.9346 34.5763 40.6657 34.8599C40.6199 34.8651 40.626 34.8581 40.5759 34.8379L40.5491 34.7562C40.6 34.499 41.1807 33.7297 41.381 33.3347C42.4028 31.3128 42.9257 29.069 42.9048 26.7964C42.8965 25.8469 42.8232 24.9692 42.6413 24.0376C42.5666 23.6544 42.201 22.5942 42.366 22.3031Z" fill="#9A9999"/>
<path d="M23.0145 7.0475C23.4636 6.99707 24.2248 7.0663 24.6744 7.09617C26.8231 7.23894 29.0155 7.65584 31.0238 8.45855C31.297 8.56772 31.7582 8.68759 31.9821 8.83048L31.9736 8.87138C31.8804 8.8727 31.3565 8.6261 31.2247 8.57527C28.1746 7.39913 24.5241 6.9111 21.2822 7.26525C21.0908 7.25921 20.3147 7.38143 20.1099 7.41723C18.3201 7.7303 16.525 8.32739 15.0013 9.34944C14.6791 9.56551 14.4009 9.78814 14.0887 10.0185C13.9412 10.1273 13.8381 10.293 13.6772 10.3589L13.6645 10.3222C13.9187 10.0419 14.5218 9.60175 14.838 9.38073C17.3442 7.62938 20.0551 7.18408 23.0145 7.0475Z" fill="#706F74"/>
<path d="M11.5611 30.6136L11.6212 30.6073C11.7428 30.722 12.1042 31.1899 12.272 31.3748C12.7875 31.9373 13.3198 32.4837 13.8683 33.0129C14.3423 33.4747 14.8342 33.9075 15.3385 34.3326C17.6005 36.2397 20.0291 37.9214 22.5279 39.4895C22.5798 39.5222 22.6003 39.5595 22.6318 39.6097C22.1468 39.3701 21.1552 38.6947 20.674 38.378C17.7589 36.4592 14.8955 34.3293 12.5032 31.7586C12.2853 31.5245 11.7026 30.8803 11.5611 30.6136Z" fill="#9A9999"/>
<path d="M33.5915 29.2417L33.6128 29.3116C33.3609 30.0621 32.9679 30.914 32.6272 31.627C31.8157 33.3112 30.9004 34.9417 29.8868 36.5087C29.4732 37.1511 29.0107 37.7946 28.5851 38.4418C28.5196 38.2762 29.2436 37.3274 29.3879 37.1119C30.6987 35.1527 31.8623 33.0723 32.8517 30.9281C33.0556 30.4858 33.4497 29.681 33.5915 29.2417Z" fill="#706F74"/>
<path d="M38.8641 13.914C39.4996 14.2341 41.9798 18.6756 42.0693 19.5198C41.9993 19.2865 41.7095 18.8426 41.6063 18.593C41.0472 17.2404 40.2435 16.0203 39.4444 14.8048C39.2665 14.5344 38.9052 14.2735 38.8641 13.914Z" fill="white"/>
<path d="M17.3745 37.08C17.4252 37.1405 17.4469 37.74 17.458 37.865C17.5193 38.5481 17.6172 39.2359 17.8076 39.8956C17.9535 40.4156 18.1866 40.9059 18.4968 41.3457C19.2328 42.3685 20.3202 42.7947 21.5342 42.499C21.7554 42.4451 22.2511 42.3099 22.4581 42.3652C22.3681 42.3747 22.189 42.4403 22.084 42.466C21.6696 42.5668 21.2544 42.6965 20.8241 42.6943C20.0439 42.6947 19.2971 42.3733 18.7544 41.8038C17.6622 40.6648 17.3597 38.6177 17.3745 37.08Z" fill="#9A9999"/>
<path d="M9.20719 15.3365C9.20394 15.3208 8.70718 17.077 8.66095 17.361C8.52554 18.1665 8.44271 18.9801 8.41304 19.7966C8.39514 20.187 8.40745 22.6695 8.35209 22.7723C8.36104 22.2791 8.26915 21.6395 8.26882 21.126C8.26774 19.4739 8.42322 16.8346 9.20719 15.3365Z" fill="#9A9999"/>
<path d="M10.1315 34.1552C10.387 34.1691 10.9258 34.3923 11.2151 34.4784C11.5036 34.5642 11.8063 34.5763 12.0165 34.6243C12.4811 34.7309 14.4094 34.6056 14.7024 34.7324L14.7105 34.8094C13.3685 34.8398 12.2205 34.9204 10.9054 34.5382C10.7009 34.4788 10.2414 34.348 10.1315 34.1552Z" fill="white"/>
<defs>
<radialGradient id="paint0_radial_12932_1709" cx="0" cy="0" r="1" gradientTransform="matrix(-9.31146 12.4599 -13.2296 -10.1936 28.0036 21.471)" gradientUnits="userSpaceOnUse">
<stop stop-color="#CB1524"/>
<stop offset="1" stop-color="#7D120C"/>
</radialGradient>
</defs>
</svg>
