<svg width="50" height="50" viewBox="0 0 50 50" fill="none" xmlns="http://www.w3.org/2000/svg">
<path d="M24.4563 6H14V16.4564H24.4563V6Z" fill="#F26522"/>
<path d="M36.0001 6H25.5438V16.4564H36.0001V6Z" fill="#8DC63F"/>
<path d="M24.4563 17.5436H14V28H24.4563V17.5436Z" fill="#00AEEF"/>
<path d="M36 17.5436H25.5437V28H36V17.5436Z" fill="#FFC20E"/>
<path d="M30.2676 33.8906H31.1807L33.5098 39.6865L35.834 33.8906H36.752L33.8613 41H33.1484L30.2676 33.8906ZM29.9697 33.8906H30.7754L30.9072 38.2266V41H29.9697V33.8906ZM36.2393 33.8906H37.0449V41H36.1074V38.2266L36.2393 33.8906Z" fill="#1C1D1F"/>
<path d="M27.8213 39.2031C27.8213 39.0371 27.7952 38.8906 27.7432 38.7637C27.6943 38.6335 27.6064 38.5163 27.4795 38.4121C27.3558 38.3079 27.1833 38.2087 26.9619 38.1143C26.7438 38.0199 26.4671 37.9238 26.1318 37.8262C25.7803 37.722 25.4629 37.6064 25.1797 37.4795C24.8965 37.3493 24.654 37.2012 24.4521 37.0352C24.2503 36.8691 24.0957 36.6787 23.9883 36.4639C23.8809 36.249 23.8271 36.0033 23.8271 35.7266C23.8271 35.4499 23.8841 35.1943 23.998 34.96C24.112 34.7256 24.2747 34.5221 24.4863 34.3496C24.7012 34.1738 24.9567 34.0371 25.2529 33.9395C25.5492 33.8418 25.8796 33.793 26.2441 33.793C26.778 33.793 27.2305 33.8955 27.6016 34.1006C27.9759 34.3024 28.2607 34.5677 28.4561 34.8965C28.6514 35.222 28.749 35.5703 28.749 35.9414H27.8115C27.8115 35.6745 27.7546 35.4385 27.6406 35.2334C27.5267 35.0251 27.3542 34.8623 27.123 34.7451C26.8919 34.6247 26.599 34.5645 26.2441 34.5645C25.9089 34.5645 25.6322 34.6149 25.4141 34.7158C25.196 34.8167 25.0332 34.9535 24.9258 35.126C24.8216 35.2985 24.7695 35.4954 24.7695 35.7168C24.7695 35.8665 24.8005 36.0033 24.8623 36.127C24.9274 36.2474 25.0267 36.3597 25.1602 36.4639C25.2969 36.568 25.4694 36.6641 25.6777 36.752C25.8893 36.8398 26.1416 36.9245 26.4346 37.0059C26.8382 37.1198 27.1865 37.2467 27.4795 37.3867C27.7725 37.5267 28.0133 37.6846 28.2021 37.8604C28.3942 38.0329 28.5358 38.2298 28.627 38.4512C28.7214 38.6693 28.7686 38.9167 28.7686 39.1934C28.7686 39.4831 28.71 39.7451 28.5928 39.9795C28.4756 40.2139 28.3079 40.4141 28.0898 40.5801C27.8717 40.7461 27.6097 40.8747 27.3037 40.9658C27.001 41.0537 26.6624 41.0977 26.2881 41.0977C25.9593 41.0977 25.6354 41.0521 25.3164 40.9609C25.0007 40.8698 24.7126 40.7331 24.4521 40.5508C24.195 40.3685 23.9883 40.1439 23.832 39.877C23.679 39.6068 23.6025 39.2943 23.6025 38.9395H24.54C24.54 39.1836 24.5872 39.3936 24.6816 39.5693C24.776 39.7419 24.9046 39.8851 25.0674 39.999C25.2334 40.113 25.4206 40.1976 25.6289 40.2529C25.8405 40.305 26.0602 40.3311 26.2881 40.3311C26.6169 40.3311 26.8952 40.2855 27.123 40.1943C27.3509 40.1032 27.5234 39.973 27.6406 39.8037C27.7611 39.6344 27.8213 39.4342 27.8213 39.2031Z" fill="#1C1D1F"/>
<path d="M20.1406 34.5205L17.7871 41H16.8252L19.5352 33.8906H20.1553L20.1406 34.5205ZM22.1133 41L19.7549 34.5205L19.7402 33.8906H20.3604L23.0801 41H22.1133ZM21.9912 38.3682V39.1396H17.9971V38.3682H21.9912Z" fill="#1C1D1F"/>
<path d="M16.3418 40.2334V41H12.5771V40.2334H16.3418ZM12.7676 33.8906V41H11.8252V33.8906H12.7676ZM15.8438 36.9473V37.7139H12.5771V36.9473H15.8438ZM16.293 33.8906V34.6621H12.5771V33.8906H16.293Z" fill="#1C1D1F"/>
</svg>
