<svg width="50" height="50" viewBox="0 0 50 50" fill="none" xmlns="http://www.w3.org/2000/svg">
<rect width="50" height="50" fill="black"/>
<path d="M33.584 37.9896L25.7887 37.9954L16.4172 28.8446L16.3973 37.9931L7.00235 38L7 12.0035C7 12.0035 12.1692 12.0689 14.753 12C18.0173 14.9467 24.1879 21.2167 24.1879 21.2167V12.0035L33.4596 12.0012C33.5828 12.0012 33.6098 12.0336 33.6086 12.1517L33.6051 21.197L33.5887 21.2017L24.2395 21.2063L24.2008 21.2075L33.6063 30.4091L33.5828 37.9884L33.584 37.9896Z" fill="#FFFCFC"/>
<path d="M24.1972 21.2225L43 21.204V30.401L33.6074 30.4126L24.1972 21.2225Z" fill="#C046FF"/>
</svg>
