<svg width="50" height="50" viewBox="0 0 50 50" fill="none" xmlns="http://www.w3.org/2000/svg">
<path d="M27.9517 43.3757C22.7843 42.8801 8.1348 45.103 8.10565 37.5084C8.28057 1.0442 3.95131 25.9088 36.377 18.5438C38.8113 18.2887 42.3607 14.4841 41.9672 19.3492C41.9708 25.2237 41.9817 31.1019 41.9635 36.9764C42.2405 44.2466 32.7547 42.6395 27.9517 43.372V43.3757Z" fill="#262324"/>
<path d="M30.9144 7.30844C34.1322 7.78948 41.3003 7.93525 41.4133 12.2901C41.2056 16.8163 33.0973 16.8017 29.752 17.3374C25.3352 17.5888 8.97296 18.2339 8.66685 12.2901C8.56117 6.17873 26.6581 6.78732 30.9144 7.30844Z" fill="#272324"/>
<path d="M27.6274 35.5254C28.4182 36.6114 29.4094 36.9685 30.5573 36.8993C31.1877 36.8592 31.5777 36.8993 31.5777 37.7083C31.5777 38.4481 31.3627 38.8089 30.5974 38.9C28.8737 39.104 27.5181 38.4043 26.3993 37.2017C25.6413 36.3891 24.8506 35.857 23.7099 35.5728C21.1955 34.946 19.8836 32.3731 20.2954 29.3521C20.6561 26.7063 22.6713 24.9097 25.3607 24.8405C28.1522 24.7712 30.1564 26.3128 30.6448 29.035C31.1404 31.8083 30.3059 34.0458 27.6238 35.5254H27.6274Z" fill="#FDFDFD"/>
<path d="M11.9757 33.233C16.1556 35.3284 18.7794 32.5187 13.4407 30.6456C10.9845 29.4976 11.4182 25.6821 14.0675 25.1027C15.4851 24.7783 19.1256 24.1807 18.6482 26.513C18.4842 27.763 17.7772 26.7827 17.329 26.7936C16.356 26.7608 14.8437 26.3053 14.4538 27.5662C14.2934 29.1186 16.5419 29.2352 17.493 29.9932C20.0111 31.1776 19.4499 35.2482 16.6804 35.5981C14.7963 35.7548 10.8278 36.5711 11.9757 33.2293V33.233Z" fill="#FBFBFC"/>
<path d="M32.4742 30.1826C32.8349 28.7905 31.4793 24.5997 33.7022 24.986C34.4456 24.986 34.9668 25.026 34.934 26.0246C34.8647 28.0143 34.9923 30.015 34.8866 32.0048C34.8173 33.3057 35.1052 33.969 36.541 33.7285C37.4011 33.7576 39.0701 33.3021 38.9134 34.6833C38.8952 35.2809 38.8842 35.7437 38.0752 35.7255C31.4866 35.6053 32.4814 36.9172 32.4742 30.1863V30.1826Z" fill="#F7F7F7"/>
<path d="M11.83 11.0406C20.6379 9.46261 29.4531 9.48447 38.6437 10.8984C35.6482 13.2198 15.1316 13.2927 11.83 11.0406Z" fill="#FBFBFB"/>
<path d="M22.8098 30.4055C22.7916 28.3247 23.7901 27.0273 25.4446 26.9872C27.1245 26.9435 28.1631 28.1826 28.2068 30.2816C28.2506 32.3406 27.212 33.6926 25.5758 33.7145C23.8994 33.7364 22.8281 32.4609 22.8098 30.4055Z" fill="#292627"/>
</svg>
