<svg width="50" height="50" viewBox="0 0 50 50" fill="none" xmlns="http://www.w3.org/2000/svg">
<rect width="50" height="50" fill="#262324"/>
<path d="M27.4321 40C23.1763 39.5913 11.111 41.4246 11.087 35.1613C11.231 5.08902 7.66546 25.595 34.3712 19.5211C36.3761 19.3107 39.2993 16.173 38.9752 20.1853C38.9782 25.03 38.9872 29.8777 38.9722 34.7225C39.2003 40.7183 31.3879 39.3929 27.4321 39.997V40Z" fill="white"/>
<path d="M29.8722 10.2552C32.5224 10.6519 38.426 10.7721 38.519 14.3636C38.3479 18.0963 31.67 18.0843 28.9148 18.5261C25.2772 18.7335 11.8013 19.2654 11.5492 14.3636C11.4621 9.3235 26.3667 9.8254 29.8722 10.2552Z" fill="white"/>
<path d="M27.165 33.5258C27.8163 34.4215 28.6327 34.716 29.5781 34.6589C30.0973 34.6258 30.4184 34.6589 30.4184 35.3261C30.4184 35.9362 30.2414 36.2337 29.6111 36.3089C28.1915 36.4772 27.075 35.9001 26.1536 34.9083C25.5293 34.2381 24.878 33.7993 23.9386 33.5649C21.8677 33.048 20.7872 30.9261 21.1264 28.4347C21.4235 26.2527 23.0832 24.771 25.2982 24.7139C27.5972 24.6568 29.2479 25.9281 29.6501 28.1732C30.0583 30.4603 29.371 32.3056 27.162 33.5258H27.165Z" fill="#262324"/>
<path d="M14.2744 31.6353C17.7169 33.3634 19.8778 31.0462 15.4809 29.5014C13.458 28.5547 13.8152 25.408 15.9971 24.9302C17.1646 24.6627 20.1629 24.1698 19.7698 26.0933C19.6347 27.1241 19.0525 26.3157 18.6833 26.3247C17.8819 26.2976 16.6364 25.922 16.3153 26.9618C16.1832 28.2421 18.035 28.3383 18.8184 28.9634C20.8923 29.9402 20.4301 33.2973 18.1491 33.5858C16.5974 33.715 13.3289 34.3882 14.2744 31.6323V31.6353Z" fill="#262324"/>
<path d="M31.1568 29.1196C31.4539 27.9716 30.3374 24.5153 32.1682 24.8339C32.7805 24.8339 33.2097 24.867 33.1827 25.6905C33.1256 27.3314 33.2307 28.9814 33.1436 30.6224C33.0866 31.6953 33.3237 32.2423 34.5062 32.0439C35.2146 32.068 36.5892 31.6923 36.4601 32.8313C36.4451 33.3242 36.4361 33.7059 35.7698 33.6909C30.3434 33.5917 31.1628 34.6737 31.1568 29.1226V29.1196Z" fill="#262324"/>
<path d="M14.1543 13.3331C21.4085 12.0317 28.6687 12.0498 36.238 13.2159C33.7709 15.1303 16.8735 15.1904 14.1543 13.3331Z" fill="#262324"/>
<path d="M23.1973 29.3035C23.1823 27.5874 24.0046 26.5174 25.3672 26.4844C26.7508 26.4483 27.6062 27.4702 27.6422 29.2013C27.6782 30.8993 26.8229 32.0144 25.4753 32.0324C24.0947 32.0504 23.2123 30.9985 23.1973 29.3035Z" fill="white"/>
</svg>
