<svg width="50" height="50" viewBox="0 0 50 50" fill="none" xmlns="http://www.w3.org/2000/svg">
<path d="M25.0049 36.7628C16.9433 36.7628 10.4093 30.2004 10.4093 22.1039C10.3994 13.9975 16.9335 7.4352 25.0049 7.4352C33.0665 7.4352 39.6006 13.9975 39.6006 22.094C39.6006 30.1905 33.0665 36.7628 25.0049 36.7628ZM24.9951 6C16.1746 6 9 13.176 9 21.9951C9 30.824 16.1746 38 24.9951 38C33.8155 38 41 30.824 41 22.0049C41 13.176 33.8254 6 24.9951 6Z" fill="#00A1DF"/>
<path d="M20.9445 29.1809C18.53 28.0426 16.8546 25.4692 16.8546 22.4899C16.8546 20.9161 17.3178 19.4611 18.116 18.2734L23.3787 26.1521H26.562L31.8247 18.2734C32.623 19.4611 33.0862 20.926 33.0862 22.4899C33.0862 25.2712 31.6276 27.6863 29.4791 28.9334L30.4942 32.8332C34.3575 30.8339 36.9888 26.7955 36.9888 22.1336C36.9888 17.729 34.6334 13.8886 31.125 11.7902L25.0147 21.2626L18.9636 11.7507C15.4157 13.8391 13.0307 17.7092 13.0307 22.1336C13.0307 26.9638 15.8592 31.1308 19.9491 33.0411L20.9445 29.1809Z" fill="#00A1DF"/>
<path fill-rule="evenodd" clip-rule="evenodd" d="M22.6768 39.8906L25.3965 47H24.4297L23.7526 45.1396H20.7792L20.1035 47H19.1416L21.8516 39.8906H22.6768ZM21.0595 44.3682H23.4718L22.2644 41.051L21.0595 44.3682Z" fill="black"/>
<path fill-rule="evenodd" clip-rule="evenodd" d="M27.291 44.2119H28.9707C29.5078 44.2119 29.9619 44.1289 30.333 43.9629C30.7041 43.7936 30.9857 43.5479 31.1777 43.2256C31.3698 42.9033 31.4658 42.5143 31.4658 42.0586C31.4658 41.6387 31.3698 41.266 31.1777 40.9404C30.9857 40.6117 30.7041 40.3545 30.333 40.1689C29.9619 39.9834 29.5078 39.8906 28.9707 39.8906H26.3486V47H27.291V44.2119ZM27.291 43.4453V40.6621H28.9707C29.3385 40.6621 29.6364 40.7288 29.8643 40.8623C30.0921 40.9925 30.2581 41.165 30.3623 41.3799C30.4697 41.5947 30.5234 41.8242 30.5234 42.0684C30.5234 42.3353 30.4697 42.5729 30.3623 42.7812C30.2581 42.9896 30.0921 43.1523 29.8643 43.2695C29.6364 43.3867 29.3385 43.4453 28.9707 43.4453H27.291Z" fill="black"/>
</svg>
