<svg width="50" height="50" viewBox="0 0 50 50" fill="none" xmlns="http://www.w3.org/2000/svg">
<path d="M25.0059 42.5308C15.4327 42.5308 7.67354 34.738 7.67354 25.1234C7.66184 15.4971 15.421 7.7043 25.0059 7.7043C34.579 7.7043 42.3382 15.4971 42.3382 25.1117C42.3382 34.7263 34.579 42.5308 25.0059 42.5308ZM24.9941 6C14.5199 6 6 14.5215 6 24.9941C6 35.4785 14.5199 44 24.9941 44C35.4684 44 44 35.4785 44 25.0059C44 14.5215 35.4801 6 24.9941 6Z" fill="#00A1DF"/>
<path d="M20.1841 33.5273C17.3168 32.1756 15.3273 29.1196 15.3273 25.5818C15.3273 23.7129 15.8773 21.9851 16.8253 20.5746L23.0748 29.9307H26.8549L33.1043 20.5746C34.0523 21.9851 34.6023 23.7247 34.6023 25.5818C34.6023 28.8846 32.8703 31.7525 30.319 33.2335L31.5244 37.8645C36.112 35.4902 39.2367 30.6947 39.2367 25.1586C39.2367 19.9282 36.4397 15.3677 32.2734 12.8759L25.0175 24.1243L17.8318 12.8289C13.6186 15.3089 10.7865 19.9047 10.7865 25.1586C10.7865 30.8945 14.1453 35.8428 19.0021 38.1113L20.1841 33.5273Z" fill="#00A1DF"/>
</svg>
