<svg width="50" height="50" viewBox="0 0 50 50" fill="none" xmlns="http://www.w3.org/2000/svg">
<path d="M9.99141 35.1651C9.64272 35.16 9.28183 35.1051 8.95144 34.9984C8.22457 34.7635 7.55463 34.4118 6.96602 33.9127C6.52076 33.5355 6.14767 33.1045 5.84472 32.6134C5.24086 31.6324 4.95113 30.565 5.00704 29.4152C5.04568 28.603 5.24594 27.8222 5.62107 27.0994C6.08769 26.2008 6.74847 25.4688 7.62885 24.9351C8.12088 24.6372 8.64442 24.4288 9.2005 24.2936C9.33063 24.2621 9.38857 24.196 9.38349 24.0649C9.37739 23.9053 9.37434 23.7467 9.37027 23.5871C9.35096 22.7077 9.45262 21.8294 9.69253 20.9826C9.86332 20.3828 10.087 19.8094 10.3838 19.2666C10.5617 18.9413 10.763 18.6251 10.9846 18.3282C11.2296 17.9999 11.497 17.6847 11.7796 17.3879C12.3835 16.7535 13.0951 16.2635 13.8768 15.862C14.7135 15.432 15.6223 15.1524 16.5586 15.0518C17.5213 14.9481 18.4739 14.9887 19.4102 15.2439C20.3515 15.5001 21.2238 15.9026 22.0188 16.4658C22.6358 16.903 23.1777 17.4164 23.6575 18.0009C23.996 18.4136 24.2939 18.8528 24.5399 19.3194C24.7636 19.7433 24.9374 20.1957 25.099 20.6471C25.1824 20.8789 25.3166 20.888 25.4813 20.822C25.71 20.7305 25.9286 20.6105 26.1594 20.5261C26.1665 20.5241 26.1726 20.521 26.1797 20.519C27.178 20.1561 28.283 20.2018 29.259 20.6196C30.6944 21.2337 30.916 21.6017 31.4619 22.3326C31.8736 23.2221 31.5849 22.6508 31.9814 23.5159C32.0231 23.6074 32.0637 23.6999 32.0973 23.7945C32.1502 23.9419 32.1125 24.0283 31.9682 24.0893C31.8503 24.1381 32.5741 24.0374 32.4551 24.0842C32.3575 24.1228 32.2793 24.0944 32.2244 24.0141C32.1776 23.946 32.14 23.8717 32.1054 23.7965C31.4823 22.4261 30.4413 21.5346 28.9662 21.1737C27.6151 20.8433 26.3789 21.1361 25.2637 21.9494C25.1753 22.0144 25.0899 22.0856 24.9994 22.1466C24.792 22.2859 24.6507 22.2289 24.5918 21.99C24.5196 21.6972 24.4576 21.4024 24.3742 21.1137C23.9676 19.7098 23.1858 18.5356 22.0767 17.5688C21.6325 17.1805 21.1394 16.8481 20.6077 16.5888C19.9286 16.2574 19.213 16.0297 18.4597 15.9159C17.6769 15.7979 16.9002 15.8142 16.1276 15.9647C14.6362 16.2564 13.3746 16.965 12.3103 18.0344C11.7044 18.6424 11.2235 19.3357 10.8789 20.1124C10.3045 21.4085 10.0717 22.7636 10.2537 24.1767C10.275 24.3455 10.3035 24.5132 10.331 24.681C10.3645 24.8843 10.3116 24.9564 10.1032 24.9961C9.73625 25.0673 9.36011 25.113 9.0043 25.2218C8.20932 25.4647 7.55057 25.9263 6.99957 26.5393C6.44959 27.1513 6.09887 27.8639 5.94231 28.6619C5.5865 30.4755 6.10497 32.0218 7.48754 33.2539C8.24897 33.933 9.17305 34.3071 10.211 34.3335" fill="#57CCF2"/>
<path d="M14.1747 35.221C12.967 35.221 11.7583 35.2322 10.5505 35.2139C10.2171 35.2088 9.87247 35.156 9.55631 35.0533C8.86096 34.8266 8.22152 34.488 7.65934 34.0062C7.2344 33.6422 6.87656 33.2265 6.58785 32.7537C6.01042 31.8073 5.73391 30.7775 5.78677 29.6694C5.82439 28.8856 6.01551 28.1323 6.37335 27.4359C6.81862 26.5698 7.45094 25.8633 8.29268 25.3489C8.76235 25.0612 9.26353 24.8599 9.79521 24.7308C9.92025 24.7003 9.97515 24.6362 9.97006 24.5102C9.96295 24.3079 9.95888 24.1056 9.95482 23.9043C9.93448 23.0463 10.0636 22.2116 10.3096 21.3882C10.4662 20.8636 10.6674 20.3614 10.9277 19.8826C11.0975 19.5695 11.2896 19.2645 11.5021 18.9778C11.7369 18.6617 11.9911 18.3577 12.2615 18.071C12.8501 17.4469 13.5464 16.968 14.3109 16.5766C15.1059 16.17 15.9415 15.9148 16.829 15.8183C17.7491 15.7186 18.6589 15.7573 19.5545 16.0033C20.4542 16.2503 21.2878 16.6387 22.0472 17.1815C22.6368 17.6034 23.1553 18.0985 23.6128 18.6617C23.9361 19.0592 24.2207 19.4831 24.4555 19.9324C24.669 20.3411 24.8357 20.7772 24.9893 21.2133C25.0685 21.437 25.1966 21.4461 25.3552 21.3821C25.5738 21.2937 25.7822 21.1788 26.0028 21.0964C26.6392 20.8606 27.2929 20.7538 27.977 20.7925C28.9875 20.8494 29.8882 21.1991 30.7066 21.7684C31.4639 22.295 31.9977 23.0117 32.3769 23.8473C32.4165 23.9358 32.4551 24.0242 32.4877 24.1157C32.5375 24.258 32.5029 24.3414 32.3647 24.3994C32.2518 24.4471 32.1349 24.4827 32.021 24.5274C31.9275 24.564 31.8523 24.5376 31.8004 24.4593C31.7557 24.3933 31.7191 24.3221 31.6866 24.2489C31.0909 22.9273 30.0956 22.0673 28.6866 21.7196C27.3955 21.4014 26.2142 21.683 25.1489 22.4678C25.0635 22.5298 24.9832 22.599 24.8957 22.6579C24.6975 22.7921 24.5623 22.7382 24.5064 22.5065C24.4383 22.2249 24.3783 21.9402 24.299 21.6617C23.9218 20.3482 23.2072 19.2432 22.1977 18.3272C21.7453 17.9175 21.2461 17.5678 20.7002 17.2984C20.0516 16.9782 19.3675 16.7586 18.6467 16.6488C17.8985 16.535 17.1564 16.5502 16.4173 16.6966C14.992 16.9782 13.7853 17.6614 12.7688 18.6932C12.1903 19.2798 11.7298 19.9477 11.4014 20.6969C10.8525 21.9473 10.6298 23.2536 10.8047 24.6169C10.825 24.7796 10.8515 24.9412 10.8789 25.1028C10.9114 25.299 10.8606 25.3682 10.6613 25.4068C10.3106 25.4759 9.95075 25.5196 9.61121 25.6244C8.85181 25.8592 8.22254 26.3045 7.69492 26.8951C7.16934 27.4847 6.83387 28.1719 6.68443 28.9425C6.34387 30.6921 6.83997 32.1824 8.16154 33.3708C8.88942 34.0255 9.77183 34.3864 10.764 34.4118C11.6424 34.4342 12.5207 34.4301 13.399 34.4332C14.5234 34.4372 15.6467 34.4362 16.7711 34.4352C16.8849 34.4352 16.9998 34.4342 17.1127 34.423C17.2885 34.4067 17.3526 34.3467 17.38 34.1749C17.4258 33.8883 17.4654 33.6006 17.5091 33.3139C17.6169 32.6073 17.7267 31.9008 17.8324 31.1933C17.929 30.5487 18.0225 29.9032 18.1171 29.2577C18.2045 28.6579 18.2889 28.0581 18.3773 27.4593C18.4027 27.2845 18.4769 27.2163 18.6559 27.2113C18.8836 27.2052 19.1123 27.2113 19.34 27.2113C19.4417 27.2113 19.5037 27.2641 19.5464 27.3505C19.7538 27.7734 19.9602 28.1974 20.1706 28.6192C20.8415 29.9632 21.5145 31.3071 22.1865 32.6511C22.215 32.708 22.2383 32.7659 22.2658 32.8229C22.3004 32.895 22.3431 32.952 22.4376 32.9438C22.5352 32.9357 22.6135 32.8981 22.6348 32.7974C22.6704 32.6287 22.7019 32.4599 22.7283 32.2892C22.8127 31.728 22.892 31.1658 22.9744 30.6036C23.0801 29.888 23.1858 29.1723 23.2926 28.4566C23.3424 28.1191 23.3912 27.7826 23.444 27.4461C23.4715 27.2692 23.5101 27.2245 23.688 27.2174C23.8984 27.2082 24.1099 27.2113 24.3193 27.2275C24.4525 27.2377 24.5054 27.3282 24.486 27.4593C24.3762 28.1913 24.2634 28.9232 24.1546 29.6552C24.0306 30.4867 23.9117 31.3193 23.7887 32.1519C23.7104 32.6765 23.628 33.2 23.5487 33.7236C23.4857 34.1394 23.4267 34.5551 23.3617 34.9709C23.3281 35.1844 23.2905 35.2119 23.0699 35.2139C22.8625 35.2159 22.6551 35.2108 22.4488 35.222C22.3126 35.2291 22.2343 35.1641 22.1804 35.0543C21.7565 34.1932 21.3376 33.3291 20.9097 32.4701C20.4451 31.5359 19.9724 30.6047 19.5037 29.6714C19.4519 29.5677 19.3848 29.4996 19.2567 29.524C19.1367 29.5464 19.1133 29.6328 19.0981 29.7355C18.9924 30.4379 18.8826 31.1404 18.7768 31.8429C18.6396 32.7537 18.5064 33.6646 18.3702 34.5755C18.3468 34.729 18.3204 34.8825 18.2929 35.035C18.2736 35.1438 18.2045 35.2058 18.0957 35.219C18.0124 35.2291 17.928 35.2342 17.8436 35.2342C16.6227 35.2342 15.4017 35.2342 14.1808 35.2342V35.2159L14.1747 35.221Z" fill="#00339F"/>
<path d="M36.1454 35.2363C36.0569 35.2363 35.9685 35.2363 35.879 35.2363C35.7225 35.2363 35.6523 35.1844 35.6289 35.0289C35.5761 34.6792 35.5273 34.3295 35.4815 33.9798C35.4175 33.4918 35.3565 33.0038 35.2945 32.5159C35.2213 31.9486 35.1481 31.3813 35.0749 30.8141C35.017 30.3637 34.958 29.9134 34.899 29.463C34.895 29.4335 34.895 29.4 34.8787 29.3786C34.8502 29.341 34.8136 29.2882 34.777 29.2841C34.7404 29.28 34.6815 29.3207 34.6622 29.3573C34.6052 29.465 34.5656 29.5809 34.5168 29.6928C34.3084 30.1706 34.1 30.6494 33.8885 31.1262C33.7218 31.5033 33.549 31.8774 33.3843 32.2556C33.057 33.0028 32.7337 33.752 32.4074 34.5002C32.3209 34.6965 32.2254 34.8886 32.139 35.0848C32.0942 35.1854 32.0241 35.2383 31.9153 35.2383C31.7293 35.2383 31.5432 35.2413 31.3582 35.2332C31.1702 35.2251 31.1203 35.1773 31.102 34.9902C31.0776 34.7513 31.0654 34.5114 31.0431 34.2725C30.9994 33.7947 30.9526 33.3179 30.9079 32.8401C30.8774 32.5138 30.8479 32.1865 30.8184 31.8591C30.7818 31.4444 30.7432 31.0296 30.7086 30.6138C30.6832 30.3037 30.669 29.9916 30.6395 29.6816C30.5785 29.0411 30.5104 28.4007 30.4453 27.7612C30.4352 27.6606 30.424 27.5599 30.4199 27.4593C30.4138 27.3302 30.4606 27.2651 30.5897 27.257C30.8082 27.2418 31.0278 27.2357 31.2474 27.2377C31.3847 27.2387 31.4528 27.3149 31.464 27.4532C31.5087 28.0154 31.5514 28.5786 31.5961 29.1408C31.652 29.8544 31.7079 30.5681 31.7638 31.2817C31.7994 31.7392 31.836 32.1966 31.8726 32.6541C31.8818 32.768 31.8767 32.892 32.0271 32.9215C32.1512 32.9449 32.2173 32.89 32.2894 32.7192C32.4785 32.2739 32.6666 31.8276 32.8587 31.3844C33.3304 30.2997 33.8052 29.218 34.2759 28.1333C34.3877 27.8751 34.4904 27.6118 34.593 27.3495C34.6225 27.2743 34.6652 27.2306 34.7506 27.2326C34.9529 27.2357 35.1562 27.2346 35.3585 27.2346C35.4744 27.2346 35.5364 27.2865 35.5507 27.4054C35.6076 27.8863 35.6676 28.3661 35.7265 28.8459C35.8689 29.9906 36.0122 31.1343 36.1566 32.278C36.1779 32.4488 36.2104 32.6195 36.2277 32.7903C36.2389 32.9042 36.303 32.956 36.4046 32.9703C36.5073 32.9845 36.5571 32.9174 36.5896 32.832C36.7665 32.3552 36.9414 31.8774 37.1193 31.4006C37.6144 30.073 38.1115 28.7453 38.6045 27.4166C38.6523 27.2885 38.7285 27.2265 38.8688 27.2316C39.0417 27.2377 39.2155 27.2326 39.3883 27.2336C39.5947 27.2346 39.6801 27.3383 39.615 27.5335C39.5418 27.7521 39.4503 27.9656 39.366 28.1811C38.9888 29.1448 38.6106 30.1075 38.2355 31.0713C37.8299 32.1133 37.4273 33.1573 37.0217 34.1993C36.9058 34.4972 36.7828 34.792 36.6669 35.0899C36.6283 35.1895 36.5581 35.2363 36.4544 35.2383C36.3528 35.2403 36.2521 35.2383 36.1505 35.2383V35.2352L36.1454 35.2363Z" fill="#00339F"/>
<path d="M39.2267 32.9235C39.3192 32.9235 39.4127 32.9235 39.5052 32.9235C39.6811 32.9235 39.738 32.9754 39.7523 33.1522C39.7584 33.2275 39.7553 33.3047 39.7675 33.3789C39.8458 33.8659 40.1528 34.1729 40.594 34.3335C41.209 34.5562 41.8393 34.548 42.4554 34.3254C43.1192 34.0855 43.4852 33.4796 43.3896 32.8086C43.3439 32.4904 43.1385 32.2861 42.8712 32.1316C42.4696 31.8998 42.0233 31.7819 41.5933 31.6213C41.2273 31.484 40.8685 31.3264 40.5147 31.1597C40.227 31.0245 40.0115 30.7937 39.8112 30.5518C39.4981 30.1726 39.432 29.7314 39.5225 29.2658C39.7035 28.3407 40.2972 27.7592 41.1389 27.4003C41.6838 27.1686 42.2521 27.0669 42.8447 27.1309C43.412 27.1919 43.9427 27.3383 44.3788 27.7389C44.7234 28.0571 44.9247 28.4403 44.9745 28.9029C44.9908 29.0493 44.9969 29.1967 45.0009 29.3431C45.004 29.4742 44.943 29.5423 44.8129 29.5454C44.6065 29.5494 44.3991 29.5494 44.1927 29.5372C44.0159 29.5271 43.9599 29.4579 43.9498 29.278C43.9457 29.2028 43.9437 29.1265 43.9356 29.0513C43.8644 28.4149 43.3571 28.115 42.9108 28.0327C42.3476 27.928 41.8007 27.9605 41.2904 28.2502C40.8644 28.4922 40.6174 28.8531 40.5686 29.342C40.532 29.71 40.6997 29.9835 40.9823 30.199C41.3107 30.4491 41.696 30.5772 42.0823 30.6972C42.6241 30.8639 43.1568 31.0448 43.6336 31.362C44.3422 31.8327 44.6146 32.5321 44.4042 33.3556C44.1653 34.2857 43.5635 34.8825 42.6597 35.156C41.7377 35.4345 40.8075 35.4264 39.9129 35.036C39.2714 34.7554 38.8577 34.2644 38.7163 33.5701C38.6848 33.4155 38.698 33.2509 38.7021 33.0912C38.7052 32.9815 38.7794 32.9266 38.8861 32.9235C39 32.9205 39.1138 32.9235 39.2287 32.9235H39.2267Z" fill="#00339F"/>
<path d="M26.7541 35.2352C26.0191 35.2352 25.2841 35.2352 24.5491 35.2352C24.1384 35.2352 24.1333 35.2149 24.1607 34.8144C24.176 34.5867 24.2695 34.4281 24.4362 34.2746C24.9415 33.809 25.4284 33.323 25.9266 32.8493C26.4399 32.3613 26.9716 31.8906 27.4697 31.3885C27.9231 30.932 28.3837 30.4735 28.6459 29.8686C28.7903 29.5342 28.8574 29.1845 28.7822 28.8205C28.6805 28.3366 28.341 28.0489 27.8459 27.9808C27.3122 27.9066 26.8415 28.0296 26.4288 28.3722C26.1258 28.6233 25.9469 28.9527 25.8401 29.3237C25.7802 29.5311 25.7192 29.584 25.5006 29.582C25.34 29.5809 25.1794 29.582 25.0187 29.5769C24.8805 29.5718 24.8134 29.4823 24.8429 29.3481C25.1001 28.1913 25.8493 27.5132 26.9655 27.2153C27.607 27.0435 28.2515 27.0761 28.8625 27.3404C29.4592 27.5976 29.8059 28.0754 29.8455 28.7514C29.873 29.2251 29.7459 29.6572 29.5294 30.072C29.2427 30.623 28.8767 31.114 28.4294 31.544C27.6111 32.3298 26.7907 33.1136 25.9713 33.8984C25.9164 33.9513 25.8523 33.9981 25.8117 34.0601C25.7771 34.1139 25.7466 34.1892 25.7568 34.2471C25.771 34.3325 25.8361 34.3945 25.9357 34.3955C26.1004 34.3976 26.2651 34.4006 26.4298 34.4006C27.3213 34.4027 28.2129 34.4027 29.1034 34.4047C29.3291 34.4047 29.4013 34.4901 29.3687 34.7087C29.3535 34.8083 29.3342 34.9069 29.3149 35.0065C29.2803 35.1936 29.2264 35.2393 29.0353 35.2393C28.3806 35.2393 27.7259 35.2393 27.0712 35.2393C26.9655 35.2393 26.8598 35.2393 26.7541 35.2393V35.2352Z" fill="#00339F"/>
</svg>
