<svg width="50" height="50" viewBox="0 0 50 50" fill="none" xmlns="http://www.w3.org/2000/svg">
<path d="M25.9304 36.2649H13.2296C12.3983 36.2649 11.7218 35.5885 11.7218 34.7571V15.4895H36.2649V27.8686H37.9867V13.2296C37.9867 11.4463 36.5404 10 34.7571 10H13.2296C11.4463 10 10 11.4463 10 13.2296V34.7571C10 36.5404 11.4463 37.9867 13.2296 37.9867H25.9304V36.2649ZM11.7218 13.2296C11.7218 12.3983 12.3983 11.7218 13.2296 11.7218H34.7571C35.5885 11.7218 36.2649 12.3983 36.2649 13.2296V13.7677H11.7218V13.2296Z" fill="#0C0628"/>
<path d="M25.3771 30.4989C25.3464 30.4989 25.3157 30.4966 25.2849 30.4942C24.9431 30.4575 24.6558 30.221 24.5541 29.8923L22.1665 22.1843L20.3489 25.661C20.201 25.9448 19.9066 26.1234 19.5861 26.1234H15.0699V24.4016H19.0646L21.6083 19.5353C21.7691 19.2255 22.1002 19.0445 22.4491 19.0765C22.7968 19.1084 23.0901 19.3461 23.1941 19.6796L25.6089 27.4751L27.0954 24.8391C27.248 24.5683 27.5353 24.4016 27.8452 24.4016H32.3023V26.1234H28.3489L26.1269 30.0602C25.9732 30.3334 25.6846 30.4989 25.3771 30.4989Z" fill="#0C0628"/>
<path d="M38.2019 34.7572H40.1389V36.4802H38.2019V34.7572Z" fill="#C046FF"/>
<path d="M28.2992 34.7572H36.9107V36.4802H28.2992V34.7572Z" fill="#C046FF"/>
<path d="M38.2019 38.417H40.1389V40.1388H38.2019V38.417Z" fill="#C046FF"/>
<path d="M28.2992 38.417H36.9107V40.1388H28.2992V38.417Z" fill="#C046FF"/>
<path d="M38.2019 30.882H40.1389V32.605H38.2019V30.882Z" fill="#C046FF"/>
<path d="M28.2992 30.882H36.9107V32.605H28.2992V30.882Z" fill="#C046FF"/>
</svg>
