<svg width="50" height="50" viewBox="0 0 50 50" fill="none" xmlns="http://www.w3.org/2000/svg">
<path d="M37.8998 18.5155V20.1338C38.5282 20.2711 38.9995 20.8314 38.9995 21.5005V37.7009C38.9995 38.4722 38.3711 39.1006 37.5999 39.1006H21.3994C20.7303 39.1006 20.17 38.6282 20.0327 38.0009H18.4144C18.5649 39.517 19.8438 40.7002 21.3994 40.7002H37.5999C39.2566 40.7002 40.5991 39.3577 40.5991 37.7009V21.5005C40.5991 19.9448 39.4159 18.666 37.8998 18.5155Z" fill="#0C0628"/>
<path d="M26.764 30.3818C26.7355 30.3818 26.7069 30.3807 26.6783 30.3774C26.3608 30.3434 26.0939 30.1237 25.9994 29.8182L24.1702 23.9153L22.843 26.4553C22.7057 26.719 22.4321 26.8849 22.1344 26.8849H18.5243V25.2842H21.6499L23.6516 21.4543C23.8021 21.1676 24.1075 20.9984 24.4327 21.0281C24.7557 21.0577 25.0293 21.2786 25.1249 21.5884L26.9783 27.5726L28.0406 25.6907C28.1824 25.4402 28.4482 25.2842 28.7372 25.2842H32.3V26.8849H29.2041L27.4606 29.9753C27.3177 30.228 27.0497 30.3818 26.764 30.3818Z" fill="#C046FF"/>
<path d="M15.7491 11.5996C18.0376 11.5996 19.8998 13.4618 19.8998 15.7502C19.8998 18.0387 18.0376 19.8998 15.7491 19.8998C13.4607 19.8998 11.5996 18.0387 11.5996 15.7502C11.5996 13.4618 13.4607 11.5996 15.7491 11.5996ZM15.7491 10C12.5741 10 10 12.5741 10 15.7502C10 18.9253 12.5741 21.5005 15.7491 21.5005C18.9253 21.5005 21.4994 18.9253 21.4994 15.7502C21.4994 12.5741 18.9253 10 15.7491 10Z" fill="#0C0628"/>
<path d="M17.9958 17.0214H15.2482C14.8065 17.0214 14.4484 16.6632 14.4484 16.2216V13.3124H16.048V15.4218H17.9958V17.0214Z" fill="#0C0628"/>
<path d="M33.4998 14.4011H23.3V16.0007H33.4998C34.271 16.0007 34.8994 16.6292 34.8994 17.4004V33.6008C34.8994 34.3721 34.271 35.0005 33.4998 35.0005H17.2993C16.5281 35.0005 15.8997 34.3721 15.8997 33.6008V23.4011H14.3V33.6008C14.3 35.2576 15.6426 36.6001 17.2993 36.6001H33.4998C35.1565 36.6001 36.499 35.2576 36.499 33.6008V17.4004C36.499 15.7437 35.1565 14.4011 33.4998 14.4011Z" fill="#0C0628"/>
</svg>
