<svg width="50" height="50" viewBox="0 0 50 50" fill="none" xmlns="http://www.w3.org/2000/svg">
<path d="M37.3964 32.9083C37.476 33.6211 37.476 34.3403 37.3964 35.0531C37.1004 36.9442 36.105 37.5637 34.1439 37.4949C30.6509 37.3681 28.2236 35.8573 26.6917 32.7344C25.8961 31.1294 24.5826 29.7708 23.5169 28.2927C22.9212 27.4666 22.3883 26.5899 21.7519 25.7965C21.386 25.4375 20.9787 25.1213 20.5382 24.8545C20.257 25.2784 19.7723 25.6805 19.7279 26.1261C19.5614 27.7275 19.5725 29.3433 19.4615 30.9483C19.3875 31.9808 19.1914 33.0097 19.0914 34.0423C19.0231 34.5285 19.066 35.0235 19.2173 35.4914C19.6095 36.4044 19.2173 37.0058 18.4143 37.1399C17.2379 37.3728 16.0307 37.4169 14.8399 37.2703C13.2636 37.0167 12.8196 36.3175 12.7234 34.7125C12.6642 33.7379 12.6605 32.7634 12.5717 31.7924C12.4422 30.3686 12.7567 29.1658 13.8815 28.1296C14.6882 27.405 14.7511 26.4486 13.9889 25.5139C12.9493 24.1917 12.4246 22.5503 12.5088 20.8838C12.5421 18.8984 12.5828 16.8985 12.642 14.924C12.6827 13.4749 13.0342 13.2466 14.5254 13.1778C15.5097 13.0986 16.4831 12.9202 17.43 12.6452C18.7991 12.2829 19.6502 12.5691 20.1201 13.8372C20.5826 15.0364 21.1451 16.0109 22.4734 16.4964C22.899 16.6522 23.2135 17.1956 23.5058 17.6086C24.9859 19.6846 26.4327 21.8004 27.972 23.8473C28.3753 24.3799 29.082 24.706 29.6334 25.1298C29.8332 24.4705 30.1921 23.8183 30.2106 23.1553C30.292 20.4961 30.2402 17.8333 30.2957 15.1849C30.3364 13.3046 30.9728 12.772 32.8636 12.8807C33.2929 12.9097 33.7258 12.9314 34.1587 12.9495C35.8016 13.0329 36.7489 13.6959 37.0597 15.3153C37.3372 16.8478 37.3557 18.4238 37.5 20.1193C37.3705 23.38 37.2114 26.7529 37.13 30.1331C37.1041 31.0533 37.3372 31.9772 37.3964 32.9083Z" fill="#FDFDFD"/>
<path d="M37.5 20.1157C37.3705 23.3763 37.2114 26.7493 37.13 30.1295C37.1078 31.0533 37.3409 31.9772 37.4001 32.9083C37.4797 33.6211 37.4797 34.3403 37.4001 35.0531C37.1041 36.9442 36.1087 37.5637 34.1476 37.4949C30.6546 37.3681 28.2273 35.8573 26.6954 32.7344C25.8998 31.1294 24.5863 29.7708 23.5206 28.2927C22.9249 27.4666 22.392 26.5899 21.7556 25.7965C21.3897 25.4375 20.9824 25.1213 20.5419 24.8545C20.2607 25.2784 19.776 25.6805 19.7316 26.1261C19.5651 27.7275 19.5762 29.3433 19.4652 30.9483C19.3912 31.9808 19.1951 33.0097 19.0951 34.0423C19.0268 34.5285 19.0697 35.0235 19.221 35.4914C19.6132 36.4044 19.221 37.0058 18.418 37.1399C17.2416 37.3728 16.0344 37.4169 14.8436 37.2703C13.2673 37.0167 12.8233 36.3175 12.7271 34.7125C12.6679 33.7379 12.6642 32.7634 12.5754 31.7924C12.4459 30.3686 12.7604 29.1658 13.8852 28.1296C14.6919 27.405 14.7548 26.4486 13.9926 25.5139C12.953 24.1917 12.4283 22.5503 12.5125 20.8838C12.5458 18.8984 12.5865 16.8985 12.6457 14.924C12.6864 13.4749 13.0379 13.2466 14.5291 13.1778C15.5135 13.0986 16.4868 12.9202 17.4338 12.6452C18.8028 12.2829 19.6539 12.5691 20.1238 13.8372C20.5863 15.0364 21.1488 16.0109 22.4771 16.4964C22.9027 16.6522 23.2172 17.1956 23.5095 17.6086C24.9896 19.6846 26.4364 21.8004 27.9757 23.8473C28.379 24.3799 29.0857 24.706 29.6371 25.1298C29.8369 24.4705 30.1958 23.8183 30.2143 23.1553C30.2957 20.4961 30.2439 17.8333 30.2994 15.1849C30.3401 13.3046 30.9765 12.772 32.8673 12.8807C33.2966 12.9097 33.7295 12.9314 34.1624 12.9495C35.8053 13.0329 36.7526 13.6959 37.0634 15.3153C37.3372 16.8442 37.3631 18.4202 37.5 20.1157Z" fill="#030303"/>
</svg>
