<svg width="50" height="50" viewBox="0 0 50 50" fill="none" xmlns="http://www.w3.org/2000/svg">
<rect width="50" height="50" fill="#030303"/>
<path d="M35.9088 25.3102C35.9789 25.9148 35.9789 26.5248 35.9088 27.1294C35.6483 28.7335 34.7724 29.2589 33.0466 29.2006C29.9728 29.093 27.8367 27.8116 26.4887 25.1627C25.7886 23.8014 24.6327 22.649 23.6949 21.3953C23.1706 20.6946 22.7017 19.951 22.1417 19.278C21.8197 18.9735 21.4613 18.7054 21.0736 18.479C20.8262 18.8386 20.3996 19.1797 20.3605 19.5576C20.214 20.9159 20.2238 22.2864 20.1261 23.6477C20.061 24.5235 19.8884 25.3962 19.8005 26.272C19.7403 26.6844 19.7781 27.1043 19.9112 27.5012C20.2563 28.2756 19.9112 28.7857 19.2046 28.8994C18.1694 29.097 17.107 29.1344 16.0591 29.01C14.672 28.7949 14.2812 28.2019 14.1966 26.8405C14.1445 26.0139 14.1412 25.1873 14.0631 24.3637C13.9491 23.1561 14.2259 22.1358 15.2158 21.257C15.9256 20.6424 15.981 19.8311 15.3102 19.0383C14.3954 17.9169 13.9336 16.5246 14.0077 15.1111C14.037 13.4271 14.0728 11.7308 14.1249 10.0561C14.1608 8.82688 14.4701 8.63329 15.7823 8.5749C16.6486 8.50777 17.5052 8.35639 18.3384 8.12318C19.5432 7.81588 20.2922 8.05864 20.7057 9.13418C21.1127 10.1513 21.6077 10.9779 22.7766 11.3897C23.1511 11.5219 23.4279 11.9828 23.6851 12.3331C24.9876 14.0939 26.2607 15.8885 27.6153 17.6247C27.9702 18.0765 28.5922 18.353 29.0773 18.7126C29.2532 18.1533 29.569 17.6002 29.5853 17.0378C29.6569 14.7823 29.6114 12.5236 29.6602 10.2773C29.696 8.68245 30.2561 8.23073 31.92 8.32292C32.2977 8.3475 32.6787 8.36594 33.0597 8.3813C34.5054 8.45198 35.339 9.01433 35.6125 10.3879C35.8567 11.6878 35.873 13.0245 36 14.4627C35.886 17.2283 35.746 20.0893 35.6744 22.9563C35.6516 23.7369 35.8567 24.5205 35.9088 25.3102Z" fill="white"/>
<path d="M36 14.4596C35.886 17.2253 35.746 20.0862 35.6744 22.9532C35.6548 23.7368 35.86 24.5205 35.9121 25.3102C35.9821 25.9148 35.9821 26.5248 35.9121 27.1294C35.6516 28.7335 34.7757 29.2589 33.0499 29.2006C29.9761 29.093 27.84 27.8116 26.4919 25.1627C25.7919 23.8014 24.6359 22.649 23.6981 21.3953C23.1739 20.6946 22.705 19.951 22.1449 19.278C21.823 18.9735 21.4645 18.7054 21.0769 18.479C20.8294 18.8386 20.4029 19.1797 20.3638 19.5576C20.2173 20.9159 20.227 22.2864 20.1293 23.6477C20.0642 24.5235 19.8916 25.3962 19.8037 26.272C19.7435 26.6844 19.7814 27.1043 19.9144 27.5012C20.2596 28.2756 19.9144 28.7857 19.2078 28.8994C18.1726 29.097 17.1103 29.1344 16.0624 29.01C14.6752 28.7949 14.2845 28.2019 14.1998 26.8405C14.1477 26.0139 14.1445 25.1873 14.0663 24.3637C13.9524 23.1561 14.2291 22.1358 15.219 21.257C15.9289 20.6424 15.9842 19.8311 15.3134 19.0383C14.3986 17.9169 13.9369 16.5246 14.011 15.1111C14.0403 13.4271 14.0761 11.7308 14.1282 10.0561C14.164 8.82688 14.4734 8.63329 15.7856 8.5749C16.6518 8.50777 17.5084 8.35639 18.3417 8.12318C19.5465 7.81588 20.2954 8.05864 20.7089 9.13418C21.116 10.1513 21.6109 10.9779 22.7799 11.3897C23.1543 11.5219 23.4311 11.9828 23.6884 12.3331C24.9908 14.0939 26.264 15.8885 27.6186 17.6247C27.9735 18.0765 28.5954 18.353 29.0806 18.7126C29.2564 18.1533 29.5723 17.6002 29.5886 17.0378C29.6602 14.7823 29.6146 12.5236 29.6635 10.2773C29.6993 8.68245 30.2593 8.23073 31.9233 8.32292C32.301 8.3475 32.6819 8.36594 33.0629 8.3813C34.5087 8.45198 35.3423 9.01433 35.6158 10.3879C35.8567 11.6847 35.8795 13.0215 36 14.4596Z" fill="white"/>
<path d="M25.6909 31.2653L26.5517 31.1256C27.5899 30.9571 28.6525 31.0671 29.6474 31.4439C30.3316 31.703 31.051 31.8362 31.7722 31.8362H34.3982C35.0013 31.8362 35.5645 32.1786 35.899 32.7487C36.076 33.0504 36.0147 33.4566 35.7595 33.6741L35.3871 33.9914C34.8194 34.4751 34.129 34.7366 33.4193 34.7366H30.6833L26.7734 34.3327C26.2611 34.2798 25.7455 34.2857 25.2342 34.3502L22.1737 34.7366H15.3102C14.8648 34.7366 14.4576 34.4507 14.2584 33.998C13.9679 33.338 14.2034 32.5354 14.7843 32.2054L15.2269 31.954C15.9229 31.5586 16.6904 31.3527 17.4686 31.3527H24.6078C24.9702 31.3527 25.3321 31.3235 25.6909 31.2653Z" fill="white"/>
<path d="M20.405 42.0431H21.1784C21.1382 42.4158 21.0321 42.7494 20.8602 43.0438C20.6883 43.3382 20.4453 43.5719 20.1311 43.7448C19.8169 43.9149 19.4248 44 18.9548 44C18.6111 44 18.2982 43.9352 18.0162 43.8055C17.7369 43.6759 17.4966 43.4922 17.2951 43.2545C17.0937 43.0141 16.938 42.7265 16.8278 42.3915C16.7204 42.0539 16.6667 41.6785 16.6667 41.2652V40.6777C16.6667 40.2645 16.7204 39.8904 16.8278 39.5555C16.938 39.2178 17.0951 38.9288 17.2992 38.6884C17.5059 38.448 17.7544 38.263 18.0444 38.1334C18.3344 38.0037 18.6607 37.9389 19.0233 37.9389C19.4664 37.9389 19.841 38.0226 20.1472 38.1901C20.4533 38.3576 20.691 38.5898 20.8602 38.887C21.0321 39.1814 21.1382 39.523 21.1784 39.912H20.405C20.3674 39.6365 20.2976 39.4001 20.1955 39.203C20.0935 39.0031 19.9485 38.8491 19.7605 38.7411C19.5725 38.6331 19.3268 38.579 19.0233 38.579C18.7628 38.579 18.5332 38.629 18.3344 38.7289C18.1384 38.8289 17.9732 38.9707 17.839 39.1544C17.7074 39.338 17.608 39.5582 17.5409 39.8148C17.4737 40.0714 17.4402 40.3563 17.4402 40.6696V41.2652C17.4402 41.5542 17.4697 41.8257 17.5288 42.0796C17.5905 42.3335 17.6832 42.5563 17.8067 42.7481C17.9303 42.9398 18.0874 43.0911 18.278 43.2018C18.4687 43.3099 18.6943 43.3639 18.9548 43.3639C19.2851 43.3639 19.5483 43.3112 19.7444 43.2059C19.9404 43.1006 20.0881 42.9493 20.1875 42.7521C20.2895 42.555 20.362 42.3186 20.405 42.0431Z" fill="white"/>
<path d="M21.9277 41.7757V41.6825C21.9277 41.3665 21.9734 41.0734 22.0647 40.8033C22.156 40.5305 22.2876 40.2942 22.4594 40.0943C22.6313 39.8917 22.8394 39.7351 23.0838 39.6243C23.3282 39.5109 23.6021 39.4542 23.9056 39.4542C24.2118 39.4542 24.487 39.5109 24.7314 39.6243C24.9785 39.7351 25.188 39.8917 25.3598 40.0943C25.5344 40.2942 25.6673 40.5305 25.7586 40.8033C25.8499 41.0734 25.8956 41.3665 25.8956 41.6825V41.7757C25.8956 42.0917 25.8499 42.3848 25.7586 42.6549C25.6673 42.925 25.5344 43.1613 25.3598 43.3639C25.188 43.5638 24.9798 43.7204 24.7354 43.8339C24.4937 43.9446 24.2198 44 23.9137 44C23.6075 44 23.3322 43.9446 23.0879 43.8339C22.8435 43.7204 22.634 43.5638 22.4594 43.3639C22.2876 43.1613 22.156 42.925 22.0647 42.6549C21.9734 42.3848 21.9277 42.0917 21.9277 41.7757ZM22.6729 41.6825V41.7757C22.6729 41.9945 22.6985 42.2011 22.7495 42.3956C22.8005 42.5874 22.877 42.7575 22.9791 42.9061C23.0838 43.0546 23.2141 43.1721 23.3698 43.2586C23.5256 43.3423 23.7069 43.3842 23.9137 43.3842C24.1178 43.3842 24.2964 43.3423 24.4494 43.2586C24.6052 43.1721 24.7341 43.0546 24.8361 42.9061C24.9382 42.7575 25.0147 42.5874 25.0658 42.3956C25.1195 42.2011 25.1463 41.9945 25.1463 41.7757V41.6825C25.1463 41.4664 25.1195 41.2625 25.0658 41.0707C25.0147 40.8763 24.9369 40.7047 24.8321 40.5562C24.7301 40.4049 24.6012 40.2861 24.4454 40.1997C24.2923 40.1132 24.1124 40.07 23.9056 40.07C23.7015 40.07 23.5216 40.1132 23.3658 40.1997C23.2127 40.2861 23.0838 40.4049 22.9791 40.5562C22.877 40.7047 22.8005 40.8763 22.7495 41.0707C22.6985 41.2625 22.6729 41.4664 22.6729 41.6825Z" fill="white"/>
<path d="M27.5754 40.224V43.919H26.8302V39.5352H27.5553L27.5754 40.224ZM28.937 39.5109L28.933 40.2078C28.8712 40.1943 28.8121 40.1861 28.7557 40.1834C28.702 40.178 28.6402 40.1753 28.5704 40.1753C28.3985 40.1753 28.2468 40.2024 28.1152 40.2564C27.9836 40.3104 27.8722 40.386 27.7809 40.4833C27.6895 40.5805 27.617 40.6966 27.5633 40.8317C27.5123 40.964 27.4787 41.1099 27.4626 41.2693L27.2531 41.3908C27.2531 41.1261 27.2787 40.8776 27.3297 40.6453C27.3834 40.413 27.4653 40.2078 27.5754 40.0295C27.6855 39.8485 27.8252 39.7081 27.9944 39.6081C28.1662 39.5055 28.3703 39.4542 28.6067 39.4542C28.6604 39.4542 28.7221 39.4609 28.792 39.4744C28.8618 39.4852 28.9101 39.4974 28.937 39.5109Z" fill="white"/>
<path d="M31.354 44C31.0505 44 30.7752 43.9487 30.5282 43.846C30.2838 43.7407 30.073 43.5935 29.8957 43.4044C29.7212 43.2154 29.5869 42.9912 29.4929 42.7319C29.3989 42.4726 29.3519 42.189 29.3519 41.881V41.7109C29.3519 41.3543 29.4043 41.037 29.509 40.7588C29.6137 40.4779 29.7561 40.2402 29.936 40.0457C30.1159 39.8512 30.32 39.704 30.5483 39.6041C30.7766 39.5041 31.0129 39.4542 31.2573 39.4542C31.5688 39.4542 31.8374 39.5082 32.063 39.6162C32.2912 39.7243 32.4779 39.8755 32.6229 40.07C32.7679 40.2618 32.8753 40.4887 32.9452 40.7507C33.015 41.01 33.0499 41.2936 33.0499 41.6015V41.9378H29.795V41.326H32.3047V41.2693C32.2939 41.0748 32.2536 40.8857 32.1838 40.702C32.1167 40.5184 32.0092 40.3671 31.8615 40.2483C31.7138 40.1294 31.5124 40.07 31.2573 40.07C31.0881 40.07 30.9323 40.1065 30.79 40.1794C30.6477 40.2496 30.5255 40.355 30.4234 40.4954C30.3214 40.6359 30.2422 40.8074 30.1858 41.01C30.1294 41.2125 30.1012 41.4462 30.1012 41.7109V41.881C30.1012 42.089 30.1294 42.2848 30.1858 42.4685C30.2448 42.6495 30.3294 42.8088 30.4395 42.9466C30.5523 43.0844 30.688 43.1924 30.8464 43.2707C31.0075 43.3491 31.1902 43.3882 31.3943 43.3882C31.6574 43.3882 31.8803 43.3342 32.063 43.2262C32.2456 43.1181 32.4054 42.9736 32.5423 42.7926L32.9935 43.1532C32.8995 43.2964 32.78 43.4328 32.635 43.5624C32.49 43.6921 32.3114 43.7974 32.0992 43.8785C31.8897 43.9595 31.6413 44 31.354 44Z" fill="white"/>
</svg>
