<svg width="50" height="50" viewBox="0 0 50 50" fill="none" xmlns="http://www.w3.org/2000/svg">
<path d="M37.8964 25.7144C37.976 26.403 37.976 27.0977 37.8964 27.7863C37.6004 29.6131 36.605 30.2116 34.6439 30.1451C31.1509 30.0226 28.7236 28.5632 27.1917 25.5464C26.3961 23.996 25.0826 22.6836 24.0169 21.2557C23.4212 20.4578 22.8883 19.6108 22.2519 18.8444C21.886 18.4976 21.4787 18.1922 21.0382 17.9344C20.757 18.3439 20.2723 18.7324 20.2279 19.1629C20.0614 20.7098 20.0725 22.2706 19.9615 23.821C19.8875 24.8185 19.6913 25.8124 19.5914 26.8098C19.5231 27.2795 19.566 27.7577 19.7172 28.2097C20.1095 29.0917 19.7172 29.6726 18.9143 29.8021C17.7379 30.0271 16.5307 30.0697 15.3399 29.9281C13.7636 29.6831 13.3196 29.0077 13.2234 27.4573C13.1642 26.5158 13.1605 25.5744 13.0717 24.6365C12.9422 23.2611 13.2567 22.0992 14.3815 21.0982C15.1882 20.3983 15.2511 19.4743 14.4889 18.5714C13.4493 17.2942 12.9246 15.7086 13.0088 14.0987C13.0421 12.1809 13.0828 10.249 13.142 8.34163C13.1827 6.94173 13.5342 6.72124 15.0254 6.65475C16.0097 6.57829 16.9831 6.40589 17.93 6.14028C19.2991 5.79031 20.1502 6.06679 20.6201 7.2917C21.0826 8.45012 21.6451 9.39155 22.9734 9.86052C23.399 10.011 23.7135 10.536 24.0058 10.9349C25.4859 12.9403 26.9327 14.9842 28.4719 16.9615C28.8753 17.476 29.582 17.791 30.1333 18.2004C30.3332 17.5635 30.6921 16.9335 30.7106 16.2931C30.792 13.7242 30.7402 11.1519 30.7957 8.59361C30.8364 6.77724 31.4728 6.26277 33.3636 6.36777C33.7929 6.39577 34.2258 6.41676 34.6587 6.43426C36.3016 6.51475 37.2488 7.15521 37.5597 8.7196C37.8372 10.2 37.8557 11.7224 38 13.3603C37.8705 16.51 37.7114 19.7683 37.63 23.0336C37.6041 23.9225 37.8372 24.815 37.8964 25.7144Z" fill="#030303"/>
<path d="M38 13.3568C37.8705 16.5065 37.7114 19.7648 37.63 23.0301C37.6078 23.9225 37.8409 24.815 37.9001 25.7144C37.9797 26.403 37.9797 27.0977 37.9001 27.7863C37.6041 29.6131 36.6087 30.2116 34.6476 30.1451C31.1546 30.0226 28.7273 28.5632 27.1954 25.5464C26.3998 23.996 25.0863 22.6836 24.0206 21.2557C23.4249 20.4578 22.892 19.6108 22.2556 18.8444C21.8897 18.4976 21.4824 18.1922 21.0419 17.9344C20.7607 18.3439 20.276 18.7324 20.2316 19.1629C20.0651 20.7098 20.0762 22.2706 19.9652 23.821C19.8912 24.8185 19.6951 25.8124 19.5951 26.8098C19.5268 27.2795 19.5697 27.7577 19.721 28.2097C20.1132 29.0917 19.721 29.6726 18.918 29.8021C17.7416 30.0271 16.5344 30.0697 15.3436 29.9281C13.7673 29.6831 13.3233 29.0077 13.2271 27.4573C13.1679 26.5158 13.1642 25.5744 13.0754 24.6365C12.9459 23.2611 13.2604 22.0992 14.3852 21.0982C15.1919 20.3983 15.2548 19.4743 14.4926 18.5714C13.453 17.2942 12.9283 15.7086 13.0125 14.0987C13.0458 12.1809 13.0865 10.249 13.1457 8.34163C13.1864 6.94173 13.5379 6.72124 15.0291 6.65475C16.0134 6.57829 16.9868 6.40589 17.9338 6.14028C19.3028 5.79031 20.1539 6.06679 20.6238 7.2917C21.0863 8.45012 21.6488 9.39155 22.9771 9.86052C23.4027 10.011 23.7172 10.536 24.0095 10.9349C25.4896 12.9403 26.9364 14.9842 28.4757 16.9615C28.879 17.476 29.5857 17.791 30.1371 18.2004C30.3369 17.5635 30.6958 16.9335 30.7143 16.2931C30.7957 13.7242 30.7439 11.1519 30.7994 8.59361C30.8401 6.77724 31.4765 6.26277 33.3673 6.36777C33.7966 6.39577 34.2295 6.41676 34.6624 6.43426C36.3053 6.51475 37.2526 7.15521 37.5634 8.7196C37.8372 10.1965 37.8631 11.7189 38 13.3568Z" fill="#030303"/>
<path d="M26.2851 32.4966L27.2633 32.3375C28.4431 32.1456 29.6506 32.2708 30.7811 32.6999C31.5587 32.9951 32.3761 33.1467 33.1957 33.1467H36.1798C36.8651 33.1467 37.5051 33.5367 37.8852 34.186C38.0863 34.5296 38.0167 34.9922 37.7267 35.2399L37.3036 35.6013C36.6585 36.1522 35.8738 36.45 35.0674 36.45H31.9583L27.5152 35.9901C26.9331 35.9298 26.3471 35.9365 25.7662 36.01L22.2883 36.45H14.4889C13.9827 36.45 13.5199 36.1244 13.2936 35.6088C12.9635 34.8572 13.2311 33.9431 13.8912 33.5673L14.3942 33.2809C15.1852 32.8306 16.0573 32.5962 16.9416 32.5962H25.0543C25.4661 32.5962 25.8774 32.5629 26.2851 32.4966Z" fill="#030303"/>
<path d="M20.2784 44.7713H21.1573C21.1115 45.1958 20.991 45.5757 20.7957 45.911C20.6004 46.2463 20.3242 46.5124 19.9671 46.7093C19.6101 46.9031 19.1645 47 18.6305 47C18.2398 47 17.8843 46.9262 17.5639 46.7785C17.2465 46.6309 16.9734 46.4217 16.7445 46.151C16.5156 45.8772 16.3386 45.5496 16.2135 45.1681C16.0914 44.7836 16.0304 44.356 16.0304 43.8854V43.2163C16.0304 42.7457 16.0914 42.3196 16.2135 41.9382C16.3386 41.5536 16.5171 41.2245 16.749 40.9507C16.984 40.6769 17.2663 40.4662 17.5959 40.3186C17.9255 40.1709 18.2963 40.0971 18.7083 40.0971C19.2118 40.0971 19.6375 40.1924 19.9854 40.3832C20.3333 40.5739 20.6034 40.8384 20.7957 41.1768C20.991 41.5121 21.1115 41.9012 21.1573 42.3442H20.2784C20.2357 42.0304 20.1563 41.7613 20.0404 41.5367C19.9244 41.3091 19.7596 41.1337 19.546 41.0107C19.3324 40.8876 19.0531 40.8261 18.7083 40.8261C18.4123 40.8261 18.1513 40.883 17.9255 40.9969C17.7027 41.1107 17.515 41.2722 17.3625 41.4813C17.2129 41.6905 17.1 41.9412 17.0237 42.2335C16.9474 42.5257 16.9093 42.8502 16.9093 43.2071V43.8854C16.9093 44.2145 16.9428 44.5237 17.01 44.8128C17.0802 45.102 17.1855 45.3558 17.3258 45.5742C17.4662 45.7926 17.6447 45.9649 17.8614 46.091C18.0781 46.214 18.3344 46.2756 18.6305 46.2756C19.0058 46.2756 19.3049 46.2156 19.5277 46.0956C19.7505 45.9756 19.9183 45.8034 20.0312 45.5788C20.1472 45.3543 20.2296 45.0851 20.2784 44.7713Z" fill="#030303"/>
<path d="M22.0088 44.4668V44.3606C22.0088 44.0007 22.0606 43.667 22.1644 43.3594C22.2682 43.0487 22.4177 42.7795 22.613 42.5519C22.8083 42.3211 23.0448 42.1427 23.3225 42.0166C23.6002 41.8874 23.9115 41.8228 24.2564 41.8228C24.6043 41.8228 24.9171 41.8874 25.1948 42.0166C25.4755 42.1427 25.7136 42.3211 25.9089 42.5519C26.1073 42.7795 26.2583 43.0487 26.3621 43.3594C26.4658 43.667 26.5177 44.0007 26.5177 44.3606V44.4668C26.5177 44.8267 26.4658 45.1604 26.3621 45.4681C26.2583 45.7757 26.1073 46.0448 25.9089 46.2756C25.7136 46.5032 25.4771 46.6816 25.1994 46.8108C24.9247 46.9369 24.6134 47 24.2655 47C23.9176 47 23.6048 46.9369 23.3271 46.8108C23.0494 46.6816 22.8114 46.5032 22.613 46.2756C22.4177 46.0448 22.2682 45.7757 22.1644 45.4681C22.0606 45.1604 22.0088 44.8267 22.0088 44.4668ZM22.8556 44.3606V44.4668C22.8556 44.7159 22.8846 44.9513 22.9426 45.1728C23.0006 45.3912 23.0875 45.585 23.2035 45.7542C23.3225 45.9233 23.4705 46.0572 23.6475 46.1556C23.8245 46.251 24.0305 46.2986 24.2655 46.2986C24.4975 46.2986 24.7004 46.251 24.8744 46.1556C25.0514 46.0572 25.1978 45.9233 25.3138 45.7542C25.4298 45.585 25.5167 45.3912 25.5747 45.1728C25.6358 44.9513 25.6663 44.7159 25.6663 44.4668V44.3606C25.6663 44.1146 25.6358 43.8823 25.5747 43.6639C25.5167 43.4424 25.4282 43.2471 25.3092 43.0779C25.1933 42.9056 25.0468 42.7703 24.8698 42.6718C24.6958 42.5734 24.4914 42.5242 24.2564 42.5242C24.0244 42.5242 23.82 42.5734 23.643 42.6718C23.469 42.7703 23.3225 42.9056 23.2035 43.0779C23.0875 43.2471 23.0006 43.4424 22.9426 43.6639C22.8846 43.8823 22.8556 44.1146 22.8556 44.3606Z" fill="#030303"/>
<path d="M28.4266 42.6995V46.9077H27.5797V41.9151H28.4037L28.4266 42.6995ZM29.9738 41.8874L29.9693 42.6811C29.8991 42.6657 29.8319 42.6564 29.7678 42.6534C29.7068 42.6472 29.6366 42.6441 29.5573 42.6441C29.362 42.6441 29.1895 42.6749 29.04 42.7364C28.8905 42.798 28.7638 42.8841 28.6601 42.9948C28.5563 43.1056 28.4739 43.2378 28.4129 43.3917C28.3549 43.5424 28.3167 43.7085 28.2984 43.89L28.0604 44.0284C28.0604 43.727 28.0894 43.4439 28.1474 43.1794C28.2084 42.9148 28.3015 42.6811 28.4266 42.478C28.5517 42.2719 28.7104 42.112 28.9027 41.9981C29.098 41.8813 29.3299 41.8228 29.5985 41.8228C29.6595 41.8228 29.7297 41.8305 29.809 41.8459C29.8884 41.8582 29.9433 41.872 29.9738 41.8874Z" fill="#030303"/>
<path d="M32.7204 47C32.3756 47 32.0628 46.9416 31.782 46.8247C31.5043 46.7047 31.2647 46.537 31.0633 46.3217C30.865 46.1064 30.7124 45.8511 30.6056 45.5557C30.4987 45.2604 30.4453 44.9374 30.4453 44.5867V44.3929C30.4453 43.9869 30.5048 43.6254 30.6239 43.3086C30.7429 42.9887 30.9046 42.718 31.1091 42.4965C31.3136 42.275 31.5455 42.1074 31.8049 41.9935C32.0643 41.8797 32.3328 41.8228 32.6106 41.8228C32.9646 41.8228 33.2697 41.8843 33.5261 42.0074C33.7855 42.1304 33.9976 42.3027 34.1624 42.5242C34.3272 42.7426 34.4492 43.001 34.5286 43.2994C34.6079 43.5947 34.6476 43.9177 34.6476 44.2684V44.6513H30.9489V43.9546H33.8007V43.89C33.7885 43.6685 33.7428 43.4532 33.6634 43.244C33.5871 43.0348 33.4651 42.8626 33.2972 42.7272C33.1294 42.5918 32.9005 42.5242 32.6106 42.5242C32.4183 42.5242 32.2413 42.5657 32.0796 42.6488C31.9178 42.7287 31.779 42.8487 31.663 43.0087C31.547 43.1686 31.457 43.364 31.3929 43.5947C31.3288 43.8254 31.2968 44.0915 31.2968 44.3929V44.5867C31.2968 44.8236 31.3288 45.0466 31.3929 45.2558C31.46 45.4619 31.5562 45.6434 31.6813 45.8003C31.8095 45.9572 31.9636 46.0802 32.1436 46.1694C32.3267 46.2586 32.5343 46.3032 32.7662 46.3032C33.0653 46.3032 33.3186 46.2417 33.5261 46.1187C33.7336 45.9956 33.9152 45.8311 34.0708 45.625L34.5835 46.0356C34.4767 46.1987 34.3409 46.354 34.1761 46.5017C34.0113 46.6493 33.8084 46.7693 33.5673 46.8616C33.3292 46.9539 33.047 47 32.7204 47Z" fill="#030303"/>
</svg>
