<svg width="50" height="50" viewBox="0 0 50 50" fill="none" xmlns="http://www.w3.org/2000/svg">
<path d="M41.262 14C40.5939 14.0001 39.938 14.1788 39.3623 14.5177C38.7865 14.8566 38.312 15.3434 37.9877 15.9275L37.9115 16.0845L34.9942 21.8716L31.2821 29.1864L33.714 33.9789L33.8472 34.2406C34.2222 34.9039 34.7875 35.4394 35.4701 35.7778C36.1518 35.4382 36.7168 34.903 37.093 34.2406L37.2262 33.9789L44.5124 19.6015L44.6885 19.2541C44.9363 18.6854 45.0389 18.0641 44.9868 17.4459C44.9348 16.8278 44.7298 16.2323 44.3905 15.7131C44.0511 15.1939 43.5879 14.7672 43.0426 14.4715C42.4973 14.1757 41.887 14.0203 41.2667 14.019L41.262 14ZM18.7417 20.9626L16.1813 15.9417C15.8095 15.2789 15.2452 14.7446 14.5632 14.4093C13.8824 14.7441 13.3184 15.2765 12.9451 15.937L12.8071 16.2035L5.51135 30.5666L5.33526 30.9092C4.94182 31.7903 4.90407 32.7893 5.22989 33.6976C5.55571 34.6058 6.21991 35.3531 7.0837 35.7831C7.94749 36.2132 8.94405 36.2928 9.86517 36.0053C10.7863 35.7179 11.5607 35.0856 12.0266 34.2406L12.1075 34.0884L18.7513 20.9912L18.7417 20.9626Z" fill="#FF5100"/>
<path d="M41.2524 14C40.5851 14.0004 39.93 14.1794 39.3551 14.5183C38.7802 14.8572 38.3064 15.3437 37.9829 15.9275L37.902 16.0845L31.2487 29.1864L33.8187 34.2406C34.1922 34.905 34.7579 35.4408 35.4415 35.7778C36.1251 35.4408 36.6909 34.905 37.0644 34.2406L37.2024 33.9789L44.5124 19.6015L44.6838 19.2541C44.9316 18.6854 45.0341 18.0641 44.9821 17.4459C44.93 16.8278 44.7251 16.2323 44.3857 15.7131C44.0463 15.1939 43.5831 14.7672 43.0378 14.4715C42.4925 14.1757 41.8823 14.0203 41.262 14.019L41.2524 14Z" fill="url(#paint0_linear_9176_14062)"/>
<path d="M8.75232 36.1681C9.41731 36.1701 10.0708 35.9947 10.6455 35.6601C11.2202 35.3255 11.6953 34.8438 12.0218 34.2645L12.1027 34.1074L18.756 21.0055L16.3241 16.1892L16.1908 15.9275C15.8146 15.2635 15.2476 14.728 14.5632 14.3903C13.8806 14.7288 13.3153 15.2642 12.9404 15.9275L5.48755 30.5666L5.31146 30.914C5.06365 31.4827 4.96115 32.1041 5.01318 32.7222C5.06522 33.3403 5.27015 33.9358 5.60954 34.455C5.94893 34.9743 6.41212 35.401 6.95741 35.6967C7.5027 35.9924 8.11297 36.1479 8.73328 36.1491L8.75232 36.1681Z" fill="url(#paint1_linear_9176_14062)"/>
<path d="M18.7417 20.9626L16.1813 15.9417C15.8078 15.2774 15.2421 14.7416 14.5585 14.4045C14.7858 14.2932 15.0232 14.204 15.2676 14.138C15.5787 14.0592 15.8984 14.0192 16.2194 14.0191H21.3022C21.9657 14.0209 22.6171 14.1979 23.1904 14.5321C23.7636 14.8664 24.2385 15.3461 24.5669 15.9227L24.7002 16.1845L31.2725 29.2055L33.8282 34.2264C34.2059 34.8977 34.7784 35.4387 35.4701 35.7778C34.9553 36.0281 34.391 36.1598 33.8187 36.1634H28.7074C28.0445 36.1612 27.3939 35.984 26.8215 35.6497C26.249 35.3154 25.775 34.8359 25.4474 34.2597L25.3093 33.9979L18.7417 20.9626Z" fill="#FF8C44"/>
<defs>
<linearGradient id="paint0_linear_9176_14062" x1="19.1612" y1="35.0558" x2="22.7546" y2="13.0357" gradientUnits="userSpaceOnUse">
<stop stop-color="#D4202C"/>
<stop offset="0.1" stop-color="#DC3D29" stop-opacity="0.79"/>
<stop offset="0.2" stop-color="#E45926" stop-opacity="0.58"/>
<stop offset="0.32" stop-color="#EA7123" stop-opacity="0.4"/>
<stop offset="0.43" stop-color="#F08521" stop-opacity="0.25"/>
<stop offset="0.55" stop-color="#F4941F" stop-opacity="0.14"/>
<stop offset="0.68" stop-color="#F79F1E" stop-opacity="0.06"/>
<stop offset="0.82" stop-color="#F8A51D" stop-opacity="0.02"/>
<stop offset="1" stop-color="#F9A71D" stop-opacity="0"/>
</linearGradient>
<linearGradient id="paint1_linear_9176_14062" x1="30.8484" y1="15.1194" x2="27.2522" y2="37.1411" gradientUnits="userSpaceOnUse">
<stop stop-color="#D4202C"/>
<stop offset="0.1" stop-color="#DC3D29" stop-opacity="0.79"/>
<stop offset="0.2" stop-color="#E45926" stop-opacity="0.58"/>
<stop offset="0.32" stop-color="#EA7123" stop-opacity="0.4"/>
<stop offset="0.43" stop-color="#F08521" stop-opacity="0.25"/>
<stop offset="0.55" stop-color="#F4941F" stop-opacity="0.14"/>
<stop offset="0.68" stop-color="#F79F1E" stop-opacity="0.06"/>
<stop offset="0.82" stop-color="#F8A51D" stop-opacity="0.02"/>
<stop offset="1" stop-color="#F9A71D" stop-opacity="0"/>
</linearGradient>
</defs>
</svg>
