<svg width="50" height="50" viewBox="0 0 50 50" fill="none" xmlns="http://www.w3.org/2000/svg">
<path d="M24.333 11.1111C28.1192 11.1362 31.7527 11.5437 35.2666 12.703C36.5563 13.1284 37.785 13.683 38.8244 14.5686C39.8992 15.484 40.4805 16.6002 40.213 18.0344C40.0066 19.1399 39.352 19.9681 38.4848 20.6529C37.2635 21.6221 35.8284 22.2065 34.3432 22.6595C32.2511 23.3016 30.0922 23.7129 27.9067 23.8857C26.5632 23.9944 25.1989 24.1044 23.8505 24.0506C20.217 23.9048 16.6885 23.2248 13.4055 21.6281C12.6108 21.243 11.8716 20.7568 11.2071 20.182C9.14177 18.3774 9.26147 15.9405 11.4391 14.2614C12.6605 13.3173 14.0846 12.7747 15.5588 12.3492C17.6986 11.7325 19.8921 11.4075 22.1138 11.2485C22.8808 11.1876 23.6551 11.1505 24.333 11.1111ZM24.5675 21.5755C26.9296 21.5755 28.8972 21.4417 30.844 21.0855C32.5979 20.764 34.3029 20.292 35.8858 19.4637C36.7212 19.0263 37.5004 18.5136 38.0708 17.7523C38.6253 17.0138 38.6656 16.2525 38.138 15.4972C37.8911 15.1486 37.5955 14.8356 37.2598 14.5674C36.3609 13.8419 35.2983 13.4165 34.2003 13.0735C31.9787 12.3779 29.6813 12.1066 27.3607 11.9979C24.4832 11.858 21.613 11.9381 18.7722 12.4675C17.0305 12.7914 15.3353 13.2599 13.7646 14.1037C13.0538 14.4861 12.3955 14.9402 11.8947 15.5772C11.394 16.2142 11.3439 16.8739 11.7726 17.5253C12.0565 17.9581 12.4034 18.3482 12.8022 18.6833C13.9258 19.6143 15.2705 20.139 16.6653 20.5489C19.3755 21.3353 22.1504 21.554 24.5675 21.5755Z" fill="#6BA338"/>
<path d="M37.8898 22.9009C38.1394 22.7281 38.3983 22.5685 38.6653 22.4229C38.7223 22.4104 38.7815 22.4112 38.8381 22.4251C38.8947 22.439 38.9472 22.4657 38.9914 22.5029C40.5792 23.9371 40.7087 26.0476 39.3041 27.661C38.3795 28.7223 37.1704 29.3725 35.8843 29.8995C34.0242 30.6608 32.0725 31.0946 30.0902 31.4053C27.9724 31.7328 25.8411 31.9491 23.6952 31.8368C20.1069 31.6479 16.6284 30.9679 13.3735 29.4083C12.3366 28.9111 11.3852 28.2861 10.6328 27.4089C9.23069 25.7728 9.51038 23.465 11.274 22.1838L12.3232 22.8495C12.201 22.9953 12.0789 23.122 11.9763 23.2547C11.39 23.992 11.351 24.6804 11.8651 25.468C12.3464 26.2042 13.0389 26.7145 13.7961 27.1412C15.2972 27.9957 16.935 28.4785 18.6253 28.7988C22.0329 29.4453 25.4649 29.5159 28.9092 29.1502C31.3128 28.8956 33.6578 28.3841 35.8269 27.281C36.5417 26.9351 37.1919 26.4742 37.7505 25.9174C38.6739 24.9613 38.7398 24.1104 37.9753 23.0312C37.957 23.0001 37.9325 22.9654 37.8898 22.9009Z" fill="#6BA337"/>
<path d="M37.8927 29.9246L38.7856 29.3641C40.4661 30.6034 40.7629 32.7881 39.4829 34.466C38.8368 35.3122 37.9795 35.9062 37.0402 36.3938C35.3621 37.271 33.5606 37.7705 31.7102 38.141C29.2333 38.637 26.7283 38.9549 24.1977 38.8772C20.4432 38.7637 16.8097 38.0657 13.4046 36.4511C12.2699 35.9133 11.2342 35.2285 10.4636 34.2222C9.10174 32.4463 9.7857 30.3345 11.2721 29.2123L12.3151 29.8696C12.16 30.062 12.0073 30.2389 11.8693 30.4266C11.4052 31.0516 11.3967 31.7005 11.7826 32.3614C12.2443 33.1526 12.9576 33.6856 13.7368 34.1386C15.2684 35.0277 16.9465 35.5249 18.6808 35.8416C22.4607 36.5298 26.332 36.59 30.1323 36.0197C32.2257 35.7114 34.258 35.1831 36.1169 34.1517C36.8057 33.7717 37.4469 33.3271 37.9489 32.7176C38.6524 31.8631 38.6817 31.0671 38.0417 30.1588C37.9978 30.0871 37.9501 30.0107 37.8927 29.9246Z" fill="#6BA337"/>
<path d="M33.911 26.7001C33.249 26.8818 32.6676 27.0587 32.0789 27.1913C31.8493 27.2415 31.5904 27.1758 31.3461 27.1483C29.9831 26.9953 28.6225 26.7898 27.2546 26.693C25.3037 26.5541 23.3439 26.5941 21.4006 26.8125C20.4236 26.9188 19.4636 27.1077 18.495 27.2547C18.3549 27.2846 18.2102 27.2879 18.0688 27.2642C17.3995 27.0957 16.7351 26.9057 16.0694 26.7276C16.0147 26.7059 15.9619 26.6795 15.9119 26.6487C19.7677 25.7536 23.6369 25.3688 27.5636 25.6688C29.7061 25.8305 31.83 26.1756 33.911 26.7001Z" fill="#6CA439"/>
<path d="M15.922 18.9116C21.8871 17.4416 27.8364 17.3974 33.8002 18.9355C33.6048 18.9917 33.4045 19.0347 33.2152 19.1041C32.4425 19.3839 31.6052 19.4464 30.7981 19.2845C28.2748 18.8423 25.7222 18.7646 23.1622 18.8901C21.5711 18.9593 19.9888 19.1591 18.4319 19.4877C18.3632 19.5103 18.2903 19.518 18.2182 19.5104C17.4524 19.312 16.6878 19.1112 15.922 18.9116Z" fill="#6CA439"/>
</svg>
