<svg width="50" height="50" viewBox="0 0 50 50" fill="none" xmlns="http://www.w3.org/2000/svg">
<path d="M19.2754 35.1582L18.4575 36.473C16.6173 39.5179 13.3458 41.2479 9.86985 40.9711L8.77936 40.9019L7.0073 40.6943C6.93915 40.6251 7.34808 38.8259 8.23411 35.435C12.6642 33.4282 16.3447 33.2898 19.2754 35.1582ZM39.1769 26.7156L37.6775 33.4974C37.6775 33.5666 37.6775 33.5666 37.6093 33.6358C28.749 38.6183 17.8441 27.9612 8.98382 32.8053C8.91567 32.8745 8.77936 32.8053 8.77936 32.7361L10.2788 26.4388C10.2788 26.3696 10.2788 26.3696 10.3469 26.3004C19.2072 21.3179 30.4529 32.1133 38.8361 26.6464C38.9724 26.508 39.1769 26.5772 39.1769 26.7156ZM41.2897 17.581L39.7221 24.2936C39.7221 24.3628 39.7221 24.3628 39.654 24.432C30.7937 29.4145 19.8888 18.7574 11.0285 23.6015C10.9603 23.6707 10.824 23.6015 10.824 23.5323L12.3235 17.235C12.3235 17.1658 12.3235 17.1658 12.3916 17.0966C21.2519 12.1141 32.4976 22.9095 40.8808 17.4426C41.0852 17.3734 41.2897 17.4426 41.2897 17.581ZM42.9936 9C43.0618 9.0692 42.5847 10.9376 41.5623 14.6053C37.3367 16.9582 33.7244 17.3734 30.5892 15.851L31.4753 14.1901C32.9747 11.3529 35.8372 9.48441 38.9724 9.2076L41.2216 9.0692C42.3802 9 42.9936 9 42.9936 9Z" fill="#1E266D"/>
</svg>
