<svg width="50" height="50" viewBox="0 0 50 50" fill="none" xmlns="http://www.w3.org/2000/svg">
<path fill-rule="evenodd" clip-rule="evenodd" d="M27.5446 6H22.5231C22.5231 6 22.4023 8.06182 22.2626 11.0033C20.741 11.1286 19.2111 11.3446 17.755 11.6036C18.4837 8.7038 19.1303 6.6786 19.1303 6.6786L13.566 9.05361C13.566 9.05361 13.0338 10.5243 12.4187 12.7827C10.161 13.3726 8.68044 13.8714 8.68044 13.8714L6.37329 19.4357C6.37329 19.4357 8.35956 18.8323 11.2136 18.1345C10.9796 19.4699 10.7884 20.8711 10.6794 22.2782C7.91158 22.4112 6 22.5233 6 22.5233V27.5447C6 27.5447 7.93351 27.6467 10.7269 27.7673C10.8551 29.1779 11.0582 30.5904 11.2982 31.9396C8.39834 31.2109 6.37313 30.5643 6.37313 30.5643L8.74813 36.1286C8.74813 36.1286 10.2189 36.6608 12.4772 37.2759C13.0671 39.5337 13.566 41.0143 13.566 41.0143L19.1303 43.3215C19.1303 43.3215 18.5269 41.3351 17.829 38.481C19.2567 38.7311 20.7596 38.9324 22.2645 39.0366C22.4034 41.9568 22.5231 44 22.5231 44H27.5446C27.5446 44 27.6548 41.9104 27.7816 38.9374C29.0855 38.8086 30.3868 38.6183 31.6341 38.3964C30.9054 41.2962 30.2588 43.3214 30.2588 43.3214L35.823 40.9464C35.823 40.9464 36.3553 39.4757 36.9703 37.2174C39.2282 36.6275 40.7088 36.1286 40.7088 36.1286L43.016 30.5643C43.016 30.5643 41.0296 31.1677 38.1754 31.8656C38.4055 30.5523 38.5943 29.1752 38.7042 27.7916C41.8005 27.6607 44 27.5447 44 27.5447V22.5233C44 22.5233 41.7813 22.3932 38.6635 22.2469C38.5353 20.8316 38.3317 19.4141 38.0909 18.0603C40.9908 18.789 43.0161 19.4357 43.0161 19.4357L40.6411 13.8714C40.6411 13.8714 39.1703 13.3391 36.9118 12.7241C36.3219 10.4662 35.823 8.98568 35.823 8.98568L30.2588 6.67854C30.2588 6.67854 30.8622 8.66487 31.56 11.519C30.3396 11.3052 29.0642 11.127 27.7796 11.0147C27.6536 8.06721 27.5446 6 27.5446 6ZM16.6669 33.1191C18.4464 33.4478 20.2885 33.7181 22.0435 33.8567C21.973 31.9618 21.9122 29.9911 21.877 28.1262C19.9355 28.0933 17.8789 28.0354 15.9126 27.9685C16.0791 29.657 16.3504 31.4177 16.6669 33.1191ZM15.8624 22.0542C17.8438 21.9791 19.9188 21.914 21.877 21.8771C21.9119 20.0259 21.972 18.0703 22.0419 16.1881C20.258 16.3507 18.3833 16.6361 16.5755 16.9724C16.2652 18.6525 16.0069 20.3884 15.8624 22.0542ZM33.5231 27.9874C33.3779 29.6405 33.1213 31.3615 32.8135 33.0277C31.2183 33.3244 29.5709 33.5815 27.9798 33.7496C28.0418 31.8876 28.095 29.9559 28.1261 28.1262C29.8817 28.0964 31.7313 28.0462 33.5231 27.9874ZM32.7221 16.8809C33.0385 18.5817 33.3098 20.3417 33.4762 22.0296C31.6992 21.9651 29.8665 21.91 28.1261 21.8771C28.0948 20.0294 28.0408 18.0776 27.9781 16.1985C29.5399 16.3473 31.1552 16.5915 32.7221 16.8809Z" fill="#296097"/>
</svg>
