<svg width="50" height="50" viewBox="0 0 50 50" fill="none" xmlns="http://www.w3.org/2000/svg">
<path d="M27.5441 35C27.5441 35 17.2864 32.3776 14.4682 31.4214C14.2145 31.3246 13.9904 31.1629 13.8182 30.9523C13.6461 30.7417 13.5319 30.4896 13.487 30.2209C12.359 25.9161 11.082 21.6514 10.0492 17.3304C9.91836 16.8708 10.0538 16.3524 10.3926 16.0163C13.5801 12.8278 16.7689 9.63794 19.9589 6.44685C20.4462 6.03659 20.7751 6 21.393 6C21.393 6 33.0112 9.15663 34.2085 9.46879C34.7708 9.61648 35.2387 9.86641 35.4199 10.4534C36.7526 14.7719 37.7743 19.2018 38.9407 23.5674C39.0942 24.0665 38.9431 24.6379 38.5634 24.995L28.9894 34.5872C28.6367 34.9533 28.0202 35 27.5441 35Z" fill="#00AF38"/>
<path d="M27.0045 15.6566H28.4046V26.8771H26.3932C24.8817 23.7671 21.9251 17.5462 21.9251 17.5462C21.8968 17.4764 21.8464 17.4179 21.7817 17.3796L21.9478 26.9301H20.5779V15.649C21.0432 15.649 21.5047 15.6794 21.9704 15.649C22.4384 15.5846 22.6384 15.7929 22.8157 16.1905C24.1672 19.2638 27.1631 25.2715 27.1631 25.2715C27.1631 25.2715 27.0045 16.8107 27.0045 15.6566Z" fill="#FEFEFE"/>
<path d="M22.0547 42.7393H21.1172C21.0651 43.0713 20.9772 43.3561 20.8535 43.5938C20.7331 43.8314 20.554 44.0137 20.3164 44.1406C20.0788 44.2676 19.7598 44.3311 19.3594 44.3311C19.0436 44.3311 18.7702 44.266 18.5391 44.1357C18.3079 44.0023 18.1175 43.82 17.9678 43.5889C17.818 43.3577 17.7057 43.0892 17.6309 42.7832C17.5592 42.4772 17.5234 42.1501 17.5234 41.8018V41.084C17.5234 40.7064 17.5641 40.363 17.6455 40.0537C17.7269 39.7445 17.8473 39.4792 18.0068 39.2578C18.1696 39.0365 18.3698 38.8656 18.6074 38.7451C18.8483 38.6247 19.1266 38.5645 19.4424 38.5645C19.8102 38.5645 20.1081 38.6296 20.3359 38.7598C20.5638 38.89 20.7396 39.0755 20.8633 39.3164C20.987 39.554 21.0716 39.8389 21.1172 40.1709H22.0547C22.0059 39.7021 21.8773 39.2904 21.6689 38.9355C21.4639 38.5775 21.1758 38.2975 20.8047 38.0957C20.4336 37.8939 19.9795 37.793 19.4424 37.793C19.0029 37.793 18.6074 37.8711 18.2559 38.0273C17.9043 38.1836 17.6032 38.4066 17.3525 38.6963C17.1051 38.986 16.9147 39.3343 16.7812 39.7412C16.651 40.1449 16.5859 40.5957 16.5859 41.0938V41.8018C16.5859 42.2998 16.651 42.7523 16.7812 43.1592C16.9147 43.5628 17.1035 43.9095 17.3477 44.1992C17.5918 44.4857 17.8831 44.707 18.2217 44.8633C18.5635 45.0195 18.9427 45.0977 19.3594 45.0977C19.929 45.0977 20.4043 44.9951 20.7852 44.79C21.166 44.5817 21.4606 44.3001 21.6689 43.9453C21.8773 43.5905 22.0059 43.1885 22.0547 42.7393Z" fill="black"/>
<path d="M27.1279 43.2031C27.1279 43.0371 27.1019 42.8906 27.0498 42.7637C27.001 42.6335 26.9131 42.5163 26.7861 42.4121C26.6624 42.3079 26.4899 42.2087 26.2686 42.1143C26.0505 42.0199 25.7738 41.9238 25.4385 41.8262C25.0869 41.722 24.7695 41.6064 24.4863 41.4795C24.2031 41.3493 23.9606 41.2012 23.7588 41.0352C23.557 40.8691 23.4023 40.6787 23.2949 40.4639C23.1875 40.249 23.1338 40.0033 23.1338 39.7266C23.1338 39.4499 23.1908 39.1943 23.3047 38.96C23.4186 38.7256 23.5814 38.5221 23.793 38.3496C24.0078 38.1738 24.2633 38.0371 24.5596 37.9395C24.8558 37.8418 25.1862 37.793 25.5508 37.793C26.0846 37.793 26.5371 37.8955 26.9082 38.1006C27.2826 38.3024 27.5674 38.5677 27.7627 38.8965C27.958 39.222 28.0557 39.5703 28.0557 39.9414H27.1182C27.1182 39.6745 27.0612 39.4385 26.9473 39.2334C26.8333 39.0251 26.6608 38.8623 26.4297 38.7451C26.1986 38.6247 25.9056 38.5645 25.5508 38.5645C25.2155 38.5645 24.9388 38.6149 24.7207 38.7158C24.5026 38.8167 24.3398 38.9535 24.2324 39.126C24.1283 39.2985 24.0762 39.4954 24.0762 39.7168C24.0762 39.8665 24.1071 40.0033 24.1689 40.127C24.234 40.2474 24.3333 40.3597 24.4668 40.4639C24.6035 40.568 24.776 40.6641 24.9844 40.752C25.196 40.8398 25.4482 40.9245 25.7412 41.0059C26.1449 41.1198 26.4932 41.2467 26.7861 41.3867C27.0791 41.5267 27.32 41.6846 27.5088 41.8604C27.7008 42.0329 27.8424 42.2298 27.9336 42.4512C28.028 42.6693 28.0752 42.9167 28.0752 43.1934C28.0752 43.4831 28.0166 43.7451 27.8994 43.9795C27.7822 44.2139 27.6146 44.4141 27.3965 44.5801C27.1784 44.7461 26.9163 44.8747 26.6104 44.9658C26.3076 45.0537 25.9691 45.0977 25.5947 45.0977C25.266 45.0977 24.9421 45.0521 24.623 44.9609C24.3073 44.8698 24.0192 44.7331 23.7588 44.5508C23.5016 44.3685 23.2949 44.1439 23.1387 43.877C22.9857 43.6068 22.9092 43.2943 22.9092 42.9395H23.8467C23.8467 43.1836 23.8939 43.3936 23.9883 43.5693C24.0827 43.7419 24.2113 43.8851 24.374 43.999C24.54 44.113 24.7272 44.1976 24.9355 44.2529C25.1471 44.305 25.3669 44.3311 25.5947 44.3311C25.9235 44.3311 26.2018 44.2855 26.4297 44.1943C26.6576 44.1032 26.8301 43.973 26.9473 43.8037C27.0677 43.6344 27.1279 43.4342 27.1279 43.2031Z" fill="black"/>
<path d="M31.2197 45H32.0547L34.6865 37.8906H33.666L31.6302 43.7514L29.6133 37.8906H28.5928L31.2197 45Z" fill="black"/>
</svg>
