<svg width="50" height="50" viewBox="0 0 50 50" fill="none" xmlns="http://www.w3.org/2000/svg">
<path d="M28.4981 41.6667C28.4981 41.6667 16.7094 38.6525 13.4705 37.5534C13.1789 37.4422 12.9214 37.2563 12.7236 37.0142C12.5257 36.7721 12.3945 36.4823 12.3429 36.1735C11.0465 31.2255 9.57898 26.3235 8.39196 21.3568C8.24162 20.8285 8.39732 20.2326 8.78663 19.8464C12.4499 16.1814 16.1146 12.5149 19.7808 8.847C20.3408 8.37543 20.7187 8.33337 21.4288 8.33337C21.4288 8.33337 34.7812 11.9617 36.1571 12.3205C36.8033 12.4902 37.3411 12.7775 37.5493 13.4522C39.0809 18.4161 40.2552 23.5078 41.5957 28.5258C41.772 29.0994 41.5984 29.7562 41.162 30.1667L30.1591 41.1922C29.7537 41.613 29.0452 41.6667 28.4981 41.6667Z" fill="#00AF38"/>
<path d="M27.878 19.4329H29.487V32.3301H27.1754C25.4383 28.7553 22.0404 21.6049 22.0404 21.6049C22.0078 21.5247 21.95 21.4574 21.8756 21.4134L22.0665 32.391H20.4921V19.4242C21.0268 19.4242 21.5572 19.4592 22.0925 19.4242C22.6303 19.3502 22.8601 19.5896 23.064 20.0466C24.6172 23.5791 28.0601 30.4845 28.0601 30.4845C28.0601 30.4845 27.878 20.7595 27.878 19.4329Z" fill="#FEFEFE"/>
</svg>
