<svg width="50" height="50" viewBox="0 0 50 50" fill="none" xmlns="http://www.w3.org/2000/svg">
<path d="M38 30H27.8953V16.8026H22.1175V29.998H12V8H38V30Z" fill="black"/>
<path d="M20.1541 40.4171H21.2205C21.165 40.9091 21.0187 41.3494 20.7817 41.738C20.5448 42.1266 20.2097 42.4349 19.7765 42.6631C19.3432 42.8877 18.8026 43 18.1547 43C17.6807 43 17.2494 42.9144 16.8606 42.7433C16.4755 42.5722 16.1441 42.3298 15.8664 42.016C15.5887 41.6988 15.374 41.3191 15.2222 40.877C15.0741 40.4314 15 39.9358 15 39.3904V38.615C15 38.0695 15.0741 37.5758 15.2222 37.1337C15.374 36.6881 15.5906 36.3066 15.872 35.9893C16.1571 35.672 16.4996 35.4278 16.8995 35.2567C17.2994 35.0856 17.7492 35 18.2491 35C18.86 35 19.3766 35.1105 19.7987 35.3316C20.2208 35.5526 20.5485 35.8592 20.7817 36.2513C21.0187 36.6399 21.165 37.0909 21.2205 37.6043H20.1541C20.1023 37.2406 20.006 36.9287 19.8653 36.6684C19.7246 36.4046 19.5247 36.2014 19.2655 36.0588C19.0063 35.9162 18.6675 35.8449 18.2491 35.8449C17.8899 35.8449 17.5734 35.9109 17.2994 36.0428C17.0291 36.1747 16.8014 36.3619 16.6162 36.6043C16.4348 36.8467 16.2978 37.1373 16.2052 37.4759C16.1127 37.8146 16.0664 38.1907 16.0664 38.6043V39.3904C16.0664 39.7718 16.1071 40.1301 16.1886 40.4652C16.2737 40.8004 16.4015 41.0945 16.5718 41.3476C16.7421 41.6007 16.9587 41.8004 17.2216 41.9465C17.4845 42.0891 17.7955 42.1604 18.1547 42.1604C18.6101 42.1604 18.973 42.0909 19.2433 41.9519C19.5136 41.8128 19.7172 41.6132 19.8542 41.3529C19.9949 41.0927 20.0949 40.7808 20.1541 40.4171Z" fill="black"/>
<path d="M27.8187 42.0535V42.893H23.5365V42.0535H27.8187ZM23.7531 35.107V42.893H22.6812V35.107H23.7531ZM27.2522 38.4545V39.2941H23.5365V38.4545H27.2522ZM27.7631 35.107V35.9519H23.5365V35.107H27.7631Z" fill="black"/>
<path d="M31.3344 42.893H29.6459L29.657 42.0535H31.3344C31.912 42.0535 32.3933 41.9376 32.7784 41.7059C33.1635 41.4706 33.4523 41.1426 33.6448 40.7219C33.8411 40.2977 33.9392 39.8021 33.9392 39.2353V38.7594C33.9392 38.3137 33.8836 37.918 33.7726 37.5722C33.6615 37.2228 33.4986 36.9287 33.2838 36.6898C33.0691 36.4474 32.8062 36.2638 32.4951 36.139C32.1878 36.0143 31.8342 35.9519 31.4343 35.9519H29.6126V35.107H31.4343C31.9638 35.107 32.447 35.1925 32.8839 35.3636C33.3208 35.5312 33.6967 35.7754 34.0114 36.0963C34.3298 36.4135 34.5742 36.7986 34.7445 37.2513C34.9148 37.7005 35 38.2068 35 38.7701V39.2353C35 39.7986 34.9148 40.3066 34.7445 40.7594C34.5742 41.2086 34.328 41.5918 34.0058 41.9091C33.6874 42.2264 33.3023 42.4706 32.8506 42.6417C32.4026 42.8093 31.8972 42.893 31.3344 42.893ZM30.218 35.107V42.893H29.1461V35.107H30.218Z" fill="black"/>
</svg>
