<svg width="50" height="50" viewBox="0 0 50 50" fill="none" xmlns="http://www.w3.org/2000/svg">
<path d="M40 32H28.3407V17.6028H21.674V31.9978H10V8H40V32Z" fill="black"/>
<path fill-rule="evenodd" clip-rule="evenodd" d="M27.1832 44.01C26.9746 44.0619 26.7519 44.0879 26.5151 44.0879C26.1372 44.0879 25.79 44.0176 25.4736 43.877C25.1602 43.7363 24.8877 43.5327 24.6562 43.2661C24.4277 42.9995 24.2505 42.6758 24.1245 42.2949C23.9985 41.9141 23.9355 41.4834 23.9355 41.0029V40.5986C23.9355 40.1182 23.9971 39.689 24.1201 39.311C24.2461 38.9302 24.4233 38.6064 24.6519 38.3398C24.8804 38.0703 25.1514 37.8652 25.4648 37.7246C25.7812 37.584 26.1284 37.5137 26.5063 37.5137C26.896 37.5137 27.249 37.584 27.5654 37.7246C27.8818 37.8652 28.1528 38.0703 28.3784 38.3398C28.604 38.6064 28.7769 38.9302 28.897 39.311C29.02 39.689 29.0815 40.1182 29.0815 40.5986V41.0029C29.0815 41.4834 29.0215 41.9141 28.9014 42.2949C28.7812 42.6758 28.6084 42.9995 28.3828 43.2661C28.2575 43.4142 28.1182 43.5428 27.9649 43.652L29.1035 44.5537L28.5322 45.0811L27.1832 44.01ZM28.2422 40.5898V41.0029C28.2422 41.3867 28.2041 41.7266 28.1279 42.0225C28.0518 42.3154 27.939 42.563 27.7896 42.7651C27.6431 42.9644 27.4629 43.1152 27.249 43.2178C27.0352 43.3203 26.7905 43.3716 26.5151 43.3716C26.2544 43.3716 26.0171 43.3203 25.8032 43.2178C25.5894 43.1152 25.4048 42.9644 25.2495 42.7651C25.0972 42.563 24.98 42.3154 24.8979 42.0225C24.8159 41.7266 24.7749 41.3867 24.7749 41.0029V40.5898C24.7749 40.209 24.8159 39.8721 24.8979 39.5791C24.98 39.2861 25.0972 39.04 25.2495 38.8408C25.4019 38.6416 25.5835 38.4907 25.7944 38.3882C26.0083 38.2856 26.2456 38.2344 26.5063 38.2344C26.7817 38.2344 27.0264 38.2856 27.2402 38.3882C27.4541 38.4907 27.6357 38.6416 27.7852 38.8408C27.9346 39.04 28.0474 39.2861 28.1235 39.5791C28.2026 39.8721 28.2422 40.209 28.2422 40.5898Z" fill="black"/>
<path d="M22.6523 44V37.6016H21.8042V44H22.6523Z" fill="black"/>
</svg>
