<svg width="50" height="50" viewBox="0 0 50 50" fill="none" xmlns="http://www.w3.org/2000/svg">
<path d="M33.532 26.3194C34.0859 26.3194 34.5118 26.4336 34.5118 26.9876V28.1818C34.5117 28.7384 34.0887 29.0168 33.532 29.0169H27.3911V26.3194H33.532Z" fill="#1A191A"/>
<path d="M33.532 20.9357C34.0859 20.9358 34.5118 21.1362 34.5118 21.6901V22.5587C34.5118 23.1125 34.0887 23.2238 33.532 23.2239H27.3911V20.9357H33.532Z" fill="#1A191A"/>
<path fill-rule="evenodd" clip-rule="evenodd" d="M24.9999 8C29.5081 8 33.8318 9.79078 37.0198 12.9783C40.2078 16.1658 41.9992 20.489 42 24.9971C42.0006 28.3595 41.004 31.6466 39.1364 34.4426C37.2687 37.2386 34.6136 39.418 31.5073 40.7051C28.4011 41.9922 24.9829 42.3293 21.685 41.6737C18.3872 41.0181 15.3578 39.3993 12.98 37.0219C10.6023 34.6445 8.98304 31.6154 8.32685 28.3177C7.67068 25.0199 8.00721 21.6016 9.2938 18.4951C10.5804 15.3886 12.7592 12.7334 15.5549 10.8652C18.3506 8.99714 21.6375 8 24.9999 8ZM11.9723 18.0574V31.9175H15.886V23.9785L24.1202 31.8786V31.9063H34.8151C36.2355 31.8901 37.639 32.2158 38.9072 32.8556C38.9058 32.8539 37.8329 31.5039 37.8468 29.0003V27.8115C37.8315 27.0589 37.5475 26.3364 37.0462 25.7749C36.5448 25.2133 35.8592 24.8496 35.1131 24.7495C35.8365 24.6472 36.4996 24.2897 36.9826 23.7415C37.4654 23.1932 37.7364 22.4902 37.7464 21.7597V20.9888C37.7464 19.5023 36.2794 18.0574 34.8151 18.0574H23.4746V25.9937L15.2151 18.0574H11.9723Z" fill="#1A191A"/>
</svg>
