<svg width="50" height="50" viewBox="0 0 50 50" fill="none" xmlns="http://www.w3.org/2000/svg">
<path fill-rule="evenodd" clip-rule="evenodd" d="M28.6526 39.05C28.6526 37.3288 30.0479 35.9334 31.7692 35.9334C33.4904 35.9334 34.8858 37.3288 34.8858 39.05C34.8858 40.7713 33.4904 42.1666 31.7692 42.1666C30.0479 42.1666 28.6526 40.7713 28.6526 39.05Z" fill="#1685FC"/>
<path fill-rule="evenodd" clip-rule="evenodd" d="M19.6409 13.7304C20.654 13.2159 21.3483 12.164 21.3483 10.9499C21.3483 9.22861 19.9529 7.83325 18.2317 7.83325C16.5104 7.83325 15.1151 9.22861 15.1151 10.9499C15.1151 12.1632 15.8085 13.2147 16.8207 13.7295V16.8208H19.6409V13.7304Z" fill="#9CC8F8"/>
<path d="M16.8207 28.9893C15.8085 29.5042 15.1151 30.5556 15.1151 31.769C15.1151 32.107 15.1689 32.4324 15.2684 32.7372L11.9187 36.0868C11.6139 35.9872 11.2883 35.9334 10.9502 35.9334C9.22892 35.9334 7.83358 37.3287 7.83358 39.05C7.83358 40.7712 9.22892 42.1666 10.9502 42.1666C12.6714 42.1666 14.0668 40.7712 14.0668 39.05C14.0668 38.7116 14.0129 38.3859 13.9131 38.0808L17.2621 34.7318C17.5673 34.8316 17.8932 34.8856 18.2317 34.8856C19.4454 34.8856 20.4971 34.1918 21.0118 33.1791H30.3589V30.3588H21.0117C20.7121 29.7693 20.2305 29.2879 19.6409 28.9884V19.641H16.8207V28.9893Z" fill="#9CC8F8"/>
<path d="M36.27 33.1791C36.7846 34.1918 37.8363 34.8856 39.0501 34.8856C40.7713 34.8856 42.1667 33.4902 42.1667 31.769C42.1667 30.0477 40.7713 28.6524 39.0501 28.6524C37.8364 28.6524 36.7847 29.3462 36.27 30.3588H33.1791V33.1791H36.27Z" fill="#9CC8F8"/>
<path d="M10.4505 16.8208V19.641H13.7302C13.9454 19.2176 14.0667 18.7384 14.0667 18.2309C14.0667 17.7234 13.9454 17.2442 13.7302 16.8208H10.4505Z" fill="#1685FC"/>
<path fill-rule="evenodd" clip-rule="evenodd" d="M35.9334 10.9499C35.9334 9.22865 37.3288 7.83329 39.05 7.83329C40.7713 7.83329 42.1666 9.22865 42.1666 10.9499C42.1666 12.6712 40.7713 14.0665 39.05 14.0665C38.7117 14.0665 38.3861 14.0126 38.0811 13.913L39.716 12.278L37.7218 10.2838L36.0869 11.9187C35.9873 11.6138 35.9334 11.2881 35.9334 10.9499ZM13.7302 16.8208H16.8207H19.6409H28.9891C29.5038 15.8081 30.5555 15.1143 31.7692 15.1143C32.1074 15.1143 32.433 15.1682 32.7379 15.2678L36.0869 11.9187C36.3947 12.8607 37.1391 13.6051 38.0811 13.913L34.7322 17.2619C34.8319 17.5669 34.8858 17.8926 34.8858 18.2309C34.8858 19.4447 34.1919 20.4965 33.1791 21.0111V30.3588V33.1791V39.2087H30.3589V33.1791V30.3588V21.0109C29.7697 20.7114 29.2885 20.2302 28.9891 19.641H19.6409H16.8207H13.7302C13.9454 19.2176 14.0667 18.7384 14.0667 18.2309C14.0667 17.7234 13.9454 17.2442 13.7302 16.8208ZM13.7302 16.8208H10.4505V19.641H13.7302C13.2155 20.6537 12.1638 21.3475 10.9501 21.3475C9.22884 21.3475 7.8335 19.9522 7.8335 18.2309C7.8335 16.5096 9.22884 15.1143 10.9501 15.1143C12.1638 15.1143 13.2155 15.8081 13.7302 16.8208ZM31.9283 17.7309V19.641H31.1848L30.3589 18.815V17.7309H31.9283Z" fill="#1685FC"/>
<path d="M31.9283 19.641V17.7309H30.3589V18.815L31.1848 19.641H31.9283Z" fill="#1685FC"/>
<path d="M39.716 12.278L37.7218 10.2838L36.0869 11.9187C36.3947 12.8607 37.1391 13.6051 38.0811 13.913L39.716 12.278Z" fill="#1685FC"/>
</svg>
