<svg width="50" height="50" viewBox="0 0 50 50" fill="none" xmlns="http://www.w3.org/2000/svg">
<rect width="50" height="50" fill="#276DE7"/>
<path d="M41.6316 36.5698H37.7003V34.0646C37.0404 35.0399 36.2579 35.7762 35.3622 36.2638C34.4665 36.761 33.5615 37 32.647 37C30.7897 37 29.2059 36.2065 27.8766 34.6287C26.5567 33.0414 25.8874 30.8327 25.8874 28.0024C25.8874 25.1722 26.5284 22.906 27.82 21.3857C29.1022 19.8749 30.7331 19.1195 32.6941 19.1195C34.5043 19.1195 36.0598 19.9132 37.3797 21.5004V13H41.6316V36.5698ZM30.2335 27.706C30.2335 30.1282 30.8347 33.4526 33.8726 33.4526C36.5953 33.4526 37.4363 30.3889 37.4363 28.1459C37.4363 25.7719 36.7532 22.5905 33.8349 22.5905C31.1543 22.5905 30.2335 25.4228 30.2335 27.6965" fill="white"/>
<path d="M24.3389 36.4809H20.0869V27.7797C20.0869 25.9439 19.9927 24.7486 19.8136 24.2131C19.4563 23.1451 18.5336 22.5016 17.4283 22.5016C15.9795 22.5016 14.6385 23.4264 14.204 24.8442C13.9872 25.5518 13.8741 26.8523 13.8741 28.755V36.4809H9.63159V19.3749H13.563V21.8801C14.9771 19.9869 16.7495 19.0403 18.8991 19.0403C21.3472 19.0403 23.5422 20.3684 24.1031 22.8458C24.2634 23.5534 24.3389 24.5574 24.3389 25.8769V36.4809Z" fill="white"/>
</svg>
