<svg width="50" height="50" viewBox="0 0 50 50" fill="none" xmlns="http://www.w3.org/2000/svg">
<path fill-rule="evenodd" clip-rule="evenodd" d="M21.8417 13.5282C21.0289 13.7 20.5482 13.9983 20.2365 14.5244C19.992 14.937 19.9969 14.8774 19.9969 17.4389V19.7432L20.5572 19.7542C20.8654 19.7603 21.137 19.7517 21.1607 19.7351C21.1944 19.7115 21.2038 19.2182 21.2038 17.4664C21.2038 14.8294 21.1825 14.9468 21.7038 14.7066L21.8762 14.6272L27.5425 14.6179C31.2855 14.6117 33.2015 14.6202 33.1876 14.6428C33.1678 14.6747 32.8469 14.8357 32.359 15.0583C32.2452 15.1102 31.9969 15.2266 31.8072 15.317C31.6176 15.4072 31.1831 15.613 30.8417 15.7741C29.4553 16.4285 29.1179 16.5886 28.4452 16.9108C28.1512 17.0516 27.7438 17.2371 27.5397 17.323C26.482 17.7685 26.111 18.2525 25.9633 19.3797C25.9402 19.5562 25.9279 22.0325 25.9279 26.5435V33.4376H23.9159C22.4812 33.4376 21.8701 33.4261 21.7865 33.3976C21.5921 33.3313 21.3829 33.1682 21.2908 33.011L21.2038 32.8626V30.5508C21.2038 28.7405 21.1945 28.2326 21.1607 28.209C21.137 28.1925 20.8654 28.1836 20.5572 28.1892L19.9969 28.1995V32.9482L20.0798 33.1934C20.2939 33.826 20.8229 34.2908 21.5366 34.4734C21.7848 34.5369 21.9277 34.541 23.8645 34.541H25.9279V35.487C25.9279 37.0778 26.1846 37.667 27.0141 37.9815C27.68 38.2338 28.0105 38.1508 30.0314 37.2238C30.1167 37.1845 30.2486 37.1255 30.3245 37.0924C30.4003 37.0593 30.5478 36.9932 30.6521 36.9457C30.7564 36.898 30.9193 36.8245 31.0141 36.7824C31.1973 36.7009 31.4326 36.5947 31.6865 36.4788C31.8567 36.4013 33.8306 35.5139 34.1348 35.3783C34.3339 35.2896 34.8474 35.044 35.5141 34.7188C35.9653 34.4986 36.2359 34.2688 36.3124 34.041C36.376 33.8513 36.4028 15.3556 36.3397 15.0583C36.1958 14.378 35.5953 13.795 34.8245 13.5869C34.6135 13.5299 22.101 13.4733 21.8417 13.5282ZM13.082 20.192C10.4638 20.8361 9.73638 25.0757 11.9236 26.9432C13.6578 28.4238 16.0958 27.3457 16.6147 24.8686C16.6386 24.7548 16.6701 24.6384 16.6847 24.61C16.7077 24.5652 16.9066 24.5582 18.1559 24.5582H19.6003L19.6188 26.2307H20.5486V25.4031C20.5486 24.7651 20.5585 24.575 20.5917 24.5734C20.6154 24.5722 20.8831 24.5712 21.1865 24.5711L21.7383 24.5708L21.7728 26.2134H22.7038L22.713 25.3945C22.72 24.7745 22.7326 24.5752 22.7647 24.5743C22.7881 24.5736 23.0555 24.5697 23.359 24.5657L23.9107 24.5582V22.6272L16.5416 22.5927L16.4906 22.4376C15.9615 20.8288 14.4747 19.8493 13.082 20.192ZM14.4665 22.2483C15.3577 22.684 15.5081 23.9088 14.7541 24.5899C14.0848 25.1945 12.9383 24.9641 12.5503 24.147C11.9575 22.8981 13.2256 21.6416 14.4665 22.2483Z" fill="#1686C8"/>
</svg>
