<svg width="50" height="50" viewBox="0 0 50 50" fill="none" xmlns="http://www.w3.org/2000/svg">
<path fill-rule="evenodd" clip-rule="evenodd" d="M14.4429 12.5772L8.94291 22.7934L8.05708 22.3419L13.5571 12.1257L14.4429 12.5772Z" fill="#93D1B7"/>
<path fill-rule="evenodd" clip-rule="evenodd" d="M41.0528 21.8121L36.0528 12.0824L36.9472 11.6473L41.9472 21.377L41.0528 21.8121Z" fill="#E6E629"/>
<path fill-rule="evenodd" clip-rule="evenodd" d="M30.5 10.4054H19.5V9.43243H30.5V10.4054Z" fill="#75C14B"/>
<path fill-rule="evenodd" clip-rule="evenodd" d="M41.4425 28.6319L36.4425 37.8752L35.5575 37.422L40.5575 28.1788L41.4425 28.6319Z" fill="#F9A240"/>
<path fill-rule="evenodd" clip-rule="evenodd" d="M16 42.027C16.8284 42.027 17.5 41.3736 17.5 40.5676C17.5 39.7615 16.8284 39.1081 16 39.1081C15.1716 39.1081 14.5 39.7615 14.5 40.5676C14.5 41.3736 15.1716 42.027 16 42.027ZM16 43C17.3807 43 18.5 41.911 18.5 40.5676C18.5 39.2242 17.3807 38.1351 16 38.1351C14.6193 38.1351 13.5 39.2242 13.5 40.5676C13.5 41.911 14.6193 43 16 43Z" fill="#0291B6"/>
<path fill-rule="evenodd" clip-rule="evenodd" d="M6.5 26.9459C7.32843 26.9459 8 26.2925 8 25.4865C8 24.6804 7.32843 24.027 6.5 24.027C5.67157 24.027 5 24.6804 5 25.4865C5 26.2925 5.67157 26.9459 6.5 26.9459ZM6.5 27.9189C7.88071 27.9189 9 26.8299 9 25.4865C9 24.1431 7.88071 23.0541 6.5 23.0541C5.11929 23.0541 4 24.1431 4 25.4865C4 26.8299 5.11929 27.9189 6.5 27.9189Z" fill="#93D1B7"/>
<path fill-rule="evenodd" clip-rule="evenodd" d="M16 10.8919C16.8284 10.8919 17.5 10.2385 17.5 9.43243C17.5 8.6264 16.8284 7.97297 16 7.97297C15.1716 7.97297 14.5 8.6264 14.5 9.43243C14.5 10.2385 15.1716 10.8919 16 10.8919ZM16 11.8649C17.3807 11.8649 18.5 10.7758 18.5 9.43243C18.5 8.08904 17.3807 7 16 7C14.6193 7 13.5 8.08904 13.5 9.43243C13.5 10.7758 14.6193 11.8649 16 11.8649Z" fill="#75C14B"/>
<path fill-rule="evenodd" clip-rule="evenodd" d="M34 10.8919C34.8284 10.8919 35.5 10.2385 35.5 9.43243C35.5 8.6264 34.8284 7.97297 34 7.97297C33.1716 7.97297 32.5 8.6264 32.5 9.43243C32.5 10.2385 33.1716 10.8919 34 10.8919ZM34 11.8649C35.3807 11.8649 36.5 10.7758 36.5 9.43243C36.5 8.08904 35.3807 7 34 7C32.6193 7 31.5 8.08904 31.5 9.43243C31.5 10.7758 32.6193 11.8649 34 11.8649Z" fill="#E5E51E"/>
<path fill-rule="evenodd" clip-rule="evenodd" d="M43.5 27.1081C44.4205 27.1081 45.1667 26.3821 45.1667 25.4865C45.1667 24.5909 44.4205 23.8649 43.5 23.8649C42.5795 23.8649 41.8333 24.5909 41.8333 25.4865C41.8333 26.3821 42.5795 27.1081 43.5 27.1081ZM43.5 27.9189C44.8807 27.9189 46 26.8299 46 25.4865C46 24.1431 44.8807 23.0541 43.5 23.0541C42.1193 23.0541 41 24.1431 41 25.4865C41 26.8299 42.1193 27.9189 43.5 27.9189Z" fill="#F9A240"/>
<path fill-rule="evenodd" clip-rule="evenodd" d="M34 42.027C34.8284 42.027 35.5 41.3736 35.5 40.5676C35.5 39.7615 34.8284 39.1081 34 39.1081C33.1716 39.1081 32.5 39.7615 32.5 40.5676C32.5 41.3736 33.1716 42.027 34 42.027ZM34 43C35.3807 43 36.5 41.911 36.5 40.5676C36.5 39.2242 35.3807 38.1351 34 38.1351C32.6193 38.1351 31.5 39.2242 31.5 40.5676C31.5 41.911 32.6193 43 34 43Z" fill="#EF3563"/>
<path d="M30.5 25C30.5 27.9555 28.0376 30.3514 25 30.3514C21.9624 30.3514 19.5 27.9555 19.5 25C19.5 22.0445 21.9624 19.6486 25 19.6486C28.0376 19.6486 30.5 22.0445 30.5 25Z" fill="#5AB1CD"/>
<path fill-rule="evenodd" clip-rule="evenodd" d="M25 28.2108C26.8225 28.2108 28.3 26.7733 28.3 25C28.3 23.2267 26.8225 21.7892 25 21.7892C23.1775 21.7892 21.7 23.2267 21.7 25C21.7 26.7733 23.1775 28.2108 25 28.2108ZM25 30.3514C28.0376 30.3514 30.5 27.9555 30.5 25C30.5 22.0445 28.0376 19.6486 25 19.6486C21.9624 19.6486 19.5 22.0445 19.5 25C19.5 27.9555 21.9624 30.3514 25 30.3514Z" fill="#13254A"/>
<path fill-rule="evenodd" clip-rule="evenodd" d="M8.92875 27.6685L14.9288 37.3983L14.0713 37.8989L8.07126 28.1691L8.92875 27.6685Z" fill="#0291B6"/>
<path fill-rule="evenodd" clip-rule="evenodd" d="M30.5 41.5405H19.5V40.5676H30.5V41.5405Z" fill="#EF3563"/>
<path d="M17 40.5676C17 41.1049 16.5523 41.5405 16 41.5405C15.4477 41.5405 15 41.1049 15 40.5676C15 40.0302 15.4477 39.5946 16 39.5946C16.5523 39.5946 17 40.0302 17 40.5676Z" fill="#0291B6"/>
<path fill-rule="evenodd" clip-rule="evenodd" d="M16 41.5405C16.5523 41.5405 17 41.1049 17 40.5676C17 40.0302 16.5523 39.5946 16 39.5946C15.4477 39.5946 15 40.0302 15 40.5676C15 41.1049 15.4477 41.5405 16 41.5405Z" fill="#0291B6"/>
<path d="M7.5 25.4865C7.5 26.0238 7.05228 26.4595 6.5 26.4595C5.94772 26.4595 5.5 26.0238 5.5 25.4865C5.5 24.9491 5.94772 24.5135 6.5 24.5135C7.05228 24.5135 7.5 24.9491 7.5 25.4865Z" fill="#93D1B7"/>
<path d="M17 9.43243C17 9.96979 16.5523 10.4054 16 10.4054C15.4477 10.4054 15 9.96979 15 9.43243C15 8.89507 15.4477 8.45946 16 8.45946C16.5523 8.45946 17 8.89507 17 9.43243Z" fill="#75C14B"/>
<path d="M34.9999 9.43243C34.9999 9.96979 34.5522 10.4054 33.9999 10.4054C33.4477 10.4054 32.9999 9.96979 32.9999 9.43243C32.9999 8.89507 33.4477 8.45946 33.9999 8.45946C34.5522 8.45946 34.9999 8.89507 34.9999 9.43243Z" fill="#E5E51E"/>
<path d="M44.5 25.4865C44.5 26.0238 44.0523 26.4595 43.5 26.4595C42.9477 26.4595 42.5 26.0238 42.5 25.4865C42.5 24.9491 42.9477 24.5135 43.5 24.5135C44.0523 24.5135 44.5 24.9491 44.5 25.4865Z" fill="#F9A240"/>
<path d="M35 40.5676C35 41.1049 34.5523 41.5405 34 41.5405C33.4477 41.5405 33 41.1049 33 40.5676C33 40.0302 33.4477 39.5946 34 39.5946C34.5523 39.5946 35 40.0302 35 40.5676Z" fill="#EF3563"/>
<path fill-rule="evenodd" clip-rule="evenodd" d="M24.0878 13.6939L19.2512 10.9579L18.7486 11.7991L23.6051 14.5462C23.592 14.6236 23.5853 14.703 23.5853 14.7839C23.5853 14.9299 23.6073 15.0709 23.6483 15.2039L17.5952 18.6514C17.4325 18.4823 17.229 18.351 16.9999 18.2722V12.838H15.9999V18.2723C15.4174 18.4726 15 19.0132 15 19.6486C15 19.8024 15.0244 19.9506 15.0697 20.0898L9.74745 23.121L10.2526 23.9607L15.6789 20.8702C15.7783 20.9336 15.886 20.9858 15.9999 21.025V29.4262C15.8004 29.4772 15.6171 29.5672 15.4591 29.6872L9.63605 26.3685L9.13062 27.2081L14.9204 30.5078C14.8952 30.6139 14.8819 30.7244 14.8819 30.838C14.8819 31.5156 15.3565 32.0853 15.9999 32.2497V37.3145H16.9999V32.1682C17.1444 32.1045 17.2766 32.0193 17.3923 31.9166L23.5292 35.4142C23.5138 35.4893 23.5042 35.5665 23.5011 35.6452L18.244 38.6898L18.7555 39.5259L23.8138 36.5964C24.0882 36.9407 24.5175 37.1623 24.9999 37.1623C25.3734 37.1623 25.7151 37.0294 25.9777 36.8097L30.7471 39.5279L31.2525 38.6883L26.4756 35.9659C26.4916 35.8805 26.4999 35.7926 26.4999 35.7028C26.4999 35.4934 26.4546 35.2943 26.373 35.1143L32.5914 31.5129C32.7141 31.6039 32.8517 31.6769 32.9999 31.7279V37.1623H33.9999V31.7279C34.5825 31.5275 34.9999 30.9869 34.9999 30.3515C34.9999 30.2755 34.994 30.201 34.9825 30.1282L39.7555 27.3639L39.244 26.5278L34.5079 29.2707C34.3619 29.1417 34.1897 29.0403 33.9999 28.9751V21.0252C34.1944 20.9583 34.3705 20.8535 34.5188 20.7198L40.2486 23.961L40.7512 23.1198L34.9846 19.8579C34.9947 19.7896 34.9999 19.7198 34.9999 19.6488C34.9999 19.0133 34.5825 18.4727 33.9999 18.2724V12.838H32.9999V18.2724C32.8465 18.3251 32.7046 18.4014 32.5787 18.4969L26.5526 15.0881C26.574 14.99 26.5853 14.8882 26.5853 14.7839C26.5853 14.7427 26.5835 14.7019 26.5801 14.6615L30.7526 12.285L30.2474 11.4454L26.1648 13.7706C25.892 13.4955 25.5092 13.3244 25.0853 13.3244C24.7023 13.3244 24.3529 13.4641 24.0878 13.6939ZM16.9999 21.0251V29.5078C17.52 29.7369 17.8819 30.2463 17.8819 30.838C17.8819 30.9129 17.8761 30.9865 17.8649 31.0584L24.0426 34.5792C24.3023 34.3695 24.636 34.2434 24.9999 34.2434C25.2379 34.2434 25.4629 34.2973 25.6628 34.3933L32.0426 30.6985C32.0147 30.5873 31.9999 30.471 31.9999 30.3515C31.9999 29.716 32.4173 29.1754 32.9999 28.9751V21.0252C32.4173 20.8248 31.9999 20.2842 31.9999 19.6488C31.9999 19.5346 32.0134 19.4236 32.0388 19.317L26.0297 15.9178C25.7719 16.1214 25.4432 16.2434 25.0853 16.2434C24.7733 16.2434 24.4837 16.1507 24.2437 15.9922L17.9966 19.5502C17.9989 19.5827 18 19.6155 18 19.6486C18 20.2841 17.5826 20.8248 16.9999 21.0251Z" fill="#4B4866"/>
</svg>
