<svg width="50" height="50" viewBox="0 0 50 50" fill="none" xmlns="http://www.w3.org/2000/svg">
<path d="M23.455 16.3267C25.4239 18.2955 25.4239 21.4882 23.455 23.457C21.4862 25.4258 18.2936 25.4258 16.3247 23.457C14.3559 21.4882 14.3559 18.2955 16.3247 16.3267C18.2936 14.3579 21.4862 14.3579 23.455 16.3267Z" fill="#55565A"/>
<path d="M43.8882 16.3267C41.9193 14.3579 38.7267 14.3579 36.7579 16.3267C35.8001 17.2845 35.3212 18.5084 35.2946 19.7322C35.2147 21.1157 34.8157 22.446 33.7514 23.5102C33.2725 23.9891 32.7138 24.3616 32.1551 24.6011C33.778 25.1864 35.0551 26.4634 35.6404 28.0864C35.8799 27.5011 36.2258 26.9689 36.7313 26.49C37.7955 25.4258 39.1258 25.0001 40.5093 24.9469C41.7597 24.9203 42.9836 24.4148 43.9148 23.4836C45.857 21.4882 45.857 18.2955 43.8882 16.3267ZM42.1322 21.701C41.6533 22.1799 40.9882 22.446 40.323 22.446C39.6313 22.446 38.9927 22.1799 38.5138 21.701C37.5028 20.69 37.5028 19.0671 38.5138 18.0561C38.9927 17.5772 39.6579 17.3111 40.323 17.3111C41.0148 17.3111 41.6533 17.5772 42.1322 18.0561C42.6111 18.535 42.8772 19.2001 42.8772 19.8653C42.9038 20.5836 42.6377 21.2221 42.1322 21.701Z" fill="#00A7CE"/>
<path fill-rule="evenodd" clip-rule="evenodd" d="M13.2917 23.5102C13.7972 23.0313 14.1431 22.4726 14.3826 21.9139C14.9679 23.5102 16.245 24.7873 17.8413 25.3726C17.2826 25.6387 16.7239 25.9846 16.245 26.4635C15.23 27.4784 14.8201 28.7353 14.715 30.0496C14.7069 28.7699 14.2147 27.4928 13.2385 26.5166C12.2736 25.5517 11.0147 25.0597 9.74995 25.0406C11.0481 24.9495 12.2882 24.5138 13.2917 23.5102ZM9.74995 25.0406C9.67141 25.0461 9.59266 25.0503 9.51374 25.0534L14.7018 30.2415C14.7055 30.1774 14.7099 30.1134 14.715 30.0496C14.7233 31.3506 14.2311 32.6543 13.2385 33.6469C11.2697 35.6157 8.07702 35.6157 6.1082 33.6469C4.13939 31.6781 4.13939 28.4854 6.1082 26.5166C7.11209 25.5127 8.43417 25.0207 9.74995 25.0406Z" fill="#FF8300"/>
<path d="M9.51374 25.0534L14.7018 30.2415C14.7055 30.1774 14.7099 30.1134 14.715 30.0496C14.7069 28.7699 14.2147 27.4928 13.2385 26.5166C12.2736 25.5517 11.0147 25.0597 9.74995 25.0406C9.67141 25.0461 9.59266 25.0503 9.51374 25.0534Z" fill="#FF8300"/>
<path fill-rule="evenodd" clip-rule="evenodd" d="M24.945 19.7323C24.9982 21.1158 25.4239 22.446 26.4881 23.5103C27.5523 24.5745 28.8826 25.0002 30.2395 25.0534L30.2249 25.068C28.8953 25.037 27.5558 25.5287 26.5413 26.5432C25.5268 27.5578 25.035 28.8973 25.0661 30.2268L25.0514 30.2415C24.9982 28.858 24.5725 27.5277 23.5083 26.4635C22.4441 25.3993 21.1138 25.0002 19.7303 24.9204L24.945 19.7323ZM25.0661 30.2268C25.0953 31.4774 25.587 32.7192 26.5413 33.6735C28.5101 35.6423 31.7028 35.6423 33.6716 33.6735C35.6404 31.7047 35.6404 28.512 33.6716 26.5432C32.7173 25.5889 31.4755 25.0972 30.2249 25.068L25.0661 30.2268Z" fill="#55565A"/>
<path d="M30.2249 25.068C28.8953 25.037 27.5558 25.5287 26.5413 26.5432C25.5268 27.5578 25.035 28.8973 25.0661 30.2268L30.2249 25.068Z" fill="#55565A"/>
</svg>
