<svg width="50" height="50" viewBox="0 0 50 50" fill="none" xmlns="http://www.w3.org/2000/svg">
<path d="M40.8741 24.9973C40.918 26.7986 40.6133 28.5481 40.0062 30.2385C38.5495 34.2887 35.8898 37.2994 32.0542 39.2427C30.1013 40.2327 28.0184 40.8215 25.8158 40.8741C19.1618 41.0321 14.2173 38.1394 10.9234 32.4068C9.77463 30.4068 9.22817 28.2066 9.11967 25.8972C8.90907 21.4234 10.3091 17.5272 13.3174 14.2213C15.9261 11.355 19.1785 9.70122 23.0197 9.20343C23.6778 9.11807 24.3431 9.02872 25.0037 9.08855C26.0886 9.18747 26.7619 9.91422 26.7276 10.8699C26.6933 11.8336 25.9339 12.5205 24.8489 12.5436C23.7528 12.5659 22.6703 12.692 21.6252 13.0175C16.6672 14.5579 13.678 17.9236 12.7303 22.9878C11.4004 30.0933 16.5858 36.3517 23.1976 37.3465C23.8031 37.4374 24.4125 37.4813 24.8936 37.4613C31.274 37.4518 36.6189 32.7291 37.356 26.5593C37.4127 26.0854 37.4278 25.6068 37.455 25.1297C37.5044 24.257 37.9336 23.6004 38.6077 23.3779C39.7589 22.9981 40.8446 23.7688 40.8741 24.9973Z" fill="white"/>
<path d="M24.9949 23.1736C25.9857 23.1736 26.8186 24.0089 26.8178 25.0021C26.817 26.0001 25.9897 26.8249 24.9909 26.8217C23.9722 26.8186 23.1712 26.0152 23.1728 24.9981C23.1736 23.9905 23.9889 23.1736 24.9949 23.1736Z" fill="white"/>
<path d="M33.6505 24.3184C33.8723 24.8816 33.8021 25.4775 33.7351 26.0543C33.246 30.2736 29.499 33.901 24.9183 33.7805C20.1717 33.7965 16.2978 29.9027 16.2045 25.1537C16.1199 20.8282 19.3357 16.8435 23.8541 16.2659C24.261 16.2141 24.6774 16.2133 25.0882 16.2308C26.012 16.2707 26.7204 17.003 26.738 17.9061C26.7555 18.8044 26.1102 19.5351 25.1959 19.6444C24.6423 19.7098 24.0863 19.7417 23.543 19.8901C20.076 20.8386 18.5236 25.0475 20.5682 27.9705C22.7979 31.1591 27.4647 31.1105 29.4942 27.8828C30.0965 26.9255 30.2481 25.8565 30.3574 24.7643C30.4388 23.949 31.053 23.3755 31.8859 23.2694C32.5839 23.1808 33.3848 23.6443 33.6505 24.3184Z" fill="white"/>
<path d="M25.0133 5.02002C35.9743 5.02641 45.0025 14.0538 44.9793 25.0436C44.9562 35.9775 35.9584 45.0408 25.0061 44.961C14.0354 45.0487 5.00727 35.956 5.02003 24.9757C5.032 14.0274 14.0442 5.01284 25.0133 5.02002ZM40.0062 30.2385C40.6133 28.5481 40.918 26.7986 40.8741 24.9973C40.8446 23.7688 39.7589 22.9981 38.6077 23.3779C37.9336 23.6004 37.5044 24.257 37.455 25.1297C37.4278 25.6068 37.4127 26.0854 37.356 26.5593C36.6189 32.7291 31.274 37.4518 24.8936 37.4613C24.4125 37.4813 23.8031 37.4374 23.1976 37.3465C16.5858 36.3517 11.4004 30.0933 12.7303 22.9878C13.678 17.9236 16.6672 14.5579 21.6252 13.0175C22.6703 12.692 23.7528 12.5659 24.8489 12.5436C25.9339 12.5205 26.6933 11.8336 26.7276 10.8699C26.7619 9.91422 26.0886 9.18747 25.0037 9.08855C24.3431 9.02872 23.6778 9.11807 23.0197 9.20343C19.1785 9.70122 15.9261 11.355 13.3174 14.2213C10.3091 17.5272 8.90907 21.4234 9.11967 25.8972C9.22817 28.2066 9.77463 30.4068 10.9234 32.4068C14.2173 38.1394 19.1618 41.0321 25.8158 40.8741C28.0184 40.8215 30.1013 40.2327 32.0542 39.2427C35.8898 37.2994 38.5495 34.2887 40.0062 30.2385ZM33.7351 26.0543C33.8021 25.4775 33.8723 24.8816 33.6505 24.3184C33.3848 23.6443 32.5839 23.1808 31.8859 23.2694C31.053 23.3755 30.4388 23.949 30.3574 24.7643C30.2481 25.8565 30.0965 26.9255 29.4942 27.8828C27.4647 31.1105 22.7979 31.1591 20.5682 27.9705C18.5236 25.0475 20.076 20.8386 23.543 19.8901C24.0863 19.7417 24.6423 19.7098 25.1959 19.6444C26.1102 19.5351 26.7555 18.8044 26.738 17.9061C26.7204 17.003 26.012 16.2707 25.0882 16.2308C24.6774 16.2133 24.261 16.2141 23.8541 16.2659C19.3357 16.8435 16.1199 20.8282 16.2045 25.1537C16.2978 29.9027 20.1717 33.7965 24.9183 33.7805C29.499 33.901 33.246 30.2736 33.7351 26.0543ZM26.8178 25.0021C26.8186 24.0089 25.9857 23.1736 24.9949 23.1736C24.0041 23.1736 23.1736 23.9905 23.1728 24.9981C23.1712 26.0152 23.9722 26.8186 24.9909 26.8217C25.9897 26.8249 26.817 26.0001 26.8178 25.0021Z" fill="#0073CB"/>
</svg>
