<svg width="50" height="50" viewBox="0 0 50 50" fill="none" xmlns="http://www.w3.org/2000/svg">
<path d="M7.80516 29.2582L6.30282 26.1127V26.1009H5V30.2324H5.86854V26.899L7.41784 30.2206V30.2324H8.66197V26.1009H7.80516V29.2582Z" fill="black"/>
<path d="M10.4577 28.4483H12.2066V27.7441H10.4577V26.8051H12.3239V26.1009H9.54226V30.2324H12.3826V29.5164H10.4577V28.4483Z" fill="black"/>
<path d="M12.8169 26.1009V26.8169H14.0376V30.2324H14.9531V26.8169H16.1737V26.1009H12.8169Z" fill="black"/>
<path d="M17.23 29.0235C17.2418 29.3051 17.277 29.8333 18.216 29.8333C19.061 29.8333 19.1784 29.3051 19.1784 29.1056C19.1784 28.6479 18.8146 28.554 18.2394 28.4131C17.6174 28.2605 17.3357 28.1901 17.1244 28.0493C16.7958 27.8263 16.7019 27.5211 16.7019 27.2394C16.7019 26.4061 17.4883 26.0422 18.2629 26.0422C18.5329 26.0422 19.0845 26.0892 19.4131 26.4413C19.6362 26.6878 19.6479 26.9695 19.6596 27.1338H19.0728C19.0493 26.6291 18.615 26.5117 18.216 26.5117C17.6526 26.5117 17.3122 26.7699 17.3122 27.169C17.3122 27.5328 17.547 27.662 18.0516 27.7793C19.0258 28.0258 19.1315 28.0493 19.3779 28.2136C19.7535 28.4601 19.7887 28.8591 19.7887 29.0235C19.7887 29.7512 19.2254 30.3028 18.169 30.3028C17.8521 30.3028 17.2183 30.2559 16.9014 29.8333C16.6667 29.5282 16.6667 29.1995 16.6667 29.0117H17.23V29.0235Z" fill="black"/>
<path d="M21.2207 26.1244V28.6596C21.2207 29.0939 21.3146 29.2817 21.3967 29.399C21.6549 29.7394 22.0423 29.7981 22.3357 29.7981C23.439 29.7981 23.439 28.9296 23.439 28.6361V26.1244H23.9906V28.6479C23.9906 28.8709 23.9906 29.3286 23.6502 29.7394C23.2512 30.2441 22.6291 30.3028 22.3357 30.3028C21.9484 30.3028 21.2676 30.1972 20.892 29.6455C20.7629 29.4695 20.6573 29.223 20.6573 28.6127V26.1244H21.2207Z" fill="black"/>
<path d="M25.1643 26.1244H25.7277V30.2089H25.1643V26.1244Z" fill="black"/>
<path d="M27.9225 30.2206V26.6056H26.5493V26.1244H29.8474V26.6056H28.4859V30.2089H27.9225V30.2206Z" fill="black"/>
<path d="M30.5282 26.1244H33.0986V26.6056H31.1033V27.885H33.0047V28.3662H31.1033V29.7277H33.1455V30.2206H30.5282V26.1244Z" fill="black"/>
<path d="M21.6549 22.2629H24.2019L22.8521 20.0915L20.3756 24.0117H19.2488L22.2535 19.3052C22.3826 19.1174 22.6056 19 22.8404 19C23.0751 19 23.2981 19.1174 23.4155 19.2934L26.4319 24.0117H25.3052L24.777 23.1315H22.1948L21.6549 22.2629ZM33.3451 23.1432V19.0469H32.3944V23.5423C32.3944 23.6596 32.4413 23.7887 32.5352 23.8709C32.6291 23.9648 32.7465 24.0117 32.8873 24.0117H37.2418L37.8052 23.1315L33.3451 23.1432ZM17.5469 22.4038C18.4742 22.4038 19.2254 21.6526 19.2254 20.7254C19.2254 19.7981 18.4742 19.0469 17.5469 19.0469H13.3685V24.0117H14.3192V19.9272H17.4883C17.9343 19.9272 18.2864 20.2911 18.2864 20.7254C18.2864 21.1714 17.9225 21.5352 17.4883 21.5352H14.8005L17.6526 24.0235H19.0376L17.1127 22.4038H17.5469ZM7.48826 24.0235H10.3756C11.7488 24.0235 12.8521 22.9085 12.8521 21.547C12.8521 20.1737 11.7488 19.0587 10.3756 19.0587H7.48826C6.11502 19.0587 5 20.1737 5 21.547C5.01174 22.9085 6.12676 24.0235 7.48826 24.0235ZM10.3169 23.1432H7.55869C6.66667 23.1432 5.9507 22.4272 5.9507 21.5352C5.9507 20.6432 6.66667 19.9272 7.55869 19.9272H10.3169C11.2089 19.9272 11.9249 20.6432 11.9249 21.5352C11.9249 22.4272 11.2089 23.1432 10.3169 23.1432ZM28.4507 24.0235H31.3967L31.9601 23.1549H28.5211C27.6291 23.1549 26.9131 22.439 26.9131 21.547C26.9131 20.6549 27.6291 19.939 28.5211 19.939H31.3263L31.8897 19.0587H28.4624C27.0892 19.0587 25.9742 20.1737 25.9742 21.547C25.9624 22.9085 27.0775 24.0235 28.4507 24.0235ZM40.1291 23.1432C39.3897 23.1432 38.7676 22.6502 38.5798 21.9695H42.6643L43.2277 21.0892H38.5798C38.7676 20.4084 39.3897 19.9155 40.1291 19.9155H42.9343L43.4977 19.0352H40.0704C38.6972 19.0352 37.5822 20.1502 37.5822 21.5235C37.5822 22.8967 38.6972 24 40.0704 24H43.0164L43.5798 23.1315L40.1291 23.1432Z" fill="#ED1C24"/>
</svg>
