<svg width="50" height="50" viewBox="0 0 50 50" fill="none" xmlns="http://www.w3.org/2000/svg">
<path fill-rule="evenodd" clip-rule="evenodd" d="M22.7143 12.9892V9H13.7692C11.1319 9 9 11.1332 9 13.7663V22.7159H12.9874C13.9179 17.7967 17.7943 13.9198 22.7143 12.9892Z" fill="#1072BA"/>
<path fill-rule="evenodd" clip-rule="evenodd" d="M20.7934 31.2982L15.3434 35.8945C14.5038 36.6061 13.2466 36.5012 12.5357 35.6619L12.3211 35.4077C11.6099 34.5682 11.7133 33.3104 12.5549 32.599L18.016 27.9906C17.5984 27.0424 17.3666 25.9946 17.3666 24.8921C17.3666 20.6402 20.815 17.1921 25.0671 17.1921C29.3192 17.1921 32.7671 20.6402 32.7671 24.8921C32.7671 29.1448 29.3192 32.5929 25.0671 32.5929C23.4858 32.5932 22.0161 32.1162 20.7934 31.2982ZM25.0001 21.3854C26.997 21.3854 28.6184 23.006 28.6184 25.0018C28.6184 26.9994 26.9972 28.6198 25.0001 28.6198C23.0028 28.6198 21.3838 26.9994 21.3838 25.0018C21.3838 23.0057 23.0025 21.3854 25.0001 21.3854Z" fill="#1072BA"/>
<path fill-rule="evenodd" clip-rule="evenodd" d="M27.286 37.014V41.0033H36.2311C38.8671 41.0033 41 38.8674 41 36.2341V27.2876H37.0126C36.0821 32.2066 32.2052 36.0838 27.286 37.014Z" fill="#1072BA"/>
<path fill-rule="evenodd" clip-rule="evenodd" d="M37.0124 22.7162H40.9997V13.7663C40.9997 11.1332 38.8668 9 36.2308 9H27.2857V12.9892C32.2052 13.9198 36.0821 17.7967 37.0124 22.7162Z" fill="#D9272E"/>
</svg>
