<svg width="50" height="50" viewBox="0 0 50 50" fill="none" xmlns="http://www.w3.org/2000/svg">
<path fill-rule="evenodd" clip-rule="evenodd" d="M42.48 24.2356C42.48 14.1619 34.3137 5.99561 24.24 5.99561C14.1663 5.99561 6 14.1619 6 24.2356C6 34.3093 14.1663 42.4756 24.24 42.4756C34.4671 42.4756 42.48 34.995 42.48 24.2356ZM35.7337 35.6709C39.7494 31.6349 41.3636 25.6152 39.9268 20.1216C39.8119 20.1491 39.6922 20.1773 39.5679 20.2061C38.3717 26.503 35.6976 30.9447 32.782 34.0734C33.9529 34.7993 34.9854 35.3248 35.7337 35.6709ZM29.5873 34.3531C27.7852 33.0187 25.855 31.2832 24.132 29.0922C21.6233 30.7815 18.7711 32.0368 15.7421 32.7897C17.7988 35.883 20.2278 37.7911 22.1406 38.9521C24.8189 37.7347 27.3632 36.3053 29.5873 34.3531ZM31.0746 32.93C29.3315 31.6715 27.447 30.0168 25.7654 27.8915C28.0145 26.089 29.9135 23.9019 31.3154 21.3905C33.6163 21.2625 35.7115 20.9662 37.4086 20.6535C36.1902 26.2498 33.7178 30.1717 31.0746 32.93ZM24.4186 40.1309C26.1925 39.2742 28.7618 37.8571 31.3033 35.5367C32.3433 36.2041 33.2928 36.7268 34.08 37.1226C31.5774 39.0364 28.501 40.2377 25.1537 40.4236C24.9061 40.3327 24.661 40.2349 24.4186 40.1309ZM13.6181 33.23C12.7426 33.376 11.8561 33.4808 10.9624 33.5426C13.0706 36.5448 16.1712 38.7994 19.7876 39.8299C17.7826 38.4096 15.4974 36.2811 13.6181 33.23ZM9.77762 31.5721C10.7196 31.5456 11.6523 31.4686 12.571 31.3432C10.7945 27.774 9.57936 23.1444 9.63828 17.18C8.60564 19.3131 8.02667 21.7067 8.02667 24.2356C8.02667 26.8761 8.65787 29.3691 9.77762 31.5721ZM11.7126 15.5802C11.3835 22.3481 12.7217 27.3276 14.6582 30.9704C17.675 30.3019 20.4949 29.1027 22.9457 27.4572C21.5586 25.3782 20.3812 22.951 19.6204 20.1404C16.771 19.2422 14.0336 17.8021 11.7126 15.5802ZM24.5768 26.2514C26.2666 24.8779 27.7304 23.2681 28.8974 21.4567C26.6609 21.4526 24.2781 21.26 21.916 20.7474C22.5935 22.8232 23.5179 24.6501 24.5768 26.2514ZM32.3383 19.2887C35.2202 19.0524 37.698 18.5649 39.2887 18.1901C38.1739 15.4176 36.3151 13.0243 33.9594 11.2573C33.9362 14.1587 33.359 16.8509 32.3383 19.2887ZM30.0431 19.4153C29.9391 19.4181 29.8347 19.4206 29.73 19.4227C26.9937 19.4763 24.0899 19.2503 21.3097 18.5195C20.663 15.5791 20.5039 12.1997 21.0831 8.32943C24.7412 7.60751 28.615 8.17726 31.9028 9.94379C32.0861 13.4222 31.3965 16.6134 30.0431 19.4153ZM18.9589 8.90181C16.3822 9.78907 14.0993 11.3075 12.295 13.2724C14.2271 15.4101 16.5778 16.8634 19.1062 17.8187C18.6436 15.1597 18.5473 12.1954 18.9589 8.90181Z" fill="#6D6D6D"/>
<path d="M44 17.3956C44 22.2964 36.4 22.2964 36.4 17.3956C36.4 15.2969 38.1013 13.5956 40.2 13.5956C42.2987 13.5956 44 15.2969 44 17.3956Z" fill="#FF671F"/>
<path d="M16.1333 13.3423C16.1333 15.441 14.432 17.1423 12.3333 17.1423C10.2347 17.1423 8.53333 15.441 8.53333 13.3423C8.53333 11.2436 10.2347 9.54227 12.3333 9.54227C14.432 9.54227 16.1333 11.2436 16.1333 13.3423Z" fill="#FF671F"/>
<path d="M24.7467 40.1956C24.7467 42.2943 23.0453 43.9956 20.9467 43.9956C18.848 43.9956 17.1467 42.2943 17.1467 40.1956C17.1467 38.0969 18.848 36.3956 20.9467 36.3956C23.0453 36.3956 24.7467 38.0969 24.7467 40.1956Z" fill="#FF671F"/>
</svg>
