<svg width="50" height="50" viewBox="0 0 50 50" fill="none" xmlns="http://www.w3.org/2000/svg">
<path d="M9.7334 35.8906V43H8.78613L5.20703 37.5166V43H4.26465V35.8906H5.20703L8.80078 41.3887V35.8906H9.7334Z" fill="black"/>
<path d="M13.459 43.0977C12.0001 43.0977 11.0322 41.9355 11.0322 40.5439C11.0322 39.1484 11.7509 37.6191 13.3418 37.6191C15.0072 37.6191 15.5146 39.1516 15.5146 40.6123H11.5693V39.875H14.6113C14.6113 39.0893 14.1768 38.3613 13.3418 38.3613C12.177 38.3613 11.9404 39.6294 11.9404 40.5439C11.9404 41.4612 12.5004 42.3604 13.5078 42.3604C14.1458 42.3604 14.5674 42.0788 14.8994 41.6426L15.4463 42.0771C15.1058 42.5928 14.5117 43.0977 13.459 43.0977Z" fill="black"/>
<path d="M18.7812 37.7168V38.4102H15.9248V37.7168H18.7812ZM16.8916 36.4326H17.7949V41.6914C17.7949 42.2927 18.2782 42.3833 18.8008 42.2627L18.8057 43C17.734 43.341 16.8916 42.7769 16.8916 41.6865V36.4326Z" fill="black"/>
<path d="M21.1787 42.0625L22.5361 37.7168H23.1318L23.0146 38.5811L21.6328 43H21.0518L21.1787 42.0625ZM20.2656 37.7168L21.4229 42.1113L21.5059 43H20.8955L19.3623 37.7168H20.2656ZM24.4307 42.0771L25.5342 37.7168H26.4326L24.8994 43H24.2939L24.4307 42.0771ZM23.2637 37.7168L24.5918 41.9893L24.7432 43H24.167L22.7461 38.5713L22.6289 37.7168H23.2637Z" fill="black"/>
<path d="M27.1211 40.417C27.1211 38.977 27.9937 37.6191 29.5186 37.6191C31.0652 37.6191 31.9307 38.9999 31.9307 40.417C31.9307 41.8338 30.9951 43.0977 29.5283 43.0977C28.0385 43.0977 27.1211 41.9381 27.1211 40.417ZM28.0244 40.417C28.0244 41.464 28.5213 42.3555 29.5283 42.3555C30.5526 42.3555 31.0225 41.3325 31.0225 40.417C31.0225 39.4766 30.5994 38.3613 29.5186 38.3613C28.4209 38.3613 28.0244 39.4962 28.0244 40.417Z" fill="black"/>
<path d="M33.9668 43H33.0635V37.7168H33.9424L33.9668 43ZM35.6172 37.6875L35.6123 38.5273C35.2918 38.4577 34.9258 38.4616 34.6211 38.5859C34.1464 38.7797 33.8896 39.221 33.8301 39.8066L33.5762 39.9531C33.5762 38.991 33.8643 38.1631 34.4746 37.8047C34.7724 37.6279 35.2864 37.5221 35.6172 37.6875Z" fill="black"/>
<path d="M37.3604 35.5V43H36.4521V35.5H37.3604ZM40.5879 37.7168L38.2832 40.1826L36.9941 41.5205L36.9209 40.5586L39.4844 37.7168H40.5879ZM39.7627 43L37.8779 40.4805L38.3467 39.6748L40.8271 43H39.7627Z" fill="black"/>
<path d="M44.5967 41.5986C44.5967 40.9638 43.8926 40.786 43.3809 40.6855C42.2271 40.442 41.4766 40.0429 41.4766 39.1621C41.4766 38.1529 42.5344 37.6191 43.4346 37.6191C44.4073 37.6191 45.4463 38.1736 45.4463 39.2695H44.543C44.543 38.8304 44.1532 38.3613 43.4346 38.3613C42.6981 38.3613 42.3848 38.7405 42.3848 39.1377C42.3848 39.5193 42.5972 39.7287 43.6006 39.9531C44.8994 40.2461 45.5 40.6807 45.5 41.5303C45.5 42.6214 44.401 43.0977 43.459 43.0977C42.444 43.0977 41.2959 42.5039 41.2959 41.3691H42.2041C42.2392 42.0357 42.8366 42.3555 43.459 42.3555C44.2096 42.3555 44.5967 42.0356 44.5967 41.5986Z" fill="black"/>
<path d="M15.1976 6.88889C15.1976 5.2934 16.4515 4 17.9982 4H27.2205C27.5919 4 27.948 4.15218 28.2106 4.42307L34.392 10.7992C34.6546 11.07 34.8021 11.4374 34.8021 11.8205V27.1111C34.8021 28.7066 33.5482 30 32.0015 30H17.9982C16.4515 30 15.1976 28.7066 15.1976 27.1111V6.88889Z" fill="white"/>
<path fill-rule="evenodd" clip-rule="evenodd" d="M27.2205 4C27.5919 4 27.948 4.15218 28.2106 4.42307L34.392 10.7992C34.6546 11.07 34.8021 11.4374 34.8021 11.8205V27.1111C34.8021 28.7066 33.5482 30 32.0015 30H17.9982C16.4515 30 15.1976 28.7066 15.1976 27.1111V6.88889C15.1976 5.2934 16.4515 4 17.9982 4H27.2205ZM27.1003 9.05556C27.1003 10.651 28.3542 11.9444 29.901 11.9444H34.1019V27.1111C34.1019 28.3077 33.1615 29.2778 32.0015 29.2778H17.9982C16.8382 29.2778 15.8977 28.3077 15.8977 27.1111V6.88889C15.8977 5.69227 16.8382 4.72222 17.9982 4.72222H27.1003V9.05556ZM27.8005 9.05556C27.8005 10.2522 28.7409 11.2222 29.901 11.2222H33.8119L27.8005 5.02141V9.05556Z" fill="#AEB7CC"/>
<path d="M35.5157 25.9073C36.3323 25.9064 36.9991 25.2132 37 24.4027V16.8193C36.9991 16.0088 36.3323 15.3156 35.5157 15.3147H14.4843C13.6677 15.3156 13.0009 16.0088 13 16.8193V24.4027C13.0009 25.2132 13.6677 25.9064 14.4843 25.9073H35.5157ZM29.2437 17.6128L30.7226 21.9971L32.1536 17.6128H33.4046L31.312 23.5373H30.0524L27.9637 17.6128H29.2437ZM24.8581 20.9422C23.9563 20.7157 22.9784 20.2154 22.9886 19.1643C22.9884 18.0188 24.1222 17.4852 25.1215 17.5111C26.2236 17.5111 27.3645 18.0516 27.3616 19.3052L26.1818 19.3576C26.1292 18.7968 25.6564 18.4607 25.1096 18.5011C24.7452 18.48 24.1062 18.6117 24.117 19.083C24.1183 19.6555 24.9693 19.7412 25.3766 19.8386C26.4359 20.058 27.5593 20.5569 27.5287 21.8217C27.4979 23.0977 26.3216 23.6751 25.1891 23.6408C23.9359 23.6408 22.8614 22.9436 22.7775 21.6082L23.9256 21.4953C24.0008 22.1566 24.5199 22.6677 25.2011 22.6308C25.7069 22.6681 26.34 22.3859 26.3492 21.8145C26.3657 21.1364 25.3256 21.06 24.8581 20.9422ZM19.6672 17.5116C20.765 17.4645 21.7523 18.1753 22.0072 19.245L20.8392 19.5271C20.7301 18.9457 20.2019 18.5101 19.6075 18.5331C18.4918 18.4969 18.1485 19.6224 18.1485 20.5375C18.1485 21.4514 18.441 22.6483 19.5834 22.6144C20.2905 22.6285 20.7703 22.0084 20.8788 21.3579L22.0228 21.7255C21.7687 22.8735 20.7811 23.6848 19.5952 23.6362C17.9004 23.6894 16.9327 22.1699 16.9327 20.6259C16.9329 19.0232 17.8894 17.4395 19.6672 17.5116Z" fill="#A36BAE"/>
</svg>
