<svg width="50" height="50" viewBox="0 0 50 50" fill="none" xmlns="http://www.w3.org/2000/svg">
<path d="M28.7246 39.2881C18.3881 41.549 8.56165 36.7019 6.78083 28.4694C5.00001 20.237 11.9339 11.7283 22.2735 9.46992C32.6125 7.21158 42.4365 12.0536 44.2192 20.2886C46 28.5299 39.0617 37.0272 28.7246 39.2881ZM25.5013 31.9693C26.4927 31.9693 27.4747 31.7732 28.3914 31.3912C29.3076 31.0097 30.1401 30.4506 30.8413 29.7457C31.5425 29.0409 32.0988 28.2042 32.4782 27.2833C32.8577 26.3626 33.0528 25.3757 33.0528 24.3787C33.0528 21.3086 31.2131 18.5409 28.3914 17.3662C25.5691 16.1915 22.321 16.8409 20.1614 19.0114C18.0017 21.1825 17.3555 24.4475 18.5243 27.2833C19.6932 30.1197 22.4471 31.9693 25.5013 31.9693Z" fill="#008C99"/>
<path d="M27.17 13.7524C28.5941 13.7518 30.0043 14.0339 31.3201 14.5814C32.6359 15.129 33.8314 15.9318 34.8387 16.9435C35.8453 17.9559 36.6442 19.1573 37.1897 20.4797C37.7345 21.8021 38.0151 23.2194 38.0151 24.6507C38.0151 29.0585 35.3734 33.0321 31.322 34.7193C27.2707 36.4065 22.6074 35.4744 19.5063 32.3578C16.4052 29.2412 15.4771 24.5545 17.1547 20.4816C18.8322 16.4093 22.7847 13.7531 27.17 13.7524ZM25.5013 31.0087C26.3673 31.0087 27.2251 30.8368 28.0246 30.5038C28.8247 30.1702 29.5513 29.6818 30.164 29.0661C31.4004 27.8227 32.095 26.1367 32.0949 24.3788C32.0949 21.6977 30.4877 19.2802 28.0233 18.2538C25.5583 17.2275 22.7214 17.7948 20.8348 19.6909C18.9482 21.5869 18.3843 24.4387 19.4049 26.916C20.4262 29.3934 22.831 31.0087 25.4987 31.0087H25.5013Z" fill="#70CCD3"/>
</svg>
