<svg width="50" height="50" viewBox="0 0 50 50" fill="none" xmlns="http://www.w3.org/2000/svg">
<rect width="50" height="50" fill="#E85E26"/>
<path d="M30.1103 8.22656H12.7781C13.041 8.50656 13.3039 8.79656 13.5429 9.10155C15.4836 11.5615 16.5065 14.6515 16.5065 18.0515C16.5065 23.3014 14.3938 28.0364 11 31.2263H21.6115L26.6544 18.1165H20.3448L21.3964 13.0315H33.9294L27.3474 31.2263H29.9286C35.937 31.2663 40 26.0464 40 19.7064C40 13.3665 36.1282 8.22656 30.1055 8.22656" fill="white"/>
<path d="M15.0298 36.2266V40.8932H14.3318L11.6944 37.2939V40.8932H11V36.2266H11.6944L14.3426 39.8355V36.2266H15.0298Z" fill="white"/>
<path d="M17.7751 40.9573C17.5041 40.9573 17.2582 40.9167 17.0375 40.8355C16.8192 40.7522 16.6309 40.6358 16.4726 40.4862C16.3167 40.3366 16.1968 40.1593 16.1128 39.9541C16.0289 39.749 15.9869 39.5246 15.9869 39.281V39.1464C15.9869 38.8644 16.0337 38.6133 16.1272 38.3932C16.2208 38.171 16.3479 37.983 16.5086 37.8291C16.6693 37.6753 16.8516 37.5588 17.0555 37.4798C17.2594 37.4007 17.4705 37.3612 17.6888 37.3612C17.967 37.3612 18.2069 37.4039 18.4084 37.4894C18.6123 37.5749 18.779 37.6945 18.9085 37.8484C19.038 38.0001 19.134 38.1796 19.1964 38.3868C19.2587 38.5919 19.2899 38.8163 19.2899 39.0599V39.3259H16.3827V38.8419H18.6243V38.7971C18.6147 38.6432 18.5787 38.4937 18.5163 38.3484C18.4564 38.2031 18.3604 38.0834 18.2285 37.9894C18.0965 37.8954 17.9166 37.8484 17.6888 37.8484C17.5377 37.8484 17.3985 37.8772 17.2714 37.9349C17.1443 37.9905 17.0351 38.0738 16.944 38.1849C16.8528 38.296 16.7821 38.4317 16.7317 38.5919C16.6813 38.7522 16.6561 38.937 16.6561 39.1464V39.281C16.6561 39.4456 16.6813 39.6005 16.7317 39.7458C16.7845 39.889 16.86 40.015 16.9584 40.124C17.0591 40.233 17.1802 40.3184 17.3218 40.3804C17.4657 40.4424 17.6288 40.4734 17.8111 40.4734C18.0462 40.4734 18.2453 40.4306 18.4084 40.3452C18.5715 40.2597 18.7142 40.1454 18.8365 40.0022L19.2395 40.2875C19.1556 40.4007 19.0488 40.5086 18.9193 40.6112C18.7898 40.7137 18.6303 40.7971 18.4408 40.8612C18.2537 40.9253 18.0318 40.9573 17.7751 40.9573Z" fill="white"/>
<path d="M20.5168 37.4253L21.3696 38.6881L22.2331 37.4253H23.0139L21.7402 39.1368L23.0535 40.8932H22.2835L21.384 39.5919L20.4845 40.8932H19.7109L21.0206 39.1368L19.7504 37.4253H20.5168Z" fill="white"/>
<path d="M24.3883 38.0919V42.2266H23.7191V37.4253H24.3308L24.3883 38.0919ZM27.0113 39.1304V39.1977C27.0113 39.4499 26.9777 39.6838 26.9106 39.8996C26.8434 40.1133 26.7451 40.2992 26.6155 40.4573C26.4884 40.6155 26.3313 40.7383 26.1442 40.8259C25.9571 40.9135 25.7424 40.9573 25.5001 40.9573C25.2531 40.9573 25.0348 40.921 24.8453 40.8484C24.6558 40.7757 24.4951 40.6699 24.3631 40.531C24.2312 40.3922 24.1257 40.2255 24.0465 40.031C23.9698 39.8366 23.917 39.6176 23.8882 39.374V39.015C23.917 38.7586 23.971 38.5289 24.0501 38.3259C24.1293 38.1229 24.2336 37.9499 24.3631 37.8067C24.4951 37.6614 24.6546 37.5513 24.8417 37.4766C25.0288 37.3996 25.2447 37.3612 25.4893 37.3612C25.734 37.3612 25.9511 37.4039 26.1406 37.4894C26.3301 37.5727 26.4896 37.6924 26.6191 37.8484C26.7487 38.0043 26.8458 38.1913 26.9106 38.4093C26.9777 38.6251 27.0113 38.8655 27.0113 39.1304ZM26.3421 39.1977V39.1304C26.3421 38.9573 26.3217 38.7949 26.2809 38.6432C26.2401 38.4894 26.1766 38.3548 26.0902 38.2394C26.0063 38.1219 25.8983 38.03 25.7664 37.9637C25.6345 37.8954 25.4773 37.8612 25.295 37.8612C25.1271 37.8612 24.9808 37.8868 24.8561 37.9381C24.7337 37.9894 24.6294 38.0588 24.543 38.1464C24.4567 38.2319 24.3859 38.3302 24.3308 38.4413C24.278 38.5503 24.2384 38.6635 24.212 38.781V39.6112C24.26 39.7608 24.3272 39.9018 24.4135 40.0343C24.4999 40.1646 24.615 40.2704 24.7589 40.3516C24.9029 40.4306 25.084 40.4702 25.3022 40.4702C25.4821 40.4702 25.6369 40.437 25.7664 40.3708C25.8983 40.3024 26.0063 40.2095 26.0902 40.0919C26.1766 39.9744 26.2401 39.8398 26.2809 39.6881C26.3217 39.5343 26.3421 39.3708 26.3421 39.1977Z" fill="white"/>
<path d="M27.6841 39.1977V39.124C27.6841 38.874 27.7249 38.6422 27.8065 38.4285C27.888 38.2127 28.0056 38.0257 28.1591 37.8676C28.3126 37.7073 28.4985 37.5834 28.7168 37.4958C28.9351 37.406 29.1797 37.3612 29.4508 37.3612C29.7242 37.3612 29.9701 37.406 30.1884 37.4958C30.4091 37.5834 30.5962 37.7073 30.7497 37.8676C30.9056 38.0257 31.0243 38.2127 31.1059 38.4285C31.1874 38.6422 31.2282 38.874 31.2282 39.124V39.1977C31.2282 39.4477 31.1874 39.6796 31.1059 39.8932C31.0243 40.1069 30.9056 40.2939 30.7497 40.4541C30.5962 40.6122 30.4103 40.7362 30.192 40.8259C29.9761 40.9135 29.7314 40.9573 29.458 40.9573C29.1845 40.9573 28.9387 40.9135 28.7204 40.8259C28.5021 40.7362 28.315 40.6122 28.1591 40.4541C28.0056 40.2939 27.888 40.1069 27.8065 39.8932C27.7249 39.6796 27.6841 39.4477 27.6841 39.1977ZM28.3498 39.124V39.1977C28.3498 39.3708 28.3726 39.5343 28.4181 39.6881C28.4637 39.8398 28.5321 39.9744 28.6232 40.0919C28.7168 40.2095 28.8331 40.3024 28.9722 40.3708C29.1114 40.437 29.2733 40.4702 29.458 40.4702C29.6403 40.4702 29.7998 40.437 29.9365 40.3708C30.0756 40.3024 30.1908 40.2095 30.2819 40.0919C30.3731 39.9744 30.4414 39.8398 30.487 39.6881C30.535 39.5343 30.559 39.3708 30.559 39.1977V39.124C30.559 38.9531 30.535 38.7917 30.487 38.64C30.4414 38.4862 30.3719 38.3505 30.2783 38.233C30.1872 38.1133 30.072 38.0193 29.9329 37.9509C29.7962 37.8825 29.6355 37.8484 29.4508 37.8484C29.2685 37.8484 29.1078 37.8825 28.9686 37.9509C28.8319 38.0193 28.7168 38.1133 28.6232 38.233C28.5321 38.3505 28.4637 38.4862 28.4181 38.64C28.3726 38.7917 28.3498 38.9531 28.3498 39.124Z" fill="white"/>
<path d="M34.3297 39.9734C34.3297 39.8879 34.3081 39.8088 34.265 39.7362C34.2242 39.6614 34.139 39.5941 34.0095 39.5343C33.8824 39.4723 33.6905 39.4189 33.4338 39.374C33.2179 39.3334 33.0224 39.2853 32.8473 39.2298C32.6746 39.1742 32.5271 39.1069 32.4048 39.0278C32.2848 38.9488 32.1925 38.8558 32.1277 38.749C32.063 38.6422 32.0306 38.5172 32.0306 38.374C32.0306 38.2372 32.0642 38.108 32.1313 37.9862C32.2009 37.8644 32.298 37.7565 32.4228 37.6625C32.5499 37.5684 32.7022 37.4947 32.8797 37.4413C33.0572 37.3879 33.2551 37.3612 33.4734 37.3612C33.7852 37.3612 34.0515 37.4103 34.2722 37.5086C34.4928 37.6069 34.662 37.7383 34.7795 37.9028C34.897 38.0652 34.9558 38.2458 34.9558 38.4445H34.2902C34.2902 38.3484 34.2578 38.2554 34.193 38.1657C34.1306 38.0738 34.0383 37.9979 33.916 37.9381C33.796 37.8783 33.6485 37.8484 33.4734 37.8484C33.2887 37.8484 33.1388 37.874 33.0236 37.9253C32.9109 37.9744 32.8281 38.0375 32.7754 38.1144C32.725 38.1913 32.6998 38.2725 32.6998 38.358C32.6998 38.4221 32.7118 38.4798 32.7358 38.531C32.7622 38.5802 32.8078 38.6261 32.8725 38.6689C32.9373 38.7095 33.0284 38.7479 33.146 38.7843C33.2635 38.8206 33.4134 38.8569 33.5957 38.8932C33.9148 38.9573 34.1774 39.0343 34.3837 39.124C34.59 39.2137 34.7435 39.3238 34.8443 39.4541C34.945 39.5845 34.9954 39.7426 34.9954 39.9285C34.9954 40.0802 34.9594 40.2191 34.8874 40.3452C34.8179 40.4712 34.7159 40.5802 34.5816 40.6721C34.4497 40.7618 34.2914 40.8323 34.1067 40.8836C33.9244 40.9328 33.7193 40.9573 33.4914 40.9573C33.1484 40.9573 32.8581 40.9028 32.6207 40.7939C32.3832 40.6849 32.2033 40.5439 32.081 40.3708C31.9586 40.1977 31.8975 40.015 31.8975 39.8227H32.5667C32.5763 39.9851 32.6291 40.1144 32.725 40.2105C32.821 40.3046 32.9385 40.3719 33.0776 40.4125C33.2167 40.4509 33.3547 40.4702 33.4914 40.4702C33.6737 40.4702 33.826 40.4488 33.9483 40.406C34.0731 40.3633 34.1678 40.3046 34.2326 40.2298C34.2974 40.155 34.3297 40.0695 34.3297 39.9734Z" fill="white"/>
<path d="M37.4852 40.9573C37.2142 40.9573 36.9683 40.9167 36.7476 40.8355C36.5293 40.7522 36.341 40.6358 36.1827 40.4862C36.0268 40.3366 35.9069 40.1593 35.8229 39.9541C35.739 39.749 35.697 39.5246 35.697 39.281V39.1464C35.697 38.8644 35.7438 38.6133 35.8373 38.3932C35.9309 38.171 36.058 37.983 36.2187 37.8291C36.3794 37.6753 36.5617 37.5588 36.7656 37.4798C36.9695 37.4007 37.1806 37.3612 37.3989 37.3612C37.6771 37.3612 37.917 37.4039 38.1185 37.4894C38.3224 37.5749 38.4891 37.6945 38.6186 37.8484C38.7481 38.0001 38.8441 38.1796 38.9064 38.3868C38.9688 38.5919 39 38.8163 39 39.0599V39.3259H36.0928V38.8419H38.3344V38.7971C38.3248 38.6432 38.2888 38.4937 38.2264 38.3484C38.1665 38.2031 38.0705 38.0834 37.9386 37.9894C37.8066 37.8954 37.6267 37.8484 37.3989 37.8484C37.2478 37.8484 37.1086 37.8772 36.9815 37.9349C36.8544 37.9905 36.7452 38.0738 36.6541 38.1849C36.5629 38.296 36.4922 38.4317 36.4418 38.5919C36.3914 38.7522 36.3662 38.937 36.3662 39.1464V39.281C36.3662 39.4456 36.3914 39.6005 36.4418 39.7458C36.4946 39.889 36.5701 40.015 36.6685 40.124C36.7692 40.233 36.8903 40.3184 37.0319 40.3804C37.1758 40.4424 37.3389 40.4734 37.5212 40.4734C37.7563 40.4734 37.9554 40.4306 38.1185 40.3452C38.2816 40.2597 38.4243 40.1454 38.5466 40.0022L38.9496 40.2875C38.8657 40.4007 38.7589 40.5086 38.6294 40.6112C38.4999 40.7137 38.3404 40.7971 38.1509 40.8612C37.9638 40.9253 37.7419 40.9573 37.4852 40.9573Z" fill="white"/>
</svg>
