<svg width="50" height="50" viewBox="0 0 50 50" fill="none" xmlns="http://www.w3.org/2000/svg">
<path d="M31.0641 6.5H10.146C10.4633 6.82869 10.7806 7.16912 11.0691 7.52716C13.4112 10.415 14.6458 14.0423 14.6458 18.0336C14.6458 24.1966 12.0959 29.755 8 33.4997H20.807L26.8932 18.1099H19.2782L20.5474 12.1406H35.6735L27.7297 33.4997H30.8449C38.0964 33.5467 43 27.4189 43 19.9764C43 12.5339 38.3272 6.5 31.0583 6.5" fill="#E85E26"/>
<path d="M12.9219 39V45.3984H12.0693L8.84814 40.4634V45.3984H8V39H8.84814L12.0825 43.9482V39H12.9219Z" fill="#1C1D1F"/>
<path d="M16.2749 45.4863C15.9438 45.4863 15.6436 45.4307 15.374 45.3193C15.1074 45.2051 14.8774 45.0454 14.6841 44.8403C14.4937 44.6353 14.3472 44.3921 14.2446 44.1108C14.1421 43.8296 14.0908 43.522 14.0908 43.188V43.0034C14.0908 42.6167 14.1479 42.2725 14.2622 41.9707C14.3765 41.666 14.5317 41.4082 14.728 41.1973C14.9243 40.9863 15.147 40.8267 15.396 40.7183C15.645 40.6099 15.9028 40.5557 16.1694 40.5557C16.5093 40.5557 16.8022 40.6143 17.0483 40.7314C17.2974 40.8486 17.501 41.0127 17.6592 41.2236C17.8174 41.4316 17.9346 41.6777 18.0107 41.9619C18.0869 42.2432 18.125 42.5508 18.125 42.8848V43.2495H14.5742V42.5859H17.312V42.5244C17.3003 42.3135 17.2563 42.1084 17.1802 41.9092C17.1069 41.71 16.9897 41.5459 16.8286 41.417C16.6675 41.2881 16.4478 41.2236 16.1694 41.2236C15.9849 41.2236 15.8149 41.2632 15.6597 41.3423C15.5044 41.4185 15.3711 41.5327 15.2598 41.6851C15.1484 41.8374 15.062 42.0234 15.0005 42.2432C14.939 42.4629 14.9082 42.7163 14.9082 43.0034V43.188C14.9082 43.4136 14.939 43.626 15.0005 43.8252C15.0649 44.0215 15.1572 44.1943 15.2773 44.3438C15.4004 44.4932 15.5483 44.6104 15.7212 44.6953C15.897 44.7803 16.0962 44.8228 16.3188 44.8228C16.606 44.8228 16.8491 44.7642 17.0483 44.647C17.2476 44.5298 17.4219 44.373 17.5713 44.1768L18.0635 44.5679C17.9609 44.7231 17.8306 44.8711 17.6724 45.0117C17.5142 45.1523 17.3193 45.2666 17.0879 45.3545C16.8594 45.4424 16.5884 45.4863 16.2749 45.4863Z" fill="#1C1D1F"/>
<path d="M19.6235 40.6436L20.665 42.375L21.7197 40.6436H22.6733L21.1177 42.9902L22.7217 45.3984H21.7812L20.6826 43.6143L19.584 45.3984H18.6392L20.2388 42.9902L18.6875 40.6436H19.6235Z" fill="#1C1D1F"/>
<path d="M24.3521 41.5576V47.2266H23.5347V40.6436H24.2817L24.3521 41.5576ZM27.5557 42.9814V43.0737C27.5557 43.4194 27.5146 43.7402 27.4326 44.0361C27.3506 44.3291 27.2305 44.584 27.0723 44.8008C26.917 45.0176 26.7251 45.186 26.4966 45.3062C26.2681 45.4263 26.0059 45.4863 25.71 45.4863C25.4082 45.4863 25.1416 45.4365 24.9102 45.3369C24.6787 45.2373 24.4824 45.0923 24.3213 44.9019C24.1602 44.7114 24.0312 44.4829 23.9346 44.2163C23.8408 43.9497 23.7764 43.6494 23.7412 43.3154V42.8232C23.7764 42.4717 23.8423 42.1567 23.939 41.8784C24.0356 41.6001 24.1631 41.3628 24.3213 41.1665C24.4824 40.9673 24.6772 40.8164 24.9058 40.7139C25.1343 40.6084 25.3979 40.5557 25.6968 40.5557C25.9956 40.5557 26.2607 40.6143 26.4922 40.7314C26.7236 40.8457 26.9185 41.0098 27.0767 41.2236C27.2349 41.4375 27.3535 41.6938 27.4326 41.9927C27.5146 42.2886 27.5557 42.6182 27.5557 42.9814ZM26.7383 43.0737V42.9814C26.7383 42.7441 26.7134 42.5215 26.6636 42.3135C26.6138 42.1025 26.5361 41.918 26.4307 41.7598C26.3281 41.5986 26.1963 41.4727 26.0352 41.3818C25.874 41.2881 25.6821 41.2412 25.4595 41.2412C25.2544 41.2412 25.0757 41.2764 24.9233 41.3467C24.7739 41.417 24.6465 41.5122 24.541 41.6323C24.4355 41.7495 24.3491 41.8843 24.2817 42.0366C24.2173 42.186 24.1689 42.3413 24.1367 42.5024V43.6406C24.1953 43.8457 24.2773 44.0391 24.3828 44.2207C24.4883 44.3994 24.6289 44.5444 24.8047 44.6558C24.9805 44.7642 25.2017 44.8184 25.4683 44.8184C25.688 44.8184 25.877 44.7729 26.0352 44.6821C26.1963 44.5884 26.3281 44.4609 26.4307 44.2998C26.5361 44.1387 26.6138 43.9541 26.6636 43.7461C26.7134 43.5352 26.7383 43.311 26.7383 43.0737Z" fill="#1C1D1F"/>
<path d="M28.3774 43.0737V42.9727C28.3774 42.6299 28.4272 42.312 28.5269 42.019C28.6265 41.7231 28.77 41.4668 28.9575 41.25C29.145 41.0303 29.3721 40.8604 29.6387 40.7402C29.9053 40.6172 30.2041 40.5557 30.5352 40.5557C30.8691 40.5557 31.1694 40.6172 31.436 40.7402C31.7056 40.8604 31.9341 41.0303 32.1216 41.25C32.312 41.4668 32.457 41.7231 32.5566 42.019C32.6562 42.312 32.7061 42.6299 32.7061 42.9727V43.0737C32.7061 43.4165 32.6562 43.7344 32.5566 44.0273C32.457 44.3203 32.312 44.5767 32.1216 44.7964C31.9341 45.0132 31.707 45.1831 31.4404 45.3062C31.1768 45.4263 30.8779 45.4863 30.5439 45.4863C30.21 45.4863 29.9097 45.4263 29.6431 45.3062C29.3765 45.1831 29.1479 45.0132 28.9575 44.7964C28.77 44.5767 28.6265 44.3203 28.5269 44.0273C28.4272 43.7344 28.3774 43.4165 28.3774 43.0737ZM29.1904 42.9727V43.0737C29.1904 43.311 29.2183 43.5352 29.2739 43.7461C29.3296 43.9541 29.4131 44.1387 29.5244 44.2998C29.6387 44.4609 29.7808 44.5884 29.9507 44.6821C30.1206 44.7729 30.3184 44.8184 30.5439 44.8184C30.7666 44.8184 30.9614 44.7729 31.1284 44.6821C31.2983 44.5884 31.439 44.4609 31.5503 44.2998C31.6616 44.1387 31.7451 43.9541 31.8008 43.7461C31.8594 43.5352 31.8887 43.311 31.8887 43.0737V42.9727C31.8887 42.7383 31.8594 42.5171 31.8008 42.3091C31.7451 42.0981 31.6602 41.9121 31.5459 41.751C31.4346 41.5869 31.2939 41.458 31.124 41.3643C30.957 41.2705 30.7607 41.2236 30.5352 41.2236C30.3125 41.2236 30.1162 41.2705 29.9463 41.3643C29.7793 41.458 29.6387 41.5869 29.5244 41.751C29.4131 41.9121 29.3296 42.0981 29.2739 42.3091C29.2183 42.5171 29.1904 42.7383 29.1904 42.9727Z" fill="#1C1D1F"/>
<path d="M36.4941 44.1372C36.4941 44.02 36.4678 43.9116 36.415 43.812C36.3652 43.7095 36.2612 43.6172 36.103 43.5352C35.9478 43.4502 35.7134 43.377 35.3999 43.3154C35.1362 43.2598 34.8975 43.1938 34.6836 43.1177C34.4727 43.0415 34.2925 42.9492 34.1431 42.8408C33.9966 42.7324 33.8838 42.605 33.8047 42.4585C33.7256 42.312 33.686 42.1406 33.686 41.9443C33.686 41.7568 33.7271 41.5796 33.8091 41.4126C33.894 41.2456 34.0127 41.0977 34.165 40.9688C34.3203 40.8398 34.5063 40.7388 34.7231 40.6655C34.9399 40.5923 35.1816 40.5557 35.4482 40.5557C35.8291 40.5557 36.1543 40.623 36.4238 40.7578C36.6934 40.8926 36.8999 41.0728 37.0435 41.2983C37.187 41.521 37.2588 41.7686 37.2588 42.041H36.4458C36.4458 41.9092 36.4062 41.7817 36.3271 41.6587C36.251 41.5327 36.1382 41.4287 35.9888 41.3467C35.8423 41.2646 35.6621 41.2236 35.4482 41.2236C35.2227 41.2236 35.0396 41.2588 34.8989 41.3291C34.7612 41.3965 34.6602 41.4829 34.5957 41.5884C34.5342 41.6938 34.5034 41.8052 34.5034 41.9224C34.5034 42.0103 34.5181 42.0894 34.5474 42.1597C34.5796 42.2271 34.6353 42.29 34.7144 42.3486C34.7935 42.4043 34.9048 42.457 35.0483 42.5068C35.1919 42.5566 35.375 42.6064 35.5977 42.6562C35.9873 42.7441 36.3081 42.8496 36.5601 42.9727C36.812 43.0957 36.9995 43.2466 37.1226 43.4253C37.2456 43.604 37.3071 43.8208 37.3071 44.0757C37.3071 44.2837 37.2632 44.4741 37.1753 44.647C37.0903 44.8198 36.9658 44.9692 36.8018 45.0952C36.6406 45.2183 36.4473 45.3149 36.2217 45.3853C35.999 45.4526 35.7485 45.4863 35.4702 45.4863C35.0513 45.4863 34.6968 45.4116 34.4067 45.2622C34.1167 45.1128 33.897 44.9194 33.7476 44.6821C33.5981 44.4448 33.5234 44.1943 33.5234 43.9307H34.3408C34.3525 44.1533 34.417 44.3306 34.5342 44.4624C34.6514 44.5913 34.7949 44.6836 34.9648 44.7393C35.1348 44.792 35.3032 44.8184 35.4702 44.8184C35.6929 44.8184 35.8789 44.7891 36.0283 44.7305C36.1807 44.6719 36.2964 44.5913 36.3755 44.4888C36.4546 44.3862 36.4941 44.269 36.4941 44.1372Z" fill="#1C1D1F"/>
<path d="M40.3481 45.4863C40.0171 45.4863 39.7168 45.4307 39.4473 45.3193C39.1807 45.2051 38.9507 45.0454 38.7573 44.8403C38.5669 44.6353 38.4204 44.3921 38.3179 44.1108C38.2153 43.8296 38.1641 43.522 38.1641 43.188V43.0034C38.1641 42.6167 38.2212 42.2725 38.3354 41.9707C38.4497 41.666 38.605 41.4082 38.8013 41.1973C38.9976 40.9863 39.2202 40.8267 39.4692 40.7183C39.7183 40.6099 39.9761 40.5557 40.2427 40.5557C40.5825 40.5557 40.8755 40.6143 41.1216 40.7314C41.3706 40.8486 41.5742 41.0127 41.7324 41.2236C41.8906 41.4316 42.0078 41.6777 42.084 41.9619C42.1602 42.2432 42.1982 42.5508 42.1982 42.8848V43.2495H38.6475V42.5859H41.3853V42.5244C41.3735 42.3135 41.3296 42.1084 41.2534 41.9092C41.1802 41.71 41.063 41.5459 40.9019 41.417C40.7407 41.2881 40.521 41.2236 40.2427 41.2236C40.0581 41.2236 39.8882 41.2632 39.7329 41.3423C39.5776 41.4185 39.4443 41.5327 39.333 41.6851C39.2217 41.8374 39.1353 42.0234 39.0737 42.2432C39.0122 42.4629 38.9814 42.7163 38.9814 43.0034V43.188C38.9814 43.4136 39.0122 43.626 39.0737 43.8252C39.1382 44.0215 39.2305 44.1943 39.3506 44.3438C39.4736 44.4932 39.6216 44.6104 39.7944 44.6953C39.9702 44.7803 40.1694 44.8228 40.3921 44.8228C40.6792 44.8228 40.9224 44.7642 41.1216 44.647C41.3208 44.5298 41.4951 44.373 41.6445 44.1768L42.1367 44.5679C42.0342 44.7231 41.9038 44.8711 41.7456 45.0117C41.5874 45.1523 41.3926 45.2666 41.1611 45.3545C40.9326 45.4424 40.6616 45.4863 40.3481 45.4863Z" fill="#1C1D1F"/>
</svg>
