<svg width="50" height="50" viewBox="0 0 50 50" fill="none" xmlns="http://www.w3.org/2000/svg">
<rect width="50" height="50" fill="#2242A5"/>
<path d="M17.0237 9.02497C17.8296 8.78661 18.7304 8.57208 20.1052 8.33371C21.48 8.09535 23.0681 8 24.8933 8C26.4815 8 27.8563 8.23837 28.8993 8.69126C29.9185 9.14416 30.6059 9.83542 31.2933 10.6459C31.9807 11.4563 32.4311 12.4813 32.6681 13.6254C32.9052 14.7696 33 16.0329 33 17.4154V29H29.563V18.202C29.563 16.9387 29.4444 15.9137 29.3259 14.9841C29.2074 14.0545 28.8756 13.3871 28.52 12.7911C28.1881 12.2191 27.5956 11.8615 26.9319 11.5278C26.2444 11.2894 25.4385 11.1941 24.4193 11.1941H23.163C22.8311 11.3133 22.357 11.3133 22.0252 11.3133C21.6933 11.3133 21.3378 11.4325 21.0059 11.4325C20.6741 11.4325 20.5556 11.5516 20.437 11.5516V28.9047H17V9.02497H17.0237Z" fill="white"/>
<path d="M21.9219 35.0879V41.4863H21.0693L17.8481 36.5513V41.4863H17V35.0879H17.8481L21.0825 40.0361V35.0879H21.9219Z" fill="white"/>
<path d="M26.7075 40.7524L28.3335 42.04L27.7622 42.5674L26.1626 41.2974L26.7075 40.7524ZM28.3115 38.085V38.4893C28.3115 38.9697 28.2515 39.4004 28.1313 39.7812C28.0112 40.1621 27.8384 40.4858 27.6128 40.7524C27.3872 41.019 27.1162 41.2227 26.7998 41.3633C26.4863 41.5039 26.1348 41.5742 25.7451 41.5742C25.3672 41.5742 25.02 41.5039 24.7036 41.3633C24.3901 41.2227 24.1177 41.019 23.8862 40.7524C23.6577 40.4858 23.4805 40.1621 23.3545 39.7812C23.2285 39.4004 23.1655 38.9697 23.1655 38.4893V38.085C23.1655 37.6045 23.2271 37.1753 23.3501 36.7974C23.4761 36.4165 23.6533 36.0928 23.8818 35.8262C24.1104 35.5566 24.3813 35.3516 24.6948 35.2109C25.0112 35.0703 25.3584 35 25.7363 35C26.126 35 26.479 35.0703 26.7954 35.2109C27.1118 35.3516 27.3828 35.5566 27.6084 35.8262C27.834 36.0928 28.0068 36.4165 28.127 36.7974C28.25 37.1753 28.3115 37.6045 28.3115 38.085ZM27.4722 38.4893V38.0762C27.4722 37.6953 27.4326 37.3584 27.3535 37.0654C27.2773 36.7725 27.1646 36.5264 27.0151 36.3271C26.8657 36.1279 26.6841 35.9771 26.4702 35.8745C26.2563 35.772 26.0117 35.7207 25.7363 35.7207C25.4756 35.7207 25.2383 35.772 25.0244 35.8745C24.8135 35.9771 24.6318 36.1279 24.4795 36.3271C24.3271 36.5264 24.21 36.7725 24.1279 37.0654C24.0459 37.3584 24.0049 37.6953 24.0049 38.0762V38.4893C24.0049 38.873 24.0459 39.2129 24.1279 39.5088C24.21 39.8018 24.3271 40.0493 24.4795 40.2515C24.6348 40.4507 24.8193 40.6016 25.0332 40.7041C25.2471 40.8066 25.4844 40.8579 25.7451 40.8579C26.0205 40.8579 26.2651 40.8066 26.479 40.7041C26.6929 40.6016 26.873 40.4507 27.0195 40.2515C27.1689 40.0493 27.2817 39.8018 27.3579 39.5088C27.4341 39.2129 27.4722 38.873 27.4722 38.4893Z" fill="white"/>
<path d="M33.5015 40.7964V41.4863H30.3022V40.7964H33.5015ZM30.4692 35.0879V41.4863H29.6211V35.0879H30.4692Z" fill="white"/>
</svg>
