<svg width="50" height="50" viewBox="0 0 50 50" fill="none" xmlns="http://www.w3.org/2000/svg">
<rect width="50" height="50" fill="#2242A5"/>
<path d="M15.5272 12.8748C16.4843 12.5821 17.554 12.3187 19.1866 12.026C20.8193 11.7333 22.7054 11.6162 24.8729 11.6162C26.7589 11.6162 28.3916 11.9089 29.6302 12.4651C30.8406 13.0212 31.657 13.87 32.4733 14.8652C33.2897 15.8604 33.8245 17.119 34.106 18.524C34.3875 19.929 34.5001 21.4803 34.5001 23.178V37.4034H30.4184V24.1439C30.4184 22.5926 30.2776 21.334 30.1369 20.1924C29.9961 19.0509 29.602 18.2313 29.1798 17.4996C28.7857 16.7971 28.082 16.358 27.2938 15.9482C26.4774 15.6555 25.5203 15.5384 24.3099 15.5384H22.818C22.4239 15.6848 21.8609 15.6848 21.4668 15.6848C21.0727 15.6848 20.6504 15.8311 20.2563 15.8311C19.8622 15.8311 19.7215 15.9775 19.5807 15.9775V37.2863H15.499V12.8748H15.5272Z" fill="white"/>
</svg>
