<svg width="50" height="50" viewBox="0 0 50 50" fill="none" xmlns="http://www.w3.org/2000/svg">
<rect width="50" height="50" fill="#2145A2"/>
<path d="M33.7501 9.39352C32.85 8.36074 31.9501 7.47546 30.6 6.88529C29.2501 6.29512 27.4501 6 25.35 6C22.95 6 20.85 6.14756 19.05 6.44261C17.25 6.73773 16.05 7.03277 15 7.3279V32.8526H19.5V10.5739C19.65 10.5739 19.8 10.4263 20.25 10.4263C20.7 10.4263 21.15 10.2787 21.6 10.2787C22.05 10.2787 22.65 10.2787 23.0999 10.1312H24.75C26.1 10.1312 27.15 10.2787 28.05 10.5738C28.95 11.0164 29.7001 11.4591 30.1501 12.1967C30.6 12.9344 31.05 13.8197 31.2 15C31.3501 16.1803 31.5 17.5082 31.5 19.1311V33H36V18.0983C36 16.3278 35.85 14.7049 35.55 13.2295C35.2501 11.7541 34.6501 10.4263 33.7501 9.39352Z" fill="white"/>
<path d="M19.2432 45H20.1465V40.4102H21.2256V39.7168H20.1465V39.2578C20.1465 38.9062 20.2311 38.6442 20.4004 38.4717C20.5729 38.2959 20.8529 38.208 21.2402 38.208C21.4746 38.208 21.6895 38.2357 21.8848 38.291C22.0833 38.3431 22.2575 38.3984 22.4072 38.457L22.5586 37.6953C22.321 37.6107 22.0898 37.5407 21.8652 37.4854C21.6406 37.4268 21.4111 37.3975 21.1768 37.3975C20.7796 37.3975 20.4362 37.4691 20.1465 37.6123C19.8568 37.7555 19.6338 37.9655 19.4775 38.2422C19.3213 38.5189 19.2432 38.8574 19.2432 39.2578V39.7168H18.4082V40.4102H19.2432V45Z" fill="white"/>
<path d="M23.0029 45V39.7168H22.0996V45H23.0029Z" fill="white"/>
<path d="M30.9961 45V39.7168H30.0879V45H30.9961Z" fill="white"/>
<path d="M30.1514 37.9443C30.0635 38.0452 30.0195 38.1689 30.0195 38.3154C30.0195 38.4554 30.0635 38.5758 30.1514 38.6768C30.2425 38.7744 30.376 38.8232 30.5518 38.8232C30.7243 38.8232 30.8561 38.7744 30.9473 38.6768C31.0417 38.5758 31.0889 38.4554 31.0889 38.3154C31.0889 38.1689 31.0417 38.0452 30.9473 37.9443C30.8561 37.8434 30.7243 37.793 30.5518 37.793C30.376 37.793 30.2425 37.8434 30.1514 37.9443Z" fill="white"/>
<path d="M34.6582 39.7168V40.4102H33.6719V43.6914C33.6719 43.8704 33.6995 44.0055 33.7549 44.0967C33.8102 44.1878 33.8818 44.248 33.9697 44.2773C34.0576 44.3066 34.152 44.3213 34.2529 44.3213C34.3278 44.3213 34.4059 44.3148 34.4873 44.3018C34.5719 44.2855 34.6354 44.2725 34.6777 44.2627L34.6826 45C34.611 45.0228 34.5166 45.0439 34.3994 45.0635C34.2855 45.0863 34.1471 45.0977 33.9844 45.0977C33.763 45.0977 33.5596 45.0537 33.374 44.9658C33.1885 44.8779 33.0404 44.7314 32.9297 44.5264C32.8223 44.318 32.7686 44.0381 32.7686 43.6865V40.4102H31.8018V39.7168H32.7686V38.4326H33.6719V39.7168H34.6582Z" fill="white"/>
<path d="M35.1367 39.7168L37.0225 44.943L36.8262 45.4785C36.7546 45.6966 36.6683 45.8675 36.5674 45.9912C36.4697 46.1182 36.3493 46.2077 36.2061 46.2598C36.0628 46.3151 35.8887 46.3428 35.6836 46.3428C35.6608 46.3428 35.6201 46.3395 35.5615 46.333C35.5062 46.3298 35.4655 46.3265 35.4395 46.3232L35.4443 47.0557C35.4899 47.0687 35.568 47.085 35.6787 47.1045C35.7894 47.124 35.8805 47.1338 35.9521 47.1338C36.193 47.1338 36.3997 47.0898 36.5723 47.002C36.748 46.9173 36.8978 46.8066 37.0215 46.6699C37.1452 46.5332 37.2461 46.3883 37.3242 46.2354C37.4056 46.0856 37.4707 45.9456 37.5195 45.8154L39.6387 39.7168H38.6719L37.4453 43.6695L36.123 39.7168H35.1367Z" fill="white"/>
<path d="M25.4004 40.3369C25.3902 40.3492 25.3802 40.3616 25.3703 40.3741L25.3418 39.7168H24.4873V45H25.3906V41.2297C25.4479 41.1158 25.5146 41.0103 25.5908 40.9131C25.7243 40.7471 25.8822 40.6169 26.0645 40.5225C26.25 40.4281 26.4551 40.3809 26.6797 40.3809C26.9076 40.3809 27.0996 40.4199 27.2559 40.498C27.4121 40.5729 27.5309 40.695 27.6123 40.8643C27.6937 41.0303 27.7344 41.2516 27.7344 41.5283V45H28.6426V41.5381C28.6426 41.1898 28.6035 40.8952 28.5254 40.6543C28.4473 40.4102 28.3333 40.2116 28.1836 40.0586C28.0371 39.9056 27.8597 39.7949 27.6514 39.7266C27.443 39.6549 27.2087 39.6191 26.9482 39.6191C26.6292 39.6191 26.3379 39.6826 26.0742 39.8096C25.8138 39.9333 25.5892 40.109 25.4004 40.3369Z" fill="white"/>
<path d="M14.3262 40.3369C14.316 40.3492 14.306 40.3616 14.296 40.3741L14.2676 39.7168H13.4131V45H14.3164V41.2297C14.3737 41.1158 14.4404 41.0103 14.5166 40.9131C14.6501 40.7471 14.8079 40.6169 14.9902 40.5225C15.1758 40.4281 15.3809 40.3809 15.6055 40.3809C15.8333 40.3809 16.0254 40.4199 16.1816 40.498C16.3379 40.5729 16.4567 40.695 16.5381 40.8643C16.6195 41.0303 16.6602 41.2516 16.6602 41.5283V45H17.5684V41.5381C17.5684 41.1898 17.5293 40.8952 17.4512 40.6543C17.373 40.4102 17.2591 40.2116 17.1094 40.0586C16.9629 39.9056 16.7855 39.7949 16.5771 39.7266C16.3688 39.6549 16.1344 39.6191 15.874 39.6191C15.555 39.6191 15.2637 39.6826 15 39.8096C14.7396 39.9333 14.515 40.109 14.3262 40.3369Z" fill="white"/>
<path d="M11.8359 45V37.8906H10.8936V45H11.8359Z" fill="white"/>
</svg>
