<svg width="50" height="50" viewBox="0 0 50 50" fill="none" xmlns="http://www.w3.org/2000/svg">
<path d="M27.9608 18C29.6162 18.0314 30.8577 18.6593 31.5581 19.6324C32.2266 20.6996 32.6406 21.9552 32.7361 23.4305H29.8389C29.7115 22.6458 29.4568 22.018 29.2022 21.7668C28.8202 21.453 28.4383 21.296 28.1199 21.296C27.5151 21.296 27.0692 21.7042 26.8145 22.3634C26.528 23.1481 26.4007 24.0899 26.4007 25.1885C26.4007 27.5741 26.974 28.7984 28.1837 28.7984C29.1068 28.7983 29.7117 27.9507 29.8709 26.4441H32.8632C32.7359 28.1077 32.3221 29.4889 31.5581 30.4933C30.7622 31.4978 29.6162 32 28.3429 32C27.3241 32 26.4009 31.7489 25.6369 31.2152C24.841 30.6816 24.2997 29.897 23.9176 28.8297C23.5038 27.8566 23.2492 26.5381 23.2492 25.157C23.2492 23.6188 23.5038 22.2377 23.9176 21.139C24.427 20.0718 25.0637 19.2557 25.764 18.7535C26.4644 18.314 27.2604 18 27.9608 18Z" fill="black"/>
<path d="M14.1124 25.6594V18.2198H17.1368V31.6861H14.1762L10.9289 24.435V31.6861H8V18.2198H10.8014L14.1124 25.6594Z" fill="black"/>
<path d="M42 21.3901H37.2884V23.3676H41.1404V26.5067H37.2884V28.5471H42V31.6861H34.1686V18.2198H42V21.3901Z" fill="black"/>
<path d="M22.0712 31.6548H18.8877V18.2198H22.0712V31.6548Z" fill="black"/>
<path d="M18.8877 23.4621V26.4441H16.086V23.4621H18.8877Z" fill="#23C9FF"/>
<path d="M24.8727 26.4441H22.0712V23.4621H24.8727V26.4441Z" fill="#23C9FF"/>
<path d="M35.7284 26.4441H32.8315V23.4621H35.7284V26.4441Z" fill="#23C9FF"/>
</svg>
