<svg width="50" height="50" viewBox="0 0 50 50" fill="none" xmlns="http://www.w3.org/2000/svg">
<path d="M43.55 24.7779C43.55 27.332 43.0065 29.886 41.9193 32.2436C39.0037 38.5796 32.6783 42.2142 25.167 42.2142C16.2225 42.2142 8.66175 36.7623 6.93216 28.4125C5.49907 21.5854 8.16758 14.5618 13.7517 10.2886C19.2864 6.11378 26.8472 5.32792 33.1725 8.42224C39.4979 11.4674 43.55 17.8034 43.55 24.7779Z" fill="#877DA3"/>
<path d="M25.0187 40.5933C33.8614 40.5933 41.0298 33.5125 41.0298 24.7779C41.0298 16.0433 33.8614 8.96251 25.0187 8.96251C16.1761 8.96251 9.00767 16.0433 9.00767 24.7779C9.00767 33.5125 16.1761 40.5933 25.0187 40.5933Z" fill="#544480"/>
<path d="M25.0187 37.941C32.3603 37.941 38.3119 32.0477 38.3119 24.7779C38.3119 17.5081 32.3603 11.6148 25.0187 11.6148C17.6771 11.6148 11.7256 17.5081 11.7256 24.7779C11.7256 32.0477 17.6771 37.941 25.0187 37.941Z" fill="url(#paint0_radial_12991_74)"/>
<path d="M18.5945 17.0667L28.0332 26.497L30.7511 21.5362L41.8699 32.4891C41.8699 32.4891 35.0998 47.4205 19.9782 41.3301C4.85666 35.2397 9.05709 29.7386 9.05709 29.7386L18.5945 17.0667Z" fill="url(#paint1_linear_12991_74)"/>
<path d="M26.7483 25.1708L30.7511 21.4871C30.7511 21.4871 32.283 23.8447 31.5912 25.3182C31.3441 25.9076 30.0592 28.609 30.0592 28.609L26.7483 25.1708Z" fill="#811FDC"/>
<path d="M25.7106 17.9508C25.6117 17.8525 25.7106 17.607 25.9577 17.4105L33.2713 10.2395C33.469 10.0431 33.7655 9.89572 33.8149 9.99395C33.9138 10.0922 33.8149 10.3378 33.5678 10.5342L26.3036 17.7052C26.1059 17.9508 25.8588 18.049 25.7106 17.9508Z" fill="url(#paint2_radial_12991_74)"/>
<path d="M31.2453 19.1296C31.1464 19.0313 31.2453 18.7857 31.4923 18.5893L38.7566 11.3692C38.9543 11.1727 39.2508 11.0254 39.3002 11.1236C39.399 11.2219 39.3002 11.4674 39.0531 11.6639L31.7888 18.884C31.5912 19.0804 31.3441 19.2278 31.2453 19.1296Z" fill="url(#paint3_radial_12991_74)"/>
<path d="M27.1437 13.0392C27.0448 12.9409 27.1437 12.6953 27.3907 12.4989L34.655 5.2788C34.8527 5.08234 35.1492 4.93499 35.1986 5.03322C35.2974 5.13145 35.1986 5.37703 34.9515 5.5735L27.6872 12.7936C27.4896 12.99 27.2425 13.0883 27.1437 13.0392Z" fill="url(#paint4_radial_12991_74)"/>
<path d="M18.051 38.9725C13.0599 35.3379 18.9405 25.8585 20.0276 23.4027C21.1148 20.9469 18.5945 17.0667 18.5945 17.0667L6.93216 28.5599C8.76059 37.0078 16.2719 43 25.0187 43C28.4285 43.0491 31.8383 42.165 34.8033 40.446C33.6173 39.8075 32.3818 39.3163 31.097 38.9234C27.1931 37.8919 23.0421 42.6071 18.051 38.9725Z" fill="url(#paint5_linear_12991_74)"/>
<path d="M18.051 38.9725C13.0599 35.3379 18.9405 25.8585 20.0276 23.4027C21.1148 20.9469 18.5945 17.0667 18.5945 17.0667L6.93216 28.5599C8.76059 37.0078 16.2719 43 25.0187 43C28.4285 43.0491 31.8383 42.165 34.8033 40.446C33.6173 39.8075 32.3818 39.3163 31.097 38.9234C27.1931 37.8919 23.0421 42.6071 18.051 38.9725Z" fill="#811FDC"/>
<defs>
<radialGradient id="paint0_radial_12991_74" cx="0" cy="0" r="1" gradientUnits="userSpaceOnUse" gradientTransform="translate(25.0375 24.7773) scale(13.3154 13.2343)">
<stop stop-color="#390588"/>
<stop offset="0.8" stop-color="#180056"/>
</radialGradient>
<linearGradient id="paint1_linear_12991_74" x1="25.1776" y1="17.0734" x2="25.1776" y2="42.7791" gradientUnits="userSpaceOnUse">
<stop offset="0.06" stop-color="white"/>
<stop offset="0.93" stop-color="#A469FF"/>
</linearGradient>
<radialGradient id="paint2_radial_12991_74" cx="0" cy="0" r="1" gradientTransform="matrix(6.12874 -2.55306 -2.56861 -6.09161 26.7097 17.3372)" gradientUnits="userSpaceOnUse">
<stop offset="0.06" stop-color="white"/>
<stop offset="0.93" stop-color="#A469FF" stop-opacity="0"/>
</radialGradient>
<radialGradient id="paint3_radial_12991_74" cx="0" cy="0" r="1" gradientTransform="matrix(6.11789 -2.55358 -2.56922 -6.0807 32.2154 18.5006)" gradientUnits="userSpaceOnUse">
<stop offset="0.06" stop-color="white"/>
<stop offset="0.93" stop-color="#A469FF" stop-opacity="0"/>
</radialGradient>
<radialGradient id="paint4_radial_12991_74" cx="0" cy="0" r="1" gradientTransform="matrix(6.11849 -2.5532 -2.56895 -6.08093 28.1172 12.4076)" gradientUnits="userSpaceOnUse">
<stop offset="0.06" stop-color="white"/>
<stop offset="0.93" stop-color="#A469FF" stop-opacity="0"/>
</radialGradient>
<linearGradient id="paint5_linear_12991_74" x1="5.54425" y1="30.0627" x2="36.7544" y2="30.0627" gradientUnits="userSpaceOnUse">
<stop stop-color="#700EDB"/>
<stop offset="1" stop-color="#6E0ED9"/>
</linearGradient>
</defs>
</svg>
