<svg width="50" height="50" viewBox="0 0 50 50" fill="none" xmlns="http://www.w3.org/2000/svg">
<path d="M30.9913 15.9808C30.9913 15.9808 34.7648 21.5364 34.8592 26.3935C34.9535 31.2506 32.0604 35.8221 32.0604 35.8221C32.0604 35.8221 23.8843 35.9341 18.507 32.0761C13.1296 28.218 12.3251 22.166 12.3251 22.166C12.3251 22.166 16.2743 17.6011 21.2742 16.2348C26.2742 14.8686 30.9913 15.9808 30.9913 15.9808Z" fill="#008E9D"/>
<path d="M28.7736 24.9683C28.7736 27.1248 27.0419 28.873 24.9057 28.873C22.7695 28.873 21.0377 27.1248 21.0377 24.9683C21.0377 22.8117 22.7695 21.0635 24.9057 21.0635C27.0419 21.0635 28.7736 22.8117 28.7736 24.9683Z" fill="#1F495B"/>
<path d="M24.4969 22.4603C24.4969 22.9512 24.1026 23.3492 23.6164 23.3492C23.1301 23.3492 22.7358 22.9512 22.7358 22.4603C22.7358 21.9694 23.1301 21.5714 23.6164 21.5714C24.1026 21.5714 24.4969 21.9694 24.4969 22.4603Z" fill="white"/>
<path d="M26.195 25C26.195 25.7013 25.6318 26.2698 24.9371 26.2698C24.2424 26.2698 23.6792 25.7013 23.6792 25C23.6792 24.2987 24.2424 23.7302 24.9371 23.7302C25.6318 23.7302 26.195 24.2987 26.195 25Z" fill="#00ACEB"/>
<path fill-rule="evenodd" clip-rule="evenodd" d="M25 42.6508C34.7814 42.6508 42.673 34.7273 42.673 25C42.673 15.2727 34.7814 7.34921 25 7.34921C15.2186 7.34921 7.32704 15.2727 7.32704 25C7.32704 34.7273 15.2186 42.6508 25 42.6508ZM25 45C36.0457 45 45 36.0457 45 25C45 13.9543 36.0457 5 25 5C13.9543 5 5 13.9543 5 25C5 36.0457 13.9543 45 25 45Z" fill="#008E9D"/>
</svg>
