<svg width="50" height="50" viewBox="0 0 50 50" fill="none" xmlns="http://www.w3.org/2000/svg">
<path d="M29.8777 11.3755C32.1584 11.8719 34.125 11.1608 34.27 9.78735C34.5188 7.435 31.5955 6.54523 29.2493 6.54523C29.8646 6.38415 30.4779 6 31.1516 6C34.9338 6 38 8.72394 38 12.0841C38 14.8753 35.8843 17.2275 33 17.944V23.4413L36 26.3195L33 29.1976V36.2052C35.8769 34.601 38.077 31.8574 38.8845 28.6488C38.9607 29.2234 39 29.8093 39 30.4041C39 37.9129 32.7319 44 25 44C17.2681 44 11 37.9129 11 30.4041C11 23.6754 16.0332 18.0883 22.6428 17C22.3418 17.1655 22.0447 17.3449 21.7527 17.5384C20.0449 18.67 18.7139 20.1458 17.801 21.7939C21.5222 20.4005 27 18.333 27 18.333V32.5417L20.77 35.0942V21.6523L20.2388 21.8675L20.2322 21.8701C19.2156 22.2819 18.2004 22.6931 17.1851 23.0853C15.8708 26.336 16.0781 30.0428 18.0791 33.054C21.0457 37.518 26.9556 38.9486 32 36.7051V29.5255L28.658 26.3195L32 23.1134V18.122C31.7219 18.1525 31.439 18.1682 31.1516 18.1682C28.6316 18.1682 25.6765 16.8113 23.2354 15.6904C20.8662 14.602 15.9804 12.9429 14.4668 16.087C13.9316 17.1985 14.2615 18.6183 15.2236 20C13.2725 18.8257 12 16.8997 12 14.7228C12 11.1458 15.4353 8.24615 19.6729 8.24615C23.2743 8.24615 26.4227 10.6228 29.8777 11.3755Z" fill="black"/>
</svg>
