<svg width="50" height="50" viewBox="0 0 50 50" fill="none" xmlns="http://www.w3.org/2000/svg">
<path fill-rule="evenodd" clip-rule="evenodd" d="M44 10C44 7.79086 42.2091 6 40 6H10C7.79086 6 6 7.79086 6 10V40C6 42.2091 7.79086 44 10 44H40C42.2091 44 44 42.2091 44 40V10ZM21.4624 15.5522C23.5332 14.0224 25.5177 13.2125 27.6749 13.1225C31.2125 13.0325 34.4051 15.3723 34.4051 20.3218V36.8801H28.2788V22.3016C28.2788 18.8819 27.5886 18.5219 26.1217 18.5219C24.396 18.432 22.7566 19.2419 21.7212 20.6817V36.8801H15.595V16.64L21.4624 13.5725V15.5522Z" fill="#2B4259"/>
</svg>
