<svg width="50" height="50" viewBox="0 0 50 50" fill="none" xmlns="http://www.w3.org/2000/svg">
<path d="M12.3442 25.0947C12.2057 25.19 12.0722 25.2433 11.922 25.3243C11.8003 25.39 11.6764 25.4515 11.5543 25.5163C11.4591 25.5668 11.2827 25.6729 11.3897 25.797C11.4591 25.8778 11.6272 25.8651 11.7258 25.8788C11.8819 25.9003 12.074 25.8921 12.2297 25.8788C12.4204 25.8624 12.6198 25.9072 12.8139 25.9072C12.954 25.9072 13.0951 25.9132 13.2337 25.9128C13.2837 25.9127 13.3466 25.9242 13.3808 25.8805C13.4163 25.8352 13.3914 25.7848 13.3636 25.7471C13.3304 25.7021 13.2991 25.6421 13.259 25.607C13.2232 25.5757 13.1762 25.554 13.1402 25.5265C13.0527 25.4596 13.0223 25.3888 13.0998 25.3024C13.1769 25.2163 13.2336 25.1554 13.2375 25.0335C13.2425 24.878 13.1429 24.8459 13.0095 24.812C12.8096 24.7611 12.8265 24.7952 12.6592 24.8902C12.579 24.9357 12.3821 25.0686 12.3442 25.0947ZM37.8545 25.1571C37.9955 25.2487 38.1303 25.2985 38.2826 25.3755C38.4059 25.438 38.5315 25.4963 38.6552 25.5579C38.7518 25.6059 38.9309 25.7074 38.8272 25.8343C38.76 25.9168 38.5916 25.9085 38.4934 25.9247C38.3379 25.9503 38.1456 25.9471 37.9896 25.9379C37.7985 25.9264 37.6004 25.9764 37.4064 25.9814C37.2663 25.9852 37.1254 25.9948 36.9868 25.998C36.9369 25.9991 36.8743 26.0123 36.839 25.9695C36.8023 25.9252 36.8259 25.8741 36.8526 25.8357C36.8847 25.7899 36.9144 25.7291 36.9535 25.693C36.9885 25.6607 37.0349 25.6378 37.0701 25.6094C37.1558 25.5402 37.1844 25.4686 37.1046 25.3842C37.0252 25.3002 36.967 25.2408 36.9598 25.1191C36.9507 24.9637 37.0447 24.9032 37.182 24.8916C37.3587 24.8768 37.3518 24.9127 37.5273 24.9777C37.6139 25.0098 37.8159 25.1319 37.8545 25.1571ZM8.49109 26.256C9.57717 27.4988 11.6374 26.8765 15.0383 28.4908C19.5517 30.6331 19.8488 31.9074 25.0405 31.9438C30.4108 31.9815 30.5331 30.5183 35.2908 28.415C39.0464 26.7547 41.1262 27.4998 41.5708 26.1992C42.1766 24.4918 39.761 22.9176 38.4404 21.9949C32.4492 17.8091 29.8395 16.6816 25.1677 16.6859C20.1526 16.4019 15.303 19.3246 11.6788 21.9949C10.3878 22.9461 7.64927 24.7666 8.49109 26.256ZM24.8307 25.1899L24.8312 26.2458C23.7182 26.1492 22.8298 25.2559 22.7231 24.1293L23.7883 24.1314C23.8784 24.676 24.2995 25.1045 24.8307 25.1899ZM24.216 24.1322L24.8302 24.1335L24.8305 24.7664C24.5296 24.691 24.2932 24.4457 24.216 24.1322ZM24.2095 23.7179C24.2805 23.394 24.522 23.1395 24.8297 23.0619L24.83 23.7191L24.2095 23.7179ZM27.3413 23.7241L26.2647 23.7219C26.185 23.1753 25.773 22.7401 25.2471 22.6427L25.2466 21.5578C26.3686 21.663 27.2571 22.5793 27.3413 23.7241ZM25.2481 24.7568L25.2478 24.1343L25.8322 24.1354C25.7569 24.4368 25.5338 24.6732 25.2481 24.7568ZM26.2602 24.1363L27.3384 24.1384C27.2285 25.2547 26.3505 26.1405 25.2489 26.2449L25.2484 25.1852C25.764 25.0891 26.1701 24.6684 26.2602 24.1363ZM25.2477 23.7199L25.2473 23.071C25.5425 23.1571 25.7727 23.4057 25.8407 23.7211L25.2477 23.7199ZM22.721 23.715C22.8097 22.5698 23.7035 21.6559 24.829 21.5571L24.8295 22.6384C24.2923 22.7253 23.868 23.1633 23.7852 23.7171L22.721 23.715ZM27.3673 29.2754C29.5863 28.3872 31.1487 26.2681 31.1487 23.7941C31.1487 22.4422 30.6815 21.1968 29.8965 20.1996C31.5305 20.8872 33.7067 22.1924 37.3013 24.6702C37.8701 25.0623 39.5904 25.5189 39.1848 25.8962C38.8794 26.1803 37.2378 25.972 36.0162 26.3507C31.6606 27.7011 29.7067 28.8213 27.3673 29.2754ZM12.6523 24.6842C16.0055 22.2951 18.3018 20.9442 20.1761 20.21C19.3961 21.2055 18.9323 22.447 18.9323 23.7941C18.9323 26.186 20.393 28.2456 22.4953 29.1824C19.6851 28.5403 16.8874 27.0645 14.2175 26.3318C12.3936 25.8311 11.6788 26.2371 10.8771 25.8394C10.5538 25.679 12.1875 25.0152 12.6523 24.6842Z" fill="#19B8F9"/>
</svg>
