<svg width="50" height="50" viewBox="0 0 50 50" fill="none" xmlns="http://www.w3.org/2000/svg">
<rect width="50" height="50" fill="#1C4598"/>
<path d="M6.92601 24.0431H5V18.099H8.33099L12.1523 22.5367V18.099H14.0783V24.0431H10.8148L6.92601 19.5298V24.0431ZM23.2935 22.2052C23.2935 23.0315 23.1327 23.3162 22.8659 23.5896C22.4573 23.9964 21.863 24.1187 20.7173 24.1187H17.4289C16.2832 24.1187 15.6882 23.9963 15.2799 23.5896C15.0137 23.3164 14.8524 23.0315 14.8524 22.2052V19.9138C14.8524 19.0877 15.0137 18.803 15.2799 18.5294C15.6882 18.1222 16.2833 18 17.4289 18H20.7174C21.863 18 22.4574 18.1224 22.8659 18.5294C23.1325 18.8029 23.2935 19.0875 23.2935 19.9138V22.2052ZM20.6364 22.6124C21.0763 22.6124 21.2314 22.5891 21.3367 22.502C21.4357 22.4206 21.4792 22.3159 21.4792 21.9666V20.1521C21.4792 19.803 21.4357 19.6989 21.3367 19.6171C21.2314 19.5298 21.0763 19.5067 20.6364 19.5067H17.5095C17.0696 19.5067 16.9146 19.5298 16.8096 19.6171C16.7104 19.6989 16.6671 19.8031 16.6671 20.1521V21.9666C16.6671 22.3157 16.7103 22.4206 16.8096 22.502C16.9146 22.5891 17.0696 22.6124 17.5095 22.6124H20.6364ZM26.0925 18.099V24.0431H24.0801V18.099H26.0925ZM29.4925 18.099H32.1493L28.5637 20.8794L32.6078 24.0431H29.7649L26.0925 20.9431L29.4925 18.099ZM32.979 18.099H34.9921V24.0431H32.979V18.099ZM42.6654 24.0431L42.0699 23.0077H38.1755L37.5871 24.0431H35.3637L38.9311 18.0989H41.4327L45 24.0431H42.6654ZM38.8748 21.7166H41.3773L40.1258 19.5646L38.8748 21.7166Z" fill="white"/>
<path d="M30.9304 31.4776H29.2037V30.8075H30.9304C31.2648 30.8075 31.5356 30.7563 31.7427 30.6539C31.9499 30.5514 32.1008 30.4092 32.1955 30.2271C32.2931 30.045 32.342 29.8372 32.342 29.6039C32.342 29.3905 32.2931 29.1899 32.1955 29.0021C32.1008 28.8143 31.9499 28.6635 31.7427 28.5497C31.5356 28.4331 31.2648 28.3747 30.9304 28.3747H29.4034V33.9146H28.5467V27.7004H30.9304C31.4187 27.7004 31.8315 27.7815 32.1689 27.9437C32.5062 28.1058 32.7622 28.3306 32.9368 28.618C33.1114 28.9025 33.1987 29.2283 33.1987 29.5954C33.1987 29.9937 33.1114 30.3338 32.9368 30.6155C32.7622 30.8971 32.5062 31.112 32.1689 31.2599C31.8315 31.405 31.4187 31.4776 30.9304 31.4776Z" fill="white"/>
<path d="M26.5936 32.344C26.5936 32.1989 26.5699 32.0708 26.5226 31.9599C26.4782 31.8461 26.3983 31.7436 26.2828 31.6526C26.1704 31.5615 26.0136 31.4747 25.8123 31.3922C25.6141 31.3097 25.3625 31.2258 25.0577 31.1404C24.7381 31.0494 24.4496 30.9484 24.1921 30.8374C23.9347 30.7236 23.7142 30.5941 23.5307 30.449C23.3472 30.3039 23.2067 30.1374 23.109 29.9496C23.0114 29.7618 22.9625 29.547 22.9625 29.3052C22.9625 29.0633 23.0143 28.8399 23.1179 28.6351C23.2215 28.4302 23.3694 28.2524 23.5618 28.1016C23.7571 27.9479 23.9894 27.8284 24.2587 27.7431C24.528 27.6577 24.8284 27.615 25.1598 27.615C25.6451 27.615 26.0565 27.7047 26.3938 27.8839C26.7341 28.0603 26.9931 28.2922 27.1706 28.5796C27.3482 28.8641 27.437 29.1686 27.437 29.493H26.5847C26.5847 29.2596 26.5329 29.0534 26.4293 28.8741C26.3258 28.692 26.1689 28.5497 25.9588 28.4473C25.7487 28.342 25.4824 28.2894 25.1598 28.2894C24.855 28.2894 24.6035 28.3335 24.4052 28.4217C24.2069 28.5099 24.0589 28.6294 23.9613 28.7802C23.8666 28.931 23.8192 29.1031 23.8192 29.2966C23.8192 29.4275 23.8474 29.547 23.9036 29.6551C23.9628 29.7604 24.053 29.8586 24.1744 29.9496C24.2987 30.0407 24.4555 30.1246 24.6449 30.2015C24.8372 30.2783 25.0666 30.3523 25.3329 30.4234C25.6999 30.523 26.0165 30.6339 26.2828 30.7563C26.5492 30.8786 26.7682 31.0166 26.9398 31.1703C27.1144 31.3211 27.2431 31.4932 27.326 31.6867C27.4118 31.8774 27.4547 32.0936 27.4547 32.3355C27.4547 32.5887 27.4015 32.8178 27.2949 33.0226C27.1884 33.2275 27.036 33.4025 26.8377 33.5476C26.6394 33.6927 26.4012 33.8051 26.123 33.8848C25.8478 33.9616 25.5401 34 25.1998 34C24.9009 34 24.6064 33.9602 24.3164 33.8805C24.0294 33.8008 23.7675 33.6813 23.5307 33.522C23.2969 33.3626 23.109 33.1663 22.967 32.933C22.8279 32.6968 22.7583 32.4237 22.7583 32.1135H23.6106C23.6106 32.3269 23.6535 32.5105 23.7393 32.6641C23.8252 32.8149 23.9421 32.9401 24.09 33.0397C24.2409 33.1393 24.4111 33.2133 24.6005 33.2616C24.7929 33.3072 24.9926 33.3299 25.1998 33.3299C25.4986 33.3299 25.7517 33.2901 25.9588 33.2104C26.166 33.1307 26.3228 33.0169 26.4293 32.869C26.5388 32.721 26.5936 32.546 26.5936 32.344Z" fill="white"/>
<path d="M21.6309 27.7004V33.9146H20.7697L17.516 29.1216V33.9146H16.6593V27.7004H17.516L20.783 32.5062V27.7004H21.6309Z" fill="white"/>
</svg>
