<svg width="50" height="50" viewBox="0 0 50 50" fill="none" xmlns="http://www.w3.org/2000/svg">
<path d="M9.10595 9.50948L28.4725 8.07903C30.8514 7.87498 31.4625 8.01253 32.9584 9.09998L39.1405 13.455C40.16 14.204 40.4995 14.4081 40.4995 15.2236V39.1086C40.4995 40.6056 39.956 41.4911 38.053 41.6262L15.5634 42.9884C14.1354 43.0559 13.4554 42.8519 12.7074 41.8988L8.155 35.9789C7.33845 34.8894 7 34.0739 7 33.1205V11.8895C7 10.6655 7.54355 9.64493 9.10595 9.50948Z" fill="white"/>
<path fill-rule="evenodd" clip-rule="evenodd" d="M28.4725 8.07903L9.10595 9.50948C7.54355 9.64493 7 10.6655 7 11.8895V33.1205C7 34.0739 7.33845 34.8894 8.155 35.9789L12.7074 41.8988C13.4554 42.8519 14.1354 43.0559 15.5634 42.9884L38.053 41.6262C39.9546 41.4907 40.4995 40.6052 40.4995 39.1086V15.2236C40.4995 14.4501 40.1944 14.2275 39.2948 13.5674L32.9584 9.09998C31.4625 8.01253 30.8514 7.87498 28.4725 8.07903ZM16.072 14.833C14.2355 14.9565 13.819 14.9845 12.7761 14.1365L10.1244 12.0274C9.85495 11.7544 9.9904 11.4138 10.6694 11.3459L29.2869 9.98548C30.8504 9.84898 31.6645 10.3939 32.276 10.8699L35.469 13.1834C35.6055 13.2524 35.945 13.6594 35.5365 13.6594L16.31 14.8169L16.072 14.833ZM13.931 38.9049V18.6284C13.931 17.7429 14.203 17.3344 15.0171 17.2658L37.1 15.9729C37.849 15.9054 38.1875 16.3814 38.1875 17.2655V37.4069C38.1875 38.2924 38.0509 39.0414 36.8284 39.109L15.6965 40.334C14.4739 40.4015 13.931 39.9945 13.931 38.9049ZM34.791 19.7155C34.9265 20.328 34.791 20.9405 34.1785 21.0105L33.16 21.2124V36.183C32.2756 36.659 31.4615 36.9309 30.7811 36.9309C29.6936 36.9309 29.4221 36.5904 28.6076 35.5705L21.9471 25.0915V35.2299L24.0541 35.707C24.0541 35.707 24.0541 36.932 22.3541 36.932L17.6677 37.2039C17.5311 36.9309 17.6677 36.2509 18.1426 36.1154L19.3665 35.7759V22.3709L17.668 22.2334C17.5315 21.6209 17.871 20.7364 18.823 20.6678L23.8514 20.3294L30.7814 30.9438V21.5533L29.015 21.3503C28.8785 20.6003 29.422 20.0553 30.101 19.9888L34.791 19.7155Z" fill="black"/>
</svg>
