<svg width="50" height="50" viewBox="0 0 50 50" fill="none" xmlns="http://www.w3.org/2000/svg">
<rect width="50" height="50" fill="#0C9BDB"/>
<path d="M20.5334 10.3348L16.9951 14.0307L20.5334 17.7267V10.3348ZM36.5464 22.8229L38.9443 20.3279L36.5464 17.8409V22.8229ZM10.9443 20.3518L13.3103 22.4376V17.8755L10.9443 20.3518Z" fill="white"/>
<path d="M17.155 26.8005C16.3051 25.9157 15.4418 25.0415 14.6212 24.1302C14.4456 23.9016 14.3518 23.621 14.3548 23.333C14.3335 21.3261 14.3335 19.32 14.3548 17.3148C14.3548 17.0274 14.4483 16.7477 14.6212 16.5177C15.1221 15.9278 15.687 15.3885 16.2918 14.7481C18.013 16.5443 19.7022 18.3059 21.5326 20.211C21.5326 16.7684 21.5308 13.3257 21.5513 9.88306C21.5626 9.4979 21.7097 9.12907 21.9669 8.84149C22.7662 8.04438 23.6268 7.32166 24.3649 6.64677V27.7969L17.3442 20.4687V26.7341L17.155 26.8005Z" fill="white"/>
<path d="M33.5303 25.7882L28.4013 20.4342C28.4013 20.4342 28.3024 26.8627 28.3746 30.05C28.3959 31.0066 28.1908 31.7452 27.4421 32.3564C26.7493 32.9223 26.1099 33.5441 25.4704 34.1074V12.7819C27.8684 15.2662 30.1518 17.6655 32.579 20.1977V13.9776L32.7628 13.8925C33.6527 14.8305 34.5506 15.7525 35.4272 16.7143C35.5268 16.8997 35.5651 17.1118 35.5365 17.3201C35.5365 19.3235 35.5525 21.327 35.5365 23.333C35.5361 23.6432 35.43 23.944 35.2354 24.1859C34.7185 24.7333 34.1431 25.2169 33.5303 25.7882Z" fill="white"/>
<path d="M18.3034 22.9C20.3949 25.0894 22.332 27.1087 24.2557 29.144C24.3814 29.3098 24.448 29.5128 24.4449 29.7206C24.4582 31.2112 24.4449 32.7018 24.4449 34.3333C22.3965 32.5296 20.5846 30.4144 18.7138 28.4293C18.4935 28.211 18.352 27.926 18.3115 27.6189C18.2821 26.1256 18.3034 24.635 18.3034 22.9Z" fill="white"/>
<path d="M31.596 17.7267C29.5257 15.5585 27.6179 13.5737 25.7341 11.5676C25.5637 11.3742 25.4641 11.1287 25.4517 10.8715V6.33325L31.1881 12.2399C31.3998 12.4337 31.542 12.6912 31.5931 12.9732C31.6144 14.4798 31.596 15.9943 31.596 17.7267Z" fill="white"/>
<path d="M29.3631 30.3343V22.8946L32.9307 26.6145L29.3631 30.3343Z" fill="white"/>
<path d="M20.5334 10.3348V17.7267L16.995 14.0334L20.5334 10.3348Z" fill="white"/>
<path d="M36.5463 22.8255V17.8435L38.9442 20.3305L36.5463 22.8255Z" fill="white"/>
<path d="M10.9443 20.3545L13.3103 17.8755L13.3103 22.4403L10.9443 20.3545Z" fill="white"/>
<path fill-rule="evenodd" clip-rule="evenodd" d="M29.8412 42.4723C29.5488 42.8131 29.1274 43 28.5585 43C27.5168 43 26.7906 42.0976 26.7906 40.883C26.7906 39.8792 27.2989 38.6735 28.5668 38.6735C29.1117 38.6735 29.5207 38.8477 29.8117 39.1713V37H30.5836V42.9229H29.8781L29.8412 42.4723ZM29.8117 39.8747C29.6185 39.5304 29.295 39.2751 28.7577 39.2751C27.832 39.2751 27.5625 40.1787 27.5625 40.883C27.5625 41.5833 27.8872 42.3946 28.7494 42.3946C29.2946 42.3946 29.613 42.1388 29.8117 41.7828V39.8747Z" fill="white"/>
<path d="M32.6129 38.7506V42.9229H31.841V38.7506H32.6129Z" fill="white"/>
<path d="M31.7829 37.644C31.7829 37.4107 31.9389 37.2314 32.2353 37.2314C32.5309 37.2314 32.6918 37.4144 32.6918 37.644C32.6918 37.8614 32.5336 38.045 32.2353 38.045C31.9362 38.045 31.7829 37.8648 31.7829 37.644Z" fill="white"/>
<path fill-rule="evenodd" clip-rule="evenodd" d="M36.5104 42.4819C36.2268 42.758 35.7953 43 35.2315 43C34.4629 43 33.7127 42.5388 33.7127 41.7622C33.7127 40.8562 34.5134 40.3933 35.7337 40.3933H36.4931V40.0617C36.4931 39.5656 36.1678 39.2481 35.5469 39.2481C34.9743 39.2481 34.5758 39.5557 34.5758 39.9075H33.8081C33.8081 39.0804 34.8401 38.6735 35.5926 38.6735C36.5769 38.6735 37.2608 39.1371 37.2608 40.0694C37.2608 40.8545 37.1744 41.6766 37.2982 42.4563C37.3256 42.6117 37.4185 42.7683 37.4185 42.9229H36.6176C36.5525 42.7846 36.5283 42.631 36.5104 42.4819ZM36.4931 41.7499C36.2796 42.1436 35.8105 42.3753 35.3436 42.3753C34.7822 42.3753 34.4845 42.0602 34.4845 41.6658C34.4845 41.1435 34.9902 40.8946 35.8581 40.8946H36.4931V41.7499Z" fill="white"/>
<path d="M39.2362 39.9454V42.9229H38.4684V38.7506H39.1947L39.2189 39.2697C39.5428 38.8903 40.0074 38.6735 40.56 38.6735C41.5556 38.6735 42 39.3505 42 40.1889V42.9229H41.2281V40.1812C41.2281 39.517 40.9066 39.2751 40.3317 39.2751C39.8435 39.2751 39.4539 39.543 39.2362 39.9454Z" fill="white"/>
<path d="M24.9522 42.9229V39.9567C25.1224 39.5882 25.459 39.3599 25.9772 39.3599C26.1244 39.3599 26.2263 39.3656 26.3507 39.3907L26.3549 38.7275C26.2994 38.7017 26.1249 38.6735 26.0146 38.6735C25.5208 38.6735 25.1648 38.901 24.9466 39.2295L24.9315 38.7506H24.1845V42.9229H24.9522Z" fill="white"/>
<path fill-rule="evenodd" clip-rule="evenodd" d="M22.2265 42.4819C21.9428 42.758 21.5114 43 20.9476 43C20.179 43 19.4287 42.5388 19.4287 41.7622C19.4287 41.0842 19.8751 40.6578 20.6156 40.482C21.1339 40.3589 21.6791 40.3933 22.2091 40.3933V40.0617C22.2091 39.5656 21.8839 39.2481 21.263 39.2481C20.8518 39.2481 20.2919 39.457 20.2919 39.9075H19.5241C19.5241 39.0896 20.557 38.6735 21.3086 38.6735C22.293 38.6735 22.9769 39.1371 22.9769 40.0694V42.0129C22.9769 42.2908 23.0296 42.6352 23.1346 42.8612V42.9229H22.3336C22.2685 42.7846 22.2444 42.631 22.2265 42.4819ZM22.2091 41.7499V40.8946C21.8049 40.8946 21.3873 40.8671 20.9891 40.9447C20.4778 41.0367 20.2006 41.2751 20.2006 41.6658C20.2006 42.0602 20.4982 42.3753 21.0596 42.3753C21.5265 42.3753 21.9957 42.1436 22.2091 41.7499Z" fill="white"/>
<path d="M17.6407 42.5101L17.6567 42.9229H18.3912V38.7506H17.6193V41.7843C17.4459 42.1564 17.0831 42.3946 16.4491 42.3946C16.0354 42.3946 15.6232 42.1987 15.6232 41.4499V38.7506H14.8555V41.4422C14.8555 42.5597 15.4642 43 16.3287 43C16.9352 43 17.3621 42.818 17.6407 42.5101Z" fill="white"/>
<path d="M13.6603 42.1825V40.1272H11.465V40.7288H12.8636V41.9859C12.5381 42.336 11.9945 42.3946 11.5273 42.3946C10.5025 42.3946 9.80508 41.6277 9.80508 40.3316C9.80508 39.2578 9.94741 37.8406 11.4318 37.8406C12.1765 37.8406 12.7352 38.2501 12.8594 38.9512H13.6603C13.5116 37.9604 12.8232 37.2314 11.4318 37.2314C9.47627 37.2314 9 38.8199 9 40.3316C9 42.0034 10.0541 43 11.5231 43C12.3028 43 13.1956 42.8223 13.6603 42.1825Z" fill="white"/>
</svg>
