<svg width="50" height="50" viewBox="0 0 50 50" fill="none" xmlns="http://www.w3.org/2000/svg">
<path d="M20.5334 10.3348L16.9951 14.0307L20.5334 17.7267V10.3348ZM36.5464 22.8229L38.9443 20.3279L36.5464 17.8409V22.8229ZM10.9443 20.3518L13.3103 22.4376V17.8755L10.9443 20.3518Z" fill="#FCFDFE"/>
<path d="M17.155 26.8005C16.3051 25.9157 15.4418 25.0415 14.6212 24.1302C14.4456 23.9016 14.3518 23.621 14.3548 23.333C14.3335 21.3261 14.3335 19.32 14.3548 17.3148C14.3548 17.0274 14.4483 16.7477 14.6212 16.5177C15.1221 15.9278 15.687 15.3885 16.2918 14.7481C18.013 16.5443 19.7022 18.3059 21.5326 20.211C21.5326 16.7684 21.5308 13.3257 21.5513 9.88306C21.5626 9.4979 21.7097 9.12907 21.9669 8.84149C22.7662 8.04438 23.6268 7.32166 24.3649 6.64677V27.7969L17.3442 20.4687V26.7341L17.155 26.8005Z" fill="#0497D9"/>
<path d="M33.5303 25.7882L28.4013 20.4342C28.4013 20.4342 28.3024 26.8627 28.3746 30.05C28.3959 31.0066 28.1908 31.7452 27.4421 32.3564C26.7493 32.9223 26.1099 33.5441 25.4704 34.1074V12.7819C27.8684 15.2662 30.1518 17.6655 32.579 20.1977V13.9776L32.7628 13.8925C33.6527 14.8305 34.5506 15.7525 35.4272 16.7143C35.5268 16.8997 35.5651 17.1118 35.5365 17.3201C35.5365 19.3235 35.5525 21.327 35.5365 23.333C35.5361 23.6432 35.4299 23.944 35.2354 24.1859C34.7185 24.7333 34.1431 25.2169 33.5303 25.7882Z" fill="#0497D9"/>
<path d="M18.3034 22.9C20.3949 25.0894 22.332 27.1087 24.2557 29.144C24.3814 29.3098 24.448 29.5128 24.4449 29.7206C24.4582 31.2112 24.4449 32.7018 24.4449 34.3333C22.3965 32.5296 20.5846 30.4144 18.7138 28.4293C18.4935 28.211 18.352 27.926 18.3115 27.6189C18.2821 26.1256 18.3034 24.635 18.3034 22.9Z" fill="#0497D9"/>
<path d="M31.596 17.7267C29.5257 15.5585 27.6179 13.5737 25.7341 11.5676C25.5637 11.3742 25.4641 11.1287 25.4517 10.8715V6.33325L31.1881 12.2399C31.3998 12.4337 31.542 12.6912 31.5931 12.9732C31.6144 14.4798 31.596 15.9943 31.596 17.7267Z" fill="#0497D9"/>
<path d="M29.3631 30.3343V22.8946L32.9307 26.6145L29.3631 30.3343Z" fill="#0C9BDB"/>
<path d="M20.5334 10.3348V17.7267L16.995 14.0334L20.5334 10.3348Z" fill="#0B9ADB"/>
<path d="M36.5463 22.8255V17.8435L38.9442 20.3305L36.5463 22.8255Z" fill="#0899DA"/>
<path d="M10.9443 20.3545L13.3103 17.8755L13.3103 22.4403L10.9443 20.3545Z" fill="#0799DB"/>
<path fill-rule="evenodd" clip-rule="evenodd" d="M30.1177 45.4294C29.7736 45.8609 29.2778 46.0977 28.6084 46.0977C27.3827 46.0977 26.5283 44.955 26.5283 43.417C26.5283 42.1458 27.1264 40.6191 28.6182 40.6191C29.2594 40.6191 29.7406 40.8398 30.083 41.2494V38.5H30.9912V46H30.1611L30.1177 45.4294ZM30.083 42.1402C29.8557 41.7042 29.475 41.3809 28.8428 41.3809C27.7537 41.3809 27.4365 42.5251 27.4365 43.417C27.4365 44.3037 27.8186 45.3311 28.833 45.3311C29.4745 45.3311 29.8491 45.0072 30.083 44.5564V42.1402Z" fill="#1C1D1F"/>
<path d="M33.3789 40.7168V46H32.4707V40.7168H33.3789Z" fill="#1C1D1F"/>
<path d="M32.4023 39.3154C32.4023 39.0201 32.5858 38.793 32.9346 38.793C33.2824 38.793 33.4717 39.0248 33.4717 39.3154C33.4717 39.5907 33.2856 39.8232 32.9346 39.8232C32.5827 39.8232 32.4023 39.5951 32.4023 39.3154Z" fill="#1C1D1F"/>
<path fill-rule="evenodd" clip-rule="evenodd" d="M37.9647 45.4416C37.631 45.7912 37.1234 46.0977 36.46 46.0977C35.5556 46.0977 34.6729 45.5136 34.6729 44.5303C34.6729 43.3831 35.615 42.7969 37.0508 42.7969H37.9443V42.377C37.9443 41.7488 37.5616 41.3467 36.8311 41.3467C36.1573 41.3467 35.6885 41.7362 35.6885 42.1816H34.7852C34.7852 41.1344 35.9994 40.6191 36.8848 40.6191C38.043 40.6191 38.8477 41.2062 38.8477 42.3867C38.8477 43.3809 38.7459 44.4218 38.8916 45.4092C38.9239 45.6059 39.0332 45.8043 39.0332 46H38.0908C38.0142 45.8249 37.9858 45.6304 37.9647 45.4416ZM37.9443 44.5146C37.6932 45.0132 37.1412 45.3066 36.5918 45.3066C35.9312 45.3066 35.5811 44.9076 35.5811 44.4082C35.5811 43.7469 36.1761 43.4316 37.1973 43.4316H37.9443V44.5146Z" fill="#1C1D1F"/>
<path d="M41.1719 42.2297V46H40.2686V40.7168H41.123L41.1515 41.3741C41.5326 40.8936 42.0793 40.6191 42.7295 40.6191C43.901 40.6191 44.4238 41.4763 44.4238 42.5381V46H43.5156V42.5283C43.5156 41.6872 43.1373 41.3809 42.4609 41.3809C41.8864 41.3809 41.428 41.7201 41.1719 42.2297Z" fill="#1C1D1F"/>
<path d="M24.3652 46V42.244C24.5655 41.7773 24.9615 41.4883 25.5713 41.4883C25.7445 41.4883 25.8643 41.4955 26.0107 41.5273L26.0156 40.6875C25.9503 40.6548 25.745 40.6191 25.6152 40.6191C25.0342 40.6191 24.6154 40.9072 24.3587 41.3232L24.3408 40.7168H23.4619V46H24.3652Z" fill="#1C1D1F"/>
<path fill-rule="evenodd" clip-rule="evenodd" d="M21.1581 45.4416C20.8243 45.7912 20.3167 46.0977 19.6533 46.0977C18.749 46.0977 17.8662 45.5136 17.8662 44.5303C17.8662 43.6718 18.3915 43.1318 19.2627 42.9092C19.8725 42.7533 20.514 42.7969 21.1377 42.7969V42.377C21.1377 41.7488 20.755 41.3467 20.0244 41.3467C19.5406 41.3467 18.8818 41.6112 18.8818 42.1816H17.9785C17.9785 41.146 19.1937 40.6191 20.0781 40.6191C21.2364 40.6191 22.041 41.2062 22.041 42.3867V44.8477C22.041 45.1997 22.103 45.6358 22.2266 45.9219V46H21.2842C21.2076 45.8249 21.1792 45.6304 21.1581 45.4416ZM21.1377 44.5146V43.4316C20.662 43.4316 20.1707 43.3969 19.7021 43.4951C19.1006 43.6115 18.7744 43.9134 18.7744 44.4082C18.7744 44.9076 19.1246 45.3066 19.7852 45.3066C20.3345 45.3066 20.8865 45.0132 21.1377 44.5146Z" fill="#1C1D1F"/>
<path d="M15.7624 45.4773L15.7812 46H16.6455V40.7168H15.7373V44.5582C15.5332 45.0294 15.1064 45.3311 14.3604 45.3311C13.8736 45.3311 13.3887 45.083 13.3887 44.1348V40.7168H12.4854V44.125C12.4854 45.5402 13.2015 46.0977 14.2188 46.0977C14.9323 46.0977 15.4346 45.8672 15.7624 45.4773Z" fill="#1C1D1F"/>
<path d="M11.0791 45.0625V42.46H8.49609V43.2217H10.1416V44.8135C9.75866 45.2569 9.11911 45.3311 8.56934 45.3311C7.36358 45.3311 6.54297 44.3599 6.54297 42.7188C6.54297 41.359 6.71044 39.5645 8.45703 39.5645C9.33315 39.5645 9.99063 40.083 10.1367 40.9707H11.0791C10.904 39.7161 10.0941 38.793 8.45703 38.793C6.15609 38.793 5.5957 40.8046 5.5957 42.7188C5.5957 44.8357 6.83602 46.0977 8.56445 46.0977C9.48177 46.0977 10.5322 45.8727 11.0791 45.0625Z" fill="#1C1D1F"/>
</svg>
