<svg width="50" height="50" viewBox="0 0 50 50" fill="none" xmlns="http://www.w3.org/2000/svg">
<path d="M35.2105 14.1211L26.2037 5V12.1259L35.2105 21.247V14.1211Z" fill="#009FDB"/>
<path d="M42.4348 21.342V28.5629L46 24.9524L42.4348 21.342Z" fill="#009FDB"/>
<path d="M36.7117 15.5463V24.8574L26.2037 14.2161V44.9999L30.5195 40.6294V25.0474L38.2128 32.8384L40.9336 29.988V19.9168L36.7117 15.5463Z" fill="#009FDB"/>
<path d="M37.1808 33.8836L31.9268 28.563V39.2043L37.1808 33.8836Z" fill="#009FDB"/>
<path d="M8.56522 21.342L5 24.9524L8.56522 28.5629V21.342Z" fill="#009FDB"/>
<path d="M15.6957 35.7839L24.7963 45V37.7791L15.6957 28.563V35.7839Z" fill="#009FDB"/>
<path d="M13.8192 16.0215L19.0732 21.2471V10.7958L13.8192 16.0215Z" fill="#009FDB"/>
<path d="M20.4805 9.27553V24.8575L12.7872 17.0665L9.97254 19.9168V29.9881L14.2883 34.3586V25.0475L24.7963 35.6888V5L20.4805 9.27553Z" fill="#009FDB"/>
</svg>
