<svg width="50" height="50" viewBox="0 0 50 50" fill="none" xmlns="http://www.w3.org/2000/svg">
<path d="M8.17336 20.5011C8.20307 20.8418 8.23278 21.1825 8.26295 21.5232C8.2662 21.5609 8.27781 21.5982 8.2792 21.6355C8.29545 22.0978 8.30056 22.5607 8.32794 23.0221C8.50852 26.0982 8.37994 29.1771 8.41893 32.2541C8.41986 32.3376 8.41893 32.421 8.41893 32.5123H5V16.0011H9.28237C9.74936 16.9169 10.2182 17.8458 10.6954 18.7705C11.3068 19.9558 11.9316 21.134 12.5374 22.322C13.017 23.2626 13.4909 24.2064 13.9394 25.1618C14.288 25.9048 14.593 26.6682 14.9174 27.4223C14.9402 27.475 14.9676 27.5253 15.02 27.6316C15.04 27.5286 15.059 27.4824 15.0558 27.4377C15.0117 26.8509 14.9495 26.265 14.923 25.6773C14.9003 25.1735 14.9193 24.6678 14.9179 24.163C14.9109 21.5139 14.9031 18.8642 14.8956 16.215C14.8956 16.1474 14.8956 16.0799 14.8956 16.0016H18.2867V32.5207H18.0356C16.8207 32.5207 15.6063 32.5119 14.392 32.5282C14.1469 32.5315 14.0234 32.448 13.9208 32.2397C13.5949 31.5793 13.257 30.9249 12.919 30.271C12.3216 29.116 11.7176 27.9644 11.1225 26.8085C10.6834 25.9556 10.2201 25.1129 9.82921 24.2381C9.32693 23.1148 8.88686 21.9641 8.41847 20.8255C8.36972 20.7071 8.31309 20.5924 8.2597 20.4759C8.23092 20.4843 8.20214 20.4927 8.17336 20.5011Z" fill="black"/>
<path d="M29.3039 20.6301C28.6637 19.8662 27.9006 19.3423 26.9243 19.1857C26.3055 19.0864 25.6774 19.0445 25.1083 19.38C24.3725 19.8144 24.1525 20.6897 24.6673 21.4023C24.9482 21.7911 25.3302 22.0488 25.7383 22.2515C26.7521 22.7549 27.7952 23.1995 28.8049 23.7118C29.5527 24.0911 30.2745 24.5274 30.8409 25.172C31.3692 25.7732 31.773 26.4369 31.8608 27.2549C31.8984 27.6035 31.9634 27.9549 31.9471 28.3022C31.9039 29.2185 31.6147 30.0504 31.0535 30.7919C30.5257 31.4892 29.8438 31.9711 29.0741 32.3458C28.5124 32.6194 27.915 32.79 27.2999 32.88C26.8867 32.9401 26.4661 32.9611 26.0484 32.975C25.592 32.9909 25.1283 33.0263 24.6794 32.9667C24.0717 32.886 23.465 32.7569 22.8755 32.5877C21.9507 32.3221 21.1073 31.876 20.3497 31.2753C20.235 31.1844 20.1366 31.0725 20.0145 30.9546C20.695 29.9614 21.37 28.9761 22.0529 27.9801C22.2905 28.194 22.5152 28.4117 22.7562 28.6102C23.5444 29.2595 24.4162 29.7386 25.4374 29.9022C26.0762 30.0047 26.7112 29.9875 27.3222 29.7614C27.8527 29.5652 28.1874 29.1719 28.2835 28.6102C28.3833 28.0295 28.1471 27.5578 27.7028 27.2064C27.0046 26.6541 26.1723 26.3488 25.3734 25.9825C24.4129 25.542 23.433 25.1272 22.5923 24.4743C21.8486 23.8963 21.2233 23.207 20.9415 22.2716C20.7897 21.7677 20.6885 21.2509 20.7252 20.7237C20.7958 19.7091 21.098 18.7835 21.779 17.9977C22.3852 17.2976 23.1233 16.8171 23.977 16.4698C24.9867 16.0592 26.0335 15.9483 27.097 16.0206C28.1689 16.0937 29.211 16.3389 30.1552 16.887C30.6162 17.155 31.0744 17.4314 31.4202 17.8588C31.508 17.9674 31.482 18.0354 31.4184 18.1114C30.9871 18.6269 30.5508 19.1381 30.1181 19.6527C29.8438 19.9789 29.5713 20.308 29.3039 20.6301Z" fill="black"/>
<path d="M36.4574 19.8792C36.1626 20.0642 35.8521 20.253 35.548 20.4515C35.2421 20.6515 34.9427 20.8617 34.6354 21.0705C34.1651 20.1262 33.7074 19.2076 33.2446 18.2782C33.8202 17.8788 34.393 17.4831 34.9645 17.0855C35.4074 16.777 35.8484 16.4652 36.2917 16.1576C36.333 16.1291 36.3864 16.1016 36.4342 16.1016C37.5697 16.0984 38.7051 16.0993 39.8545 16.0993V32.5416H36.4574V19.8792Z" fill="black"/>
<path d="M44.9989 30.716C45.0361 31.7991 44.1072 32.653 43.0339 32.6455C41.8975 32.6376 41.1186 31.8019 41.1116 30.7015C41.1051 29.6822 41.8571 28.6662 43.1764 28.7314C44.135 28.7789 45.0328 29.623 44.9989 30.716Z" fill="#F4016F"/>
</svg>
