<svg width="50" height="50" viewBox="0 0 50 50" fill="none" xmlns="http://www.w3.org/2000/svg">
<path d="M11.6308 27.0616L13.3851 28.9008C13.0011 29.9808 12.5478 30.9832 12.2933 32.0311C11.9109 33.5962 12.6578 35.0119 14.1411 35.7271C15.6244 36.4422 17.2598 36.5287 18.8997 36.3836C19.3271 36.3232 19.7616 36.3287 20.1872 36.3997C20.0364 36.4935 19.8753 36.5707 19.7068 36.6298C17.7206 37.0812 15.7449 37.5985 13.7375 37.9312C12.8822 38.0777 11.9304 37.9238 11.0691 37.7318C8.66867 37.1984 7.60551 35.4838 8.13107 33.1405C8.56024 31.2119 10.0842 28.552 11.6308 27.0616Z" fill="#4B70B2"/>
<path d="M36.4313 25.8277C36.5547 25.813 36.6225 25.7852 36.6436 25.8042C38.8527 27.8178 40.9053 29.9589 41.7742 32.8723C42.5858 35.5922 41.1884 37.5941 38.1465 37.9561C36.5803 38.1437 34.9705 37.9898 33.29 37.9898C33.5912 36.8833 33.8336 35.9571 34.0806 35.0324C34.457 34.9723 34.8004 34.9152 35.1437 34.8624C37.8438 34.4477 39.178 32.585 38.4266 30.0263C38.0621 28.7836 37.3619 27.6331 36.8032 26.4446C36.6908 26.2326 36.5666 26.0266 36.4313 25.8277Z" fill="#4B70B2"/>
<path d="M18.7747 17.6135C19.0051 16.5877 19.1963 15.5618 19.4764 14.5536C19.999 12.666 20.6947 10.8429 22.0756 9.3628C23.5243 7.80937 25.2997 7.56317 26.9562 8.73263C27.6101 9.1804 28.1823 9.73175 28.6488 10.3637C29.4755 11.5361 30.1698 12.8038 30.9799 14.1315L28.0826 14.876C27.679 14.429 27.301 13.9469 26.8568 13.5277C25.1823 11.9421 23.2171 11.8732 21.657 13.5482C20.7022 14.5741 20.0607 15.8725 19.2867 17.0537C19.1733 17.2536 19.0727 17.4602 18.9855 17.6721L18.7747 17.6135Z" fill="#4B70B2"/>
<path d="M30.2872 34.7027C30.2074 35.4163 30.1216 36.1813 30.0207 37.087C24.8178 35.4574 20.1932 33.0027 16.0927 29.613C13.0538 27.1041 10.2197 23.5737 9.93664 22.0247C15.3112 28.3072 22.2458 32.2567 30.2872 34.7027Z" fill="#4B70B2"/>
<path d="M30.2195 40.9999C32.4331 33.3412 31.9317 25.7587 29.7451 18.0927L31.888 17.231C33.1626 21.7041 33.6042 26.3631 33.1921 30.9876C32.8774 34.5077 32.1771 37.9458 30.2195 40.9999Z" fill="#4B70B2"/>
<path d="M15.8036 25.9419L13.9965 24.5014C20.0984 19.1684 26.8674 15.4461 35.1844 14.9888C27.6595 16.7679 21.4492 20.7687 15.8036 25.9419Z" fill="#4B70B2"/>
<path d="M25.2892 28.7015C24.9451 28.7057 24.6036 28.6424 24.2853 28.5153C23.9669 28.3882 23.6781 28.1999 23.4362 27.9618C23.1942 27.7236 23.0041 27.4404 22.8772 27.1291C22.7503 26.8178 22.6892 26.4849 22.6975 26.1501C22.7015 25.4734 22.9812 24.8259 23.4753 24.3497C23.9694 23.8735 24.6375 23.6076 25.3328 23.6104C26.0271 23.627 26.6876 23.9055 27.1751 24.3869C27.6625 24.8684 27.9388 25.5152 27.9456 26.1911C27.9417 26.526 27.8697 26.8568 27.7339 27.1646C27.598 27.4723 27.401 27.7508 27.1541 27.9842C26.9072 28.2175 26.6153 28.401 26.2953 28.5241C25.9752 28.6472 25.6333 28.7075 25.2892 28.7015Z" fill="#4B70B2"/>
</svg>
