<svg width="50" height="50" viewBox="0 0 50 50" fill="none" xmlns="http://www.w3.org/2000/svg">
<rect width="50" height="50" fill="url(#paint0_linear_13925_48)"/>
<path fill-rule="evenodd" clip-rule="evenodd" d="M42.9623 15.5594C42.9927 16.0658 42.9673 16.8903 42.9677 17.4218L42.9694 21.1463C42.9701 23.8439 43.2522 27.3438 42.0896 29.7775C41.6161 31.0809 40.3993 32.6049 39.3617 33.5014C37.2758 35.3023 34.562 36.1895 31.8235 35.9661C27.1805 35.5915 23.3636 32.1284 22.5108 27.5169C22.0108 24.7721 23.0317 22.3052 21.1301 20.1024C20.1259 18.9391 18.9397 18.4524 17.4444 18.3367L17.4443 18.3367C14.8776 18.4251 12.925 19.8846 12.4045 22.4884C12.2489 23.2669 12.3083 25.3963 12.3093 26.302L12.3143 31.5956C12.3151 32.9078 12.5193 34.2146 11.5633 35.1947C11.0721 35.7056 10.3972 35.9958 9.69099 35.9997C8.55774 36.0105 7.22313 35.1376 7.08727 33.9196C6.9548 32.7319 7.01182 31.384 7.01433 30.1905L7.01448 23.4849C7.02813 20.6247 8.04698 18.0173 10.0816 15.9976C14.0001 12.0854 20.5132 12.0586 24.4806 15.9095C26.4456 17.8107 27.5814 20.4194 27.6387 23.1631C27.6737 25.4583 27.311 27.4408 29.1418 29.216C30.5935 30.6237 32.6898 31.0655 34.5497 30.2703C35.4463 29.8867 36.2391 29.2373 36.8038 28.4384C37.8533 26.9535 37.6639 25.3514 37.6637 23.0177C37.6624 20.6854 37.5941 18.3426 37.6469 16.0115C37.6814 14.4841 38.5494 13.0464 40.2378 13.0009C41.6781 12.9622 42.8796 14.1395 42.9623 15.5594Z" fill="white"/>
<defs>
<linearGradient id="paint0_linear_13925_48" x1="50" y1="0" x2="0" y2="50" gradientUnits="userSpaceOnUse">
<stop stop-color="#1EADB1"/>
<stop offset="0.153846" stop-color="#3691C9"/>
<stop offset="0.302885" stop-color="#5F67E8"/>
<stop offset="0.4375" stop-color="#904EE6"/>
<stop offset="0.596154" stop-color="#A951C8"/>
<stop offset="0.740385" stop-color="#B854B3"/>
<stop offset="0.850962" stop-color="#C656A2"/>
<stop offset="1" stop-color="#ED597B"/>
</linearGradient>
</defs>
</svg>
