<svg width="50" height="50" viewBox="0 0 50 50" fill="none" xmlns="http://www.w3.org/2000/svg">
<path d="M6.68082 12H14.124C14.4122 12 14.6925 12.1042 14.9093 12.2919L29.2617 24.7277C29.5657 24.9909 29.5631 25.4574 29.2537 25.718L15.0019 37.7212C14.7877 37.901 14.518 38 14.2351 38H6.37939C6.02772 38 5.86642 37.57 6.13084 37.3433L19.8565 25.5642C20.1394 25.3218 20.1394 24.8892 19.8591 24.6443L6.3503 12.86C6.00656 12.5603 6.22074 12 6.68082 12Z" fill="#B0D136"/>
<path d="M27.9002 18.5906L35.1557 12.2789C35.3619 12.0991 35.629 12 35.9066 12H43.5137C43.958 12 44.1695 12.5421 43.8363 12.834L32.6596 22.6794C32.3635 22.94 31.9166 22.94 31.6205 22.682L27.9002 19.4402C27.6411 19.216 27.6411 18.8173 27.9002 18.5906Z" fill="#0C4DA2"/>
<path d="M27.9002 30.5651L31.5544 27.4275C31.832 27.1878 32.2498 27.1904 32.5248 27.4327L43.7491 37.3068C44.0241 37.5492 43.8495 37.9974 43.482 37.9974H35.7744C35.5179 37.9974 35.2694 37.9036 35.079 37.7342L27.8949 31.4043C27.6384 31.1802 27.6411 30.784 27.9002 30.5625V30.5651Z" fill="#0C4DA2"/>
</svg>
