<svg width="50" height="50" viewBox="0 0 50 50" fill="none" xmlns="http://www.w3.org/2000/svg">
<path d="M8.60959 6H15.2693C15.5272 6 15.7779 6.09622 15.9719 6.26942L28.8135 17.7486C29.0856 17.9916 29.0832 18.4222 28.8064 18.6627L16.0547 29.7426C15.8631 29.9086 15.6218 30 15.3687 30H8.33989C8.02524 30 7.88092 29.6031 8.1175 29.3938L20.3983 18.5208C20.6515 18.2971 20.6515 17.8978 20.4007 17.6716L8.31386 6.79383C8.00631 6.51719 8.19794 6 8.60959 6Z" fill="#B0D136"/>
<path d="M27.5953 12.0836L34.0871 6.25739C34.2716 6.09141 34.5106 6 34.759 6H41.5654C41.9628 6 42.1521 6.50035 41.854 6.76977L31.8538 15.8579C31.5888 16.0984 31.189 16.0984 30.924 15.8603L27.5953 12.8678C27.3635 12.6609 27.3635 12.2929 27.5953 12.0836Z" fill="#0C4DA2"/>
<path d="M27.5953 23.1371L30.8648 20.2409C31.1132 20.0196 31.487 20.022 31.7331 20.2457L41.7759 29.3602C42.0219 29.584 41.8658 29.9977 41.5369 29.9977H34.6406C34.4112 29.9977 34.1888 29.9111 34.0184 29.7547L27.5906 23.9117C27.3611 23.7048 27.3635 23.3392 27.5953 23.1347V23.1371Z" fill="#0C4DA2"/>
<path d="M20.6646 35.6016V42H19.812L16.5908 37.0649V42H15.7427V35.6016H16.5908L19.8252 40.5498V35.6016H20.6646ZM26.0303 39.9653H26.874C26.8301 40.3696 26.7144 40.7314 26.5269 41.0508C26.3394 41.3701 26.0742 41.6235 25.7314 41.811C25.3887 41.9956 24.9609 42.0879 24.4482 42.0879C24.0732 42.0879 23.7319 42.0176 23.4243 41.877C23.1196 41.7363 22.8574 41.5371 22.6377 41.2793C22.418 41.0186 22.248 40.7065 22.1279 40.3433C22.0107 39.9771 21.9521 39.5698 21.9521 39.1216V38.4844C21.9521 38.0361 22.0107 37.6304 22.1279 37.2671C22.248 36.9009 22.4194 36.5874 22.6421 36.3267C22.8677 36.0659 23.1387 35.8652 23.4551 35.7246C23.7715 35.584 24.1274 35.5137 24.5229 35.5137C25.0063 35.5137 25.415 35.6045 25.749 35.7861C26.083 35.9678 26.3423 36.2197 26.5269 36.542C26.7144 36.8613 26.8301 37.2319 26.874 37.6538H26.0303C25.9893 37.355 25.9131 37.0986 25.8018 36.8848C25.6904 36.668 25.5322 36.501 25.3271 36.3838C25.1221 36.2666 24.854 36.208 24.5229 36.208C24.2388 36.208 23.9883 36.2622 23.7715 36.3706C23.5576 36.479 23.3774 36.6328 23.231 36.832C23.0874 37.0312 22.979 37.27 22.9058 37.5483C22.8325 37.8267 22.7959 38.1357 22.7959 38.4756V39.1216C22.7959 39.4351 22.8281 39.7295 22.8926 40.0049C22.96 40.2803 23.061 40.522 23.1958 40.73C23.3306 40.938 23.502 41.1021 23.71 41.2222C23.918 41.3394 24.1641 41.3979 24.4482 41.3979C24.8086 41.3979 25.0957 41.3408 25.3096 41.2266C25.5234 41.1123 25.6846 40.9482 25.793 40.7344C25.9043 40.5205 25.9834 40.2642 26.0303 39.9653ZM28.2979 35.6016H29.1196L31.2158 40.8179L33.3076 35.6016H34.1338L31.5322 42H30.8906L28.2979 35.6016ZM28.0298 35.6016H28.7549L28.8735 39.5039V42H28.0298V35.6016ZM33.6724 35.6016H34.3975V42H33.5537V39.5039L33.6724 35.6016Z" fill="black"/>
</svg>
