<svg width="50" height="50" viewBox="0 0 50 50" fill="none" xmlns="http://www.w3.org/2000/svg">
<path d="M8.6091 6H15.2688C15.5267 6 15.7775 6.09221 15.9715 6.25819L28.813 17.2591C29.0851 17.4919 29.0827 17.9046 28.8059 18.1351L16.0543 28.7533C15.8626 28.9124 15.6213 29 15.3682 29H8.3394C8.02475 29 7.88043 28.6196 8.11701 28.4191L20.3979 17.9991C20.651 17.7847 20.651 17.402 20.4002 17.1853L8.31337 6.76075C8.00582 6.49564 8.19745 6 8.6091 6Z" fill="#B0D136"/>
<path d="M27.5948 11.8301L34.0866 6.2467C34.2711 6.08764 34.5101 6.00004 34.7585 6.00004H41.5649C41.9623 6.00004 42.1516 6.47954 41.8535 6.73773L31.8533 15.4472C31.5883 15.6777 31.1885 15.6777 30.9235 15.4495L27.5948 12.5817C27.363 12.3834 27.363 12.0307 27.5948 11.8301Z" fill="#0C4DA2"/>
<path d="M27.5948 22.423L30.8644 19.6474C31.1128 19.4353 31.4866 19.4376 31.7326 19.652L41.7754 28.3868C42.0215 28.6012 41.8653 28.9977 41.5365 28.9977H34.6402C34.4107 28.9977 34.1883 28.9147 34.018 28.7649L27.5901 23.1653C27.3606 22.9671 27.363 22.6167 27.5948 22.4207V22.423Z" fill="#0C4DA2"/>
<path d="M39.918 35.5V43H39.0098V35.5H39.918Z" fill="#1C1D1F"/>
<path fill-rule="evenodd" clip-rule="evenodd" d="M36.4951 42.5752C36.5438 42.5312 36.5897 42.4866 36.6327 42.4416C36.6379 42.4884 36.6441 42.5362 36.6514 42.585C36.6774 42.7575 36.7132 42.8958 36.7588 43H37.7012V42.9219C37.6393 42.7786 37.5921 42.6077 37.5596 42.4092C37.5303 42.2106 37.5156 42.0234 37.5156 41.8477V39.3867C37.5156 38.9928 37.431 38.6657 37.2617 38.4053C37.0957 38.1416 36.8646 37.9447 36.5684 37.8145C36.2754 37.6842 35.9368 37.6191 35.5527 37.6191C35.2337 37.6191 34.944 37.6647 34.6836 37.7559C34.4264 37.8438 34.2051 37.9642 34.0195 38.1172C33.8372 38.2669 33.6973 38.4346 33.5996 38.6201C33.502 38.8057 33.4531 38.9928 33.4531 39.1816H34.3564C34.3564 39.0352 34.4036 38.8984 34.498 38.7715C34.5957 38.6445 34.7292 38.542 34.8984 38.4639C35.071 38.3857 35.2712 38.3467 35.499 38.3467C35.7432 38.3467 35.9482 38.389 36.1143 38.4736C36.2803 38.5583 36.404 38.6787 36.4854 38.835C36.57 38.988 36.6123 39.1686 36.6123 39.377V39.7969H35.7188C35.3574 39.7969 35.0303 39.8343 34.7373 39.9092C34.4443 39.984 34.1937 40.0947 33.9854 40.2412C33.777 40.3844 33.6175 40.5651 33.5068 40.7832C33.3962 40.998 33.3408 41.2471 33.3408 41.5303C33.3408 41.8232 33.4141 42.0885 33.5605 42.3262C33.7103 42.5605 33.9186 42.7477 34.1855 42.8877C34.4557 43.0277 34.7699 43.0977 35.1279 43.0977C35.4144 43.0977 35.6715 43.0488 35.8994 42.9512C36.1305 42.8503 36.3291 42.7249 36.4951 42.5752ZM36.4951 41.7012C36.5423 41.6383 36.5813 41.5761 36.6123 41.5146V40.4316H35.8652C35.6081 40.4316 35.3786 40.4528 35.1768 40.4951C34.9749 40.5342 34.8057 40.5944 34.6689 40.6758C34.5322 40.7572 34.4281 40.8597 34.3564 40.9834C34.2848 41.1038 34.249 41.2454 34.249 41.4082C34.249 41.5742 34.2865 41.7256 34.3613 41.8623C34.4362 41.999 34.5485 42.1081 34.6982 42.1895C34.8512 42.2676 35.0384 42.3066 35.2598 42.3066C35.5365 42.3066 35.7806 42.248 35.9922 42.1309C36.2038 42.0137 36.3714 41.8704 36.4951 41.7012Z" fill="#1C1D1F"/>
<path d="M31.207 39.244V43H30.3037V37.7168H31.1826L31.2005 38.3232L31.207 38.3125C31.3405 38.0944 31.5098 37.9251 31.7148 37.8047C31.9232 37.681 32.1706 37.6191 32.457 37.6191C32.5221 37.6191 32.597 37.6273 32.6816 37.6436C32.7663 37.6566 32.8249 37.6712 32.8574 37.6875L32.8525 38.5273C32.7777 38.5111 32.7061 38.5013 32.6377 38.498C32.5726 38.4915 32.4977 38.4883 32.4131 38.4883C32.2048 38.4883 32.0208 38.5208 31.8613 38.5859C31.7018 38.651 31.5667 38.7422 31.4561 38.8594C31.3535 38.968 31.2705 39.0962 31.207 39.244Z" fill="#1C1D1F"/>
<path d="M29.2441 37.7168V38.4102H28.2578V41.6914C28.2578 41.8704 28.2855 42.0055 28.3408 42.0967C28.3962 42.1878 28.4678 42.248 28.5557 42.2773C28.6436 42.3066 28.738 42.3213 28.8389 42.3213C28.9137 42.3213 28.9919 42.3148 29.0732 42.3018C29.1579 42.2855 29.2214 42.2725 29.2637 42.2627L29.2686 43C29.1969 43.0228 29.1025 43.0439 28.9854 43.0635C28.8714 43.0863 28.7331 43.0977 28.5703 43.0977C28.349 43.0977 28.1455 43.0537 27.96 42.9658C27.7744 42.8779 27.6263 42.7314 27.5156 42.5264C27.4082 42.318 27.3545 42.0381 27.3545 41.6865V38.4102H26.3877V37.7168H27.3545V36.4326H28.2578V37.7168H29.2441Z" fill="#1C1D1F"/>
<path d="M22.3878 38.3741C22.3978 38.3616 22.4078 38.3492 22.418 38.3369C22.6068 38.109 22.8314 37.9333 23.0918 37.8096C23.3555 37.6826 23.6468 37.6191 23.9658 37.6191C24.2262 37.6191 24.4606 37.6549 24.6689 37.7266C24.8773 37.7949 25.0547 37.9056 25.2012 38.0586C25.3509 38.2116 25.4648 38.4102 25.543 38.6543C25.6211 38.8952 25.6602 39.1898 25.6602 39.5381V43H24.752V39.5283C24.752 39.2516 24.7113 39.0303 24.6299 38.8643C24.5485 38.695 24.4297 38.5729 24.2734 38.498C24.1172 38.4199 23.9251 38.3809 23.6973 38.3809C23.4727 38.3809 23.2676 38.4281 23.082 38.5225C22.8997 38.6169 22.7419 38.7471 22.6084 38.9131C22.5322 39.0103 22.4655 39.1158 22.4082 39.2297V43H21.5049V37.7168H22.3594L22.3878 38.3741Z" fill="#1C1D1F"/>
<path fill-rule="evenodd" clip-rule="evenodd" d="M18.3945 43.0977C18.0267 43.0977 17.693 43.0358 17.3936 42.9121C17.0973 42.7852 16.8418 42.6077 16.627 42.3799C16.4154 42.152 16.2526 41.8818 16.1387 41.5693C16.0247 41.2568 15.9678 40.915 15.9678 40.5439V40.3389C15.9678 39.9092 16.0312 39.5267 16.1582 39.1914C16.2852 38.8529 16.4577 38.5664 16.6758 38.332C16.8939 38.0977 17.1413 37.9202 17.418 37.7998C17.6947 37.6794 17.9811 37.6191 18.2773 37.6191C18.6549 37.6191 18.9805 37.6842 19.2539 37.8145C19.5306 37.9447 19.7568 38.127 19.9326 38.3613C20.1084 38.5924 20.2386 38.8659 20.3232 39.1816C20.4079 39.4941 20.4502 39.8359 20.4502 40.207V40.6123H16.8768C16.8825 40.8376 16.9164 41.0508 16.9785 41.252C17.0501 41.4701 17.1527 41.6621 17.2861 41.8281C17.4229 41.9941 17.5872 42.1243 17.7793 42.2188C17.9746 42.3132 18.196 42.3604 18.4434 42.3604C18.7624 42.3604 19.0326 42.2952 19.2539 42.165C19.4753 42.0348 19.6689 41.8607 19.835 41.6426L20.3818 42.0771C20.2679 42.2497 20.123 42.4141 19.9473 42.5703C19.7715 42.7266 19.555 42.8535 19.2979 42.9512C19.0439 43.0488 18.7428 43.0977 18.3945 43.0977ZM16.9785 39.4941C16.9454 39.6123 16.9203 39.7393 16.9033 39.875H19.5469V39.8066C19.5339 39.5723 19.485 39.3444 19.4004 39.123C19.319 38.9017 19.1888 38.7194 19.0098 38.5762C18.8307 38.4329 18.5866 38.3613 18.2773 38.3613C18.0723 38.3613 17.8835 38.4053 17.7109 38.4932C17.5384 38.5778 17.3903 38.7048 17.2666 38.874C17.1429 39.0433 17.0469 39.25 16.9785 39.4941Z" fill="#1C1D1F"/>
<path d="M15.0547 40.7393H14.1172C14.0651 41.0713 13.9772 41.3561 13.8535 41.5938C13.7331 41.8314 13.554 42.0137 13.3164 42.1406C13.0788 42.2676 12.7598 42.3311 12.3594 42.3311C12.0436 42.3311 11.7702 42.266 11.5391 42.1357C11.3079 42.0023 11.1175 41.82 10.9678 41.5889C10.818 41.3577 10.7057 41.0892 10.6309 40.7832C10.5592 40.4772 10.5234 40.1501 10.5234 39.8018V39.084C10.5234 38.7064 10.5641 38.363 10.6455 38.0537C10.7269 37.7445 10.8473 37.4792 11.0068 37.2578C11.1696 37.0365 11.3698 36.8656 11.6074 36.7451C11.8483 36.6247 12.1266 36.5645 12.4424 36.5645C12.8102 36.5645 13.1081 36.6296 13.3359 36.7598C13.5638 36.89 13.7396 37.0755 13.8633 37.3164C13.987 37.554 14.0716 37.8389 14.1172 38.1709H15.0547C15.0059 37.7021 14.8773 37.2904 14.6689 36.9355C14.4639 36.5775 14.1758 36.2975 13.8047 36.0957C13.4336 35.8939 12.9795 35.793 12.4424 35.793C12.0029 35.793 11.6074 35.8711 11.2559 36.0273C10.9043 36.1836 10.6032 36.4066 10.3525 36.6963C10.1051 36.986 9.91471 37.3343 9.78125 37.7412C9.65104 38.1449 9.58594 38.5957 9.58594 39.0938V39.8018C9.58594 40.2998 9.65104 40.7523 9.78125 41.1592C9.91471 41.5628 10.1035 41.9095 10.3477 42.1992C10.5918 42.4857 10.8831 42.707 11.2217 42.8633C11.5635 43.0195 11.9427 43.0977 12.3594 43.0977C12.929 43.0977 13.4043 42.9951 13.7852 42.79C14.166 42.5817 14.4606 42.3001 14.6689 41.9453C14.8773 41.5905 15.0059 41.1885 15.0547 40.7393Z" fill="#1C1D1F"/>
</svg>
