<svg width="50" height="50" viewBox="0 0 50 50" fill="none" xmlns="http://www.w3.org/2000/svg">
<rect width="50" height="50" fill="#77B900"/>
<path d="M37.4582 28.8621L38.4833 31.8052H36.4014L37.4582 28.8621ZM36.3604 27.7162L33.9981 33.9977H35.6662L36.0398 32.8877H38.8355L39.1891 33.9977H41L38.6201 27.7154L36.3604 27.7162ZM31.6177 34H33.3101V27.7142L31.6174 27.7138L31.6177 34ZM19.8688 27.7138L18.4568 32.6958L17.1042 27.7142L15.2781 27.7138L17.2099 34H19.6481L21.5954 27.7138H19.8688ZM26.7097 29.0826H27.437C28.4923 29.0826 29.1748 29.5798 29.1748 30.8701C29.1748 32.1607 28.4923 32.658 27.437 32.658H26.7097V29.0826ZM25.0315 27.7138V34H27.7752C29.237 34 29.7143 33.745 30.2304 33.1729C30.595 32.7712 30.8308 31.8897 30.8308 30.926C30.8308 30.0422 30.6313 29.2544 30.2834 28.7635C29.6565 27.8855 28.7535 27.7138 27.4058 27.7138H25.0315ZM9 27.7051V34H10.7067V29.2203L12.0291 29.2207C12.467 29.2207 12.7791 29.3352 12.99 29.5716C13.2574 29.8705 13.3666 30.3531 13.3666 31.2359V34H15.0205V30.522C15.0205 28.0398 13.5129 27.7051 12.0378 27.7051H9ZM22.3077 27.7138L22.3084 34H24V27.7138H22.3077Z" fill="black"/>
<path d="M13.5483 15.1973C13.5483 15.1973 15.725 11.8269 20.0711 11.4782V10.2554C15.2572 10.6611 11.0886 14.94 11.0886 14.94C11.0886 14.94 13.4496 22.1031 20.0711 22.759V21.4592C15.212 20.8177 13.5483 15.1973 13.5483 15.1973ZM20.0711 18.8744V20.0647C16.3987 19.3775 15.3793 15.3711 15.3793 15.3711C15.3793 15.3711 17.1426 13.3211 20.0711 12.9887V14.2948C20.0689 14.2948 20.0655 14.2941 20.0655 14.2941C18.5285 14.1005 17.3277 15.6074 17.3277 15.6074C17.3277 15.6074 18.0007 18.1443 20.0711 18.8744ZM20.0711 8V10.2554C20.2125 10.244 20.3538 10.2344 20.4959 10.2293C25.9687 10.0357 29.5347 14.94 29.5347 14.94C29.5347 14.94 25.4391 20.1666 21.1722 20.1666C20.7811 20.1666 20.415 20.1286 20.0711 20.0647V21.4592C20.3652 21.4984 20.6701 21.5215 20.9882 21.5215C24.9588 21.5215 27.8303 19.3933 30.6108 16.8745C31.0718 17.262 32.9591 18.2046 33.347 18.6172C30.7033 20.9401 24.5421 22.8126 21.049 22.8126C20.7123 22.8126 20.389 22.7912 20.0711 22.759V24.7187H35.1633V8H20.0711ZM20.0711 12.9887V11.4782C20.211 11.4679 20.3519 11.4601 20.4959 11.4553C24.4314 11.3256 27.0134 15.0047 27.0134 15.0047C27.0134 15.0047 24.2246 19.0695 21.2344 19.0695C20.8041 19.0695 20.4184 18.9969 20.0711 18.8744V14.2948C21.6033 14.4891 21.9115 15.1994 22.8326 16.8108L24.8813 14.998C24.8813 14.998 23.3858 12.9396 20.8649 12.9396C20.5908 12.9395 20.3286 12.9597 20.0711 12.9887Z" fill="white"/>
<path d="M23.5898 36C24.9701 36.0002 25.7041 36.7966 25.83 37.9537H25.0258C24.9122 37.161 24.4386 36.6338 23.5898 36.6337C22.5192 36.6337 21.9434 37.4552 21.9434 38.7032C21.9434 39.7768 22.0205 41.3708 23.5181 41.3708C24.5501 41.3708 24.8922 40.8782 25.0258 40.0633H25.83C25.7043 41.1685 24.987 42 23.5181 42C21.5707 42 21.1393 40.217 21.1393 38.7112C21.1393 37.3155 21.9851 36 23.5898 36Z" fill="black"/>
<path fill-rule="evenodd" clip-rule="evenodd" d="M17.9982 36.0802C19.2472 36.0802 19.988 36.5466 19.988 37.6364C19.988 38.1728 19.6433 38.6144 19.0862 38.8449C19.7664 39.0178 20.1509 39.5763 20.1509 40.2353C20.1509 41.3157 19.3672 41.9196 18.1369 41.9198H16V36.0802H17.9982ZM16.8088 39.1889V41.2906H18.1369C18.9167 41.2904 19.3468 40.8766 19.3468 40.2433C19.3468 39.5937 18.9947 39.1889 18.1741 39.1889H16.8088ZM16.8088 38.5668H18.0233C18.7233 38.5668 19.1792 38.2052 19.1792 37.6283C19.1792 36.9862 18.8054 36.7139 17.9982 36.7139H16.8088V38.5668Z" fill="black"/>
<path d="M29.9678 40.8414L31.9613 36.0802H33V41.9198H32.1959L32.2731 37.1988L30.2694 41.9198H29.6579L27.6578 37.1934L27.736 41.9198H26.9319V36.0802H27.9705L29.9678 40.8414Z" fill="black"/>
</svg>
