<svg width="50" height="50" viewBox="0 0 50 50" fill="none" xmlns="http://www.w3.org/2000/svg">
<path d="M38.2369 27.6645L39.326 30.7208H37.114L38.2369 27.6645ZM37.0704 26.4745L34.5605 32.9976H36.3328L36.7298 31.845H39.7002L40.0759 32.9976H42L39.4713 26.4736L37.0704 26.4745ZM32.0313 33H33.8295V26.4725L32.031 26.4721L32.0313 33ZM19.5481 26.4721L18.0478 31.6456L16.6107 26.4725L14.6705 26.4721L16.723 33H19.3136L21.3826 26.4721H19.5481ZM26.8165 27.8935H27.5893C28.7106 27.8935 29.4357 28.4098 29.4357 29.7497C29.4357 31.09 28.7106 31.6064 27.5893 31.6064H26.8165V27.8935ZM25.0335 26.4721V33H27.9486C29.5018 33 30.009 32.7352 30.5574 32.1411C30.9447 31.724 31.1952 30.8085 31.1952 29.8078C31.1952 28.89 30.9832 28.0718 30.6136 27.5621C29.9475 26.6503 28.988 26.4721 27.5562 26.4721H25.0335ZM8 26.463V33H9.81338V28.0364L11.2185 28.0368C11.6837 28.0368 12.0153 28.1558 12.2394 28.4013C12.5235 28.7117 12.6396 29.2129 12.6396 30.1295V33H14.3967V29.3883C14.3967 26.8105 12.795 26.463 11.2277 26.463H8ZM22.1394 26.4721L22.1402 33H23.9375V26.4721H22.1394Z" fill="black"/>
<path d="M12.8326 13.4741C12.8326 13.4741 15.1453 9.97405 19.7631 9.61195V8.34211C14.6483 8.76346 10.2191 13.2069 10.2191 13.2069C10.2191 13.2069 12.7277 20.6455 19.7631 21.3266V19.9769C14.6002 19.3107 12.8326 13.4741 12.8326 13.4741ZM19.7631 17.2926V18.5287C15.8611 17.8151 14.778 13.6546 14.778 13.6546C14.778 13.6546 16.6515 11.5258 19.7631 11.1805V12.5369C19.7607 12.5369 19.7571 12.5362 19.7571 12.5362C18.124 12.3351 16.8482 13.9 16.8482 13.9C16.8482 13.9 17.5633 16.5345 19.7631 17.2926ZM19.7631 6V8.34211C19.9132 8.33031 20.0634 8.32029 20.2143 8.31502C26.0293 8.114 29.8181 13.2069 29.8181 13.2069C29.8181 13.2069 25.4665 18.6345 20.9329 18.6345C20.5174 18.6345 20.1284 18.5951 19.7631 18.5287V19.9769C20.0755 20.0176 20.3994 20.0415 20.7374 20.0415C24.9563 20.0415 28.0072 17.8315 30.9614 15.2158C31.4512 15.6182 33.4565 16.5971 33.8687 17.0256C31.0598 19.4378 24.5134 21.3823 20.8021 21.3823C20.4443 21.3823 20.1008 21.36 19.7631 21.3266V23.3618H35.7985V6H19.7631ZM19.7631 11.1805V9.61195C19.9117 9.6013 20.0614 9.59318 20.2143 9.58823C24.3959 9.45351 27.1392 13.2741 27.1392 13.2741C27.1392 13.2741 24.1761 17.4952 20.9991 17.4952C20.5419 17.4952 20.132 17.4198 19.7631 17.2926V12.5369C21.391 12.7387 21.7185 13.4763 22.6972 15.1497L24.8738 13.2671C24.8738 13.2671 23.2849 11.1296 20.6064 11.1296C20.3153 11.1295 20.0367 11.1505 19.7631 11.1805Z" fill="#77B900"/>
<path d="M23.7061 37.5137C25.1544 37.5139 25.9246 38.3865 26.0566 39.6543H25.2129C25.0937 38.7858 24.5967 38.2082 23.7061 38.208C22.5827 38.208 21.9785 39.1082 21.9785 40.4756C21.9785 41.6519 22.0595 43.3984 23.6309 43.3984C24.7137 43.3984 25.0727 42.8587 25.2129 41.9658H26.0566C25.9248 43.1768 25.1722 44.0879 23.6309 44.0879C21.5874 44.0879 21.1348 42.1343 21.1348 40.4844C21.1348 38.9551 22.0223 37.5137 23.7061 37.5137Z" fill="black"/>
<path fill-rule="evenodd" clip-rule="evenodd" d="M17.8389 37.6016C19.1495 37.6016 19.9268 38.1126 19.9268 39.3066C19.9268 39.8944 19.5651 40.3782 18.9805 40.6309C19.6943 40.8203 20.0977 41.4322 20.0977 42.1543C20.0977 43.3381 19.2754 43.9998 17.9844 44H15.7422V37.6016H17.8389ZM16.5908 41.0078V43.3105H17.9844C18.8026 43.3104 19.2539 42.857 19.2539 42.1631C19.2539 41.4513 18.8845 41.0078 18.0234 41.0078H16.5908ZM16.5908 40.3262H17.8652C18.5998 40.3262 19.0781 39.9299 19.0781 39.2979C19.0781 38.5942 18.6858 38.2959 17.8389 38.2959H16.5908V40.3262Z" fill="black"/>
<path d="M30.3984 42.8184L32.4902 37.6016H33.5801V44H32.7363L32.8174 38.8271L30.7148 44H30.0732L27.9746 38.8213L28.0566 44H27.2129V37.6016H28.3027L30.3984 42.8184Z" fill="black"/>
</svg>
