<svg width="50" height="50" viewBox="0 0 50 50" fill="none" xmlns="http://www.w3.org/2000/svg">
<path d="M44 25C44 35.4934 35.4934 44 25 44C14.5066 44 6 35.4934 6 25C6 14.5066 14.5066 6 25 6C35.4934 6 44 14.5066 44 25Z" fill="#0088C5"/>
<path d="M31.4215 32.3651L25.9988 23.8631C25.5811 23.2195 25.1464 22.5793 24.6517 21.9956C23.6863 20.8539 22.5377 20.034 20.9356 20.5047C19.2136 21.0114 18.1609 22.2181 17.911 23.9641C17.6011 26.1414 17.7586 30.1827 17.7278 32.3754H13.4023C13.3903 28.4128 13.4331 21.1243 13.4023 17.1617H17.608V19.2141C18.4981 18.1579 23.9483 14.7345 27.488 19.339C29.1381 21.4855 30.4801 23.8408 31.9128 26.1345C33.1452 28.1047 35.7864 32.3651 35.7864 32.3651H31.4215Z" fill="#FCFDFD"/>
<path d="M20.5265 32.3378C22.269 29.8524 25.6342 25.0544 25.6342 25.0544L28.2548 28.8561L25.8584 32.3378H20.5265Z" fill="#F9FBFD"/>
<path d="M36.7484 17.1172L31.6783 23.9778C31.6783 23.9778 29.8964 21.441 29.2819 20.5543L31.6783 17.1172L36.7484 17.1172Z" fill="#FAFCFD"/>
</svg>
