<svg width="50" height="50" viewBox="0 0 50 50" fill="none" xmlns="http://www.w3.org/2000/svg">
<path d="M27.9983 9C27.9983 9 30.3843 9.34043 31.0661 11.383V18.8723H33.4522C34.8157 19.2128 34.8157 20.9149 34.8157 20.9149H31.0661V36.9149C31.0661 36.9149 30.7252 39.2979 33.4522 39.9787C33.4522 39.9787 36.1791 40.1149 36.8609 39.9787C37.5426 39.8426 35.4974 41 35.4974 41H31.7478C27.9983 40.6596 27.6574 36.9149 27.6574 36.9149V20.9149H25.953C24.5896 20.5745 24.5896 18.8723 24.5896 18.8723H27.9983V9Z" fill="#EA3A00"/>
<path d="M21.5891 12.0638C21.5891 13.3799 20.5532 14.4468 19.2755 14.4468C17.9977 14.4468 16.9619 13.3799 16.9619 12.0638C16.9619 10.7477 17.9977 9.68085 19.2755 9.68085C20.5532 9.68085 21.5891 10.7477 21.5891 12.0638Z" fill="#EA3A00"/>
<path d="M19.3472 17.5187L22.3218 18.1996C22.4189 18.2218 22.5012 18.288 22.5457 18.3796L23.2067 19.7413C23.2297 19.7886 23.2416 19.8407 23.2416 19.8936V23.6383C23.2416 23.7285 23.2068 23.8151 23.1448 23.879L21.9196 25.141V29.0851C21.9196 29.1624 21.894 29.2374 21.8471 29.2977L20.5975 30.9066V38.0661L24.381 40.0146C24.73 40.1943 24.6249 41.0601 24.1864 40.9956L19.5593 40.6561C19.4725 40.6433 19.3942 40.5955 19.3416 40.5233L17.3585 37.7999C17.3156 37.741 17.2924 37.6693 17.2924 37.5957V30.5662L16.0428 28.9573C15.9959 28.8969 15.9704 28.8219 15.9704 28.7446V25.1134L15.045 23.8425C15.002 23.7836 14.9789 23.7119 14.9789 23.6383V19.8936C14.9789 19.8199 15.002 19.7483 15.045 19.6893L16.0365 18.3276C16.0838 18.2626 16.1522 18.2172 16.2292 18.1996L19.2038 17.5187C19.251 17.5079 19.3 17.5079 19.3472 17.5187Z" fill="#EA3A00"/>
<path d="M18.2285 40.1302L16.9064 38.0877C16.8077 37.9352 16.5877 37.8925 16.4419 37.9976L13.1368 40.3806C12.8712 40.5721 13.0193 41.0234 13.3499 40.9991L17.977 40.6586C18.2287 40.6401 18.3648 40.3409 18.2285 40.1302Z" fill="#EA3A00"/>
</svg>
