<svg width="50" height="50" viewBox="0 0 50 50" fill="none" xmlns="http://www.w3.org/2000/svg">
<path d="M27.7484 6C27.7484 6 29.9357 6.30851 30.5606 8.15957V14.9468H32.7478C33.9977 15.2553 33.9977 16.7979 33.9977 16.7979H30.5606V31.2979C30.5606 31.2979 30.2481 33.4574 32.7478 34.0745C32.7478 34.0745 35.2475 34.1979 35.8725 34.0745C36.4974 33.9511 34.6226 35 34.6226 35H31.1855C27.7484 34.6915 27.4359 31.2979 27.4359 31.2979V16.7979H25.8736C24.6238 16.4894 24.6238 14.9468 24.6238 14.9468H27.7484V6Z" fill="#EA3A00"/>
<path d="M21.8733 8.77659C21.8733 9.96929 20.9238 10.9362 19.7525 10.9362C18.5813 10.9362 17.6318 9.96929 17.6318 8.77659C17.6318 7.58389 18.5813 6.61702 19.7525 6.61702C20.9238 6.61702 21.8733 7.58389 21.8733 8.77659Z" fill="#EA3A00"/>
<path d="M19.8183 13.7201L22.545 14.3371C22.634 14.3573 22.7094 14.4172 22.7502 14.5003L23.3562 15.7343C23.3772 15.7772 23.3881 15.8244 23.3881 15.8723V19.2659C23.3881 19.3477 23.3562 19.4262 23.2994 19.4841L22.1763 20.6278V24.2021C22.1763 24.2721 22.1529 24.3401 22.1099 24.3948L20.9644 25.8528V32.3412L24.4325 34.107C24.7525 34.2698 24.6561 35.0545 24.2542 34.996L20.0127 34.6883C19.9331 34.6767 19.8613 34.6335 19.8131 34.568L17.9953 32.0999C17.956 32.0465 17.9347 31.9816 17.9347 31.9148V25.5443L16.7892 24.0863C16.7463 24.0316 16.7229 23.9636 16.7229 23.8936V20.6028L15.8745 19.451C15.8352 19.3976 15.8139 19.3327 15.8139 19.2659V15.8723C15.8139 15.8056 15.8352 15.7406 15.8745 15.6872L16.7834 14.4532C16.8268 14.3943 16.8895 14.3531 16.9601 14.3371L19.6868 13.7201C19.7301 13.7103 19.775 13.7103 19.8183 13.7201Z" fill="#EA3A00"/>
<path d="M18.7928 34.2118L17.5809 32.3607C17.4904 32.2225 17.2887 32.1839 17.1551 32.2791L14.1254 34.4387C13.882 34.6122 14.0177 35.0212 14.3207 34.9991L18.5623 34.6906C18.793 34.6739 18.9177 34.4027 18.7928 34.2118Z" fill="#EA3A00"/>
<path d="M20.1836 38.5V46H19.2754V38.5H20.1836Z" fill="#1C1D1F"/>
<path fill-rule="evenodd" clip-rule="evenodd" d="M36.2192 45.4294L36.2627 46H37.0928V38.5H36.1846V41.2494C35.8422 40.8398 35.3609 40.6191 34.7197 40.6191C33.2646 40.6191 32.6299 42.0539 32.6299 43.3145C32.6299 44.5801 33.2622 46.0977 34.71 46.0977C35.3793 46.0977 35.8752 45.8609 36.2192 45.4294ZM36.1846 42.1402V44.5564C35.9507 45.0072 35.5761 45.3311 34.9346 45.3311C33.8658 45.3311 33.5381 44.2239 33.5381 43.3145C33.5381 42.4314 33.8933 41.3809 34.9443 41.3809C35.5765 41.3809 35.9572 41.7042 36.1846 42.1402Z" fill="#1C1D1F"/>
<path d="M30.5945 45.4773L30.6133 46H31.4775V40.7168H30.5693V44.5582C30.3652 45.0294 29.9384 45.3311 29.1924 45.3311C28.7057 45.3311 28.2207 45.083 28.2207 44.1348V40.7168H27.3174V44.125C27.3174 45.5402 28.0335 46.0977 29.0508 46.0977C29.7643 46.0977 30.2666 45.8672 30.5945 45.4773Z" fill="#1C1D1F"/>
<path fill-rule="evenodd" clip-rule="evenodd" d="M21.3945 43.417C21.3945 44.8371 22.3338 46.0977 23.8018 46.0977C25.2685 46.0977 26.2041 44.8338 26.2041 43.417C26.2041 41.9999 25.3387 40.6191 23.792 40.6191C22.2671 40.6191 21.3945 41.977 21.3945 43.417ZM22.2979 43.417C22.2979 42.4962 22.6944 41.3613 23.792 41.3613C24.8728 41.3613 25.2959 42.4766 25.2959 43.417C25.2959 44.3325 24.826 45.3555 23.8018 45.3555C22.7947 45.3555 22.2979 44.464 22.2979 43.417Z" fill="#1C1D1F"/>
<path d="M18.0547 43.7393H17.1172C16.9615 44.7317 16.5628 45.3311 15.3594 45.3311C14.0285 45.3311 13.5234 43.9588 13.5234 42.8018C13.5234 41.4645 13.6771 39.5645 15.4424 39.5645C16.4319 39.5645 16.9847 40.2057 17.1172 41.1709H18.0547C17.9079 39.762 17.0522 38.793 15.4424 38.793C13.1665 38.793 12.5859 40.9474 12.5859 42.8018C12.5859 44.474 13.5712 46.0977 15.3594 46.0977C16.8222 46.0977 17.898 45.1812 18.0547 43.7393Z" fill="#1C1D1F"/>
</svg>
