<svg width="50" height="50" viewBox="0 0 50 50" fill="none" xmlns="http://www.w3.org/2000/svg">
<rect width="50" height="50" fill="#EA3A00"/>
<path d="M27.5913 8C27.5913 8 29.5797 8.26596 30.1478 9.8617V15.7128H32.1363C33.2725 15.9787 33.2725 17.3085 33.2725 17.3085H30.1478V29.8085C30.1478 29.8085 29.8638 31.6702 32.1363 32.2021C32.1363 32.2021 34.4087 32.3085 34.9768 32.2021C35.5449 32.0957 33.8406 33 33.8406 33H30.716C27.5913 32.734 27.3073 29.8085 27.3073 29.8085V17.3085H25.887C24.7507 17.0426 24.7507 15.7128 24.7507 15.7128H27.5913V8Z" fill="white"/>
<path d="M22.2503 10.3936C22.2503 11.4218 21.3871 12.2553 20.3223 12.2553C19.2576 12.2553 18.3944 11.4218 18.3944 10.3936C18.3944 9.36542 19.2576 8.53191 20.3223 8.53191C21.3871 8.53191 22.2503 9.36542 22.2503 10.3936Z" fill="white"/>
<path d="M20.3821 14.6553L22.8609 15.1872C22.9419 15.2045 23.0104 15.2562 23.0475 15.3278L23.5984 16.3917C23.6175 16.4286 23.6275 16.4693 23.6275 16.5106V19.4361C23.6275 19.5067 23.5984 19.5743 23.5468 19.6242L22.5258 20.6101V23.6914C22.5258 23.7518 22.5045 23.8104 22.4654 23.8576L21.4241 25.1145V30.7079L24.5769 32.2301C24.8677 32.3706 24.7802 33.047 24.4148 32.9966L20.5588 32.7313C20.4865 32.7213 20.4213 32.684 20.3774 32.6276L18.7249 30.4999C18.6891 30.4539 18.6698 30.3979 18.6698 30.3404V24.8486L17.6284 23.5916C17.5894 23.5445 17.5681 23.4859 17.5681 23.4255V20.5886L16.7969 19.5957C16.7611 19.5497 16.7418 19.4937 16.7418 19.4361V16.5106C16.7418 16.4531 16.7611 16.3971 16.7969 16.351L17.6232 15.2872C17.6626 15.2364 17.7196 15.2009 17.7838 15.1872L20.2626 14.6553C20.302 14.6468 20.3427 14.6468 20.3821 14.6553Z" fill="white"/>
<path d="M19.4498 32.3205L18.3481 30.7248C18.2659 30.6056 18.0825 30.5723 17.961 30.6544L15.2068 32.5161C14.9855 32.6657 15.1088 33.0183 15.3843 32.9993L19.2403 32.7333C19.45 32.7188 19.5634 32.485 19.4498 32.3205Z" fill="white"/>
<path d="M20.8205 36V41.9229H20.0052V36H20.8205Z" fill="white"/>
<path fill-rule="evenodd" clip-rule="evenodd" d="M35.2158 41.4723L35.2548 41.9229H36V36H35.1847V38.1713C34.8773 37.8477 34.4453 37.6735 33.8697 37.6735C32.5634 37.6735 31.9936 38.8066 31.9936 39.8021C31.9936 40.8016 32.5613 42 33.8609 42C34.4618 42 34.9069 41.8131 35.2158 41.4723ZM35.1847 38.8747V40.7828C34.9747 41.1388 34.6384 41.3946 34.0626 41.3946C33.1031 41.3946 32.8089 40.5203 32.8089 39.8021C32.8089 39.1047 33.1278 38.2751 34.0713 38.2751C34.6388 38.2751 34.9806 38.5304 35.1847 38.8747Z" fill="white"/>
<path d="M30.1664 41.5101L30.1833 41.9229H30.9592V37.7506H30.1439V40.7843C29.9606 41.1564 29.5775 41.3946 28.9078 41.3946C28.4708 41.3946 28.0355 41.1987 28.0355 40.4499V37.7506H27.2245V40.4422C27.2245 41.5597 27.8674 42 28.7806 42C29.4212 42 29.8721 41.818 30.1664 41.5101Z" fill="white"/>
<path fill-rule="evenodd" clip-rule="evenodd" d="M21.9076 39.883C21.9076 41.0045 22.7508 42 24.0685 42C25.3853 42 26.2251 41.0019 26.2251 39.883C26.2251 38.7639 25.4482 37.6735 24.0598 37.6735C22.6909 37.6735 21.9076 38.7458 21.9076 39.883ZM22.7185 39.883C22.7185 39.1559 23.0744 38.2596 24.0598 38.2596C25.03 38.2596 25.4098 39.1404 25.4098 39.883C25.4098 40.606 24.988 41.4139 24.0685 41.4139C23.1645 41.4139 22.7185 40.7099 22.7185 39.883Z" fill="white"/>
<path d="M18.9093 40.1375H18.0677C17.928 40.9213 17.57 41.3946 16.4897 41.3946C15.295 41.3946 14.8416 40.3109 14.8416 39.3972C14.8416 38.3411 14.9796 36.8406 16.5643 36.8406C17.4526 36.8406 17.9488 37.3471 18.0677 38.1093H18.9093C18.7776 36.9966 18.0094 36.2314 16.5643 36.2314C14.5212 36.2314 14 37.9328 14 39.3972C14 40.7178 14.8845 42 16.4897 42C17.803 42 18.7686 41.2763 18.9093 40.1375Z" fill="white"/>
</svg>
