<svg width="50" height="50" viewBox="0 0 50 50" fill="none" xmlns="http://www.w3.org/2000/svg">
<rect width="50" height="50" fill="#004E84"/>
<path d="M8.33301 32.2487C8.88702 31.5531 9.44022 30.8576 9.99262 30.1621C10.0193 30.1304 10.0376 30.0912 10.0619 30.0583C10.8613 29.0188 11.2221 29.0555 11.9377 30.157C12.9352 31.6878 13.8877 33.2565 15.2242 34.5163C15.5887 34.8556 15.7964 34.8201 16.1111 34.4618C18.055 32.2579 19.9305 29.9924 21.7375 27.6653C23.3461 25.5838 24.8964 23.4542 26.3543 21.2499C27.6907 19.2355 28.8522 17.116 30.0684 15.0282C30.2847 14.6559 30.6613 14.3736 30.6868 13.8887H31.9018C33.0715 15.2831 34.169 16.7416 35.1894 18.258C37.239 21.3486 38.9837 24.6254 40.5352 28.0135C40.8827 28.7732 41.2131 29.5404 41.5436 30.309C41.6043 30.4508 41.7586 30.6242 41.5897 30.7648C41.4209 30.9053 41.2848 30.7483 41.1718 30.6306C40.5222 29.9599 39.7276 29.4615 38.8549 29.1771C38.5171 29.0644 38.3228 28.7972 38.1515 28.5136C36.3193 25.4749 34.2855 22.5945 31.8131 20.0749C31.496 19.7508 31.1643 19.4419 30.8484 19.1139C30.4596 18.7126 30.1061 18.7835 29.7549 19.1659C29.1147 19.8483 28.6481 20.6687 28.1184 21.4347C26.7481 23.388 25.2754 25.2609 23.7069 27.0449C21.8639 29.172 19.9722 31.2535 17.9104 33.1514C17.0296 33.9617 16.2253 34.8505 15.359 35.6659C14.7382 36.2458 14.5438 36.2572 13.8914 35.7102C12.9121 34.8872 12.0775 33.9111 11.2695 32.9096C10.9962 32.5715 10.724 32.2322 10.4434 31.8967C10.1433 31.5409 9.8359 31.5738 9.48478 31.8486C9.08384 32.1676 8.81775 32.6462 8.34392 32.8766L8.33301 32.2487Z" fill="white"/>
</svg>
