<svg width="50" height="50" viewBox="0 0 50 50" fill="none" xmlns="http://www.w3.org/2000/svg">
<path d="M8.33337 32.2489C8.88739 31.5534 9.44059 30.8579 9.99298 30.1623C10.0197 30.1307 10.0379 30.0914 10.0622 30.0585C10.8617 29.019 11.2225 29.0557 11.9381 30.1573C12.9356 31.688 13.8881 33.2567 15.2246 34.5165C15.589 34.8558 15.7968 34.8204 16.1114 34.4621C18.0554 32.2582 19.9308 29.9927 21.7379 27.6656C23.3465 25.5841 24.8967 23.4544 26.3547 21.2501C27.6911 19.2357 28.8526 17.1163 30.0688 15.0284C30.285 14.6562 30.6617 14.3738 30.6872 13.8889H31.9021C33.0719 15.2833 34.1693 16.7419 35.1898 18.2583C37.2394 21.3489 38.9841 24.6256 40.5355 28.0137C40.883 28.7734 41.2135 29.5407 41.5439 30.3092C41.6047 30.451 41.759 30.6245 41.5901 30.765C41.4212 30.9055 41.2852 30.7485 41.1722 30.6308C40.5226 29.9602 39.728 29.4617 38.8553 29.1773C38.5175 29.0646 38.3231 28.7975 38.1518 28.5138C36.3197 25.4752 34.2859 22.5947 31.8134 20.0752C31.4963 19.751 31.1646 19.4421 30.8488 19.1142C30.46 18.7128 30.1064 18.7837 29.7553 19.1661C29.115 19.8485 28.6485 20.669 28.1188 21.435C26.7485 23.3882 25.2757 25.2611 23.7073 27.0452C21.8642 29.1722 19.9726 31.2537 17.9108 33.1516C17.0299 33.962 16.2257 34.8508 15.3594 35.6662C14.7386 36.246 14.5442 36.2574 13.8918 35.7105C12.9125 34.8875 12.0778 33.9113 11.2699 32.9098C10.9965 32.5718 10.7244 32.2324 10.4437 31.8969C10.1436 31.5411 9.83626 31.5741 9.48514 31.8488C9.08421 32.1679 8.81812 32.6465 8.34429 32.8769L8.33337 32.2489Z" fill="#004E84"/>
</svg>
