<svg width="50" height="50" viewBox="0 0 50 50" fill="none" xmlns="http://www.w3.org/2000/svg">
<path fill-rule="evenodd" clip-rule="evenodd" d="M25.5598 7.50107C34.9654 7.7969 42.5 15.5184 42.5 25C42.5 34.4816 34.9654 42.2031 25.5598 42.4989V36.191C31.485 35.8995 36.1998 31.0004 36.1998 25C36.1998 18.9996 31.485 14.1005 25.5598 13.809V7.50107ZM24.4748 42.5C15.0527 42.2223 7.5 34.4938 7.5 25C7.5 15.5067 15.0527 7.77771 24.4748 7.5V13.8074C18.533 14.0814 13.7997 18.9879 13.7997 25C13.7997 31.0121 18.533 35.9186 24.4748 36.1932V42.5Z" fill="#0D1837"/>
<path fill-rule="evenodd" clip-rule="evenodd" d="M16.5264 19.6792L20.5666 22.5192C20.1565 23.2529 19.9227 24.0989 19.9227 24.9996C19.9227 25.8897 20.1513 26.7268 20.5525 27.4547L16.5112 30.2952C15.5534 28.7591 15 26.9442 15 24.9996C15 23.0444 15.5592 21.2206 16.5264 19.6792ZM33.4883 30.2952L29.4475 27.4547C29.8487 26.7268 30.0773 25.8897 30.0773 24.9996C30.0773 24.0989 29.8435 23.2529 29.4334 22.5192L33.4736 19.6792C34.4408 21.2206 35 23.0444 35 24.9996C35 26.9442 34.4466 28.7591 33.4883 30.2952ZM25.5333 14.9996C28.5028 15.1555 31.1292 16.6092 32.8574 18.8043L28.8161 21.6454C27.996 20.7101 26.8383 20.0789 25.5333 19.9423V14.9996ZM24.4662 14.9996V19.9423C23.1617 20.0789 22.004 20.7101 21.1839 21.6454L17.1425 18.8043C18.8708 16.6092 21.4972 15.1555 24.4662 14.9996ZM24.4662 34.9995C21.4872 34.8426 18.853 33.3795 17.1253 31.1717L21.165 28.3317C21.9862 29.279 23.1517 29.9187 24.4662 30.0562V34.9995ZM25.5333 34.9995V30.0562C26.8483 29.9187 28.0138 29.279 28.835 28.3317L32.8747 31.1717C31.147 33.3795 28.5128 34.8426 25.5333 34.9995Z" fill="#0D1837"/>
<path fill-rule="evenodd" clip-rule="evenodd" d="M25.5333 19.9423C26.8383 20.0789 27.996 20.7101 28.8161 21.6454L32.8574 18.8043C31.1292 16.6092 28.5028 15.1555 25.5333 14.9996V19.9423ZM17.1425 18.8043L21.1839 21.6454C22.004 20.7101 23.1617 20.0789 24.4662 19.9423V14.9996C21.4972 15.1555 18.8708 16.6092 17.1425 18.8043ZM29.4334 22.5192C29.8435 23.2529 30.0773 24.0989 30.0773 24.9996C30.0773 25.8897 29.8487 26.7268 29.4475 27.4547L33.4883 30.2952C34.4466 28.7591 35 26.9442 35 24.9996C35 23.0444 34.4408 21.2206 33.4736 19.6792L29.4334 22.5192ZM15 24.9996C15 26.9442 15.5534 28.7591 16.5112 30.2952L20.5525 27.4547C20.1513 26.7268 19.9227 25.8897 19.9227 24.9996C19.9227 24.0989 20.1565 23.2529 20.5666 22.5192L16.5264 19.6792C15.5592 21.2206 15 23.0444 15 24.9996ZM25.5333 30.0562V34.9995C28.5128 34.8426 31.147 33.3795 32.8747 31.1717L28.835 28.3317C28.0138 29.279 26.8483 29.9187 25.5333 30.0562ZM17.1253 31.1717C18.853 33.3795 21.4872 34.8426 24.4662 34.9995V30.0562C23.1517 29.9187 21.9862 29.279 21.165 28.3317L17.1253 31.1717Z" fill="#0D1837"/>
</svg>
