<svg width="50" height="50" viewBox="0 0 50 50" fill="none" xmlns="http://www.w3.org/2000/svg">
<path d="M37.1353 28C35.0019 28 33.2705 26.2857 33.2705 24.1735C33.2705 22.0612 35.0019 20.3469 37.1353 20.3469C39.2686 20.3469 41 22.0612 41 24.1735C41 26.2857 39.2686 28 37.1353 28ZM37.1353 26.4184C38.3874 26.4184 39.4026 25.4133 39.4026 24.1735C39.4026 22.9337 38.3874 21.9286 37.1353 21.9286C35.8831 21.9286 34.868 22.9337 34.868 24.1735C34.868 25.4133 35.8831 26.4184 37.1353 26.4184ZM29.0451 28C26.9118 28 25.1804 26.2857 25.1804 24.1735C25.1804 22.0612 26.9118 20.3469 29.0451 20.3469C31.1784 20.3469 32.9098 22.0612 32.9098 24.1735C32.9098 26.2857 31.1784 28 29.0451 28ZM29.0451 26.4184C30.2973 26.4184 31.3124 25.4133 31.3124 24.1735C31.3124 22.9337 30.2973 21.9286 29.0451 21.9286C27.7929 21.9286 26.7778 22.9337 26.7778 24.1735C26.7778 25.4133 27.7929 26.4184 29.0451 26.4184ZM24.8196 24.1224C24.8196 26.2602 23.0882 28 20.9549 28C18.8216 28 17.0902 26.2653 17.0902 24.1276C17.0902 21.9898 18.6618 20.3469 20.9549 20.3469C21.8 20.3469 22.5833 20.5255 23.2222 20.9898V18.7704C23.2222 18.3469 23.5984 18 24.0209 18C24.4435 18 24.8196 18.3469 24.8196 18.7704V24.1224ZM20.9549 26.4184C22.2071 26.4184 23.2222 25.4133 23.2222 24.1735C23.2222 22.9337 22.2071 21.9286 20.9549 21.9286C19.7027 21.9286 18.6876 22.9337 18.6876 24.1735C18.6876 25.4133 19.7027 26.4184 20.9549 26.4184Z" fill="#8F8F8F"/>
<path d="M12.8647 28C10.7314 28 9 26.2857 9 24.1735C9 22.0612 10.7314 20.3469 12.8647 20.3469C14.9981 20.3469 16.7295 22.0612 16.7295 24.1735C16.7295 26.2857 14.9981 28 12.8647 28ZM12.8647 26.4184C14.1169 26.4184 15.132 25.4133 15.132 24.1735C15.132 22.9337 14.1169 21.9286 12.8647 21.9286C11.6126 21.9286 10.5974 22.9337 10.5974 24.1735C10.5974 25.4133 11.6126 26.4184 12.8647 26.4184Z" fill="#714B67"/>
</svg>
