<svg width="50" height="50" viewBox="0 0 50 50" fill="none" xmlns="http://www.w3.org/2000/svg">
<path d="M14.8513 19.9695L13.1743 19.9737L13.5811 19.0747C14.9668 18.6971 17.2753 17.9251 19.4788 15.7881L20.7043 15.784L19.2041 18.9988L21.6136 18.9915L21.1714 19.9487L18.7662 19.957C18.7662 19.957 17.6374 22.2126 17.2545 23.8263C16.958 25.6272 17.2493 26.9714 18.8629 27.475C19.8596 27.784 21.1028 27.7132 22.4427 27.3335C25.5606 26.3628 28.8939 24.2185 31.3324 21.3813C35.3471 16.7172 35.4252 11.9449 31.5103 10.7266C28.9979 9.94625 25.4556 10.8139 22.1774 12.7678C25.5791 10.5738 31.5295 7.83518 35.3742 10.5975C32.8118 7.77285 29.1124 6 24.9988 6C17.2691 6 11 12.2684 11 19.9997C11 22.8545 11.8562 25.5086 13.322 27.7226C12.2261 25.0185 13.6831 22.3511 14.8513 19.9695Z" fill="#D71920"/>
<path d="M36.8694 12.5729C37.8057 15.1167 36.6343 18.9131 33.4009 22.671C28.5466 28.3163 20.8783 31.7298 16.2758 30.2972C15.7047 30.1193 15.2084 29.8748 14.785 29.572C17.339 32.2979 20.9698 34 24.9991 34C32.7319 34 39 27.7326 39 20.0003C39 17.2703 38.2166 14.7255 36.8694 12.5729Z" fill="#D71920"/>
<path d="M3.44922 42.417V42.3047C3.44922 41.9238 3.50456 41.5706 3.61523 41.2451C3.72591 40.9163 3.88542 40.6315 4.09375 40.3906C4.30208 40.1465 4.55436 39.9577 4.85059 39.8242C5.14681 39.6875 5.47884 39.6191 5.84668 39.6191C6.21777 39.6191 6.55143 39.6875 6.84766 39.8242C7.14714 39.9577 7.40104 40.1465 7.60938 40.3906C7.82096 40.6315 7.9821 40.9163 8.09277 41.2451C8.20345 41.5706 8.25879 41.9238 8.25879 42.3047V42.417C8.25879 42.7979 8.20345 43.151 8.09277 43.4766C7.9821 43.8021 7.82096 44.0869 7.60938 44.3311C7.40104 44.5719 7.14876 44.7607 6.85254 44.8975C6.55957 45.0309 6.22754 45.0977 5.85645 45.0977C5.48535 45.0977 5.15169 45.0309 4.85547 44.8975C4.55924 44.7607 4.30534 44.5719 4.09375 44.3311C3.88542 44.0869 3.72591 43.8021 3.61523 43.4766C3.50456 43.151 3.44922 42.7979 3.44922 42.417ZM4.35254 42.3047V42.417C4.35254 42.6807 4.38346 42.9297 4.44531 43.1641C4.50716 43.3952 4.59993 43.6003 4.72363 43.7793C4.85059 43.9583 5.00846 44.0999 5.19727 44.2041C5.38607 44.305 5.60579 44.3555 5.85645 44.3555C6.10384 44.3555 6.32031 44.305 6.50586 44.2041C6.69466 44.0999 6.85091 43.9583 6.97461 43.7793C7.09831 43.6003 7.19108 43.3952 7.25293 43.1641C7.31803 42.9297 7.35059 42.6807 7.35059 42.417V42.3047C7.35059 42.0443 7.31803 41.7985 7.25293 41.5674C7.19108 41.333 7.09668 41.1263 6.96973 40.9473C6.84603 40.765 6.68978 40.6217 6.50098 40.5176C6.31543 40.4134 6.09733 40.3613 5.84668 40.3613C5.59928 40.3613 5.38118 40.4134 5.19238 40.5176C5.00684 40.6217 4.85059 40.765 4.72363 40.9473C4.59993 41.1263 4.50716 41.333 4.44531 41.5674C4.38346 41.7985 4.35254 42.0443 4.35254 42.3047ZM10.5393 45H9.63594V39.1602C9.63594 38.7793 9.7043 38.4587 9.84102 38.1982C9.98099 37.9346 10.1812 37.736 10.4416 37.6025C10.702 37.4658 11.0113 37.3975 11.3693 37.3975C11.4735 37.3975 11.5777 37.404 11.6818 37.417C11.7893 37.43 11.8934 37.4495 11.9943 37.4756L11.9455 38.2129C11.8771 38.1966 11.799 38.1852 11.7111 38.1787C11.6265 38.1722 11.5419 38.1689 11.4572 38.1689C11.2652 38.1689 11.0992 38.208 10.9592 38.2861C10.8225 38.361 10.7183 38.4717 10.6467 38.6182C10.5751 38.7646 10.5393 38.9453 10.5393 39.1602V45ZM11.7111 39.7168V40.4102H8.80098V39.7168H11.7111ZM13.3957 45H12.4924V39.2578C12.4924 38.8574 12.5689 38.5189 12.7219 38.2422C12.8781 37.9655 13.1011 37.7555 13.3908 37.6123C13.6805 37.4691 14.024 37.3975 14.4211 37.3975C14.6587 37.3975 14.8898 37.4268 15.1145 37.4854C15.3391 37.5407 15.5702 37.6107 15.8078 37.6953L15.6516 38.457C15.5051 38.3984 15.3326 38.3431 15.134 38.291C14.9354 38.2357 14.7206 38.208 14.4895 38.208C14.1021 38.208 13.8221 38.2959 13.6496 38.4717C13.4803 38.6442 13.3957 38.9062 13.3957 39.2578V45ZM14.4748 39.7168V40.4102H11.6574V39.7168H14.4748ZM16.2521 39.7168V45H15.3488V39.7168H16.2521ZM19.641 44.3555C19.8559 44.3555 20.0544 44.3115 20.2367 44.2236C20.419 44.1357 20.5688 44.0153 20.6859 43.8623C20.8031 43.7061 20.8699 43.5286 20.8861 43.3301H21.7455C21.7292 43.6426 21.6234 43.9339 21.4281 44.2041C21.2361 44.471 20.9838 44.6875 20.6713 44.8535C20.3588 45.0163 20.0154 45.0977 19.641 45.0977C19.2439 45.0977 18.8972 45.0277 18.601 44.8877C18.308 44.7477 18.0639 44.5557 17.8686 44.3115C17.6765 44.0674 17.5316 43.7874 17.434 43.4717C17.3396 43.1527 17.2924 42.8158 17.2924 42.4609V42.2559C17.2924 41.901 17.3396 41.5658 17.434 41.25C17.5316 40.931 17.6765 40.6494 17.8686 40.4053C18.0639 40.1611 18.308 39.9691 18.601 39.8291C18.8972 39.6891 19.2439 39.6191 19.641 39.6191C20.0544 39.6191 20.4158 39.7038 20.725 39.873C21.0342 40.0391 21.2768 40.2669 21.4525 40.5566C21.6316 40.8431 21.7292 41.1686 21.7455 41.5332H20.8861C20.8699 41.3151 20.808 41.1182 20.7006 40.9424C20.5964 40.7666 20.4532 40.6266 20.2709 40.5225C20.0919 40.415 19.8819 40.3613 19.641 40.3613C19.3643 40.3613 19.1316 40.4167 18.9428 40.5273C18.7572 40.6348 18.6091 40.7812 18.4984 40.9668C18.391 41.1491 18.3129 41.3525 18.2641 41.5771C18.2185 41.7985 18.1957 42.0247 18.1957 42.2559V42.4609C18.1957 42.6921 18.2185 42.9199 18.2641 43.1445C18.3096 43.3691 18.3861 43.5726 18.4936 43.7549C18.6042 43.9372 18.7523 44.0837 18.9379 44.1943C19.1267 44.3018 19.3611 44.3555 19.641 44.3555ZM24.7535 45.0977C24.3857 45.0977 24.052 45.0358 23.7525 44.9121C23.4563 44.7852 23.2008 44.6077 22.9859 44.3799C22.7743 44.152 22.6116 43.8818 22.4977 43.5693C22.3837 43.2568 22.3268 42.915 22.3268 42.5439V42.3389C22.3268 41.9092 22.3902 41.5267 22.5172 41.1914C22.6441 40.8529 22.8167 40.5664 23.0348 40.332C23.2529 40.0977 23.5003 39.9202 23.777 39.7998C24.0536 39.6794 24.3401 39.6191 24.6363 39.6191C25.0139 39.6191 25.3395 39.6842 25.6129 39.8145C25.8896 39.9447 26.1158 40.127 26.2916 40.3613C26.4674 40.5924 26.5976 40.8659 26.6822 41.1816C26.7669 41.4941 26.8092 41.8359 26.8092 42.207V42.6123H22.8639V41.875H25.9059V41.8066C25.8928 41.5723 25.844 41.3444 25.7594 41.123C25.678 40.9017 25.5478 40.7194 25.3687 40.5762C25.1897 40.4329 24.9456 40.3613 24.6363 40.3613C24.4312 40.3613 24.2424 40.4053 24.0699 40.4932C23.8974 40.5778 23.7493 40.7048 23.6256 40.874C23.5019 41.0433 23.4059 41.25 23.3375 41.4941C23.2691 41.7383 23.235 42.0199 23.235 42.3389V42.5439C23.235 42.7946 23.2691 43.0306 23.3375 43.252C23.4091 43.4701 23.5117 43.6621 23.6451 43.8281C23.7818 43.9941 23.9462 44.1243 24.1383 44.2188C24.3336 44.3132 24.5549 44.3604 24.8023 44.3604C25.1214 44.3604 25.3915 44.2952 25.6129 44.165C25.8342 44.0348 26.0279 43.8607 26.1939 43.6426L26.7408 44.0771C26.6269 44.2497 26.482 44.4141 26.3062 44.5703C26.1305 44.7266 25.914 44.8535 25.6568 44.9512C25.4029 45.0488 25.1018 45.0977 24.7535 45.0977ZM30.74 43.5986C30.74 43.4684 30.7107 43.348 30.6521 43.2373C30.5968 43.1234 30.4813 43.0208 30.3055 42.9297C30.1329 42.8353 29.8725 42.7539 29.5242 42.6855C29.2313 42.6237 28.966 42.5505 28.7283 42.4658C28.4939 42.3812 28.2938 42.2786 28.1277 42.1582C27.965 42.0378 27.8396 41.8962 27.7518 41.7334C27.6639 41.5706 27.6199 41.3802 27.6199 41.1621C27.6199 40.9538 27.6655 40.7568 27.7566 40.5713C27.851 40.3857 27.9829 40.2214 28.1521 40.0781C28.3247 39.9349 28.5314 39.8226 28.7723 39.7412C29.0132 39.6598 29.2817 39.6191 29.5779 39.6191C30.0011 39.6191 30.3624 39.694 30.6619 39.8438C30.9614 39.9935 31.1909 40.1937 31.3504 40.4443C31.5099 40.6917 31.5896 40.9668 31.5896 41.2695H30.6863C30.6863 41.123 30.6424 40.9814 30.5545 40.8447C30.4699 40.7048 30.3445 40.5892 30.1785 40.498C30.0158 40.4069 29.8156 40.3613 29.5779 40.3613C29.3273 40.3613 29.1238 40.4004 28.9676 40.4785C28.8146 40.5534 28.7023 40.6494 28.6307 40.7666C28.5623 40.8838 28.5281 41.0075 28.5281 41.1377C28.5281 41.2354 28.5444 41.3232 28.577 41.4014C28.6128 41.4762 28.6746 41.5462 28.7625 41.6113C28.8504 41.6732 28.9741 41.7318 29.1336 41.7871C29.2931 41.8424 29.4966 41.8978 29.7439 41.9531C30.1769 42.0508 30.5333 42.168 30.8133 42.3047C31.0932 42.4414 31.3016 42.609 31.4383 42.8076C31.575 43.0062 31.6434 43.2471 31.6434 43.5303C31.6434 43.7614 31.5945 43.973 31.4969 44.165C31.4025 44.3571 31.2641 44.5231 31.0818 44.6631C30.9028 44.7998 30.688 44.9072 30.4373 44.9854C30.1899 45.0602 29.9116 45.0977 29.6023 45.0977C29.1368 45.0977 28.743 45.0146 28.4207 44.8486C28.0984 44.6826 27.8543 44.4678 27.6883 44.2041C27.5223 43.9404 27.4393 43.6621 27.4393 43.3691H28.3475C28.3605 43.6165 28.4321 43.8135 28.5623 43.96C28.6925 44.1032 28.852 44.2057 29.0408 44.2676C29.2296 44.3262 29.4168 44.3555 29.6023 44.3555C29.8497 44.3555 30.0564 44.3229 30.2225 44.2578C30.3917 44.1927 30.5203 44.1032 30.6082 43.9893C30.6961 43.8753 30.74 43.7451 30.74 43.5986ZM34.7441 44.3555C34.959 44.3555 35.1576 44.3115 35.3398 44.2236C35.5221 44.1357 35.6719 44.0153 35.7891 43.8623C35.9062 43.7061 35.973 43.5286 35.9893 43.3301H36.8486C36.8324 43.6426 36.7266 43.9339 36.5312 44.2041C36.3392 44.471 36.0869 44.6875 35.7744 44.8535C35.4619 45.0163 35.1185 45.0977 34.7441 45.0977C34.347 45.0977 34.0003 45.0277 33.7041 44.8877C33.4111 44.7477 33.167 44.5557 32.9717 44.3115C32.7796 44.0674 32.6348 43.7874 32.5371 43.4717C32.4427 43.1527 32.3955 42.8158 32.3955 42.4609V42.2559C32.3955 41.901 32.4427 41.5658 32.5371 41.25C32.6348 40.931 32.7796 40.6494 32.9717 40.4053C33.167 40.1611 33.4111 39.9691 33.7041 39.8291C34.0003 39.6891 34.347 39.6191 34.7441 39.6191C35.1576 39.6191 35.5189 39.7038 35.8281 39.873C36.1374 40.0391 36.3799 40.2669 36.5557 40.5566C36.7347 40.8431 36.8324 41.1686 36.8486 41.5332H35.9893C35.973 41.3151 35.9111 41.1182 35.8037 40.9424C35.6995 40.7666 35.5563 40.6266 35.374 40.5225C35.195 40.415 34.985 40.3613 34.7441 40.3613C34.4674 40.3613 34.2347 40.4167 34.0459 40.5273C33.8604 40.6348 33.7122 40.7812 33.6016 40.9668C33.4941 41.1491 33.416 41.3525 33.3672 41.5771C33.3216 41.7985 33.2988 42.0247 33.2988 42.2559V42.4609C33.2988 42.6921 33.3216 42.9199 33.3672 43.1445C33.4128 43.3691 33.4893 43.5726 33.5967 43.7549C33.7074 43.9372 33.8555 44.0837 34.041 44.1943C34.2298 44.3018 34.4642 44.3555 34.7441 44.3555ZM40.7795 44.0967V41.377C40.7795 41.1686 40.7372 40.988 40.6525 40.835C40.5712 40.6787 40.4475 40.5583 40.2814 40.4736C40.1154 40.389 39.9104 40.3467 39.6662 40.3467C39.4383 40.3467 39.2382 40.3857 39.0656 40.4639C38.8964 40.542 38.7629 40.6445 38.6652 40.7715C38.5708 40.8984 38.5236 41.0352 38.5236 41.1816H37.6203C37.6203 40.9928 37.6691 40.8057 37.7668 40.6201C37.8645 40.4346 38.0044 40.2669 38.1867 40.1172C38.3723 39.9642 38.5936 39.8438 38.8508 39.7559C39.1112 39.6647 39.4009 39.6191 39.7199 39.6191C40.104 39.6191 40.4426 39.6842 40.7355 39.8145C41.0318 39.9447 41.2629 40.1416 41.4289 40.4053C41.5982 40.6657 41.6828 40.9928 41.6828 41.3867V43.8477C41.6828 44.0234 41.6975 44.2106 41.7268 44.4092C41.7593 44.6077 41.8065 44.7786 41.8684 44.9219V45H40.926C40.8804 44.8958 40.8446 44.7575 40.8186 44.585C40.7925 44.4092 40.7795 44.2464 40.7795 44.0967ZM40.9357 41.7969L40.9455 42.4316H40.0324C39.7753 42.4316 39.5458 42.4528 39.3439 42.4951C39.1421 42.5342 38.9729 42.5944 38.8361 42.6758C38.6994 42.7572 38.5952 42.8597 38.5236 42.9834C38.452 43.1038 38.4162 43.2454 38.4162 43.4082C38.4162 43.5742 38.4536 43.7256 38.5285 43.8623C38.6034 43.999 38.7157 44.1081 38.8654 44.1895C39.0184 44.2676 39.2056 44.3066 39.427 44.3066C39.7036 44.3066 39.9478 44.248 40.1594 44.1309C40.371 44.0137 40.5386 43.8704 40.6623 43.7012C40.7893 43.5319 40.8576 43.3675 40.8674 43.208L41.2531 43.6426C41.2303 43.7793 41.1685 43.9307 41.0676 44.0967C40.9667 44.2627 40.8316 44.4222 40.6623 44.5752C40.4963 44.7249 40.2977 44.8503 40.0666 44.9512C39.8387 45.0488 39.5816 45.0977 39.2951 45.0977C38.937 45.0977 38.6229 45.0277 38.3527 44.8877C38.0858 44.7477 37.8775 44.5605 37.7277 44.3262C37.5812 44.0885 37.508 43.8232 37.508 43.5303C37.508 43.2471 37.5633 42.998 37.674 42.7832C37.7847 42.5651 37.9442 42.3844 38.1525 42.2412C38.3609 42.0947 38.6115 41.984 38.9045 41.9092C39.1975 41.8343 39.5246 41.7969 39.8859 41.7969H40.9357ZM43.807 40.8447V45H42.9037V39.7168H43.7582L43.807 40.8447ZM43.5922 42.1582L43.2162 42.1436C43.2195 41.7822 43.2732 41.4486 43.3773 41.1426C43.4815 40.8333 43.628 40.5648 43.8168 40.3369C44.0056 40.109 44.2302 39.9333 44.4906 39.8096C44.7543 39.6826 45.0456 39.6191 45.3646 39.6191C45.6251 39.6191 45.8594 39.6549 46.0678 39.7266C46.2761 39.7949 46.4535 39.9056 46.6 40.0586C46.7497 40.2116 46.8637 40.4102 46.9418 40.6543C47.0199 40.8952 47.059 41.1898 47.059 41.5381V45H46.1508V41.5283C46.1508 41.2516 46.1101 41.0303 46.0287 40.8643C45.9473 40.695 45.8285 40.5729 45.6723 40.498C45.516 40.4199 45.324 40.3809 45.0961 40.3809C44.8715 40.3809 44.6664 40.4281 44.4809 40.5225C44.2986 40.6169 44.1407 40.7471 44.0072 40.9131C43.877 41.0791 43.7745 41.2695 43.6996 41.4844C43.628 41.696 43.5922 41.9206 43.5922 42.1582Z" fill="black"/>
</svg>
