<svg width="50" height="50" viewBox="0 0 50 50" fill="none" xmlns="http://www.w3.org/2000/svg">
<rect width="50" height="50" fill="#D71920"/>
<path d="M15.5763 20.9717L14.019 20.9755L14.3967 20.1408C15.6835 19.7901 17.8271 19.0733 19.8732 17.089L21.0111 17.0851L19.6181 20.0703L21.8555 20.0636L21.4449 20.9524L19.2114 20.9601C19.2114 20.9601 18.1633 23.0546 17.8078 24.553C17.5325 26.2253 17.803 27.4735 19.3013 27.941C20.2267 28.228 21.3811 28.1623 22.6254 27.8097C25.5206 26.9083 28.6157 24.9172 30.8801 22.2827C34.608 17.9517 34.6805 13.5202 31.0453 12.3889C28.7124 11.6644 25.423 12.4701 22.379 14.2844C25.5377 12.2471 31.0631 9.70409 34.6332 12.2691C32.2538 9.64621 28.8186 8 24.9989 8C17.8213 8 12 13.8207 12 20.9997C12 23.6506 12.795 26.1151 14.1562 28.171C13.1385 25.66 14.4914 23.1832 15.5763 20.9717Z" fill="white"/>
<path d="M36.0216 14.1034C36.891 16.4655 35.8032 19.9907 32.8008 23.4803C28.2933 28.7223 21.1727 31.892 16.899 30.5617C16.3686 30.3965 15.9078 30.1695 15.5146 29.8883C17.8862 32.4195 21.2577 34 24.9991 34C32.1797 34 38 28.1803 38 21.0003C38 18.4653 37.2726 16.1022 36.0216 14.1034Z" fill="white"/>
<path fill-rule="evenodd" clip-rule="evenodd" d="M7.19903 38.0197C7.53941 38.0197 7.84546 38.0818 8.11716 38.2061C8.39185 38.3274 8.62475 38.499 8.81584 38.721C9.00991 38.94 9.15771 39.1989 9.25923 39.4978C9.36074 39.7937 9.4115 40.1148 9.4115 40.461V40.5631C9.4115 40.9093 9.36074 41.2304 9.25923 41.5263C9.15771 41.8222 9.00991 42.0812 8.81584 42.3031C8.62475 42.5221 8.39335 42.6937 8.12164 42.818C7.85292 42.9393 7.54837 43 7.20799 43C6.86761 43 6.56157 42.9393 6.28986 42.818C6.01815 42.6937 5.78526 42.5221 5.59119 42.3031C5.4001 42.0812 5.25379 41.8222 5.15228 41.5263C5.05076 41.2304 5 40.9093 5 40.5631V40.461C5 40.1148 5.05076 39.7937 5.15228 39.4978C5.25379 39.1989 5.4001 38.94 5.59119 38.721C5.78228 38.499 6.01367 38.3274 6.28538 38.2061C6.55709 38.0818 6.86164 38.0197 7.19903 38.0197ZM7.19903 38.6944C6.97211 38.6944 6.77206 38.7417 6.59889 38.8364C6.4287 38.9311 6.28538 39.0613 6.16894 39.227C6.05548 39.3898 5.97038 39.5777 5.91365 39.7907C5.85692 40.0008 5.82856 40.2243 5.82856 40.461V40.5631C5.82856 40.8028 5.85692 41.0292 5.91365 41.2422C5.97038 41.4523 6.05548 41.6388 6.16894 41.8015C6.28538 41.9643 6.43019 42.093 6.60337 42.1877C6.77654 42.2794 6.97808 42.3253 7.20799 42.3253C7.43491 42.3253 7.63346 42.2794 7.80365 42.1877C7.97683 42.093 8.12015 41.9643 8.23361 41.8015C8.34707 41.6388 8.43216 41.4523 8.48889 41.2422C8.54861 41.0292 8.57847 40.8028 8.57847 40.5631V40.461C8.57847 40.2243 8.54861 40.0008 8.48889 39.7907C8.43216 39.5777 8.34558 39.3898 8.22913 39.227C8.11567 39.0613 7.97235 38.9311 7.79918 38.8364C7.62899 38.7417 7.42894 38.6944 7.19903 38.6944Z" fill="white"/>
<path d="M19.8513 38.0197C20.2304 38.0197 20.562 38.0967 20.8456 38.2505C21.1292 38.4014 21.3517 38.6086 21.5129 38.8719C21.6771 39.1323 21.7667 39.4282 21.7816 39.7597H20.9934C20.9784 39.5614 20.9217 39.3824 20.8232 39.2226C20.7276 39.0629 20.5962 38.9355 20.4291 38.8408C20.2649 38.7433 20.0721 38.6944 19.8513 38.6944C19.5977 38.6944 19.384 38.7447 19.2109 38.8453C19.0408 38.9429 18.9048 39.0762 18.8033 39.2448C18.7048 39.4104 18.6331 39.5955 18.5883 39.7996C18.5465 40.0008 18.5256 40.2065 18.5256 40.4166V40.603C18.5256 40.8131 18.5465 41.0203 18.5883 41.2245C18.6301 41.4286 18.7003 41.6137 18.7988 41.7793C18.9003 41.945 19.0363 42.0782 19.2064 42.1788C19.3795 42.2764 19.5947 42.3253 19.8513 42.3253C20.0483 42.3253 20.2306 42.2853 20.3977 42.2055C20.5648 42.1256 20.7023 42.016 20.8097 41.877C20.9172 41.7349 20.9784 41.5737 20.9934 41.3932H21.7816C21.7667 41.6772 21.6696 41.9421 21.4905 42.1877C21.3144 42.4303 21.0829 42.6272 20.7963 42.7781C20.5097 42.9259 20.1946 43 19.8513 43C19.4872 43 19.169 42.9363 18.8973 42.8091C18.6288 42.6819 18.4046 42.5072 18.2255 42.2854C18.0495 42.0635 17.9165 41.8088 17.8269 41.5219C17.7404 41.2319 17.6971 40.9256 17.6971 40.603V40.4166C17.6971 40.0941 17.7404 39.7892 17.8269 39.5022C17.9165 39.2123 18.0495 38.9562 18.2255 38.7343C18.4046 38.5124 18.6288 38.3378 18.8973 38.2105C19.169 38.0833 19.4872 38.0197 19.8513 38.0197Z" fill="white"/>
<path fill-rule="evenodd" clip-rule="evenodd" d="M24.4339 38.0197C24.7801 38.0197 25.0789 38.0789 25.3296 38.1972C25.5833 38.3156 25.791 38.4814 25.9522 38.6944C26.1133 38.9044 26.2329 39.1531 26.3105 39.4401C26.3881 39.7241 26.4269 40.0349 26.4269 40.3722V40.7406H23.1503C23.1555 40.9455 23.1856 41.1393 23.2426 41.3221C23.3083 41.5204 23.4023 41.695 23.5247 41.8459C23.6501 41.9967 23.801 42.1152 23.9771 42.201C24.1561 42.2867 24.3594 42.3297 24.5862 42.3297C24.8786 42.3297 25.1267 42.2705 25.3296 42.1522C25.5326 42.0338 25.7104 41.8754 25.8626 41.6772L26.3642 42.0723C26.2597 42.2291 26.1267 42.3786 25.9656 42.5206C25.8044 42.6626 25.6057 42.7781 25.3699 42.8668C25.1371 42.9556 24.8607 43 24.5414 43C24.2041 43 23.8979 42.9437 23.6233 42.8313C23.3516 42.7159 23.1171 42.5546 22.9201 42.3475C22.726 42.1404 22.5767 41.8947 22.4722 41.6107C22.3677 41.3266 22.3155 41.0159 22.3155 40.6785V40.4921C22.3155 40.1015 22.3737 39.7538 22.4901 39.449C22.6066 39.1412 22.7649 38.8808 22.9649 38.6677C23.1649 38.4547 23.3919 38.2934 23.6456 38.1839C23.8993 38.0745 24.1623 38.0197 24.4339 38.0197ZM24.4339 38.6944C24.2459 38.6944 24.0725 38.7344 23.9144 38.8142C23.7562 38.8911 23.6202 39.0066 23.5068 39.1604C23.3934 39.3143 23.3053 39.5023 23.2426 39.7242C23.2122 39.8316 23.1893 39.947 23.1736 40.0704H25.5984V40.0082C25.5864 39.7952 25.5416 39.588 25.464 39.3868C25.3894 39.1857 25.2698 39.0198 25.1057 38.8897C24.9415 38.7595 24.7174 38.6944 24.4339 38.6944Z" fill="white"/>
<path d="M28.9663 38.0197C29.3544 38.0197 29.6859 38.0877 29.9606 38.2238C30.2352 38.36 30.4458 38.542 30.5921 38.7698C30.7383 38.9947 30.8115 39.2448 30.8115 39.52H29.983C29.983 39.3868 29.9426 39.2581 29.8621 39.1338C29.7844 39.0066 29.6694 38.9015 29.5172 38.8186C29.3679 38.7358 29.1842 38.6944 28.9663 38.6944C28.7365 38.6944 28.5498 38.7299 28.4065 38.8009C28.2662 38.8689 28.1631 38.9563 28.0975 39.0628C28.0348 39.1693 28.0034 39.2818 28.0034 39.4001C28.0034 39.4889 28.0183 39.5688 28.0482 39.6398C28.081 39.7079 28.1378 39.7715 28.2184 39.8307C28.299 39.8869 28.4125 39.9402 28.5588 39.9905C28.705 40.0408 28.8918 40.0911 29.1186 40.1414C29.5156 40.2302 29.8427 40.3367 30.0994 40.461C30.3561 40.5853 30.5473 40.7377 30.6727 40.9182C30.7981 41.0987 30.8608 41.3177 30.8608 41.5751C30.8608 41.7852 30.816 41.9776 30.7264 42.1522C30.6399 42.3267 30.5129 42.4777 30.3458 42.6049C30.1816 42.7292 29.9844 42.8269 29.7546 42.8979C29.5277 42.966 29.2723 43 28.9887 43C28.5618 43 28.2004 42.9245 27.9049 42.7736C27.6093 42.6227 27.3853 42.4274 27.2331 42.1877C27.0808 41.948 27.0047 41.695 27.0047 41.4287H27.8377C27.8496 41.6536 27.9153 41.8326 28.0348 41.9658C28.1542 42.0959 28.3005 42.1892 28.4737 42.2454C28.6468 42.2986 28.8186 42.3253 28.9887 42.3253C29.2156 42.3253 29.4053 42.2957 29.5575 42.2365C29.7127 42.1773 29.8307 42.0959 29.9113 41.9924C29.9919 41.8888 30.0322 41.7704 30.0322 41.6373C30.0322 41.5189 30.0053 41.4094 29.9516 41.3088C29.9009 41.2053 29.7948 41.112 29.6336 41.0292C29.4754 40.9434 29.2364 40.8694 28.9171 40.8072C28.6484 40.751 28.405 40.6844 28.187 40.6075C27.9721 40.5306 27.7884 40.4373 27.6362 40.3278C27.4869 40.2184 27.3719 40.0896 27.2913 39.9417C27.2107 39.7937 27.1704 39.6206 27.1704 39.4223C27.1704 39.2329 27.2122 39.0539 27.2958 38.8852C27.3824 38.7166 27.5033 38.5671 27.6585 38.4369C27.8168 38.3067 28.0064 38.2046 28.2273 38.1306C28.4482 38.0567 28.6947 38.0197 28.9663 38.0197Z" fill="white"/>
<path d="M33.7048 38.0197C34.084 38.0197 34.4154 38.0966 34.699 38.2505C34.9827 38.4014 35.2051 38.6085 35.3664 38.8719C35.5306 39.1323 35.6201 39.4282 35.6351 39.7597H34.8468C34.8319 39.5614 34.7752 39.3824 34.6766 39.2226C34.5811 39.0628 34.4497 38.9355 34.2825 38.8408C34.1183 38.7432 33.9257 38.6944 33.7048 38.6944C33.451 38.6944 33.2375 38.7447 33.0643 38.8453C32.8941 38.9429 32.7583 39.0761 32.6568 39.2448C32.5582 39.4105 32.4866 39.5954 32.4418 39.7996C32.4 40.0008 32.3791 40.2065 32.3791 40.4166V40.603C32.3791 40.8131 32.4 41.0203 32.4418 41.2245C32.4836 41.4287 32.5537 41.6136 32.6523 41.7793C32.7538 41.945 32.8896 42.0782 33.0598 42.1788C33.233 42.2765 33.448 42.3253 33.7048 42.3253C33.9018 42.3253 34.084 42.2854 34.2512 42.2055C34.4184 42.1256 34.5557 42.0161 34.6632 41.877C34.7707 41.7349 34.8319 41.5737 34.8468 41.3932H35.6351C35.6201 41.6772 35.5231 41.9421 35.344 42.1877C35.1678 42.4304 34.9364 42.6271 34.6498 42.7781C34.3631 42.926 34.0481 43 33.7048 43C33.3405 43 33.0225 42.9364 32.7508 42.8091C32.4821 42.6819 32.2582 42.5073 32.079 42.2854C31.9028 42.0634 31.77 41.8089 31.6804 41.5219C31.5938 41.2319 31.5505 40.9256 31.5505 40.603V40.4166C31.5505 40.0941 31.5938 39.7893 31.6804 39.5022C31.77 39.2122 31.9028 38.9562 32.079 38.7343C32.2582 38.5124 32.4821 38.3378 32.7508 38.2105C33.0225 38.0833 33.3405 38.0197 33.7048 38.0197Z" fill="white"/>
<path fill-rule="evenodd" clip-rule="evenodd" d="M38.2685 38.0197C38.6208 38.0197 38.9314 38.0789 39.2001 38.1972C39.4718 38.3156 39.6838 38.4947 39.8361 38.7343C39.9913 38.971 40.069 39.2684 40.069 39.6265V41.8637C40.069 42.0235 40.0824 42.1936 40.1093 42.3741C40.1391 42.5546 40.1824 42.71 40.2392 42.8402V42.9112H39.3748C39.333 42.8165 39.3001 42.6907 39.2762 42.5339C39.2695 42.4886 39.265 42.4441 39.2601 42.4008C39.2201 42.4424 39.1783 42.4844 39.1329 42.525C38.9807 42.6611 38.7985 42.7751 38.5865 42.8668C38.3776 42.9556 38.1416 43 37.8789 43C37.5505 43 37.2623 42.9364 37.0145 42.8091C36.7697 42.6819 36.5786 42.5117 36.4412 42.2987C36.3069 42.0827 36.2397 41.8414 36.2397 41.5751C36.2397 41.3177 36.2905 41.0913 36.392 40.896C36.4935 40.6978 36.6399 40.5335 36.8309 40.4033C37.0219 40.2702 37.252 40.1695 37.5206 40.1015C37.7893 40.0334 38.0895 39.9994 38.4208 39.9994H39.2404V39.6176C39.2404 39.4282 39.2016 39.264 39.124 39.1249C39.0493 38.9829 38.9358 38.8734 38.7836 38.7964C38.6313 38.7196 38.4431 38.681 38.2193 38.681C38.0103 38.6811 37.8266 38.7166 37.6684 38.7876C37.5132 38.8586 37.3907 38.9518 37.3011 39.0672C37.2146 39.1826 37.1713 39.3069 37.1713 39.4401H36.3427C36.3427 39.2685 36.3875 39.0983 36.4771 38.9296C36.5666 38.761 36.6951 38.6085 36.8622 38.4724C37.0324 38.3334 37.2355 38.2238 37.4713 38.1439C37.7102 38.0611 37.976 38.0197 38.2685 38.0197ZM38.5552 40.5764C38.3194 40.5764 38.1088 40.5957 37.9237 40.6341C37.7386 40.6696 37.5833 40.7244 37.4579 40.7984C37.3326 40.8723 37.2369 40.9656 37.1713 41.078C37.1056 41.1875 37.0727 41.3162 37.0727 41.4642C37.0727 41.6151 37.1071 41.7527 37.1757 41.877C37.2444 42.0012 37.3475 42.1004 37.4848 42.1744C37.6251 42.2454 37.7969 42.2809 37.9998 42.2809C38.2536 42.2809 38.4776 42.2276 38.6716 42.1211C38.8657 42.0146 39.0195 41.8843 39.1329 41.7305C39.1772 41.6719 39.2117 41.6129 39.2404 41.5556V40.5764H38.5552Z" fill="white"/>
<path d="M15.0636 36C15.2815 36 15.4936 36.0267 15.6996 36.0799C15.9055 36.1302 16.1176 36.1939 16.3355 36.2708L16.1922 36.9632C16.0579 36.91 15.8995 36.8596 15.7175 36.8123C15.5354 36.762 15.3382 36.7368 15.1263 36.7368C14.7711 36.7369 14.5142 36.8168 14.356 36.9765C14.2008 37.1334 14.1231 37.3717 14.1231 37.6912V38.1084H15.1129V38.7387H14.1231V42.9112H13.2945V38.7387H11.503V42.9112H10.6745V38.7387H9.90863V38.1084H10.6745V37.6024C10.6745 37.2562 10.7372 36.9647 10.8626 36.728C10.991 36.4883 11.1747 36.3078 11.4135 36.1864C11.6523 36.0622 11.9361 36 12.2644 36C12.3599 36 12.4556 36.0059 12.5511 36.0178C12.6495 36.0296 12.7452 36.0474 12.8377 36.071L12.7929 36.7413C12.7302 36.7265 12.6585 36.7161 12.5779 36.7102C12.5004 36.7043 12.4226 36.7013 12.345 36.7013C12.169 36.7014 12.0166 36.7369 11.8882 36.8079C11.7629 36.8759 11.6672 36.9766 11.6016 37.1097C11.5359 37.2429 11.503 37.4071 11.503 37.6024V38.1084H13.2945V37.6912C13.2945 37.3272 13.3647 37.0194 13.505 36.7679C13.6483 36.5164 13.8529 36.3255 14.1186 36.1953C14.3843 36.0651 14.6994 36 15.0636 36Z" fill="white"/>
<path d="M16.7431 42.9112H15.9145V38.1084H16.7431V42.9112Z" fill="white"/>
<path d="M43.4459 38.0197C43.6846 38.0197 43.8998 38.0523 44.0908 38.1173C44.2818 38.1794 44.4447 38.2802 44.579 38.4192C44.7163 38.5582 44.8209 38.7388 44.8925 38.9607C44.9642 39.1797 45 39.4475 45 39.7641V42.9112H44.167V39.7552C44.167 39.5037 44.1296 39.3025 44.055 39.1516C43.9804 38.9977 43.8713 38.8867 43.7281 38.8186C43.5848 38.7477 43.4084 38.7121 43.1996 38.7121C42.9937 38.7122 42.8053 38.7551 42.6353 38.8408C42.4682 38.9266 42.3232 39.0451 42.2008 39.1959C42.1302 39.2852 42.0701 39.3832 42.0172 39.488V42.9112H41.1886V38.1084H41.9724L41.9984 38.7086C42.0079 38.6966 42.0164 38.6839 42.0262 38.6722C42.1993 38.4651 42.4055 38.3052 42.6442 38.1928C42.886 38.0774 43.1534 38.0197 43.4459 38.0197Z" fill="white"/>
</svg>
