<svg width="50" height="50" viewBox="0 0 50 50" fill="none" xmlns="http://www.w3.org/2000/svg">
<path d="M42.6923 28.0079C41.6386 35.057 35.8349 41.1943 28.8425 42.583C18.3727 44.6498 7.75425 37.3369 7.05634 26.4462C6.13019 14.7746 16.8683 5.32901 28.3831 7.40949C37.6664 9.18204 44.0488 18.8214 42.6923 28.0079ZM34.7854 29.5613C36.1581 26.9698 37.1016 23.3415 35.3586 20.7014C34.0394 18.8019 32.1216 18.2912 29.9426 18.401C29.3399 18.4305 29.2345 18.5867 29.323 19.2029C32.2886 18.9036 35.535 19.6683 35.6958 23.3184C35.738 24.776 35.3605 26.2149 34.6084 27.4634C34.4022 27.7572 34.2986 28.1109 34.3139 28.4697C34.321 28.638 34.7854 29.5663 34.7854 29.5613Z" fill="#7243A2"/>
<path d="M18.7481 23.0609C19.7766 22.432 20.7881 21.7946 21.8291 21.1868C22.4108 20.8449 23.0346 20.579 23.6373 20.2751C23.8148 20.4538 23.3775 21.5044 23.2962 21.7487C23.221 21.8982 23.0998 22.0196 22.9505 22.0949C19.7497 24.0997 17.0067 26.7576 14.9003 29.8953C14.4198 30.617 14.0321 30.6804 13.3366 30.1654C12.873 29.8193 12.4347 29.4352 11.9668 29.0975C11.6549 28.8696 11.6465 28.6754 11.8193 28.3293C13.7581 24.6091 16.0591 21.0895 18.6891 17.8227C20.3866 15.581 22.9473 12.1579 25.9557 11.6606C26.9303 11.5668 27.9066 11.8209 28.7122 12.3781C29.1266 12.6301 29.3608 13.1352 29.2854 13.6149C29.0915 14.8221 28.8639 16.0251 28.5984 17.2112C27.437 22.3462 25.1403 27.9507 25.5932 33.2974C25.9555 36.5778 32.191 30.8932 33.0154 30.1147C33.2178 30.5368 33.4369 30.9589 33.635 31.381C33.673 31.4612 33.6097 31.609 33.5507 31.6976C31.6192 34.4782 28.5609 37.3728 24.9779 37.5648C23.3172 37.6323 22.3183 36.6446 22.2214 34.9689C22.1376 32.4666 22.3943 29.9645 22.9843 27.5315C23.8272 23.5806 25.0917 19.748 26.276 15.9027C26.4873 15.2187 26.7628 14.471 26.609 13.75C25.6954 13.8373 24.9289 14.785 24.3161 15.3835C22.1628 17.6192 20.3057 20.1231 18.7906 22.8335C18.7644 22.8904 18.7481 23.0609 18.7481 23.0609Z" fill="#FDFCFD"/>
<path d="M23.6373 20.2751C23.7403 20.3585 23.7225 20.1959 23.6373 20.2751Z" fill="#FDFCFD"/>
</svg>
