<svg width="50" height="50" viewBox="0 0 50 50" fill="none" xmlns="http://www.w3.org/2000/svg">
<path d="M29.1923 42.9998C26.3525 42.9919 23.9777 41.0545 23.4694 38.2634C23.296 37.3111 22.8009 36.5598 22.2242 35.8479C20.522 33.7476 18.5635 31.9679 15.9668 31.0221C15.067 30.6951 14.1962 30.569 13.2269 30.9144C11.585 31.5003 9.79734 30.5506 9.19707 28.9022C8.61126 27.2932 9.36914 25.4109 10.9913 24.8396C12.1472 24.4324 12.9353 23.6876 13.5789 22.7354C15.1143 20.4644 16.2387 18.0081 16.7181 15.2945C16.8823 14.3672 16.8481 13.4792 16.2938 12.5913C15.3902 11.1452 15.9392 9.32731 17.4024 8.42889C18.7435 7.60533 20.6756 7.91925 21.4532 9.31943C22.2374 10.7301 23.4629 11.0217 24.8315 11.1767C26.9475 11.4184 29.015 11.0769 31.0693 10.608C31.6288 10.4805 32.015 10.2126 32.3066 9.66488C33.4046 7.60533 35.7742 6.59789 38.0557 7.14692C40.2965 7.68545 41.9896 9.72004 41.9935 12.041C41.9975 13.9337 41.2435 15.5335 39.557 16.4805C38.6205 17.0073 37.9165 17.7021 37.3162 18.5414C35.3263 21.3273 34.2623 24.4757 33.7803 27.8343C33.5399 29.5064 33.5294 31.1903 33.7711 32.8702C33.8473 33.3943 34.0062 33.8737 34.2676 34.3466C36.4073 38.22 33.5885 43.0103 29.191 42.9998H29.1923ZM33.2024 18.5191C33.2024 18.3654 33.2037 18.213 33.2024 18.0594C33.1708 15.4193 32.3985 14.3002 29.9042 13.4057C27.6713 12.6031 25.3819 12.5046 23.0491 12.9105C21.314 13.2126 19.8613 13.9442 18.8013 15.3825C16.9256 17.928 15.7107 20.7638 15.1695 23.8715C14.9042 25.3939 15.1695 26.8177 16.2269 28.0484C18.134 30.2669 20.5666 31.516 23.3972 32.0821C25.42 32.4867 27.1748 32.0664 28.5618 30.4626C31.5264 27.0331 32.8858 22.9784 33.2024 18.5191Z" fill="#F67A16"/>
<path d="M24.2299 25.0145C22.7719 25.0224 21.6659 23.9572 21.6475 22.5281C21.6278 21.0438 22.7745 19.8604 24.2233 19.8709C25.6366 19.8801 26.7898 21.057 26.7898 22.4887C26.7898 23.881 25.6497 25.0079 24.2299 25.0145Z" fill="#F67A16"/>
</svg>
