<svg width="50" height="50" viewBox="0 0 50 50" fill="none" xmlns="http://www.w3.org/2000/svg">
<path fill-rule="evenodd" clip-rule="evenodd" d="M25 9.38674C31.4137 9.38674 36.6129 14.5859 36.6129 20.9996C36.6129 27.4134 31.4137 32.6126 25 32.6126C18.5863 32.6126 13.3871 27.4134 13.3871 20.9996C13.3871 14.5859 18.5863 9.38674 25 9.38674Z" fill="#198CFF"/>
<path fill-rule="evenodd" clip-rule="evenodd" d="M10.4839 21C10.4839 12.9827 16.9827 6.48383 25 6.48383C33.0173 6.48383 39.5161 12.9827 39.5161 21C39.5161 29.0177 33.0173 35.5161 25 35.5161C16.9827 35.5161 10.4839 29.0177 10.4839 21ZM13.3871 20.9996C13.3871 27.4134 18.5863 32.6126 25 32.6126C31.4137 32.6126 36.6129 27.4134 36.6129 20.9996C36.6129 14.5859 31.4137 9.38674 25 9.38674C18.5863 9.38674 13.3871 14.5859 13.3871 20.9996Z" fill="white"/>
<path fill-rule="evenodd" clip-rule="evenodd" d="M25 32.1271C18.8539 32.1271 13.871 27.1452 13.871 20.999C13.871 14.8534 18.8539 9.87097 25 9.87097C31.1461 9.87097 36.129 14.8534 36.129 20.999C36.129 27.1452 31.1461 32.1271 25 32.1271ZM25 9.38674C18.5858 9.38674 13.3871 14.5869 13.3871 20.9996C13.3871 27.4124 18.5853 32.6126 25 32.6126C31.4147 32.6126 36.6129 27.4124 36.6129 20.9996C36.6129 14.5869 31.4142 9.38674 25 9.38674Z" fill="#0D4680"/>
<path fill-rule="evenodd" clip-rule="evenodd" d="M10 21C10 29.2844 16.7161 36 25 36C33.2839 36 40 29.2844 40 21C40 12.7161 33.2839 6 25 6C16.7161 6 10 12.7161 10 21ZM25 6.48383C16.9823 6.48383 10.4839 12.9837 10.4839 21C10.4839 29.0163 16.9823 35.5161 25 35.5161C33.0177 35.5161 39.5161 29.0163 39.5161 21C39.5161 12.9837 33.0177 6.48383 25 6.48383Z" fill="#808080"/>
<path fill-rule="evenodd" clip-rule="evenodd" d="M29.9936 33.1346C34.4108 31.2518 37.5071 26.8796 37.5071 21.7849C37.5071 5.86804 12.7673 5.8678 12.7673 21.7849C12.7673 28.5784 18.2728 34.0883 25.0769 34.1207C17.9922 34.2817 12.0323 28.1756 12.0323 21.1742C12.0323 14.0231 17.8445 8.22584 25.0145 8.22584C32.1845 8.22584 37.9968 14.0231 37.9968 21.1742C37.9968 26.566 34.692 31.186 29.9936 33.1346ZM24.7639 34.2678C32.7734 34.2678 39.266 27.7921 39.266 19.8044C39.266 19.0592 39.2094 18.3276 39.1005 17.6129C41.2769 26.5138 34.2783 35.5142 25.014 35.5142C17.7511 35.5142 11.7361 30.1902 10.6774 23.2423C12.2248 29.5699 17.9428 34.2678 24.7639 34.2678Z" fill="black" fill-opacity="0.1"/>
<path fill-rule="evenodd" clip-rule="evenodd" d="M25 12.2904C29.8102 12.2904 33.7097 16.19 33.7097 21.0001C33.7097 25.8103 29.8102 29.7098 25 29.7098C20.1898 29.7098 16.2903 25.8103 16.2903 21.0001C16.2903 16.19 20.1898 12.2904 25 12.2904Z" fill="#F2F2F2"/>
<path d="M25 12.2904C20.1898 12.2904 16.2903 16.19 16.2903 21.0001C16.2903 25.8103 20.1898 29.7098 25 29.7098C29.8102 29.7098 33.7097 25.8103 33.7097 21.0001C33.7097 16.19 29.8102 12.2904 25 12.2904ZM25 11.8064C30.0772 11.8064 34.1935 15.9227 34.1935 21C34.1935 26.0777 30.0772 30.1935 25 30.1935C19.9227 30.1935 15.8064 26.0777 15.8064 21C15.8064 15.9227 19.9227 11.8064 25 11.8064Z" fill="black" fill-opacity="0.25"/>
<path fill-rule="evenodd" clip-rule="evenodd" d="M28.871 20.9994C28.871 23.1078 27.1084 24.8704 25 24.8704C22.8916 24.8704 21.129 23.1078 21.129 20.9994C21.129 18.8911 22.8916 17.1285 25 17.1285C27.1084 17.1285 28.871 18.8911 28.871 20.9994Z" fill="black" fill-opacity="0.05"/>
<path d="M28.3871 20.9994C28.3871 19.1546 26.8448 17.6123 25 17.6123C23.1552 17.6123 21.6129 19.1546 21.6129 20.9994C21.6129 22.8443 23.1552 24.3865 25 24.3865C26.8448 24.3865 28.3871 22.8443 28.3871 20.9994ZM28.871 20.9994C28.871 23.1078 27.1084 24.8704 25 24.8704C22.8916 24.8704 21.129 23.1078 21.129 20.9994C21.129 18.8911 22.8916 17.1285 25 17.1285C27.1084 17.1285 28.871 18.8911 28.871 20.9994Z" fill="black" fill-opacity="0.15"/>
<path d="M28.871 20.9994C28.871 18.8911 27.1084 17.1285 25 17.1285C22.8916 17.1285 21.129 18.8911 21.129 20.9994C21.129 23.1078 22.8916 24.8704 25 24.8704C27.1084 24.8704 28.871 23.1078 28.871 20.9994ZM29.3548 20.9999C29.3548 23.3718 27.3719 25.3547 25 25.3547C22.6281 25.3547 20.6452 23.3718 20.6452 20.9999C20.6452 18.628 22.6281 16.6451 25 16.6451C27.3719 16.6451 29.3548 18.628 29.3548 20.9999Z" fill="white"/>
<path fill-rule="evenodd" clip-rule="evenodd" d="M23.0645 19.2378V15.1936H26.9355V21.934L25.9677 22.832L26.9355 23.7301V27.7743H23.0645V21.0345L24.0323 20.1359L23.0645 19.2378Z" fill="white"/>
<path fill-rule="evenodd" clip-rule="evenodd" d="M23.0645 18.7538V14.7096H26.9355V21.4499L25.9677 22.348L26.9355 23.2461V27.2903H23.0645V20.5504L24.0323 19.6519L23.0645 18.7538Z" fill="#4D4D4D"/>
<path fill-rule="evenodd" clip-rule="evenodd" d="M23.5484 19.1682V15.6771H26.4516V21.6567L25.7258 22.4856V22.9734L26.4516 23.8971V27.29H23.5484V21.2996L24.2742 20.4882V19.9975L23.5484 19.1682Z" fill="#808080"/>
<path fill-rule="evenodd" clip-rule="evenodd" d="M15.7676 43.2119H17.4473C19.0621 43.2119 19.9424 42.4243 19.9424 41.0586C19.9424 39.6646 18.7697 38.8906 17.4473 38.8906H14.8252V46H15.7676V43.2119ZM15.7676 42.4453V39.6621H17.4473C18.5484 39.6621 19 40.3374 19 41.0684C19 41.8658 18.5531 42.4453 17.4473 42.4453H15.7676Z" fill="black"/>
<path d="M24.415 38.8906H25.2012L26.7737 44.7164L28.0234 38.8906H28.9658L27.2471 46H26.3926L24.8147 40.275L23.1846 46H22.3301L20.6064 38.8906H21.5439L22.8082 44.6956L24.415 38.8906Z" fill="black"/>
<path fill-rule="evenodd" clip-rule="evenodd" d="M30.0107 46V38.8906C32.6848 38.8906 35.1572 39.2827 35.1572 42.6602C35.1572 45.8014 32.3926 46 30.0107 46ZM30.9531 45.2334V39.6621C32.9683 39.6621 34.2246 40.3657 34.2246 42.6602C34.2246 44.6652 32.7832 45.2334 30.9531 45.2334Z" fill="black"/>
</svg>
