<svg width="50" height="50" viewBox="0 0 50 50" fill="none" xmlns="http://www.w3.org/2000/svg">
<path fill-rule="evenodd" clip-rule="evenodd" d="M25.06 11.0776C32.7821 11.0776 39.0419 17.3375 39.0419 25.0596C39.0419 32.7817 32.7821 39.0415 25.06 39.0415C17.3379 39.0415 11.0781 32.7817 11.0781 25.0596C11.0781 17.3375 17.3379 11.0776 25.06 11.0776Z" fill="#198CFF"/>
<path fill-rule="evenodd" clip-rule="evenodd" d="M7.58258 25.06C7.58258 15.4072 15.4072 7.58253 25.06 7.58253C34.7128 7.58253 42.5374 15.4072 42.5374 25.06C42.5374 34.7133 34.7128 42.5374 25.06 42.5374C15.4072 42.5374 7.58258 34.7133 7.58258 25.06ZM11.0781 25.0596C11.0781 32.7817 17.3379 39.0415 25.06 39.0415C32.7821 39.0415 39.0419 32.7817 39.0419 25.0596C39.0419 17.3375 32.7821 11.0776 25.06 11.0776C17.3379 11.0776 11.0781 17.3375 11.0781 25.0596Z" fill="white"/>
<path fill-rule="evenodd" clip-rule="evenodd" d="M25.06 38.457C17.6601 38.457 11.6606 32.4588 11.6606 25.0588C11.6606 17.6595 17.6601 11.6606 25.06 11.6606C32.4599 11.6606 38.4594 17.6595 38.4594 25.0588C38.4594 32.4588 32.4599 38.457 25.06 38.457ZM25.06 11.0776C17.3373 11.0776 11.0781 17.3386 11.0781 25.0596C11.0781 32.7805 17.3367 39.0415 25.06 39.0415C32.7833 39.0415 39.0419 32.7805 39.0419 25.0596C39.0419 17.3386 32.7827 11.0776 25.06 11.0776Z" fill="#0D4680"/>
<path fill-rule="evenodd" clip-rule="evenodd" d="M7 25.06C7 35.0344 15.0862 43.12 25.06 43.12C35.0338 43.12 43.12 35.0344 43.12 25.06C43.12 15.0862 35.0338 7 25.06 7C15.0862 7 7 15.0862 7 25.06ZM25.06 7.58253C15.4066 7.58253 7.58258 15.4083 7.58258 25.06C7.58258 34.7116 15.4066 42.5374 25.06 42.5374C34.7134 42.5374 42.5374 34.7116 42.5374 25.06C42.5374 15.4083 34.7134 7.58253 25.06 7.58253Z" fill="#808080"/>
<path fill-rule="evenodd" clip-rule="evenodd" d="M31.0723 39.67C36.3906 37.4032 40.1186 32.139 40.1186 26.005C40.1186 6.84112 10.3318 6.84083 10.3318 26.005C10.3318 34.1844 16.9604 40.8183 25.1527 40.8573C16.6226 41.0512 9.44685 33.6994 9.44685 25.2698C9.44685 16.6598 16.4448 9.67991 25.0775 9.67991C33.7102 9.67991 40.7081 16.6598 40.7081 25.2698C40.7081 31.7615 36.7291 37.3239 31.0723 39.67ZM24.7757 41.0344C34.4192 41.0344 42.2363 33.2377 42.2363 23.6205C42.2363 22.7233 42.1681 21.8424 42.037 20.982C44.6573 31.6986 36.2311 42.5351 25.0769 42.5351C16.3324 42.5351 9.09031 36.125 7.81563 27.7597C9.67872 35.3781 16.5631 41.0344 24.7757 41.0344Z" fill="black" fill-opacity="0.1"/>
<path fill-rule="evenodd" clip-rule="evenodd" d="M25.06 14.5737C30.8514 14.5737 35.5465 19.2687 35.5465 25.0602C35.5465 30.8516 30.8514 35.5466 25.06 35.5466C19.2686 35.5466 14.5736 30.8516 14.5736 25.0602C14.5736 19.2687 19.2686 14.5737 25.06 14.5737Z" fill="#F2F2F2"/>
<path d="M25.06 14.5737C19.2686 14.5737 14.5736 19.2687 14.5736 25.0602C14.5736 30.8516 19.2686 35.5466 25.06 35.5466C30.8514 35.5466 35.5465 30.8516 35.5465 25.0602C35.5465 19.2687 30.8514 14.5737 25.06 14.5737ZM25.06 13.9909C31.173 13.9909 36.129 18.9469 36.129 25.0599C36.129 31.1735 31.173 36.129 25.06 36.129C18.947 36.129 13.9909 31.1735 13.9909 25.0599C13.9909 18.9469 18.947 13.9909 25.06 13.9909Z" fill="black" fill-opacity="0.25"/>
<path fill-rule="evenodd" clip-rule="evenodd" d="M29.7206 25.0593C29.7206 27.5978 27.5985 29.72 25.06 29.72C22.5215 29.72 20.3994 27.5978 20.3994 25.0593C20.3994 22.5208 22.5215 20.3987 25.06 20.3987C27.5985 20.3987 29.7206 22.5208 29.7206 25.0593Z" fill="black" fill-opacity="0.05"/>
<path d="M29.1381 25.0593C29.1381 22.8381 27.2812 20.9813 25.06 20.9813C22.8388 20.9813 20.9819 22.8381 20.9819 25.0593C20.9819 27.2805 22.8388 29.1374 25.06 29.1374C27.2812 29.1374 29.1381 27.2805 29.1381 25.0593ZM29.7206 25.0593C29.7206 27.5978 27.5985 29.72 25.06 29.72C22.5215 29.72 20.3994 27.5978 20.3994 25.0593C20.3994 22.5208 22.5215 20.3987 25.06 20.3987C27.5985 20.3987 29.7206 22.5208 29.7206 25.0593Z" fill="black" fill-opacity="0.15"/>
<path d="M29.7206 25.0593C29.7206 22.5208 27.5985 20.3987 25.06 20.3987C22.5215 20.3987 20.3994 22.5208 20.3994 25.0593C20.3994 27.5978 22.5215 29.72 25.06 29.72C27.5985 29.72 29.7206 27.5978 29.7206 25.0593ZM30.3032 25.0599C30.3032 27.9157 27.9158 30.3031 25.06 30.3031C22.2042 30.3031 19.8168 27.9157 19.8168 25.0599C19.8168 22.2041 22.2042 19.8167 25.06 19.8167C27.9158 19.8167 30.3032 22.2041 30.3032 25.0599Z" fill="white"/>
<path fill-rule="evenodd" clip-rule="evenodd" d="M22.7297 22.9384V18.0692H27.3903V26.1845L26.2252 27.2658L27.3903 28.347V33.2163H22.7297V25.1015L23.8948 24.0196L22.7297 22.9384Z" fill="white"/>
<path fill-rule="evenodd" clip-rule="evenodd" d="M22.7297 22.3556V17.4864H27.3903V25.6017L26.2252 26.683L27.3903 27.7643V32.6335H22.7297V24.5187L23.8948 23.4368L22.7297 22.3556Z" fill="#4D4D4D"/>
<path fill-rule="evenodd" clip-rule="evenodd" d="M23.3123 22.8545V18.6512H26.8077V25.8507L25.9339 26.8487V27.4359L26.8077 28.5481V32.6331H23.3123V25.4208L24.1861 24.4438V23.853L23.3123 22.8545Z" fill="#808080"/>
</svg>
