<svg width="50" height="50" viewBox="0 0 50 50" fill="none" xmlns="http://www.w3.org/2000/svg">
<path d="M33.8038 39.2908C28.9031 42.1736 22.8278 42.2163 17.8843 39.4083C12.9408 36.6002 9.86581 31.3684 9.8231 25.6775L8.05071 25.6882C8.09342 32.009 11.5101 37.8174 17.0088 40.9457C22.5075 44.0635 29.2447 44.0207 34.7007 40.8176L33.8038 39.2908Z" fill="#04AADA"/>
<path d="M17.6814 11.84C22.5822 8.95724 28.6575 8.91453 33.601 11.7226L34.4765 10.1851C28.9778 7.06739 22.2299 7.1101 16.7846 10.3132C11.3392 13.5164 8.00799 19.3781 8.0507 25.6989L9.82309 25.6882C9.78039 19.9973 12.77 14.7229 17.6814 11.84Z" fill="#04AADA"/>
<path d="M25.7426 11.4129C30.7929 11.4129 35.4694 14.1142 37.9999 18.4918L36.4731 19.378C34.2629 15.5449 30.1736 13.1853 25.7533 13.1853L25.7426 11.4129Z" fill="#04AADA"/>
<path d="M37.9892 32.6389L36.4624 31.7527C34.2522 35.5857 30.1629 37.9454 25.7426 37.9454C21.3223 37.9454 17.233 35.5857 15.0228 31.7527L13.496 32.6389C16.0265 37.0165 20.6924 39.7178 25.7533 39.7178C30.7929 39.7178 35.4694 37.0165 37.9892 32.6389Z" fill="#04AADA"/>
<path d="M15.0121 19.3781L13.4853 18.4919C10.9549 22.8695 10.9549 28.2614 13.4853 32.639L15.0121 31.7528C12.802 27.9304 12.802 23.2112 15.0121 19.3781Z" fill="#04AADA"/>
<path d="M25.7426 14.9577C29.533 14.9577 33.0351 16.9757 34.9356 20.2642C36.8361 23.5528 36.8361 27.5887 34.9356 30.8773C33.0351 34.1658 29.533 36.1838 25.7426 36.1838C21.9522 36.1838 18.4502 34.1658 16.5496 30.8773C14.6491 27.5887 14.6491 23.5528 16.5496 20.2642C18.4395 16.9757 21.9522 14.9577 25.7426 14.9577ZM20.3827 22.4744C19.2723 24.3856 19.2723 26.7452 20.3827 28.6671C21.4931 30.5783 23.5325 31.7634 25.7426 31.7634C27.9528 31.7634 30.0028 30.5783 31.1025 28.6671C32.2129 26.7559 32.2129 24.3963 31.1025 22.4744C29.9921 20.5632 27.9528 19.378 25.7426 19.378C23.5218 19.378 21.4825 20.5525 20.3827 22.4744Z" fill="#04AADA"/>
</svg>
