<svg width="50" height="50" viewBox="0 0 50 50" fill="none" xmlns="http://www.w3.org/2000/svg">
<rect width="50" height="50" fill="#072C75"/>
<path d="M32.5367 36.8582V35.6084C32.5367 34.809 32.536 34.0093 32.5353 33.2098C32.5348 32.7429 32.5344 32.276 32.5342 31.8091C32.5328 29.4194 32.5351 27.0292 32.5597 24.6401C32.5638 24.2764 32.8021 23.6891 33.0738 23.5888C34.5681 23.037 36.0813 22.4811 37.6363 22.1655C38.7266 21.9447 39.3349 22.0942 39.6309 22.6881C39.796 23.0166 39.8648 23.4819 39.8663 24.0967C39.8721 26.7783 39.8708 29.459 39.8695 32.1401C39.8689 33.2891 39.8684 34.4382 39.8684 35.5875C39.8684 35.7788 39.9133 35.9596 39.9932 36.12L39.9944 36.1222C40.1914 36.5118 40.5954 36.7788 41.0618 36.7788H41.7807C42.4317 36.7788 42.9595 36.251 42.9595 35.6C42.9595 34.6613 42.9602 33.7225 42.9609 32.7837L42.9609 32.7689C42.963 30.1261 42.965 27.4834 42.9511 24.8407C42.947 23.9734 42.8884 23.1018 42.7902 22.2408C42.7324 21.7273 42.6027 21.2695 42.4052 20.8747C41.9027 19.8736 40.9631 19.278 39.651 19.2061C37.6874 19.0997 35.7825 19.7103 33.9221 20.3066C33.6008 20.4096 33.2808 20.5121 32.9621 20.6105C32.6009 20.722 32.223 20.5394 32.0827 20.1996C32.0703 20.1702 32.0597 20.1396 32.051 20.1079C32.042 20.075 32.0308 20.0431 32.0177 20.0124C31.9029 19.7499 31.6418 19.5718 31.3497 19.5718H30.6201C29.9703 19.5718 29.4435 20.0986 29.4435 20.7485V26.2849V35.4767C29.444 35.8598 29.527 36.1631 29.6925 36.3869C29.9251 36.6983 30.3193 36.854 30.8751 36.854H32.5299L32.5319 36.8543L32.5337 36.8551L32.5367 36.8582Z" fill="white"/>
<path fill-rule="evenodd" clip-rule="evenodd" d="M31.3479 19.5676C31.6418 19.5676 31.904 19.7474 32.0177 20.0124C31.9029 19.7499 31.6418 19.5718 31.3497 19.5718H30.6201C29.9703 19.5718 29.4435 20.0986 29.4435 20.7485V26.2849V35.4767C29.444 35.8598 29.527 36.1631 29.6925 36.3869C29.5251 36.1627 29.4414 35.858 29.4414 35.4725V26.2807V20.7443C29.4414 20.0945 29.9682 19.5676 30.618 19.5676H31.3479ZM32.5367 36.8582H30.8772C30.3197 36.8582 29.9248 36.7011 29.6925 36.3869C29.9251 36.6983 30.3193 36.854 30.8751 36.854H32.5299L32.5319 36.8543L32.5337 36.8551L32.5367 36.8582ZM32.5353 33.2098C32.536 34.0093 32.5367 34.809 32.5367 35.6084V36.8582L32.5388 36.8577C32.5388 36.0151 32.5377 35.1724 32.5366 34.3298L32.5353 33.2098ZM32.5353 33.2098L32.5342 31.8091C32.5344 32.276 32.5348 32.7429 32.5353 33.2098ZM39.6309 22.6881C39.3342 22.0977 38.7262 21.9494 37.6384 22.1697C36.0834 22.4832 34.5702 23.0412 33.0759 23.593C32.8042 23.6933 32.5659 24.2785 32.5617 24.6443C32.5372 27.0325 32.5331 29.4208 32.5342 31.8091C32.5328 29.4194 32.5351 27.0292 32.5597 24.6401C32.5638 24.2764 32.8021 23.6891 33.0738 23.5888C34.5681 23.037 36.0813 22.4811 37.6363 22.1655C38.7266 21.9447 39.3349 22.0942 39.6309 22.6881ZM39.6309 22.6881C39.796 23.0166 39.8648 23.4819 39.8663 24.0967C39.8721 26.7783 39.8708 29.459 39.8695 32.1401C39.8689 33.2891 39.8684 34.4382 39.8684 35.5875C39.8684 35.7788 39.9133 35.9596 39.9932 36.12C39.912 35.9586 39.8663 35.7763 39.8663 35.5833C39.8663 34.4342 39.8669 33.2849 39.8674 32.136C39.8687 29.4549 39.8701 26.7742 39.8642 24.0925C39.8627 23.4803 39.7945 23.0163 39.6309 22.6881ZM32.0827 20.1996C32.0703 20.1702 32.0597 20.1396 32.051 20.1079C32.042 20.075 32.0308 20.0431 32.0177 20.0124C32.0318 20.0447 32.0437 20.0783 32.0532 20.113C32.0613 20.1429 32.0712 20.1718 32.0827 20.1996ZM42.4052 20.8747C41.9027 19.8736 40.9631 19.278 39.651 19.2061C37.6874 19.0997 35.7825 19.7103 33.9221 20.3066C33.6008 20.4096 33.2808 20.5121 32.9621 20.6105C32.6009 20.722 32.223 20.5394 32.0827 20.1996C32.2248 20.5363 32.6009 20.7173 32.9603 20.6063C33.282 20.507 33.6047 20.4035 33.9283 20.2996C35.7879 19.703 37.6825 19.0951 39.6489 19.2019C40.9628 19.2739 41.9032 19.8711 42.4052 20.8747ZM42.4052 20.8747C42.6039 21.2705 42.7343 21.7297 42.7923 22.2449C42.8905 23.1081 42.949 23.9775 42.9532 24.8449C42.9658 27.5348 42.9642 30.2248 42.9626 32.9147C42.9621 33.8112 42.9616 34.7077 42.9616 35.6042C42.9616 36.2552 42.4338 36.783 41.7828 36.783H41.0639C40.5958 36.783 40.1906 36.514 39.9944 36.1222C40.1914 36.5118 40.5954 36.7788 41.0618 36.7788H41.7807C42.4317 36.7788 42.9595 36.251 42.9595 35.6C42.9595 34.6613 42.9602 33.7225 42.9609 32.7837L42.9609 32.7689C42.963 30.1261 42.965 27.4834 42.9511 24.8407C42.947 23.9734 42.8884 23.1018 42.7902 22.2408C42.7324 21.7273 42.6027 21.2695 42.4052 20.8747ZM17.9255 15.906C19.8566 16.209 20.9434 17.603 21.0249 19.5635C21.1685 22.9822 21.1647 26.4792 21.0709 29.9006C21.0393 31.0315 20.8196 31.9247 20.3712 32.6041C18.959 34.7381 15.4967 34.4982 13.3149 34.1015C11.4277 33.7567 10.2844 32.3605 10.2426 30.3959C10.1653 26.8116 10.1653 23.2251 10.2426 19.6408C10.2515 19.2151 10.3102 18.8154 10.4158 18.4468C10.811 17.0754 11.8538 16.1372 13.3881 15.9018C14.8699 15.674 16.4437 15.674 17.9255 15.906ZM10.4158 18.4468C10.8095 17.0725 11.8543 16.1316 13.3902 15.8976C14.872 15.6698 16.4458 15.6698 17.9276 15.9018C19.8587 16.2048 20.9476 17.5989 21.027 19.5593C21.1717 23.0999 21.1691 26.3956 21.073 29.8964C21.0413 31.0297 20.8212 31.9242 20.3712 32.6041C18.9614 34.7404 15.4949 34.5059 13.3128 34.1057C11.4256 33.7608 10.2823 32.3647 10.2405 30.4001C10.1653 26.8158 10.1653 23.2293 10.2405 19.645C10.2499 19.2176 10.3093 18.8164 10.4158 18.4468Z" fill="white"/>
<path fill-rule="evenodd" clip-rule="evenodd" d="M24.1495 19.2291C24.0032 16.7023 22.7387 14.8233 20.4084 13.7574C17.2831 12.328 12.8425 12.358 9.87204 14.2675C8.14873 15.3767 7.23065 17.1384 7.12226 19.668C6.95924 23.4864 7.03657 27.3236 7.20795 31.1441C7.31454 33.5058 8.67931 35.2197 10.8383 36.2333C13.8084 37.6304 17.7772 37.5973 20.7413 36.1133C23.12 34.9205 24.2038 32.7627 24.2164 29.4638C24.22 28.6128 24.2303 27.7611 24.2406 26.9089L24.2461 26.4494C24.2715 24.0388 24.2883 21.6177 24.1495 19.2291ZM10.2405 30.4001C10.1653 26.8158 10.1653 23.2293 10.2405 19.645C10.2499 19.2176 10.3093 18.8164 10.4158 18.4468C10.8095 17.0725 11.8543 16.1316 13.3902 15.8976C14.872 15.6698 16.4458 15.6698 17.9276 15.9018C19.8587 16.2048 20.9476 17.5989 21.027 19.5593C21.1717 23.0999 21.1691 26.3956 21.073 29.8964C21.0413 31.0297 20.8212 31.9242 20.3712 32.6041C18.9614 34.7404 15.4949 34.5059 13.3128 34.1057C11.4256 33.7608 10.2823 32.3647 10.2405 30.4001Z" fill="white"/>
</svg>
