<svg width="50" height="50" viewBox="0 0 50 50" fill="none" xmlns="http://www.w3.org/2000/svg">
<path d="M39.9698 10H10V39.9698H39.9698V10Z" fill="white"/>
<path d="M10 10H39.3999C39.9023 10 40.0073 10.0975 40.0073 10.6073V14.9562C40.0073 15.2636 40.0073 15.3611 39.6024 15.3611C34.0339 15.436 28.6562 17.4009 24.3511 20.9336C20.046 24.4662 17.069 29.3569 15.9085 34.8036C15.5353 36.4994 15.3667 38.2338 15.4061 39.9698H10.4049C10.105 39.9698 10 39.8648 10 39.5649V10Z" fill="#ED1E24"/>
<path d="M24.7864 39.9702C24.8551 38.642 25.0255 37.3209 25.2962 36.0188C26.0527 33.0951 27.6743 30.468 29.9486 28.4813C32.223 26.4946 35.0442 25.2408 38.0429 24.8841C38.5781 24.7969 39.1205 24.7618 39.6625 24.7792C39.9699 24.7792 40.0674 24.8841 40.0674 25.184V39.9702H24.7864Z" fill="#ED1E24"/>
</svg>
