<svg width="50" height="50" viewBox="0 0 50 50" fill="none" xmlns="http://www.w3.org/2000/svg">
<rect width="50" height="50" fill="#171640"/>
<path d="M9.26677 20.3549C8.01016 15.9148 11.3438 11.3107 16.0984 11.0742C18.8267 10.9385 21.5671 11.032 24.3021 11.0238C24.4975 11.0232 24.3976 13.576 24.3976 13.8816C21.8273 13.8816 19.2569 13.8686 16.6865 13.8844C14.0416 13.9007 11.9425 15.982 11.9772 18.5258C12.0101 20.9393 13.9781 22.8644 16.5588 23.0075C18.9176 23.1384 21.1125 21.3773 21.392 19.0665C21.5067 18.1185 21.461 17.1501 21.461 16.1964C22.4522 16.1964 23.4173 16.1964 24.4148 16.1964C24.3941 17.9471 24.5937 19.6962 23.815 21.3528C20.94 27.4694 11.2167 27.2449 9.26677 20.3549Z" fill="white"/>
<path d="M35.5281 21.6725C33.8421 21.7576 32.151 21.6999 30.4635 21.6999C30.4635 22.6859 30.4748 23.6345 30.4604 24.5827C30.4452 25.5782 29.554 26.2547 28.5721 26.0366C27.909 25.8892 27.4051 25.3259 27.4024 24.6481C27.391 21.8466 27.3976 19.045 27.3976 16.2089C28.4142 16.2089 29.4163 16.2089 30.4559 16.2089C30.4559 17.1661 30.4559 18.1237 30.4559 19.1216C32.186 19.1216 34.0446 19.3111 35.7569 19.0343C37.1709 18.8057 38.0648 17.6212 37.9357 16.3291C37.7926 14.8971 36.7296 13.901 35.2399 13.8844C32.6353 13.8554 30.0303 13.8816 27.4256 13.8816C27.4256 13.5894 27.3223 11.2227 27.5158 11.2226C30.264 11.2208 33.0139 11.1614 35.7598 11.2386C38.4536 11.3143 40.4841 13.0934 40.9257 15.6374C41.4998 18.9448 38.6826 21.5131 35.5281 21.6725Z" fill="white"/>
<path d="M17.1556 28.3812C17.4231 28.5258 17.6409 28.587 17.7718 28.725C18.1606 29.1352 18.5153 29.5756 18.9563 30.0892C18.9563 29.4844 18.9563 28.9966 18.9563 28.4948C19.1249 28.4948 19.2599 28.4948 19.4249 28.4948C19.4249 29.2764 19.4249 30.0475 19.4249 30.8412C19.1777 30.958 18.9957 30.8551 18.8196 30.6411C18.4707 30.217 18.1013 29.8088 17.6662 29.3088C17.6662 29.8999 17.6662 30.3749 17.6662 30.8631C17.483 30.8631 17.3367 30.8631 17.1556 30.8631C17.1556 30.0358 17.1556 29.2085 17.1556 28.3812Z" fill="white"/>
<path d="M14.6183 28.5996C14.7674 28.5292 14.9142 28.4926 15.094 28.4476C15.094 29.2893 15.094 30.0592 15.094 30.9593C14.8614 30.8411 14.6392 30.7869 14.5084 30.6507C14.1168 30.2432 13.7609 29.8036 13.3348 29.3116C13.3348 29.8736 13.3348 30.3481 13.3348 30.8517C13.1535 30.8517 12.9989 30.8517 12.8313 30.8517C12.8313 30.0767 12.8313 29.3159 12.8313 28.5387C13.0775 28.4053 13.2527 28.487 13.423 28.6945C13.7812 29.1311 14.1576 29.5539 14.6161 29.9635C14.6161 29.5201 14.6161 29.0766 14.6183 28.5996Z" fill="white"/>
<path d="M39.6087 28.4825C39.6087 28.6419 39.6087 28.7599 39.6087 28.9225C39.1362 28.9225 38.6574 28.9225 38.1638 28.9225C38.1638 29.1215 38.1638 29.2765 38.1638 29.4713C38.6231 29.4713 39.0735 29.4713 39.5411 29.4713C39.5411 29.6253 39.5411 29.7399 39.5411 29.8928C39.0929 29.8928 38.6422 29.8928 38.17 29.8928C38.17 30.0845 38.17 30.2385 38.17 30.4261C38.6431 30.4261 39.1091 30.4261 39.5993 30.4261C39.5993 30.5852 39.5993 30.7112 39.5993 30.8602C38.9679 30.8602 38.3357 30.8602 37.677 30.8602C37.677 30.0859 37.677 29.3161 37.677 28.4824C38.3209 28.4824 38.9648 28.4825 39.6087 28.4825Z" fill="white"/>
<path d="M22.7187 28.439C23.5639 28.5066 24.0731 29.0168 24.0423 29.7291C24.0106 30.4633 23.4628 30.948 22.6734 30.9403C21.8946 30.9327 21.3752 30.4563 21.357 29.7329C21.3382 28.987 21.8425 28.4947 22.7187 28.439ZM23.0715 28.9282C22.086 28.4889 21.3069 29.9829 22.2868 30.4372C23.2714 30.8936 24.0697 29.3731 23.0715 28.9282Z" fill="white"/>
<path d="M30.398 29.0949C30.5914 28.8539 30.5327 28.4003 31.0059 28.4852C31.129 28.5073 31.2862 28.5987 31.339 28.701C31.7014 29.4032 32.0402 30.1168 32.4023 30.8588C32.0981 30.896 31.8382 30.9572 31.7125 30.5992C31.6865 30.5253 31.5272 30.4612 31.4242 30.453C31.1622 30.4321 30.8969 30.4542 30.6338 30.4422C30.4083 30.4319 30.2679 30.4823 30.1398 30.6987C30.061 30.832 29.8006 30.865 29.6217 30.9431C29.5976 30.9099 29.5735 30.8768 29.5494 30.8437C29.8283 30.27 30.1072 29.6964 30.398 29.0949ZM30.5397 29.9821C30.8406 29.9821 31.109 29.9821 31.4316 29.9821C31.2776 29.6539 31.1416 29.3641 30.9756 29.0105C30.8006 29.3612 30.6853 29.5642 30.5397 29.9821Z" fill="white"/>
<path d="M27.1859 30.8302C26.7991 30.9833 26.5996 30.8685 26.4571 30.5041C26.1993 29.8449 25.8831 29.2071 25.5814 28.5383C25.9261 28.4122 26.1423 28.4503 26.2719 28.8236C26.4374 29.3008 26.6599 29.7596 26.8981 30.3212C27.1267 29.7877 27.3429 29.3417 27.5078 28.8786C27.6272 28.5432 27.8094 28.3952 28.2268 28.5149C27.8851 29.2817 27.5454 30.044 27.1859 30.8302Z" fill="white"/>
<path d="M35.8305 28.5631C35.8844 28.8312 35.804 28.9488 35.5335 28.9167C35.3851 28.8991 35.2326 28.9136 35.0414 28.9136C35.0414 29.5679 35.0414 30.2019 35.0414 30.8596C34.8553 30.8596 34.7098 30.8596 34.5256 30.8596C34.5256 30.2232 34.5256 29.5886 34.5256 28.9263C34.2435 28.9263 33.9984 28.9263 33.7271 28.9263C33.7271 28.7717 33.7271 28.6453 33.7271 28.532C34.4296 28.532 35.1245 28.532 35.8305 28.5631Z" fill="white"/>
<path d="M10.782 30.6489C10.6466 30.7722 10.5111 30.8605 10.2973 31C10.2973 30.073 10.2973 29.2911 10.2973 28.4936C10.4539 28.4936 10.5884 28.4936 10.7819 28.4936C10.7819 29.2074 10.7819 29.9107 10.782 30.6489Z" fill="white"/>
<path d="M23.0715 28.9282C22.086 28.4889 21.3069 29.9829 22.2868 30.4372C23.2792 30.8972 24.0632 29.3702 23.0715 28.9282Z" fill="#171640"/>
<path d="M30.9756 29.0105C31.1416 29.3641 31.2776 29.6539 31.4316 29.9821C31.109 29.9821 30.8406 29.9821 30.5397 29.9821C30.6575 29.6441 30.8157 29.3309 30.9756 29.0105Z" fill="#171640"/>
<path d="M33.2289 38.0247H31.8807V37.5H33.2289C34.014 37.5 34.3311 37.1032 34.3311 36.5575C34.3311 36.0573 34.0108 35.5949 33.2289 35.5949H32.0367V39.9332H31.3678V35.0668H33.2289C34.3699 35.0668 35 35.6843 35 36.5508C35 37.4857 34.375 38.0247 33.2289 38.0247Z" fill="white"/>
<path d="M29.8428 38.7032C29.8428 38.2494 29.6092 38.0319 28.6436 37.7607C27.6423 37.4746 27.0077 37.0803 27.0077 36.3235C27.0077 35.5596 27.6966 35 28.7233 35C29.8599 35 30.5013 35.7057 30.5013 36.4706H29.8358C29.8358 35.9171 29.4732 35.5281 28.7233 35.5281C28.0114 35.5281 27.6766 35.8596 27.6766 36.3168C27.6766 36.7286 28.0394 36.9798 28.8584 37.1992C30.0034 37.5108 30.5151 37.9356 30.5151 38.6965C30.5151 39.4873 29.8275 40 28.7545 40C27.8819 40 26.8482 39.5016 26.8482 38.5227H27.5137C27.5137 39.1905 28.115 39.4753 28.7545 39.4753C29.4568 39.4753 29.8428 39.1748 29.8428 38.7032Z" fill="white"/>
<path d="M24.3909 35.498L22.7204 39.9332H22.0376L23.9611 35.0668H24.4013L24.3909 35.498ZM25.7911 39.9332L24.1171 35.498L24.1067 35.0668H24.5469L26.4774 39.9332H25.7911ZM25.7045 38.1317V38.6598H22.8694V38.1317H25.7045Z" fill="white"/>
<path d="M18.7034 35.0668H19.1886L17.83 39.9332H17.3482L18.7034 35.0668ZM16.6655 35.0668L17.7018 39.9332H17.2235L16 35.0668H16.6655ZM21.2647 35.0668H21.9336L20.7136 39.9332H20.2353L21.2647 35.0668ZM19.2614 35.0668L20.5888 39.9332H20.1071L18.7831 35.0668H19.2614Z" fill="white"/>
</svg>
