<svg width="50" height="50" viewBox="0 0 50 50" fill="none" xmlns="http://www.w3.org/2000/svg">
<path d="M9.24609 41.9766V42.3359C9.24609 42.763 9.19271 43.1458 9.08594 43.4844C8.97917 43.8229 8.82552 44.1107 8.625 44.3477C8.42448 44.5846 8.18359 44.7656 7.90234 44.8906C7.6237 45.0156 7.3112 45.0781 6.96484 45.0781C6.62891 45.0781 6.32031 45.0156 6.03906 44.8906C5.76042 44.7656 5.51823 44.5846 5.3125 44.3477C5.10938 44.1107 4.95182 43.8229 4.83984 43.4844C4.72786 43.1458 4.67188 42.763 4.67188 42.3359V41.9766C4.67188 41.5495 4.72656 41.168 4.83594 40.832C4.94792 40.4935 5.10547 40.2057 5.30859 39.9688C5.51172 39.7292 5.7526 39.5469 6.03125 39.4219C6.3125 39.2969 6.62109 39.2344 6.95703 39.2344C7.30339 39.2344 7.61589 39.2969 7.89453 39.4219C8.17578 39.5469 8.41667 39.7292 8.61719 39.9688C8.82031 40.2057 8.97526 40.4935 9.08203 40.832C9.19141 41.168 9.24609 41.5495 9.24609 41.9766ZM8.5 42.3359V41.9688C8.5 41.6302 8.46484 41.3307 8.39453 41.0703C8.32682 40.8099 8.22656 40.5911 8.09375 40.4141C7.96094 40.237 7.79818 40.1029 7.60547 40.0117C7.41536 39.9206 7.19922 39.875 6.95703 39.875C6.72266 39.875 6.51042 39.9206 6.32031 40.0117C6.13281 40.1029 5.97135 40.237 5.83594 40.4141C5.70312 40.5911 5.60026 40.8099 5.52734 41.0703C5.45443 41.3307 5.41797 41.6302 5.41797 41.9688V42.3359C5.41797 42.6771 5.45443 42.9792 5.52734 43.2422C5.60026 43.5026 5.70443 43.7227 5.83984 43.9023C5.97786 44.0794 6.14062 44.2135 6.32812 44.3047C6.51823 44.3958 6.73047 44.4414 6.96484 44.4414C7.20964 44.4414 7.42708 44.3958 7.61719 44.3047C7.80729 44.2135 7.96745 44.0794 8.09766 43.9023C8.23047 43.7227 8.33073 43.5026 8.39844 43.2422C8.46615 42.9792 8.5 42.6771 8.5 42.3359Z" fill="#1C1D1F"/>
<path d="M10.9883 41.5859V46.625H10.2617V40.7734H10.9258L10.9883 41.5859ZM13.8359 42.8516V42.9336C13.8359 43.2409 13.7995 43.526 13.7266 43.7891C13.6536 44.0495 13.5469 44.276 13.4062 44.4688C13.2682 44.6615 13.0977 44.8112 12.8945 44.918C12.6914 45.0247 12.4583 45.0781 12.1953 45.0781C11.9271 45.0781 11.6901 45.0339 11.4844 44.9453C11.2786 44.8568 11.1042 44.7279 10.9609 44.5586C10.8177 44.3893 10.7031 44.1862 10.6172 43.9492C10.5339 43.7122 10.4766 43.4453 10.4453 43.1484V42.7109C10.4766 42.3984 10.5352 42.1185 10.6211 41.8711C10.707 41.6237 10.8203 41.4128 10.9609 41.2383C11.1042 41.0612 11.2773 40.9271 11.4805 40.8359C11.6836 40.7422 11.918 40.6953 12.1836 40.6953C12.4492 40.6953 12.6849 40.7474 12.8906 40.8516C13.0964 40.9531 13.2695 41.099 13.4102 41.2891C13.5508 41.4792 13.6562 41.707 13.7266 41.9727C13.7995 42.2357 13.8359 42.5286 13.8359 42.8516ZM13.1094 42.9336V42.8516C13.1094 42.6406 13.0872 42.4427 13.043 42.2578C12.9987 42.0703 12.9297 41.9062 12.8359 41.7656C12.7448 41.6224 12.6276 41.5104 12.4844 41.4297C12.3411 41.3464 12.1706 41.3047 11.9727 41.3047C11.7904 41.3047 11.6315 41.3359 11.4961 41.3984C11.3633 41.4609 11.25 41.5456 11.1562 41.6523C11.0625 41.7565 10.9857 41.8763 10.9258 42.0117C10.8685 42.1445 10.8255 42.2826 10.7969 42.4258V43.4375C10.849 43.6198 10.9219 43.7917 11.0156 43.9531C11.1094 44.112 11.2344 44.2409 11.3906 44.3398C11.5469 44.4362 11.7435 44.4844 11.9805 44.4844C12.1758 44.4844 12.3438 44.444 12.4844 44.3633C12.6276 44.2799 12.7448 44.1667 12.8359 44.0234C12.9297 43.8802 12.9987 43.7161 13.043 43.5312C13.0872 43.3438 13.1094 43.1445 13.1094 42.9336Z" fill="#1C1D1F"/>
<path d="M15.4766 41.6133V45H14.75V40.7734H15.4375L15.4766 41.6133ZM15.3281 42.7266L14.9922 42.7148C14.9948 42.4258 15.0326 42.1589 15.1055 41.9141C15.1784 41.6667 15.2865 41.4518 15.4297 41.2695C15.5729 41.0872 15.7513 40.9466 15.9648 40.8477C16.1784 40.7461 16.4258 40.6953 16.707 40.6953C16.9049 40.6953 17.0872 40.724 17.2539 40.7812C17.4206 40.8359 17.5651 40.9232 17.6875 41.043C17.8099 41.1628 17.9049 41.3164 17.9727 41.5039C18.0404 41.6914 18.0742 41.918 18.0742 42.1836V45H17.3516V42.2188C17.3516 41.9974 17.3138 41.8203 17.2383 41.6875C17.1654 41.5547 17.0612 41.4583 16.9258 41.3984C16.7904 41.3359 16.6315 41.3047 16.4492 41.3047C16.2357 41.3047 16.0573 41.3424 15.9141 41.418C15.7708 41.4935 15.6562 41.5977 15.5703 41.7305C15.4844 41.8633 15.4219 42.0156 15.3828 42.1875C15.3464 42.3568 15.3281 42.5365 15.3281 42.7266ZM18.0664 42.3281L17.582 42.4766C17.5846 42.2448 17.6224 42.0221 17.6953 41.8086C17.7708 41.5951 17.8789 41.4049 18.0195 41.2383C18.1628 41.0716 18.3385 40.9401 18.5469 40.8438C18.7552 40.7448 18.9935 40.6953 19.2617 40.6953C19.4883 40.6953 19.6888 40.7253 19.8633 40.7852C20.0404 40.8451 20.1888 40.9375 20.3086 41.0625C20.431 41.1849 20.5234 41.3424 20.5859 41.5352C20.6484 41.7279 20.6797 41.957 20.6797 42.2227V45H19.9531V42.2148C19.9531 41.9779 19.9154 41.7943 19.8398 41.6641C19.7669 41.5312 19.6628 41.4388 19.5273 41.3867C19.3945 41.332 19.2357 41.3047 19.0508 41.3047C18.8919 41.3047 18.7513 41.332 18.6289 41.3867C18.5065 41.4414 18.4036 41.5169 18.3203 41.6133C18.237 41.707 18.1732 41.8151 18.1289 41.9375C18.0872 42.0599 18.0664 42.1901 18.0664 42.3281Z" fill="#1C1D1F"/>
<path d="M24.2656 44.2773V42.1016C24.2656 41.9349 24.2318 41.7904 24.1641 41.668C24.099 41.543 24 41.4466 23.8672 41.3789C23.7344 41.3112 23.5703 41.2773 23.375 41.2773C23.1927 41.2773 23.0326 41.3086 22.8945 41.3711C22.7591 41.4336 22.6523 41.5156 22.5742 41.6172C22.4987 41.7188 22.4609 41.8281 22.4609 41.9453H21.7383C21.7383 41.7943 21.7773 41.6445 21.8555 41.4961C21.9336 41.3477 22.0456 41.2135 22.1914 41.0938C22.3398 40.9714 22.5169 40.875 22.7227 40.8047C22.931 40.7318 23.1628 40.6953 23.418 40.6953C23.7253 40.6953 23.9961 40.7474 24.2305 40.8516C24.4674 40.9557 24.6523 41.1133 24.7852 41.3242C24.9206 41.5326 24.9883 41.7943 24.9883 42.1094V44.0781C24.9883 44.2188 25 44.3685 25.0234 44.5273C25.0495 44.6862 25.0872 44.8229 25.1367 44.9375V45H24.3828C24.3464 44.9167 24.3177 44.806 24.2969 44.668C24.276 44.5273 24.2656 44.3971 24.2656 44.2773ZM24.3906 42.4375L24.3984 42.9453H23.668C23.4622 42.9453 23.2786 42.9622 23.1172 42.9961C22.9557 43.0273 22.8203 43.0755 22.7109 43.1406C22.6016 43.2057 22.5182 43.2878 22.4609 43.3867C22.4036 43.4831 22.375 43.5964 22.375 43.7266C22.375 43.8594 22.4049 43.9805 22.4648 44.0898C22.5247 44.1992 22.6146 44.2865 22.7344 44.3516C22.8568 44.4141 23.0065 44.4453 23.1836 44.4453C23.4049 44.4453 23.6003 44.3984 23.7695 44.3047C23.9388 44.2109 24.0729 44.0964 24.1719 43.9609C24.2734 43.8255 24.3281 43.694 24.3359 43.5664L24.6445 43.9141C24.6263 44.0234 24.5768 44.1445 24.4961 44.2773C24.4154 44.4102 24.3073 44.5378 24.1719 44.6602C24.0391 44.7799 23.8802 44.8802 23.6953 44.9609C23.513 45.0391 23.3073 45.0781 23.0781 45.0781C22.7917 45.0781 22.5404 45.0221 22.3242 44.9102C22.1107 44.7982 21.944 44.6484 21.8242 44.4609C21.707 44.2708 21.6484 44.0586 21.6484 43.8242C21.6484 43.5977 21.6927 43.3984 21.7812 43.2266C21.8698 43.0521 21.9974 42.9076 22.1641 42.793C22.3307 42.6758 22.5312 42.5872 22.7656 42.5273C23 42.4674 23.2617 42.4375 23.5508 42.4375H24.3906Z" fill="#1C1D1F"/>
<path d="M26.8477 41.6758V45H26.125V40.7734H26.8086L26.8477 41.6758ZM26.6758 42.7266L26.375 42.7148C26.3776 42.4258 26.4206 42.1589 26.5039 41.9141C26.5872 41.6667 26.7044 41.4518 26.8555 41.2695C27.0065 41.0872 27.1862 40.9466 27.3945 40.8477C27.6055 40.7461 27.8385 40.6953 28.0938 40.6953C28.3021 40.6953 28.4896 40.724 28.6562 40.7812C28.8229 40.8359 28.9648 40.9245 29.082 41.0469C29.2018 41.1693 29.293 41.3281 29.3555 41.5234C29.418 41.7161 29.4492 41.9518 29.4492 42.2305V45H28.7227V42.2227C28.7227 42.0013 28.6901 41.8242 28.625 41.6914C28.5599 41.556 28.4648 41.4583 28.3398 41.3984C28.2148 41.3359 28.0612 41.3047 27.8789 41.3047C27.6992 41.3047 27.5352 41.3424 27.3867 41.418C27.2409 41.4935 27.1146 41.5977 27.0078 41.7305C26.9036 41.8633 26.8216 42.0156 26.7617 42.1875C26.7044 42.3568 26.6758 42.5365 26.6758 42.7266Z" fill="#1C1D1F"/>
<path d="M33.0391 44.2773V42.1016C33.0391 41.9349 33.0052 41.7904 32.9375 41.668C32.8724 41.543 32.7734 41.4466 32.6406 41.3789C32.5078 41.3112 32.3438 41.2773 32.1484 41.2773C31.9661 41.2773 31.806 41.3086 31.668 41.3711C31.5326 41.4336 31.4258 41.5156 31.3477 41.6172C31.2721 41.7188 31.2344 41.8281 31.2344 41.9453H30.5117C30.5117 41.7943 30.5508 41.6445 30.6289 41.4961C30.707 41.3477 30.819 41.2135 30.9648 41.0938C31.1133 40.9714 31.2904 40.875 31.4961 40.8047C31.7044 40.7318 31.9362 40.6953 32.1914 40.6953C32.4987 40.6953 32.7695 40.7474 33.0039 40.8516C33.2409 40.9557 33.4258 41.1133 33.5586 41.3242C33.694 41.5326 33.7617 41.7943 33.7617 42.1094V44.0781C33.7617 44.2188 33.7734 44.3685 33.7969 44.5273C33.8229 44.6862 33.8607 44.8229 33.9102 44.9375V45H33.1562C33.1198 44.9167 33.0911 44.806 33.0703 44.668C33.0495 44.5273 33.0391 44.3971 33.0391 44.2773ZM33.1641 42.4375L33.1719 42.9453H32.4414C32.2357 42.9453 32.0521 42.9622 31.8906 42.9961C31.7292 43.0273 31.5938 43.0755 31.4844 43.1406C31.375 43.2057 31.2917 43.2878 31.2344 43.3867C31.1771 43.4831 31.1484 43.5964 31.1484 43.7266C31.1484 43.8594 31.1784 43.9805 31.2383 44.0898C31.2982 44.1992 31.388 44.2865 31.5078 44.3516C31.6302 44.4141 31.7799 44.4453 31.957 44.4453C32.1784 44.4453 32.3737 44.3984 32.543 44.3047C32.7122 44.2109 32.8464 44.0964 32.9453 43.9609C33.0469 43.8255 33.1016 43.694 33.1094 43.5664L33.418 43.9141C33.3997 44.0234 33.3503 44.1445 33.2695 44.2773C33.1888 44.4102 33.0807 44.5378 32.9453 44.6602C32.8125 44.7799 32.6536 44.8802 32.4688 44.9609C32.2865 45.0391 32.0807 45.0781 31.8516 45.0781C31.5651 45.0781 31.3138 45.0221 31.0977 44.9102C30.8841 44.7982 30.7174 44.6484 30.5977 44.4609C30.4805 44.2708 30.4219 44.0586 30.4219 43.8242C30.4219 43.5977 30.4661 43.3984 30.5547 43.2266C30.6432 43.0521 30.7708 42.9076 30.9375 42.793C31.1042 42.6758 31.3047 42.5872 31.5391 42.5273C31.7734 42.4674 32.0352 42.4375 32.3242 42.4375H33.1641Z" fill="#1C1D1F"/>
<path d="M37.6367 40.7734H38.293V44.9102C38.293 45.2826 38.2174 45.6003 38.0664 45.8633C37.9154 46.1263 37.7044 46.3255 37.4336 46.4609C37.1654 46.599 36.8555 46.668 36.5039 46.668C36.3581 46.668 36.1862 46.6445 35.9883 46.5977C35.793 46.5534 35.6003 46.4766 35.4102 46.3672C35.2227 46.2604 35.0651 46.1159 34.9375 45.9336L35.3164 45.5039C35.4935 45.7174 35.6784 45.8659 35.8711 45.9492C36.0664 46.0326 36.2591 46.0742 36.4492 46.0742C36.6784 46.0742 36.8763 46.0312 37.043 45.9453C37.2096 45.8594 37.3385 45.7318 37.4297 45.5625C37.5234 45.3958 37.5703 45.1901 37.5703 44.9453V41.7031L37.6367 40.7734ZM34.7266 42.9336V42.8516C34.7266 42.5286 34.7643 42.2357 34.8398 41.9727C34.918 41.707 35.0286 41.4792 35.1719 41.2891C35.3177 41.099 35.4935 40.9531 35.6992 40.8516C35.9049 40.7474 36.1367 40.6953 36.3945 40.6953C36.6602 40.6953 36.8919 40.7422 37.0898 40.8359C37.2904 40.9271 37.4596 41.0612 37.5977 41.2383C37.7383 41.4128 37.849 41.6237 37.9297 41.8711C38.0104 42.1185 38.0664 42.3984 38.0977 42.7109V43.0703C38.069 43.3802 38.013 43.6589 37.9297 43.9062C37.849 44.1536 37.7383 44.3646 37.5977 44.5391C37.4596 44.7135 37.2904 44.8477 37.0898 44.9414C36.8893 45.0326 36.6549 45.0781 36.3867 45.0781C36.1341 45.0781 35.9049 45.0247 35.6992 44.918C35.4961 44.8112 35.3216 44.6615 35.1758 44.4688C35.0299 44.276 34.918 44.0495 34.8398 43.7891C34.7643 43.526 34.7266 43.2409 34.7266 42.9336ZM35.4492 42.8516V42.9336C35.4492 43.1445 35.4701 43.3424 35.5117 43.5273C35.556 43.7122 35.6224 43.875 35.7109 44.0156C35.8021 44.1562 35.918 44.2669 36.0586 44.3477C36.1992 44.4258 36.3672 44.4648 36.5625 44.4648C36.8021 44.4648 37 44.4141 37.1562 44.3125C37.3125 44.2109 37.4362 44.0768 37.5273 43.9102C37.6211 43.7435 37.694 43.5625 37.7461 43.3672V42.4258C37.7174 42.2826 37.6732 42.1445 37.6133 42.0117C37.556 41.8763 37.4805 41.7565 37.3867 41.6523C37.2956 41.5456 37.1823 41.4609 37.0469 41.3984C36.9115 41.3359 36.7526 41.3047 36.5703 41.3047C36.3724 41.3047 36.2018 41.3464 36.0586 41.4297C35.918 41.5104 35.8021 41.6224 35.7109 41.7656C35.6224 41.9062 35.556 42.0703 35.5117 42.2578C35.4701 42.4427 35.4492 42.6406 35.4492 42.8516Z" fill="#1C1D1F"/>
<path d="M41.1445 45.0781C40.8503 45.0781 40.5833 45.0286 40.3438 44.9297C40.1068 44.8281 39.9023 44.6862 39.7305 44.5039C39.5612 44.3216 39.431 44.1055 39.3398 43.8555C39.2487 43.6055 39.2031 43.332 39.2031 43.0352V42.8711C39.2031 42.5273 39.2539 42.2214 39.3555 41.9531C39.457 41.6823 39.5951 41.4531 39.7695 41.2656C39.944 41.0781 40.1419 40.9362 40.3633 40.8398C40.5846 40.7435 40.8138 40.6953 41.0508 40.6953C41.3529 40.6953 41.6133 40.7474 41.832 40.8516C42.0534 40.9557 42.2344 41.1016 42.375 41.2891C42.5156 41.474 42.6198 41.6927 42.6875 41.9453C42.7552 42.1953 42.7891 42.4688 42.7891 42.7656V43.0898H39.6328V42.5H42.0664V42.4453C42.056 42.2578 42.0169 42.0755 41.9492 41.8984C41.8841 41.7214 41.7799 41.5755 41.6367 41.4609C41.4935 41.3464 41.2982 41.2891 41.0508 41.2891C40.8867 41.2891 40.7357 41.3242 40.5977 41.3945C40.4596 41.4622 40.3411 41.5638 40.2422 41.6992C40.1432 41.8346 40.0664 42 40.0117 42.1953C39.957 42.3906 39.9297 42.6159 39.9297 42.8711V43.0352C39.9297 43.2357 39.957 43.4245 40.0117 43.6016C40.069 43.776 40.151 43.9297 40.2578 44.0625C40.3672 44.1953 40.4987 44.2995 40.6523 44.375C40.8086 44.4505 40.9857 44.4883 41.1836 44.4883C41.4388 44.4883 41.6549 44.4362 41.832 44.332C42.0091 44.2279 42.1641 44.0885 42.2969 43.9141L42.7344 44.2617C42.6432 44.3997 42.5273 44.5312 42.3867 44.6562C42.2461 44.7812 42.0729 44.8828 41.8672 44.9609C41.6641 45.0391 41.4232 45.0781 41.1445 45.0781Z" fill="#1C1D1F"/>
<path d="M44.3555 41.4375V45H43.6328V40.7734H44.3359L44.3555 41.4375ZM45.6758 40.75L45.6719 41.4219C45.612 41.4089 45.5547 41.401 45.5 41.3984C45.4479 41.3932 45.388 41.3906 45.3203 41.3906C45.1536 41.3906 45.0065 41.4167 44.8789 41.4688C44.7513 41.5208 44.6432 41.5938 44.5547 41.6875C44.4661 41.7812 44.3958 41.8932 44.3438 42.0234C44.2943 42.151 44.2617 42.2917 44.2461 42.4453L44.043 42.5625C44.043 42.3073 44.0677 42.0677 44.1172 41.8438C44.1693 41.6198 44.2487 41.4219 44.3555 41.25C44.4622 41.0755 44.5977 40.9401 44.7617 40.8438C44.9284 40.7448 45.1263 40.6953 45.3555 40.6953C45.4076 40.6953 45.4674 40.7018 45.5352 40.7148C45.6029 40.7253 45.6497 40.737 45.6758 40.75Z" fill="#1C1D1F"/>
<path d="M30.3657 6.95861C41.2106 14.838 36.6734 33.0302 25.1646 35C39.8826 35 44.7517 13.911 30.3657 6.95861Z" fill="#FFCE26"/>
<path d="M18.8571 6.84264C31.6938 4.87279 37.0056 21.4427 31.3618 29.0904C40.6574 19.357 33.2431 1.97595 18.8571 6.84264Z" fill="#0879B8"/>
<path d="M11.3321 14.838C17.6398 4.9888 30.8085 11.0142 32.1365 20.9793C33.6857 8.81263 18.1931 1.97609 11.3321 14.838Z" fill="#069B4F"/>
<path d="M11 22.254C12.5493 12.0571 25.1647 11.0142 29.8125 18.1984C26.05 8.00151 11.2213 9.27612 11 22.254Z" fill="#CB2034"/>
</svg>
