<svg width="50" height="50" viewBox="0 0 50 50" fill="none" xmlns="http://www.w3.org/2000/svg">
<path d="M9.91099 38.5822V38.9207C9.91099 39.3228 9.86152 39.6833 9.76257 40.0021C9.66362 40.3209 9.52123 40.5919 9.3354 40.815C9.14957 41.0382 8.92633 41.2086 8.66568 41.3263C8.40745 41.444 8.11784 41.5029 7.79686 41.5029C7.48554 41.5029 7.19955 41.444 6.9389 41.3263C6.68067 41.2086 6.45623 41.0382 6.26557 40.815C6.07732 40.5919 5.93131 40.3209 5.82754 40.0021C5.72376 39.6833 5.67188 39.3228 5.67188 38.9207V38.5822C5.67188 38.1801 5.72256 37.8208 5.82392 37.5045C5.92769 37.1857 6.0737 36.9147 6.26195 36.6915C6.45019 36.4659 6.67343 36.2943 6.93166 36.1766C7.19231 36.0589 7.4783 36 7.78962 36C8.1106 36 8.40021 36.0589 8.65844 36.1766C8.91909 36.2943 9.14233 36.4659 9.32816 36.6915C9.5164 36.9147 9.66 37.1857 9.75895 37.5045C9.86031 37.8208 9.91099 38.1801 9.91099 38.5822ZM9.21956 38.9207V38.5749C9.21956 38.2561 9.18697 37.9741 9.12181 37.7288C9.05906 37.4836 8.96615 37.2776 8.84307 37.1109C8.71998 36.9441 8.56915 36.8178 8.39056 36.732C8.21438 36.6462 8.01407 36.6033 7.78962 36.6033C7.57242 36.6033 7.37573 36.6462 7.19955 36.732C7.02579 36.8178 6.87616 36.9441 6.75066 37.1109C6.62758 37.2776 6.53225 37.4836 6.46467 37.7288C6.3971 37.9741 6.36331 38.2561 6.36331 38.5749V38.9207C6.36331 39.2419 6.3971 39.5264 6.46467 39.774C6.53225 40.0193 6.62878 40.2265 6.75428 40.3957C6.88219 40.5624 7.03303 40.6887 7.20679 40.7746C7.38297 40.8604 7.57966 40.9033 7.79686 40.9033C8.02372 40.9033 8.22524 40.8604 8.40142 40.7746C8.57759 40.6887 8.72602 40.5624 8.84669 40.3957C8.96977 40.2265 9.06269 40.0193 9.12543 39.774C9.18818 39.5264 9.21956 39.2419 9.21956 38.9207Z" fill="#7F8BA5"/>
<path d="M11.5255 38.2144V42.9595H10.8522V37.4493H11.4676L11.5255 38.2144ZM14.1646 39.4062V39.4834C14.1646 39.7728 14.1308 40.0413 14.0632 40.289C13.9956 40.5342 13.8967 40.7476 13.7664 40.9291C13.6385 41.1105 13.4804 41.2515 13.2921 41.3521C13.1039 41.4526 12.8879 41.5029 12.6442 41.5029C12.3956 41.5029 12.176 41.4612 11.9853 41.3778C11.7946 41.2944 11.6329 41.1731 11.5002 41.0137C11.3675 40.8543 11.2613 40.663 11.1816 40.4398C11.1044 40.2167 11.0513 39.9653 11.0224 39.6858V39.2738C11.0513 38.9795 11.1056 38.7159 11.1853 38.4829C11.2649 38.25 11.3699 38.0513 11.5002 37.887C11.6329 37.7203 11.7934 37.594 11.9817 37.5081C12.1699 37.4199 12.3871 37.3757 12.6333 37.3757C12.8795 37.3757 13.0979 37.4248 13.2885 37.5229C13.4792 37.6185 13.6397 37.7558 13.77 37.9348C13.9003 38.1139 13.9981 38.3284 14.0632 38.5786C14.1308 38.8262 14.1646 39.1021 14.1646 39.4062ZM13.4913 39.4834V39.4062C13.4913 39.2076 13.4707 39.0212 13.4297 38.8471C13.3887 38.6705 13.3247 38.516 13.2378 38.3836C13.1534 38.2487 13.0448 38.1433 12.912 38.0673C12.7793 37.9888 12.6212 37.9496 12.4378 37.9496C12.2689 37.9496 12.1217 37.979 11.9962 38.0378C11.8731 38.0967 11.7681 38.1764 11.6812 38.2769C11.5943 38.375 11.5231 38.4878 11.4676 38.6153C11.4145 38.7404 11.3747 38.8704 11.3482 39.0053V39.958C11.3964 40.1296 11.464 40.2915 11.5509 40.4435C11.6378 40.5931 11.7536 40.7145 11.8984 40.8077C12.0432 40.8984 12.2254 40.9438 12.445 40.9438C12.6261 40.9438 12.7817 40.9058 12.912 40.8297C13.0448 40.7513 13.1534 40.6446 13.2378 40.5097C13.3247 40.3748 13.3887 40.2204 13.4297 40.0462C13.4707 39.8697 13.4913 39.6821 13.4913 39.4834Z" fill="#7F8BA5"/>
<path d="M15.685 38.2401V41.4293H15.0117V37.4493H15.6488L15.685 38.2401ZM15.5475 39.2885L15.2361 39.2775C15.2385 39.0053 15.2735 38.7539 15.3411 38.5234C15.4087 38.2904 15.5088 38.0881 15.6416 37.9164C15.7743 37.7448 15.9396 37.6124 16.1375 37.5192C16.3354 37.4235 16.5647 37.3757 16.8253 37.3757C17.0088 37.3757 17.1777 37.4027 17.3322 37.4566C17.4866 37.5081 17.6206 37.5903 17.734 37.7031C17.8474 37.8159 17.9355 37.9606 17.9983 38.1372C18.061 38.3137 18.0924 38.5271 18.0924 38.7772V41.4293H17.4227V38.8103C17.4227 38.6019 17.3877 38.4351 17.3177 38.31C17.2501 38.185 17.1536 38.0942 17.0281 38.0378C16.9026 37.979 16.7554 37.9496 16.5864 37.9496C16.3885 37.9496 16.2232 37.9851 16.0905 38.0562C15.9577 38.1273 15.8515 38.2254 15.7719 38.3505C15.6923 38.4756 15.6343 38.619 15.5981 38.7809C15.5644 38.9403 15.5475 39.1095 15.5475 39.2885ZM18.0851 38.9133L17.6362 39.0531C17.6387 38.8348 17.6737 38.6252 17.7412 38.4241C17.8112 38.223 17.9114 38.044 18.0417 37.887C18.1744 37.7301 18.3373 37.6062 18.5304 37.5155C18.7235 37.4223 18.9443 37.3757 19.1929 37.3757C19.4028 37.3757 19.5887 37.4039 19.7504 37.4603C19.9145 37.5167 20.052 37.6038 20.1631 37.7215C20.2765 37.8367 20.3622 37.9851 20.4201 38.1666C20.478 38.348 20.507 38.5638 20.507 38.814V41.4293H19.8336V38.8066C19.8336 38.5835 19.7986 38.4106 19.7287 38.288C19.6611 38.1629 19.5645 38.0758 19.439 38.0268C19.316 37.9753 19.1687 37.9496 18.9974 37.9496C18.8502 37.9496 18.7199 37.9753 18.6064 38.0268C18.493 38.0783 18.3977 38.1494 18.3204 38.2401C18.2432 38.3284 18.1841 38.4302 18.1431 38.5455C18.1044 38.6607 18.0851 38.7833 18.0851 38.9133Z" fill="#7F8BA5"/>
<path d="M23.8302 40.7488V38.6999C23.8302 38.543 23.7988 38.4069 23.7361 38.2916C23.6757 38.1739 23.584 38.0832 23.461 38.0194C23.3379 37.9557 23.1858 37.9238 23.0048 37.9238C22.8359 37.9238 22.6875 37.9532 22.5596 38.0121C22.4341 38.0709 22.3351 38.1482 22.2627 38.2438C22.1927 38.3395 22.1577 38.4425 22.1577 38.5528H21.488C21.488 38.4106 21.5242 38.2696 21.5966 38.1298C21.669 37.99 21.7728 37.8637 21.9079 37.7509C22.0455 37.6357 22.2096 37.5449 22.4003 37.4787C22.5933 37.4101 22.8081 37.3757 23.0446 37.3757C23.3294 37.3757 23.5804 37.4248 23.7976 37.5229C24.0172 37.6209 24.1886 37.7693 24.3117 37.9679C24.4372 38.1641 24.4999 38.4106 24.4999 38.7073V40.5612C24.4999 40.6936 24.5108 40.8346 24.5325 40.9842C24.5566 41.1338 24.5916 41.2626 24.6375 41.3705V41.4293H23.9388C23.905 41.3508 23.8785 41.2466 23.8592 41.1167C23.8399 40.9842 23.8302 40.8616 23.8302 40.7488ZM23.946 39.0163L23.9533 39.4945H23.2763C23.0857 39.4945 22.9155 39.5104 22.7659 39.5423C22.6163 39.5717 22.4908 39.6171 22.3894 39.6784C22.288 39.7397 22.2108 39.817 22.1577 39.9101C22.1046 40.0009 22.0781 40.1075 22.0781 40.2302C22.0781 40.3552 22.1058 40.4693 22.1613 40.5723C22.2169 40.6752 22.3001 40.7574 22.4111 40.8187C22.5246 40.8776 22.6633 40.907 22.8274 40.907C23.0326 40.907 23.2136 40.8628 23.3705 40.7746C23.5273 40.6863 23.6516 40.5784 23.7433 40.4509C23.8374 40.3233 23.8881 40.1995 23.8954 40.0793L24.1814 40.4067C24.1645 40.5097 24.1186 40.6238 24.0438 40.7488C23.969 40.8739 23.8688 40.994 23.7433 41.1093C23.6202 41.2221 23.473 41.3165 23.3017 41.3925C23.1327 41.4661 22.9421 41.5029 22.7297 41.5029C22.4642 41.5029 22.2313 41.4502 22.031 41.3447C21.8331 41.2393 21.6787 41.0983 21.5677 40.9217C21.4591 40.7427 21.4048 40.5428 21.4048 40.3221C21.4048 40.1088 21.4458 39.9212 21.5278 39.7593C21.6099 39.595 21.7281 39.4589 21.8826 39.351C22.0371 39.2407 22.2229 39.1573 22.4401 39.1009C22.6573 39.0445 22.8998 39.0163 23.1677 39.0163H23.946Z" fill="#7F8BA5"/>
<path d="M26.2231 38.299V41.4293H25.5534V37.4493H26.1869L26.2231 38.299ZM26.0638 39.2885L25.785 39.2775C25.7875 39.0053 25.8273 38.7539 25.9045 38.5234C25.9817 38.2904 26.0903 38.0881 26.2303 37.9164C26.3703 37.7448 26.5368 37.6124 26.7299 37.5192C26.9254 37.4235 27.1414 37.3757 27.3779 37.3757C27.571 37.3757 27.7447 37.4027 27.8992 37.4566C28.0536 37.5081 28.1852 37.5915 28.2938 37.7068C28.4048 37.822 28.4893 37.9716 28.5472 38.1555C28.6051 38.337 28.6341 38.5589 28.6341 38.8213V41.4293H27.9607V38.814C27.9607 38.6055 27.9306 38.4388 27.8702 38.3137C27.8099 38.1862 27.7218 38.0942 27.606 38.0378C27.4901 37.979 27.3477 37.9496 27.1788 37.9496C27.0123 37.9496 26.8602 37.9851 26.7227 38.0562C26.5875 38.1273 26.4705 38.2254 26.3715 38.3505C26.275 38.4756 26.1989 38.619 26.1434 38.7809C26.0903 38.9403 26.0638 39.1095 26.0638 39.2885Z" fill="#7F8BA5"/>
<path d="M31.9609 40.7488V38.6999C31.9609 38.543 31.9295 38.4069 31.8668 38.2916C31.8065 38.1739 31.7147 38.0832 31.5917 38.0194C31.4686 37.9557 31.3165 37.9238 31.1355 37.9238C30.9666 37.9238 30.8182 37.9532 30.6903 38.0121C30.5648 38.0709 30.4658 38.1482 30.3934 38.2438C30.3234 38.3395 30.2884 38.4425 30.2884 38.5528H29.6187C29.6187 38.4106 29.6549 38.2696 29.7273 38.1298C29.7997 37.99 29.9035 37.8637 30.0386 37.7509C30.1762 37.6357 30.3403 37.5449 30.531 37.4787C30.724 37.4101 30.9388 37.3757 31.1754 37.3757C31.4601 37.3757 31.7111 37.4248 31.9283 37.5229C32.1479 37.6209 32.3193 37.7693 32.4424 37.9679C32.5679 38.1641 32.6306 38.4106 32.6306 38.7073V40.5612C32.6306 40.6936 32.6415 40.8346 32.6632 40.9842C32.6873 41.1338 32.7223 41.2626 32.7682 41.3705V41.4293H32.0695C32.0357 41.3508 32.0092 41.2466 31.9899 41.1167C31.9706 40.9842 31.9609 40.8616 31.9609 40.7488ZM32.0768 39.0163L32.084 39.4945H31.407C31.2164 39.4945 31.0462 39.5104 30.8966 39.5423C30.747 39.5717 30.6215 39.6171 30.5201 39.6784C30.4188 39.7397 30.3415 39.817 30.2884 39.9101C30.2353 40.0009 30.2088 40.1075 30.2088 40.2302C30.2088 40.3552 30.2365 40.4693 30.2921 40.5723C30.3476 40.6752 30.4308 40.7574 30.5418 40.8187C30.6553 40.8776 30.794 40.907 30.9581 40.907C31.1633 40.907 31.3443 40.8628 31.5012 40.7746C31.658 40.6863 31.7823 40.5784 31.874 40.4509C31.9681 40.3233 32.0188 40.1995 32.0261 40.0793L32.3121 40.4067C32.2952 40.5097 32.2493 40.6238 32.1745 40.7488C32.0997 40.8739 31.9995 40.994 31.874 41.1093C31.7509 41.2221 31.6037 41.3165 31.4324 41.3925C31.2634 41.4661 31.0728 41.5029 30.8604 41.5029C30.5949 41.5029 30.362 41.4502 30.1617 41.3447C29.9638 41.2393 29.8094 41.0983 29.6984 40.9217C29.5898 40.7427 29.5355 40.5428 29.5355 40.3221C29.5355 40.1088 29.5765 39.9212 29.6585 39.7593C29.7406 39.595 29.8588 39.4589 30.0133 39.351C30.1678 39.2407 30.3536 39.1573 30.5708 39.1009C30.788 39.0445 31.0305 39.0163 31.2984 39.0163H32.0768Z" fill="#7F8BA5"/>
<path d="M36.2217 37.4493H36.8299V41.3447C36.8299 41.6954 36.7599 41.9946 36.62 42.2422C36.48 42.4899 36.2845 42.6775 36.0335 42.805C35.7849 42.935 35.4977 43 35.1719 43C35.0368 43 34.8775 42.9779 34.6941 42.9338C34.5131 42.8921 34.3345 42.8198 34.1583 42.7168C33.9845 42.6162 33.8385 42.4801 33.7203 42.3085L34.0714 41.9038C34.2355 42.1049 34.4069 42.2447 34.5855 42.3232C34.7665 42.4016 34.9451 42.4409 35.1212 42.4409C35.3336 42.4409 35.517 42.4004 35.6715 42.3195C35.826 42.2386 35.9454 42.1184 36.0299 41.959C36.1168 41.8021 36.1602 41.6083 36.1602 41.3778V38.3248L36.2217 37.4493ZM33.5248 39.4834V39.4062C33.5248 39.1021 33.5598 38.8262 33.6298 38.5786C33.7022 38.3284 33.8047 38.1139 33.9375 37.9348C34.0726 37.7558 34.2355 37.6185 34.4262 37.5229C34.6168 37.4248 34.8316 37.3757 35.0706 37.3757C35.3167 37.3757 35.5315 37.4199 35.7149 37.5081C35.9008 37.594 36.0576 37.7203 36.1855 37.887C36.3159 38.0513 36.4184 38.25 36.4933 38.4829C36.5681 38.7159 36.62 38.9795 36.6489 39.2738V39.6122C36.6224 39.904 36.5705 40.1664 36.4933 40.3994C36.4184 40.6323 36.3159 40.831 36.1855 40.9953C36.0576 41.1596 35.9008 41.2859 35.7149 41.3741C35.5291 41.46 35.3119 41.5029 35.0633 41.5029C34.8292 41.5029 34.6168 41.4526 34.4262 41.3521C34.2379 41.2515 34.0762 41.1105 33.9411 40.9291C33.8059 40.7476 33.7022 40.5342 33.6298 40.289C33.5598 40.0413 33.5248 39.7728 33.5248 39.4834ZM34.1945 39.4062V39.4834C34.1945 39.6821 34.2138 39.8685 34.2524 40.0426C34.2934 40.2167 34.355 40.3699 34.437 40.5024C34.5215 40.6348 34.6289 40.739 34.7592 40.815C34.8896 40.8886 35.0452 40.9254 35.2262 40.9254C35.4483 40.9254 35.6317 40.8776 35.7765 40.7819C35.9213 40.6863 36.0359 40.56 36.1204 40.403C36.2073 40.2461 36.2748 40.0757 36.3231 39.8918V39.0053C36.2966 38.8704 36.2555 38.7404 36.2 38.6153C36.1469 38.4878 36.0769 38.375 35.9901 38.2769C35.9056 38.1764 35.8006 38.0967 35.6751 38.0378C35.5496 37.979 35.4024 37.9496 35.2335 37.9496C35.05 37.9496 34.892 37.9888 34.7592 38.0673C34.6289 38.1433 34.5215 38.2487 34.437 38.3836C34.355 38.516 34.2934 38.6705 34.2524 38.8471C34.2138 39.0212 34.1945 39.2076 34.1945 39.4062Z" fill="#7F8BA5"/>
<path d="M39.4726 41.5029C39.1999 41.5029 38.9525 41.4563 38.7305 41.3631C38.5108 41.2675 38.3214 41.1338 38.1621 40.9622C38.0052 40.7905 37.8846 40.587 37.8001 40.3516C37.7156 40.1161 37.6734 39.8586 37.6734 39.5791V39.4246C37.6734 39.1009 37.7205 38.8128 37.8146 38.5602C37.9087 38.3051 38.0366 38.0893 38.1983 37.9128C38.36 37.7362 38.5434 37.6026 38.7486 37.5118C38.9537 37.4211 39.1661 37.3757 39.3857 37.3757C39.6656 37.3757 39.907 37.4248 40.1097 37.5229C40.3148 37.6209 40.4826 37.7583 40.6129 37.9348C40.7432 38.109 40.8398 38.3149 40.9025 38.5528C40.9653 38.7882 40.9966 39.0457 40.9966 39.3253V39.6306H38.0716V39.0751H40.3269V39.0236C40.3173 38.8471 40.2811 38.6754 40.2183 38.5087C40.158 38.3419 40.0614 38.2046 39.9287 38.0967C39.796 37.9888 39.615 37.9348 39.3857 37.9348C39.2337 37.9348 39.0937 37.9679 38.9658 38.0342C38.8379 38.0979 38.7281 38.1936 38.6363 38.3211C38.5446 38.4486 38.4734 38.6043 38.4228 38.7882C38.3721 38.9721 38.3467 39.1843 38.3467 39.4246V39.5791C38.3467 39.7679 38.3721 39.9457 38.4228 40.1125C38.4758 40.2768 38.5519 40.4214 38.6508 40.5465C38.7522 40.6716 38.8741 40.7697 39.0164 40.8408C39.1613 40.9119 39.3254 40.9475 39.5088 40.9475C39.7453 40.9475 39.9456 40.8984 40.1097 40.8003C40.2738 40.7022 40.4174 40.571 40.5405 40.4067L40.946 40.7341C40.8615 40.8641 40.7541 40.9879 40.6238 41.1056C40.4934 41.2233 40.333 41.319 40.1423 41.3925C39.954 41.4661 39.7308 41.5029 39.4726 41.5029Z" fill="#7F8BA5"/>
<path d="M42.4483 38.0746V41.4293H41.7786V37.4493H42.4302L42.4483 38.0746ZM43.6719 37.4272L43.6683 38.0599C43.6127 38.0476 43.5597 38.0403 43.509 38.0378C43.4607 38.0329 43.4052 38.0305 43.3424 38.0305C43.188 38.0305 43.0516 38.055 42.9334 38.104C42.8151 38.1531 42.715 38.2218 42.6329 38.31C42.5509 38.3983 42.4857 38.5038 42.4374 38.6264C42.3916 38.7465 42.3614 38.879 42.3469 39.0236L42.1587 39.134C42.1587 38.8937 42.1816 38.6681 42.2275 38.4572C42.2757 38.2463 42.3493 38.0599 42.4483 37.8981C42.5472 37.7338 42.6727 37.6062 42.8248 37.5155C42.9792 37.4223 43.1626 37.3757 43.375 37.3757C43.4233 37.3757 43.4788 37.3819 43.5415 37.3941C43.6043 37.4039 43.6477 37.415 43.6719 37.4272Z" fill="#7F8BA5"/>
<path d="M29.6543 7.8925C39.7245 15.2285 35.5115 32.166 24.8248 34C38.4915 34 43.0128 14.3654 29.6543 7.8925Z" fill="#FFCE26"/>
<path d="M18.9677 7.78452C30.8876 5.95053 35.8199 21.3777 30.5793 28.4979C39.2109 19.4358 32.3262 3.25347 18.9677 7.78452Z" fill="#0879B8"/>
<path d="M11.9803 15.2285C17.8374 6.05854 30.0655 11.6684 31.2986 20.9463C32.7372 9.61865 18.3512 3.2536 11.9803 15.2285Z" fill="#069B4F"/>
<path d="M11.6719 22.133C13.1105 12.6394 24.8248 11.6684 29.1406 18.3571C25.6468 8.86348 11.8774 10.0502 11.6719 22.133Z" fill="#CB2034"/>
</svg>
