<svg width="50" height="50" viewBox="0 0 50 50" fill="none" xmlns="http://www.w3.org/2000/svg">
<path d="M20.9814 45.7588C20.0136 44.7815 19.0464 43.8043 18.0786 42.827C17.8558 42.6022 17.8563 42.3773 18.0801 42.152C19.0008 41.2299 19.9208 40.3062 20.8444 39.387C23.1252 37.1163 26.7921 37.0888 29.1019 39.3362C30.0792 40.2867 31.026 41.269 32.0004 42.2231C32.2287 42.4464 32.1802 42.5805 31.9786 42.7777C31.092 43.6491 30.2177 44.5321 29.3404 45.4123C29.2302 45.5232 29.1295 45.6435 29.0243 45.7595H28.9518C27.9071 44.7061 26.8762 43.6397 25.8127 42.6059C25.3683 42.1738 24.6368 42.1738 24.1916 42.6044C23.1259 43.6353 22.0631 44.6706 21.0546 45.7588H20.9814Z" fill="#6E5BCD"/>
<path d="M29.0236 4C29.9726 4.96132 30.9216 5.92264 31.8713 6.88252C32.1009 7.11451 32.1007 7.34602 31.8706 7.57705C30.9325 8.5159 29.998 9.45837 29.0555 10.3921C26.956 12.4721 23.4485 12.5896 21.2112 10.6481C20.0708 9.65846 19.0689 8.52677 17.9815 7.4828C17.7901 7.29866 17.8336 7.17323 18.0018 7.00649C18.9022 6.11549 19.7954 5.21724 20.69 4.31972C20.7915 4.21894 20.8843 4.1073 20.9814 4C21.0053 4 21.03 4 21.0539 4C22.0609 5.08747 23.1237 6.11911 24.1858 7.15148C24.6201 7.57342 25.3813 7.56545 25.8402 7.12176C26.8958 6.10099 27.9166 5.04325 28.9511 4C28.975 4 28.9997 4 29.0236 4Z" fill="#6AF5B6"/>
<path d="M15.091 24.8453C15.0881 19.5486 19.261 14.961 25.0116 14.961C30.5323 14.961 34.8771 19.3217 34.8727 24.8656C34.8691 30.5052 30.3648 34.7522 24.9543 34.7565C19.509 34.7609 15.0888 30.3131 15.091 24.8453ZM24.971 30.092C27.8839 30.0942 30.2343 27.775 30.2358 24.8961C30.238 22.0056 27.8673 19.6168 24.9906 19.6095C22.0928 19.6016 19.7388 21.9635 19.7446 24.8714C19.7511 27.7858 22.0566 30.0898 24.971 30.092Z" fill="#161738"/>
<path d="M35.257 34.3114C35.2787 31.6043 37.0658 29.2452 39.5525 28.5507C40.8654 28.1839 42.1849 27.8417 43.4978 27.4755C43.7697 27.3994 43.8915 27.464 43.9633 27.7394C44.2837 28.9654 44.6114 30.1899 44.9558 31.4093C45.0478 31.7348 44.9891 31.8776 44.6411 31.9653C43.4362 32.2691 42.24 32.6062 41.0409 32.9303C40.0948 33.1862 39.7258 33.8162 39.9773 34.7652C40.2992 35.9781 40.6218 37.1917 40.9618 38.4003C41.0474 38.7055 40.9742 38.8251 40.6646 38.9034C39.4249 39.2173 38.1902 39.5501 36.9585 39.8944C36.6758 39.9735 36.5743 39.8944 36.5047 39.6248C36.1763 38.3633 35.8326 37.1062 35.4919 35.8476C35.3462 35.309 35.2874 34.7572 35.257 34.3114Z" fill="#FF748F"/>
<path d="M35.2606 15.4895C35.2686 14.5825 35.5433 13.7285 35.7739 12.8665C36.0139 11.9682 36.2676 11.0736 36.4938 10.1725C36.5677 9.87668 36.6758 9.77518 36.9926 9.86363C38.2127 10.2044 39.4379 10.5284 40.6653 10.8416C40.9734 10.9207 41.0409 11.054 40.9553 11.3556C40.6139 12.5635 40.2949 13.7785 39.9635 14.99C39.7236 15.8672 40.0977 16.5537 40.9778 16.7973C42.1871 17.1323 43.4014 17.4513 44.6128 17.7775C45.0449 17.8942 45.0522 17.9109 44.9347 18.3502C44.6136 19.5515 44.2837 20.7506 43.9814 21.957C43.9016 22.2738 43.7733 22.3304 43.4746 22.247C42.2313 21.899 40.9771 21.5894 39.7366 21.2306C37.3188 20.5302 35.8739 18.9186 35.3672 16.4602C35.3019 16.1427 35.2947 15.8135 35.2606 15.4895Z" fill="#FFAD80"/>
<path d="M14.6799 15.4967C14.6785 18.1965 12.8609 20.5404 10.2525 21.2219C9.01419 21.5452 7.7781 21.8765 6.54708 22.2253C6.22157 22.3173 6.07947 22.2673 5.99247 21.915C5.69306 20.7079 5.36754 19.5066 5.03188 18.3089C4.94415 17.9972 5.0355 17.8674 5.33057 17.7913C6.44051 17.5035 7.54755 17.204 8.65532 16.9054C8.93444 16.83 9.22443 16.7741 9.47237 16.6175C9.99001 16.2898 10.209 15.7476 10.0509 15.1415C9.73482 13.9257 9.40568 12.7135 9.07581 11.5014C8.93009 10.9641 8.93009 10.9569 9.46947 10.8141C10.6367 10.5045 11.8046 10.2007 12.9682 9.87813C13.2713 9.79403 13.3952 9.86726 13.4743 10.1768C13.8005 11.4521 14.1543 12.7208 14.4936 13.9931C14.6248 14.4854 14.6929 14.9871 14.6806 15.4982L14.6799 15.4967Z" fill="#FFDF6B"/>
<path d="M14.6741 34.2954C14.7379 35.1306 14.4378 35.9201 14.2311 36.7234C13.9854 37.6818 13.7048 38.6315 13.4554 39.5892C13.3873 39.8509 13.2908 39.9503 13.0052 39.8705C11.7735 39.5269 10.5395 39.1927 9.30055 38.8758C8.99244 38.7968 8.96199 38.6518 9.03739 38.3821C9.3745 37.1729 9.69349 35.9593 10.027 34.7493C10.2749 33.8496 9.89359 33.1666 8.99026 32.9209C7.77955 32.5917 6.57028 32.2575 5.35594 31.9429C5.06378 31.8675 4.95068 31.7638 5.03985 31.4455C5.38639 30.2138 5.71481 28.9777 6.0425 27.7409C6.0976 27.5314 6.17662 27.4183 6.41659 27.4872C7.98182 27.9345 9.60287 28.2129 11.1079 28.8342C13.0726 29.6447 14.1985 31.1896 14.6016 33.2696C14.6661 33.6031 14.6922 33.9387 14.6719 34.2962L14.6741 34.2954Z" fill="#67DCEC"/>
</svg>
