<svg width="50" height="50" viewBox="0 0 50 50" fill="none" xmlns="http://www.w3.org/2000/svg">
<path d="M36.3435 21.1868C36.3435 20.8684 36.6088 20.603 36.9354 20.603H40.0422C40.2434 20.603 40.4293 20.5057 40.5391 20.3373L42.9025 16.742C43.1604 16.3529 42.8762 15.8404 42.4056 15.8404H36.9848C36.6586 15.8404 36.3932 15.5784 36.3932 15.2567V11.5911C36.3932 11.2694 36.1275 11 35.8013 11H30.1452C29.819 11 29.5533 11.2617 29.5533 11.5837V21.7867C27.5622 18.0113 23.5621 15.4312 18.9489 15.4312C12.3498 15.4312 7 20.7073 7 27.2154C7 33.7235 12.3498 39 18.9489 39C23.5691 39 27.5744 36.4119 29.5626 32.6273C29.597 34.2883 29.7625 35.5972 30.536 36.7241C32.0079 38.8415 34.6026 38.9725 36.9696 38.9725C38.0696 38.9725 38.8928 38.8716 40.0801 38.6954C40.3721 38.6508 40.5885 38.4038 40.5885 38.1154V33.9365C40.5885 33.6072 40.3116 33.3417 39.974 33.3528L38.1305 33.4201C36.2982 33.4201 36.3439 32.2364 36.3439 30.82L36.3435 21.1868ZM18.9485 32.5054C15.9862 32.5054 13.585 30.137 13.585 27.2154C13.585 24.2939 15.9865 21.9254 18.9485 21.9254C21.9106 21.9254 24.3121 24.2939 24.3121 27.2154C24.3121 30.137 21.9106 32.5054 18.9485 32.5054Z" fill="#1A6AFF"/>
</svg>
