<svg width="50" height="50" viewBox="0 0 50 50" fill="none" xmlns="http://www.w3.org/2000/svg">
<path d="M23.2651 8.46531C24.7569 8.99306 25.0553 10.5397 26.398 11.2653V8.33337C26.8455 8.40667 27.1961 8.33337 27.3975 8.51662C28.1323 9.01257 28.8145 9.57981 29.4339 10.2098C29.8754 10.8195 30.2813 11.4533 30.6497 12.1082C31.2316 12.9218 31.9029 13.6841 32.4698 14.5051C33.0367 15.326 33.6708 16.3449 34.2451 17.2831C34.4167 17.5616 34.454 17.9208 34.6479 18.17C35.4394 19.1346 35.9864 20.2701 36.2442 21.4831C36.2589 21.5948 36.2973 21.7022 36.3569 21.7984C36.4165 21.8947 36.4959 21.9776 36.5901 22.0418C36.6843 22.106 36.7911 22.1501 36.9037 22.1713C37.0162 22.1925 37.1321 22.1903 37.2437 22.1647C37.6615 22.1647 38.0866 22.1647 38.6386 22.1647C38.3104 23.2642 39.0564 23.8726 39.6755 24.6202C40.869 26.0862 40.1902 28.8129 38.5044 29.7071C38.3552 29.7878 38.1687 29.905 38.0419 29.8684C37.0349 29.5825 36.7216 30.3668 36.3412 30.9605C33.9467 34.7134 30.4409 37.1835 26.5322 39.1992C25.1436 39.9912 23.5472 40.3611 21.9448 40.2621C21.5317 40.22 21.1426 40.0507 20.8333 39.7783C20.1769 39.1406 19.6324 38.393 18.9909 37.7333C18.3494 37.0736 17.9988 37.059 17.1708 37.4914C16.3551 37.9496 15.3934 38.0883 14.478 37.8799C13.269 37.5984 12.1725 36.9701 11.3278 36.0747C10.483 35.1794 9.92826 34.0575 9.73395 32.8516C9.69615 32.4349 9.74956 32.015 9.89059 31.6202C11.7257 26.4229 14.924 21.7934 19.1625 18.1993C20.002 17.4381 20.8862 16.7259 21.8105 16.0663C22.244 15.7798 22.5901 15.383 22.8121 14.9183C23.0342 14.4536 23.1237 13.9384 23.0711 13.4276C23.0413 11.7711 23.1905 10.1658 23.2651 8.46531ZM38.5342 28.6077L38.6834 28.4611C38.84 28.3145 39.1384 28.1605 39.1309 28.0139C39.1266 27.3076 39.0541 26.6032 38.9146 25.9103C38.8483 25.7852 38.7503 25.6791 38.6301 25.6021C38.5099 25.525 38.3716 25.4797 38.2284 25.4705C38.0897 25.5128 37.9636 25.5876 37.861 25.6885C37.7583 25.7894 37.6822 25.9133 37.6391 26.0496C37.5567 26.6006 37.5119 27.1565 37.5048 27.7134C37.4675 27.9846 37.3258 28.2998 37.4153 28.5197C37.5048 28.7396 37.8778 28.6736 38.1612 28.7469H38.2134L38.5417 28.5857L38.5342 28.6077ZM28.3672 10.7229L28.1957 10.2978L28.0838 10.1512L27.9196 10.0119L27.3378 9.33756C27.1737 10.9135 27.0618 12.2695 26.8679 13.6768C26.7486 14.5051 26.8008 15.414 26.0548 16.0443L25.5625 15.3553L26.0996 13.6402L25.9056 13.5522C25.1597 14.0653 24.466 14.5857 23.7425 15.0915C17.7079 19.3501 13.0608 24.6935 10.3158 31.5616C10.0547 32.2139 9.88313 32.793 10.4202 33.3647C10.8865 34.4992 11.6831 35.4732 12.7102 36.1647C14.8435 37.6673 16.6189 37.2642 17.8347 35.0066C18.0694 34.4784 18.4196 34.0075 18.8605 33.6274C19.3015 33.2473 19.8222 32.9674 20.3858 32.8077C21.2793 32.6492 22.1408 32.3497 22.9369 31.9207C23.6962 31.3265 24.3644 30.6279 24.921 29.8464C25.5284 29.0111 26.3088 28.3116 27.211 27.7941C28.867 26.9291 28.8744 26.7239 27.7481 25.2359L27.5392 24.9501C27.2484 24.5835 27.1052 24.1246 27.1368 23.6608C27.1685 23.1971 27.3728 22.7611 27.7108 22.4359C29.1206 20.97 30.6945 19.8192 32.9696 20.4129C33.4992 20.5522 33.7155 20.7501 33.805 21.2632C33.8945 21.7763 33.984 22.1648 34.081 22.6119H34.2227V21.9375L35.0507 20.6915C34.7585 19.8652 34.4147 19.0573 34.0213 18.2726C33.4992 17.3564 32.8353 16.5208 32.2311 15.6485L32.0222 15.436L31.9402 15.6779C31.9402 16.4915 31.9402 17.3124 31.888 18.126C31.888 18.2946 31.6941 18.4559 31.5896 18.6244C31.4479 18.4852 31.2167 18.3679 31.1868 18.2066C31.0544 17.6385 30.977 17.0593 30.9556 16.4768C30.9314 14.6101 30.1939 12.8205 28.8894 11.4632L28.494 10.8768L28.3672 10.7229ZM24.369 10.8622L24.0632 10.2318L23.8767 10.2831V14.4245L24.5331 13.9993C24.7122 13.893 24.8841 13.7755 25.0478 13.6475C25.7341 13.0171 25.7415 12.8046 25.197 12.0716C24.8986 11.6684 24.645 11.2506 24.369 10.8475V10.8622ZM36.6545 24.7888C36.8085 24.7369 36.9562 24.668 37.0946 24.5836C38.0195 23.8506 37.9151 23.1176 36.8484 22.6925C36.6768 22.6265 36.5053 22.5459 36.3337 22.4653C35.5878 22.1281 35.5057 22.1721 35.3043 22.9857C34.9985 24.1731 35.1551 24.3857 36.6545 24.7522V24.7888ZM29.6502 26.3134L29.3742 27.7794C29.6012 27.8708 29.8185 27.9837 30.0232 28.1166C30.3509 28.4073 30.6129 28.7623 30.7923 29.1588C30.9716 29.5552 31.0643 29.9843 31.0643 30.4181C31.0643 30.852 30.9716 31.281 30.7923 31.6775C30.6129 32.0739 30.3509 32.429 30.0232 32.7197C29.7845 32.9103 29.5383 33.0935 29.2772 33.2768C26.5471 35.2851 23.9662 37.5061 20.8557 39.1406L21.3182 39.4411C21.5729 39.5423 21.838 39.6161 22.1089 39.661C23.6967 39.7176 25.2535 39.2189 26.5024 38.2537C28.5537 36.8537 30.5752 35.4097 32.522 33.8558C34.0175 32.7576 35.2287 31.3288 36.0577 29.6851C37.0871 27.4862 36.5724 25.6611 34.4689 24.4297C33.5589 23.8946 32.8652 23.4181 33.0442 22.1721C33.1561 21.4391 32.619 21.1093 31.8358 21.3292C31.073 21.5208 30.3252 21.7657 29.598 22.0621C29.2625 22.1828 28.9646 22.3868 28.7333 22.6544C28.5021 22.922 28.3453 23.2439 28.2785 23.5887C28.2116 23.9335 28.2368 24.2895 28.3518 24.6219C28.4667 24.9543 28.6673 25.2517 28.9341 25.4852L29.6502 26.3134ZM29.6502 29.0694C29.4514 28.824 29.183 28.6421 28.8789 28.5469C28.5747 28.4516 28.2487 28.4473 27.942 28.5344C27.4351 28.7104 26.9689 28.9838 26.5706 29.3386C26.1723 29.6935 25.8499 30.1228 25.6222 30.6014C25.33 31.2063 24.8922 31.7321 24.3467 32.1333C23.3227 32.722 22.2242 33.1755 21.0795 33.482C20.507 33.6417 19.9793 33.9282 19.5371 34.3196C19.0949 34.711 18.7498 35.1967 18.5284 35.7396C18.4988 35.7989 18.4834 35.8641 18.4834 35.9302C18.4834 35.9962 18.4988 36.0614 18.5284 36.1207C19.8263 37.9092 20.5275 38.6349 22.7131 37.2495C22.8921 37.1322 23.0562 37.0076 23.2278 36.883L26.2861 34.6841C27.2812 34.0435 28.2353 33.3434 29.143 32.5878C29.6461 32.0757 30.0058 31.4444 30.1873 30.7553C30.4185 30.0223 30.1351 29.8024 29.3369 29.8831C28.8297 29.9417 28.8073 30.2862 28.7998 30.616C28.7998 31.2391 28.688 31.7009 27.8973 31.7888C27.6437 31.7888 27.3453 32.1626 27.211 32.4265C27.072 32.6978 26.8788 32.9388 26.643 33.1353C26.4072 33.3317 26.1336 33.4795 25.8385 33.57C25.2567 33.7825 24.7047 34.0537 24.1229 34.3029C22.8996 34.7501 21.6688 35.1752 20.438 35.6076C20.438 35.6076 20.3858 35.5417 20.3112 35.4391C21.0571 34.772 21.6091 33.8925 22.8324 33.8631C23.3235 33.7707 23.792 33.5866 24.2124 33.3207C24.5982 33.0915 24.9966 32.8835 25.4059 32.6977C25.6666 32.6211 25.9069 32.4887 26.1094 32.31C26.3119 32.1313 26.4716 31.9108 26.577 31.6642C26.6367 31.5293 26.7237 31.4078 26.8327 31.307C26.9417 31.2062 27.0704 31.1282 27.211 31.0778C27.7257 30.9972 27.7929 30.726 27.8003 30.3008C27.8003 29.5166 28.0987 29.2234 28.9043 29.1281C29.0982 29.0988 29.2922 29.0988 29.6502 29.0694Z" fill="#0C130B"/>
<path d="M34.2375 21.9009V22.5752H34.0957C33.9988 22.1281 33.8794 21.681 33.8197 21.2265C33.7601 20.7721 33.5139 20.4936 32.9843 20.3763C30.7018 19.7826 29.1353 20.904 27.7255 22.3993C27.3875 22.7244 27.1832 23.1605 27.1515 23.6242C27.1199 24.0879 27.2632 24.5469 27.554 24.9134L27.7628 25.1993C28.8892 26.6653 28.8817 26.8925 27.2258 27.7574C26.3235 28.275 25.5431 28.9745 24.9358 29.8097C24.3774 30.6052 23.7042 31.3164 22.9369 31.9207C22.1546 32.3588 21.3057 32.6706 20.4229 32.8443C19.8594 33.0041 19.3386 33.284 18.8977 33.664C18.4567 34.0441 18.1065 34.515 17.8718 35.0432C16.656 37.3008 14.8881 37.704 12.7473 36.2014C11.7202 35.5098 10.9236 34.5358 10.4573 33.4014C10.4749 32.9846 10.5528 32.5725 10.6885 32.1773C11.0988 31.4443 11.621 30.7113 12.0983 30.0223C12.9263 28.7763 13.7991 27.5595 14.5748 26.2841C15.7872 24.1291 17.2599 22.1258 18.9609 20.3176C19.2654 19.9342 19.5492 19.5354 19.8112 19.1229C20.137 18.6467 20.5286 18.2175 20.9749 17.8475C21.8521 17.2776 22.761 16.7563 23.6975 16.2862C24.3092 15.9564 24.9507 15.6925 25.5772 15.392L26.0696 16.081C27.3451 16.081 27.6211 15.8538 27.6285 14.615C27.636 13.3763 27.6285 11.969 27.6285 10.6423C27.6285 10.437 27.8076 10.2391 27.912 10.0339L28.0761 10.1732L28.188 10.3198L28.3596 10.7449L28.5162 10.8988C28.6505 11.0967 28.7847 11.2873 28.9115 11.4852C30.216 12.8425 30.9536 14.632 30.9778 16.4988C30.9992 17.0813 31.0766 17.6605 31.209 18.2286C31.209 18.3899 31.4701 18.5072 31.6118 18.6464C31.7162 18.4778 31.9027 18.3166 31.9102 18.148C31.9549 17.3344 31.9549 16.5135 31.9624 15.6999H32.2533C32.4398 16.2936 32.6114 16.8873 32.8128 17.4737C32.941 17.9185 33.1056 18.3523 33.3051 18.771C33.8347 19.6946 34.4836 20.6695 34.2375 21.9009ZM23.6304 19.46C23.3917 18.8443 22.8845 19.2841 22.4891 19.1595C22.4555 18.943 22.4031 18.7296 22.3325 18.5218C22.3325 18.4339 22.1534 18.3899 22.0639 18.3239H21.773C21.1912 18.0674 20.7959 18.1114 20.5124 18.8004C20.2334 19.471 19.8565 20.0982 19.3935 20.6621C18.9784 21.1729 18.6726 21.7608 18.4944 22.3906C18.3162 23.0204 18.2694 23.679 18.3567 24.327C18.4014 24.8035 18.6849 25.0161 19.1847 24.8255C19.4761 24.5882 19.8133 24.4113 20.1761 24.3055C20.5389 24.1997 20.9197 24.1671 21.2956 24.2098C21.9476 24.2395 22.5939 24.0788 23.153 23.748C23.5764 23.4229 23.9182 23.0068 24.1523 22.5315C24.3864 22.0563 24.5064 21.5346 24.5031 21.0066C24.5972 20.7447 24.5854 20.4573 24.4702 20.2037C24.355 19.95 24.1452 19.7495 23.884 19.6433L23.6304 19.46ZM14.642 30.9679C14.618 30.6152 14.4961 30.2757 14.2897 29.9863C14.0832 29.6968 13.8 29.4685 13.4709 29.326C13.3217 29.326 13.0382 29.3993 13.0009 29.5092C12.7662 30.184 12.5719 30.8718 12.4191 31.5689C12.4191 31.6715 12.7398 31.994 12.8517 31.9647C13.3288 31.8459 13.7896 31.6712 14.2242 31.4443C14.4331 31.3344 14.5674 31.0558 14.642 30.9679Z" fill="#54BE28"/>
<path d="M29.6502 26.3134L29.0012 25.5805C28.7344 25.3471 28.5338 25.0497 28.4189 24.7173C28.3039 24.3849 28.2787 24.0289 28.3456 23.6841C28.4125 23.3392 28.5692 23.0173 28.8004 22.7498C29.0317 22.4822 29.3296 22.2782 29.6651 22.1575C30.3923 21.8611 31.1401 21.6161 31.9029 21.4245C32.6488 21.2046 33.2232 21.5051 33.1113 22.2674C32.9323 23.5135 33.626 23.99 34.536 24.525C36.6395 25.7564 37.1542 27.5669 36.1248 29.7805C35.2958 31.4242 34.0846 32.853 32.5891 33.9512C30.6423 35.4831 28.6208 36.9271 26.5695 38.3491C25.3206 39.3143 23.7638 39.813 22.176 39.7564C21.9051 39.7114 21.64 39.6377 21.3853 39.5365C21.7878 39.1744 22.2428 38.873 22.7354 38.6423C24.3317 38.1732 25.5028 37.103 26.7336 36.1135C26.9006 35.9857 27.0806 35.8752 27.2707 35.7836C28.315 35.2046 29.3518 34.6109 30.4185 34.0685C32.4772 33.0203 32.3952 30.8067 31.873 29.392C31.3956 28.1826 30.8661 26.9658 29.6502 26.3134Z" fill="#54BD28"/>
<path d="M29.6502 29.0694C29.3071 29.0694 29.1128 29.0695 28.904 29.1208C28.0984 29.2161 27.8075 29.5092 27.8 30.2935C27.8 30.7187 27.7254 30.9899 27.2107 31.0705C27.0701 31.1209 26.9414 31.1989 26.8324 31.2997C26.7234 31.4005 26.6364 31.522 26.5767 31.6569C26.4713 31.9035 26.3116 32.124 26.1091 32.3027C25.9066 32.4814 25.6663 32.6138 25.4056 32.6904C24.9963 32.8762 24.5979 33.0842 24.2121 33.3134C23.7916 33.5793 23.3232 33.7634 22.8321 33.8558C21.6088 33.8558 21.0494 34.7647 20.3109 35.4317C20.3855 35.5344 20.4228 35.6003 20.4377 35.6003C21.6685 35.1679 22.8993 34.7427 24.1226 34.2956C24.7044 34.0831 25.2564 33.8119 25.8382 33.5626C26.1333 33.4722 26.4069 33.3244 26.6427 33.128C26.8785 32.9315 27.0717 32.6905 27.2107 32.4192C27.345 32.1553 27.6433 31.8108 27.897 31.7815C28.6876 31.6935 28.7921 31.2318 28.7995 30.6087C28.7995 30.2569 28.7995 29.9124 29.3366 29.8757C30.1348 29.7951 30.4182 29.9857 30.187 30.748C30.0055 31.4371 29.6458 32.0683 29.1427 32.5804C28.235 33.3361 27.2809 34.0362 26.2858 34.6768L23.2275 36.8757C23.0559 37.0003 22.8918 37.1249 22.7128 37.2422C20.5272 38.6275 19.826 37.9019 18.5281 36.1134C18.4985 36.0541 18.4831 35.9889 18.4831 35.9228C18.4831 35.8568 18.4985 35.7916 18.5281 35.7323C18.7495 35.1894 19.0945 34.7036 19.5368 34.3123C19.979 33.9209 20.5067 33.6344 21.0792 33.4747C22.2238 33.1682 23.3224 32.7147 24.3464 32.126C24.8919 31.7248 25.3297 31.199 25.6219 30.5941C25.8496 30.1155 26.172 29.6862 26.5703 29.3313C26.9686 28.9765 27.4348 28.7031 27.9417 28.5271C28.2491 28.4408 28.5756 28.4462 28.8798 28.5428C29.184 28.6394 29.4524 28.8227 29.6502 29.0694Z" fill="#F1F1F0"/>
<path d="M25.5922 15.3553C24.9657 15.6558 24.3242 15.9196 23.7125 16.2495C22.776 16.7196 21.8671 17.2408 20.9899 17.8107C20.5436 18.1807 20.152 18.61 19.8262 19.0861C19.5642 19.4987 19.2804 19.8975 18.9759 20.2809C17.2749 22.0891 15.8022 24.0924 14.5898 26.2474C13.8439 27.5228 12.9413 28.7395 12.1133 29.9856C11.6359 30.7186 11.1138 31.3929 10.7035 32.1405C10.5678 32.5357 10.4899 32.9479 10.4723 33.3646C9.93523 32.7929 10.1068 32.2138 10.3679 31.5615C13.0905 24.6934 17.7376 19.35 23.7946 15.0914C24.5405 14.5856 25.2417 14.0652 25.9577 13.5521L26.1517 13.6401L25.5922 15.3553Z" fill="#78C254"/>
<path d="M29.6502 26.3134C30.881 26.9658 31.4105 28.1825 31.8432 29.326C32.3653 30.7406 32.4474 32.9542 30.3886 34.0024C29.3219 34.5448 28.2851 35.1385 27.2408 35.7176C27.0507 35.8091 26.8708 35.9196 26.7037 36.0474C25.473 37.0369 24.3018 38.1071 22.7056 38.5762C22.213 38.807 21.758 39.1083 21.3554 39.4704L20.893 39.1699C24.0035 37.5207 26.5844 35.2998 29.3145 33.3061C29.5606 33.1228 29.8068 32.9396 30.0604 32.749C30.3882 32.4583 30.6502 32.1032 30.8295 31.7068C31.0088 31.3103 31.1015 30.8813 31.1015 30.4474C31.1015 30.0136 31.0088 29.5846 30.8295 29.1881C30.6502 28.7916 30.3882 28.4366 30.0604 28.1459C29.8558 28.013 29.6384 27.9001 29.4114 27.8087L29.6502 26.3134Z" fill="#76C253"/>
<path d="M27.9486 10.0118C27.8443 10.217 27.6653 10.4149 27.6653 10.6202C27.6653 11.9469 27.6653 13.2736 27.6653 14.5929C27.6653 15.9123 27.382 16.0589 26.1071 16.0589C26.8526 15.4285 26.8004 14.5196 26.9197 13.6914C27.1136 12.3133 27.2254 10.928 27.3895 9.3521L27.9486 10.0118Z" fill="#74BE51"/>
<path d="M34.2375 21.9009C34.4835 20.6695 33.8343 19.7019 33.2974 18.683C33.0981 18.2643 32.9336 17.8304 32.8054 17.3856C32.6041 16.7993 32.4326 16.2055 32.2462 15.6118C32.8501 16.4841 33.5137 17.3197 34.0356 18.2359C34.4288 19.0206 34.7724 19.8284 35.0645 20.6547L34.2375 21.9009Z" fill="#74BE51"/>
<path d="M35.304 22.949C35.5053 22.1354 35.5948 22.0915 36.3329 22.4286C36.5044 22.5093 36.6759 22.5899 36.8474 22.6558C37.9136 23.0956 38.0179 23.8433 37.0934 24.5469C36.9551 24.6314 36.8085 24.7002 36.6545 24.7522C36.5768 24.3731 36.4148 24.0153 36.1817 23.7038C35.9486 23.3924 35.649 23.1348 35.304 22.949Z" fill="#78C254"/>
<path d="M24.369 10.8475C24.6449 11.2506 24.8986 11.6685 25.1968 12.057C25.7411 12.7899 25.7337 13.0025 25.0477 13.6329C24.8841 13.7609 24.7123 13.8784 24.5333 13.9847C24.3842 13.6548 24.1008 13.325 24.1083 12.9952C24.1507 12.2747 24.2376 11.5575 24.369 10.8475Z" fill="#5CB72A"/>
<path d="M38.2054 28.7543H38.1532C37.8027 28.4977 37.4076 28.2705 37.5343 27.7208C37.6835 27.171 37.8251 26.6213 37.9817 26.0642C39.1 26.7093 39.4728 27.2297 38.7273 28.2632C38.7273 28.3072 38.7273 28.3951 38.7273 28.4611C38.6751 28.5124 38.6229 28.5564 38.5781 28.6077L38.2054 28.7543Z" fill="#54BE28"/>
<path d="M38.6973 28.4609C38.6973 28.395 38.6973 28.307 38.6973 28.263C39.4429 27.2222 39.0924 26.7018 37.9517 26.0641C37.7951 26.6211 37.6535 27.1709 37.5044 27.7206C37.5114 27.1637 37.5563 26.6078 37.6386 26.0567C37.6816 25.9205 37.7577 25.7966 37.8603 25.6957C37.963 25.5948 38.089 25.52 38.2276 25.4777C38.3707 25.4869 38.509 25.5322 38.6291 25.6093C38.7493 25.6863 38.8472 25.7924 38.9135 25.9175C39.0529 26.6104 39.1253 27.3148 39.1297 28.0211C39.1521 28.1604 38.8539 28.3143 38.6973 28.4609Z" fill="#6BAC49"/>
<path d="M35.304 22.949C35.649 23.1348 35.9486 23.3924 36.1817 23.7038C36.4148 24.0153 36.5768 24.3731 36.6545 24.7522C35.1558 24.3857 34.9983 24.1731 35.304 22.949Z" fill="#5CB72A"/>
<path d="M24.369 10.8475C24.2376 11.5575 24.1507 12.2747 24.1083 12.9952C24.1083 13.325 24.3842 13.6548 24.5333 13.9847L23.8762 14.4097V10.2684L24.0626 10.2171L24.369 10.8475Z" fill="#74C061"/>
<path d="M37.5052 27.75C37.3561 28.2997 37.7736 28.527 38.124 28.7835C37.878 28.7102 37.4903 28.7029 37.3784 28.5563C37.2666 28.4097 37.4679 28.0212 37.5052 27.75Z" fill="#6BAC49"/>
<path d="M28.9046 11.4339C28.7779 11.236 28.6437 11.0454 28.5095 10.8475C28.6511 11.0454 28.7853 11.236 28.9046 11.4339Z" fill="#74BE51"/>
<path d="M32.2535 15.617H31.9627C31.9627 15.5371 32.0223 15.4572 32.0447 15.3773L32.2535 15.617Z" fill="#74BE51"/>
<path d="M38.5338 28.5916C38.5781 28.5408 38.6299 28.4972 38.6816 28.4463C38.7333 28.3955 38.6003 28.5408 38.5338 28.5916Z" fill="#6BAC49"/>
<path d="M24.5111 20.9699C24.5143 21.4978 24.3943 22.0195 24.1603 22.4948C23.9262 22.97 23.5843 23.3862 23.1609 23.7112C22.6018 24.042 21.9555 24.2027 21.3036 24.173C20.9277 24.1304 20.5468 24.163 20.184 24.2688C19.8212 24.3746 19.484 24.5515 19.1926 24.7887C19.1031 24.4076 18.842 23.9751 18.9465 23.6599C19.6029 21.7322 20.1549 19.7311 21.781 18.3018H22.0719L22.4971 19.1374L23.6383 19.438L23.9293 19.5992L24.5111 20.9699ZM20.9679 23.8065C21.5509 23.7948 22.1188 23.6223 22.6068 23.3086C23.0948 22.995 23.4833 22.5529 23.7279 22.0327C23.8521 21.7539 23.8935 21.4463 23.8473 21.1454C23.8011 20.8445 23.6692 20.5626 23.4668 20.3322C23.064 19.8264 22.512 19.995 22.0197 20.1123C21.7466 20.1818 21.5082 20.3457 21.3483 20.5741C20.8949 21.228 20.4958 21.9168 20.1549 22.6338C19.7371 23.55 19.9535 23.7992 20.9679 23.8065Z" fill="#0A1309"/>
<path d="M21.781 18.3018C20.1549 19.7678 19.6029 21.7322 18.9465 23.6599C18.842 23.9751 19.1031 24.3929 19.1926 24.7887C18.6928 24.9793 18.4468 24.7887 18.3647 24.2903C18.2774 23.6423 18.3243 22.9836 18.5024 22.3538C18.6806 21.7241 18.9864 21.1361 19.4016 20.6254C19.8645 20.0615 20.2415 19.4343 20.5205 18.7636C20.8039 18.0893 21.1992 18.0453 21.781 18.3018Z" fill="#74BE51"/>
<path d="M14.642 30.9679C14.5674 31.0558 14.4331 31.3344 14.2242 31.4443C13.7896 31.6712 13.3288 31.8459 12.8517 31.9647C12.7399 31.9647 12.3967 31.6715 12.4191 31.5689C12.5719 30.8718 12.7662 30.184 13.0009 29.5092C13.0009 29.3993 13.3217 29.304 13.4709 29.326C13.8 29.4685 14.0832 29.6968 14.2897 29.9863C14.4961 30.2757 14.618 30.6152 14.642 30.9679Z" fill="#0A1309"/>
<path d="M24.5096 20.9699L23.8908 19.6066C24.1519 19.7127 24.3616 19.9133 24.4767 20.167C24.5918 20.4206 24.6036 20.708 24.5096 20.9699Z" fill="#74BE51"/>
<path d="M22.4959 19.1668L22.0709 18.3312C22.1604 18.3971 22.3021 18.4411 22.3393 18.5291C22.4099 18.7369 22.4623 18.9502 22.4959 19.1668Z" fill="#74BE51"/>
<path d="M23.6304 19.46L22.4891 19.1595C22.8619 19.2841 23.3918 18.8443 23.6304 19.46Z" fill="#74BE51"/>
<path d="M20.9679 23.8065C19.946 23.8065 19.7371 23.55 20.1549 22.6338C20.4958 21.9168 20.8949 21.228 21.3483 20.5741C21.5082 20.3457 21.7466 20.1818 22.0197 20.1123C22.512 19.995 23.064 19.8264 23.4668 20.3322C23.6692 20.5626 23.8011 20.8445 23.8473 21.1454C23.8935 21.4463 23.8521 21.7539 23.7279 22.0327C23.4833 22.5529 23.0948 22.995 22.6068 23.3086C22.1188 23.6223 21.5509 23.7948 20.9679 23.8065Z" fill="#F5F5F5"/>
</svg>
