<svg width="50" height="50" viewBox="0 0 50 50" fill="none" xmlns="http://www.w3.org/2000/svg">
<path d="M39 20.5C39 28.2327 32.7327 34.5 25 34.5C17.2673 34.5 11 28.2327 11 20.5C11 12.7673 17.2673 6.5 25 6.5C32.7327 6.5 39 12.7673 39 20.5Z" fill="#CC0000"/>
<path d="M31.6733 26.2552L26.0945 12.8554C25.9533 12.4847 25.6178 12.2552 25.2294 12.2552C24.841 12.2375 24.4879 12.4847 24.3467 12.8554L18.2383 27.5616H20.3215L22.7401 21.5061L29.9608 27.3498C30.2433 27.5969 30.4552 27.6852 30.7376 27.6852C31.2849 27.7028 31.7439 27.2615 31.7616 26.7142V26.6965C31.7616 26.52 31.7263 26.3788 31.6733 26.2552ZM25.2471 15.2564L28.8663 24.1896L23.3934 19.8819L25.2471 15.2564Z" fill="white"/>
<path d="M11.2363 41.0986V41.5029C11.2363 41.9834 11.1763 42.4141 11.0562 42.7949C10.936 43.1758 10.7632 43.4995 10.5376 43.7661C10.312 44.0327 10.041 44.2363 9.72461 44.377C9.41113 44.5176 9.05957 44.5879 8.66992 44.5879C8.29199 44.5879 7.94482 44.5176 7.62842 44.377C7.31494 44.2363 7.04248 44.0327 6.81104 43.7661C6.58252 43.4995 6.40527 43.1758 6.2793 42.7949C6.15332 42.4141 6.09033 41.9834 6.09033 41.5029V41.0986C6.09033 40.6182 6.15186 40.189 6.2749 39.811C6.40088 39.4302 6.57812 39.1064 6.80664 38.8398C7.03516 38.5703 7.30615 38.3652 7.61963 38.2246C7.93604 38.084 8.2832 38.0137 8.66113 38.0137C9.05078 38.0137 9.40234 38.084 9.71582 38.2246C10.0322 38.3652 10.3032 38.5703 10.5288 38.8398C10.7573 39.1064 10.9316 39.4302 11.0518 39.811C11.1748 40.189 11.2363 40.6182 11.2363 41.0986ZM10.397 41.5029V41.0898C10.397 40.709 10.3574 40.3721 10.2783 40.0791C10.2021 39.7861 10.0894 39.54 9.93994 39.3408C9.79053 39.1416 9.60742 38.9907 9.39062 38.8882C9.17676 38.7856 8.93359 38.7344 8.66113 38.7344C8.39746 38.7344 8.15869 38.7856 7.94482 38.8882C7.73389 38.9907 7.55225 39.1416 7.3999 39.3408C7.25049 39.54 7.13477 39.7861 7.05273 40.0791C6.9707 40.3721 6.92969 40.709 6.92969 41.0898V41.5029C6.92969 41.8867 6.9707 42.2266 7.05273 42.5225C7.13477 42.8154 7.25195 43.063 7.4043 43.2651C7.55957 43.4644 7.74268 43.6152 7.95361 43.7178C8.16748 43.8203 8.40625 43.8716 8.66992 43.8716C8.94531 43.8716 9.18994 43.8203 9.40381 43.7178C9.61768 43.6152 9.79785 43.4644 9.94434 43.2651C10.0938 43.063 10.2065 42.8154 10.2827 42.5225C10.3589 42.2266 10.397 41.8867 10.397 41.5029Z" fill="#1C1D1F"/>
<path d="M13.1963 40.6592V46.3281H12.3789V39.7451H13.126L13.1963 40.6592ZM16.3999 42.083V42.1753C16.3999 42.521 16.3589 42.8418 16.2769 43.1377C16.1948 43.4307 16.0747 43.6855 15.9165 43.9023C15.7612 44.1191 15.5693 44.2876 15.3408 44.4077C15.1123 44.5278 14.8501 44.5879 14.5542 44.5879C14.2524 44.5879 13.9858 44.5381 13.7544 44.4385C13.5229 44.3389 13.3267 44.1938 13.1655 44.0034C13.0044 43.813 12.8755 43.5845 12.7788 43.3179C12.6851 43.0513 12.6206 42.751 12.5854 42.417V41.9248C12.6206 41.5732 12.6865 41.2583 12.7832 40.98C12.8799 40.7017 13.0073 40.4644 13.1655 40.2681C13.3267 40.0688 13.5215 39.918 13.75 39.8154C13.9785 39.71 14.2422 39.6572 14.541 39.6572C14.8398 39.6572 15.105 39.7158 15.3364 39.833C15.5679 39.9473 15.7627 40.1113 15.9209 40.3252C16.0791 40.5391 16.1978 40.7954 16.2769 41.0942C16.3589 41.3901 16.3999 41.7197 16.3999 42.083ZM15.5825 42.1753V42.083C15.5825 41.8457 15.5576 41.623 15.5078 41.415C15.458 41.2041 15.3804 41.0195 15.2749 40.8613C15.1724 40.7002 15.0405 40.5742 14.8794 40.4834C14.7183 40.3896 14.5264 40.3428 14.3037 40.3428C14.0986 40.3428 13.9199 40.3779 13.7676 40.4482C13.6182 40.5186 13.4907 40.6138 13.3853 40.7339C13.2798 40.8511 13.1934 40.9858 13.126 41.1382C13.0615 41.2876 13.0132 41.4429 12.981 41.604V42.7422C13.0396 42.9473 13.1216 43.1406 13.2271 43.3223C13.3325 43.501 13.4731 43.646 13.6489 43.7573C13.8247 43.8657 14.0459 43.9199 14.3125 43.9199C14.5322 43.9199 14.7212 43.8745 14.8794 43.7837C15.0405 43.6899 15.1724 43.5625 15.2749 43.4014C15.3804 43.2402 15.458 43.0557 15.5078 42.8477C15.5576 42.6367 15.5825 42.4126 15.5825 42.1753Z" fill="#1C1D1F"/>
<path d="M19.4102 44.5879C19.0791 44.5879 18.7788 44.5322 18.5093 44.4209C18.2427 44.3066 18.0127 44.147 17.8193 43.9419C17.6289 43.7368 17.4824 43.4937 17.3799 43.2124C17.2773 42.9312 17.2261 42.6235 17.2261 42.2896V42.105C17.2261 41.7183 17.2832 41.374 17.3975 41.0723C17.5117 40.7676 17.667 40.5098 17.8633 40.2988C18.0596 40.0879 18.2822 39.9282 18.5312 39.8198C18.7803 39.7114 19.0381 39.6572 19.3047 39.6572C19.6445 39.6572 19.9375 39.7158 20.1836 39.833C20.4326 39.9502 20.6362 40.1143 20.7944 40.3252C20.9526 40.5332 21.0698 40.7793 21.146 41.0635C21.2222 41.3447 21.2603 41.6523 21.2603 41.9863V42.3511H17.7095V41.6875H20.4473V41.626C20.4355 41.415 20.3916 41.21 20.3154 41.0107C20.2422 40.8115 20.125 40.6475 19.9639 40.5186C19.8027 40.3896 19.583 40.3252 19.3047 40.3252C19.1201 40.3252 18.9502 40.3647 18.7949 40.4438C18.6396 40.52 18.5063 40.6343 18.395 40.7866C18.2837 40.939 18.1973 41.125 18.1357 41.3447C18.0742 41.5645 18.0435 41.8179 18.0435 42.105V42.2896C18.0435 42.5151 18.0742 42.7275 18.1357 42.9268C18.2002 43.123 18.2925 43.2959 18.4126 43.4453C18.5356 43.5947 18.6836 43.7119 18.8564 43.7969C19.0322 43.8818 19.2314 43.9243 19.4541 43.9243C19.7412 43.9243 19.9844 43.8657 20.1836 43.7485C20.3828 43.6313 20.5571 43.4746 20.7065 43.2783L21.1987 43.6694C21.0962 43.8247 20.9658 43.9727 20.8076 44.1133C20.6494 44.2539 20.4546 44.3682 20.2231 44.4561C19.9946 44.5439 19.7236 44.5879 19.4102 44.5879Z" fill="#1C1D1F"/>
<path d="M23.0225 40.7603V44.5H22.2095V39.7451H22.9785L23.0225 40.7603ZM22.8291 41.9424L22.4907 41.9292C22.4937 41.604 22.542 41.3037 22.6357 41.0283C22.7295 40.75 22.8613 40.5083 23.0312 40.3032C23.2012 40.0981 23.4033 39.9399 23.6377 39.8286C23.875 39.7144 24.1372 39.6572 24.4243 39.6572C24.6587 39.6572 24.8696 39.6895 25.0571 39.7539C25.2446 39.8154 25.4043 39.915 25.5361 40.0527C25.6709 40.1904 25.7734 40.3691 25.8438 40.5889C25.9141 40.8057 25.9492 41.0708 25.9492 41.3843V44.5H25.1318V41.3755C25.1318 41.1265 25.0952 40.9272 25.022 40.7778C24.9487 40.6255 24.8418 40.5156 24.7012 40.4482C24.5605 40.3779 24.3877 40.3428 24.1826 40.3428C23.9805 40.3428 23.7959 40.3853 23.6289 40.4702C23.4648 40.5552 23.3228 40.6724 23.2026 40.8218C23.0854 40.9712 22.9932 41.1426 22.9258 41.3359C22.8613 41.5264 22.8291 41.7285 22.8291 41.9424Z" fill="#1C1D1F"/>
<path d="M29.9526 43.2388C29.9526 43.1216 29.9263 43.0132 29.8735 42.9136C29.8237 42.811 29.7197 42.7188 29.5615 42.6367C29.4062 42.5518 29.1719 42.4785 28.8584 42.417C28.5947 42.3613 28.356 42.2954 28.1421 42.2192C27.9312 42.1431 27.751 42.0508 27.6016 41.9424C27.4551 41.834 27.3423 41.7065 27.2632 41.5601C27.1841 41.4136 27.1445 41.2422 27.1445 41.0459C27.1445 40.8584 27.1855 40.6812 27.2676 40.5142C27.3525 40.3472 27.4712 40.1992 27.6235 40.0703C27.7788 39.9414 27.9648 39.8403 28.1816 39.7671C28.3984 39.6938 28.6401 39.6572 28.9067 39.6572C29.2876 39.6572 29.6128 39.7246 29.8823 39.8594C30.1519 39.9941 30.3584 40.1743 30.502 40.3999C30.6455 40.6226 30.7173 40.8701 30.7173 41.1426H29.9043C29.9043 41.0107 29.8647 40.8833 29.7856 40.7603C29.7095 40.6343 29.5967 40.5303 29.4473 40.4482C29.3008 40.3662 29.1206 40.3252 28.9067 40.3252C28.6812 40.3252 28.498 40.3604 28.3574 40.4307C28.2197 40.498 28.1187 40.5845 28.0542 40.6899C27.9927 40.7954 27.9619 40.9067 27.9619 41.0239C27.9619 41.1118 27.9766 41.1909 28.0059 41.2612C28.0381 41.3286 28.0938 41.3916 28.1729 41.4502C28.252 41.5059 28.3633 41.5586 28.5068 41.6084C28.6504 41.6582 28.8335 41.708 29.0562 41.7578C29.4458 41.8457 29.7666 41.9512 30.0186 42.0742C30.2705 42.1973 30.458 42.3481 30.5811 42.5269C30.7041 42.7056 30.7656 42.9224 30.7656 43.1772C30.7656 43.3853 30.7217 43.5757 30.6338 43.7485C30.5488 43.9214 30.4243 44.0708 30.2603 44.1968C30.0991 44.3198 29.9058 44.4165 29.6802 44.4868C29.4575 44.5542 29.207 44.5879 28.9287 44.5879C28.5098 44.5879 28.1553 44.5132 27.8652 44.3638C27.5752 44.2144 27.3555 44.021 27.2061 43.7837C27.0566 43.5464 26.9819 43.2959 26.9819 43.0322H27.7993C27.811 43.2549 27.8755 43.4321 27.9927 43.564C28.1099 43.6929 28.2534 43.7852 28.4233 43.8408C28.5933 43.8936 28.7617 43.9199 28.9287 43.9199C29.1514 43.9199 29.3374 43.8906 29.4868 43.832C29.6392 43.7734 29.7549 43.6929 29.834 43.5903C29.9131 43.4878 29.9526 43.3706 29.9526 43.2388Z" fill="#1C1D1F"/>
<path d="M32.6465 37.75V44.5H31.8335V37.75H32.6465ZM32.4531 41.9424L32.1147 41.9292C32.1177 41.604 32.166 41.3037 32.2598 41.0283C32.3535 40.75 32.4854 40.5083 32.6553 40.3032C32.8252 40.0981 33.0273 39.9399 33.2617 39.8286C33.499 39.7144 33.7612 39.6572 34.0483 39.6572C34.2827 39.6572 34.4937 39.6895 34.6812 39.7539C34.8687 39.8154 35.0283 39.915 35.1602 40.0527C35.2949 40.1904 35.3975 40.3691 35.4678 40.5889C35.5381 40.8057 35.5732 41.0708 35.5732 41.3843V44.5H34.7559V41.3755C34.7559 41.1265 34.7192 40.9272 34.646 40.7778C34.5728 40.6255 34.4658 40.5156 34.3252 40.4482C34.1846 40.3779 34.0117 40.3428 33.8066 40.3428C33.6045 40.3428 33.4199 40.3853 33.2529 40.4702C33.0889 40.5552 32.9468 40.6724 32.8267 40.8218C32.7095 40.9712 32.6172 41.1426 32.5498 41.3359C32.4854 41.5264 32.4531 41.7285 32.4531 41.9424Z" fill="#1C1D1F"/>
<path d="M37.6738 39.7451V44.5H36.8564V39.7451H37.6738ZM36.7949 38.4839C36.7949 38.3521 36.8345 38.2407 36.9136 38.1499C36.9956 38.0591 37.1157 38.0137 37.2739 38.0137C37.4292 38.0137 37.5479 38.0591 37.6299 38.1499C37.7148 38.2407 37.7573 38.3521 37.7573 38.4839C37.7573 38.6099 37.7148 38.7183 37.6299 38.8091C37.5479 38.897 37.4292 38.9409 37.2739 38.9409C37.1157 38.9409 36.9956 38.897 36.9136 38.8091C36.8345 38.7183 36.7949 38.6099 36.7949 38.4839Z" fill="#1C1D1F"/>
<path d="M40.1919 44.5H39.3789V39.2441C39.3789 38.9014 39.4404 38.6128 39.5635 38.3784C39.6895 38.1411 39.8696 37.9624 40.104 37.8423C40.3384 37.7192 40.6167 37.6577 40.939 37.6577C41.0327 37.6577 41.1265 37.6636 41.2202 37.6753C41.3169 37.687 41.4106 37.7046 41.5015 37.728L41.4575 38.3916C41.396 38.377 41.3257 38.3667 41.2466 38.3608C41.1704 38.355 41.0942 38.3521 41.0181 38.3521C40.8452 38.3521 40.6958 38.3872 40.5698 38.4575C40.4468 38.5249 40.353 38.6245 40.2886 38.7563C40.2241 38.8882 40.1919 39.0508 40.1919 39.2441V44.5ZM41.2026 39.7451V40.3691H38.6274V39.7451H41.2026Z" fill="#1C1D1F"/>
<path d="M44.0986 39.7451V40.3691H41.5278V39.7451H44.0986ZM42.3979 38.5894H43.2109V43.3223C43.2109 43.4834 43.2358 43.605 43.2856 43.687C43.3354 43.769 43.3999 43.8232 43.479 43.8496C43.5581 43.876 43.6431 43.8892 43.7339 43.8892C43.8013 43.8892 43.8716 43.8833 43.9448 43.8716C44.021 43.8569 44.0781 43.8452 44.1162 43.8364L44.1206 44.5C44.0562 44.5205 43.9712 44.5396 43.8657 44.5571C43.7632 44.5776 43.6387 44.5879 43.4922 44.5879C43.293 44.5879 43.1099 44.5483 42.9429 44.4692C42.7759 44.3901 42.6426 44.2583 42.543 44.0737C42.4463 43.8862 42.3979 43.6343 42.3979 43.3179V38.5894Z" fill="#1C1D1F"/>
</svg>
