<svg width="50" height="50" viewBox="0 0 50 50" fill="none" xmlns="http://www.w3.org/2000/svg">
<rect width="50" height="50" fill="#CC0000"/>
<path d="M39 20.5C39 28.2327 32.7327 34.5 25 34.5C17.2673 34.5 11 28.2327 11 20.5C11 12.7673 17.2673 6.5 25 6.5C32.7327 6.5 39 12.7673 39 20.5Z" fill="white"/>
<path d="M31.6733 26.2552L26.0945 12.8554C25.9533 12.4847 25.6178 12.2552 25.2294 12.2552C24.841 12.2375 24.4879 12.4847 24.3467 12.8554L18.2383 27.5616H20.3215L22.7402 21.5061L29.9608 27.3498C30.2433 27.5969 30.4552 27.6852 30.7376 27.6852C31.2849 27.7028 31.7439 27.2615 31.7616 26.7142V26.6965C31.7616 26.52 31.7263 26.3788 31.6733 26.2552ZM25.2471 15.2564L28.8663 24.1896L23.3934 19.8819L25.2471 15.2564Z" fill="#CC0000"/>
<path d="M11.2358 41.0986V41.5029C11.2358 41.9834 11.1758 42.4141 11.0557 42.7949C10.9355 43.1758 10.7627 43.4995 10.5371 43.7661C10.3115 44.0327 10.0405 44.2363 9.72412 44.377C9.41064 44.5176 9.05908 44.5879 8.66943 44.5879C8.2915 44.5879 7.94434 44.5176 7.62793 44.377C7.31445 44.2363 7.04199 44.0327 6.81055 43.7661C6.58203 43.4995 6.40479 43.1758 6.27881 42.7949C6.15283 42.4141 6.08984 41.9834 6.08984 41.5029V41.0986C6.08984 40.6182 6.15137 40.189 6.27441 39.811C6.40039 39.4302 6.57764 39.1064 6.80615 38.8398C7.03467 38.5703 7.30566 38.3652 7.61914 38.2246C7.93555 38.084 8.28271 38.0137 8.66064 38.0137C9.05029 38.0137 9.40186 38.084 9.71533 38.2246C10.0317 38.3652 10.3027 38.5703 10.5283 38.8398C10.7568 39.1064 10.9312 39.4302 11.0513 39.811C11.1743 40.189 11.2358 40.6182 11.2358 41.0986ZM10.3965 41.5029V41.0898C10.3965 40.709 10.3569 40.3721 10.2778 40.0791C10.2017 39.7861 10.0889 39.54 9.93945 39.3408C9.79004 39.1416 9.60693 38.9907 9.39014 38.8882C9.17627 38.7856 8.93311 38.7344 8.66064 38.7344C8.39697 38.7344 8.1582 38.7856 7.94434 38.8882C7.7334 38.9907 7.55176 39.1416 7.39941 39.3408C7.25 39.54 7.13428 39.7861 7.05225 40.0791C6.97021 40.3721 6.9292 40.709 6.9292 41.0898V41.5029C6.9292 41.8867 6.97021 42.2266 7.05225 42.5225C7.13428 42.8154 7.25146 43.063 7.40381 43.2651C7.55908 43.4644 7.74219 43.6152 7.95312 43.7178C8.16699 43.8203 8.40576 43.8716 8.66943 43.8716C8.94482 43.8716 9.18945 43.8203 9.40332 43.7178C9.61719 43.6152 9.79736 43.4644 9.94385 43.2651C10.0933 43.063 10.2061 42.8154 10.2822 42.5225C10.3584 42.2266 10.3965 41.8867 10.3965 41.5029Z" fill="white"/>
<path d="M13.1958 40.6592V46.3281H12.3784V39.7451H13.1255L13.1958 40.6592ZM16.3994 42.083V42.1753C16.3994 42.521 16.3584 42.8418 16.2764 43.1377C16.1943 43.4307 16.0742 43.6855 15.916 43.9023C15.7607 44.1191 15.5688 44.2876 15.3403 44.4077C15.1118 44.5278 14.8496 44.5879 14.5537 44.5879C14.252 44.5879 13.9854 44.5381 13.7539 44.4385C13.5225 44.3389 13.3262 44.1938 13.165 44.0034C13.0039 43.813 12.875 43.5845 12.7783 43.3179C12.6846 43.0513 12.6201 42.751 12.585 42.417V41.9248C12.6201 41.5732 12.686 41.2583 12.7827 40.98C12.8794 40.7017 13.0068 40.4644 13.165 40.2681C13.3262 40.0688 13.521 39.918 13.7495 39.8154C13.978 39.71 14.2417 39.6572 14.5405 39.6572C14.8394 39.6572 15.1045 39.7158 15.3359 39.833C15.5674 39.9473 15.7622 40.1113 15.9204 40.3252C16.0786 40.5391 16.1973 40.7954 16.2764 41.0942C16.3584 41.3901 16.3994 41.7197 16.3994 42.083ZM15.582 42.1753V42.083C15.582 41.8457 15.5571 41.623 15.5073 41.415C15.4575 41.2041 15.3799 41.0195 15.2744 40.8613C15.1719 40.7002 15.04 40.5742 14.8789 40.4834C14.7178 40.3896 14.5259 40.3428 14.3032 40.3428C14.0981 40.3428 13.9194 40.3779 13.7671 40.4482C13.6177 40.5186 13.4902 40.6138 13.3848 40.7339C13.2793 40.8511 13.1929 40.9858 13.1255 41.1382C13.061 41.2876 13.0127 41.4429 12.9805 41.604V42.7422C13.0391 42.9473 13.1211 43.1406 13.2266 43.3223C13.332 43.501 13.4727 43.646 13.6484 43.7573C13.8242 43.8657 14.0454 43.9199 14.312 43.9199C14.5317 43.9199 14.7207 43.8745 14.8789 43.7837C15.04 43.6899 15.1719 43.5625 15.2744 43.4014C15.3799 43.2402 15.4575 43.0557 15.5073 42.8477C15.5571 42.6367 15.582 42.4126 15.582 42.1753Z" fill="white"/>
<path d="M19.4097 44.5879C19.0786 44.5879 18.7783 44.5322 18.5088 44.4209C18.2422 44.3066 18.0122 44.147 17.8188 43.9419C17.6284 43.7368 17.4819 43.4937 17.3794 43.2124C17.2769 42.9312 17.2256 42.6235 17.2256 42.2896V42.105C17.2256 41.7183 17.2827 41.374 17.397 41.0723C17.5112 40.7676 17.6665 40.5098 17.8628 40.2988C18.0591 40.0879 18.2817 39.9282 18.5308 39.8198C18.7798 39.7114 19.0376 39.6572 19.3042 39.6572C19.644 39.6572 19.937 39.7158 20.1831 39.833C20.4321 39.9502 20.6357 40.1143 20.7939 40.3252C20.9521 40.5332 21.0693 40.7793 21.1455 41.0635C21.2217 41.3447 21.2598 41.6523 21.2598 41.9863V42.3511H17.709V41.6875H20.4468V41.626C20.4351 41.415 20.3911 41.21 20.3149 41.0107C20.2417 40.8115 20.1245 40.6475 19.9634 40.5186C19.8022 40.3896 19.5825 40.3252 19.3042 40.3252C19.1196 40.3252 18.9497 40.3647 18.7944 40.4438C18.6392 40.52 18.5059 40.6343 18.3945 40.7866C18.2832 40.939 18.1968 41.125 18.1353 41.3447C18.0737 41.5645 18.043 41.8179 18.043 42.105V42.2896C18.043 42.5151 18.0737 42.7275 18.1353 42.9268C18.1997 43.123 18.292 43.2959 18.4121 43.4453C18.5352 43.5947 18.6831 43.7119 18.856 43.7969C19.0317 43.8818 19.231 43.9243 19.4536 43.9243C19.7407 43.9243 19.9839 43.8657 20.1831 43.7485C20.3823 43.6313 20.5566 43.4746 20.7061 43.2783L21.1982 43.6694C21.0957 43.8247 20.9653 43.9727 20.8071 44.1133C20.6489 44.2539 20.4541 44.3682 20.2227 44.4561C19.9941 44.5439 19.7231 44.5879 19.4097 44.5879Z" fill="white"/>
<path d="M23.022 40.7603V44.5H22.209V39.7451H22.978L23.022 40.7603ZM22.8286 41.9424L22.4902 41.9292C22.4932 41.604 22.5415 41.3037 22.6353 41.0283C22.729 40.75 22.8608 40.5083 23.0308 40.3032C23.2007 40.0981 23.4028 39.9399 23.6372 39.8286C23.8745 39.7144 24.1367 39.6572 24.4238 39.6572C24.6582 39.6572 24.8691 39.6895 25.0566 39.7539C25.2441 39.8154 25.4038 39.915 25.5356 40.0527C25.6704 40.1904 25.7729 40.3691 25.8433 40.5889C25.9136 40.8057 25.9487 41.0708 25.9487 41.3843V44.5H25.1313V41.3755C25.1313 41.1265 25.0947 40.9272 25.0215 40.7778C24.9482 40.6255 24.8413 40.5156 24.7007 40.4482C24.5601 40.3779 24.3872 40.3428 24.1821 40.3428C23.98 40.3428 23.7954 40.3853 23.6284 40.4702C23.4644 40.5552 23.3223 40.6724 23.2021 40.8218C23.085 40.9712 22.9927 41.1426 22.9253 41.3359C22.8608 41.5264 22.8286 41.7285 22.8286 41.9424Z" fill="white"/>
<path d="M29.9521 43.2388C29.9521 43.1216 29.9258 43.0132 29.873 42.9136C29.8232 42.811 29.7192 42.7188 29.561 42.6367C29.4058 42.5518 29.1714 42.4785 28.8579 42.417C28.5942 42.3613 28.3555 42.2954 28.1416 42.2192C27.9307 42.1431 27.7505 42.0508 27.6011 41.9424C27.4546 41.834 27.3418 41.7065 27.2627 41.5601C27.1836 41.4136 27.144 41.2422 27.144 41.0459C27.144 40.8584 27.1851 40.6812 27.2671 40.5142C27.3521 40.3472 27.4707 40.1992 27.623 40.0703C27.7783 39.9414 27.9644 39.8403 28.1812 39.7671C28.3979 39.6938 28.6396 39.6572 28.9062 39.6572C29.2871 39.6572 29.6123 39.7246 29.8818 39.8594C30.1514 39.9941 30.3579 40.1743 30.5015 40.3999C30.645 40.6226 30.7168 40.8701 30.7168 41.1426H29.9038C29.9038 41.0107 29.8643 40.8833 29.7852 40.7603C29.709 40.6343 29.5962 40.5303 29.4468 40.4482C29.3003 40.3662 29.1201 40.3252 28.9062 40.3252C28.6807 40.3252 28.4976 40.3604 28.3569 40.4307C28.2192 40.498 28.1182 40.5845 28.0537 40.6899C27.9922 40.7954 27.9614 40.9067 27.9614 41.0239C27.9614 41.1118 27.9761 41.1909 28.0054 41.2612C28.0376 41.3286 28.0933 41.3916 28.1724 41.4502C28.2515 41.5059 28.3628 41.5586 28.5063 41.6084C28.6499 41.6582 28.833 41.708 29.0557 41.7578C29.4453 41.8457 29.7661 41.9512 30.0181 42.0742C30.27 42.1973 30.4575 42.3481 30.5806 42.5269C30.7036 42.7056 30.7651 42.9224 30.7651 43.1772C30.7651 43.3853 30.7212 43.5757 30.6333 43.7485C30.5483 43.9214 30.4238 44.0708 30.2598 44.1968C30.0986 44.3198 29.9053 44.4165 29.6797 44.4868C29.457 44.5542 29.2065 44.5879 28.9282 44.5879C28.5093 44.5879 28.1548 44.5132 27.8647 44.3638C27.5747 44.2144 27.355 44.021 27.2056 43.7837C27.0562 43.5464 26.9814 43.2959 26.9814 43.0322H27.7988C27.8105 43.2549 27.875 43.4321 27.9922 43.564C28.1094 43.6929 28.2529 43.7852 28.4229 43.8408C28.5928 43.8936 28.7612 43.9199 28.9282 43.9199C29.1509 43.9199 29.3369 43.8906 29.4863 43.832C29.6387 43.7734 29.7544 43.6929 29.8335 43.5903C29.9126 43.4878 29.9521 43.3706 29.9521 43.2388Z" fill="white"/>
<path d="M32.646 37.75V44.5H31.833V37.75H32.646ZM32.4526 41.9424L32.1143 41.9292C32.1172 41.604 32.1655 41.3037 32.2593 41.0283C32.353 40.75 32.4849 40.5083 32.6548 40.3032C32.8247 40.0981 33.0269 39.9399 33.2612 39.8286C33.4985 39.7144 33.7607 39.6572 34.0479 39.6572C34.2822 39.6572 34.4932 39.6895 34.6807 39.7539C34.8682 39.8154 35.0278 39.915 35.1597 40.0527C35.2944 40.1904 35.397 40.3691 35.4673 40.5889C35.5376 40.8057 35.5728 41.0708 35.5728 41.3843V44.5H34.7554V41.3755C34.7554 41.1265 34.7188 40.9272 34.6455 40.7778C34.5723 40.6255 34.4653 40.5156 34.3247 40.4482C34.1841 40.3779 34.0112 40.3428 33.8062 40.3428C33.604 40.3428 33.4194 40.3853 33.2524 40.4702C33.0884 40.5552 32.9463 40.6724 32.8262 40.8218C32.709 40.9712 32.6167 41.1426 32.5493 41.3359C32.4849 41.5264 32.4526 41.7285 32.4526 41.9424Z" fill="white"/>
<path d="M37.6733 39.7451V44.5H36.856V39.7451H37.6733ZM36.7944 38.4839C36.7944 38.3521 36.834 38.2407 36.9131 38.1499C36.9951 38.0591 37.1152 38.0137 37.2734 38.0137C37.4287 38.0137 37.5474 38.0591 37.6294 38.1499C37.7144 38.2407 37.7568 38.3521 37.7568 38.4839C37.7568 38.6099 37.7144 38.7183 37.6294 38.8091C37.5474 38.897 37.4287 38.9409 37.2734 38.9409C37.1152 38.9409 36.9951 38.897 36.9131 38.8091C36.834 38.7183 36.7944 38.6099 36.7944 38.4839Z" fill="white"/>
<path d="M40.1914 44.5H39.3784V39.2441C39.3784 38.9014 39.4399 38.6128 39.563 38.3784C39.689 38.1411 39.8691 37.9624 40.1035 37.8423C40.3379 37.7192 40.6162 37.6577 40.9385 37.6577C41.0322 37.6577 41.126 37.6636 41.2197 37.6753C41.3164 37.687 41.4102 37.7046 41.501 37.728L41.457 38.3916C41.3955 38.377 41.3252 38.3667 41.2461 38.3608C41.1699 38.355 41.0938 38.3521 41.0176 38.3521C40.8447 38.3521 40.6953 38.3872 40.5693 38.4575C40.4463 38.5249 40.3525 38.6245 40.2881 38.7563C40.2236 38.8882 40.1914 39.0508 40.1914 39.2441V44.5ZM41.2021 39.7451V40.3691H38.627V39.7451H41.2021Z" fill="white"/>
<path d="M44.0981 39.7451V40.3691H41.5273V39.7451H44.0981ZM42.3975 38.5894H43.2104V43.3223C43.2104 43.4834 43.2354 43.605 43.2852 43.687C43.335 43.769 43.3994 43.8232 43.4785 43.8496C43.5576 43.876 43.6426 43.8892 43.7334 43.8892C43.8008 43.8892 43.8711 43.8833 43.9443 43.8716C44.0205 43.8569 44.0776 43.8452 44.1157 43.8364L44.1201 44.5C44.0557 44.5205 43.9707 44.5396 43.8652 44.5571C43.7627 44.5776 43.6382 44.5879 43.4917 44.5879C43.2925 44.5879 43.1094 44.5483 42.9424 44.4692C42.7754 44.3901 42.6421 44.2583 42.5425 44.0737C42.4458 43.8862 42.3975 43.6343 42.3975 43.3179V38.5894Z" fill="white"/>
</svg>
