<svg width="50" height="50" viewBox="0 0 50 50" fill="none" xmlns="http://www.w3.org/2000/svg">
<path d="M12.2151 31.5647L9.36261 31.7057C8.55925 31.8356 8.14144 31.9881 8.41922 32.2564L14.2882 38.2264C14.3942 38.3312 14.5892 38.4085 14.8338 38.4598C15.2262 38.5438 15.7472 38.5535 16.2432 38.4739L19.7494 37.9634L12.2151 31.5647Z" fill="url(#paint0_linear_9176_14238)"/>
<path d="M15.359 38.2511L15.4981 38.1159L11.7141 34.4372L11.575 34.5729L15.359 38.2511Z" fill="black" fill-opacity="0.7"/>
<path d="M31.3926 26.2996V27.4868C31.3959 27.5449 31.3891 27.6032 31.3726 27.6592C31.3564 27.7715 31.3092 27.8774 31.2362 27.9659V27.9849C31.1967 28.0234 31.1771 28.0808 31.1376 28.1175C31.0966 28.1606 31.0508 28.1991 31.0012 28.2324C30.9616 28.2709 30.9025 28.2899 30.8648 28.3283C30.8288 28.3496 30.7884 28.3627 30.7466 28.3668C30.6679 28.3858 30.5888 28.4242 30.5102 28.4242L34.135 31.8524H34.3319C34.4106 31.8329 34.4897 31.8904 34.5288 31.8524L34.7261 31.6605C34.7456 31.6415 34.9034 31.4692 34.9229 31.4692C34.9425 31.4501 34.9229 31.2778 34.9229 31.2778C34.9229 31.2583 35.1003 31.1054 35.1198 31.0864V30.8963L34.9425 29.6897V29.7281L40.2418 29.2861L40.2618 29.2287L36.7311 25.8576L31.3926 26.2996Z" fill="url(#paint1_linear_9176_14238)"/>
<path d="M20.9719 33.0391L17.3666 29.5535L30.5058 28.4238L34.2094 31.8899L20.9719 33.0391Z" fill="#C32E24"/>
<path d="M17.4057 29.5726C17.2262 29.5967 17.0438 29.5558 16.8933 29.4576C16.8542 29.4196 16.7951 29.4002 16.7569 29.3622C17.8799 30.4345 18.9847 31.5072 20.1058 32.5795C20.1649 32.6369 20.2045 32.6944 20.2636 32.7519L20.3031 32.7903C20.3227 32.8093 20.3422 32.8093 20.3622 32.8288C20.3818 32.8288 20.3818 32.8478 20.4013 32.8478C20.404 32.8477 20.4065 32.8482 20.409 32.8491C20.4114 32.85 20.4136 32.8514 20.4155 32.8532C20.4173 32.8549 20.4188 32.8571 20.4198 32.8594C20.4208 32.8617 20.4214 32.8642 20.4214 32.8668C20.429 32.8742 20.4384 32.8797 20.4486 32.8831C20.4588 32.8865 20.4697 32.8875 20.4805 32.8862C20.5 32.8862 20.5396 32.9052 20.5591 32.9052C20.5617 32.9052 20.5643 32.9056 20.5667 32.9066C20.5691 32.9075 20.5712 32.9089 20.5731 32.9107C20.5749 32.9124 20.5763 32.9146 20.5773 32.9169C20.5783 32.9192 20.5787 32.9217 20.5787 32.9242H20.5987C20.6182 32.9242 20.6378 32.9437 20.6573 32.9437C20.668 32.9424 20.6788 32.9434 20.6891 32.9467C20.6993 32.95 20.7086 32.9554 20.7164 32.9627H20.9528L17.4057 29.5726Z" fill="url(#paint2_linear_9176_14238)"/>
<path d="M15.2195 37.9806C15.1999 37.9422 15.0421 37.8273 15.0226 37.7888C15.003 37.7504 15.0621 37.6359 15.0226 37.5974C15.003 37.559 14.668 36.9844 14.668 36.9654L11.1417 33.5757V33.6902C11.1417 33.7286 11.1613 33.7476 11.1613 33.7861C11.1613 33.8436 11.1808 33.882 11.1808 33.9395C11.1968 33.9828 11.2101 34.0271 11.2204 34.0721C11.2365 34.1177 11.2562 34.162 11.2795 34.2047L11.3386 34.3196C11.3575 34.3675 11.384 34.4123 11.4173 34.4522C11.4418 34.4738 11.4619 34.4997 11.4764 34.5287C11.5159 34.5671 11.5555 34.6246 11.5946 34.6613C11.5946 34.6613 5.43412 47.7315 15.2195 38.1663C15.1804 38.1336 15.259 38.0186 15.2195 37.9806Z" fill="#8A241C"/>
<path d="M16.5001 27.5814L11.1612 28.0233L11.1417 33.6155L14.8243 37.216V31.4709L20.025 30.9732L16.5001 27.5814Z" fill="#8A241C"/>
<path d="M40.2589 34.8203C40.2589 35.7207 39.4905 36.5247 38.5644 36.6016L16.3823 38.4977C15.4562 38.5742 14.6878 37.9037 14.6878 37.0038V31.4302L20.0267 30.971V32.1582C20.0267 32.6369 20.4209 32.9816 20.9133 32.9436L34.0525 31.8325C34.2933 31.8099 34.5171 31.7016 34.6807 31.5284C34.8444 31.3552 34.9364 31.1293 34.9391 30.8941V29.7069L40.2584 29.2472L40.2589 34.8203Z" fill="#D93023"/>
<path d="M40.2188 19.8244L40.2584 28.0407L34.9195 28.5003L34.8999 20.2841L40.2188 19.8244Z" fill="#E23535"/>
<path d="M40.2188 19.8244L36.6928 16.4343L31.3735 16.894L31.3935 25.1102L34.9195 28.5003L34.8999 20.2841L40.2188 19.8244Z" fill="#8A241C"/>
<path d="M19.9869 21.5482L20.0265 29.7644L14.6876 30.2241L14.6485 22.0079L19.9869 21.5482Z" fill="#E23535"/>
<path d="M19.9869 21.5482L16.4603 18.158L11.141 18.6177L11.1605 26.8339L14.6876 30.2241L14.6485 22.0079L19.9869 21.5482ZM34.9194 19.0584L31.3932 15.6683V14.634L34.9194 18.0241V19.0584Z" fill="#8A241C"/>
<path d="M34.9191 17.9667V17.9092C34.92 17.8824 34.9132 17.856 34.8995 17.8327C34.8995 17.8133 34.8795 17.7753 34.8795 17.7558C34.8795 17.7364 34.86 17.7178 34.86 17.6984C34.8404 17.6794 34.8404 17.6409 34.8204 17.6219C34.8004 17.6029 34.8009 17.5834 34.7813 17.5644C34.7544 17.5216 34.7212 17.4829 34.6827 17.4495C33.5006 16.3193 32.3385 15.1896 31.1565 14.0594C31.1956 14.0979 31.2156 14.1363 31.2547 14.1743V14.1938L31.3138 14.3087C31.3159 14.3232 31.3229 14.3365 31.3338 14.3467C31.3496 14.3762 31.3564 14.4095 31.3533 14.4426C31.3533 14.4616 31.3729 14.5001 31.3729 14.5191C31.3729 14.5575 31.3932 14.596 31.3932 14.634L34.9194 18.0241L34.9191 17.9667Z" fill="#82211A"/>
<path d="M36.988 9.40565C36.7516 9.17582 36.5152 8.94598 36.2788 8.73559L36.1405 8.60122C36.138 8.60128 36.1354 8.60083 36.133 8.5999C36.1306 8.59896 36.1284 8.59757 36.1266 8.59579C36.1248 8.59401 36.1233 8.59189 36.1224 8.58956C36.1214 8.58723 36.1209 8.58473 36.121 8.58222C36.1014 8.58222 36.1014 8.56321 36.0814 8.56321C36.0619 8.54376 36.0423 8.54376 36.0223 8.52476H36.0028C35.9632 8.50575 35.9437 8.4863 35.9041 8.4673H35.865C35.845 8.44829 35.8255 8.44829 35.8059 8.42884C35.7864 8.42884 35.7864 8.42884 35.7664 8.40984C35.7273 8.39083 35.7073 8.39083 35.6682 8.37138C35.6482 8.37138 35.6286 8.35238 35.6091 8.35238H35.55C35.5393 8.35369 35.5284 8.35267 35.5182 8.34938C35.508 8.34609 35.4986 8.34062 35.4909 8.33337H35.0362L12.875 10.1716L16.4012 13.5617L38.6034 11.6846H38.9184C38.9526 11.6816 38.9868 11.6883 39.0171 11.704C39.0278 11.7028 39.0386 11.7038 39.0488 11.7071C39.059 11.7104 39.0684 11.7158 39.0762 11.723H39.1153C39.1615 11.7332 39.2071 11.746 39.2517 11.7615H39.2712C39.3108 11.7805 39.3499 11.7805 39.3699 11.7995C39.3894 11.7995 39.409 11.8189 39.429 11.8189C39.4485 11.838 39.4881 11.838 39.5076 11.857C39.5103 11.8569 39.5129 11.8574 39.5153 11.8583C39.5177 11.8593 39.5199 11.8607 39.5218 11.8625C39.5236 11.8644 39.525 11.8665 39.526 11.8689C39.5269 11.8713 39.5273 11.8739 39.5272 11.8764C39.5472 11.8954 39.5668 11.8954 39.5863 11.9144C39.6058 11.9334 39.6259 11.9339 39.6454 11.9529L39.685 11.9913C39.7245 12.0293 39.7636 12.0488 39.7836 12.0868C38.8771 11.2059 37.9318 10.306 36.9862 9.40565H36.988Z" fill="url(#paint3_linear_9176_14238)"/>
<path d="M12.54 10.2281C12.4452 10.2515 12.353 10.2837 12.2644 10.324C12.2444 10.343 12.2053 10.343 12.1853 10.3624H12.1658C12.0867 10.3952 12.0135 10.4399 11.9489 10.495C11.9294 10.495 11.9294 10.514 11.9098 10.5335C11.8903 10.5529 11.8507 10.5715 11.8307 10.591L11.5747 10.8398C11.5552 10.8588 11.5352 10.8973 11.5156 10.9163C11.5156 10.9357 11.4961 10.9357 11.4961 10.9547L11.4761 10.9737C11.4761 10.9763 11.4757 10.9788 11.4747 10.9811C11.4738 10.9835 11.4723 10.9856 11.4705 10.9874C11.4687 10.9893 11.4665 10.9907 11.4641 10.9917C11.4617 10.9927 11.4591 10.9932 11.4565 10.9932C11.4301 11.044 11.4039 11.095 11.3779 11.1461C11.3579 11.1655 11.3579 11.2036 11.3383 11.223C11.3383 11.261 11.3188 11.28 11.3188 11.2995C11.2988 11.3375 11.2988 11.3569 11.2792 11.3949C11.2792 11.4334 11.2597 11.4524 11.2597 11.4909V11.5868C11.2597 11.6248 11.2397 11.6632 11.2397 11.7017V11.8343L11.2183 17.2761L14.7445 20.6662L14.7645 15.2651C14.7679 15.1493 14.781 15.034 14.8036 14.9203C14.8036 14.9203 14.8627 14.7099 14.9023 14.614C14.9023 14.595 14.9023 14.595 14.9218 14.5755C14.9449 14.5191 14.9783 14.4673 15.0205 14.4226C15.0814 14.354 15.1478 14.2903 15.2192 14.2321C15.2983 14.1556 15.3374 14.0995 15.4165 14.0407C15.4956 13.9819 15.5738 13.9448 15.6134 13.8493C15.692 13.8874 15.9875 13.677 16.0071 13.658C16.2044 13.658 16.3617 13.677 16.5981 13.658L12.875 10.1716C12.7568 10.1911 12.6386 10.2104 12.54 10.2294V10.2281Z" fill="url(#paint4_linear_9176_14238)"/>
<path d="M16.4012 13.5617L38.5834 11.6846C39.5095 11.6081 40.2779 12.2786 40.2779 13.1785L40.2383 18.5987L34.919 19.0407V18.0069C34.919 17.5278 34.5248 17.183 34.0324 17.2215L20.8931 18.3322C20.6525 18.3549 20.4289 18.4633 20.2654 18.6365C20.1018 18.8097 20.0098 19.0355 20.007 19.2706V20.3048L14.6681 20.7645L14.6877 15.3448C14.7077 14.4444 15.456 13.64 16.4017 13.5635L16.4012 13.5617Z" fill="#E63F46"/>
<defs>
<linearGradient id="paint0_linear_9176_14238" x1="29.0889" y1="35.036" x2="14.5166" y2="10.7846" gradientUnits="userSpaceOnUse">
<stop stop-color="#939293"/>
<stop offset="1" stop-color="#C8C8C8"/>
</linearGradient>
<linearGradient id="paint1_linear_9176_14238" x1="12.2691" y1="29.0084" x2="16.7379" y2="25.4397" gradientUnits="userSpaceOnUse">
<stop stop-color="#C32E24"/>
<stop offset="1" stop-color="#8B241C"/>
</linearGradient>
<linearGradient id="paint2_linear_9176_14238" x1="23.899" y1="25.2398" x2="26.8658" y2="23.1074" gradientUnits="userSpaceOnUse">
<stop stop-color="#8B241C"/>
<stop offset="1" stop-color="#C32E24"/>
</linearGradient>
<linearGradient id="paint3_linear_9176_14238" x1="2.41966e+07" y1="-1.42482e+07" x2="2.41967e+07" y2="-1.42496e+07" gradientUnits="userSpaceOnUse">
<stop stop-color="#C32E24"/>
<stop offset="1" stop-color="#8B241C"/>
</linearGradient>
<linearGradient id="paint4_linear_9176_14238" x1="4.85158e+06" y1="-2.86623e+07" x2="4.85084e+06" y2="-2.86614e+07" gradientUnits="userSpaceOnUse">
<stop stop-color="#C32E24"/>
<stop offset="1" stop-color="#8B241C"/>
</linearGradient>
</defs>
</svg>
