<svg width="50" height="50" viewBox="0 0 50 50" fill="none" xmlns="http://www.w3.org/2000/svg">
<path d="M21.0406 20.3761V17.1459C21.0406 16.874 21.1417 16.6699 21.3777 16.5339L27.814 12.7941C28.6899 12.2841 29.7346 12.046 30.8128 12.046C34.8563 12.046 37.4178 15.2082 37.4178 18.5741C37.4178 18.812 37.4178 19.0839 37.3835 19.3561L30.7116 15.412C30.3074 15.1742 29.9028 15.1742 29.4986 15.412L21.0406 20.3761ZM36.0694 32.9561V25.2379C36.0694 24.7617 35.8672 24.4218 35.4628 24.1838L27.0049 19.22L29.7681 17.6218C30.004 17.4859 30.2062 17.4859 30.4419 17.6218L36.8782 21.3619C38.731 22.4499 39.978 24.7617 39.978 27.0056C39.978 29.5897 38.4625 31.9697 36.0694 32.9557V32.9561ZM19.0526 26.1561L16.2894 24.524C16.0537 24.3883 15.9525 24.1843 15.9525 23.9121V16.4323C15.9525 12.7942 18.7156 10.0402 22.4562 10.0402C23.8714 10.0402 25.1853 10.5164 26.2977 11.3662L19.6593 15.2423C19.2553 15.4803 19.0528 15.8203 19.0528 16.2964V26.1564L19.0526 26.1561ZM25 29.6239L21.0406 27.38V22.6202L25 20.3763L28.9593 22.6202V27.38L25 29.6239ZM27.5442 39.9603C26.1288 39.9603 24.8149 39.4841 23.7027 38.6343L30.3408 34.758C30.7451 34.5202 30.9473 34.1801 30.9473 33.7039V23.8439L33.7443 25.476C33.9802 25.6117 34.0814 25.8158 34.0814 26.088V33.5678C34.0814 37.2058 31.2844 39.96 27.5442 39.96V39.9603ZM19.558 32.3782L13.1217 28.6381C11.2682 27.5501 10.0217 25.2383 10.0217 22.9944C10.0217 20.3763 11.5717 18.0303 13.964 17.0443V24.7962C13.964 25.2725 14.1664 25.6123 14.5706 25.8503L22.995 30.7801L20.2318 32.3782C19.996 32.5141 19.7937 32.5141 19.558 32.3782ZM19.1876 37.9542C15.3797 37.9542 12.5829 35.0641 12.5829 31.4941C12.5829 31.2222 12.6168 30.9502 12.6501 30.6781L19.2883 34.5544C19.6925 34.7921 20.0973 34.7921 20.5013 34.5544L28.9593 29.6243V32.8543C28.9593 33.1265 28.8581 33.3305 28.6222 33.4664L22.1862 37.2064C21.31 37.7164 20.2653 37.9542 19.1872 37.9542H19.1876ZM27.5442 42C31.6216 42 35.0247 39.0761 35.8001 35.2C39.5747 34.2139 42 30.6439 42 27.006C42 24.626 40.9897 22.3141 39.17 20.648C39.338 19.934 39.4398 19.22 39.4398 18.5061C39.4398 13.6443 35.5305 10.006 31.015 10.006C30.1053 10.006 29.2292 10.1417 28.3532 10.4481C26.8366 8.95191 24.7474 8 22.4562 8C18.3788 8 14.9756 10.9239 14.2003 14.7999C10.4262 15.7861 8 19.3561 8 22.994C8 25.3741 9.01086 27.686 10.8305 29.352C10.6619 30.066 10.5609 30.7801 10.5609 31.494C10.5609 36.3558 14.4698 39.9941 18.9853 39.9941C19.8948 39.9941 20.7711 39.8583 21.6472 39.5519C23.1634 41.0481 25.2527 42 27.5442 42Z" fill="black"/>
</svg>
