<svg width="50" height="50" viewBox="0 0 50 50" fill="none" xmlns="http://www.w3.org/2000/svg">
<path d="M23.3992 5.39809C24.3987 4.8673 25.6013 4.8673 26.6008 5.39809L41.3992 13.8308C42.3647 14.4197 42.966 15.4477 43 16.5673V33.4327C42.966 34.5524 42.3647 35.5804 41.3992 36.1692L26.6008 44.6019C25.6013 45.1327 24.3987 45.1327 23.3992 44.6019L8.60077 36.1692C7.63532 35.5804 7.03398 34.5523 7 33.4327L7 16.5673C7.03398 15.4477 7.63532 14.4197 8.60077 13.8308L23.3992 5.39809Z" fill="#73A740"/>
<path d="M25.9954 15.4081C26.1028 15.3539 26.1763 15.2436 26.1763 15.1163C26.1763 14.9355 26.0278 14.7889 25.8446 14.7889C25.6613 14.7889 25.5128 14.9355 25.5128 15.1163C25.5128 15.2871 25.6453 15.4274 25.8144 15.4425V15.8016C25.5142 15.6222 25.1639 15.502 24.7856 15.4602C24.8132 15.2668 24.6563 15.0866 24.4571 15.0866C24.2571 15.0866 24.0974 15.2733 24.1297 15.4674C23 15.6178 22.1345 16.4696 22.1345 17.4979C22.1345 17.6222 22.1472 17.7438 22.1714 17.8619C21.6376 18.1861 21.29 18.7157 21.29 19.3139C21.29 19.5006 21.3238 19.6806 21.3866 19.8498C21.3238 20.0189 21.29 20.1989 21.29 20.3856C21.29 20.8055 21.4612 21.1915 21.7478 21.4964C21.6471 21.7048 21.5916 21.9328 21.5916 22.1718C21.5916 22.6407 21.8052 23.0674 22.1545 23.3861C22.1592 23.5 22.1766 23.6142 22.2076 23.7276C22.2873 24.0185 22.4474 24.2698 22.6635 24.47C22.5061 25.134 22.5155 25.901 22.7281 26.6773C22.902 27.3125 23.1902 27.8747 23.5493 28.3295C23.4319 29.2243 23.5712 30.0724 23.9021 30.7385C23.611 30.859 23.3507 31.0398 23.1412 31.2677C23.021 31.2377 22.8961 31.222 22.768 31.222C22.5426 31.222 22.3273 31.2708 22.1301 31.3595C21.9694 31.3088 21.7987 31.2815 21.6218 31.2815C20.6723 31.2815 19.9025 32.0679 19.9025 33.0379C19.9025 33.7917 20.3672 34.4345 21.0199 34.6837L21.1804 34.9611C21.2382 35.061 21.3672 35.0957 21.4684 35.0387C21.5569 34.9888 21.5949 34.8854 21.5646 34.7934C21.6546 34.7964 21.7453 34.7922 21.8331 34.7812C22.1022 34.9779 22.4232 35.0921 22.768 35.0921C22.926 35.0921 23.079 35.0681 23.2243 35.0232C23.2989 35.152 23.4029 35.317 23.5798 35.2173C23.7406 35.1266 23.6789 34.9683 23.608 34.8458C23.7322 34.7674 23.8468 34.6721 23.9495 34.5627C24.092 34.6212 24.243 34.666 24.4012 34.6953C24.9945 34.8053 25.5751 34.6755 26.0341 34.3768C26.5935 34.375 27.1167 34.1668 27.5063 33.8154L27.7558 34.2466C27.8909 34.4799 28.2576 34.2733 28.1225 34.0399L27.8018 33.4855C27.8666 33.3952 27.9242 33.2993 27.9737 33.1983C28.373 32.9158 28.6703 32.5008 28.7876 32.0044L29.3396 32.4794C29.5448 32.6561 29.8224 32.3419 29.6171 32.1653L29.026 31.6566C28.7001 31.3762 29.1188 31.1577 29.206 30.6991C29.2489 30.4738 29.259 30.2496 29.2398 30.0311H29.826C29.9426 30.0311 30.0372 29.9378 30.0372 29.8228C30.0372 29.7077 29.9426 29.6144 29.826 29.6144H29.166C29.099 29.3648 28.9932 29.1274 28.8539 28.9096C28.9006 28.6309 28.9223 28.3558 28.9209 28.0883C29.1039 28.2148 29.6752 28.1873 29.6752 27.9175C29.6752 27.6236 29.0634 27.6291 28.9072 27.7569C28.8345 26.8279 28.4783 26.0177 27.9262 25.5088C27.9106 25.4409 27.8936 25.3728 27.8749 25.3047C27.7381 24.8051 27.5306 24.3506 27.2735 23.958H27.6543C27.9266 23.958 27.9266 23.5413 27.6543 23.5413H27.1114C27.0674 23.5413 27.0266 23.5545 26.9928 23.5772C26.8286 23.3791 26.6507 23.203 26.463 23.0518L27.0538 22.6884C27.2849 22.5462 27.0615 22.1925 26.8304 22.3347L26.2911 22.6664C26.217 22.3758 26.0564 22.1121 25.8368 21.9059C25.8398 21.9056 25.8429 21.9052 25.8459 21.9047L26.2633 21.8414C26.5324 21.8006 26.4683 21.3886 26.1992 21.4295C26.0481 21.4524 25.8019 21.4363 25.6781 21.5391C25.6002 21.3651 25.4911 21.2042 25.3566 21.0611C25.3743 21.0245 25.3906 20.9873 25.4054 20.9495C25.4112 20.9508 25.4171 20.9518 25.4231 20.9526L25.8416 21.0084C26.1114 21.0443 26.1679 20.6313 25.8981 20.5953L25.5047 20.5429C25.51 20.4911 25.5128 20.4386 25.5128 20.3856C25.5128 20.1989 25.4789 20.0189 25.4161 19.8498C25.4752 19.6907 25.5086 19.5221 25.5124 19.3473C26.2982 19.0147 26.8399 18.3115 26.8399 17.4979C26.8399 16.8645 26.5116 16.2981 25.9954 15.9213V15.4081Z" fill="white"/>
</svg>
