<svg width="50" height="50" viewBox="0 0 50 50" fill="none" xmlns="http://www.w3.org/2000/svg">
<rect width="50" height="50" fill="#4F5050"/>
<path d="M5 19H24V25L21 31H5V19Z" fill="white"/>
<path d="M45 19H26V25L29 31H45V19Z" fill="white"/>
<path d="M7.12437 25.2296C7.12437 26.754 6.20278 27.6285 4.66486 27.6285C3.2551 27.6285 2.23242 26.7778 2.23242 25.2296C2.23242 23.6937 3.16659 22.8432 4.69193 22.8432C6.1165 22.8432 7.12437 23.7002 7.12437 25.2296ZM3.63592 25.2296C3.63592 26.138 3.9428 26.6169 4.68291 26.6169C5.42113 26.6169 5.71635 26.1319 5.71635 25.2296C5.71635 24.3079 5.41193 23.8589 4.67388 23.8589C3.94781 23.8589 3.63592 24.3132 3.63592 25.2296Z" fill="white"/>
<path d="M10.8838 22.8432C12.2981 22.8432 12.7882 24.1332 12.7882 25.2296C12.7882 26.7918 11.9874 27.6285 10.8477 27.6285C10.2538 27.6285 9.78559 27.038 9.38098 27.038C9.56046 27.8591 9.45319 28.7464 9.45319 29.5773H8.07676V22.9299H9.19595L9.39001 23.5285C9.87384 23.5285 10.2412 22.8432 10.8838 22.8432ZM10.4415 23.8506C9.5735 23.8506 9.45319 24.5754 9.45319 25.2214C9.45319 26.119 9.69959 26.6086 10.4596 26.6086C11.0947 26.6086 11.3847 26.1038 11.3847 25.2131C11.3847 24.7617 11.308 24.4218 11.1545 24.1933C11.0011 23.9648 10.7634 23.8506 10.4415 23.8506Z" fill="white"/>
<path d="M15.821 22.8432C17.2166 22.8432 18.082 23.5929 18.082 24.9406V25.5517H14.8282C14.8583 26.2618 15.311 26.6912 16.0873 26.6912C16.7311 26.6912 17.232 26.5701 17.7977 26.3279V27.3023C17.242 27.5534 16.6383 27.6285 16.0241 27.6285C14.4537 27.6285 13.4337 26.6729 13.4337 25.2709C13.4337 23.6405 14.4027 22.8432 15.821 22.8432ZM15.83 23.7391C15.2969 23.7391 14.9142 24.0389 14.8598 24.7135H16.7913C16.7827 24.177 16.4374 23.7391 15.83 23.7391Z" fill="white"/>
<path d="M21.882 22.8432C23.0135 22.8432 23.6736 23.5202 23.6736 24.536V27.5459H22.2972V24.8498C22.2972 24.1917 22.0466 23.8506 21.4848 23.8506C20.5426 23.8506 20.3927 24.6674 20.3927 25.3741V27.5459H19.0163V22.9299H20.0678L20.2528 23.5203C20.6647 23.5203 21.225 22.8432 21.882 22.8432Z" fill="white"/>
<path d="M30.4882 24.4699C30.4882 26.4736 28.9372 27.5459 26.8824 27.5459H25.0141V21.5096H27.0855C29.0726 21.5096 30.4882 22.653 30.4882 24.4699ZM29.0351 24.503C29.0351 22.8747 27.9052 22.5583 26.4131 22.5583V26.4889C27.9583 26.4889 29.0351 26.0606 29.0351 24.503Z" fill="white"/>
<path d="M34.4732 22.4881C33.4199 22.4881 32.817 23.2678 32.817 24.5442C32.817 25.8172 33.3114 26.5632 34.4732 26.5632C35.0116 26.5632 35.5281 26.4479 36.1565 26.2453V27.3188C35.5778 27.5372 34.9667 27.6285 34.3424 27.6285C32.3845 27.6285 31.3774 26.2613 31.3774 24.536C31.3774 22.7083 32.4755 21.4229 34.4732 21.4229C35.1312 21.4229 35.805 21.5847 36.4047 21.8481L35.9535 22.8886C35.46 22.6739 34.9546 22.4881 34.4732 22.4881Z" fill="white"/>
<path d="M37.3797 27.5459V21.5096H38.7787V27.5459H37.3797Z" fill="white"/>
<path d="M43.048 27.5459L41.4189 22.8101C41.5031 24.3899 41.5046 25.9641 41.5046 27.5459H40.2546V21.5096H42.159L43.7205 26.1256L45.4038 21.5096H47.3082V27.5459H46.004C46.004 22.2212 46.1242 22.8184 46.031 22.8184L44.3297 27.5459H43.048Z" fill="white"/>
<path fill-rule="evenodd" clip-rule="evenodd" d="M4.66506 28.0512C8.46269 28.0512 8.49675 22.4203 4.69214 22.4203C2.888 22.4203 1.77051 23.6612 1.77051 25.2296C1.77051 26.7543 2.89738 28.0512 4.66506 28.0512ZM7.12457 25.2296C7.12457 23.7002 6.1167 22.8431 4.69214 22.8431C3.16679 22.8431 2.23263 23.6936 2.23263 25.2296C2.23263 26.7777 3.2553 27.6284 4.66506 27.6284C6.20298 27.6284 7.12457 26.7539 7.12457 25.2296Z" fill="black"/>
<path fill-rule="evenodd" clip-rule="evenodd" d="M9.45339 23.5285L9.46929 23.507C9.55234 23.3969 9.65113 23.2945 9.76568 23.1998L9.78283 23.1858C10.0442 22.9745 10.4073 22.8431 10.884 22.8431C13.5605 22.8431 13.4969 27.6284 10.8479 27.6284C10.2406 27.6284 9.86521 27.038 9.38119 27.038C9.56013 27.8565 9.45339 28.7445 9.45339 29.5772H8.07697V22.9298H9.19616L9.45339 23.5285ZM9.62388 22.7623L9.54113 22.507H7.61485V30H9.91551V27.8895C10.2028 28.0045 10.5301 28.0512 10.8479 28.0512C11.8115 28.0512 12.5932 27.5151 12.9653 26.7166C13.0298 26.5773 13.0811 26.4331 13.1214 26.2864C13.5027 27.4404 14.7498 28.0512 16.0243 28.0512C16.8316 28.0512 17.5364 27.892 18.26 27.5649V25.9744H18.5443V24.9405C18.5443 24.4402 18.442 23.9873 18.2135 23.6002C17.7372 22.7928 16.7932 22.4203 15.8212 22.4203C14.5792 22.4203 13.4893 23.0611 13.1278 24.1785C12.8696 23.1973 12.0387 22.4203 10.884 22.4203C10.4082 22.4203 9.97149 22.5365 9.62388 22.7623ZM13.4339 25.2709C13.4339 26.6728 14.4539 27.6284 16.0243 27.6284C16.6385 27.6284 17.2422 27.5533 17.7979 27.3022V26.3278C17.2322 26.5701 16.7313 26.6912 16.0875 26.6912C15.3441 26.6912 14.8559 26.202 14.8284 25.5516H18.0822V24.9405C18.0822 23.5929 17.2168 22.8431 15.8212 22.8431C14.4029 22.8431 13.4339 23.6405 13.4339 25.2709ZM15.8303 23.7391C15.2082 23.7391 14.9009 24.2064 14.86 24.7135H16.7915C16.7829 24.1769 16.4376 23.7391 15.8303 23.7391ZM15.4712 24.2907C15.6437 24.1091 16.0343 24.1113 16.1948 24.2907H15.4712ZM15.4083 25.9744C15.5472 26.197 15.8193 26.2684 16.0875 26.2684C16.5933 26.2684 17.0713 26.1635 17.5317 25.9744H15.4083ZM10.9228 25.213C10.9228 24.8985 10.9266 24.2733 10.4417 24.2733C9.8786 24.2733 9.91551 24.823 9.91551 25.2213C9.91551 25.5933 9.91264 26.1858 10.4598 26.1858C10.6828 26.1858 10.7791 26.0406 10.8377 25.8579C10.9055 25.6495 10.9228 25.4295 10.9228 25.213ZM9.45339 25.2213C9.45339 24.5754 9.57371 23.8505 10.4417 23.8505C11.0855 23.8505 11.3849 24.3102 11.3849 25.213C11.3849 26.1037 11.0949 26.6086 10.4598 26.6086C9.69979 26.6086 9.45339 26.1189 9.45339 25.2213ZM20.253 23.5202C20.7897 23.5202 21.2077 22.8431 21.8822 22.8431C23.0137 22.8431 23.6738 23.5201 23.6738 24.5359V27.5458H22.2974V24.8497C22.2974 24.1916 22.0468 23.8505 21.4851 23.8505C20.5428 23.8505 20.3929 24.6674 20.3929 25.3741V27.5458H19.0165V22.9298H20.068L20.253 23.5202ZM20.4976 22.7667C20.9045 22.5251 21.3906 22.4203 21.8822 22.4203C23.264 22.4203 24.1359 23.2904 24.1359 24.5359V27.9686H21.8353V24.8497C21.8353 24.6001 21.8262 24.2733 21.4851 24.2733C20.8496 24.2733 20.8551 24.9218 20.8551 25.3741V27.9686H18.5544V22.507H20.4163L20.4976 22.7667ZM26.8826 27.9686H24.5522V21.0867H27.0857C29.0721 21.0867 30.7762 22.1749 30.9355 24.0982C31.1026 22.3171 32.5246 21 34.4734 21C35.2037 21 35.9423 21.1759 36.6049 21.4669L36.9178 21.6043V21.0867H39.241V27.9686H36.9178V21.8119L36.2011 23.4644C35.668 23.2324 35.0827 22.9108 34.4734 22.9108C33.524 22.9108 33.2793 23.8435 33.2793 24.5442C33.2793 25.3114 33.4993 26.1404 34.4734 26.1404C35.2214 26.1404 35.924 25.872 36.6189 25.648V27.6017C35.877 27.8816 35.1478 28.0512 34.3426 28.0512C32.3042 28.0512 31.0551 26.6807 30.9292 24.9269C30.7345 26.9451 28.9406 27.9686 26.8826 27.9686ZM30.4884 24.4699C30.4884 22.606 29.022 21.5095 27.0857 21.5095H25.0143V27.5458H26.8826C29.1658 27.5458 30.4884 26.4984 30.4884 24.4699ZM36.1567 27.3187V26.2453C35.5283 26.4479 35.0118 26.5632 34.4734 26.5632C33.3116 26.5632 32.8172 25.8172 32.8172 24.5442C32.8172 23.2677 33.4201 22.488 34.4734 22.488C34.9548 22.488 35.4603 22.6738 35.9537 22.8885L36.4049 21.8481C35.8052 21.5847 35.1314 21.4228 34.4734 21.4228C32.4757 21.4228 31.3776 22.7082 31.3776 24.5359C31.3776 26.2128 32.3316 27.6284 34.3426 27.6284C34.9669 27.6284 35.578 27.5371 36.1567 27.3187ZM26.8754 22.981V26.0661C27.9494 26.0661 28.5731 25.4999 28.5731 24.5029C28.5731 23.4138 27.9958 22.981 26.8754 22.981ZM26.4133 26.4889V22.5582C27.9614 22.5582 29.0353 22.9853 29.0353 24.5029C29.0353 26.0923 27.9057 26.4889 26.4133 26.4889ZM42.7067 27.9686L41.967 25.7634V27.9686H39.7927V21.0867H42.4999L43.7468 24.7726L45.0693 21.0867H47.7705V27.9686H45.5421V25.5295L44.6643 27.9686H42.7067ZM46.0312 22.8183H46.0719C46.0386 23.4416 46.0042 24.0645 46.0042 24.6887V27.5458H47.3084V21.5095H45.404L43.7477 26.1255H43.7207L42.1592 21.5095H40.2548V27.5458H41.5048C41.5048 25.9641 41.5027 24.3899 41.4191 22.8101L43.0482 27.5458H44.3299L46.0312 22.8183ZM37.3799 21.5095H38.7789V27.5458H37.3799V21.5095Z" fill="black"/>
<path fill-rule="evenodd" clip-rule="evenodd" d="M4.67409 23.8588C3.94802 23.8588 3.63613 24.3132 3.63613 25.2296C3.63613 26.1379 3.943 26.6168 4.68311 26.6168C5.42134 26.6168 5.71656 26.1318 5.71656 25.2296C5.71656 24.3078 5.41213 23.8588 4.67409 23.8588ZM5.25444 25.2296C5.25444 24.8437 5.22491 24.2816 4.67409 24.2816C4.12181 24.2816 4.09824 24.8327 4.09824 25.2296C4.09824 25.633 4.12406 26.1941 4.68311 26.1941C5.22662 26.1941 5.25444 25.6041 5.25444 25.2296Z" fill="black"/>
<path d="M34.4737 22.4879C33.4205 22.4879 32.8175 23.2677 32.8175 24.5441C32.8175 26.3571 34.4685 27.0377 36.157 26.5981V27.3187C35.5783 27.537 34.9672 27.6283 34.3429 27.6283C32.5491 27.6283 32.3175 26.0151 32.3175 24.5862C32.3175 22.9174 34.5989 21.291 36.4005 21.859L35.954 22.8884C35.4606 22.6737 34.9551 22.4879 34.4737 22.4879Z" fill="#D1D1D1"/>
<path d="M38.7792 21.7134V27.5457H38.325V21.7134H38.7792Z" fill="#D1D1D1"/>
<path d="M46.0722 22.8183L44.3302 27.5457H44.3326L42.022 22.4723C41.6534 22.3533 41.4194 22.81 41.4194 22.81C41.5029 24.3898 41.5051 25.964 41.5051 27.5457H41.2033V21.7134H42.2285L43.748 26.1254L44.3326 26.7002L45.9133 21.7134H47.3087V27.5457H47.1053C47.1053 26.0365 47.1053 22.4723 47.1053 22.4723C47.1053 22.4723 46.181 22.4723 46.0722 22.8183Z" fill="#D1D1D1"/>
<path fill-rule="evenodd" clip-rule="evenodd" d="M30.4887 24.4698C30.4887 22.7917 29.3783 21.7134 27.595 21.7134H26.1258V27.5457C28.5815 27.5457 30.4887 27.1206 30.4887 24.4698ZM30.109 24.4698C30.109 22.7895 28.1584 22.0495 26.4135 22.5581V26.4888C27.8926 27.0814 30.109 26.0207 30.109 24.4698Z" fill="#D1D1D1"/>
<path d="M23.6741 24.5358V27.5457H23.0752V25.009C23.2198 23.3178 22.3438 23.5202 21.5316 23.5202C20.5893 23.5202 20.3933 24.6673 20.3933 25.374V27.5457H19.8403V23.1337H20.1323L20.2534 23.5202C21.0241 23.5202 21.2585 23.047 22.3916 23.047C23.3274 23.047 23.6741 23.7409 23.6741 24.5358Z" fill="#D1D1D1"/>
<path fill-rule="evenodd" clip-rule="evenodd" d="M14.2949 25.5515C14.2949 24.2276 14.7635 23.047 16.3306 23.047C17.9157 23.047 18.0825 24.406 18.0825 25.5515H14.8287C14.8631 26.3642 15.6803 27.3021 16.5186 27.3021C16.9285 27.3021 17.4098 26.839 17.7981 26.7195V27.3021C17.2425 27.5533 16.6388 27.6283 16.0246 27.6283C14.6315 27.6283 14.2949 26.7346 14.2949 25.5515ZM15.8305 23.739C17.3934 23.5202 17.7866 24.2003 17.7981 24.9173H15.3693C15.3751 24.8452 15.3843 24.7772 15.397 24.7134H14.8603C14.9147 24.0388 15.2973 23.739 15.8305 23.739Z" fill="#D1D1D1"/>
<path fill-rule="evenodd" clip-rule="evenodd" d="M12.7888 25.2295C12.7888 26.7916 11.9879 27.6283 10.8482 27.6283C10.2271 27.6283 9.89961 27.4969 9.38154 27.0379C9.5629 27.8675 9.45374 28.7381 9.45374 29.5771L9.01092 29.5871V23.1437L9.26262 23.1337C9.40961 23.5872 9.3936 23.5195 9.73535 23.2256L9.89961 23.7324C10.2825 23.7324 10.777 23.047 11.3934 23.047C12.5232 23.047 12.7888 24.4109 12.7888 25.2295ZM10.4421 23.8505C9.57406 23.8505 9.45374 24.5753 9.45374 25.2212C9.45374 26.0543 9.49431 26.8318 10.1359 26.895C10.2894 27.0362 10.7674 27.123 11.0601 27.123C11.6953 27.123 12.4465 26.2647 12.4465 25.374C12.4465 24.5138 11.8728 23.5695 11.2897 23.5284C11.1412 23.3904 10.6923 23.8505 10.4421 23.8505Z" fill="#D1D1D1"/>
<path fill-rule="evenodd" clip-rule="evenodd" d="M7.12488 25.2295C7.12488 24.154 6.52557 23.047 5.2015 23.047C3.67615 23.047 3.2041 23.8959 3.2041 25.4318C3.2041 26.496 3.33865 27.6283 4.66537 27.6283C6.20329 27.6283 7.12488 26.7539 7.12488 25.2295ZM3.63643 25.2295C3.63643 24.3131 4.11394 23.5284 4.84001 23.5284C5.7472 23.5284 6.43892 24.6496 6.43892 25.4169C6.43892 26.0213 6.09112 26.4542 5.78366 26.6638C4.39501 27.6294 3.63643 26.3741 3.63643 25.2295Z" fill="#D1D1D1"/>
</svg>
