<svg width="50" height="50" viewBox="0 0 50 50" fill="none" xmlns="http://www.w3.org/2000/svg">
<path d="M41.4948 25.8973C41.4948 16.8156 34.1105 9.45337 24.9998 9.45337C15.893 9.45337 8.50537 16.8156 8.50537 25.8973C8.50537 31.9299 11.775 37.187 16.6307 40.0524L17.6881 33.0036C16.1213 31.2649 15.1596 28.9728 15.1596 26.4512C15.1596 21.0333 19.5664 16.6398 24.9998 16.6398C30.437 16.6398 34.8405 21.0333 34.8405 26.4512C34.8405 28.9954 33.8673 31.3036 32.2779 33.0417L33.3309 40.0756C38.2092 37.2174 41.4948 31.9487 41.4948 25.8973Z" fill="#FF7A24"/>
<path d="M26.8098 29.7574L28.8135 40.5468H21.0722L23.0682 29.7762C21.0947 29.0238 19.6841 27.1209 19.6841 24.8747C19.6841 21.9705 22.0267 19.6171 24.9123 19.6171C27.8023 19.6171 30.1405 21.9705 30.1405 24.8747C30.1405 27.1021 28.7569 28.9928 26.8098 29.7574Z" fill="#123467"/>
</svg>
