<svg width="50" height="50" viewBox="0 0 50 50" fill="none" xmlns="http://www.w3.org/2000/svg">
<path d="M25.6945 25.6616C30.4802 25.6616 34.3598 21.7825 34.3598 16.9974C34.3598 12.2123 30.4802 8.33325 25.6945 8.33325C20.9088 8.33325 17.0292 12.2123 17.0292 16.9974C17.0292 21.7825 20.9088 25.6616 25.6945 25.6616Z" fill="url(#paint0_linear_9176_14252)"/>
<path d="M24.9557 42.8442C19.297 39.2348 14.5898 34.315 11.234 28.5027C11.1533 28.3584 11.1111 28.1957 11.1111 28.0301C11.1111 27.6596 11.3233 27.3201 11.6566 27.1574L18.2187 23.9375C18.6753 23.715 19.2329 23.886 19.4864 24.326C22.8039 29.8853 27.7107 34.3262 33.5725 37.0746C31.4105 39.2527 29.0159 41.1876 26.4323 42.8442C25.9811 43.1259 25.4069 43.1259 24.9557 42.8442Z" fill="url(#paint1_linear_9176_14252)"/>
<path d="M26.4323 42.8442C32.092 39.2357 36.7991 34.316 40.154 28.5026C40.2351 28.3579 40.2779 28.1942 40.2779 28.0281C40.2779 27.659 40.067 27.3205 39.7363 27.1573L33.1693 23.9374C32.7127 23.715 32.1551 23.8859 31.9015 24.326C28.585 29.8858 23.6777 34.3267 17.8155 37.0745C19.9765 39.2542 22.3707 41.1891 24.9557 42.8442C25.4069 43.1259 25.9811 43.1259 26.4323 42.8442Z" fill="#2684FF"/>
<defs>
<linearGradient id="paint0_linear_9176_14252" x1="25.6945" y1="14.1041" x2="25.6945" y2="49.7508" gradientUnits="userSpaceOnUse">
<stop stop-color="#2684FF"/>
<stop offset="0.82" stop-color="#0052CC"/>
<stop offset="1" stop-color="#0052CC"/>
</linearGradient>
<linearGradient id="paint1_linear_9176_14252" x1="23.122" y1="16.7585" x2="35.8844" y2="35.9554" gradientUnits="userSpaceOnUse">
<stop stop-color="#2684FF"/>
<stop offset="0.62" stop-color="#0052CC"/>
<stop offset="1" stop-color="#0052CC"/>
</linearGradient>
</defs>
</svg>
