<svg width="50" height="50" viewBox="0 0 50 50" fill="none" xmlns="http://www.w3.org/2000/svg">
<path d="M8.48412 35.5515L8.39657 35.5715L8.33325 35.5059V34.241C8.3912 34.254 8.45202 34.2463 8.5046 34.2191C8.87152 34.6675 8.88456 35.1122 8.48412 35.5515Z" fill="#6F557F"/>
<path d="M22.1056 28.6161C21.4164 26.0334 20.7329 23.4925 20.0661 20.948C19.9525 20.5179 19.8538 20.1351 19.3043 20.0695C18.6412 19.993 18.1607 20.1351 18.0005 20.8642C17.7863 21.8321 17.507 22.7871 17.3039 23.7586C17.2127 24.1943 17.0246 24.3364 16.572 24.331C14.8156 24.3073 13.0573 24.2981 11.301 24.331C10.7012 24.3437 10.6584 24.1122 10.7627 23.642C11.409 20.7348 12.0329 17.824 12.6848 14.9186C12.9344 13.8122 13.6925 13.2034 14.8472 13.2016C23.0785 13.1919 31.3084 13.1919 39.5371 13.2016C41.0588 13.2016 41.9119 14.2606 41.6046 15.7315C41.0663 18.2924 40.4759 20.835 39.9283 23.4014C39.8165 23.93 39.5986 24.1195 39.0194 24.1104C36.7396 24.074 34.458 24.1323 32.1782 24.0813C31.178 24.0594 30.7161 24.4731 30.5317 25.3827C30.3113 26.493 30.0075 27.5859 29.6228 28.6525C29.3161 27.243 29.0088 25.8353 28.7009 24.4294C28.1961 22.1073 27.6858 19.7852 27.1941 17.4594C27.073 16.8907 26.8216 16.528 26.1641 16.528C25.5066 16.528 25.2645 16.8561 25.1192 17.4394C24.2848 20.7658 23.4243 24.0849 22.5601 27.404C22.4613 27.7995 22.4557 28.2406 22.1056 28.6161Z" fill="#431D58"/>
<path d="M8.48412 35.5515L8.5046 34.2191C9.04288 31.722 9.60133 29.2285 10.1042 26.7241C10.2178 26.1664 10.5382 26.1773 10.9573 26.1773C12.8049 26.1773 14.6544 26.1773 16.5021 26.1773C18.5006 26.1773 18.5006 26.1773 19.1897 24.2836C19.8472 27.0449 20.4935 29.7225 21.1249 32.3982C21.2478 32.9085 21.3763 33.3806 22.0785 33.4189C22.8235 33.4608 23.1066 33.078 23.2668 32.4455C24.0789 29.2085 24.9096 25.9768 25.7347 22.7416C25.8032 22.3919 25.9488 22.061 26.1612 21.7719C26.4406 23.0077 26.72 24.2453 27.0031 25.4811C27.5159 27.7704 28.025 30.0603 28.5304 32.3508C28.6608 32.9468 28.8414 33.4334 29.6293 33.4262C30.3631 33.4262 30.5457 32.9632 30.6909 32.4073C31.1957 30.457 31.7246 28.5122 32.2089 26.5564C32.3244 26.0917 32.5255 25.9294 33.0191 25.9367C34.8978 25.9635 36.7771 25.9635 38.657 25.9367C39.199 25.9276 39.3536 26.0734 39.2344 26.5984C38.5751 29.5329 37.953 32.4747 37.2843 35.4056C37.1093 36.1675 36.5635 36.645 35.7608 36.8054C34.2819 36.7927 32.8049 36.7671 31.3261 36.769C24.2049 36.769 17.0844 36.7793 9.96453 36.8C9.23441 36.6541 8.68713 36.2951 8.48412 35.5515Z" fill="#431D58"/>
</svg>
