<svg width="50" height="50" viewBox="0 0 50 50" fill="none" xmlns="http://www.w3.org/2000/svg">
<path fill-rule="evenodd" clip-rule="evenodd" d="M23.2923 8.41919C22.1863 8.54474 21.9991 8.5748 21.0957 8.77102C20.9991 8.79198 20.8113 8.84092 20.6784 8.87966C20.5455 8.9184 20.3676 8.96558 20.283 8.98446C20.0502 9.03648 19.1646 9.34155 18.7894 9.49914C18.7048 9.53458 18.5961 9.58012 18.5478 9.6001C18.066 9.80004 17.4908 10.0789 17.0981 10.3031C16.9289 10.3997 16.7065 10.5219 16.6038 10.5747C16.5012 10.6275 16.4171 10.6869 16.4171 10.7068C16.4171 10.7267 16.3966 10.7429 16.3713 10.7429C16.3295 10.7429 15.6046 11.2247 15.4195 11.3755C15.3762 11.4107 15.1975 11.5522 15.0223 11.6901L14.7039 11.9406V14.1511C14.7039 15.3669 14.7188 16.3616 14.737 16.3616C14.7554 16.3616 14.9584 16.1788 15.1883 15.9555C15.8035 15.358 16.3884 14.8662 16.9004 14.5159C17.0574 14.4083 17.1925 14.3056 17.2005 14.2875C17.2087 14.2694 17.2333 14.2546 17.2553 14.2546C17.2775 14.2546 17.3895 14.188 17.5043 14.1066C17.6192 14.0253 17.8218 13.8989 17.9547 13.8256C18.0876 13.7524 18.3163 13.6246 18.4629 13.5415C18.7217 13.3949 19.2121 13.154 19.5472 13.009C19.9177 12.8487 20.0053 12.8136 20.1732 12.7581C20.2698 12.726 20.3687 12.6869 20.3929 12.6712C20.417 12.6554 20.5554 12.6081 20.7004 12.5662C20.8453 12.5243 21.0035 12.4732 21.0518 12.4526C21.1001 12.4321 21.2682 12.3837 21.4252 12.3451C21.5823 12.3065 21.7701 12.2578 21.8426 12.2369C21.9604 12.2029 22.2667 12.1408 22.9408 12.0144C24.2743 11.7643 26.2306 11.8147 27.7732 12.1389C28.4819 12.2879 29.493 12.6108 30.1674 12.9035C30.7892 13.1733 32.0963 13.9008 32.1369 13.9995C32.145 14.0191 32.1796 14.0351 32.2138 14.0351C32.2481 14.0351 32.2761 14.0535 32.2761 14.076C32.2761 14.0985 32.3121 14.1284 32.3561 14.1424C32.4003 14.1563 32.4744 14.2023 32.5209 14.2445C32.5674 14.2867 32.6944 14.3902 32.8031 14.4745C33.1275 14.7261 33.1608 14.7529 33.3483 14.9124C33.7194 15.2285 34.1831 15.6932 34.4874 16.0543C34.6604 16.2595 34.8127 16.4373 34.826 16.4493C34.8781 16.4967 35.2673 17.0202 35.4644 17.308C35.9488 18.0148 36.4008 18.8532 36.7058 19.6098C36.8079 19.8633 36.9107 20.1051 36.9341 20.147C36.9575 20.1889 36.9766 20.2533 36.9766 20.2902C36.9766 20.3271 36.9946 20.3915 37.0167 20.4334C37.1168 20.624 37.3583 21.4875 37.4801 22.0899C37.7923 23.6346 37.8086 24.0414 37.8101 30.3752C37.8111 34.6917 37.8211 35.5439 37.8708 35.5439C38.0356 35.5439 39.1543 34.0633 39.6131 33.2378C39.6932 33.0938 39.7981 32.9069 39.8463 32.8224C40.0551 32.4564 40.2712 31.9943 40.5547 31.308C40.5945 31.2114 40.6459 31.0981 40.6689 31.0561C40.6919 31.0142 40.7107 30.9554 40.7107 30.9254C40.7107 30.8955 40.7575 30.7421 40.8146 30.5846C40.9655 30.1687 41.1361 29.5975 41.2148 29.2449C41.2525 29.0759 41.302 28.8685 41.3248 28.784C41.3475 28.6995 41.3751 28.5711 41.386 28.4987C41.397 28.4263 41.4381 28.1793 41.4774 27.95C41.728 26.4869 41.7301 23.7852 41.4816 22.3314C41.4466 22.1261 41.4054 21.8792 41.3902 21.7827C41.3573 21.5732 41.1727 20.7829 41.0773 20.4438C40.8926 19.7864 40.5762 18.8462 40.5212 18.7913C40.5046 18.7747 40.4911 18.7354 40.4911 18.7038C40.4911 18.5956 39.9183 17.3677 39.6136 16.8225C39.5326 16.6776 39.428 16.4899 39.3811 16.4054C39.3342 16.3209 39.2187 16.1359 39.1246 15.9944C39.0305 15.8528 38.9535 15.7295 38.9535 15.7202C38.9535 15.711 38.8011 15.4911 38.6147 15.2315C37.1543 13.1962 35.2515 11.5146 33.0942 10.3525C32.9038 10.25 32.716 10.1485 32.6768 10.127C32.6376 10.1054 32.4276 10.007 32.2102 9.90802C31.8064 9.72443 31.769 9.70808 31.4633 9.58199C31.3667 9.54215 31.2533 9.4908 31.2113 9.46786C31.1693 9.44481 31.0992 9.42605 31.0553 9.42605C31.0115 9.42605 30.9569 9.40904 30.934 9.3883C30.911 9.36756 30.7934 9.31807 30.6726 9.27834C30.5518 9.23862 30.3244 9.16388 30.1674 9.11242C30.0103 9.06095 29.8127 9.00334 29.7281 8.98446C29.6435 8.96558 29.4656 8.91818 29.3327 8.87911C29.1998 8.84004 29.0021 8.78989 28.8934 8.76773C28.7847 8.74556 28.5475 8.6964 28.3662 8.65854C27.8938 8.55999 27.3779 8.4891 26.294 8.37387C25.6399 8.3043 24.0999 8.32756 23.2923 8.41919ZM12.0025 14.6321C11.8818 14.7745 11.7371 14.9404 11.6809 15.0008C11.3731 15.331 10.4451 16.7194 10.1698 17.2614C10.1084 17.3821 10.0166 17.5599 9.96572 17.6565C9.83316 17.9082 9.52005 18.5991 9.52005 18.64C9.52005 18.6744 9.41978 18.9044 9.34147 19.0496C9.31885 19.0915 9.30039 19.1617 9.30039 19.2054C9.30039 19.2492 9.28315 19.3038 9.26207 19.3267C9.24109 19.3496 9.18892 19.4869 9.1462 19.6318C9.10359 19.7766 9.02451 20.0334 8.97048 20.2024C8.80651 20.7159 8.59718 21.6877 8.49306 22.4191C8.36555 23.3155 8.33337 23.8138 8.33337 24.8992C8.33337 26.1325 8.42376 27.2196 8.59784 28.0817C8.76192 28.8944 8.94005 29.6484 9.03341 29.9253C9.05373 29.9856 9.10644 30.1535 9.15048 30.2984C9.19452 30.4433 9.24625 30.5805 9.26547 30.6035C9.28469 30.6264 9.30029 30.6758 9.30029 30.7132C9.30018 30.7733 9.35597 30.9235 9.59473 31.5055C9.62943 31.59 9.67391 31.6987 9.69368 31.747C9.82383 32.0652 10.2059 32.8489 10.4107 33.2175C10.4844 33.3502 10.5832 33.528 10.63 33.6125C10.6767 33.697 10.7427 33.7973 10.7766 33.8354C10.8103 33.8736 10.838 33.9188 10.838 33.9359C10.838 34.1849 12.2786 35.9779 13.268 36.9604C13.9959 37.6833 15.7036 39.0556 15.8751 39.0556C15.8909 39.0556 15.9684 39.1049 16.0477 39.1653C16.1269 39.2257 16.2032 39.275 16.2174 39.275C16.2315 39.275 16.3169 39.321 16.407 39.3771C16.914 39.6929 17.9547 40.2117 18.5038 40.4223C18.6247 40.4687 18.763 40.5242 18.8114 40.5457C18.8871 40.5795 19.3107 40.7333 19.668 40.8567C19.7284 40.8776 19.8569 40.9168 19.9535 40.9442C20.0502 40.9714 20.1886 41.0106 20.2611 41.0313C20.8268 41.1932 20.9174 41.2142 21.7327 41.3724C22.9692 41.6123 23.5954 41.6675 25.0715 41.6667C26.7209 41.6659 28.0006 41.509 29.3547 41.1415C29.4997 41.1022 29.6875 41.0534 29.772 41.0332C30.0303 40.9713 30.9072 40.6694 31.2657 40.5188C31.5395 40.4039 31.5912 40.3813 31.8587 40.2601C32.5545 39.9447 32.9653 39.726 33.6889 39.286C33.9495 39.1276 34.0715 39.0503 34.1407 38.9999C34.1662 38.9814 34.3452 38.8551 34.5385 38.7191C34.7318 38.5832 34.8998 38.4601 34.9119 38.4455C34.924 38.431 35.0278 38.3437 35.1425 38.2515L35.3512 38.0839V35.8948C35.3512 34.6907 35.3355 33.6958 35.3163 33.684C35.2971 33.6721 35.1043 33.8346 34.888 34.0453C34.6716 34.2559 34.3661 34.5361 34.209 34.6679C34.052 34.7997 33.9 34.9295 33.8712 34.9565C33.7047 35.113 32.5679 35.8894 32.1003 36.166C31.3631 36.6022 30.4701 37.0358 29.8599 37.2536C29.7753 37.2839 29.6666 37.3243 29.6183 37.3434C29.0256 37.5783 28.016 37.8422 27.1142 37.998C25.9121 38.2056 23.9867 38.2055 22.8749 37.9978C22.2093 37.8735 21.7903 37.7751 21.2934 37.6269C21.1605 37.5871 20.9972 37.5445 20.9305 37.5319C20.8637 37.5193 20.7983 37.4917 20.785 37.4703C20.7719 37.4489 20.7307 37.4314 20.6934 37.4314C20.6562 37.4314 20.5635 37.4042 20.4873 37.3709C20.4112 37.3375 20.2402 37.2665 20.1073 37.2129C19.2531 36.8691 17.5202 35.868 17.2958 35.5886C17.2837 35.5735 17.1957 35.503 17.1003 35.4319C16.6029 35.0612 15.6446 34.1058 15.2315 33.5686C15.1479 33.46 15.0686 33.3612 15.0553 33.3491C14.9125 33.2198 14.117 32.003 13.9745 31.696C13.9314 31.6033 13.8548 31.4583 13.804 31.3738C13.722 31.2372 13.5777 30.9304 13.3396 30.3862C13.1864 30.036 12.8693 29.1261 12.8119 28.8718C12.7928 28.7873 12.7382 28.5601 12.6904 28.367C12.5172 27.6655 12.3762 26.8928 12.3737 26.6305C12.3726 26.5233 12.3502 26.3467 12.3239 26.2381C12.2914 26.1038 12.2674 24.1709 12.2489 20.2068L12.2218 14.373L12.0025 14.6321Z" fill="#2470F2"/>
</svg>
