<svg width="50" height="50" viewBox="0 0 50 50" fill="none" xmlns="http://www.w3.org/2000/svg">
<path d="M30.3657 6.95861C41.2106 14.838 36.6734 33.0302 25.1646 35C39.8826 35 44.7517 13.911 30.3657 6.95861Z" fill="#FFCE26"/>
<path d="M18.8571 6.84264C31.6938 4.87279 37.0056 21.4427 31.3618 29.0904C40.6574 19.357 33.2431 1.97595 18.8571 6.84264Z" fill="#0879B8"/>
<path d="M11.3321 14.838C17.6398 4.9888 30.8085 11.0142 32.1365 20.9793C33.6857 8.81263 18.1931 1.97609 11.3321 14.838Z" fill="#069B4F"/>
<path d="M11 22.254C12.5493 12.0571 25.1647 11.0142 29.8125 18.1984C26.05 8.00151 11.2213 9.27612 11 22.254Z" fill="#CB2034"/>
<path d="M10.3809 43.417V43.3047C10.3809 42.9238 10.4362 42.5706 10.5469 42.2451C10.6576 41.9163 10.8171 41.6315 11.0254 41.3906C11.2337 41.1465 11.486 40.9577 11.7822 40.8242C12.0785 40.6875 12.4105 40.6191 12.7783 40.6191C13.1494 40.6191 13.4831 40.6875 13.7793 40.8242C14.0788 40.9577 14.3327 41.1465 14.541 41.3906C14.7526 41.6315 14.9137 41.9163 15.0244 42.2451C15.1351 42.5706 15.1904 42.9238 15.1904 43.3047V43.417C15.1904 43.7979 15.1351 44.151 15.0244 44.4766C14.9137 44.8021 14.7526 45.0869 14.541 45.3311C14.3327 45.5719 14.0804 45.7607 13.7842 45.8975C13.4912 46.0309 13.1592 46.0977 12.7881 46.0977C12.417 46.0977 12.0833 46.0309 11.7871 45.8975C11.4909 45.7607 11.237 45.5719 11.0254 45.3311C10.8171 45.0869 10.6576 44.8021 10.5469 44.4766C10.4362 44.151 10.3809 43.7979 10.3809 43.417ZM11.2842 43.3047V43.417C11.2842 43.6807 11.3151 43.9297 11.377 44.1641C11.4388 44.3952 11.5316 44.6003 11.6553 44.7793C11.7822 44.9583 11.9401 45.0999 12.1289 45.2041C12.3177 45.305 12.5374 45.3555 12.7881 45.3555C13.0355 45.3555 13.252 45.305 13.4375 45.2041C13.6263 45.0999 13.7826 44.9583 13.9062 44.7793C14.0299 44.6003 14.1227 44.3952 14.1846 44.1641C14.2497 43.9297 14.2822 43.6807 14.2822 43.417V43.3047C14.2822 43.0443 14.2497 42.7985 14.1846 42.5674C14.1227 42.333 14.0283 42.1263 13.9014 41.9473C13.7777 41.765 13.6214 41.6217 13.4326 41.5176C13.2471 41.4134 13.029 41.3613 12.7783 41.3613C12.5309 41.3613 12.3128 41.4134 12.124 41.5176C11.9385 41.6217 11.7822 41.765 11.6553 41.9473C11.5316 42.1263 11.4388 42.333 11.377 42.5674C11.3151 42.7985 11.2842 43.0443 11.2842 43.3047Z" fill="#1C1D1F"/>
<path d="M17.2266 41.7324V48.0312H16.3184V40.7168H17.1484L17.2266 41.7324ZM20.7861 43.3145V43.417C20.7861 43.8011 20.7406 44.1576 20.6494 44.4863C20.5583 44.8118 20.4248 45.0951 20.249 45.3359C20.0765 45.5768 19.8633 45.764 19.6094 45.8975C19.3555 46.0309 19.0641 46.0977 18.7354 46.0977C18.4001 46.0977 18.1038 46.0423 17.8467 45.9316C17.5895 45.821 17.3714 45.6598 17.1924 45.4482C17.0133 45.2367 16.8701 44.9827 16.7627 44.6865C16.6585 44.3903 16.5869 44.0566 16.5479 43.6855V43.1387C16.5869 42.748 16.6602 42.3981 16.7676 42.0889C16.875 41.7796 17.0166 41.516 17.1924 41.2979C17.3714 41.0765 17.5879 40.9089 17.8418 40.7949C18.0957 40.6777 18.3887 40.6191 18.7207 40.6191C19.0527 40.6191 19.3473 40.6842 19.6045 40.8145C19.8617 40.9414 20.0781 41.1237 20.2539 41.3613C20.4297 41.599 20.5615 41.8838 20.6494 42.2158C20.7406 42.5446 20.7861 42.9108 20.7861 43.3145ZM19.8779 43.417V43.3145C19.8779 43.0508 19.8503 42.8034 19.7949 42.5723C19.7396 42.3379 19.6533 42.1328 19.5361 41.957C19.4222 41.778 19.2757 41.638 19.0967 41.5371C18.9176 41.4329 18.7044 41.3809 18.457 41.3809C18.2292 41.3809 18.0306 41.4199 17.8613 41.498C17.6953 41.5762 17.5537 41.682 17.4365 41.8154C17.3193 41.9456 17.2233 42.0954 17.1484 42.2646C17.0768 42.4307 17.0231 42.6032 16.9873 42.7822V44.0469C17.0524 44.2747 17.1436 44.4896 17.2607 44.6914C17.3779 44.89 17.5342 45.0511 17.7295 45.1748C17.9248 45.2952 18.1706 45.3555 18.4668 45.3555C18.7109 45.3555 18.9209 45.305 19.0967 45.2041C19.2757 45.0999 19.4222 44.9583 19.5361 44.7793C19.6533 44.6003 19.7396 44.3952 19.7949 44.1641C19.8503 43.9297 19.8779 43.6807 19.8779 43.417Z" fill="#1C1D1F"/>
<path d="M25.1709 44.7793V40.7168H26.0791V46H25.2148L25.1709 44.7793ZM25.3418 43.666L25.7178 43.6562C25.7178 44.0078 25.6803 44.3333 25.6055 44.6328C25.5339 44.929 25.4167 45.1862 25.2539 45.4043C25.0911 45.6224 24.8779 45.7933 24.6143 45.917C24.3506 46.0374 24.0299 46.0977 23.6523 46.0977C23.3952 46.0977 23.1592 46.0602 22.9443 45.9854C22.7327 45.9105 22.5505 45.7949 22.3975 45.6387C22.2445 45.4824 22.1257 45.279 22.041 45.0283C21.9596 44.7777 21.9189 44.4766 21.9189 44.125V40.7168H22.8223V44.1348C22.8223 44.3724 22.8483 44.5693 22.9004 44.7256C22.9557 44.8786 23.029 45.0007 23.1201 45.0918C23.2145 45.1797 23.3187 45.2415 23.4326 45.2773C23.5498 45.3132 23.6702 45.3311 23.7939 45.3311C24.1781 45.3311 24.4824 45.2578 24.707 45.1113C24.9316 44.9616 25.0928 44.7614 25.1904 44.5107C25.2913 44.2568 25.3418 43.9753 25.3418 43.666Z" fill="#1C1D1F"/>
<path d="M29.668 40.7168V41.4102H26.8115V40.7168H29.668ZM27.7783 39.4326H28.6816V44.6914C28.6816 44.8704 28.7093 45.0055 28.7646 45.0967C28.82 45.1878 28.8916 45.248 28.9795 45.2773C29.0674 45.3066 29.1618 45.3213 29.2627 45.3213C29.3376 45.3213 29.4157 45.3148 29.4971 45.3018C29.5817 45.2855 29.6452 45.2725 29.6875 45.2627L29.6924 46C29.6208 46.0228 29.5264 46.0439 29.4092 46.0635C29.2952 46.0863 29.1569 46.0977 28.9941 46.0977C28.7728 46.0977 28.5693 46.0537 28.3838 45.9658C28.1982 45.8779 28.0501 45.7314 27.9395 45.5264C27.832 45.318 27.7783 45.0381 27.7783 44.6865V39.4326Z" fill="#1C1D1F"/>
<path d="M31.709 40.7168V46H30.8008V40.7168H31.709ZM30.7324 39.3154C30.7324 39.1689 30.7764 39.0452 30.8643 38.9443C30.9554 38.8434 31.0889 38.793 31.2646 38.793C31.4372 38.793 31.569 38.8434 31.6602 38.9443C31.7546 39.0452 31.8018 39.1689 31.8018 39.3154C31.8018 39.4554 31.7546 39.5758 31.6602 39.6768C31.569 39.7744 31.4372 39.8232 31.2646 39.8232C31.0889 39.8232 30.9554 39.7744 30.8643 39.6768C30.7764 39.5758 30.7324 39.4554 30.7324 39.3154Z" fill="#1C1D1F"/>
<path d="M34.1406 38.5V46H33.2324V38.5H34.1406Z" fill="#1C1D1F"/>
<path d="M38.667 44.5986C38.667 44.4684 38.6377 44.348 38.5791 44.2373C38.5238 44.1234 38.4082 44.0208 38.2324 43.9297C38.0599 43.8353 37.7995 43.7539 37.4512 43.6855C37.1582 43.6237 36.8929 43.5505 36.6553 43.4658C36.4209 43.3812 36.2207 43.2786 36.0547 43.1582C35.8919 43.0378 35.7666 42.8962 35.6787 42.7334C35.5908 42.5706 35.5469 42.3802 35.5469 42.1621C35.5469 41.9538 35.5924 41.7568 35.6836 41.5713C35.778 41.3857 35.9098 41.2214 36.0791 41.0781C36.2516 40.9349 36.4583 40.8226 36.6992 40.7412C36.9401 40.6598 37.2087 40.6191 37.5049 40.6191C37.9281 40.6191 38.2894 40.694 38.5889 40.8438C38.8883 40.9935 39.1178 41.1937 39.2773 41.4443C39.4368 41.6917 39.5166 41.9668 39.5166 42.2695H38.6133C38.6133 42.123 38.5693 41.9814 38.4814 41.8447C38.3968 41.7048 38.2715 41.5892 38.1055 41.498C37.9427 41.4069 37.7425 41.3613 37.5049 41.3613C37.2542 41.3613 37.0508 41.4004 36.8945 41.4785C36.7415 41.5534 36.6292 41.6494 36.5576 41.7666C36.4893 41.8838 36.4551 42.0075 36.4551 42.1377C36.4551 42.2354 36.4714 42.3232 36.5039 42.4014C36.5397 42.4762 36.6016 42.5462 36.6895 42.6113C36.7773 42.6732 36.901 42.7318 37.0605 42.7871C37.2201 42.8424 37.4235 42.8978 37.6709 42.9531C38.1038 43.0508 38.4603 43.168 38.7402 43.3047C39.0202 43.4414 39.2285 43.609 39.3652 43.8076C39.502 44.0062 39.5703 44.2471 39.5703 44.5303C39.5703 44.7614 39.5215 44.973 39.4238 45.165C39.3294 45.3571 39.1911 45.5231 39.0088 45.6631C38.8298 45.7998 38.6149 45.9072 38.3643 45.9854C38.1169 46.0602 37.8385 46.0977 37.5293 46.0977C37.0638 46.0977 36.6699 46.0146 36.3477 45.8486C36.0254 45.6826 35.7812 45.4678 35.6152 45.2041C35.4492 44.9404 35.3662 44.6621 35.3662 44.3691H36.2744C36.2874 44.6165 36.359 44.8135 36.4893 44.96C36.6195 45.1032 36.779 45.2057 36.9678 45.2676C37.1566 45.3262 37.3438 45.3555 37.5293 45.3555C37.7767 45.3555 37.9834 45.3229 38.1494 45.2578C38.3187 45.1927 38.4473 45.1032 38.5352 44.9893C38.623 44.8753 38.667 44.7451 38.667 44.5986Z" fill="#1C1D1F"/>
</svg>
