<svg width="50" height="50" viewBox="0 0 50 50" fill="none" xmlns="http://www.w3.org/2000/svg">
<path d="M29.9801 7.82639C39.2756 14.619 35.3867 30.3019 25.522 32C38.1374 32 42.3109 13.8198 29.9801 7.82639Z" fill="#FFCE26"/>
<path d="M20.1155 7.72641C31.1184 6.02827 35.6713 20.3127 30.8339 26.9055C38.8015 18.5146 32.4463 3.53099 20.1155 7.72641Z" fill="#0879B8"/>
<path d="M13.6655 14.619C19.0721 6.12827 30.3596 11.3226 31.4979 19.9132C32.8258 9.42468 19.5464 3.53111 13.6655 14.619Z" fill="#069B4F"/>
<path d="M13.3809 21.012C14.7088 12.2216 25.522 11.3226 29.5058 17.5158C26.2808 8.72544 13.5706 9.82424 13.3809 21.012Z" fill="#CB2034"/>
<path d="M12.3809 39.127V39.0328C12.3809 38.7131 12.4302 38.4167 12.5287 38.1434C12.6273 37.8675 12.7694 37.6284 12.955 37.4262C13.1405 37.2213 13.3652 37.0628 13.6291 36.9508C13.893 36.8361 14.1887 36.7787 14.5164 36.7787C14.8469 36.7787 15.1441 36.8361 15.408 36.9508C15.6747 37.0628 15.9009 37.2213 16.0864 37.4262C16.2749 37.6284 16.4184 37.8675 16.517 38.1434C16.6156 38.4167 16.6649 38.7131 16.6649 39.0328V39.127C16.6649 39.4467 16.6156 39.7432 16.517 40.0164C16.4184 40.2896 16.2749 40.5287 16.0864 40.7336C15.9009 40.9358 15.6762 41.0943 15.4123 41.209C15.1514 41.321 14.8556 41.377 14.5251 41.377C14.1945 41.377 13.8973 41.321 13.6335 41.209C13.3696 41.0943 13.1434 40.9358 12.955 40.7336C12.7694 40.5287 12.6273 40.2896 12.5287 40.0164C12.4302 39.7432 12.3809 39.4467 12.3809 39.127ZM13.1855 39.0328V39.127C13.1855 39.3484 13.213 39.5574 13.2681 39.7541C13.3232 39.9481 13.4058 40.1202 13.516 40.2705C13.6291 40.4208 13.7697 40.5396 13.9379 40.627C14.1061 40.7117 14.3018 40.7541 14.5251 40.7541C14.7454 40.7541 14.9382 40.7117 15.1035 40.627C15.2717 40.5396 15.4109 40.4208 15.521 40.2705C15.6312 40.1202 15.7139 39.9481 15.7689 39.7541C15.8269 39.5574 15.8559 39.3484 15.8559 39.127V39.0328C15.8559 38.8142 15.8269 38.6079 15.7689 38.4139C15.7139 38.2172 15.6298 38.0437 15.5167 37.8934C15.4065 37.7404 15.2673 37.6202 15.0992 37.5328C14.9339 37.4454 14.7396 37.4016 14.5164 37.4016C14.296 37.4016 14.1017 37.4454 13.9336 37.5328C13.7683 37.6202 13.6291 37.7404 13.516 37.8934C13.4058 38.0437 13.3232 38.2172 13.2681 38.4139C13.213 38.6079 13.1855 38.8142 13.1855 39.0328Z" fill="#7F8BA5"/>
<path d="M18.4786 37.7131V43H17.6696V36.8607H18.409L18.4786 37.7131ZM21.6492 39.041V39.127C21.6492 39.4495 21.6086 39.7486 21.5274 40.0246C21.4462 40.2978 21.3273 40.5355 21.1708 40.7377C21.0171 40.9399 20.8272 41.097 20.601 41.209C20.3748 41.321 20.1153 41.377 19.8225 41.377C19.5238 41.377 19.26 41.3306 19.0309 41.2377C18.8018 41.1448 18.6076 41.0096 18.4481 40.832C18.2886 40.6544 18.1611 40.4413 18.0654 40.1926C17.9726 39.944 17.9088 39.6639 17.874 39.3525V38.8934C17.9088 38.5656 17.974 38.2719 18.0697 38.0123C18.1654 37.7527 18.2915 37.5314 18.4481 37.3484C18.6076 37.1626 18.8004 37.0219 19.0266 36.9262C19.2527 36.8279 19.5137 36.7787 19.8094 36.7787C20.1052 36.7787 20.3676 36.8333 20.5967 36.9426C20.8257 37.0492 21.0185 37.2022 21.1751 37.4016C21.3317 37.6011 21.4491 37.8402 21.5274 38.1189C21.6086 38.3948 21.6492 38.7022 21.6492 39.041ZM20.8402 39.127V39.041C20.8402 38.8197 20.8156 38.612 20.7663 38.418C20.717 38.2213 20.6401 38.0492 20.5358 37.9016C20.4343 37.7514 20.3038 37.6339 20.1443 37.5492C19.9849 37.4617 19.7949 37.418 19.5746 37.418C19.3716 37.418 19.1947 37.4508 19.044 37.5164C18.8961 37.582 18.77 37.6708 18.6656 37.7828C18.5612 37.8921 18.4757 38.0178 18.409 38.1598C18.3452 38.2992 18.2973 38.444 18.2654 38.5943V39.6557C18.3234 39.847 18.4046 40.0273 18.509 40.1967C18.6134 40.3634 18.7526 40.4986 18.9265 40.6025C19.1005 40.7036 19.3194 40.7541 19.5833 40.7541C19.8007 40.7541 19.9878 40.7117 20.1443 40.627C20.3038 40.5396 20.4343 40.4208 20.5358 40.2705C20.6401 40.1202 20.717 39.9481 20.7663 39.7541C20.8156 39.5574 20.8402 39.3484 20.8402 39.127Z" fill="#7F8BA5"/>
<path d="M25.5548 40.2705V36.8607H26.3638V41.2951H25.594L25.5548 40.2705ZM25.7071 39.3361L26.042 39.3279C26.042 39.623 26.0086 39.8962 25.9419 40.1475C25.8781 40.3962 25.7737 40.612 25.6288 40.7951C25.4838 40.9781 25.2939 41.1216 25.059 41.2254C24.8242 41.3265 24.5385 41.377 24.2022 41.377C23.9731 41.377 23.7629 41.3456 23.5716 41.2828C23.3831 41.2199 23.2207 41.123 23.0844 40.9918C22.9482 40.8607 22.8423 40.6899 22.7669 40.4795C22.6945 40.2691 22.6582 40.0164 22.6582 39.7213V36.8607H23.4628V39.7295C23.4628 39.929 23.486 40.0943 23.5324 40.2254C23.5817 40.3538 23.6469 40.4563 23.7281 40.5328C23.8122 40.6066 23.905 40.6585 24.0065 40.6885C24.1109 40.7186 24.2182 40.7336 24.3283 40.7336C24.6705 40.7336 24.9416 40.6721 25.1416 40.5492C25.3417 40.4235 25.4852 40.2555 25.5722 40.0451C25.6621 39.832 25.7071 39.5956 25.7071 39.3361Z" fill="#7F8BA5"/>
<path d="M29.5605 36.8607V37.4426H27.0162V36.8607H29.5605ZM27.8773 35.7828H28.682V40.1967C28.682 40.347 28.7066 40.4604 28.7559 40.5369C28.8052 40.6134 28.869 40.6639 28.9473 40.6885C29.0256 40.7131 29.1096 40.7254 29.1995 40.7254C29.2662 40.7254 29.3358 40.7199 29.4083 40.709C29.4837 40.6954 29.5402 40.6844 29.5779 40.6762L29.5823 41.2951C29.5185 41.3142 29.4344 41.332 29.33 41.3484C29.2285 41.3675 29.1053 41.377 28.9603 41.377C28.7632 41.377 28.5819 41.3402 28.4167 41.2664C28.2514 41.1926 28.1195 41.0697 28.0209 40.8975C27.9252 40.7227 27.8773 40.4877 27.8773 40.1926V35.7828Z" fill="#7F8BA5"/>
<path d="M31.3785 36.8607V41.2951H30.5696V36.8607H31.3785ZM30.5087 35.6844C30.5087 35.5615 30.5478 35.4577 30.6261 35.373C30.7073 35.2883 30.8262 35.2459 30.9827 35.2459C31.1364 35.2459 31.2538 35.2883 31.335 35.373C31.4191 35.4577 31.4612 35.5615 31.4612 35.6844C31.4612 35.8019 31.4191 35.903 31.335 35.9877C31.2538 36.0697 31.1364 36.1107 30.9827 36.1107C30.8262 36.1107 30.7073 36.0697 30.6261 35.9877C30.5478 35.903 30.5087 35.8019 30.5087 35.6844Z" fill="#7F8BA5"/>
<path d="M33.5445 35V41.2951H32.7355V35H33.5445Z" fill="#7F8BA5"/>
<path d="M37.5762 40.1189C37.5762 40.0096 37.5501 39.9085 37.498 39.8156C37.4487 39.7199 37.3457 39.6339 37.1892 39.5574C37.0355 39.4781 36.8035 39.4098 36.4933 39.3525C36.2323 39.3005 35.996 39.2391 35.7843 39.168C35.5756 39.097 35.3973 39.0109 35.2494 38.9098C35.1044 38.8087 34.9928 38.6899 34.9145 38.5533C34.8362 38.4167 34.7971 38.2568 34.7971 38.0738C34.7971 37.8989 34.8376 37.7336 34.9188 37.5779C35.0029 37.4221 35.1203 37.2842 35.2711 37.1639C35.4248 37.0437 35.6089 36.9495 35.8235 36.8811C36.038 36.8128 36.2773 36.7787 36.5411 36.7787C36.9181 36.7787 37.2399 36.8415 37.5067 36.9672C37.7734 37.0929 37.9778 37.2609 38.1199 37.4713C38.262 37.679 38.333 37.9098 38.333 38.1639H37.5284C37.5284 38.041 37.4893 37.9221 37.411 37.8074C37.3356 37.6899 37.224 37.5929 37.0761 37.5164C36.9311 37.4399 36.7528 37.4016 36.5411 37.4016C36.3179 37.4016 36.1366 37.4344 35.9975 37.5C35.8612 37.5628 35.7611 37.6434 35.6974 37.7418C35.6365 37.8402 35.606 37.944 35.606 38.0533C35.606 38.1352 35.6205 38.209 35.6495 38.2746C35.6814 38.3374 35.7365 38.3962 35.8148 38.4508C35.8931 38.5027 36.0033 38.5519 36.1453 38.5984C36.2874 38.6448 36.4686 38.6913 36.689 38.7377C37.0746 38.8197 37.3921 38.918 37.6415 39.0328C37.8908 39.1475 38.0764 39.2883 38.1982 39.4549C38.32 39.6216 38.3809 39.8238 38.3809 40.0615C38.3809 40.2555 38.3374 40.4331 38.2504 40.5943C38.1663 40.7555 38.0431 40.8948 37.8807 41.0123C37.7212 41.127 37.5299 41.2172 37.3066 41.2828C37.0862 41.3456 36.8383 41.377 36.5629 41.377C36.1482 41.377 35.7974 41.3074 35.5103 41.168C35.2233 41.0287 35.0058 40.8484 34.8579 40.627C34.7101 40.4057 34.6361 40.1721 34.6361 39.9262H35.4451C35.4567 40.1339 35.5205 40.2992 35.6365 40.4221C35.7524 40.5423 35.8945 40.6284 36.0627 40.6803C36.2309 40.7295 36.3976 40.7541 36.5629 40.7541C36.7832 40.7541 36.9673 40.7268 37.1152 40.6721C37.266 40.6175 37.3805 40.5423 37.4588 40.4467C37.5371 40.3511 37.5762 40.2418 37.5762 40.1189Z" fill="#7F8BA5"/>
</svg>
