<svg width="50" height="50" viewBox="0 0 50 50" fill="none" xmlns="http://www.w3.org/2000/svg">
<path d="M18.186 31.7816C11.5299 31.7816 6.20508 26.4483 6.20508 19.7816C6.20508 13.1149 11.5299 7.78162 18.186 7.78162H32.2242C38.8802 7.78162 44.2051 13.1149 44.2051 19.7816C44.2051 26.4483 38.8802 31.7816 32.2242 31.7816H18.186ZM31.8611 27.5392C36.2178 27.5392 39.6064 24.024 39.6064 19.7816C39.6064 15.418 36.0968 12.024 31.8611 12.024H18.549C14.1923 12.024 10.8038 15.5392 10.8038 19.7816C10.8038 24.024 14.3134 27.5392 18.549 27.5392H31.8611Z" fill="#C74634"/>
<path d="M19.7686 45L17.1416 37.8906H18.1621L20.179 43.7514L22.2148 37.8906H23.2354L20.6035 45H19.7686Z" fill="black"/>
<path d="M25.4033 37.8906H24.1924V45H25.1299V42.2266L25.0392 39.2455L27.3711 45H28.084L30.4205 39.2535L30.3301 42.2266V45H31.2676V37.8906H30.0566L27.7324 43.6865L25.4033 37.8906Z" fill="black"/>
</svg>
