<svg width="50" height="50" viewBox="0 0 50 50" fill="none" xmlns="http://www.w3.org/2000/svg">
<rect width="50" height="50" fill="#C74634"/>
<path d="M19.4586 27.4587C14.2038 27.4587 10 23.2548 10 18.0001C10 12.7453 14.2038 8.5415 19.4586 8.5415H30.5414C35.7962 8.5415 40 12.7453 40 18.0001C40 23.2548 35.7962 27.4587 30.5414 27.4587H19.4586ZM30.2548 24.1147C33.6942 24.1147 36.3694 21.344 36.3694 18.0001C36.3694 14.5606 33.5987 11.8854 30.2548 11.8854H19.7452C16.3057 11.8854 13.6306 14.6561 13.6306 18.0001C13.6306 21.344 16.4013 24.1147 19.7452 24.1147H30.2548Z" fill="white"/>
<path d="M24.331 34.0001C25.7794 34.0003 26.5496 34.8729 26.6816 36.1407H25.8379C25.7187 35.2722 25.2216 34.6946 24.331 34.6944C22.7214 34.6944 22.6035 36.3851 22.6035 37.6085C22.6036 38.6497 23.0582 39.8848 24.2558 39.8848C25.3387 39.8848 25.6977 39.3451 25.8379 38.4522H26.6816C26.5369 39.7818 25.5481 40.5743 24.2558 40.5743C22.7584 40.5743 21.7599 39.3918 21.7598 37.6085C21.7598 35.9017 22.2414 34.0001 24.331 34.0001Z" fill="white"/>
<path d="M20.9648 34.088V34.7823H17.8486V36.9669H20.5293V37.6612H17.8486V40.4864H17V34.088H20.9648Z" fill="white"/>
<path fill-rule="evenodd" clip-rule="evenodd" d="M32.8515 40.4864H31.9814L31.3721 38.8126H28.6963L28.0879 40.4864H27.2226L29.6611 34.088H30.4043L32.8515 40.4864ZM28.9482 38.1182H31.1191L30.0322 35.1319L28.9482 38.1182Z" fill="white"/>
</svg>
