<svg width="50" height="50" viewBox="0 0 50 50" fill="none" xmlns="http://www.w3.org/2000/svg">
<path d="M21.6549 22.2629H24.2019L22.8521 20.0915L20.3756 24.0117H19.2488L22.2535 19.3052C22.3826 19.1174 22.6056 19 22.8404 19C23.0751 19 23.2981 19.1174 23.4155 19.2934L26.4319 24.0117H25.3052L24.777 23.1315H22.1948L21.6549 22.2629ZM33.3451 23.1432V19.0469H32.3944V23.5423C32.3944 23.6596 32.4413 23.7887 32.5352 23.8709C32.6291 23.9648 32.7465 24.0117 32.8873 24.0117H37.2418L37.8052 23.1315L33.3451 23.1432ZM17.5469 22.4038C18.4742 22.4038 19.2254 21.6526 19.2254 20.7254C19.2254 19.7981 18.4742 19.0469 17.5469 19.0469H13.3685V24.0117H14.3192V19.9272H17.4883C17.9343 19.9272 18.2864 20.2911 18.2864 20.7254C18.2864 21.1714 17.9225 21.5352 17.4883 21.5352H14.8005L17.6526 24.0235H19.0376L17.1127 22.4038H17.5469ZM7.48826 24.0235H10.3756C11.7488 24.0235 12.8521 22.9085 12.8521 21.547C12.8521 20.1737 11.7488 19.0587 10.3756 19.0587H7.48826C6.11502 19.0587 5 20.1737 5 21.547C5.01174 22.9085 6.12676 24.0235 7.48826 24.0235ZM10.3169 23.1432H7.55869C6.66667 23.1432 5.9507 22.4272 5.9507 21.5352C5.9507 20.6432 6.66667 19.9272 7.55869 19.9272H10.3169C11.2089 19.9272 11.9249 20.6432 11.9249 21.5352C11.9249 22.4272 11.2089 23.1432 10.3169 23.1432ZM28.4507 24.0235H31.3967L31.9601 23.1549H28.5211C27.6291 23.1549 26.9131 22.439 26.9131 21.547C26.9131 20.6549 27.6291 19.939 28.5211 19.939H31.3263L31.8897 19.0587H28.4624C27.0892 19.0587 25.9742 20.1737 25.9742 21.547C25.9624 22.9085 27.0775 24.0235 28.4507 24.0235ZM40.1291 23.1432C39.3897 23.1432 38.7676 22.6502 38.5798 21.9695H42.6643L43.2277 21.0892H38.5798C38.7676 20.4084 39.3897 19.9155 40.1291 19.9155H42.9343L43.4977 19.0352H40.0704C38.6972 19.0352 37.5822 20.1502 37.5822 21.5235C37.5822 22.8967 38.6972 24 40.0704 24H43.0164L43.5798 23.1315L40.1291 23.1432Z" fill="#ED1C24"/>
<path d="M7.19404 29.015H7.71061C7.68839 29.2038 7.62451 29.3726 7.51898 29.5213C7.41529 29.67 7.2681 29.787 7.07739 29.8722C6.88854 29.9574 6.65432 30 6.37475 30C6.16552 30 5.97667 29.9683 5.80818 29.9048C5.6397 29.8396 5.49528 29.7477 5.37493 29.6291C5.25458 29.5088 5.16201 29.3642 5.0972 29.1955C5.0324 29.0267 5 28.8379 5 28.6291V28.3734C5 28.1646 5.0324 27.9758 5.0972 27.807C5.16201 27.6383 5.25551 27.4937 5.37771 27.3734C5.49991 27.2531 5.6471 27.1612 5.81929 27.0977C5.99333 27.0326 6.18774 27 6.40252 27C6.67284 27 6.90057 27.0426 7.08572 27.1278C7.27088 27.2114 7.41529 27.3283 7.51898 27.4787C7.62451 27.6291 7.68839 27.802 7.71061 27.9975H7.19404C7.17552 27.8688 7.13757 27.7586 7.08017 27.6667C7.02277 27.5748 6.93946 27.5046 6.83022 27.4561C6.72098 27.406 6.57841 27.381 6.40252 27.381C6.25625 27.381 6.12757 27.4035 6.01648 27.4486C5.90539 27.4921 5.81189 27.5572 5.73597 27.6441C5.66191 27.7293 5.60544 27.8329 5.56656 27.9549C5.52953 28.0769 5.51102 28.2155 5.51102 28.3709V28.6291C5.51102 28.7761 5.52768 28.9106 5.56101 29.0326C5.59619 29.1529 5.64895 29.2573 5.71931 29.3459C5.78967 29.4344 5.87947 29.5029 5.98871 29.5514C6.09794 29.5982 6.22662 29.6216 6.37475 29.6216C6.5599 29.6216 6.70802 29.5982 6.81911 29.5514C6.9302 29.5046 7.01444 29.4361 7.07184 29.3459C7.13109 29.254 7.17182 29.1437 7.19404 29.015Z" fill="black"/>
<path d="M10.4379 29.5789V29.9599H8.81874V29.5789H10.4379ZM8.81874 27.0401V29.9599H8.30494V27.0401H8.81874Z" fill="black"/>
<path d="M13.604 28.4185V28.584C13.604 28.8045 13.5706 29.0025 13.504 29.1779C13.4373 29.3517 13.342 29.5004 13.2179 29.6241C13.0939 29.746 12.9448 29.8396 12.7708 29.9048C12.5986 29.9683 12.406 30 12.1931 30C11.9839 30 11.7923 29.9683 11.6182 29.9048C11.446 29.8396 11.2961 29.746 11.1683 29.6241C11.0424 29.5004 10.9452 29.3517 10.8767 29.1779C10.8082 29.0025 10.7739 28.8045 10.7739 28.584V28.4185C10.7739 28.198 10.8082 28.0008 10.8767 27.8271C10.9452 27.6516 11.0415 27.5021 11.1655 27.3784C11.2914 27.2548 11.4405 27.1612 11.6127 27.0977C11.7867 27.0326 11.9783 27 12.1876 27C12.4023 27 12.5958 27.0326 12.768 27.0977C12.942 27.1612 13.0911 27.2548 13.2151 27.3784C13.341 27.5021 13.4373 27.6516 13.504 27.8271C13.5706 28.0008 13.604 28.198 13.604 28.4185ZM13.0957 28.584V28.4135C13.0957 28.2481 13.0754 28.1019 13.0346 27.9749C12.9939 27.848 12.9346 27.741 12.8569 27.6541C12.7791 27.5673 12.6838 27.5013 12.5708 27.4561C12.4579 27.411 12.3301 27.3885 12.1876 27.3885C12.0505 27.3885 11.9265 27.411 11.8154 27.4561C11.7043 27.5013 11.609 27.5673 11.5293 27.6541C11.4516 27.741 11.3914 27.848 11.3488 27.9749C11.3062 28.1019 11.2849 28.2481 11.2849 28.4135V28.584C11.2849 28.7494 11.3062 28.8964 11.3488 29.0251C11.3914 29.152 11.4525 29.2598 11.5321 29.3484C11.6117 29.4353 11.7071 29.5013 11.8182 29.5464C11.9311 29.5915 12.0561 29.614 12.1931 29.614C12.3375 29.614 12.4653 29.5915 12.5764 29.5464C12.6875 29.5013 12.7819 29.4353 12.8597 29.3484C12.9374 29.2598 12.9957 29.152 13.0346 29.0251C13.0754 28.8964 13.0957 28.7494 13.0957 28.584Z" fill="black"/>
<path d="M16.2313 27.0401H16.7478V28.995C16.7478 29.2155 16.6895 29.401 16.5729 29.5514C16.4581 29.7001 16.3035 29.812 16.1091 29.8872C15.9165 29.9624 15.7036 30 15.4703 30C15.2277 30 15.0102 29.9624 14.8176 29.8872C14.6269 29.812 14.476 29.7001 14.3649 29.5514C14.2538 29.401 14.1983 29.2155 14.1983 28.995V27.0401H14.7065V28.995C14.7065 29.1387 14.738 29.2573 14.801 29.3509C14.8658 29.4428 14.9556 29.5113 15.0704 29.5564C15.1852 29.5998 15.3185 29.6216 15.4703 29.6216C15.624 29.6216 15.7573 29.5998 15.8702 29.5564C15.985 29.5113 16.0739 29.4428 16.1368 29.3509C16.1998 29.2573 16.2313 29.1387 16.2313 28.995V27.0401Z" fill="black"/>
<path d="M18.4197 29.9599H17.967L17.9698 29.5789H18.4197C18.6586 29.5789 18.8567 29.5388 19.0141 29.4586C19.1733 29.3784 19.2918 29.264 19.3696 29.1153C19.4473 28.9649 19.4862 28.787 19.4862 28.5815V28.416C19.4862 28.2573 19.464 28.1161 19.4196 27.9925C19.3751 27.8688 19.3094 27.7652 19.2224 27.6817C19.1353 27.5965 19.027 27.5322 18.8974 27.4887C18.7697 27.4453 18.6216 27.4236 18.4531 27.4236H17.967V27.0401H18.4531C18.6827 27.0401 18.8919 27.0727 19.0807 27.1378C19.2714 27.2013 19.4353 27.2941 19.5723 27.416C19.7093 27.5363 19.8148 27.6817 19.8889 27.8521C19.963 28.0209 20 28.2105 20 28.4211V28.5815C20 28.8605 19.9343 29.1036 19.8028 29.3108C19.6732 29.518 19.4899 29.6784 19.2529 29.792C19.0178 29.9039 18.74 29.9599 18.4197 29.9599ZM17.967 27.0401V29.9599H17.4532V27.0401H17.967Z" fill="black"/>
</svg>
