<svg width="50" height="50" viewBox="0 0 50 50" fill="none" xmlns="http://www.w3.org/2000/svg">
<path d="M22.6549 19.2629H25.2019L23.8521 17.0915L21.3756 21.0117H20.2488L23.2535 16.3052C23.3826 16.1174 23.6056 16 23.8404 16C24.0751 16 24.2981 16.1174 24.4155 16.2934L27.4319 21.0117H26.3052L25.777 20.1315H23.1948L22.6549 19.2629ZM34.3451 20.1432V16.0469H33.3944V20.5423C33.3944 20.6596 33.4413 20.7887 33.5352 20.8709C33.6291 20.9648 33.7465 21.0117 33.8873 21.0117H38.2418L38.8052 20.1315L34.3451 20.1432ZM18.5469 19.4038C19.4742 19.4038 20.2254 18.6526 20.2254 17.7254C20.2254 16.7981 19.4742 16.0469 18.5469 16.0469H14.3685V21.0117H15.3192V16.9272H18.4883C18.9343 16.9272 19.2864 17.2911 19.2864 17.7254C19.2864 18.1714 18.9225 18.5352 18.4883 18.5352H15.8005L18.6526 21.0235H20.0376L18.1127 19.4038H18.5469ZM8.48826 21.0235H11.3756C12.7488 21.0235 13.8521 19.9085 13.8521 18.547C13.8521 17.1737 12.7488 16.0587 11.3756 16.0587H8.48826C7.11502 16.0587 6 17.1737 6 18.547C6.01174 19.9085 7.12676 21.0235 8.48826 21.0235ZM11.3169 20.1432H8.55869C7.66667 20.1432 6.9507 19.4272 6.9507 18.5352C6.9507 17.6432 7.66667 16.9272 8.55869 16.9272H11.3169C12.2089 16.9272 12.9249 17.6432 12.9249 18.5352C12.9249 19.4272 12.2089 20.1432 11.3169 20.1432ZM29.4507 21.0235H32.3967L32.9601 20.1549H29.5211C28.6291 20.1549 27.9131 19.439 27.9131 18.547C27.9131 17.6549 28.6291 16.939 29.5211 16.939H32.3263L32.8897 16.0587H29.4624C28.0892 16.0587 26.9742 17.1737 26.9742 18.547C26.9624 19.9085 28.0775 21.0235 29.4507 21.0235ZM41.1291 20.1432C40.3897 20.1432 39.7676 19.6502 39.5798 18.9695H43.6643L44.2277 18.0892H39.5798C39.7676 17.4084 40.3897 16.9155 41.1291 16.9155H43.9343L44.4977 16.0352H41.0704C39.6972 16.0352 38.5822 17.1502 38.5822 18.5235C38.5822 19.8967 39.6972 21 41.0704 21H44.0164L44.5798 20.1315L41.1291 20.1432Z" fill="#ED1C24"/>
<path d="M33.0781 27.7734V32H32.3516V27.7734H33.0781Z" fill="#1C1D1F"/>
<path d="M32.2969 26.6523C32.2969 26.5352 32.332 26.4362 32.4023 26.3555C32.4753 26.2747 32.582 26.2344 32.7227 26.2344C32.8607 26.2344 32.9661 26.2747 33.0391 26.3555C33.1146 26.4362 33.1523 26.5352 33.1523 26.6523C33.1523 26.7643 33.1146 26.8607 33.0391 26.9414C32.9661 27.0195 32.8607 27.0586 32.7227 27.0586C32.582 27.0586 32.4753 27.0195 32.4023 26.9414C32.332 26.8607 32.2969 26.7643 32.2969 26.6523Z" fill="#1C1D1F"/>
<path fill-rule="evenodd" clip-rule="evenodd" d="M40.125 32.0781C39.8307 32.0781 39.5638 32.0286 39.3242 31.9297C39.0872 31.8281 38.8828 31.6862 38.7109 31.5039C38.5417 31.3216 38.4115 31.1055 38.3203 30.8555C38.2292 30.6055 38.1836 30.332 38.1836 30.0352V29.8711C38.1836 29.5273 38.2344 29.2214 38.3359 28.9531C38.4375 28.6823 38.5755 28.4531 38.75 28.2656C38.9245 28.0781 39.1224 27.9362 39.3438 27.8398C39.5651 27.7435 39.7943 27.6953 40.0312 27.6953C40.3333 27.6953 40.5938 27.7474 40.8125 27.8516C41.0339 27.9557 41.2148 28.1016 41.3555 28.2891C41.4961 28.474 41.6003 28.6927 41.668 28.9453C41.7357 29.1953 41.7695 29.4688 41.7695 29.7656V30.0898H38.9108C38.9154 30.2701 38.9425 30.4407 38.9922 30.6016C39.0495 30.776 39.1315 30.9297 39.2383 31.0625C39.3477 31.1953 39.4792 31.2995 39.6328 31.375C39.7891 31.4505 39.9661 31.4883 40.1641 31.4883C40.4193 31.4883 40.6354 31.4362 40.8125 31.332C40.9896 31.2279 41.1445 31.0885 41.2773 30.9141L41.7148 31.2617C41.6237 31.3997 41.5078 31.5312 41.3672 31.6562C41.2266 31.7812 41.0534 31.8828 40.8477 31.9609C40.6445 32.0391 40.4036 32.0781 40.125 32.0781ZM38.9922 29.1953C38.9657 29.2899 38.9456 29.3914 38.932 29.5H41.0469V29.4453C41.0365 29.2578 40.9974 29.0755 40.9297 28.8984C40.8646 28.7214 40.7604 28.5755 40.6172 28.4609C40.474 28.3464 40.2786 28.2891 40.0312 28.2891C39.8672 28.2891 39.7161 28.3242 39.5781 28.3945C39.4401 28.4622 39.3216 28.5638 39.2227 28.6992C39.1237 28.8346 39.0469 29 38.9922 29.1953Z" fill="#1C1D1F"/>
<path d="M7.62891 33.3125H6.66016V39H7.41016L7.33764 34.3964L9.20312 39H9.77344L11.6426 34.4028L11.5703 39H12.3203V33.3125H11.3516L9.49219 37.9492L7.62891 33.3125Z" fill="#1C1D1F"/>
<path fill-rule="evenodd" clip-rule="evenodd" d="M15.9336 38.6602C15.9725 38.625 16.0092 38.5893 16.0437 38.5533C16.0478 38.5907 16.0528 38.6289 16.0586 38.668C16.0794 38.806 16.1081 38.9167 16.1445 39H16.8984V38.9375C16.849 38.8229 16.8112 38.6862 16.7852 38.5273C16.7617 38.3685 16.75 38.2188 16.75 38.0781V36.1094C16.75 35.7943 16.6823 35.5326 16.5469 35.3242C16.4141 35.1133 16.2292 34.9557 15.9922 34.8516C15.7578 34.7474 15.487 34.6953 15.1797 34.6953C14.9245 34.6953 14.6927 34.7318 14.4844 34.8047C14.2786 34.875 14.1016 34.9714 13.9531 35.0938C13.8073 35.2135 13.6953 35.3477 13.6172 35.4961C13.5391 35.6445 13.5 35.7943 13.5 35.9453H14.2227C14.2227 35.8281 14.2604 35.7188 14.3359 35.6172C14.4141 35.5156 14.5208 35.4336 14.6562 35.3711C14.7943 35.3086 14.9544 35.2773 15.1367 35.2773C15.332 35.2773 15.4961 35.3112 15.6289 35.3789C15.7617 35.4466 15.8607 35.543 15.9258 35.668C15.9935 35.7904 16.0273 35.9349 16.0273 36.1016V36.4375H15.3125C15.0234 36.4375 14.7617 36.4674 14.5273 36.5273C14.293 36.5872 14.0924 36.6758 13.9258 36.793C13.7591 36.9076 13.6315 37.0521 13.543 37.2266C13.4544 37.3984 13.4102 37.5977 13.4102 37.8242C13.4102 38.0586 13.4688 38.2708 13.5859 38.4609C13.7057 38.6484 13.8724 38.7982 14.0859 38.9102C14.3021 39.0221 14.5534 39.0781 14.8398 39.0781C15.069 39.0781 15.2747 39.0391 15.457 38.9609C15.6419 38.8802 15.8008 38.7799 15.9336 38.6602ZM15.9336 37.9609C15.9713 37.9107 16.0026 37.8609 16.0273 37.8117V36.9453H15.4297C15.224 36.9453 15.0404 36.9622 14.8789 36.9961C14.7174 37.0273 14.582 37.0755 14.4727 37.1406C14.3633 37.2057 14.2799 37.2878 14.2227 37.3867C14.1654 37.4831 14.1367 37.5964 14.1367 37.7266C14.1367 37.8594 14.1667 37.9805 14.2266 38.0898C14.2865 38.1992 14.3763 38.2865 14.4961 38.3516C14.6185 38.4141 14.7682 38.4453 14.9453 38.4453C15.1667 38.4453 15.362 38.3984 15.5312 38.3047C15.7005 38.2109 15.8346 38.0964 15.9336 37.9609Z" fill="#1C1D1F"/>
<path d="M18.6094 35.9837V39H17.8867V34.7734H18.5703L18.5931 35.2993C18.601 35.2893 18.6091 35.2794 18.6172 35.2695C18.7682 35.0872 18.9479 34.9466 19.1562 34.8477C19.3672 34.7461 19.6003 34.6953 19.8555 34.6953C20.0638 34.6953 20.2513 34.724 20.418 34.7812C20.5846 34.8359 20.7266 34.9245 20.8438 35.0469C20.9635 35.1693 21.0547 35.3281 21.1172 35.5234C21.1797 35.7161 21.2109 35.9518 21.2109 36.2305V39H20.4844V36.2227C20.4844 36.0013 20.4518 35.8242 20.3867 35.6914C20.3216 35.556 20.2266 35.4583 20.1016 35.3984C19.9766 35.3359 19.8229 35.3047 19.6406 35.3047C19.4609 35.3047 19.2969 35.3424 19.1484 35.418C19.0026 35.4935 18.8763 35.5977 18.7695 35.7305C18.7086 35.8082 18.6552 35.8926 18.6094 35.9837Z" fill="#1C1D1F"/>
<path fill-rule="evenodd" clip-rule="evenodd" d="M24.707 38.6602C24.746 38.625 24.7827 38.5893 24.8171 38.5533C24.8213 38.5907 24.8262 38.6289 24.832 38.668C24.8529 38.806 24.8815 38.9167 24.918 39H25.6719V38.9375C25.6224 38.8229 25.5846 38.6862 25.5586 38.5273C25.5352 38.3685 25.5234 38.2188 25.5234 38.0781V36.1094C25.5234 35.7943 25.4557 35.5326 25.3203 35.3242C25.1875 35.1133 25.0026 34.9557 24.7656 34.8516C24.5312 34.7474 24.2604 34.6953 23.9531 34.6953C23.6979 34.6953 23.4661 34.7318 23.2578 34.8047C23.0521 34.875 22.875 34.9714 22.7266 35.0938C22.5807 35.2135 22.4688 35.3477 22.3906 35.4961C22.3125 35.6445 22.2734 35.7943 22.2734 35.9453H22.9961C22.9961 35.8281 23.0339 35.7188 23.1094 35.6172C23.1875 35.5156 23.2943 35.4336 23.4297 35.3711C23.5677 35.3086 23.7279 35.2773 23.9102 35.2773C24.1055 35.2773 24.2695 35.3112 24.4023 35.3789C24.5352 35.4466 24.6341 35.543 24.6992 35.668C24.7669 35.7904 24.8008 35.9349 24.8008 36.1016V36.4375H24.0859C23.7969 36.4375 23.5352 36.4674 23.3008 36.5273C23.0664 36.5872 22.8659 36.6758 22.6992 36.793C22.5326 36.9076 22.4049 37.0521 22.3164 37.2266C22.2279 37.3984 22.1836 37.5977 22.1836 37.8242C22.1836 38.0586 22.2422 38.2708 22.3594 38.4609C22.4792 38.6484 22.6458 38.7982 22.8594 38.9102C23.0755 39.0221 23.3268 39.0781 23.6133 39.0781C23.8424 39.0781 24.0482 39.0391 24.2305 38.9609C24.4154 38.8802 24.5742 38.7799 24.707 38.6602ZM24.707 37.9609C24.7447 37.9107 24.776 37.8609 24.8008 37.8117V36.9453H24.2031C23.9974 36.9453 23.8138 36.9622 23.6523 36.9961C23.4909 37.0273 23.3555 37.0755 23.2461 37.1406C23.1367 37.2057 23.0534 37.2878 22.9961 37.3867C22.9388 37.4831 22.9102 37.5964 22.9102 37.7266C22.9102 37.8594 22.9401 37.9805 23 38.0898C23.0599 38.1992 23.1497 38.2865 23.2695 38.3516C23.3919 38.4141 23.5417 38.4453 23.7188 38.4453C23.9401 38.4453 24.1354 38.3984 24.3047 38.3047C24.474 38.2109 24.6081 38.0964 24.707 37.9609Z" fill="#1C1D1F"/>
<path fill-rule="evenodd" clip-rule="evenodd" d="M30.0547 34.7734H29.3984L29.3648 35.245L29.3594 35.2383C29.2214 35.0612 29.0521 34.9271 28.8516 34.8359C28.6536 34.7422 28.4219 34.6953 28.1562 34.6953C27.8984 34.6953 27.6667 34.7474 27.4609 34.8516C27.2552 34.9531 27.0794 35.099 26.9336 35.2891C26.7904 35.4792 26.6797 35.707 26.6016 35.9727C26.526 36.2357 26.4883 36.5286 26.4883 36.8516V36.9336C26.4883 37.2409 26.526 37.526 26.6016 37.7891C26.6797 38.0495 26.7917 38.276 26.9375 38.4688C27.0833 38.6615 27.2578 38.8112 27.4609 38.918C27.6667 39.0247 27.8958 39.0781 28.1484 39.0781C28.4167 39.0781 28.651 39.0326 28.8516 38.9414C29.039 38.8538 29.1992 38.7308 29.332 38.5726V38.9453C29.332 39.1901 29.2852 39.3958 29.1914 39.5625C29.1003 39.7318 28.9714 39.8594 28.8047 39.9453C28.638 40.0312 28.4401 40.0742 28.2109 40.0742C28.0208 40.0742 27.8281 40.0326 27.6328 39.9492C27.4401 39.8659 27.2552 39.7174 27.0781 39.5039L26.6992 39.9336C26.8268 40.1159 26.9844 40.2604 27.1719 40.3672C27.362 40.4766 27.5547 40.5534 27.75 40.5977C27.9479 40.6445 28.1198 40.668 28.2656 40.668C28.6172 40.668 28.9271 40.599 29.1953 40.4609C29.4661 40.3255 29.6771 40.1263 29.8281 39.8633C29.9792 39.6003 30.0547 39.2826 30.0547 38.9102V34.7734ZM29.332 35.9197V37.8299C29.3182 37.857 29.3039 37.8838 29.2891 37.9102C29.1979 38.0768 29.0742 38.2109 28.918 38.3125C28.7617 38.4141 28.5638 38.4648 28.3242 38.4648C28.1289 38.4648 27.9609 38.4258 27.8203 38.3477C27.6797 38.2669 27.5638 38.1562 27.4727 38.0156C27.3841 37.875 27.3177 37.7122 27.2734 37.5273C27.2318 37.3424 27.2109 37.1445 27.2109 36.9336V36.8516C27.2109 36.6406 27.2318 36.4427 27.2734 36.2578C27.3177 36.0703 27.3841 35.9062 27.4727 35.7656C27.5638 35.6224 27.6797 35.5104 27.8203 35.4297C27.9635 35.3464 28.1341 35.3047 28.332 35.3047C28.5143 35.3047 28.6732 35.3359 28.8086 35.3984C28.944 35.4609 29.0573 35.5456 29.1484 35.6523C29.2204 35.7323 29.2816 35.8214 29.332 35.9197Z" fill="#1C1D1F"/>
<path fill-rule="evenodd" clip-rule="evenodd" d="M32.9062 39.0781C32.612 39.0781 32.3451 39.0286 32.1055 38.9297C31.8685 38.8281 31.6641 38.6862 31.4922 38.5039C31.3229 38.3216 31.1927 38.1055 31.1016 37.8555C31.0104 37.6055 30.9648 37.332 30.9648 37.0352V36.8711C30.9648 36.5273 31.0156 36.2214 31.1172 35.9531C31.2188 35.6823 31.3568 35.4531 31.5312 35.2656C31.7057 35.0781 31.9036 34.9362 32.125 34.8398C32.3464 34.7435 32.5755 34.6953 32.8125 34.6953C33.1146 34.6953 33.375 34.7474 33.5938 34.8516C33.8151 34.9557 33.9961 35.1016 34.1367 35.2891C34.2773 35.474 34.3815 35.6927 34.4492 35.9453C34.5169 36.1953 34.5508 36.4688 34.5508 36.7656V37.0898H31.6921C31.6966 37.2701 31.7237 37.4407 31.7734 37.6016C31.8307 37.776 31.9128 37.9297 32.0195 38.0625C32.1289 38.1953 32.2604 38.2995 32.4141 38.375C32.5703 38.4505 32.7474 38.4883 32.9453 38.4883C33.2005 38.4883 33.4167 38.4362 33.5938 38.332C33.7708 38.2279 33.9258 38.0885 34.0586 37.9141L34.4961 38.2617C34.4049 38.3997 34.2891 38.5312 34.1484 38.6562C34.0078 38.7812 33.8346 38.8828 33.6289 38.9609C33.4258 39.0391 33.1849 39.0781 32.9062 39.0781ZM31.7734 36.1953C31.747 36.2899 31.7269 36.3914 31.7132 36.5H33.8281V36.4453C33.8177 36.2578 33.7786 36.0755 33.7109 35.8984C33.6458 35.7214 33.5417 35.5755 33.3984 35.4609C33.2552 35.3464 33.0599 35.2891 32.8125 35.2891C32.6484 35.2891 32.4974 35.3242 32.3594 35.3945C32.2214 35.4622 32.1029 35.5638 32.0039 35.6992C31.9049 35.8346 31.8281 36 31.7734 36.1953Z" fill="#1C1D1F"/>
<path d="M36.1172 39V35.9952C36.1679 35.8769 36.2343 35.7744 36.3164 35.6875C36.4049 35.5938 36.513 35.5208 36.6406 35.4688C36.7682 35.4167 36.9154 35.3906 37.082 35.3906C37.1497 35.3906 37.2096 35.3932 37.2617 35.3984C37.3164 35.401 37.3737 35.4089 37.4336 35.4219L37.4375 34.75C37.4115 34.737 37.3646 34.7253 37.2969 34.7148C37.2292 34.7018 37.1693 34.6953 37.1172 34.6953C36.888 34.6953 36.6901 34.7448 36.5234 34.8438C36.3594 34.9401 36.224 35.0755 36.1172 35.25L36.1119 35.2585L36.0977 34.7734H35.3945V39H36.1172Z" fill="#1C1D1F"/>
<path d="M36.6289 30.5898C36.6758 30.6784 36.6992 30.7747 36.6992 30.8789C36.6992 30.9961 36.6641 31.1003 36.5938 31.1914C36.5234 31.2826 36.4206 31.3542 36.2852 31.4062C36.1523 31.4583 35.987 31.4844 35.7891 31.4844C35.6406 31.4844 35.4909 31.4609 35.3398 31.4141C35.1888 31.3646 35.0612 31.2826 34.957 31.168C34.8529 31.0508 34.7956 30.8932 34.7852 30.6953H34.0586C34.0586 30.9297 34.125 31.1523 34.2578 31.3633C34.3906 31.5742 34.5859 31.7461 34.8438 31.8789C35.1016 32.0117 35.4167 32.0781 35.7891 32.0781C36.0365 32.0781 36.2591 32.0482 36.457 31.9883C36.6576 31.9258 36.8294 31.8398 36.9727 31.7305C37.1185 31.6185 37.2292 31.4857 37.3047 31.332C37.3828 31.1784 37.4219 31.0091 37.4219 30.8242C37.4219 30.5977 37.3672 30.4049 37.2578 30.2461C37.1484 30.0872 36.9818 29.9531 36.7578 29.8438C36.5339 29.7344 36.2487 29.6406 35.9023 29.5625C35.7044 29.5182 35.5417 29.474 35.4141 29.4297C35.2865 29.3854 35.1875 29.3385 35.1172 29.2891C35.0469 29.237 34.9974 29.181 34.9688 29.1211C34.9427 29.0586 34.9297 28.9883 34.9297 28.9102C34.9297 28.806 34.957 28.707 35.0117 28.6133C35.069 28.5195 35.1589 28.4427 35.2812 28.3828C35.4062 28.3203 35.569 28.2891 35.7695 28.2891C35.9596 28.2891 36.1198 28.3255 36.25 28.3984C36.3828 28.4714 36.4831 28.5638 36.5508 28.6758C36.6211 28.7852 36.6562 28.8984 36.6562 29.0156H37.3789C37.3789 28.7734 37.3151 28.5534 37.1875 28.3555C37.0599 28.1549 36.8763 27.9948 36.6367 27.875C36.3971 27.7552 36.1081 27.6953 35.7695 27.6953C35.5326 27.6953 35.3177 27.7279 35.125 27.793C34.9323 27.8581 34.7669 27.9479 34.6289 28.0625C34.4935 28.1771 34.388 28.3086 34.3125 28.457C34.2396 28.6055 34.2031 28.763 34.2031 28.9297C34.2031 29.1042 34.2383 29.2565 34.3086 29.3867C34.3789 29.5169 34.4792 29.6302 34.6094 29.7266C34.7422 29.8229 34.9023 29.9049 35.0898 29.9727C35.2799 30.0404 35.4922 30.099 35.7266 30.1484C36.0052 30.2031 36.2135 30.2682 36.3516 30.3438C36.4922 30.4167 36.5846 30.4987 36.6289 30.5898Z" fill="#1C1D1F"/>
<path d="M30.3047 28.9952V32H29.582V27.7734H30.2852L30.2994 28.2585L30.3047 28.25C30.4115 28.0755 30.5469 27.9401 30.7109 27.8438C30.8776 27.7448 31.0755 27.6953 31.3047 27.6953C31.3568 27.6953 31.4167 27.7018 31.4844 27.7148C31.5521 27.7253 31.599 27.737 31.625 27.75L31.6211 28.4219C31.5612 28.4089 31.5039 28.401 31.4492 28.3984C31.3971 28.3932 31.3372 28.3906 31.2695 28.3906C31.1029 28.3906 30.9557 28.4167 30.8281 28.4688C30.7005 28.5208 30.5924 28.5938 30.5039 28.6875C30.4218 28.7744 30.3554 28.8769 30.3047 28.9952Z" fill="#1C1D1F"/>
<path fill-rule="evenodd" clip-rule="evenodd" d="M26.3047 27.8359C26.1018 27.927 25.9288 28.0609 25.7857 28.2376L25.75 27.7734H25.0859V33.625H25.8125V31.59C25.9504 31.7439 26.1158 31.8623 26.3086 31.9453C26.5143 32.0339 26.7513 32.0781 27.0195 32.0781C27.2826 32.0781 27.5156 32.0247 27.7188 31.918C27.9219 31.8112 28.0924 31.6615 28.2305 31.4688C28.3711 31.276 28.4779 31.0495 28.5508 30.7891C28.6237 30.526 28.6602 30.2409 28.6602 29.9336V29.8516C28.6602 29.5286 28.6237 29.2357 28.5508 28.9727C28.4805 28.707 28.375 28.4792 28.2344 28.2891C28.0938 28.099 27.9206 27.9531 27.7148 27.8516C27.5091 27.7474 27.2734 27.6953 27.0078 27.6953C26.7422 27.6953 26.5078 27.7422 26.3047 27.8359ZM25.8398 30.9531C25.8305 30.9371 25.8214 30.9209 25.8125 30.9047V28.8869C25.8606 28.8015 25.9166 28.7233 25.9805 28.6523C26.0742 28.5456 26.1875 28.4609 26.3203 28.3984C26.4557 28.3359 26.6146 28.3047 26.7969 28.3047C26.9948 28.3047 27.1654 28.3464 27.3086 28.4297C27.4518 28.5104 27.569 28.6224 27.6602 28.7656C27.7539 28.9062 27.8229 29.0703 27.8672 29.2578C27.9115 29.4427 27.9336 29.6406 27.9336 29.8516V29.9336C27.9336 30.1445 27.9115 30.3438 27.8672 30.5312C27.8229 30.7161 27.7539 30.8802 27.6602 31.0234C27.569 31.1667 27.4518 31.2799 27.3086 31.3633C27.168 31.444 27 31.4844 26.8047 31.4844C26.5677 31.4844 26.3711 31.4362 26.2148 31.3398C26.0586 31.2409 25.9336 31.112 25.8398 30.9531Z" fill="#1C1D1F"/>
<path d="M23.1016 28.9952V32H22.3789V27.7734H23.082L23.0963 28.2585L23.1016 28.25C23.2083 28.0755 23.3438 27.9401 23.5078 27.8438C23.6745 27.7448 23.8724 27.6953 24.1016 27.6953C24.1536 27.6953 24.2135 27.7018 24.2812 27.7148C24.349 27.7253 24.3958 27.737 24.4219 27.75L24.418 28.4219C24.3581 28.4089 24.3008 28.401 24.2461 28.3984C24.194 28.3932 24.1341 28.3906 24.0664 28.3906C23.8997 28.3906 23.7526 28.4167 23.625 28.4688C23.4974 28.5208 23.3893 28.5938 23.3008 28.6875C23.2187 28.7744 23.1523 28.8769 23.1016 28.9952Z" fill="#1C1D1F"/>
<path fill-rule="evenodd" clip-rule="evenodd" d="M19.8906 32.0781C19.5964 32.0781 19.3294 32.0286 19.0898 31.9297C18.8529 31.8281 18.6484 31.6862 18.4766 31.5039C18.3073 31.3216 18.1771 31.1055 18.0859 30.8555C17.9948 30.6055 17.9492 30.332 17.9492 30.0352V29.8711C17.9492 29.5273 18 29.2214 18.1016 28.9531C18.2031 28.6823 18.3411 28.4531 18.5156 28.2656C18.6901 28.0781 18.888 27.9362 19.1094 27.8398C19.3307 27.7435 19.5599 27.6953 19.7969 27.6953C20.099 27.6953 20.3594 27.7474 20.5781 27.8516C20.7995 27.9557 20.9805 28.1016 21.1211 28.2891C21.2617 28.474 21.3659 28.6927 21.4336 28.9453C21.5013 29.1953 21.5352 29.4688 21.5352 29.7656V30.0898H18.6765C18.681 30.2701 18.7081 30.4407 18.7578 30.6016C18.8151 30.776 18.8971 30.9297 19.0039 31.0625C19.1133 31.1953 19.2448 31.2995 19.3984 31.375C19.5547 31.4505 19.7318 31.4883 19.9297 31.4883C20.1849 31.4883 20.401 31.4362 20.5781 31.332C20.7552 31.2279 20.9102 31.0885 21.043 30.9141L21.4805 31.2617C21.3893 31.3997 21.2734 31.5312 21.1328 31.6562C20.9922 31.7812 20.819 31.8828 20.6133 31.9609C20.4102 32.0391 20.1693 32.0781 19.8906 32.0781ZM18.6976 29.5H20.8125V29.4453C20.8021 29.2578 20.763 29.0755 20.6953 28.8984C20.6302 28.7214 20.526 28.5755 20.3828 28.4609C20.2396 28.3464 20.0443 28.2891 19.7969 28.2891C19.6328 28.2891 19.4818 28.3242 19.3438 28.3945C19.2057 28.4622 19.0872 28.5638 18.9883 28.6992C18.8893 28.8346 18.8125 29 18.7578 29.1953C18.7313 29.2899 18.7113 29.3914 18.6976 29.5Z" fill="#1C1D1F"/>
<path d="M17.2891 28.3281V27.7734H16.5V26.7461H15.7773V27.7734H15.0039V28.3281H15.7773V30.9492C15.7773 31.2305 15.8203 31.4544 15.9062 31.6211C15.9948 31.7852 16.1133 31.9023 16.2617 31.9727C16.4102 32.043 16.5729 32.0781 16.75 32.0781C16.8802 32.0781 16.9909 32.069 17.082 32.0508C17.1758 32.0352 17.2513 32.0182 17.3086 32L17.3047 31.4102C17.2708 31.418 17.2201 31.4284 17.1523 31.4414C17.0872 31.4518 17.0247 31.457 16.9648 31.457C16.8841 31.457 16.8086 31.4453 16.7383 31.4219C16.668 31.3984 16.6107 31.3503 16.5664 31.2773C16.5221 31.2044 16.5 31.0964 16.5 30.9531V28.3281H17.2891Z" fill="#1C1D1F"/>
<path d="M11.8281 28.2695C11.82 28.2793 11.812 28.2893 11.804 28.2993L11.7812 27.7734H11.0977V32H11.8203V28.9837C11.8661 28.8926 11.9195 28.8082 11.9805 28.7305C12.0872 28.5977 12.2135 28.4935 12.3594 28.418C12.5078 28.3424 12.6719 28.3047 12.8516 28.3047C13.0339 28.3047 13.1875 28.3359 13.3125 28.3984C13.4375 28.4583 13.5326 28.556 13.5977 28.6914C13.6628 28.8242 13.6953 29.0013 13.6953 29.2227V32H14.4219V29.2305C14.4219 28.9518 14.3906 28.7161 14.3281 28.5234C14.2656 28.3281 14.1745 28.1693 14.0547 28.0469C13.9375 27.9245 13.7956 27.8359 13.6289 27.7812C13.4622 27.724 13.2747 27.6953 13.0664 27.6953C12.8112 27.6953 12.5781 27.7461 12.3672 27.8477C12.1589 27.9466 11.9792 28.0872 11.8281 28.2695Z" fill="#1C1D1F"/>
<path d="M10.2734 32V31.3867H7.41406V29.3711H9.875V28.7578H7.41406V26.9297H10.2344V26.3125H6.66016V32H10.2734Z" fill="#1C1D1F"/>
</svg>
