<svg width="50" height="50" viewBox="0 0 50 50" fill="none" xmlns="http://www.w3.org/2000/svg">
<path d="M19.4586 27.4585C14.2038 27.4585 10 23.2547 10 18C10 12.7452 14.2038 8.54138 19.4586 8.54138H30.5414C35.7962 8.54138 40 12.7452 40 18C40 23.2547 35.7962 27.4585 30.5414 27.4585H19.4586ZM30.2548 24.1146C33.6942 24.1146 36.3694 21.3439 36.3694 18C36.3694 14.5605 33.5987 11.8853 30.2548 11.8853H19.7452C16.3057 11.8853 13.6306 14.656 13.6306 18C13.6306 21.3439 16.4013 24.1146 19.7452 24.1146H30.2548Z" fill="#C74634"/>
<path d="M11.8848 31.3491V38.4585H10.9424V31.3491H11.8848ZM14.8633 34.5474V35.3188H11.6797V34.5474H14.8633ZM15.3467 31.3491V32.1206H11.6797V31.3491H15.3467Z" fill="#1C1D1F"/>
<path d="M19.458 37.2378V33.1753H20.3662V38.4585H19.502L19.458 37.2378ZM19.6289 36.1245L20.0049 36.1147C20.0049 36.4663 19.9674 36.7918 19.8926 37.0913C19.821 37.3875 19.7038 37.6447 19.541 37.8628C19.3783 38.0809 19.165 38.2518 18.9014 38.3755C18.6377 38.4959 18.3171 38.5562 17.9395 38.5562C17.6823 38.5562 17.4463 38.5187 17.2314 38.4438C17.0199 38.369 16.8376 38.2534 16.6846 38.0972C16.5316 37.9409 16.4128 37.7375 16.3281 37.4868C16.2467 37.2362 16.2061 36.9351 16.2061 36.5835V33.1753H17.1094V36.5933C17.1094 36.8309 17.1354 37.0278 17.1875 37.1841C17.2428 37.3371 17.3161 37.4591 17.4072 37.5503C17.5016 37.6382 17.6058 37.7 17.7197 37.7358C17.8369 37.7716 17.9574 37.7896 18.0811 37.7896C18.4652 37.7896 18.7695 37.7163 18.9941 37.5698C19.2188 37.4201 19.3799 37.2199 19.4775 36.9692C19.5785 36.7153 19.6289 36.4338 19.6289 36.1245Z" fill="#1C1D1F"/>
<path d="M24.8193 37.0571C24.8193 36.9269 24.79 36.8065 24.7314 36.6958C24.6761 36.5819 24.5605 36.4793 24.3848 36.3882C24.2122 36.2938 23.9518 36.2124 23.6035 36.144C23.3105 36.0822 23.0452 36.009 22.8076 35.9243C22.5732 35.8397 22.373 35.7371 22.207 35.6167C22.0443 35.4963 21.9189 35.3547 21.8311 35.1919C21.7432 35.0291 21.6992 34.8387 21.6992 34.6206C21.6992 34.4123 21.7448 34.2153 21.8359 34.0298C21.9303 33.8442 22.0622 33.6799 22.2314 33.5366C22.404 33.3934 22.6107 33.2811 22.8516 33.1997C23.0924 33.1183 23.361 33.0776 23.6572 33.0776C24.0804 33.0776 24.4417 33.1525 24.7412 33.3022C25.0407 33.452 25.2702 33.6522 25.4297 33.9028C25.5892 34.1502 25.6689 34.4253 25.6689 34.728H24.7656C24.7656 34.5815 24.7217 34.4399 24.6338 34.3032C24.5492 34.1632 24.4238 34.0477 24.2578 33.9565C24.0951 33.8654 23.8949 33.8198 23.6572 33.8198C23.4066 33.8198 23.2031 33.8589 23.0469 33.937C22.8939 34.0119 22.7816 34.1079 22.71 34.2251C22.6416 34.3423 22.6074 34.466 22.6074 34.5962C22.6074 34.6938 22.6237 34.7817 22.6562 34.8599C22.6921 34.9347 22.7539 35.0047 22.8418 35.0698C22.9297 35.1317 23.0534 35.1903 23.2129 35.2456C23.3724 35.3009 23.5758 35.3563 23.8232 35.4116C24.2562 35.5093 24.6126 35.6265 24.8926 35.7632C25.1725 35.8999 25.3809 36.0675 25.5176 36.2661C25.6543 36.4647 25.7227 36.7056 25.7227 36.9888C25.7227 37.2199 25.6738 37.4315 25.5762 37.6235C25.4818 37.8156 25.3434 37.9816 25.1611 38.1216C24.9821 38.2583 24.7673 38.3657 24.5166 38.4438C24.2692 38.5187 23.9909 38.5562 23.6816 38.5562C23.2161 38.5562 22.8223 38.4731 22.5 38.3071C22.1777 38.1411 21.9336 37.9263 21.7676 37.6626C21.6016 37.3989 21.5186 37.1206 21.5186 36.8276H22.4268C22.4398 37.075 22.5114 37.272 22.6416 37.4185C22.7718 37.5617 22.9313 37.6642 23.1201 37.7261C23.3089 37.7847 23.4961 37.814 23.6816 37.814C23.929 37.814 24.1357 37.7814 24.3018 37.7163C24.471 37.6512 24.5996 37.5617 24.6875 37.4478C24.7754 37.3338 24.8193 37.2036 24.8193 37.0571Z" fill="#1C1D1F"/>
<path d="M27.8906 33.1753V38.4585H26.9824V33.1753H27.8906ZM26.9141 31.7739C26.9141 31.6274 26.958 31.5037 27.0459 31.4028C27.137 31.3019 27.2705 31.2515 27.4463 31.2515C27.6188 31.2515 27.7507 31.3019 27.8418 31.4028C27.9362 31.5037 27.9834 31.6274 27.9834 31.7739C27.9834 31.9139 27.9362 32.0343 27.8418 32.1353C27.7507 32.2329 27.6188 32.2817 27.4463 32.2817C27.2705 32.2817 27.137 32.2329 27.0459 32.1353C26.958 32.0343 26.9141 31.9139 26.9141 31.7739Z" fill="#1C1D1F"/>
<path d="M29.1016 35.8755V35.7632C29.1016 35.3823 29.1569 35.0291 29.2676 34.7036C29.3783 34.3748 29.5378 34.09 29.7461 33.8491C29.9544 33.605 30.2067 33.4162 30.5029 33.2827C30.7992 33.146 31.1312 33.0776 31.499 33.0776C31.8701 33.0776 32.2038 33.146 32.5 33.2827C32.7995 33.4162 33.0534 33.605 33.2617 33.8491C33.4733 34.09 33.6344 34.3748 33.7451 34.7036C33.8558 35.0291 33.9111 35.3823 33.9111 35.7632V35.8755C33.9111 36.2563 33.8558 36.6095 33.7451 36.9351C33.6344 37.2606 33.4733 37.5454 33.2617 37.7896C33.0534 38.0304 32.8011 38.2192 32.5049 38.356C32.2119 38.4894 31.8799 38.5562 31.5088 38.5562C31.1377 38.5562 30.804 38.4894 30.5078 38.356C30.2116 38.2192 29.9577 38.0304 29.7461 37.7896C29.5378 37.5454 29.3783 37.2606 29.2676 36.9351C29.1569 36.6095 29.1016 36.2563 29.1016 35.8755ZM30.0049 35.7632V35.8755C30.0049 36.1392 30.0358 36.3882 30.0977 36.6226C30.1595 36.8537 30.2523 37.0588 30.376 37.2378C30.5029 37.4168 30.6608 37.5584 30.8496 37.6626C31.0384 37.7635 31.2581 37.814 31.5088 37.814C31.7562 37.814 31.9727 37.7635 32.1582 37.6626C32.347 37.5584 32.5033 37.4168 32.627 37.2378C32.7507 37.0588 32.8434 36.8537 32.9053 36.6226C32.9704 36.3882 33.0029 36.1392 33.0029 35.8755V35.7632C33.0029 35.5028 32.9704 35.257 32.9053 35.0259C32.8434 34.7915 32.749 34.5848 32.6221 34.4058C32.4984 34.2235 32.3421 34.0802 32.1533 33.9761C31.9678 33.8719 31.7497 33.8198 31.499 33.8198C31.2516 33.8198 31.0335 33.8719 30.8447 33.9761C30.6592 34.0802 30.5029 34.2235 30.376 34.4058C30.2523 34.5848 30.1595 34.7915 30.0977 35.0259C30.0358 35.257 30.0049 35.5028 30.0049 35.7632Z" fill="#1C1D1F"/>
<path d="M35.9473 34.3032V38.4585H35.0439V33.1753H35.8984L35.9473 34.3032ZM35.7324 35.6167L35.3564 35.6021C35.3597 35.2407 35.4134 34.9071 35.5176 34.6011C35.6217 34.2918 35.7682 34.0233 35.957 33.7954C36.1458 33.5675 36.3704 33.3918 36.6309 33.2681C36.8945 33.1411 37.1859 33.0776 37.5049 33.0776C37.7653 33.0776 37.9997 33.1134 38.208 33.1851C38.4163 33.2534 38.5938 33.3641 38.7402 33.5171C38.89 33.6701 39.0039 33.8687 39.082 34.1128C39.1602 34.3537 39.1992 34.6483 39.1992 34.9966V38.4585H38.291V34.9868C38.291 34.7101 38.2503 34.4888 38.1689 34.3228C38.0876 34.1535 37.9688 34.0314 37.8125 33.9565C37.6562 33.8784 37.4642 33.8394 37.2363 33.8394C37.0117 33.8394 36.8066 33.8866 36.6211 33.981C36.4388 34.0754 36.2809 34.2056 36.1475 34.3716C36.0173 34.5376 35.9147 34.728 35.8398 34.9429C35.7682 35.1545 35.7324 35.3791 35.7324 35.6167Z" fill="#1C1D1F"/>
</svg>
