<svg width="50" height="50" viewBox="0 0 50 50" fill="none" xmlns="http://www.w3.org/2000/svg">
<rect width="50" height="50" fill="#C74634"/>
<path d="M17.9809 29.7337C11.3248 29.7337 6 24.4677 6 17.8852C6 11.3026 11.3248 6.03662 17.9809 6.03662H32.0191C38.6752 6.03662 44 11.3026 44 17.8852C44 24.4677 38.6752 29.7337 32.0191 29.7337H17.9809ZM31.6561 25.5449C36.0127 25.5449 39.4013 22.0741 39.4013 17.8852C39.4013 13.5766 35.8917 10.2255 31.6561 10.2255H18.3439C13.9873 10.2255 10.5987 13.6963 10.5987 17.8852C10.5987 22.0741 14.1083 25.5449 18.3439 25.5449H31.6561Z" fill="white"/>
<path d="M34.2872 41.138C34.2872 40.4732 33.9534 40.1551 32.5753 39.7581C31.1457 39.3392 30.2398 38.762 30.2398 37.654C30.2398 36.5356 31.2235 35.7163 32.6891 35.7163C33.9301 35.7163 35.2274 36.4912 35.2274 37.8693H34.2774C34.2774 37.0588 33.7594 36.4894 32.6891 36.4894C31.6727 36.4894 31.1948 36.9749 31.1948 37.6442C31.1948 38.2467 31.7123 38.6147 32.882 38.9361C34.5161 39.3922 35.2471 40.0137 35.2471 41.1282C35.2471 42.2859 34.2655 43.0366 32.7336 43.0366C31.4578 43.0366 30.0122 42.2856 30.0122 40.8738H30.9622C30.9622 41.8512 31.8204 42.2684 32.7336 42.2684C33.7362 42.2684 34.2872 41.8286 34.2872 41.138Z" fill="white"/>
<path d="M28.1964 40.6732H29.1464C28.9863 42.1294 27.8857 43.0366 26.4151 43.0366C24.617 43.0366 23.6047 41.4254 23.6047 39.7337C23.6047 37.8219 24.1428 35.7163 26.4992 35.7163C27.9378 35.7163 28.9924 36.6375 29.1464 38.0993H28.1964C28.0568 37.0939 27.6135 36.4894 26.4992 36.4894C25.2342 36.4894 24.5547 37.4911 24.5547 39.0143C24.5547 40.3361 24.655 42.2684 26.4151 42.2684C27.6346 42.2684 28.0386 41.6676 28.1964 40.6732Z" fill="white"/>
<path d="M19.1466 42.9388H17.6424L17.6523 42.1705H19.1466C19.6612 42.1705 20.09 42.0645 20.4331 41.8524C21.3643 41.268 21.4672 40.1594 21.4672 39.1563C21.4672 37.7585 20.6897 36.5873 19.2357 36.5873H17.6128V35.8141H19.2357C21.115 35.8141 22.4122 37.0919 22.4122 39.166C22.4122 41.2247 21.4257 42.9388 19.1466 42.9388ZM18.1521 35.8141V42.9388H17.1971V35.8141H18.1521Z" fill="white"/>
<path d="M15.4604 35.8141V42.9388H14.5055V35.8141H15.4604Z" fill="white"/>
</svg>
