<svg width="50" height="50" viewBox="0 0 50 50" fill="none" xmlns="http://www.w3.org/2000/svg">
<rect width="50" height="50" fill="#101921"/>
<path d="M41.8816 31.0074L40.3771 29.2393H41.0938L42.1672 30.5283H42.2151L43.3081 29.2393H44L42.4919 31.0005V31.9397H41.8816V31.0074Z" fill="white"/>
<path d="M38.4343 29.7218H37.2562V29.2393H39.7224L40.0719 29.7218H39.0446V31.9707H38.4343V29.7218Z" fill="white"/>
<path d="M35.8599 29.2393H36.4703V31.9397H35.8599V29.2393Z" fill="white"/>
<path d="M32.1252 29.2341H33.8675C34.7031 29.2341 35.113 29.5581 35.113 30.1423C35.113 30.5869 34.8504 30.8885 34.3483 31.0005L35.2372 31.9397H34.5169L33.7433 31.0901H32.7356V31.9397H32.1252V29.2341ZM33.848 30.6524C34.3199 30.6524 34.492 30.4404 34.492 30.1647C34.492 29.889 34.3199 29.6822 33.848 29.6822H32.7356V30.6524H33.848Z" fill="white"/>
<path d="M28.0765 30.8988V29.2376H28.6868V30.8747C28.6868 31.3779 29.1268 31.5433 29.6467 31.5433C30.1665 31.5433 30.6065 31.3813 30.6065 30.8902V29.2376H31.2168V30.8833C31.2168 31.6984 30.5338 32 29.636 32C28.7383 32 28.0747 31.6984 28.0747 30.8988H28.0765Z" fill="white"/>
<path d="M24.1768 30.5972C24.1768 29.8355 24.8315 29.1755 26.0486 29.1755C26.5932 29.1755 27.0279 29.3375 27.2905 29.4995V30.0062H27.2852C26.9321 29.8097 26.5649 29.6236 26.0344 29.6236C25.2608 29.6236 24.8066 30.0406 24.8066 30.5938C24.8066 31.1384 25.2324 31.5485 26.0237 31.5485C26.5489 31.5485 26.9357 31.39 27.2834 31.178H27.2887V31.6846C27.035 31.8346 26.5773 31.9983 25.9847 31.9983C24.7392 31.9983 24.175 31.3572 24.175 30.599L24.1768 30.5972Z" fill="white"/>
<path d="M20.9495 29.2393H23.6942L23.7137 29.6839H21.5563V30.3181H23.3127V30.7627H21.5563V31.4934H23.7918L23.7687 31.9414H20.9513V29.241L20.9495 29.2393Z" fill="white"/>
<path d="M17.2982 31.7139V31.2073H17.3035C17.7719 31.4193 18.3201 31.5468 18.8027 31.5468C19.319 31.5468 19.5904 31.4072 19.5904 31.1832C19.5904 30.9591 19.3811 30.8902 18.5827 30.7782C17.9191 30.6817 17.3265 30.5318 17.3265 30.0251C17.3265 29.5771 17.7949 29.1704 18.7832 29.1704C19.209 29.1704 19.6862 29.2634 20.0446 29.4289V29.9355H20.0393C19.6525 29.7339 19.17 29.6219 18.7353 29.6219C18.219 29.6219 17.967 29.7649 17.967 29.9734C17.967 30.225 18.3591 30.2715 18.9606 30.3629C19.6295 30.4594 20.2309 30.6024 20.2309 31.1504C20.2309 31.4985 19.9595 31.9966 18.7991 31.9966C18.1728 31.9966 17.692 31.8725 17.2999 31.7105L17.2982 31.7139Z" fill="white"/>
<path d="M42.334 18.2602C41.7822 18.2602 41.2997 18.6152 41.1435 19.1288C40.5084 18.4257 39.5645 18.0052 38.28 18.0052C35.8014 18.0052 33.7539 20.1179 33.7539 22.8545C33.7539 25.5911 35.7996 27.7038 38.28 27.7038C39.5645 27.7038 40.5084 27.2868 41.1471 26.5803C41.3032 27.0938 41.7858 27.4488 42.3376 27.4488H43.9432V18.2585H42.334V18.2602ZM38.7856 25.0224C37.5543 25.0224 36.6104 24.1573 36.6104 22.8545C36.6104 21.5517 37.5543 20.6901 38.7856 20.6901C40.0169 20.6901 40.9643 21.5551 40.9643 22.8545C40.9643 24.1539 40.0169 25.0224 38.7856 25.0224Z" fill="white"/>
<path d="M30.7023 23.9953C30.3333 24.6381 29.6413 25.0224 28.8199 25.0224C27.5886 25.0224 26.6411 24.1573 26.6411 22.8545C26.6411 21.55 27.5886 20.6866 28.8199 20.6866C29.6307 20.6866 30.3226 21.064 30.6952 21.6982L33.1259 20.3316C32.2494 18.9202 30.6526 18 28.8199 18C26.0361 18 23.8042 20.1162 23.8042 22.8528C23.8042 25.5894 26.0361 27.7056 28.8199 27.7056C30.665 27.7056 32.2689 26.7784 33.1401 25.3447L30.7023 23.9936V23.9953Z" fill="white"/>
<path d="M23.0235 18.062V21.1864C21.8526 21.002 20.183 21.4638 20.183 23.2836V27.435H17.3461V18.2482H18.9517C19.5035 18.2482 19.9861 18.6032 20.1387 19.1201C20.8572 18.4446 21.8809 18.0965 22.8798 18.0672H22.8869C22.933 18.0638 22.9774 18.0638 23.0235 18.0638V18.062Z" fill="white"/>
<path d="M11.2446 18.0104C10.7017 18.0104 10.1783 18.0949 9.68681 18.2482C9.98487 18.4947 10.2599 18.7997 10.5065 19.1616C10.8099 19.6079 11.0512 20.118 11.225 20.6712C11.2321 20.6712 11.2375 20.6712 11.2446 20.6712C12.4457 20.6712 13.4197 21.5001 13.4197 22.8391C13.4197 24.1781 12.4457 25.0053 11.2446 25.0053C11.241 25.0053 11.2392 25.0053 11.2357 25.0053C11.0494 25.6067 10.785 26.1616 10.4497 26.6407C10.2226 26.9646 9.97068 27.2438 9.701 27.4713C10.1871 27.6229 10.707 27.7039 11.2446 27.7039C14.0194 27.7039 16.2691 25.5343 16.2691 22.858C16.2691 20.1818 14.0194 18.0121 11.2446 18.0121V18.0104Z" fill="white"/>
<path d="M13.3541 29.9338H8.91676V31.2384H13.3541V29.9338Z" fill="#0080FF"/>
<path d="M8.18937 19.5838C8.73938 20.1059 9.13148 20.8969 9.3089 21.8034C9.57503 21.2795 10.047 20.9107 10.6165 20.7539C10.4621 20.2903 10.2563 19.863 10.0008 19.4873C9.71519 19.0668 9.38696 18.7377 9.03212 18.5067C8.59389 18.7153 8.18937 18.9841 7.83453 19.3012C7.95695 19.3822 8.07582 19.4769 8.18937 19.5855V19.5838Z" fill="#0080FF"/>
<path d="M10.6254 24.9208C10.0665 24.7674 9.60164 24.409 9.33019 23.9058C9.22019 24.5365 9.00551 25.119 8.69857 25.6015C8.46438 25.9686 8.18937 26.2581 7.88776 26.4614C8.23373 26.7613 8.62405 27.0163 9.04809 27.2162C9.37632 26.9939 9.67971 26.6889 9.94761 26.3063C10.2315 25.8996 10.4604 25.4326 10.6254 24.9225V24.9208Z" fill="#0080FF"/>
<path d="M8.80325 22.8632C8.79083 21.6655 8.39341 20.5781 7.73695 19.9543C7.61985 19.844 7.49921 19.7527 7.37324 19.6786C7.07162 20.0129 6.81614 20.3886 6.61742 20.7953C7.08582 21.2209 7.39098 21.9878 7.39098 22.8822C7.39098 23.7662 7.09114 24.5262 6.63339 24.9553C6.8392 25.3706 7.10533 25.7514 7.42114 26.0909C7.69614 25.9272 7.94986 25.6704 8.16631 25.331C8.5868 24.6744 8.81212 23.7972 8.80325 22.8649V22.8632Z" fill="#0080FF"/>
<path d="M6.28565 21.2037C6.10113 21.7086 6 22.2514 6 22.815C6 23.3785 6.10468 23.9454 6.29629 24.459C6.59613 24.0919 6.79485 23.4957 6.79485 22.8391C6.79485 22.1825 6.59081 21.569 6.28387 21.2037H6.28565Z" fill="#0080FF"/>
</svg>
