<svg width="50" height="50" viewBox="0 0 50 50" fill="none" xmlns="http://www.w3.org/2000/svg">
<path d="M43.6567 31.8656L41.9939 29.8449H42.7861L43.9725 31.3181H44.0254L45.2333 29.8449H45.998L44.3313 31.8577V32.9311H43.6567V31.8656Z" fill="#101921"/>
<path d="M39.8468 30.3964H38.5448V29.8449H41.2704L41.6567 30.3964H40.5213V32.9665H39.8468V30.3964Z" fill="#101921"/>
<path d="M37.0015 29.8449H37.6761V32.9311H37.0015V29.8449Z" fill="#101921"/>
<path d="M32.8739 29.839H34.7995C35.723 29.839 36.176 30.2093 36.176 30.8769C36.176 31.385 35.8858 31.7297 35.3309 31.8577L36.3133 32.9311H35.5172L34.6622 31.9601H33.5484V32.9311H32.8739V29.839ZM34.7779 31.4599C35.2995 31.4599 35.4897 31.2176 35.4897 30.9025C35.4897 30.5874 35.2995 30.3511 34.7779 30.3511H33.5484V31.4599H34.7779Z" fill="#101921"/>
<path d="M28.3992 31.7415V29.8429H29.0737V31.7139C29.0737 32.289 29.56 32.4781 30.1346 32.4781C30.7091 32.4781 31.1954 32.293 31.1954 31.7317V29.8429H31.8699V31.7238C31.8699 32.6553 31.115 33 30.1228 33C29.1306 33 28.3972 32.6553 28.3972 31.7415H28.3992Z" fill="#101921"/>
<path d="M24.0892 31.3968C24.0892 30.5263 24.8127 29.772 26.1579 29.772C26.7599 29.772 27.2403 29.9572 27.5305 30.1423V30.7213H27.5246C27.1344 30.4968 26.7285 30.2841 26.1422 30.2841C25.2873 30.2841 24.7853 30.7607 24.7853 31.3929C24.7853 32.0153 25.2559 32.484 26.1304 32.484C26.7109 32.484 27.1383 32.3028 27.5227 32.0606H27.5285V32.6396C27.2481 32.8109 26.7422 32.998 26.0873 32.998C24.7108 32.998 24.0872 32.2654 24.0872 31.3988L24.0892 31.3968Z" fill="#101921"/>
<path d="M20.5223 29.8449H23.5558L23.5774 30.353H21.193V31.0778H23.1342V31.5859H21.193V32.421H23.6637L23.6382 32.933H20.5243V29.8469L20.5223 29.8449Z" fill="#101921"/>
<path d="M16.4869 32.6731V32.094H16.4927C17.0104 32.3363 17.6163 32.482 18.1497 32.482C18.7203 32.482 19.0203 32.3225 19.0203 32.0665C19.0203 31.8104 18.7889 31.7317 17.9065 31.6036C17.1732 31.4934 16.5182 31.322 16.5182 30.743C16.5182 30.2309 17.0359 29.7661 18.1281 29.7661C18.5987 29.7661 19.1262 29.8725 19.5223 30.0615V30.6406H19.5164C19.0889 30.4101 18.5556 30.2821 18.0752 30.2821C17.5046 30.2821 17.2261 30.4456 17.2261 30.6839C17.2261 30.9714 17.6595 31.0246 18.3242 31.129C19.0634 31.2393 19.7282 31.4028 19.7282 32.029C19.7282 32.4269 19.4282 32.9961 18.1458 32.9961C17.4536 32.9961 16.9222 32.8543 16.4888 32.6691L16.4869 32.6731Z" fill="#101921"/>
<path d="M44.1568 17.2974C43.5469 17.2974 43.0136 17.7031 42.841 18.29C42.139 17.4865 41.0958 17.0059 39.6762 17.0059C36.9368 17.0059 34.674 19.4205 34.674 22.548C34.674 25.6755 36.9349 28.0901 39.6762 28.0901C41.0958 28.0901 42.139 27.6135 42.845 26.806C43.0175 27.3929 43.5509 27.7986 44.1607 27.7986H45.9353V17.2954H44.1568V17.2974ZM40.235 25.0256C38.8742 25.0256 37.831 24.0369 37.831 22.548C37.831 21.0591 38.8742 20.0743 40.235 20.0743C41.5959 20.0743 42.643 21.063 42.643 22.548C42.643 24.033 41.5959 25.0256 40.235 25.0256Z" fill="#101921"/>
<path d="M31.3013 23.8518C30.8934 24.5864 30.1287 25.0256 29.2208 25.0256C27.8599 25.0256 26.8128 24.0369 26.8128 22.548C26.8128 21.0571 27.8599 20.0704 29.2208 20.0704C30.1169 20.0704 30.8816 20.5017 31.2934 21.2265L33.9798 19.6647C33.0112 18.0517 31.2464 17 29.2208 17C26.1442 17 23.6774 19.4185 23.6774 22.546C23.6774 25.6736 26.1442 28.0921 29.2208 28.0921C31.2601 28.0921 33.0327 27.0325 33.9955 25.3939L31.3013 23.8498V23.8518Z" fill="#101921"/>
<path d="M22.8146 17.0709V20.6416C21.5204 20.4308 19.6752 20.9586 19.6752 23.0384V27.7829H16.5398V17.2836H18.3144C18.9242 17.2836 19.4576 17.6893 19.6262 18.2802C20.4204 17.5081 21.5518 17.1103 22.6558 17.0768H22.6636C22.7146 17.0729 22.7636 17.0729 22.8146 17.0729V17.0709Z" fill="#101921"/>
<path d="M9.79635 17.0119C9.19632 17.0119 8.61786 17.1084 8.0747 17.2837C8.40413 17.5653 8.70806 17.9139 8.98062 18.3275C9.31593 18.8376 9.58261 19.4206 9.77478 20.0528C9.78262 20.0528 9.78851 20.0528 9.79635 20.0528C11.1239 20.0528 12.2004 21.0001 12.2004 22.5304C12.2004 24.0607 11.1239 25.006 9.79635 25.006C9.79243 25.006 9.79047 25.006 9.78654 25.006C9.58065 25.6934 9.28848 26.3275 8.91788 26.875C8.66688 27.2453 8.38844 27.5644 8.09039 27.8243C8.62767 27.9976 9.2022 28.0902 9.79635 28.0902C12.8632 28.0902 15.3495 25.6106 15.3495 22.552C15.3495 19.4935 12.8632 17.0139 9.79635 17.0139V17.0119Z" fill="#101921"/>
<path d="M12.1278 30.6387H7.22363V32.1296H12.1278V30.6387Z" fill="#0080FF"/>
<path d="M6.41972 18.81C7.02759 19.4068 7.46095 20.3108 7.65703 21.3467C7.95116 20.748 8.47276 20.3265 9.1022 20.1473C8.9316 19.6175 8.70414 19.1291 8.42177 18.6998C8.10607 18.2192 7.74331 17.843 7.35114 17.5791C6.8668 17.8174 6.41972 18.1247 6.02755 18.4871C6.16285 18.5796 6.29422 18.6879 6.41972 18.812V18.81Z" fill="#0080FF"/>
<path d="M9.112 24.9095C8.49433 24.7342 7.98058 24.3246 7.68056 23.7495C7.55899 24.4703 7.32172 25.136 6.98249 25.6874C6.72366 26.1069 6.41972 26.4378 6.08637 26.6702C6.46874 27.0129 6.90014 27.3044 7.36878 27.5328C7.73155 27.2788 8.06686 26.9302 8.36295 26.493C8.67669 26.0282 8.92964 25.4944 9.112 24.9115V24.9095Z" fill="#0080FF"/>
<path d="M7.09818 22.558C7.08446 21.1892 6.64522 19.9464 5.9197 19.2335C5.79028 19.1074 5.65694 19.0031 5.51772 18.9184C5.18437 19.3004 4.902 19.7298 4.68238 20.1946C5.20006 20.681 5.53733 21.5575 5.53733 22.5796C5.53733 23.59 5.20594 24.4585 4.70003 24.9489C4.92749 25.4235 5.22163 25.8588 5.57066 26.2468C5.8746 26.0597 6.155 25.7662 6.39423 25.3782C6.85896 24.6279 7.10799 23.6254 7.09818 22.5599V22.558Z" fill="#0080FF"/>
<path d="M4.3157 20.6613C4.11177 21.2384 4 21.8588 4 22.5028C4 23.1468 4.11569 23.7948 4.32747 24.3817C4.65885 23.9622 4.87847 23.2807 4.87847 22.5304C4.87847 21.78 4.65297 21.0789 4.31374 20.6613H4.3157Z" fill="#0080FF"/>
</svg>
