<svg width="50" height="50" viewBox="0 0 50 50" fill="none" xmlns="http://www.w3.org/2000/svg">
<rect width="50" height="50" fill="#292929"/>
<path d="M36.2393 28.0245L39.6163 19.2962H42L37.1332 31H35.2461L30.3792 19.2962H32.763L36.2393 28.0245Z" fill="white"/>
<path d="M21.9366 20.9823C23.5338 17.5109 28.7897 19.6929 29.6838 20.5856L28.5912 22.0734C28.5691 22.0614 24.2199 19.723 23.6253 21.875C23.1369 23.643 26.1778 23.8424 28.2933 25.0489C29.4852 25.7287 30.7831 27.231 29.8824 28.9171C27.821 32.7765 22.6322 30.2065 21.0429 29.2147L22.3339 27.9253C23.0292 28.5204 27.4989 30.4049 28.1941 28.0245C28.5273 26.8839 25.6735 26.3088 23.6253 25.2473C21.9117 24.3591 20.9506 23.1255 21.9366 20.9823Z" fill="white"/>
<path d="M13.9594 19C17.2506 19 19.9187 21.6644 19.9187 24.9511C19.9187 28.2378 17.2506 30.9022 13.9594 30.9022C13.0074 30.9022 12.1075 30.6793 11.3093 30.2828L9.42214 30.5041L10.316 29.6608L11.7114 28.2228C12.3507 28.6617 13.125 28.9185 13.9594 28.9185C16.1535 28.9185 17.9323 27.1422 17.9323 24.9511C17.9322 22.76 16.1535 20.9837 13.9594 20.9837C11.7652 20.9837 9.98648 22.76 9.98646 24.9511C9.98646 25.8631 10.2946 26.7033 10.8127 27.3734L9.34609 28.7188C8.50477 27.6927 8 26.3807 8 24.9511C8.00003 21.6644 10.6681 19 13.9594 19Z" fill="white"/>
<path fill-rule="evenodd" clip-rule="evenodd" d="M13.991 22.1726C15.5818 22.1726 16.8713 23.4603 16.8713 25.0489C16.8713 26.6375 15.5818 27.9253 13.991 27.9253C12.4002 27.9253 11.1106 26.6375 11.1106 25.0489C11.1106 23.4603 12.4002 22.1726 13.991 22.1726ZM14.0903 26.1399H13.8917V24.5569C13.676 24.5734 13.5099 24.6442 13.3867 24.7539V24.7517L12.9675 24.7866C12.78 24.8023 12.6175 24.9225 12.5477 25.097L12.5283 25.1456L12.7128 25.2192L12.7322 25.1706C12.7741 25.0659 12.8715 24.9938 12.984 24.9844L13.2232 24.9643C13.1624 25.0782 13.125 25.2103 13.1079 25.3534L12.9902 25.3633C12.8028 25.379 12.6402 25.4991 12.5704 25.6735L12.551 25.7221L12.7355 25.7957L12.7549 25.7471C12.7968 25.6425 12.8943 25.5705 13.0067 25.5611L13.0973 25.5534C13.0977 25.6621 13.106 25.7667 13.1246 25.8645L12.9675 25.8776C12.78 25.8933 12.6175 26.0136 12.5477 26.188L12.5283 26.2366L12.7128 26.3102L12.7322 26.2616C12.7741 26.157 12.8715 26.0849 12.984 26.0754L13.1793 26.059C13.292 26.3454 13.5346 26.5367 13.991 26.5367C14.4059 26.5367 14.6544 26.3565 14.7805 26.0843L14.9413 26.0979C15.0538 26.1073 15.1513 26.1794 15.1931 26.2841L15.2125 26.3327L15.397 26.2591L15.3776 26.2105C15.3078 26.036 15.1453 25.916 14.9578 25.9003L14.8471 25.891C14.8718 25.7876 14.8834 25.6761 14.8843 25.5598L14.8987 25.5611C15.0111 25.5705 15.1086 25.6425 15.1505 25.7471L15.1699 25.7957L15.3543 25.7221L15.3349 25.6735C15.2651 25.4991 15.1026 25.379 14.9152 25.3633L14.8746 25.3598C14.8583 25.217 14.8219 25.0851 14.7623 24.971L14.9212 24.9844C15.0336 24.9938 15.1313 25.0659 15.1732 25.1706L15.1926 25.2192L15.377 25.1456L15.3576 25.097C15.2878 24.9225 15.1253 24.8023 14.9378 24.7866L14.5999 24.7583C14.4763 24.6462 14.3088 24.5736 14.0903 24.5569V26.1399ZM13.1964 23.5611V23.7595H13.2488C13.3616 23.7595 13.4648 23.8232 13.5153 23.924L13.6174 24.1278C13.5819 24.1683 13.5529 24.2141 13.5322 24.264C13.5072 24.3241 13.4944 24.3887 13.4944 24.4538H14.4876C14.4876 24.3887 14.4747 24.3241 14.4498 24.264C14.4248 24.2038 14.3882 24.1492 14.3421 24.1032C14.328 24.089 14.3128 24.0761 14.2971 24.0638L14.3673 23.924C14.4178 23.8232 14.521 23.7595 14.6339 23.7595H14.6862V23.5611H14.6339C14.4458 23.5611 14.2738 23.6673 14.1896 23.8353L14.1194 23.9751C14.0776 23.9639 14.0345 23.9579 13.991 23.9579C13.9258 23.9579 13.8611 23.9707 13.8009 23.9957C13.7933 23.9988 13.786 24.0026 13.7786 24.0061L13.693 23.8353C13.6089 23.6673 13.4369 23.5611 13.2488 23.5611H13.1964Z" fill="#E62129"/>
</svg>
