<svg width="50" height="50" viewBox="0 0 50 50" fill="none" xmlns="http://www.w3.org/2000/svg">
<path d="M25.0014 36.5693C18.6216 36.5693 13.4307 31.3784 13.4307 25.0014C13.4307 18.6244 18.6216 13.4278 25.0014 13.4278C28.8449 13.4278 32.4322 15.3366 34.5943 18.5323C35.887 20.4469 36.5722 22.681 36.5722 24.9986C36.5722 31.3784 31.3813 36.5664 25.0043 36.5664L25.0014 36.5693ZM25.0014 14.6457C19.2924 14.6457 14.6485 19.2895 14.6485 24.9986C14.6485 30.7076 19.2924 35.3486 25.0014 35.3486C30.7105 35.3486 35.3515 30.7048 35.3515 24.9986C35.3515 22.9257 34.7411 20.9276 33.5838 19.2146C31.6491 16.3529 28.4419 14.6457 25.0014 14.6457Z" fill="#1AC0C6"/>
<path d="M25.0014 43.1449C14.994 43.1449 6.85219 35.006 6.85219 24.9986C6.85219 14.9911 14.994 6.85219 25.0014 6.85219C31.0301 6.85219 36.6557 9.84635 40.0442 14.8616C42.0739 17.8644 43.1449 21.371 43.1449 25.0014C43.1449 35.006 35.006 43.1478 24.9986 43.1478L25.0014 43.1449ZM25.0014 8.07001C15.6648 8.07001 8.07001 15.6648 8.07001 25.0014C8.07001 34.3381 15.6648 41.93 24.9986 41.93C34.3323 41.93 41.9271 34.3352 41.9271 25.0014C41.9271 21.6128 40.9281 18.3452 39.0337 15.5439C35.8697 10.8655 30.6241 8.07001 24.9986 8.07001H25.0014Z" fill="#1AC0C6"/>
<path d="M25.0014 44C14.5247 44 6 35.4753 6 25.0014C6 15.875 12.5037 8.02106 21.466 6.32821C22.6205 6.1094 23.8124 6 25.0014 6C27.4975 6 29.9274 6.48079 32.222 7.42511L31.1078 10.1285C29.1702 9.32813 27.1175 8.92507 25.0043 8.92507C23.9967 8.92507 22.989 9.0172 22.0102 9.20433C14.4269 10.6323 8.92219 17.2771 8.92219 25.0014C8.92219 33.8659 16.1341 41.0778 25.0014 41.0778C33.8688 41.0778 41.0778 33.8659 41.0778 25.0014C41.0778 21.7856 40.1277 18.6791 38.3312 16.0218L40.7525 14.3837C42.8772 17.5275 44 21.1983 44 25.0014C44 35.4781 35.4781 44 25.0014 44Z" fill="#0F4A65"/>
<path d="M25.0014 37.4215C18.1523 37.4215 12.5785 31.8477 12.5785 24.9986C12.5785 19.0246 16.8366 13.8914 22.7011 12.7887C23.4554 12.6476 24.2299 12.5756 25.0014 12.5756C26.6338 12.5756 28.2202 12.8895 29.7173 13.5056L28.6031 16.209C26.9189 15.5151 25.0302 15.3251 23.2395 15.6619C18.754 16.5055 15.5007 20.4325 15.5007 24.9986C15.5007 30.2355 19.7616 34.4964 25.0014 34.4964C30.2412 34.4964 34.4993 30.2355 34.4993 24.9986C34.4993 23.0984 33.9379 21.2616 32.8784 19.6926L35.2996 18.0544C36.6902 20.11 37.4244 22.5111 37.4244 24.9986C37.4244 31.8477 31.8506 37.4215 25.0014 37.4215Z" fill="#0F4A65"/>
<path d="M24.9986 19.3874C21.8979 19.3874 19.3874 21.8979 19.3874 24.9986C19.3874 28.0992 21.9007 30.6097 24.9986 30.6097C28.0964 30.6097 30.6097 28.0964 30.6097 24.9986C30.6097 21.9007 28.0964 19.3874 24.9986 19.3874ZM24.9986 26.4985C24.1752 26.4985 23.5072 25.8277 23.5072 24.9986C23.5072 24.1694 24.1752 23.4986 24.9986 23.4986C25.822 23.4986 26.4899 24.1694 26.4899 24.9986C26.4899 25.8277 25.822 26.4985 24.9986 26.4985Z" fill="#0F4A65"/>
</svg>
