<svg width="50" height="50" viewBox="0 0 50 50" fill="none" xmlns="http://www.w3.org/2000/svg">
<path d="M0 0H25V50H0V0Z" fill="black"/>
<path d="M25 0H50V50H25V0Z" fill="white"/>
<path d="M25 42C20.4913 42 16.1673 40.2089 12.9792 37.0208C9.79107 33.8327 8 29.5087 8 25C8 20.4913 9.79107 16.1673 12.9792 12.9792C16.1673 9.79107 20.4913 8 25 8V13.814C22.0333 13.814 19.1881 14.9925 17.0903 17.0903C14.9925 19.1881 13.814 22.0333 13.814 25C13.814 27.9667 14.9925 30.8119 17.0903 32.9097C19.1881 35.0075 22.0333 36.186 25 36.186V42Z" fill="white"/>
<path d="M25 8C29.5087 8 33.8327 9.79107 37.0208 12.9792C40.2089 16.1673 42 20.4913 42 25C42 29.5087 40.2089 33.8327 37.0208 37.0208C33.8327 40.2089 29.5087 42 25 42V36.186C27.9667 36.186 30.8119 35.0075 32.9097 32.9097C35.0075 30.8119 36.186 27.9667 36.186 25C36.186 22.0333 35.0075 19.1881 32.9097 17.0903C30.8119 14.9925 27.9667 13.814 25 13.814V8Z" fill="black"/>
</svg>
