<svg width="50" height="50" viewBox="0 0 50 50" fill="none" xmlns="http://www.w3.org/2000/svg">
<path fill-rule="evenodd" clip-rule="evenodd" d="M31.433 6.01056C29.3315 6.12492 27.7155 6.3437 26.1497 6.72583C21.6496 7.82404 18.8666 10.045 18.0554 13.1854C17.9295 13.6728 17.8405 14.2655 17.8004 14.8836L17.7735 15.2979L17.3793 15.5595C16.8453 15.9139 16.1826 16.4104 15.6434 16.86C11.9359 19.9521 9.60986 24.0353 9.08877 28.3663C9.00154 29.0915 8.97264 30.4229 9.029 31.1224C9.27431 34.1689 10.519 36.9166 12.6488 39.1134C14.4508 40.972 16.747 42.2358 19.2797 42.763C20.2891 42.9733 20.5913 43 21.9437 43C23.2945 43 23.5877 42.974 24.6188 42.7641C28.3667 42.0004 31.653 39.5084 33.4512 36.0664C34.7266 33.6253 35.1758 30.8042 34.7328 28.0176C34.1205 24.1665 31.7251 20.7493 28.2826 18.8163C26.6557 17.9028 24.5324 17.2609 22.755 17.1452C22.0667 17.1005 21.9779 17.1236 21.463 17.4822C20.741 17.9849 20.07 18.563 19.22 19.4145C18.0632 20.5732 17.1885 21.6523 16.4417 22.8421C16.0897 23.4028 15.4276 24.6508 15.4632 24.6863C15.4738 24.6969 15.6543 24.5263 15.8644 24.3073C16.6046 23.5353 17.3448 22.9944 18.3074 22.5222C20.4862 21.4535 22.8957 21.3525 25.1051 22.2372C27.802 23.3172 29.7932 25.7512 30.3062 28.5951C30.7388 30.9932 30.1173 33.457 28.5963 35.3731C28.3266 35.7129 27.6673 36.3784 27.3174 36.6641C25.5997 38.0666 23.318 38.7649 21.1435 38.5537C18.829 38.3289 16.7392 37.1982 15.2649 35.3731C12.6848 32.1788 12.217 28.3983 13.8817 24.1942C15.1382 21.0213 17.551 18.1387 21.0553 15.6241C24.0626 13.4661 27.8423 11.6154 32.0506 10.2402C32.8977 9.96337 34.6629 9.44766 34.972 9.38668L35.1081 9.35982L34.9525 9.45139C34.867 9.50174 34.3945 9.74986 33.9025 10.0028C29.6203 12.2041 27.2707 13.5298 25.1716 14.9285C24.6531 15.2741 23.7402 15.9135 23.656 15.9902C23.6194 16.0235 23.7633 16.0805 24.5092 16.3276C26.5639 17.0084 28.2303 17.2149 29.8384 16.9879C31.6721 16.729 33.2435 15.8772 34.8362 14.2787C35.5468 13.5655 36.1656 12.8295 37.3829 11.2492C39.1313 8.97959 39.9082 8.10094 40.8742 7.30011C40.9434 7.24277 41 7.1802 41 7.16106C41 7.11327 40.0891 6.83192 39.4055 6.66857C38.3485 6.41605 36.9371 6.20943 35.3998 6.08218C34.7271 6.02651 32.0336 5.97787 31.433 6.01056Z" fill="#44A444"/>
</svg>
