<svg width="50" height="50" viewBox="0 0 50 50" fill="none" xmlns="http://www.w3.org/2000/svg">
<path fill-rule="evenodd" clip-rule="evenodd" d="M15.937 21.6388C15.8943 21.6564 15.8177 21.6777 15.7667 21.6859C15.7157 21.6944 15.653 21.7046 15.6274 21.7088C15.6018 21.7131 15.5609 21.7016 15.5364 21.6835C15.501 21.6573 15.4974 21.6592 15.5183 21.6922C15.5385 21.7241 15.5317 21.7293 15.4894 21.7137C15.4589 21.7026 15.4183 21.7058 15.3992 21.7207C15.38 21.7355 15.1883 21.7539 14.9733 21.7613C14.7581 21.7689 14.5666 21.7841 14.5476 21.7954C14.5286 21.8065 14.5131 21.8083 14.5131 21.7992C14.5131 21.7901 14.4853 21.8093 14.4513 21.8415C14.4078 21.8827 14.343 21.9018 14.2346 21.9051C14.1494 21.9079 14.0554 21.9113 14.0256 21.9126C13.9959 21.9139 13.9436 21.9433 13.9095 21.9779C13.8627 22.0256 13.801 22.0438 13.6546 22.0532C13.5108 22.0625 13.4432 22.082 13.3896 22.1299C13.348 22.167 13.2777 22.1941 13.2232 22.1941C13.1655 22.1941 13.0999 22.2212 13.0548 22.2633C13.009 22.3062 12.9282 22.3389 12.8417 22.3496C12.7493 22.361 12.6881 22.3872 12.6599 22.4275C12.6338 22.4647 12.584 22.488 12.5307 22.488C12.4764 22.488 12.4225 22.5139 12.3868 22.5569C12.3547 22.5956 12.2792 22.6349 12.2146 22.6463C12.1482 22.6582 12.0859 22.6911 12.0673 22.7244C12.0493 22.7559 12.0154 22.7819 11.9919 22.7819C11.9682 22.7819 11.9074 22.815 11.857 22.8553C11.8063 22.8958 11.7494 22.9288 11.7305 22.9288C11.7116 22.9288 11.6668 22.9608 11.631 22.9999C11.5951 23.0391 11.5342 23.0786 11.4955 23.0877C11.4569 23.097 11.418 23.1312 11.409 23.1636C11.399 23.1996 11.3668 23.2228 11.3266 23.2228C11.2901 23.2228 11.2265 23.2547 11.1854 23.2938C11.1442 23.333 11.0829 23.3733 11.0491 23.3836C11.0153 23.3937 10.9793 23.4271 10.9692 23.4578C10.9589 23.4884 10.9241 23.5215 10.8917 23.5312C10.8595 23.541 10.825 23.5727 10.8153 23.6018C10.8057 23.6309 10.763 23.6696 10.7209 23.6877C10.6786 23.7061 10.6441 23.7411 10.6441 23.7658C10.6441 23.7904 10.6281 23.8104 10.6086 23.8104C10.5635 23.8104 10.385 23.9838 10.3561 24.0557C10.3441 24.0855 10.3065 24.1167 10.2726 24.1253C10.2386 24.1337 10.2108 24.1508 10.2108 24.1633C10.2108 24.1956 10.036 24.4042 9.86255 24.5791C9.78177 24.6607 9.7156 24.7538 9.7156 24.786C9.7156 24.8194 9.68949 24.851 9.65467 24.8596C9.62124 24.8678 9.5845 24.903 9.57301 24.9376C9.56169 24.9723 9.51939 25.0379 9.47917 25.0837C9.43895 25.1293 9.40604 25.1849 9.40604 25.2069C9.40604 25.229 9.37818 25.2656 9.34423 25.288C9.31046 25.3107 9.27389 25.3702 9.26345 25.4204C9.25283 25.4707 9.21818 25.5342 9.18632 25.5614C9.15463 25.5887 9.11981 25.6588 9.10901 25.7173C9.09805 25.7757 9.0627 25.8436 9.03014 25.8682C8.99759 25.8929 8.96224 25.9656 8.95162 26.0299C8.94048 26.0957 8.90043 26.1749 8.85952 26.2114C8.80241 26.2623 8.78692 26.3071 8.78692 26.4208C8.78692 26.5323 8.77281 26.5749 8.72546 26.606C8.68054 26.6354 8.6586 26.6939 8.64415 26.8225C8.63092 26.9409 8.60219 27.023 8.55744 27.0725C8.50225 27.1328 8.48867 27.19 8.48083 27.3956C8.47561 27.533 8.45524 27.6652 8.43574 27.6895C8.33215 27.8176 8.32884 27.8565 8.33546 28.8966C8.34225 29.993 8.34329 30.0071 8.42233 30.0905C8.4589 30.1292 8.47509 30.217 8.48258 30.4188C8.49163 30.6597 8.50138 30.7005 8.55988 30.7443C8.60967 30.7815 8.62883 30.8316 8.63475 30.939C8.64397 31.1055 8.67862 31.2121 8.73817 31.2576C8.76097 31.2751 8.78709 31.347 8.79632 31.4173C8.80555 31.4882 8.84141 31.574 8.87728 31.6102C8.91732 31.6505 8.9417 31.7143 8.9417 31.7784C8.9417 31.8505 8.96503 31.9024 9.01918 31.9507C9.06409 31.9909 9.09648 32.0523 9.09648 32.0981C9.09648 32.1413 9.12555 32.2016 9.1609 32.232C9.19642 32.2624 9.24447 32.3309 9.2678 32.3839C9.2913 32.437 9.33187 32.4882 9.35816 32.4978C9.38445 32.5074 9.40604 32.533 9.40604 32.5549C9.40604 32.6258 9.4769 32.7441 9.51939 32.7441C9.54289 32.7441 9.56082 32.7757 9.56082 32.8175C9.56082 32.858 9.57475 32.8911 9.59164 32.8911C9.6087 32.8911 9.61915 32.901 9.61497 32.9131C9.60748 32.9342 9.65519 32.9924 9.79587 33.1342C9.83173 33.1701 9.87735 33.2293 9.89755 33.2657C9.91792 33.302 9.95483 33.3318 9.97973 33.3318C10.0074 33.3318 10.025 33.3604 10.025 33.4053C10.025 33.451 10.0426 33.4787 10.0715 33.4787C10.0971 33.4787 10.118 33.4911 10.118 33.5062C10.118 33.5212 10.2001 33.6123 10.3008 33.7088C10.4014 33.8052 10.5071 33.9179 10.5357 33.9594C10.5644 34.0009 10.6143 34.0429 10.6469 34.0527C10.6795 34.0624 10.7059 34.0894 10.7059 34.1125C10.7059 34.1356 10.7268 34.1547 10.7524 34.1547C10.778 34.1547 10.7989 34.1679 10.7989 34.1841C10.7989 34.2003 10.8187 34.2135 10.8431 34.2135C10.8677 34.2135 10.8964 34.2399 10.9072 34.2722C10.918 34.3046 10.9373 34.331 10.9502 34.331C10.9629 34.331 11.0202 34.3707 11.0775 34.4191C11.1346 34.4676 11.1993 34.5072 11.2213 34.5072C11.2432 34.5072 11.2812 34.5436 11.3057 34.5881C11.3303 34.6325 11.3587 34.6656 11.3686 34.6616C11.4158 34.6426 11.4488 34.6583 11.4488 34.6993C11.4488 34.7246 11.5082 34.7686 11.5836 34.7993C11.6578 34.8296 11.7271 34.8754 11.7375 34.9012C11.748 34.9269 11.7859 34.9481 11.8221 34.9481C11.8582 34.9481 11.9121 34.9767 11.9419 35.0117C11.9719 35.0466 12.0298 35.08 12.0708 35.0858C12.1118 35.0914 12.1592 35.1136 12.1763 35.1349C12.2201 35.1898 12.3316 35.242 12.4049 35.242C12.4393 35.242 12.5024 35.2751 12.5448 35.3154C12.5945 35.3627 12.657 35.389 12.7195 35.389C12.7905 35.389 12.821 35.4047 12.8328 35.4476C12.8417 35.48 12.8508 35.5072 12.853 35.508C12.8553 35.5088 12.9197 35.5169 12.9961 35.5262C13.0832 35.5367 13.1582 35.5672 13.1972 35.6078C13.2411 35.6534 13.3008 35.6746 13.3988 35.6794C13.5806 35.688 13.652 35.7092 13.6274 35.747C13.5947 35.7973 13.6694 35.8202 13.8881 35.8268C14.0625 35.8321 14.1083 35.8449 14.1775 35.9077C14.2227 35.9488 14.268 35.9811 14.2781 35.9796C14.4654 35.9503 14.8518 35.9837 14.8674 36.0305C14.8774 36.0601 14.9026 36.0884 14.9237 36.093C15.0321 36.1174 17.3614 36.1171 17.3772 36.0927C17.3873 36.0773 17.4239 36.0649 17.4589 36.0649C17.498 36.0649 17.5163 36.0503 17.5067 36.0267C17.4951 35.9976 17.5518 35.9865 17.743 35.9802C18.1553 35.967 18.32 35.93 18.2751 35.8609C18.2676 35.8495 18.327 35.8371 18.407 35.8336C18.6301 35.8235 18.664 35.8149 18.7345 35.7506C18.7789 35.7103 18.8601 35.6852 18.9858 35.6733C19.088 35.6635 19.175 35.6551 19.1792 35.6544C19.1836 35.6539 19.1836 35.6369 19.1792 35.6166C19.175 35.5964 19.189 35.5832 19.2102 35.5873C19.2314 35.5913 19.2489 35.5814 19.2489 35.5652C19.2489 35.5491 19.2892 35.5359 19.3385 35.5359C19.3937 35.5359 19.456 35.5078 19.501 35.4629C19.5424 35.4215 19.6093 35.3896 19.6557 35.3895C19.7022 35.3891 19.7691 35.3574 19.8105 35.3159C19.8506 35.2759 19.9087 35.2428 19.9395 35.2425C20.0053 35.2418 20.1176 35.1889 20.162 35.1379C20.1789 35.1182 20.2296 35.0941 20.2743 35.0841C20.3198 35.0742 20.363 35.0402 20.372 35.0073C20.3865 34.9546 20.4789 34.9279 20.5883 34.9448C20.6013 34.9469 20.6248 34.917 20.6401 34.8785C20.6556 34.8402 20.7023 34.8005 20.7441 34.7906C20.7859 34.7805 20.8273 34.7458 20.8364 34.7134C20.8473 34.6735 20.8785 34.6542 20.9318 34.6542C20.9784 34.6542 21.0509 34.6172 21.1081 34.5641C21.1616 34.5145 21.2241 34.4808 21.2469 34.4891C21.2706 34.4978 21.2828 34.4891 21.2749 34.4691C21.2556 34.4188 21.2971 34.3689 21.3691 34.3562C21.4038 34.3499 21.4351 34.3175 21.4405 34.2823C21.4457 34.2477 21.4781 34.2125 21.5124 34.2039C21.5467 34.1953 21.5822 34.1618 21.5913 34.129C21.6002 34.0965 21.6374 34.0657 21.674 34.0608C21.7156 34.0551 21.7442 34.027 21.7504 33.9857C21.7567 33.9434 21.7818 33.9196 21.8195 33.9196C21.8561 33.9196 21.8857 33.8927 21.8974 33.8488C21.9076 33.81 21.9437 33.7713 21.9776 33.7629C22.0114 33.7545 22.0468 33.7202 22.056 33.6867C22.0652 33.6531 22.0866 33.6257 22.1037 33.6257C22.1526 33.6257 22.3751 33.3954 22.3751 33.3447C22.3751 33.3196 22.3856 33.3042 22.3983 33.3108C22.4206 33.322 22.5299 33.2298 22.5299 33.1995C22.5299 33.1914 22.5299 33.165 22.5299 33.1409C22.5299 33.1166 22.5404 33.1 22.5531 33.104C22.5658 33.1081 22.5785 33.0994 22.5813 33.0847C22.5839 33.0699 22.6083 33.0461 22.6354 33.0318C22.6624 33.0174 22.6845 32.982 22.6845 32.9531C22.6845 32.9241 22.7193 32.8855 22.762 32.867C22.8196 32.842 22.8393 32.8109 22.8393 32.7446C22.8393 32.6959 22.8497 32.6592 22.8626 32.6633C22.8753 32.6673 22.8887 32.6602 22.8924 32.6476C22.8961 32.6349 22.9204 32.6041 22.9465 32.5793C22.9727 32.5545 22.9941 32.5087 22.9941 32.4775C22.9941 32.4415 23.0155 32.4208 23.0526 32.4208C23.0958 32.4208 23.1165 32.392 23.1321 32.3105C23.1436 32.25 23.1807 32.18 23.2147 32.155C23.2484 32.13 23.2833 32.0639 23.292 32.008C23.3007 31.9522 23.3256 31.8933 23.3472 31.8771C23.4151 31.8264 23.4584 31.7232 23.4584 31.6128C23.4584 31.5543 23.4708 31.5136 23.4859 31.5224C23.5199 31.5424 23.5893 31.4675 23.5613 31.4411C23.5502 31.4303 23.5545 31.4217 23.5712 31.4217C23.588 31.4217 23.605 31.3597 23.609 31.2842C23.6132 31.2085 23.636 31.1324 23.6599 31.1151C23.7258 31.0673 23.768 30.9341 23.768 30.7729C23.768 30.6653 23.7835 30.6149 23.8282 30.5787C23.8615 30.5516 23.8815 30.5187 23.8728 30.5055C23.8643 30.4922 23.8695 30.4813 23.8846 30.4813C23.8998 30.4813 23.9155 30.3327 23.9196 30.1512C23.9236 29.9697 23.9391 29.8074 23.9538 29.7905C24.061 29.6679 24.1263 27.9861 24.0199 28.0869C23.9625 28.1416 23.9226 28.0111 23.9226 27.7667C23.9222 27.4773 23.8838 27.2933 23.8155 27.2569C23.7864 27.2414 23.7704 27.1675 23.7659 27.0283C23.7603 26.8538 23.7483 26.8138 23.687 26.7638C23.6308 26.7179 23.6136 26.6713 23.6085 26.5514C23.6015 26.3807 23.5911 26.3567 23.5126 26.3291C23.4762 26.3164 23.4572 26.276 23.4546 26.2065C23.4523 26.1493 23.4471 26.0894 23.4429 26.0732C23.4387 26.057 23.4335 26.0299 23.4313 26.0127C23.4292 25.9957 23.417 25.9876 23.4043 25.995C23.3785 26.0097 23.2826 25.922 23.2979 25.8977C23.3231 25.8575 23.2639 25.6887 23.2124 25.6545C23.1807 25.6334 23.148 25.5748 23.1396 25.5244C23.1311 25.474 23.0954 25.4054 23.0601 25.3717C23.0247 25.3381 22.9869 25.2773 22.9761 25.2365C22.9653 25.1956 22.9375 25.1622 22.9145 25.1622C22.8642 25.1622 22.8113 25.0741 22.8306 25.0227C22.8383 25.0024 22.8294 24.9859 22.8109 24.9859C22.7925 24.9859 22.7775 24.9726 22.7775 24.9566C22.7775 24.9264 22.7268 24.865 22.5917 24.7318C22.5492 24.69 22.5177 24.6442 22.5219 24.6303C22.5261 24.6164 22.4947 24.5834 22.4523 24.5569C22.4098 24.5306 22.3751 24.4913 22.3751 24.4696C22.3751 24.448 22.3403 24.3972 22.2976 24.3567C22.2552 24.3164 22.2203 24.2718 22.2203 24.2579C22.2203 24.2438 22.1472 24.1676 22.0577 24.0884C21.9684 24.0093 21.8953 23.9314 21.8953 23.915C21.8953 23.8988 21.8605 23.8691 21.818 23.8491C21.7753 23.8289 21.7405 23.7968 21.7405 23.7778C21.7405 23.7588 21.7154 23.7287 21.6846 23.7107C21.654 23.6929 21.5511 23.6087 21.456 23.5239C21.3611 23.4391 21.2561 23.3697 21.2227 23.3697C21.1888 23.3697 21.1552 23.3446 21.1464 23.3127C21.1377 23.2814 21.0893 23.2421 21.0387 23.2252C20.988 23.2085 20.9541 23.1834 20.9631 23.1695C20.9722 23.1556 20.9314 23.1224 20.8726 23.0958C20.8137 23.0692 20.7655 23.0338 20.7655 23.0173C20.7655 23.0008 20.7108 22.9664 20.6441 22.9411C20.5773 22.9156 20.5157 22.8774 20.507 22.8561C20.4984 22.8346 20.4417 22.8016 20.3807 22.7826C20.32 22.7635 20.2703 22.7373 20.2703 22.724C20.2703 22.7108 20.2172 22.6799 20.1525 22.6553C20.0877 22.6308 20.0172 22.5906 19.9959 22.5663C19.9747 22.5419 19.9023 22.5133 19.8352 22.5024C19.768 22.4916 19.7028 22.4662 19.69 22.4457C19.6557 22.3908 19.5426 22.341 19.452 22.341C19.4083 22.341 19.3726 22.3245 19.3725 22.3043C19.3721 22.2509 19.2241 22.1941 19.085 22.1941C18.9927 22.1941 18.9609 22.181 18.9492 22.1385C18.9323 22.077 18.8223 22.0473 18.6125 22.0473C18.5105 22.0473 18.4749 22.0346 18.4612 21.9934C18.4401 21.9303 18.4394 21.9301 18.122 21.9104C17.935 21.8989 17.8656 21.8823 17.828 21.8407C17.7662 21.7721 17.6586 21.7574 17.1791 21.7514C16.881 21.7478 16.7837 21.7365 16.7394 21.7005C16.7058 21.6732 16.6092 21.6507 16.5032 21.6453C16.4046 21.6403 16.2542 21.6297 16.1691 21.6216C16.0839 21.6135 15.9795 21.6213 15.937 21.6388ZM17.1126 23.1125C17.1564 23.1654 17.2038 23.1803 17.3492 23.187C17.4862 23.1933 17.544 23.21 17.5839 23.2548C17.6128 23.2874 17.6894 23.3216 17.754 23.3309C17.8203 23.3405 17.8943 23.3748 17.9239 23.41C17.9777 23.474 17.9861 23.4772 18.1198 23.4834C18.1687 23.4857 18.2098 23.5124 18.2302 23.5545C18.2479 23.5915 18.2878 23.6238 18.3188 23.6259C18.3498 23.6281 18.4149 23.6638 18.4638 23.7053C18.5126 23.7468 18.5852 23.8079 18.625 23.8413C18.6649 23.8749 18.7311 23.9142 18.7721 23.9291C18.8131 23.9438 18.8465 23.9759 18.8465 24.0002C18.8465 24.0245 18.8804 24.0526 18.9221 24.0625C18.9682 24.0734 19.0014 24.1053 19.0072 24.1438C19.0131 24.1835 19.0427 24.2106 19.0864 24.2165C19.1308 24.2225 19.1561 24.2463 19.1561 24.2822C19.1561 24.3171 19.1843 24.345 19.2307 24.3561C19.2751 24.3666 19.3129 24.4025 19.3242 24.4448C19.3361 24.49 19.3652 24.5157 19.4042 24.5157C19.44 24.5157 19.4656 24.5354 19.4656 24.5634C19.4656 24.5895 19.5074 24.6561 19.5584 24.7113C19.6094 24.7665 19.6512 24.8303 19.6512 24.853C19.6512 24.8758 19.6772 24.9116 19.7087 24.9328C19.7404 24.954 19.7771 25.0042 19.7905 25.0447C19.8039 25.085 19.8408 25.1355 19.8723 25.1566C19.904 25.1776 19.9303 25.2173 19.9308 25.2447C19.932 25.3069 20.0022 25.3973 20.0492 25.3973C20.0687 25.3973 20.0846 25.4294 20.0846 25.4685C20.0846 25.5077 20.1194 25.5791 20.162 25.6271C20.2045 25.6752 20.2395 25.739 20.2397 25.7689C20.2406 25.8758 20.277 25.9504 20.3351 25.9649C20.3774 25.9754 20.3941 26.0058 20.3941 26.0719C20.3941 26.1694 20.4704 26.3377 20.5148 26.3377C20.5291 26.3377 20.5505 26.4296 20.5621 26.542C20.5794 26.7083 20.5945 26.7496 20.6435 26.7643C20.6929 26.7792 20.7046 26.8124 20.7089 26.9495C20.7119 27.0414 20.7157 27.1407 20.7174 27.1702C20.7192 27.1997 20.7498 27.2528 20.7855 27.2879C20.8435 27.345 20.8522 27.3979 20.8675 27.7871C20.8806 28.1147 20.897 28.2398 20.9342 28.2939C20.9614 28.3332 20.9746 28.3655 20.9636 28.3655C20.9527 28.3655 20.9575 28.382 20.9746 28.4022C21.0117 28.4463 21.023 29.4234 20.9864 29.4234C20.9335 29.4234 20.8815 29.6861 20.867 30.0257C20.8586 30.2248 20.8365 30.3969 20.8165 30.4208C20.7892 30.4534 20.7899 30.4582 20.8193 30.4413C20.8454 30.4264 20.8519 30.434 20.8393 30.465C20.8292 30.4899 20.8096 30.5036 20.7954 30.4954C20.7652 30.4777 20.7086 30.7306 20.6966 30.9367C20.691 31.0354 20.6755 31.0814 20.6495 31.0764C20.6281 31.0723 20.613 31.0789 20.6158 31.0911C20.6186 31.1032 20.6046 31.1503 20.5848 31.1958C20.5651 31.2414 20.5489 31.31 20.5489 31.3485C20.5489 31.3868 20.5205 31.4371 20.4861 31.4601C20.4417 31.4897 20.4175 31.5487 20.4037 31.6603C20.3912 31.7621 20.3631 31.8361 20.3247 31.8682C20.2918 31.8955 20.2571 31.9733 20.2475 32.0409C20.2355 32.1257 20.2129 32.1684 20.1746 32.178C20.1429 32.1857 20.11 32.2315 20.0978 32.2843C20.0861 32.3352 20.0435 32.4142 20.0033 32.4598C19.9629 32.5054 19.9298 32.5706 19.9298 32.6043C19.9298 32.638 19.9218 32.658 19.9119 32.6486C19.8896 32.6274 19.7806 32.7217 19.7957 32.7489C19.8171 32.7881 19.7445 32.9203 19.7015 32.9203C19.6772 32.9203 19.6427 32.96 19.6249 33.0086C19.6072 33.0571 19.5776 33.0967 19.5593 33.0967C19.541 33.0967 19.5102 33.1298 19.4909 33.1701C19.4715 33.2106 19.4376 33.2437 19.4156 33.2437C19.3935 33.2437 19.3523 33.2905 19.3237 33.3475C19.2952 33.4047 19.2422 33.4657 19.2062 33.483C19.17 33.5004 19.0666 33.5827 18.9762 33.6657C18.6948 33.9241 18.6778 33.9381 18.6191 33.9586C18.5878 33.9697 18.5549 34.0051 18.5458 34.0373C18.5369 34.0695 18.5115 34.0958 18.4892 34.0958C18.4671 34.0958 18.4095 34.1269 18.3614 34.1649C18.3132 34.2028 18.2373 34.2424 18.1924 34.2527C18.1476 34.2631 18.1037 34.2981 18.0947 34.3307C18.0834 34.3722 18.0524 34.3899 17.9904 34.3902C17.8483 34.3909 17.77 34.4208 17.7534 34.4806C17.742 34.5224 17.7103 34.5367 17.6283 34.5367C17.5043 34.5367 17.3546 34.5915 17.3784 34.6282C17.3976 34.6577 17.3168 34.6745 17.0513 34.6965C16.9212 34.7074 16.8204 34.734 16.7663 34.7719C16.6355 34.8633 15.6993 34.8608 15.5905 34.7687C15.5487 34.7334 15.465 34.7033 15.3945 34.6982C15.0706 34.6752 15.0215 34.6681 14.9884 34.6401C14.9689 34.6236 14.9595 34.6 14.9676 34.5874C14.9756 34.5749 14.9705 34.5672 14.9566 34.5704C14.8683 34.5902 14.6411 34.5254 14.6275 34.4763C14.6166 34.4363 14.5718 34.4168 14.4579 34.4024C14.3385 34.3874 14.2941 34.3671 14.2636 34.313C14.2419 34.2745 14.2184 34.2484 14.2112 34.2552C14.1834 34.2816 14.018 34.2052 14.018 34.1657C14.018 34.1428 13.9764 34.116 13.9255 34.1062C13.8747 34.0966 13.84 34.0783 13.8482 34.0656C13.8634 34.0422 13.5541 33.8295 13.453 33.7936C13.4232 33.7831 13.3988 33.754 13.3988 33.7287C13.3988 33.7035 13.364 33.6705 13.3215 33.6551C13.2789 33.6397 13.2441 33.6072 13.2441 33.5829C13.2441 33.5586 13.2092 33.5303 13.1668 33.5202C13.0962 33.5034 13.075 33.4749 13.086 33.412C13.0881 33.3996 13.0548 33.3767 13.0122 33.3612C12.9695 33.3458 12.9345 33.3136 12.9345 33.2896C12.9345 33.2657 12.8988 33.2146 12.8553 33.1762C12.8116 33.1377 12.7722 33.081 12.7677 33.0501C12.7632 33.0192 12.7294 32.9808 12.6923 32.9648C12.6329 32.9392 12.61 32.8944 12.6213 32.8255C12.6232 32.8136 12.5899 32.7955 12.5475 32.7855C12.4938 32.7727 12.4691 32.7456 12.4665 32.6969C12.4642 32.6582 12.4608 32.6101 12.4587 32.5897C12.4566 32.5696 12.4235 32.54 12.3852 32.5241C12.3371 32.5041 12.3155 32.4699 12.3155 32.4139C12.3155 32.3692 12.3016 32.3327 12.2846 32.3327C12.2675 32.3327 12.2536 32.3129 12.2536 32.2886C12.2536 32.2643 12.2327 32.2444 12.2073 32.2444C12.1677 32.2444 12.1432 32.1583 12.1561 32.0639C12.1575 32.0537 12.1256 32.0114 12.0852 31.97C12.045 31.9287 12.0025 31.8413 11.9908 31.7756C11.9792 31.7102 11.945 31.6399 11.9153 31.6199C11.8845 31.5991 11.8533 31.5282 11.8432 31.4554C11.8334 31.3852 11.7964 31.2984 11.7608 31.2625C11.7161 31.2174 11.6964 31.1587 11.6964 31.0706C11.6964 30.9055 11.636 30.7164 11.5833 30.7164C11.5521 30.7164 11.5408 30.6554 11.5382 30.4739C11.5362 30.3406 11.5314 30.2183 11.5274 30.2021C11.5234 30.1859 11.5181 30.1428 11.5155 30.1063C11.5129 30.0697 11.483 30.0173 11.4488 29.9895C11.3809 29.9343 11.348 27.8102 11.4158 27.8499C11.4804 27.8879 11.5134 27.7595 11.5324 27.3956C11.5446 27.1611 11.5578 27.1047 11.6155 27.043C11.6667 26.988 11.6862 26.9252 11.6929 26.7933C11.6997 26.661 11.7192 26.5985 11.7708 26.5435C11.8084 26.503 11.8432 26.4237 11.8481 26.3671C11.8528 26.3106 11.885 26.2352 11.9198 26.1997C11.955 26.1636 11.9891 26.0792 11.9973 26.0086C12.0065 25.9271 12.0345 25.8651 12.0765 25.8339C12.1122 25.8074 12.1465 25.7489 12.1528 25.7039C12.1592 25.659 12.1984 25.5838 12.24 25.537C12.2814 25.49 12.3155 25.4348 12.3155 25.4143C12.3155 25.3938 12.3431 25.3533 12.3768 25.3244C12.4106 25.2955 12.447 25.2272 12.4576 25.1728C12.471 25.1055 12.4944 25.0741 12.5313 25.0741C12.5699 25.0741 12.5933 25.0384 12.6129 24.9492C12.6345 24.852 12.6559 24.8222 12.7103 24.8149C12.7606 24.8082 12.7799 24.7858 12.7799 24.7341C12.7799 24.6852 12.7971 24.6627 12.8349 24.6627C12.8682 24.6627 12.9044 24.6265 12.9261 24.5718C12.946 24.5219 12.9735 24.4875 12.9871 24.4952C13.0102 24.5085 13.1144 24.4242 13.0971 24.4063C13.0774 24.3858 13.0921 24.3376 13.114 24.3504C13.1514 24.3724 13.2164 24.3252 13.2249 24.2696C13.2291 24.2425 13.2421 24.2207 13.2538 24.221C13.2892 24.2223 13.39 24.1207 13.3767 24.097C13.3698 24.0848 13.379 24.0749 13.3971 24.0749C13.4742 24.0749 13.551 24.0212 13.543 23.9727C13.5402 23.957 13.5695 23.9395 13.6078 23.934C13.6508 23.9278 13.6846 23.8967 13.6962 23.8526C13.7067 23.8132 13.7375 23.781 13.765 23.781C13.7923 23.781 13.8447 23.7479 13.8813 23.7076C13.9179 23.6673 13.9821 23.6314 14.0239 23.6281C14.1043 23.6218 14.1618 23.5805 14.159 23.5312C14.158 23.5152 14.2041 23.4977 14.2614 23.4924C14.3207 23.4871 14.3942 23.4535 14.4323 23.4145C14.4707 23.3753 14.5445 23.3418 14.6056 23.3358C14.6643 23.3302 14.7461 23.2958 14.7875 23.2595C14.845 23.2087 14.8997 23.1933 15.021 23.1933C15.1538 23.1933 15.1888 23.1814 15.2376 23.1198L15.2956 23.0464H16.1767C17.0535 23.0464 17.0581 23.0467 17.1126 23.1125Z" fill="#74C424"/>
<path fill-rule="evenodd" clip-rule="evenodd" d="M20.6043 15.4111C20.6043 15.5398 20.6074 15.5443 20.6993 15.5443C20.7573 15.5443 20.7865 15.5563 20.7743 15.5751C20.7372 15.6321 20.8274 15.6922 20.9497 15.6922C21.0575 15.6922 21.0701 15.7 21.0701 15.7663C21.0701 15.8249 21.0859 15.8402 21.1458 15.8402C21.2003 15.8402 21.2239 15.8587 21.2311 15.9069C21.241 15.973 21.2552 15.978 21.4507 15.9851C21.5203 15.9878 21.5362 16.0021 21.5362 16.0624C21.5362 16.1215 21.5517 16.1363 21.6139 16.1363C21.6566 16.1363 21.6933 16.1497 21.6954 16.166C21.6975 16.1823 21.701 16.2123 21.7032 16.2326C21.7055 16.2551 21.7651 16.2731 21.8546 16.2786C21.9879 16.2867 22.0022 16.2947 22.0022 16.36C22.0022 16.4175 22.0181 16.4324 22.0798 16.4324C22.142 16.4324 22.1576 16.4473 22.1576 16.5064C22.1576 16.5657 22.1731 16.5805 22.2351 16.5805C22.3077 16.5805 22.3129 16.5903 22.3129 16.7286C22.3129 16.8666 22.318 16.8766 22.3905 16.8766C22.466 16.8766 22.485 16.9615 22.467 17.218C22.4646 17.2527 22.5628 17.3233 22.5906 17.3069C22.6075 17.297 22.6241 17.3561 22.6295 17.4457C22.6378 17.5819 22.6479 17.6031 22.7089 17.6114C22.7707 17.6197 22.7788 17.6379 22.7788 17.7681C22.7788 17.8858 22.7945 17.9303 22.8565 17.9894C22.9184 18.0485 22.9341 18.0932 22.9341 18.2103C22.9341 18.347 22.9394 18.3568 23.0119 18.3568C23.0842 18.3568 23.0895 18.3668 23.0895 18.5049C23.0895 18.6431 23.0947 18.6529 23.1671 18.6529C23.2431 18.6529 23.2448 18.6579 23.2448 18.8751C23.2448 19.0921 23.2466 19.0971 23.3224 19.0971C23.3949 19.0971 23.4002 19.1069 23.4002 19.2451C23.4002 19.3832 23.4052 19.3932 23.4778 19.3932C23.5532 19.3932 23.5723 19.4781 23.5543 19.7346C23.5518 19.7704 23.6504 19.8397 23.6794 19.8225C23.6992 19.811 23.7109 19.8657 23.7109 19.9687C23.7109 20.1245 23.7149 20.1333 23.7884 20.1333C23.861 20.1333 23.866 20.1431 23.866 20.2813C23.866 20.4196 23.8713 20.4294 23.9438 20.4294C24.0196 20.4294 24.0214 20.4344 24.0214 20.6514C24.0214 20.8686 24.0231 20.8736 24.0991 20.8736C24.1717 20.8736 24.1767 20.8834 24.1767 21.0214C24.1767 21.1597 24.182 21.1695 24.2545 21.1695C24.3303 21.1695 24.3321 21.1745 24.3321 21.3917C24.3321 21.6087 24.3338 21.6137 24.4098 21.6137C24.4822 21.6137 24.4874 21.6235 24.4874 21.7617C24.4874 21.8999 24.4927 21.9098 24.565 21.9098C24.6386 21.9098 24.6428 21.9186 24.6428 22.0726C24.6428 22.285 24.6727 22.3538 24.7647 22.3538C24.784 22.3538 24.7981 22.4164 24.7981 22.5018C24.7981 22.64 24.8032 22.6499 24.8757 22.6499C24.9484 22.6499 24.9535 22.6597 24.9535 22.7993C24.9535 22.9192 24.9687 22.9633 25.0311 23.0227C25.0931 23.0817 25.1088 23.1263 25.1088 23.2434C25.1088 23.3801 25.1141 23.3901 25.1864 23.3901C25.2589 23.3901 25.264 23.4 25.264 23.5382C25.264 23.6762 25.2692 23.6861 25.3417 23.6861C25.4158 23.6861 25.4193 23.6942 25.4193 23.8614C25.4193 24.0748 25.4393 24.1302 25.516 24.1302C25.5658 24.1302 25.5747 24.1527 25.5747 24.2783C25.5747 24.4165 25.5799 24.4263 25.6524 24.4263C25.7258 24.4263 25.73 24.4352 25.73 24.5892C25.73 24.8016 25.7599 24.8705 25.8522 24.8705C25.8714 24.8705 25.8854 24.933 25.8854 25.0184C25.8854 25.1566 25.8906 25.1664 25.963 25.1664C26.0355 25.1664 26.0407 25.1764 26.0407 25.3145C26.0407 25.4527 26.046 25.4626 26.1183 25.4626C26.1943 25.4626 26.1961 25.4675 26.1961 25.6845C26.1961 25.9017 26.1978 25.9067 26.2737 25.9067C26.3462 25.9067 26.3514 25.9165 26.3514 26.0548C26.3514 26.1928 26.3565 26.2028 26.429 26.2028C26.505 26.2028 26.5068 26.2076 26.5068 26.4248C26.5068 26.642 26.5083 26.6468 26.5844 26.6468C26.6569 26.6468 26.6619 26.6566 26.6619 26.7962C26.6619 26.9161 26.6773 26.9602 26.7397 27.0197C26.8016 27.0786 26.8173 27.1233 26.8173 27.2404C26.8173 27.3771 26.8227 27.3871 26.8951 27.3871C26.9709 27.3871 26.9726 27.3919 26.9726 27.6091C26.9726 27.8262 26.9744 27.8311 27.0504 27.8311C27.1259 27.8311 27.1448 27.916 27.1269 28.1726C27.125 28.2001 27.2152 28.2752 27.2501 28.2752C27.2694 28.2752 27.2833 28.3377 27.2833 28.4233C27.2833 28.5615 27.2886 28.5713 27.3609 28.5713C27.4369 28.5713 27.4387 28.5762 27.4387 28.7933C27.4387 29.0093 27.4408 29.0153 27.515 29.0153C27.5881 29.0153 27.5916 29.0242 27.6003 29.23C27.6087 29.427 27.6153 29.4455 27.6795 29.4542C27.7412 29.4625 27.7494 29.4808 27.7494 29.6095C27.7494 29.7456 27.7546 29.7556 27.827 29.7556C27.903 29.7556 27.9047 29.7606 27.9047 29.9776C27.9047 30.1948 27.9063 30.1998 27.9823 30.1998C28.0583 30.1998 28.0599 30.2046 28.0599 30.4218C28.0599 30.6389 28.0616 30.6438 28.1377 30.6438C28.2102 30.6438 28.2152 30.6536 28.2152 30.7931C28.2152 30.9131 28.2306 30.9572 28.293 31.0166C28.3549 31.0756 28.3706 31.1202 28.3706 31.2373C28.3706 31.374 28.3758 31.384 28.4484 31.384C28.5242 31.384 28.5259 31.3889 28.5259 31.606C28.5259 31.8232 28.5277 31.828 28.6037 31.828C28.6762 31.828 28.6815 31.8383 28.685 31.9836C28.6904 32.2204 28.6919 32.2257 28.7667 32.257C28.8251 32.2813 28.8366 32.3093 28.8366 32.4272C28.8366 32.558 28.8422 32.5683 28.9142 32.5683C28.9902 32.5683 28.992 32.5731 28.992 32.7903C28.992 33.0063 28.9941 33.0123 29.0682 33.0123C29.1414 33.0123 29.1449 33.0211 29.1536 33.227C29.162 33.424 29.1686 33.4425 29.2328 33.4511C29.2945 33.4594 29.3027 33.4778 29.3027 33.6065C29.3027 33.7419 29.3083 33.7525 29.3789 33.7525C29.4521 33.7525 29.4556 33.7614 29.4643 33.9672C29.4727 34.1641 29.4792 34.1826 29.5433 34.1912C29.6087 34.2002 29.6132 34.2152 29.6132 34.4207C29.6132 34.6357 29.6151 34.6407 29.691 34.6407C29.765 34.6407 29.7685 34.6487 29.7685 34.8162C29.7685 34.9848 29.8157 35.0849 29.8951 35.0849C29.911 35.0849 29.9239 35.1515 29.9239 35.2329C29.9239 35.371 29.9291 35.381 30.0017 35.381C30.0775 35.381 30.0792 35.3858 30.0792 35.603V35.825H32.5333V35.6769C32.5333 35.5389 32.5386 35.529 32.6111 35.529C32.6869 35.529 32.6887 35.524 32.6887 35.3069C32.6887 35.0899 32.6904 35.0849 32.7665 35.0849C32.839 35.0849 32.844 35.075 32.844 34.9368C32.844 34.8554 32.858 34.7871 32.8751 34.7851C32.8923 34.7831 32.9237 34.7798 32.945 34.7776C32.9889 34.7734 32.9901 34.7671 32.9955 34.5223C32.9992 34.3536 33.0032 34.3446 33.0772 34.3446C33.1502 34.3446 33.1547 34.3354 33.1547 34.1869C33.1547 34.0423 33.1605 34.0293 33.2246 34.0315C33.2999 34.034 33.301 34.0303 33.3068 33.7599C33.3099 33.6147 33.3152 33.6045 33.3877 33.6045C33.4593 33.6045 33.4654 33.5938 33.4654 33.4673C33.4654 33.3589 33.4817 33.3156 33.543 33.2614C33.6079 33.2041 33.6208 33.1657 33.6208 33.0286C33.6208 32.8731 33.6248 32.8644 33.6984 32.8644C33.7744 32.8644 33.7761 32.8594 33.7761 32.6422C33.7761 32.4252 33.7777 32.4202 33.8537 32.4202C33.9262 32.4202 33.9313 32.4104 33.9313 32.2722C33.9313 32.134 33.9365 32.1241 34.0091 32.1241C34.0849 32.1241 34.0866 32.1191 34.0866 31.9021C34.0866 31.6863 34.0887 31.68 34.1627 31.68C34.2326 31.68 34.2396 31.6673 34.2481 31.5246C34.2562 31.3919 34.2666 31.3692 34.3198 31.3692C34.3869 31.3692 34.3884 31.3637 34.3939 31.1101C34.3972 30.9492 34.4015 30.9399 34.4751 30.9399C34.5474 30.9399 34.5527 30.93 34.5527 30.7918C34.5527 30.7104 34.5656 30.6438 34.5815 30.6438C34.6605 30.6438 34.708 30.5438 34.708 30.3773C34.708 30.2199 34.7145 30.2029 34.7779 30.1943C34.8421 30.1856 34.8485 30.1671 34.8569 29.9703C34.8657 29.7644 34.8692 29.7556 34.9424 29.7556C35.0131 29.7556 35.0187 29.7449 35.0187 29.6076C35.0187 29.4693 35.0238 29.4595 35.0963 29.4595C35.1723 29.4595 35.1741 29.4545 35.1741 29.2375C35.1741 29.0203 35.1757 29.0153 35.2517 29.0153C35.3242 29.0153 35.3293 29.0055 35.3293 28.8674C35.3293 28.786 35.3432 28.7177 35.3604 28.7156C35.3775 28.7136 35.4089 28.7102 35.4303 28.7082C35.4741 28.7041 35.4753 28.6976 35.4808 28.4529C35.4844 28.2841 35.4886 28.2752 35.5624 28.2752C35.6358 28.2752 35.6399 28.2662 35.6399 28.1134C35.6399 27.9901 35.6499 27.955 35.6815 27.9666C35.7243 27.9823 35.8012 27.9163 35.7927 27.8712C35.7605 27.7002 35.8 27.5351 35.8731 27.5351C35.9454 27.5351 35.9506 27.5251 35.9506 27.3871C35.9506 27.3056 35.9636 27.239 35.9795 27.239C36.0588 27.239 36.106 27.1389 36.106 26.9704C36.106 26.8029 36.1095 26.7949 36.1836 26.7949C36.2561 26.7949 36.2613 26.7849 36.2613 26.6481C36.2613 26.5312 36.2771 26.4866 36.3389 26.4275C36.4013 26.368 36.4167 26.3239 36.4167 26.2042C36.4167 26.0571 36.4363 26.0343 36.5486 26.0513C36.5616 26.0531 36.5703 26.0448 36.5684 26.0324C36.535 25.8314 36.5775 25.6106 36.6496 25.6106C36.7221 25.6106 36.7272 25.6008 36.7272 25.4626C36.7272 25.3243 36.7325 25.3145 36.805 25.3145C36.8808 25.3145 36.8826 25.3097 36.8826 25.0925C36.8826 24.8753 36.8843 24.8705 36.9603 24.8705C37.0328 24.8705 37.0379 24.8605 37.0379 24.7224C37.0379 24.641 37.0519 24.5727 37.069 24.5707C37.0861 24.5686 37.1176 24.5652 37.1389 24.5632C37.1828 24.5591 37.184 24.5526 37.1894 24.3079C37.1931 24.1402 37.1974 24.1302 37.2693 24.1302C37.3392 24.1302 37.3462 24.1176 37.3547 23.9749C37.3628 23.8421 37.3732 23.8193 37.4262 23.8193C37.4935 23.8193 37.495 23.814 37.5003 23.5603C37.5038 23.3995 37.5081 23.3901 37.5815 23.3901C37.6547 23.3901 37.6593 23.3808 37.6593 23.2323C37.6593 23.0877 37.6651 23.0747 37.7292 23.0769C37.8045 23.0794 37.8056 23.0757 37.8113 22.8054C37.8143 22.6602 37.8197 22.6499 37.8922 22.6499C37.9647 22.6499 37.97 22.64 37.97 22.5018C37.97 22.3563 37.9899 22.3334 38.1019 22.3503C38.1147 22.3523 38.1236 22.3438 38.1215 22.3316C38.0883 22.1306 38.1308 21.9098 38.2029 21.9098C38.2753 21.9098 38.2805 21.8998 38.2805 21.7637C38.2805 21.635 38.2887 21.6167 38.3504 21.6083C38.4102 21.6002 38.4217 21.5782 38.4299 21.4583C38.435 21.3808 38.4516 21.3176 38.4664 21.3176C38.5442 21.3176 38.5912 21.2163 38.5912 21.0491C38.5912 20.8816 38.5947 20.8736 38.669 20.8736C38.7413 20.8736 38.7466 20.8634 38.7466 20.7275C38.7466 20.5986 38.7548 20.5804 38.8165 20.5721C38.8806 20.5635 38.887 20.545 38.8954 20.348C38.9042 20.1421 38.9077 20.1333 38.9809 20.1333C39.0517 20.1333 39.0572 20.1226 39.0572 19.9874C39.0572 19.8585 39.0655 19.8402 39.1271 19.8319C39.1866 19.8239 39.1984 19.8017 39.2065 19.6836C39.2143 19.5666 39.2264 19.5434 39.2841 19.5356C39.3463 19.5273 39.3531 19.5071 39.3615 19.3117C39.3702 19.1059 39.3737 19.0971 39.4469 19.0971C39.5177 19.0971 39.5231 19.0864 39.5231 18.949C39.5231 18.8108 39.5284 18.801 39.6009 18.801C39.6734 18.801 39.6785 18.7911 39.6785 18.6529C39.6785 18.5149 39.6837 18.5049 39.7562 18.5049C39.8277 18.5049 39.8338 18.4942 39.8338 18.3695C39.8338 18.2584 39.8506 18.2179 39.9271 18.1451C40.0051 18.0709 40.0203 18.0327 40.0203 17.9125C40.0203 17.7861 40.0287 17.7678 40.0902 17.7594C40.1622 17.7496 40.1651 17.7429 40.1718 17.5792C40.1746 17.5096 40.195 17.4747 40.2455 17.4535C40.3149 17.4245 40.3205 17.4109 40.3273 17.254C40.3299 17.1942 40.347 17.1726 40.3916 17.1726C40.45 17.1726 40.465 17.1346 40.4964 16.9061C40.4999 16.8818 40.5221 16.8618 40.5459 16.8618C40.5697 16.8618 40.5936 16.8418 40.5992 16.8173C40.6048 16.7928 40.6182 16.7329 40.6291 16.6841C40.6399 16.6353 40.6658 16.582 40.6867 16.5657C40.7582 16.5099 40.7968 16.4066 40.7968 16.2716C40.7968 16.1472 40.8031 16.1363 40.8746 16.1363C40.9366 16.1363 40.9522 16.1215 40.9522 16.0624C40.9522 16.0031 40.9677 15.9883 41.0299 15.9883C41.092 15.9883 41.1075 15.9735 41.1075 15.9143C41.1075 15.8551 41.1231 15.8402 41.1853 15.8402C41.2468 15.8402 41.2629 15.8254 41.2629 15.7683C41.2629 15.7163 41.2821 15.6937 41.3328 15.6869C41.3777 15.6809 41.4062 15.6537 41.4126 15.6109C41.4196 15.5641 41.4436 15.5443 41.4932 15.5443C41.564 15.5443 41.6667 15.4624 41.6667 15.4059C41.6667 15.2843 41.6017 15.2778 40.3984 15.2778H39.2435V15.4257C39.2435 15.5072 39.2306 15.5738 39.2147 15.5738C39.1354 15.5738 39.0884 15.6739 39.0884 15.8424C39.0884 16.0099 39.0847 16.0179 39.0106 16.0179C38.9348 16.0179 38.933 16.0229 38.933 16.2399C38.933 16.4571 38.9313 16.4621 38.8552 16.4621C38.7794 16.4621 38.7777 16.4669 38.7777 16.6841C38.7777 16.8999 38.7756 16.9061 38.7016 16.9061C38.6317 16.9061 38.6248 16.9189 38.6162 17.0616C38.6082 17.1944 38.5977 17.217 38.5445 17.217C38.4774 17.217 38.4759 17.2225 38.4706 17.4762C38.4671 17.637 38.4628 17.6464 38.3894 17.6464C38.3134 17.6464 38.3116 17.6512 38.3116 17.8684C38.3116 18.0855 38.3099 18.0903 38.234 18.0903C38.1615 18.0903 38.1563 18.1003 38.1563 18.2371C38.1563 18.3541 38.1405 18.3988 38.0787 18.4579C38.0163 18.5172 38.0009 18.5613 38.0009 18.6812C38.0009 18.7633 37.9869 18.8323 37.97 18.8343C37.9529 18.8363 37.9214 18.8396 37.9001 18.8418C37.8562 18.8459 37.8548 18.8524 37.8496 19.0951C37.8461 19.2533 37.8388 19.2714 37.7757 19.2801C37.7115 19.2888 37.7051 19.3073 37.6967 19.5041C37.688 19.7099 37.6845 19.7188 37.6112 19.7188C37.5405 19.7188 37.5351 19.7294 37.5351 19.8655C37.5351 19.9826 37.5193 20.0272 37.4573 20.0862C37.396 20.1446 37.3797 20.1902 37.3797 20.3027C37.3797 20.4217 37.3683 20.4497 37.3098 20.4742C37.2488 20.4997 37.2387 20.5288 37.2306 20.7032C37.2219 20.8934 37.2177 20.903 37.1452 20.903C37.0711 20.903 37.069 20.9092 37.069 21.1252C37.069 21.3422 37.0673 21.3472 36.9914 21.3472C36.9187 21.3472 36.9137 21.357 36.9137 21.4966C36.9137 21.6165 36.8983 21.6606 36.8361 21.7199C36.774 21.779 36.7583 21.8237 36.7583 21.9407C36.7583 22.0848 36.7382 22.1078 36.6264 22.0908C36.6135 22.089 36.6047 22.0973 36.6066 22.1096C36.64 22.3106 36.5974 22.5315 36.5254 22.5315C36.4494 22.5315 36.4476 22.5365 36.4476 22.7535C36.4476 22.9706 36.446 22.9756 36.37 22.9756C36.2966 22.9756 36.2924 22.9844 36.2924 23.1375C36.2924 23.2606 36.2825 23.2957 36.2507 23.2842C36.2079 23.2686 36.1312 23.3345 36.1395 23.3796C36.1719 23.5505 36.1324 23.7157 36.0593 23.7157C35.9835 23.7157 35.9817 23.7207 35.9817 23.9379C35.9817 24.1549 35.98 24.1599 35.904 24.1599C35.8316 24.1599 35.8264 24.1697 35.8264 24.3079C35.8264 24.446 35.8212 24.456 35.7486 24.456C35.6728 24.456 35.6711 24.4608 35.6711 24.678C35.6711 24.8951 35.6693 24.9 35.5935 24.9C35.5209 24.9 35.5157 24.91 35.5157 25.048C35.5157 25.1854 35.5103 25.1961 35.4397 25.1961C35.3698 25.1961 35.3628 25.2087 35.3542 25.3515C35.3492 25.4371 35.3308 25.5062 35.3139 25.5054C35.281 25.5035 35.2106 25.5558 35.2117 25.581C35.2242 25.8448 35.2026 25.9364 35.1274 25.9364C35.0549 25.9364 35.0497 25.9462 35.0497 26.0842C35.0497 26.2225 35.0446 26.2323 34.9721 26.2323C34.8997 26.2323 34.8945 26.2423 34.8945 26.379C34.8945 26.4961 34.8788 26.5407 34.8167 26.5997C34.7543 26.6591 34.7391 26.7033 34.7391 26.8232C34.7391 26.9619 34.7337 26.9726 34.6631 26.9726C34.5932 26.9726 34.5862 26.9852 34.5777 27.1279C34.5696 27.2607 34.5592 27.2833 34.506 27.2833C34.4389 27.2833 34.4374 27.2888 34.4319 27.5425C34.4286 27.7033 34.4243 27.7127 34.3507 27.7127C34.2783 27.7127 34.2731 27.7225 34.2731 27.8607C34.2731 27.9989 34.2679 28.0088 34.1955 28.0088C34.1195 28.0088 34.1178 28.0138 34.1178 28.2308C34.1178 28.4479 34.116 28.4529 34.0402 28.4529C33.9678 28.4529 33.9624 28.4629 33.9624 28.5988C33.9624 28.7277 33.9542 28.7459 33.8925 28.7544C33.8317 28.7625 33.8214 28.7838 33.8133 28.9177C33.8065 29.0287 33.7927 29.0675 33.7639 29.057C33.7223 29.0418 33.6459 29.1086 33.6543 29.1529C33.6867 29.3239 33.6472 29.4891 33.5741 29.4891C33.5016 29.4891 33.4965 29.499 33.4965 29.6372C33.4965 29.7827 33.4764 29.8056 33.3644 29.7887C33.3517 29.7867 33.3428 29.7952 33.3449 29.8074C33.3781 30.0084 33.3356 30.2292 33.2634 30.2292C33.1911 30.2292 33.1858 30.2392 33.1858 30.3753C33.1858 30.504 33.1776 30.5224 33.1159 30.5307C33.0551 30.539 33.0448 30.5602 33.0366 30.6941C33.03 30.8051 33.0162 30.8439 32.9873 30.8334C32.9457 30.8181 32.8694 30.8851 32.8778 30.9294C32.9099 31.1004 32.8704 31.2656 32.7976 31.2656C32.7256 31.2656 32.7198 31.2759 32.7198 31.4065C32.7198 31.5244 32.7083 31.5524 32.6499 31.5769C32.5889 31.6024 32.5788 31.6313 32.5709 31.8059C32.5622 31.9959 32.558 32.0057 32.4855 32.0057C32.4147 32.0057 32.4091 32.0164 32.4091 32.1538C32.4091 32.292 32.404 32.3018 32.3315 32.3018C32.2693 32.3018 32.2538 32.3166 32.2538 32.3758C32.2538 32.4384 32.2393 32.4499 32.1606 32.4499C32.0696 32.4499 32.0675 32.4465 32.0675 32.3018C32.0675 32.1636 32.0622 32.1538 31.9897 32.1538C31.9144 32.1538 31.9121 32.1478 31.9121 31.9471C31.9121 31.7512 31.9079 31.7394 31.8344 31.7218C31.7648 31.7051 31.7568 31.6881 31.7568 31.5584C31.7568 31.4237 31.7514 31.4135 31.6792 31.4135C31.6032 31.4135 31.6014 31.4087 31.6014 31.1915C31.6014 30.9743 31.5997 30.9695 31.5238 30.9695C31.4513 30.9695 31.4461 30.9597 31.4461 30.8215C31.4461 30.6832 31.441 30.6734 31.3685 30.6734C31.2963 30.6734 31.2539 30.4526 31.2871 30.2516C31.2892 30.2392 31.2558 30.2292 31.2132 30.2292C31.1406 30.2292 31.1354 30.2194 31.1354 30.0812C31.1354 29.9438 31.13 29.9333 31.0592 29.9333C30.986 29.9333 30.9825 29.9245 30.9738 29.7186C30.9654 29.5216 30.9589 29.5031 30.8948 29.4945C30.8331 29.4861 30.8249 29.4678 30.8249 29.3391C30.8249 29.203 30.8195 29.193 30.7471 29.193C30.6713 29.193 30.6695 29.188 30.6695 28.971C30.6695 28.7539 30.6678 28.7489 30.5918 28.7489C30.5192 28.7489 30.5142 28.7392 30.5142 28.5995C30.5142 28.4797 30.4988 28.4356 30.4364 28.3762C30.3746 28.3172 30.3588 28.2724 30.3588 28.1555C30.3588 28.0188 30.3536 28.0088 30.2812 28.0088C30.2086 28.0088 30.2035 27.9989 30.2035 27.8594C30.2035 27.7395 30.1881 27.6953 30.1259 27.6361C30.0639 27.5769 30.0481 27.5323 30.0481 27.4152C30.0481 27.2785 30.0429 27.2687 29.9706 27.2687C29.8972 27.2687 29.8928 27.2597 29.8928 27.1058C29.8928 27.0162 29.8788 26.9429 29.8619 26.9429C29.8447 26.9429 29.8342 26.9329 29.8384 26.9208C29.8428 26.9084 29.8339 26.8963 29.8187 26.8936C29.7656 26.8843 29.7385 26.8087 29.738 26.6691C29.7376 26.5389 29.7317 26.5284 29.6599 26.5284C29.5865 26.5284 29.5823 26.5196 29.5823 26.3655C29.5823 26.2761 29.5683 26.2028 29.5512 26.2028C29.534 26.2028 29.5236 26.1928 29.5277 26.1805C29.5321 26.1683 29.5232 26.1562 29.508 26.1535C29.4551 26.144 29.4278 26.0684 29.4273 25.9289C29.4269 25.7988 29.4212 25.7883 29.3492 25.7883C29.2751 25.7883 29.2716 25.7801 29.2716 25.6128C29.2716 25.4442 29.2244 25.3441 29.1451 25.3441C29.1292 25.3441 29.1162 25.2775 29.1162 25.1961C29.1162 25.0579 29.111 25.048 29.0385 25.048C28.9644 25.048 28.9609 25.04 28.9609 24.8725C28.9609 24.7053 28.9139 24.604 28.8361 24.604C28.8211 24.604 28.8047 24.5408 28.7994 24.4633C28.7916 24.3442 28.7795 24.3213 28.7215 24.3134C28.6589 24.3049 28.6521 24.2851 28.6437 24.0914C28.6355 23.8964 28.6289 23.8778 28.5647 23.8691C28.503 23.8608 28.4948 23.8425 28.4948 23.7137C28.4948 23.5777 28.4896 23.5677 28.4172 23.5677C28.3451 23.5677 28.3026 23.3468 28.3358 23.1458C28.3379 23.1337 28.3045 23.1237 28.2619 23.1237C28.1894 23.1237 28.1843 23.1137 28.1843 22.9756C28.1843 22.8374 28.1791 22.8276 28.1066 22.8276C28.0307 22.8276 28.029 22.8226 28.029 22.6056C28.029 22.4079 28.0225 22.3834 27.9704 22.3834C27.9212 22.3834 27.91 22.3551 27.8983 22.2014C27.8878 22.0636 27.8689 22.0074 27.8205 21.9699C27.7805 21.9391 27.7499 21.8711 27.7389 21.7894C27.7293 21.7171 27.7207 21.6548 27.7198 21.6506C27.719 21.6466 27.6903 21.6433 27.6561 21.6433C27.6085 21.6433 27.594 21.6235 27.594 21.5585C27.594 21.3452 27.5551 21.1991 27.4983 21.1991C27.4532 21.1991 27.4403 21.1712 27.4326 21.0586C27.4245 20.9385 27.4128 20.9165 27.3532 20.9084C27.291 20.9 27.2833 20.8819 27.283 20.7457C27.2823 20.5355 27.2566 20.459 27.1865 20.459C27.1393 20.459 27.128 20.4369 27.128 20.3446C27.128 20.2715 27.1 20.1911 27.0504 20.1213C27.0055 20.0583 26.9726 19.9701 26.9726 19.9123C26.9726 19.7741 26.945 19.7188 26.8762 19.7188C26.8286 19.7188 26.8173 19.697 26.8173 19.604C26.8173 19.4168 26.7816 19.2976 26.721 19.2824C26.6792 19.2721 26.6628 19.2338 26.6558 19.1311C26.648 19.0141 26.6359 18.992 26.5767 18.984C26.5232 18.9767 26.5068 18.955 26.5068 18.8919C26.5068 18.6804 26.4676 18.5345 26.411 18.5345C26.3659 18.5345 26.3528 18.5065 26.3453 18.394C26.3373 18.2739 26.3256 18.2519 26.266 18.2437C26.2048 18.2356 26.1955 18.2159 26.1922 18.0884C26.19 18.0081 26.1847 17.9291 26.1805 17.9128C26.1762 17.8965 26.1709 17.8632 26.1688 17.8387C26.1667 17.8144 26.137 17.7944 26.1028 17.7944C26.0517 17.7944 26.04 17.7734 26.0369 17.676C26.0313 17.5055 26.0294 17.4986 25.9838 17.4717C25.9609 17.4582 25.9399 17.4354 25.9371 17.421C25.9343 17.4065 25.9216 17.398 25.9086 17.402C25.8959 17.4062 25.8836 17.3562 25.8815 17.291C25.8794 17.2258 25.8742 17.1592 25.8698 17.1431C25.8656 17.1268 25.8604 17.1001 25.8581 17.0838C25.856 17.0675 25.8263 17.0541 25.7922 17.0541C25.7393 17.0541 25.7297 17.0335 25.7269 16.9136C25.723 16.7356 25.6886 16.6226 25.6411 16.6326C25.5964 16.6418 25.5808 16.6028 25.567 16.4473C25.5584 16.3515 25.5434 16.327 25.488 16.3194C25.4295 16.3112 25.4193 16.2912 25.4193 16.1825C25.4193 15.9718 25.3877 15.8699 25.3224 15.8699C25.2692 15.8699 25.264 15.8436 25.264 15.5738V15.2778H20.6043V15.4111ZM15.3604 21.5307C15.3399 21.5504 15.3231 21.5837 15.3231 21.6048C15.3231 21.6661 15.4082 21.6493 15.461 21.5775C15.4881 21.5407 15.5094 21.5292 15.5094 21.5515C15.5094 21.5797 15.5208 21.5825 15.5482 21.5612C15.5697 21.5447 15.6151 21.5247 15.6492 21.5167C15.6835 21.5086 15.6408 21.5006 15.5545 21.4987C15.4682 21.4967 15.3808 21.5112 15.3604 21.5307ZM16.7676 21.5249C16.8018 21.5367 16.8473 21.54 16.8686 21.5324C16.8899 21.5247 16.9074 21.5341 16.9074 21.553C16.9074 21.572 16.9212 21.5795 16.9378 21.5697C16.9546 21.5597 16.9965 21.5662 17.0311 21.5837C17.1036 21.6208 17.1132 21.5983 17.0505 21.5385C17.0243 21.5136 16.9479 21.4984 16.8563 21.5004C16.7548 21.5026 16.7258 21.5106 16.7676 21.5249ZM14.4019 21.6889C14.3748 21.7559 14.3991 21.7594 14.461 21.6976C14.5069 21.6516 14.508 21.6433 14.4678 21.6433C14.4416 21.6433 14.4119 21.6638 14.4019 21.6889ZM17.9249 21.7172C17.9359 21.7715 17.9595 21.7914 18.0139 21.7914C18.0934 21.7914 18.1112 21.7366 18.0505 21.6788C17.9819 21.6132 17.9087 21.6356 17.9249 21.7172ZM13.7905 21.811C13.7791 21.8218 13.7702 21.8585 13.7707 21.8924C13.7716 21.9467 13.7763 21.9486 13.8097 21.9076C13.8305 21.882 13.8754 21.8458 13.9096 21.827C13.9683 21.795 13.9673 21.793 13.8915 21.7922C13.8473 21.7917 13.8018 21.8002 13.7905 21.811ZM18.5292 21.8312C18.6026 21.9011 18.7113 21.9474 18.7018 21.9048C18.6878 21.8408 18.6393 21.8035 18.562 21.7975C18.5 21.7927 18.4946 21.7982 18.5292 21.8312ZM19.0199 22.0134C19.0199 22.0726 19.0354 22.0873 19.0976 22.0873C19.1803 22.0873 19.1995 22.0337 19.138 21.9749C19.0763 21.9161 19.0199 21.9346 19.0199 22.0134ZM12.9089 22.1646L12.84 22.2353H12.9166C12.9713 22.2353 12.9931 22.2192 12.9931 22.1787C12.9931 22.1474 13.0106 22.1153 13.0319 22.1069C13.0578 22.0971 13.0551 22.0923 13.0242 22.0928C12.9985 22.0933 12.9466 22.1256 12.9089 22.1646ZM12.5645 22.271C12.5092 22.3234 12.5192 22.3842 12.5816 22.3752C12.6115 22.3707 12.6406 22.3543 12.6462 22.3383C12.652 22.3224 12.6712 22.2928 12.6889 22.2725C12.7322 22.2227 12.6165 22.2214 12.5645 22.271ZM12.2344 22.4095C12.2239 22.4255 12.2312 22.4479 12.2504 22.4592C12.2751 22.4737 12.273 22.4872 12.2431 22.5051C12.2125 22.5236 12.2202 22.5306 12.2719 22.531C12.3385 22.5315 12.4196 22.4202 12.3794 22.3834C12.3707 22.3752 12.3569 22.3859 12.349 22.4069C12.3385 22.435 12.3238 22.4365 12.294 22.4129C12.2679 22.3922 12.2462 22.3911 12.2344 22.4095ZM12.0049 22.5783C11.9214 22.634 11.9172 22.6795 11.9955 22.6795C12.0296 22.6795 12.0614 22.6524 12.0719 22.6142C12.0953 22.5286 12.0864 22.524 12.0049 22.5783ZM20.6263 22.7343C20.7077 22.8097 20.7182 22.8121 20.7182 22.7535C20.7182 22.7291 20.7077 22.7092 20.6948 22.7092C20.682 22.7092 20.6459 22.7005 20.6146 22.69C20.567 22.674 20.569 22.6813 20.6263 22.7343ZM11.5399 22.8737C11.4555 22.93 11.4508 22.9756 11.5294 22.9756C11.5672 22.9756 11.5932 22.9493 11.6028 22.9015C11.6109 22.8609 11.6158 22.8276 11.6133 22.8276C11.6109 22.8276 11.578 22.8482 11.5399 22.8737ZM16.9023 22.972C16.9252 22.9858 16.9462 23.0088 16.949 23.0232C16.9518 23.0377 16.9645 23.0462 16.9773 23.0422C16.9902 23.0381 17.0007 23.0481 17.0007 23.0644C17.0007 23.0807 17.0321 23.093 17.0706 23.0917C17.109 23.0904 17.123 23.0825 17.1015 23.0744C17.0802 23.0662 17.0627 23.0339 17.0627 23.0028C17.0627 22.9583 17.0407 22.9461 16.9617 22.9465C16.8946 22.9468 16.8747 22.9553 16.9023 22.972ZM11.2962 23.0191C11.263 23.1014 11.3002 23.1143 11.3711 23.0451C11.4407 22.9769 11.4409 22.9756 11.3778 22.9756C11.3425 22.9756 11.3058 22.9951 11.2962 23.0191ZM15.3684 23.0367C15.357 23.0541 15.3553 23.0754 15.3646 23.0842C15.3867 23.1054 15.4474 23.068 15.4474 23.0331C15.4474 22.9953 15.3937 22.9978 15.3684 23.0367ZM14.9059 23.1701C14.8442 23.2289 14.8447 23.2386 14.9088 23.2296C14.9373 23.2256 14.964 23.2001 14.9682 23.173C14.9777 23.1117 14.9677 23.1113 14.9059 23.1701ZM21.2423 23.1513C21.2298 23.1705 21.2424 23.1748 21.2756 23.1626C21.3118 23.1495 21.3218 23.1543 21.3064 23.1778C21.2942 23.1968 21.2999 23.2124 21.3195 23.2124C21.3627 23.2124 21.3438 23.1463 21.2964 23.1313C21.2775 23.1253 21.2533 23.1343 21.2423 23.1513ZM14.5076 23.317C14.4935 23.3871 14.4968 23.3893 14.5565 23.3515C14.6443 23.296 14.6575 23.2421 14.5836 23.2421C14.5429 23.2421 14.5176 23.2671 14.5076 23.317ZM17.8084 23.3135C17.8084 23.3761 17.823 23.3901 17.8886 23.3901C17.9396 23.3901 17.9637 23.3766 17.9546 23.353C17.9468 23.3327 17.9246 23.3194 17.9053 23.3235C17.8861 23.3275 17.8739 23.3159 17.8783 23.2975C17.8824 23.2792 17.8685 23.2581 17.8471 23.2507C17.8225 23.2421 17.8084 23.2649 17.8084 23.3135ZM14.2048 23.4651C14.2048 23.5295 14.213 23.5359 14.2631 23.5104C14.3596 23.4611 14.3704 23.3901 14.2813 23.3901C14.22 23.3901 14.2048 23.4051 14.2048 23.4651ZM18.119 23.4263C18.119 23.4746 18.2035 23.5562 18.2286 23.5324C18.2368 23.5244 18.2155 23.4872 18.1813 23.4496C18.136 23.3996 18.119 23.3933 18.119 23.4263ZM10.7634 23.4657C10.679 23.5222 10.6742 23.5677 10.7527 23.5677C10.7905 23.5677 10.8165 23.5415 10.8261 23.4937C10.8343 23.4529 10.839 23.4196 10.8368 23.4196C10.8343 23.4196 10.8013 23.4404 10.7634 23.4657ZM10.5704 23.6604C10.528 23.7049 10.4883 23.7365 10.4824 23.7309C10.4639 23.7132 10.3618 23.8183 10.3749 23.8416C10.3982 23.8833 10.4787 23.8639 10.4981 23.812C10.5088 23.7835 10.5523 23.7325 10.5947 23.6989C10.6374 23.6651 10.6666 23.6246 10.6599 23.6086C10.6531 23.5926 10.6129 23.616 10.5704 23.6604ZM13.7594 23.7059C13.748 23.7167 13.7387 23.7482 13.7387 23.7758C13.7387 23.8574 13.8777 23.835 13.882 23.7527C13.8855 23.6882 13.8088 23.6589 13.7594 23.7059ZM18.7532 23.8826C18.7632 23.9076 18.7714 23.9372 18.7714 23.9487C18.7714 23.9602 18.7993 23.9717 18.8334 23.974C18.8991 23.9789 18.9173 23.9392 18.864 23.9079C18.8467 23.8977 18.8386 23.8796 18.8463 23.8679C18.854 23.8561 18.832 23.8445 18.7976 23.842C18.7534 23.8388 18.7403 23.8506 18.7532 23.8826ZM10.2671 23.942C10.1795 24.0321 10.1799 24.0363 10.275 24.0192C10.3319 24.0087 10.3525 23.9862 10.3525 23.9344C10.3525 23.8509 10.3559 23.8508 10.2671 23.942ZM18.9103 24.0132C18.8853 24.0518 18.9508 24.1302 19.0081 24.1302C19.0331 24.1302 19.051 24.0994 19.051 24.0563C19.051 23.9792 18.9521 23.9489 18.9103 24.0132ZM19.0656 24.1612C19.0406 24.1998 19.1062 24.2783 19.1635 24.2783C19.1871 24.2783 19.2081 24.2916 19.2102 24.3079C19.2122 24.3243 19.2157 24.3542 19.2178 24.3745C19.2201 24.3949 19.2498 24.4115 19.2839 24.4115C19.3746 24.4115 19.3676 24.2959 19.2762 24.2836C19.2255 24.2768 19.2063 24.2543 19.2063 24.2022C19.2063 24.1271 19.1067 24.0979 19.0656 24.1612ZM22.4856 24.3514C22.5317 24.3845 22.5348 24.3952 22.4992 24.3962C22.4441 24.3979 22.5196 24.455 22.5769 24.455C22.5939 24.455 22.5869 24.4422 22.5614 24.4263C22.5357 24.4105 22.5299 24.3974 22.5485 24.3972C22.567 24.3969 22.582 24.3767 22.582 24.3522C22.582 24.3246 22.5527 24.3079 22.5037 24.3079C22.4281 24.3079 22.4274 24.3094 22.4856 24.3514ZM19.3617 24.4955C19.3617 24.5371 19.38 24.5646 19.4081 24.5646C19.4614 24.5646 19.47 24.5276 19.4232 24.5001C19.4059 24.4898 19.3997 24.469 19.4095 24.4538C19.4193 24.4387 19.4125 24.4263 19.3945 24.4263C19.3763 24.4263 19.3617 24.4575 19.3617 24.4955ZM9.74199 24.5016C9.71298 24.5734 9.74688 24.5804 9.80874 24.5153C9.86029 24.4611 9.86064 24.456 9.81276 24.456C9.78393 24.456 9.75212 24.4765 9.74199 24.5016ZM12.8068 24.6483C12.8068 24.7273 12.8631 24.7456 12.9248 24.6868C12.9865 24.6282 12.9671 24.5744 12.8844 24.5744C12.8222 24.5744 12.8068 24.5892 12.8068 24.6483ZM9.60464 24.6177C9.55449 24.6417 9.59013 24.7543 9.6457 24.7466C9.74059 24.7338 9.7647 24.6052 9.67104 24.612C9.63574 24.6145 9.60464 24.6177 9.60464 24.6177ZM19.7127 24.9098C19.7709 24.9932 19.8275 25.0061 19.8275 24.9356C19.8275 24.8968 19.8013 24.8725 19.7489 24.863C19.6755 24.8497 19.673 24.8527 19.7127 24.9098ZM9.42116 24.9666C9.42151 25.0157 9.42867 25.0226 9.44842 24.9927C9.46327 24.9704 9.49455 24.9408 9.51796 24.9266C9.54924 24.9076 9.5419 24.9008 9.49053 24.9005C9.43846 24.9001 9.42063 24.917 9.42116 24.9666ZM9.32732 25.1068C9.30181 25.1341 9.27787 25.1708 9.27402 25.1881C9.26424 25.2347 9.3918 25.1954 9.4119 25.1456C9.43863 25.079 9.37887 25.0517 9.32732 25.1068ZM19.8275 25.1023C19.8275 25.1418 19.8469 25.1664 19.878 25.1664C19.9212 25.1664 19.9224 25.1591 19.8868 25.1146C19.8639 25.0862 19.8412 25.0574 19.8364 25.0505C19.8315 25.0437 19.8275 25.067 19.8275 25.1023ZM23.0921 25.2044C23.0993 25.2091 23.1295 25.2307 23.1594 25.2525C23.2059 25.2865 23.2137 25.2852 23.2137 25.2442C23.2137 25.2146 23.1879 25.1961 23.1464 25.1961C23.1094 25.1961 23.0849 25.1999 23.0921 25.2044ZM19.9975 25.3455C19.9726 25.3841 20.0381 25.4626 20.0954 25.4626C20.1204 25.4626 20.1382 25.4317 20.1382 25.3886C20.1382 25.3115 20.0393 25.2812 19.9975 25.3455ZM9.1552 25.3873C9.08565 25.465 9.10924 25.503 9.18508 25.4352C9.22911 25.3958 9.26528 25.3613 9.26528 25.3588C9.26528 25.3385 9.17879 25.361 9.1552 25.3873ZM12.2538 25.5277C12.2015 25.5776 12.2075 25.6066 12.2683 25.5981C12.2967 25.5941 12.3235 25.5686 12.3277 25.5415C12.3366 25.4835 12.3062 25.4779 12.2538 25.5277ZM20.1407 25.567C20.1373 25.6093 20.2286 25.729 20.2642 25.729C20.2805 25.729 20.2936 25.7024 20.2936 25.6699C20.2936 25.6313 20.2728 25.6106 20.234 25.6106C20.2013 25.6106 20.1674 25.594 20.1588 25.5736C20.1503 25.5533 20.1421 25.5503 20.1407 25.567ZM8.99985 25.6834C8.96595 25.7214 8.9469 25.7883 8.97014 25.7883C8.98727 25.7883 9.10994 25.6757 9.10994 25.6599C9.10994 25.6358 9.02658 25.6534 8.99985 25.6834ZM23.4313 25.7995C23.4313 25.8056 23.4522 25.8271 23.4778 25.8474C23.516 25.8776 23.5244 25.8756 23.5244 25.8363C23.5244 25.8098 23.5034 25.7883 23.4778 25.7883C23.4522 25.7883 23.4313 25.7933 23.4313 25.7995ZM12.0923 25.8572C12.0923 25.8791 12.1108 25.8969 12.1337 25.8969C12.1564 25.8969 12.1751 25.8791 12.1751 25.8572C12.1751 25.8356 12.1564 25.8178 12.1337 25.8178C12.1108 25.8178 12.0923 25.8356 12.0923 25.8572ZM20.3357 25.951C20.3614 25.9755 20.3898 25.9955 20.3991 25.9955C20.4084 25.9955 20.4078 25.9755 20.3981 25.951C20.3881 25.9267 20.3596 25.9067 20.3346 25.9067C20.2951 25.9067 20.2953 25.9125 20.3357 25.951ZM8.81707 25.9623C8.80676 25.9783 8.81392 26.0006 8.83314 26.012C8.85796 26.0266 8.85621 26.0394 8.82685 26.0568C8.76482 26.0932 8.80501 26.1106 8.88469 26.0817C8.93047 26.0654 8.95372 26.0333 8.95214 25.989C8.95075 25.9518 8.94253 25.9387 8.93362 25.9597C8.92174 25.9878 8.90671 25.9893 8.87665 25.9657C8.85062 25.945 8.82912 25.9438 8.81707 25.9623ZM23.5244 26.1287C23.5244 26.1532 23.5373 26.1732 23.5532 26.1732C23.5691 26.1732 23.6032 26.1933 23.6289 26.2178C23.6708 26.2578 23.6754 26.2566 23.6715 26.2083C23.6644 26.1165 23.5244 26.0409 23.5244 26.1287ZM20.4489 26.2866C20.4489 26.3261 20.4683 26.3507 20.4992 26.3507C20.5424 26.3507 20.5436 26.3434 20.5082 26.2989C20.4853 26.2704 20.4625 26.2416 20.4576 26.2348C20.4529 26.228 20.4489 26.2513 20.4489 26.2866ZM8.6556 26.4238C8.62118 26.5094 8.66084 26.5246 8.73266 26.4531C8.80536 26.3808 8.80536 26.3803 8.73948 26.3803C8.70296 26.3803 8.66521 26.4 8.6556 26.4238ZM11.7709 26.5529C11.7019 26.6257 11.7061 26.6485 11.7867 26.6367C11.8274 26.6308 11.858 26.6017 11.8641 26.5629C11.8767 26.4846 11.8396 26.4806 11.7709 26.5529ZM23.7109 26.5677C23.7364 26.5884 23.7748 26.6238 23.7961 26.6466C23.8285 26.6813 23.8351 26.6748 23.8351 26.6083C23.8351 26.5407 23.822 26.5286 23.7497 26.5294C23.6768 26.5302 23.671 26.5359 23.7109 26.5677ZM20.6043 26.7307C20.6043 26.7702 20.6237 26.7949 20.6546 26.7949C20.6977 26.7949 20.699 26.7874 20.6635 26.7431C20.6406 26.7146 20.6179 26.6858 20.613 26.679C20.6081 26.6721 20.6043 26.6954 20.6043 26.7307ZM8.48855 26.8996C8.48855 26.9639 8.49693 26.9704 8.54709 26.9447C8.64354 26.8956 8.65438 26.8245 8.56526 26.8245C8.50392 26.8245 8.48855 26.8395 8.48855 26.8996ZM20.7617 27.289C20.7605 27.3248 20.7736 27.3621 20.7905 27.3723C20.8274 27.3939 20.8274 27.3649 20.7905 27.2833C20.7648 27.2264 20.7638 27.2265 20.7617 27.289ZM8.37252 27.4625C8.34665 27.4892 8.34456 27.5087 8.36623 27.5213C8.38789 27.5341 8.38632 27.5541 8.36151 27.5828C8.34106 27.6062 8.33337 27.6339 8.34438 27.6444C8.35539 27.6549 8.3643 27.6504 8.3643 27.6344C8.3643 27.6184 8.39174 27.5774 8.42511 27.5433C8.47142 27.4958 8.47701 27.474 8.44853 27.4519C8.42302 27.432 8.39855 27.4355 8.37252 27.4625ZM11.4788 27.8214C11.3863 27.8829 11.3858 27.9721 11.4779 27.9678C11.5326 27.9651 11.5487 27.9443 11.5551 27.8682C11.5597 27.8153 11.56 27.7726 11.556 27.7735C11.552 27.7743 11.5172 27.7959 11.4788 27.8214ZM24.0796 27.9005C24.0984 27.9223 24.1072 27.9468 24.0988 27.9548C24.0904 27.9628 24.1026 27.9693 24.1259 27.9693C24.1517 27.9693 24.1624 27.948 24.1533 27.915C24.1451 27.8852 24.1175 27.8607 24.0916 27.8607C24.056 27.8607 24.0532 27.8702 24.0796 27.9005ZM24.1554 28.3492C24.1556 28.4469 24.1614 28.4834 24.1682 28.4301C24.1752 28.377 24.175 28.2971 24.1678 28.2524C24.1608 28.208 24.1552 28.2516 24.1554 28.3492ZM20.9225 28.4476C20.9277 28.57 20.9433 28.6305 20.9693 28.6305C20.9906 28.6305 21.0081 28.6504 21.0081 28.6749C21.0081 28.6994 21.0222 28.7194 21.0395 28.7194C21.057 28.7194 21.068 28.6808 21.0644 28.6338C21.0605 28.5867 21.0423 28.5537 21.024 28.5605C21.0055 28.5672 20.9892 28.5492 20.988 28.5202C20.9847 28.4418 20.9511 28.2999 20.9316 28.2812C20.9221 28.2722 20.9181 28.3472 20.9225 28.4476ZM20.9999 29.0686C20.9698 29.0745 20.9532 29.0914 20.963 29.1064C20.9726 29.1216 20.9676 29.1339 20.9517 29.1339C20.9358 29.1339 20.9228 29.2105 20.923 29.3041C20.9232 29.4095 20.9319 29.4518 20.9459 29.415C20.9583 29.3826 20.9618 29.3393 20.9539 29.3189C20.9459 29.2985 20.9571 29.2818 20.9789 29.2818C21.0006 29.2818 21.0091 29.273 20.9976 29.2621C20.9862 29.2512 20.9992 29.2188 21.0263 29.1902C21.088 29.1253 21.0727 29.0546 20.9999 29.0686ZM24.1551 29.3707C24.1551 29.4603 24.1608 29.497 24.168 29.4522C24.1752 29.4074 24.1752 29.3341 24.168 29.2893C24.1608 29.2445 24.1551 29.2811 24.1551 29.3707ZM24.1245 29.6875C24.135 29.7038 24.1093 29.7323 24.067 29.7506C23.9801 29.7884 23.966 29.8587 24.0397 29.8857C24.1068 29.9103 24.154 29.878 24.1318 29.8229C24.1217 29.7981 24.1285 29.7606 24.1467 29.7396C24.1704 29.7125 24.1692 29.6953 24.1425 29.6797C24.1206 29.6668 24.1131 29.6702 24.1245 29.6875ZM11.4554 29.8147C11.466 29.831 11.4947 29.8444 11.5193 29.8444C11.5439 29.8444 11.564 29.831 11.564 29.8147C11.564 29.7986 11.5354 29.7852 11.5001 29.7852C11.465 29.7852 11.4449 29.7986 11.4554 29.8147ZM8.33337 30.0893C8.33337 30.1318 8.34788 30.1751 8.36553 30.1856C8.38685 30.1981 8.39069 30.1758 8.37671 30.1208C8.34823 30.0072 8.33337 29.9966 8.33337 30.0893ZM20.8216 30.2869C20.7961 30.3133 20.7741 30.3636 20.7729 30.3986L20.7706 30.4622L20.8423 30.3976C20.9144 30.3323 20.9345 30.2724 20.8915 30.2506C20.8788 30.2441 20.8473 30.2604 20.8216 30.2869ZM11.5651 30.5478C11.5668 30.5855 11.647 30.6734 11.6797 30.6734C11.7463 30.6734 11.7038 30.546 11.6339 30.5358C11.5955 30.5303 11.5646 30.5357 11.5651 30.5478ZM20.6742 30.9039C20.6357 30.941 20.6043 30.992 20.6043 31.017C20.6043 31.0573 20.6095 31.0574 20.6502 31.0186C20.6756 30.9945 20.7119 30.9698 20.731 30.9637C20.75 30.9577 20.7608 30.9265 20.7549 30.8946C20.7444 30.8384 20.7413 30.8389 20.6742 30.9039ZM23.7497 31.0826C23.699 31.0894 23.6798 31.1119 23.6798 31.164C23.6798 31.2445 23.7446 31.2598 23.8028 31.193C23.8578 31.1297 23.8299 31.0718 23.7497 31.0826ZM8.68111 31.2714C8.65857 31.2931 8.6598 31.3137 8.68496 31.3396C8.72777 31.383 8.79924 31.3645 8.79924 31.3099C8.79924 31.2585 8.72148 31.2331 8.68111 31.2714ZM20.5109 31.3242C20.4854 31.3517 20.4615 31.3884 20.4576 31.4057C20.4479 31.4523 20.5754 31.4128 20.5955 31.363C20.6223 31.2966 20.5625 31.2691 20.5109 31.3242ZM11.9121 31.449C11.8716 31.4876 11.8985 31.5616 11.9532 31.5616C11.9756 31.5616 12.0002 31.5782 12.0081 31.5987C12.0159 31.619 12.0205 31.6007 12.0184 31.5581C12.0137 31.4618 11.9583 31.405 11.9121 31.449ZM20.3021 31.7697C20.3063 31.8219 20.3107 31.8225 20.3622 31.7781C20.4302 31.7194 20.4306 31.7231 20.3579 31.7179C20.3166 31.7149 20.2992 31.7313 20.3021 31.7697ZM23.3899 31.8478C23.3586 31.8775 23.3649 31.9761 23.3979 31.9761C23.4138 31.9761 23.4487 31.9553 23.4757 31.9296C23.5024 31.904 23.5244 31.8707 23.5244 31.8555C23.5244 31.824 23.421 31.8182 23.3899 31.8478ZM20.1499 32.0492C20.1167 32.1315 20.1539 32.1444 20.2247 32.0752C20.2944 32.0071 20.2944 32.0057 20.2315 32.0057C20.1962 32.0057 20.1595 32.0252 20.1499 32.0492ZM23.2345 32.1439C23.2032 32.1736 23.2095 32.2722 23.2425 32.2722C23.2584 32.2722 23.2934 32.2512 23.3203 32.2257C23.347 32.2001 23.3691 32.1668 23.3691 32.1516C23.3691 32.1201 23.2656 32.1141 23.2345 32.1439ZM12.3408 32.3871C12.3408 32.4197 12.3693 32.45 12.4093 32.46C12.4991 32.4824 12.504 32.4739 12.447 32.3963C12.3885 32.3166 12.3408 32.3125 12.3408 32.3871ZM9.27297 32.493C9.27297 32.5343 9.28451 32.5683 9.29849 32.5683C9.31247 32.5683 9.31806 32.5398 9.31107 32.505C9.29237 32.4126 9.27297 32.4064 9.27297 32.493ZM12.4961 32.6292C12.4961 32.6464 12.5091 32.6529 12.525 32.6436C12.5409 32.6342 12.5627 32.6401 12.5734 32.6566C12.6024 32.7012 12.641 32.693 12.641 32.6422C12.641 32.6154 12.6123 32.5979 12.5686 32.5979C12.5286 32.5979 12.4961 32.6119 12.4961 32.6292ZM9.46275 32.7606C9.48843 32.7851 9.51692 32.8051 9.52618 32.8051C9.53544 32.8051 9.53492 32.7851 9.52495 32.7606C9.51517 32.7363 9.48669 32.7163 9.4617 32.7163C9.4222 32.7163 9.42238 32.7222 9.46275 32.7606ZM19.693 32.7656C19.6606 32.7964 19.6687 32.8995 19.7019 32.8799C19.7183 32.8702 19.7228 32.8406 19.712 32.8138C19.6975 32.7776 19.7056 32.77 19.7435 32.7838C19.7716 32.7941 19.8027 32.7898 19.8128 32.7741C19.8335 32.7425 19.7253 32.7348 19.693 32.7656ZM22.7996 32.9137C22.766 32.9455 22.7756 32.9728 22.8202 32.9728C22.8431 32.9728 22.8616 32.9552 22.8616 32.9333C22.8616 32.8909 22.8329 32.8817 22.7996 32.9137ZM13.0356 33.2681C13.0805 33.3111 13.1175 33.361 13.1177 33.379C13.1177 33.3972 13.1755 33.4435 13.2461 33.4819C13.3309 33.5281 13.3615 33.5592 13.3365 33.5739C13.305 33.5925 13.5025 33.6933 13.5703 33.6933C13.6276 33.6933 13.536 33.6385 13.452 33.6223C13.381 33.6087 13.3629 33.5953 13.3919 33.578C13.4609 33.537 13.445 33.5017 13.3505 33.4861C13.301 33.4779 13.2638 33.4609 13.2675 33.4485C13.2769 33.4161 13.2012 33.3429 13.164 33.3482C13.1469 33.3509 13.1285 33.3162 13.1231 33.2714C13.1152 33.2061 13.0974 33.19 13.0335 33.19H12.9536L13.0356 33.2681ZM9.89436 33.3442C9.90572 33.3972 9.95622 33.4466 9.99869 33.4466C10.0263 33.4466 10.0273 33.429 10.0029 33.3775C9.96898 33.3067 9.88038 33.2796 9.89436 33.3442ZM22.3024 33.4763C22.2911 33.4871 22.2818 33.5204 22.2818 33.5502C22.2818 33.5883 22.2587 33.6045 22.204 33.6045C22.1425 33.6045 22.1265 33.6195 22.1265 33.6764C22.1265 33.7286 22.1071 33.751 22.0566 33.7579C21.9564 33.7714 21.9405 33.8939 22.0394 33.8893C22.0875 33.8869 22.1109 33.8675 22.1111 33.8298C22.1111 33.7983 22.1431 33.7629 22.1839 33.7484C22.2238 33.7342 22.2638 33.6961 22.2727 33.6636C22.2816 33.6311 22.3003 33.6045 22.3143 33.6045C22.3487 33.6045 22.4372 33.5177 22.4372 33.4839C22.4372 33.4524 22.3337 33.4464 22.3024 33.4763ZM10.0418 33.546C10.0418 33.5629 10.0635 33.5847 10.0899 33.5943C10.1628 33.621 10.1713 33.5922 10.1027 33.5514C10.0642 33.5284 10.0418 33.5266 10.0418 33.546ZM18.4584 33.9439C18.4081 33.9679 18.4439 34.0805 18.4995 34.0728C18.5942 34.06 18.6185 33.9314 18.5248 33.9382C18.4895 33.9407 18.4584 33.9439 18.4584 33.9439ZM21.7202 34.1266C21.651 34.1984 21.6503 34.202 21.7111 34.1719C21.7476 34.1539 21.7855 34.1188 21.7957 34.0938C21.821 34.0307 21.8069 34.0368 21.7202 34.1266ZM14.1024 34.1331C14.1838 34.2085 14.1943 34.2107 14.1943 34.1522C14.1943 34.1278 14.1838 34.1078 14.1711 34.1078C14.1581 34.1078 14.1221 34.0991 14.0907 34.0886C14.0433 34.0726 14.0452 34.08 14.1024 34.1331ZM21.5178 34.2375C21.4967 34.2896 21.525 34.3446 21.5729 34.3446C21.5954 34.3446 21.5949 34.3321 21.5713 34.305C21.5241 34.2508 21.5659 34.2179 21.6239 34.2635C21.6622 34.2936 21.6678 34.2921 21.6552 34.2558C21.634 34.1947 21.54 34.1822 21.5178 34.2375ZM17.9924 34.24C17.9422 34.264 17.9779 34.3764 18.0334 34.3689C18.1283 34.3561 18.1524 34.2275 18.0588 34.2342C18.0235 34.2368 17.9924 34.24 17.9924 34.24ZM10.8186 34.2861C10.8186 34.3031 10.8401 34.3248 10.8665 34.3344C10.9393 34.3611 10.9479 34.3323 10.8792 34.2915C10.8408 34.2687 10.8186 34.2667 10.8186 34.2861ZM10.9739 34.4049C10.9739 34.4379 10.9954 34.4728 11.0218 34.4825C11.0997 34.511 11.1081 34.4727 11.0386 34.4064C10.9741 34.3449 10.9739 34.3449 10.9739 34.4049ZM21.3497 34.4039C21.3497 34.471 21.382 34.4798 21.4367 34.4275C21.4916 34.3754 21.4823 34.3446 21.4119 34.3446C21.3705 34.3446 21.3497 34.3644 21.3497 34.4039ZM14.6706 34.4134C14.6706 34.4372 14.6916 34.4645 14.7173 34.4738C14.743 34.4832 14.764 34.4837 14.764 34.4748C14.764 34.466 14.743 34.4389 14.7173 34.4144C14.6769 34.3759 14.6706 34.3757 14.6706 34.4134ZM17.6645 34.4177C17.6315 34.5001 17.6687 34.513 17.7395 34.4437C17.8091 34.3756 17.8092 34.3742 17.7463 34.3742C17.711 34.3742 17.6741 34.3939 17.6645 34.4177ZM11.1551 34.5186C11.178 34.5325 11.199 34.5556 11.2018 34.5701C11.2046 34.5844 11.2174 34.5931 11.2301 34.5889C11.243 34.5849 11.2535 34.5949 11.2535 34.6111C11.2535 34.6274 11.2656 34.6407 11.2803 34.6407C11.2949 34.6407 11.3004 34.6074 11.2921 34.5668C11.2808 34.51 11.2582 34.4928 11.1955 34.4932C11.1387 34.4935 11.1263 34.5013 11.1551 34.5186ZM15.0436 34.5335C15.0436 34.5396 15.0645 34.5613 15.09 34.5816C15.1283 34.6117 15.1367 34.6097 15.1367 34.5704C15.1367 34.5439 15.1157 34.5223 15.09 34.5223C15.0645 34.5223 15.0436 34.5273 15.0436 34.5335ZM17.3137 34.5598C17.2196 34.6056 17.1938 34.6703 17.2698 34.6702C17.3012 34.67 17.343 34.6367 17.3628 34.5961C17.3825 34.5554 17.3965 34.5225 17.3937 34.5228C17.3911 34.523 17.3551 34.5396 17.3137 34.5598ZM15.6337 34.6895C15.6593 34.7005 15.6987 34.7338 15.7209 34.7638C15.7619 34.8191 15.8823 34.8402 15.8823 34.7924C15.8823 34.7465 15.8016 34.7007 15.6929 34.685C15.6347 34.6767 15.6081 34.6787 15.6337 34.6895ZM16.6367 34.7475C16.5946 34.7909 16.5834 34.8184 16.6079 34.8184C16.6297 34.8184 16.6781 34.7851 16.7152 34.7443C16.8017 34.6495 16.729 34.6525 16.6367 34.7475ZM11.5951 34.8489C11.5951 34.882 11.6168 34.917 11.6432 34.9267C11.721 34.9551 11.7295 34.9168 11.66 34.8504C11.5953 34.7889 11.5951 34.7889 11.5951 34.8489ZM20.4942 35.0276C20.483 35.0449 20.4812 35.0662 20.4903 35.075C20.5125 35.0962 20.5732 35.0589 20.5732 35.0239C20.5732 34.9861 20.5195 34.9886 20.4942 35.0276ZM12.0778 35.1128C12.0666 35.13 12.0794 35.144 12.1059 35.144C12.1327 35.144 12.1543 35.164 12.1543 35.1885C12.1543 35.2129 12.1694 35.2329 12.1875 35.2329C12.2059 35.2329 12.2164 35.2031 12.2109 35.1666C12.2003 35.0962 12.1117 35.0604 12.0778 35.1128ZM12.3796 35.2687C12.3993 35.3598 12.4925 35.3975 12.5496 35.3375C12.5629 35.3237 12.5573 35.3212 12.5372 35.3322C12.5159 35.3438 12.4923 35.3273 12.4808 35.2925C12.4596 35.2294 12.3663 35.2074 12.3796 35.2687ZM12.6973 35.4118C12.6698 35.4539 12.7397 35.529 12.8063 35.529C12.8472 35.529 12.8566 35.5109 12.8454 35.4549C12.8302 35.379 12.7362 35.3517 12.6973 35.4118ZM13.0191 35.5548C13.0419 35.5687 13.0593 35.5885 13.0579 35.5988C13.0565 35.6093 13.0642 35.6166 13.0751 35.6153C13.0861 35.6138 13.1055 35.629 13.1182 35.6486C13.131 35.6684 13.1568 35.6756 13.1754 35.6646C13.233 35.6308 13.1427 35.5289 13.0555 35.5294C13.001 35.5297 12.99 35.5374 13.0191 35.5548ZM19.2683 35.6326C19.2367 35.6689 19.2388 35.6769 19.28 35.6769C19.3078 35.6769 19.3306 35.6569 19.3306 35.6326C19.3306 35.6081 19.3253 35.5881 19.3188 35.5881C19.3124 35.5881 19.2897 35.6081 19.2683 35.6326ZM13.4591 35.7155C13.4591 35.769 13.5236 35.825 13.5853 35.825C13.6236 35.825 13.633 35.806 13.622 35.751C13.6061 35.6717 13.4591 35.6396 13.4591 35.7155ZM18.8568 35.752C18.8427 35.822 18.846 35.8243 18.9057 35.7865C18.9935 35.731 19.0067 35.6769 18.9328 35.6769C18.8921 35.6769 18.8668 35.7021 18.8568 35.752ZM13.951 35.8509C13.9739 35.8648 13.9949 35.8879 13.9977 35.9024C14.0005 35.9167 14.0133 35.9254 14.026 35.9212C14.0389 35.9172 14.0494 35.9272 14.0494 35.9434C14.0494 35.9597 14.0779 35.973 14.113 35.973C14.1749 35.973 14.1751 35.9712 14.1207 35.8999C14.0874 35.8563 14.0337 35.8266 13.9872 35.8265C13.9331 35.8261 13.922 35.8335 13.951 35.8509ZM17.6918 36.01C17.6962 36.0305 17.6822 36.0438 17.6607 36.0396C17.6394 36.0356 17.6219 36.0446 17.6219 36.0598C17.6219 36.0748 17.5974 36.0934 17.5676 36.1013C17.5377 36.1089 17.5691 36.1131 17.6375 36.1102C17.7596 36.1053 17.8452 35.973 17.7264 35.973C17.7032 35.973 17.6876 35.9897 17.6918 36.01Z" fill="#4C9C04"/>
</svg>
