<svg width="50" height="50" viewBox="0 0 50 50" fill="none" xmlns="http://www.w3.org/2000/svg">
<path fill-rule="evenodd" clip-rule="evenodd" d="M35 22C35 27.2471 31.4183 31 27 31C25.108 31 23.3696 30.3125 22 29.1133V37.5H17V13.5H22V14.8574C23.3588 13.6768 25.0892 13 27 13C31.4183 13 35 16.7529 35 22ZM22 24.8867V19.0957C22.8174 18.0996 24.0687 17.5 25.5 17.5C27.9852 17.5 30 19.377 30 22C30 24.623 27.9852 26.5 25.5 26.5C24.0864 26.5 22.825 25.8936 22 24.8867Z" fill="#F37143"/>
<path fill-rule="evenodd" clip-rule="evenodd" d="M35 22C35 27.2471 31.4183 31 27 31C25.108 31 23.3696 30.3125 22 29.1133V37.5H17V13.5H22V14.8574C23.3588 13.6768 25.0892 13 27 13C31.4183 13 35 16.7529 35 22ZM22 24.8867V19.0957C22.8174 18.0996 24.0687 17.5 25.5 17.5C27.9852 17.5 30 19.377 30 22C30 24.623 27.9852 26.5 25.5 26.5C24.0864 26.5 22.825 25.8936 22 24.8867Z" fill="#F37143"/>
<path d="M34 13H39L46 21.5L39 30H34L41 21.5L34 13Z" fill="#F37143"/>
<path d="M34 13H39L46 21.5L39 30H34L41 21.5L34 13Z" fill="#F37143"/>
<path d="M16 13H11L4 21.5L11 30H16L9 21.5L16 13Z" fill="#F37143"/>
<path d="M16 13H11L4 21.5L11 30H16L9 21.5L16 13Z" fill="#F37143"/>
</svg>
