<svg width="50" height="50" viewBox="0 0 50 50" fill="none" xmlns="http://www.w3.org/2000/svg">
<path d="M8.33439 41.4949V26.0426L14.4054 27.9505L14.9341 28.1261C14.9341 28.3571 14.9341 28.5883 14.9341 28.8197C14.9224 28.8384 14.8976 28.8597 14.9007 28.8759C14.9107 28.9168 14.9244 28.9568 14.9417 28.9953C15.1946 29.9358 15.7208 30.6143 16.7468 30.6932C17.6498 30.762 18.2589 30.2677 18.65 29.479L19.3077 29.4425C20.3195 31.057 21.6713 31.144 22.8334 29.6692L23.3824 29.5123C23.7658 30.2606 24.3557 30.7362 25.2163 30.6957C26.1052 30.6532 26.6789 30.1271 26.987 29.3044L27.3174 29.312C27.8805 30.4074 28.6495 30.8738 29.5475 30.6644C30.5406 30.4326 31.0531 29.6889 31.0556 28.4438C31.0606 25.7892 31.045 23.1345 31.0642 20.4799C31.0718 19.4963 30.7313 18.7526 29.8262 18.3104C30.106 18.1081 30.3645 17.7903 30.6706 17.7352C31.393 17.6052 32.1377 17.588 32.8749 17.5525C33.2867 17.5323 33.7901 17.4058 33.8407 18.0767C32.2404 18.0139 31.6895 18.3413 31.2605 19.6066C31.2716 19.7372 31.2832 19.8682 31.2944 19.9992C31.3096 22.8153 31.3249 25.6317 31.3404 28.4484C31.3404 30.9312 31.3419 33.4136 31.345 35.8957C31.3721 35.9007 31.3994 35.9039 31.4269 35.9054C31.5347 35.6822 31.6799 35.4697 31.7436 35.235C32.3411 33.0266 33.0975 30.9062 34.8975 29.3429L35.022 29.1101L35.4135 28.1276L41.6611 30.2111V41.4964L8.33439 41.4949Z" fill="#007EC3"/>
<path d="M33.8457 18.0782C33.7951 17.4073 33.2892 17.5338 32.8799 17.5541C32.1428 17.5895 31.3981 17.6047 30.6756 17.7367C30.3721 17.7918 30.111 18.1121 29.8313 18.3119C28.4587 18.1045 27.9513 18.3747 27.288 19.6679L27.0422 19.6911C26.6921 18.8852 26.1952 18.2598 25.2239 18.227C24.2981 18.1956 23.738 18.7137 23.3474 19.4837L22.8719 19.2945C22.3862 18.5406 21.7305 18.0802 20.8032 18.2543C19.8758 18.4283 19.3983 19.0577 19.243 19.9603L18.7699 19.7928V12.8812L18.517 12.8681C18.4755 12.9976 18.433 13.1266 18.3925 13.2561C17.7014 15.4519 17.1601 17.7261 15.2285 19.2682L14.2986 20.1789L8.33337 18.2285V8.33337H41.6657V22.3984C41.3353 22.322 40.9979 22.2669 40.6756 22.1657C38.9292 21.6162 37.1848 21.0551 35.4429 20.4961L34.8656 18.9585L34.6279 18.6398L34.6491 18.6631L34.167 18.2426L33.8457 18.0782Z" fill="#007EC3"/>
<path d="M41.6668 30.2095L35.4193 28.1276V24.7019L41.6668 26.7383V30.2095Z" fill="#F8FCFC"/>
<path d="M35.4429 20.4961C37.1868 21.0526 38.9292 21.6142 40.6756 22.1657C40.9979 22.2669 41.3333 22.322 41.6657 22.3984L41.6666 25.8711C39.7259 25.2701 37.7812 24.6817 35.8516 24.0498C35.6675 23.989 35.4707 23.648 35.4616 23.429C35.4196 22.4505 35.4429 21.473 35.4429 20.4961Z" fill="#F8FCFC"/>
<path d="M8.33439 18.2295L14.2997 20.1799L14.456 20.8376C14.4644 21.2939 14.4728 21.7503 14.4813 22.2066C14.4858 22.3326 14.4909 22.4596 14.4954 22.5851C14.487 22.92 14.4782 23.2551 14.4691 23.5904C14.3376 23.6329 14.1828 23.7422 14.0781 23.7083C12.1601 23.0505 10.2478 22.3736 8.33439 21.7012V18.2295Z" fill="#F9FCFC"/>
<path d="M14.4054 27.9505L8.33439 26.0426L8.33388 22.5699C10.2705 23.2043 12.2087 23.8347 14.1408 24.4828C14.2678 24.5253 14.3457 24.7136 14.4443 24.834C14.4268 25.8732 14.4099 26.9125 14.3937 27.952L14.4054 27.9505Z" fill="#F9FCFC"/>
<path d="M14.4467 24.834C14.3455 24.7135 14.2681 24.5253 14.1432 24.4828C12.2111 23.8342 10.2729 23.2043 8.33626 22.5699V21.7022C10.2496 22.3746 12.162 23.0505 14.0799 23.7093C14.1846 23.7452 14.3395 23.6339 14.4705 23.5919C14.4789 23.2569 14.4879 22.9217 14.4973 22.5861C14.4927 22.4601 14.4877 22.3331 14.4831 22.2076C14.4747 21.7513 14.4663 21.2949 14.4578 20.8386L14.3015 20.1809L15.2314 19.2702C15.1474 19.7761 14.9982 20.282 14.9901 20.788C14.9511 23.2342 14.9501 25.6814 14.9354 28.1281L14.4067 27.9525H14.3961C14.411 26.9127 14.4278 25.8731 14.4467 24.834Z" fill="#0883C1"/>
<path d="M35.444 20.4961C35.444 21.473 35.4197 22.4505 35.4617 23.4254C35.4708 23.6445 35.6676 23.9855 35.8517 24.0462C37.7813 24.6796 39.726 25.268 41.6667 25.8676V26.7353L35.4192 24.6989L35.4193 28.1276L35.0276 29.1101C35.0392 26.1757 35.06 23.2448 35.0544 20.3124C35.0544 19.8616 34.9325 19.4108 34.8667 18.9601L35.444 20.4961Z" fill="#0889C1"/>
<path d="M8.33439 41.4949H41.6667C41.5802 41.5526 41.4937 41.6609 41.4071 41.6614C30.4692 41.6685 19.5313 41.6685 8.59342 41.6614C8.50691 41.6609 8.4209 41.5526 8.33439 41.4949Z" fill="#0092CE"/>
<path d="M14.9336 28.1276C14.9483 25.6809 14.9493 23.2337 14.9883 20.7875C14.9964 20.2816 15.1456 19.7756 15.2296 19.2697C17.1612 17.7276 17.7025 15.4534 18.3936 13.2576C18.4341 13.1281 18.4766 12.9991 18.5181 12.8696L18.771 12.8827L18.7756 28.9902C18.7341 29.1538 18.6928 29.317 18.6516 29.48C18.2606 30.2672 17.6514 30.7615 16.7484 30.6942C15.7224 30.6163 15.1937 29.9353 14.9433 28.9963L14.9357 28.8207C14.9353 28.5887 14.9347 28.3576 14.9336 28.1276Z" fill="#F6FBFC"/>
<path d="M34.8656 18.9585C34.9314 19.4093 35.0538 19.8601 35.0543 20.3109C35.0598 23.2453 35.0391 26.1762 35.0275 29.1086L34.903 29.3408C33.103 30.9042 32.3466 33.0246 31.7491 35.233C31.6859 35.4677 31.5402 35.6802 31.4324 35.9033C31.4038 33.4175 31.3751 30.9318 31.3464 28.4463C31.3306 25.6303 31.3151 22.8139 31.2999 19.9972C31.2887 19.8662 31.2771 19.7351 31.266 19.6046C31.6925 18.3398 32.2434 18.0119 33.8462 18.0747L34.1699 18.2396L34.6521 18.66L34.6308 18.6368L34.8686 18.9555L34.8656 18.9585Z" fill="#FBFDFD"/>
<path d="M23.3474 19.4837C23.738 18.7137 24.2981 18.1956 25.2239 18.227C26.1952 18.2598 26.6911 18.8847 27.0422 19.6911L26.9916 29.3039C26.6825 30.1271 26.1088 30.6532 25.2209 30.6957C24.3609 30.7362 23.7705 30.2606 23.387 29.5124C23.3735 26.1701 23.3603 22.8273 23.3474 19.4837Z" fill="#F8FCFD"/>
<path d="M19.243 19.9603C19.3983 19.0577 19.8799 18.4263 20.8032 18.2543C21.7265 18.0823 22.3862 18.5406 22.8719 19.2945C22.9189 19.8105 23.0035 20.3271 23.0065 20.8437C23.0207 23.3005 23.0207 25.7573 23.0065 28.2141C23.003 28.6998 22.8978 29.185 22.8391 29.6707C21.6755 31.1455 20.3247 31.0585 19.3133 29.444C18.841 26.4045 19.2426 23.0362 19.243 19.9603Z" fill="#F8FBFC"/>
<path d="M27.288 19.6679C27.9513 18.3747 28.4587 18.1045 29.8313 18.3119C30.7364 18.7541 31.0768 19.4979 31.0692 20.4814C31.05 23.136 31.0657 25.7907 31.0606 28.4453C31.0606 29.6904 30.5456 30.4342 29.5525 30.6659C28.6545 30.8753 27.883 30.4089 27.3229 29.3135L27.288 19.6679Z" fill="#F8FCFD"/>
<path d="M19.2425 28.9948C19.2654 29.1445 19.2885 29.2943 19.3118 29.444L18.6541 29.4805C18.6949 29.3169 18.7362 29.1536 18.778 28.9907C18.8286 28.6543 18.9177 28.3178 18.9207 27.9789C18.9342 26.2803 18.9342 24.5818 18.9207 22.8836C18.9167 22.4889 18.8266 22.0953 18.776 21.7012V19.7908L19.1049 19.9633C19.1049 22.6362 19.0998 25.3095 19.1114 27.9824C19.1069 28.3214 19.1944 28.6578 19.2425 28.9948Z" fill="#0078B9"/>
<path d="M22.8375 29.6707C22.8962 29.185 23.0014 28.6998 23.005 28.2141C23.0222 25.7573 23.0222 23.3005 23.005 20.8436C23.002 20.3271 22.9175 19.8105 22.8704 19.2945L23.346 19.4837C23.3588 22.8269 23.3718 26.1703 23.3849 29.5139L22.8375 29.6707Z" fill="#027EB7"/>
<path d="M27.288 19.6679L27.3229 29.3135L26.9922 29.3059L27.0427 19.6932L27.288 19.6679Z" fill="#0075B2"/>
<path d="M31.3485 28.4489C31.3769 30.9347 31.4055 33.4204 31.4345 35.9059C31.407 35.9044 31.3797 35.9012 31.3526 35.8962C31.3485 33.4138 31.3472 30.9313 31.3485 28.4489Z" fill="#6ABBD9"/>
<path d="M14.9357 28.8207L14.9432 28.9953C14.9259 28.9568 14.9122 28.9169 14.9022 28.8759C14.8992 28.8597 14.9245 28.8394 14.9357 28.8207Z" fill="#0883C1"/>
<path d="M19.2425 28.9948C19.1944 28.6578 19.1068 28.3214 19.1053 27.9829C19.0936 25.3101 19.0987 22.6367 19.0987 19.9638L19.2429 19.9588C19.2429 22.9711 19.2428 25.9831 19.2425 28.9948Z" fill="#009ACD"/>
<path d="M14.4467 24.834C14.4292 25.8731 14.4123 26.913 14.3961 27.9525C14.411 26.9127 14.4278 25.8731 14.4467 24.834Z" fill="#1A8CC4"/>
<path d="M18.7694 21.7022C18.82 22.0963 18.91 22.49 18.9141 22.8846C18.9313 24.5828 18.9313 26.2813 18.9141 27.9799C18.8918 30.4488 18.7697 22.7779 18.7694 21.7022Z" fill="#0088C2"/>
</svg>
