<svg width="50" height="50" viewBox="0 0 50 50" fill="none" xmlns="http://www.w3.org/2000/svg">
<path fill-rule="evenodd" clip-rule="evenodd" d="M26.7636 7.71454C22.7996 8.23574 19.511 9.85099 16.8281 12.5947C13.9593 15.5283 12.3509 19.0067 11.8632 23.3309C11.8096 23.806 11.7832 26.1444 11.8295 26.3154C11.8486 26.3859 11.8822 26.6496 11.9042 26.9014C12.53 34.0637 17.9363 40.3045 24.9239 41.9309C26.0451 42.1919 28.2243 42.4382 28.5281 42.3384L28.6033 42.3137V34.8994L29.1959 34.8557C34.29 34.4796 38.1096 30.2561 38.1943 24.9056C38.2002 24.5392 38.0849 23.5283 37.9731 22.9647C37.3221 19.6822 35.0488 16.906 32.035 15.7128C31.5827 15.5337 31.0628 15.3643 30.8144 15.3152C30.7561 15.3035 30.5969 15.2689 30.4607 15.2381C30.1105 15.1589 29.4528 15.073 29.1941 15.0726C29.0735 15.0725 28.8912 15.0619 28.789 15.0492L28.6033 15.0261V7.63892L27.9399 7.64304C27.5286 7.6456 27.0817 7.67279 26.7636 7.71454ZM28.5679 24.9583C28.5679 30.3953 28.5553 34.8517 28.54 34.8615C28.5247 34.8713 28.274 34.8634 27.9828 34.844C23.8579 34.5688 20.3493 31.5715 19.32 27.4435C17.8458 21.5318 21.8165 15.6947 27.7188 15.0972C27.7869 15.0903 28.0058 15.082 28.2053 15.0788L28.5679 15.0729V24.9583Z" fill="#05CC64"/>
</svg>
