<svg width="50" height="50" viewBox="0 0 50 50" fill="none" xmlns="http://www.w3.org/2000/svg">
<rect width="50" height="50" fill="#F04E23"/>
<path d="M23.1763 20.3961L32.1905 11.5347L28.5944 8.0001L24.9984 11.5347L26.7884 13.2937L17.7782 22.1567L21.3702 25.6937L24.9663 22.1567L23.1763 20.3961Z" fill="white"/>
<path d="M21.3082 8L12 17.0163L15.7116 20.6114L25.0198 11.5952L21.3082 8Z" fill="white"/>
<path d="M34.2884 13.3885L24.9802 22.4048L28.6918 26L38 16.9837L34.2884 13.3885Z" fill="white"/>
<path fill-rule="evenodd" clip-rule="evenodd" d="M21.2752 38.3367C22.1355 38.3368 22.5975 38.9859 22.5975 39.6974C22.5973 40.3929 22.0777 40.9998 21.2803 41C20.4643 40.9999 19.9607 40.4366 19.9606 39.6974C19.9606 38.9914 20.4189 38.3367 21.2752 38.3367ZM21.2752 38.6977C20.6872 38.6977 20.4564 39.2372 20.4564 39.6974C20.4565 40.2061 20.7289 40.6396 21.2803 40.6397C21.833 40.6396 22.0989 40.2009 22.0991 39.6974C22.0991 39.2336 21.8861 38.6979 21.2752 38.6977Z" fill="white"/>
<path d="M28.3883 38.3367C29.0812 38.3368 29.4909 38.6951 29.491 39.139H28.996C28.9958 38.9258 28.7815 38.6978 28.3883 38.6977C28.0875 38.6978 27.6922 38.8889 27.8399 39.2035C27.8983 39.3113 28.071 39.3906 28.4798 39.4717C29.1911 39.6141 29.5198 39.8258 29.5199 40.2386C29.5196 40.6792 29.0953 40.9999 28.4019 41C27.6367 41 27.2161 40.5871 27.2161 40.1599H27.7145C27.7356 40.5168 28.0948 40.6397 28.4019 40.6397C28.8124 40.6397 29.0255 40.4837 29.0257 40.2716C29.0256 40.081 28.9311 39.9277 28.3586 39.828C27.8835 39.739 27.5338 39.6055 27.3873 39.3655C27.0316 38.7813 27.8283 38.3368 28.3883 38.3367Z" fill="white"/>
<path fill-rule="evenodd" clip-rule="evenodd" d="M31.3083 38.3367C32.2643 38.3368 32.4992 39.0783 32.4992 39.7926H30.5412C30.5549 40.2642 30.876 40.6421 31.399 40.6421C31.7486 40.6421 31.9799 40.5048 32.1618 40.2929L32.4619 40.5045C32.2753 40.7551 31.9486 41 31.3719 41C30.5379 40.9998 30.0429 40.3828 30.0428 39.6597C30.0428 38.8189 30.6603 38.3367 31.3083 38.3367ZM31.3083 38.6977C30.9189 38.6977 30.6231 38.9582 30.5556 39.4339H32.0042C32.0042 39.048 31.7631 38.6978 31.3083 38.6977Z" fill="white"/>
<path fill-rule="evenodd" clip-rule="evenodd" d="M16.2252 37.4966C17.0231 37.4967 17.4966 37.773 17.4966 38.4177C17.4966 38.7349 17.2758 38.9961 16.9202 39.1327C17.3547 39.2351 17.6 39.5663 17.6 39.9562C17.5998 40.5954 17.0992 40.9527 16.3133 40.9528H14.9478V37.4966H16.2252ZM15.4649 40.5808H16.3133C16.8114 40.5806 17.0862 40.3355 17.0863 39.9609C17.0863 39.5765 16.8614 39.3364 16.337 39.3364H15.4649V40.5808ZM15.4649 38.9683H16.2404C16.3885 38.9683 16.5189 38.9465 16.6295 38.9022C16.8528 38.8126 16.9795 38.6412 16.9795 38.413C16.9795 38.0331 16.7407 37.8719 16.2252 37.8718H15.4649V38.9683Z" fill="white"/>
<path d="M19.4681 38.3367C19.5392 38.3367 19.6518 38.3546 19.6876 38.3705L19.6859 38.7787C19.6059 38.7633 19.5389 38.7599 19.4444 38.7598C19.2163 38.7599 19.041 38.8262 18.9197 38.94C18.8632 38.993 18.818 39.0564 18.7832 39.1287V40.9528H18.2882V38.3846H18.7705L18.779 38.6796C18.7802 38.6778 18.782 38.6759 18.7832 38.6741C18.9309 38.4601 19.1571 38.3367 19.4681 38.3367Z" fill="white"/>
<path d="M24.0197 40.3015L24.6953 38.3846H25.0937L25.7794 40.3424L26.3388 38.3846H26.8313L25.9904 40.9528H25.5895L24.8851 39.0084L24.2003 40.9528H23.796L22.956 38.3846H23.451L24.0197 40.3015Z" fill="white"/>
<path d="M34.2571 38.3367C34.3282 38.3367 34.4409 38.3546 34.4767 38.3705L34.4741 38.7787C34.3942 38.7633 34.3279 38.7599 34.2334 38.7598C33.8987 38.7599 33.6818 38.9012 33.5723 39.1287V40.9528H33.0773V38.3846H33.5587L33.5723 38.6741C33.7199 38.4601 33.946 38.3367 34.2571 38.3367Z" fill="white"/>
<path d="M15.2419 32.8825C15.9009 32.8825 16.2896 33.2385 16.2896 33.6801H15.8192C15.8192 33.4681 15.6161 33.2412 15.2419 33.2412C14.8586 33.2412 14.6952 33.4244 14.6952 33.6164C14.6953 33.8007 14.8056 33.902 15.3284 34.0105C16.0042 34.152 16.3175 34.3616 16.3176 34.7727C16.3176 35.2109 15.9146 35.5301 15.2547 35.5302C14.5276 35.5302 14.1282 35.1197 14.1282 34.6948H14.6012C14.6213 35.0498 14.9627 35.1715 15.2547 35.1715C15.6458 35.1715 15.8471 35.0167 15.8471 34.8057C15.8471 34.616 15.7587 34.4636 15.214 34.3644C14.6136 34.2468 14.2223 34.0538 14.2223 33.6282C14.2223 33.221 14.629 32.8825 15.2419 32.8825Z" fill="white"/>
<path fill-rule="evenodd" clip-rule="evenodd" d="M22.5729 32.8825C23.176 32.8825 23.5951 33.1664 23.5951 33.7368C23.5951 34.2172 23.542 34.7203 23.618 35.1974C23.6348 35.2925 23.6917 35.3884 23.6917 35.483H23.201C23.17 35.4174 23.1479 35.3122 23.1357 35.2084C22.9618 35.3786 22.6985 35.5302 22.3517 35.5302C21.7953 35.5301 21.421 35.1977 21.421 34.7727C21.421 34.2182 21.9115 33.935 22.6593 33.935H23.1247V33.732C23.1247 33.4284 22.9254 33.2341 22.5449 33.2341C22.1941 33.2341 21.9499 33.4224 21.9499 33.6377H21.4795C21.4795 33.1371 22.1122 32.8825 22.5729 32.8825ZM22.7356 34.2417C22.6017 34.2417 22.4822 34.252 22.3771 34.2724C22.0639 34.3286 21.8939 34.4748 21.8939 34.7137C21.894 34.9549 22.0761 35.1479 22.4203 35.1479C22.7086 35.1479 22.9945 35.0052 23.1247 34.7625V34.2417H22.7356Z" fill="white"/>
<path d="M30.125 32.8825C30.7688 32.8825 31.1957 33.2775 31.221 33.8076H30.7735C30.7481 33.4938 30.5037 33.2412 30.125 33.2412C29.5148 33.2412 29.3724 33.7951 29.3724 34.2559C29.3724 34.705 29.5467 35.1715 30.125 35.1715C30.4621 35.1715 30.7482 34.9613 30.7735 34.6759H31.221C31.196 35.1241 30.7142 35.5301 30.125 35.5302C29.3043 35.5302 28.902 34.9422 28.902 34.2559C28.902 33.5489 29.2698 32.8825 30.125 32.8825Z" fill="white"/>
<path d="M32.8509 32.8825C33.4943 32.8825 33.9216 33.2773 33.9469 33.8076H33.4994C33.4743 33.4939 33.2297 33.2412 32.8509 33.2412C32.2913 33.2412 32.0983 33.697 32.0983 34.1568C32.0983 34.6214 32.2352 35.1715 32.8509 35.1715C33.1882 35.1715 33.4743 34.9613 33.4994 34.6759H33.9469C33.9184 35.1867 33.3661 35.5302 32.8509 35.5302C32.03 35.5301 31.6279 34.868 31.6279 34.1568C31.6279 33.4606 32.0347 32.8826 32.8509 32.8825Z" fill="white"/>
<path fill-rule="evenodd" clip-rule="evenodd" d="M35.5565 32.8825C36.4709 32.8826 36.6881 33.6256 36.6881 34.3291H34.8276C34.8403 34.798 35.1457 35.1738 35.643 35.1738C35.9752 35.1738 36.1948 35.0378 36.3677 34.827L36.6525 35.037C36.4753 35.286 36.1657 35.5302 35.6175 35.5302C34.7879 35.5301 34.3538 34.9135 34.3538 34.1969C34.3538 33.3613 34.9409 32.8825 35.5565 32.8825ZM35.5565 33.2412C35.1864 33.2412 34.9052 33.4998 34.8411 33.9727H36.2176C36.2176 33.5929 35.9916 33.2412 35.5565 33.2412Z" fill="white"/>
<path d="M38.2341 32.8825C38.8932 32.8825 39.2817 33.2386 39.2817 33.6801H38.8113C38.8113 33.4682 38.6085 33.2412 38.2341 33.2412C37.8507 33.2412 37.6874 33.4244 37.6874 33.6164C37.6874 33.8008 37.7985 33.9021 38.3205 34.0105C38.9969 34.1521 39.3097 34.3618 39.3097 34.7727C39.3097 35.211 38.9063 35.5302 38.2468 35.5302C37.5194 35.5301 37.1203 35.1195 37.1203 34.6948H37.5933C37.6134 35.05 37.9548 35.1715 38.2468 35.1715C38.6377 35.1715 38.8393 35.0169 38.8393 34.8057C38.8393 34.616 38.7508 34.4636 38.2061 34.3644C37.6055 34.2468 37.2144 34.054 37.2144 33.6282C37.2144 33.2207 37.6219 32.8825 38.2341 32.8825Z" fill="white"/>
<path d="M40.9244 32.8825C41.5835 32.8825 41.972 33.2386 41.972 33.6801H41.5016C41.5016 33.4682 41.2988 33.2412 40.9244 33.2412C40.5408 33.2412 40.3777 33.4245 40.3777 33.6164C40.3777 33.8006 40.4881 33.902 41.0108 34.0105C41.6875 34.1521 42 34.3619 42 34.7727C42 35.2112 41.5963 35.5302 40.9371 35.5302C40.2097 35.5301 39.8106 35.1195 39.8106 34.6948H40.2836C40.3037 35.05 40.6451 35.1715 40.9371 35.1715C41.328 35.1715 41.5296 35.0169 41.5296 34.8057C41.5296 34.616 41.4411 34.4636 40.8964 34.3644C40.2958 34.2468 39.9047 34.054 39.9047 33.6282C39.9047 33.2206 40.3124 32.8825 40.9244 32.8825Z" fill="white"/>
<path fill-rule="evenodd" clip-rule="evenodd" d="M9.36549 32.0472C10.2024 32.0472 10.6649 32.4829 10.6649 33.0949C10.6649 33.7547 10.2065 34.1356 9.36549 34.1356H8.49076V35.483H8V32.0472H9.36549ZM8.49076 33.7651H9.36549C9.94136 33.7651 10.1741 33.4851 10.1741 33.0996C10.1741 32.7463 9.93888 32.42 9.36549 32.42H8.49076V33.7651Z" fill="white"/>
<path d="M12.3355 32.8825C12.4031 32.8825 12.5099 32.8997 12.544 32.9156L12.5415 33.3214C12.4653 33.306 12.4027 33.3026 12.3126 33.3026C11.994 33.3026 11.7885 33.4436 11.6845 33.6707V35.483H11.2141V32.9297H11.6718L11.6803 33.2231C11.8221 33.0081 12.0374 32.8825 12.3355 32.8825Z" fill="white"/>
<path d="M13.4899 35.483H13.017V32.9297H13.4899V35.483Z" fill="white"/>
<path d="M17.3915 33.209C17.6688 32.9009 18.1578 32.8062 18.5603 32.9345C18.7505 32.9925 18.8991 33.1102 18.9917 33.2908C19.0125 33.263 19.0352 33.2365 19.0587 33.2105C19.2458 33.0087 19.519 32.8825 19.8673 32.8825C20.4633 32.8825 20.7904 33.1654 20.7904 33.8052V35.483H20.3174V33.8005C20.3174 33.3708 20.0927 33.2507 19.73 33.2507C19.4212 33.2507 19.2173 33.4088 19.1299 33.6329C19.1098 33.6877 19.0995 33.7452 19.0943 33.8052V35.483H18.6239V33.8028C18.6239 33.6691 18.5993 33.5621 18.5501 33.4819C18.4549 33.321 18.2731 33.2507 18.0365 33.2507C17.7585 33.2507 17.5763 33.3472 17.4644 33.5079C17.4412 33.5411 17.4213 33.5767 17.4033 33.6141V35.483H16.9304V32.9297H17.3779L17.3915 33.209Z" fill="white"/>
<path fill-rule="evenodd" clip-rule="evenodd" d="M28.5994 35.483H28.0959L27.7433 34.5839H26.1947L25.8429 35.483H25.342L26.7533 32.0472H27.183L28.5994 35.483ZM26.3405 34.2111H27.5966L26.9677 32.6072L26.3405 34.2111Z" fill="white"/>
<path d="M13.2585 32C13.4397 32 13.5382 32.1121 13.5383 32.2525C13.5383 32.3853 13.4414 32.4979 13.2585 32.4979C13.0751 32.4979 12.9814 32.3874 12.9814 32.2525C12.9814 32.1098 13.0768 32 13.2585 32Z" fill="white"/>
</svg>
