<svg width="50" height="50" viewBox="0 0 50 50" fill="none" xmlns="http://www.w3.org/2000/svg">
<rect width="50" height="50" fill="#05CC64"/>
<path fill-rule="evenodd" clip-rule="evenodd" d="M26.2315 5.70208C22.7765 6.13738 19.9103 7.48644 17.5719 9.77798C15.0716 12.2281 13.6696 15.1333 13.2446 18.7448C13.1979 19.1417 13.1749 21.0947 13.2153 21.2376C13.2318 21.2964 13.2611 21.5167 13.2803 21.7269C13.8257 27.7089 18.5378 32.9212 24.628 34.2796C25.6053 34.4975 27.5046 34.7033 27.7694 34.62L27.8349 34.5993V28.4069L28.3514 28.3703C32.7914 28.0562 36.1204 24.5288 36.1943 20.06C36.1994 19.754 36.0989 18.9097 36.0015 18.439C35.434 15.6974 33.4527 13.3787 30.8259 12.3822C30.4317 12.2326 29.9786 12.0912 29.7621 12.0501C29.7112 12.0404 29.5725 12.0115 29.4538 11.9857C29.1486 11.9196 28.5753 11.8479 28.3499 11.8476C28.2447 11.8474 28.0858 11.8386 27.9968 11.828L27.8349 11.8087V5.63892L27.2567 5.64236C26.8982 5.6445 26.5088 5.66721 26.2315 5.70208ZM27.8041 20.1041C27.8041 24.645 27.7931 28.3671 27.7798 28.3752C27.7664 28.3834 27.5479 28.3768 27.2941 28.3606C23.699 28.1308 20.641 25.6274 19.7438 22.1797C18.4589 17.2422 21.9197 12.3671 27.064 11.868C27.1234 11.8623 27.3142 11.8554 27.488 11.8527L27.8041 11.8478V20.1041Z" fill="white"/>
<path d="M15.4424 36.793C16.873 36.793 17.9039 37.7237 18.0547 39.1709H17.1172C16.9795 38.1676 16.542 37.5645 15.4424 37.5645C13.721 37.5645 13.5234 39.4453 13.5234 40.8018C13.5234 42.1954 14.0914 43.3311 15.3594 43.3311C16.5628 43.3311 16.9615 42.7317 17.1172 41.7393H18.0547C17.898 43.1812 16.8222 44.0977 15.3594 44.0977C13.5712 44.0977 12.5859 42.474 12.5859 40.8018C12.5859 38.8971 13.2317 36.793 15.4424 36.793Z" fill="white"/>
<path fill-rule="evenodd" clip-rule="evenodd" d="M23.792 38.6191C25.3196 38.6191 26.2041 39.9697 26.2041 41.417C26.2041 42.9246 25.3119 44.0977 23.8018 44.0977C22.312 44.0977 21.3945 42.9381 21.3945 41.417V41.3047C21.3945 39.7634 22.3341 38.6191 23.792 38.6191ZM23.792 39.3613C22.7454 39.3613 22.2979 40.3995 22.2979 41.3047C22.2979 42.2552 22.713 43.3555 23.8018 43.3555C24.826 43.3555 25.2959 42.3325 25.2959 41.417C25.2959 40.4719 24.9148 39.3613 23.792 39.3613Z" fill="white"/>
<path d="M28.2207 42.1348C28.2207 42.7706 28.5146 43.3311 29.1924 43.3311C29.9413 43.3311 30.3663 43.0262 30.5693 42.5518V38.7168H31.4775V44H30.6133L30.5938 43.4717C30.266 43.8634 29.7662 44.0977 29.0508 44.0977C28.0335 44.0977 27.3174 43.5402 27.3174 42.125V38.7168H28.2207V42.1348Z" fill="white"/>
<path fill-rule="evenodd" clip-rule="evenodd" d="M37.0928 44H36.2627L36.2188 43.4287C35.8747 43.8604 35.3794 44.0977 34.71 44.0977C33.4843 44.0977 32.6299 42.955 32.6299 41.417C32.6299 40.1458 33.2279 38.6191 34.7197 38.6191C35.362 38.6191 35.8421 38.8419 36.1846 39.2529V36.5H37.0928V44ZM34.9443 39.3809C33.9808 39.3809 33.5381 40.2338 33.5381 41.3145C33.5381 42.2195 33.8323 43.3311 34.9346 43.3311C35.5371 43.3311 35.9076 43.0519 36.1406 42.6377C36.1562 42.6099 36.1699 42.5811 36.1846 42.5527V40.1396C35.9572 39.7039 35.5763 39.3809 34.9443 39.3809Z" fill="white"/>
<path d="M20.1836 44H19.2754V36.5H20.1836V44Z" fill="white"/>
</svg>
