<svg width="50" height="50" viewBox="0 0 50 50" fill="none" xmlns="http://www.w3.org/2000/svg">
<rect width="50" height="50" fill="#F04E23"/>
<path d="M23.2491 23.9949L31.5331 16.1352L28.2283 13.0001L24.9236 16.1352L26.5686 17.6953L18.2882 25.5565L21.5892 28.6937L24.8941 25.5565L23.2491 23.9949Z" fill="white"/>
<path d="M21.5323 13L12.978 20.9971L16.389 24.1859L24.9432 16.1888L21.5323 13Z" fill="white"/>
<path d="M33.4611 17.7794L24.9069 25.7765L28.3178 28.9653L36.8721 20.9682L33.4611 17.7794Z" fill="white"/>
<path d="M8.44581 35.4642H7.39847V35.0563H8.44581C8.64864 35.0563 8.81287 35.0251 8.93852 34.9627C9.06416 34.9004 9.15571 34.8138 9.21314 34.7029C9.27237 34.5921 9.30199 34.4656 9.30199 34.3235C9.30199 34.1936 9.27237 34.0714 9.21314 33.9571C9.15571 33.8428 9.06416 33.751 8.93852 33.6817C8.81287 33.6106 8.64864 33.5752 8.44581 33.5752H7.51963V36.948H7V33.1646H8.44581C8.74197 33.1646 8.99237 33.2139 9.19699 33.3127C9.40161 33.4114 9.55687 33.5483 9.66278 33.7233C9.76867 33.8965 9.82162 34.0948 9.82162 34.3183C9.82162 34.5608 9.76867 34.7679 9.66278 34.9394C9.55687 35.1109 9.40161 35.2417 9.19699 35.3317C8.99237 35.42 8.74197 35.4642 8.44581 35.4642Z" fill="white"/>
<path d="M10.9013 34.5781V36.948H10.4032V34.1364H10.8878L10.9013 34.5781ZM11.8113 34.1208L11.8086 34.5678C11.7673 34.5591 11.7278 34.5539 11.6901 34.5522C11.6543 34.5487 11.6129 34.547 11.5663 34.547C11.4514 34.547 11.35 34.5643 11.262 34.599C11.1741 34.6336 11.0996 34.6821 11.0386 34.7444C10.9776 34.8068 10.9291 34.8813 10.8932 34.968C10.8591 35.0528 10.8367 35.1464 10.8259 35.2486L10.6859 35.3266C10.6859 35.1568 10.7029 34.9974 10.737 34.8484C10.7729 34.6994 10.8277 34.5678 10.9013 34.4534C10.9749 34.3373 11.0682 34.2473 11.1813 34.1832C11.2961 34.1174 11.4326 34.0845 11.5905 34.0845C11.6264 34.0845 11.6677 34.0888 11.7144 34.0974C11.7611 34.1043 11.7933 34.1121 11.8113 34.1208Z" fill="white"/>
<path d="M12.8129 34.1364V36.948H12.3121V34.1364H12.8129ZM12.2744 33.3907C12.2744 33.3127 12.2986 33.2468 12.3471 33.1932C12.3974 33.1395 12.4709 33.1126 12.5679 33.1126C12.663 33.1126 12.7357 33.1395 12.7859 33.1932C12.838 33.2468 12.864 33.3127 12.864 33.3907C12.864 33.4651 12.838 33.5292 12.7859 33.583C12.7357 33.6349 12.663 33.6608 12.5679 33.6608C12.4709 33.6608 12.3974 33.6349 12.3471 33.583C12.2986 33.5292 12.2744 33.4651 12.2744 33.3907Z" fill="white"/>
<path d="M15.3087 36.2023C15.3087 36.133 15.2926 36.0689 15.2603 36.01C15.2297 35.9493 15.1661 35.8948 15.0691 35.8462C14.974 35.796 14.8303 35.7527 14.6383 35.7163C14.4768 35.6834 14.3305 35.6445 14.1995 35.5994C14.0702 35.5543 13.9599 35.4998 13.8683 35.4357C13.7785 35.3716 13.7094 35.2962 13.661 35.2096C13.6125 35.123 13.5883 35.0216 13.5883 34.9056C13.5883 34.7947 13.6134 34.6899 13.6637 34.5912C13.7157 34.4924 13.7884 34.4049 13.8818 34.3287C13.9769 34.2525 14.0908 34.1928 14.2237 34.1494C14.3565 34.1061 14.5046 34.0845 14.668 34.0845C14.9013 34.0845 15.1005 34.1243 15.2657 34.2039C15.4307 34.2837 15.5573 34.3902 15.6452 34.5236C15.7332 34.6552 15.7772 34.8017 15.7772 34.9627H15.2791C15.2791 34.8848 15.2548 34.8095 15.2064 34.7366C15.1597 34.6622 15.0906 34.6007 14.9991 34.5522C14.9094 34.5036 14.7989 34.4794 14.668 34.4794C14.5297 34.4794 14.4175 34.5002 14.3314 34.5418C14.2471 34.5816 14.1851 34.6327 14.1456 34.6951C14.1079 34.7575 14.0891 34.8233 14.0891 34.8926C14.0891 34.9445 14.0981 34.9913 14.116 35.0329C14.1358 35.0727 14.1699 35.11 14.2183 35.1446C14.2667 35.1776 14.335 35.2088 14.423 35.2382C14.5109 35.2677 14.623 35.2971 14.7595 35.3266C14.9982 35.3785 15.1947 35.4409 15.3491 35.5136C15.5034 35.5864 15.6183 35.6756 15.6938 35.7813C15.7691 35.8869 15.8068 36.0151 15.8068 36.1659C15.8068 36.2888 15.7799 36.4015 15.726 36.5037C15.674 36.6059 15.5977 36.6943 15.4972 36.7688C15.3985 36.8415 15.28 36.8986 15.1418 36.9402C15.0054 36.98 14.8519 37 14.6814 37C14.4247 37 14.2075 36.9558 14.0298 36.8675C13.8522 36.7791 13.7175 36.6648 13.626 36.5245C13.5345 36.3842 13.4887 36.2361 13.4887 36.0801H13.9895C13.9966 36.2118 14.0361 36.3166 14.1079 36.3946C14.1797 36.4707 14.2676 36.5253 14.3718 36.5582C14.4759 36.5894 14.5791 36.605 14.6814 36.605C14.8179 36.605 14.9318 36.5877 15.0233 36.5531C15.1166 36.5184 15.1876 36.4707 15.236 36.4102C15.2845 36.3495 15.3087 36.2802 15.3087 36.2023Z" fill="white"/>
<path d="M16.9565 34.6951V36.948H16.4557V34.1364H16.9295L16.9565 34.6951ZM16.8542 35.4357L16.6226 35.4279C16.6244 35.2356 16.6504 35.058 16.7007 34.8951C16.751 34.7306 16.8254 34.5877 16.9241 34.4664C17.0229 34.3451 17.1459 34.2517 17.293 34.1858C17.4402 34.1183 17.6107 34.0845 17.8046 34.0845C17.941 34.0845 18.0666 34.1035 18.1815 34.1416C18.2964 34.178 18.396 34.236 18.4804 34.3157C18.5647 34.3954 18.6302 34.4976 18.6769 34.6223C18.7236 34.7471 18.7469 34.8978 18.7469 35.0745V36.948H18.2489V35.0979C18.2489 34.9506 18.2228 34.8328 18.1707 34.7444C18.1205 34.6561 18.0487 34.5921 17.9553 34.5522C17.862 34.5106 17.7525 34.4898 17.6269 34.4898C17.4797 34.4898 17.3567 34.5149 17.258 34.5652C17.1593 34.6154 17.0803 34.6847 17.0211 34.7731C16.9619 34.8614 16.9188 34.9627 16.8919 35.0771C16.8667 35.1897 16.8542 35.3092 16.8542 35.4357ZM18.7415 35.1706L18.4077 35.2694C18.4095 35.1152 18.4355 34.9671 18.4858 34.825C18.5378 34.683 18.6123 34.5565 18.7092 34.4456C18.808 34.3348 18.9291 34.2473 19.0727 34.1832C19.2163 34.1174 19.3805 34.0845 19.5654 34.0845C19.7216 34.0845 19.8598 34.1043 19.98 34.1442C20.1021 34.1841 20.2044 34.2455 20.2869 34.3287C20.3713 34.4102 20.4351 34.5149 20.4781 34.6432C20.5212 34.7713 20.5427 34.9238 20.5427 35.1005V36.948H20.0419V35.0952C20.0419 34.9376 20.0159 34.8155 19.9639 34.7288C19.9136 34.6405 19.8419 34.579 19.7485 34.5444C19.657 34.508 19.5474 34.4898 19.42 34.4898C19.3105 34.4898 19.2136 34.508 19.1293 34.5444C19.0449 34.5808 18.974 34.631 18.9165 34.6951C18.8591 34.7575 18.8151 34.8293 18.7846 34.9108C18.7559 34.9922 18.7415 35.0788 18.7415 35.1706Z" fill="white"/>
<path d="M23.0143 36.4673V35.0199C23.0143 34.9091 22.991 34.8129 22.9443 34.7315C22.8995 34.6483 22.8313 34.5843 22.7397 34.5392C22.6482 34.4941 22.5351 34.4716 22.4005 34.4716C22.2748 34.4716 22.1645 34.4924 22.0693 34.534C21.976 34.5756 21.9024 34.6301 21.8485 34.6977C21.7965 34.7653 21.7705 34.838 21.7705 34.916H21.2724C21.2724 34.8155 21.2993 34.7159 21.3532 34.6172C21.407 34.5184 21.4842 34.4292 21.5847 34.3495C21.687 34.2681 21.8091 34.2039 21.9509 34.1572C22.0944 34.1087 22.2542 34.0845 22.4301 34.0845C22.6419 34.0845 22.8286 34.119 22.9901 34.1884C23.1535 34.2577 23.2809 34.3625 23.3724 34.5028C23.4658 34.6414 23.5124 34.8155 23.5124 35.0251V36.3348C23.5124 36.4284 23.5205 36.528 23.5367 36.6336C23.5546 36.7392 23.5806 36.8302 23.6147 36.9064V36.948H23.0951C23.0699 36.8926 23.0503 36.819 23.0359 36.7272C23.0215 36.6336 23.0143 36.547 23.0143 36.4673ZM23.1005 35.2434L23.1059 35.5812H22.6025C22.4606 35.5812 22.3341 35.5925 22.2228 35.615C22.1115 35.6358 22.0181 35.6678 21.9428 35.7112C21.8674 35.7544 21.81 35.809 21.7705 35.8748C21.731 35.9389 21.7112 36.0143 21.7112 36.1009C21.7112 36.1892 21.7319 36.2699 21.7731 36.3426C21.8144 36.4153 21.8763 36.4733 21.959 36.5167C22.0433 36.5582 22.1465 36.579 22.2686 36.579C22.4211 36.579 22.5558 36.5478 22.6724 36.4855C22.7891 36.4231 22.8816 36.3469 22.9497 36.2568C23.0198 36.1667 23.0574 36.0792 23.0628 35.9944L23.2755 36.2256C23.2629 36.2984 23.2288 36.3789 23.1732 36.4673C23.1175 36.5556 23.043 36.6405 22.9497 36.7219C22.8582 36.8017 22.7487 36.8684 22.6213 36.922C22.4956 36.974 22.3538 37 22.1959 37C21.9984 37 21.8252 36.9627 21.6762 36.8882C21.5291 36.8137 21.4142 36.7141 21.3316 36.5894C21.2509 36.4629 21.2104 36.3217 21.2104 36.1659C21.2104 36.0151 21.2409 35.8826 21.302 35.7683C21.363 35.6523 21.4509 35.5561 21.5658 35.4798C21.6807 35.4019 21.8189 35.343 21.9805 35.3031C22.142 35.2633 22.3224 35.2434 22.5217 35.2434H23.1005Z" fill="white"/>
<path d="M27.1902 33.4998L25.8925 36.948H25.3621L26.8564 33.1646H27.1983L27.1902 33.4998ZM28.2779 36.948L26.9776 33.4998L26.9695 33.1646H27.3114L28.8111 36.948H28.2779ZM28.2107 35.5474V35.958H26.0083V35.5474H28.2107Z" fill="white"/>
<path d="M30.4265 36.605C30.5449 36.605 30.6545 36.5816 30.755 36.5349C30.8555 36.488 30.9381 36.424 31.0027 36.3426C31.0673 36.2594 31.1041 36.165 31.1131 36.0593H31.5869C31.578 36.2256 31.5196 36.3807 31.4119 36.5245C31.3061 36.6665 31.1669 36.7817 30.9946 36.8701C30.8223 36.9567 30.6329 37 30.4265 37C30.2075 37 30.0163 36.9627 29.853 36.8882C29.6915 36.8137 29.5568 36.7116 29.4492 36.5816C29.3432 36.4517 29.2634 36.3028 29.2095 36.1347C29.1575 35.9649 29.1314 35.7857 29.1314 35.5968V35.4876C29.1314 35.2988 29.1575 35.1204 29.2095 34.9524C29.2634 34.7826 29.3432 34.6327 29.4492 34.5028C29.5568 34.3729 29.6915 34.2706 29.853 34.1962C30.0163 34.1217 30.2075 34.0845 30.4265 34.0845C30.6545 34.0845 30.8537 34.1295 31.0242 34.2195C31.1948 34.3079 31.3285 34.4292 31.4253 34.5834C31.5241 34.7358 31.578 34.9091 31.5869 35.103H31.1131C31.1041 34.987 31.07 34.8822 31.0108 34.7886C30.9533 34.6951 30.8743 34.6206 30.7739 34.5652C30.6751 34.508 30.5594 34.4794 30.4265 34.4794C30.2739 34.4794 30.1456 34.5089 30.0415 34.5678C29.9392 34.625 29.8575 34.7029 29.7965 34.8017C29.7372 34.8987 29.6942 35.0069 29.6673 35.1265C29.6421 35.2443 29.6295 35.3646 29.6295 35.4876V35.5968C29.6295 35.7198 29.6421 35.8411 29.6673 35.9606C29.6924 36.0801 29.7346 36.1884 29.7938 36.2854C29.8549 36.3824 29.9365 36.4604 30.0388 36.5193C30.1429 36.5765 30.2722 36.605 30.4265 36.605Z" fill="white"/>
<path d="M33.3128 36.605C33.4312 36.605 33.5407 36.5816 33.6412 36.5349C33.7418 36.488 33.8243 36.424 33.8889 36.3426C33.9535 36.2594 33.9904 36.165 33.9993 36.0593H34.4731C34.4642 36.2256 34.4058 36.3807 34.2981 36.5245C34.1923 36.6665 34.0531 36.7817 33.8808 36.8701C33.7085 36.9567 33.5192 37 33.3128 37C33.0938 37 32.9026 36.9627 32.7392 36.8882C32.5777 36.8137 32.4431 36.7116 32.3354 36.5816C32.2295 36.4517 32.1496 36.3028 32.0958 36.1347C32.0437 35.9649 32.0177 35.7857 32.0177 35.5968V35.4876C32.0177 35.2988 32.0437 35.1204 32.0958 34.9524C32.1496 34.7826 32.2295 34.6327 32.3354 34.5028C32.4431 34.3729 32.5777 34.2706 32.7392 34.1962C32.9026 34.1217 33.0938 34.0845 33.3128 34.0845C33.5407 34.0845 33.7399 34.1295 33.9104 34.2195C34.081 34.3079 34.2147 34.4292 34.3117 34.5834C34.4104 34.7358 34.4642 34.9091 34.4731 35.103H33.9993C33.9904 34.987 33.9562 34.8822 33.897 34.7886C33.8396 34.6951 33.7606 34.6206 33.6601 34.5652C33.5614 34.508 33.4456 34.4794 33.3128 34.4794C33.1601 34.4794 33.0318 34.5089 32.9277 34.5678C32.8254 34.625 32.7437 34.7029 32.6827 34.8017C32.6235 34.8987 32.5804 35.0069 32.5535 35.1265C32.5283 35.2443 32.5158 35.3646 32.5158 35.4876V35.5968C32.5158 35.7198 32.5283 35.8411 32.5535 35.9606C32.5786 36.0801 32.6208 36.1884 32.6801 36.2854C32.7411 36.3824 32.8228 36.4604 32.9251 36.5193C33.0292 36.5765 33.1584 36.605 33.3128 36.605Z" fill="white"/>
<path d="M36.2421 37C36.0393 37 35.8553 36.9671 35.6902 36.9013C35.5268 36.8337 35.3859 36.7392 35.2674 36.618C35.1508 36.4967 35.061 36.353 34.9981 36.1867C34.9354 36.0203 34.9039 35.8384 34.9039 35.641V35.5318C34.9039 35.3031 34.939 35.0996 35.009 34.9211C35.0789 34.741 35.174 34.5885 35.2943 34.4638C35.4146 34.3391 35.551 34.2446 35.7036 34.1806C35.8561 34.1165 36.0141 34.0845 36.1774 34.0845C36.3857 34.0845 36.5651 34.119 36.716 34.1884C36.8685 34.2577 36.9932 34.3547 37.0902 34.4794C37.1871 34.6024 37.2589 34.7479 37.3056 34.916C37.3523 35.0823 37.3756 35.2642 37.3756 35.4616V35.6774H35.2001V35.285H36.8775V35.2486C36.8703 35.1239 36.8434 35.0026 36.7967 34.8848C36.7518 34.767 36.68 34.6699 36.5813 34.5938C36.4826 34.5176 36.348 34.4794 36.1774 34.4794C36.0644 34.4794 35.9603 34.5028 35.8651 34.5496C35.77 34.5946 35.6883 34.6622 35.6201 34.7523C35.5519 34.8424 35.499 34.9524 35.4612 35.0823C35.4236 35.2122 35.4047 35.362 35.4047 35.5318V35.641C35.4047 35.7744 35.4236 35.9 35.4612 36.0178C35.5008 36.1338 35.5573 36.2361 35.6309 36.3244C35.7062 36.4127 35.7969 36.482 35.9028 36.5322C36.0105 36.5825 36.1326 36.6076 36.269 36.6076C36.4449 36.6076 36.5939 36.5729 36.716 36.5037C36.838 36.4344 36.9448 36.3417 37.0363 36.2256L37.3378 36.4569C37.2751 36.5487 37.1952 36.6362 37.0983 36.7194C37.0013 36.8025 36.8819 36.8701 36.7401 36.922C36.6002 36.974 36.4341 37 36.2421 37Z" fill="white"/>
<path d="M39.6534 36.2023C39.6534 36.133 39.6372 36.0689 39.6048 36.01C39.5743 35.9493 39.5106 35.8948 39.4137 35.8462C39.3186 35.796 39.175 35.7527 38.9829 35.7163C38.8214 35.6834 38.6751 35.6445 38.544 35.5994C38.4148 35.5543 38.3044 35.4998 38.2129 35.4357C38.1231 35.3716 38.054 35.2962 38.0056 35.2096C37.9572 35.123 37.9329 35.0216 37.9329 34.9056C37.9329 34.7947 37.958 34.6899 38.0083 34.5912C38.0604 34.4924 38.1331 34.4049 38.2263 34.3287C38.3214 34.2525 38.4355 34.1928 38.5683 34.1494C38.7011 34.1061 38.8492 34.0845 39.0125 34.0845C39.2459 34.0845 39.4451 34.1243 39.6103 34.2039C39.7754 34.2837 39.902 34.3902 39.9899 34.5236C40.0778 34.6552 40.1218 34.8017 40.1218 34.9627H39.6237C39.6237 34.8848 39.5995 34.8095 39.551 34.7366C39.5044 34.6622 39.4353 34.6007 39.3437 34.5522C39.254 34.5036 39.1436 34.4794 39.0125 34.4794C38.8743 34.4794 38.7621 34.5002 38.676 34.5418C38.5916 34.5816 38.5297 34.6327 38.4902 34.6951C38.4525 34.7575 38.4337 34.8233 38.4337 34.8926C38.4337 34.9445 38.4427 34.9913 38.4606 35.0329C38.4803 35.0727 38.5144 35.11 38.5629 35.1446C38.6114 35.1776 38.6796 35.2088 38.7675 35.2382C38.8555 35.2677 38.9677 35.2971 39.1041 35.3266C39.3428 35.3785 39.5393 35.4409 39.6937 35.5136C39.8481 35.5864 39.963 35.6756 40.0383 35.7813C40.1137 35.8869 40.1515 36.0151 40.1515 36.1659C40.1515 36.2888 40.1245 36.4015 40.0707 36.5037C40.0186 36.6059 39.9423 36.6943 39.8418 36.7688C39.7431 36.8415 39.6246 36.8986 39.4864 36.9402C39.35 36.98 39.1965 37 39.026 37C38.7694 37 38.5521 36.9558 38.3745 36.8675C38.1967 36.7791 38.0621 36.6648 37.9706 36.5245C37.879 36.3842 37.8333 36.2361 37.8333 36.0801H38.334C38.3412 36.2118 38.3807 36.3166 38.4525 36.3946C38.5244 36.4707 38.6123 36.5253 38.7163 36.5582C38.8205 36.5894 38.9237 36.605 39.026 36.605C39.1624 36.605 39.2764 36.5877 39.3679 36.5531C39.4613 36.5184 39.5321 36.4707 39.5807 36.4102C39.6291 36.3495 39.6534 36.2802 39.6534 36.2023Z" fill="white"/>
<path d="M42.5019 36.2023C42.5019 36.133 42.4857 36.0689 42.4534 36.01C42.4229 35.9493 42.3592 35.8948 42.2622 35.8462C42.1671 35.796 42.0236 35.7527 41.8315 35.7163C41.6699 35.6834 41.5236 35.6445 41.3926 35.5994C41.2634 35.5543 41.153 35.4998 41.0615 35.4357C40.9717 35.3716 40.9026 35.2962 40.8541 35.2096C40.8057 35.123 40.7814 35.0216 40.7814 34.9056C40.7814 34.7947 40.8065 34.6899 40.8568 34.5912C40.9089 34.4924 40.9816 34.4049 41.0749 34.3287C41.1701 34.2525 41.284 34.1928 41.4168 34.1494C41.5496 34.1061 41.6978 34.0845 41.8611 34.0845C42.0944 34.0845 42.2937 34.1243 42.4588 34.2039C42.6239 34.2837 42.7505 34.3902 42.8384 34.5236C42.9264 34.6552 42.9703 34.8017 42.9703 34.9627H42.4723C42.4723 34.8848 42.448 34.8095 42.3995 34.7366C42.3529 34.6622 42.2838 34.6007 42.1923 34.5522C42.1025 34.5036 41.9921 34.4794 41.8611 34.4794C41.7229 34.4794 41.6107 34.5002 41.5245 34.5418C41.4402 34.5816 41.3782 34.6327 41.3388 34.6951C41.301 34.7575 41.2822 34.8233 41.2822 34.8926C41.2822 34.9445 41.2912 34.9913 41.3091 35.0329C41.3289 35.0727 41.363 35.11 41.4115 35.1446C41.4599 35.1776 41.5281 35.2088 41.6161 35.2382C41.704 35.2677 41.8162 35.2971 41.9526 35.3266C42.1914 35.3785 42.3879 35.4409 42.5422 35.5136C42.6966 35.5864 42.8115 35.6756 42.8869 35.7813C42.9623 35.8869 43 36.0151 43 36.1659C43 36.2888 42.9731 36.4015 42.9192 36.5037C42.8671 36.6059 42.7908 36.6943 42.6904 36.7688C42.5916 36.8415 42.4731 36.8986 42.3349 36.9402C42.1985 36.98 42.0451 37 41.8746 37C41.6179 37 41.4007 36.9558 41.223 36.8675C41.0453 36.7791 40.9106 36.6648 40.8191 36.5245C40.7276 36.3842 40.6818 36.2361 40.6818 36.0801H41.1826C41.1897 36.2118 41.2293 36.3166 41.301 36.3946C41.3729 36.4707 41.4609 36.5253 41.5649 36.5582C41.669 36.5894 41.7722 36.605 41.8746 36.605C42.011 36.605 42.1249 36.5877 42.2165 36.5531C42.3098 36.5184 42.3807 36.4707 42.4292 36.4102C42.4776 36.3495 42.5019 36.2802 42.5019 36.2023Z" fill="white"/>
</svg>
