<svg width="50" height="50" viewBox="0 0 50 50" fill="none" xmlns="http://www.w3.org/2000/svg">
<path d="M23.1763 23.3961L32.1905 14.5347L28.5944 11.0001L24.9984 14.5347L26.7884 16.2937L17.7782 25.1567L21.3702 28.6937L24.9663 25.1567L23.1763 23.3961Z" fill="#F04E23"/>
<path d="M21.3082 11L12 20.0163L15.7116 23.6114L25.0198 14.5952L21.3082 11Z" fill="#F04E23"/>
<path d="M34.2884 16.3885L24.9802 25.4048L28.6918 29L38 19.9837L34.2884 16.3885Z" fill="#F04E23"/>
<path d="M7.06836 36.3271H5.92871V35.8672H7.06836C7.73187 35.8672 8 35.5195 8 35.041C8 34.6024 7.72906 34.1973 7.06836 34.1973H6.06055V38H5.49512V33.7344H7.06836C8.03278 33.7344 8.56543 34.2756 8.56543 35.0352C8.56543 35.8546 8.03728 36.3271 7.06836 36.3271Z" fill="#1C1D1F"/>
<path d="M9.74023 35.3281V38H9.19824V34.8301H9.72559L9.74023 35.3281ZM10.7305 34.8125L10.7275 35.3164C10.172 35.1956 9.71376 35.5377 9.6582 36.084L9.50586 36.1719C9.50586 35.9805 9.52441 35.8008 9.56152 35.6328C9.67057 35.1639 10.1804 34.5375 10.7305 34.8125Z" fill="#1C1D1F"/>
<path d="M11.8203 34.8301V38H11.2754V34.8301H11.8203ZM11.2344 33.9893C11.2344 33.8121 11.3444 33.6758 11.5537 33.6758C11.7624 33.6758 11.876 33.8149 11.876 33.9893C11.876 34.1544 11.7643 34.2939 11.5537 34.2939C11.3426 34.2939 11.2344 34.1571 11.2344 33.9893Z" fill="#1C1D1F"/>
<path d="M14.5361 37.1592C14.5361 36.9236 14.4341 36.7345 13.8066 36.6113C13.1144 36.4652 12.6641 36.2257 12.6641 35.6973C12.6641 35.1918 13.1331 34.7715 13.8389 34.7715C14.5982 34.7715 15.0459 35.2134 15.0459 35.7617H14.5039C14.5039 35.4983 14.27 35.2168 13.8389 35.2168C13.397 35.2168 13.209 35.4443 13.209 35.6826C13.209 35.9116 13.3365 36.0372 13.9385 36.1719C14.7178 36.3477 15.0781 36.6084 15.0781 37.1182C15.0781 37.6625 14.6134 38.0586 13.8535 38.0586C13.0156 38.0586 12.5557 37.5488 12.5557 37.0215H13.1006C13.1238 37.4624 13.517 37.6133 13.8535 37.6133C14.3039 37.6133 14.5361 37.4214 14.5361 37.1592Z" fill="#1C1D1F"/>
<path d="M16.3291 35.46V38H15.7842V34.8301H16.2998L16.3291 35.46ZM16.2178 36.2949L15.9658 36.2861C15.9697 35.8504 16.0801 35.4743 16.2939 35.2021C16.7449 34.6282 17.8987 34.5404 18.2012 35.3779C18.252 35.5186 18.2773 35.6885 18.2773 35.8877V38H17.7354V35.9141C17.7354 34.7602 16.2178 35.2786 16.2178 36.2949ZM18.2715 35.9961L17.9082 36.1074C17.9161 35.4066 18.37 34.7715 19.168 34.7715C19.8544 34.7715 20.2314 35.1227 20.2314 35.917V38H19.6865V35.9111C19.6865 35.3774 19.4277 35.2285 19.0098 35.2285C18.5376 35.2285 18.2715 35.5767 18.2715 35.9961Z" fill="#1C1D1F"/>
<path d="M22.9209 37.458V35.8262C22.9209 35.4493 22.6913 35.208 22.2529 35.208C21.8487 35.208 21.5674 35.4417 21.5674 35.709H21.0254C21.0254 35.0876 21.7545 34.7715 22.2852 34.7715C22.9801 34.7715 23.4629 35.1237 23.4629 35.832V37.3086C23.4629 37.4141 23.4717 37.5264 23.4893 37.6455C23.5086 37.7636 23.5742 37.8826 23.5742 38H23.0088C22.9814 37.9375 22.96 37.8545 22.9443 37.751C22.9287 37.6455 22.9209 37.5479 22.9209 37.458ZM23.0146 36.0781L23.0205 36.459C22.7034 36.459 22.3721 36.4315 22.0596 36.4971C21.6987 36.5669 21.5029 36.748 21.5029 37.0449C21.5029 37.3445 21.713 37.584 22.1094 37.584C22.609 37.584 22.9562 37.2102 22.9736 36.9248L23.2051 37.1855C23.1512 37.509 22.7339 38.0586 22.0303 38.0586C21.389 38.0586 20.958 37.6459 20.958 37.1182C20.958 36.6031 21.2732 36.2791 21.7959 36.1455C22.1908 36.0446 22.6109 36.0781 23.0146 36.0781Z" fill="#1C1D1F"/>
<path d="M27.4648 34.1123L26.0527 38H25.4756L27.1016 33.7344H27.4736L27.4648 34.1123ZM28.6484 38L27.2334 34.1123L27.2246 33.7344H27.5967L29.2285 38H28.6484ZM28.5752 36.4209V36.8838H26.1787V36.4209H28.5752Z" fill="#1C1D1F"/>
<path d="M30.9863 37.6133C31.3748 37.6133 31.7044 37.3523 31.7334 36.998H32.249C32.216 37.6321 31.5799 38.0586 30.9863 38.0586C30.0411 38.0586 29.5771 37.3286 29.5771 36.4766V36.3535C29.5771 35.4893 30.0455 34.7715 30.9863 34.7715C31.7275 34.7715 32.2196 35.2613 32.249 35.9199H31.7334C31.7043 35.5302 31.4227 35.2168 30.9863 35.2168C30.3418 35.2168 30.1191 35.7828 30.1191 36.3535V36.4766C30.1191 37.0342 30.3198 37.6133 30.9863 37.6133Z" fill="#1C1D1F"/>
<path d="M34.127 37.6133C34.5154 37.6133 34.845 37.3523 34.874 36.998H35.3896C35.3566 37.6321 34.7206 38.0586 34.127 38.0586C33.1818 38.0586 32.7178 37.3286 32.7178 36.4766V36.3535C32.7178 35.4893 33.1862 34.7715 34.127 34.7715C34.8681 34.7715 35.3602 35.2613 35.3896 35.9199H34.874C34.8449 35.5302 34.5634 35.2168 34.127 35.2168C33.4824 35.2168 33.2598 35.7828 33.2598 36.3535V36.4766C33.2598 37.0342 33.4604 37.6133 34.127 37.6133Z" fill="#1C1D1F"/>
<path d="M37.3145 38.0586C36.4383 38.0586 35.8584 37.4214 35.8584 36.5264V36.4033C35.8584 35.3655 36.5347 34.7715 37.2441 34.7715C38.2436 34.7715 38.5479 35.6908 38.5479 36.5674H36.1807V36.125H38.0059C38.0059 35.6642 37.7522 35.2168 37.2441 35.2168C36.7547 35.2168 36.4033 35.6362 36.4033 36.4033V36.5264C36.4033 37.1287 36.7575 37.6162 37.3438 37.6162C37.7266 37.6162 37.9795 37.4473 38.1787 37.1855L38.5068 37.4463C38.3025 37.7557 37.9461 38.0586 37.3145 38.0586Z" fill="#1C1D1F"/>
<path d="M41.0264 37.1592C41.0264 36.9236 40.9243 36.7345 40.2969 36.6113C39.6046 36.4652 39.1543 36.2257 39.1543 35.6973C39.1543 35.1918 39.6233 34.7715 40.3291 34.7715C41.0885 34.7715 41.5361 35.2134 41.5361 35.7617H40.9941C40.9941 35.4983 40.7603 35.2168 40.3291 35.2168C39.8872 35.2168 39.6992 35.4443 39.6992 35.6826C39.6992 35.9116 39.8267 36.0372 40.4287 36.1719C41.208 36.3477 41.5684 36.6084 41.5684 37.1182C41.5684 37.6625 41.1036 38.0586 40.3438 38.0586C39.5059 38.0586 39.0459 37.5488 39.0459 37.0215H39.5908C39.614 37.4624 40.0073 37.6133 40.3438 37.6133C40.7941 37.6133 41.0264 37.4214 41.0264 37.1592Z" fill="#1C1D1F"/>
<path d="M44.126 37.1592C44.126 36.9236 44.0239 36.7345 43.3965 36.6113C42.7042 36.4652 42.2539 36.2257 42.2539 35.6973C42.2539 35.1918 42.723 34.7715 43.4287 34.7715C44.1881 34.7715 44.6357 35.2134 44.6357 35.7617H44.0938C44.0938 35.4983 43.8599 35.2168 43.4287 35.2168C42.9868 35.2168 42.7988 35.4443 42.7988 35.6826C42.7988 35.9116 42.9263 36.0372 43.5283 36.1719C44.3076 36.3477 44.668 36.6084 44.668 37.1182C44.668 37.6625 44.2033 38.0586 43.4434 38.0586C42.6055 38.0586 42.1455 37.5488 42.1455 37.0215H42.6904C42.7136 37.4624 43.1069 37.6133 43.4434 37.6133C43.8937 37.6133 44.126 37.4214 44.126 37.1592Z" fill="#1C1D1F"/>
</svg>
