<svg width="50" height="50" viewBox="0 0 50 50" fill="none" xmlns="http://www.w3.org/2000/svg">
<path fill-rule="evenodd" clip-rule="evenodd" d="M26.2315 5.70208C22.7765 6.13738 19.9103 7.48644 17.5719 9.77798C15.0716 12.2281 13.6696 15.1333 13.2446 18.7448C13.1979 19.1417 13.1749 21.0947 13.2153 21.2376C13.2318 21.2964 13.2611 21.5166 13.2803 21.7269C13.8257 27.7089 18.5378 32.9212 24.628 34.2796C25.6053 34.4975 27.5046 34.7033 27.7694 34.62L27.8349 34.5993V28.4069L28.3514 28.3703C32.7914 28.0562 36.1204 24.5288 36.1943 20.06C36.1994 19.754 36.0989 18.9097 36.0015 18.439C35.434 15.6974 33.4527 13.3787 30.8259 12.3822C30.4317 12.2326 29.9786 12.0912 29.7621 12.0501C29.7112 12.0404 29.5725 12.0115 29.4538 11.9857C29.1486 11.9196 28.5753 11.8479 28.3499 11.8476C28.2447 11.8474 28.0858 11.8386 27.9968 11.828L27.8349 11.8087V5.63892L27.2567 5.64236C26.8982 5.6445 26.5088 5.66721 26.2315 5.70208ZM27.8041 20.1041C27.8041 24.645 27.7931 28.3671 27.7798 28.3752C27.7664 28.3834 27.5479 28.3768 27.2941 28.3606C23.699 28.1308 20.641 25.6274 19.7438 22.1797C18.4589 17.2422 21.9197 12.3671 27.064 11.868C27.1234 11.8623 27.3142 11.8554 27.488 11.8527L27.8041 11.8478V20.1041Z" fill="#05CC64"/>
<path d="M19.8838 44.2031C19.8838 44.0371 19.8577 43.8906 19.8057 43.7637C19.7568 43.6335 19.6689 43.5163 19.542 43.4121C19.4183 43.3079 19.2458 43.2087 19.0244 43.1143C18.8063 43.0199 18.5296 42.9238 18.1943 42.8262C17.8428 42.722 17.5254 42.6064 17.2422 42.4795C16.959 42.3493 16.7165 42.2012 16.5146 42.0352C16.3128 41.8691 16.1582 41.6787 16.0508 41.4639C15.9434 41.249 15.8896 41.0033 15.8896 40.7266C15.8896 40.4499 15.9466 40.1943 16.0605 39.96C16.1745 39.7256 16.3372 39.5221 16.5488 39.3496C16.7637 39.1738 17.0192 39.0371 17.3154 38.9395C17.6117 38.8418 17.9421 38.793 18.3066 38.793C18.8405 38.793 19.293 38.8955 19.6641 39.1006C20.0384 39.3024 20.3232 39.5677 20.5186 39.8965C20.7139 40.222 20.8115 40.5703 20.8115 40.9414H19.874C19.874 40.6745 19.8171 40.4385 19.7031 40.2334C19.5892 40.0251 19.4167 39.8623 19.1855 39.7451C18.9544 39.6247 18.6615 39.5645 18.3066 39.5645C17.9714 39.5645 17.6947 39.6149 17.4766 39.7158C17.2585 39.8167 17.0957 39.9535 16.9883 40.126C16.8841 40.2985 16.832 40.4954 16.832 40.7168C16.832 40.8665 16.863 41.0033 16.9248 41.127C16.9899 41.2474 17.0892 41.3597 17.2227 41.4639C17.3594 41.568 17.5319 41.6641 17.7402 41.752C17.9518 41.8398 18.2041 41.9245 18.4971 42.0059C18.9007 42.1198 19.249 42.2467 19.542 42.3867C19.835 42.5267 20.0758 42.6846 20.2646 42.8604C20.4567 43.0329 20.5983 43.2298 20.6895 43.4512C20.7839 43.6693 20.8311 43.9167 20.8311 44.1934C20.8311 44.4831 20.7725 44.7451 20.6553 44.9795C20.5381 45.2139 20.3704 45.4141 20.1523 45.5801C19.9342 45.7461 19.6722 45.8747 19.3662 45.9658C19.0635 46.0537 18.7249 46.0977 18.3506 46.0977C18.0218 46.0977 17.6979 46.0521 17.3789 45.9609C17.0632 45.8698 16.7751 45.7331 16.5146 45.5508C16.2575 45.3685 16.0508 45.1439 15.8945 44.877C15.7415 44.6068 15.665 44.2943 15.665 43.9395H16.6025C16.6025 44.1836 16.6497 44.3936 16.7441 44.5693C16.8385 44.7419 16.9671 44.8851 17.1299 44.999C17.2959 45.113 17.4831 45.1976 17.6914 45.2529C17.903 45.305 18.1227 45.3311 18.3506 45.3311C18.6794 45.3311 18.9577 45.2855 19.1855 45.1943C19.4134 45.1032 19.5859 44.973 19.7031 44.8037C19.8236 44.6344 19.8838 44.4342 19.8838 44.2031Z" fill="black"/>
<path fill-rule="evenodd" clip-rule="evenodd" d="M27.5059 42.6699V42.2207C27.5059 41.6868 27.4375 41.21 27.3008 40.79C27.1673 40.3669 26.9736 40.0072 26.7197 39.7109C26.4691 39.4115 26.168 39.1836 25.8164 39.0273C25.4681 38.8711 25.0775 38.793 24.6445 38.793C24.2246 38.793 23.8389 38.8711 23.4873 39.0273C23.139 39.1836 22.8379 39.4115 22.584 39.7109C22.3301 40.0072 22.1331 40.3669 21.9932 40.79C21.8564 41.21 21.7881 41.6868 21.7881 42.2207V42.6699C21.7881 43.2038 21.8581 43.6823 21.998 44.1055C22.138 44.5286 22.335 44.8883 22.5889 45.1846C22.846 45.4808 23.1488 45.707 23.4971 45.8633C23.8486 46.0195 24.2344 46.0977 24.6543 46.0977C25.0872 46.0977 25.4779 46.0195 25.8262 45.8633C26.1777 45.707 26.4788 45.4808 26.7295 45.1846C26.9801 44.8883 27.1722 44.5286 27.3057 44.1055C27.4391 43.6823 27.5059 43.2038 27.5059 42.6699ZM26.5732 42.2109V42.6699C26.5732 43.0964 26.5309 43.474 26.4463 43.8027C26.3617 44.1283 26.2363 44.4033 26.0703 44.6279C25.9076 44.8493 25.7074 45.0169 25.4697 45.1309C25.2321 45.2448 24.9603 45.3018 24.6543 45.3018C24.3613 45.3018 24.096 45.2448 23.8584 45.1309C23.624 45.0169 23.4206 44.8493 23.248 44.6279C23.0788 44.4033 22.9486 44.1283 22.8574 43.8027C22.7663 43.474 22.7207 43.0964 22.7207 42.6699V42.2109C22.7207 41.7878 22.7663 41.4134 22.8574 41.0879C22.9486 40.7624 23.0771 40.4889 23.2432 40.2676C23.4124 40.0462 23.6143 39.8786 23.8486 39.7646C24.0863 39.6507 24.3516 39.5938 24.6445 39.5938C24.9473 39.5938 25.2174 39.6507 25.4551 39.7646C25.696 39.8786 25.8994 40.0462 26.0654 40.2676C26.2314 40.4889 26.3568 40.7624 26.4414 41.0879C26.5293 41.4134 26.5732 41.7878 26.5732 42.2109Z" fill="black"/>
<path fill-rule="evenodd" clip-rule="evenodd" d="M31.6611 38.8906H30.8359L28.126 46H29.0879L29.7636 44.1396H32.7369L33.4141 46H34.3809L31.6611 38.8906ZM32.4561 43.3682H30.0438L31.2487 40.051L32.4561 43.3682Z" fill="black"/>
<path fill-rule="evenodd" clip-rule="evenodd" d="M35.333 38.8906H37.6865C38.2204 38.8906 38.6712 38.972 39.0391 39.1348C39.4102 39.2975 39.6917 39.5384 39.8838 39.8574C40.0791 40.1732 40.1768 40.5622 40.1768 41.0244C40.1768 41.3499 40.11 41.6478 39.9766 41.918C39.8464 42.1849 39.6576 42.4128 39.4102 42.6016C39.2389 42.7317 39.0435 42.8387 38.8242 42.9224L40.4941 45.9414V46H39.4883L37.9431 43.1191H36.2754V46H35.333V38.8906ZM37.7158 42.3525H36.2754V39.6621H37.6865C38.0479 39.6621 38.3424 39.7191 38.5703 39.833C38.8014 39.9437 38.9707 40.1016 39.0781 40.3066C39.1855 40.5117 39.2393 40.751 39.2393 41.0244C39.2393 41.2686 39.1823 41.4915 39.0684 41.6934C38.9544 41.8952 38.7852 42.0563 38.5605 42.1768C38.3359 42.2939 38.0544 42.3525 37.7158 42.3525Z" fill="black"/>
<path d="M12.1445 41.6152L10.4355 38.8906H9.33691L11.583 42.4111L9.2832 46H10.3916L12.1445 43.2217L13.8975 46H15.0059L12.7061 42.4111L14.9521 38.8906H13.8535L12.1445 41.6152Z" fill="black"/>
</svg>
