<svg width="50" height="50" viewBox="0 0 50 50" fill="none" xmlns="http://www.w3.org/2000/svg">
<path fill-rule="evenodd" clip-rule="evenodd" d="M26.2315 5.70208C22.7765 6.13738 19.9103 7.48644 17.5719 9.77798C15.0716 12.2281 13.6696 15.1333 13.2446 18.7448C13.1979 19.1417 13.1749 21.0947 13.2153 21.2376C13.2318 21.2964 13.2611 21.5166 13.2803 21.7269C13.8257 27.7089 18.5378 32.9212 24.628 34.2796C25.6053 34.4975 27.5046 34.7033 27.7694 34.62L27.8349 34.5993V28.4069L28.3514 28.3703C32.7914 28.0562 36.1204 24.5288 36.1943 20.06C36.1994 19.754 36.0989 18.9097 36.0015 18.439C35.434 15.6974 33.4527 13.3787 30.8259 12.3822C30.4317 12.2326 29.9786 12.0912 29.7621 12.0501C29.7112 12.0404 29.5725 12.0115 29.4538 11.9857C29.1486 11.9196 28.5753 11.8479 28.3499 11.8476C28.2447 11.8474 28.0858 11.8386 27.9968 11.828L27.8349 11.8087V5.63892L27.2567 5.64236C26.8982 5.6445 26.5088 5.66721 26.2315 5.70208ZM27.8041 20.1041C27.8041 24.645 27.7931 28.3671 27.7798 28.3752C27.7664 28.3834 27.5479 28.3768 27.2941 28.3606C23.699 28.1308 20.641 25.6274 19.7438 22.1797C18.4589 17.2422 21.9197 12.3671 27.064 11.868C27.1234 11.8623 27.3142 11.8554 27.488 11.8527L27.8041 11.8478V20.1041Z" fill="#05CC64"/>
<path d="M19.1445 41.6152L17.4355 38.8906H16.3369L18.583 42.4111L16.2832 46H17.3916L19.1445 43.2217L20.8975 46H22.0059L19.7061 42.4111L21.9521 38.8906H20.8535L19.1445 41.6152Z" fill="#1C1D1F"/>
<path fill-rule="evenodd" clip-rule="evenodd" d="M25.0186 46H23.0947V38.8906H25.1064C25.5719 38.8906 25.9967 38.9688 26.3809 39.125C26.765 39.278 27.0954 39.501 27.3721 39.7939C27.652 40.0837 27.8669 40.4352 28.0166 40.8486C28.1663 41.2588 28.2412 41.721 28.2412 42.2354V42.6602C28.2412 43.1745 28.1663 43.6383 28.0166 44.0518C27.8669 44.4619 27.6504 44.8118 27.3672 45.1016C27.0872 45.3913 26.7487 45.6143 26.3516 45.7705C25.9577 45.9235 25.5133 46 25.0186 46ZM25.0186 45.2334H24.0371V39.6621H25.1064C25.458 39.6621 25.7689 39.7191 26.0391 39.833C26.3125 39.9469 26.5436 40.1146 26.7324 40.3359C26.9212 40.554 27.0645 40.8226 27.1621 41.1416C27.2598 41.4574 27.3086 41.8187 27.3086 42.2256V42.6602C27.3086 43.1777 27.2223 43.6302 27.0498 44.0176C26.8805 44.4017 26.6266 44.7012 26.2881 44.916C25.9495 45.1276 25.5264 45.2334 25.0186 45.2334Z" fill="#1C1D1F"/>
<path fill-rule="evenodd" clip-rule="evenodd" d="M29.6572 38.8906H32.0107C32.5446 38.8906 32.9954 38.972 33.3633 39.1348C33.7344 39.2975 34.016 39.5384 34.208 39.8574C34.4033 40.1732 34.501 40.5622 34.501 41.0244C34.501 41.3499 34.4342 41.6478 34.3008 41.918C34.1706 42.1849 33.9818 42.4128 33.7344 42.6016C33.5631 42.7317 33.3677 42.8387 33.1484 42.9224L34.8184 45.9414V46H33.8125L32.2673 43.1191H30.5996V46H29.6572V38.8906ZM32.04 42.3525H30.5996V39.6621H32.0107C32.3721 39.6621 32.6667 39.7191 32.8945 39.833C33.1257 39.9437 33.2949 40.1016 33.4023 40.3066C33.5098 40.5117 33.5635 40.751 33.5635 41.0244C33.5635 41.2686 33.5065 41.4915 33.3926 41.6934C33.2786 41.8952 33.1094 42.0563 32.8848 42.1768C32.6602 42.2939 32.3786 42.3525 32.04 42.3525Z" fill="#1C1D1F"/>
</svg>
