<svg width="50" height="50" viewBox="0 0 50 50" fill="none" xmlns="http://www.w3.org/2000/svg">
<path d="M23.1763 20.3961L32.1905 11.5347L28.5944 8.0001L24.9984 11.5347L26.7884 13.2937L17.7782 22.1567L21.3702 25.6937L24.9663 22.1567L23.1763 20.3961Z" fill="#F04E23"/>
<path d="M21.3082 8L12 17.0163L15.7116 20.6114L25.0198 11.5952L21.3082 8Z" fill="#F04E23"/>
<path d="M34.2884 13.3885L24.9802 22.4048L28.6918 26L38 16.9837L34.2884 13.3885Z" fill="#F04E23"/>
<path fill-rule="evenodd" clip-rule="evenodd" d="M20.79 39.543C21.7812 39.5432 22.3135 40.349 22.3135 41.2324C22.3133 42.0959 21.7147 42.8494 20.7959 42.8496C19.8558 42.8495 19.2756 42.1501 19.2754 41.2324C19.2754 40.3559 19.8035 39.543 20.79 39.543ZM20.79 39.9912C20.1126 39.9912 19.8467 40.6611 19.8467 41.2324C19.8468 41.8639 20.1606 42.4022 20.7959 42.4023C21.4327 42.4021 21.7391 41.8575 21.7393 41.2324C21.7393 40.6565 21.4939 39.9915 20.79 39.9912Z" fill="#1C1D1F"/>
<path d="M28.9854 39.543C29.7837 39.5431 30.2556 39.988 30.2559 40.5391H29.6855C29.6853 40.2744 29.4383 39.9914 28.9854 39.9912C28.6388 39.9914 28.1834 40.2285 28.3535 40.6191C28.4208 40.753 28.6198 40.8514 29.0908 40.9521C29.9102 41.1289 30.289 41.3918 30.2891 41.9043C30.2888 42.4513 29.7999 42.8495 29.001 42.8496C28.1194 42.8496 27.6348 42.337 27.6348 41.8066H28.209C28.2334 42.2497 28.6472 42.4023 29.001 42.4023C29.474 42.4023 29.7195 42.2086 29.7197 41.9453C29.7196 41.7087 29.6108 41.5183 28.9512 41.3945C28.4038 41.2841 28.0008 41.1183 27.832 40.8203C27.4222 40.095 28.3401 39.5432 28.9854 39.543Z" fill="#1C1D1F"/>
<path fill-rule="evenodd" clip-rule="evenodd" d="M32.3496 39.543C33.4511 39.5432 33.7217 40.4637 33.7217 41.3506H31.4658C31.4815 41.936 31.8516 42.4053 32.4541 42.4053C32.8568 42.4053 33.1234 42.2348 33.333 41.9717L33.6787 42.2344C33.4637 42.5455 33.0873 42.8496 32.4229 42.8496C31.462 42.8494 30.8917 42.0834 30.8916 41.1855C30.8916 40.1416 31.603 39.543 32.3496 39.543ZM32.3496 39.9912C31.9009 39.9912 31.5602 40.3146 31.4824 40.9053H33.1514C33.1514 40.4261 32.8736 39.9914 32.3496 39.9912Z" fill="#1C1D1F"/>
<path fill-rule="evenodd" clip-rule="evenodd" d="M14.9717 38.5C15.891 38.5001 16.4365 38.8431 16.4365 39.6436C16.4365 40.0374 16.1821 40.3617 15.7725 40.5312C16.273 40.6584 16.5557 41.0697 16.5557 41.5537C16.5554 42.3473 15.9787 42.7909 15.0732 42.791H13.5V38.5H14.9717ZM14.0957 42.3291H15.0732C15.6471 42.329 15.9637 42.0246 15.9639 41.5596C15.9639 41.0823 15.7047 40.7842 15.1006 40.7842H14.0957V42.3291ZM14.0957 40.3271H14.9893C15.1599 40.3271 15.3101 40.3001 15.4375 40.2451C15.6949 40.1339 15.8408 39.9211 15.8408 39.6377C15.8408 39.1661 15.5657 38.9659 14.9717 38.9658H14.0957V40.3271Z" fill="#1C1D1F"/>
<path d="M18.708 39.543C18.7899 39.543 18.9197 39.5653 18.9609 39.585L18.959 40.0918C18.8668 40.0726 18.7896 40.0684 18.6807 40.0684C18.4178 40.0684 18.2159 40.1507 18.0762 40.292C18.0111 40.3579 17.959 40.4366 17.9189 40.5264V42.791H17.3486V39.6025H17.9043L17.9141 39.9688C17.9155 39.9665 17.9175 39.9641 17.9189 39.9619C18.089 39.6962 18.3497 39.5431 18.708 39.543Z" fill="#1C1D1F"/>
<path d="M23.9521 41.9824L24.7305 39.6025H25.1895L25.9795 42.0332L26.624 39.6025H27.1914L26.2227 42.791H25.7607L24.9492 40.377L24.1602 42.791H23.6943L22.7266 39.6025H23.2969L23.9521 41.9824Z" fill="#1C1D1F"/>
<path d="M35.7471 39.543C35.829 39.543 35.9588 39.5653 36 39.585L35.9971 40.0918C35.905 40.0727 35.8286 40.0684 35.7197 40.0684C35.3341 40.0684 35.0842 40.2438 34.958 40.5264V42.791H34.3877V39.6025H34.9424L34.958 39.9619C35.1281 39.6962 35.3887 39.543 35.7471 39.543Z" fill="#1C1D1F"/>
<path d="M13.8389 32.7715C14.598 32.7715 15.0459 33.2134 15.0459 33.7617H14.5039C14.5039 33.4985 14.27 33.2168 13.8389 33.2168C13.3971 33.2168 13.209 33.4442 13.209 33.6826C13.209 33.9114 13.3362 34.0372 13.9385 34.1719C14.7171 34.3476 15.0781 34.6078 15.0781 35.1182C15.0781 35.6622 14.6139 36.0586 13.8535 36.0586C13.0159 36.0586 12.5557 35.5489 12.5557 35.0215H13.1006C13.1238 35.4622 13.5171 35.6133 13.8535 35.6133C14.3041 35.6133 14.5361 35.4212 14.5361 35.1592C14.5361 34.9236 14.4342 34.7345 13.8066 34.6113C13.115 34.4653 12.6641 34.2257 12.6641 33.6973C12.6641 33.1917 13.1326 32.7715 13.8389 32.7715Z" fill="#1C1D1F"/>
<path fill-rule="evenodd" clip-rule="evenodd" d="M22.2852 32.7715C22.9801 32.7715 23.4629 33.1239 23.4629 33.832C23.4629 34.4285 23.4017 35.0531 23.4893 35.6455C23.5086 35.7636 23.5742 35.8826 23.5742 36H23.0088C22.9731 35.9186 22.9476 35.788 22.9336 35.6592C22.7332 35.8704 22.4299 36.0586 22.0303 36.0586C21.3893 36.0586 20.958 35.6458 20.958 35.1182C20.958 34.4298 21.5232 34.0781 22.3848 34.0781H22.9209V33.8262C22.9209 33.4493 22.6913 33.208 22.2529 33.208C21.8487 33.208 21.5674 33.4417 21.5674 33.709H21.0254C21.0254 33.0875 21.7544 32.7715 22.2852 32.7715ZM22.4727 34.459C22.3184 34.459 22.1807 34.4717 22.0596 34.4971C21.6988 34.5668 21.5029 34.7483 21.5029 35.0449C21.5029 35.3444 21.7128 35.584 22.1094 35.584C22.4415 35.584 22.7709 35.4068 22.9209 35.1055V34.459H22.4727Z" fill="#1C1D1F"/>
<path d="M30.9863 32.7715C31.728 32.7715 32.2198 33.2619 32.249 33.9199H31.7334C31.7042 33.5304 31.4226 33.2168 30.9863 33.2168C30.2832 33.2168 30.1191 33.9045 30.1191 34.4766C30.1191 35.0341 30.3199 35.6133 30.9863 35.6133C31.3747 35.6133 31.7042 35.3524 31.7334 34.998H32.249C32.2202 35.5545 31.6651 36.0586 30.9863 36.0586C30.0407 36.0586 29.5771 35.3286 29.5771 34.4766C29.5771 33.5988 30.001 32.7715 30.9863 32.7715Z" fill="#1C1D1F"/>
<path d="M34.127 32.7715C34.8682 32.7715 35.3605 33.2617 35.3896 33.9199H34.874C34.8451 33.5305 34.5633 33.2168 34.127 33.2168C33.4822 33.2168 33.2598 33.7826 33.2598 34.3535C33.2598 34.9304 33.4175 35.6133 34.127 35.6133C34.5155 35.6133 34.8452 35.3523 34.874 34.998H35.3896C35.3568 35.6321 34.7205 36.0586 34.127 36.0586C33.1811 36.0586 32.7178 35.2364 32.7178 34.3535C32.7178 33.4892 33.1865 32.7715 34.127 32.7715Z" fill="#1C1D1F"/>
<path fill-rule="evenodd" clip-rule="evenodd" d="M37.2441 32.7715C38.2976 32.7715 38.5479 33.6941 38.5479 34.5674H36.4043C36.419 35.1496 36.7708 35.6162 37.3438 35.6162C37.7265 35.6162 37.9795 35.4473 38.1787 35.1855L38.5068 35.4463C38.3028 35.7555 37.946 36.0586 37.3145 36.0586C36.3586 36.0586 35.8584 35.293 35.8584 34.4033C35.8584 33.3659 36.5349 32.7715 37.2441 32.7715ZM37.2441 33.2168C36.8177 33.2168 36.4938 33.5379 36.4199 34.125H38.0059C38.0059 33.6535 37.7454 33.2168 37.2441 33.2168Z" fill="#1C1D1F"/>
<path d="M40.3291 32.7715C41.0885 32.7715 41.5361 33.2135 41.5361 33.7617H40.9941C40.9941 33.4986 40.7605 33.2168 40.3291 33.2168C39.8873 33.2168 39.6992 33.4442 39.6992 33.6826C39.6992 33.9116 39.8272 34.0373 40.4287 34.1719C41.2079 34.3476 41.5684 34.608 41.5684 35.1182C41.5684 35.6623 41.1036 36.0586 40.3438 36.0586C39.5057 36.0586 39.0459 35.5488 39.0459 35.0215H39.5908C39.614 35.4624 40.0073 35.6133 40.3438 35.6133C40.7941 35.6133 41.0264 35.4213 41.0264 35.1592C41.0264 34.9236 40.9245 34.7344 40.2969 34.6113C39.6049 34.4653 39.1543 34.2258 39.1543 33.6973C39.1543 33.1913 39.6238 32.7715 40.3291 32.7715Z" fill="#1C1D1F"/>
<path d="M43.4287 32.7715C44.1881 32.7715 44.6357 33.2135 44.6357 33.7617H44.0938C44.0938 33.4986 43.8601 33.2168 43.4287 33.2168C42.9868 33.2168 42.7988 33.4444 42.7988 33.6826C42.7988 33.9113 42.926 34.0371 43.5283 34.1719C44.3079 34.3477 44.668 34.6082 44.668 35.1182C44.668 35.6627 44.2028 36.0586 43.4434 36.0586C42.6053 36.0586 42.1455 35.5488 42.1455 35.0215H42.6904C42.7136 35.4624 43.1069 35.6133 43.4434 35.6133C43.8937 35.6133 44.126 35.4213 44.126 35.1592C44.126 34.9236 44.0241 34.7344 43.3965 34.6113C42.7045 34.4653 42.2539 34.2258 42.2539 33.6973C42.2539 33.1912 42.7236 32.7715 43.4287 32.7715Z" fill="#1C1D1F"/>
<path fill-rule="evenodd" clip-rule="evenodd" d="M7.06836 31.7344C8.0326 31.7344 8.56542 32.2753 8.56543 33.0352C8.56543 33.8543 8.03734 34.3271 7.06836 34.3271H6.06055V36H5.49512V31.7344H7.06836ZM6.06055 33.8672H7.06836C7.73184 33.8672 7.99999 33.5196 8 33.041C8 32.6023 7.72899 32.1973 7.06836 32.1973H6.06055V33.8672Z" fill="#1C1D1F"/>
<path d="M10.4902 32.7715C10.5682 32.7715 10.6911 32.7928 10.7305 32.8125L10.7275 33.3164C10.6398 33.2973 10.5677 33.293 10.4639 33.293C10.0968 33.293 9.85999 33.468 9.74023 33.75V36H9.19824V32.8301H9.72559L9.73535 33.1943C9.89873 32.9273 10.1467 32.7715 10.4902 32.7715Z" fill="#1C1D1F"/>
<path d="M11.8203 36H11.2754V32.8301H11.8203V36Z" fill="#1C1D1F"/>
<path d="M16.3154 33.1768C16.6349 32.7943 17.1983 32.6768 17.6621 32.8359C17.8812 32.908 18.0524 33.0541 18.1592 33.2783C18.1831 33.2438 18.2092 33.2109 18.2363 33.1787C18.4519 32.9281 18.7666 32.7715 19.168 32.7715C19.8546 32.7715 20.2314 33.1226 20.2314 33.917V36H19.6865V33.9111C19.6865 33.3777 19.4276 33.2285 19.0098 33.2285C18.654 33.2285 18.419 33.4249 18.3184 33.7031C18.2952 33.7711 18.2833 33.8426 18.2773 33.917V36H17.7354V33.9141C17.7353 33.748 17.707 33.6152 17.6504 33.5156C17.5407 33.3159 17.3312 33.2285 17.0586 33.2285C16.7383 33.2285 16.5284 33.3484 16.3994 33.5479C16.3727 33.5892 16.3498 33.6334 16.3291 33.6797V36H15.7842V32.8301H16.2998L16.3154 33.1768Z" fill="#1C1D1F"/>
<path fill-rule="evenodd" clip-rule="evenodd" d="M29.2285 36H28.6484L28.2422 34.8838H26.458L26.0527 36H25.4756L27.1016 31.7344H27.5967L29.2285 36ZM26.626 34.4209H28.0732L27.3486 32.4297L26.626 34.4209Z" fill="#1C1D1F"/>
<path d="M11.5537 31.6758C11.7624 31.6758 11.876 31.8149 11.876 31.9893C11.876 32.1541 11.7644 32.2939 11.5537 32.2939C11.3424 32.2939 11.2344 32.1568 11.2344 31.9893C11.2344 31.8121 11.3444 31.6758 11.5537 31.6758Z" fill="#1C1D1F"/>
</svg>
