<svg width="50" height="50" viewBox="0 0 50 50" fill="none" xmlns="http://www.w3.org/2000/svg">
<path fill-rule="evenodd" clip-rule="evenodd" d="M26.2315 5.70208C22.7765 6.13738 19.9103 7.48644 17.5719 9.77798C15.0716 12.2281 13.6696 15.1333 13.2446 18.7448C13.1979 19.1417 13.1749 21.0947 13.2153 21.2376C13.2318 21.2964 13.2611 21.5167 13.2803 21.7269C13.8257 27.7089 18.5378 32.9212 24.628 34.2796C25.6053 34.4975 27.5046 34.7033 27.7694 34.62L27.8349 34.5993V28.4069L28.3514 28.3703C32.7914 28.0562 36.1204 24.5288 36.1943 20.06C36.1994 19.754 36.0989 18.9097 36.0015 18.439C35.434 15.6974 33.4527 13.3787 30.8259 12.3822C30.4317 12.2326 29.9786 12.0912 29.7621 12.0501C29.7112 12.0404 29.5725 12.0115 29.4538 11.9857C29.1486 11.9196 28.5753 11.8479 28.3499 11.8476C28.2447 11.8474 28.0858 11.8386 27.9968 11.828L27.8349 11.8087V5.63892L27.2567 5.64236C26.8982 5.6445 26.5088 5.66721 26.2315 5.70208ZM27.8041 20.1041C27.8041 24.645 27.7931 28.3671 27.7798 28.3752C27.7664 28.3834 27.5479 28.3768 27.2941 28.3606C23.699 28.1308 20.641 25.6274 19.7438 22.1797C18.4589 17.2422 21.9197 12.3671 27.064 11.868C27.1234 11.8623 27.3142 11.8554 27.488 11.8527L27.8041 11.8478V20.1041Z" fill="#05CC64"/>
<path d="M19.3066 38.793C20.553 38.793 21.8115 39.6042 21.8115 40.9414H20.874C20.874 40.1326 20.3628 39.5645 19.3066 39.5645C18.3036 39.5645 17.832 40.049 17.832 40.7168C17.832 41.3178 18.3425 41.6851 19.4971 42.0059C21.1094 42.4609 21.8311 43.081 21.8311 44.1934C21.8311 45.3485 20.8624 46.0977 19.3506 46.0977C18.0878 46.0977 16.665 45.3613 16.665 43.9395H17.6025C17.6025 44.9146 18.4492 45.3311 19.3506 45.3311C20.3399 45.3311 20.8838 44.8923 20.8838 44.2031C20.8838 43.5396 20.5541 43.2222 19.1943 42.8262C17.7835 42.4082 16.8896 41.8321 16.8896 40.7266C16.8896 39.6105 17.8603 38.793 19.3066 38.793Z" fill="black"/>
<path d="M13.1445 41.6152L14.8535 38.8906H15.9521L13.7061 42.4111L16.0059 46H14.8975L13.1445 43.2217L11.3916 46H10.2832L12.583 42.4111L10.3369 38.8906H11.4355L13.1445 41.6152Z" fill="black"/>
<path d="M24.043 46H23.1006V38.8906H24.043V46Z" fill="black"/>
<path fill-rule="evenodd" clip-rule="evenodd" d="M31.416 46H30.4492L29.7725 44.1396H26.7988L26.123 46H25.1611L27.8711 38.8906H28.6963L31.416 46ZM27.0791 43.3682H29.4912L28.2832 40.0508L27.0791 43.3682Z" fill="black"/>
<path d="M35.9082 44.6865L38.2324 38.8906H39.4434V46H38.5059L38.5957 40.2529L36.2598 46H35.5469L33.2148 40.2451L33.3057 46H32.3682V38.8906H33.5791L35.9082 44.6865Z" fill="black"/>
</svg>
