<svg width="50" height="50" viewBox="0 0 50 50" fill="none" xmlns="http://www.w3.org/2000/svg">
<rect width="50" height="50" fill="#05CC64"/>
<path fill-rule="evenodd" clip-rule="evenodd" d="M26.6645 7.06098C23.3598 7.48128 20.6182 8.78381 18.3815 10.9963C15.9898 13.362 14.6488 16.167 14.2423 19.654C14.1977 20.0372 14.1756 21.9228 14.2142 22.0608C14.2301 22.1176 14.2581 22.3302 14.2765 22.5333C14.7982 28.309 19.3053 33.3416 25.1308 34.653C26.0656 34.8635 27.8823 35.0622 28.1356 34.9817L28.1982 34.9618V28.9829L28.6923 28.9476C32.9392 28.6443 36.1235 25.2385 36.1942 20.9238C36.199 20.6284 36.1029 19.8132 36.0097 19.3587C35.467 16.7117 33.5718 14.4729 31.0592 13.5108C30.6821 13.3663 30.2487 13.2298 30.0417 13.1901C29.993 13.1807 29.8603 13.1528 29.7467 13.128C29.4548 13.0641 28.9065 12.9948 28.6908 12.9945C28.5902 12.9944 28.4382 12.9859 28.3531 12.9757L28.1982 12.957V7L27.6452 7.00332C27.3023 7.00539 26.9297 7.02732 26.6645 7.06098ZM28.1687 20.9663C28.1687 25.3507 28.1583 28.9444 28.1455 28.9523C28.1328 28.9602 27.9237 28.9539 27.681 28.9382C24.2421 28.7163 21.3171 26.2993 20.4589 22.9704C19.2299 18.2032 22.5402 13.4962 27.4609 13.0143C27.5176 13.0088 27.7001 13.0021 27.8664 12.9995L28.1687 12.9948V20.9663Z" fill="white"/>
<path d="M19.9731 40.6827L18.3134 38H17.2465L19.4277 41.4663L17.1943 45H18.2707L19.9731 42.2644L21.6754 45H22.7518L20.5184 41.4663L22.6996 38H21.6327L19.9731 40.6827Z" fill="white"/>
<path fill-rule="evenodd" clip-rule="evenodd" d="M25.6775 45H23.8092V38H25.7628C26.2149 38 26.6274 38.0769 27.0004 38.2308C27.3735 38.3814 27.6943 38.601 27.963 38.8894C28.2349 39.1747 28.4435 39.5208 28.589 39.9279C28.7344 40.3317 28.8071 40.7869 28.8071 41.2933V41.7115C28.8071 42.2179 28.7344 42.6747 28.589 43.0817C28.4435 43.4856 28.2333 43.8301 27.9583 44.1154C27.6864 44.4006 27.3577 44.6202 26.972 44.774C26.5895 44.9247 26.158 45 25.6775 45ZM25.6775 44.2452H24.7244V38.7596H25.7628C26.1042 38.7596 26.4061 38.8157 26.6685 38.9279C26.9341 39.0401 27.1585 39.2051 27.3419 39.4231C27.5252 39.6378 27.6643 39.9022 27.7591 40.2163C27.854 40.5272 27.9014 40.883 27.9014 41.2837V41.7115C27.9014 42.2212 27.8176 42.6667 27.6501 43.0481C27.4857 43.4263 27.2391 43.7212 26.9104 43.9327C26.5816 44.141 26.1706 44.2452 25.6775 44.2452Z" fill="white"/>
<path fill-rule="evenodd" clip-rule="evenodd" d="M30.1822 38H32.4678C32.9862 38 33.4241 38.0801 33.7813 38.2404C34.1416 38.4006 34.4151 38.6378 34.6016 38.9519C34.7913 39.2628 34.8861 39.6458 34.8861 40.101C34.8861 40.4215 34.8213 40.7147 34.6917 40.9808C34.5653 41.2436 34.3819 41.4679 34.1416 41.6538C33.9753 41.782 33.7856 41.8873 33.5726 41.9698L35.1943 44.9423V45H34.2175L32.7169 42.1635H31.0974V45H30.1822V38ZM32.4962 41.4087H31.0974V38.7596H32.4678C32.8187 38.7596 33.1048 38.8157 33.3261 38.9279C33.5505 39.0369 33.7149 39.1923 33.8192 39.3942C33.9235 39.5962 33.9757 39.8317 33.9757 40.101C33.9757 40.3413 33.9204 40.5609 33.8097 40.7596C33.6991 40.9583 33.5347 41.117 33.3166 41.2356C33.0984 41.351 32.825 41.4087 32.4962 41.4087Z" fill="white"/>
</svg>
