<svg width="50" height="50" viewBox="0 0 50 50" fill="none" xmlns="http://www.w3.org/2000/svg">
<path d="M23.6304 25.3575V11.9289L30.6937 25.3575H23.6223H23.6304ZM23.6304 11.9289L16.5591 25.3575H23.6304V35L9 20.5L23.6304 6V11.9289ZM41 20.8383L35.8387 16.6656V19.3964L37.5781 20.8464L35.8387 22.2319V25.0192L41 20.8383ZM32.4168 16.6656V25.0192L35.8306 22.2319V19.3964L32.4168 16.6656Z" fill="#00C0E8"/>
<path fill-rule="evenodd" clip-rule="evenodd" d="M26.4082 39.6191C27.0742 39.6191 27.568 39.8564 27.9121 40.2979C27.9143 40.3006 27.9158 40.3039 27.918 40.3066L27.9609 39.7168H28.7812V44.8877C28.7812 46.2824 27.8666 47.085 26.5449 47.085C25.8166 47.085 25.0152 46.7789 24.5869 46.167L25.0605 45.6299C25.5058 46.1668 26.004 46.3428 26.4766 46.3428C27.3344 46.3428 27.8779 45.8529 27.8779 44.9316V44.4619C27.535 44.8716 27.0499 45.0977 26.3984 45.0977C24.9632 45.0977 24.3232 43.6604 24.3232 42.417C24.3232 41.1399 24.9076 39.6191 26.4082 39.6191ZM26.6279 40.3809C25.5398 40.3809 25.2266 41.5273 25.2266 42.417C25.2266 43.4765 25.6406 44.3311 26.6182 44.3311C27.1929 44.3311 27.6235 44.0352 27.8779 43.5342V41.1494C27.6501 40.7057 27.2581 40.3809 26.6279 40.3809Z" fill="black"/>
<path d="M18.8545 39.6191C19.8272 39.6191 20.8662 40.1736 20.8662 41.2695H19.9629C19.9629 40.6859 19.3726 40.3613 18.8545 40.3613C18.118 40.3613 17.8047 40.7405 17.8047 41.1377C17.8047 41.5193 18.0172 41.7287 19.0205 41.9531C20.3193 42.2461 20.9199 42.6807 20.9199 43.5303C20.9199 44.6214 19.8209 45.0977 18.8789 45.0977C17.864 45.0977 16.7158 44.5039 16.7158 43.3691H17.624C17.6591 44.0357 18.2565 44.3555 18.8789 44.3555C19.6295 44.3555 20.0166 44.0356 20.0166 43.5986C20.0166 43.2059 19.8465 42.8908 18.8008 42.6855C17.647 42.442 16.8965 42.0429 16.8965 41.1621C16.8965 40.1529 17.9543 39.6191 18.8545 39.6191Z" fill="black"/>
<path d="M36.8867 39.7168H37.873V40.4102H36.8867V43.6914C36.8867 44.0495 37.0088 44.2188 37.1846 44.2773C37.4146 44.354 37.6617 44.316 37.8926 44.2627L37.8975 45C37.4812 45.1325 36.989 45.1553 36.5889 44.9658C36.2167 44.7895 35.9834 44.3876 35.9834 43.6865V40.4102H35.0166V39.7168H35.9834V38.4326H36.8867V39.7168Z" fill="black"/>
<path d="M9.83594 45H8.89355V37.8906H9.83594V45Z" fill="black"/>
<path d="M13.874 39.6191C14.9144 39.6191 15.5684 40.1379 15.5684 41.5381V45H14.6602V41.5283C14.6602 40.6872 14.2818 40.3809 13.6055 40.3809C13.0301 40.3809 12.5724 40.7216 12.3164 41.2324V45H11.4131V39.7168H12.2676L12.2959 40.377C12.6771 39.8954 13.223 39.6191 13.874 39.6191Z" fill="black"/>
<path d="M23.0879 45H22.1797V39.7168H23.0879V45Z" fill="black"/>
<path d="M31.0566 40.3496C31.06 40.3455 31.063 40.341 31.0664 40.3369C31.4469 39.8778 31.981 39.6191 32.6143 39.6191C33.7857 39.6191 34.3086 40.4763 34.3086 41.5381V45H33.4004V41.5283C33.4004 40.6872 33.022 40.3809 32.3457 40.3809C31.7704 40.3809 31.3126 40.7216 31.0566 41.2324V45H30.1533V37.5H31.0566V40.3496Z" fill="black"/>
<path d="M22.6436 37.793C22.9914 37.793 23.1807 38.0248 23.1807 38.3154C23.1807 38.5907 22.9945 38.8232 22.6436 38.8232C22.2917 38.8232 22.1113 38.5951 22.1113 38.3154C22.1113 38.0201 22.2948 37.793 22.6436 37.793Z" fill="black"/>
<path d="M40.6387 39.6191C41.6114 39.6191 42.6504 40.1736 42.6504 41.2695H41.7471C41.7471 40.6859 41.1568 40.3613 40.6387 40.3613C39.9022 40.3613 39.5889 40.7405 39.5889 41.1377C39.5889 41.5193 39.8013 41.7287 40.8047 41.9531C42.1035 42.2461 42.7041 42.6807 42.7041 43.5303C42.7041 44.6214 41.6051 45.0977 40.6631 45.0977C39.6482 45.0977 38.5 44.5039 38.5 43.3691H39.4082C39.4433 44.0357 40.0407 44.3555 40.6631 44.3555C41.4137 44.3555 41.8008 44.0356 41.8008 43.5986C41.8008 43.2059 41.6307 42.8908 40.585 42.6855C39.4312 42.442 38.6807 42.0429 38.6807 41.1621C38.6807 40.1529 39.7385 39.6191 40.6387 39.6191Z" fill="black"/>
</svg>
