<svg width="50" height="50" viewBox="0 0 50 50" fill="none" xmlns="http://www.w3.org/2000/svg">
<rect width="50" height="50" fill="#05CC64"/>
<path fill-rule="evenodd" clip-rule="evenodd" d="M26.0529 8.68876C23.1988 9.03401 20.8311 10.1039 18.8994 11.9214C16.8339 13.8646 15.6757 16.1687 15.3247 19.033C15.2861 19.3478 15.267 20.8967 15.3004 21.01C15.3141 21.0567 15.3383 21.2314 15.3541 21.3981C15.8047 26.1425 19.6972 30.2764 24.7283 31.3537C25.5356 31.5266 27.1046 31.6897 27.3234 31.6236L27.3775 31.6073V26.696L27.8041 26.667C31.472 26.4179 34.222 23.6203 34.283 20.0761C34.2873 19.8334 34.2043 19.1638 34.1238 18.7904C33.655 16.6161 32.0183 14.7772 29.8483 13.9868C29.5227 13.8682 29.1483 13.756 28.9695 13.7234C28.9275 13.7157 28.8129 13.6928 28.7148 13.6723C28.4627 13.6199 27.9891 13.563 27.8029 13.5628C27.716 13.5626 27.5848 13.5557 27.5112 13.5472L27.3775 13.532V8.63867L26.8999 8.6414C26.6037 8.6431 26.282 8.66111 26.0529 8.68876ZM27.352 20.111C27.352 23.7125 27.343 26.6644 27.332 26.6709C27.3209 26.6774 27.1404 26.6722 26.9308 26.6593C23.9608 26.477 21.4347 24.4916 20.6935 21.7572C19.6321 17.8413 22.491 13.9748 26.7407 13.579C26.7897 13.5745 26.9473 13.569 27.0909 13.5668L27.352 13.5629V20.111Z" fill="white"/>
<path d="M20.7743 40.0825C20.7743 39.9462 20.7534 39.8258 20.7117 39.7216C20.6726 39.6146 20.6022 39.5184 20.5005 39.4328C20.4014 39.3472 20.2632 39.2657 20.0859 39.1881C19.9112 39.1106 19.6896 39.0317 19.421 38.9515C19.1394 38.8659 18.8852 38.771 18.6584 38.6667C18.4315 38.5598 18.2373 38.4381 18.0756 38.3018C17.9139 38.1654 17.7901 38.009 17.704 37.8325C17.618 37.6561 17.575 37.4542 17.575 37.2269C17.575 36.9996 17.6206 36.7897 17.7119 36.5972C17.8031 36.4047 17.9335 36.2376 18.103 36.0959C18.2751 35.9515 18.4798 35.8392 18.717 35.759C18.9543 35.6788 19.219 35.6387 19.511 35.6387C19.9386 35.6387 20.301 35.7229 20.5983 35.8913C20.8981 36.0571 21.1263 36.275 21.2827 36.5451C21.4392 36.8125 21.5174 37.0986 21.5174 37.4034H20.7665C20.7665 37.1841 20.7208 36.9903 20.6296 36.8218C20.5383 36.6507 20.4001 36.517 20.215 36.4208C20.0299 36.3218 19.7952 36.2724 19.511 36.2724C19.2424 36.2724 19.0208 36.3138 18.8461 36.3967C18.6714 36.4796 18.541 36.5919 18.455 36.7336C18.3715 36.8753 18.3298 37.0371 18.3298 37.2189C18.3298 37.3419 18.3546 37.4542 18.4041 37.5558C18.4563 37.6547 18.5358 37.747 18.6427 37.8325C18.7522 37.9181 18.8904 37.997 19.0573 38.0692C19.2268 38.1413 19.4289 38.2109 19.6635 38.2777C19.9868 38.3713 20.2658 38.4756 20.5005 38.5905C20.7352 38.7055 20.9281 38.8352 21.0794 38.9796C21.2332 39.1213 21.3466 39.2831 21.4196 39.4649C21.4952 39.644 21.533 39.8472 21.533 40.0745C21.533 40.3125 21.4861 40.5277 21.3922 40.7202C21.2984 40.9127 21.1641 41.0772 20.9894 41.2135C20.8147 41.3499 20.6048 41.4555 20.3597 41.5304C20.1172 41.6026 19.846 41.6387 19.5462 41.6387C19.2828 41.6387 19.0234 41.6012 18.7679 41.5264C18.515 41.4515 18.2842 41.3392 18.0756 41.1895C17.8696 41.0397 17.704 40.8552 17.5789 40.636C17.4563 40.4141 17.3951 40.1574 17.3951 39.8659H18.146C18.146 40.0665 18.1838 40.2389 18.2594 40.3833C18.335 40.525 18.438 40.6427 18.5684 40.7363C18.7014 40.8298 18.8513 40.8994 19.0182 40.9448C19.1877 40.9876 19.3637 41.009 19.5462 41.009C19.8095 41.009 20.0325 40.9716 20.215 40.8967C20.3975 40.8218 20.5357 40.7149 20.6296 40.5758C20.726 40.4368 20.7743 40.2724 20.7743 40.0825Z" fill="white"/>
<path fill-rule="evenodd" clip-rule="evenodd" d="M26.8796 38.8232V38.4542C26.8796 38.0157 26.8248 37.624 26.7153 37.279C26.6084 36.9315 26.4533 36.636 26.2499 36.3927C26.0491 36.1467 25.8079 35.9595 25.5263 35.8312C25.2473 35.7028 24.9344 35.6387 24.5876 35.6387C24.2513 35.6387 23.9423 35.7028 23.6607 35.8312C23.3817 35.9595 23.1405 36.1467 22.9371 36.3927C22.7338 36.636 22.576 36.9315 22.4639 37.279C22.3544 37.624 22.2996 38.0157 22.2996 38.4542V38.8232C22.2996 39.2617 22.3557 39.6547 22.4678 40.0023C22.5799 40.3499 22.7377 40.6454 22.9411 40.8887C23.147 41.132 23.3895 41.3178 23.6685 41.4462C23.9501 41.5745 24.2591 41.6387 24.5955 41.6387C24.9423 41.6387 25.2551 41.5745 25.5341 41.4462C25.8157 41.3178 26.0569 41.132 26.2577 40.8887C26.4585 40.6454 26.6123 40.3499 26.7192 40.0023C26.8261 39.6547 26.8796 39.2617 26.8796 38.8232ZM26.1325 38.4462V38.8232C26.1325 39.1734 26.0986 39.4836 26.0309 39.7536C25.9631 40.021 25.8627 40.247 25.7297 40.4315C25.5993 40.6133 25.439 40.751 25.2486 40.8446C25.0583 40.9381 24.8406 40.9849 24.5955 40.9849C24.3608 40.9849 24.1483 40.9381 23.958 40.8446C23.7702 40.751 23.6073 40.6133 23.4691 40.4315C23.3335 40.247 23.2292 40.021 23.1562 39.7536C23.0832 39.4836 23.0467 39.1734 23.0467 38.8232V38.4462C23.0467 38.0986 23.0832 37.7911 23.1562 37.5237C23.2292 37.2563 23.3322 37.0317 23.4651 36.8499C23.6007 36.6681 23.7624 36.5304 23.9501 36.4368C24.1405 36.3432 24.353 36.2964 24.5876 36.2964C24.8301 36.2964 25.0466 36.3432 25.2369 36.4368C25.4298 36.5304 25.5928 36.6681 25.7258 36.8499C25.8588 37.0317 25.9592 37.2563 26.0269 37.5237C26.0973 37.7911 26.1325 38.0986 26.1325 38.4462Z" fill="white"/>
<path fill-rule="evenodd" clip-rule="evenodd" d="M30.208 35.7189H29.547L27.3763 41.5585H28.1468L28.688 40.0304H31.0697L31.6121 41.5585H32.3865L30.208 35.7189ZM30.8447 39.3967H28.9125L29.8776 36.672L30.8447 39.3967Z" fill="white"/>
<path fill-rule="evenodd" clip-rule="evenodd" d="M33.1491 35.7189H35.0343C35.4619 35.7189 35.823 35.7857 36.1177 35.9194C36.4149 36.0531 36.6405 36.251 36.7943 36.513C36.9508 36.7724 37.029 37.0919 37.029 37.4716C37.029 37.7389 36.9755 37.9836 36.8686 38.2055C36.7643 38.4248 36.6131 38.6119 36.4149 38.767C36.2777 38.8739 36.1213 38.9618 35.9455 39.0306L37.2832 41.5103V41.5585H36.4775L35.2398 39.1921H33.904V41.5585H33.1491V35.7189ZM35.0578 38.5625H33.904V36.3526H35.0343C35.3237 36.3526 35.5597 36.3994 35.7422 36.4929C35.9273 36.5839 36.0629 36.7135 36.149 36.882C36.235 37.0504 36.278 37.247 36.278 37.4716C36.278 37.6721 36.2324 37.8552 36.1412 38.021C36.0499 38.1868 35.9143 38.3192 35.7344 38.4181C35.5545 38.5143 35.3289 38.5625 35.0578 38.5625Z" fill="white"/>
<path d="M14.5751 37.9569L13.2062 35.7189H12.3262L14.1253 38.6106L12.2832 41.5585H13.171L14.5751 39.2764L15.9792 41.5585H16.8671L15.0249 38.6106L16.824 35.7189H15.944L14.5751 37.9569Z" fill="white"/>
</svg>
