<svg width="50" height="50" viewBox="0 0 50 50" fill="none" xmlns="http://www.w3.org/2000/svg">
<path d="M35.9964 18.8011C35.3212 18.9308 34.9551 19.3122 34.8756 19.9751C34.8352 20.3134 34.7537 20.6463 34.7056 20.9839C34.6129 21.6362 35.1231 22.0723 35.7548 21.8886L35.9964 21.8173V26.4644C35.9964 28.2934 34.8461 29.6706 33.0498 29.9867C32.9176 30.0057 32.7839 30.0132 32.6503 30.0092C27.5484 30.0092 22.4475 30.0092 17.3475 30.0092C15.6818 30.0092 14.1953 28.6578 14.0346 26.999C14.0131 26.7778 14.0015 26.5546 14.0015 26.3325C13.9995 21.3825 13.9995 16.4325 14.0015 11.4824C14.0015 9.53542 15.5234 8.01059 17.4708 8.01025C22.4974 8.01025 27.5241 8.01025 32.5509 8.01025C34.4724 8.01025 36 9.53873 36 11.4562C36 13.8196 36 16.1832 36 18.5468L35.9964 18.8011ZM23.93 26.8929C23.9333 27.514 24.3938 27.8722 24.9166 27.7505C25.4576 27.6245 25.7614 27.2547 25.8744 26.6054C26.4208 23.462 26.9683 20.3188 27.5169 17.1758C27.5908 16.7523 27.6663 16.3288 27.7402 15.9054C27.8578 15.2318 27.3132 14.7513 26.6635 14.9655C26.1921 15.1207 25.9191 15.4543 25.8353 15.9465C25.2807 19.1354 24.7252 22.3243 24.1689 25.513C24.0817 26.0031 23.9976 26.4933 23.9313 26.8936L23.93 26.8929ZM31.1943 14.7649C31.1992 14.1829 30.8428 13.8403 30.3452 13.8622C29.8399 13.8847 29.3712 14.2933 29.2721 14.8063C29.2058 15.1486 29.1522 15.4931 29.0919 15.8364C28.7546 17.7651 28.4173 19.6937 28.0798 21.622C28.0046 22.0531 27.9264 22.4842 27.8558 22.9153C27.7485 23.57 28.1871 24.0037 28.8384 23.8933C29.282 23.818 29.6743 23.442 29.7624 22.9783C29.8883 22.3151 29.9996 21.6518 30.1159 20.9886C30.3955 19.3901 30.6747 17.7917 30.9534 16.1932C31.0409 15.6895 31.1237 15.1847 31.1943 14.7649ZM21.2886 28.7991C21.8495 28.7991 22.3103 28.3892 22.415 27.7943C22.6663 26.3535 22.9174 24.9122 23.168 23.4705C23.3844 22.2265 23.603 20.9833 23.815 19.738C23.9201 19.1225 23.441 18.6638 22.8351 18.8094C22.3458 18.9265 22.0175 19.2366 21.9277 19.74C21.5517 21.8501 21.1866 23.9626 20.8178 26.0741C20.7185 26.6435 20.6224 27.2139 20.5197 27.7827C20.4107 28.3733 20.7307 28.7988 21.2886 28.7991ZM31.446 21.0721C31.4305 21.6359 31.7628 21.9745 32.2554 21.9675C32.8014 21.9592 33.2761 21.5033 33.3709 20.9123C33.4752 20.2623 33.5938 19.6143 33.7051 18.9653C33.834 18.2145 33.9801 17.4657 34.0835 16.7102C34.1636 16.1249 33.6733 15.7153 33.0979 15.848C32.5936 15.9644 32.259 16.3477 32.1683 16.8903C32.0311 17.7084 31.8847 18.5252 31.7432 19.3444C31.6392 19.9449 31.5368 20.5435 31.4457 21.0738L31.446 21.0721ZM20.2341 21.6157C20.2401 21.0363 19.9174 20.714 19.4301 20.7203C18.8937 20.7279 18.4143 21.1627 18.3202 21.7268C18.297 21.8654 18.2732 22.004 18.2497 22.1426C18.0303 23.4191 17.8051 24.6962 17.5944 25.973C17.5079 26.4969 17.9671 26.9314 18.4918 26.8475C19.0467 26.7586 19.4108 26.3832 19.5122 25.7962C19.6722 24.8676 19.8352 23.9427 19.9956 23.0158C20.0814 22.522 20.1645 22.0256 20.2338 21.6173L20.2341 21.6157ZM16.9874 21.6442C16.9964 21.0473 16.672 20.7203 16.1983 20.7209C15.706 20.7209 15.2206 21.0894 15.1117 21.5832C15.0096 22.0458 14.9331 22.5147 14.8658 22.9837C14.8118 23.3584 15.0679 23.7033 15.439 23.7988C15.9518 23.9315 16.5693 23.5866 16.7214 23.0268C16.8533 22.5373 16.9149 22.0269 16.9858 21.6462L16.9874 21.6442Z" fill="#006699"/>
<path d="M23.9313 26.8936C23.9999 26.4933 24.0834 26.0025 24.1689 25.513C24.7241 22.324 25.2796 19.1352 25.8353 15.9465C25.9207 15.4543 26.1937 15.1207 26.6635 14.9655C27.3132 14.7513 27.8562 15.2308 27.7402 15.9054C27.6663 16.3288 27.5908 16.7523 27.5169 17.1758C26.9683 20.3188 26.4208 23.462 25.8744 26.6054C25.7614 27.2547 25.4576 27.6245 24.9166 27.7505C24.3955 27.8722 23.9333 27.516 23.9313 26.8936Z" fill="#FBFCFD"/>
<path d="M31.1943 14.7649C31.1237 15.1847 31.0409 15.6894 30.9534 16.1915C30.6754 17.79 30.3962 19.3884 30.1159 20.9869C29.9996 21.6501 29.8883 22.316 29.7624 22.9766C29.6743 23.4409 29.282 23.8163 28.8384 23.8916C28.1865 24.002 27.7485 23.5683 27.8558 22.9136C27.9264 22.4825 28.0046 22.0514 28.0798 21.6203C28.4175 19.692 28.7548 17.7634 29.0919 15.8347C29.1522 15.4914 29.2062 15.1469 29.2721 14.8046C29.3715 14.2909 29.8399 13.883 30.3452 13.8605C30.8428 13.8409 31.1992 14.1839 31.1943 14.7649Z" fill="#BDD001"/>
<path d="M21.2886 28.7991C20.7307 28.7991 20.4106 28.3733 20.5176 27.783C20.621 27.2143 20.7164 26.6439 20.8158 26.0745C21.1845 23.963 21.5496 21.8505 21.9256 19.7403C22.0154 19.2369 22.3437 18.9268 22.833 18.8098C23.439 18.6645 23.918 19.1232 23.813 19.7383C23.601 20.9833 23.3823 22.2256 23.166 23.4708C22.9151 24.9125 22.6641 26.3538 22.413 27.7946C22.3099 28.3899 21.8495 28.7994 21.2886 28.7991Z" fill="#FBFDFD"/>
<path d="M31.4457 21.0738C31.5368 20.5432 31.6392 19.9462 31.7439 19.3463C31.8854 18.5289 32.0318 17.7121 32.169 16.8923C32.2598 16.3497 32.5944 15.9664 33.0986 15.85C33.674 15.7173 34.1644 16.1252 34.0842 16.7122C33.9808 17.4667 33.8347 18.2155 33.7058 18.9673C33.5945 19.6163 33.4759 20.2643 33.3716 20.9143C33.2768 21.5042 32.8021 21.9612 32.2561 21.9695C31.7625 21.9778 31.4301 21.6382 31.4457 21.0738Z" fill="#FCFDFD"/>
<path d="M20.2338 21.6173C20.1645 22.0256 20.0814 22.522 19.9953 23.0181C19.835 23.9467 19.672 24.8716 19.512 25.7985C19.4106 26.3842 19.0465 26.7603 18.4916 26.8498C17.9668 26.9337 17.5076 26.4993 17.5941 25.9753C17.8048 24.6972 18.0301 23.4217 18.2494 22.145C18.2729 22.0063 18.2968 21.8677 18.32 21.7291C18.414 21.1653 18.8934 20.7302 19.4298 20.7226C19.9171 20.7156 20.2397 21.038 20.2338 21.6173Z" fill="#FCFDFD"/>
<path d="M16.9858 21.6462C16.9149 22.0272 16.8532 22.5376 16.7207 23.0284C16.5686 23.5882 15.9511 23.9321 15.4383 23.8005C15.0672 23.7049 14.8111 23.3601 14.8651 22.9853C14.9314 22.5164 15.0089 22.0475 15.1109 21.5848C15.2199 21.0914 15.7053 20.7226 16.1976 20.7226C16.6703 20.7219 16.9947 21.0493 16.9858 21.6462Z" fill="#FBFDFD"/>
<path d="M24.8008 34.0103V42.0103H23.796L19.9996 35.8399V42.0103H19V34.0103H19.9996L23.8116 40.1971V34.0103H24.8008Z" fill="#7F8BA5"/>
<path d="M29.3534 38.8729H27.3386V38.0103H29.3534C29.7436 38.0103 30.0595 37.9443 30.3012 37.8125C30.5429 37.6806 30.719 37.4974 30.8295 37.263C30.9434 37.0286 31.0004 36.7612 31.0004 36.4608C31.0004 36.1861 30.9434 35.9278 30.8295 35.6861C30.719 35.4443 30.5429 35.2502 30.3012 35.1037C30.0595 34.9535 29.7436 34.8784 29.3534 34.8784H27.5717V42.0103H26.5721V34.0103H29.3534C29.9231 34.0103 30.4048 34.1146 30.7984 34.3234C31.192 34.5322 31.4907 34.8216 31.6944 35.1916C31.8981 35.5579 32 35.9773 32 36.4498C32 36.9626 31.8981 37.4004 31.6944 37.763C31.4907 38.1256 31.192 38.4022 30.7984 38.5927C30.4048 38.7795 29.9231 38.8729 29.3534 38.8729Z" fill="#7F8BA5"/>
</svg>
