<svg width="50" height="50" viewBox="0 0 50 50" fill="none" xmlns="http://www.w3.org/2000/svg">
<path d="M34.9967 17.8101C34.3829 17.9278 34.0501 18.2742 33.9778 18.8762C33.9411 19.1834 33.867 19.4858 33.8233 19.7924C33.739 20.3848 34.2028 20.7809 34.7771 20.614L34.9967 20.5492V24.7696C34.9967 26.4306 33.951 27.6814 32.318 27.9684C32.1978 27.9856 32.0763 27.9925 31.9548 27.9889C27.3167 27.9889 22.6795 27.9889 18.0432 27.9889C16.5289 27.9889 15.1775 26.7616 15.0315 25.2551C15.0119 25.0542 15.0014 24.8515 15.0014 24.6497C14.9995 20.1544 14.9995 15.659 15.0014 11.1634C15.0014 9.39524 16.385 8.01043 18.1553 8.01013C22.7249 8.01013 27.2946 8.01013 31.8645 8.01013C33.6113 8.01013 35 9.39825 35 11.1396C35 13.286 35 15.4325 35 17.5791L34.9967 17.8101ZM24.0273 25.1587C24.0303 25.7228 24.4489 26.0481 24.9242 25.9376C25.416 25.8231 25.6922 25.4873 25.7949 24.8976C26.2916 22.0429 26.7894 19.1883 27.2881 16.334C27.3553 15.9494 27.4239 15.5648 27.4911 15.1802C27.598 14.5685 27.1029 14.1321 26.5123 14.3267C26.0837 14.4676 25.8355 14.7706 25.7593 15.2175C25.2552 18.1136 24.7502 21.0096 24.2444 23.9055C24.1652 24.3507 24.0887 24.7958 24.0285 25.1593L24.0273 25.1587ZM30.6311 14.1445C30.6357 13.6159 30.3116 13.3048 29.8592 13.3247C29.3999 13.3451 28.9738 13.7162 28.8837 14.1821C28.8235 14.4929 28.7747 14.8058 28.7199 15.1176C28.4133 16.8692 28.1066 18.6206 27.7998 20.3719C27.7314 20.7634 27.6604 21.1549 27.5962 21.5464C27.4986 22.141 27.8974 22.5349 28.4895 22.4346C28.8928 22.3662 29.2494 22.0247 29.3295 21.6037C29.4439 21.0013 29.5451 20.399 29.6508 19.7966C29.905 18.3449 30.1588 16.8933 30.4122 15.4416C30.4917 14.9841 30.567 14.5257 30.6311 14.1445ZM21.626 26.8899C22.1359 26.8899 22.5548 26.5176 22.65 25.9773C22.8785 24.6688 23.1067 23.3599 23.3346 22.0506C23.5312 20.9209 23.73 19.7918 23.9228 18.6609C24.0182 18.1019 23.5827 17.6854 23.0319 17.8176C22.5871 17.9239 22.2886 18.2055 22.207 18.6627C21.8651 20.5791 21.5332 22.4975 21.198 24.4151C21.1077 24.9322 21.0203 25.4503 20.927 25.9668C20.8279 26.5032 21.1188 26.8896 21.626 26.8899ZM30.86 19.8725C30.8459 20.3845 31.148 20.692 31.5958 20.6857C32.0921 20.6781 32.5237 20.264 32.6099 19.7273C32.7047 19.137 32.8126 18.5485 32.9138 17.9591C33.0309 17.2773 33.1637 16.5972 33.2577 15.9112C33.3306 15.3796 32.8848 15.0076 32.3617 15.1281C31.9033 15.2338 31.5991 15.582 31.5166 16.0747C31.3919 16.8177 31.2588 17.5595 31.1302 18.3034C31.0356 18.8488 30.9426 19.3924 30.8597 19.874L30.86 19.8725ZM20.6674 20.3661C20.6728 19.84 20.3794 19.5472 19.9364 19.553C19.4488 19.5599 19.013 19.9547 18.9275 20.467C18.9064 20.5929 18.8847 20.7188 18.8633 20.8447C18.6639 22.0039 18.4591 23.1637 18.2676 24.3233C18.189 24.7991 18.6064 25.1937 19.0835 25.1175C19.588 25.0368 19.9189 24.6958 20.0111 24.1627C20.1566 23.3195 20.3048 22.4795 20.4505 21.6377C20.5285 21.1892 20.6041 20.7384 20.6671 20.3676L20.6674 20.3661ZM17.7158 20.392C17.724 19.8499 17.4291 19.553 16.9984 19.5536C16.5509 19.5536 16.1097 19.8882 16.0106 20.3366C15.9178 20.7568 15.8483 21.1826 15.7871 21.6085C15.738 21.9488 15.9708 22.262 16.3082 22.3488C16.7744 22.4692 17.3358 22.156 17.474 21.6476C17.5939 21.2031 17.6499 20.7396 17.7143 20.3938L17.7158 20.392Z" fill="#006699"/>
<path d="M24.0285 25.1593C24.0908 24.7958 24.1667 24.3501 24.2444 23.9055C24.7492 21.0094 25.2542 18.1134 25.7593 15.2175C25.837 14.7706 26.0852 14.4676 26.5123 14.3267C27.1029 14.1321 27.5965 14.5676 27.4911 15.1802C27.4239 15.5648 27.3553 15.9494 27.2881 16.334C26.7894 19.1883 26.2916 22.0429 25.7949 24.8976C25.6922 25.4873 25.416 25.8231 24.9242 25.9376C24.4504 26.0481 24.0303 25.7246 24.0285 25.1593Z" fill="#FBFCFD"/>
<path d="M30.6311 14.1445C30.567 14.5257 30.4917 14.9841 30.4122 15.4401C30.1594 16.8917 29.9056 18.3434 29.6508 19.7951C29.5451 20.3974 29.4439 21.0022 29.3295 21.6021C29.2494 22.0238 28.8928 22.3647 28.4895 22.4331C27.8968 22.5333 27.4986 22.1394 27.5962 21.5449C27.6604 21.1534 27.7314 20.7618 27.7998 20.3703C28.1068 18.6191 28.4135 16.8676 28.7199 15.116C28.7747 14.8043 28.8238 14.4914 28.8837 14.1806C28.9741 13.714 29.3999 13.3436 29.8592 13.3231C30.3116 13.3053 30.6357 13.6168 30.6311 14.1445Z" fill="#BDD001"/>
<path d="M21.626 26.8899C21.1188 26.8899 20.8278 26.5032 20.9251 25.9671C21.0191 25.4506 21.1058 24.9326 21.1962 24.4154C21.5314 22.4979 21.8633 20.5794 22.2051 18.663C22.2867 18.2058 22.5852 17.9242 23.03 17.8179C23.5809 17.686 24.0164 18.1025 23.9209 18.6612C23.7282 19.7918 23.5294 20.92 23.3327 22.0509C23.1046 23.3602 22.8764 24.6691 22.6481 25.9776C22.5545 26.5182 22.1359 26.8902 21.626 26.8899Z" fill="#FBFDFD"/>
<path d="M30.8597 19.874C30.9426 19.3921 31.0357 18.85 31.1308 18.3052C31.2594 17.5628 31.3926 16.821 31.5173 16.0765C31.5998 15.5838 31.904 15.2356 32.3623 15.1299C32.8855 15.0094 33.3312 15.3799 33.2583 15.9129C33.1644 16.5981 33.0316 17.2782 32.9144 17.9609C32.8132 18.5503 32.7054 19.1388 32.6105 19.7291C32.5244 20.2649 32.0928 20.6799 31.5965 20.6875C31.1477 20.695 30.8456 20.3866 30.8597 19.874Z" fill="#FCFDFD"/>
<path d="M20.6671 20.3676C20.6041 20.7384 20.5286 21.1892 20.4503 21.6398C20.3045 22.4831 20.1563 23.3231 20.0109 24.1648C19.9187 24.6967 19.5877 25.0383 19.0832 25.1196C18.6062 25.1958 18.1888 24.8012 18.2674 24.3254C18.4589 23.1646 18.6637 22.0063 18.8631 20.8468C18.8845 20.7209 18.9062 20.595 18.9272 20.4691C19.0128 19.9571 19.4486 19.562 19.9362 19.5551C20.3792 19.5487 20.6725 19.8415 20.6671 20.3676Z" fill="#FCFDFD"/>
<path d="M17.7143 20.3938C17.6499 20.7399 17.5938 21.2034 17.4734 21.6491C17.3351 22.1575 16.7737 22.4698 16.3075 22.3503C15.9702 22.2635 15.7374 21.9503 15.7865 21.61C15.8467 21.1841 15.9172 20.7583 16.0099 20.3381C16.109 19.89 16.5503 19.5551 16.9978 19.5551C17.4276 19.5545 17.7225 19.8517 17.7143 20.3938Z" fill="#FBFDFD"/>
<path d="M24.5703 31.8805V38.9899H23.623L20.0439 33.5065V38.9899H19.1016V31.8805H20.0439L23.6377 37.3785V31.8805H24.5703Z" fill="#1C1D1F"/>
<path d="M28.8623 36.2018H26.9629V35.4352H28.8623C29.2301 35.4352 29.528 35.3766 29.7559 35.2594C29.9837 35.1422 30.1497 34.9795 30.2539 34.7711C30.3613 34.5628 30.415 34.3252 30.415 34.0582C30.415 33.8141 30.3613 33.5846 30.2539 33.3698C30.1497 33.1549 29.9837 32.9824 29.7559 32.8522C29.528 32.7187 29.2301 32.652 28.8623 32.652H27.1826V38.9899H26.2402V31.8805H28.8623C29.3994 31.8805 29.8535 31.9733 30.2246 32.1588C30.5957 32.3444 30.8773 32.6015 31.0693 32.9303C31.2614 33.2558 31.3574 33.6285 31.3574 34.0485C31.3574 34.5042 31.2614 34.8932 31.0693 35.2155C30.8773 35.5377 30.5957 35.7835 30.2246 35.9528C29.8535 36.1188 29.3994 36.2018 28.8623 36.2018Z" fill="#1C1D1F"/>
</svg>
