<svg width="50" height="50" viewBox="0 0 50 50" fill="none" xmlns="http://www.w3.org/2000/svg">
<rect width="50" height="50" fill="#05CC64"/>
<path fill-rule="evenodd" clip-rule="evenodd" d="M26.1261 9.05152C23.2825 9.40657 20.9235 10.5069 18.9989 12.376C16.941 14.3745 15.7872 16.744 15.4374 19.6898C15.3989 20.0135 15.38 21.6065 15.4132 21.723C15.4269 21.771 15.451 21.9506 15.4668 22.1221C15.9156 27.0013 19.7938 31.2527 24.8064 32.3606C25.6107 32.5384 27.1739 32.7063 27.3918 32.6383L27.4458 32.6214V27.5706L27.8709 27.5408C31.5251 27.2846 34.2651 24.4074 34.3259 20.7625C34.3301 20.5129 34.2474 19.8242 34.1672 19.4403C33.7002 17.2042 32.0694 15.313 29.9075 14.5001C29.583 14.3781 29.2101 14.2628 29.0319 14.2293C28.9901 14.2213 28.8759 14.1978 28.7781 14.1767C28.527 14.1228 28.0552 14.0643 27.8696 14.0641C27.783 14.0639 27.6523 14.0568 27.579 14.0481L27.4458 14.0324V9L26.9699 9.00281C26.6748 9.00455 26.3543 9.02308 26.1261 9.05152ZM27.4204 20.7984C27.4204 24.5022 27.4114 27.5381 27.4004 27.5448C27.3894 27.5515 27.2096 27.5461 27.0007 27.5329C24.0417 27.3454 21.5248 25.3035 20.7865 22.4914C19.7289 18.4642 22.5773 14.4878 26.8113 14.0808C26.8602 14.0761 27.0172 14.0704 27.1603 14.0682L27.4204 14.0642V20.7984Z" fill="white"/>
<path d="M20.4267 37.042C21.4525 37.042 22.4883 37.7037 22.4883 38.7943H21.7167C21.7167 38.1346 21.2959 37.6712 20.4267 37.6712C19.6011 37.6712 19.213 38.0664 19.213 38.6111C19.213 39.1013 19.6331 39.401 20.5834 39.6625C21.9104 40.0337 22.5044 40.5395 22.5044 41.4468C22.5044 42.389 21.7071 43 20.4628 43C19.4235 43 18.2525 42.3994 18.2525 41.2397H19.0241C19.0241 42.0351 19.721 42.3747 20.4628 42.3747C21.2771 42.3747 21.7247 42.0169 21.7247 41.4547C21.7247 40.9135 21.4534 40.6547 20.3342 40.3316C19.1731 39.9907 18.4374 39.5208 18.4374 38.6191C18.4374 37.7088 19.2363 37.042 20.4267 37.042Z" fill="white"/>
<path d="M15.355 39.3439L16.7616 37.1216H17.6658L15.8171 39.9931L17.71 42.9203H16.7977L15.355 40.6542L13.9123 42.9203H13L14.8928 39.9931L13.0442 37.1216H13.9484L15.355 39.3439Z" fill="white"/>
<path d="M24.3248 42.9203H23.5492V37.1216H24.3248V42.9203Z" fill="white"/>
<path fill-rule="evenodd" clip-rule="evenodd" d="M30.3932 42.9203H29.5975L29.0405 41.403H26.593L26.0368 42.9203H25.2451L27.4756 37.1216H28.1547L30.3932 42.9203ZM26.8237 40.7737H28.809L27.8147 38.0679L26.8237 40.7737Z" fill="white"/>
<path d="M34.0904 41.849L36.0033 37.1216H37V42.9203H36.2284L36.3023 38.2328L34.3798 42.9203H33.793L31.8737 38.2264L31.9484 42.9203H31.1768V37.1216H32.1735L34.0904 41.849Z" fill="white"/>
</svg>
