<svg width="50" height="50" viewBox="0 0 50 50" fill="none" xmlns="http://www.w3.org/2000/svg">
<rect width="50" height="50" fill="#00C0E8"/>
<path d="M23.6401 23.9617V12.1951L29.6984 23.9617H23.6331H23.6401ZM23.6401 12.1951L17.5749 23.9617H23.6401V32.4108L11.0913 19.7054L23.6401 7V12.1951ZM38.5384 20.0018L34.1114 16.3455V18.7384L35.6033 20.0089L34.1114 21.223V23.6652L38.5384 20.0018ZM31.1764 16.3455V23.6652L34.1044 21.223V18.7384L31.1764 16.3455Z" fill="white"/>
<path fill-rule="evenodd" clip-rule="evenodd" d="M26.0227 36.4582C26.5939 36.4582 27.0175 36.6661 27.3126 37.0529C27.3145 37.0553 27.3158 37.0582 27.3176 37.0606L27.3545 36.5438H28.0581V41.0747C28.0581 42.2968 27.2736 43 26.1399 43C25.5153 43 24.8279 42.7318 24.4605 42.1956L24.8668 41.725C25.2486 42.1955 25.676 42.3497 26.0813 42.3497C26.8171 42.3497 27.2833 41.9204 27.2833 41.1132V40.7016C26.9892 41.0606 26.5731 41.2587 26.0143 41.2587C24.7833 41.2587 24.2344 39.9993 24.2344 38.9098C24.2344 37.7907 24.7356 36.4582 26.0227 36.4582ZM26.2111 37.1256C25.2778 37.1256 25.0092 38.1302 25.0092 38.9098C25.0092 39.8381 25.3643 40.5869 26.2028 40.5869C26.6957 40.5869 27.0651 40.3277 27.2833 39.8887V37.7991C27.0879 37.4103 26.7517 37.1256 26.2111 37.1256Z" fill="white"/>
<path d="M19.5437 36.4582C20.378 36.4582 21.2692 36.9441 21.2692 37.9043H20.4944C20.4944 37.393 19.9881 37.1085 19.5437 37.1085C18.912 37.1085 18.6433 37.4408 18.6433 37.7888C18.6433 38.1232 18.8255 38.3067 19.6861 38.5033C20.8001 38.76 21.3153 39.1408 21.3153 39.8853C21.3153 40.8414 20.3726 41.2587 19.5646 41.2587C18.6941 41.2587 17.7093 40.7384 17.7093 39.7441H18.4883C18.5184 40.3281 19.0308 40.6083 19.5646 40.6083C20.2085 40.6083 20.5405 40.3281 20.5405 39.9452C20.5405 39.6011 20.3946 39.3249 19.4976 39.1451C18.508 38.9317 17.8643 38.582 17.8643 37.8102C17.8643 36.9259 18.7716 36.4582 19.5437 36.4582Z" fill="white"/>
<path d="M35.0103 36.5438H35.8563V37.1513H35.0103V40.0265C35.0103 40.3402 35.115 40.4885 35.2658 40.5399C35.4631 40.6071 35.675 40.5737 35.8731 40.527L35.8772 41.1731C35.5202 41.2892 35.098 41.3092 34.7548 41.1431C34.4356 40.9887 34.2355 40.6365 34.2355 40.0222V37.1513H33.4063V36.5438H34.2355V35.4185H35.0103V36.5438Z" fill="white"/>
<path d="M11.8083 41.1731H11V34.9436H11.8083V41.1731Z" fill="white"/>
<path d="M15.2719 36.4582C16.1642 36.4582 16.7251 36.9127 16.7251 38.1396V41.1731H15.9461V38.1311C15.9461 37.394 15.6216 37.1256 15.0415 37.1256C14.548 37.1256 14.1554 37.4242 13.9359 37.8718V41.1731H13.1611V36.5438H13.894L13.9183 37.1222C14.2452 36.7003 14.7134 36.4582 15.2719 36.4582Z" fill="white"/>
<path d="M23.1748 41.1731H22.3958V36.5438H23.1748V41.1731Z" fill="white"/>
<path d="M30.0097 37.0983C30.0126 37.0946 30.0152 37.0907 30.0181 37.0871C30.3444 36.6848 30.8025 36.4582 31.3457 36.4582C32.3505 36.4582 32.799 37.2093 32.799 38.1396V41.1731H32.02V38.1311C32.02 37.394 31.6955 37.1256 31.1154 37.1256C30.6219 37.1256 30.2293 37.4242 30.0097 37.8718V41.1731H29.2349V34.6013H30.0097V37.0983Z" fill="white"/>
<path d="M22.7937 34.858C23.092 34.858 23.2543 35.0612 23.2543 35.3158C23.2543 35.5571 23.0947 35.7608 22.7937 35.7608C22.4918 35.7608 22.3372 35.5609 22.3372 35.3158C22.3372 35.0571 22.4945 34.858 22.7937 34.858Z" fill="white"/>
<path d="M38.2284 36.4582C39.0628 36.4582 39.9539 36.9441 39.9539 37.9043H39.1791C39.1791 37.393 38.6728 37.1085 38.2284 37.1085C37.5968 37.1085 37.328 37.4408 37.328 37.7888C37.328 38.1232 37.5102 38.3067 38.3708 38.5033C39.4849 38.76 40 39.1408 40 39.8853C40 40.8414 39.0573 41.2587 38.2494 41.2587C37.3788 41.2587 36.3941 40.7384 36.3941 39.7441H37.173C37.2031 40.3281 37.7155 40.6083 38.2494 40.6083C38.8932 40.6083 39.2252 40.3281 39.2252 39.9452C39.2252 39.6011 39.0793 39.3249 38.1824 39.1451C37.1927 38.9317 36.549 38.582 36.549 37.8102C36.549 36.9259 37.4564 36.4582 38.2284 36.4582Z" fill="white"/>
</svg>
