<svg width="50" height="50" viewBox="0 0 50 50" fill="none" xmlns="http://www.w3.org/2000/svg">
<rect width="50" height="50" fill="#05CC64"/>
<path fill-rule="evenodd" clip-rule="evenodd" d="M26.7636 7.71429C22.7996 8.2355 19.511 9.85074 16.8281 12.5945C13.9593 15.528 12.3509 19.0065 11.8632 23.3306C11.8096 23.8058 11.7832 26.1442 11.8295 26.3152C11.8486 26.3857 11.8822 26.6494 11.9042 26.9011C12.53 34.0635 17.9363 40.3043 24.9239 41.9306C26.0451 42.1916 28.2243 42.438 28.5281 42.3382L28.6033 42.3135V34.8992L29.1959 34.8554C34.29 34.4793 38.1096 30.2559 38.1943 24.9053C38.2002 24.5389 38.0849 23.528 37.9731 22.9644C37.3221 19.6819 35.0488 16.9057 32.035 15.7125C31.5827 15.5334 31.0628 15.3641 30.8144 15.3149C30.7561 15.3033 30.5969 15.2687 30.4607 15.2378C30.1105 15.1586 29.4528 15.0728 29.1941 15.0724C29.0735 15.0722 28.8912 15.0617 28.789 15.049L28.6033 15.0259V7.63867L27.9399 7.64279C27.5286 7.64536 27.0817 7.67255 26.7636 7.71429ZM28.5679 24.958C28.5679 30.395 28.5553 34.8515 28.54 34.8613C28.5247 34.8711 28.274 34.8632 27.9828 34.8438C23.8579 34.5686 20.3493 31.5713 19.32 27.4432C17.8458 21.5315 21.8165 15.6945 27.7188 15.0969C27.7869 15.0901 28.0058 15.0817 28.2053 15.0785L28.5679 15.0727V24.958Z" fill="white"/>
</svg>
