<svg width="50" height="50" viewBox="0 0 50 50" fill="none" xmlns="http://www.w3.org/2000/svg">
<path d="M34.6483 13.2223L18.8976 23.0391C18.5889 23.2317 18.2187 23.29 17.8683 23.201C17.518 23.112 17.2163 22.8831 17.0295 22.5646C16.8428 22.2461 16.7863 21.8641 16.8726 21.5027C16.9588 21.1413 17.1807 20.83 17.4894 20.6373L17.6359 20.5618L34.4041 12.8108C34.4594 12.7874 34.5213 12.7865 34.5772 12.8084C34.6331 12.8302 34.6789 12.8731 34.7053 12.9284C34.7255 12.9805 34.7276 13.0382 34.7113 13.0918C34.695 13.1453 34.6613 13.1914 34.6158 13.2223" fill="#FFA100"/>
<path d="M31.5796 11.0557L18.7511 17.3455C18.4251 17.5092 18.0494 17.5326 17.7067 17.4105C17.364 17.2885 17.0823 17.031 16.9237 16.6947C16.765 16.3584 16.7423 15.9708 16.8606 15.6172C16.9789 15.2637 17.2285 14.9731 17.5545 14.8094L17.758 14.7338L31.3923 10.619C31.4495 10.6033 31.5104 10.6112 31.562 10.641C31.6137 10.6708 31.6521 10.7201 31.6691 10.7786C31.6863 10.8311 31.6841 10.8884 31.6631 10.9394C31.6421 10.9905 31.6037 11.0319 31.5551 11.0557" fill="#FFB500"/>
<path d="M33.0772 17.9081L19.0115 28.8754C18.8712 29.0048 18.7063 29.1027 18.5274 29.163C18.3485 29.2233 18.1594 29.2446 17.9721 29.2255C17.7848 29.2064 17.6033 29.1475 17.4393 29.0523C17.2752 28.9571 17.1321 28.8279 17.019 28.6727C16.9059 28.5175 16.8252 28.3397 16.7822 28.1507C16.7391 27.9617 16.7346 27.7655 16.7688 27.5745C16.8031 27.3836 16.8754 27.2021 16.9812 27.0415C17.0871 26.8809 17.224 26.7447 17.3835 26.6416L32.8575 17.5134C32.9082 17.4789 32.9701 17.4666 33.0297 17.4792C33.0892 17.4918 33.1415 17.5283 33.1749 17.5806C33.2084 17.6329 33.2203 17.6969 33.2081 17.7583C33.1959 17.8197 33.1605 17.8736 33.1098 17.9081" fill="#FF8200"/>
<path d="M26.5084 27.0447L19.1336 34.8964C18.879 35.1549 18.5363 35.3004 18.1791 35.3016C17.8218 35.3028 17.4783 35.1597 17.2219 34.903C16.9656 34.6462 16.8169 34.2962 16.8075 33.9277C16.7982 33.5592 16.929 33.2016 17.1719 32.9314C17.2422 32.8627 17.3185 32.8009 17.3998 32.7467L26.2316 26.6836C26.2787 26.6544 26.3343 26.6436 26.3884 26.6534C26.4425 26.6631 26.4913 26.6927 26.526 26.7366C26.5606 26.7805 26.5788 26.8359 26.577 26.8925C26.5753 26.9491 26.5538 27.0031 26.5165 27.0447" fill="#FF6E00"/>
<path d="M23.6431 34.7873L19.2313 41.0855C19.0154 41.3895 18.6913 41.5926 18.3303 41.6501C17.9693 41.7076 17.6009 41.6147 17.3062 41.392C17.0115 41.1693 16.8147 40.8349 16.759 40.4625C16.7032 40.09 16.7932 39.71 17.0091 39.406C17.092 39.291 17.1907 39.1892 17.3021 39.1037L23.3175 34.4766C23.3407 34.4569 23.3675 34.4424 23.3963 34.4338C23.4251 34.4253 23.4553 34.4229 23.485 34.4268C23.5148 34.4308 23.5434 34.4409 23.5692 34.4567C23.595 34.4725 23.6174 34.4935 23.635 34.5186C23.6641 34.5601 23.6798 34.6101 23.6798 34.6613C23.6798 34.7126 23.6641 34.7626 23.635 34.8041" fill="#FF5900"/>
<path d="M27.4038 8.78833L18.5883 12.1978C18.418 12.2756 18.2341 12.3168 18.0479 12.3187C17.8617 12.3206 17.677 12.2833 17.5053 12.209C17.3336 12.1347 17.1783 12.025 17.0492 11.8866C16.92 11.7482 16.8195 11.5841 16.754 11.4043C16.6885 11.2244 16.6593 11.0327 16.6682 10.8407C16.6771 10.6488 16.7238 10.4608 16.8056 10.2882C16.8874 10.1156 17.0026 9.9621 17.1439 9.83703C17.2853 9.71196 17.4499 9.618 17.6278 9.56091C17.7294 9.51993 17.8364 9.49447 17.9452 9.48533L27.3224 8.33486C27.3523 8.33137 27.3827 8.33404 27.4116 8.34273C27.4406 8.35142 27.4676 8.36595 27.491 8.38548C27.5145 8.405 27.534 8.42914 27.5483 8.45649C27.5627 8.48384 27.5717 8.51385 27.5747 8.5448C27.5784 8.59616 27.5662 8.6474 27.5399 8.69116C27.5135 8.73491 27.4744 8.76893 27.4282 8.78833" fill="#FFD117"/>
</svg>
