<svg width="50" height="50" viewBox="0 0 50 50" fill="none" xmlns="http://www.w3.org/2000/svg">
<path d="M39.8819 16.3573L37.4515 20.801C37.3997 20.8938 37.3803 20.9994 37.3965 21.1051L38.2811 27.6426C38.3232 27.95 38.1871 28.2573 37.9279 28.4334L32.8922 31.9102C32.8144 31.9647 32.756 32.0351 32.7172 32.1215L30.2447 37.7786C30.1053 38.0956 29.8104 38.3196 29.4637 38.3709L25.1992 38.9856C25.0696 39.0048 24.94 39.0048 24.8104 38.9856L20.5459 38.3709C20.1992 38.3196 19.9043 38.0956 19.7649 37.7786L17.2925 32.1215C17.2568 32.0351 17.1953 31.9647 17.1175 31.9102L12.0818 28.4366C11.8225 28.2573 11.6864 27.9531 11.7286 27.6458L12.6132 21.1083C12.6262 21.0027 12.6067 20.897 12.5581 20.8041L10.1213 16.3573C10.0338 16.194 9.99165 16.0083 10.0014 15.8226L10.118 13.8761C10.1407 13.5175 10.3513 13.2006 10.6786 13.0405L12.0656 12.3618C12.4577 12.1697 12.9243 12.1921 13.2969 12.4226L16.4111 14.3467C16.5342 14.4236 16.6865 14.4428 16.8258 14.4011L24.6095 12.0576C24.8655 11.9808 25.1377 11.9808 25.3937 12.0576L33.1773 14.4011C33.3167 14.4428 33.469 14.4236 33.5921 14.3467L36.7062 12.4226C37.0789 12.1921 37.5455 12.1697 37.9376 12.3618L39.3212 13.0405C39.6453 13.2006 39.8592 13.5175 39.8819 13.8761L39.9986 15.8226C40.0082 16.0083 39.9694 16.194 39.8786 16.3573H39.8819Z" fill="#1C2DF4"/>
</svg>
