<svg width="50" height="50" viewBox="0 0 50 50" fill="none" xmlns="http://www.w3.org/2000/svg">
<path fill-rule="evenodd" clip-rule="evenodd" d="M36.3125 36.311C42.5625 30.0614 42.5625 19.9355 36.3125 13.6858C34.9496 12.3237 32.7259 12.3237 31.363 13.6858C30.0009 15.0479 30.0009 17.2721 31.363 18.6369C34.8745 22.1485 34.8745 27.8484 31.363 31.3628C27.8515 34.8743 22.1493 34.8743 18.6377 31.3628C16.8764 29.6 16.0013 27.3013 16.0013 24.9998C16.0013 17.3632 21.3515 10.9755 28.5021 9.3868C27.3779 9.13814 26.2012 9 25.0019 9C16.1649 9 9 16.1614 9 24.9998C9 27.0499 9.388 29.0999 10.1745 31.0256C11.8751 35.0622 14.9491 38.1262 18.7736 39.7508C22.0112 41.0632 25.3373 41.3257 28.4999 40.6128C31.363 39.9718 34.088 38.5351 36.3125 36.311Z" fill="#3CC1CA"/>
</svg>
