<svg width="50" height="50" viewBox="0 0 50 50" fill="none" xmlns="http://www.w3.org/2000/svg">
<path d="M17.5633 32.0858C18.5967 32.7287 32.737 41.5626 32.737 41.5626C34.5122 42.9736 37.1355 41.9518 37.1355 39.6117V20.1008C37.2257 18.1884 36.1328 16.5135 34.5513 15.5296C33.7245 15.0151 20.2027 6.55433 20.2027 6.55433C18.498 5.1873 16.0796 6.52877 16.0796 8.61719V29.7162C16.1147 30.8098 16.6312 31.5052 17.5633 32.0858ZM22.4011 15.5287L30.8123 20.7686V32.6425L22.4011 27.4578V15.5287Z" fill="#26ABFF"/>
<path d="M13 31.4163C13.0355 32.5242 13.536 33.2234 14.4846 33.8135C15.5179 34.4563 29.6583 43.2903 29.6583 43.2903C31.4334 44.7013 34.0567 43.6795 34.0567 41.3394V21.8284C34.1469 19.9161 33.0541 18.2412 31.4725 17.2572C30.6457 16.7428 17.124 8.282 17.124 8.282C15.4194 6.9151 13 8.25632 13 10.3449V31.4163ZM19.3224 17.2572L27.7335 22.4971V34.371L19.3224 29.1863V17.2572Z" fill="#F50049"/>
</svg>
