<svg width="50" height="50" viewBox="0 0 50 50" fill="none" xmlns="http://www.w3.org/2000/svg">
<path d="M18.4473 44.2119H16.5479V43.4453H18.4473C18.8151 43.4453 19.113 43.3867 19.3408 43.2695C19.5687 43.1523 19.7347 42.9896 19.8389 42.7812C19.9463 42.5729 20 42.3353 20 42.0684C20 41.8242 19.9463 41.5947 19.8389 41.3799C19.7347 41.165 19.5687 40.9925 19.3408 40.8623C19.113 40.7288 18.8151 40.6621 18.4473 40.6621H16.7676V47H15.8252V39.8906H18.4473C18.9844 39.8906 19.4385 39.9834 19.8096 40.1689C20.1807 40.3545 20.4622 40.6117 20.6543 40.9404C20.8464 41.266 20.9424 41.6387 20.9424 42.0586C20.9424 42.5143 20.8464 42.9033 20.6543 43.2256C20.4622 43.5479 20.1807 43.7936 19.8096 43.9629C19.4385 44.1289 18.9844 44.2119 18.4473 44.2119Z" fill="#1C1D1F"/>
<path d="M24.0039 44.8516L25.415 39.8906H26.0986L25.7031 41.8193L24.1846 47H23.5059L24.0039 44.8516ZM22.5439 39.8906L23.667 44.7539L24.0039 47H23.3301L21.6064 39.8906H22.5439ZM27.9248 44.749L29.0234 39.8906H29.9658L28.2471 47H27.5732L27.9248 44.749ZM26.2012 39.8906L27.5732 44.8516L28.0713 47H27.3926L25.9277 41.8193L25.5273 39.8906H26.2012Z" fill="#1C1D1F"/>
<path d="M32.9346 47H31.4502L31.46 46.2334H32.9346C33.4424 46.2334 33.8656 46.1276 34.2041 45.916C34.5426 45.7012 34.7965 45.4017 34.9658 45.0176C35.1383 44.6302 35.2246 44.1777 35.2246 43.6602V43.2256C35.2246 42.8187 35.1758 42.4574 35.0781 42.1416C34.9805 41.8226 34.8372 41.554 34.6484 41.3359C34.4596 41.1146 34.2285 40.9469 33.9551 40.833C33.6849 40.7191 33.374 40.6621 33.0225 40.6621H31.4209V39.8906H33.0225C33.488 39.8906 33.9128 39.9688 34.2969 40.125C34.681 40.278 35.0114 40.501 35.2881 40.7939C35.568 41.0837 35.7829 41.4352 35.9326 41.8486C36.0824 42.2588 36.1572 42.721 36.1572 43.2354V43.6602C36.1572 44.1745 36.0824 44.6383 35.9326 45.0518C35.7829 45.4619 35.5664 45.8118 35.2832 46.1016C35.0033 46.3913 34.6647 46.6143 34.2676 46.7705C33.8737 46.9235 33.4294 47 32.9346 47ZM31.9531 39.8906V47H31.0107V39.8906H31.9531Z" fill="#1C1D1F"/>
<path d="M30.3657 6.95861C41.2106 14.838 36.6734 33.0302 25.1646 35C39.8826 35 44.7517 13.911 30.3657 6.95861Z" fill="#FFCE26"/>
<path d="M18.8571 6.84264C31.6938 4.87279 37.0056 21.4427 31.3618 29.0904C40.6574 19.357 33.2431 1.97595 18.8571 6.84264Z" fill="#0879B8"/>
<path d="M11.3321 14.838C17.6398 4.9888 30.8085 11.0142 32.1365 20.9793C33.6857 8.81263 18.1931 1.97609 11.3321 14.838Z" fill="#069B4F"/>
<path d="M11 22.254C12.5493 12.0571 25.1647 11.0142 29.8125 18.1984C26.05 8.00151 11.2213 9.27612 11 22.254Z" fill="#CB2034"/>
</svg>
