<svg width="50" height="50" viewBox="0 0 50 50" fill="none" xmlns="http://www.w3.org/2000/svg">
<path d="M18.4503 41.647H16.6753V41H18.4503C18.794 41 19.0724 40.9505 19.2853 40.8516C19.4982 40.7527 19.6534 40.6154 19.7507 40.4396C19.8511 40.2637 19.9013 40.0632 19.9013 39.8379C19.9013 39.6319 19.8511 39.4382 19.7507 39.2569C19.6534 39.0755 19.4982 38.9299 19.2853 38.8201C19.0724 38.7074 18.794 38.6511 18.4503 38.6511H16.8806V44H16V38H18.4503C18.9522 38 19.3766 38.0783 19.7233 38.2349C20.0701 38.3915 20.3333 38.6085 20.5127 38.886C20.6922 39.1607 20.7819 39.4753 20.7819 39.8297C20.7819 40.2143 20.6922 40.5426 20.5127 40.8146C20.3333 41.0865 20.0701 41.294 19.7233 41.4368C19.3766 41.5769 18.9522 41.647 18.4503 41.647Z" fill="#7F8BA5"/>
<path d="M23.6429 42.1868L24.9616 38H25.6004L25.2308 39.6277L23.8117 44H23.1775L23.6429 42.1868ZM22.2786 38L23.3281 42.1044L23.6429 44H23.0132L21.4025 38H22.2786ZM27.3069 42.1003L28.3336 38H29.2142L27.6081 44H26.9784L27.3069 42.1003ZM25.6962 38L26.9784 42.1868L27.4438 44H26.8096L25.4407 39.6277L25.0665 38H25.6962Z" fill="#7F8BA5"/>
<path d="M31.9885 44H30.6013L30.6105 43.353H31.9885C32.463 43.353 32.8585 43.2637 33.1748 43.0852C33.4912 42.9038 33.7285 42.6511 33.8866 42.3269C34.0479 42 34.1285 41.6181 34.1285 41.1813V40.8146C34.1285 40.4712 34.0829 40.1662 33.9916 39.8997C33.9003 39.6305 33.7665 39.4038 33.5901 39.2198C33.4136 39.033 33.1976 38.8915 32.9421 38.7953C32.6896 38.6992 32.3991 38.6511 32.0706 38.6511H30.574V38H32.0706C32.5056 38 32.9026 38.0659 33.2615 38.1978C33.6205 38.3269 33.9292 38.5151 34.1878 38.7624C34.4494 39.0069 34.6502 39.3036 34.7901 39.6525C34.93 39.9986 35 40.3887 35 40.8228V41.1813C35 41.6154 34.93 42.0069 34.7901 42.3558C34.6502 42.7019 34.4479 42.9973 34.1832 43.2418C33.9216 43.4863 33.6053 43.6745 33.2341 43.8063C32.8661 43.9354 32.4508 44 31.9885 44ZM31.0713 38V44H30.1907V38H31.0713Z" fill="#7F8BA5"/>
<path d="M29.6741 7.92556C40.1316 15.5333 35.7565 33.0981 24.6588 35C38.8511 35 43.5463 14.6382 29.6741 7.92556Z" fill="#FFCE26"/>
<path d="M18.5765 7.81358C30.9547 5.91166 36.0768 21.9102 30.6346 29.2941C39.5982 19.8964 32.4487 3.11471 18.5765 7.81358Z" fill="#0879B8"/>
<path d="M11.3203 15.5333C17.4027 6.02367 30.1011 11.8413 31.3816 21.4628C32.8755 9.71564 17.9362 3.11484 11.3203 15.5333Z" fill="#069B4F"/>
<path d="M11 22.6935C12.4939 12.8482 24.6588 11.8413 29.1406 18.7777C25.5125 8.9325 11.2134 10.1632 11 22.6935Z" fill="#CB2034"/>
</svg>
