<svg width="50" height="50" viewBox="0 0 50 50" fill="none" xmlns="http://www.w3.org/2000/svg">
<path d="M11.9151 10C10.8715 10 10 10.8731 10 11.9163V38.0837C10 39.1269 10.8715 40 11.9151 40H15.9512C16.9948 40 17.8663 39.1269 17.8663 38.0837V19.7924C17.8663 18.7492 18.7378 17.8761 19.7814 17.8761H30.1947C31.2383 17.8761 32.1098 18.7492 32.1098 19.7924V30.1837C32.1098 31.2269 31.2383 32.1 30.1947 32.1H24.2004C23.1568 32.1 22.2853 32.9731 22.2853 34.0163V38.0549C22.2853 39.0982 23.1568 39.9713 24.2004 39.9713H38.0849C39.1285 39.9713 40 39.0982 40 38.0549V11.9163C40 10.8731 39.1285 10 38.0849 10H11.9151Z" fill="#398145"/>
</svg>
