<svg width="50" height="50" viewBox="0 0 50 50" fill="none" xmlns="http://www.w3.org/2000/svg">
<rect width="50" height="50" fill="black"/>
<path d="M11.9994 24.426C11.9994 20.7251 11.9994 17.0241 11.9994 13.3232C11.9994 11.6518 12.6299 11.0024 14.2898 11C21.735 11 29.1786 11 36.6206 11C38.3426 11 38.9899 11.6518 38.9899 13.3877C38.9899 20.7895 38.9899 28.1914 38.9899 35.5932C38.9899 37.3028 38.3211 37.957 36.5848 37.9618C32.8447 37.9713 29.103 37.9713 25.3597 37.9618C23.6186 37.9618 23 37.3171 22.9905 35.5741C22.9905 34.619 22.9618 33.664 22.9905 32.7089C23.0359 31.4697 23.707 30.8131 24.9465 30.7987C26.5801 30.7725 28.2114 30.7987 29.8426 30.7844C31.18 30.7677 31.7914 30.1469 31.7986 28.7931C31.8114 25.9278 31.8114 23.0626 31.7986 20.1974C31.7986 18.7648 31.1944 18.1917 29.7518 18.1869C26.9646 18.1869 24.1799 18.1869 21.3927 18.1869C19.6994 18.1869 19.1835 18.6955 19.1811 20.3645C19.1811 25.4201 19.1811 30.474 19.1811 35.5264C19.1787 37.3625 18.5769 37.9857 16.7904 37.9857C16.0333 37.9857 15.2762 37.9857 14.5215 37.9857C12.6108 37.9857 12.0066 37.4007 12.0066 35.5168C11.9986 31.8238 11.9962 28.1269 11.9994 24.426Z" fill="white"/>
</svg>
