<svg width="50" height="50" viewBox="0 0 50 50" fill="none" xmlns="http://www.w3.org/2000/svg">
<rect width="50" height="50" fill="#3982F7"/>
<path d="M10.2224 19H6V29.1714H7.20848V25.6972L10.5004 25.6596C12.4605 25.6596 12.8617 23.6103 12.8617 23.061V21.4366C12.8545 19.6127 11.0466 19 10.2224 19ZM7.20848 20.1737H10.2297C10.2442 20.1737 11.6581 20.2676 11.6581 21.4437V23.061C11.6581 23.061 11.5808 24.493 10.4931 24.493L7.20848 24.5305V20.1737Z" fill="white"/>
<path d="M16.5959 21.7347C15.3536 21.7347 14.469 22.061 14.1476 22.385C14.03 22.5003 14.01 22.6929 14.1016 22.8286L14.3264 23.169C14.4256 23.322 14.6507 23.3768 14.8146 23.2911C15.1877 23.0878 15.5984 22.9578 16.0231 22.9085C16.4415 22.8791 16.8507 22.9014 17.2678 22.9014C17.2678 22.9014 18.3023 22.9437 18.3023 23.8122V24.7512H15.4793C14.9746 24.7353 14.4831 24.9098 14.1078 25.2379C13.7325 25.5661 13.5025 26.0226 13.466 26.5117C13.2847 28.3146 14.1282 28.9038 14.6479 29.0939C15.3663 29.3047 16.0961 29.2817 16.8352 29.2817C17.3853 29.2285 17.8986 28.9892 18.2854 28.6056C18.2854 28.9431 18.4241 29.2911 18.8268 29.2911H19.5108V24.3991C19.535 22.8897 18.8099 21.9319 17.5313 21.77C17.4329 21.7594 16.5922 21.7355 16.5959 21.7347ZM15.3488 28.115C14.9981 28.1057 14.6455 27.6762 14.6455 27.3286C14.6253 27.0763 14.6253 26.8228 14.6455 26.5704C14.6672 25.9507 15.4866 25.8521 15.4938 25.8521H18.3096V26.8662C18.0516 27.4977 17.4599 27.98 16.7748 28.1174C16.2987 28.1174 15.8258 28.1408 15.3488 28.115Z" fill="white"/>
<path d="M33.285 19H27.9145C27.712 19 27.5327 19.1742 27.5327 19.3709V28.9413C27.5339 29.1202 27.6965 29.2781 27.8807 29.2793H33.2923C33.4876 29.2793 33.6608 29.1122 33.6621 28.9225V28.4718C33.6608 28.2817 33.488 28.1139 33.2923 28.1127H28.7339V24.8263H32.1708C32.3746 24.8263 32.5551 24.651 32.5551 24.4531V24.0399C32.5551 23.8415 32.3751 23.6656 32.1708 23.6643H28.7339V20.1737H33.285C33.485 20.1737 33.6621 20.0018 33.6621 19.8075V19.3662C33.6621 19.172 33.485 19 33.285 19Z" fill="white"/>
<path d="M42.4622 21.7441C41.5413 21.7441 40.6577 22.05 40.096 22.8099C39.6404 22.0159 38.8117 21.7746 37.9401 21.7746C37.1618 21.7746 36.4085 21.8459 35.818 22.4225V22.1408C35.818 21.9578 35.6511 21.7958 35.4627 21.7958H34.9793C34.7931 21.7958 34.6251 21.96 34.6264 22.1408V28.8991C34.6251 29.1045 34.8161 29.2911 35.0276 29.2911H35.4119C35.6244 29.2898 35.8119 29.1077 35.8131 28.9014V23.77C36.1805 23.0757 37.1226 22.8803 37.8361 22.8803C39.0229 22.8803 39.1606 23.5094 39.1606 23.9836V28.892C39.1606 29.1037 39.3536 29.2911 39.5715 29.2911H40.0259C40.2429 29.2923 40.4394 29.1004 40.4368 28.8897C40.4368 27.0681 40.415 24.1455 40.4368 23.7488C40.8266 23.11 41.6952 22.8603 42.4018 22.8944C43.167 22.823 43.8617 23.3797 43.7915 24.1901V28.885C43.7928 29.0971 43.9864 29.284 44.2048 29.284H44.5915C44.8095 29.284 45.0024 29.0967 45.0024 28.885V24.8333C45.034 23.126 44.3459 21.7441 42.4622 21.7441Z" fill="white"/>
<path d="M25.6692 21.7793L23.5012 27.1408L21.2582 21.7793H20.5718C20.3093 21.779 20.1009 22.054 20.2044 22.3075L22.8824 28.723L21.7489 31.5258C21.6656 31.7477 21.8463 31.9922 22.0824 31.9953H22.8486L26.7689 22.3028C26.8716 22.0509 26.6614 21.7787 26.4015 21.7793H25.6692Z" fill="white"/>
</svg>
