<svg width="50" height="50" viewBox="0 0 50 50" fill="none" xmlns="http://www.w3.org/2000/svg">
<path d="M9 30.737V18.2449H13.0082C13.4981 18.2449 13.9333 18.2605 14.3136 18.2918C14.6544 18.317 14.9927 18.3704 15.325 18.4514C15.5983 18.5186 15.8634 18.6161 16.1157 18.7423C16.3517 18.8632 16.5737 19.0108 16.7774 19.1822C17.242 19.5681 17.6079 20.0628 17.8439 20.6241C18.0923 21.2159 18.2175 21.8537 18.2117 22.4973C18.2143 23.1204 18.0954 23.7379 17.862 24.3139C17.6531 24.8502 17.3333 25.3346 16.9244 25.734C16.514 26.13 16.0157 26.4192 15.472 26.5769C14.9203 26.7392 14.2094 26.8203 13.3391 26.8203H11.9967V30.7343L9 30.737ZM11.9967 24.0137H13.2653C14.5646 24.0137 15.2143 23.5237 15.2143 22.5435C15.2143 22.0158 15.052 21.6357 14.7274 21.4031C14.4028 21.1705 13.8726 21.0541 13.1371 21.0541H11.9967V24.0137Z" fill="#231F20"/>
<path d="M18.2214 30.737V18.2449H22.3399C22.8061 18.2449 23.2196 18.2605 23.5809 18.2918C23.9147 18.319 24.2466 18.369 24.5735 18.4415C24.8639 18.507 25.1472 18.6011 25.4193 18.7225C25.6889 18.8444 25.9503 18.9853 26.201 19.144C26.7879 19.517 27.2946 20.0076 27.6902 20.5858C28.4379 21.6478 28.8117 22.934 28.8117 24.4445C28.8117 25.3934 28.6739 26.2548 28.3981 27.0287C28.1457 27.7641 27.7489 28.4396 27.2322 29.0141C26.7227 29.5672 26.1007 30.0009 25.4104 30.2852C24.6566 30.5939 23.8502 30.7474 23.0377 30.737H18.2214ZM21.3469 27.9278H22.6893C23.6697 27.9278 24.4145 27.6375 24.9234 27.0571C25.4322 26.4766 25.6864 25.637 25.6861 24.5381C25.6861 23.4142 25.4286 22.5525 24.9137 21.9532C24.3988 21.3538 23.6633 21.0541 22.7076 21.0541H21.3476L21.3469 27.9278Z" fill="#231F20"/>
<path d="M41.7429 28.4522C41.7798 28.4524 41.8167 28.4493 41.8528 28.443C41.9015 28.4361 41.9509 28.433 42 28.4337V30.9619L41.5682 30.9903C41.4761 30.9963 41.363 30.9996 41.228 30.9996C40.654 31.0071 40.0825 30.918 39.5368 30.7357C39.0337 30.5598 38.6416 30.3164 38.3594 30.0055C37.3053 30.6555 36.1963 30.98 35.0318 30.9791C34.1413 30.9873 33.2576 30.8188 32.4301 30.4831C31.6534 30.1697 30.9423 29.7091 30.3343 29.1257C29.7277 28.5363 29.2461 27.8268 28.9188 27.0408C28.5915 26.2549 28.4254 25.4091 28.4311 24.5553C28.4228 23.6922 28.584 22.8361 28.9045 22.0372C29.2249 21.2382 29.6987 20.5123 30.2977 19.902C30.8971 19.2916 31.6097 18.8091 32.3939 18.4826C33.1784 18.1561 34.0189 17.9921 34.8661 18.0003C35.7516 17.9934 36.6299 18.1653 37.4499 18.5062C38.2287 18.8276 38.9402 19.2977 39.5457 19.8913C40.1434 20.4837 40.6185 21.1919 40.9433 21.9743C41.2838 22.7914 41.4557 23.671 41.4489 24.5586C41.4539 25.1616 41.3701 25.7619 41.2004 26.3395C41.0146 26.9317 40.7453 27.4932 40.4005 28.0063C40.7192 28.3036 41.1668 28.4522 41.7429 28.4522ZM36.2085 24.5942C36.3925 24.7314 36.5515 24.8532 36.6865 24.9597C36.8211 25.0661 36.9529 25.1784 37.0818 25.2967C37.2168 25.4216 37.3429 25.5561 37.4589 25.6991C37.5813 25.8488 37.7282 26.0242 37.8997 26.2234C38.0304 25.8998 38.141 25.5682 38.2313 25.2308C38.2961 24.9484 38.3269 24.6592 38.3233 24.3693C38.3272 23.8823 38.2395 23.3991 38.0644 22.9459C37.9018 22.5237 37.6583 22.1387 37.3482 21.8134C37.0374 21.4923 36.665 21.2403 36.254 21.0733C35.8121 20.8944 35.3409 20.8048 34.8653 20.8095C34.0078 20.8095 33.2848 21.0905 32.6961 21.6525C32.1078 22.2144 31.734 22.9824 31.5746 23.9564C31.8708 23.8185 32.1783 23.7081 32.4935 23.6266C32.7656 23.5677 33.0431 23.5394 33.3213 23.5422C34.2656 23.5444 35.2281 23.8951 36.2085 24.5942ZM34.8292 28.1745C35.0476 28.1807 35.265 28.149 35.473 28.0809C35.7075 27.9839 35.9303 27.8583 36.1354 27.7069C35.8837 27.3674 35.6005 27.0537 35.2889 26.7702C35.0118 26.5328 34.7021 26.3373 34.3701 26.1898C33.9404 25.9773 33.4685 25.8683 32.9908 25.8712C32.8089 25.8689 32.6274 25.8846 32.4483 25.918C32.2586 25.9596 32.0713 26.0127 31.8876 26.077C32.1296 26.6945 32.5457 27.2255 33.0828 27.6033C33.5924 27.9746 34.2029 28.1743 34.8292 28.1745Z" fill="#231F20"/>
</svg>
