<svg width="50" height="50" viewBox="0 0 50 50" fill="none" xmlns="http://www.w3.org/2000/svg">
<path d="M36.3184 6.70452C45.584 11.7613 47.7414 23.0985 41.294 34.57C35.6285 44.6528 23.2568 48.9592 14.038 43.8268C4.81771 38.6916 3.01838 24.3683 6.981 16.1265C12.7342 4.15652 26.0808 1.11573 36.3184 6.70452Z" fill="#007FA3"/>
<path d="M36.1035 15.4027C37.9175 17.2577 38.4817 20.0717 38.1674 22.3803C37.8064 25.0123 36.1401 27.4483 33.3702 29.0624C31.1733 30.3448 28.2865 30.8544 25.4464 30.8796C25.423 31.3108 25.3339 32.7962 25.2886 33.0314C25.2228 33.3772 25.0956 33.5648 24.9407 33.758C24.6352 34.1402 24.1061 34.3852 23.5798 34.5294C23.1633 34.6414 22.7496 34.6918 22.4558 34.6918C22.4076 34.6918 22.3593 34.6876 22.3111 34.6834C22.0027 34.6498 21.6592 34.5098 21.4473 34.2844C21.2353 34.0562 21.1155 33.7706 21.0877 33.4458L21.0643 33.1518C21.0044 32.8998 20.6755 20.1095 20.7383 20.3377C20.7866 18.8047 23.3694 18.5387 24.7711 18.8089C26.1758 19.0791 25.8206 20.7143 25.7826 22.7233C25.7826 22.7233 25.7154 25.3651 25.5853 28.1567C27.3744 28.0909 28.7951 27.6023 30.1238 26.9709C32.8089 25.6941 34.2297 23.7383 34.2297 20.8585C34.2297 17.9787 31.3034 14.7531 25.9025 14.7531C20.5015 14.7531 18.1833 16.0579 15.5684 18.1299C14.9793 18.5975 14.5247 19.0679 14.0965 19.3773C13.6667 19.6867 12.5252 19.7343 12.2211 19.0091C11.8513 18.1355 12.5398 17.1611 12.9447 16.6893C13.5805 15.9487 15.1459 14.4577 16.8824 13.5911C18.8718 12.5971 21.304 11.5261 24.6907 11.4435C27.7544 11.3707 32.5926 11.6073 36.0772 15.3775M24.3896 36.579C24.1075 36.369 23.7918 36.2248 23.4717 36.1646C23.3635 36.1436 23.251 36.1324 23.1413 36.1324C22.5391 36.1324 21.9472 36.4502 21.5613 36.9836C21.2397 37.426 21.1067 37.9566 21.1915 38.469C21.247 38.798 21.3742 39.0822 21.5642 39.2936C21.7761 39.5316 22.1006 39.715 22.5041 39.8256C22.7365 39.8872 22.9747 39.9208 23.213 39.9208H23.2145C23.7348 39.9208 24.2026 39.7696 24.5665 39.4896C24.9889 39.1578 25.2184 38.6888 25.214 38.1638C25.2082 37.5548 24.9012 36.9598 24.3896 36.579Z" fill="white"/>
</svg>
