<svg width="50" height="50" viewBox="0 0 50 50" fill="none" xmlns="http://www.w3.org/2000/svg">
<path d="M43.7281 41.9993C43.7285 43.1041 42.833 44 41.7281 44H21.6782C21.6915 40.9814 21.7022 37.9628 21.7154 34.9442L43.7209 22L43.7281 41.9993Z" fill="#0123FF"/>
<path d="M16.8207 15.6472L16.8978 44H8.25793C7.15218 44 6.25627 43.1062 6.25757 42.0004C6.27088 30.6947 6.27107 9.46015 6.27107 9.46015L16.8207 15.6472Z" fill="#0123FF"/>
<path d="M41.7986 6C42.9029 6 43.7983 6.89512 43.7986 7.99949L43.8007 16.5C42.3597 17.2879 35.2467 20.8066 35.2467 20.8066C30.5007 18.0744 25.8025 15.2618 21.0698 12.5028C17.4001 10.3652 13.4159 8.53556 10 6.00001L41.7986 6Z" fill="#0123FF"/>
<path d="M21.7102 18.3339C24.8007 20.1296 27.8939 21.9225 31.3484 23.9296C27.9523 25.8456 24.8087 27.6199 21.6651 29.3914C21.6783 25.7065 21.6943 22.0189 21.7076 18.3339H21.7102Z" fill="#0224FD"/>
</svg>
