<svg width="50" height="50" viewBox="0 0 50 50" fill="none" xmlns="http://www.w3.org/2000/svg">
<path d="M20.7365 20.6707H23.6021L22.0838 18.2275L19.2974 22.6376H18.0294L21.4101 17.3431C21.5551 17.1315 21.8064 17 22.0702 17C22.3341 17 22.5854 17.1324 22.7169 17.3305L26.1102 22.6385H24.8431L24.2487 21.6479H21.3435L20.7365 20.6707ZM33.8885 21.6614V17.0531H32.8186V22.1108C32.8186 22.2432 32.8718 22.3881 32.9771 22.48C33.0825 22.5854 33.2149 22.6385 33.3734 22.6385H38.2725L38.9065 21.6479L33.8885 21.6614ZM16.1156 20.8293C17.1585 20.8293 18.0041 19.9845 18.0041 18.9407C18.0041 17.897 17.1585 17.0531 16.1156 17.0531H11.4146V22.6385H12.4845V18.0429H16.0499C16.5515 18.0429 16.9478 18.4526 16.9478 18.9407C16.9478 19.4289 16.538 19.8521 16.0499 19.8521H13.0258L16.2345 22.6511H17.7925L15.6266 20.8293H16.1156ZM4.79899 22.6511H8.04737C9.59186 22.6511 10.8338 21.3966 10.8338 19.8647C10.8338 18.3329 9.59276 17.0657 8.04737 17.0657H4.79899C3.2545 17.0657 2 18.3202 2 19.8656C2.01351 21.3975 3.26801 22.6511 4.79899 22.6511ZM7.98163 21.6605H4.87824C3.875 21.6605 3.06898 20.8554 3.06898 19.8512C3.06898 18.8471 3.875 18.0429 4.87824 18.0429H7.98163C8.98487 18.0429 9.79089 18.848 9.79089 19.8521C9.79089 20.8563 8.98577 21.6605 7.98163 21.6605ZM28.3824 22.6511H31.6965L32.3305 21.674H28.4616C27.4584 21.674 26.6524 20.8689 26.6524 19.8647C26.6524 18.8606 27.4575 18.0555 28.4616 18.0555H31.6173L32.2513 17.0648H28.3959C26.8514 17.0648 25.5969 18.3193 25.5969 19.8638C25.5834 21.3957 26.8379 22.6502 28.3833 22.6502L28.3824 22.6511ZM41.5209 21.6605C40.6888 21.6605 39.989 21.1057 39.7783 20.3402H44.373L45.007 19.3496H39.7783C39.9899 18.5841 40.6897 18.0294 41.5209 18.0294H44.6765L45.3105 17.0387H41.4552C39.9107 17.0387 38.6562 18.2932 38.6562 19.8377C38.6562 21.3822 39.9107 22.6241 41.4552 22.6241H44.7693L45.4033 21.647L41.5209 21.6605ZM45.8779 17.6592C45.8779 17.3818 46.1021 17.1702 46.3795 17.1702C46.6569 17.1702 46.8676 17.3945 46.8676 17.6592C46.8676 17.9366 46.656 18.1473 46.3795 18.1473C46.103 18.1473 45.8779 17.9231 45.8779 17.6592ZM46.3795 18.2797C46.7226 18.2797 47 18.0023 47 17.6592C47 17.3161 46.7226 17.0252 46.3795 17.0252C46.0364 17.0252 45.7455 17.3026 45.7455 17.6592C45.7455 18.0159 46.0364 18.2797 46.3795 18.2797ZM46.3138 17.2765C46.4065 17.2765 46.4461 17.2765 46.4984 17.29C46.6173 17.3296 46.6308 17.4485 46.6308 17.4881C46.6308 17.5016 46.6308 17.5142 46.6173 17.5412C46.6173 17.5674 46.5911 17.6205 46.5245 17.6601C46.511 17.6601 46.511 17.6736 46.4984 17.6736L46.6569 17.9645H46.4984L46.3534 17.6871H46.2876V17.9645H46.1427V17.2639H46.3147M46.3678 17.607C46.4074 17.607 46.4606 17.607 46.4867 17.5674C46.5002 17.5539 46.5128 17.5277 46.5128 17.5142C46.5128 17.4746 46.4867 17.4485 46.4597 17.4215C46.42 17.408 46.3939 17.408 46.3273 17.408H46.2876V17.6187L46.3669 17.6052L46.3678 17.607Z" fill="#ED1C24"/>
<path d="M45.4024 25.3448H2V25.6744H45.4024V25.3448Z" fill="black"/>
<path d="M21.8073 31.5047V28.4779H21.0301V32.1288H23.4364V31.5047H21.8073Z" fill="black"/>
<path d="M26.5218 29.1029V28.4779H24.1164V32.1288H26.5218V31.5047H24.8936V30.6159H26.3264V29.9909H24.8936V29.1029H26.5218Z" fill="black"/>
<path d="M12.9069 29.1029V28.4779H10.5005V32.1288H12.9069V31.5047H11.2786V30.6159H12.7115V29.9909H11.2786V29.1029H12.9069Z" fill="black"/>
<path d="M40.7986 28.4779H37.8096V29.1029H38.9065V32.1288H39.6837V29.1029H40.7986V28.4779Z" fill="black"/>
<path d="M37.3341 29.1029V28.4779H34.9278V32.1288H35.705V30.6159H37.1387V29.9909H35.705V29.1029H37.3341Z" fill="black"/>
<path d="M32.4206 28.4013C31.4588 28.4013 30.6726 29.1875 30.6726 30.1494V30.4546C30.6726 31.4165 31.4588 32.2027 32.4206 32.2027C33.3824 32.2027 34.1686 31.4165 34.1686 30.4546V30.1494C34.1686 29.1875 33.3824 28.4013 32.4206 28.4013ZM33.2581 30.7239C33.2581 31.2048 32.8646 31.5993 32.3827 31.5993C31.9009 31.5993 31.5074 31.2057 31.5074 30.7239V29.8864C31.5074 29.4055 31.9009 29.011 32.3827 29.011C32.8646 29.011 33.2581 29.4046 33.2581 29.8864V30.7239Z" fill="black"/>
<path d="M15.2016 28.4013C14.2397 28.4013 13.4535 29.1875 13.4535 30.1494V30.4546C13.4535 31.4165 14.2397 32.2027 15.2016 32.2027C16.1634 32.2027 16.9496 31.4165 16.9496 30.4546V30.1494C16.9496 29.1875 16.1634 28.4013 15.2016 28.4013ZM16.0391 30.7239C16.0391 31.2048 15.6455 31.5993 15.1637 31.5993C14.6819 31.5993 14.2884 31.2057 14.2884 30.7239V29.8864C14.2884 29.4055 14.6819 29.011 15.1637 29.011C15.6455 29.011 16.0391 29.4046 16.0391 29.8864V30.7239Z" fill="black"/>
<path d="M19.2794 28.4779H17.7556V32.1288H18.5328V30.7329H19.2785C19.8728 30.7329 20.3592 30.2466 20.3592 29.6522V29.5586C20.3592 28.9642 19.8737 28.4779 19.2794 28.4779ZM19.5711 29.5631C19.5711 29.8477 19.3388 30.08 19.0542 30.08H18.6616C18.6174 30.08 18.5742 30.0737 18.5337 30.0629V29.0633C18.5751 29.0525 18.6174 29.0461 18.6616 29.0461H19.0542C19.3388 29.0461 19.5711 29.2785 19.5711 29.5631Z" fill="black"/>
<path d="M8.7147 28.4779H7.19093V32.1288H7.96812V30.7329H8.7138C9.30818 30.7329 9.79449 30.2466 9.79449 29.6522V29.5586C9.79449 28.9642 9.30908 28.4779 8.7147 28.4779ZM9.00649 29.5631C9.00649 29.8477 8.77414 30.08 8.48956 30.08H8.0969C8.05278 30.08 8.00955 30.0737 7.96902 30.0629V29.0633C8.01045 29.0525 8.05278 29.0461 8.0969 29.0461H8.48956C8.77414 29.0461 9.00649 29.2785 9.00649 29.5631Z" fill="black"/>
<path d="M29.9701 29.4892C29.7188 29.5018 29.174 29.4811 29.174 29.4811C29.174 29.4811 29.1659 29.2929 29.0488 29.1776C28.8273 28.9597 28.6219 28.9786 28.4238 29.0182C28.2761 29.0479 28.114 29.2587 28.1086 29.3839C28.0951 29.6594 28.3275 29.7864 28.5049 29.8711C28.7579 29.9909 29.0497 30.026 29.3217 30.1088C29.7206 30.2313 30.0214 30.4537 30.0602 30.9094C30.1007 31.3931 29.9044 31.7677 29.4766 31.9838C28.9155 32.2684 28.3211 32.2891 27.7331 32.0658C27.2711 31.8902 27.0865 31.5326 27.1378 30.968C27.3701 30.968 27.6601 30.9797 27.897 30.9797C27.8871 31.5507 28.513 31.7056 28.9615 31.4984C29.1119 31.4291 29.1938 31.2886 29.2001 31.1427C29.2055 31.0139 29.0164 30.8194 28.8678 30.7536C28.5427 30.6077 28.1915 30.5861 27.8556 30.4619C27.4557 30.3142 27.1981 29.9818 27.2044 29.5361C27.2107 29.075 27.4269 28.7291 27.8601 28.5526C28.3653 28.3455 28.8813 28.3347 29.3892 28.5463C29.7774 28.7075 29.9458 29.0236 29.971 29.4901L29.9701 29.4892Z" fill="black"/>
</svg>
