<svg width="50" height="50" viewBox="0 0 50 50" fill="none" xmlns="http://www.w3.org/2000/svg">
<path d="M43.5499 24.9999L30.9818 13.9379C28.348 11.6046 24.9623 10.25 21.1991 10.25C13.0715 10.25 6.44922 16.8723 6.44922 24.9999C6.44922 33.1274 13.0715 39.7497 21.1991 39.7497C24.9615 39.7497 28.3488 38.3206 30.9818 36.0627L43.5499 24.9999ZM10.8889 24.9999C10.8889 19.3563 15.4793 14.6905 21.1991 14.6905C26.8427 14.6905 31.5092 19.2809 31.5092 24.9999C31.5092 30.6443 26.918 35.3108 21.1983 35.3108C19.8432 35.3148 18.5007 35.0509 17.2481 34.5341C15.9954 34.0173 14.8573 33.2579 13.8992 32.2996C12.9412 31.3413 12.1821 30.203 11.6656 28.9502C11.1491 27.6975 10.8846 26.3549 10.8889 24.9999Z" fill="#E5173F"/>
</svg>
