<svg width="50" height="50" viewBox="0 0 50 50" fill="none" xmlns="http://www.w3.org/2000/svg">
<path d="M24.4968 7C24.0426 7 23.5957 7.1266 23.2085 7.35H23.216L10.3032 14.8043C9.9076 15.0335 9.57906 15.3625 9.35039 15.7585C9.12171 16.1544 9.00089 16.6034 9 17.0606L9.02234 41.2553C9.02234 41.6277 9.32021 41.9255 9.69255 41.9255C9.8117 41.9255 9.93085 41.8957 10.0277 41.8362L16.4394 38.1351C16.6628 38.0383 16.916 38.0383 17.1319 38.1351L17.1766 38.1649C17.1766 38.1649 17.2064 38.1798 17.2213 38.1947L23.2457 41.65C23.633 41.8734 24.0649 41.9926 24.5043 42H24.5862C25.033 41.9926 25.4649 41.8734 25.8447 41.65L38.7649 34.1883C39.1613 33.9581 39.4904 33.6278 39.7191 33.2306C39.9478 32.8333 40.0681 32.3829 40.0681 31.9245L40.0532 17.0309C40.0532 16.1 39.5543 15.2362 38.7426 14.7745L25.8149 7.35C25.4202 7.1266 24.9809 7.00745 24.5266 7H24.4968Z" fill="#2929FF"/>
<path d="M24.5713 24.5745L24.534 24.5522L24.5489 35.3203L33.9021 29.9511L33.8947 19.1756L24.5713 24.5745Z" fill="url(#paint0_linear_9176_14527)"/>
<path d="M15.1809 29.9735L24.5341 35.3203H24.5489L24.5341 24.5596L15.166 19.1756L15.1809 29.9735Z" fill="url(#paint1_linear_9176_14527)"/>
<path d="M24.5713 24.5745L24.534 24.5522L24.5489 35.3203L33.9021 29.9511L33.8947 19.1756L24.5713 24.5745Z" fill="#D871BB"/>
<path d="M15.1809 29.9735L24.5341 35.3203H24.5489L24.5341 24.5596L15.166 19.1756L15.1809 29.9735Z" fill="#E089BF"/>
<path d="M15.166 19.1236V19.1831L24.5341 24.5672L24.5713 24.5895L33.8947 19.1906L24.5117 13.6799L15.166 19.1236Z" fill="#F9BDEB"/>
<defs>
<linearGradient id="paint0_linear_9176_14527" x1="112.895" y1="-3.90873" x2="-79.2763" y2="140.643" gradientUnits="userSpaceOnUse">
<stop stop-color="#DCE7F5"/>
<stop offset="1" stop-color="#E2E9F6"/>
</linearGradient>
<linearGradient id="paint1_linear_9176_14527" x1="137.722" y1="-11.945" x2="-54.3647" y2="132.313" gradientUnits="userSpaceOnUse">
<stop stop-color="#DCE7F5"/>
<stop offset="1" stop-color="#E2E9F6"/>
</linearGradient>
</defs>
</svg>
