<svg width="50" height="50" viewBox="0 0 50 50" fill="none" xmlns="http://www.w3.org/2000/svg">
<path d="M22.3703 5.18377C22.5943 4.23997 23.1084 3.25734 23.7074 3.04478C23.6948 2.6572 19.8389 4.82674 19.6539 7.95344C19.6282 8.56628 19.664 9.18017 19.7609 9.78568C21.1546 10.7518 22.9599 11.3538 27.06 11.6313C23.7376 8.56822 22.0469 7.66578 22.3703 5.18377Z" fill="#FFDC32"/>
<path d="M27.1758 26.6678C26.2024 26.0677 26.113 24.5161 26.2514 23.2948C26.7957 20.8879 26.1929 20.4946 24.2347 18.8177C23.0474 17.8153 21.9213 16.741 20.8626 15.6006C17.763 15.0876 15.9162 13.5641 15.3568 12.766C14.9266 12.2468 14.8676 11.4619 15.2152 10.8829C14.7442 10.1632 14.0587 14.7179 14.2374 15.367C15.0888 17.8325 17.5371 19.9282 19.7911 20.7664C25.726 23.0778 24.8023 24.6689 26.0023 25.9493C26.387 26.4246 26.9339 26.7369 27.5351 26.8244C27.4099 26.7858 27.2894 26.7337 27.1758 26.6678Z" fill="#FFDC32"/>
<path d="M22.0997 15.7552C20.8785 13.9722 20.0781 11.9295 19.7602 9.78441C18.8549 9.12309 16.3313 7.58232 16.4177 6.14285C16.4255 6.07727 16.4779 8.32218 16.7512 9.21609C17.5505 11.7268 19.0933 13.7017 20.8626 15.6006C21.2735 15.6698 21.6866 15.7037 22.0997 15.7521" fill="#FFEB82"/>
<path d="M25.307 13.0779C24.9208 14.0663 25.1358 15.2491 25.8443 16.034C27.8931 18.3251 29.8444 18.2933 30.9537 20.4526C31.286 21.1011 31.6163 21.9622 31.3678 23.9007C31.3018 24.759 30.9175 25.5604 30.2918 26.1441C32.1096 24.8566 32.9761 21.7445 32.3349 18.5905C31.7743 15.9544 31.2287 14.7083 27.5804 12.1169C27.4029 11.9489 27.233 11.7904 27.06 11.6326C22.9599 11.3557 21.1546 10.7537 19.7609 9.78695C20.0787 11.932 20.8788 13.9747 22.0997 15.7578C21.6872 15.7056 21.2738 15.6724 20.8626 15.6063C21.9213 16.7467 23.0474 17.8211 24.2347 18.8234C26.1929 20.4997 26.7964 20.8937 26.2514 23.3006C26.113 24.5206 26.2017 26.0728 27.1758 26.6736C27.9428 27.1199 29.0734 26.8239 29.8003 26.4355C29.2055 26.6743 28.5823 26.4119 28.2536 25.8808C27.614 24.8473 28.1991 23.1997 28.0567 22.0538C27.7849 19.9028 24.4071 18.1125 24.056 16.0976C23.8371 14.9394 24.8625 14.0507 25.3063 13.081" fill="#FFC300"/>
<path d="M33.7224 13.186C31.9487 11.7308 29.2414 11.7769 27.06 11.6326C27.2324 11.7904 27.4029 11.9508 27.5804 12.1169C31.23 14.7071 31.7743 15.9538 32.3349 18.5905C32.9761 21.7445 32.1096 24.8566 30.2918 26.1441C30.1779 26.2254 30.0594 26.2991 29.9369 26.3662C29.2164 26.7767 28.3574 26.9456 27.537 26.825C27.6837 26.8716 27.8353 26.9009 27.9888 26.9122C30.7203 27.1031 34.0112 24.0013 34.9318 22.0379C35.8523 20.0746 37.2599 15.8011 33.7243 13.186" fill="#FFEB82"/>
<path d="M30.9537 20.4507C29.8438 18.2914 27.8925 18.3264 25.8443 16.0321C25.1358 15.2472 24.9208 14.0644 25.307 13.0759C24.8637 14.0468 23.8383 14.9335 24.0567 16.0925C24.409 18.1074 27.7855 19.8977 28.0573 22.0487C28.2606 23.6837 27.9491 23.9376 28.0341 25.0685C27.9811 27.6861 31.2124 25.917 31.3659 23.8982C31.6176 21.9596 31.2841 21.0979 30.9518 20.4501" fill="#FFDC32"/>
<path d="M20.2246 35.2664C21.041 34.7765 21.9856 34.8978 22.8856 35.0125L23.0631 33.6079C22.7994 33.5742 22.5496 33.5487 22.308 33.5297L22.2331 28.6057C23.8886 30.9503 26.8052 31.2748 29.2743 30.9891L25.0597 35.4815L27.1758 35.2041L32.3437 30.0625L31.5609 28.7998C27.9989 30.0747 23.3615 28.8865 22.1809 24.9737L20.4272 24.688L20.694 33.585C20.2387 33.6636 19.8055 33.8403 19.4236 34.1031C18.6935 34.6851 18.1355 35.4587 17.8102 36.3394L19.0888 36.9198C19.313 36.2765 19.7042 35.7061 20.2215 35.2683" fill="#888B8D"/>
<path d="M20.027 44.8935L19.0423 44.504L19.9484 42.2867L18.4382 41.6503L16.9148 45.43L20.823 47C20.823 47 21.9556 44.3703 22.8026 42.2333L21.132 42.0519C20.5468 43.5258 20.0667 44.7986 20.0264 44.8947" fill="#888B8D"/>
<path d="M23.8257 36.5953C22.7787 36.5546 21.7901 36.348 20.8085 35.9926L20.2831 37.275C21.3911 37.7185 22.5839 37.9603 23.7754 38.0107C25.0892 38.0616 26.3993 37.838 27.6238 37.3539L27.1248 36.0365C26.0746 36.4488 24.9514 36.6389 23.8257 36.5953Z" fill="#888B8D"/>
<path d="M20.1579 37.5893L19.6482 38.8304C20.6983 39.4059 21.8732 39.7087 23.0675 39.7118C23.8967 39.7653 24.7292 39.7325 25.5517 39.6138C25.5517 39.6138 25.3277 38.3206 25.3202 38.2614C24.0638 38.4046 21.1861 38.6293 20.1579 37.5893Z" fill="#888B8D"/>
<path d="M22.9052 40.0663C21.7446 40.0203 20.5149 39.7915 19.4865 39.2287L18.9472 40.5404C20.1713 41.1236 21.5016 41.4439 22.8542 41.481C23.262 41.4959 23.6704 41.4846 24.0768 41.4473L23.9572 40.0364C23.6073 40.0683 23.2557 40.0778 22.9045 40.065" fill="#888B8D"/>
</svg>
