<svg width="50" height="50" viewBox="0 0 50 50" fill="none" xmlns="http://www.w3.org/2000/svg">
<path d="M36.173 33.9946C36.7944 32.0188 37.5967 30.1278 38.3504 28.211C38.4927 27.8519 38.7339 27.8427 39.0203 27.8427C39.903 27.8335 40.784 27.8077 41.665 27.7893V28.3417C41.0285 28.7376 40.8862 29.3581 40.9012 30.1186C40.9331 31.8218 40.9381 33.5269 40.9012 35.2301C40.8845 36.02 41.0302 36.6682 41.6667 37.1083V37.4765H37.5079L37.3186 37.2206C38.9114 37.1083 38.6083 35.9317 38.6167 34.9429C38.6317 33.0886 38.6167 31.2344 38.5329 29.3342C37.4911 31.1608 37.0255 33.3004 36.0289 35.1473C35.9779 35.1315 35.9304 35.1044 35.8894 35.0675C35.8484 35.0306 35.8148 34.9847 35.7907 34.9328C35.7666 34.8809 35.7526 34.8241 35.7495 34.7659C35.7464 34.7077 35.7543 34.6495 35.7727 34.5949C35.8726 34.5294 35.9595 34.4425 36.0283 34.3394C36.0971 34.2363 36.1463 34.119 36.173 33.9946Z" fill="#014553"/>
<path d="M24.2159 23.1896H20.9314C21.665 22.6906 21.5846 21.9394 21.5796 21.1955C21.5645 19.2197 21.5796 17.244 21.5679 15.2701C21.5679 14.7895 21.7353 14.1873 21.0486 14.0235C21.0226 14.0133 20.9988 13.9974 20.9785 13.9768C20.9582 13.9562 20.942 13.9313 20.9307 13.9036C20.9194 13.8759 20.9134 13.8459 20.9129 13.8156C20.9125 13.7852 20.9176 13.7551 20.928 13.727C20.9699 13.5779 21.0855 13.5705 21.1927 13.5687C21.8626 13.5687 22.5225 13.5539 23.1858 13.5687C23.5693 13.5687 23.499 13.9148 23.5007 14.1763C23.5007 15.2093 23.5007 16.2423 23.5007 17.3876C23.7854 17.1666 24.0032 16.9733 24.2427 16.8149C25.5524 15.9403 26.9627 16.7431 27.0197 18.4132C27.0548 19.4757 27.0297 20.54 27.0381 21.6042C27.0381 22.083 26.961 22.6041 27.5087 22.8379C27.5355 22.8448 27.5605 22.8579 27.5822 22.8764C27.6039 22.8949 27.6217 22.9183 27.6344 22.9451C27.6471 22.9718 27.6545 23.0012 27.6559 23.0314C27.6573 23.0615 27.6528 23.0916 27.6427 23.1197C27.5958 23.278 27.4752 23.2467 27.3697 23.2486C26.4452 23.2486 25.5273 23.2486 24.5341 23.1639C25.323 22.6557 25.189 21.8749 25.184 21.1384C25.184 20.2877 25.194 19.4351 25.1756 18.5863C25.1639 18.0854 25.0985 17.5275 24.4906 17.5644C23.9663 17.5957 23.5241 17.8976 23.5141 18.5679C23.494 19.7537 23.5375 20.9395 23.499 22.1235C23.4839 22.6483 23.8859 22.7367 24.2159 23.1896Z" fill="#01D501"/>
<path d="M20.2279 19.4702C20.1927 18.3064 19.8728 17.3011 18.8779 16.7413C17.883 16.1815 17.0187 16.4485 16.2567 17.2937C16.1545 17.012 16.317 16.6382 15.8949 16.6455C15.2584 16.6584 14.622 16.6455 13.9855 16.6455C13.8817 16.6455 13.7577 16.629 13.7225 16.7892C13.7131 16.8258 13.7108 16.8641 13.7158 16.9017C13.7207 16.9394 13.7329 16.9754 13.7514 17.0076C13.7698 17.0397 13.7943 17.0672 13.8231 17.0883C13.8519 17.1093 13.8844 17.1235 13.9185 17.1298C14.3741 17.2808 14.3657 17.6822 14.3657 18.0855C14.3657 20.3024 14.3657 22.5188 14.3657 24.7345C14.3657 25.1801 14.3423 25.5981 13.8632 25.7528C13.7477 25.7915 13.6522 25.8504 13.6639 25.9922C13.679 26.1947 13.8314 26.2021 13.9704 26.2021C14.9385 26.2021 15.9066 26.2021 16.8747 26.2021C17.007 26.2021 17.1678 26.2021 17.1745 25.9959C17.1745 25.8449 17.0723 25.8117 16.9568 25.7859C16.3304 25.6939 16.2701 25.1636 16.2483 24.6369C16.2232 24.0661 16.2483 23.4953 16.2483 22.8287C17.9232 23.8783 19.2179 23.4364 19.9331 21.689C20.2178 20.9819 20.2496 20.2361 20.2279 19.4702ZM17.883 22.048C17.6083 22.8674 16.9752 22.7993 16.3756 21.9688C16.1587 20.699 16.1587 19.3958 16.3756 18.126C16.4074 17.9932 16.4706 17.8722 16.5589 17.7751C16.6472 17.678 16.7573 17.6085 16.8781 17.5736C17.136 17.3765 17.3956 17.2532 17.6535 17.5736C18.5211 19.0172 18.3821 20.54 17.8796 22.0407L17.883 22.048Z" fill="#00D500"/>
<path d="M34.5099 17.9271C34.2911 17.3773 33.8963 16.9349 33.4005 16.6838C32.9047 16.4326 32.3423 16.3902 31.82 16.5645C31.423 16.6989 31.0345 17.5754 30.5605 16.6603C30.5605 16.6455 30.5085 16.6603 30.4801 16.6603C29.8436 16.6603 29.2055 16.6603 28.569 16.6603C28.4601 16.6603 28.3395 16.6603 28.301 16.8094C28.2919 16.8383 28.2882 16.8689 28.29 16.8994C28.2918 16.9299 28.2992 16.9597 28.3117 16.987C28.3242 17.0143 28.3415 17.0385 28.3627 17.0583C28.3839 17.0781 28.4085 17.093 28.435 17.1022C29.0681 17.3029 28.9593 17.8737 28.9609 18.3727C28.971 20.1367 28.9777 21.9007 28.9609 23.6647C28.9526 24.543 29.254 25.5447 28.2725 26.1321H31.9255C30.6442 25.1893 30.8753 25.6902 30.8686 22.8932C32.5234 23.8138 33.6591 23.5284 34.4044 21.9725C34.7082 21.3541 34.876 20.6661 34.8943 19.9636C34.9126 19.2611 34.781 18.5636 34.5099 17.9271ZM32.701 21.7147C32.5335 22.2524 32.2873 22.6796 31.7145 22.5709C31.1768 22.4678 30.8335 22.118 30.8452 21.4477C30.8603 20.5087 30.8452 19.5696 30.8452 18.6323C30.8452 17.8958 31.2455 17.4926 31.8502 17.4115C32.4548 17.3305 32.6122 17.8406 32.7311 18.3838C32.8335 18.9168 32.8762 19.4615 32.8584 20.006C32.8915 20.5812 32.8384 21.1585 32.701 21.7147Z" fill="#00D500"/>
<path d="M35.8431 34.5691L36.029 35.1418C36.1094 35.9538 35.694 36.6148 35.3841 37.263C35.1262 37.7896 34.9269 37.3164 34.8096 37.0199C34.0615 35.1258 33.3162 33.2298 32.5736 31.332L31.9857 29.824C31.8534 29.7816 31.7714 29.8387 31.773 29.9879C31.7948 32.1238 31.6809 34.2634 31.83 36.3975C31.9472 37.1046 32.6021 37.0107 32.9806 37.4066H30.0462C31.5218 37.0531 31.16 35.7881 31.1701 34.7311C31.1851 33.2433 31.1701 31.7537 31.1701 30.2659C31.1701 28.6879 31.1701 28.6879 30.0395 27.8501C30.7765 27.8501 31.5185 27.9108 32.2487 27.8335C33.0309 27.7506 33.4211 28.0508 33.6975 28.872C34.3005 30.6599 35.0106 32.4074 35.6772 34.1695C35.7547 34.2902 35.8109 34.4257 35.8431 34.5691Z" fill="#014453"/>
<path d="M22.5241 34.7072C22.4236 34.9632 22.3047 35.2154 22.2226 35.4787C21.829 36.7474 21.8759 36.8597 23.0249 37.4508H20.8593C20.8097 37.3957 20.7797 37.3228 20.7747 37.2454C20.7698 37.1681 20.7903 37.0913 20.8325 37.0291C21.8374 35.8415 22.0702 34.2432 22.6565 32.8346C23.2946 31.3026 23.8289 29.7209 24.4168 28.1631C24.4871 27.979 24.519 27.7046 24.7518 27.688C25.0398 27.6678 25.0867 27.9734 25.1604 28.1852C26.1269 30.6692 27.0765 33.1568 28.0563 35.6371C28.3126 36.2871 28.4918 37.0402 29.2405 37.3845H25.1001C25.0834 37.182 25.1939 37.1194 25.2994 37.1194C26.1369 37.1194 26.1972 36.6204 25.9694 35.9151C25.8656 35.6039 25.7718 35.2891 25.673 34.976C25.6378 34.6998 25.4 34.5894 25.2727 34.3905C25.1454 34.1916 25.1437 33.9191 24.998 33.7221C24.606 33.0021 24.4637 32.1496 23.9813 31.3799C23.4604 32.1312 23.3599 33.015 23.0283 33.7737C22.9527 33.9618 22.8911 34.1564 22.844 34.3555C22.8186 34.4371 22.7766 34.5112 22.7212 34.5721C22.6657 34.6331 22.5983 34.6793 22.5241 34.7072Z" fill="#014453"/>
<path d="M12.9454 28.1833C11.2705 28.1926 11.5736 29.3968 11.5669 30.393C11.5535 32.0023 11.5669 33.6116 11.5669 35.2191C11.5669 36.74 11.5669 36.74 12.9621 37.3771H8.42648C9.83507 36.9278 9.39793 35.661 9.41803 34.6317C9.45153 32.9634 9.41803 31.2934 9.41803 29.6251C9.41803 28.9917 9.40129 28.3748 8.63251 28.2791C8.4801 28.2607 8.37122 28.1778 8.41477 27.9826C8.45161 27.8224 8.58225 27.8537 8.68442 27.8537H12.7042L12.9454 28.1833Z" fill="#014553"/>
<path d="M39.5178 19.6543C38.6452 19.1019 37.8614 18.5348 37.7759 17.4079C37.7471 16.8013 37.7837 16.1931 37.8848 15.596C38.0389 14.5188 37.8195 13.6663 36.8397 13.2022C36.632 13.1046 36.5047 12.9573 36.5633 12.718C36.6303 12.416 36.843 12.5044 37.034 12.5504C38.6285 12.9187 39.9684 13.7841 39.4006 16.1834C39.3453 16.4191 39.3286 16.664 39.29 16.9033C39.0824 18.1923 39.1745 18.4335 40.223 19.1129C40.6032 19.3597 40.8678 19.6874 40.3687 19.9636C39.1343 20.6449 39.0656 21.6963 39.3872 22.9613C40.0086 25.3937 38.5347 26.2242 37.0859 26.5114C36.9184 26.5446 36.6889 26.7195 36.5834 26.4267C36.4779 26.1339 36.6621 25.9737 36.8815 25.8743C37.781 25.4674 37.93 24.6296 37.92 23.7034C37.9313 23.4564 37.9139 23.2089 37.8681 22.9669C37.4544 21.3373 38.1277 20.3153 39.5178 19.6543Z" fill="#01D401"/>
<path d="M9.2925 19.5475C10.8485 20.33 11.2605 21.6355 10.9038 23.3848C10.686 24.4546 10.8535 25.4618 11.9606 25.9351C12.0012 25.9453 12.0396 25.9642 12.0736 25.9907C12.1075 26.0173 12.1364 26.0509 12.1585 26.0898C12.1806 26.1286 12.1955 26.1719 12.2023 26.217C12.2092 26.2622 12.2079 26.3084 12.1985 26.3531C12.1365 26.6955 11.902 26.5372 11.7328 26.5169C9.93565 26.3549 9.02787 25.0439 9.36453 23.1049C9.42148 22.779 9.47005 22.4494 9.53202 22.1217C9.68276 21.2618 9.49851 20.5584 8.7649 20.0962C8.17199 19.7279 8.21553 19.2934 8.73977 18.9435C9.49683 18.4427 9.68443 17.7338 9.53034 16.8426C9.47842 16.5443 9.43151 16.246 9.39299 15.9458C9.14343 13.9406 9.9407 12.8156 11.7931 12.5375C11.9606 12.5117 12.1281 12.4197 12.1951 12.6738C12.2487 12.891 12.232 13.0973 11.9975 13.1986C10.8116 13.7104 10.7982 14.7913 10.897 15.9274C11.0779 18.1646 11.0361 18.2641 9.2925 19.5475Z" fill="#01D401"/>
<path d="M18.2013 33.085L17.4241 33.1144C17.1494 33.282 16.8044 33.0353 16.5448 33.2986C16.5448 33.8749 16.5582 34.4512 16.5582 35.0276C16.5582 36.5688 16.5582 36.5688 17.7775 37.4213H13.4228C14.7041 37.053 14.4763 35.9335 14.4562 34.9742C14.4143 32.8548 14.6069 30.7299 14.3389 28.616C14.3115 28.5473 14.3052 28.4706 14.3209 28.3975C14.3366 28.3244 14.3735 28.259 14.426 28.211C14.9285 27.7175 16.3137 27.9568 16.7106 28.6013C16.8396 29.5349 16.7391 30.4776 16.7759 31.4167C16.7893 31.7703 16.7223 32.1533 17.059 32.4037C17.3002 32.5399 17.5615 32.47 17.8194 32.5234C17.9093 32.53 17.9963 32.561 18.0726 32.6137C18.1489 32.6665 18.2121 32.7392 18.2565 32.8253C18.2672 32.8703 18.2678 32.9174 18.2582 32.9627C18.2485 33.0079 18.229 33.0499 18.2013 33.085Z" fill="#014453"/>
<path d="M18.203 32.9082C18.1689 32.8456 18.1193 32.7951 18.06 32.7624C18.0006 32.7298 17.934 32.7165 17.8681 32.7241C17.8321 32.6809 17.8124 32.6243 17.8128 32.5657C17.8128 32.5068 17.8128 32.4773 17.8262 32.4773C18.0995 32.1373 18.2984 31.733 18.4079 31.2955C18.5173 30.858 18.5343 30.3987 18.4576 29.9529C18.2901 28.8481 17.858 28.5148 16.8631 28.721C16.7585 28.7578 16.6461 28.7578 16.5415 28.721C16.1814 27.9679 14.9387 27.9016 14.3458 28.605L13.3626 28.1152C13.4514 28.0047 13.4982 27.8961 13.5468 27.8943C15.3406 27.8593 17.1395 27.7101 18.9233 28.0084C20.2632 28.2294 20.898 29.0211 20.9331 30.3414C20.9683 31.6616 20.3469 32.5234 19.0455 32.9193C18.9121 32.9819 18.7683 33.0133 18.6232 33.0114C18.4782 33.0095 18.3351 32.9743 18.203 32.9082Z" fill="#014553"/>
<path d="M22.5241 34.7072L22.6919 34.3666C23.1129 34.1692 23.5658 34.0675 24.0234 34.0675C24.4811 34.0675 24.934 34.1692 25.355 34.3666C25.4652 34.4098 25.5576 34.4952 25.6151 34.6072C25.6726 34.7192 25.6915 34.8503 25.6682 34.9764C25.3332 34.503 24.8508 34.7332 24.4321 34.7111C23.8023 34.678 23.1656 34.7054 22.5241 34.7072Z" fill="#004A59"/>
<path d="M35.8431 34.5691C35.781 34.5297 35.7316 34.4703 35.7017 34.3987C35.6717 34.3271 35.6626 34.2471 35.6756 34.1696C35.9805 34.5877 36.0207 34.1088 36.1681 33.9946C36.1932 34.2764 36.168 34.5267 35.8431 34.5691Z" fill="#0D4F5E"/>
<path d="M18.203 32.9082L19.0405 32.9082C18.7859 33.1274 18.4911 33.1072 18.203 33.0814C18.2013 33.0261 18.2014 32.9672 18.203 32.9082Z" fill="#1D5A67"/>
<path d="M16.5448 33.2932C16.781 32.8971 17.1193 33.1089 17.4241 33.1089L16.5448 33.2932Z" fill="#1D5A67"/>
<path d="M20.8393 37.0291L20.8661 37.451C20.7137 37.4694 20.5026 37.5707 20.4809 37.3036C20.4591 37.0623 20.6818 37.0623 20.8393 37.0291Z" fill="#064958"/>
<path d="M22.8392 33.8234C22.8945 34.3005 23.2345 34.1255 23.4706 34.1366C23.9028 34.1587 24.3382 34.1218 24.7704 34.1495C25.1338 34.1734 25.2728 34.0279 25.1841 33.6392C25.442 33.8234 25.3382 34.1145 25.3516 34.376H22.6918C22.7002 34.1716 22.6617 33.9634 22.8392 33.8234Z" fill="#064958"/>
<path d="M16.9971 32.702L17.8698 32.5436C17.8698 32.6044 17.8698 32.6634 17.8698 32.7278L16.9971 32.702Z" fill="#1D5A67"/>
</svg>
