<svg width="50" height="50" viewBox="0 0 50 50" fill="none" xmlns="http://www.w3.org/2000/svg">
<rect width="50" height="50" fill="#BC1F27"/>
<path d="M37.9141 7.5H12.9141V32.5H37.9141V7.5Z" fill="white"/>
<path d="M25.9781 11.9807C25.0383 11.4186 24.17 11.1122 21.3198 11.1122H16.9065V28.8674H20.2879V22.3292H22.137C23.9964 22.3292 24.7215 22.1248 25.4879 21.7366C27.3165 20.8171 28.3789 18.9273 28.3789 16.5778C28.3891 14.5345 27.5412 12.9 25.9781 11.9807ZM24.2925 18.4981C23.8328 19.2442 23.4241 19.4177 22.045 19.4177H20.2879V14.0034H22.4332C23.8533 14.0034 24.7012 15.0046 24.7012 16.6595C24.7011 17.4971 24.5786 18.0181 24.2925 18.4981Z" fill="#BC1F27"/>
<path d="M7.67221 37.5V43.5H6.91406V37.5H7.67221ZM10.0684 40.1992V40.8503H7.50723V40.1992H10.0684ZM10.4573 37.5V38.1511H7.50723V37.5H10.4573Z" fill="white"/>
<path d="M14.9944 42.853V43.5H11.9658V42.853H14.9944ZM12.119 37.5V43.5H11.3608V37.5H12.119ZM14.5938 40.0797V40.7266H11.9658V40.0797H14.5938ZM14.9551 37.5V38.1511H11.9658V37.5H14.9551Z" fill="white"/>
<path d="M17.481 43.5H16.2868L16.2947 42.853H17.481C17.8895 42.853 18.23 42.7637 18.5023 42.5852C18.7747 42.4038 18.979 42.1511 19.1151 41.8269C19.2539 41.5 19.3233 41.1181 19.3233 40.6813V40.3146C19.3233 39.9712 19.2841 39.6662 19.2055 39.3997C19.1269 39.1305 19.0117 38.9038 18.8598 38.7198C18.7079 38.533 18.522 38.3915 18.302 38.2953C18.0846 38.1992 17.8345 38.1511 17.5517 38.1511H16.2633V37.5H17.5517C17.9262 37.5 18.268 37.5659 18.577 37.6978C18.886 37.8269 19.1518 38.0151 19.3744 38.2624C19.5996 38.5069 19.7725 38.8036 19.8929 39.1525C20.0134 39.4986 20.0736 39.8887 20.0736 40.3228V40.6813C20.0736 41.1154 20.0134 41.5069 19.8929 41.8558C19.7725 42.2019 19.5983 42.4973 19.3705 42.7418C19.1453 42.9863 18.8729 43.1745 18.5534 43.3063C18.2365 43.4354 17.8791 43.5 17.481 43.5ZM16.6914 37.5V43.5H15.9333V37.5H16.6914Z" fill="white"/>
<path d="M24.8464 42.853V43.5H21.8178V42.853H24.8464ZM21.971 37.5V43.5H21.2128V37.5H21.971ZM24.4458 40.0797V40.7266H21.8178V40.0797H24.4458ZM24.8072 37.5V38.1511H21.8178V37.5H24.8072Z" fill="white"/>
<path d="M25.7853 37.5H27.6787C28.1082 37.5 28.4709 37.5687 28.7668 37.706C29.0654 37.8434 29.2919 38.0467 29.4464 38.3159C29.6035 38.5824 29.6821 38.9107 29.6821 39.3008C29.6821 39.5755 29.6284 39.8269 29.521 40.0549C29.4163 40.2802 29.2644 40.4725 29.0654 40.6319C28.8689 40.7885 28.6332 40.9052 28.3583 40.9821L28.1461 41.0687H26.3667L26.3588 40.4217H27.7023C27.9746 40.4217 28.2011 40.3723 28.3818 40.2734C28.5625 40.1717 28.6987 40.0357 28.7904 39.8654C28.882 39.6951 28.9279 39.5069 28.9279 39.3008C28.9279 39.0701 28.8847 38.8681 28.7982 38.6951C28.7118 38.522 28.5756 38.3887 28.3897 38.2953C28.2064 38.1992 27.9694 38.1511 27.6787 38.1511H26.5434V43.5H25.7853V37.5ZM29.1282 43.5L27.7376 40.7802L28.5272 40.7761L29.9374 43.4505V43.5H29.1282Z" fill="white"/>
<path d="M32.86 38.0316L30.9666 43.5H30.1928L32.3729 37.5H32.8718L32.86 38.0316ZM34.447 43.5L32.5497 38.0316L32.5379 37.5H33.0368L35.2248 43.5H34.447ZM34.3488 41.2788V41.9299H31.1355V41.2788H34.3488Z" fill="white"/>
<path d="M37.5935 37.5V43.5H36.8472V37.5H37.5935ZM39.432 37.5V38.1511H35.0127V37.5H39.432Z" fill="white"/>
<path d="M43.9141 42.853V43.5H40.8854V42.853H43.9141ZM41.0386 37.5V43.5H40.2804V37.5H41.0386ZM43.5134 40.0797V40.7266H40.8854V40.0797H43.5134ZM43.8748 37.5V38.1511H40.8854V37.5H43.8748Z" fill="white"/>
</svg>
