<svg width="50" height="50" viewBox="0 0 50 50" fill="none" xmlns="http://www.w3.org/2000/svg">
<path d="M39 6H11V34H39V6Z" fill="#BC1F27"/>
<path d="M25.6317 11.0183C24.5791 10.3889 23.6067 10.0457 20.4144 10.0457H15.4715V29.9315H19.2587V22.6087H21.3297C23.4122 22.6087 24.2244 22.3798 25.0827 21.945C27.1307 20.9151 28.3206 18.7986 28.3206 16.1671C28.3321 13.8786 27.3824 12.0481 25.6317 11.0183ZM23.7439 18.3179C23.2289 19.1535 22.7712 19.3478 21.2267 19.3478H19.2587V13.2838H21.6614C23.2519 13.2838 24.2015 14.4051 24.2015 16.2586C24.2015 17.1968 24.0643 17.7802 23.7439 18.3179Z" fill="white"/>
<path fill-rule="evenodd" clip-rule="evenodd" d="M12.6768 38.8906L15.3965 46H14.4297L13.7526 44.1396H10.7792L10.1035 46H9.1416L11.8516 38.8906H12.6768ZM11.0595 43.3682H13.4718L12.2644 40.051L11.0595 43.3682Z" fill="#1C1D1F"/>
<path d="M18.3262 45.3555C18.541 45.3555 18.7396 45.3115 18.9219 45.2236C19.1042 45.1357 19.2539 45.0153 19.3711 44.8623C19.4883 44.7061 19.555 44.5286 19.5713 44.3301H20.4307C20.4144 44.6426 20.3086 44.9339 20.1133 45.2041C19.9212 45.471 19.6689 45.6875 19.3564 45.8535C19.0439 46.0163 18.7005 46.0977 18.3262 46.0977C17.929 46.0977 17.5824 46.0277 17.2861 45.8877C16.9932 45.7477 16.749 45.5557 16.5537 45.3115C16.3617 45.0674 16.2168 44.7874 16.1191 44.4717C16.0247 44.1527 15.9775 43.8158 15.9775 43.4609V43.2559C15.9775 42.901 16.0247 42.5658 16.1191 42.25C16.2168 41.931 16.3617 41.6494 16.5537 41.4053C16.749 41.1611 16.9932 40.9691 17.2861 40.8291C17.5824 40.6891 17.929 40.6191 18.3262 40.6191C18.7396 40.6191 19.1009 40.7038 19.4102 40.873C19.7194 41.0391 19.9619 41.2669 20.1377 41.5566C20.3167 41.8431 20.4144 42.1686 20.4307 42.5332H19.5713C19.555 42.3151 19.4932 42.1182 19.3857 41.9424C19.2816 41.7666 19.1383 41.6266 18.9561 41.5225C18.777 41.415 18.5671 41.3613 18.3262 41.3613C18.0495 41.3613 17.8167 41.4167 17.6279 41.5273C17.4424 41.6348 17.2943 41.7812 17.1836 41.9668C17.0762 42.1491 16.998 42.3525 16.9492 42.5771C16.9036 42.7985 16.8809 43.0247 16.8809 43.2559V43.4609C16.8809 43.6921 16.9036 43.9199 16.9492 44.1445C16.9948 44.3691 17.0713 44.5726 17.1787 44.7549C17.2894 44.9372 17.4375 45.0837 17.623 45.1943C17.8118 45.3018 18.0462 45.3555 18.3262 45.3555Z" fill="#1C1D1F"/>
<path d="M24.1562 45.2236C23.974 45.3115 23.7754 45.3555 23.5605 45.3555C23.2806 45.3555 23.0462 45.3018 22.8574 45.1943C22.6719 45.0837 22.5238 44.9372 22.4131 44.7549C22.3057 44.5726 22.2292 44.3691 22.1836 44.1445C22.138 43.9199 22.1152 43.6921 22.1152 43.4609V43.2559C22.1152 43.0247 22.138 42.7985 22.1836 42.5771C22.2324 42.3525 22.3105 42.1491 22.418 41.9668C22.5286 41.7812 22.6768 41.6348 22.8623 41.5273C23.0511 41.4167 23.2839 41.3613 23.5605 41.3613C23.8014 41.3613 24.0114 41.415 24.1904 41.5225C24.3727 41.6266 24.516 41.7666 24.6201 41.9424C24.7275 42.1182 24.7894 42.3151 24.8057 42.5332H25.665C25.6488 42.1686 25.5511 41.8431 25.3721 41.5566C25.1963 41.2669 24.9538 41.0391 24.6445 40.873C24.3353 40.7038 23.974 40.6191 23.5605 40.6191C23.1634 40.6191 22.8167 40.6891 22.5205 40.8291C22.2275 40.9691 21.9834 41.1611 21.7881 41.4053C21.596 41.6494 21.4512 41.931 21.3535 42.25C21.2591 42.5658 21.2119 42.901 21.2119 43.2559V43.4609C21.2119 43.8158 21.2591 44.1527 21.3535 44.4717C21.4512 44.7874 21.596 45.0674 21.7881 45.3115C21.9834 45.5557 22.2275 45.7477 22.5205 45.8877C22.8167 46.0277 23.1634 46.0977 23.5605 46.0977C23.9349 46.0977 24.2783 46.0163 24.5908 45.8535C24.9033 45.6875 25.1556 45.471 25.3477 45.2041C25.543 44.9339 25.6488 44.6426 25.665 44.3301H24.8057C24.7894 44.5286 24.7227 44.7061 24.6055 44.8623C24.4883 45.0153 24.3385 45.1357 24.1562 45.2236Z" fill="#1C1D1F"/>
<path fill-rule="evenodd" clip-rule="evenodd" d="M28.873 46.0977C28.5052 46.0977 28.1715 46.0358 27.8721 45.9121C27.5758 45.7852 27.3203 45.6077 27.1055 45.3799C26.8939 45.152 26.7311 44.8818 26.6172 44.5693C26.5033 44.2568 26.4463 43.915 26.4463 43.5439V43.3389C26.4463 42.9092 26.5098 42.5267 26.6367 42.1914C26.7637 41.8529 26.9362 41.5664 27.1543 41.332C27.3724 41.0977 27.6198 40.9202 27.8965 40.7998C28.1732 40.6794 28.4596 40.6191 28.7559 40.6191C29.1335 40.6191 29.459 40.6842 29.7324 40.8145C30.0091 40.9447 30.2354 41.127 30.4111 41.3613C30.5869 41.5924 30.7171 41.8659 30.8018 42.1816C30.8864 42.4941 30.9287 42.8359 30.9287 43.207V43.6123H27.3553C27.361 43.8376 27.3949 44.0508 27.457 44.252C27.5286 44.4701 27.6312 44.6621 27.7646 44.8281C27.9014 44.9941 28.0658 45.1243 28.2578 45.2188C28.4531 45.3132 28.6745 45.3604 28.9219 45.3604C29.2409 45.3604 29.5111 45.2952 29.7324 45.165C29.9538 45.0348 30.1475 44.8607 30.3135 44.6426L30.8604 45.0771C30.7464 45.2497 30.6016 45.4141 30.4258 45.5703C30.25 45.7266 30.0335 45.8535 29.7764 45.9512C29.5225 46.0488 29.2214 46.0977 28.873 46.0977ZM27.457 42.4941C27.4239 42.6123 27.3989 42.7393 27.3818 42.875H30.0254V42.8066C30.0124 42.5723 29.9635 42.3444 29.8789 42.123C29.7975 41.9017 29.6673 41.7194 29.4883 41.5762C29.3092 41.4329 29.0651 41.3613 28.7559 41.3613C28.5508 41.3613 28.362 41.4053 28.1895 41.4932C28.0169 41.5778 27.8688 41.7048 27.7451 41.874C27.6214 42.0433 27.5254 42.25 27.457 42.4941Z" fill="#1C1D1F"/>
<path d="M34.9717 44.2373C35.0303 44.348 35.0596 44.4684 35.0596 44.5986C35.0596 44.7451 35.0156 44.8753 34.9277 44.9893C34.8398 45.1032 34.7113 45.1927 34.542 45.2578C34.376 45.3229 34.1693 45.3555 33.9219 45.3555C33.7363 45.3555 33.5492 45.3262 33.3604 45.2676C33.1715 45.2057 33.012 45.1032 32.8818 44.96C32.7516 44.8135 32.68 44.6165 32.667 44.3691H31.7588C31.7588 44.6621 31.8418 44.9404 32.0078 45.2041C32.1738 45.4678 32.418 45.6826 32.7402 45.8486C33.0625 46.0146 33.4564 46.0977 33.9219 46.0977C34.2311 46.0977 34.5094 46.0602 34.7568 45.9854C35.0075 45.9072 35.2223 45.7998 35.4014 45.6631C35.5837 45.5231 35.722 45.3571 35.8164 45.165C35.9141 44.973 35.9629 44.7614 35.9629 44.5303C35.9629 44.2471 35.8945 44.0062 35.7578 43.8076C35.6211 43.609 35.4128 43.4414 35.1328 43.3047C34.8529 43.168 34.4964 43.0508 34.0635 42.9531C33.8161 42.8978 33.6126 42.8424 33.4531 42.7871C33.2936 42.7318 33.1699 42.6732 33.082 42.6113C32.9941 42.5462 32.9323 42.4762 32.8965 42.4014C32.8639 42.3232 32.8477 42.2354 32.8477 42.1377C32.8477 42.0075 32.8818 41.8838 32.9502 41.7666C33.0218 41.6494 33.1341 41.5534 33.2871 41.4785C33.4434 41.4004 33.6468 41.3613 33.8975 41.3613C34.1351 41.3613 34.3353 41.4069 34.498 41.498C34.6641 41.5892 34.7894 41.7048 34.874 41.8447C34.9619 41.9814 35.0059 42.123 35.0059 42.2695H35.9092C35.9092 41.9668 35.8294 41.6917 35.6699 41.4443C35.5104 41.1937 35.2809 40.9935 34.9814 40.8438C34.682 40.694 34.3206 40.6191 33.8975 40.6191C33.6012 40.6191 33.3327 40.6598 33.0918 40.7412C32.8509 40.8226 32.6442 40.9349 32.4717 41.0781C32.3024 41.2214 32.1706 41.3857 32.0762 41.5713C31.985 41.7568 31.9395 41.9538 31.9395 42.1621C31.9395 42.3802 31.9834 42.5706 32.0713 42.7334C32.1592 42.8962 32.2845 43.0378 32.4473 43.1582C32.6133 43.2786 32.8135 43.3812 33.0479 43.4658C33.2855 43.5505 33.5508 43.6237 33.8438 43.6855C34.1921 43.7539 34.4525 43.8353 34.625 43.9297C34.8008 44.0208 34.9163 44.1234 34.9717 44.2373Z" fill="#1C1D1F"/>
<path d="M40.1377 44.2373C40.1963 44.348 40.2256 44.4684 40.2256 44.5986C40.2256 44.7451 40.1816 44.8753 40.0938 44.9893C40.0059 45.1032 39.8773 45.1927 39.708 45.2578C39.542 45.3229 39.3353 45.3555 39.0879 45.3555C38.9023 45.3555 38.7152 45.3262 38.5264 45.2676C38.3376 45.2057 38.1781 45.1032 38.0479 44.96C37.9176 44.8135 37.846 44.6165 37.833 44.3691H36.9248C36.9248 44.6621 37.0078 44.9404 37.1738 45.2041C37.3398 45.4678 37.584 45.6826 37.9062 45.8486C38.2285 46.0146 38.6224 46.0977 39.0879 46.0977C39.3971 46.0977 39.6755 46.0602 39.9229 45.9854C40.1735 45.9072 40.3883 45.7998 40.5674 45.6631C40.7497 45.5231 40.888 45.3571 40.9824 45.165C41.0801 44.973 41.1289 44.7614 41.1289 44.5303C41.1289 44.2471 41.0605 44.0062 40.9238 43.8076C40.7871 43.609 40.5788 43.4414 40.2988 43.3047C40.0189 43.168 39.6624 43.0508 39.2295 42.9531C38.9821 42.8978 38.7786 42.8424 38.6191 42.7871C38.4596 42.7318 38.3359 42.6732 38.248 42.6113C38.1602 42.5462 38.0983 42.4762 38.0625 42.4014C38.0299 42.3232 38.0137 42.2354 38.0137 42.1377C38.0137 42.0075 38.0479 41.8838 38.1162 41.7666C38.1878 41.6494 38.3001 41.5534 38.4531 41.4785C38.6094 41.4004 38.8128 41.3613 39.0635 41.3613C39.3011 41.3613 39.5013 41.4069 39.6641 41.498C39.8301 41.5892 39.9554 41.7048 40.04 41.8447C40.1279 41.9814 40.1719 42.123 40.1719 42.2695H41.0752C41.0752 41.9668 40.9954 41.6917 40.8359 41.4443C40.6764 41.1937 40.4469 40.9935 40.1475 40.8438C39.848 40.694 39.4867 40.6191 39.0635 40.6191C38.7673 40.6191 38.4987 40.6598 38.2578 40.7412C38.0169 40.8226 37.8102 40.9349 37.6377 41.0781C37.4684 41.2214 37.3366 41.3857 37.2422 41.5713C37.151 41.7568 37.1055 41.9538 37.1055 42.1621C37.1055 42.3802 37.1494 42.5706 37.2373 42.7334C37.3252 42.8962 37.4505 43.0378 37.6133 43.1582C37.7793 43.2786 37.9795 43.3812 38.2139 43.4658C38.4515 43.5505 38.7168 43.6237 39.0098 43.6855C39.3581 43.7539 39.6185 43.8353 39.791 43.9297C39.9668 44.0208 40.0824 44.1234 40.1377 44.2373Z" fill="#1C1D1F"/>
</svg>
