<svg width="50" height="50" viewBox="0 0 50 50" fill="none" xmlns="http://www.w3.org/2000/svg">
<path d="M16.5312 43.2393H17.4688C17.4199 43.6885 17.2913 44.0905 17.083 44.4453C16.8747 44.8001 16.5801 45.0817 16.1992 45.29C15.8184 45.4951 15.3431 45.5977 14.7734 45.5977C14.3568 45.5977 13.9775 45.5195 13.6357 45.3633C13.2972 45.207 13.0059 44.9857 12.7617 44.6992C12.5176 44.4095 12.3288 44.0628 12.1953 43.6592C12.0651 43.2523 12 42.7998 12 42.3018V41.5938C12 41.0957 12.0651 40.6449 12.1953 40.2412C12.3288 39.8343 12.5192 39.486 12.7666 39.1963C13.0173 38.9066 13.3184 38.6836 13.6699 38.5273C14.0215 38.3711 14.417 38.293 14.8564 38.293C15.3936 38.293 15.8477 38.3939 16.2188 38.5957C16.5898 38.7975 16.8779 39.0775 17.083 39.4355C17.2913 39.7904 17.4199 40.2021 17.4688 40.6709H16.5312C16.4857 40.3389 16.401 40.054 16.2773 39.8164C16.1536 39.5755 15.9779 39.39 15.75 39.2598C15.5221 39.1296 15.2243 39.0645 14.8564 39.0645C14.5407 39.0645 14.2624 39.1247 14.0215 39.2451C13.7839 39.3656 13.5837 39.5365 13.4209 39.7578C13.2614 39.9792 13.141 40.2445 13.0596 40.5537C12.9782 40.863 12.9375 41.2064 12.9375 41.584V42.3018C12.9375 42.6501 12.9733 42.9772 13.0449 43.2832C13.1198 43.5892 13.2321 43.8577 13.3818 44.0889C13.5316 44.32 13.722 44.5023 13.9531 44.6357C14.1842 44.766 14.4577 44.8311 14.7734 44.8311C15.1738 44.8311 15.4928 44.7676 15.7305 44.6406C15.9681 44.5137 16.1471 44.3314 16.2676 44.0938C16.3913 43.8561 16.4792 43.5713 16.5312 43.2393Z" fill="black"/>
<path d="M19.5977 38V45.5H18.6895V38H19.5977Z" fill="black"/>
<path d="M20.8086 42.917V42.8047C20.8086 42.4238 20.8639 42.0706 20.9746 41.7451C21.0853 41.4163 21.2448 41.1315 21.4531 40.8906C21.6615 40.6465 21.9137 40.4577 22.21 40.3242C22.5062 40.1875 22.8382 40.1191 23.2061 40.1191C23.5771 40.1191 23.9108 40.1875 24.207 40.3242C24.5065 40.4577 24.7604 40.6465 24.9688 40.8906C25.1803 41.1315 25.3415 41.4163 25.4521 41.7451C25.5628 42.0706 25.6182 42.4238 25.6182 42.8047V42.917C25.6182 43.2979 25.5628 43.651 25.4521 43.9766C25.3415 44.3021 25.1803 44.5869 24.9688 44.8311C24.7604 45.0719 24.5081 45.2607 24.2119 45.3975C23.9189 45.5309 23.5869 45.5977 23.2158 45.5977C22.8447 45.5977 22.5111 45.5309 22.2148 45.3975C21.9186 45.2607 21.6647 45.0719 21.4531 44.8311C21.2448 44.5869 21.0853 44.3021 20.9746 43.9766C20.8639 43.651 20.8086 43.2979 20.8086 42.917ZM21.7119 42.8047V42.917C21.7119 43.1807 21.7428 43.4297 21.8047 43.6641C21.8665 43.8952 21.9593 44.1003 22.083 44.2793C22.21 44.4583 22.3678 44.5999 22.5566 44.7041C22.7454 44.805 22.9652 44.8555 23.2158 44.8555C23.4632 44.8555 23.6797 44.805 23.8652 44.7041C24.054 44.5999 24.2103 44.4583 24.334 44.2793C24.4577 44.1003 24.5505 43.8952 24.6123 43.6641C24.6774 43.4297 24.71 43.1807 24.71 42.917V42.8047C24.71 42.5443 24.6774 42.2985 24.6123 42.0674C24.5505 41.833 24.4561 41.6263 24.3291 41.4473C24.2054 41.265 24.0492 41.1217 23.8604 41.0176C23.6748 40.9134 23.4567 40.8613 23.2061 40.8613C22.9587 40.8613 22.7406 40.9134 22.5518 41.0176C22.3662 41.1217 22.21 41.265 22.083 41.4473C21.9593 41.6263 21.8665 41.833 21.8047 42.0674C21.7428 42.2985 21.7119 42.5443 21.7119 42.8047Z" fill="black"/>
<path d="M29.9834 44.2793V40.2168H30.8916V45.5H30.0273L29.9834 44.2793ZM30.1543 43.166L30.5303 43.1562C30.5303 43.5078 30.4928 43.8333 30.418 44.1328C30.3464 44.429 30.2292 44.6862 30.0664 44.9043C29.9036 45.1224 29.6904 45.2933 29.4268 45.417C29.1631 45.5374 28.8424 45.5977 28.4648 45.5977C28.2077 45.5977 27.9717 45.5602 27.7568 45.4854C27.5452 45.4105 27.363 45.2949 27.21 45.1387C27.057 44.9824 26.9382 44.779 26.8535 44.5283C26.7721 44.2777 26.7314 43.9766 26.7314 43.625V40.2168H27.6348V43.6348C27.6348 43.8724 27.6608 44.0693 27.7129 44.2256C27.7682 44.3786 27.8415 44.5007 27.9326 44.5918C28.027 44.6797 28.1312 44.7415 28.2451 44.7773C28.3623 44.8132 28.4827 44.8311 28.6064 44.8311C28.9906 44.8311 29.2949 44.7578 29.5195 44.6113C29.7441 44.4616 29.9053 44.2614 30.0029 44.0107C30.1038 43.7568 30.1543 43.4753 30.1543 43.166Z" fill="black"/>
<path d="M35.5986 44.4746V38H36.5068V45.5H35.6768L35.5986 44.4746ZM32.0439 42.917V42.8145C32.0439 42.4108 32.0928 42.0446 32.1904 41.7158C32.2913 41.3838 32.4329 41.099 32.6152 40.8613C32.8008 40.6237 33.0205 40.4414 33.2744 40.3145C33.5316 40.1842 33.818 40.1191 34.1338 40.1191C34.4658 40.1191 34.7555 40.1777 35.0029 40.2949C35.2536 40.4089 35.4652 40.5765 35.6377 40.7979C35.8135 41.016 35.9518 41.2796 36.0527 41.5889C36.1536 41.8981 36.2236 42.248 36.2627 42.6387V43.0879C36.2269 43.4753 36.1569 43.8236 36.0527 44.1328C35.9518 44.4421 35.8135 44.7057 35.6377 44.9238C35.4652 45.1419 35.2536 45.3096 35.0029 45.4268C34.7523 45.5407 34.4593 45.5977 34.124 45.5977C33.8148 45.5977 33.5316 45.5309 33.2744 45.3975C33.0205 45.264 32.8008 45.0768 32.6152 44.8359C32.4329 44.5951 32.2913 44.3118 32.1904 43.9863C32.0928 43.6576 32.0439 43.3011 32.0439 42.917ZM32.9521 42.8145V42.917C32.9521 43.1807 32.9782 43.4281 33.0303 43.6592C33.0856 43.8903 33.1702 44.0938 33.2842 44.2695C33.3981 44.4453 33.543 44.5837 33.7188 44.6846C33.8945 44.7822 34.1045 44.8311 34.3486 44.8311C34.6481 44.8311 34.8939 44.7676 35.0859 44.6406C35.2812 44.5137 35.4375 44.346 35.5547 44.1377C35.6719 43.9294 35.763 43.7031 35.8281 43.459V42.2822C35.7891 42.1032 35.7321 41.9307 35.6572 41.7646C35.5856 41.5954 35.4912 41.4456 35.374 41.3154C35.2601 41.182 35.1185 41.0762 34.9492 40.998C34.7832 40.9199 34.5863 40.8809 34.3584 40.8809C34.111 40.8809 33.8978 40.9329 33.7188 41.0371C33.543 41.138 33.3981 41.278 33.2842 41.457C33.1702 41.6328 33.0856 41.8379 33.0303 42.0723C32.9782 42.3034 32.9521 42.5508 32.9521 42.8145Z" fill="black"/>
<path d="M39 6H11V34H39V6Z" fill="#BC1F27"/>
<path d="M25.6317 11.0183C24.5791 10.3889 23.6067 10.0457 20.4144 10.0457H15.4715V29.9315H19.2587V22.6087H21.3297C23.4122 22.6087 24.2244 22.3798 25.0827 21.945C27.1307 20.9151 28.3206 18.7986 28.3206 16.1671C28.3321 13.8786 27.3824 12.0481 25.6317 11.0183ZM23.7439 18.3179C23.2289 19.1535 22.7712 19.3478 21.2267 19.3478H19.2587V13.2838H21.6614C23.2519 13.2838 24.2015 14.4051 24.2015 16.2586C24.2015 17.1968 24.0643 17.7802 23.7439 18.3179Z" fill="white"/>
</svg>
