<svg width="50" height="50" viewBox="0 0 50 50" fill="none" xmlns="http://www.w3.org/2000/svg">
<path d="M9.51367 43.5H8.17773L8.18652 42.8101H9.51367C9.9707 42.8101 10.3516 42.7148 10.6562 42.5244C10.9609 42.3311 11.1895 42.0615 11.3418 41.7158C11.4971 41.3672 11.5747 40.96 11.5747 40.4941V40.103C11.5747 39.7368 11.5308 39.4116 11.4429 39.1274C11.355 38.8403 11.2261 38.5986 11.0562 38.4023C10.8862 38.2031 10.6782 38.0522 10.4321 37.9497C10.189 37.8472 9.90918 37.7959 9.59277 37.7959H8.15137V37.1016H9.59277C10.0117 37.1016 10.394 37.1719 10.7397 37.3125C11.0854 37.4502 11.3828 37.6509 11.6318 37.9146C11.8838 38.1753 12.0771 38.4917 12.2119 38.8638C12.3467 39.2329 12.4141 39.6489 12.4141 40.1118V40.4941C12.4141 40.957 12.3467 41.3745 12.2119 41.7466C12.0771 42.1157 11.8823 42.4307 11.6274 42.6914C11.3755 42.9521 11.0708 43.1528 10.7134 43.2935C10.3589 43.4312 9.95898 43.5 9.51367 43.5ZM8.63037 37.1016V43.5H7.78223V37.1016H8.63037Z" fill="#1C1D1F"/>
<path d="M14.4487 38.7451V43.5H13.6313V38.7451H14.4487ZM13.5698 37.4839C13.5698 37.3521 13.6094 37.2407 13.6885 37.1499C13.7705 37.0591 13.8906 37.0137 14.0488 37.0137C14.2041 37.0137 14.3228 37.0591 14.4048 37.1499C14.4897 37.2407 14.5322 37.3521 14.5322 37.4839C14.5322 37.6099 14.4897 37.7183 14.4048 37.8091C14.3228 37.897 14.2041 37.9409 14.0488 37.9409C13.8906 37.9409 13.7705 37.897 13.6885 37.8091C13.6094 37.7183 13.5698 37.6099 13.5698 37.4839Z" fill="#1C1D1F"/>
<path d="M16.5669 39.4922V43.5H15.7539V38.7451H16.5449L16.5669 39.4922ZM18.0522 38.7188L18.0479 39.4746C17.9805 39.46 17.916 39.4512 17.8545 39.4482C17.7959 39.4424 17.7285 39.4395 17.6523 39.4395C17.4648 39.4395 17.2993 39.4688 17.1558 39.5273C17.0122 39.5859 16.8906 39.668 16.791 39.7734C16.6914 39.8789 16.6123 40.0049 16.5537 40.1514C16.498 40.2949 16.4614 40.4531 16.4438 40.626L16.2153 40.7578C16.2153 40.4707 16.2432 40.2012 16.2988 39.9492C16.3574 39.6973 16.4468 39.4746 16.5669 39.2812C16.687 39.085 16.8394 38.9326 17.0239 38.8242C17.2114 38.7129 17.4341 38.6572 17.6919 38.6572C17.7505 38.6572 17.8179 38.6646 17.894 38.6792C17.9702 38.6909 18.0229 38.7041 18.0522 38.7188Z" fill="#1C1D1F"/>
<path d="M20.689 43.5879C20.3579 43.5879 20.0576 43.5322 19.7881 43.4209C19.5215 43.3066 19.2915 43.147 19.0981 42.9419C18.9077 42.7368 18.7612 42.4937 18.6587 42.2124C18.5562 41.9312 18.5049 41.6235 18.5049 41.2896V41.105C18.5049 40.7183 18.562 40.374 18.6763 40.0723C18.7905 39.7676 18.9458 39.5098 19.1421 39.2988C19.3384 39.0879 19.561 38.9282 19.8101 38.8198C20.0591 38.7114 20.3169 38.6572 20.5835 38.6572C20.9233 38.6572 21.2163 38.7158 21.4624 38.833C21.7114 38.9502 21.915 39.1143 22.0732 39.3252C22.2314 39.5332 22.3486 39.7793 22.4248 40.0635C22.501 40.3447 22.5391 40.6523 22.5391 40.9863V41.3511H18.9883V40.6875H21.7261V40.626C21.7144 40.415 21.6704 40.21 21.5942 40.0107C21.521 39.8115 21.4038 39.6475 21.2427 39.5186C21.0815 39.3896 20.8618 39.3252 20.5835 39.3252C20.3989 39.3252 20.229 39.3647 20.0737 39.4438C19.9185 39.52 19.7852 39.6343 19.6738 39.7866C19.5625 39.939 19.4761 40.125 19.4146 40.3447C19.353 40.5645 19.3223 40.8179 19.3223 41.105V41.2896C19.3223 41.5151 19.353 41.7275 19.4146 41.9268C19.479 42.123 19.5713 42.2959 19.6914 42.4453C19.8145 42.5947 19.9624 42.7119 20.1353 42.7969C20.311 42.8818 20.5103 42.9243 20.7329 42.9243C21.02 42.9243 21.2632 42.8657 21.4624 42.7485C21.6616 42.6313 21.8359 42.4746 21.9854 42.2783L22.4775 42.6694C22.375 42.8247 22.2446 42.9727 22.0864 43.1133C21.9282 43.2539 21.7334 43.3682 21.502 43.4561C21.2734 43.5439 21.0024 43.5879 20.689 43.5879Z" fill="#1C1D1F"/>
<path d="M25.3911 42.9199C25.5845 42.9199 25.7632 42.8804 25.9272 42.8013C26.0913 42.7222 26.2261 42.6138 26.3315 42.4761C26.437 42.3354 26.4971 42.1758 26.5117 41.9971H27.2852C27.2705 42.2783 27.1753 42.5405 26.9995 42.7837C26.8267 43.0239 26.5996 43.2188 26.3184 43.3682C26.0371 43.5146 25.728 43.5879 25.3911 43.5879C25.0337 43.5879 24.7217 43.5249 24.4551 43.3989C24.1914 43.2729 23.9717 43.1001 23.7959 42.8804C23.623 42.6606 23.4927 42.4087 23.4048 42.1245C23.3198 41.8374 23.2773 41.5342 23.2773 41.2148V41.0303C23.2773 40.7109 23.3198 40.4092 23.4048 40.125C23.4927 39.8379 23.623 39.5845 23.7959 39.3647C23.9717 39.145 24.1914 38.9722 24.4551 38.8462C24.7217 38.7202 25.0337 38.6572 25.3911 38.6572C25.7632 38.6572 26.0884 38.7334 26.3667 38.8857C26.645 39.0352 26.8633 39.2402 27.0215 39.501C27.1826 39.7588 27.2705 40.0518 27.2852 40.3799H26.5117C26.4971 40.1836 26.4414 40.0063 26.3447 39.8481C26.251 39.6899 26.1221 39.564 25.958 39.4702C25.7969 39.3735 25.6079 39.3252 25.3911 39.3252C25.1421 39.3252 24.9326 39.375 24.7627 39.4746C24.5957 39.5713 24.4624 39.7031 24.3628 39.8701C24.2661 40.0342 24.1958 40.2173 24.1519 40.4194C24.1108 40.6187 24.0903 40.8223 24.0903 41.0303V41.2148C24.0903 41.4229 24.1108 41.6279 24.1519 41.8301C24.1929 42.0322 24.2617 42.2153 24.3584 42.3794C24.458 42.5435 24.5913 42.6753 24.7583 42.7749C24.9282 42.8716 25.1392 42.9199 25.3911 42.9199Z" fill="#1C1D1F"/>
<path d="M30.1899 38.7451V39.3691H27.6191V38.7451H30.1899ZM28.4893 37.5894H29.3022V42.3223C29.3022 42.4834 29.3271 42.605 29.377 42.687C29.4268 42.769 29.4912 42.8232 29.5703 42.8496C29.6494 42.876 29.7344 42.8892 29.8252 42.8892C29.8926 42.8892 29.9629 42.8833 30.0361 42.8716C30.1123 42.8569 30.1694 42.8452 30.2075 42.8364L30.2119 43.5C30.1475 43.5205 30.0625 43.5396 29.957 43.5571C29.8545 43.5776 29.73 43.5879 29.5835 43.5879C29.3843 43.5879 29.2012 43.5483 29.0342 43.4692C28.8672 43.3901 28.7339 43.2583 28.6343 43.0737C28.5376 42.8862 28.4893 42.6343 28.4893 42.3179V37.5894Z" fill="#1C1D1F"/>
<path d="M30.8403 41.1753V41.0742C30.8403 40.7314 30.8901 40.4136 30.9897 40.1206C31.0894 39.8247 31.2329 39.5684 31.4204 39.3516C31.6079 39.1318 31.835 38.9619 32.1016 38.8418C32.3682 38.7188 32.667 38.6572 32.998 38.6572C33.332 38.6572 33.6323 38.7188 33.8989 38.8418C34.1685 38.9619 34.397 39.1318 34.5845 39.3516C34.7749 39.5684 34.9199 39.8247 35.0195 40.1206C35.1191 40.4136 35.1689 40.7314 35.1689 41.0742V41.1753C35.1689 41.5181 35.1191 41.8359 35.0195 42.1289C34.9199 42.4219 34.7749 42.6782 34.5845 42.8979C34.397 43.1147 34.1699 43.2847 33.9033 43.4077C33.6396 43.5278 33.3408 43.5879 33.0068 43.5879C32.6729 43.5879 32.3726 43.5278 32.106 43.4077C31.8394 43.2847 31.6108 43.1147 31.4204 42.8979C31.2329 42.6782 31.0894 42.4219 30.9897 42.1289C30.8901 41.8359 30.8403 41.5181 30.8403 41.1753ZM31.6533 41.0742V41.1753C31.6533 41.4126 31.6812 41.6367 31.7368 41.8477C31.7925 42.0557 31.876 42.2402 31.9873 42.4014C32.1016 42.5625 32.2437 42.6899 32.4136 42.7837C32.5835 42.8745 32.7812 42.9199 33.0068 42.9199C33.2295 42.9199 33.4243 42.8745 33.5913 42.7837C33.7612 42.6899 33.9019 42.5625 34.0132 42.4014C34.1245 42.2402 34.208 42.0557 34.2637 41.8477C34.3223 41.6367 34.3516 41.4126 34.3516 41.1753V41.0742C34.3516 40.8398 34.3223 40.6187 34.2637 40.4106C34.208 40.1997 34.123 40.0137 34.0088 39.8525C33.8975 39.6885 33.7568 39.5596 33.5869 39.4658C33.4199 39.3721 33.2236 39.3252 32.998 39.3252C32.7754 39.3252 32.5791 39.3721 32.4092 39.4658C32.2422 39.5596 32.1016 39.6885 31.9873 39.8525C31.876 40.0137 31.7925 40.1997 31.7368 40.4106C31.6812 40.6187 31.6533 40.8398 31.6533 41.0742Z" fill="#1C1D1F"/>
<path d="M37.0015 39.4922V43.5H36.1885V38.7451H36.9795L37.0015 39.4922ZM38.4868 38.7188L38.4824 39.4746C38.415 39.46 38.3506 39.4512 38.2891 39.4482C38.2305 39.4424 38.1631 39.4395 38.0869 39.4395C37.8994 39.4395 37.7339 39.4688 37.5903 39.5273C37.4468 39.5859 37.3252 39.668 37.2256 39.7734C37.126 39.8789 37.0469 40.0049 36.9883 40.1514C36.9326 40.2949 36.896 40.4531 36.8784 40.626L36.6499 40.7578C36.6499 40.4707 36.6777 40.2012 36.7334 39.9492C36.792 39.6973 36.8813 39.4746 37.0015 39.2812C37.1216 39.085 37.2739 38.9326 37.4585 38.8242C37.646 38.7129 37.8687 38.6572 38.1265 38.6572C38.1851 38.6572 38.2524 38.6646 38.3286 38.6792C38.4048 38.6909 38.4575 38.7041 38.4868 38.7188Z" fill="#1C1D1F"/>
<path d="M40.6533 43.0078L41.9761 38.7451H42.8462L40.939 44.2339C40.895 44.3511 40.8364 44.4771 40.7632 44.6118C40.6929 44.7495 40.6021 44.8799 40.4907 45.0029C40.3794 45.126 40.2446 45.2256 40.0864 45.3018C39.9312 45.3809 39.7451 45.4204 39.5283 45.4204C39.4639 45.4204 39.3818 45.4116 39.2822 45.394C39.1826 45.3765 39.1123 45.3618 39.0713 45.3501L39.0669 44.6909C39.0903 44.6938 39.127 44.6968 39.1768 44.6997C39.2295 44.7056 39.2661 44.7085 39.2866 44.7085C39.4712 44.7085 39.6279 44.6836 39.7568 44.6338C39.8857 44.5869 39.9941 44.5063 40.082 44.3921C40.1729 44.2808 40.2505 44.127 40.3149 43.9307L40.6533 43.0078ZM39.6821 38.7451L40.917 42.4365L41.1279 43.2935L40.5435 43.5923L38.7944 38.7451H39.6821Z" fill="#1C1D1F"/>
<path d="M39 6H11V34H39V6Z" fill="#BC1F27"/>
<path d="M25.6317 11.0183C24.5791 10.3889 23.6067 10.0457 20.4144 10.0457H15.4715V29.9315H19.2587V22.6087H21.3297C23.4122 22.6087 24.2244 22.3798 25.0827 21.945C27.1307 20.9151 28.3206 18.7986 28.3206 16.1671C28.3321 13.8786 27.3824 12.0481 25.6317 11.0183ZM23.7439 18.3179C23.2289 19.1535 22.7712 19.3478 21.2267 19.3478H19.2587V13.2838H21.6614C23.2519 13.2838 24.2015 14.4051 24.2015 16.2586C24.2015 17.1968 24.0643 17.7802 23.7439 18.3179Z" fill="white"/>
</svg>
