<svg width="50" height="50" viewBox="0 0 50 50" fill="none" xmlns="http://www.w3.org/2000/svg">
<path d="M39 6H11V34H39V6Z" fill="#BC1F27"/>
<path d="M25.6317 11.0183C24.5791 10.3889 23.6067 10.0457 20.4144 10.0457H15.4715V29.9315H19.2587V22.6087H21.3297C23.4122 22.6087 24.2244 22.3798 25.0827 21.945C27.1307 20.9151 28.3206 18.7986 28.3206 16.1671C28.3321 13.8786 27.3824 12.0481 25.6317 11.0183ZM23.7439 18.3179C23.2289 19.1535 22.7712 19.3478 21.2267 19.3478H19.2587V13.2838H21.6614C23.2519 13.2838 24.2015 14.4051 24.2015 16.2586C24.2015 17.1968 24.0643 17.7802 23.7439 18.3179Z" fill="white"/>
<path d="M19.1367 46V45.2334H15.7676V38.8906H14.8252V46H19.1367Z" fill="#1C1D1F"/>
<path fill-rule="evenodd" clip-rule="evenodd" d="M19.8398 43.417V43.3047C19.8398 42.9238 19.8952 42.5706 20.0059 42.2451C20.1165 41.9163 20.276 41.6315 20.4844 41.3906C20.6927 41.1465 20.945 40.9577 21.2412 40.8242C21.5374 40.6875 21.8695 40.6191 22.2373 40.6191C22.6084 40.6191 22.9421 40.6875 23.2383 40.8242C23.5378 40.9577 23.7917 41.1465 24 41.3906C24.2116 41.6315 24.3727 41.9163 24.4834 42.2451C24.5941 42.5706 24.6494 42.9238 24.6494 43.3047V43.417C24.6494 43.7979 24.5941 44.151 24.4834 44.4766C24.3727 44.8021 24.2116 45.0869 24 45.3311C23.7917 45.5719 23.5394 45.7607 23.2432 45.8975C22.9502 46.0309 22.6182 46.0977 22.2471 46.0977C21.876 46.0977 21.5423 46.0309 21.2461 45.8975C20.9499 45.7607 20.696 45.5719 20.4844 45.3311C20.276 45.0869 20.1165 44.8021 20.0059 44.4766C19.8952 44.151 19.8398 43.7979 19.8398 43.417ZM20.7432 43.3047V43.417C20.7432 43.6807 20.7741 43.9297 20.8359 44.1641C20.8978 44.3952 20.9906 44.6003 21.1143 44.7793C21.2412 44.9583 21.3991 45.0999 21.5879 45.2041C21.7767 45.305 21.9964 45.3555 22.2471 45.3555C22.4945 45.3555 22.7109 45.305 22.8965 45.2041C23.0853 45.0999 23.2415 44.9583 23.3652 44.7793C23.4889 44.6003 23.5817 44.3952 23.6436 44.1641C23.7087 43.9297 23.7412 43.6807 23.7412 43.417V43.3047C23.7412 43.0443 23.7087 42.7985 23.6436 42.5674C23.5817 42.333 23.4873 42.1263 23.3604 41.9473C23.2367 41.765 23.0804 41.6217 22.8916 41.5176C22.7061 41.4134 22.488 41.3613 22.2373 41.3613C21.9899 41.3613 21.7718 41.4134 21.583 41.5176C21.3975 41.6217 21.2412 41.765 21.1143 41.9473C20.9906 42.1263 20.8978 42.333 20.8359 42.5674C20.7741 42.7985 20.7432 43.0443 20.7432 43.3047Z" fill="#1C1D1F"/>
<path fill-rule="evenodd" clip-rule="evenodd" d="M30.0254 40.7168H29.2051L29.163 41.3062L29.1562 41.2979C28.9837 41.0765 28.7721 40.9089 28.5215 40.7949C28.2741 40.6777 27.9844 40.6191 27.6523 40.6191C27.3301 40.6191 27.0404 40.6842 26.7832 40.8145C26.526 40.9414 26.3063 41.1237 26.124 41.3613C25.945 41.599 25.8066 41.8838 25.709 42.2158C25.6146 42.5446 25.5674 42.9108 25.5674 43.3145V43.417C25.5674 43.8011 25.6146 44.1576 25.709 44.4863C25.8066 44.8118 25.9466 45.0951 26.1289 45.3359C26.3112 45.5768 26.5293 45.764 26.7832 45.8975C27.0404 46.0309 27.3268 46.0977 27.6426 46.0977C27.9779 46.0977 28.2708 46.0407 28.5215 45.9268C28.7558 45.8172 28.956 45.6635 29.1221 45.4658V45.9316C29.1221 46.2376 29.0635 46.4948 28.9463 46.7031C28.8324 46.9147 28.6712 47.0742 28.4629 47.1816C28.2546 47.2891 28.0072 47.3428 27.7207 47.3428C27.4831 47.3428 27.2422 47.2907 26.998 47.1865C26.7572 47.0824 26.526 46.8968 26.3047 46.6299L25.8311 47.167C25.9906 47.3949 26.1875 47.5755 26.4219 47.709C26.6595 47.8457 26.9004 47.9417 27.1445 47.9971C27.3919 48.0557 27.6068 48.085 27.7891 48.085C28.2285 48.085 28.6159 47.9987 28.9512 47.8262C29.2897 47.6569 29.5534 47.4079 29.7422 47.0791C29.931 46.7503 30.0254 46.3532 30.0254 45.8877V40.7168ZM29.1221 42.1496V44.5374C29.1048 44.5713 29.0869 44.6047 29.0684 44.6377C28.9544 44.846 28.7998 45.0137 28.6045 45.1406C28.4092 45.2676 28.1618 45.3311 27.8623 45.3311C27.6182 45.3311 27.4082 45.2822 27.2324 45.1846C27.0566 45.0837 26.9118 44.9453 26.7979 44.7695C26.6872 44.5938 26.6042 44.3903 26.5488 44.1592C26.4967 43.9281 26.4707 43.6807 26.4707 43.417V43.3145C26.4707 43.0508 26.4967 42.8034 26.5488 42.5723C26.6042 42.3379 26.6872 42.1328 26.7979 41.957C26.9118 41.778 27.0566 41.638 27.2324 41.5371C27.4115 41.4329 27.6247 41.3809 27.8721 41.3809C28.0999 41.3809 28.2985 41.4199 28.4678 41.498C28.637 41.5762 28.7786 41.682 28.8926 41.8154C28.9825 41.9153 29.059 42.0267 29.1221 42.1496Z" fill="#1C1D1F"/>
<path d="M34.3857 44.2373C34.4443 44.348 34.4736 44.4684 34.4736 44.5986C34.4736 44.7451 34.4297 44.8753 34.3418 44.9893C34.2539 45.1032 34.1253 45.1927 33.9561 45.2578C33.79 45.3229 33.5833 45.3555 33.3359 45.3555C33.1504 45.3555 32.9632 45.3262 32.7744 45.2676C32.5856 45.2057 32.4261 45.1032 32.2959 44.96C32.1657 44.8135 32.0941 44.6165 32.0811 44.3691H31.1729C31.1729 44.6621 31.2559 44.9404 31.4219 45.2041C31.5879 45.4678 31.832 45.6826 32.1543 45.8486C32.4766 46.0146 32.8704 46.0977 33.3359 46.0977C33.6452 46.0977 33.9235 46.0602 34.1709 45.9854C34.4215 45.9072 34.6364 45.7998 34.8154 45.6631C34.9977 45.5231 35.1361 45.3571 35.2305 45.165C35.3281 44.973 35.377 44.7614 35.377 44.5303C35.377 44.2471 35.3086 44.0062 35.1719 43.8076C35.0352 43.609 34.8268 43.4414 34.5469 43.3047C34.2669 43.168 33.9105 43.0508 33.4775 42.9531C33.2301 42.8978 33.0267 42.8424 32.8672 42.7871C32.7077 42.7318 32.584 42.6732 32.4961 42.6113C32.4082 42.5462 32.3464 42.4762 32.3105 42.4014C32.278 42.3232 32.2617 42.2354 32.2617 42.1377C32.2617 42.0075 32.2959 41.8838 32.3643 41.7666C32.4359 41.6494 32.5482 41.5534 32.7012 41.4785C32.8574 41.4004 33.0609 41.3613 33.3115 41.3613C33.5492 41.3613 33.7493 41.4069 33.9121 41.498C34.0781 41.5892 34.2035 41.7048 34.2881 41.8447C34.376 41.9814 34.4199 42.123 34.4199 42.2695H35.3232C35.3232 41.9668 35.2435 41.6917 35.084 41.4443C34.9245 41.1937 34.695 40.9935 34.3955 40.8438C34.096 40.694 33.7347 40.6191 33.3115 40.6191C33.0153 40.6191 32.7467 40.6598 32.5059 40.7412C32.265 40.8226 32.0583 40.9349 31.8857 41.0781C31.7165 41.2214 31.5846 41.3857 31.4902 41.5713C31.3991 41.7568 31.3535 41.9538 31.3535 42.1621C31.3535 42.3802 31.3975 42.5706 31.4854 42.7334C31.5732 42.8962 31.6986 43.0378 31.8613 43.1582C32.0273 43.2786 32.2275 43.3812 32.4619 43.4658C32.6995 43.5505 32.9648 43.6237 33.2578 43.6855C33.6061 43.7539 33.8665 43.8353 34.0391 43.9297C34.2148 44.0208 34.3304 44.1234 34.3857 44.2373Z" fill="#1C1D1F"/>
</svg>
