<svg width="50" height="50" viewBox="0 0 50 50" fill="none" xmlns="http://www.w3.org/2000/svg">
<path d="M24.3594 23.9824C24.4846 23.9492 24.6059 23.916 24.7307 23.8802C27.4726 23.1135 30.1397 22.0513 32.7899 20.9512C35.3845 19.8744 37.9507 18.5811 40.2052 16.7612C42.5189 14.8944 44.3799 12.4761 45.4071 9.47726C45.5517 9.05987 45.8476 8.45787 45.8758 8C42.2731 12.886 27.9815 13.3904 27.9815 13.3904L31.354 10.3217C17.7959 10.3472 8.33469 16.0549 4 19.1075C9.54733 19.6977 14.5691 22.0282 18.5007 25.5372C20.4351 24.9431 22.4098 24.5139 24.3594 23.9824Z" fill="#ED6C2D"/>
<path d="M24.002 34.2343C24.8382 36.3673 25.3992 38.6363 25.632 41L38.1854 28.1946L24.002 34.2343Z" fill="#ED6C2D"/>
<path d="M46 23.3037C46 23.3037 32.8128 22.3034 19.1147 26.6782C20.9322 28.5613 22.464 30.7153 23.6377 33.077C30.8401 29.1007 40.8271 24.0207 46 23.3037Z" fill="#ED6C2D"/>
</svg>
