<svg width="50" height="50" viewBox="0 0 50 50" fill="none" xmlns="http://www.w3.org/2000/svg">
<path d="M39 6H11V34H39V6Z" fill="#BC1F27"/>
<path d="M25.6317 11.0183C24.5791 10.3889 23.6067 10.0457 20.4144 10.0457H15.4715V29.9315H19.2587V22.6087H21.3297C23.4122 22.6087 24.2244 22.3798 25.0827 21.945C27.1307 20.9151 28.3206 18.7986 28.3206 16.1671C28.3321 13.8786 27.3824 12.0481 25.6317 11.0183ZM23.7439 18.3179C23.2289 19.1535 22.7712 19.3478 21.2267 19.3478H19.2587V13.2838H21.6614C23.2519 13.2838 24.2015 14.4051 24.2015 16.2586C24.2015 17.1968 24.0643 17.7802 23.7439 18.3179Z" fill="white"/>
<path d="M5.36963 39.1016V45.5H4.52148V39.1016H5.36963ZM8.05029 41.98V42.6743H5.18506V41.98H8.05029ZM8.48535 39.1016V39.7959H5.18506V39.1016H8.48535Z" fill="#1C1D1F"/>
<path d="M13.561 44.8101V45.5H10.1729V44.8101H13.561ZM10.3442 39.1016V45.5H9.49609V39.1016H10.3442ZM13.1128 41.8525V42.5425H10.1729V41.8525H13.1128ZM13.5171 39.1016V39.7959H10.1729V39.1016H13.5171Z" fill="#1C1D1F"/>
<path d="M16.3428 45.5H15.0068L15.0156 44.8101H16.3428C16.7998 44.8101 17.1807 44.7148 17.4854 44.5244C17.79 44.3311 18.0186 44.0615 18.1709 43.7158C18.3262 43.3672 18.4038 42.96 18.4038 42.4941V42.103C18.4038 41.7368 18.3599 41.4116 18.272 41.1274C18.1841 40.8403 18.0552 40.5986 17.8853 40.4023C17.7153 40.2031 17.5073 40.0522 17.2612 39.9497C17.0181 39.8472 16.7383 39.7959 16.4219 39.7959H14.9805V39.1016H16.4219C16.8408 39.1016 17.2231 39.1719 17.5688 39.3125C17.9146 39.4502 18.2119 39.6509 18.4609 39.9146C18.7129 40.1753 18.9062 40.4917 19.041 40.8638C19.1758 41.2329 19.2432 41.6489 19.2432 42.1118V42.4941C19.2432 42.957 19.1758 43.3745 19.041 43.7466C18.9062 44.1157 18.7114 44.4307 18.4565 44.6914C18.2046 44.9521 17.8999 45.1528 17.5425 45.2935C17.188 45.4312 16.7881 45.5 16.3428 45.5ZM15.4595 39.1016V45.5H14.6113V39.1016H15.4595Z" fill="#1C1D1F"/>
<path d="M24.5825 44.8101V45.5H21.1943V44.8101H24.5825ZM21.3657 39.1016V45.5H20.5176V39.1016H21.3657ZM24.1343 41.8525V42.5425H21.1943V41.8525H24.1343ZM24.5386 39.1016V39.7959H21.1943V39.1016H24.5386Z" fill="#1C1D1F"/>
<path d="M25.6328 39.1016H27.751C28.2314 39.1016 28.6372 39.1748 28.9683 39.3213C29.3022 39.4678 29.5557 39.6846 29.7285 39.9717C29.9043 40.2559 29.9922 40.606 29.9922 41.022C29.9922 41.3149 29.9321 41.583 29.812 41.8262C29.6948 42.0664 29.5249 42.2715 29.3022 42.4414C29.0825 42.6084 28.8188 42.7329 28.5112 42.8149L28.2739 42.9072H26.2832L26.2744 42.2173H27.7773C28.082 42.2173 28.3354 42.1646 28.5376 42.0591C28.7397 41.9507 28.8921 41.8057 28.9946 41.624C29.0972 41.4424 29.1484 41.2417 29.1484 41.022C29.1484 40.7759 29.1001 40.5605 29.0034 40.376C28.9067 40.1914 28.7544 40.0493 28.5464 39.9497C28.3413 39.8472 28.0762 39.7959 27.751 39.7959H26.481V45.5H25.6328V39.1016ZM29.3726 45.5L27.8169 42.5996L28.7002 42.5952L30.2778 45.4473V45.5H29.3726Z" fill="#1C1D1F"/>
<path d="M33.5474 39.6685L31.4292 45.5H30.5635L33.0024 39.1016H33.5605L33.5474 39.6685ZM35.3228 45.5L33.2002 39.6685L33.187 39.1016H33.7451L36.1929 45.5H35.3228ZM35.2129 43.1313V43.8257H31.6182V43.1313H35.2129Z" fill="#1C1D1F"/>
<path d="M38.8428 39.1016V45.5H38.0078V39.1016H38.8428ZM40.8994 39.1016V39.7959H35.9556V39.1016H40.8994Z" fill="#1C1D1F"/>
<path d="M45.9136 44.8101V45.5H42.5254V44.8101H45.9136ZM42.6968 39.1016V45.5H41.8486V39.1016H42.6968ZM45.4653 41.8525V42.5425H42.5254V41.8525H45.4653ZM45.8696 39.1016V39.7959H42.5254V39.1016H45.8696Z" fill="#1C1D1F"/>
</svg>
