<svg width="50" height="50" viewBox="0 0 50 50" fill="none" xmlns="http://www.w3.org/2000/svg">
<rect width="50" height="50" fill="#BC1F27"/>
<path d="M10.5308 41.1725H9.34967L9.35744 40.5159H10.5308C10.9348 40.5159 11.2715 40.4253 11.5409 40.2441C11.8103 40.0601 12.0123 39.8036 12.147 39.4746C12.2843 39.1429 12.3529 38.7554 12.3529 38.3121V37.9399C12.3529 37.5914 12.3141 37.2819 12.2364 37.0115C12.1587 36.7383 12.0447 36.5083 11.8945 36.3215C11.7442 36.1319 11.5603 35.9883 11.3428 35.8907C11.1278 35.7932 10.8804 35.7444 10.6007 35.7444H9.32636V35.0836H10.6007C10.9711 35.0836 11.3091 35.1505 11.6147 35.2844C11.9204 35.4154 12.1833 35.6064 12.4034 35.8573C12.6262 36.1054 12.7971 36.4065 12.9163 36.7606C13.0354 37.1119 13.095 37.5078 13.095 37.9482V38.3121C13.095 38.7526 13.0354 39.1499 12.9163 39.5039C12.7971 39.8552 12.6249 40.1549 12.3995 40.403C12.1768 40.6512 11.9074 40.8421 11.5914 40.976C11.278 41.107 10.9245 41.1725 10.5308 41.1725ZM9.74984 35.0836V41.1725H9V35.0836H9.74984Z" fill="white"/>
<path d="M14.8938 36.6477V41.1725H14.1712V36.6477H14.8938ZM14.1168 35.4475C14.1168 35.322 14.1518 35.2161 14.2217 35.1296C14.2942 35.0432 14.4004 35 14.5403 35C14.6776 35 14.7825 35.0432 14.855 35.1296C14.9301 35.2161 14.9677 35.322 14.9677 35.4475C14.9677 35.5673 14.9301 35.6705 14.855 35.7569C14.7825 35.8406 14.6776 35.8824 14.5403 35.8824C14.4004 35.8824 14.2942 35.8406 14.2217 35.7569C14.1518 35.6705 14.1168 35.5673 14.1168 35.4475Z" fill="white"/>
<path d="M16.7665 37.3586V41.1725H16.0478V36.6477H16.7471L16.7665 37.3586ZM18.0797 36.6226L18.0758 37.3419C18.0163 37.3279 17.9593 37.3196 17.9049 37.3168C17.8531 37.3112 17.7935 37.3084 17.7262 37.3084C17.5604 37.3084 17.414 37.3363 17.2871 37.3921C17.1602 37.4478 17.0527 37.5259 16.9647 37.6262C16.8766 37.7266 16.8067 37.8465 16.7549 37.9859C16.7056 38.1225 16.6733 38.273 16.6577 38.4375L16.4557 38.563C16.4557 38.2898 16.4803 38.0333 16.5295 37.7935C16.5813 37.5538 16.6603 37.3419 16.7665 37.1579C16.8727 36.9711 17.0074 36.8261 17.1706 36.7229C17.3363 36.617 17.5332 36.564 17.7611 36.564C17.8129 36.564 17.8725 36.571 17.9398 36.5849C18.0072 36.5961 18.0538 36.6086 18.0797 36.6226Z" fill="white"/>
<path d="M20.4108 41.2561C20.1181 41.2561 19.8527 41.2032 19.6144 41.0972C19.3787 40.9885 19.1753 40.8366 19.0044 40.6414C18.836 40.4462 18.7065 40.2148 18.6159 39.9472C18.5252 39.6796 18.4799 39.3868 18.4799 39.069V38.8934C18.4799 38.5254 18.5304 38.1978 18.6314 37.9106C18.7324 37.6207 18.8697 37.3753 19.0432 37.1746C19.2168 36.9739 19.4136 36.8219 19.6338 36.7188C19.8539 36.6156 20.0819 36.564 20.3176 36.564C20.618 36.564 20.8771 36.6198 21.0946 36.7313C21.3148 36.8428 21.4948 36.999 21.6347 37.1997C21.7745 37.3976 21.8781 37.6318 21.9455 37.9022C22.0128 38.1699 22.0465 38.4626 22.0465 38.7804V39.1275H18.9073V38.4961H21.3277V38.4375C21.3174 38.2368 21.2785 38.0416 21.2112 37.8521C21.1464 37.6625 21.0428 37.5064 20.9004 37.3837C20.7579 37.261 20.5636 37.1997 20.3176 37.1997C20.1544 37.1997 20.0042 37.2373 19.8669 37.3126C19.7296 37.3851 19.6118 37.4938 19.5133 37.6388C19.4149 37.7838 19.3385 37.9608 19.2841 38.1699C19.2297 38.379 19.2025 38.6201 19.2025 38.8934V39.069C19.2025 39.2837 19.2297 39.4858 19.2841 39.6754C19.3411 39.8622 19.4227 40.0267 19.5289 40.1688C19.6377 40.311 19.7685 40.4225 19.9213 40.5034C20.0767 40.5842 20.2528 40.6247 20.4497 40.6247C20.7035 40.6247 20.9185 40.5689 21.0946 40.4574C21.2708 40.3459 21.4249 40.1967 21.557 40.0099L21.9921 40.3821C21.9014 40.5299 21.7862 40.6707 21.6463 40.8045C21.5065 40.9383 21.3342 41.047 21.1296 41.1307C20.9276 41.2143 20.688 41.2561 20.4108 41.2561Z" fill="white"/>
<path d="M24.568 40.6205C24.7389 40.6205 24.8969 40.5829 25.042 40.5076C25.187 40.4323 25.3062 40.3292 25.3994 40.1981C25.4927 40.0643 25.5458 39.9124 25.5587 39.7423H26.2425C26.2296 40.0099 26.1454 40.2595 25.99 40.4909C25.8372 40.7195 25.6364 40.9049 25.3878 41.047C25.1391 41.1864 24.8659 41.2561 24.568 41.2561C24.252 41.2561 23.9761 41.1962 23.7404 41.0763C23.5073 40.9564 23.3131 40.7919 23.1577 40.5829C23.0048 40.3738 22.8896 40.134 22.8119 39.8636C22.7368 39.5903 22.6992 39.3018 22.6992 38.9979V38.8223C22.6992 38.5184 22.7368 38.2312 22.8119 37.9608C22.8896 37.6876 23.0048 37.4464 23.1577 37.2373C23.3131 37.0282 23.5073 36.8637 23.7404 36.7439C23.9761 36.624 24.252 36.564 24.568 36.564C24.8969 36.564 25.1844 36.6365 25.4305 36.7815C25.6766 36.9237 25.8695 37.1188 26.0094 37.367C26.1519 37.6123 26.2296 37.8911 26.2425 38.2033H25.5587C25.5458 38.0166 25.4966 37.8479 25.4111 37.6973C25.3282 37.5468 25.2142 37.4269 25.0692 37.3377C24.9267 37.2457 24.7597 37.1997 24.568 37.1997C24.3478 37.1997 24.1626 37.2471 24.0124 37.3419C23.8648 37.4339 23.7469 37.5593 23.6589 37.7182C23.5734 37.8744 23.5112 38.0486 23.4724 38.241C23.4361 38.4306 23.418 38.6243 23.418 38.8223V38.9979C23.418 39.1959 23.4361 39.391 23.4724 39.5834C23.5086 39.7757 23.5695 39.95 23.655 40.1061C23.743 40.2622 23.8609 40.3877 24.0085 40.4825C24.1587 40.5745 24.3452 40.6205 24.568 40.6205Z" fill="white"/>
<path d="M28.8106 36.6477V37.2415H26.5378V36.6477H28.8106ZM27.3071 35.5478H28.0258V40.0518C28.0258 40.2051 28.0478 40.3208 28.0919 40.3988C28.1359 40.4769 28.1929 40.5285 28.2628 40.5536C28.3327 40.5787 28.4079 40.5912 28.4882 40.5912C28.5477 40.5912 28.6099 40.5856 28.6746 40.5745C28.742 40.5606 28.7925 40.5494 28.8262 40.541L28.8301 41.1725C28.7731 41.192 28.698 41.2101 28.6047 41.2269C28.5141 41.2464 28.404 41.2561 28.2745 41.2561C28.0983 41.2561 27.9365 41.2185 27.7888 41.1432C27.6412 41.068 27.5233 40.9425 27.4353 40.7669C27.3498 40.5884 27.3071 40.3487 27.3071 40.0476V35.5478Z" fill="white"/>
<path d="M29.3856 38.9603V38.8641C29.3856 38.5379 29.4297 38.2354 29.5177 37.9566C29.6058 37.675 29.7327 37.4311 29.8985 37.2248C30.0643 37.0157 30.265 36.854 30.5007 36.7397C30.7364 36.6226 31.0006 36.564 31.2933 36.564C31.5885 36.564 31.854 36.6226 32.0897 36.7397C32.328 36.854 32.5301 37.0157 32.6958 37.2248C32.8642 37.4311 32.9924 37.675 33.0805 37.9566C33.1685 38.2354 33.2126 38.5379 33.2126 38.8641V38.9603C33.2126 39.2865 33.1685 39.589 33.0805 39.8677C32.9924 40.1465 32.8642 40.3905 32.6958 40.5996C32.5301 40.8059 32.3293 40.9676 32.0936 41.0847C31.8605 41.199 31.5963 41.2561 31.301 41.2561C31.0058 41.2561 30.7403 41.199 30.5046 41.0847C30.2689 40.9676 30.0668 40.8059 29.8985 40.5996C29.7327 40.3905 29.6058 40.1465 29.5177 39.8677C29.4297 39.589 29.3856 39.2865 29.3856 38.9603ZM30.1044 38.8641V38.9603C30.1044 39.1861 30.129 39.3994 30.1782 39.6001C30.2274 39.798 30.3012 39.9737 30.3997 40.127C30.5007 40.2804 30.6263 40.4016 30.7765 40.4909C30.9268 40.5773 31.1016 40.6205 31.301 40.6205C31.4979 40.6205 31.6701 40.5773 31.8178 40.4909C31.968 40.4016 32.0923 40.2804 32.1908 40.127C32.2892 39.9737 32.363 39.798 32.4122 39.6001C32.464 39.3994 32.4899 39.1861 32.4899 38.9603V38.8641C32.4899 38.6411 32.464 38.4306 32.4122 38.2326C32.363 38.0319 32.2879 37.8549 32.1869 37.7015C32.0884 37.5454 31.9641 37.4227 31.8139 37.3335C31.6662 37.2443 31.4927 37.1997 31.2933 37.1997C31.0964 37.1997 30.9229 37.2443 30.7727 37.3335C30.625 37.4227 30.5007 37.5454 30.3997 37.7015C30.3012 37.8549 30.2274 38.0319 30.1782 38.2326C30.129 38.4306 30.1044 38.6411 30.1044 38.8641Z" fill="white"/>
<path d="M34.8327 37.3586V41.1725H34.1139V36.6477H34.8133L34.8327 37.3586ZM36.1459 36.6226L36.142 37.3419C36.0824 37.3279 36.0254 37.3196 35.971 37.3168C35.9192 37.3112 35.8597 37.3084 35.7923 37.3084C35.6266 37.3084 35.4802 37.3363 35.3533 37.3921C35.2264 37.4478 35.1189 37.5259 35.0308 37.6262C34.9428 37.7266 34.8728 37.8465 34.821 37.9859C34.7718 38.1225 34.7394 38.273 34.7239 38.4375L34.5219 38.563C34.5219 38.2898 34.5465 38.0333 34.5957 37.7935C34.6475 37.5538 34.7265 37.3419 34.8327 37.1579C34.9389 36.9711 35.0736 36.8261 35.2367 36.7229C35.4025 36.617 35.5994 36.564 35.8273 36.564C35.8791 36.564 35.9387 36.571 36.006 36.5849C36.0734 36.5961 36.12 36.6086 36.1459 36.6226Z" fill="white"/>
<path d="M38.0613 40.7041L39.2307 36.6477H40L38.3138 41.8709C38.275 41.9824 38.2232 42.1023 38.1584 42.2305C38.0963 42.3616 38.016 42.4856 37.9175 42.6027C37.8191 42.7198 37.7 42.8146 37.5601 42.8871C37.4228 42.9624 37.2583 43 37.0667 43C37.0097 43 36.9372 42.9916 36.8491 42.9749C36.761 42.9582 36.6989 42.9442 36.6626 42.9331L36.6587 42.3058C36.6794 42.3086 36.7118 42.3114 36.7559 42.3142C36.8025 42.3197 36.8349 42.3225 36.853 42.3225C37.0162 42.3225 37.1547 42.2988 37.2687 42.2514C37.3827 42.2068 37.4785 42.1302 37.5562 42.0214C37.6365 41.9155 37.7051 41.7691 37.7621 41.5823L38.0613 40.7041ZM37.2027 36.6477L38.2944 40.1605L38.4809 40.976L37.9642 41.2603L36.4178 36.6477H37.2027Z" fill="white"/>
<path d="M37 8H13V33H37V8Z" fill="white"/>
<path d="M25.5414 12.4807C24.6392 11.9186 23.8057 11.6122 21.0695 11.6122H16.8327V29.3674H20.0789V22.8292H21.854C23.639 22.8292 24.3352 22.6248 25.0709 22.2366C26.8263 21.3171 27.8463 19.4273 27.8463 17.0778C27.8561 15.0345 27.042 13.4 25.5414 12.4807ZM23.9233 18.9981C23.4819 19.7442 23.0896 19.9177 21.7657 19.9177H20.0789V14.5034H22.1384C23.5017 14.5034 24.3156 15.5046 24.3156 17.1595C24.3156 17.9971 24.1979 18.5181 23.9233 18.9981Z" fill="#BC1F27"/>
</svg>
