<svg width="50" height="50" viewBox="0 0 50 50" fill="none" xmlns="http://www.w3.org/2000/svg">
<path d="M11.8428 38.1016V44.5H10.9946V38.1016H11.8428Z" fill="#1C1D1F"/>
<path d="M16.2593 43.5771V37.75H17.0767V44.5H16.3296L16.2593 43.5771ZM13.0601 42.1753V42.083C13.0601 41.7197 13.104 41.3901 13.1919 41.0942C13.2827 40.7954 13.4102 40.5391 13.5742 40.3252C13.7412 40.1113 13.939 39.9473 14.1675 39.833C14.3989 39.7158 14.6567 39.6572 14.9409 39.6572C15.2397 39.6572 15.5005 39.71 15.7231 39.8154C15.9487 39.918 16.1392 40.0688 16.2944 40.2681C16.4526 40.4644 16.5771 40.7017 16.668 40.98C16.7588 41.2583 16.8218 41.5732 16.8569 41.9248V42.3291C16.8247 42.6777 16.7617 42.9912 16.668 43.2695C16.5771 43.5479 16.4526 43.7852 16.2944 43.9814C16.1392 44.1777 15.9487 44.3286 15.7231 44.4341C15.4976 44.5366 15.2339 44.5879 14.9321 44.5879C14.6538 44.5879 14.3989 44.5278 14.1675 44.4077C13.939 44.2876 13.7412 44.1191 13.5742 43.9023C13.4102 43.6855 13.2827 43.4307 13.1919 43.1377C13.104 42.8418 13.0601 42.521 13.0601 42.1753ZM13.8774 42.083V42.1753C13.8774 42.4126 13.9009 42.6353 13.9478 42.8433C13.9976 43.0513 14.0737 43.2344 14.1763 43.3926C14.2788 43.5508 14.4092 43.6753 14.5674 43.7661C14.7256 43.854 14.9146 43.8979 15.1343 43.8979C15.4038 43.8979 15.625 43.8408 15.7979 43.7266C15.9736 43.6123 16.1143 43.4614 16.2197 43.2739C16.3252 43.0864 16.4072 42.8828 16.4658 42.6631V41.604C16.4307 41.4429 16.3794 41.2876 16.312 41.1382C16.2476 40.9858 16.1626 40.8511 16.0571 40.7339C15.9546 40.6138 15.8271 40.5186 15.6748 40.4482C15.5254 40.3779 15.3481 40.3428 15.1431 40.3428C14.9204 40.3428 14.7285 40.3896 14.5674 40.4834C14.4092 40.5742 14.2788 40.7002 14.1763 40.8613C14.0737 41.0195 13.9976 41.2041 13.9478 41.415C13.9009 41.623 13.8774 41.8457 13.8774 42.083Z" fill="#1C1D1F"/>
<path d="M20.3154 44.5879C19.9844 44.5879 19.6841 44.5322 19.4146 44.4209C19.1479 44.3066 18.918 44.147 18.7246 43.9419C18.5342 43.7368 18.3877 43.4937 18.2852 43.2124C18.1826 42.9312 18.1313 42.6235 18.1313 42.2896V42.105C18.1313 41.7183 18.1885 41.374 18.3027 41.0723C18.417 40.7676 18.5723 40.5098 18.7686 40.2988C18.9648 40.0879 19.1875 39.9282 19.4365 39.8198C19.6855 39.7114 19.9434 39.6572 20.21 39.6572C20.5498 39.6572 20.8428 39.7158 21.0889 39.833C21.3379 39.9502 21.5415 40.1143 21.6997 40.3252C21.8579 40.5332 21.9751 40.7793 22.0513 41.0635C22.1274 41.3447 22.1655 41.6523 22.1655 41.9863V42.3511H18.6147V41.6875H21.3525V41.626C21.3408 41.415 21.2969 41.21 21.2207 41.0107C21.1475 40.8115 21.0303 40.6475 20.8691 40.5186C20.708 40.3896 20.4883 40.3252 20.21 40.3252C20.0254 40.3252 19.8555 40.3647 19.7002 40.4438C19.5449 40.52 19.4116 40.6343 19.3003 40.7866C19.189 40.939 19.1025 41.125 19.041 41.3447C18.9795 41.5645 18.9487 41.8179 18.9487 42.105V42.2896C18.9487 42.5151 18.9795 42.7275 19.041 42.9268C19.1055 43.123 19.1978 43.2959 19.3179 43.4453C19.4409 43.5947 19.5889 43.7119 19.7617 43.7969C19.9375 43.8818 20.1367 43.9243 20.3594 43.9243C20.6465 43.9243 20.8896 43.8657 21.0889 43.7485C21.2881 43.6313 21.4624 43.4746 21.6118 43.2783L22.104 43.6694C22.0015 43.8247 21.8711 43.9727 21.7129 44.1133C21.5547 44.2539 21.3599 44.3682 21.1284 44.4561C20.8999 44.5439 20.6289 44.5879 20.3154 44.5879Z" fill="#1C1D1F"/>
<path d="M23.9277 40.7603V44.5H23.1147V39.7451H23.8838L23.9277 40.7603ZM23.7344 41.9424L23.396 41.9292C23.3989 41.604 23.4473 41.3037 23.541 41.0283C23.6348 40.75 23.7666 40.5083 23.9365 40.3032C24.1064 40.0981 24.3086 39.9399 24.543 39.8286C24.7803 39.7144 25.0425 39.6572 25.3296 39.6572C25.564 39.6572 25.7749 39.6895 25.9624 39.7539C26.1499 39.8154 26.3096 39.915 26.4414 40.0527C26.5762 40.1904 26.6787 40.3691 26.749 40.5889C26.8193 40.8057 26.8545 41.0708 26.8545 41.3843V44.5H26.0371V41.3755C26.0371 41.1265 26.0005 40.9272 25.9272 40.7778C25.854 40.6255 25.7471 40.5156 25.6064 40.4482C25.4658 40.3779 25.293 40.3428 25.0879 40.3428C24.8857 40.3428 24.7012 40.3853 24.5342 40.4702C24.3701 40.5552 24.228 40.6724 24.1079 40.8218C23.9907 40.9712 23.8984 41.1426 23.8311 41.3359C23.7666 41.5264 23.7344 41.7285 23.7344 41.9424Z" fill="#1C1D1F"/>
<path d="M30.0801 39.7451V40.3691H27.5093V39.7451H30.0801ZM28.3794 38.5894H29.1924V43.3223C29.1924 43.4834 29.2173 43.605 29.2671 43.687C29.3169 43.769 29.3813 43.8232 29.4604 43.8496C29.5396 43.876 29.6245 43.8892 29.7153 43.8892C29.7827 43.8892 29.853 43.8833 29.9263 43.8716C30.0024 43.8569 30.0596 43.8452 30.0977 43.8364L30.1021 44.5C30.0376 44.5205 29.9526 44.5396 29.8472 44.5571C29.7446 44.5776 29.6201 44.5879 29.4736 44.5879C29.2744 44.5879 29.0913 44.5483 28.9243 44.4692C28.7573 44.3901 28.624 44.2583 28.5244 44.0737C28.4277 43.8862 28.3794 43.6343 28.3794 43.3179V38.5894Z" fill="#1C1D1F"/>
<path d="M31.917 39.7451V44.5H31.0996V39.7451H31.917ZM31.0381 38.4839C31.0381 38.3521 31.0776 38.2407 31.1567 38.1499C31.2388 38.0591 31.3589 38.0137 31.5171 38.0137C31.6724 38.0137 31.791 38.0591 31.873 38.1499C31.958 38.2407 32.0005 38.3521 32.0005 38.4839C32.0005 38.6099 31.958 38.7183 31.873 38.8091C31.791 38.897 31.6724 38.9409 31.5171 38.9409C31.3589 38.9409 31.2388 38.897 31.1567 38.8091C31.0776 38.7183 31.0381 38.6099 31.0381 38.4839Z" fill="#1C1D1F"/>
<path d="M35.2129 39.7451V40.3691H32.6421V39.7451H35.2129ZM33.5122 38.5894H34.3252V43.3223C34.3252 43.4834 34.3501 43.605 34.3999 43.687C34.4497 43.769 34.5142 43.8232 34.5933 43.8496C34.6724 43.876 34.7573 43.8892 34.8481 43.8892C34.9155 43.8892 34.9858 43.8833 35.0591 43.8716C35.1353 43.8569 35.1924 43.8452 35.2305 43.8364L35.2349 44.5C35.1704 44.5205 35.0854 44.5396 34.98 44.5571C34.8774 44.5776 34.7529 44.5879 34.6064 44.5879C34.4072 44.5879 34.2241 44.5483 34.0571 44.4692C33.8901 44.3901 33.7568 44.2583 33.6572 44.0737C33.5605 43.8862 33.5122 43.6343 33.5122 43.3179V38.5894Z" fill="#1C1D1F"/>
<path d="M37.5024 44.0078L38.8252 39.7451H39.6953L37.7881 45.2339C37.7441 45.3511 37.6855 45.4771 37.6123 45.6118C37.542 45.7495 37.4512 45.8799 37.3398 46.0029C37.2285 46.126 37.0938 46.2256 36.9355 46.3018C36.7803 46.3809 36.5942 46.4204 36.3774 46.4204C36.313 46.4204 36.231 46.4116 36.1313 46.394C36.0317 46.3765 35.9614 46.3618 35.9204 46.3501L35.916 45.6909C35.9395 45.6938 35.9761 45.6968 36.0259 45.6997C36.0786 45.7056 36.1152 45.7085 36.1357 45.7085C36.3203 45.7085 36.4771 45.6836 36.606 45.6338C36.7349 45.5869 36.8433 45.5063 36.9312 45.3921C37.022 45.2808 37.0996 45.127 37.1641 44.9307L37.5024 44.0078ZM36.5312 39.7451L37.7661 43.4365L37.9771 44.2935L37.3926 44.5923L35.6436 39.7451H36.5312Z" fill="#1C1D1F"/>
<path d="M39 6H11V34H39V6Z" fill="#BC1F27"/>
<path d="M25.6317 11.0183C24.5791 10.3889 23.6067 10.0457 20.4144 10.0457H15.4715V29.9315H19.2587V22.6087H21.3297C23.4122 22.6087 24.2244 22.3798 25.0827 21.945C27.1307 20.9151 28.3206 18.7986 28.3206 16.1671C28.3321 13.8786 27.3824 12.0481 25.6317 11.0183ZM23.7439 18.3179C23.2289 19.1535 22.7712 19.3478 21.2267 19.3478H19.2587V13.2838H21.6614C23.2519 13.2838 24.2015 14.4051 24.2015 16.2586C24.2015 17.1968 24.0643 17.7802 23.7439 18.3179Z" fill="white"/>
</svg>
