<svg width="50" height="50" viewBox="0 0 50 50" fill="none" xmlns="http://www.w3.org/2000/svg">
<path d="M8.50725 44.2743V45.0211H4.75035V44.2743H8.50725ZM4.94039 38.0951V45.0211H3.99995V38.0951H4.94039ZM8.01023 41.0729V41.8198H4.75035V41.0729H8.01023ZM8.45852 38.0951V38.8467H4.75035V38.0951H8.45852Z" fill="black"/>
<path d="M10.2373 40.973V45.0211H9.33581V39.8742H10.1885L10.2373 40.973ZM10.0229 42.2526L9.64766 42.2384C9.65091 41.8864 9.70451 41.5613 9.80847 41.2632C9.91242 40.9619 10.0586 40.7003 10.247 40.4783C10.4354 40.2563 10.6596 40.0851 10.9195 39.9646C11.1826 39.8409 11.4733 39.7791 11.7917 39.7791C12.0516 39.7791 12.2854 39.814 12.4934 39.8837C12.7013 39.9503 12.8783 40.0581 13.0245 40.2072C13.1739 40.3562 13.2876 40.5497 13.3656 40.7875C13.4435 41.0222 13.4825 41.3092 13.4825 41.6485V45.0211H12.5762V41.639C12.5762 41.3695 12.5356 41.1538 12.4544 40.9921C12.3732 40.8272 12.2546 40.7082 12.0987 40.6353C11.9427 40.5592 11.7511 40.5211 11.5237 40.5211C11.2995 40.5211 11.0949 40.5671 10.9097 40.6591C10.7278 40.7511 10.5702 40.8779 10.4371 41.0396C10.3071 41.2014 10.2048 41.3869 10.1301 41.5962C10.0586 41.8023 10.0229 42.0211 10.0229 42.2526Z" fill="black"/>
<path d="M16.8595 39.8742V40.5497H14.009V39.8742H16.8595ZM14.9738 38.6232H15.8752V43.7463C15.8752 43.9207 15.9028 44.0523 15.9581 44.1411C16.0133 44.2299 16.0848 44.2886 16.1725 44.3171C16.2602 44.3457 16.3544 44.3599 16.4551 44.3599C16.5298 44.3599 16.6078 44.3536 16.689 44.3409C16.7734 44.3251 16.8368 44.3124 16.879 44.3029L16.8839 45.0211C16.8124 45.0433 16.7182 45.064 16.6013 45.083C16.4876 45.1052 16.3495 45.1163 16.1871 45.1163C15.9662 45.1163 15.7632 45.0735 15.578 44.9878C15.3928 44.9022 15.245 44.7595 15.1346 44.5597C15.0274 44.3568 14.9738 44.084 14.9738 43.7415V38.6232Z" fill="black"/>
<path d="M19.9052 45.1163C19.5381 45.1163 19.2051 45.056 18.9063 44.9355C18.6107 44.8118 18.3557 44.639 18.1413 44.417C17.9301 44.195 17.7677 43.9318 17.654 43.6274C17.5403 43.3229 17.4834 42.99 17.4834 42.6284V42.4286C17.4834 42.01 17.5468 41.6374 17.6735 41.3108C17.8002 40.981 17.9723 40.7019 18.19 40.4736C18.4076 40.2452 18.6545 40.0724 18.9306 39.9551C19.2068 39.8377 19.4926 39.7791 19.7883 39.7791C20.1651 39.7791 20.4899 39.8425 20.7628 39.9693C21.0389 40.0962 21.2647 40.2738 21.4401 40.5021C21.6155 40.7273 21.7455 40.9937 21.8299 41.3013C21.9144 41.6057 21.9566 41.9387 21.9566 42.3002V42.695H18.0194V41.9767H21.0552V41.9101C21.0422 41.6818 20.9934 41.4598 20.909 41.2442C20.8278 41.0285 20.6978 40.851 20.5192 40.7114C20.3405 40.5719 20.0969 40.5021 19.7883 40.5021C19.5836 40.5021 19.3952 40.5449 19.223 40.6305C19.0508 40.713 18.903 40.8367 18.7796 41.0016C18.6561 41.1665 18.5603 41.3679 18.4921 41.6057C18.4239 41.8436 18.3898 42.1179 18.3898 42.4286V42.6284C18.3898 42.8726 18.4239 43.1025 18.4921 43.3182C18.5636 43.5307 18.6659 43.7178 18.7991 43.8795C18.9355 44.0412 19.0996 44.1681 19.2912 44.26C19.4861 44.352 19.707 44.398 19.9539 44.398C20.2723 44.398 20.5419 44.3346 20.7628 44.2077C20.9837 44.0809 21.177 43.9112 21.3427 43.6987L21.8884 44.1221C21.7747 44.2902 21.6302 44.4503 21.4547 44.6025C21.2793 44.7548 21.0633 44.8784 20.8067 44.9736C20.5533 45.0687 20.2528 45.1163 19.9052 45.1163Z" fill="black"/>
<path d="M23.711 40.6829V45.0211H22.8096V39.8742H23.6866L23.711 40.6829ZM25.358 39.8457L25.3531 40.6638C25.2784 40.648 25.2069 40.6385 25.1387 40.6353C25.0738 40.629 24.999 40.6258 24.9146 40.6258C24.7067 40.6258 24.5231 40.6575 24.364 40.7209C24.2048 40.7844 24.07 40.8732 23.9595 40.9873C23.8491 41.1015 23.7614 41.2378 23.6964 41.3964C23.6347 41.5518 23.5941 41.723 23.5746 41.9101L23.3212 42.0529C23.3212 41.7421 23.3521 41.4503 23.4138 41.1776C23.4787 40.9049 23.5778 40.6638 23.711 40.4545C23.8442 40.2421 24.0131 40.0772 24.2178 39.9598C24.4257 39.8393 24.6726 39.7791 24.9584 39.7791C25.0234 39.7791 25.0981 39.787 25.1826 39.8029C25.267 39.8155 25.3255 39.8298 25.358 39.8457Z" fill="black"/>
<path d="M26.8931 40.8636V47H25.9868V39.8742H26.8151L26.8931 40.8636ZM30.4453 42.4049V42.5048C30.4453 42.879 30.3999 43.2262 30.3089 43.5465C30.218 43.8636 30.0848 44.1395 29.9093 44.3742C29.7372 44.6089 29.5244 44.7912 29.271 44.9212C29.0176 45.0513 28.7269 45.1163 28.3988 45.1163C28.0642 45.1163 27.7686 45.0624 27.512 44.9545C27.2553 44.8467 27.0377 44.6897 26.859 44.4836C26.6803 44.2775 26.5374 44.0301 26.4302 43.7415C26.3262 43.453 26.2548 43.1279 26.2158 42.7664V42.2336C26.2548 41.8531 26.3279 41.5122 26.4351 41.2109C26.5423 40.9096 26.6836 40.6527 26.859 40.4403C27.0377 40.2246 27.2537 40.0613 27.5071 39.9503C27.7605 39.8362 28.0528 39.7791 28.3842 39.7791C28.7155 39.7791 29.0095 39.8425 29.2661 39.9693C29.5228 40.093 29.7388 40.2706 29.9142 40.5021C30.0896 40.7336 30.2212 41.0111 30.3089 41.3346C30.3999 41.6549 30.4453 42.0116 30.4453 42.4049ZM29.539 42.5048V42.4049C29.539 42.148 29.5114 41.907 29.4562 41.6818C29.401 41.4535 29.3149 41.2537 29.1979 41.0825C29.0842 40.908 28.938 40.7717 28.7594 40.6734C28.5807 40.5719 28.3679 40.5211 28.121 40.5211C27.8937 40.5211 27.6955 40.5592 27.5266 40.6353C27.3609 40.7114 27.2196 40.8145 27.1026 40.9445C26.9857 41.0714 26.8899 41.2172 26.8151 41.3821C26.7437 41.5439 26.6901 41.7119 26.6543 41.8864V43.1184C26.7193 43.3404 26.8103 43.5497 26.9272 43.7463C27.0442 43.9397 27.2001 44.0967 27.395 44.2172C27.5899 44.3346 27.8352 44.3932 28.1308 44.3932C28.3744 44.3932 28.584 44.3441 28.7594 44.2458C28.938 44.1443 29.0842 44.0063 29.1979 43.8319C29.3149 43.6575 29.401 43.4577 29.4562 43.2326C29.5114 43.0042 29.539 42.7616 29.539 42.5048Z" fill="black"/>
<path d="M32.2972 40.6829V45.0211H31.3957V39.8742H32.2728L32.2972 40.6829ZM33.9442 39.8457L33.9393 40.6638C33.8646 40.648 33.7931 40.6385 33.7249 40.6353C33.6599 40.629 33.5852 40.6258 33.5008 40.6258C33.2929 40.6258 33.1093 40.6575 32.9501 40.7209C32.791 40.7844 32.6561 40.8732 32.5457 40.9873C32.4352 41.1015 32.3475 41.2378 32.2826 41.3964C32.2208 41.5518 32.1802 41.723 32.1608 41.9101L31.9074 42.0529C31.9074 41.7421 31.9382 41.4503 31.9999 41.1776C32.0649 40.9049 32.164 40.6638 32.2972 40.4545C32.4304 40.2421 32.5993 40.0772 32.804 39.9598C33.0119 39.8393 33.2587 39.7791 33.5446 39.7791C33.6096 39.7791 33.6843 39.787 33.7688 39.8029C33.8532 39.8155 33.9117 39.8298 33.9442 39.8457Z" fill="black"/>
<path d="M35.5573 39.8742V45.0211H34.6509V39.8742H35.5573ZM34.5827 38.509C34.5827 38.3663 34.6266 38.2458 34.7143 38.1475C34.8052 38.0492 34.9384 38 35.1138 38C35.286 38 35.4176 38.0492 35.5085 38.1475C35.6027 38.2458 35.6498 38.3663 35.6498 38.509C35.6498 38.6453 35.6027 38.7627 35.5085 38.861C35.4176 38.9561 35.286 39.0037 35.1138 39.0037C34.9384 39.0037 34.8052 38.9561 34.7143 38.861C34.6266 38.7627 34.5827 38.6453 34.5827 38.509Z" fill="black"/>
<path d="M39.8747 43.6559C39.8747 43.5291 39.8455 43.4117 39.787 43.3039C39.7318 43.1929 39.6165 43.093 39.441 43.0042C39.2689 42.9123 39.009 42.833 38.6614 42.7664C38.369 42.7061 38.1043 42.6348 37.8671 42.5523C37.6332 42.4699 37.4335 42.37 37.2678 42.2526C37.1054 42.1353 36.9803 41.9974 36.8926 41.8388C36.8049 41.6802 36.761 41.4947 36.761 41.2822C36.761 41.0793 36.8065 40.8874 36.8975 40.7067C36.9917 40.5259 37.1232 40.3658 37.2922 40.2262C37.4643 40.0867 37.6706 39.9773 37.911 39.898C38.1514 39.8187 38.4194 39.7791 38.715 39.7791C39.1373 39.7791 39.4979 39.852 39.7967 39.9979C40.0956 40.1438 40.3246 40.3388 40.4838 40.583C40.643 40.824 40.7226 41.092 40.7226 41.3869H39.8211C39.8211 41.2442 39.7773 41.1062 39.6895 40.973C39.6051 40.8367 39.48 40.7241 39.3143 40.6353C39.1519 40.5465 38.9521 40.5021 38.715 40.5021C38.4649 40.5021 38.2618 40.5402 38.1059 40.6163C37.9532 40.6892 37.8411 40.7828 37.7697 40.8969C37.7015 41.0111 37.6674 41.1316 37.6674 41.2585C37.6674 41.3536 37.6836 41.4392 37.7161 41.5153C37.7518 41.5883 37.8135 41.6564 37.9012 41.7199C37.989 41.7801 38.1124 41.8372 38.2716 41.8911C38.4307 41.945 38.6338 41.9989 38.8807 42.0529C39.3127 42.148 39.6684 42.2622 39.9478 42.3953C40.2272 42.5285 40.4351 42.6919 40.5715 42.8853C40.7079 43.0788 40.7762 43.3134 40.7762 43.5893C40.7762 43.8145 40.7274 44.0206 40.63 44.2077C40.5358 44.3948 40.3977 44.5566 40.2158 44.6929C40.0371 44.8261 39.8227 44.9308 39.5726 45.0069C39.3257 45.0798 39.048 45.1163 38.7394 45.1163C38.2748 45.1163 37.8818 45.0354 37.5602 44.8737C37.2385 44.7119 36.9949 44.5026 36.8292 44.2458C36.6636 43.9889 36.5807 43.7178 36.5807 43.4323H37.4871C37.5001 43.6734 37.5715 43.8652 37.7015 44.0079C37.8314 44.1475 37.9906 44.2474 38.179 44.3076C38.3674 44.3647 38.5542 44.3932 38.7394 44.3932C38.9862 44.3932 39.1925 44.3615 39.3582 44.2981C39.5271 44.2347 39.6554 44.1475 39.7431 44.0365C39.8309 43.9255 39.8747 43.7986 39.8747 43.6559Z" fill="black"/>
<path d="M43.9485 45.1163C43.5814 45.1163 43.2485 45.056 42.9496 44.9355C42.654 44.8118 42.399 44.639 42.1846 44.417C41.9734 44.195 41.811 43.9318 41.6973 43.6274C41.5836 43.3229 41.5268 42.99 41.5268 42.6284V42.4286C41.5268 42.01 41.5901 41.6374 41.7168 41.3108C41.8435 40.981 42.0157 40.7019 42.2333 40.4736C42.451 40.2452 42.6979 40.0724 42.974 39.9551C43.2501 39.8377 43.536 39.7791 43.8316 39.7791C44.2084 39.7791 44.5333 39.8425 44.8061 39.9693C45.0822 40.0962 45.308 40.2738 45.4834 40.5021C45.6589 40.7273 45.7888 40.9937 45.8733 41.3013C45.9577 41.6057 46 41.9387 46 42.3002V42.695H42.0628V41.9767H45.0985V41.9101C45.0855 41.6818 45.0368 41.4598 44.9523 41.2442C44.8711 41.0285 44.7412 40.851 44.5625 40.7114C44.3838 40.5719 44.1402 40.5021 43.8316 40.5021C43.6269 40.5021 43.4385 40.5449 43.2663 40.6305C43.0942 40.713 42.9464 40.8367 42.8229 41.0016C42.6995 41.1665 42.6036 41.3679 42.5354 41.6057C42.4672 41.8436 42.4331 42.1179 42.4331 42.4286V42.6284C42.4331 42.8726 42.4672 43.1025 42.5354 43.3182C42.6069 43.5307 42.7092 43.7178 42.8424 43.8795C42.9788 44.0412 43.1429 44.1681 43.3346 44.26C43.5295 44.352 43.7504 44.398 43.9973 44.398C44.3156 44.398 44.5852 44.3346 44.8061 44.2077C45.027 44.0809 45.2203 43.9112 45.386 43.6987L45.9317 44.1221C45.818 44.2902 45.6735 44.4503 45.4981 44.6025C45.3226 44.7548 45.1066 44.8784 44.85 44.9736C44.5966 45.0687 44.2961 45.1163 43.9485 45.1163Z" fill="black"/>
<path d="M39 6H11V34H39V6Z" fill="#BC1F27"/>
<path d="M25.6317 11.0183C24.5791 10.3889 23.6067 10.0457 20.4144 10.0457H15.4715V29.9315H19.2587V22.6087H21.3297C23.4122 22.6087 24.2244 22.3798 25.0827 21.945C27.1307 20.9151 28.3206 18.7986 28.3206 16.1671C28.3321 13.8786 27.3824 12.0481 25.6317 11.0183ZM23.7439 18.3179C23.2289 19.1535 22.7712 19.3478 21.2267 19.3478H19.2587V13.2838H21.6614C23.2519 13.2838 24.2015 14.4051 24.2015 16.2586C24.2015 17.1968 24.0643 17.7802 23.7439 18.3179Z" fill="white"/>
</svg>
