<svg width="50" height="50" viewBox="0 0 50 50" fill="none" xmlns="http://www.w3.org/2000/svg">
<path fill-rule="evenodd" clip-rule="evenodd" d="M6 40.0005C6 42.2096 7.79086 44.0005 10 44.0005H40C42.2091 44.0005 44 42.2096 44 40.0005V10.0005C44 7.79135 42.2091 6.00049 40 6.00049H10C7.79086 6.00049 6 7.79135 6 10.0005V40.0005Z" fill="#B8232F"/>
<path fill-rule="evenodd" clip-rule="evenodd" d="M15.9822 13.2402C20.747 13.2402 25.3482 14.8439 25.3482 20.4801C25.3482 25.5452 21.6977 28.1032 17.074 28.1032H14.6224V36.7605H10.1405V13.2402H15.9822ZM17.457 17.0709H14.6224V24.2534H16.9591C19.3893 24.2534 20.4641 22.9677 20.4641 20.5951C20.4641 18.3924 19.3532 17.0709 17.457 17.0709Z" fill="white"/>
</svg>
