<svg width="50" height="50" viewBox="0 0 50 50" fill="none" xmlns="http://www.w3.org/2000/svg">
<rect width="50" height="50" fill="#BC1F27"/>
<path d="M13.4932 36.3244V42.2281H12.6953V36.3244H13.4932Z" fill="white"/>
<path d="M17.648 41.3766V36H18.4169V42.2281H17.7141L17.648 41.3766ZM14.6384 40.0831V39.998C14.6384 39.6628 14.6797 39.3587 14.7624 39.0857C14.8478 38.8099 14.9677 38.5734 15.122 38.3761C15.2791 38.1787 15.4652 38.0274 15.6802 37.9219C15.8979 37.8138 16.1404 37.7598 16.4078 37.7598C16.6889 37.7598 16.9342 37.8084 17.1436 37.9057C17.3559 38.0003 17.535 38.1396 17.6811 38.3234C17.8299 38.5045 17.947 38.7234 18.0325 38.9802C18.1179 39.237 18.1772 39.5276 18.2102 39.852V40.225C18.1799 40.5467 18.1207 40.836 18.0325 41.0928C17.947 41.3496 17.8299 41.5685 17.6811 41.7496C17.535 41.9307 17.3559 42.0699 17.1436 42.1673C16.9314 42.2619 16.6834 42.3092 16.3995 42.3092C16.1377 42.3092 15.8979 42.2538 15.6802 42.1429C15.4652 42.0321 15.2791 41.8767 15.122 41.6766C14.9677 41.4766 14.8478 41.2414 14.7624 40.9711C14.6797 40.6981 14.6384 40.4021 14.6384 40.0831ZM15.4073 39.998V40.0831C15.4073 40.3021 15.4294 40.5075 15.4734 40.6994C15.5203 40.8914 15.592 41.0603 15.6884 41.2063C15.7849 41.3523 15.9075 41.4671 16.0564 41.5509C16.2052 41.632 16.383 41.6726 16.5897 41.6726C16.8432 41.6726 17.0513 41.6199 17.2139 41.5144C17.3793 41.409 17.5116 41.2698 17.6108 41.0968C17.71 40.9238 17.7872 40.7359 17.8423 40.5332V39.556C17.8092 39.4073 17.761 39.2641 17.6976 39.1262C17.637 38.9856 17.557 38.8613 17.4578 38.7532C17.3614 38.6423 17.2415 38.5545 17.0982 38.4896C16.9576 38.4247 16.7909 38.3923 16.5979 38.3923C16.3885 38.3923 16.2079 38.4355 16.0564 38.522C15.9075 38.6058 15.7849 38.7221 15.6884 38.8708C15.592 39.0167 15.5203 39.187 15.4734 39.3817C15.4294 39.5736 15.4073 39.779 15.4073 39.998Z" fill="white"/>
<path d="M21.4638 42.3092C21.1524 42.3092 20.8699 42.2578 20.6163 42.1551C20.3655 42.0497 20.1491 41.9023 19.9672 41.7131C19.7881 41.5239 19.6503 41.2995 19.5538 41.04C19.4574 40.7805 19.4091 40.4967 19.4091 40.1885V40.0182C19.4091 39.6614 19.4629 39.3438 19.5704 39.0654C19.6779 38.7843 19.8239 38.5464 20.0086 38.3517C20.1932 38.1571 20.4027 38.0098 20.637 37.9098C20.8712 37.8098 21.1138 37.7598 21.3646 37.7598C21.6843 37.7598 21.9599 37.8138 22.1914 37.9219C22.4257 38.0301 22.6172 38.1814 22.7661 38.3761C22.9149 38.568 23.0251 38.7951 23.0968 39.0573C23.1684 39.3168 23.2043 39.6006 23.2043 39.9088V40.2453H19.8639V39.633H22.4395V39.5763C22.4284 39.3817 22.3871 39.1924 22.3154 39.0086C22.2465 38.8248 22.1363 38.6734 21.9847 38.5545C21.8331 38.4355 21.6264 38.3761 21.3646 38.3761C21.1909 38.3761 21.0311 38.4126 20.885 38.4856C20.739 38.5558 20.6135 38.6613 20.5088 38.8018C20.4041 38.9424 20.3228 39.114 20.2649 39.3168C20.207 39.5195 20.1781 39.7533 20.1781 40.0182V40.1885C20.1781 40.3967 20.207 40.5927 20.2649 40.7765C20.3255 40.9576 20.4124 41.1171 20.5254 41.2549C20.6411 41.3928 20.7803 41.5009 20.9429 41.5793C21.1083 41.6577 21.2957 41.6969 21.5051 41.6969C21.7752 41.6969 22.004 41.6428 22.1914 41.5347C22.3788 41.4266 22.5428 41.282 22.6834 41.1009L23.1464 41.4617C23.0499 41.605 22.9273 41.7415 22.7785 41.8713C22.6296 42.001 22.4463 42.1064 22.2286 42.1875C22.0136 42.2686 21.7587 42.3092 21.4638 42.3092Z" fill="white"/>
<path d="M24.8621 38.7775V42.2281H24.0972V37.8409H24.8207L24.8621 38.7775ZM24.6802 39.8682L24.3618 39.8561C24.3646 39.556 24.4101 39.2789 24.4983 39.0248C24.5864 38.768 24.7105 38.545 24.8703 38.3558C25.0302 38.1666 25.2203 38.0206 25.4408 37.9179C25.6641 37.8125 25.9107 37.7598 26.1808 37.7598C26.4013 37.7598 26.5998 37.7895 26.7762 37.849C26.9525 37.9057 27.1028 37.9976 27.2268 38.1247C27.3536 38.2517 27.45 38.4166 27.5162 38.6194C27.5823 38.8194 27.6154 39.064 27.6154 39.3533V42.2281H26.8464V39.3452C26.8464 39.1154 26.812 38.9316 26.7431 38.7937C26.6742 38.6532 26.5736 38.5518 26.4413 38.4896C26.309 38.4247 26.1464 38.3923 25.9535 38.3923C25.7633 38.3923 25.5897 38.4315 25.4326 38.5099C25.2782 38.5883 25.1446 38.6964 25.0316 38.8343C24.9213 38.9721 24.8345 39.1303 24.7711 39.3087C24.7105 39.4844 24.6802 39.6709 24.6802 39.8682Z" fill="white"/>
<path d="M30.6498 37.8409V38.4166H28.2314V37.8409H30.6498ZM29.0499 36.7745H29.8147V41.1414C29.8147 41.2901 29.8382 41.4023 29.885 41.478C29.9319 41.5536 29.9925 41.6036 30.0669 41.628C30.1413 41.6523 30.2213 41.6645 30.3067 41.6645C30.3701 41.6645 30.4362 41.6591 30.5051 41.6483C30.5768 41.6347 30.6305 41.6239 30.6664 41.6158L30.6705 42.2281C30.6099 42.247 30.5299 42.2646 30.4307 42.2808C30.3343 42.2997 30.2171 42.3092 30.0793 42.3092C29.8919 42.3092 29.7197 42.2727 29.5626 42.1997C29.4055 42.1267 29.2801 42.0051 29.1864 41.8348C29.0954 41.6618 29.0499 41.4293 29.0499 41.1374V36.7745Z" fill="white"/>
<path d="M32.3779 37.8409V42.2281H31.609V37.8409H32.3779ZM31.5511 36.6771C31.5511 36.5555 31.5883 36.4528 31.6627 36.369C31.7399 36.2852 31.8529 36.2433 32.0017 36.2433C32.1478 36.2433 32.2594 36.2852 32.3366 36.369C32.4165 36.4528 32.4565 36.5555 32.4565 36.6771C32.4565 36.7934 32.4165 36.8934 32.3366 36.9772C32.2594 37.0583 32.1478 37.0988 32.0017 37.0988C31.8529 37.0988 31.7399 37.0583 31.6627 36.9772C31.5883 36.8934 31.5511 36.7934 31.5511 36.6771Z" fill="white"/>
<path d="M35.4785 37.8409V38.4166H33.06V37.8409H35.4785ZM33.8786 36.7745H34.6434V41.1414C34.6434 41.2901 34.6668 41.4023 34.7137 41.478C34.7605 41.5536 34.8212 41.6036 34.8956 41.628C34.97 41.6523 35.0499 41.6645 35.1354 41.6645C35.1988 41.6645 35.2649 41.6591 35.3338 41.6483C35.4055 41.6347 35.4592 41.6239 35.495 41.6158L35.4992 42.2281C35.4385 42.247 35.3586 42.2646 35.2594 42.2808C35.1629 42.2997 35.0458 42.3092 34.908 42.3092C34.7206 42.3092 34.5483 42.2727 34.3912 42.1997C34.2341 42.1267 34.1087 42.0051 34.015 41.8348C33.9241 41.6618 33.8786 41.4293 33.8786 41.1374V36.7745Z" fill="white"/>
<path d="M37.6324 41.7739L38.8768 37.8409H39.6953L37.9011 42.9052C37.8598 43.0133 37.8046 43.1296 37.7357 43.2539C37.6696 43.381 37.5842 43.5013 37.4794 43.6148C37.3747 43.7283 37.2479 43.8202 37.0991 43.8905C36.953 43.9635 36.778 44 36.574 44C36.5134 44 36.4362 43.9919 36.3425 43.9757C36.2488 43.9595 36.1827 43.9459 36.1441 43.9351L36.14 43.3269C36.162 43.3296 36.1965 43.3323 36.2433 43.335C36.2929 43.3404 36.3274 43.3431 36.3467 43.3431C36.5203 43.3431 36.6678 43.3202 36.789 43.2742C36.9103 43.231 37.0123 43.1566 37.0949 43.0512C37.1804 42.9485 37.2534 42.8066 37.3141 42.6254L37.6324 41.7739ZM36.7187 37.8409L37.8804 41.2468L38.0789 42.0375L37.529 42.3132L35.8836 37.8409H36.7187Z" fill="white"/>
<path d="M38.6953 6H12.6953V32H38.6953V6Z" fill="white"/>
<path d="M26.2819 10.6599C25.3045 10.0754 24.4015 9.7567 21.4373 9.7567H16.8474V28.2221H20.3641V21.4223H22.2872C24.2209 21.4223 24.9751 21.2098 25.7721 20.8061C27.6739 19.8497 28.7788 17.8844 28.7788 15.4409C28.7894 13.3159 27.9075 11.616 26.2819 10.6599ZM24.5289 17.4381C24.0508 18.214 23.6257 18.3944 22.1915 18.3944H20.3641V12.7636H22.5952C24.0721 12.7636 24.9539 13.8047 24.9539 15.5258C24.9538 16.397 24.8264 16.9388 24.5289 17.4381Z" fill="#BC1F27"/>
</svg>
