<svg width="50" height="50" viewBox="0 0 50 50" fill="none" xmlns="http://www.w3.org/2000/svg">
<path d="M17.7056 27.0944C16.2365 27.1947 14.8416 27.8253 13.7455 28.8846C12.6494 29.9438 11.9161 31.3701 11.6636 32.9335C11.4065 34.4867 11.6483 36.088 12.3489 37.4732C12.4371 37.6561 12.4921 37.8414 12.3489 37.9982C12.2604 38.1056 12.1378 38.1734 12.0052 38.1882C11.1238 38.2025 10.2622 38.1882 9.38965 38.1882C9.29748 38.1952 9.20585 38.1682 9.12979 38.1116C9.05372 38.0551 8.99773 37.9724 8.97098 37.877C8.45533 36.4188 8.2483 34.8548 8.36503 33.2994C8.50495 31.4409 9.09955 29.6557 10.0882 28.1258C11.0768 26.5959 12.4241 25.376 13.9927 24.5906C14.047 24.5754 14.0939 24.5384 14.1238 24.4872C14.1537 24.436 14.1644 24.3744 14.1536 24.315C14.0153 22.3019 14.3894 20.2863 15.2355 18.4855C16.8683 14.9958 19.475 12.8103 23.027 12.0359C28.8398 10.7673 34.5931 14.8723 35.8557 21.1342C35.9372 21.5357 35.9857 21.9443 36.0496 22.3481C36.0496 22.4811 36.0606 22.6118 36.0496 22.7424C36.0496 23.4884 36.0496 24.2367 36.0099 24.9778C35.9725 25.5218 35.8447 26.0587 35.7587 26.5979L34.895 29.0281C34.8534 29.1574 34.7717 29.2673 34.6637 29.3391C34.5557 29.411 34.428 29.4404 34.3022 29.4225C33.4627 29.4106 32.621 29.4225 31.7814 29.4225C31.5765 29.4225 31.3804 29.4082 31.2702 29.1849C31.1601 28.9616 31.2548 28.7668 31.3848 28.5768C32.1735 27.4088 32.6678 26.0403 32.8193 24.6049C32.8226 24.5392 32.8226 24.4734 32.8193 24.4077C32.8193 23.9112 32.8391 23.4123 32.8193 22.9135C32.7718 22.0954 32.5952 21.292 32.2971 20.5379C31.5614 18.5742 30.1627 16.9841 28.3829 16.0879C26.603 15.1917 24.5742 15.0561 22.7053 15.7084C20.8034 16.3584 19.2129 17.7848 18.2741 19.6827C17.6486 20.8971 17.3259 22.2656 17.3376 23.6546C18.4064 23.563 19.4819 23.665 20.5194 23.9563C20.4783 24.0321 20.4319 24.1043 20.3806 24.1725C20.2087 24.3478 20.0462 24.5334 19.8936 24.7284C19.4023 25.4411 18.9329 26.1822 18.4438 26.902C18.3722 26.9867 18.2757 27.0421 18.1705 27.0588C18.0163 27.0802 17.8611 27.0921 17.7056 27.0944Z" fill="#008A74"/>
<path d="M32.328 20.5261C32.6261 21.2801 32.8028 22.0835 32.8502 22.9016C32.8678 23.4005 32.8502 23.8993 32.8502 24.3958C32.1303 24.0842 31.38 23.8611 30.6137 23.7307C29.0312 23.4732 27.4137 23.6673 25.9225 24.2937C25.2092 24.5897 24.5368 24.9893 23.9239 25.4814C23.8843 25.523 23.8502 25.5701 23.8225 25.6216C23.7515 25.6416 23.6838 25.6737 23.622 25.7166C23.2012 26.13 22.7605 26.5243 22.3771 26.9757C22.0857 27.3543 21.8149 27.7509 21.5662 28.1634C20.8963 29.2438 20.4458 30.4646 20.2441 31.7458C19.9099 33.6917 20.128 35.701 20.8699 37.5112C21.0307 37.9103 20.8699 38.1835 20.4666 38.1835C19.6403 38.1835 18.814 38.1835 17.9899 38.1835C17.8902 38.1966 17.7894 38.1714 17.7051 38.1123C17.6209 38.0532 17.5587 37.964 17.5294 37.8604C16.9657 36.107 16.7466 34.2463 16.886 32.3967C17.0242 30.5879 17.5081 28.8296 18.3072 27.2322C18.3227 27.2037 18.3315 27.1728 18.3579 27.1063H17.6969C17.8621 27.1013 18.027 27.0854 18.1904 27.0588C18.2956 27.0421 18.3921 26.9867 18.4637 26.902C18.9529 26.1894 19.4222 25.4482 19.9136 24.7284C20.0661 24.5334 20.2287 24.3478 20.4005 24.1725C20.4518 24.1038 20.4989 24.0316 20.5416 23.9563C20.6049 23.9145 20.6653 23.8677 20.7223 23.8162C22.1062 22.395 23.7771 21.3395 25.6037 20.7327C27.4302 20.1259 29.3624 19.9844 31.2483 20.3194C31.6075 20.3812 31.9666 20.4572 32.328 20.5261Z" fill="#00B39F"/>
<path d="M35.7785 26.5956C35.8644 26.0563 35.9989 25.5195 36.0297 24.9755C36.0782 24.2343 36.0606 23.486 36.0694 22.7401C36.0694 22.6094 36.0694 22.4788 36.0694 22.3457C38.6344 24.1473 40.4827 26.9169 41.252 30.1114C41.622 31.5805 41.7458 33.1089 41.6177 34.6249C41.5261 35.7124 41.3146 36.7842 40.9875 37.8176C40.9625 37.9295 40.9007 38.0277 40.8136 38.0941C40.7264 38.1605 40.6199 38.1906 40.5138 38.1787C39.6809 38.1787 38.848 38.1787 38.015 38.1787C37.6338 38.1787 37.4686 37.9222 37.6228 37.5492C38.2549 36.0448 38.5233 34.3923 38.4029 32.7459C38.2539 30.4439 37.3466 28.2752 35.8446 26.6312C35.8237 26.617 35.8016 26.605 35.7785 26.5956Z" fill="#01B39F"/>
<path d="M21.5616 28.1444C21.8104 27.7319 22.0811 27.3353 22.3725 26.9566C22.7559 26.5053 23.1966 26.111 23.6175 25.6976C23.6792 25.6547 23.7469 25.6226 23.818 25.6026C24.9158 26.4338 25.8343 27.5107 26.5107 28.7597C27.5593 30.6522 28.0223 32.8552 27.8328 35.0501C27.7548 36.0009 27.5576 36.9359 27.2466 37.8295C27.2196 37.9374 27.1581 38.0315 27.0731 38.0953C26.9881 38.1592 26.8849 38.1887 26.7817 38.1787C25.9267 38.1787 25.0696 38.1787 24.2146 38.1787C23.8092 38.1787 23.6483 37.8936 23.8422 37.5064C24.4767 36.2771 24.7458 34.8675 24.6135 33.468C24.5255 32.4022 24.2107 31.3725 23.6937 30.4591C23.1766 29.5457 22.4712 28.7732 21.6322 28.2014L21.5616 28.1444Z" fill="#008A74"/>
</svg>
