<svg width="50" height="50" viewBox="0 0 50 50" fill="none" xmlns="http://www.w3.org/2000/svg">
<path d="M34.9028 32.7535C31.9094 35.5444 28.8902 38.3116 25.938 41.1404C25.1658 41.8701 24.7077 41.818 23.9818 41.1262C21.13 38.4111 18.2267 35.7387 15.3413 33.052C15.5442 32.1184 17.4536 32.3328 18.1829 32.2962C23.4734 32.263 29.7184 31.3183 34.9028 32.7535Z" fill="#0164B6"/>
<path d="M34.9028 32.7535C29.7184 31.3183 23.4734 32.263 18.1829 32.2962C17.4572 32.3315 15.5471 32.1145 15.3464 33.0473C14.2989 32.2323 13.259 31.4125 12.8446 30.1379L15.1045 28.2425C17.9224 31.1102 32.7416 27.6325 37.2552 28.7164H37.4277C37.3273 30.4601 36.3545 31.7347 34.9028 32.7535Z" fill="#0073C0"/>
<path d="M15.0994 28.2425L12.8395 30.1379C12.6239 29.7093 12.5182 29.2407 12.5307 28.7685C12.5307 24.838 12.5307 20.9099 12.5307 16.9818C12.5307 15.9449 13.0093 15.8016 13.761 16.4867C16.0483 18.6031 18.3339 20.7204 20.6178 22.8384C20.2986 23.6345 19.3849 23.9757 18.9499 24.6817C17.5877 25.7943 16.3017 26.9835 15.0994 28.2425Z" fill="#182E7D"/>
<path d="M18.9601 24.6888C19.3951 23.978 20.3089 23.6416 20.628 22.8456C21.1428 22.7792 21.3178 22.2509 21.7656 22.0874C26.5071 23.3626 32.3783 22.3433 37.2398 22.3433C37.2398 23.291 37.2398 24.2386 37.2398 25.1863C35.0943 25.1863 19.4281 26.5535 18.9601 24.6888Z" fill="#008DD3"/>
<path d="M37.2398 22.3362C32.3746 22.3362 26.5119 23.3568 21.7657 22.0803C22.6346 21.1453 23.5812 20.274 24.597 19.4742C28.6797 20.2353 33.1164 19.7277 37.2424 19.7277L37.2398 22.3362Z" fill="#0097DA"/>
<path d="M37.2398 19.7301C33.1121 19.7301 28.6792 20.2381 24.5944 19.4766L28.1978 16.1597C31.0252 16.9257 34.3519 16.418 37.2424 16.418L37.2398 19.7301Z" fill="#00A3E2"/>
<path d="M37.2398 19.7301C37.2398 18.6245 37.2398 17.5188 37.2398 16.4132C37.2398 15.8636 37.1934 15.3092 37.2552 14.7548C37.353 13.8569 37.0442 13.492 35.9863 13.537C34.4188 13.6034 32.8333 13.6745 31.2838 13.3001C32.9311 11.7554 34.5784 10.2099 36.2257 8.66364C36.8339 8.10381 37.5062 8.34944 37.4997 9.18484C37.474 15.6906 37.4491 22.1956 37.4251 28.6998H37.2526C37.2526 27.5199 37.2526 26.3354 37.2526 25.146C37.2526 24.1984 37.2526 23.2507 37.2526 22.303L37.2398 19.7301Z" fill="#01BBF0"/>
<path d="M31.2814 13.3238C32.8257 13.6863 34.4163 13.6152 35.9838 13.5607C37.0417 13.5157 37.3506 13.8806 37.2528 14.7785C37.191 15.3234 37.2528 15.8778 37.2373 16.4369C34.3457 16.4369 31.0215 16.945 28.1927 16.1787L31.2814 13.3238Z" fill="#00AFEA"/>
<path d="M37.2449 25.1768C37.2449 26.3567 37.2449 27.5413 37.2449 28.7306C32.6634 27.6304 18.0035 31.1483 15.0941 28.2568C16.3001 26.9999 17.5895 25.813 18.955 24.703C19.4136 26.5307 35.1051 25.1768 37.2449 25.1768Z" fill="#0081C9"/>
</svg>
