<svg width="50" height="50" viewBox="0 0 50 50" fill="none" xmlns="http://www.w3.org/2000/svg">
<path d="M24.775 11H25.6034C26.4885 11.2875 27.2901 11.8591 27.7877 12.6901C29.2072 14.9413 29.5078 17.7184 29.6181 20.3518C29.5078 20.3588 29.2907 20.3693 29.1805 20.3728C28.9935 18.0551 28.8064 15.4217 27.1464 13.6825C26.278 12.7427 24.8853 13.0057 24.0269 13.8192C21.9895 15.6286 20.9841 18.3636 20.2192 20.976C19.0402 25.4748 18.6628 30.4961 20.5733 34.8406C18.8532 33.2557 18.2353 30.8152 17.9748 28.5184C17.5973 24.0582 18.3722 19.4647 20.2827 15.4532C21.2647 13.5387 22.604 11.4664 24.775 11Z" fill="black"/>
<path d="M20.6401 23.0308C22.604 21.6527 25.1458 22.0139 27.3335 22.4697C31.769 23.6058 35.9942 26.0008 39.057 29.5914C40.1558 30.9625 41.238 32.6841 40.9541 34.5636C40.747 35.8505 39.6114 36.7061 38.4758 37.0287C36.238 37.6528 33.8733 37.2987 31.6789 36.657C31.2948 36.6009 31.0509 36.38 30.9407 35.9978C33.0316 36.5097 35.2961 37.0813 37.3936 36.2923C38.6094 35.8715 39.2373 34.3708 38.7063 33.1435C37.7143 30.426 35.4397 28.529 33.2253 26.923C29.5212 24.4053 25.1324 22.5153 20.6401 23.0308Z" fill="black"/>
<path d="M10.827 30.0929C12.507 28.6552 14.4843 27.4805 16.6286 27.0422C14.815 28.4343 12.3066 28.9743 11.1142 31.1659C10.4028 32.2178 10.8003 33.7046 11.809 34.3708C13.8063 35.819 16.3347 36.0644 18.6927 36.1205C23.5458 36.1065 28.6594 34.8897 32.3835 31.4464C31.7121 32.7473 30.7769 33.9044 29.5745 34.7004C26.4182 36.8709 22.6072 37.7335 18.8865 38H17.1096C14.8217 37.8632 12.4102 37.5266 10.4796 36.1275C9.74148 35.6191 9.24716 34.8091 9 33.9325V33.1646C9.19372 31.9268 9.94189 30.8923 10.827 30.0929Z" fill="black"/>
</svg>
