<svg width="50" height="50" viewBox="0 0 50 50" fill="none" xmlns="http://www.w3.org/2000/svg">
<path fill-rule="evenodd" clip-rule="evenodd" d="M13 11C10.7909 11 9 12.7909 9 15V23C9 31.8366 16.1634 39 25 39C33.8366 39 41 31.8366 41 23V15C41 12.7909 39.2091 11 37 11H13ZM16.5944 22.4643L24.9939 30.8638C24.9984 30.8684 25.0058 30.8684 25.0103 30.8638L25.0188 30.8723L33.4265 22.4645C34.219 21.672 34.219 20.3871 33.4265 19.5946C32.634 18.8021 31.3491 18.8021 30.5565 19.5946L25.0105 25.1406L19.4643 19.5944C18.6718 18.8019 17.3869 18.8019 16.5944 19.5944C15.8019 20.3869 15.8019 21.6718 16.5944 22.4643Z" fill="#EF4156"/>
</svg>
