<svg width="50" height="50" viewBox="0 0 50 50" fill="none" xmlns="http://www.w3.org/2000/svg">
<path d="M22.3181 31.2374V41.8417H20.5V31.2374H22.3181Z" fill="black"/>
<path d="M29.0616 42C28.0837 42 27.2091 41.8088 26.4378 41.4263C25.6803 41.0438 25.0812 40.4502 24.6404 39.6457C24.2134 38.8411 24 37.8124 24 36.5594C24 35.2536 24.2272 34.1918 24.6817 33.3741C25.1362 32.5564 25.7492 31.9562 26.5205 31.5737C27.3055 31.1912 28.1939 31 29.1856 31C29.7503 31 30.2943 31.0594 30.8177 31.1781C31.3411 31.2836 31.7681 31.4155 32.0986 31.5737L31.5408 33.018C31.2103 32.8993 30.8246 32.7872 30.3839 32.6817C29.9431 32.5761 29.5299 32.5234 29.1443 32.5234C28.4005 32.5234 27.7876 32.6751 27.3055 32.9784C26.8235 33.2818 26.4654 33.7302 26.2312 34.3237C25.9971 34.9173 25.88 35.6559 25.88 36.5396C25.88 37.3837 25.9971 38.1025 26.2312 38.696C26.4654 39.2896 26.8166 39.738 27.2849 40.0414C27.7532 40.3447 28.3385 40.4964 29.041 40.4964C29.647 40.4964 30.1773 40.437 30.6318 40.3183C31.1001 40.1996 31.527 40.0546 31.9127 39.8831V41.4263C31.5408 41.6109 31.1276 41.7494 30.6731 41.8417C30.2324 41.9472 29.6952 42 29.0616 42Z" fill="black"/>
<path d="M37.4341 31C38.3845 31 39.1971 31.1978 39.872 31.5935C40.5606 31.9892 41.084 32.5498 41.4421 33.2752C41.814 33.9874 42 34.8249 42 35.7878V36.8363H34.4178C34.4453 38.0366 34.7621 38.9532 35.3681 39.5863C35.9879 40.2062 36.8488 40.5162 37.9506 40.5162C38.6531 40.5162 39.2728 40.4568 39.81 40.3381C40.3609 40.2062 40.9256 40.0216 41.5041 39.7842V41.3076C40.9394 41.545 40.3816 41.7164 39.8307 41.8219C39.2797 41.9407 38.6255 42 37.868 42C36.8212 42 35.8915 41.7956 35.0789 41.3867C34.28 40.9778 33.6534 40.3711 33.1988 39.5665C32.7581 38.7488 32.5377 37.753 32.5377 36.5791C32.5377 35.4185 32.7374 34.4227 33.1369 33.5917C33.5501 32.7608 34.1217 32.1211 34.8516 31.6727C35.5954 31.2242 36.4562 31 37.4341 31ZM37.4135 32.4245C36.5457 32.4245 35.8571 32.6948 35.3475 33.2356C34.8516 33.7632 34.5555 34.5018 34.4591 35.4514H40.0992C40.0992 34.8447 40.0028 34.3171 39.81 33.8687C39.6172 33.4203 39.3211 33.0707 38.9216 32.8201C38.536 32.5564 38.0333 32.4245 37.4135 32.4245Z" fill="black"/>
<path d="M38 12H12V38H14.5V42H8V8H42V26.5H38V12Z" fill="#73C7E8"/>
</svg>
