<svg width="50" height="50" viewBox="0 0 50 50" fill="none" xmlns="http://www.w3.org/2000/svg">
<rect width="50" height="50" fill="black"/>
<path d="M11.3185 15.8181C11.3185 14.0457 12.7931 12.5563 14.5545 12.56C16.316 12.56 17.7501 14.0346 17.7612 15.8512C17.7722 17.609 16.2829 19.102 14.5178 19.1056C12.749 19.1056 11.3222 17.6458 11.3185 15.8218V15.8181Z" fill="#00FF71"/>
<path d="M25.0496 37.367C23.1889 37.3045 21.8687 35.8887 21.9202 34.0059C21.968 32.1857 23.4904 30.803 25.421 30.906C27.0722 30.9942 28.4144 32.4357 28.3666 34.2891C28.3261 35.9365 26.9802 37.481 25.046 37.367H25.0496Z" fill="#00FF71"/>
<path d="M32.2461 27.6593C32.2277 25.8685 33.6398 24.4086 35.405 24.4012C37.2032 24.3939 38.63 25.817 38.652 27.6373C38.6741 29.5127 37.2804 30.9101 35.3829 30.9174C33.6031 30.9248 32.2682 29.5384 32.2461 27.6593Z" fill="#00FF71"/>
<path d="M21.9459 9.86476C21.9386 8.01875 23.3507 6.56988 25.1636 6.56253C26.8699 6.55517 28.4327 8.12171 28.3739 9.86476C28.3151 11.6483 27.0317 13.0714 25.1636 13.0861C23.3212 13.1008 21.9533 11.7218 21.9422 9.86476H21.9459Z" fill="#00FF71"/>
<path d="M35.3278 19.1424C33.5075 19.1277 32.1726 17.7303 32.1873 15.8549C32.202 14.0383 33.6252 12.6262 35.4344 12.6336C37.1958 12.6409 38.6043 14.1486 38.5822 16.0057C38.5601 17.8076 37.1591 19.1608 35.3278 19.1424Z" fill="#00FF71"/>
<path d="M17.5883 27.7365C17.5773 29.52 16.1064 30.9615 14.3192 30.9321C12.5577 30.9064 11.1677 29.4722 11.1714 27.7181C11.1787 25.6037 12.771 24.4564 14.2898 24.4159C16.1468 24.3681 17.5994 25.8721 17.5847 27.7402L17.5883 27.7365Z" fill="#00FF71"/>
<path d="M16.3601 40.9894C16.3527 42.4199 15.2606 43.4569 13.7823 43.4422C12.4474 43.4275 11.3516 42.2765 11.3589 40.8938C11.3663 39.5626 12.532 38.4189 13.8742 38.4226C15.279 38.4226 16.3711 39.5516 16.3638 40.9931L16.3601 40.9894Z" fill="#00FF71"/>
</svg>
