<svg width="50" height="50" viewBox="0 0 50 50" fill="none" xmlns="http://www.w3.org/2000/svg">
<path d="M41.646 25.0926C41.7591 27.2801 41.4075 29.4668 40.6137 31.5134C39.8198 33.56 38.6011 35.4216 37.0352 36.9796C35.4692 38.5377 33.5904 39.7581 31.5183 40.563C29.4462 41.3679 27.2263 41.7397 25 41.6547C22.7738 41.7397 20.5539 41.3679 18.4818 40.563C16.4097 39.7581 14.5309 38.5377 12.9649 36.9796C11.399 35.4216 10.1803 33.56 9.38641 31.5134C8.59256 29.4668 8.24098 27.2801 8.35405 25.0926C8.35405 15.4313 15.1729 8.33325 25 8.33325C34.8272 8.33325 41.646 15.2341 41.646 25.0926ZM17.379 25.0926C17.379 29.2331 20.1867 33.768 24.7995 33.768C29.4122 33.768 32.22 29.2331 32.22 25.0926C32.22 20.952 29.6128 16.22 25 16.22C20.3873 16.22 17.5795 20.7549 17.5795 25.0926" fill="#54C0D3"/>
</svg>
