<svg width="50" height="50" viewBox="0 0 50 50" fill="none" xmlns="http://www.w3.org/2000/svg">
<rect width="50" height="50" fill="#00D2E2"/>
<path fill-rule="evenodd" clip-rule="evenodd" d="M25 34.8049C32.732 34.8049 39 28.5805 39 20.9024C39 13.2243 32.732 7 25 7C17.268 7 11 13.2243 11 20.9024C11 28.5805 17.268 34.8049 25 34.8049ZM25 28.3331C28.429 28.3331 31.2087 25.0063 31.2087 20.9025C31.2087 16.7986 28.429 13.4718 25 13.4718C21.571 13.4718 18.7913 16.7986 18.7913 20.9025C18.7913 25.0063 21.571 28.3331 25 28.3331Z" fill="white"/>
<path d="M15.9459 42.9053H16.776C16.7328 43.3043 16.6189 43.6614 16.4345 43.9765C16.25 44.2917 15.9891 44.5418 15.6518 44.7268C15.3146 44.9089 14.8937 45 14.3893 45C14.0203 45 13.6845 44.9306 13.3818 44.7918C13.082 44.6531 12.824 44.4565 12.6079 44.202C12.3917 43.9447 12.2245 43.6368 12.1063 43.2783C11.991 42.9169 11.9333 42.515 11.9333 42.0727V41.4439C11.9333 41.0015 11.991 40.6011 12.1063 40.2426C12.2245 39.8812 12.3931 39.5718 12.6122 39.3145C12.8341 39.0572 13.1008 38.8591 13.4121 38.7204C13.7234 38.5816 14.0736 38.5122 14.4628 38.5122C14.9384 38.5122 15.3405 38.6018 15.6691 38.7811C15.9977 38.9603 16.2529 39.209 16.4345 39.527C16.6189 39.8421 16.7328 40.2079 16.776 40.6242H15.9459C15.9055 40.3293 15.8306 40.0763 15.721 39.8653C15.6115 39.6513 15.4558 39.4865 15.254 39.3709C15.0523 39.2552 14.7885 39.1974 14.4628 39.1974C14.1832 39.1974 13.9367 39.2509 13.7234 39.3579C13.513 39.4648 13.3357 39.6166 13.1916 39.8132C13.0503 40.0098 12.9437 40.2455 12.8716 40.5201C12.7995 40.7948 12.7635 41.0998 12.7635 41.4352V42.0727C12.7635 42.382 12.7952 42.6726 12.8586 42.9444C12.9249 43.2161 13.0244 43.4547 13.157 43.6599C13.2896 43.8652 13.4582 44.0271 13.6629 44.1457C13.8675 44.2613 14.1097 44.3191 14.3893 44.3191C14.7438 44.3191 15.0263 44.2628 15.2368 44.15C15.4472 44.0372 15.6057 43.8753 15.7124 43.6643C15.8219 43.4532 15.8997 43.2002 15.9459 42.9053Z" fill="white"/>
<path d="M21.7312 44.2324V44.9133H18.5834V44.2324H21.7312ZM18.7477 38.5989V44.9133H17.9132V38.5989H18.7477Z" fill="white"/>
<path d="M26.6863 44.2324V44.9133H23.3526V44.2324H26.6863ZM23.5212 38.5989V44.9133H22.6867V38.5989H23.5212ZM26.2453 41.3137V41.9946H23.3526V41.3137H26.2453ZM26.6431 38.5989V39.2841H23.3526V38.5989H26.6431Z" fill="white"/>
<path d="M30.0503 39.1584L27.9662 44.9133H27.1144L29.5141 38.5989H30.0632L30.0503 39.1584ZM31.7971 44.9133L29.7087 39.1584L29.6957 38.5989H30.2448L32.6532 44.9133H31.7971ZM31.689 42.5757V43.261H28.1521V42.5757H31.689Z" fill="white"/>
<path d="M33.4964 38.5989H35.5805C36.0532 38.5989 36.4524 38.6712 36.7782 38.8158C37.1068 38.9603 37.3561 39.1743 37.5262 39.4576C37.6991 39.7381 37.7856 40.0836 37.7856 40.4941C37.7856 40.7832 37.7265 41.0478 37.6083 41.2877C37.493 41.5248 37.3258 41.7272 37.1068 41.8949C36.8906 42.0597 36.6311 42.1825 36.3285 42.2635L36.095 42.3546H34.1363L34.1276 41.6737H35.6064C35.9062 41.6737 36.1555 41.6217 36.3544 41.5176C36.5533 41.4106 36.7032 41.2675 36.8041 41.0882C36.905 40.909 36.9554 40.7109 36.9554 40.4941C36.9554 40.2512 36.9079 40.0387 36.8128 39.8566C36.7176 39.6744 36.5677 39.5342 36.3631 39.4359C36.1613 39.3347 35.9004 39.2841 35.5805 39.2841H34.3309V44.9133H33.4964V38.5989ZM37.176 44.9133L35.6453 42.051L36.5144 42.0467L38.0667 44.8612V44.9133H37.176Z" fill="white"/>
</svg>
