<svg width="50" height="50" viewBox="0 0 50 50" fill="none" xmlns="http://www.w3.org/2000/svg">
<path d="M8.45347 37.8112H6.82121V37.15H8.45347C8.76957 37.15 9.02553 37.0995 9.22134 36.9984C9.41716 36.8973 9.55982 36.757 9.64934 36.5773C9.74165 36.3976 9.78781 36.1926 9.78781 35.9624C9.78781 35.7519 9.74165 35.5539 9.64934 35.3686C9.55982 35.1834 9.41716 35.0346 9.22134 34.9223C9.02553 34.8072 8.76957 34.7496 8.45347 34.7496H7.01003V40.2158H6.2002V34.0842H8.45347C8.91503 34.0842 9.30526 34.1642 9.62416 34.3243C9.94306 34.4843 10.185 34.7061 10.3501 34.9896C10.5151 35.2704 10.5976 35.5918 10.5976 35.954C10.5976 36.3471 10.5151 36.6826 10.3501 36.9605C10.185 37.2384 9.94306 37.4504 9.62416 37.5964C9.30526 37.7396 8.91503 37.8112 8.45347 37.8112Z" fill="#7F8BA5"/>
<path d="M16.3252 36.9563V37.3437C16.3252 37.8041 16.2679 38.2168 16.1532 38.5818C16.0385 38.9468 15.8735 39.257 15.6581 39.5125C15.4427 39.768 15.1839 39.9631 14.8818 40.0979C14.5825 40.2326 14.2468 40.3 13.8748 40.3C13.5139 40.3 13.1824 40.2326 12.8803 40.0979C12.581 39.9631 12.3208 39.768 12.0998 39.5125C11.8816 39.257 11.7124 38.9468 11.5921 38.5818C11.4718 38.2168 11.4117 37.8041 11.4117 37.3437V36.9563C11.4117 36.4959 11.4704 36.0846 11.5879 35.7224C11.7082 35.3574 11.8774 35.0472 12.0956 34.7917C12.3138 34.5334 12.5726 34.3369 12.8719 34.2021C13.174 34.0674 13.5055 34 13.8664 34C14.2384 34 14.5741 34.0674 14.8734 34.2021C15.1755 34.3369 15.4343 34.5334 15.6497 34.7917C15.8679 35.0472 16.0343 35.3574 16.149 35.7224C16.2665 36.0846 16.3252 36.4959 16.3252 36.9563ZM15.5238 37.3437V36.9479C15.5238 36.5829 15.486 36.26 15.4105 35.9793C15.3378 35.6985 15.2301 35.4627 15.0874 35.2718C14.9447 35.0809 14.7699 34.9363 14.5629 34.838C14.3587 34.7398 14.1265 34.6906 13.8664 34.6906C13.6146 34.6906 13.3866 34.7398 13.1824 34.838C12.981 34.9363 12.8076 35.0809 12.6621 35.2718C12.5194 35.4627 12.4089 35.6985 12.3306 35.9793C12.2523 36.26 12.2131 36.5829 12.2131 36.9479V37.3437C12.2131 37.7115 12.2523 38.0372 12.3306 38.3207C12.4089 38.6015 12.5208 38.8387 12.6663 39.0324C12.8146 39.2233 12.9894 39.3679 13.1908 39.4662C13.395 39.5644 13.623 39.6136 13.8748 39.6136C14.1377 39.6136 14.3713 39.5644 14.5755 39.4662C14.7797 39.3679 14.9517 39.2233 15.0916 39.0324C15.2343 38.8387 15.342 38.6015 15.4147 38.3207C15.4874 38.0372 15.5238 37.7115 15.5238 37.3437Z" fill="#7F8BA5"/>
<path d="M19.145 38.3628L20.3576 34.0842H20.9451L20.6052 35.7477L19.3002 40.2158H18.717L19.145 38.3628ZM17.8904 34.0842L18.8554 38.2786L19.145 40.2158H18.5659L17.0847 34.0842H17.8904ZM22.5144 38.2744L23.4585 34.0842H24.2683L22.7913 40.2158H22.2123L22.5144 38.2744ZM21.0332 34.0842L22.2123 38.3628L22.6403 40.2158H22.057L20.7982 35.7477L20.4541 34.0842H21.0332Z" fill="#7F8BA5"/>
<path d="M29.0476 39.5546V40.2158H25.8125V39.5546H29.0476ZM25.9761 34.0842V40.2158H25.1663V34.0842H25.9761ZM28.6196 36.7205V37.3816H25.8125V36.7205H28.6196ZM29.0057 34.0842V34.7496H25.8125V34.0842H29.0057Z" fill="#7F8BA5"/>
<path d="M30.0505 34.0842H32.073C32.5317 34.0842 32.9192 34.1544 33.2353 34.2948C33.5542 34.4352 33.7961 34.6429 33.9612 34.918C34.129 35.1904 34.213 35.5259 34.213 35.9245C34.213 36.2053 34.1556 36.4622 34.0409 36.6952C33.929 36.9254 33.7668 37.1219 33.5542 37.2848C33.3444 37.4448 33.0926 37.5641 32.7989 37.6427L32.5723 37.7311H30.6715L30.6631 37.07H32.0981C32.3891 37.07 32.631 37.0195 32.8241 36.9184C33.0171 36.8145 33.1625 36.6755 33.2605 36.5015C33.3584 36.3274 33.4073 36.1351 33.4073 35.9245C33.4073 35.6887 33.3612 35.4824 33.2688 35.3055C33.1765 35.1286 33.0311 34.9924 32.8325 34.897C32.6366 34.7987 32.3835 34.7496 32.073 34.7496H30.8603V40.2158H30.0505V34.0842ZM33.6213 40.2158L32.1359 37.4364L32.9793 37.4322L34.4857 40.1652V40.2158H33.6213Z" fill="#7F8BA5"/>
<path d="M39.6552 37.3479H38.1069L38.0985 36.6952H39.5042C39.7363 36.6952 39.9391 36.6559 40.1126 36.5773C40.286 36.4987 40.4203 36.3864 40.5154 36.2404C40.6133 36.0916 40.6623 35.9147 40.6623 35.7098C40.6623 35.4852 40.6189 35.3027 40.5322 35.1623C40.4483 35.0191 40.3182 34.9152 40.142 34.8507C39.9685 34.7833 39.7475 34.7496 39.479 34.7496H38.2873V40.2158H37.4775V34.0842H39.479C39.7923 34.0842 40.072 34.1165 40.3182 34.1811C40.5644 34.2428 40.7728 34.3411 40.9434 34.4759C41.1168 34.6078 41.2483 34.7763 41.3378 34.9812C41.4273 35.1862 41.4721 35.4318 41.4721 35.7182C41.4721 35.9709 41.4078 36.1997 41.2791 36.4046C41.1504 36.6068 40.9714 36.7724 40.742 36.9015C40.5154 37.0307 40.2497 37.1135 39.9447 37.15L39.6552 37.3479ZM39.6175 40.2158H37.788L38.2453 39.5546H39.6175C39.8748 39.5546 40.093 39.5097 40.272 39.4199C40.4539 39.33 40.5923 39.2037 40.6874 39.0408C40.7826 38.8752 40.8301 38.6801 40.8301 38.4555C40.8301 38.2281 40.7895 38.0316 40.7084 37.8659C40.6273 37.7003 40.5 37.5725 40.3266 37.4827C40.1531 37.3928 39.9294 37.3479 39.6552 37.3479H38.5013L38.5097 36.6952H40.0874L40.2594 36.931C40.5532 36.9563 40.8021 37.0405 41.0063 37.1837C41.2105 37.3241 41.3658 37.5037 41.4721 37.7227C41.5812 37.9417 41.6357 38.1832 41.6357 38.4471C41.6357 38.8289 41.5518 39.1517 41.384 39.4156C41.2189 39.6767 40.9854 39.8761 40.6832 40.0136C40.3811 40.1484 40.0259 40.2158 39.6175 40.2158Z" fill="#7F8BA5"/>
<path d="M43.7002 34.0842V40.2158H42.8904V34.0842H43.7002Z" fill="#7F8BA5"/>
<path d="M24.4563 6H14V16.4564H24.4563V6Z" fill="#F26522"/>
<path d="M36.0001 6H25.5438V16.4564H36.0001V6Z" fill="#8DC63F"/>
<path d="M24.4563 17.5436H14V28H24.4563V17.5436Z" fill="#00AEEF"/>
<path d="M36 17.5436H25.5437V28H36V17.5436Z" fill="#FFC20E"/>
</svg>
