<svg width="50" height="50" viewBox="0 0 50 50" fill="none" xmlns="http://www.w3.org/2000/svg">
<path d="M17 18C17 21.3137 14.3137 24 11 24C7.68629 24 5 21.3137 5 18C5 14.6863 7.68629 12 11 12C14.3137 12 17 14.6863 17 18Z" fill="#D7762D"/>
<path d="M17 32C17 35.3137 14.3137 38 11 38C7.68629 38 5 35.3137 5 32C5 28.6863 7.68629 26 11 26C14.3137 26 17 28.6863 17 32Z" fill="#D7762D"/>
<path d="M31 18C31 21.3137 28.3137 24 25 24C21.6863 24 19 21.3137 19 18C19 14.6863 21.6863 12 25 12C28.3137 12 31 14.6863 31 18Z" fill="#D7762D"/>
<path d="M31 32C31 35.3137 28.3137 38 25 38C21.6863 38 19 35.3137 19 32C19 28.6863 21.6863 26 25 26C28.3137 26 31 28.6863 31 32Z" fill="#D7762D"/>
<path d="M45 18C45 21.3137 42.3137 24 39 24C35.6863 24 33 21.3137 33 18C33 14.6863 35.6863 12 39 12C42.3137 12 45 14.6863 45 18Z" fill="#D7762D"/>
<path d="M45 32C45 35.3137 42.3137 38 39 38C35.6863 38 33 35.3137 33 32C33 28.6863 35.6863 26 39 26C42.3137 26 45 28.6863 45 32Z" fill="#D7762D"/>
</svg>
