<svg width="50" height="50" viewBox="0 0 50 50" fill="none" xmlns="http://www.w3.org/2000/svg">
<path d="M8.45322 37.8112H6.82096V37.15H8.45322C8.76933 37.15 9.02528 37.0995 9.2211 36.9984C9.41691 36.8973 9.55958 36.757 9.6491 36.5773C9.74141 36.3976 9.78756 36.1926 9.78756 35.9624C9.78756 35.7519 9.74141 35.5539 9.6491 35.3686C9.55958 35.1834 9.41691 35.0346 9.2211 34.9223C9.02528 34.8072 8.76933 34.7496 8.45322 34.7496H7.00979V40.2158H6.19995V34.0842H8.45322C8.91479 34.0842 9.30502 34.1642 9.62392 34.3243C9.94282 34.4843 10.1848 34.7061 10.3498 34.9896C10.5149 35.2704 10.5974 35.5918 10.5974 35.954C10.5974 36.3471 10.5149 36.6826 10.3498 36.9605C10.1848 37.2384 9.94282 37.4504 9.62392 37.5964C9.30502 37.7396 8.91479 37.8112 8.45322 37.8112Z" fill="black"/>
<path d="M16.325 36.9563V37.3437C16.325 37.8041 16.2676 38.2168 16.153 38.5818C16.0383 38.9468 15.8732 39.257 15.6578 39.5125C15.4424 39.768 15.1837 39.9631 14.8816 40.0979C14.5822 40.2326 14.2466 40.3 13.8745 40.3C13.5136 40.3 13.1822 40.2326 12.88 40.0979C12.5807 39.9631 12.3206 39.768 12.0996 39.5125C11.8814 39.257 11.7121 38.9468 11.5919 38.5818C11.4716 38.2168 11.4114 37.8041 11.4114 37.3437V36.9563C11.4114 36.4959 11.4702 36.0846 11.5877 35.7224C11.708 35.3574 11.8772 35.0472 12.0954 34.7917C12.3136 34.5334 12.5723 34.3369 12.8717 34.2021C13.1738 34.0674 13.5053 34 13.8661 34C14.2382 34 14.5738 34.0674 14.8732 34.2021C15.1753 34.3369 15.434 34.5334 15.6494 34.7917C15.8676 35.0472 16.0341 35.3574 16.1488 35.7224C16.2662 36.0846 16.325 36.4959 16.325 36.9563ZM15.5235 37.3437V36.9479C15.5235 36.5829 15.4858 36.26 15.4103 35.9793C15.3375 35.6985 15.2298 35.4627 15.0872 35.2718C14.9445 35.0809 14.7697 34.9363 14.5627 34.838C14.3584 34.7398 14.1263 34.6906 13.8661 34.6906C13.6144 34.6906 13.3864 34.7398 13.1822 34.838C12.9807 34.9363 12.8073 35.0809 12.6619 35.2718C12.5192 35.4627 12.4087 35.6985 12.3304 35.9793C12.252 36.26 12.2129 36.5829 12.2129 36.9479V37.3437C12.2129 37.7115 12.252 38.0372 12.3304 38.3207C12.4087 38.6015 12.5206 38.8387 12.666 39.0324C12.8143 39.2233 12.9891 39.3679 13.1906 39.4662C13.3948 39.5644 13.6227 39.6136 13.8745 39.6136C14.1375 39.6136 14.371 39.5644 14.5752 39.4662C14.7795 39.3679 14.9515 39.2233 15.0914 39.0324C15.234 38.8387 15.3417 38.6015 15.4145 38.3207C15.4872 38.0372 15.5235 37.7115 15.5235 37.3437Z" fill="black"/>
<path d="M19.1447 38.3628L20.3574 34.0842H20.9448L20.605 35.7477L19.3 40.2158H18.7167L19.1447 38.3628ZM17.8901 34.0842L18.8552 38.2786L19.1447 40.2158H18.5657L17.0845 34.0842H17.8901ZM22.5142 38.2744L23.4583 34.0842H24.2681L22.7911 40.2158H22.212L22.5142 38.2744ZM21.0329 34.0842L22.212 38.3628L22.64 40.2158H22.0568L20.798 35.7477L20.4539 34.0842H21.0329Z" fill="black"/>
<path d="M29.0474 39.5546V40.2158H25.8122V39.5546H29.0474ZM25.9759 34.0842V40.2158H25.166V34.0842H25.9759ZM28.6194 36.7205V37.3816H25.8122V36.7205H28.6194ZM29.0054 34.0842V34.7496H25.8122V34.0842H29.0054Z" fill="black"/>
<path d="M30.0502 34.0842H32.0727C32.5315 34.0842 32.9189 34.1544 33.235 34.2948C33.5539 34.4352 33.7959 34.6429 33.9609 34.918C34.1288 35.1904 34.2127 35.5259 34.2127 35.9245C34.2127 36.2053 34.1554 36.4622 34.0407 36.6952C33.9288 36.9254 33.7665 37.1219 33.5539 37.2848C33.3441 37.4448 33.0924 37.5641 32.7986 37.6427L32.5721 37.7311H30.6712L30.6629 37.07H32.0979C32.3888 37.07 32.6308 37.0195 32.8238 36.9184C33.0168 36.8145 33.1623 36.6755 33.2602 36.5015C33.3581 36.3274 33.4071 36.1351 33.4071 35.9245C33.4071 35.6887 33.3609 35.4824 33.2686 35.3055C33.1763 35.1286 33.0308 34.9924 32.8322 34.897C32.6364 34.7987 32.3832 34.7496 32.0727 34.7496H30.8601V40.2158H30.0502V34.0842ZM33.6211 40.2158L32.1357 37.4364L32.9791 37.4322L34.4854 40.1652V40.2158H33.6211Z" fill="black"/>
<path d="M39.655 37.3479H38.1066L38.0982 36.6952H39.5039C39.7361 36.6952 39.9389 36.6559 40.1123 36.5773C40.2858 36.4987 40.42 36.3864 40.5152 36.2404C40.6131 36.0916 40.662 35.9147 40.662 35.7098C40.662 35.4852 40.6187 35.3027 40.5319 35.1623C40.448 35.0191 40.3179 34.9152 40.1417 34.8507C39.9683 34.7833 39.7473 34.7496 39.4787 34.7496H38.2871V40.2158H37.4772V34.0842H39.4787C39.792 34.0842 40.0718 34.1165 40.3179 34.1811C40.5641 34.2428 40.7725 34.3411 40.9432 34.4759C41.1166 34.6078 41.2481 34.7763 41.3376 34.9812C41.4271 35.1862 41.4719 35.4318 41.4719 35.7182C41.4719 35.9709 41.4075 36.1997 41.2788 36.4046C41.1502 36.6068 40.9711 36.7724 40.7417 36.9015C40.5152 37.0307 40.2494 37.1135 39.9445 37.15L39.655 37.3479ZM39.6172 40.2158H37.7877L38.2451 39.5546H39.6172C39.8746 39.5546 40.0928 39.5097 40.2718 39.4199C40.4536 39.33 40.5921 39.2037 40.6872 39.0408C40.7823 38.8752 40.8299 38.6801 40.8299 38.4555C40.8299 38.2281 40.7893 38.0316 40.7082 37.8659C40.6271 37.7003 40.4998 37.5725 40.3263 37.4827C40.1529 37.3928 39.9291 37.3479 39.655 37.3479H38.5011L38.5095 36.6952H40.0872L40.2592 36.931C40.5529 36.9563 40.8019 37.0405 41.0061 37.1837C41.2103 37.3241 41.3656 37.5037 41.4719 37.7227C41.581 37.9417 41.6355 38.1832 41.6355 38.4471C41.6355 38.8289 41.5516 39.1517 41.3837 39.4156C41.2187 39.6767 40.9851 39.8761 40.683 40.0136C40.3809 40.1484 40.0256 40.2158 39.6172 40.2158Z" fill="black"/>
<path d="M43.7 34.0842V40.2158H42.8901V34.0842H43.7Z" fill="black"/>
<path d="M24.4563 6H14V16.4564H24.4563V6Z" fill="#F26522"/>
<path d="M36.0001 6H25.5438V16.4564H36.0001V6Z" fill="#8DC63F"/>
<path d="M24.4563 17.5436H14V28H24.4563V17.5436Z" fill="#00AEEF"/>
<path d="M36 17.5436H25.5437V28H36V17.5436Z" fill="#FFC20E"/>
</svg>
