<svg width="50" height="50" viewBox="0 0 50 50" fill="none" xmlns="http://www.w3.org/2000/svg">
<path d="M25.0016 8L19.3168 11.2822L23.1062 13.4698L24.9967 12.376L26.8964 13.4693L30.685 11.2811L25.0016 8Z" fill="#3C77B9"/>
<path d="M25.0024 41.9098L39.2114 33.7054L39.2112 24.9545L35.4203 27.1424L35.4218 31.5176L25.0007 37.5343L14.5788 31.5164L14.5785 27.1415L10.7905 24.9545V33.7046L25.0024 41.9098Z" fill="#3C77B9"/>
<path d="M41.1054 15.1085L41.108 19.4843L27.8433 27.1431L31.6298 29.331L25.0013 33.1593L18.3702 29.331L22.1593 27.1431L8.89456 19.4843L8.89713 15.114L7 14.0187V8.55034L23.1042 17.8467L25.0013 16.7541L26.8933 17.8467L43 8.54748V14.0159L41.1054 15.1085Z" fill="#1F2938"/>
</svg>
