<svg width="50" height="50" viewBox="0 0 50 50" fill="none" xmlns="http://www.w3.org/2000/svg">
<path d="M30.9954 22.1135C30.1298 21.9838 29.9374 21.8865 29.9374 21.6919C29.9374 21.4973 30.1939 21.3351 30.7389 21.3351C31.1878 21.3351 31.6687 21.4649 32.0534 21.627C32.1496 21.6595 32.2458 21.7243 32.342 21.7568V20.8811C32.342 20.8811 32.342 20.8811 32.3099 20.8811C31.8611 20.6865 31.3802 20.5892 30.7389 20.5892C29.6168 20.5892 28.8794 21.1081 28.8794 21.7568C28.8794 22.4703 29.4885 22.7297 30.6748 22.9243C31.5084 23.0541 31.7008 23.1514 31.7008 23.3459C31.7008 23.573 31.4122 23.7351 30.7069 23.7351C30.258 23.7351 29.745 23.6054 29.3282 23.4432C29.2321 23.4108 29.0718 23.3459 28.9435 23.2486V24.1243C28.9756 24.1243 29.0076 24.1568 29.0397 24.1568C29.5527 24.3514 30.0977 24.4811 30.771 24.4811C31.8611 24.4811 32.6947 24.027 32.6947 23.2811C32.7588 22.5676 32.1817 22.3081 30.9954 22.1135ZM17.2733 20.6541C18.2992 20.6541 18.8763 21.1405 18.8763 21.9189C18.8763 22.7297 18.2351 23.2162 17.2412 23.2162H16.1511V24.3838H15.1893V20.6541H17.2733ZM16.1191 22.4703H17.0809C17.6901 22.4703 17.9145 22.2757 17.9145 21.9514C17.9145 21.627 17.6901 21.4324 17.145 21.4324H16.1191V22.4703ZM21.4092 24.4162H20.4473V20.6541H22.8519C23.8458 20.6541 24.3908 21.1081 24.3908 21.8865C24.3908 22.5027 24.0061 22.8919 23.429 23.0541L24.5832 24.4162H23.4931L22.4351 23.1189H21.4412L21.4092 24.4162ZM21.4092 22.4054H22.6275C23.1725 22.4054 23.429 22.2432 23.429 21.9189C23.429 21.5946 23.2046 21.4324 22.6595 21.4324H21.4092V22.4054ZM27.2122 20.6541V24.4162H26.2504V20.6541H27.2122ZM35.6763 20.6541L36.9588 23.2162H36.9908L38.2733 20.6541H39.684V24.4162H38.7221V21.5946L37.3115 24.3838H36.6382L35.1634 21.5946V24.3838H34.2656V20.6541H35.6763ZM44.4931 23.7351H42.3771L42.0565 24.4162H41.0626L42.9542 20.6216H44.0122L45.8718 24.3838H44.8458C44.8137 24.4162 44.4931 23.7351 44.4931 23.7351ZM42.7298 23.0541H44.1725L43.4672 21.5622L42.7298 23.0541Z" fill="black"/>
<path d="M9.83372 27.016V21.448L12.6565 27.016H9.83372ZM9.83372 21.448L7.01095 27.016H9.83372V31L4 25L6.96391 21.928L7.43437 21.448L9.78667 19V21.448H9.83372Z" fill="#00BFE7"/>
<path d="M15 28.0164C15 27.4918 15.4753 27 16.4043 27C16.8148 27 17.1389 27.1148 17.3333 27.2295V27.6557C17.0741 27.5246 16.7932 27.3771 16.4043 27.3771C15.8642 27.3771 15.5617 27.6393 15.5617 28C15.5617 28.3443 15.8426 28.6066 16.3827 28.6066C16.7716 28.6066 17.0525 28.4918 17.3117 28.3443V28.7705C17.1389 28.8689 16.7932 28.9836 16.3395 28.9836C15.4105 29 15 28.541 15 28.0164ZM17.9815 27.0492H18.5216V28.5738H19.9475L19.9259 28.9672H17.9815V27.0492ZM20.1852 28C20.1852 27.3934 20.7253 27 21.5463 27C22.3673 27 22.9074 27.3934 22.9074 28C22.9074 28.6066 22.3673 29 21.5463 29C20.7253 29 20.1852 28.6066 20.1852 28ZM22.3673 28C22.3673 27.6066 22.0864 27.3771 21.5679 27.3771C21.0494 27.3771 20.7469 27.6066 20.7469 28C20.7469 28.3771 21.0278 28.623 21.5463 28.623C22.0864 28.623 22.3673 28.3934 22.3673 28ZM23.5124 28.2295V27.0492H24.0525V28.1967C24.0525 28.5082 24.3549 28.6066 24.7006 28.6066C25.0247 28.6066 25.3488 28.5082 25.3488 28.2131V27.0492H25.8889V28.2131C25.8889 28.8033 25.3488 29 24.679 29C24.0093 29 23.5124 28.7869 23.5124 28.2295ZM26.5154 27.0492H27.7469C28.5247 27.0492 29 27.4098 29 28C29 28.5902 28.5247 28.9508 27.7469 28.9508H26.5154V27.0492ZM27.7469 28.5902C28.179 28.5902 28.4383 28.4098 28.4383 28.0164C28.4383 27.623 28.179 27.4426 27.7469 27.4426H27.0772V28.5902H27.7469Z" fill="#787878"/>
</svg>
