<svg width="50" height="50" viewBox="0 0 50 50" fill="none" xmlns="http://www.w3.org/2000/svg">
<path d="M30.9954 14.1135C30.1298 13.9838 29.9374 13.8865 29.9374 13.6919C29.9374 13.4973 30.1939 13.3351 30.7389 13.3351C31.1878 13.3351 31.6687 13.4649 32.0534 13.627C32.1496 13.6595 32.2458 13.7243 32.342 13.7568V12.8811C32.342 12.8811 32.342 12.8811 32.3099 12.8811C31.8611 12.6865 31.3802 12.5892 30.7389 12.5892C29.6168 12.5892 28.8794 13.1081 28.8794 13.7568C28.8794 14.4703 29.4885 14.7297 30.6748 14.9243C31.5084 15.0541 31.7008 15.1514 31.7008 15.3459C31.7008 15.573 31.4122 15.7351 30.7069 15.7351C30.258 15.7351 29.745 15.6054 29.3282 15.4432C29.2321 15.4108 29.0718 15.3459 28.9435 15.2486V16.1243C28.9756 16.1243 29.0076 16.1568 29.0397 16.1568C29.5527 16.3514 30.0977 16.4811 30.771 16.4811C31.8611 16.4811 32.6947 16.027 32.6947 15.2811C32.7588 14.5676 32.1817 14.3081 30.9954 14.1135ZM17.2733 12.6541C18.2992 12.6541 18.8763 13.1405 18.8763 13.9189C18.8763 14.7297 18.2351 15.2162 17.2412 15.2162H16.1511V16.3838H15.1893V12.6541H17.2733ZM16.1191 14.4703H17.0809C17.6901 14.4703 17.9145 14.2757 17.9145 13.9514C17.9145 13.627 17.6901 13.4324 17.145 13.4324H16.1191V14.4703ZM21.4092 16.4162H20.4473V12.6541H22.8519C23.8458 12.6541 24.3908 13.1081 24.3908 13.8865C24.3908 14.5027 24.0061 14.8919 23.429 15.0541L24.5832 16.4162H23.4931L22.4351 15.1189H21.4412L21.4092 16.4162ZM21.4092 14.4054H22.6275C23.1725 14.4054 23.429 14.2432 23.429 13.9189C23.429 13.5946 23.2046 13.4324 22.6595 13.4324H21.4092V14.4054ZM27.2122 12.6541V16.4162H26.2504V12.6541H27.2122ZM35.6763 12.6541L36.9588 15.2162H36.9908L38.2733 12.6541H39.684V16.4162H38.7221V13.5946L37.3115 16.3838H36.6382L35.1634 13.5946V16.3838H34.2656V12.6541H35.6763ZM44.4931 15.7351H42.3771L42.0565 16.4162H41.0626L42.9542 12.6216H44.0122L45.8718 16.3838H44.8458C44.8137 16.4162 44.4931 15.7351 44.4931 15.7351ZM42.7298 15.0541H44.1725L43.4672 13.5622L42.7298 15.0541Z" fill="black"/>
<path d="M9.83372 19.016V13.448L12.6565 19.016H9.83372ZM9.83372 13.448L7.01095 19.016H9.83372V23L4 17L6.96391 13.928L7.43437 13.448L9.78667 11V13.448H9.83372Z" fill="#00BFE7"/>
<path d="M15 20.0164C15 19.4918 15.4753 19 16.4043 19C16.8148 19 17.1389 19.1148 17.3333 19.2295V19.6557C17.0741 19.5246 16.7932 19.3771 16.4043 19.3771C15.8642 19.3771 15.5617 19.6393 15.5617 20C15.5617 20.3443 15.8426 20.6066 16.3827 20.6066C16.7716 20.6066 17.0525 20.4918 17.3117 20.3443V20.7705C17.1389 20.8689 16.7932 20.9836 16.3395 20.9836C15.4105 21 15 20.541 15 20.0164ZM17.9815 19.0492H18.5216V20.5738H19.9475L19.9259 20.9672H17.9815V19.0492ZM20.1852 20C20.1852 19.3934 20.7253 19 21.5463 19C22.3673 19 22.9074 19.3934 22.9074 20C22.9074 20.6066 22.3673 21 21.5463 21C20.7253 21 20.1852 20.6066 20.1852 20ZM22.3673 20C22.3673 19.6066 22.0864 19.3771 21.5679 19.3771C21.0494 19.3771 20.7469 19.6066 20.7469 20C20.7469 20.3771 21.0278 20.623 21.5463 20.623C22.0864 20.623 22.3673 20.3934 22.3673 20ZM23.5124 20.2295V19.0492H24.0525V20.1967C24.0525 20.5082 24.3549 20.6066 24.7006 20.6066C25.0247 20.6066 25.3488 20.5082 25.3488 20.2131V19.0492H25.8889V20.2131C25.8889 20.8033 25.3488 21 24.679 21C24.0093 21 23.5124 20.7869 23.5124 20.2295ZM26.5154 19.0492H27.7469C28.5247 19.0492 29 19.4098 29 20C29 20.5902 28.5247 20.9508 27.7469 20.9508H26.5154V19.0492ZM27.7469 20.5902C28.179 20.5902 28.4383 20.4098 28.4383 20.0164C28.4383 19.623 28.179 19.4426 27.7469 19.4426H27.0772V20.5902H27.7469Z" fill="#787878"/>
<path d="M4 25H46V25.5H4V25Z" fill="#00BFE7"/>
<path d="M15.976 34.0677C15.9234 34.0677 15.881 34.0543 15.8487 34.0276C15.8204 34.0009 15.8002 33.9627 15.788 33.913L15.0061 30.2349C15.002 30.2196 15 30.2062 15 30.1948C15 30.1833 15 30.1757 15 30.1719C15 30.1413 15.0121 30.1146 15.0364 30.0917C15.0606 30.0688 15.0889 30.0573 15.1212 30.0573H15.4365C15.5213 30.0573 15.5698 30.0898 15.5819 30.1547L16.2003 33.1109L16.8549 31.0828C16.8671 31.0484 16.8873 31.0179 16.9156 30.9911C16.9479 30.9606 16.9923 30.9453 17.0489 30.9453H17.2732C17.3338 30.9453 17.3783 30.9606 17.4066 30.9911C17.4349 31.0179 17.453 31.0484 17.4611 31.0828L18.1219 33.1109L18.7341 30.1547C18.7462 30.0898 18.7968 30.0573 18.8857 30.0573H19.2009C19.2332 30.0573 19.2615 30.0688 19.2858 30.0917C19.31 30.1146 19.3221 30.1413 19.3221 30.1719C19.3221 30.1757 19.3201 30.1833 19.3161 30.1948C19.3161 30.2062 19.3161 30.2196 19.3161 30.2349L18.5341 33.913C18.522 33.9627 18.4997 34.0009 18.4674 34.0276C18.4391 34.0543 18.3987 34.0677 18.3462 34.0677H18.1097C18.0532 34.0677 18.0087 34.0543 17.9764 34.0276C17.9441 34.0009 17.9218 33.9665 17.9097 33.9245L17.158 31.7417L16.4124 33.9245C16.3963 33.9665 16.372 34.0009 16.3397 34.0276C16.3114 34.0543 16.269 34.0677 16.2124 34.0677H15.976Z" fill="black"/>
<path d="M21.197 34.125C20.8899 34.125 20.6333 34.0696 20.4272 33.9589C20.2211 33.8481 20.0635 33.6953 19.9544 33.5005C19.8452 33.3019 19.7846 33.0766 19.7725 32.8245C19.7685 32.7595 19.7664 32.6774 19.7664 32.5781C19.7664 32.475 19.7685 32.3929 19.7725 32.3318C19.7846 32.0759 19.8452 31.8505 19.9544 31.6557C20.0675 31.4609 20.2271 31.3082 20.4332 31.1974C20.6394 31.0866 20.894 31.0312 21.197 31.0312C21.5001 31.0312 21.7547 31.0866 21.9608 31.1974C22.1669 31.3082 22.3246 31.4609 22.4337 31.6557C22.5468 31.8505 22.6095 32.0759 22.6216 32.3318C22.6256 32.3929 22.6276 32.475 22.6276 32.5781C22.6276 32.6774 22.6256 32.7595 22.6216 32.8245C22.6095 33.0766 22.5488 33.3019 22.4397 33.5005C22.3306 33.6953 22.173 33.8481 21.9669 33.9589C21.7608 34.0696 21.5042 34.125 21.197 34.125ZM21.197 33.6839C21.4476 33.6839 21.6476 33.6094 21.7972 33.4604C21.9467 33.3076 22.0275 33.0861 22.0396 32.7958C22.0437 32.7385 22.0457 32.666 22.0457 32.5781C22.0457 32.4903 22.0437 32.4177 22.0396 32.3604C22.0275 32.0701 21.9467 31.8505 21.7972 31.7016C21.6476 31.5488 21.4476 31.4724 21.197 31.4724C20.9465 31.4724 20.7444 31.5488 20.5909 31.7016C20.4413 31.8505 20.3625 32.0701 20.3544 32.3604C20.3504 32.4177 20.3484 32.4903 20.3484 32.5781C20.3484 32.666 20.3504 32.7385 20.3544 32.7958C20.3625 33.0861 20.4413 33.3076 20.5909 33.4604C20.7444 33.6094 20.9465 33.6839 21.197 33.6839Z" fill="black"/>
<path d="M23.5261 34.0677C23.4857 34.0677 23.4514 34.0562 23.4231 34.0333C23.3988 34.0066 23.3867 33.9741 23.3867 33.9359V31.226C23.3867 31.1878 23.3988 31.1554 23.4231 31.1286C23.4514 31.1019 23.4857 31.0885 23.5261 31.0885H23.805C23.8454 31.0885 23.8797 31.1019 23.908 31.1286C23.9363 31.1554 23.9505 31.1878 23.9505 31.226V31.4781C24.0313 31.3483 24.1424 31.2509 24.2839 31.1859C24.4253 31.121 24.595 31.0885 24.7931 31.0885H25.0355C25.076 31.0885 25.1083 31.1019 25.1325 31.1286C25.1568 31.1516 25.1689 31.1821 25.1689 31.2203V31.4552C25.1689 31.4934 25.1568 31.524 25.1325 31.5469C25.1083 31.5698 25.076 31.5812 25.0355 31.5812H24.6718C24.4536 31.5812 24.2818 31.6424 24.1566 31.7646C24.0313 31.883 23.9686 32.0453 23.9686 32.2516V33.9359C23.9686 33.9741 23.9545 34.0066 23.9262 34.0333C23.8979 34.0562 23.8636 34.0677 23.8232 34.0677H23.5261Z" fill="black"/>
<path d="M25.835 34.0677C25.7946 34.0677 25.7602 34.0562 25.7319 34.0333C25.7077 34.0066 25.6956 33.9741 25.6956 33.9359V30.1318C25.6956 30.0936 25.7077 30.063 25.7319 30.0401C25.7602 30.0134 25.7946 30 25.835 30H26.1199C26.1603 30 26.1927 30.0134 26.2169 30.0401C26.2452 30.063 26.2593 30.0936 26.2593 30.1318V32.1255L27.4535 31.1859C27.502 31.1477 27.5384 31.1229 27.5626 31.1115C27.5909 31.0962 27.6354 31.0885 27.696 31.0885H28.0173C28.0536 31.0885 28.084 31.1 28.1082 31.1229C28.1325 31.1458 28.1446 31.1745 28.1446 31.2089C28.1446 31.2241 28.1385 31.2413 28.1264 31.2604C28.1183 31.2795 28.1001 31.2986 28.0718 31.3177L26.6715 32.4177L28.2234 33.8443C28.2719 33.8825 28.2961 33.9168 28.2961 33.9474C28.2961 33.9818 28.284 34.0104 28.2598 34.0333C28.2355 34.0562 28.2052 34.0677 28.1688 34.0677H27.8536C27.793 34.0677 27.7485 34.062 27.7202 34.0505C27.692 34.0352 27.6556 34.0085 27.6111 33.9703L26.2593 32.75V33.9359C26.2593 33.9741 26.2452 34.0066 26.2169 34.0333C26.1927 34.0562 26.1603 34.0677 26.1199 34.0677H25.835Z" fill="black"/>
<path d="M28.9607 34.0677C28.9202 34.0677 28.8859 34.0562 28.8576 34.0333C28.8334 34.0066 28.8212 33.9741 28.8212 33.9359V30.1318C28.8212 30.0936 28.8334 30.063 28.8576 30.0401C28.8859 30.0134 28.9202 30 28.9607 30H29.2456C29.29 30 29.3244 30.0134 29.3486 30.0401C29.3729 30.063 29.385 30.0936 29.385 30.1318V33.9359C29.385 33.9741 29.3729 34.0066 29.3486 34.0333C29.3244 34.0562 29.29 34.0677 29.2456 34.0677H28.9607Z" fill="black"/>
<path d="M31.5804 34.125C31.2732 34.125 31.0166 34.0696 30.8105 33.9589C30.6044 33.8481 30.4468 33.6953 30.3377 33.5005C30.2286 33.3019 30.168 33.0766 30.1558 32.8245C30.1518 32.7595 30.1498 32.6774 30.1498 32.5781C30.1498 32.475 30.1518 32.3929 30.1558 32.3318C30.168 32.0759 30.2286 31.8505 30.3377 31.6557C30.4509 31.4609 30.6105 31.3082 30.8166 31.1974C31.0227 31.0866 31.2773 31.0312 31.5804 31.0312C31.8835 31.0312 32.1381 31.0866 32.3442 31.1974C32.5503 31.3082 32.7079 31.4609 32.817 31.6557C32.9302 31.8505 32.9928 32.0759 33.0049 32.3318C33.009 32.3929 33.011 32.475 33.011 32.5781C33.011 32.6774 33.009 32.7595 33.0049 32.8245C32.9928 33.0766 32.9322 33.3019 32.8231 33.5005C32.714 33.6953 32.5563 33.8481 32.3502 33.9589C32.1441 34.0696 31.8875 34.125 31.5804 34.125ZM31.5804 33.6839C31.8309 33.6839 32.031 33.6094 32.1805 33.4604C32.33 33.3076 32.4109 33.0861 32.423 32.7958C32.427 32.7385 32.429 32.666 32.429 32.5781C32.429 32.4903 32.427 32.4177 32.423 32.3604C32.4109 32.0701 32.33 31.8505 32.1805 31.7016C32.031 31.5488 31.8309 31.4724 31.5804 31.4724C31.3298 31.4724 31.1278 31.5488 30.9742 31.7016C30.8247 31.8505 30.7459 32.0701 30.7378 32.3604C30.7337 32.4177 30.7317 32.4903 30.7317 32.5781C30.7317 32.666 30.7337 32.7385 30.7378 32.7958C30.7459 33.0861 30.8247 33.3076 30.9742 33.4604C31.1278 33.6094 31.3298 33.6839 31.5804 33.6839Z" fill="black"/>
<path d="M34.649 34.125C34.447 34.125 34.2631 34.0868 34.0974 34.0104C33.9317 33.934 33.7983 33.8309 33.6973 33.701C33.5963 33.5712 33.5458 33.4241 33.5458 33.2599C33.5458 32.9964 33.6589 32.7863 33.8852 32.6297C34.1115 32.4731 34.4065 32.37 34.7703 32.3203L35.6735 32.2V32.0339C35.6735 31.8505 35.6169 31.7073 35.5037 31.6042C35.3946 31.501 35.2148 31.4495 34.9642 31.4495C34.7824 31.4495 34.6349 31.4839 34.5217 31.5526C34.4126 31.6214 34.3358 31.7092 34.2914 31.8161C34.2671 31.8734 34.2247 31.9021 34.1641 31.9021H33.8913C33.8468 31.9021 33.8125 31.8906 33.7882 31.8677C33.768 31.841 33.7579 31.8104 33.7579 31.776C33.7579 31.7188 33.7802 31.6481 33.8246 31.5641C33.8731 31.48 33.9458 31.3979 34.0428 31.3177C34.1398 31.2375 34.2631 31.1707 34.4126 31.1172C34.5662 31.0599 34.7521 31.0312 34.9703 31.0312C35.2128 31.0312 35.4169 31.0618 35.5826 31.1229C35.7482 31.1802 35.8776 31.2585 35.9705 31.3578C36.0675 31.4571 36.1362 31.5698 36.1766 31.6958C36.2211 31.8219 36.2433 31.9498 36.2433 32.0797V33.9359C36.2433 33.9741 36.2292 34.0066 36.2009 34.0333C36.1766 34.0562 36.1443 34.0677 36.1039 34.0677H35.825C35.7806 34.0677 35.7462 34.0562 35.722 34.0333C35.6977 34.0066 35.6856 33.9741 35.6856 33.9359V33.6896C35.6331 33.7583 35.5623 33.8271 35.4734 33.8958C35.3845 33.9608 35.2734 34.0161 35.14 34.062C35.0067 34.104 34.843 34.125 34.649 34.125ZM34.7763 33.6953C34.942 33.6953 35.0936 33.6628 35.231 33.5979C35.3684 33.5292 35.4755 33.4241 35.5522 33.2828C35.6331 33.1415 35.6735 32.9639 35.6735 32.75V32.5896L34.9703 32.687C34.6834 32.7252 34.4672 32.7901 34.3217 32.8818C34.1762 32.9696 34.1035 33.0823 34.1035 33.2198C34.1035 33.3267 34.1358 33.4165 34.2004 33.4891C34.2691 33.5578 34.354 33.6094 34.455 33.6437C34.5601 33.6781 34.6672 33.6953 34.7763 33.6953Z" fill="black"/>
<path d="M38.2665 34.125C38.0442 34.125 37.8523 34.0887 37.6906 34.0161C37.529 33.9398 37.3956 33.8385 37.2905 33.7125C37.1895 33.5826 37.1127 33.4356 37.0602 33.2714C37.0117 33.1071 36.9834 32.9333 36.9753 32.75C36.9713 32.6889 36.9693 32.6316 36.9693 32.5781C36.9693 32.5247 36.9713 32.4674 36.9753 32.4062C36.9834 32.2267 37.0117 32.0549 37.0602 31.8906C37.1127 31.7264 37.1895 31.5793 37.2905 31.4495C37.3956 31.3196 37.529 31.2184 37.6906 31.1458C37.8523 31.0694 38.0442 31.0312 38.2665 31.0312C38.5049 31.0312 38.703 31.0714 38.8606 31.1516C39.0182 31.2318 39.1475 31.3311 39.2485 31.4495V30.1318C39.2485 30.0936 39.2606 30.063 39.2849 30.0401C39.3132 30.0134 39.3475 30 39.3879 30H39.6789C39.7193 30 39.7517 30.0134 39.7759 30.0401C39.8042 30.063 39.8183 30.0936 39.8183 30.1318V33.9359C39.8183 33.9741 39.8042 34.0066 39.7759 34.0333C39.7517 34.0562 39.7193 34.0677 39.6789 34.0677H39.4061C39.3617 34.0677 39.3273 34.0562 39.3031 34.0333C39.2788 34.0066 39.2667 33.9741 39.2667 33.9359V33.6953C39.1657 33.8175 39.0343 33.9207 38.8727 34.0047C38.711 34.0849 38.509 34.125 38.2665 34.125ZM38.3938 33.6609C38.5959 33.6609 38.7575 33.617 38.8787 33.5292C39 33.4413 39.0909 33.3306 39.1515 33.1969C39.2122 33.0594 39.2445 32.92 39.2485 32.7786C39.2526 32.7175 39.2546 32.645 39.2546 32.5609C39.2546 32.4731 39.2526 32.3986 39.2485 32.3375C39.2445 32.2038 39.2101 32.072 39.1455 31.9422C39.0849 31.8123 38.9919 31.7054 38.8666 31.6214C38.7454 31.5373 38.5878 31.4953 38.3938 31.4953C38.1877 31.4953 38.024 31.5392 37.9028 31.6271C37.7815 31.7111 37.6947 31.8238 37.6421 31.9651C37.5896 32.1026 37.5593 32.2516 37.5512 32.412C37.5472 32.5227 37.5472 32.6335 37.5512 32.7443C37.5593 32.9047 37.5896 33.0556 37.6421 33.1969C37.6947 33.3344 37.7815 33.447 37.9028 33.5349C38.024 33.6189 38.1877 33.6609 38.3938 33.6609Z" fill="black"/>
<path d="M15.4001 40.9427C15.3556 40.9427 15.3213 40.9312 15.297 40.9083C15.2728 40.8816 15.2607 40.8491 15.2607 40.8109V37.0698C15.2607 37.0278 15.2728 36.9953 15.297 36.9724C15.3213 36.9457 15.3556 36.9323 15.4001 36.9323H16.9398C17.2389 36.9323 17.4975 36.9781 17.7157 37.0698C17.938 37.1615 18.1097 37.299 18.231 37.4823C18.3522 37.6618 18.4128 37.8872 18.4128 38.1583C18.4128 38.4295 18.3522 38.6549 18.231 38.8344C18.1097 39.0139 17.938 39.1495 17.7157 39.2411C17.4975 39.3328 17.2389 39.3786 16.9398 39.3786H15.8668V40.8109C15.8668 40.8491 15.8527 40.8816 15.8244 40.9083C15.8002 40.9312 15.7658 40.9427 15.7214 40.9427H15.4001ZM15.8608 38.8974H16.9095C17.2085 38.8974 17.4328 38.8344 17.5824 38.7083C17.7319 38.5823 17.8067 38.399 17.8067 38.1583C17.8067 37.9215 17.7339 37.7382 17.5884 37.6083C17.4429 37.4785 17.2166 37.4135 16.9095 37.4135H15.8608V38.8974Z" fill="black"/>
<path d="M19.2106 40.9427C19.1702 40.9427 19.1358 40.9312 19.1075 40.9083C19.0833 40.8816 19.0712 40.8491 19.0712 40.8109V38.101C19.0712 38.0628 19.0833 38.0304 19.1075 38.0036C19.1358 37.9769 19.1702 37.9635 19.2106 37.9635H19.4894C19.5299 37.9635 19.5642 37.9769 19.5925 38.0036C19.6208 38.0304 19.6349 38.0628 19.6349 38.101V38.3531C19.7157 38.2233 19.8269 38.1259 19.9683 38.0609C20.1098 37.996 20.2795 37.9635 20.4775 37.9635H20.72C20.7604 37.9635 20.7927 37.9769 20.817 38.0036C20.8412 38.0266 20.8534 38.0571 20.8534 38.0953V38.3302C20.8534 38.3684 20.8412 38.399 20.817 38.4219C20.7927 38.4448 20.7604 38.4562 20.72 38.4562H20.3563C20.1381 38.4562 19.9663 38.5174 19.841 38.6396C19.7158 38.758 19.6531 38.9203 19.6531 39.1266V40.8109C19.6531 40.8491 19.639 40.8816 19.6107 40.9083C19.5824 40.9312 19.548 40.9427 19.5076 40.9427H19.2106Z" fill="black"/>
<path d="M22.606 41C22.2988 41 22.0422 40.9446 21.8361 40.8339C21.63 40.7231 21.4724 40.5703 21.3633 40.3755C21.2542 40.1769 21.1935 39.9516 21.1814 39.6995C21.1774 39.6345 21.1754 39.5524 21.1754 39.4531C21.1754 39.35 21.1774 39.2679 21.1814 39.2068C21.1935 38.9509 21.2542 38.7255 21.3633 38.5307C21.4764 38.3359 21.6361 38.1832 21.8422 38.0724C22.0483 37.9616 22.3029 37.9062 22.606 37.9062C22.9091 37.9062 23.1637 37.9616 23.3698 38.0724C23.5759 38.1832 23.7335 38.3359 23.8426 38.5307C23.9557 38.7255 24.0184 38.9509 24.0305 39.2068C24.0345 39.2679 24.0366 39.35 24.0366 39.4531C24.0366 39.5524 24.0345 39.6345 24.0305 39.6995C24.0184 39.9516 23.9578 40.1769 23.8486 40.3755C23.7395 40.5703 23.5819 40.7231 23.3758 40.8339C23.1697 40.9446 22.9131 41 22.606 41ZM22.606 40.5589C22.8565 40.5589 23.0566 40.4844 23.2061 40.3354C23.3556 40.1826 23.4364 39.9611 23.4486 39.6708C23.4526 39.6135 23.4546 39.541 23.4546 39.4531C23.4546 39.3653 23.4526 39.2927 23.4486 39.2354C23.4364 38.9451 23.3556 38.7255 23.2061 38.5766C23.0566 38.4238 22.8565 38.3474 22.606 38.3474C22.3554 38.3474 22.1533 38.4238 21.9998 38.5766C21.8502 38.7255 21.7714 38.9451 21.7634 39.2354C21.7593 39.2927 21.7573 39.3653 21.7573 39.4531C21.7573 39.541 21.7593 39.6135 21.7634 39.6708C21.7714 39.9611 21.8502 40.1826 21.9998 40.3354C22.1533 40.4844 22.3554 40.5589 22.606 40.5589Z" fill="black"/>
<path d="M25.9966 40.9427C25.7703 40.9427 25.5864 40.9026 25.445 40.8224C25.3035 40.7384 25.2005 40.6219 25.1358 40.4729C25.0711 40.3201 25.0388 40.1406 25.0388 39.9344V38.4219H24.566C24.5256 38.4219 24.4912 38.4104 24.4629 38.3875C24.4387 38.3608 24.4266 38.3283 24.4266 38.2901V38.0953C24.4266 38.0571 24.4387 38.0266 24.4629 38.0036C24.4912 37.9769 24.5256 37.9635 24.566 37.9635H25.0388V37.0068C25.0388 36.9686 25.0509 36.938 25.0752 36.9151C25.1035 36.8884 25.1378 36.875 25.1782 36.875H25.4631C25.5036 36.875 25.5359 36.8884 25.5601 36.9151C25.5884 36.938 25.6026 36.9686 25.6026 37.0068V37.9635H26.3542C26.3946 37.9635 26.427 37.9769 26.4512 38.0036C26.4795 38.0266 26.4937 38.0571 26.4937 38.0953V38.2901C26.4937 38.3283 26.4795 38.3608 26.4512 38.3875C26.427 38.4104 26.3946 38.4219 26.3542 38.4219H25.6026V39.8943C25.6026 40.0738 25.6349 40.2151 25.6996 40.3182C25.7642 40.4214 25.8794 40.4729 26.0451 40.4729H26.4149C26.4553 40.4729 26.4876 40.4863 26.5118 40.513C26.5401 40.5359 26.5543 40.5665 26.5543 40.6047V40.8109C26.5543 40.8491 26.5401 40.8816 26.5118 40.9083C26.4876 40.9312 26.4553 40.9427 26.4149 40.9427H25.9966Z" fill="black"/>
<path d="M28.3888 41C27.9725 41 27.6411 40.8797 27.3946 40.6391C27.1481 40.3946 27.0127 40.0623 26.9885 39.6422C26.9844 39.5925 26.9824 39.5295 26.9824 39.4531C26.9824 39.3729 26.9844 39.308 26.9885 39.2583C27.0046 38.9872 27.0713 38.7503 27.1885 38.5479C27.3057 38.3417 27.4653 38.1832 27.6674 38.0724C27.8735 37.9616 28.114 37.9062 28.3888 37.9062C28.6959 37.9062 28.9525 37.9674 29.1586 38.0896C29.3688 38.2118 29.5284 38.3856 29.6375 38.6109C29.7466 38.8363 29.8012 39.0998 29.8012 39.4016V39.499C29.8012 39.541 29.787 39.5734 29.7587 39.5964C29.7345 39.6193 29.7022 39.6307 29.6618 39.6307H27.5643C27.5643 39.6345 27.5643 39.6422 27.5643 39.6536C27.5643 39.6651 27.5643 39.6747 27.5643 39.6823C27.5724 39.8389 27.6088 39.9859 27.6735 40.1234C27.7381 40.2571 27.8311 40.366 27.9523 40.45C28.0735 40.534 28.219 40.576 28.3888 40.576C28.5342 40.576 28.6555 40.555 28.7525 40.513C28.8495 40.471 28.9283 40.4252 28.9889 40.3755C29.0495 40.322 29.0899 40.2819 29.1101 40.2552C29.1465 40.2056 29.1748 40.1769 29.195 40.1693C29.2152 40.1578 29.2475 40.1521 29.292 40.1521H29.5829C29.6234 40.1521 29.6557 40.1635 29.6799 40.1865C29.7082 40.2056 29.7204 40.2342 29.7163 40.2724C29.7123 40.3297 29.6799 40.4003 29.6193 40.4844C29.5587 40.5646 29.4718 40.6448 29.3587 40.725C29.2455 40.8052 29.1081 40.872 28.9464 40.9255C28.7848 40.9752 28.5989 41 28.3888 41ZM27.5643 39.2354H29.2253V39.2182C29.2253 39.0464 29.1909 38.8936 29.1222 38.7599C29.0576 38.6262 28.9626 38.5212 28.8373 38.4448C28.7121 38.3646 28.5625 38.3245 28.3888 38.3245C28.215 38.3245 28.0655 38.3646 27.9402 38.4448C27.8189 38.5212 27.726 38.6262 27.6613 38.7599C27.5967 38.8936 27.5643 39.0464 27.5643 39.2182V39.2354Z" fill="black"/>
<path d="M31.799 41C31.5121 41 31.2635 40.9484 31.0534 40.8453C30.8473 40.7384 30.6876 40.5875 30.5745 40.3927C30.4613 40.1941 30.4007 39.9573 30.3926 39.6823C30.3886 39.625 30.3866 39.5486 30.3866 39.4531C30.3866 39.3576 30.3886 39.2812 30.3926 39.224C30.4007 38.949 30.4613 38.7141 30.5745 38.5193C30.6876 38.3207 30.8473 38.1698 31.0534 38.0667C31.2635 37.9597 31.5121 37.9062 31.799 37.9062C32.0334 37.9062 32.2334 37.9368 32.3991 37.9979C32.5689 38.059 32.7083 38.1373 32.8174 38.2328C32.9265 38.3283 33.0073 38.4314 33.0599 38.5422C33.1164 38.653 33.1467 38.758 33.1508 38.8573C33.1548 38.8955 33.1427 38.926 33.1144 38.949C33.0861 38.9719 33.0518 38.9833 33.0114 38.9833H32.7204C32.68 38.9833 32.6497 38.9757 32.6295 38.9604C32.6093 38.9413 32.5891 38.9108 32.5689 38.8687C32.4961 38.6816 32.3971 38.5498 32.2718 38.4734C32.1465 38.397 31.991 38.3589 31.8051 38.3589C31.5626 38.3589 31.3646 38.4295 31.211 38.5708C31.0615 38.7122 30.9806 38.9394 30.9685 39.2526C30.9645 39.3901 30.9645 39.5238 30.9685 39.6536C30.9806 39.9707 31.0615 40.1998 31.211 40.3411C31.3646 40.4786 31.5626 40.5474 31.8051 40.5474C31.991 40.5474 32.1465 40.5092 32.2718 40.4328C32.3971 40.3564 32.4961 40.2247 32.5689 40.0375C32.5891 39.9955 32.6093 39.9668 32.6295 39.9516C32.6497 39.9325 32.68 39.9229 32.7204 39.9229H33.0114C33.0518 39.9229 33.0861 39.9344 33.1144 39.9573C33.1427 39.9802 33.1548 40.0108 33.1508 40.049C33.1467 40.1292 33.1286 40.2113 33.0962 40.2953C33.0639 40.3793 33.0114 40.4653 32.9386 40.5531C32.8699 40.6372 32.783 40.7135 32.678 40.7823C32.5729 40.8472 32.4456 40.9007 32.2961 40.9427C32.1506 40.9809 31.9849 41 31.799 41Z" fill="black"/>
<path d="M35.1012 40.9427C34.8749 40.9427 34.6911 40.9026 34.5496 40.8224C34.4082 40.7384 34.3051 40.6219 34.2405 40.4729C34.1758 40.3201 34.1435 40.1406 34.1435 39.9344V38.4219H33.6706C33.6302 38.4219 33.5959 38.4104 33.5676 38.3875C33.5433 38.3608 33.5312 38.3283 33.5312 38.2901V38.0953C33.5312 38.0571 33.5433 38.0266 33.5676 38.0036C33.5959 37.9769 33.6302 37.9635 33.6706 37.9635H34.1435V37.0068C34.1435 36.9686 34.1556 36.938 34.1798 36.9151C34.2081 36.8884 34.2425 36.875 34.2829 36.875H34.5678C34.6082 36.875 34.6405 36.8884 34.6648 36.9151C34.6931 36.938 34.7072 36.9686 34.7072 37.0068V37.9635H35.4589C35.4993 37.9635 35.5316 37.9769 35.5559 38.0036C35.5842 38.0266 35.5983 38.0571 35.5983 38.0953V38.2901C35.5983 38.3283 35.5842 38.3608 35.5559 38.3875C35.5316 38.4104 35.4993 38.4219 35.4589 38.4219H34.7072V39.8943C34.7072 40.0738 34.7396 40.2151 34.8042 40.3182C34.8689 40.4214 34.9841 40.4729 35.1497 40.4729H35.5195C35.5599 40.4729 35.5923 40.4863 35.6165 40.513C35.6448 40.5359 35.6589 40.5665 35.6589 40.6047V40.8109C35.6589 40.8491 35.6448 40.8816 35.6165 40.9083C35.5923 40.9312 35.5599 40.9427 35.5195 40.9427H35.1012Z" fill="black"/>
<path d="M36.378 40.9427C36.3376 40.9427 36.3033 40.9312 36.275 40.9083C36.2507 40.8816 36.2386 40.8491 36.2386 40.8109V38.0953C36.2386 38.0571 36.2507 38.0266 36.275 38.0036C36.3033 37.9769 36.3376 37.9635 36.378 37.9635H36.669C36.7094 37.9635 36.7417 37.9769 36.766 38.0036C36.7902 38.0266 36.8024 38.0571 36.8024 38.0953V40.8109C36.8024 40.8491 36.7902 40.8816 36.766 40.9083C36.7417 40.9312 36.7094 40.9427 36.669 40.9427H36.378ZM36.3295 37.4078C36.2891 37.4078 36.2548 37.3964 36.2265 37.3734C36.2022 37.3467 36.1901 37.3142 36.1901 37.276V36.9667C36.1901 36.9285 36.2022 36.8979 36.2265 36.875C36.2548 36.8483 36.2891 36.8349 36.3295 36.8349H36.7114C36.7518 36.8349 36.7842 36.8483 36.8084 36.875C36.8367 36.8979 36.8509 36.9285 36.8509 36.9667V37.276C36.8509 37.3142 36.8367 37.3467 36.8084 37.3734C36.7842 37.3964 36.7518 37.4078 36.7114 37.4078H36.3295Z" fill="black"/>
<path d="M39.0097 41C38.7026 41 38.446 40.9446 38.2399 40.8339C38.0338 40.7231 37.8762 40.5703 37.7671 40.3755C37.6579 40.1769 37.5973 39.9516 37.5852 39.6995C37.5812 39.6345 37.5791 39.5524 37.5791 39.4531C37.5791 39.35 37.5812 39.2679 37.5852 39.2068C37.5973 38.9509 37.6579 38.7255 37.7671 38.5307C37.8802 38.3359 38.0398 38.1832 38.2459 38.0724C38.452 37.9616 38.7066 37.9062 39.0097 37.9062C39.3128 37.9062 39.5674 37.9616 39.7735 38.0724C39.9796 38.1832 40.1373 38.3359 40.2464 38.5307C40.3595 38.7255 40.4222 38.9509 40.4343 39.2068C40.4383 39.2679 40.4403 39.35 40.4403 39.4531C40.4403 39.5524 40.4383 39.6345 40.4343 39.6995C40.4222 39.9516 40.3615 40.1769 40.2524 40.3755C40.1433 40.5703 39.9857 40.7231 39.7796 40.8339C39.5735 40.9446 39.3169 41 39.0097 41ZM39.0097 40.5589C39.2603 40.5589 39.4603 40.4844 39.6099 40.3354C39.7594 40.1826 39.8402 39.9611 39.8523 39.6708C39.8564 39.6135 39.8584 39.541 39.8584 39.4531C39.8584 39.3653 39.8564 39.2927 39.8523 39.2354C39.8402 38.9451 39.7594 38.7255 39.6099 38.5766C39.4603 38.4238 39.2603 38.3474 39.0097 38.3474C38.7592 38.3474 38.5571 38.4238 38.4036 38.5766C38.254 38.7255 38.1752 38.9451 38.1671 39.2354C38.1631 39.2927 38.1611 39.3653 38.1611 39.4531C38.1611 39.541 38.1631 39.6135 38.1671 39.6708C38.1752 39.9611 38.254 40.1826 38.4036 40.3354C38.5571 40.4844 38.7592 40.5589 39.0097 40.5589Z" fill="black"/>
<path d="M41.3388 40.9427C41.2984 40.9427 41.2641 40.9312 41.2358 40.9083C41.2115 40.8816 41.1994 40.8491 41.1994 40.8109V38.0953C41.1994 38.0571 41.2115 38.0266 41.2358 38.0036C41.2641 37.9769 41.2984 37.9635 41.3388 37.9635H41.6237C41.6642 37.9635 41.6965 37.9769 41.7207 38.0036C41.749 38.0266 41.7632 38.0571 41.7632 38.0953V38.3474C41.8682 38.2175 41.9996 38.1125 42.1572 38.0323C42.3188 37.9483 42.5249 37.9062 42.7755 37.9062C43.0382 37.9062 43.2604 37.9616 43.4423 38.0724C43.6282 38.1793 43.7676 38.3302 43.8606 38.525C43.9535 38.716 44 38.9394 44 39.1953V40.8109C44 40.8491 43.9879 40.8816 43.9636 40.9083C43.9394 40.9312 43.9071 40.9427 43.8666 40.9427H43.5635C43.5231 40.9427 43.4888 40.9312 43.4605 40.9083C43.4362 40.8816 43.4241 40.8491 43.4241 40.8109V39.224C43.4241 38.9566 43.3554 38.7484 43.218 38.5995C43.0806 38.4467 42.8786 38.3703 42.6118 38.3703C42.3613 38.3703 42.1592 38.4467 42.0056 38.5995C41.8561 38.7484 41.7813 38.9566 41.7813 39.224V40.8109C41.7813 40.8491 41.7672 40.8816 41.7389 40.9083C41.7147 40.9312 41.6823 40.9427 41.6419 40.9427H41.3388Z" fill="black"/>
</svg>
