<svg width="50" height="50" viewBox="0 0 50 50" fill="none" xmlns="http://www.w3.org/2000/svg">
<rect width="50" height="50" fill="#2E4153"/>
<path fill-rule="evenodd" clip-rule="evenodd" d="M20.4796 39.885C20.487 38.354 20.4944 36.8229 20.5015 35.2919V34.6954C20.8443 34.8843 21.1806 35.0912 21.5163 35.2977C22.2486 35.7482 22.9781 36.1969 23.7667 36.453C26.6872 37.3999 29.6331 37.2884 32.3021 35.6495C37.4522 32.4847 40.5959 27.9517 40.5281 21.6018C40.4603 15.2591 37.2572 10.7696 32.0252 7.72927C28.4364 5.64448 23.0165 6.15989 20.5792 9.31313C20.5693 9.32609 20.5397 9.32366 20.4979 9.32023C20.4743 9.31829 20.4468 9.31603 20.4167 9.31603C20.0324 7.52514 18.7735 6.75492 17.119 6.60146C15.9759 6.49577 14.8089 6.45813 13.6701 6.56816C11.8912 6.74189 10.9474 7.70032 10.6154 9.46225C10.5405 9.86039 10.5405 10.2773 10.5405 10.6871C10.5334 21.7828 10.5306 32.877 10.5292 43.9728C10.5292 44.087 10.5403 44.2011 10.5514 44.3153C10.5566 44.3691 10.5618 44.4228 10.5659 44.4766L20.4577 44.478C20.4648 42.947 20.4722 41.416 20.4796 39.885ZM20.753 21.8783C20.7742 24.6536 22.878 26.8195 25.5414 26.8094V26.8079C28.2527 26.7978 30.5756 24.4799 30.5643 21.7914C30.5529 19.0305 28.3078 16.7503 25.5922 16.7416C22.8724 16.7329 20.7318 19.0059 20.753 21.8783Z" fill="white"/>
</svg>
