<svg width="50" height="50" viewBox="0 0 50 50" fill="none" xmlns="http://www.w3.org/2000/svg">
<rect width="50" height="50" fill="#2E4153"/>
<path fill-rule="evenodd" clip-rule="evenodd" d="M20.6237 37.8904C20.6301 36.5206 20.6366 35.1507 20.6427 33.7809V33.2472C20.9398 33.4161 21.2313 33.6012 21.5222 33.786C22.1569 34.1891 22.7891 34.5906 23.4726 34.8197C26.0036 35.6669 28.5568 35.5672 30.8699 34.1008C35.3333 31.2691 38.0578 27.2133 37.9991 21.5318C37.9403 15.8568 35.1643 11.8398 30.6299 9.11953C27.5196 7.2542 22.8223 7.71535 20.71 10.5367C20.7014 10.5483 20.6758 10.5461 20.6395 10.543C20.6191 10.5413 20.5953 10.5393 20.5692 10.5393C20.2361 8.93689 19.1451 8.24775 17.7112 8.11044C16.7205 8.01588 15.7091 7.9822 14.7221 8.08064C13.1804 8.23609 12.3625 9.09363 12.0747 10.6701C12.0098 11.0263 12.0098 11.3994 12.0098 11.766C12.0037 21.6937 12.0012 31.6202 12 41.5479C12 41.6501 12.0096 41.7523 12.0193 41.8544C12.0238 41.9025 12.0283 41.9506 12.0318 41.9987L20.6047 42C20.6108 40.6301 20.6173 39.2603 20.6237 37.8904ZM20.8606 21.7792C20.879 24.2624 22.7023 26.2003 25.0106 26.1912V26.1899C27.3604 26.1808 29.3735 24.107 29.3637 21.7014C29.3539 19.2312 27.4082 17.191 25.0546 17.1832C22.6974 17.1754 20.8423 19.2091 20.8606 21.7792Z" fill="white"/>
</svg>
