<svg width="50" height="50" viewBox="0 0 50 50" fill="none" xmlns="http://www.w3.org/2000/svg">
<rect width="50" height="50" fill="#231F20"/>
<path fill-rule="evenodd" clip-rule="evenodd" d="M40.5205 16.6813C40.2039 16.7064 40.1494 16.7225 39.964 16.8445C39.8839 16.8973 39.7777 16.9491 39.7277 16.9596C39.6778 16.9699 39.6056 17.0119 39.5673 17.0525C39.5287 17.0931 39.4706 17.1481 39.4381 17.1748C39.2402 17.3366 39.0055 17.6213 38.964 17.75C38.9431 17.8142 38.8761 17.9657 38.8145 18.0864L38.7031 18.306L38.704 18.733C38.7049 19.1447 38.7081 19.1661 38.7916 19.3182C38.8392 19.4052 38.9033 19.5459 38.9344 19.6309C38.9654 19.716 39.0429 19.8458 39.1065 19.9198C39.2751 20.1149 39.5684 20.3982 39.6021 20.3982C39.6181 20.3982 39.6932 20.4496 39.7689 20.5125C39.8612 20.5889 39.95 20.6337 40.0379 20.6479C40.1102 20.6595 40.2782 20.7004 40.4114 20.7385C40.665 20.811 40.9674 20.828 41.1621 20.7802C41.221 20.766 41.4035 20.721 41.5684 20.6807C41.8095 20.6217 41.8908 20.5872 41.9883 20.5027C42.0547 20.4452 42.1226 20.3982 42.1391 20.3982C42.1792 20.3982 42.5672 20.029 42.5672 19.9909C42.5672 19.9745 42.6147 19.9156 42.6731 19.8597C42.7311 19.8041 42.7877 19.7213 42.7987 19.676C42.8098 19.6306 42.8687 19.488 42.9296 19.3593C43.0912 19.0182 43.0979 18.4186 42.9438 18.1155C42.8904 18.011 42.8301 17.8695 42.8092 17.8014C42.7886 17.733 42.7125 17.6113 42.6409 17.5304C42.5689 17.4497 42.5016 17.3583 42.4914 17.3269C42.481 17.2957 42.4482 17.2626 42.4189 17.2537C42.3893 17.2448 42.3086 17.1806 42.2395 17.1111C42.1656 17.0369 42.0649 16.971 41.9938 16.9504C41.9273 16.9315 41.8223 16.8771 41.7599 16.8298C41.5843 16.6961 41.0864 16.6363 40.5205 16.6813ZM18.6125 20.8958C18.3661 20.9398 18.2828 20.9695 18.1279 21.0685C18.0249 21.1344 17.9245 21.1883 17.9044 21.1883C17.8844 21.1883 17.8093 21.2475 17.7373 21.3201C17.665 21.3923 17.5948 21.4515 17.5809 21.4515C17.567 21.4515 17.5246 21.501 17.4869 21.5614C17.4491 21.6217 17.3801 21.7059 17.3336 21.7485C17.2834 21.7938 17.228 21.8941 17.1981 21.9925C17.1703 22.0843 17.114 22.2294 17.0731 22.315C16.9286 22.6175 16.9216 23.2349 17.06 23.4598C17.0928 23.5132 17.1479 23.6469 17.1822 23.757C17.2199 23.8785 17.2753 23.9852 17.3232 24.0283C17.3667 24.0675 17.4311 24.149 17.4668 24.2096C17.5022 24.2699 17.5423 24.3194 17.5559 24.3194C17.5696 24.3194 17.638 24.3781 17.7086 24.4498C17.7791 24.5215 17.8789 24.5966 17.9303 24.6169C17.9819 24.6372 18.0814 24.6955 18.1517 24.7467C18.5118 25.0088 19.8121 25.008 20.14 24.7453C20.1858 24.7086 20.2784 24.6511 20.3454 24.6171C20.5927 24.4932 20.9769 24.0775 21.0607 23.8435C21.0926 23.7553 21.1576 23.6263 21.2055 23.5571L21.2923 23.4312V22.3734L21.1965 22.2124C21.1437 22.124 21.0834 21.9989 21.0625 21.9344C21.0303 21.8352 20.8933 21.6581 20.7116 21.481C20.687 21.4568 20.615 21.3868 20.5517 21.3256C20.4888 21.2645 20.3913 21.1955 20.335 21.1724C20.279 21.1494 20.1934 21.0985 20.1449 21.0596C19.9041 20.8655 19.2024 20.7905 18.6125 20.8958ZM27.3861 20.8828C27.2601 20.9044 27.1159 20.9295 27.0654 20.9384C27.0149 20.947 26.9325 20.9884 26.882 21.0301C26.8318 21.0721 26.7288 21.1366 26.6531 21.1738C26.5022 21.2478 26.0115 21.7115 26.0115 21.7801C26.0115 21.8035 25.9569 21.9008 25.8905 21.9959C25.6662 22.3159 25.6256 23.4576 25.8296 23.705C25.8629 23.7451 25.9297 23.8532 25.9778 23.9447C26.1041 24.1835 26.4128 24.5026 26.6212 24.6091C26.7161 24.6575 26.8194 24.7242 26.8504 24.7573C26.9839 24.8985 27.7163 24.9897 28.1835 24.9232C28.6812 24.8523 28.6846 24.8512 28.8126 24.7528C28.8764 24.7039 28.9861 24.6397 29.0564 24.6105C29.2252 24.5404 29.5302 24.2491 29.6068 24.0848C29.6408 24.0128 29.6971 23.9291 29.7325 23.8988C29.8117 23.8315 29.8419 23.7448 29.9208 23.3589C30.0108 22.918 30 22.7379 29.8442 22.074C29.8358 22.0381 29.7896 21.9656 29.7418 21.913C29.6939 21.8605 29.6219 21.7579 29.5819 21.6853C29.4913 21.521 29.1927 21.2497 28.9899 21.148C28.9058 21.1057 28.8016 21.044 28.7583 21.0106C28.5837 20.8769 27.8295 20.8066 27.3861 20.8828ZM36.0033 20.8953C35.7914 20.9311 35.6594 20.9692 35.6063 21.0101C35.5625 21.0437 35.4487 21.1102 35.3539 21.158C35.259 21.2055 35.149 21.2831 35.1095 21.3298C35.0701 21.3768 35.0071 21.4304 34.9694 21.4488C34.9316 21.4674 34.8782 21.5249 34.8504 21.5769C34.8225 21.6286 34.7535 21.7232 34.6969 21.7865C34.6403 21.8502 34.5799 21.9556 34.5628 22.0206C34.5457 22.0859 34.4882 22.2578 34.4351 22.4026C34.3043 22.7587 34.2988 23.1018 34.4198 23.3711C34.4639 23.469 34.5164 23.6138 34.5367 23.6928C34.5802 23.864 34.6461 23.9975 34.687 23.9975C34.7033 23.9975 34.7578 24.0678 34.8083 24.1534C34.8591 24.2393 34.9348 24.3272 34.9766 24.3489C35.0187 24.3703 35.0793 24.4303 35.1113 24.4823C35.1487 24.5432 35.2027 24.5841 35.2624 24.5966C35.3135 24.6071 35.4075 24.6563 35.4714 24.7055C35.8617 25.0066 37.1965 25.0311 37.5273 24.7434C37.5691 24.7069 37.6605 24.6497 37.7304 24.6163C37.9005 24.5346 38.3497 24.0625 38.4156 23.896C38.4437 23.8251 38.4956 23.7317 38.531 23.6886C38.7324 23.4434 38.7423 22.4465 38.5464 22.1332C38.4983 22.0562 38.4382 21.9436 38.4129 21.883C38.3529 21.739 37.8494 21.225 37.7159 21.1716C37.6588 21.1488 37.5647 21.0904 37.5073 21.0421C37.4498 20.9937 37.3999 20.9542 37.3964 20.9539C37.3927 20.9539 37.2316 20.9275 37.0384 20.8955C36.6141 20.8255 36.4188 20.8255 36.0033 20.8953ZM14.2128 25.0931C13.9258 25.1626 13.8004 25.2076 13.7392 25.2624C13.6936 25.3035 13.608 25.3602 13.5491 25.3886C13.431 25.4456 13.1054 25.7547 13.0233 25.8879C12.9946 25.9346 12.9412 26.008 12.9046 26.0511C12.8173 26.1539 12.6327 26.8495 12.6327 27.0763C12.6327 27.3418 12.8042 27.9682 12.9142 28.103C12.9638 28.1641 13.0352 28.2662 13.0732 28.3298C13.1678 28.4894 13.4664 28.7416 13.6887 28.8489C13.7903 28.8981 13.8915 28.959 13.9136 28.9842C14.0984 29.198 15.4507 29.168 15.7484 28.9437C15.8073 28.8992 15.8891 28.853 15.9303 28.8405C16.083 28.7949 16.5574 28.3282 16.6517 28.1308C16.6921 28.0463 16.7591 27.9276 16.8006 27.8675C16.9924 27.589 16.9837 26.4361 16.7887 26.2671C16.7565 26.239 16.7051 26.1503 16.6752 26.07C16.6059 25.8854 16.273 25.512 16.0862 25.4092C16.0096 25.3672 15.9031 25.2969 15.8494 25.2529C15.7887 25.2029 15.6854 25.1601 15.5746 25.1387C15.4771 25.1198 15.2948 25.0792 15.1701 25.0486C14.8622 24.9727 14.6721 24.9816 14.2128 25.0931ZM22.917 25.0884C22.6718 25.1478 22.5009 25.2054 22.4588 25.2429C22.4223 25.2757 22.3294 25.3374 22.2528 25.3797C22.1762 25.422 22.0546 25.5201 21.9826 25.5976C21.9107 25.6752 21.8108 25.782 21.7612 25.8348C21.7116 25.8876 21.6303 26.0127 21.581 26.1128C21.5317 26.2129 21.4603 26.3474 21.4229 26.4116C21.2862 26.6452 21.3062 27.589 21.4519 27.7933C21.4954 27.8542 21.561 27.9765 21.5976 28.0652C21.6341 28.1536 21.7148 28.2787 21.7766 28.3432C22.0929 28.6721 22.2275 28.7888 22.3468 28.8372C22.4051 28.8611 22.5006 28.9145 22.5586 28.9559C22.8596 29.1708 24.0774 29.1816 24.3824 28.972C24.4521 28.9239 24.569 28.8597 24.6418 28.8291C24.7756 28.7732 25.1868 28.4194 25.1868 28.3604C25.1868 28.3429 25.2341 28.2787 25.2918 28.2172C25.3992 28.1035 25.5823 27.6593 25.6505 27.3482C25.6961 27.1392 25.6607 26.7308 25.582 26.5604C25.5463 26.4834 25.4929 26.3366 25.4633 26.234C25.4303 26.1195 25.3696 26.0021 25.3058 25.9293C25.0916 25.6841 24.8029 25.4089 24.7414 25.3908C24.7063 25.3805 24.6314 25.3324 24.5748 25.2841C24.5182 25.2357 24.423 25.1834 24.3636 25.1681C23.5795 24.9658 23.4536 24.9588 22.917 25.0884ZM31.9831 25.0075C31.9666 25.013 31.7887 25.0539 31.5885 25.0981C31.3143 25.159 31.2011 25.1982 31.1303 25.2571C31.0786 25.3002 30.9887 25.3591 30.9301 25.3878C30.7966 25.4534 30.478 25.7611 30.3958 25.904C30.3619 25.9635 30.2969 26.0625 30.2519 26.1242C29.9997 26.4686 29.996 27.6877 30.2458 28.0163C30.2844 28.0674 30.3503 28.1694 30.3918 28.2431C30.482 28.4041 30.906 28.7783 31.0711 28.8433C31.1361 28.8692 31.2234 28.92 31.2655 28.9567C31.511 29.1719 32.9456 29.1852 33.082 28.9734C33.0933 28.9559 33.181 28.9036 33.277 28.8575C33.5031 28.7479 33.9247 28.3468 34.0277 28.143C34.0698 28.0599 34.1331 27.9579 34.1685 27.9162C34.362 27.6885 34.3559 26.4606 34.1601 26.2145C34.1183 26.162 34.0489 26.0533 34.0057 25.9729C33.9093 25.7936 33.5794 25.455 33.434 25.3861C33.3754 25.3583 33.2834 25.2991 33.2297 25.2543C33.1676 25.2023 33.0681 25.1606 32.9549 25.1387C32.8571 25.1198 32.6752 25.0792 32.5501 25.0486C32.3485 24.9988 32.069 24.9785 31.9831 25.0075ZM10.0365 29.2075C9.94391 29.2411 9.76052 29.2995 9.62849 29.3373C9.47121 29.3823 9.35514 29.436 9.29246 29.493C9.23964 29.5411 9.15317 29.6011 9.10007 29.6267C9.04725 29.6523 8.97442 29.719 8.93815 29.7749C8.90216 29.8308 8.84442 29.885 8.81018 29.8955C8.77332 29.9067 8.71848 29.9767 8.67756 30.0651C8.63897 30.1482 8.56613 30.2656 8.51564 30.3262C8.27334 30.6164 8.2716 31.9736 8.51361 32.1793C8.54959 32.2099 8.60531 32.2913 8.63752 32.36C8.72225 32.5415 9.2083 32.9933 9.38938 33.0592C9.46802 33.0878 9.59598 33.1484 9.67346 33.1943C9.99759 33.3864 10.8867 33.3675 11.2979 33.1601C11.4291 33.0939 11.5533 33.04 11.5744 33.04C11.6252 33.04 12.1847 32.519 12.2343 32.4253C12.2558 32.385 12.3199 32.2861 12.3771 32.2052C12.6597 31.8043 12.6498 30.6953 12.3597 30.2814C12.2915 30.1841 12.2358 30.0871 12.2358 30.0662C12.2358 30.022 11.8252 29.6161 11.7805 29.6161C11.7642 29.6161 11.6896 29.5653 11.6148 29.5036C11.5158 29.4215 11.423 29.3773 11.2732 29.3412C11.1601 29.314 11.0109 29.2634 10.9416 29.2286C10.7529 29.1346 10.2686 29.1233 10.0365 29.2075ZM18.757 29.1872C18.69 29.2083 18.6075 29.2406 18.5739 29.2589C18.5402 29.2775 18.4157 29.319 18.297 29.3515C18.1598 29.389 18.0542 29.4382 18.0069 29.4869C17.966 29.5289 17.8899 29.585 17.8383 29.6117C17.7866 29.6381 17.6729 29.739 17.5858 29.8355C17.4988 29.9322 17.3847 30.0551 17.3325 30.109C17.2745 30.1688 17.2141 30.282 17.1775 30.3987C17.1445 30.5038 17.0879 30.6442 17.0516 30.7104C16.9439 30.9063 16.9529 31.6197 17.0655 31.8254C17.1096 31.906 17.1677 32.0445 17.1944 32.1334C17.2213 32.2235 17.289 32.3469 17.3464 32.4114C17.4033 32.4754 17.4726 32.5702 17.5005 32.6219C17.5284 32.6739 17.582 32.7317 17.6198 32.7509C17.6572 32.7701 17.7518 32.8401 17.8301 32.9071C17.9082 32.9741 18.0283 33.045 18.0971 33.0647C18.1659 33.0845 18.2892 33.1406 18.371 33.1893C18.6818 33.3744 19.6766 33.3705 19.9282 33.1832C19.9673 33.154 20.0767 33.1023 20.171 33.0684C20.4989 32.951 20.9905 32.4726 21.0604 32.2027C21.0807 32.124 21.1324 32.0111 21.1748 31.9516C21.368 31.6822 21.3654 30.8168 21.1707 30.526C21.1318 30.4682 21.0831 30.3681 21.0622 30.3036C21.0413 30.2394 20.9815 30.1396 20.9293 30.0818C20.877 30.024 20.7816 29.915 20.7172 29.8391C20.6527 29.7635 20.5428 29.6665 20.4728 29.6239C20.4026 29.5814 20.3042 29.5105 20.2537 29.4663C20.1986 29.4179 20.0843 29.3673 19.9656 29.3381C19.8573 29.3115 19.7128 29.2617 19.6446 29.2275C19.49 29.1499 18.9529 29.1255 18.757 29.1872ZM27.3251 29.2342C27.1992 29.2823 27.0396 29.3351 26.9708 29.3518C26.9021 29.3682 26.7988 29.4149 26.7416 29.4552C26.6844 29.4952 26.5971 29.5514 26.5475 29.5794C26.3745 29.6776 26.0675 30.007 25.995 30.1721C25.9633 30.2444 25.8992 30.3503 25.8525 30.4071C25.6229 30.687 25.6552 31.8599 25.9006 32.1693C25.9424 32.2216 25.986 32.3014 25.9976 32.3461C26.0417 32.5154 26.5541 32.9549 26.9047 33.1237C27.4775 33.4 28.1855 33.4031 28.7427 33.1323C29.0854 32.9658 29.525 32.6088 29.6094 32.4284C29.6367 32.3703 29.6971 32.283 29.7438 32.2344C29.8248 32.1498 29.906 31.8679 29.98 31.4156C30.0276 31.1254 29.8387 30.2936 29.7075 30.2161C29.6904 30.2058 29.6475 30.1435 29.6126 30.0779C29.5502 29.9606 29.211 29.6161 29.1579 29.6161C29.1431 29.6161 29.0694 29.565 28.994 29.5024C28.9017 29.426 28.8039 29.3771 28.6942 29.3526C28.6048 29.3326 28.456 29.2825 28.3637 29.2414C28.0912 29.1202 27.6322 29.1171 27.3251 29.2342Z" fill="white"/>
</svg>
