<svg width="50" height="50" viewBox="0 0 50 50" fill="none" xmlns="http://www.w3.org/2000/svg">
<path fill-rule="evenodd" clip-rule="evenodd" d="M40.5209 16.6816C40.2043 16.7066 40.1497 16.7227 39.9643 16.8448C39.8842 16.8976 39.778 16.9493 39.7281 16.9599C39.6782 16.9701 39.6059 17.0121 39.5676 17.0527C39.529 17.0933 39.471 17.1483 39.4385 17.175C39.2406 17.3368 39.0059 17.6215 38.9644 17.7502C38.9435 17.8144 38.8764 17.9659 38.8149 18.0866L38.7035 18.3062L38.7044 18.7332C38.7052 19.1449 38.7084 19.1664 38.792 19.3184C38.8396 19.4054 38.9037 19.5461 38.9348 19.6312C38.9658 19.7162 39.0433 19.8461 39.1068 19.92C39.2754 20.1152 39.5688 20.3985 39.6025 20.3985C39.6184 20.3985 39.6936 20.4499 39.7693 20.5127C39.8616 20.5892 39.9504 20.6339 40.0383 20.6481C40.1106 20.6598 40.2786 20.7006 40.4118 20.7387C40.6654 20.8113 40.9678 20.8282 41.1625 20.7804C41.2214 20.7662 41.4039 20.7212 41.5687 20.6809C41.8099 20.622 41.8911 20.5875 41.9886 20.503C42.0551 20.4454 42.123 20.3985 42.1395 20.3985C42.1796 20.3985 42.5675 20.0293 42.5675 19.9912C42.5675 19.9748 42.6151 19.9158 42.6734 19.86C42.7315 19.8044 42.7881 19.7215 42.7991 19.6762C42.8101 19.6309 42.869 19.4883 42.93 19.3596C43.0916 19.0185 43.0983 18.4188 42.9442 18.1158C42.8908 18.0113 42.8304 17.8698 42.8095 17.8016C42.7889 17.7333 42.7129 17.6115 42.6412 17.5306C42.5693 17.45 42.5019 17.3585 42.4918 17.3271C42.4813 17.296 42.4486 17.2629 42.4192 17.254C42.3896 17.2451 42.309 17.1809 42.2399 17.1114C42.1659 17.0371 42.0652 16.9713 41.9941 16.9507C41.9277 16.9318 41.8226 16.8773 41.7602 16.83C41.5847 16.6963 41.0867 16.6365 40.5209 16.6816ZM18.6128 20.8961C18.3665 20.94 18.2832 20.9697 18.1282 21.0687C18.0252 21.1346 17.9248 21.1885 17.9048 21.1885C17.8848 21.1885 17.8096 21.2477 17.7377 21.3203C17.6654 21.3926 17.5952 21.4518 17.5812 21.4518C17.5673 21.4518 17.525 21.5013 17.4872 21.5616C17.4495 21.6219 17.3804 21.7062 17.334 21.7487C17.2838 21.794 17.2284 21.8944 17.1985 21.9928C17.1706 22.0845 17.1143 22.2296 17.0734 22.3153C16.9289 22.6177 16.922 23.2352 17.0604 23.4601C17.0932 23.5134 17.1483 23.6472 17.1825 23.7573C17.2203 23.8787 17.2757 23.9855 17.3236 24.0286C17.3671 24.0678 17.4315 24.1492 17.4672 24.2098C17.5026 24.2702 17.5427 24.3196 17.5563 24.3196C17.5699 24.3196 17.6384 24.3783 17.7089 24.45C17.7794 24.5218 17.8793 24.5968 17.9306 24.6171C17.9823 24.6374 18.0818 24.6958 18.152 24.7469C18.5121 25.0091 19.8124 25.0083 20.1403 24.7455C20.1862 24.7088 20.2788 24.6513 20.3458 24.6174C20.593 24.4934 20.9772 24.0778 21.0611 23.8437C21.093 23.7556 21.158 23.6266 21.2059 23.5574L21.2927 23.4314V22.3736L21.1969 22.2127C21.1441 22.1243 21.0837 21.9992 21.0628 21.9347C21.0306 21.8354 20.8937 21.6583 20.712 21.4813C20.6873 21.4571 20.6154 21.387 20.5521 21.3259C20.4891 21.2647 20.3916 21.1958 20.3354 21.1727C20.2793 21.1496 20.1937 21.0987 20.1453 21.0598C19.9044 20.8658 19.2028 20.7907 18.6128 20.8961ZM27.3864 20.883C27.2605 20.9047 27.1163 20.9297 27.0658 20.9386C27.0153 20.9472 26.9329 20.9886 26.8824 21.0303C26.8322 21.0723 26.7292 21.1368 26.6535 21.1741C26.5026 21.248 26.0119 21.7117 26.0119 21.7804C26.0119 21.8037 25.9573 21.901 25.8909 21.9961C25.6665 22.3161 25.6259 23.4578 25.8299 23.7053C25.8633 23.7453 25.93 23.8534 25.9782 23.9449C26.1044 24.1837 26.4132 24.5028 26.6215 24.6093C26.7164 24.6577 26.8197 24.7244 26.8508 24.7575C26.9843 24.8987 27.7167 24.9899 28.1839 24.9235C28.6815 24.8526 28.685 24.8515 28.813 24.753C28.8768 24.7041 28.9865 24.6399 29.0567 24.6107C29.2256 24.5407 29.5306 24.2493 29.6072 24.085C29.6411 24.013 29.6974 23.9293 29.7328 23.899C29.8121 23.8318 29.8422 23.745 29.9212 23.3592C30.0111 22.9182 30.0004 22.7381 29.8446 22.0742C29.8361 22.0384 29.79 21.9658 29.7421 21.9133C29.6943 21.8607 29.6223 21.7581 29.5822 21.6856C29.4917 21.5213 29.1931 21.25 28.9903 21.1482C28.9061 21.106 28.8019 21.0442 28.7587 21.0109C28.584 20.8772 27.8298 20.8068 27.3864 20.883ZM36.0036 20.8955C35.7918 20.9314 35.6598 20.9695 35.6067 21.0103C35.5629 21.044 35.4491 21.1104 35.3542 21.1582C35.2593 21.2058 35.1494 21.2833 35.1099 21.33C35.0704 21.377 35.0075 21.4307 34.9697 21.449C34.932 21.4676 34.8786 21.5252 34.8508 21.5772C34.8229 21.6289 34.7538 21.7234 34.6973 21.7868C34.6407 21.8504 34.5803 21.9558 34.5632 22.0209C34.5461 22.0862 34.4886 22.258 34.4355 22.4028C34.3046 22.759 34.2991 23.102 34.4201 23.3714C34.4642 23.4692 34.5168 23.6141 34.5371 23.693C34.5806 23.8643 34.6465 23.9977 34.6874 23.9977C34.7036 23.9977 34.7582 24.0681 34.8087 24.1537C34.8595 24.2396 34.9352 24.3274 34.977 24.3491C35.0191 24.3705 35.0797 24.4306 35.1116 24.4826C35.1491 24.5434 35.203 24.5843 35.2628 24.5968C35.3139 24.6074 35.4079 24.6566 35.4717 24.7058C35.862 25.0069 37.1969 25.0313 37.5277 24.7436C37.5695 24.7072 37.6609 24.6499 37.7308 24.6166C37.9008 24.5348 38.35 24.0628 38.4159 23.8963C38.4441 23.8254 38.496 23.732 38.5314 23.6889C38.7328 23.4437 38.7427 22.4468 38.5468 22.1335C38.4986 22.0564 38.4385 21.9439 38.4133 21.8833C38.3532 21.7392 37.8498 21.2252 37.7163 21.1718C37.6591 21.1491 37.5651 21.0907 37.5077 21.0423C37.4502 20.9939 37.4003 20.9545 37.3968 20.9542C37.393 20.9542 37.232 20.9278 37.0387 20.8958C36.6145 20.8257 36.4192 20.8257 36.0036 20.8955ZM14.2131 25.0933C13.9261 25.1628 13.8008 25.2079 13.7395 25.2626C13.694 25.3038 13.6084 25.3605 13.5495 25.3888C13.4314 25.4458 13.1058 25.755 13.0237 25.8881C12.9949 25.9348 12.9416 26.0082 12.905 26.0513C12.8176 26.1542 12.6331 26.8497 12.6331 27.0766C12.6331 27.3421 12.8046 27.9684 12.9146 28.1032C12.9642 28.1644 13.0356 28.2664 13.0736 28.3301C13.1682 28.4897 13.4668 28.7418 13.6891 28.8491C13.7906 28.8983 13.8919 28.9592 13.9139 28.9845C14.0988 29.1983 15.451 29.1683 15.7488 28.9439C15.8077 28.8994 15.8895 28.8533 15.9307 28.8408C16.0833 28.7952 16.5578 28.3284 16.6521 28.131C16.6924 28.0465 16.7595 27.9278 16.801 27.8678C16.9928 27.5892 16.9841 26.4363 16.7891 26.2673C16.7568 26.2392 16.7055 26.1506 16.6756 26.0702C16.6062 25.8856 16.2734 25.5123 16.0865 25.4094C16.0099 25.3674 15.9034 25.2971 15.8497 25.2532C15.7891 25.2031 15.6858 25.1603 15.5749 25.1389C15.4774 25.12 15.2952 25.0794 15.1704 25.0488C14.8625 24.9729 14.6725 24.9818 14.2131 25.0933ZM22.9174 25.0886C22.6722 25.1481 22.5013 25.2056 22.4592 25.2432C22.4226 25.276 22.3298 25.3377 22.2532 25.3799C22.1765 25.4222 22.055 25.5203 21.983 25.5979C21.911 25.6755 21.8112 25.7822 21.7616 25.835C21.712 25.8878 21.6307 26.0129 21.5814 26.113C21.5321 26.2131 21.4607 26.3477 21.4232 26.4119C21.2866 26.6454 21.3066 27.5892 21.4523 27.7935C21.4958 27.8544 21.5614 27.9767 21.5979 28.0654C21.6345 28.1538 21.7152 28.2789 21.777 28.3434C22.0933 28.6723 22.2279 28.7891 22.3472 28.8374C22.4055 28.8613 22.501 28.9147 22.559 28.9561C22.8599 29.171 24.0778 29.1819 24.3828 28.9723C24.4524 28.9242 24.5694 28.8599 24.6422 28.8294C24.776 28.7735 25.1872 28.4196 25.1872 28.3607C25.1872 28.3431 25.2345 28.2789 25.2922 28.2175C25.3996 28.1038 25.5827 27.6595 25.6509 27.3485C25.6964 27.1394 25.661 26.731 25.5824 26.5606C25.5467 26.4836 25.4933 26.3368 25.4637 26.2342C25.4306 26.1197 25.37 26.0024 25.3061 25.9295C25.092 25.6844 24.8033 25.4091 24.7417 25.3911C24.7066 25.3808 24.6318 25.3327 24.5752 25.2843C24.5186 25.2359 24.4234 25.1837 24.3639 25.1684C23.5799 24.966 23.4539 24.959 22.9174 25.0886ZM31.9835 25.0077C31.9669 25.0133 31.7891 25.0541 31.5888 25.0983C31.3146 25.1592 31.2014 25.1984 31.1306 25.2573C31.079 25.3004 30.989 25.3594 30.9304 25.388C30.7969 25.4536 30.4783 25.7614 30.3962 25.9042C30.3622 25.9637 30.2972 26.0627 30.2523 26.1244C30.0001 26.4689 29.9963 27.6879 30.2462 28.0165C30.2848 28.0676 30.3506 28.1697 30.3921 28.2433C30.4824 28.4043 30.9063 28.7785 31.0714 28.8435C31.1364 28.8694 31.2238 28.9203 31.2659 28.957C31.5114 29.1721 32.946 29.1855 33.0824 28.9737C33.0937 28.9561 33.1814 28.9039 33.2774 28.8577C33.5035 28.7482 33.9251 28.347 34.0281 28.1433C34.0702 28.0601 34.1334 27.9581 34.1688 27.9164C34.3624 27.6887 34.3563 26.4608 34.1604 26.2148C34.1186 26.1622 34.0493 26.0535 34.006 25.9732C33.9097 25.7939 33.5798 25.4553 33.4344 25.3863C33.3758 25.3585 33.2838 25.2993 33.2301 25.2546C33.168 25.2026 33.0685 25.1609 32.9553 25.1389C32.8575 25.12 32.6756 25.0794 32.5505 25.0488C32.3488 24.9991 32.0694 24.9788 31.9835 25.0077ZM10.0368 29.2077C9.94428 29.2414 9.76088 29.2997 9.62885 29.3376C9.47157 29.3826 9.3555 29.4362 9.29282 29.4932C9.24001 29.5413 9.15354 29.6014 9.10043 29.627C9.04762 29.6525 8.97478 29.7192 8.93851 29.7751C8.90253 29.831 8.84478 29.8852 8.81054 29.8958C8.77369 29.9069 8.71885 29.977 8.67793 30.0654C8.63934 30.1485 8.5665 30.2658 8.51601 30.3264C8.27371 30.6166 8.27197 31.9738 8.51398 32.1796C8.54996 32.2101 8.60567 32.2916 8.63788 32.3603C8.72262 32.5418 9.20867 32.9935 9.38974 33.0594C9.46838 33.0881 9.59635 33.1487 9.67383 33.1945C9.99796 33.3866 10.8871 33.3677 11.2983 33.1603C11.4294 33.0942 11.5536 33.0402 11.5748 33.0402C11.6256 33.0402 12.1851 32.5193 12.2347 32.4256C12.2561 32.3853 12.3203 32.2863 12.3774 32.2054C12.6601 31.8045 12.6502 30.6956 12.36 30.2816C12.2918 30.1843 12.2361 30.0873 12.2361 30.0665C12.2361 30.0223 11.8255 29.6164 11.7808 29.6164C11.7646 29.6164 11.69 29.5655 11.6151 29.5038C11.5162 29.4218 11.4233 29.3776 11.2736 29.3414C11.1604 29.3142 11.0113 29.2636 10.9419 29.2289C10.7533 29.1349 10.269 29.1235 10.0368 29.2077ZM18.7573 29.1874C18.6903 29.2086 18.6079 29.2408 18.5742 29.2592C18.5406 29.2778 18.4161 29.3192 18.2974 29.3517C18.1602 29.3893 18.0545 29.4385 18.0072 29.4871C17.9663 29.5291 17.8903 29.5853 17.8386 29.6119C17.787 29.6384 17.6732 29.7393 17.5862 29.8357C17.4991 29.9325 17.3851 30.0554 17.3329 30.1093C17.2748 30.1691 17.2145 30.2822 17.1779 30.399C17.1448 30.504 17.0882 30.6444 17.052 30.7106C16.9443 30.9066 16.9533 31.6199 17.0659 31.8257C17.11 31.9063 17.168 32.0447 17.1947 32.1337C17.2217 32.2238 17.2893 32.3472 17.3468 32.4117C17.4037 32.4756 17.473 32.5704 17.5009 32.6221C17.5287 32.6741 17.5824 32.7319 17.6201 32.7511C17.6576 32.7703 17.7522 32.8404 17.8305 32.9074C17.9086 32.9744 18.0287 33.0452 18.0975 33.065C18.1663 33.0847 18.2896 33.1409 18.3714 33.1895C18.6822 33.3747 19.6769 33.3708 19.9285 33.1834C19.9677 33.1542 20.0771 33.1025 20.1714 33.0686C20.4993 32.9513 20.9909 32.4728 21.0608 32.2029C21.0811 32.1242 21.1328 32.0114 21.1751 31.9519C21.3684 31.6825 21.3658 30.8171 21.1711 30.5263C21.1322 30.4685 21.0834 30.3684 21.0625 30.3039C21.0416 30.2397 20.9819 30.1399 20.9296 30.082C20.8774 30.0242 20.7819 29.9152 20.7175 29.8393C20.6531 29.7637 20.5431 29.6667 20.4732 29.6242C20.403 29.5816 20.3046 29.5107 20.2541 29.4665C20.199 29.4182 20.0846 29.3676 19.966 29.3384C19.8577 29.3117 19.7132 29.2619 19.645 29.2277C19.4903 29.1502 18.9532 29.1257 18.7573 29.1874ZM27.3255 29.2344C27.1996 29.2825 27.04 29.3353 26.9712 29.352C26.9024 29.3684 26.7991 29.4151 26.742 29.4554C26.6848 29.4955 26.5974 29.5516 26.5478 29.5797C26.3749 29.6778 26.0679 30.0073 25.9953 30.1724C25.9637 30.2447 25.8996 30.3506 25.8528 30.4073C25.6233 30.6872 25.6555 31.8601 25.901 32.1695C25.9428 32.2218 25.9863 32.3016 25.9979 32.3464C26.042 32.5157 26.5545 32.9552 26.905 33.1239C27.4779 33.4003 28.1859 33.4033 28.743 33.1325C29.0857 32.966 29.5254 32.6091 29.6098 32.4286C29.6371 32.3705 29.6974 32.2832 29.7442 32.2346C29.8251 32.1501 29.9064 31.8682 29.9804 31.4159C30.028 31.1257 29.8391 30.2939 29.7079 30.2163C29.6908 30.206 29.6478 30.1438 29.613 30.0781C29.5506 29.9608 29.2114 29.6164 29.1583 29.6164C29.1435 29.6164 29.0698 29.5652 28.9943 29.5027C28.9021 29.4262 28.8043 29.3773 28.6946 29.3528C28.6052 29.3328 28.4563 29.2828 28.3641 29.2416C28.0916 29.1204 27.6325 29.1174 27.3255 29.2344Z" fill="black"/>
</svg>
