<svg width="50" height="50" viewBox="0 0 50 50" fill="none" xmlns="http://www.w3.org/2000/svg">
<path d="M6 10C6 7.79086 7.79086 6 10 6H40C42.2091 6 44 7.79086 44 10V40C44 42.2091 42.2091 44 40 44H10C7.79086 44 6 42.2091 6 40V10Z" fill="#423862"/>
<path d="M39.4815 26.5003C38.9769 25.1008 37.5165 24.2084 35.4756 23.8546C36.1166 21.8247 35.9713 20.1581 35.0296 19.1001C34.0879 18.0421 32.5071 17.7569 30.6045 18.123C30.421 16.1596 29.7054 14.6955 28.4381 14.0708C27.1708 13.446 25.5638 13.772 23.8275 14.9574C22.8998 13.0554 21.6612 11.9645 20.2594 11.8681C18.6199 11.7549 17.0028 13.0192 15.7176 15.4282C13.0999 21.0305 12.6721 27.4318 14.5204 33.3417C14.8877 34.4122 15.4583 35.3991 16.2 36.2467C16.2204 36.2712 16.2344 36.3003 16.2554 36.3243C16.417 36.5045 16.5992 36.6645 16.7983 36.8009L16.8053 36.8073L16.8467 36.8338C18.0118 37.6199 19.3713 38.0574 20.7697 38.0962C21.1355 38.1253 21.5127 38.1389 21.8995 38.1389C24.5512 38.0834 27.1738 37.5654 29.6525 36.6075C32.5213 35.6058 35.1533 34.0093 37.3814 31.9196C39.3031 29.9924 40.0486 28.0679 39.4815 26.5003ZM34.5116 19.5735C35.3004 20.4582 35.3858 21.9275 34.7767 23.7628C33.1484 23.6175 31.508 23.7046 29.9036 24.0215C30.404 22.3493 30.6538 20.6103 30.6446 18.8628C32.3427 18.5052 33.7381 18.7018 34.5122 19.5716L34.5116 19.5735ZM23.5433 16.0425C23.5733 16.1195 23.6071 16.188 23.6364 16.2682C24.1581 17.7426 24.4876 19.2799 24.6164 20.841C23.5691 21.5603 22.5735 22.3541 21.6369 23.2163C18.7913 25.8284 16.804 28.7074 15.9234 31.2043C16.1782 28.4464 16.9398 25.7614 18.1688 23.2881C19.3951 20.5828 21.1619 18.1656 23.3573 16.19C23.4204 16.1357 23.4815 16.0884 23.544 16.0406L23.5433 16.0425ZM19.1959 36.744C18.5125 36.773 17.8353 36.6008 17.2462 36.2479L17.2386 36.2415C16.8278 35.8811 16.5144 35.4204 16.328 34.9028C15.6494 32.3678 19.259 28.6758 24.5475 26.3897C24.3027 28.901 23.6021 31.3446 22.4812 33.5971C21.5006 35.4299 20.353 36.5183 19.1966 36.7427L19.1959 36.744ZM23.091 33.9341C24.3053 31.4854 25.0469 28.8236 25.2758 26.0922C25.4459 26.0275 25.6122 25.9532 25.7856 25.8885C26.7942 25.5145 27.8253 25.2061 28.8726 24.965C28.5327 25.9893 28.1296 26.9908 27.6658 27.9638C26.4395 30.6692 24.6722 33.0863 22.4761 35.0613C22.4175 35.1104 22.3608 35.1492 22.3021 35.1971C22.5923 34.7936 22.8559 34.371 23.091 33.9321V33.9341ZM25.546 25.2256C25.4784 25.2502 25.4128 25.2774 25.3459 25.3026C25.351 25.2315 25.3599 25.1623 25.365 25.0911C25.4519 23.8019 25.4468 22.5079 25.3497 21.2194C26.7628 20.2698 28.3049 19.5345 29.9272 19.0368C29.9075 20.7788 29.6355 22.5085 29.1199 24.1702C27.9059 24.4371 26.7118 24.7893 25.546 25.2243V25.2256ZM24.6705 25.0433C24.6584 25.2276 24.638 25.4074 24.6221 25.5897C21.0036 27.0836 18.1746 29.1466 16.6887 31.216C17.9219 28.3452 19.7725 25.7909 22.1046 23.7402C22.9194 22.9946 23.781 22.3033 24.6839 21.6707C24.7507 22.7936 24.7462 23.9197 24.6705 25.042V25.0433ZM22.9196 35.6058C25.1922 33.5659 27.0218 31.0685 28.2922 28.2722C28.8311 27.1468 29.2933 25.9852 29.6755 24.7956C31.2654 24.4655 32.8921 24.3567 34.511 24.4722C34.4874 24.5298 34.4708 24.5841 34.4472 24.6423C33.1927 27.3344 31.4004 29.7325 29.1842 31.6842C27.1789 33.584 24.8381 35.0823 22.2849 36.1005C22.4965 35.9466 22.7055 35.783 22.9189 35.6038L22.9196 35.6058ZM27.0503 14.4639C27.426 14.4595 27.7976 14.5424 28.1367 14.7065C29.1785 15.2193 29.7551 16.5282 29.8947 18.2879C28.2589 18.7589 26.7017 19.4754 25.2745 20.4136C25.1255 18.9121 24.7942 17.435 24.2882 16.016C24.2347 15.8718 24.1741 15.7444 24.1181 15.6073C24.9615 14.9385 25.9821 14.54 27.0497 14.4626L27.0503 14.4639ZM14.1413 24.319C14.2796 21.3441 15.0258 18.431 16.3325 15.7644C17.4374 13.695 18.7538 12.5672 20.06 12.5672C20.1109 12.5672 20.1632 12.5672 20.2154 12.5724C21.3827 12.6526 22.4455 13.6426 23.2617 15.3771C23.1464 15.4676 23.0317 15.5472 22.9157 15.6448C18.4209 19.8448 15.6616 25.6178 15.1939 31.8006C15.1834 32.3048 15.2068 32.8091 15.264 33.31C15.2353 33.2363 15.2003 33.1697 15.1741 33.0934C14.2337 30.2725 13.8818 27.284 14.1406 24.3177L14.1413 24.319ZM36.8965 31.4152C32.4726 35.3895 26.7342 37.5234 20.8277 37.3907C20.6831 37.379 20.5518 37.3577 20.4136 37.3422C20.9387 37.2544 21.4569 37.1277 21.9638 36.9632C27.683 34.7792 32.3735 30.4754 35.0895 24.9197C35.1424 24.7949 35.18 24.6766 35.2278 24.5544C37.0826 24.8428 38.4136 25.5768 38.8329 26.7389C39.2955 28.0362 38.6092 29.6969 36.8965 31.4152Z" fill="#EEA73C"/>
</svg>
