<svg width="50" height="50" viewBox="0 0 50 50" fill="none" xmlns="http://www.w3.org/2000/svg">
<rect width="50" height="50" fill="#E6522C"/>
<path d="M25.5001 8.09766C18.5968 8.09766 13 13.6939 13 20.5975C13 27.501 18.5968 33.0977 25.5001 33.0977C32.4034 33.0977 38 27.501 38 20.5975C38 13.6939 32.4032 8.09766 25.5001 8.09766ZM25.5001 31.4926C23.536 31.4926 21.9436 30.1805 21.9436 28.5625H29.0567C29.0567 30.1803 27.4642 31.4926 25.5001 31.4926ZM31.3744 27.5921H19.6252V25.4616H31.3746L31.3744 27.5921ZM31.3323 24.3651H19.6587C19.6199 24.3203 19.5802 24.2762 19.5427 24.2307C18.34 22.7704 18.0568 22.008 17.7817 21.2311C17.7771 21.2055 19.24 21.53 20.2774 21.7634C20.2774 21.7634 20.8113 21.8869 21.5917 22.0292C20.8424 21.1508 20.3974 20.0342 20.3974 18.8928C20.3974 16.3871 22.3192 14.1975 21.6259 12.4277C22.3007 12.4826 23.0225 13.8518 23.0712 15.9927C23.7886 15.0013 24.0888 13.1909 24.0888 12.0809C24.0888 10.9316 24.8461 9.59658 25.6036 9.55092C24.9283 10.6638 25.7785 11.6179 26.5342 13.9846C26.8177 14.8736 26.7815 16.3697 27.0003 17.3184C27.0729 15.3479 27.4117 12.4727 28.6618 11.48C28.1103 12.7301 28.7434 14.2943 29.1764 15.0463C29.875 16.2596 30.2986 17.1788 30.2986 18.9173C30.2986 20.0829 29.8682 21.1804 29.1423 22.0382C29.9677 21.8834 30.5377 21.7437 30.5377 21.7437L33.2183 21.2207C33.2183 21.2207 32.829 22.8224 31.3323 24.3651Z" fill="white"/>
<path d="M17.9127 40.3129V36.1779H18.6819V40.3129C18.6819 41.4635 17.925 42.0977 16.8429 42.0977C15.7692 42.0977 15 41.5482 15 40.4011H15.7732C15.7732 41.1425 16.2236 41.468 16.8429 41.468C17.4625 41.468 17.9127 41.0561 17.9127 40.3129Z" fill="white"/>
<path d="M23.101 40.5415C23.101 39.9965 22.8304 39.7358 21.7147 39.4105C20.5571 39.0671 19.8237 38.594 19.8237 37.6859C19.8237 36.7692 20.6202 36.0977 21.8069 36.0977C22.8296 36.0977 23.8622 36.764 23.8622 37.8624H23.0929C23.0929 37.198 22.6735 36.7313 21.8069 36.7313C20.9839 36.7313 20.597 37.1293 20.597 37.6779C20.597 38.1715 21.0158 38.4733 21.9631 38.7367C23.2861 39.1105 23.8782 39.6198 23.8782 40.5335C23.8782 41.4823 23.0834 42.0977 21.8429 42.0977C20.8 42.0977 19.6394 41.4731 19.6394 40.3249H20.4087C20.4087 41.1259 21.1034 41.468 21.8429 41.468C22.6547 41.468 23.101 41.1076 23.101 40.5415Z" fill="white"/>
<path d="M29.355 38.9132V39.2821C29.355 41.0328 28.4445 42.0977 27.0152 42.0977C25.6487 42.0977 24.6635 41.0444 24.6635 39.2821V38.9132C24.6635 37.1378 25.6444 36.0977 27.0072 36.0977C28.4341 36.0977 29.355 37.1554 29.355 38.9132ZM28.5897 39.2821V38.9051C28.5897 37.5212 28.0097 36.7554 27.0072 36.7554C26.057 36.7554 25.4287 37.5059 25.4287 38.9051V39.2821C25.4287 40.676 26.0585 41.4439 27.0152 41.4439C28.0302 41.4439 28.5897 40.6622 28.5897 39.2821Z" fill="white"/>
<path d="M35 36.1779V42.0174H34.2228L31.2861 37.5134V42.0174H30.5128V36.1779H31.2861L34.2348 40.6939V36.1779H35Z" fill="white"/>
</svg>
