<svg width="50" height="50" viewBox="0 0 50 50" fill="none" xmlns="http://www.w3.org/2000/svg">
<path d="M25.0001 4C16.7161 4 10 10.7155 10 18.9999C10 27.284 16.7161 34 25.0001 34C33.2841 34 40 27.284 40 18.9999C40 10.7155 33.2839 4 25.0001 4ZM25.0001 32.074C22.6432 32.074 20.7323 30.4995 20.7323 28.5578H29.268C29.268 30.4992 27.3571 32.074 25.0001 32.074ZM32.0493 27.3933H17.9502V24.8368H32.0495L32.0493 27.3933ZM31.9987 23.5209H17.9904C17.9438 23.4671 17.8962 23.4142 17.8512 23.3597C16.408 21.6073 16.0681 20.6924 15.738 19.7601C15.7325 19.7294 17.488 20.1188 18.7329 20.3989C18.7329 20.3989 19.3735 20.5471 20.3101 20.7178C19.4109 19.6638 18.8769 18.3238 18.8769 16.9542C18.8769 13.9473 21.1831 11.3198 20.3511 9.19602C21.1608 9.26193 22.0269 10.905 22.0854 13.474C22.9463 12.2844 23.3065 10.1119 23.3065 8.77989C23.3065 7.40075 24.2153 5.79871 25.1243 5.74392C24.314 7.07939 25.3342 8.22426 26.2411 11.0644C26.5812 12.1311 26.5378 13.9264 26.8004 15.0649C26.8875 12.7003 27.2941 9.25002 28.7942 8.05882C28.1324 9.55894 28.8921 11.436 29.4117 12.3384C30.2501 13.7943 30.7583 14.8974 30.7583 16.9836C30.7583 18.3823 30.2419 19.6992 29.3707 20.7287C30.3612 20.5429 31.0452 20.3753 31.0452 20.3753L34.262 19.7477C34.262 19.7477 33.7947 21.6697 31.9987 23.5209Z" fill="#E6522C"/>
<path d="M15.8086 43.9248V38.8906H16.7461V43.9248C16.7461 45.3256 15.8237 46.0977 14.5049 46.0977C13.1963 46.0977 12.2588 45.4287 12.2588 44.0322H13.2012C13.2012 44.9348 13.75 45.3311 14.5049 45.3311C15.26 45.3311 15.8086 44.8296 15.8086 43.9248Z" fill="black"/>
<path d="M22.1318 44.2031C22.1318 43.5396 21.8021 43.2222 20.4424 42.8262C19.0316 42.4082 18.1377 41.8321 18.1377 40.7266C18.1377 39.6105 19.1084 38.793 20.5547 38.793C21.8011 38.793 23.0596 39.6042 23.0596 40.9414H22.1221C22.1221 40.1326 21.6109 39.5645 20.5547 39.5645C19.5516 39.5645 19.0801 40.049 19.0801 40.7168C19.0801 41.3178 19.5906 41.6851 20.7451 42.0059C22.3574 42.4609 23.0791 43.081 23.0791 44.1934C23.0791 45.3485 22.1104 46.0977 20.5986 46.0977C19.3276 46.0977 17.9131 45.3373 17.9131 43.9395H18.8506C18.8506 44.9146 19.6973 45.3311 20.5986 45.3311C21.5879 45.3311 22.1318 44.8923 22.1318 44.2031Z" fill="black"/>
<path d="M29.7539 42.2207V42.6699C29.7539 44.8012 28.6442 46.0977 26.9023 46.0977C25.2369 46.0977 24.0361 44.8153 24.0361 42.6699V42.2207C24.0361 40.0593 25.2317 38.793 26.8926 38.793C28.6315 38.793 29.7539 40.0808 29.7539 42.2207ZM28.8213 42.6699V42.2109C28.8213 40.526 28.1144 39.5938 26.8926 39.5938C25.7346 39.5938 24.9688 40.5074 24.9688 42.2109V42.6699C24.9688 44.3668 25.7363 45.3018 26.9023 45.3018C28.1394 45.3018 28.8213 44.35 28.8213 42.6699Z" fill="black"/>
<path d="M36.6338 38.8906V46H35.6865L32.1074 40.5166V46H31.165V38.8906H32.1074L35.7012 44.3887V38.8906H36.6338Z" fill="black"/>
</svg>
