<svg width="50" height="50" viewBox="0 0 50 50" fill="none" xmlns="http://www.w3.org/2000/svg">
<path d="M34.3373 22.3597C34.2034 21.9617 34.1365 21.5636 34.0026 21.2318L32.5301 22.028L32.7309 22.8242C33.8018 26.8713 34.0026 30.8521 33.1325 34.1694C32.3293 37.2877 30.7228 39.2781 28.6479 39.8752C26.5729 40.4723 24.1633 39.4771 21.8875 37.2214C20.4819 35.7617 19.344 34.1694 18.4738 32.3781L19.4779 31.7809L20.8835 30.9848L22.9584 29.7905L25.9036 28.1319C26.1044 28.1982 26.3052 28.2646 26.5729 28.2646C27.4431 28.2646 28.1124 27.6011 28.1124 26.7386C28.1124 25.8761 27.4431 25.2126 26.5729 25.2126C25.8366 25.2126 25.1673 25.7434 25.0334 26.4732L22.9584 27.6675C21.7536 28.3309 20.6157 28.9944 20.6157 28.9944C20.6157 28.9944 17.4029 30.8521 16.1981 31.5156C17.269 34.0367 18.7416 36.3589 20.6827 38.3492C22.8246 40.5387 25.1673 41.6666 27.3761 41.6666C27.9116 41.6666 28.4471 41.6002 28.9825 41.4675C31.6599 40.7377 33.668 38.3492 34.605 34.6338C35.676 30.9848 35.4752 26.6723 34.3373 22.3597Z" fill="#231F20"/>
<path d="M27.6439 36.1598C25.7028 36.6906 23.2931 34.8992 21.4859 31.8473L20.0803 32.6435C22.0214 35.8281 24.5649 37.8848 26.9745 37.8848C27.3761 37.8848 27.7108 37.8185 28.0455 37.7521C31.9277 36.6906 33.4671 30.3213 31.526 23.2223C31.4591 23.0232 31.3922 22.8905 31.3922 22.6915L29.9196 23.4876C29.9196 23.554 29.9866 23.6203 29.9866 23.6867L30.0535 24.0184V24.0848C31.593 29.8569 30.522 35.43 27.6439 36.1598Z" fill="#231F20"/>
<path d="M11.1111 29.3925L14.9263 29.6578L36.4123 17.9145C36.68 16.0568 37.5502 14.3982 38.8889 13.0712C36.9478 13.602 34.9397 13.5356 33.0656 12.8058L12.5836 26.3405L33.8688 13.9337C35.9437 14.3982 37.1486 13.801 37.1486 13.801L11.1111 29.3925Z" fill="url(#paint0_linear_9176_14445)"/>
<path d="M15.6627 22.4924C15.4619 20.2367 15.5957 17.9809 16.1312 15.7914C16.9344 12.6732 18.5408 10.6828 20.6158 10.0856C21.0174 9.95295 21.419 9.95295 21.8876 9.95295C24.2303 9.95295 26.7068 11.6116 28.7818 14.3318L30.1205 13.403C27.2423 9.62122 23.5609 7.63082 20.2142 8.55967C17.5368 9.28949 15.5288 11.678 14.5917 15.3934C13.9893 18.0472 13.8554 20.7674 14.1901 23.4876L15.6627 22.4924Z" fill="url(#paint1_linear_9176_14445)"/>
<path d="M18.4069 20.6347C18.4069 19.7722 18.5408 18.8434 18.6746 17.9809C19.1432 15.7914 20.2141 14.2655 21.4859 13.9337C21.6867 13.8674 21.9544 13.8674 22.1552 13.8674C23.36 13.8674 24.6987 14.6635 26.0374 16.0568L26.1043 16.1232L27.443 15.1943L27.2422 14.9289C25.2342 12.7395 23.0923 11.877 21.0843 12.4078C19.0762 12.9385 17.6706 14.7962 17.0682 17.7155C16.8005 19.0424 16.6666 20.3693 16.7335 21.7626L18.4069 20.6347Z" fill="url(#paint2_linear_9176_14445)"/>
<defs>
<linearGradient id="paint0_linear_9176_14445" x1="9.01905" y1="43.0176" x2="44.8973" y2="32.2646" gradientUnits="userSpaceOnUse">
<stop stop-color="white"/>
<stop offset="0.3117" stop-color="#81FFEC"/>
<stop offset="0.5111" stop-color="#62F6D3"/>
<stop offset="0.7948" stop-color="#3BEAB3"/>
<stop offset="0.9431" stop-color="#2CE6A7"/>
</linearGradient>
<linearGradient id="paint1_linear_9176_14445" x1="33.3558" y1="-1.88352" x2="5.39297" y2="49.3708" gradientUnits="userSpaceOnUse">
<stop offset="0.2093" stop-color="#2CE6A7"/>
<stop offset="0.3327" stop-color="#31E7AB"/>
<stop offset="0.4729" stop-color="#3EEBB7"/>
<stop offset="0.6212" stop-color="#55F1CB"/>
<stop offset="0.7742" stop-color="#75FAE6"/>
<stop offset="0.8569" stop-color="#89FFF8"/>
</linearGradient>
<linearGradient id="paint2_linear_9176_14445" x1="25.8721" y1="7.90313" x2="17.5021" y2="27.3121" gradientUnits="userSpaceOnUse">
<stop offset="0.2135" stop-color="#2CE6A7"/>
<stop offset="0.3062" stop-color="#31E7AB"/>
<stop offset="0.4152" stop-color="#3FEBB8"/>
<stop offset="0.5326" stop-color="#57F2CC"/>
<stop offset="0.6549" stop-color="#78FAE9"/>
<stop offset="0.7099" stop-color="#89FFF8"/>
</linearGradient>
</defs>
</svg>
