<svg width="50" height="50" viewBox="0 0 50 50" fill="none" xmlns="http://www.w3.org/2000/svg">
<path d="M25.0022 8C13.958 8 5 14.723 5 23.0203C5 28.2981 8.62812 32.9392 14.1048 35.619V40.9871C14.1048 41.9119 15.2494 42.3506 15.8714 41.6667L19.655 37.503C21.3568 37.8557 23.1449 38.0493 24.9978 38.0493C36.0463 38.0493 45 31.3219 45 23.0246C45 14.7273 36.0506 8 25.0022 8ZM32.7465 27.2012C30.6128 27.2012 28.8549 25.614 28.5914 23.5623H25.8962C25.6414 24.9516 24.4191 26.0098 22.9505 26.0098C21.482 26.0098 20.2597 24.9559 20.0049 23.5623H17.2708C17.0289 24.4785 16.204 25.1581 15.2062 25.1581C14.0228 25.1581 13.0639 24.2032 13.0639 23.0246C13.0639 21.8461 14.0228 20.8912 15.2062 20.8912C16.1997 20.8912 17.0289 21.5708 17.2708 22.487H20.0049C20.2597 21.0976 21.482 20.0395 22.9505 20.0395C24.4191 20.0395 25.6414 21.0933 25.8962 22.487H28.5871C28.8506 20.4352 30.6085 18.848 32.7421 18.848C35.0572 18.848 36.9404 20.7191 36.9404 23.0289C36.9404 25.3302 35.0615 27.2012 32.7465 27.2012Z" fill="#26E2B9"/>
</svg>
