<svg width="50" height="50" viewBox="0 0 50 50" fill="none" xmlns="http://www.w3.org/2000/svg">
<path d="M6 10C6 7.79086 7.79086 6 10 6H40C42.2091 6 44 7.79086 44 10V40C44 42.2091 42.2091 44 40 44H10C7.79086 44 6 42.2091 6 40V10Z" fill="black"/>
<path d="M29.594 21.0907C29.594 25.2068 27.6562 27.6162 24.6353 27.6162C21.4018 27.6162 19.5152 25.2871 19.5152 21.0907C19.5152 16.561 21.2836 14.2319 24.5172 14.2319C27.7508 14.2319 29.6019 16.6011 29.6019 21.0907H29.594ZM13.56 40.84H19.5073V29.2386C21.0158 31.5235 23.3435 32.7283 26.2738 32.7283C31.6185 32.7283 35.6713 28.1142 35.6713 20.8417C35.6713 13.7741 31.7327 9.16 26.1871 9.16C23.2135 9.16 21.1457 10.3246 19.3773 12.9026V9.91897H13.56V40.84Z" fill="white"/>
</svg>
