<svg width="50" height="50" viewBox="0 0 50 50" fill="none" xmlns="http://www.w3.org/2000/svg">
<path d="M14.751 39.8906H15.6641L17.9932 45.6865L20.3174 39.8906H21.2354L18.3447 47H17.6318L14.751 39.8906ZM14.4531 39.8906H15.2588L15.3906 44.2266V47H14.4531V39.8906ZM20.7227 39.8906H21.5283V47H20.5908V44.2266L20.7227 39.8906Z" fill="#1C1D1F"/>
<path d="M25.2393 47.0977C24.8714 47.0977 24.5378 47.0358 24.2383 46.9121C23.9421 46.7852 23.6865 46.6077 23.4717 46.3799C23.2601 46.152 23.0973 45.8818 22.9834 45.5693C22.8695 45.2568 22.8125 44.915 22.8125 44.5439V44.3389C22.8125 43.9092 22.876 43.5267 23.0029 43.1914C23.1299 42.8529 23.3024 42.5664 23.5205 42.332C23.7386 42.0977 23.986 41.9202 24.2627 41.7998C24.5394 41.6794 24.8258 41.6191 25.1221 41.6191C25.4997 41.6191 25.8252 41.6842 26.0986 41.8145C26.3753 41.9447 26.6016 42.127 26.7773 42.3613C26.9531 42.5924 27.0833 42.8659 27.168 43.1816C27.2526 43.4941 27.2949 43.8359 27.2949 44.207V44.6123H23.3496V43.875H26.3916V43.8066C26.3786 43.5723 26.3298 43.3444 26.2451 43.123C26.1637 42.9017 26.0335 42.7194 25.8545 42.5762C25.6755 42.4329 25.4313 42.3613 25.1221 42.3613C24.917 42.3613 24.7282 42.4053 24.5557 42.4932C24.3831 42.5778 24.235 42.7048 24.1113 42.874C23.9876 43.0433 23.8916 43.25 23.8232 43.4941C23.7549 43.7383 23.7207 44.0199 23.7207 44.3389V44.5439C23.7207 44.7946 23.7549 45.0306 23.8232 45.252C23.8949 45.4701 23.9974 45.6621 24.1309 45.8281C24.2676 45.9941 24.432 46.1243 24.624 46.2188C24.8193 46.3132 25.0407 46.3604 25.2881 46.3604C25.6071 46.3604 25.8773 46.2952 26.0986 46.165C26.32 46.0348 26.5137 45.8607 26.6797 45.6426L27.2266 46.0771C27.1126 46.2497 26.9678 46.4141 26.792 46.5703C26.6162 46.7266 26.3997 46.8535 26.1426 46.9512C25.8887 47.0488 25.5876 47.0977 25.2393 47.0977Z" fill="#1C1D1F"/>
<path d="M30.5615 41.7168V42.4102H27.7051V41.7168H30.5615ZM28.6719 40.4326H29.5752V45.6914C29.5752 45.8704 29.6029 46.0055 29.6582 46.0967C29.7135 46.1878 29.7852 46.248 29.873 46.2773C29.9609 46.3066 30.0553 46.3213 30.1562 46.3213C30.2311 46.3213 30.3092 46.3148 30.3906 46.3018C30.4753 46.2855 30.5387 46.2725 30.5811 46.2627L30.5859 47C30.5143 47.0228 30.4199 47.0439 30.3027 47.0635C30.1888 47.0863 30.0505 47.0977 29.8877 47.0977C29.6663 47.0977 29.4629 47.0537 29.2773 46.9658C29.0918 46.8779 28.9437 46.7314 28.833 46.5264C28.7256 46.318 28.6719 46.0381 28.6719 45.6865V40.4326Z" fill="#1C1D1F"/>
<path d="M34.7363 46.0967V43.377C34.7363 43.1686 34.694 42.988 34.6094 42.835C34.528 42.6787 34.4043 42.5583 34.2383 42.4736C34.0723 42.389 33.8672 42.3467 33.623 42.3467C33.3952 42.3467 33.195 42.3857 33.0225 42.4639C32.8532 42.542 32.7197 42.6445 32.6221 42.7715C32.5277 42.8984 32.4805 43.0352 32.4805 43.1816H31.5771C31.5771 42.9928 31.626 42.8057 31.7236 42.6201C31.8213 42.4346 31.9613 42.2669 32.1436 42.1172C32.3291 41.9642 32.5505 41.8438 32.8076 41.7559C33.068 41.6647 33.3577 41.6191 33.6768 41.6191C34.0609 41.6191 34.3994 41.6842 34.6924 41.8145C34.9886 41.9447 35.2197 42.1416 35.3857 42.4053C35.555 42.6657 35.6396 42.9928 35.6396 43.3867V45.8477C35.6396 46.0234 35.6543 46.2106 35.6836 46.4092C35.7161 46.6077 35.7633 46.7786 35.8252 46.9219V47H34.8828C34.8372 46.8958 34.8014 46.7575 34.7754 46.585C34.7493 46.4092 34.7363 46.2464 34.7363 46.0967ZM34.8926 43.7969L34.9023 44.4316H33.9893C33.7321 44.4316 33.5026 44.4528 33.3008 44.4951C33.099 44.5342 32.9297 44.5944 32.793 44.6758C32.6562 44.7572 32.5521 44.8597 32.4805 44.9834C32.4089 45.1038 32.373 45.2454 32.373 45.4082C32.373 45.5742 32.4105 45.7256 32.4854 45.8623C32.5602 45.999 32.6725 46.1081 32.8223 46.1895C32.9753 46.2676 33.1624 46.3066 33.3838 46.3066C33.6605 46.3066 33.9046 46.248 34.1162 46.1309C34.3278 46.0137 34.4954 45.8704 34.6191 45.7012C34.7461 45.5319 34.8145 45.3675 34.8242 45.208L35.21 45.6426C35.1872 45.7793 35.1253 45.9307 35.0244 46.0967C34.9235 46.2627 34.7884 46.4222 34.6191 46.5752C34.4531 46.7249 34.2546 46.8503 34.0234 46.9512C33.7956 47.0488 33.5384 47.0977 33.252 47.0977C32.8939 47.0977 32.5798 47.0277 32.3096 46.8877C32.0426 46.7477 31.8343 46.5605 31.6846 46.3262C31.5381 46.0885 31.4648 45.8232 31.4648 45.5303C31.4648 45.2471 31.5202 44.998 31.6309 44.7832C31.7415 44.5651 31.901 44.3844 32.1094 44.2412C32.3177 44.0947 32.5684 43.984 32.8613 43.9092C33.1543 43.8343 33.4814 43.7969 33.8428 43.7969H34.8926Z" fill="#1C1D1F"/>
<rect width="30" height="30" transform="translate(10 6)" fill="#009AD9"/>
<path d="M28.9834 17.9148C28.9834 21.163 27.4329 23.0643 25.0157 23.0643C22.4284 23.0643 20.9188 21.2263 20.9188 17.9148C20.9188 14.3402 22.3338 12.5022 24.9212 12.5022C27.5085 12.5022 28.9897 14.3719 28.9897 17.9148H28.9834ZM16.1538 33.4998H20.9125V24.3446C22.1195 26.1477 23.982 27.0984 26.3267 27.0984C30.6033 27.0984 33.8461 23.4573 33.8461 17.7183C33.8461 12.1409 30.6947 8.49976 26.2574 8.49976C23.878 8.49976 22.2235 9.41876 20.8085 11.4532V9.09869H16.1538V33.4998Z" fill="white"/>
</svg>
