<svg width="50" height="50" viewBox="0 0 50 50" fill="none" xmlns="http://www.w3.org/2000/svg">
<path d="M19.1943 42.2119H17.2949V41.4453H19.1943C19.5622 41.4453 19.86 41.3867 20.0879 41.2695C20.3158 41.1523 20.4818 40.9896 20.5859 40.7812C20.6934 40.5729 20.7471 40.3353 20.7471 40.0684C20.7471 39.8242 20.6934 39.5947 20.5859 39.3799C20.4818 39.165 20.3158 38.9925 20.0879 38.8623C19.86 38.7288 19.5622 38.6621 19.1943 38.6621H17.5146V45H16.5723V37.8906H19.1943C19.7314 37.8906 20.1855 37.9834 20.5566 38.1689C20.9277 38.3545 21.2093 38.6117 21.4014 38.9404C21.5934 39.266 21.6895 39.6387 21.6895 40.0586C21.6895 40.5143 21.5934 40.9033 21.4014 41.2256C21.2093 41.5479 20.9277 41.7936 20.5566 41.9629C20.1855 42.1289 19.7314 42.2119 19.1943 42.2119Z" fill="#1C1D1F"/>
<path d="M22.4365 42.417V42.3047C22.4365 41.9238 22.4919 41.5706 22.6025 41.2451C22.7132 40.9163 22.8727 40.6315 23.0811 40.3906C23.2894 40.1465 23.5417 39.9577 23.8379 39.8242C24.1341 39.6875 24.4661 39.6191 24.834 39.6191C25.2051 39.6191 25.5387 39.6875 25.835 39.8242C26.1344 39.9577 26.3883 40.1465 26.5967 40.3906C26.8083 40.6315 26.9694 40.9163 27.0801 41.2451C27.1908 41.5706 27.2461 41.9238 27.2461 42.3047V42.417C27.2461 42.7979 27.1908 43.151 27.0801 43.4766C26.9694 43.8021 26.8083 44.0869 26.5967 44.3311C26.3883 44.5719 26.1361 44.7607 25.8398 44.8975C25.5469 45.0309 25.2148 45.0977 24.8438 45.0977C24.4727 45.0977 24.139 45.0309 23.8428 44.8975C23.5465 44.7607 23.2926 44.5719 23.0811 44.3311C22.8727 44.0869 22.7132 43.8021 22.6025 43.4766C22.4919 43.151 22.4365 42.7979 22.4365 42.417ZM23.3398 42.3047V42.417C23.3398 42.6807 23.3708 42.9297 23.4326 43.1641C23.4945 43.3952 23.5872 43.6003 23.7109 43.7793C23.8379 43.9583 23.9958 44.0999 24.1846 44.2041C24.3734 44.305 24.5931 44.3555 24.8438 44.3555C25.0911 44.3555 25.3076 44.305 25.4932 44.2041C25.682 44.0999 25.8382 43.9583 25.9619 43.7793C26.0856 43.6003 26.1784 43.3952 26.2402 43.1641C26.3053 42.9297 26.3379 42.6807 26.3379 42.417V42.3047C26.3379 42.0443 26.3053 41.7985 26.2402 41.5674C26.1784 41.333 26.084 41.1263 25.957 40.9473C25.8333 40.765 25.6771 40.6217 25.4883 40.5176C25.3027 40.4134 25.0846 40.3613 24.834 40.3613C24.5866 40.3613 24.3685 40.4134 24.1797 40.5176C23.9941 40.6217 23.8379 40.765 23.7109 40.9473C23.5872 41.1263 23.4945 41.333 23.4326 41.5674C23.3708 41.7985 23.3398 42.0443 23.3398 42.3047Z" fill="#1C1D1F"/>
<path d="M30.4395 45H28.9551L28.9648 44.2334H30.4395C30.9473 44.2334 31.3704 44.1276 31.709 43.916C32.0475 43.7012 32.3014 43.4017 32.4707 43.0176C32.6432 42.6302 32.7295 42.1777 32.7295 41.6602V41.2256C32.7295 40.8187 32.6807 40.4574 32.583 40.1416C32.4854 39.8226 32.3421 39.554 32.1533 39.3359C31.9645 39.1146 31.7334 38.9469 31.46 38.833C31.1898 38.7191 30.8789 38.6621 30.5273 38.6621H28.9258V37.8906H30.5273C30.9928 37.8906 31.4176 37.9688 31.8018 38.125C32.1859 38.278 32.5163 38.501 32.793 38.7939C33.0729 39.0837 33.2878 39.4352 33.4375 39.8486C33.5872 40.2588 33.6621 40.721 33.6621 41.2354V41.6602C33.6621 42.1745 33.5872 42.6383 33.4375 43.0518C33.2878 43.4619 33.0713 43.8118 32.7881 44.1016C32.5081 44.3913 32.1696 44.6143 31.7725 44.7705C31.3786 44.9235 30.9342 45 30.4395 45ZM29.458 37.8906V45H28.5156V37.8906H29.458Z" fill="#1C1D1F"/>
<rect width="30" height="30" transform="translate(10 6)" fill="#009AD9"/>
<path d="M28.9834 17.9148C28.9834 21.163 27.4329 23.0643 25.0157 23.0643C22.4284 23.0643 20.9188 21.2263 20.9188 17.9148C20.9188 14.3402 22.3338 12.5022 24.9212 12.5022C27.5085 12.5022 28.9897 14.3719 28.9897 17.9148H28.9834ZM16.1538 33.4998H20.9125V24.3446C22.1195 26.1477 23.982 27.0984 26.3267 27.0984C30.6033 27.0984 33.8461 23.4573 33.8461 17.7183C33.8461 12.1409 30.6947 8.49976 26.2574 8.49976C23.878 8.49976 22.2235 9.41876 20.8085 11.4532V9.09869H16.1538V33.4998Z" fill="white"/>
</svg>
