<svg width="50" height="50" viewBox="0 0 50 50" fill="none" xmlns="http://www.w3.org/2000/svg">
<path d="M8.93555 44.8516L10.3467 39.8906H11.0303L10.6348 41.8193L9.11621 47H8.4375L8.93555 44.8516ZM7.47559 39.8906L8.59863 44.7539L8.93555 47H8.26172L6.53809 39.8906H7.47559ZM12.8564 44.749L13.9551 39.8906H14.8975L13.1787 47H12.5049L12.8564 44.749ZM11.1328 39.8906L12.5049 44.8516L13.0029 47H12.3242L10.8594 41.8193L10.459 39.8906H11.1328Z" fill="#1C1D1F"/>
<path d="M15.4102 44.417V44.3047C15.4102 43.9238 15.4655 43.5706 15.5762 43.2451C15.6868 42.9163 15.8464 42.6315 16.0547 42.3906C16.263 42.1465 16.5153 41.9577 16.8115 41.8242C17.1077 41.6875 17.4398 41.6191 17.8076 41.6191C18.1787 41.6191 18.5124 41.6875 18.8086 41.8242C19.1081 41.9577 19.362 42.1465 19.5703 42.3906C19.7819 42.6315 19.943 42.9163 20.0537 43.2451C20.1644 43.5706 20.2197 43.9238 20.2197 44.3047V44.417C20.2197 44.7979 20.1644 45.151 20.0537 45.4766C19.943 45.8021 19.7819 46.0869 19.5703 46.3311C19.362 46.5719 19.1097 46.7607 18.8135 46.8975C18.5205 47.0309 18.1885 47.0977 17.8174 47.0977C17.4463 47.0977 17.1126 47.0309 16.8164 46.8975C16.5202 46.7607 16.2663 46.5719 16.0547 46.3311C15.8464 46.0869 15.6868 45.8021 15.5762 45.4766C15.4655 45.151 15.4102 44.7979 15.4102 44.417ZM16.3135 44.3047V44.417C16.3135 44.6807 16.3444 44.9297 16.4062 45.1641C16.4681 45.3952 16.5609 45.6003 16.6846 45.7793C16.8115 45.9583 16.9694 46.0999 17.1582 46.2041C17.347 46.305 17.5667 46.3555 17.8174 46.3555C18.0648 46.3555 18.2812 46.305 18.4668 46.2041C18.6556 46.0999 18.8118 45.9583 18.9355 45.7793C19.0592 45.6003 19.152 45.3952 19.2139 45.1641C19.279 44.9297 19.3115 44.6807 19.3115 44.417V44.3047C19.3115 44.0443 19.279 43.7985 19.2139 43.5674C19.152 43.333 19.0576 43.1263 18.9307 42.9473C18.807 42.765 18.6507 42.6217 18.4619 42.5176C18.2764 42.4134 18.0583 42.3613 17.8076 42.3613C17.5602 42.3613 17.3421 42.4134 17.1533 42.5176C16.9678 42.6217 16.8115 42.765 16.6846 42.9473C16.5609 43.1263 16.4681 43.333 16.4062 43.5674C16.3444 43.7985 16.3135 44.0443 16.3135 44.3047Z" fill="#1C1D1F"/>
<path d="M22.251 42.7666V47H21.3428V41.7168H22.2021L22.251 42.7666ZM22.0654 44.1582L21.6455 44.1436C21.6488 43.7822 21.696 43.4486 21.7871 43.1426C21.8783 42.8333 22.0133 42.5648 22.1924 42.3369C22.3714 42.109 22.5944 41.9333 22.8613 41.8096C23.1283 41.6826 23.4375 41.6191 23.7891 41.6191C24.0365 41.6191 24.2643 41.6549 24.4727 41.7266C24.681 41.7949 24.8617 41.904 25.0146 42.0537C25.1676 42.2035 25.2865 42.3955 25.3711 42.6299C25.4557 42.8643 25.498 43.1475 25.498 43.4795V47H24.5947V43.5234C24.5947 43.2467 24.5475 43.0254 24.4531 42.8594C24.362 42.6934 24.2318 42.5729 24.0625 42.498C23.8932 42.4199 23.6947 42.3809 23.4668 42.3809C23.1999 42.3809 22.9769 42.4281 22.7979 42.5225C22.6188 42.6169 22.4756 42.7471 22.3682 42.9131C22.2607 43.0791 22.1826 43.2695 22.1338 43.4844C22.0882 43.696 22.0654 43.9206 22.0654 44.1582ZM25.4883 43.6602L24.8828 43.8457C24.8861 43.556 24.9333 43.2777 25.0244 43.0107C25.1188 42.7438 25.2539 42.5062 25.4297 42.2979C25.6087 42.0895 25.8285 41.9251 26.0889 41.8047C26.3493 41.681 26.6471 41.6191 26.9824 41.6191C27.2656 41.6191 27.5163 41.6566 27.7344 41.7314C27.9557 41.8063 28.1413 41.9219 28.291 42.0781C28.444 42.2311 28.5596 42.4281 28.6377 42.6689C28.7158 42.9098 28.7549 43.1963 28.7549 43.5283V47H27.8467V43.5186C27.8467 43.2223 27.7995 42.9928 27.7051 42.8301C27.6139 42.6641 27.4837 42.5485 27.3145 42.4834C27.1484 42.415 26.9499 42.3809 26.7188 42.3809C26.5202 42.3809 26.3444 42.415 26.1914 42.4834C26.0384 42.5518 25.9098 42.6462 25.8057 42.7666C25.7015 42.8838 25.6217 43.0189 25.5664 43.1719C25.5143 43.3249 25.4883 43.4876 25.4883 43.6602Z" fill="#1C1D1F"/>
<path d="M30.1172 39.5H31.0254V45.9746L30.9473 47H30.1172V39.5ZM34.5947 44.3145V44.417C34.5947 44.8011 34.5492 45.1576 34.458 45.4863C34.3669 45.8118 34.2334 46.0951 34.0576 46.3359C33.8818 46.5768 33.667 46.764 33.4131 46.8975C33.1592 47.0309 32.8678 47.0977 32.5391 47.0977C32.2038 47.0977 31.9092 47.0407 31.6553 46.9268C31.4046 46.8096 31.193 46.6419 31.0205 46.4238C30.848 46.2057 30.7096 45.9421 30.6055 45.6328C30.5046 45.3236 30.4346 44.9753 30.3955 44.5879V44.1387C30.4346 43.748 30.5046 43.3981 30.6055 43.0889C30.7096 42.7796 30.848 42.516 31.0205 42.2979C31.193 42.0765 31.4046 41.9089 31.6553 41.7949C31.9059 41.6777 32.1973 41.6191 32.5293 41.6191C32.8613 41.6191 33.1559 41.6842 33.4131 41.8145C33.6702 41.9414 33.8851 42.1237 34.0576 42.3613C34.2334 42.599 34.3669 42.8838 34.458 43.2158C34.5492 43.5446 34.5947 43.9108 34.5947 44.3145ZM33.6865 44.417V44.3145C33.6865 44.0508 33.6621 43.8034 33.6133 43.5723C33.5645 43.3379 33.4863 43.1328 33.3789 42.957C33.2715 42.778 33.1299 42.638 32.9541 42.5371C32.7783 42.4329 32.5618 42.3809 32.3047 42.3809C32.0768 42.3809 31.8783 42.4199 31.709 42.498C31.543 42.5762 31.4014 42.682 31.2842 42.8154C31.167 42.9456 31.071 43.0954 30.9961 43.2646C30.9245 43.4307 30.8708 43.6032 30.835 43.7822V44.959C30.887 45.1868 30.9717 45.4066 31.0889 45.6182C31.2093 45.8265 31.3688 45.9974 31.5674 46.1309C31.7692 46.2643 32.0182 46.3311 32.3145 46.3311C32.5586 46.3311 32.7669 46.2822 32.9395 46.1846C33.1152 46.0837 33.2568 45.9453 33.3643 45.7695C33.4749 45.5938 33.5563 45.3903 33.6084 45.1592C33.6605 44.9281 33.6865 44.6807 33.6865 44.417Z" fill="#1C1D1F"/>
<path d="M38.8525 46.0967V43.377C38.8525 43.1686 38.8102 42.988 38.7256 42.835C38.6442 42.6787 38.5205 42.5583 38.3545 42.4736C38.1885 42.389 37.9834 42.3467 37.7393 42.3467C37.5114 42.3467 37.3112 42.3857 37.1387 42.4639C36.9694 42.542 36.8359 42.6445 36.7383 42.7715C36.6439 42.8984 36.5967 43.0352 36.5967 43.1816H35.6934C35.6934 42.9928 35.7422 42.8057 35.8398 42.6201C35.9375 42.4346 36.0775 42.2669 36.2598 42.1172C36.4453 41.9642 36.6667 41.8438 36.9238 41.7559C37.1842 41.6647 37.474 41.6191 37.793 41.6191C38.1771 41.6191 38.5156 41.6842 38.8086 41.8145C39.1048 41.9447 39.3359 42.1416 39.502 42.4053C39.6712 42.6657 39.7559 42.9928 39.7559 43.3867V45.8477C39.7559 46.0234 39.7705 46.2106 39.7998 46.4092C39.8324 46.6077 39.8796 46.7786 39.9414 46.9219V47H38.999C38.9535 46.8958 38.9176 46.7575 38.8916 46.585C38.8656 46.4092 38.8525 46.2464 38.8525 46.0967ZM39.0088 43.7969L39.0186 44.4316H38.1055C37.8483 44.4316 37.6188 44.4528 37.417 44.4951C37.2152 44.5342 37.0459 44.5944 36.9092 44.6758C36.7725 44.7572 36.6683 44.8597 36.5967 44.9834C36.5251 45.1038 36.4893 45.2454 36.4893 45.4082C36.4893 45.5742 36.5267 45.7256 36.6016 45.8623C36.6764 45.999 36.7887 46.1081 36.9385 46.1895C37.0915 46.2676 37.2786 46.3066 37.5 46.3066C37.7767 46.3066 38.0208 46.248 38.2324 46.1309C38.444 46.0137 38.6117 45.8704 38.7354 45.7012C38.8623 45.5319 38.9307 45.3675 38.9404 45.208L39.3262 45.6426C39.3034 45.7793 39.2415 45.9307 39.1406 46.0967C39.0397 46.2627 38.9046 46.4222 38.7354 46.5752C38.5693 46.7249 38.3708 46.8503 38.1396 46.9512C37.9118 47.0488 37.6546 47.0977 37.3682 47.0977C37.0101 47.0977 36.696 47.0277 36.4258 46.8877C36.1589 46.7477 35.9505 46.5605 35.8008 46.3262C35.6543 46.0885 35.5811 45.8232 35.5811 45.5303C35.5811 45.2471 35.6364 44.998 35.7471 44.7832C35.8577 44.5651 36.0173 44.3844 36.2256 44.2412C36.4339 44.0947 36.6846 43.984 36.9775 43.9092C37.2705 43.8343 37.5977 43.7969 37.959 43.7969H39.0088Z" fill="#1C1D1F"/>
<path d="M43.3887 41.7168V42.4102H40.5322V41.7168H43.3887ZM41.499 40.4326H42.4023V45.6914C42.4023 45.8704 42.43 46.0055 42.4854 46.0967C42.5407 46.1878 42.6123 46.248 42.7002 46.2773C42.7881 46.3066 42.8825 46.3213 42.9834 46.3213C43.0583 46.3213 43.1364 46.3148 43.2178 46.3018C43.3024 46.2855 43.3659 46.2725 43.4082 46.2627L43.4131 47C43.3415 47.0228 43.2471 47.0439 43.1299 47.0635C43.016 47.0863 42.8776 47.0977 42.7148 47.0977C42.4935 47.0977 42.29 47.0537 42.1045 46.9658C41.9189 46.8779 41.7708 46.7314 41.6602 46.5264C41.5527 46.318 41.499 46.0381 41.499 45.6865V40.4326Z" fill="#1C1D1F"/>
<rect width="30" height="30" transform="translate(10 6)" fill="#009AD9"/>
<path d="M28.9834 17.9148C28.9834 21.163 27.4329 23.0643 25.0157 23.0643C22.4284 23.0643 20.9188 21.2263 20.9188 17.9148C20.9188 14.3402 22.3338 12.5022 24.9212 12.5022C27.5085 12.5022 28.9897 14.3719 28.9897 17.9148H28.9834ZM16.1538 33.4998H20.9125V24.3446C22.1195 26.1477 23.982 27.0984 26.3267 27.0984C30.6033 27.0984 33.8461 23.4573 33.8461 17.7183C33.8461 12.1409 30.6947 8.49976 26.2574 8.49976C23.878 8.49976 22.2235 9.41876 20.8085 11.4532V9.09869H16.1538V33.4998Z" fill="white"/>
</svg>
