<svg width="50" height="50" viewBox="0 0 50 50" fill="none" xmlns="http://www.w3.org/2000/svg">
<rect width="50" height="50" fill="black"/>
<path d="M9 12.3684C9 10.5081 10.5081 9 12.3684 9H37.6316C39.4919 9 41 10.5081 41 12.3684V37.6316C41 39.4919 39.4919 41 37.6316 41H12.3684C10.5081 41 9 39.4919 9 37.6316V12.3684Z" fill="white"/>
<path d="M28.8687 21.708C28.8687 25.1742 27.2368 27.2031 24.6929 27.2031C21.9699 27.2031 20.3812 25.2418 20.3812 21.708C20.3812 17.8934 21.8704 15.9321 24.5934 15.9321C27.3164 15.9321 28.8753 17.9273 28.8753 21.708H28.8687ZM15.3663 38.3389H20.3746V28.5693C21.6449 30.4935 23.605 31.508 26.0727 31.508C30.5734 31.508 33.9863 27.6225 33.9863 21.4983C33.9863 15.5466 30.6696 11.6611 25.9997 11.6611C23.4956 11.6611 21.7543 12.6417 20.2651 14.8128V12.3002H15.3663V38.3389Z" fill="black"/>
</svg>
