<svg width="50" height="50" viewBox="0 0 50 50" fill="none" xmlns="http://www.w3.org/2000/svg">
<rect width="30" height="30" transform="translate(10 6)" fill="#009AD9"/>
<path d="M28.9834 17.9148C28.9834 21.163 27.4329 23.0643 25.0157 23.0643C22.4284 23.0643 20.9188 21.2263 20.9188 17.9148C20.9188 14.3402 22.3338 12.5022 24.9212 12.5022C27.5085 12.5022 28.9897 14.3719 28.9897 17.9148H28.9834ZM16.1538 33.4998H20.9125V24.3446C22.1195 26.1477 23.982 27.0984 26.3267 27.0984C30.6033 27.0984 33.8461 23.4573 33.8461 17.7183C33.8461 12.1409 30.6947 8.49976 26.2574 8.49976C23.878 8.49976 22.2235 9.41876 20.8085 11.4532V9.09869H16.1538V33.4998Z" fill="white"/>
<path d="M19.248 38.8906V46H18.3203V38.8906H19.248ZM21.5332 38.8906V39.6621H16.04V38.8906H21.5332Z" fill="#1C1D1F"/>
<path d="M24.8291 39.5205L22.4756 46H21.5137L24.2236 38.8906H24.8438L24.8291 39.5205ZM26.8018 46L24.4434 39.5205L24.4287 38.8906H25.0488L27.7686 46H26.8018ZM26.6797 43.3682V44.1396H22.6855V43.3682H26.6797Z" fill="#1C1D1F"/>
<path d="M31.3428 43.2119H29.4434V42.4453H31.3428C31.7106 42.4453 32.0085 42.3867 32.2363 42.2695C32.4642 42.1523 32.6302 41.9896 32.7344 41.7812C32.8418 41.5729 32.8955 41.3353 32.8955 41.0684C32.8955 40.8242 32.8418 40.5947 32.7344 40.3799C32.6302 40.165 32.4642 39.9925 32.2363 39.8623C32.0085 39.7288 31.7106 39.6621 31.3428 39.6621H29.6631V46H28.7207V38.8906H31.3428C31.8799 38.8906 32.334 38.9834 32.7051 39.1689C33.0762 39.3545 33.3577 39.6117 33.5498 39.9404C33.7419 40.266 33.8379 40.6387 33.8379 41.0586C33.8379 41.5143 33.7419 41.9033 33.5498 42.2256C33.3577 42.5479 33.0762 42.7936 32.7051 42.9629C32.334 43.1289 31.8799 43.2119 31.3428 43.2119Z" fill="#1C1D1F"/>
</svg>
