<svg width="50" height="50" viewBox="0 0 50 50" fill="none" xmlns="http://www.w3.org/2000/svg">
<path d="M18.6182 46H17.1338L17.1436 45.2334H18.6182C19.126 45.2334 19.5492 45.1276 19.8877 44.916C20.2262 44.7012 20.4801 44.4017 20.6494 44.0176C20.8219 43.6302 20.9082 43.1777 20.9082 42.6602V42.2256C20.9082 41.8187 20.8594 41.4574 20.7617 41.1416C20.6641 40.8226 20.5208 40.554 20.332 40.3359C20.1432 40.1146 19.9121 39.9469 19.6387 39.833C19.3685 39.7191 19.0576 39.6621 18.7061 39.6621H17.1045V38.8906H18.7061C19.1715 38.8906 19.5964 38.9688 19.9805 39.125C20.3646 39.278 20.695 39.501 20.9717 39.7939C21.2516 40.0837 21.4665 40.4352 21.6162 40.8486C21.766 41.2588 21.8408 41.721 21.8408 42.2354V42.6602C21.8408 43.1745 21.766 43.6383 21.6162 44.0518C21.4665 44.4619 21.25 44.8118 20.9668 45.1016C20.6868 45.3913 20.3483 45.6143 19.9512 45.7705C19.5573 45.9235 19.113 46 18.6182 46ZM17.6367 38.8906V46H16.6943V38.8906H17.6367Z" fill="#1C1D1F"/>
<path d="M27.5684 45.2334V46H24.0137V45.2334H27.5684ZM24.1992 38.8906V46H23.2568V38.8906H24.1992Z" fill="#1C1D1F"/>
<path d="M31.2695 43.2119H29.3701V42.4453H31.2695C31.6374 42.4453 31.9352 42.3867 32.1631 42.2695C32.391 42.1523 32.557 41.9896 32.6611 41.7812C32.7686 41.5729 32.8223 41.3353 32.8223 41.0684C32.8223 40.8242 32.7686 40.5947 32.6611 40.3799C32.557 40.165 32.391 39.9925 32.1631 39.8623C31.9352 39.7288 31.6374 39.6621 31.2695 39.6621H29.5898V46H28.6475V38.8906H31.2695C31.8066 38.8906 32.2607 38.9834 32.6318 39.1689C33.0029 39.3545 33.2845 39.6117 33.4766 39.9404C33.6686 40.266 33.7646 40.6387 33.7646 41.0586C33.7646 41.5143 33.6686 41.9033 33.4766 42.2256C33.2845 42.5479 33.0029 42.7936 32.6318 42.9629C32.2607 43.1289 31.8066 43.2119 31.2695 43.2119Z" fill="#1C1D1F"/>
<rect width="30" height="30" transform="translate(10 6)" fill="#009AD9"/>
<path d="M28.9834 17.9148C28.9834 21.163 27.4329 23.0643 25.0157 23.0643C22.4284 23.0643 20.9188 21.2263 20.9188 17.9148C20.9188 14.3402 22.3338 12.5022 24.9212 12.5022C27.5085 12.5022 28.9897 14.3719 28.9897 17.9148H28.9834ZM16.1538 33.4998H20.9125V24.3446C22.1195 26.1477 23.982 27.0984 26.3267 27.0984C30.6033 27.0984 33.8461 23.4573 33.8461 17.7183C33.8461 12.1409 30.6947 8.49976 26.2574 8.49976C23.878 8.49976 22.2235 9.41876 20.8085 11.4532V9.09869H16.1538V33.4998Z" fill="white"/>
</svg>
