<svg width="50" height="50" viewBox="0 0 50 50" fill="none" xmlns="http://www.w3.org/2000/svg">
<rect width="50" height="50" fill="#009AD9"/>
<path d="M18.6905 45H17.3862L17.3947 44.353H18.6905C19.1367 44.353 19.5086 44.2637 19.8061 44.0852C20.1035 43.9038 20.3267 43.6511 20.4754 43.3269C20.627 43 20.7028 42.6181 20.7028 42.1813V41.8146C20.7028 41.4712 20.6599 41.1662 20.5741 40.8997C20.4883 40.6305 20.3624 40.4038 20.1965 40.2198C20.0306 40.033 19.8275 39.8915 19.5872 39.7953C19.3498 39.6992 19.0767 39.6511 18.7677 39.6511H17.3604V39H18.7677C19.1768 39 19.5501 39.0659 19.8876 39.1978C20.2251 39.3269 20.5154 39.5151 20.7586 39.7624C21.0046 40.0069 21.1934 40.3036 21.3249 40.6525C21.4565 40.9986 21.5223 41.3887 21.5223 41.8228V42.1813C21.5223 42.6154 21.4565 43.0069 21.3249 43.3558C21.1934 43.7019 21.0031 43.9973 20.7543 44.2418C20.5083 44.4863 20.2108 44.6745 19.8618 44.8063C19.5157 44.9354 19.1253 45 18.6905 45ZM17.8281 39V45H17V39H17.8281Z" fill="white"/>
<path d="M26.5552 44.353V45H23.4316V44.353H26.5552ZM23.5947 39V45H22.7666V39H23.5947Z" fill="white"/>
<path d="M29.8075 42.647H28.1384V42H29.8075C30.1307 42 30.3924 41.9505 30.5927 41.8516C30.7929 41.7527 30.9388 41.6154 31.0303 41.4396C31.1247 41.2637 31.1719 41.0632 31.1719 40.8379C31.1719 40.6319 31.1247 40.4382 31.0303 40.2569C30.9388 40.0755 30.7929 39.9299 30.5927 39.8201C30.3924 39.7074 30.1307 39.6511 29.8075 39.6511H28.3315V45H27.5034V39H29.8075C30.2795 39 30.6785 39.0783 31.0046 39.2349C31.3307 39.3915 31.5781 39.6085 31.7469 39.886C31.9156 40.1607 32 40.4753 32 40.8297C32 41.2143 31.9156 41.5426 31.7469 41.8146C31.5781 42.0865 31.3307 42.294 31.0046 42.4368C30.6785 42.5769 30.2795 42.647 29.8075 42.647Z" fill="white"/>
<rect width="26" height="26" transform="translate(12 8)" fill="white"/>
<path d="M28.452 18.3262C28.452 21.1413 27.1082 22.7891 25.0133 22.7891C22.771 22.7891 21.4627 21.1962 21.4627 18.3262C21.4627 15.2282 22.689 13.6353 24.9314 13.6353C27.1738 13.6353 28.4575 15.2557 28.4575 18.3262H28.452ZM17.333 31.8332H21.4572V23.8987C22.5033 25.4614 24.1175 26.2854 26.1495 26.2854C29.8559 26.2854 32.6663 23.1297 32.6663 18.1559C32.6663 13.3222 29.9351 10.1665 26.0895 10.1665C24.0273 10.1665 22.5934 10.963 21.3671 12.7262V10.6856H17.333V31.8332Z" fill="#009AD9"/>
</svg>
