<svg width="50" height="50" viewBox="0 0 50 50" fill="none" xmlns="http://www.w3.org/2000/svg">
<rect width="50" height="50" fill="#009AD9"/>
<rect width="28" height="28" transform="translate(11 7)" fill="white"/>
<path d="M28.7175 18.1206C28.7175 21.1522 27.2703 22.9269 25.0143 22.9269C22.5994 22.9269 21.1905 21.2114 21.1905 18.1206C21.1905 14.7843 22.5112 13.0688 24.926 13.0688C27.3409 13.0688 28.7233 14.8139 28.7233 18.1206H28.7175ZM16.7432 32.6666H21.1846V24.1218C22.3112 25.8047 24.0495 26.692 26.2379 26.692C30.2293 26.692 33.256 23.2936 33.256 17.9372C33.256 12.7317 30.3146 9.33325 26.1732 9.33325C23.9525 9.33325 22.4082 10.191 21.0876 12.0898V9.89226H16.7432V32.6666Z" fill="#009AD9"/>
<path d="M19.884 38V45H19.0499V38H19.884ZM21.9383 38V38.7596H17V38H21.9383Z" fill="white"/>
<path d="M24.9012 38.6202L22.7855 45H21.9207L24.3569 38H24.9144L24.9012 38.6202ZM26.6746 45L24.5545 38.6202L24.5413 38H25.0988L27.5438 45H26.6746ZM26.5649 42.4087V43.1683H22.9742V42.4087H26.5649Z" fill="white"/>
<path d="M30.7569 42.2548H29.0494V41.5H30.7569C31.0876 41.5 31.3554 41.4423 31.5602 41.3269C31.7651 41.2115 31.9143 41.0513 32.008 40.8462C32.1045 40.641 32.1528 40.4071 32.1528 40.1442C32.1528 39.9038 32.1045 39.6779 32.008 39.4663C31.9143 39.2548 31.7651 39.0849 31.5602 38.9567C31.3554 38.8253 31.0876 38.7596 30.7569 38.7596H29.2469V45H28.3997V38H30.7569C31.2398 38 31.648 38.0913 31.9816 38.274C32.3152 38.4567 32.5684 38.7099 32.741 39.0337C32.9137 39.3542 33 39.7212 33 40.1346C33 40.5833 32.9137 40.9663 32.741 41.2837C32.5684 41.601 32.3152 41.8429 31.9816 42.0096C31.648 42.1731 31.2398 42.2548 30.7569 42.2548Z" fill="white"/>
</svg>
