<svg width="50" height="50" viewBox="0 0 50 50" fill="none" xmlns="http://www.w3.org/2000/svg">
<rect width="50" height="50" fill="#009AD9"/>
<path d="M16.2509 39H17.0199L18.9815 43.8252L20.939 39H21.7121L19.2776 44.9187H18.6772L16.2509 39ZM16 39H16.6785L16.7896 42.6098V44.9187H16V39ZM21.2803 39H21.9589V44.9187H21.1693V42.6098L21.2803 39Z" fill="white"/>
<path d="M25.0843 45C24.7745 45 24.4935 44.9485 24.2413 44.8455C23.9918 44.7398 23.7766 44.5921 23.5956 44.4024C23.4174 44.2127 23.2803 43.9878 23.1844 43.7276C23.0884 43.4675 23.0404 43.1829 23.0404 42.874V42.7033C23.0404 42.3455 23.0939 42.0271 23.2008 41.748C23.3077 41.4661 23.4531 41.2276 23.6367 41.0325C23.8204 40.8374 24.0288 40.6897 24.2618 40.5894C24.4949 40.4892 24.7361 40.439 24.9856 40.439C25.3036 40.439 25.5778 40.4932 25.8081 40.6016C26.0411 40.71 26.2317 40.8618 26.3797 41.0569C26.5278 41.2493 26.6374 41.477 26.7087 41.7398C26.78 42 26.8156 42.2846 26.8156 42.5935V42.9309H23.4928V42.3171H26.0548V42.2602C26.0439 42.065 26.0027 41.8753 25.9315 41.6911C25.8629 41.5068 25.7533 41.355 25.6025 41.2358C25.4517 41.1165 25.2461 41.0569 24.9856 41.0569C24.8129 41.0569 24.6539 41.0935 24.5086 41.1667C24.3633 41.2371 24.2385 41.3428 24.1343 41.4837C24.0302 41.6247 23.9493 41.7967 23.8917 42C23.8341 42.2033 23.8053 42.4377 23.8053 42.7033V42.874C23.8053 43.0827 23.8341 43.2791 23.8917 43.4634C23.952 43.645 24.0384 43.8049 24.1508 43.9431C24.2659 44.0813 24.4044 44.1897 24.5661 44.2683C24.7306 44.3469 24.9171 44.3862 25.1254 44.3862C25.3941 44.3862 25.6217 44.332 25.8081 44.2236C25.9945 44.1152 26.1576 43.9702 26.2975 43.7886L26.7581 44.1504C26.6621 44.294 26.5401 44.4309 26.392 44.561C26.244 44.6911 26.0617 44.7967 25.8451 44.878C25.6313 44.9593 25.3777 45 25.0843 45Z" fill="white"/>
<path d="M29.5668 40.5203V41.0976H27.1611V40.5203H29.5668ZM27.9753 39.4512H28.7361V43.8293C28.7361 43.9783 28.7594 44.0908 28.806 44.1667C28.8526 44.2425 28.913 44.2927 28.987 44.3171C29.061 44.3415 29.1405 44.3537 29.2255 44.3537C29.2886 44.3537 29.3544 44.3482 29.4229 44.3374C29.4942 44.3238 29.5476 44.313 29.5833 44.3049L29.5874 44.9187C29.5271 44.9377 29.4476 44.9553 29.3489 44.9715C29.2529 44.9905 29.1364 45 28.9993 45C28.8129 45 28.6415 44.9634 28.4853 44.8902C28.329 44.8171 28.2042 44.6951 28.111 44.5244C28.0206 44.3509 27.9753 44.1179 27.9753 43.8252V39.4512Z" fill="white"/>
<path d="M33.0829 44.1667V41.9024C33.0829 41.729 33.0473 41.5786 32.976 41.4512C32.9075 41.3211 32.8033 41.2209 32.6635 41.1504C32.5236 41.0799 32.3509 41.0447 32.1453 41.0447C31.9534 41.0447 31.7848 41.0772 31.6395 41.1423C31.4969 41.2073 31.3845 41.2927 31.3023 41.3984C31.2228 41.5041 31.183 41.6179 31.183 41.7398H30.4222C30.4222 41.5827 30.4633 41.4268 30.5456 41.2724C30.6278 41.1179 30.7457 40.9783 30.8992 40.8537C31.0555 40.7263 31.2419 40.626 31.4585 40.5528C31.6779 40.477 31.9219 40.439 32.1905 40.439C32.5141 40.439 32.7992 40.4932 33.0459 40.6016C33.2954 40.71 33.4901 40.874 33.6299 41.0935C33.7724 41.3103 33.8437 41.5827 33.8437 41.9106V43.9593C33.8437 44.1057 33.8561 44.2615 33.8807 44.4268C33.9082 44.5921 33.9479 44.7344 34 44.8537V44.9187H33.2063C33.1679 44.832 33.1378 44.7168 33.1158 44.5732C33.0939 44.4268 33.0829 44.2913 33.0829 44.1667ZM33.2145 42.252L33.2228 42.7805H32.4537C32.2371 42.7805 32.0439 42.7981 31.8739 42.8333C31.7039 42.8659 31.5613 42.916 31.4462 42.9837C31.331 43.0515 31.2433 43.1369 31.183 43.2398C31.1227 43.3401 31.0925 43.458 31.0925 43.5935C31.0925 43.7317 31.1241 43.8577 31.1871 43.9715C31.2502 44.0854 31.3448 44.1762 31.4709 44.2439C31.5997 44.3089 31.7574 44.3415 31.9438 44.3415C32.1768 44.3415 32.3825 44.2927 32.5607 44.1951C32.7389 44.0976 32.8801 43.9783 32.9842 43.8374C33.0912 43.6965 33.1487 43.5596 33.157 43.4268L33.4818 43.7886C33.4626 43.9024 33.4106 44.0285 33.3256 44.1667C33.2406 44.3049 33.1268 44.4377 32.9842 44.565C32.8444 44.6897 32.6772 44.794 32.4825 44.878C32.2906 44.9593 32.074 45 31.8328 45C31.5312 45 31.2666 44.9417 31.0391 44.8252C30.8143 44.7087 30.6388 44.5528 30.5127 44.3577C30.3893 44.1599 30.3276 43.939 30.3276 43.6951C30.3276 43.4593 30.3742 43.252 30.4674 43.0732C30.5607 42.8916 30.695 42.7412 30.8705 42.622C31.0459 42.5 31.257 42.4079 31.5038 42.3455C31.7505 42.2832 32.026 42.252 32.3304 42.252H33.2145Z" fill="white"/>
<rect width="26" height="27" transform="translate(12 7)" fill="white"/>
<path d="M28.452 17.7235C28.452 20.6469 27.1082 22.3581 25.0133 22.3581C22.771 22.3581 21.4627 20.7039 21.4627 17.7235C21.4627 14.5064 22.689 12.8522 24.9314 12.8522C27.1738 12.8522 28.4575 14.5349 28.4575 17.7235H28.452ZM17.333 31.75H21.4572V23.5104C22.5033 25.1332 24.1175 25.9888 26.1495 25.9888C29.8559 25.9888 32.6663 22.7118 32.6663 17.5467C32.6663 12.527 29.9351 9.25 26.0895 9.25C24.0273 9.25 22.5934 10.0771 21.3671 11.9081V9.78904H17.333V31.75Z" fill="#009AD9"/>
</svg>
