<svg width="50" height="50" viewBox="0 0 50 50" fill="none" xmlns="http://www.w3.org/2000/svg">
<rect width="50" height="50" fill="#009AD9"/>
<path d="M19.1943 42.3213H17.2949V41.5547H19.1943C19.5622 41.5547 19.86 41.4961 20.0879 41.3789C20.3158 41.2617 20.4818 41.099 20.5859 40.8906C20.6934 40.6823 20.7471 40.4447 20.7471 40.1777C20.7471 39.9336 20.6934 39.7041 20.5859 39.4893C20.4818 39.2744 20.3158 39.1019 20.0879 38.9717C19.86 38.8382 19.5622 38.7715 19.1943 38.7715H17.5146V45.1094H16.5723V38H19.1943C19.7314 38 20.1855 38.0928 20.5566 38.2783C20.9277 38.4639 21.2093 38.721 21.4014 39.0498C21.5934 39.3753 21.6895 39.748 21.6895 40.168C21.6895 40.6237 21.5934 41.0127 21.4014 41.335C21.2093 41.6572 20.9277 41.903 20.5566 42.0723C20.1855 42.2383 19.7314 42.3213 19.1943 42.3213Z" fill="white"/>
<path d="M22.4365 42.5264V42.4141C22.4365 42.0332 22.4919 41.68 22.6025 41.3545C22.7132 41.0257 22.8727 40.7409 23.0811 40.5C23.2894 40.2559 23.5417 40.0671 23.8379 39.9336C24.1341 39.7969 24.4661 39.7285 24.834 39.7285C25.2051 39.7285 25.5387 39.7969 25.835 39.9336C26.1344 40.0671 26.3883 40.2559 26.5967 40.5C26.8083 40.7409 26.9694 41.0257 27.0801 41.3545C27.1908 41.68 27.2461 42.0332 27.2461 42.4141V42.5264C27.2461 42.9072 27.1908 43.2604 27.0801 43.5859C26.9694 43.9115 26.8083 44.1963 26.5967 44.4404C26.3883 44.6813 26.1361 44.8701 25.8398 45.0068C25.5469 45.1403 25.2148 45.207 24.8438 45.207C24.4727 45.207 24.139 45.1403 23.8428 45.0068C23.5465 44.8701 23.2926 44.6813 23.0811 44.4404C22.8727 44.1963 22.7132 43.9115 22.6025 43.5859C22.4919 43.2604 22.4365 42.9072 22.4365 42.5264ZM23.3398 42.4141V42.5264C23.3398 42.79 23.3708 43.0391 23.4326 43.2734C23.4945 43.5046 23.5872 43.7096 23.7109 43.8887C23.8379 44.0677 23.9958 44.2093 24.1846 44.3135C24.3734 44.4144 24.5931 44.4648 24.8438 44.4648C25.0911 44.4648 25.3076 44.4144 25.4932 44.3135C25.682 44.2093 25.8382 44.0677 25.9619 43.8887C26.0856 43.7096 26.1784 43.5046 26.2402 43.2734C26.3053 43.0391 26.3379 42.79 26.3379 42.5264V42.4141C26.3379 42.1536 26.3053 41.9079 26.2402 41.6768C26.1784 41.4424 26.084 41.2357 25.957 41.0566C25.8333 40.8743 25.6771 40.7311 25.4883 40.627C25.3027 40.5228 25.0846 40.4707 24.834 40.4707C24.5866 40.4707 24.3685 40.5228 24.1797 40.627C23.9941 40.7311 23.8379 40.8743 23.7109 41.0566C23.5872 41.2357 23.4945 41.4424 23.4326 41.6768C23.3708 41.9079 23.3398 42.1536 23.3398 42.4141Z" fill="white"/>
<path d="M30.4395 45.1094H28.9551L28.9648 44.3428H30.4395C30.9473 44.3428 31.3704 44.237 31.709 44.0254C32.0475 43.8105 32.3014 43.5111 32.4707 43.127C32.6432 42.7396 32.7295 42.2871 32.7295 41.7695V41.335C32.7295 40.9281 32.6807 40.5667 32.583 40.251C32.4854 39.932 32.3421 39.6634 32.1533 39.4453C31.9645 39.224 31.7334 39.0563 31.46 38.9424C31.1898 38.8285 30.8789 38.7715 30.5273 38.7715H28.9258V38H30.5273C30.9928 38 31.4176 38.0781 31.8018 38.2344C32.1859 38.3874 32.5163 38.6104 32.793 38.9033C33.0729 39.193 33.2878 39.5446 33.4375 39.958C33.5872 40.3682 33.6621 40.8304 33.6621 41.3447V41.7695C33.6621 42.2839 33.5872 42.7477 33.4375 43.1611C33.2878 43.5713 33.0713 43.9212 32.7881 44.2109C32.5081 44.5007 32.1696 44.7236 31.7725 44.8799C31.3786 45.0329 30.9342 45.1094 30.4395 45.1094ZM29.458 38V45.1094H28.5156V38H29.458Z" fill="white"/>
<rect width="30" height="30" transform="translate(10 6)" fill="white"/>
<path d="M28.9839 17.9148C28.9839 21.163 27.4334 23.0643 25.0162 23.0643C22.4289 23.0643 20.9193 21.2263 20.9193 17.9148C20.9193 14.3402 22.3343 12.5022 24.9217 12.5022C27.509 12.5022 28.9902 14.3719 28.9902 17.9148H28.9839ZM16.1543 33.4998H20.913V24.3446C22.12 26.1477 23.9825 27.0984 26.3272 27.0984C30.6038 27.0984 33.8466 23.4573 33.8466 17.7183C33.8466 12.1409 30.6951 8.49976 26.2579 8.49976C23.8785 8.49976 22.224 9.41876 20.809 11.4532V9.09869H16.1543V33.4998Z" fill="#009AD9"/>
</svg>
