<svg width="50" height="50" viewBox="0 0 50 50" fill="none" xmlns="http://www.w3.org/2000/svg">
<rect width="50" height="50" fill="#0A0A44"/>
<path d="M32.5459 11.3809H40.7143L33.8995 20.7766C32.0792 23.2916 32.0792 26.8031 33.8995 29.3181L40.7143 38.619H32.9193L28.4384 32.0704C25.4978 27.7522 25.4511 22.1053 28.345 17.7396C29.7592 15.631 31.1828 13.5225 32.5459 11.3809Z" fill="#26DB8E"/>
<path d="M18.5018 11.3809H10.3334L17.1482 20.7766C18.9685 23.2916 18.9685 26.8031 17.1482 29.3181L10.3334 38.619H18.1284L22.6093 32.0704C25.5499 27.7522 25.5966 22.1053 22.7027 17.7396C21.2885 15.631 19.8649 13.5225 18.5018 11.3809Z" fill="white"/>
</svg>
