<svg width="50" height="50" viewBox="0 0 50 50" fill="none" xmlns="http://www.w3.org/2000/svg">
<path fill-rule="evenodd" clip-rule="evenodd" d="M11.5926 13.6083C10.9225 13.6706 10.1818 13.8924 9.61671 14.2001C9.07986 14.4924 8.30115 15.1245 8.3431 15.234C8.35402 15.2626 10.2484 17.4739 12.5527 20.148L16.7424 25.0098L12.5379 29.8912C10.2254 32.5759 8.33337 34.7933 8.33337 34.8185C8.33337 34.8439 8.46254 34.9815 8.62041 35.1245C10.5565 36.8783 13.3012 36.9025 15.284 35.1831C15.5302 34.9697 24.0152 25.1546 24.0599 25.0316C24.0752 24.9894 16.5786 16.2451 15.7268 15.3116C14.6437 14.1247 13.0592 13.4718 11.5926 13.6083ZM37.6482 13.6073C36.3185 13.7425 35.1809 14.317 34.2733 15.3116C33.4215 16.2451 25.9249 24.9894 25.9402 25.0316C25.9849 25.1546 34.4699 34.9697 34.7161 35.1831C36.6988 36.9025 39.4436 36.8783 41.3797 35.1245C41.5375 34.9815 41.6667 34.8439 41.6667 34.8185C41.6667 34.7933 39.7747 32.5759 37.4622 29.8912L33.2577 25.0098L37.4474 20.148C39.7517 17.4739 41.6461 15.2626 41.657 15.234C41.6989 15.1245 40.9202 14.4924 40.3834 14.2001C39.598 13.7726 38.4563 13.5251 37.6482 13.6073Z" fill="#E47304"/>
<path fill-rule="evenodd" clip-rule="evenodd" d="M16.7964 9.75098C15.7664 9.87169 14.687 10.3896 14.0852 11.0518L13.9353 11.2167L19.4445 17.6143C22.4745 21.133 24.9745 24.012 25.0001 24.012C25.0256 24.012 27.5256 21.133 30.5556 17.6143L36.0648 11.2167L35.9149 11.0518C34.5952 9.59964 32.0548 9.31224 30.3287 10.4199C29.6621 10.8476 29.5974 10.9161 27.0015 13.9362C25.9194 15.1951 25.0189 16.2252 25.0004 16.2252C24.9819 16.2252 24.0073 15.1159 22.8347 13.7601C21.662 12.4042 20.5903 11.1839 20.4532 11.0483C19.4676 10.0736 18.1207 9.59573 16.7964 9.75098ZM19.4541 32.394L13.9354 38.8029L14.0852 38.9677C15.4049 40.4199 17.9453 40.7073 19.6714 39.5997C20.338 39.172 20.4027 39.1035 22.9986 36.0834C24.0807 34.8244 24.9813 33.7943 24.9999 33.7943C25.0185 33.7943 25.9932 34.9036 27.1659 36.2595C29.724 39.2172 29.8926 39.3889 30.6197 39.7762C32.3251 40.685 34.6813 40.3252 35.9149 38.9677L36.0648 38.8029L30.5577 32.4076C27.5289 28.8902 25.0332 26.0062 25.0118 25.9987C24.9904 25.9911 22.4895 28.869 19.4541 32.394Z" fill="#040404"/>
</svg>
