<svg width="50" height="50" viewBox="0 0 50 50" fill="none" xmlns="http://www.w3.org/2000/svg">
<path fill-rule="evenodd" clip-rule="evenodd" d="M15.1254 26.6748C16.2996 25.9968 16.3016 23.802 15.1298 21.7724C13.958 19.7428 12.0562 18.6471 10.8819 19.3251C9.70773 20.003 9.70577 22.1979 10.8776 24.2275C12.0494 26.2571 13.9512 27.3527 15.1254 26.6748ZM15.1325 31.0206C16.3043 33.0502 16.3023 35.2451 15.1281 35.923C13.9539 36.601 12.052 35.5053 10.8802 33.4757C9.70844 31.4461 9.71039 29.2513 10.8846 28.5733C12.0588 27.8954 13.9606 28.9911 15.1325 31.0206ZM23.1343 35.6469C24.3062 37.6765 24.3042 39.8712 23.13 40.5494C21.9558 41.2273 20.0539 40.1315 18.8821 38.102C17.7104 36.0724 17.7123 33.8775 18.8865 33.1996C20.0607 32.5216 21.9625 33.6173 23.1343 35.6469ZM23.1317 26.3988C24.3035 28.4284 24.3016 30.6233 23.1274 31.3012C21.9532 31.9792 20.0514 30.8835 18.8796 28.8539C17.7077 26.8243 17.7097 24.6294 18.8839 23.9515C20.0581 23.2735 21.96 24.3692 23.1317 26.3988Z" fill="#F26E7E"/>
<path fill-rule="evenodd" clip-rule="evenodd" d="M39.1394 24.2324C40.3111 22.2029 40.3093 20.008 39.1351 19.33C37.9608 18.6521 36.059 19.7478 34.8872 21.7774C33.7154 23.8069 33.7174 26.0018 34.8916 26.6798C36.0658 27.3577 37.9676 26.262 39.1394 24.2324ZM39.1397 28.5761C40.3138 29.254 40.3159 31.4489 39.144 33.4785C37.9722 35.508 36.0704 36.6037 34.8962 35.9258C33.722 35.2478 33.72 33.0529 34.8918 31.0234C36.0636 28.9938 37.9654 27.8981 39.1397 28.5761ZM31.1393 33.1948C32.3136 33.8727 32.3155 36.0676 31.1437 38.0972C29.9719 40.1266 28.0701 41.2224 26.8959 40.5445C25.7217 39.8666 25.7197 37.6716 26.8915 35.6421C28.0633 33.6125 29.9651 32.5168 31.1393 33.1948ZM31.1348 23.9487C32.3091 24.6266 32.311 26.8215 31.1392 28.8511C29.9674 30.8807 28.0656 31.9764 26.8913 31.2984C25.7171 30.6205 25.7152 28.4256 26.887 26.396C28.0588 24.3664 29.9606 23.2707 31.1348 23.9487Z" fill="#8A3391"/>
<path fill-rule="evenodd" clip-rule="evenodd" d="M29.2506 11.4551C29.2506 12.811 27.3508 13.9102 25.0071 13.9102C22.6635 13.9102 20.7637 12.811 20.7637 11.4551C20.7637 10.0992 22.6635 9 25.0071 9C27.3508 9 29.2506 10.0992 29.2506 11.4551ZM21.2504 16.069C21.2504 17.4249 19.3505 18.5241 17.0069 18.5241C14.6633 18.5241 12.7634 17.4249 12.7634 16.069C12.7634 14.7131 14.6633 13.6139 17.0069 13.6139C19.3505 13.6139 21.2504 14.7131 21.2504 16.069ZM33.0178 18.5241C35.3615 18.5241 37.2613 17.4249 37.2613 16.069C37.2613 14.7131 35.3615 13.6139 33.0178 13.6139C30.6742 13.6139 28.7744 14.7131 28.7744 16.069C28.7744 17.4249 30.6742 18.5241 33.0178 18.5241ZM29.2506 20.6933C29.2506 22.0492 27.3508 23.1484 25.0071 23.1484C22.6635 23.1484 20.7637 22.0492 20.7637 20.6933C20.7637 19.3374 22.6635 18.2383 25.0071 18.2383C27.3508 18.2383 29.2506 19.3374 29.2506 20.6933Z" fill="#F7BF2A"/>
</svg>
