<svg width="50" height="50" viewBox="0 0 50 50" fill="none" xmlns="http://www.w3.org/2000/svg">
<path d="M24.7848 31.7358H15.487V41.446H24.7848V31.7358ZM21.7046 38.2203H18.6047V34.9719H21.7026L21.7046 38.2203Z" fill="#FFB600"/>
<path d="M24.994 41.6666H15.2778V31.5153H24.994V41.6666ZM15.6981 41.2276H24.5777V31.9523H15.6981V41.2276ZM21.9158 38.4264H18.3955V34.7534H21.9158V38.4264ZM18.8158 37.9874H21.4955V35.1924H18.8158V37.9874Z" fill="#FFB600"/>
<path d="M26.6042 20.1438H35.902V29.854H26.6042V20.1438Z" fill="#FFB600"/>
<path d="M36.1111 30.0745H26.395V19.9232H36.1111V30.0745ZM26.8153 29.6355H35.6948V20.3602H26.8153V29.6355Z" fill="#FFB600"/>
<path d="M20.8601 16.4131L23.0306 14.1458L28.6307 19.9954L26.4601 22.2627L20.8601 16.4131Z" fill="#FFB600"/>
<path d="M26.4621 22.576L20.5621 16.4131L23.0247 13.8428L28.9227 20.0036L26.4621 22.576ZM21.158 16.4131L26.4621 21.9535L28.3287 20.0036L23.0247 14.4632L21.158 16.4131Z" fill="#FFB600"/>
<path d="M22.7485 31.6039L26.4976 27.7083L28.6484 29.955L24.8993 33.8712L22.7485 31.6039Z" fill="#FFB600"/>
<path d="M24.9013 34.1598L22.4545 31.6039L26.4976 27.3888L28.9464 29.9447L24.9013 34.1598ZM23.0484 31.6039L24.9013 33.5394L28.3426 29.9447L26.4976 28.0092L23.0484 31.6039Z" fill="#FFB600"/>
<path d="M24.7848 8.54968H15.487V18.2619H24.7848V8.54968ZM21.7046 15.0238H18.6047V11.7878H21.7026L21.7046 15.0238Z" fill="#FFB600"/>
<path d="M24.994 18.4804H15.2778V8.33325H24.994V18.4804ZM15.6981 18.0414H24.5777V8.7661H15.6981V18.0414ZM21.9158 15.2444H18.3955V11.5672H21.9158V15.2444ZM18.8158 14.8053H21.4955V12.0063H18.8158V14.8053Z" fill="#FFB600"/>
</svg>
