<svg width="50" height="50" viewBox="0 0 50 50" fill="none" xmlns="http://www.w3.org/2000/svg">
<path d="M26.1701 41.6666H18.8029C17.2808 41.6666 15.8629 40.7586 15.0994 39.2981L8.90227 27.3684C8.14374 25.9079 8.14374 24.0865 8.90227 22.6315L15.0994 10.7072C15.8679 9.24125 17.2808 8.33325 18.8029 8.33325H31.1972C32.7242 8.33325 34.1421 9.24125 34.9006 10.7072L41.0978 22.6315C41.8563 24.0919 41.8563 25.9134 41.0978 27.3738L39.4965 30.2127C38.7528 31.6458 37.3349 32.5538 35.8129 32.5538H28.4258L32.4664 24.9945L28.7332 17.8289H21.2718L17.5337 24.9945L26.1701 41.6666Z" fill="#FE5000"/>
</svg>
