<svg width="50" height="50" viewBox="0 0 50 50" fill="none" xmlns="http://www.w3.org/2000/svg">
<path fill-rule="evenodd" clip-rule="evenodd" d="M24.9992 35C24.9992 35 13.5283 29.262 13.0964 19.709C12.8084 13.3844 13.2576 10.2436 13.2576 10.2436C13.2576 10.2436 17.1932 6 24.9992 6" fill="#ED2E26"/>
<path fill-rule="evenodd" clip-rule="evenodd" d="M24.9992 6C32.8128 6 36.7407 10.2436 36.7407 10.2436C36.7407 10.2436 37.1919 13.3844 36.9039 19.7089C36.472 29.2561 25.0011 35 25.0011 35" fill="#ED2E26"/>
<path fill-rule="evenodd" clip-rule="evenodd" d="M19.1341 18.5595C19.1341 15.181 21.7662 12.4318 24.9991 12.4318C26.5555 12.4339 28.0476 13.0623 29.1481 14.1792C30.2487 15.2961 30.8679 16.8104 30.8699 18.39C30.8699 21.0125 28.6487 23.1714 26.9362 24.28C27.6005 24.6697 29.0672 25.0594 30.4706 25.1977C31.4967 24.3945 32.3277 23.3632 32.8995 22.183C33.4713 21.0028 33.7687 19.7052 33.7688 18.39C33.7688 16.0295 32.8449 13.7657 31.2002 12.0965C29.5556 10.4274 27.325 9.48971 24.9991 9.48971C22.6733 9.48971 20.4426 10.4274 18.798 12.0965C17.1534 13.7657 16.2294 16.0295 16.2294 18.39C16.2294 21.3535 17.4466 23.9878 19.7465 26.0043C21.8986 27.8904 25.0433 29.151 28.6256 29.7472C29.3936 29.3108 30.7374 28.0268 31.227 27.2747C28.2359 26.885 25.4042 26.1427 23.5055 25.1315C20.6047 23.5864 19.1341 21.3749 19.1341 18.5576" fill="white"/>
<path d="M21.2746 42.6297H19.6269V42H21.2746C21.5937 42 21.8521 41.9519 22.0498 41.8556C22.2474 41.7594 22.3915 41.6257 22.4818 41.4545C22.575 41.2834 22.6216 41.0882 22.6216 40.869C22.6216 40.6684 22.575 40.4799 22.4818 40.3035C22.3915 40.127 22.2474 39.9853 22.0498 39.8783C21.8521 39.7687 21.5937 39.7139 21.2746 39.7139H19.8175V44.9198H19V39.0802H21.2746C21.7406 39.0802 22.1345 39.1564 22.4564 39.3088C22.7783 39.4612 23.0226 39.6725 23.1892 39.9425C23.3558 40.2099 23.4391 40.516 23.4391 40.861C23.4391 41.2353 23.3558 41.5548 23.1892 41.8195C23.0226 42.0842 22.7783 42.2861 22.4564 42.4251C22.1345 42.5615 21.7406 42.6297 21.2746 42.6297Z" fill="black"/>
<path d="M28.1959 43.0628H29.0092C28.9668 43.4318 28.8553 43.762 28.6746 44.0535C28.4938 44.3449 28.2383 44.5762 27.9079 44.7473C27.5775 44.9158 27.1652 45 26.671 45C26.3096 45 25.9806 44.9358 25.6841 44.8075C25.3904 44.6791 25.1377 44.4973 24.9259 44.262C24.7141 44.0241 24.5503 43.7393 24.4345 43.4078C24.3216 43.0735 24.2651 42.7019 24.2651 42.2928V41.7112C24.2651 41.3021 24.3216 40.9318 24.4345 40.6003C24.5503 40.266 24.7155 39.9799 24.9301 39.742C25.1475 39.504 25.4088 39.3209 25.7137 39.1925C26.0187 39.0642 26.3618 39 26.743 39C27.209 39 27.6029 39.0829 27.9248 39.2487C28.2467 39.4144 28.4966 39.6444 28.6746 39.9385C28.8553 40.2299 28.9668 40.5682 29.0092 40.9532H28.1959C28.1564 40.6805 28.083 40.4465 27.9756 40.2513C27.8683 40.0535 27.7158 39.9011 27.5182 39.7941C27.3205 39.6872 27.0621 39.6337 26.743 39.6337C26.4691 39.6337 26.2277 39.6832 26.0187 39.7821C25.8126 39.881 25.6389 40.0214 25.4977 40.2032C25.3593 40.385 25.2549 40.6029 25.1843 40.857C25.1137 41.111 25.0784 41.393 25.0784 41.7032V42.2928C25.0784 42.5789 25.1094 42.8476 25.1715 43.0989C25.2365 43.3503 25.3339 43.5709 25.4638 43.7607C25.5937 43.9505 25.7589 44.1003 25.9594 44.2099C26.1599 44.3168 26.3971 44.3703 26.671 44.3703C27.0184 44.3703 27.2951 44.3182 27.5012 44.2139C27.7074 44.1096 27.8627 43.9599 27.9672 43.7647C28.0745 43.5695 28.1507 43.3356 28.1959 43.0628Z" fill="black"/>
<path d="M31 39.0802V44.9198H30.1825V39.0802H31Z" fill="black"/>
</svg>
