<svg width="50" height="50" viewBox="0 0 50 50" fill="none" xmlns="http://www.w3.org/2000/svg">
<path fill-rule="evenodd" clip-rule="evenodd" d="M24.9992 32C24.9992 32 13.5283 26.262 13.0964 16.709C12.8084 10.3844 13.2576 7.24362 13.2576 7.24362C13.2576 7.24362 17.1932 3 24.9992 3" fill="#ED2E26"/>
<path fill-rule="evenodd" clip-rule="evenodd" d="M24.9992 3C32.8128 3 36.7407 7.2436 36.7407 7.2436C36.7407 7.2436 37.1919 10.3844 36.9039 16.7089C36.472 26.2561 25.0011 32 25.0011 32" fill="#ED2E26"/>
<path fill-rule="evenodd" clip-rule="evenodd" d="M19.1341 15.5595C19.1341 12.181 21.7662 9.43179 24.9991 9.43179C26.5555 9.43385 28.0476 10.0623 29.1481 11.1792C30.2487 12.2961 30.8679 13.8104 30.8699 15.39C30.8699 18.0125 28.6487 20.1714 26.9362 21.28C27.6005 21.6697 29.0672 22.0594 30.4706 22.1977C31.4967 21.3945 32.3277 20.3632 32.8995 19.183C33.4713 18.0028 33.7687 16.7052 33.7688 15.39C33.7688 13.0295 32.8449 10.7657 31.2002 9.09654C29.5556 7.42741 27.325 6.48971 24.9991 6.48971C22.6733 6.48971 20.4426 7.42741 18.798 9.09654C17.1534 10.7657 16.2294 13.0295 16.2294 15.39C16.2294 18.3535 17.4466 20.9878 19.7465 23.0043C21.8986 24.8904 25.0433 26.151 28.6256 26.7472C29.3936 26.3108 30.7374 25.0268 31.227 24.2747C28.2359 23.885 25.4042 23.1427 23.5055 22.1315C20.6047 20.5864 19.1341 18.3749 19.1341 15.5576" fill="white"/>
<path fill-rule="evenodd" clip-rule="evenodd" d="M25.9014 42.6953C27.3061 42.6953 27.6396 43.9254 27.6396 45.0898H24.7822C24.8018 45.8661 25.2706 46.4882 26.0342 46.4883C26.5445 46.4883 26.8819 46.2629 27.1475 45.9141L27.585 46.2617C27.3126 46.6742 26.837 47.0781 25.9951 47.0781C24.8272 47.078 24.0537 46.2283 24.0537 45.0352C24.0537 43.925 24.612 42.6955 25.9014 42.6953ZM25.9014 43.2891C25.333 43.2892 24.9012 43.7171 24.8027 44.5H26.917C26.917 43.8708 26.5707 43.2891 25.9014 43.2891Z" fill="black"/>
<path d="M19.9941 46.001L21.623 41.3125H22.4395L20.334 47H19.666L17.5645 41.3125H18.3809L19.9941 46.001Z" fill="black"/>
<path d="M23.4814 47H22.7549V42.7734H23.4814V47Z" fill="black"/>
<path d="M29.2539 45.9277L30.2402 42.7734H30.8223L31.8232 45.9941L32.6387 42.7734H33.3574L32.1309 47H31.5449L30.5176 43.7998L29.5176 47H28.9277L27.7012 42.7734H28.4238L29.2539 45.9277Z" fill="black"/>
<path d="M23.126 41.2344C23.4041 41.2345 23.5557 41.4199 23.5557 41.6523C23.5557 41.8725 23.4066 42.0585 23.126 42.0586C22.8445 42.0586 22.7002 41.8761 22.7002 41.6523C22.7002 41.4161 22.847 41.2344 23.126 41.2344Z" fill="black"/>
<path d="M10.8828 34.2344C12.1706 34.2344 12.8552 35.0096 12.9727 36.1367H12.2227C12.1125 35.3341 11.7625 34.8516 10.8828 34.8516C9.5057 34.8516 9.34766 36.3562 9.34766 37.4414C9.34766 38.3671 9.75174 39.4648 10.8164 39.4648C11.7791 39.4648 12.0981 38.9853 12.2227 38.1914H12.9727C12.8556 39.2682 12.1869 40.0781 10.8164 40.0781C9.48494 40.0781 8.59766 39.0272 8.59766 37.4414C8.59766 35.9244 9.02555 34.2344 10.8828 34.2344Z" fill="black"/>
<path fill-rule="evenodd" clip-rule="evenodd" d="M15.1504 35.6953C16.3589 35.6953 16.8887 36.5673 16.8887 37.7656V38.0898H14.0312C14.0508 38.8659 14.5199 39.4881 15.2832 39.4883C15.7934 39.4883 16.1309 39.2628 16.3965 38.9141L16.834 39.2617C16.5616 39.6741 16.0858 40.0781 15.2441 40.0781C14.0765 40.078 13.3027 39.2281 13.3027 38.0352C13.3027 36.9215 13.8707 35.6956 15.1504 35.6953ZM15.1504 36.2891C14.5823 36.2893 14.1502 36.7174 14.0518 37.5H16.166C16.166 36.8708 15.8197 36.2891 15.1504 36.2891Z" fill="black"/>
<path d="M20.8193 35.7734H21.6084V36.3281H20.8193V38.9531C20.8193 39.2394 20.9171 39.3749 21.0576 39.4219C21.2416 39.4832 21.4393 39.4528 21.624 39.4102L21.6279 40C21.2949 40.1059 20.9012 40.1243 20.5811 39.9727C20.2834 39.8316 20.0967 39.5099 20.0967 38.9492V36.3281H19.373L19.3721 36.4219C19.255 36.3964 19.1589 36.3906 19.0205 36.3906C18.6873 36.3906 18.4319 36.5001 18.2549 36.6875C18.1725 36.7748 18.1065 36.8782 18.0557 36.9971V40H17.333V35.7734H18.0361L18.0498 36.2588C18.0516 36.2558 18.0538 36.253 18.0557 36.25C18.1624 36.0756 18.2979 35.9401 18.4619 35.8438C18.6286 35.7449 18.8266 35.6953 19.0557 35.6953C19.1594 35.6953 19.3238 35.7239 19.376 35.75L20.0967 35.7734V34.7461H20.8193V35.7734Z" fill="black"/>
<path d="M29.3301 35.6953C30.3181 35.6953 30.9745 36.3486 31.0137 37.2266H30.3262C30.2874 36.7071 29.9117 36.2891 29.3301 36.2891C28.4098 36.2893 28.1738 37.2198 28.1738 37.9688C28.1738 38.712 28.442 39.4842 29.3301 39.4844C29.8478 39.4844 30.2875 39.1362 30.3262 38.6641H31.0137C30.97 39.502 30.1191 40.0781 29.3301 40.0781C28.0704 40.0779 27.4512 39.1045 27.4512 37.9688C27.4512 36.829 28.0506 35.6955 29.3301 35.6953Z" fill="black"/>
<path fill-rule="evenodd" clip-rule="evenodd" d="M33.0713 35.6953C33.9976 35.6954 34.6416 36.1651 34.6416 37.1094V39.0781C34.6416 39.2188 34.6533 39.3685 34.6768 39.5273C34.7026 39.6848 34.79 39.8435 34.79 40H34.0361C33.9742 39.8584 33.9534 39.7031 33.9365 39.5508C33.6696 39.8312 33.2632 40.0781 32.7314 40.0781C31.8766 40.0781 31.3018 39.5278 31.3018 38.8242C31.3018 37.9066 32.0557 37.4375 33.2041 37.4375H33.9189C33.9189 36.8019 33.7323 36.2774 33.0283 36.2773C32.4895 36.2773 32.1143 36.589 32.1143 36.9453H31.3916C31.3916 36.333 32.0717 35.6953 33.0713 35.6953ZM33.3213 37.9453C32.5046 37.9453 32.0283 38.1976 32.0283 38.7266C32.0283 39.126 32.3086 39.4453 32.8369 39.4453C33.2793 39.4453 33.719 39.2092 33.9189 38.8076V37.9453H33.3213Z" fill="black"/>
<path d="M36.3584 35.7734H37.1475V36.3281H36.3584V38.9531C36.3584 39.0963 36.3806 39.2044 36.4248 39.2773C36.5744 39.5238 36.9268 39.4647 37.1631 39.4102L37.167 40C36.6832 40.1538 36.0433 40.1374 35.7646 39.6211C35.6787 39.4544 35.6357 39.2304 35.6357 38.9492V36.3281H34.8623V35.7734H35.6357V34.7461H36.3584V35.7734Z" fill="black"/>
<path fill-rule="evenodd" clip-rule="evenodd" d="M39.2559 35.6953C40.5881 35.6955 40.9941 36.9212 40.9941 38.0898H38.1367C38.1563 38.866 38.6251 39.4883 39.3887 39.4883C39.8987 39.4882 40.2365 39.2628 40.502 38.9141L40.9395 39.2617C40.6671 39.6741 40.1912 40.078 39.3496 40.0781C38.1217 40.0781 37.4082 39.0509 37.4082 37.8711C37.4082 36.4878 38.3101 35.6953 39.2559 35.6953ZM39.2559 36.2891C38.6875 36.2891 38.2557 36.7173 38.1572 37.5H40.2715C40.2715 36.8707 39.9251 36.2892 39.2559 36.2891Z" fill="black"/>
<path d="M22.8418 40H22.1152V35.7734H22.8418V40Z" fill="black"/>
<path d="M26.4961 34.1563L26.375 34.7656C25.9063 34.5822 25.1701 34.3693 24.7695 34.7773C24.6341 34.9154 24.5664 35.125 24.5664 35.4063V35.7734H25.4297V36.3281H24.5664V40H23.8438V36.3281H23.1758V35.7734H23.8438V35.4063C23.8438 35.0859 23.9062 34.8151 24.0312 34.5938C24.1562 34.3724 24.3346 34.2044 24.5664 34.0898C25.1816 33.7857 25.8818 33.9375 26.4961 34.1563Z" fill="black"/>
<path d="M26.8516 40H26.1289V35.7734H26.8516V40Z" fill="black"/>
<path d="M22.4863 34.2344C22.7642 34.2345 22.916 34.42 22.916 34.6523C22.916 34.8724 22.7667 35.0584 22.4863 35.0586C22.2049 35.0586 22.0605 34.876 22.0605 34.6523C22.0605 34.4162 22.2074 34.2344 22.4863 34.2344Z" fill="black"/>
</svg>
