<svg width="50" height="50" viewBox="0 0 50 50" fill="none" xmlns="http://www.w3.org/2000/svg">
<path d="M18.1577 43.5527L19.4277 39.0879H20.043L19.687 40.8237L18.3203 45.4863H17.7095L18.1577 43.5527ZM16.8438 39.0879L17.8545 43.4648L18.1577 45.4863H17.5513L16 39.0879H16.8438ZM21.6865 43.4604L22.6753 39.0879H23.5234L21.9766 45.4863H21.3701L21.6865 43.4604ZM20.1353 39.0879L21.3701 43.5527L21.8184 45.4863H21.2075L19.8892 40.8237L19.5288 39.0879H20.1353Z" fill="black"/>
<path d="M26.6392 39.6548L24.521 45.4863H23.6553L26.0942 39.0879H26.6523L26.6392 39.6548ZM28.4146 45.4863L26.292 39.6548L26.2788 39.0879H26.8369L29.2847 45.4863H28.4146ZM28.3047 43.1177V43.812H24.71V43.1177H28.3047Z" fill="black"/>
<path d="M33.5518 43.8691C33.5518 43.7197 33.5283 43.5879 33.4814 43.4736C33.4375 43.3564 33.3584 43.251 33.2441 43.1572C33.1328 43.0635 32.9775 42.9741 32.7783 42.8892C32.582 42.8042 32.333 42.7178 32.0312 42.6299C31.7148 42.5361 31.4292 42.4321 31.1743 42.3179C30.9194 42.2007 30.7012 42.0674 30.5195 41.918C30.3379 41.7686 30.1987 41.5972 30.1021 41.4038C30.0054 41.2104 29.957 40.9893 29.957 40.7402C29.957 40.4912 30.0083 40.2612 30.1108 40.0503C30.2134 39.8394 30.3599 39.6562 30.5503 39.501C30.7437 39.3428 30.9736 39.2197 31.2402 39.1318C31.5068 39.0439 31.8042 39 32.1323 39C32.6128 39 33.02 39.0923 33.354 39.2769C33.6909 39.4585 33.9473 39.6973 34.123 39.9932C34.2988 40.2861 34.3867 40.5996 34.3867 40.9336H33.543C33.543 40.6934 33.4917 40.481 33.3892 40.2964C33.2866 40.1089 33.1313 39.9624 32.9233 39.8569C32.7153 39.7485 32.4517 39.6943 32.1323 39.6943C31.8306 39.6943 31.5815 39.7397 31.3853 39.8306C31.189 39.9214 31.0425 40.0444 30.9458 40.1997C30.8521 40.355 30.8052 40.5322 30.8052 40.7314C30.8052 40.8662 30.833 40.9893 30.8887 41.1006C30.9473 41.209 31.0366 41.3101 31.1567 41.4038C31.2798 41.4976 31.4351 41.584 31.6226 41.6631C31.813 41.7422 32.04 41.8184 32.3037 41.8916C32.667 41.9941 32.9805 42.1084 33.2441 42.2344C33.5078 42.3604 33.7246 42.5024 33.8945 42.6606C34.0674 42.8159 34.1948 42.9932 34.2769 43.1924C34.3618 43.3887 34.4043 43.6113 34.4043 43.8604C34.4043 44.1211 34.3516 44.3569 34.2461 44.5679C34.1406 44.7788 33.9897 44.959 33.7935 45.1084C33.5972 45.2578 33.3613 45.3735 33.0859 45.4556C32.8135 45.5347 32.5088 45.5742 32.1719 45.5742C31.876 45.5742 31.5845 45.5332 31.2974 45.4512C31.0132 45.3691 30.7539 45.2461 30.5195 45.082C30.2881 44.918 30.1021 44.7158 29.9614 44.4756C29.8237 44.2324 29.7549 43.9512 29.7549 43.6318H30.5986C30.5986 43.8516 30.6411 44.0405 30.7261 44.1987C30.811 44.354 30.9268 44.4829 31.0732 44.5854C31.2227 44.688 31.3911 44.7642 31.5786 44.814C31.769 44.8608 31.9668 44.8843 32.1719 44.8843C32.4678 44.8843 32.7183 44.8433 32.9233 44.7612C33.1284 44.6792 33.2837 44.562 33.3892 44.4097C33.4976 44.2573 33.5518 44.0771 33.5518 43.8691Z" fill="black"/>
<path fill-rule="evenodd" clip-rule="evenodd" d="M24.9992 35C24.9992 35 13.5283 29.262 13.0964 19.709C12.8084 13.3844 13.2576 10.2436 13.2576 10.2436C13.2576 10.2436 17.1932 6 24.9992 6" fill="#ED2E26"/>
<path fill-rule="evenodd" clip-rule="evenodd" d="M24.9992 6C32.8128 6 36.7407 10.2436 36.7407 10.2436C36.7407 10.2436 37.1919 13.3844 36.9039 19.7089C36.472 29.2561 25.0011 35 25.0011 35" fill="#ED2E26"/>
<path fill-rule="evenodd" clip-rule="evenodd" d="M19.1341 18.5595C19.1341 15.181 21.7662 12.4318 24.9991 12.4318C28.2317 12.4361 30.8658 15.1835 30.8699 18.39C30.8699 21.0125 28.6487 23.1714 26.9362 24.28C27.6005 24.6697 29.0672 25.0594 30.4706 25.1977C32.5451 23.574 33.7685 21.0208 33.7688 18.39C33.7688 13.5978 29.8305 9.48971 24.9991 9.48971C20.1678 9.48971 16.2294 13.5978 16.2294 18.39C16.2294 25.2407 22.6403 28.7511 28.6256 29.7472C29.3936 29.3108 30.7374 28.0268 31.227 27.2747C26.276 26.6297 19.1341 24.7708 19.1341 18.5576" fill="white"/>
</svg>
