<svg width="50" height="50" viewBox="0 0 50 50" fill="none" xmlns="http://www.w3.org/2000/svg">
<rect width="50" height="50" fill="#ED2E26"/>
<path fill-rule="evenodd" clip-rule="evenodd" d="M24.9935 31C24.9935 31 15.4344 26.0534 15.0744 17.8181C14.8345 12.3659 15.2088 9.65829 15.2088 9.65829C15.2088 9.65829 18.4885 6 24.9935 6" fill="white"/>
<path fill-rule="evenodd" clip-rule="evenodd" d="M24.9935 6C31.5048 6 34.7781 9.65828 34.7781 9.65828C34.7781 9.65828 35.1541 12.3659 34.9141 17.818C34.5541 26.0484 24.9951 31 24.9951 31" fill="white"/>
<path fill-rule="evenodd" clip-rule="evenodd" d="M20.1059 16.8272C20.1059 13.9146 22.2993 11.5446 24.9934 11.5446C26.2904 11.5464 27.5338 12.0881 28.4509 13.051C29.368 14.0139 29.884 15.3193 29.8857 16.681C29.8857 18.9419 28.0347 20.8029 26.6076 21.7586C27.1612 22.0946 28.3835 22.4305 29.553 22.5498C30.4081 21.8574 31.1005 20.9683 31.577 19.9508C32.0535 18.9334 32.3014 17.8148 32.3015 16.681C32.3015 14.6461 31.5315 12.6945 30.161 11.2556C28.7905 9.81673 26.9316 9.00837 24.9934 9.00837C23.0552 9.00837 21.1963 9.81673 19.8258 11.2556C18.4553 12.6945 17.6853 14.6461 17.6853 16.681C17.6853 19.2358 18.6996 21.5067 20.6162 23.2451C22.4097 24.871 25.0302 25.9578 28.0155 26.4717C28.6554 26.0955 29.7753 24.9886 30.1833 24.3403C27.6907 24.0043 25.331 23.3644 23.7487 22.4926C21.3314 21.1607 20.1059 19.2543 20.1059 16.8255" fill="#ED2E26"/>
<path fill-rule="evenodd" clip-rule="evenodd" d="M25.9496 40.3364C27.1637 40.3364 27.452 41.3646 27.452 42.338H24.9823C24.9992 42.9868 25.4044 43.5069 26.0644 43.5069C26.5054 43.5069 26.797 43.3186 27.0266 43.0269L27.4047 43.3176C27.1693 43.6623 26.7583 44 26.0306 44C25.0212 43.9999 24.3527 43.2896 24.3527 42.2923C24.3527 41.3642 24.8352 40.3365 25.9496 40.3364ZM25.9496 40.8327C25.4584 40.8328 25.0852 41.1905 25 41.8449H26.8274C26.8274 41.319 26.5281 40.8327 25.9496 40.8327Z" fill="white"/>
<path d="M20.844 43.0996L22.2519 39.1805H22.9575L21.1377 43.9347H20.5604L18.7441 39.1805H19.4497L20.844 43.0996Z" fill="white"/>
<path d="M23.8581 43.9347H23.2301V40.4017H23.8581V43.9347Z" fill="white"/>
<path d="M28.8472 43.0384L29.6996 40.4017H30.2027L31.0678 43.0939L31.7726 40.4017H32.3938L31.3337 43.9347H30.8273L29.9393 41.2596L29.075 43.9347H28.5653L27.5051 40.4017H28.1297L28.8472 43.0384Z" fill="white"/>
<path d="M23.5508 39.1151C23.7912 39.1152 23.9222 39.2703 23.9222 39.4645C23.9222 39.6486 23.7934 39.8041 23.5508 39.8041C23.3076 39.8041 23.1828 39.6515 23.1828 39.4645C23.1828 39.2671 23.3097 39.1151 23.5508 39.1151Z" fill="white"/>
<path d="M12.9692 33.2638C14.0822 33.2638 14.6739 33.9118 14.7754 34.854H14.1272C14.032 34.1831 13.7295 33.7797 12.9692 33.7797C11.779 33.7797 11.6424 35.0375 11.6424 35.9446C11.6424 36.7183 11.9916 37.636 12.9118 37.636C13.7439 37.636 14.0196 37.2351 14.1272 36.5715H14.7754C14.6743 37.4716 14.0963 38.1486 12.9118 38.1486C11.761 38.1486 10.9941 37.2702 10.9941 35.9446C10.9941 34.6765 11.364 33.2638 12.9692 33.2638Z" fill="white"/>
<path fill-rule="evenodd" clip-rule="evenodd" d="M16.6576 34.485C17.7021 34.485 18.16 35.2139 18.16 36.2156V36.4866H15.6903C15.7073 37.1353 16.1127 37.6554 16.7724 37.6556C17.2133 37.6556 17.5051 37.4671 17.7346 37.1756L18.1127 37.4662C17.8773 37.8109 17.4661 38.1486 16.7386 38.1486C15.7295 38.1485 15.0607 37.4381 15.0607 36.4409C15.0607 35.51 15.5516 34.4852 16.6576 34.485ZM16.6576 34.9813C16.1666 34.9815 15.7932 35.3393 15.7081 35.9935H17.5354C17.5354 35.4676 17.2361 34.9813 16.6576 34.9813Z" fill="white"/>
<path d="M21.5572 34.5503H22.2392V35.014H21.5572V37.2082C21.5572 37.4475 21.6417 37.5608 21.7632 37.6001C21.9222 37.6513 22.0931 37.6259 22.2527 37.5903L22.2561 38.0833C21.9682 38.1718 21.628 38.1872 21.3513 38.0605C21.094 37.9425 20.9326 37.6737 20.9326 37.205V35.014H20.3072L20.3064 35.0923C20.2052 35.0711 20.1221 35.0662 20.0025 35.0662C19.7145 35.0662 19.4938 35.1577 19.3408 35.3144C19.2696 35.3873 19.2125 35.4738 19.1686 35.5731V38.0833H18.544V34.5503H19.1517L19.1636 34.956C19.1651 34.9535 19.167 34.9511 19.1686 34.9487C19.2609 34.8028 19.378 34.6896 19.5197 34.6091C19.6638 34.5264 19.8349 34.485 20.0329 34.485C20.1226 34.485 20.2646 34.5089 20.3097 34.5307L20.9326 34.5503V33.6915H21.5572V34.5503Z" fill="white"/>
<path d="M28.913 34.485C29.7669 34.485 30.3342 35.0311 30.3681 35.765H29.7739C29.7404 35.3308 29.4157 34.9813 28.913 34.9813C28.1176 34.9815 27.9137 35.7593 27.9137 36.3854C27.9137 37.0066 28.1454 37.6521 28.913 37.6523C29.3605 37.6523 29.7404 37.3612 29.7739 36.9666H30.3681C30.3304 37.667 29.5949 38.1486 28.913 38.1486C27.8243 38.1485 27.2891 37.3348 27.2891 36.3854C27.2891 35.4327 27.8071 34.4851 28.913 34.485Z" fill="white"/>
<path fill-rule="evenodd" clip-rule="evenodd" d="M32.1465 34.485C32.9471 34.485 33.5037 34.8777 33.5037 35.667V37.3127C33.5037 37.4303 33.5138 37.5554 33.5341 37.6882C33.5564 37.8198 33.632 37.9525 33.632 38.0833H32.9804C32.9268 37.9649 32.9089 37.8352 32.8943 37.7078C32.6636 37.9422 32.3124 38.1486 31.8528 38.1486C31.1139 38.1486 30.6171 37.6886 30.6171 37.1005C30.6171 36.3334 31.2687 35.9413 32.2613 35.9413H32.8791C32.8791 35.41 32.7178 34.9716 32.1094 34.9715C31.6436 34.9715 31.3193 35.2321 31.3193 35.5299H30.6947C30.6947 35.0181 31.2826 34.485 32.1465 34.485ZM32.3626 36.3658C31.6567 36.3658 31.2451 36.5767 31.2451 37.0188C31.2451 37.3527 31.4873 37.6197 31.9439 37.6197C32.3263 37.6196 32.7063 37.4223 32.8791 37.0866V36.3658H32.3626Z" fill="white"/>
<path d="M34.9875 34.5503H35.6695V35.014H34.9875V37.2082C34.9875 37.3279 35.0067 37.4183 35.0449 37.4792C35.1742 37.6853 35.4787 37.6358 35.683 37.5903L35.6864 38.0833C35.2683 38.2119 34.7152 38.1982 34.4743 37.7666C34.4001 37.6273 34.3629 37.44 34.3629 37.205V35.014H33.6944V34.5503H34.3629V33.6915H34.9875V34.5503Z" fill="white"/>
<path fill-rule="evenodd" clip-rule="evenodd" d="M37.4918 34.485C38.6432 34.4852 38.9941 35.5097 38.9941 36.4866H36.5245C36.5414 37.1354 36.9466 37.6556 37.6065 37.6556C38.0474 37.6555 38.3393 37.4671 38.5687 37.1756L38.9469 37.4662C38.7115 37.8109 38.3001 38.1485 37.5728 38.1486C36.5115 38.1486 35.8948 37.29 35.8948 36.3037C35.8948 35.1474 36.6744 34.485 37.4918 34.485ZM37.4918 34.9813C37.0006 34.9813 36.6274 35.3392 36.5422 35.9935H38.3696C38.3696 35.4675 38.0702 34.9814 37.4918 34.9813Z" fill="white"/>
<path d="M23.3052 38.0833H22.6773V34.5503H23.3052V38.0833Z" fill="white"/>
<path d="M26.4636 33.1985L26.3589 33.7079C25.9538 33.5545 25.3175 33.3765 24.9714 33.7176C24.8543 33.833 24.7958 34.0083 24.7958 34.2434V34.5503H25.5419V35.014H24.7958V38.0833H24.1712V35.014H23.5939V34.5503H24.1712V34.2434C24.1712 33.9756 24.2252 33.7492 24.3333 33.5642C24.4413 33.3791 24.5955 33.2387 24.7958 33.143C25.3275 32.8887 25.9327 33.0156 26.4636 33.1985Z" fill="white"/>
<path d="M26.7708 38.0833H26.1462V34.5503H26.7708V38.0833Z" fill="white"/>
<path d="M22.998 33.2638C23.2382 33.2639 23.3694 33.419 23.3694 33.6132C23.3694 33.7971 23.2403 33.9526 22.998 33.9527C22.7548 33.9527 22.63 33.8001 22.63 33.6132C22.63 33.4158 22.7569 33.2638 22.998 33.2638Z" fill="white"/>
</svg>
