<svg width="50" height="50" viewBox="0 0 50 50" fill="none" xmlns="http://www.w3.org/2000/svg">
<path fill-rule="evenodd" clip-rule="evenodd" d="M24.9992 35C24.9992 35 13.5283 29.262 13.0964 19.709C12.8084 13.3844 13.2576 10.2436 13.2576 10.2436C13.2576 10.2436 17.1932 6 24.9992 6" fill="#ED2E26"/>
<path fill-rule="evenodd" clip-rule="evenodd" d="M24.9992 6C32.8128 6 36.7407 10.2436 36.7407 10.2436C36.7407 10.2436 37.1919 13.3844 36.9039 19.7089C36.472 29.2561 25.0011 35 25.0011 35" fill="#ED2E26"/>
<path fill-rule="evenodd" clip-rule="evenodd" d="M19.1341 18.5595C19.1341 15.181 21.7662 12.4318 24.9991 12.4318C26.5555 12.4339 28.0476 13.0623 29.1481 14.1792C30.2487 15.2961 30.8679 16.8104 30.8699 18.39C30.8699 21.0125 28.6487 23.1714 26.9362 24.28C27.6005 24.6697 29.0672 25.0594 30.4706 25.1977C31.4967 24.3945 32.3277 23.3632 32.8995 22.183C33.4713 21.0028 33.7687 19.7052 33.7688 18.39C33.7688 16.0295 32.8449 13.7657 31.2002 12.0965C29.5556 10.4274 27.325 9.48971 24.9991 9.48971C22.6733 9.48971 20.4426 10.4274 18.798 12.0965C17.1534 13.7657 16.2294 16.0295 16.2294 18.39C16.2294 21.3535 17.4466 23.9878 19.7465 26.0043C21.8986 27.8904 25.0433 29.151 28.6256 29.7472C29.3936 29.3108 30.7374 28.0268 31.227 27.2747C28.2359 26.885 25.4042 26.1427 23.5055 25.1315C20.6047 23.5864 19.1341 21.3749 19.1341 18.5576" fill="white"/>
<path d="M24.7016 44.1506H23.7242C23.6699 44.4967 23.5783 44.7937 23.4493 45.0415C23.3237 45.2892 23.1371 45.4793 22.8893 45.6116C22.6416 45.744 22.309 45.8102 21.8915 45.8102C21.5623 45.8102 21.2773 45.7423 21.0363 45.6065C20.7953 45.4674 20.5968 45.2773 20.4407 45.0364C20.2846 44.7954 20.1675 44.5154 20.0894 44.1964C20.0148 43.8774 19.9774 43.5363 19.9774 43.1732V42.4248C19.9774 42.0311 20.0198 41.6731 20.1047 41.3507C20.1895 41.0283 20.3151 40.7517 20.4814 40.5209C20.6511 40.2901 20.8598 40.1119 21.1076 39.9863C21.3587 39.8608 21.6489 39.798 21.9781 39.798C22.3616 39.798 22.6721 39.8659 22.9097 40.0016C23.1473 40.1374 23.3305 40.3308 23.4595 40.582C23.5885 40.8297 23.6767 41.1267 23.7242 41.4728H24.7016C24.6507 40.9841 24.5167 40.5548 24.2995 40.1849C24.0857 39.8116 23.7853 39.5197 23.3984 39.3093C23.0115 39.0989 22.5381 38.9937 21.9781 38.9937C21.5199 38.9937 21.1076 39.0751 20.741 39.238C20.3745 39.4009 20.0606 39.6334 19.7992 39.9354C19.5413 40.2375 19.3428 40.6006 19.2036 41.0249C19.0679 41.4457 19 41.9157 19 42.435V43.1732C19 43.6924 19.0679 44.1641 19.2036 44.5884C19.3428 45.0092 19.5396 45.3707 19.7942 45.6727C20.0487 45.9714 20.3524 46.2021 20.7054 46.365C21.0618 46.528 21.4571 46.6094 21.8915 46.6094C22.4855 46.6094 22.981 46.5025 23.378 46.2887C23.7751 46.0715 24.0823 45.7779 24.2995 45.408C24.5167 45.0381 24.6507 44.6189 24.7016 44.1506Z" fill="#1C1D1F"/>
<path d="M29.9095 44.176C29.9638 44.3084 29.9909 44.4611 29.9909 44.6342C29.9909 44.8752 29.9281 45.0839 29.8026 45.2604C29.6804 45.4368 29.5005 45.5726 29.263 45.6676C29.0254 45.7626 28.7352 45.8102 28.3924 45.8102C28.1549 45.8102 27.9258 45.783 27.7052 45.7287C27.488 45.671 27.2928 45.5828 27.1198 45.464C26.9501 45.3452 26.816 45.1959 26.7176 45.016C26.6192 44.8327 26.57 44.6138 26.57 44.3593H25.5925C25.5925 44.7292 25.6723 45.055 25.8318 45.3367C25.9947 45.615 26.2102 45.8492 26.4783 46.0392C26.7498 46.2293 27.0502 46.3718 27.3794 46.4669C27.712 46.5619 28.0497 46.6094 28.3924 46.6094C28.7827 46.6094 29.1357 46.5636 29.4513 46.472C29.7703 46.3769 30.0435 46.2429 30.2709 46.0698C30.4983 45.8967 30.6731 45.688 30.7953 45.4436C30.9174 45.1993 30.9785 44.9261 30.9785 44.624C30.9785 44.3355 30.9293 44.0776 30.8309 43.8502C30.7359 43.6194 30.5882 43.4141 30.388 43.2342C30.1912 43.051 29.94 42.8864 29.6346 42.7404C29.3291 42.5945 28.966 42.4621 28.5452 42.3434C28.2397 42.2585 27.9767 42.1703 27.7561 42.0786C27.5389 41.987 27.359 41.8869 27.2165 41.7783C27.0773 41.6697 26.9738 41.5526 26.9059 41.427C26.8415 41.2981 26.8092 41.1555 26.8092 40.9994C26.8092 40.7686 26.8635 40.5633 26.9721 40.3834C27.0841 40.2036 27.2538 40.061 27.4812 39.9558C27.7086 39.8506 27.9971 39.798 28.3466 39.798C28.7165 39.798 29.022 39.8608 29.263 39.9863C29.5039 40.1085 29.6838 40.2782 29.8026 40.4954C29.9214 40.7092 29.9807 40.9553 29.9807 41.2336H30.9582C30.9582 40.8467 30.8564 40.4835 30.6527 40.1442C30.4491 39.8014 30.1521 39.5248 29.7618 39.3144C29.375 39.1006 28.9032 38.9937 28.3466 38.9937C27.9665 38.9937 27.622 39.0446 27.3132 39.1464C27.0044 39.2482 26.7379 39.3907 26.514 39.574C26.2934 39.7539 26.1237 39.966 26.0049 40.2103C25.8861 40.4547 25.8267 40.7211 25.8267 41.0096C25.8267 41.2981 25.8827 41.5543 25.9947 41.7783C26.1067 42.0023 26.2679 42.2008 26.4783 42.3739C26.6887 42.547 26.9416 42.7014 27.2368 42.8372C27.5321 42.9695 27.863 43.09 28.2295 43.1986C28.5791 43.3004 28.8676 43.4005 29.095 43.499C29.3257 43.5974 29.5056 43.7009 29.6346 43.8095C29.7669 43.9181 29.8586 44.0403 29.9095 44.176Z" fill="#1C1D1F"/>
</svg>
