<svg width="50" height="50" viewBox="0 0 50 50" fill="none" xmlns="http://www.w3.org/2000/svg">
<path fill-rule="evenodd" clip-rule="evenodd" d="M24.999 43C24.999 43 10.6604 35.8769 10.1205 24.018C9.76049 16.1669 10.322 12.2679 10.322 12.2679C10.322 12.2679 15.2415 7 24.999 7" fill="#ED2E26"/>
<path fill-rule="evenodd" clip-rule="evenodd" d="M24.999 7C34.766 7 39.6759 12.2679 39.6759 12.2679C39.6759 12.2679 40.2399 16.1669 39.8799 24.018C39.34 35.8696 25.0014 43 25.0014 43" fill="#ED2E26"/>
<path fill-rule="evenodd" clip-rule="evenodd" d="M17.6676 22.5911C17.6676 18.3971 20.9577 14.9843 24.9989 14.9843C26.9444 14.9869 28.8095 15.7669 30.1852 17.1535C31.5609 18.54 32.3348 20.4198 32.3374 22.3807C32.3374 25.6363 29.5608 28.3162 27.4203 29.6924C28.2506 30.1762 30.084 30.6599 31.8382 30.8316C33.1209 29.8346 34.1596 28.5543 34.8743 27.0892C35.5891 25.6241 35.9608 24.0133 35.961 22.3807C35.961 19.4504 34.8061 16.6401 32.7503 14.5681C30.6945 12.4961 27.9062 11.332 24.9989 11.332C22.0916 11.332 19.3033 12.4961 17.2475 14.5681C15.1917 16.6401 14.0368 19.4504 14.0368 22.3807C14.0368 26.0595 15.5582 29.3296 18.4331 31.833C21.1233 34.1743 25.0541 35.7392 29.532 36.4793C30.492 35.9375 32.1718 34.3436 32.7837 33.41C29.0449 32.9262 25.5052 32.0047 23.1319 30.7494C19.5058 28.8314 17.6676 26.0861 17.6676 22.5887" fill="white"/>
</svg>
