<svg width="50" height="50" viewBox="0 0 50 50" fill="none" xmlns="http://www.w3.org/2000/svg">
<path d="M23.6143 44.2031C23.6143 44.0371 23.5882 43.8906 23.5361 43.7637C23.4873 43.6335 23.3994 43.5163 23.2725 43.4121C23.1488 43.3079 22.9762 43.2087 22.7549 43.1143C22.5368 43.0199 22.2601 42.9238 21.9248 42.8262C21.5732 42.722 21.2559 42.6064 20.9727 42.4795C20.6895 42.3493 20.4469 42.2012 20.2451 42.0352C20.0433 41.8691 19.8887 41.6787 19.7812 41.4639C19.6738 41.249 19.6201 41.0033 19.6201 40.7266C19.6201 40.4499 19.6771 40.1943 19.791 39.96C19.9049 39.7256 20.0677 39.5221 20.2793 39.3496C20.4941 39.1738 20.7497 39.0371 21.0459 38.9395C21.3421 38.8418 21.6725 38.793 22.0371 38.793C22.571 38.793 23.0234 38.8955 23.3945 39.1006C23.7689 39.3024 24.0537 39.5677 24.249 39.8965C24.4443 40.222 24.542 40.5703 24.542 40.9414H23.6045C23.6045 40.6745 23.5475 40.4385 23.4336 40.2334C23.3197 40.0251 23.1471 39.8623 22.916 39.7451C22.6849 39.6247 22.3919 39.5645 22.0371 39.5645C21.7018 39.5645 21.4251 39.6149 21.207 39.7158C20.9889 39.8167 20.8262 39.9535 20.7188 40.126C20.6146 40.2985 20.5625 40.4954 20.5625 40.7168C20.5625 40.8665 20.5934 41.0033 20.6553 41.127C20.7204 41.2474 20.8197 41.3597 20.9531 41.4639C21.0898 41.568 21.2624 41.6641 21.4707 41.752C21.6823 41.8398 21.9346 41.9245 22.2275 42.0059C22.6312 42.1198 22.9795 42.2467 23.2725 42.3867C23.5654 42.5267 23.8063 42.6846 23.9951 42.8604C24.1872 43.0329 24.3288 43.2298 24.4199 43.4512C24.5143 43.6693 24.5615 43.9167 24.5615 44.1934C24.5615 44.4831 24.5029 44.7451 24.3857 44.9795C24.2686 45.2139 24.1009 45.4141 23.8828 45.5801C23.6647 45.7461 23.4027 45.8747 23.0967 45.9658C22.7939 46.0537 22.4554 46.0977 22.0811 46.0977C21.7523 46.0977 21.4284 46.0521 21.1094 45.9609C20.7936 45.8698 20.5055 45.7331 20.2451 45.5508C19.988 45.3685 19.7812 45.1439 19.625 44.877C19.472 44.6068 19.3955 44.2943 19.3955 43.9395H20.333C20.333 44.1836 20.3802 44.3936 20.4746 44.5693C20.569 44.7419 20.6976 44.8851 20.8604 44.999C21.0264 45.113 21.2135 45.1976 21.4219 45.2529C21.6335 45.305 21.8532 45.3311 22.0811 45.3311C22.4098 45.3311 22.6882 45.2855 22.916 45.1943C23.1439 45.1032 23.3164 44.973 23.4336 44.8037C23.554 44.6344 23.6143 44.4342 23.6143 44.2031Z" fill="black"/>
<path d="M26.8467 42.001H27.4912C27.807 42.001 28.0674 41.9489 28.2725 41.8447C28.4808 41.7373 28.6354 41.5924 28.7363 41.4102C28.8405 41.2246 28.8926 41.0163 28.8926 40.7852C28.8926 40.5117 28.847 40.2822 28.7559 40.0967C28.6647 39.9111 28.528 39.7712 28.3457 39.6768C28.1634 39.5824 27.9323 39.5352 27.6523 39.5352C27.3984 39.5352 27.1738 39.5856 26.9785 39.6865C26.7865 39.7842 26.6351 39.9242 26.5244 40.1064C26.417 40.2887 26.3633 40.5036 26.3633 40.751H25.46C25.46 40.3896 25.5511 40.0609 25.7334 39.7646C25.9157 39.4684 26.1712 39.2324 26.5 39.0566C26.832 38.8809 27.2161 38.793 27.6523 38.793C28.082 38.793 28.458 38.8695 28.7803 39.0225C29.1025 39.1722 29.3532 39.3968 29.5322 39.6963C29.7113 39.9925 29.8008 40.362 29.8008 40.8047C29.8008 40.9837 29.7585 41.1758 29.6738 41.3809C29.5924 41.5827 29.4639 41.7715 29.2881 41.9473C29.1156 42.123 28.891 42.2679 28.6143 42.3818C28.3376 42.4925 28.0055 42.5479 27.6182 42.5479H26.8467V42.001ZM26.8467 42.7432V42.2012H27.6182C28.0706 42.2012 28.445 42.2549 28.7412 42.3623C29.0374 42.4697 29.2702 42.613 29.4395 42.792C29.612 42.971 29.7324 43.168 29.8008 43.3828C29.8724 43.5944 29.9082 43.806 29.9082 44.0176C29.9082 44.3496 29.8512 44.6442 29.7373 44.9014C29.6266 45.1585 29.4688 45.3766 29.2637 45.5557C29.0618 45.7347 28.8242 45.8698 28.5508 45.9609C28.2773 46.0521 27.9795 46.0977 27.6572 46.0977C27.348 46.0977 27.0566 46.0537 26.7832 45.9658C26.513 45.8779 26.2738 45.751 26.0654 45.585C25.8571 45.4157 25.6943 45.209 25.5771 44.9648C25.46 44.7174 25.4014 44.4359 25.4014 44.1201H26.3047C26.3047 44.3675 26.3584 44.584 26.4658 44.7695C26.5765 44.9551 26.7327 45.0999 26.9346 45.2041C27.1396 45.305 27.3805 45.3555 27.6572 45.3555C27.9339 45.3555 28.1715 45.3083 28.3701 45.2139C28.5719 45.1162 28.7266 44.9697 28.834 44.7744C28.9447 44.5791 29 44.3333 29 44.0371C29 43.7409 28.9382 43.4984 28.8145 43.3096C28.6908 43.1175 28.515 42.9759 28.2871 42.8848C28.0625 42.7904 27.7972 42.7432 27.4912 42.7432H26.8467Z" fill="black"/>
<path fill-rule="evenodd" clip-rule="evenodd" d="M24.9992 35C24.9992 35 13.5283 29.262 13.0964 19.709C12.8084 13.3844 13.2576 10.2436 13.2576 10.2436C13.2576 10.2436 17.1932 6 24.9992 6" fill="#ED2E26"/>
<path fill-rule="evenodd" clip-rule="evenodd" d="M24.9992 6C32.8128 6 36.7407 10.2436 36.7407 10.2436C36.7407 10.2436 37.1919 13.3844 36.9039 19.7089C36.472 29.2561 25.0011 35 25.0011 35" fill="#ED2E26"/>
<path fill-rule="evenodd" clip-rule="evenodd" d="M19.1341 18.5595C19.1341 15.181 21.7662 12.4318 24.9991 12.4318C26.5555 12.4339 28.0476 13.0623 29.1481 14.1792C30.2487 15.2961 30.8679 16.8104 30.8699 18.39C30.8699 21.0125 28.6487 23.1714 26.9362 24.28C27.6005 24.6697 29.0672 25.0594 30.4706 25.1977C31.4967 24.3945 32.3277 23.3632 32.8995 22.183C33.4713 21.0028 33.7687 19.7052 33.7688 18.39C33.7688 16.0295 32.8449 13.7657 31.2002 12.0965C29.5556 10.4274 27.325 9.48971 24.9991 9.48971C22.6733 9.48971 20.4426 10.4274 18.798 12.0965C17.1534 13.7657 16.2294 16.0295 16.2294 18.39C16.2294 21.3535 17.4466 23.9878 19.7465 26.0043C21.8986 27.8904 25.0433 29.151 28.6256 29.7472C29.3936 29.3108 30.7374 28.0268 31.227 27.2747C28.2359 26.885 25.4042 26.1427 23.5055 25.1315C20.6047 23.5864 19.1341 21.3749 19.1341 18.5576" fill="white"/>
</svg>
