<svg width="50" height="50" viewBox="0 0 50 50" fill="none" xmlns="http://www.w3.org/2000/svg">
<path d="M25.146 42.085V42.4893C25.146 42.9697 25.0859 43.4004 24.9658 43.7812C24.8457 44.1621 24.6729 44.4858 24.4473 44.7524C24.2217 45.019 23.9507 45.2227 23.6343 45.3633C23.3208 45.5039 22.9692 45.5742 22.5796 45.5742C22.2017 45.5742 21.8545 45.5039 21.5381 45.3633C21.2246 45.2227 20.9521 45.019 20.7207 44.7524C20.4922 44.4858 20.3149 44.1621 20.189 43.7812C20.063 43.4004 20 42.9697 20 42.4893V42.085C20 41.6045 20.0615 41.1753 20.1846 40.7974C20.3105 40.4165 20.4878 40.0928 20.7163 39.8262C20.9448 39.5566 21.2158 39.3516 21.5293 39.2109C21.8457 39.0703 22.1929 39 22.5708 39C22.9604 39 23.312 39.0703 23.6255 39.2109C23.9419 39.3516 24.2129 39.5566 24.4385 39.8262C24.667 40.0928 24.8413 40.4165 24.9614 40.7974C25.0845 41.1753 25.146 41.6045 25.146 42.085ZM24.3066 42.4893V42.0762C24.3066 41.6953 24.2671 41.3584 24.188 41.0654C24.1118 40.7725 23.999 40.5264 23.8496 40.3271C23.7002 40.1279 23.5171 39.9771 23.3003 39.8745C23.0864 39.772 22.8433 39.7207 22.5708 39.7207C22.3071 39.7207 22.0684 39.772 21.8545 39.8745C21.6436 39.9771 21.4619 40.1279 21.3096 40.3271C21.1602 40.5264 21.0444 40.7725 20.9624 41.0654C20.8804 41.3584 20.8394 41.6953 20.8394 42.0762V42.4893C20.8394 42.873 20.8804 43.2129 20.9624 43.5088C21.0444 43.8018 21.1616 44.0493 21.314 44.2515C21.4692 44.4507 21.6523 44.6016 21.8633 44.7041C22.0771 44.8066 22.3159 44.8579 22.5796 44.8579C22.855 44.8579 23.0996 44.8066 23.3135 44.7041C23.5273 44.6016 23.7075 44.4507 23.854 44.2515C24.0034 44.0493 24.1162 43.8018 24.1924 43.5088C24.2686 43.2129 24.3066 42.873 24.3066 42.4893Z" fill="black"/>
<path d="M28.6572 39.0879V45.4863H27.8223V39.0879H28.6572ZM30.7139 39.0879V39.7822H25.77V39.0879H30.7139Z" fill="black"/>
<path fill-rule="evenodd" clip-rule="evenodd" d="M24.9992 35C24.9992 35 13.5283 29.262 13.0964 19.709C12.8084 13.3844 13.2576 10.2436 13.2576 10.2436C13.2576 10.2436 17.1932 6 24.9992 6" fill="#ED2E26"/>
<path fill-rule="evenodd" clip-rule="evenodd" d="M24.9992 6C32.8128 6 36.7407 10.2436 36.7407 10.2436C36.7407 10.2436 37.1919 13.3844 36.9039 19.7089C36.472 29.2561 25.0011 35 25.0011 35" fill="#ED2E26"/>
<path fill-rule="evenodd" clip-rule="evenodd" d="M19.1341 18.5595C19.1341 15.181 21.7662 12.4318 24.9991 12.4318C28.2317 12.4361 30.8658 15.1835 30.8699 18.39C30.8699 21.0125 28.6487 23.1714 26.9362 24.28C27.6005 24.6697 29.0672 25.0594 30.4706 25.1977C32.5451 23.574 33.7685 21.0208 33.7688 18.39C33.7688 13.5978 29.8305 9.48971 24.9991 9.48971C20.1678 9.48971 16.2294 13.5978 16.2294 18.39C16.2294 25.2407 22.6403 28.7511 28.6256 29.7472C29.3936 29.3108 30.7374 28.0268 31.227 27.2747C26.276 26.6297 19.1341 24.7708 19.1341 18.5576" fill="white"/>
</svg>
