<svg width="50" height="50" viewBox="0 0 50 50" fill="none" xmlns="http://www.w3.org/2000/svg">
<path d="M41.6666 25C41.6666 34.205 34.2049 41.6667 25 41.6667C15.7959 41.6667 8.33331 34.205 8.33331 25C8.33331 15.7951 15.7959 8.33337 25 8.33337C34.2049 8.33337 41.6666 15.7951 41.6666 25Z" fill="#F05223"/>
<path d="M25.0003 9.85829C16.6506 9.85829 9.85883 16.651 9.85883 24.9998C9.85883 33.3494 16.6506 40.1413 25.0003 40.1413C33.349 40.1413 40.1418 33.3494 40.1418 24.9998C40.1418 16.651 33.349 9.85829 25.0003 9.85829ZM25.0003 40.6691C16.3602 40.6691 9.33192 33.6398 9.33192 24.9998C9.33192 16.3606 16.3602 9.33136 25.0003 9.33136C33.6403 9.33136 40.6687 16.3606 40.6687 24.9998C40.6687 33.6398 33.6403 40.6691 25.0003 40.6691Z" fill="white"/>
<path d="M30.9772 33.6929C30.3373 33.6929 29.8166 33.1721 29.8166 32.5322C29.8166 31.8923 30.3373 31.3716 30.9772 31.3716C31.6171 31.3716 32.1379 31.8923 32.1379 32.5322C32.1379 33.1721 31.6171 33.6929 30.9772 33.6929ZM20.0926 18.0527C19.4527 18.0527 18.932 17.532 18.932 16.8929C18.932 16.2521 19.4527 15.7323 20.0926 15.7323C20.7326 15.7323 21.2533 16.2521 21.2533 16.8929C21.2533 17.532 20.7326 18.0527 20.0926 18.0527ZM21.2533 32.5322C21.2533 33.1721 20.7326 33.6929 20.0926 33.6929C19.4527 33.6929 18.932 33.1721 18.932 32.5322C18.932 31.8923 19.4527 31.3716 20.0926 31.3716C20.7326 31.3716 21.2533 31.8923 21.2533 32.5322ZM30.9772 15.7323C31.6171 15.7323 32.1379 16.2521 32.1379 16.8929C32.1379 17.532 31.6171 18.0527 30.9772 18.0527C30.3373 18.0527 29.8166 17.532 29.8166 16.8929C29.8166 16.2521 30.3373 15.7323 30.9772 15.7323ZM30.9772 30.1138C30.6692 30.1138 30.3753 30.1738 30.1034 30.2798L25.4229 24.7086L30.1026 19.1445C30.3744 19.2504 30.6683 19.3113 30.9772 19.3113C32.3109 19.3113 33.3956 18.2257 33.3956 16.8929C33.3956 15.5593 32.3109 14.4737 30.9772 14.4737C29.6436 14.4737 28.5588 15.5593 28.5588 16.8929C28.5588 17.3493 28.6887 17.7747 28.9092 18.1392L24.0407 23.9275H20.8729V19.1798C21.8244 18.8541 22.5111 17.953 22.5111 16.8929C22.5111 15.5593 21.4263 14.4737 20.0926 14.4737C18.759 14.4737 17.6743 15.5593 17.6743 16.8929C17.6743 17.953 18.3609 18.8541 19.3124 19.1798V30.2453C18.3609 30.571 17.6743 31.4722 17.6743 32.5322C17.6743 33.8659 18.759 34.9506 20.0926 34.9506C21.4263 34.9506 22.5111 33.8659 22.5111 32.5322C22.5111 31.4722 21.8244 30.571 20.8729 30.2453V25.4889H24.0398L28.9092 31.2842C28.6886 31.6487 28.5588 32.075 28.5588 32.5322C28.5588 33.8659 29.6436 34.9506 30.9772 34.9506C32.3109 34.9506 33.3956 33.8659 33.3956 32.5322C33.3956 31.1986 32.3109 30.1138 30.9772 30.1138Z" fill="white"/>
</svg>
