<svg width="50" height="50" viewBox="0 0 50 50" fill="none" xmlns="http://www.w3.org/2000/svg">
<path fill-rule="evenodd" clip-rule="evenodd" d="M33.7736 23.1647H15.283V35.5882H33.7736V23.1647ZM19.5283 31.0706C20.414 31.0706 21.1321 30.3542 21.1321 29.4706C21.1321 28.5869 20.414 27.8706 19.5283 27.8706C18.6426 27.8706 17.9245 28.5869 17.9245 29.4706C17.9245 30.3542 18.6426 31.0706 19.5283 31.0706ZM31.0377 29.4706C31.0377 30.3542 30.3197 31.0706 29.434 31.0706C28.5482 31.0706 27.8302 30.3542 27.8302 29.4706C27.8302 28.5869 28.5482 27.8706 29.434 27.8706C30.3197 27.8706 31.0377 28.5869 31.0377 29.4706ZM35.9946 41.6232C41.4198 38.0546 45 31.9209 45 24.9529C45 13.9332 36.0457 5 25 5C13.9543 5 5 13.9332 5 24.9529C5 31.633 8.29042 37.5463 13.3425 41.1678C13.4866 40.9343 13.833 40.4176 14.1981 40.2C14.6981 39.9021 15.6608 39.9101 15.6608 39.9101V42.6014C15.8784 42.7163 16.0984 42.8273 16.3208 42.9343V40.8588H25.566V44.8118H26.3208V40.8588H25.566V40.1059H16.3208V37.2824H33.0189V43.2374C33.2303 43.145 33.4397 43.0491 33.6472 42.9497V39.7765C33.6472 39.7765 34.5755 39.7765 35.1887 40.1529C35.7008 40.4673 35.9142 41.2177 35.9946 41.6232ZM24.3396 41.4235H16.9811V42.1765H24.3396V41.4235ZM23.0189 36.1529H26.3208V36.6235H23.0189V36.1529ZM29.1743 17C29.3319 16.768 29.4968 16.5323 29.6698 16.2941C29.7954 16.1213 29.9156 15.9486 30.0306 15.7765C30.0678 15.7209 29.9475 15.6872 29.7934 15.644C29.5548 15.5771 29.2352 15.4875 29.2925 15.2588C29.3529 15.0174 29.8117 15.0274 30.1514 15.0348C30.3414 15.039 30.4941 15.0423 30.5189 15.0003C30.781 14.5569 31.0102 14.1225 31.2101 13.7059C31.2295 13.6654 31.0991 13.6232 30.9347 13.5699C30.6479 13.477 30.2574 13.3505 30.3773 13.1412C30.4974 12.8417 30.9212 12.8902 31.2302 12.9256C31.4067 12.9458 31.5458 12.9617 31.5691 12.9059C32.3102 11.135 32.5 9.84706 32.5 9.84706C32.5 9.84706 31.149 9.80138 29.5283 10.6195C29.4843 10.6417 29.4989 10.7591 29.5164 10.8999C29.5423 11.1079 29.5746 11.3672 29.4339 11.4471C29.2314 11.5621 29.0943 11.3466 28.9893 11.1817C28.9231 11.0777 28.8697 10.9938 28.8207 11.0254C28.0388 11.531 27.2317 12.2529 26.5094 13.2837C26.4807 13.3247 26.5407 13.4276 26.6179 13.5602C26.7549 13.7954 26.9462 14.1239 26.7924 14.3647C26.6656 14.5635 26.4392 14.3214 26.2696 14.1399C26.1671 14.0302 26.0853 13.9427 26.0587 13.9882C25.9876 14.1101 25.9177 14.2356 25.8491 14.3647C25.4804 15.0584 25.1703 15.7011 24.9143 16.2941C24.8909 16.3484 24.9976 16.4552 25.1297 16.5875C25.3484 16.8063 25.6365 17.0947 25.5188 17.3294C25.4383 17.4902 25.1092 17.331 24.8425 17.2021C24.6573 17.1126 24.5022 17.0376 24.4811 17.0941C24.2966 17.5878 24.2453 18.0824 24.2453 18.5529C24.2339 18.6014 24.294 18.6798 24.3699 18.7788C24.4962 18.9434 24.6661 19.1648 24.6226 19.4C24.5985 19.5302 24.4518 19.5041 24.3142 19.4796C24.1866 19.4568 24.0669 19.4355 24.0597 19.5412C23.9987 20.4408 24.1112 21.0808 24.4323 21.4706C24.4814 21.4706 24.6246 21.0831 24.843 20.4923C25.2614 19.3605 25.9556 17.4825 26.7924 16.1529C28.3029 13.7531 30.2342 11.182 30.8962 11.3529C31.0143 11.4315 30.5109 12.0806 29.8177 12.9746C29.1053 13.8933 28.1923 15.0706 27.5472 16.1529C25.8102 19.0672 24.9177 21.8208 24.9999 21.8471C25.7485 22.086 26.3363 21.4761 27.0482 20.3882C27.0923 20.3208 26.9823 20.2769 26.8521 20.225C26.6691 20.1519 26.4463 20.0631 26.5566 19.8706C26.6428 19.6699 26.9887 19.615 27.2651 19.5711C27.4424 19.5429 27.5911 19.5193 27.6243 19.4646C27.7898 19.1919 27.9773 18.9286 28.1752 18.6506C28.3533 18.4005 28.5398 18.1385 28.7264 17.8471C28.7552 17.8021 28.6571 17.771 28.5277 17.7301C28.3111 17.6615 28.007 17.5652 28.066 17.3294C28.1256 17.0916 28.5167 17.0749 28.8191 17.0619C28.9954 17.0543 29.1416 17.0481 29.1743 17Z" fill="#498A3B"/>
<path fill-rule="evenodd" clip-rule="evenodd" d="M30.1415 41.4235C30.4281 41.4235 30.6604 41.1918 30.6604 40.9059C30.6604 40.62 30.4281 40.3882 30.1415 40.3882C29.8549 40.3882 29.6226 40.62 29.6226 40.9059C29.6226 41.1918 29.8549 41.4235 30.1415 41.4235ZM30.1415 42.1765C30.8449 42.1765 31.4151 41.6076 31.4151 40.9059C31.4151 40.2042 30.8449 39.6353 30.1415 39.6353C29.4381 39.6353 28.8679 40.2042 28.8679 40.9059C28.8679 41.6076 29.4381 42.1765 30.1415 42.1765Z" fill="#498A3B"/>
<path fill-rule="evenodd" clip-rule="evenodd" d="M29.0824 45L29.925 44.7647C29.7466 44.6829 29.6226 44.5029 29.6226 44.2941C29.6226 44.0082 29.8549 43.7765 30.1415 43.7765C30.4281 43.7765 30.6604 44.0082 30.6604 44.2941C30.6604 44.3983 30.6295 44.4953 30.5765 44.5765L31.4151 44.2941C31.4151 43.5924 30.8449 43.0235 30.1415 43.0235C29.4381 43.0235 28.8679 43.5924 28.8679 44.2941C28.8679 44.5553 28.9469 44.7981 29.0824 45Z" fill="#498A3B"/>
</svg>
