<svg width="50" height="50" viewBox="0 0 50 50" fill="none" xmlns="http://www.w3.org/2000/svg">
<path d="M38.2843 11.9138L25.4657 8.06859C25.1624 7.97714 24.8387 7.97714 24.5354 8.06859L11.7156 11.9148C11.3817 12.0134 11.0889 12.2177 10.8811 12.497C10.6734 12.7763 10.5619 13.1155 10.5636 13.4637V27.5634C10.6458 29.7673 11.4731 31.8781 12.9102 33.5509C14.2778 35.2244 15.87 36.7007 17.6418 37.9382C19.7481 39.4494 21.99 40.7619 24.3388 41.8588C24.5466 41.9518 24.7718 41.9998 24.9995 41.9998C25.2272 41.9998 25.4523 41.9518 25.6602 41.8588C28.0089 40.7618 30.2507 39.4493 32.357 37.9382C34.1288 36.7008 35.7211 35.2244 37.0886 33.5509C38.5262 31.8783 39.354 29.7674 39.4364 27.5634V13.4637C39.435 13.1162 39.3224 12.7783 39.1151 12.4994C38.9078 12.2205 38.6166 12.0153 38.2843 11.9138V11.9138ZM36.2077 14.6659V27.5634C36.2077 30.5309 33.0991 33.4088 30.4912 35.3008C28.7539 36.543 26.9194 37.6432 25.0055 38.5908C23.0915 37.6432 21.2569 36.543 19.5196 35.3008C16.9117 33.4088 13.8033 30.5309 13.8033 27.5634V14.6659L25.0055 11.305L36.2077 14.6659Z" fill="#0073FF"/>
</svg>
