<svg width="50" height="50" viewBox="0 0 50 50" fill="none" xmlns="http://www.w3.org/2000/svg">
<path d="M43.6474 19.6113L43.2404 17.1219C43.1109 16.3177 42.815 15.6666 42.5745 15.6666C42.0076 15.6666 42.1305 17.3586 42.1305 17.7922C42.1305 18.5964 41.4831 19.2666 40.7062 19.2666C40.4533 19.2666 40.2005 19.2666 39.9477 19.2666V21.0666C40.7801 21.0666 41.6126 21.0666 42.445 21.0666C43.2404 21.0666 43.7769 20.4156 43.6474 19.6113Z" fill="#2453FF"/>
<path d="M37.9684 17.5049L29.9586 17.5241V17.1411C29.9586 16.3368 29.7551 15.6666 29.5147 15.6666C29.2742 15.6666 28.9782 16.3177 28.8487 17.1219L28.4418 19.6113C28.3123 20.4156 28.8487 21.0666 29.6257 21.0666H31.9934C32.2339 21.0666 32.4744 21.0283 32.6594 20.9517C32.5854 21.373 32.2339 21.6794 31.8085 21.6794H28.4788C27.9423 21.6794 27.5353 21.1815 27.6278 20.6262L27.9608 18.539C28.0533 17.9836 27.6463 17.4858 27.1099 17.4858H10.6094C10.2579 17.4858 9.96193 17.6964 9.81395 18.0219L6.70623 22.9432C6.65073 23.0198 6.65073 23.1347 6.72473 23.2113L7.33517 23.9581C7.40916 24.0539 7.53865 24.073 7.63114 23.9964L9.73995 22.273V32.7666C9.73995 33.2645 10.1284 33.6666 10.6094 33.6666H15.308C15.7889 33.6666 16.1774 33.2645 16.1774 32.7666V29.1283C16.1774 28.6305 16.5658 28.2283 17.0468 28.2283H28.7562C29.2372 28.2283 29.6257 28.6305 29.6257 29.1283V32.7666C29.6257 33.2645 30.0141 33.6666 30.4951 33.6666H35.1937C35.6746 33.6666 36.0631 33.2645 36.0631 32.7666V28.8028H33.5658C32.7889 28.8028 32.1414 28.1326 32.1414 27.3283V24.8198C32.1414 24.3411 32.3634 23.9198 32.7149 23.6517V26.6581C32.7149 27.4624 33.3623 28.1326 34.1392 28.1326H37.9684C38.7453 28.1326 39.3928 27.4624 39.3928 26.6581V18.9985C39.3928 18.1751 38.7453 17.5049 37.9684 17.5049Z" fill="#2453FF"/>
</svg>
