<svg width="50" height="50" viewBox="0 0 50 50" fill="none" xmlns="http://www.w3.org/2000/svg">
<path fill-rule="evenodd" clip-rule="evenodd" d="M15.8111 12.6273C12.9021 14.4946 10.9251 16.0966 10.5714 16.8731C9.4715 19.2888 9.52137 31.1263 10.6404 33.2496C11.6727 35.2077 22.6166 41.6186 24.9472 41.6303C27.3889 41.6427 38.3856 35.1704 39.3298 33.1653C40.2592 31.1918 40.5336 21.7638 39.7681 18.108C39.5103 16.8769 39.2837 16.548 37.9616 15.485C33.6131 11.9887 26.5869 8.15431 24.8954 8.35431C21.6648 8.74743 18.4775 10.9156 15.8111 12.6273ZM35.755 22.3792C35.9041 22.4898 35.9784 22.7284 35.9226 22.9169C35.7625 23.4581 34.9202 23.3643 34.9202 22.8054C34.9202 22.3576 35.3975 22.1141 35.755 22.3792ZM17.0031 22.4914C18.0838 22.9253 18.1879 24.5148 17.1681 25.0135C17.049 25.0717 16.9515 25.1256 16.9515 25.1334C16.9515 25.1411 17.0887 25.4314 17.2563 25.7787C18.0345 27.391 18.0152 27.2705 17.4969 27.2695C17.071 27.2688 17.1346 27.3454 16.6162 26.2073L16.162 25.21L15.2707 25.1875V26.1808C15.2707 26.9001 15.2575 27.1874 15.2228 27.2222C15.1729 27.2722 14.6491 27.2902 14.5337 27.2459C14.4656 27.2199 14.4328 22.4808 14.5002 22.4134C14.5723 22.3414 16.8027 22.4107 17.0031 22.4914ZM28.237 22.4291C28.2891 22.4619 28.297 22.7731 28.297 24.8299C28.297 27.5209 28.3377 27.2686 27.9041 27.2695C27.5689 27.2703 27.4766 27.2269 27.4766 27.069V26.9507L27.2949 27.0894C26.6584 27.575 25.6639 27.2247 25.3578 26.4071C25.0586 25.6075 25.2 24.5081 25.6616 24.0468C26.0805 23.6281 26.8185 23.5389 27.2739 23.8519L27.4766 23.9914V23.2325C27.4766 22.5521 27.4839 22.4696 27.5466 22.4331C27.6352 22.3815 28.1569 22.3785 28.237 22.4291ZM15.2975 23.1366C15.2828 23.1513 15.2707 23.4663 15.2707 23.8367V24.51H15.9218C16.4784 24.51 16.5929 24.4993 16.7121 24.4359C17.2011 24.1763 17.1661 23.418 16.6546 23.1857C16.4891 23.1106 15.3642 23.0699 15.2975 23.1366ZM20.5135 23.8139C21.1758 24.1259 21.2108 24.2259 21.2262 25.8488C21.2408 27.3798 21.2729 27.2701 20.8087 27.2701C20.4905 27.2701 20.3933 27.2184 20.3933 27.0487V26.9528C19.6385 27.4616 18.039 27.4263 18.2101 26.138C18.3068 25.4093 18.7971 25.11 19.8949 25.11H20.3849C20.5 24.5 19.4485 24.1367 19.1722 24.6708C19.1185 24.7745 19.0898 24.7919 19.0002 24.7747C18.941 24.7635 18.7935 24.743 18.6725 24.7293C18.2559 24.6819 18.2305 24.6246 18.456 24.2403C18.7652 23.7127 19.8301 23.4921 20.5135 23.8139ZM23.9221 23.7114C24.2063 23.7902 24.4434 23.9939 24.5952 24.2892L24.7352 24.5617L24.749 25.8494C24.765 27.3605 24.7905 27.2701 24.3496 27.2701C23.8805 27.2701 23.9149 27.3687 23.9149 26.0272C23.9149 24.5484 23.8532 24.3902 23.2745 24.3902C22.6902 24.3902 22.6346 24.5277 22.6344 25.9773C22.6342 27.3544 22.6627 27.2701 22.1993 27.2701C21.7596 27.2701 21.794 27.4197 21.794 25.5053C21.794 23.5192 21.7512 23.71 22.197 23.71C22.5751 23.71 22.6344 23.7417 22.6344 23.9453C22.6344 24.0208 22.6415 24.0195 22.7443 23.9226C22.9936 23.6882 23.5071 23.596 23.9221 23.7114ZM31.1503 23.8069C32.3597 24.3627 32.3404 26.6188 31.1217 27.1654C29.6503 27.8256 28.3663 26.2652 28.9962 24.5824C29.287 23.8053 30.3302 23.4298 31.1503 23.8069ZM34.5107 23.7127C34.6758 23.7702 34.6817 23.8007 34.6056 24.1921L34.5399 24.53L34.3152 24.517C33.5199 24.4712 33.3995 24.6828 33.3995 26.1275C33.3995 27.3544 33.4314 27.2701 32.9647 27.2701C32.5269 27.2701 32.5591 27.412 32.5591 25.4752C32.5591 23.5605 32.5247 23.71 32.964 23.71C33.3718 23.71 33.3995 23.7232 33.3995 23.9184V24.0783L33.5468 23.9488C33.8348 23.6963 34.2038 23.6057 34.5107 23.7127ZM35.8311 25.4501C35.8431 27.4285 35.8775 27.2701 35.4359 27.2701C34.9977 27.2701 35.0402 27.4609 35.0402 25.4925C35.0402 24.5415 35.0528 23.7507 35.0683 23.7352C35.0837 23.7198 35.2593 23.7123 35.4585 23.7186L35.8206 23.7299L35.8311 25.4501ZM26.4319 24.4815C25.9351 24.8162 25.9143 26.1273 26.4002 26.4732C26.8988 26.8279 27.3962 26.4394 27.4636 25.6427C27.5429 24.7046 27.0031 24.097 26.4319 24.4815ZM30.0839 24.4557C29.3749 24.8164 29.5907 26.5074 30.355 26.5807C31.0452 26.647 31.4672 25.6188 31.0913 24.7864C30.9331 24.4361 30.4402 24.2743 30.0839 24.4557ZM19.5928 25.6971C19.2221 25.7619 19.0325 25.9311 19.0325 26.1972C19.0325 26.7129 19.8953 26.8157 20.2899 26.3468C20.3856 26.2329 20.3954 26.1926 20.3849 25.955L20.3732 25.6901L20.0331 25.6849C19.846 25.6818 19.6478 25.6874 19.5928 25.6971Z" fill="#DB041C"/>
<path fill-rule="evenodd" clip-rule="evenodd" d="M35.1782 22.3317C34.8592 22.4891 34.8449 23.2299 35.1608 23.2299C35.1791 23.2299 35.1415 23.1771 35.0771 23.1128C34.8019 22.8377 34.9754 22.3797 35.3803 22.3124C35.5515 22.284 35.5601 22.2786 35.4403 22.2754C35.3633 22.2733 35.2454 22.2987 35.1782 22.3317ZM35.6937 22.3743C35.756 22.4079 35.8317 22.4927 35.8623 22.5627C35.8974 22.6435 35.9181 22.6631 35.919 22.6167C35.9209 22.5321 35.7121 22.309 35.6335 22.3113C35.6043 22.3122 35.6314 22.3405 35.6937 22.3743ZM14.4863 22.4463C14.4743 22.4775 14.4722 22.5541 14.4815 22.6163C14.4959 22.7122 14.4995 22.7065 14.5045 22.5804L14.5104 22.431L16.6516 22.4083L15.5797 22.399C14.6862 22.3913 14.5043 22.3991 14.4863 22.4463ZM27.7478 22.419C27.842 22.4276 27.9859 22.4274 28.0679 22.4188C28.1499 22.4102 28.0728 22.4033 27.8968 22.4033C27.7207 22.4035 27.6536 22.4106 27.7478 22.419ZM16.6749 22.4444C16.684 22.4524 16.7635 22.47 16.8516 22.4834C16.9632 22.5004 16.9875 22.4969 16.9317 22.4715C16.8549 22.4368 16.6405 22.414 16.6749 22.4444ZM27.5032 22.4564C27.4887 22.471 27.4766 22.8243 27.4766 23.2413C27.4766 23.9578 27.4728 23.9966 27.4065 23.9446C27.3431 23.895 27.3417 23.8963 27.3914 23.9599C27.4994 24.0972 27.5135 24.0197 27.525 23.2297C27.5315 22.7898 27.5334 22.4297 27.5334 22.4297C27.5334 22.4297 27.5179 22.4417 27.5032 22.4564ZM28.2957 24.8498C28.2957 26.104 28.3008 26.6112 28.3069 25.9772C28.3132 25.343 28.3132 24.3169 28.3069 23.6969C28.3008 23.077 28.2957 23.5958 28.2957 24.8498ZM17.4694 22.8522C17.5892 22.9829 17.6957 23.0988 17.706 23.1097C17.7381 23.1439 17.6626 23.0152 17.5837 22.9013C17.5424 22.8417 17.4509 22.7527 17.3802 22.7038C17.2823 22.6358 17.3036 22.671 17.4694 22.8522ZM14.4798 22.9498C14.4798 23.0268 14.488 23.0583 14.498 23.0197C14.5081 22.9814 14.5081 22.9183 14.498 22.8797C14.488 22.8413 14.4798 22.8727 14.4798 22.9498ZM15.2486 23.1212C15.2377 23.1496 15.2337 23.478 15.2398 23.8512L15.2509 24.5299L16.5514 24.5329L15.269 24.5079L15.2908 23.1298L16.4914 23.0864L15.8799 23.0782C15.4121 23.0717 15.2637 23.0818 15.2486 23.1212ZM16.6728 23.1997C16.7708 23.2493 16.8916 23.351 16.9412 23.4256C16.9909 23.5005 17.0316 23.5424 17.0316 23.5189C17.0316 23.3995 16.6869 23.1097 16.5449 23.1097C16.5172 23.1097 16.5747 23.1502 16.6728 23.1997ZM17.8457 23.8098C17.8459 23.9859 17.8529 24.0529 17.8613 23.9588C17.8698 23.8646 17.8698 23.7208 17.8612 23.6388C17.8526 23.5569 17.8457 23.6339 17.8457 23.8098ZM19.2727 23.7064C19.2177 23.7221 19.3725 23.7273 19.6165 23.7175C19.9456 23.7045 20.116 23.7164 20.2754 23.763C20.3937 23.7977 20.4972 23.8191 20.5058 23.8107C20.5995 23.7171 19.5466 23.6281 19.2727 23.7064ZM23.0145 23.7481C22.9264 23.7901 22.8094 23.8638 22.7544 23.9122L22.6543 23.9996L22.7544 23.9334C23.4966 23.4419 24.405 23.7265 24.6594 24.5299C24.6911 24.6306 24.711 24.6579 24.7127 24.6034C24.732 23.9767 23.663 23.4383 23.0145 23.7481ZM26.6563 23.7064C26.9276 23.7242 27.0539 23.7523 27.1688 23.8201C27.2527 23.8696 27.3091 23.89 27.294 23.8657C27.2238 23.7521 26.9341 23.6717 26.6162 23.6772L26.2961 23.6828L26.6563 23.7064ZM29.9377 23.7257C29.7684 23.7792 29.5175 23.9005 29.5175 23.9286C29.5175 23.9379 29.6211 23.8969 29.7477 23.8377C29.9581 23.7389 30.0195 23.7297 30.4664 23.7297C30.7353 23.7297 30.9245 23.7175 30.8866 23.7026C30.7699 23.6562 30.1064 23.6724 29.9377 23.7257ZM33.8996 23.7313C33.8088 23.775 33.804 23.7819 33.8797 23.7593C34.1197 23.6885 34.5227 23.7246 34.6035 23.8243C34.6773 23.9154 34.7104 23.8994 34.6486 23.8023C34.5644 23.6698 34.1157 23.6272 33.8996 23.7313ZM21.8183 23.7731C21.7686 23.9024 21.7911 27.1712 21.842 27.222C21.9171 27.2971 22.4932 27.2853 22.5713 27.2071C22.6262 27.1525 22.6331 26.9932 22.625 25.9772L22.6155 24.8099L22.6044 25.9667C22.591 27.3219 22.6199 27.2373 22.1779 27.2216L21.854 27.21V23.7699H22.2203C22.4219 23.7699 22.5784 23.7563 22.5681 23.7399C22.5282 23.6755 21.8441 23.7059 21.8183 23.7731ZM32.607 23.7578C32.5713 23.7935 32.5591 24.2301 32.5591 25.4752C32.5591 27.412 32.5269 27.2701 32.9647 27.2701C33.4314 27.2701 33.3995 27.3544 33.3995 26.1275C33.3995 24.8368 33.4337 24.7222 33.8657 24.5683C33.9605 24.5345 33.988 24.5127 33.9376 24.5116C33.7971 24.5087 33.5229 24.7175 33.4383 24.8922C33.3659 25.0418 33.3594 25.1419 33.3594 26.1184C33.3594 27.333 33.3966 27.23 32.9573 27.23C32.7259 27.23 32.6753 27.2176 32.6405 27.1527C32.5904 27.0593 32.5835 23.8762 32.633 23.7981C32.6567 23.7609 32.7603 23.7496 33.0026 23.758L33.3393 23.7699L33.3521 23.9297C33.3703 24.1584 33.4117 24.1742 33.5399 24.0017L33.6529 23.8499L33.3995 24.0848V23.9215C33.3995 23.8096 33.3796 23.7508 33.336 23.7341C33.2199 23.6894 32.6571 23.7078 32.607 23.7578ZM35.0671 23.7383C35.0564 23.7557 35.2169 23.7641 35.4241 23.7571L35.8005 23.7443V25.463C35.8005 26.9932 35.7937 27.1842 35.7373 27.2058C35.623 27.2495 35.138 27.232 35.0882 27.1821C35.056 27.15 35.0402 27.1485 35.0402 27.1777C35.0402 27.2459 35.1439 27.2701 35.4359 27.2701C35.8775 27.2701 35.8431 27.4285 35.8311 25.4501L35.8206 23.7299L35.4537 23.7183C35.2519 23.712 35.0778 23.7211 35.0671 23.7383ZM19.0025 23.7911C18.8686 23.8449 18.8936 23.8722 19.0325 23.8239C19.0987 23.8008 19.1527 23.7748 19.1527 23.7658C19.1527 23.7422 19.104 23.7504 19.0025 23.7911ZM22.6036 23.9498C22.6036 24.0268 22.6119 24.0583 22.6218 24.0199C22.6319 23.9813 22.6319 23.9183 22.6218 23.8799C22.6119 23.8413 22.6036 23.8728 22.6036 23.9498ZM25.7786 23.9427C25.6355 24.0495 25.3552 24.4376 25.3559 24.528C25.3561 24.5511 25.4092 24.4777 25.4738 24.3652C25.5384 24.2527 25.6758 24.0862 25.7792 23.9952C25.9968 23.8037 25.9966 23.7804 25.7786 23.9427ZM31.2583 23.8793C31.3025 23.907 31.4374 24.0289 31.5583 24.1498C31.6793 24.2709 31.7523 24.3339 31.7206 24.2898C31.5929 24.1131 31.412 23.9399 31.2984 23.8858C31.2323 23.8545 31.2144 23.8514 31.2583 23.8793ZM18.6309 24.0327L18.4923 24.1557L18.6423 24.048C18.775 23.9528 18.8181 23.9099 18.7811 23.9099C18.7746 23.9099 18.7071 23.9651 18.6309 24.0327ZM29.2859 24.1253C29.1324 24.2917 28.9952 24.5083 28.9991 24.5778C29 24.5954 29.0342 24.5469 29.0751 24.4699C29.116 24.3929 29.2247 24.2443 29.3168 24.1398C29.5274 23.9009 29.5033 23.8896 29.2859 24.1253ZM16.8115 24.3748C16.7396 24.4361 16.7249 24.4604 16.7748 24.4355C16.8482 24.3992 16.9858 24.2674 16.9466 24.2713C16.9384 24.272 16.8776 24.3186 16.8115 24.3748ZM17.662 24.5127C17.5459 24.7207 17.3097 24.9209 17.0616 25.0214C16.9791 25.0546 16.9124 25.1018 16.9135 25.126C16.9158 25.1795 17.1472 25.6227 17.1499 25.5786C17.1509 25.5614 17.1067 25.4584 17.0517 25.3499C16.9265 25.1029 16.9208 25.1272 17.1237 25.0376C17.3999 24.9154 17.8701 24.4145 17.7868 24.3312C17.7786 24.323 17.7224 24.4046 17.662 24.5127ZM23.0659 24.3578C22.9168 24.3973 22.6342 24.6607 22.6344 24.7601C22.6346 24.7874 22.6703 24.7513 22.7141 24.6795C22.9612 24.2745 23.6134 24.2854 23.8312 24.6982C23.8753 24.7816 23.9122 24.83 23.9132 24.8057C23.9241 24.5335 23.4162 24.265 23.0659 24.3578ZM26.5963 24.3566C26.4388 24.401 26.2571 24.5559 26.1724 24.7178C26.0807 24.8932 26.1092 24.9041 26.2072 24.731C26.4618 24.2821 27.0836 24.2636 27.3129 24.6982C27.357 24.7816 27.3939 24.8355 27.3949 24.8179C27.4099 24.5429 26.9265 24.2636 26.5963 24.3566ZM30.2604 24.3568C29.9732 24.4202 29.6717 24.7612 29.6803 25.0126C29.6818 25.055 29.7065 25.0151 29.7351 24.9236C29.8914 24.4237 30.4638 24.2149 30.875 24.5075C31.3837 24.8697 31.2889 26.2949 30.7401 26.5338C30.6562 26.5703 30.6417 26.5873 30.6935 26.5884C31.132 26.5976 31.4175 25.3736 31.1175 24.7702C30.9505 24.434 30.6241 24.2766 30.2604 24.3568ZM34.5198 24.4405C34.5198 24.4755 34.4793 24.5121 34.4298 24.5217L34.3398 24.5391L34.4312 24.5444C34.5191 24.5498 34.5963 24.4527 34.5449 24.4015C34.5311 24.3878 34.5198 24.4053 34.5198 24.4405ZM31.8419 24.5549C31.8402 24.5685 31.8667 24.6586 31.9013 24.7549C32.0502 25.1713 32.015 25.9195 31.8243 26.3913C31.7689 26.5288 31.7418 26.6228 31.7643 26.6005C31.9598 26.4051 32.1005 25.4496 32.0017 24.9899C31.9587 24.7902 31.8499 24.494 31.8419 24.5549ZM18.7428 24.7381C18.7927 24.7476 18.8648 24.7475 18.903 24.7373C18.9412 24.7274 18.9005 24.7196 18.8126 24.7199C18.7245 24.7203 18.6932 24.7285 18.7428 24.7381ZM24.7154 25.982C24.7154 27.3074 24.7387 27.2302 24.3372 27.2295C23.9271 27.2285 23.9577 27.3223 23.9449 26.028L23.9336 24.89L23.9243 26.0385C23.9134 27.3676 23.8797 27.2701 24.3496 27.2701C24.7786 27.2701 24.7553 27.3437 24.7553 25.9871C24.7553 25.3507 24.7463 24.83 24.7353 24.83C24.7244 24.83 24.7154 25.3484 24.7154 25.982ZM25.2212 25.0544C25.2071 25.157 25.1981 25.36 25.2013 25.5056C25.2061 25.7201 25.213 25.687 25.2386 25.3304C25.2716 24.8663 25.2638 24.7425 25.2212 25.0544ZM26.0452 25.1898C26.0452 25.2668 26.0534 25.2983 26.0635 25.2599C26.0737 25.2214 26.0737 25.1583 26.0635 25.1199C26.0534 25.0813 26.0452 25.1129 26.0452 25.1898ZM15.2497 25.2C15.2396 25.2275 15.2266 25.6909 15.2211 26.2299L15.2107 27.21L14.88 27.2216C14.5673 27.2327 14.5471 27.2283 14.5123 27.1416C14.4764 27.0522 14.4754 27.052 14.4729 27.1357C14.4697 27.2478 14.5379 27.27 14.8859 27.27C15.2919 27.27 15.2707 27.3299 15.2707 26.182V25.1898H15.7097C16.1475 25.1898 16.1488 25.1902 16.2084 25.2999C16.2793 25.4307 16.291 25.3969 16.2248 25.2517C16.1713 25.1344 15.2914 25.0876 15.2497 25.2ZM29.6516 25.4699C29.6516 25.6569 29.6585 25.7335 29.6669 25.6399C29.6753 25.5465 29.6753 25.3935 29.6669 25.2999C29.6585 25.2065 29.6516 25.2829 29.6516 25.4699ZM28.85 25.4699C28.85 25.6129 28.8573 25.6714 28.8662 25.5999C28.875 25.5285 28.875 25.4114 28.8662 25.34C28.8573 25.2683 28.85 25.327 28.85 25.4699ZM18.5462 25.4599C18.3769 25.6126 18.2336 25.8653 18.2344 26.01C18.2347 26.054 18.2689 25.9909 18.3104 25.87C18.3647 25.7119 18.4386 25.602 18.5732 25.48C18.676 25.3864 18.7495 25.31 18.7365 25.31C18.7234 25.31 18.6377 25.3774 18.5462 25.4599ZM16.2747 25.45C16.2747 25.472 16.3091 25.553 16.3513 25.6299C16.3936 25.7069 16.428 25.752 16.428 25.73C16.428 25.7079 16.3936 25.6269 16.3513 25.5499C16.3091 25.4729 16.2747 25.4278 16.2747 25.45ZM20.3732 25.6901C18.9813 25.6978 20.4295 26.2948 20.3732 25.6901ZM17.2359 25.8099C17.2359 25.832 17.3511 26.075 17.492 26.3501C17.6326 26.6249 17.7478 26.832 17.7478 26.81C17.7478 26.788 17.6326 26.5451 17.492 26.27C17.3511 25.995 17.2359 25.7879 17.2359 25.8099ZM25.2449 25.9499C25.2449 26.0271 25.2531 26.0584 25.263 26.02C25.2732 25.9814 25.2732 25.9184 25.263 25.88C25.2531 25.8414 25.2449 25.8729 25.2449 25.9499ZM16.4748 25.8739C16.4673 25.9258 17.0767 27.2085 17.1228 27.2377C17.333 27.3712 17.9691 27.2398 17.8757 27.0822C17.8382 27.0188 17.8342 27.0222 17.8426 27.1101C17.852 27.21 17.852 27.21 17.492 27.21H17.1318L17.041 27.0301C16.9911 26.9311 16.844 26.6249 16.7142 26.3501C16.5845 26.075 16.4767 25.8607 16.4748 25.8739ZM27.3807 26.0878C27.3402 26.2492 27.2095 26.4232 27.0608 26.5138C26.9924 26.5556 26.9582 26.5898 26.985 26.5898C27.1256 26.5903 27.4686 26.1461 27.426 26.0185C27.4172 25.9921 27.397 26.0234 27.3807 26.0878ZM28.9194 26.0985C28.9043 26.4515 29.6018 27.2398 29.9178 27.2268C29.9507 27.2255 29.8995 27.1897 29.8039 27.1473C29.4254 26.9792 29.1617 26.6964 29.0142 26.2994C28.9631 26.1623 28.9205 26.0717 28.9194 26.0985ZM29.7195 26.0826C29.7139 26.1833 29.9214 26.4494 30.0579 26.517C30.1018 26.5388 30.0789 26.5084 30.0069 26.4496C29.9348 26.3909 29.8412 26.2769 29.7986 26.1963C29.756 26.1159 29.7204 26.0647 29.7195 26.0826ZM18.1961 26.2534C18.1984 26.3395 18.2149 26.4549 18.233 26.5099C18.2533 26.5722 18.2573 26.5191 18.2435 26.3699C18.2175 26.092 18.1904 26.0249 18.1961 26.2534ZM25.2812 26.1501C25.2812 26.1829 25.2967 26.246 25.3156 26.2901C25.3372 26.3405 25.35 26.3478 25.35 26.3099C25.35 26.2769 25.3345 26.2141 25.3156 26.1699C25.2938 26.1195 25.2812 26.1122 25.2812 26.1501ZM26.2728 26.4045C26.3261 26.4702 26.4761 26.5693 26.4761 26.539C26.4761 26.5313 26.4176 26.4822 26.3461 26.4299C26.2655 26.3711 26.2376 26.3613 26.2728 26.4045ZM25.3574 26.402C25.3565 26.4196 25.3848 26.4916 25.4207 26.5621C25.7803 27.2704 26.7134 27.5329 27.2949 27.0894L27.4766 26.9507V27.069C27.4766 27.2254 27.5687 27.27 27.8909 27.27C28.1735 27.27 28.2769 27.2453 28.2769 27.1777C28.2769 27.1485 28.2611 27.15 28.229 27.1821C28.1791 27.232 27.6943 27.2495 27.58 27.2058C27.5395 27.1903 27.5166 27.1326 27.5166 27.0457C27.5166 26.8788 27.5183 26.8788 27.2953 27.049C26.7195 27.4881 25.8034 27.2316 25.4417 26.53C25.3962 26.4419 25.3584 26.3844 25.3574 26.402ZM26.7067 26.6182C26.7564 26.6278 26.8285 26.6274 26.8669 26.6175C26.9051 26.6075 26.8644 26.5997 26.7763 26.6001C26.6882 26.6005 26.6569 26.6087 26.7067 26.6182ZM30.348 26.6182C30.3975 26.6278 30.4785 26.6278 30.528 26.6182C30.5777 26.6087 30.5371 26.6009 30.438 26.6009C30.339 26.6009 30.2985 26.6087 30.348 26.6182ZM31.5564 26.8134C31.3923 26.984 31.1391 27.1395 30.9067 27.2121C30.814 27.2409 30.7741 27.266 30.8182 27.2673C30.964 27.2721 31.3756 27.0421 31.5568 26.8547C31.655 26.7531 31.7261 26.67 31.7148 26.67C31.7036 26.67 31.6323 26.7346 31.5564 26.8134ZM18.3448 26.81C18.4952 27.1044 18.8372 27.2747 19.3127 27.2925L19.6528 27.3051L19.3089 27.2713C18.9018 27.2314 18.624 27.1078 18.4321 26.8815C18.3616 26.7982 18.3224 26.7661 18.3448 26.81ZM20.2207 27.0671L20.3885 26.9559C20.3885 26.9559 20.2089 27.075 20.2207 27.0671ZM30.3071 27.299C30.3782 27.3078 30.5041 27.308 30.5872 27.2992C30.6701 27.2906 30.6121 27.2833 30.458 27.2831C30.304 27.283 30.236 27.29 30.3071 27.299Z" fill="#F29CA7"/>
<path fill-rule="evenodd" clip-rule="evenodd" d="M35.7528 22.4366C35.7969 22.4929 35.7937 22.5097 35.7327 22.5453C35.6929 22.5684 35.6807 22.5879 35.7056 22.5884C35.8019 22.5911 35.8451 22.4832 35.7711 22.4251C35.7077 22.3755 35.7059 22.3766 35.7528 22.4366ZM14.489 25.0699C14.489 26.181 14.4941 26.6354 14.5004 26.08C14.5067 25.5245 14.5067 24.6153 14.5004 24.0598C14.4941 23.5043 14.489 23.9588 14.489 25.0699ZM22.5635 23.9099C22.5635 23.9868 22.5717 24.0184 22.5818 23.9798C22.592 23.9414 22.592 23.8784 22.5818 23.8398C22.5717 23.8014 22.5635 23.8329 22.5635 23.9099ZM32.6173 25.4699C32.6173 26.3829 32.6225 26.7565 32.629 26.3C32.6355 25.8435 32.6355 25.0964 32.629 24.6399C32.6225 24.1834 32.6173 24.5568 32.6173 25.4699ZM31.4784 24.0898C31.5532 24.1668 31.6233 24.2298 31.6342 24.2298C31.6453 24.2298 31.5931 24.1668 31.5186 24.0898C31.4439 24.0128 31.3737 23.9498 31.3628 23.9498C31.3518 23.9498 31.4039 24.0128 31.4784 24.0898ZM22.5719 26.05C22.5719 26.666 22.5774 26.9124 22.5841 26.5976C22.591 26.2828 22.591 25.7787 22.5841 25.4775C22.5774 25.1763 22.5719 25.434 22.5719 26.05ZM15.2568 25.14C15.2466 25.1564 15.385 25.165 15.5646 25.1591C16.1257 25.1406 16.1891 25.1236 15.7234 25.1167C15.4771 25.1129 15.2671 25.1234 15.2568 25.14ZM26.0091 25.4899C26.0092 25.6439 26.0165 25.702 26.0251 25.6191C26.0337 25.536 26.0337 25.4101 26.0247 25.339C26.0159 25.268 26.0089 25.336 26.0091 25.4899ZM27.4858 25.4699C27.4858 25.5468 27.4942 25.5784 27.5041 25.54C27.5143 25.5014 27.5143 25.4384 27.5041 25.4C27.4942 25.3614 27.4858 25.3929 27.4858 25.4699ZM31.2476 25.51C31.2476 25.587 31.2558 25.6185 31.266 25.5799C31.2761 25.5415 31.2761 25.4785 31.266 25.4399C31.2558 25.4015 31.2476 25.433 31.2476 25.51ZM21.8695 27.2018C21.8872 27.2194 22.0439 27.2281 22.2178 27.2215L22.5343 27.2094L22.1859 27.1898C21.9942 27.1789 21.8519 27.1844 21.8695 27.2018ZM14.7005 27.2194C14.7941 27.2278 14.9472 27.2278 15.0407 27.2194C15.1343 27.211 15.0577 27.2041 14.8706 27.2041C14.6835 27.2041 14.6071 27.211 14.7005 27.2194ZM17.323 27.2196C17.4281 27.2278 17.5904 27.2278 17.6832 27.2194C17.7761 27.211 17.6899 27.2041 17.492 27.2043C17.2938 27.2045 17.2177 27.2111 17.323 27.2196ZM24.186 27.2194C24.2803 27.2278 24.4243 27.2278 24.5063 27.2192C24.5883 27.2106 24.5113 27.2037 24.3351 27.2037C24.1591 27.2039 24.092 27.211 24.186 27.2194ZM27.7478 27.2194C27.842 27.2278 27.9859 27.2278 28.0679 27.2192C28.1498 27.2106 28.0728 27.2037 27.8968 27.2037C27.7206 27.2039 27.6536 27.211 27.7478 27.2194ZM32.8302 27.2194C32.9242 27.2278 33.0683 27.2278 33.1503 27.2192C33.2323 27.2106 33.1553 27.2037 32.9793 27.2037C32.8031 27.2039 32.736 27.211 32.8302 27.2194ZM35.2714 27.2194C35.3654 27.2278 35.5095 27.2278 35.5915 27.2192C35.6735 27.2106 35.5964 27.2037 35.4204 27.2037C35.2443 27.2039 35.1772 27.211 35.2714 27.2194Z" fill="#ECF9F5"/>
</svg>
