<svg width="50" height="50" viewBox="0 0 50 50" fill="none" xmlns="http://www.w3.org/2000/svg">
<rect width="50" height="50" fill="#E85E26"/>
<path d="M30.0872 7H10.9621C11.2522 7.29217 11.5423 7.59478 11.806 7.91303C13.9474 10.48 15.0762 13.7043 15.0762 17.2521C15.0762 22.7303 12.7448 27.6711 9 30.9998H20.7092L26.2738 17.3199H19.3115L20.4719 12.0139H34.3015L27.0386 30.9998H29.8868C36.5167 31.0415 41 25.5946 41 18.979C41 12.3634 36.7277 7 30.0819 7" fill="white"/>
<path fill-rule="evenodd" clip-rule="evenodd" d="M32.5869 36.6953C33.8213 36.6953 34.2393 37.8856 34.2393 38.9336C34.2393 40.1503 33.6565 41.0781 32.5986 41.0781C32.0782 41.0781 31.6767 40.9061 31.3916 40.5869V42.625H30.665V36.7734H31.3291L31.3643 37.2373C31.6513 36.8827 32.0573 36.6953 32.5869 36.6953ZM32.376 37.3047C31.8936 37.3047 31.5842 37.5456 31.3916 37.8877V39.9023C31.5769 40.2412 31.8833 40.4843 32.3838 40.4844C33.1838 40.4844 33.5127 39.7611 33.5127 38.9336C33.5127 38.2018 33.2357 37.3047 32.376 37.3047Z" fill="white"/>
<path d="M11.4219 39.5078C11.4219 40.2661 11.81 40.4648 12.1992 40.4648C12.7985 40.4648 13.1384 40.2206 13.3008 39.8408V36.7734H14.0273V41H13.3359L13.3203 40.5771C13.0581 40.8905 12.6582 41.0781 12.0859 41.0781C11.2723 41.0781 10.6992 40.6319 10.6992 39.5V36.7734H11.4219V39.5078Z" fill="white"/>
<path fill-rule="evenodd" clip-rule="evenodd" d="M36.7275 36.6953C37.916 36.6953 38.6572 37.6179 38.6572 38.8438C38.6572 39.9974 37.9532 41.0781 36.7354 41.0781C35.515 41.078 34.8096 40.0013 34.8096 38.8438C34.8096 37.611 35.5616 36.6954 36.7275 36.6953ZM36.7275 37.2891C35.8618 37.2892 35.5322 38.1829 35.5322 38.9336C35.5322 39.7709 35.9301 40.4842 36.7354 40.4844C37.6305 40.4844 37.9307 39.5957 37.9307 38.8438C37.9307 38.0059 37.5341 37.2891 36.7275 37.2891Z" fill="white"/>
<path d="M43.1309 36.7734H43.9199V37.3281H43.1309V39.9531C43.1309 40.0964 43.153 40.2044 43.1973 40.2773C43.347 40.5237 43.6991 40.4647 43.9355 40.4102L43.9395 41C43.6064 41.106 43.2127 41.1242 42.8926 40.9727C42.5949 40.8316 42.4082 40.51 42.4082 39.9492V37.3281H41.6348V36.7734H42.4082V35.7461H43.1309V36.7734Z" fill="white"/>
<path fill-rule="evenodd" clip-rule="evenodd" d="M7.86328 35.3125C9.02892 35.3125 9.71875 35.7661 9.71875 36.8281C9.71875 37.3506 9.39767 37.7803 8.87793 38.0049C9.5126 38.1732 9.87109 38.7174 9.87109 39.3594C9.87109 40.4119 9.14023 41 7.99219 41H6V35.3125H7.86328ZM6.75391 38.3398V40.3867H7.99219C8.72006 40.3867 9.12109 39.9844 9.12109 39.3672C9.12109 38.7344 8.79297 38.3398 8.02734 38.3398H6.75391ZM6.75391 37.7344H7.88672C8.53997 37.7344 8.96484 37.3823 8.96484 36.8203C8.96484 36.1947 8.61623 35.9297 7.86328 35.9297H6.75391V37.7344Z" fill="white"/>
<path d="M15.7539 41H15.0273V35H15.7539V41Z" fill="white"/>
<path d="M17.4805 38.626L19.1797 36.7734H20.0625L18.415 38.5352L20.2539 41H19.4023L17.9355 39.0391L17.4805 39.5117V41H16.7539V35H17.4805V38.626Z" fill="white"/>
<path d="M26.1572 35.9297H23.3369V37.7578H25.7979V38.3711H23.3369V40.3867H26.1963V41H22.583V35.3125H26.1572V35.9297Z" fill="white"/>
<path d="M28.2744 38.3125L29.2119 36.7734H30.0596L28.6768 38.8594L30.1025 41H29.2666L28.29 39.4141L27.3135 41H26.4736L27.8955 38.8594L26.5166 36.7734H27.3486L28.2744 38.3125Z" fill="white"/>
<path d="M41.4463 36.75L41.4424 37.4219C40.9312 37.3109 40.3442 37.4864 40.126 37.9971V41H39.4033V36.7734H40.1064L40.1201 37.2588C40.122 37.2558 40.1241 37.253 40.126 37.25C40.3674 36.8554 40.9861 36.5217 41.4463 36.75Z" fill="white"/>
</svg>
