<svg width="50" height="50" viewBox="0 0 50 50" fill="none" xmlns="http://www.w3.org/2000/svg">
<path d="M19.8481 38V44.3984H19V38H19.8481Z" fill="black"/>
<path d="M23.1221 44.3984H21.7861L21.7949 43.7085H23.1221C23.5791 43.7085 23.96 43.6133 24.2646 43.4229C24.5693 43.2295 24.7979 42.96 24.9502 42.6143C25.1055 42.2656 25.1831 41.8584 25.1831 41.3926V41.0015C25.1831 40.6353 25.1392 40.3101 25.0513 40.0259C24.9634 39.7388 24.8345 39.4971 24.6646 39.3008C24.4946 39.1016 24.2866 38.9507 24.0405 38.8481C23.7974 38.7456 23.5176 38.6943 23.2012 38.6943H21.7598V38H23.2012C23.6201 38 24.0024 38.0703 24.3481 38.2109C24.6938 38.3486 24.9912 38.5493 25.2402 38.813C25.4922 39.0737 25.6855 39.3901 25.8203 39.7622C25.9551 40.1313 26.0225 40.5474 26.0225 41.0103V41.3926C26.0225 41.8555 25.9551 42.2729 25.8203 42.645C25.6855 43.0142 25.4907 43.3291 25.2358 43.5898C24.9839 43.8506 24.6792 44.0513 24.3218 44.1919C23.9673 44.3296 23.5674 44.3984 23.1221 44.3984ZM22.2388 38V44.3984H21.3906V38H22.2388Z" fill="black"/>
<path d="M27.2969 38H29.415C29.8955 38 30.3013 38.0732 30.6323 38.2197C30.9663 38.3662 31.2197 38.583 31.3926 38.8701C31.5684 39.1543 31.6562 39.5044 31.6562 39.9204C31.6562 40.2134 31.5962 40.4814 31.4761 40.7246C31.3589 40.9648 31.189 41.1699 30.9663 41.3398C30.7466 41.5068 30.4829 41.6313 30.1753 41.7134L29.938 41.8057H27.9473L27.9385 41.1157H29.4414C29.7461 41.1157 29.9995 41.063 30.2017 40.9575C30.4038 40.8491 30.5562 40.7041 30.6587 40.5225C30.7612 40.3408 30.8125 40.1401 30.8125 39.9204C30.8125 39.6743 30.7642 39.459 30.6675 39.2744C30.5708 39.0898 30.4185 38.9478 30.2104 38.8481C30.0054 38.7456 29.7402 38.6943 29.415 38.6943H28.145V44.3984H27.2969V38ZM31.0366 44.3984L29.481 41.498L30.3643 41.4937L31.9419 44.3457V44.3984H31.0366Z" fill="black"/>
<path d="M30.0641 6H9.14604C9.46333 6.32869 9.78062 6.66912 10.0691 7.02716C12.4112 9.91496 13.6458 13.5423 13.6458 17.5336C13.6458 23.6966 11.0959 29.255 7 32.9997H19.807L25.8932 17.6099H18.2782L19.5474 11.6406H34.6735L26.7297 32.9997H29.8449C37.0964 33.0467 42 26.9189 42 19.4764C42 12.0339 37.3272 6 30.0583 6" fill="#E85E26"/>
</svg>
