<svg width="50" height="50" viewBox="0 0 50 50" fill="none" xmlns="http://www.w3.org/2000/svg">
<rect width="50" height="50" fill="#E85E26"/>
<path d="M31.0641 6.5H10.146C10.4633 6.82869 10.7806 7.16912 11.0691 7.52716C13.4112 10.415 14.6458 14.0423 14.6458 18.0336C14.6458 24.1966 12.0959 29.755 8 33.4997H20.807L26.8932 18.1099H19.2782L20.5474 12.1406H35.6735L27.7297 33.4997H30.8449C38.0964 33.5467 43 27.4189 43 19.9764C43 12.5339 38.3272 6.5 31.0583 6.5" fill="white"/>
<path d="M20.4253 43.0664L21.6953 38.6016H22.3105L21.9546 40.3374L20.5879 45H19.9771L20.4253 43.0664ZM19.1113 38.6016L20.1221 42.9785L20.4253 45H19.8188L18.2676 38.6016H19.1113ZM23.9541 42.9741L24.9429 38.6016H25.791L24.2441 45H23.6377L23.9541 42.9741ZM22.4028 38.6016L23.6377 43.0664L24.0859 45H23.4751L22.1567 40.3374L21.7964 38.6016H22.4028Z" fill="white"/>
<path d="M30.9106 41.3525V42.0425H27.4478V41.3525H30.9106ZM27.5796 38.6016V45H26.7314V38.6016H27.5796ZM31.6489 38.6016V45H30.8052V38.6016H31.6489Z" fill="white"/>
</svg>
