<svg width="50" height="50" viewBox="0 0 50 50" fill="none" xmlns="http://www.w3.org/2000/svg">
<path d="M30.0641 6H9.14604C9.46333 6.32869 9.78062 6.66912 10.0691 7.02716C12.4112 9.91496 13.6458 13.5423 13.6458 17.5336C13.6458 23.6966 11.0959 29.255 7 32.9997H19.807L25.8932 17.6099H18.2782L19.5474 11.6406H34.6735L26.7297 32.9997H29.8449C37.0964 33.0467 42 26.9189 42 19.4764C42 12.0339 37.3272 6 30.0583 6" fill="#E85E26"/>
<path d="M12.1113 39.1685L9.99316 45H9.12744L11.5664 38.6016H12.1245L12.1113 39.1685ZM13.8867 45L11.7642 39.1685L11.751 38.6016H12.3091L14.7568 45H13.8867ZM13.7769 42.6313V43.3257H10.1821V42.6313H13.7769Z" fill="#1C1D1F"/>
<path d="M16.3037 41.1592V46.8281H15.4863V40.2451H16.2334L16.3037 41.1592ZM19.5073 42.583V42.6753C19.5073 43.021 19.4663 43.3418 19.3843 43.6377C19.3022 43.9307 19.1821 44.1855 19.0239 44.4023C18.8687 44.6191 18.6768 44.7876 18.4482 44.9077C18.2197 45.0278 17.9575 45.0879 17.6616 45.0879C17.3599 45.0879 17.0933 45.0381 16.8618 44.9385C16.6304 44.8389 16.4341 44.6938 16.2729 44.5034C16.1118 44.313 15.9829 44.0845 15.8862 43.8179C15.7925 43.5513 15.728 43.251 15.6929 42.917V42.4248C15.728 42.0732 15.7939 41.7583 15.8906 41.48C15.9873 41.2017 16.1147 40.9644 16.2729 40.7681C16.4341 40.5688 16.6289 40.418 16.8574 40.3154C17.0859 40.21 17.3496 40.1572 17.6484 40.1572C17.9473 40.1572 18.2124 40.2158 18.4438 40.333C18.6753 40.4473 18.8701 40.6113 19.0283 40.8252C19.1865 41.0391 19.3052 41.2954 19.3843 41.5942C19.4663 41.8901 19.5073 42.2197 19.5073 42.583ZM18.6899 42.6753V42.583C18.6899 42.3457 18.665 42.123 18.6152 41.915C18.5654 41.7041 18.4878 41.5195 18.3823 41.3613C18.2798 41.2002 18.1479 41.0742 17.9868 40.9834C17.8257 40.8896 17.6338 40.8428 17.4111 40.8428C17.2061 40.8428 17.0273 40.8779 16.875 40.9482C16.7256 41.0186 16.5981 41.1138 16.4927 41.2339C16.3872 41.3511 16.3008 41.4858 16.2334 41.6382C16.1689 41.7876 16.1206 41.9429 16.0884 42.104V43.2422C16.147 43.4473 16.229 43.6406 16.3345 43.8223C16.4399 44.001 16.5806 44.146 16.7563 44.2573C16.9321 44.3657 17.1533 44.4199 17.4199 44.4199C17.6396 44.4199 17.8286 44.3745 17.9868 44.2837C18.1479 44.1899 18.2798 44.0625 18.3823 43.9014C18.4878 43.7402 18.5654 43.5557 18.6152 43.3477C18.665 43.1367 18.6899 42.9126 18.6899 42.6753Z" fill="#1C1D1F"/>
<path d="M21.3574 41.1592V46.8281H20.54V40.2451H21.2871L21.3574 41.1592ZM24.561 42.583V42.6753C24.561 43.021 24.52 43.3418 24.438 43.6377C24.356 43.9307 24.2358 44.1855 24.0776 44.4023C23.9224 44.6191 23.7305 44.7876 23.502 44.9077C23.2734 45.0278 23.0112 45.0879 22.7153 45.0879C22.4136 45.0879 22.147 45.0381 21.9155 44.9385C21.6841 44.8389 21.4878 44.6938 21.3267 44.5034C21.1655 44.313 21.0366 44.0845 20.9399 43.8179C20.8462 43.5513 20.7817 43.251 20.7466 42.917V42.4248C20.7817 42.0732 20.8477 41.7583 20.9443 41.48C21.041 41.2017 21.1685 40.9644 21.3267 40.7681C21.4878 40.5688 21.6826 40.418 21.9111 40.3154C22.1396 40.21 22.4033 40.1572 22.7021 40.1572C23.001 40.1572 23.2661 40.2158 23.4976 40.333C23.729 40.4473 23.9238 40.6113 24.082 40.8252C24.2402 41.0391 24.3589 41.2954 24.438 41.5942C24.52 41.8901 24.561 42.2197 24.561 42.583ZM23.7437 42.6753V42.583C23.7437 42.3457 23.7188 42.123 23.6689 41.915C23.6191 41.7041 23.5415 41.5195 23.436 41.3613C23.3335 41.2002 23.2017 41.0742 23.0405 40.9834C22.8794 40.8896 22.6875 40.8428 22.4648 40.8428C22.2598 40.8428 22.0811 40.8779 21.9287 40.9482C21.7793 41.0186 21.6519 41.1138 21.5464 41.2339C21.4409 41.3511 21.3545 41.4858 21.2871 41.6382C21.2227 41.7876 21.1743 41.9429 21.1421 42.104V43.2422C21.2007 43.4473 21.2827 43.6406 21.3882 43.8223C21.4937 44.001 21.6343 44.146 21.8101 44.2573C21.9858 44.3657 22.207 44.4199 22.4736 44.4199C22.6934 44.4199 22.8823 44.3745 23.0405 44.2837C23.2017 44.1899 23.3335 44.0625 23.436 43.9014C23.5415 43.7402 23.6191 43.5557 23.6689 43.3477C23.7188 43.1367 23.7437 42.9126 23.7437 42.6753Z" fill="#1C1D1F"/>
<path d="M29.1313 43.3828C29.1313 43.2334 29.1079 43.1016 29.061 42.9873C29.0171 42.8701 28.938 42.7646 28.8237 42.6709C28.7124 42.5771 28.5571 42.4878 28.3579 42.4028C28.1616 42.3179 27.9126 42.2314 27.6108 42.1436C27.2944 42.0498 27.0088 41.9458 26.7539 41.8315C26.499 41.7144 26.2808 41.5811 26.0991 41.4316C25.9175 41.2822 25.7783 41.1108 25.6816 40.9175C25.585 40.7241 25.5366 40.5029 25.5366 40.2539C25.5366 40.0049 25.5879 39.7749 25.6904 39.564C25.793 39.353 25.9395 39.1699 26.1299 39.0146C26.3232 38.8564 26.5532 38.7334 26.8198 38.6455C27.0864 38.5576 27.3838 38.5137 27.7119 38.5137C28.1924 38.5137 28.5996 38.606 28.9336 38.7905C29.2705 38.9722 29.5269 39.2109 29.7026 39.5068C29.8784 39.7998 29.9663 40.1133 29.9663 40.4473H29.1226C29.1226 40.207 29.0713 39.9946 28.9688 39.8101C28.8662 39.6226 28.7109 39.4761 28.5029 39.3706C28.2949 39.2622 28.0312 39.208 27.7119 39.208C27.4102 39.208 27.1611 39.2534 26.9648 39.3442C26.7686 39.4351 26.6221 39.5581 26.5254 39.7134C26.4316 39.8687 26.3848 40.0459 26.3848 40.2451C26.3848 40.3799 26.4126 40.5029 26.4683 40.6143C26.5269 40.7227 26.6162 40.8237 26.7363 40.9175C26.8594 41.0112 27.0146 41.0977 27.2021 41.1768C27.3926 41.2559 27.6196 41.332 27.8833 41.4053C28.2466 41.5078 28.5601 41.6221 28.8237 41.748C29.0874 41.874 29.3042 42.0161 29.4741 42.1743C29.647 42.3296 29.7744 42.5068 29.8564 42.7061C29.9414 42.9023 29.9839 43.125 29.9839 43.374C29.9839 43.6348 29.9312 43.8706 29.8257 44.0815C29.7202 44.2925 29.5693 44.4727 29.373 44.6221C29.1768 44.7715 28.9409 44.8872 28.6655 44.9692C28.3931 45.0483 28.0884 45.0879 27.7515 45.0879C27.4556 45.0879 27.1641 45.0469 26.877 44.9648C26.5928 44.8828 26.3335 44.7598 26.0991 44.5957C25.8677 44.4316 25.6816 44.2295 25.541 43.9893C25.4033 43.7461 25.3345 43.4648 25.3345 43.1455H26.1782C26.1782 43.3652 26.2207 43.5542 26.3057 43.7124C26.3906 43.8677 26.5063 43.9966 26.6528 44.0991C26.8022 44.2017 26.9707 44.2778 27.1582 44.3276C27.3486 44.3745 27.5464 44.3979 27.7515 44.3979C28.0474 44.3979 28.2979 44.3569 28.5029 44.2749C28.708 44.1929 28.8633 44.0757 28.9688 43.9233C29.0771 43.771 29.1313 43.5908 29.1313 43.3828Z" fill="#1C1D1F"/>
<path d="M32.915 45.0879C32.584 45.0879 32.2837 45.0322 32.0142 44.9209C31.7476 44.8066 31.5176 44.647 31.3242 44.4419C31.1338 44.2368 30.9873 43.9937 30.8848 43.7124C30.7822 43.4312 30.731 43.1235 30.731 42.7896V42.605C30.731 42.2183 30.7881 41.874 30.9023 41.5723C31.0166 41.2676 31.1719 41.0098 31.3682 40.7988C31.5645 40.5879 31.7871 40.4282 32.0361 40.3198C32.2852 40.2114 32.543 40.1572 32.8096 40.1572C33.1494 40.1572 33.4424 40.2158 33.6885 40.333C33.9375 40.4502 34.1411 40.6143 34.2993 40.8252C34.4575 41.0332 34.5747 41.2793 34.6509 41.5635C34.7271 41.8447 34.7651 42.1523 34.7651 42.4863V42.8511H31.2144V42.1875H33.9521V42.126C33.9404 41.915 33.8965 41.71 33.8203 41.5107C33.7471 41.3115 33.6299 41.1475 33.4688 41.0186C33.3076 40.8896 33.0879 40.8252 32.8096 40.8252C32.625 40.8252 32.4551 40.8647 32.2998 40.9438C32.1445 41.02 32.0112 41.1343 31.8999 41.2866C31.7886 41.439 31.7021 41.625 31.6406 41.8447C31.5791 42.0645 31.5483 42.3179 31.5483 42.605V42.7896C31.5483 43.0151 31.5791 43.2275 31.6406 43.4268C31.7051 43.623 31.7974 43.7959 31.9175 43.9453C32.0405 44.0947 32.1885 44.2119 32.3613 44.2969C32.5371 44.3818 32.7363 44.4243 32.959 44.4243C33.2461 44.4243 33.4893 44.3657 33.6885 44.2485C33.8877 44.1313 34.062 43.9746 34.2114 43.7783L34.7036 44.1694C34.6011 44.3247 34.4707 44.4727 34.3125 44.6133C34.1543 44.7539 33.9595 44.8682 33.728 44.9561C33.4995 45.0439 33.2285 45.0879 32.915 45.0879Z" fill="#1C1D1F"/>
<path d="M37.6172 44.4199C37.8105 44.4199 37.9893 44.3804 38.1533 44.3013C38.3174 44.2222 38.4521 44.1138 38.5576 43.9761C38.6631 43.8354 38.7231 43.6758 38.7378 43.4971H39.5112C39.4966 43.7783 39.4014 44.0405 39.2256 44.2837C39.0527 44.5239 38.8257 44.7188 38.5444 44.8682C38.2632 45.0146 37.9541 45.0879 37.6172 45.0879C37.2598 45.0879 36.9478 45.0249 36.6812 44.8989C36.4175 44.7729 36.1978 44.6001 36.022 44.3804C35.8491 44.1606 35.7188 43.9087 35.6309 43.6245C35.5459 43.3374 35.5034 43.0342 35.5034 42.7148V42.5303C35.5034 42.2109 35.5459 41.9092 35.6309 41.625C35.7188 41.3379 35.8491 41.0845 36.022 40.8647C36.1978 40.645 36.4175 40.4722 36.6812 40.3462C36.9478 40.2202 37.2598 40.1572 37.6172 40.1572C37.9893 40.1572 38.3145 40.2334 38.5928 40.3857C38.8711 40.5352 39.0894 40.7402 39.2476 41.001C39.4087 41.2588 39.4966 41.5518 39.5112 41.8799H38.7378C38.7231 41.6836 38.6675 41.5063 38.5708 41.3481C38.4771 41.1899 38.3481 41.064 38.1841 40.9702C38.0229 40.8735 37.834 40.8252 37.6172 40.8252C37.3682 40.8252 37.1587 40.875 36.9888 40.9746C36.8218 41.0713 36.6885 41.2031 36.5889 41.3701C36.4922 41.5342 36.4219 41.7173 36.3779 41.9194C36.3369 42.1187 36.3164 42.3223 36.3164 42.5303V42.7148C36.3164 42.9229 36.3369 43.1279 36.3779 43.3301C36.4189 43.5322 36.4878 43.7153 36.5845 43.8794C36.6841 44.0435 36.8174 44.1753 36.9844 44.2749C37.1543 44.3716 37.3652 44.4199 37.6172 44.4199Z" fill="#1C1D1F"/>
</svg>
