<svg width="50" height="50" viewBox="0 0 50 50" fill="none" xmlns="http://www.w3.org/2000/svg">
<path d="M31.0641 6.5H10.146C10.4633 6.82869 10.7806 7.16912 11.0691 7.52716C13.4112 10.415 14.6458 14.0423 14.6458 18.0336C14.6458 24.1966 12.0959 29.755 8 33.4997H20.807L26.8932 18.1099H19.2782L20.5474 12.1406H35.6735L27.7297 33.4997H30.8449C38.0964 33.5467 43 27.4189 43 19.9764C43 12.5339 38.3272 6.5 31.0583 6.5" fill="#E85E26"/>
<path d="M20.4258 43.0664L21.6958 38.6016H22.311L21.9551 40.3374L20.5884 45H19.9775L20.4258 43.0664ZM19.1118 38.6016L20.1226 42.9785L20.4258 45H19.8193L18.2681 38.6016H19.1118ZM23.9546 42.9741L24.9434 38.6016H25.7915L24.2446 45H23.6382L23.9546 42.9741ZM22.4033 38.6016L23.6382 43.0664L24.0864 45H23.4756L22.1572 40.3374L21.7969 38.6016H22.4033Z" fill="black"/>
<path d="M30.9111 41.3525V42.0425H27.4482V41.3525H30.9111ZM27.5801 38.6016V45H26.7319V38.6016H27.5801ZM31.6494 38.6016V45H30.8057V38.6016H31.6494Z" fill="black"/>
</svg>
