<svg width="50" height="50" viewBox="0 0 50 50" fill="none" xmlns="http://www.w3.org/2000/svg">
<path d="M30.0641 6H9.14604C9.46333 6.32869 9.78062 6.66912 10.0691 7.02716C12.4112 9.91496 13.6458 13.5423 13.6458 17.5336C13.6458 23.6966 11.0959 29.255 7 32.9997H19.807L25.8932 17.6099H18.2782L19.5474 11.6406H34.6735L26.7297 32.9997H29.8449C37.0964 33.0467 42 26.9189 42 19.4764C42 12.0339 37.3272 6 30.0583 6" fill="#E85E26"/>
<path d="M28.8848 43.7393H27.9473C27.8952 44.0713 27.8073 44.3561 27.6836 44.5938C27.5632 44.8314 27.3841 45.0137 27.1465 45.1406C26.9089 45.2676 26.5898 45.3311 26.1895 45.3311C25.8737 45.3311 25.6003 45.266 25.3691 45.1357C25.138 45.0023 24.9476 44.82 24.7979 44.5889C24.6481 44.3577 24.5358 44.0892 24.4609 43.7832C24.3893 43.4772 24.3535 43.1501 24.3535 42.8018V42.084C24.3535 41.7064 24.3942 41.363 24.4756 41.0537C24.557 40.7445 24.6774 40.4792 24.8369 40.2578C24.9997 40.0365 25.1999 39.8656 25.4375 39.7451C25.6784 39.6247 25.9567 39.5645 26.2725 39.5645C26.6403 39.5645 26.9382 39.6296 27.166 39.7598C27.3939 39.89 27.5697 40.0755 27.6934 40.3164C27.8171 40.554 27.9017 40.8389 27.9473 41.1709H28.8848C28.8359 40.7021 28.7074 40.2904 28.499 39.9355C28.2939 39.5775 28.0059 39.2975 27.6348 39.0957C27.2637 38.8939 26.8096 38.793 26.2725 38.793C25.833 38.793 25.4375 38.8711 25.0859 39.0273C24.7344 39.1836 24.4333 39.4066 24.1826 39.6963C23.9352 39.986 23.7448 40.3343 23.6113 40.7412C23.4811 41.1449 23.416 41.5957 23.416 42.0938V42.8018C23.416 43.2998 23.4811 43.7523 23.6113 44.1592C23.7448 44.5628 23.9336 44.9095 24.1777 45.1992C24.4219 45.4857 24.7132 45.707 25.0518 45.8633C25.3936 46.0195 25.7728 46.0977 26.1895 46.0977C26.7591 46.0977 27.2344 45.9951 27.6152 45.79C27.9961 45.5817 28.2907 45.3001 28.499 44.9453C28.7074 44.5905 28.8359 44.1885 28.8848 43.7393Z" fill="black"/>
<path d="M20.4521 46V39.6621H22.7373V38.8906H17.2441V39.6621H19.5244V46H20.4521Z" fill="black"/>
</svg>
