<svg width="50" height="50" viewBox="0 0 50 50" fill="none" xmlns="http://www.w3.org/2000/svg">
<path d="M30.0641 6H9.14604C9.46333 6.32869 9.78062 6.66912 10.0691 7.02716C12.4112 9.91496 13.6458 13.5423 13.6458 17.5336C13.6458 23.6966 11.0959 29.255 7 32.9997H19.807L25.8932 17.6099H18.2782L19.5474 11.6406H34.6735L26.7297 32.9997H29.8449C37.0964 33.0467 42 26.9189 42 19.4764C42 12.0339 37.3272 6 30.0583 6" fill="#E85E26"/>
<path d="M20.6807 45.4272L22.5659 40H23.4844L21.1157 46.3984H20.4609L20.6807 45.4272ZM18.9185 40L20.7861 45.4272L21.019 46.3984H20.3643L18 40H18.9185Z" fill="black"/>
<path d="M24.6138 40H25.4355L27.5317 45.2163L29.6235 40H30.4497L27.8481 46.3984H27.2065L24.6138 40ZM24.3457 40H25.0708L25.1895 43.9023V46.3984H24.3457V40ZM29.9883 40H30.7134V46.3984H29.8696V43.9023L29.9883 40Z" fill="black"/>
</svg>
