<svg width="50" height="50" viewBox="0 0 50 50" fill="none" xmlns="http://www.w3.org/2000/svg">
<rect width="50" height="50" fill="#E85E26"/>
<path d="M30.0641 6H9.14604C9.46333 6.32869 9.78062 6.66912 10.0691 7.02716C12.4112 9.91496 13.6458 13.5423 13.6458 17.5336C13.6458 23.6966 11.0959 29.255 7 32.9997H19.807L25.8932 17.6099H18.2782L19.5474 11.6406H34.6735L26.7297 32.9997H29.8449C37.0964 33.0467 42 26.9189 42 19.4764C42 12.0339 37.3272 6 30.0583 6" fill="white"/>
<path d="M12.1108 39.1685L9.99268 45H9.12695L11.5659 38.6016H12.124L12.1108 39.1685ZM13.8862 45L11.7637 39.1685L11.7505 38.6016H12.3086L14.7563 45H13.8862ZM13.7764 42.6313V43.3257H10.1816V42.6313H13.7764Z" fill="white"/>
<path d="M16.3032 41.1592V46.8281H15.4858V40.2451H16.2329L16.3032 41.1592ZM19.5068 42.583V42.6753C19.5068 43.021 19.4658 43.3418 19.3838 43.6377C19.3018 43.9307 19.1816 44.1855 19.0234 44.4023C18.8682 44.6191 18.6763 44.7876 18.4478 44.9077C18.2192 45.0278 17.957 45.0879 17.6611 45.0879C17.3594 45.0879 17.0928 45.0381 16.8613 44.9385C16.6299 44.8389 16.4336 44.6938 16.2725 44.5034C16.1113 44.313 15.9824 44.0845 15.8857 43.8179C15.792 43.5513 15.7275 43.251 15.6924 42.917V42.4248C15.7275 42.0732 15.7935 41.7583 15.8901 41.48C15.9868 41.2017 16.1143 40.9644 16.2725 40.7681C16.4336 40.5688 16.6284 40.418 16.8569 40.3154C17.0854 40.21 17.3491 40.1572 17.6479 40.1572C17.9468 40.1572 18.2119 40.2158 18.4434 40.333C18.6748 40.4473 18.8696 40.6113 19.0278 40.8252C19.186 41.0391 19.3047 41.2954 19.3838 41.5942C19.4658 41.8901 19.5068 42.2197 19.5068 42.583ZM18.6895 42.6753V42.583C18.6895 42.3457 18.6646 42.123 18.6147 41.915C18.5649 41.7041 18.4873 41.5195 18.3818 41.3613C18.2793 41.2002 18.1475 41.0742 17.9863 40.9834C17.8252 40.8896 17.6333 40.8428 17.4106 40.8428C17.2056 40.8428 17.0269 40.8779 16.8745 40.9482C16.7251 41.0186 16.5977 41.1138 16.4922 41.2339C16.3867 41.3511 16.3003 41.4858 16.2329 41.6382C16.1685 41.7876 16.1201 41.9429 16.0879 42.104V43.2422C16.1465 43.4473 16.2285 43.6406 16.334 43.8223C16.4395 44.001 16.5801 44.146 16.7559 44.2573C16.9316 44.3657 17.1528 44.4199 17.4194 44.4199C17.6392 44.4199 17.8281 44.3745 17.9863 44.2837C18.1475 44.1899 18.2793 44.0625 18.3818 43.9014C18.4873 43.7402 18.5649 43.5557 18.6147 43.3477C18.6646 43.1367 18.6895 42.9126 18.6895 42.6753Z" fill="white"/>
<path d="M21.3569 41.1592V46.8281H20.5396V40.2451H21.2866L21.3569 41.1592ZM24.5605 42.583V42.6753C24.5605 43.021 24.5195 43.3418 24.4375 43.6377C24.3555 43.9307 24.2354 44.1855 24.0771 44.4023C23.9219 44.6191 23.73 44.7876 23.5015 44.9077C23.2729 45.0278 23.0107 45.0879 22.7148 45.0879C22.4131 45.0879 22.1465 45.0381 21.915 44.9385C21.6836 44.8389 21.4873 44.6938 21.3262 44.5034C21.165 44.313 21.0361 44.0845 20.9395 43.8179C20.8457 43.5513 20.7812 43.251 20.7461 42.917V42.4248C20.7812 42.0732 20.8472 41.7583 20.9438 41.48C21.0405 41.2017 21.168 40.9644 21.3262 40.7681C21.4873 40.5688 21.6821 40.418 21.9106 40.3154C22.1392 40.21 22.4028 40.1572 22.7017 40.1572C23.0005 40.1572 23.2656 40.2158 23.4971 40.333C23.7285 40.4473 23.9233 40.6113 24.0815 40.8252C24.2397 41.0391 24.3584 41.2954 24.4375 41.5942C24.5195 41.8901 24.5605 42.2197 24.5605 42.583ZM23.7432 42.6753V42.583C23.7432 42.3457 23.7183 42.123 23.6685 41.915C23.6187 41.7041 23.541 41.5195 23.4355 41.3613C23.333 41.2002 23.2012 41.0742 23.04 40.9834C22.8789 40.8896 22.687 40.8428 22.4644 40.8428C22.2593 40.8428 22.0806 40.8779 21.9282 40.9482C21.7788 41.0186 21.6514 41.1138 21.5459 41.2339C21.4404 41.3511 21.354 41.4858 21.2866 41.6382C21.2222 41.7876 21.1738 41.9429 21.1416 42.104V43.2422C21.2002 43.4473 21.2822 43.6406 21.3877 43.8223C21.4932 44.001 21.6338 44.146 21.8096 44.2573C21.9854 44.3657 22.2065 44.4199 22.4731 44.4199C22.6929 44.4199 22.8818 44.3745 23.04 44.2837C23.2012 44.1899 23.333 44.0625 23.4355 43.9014C23.541 43.7402 23.6187 43.5557 23.6685 43.3477C23.7183 43.1367 23.7432 42.9126 23.7432 42.6753Z" fill="white"/>
<path d="M29.1309 43.3828C29.1309 43.2334 29.1074 43.1016 29.0605 42.9873C29.0166 42.8701 28.9375 42.7646 28.8232 42.6709C28.7119 42.5771 28.5566 42.4878 28.3574 42.4028C28.1611 42.3179 27.9121 42.2314 27.6104 42.1436C27.2939 42.0498 27.0083 41.9458 26.7534 41.8315C26.4985 41.7144 26.2803 41.5811 26.0986 41.4316C25.917 41.2822 25.7778 41.1108 25.6812 40.9175C25.5845 40.7241 25.5361 40.5029 25.5361 40.2539C25.5361 40.0049 25.5874 39.7749 25.6899 39.564C25.7925 39.353 25.939 39.1699 26.1294 39.0146C26.3228 38.8564 26.5527 38.7334 26.8193 38.6455C27.0859 38.5576 27.3833 38.5137 27.7114 38.5137C28.1919 38.5137 28.5991 38.606 28.9331 38.7905C29.27 38.9722 29.5264 39.2109 29.7021 39.5068C29.8779 39.7998 29.9658 40.1133 29.9658 40.4473H29.1221C29.1221 40.207 29.0708 39.9946 28.9683 39.8101C28.8657 39.6226 28.7104 39.4761 28.5024 39.3706C28.2944 39.2622 28.0308 39.208 27.7114 39.208C27.4097 39.208 27.1606 39.2534 26.9644 39.3442C26.7681 39.4351 26.6216 39.5581 26.5249 39.7134C26.4312 39.8687 26.3843 40.0459 26.3843 40.2451C26.3843 40.3799 26.4121 40.5029 26.4678 40.6143C26.5264 40.7227 26.6157 40.8237 26.7358 40.9175C26.8589 41.0112 27.0142 41.0977 27.2017 41.1768C27.3921 41.2559 27.6191 41.332 27.8828 41.4053C28.2461 41.5078 28.5596 41.6221 28.8232 41.748C29.0869 41.874 29.3037 42.0161 29.4736 42.1743C29.6465 42.3296 29.7739 42.5068 29.856 42.7061C29.9409 42.9023 29.9834 43.125 29.9834 43.374C29.9834 43.6348 29.9307 43.8706 29.8252 44.0815C29.7197 44.2925 29.5688 44.4727 29.3726 44.6221C29.1763 44.7715 28.9404 44.8872 28.665 44.9692C28.3926 45.0483 28.0879 45.0879 27.751 45.0879C27.4551 45.0879 27.1636 45.0469 26.8765 44.9648C26.5923 44.8828 26.333 44.7598 26.0986 44.5957C25.8672 44.4316 25.6812 44.2295 25.5405 43.9893C25.4028 43.7461 25.334 43.4648 25.334 43.1455H26.1777C26.1777 43.3652 26.2202 43.5542 26.3052 43.7124C26.3901 43.8677 26.5059 43.9966 26.6523 44.0991C26.8018 44.2017 26.9702 44.2778 27.1577 44.3276C27.3481 44.3745 27.5459 44.3979 27.751 44.3979C28.0469 44.3979 28.2974 44.3569 28.5024 44.2749C28.7075 44.1929 28.8628 44.0757 28.9683 43.9233C29.0767 43.771 29.1309 43.5908 29.1309 43.3828Z" fill="white"/>
<path d="M32.9146 45.0879C32.5835 45.0879 32.2832 45.0322 32.0137 44.9209C31.7471 44.8066 31.5171 44.647 31.3237 44.4419C31.1333 44.2368 30.9868 43.9937 30.8843 43.7124C30.7817 43.4312 30.7305 43.1235 30.7305 42.7896V42.605C30.7305 42.2183 30.7876 41.874 30.9019 41.5723C31.0161 41.2676 31.1714 41.0098 31.3677 40.7988C31.564 40.5879 31.7866 40.4282 32.0356 40.3198C32.2847 40.2114 32.5425 40.1572 32.8091 40.1572C33.1489 40.1572 33.4419 40.2158 33.688 40.333C33.937 40.4502 34.1406 40.6143 34.2988 40.8252C34.457 41.0332 34.5742 41.2793 34.6504 41.5635C34.7266 41.8447 34.7646 42.1523 34.7646 42.4863V42.8511H31.2139V42.1875H33.9517V42.126C33.9399 41.915 33.896 41.71 33.8198 41.5107C33.7466 41.3115 33.6294 41.1475 33.4683 41.0186C33.3071 40.8896 33.0874 40.8252 32.8091 40.8252C32.6245 40.8252 32.4546 40.8647 32.2993 40.9438C32.144 41.02 32.0107 41.1343 31.8994 41.2866C31.7881 41.439 31.7017 41.625 31.6401 41.8447C31.5786 42.0645 31.5479 42.3179 31.5479 42.605V42.7896C31.5479 43.0151 31.5786 43.2275 31.6401 43.4268C31.7046 43.623 31.7969 43.7959 31.917 43.9453C32.04 44.0947 32.188 44.2119 32.3608 44.2969C32.5366 44.3818 32.7358 44.4243 32.9585 44.4243C33.2456 44.4243 33.4888 44.3657 33.688 44.2485C33.8872 44.1313 34.0615 43.9746 34.2109 43.7783L34.7031 44.1694C34.6006 44.3247 34.4702 44.4727 34.312 44.6133C34.1538 44.7539 33.959 44.8682 33.7275 44.9561C33.499 45.0439 33.228 45.0879 32.9146 45.0879Z" fill="white"/>
<path d="M37.6167 44.4199C37.8101 44.4199 37.9888 44.3804 38.1528 44.3013C38.3169 44.2222 38.4517 44.1138 38.5571 43.9761C38.6626 43.8354 38.7227 43.6758 38.7373 43.4971H39.5107C39.4961 43.7783 39.4009 44.0405 39.2251 44.2837C39.0522 44.5239 38.8252 44.7188 38.5439 44.8682C38.2627 45.0146 37.9536 45.0879 37.6167 45.0879C37.2593 45.0879 36.9473 45.0249 36.6807 44.8989C36.417 44.7729 36.1973 44.6001 36.0215 44.3804C35.8486 44.1606 35.7183 43.9087 35.6304 43.6245C35.5454 43.3374 35.5029 43.0342 35.5029 42.7148V42.5303C35.5029 42.2109 35.5454 41.9092 35.6304 41.625C35.7183 41.3379 35.8486 41.0845 36.0215 40.8647C36.1973 40.645 36.417 40.4722 36.6807 40.3462C36.9473 40.2202 37.2593 40.1572 37.6167 40.1572C37.9888 40.1572 38.314 40.2334 38.5923 40.3857C38.8706 40.5352 39.0889 40.7402 39.2471 41.001C39.4082 41.2588 39.4961 41.5518 39.5107 41.8799H38.7373C38.7227 41.6836 38.667 41.5063 38.5703 41.3481C38.4766 41.1899 38.3477 41.064 38.1836 40.9702C38.0225 40.8735 37.8335 40.8252 37.6167 40.8252C37.3677 40.8252 37.1582 40.875 36.9883 40.9746C36.8213 41.0713 36.688 41.2031 36.5884 41.3701C36.4917 41.5342 36.4214 41.7173 36.3774 41.9194C36.3364 42.1187 36.3159 42.3223 36.3159 42.5303V42.7148C36.3159 42.9229 36.3364 43.1279 36.3774 43.3301C36.4185 43.5322 36.4873 43.7153 36.584 43.8794C36.6836 44.0435 36.8169 44.1753 36.9839 44.2749C37.1538 44.3716 37.3647 44.4199 37.6167 44.4199Z" fill="white"/>
</svg>
