<svg width="50" height="50" viewBox="0 0 50 50" fill="none" xmlns="http://www.w3.org/2000/svg">
<path fill-rule="evenodd" clip-rule="evenodd" d="M31.1513 32.8926C31.0771 33.7495 29.4799 33.7133 29.3443 32.8201H29.9959C29.9959 32.8201 30.0469 32.9726 30.2852 32.9921L30.308 32.9935C30.308 32.9935 30.6058 33.0031 30.6072 32.7662V32.5551C30.2633 32.8586 29.4172 32.623 29.3895 31.8385C29.3591 30.9997 30.2333 30.7311 30.6072 31.1029V30.9172H31.1513V32.8926ZM30.2697 31.4685C30.0756 31.4685 29.9175 31.6229 29.9175 31.8145C29.9175 32.0061 30.0756 32.1606 30.2697 32.1606C30.4648 32.1606 30.622 32.0052 30.622 31.8145C30.622 31.6238 30.4638 31.4685 30.2697 31.4685Z" fill="#ED1C24"/>
<path fill-rule="evenodd" clip-rule="evenodd" d="M28.4332 30.8515C28.9515 30.8515 29.3849 31.3009 29.3185 31.9599H28.1414C28.1414 32.1116 28.2492 32.2625 28.4572 32.2625C28.6209 32.2625 28.7006 32.1959 28.7288 32.1393H29.2853C29.1839 32.4953 28.9003 32.748 28.4918 32.7602C27.9592 32.7761 27.5558 32.4092 27.5553 31.7738C27.5544 31.2085 27.9887 30.8516 28.4332 30.8515ZM28.4341 31.3231C28.2788 31.3231 28.1506 31.4381 28.133 31.5858H28.7352C28.7177 31.4377 28.5895 31.3231 28.4341 31.3231Z" fill="#ED1C24"/>
<path fill-rule="evenodd" clip-rule="evenodd" d="M37.0178 32.7086H36.4538V32.5569C36.357 32.6307 36.2597 32.6756 36.1436 32.6874C35.6465 32.7259 35.3145 32.32 35.3182 31.8236C35.3182 31.4504 35.5577 30.9754 36.1215 30.9749L36.1486 30.9757C36.1486 30.9757 36.3377 30.9911 36.4538 31.0744V30.2623H37.0178V32.7086ZM36.1413 31.4857C35.9467 31.4857 35.7899 31.6401 35.7899 31.8308C35.7899 32.0215 35.9462 32.176 36.1413 32.176C36.3349 32.176 36.4921 32.0206 36.4921 31.8308C36.4921 31.641 36.3358 31.4857 36.1413 31.4857Z" fill="#ED1C24"/>
<path d="M32.3894 31.3186C32.3894 31.3186 31.8757 31.3475 31.8715 31.7946V32.7082H31.2906V30.9186H31.8706V31.102C31.8722 31.1006 32.1054 30.8869 32.3894 30.8869V31.3186Z" fill="#ED1C24"/>
<path d="M27.4599 32.7077H26.9176V30.2614H27.4599V32.7077Z" fill="#ED1C24"/>
<path fill-rule="evenodd" clip-rule="evenodd" d="M32.8966 30.8878C32.8992 30.8879 33.2604 30.902 33.4144 31.0681C33.5236 31.1868 33.5679 31.2506 33.5679 31.4893V32.7077H33.0409V32.5954C33.0409 32.5954 32.9228 32.6987 32.6955 32.6987C32.4682 32.6987 32.086 32.5642 32.086 32.0945C32.086 31.5623 32.4959 31.4386 32.7015 31.4422C32.8875 31.4454 33.0169 31.5215 33.0169 31.5215C33.0169 31.5215 33.0496 31.3077 32.7822 31.2987C32.5729 31.2914 32.5231 31.3041 32.5231 31.3041V30.8878H32.8966ZM32.8122 31.8195C32.6831 31.8195 32.578 31.9228 32.578 32.0496C32.578 32.1769 32.6836 32.2802 32.8122 32.2802C32.9408 32.2802 33.0459 32.1765 33.0459 32.0496C33.0459 31.9228 32.9413 31.8195 32.8122 31.8195Z" fill="#ED1C24"/>
<path d="M34.2521 31.0857C34.8557 30.7012 35.2149 31.0984 35.2149 31.3679V32.7077H34.6667V31.6528C34.6667 31.3806 34.2521 31.3978 34.2521 31.6528V32.7077H33.6938V30.9177H34.2521V31.0857Z" fill="#ED1C24"/>
<path d="M25.4264 32.792H25.278V31.9663H25.4264V32.792Z" fill="#231F20"/>
<path d="M24.5227 31.9658H25.1959V32.5927H23.9109V30.3266H24.5227V31.9658Z" fill="#231F20"/>
<path d="M26.1204 32.5927H25.5085V30.953H24.8353V30.3261H26.1204V32.5927Z" fill="#231F20"/>
<path fill-rule="evenodd" clip-rule="evenodd" d="M11.6141 31.1011C11.721 30.9834 11.8437 30.9399 12.0106 30.9399C12.1775 30.9399 12.3195 30.9956 12.4108 31.0857C12.5745 31.2465 12.5778 31.5219 12.5778 31.7638C12.5778 32.0056 12.5745 32.2833 12.4108 32.4441L12.4021 32.452C12.3102 32.5368 12.166 32.5895 12.0106 32.5895C11.8377 32.5895 11.7146 32.5429 11.6011 32.4192V32.5709H11.2046V30.3683H11.6141V31.1011ZM11.8912 31.3022C11.645 31.3022 11.6141 31.4997 11.6141 31.7633C11.6141 32.0269 11.6454 32.2271 11.8912 32.2272C12.1369 32.2272 12.1683 32.026 12.1683 31.7633C12.1683 31.5006 12.1365 31.3022 11.8912 31.3022Z" fill="#231F20"/>
<path fill-rule="evenodd" clip-rule="evenodd" d="M18.7854 32.5709H18.3861V32.4192C18.2727 32.5433 18.1523 32.5895 17.9794 32.5895C17.8189 32.5895 17.6672 32.5329 17.5759 32.4437C17.4123 32.2829 17.409 32.0043 17.409 31.7629C17.409 31.5215 17.4123 31.2465 17.5759 31.0857C17.6672 30.9956 17.8157 30.9399 17.9762 30.9399C18.1366 30.9399 18.269 30.9834 18.3764 31.1011V30.3683H18.7854V32.5709ZM18.0961 31.3018C17.8498 31.3018 17.819 31.4997 17.819 31.7629C17.819 32.026 17.8503 32.2272 18.0961 32.2272C18.3418 32.2271 18.3764 32.026 18.3764 31.7629C18.3764 31.4997 18.3414 31.3018 18.0961 31.3018Z" fill="#231F20"/>
<path fill-rule="evenodd" clip-rule="evenodd" d="M20.4066 30.9403C20.6491 30.9403 20.8169 31.0332 20.9174 31.1378C21.0654 31.2896 21.1028 31.4721 21.1028 31.7633C21.1028 32.0546 21.0654 32.2398 20.9174 32.3916C20.8169 32.4966 20.6496 32.5895 20.4066 32.5895C20.1636 32.5895 20.0008 32.4962 19.8994 32.3916C19.7514 32.2398 19.714 32.0573 19.714 31.7633C19.714 31.4694 19.7514 31.2891 19.8994 31.1378C20.0004 31.0327 20.1641 30.9403 20.4066 30.9403ZM20.407 31.3018C20.3245 31.3018 20.266 31.3262 20.2185 31.3729C20.1336 31.4562 20.1239 31.5957 20.1239 31.7629C20.1239 31.93 20.1332 32.0722 20.2185 32.1556C20.266 32.2022 20.3254 32.2272 20.407 32.2272C20.4887 32.2271 20.5518 32.2018 20.5993 32.1556C20.6842 32.0722 20.6943 31.93 20.6943 31.7629C20.6943 31.5957 20.6842 31.4562 20.5993 31.3729C20.5518 31.3262 20.4896 31.3018 20.407 31.3018Z" fill="#231F20"/>
<path fill-rule="evenodd" clip-rule="evenodd" d="M14.72 30.9399C15.1797 30.9399 15.4194 31.1319 15.4194 31.5097V32.5709H15.0192V32.4319C14.9085 32.5397 14.8048 32.5863 14.6157 32.5863C14.4267 32.5863 14.2948 32.5397 14.1966 32.4441C14.1085 32.3544 14.0611 32.2244 14.0611 32.0822C14.0611 31.8254 14.2409 31.6148 14.6218 31.6148H15.0095V31.5346C15.0095 31.3584 14.9214 31.2805 14.7043 31.2805C14.5461 31.2805 14.4737 31.3172 14.3889 31.4141L14.1274 31.1632C14.2879 30.9897 14.4452 30.9399 14.72 30.9399ZM14.6849 31.8897C14.5369 31.8897 14.4553 31.9577 14.4553 32.0727C14.4553 32.1877 14.5309 32.2579 14.6914 32.2579C14.8048 32.2579 14.8776 32.2489 14.95 32.1805C14.9938 32.1406 15.01 32.075 15.01 31.9762V31.8897H14.6849Z" fill="#231F20"/>
<path fill-rule="evenodd" clip-rule="evenodd" d="M10.2262 32.571H9.76926L9.63692 32.181H8.84059L8.70506 32.571H8.24717L9.0633 30.3674H9.40682L10.2262 32.571ZM8.96325 31.8191H9.5207L9.24657 31.018L8.96325 31.8191Z" fill="#231F20"/>
<path d="M16.562 30.9399C16.7257 30.9399 16.858 30.9924 16.9493 31.0821C17.0817 31.2121 17.1167 31.3638 17.1167 31.5405V32.5709H16.7073V31.5962C16.7073 31.3765 16.5657 31.3018 16.4361 31.3018C16.3066 31.3018 16.1618 31.3765 16.1618 31.5962V32.5709H15.7528V30.9589H16.1525V31.1075C16.26 30.9961 16.4112 30.9399 16.562 30.9399Z" fill="#231F20"/>
<path d="M13.6742 30.9394C13.8346 30.9394 13.9486 30.9797 14.062 31.0912L13.753 31.3978C13.6899 31.3358 13.6364 31.3022 13.5354 31.3022C13.4091 31.3022 13.2708 31.3951 13.2707 31.5989V32.5705H12.8618V30.9585H13.2616V31.1129C13.3404 31.0201 13.4976 30.9394 13.6742 30.9394Z" fill="#231F20"/>
<path d="M22.167 30.6835H22.0065C21.9093 30.6836 21.865 30.7356 21.865 30.8289V31.0051H22.167V31.3117H21.865L21.8645 32.5705H21.4551V31.3113H21.2854V31.0047H21.4551V30.8036C21.4551 30.5748 21.5999 30.3429 21.9342 30.3429H22.167V30.6835Z" fill="#231F20"/>
<path d="M24.7528 30.9531H24.6048V30.1273H24.7528V30.9531Z" fill="#231F20"/>
<path fill-rule="evenodd" clip-rule="evenodd" d="M16.7031 19.691C17.3846 19.691 18.0195 19.8585 18.4368 20.2843C18.8702 20.7096 19.1492 21.3034 19.1492 22.1695V27.8254H17.6013V27.1419C17.462 27.339 17.2915 27.5523 17.1061 27.6733C16.858 27.8404 16.5952 27.9473 16.1775 27.9473C15.4964 27.9473 15.063 27.7493 14.6453 27.2778C14.3197 26.8983 14.1501 26.2895 14.1501 25.4842C14.1501 24.7545 14.4129 24.1158 14.9081 23.69C15.3111 23.3404 15.8367 23.1424 16.781 23.1424H17.5086V22.0327C17.5086 21.4398 17.2301 21.1051 16.7192 21.1051C16.4716 21.1051 16.3015 21.1966 16.1779 21.3333C16.0073 21.5159 15.9298 21.7437 15.9298 22.078H14.2893C14.2893 21.4398 14.4747 20.8469 14.9856 20.345C15.3668 19.9705 16.0179 19.6996 16.6724 19.6912L16.7031 19.691ZM16.9668 24.2825C16.6104 24.2825 16.3476 24.3133 16.1152 24.5262C15.9142 24.7087 15.7906 25.1037 15.7906 25.4234C15.7906 26.1261 16.0757 26.5207 16.6158 26.5329L16.6413 26.5332C17.1365 26.5332 17.5082 26.1228 17.5082 25.4687V24.2825H16.9668Z" fill="#231F20"/>
<path fill-rule="evenodd" clip-rule="evenodd" d="M33.2811 19.691C33.9626 19.691 34.597 19.8585 35.0148 20.2843C35.4482 20.7096 35.7272 21.3034 35.7272 22.1695V27.8254H34.1793V27.1419C34.04 27.339 33.8699 27.5523 33.6836 27.6733C33.4365 27.8404 33.1727 27.9473 32.755 27.9473C32.0744 27.9473 31.6406 27.7493 31.2233 27.2778C30.8982 26.8983 30.7276 26.2895 30.7276 25.4842C30.7276 24.7545 30.9909 24.1158 31.4861 23.69C31.8886 23.3404 32.4147 23.1424 33.359 23.1424H34.0866V22.0327C34.0866 21.4398 33.8081 21.1051 33.2972 21.1051C33.0492 21.1051 32.8786 21.1966 32.755 21.3333C32.5853 21.5159 32.5078 21.7437 32.5078 22.078H30.8673C30.8673 21.4398 31.0522 20.8469 31.5636 20.345C31.9444 19.9705 32.595 19.6996 33.2504 19.6912L33.2811 19.691ZM33.5448 24.2825C33.1889 24.2825 32.9261 24.3133 32.6937 24.5262C32.4926 24.7087 32.3682 25.1037 32.3682 25.4234C32.3682 26.1261 32.6536 26.5207 33.1938 26.5329L33.2202 26.5332C33.715 26.5332 34.0871 26.1228 34.0871 25.4687V24.2825H33.5448Z" fill="#231F20"/>
<path fill-rule="evenodd" clip-rule="evenodd" d="M10.8846 17C12.8963 17 13.7014 17.9576 13.7014 20.1924C13.7014 21.5308 13.4229 22.4892 12.4168 23.021L14.0574 27.8254H12.2462L10.8067 23.3861H9.83194V27.8254H8.09826V17H10.8846ZM9.83194 21.8497H10.8998C11.8285 21.8497 11.9682 21.0892 11.9682 20.1924C11.9682 19.2956 11.8285 18.5355 10.8998 18.5355H9.83194V21.8497Z" fill="#231F20"/>
<path d="M23.6112 21.2568H23.0542C22.28 21.2568 21.6916 21.7732 21.6916 22.6401V27.825H20.0511V19.8124H21.6298V20.6639C21.8004 20.4211 22.0633 20.1928 22.3418 20.0252C22.6977 19.8124 23.1316 19.691 23.6112 19.691V21.2568Z" fill="#231F20"/>
<path d="M25.9479 27.825H24.3074V20.0252H25.9479V27.825Z" fill="#231F20"/>
<path d="M39.5496 19.691C40.2154 19.691 40.6645 19.8884 41.0352 20.3142C41.3608 20.6793 41.5 21.12 41.5 22.0477V27.825H39.8595V22.0631C39.8595 21.4389 39.503 21.1354 39.0544 21.1354C38.6058 21.1354 38.2493 21.4393 38.2493 22.0631V27.825H36.6088V19.8123H38.1876V20.4057C38.3268 20.2236 38.5278 20.0108 38.7289 19.9034C38.9612 19.7671 39.2555 19.691 39.5496 19.691Z" fill="#231F20"/>
<path d="M29.1908 20.0243H30.3209V21.2568H29.1908V25.3011C29.1908 26.0462 29.5781 26.3809 30.3523 26.381V27.8249C29.5781 27.8249 28.928 27.7638 28.371 27.338C27.8601 26.9431 27.5502 26.3352 27.5502 25.3922V21.2572H26.498V20.0247H27.5502V17.7596H29.1908V20.0243Z" fill="#231F20"/>
<path d="M25.1203 17.015C25.6201 17.015 26.0258 17.414 26.0258 17.9045C26.0258 18.3951 25.6206 18.7932 25.1203 18.7932C24.62 18.7932 24.2142 18.396 24.2142 17.9045C24.2142 17.4131 24.62 17.015 25.1203 17.015Z" fill="#231F20"/>
</svg>
