<svg width="50" height="50" viewBox="0 0 50 50" fill="none" xmlns="http://www.w3.org/2000/svg">
<path fill-rule="evenodd" clip-rule="evenodd" d="M42.4973 12.3087C42.0786 11.0837 41.4069 9.94277 40.5219 8.99905C39.6402 8.05324 38.5638 7.2931 37.3812 6.77851C35.0142 5.73698 32.2362 5.74546 29.8942 6.77418C27.5459 7.79138 25.6911 9.80224 24.8484 12.1793C24.6378 12.7732 24.4894 13.3883 24.4061 14.0111C24.3171 14.6278 24.3175 15.2818 24.328 15.8588L24.3611 19.4183L24.4169 26.5375L24.4368 30.097C24.4392 30.6904 24.4325 31.2836 24.4419 31.8767C24.4454 32.1712 24.4558 32.475 24.4539 32.7618C24.4577 33.0483 24.4372 33.3331 24.4314 33.6203C24.3936 34.1918 24.3281 34.766 24.2039 35.3331C24.0834 35.9012 23.8901 36.4558 23.6431 36.9864C23.1469 38.0463 22.4456 39.0272 21.5614 39.8227C19.7882 41.4033 17.3607 42.2651 14.9797 42.0644C13.7908 41.9861 12.6185 41.658 11.5643 41.1062C10.5078 40.5563 9.5779 39.775 8.83776 38.8476C8.46591 38.3851 8.1386 37.8877 7.85888 37.3655C7.57899 36.8438 7.34267 36.2972 7.17885 35.7293C6.82453 34.6008 6.74286 33.3983 6.90411 32.2535C6.99253 31.68 7.13014 31.1144 7.31373 30.5693C7.50504 30.0263 7.74168 29.5048 8.01819 29.0151C8.29068 28.5234 8.61333 28.069 8.96443 27.6522C9.30976 27.2314 9.69462 26.8508 10.119 26.5272C11.7783 25.1892 13.9793 24.6139 16.2288 24.6059C18.5571 24.6093 20.8852 24.6434 23.2141 24.6301L23.1962 22.1988C20.8781 22.248 18.5587 22.4026 16.2408 22.5712C14.9483 22.6661 13.6714 22.9756 12.4716 23.472C11.8708 23.7163 11.3005 24.0292 10.7593 24.3733C10.2208 24.7225 9.70909 25.109 9.25364 25.5514C8.78969 25.9844 8.3828 26.4714 8.02028 26.9832C7.65615 27.4944 7.338 28.0362 7.08047 28.6046C6.54271 29.733 6.1982 30.941 6.05882 32.1942C5.93021 33.459 6.01172 34.7553 6.31106 36.0131C6.61554 37.2705 7.1557 38.4871 7.91916 39.5882C8.68455 40.6848 9.67999 41.6698 10.8703 42.4202C12.0586 43.1691 13.4365 43.6727 14.8461 43.8769C15.0226 43.9086 15.1986 43.9249 15.3755 43.9434C15.5518 43.9623 15.7288 43.9807 15.9146 43.9861C16.0989 43.996 16.2831 44.0027 16.467 43.9989C16.6516 43.9999 16.836 43.9952 17.0196 43.9821C17.7565 43.9431 18.4888 43.8191 19.1994 43.6192C19.9104 43.4216 20.6028 43.1534 21.2648 42.8213C21.9277 42.4894 22.55 42.0788 23.1354 41.6196C24.2946 40.6845 25.2482 39.4951 25.9556 38.1741C26.0467 38.0102 26.1296 37.8421 26.208 37.6718C26.2893 37.5026 26.3628 37.3304 26.4311 37.1558C26.5768 36.8105 26.6947 36.4537 26.7925 36.0931C26.9941 35.3728 27.1196 34.637 27.2037 33.9026C27.2333 33.5345 27.2714 33.1673 27.2822 32.7998L27.3008 32.3219L27.3241 31.8767L27.4101 30.097L27.4916 26.5375L27.6482 19.4183L27.7236 15.8588L27.7312 15.4139L27.7335 15.3074L27.7381 15.233L27.7458 15.084C27.759 14.886 27.7824 14.6897 27.8147 14.4959C27.8824 14.1089 27.9752 13.7279 28.1141 13.3622C28.3896 12.6301 28.8226 11.9597 29.3553 11.3806C29.8936 10.805 30.5513 10.3389 31.2737 10.0254C31.9974 9.71261 32.783 9.55398 33.5855 9.55254C34.3871 9.53958 35.181 9.69067 35.9207 9.99928C36.6597 10.3071 37.3429 10.7719 37.9068 11.3584C38.4663 11.9479 38.9194 12.644 39.2086 13.4097C39.4996 14.1729 39.6303 15.0086 39.5883 15.8468C39.5499 16.6806 39.3416 17.5068 38.9646 18.2672C38.5855 19.0236 38.0504 19.7212 37.3798 20.2674C36.7113 20.8146 35.9289 21.2259 35.0907 21.4589C34.6726 21.5791 34.2407 21.6607 33.8003 21.6958L33.6347 21.7059C33.5744 21.7089 33.5366 21.7147 33.453 21.7157L33.0061 21.7277L32.1123 21.7514L28.783 21.8399L28.7216 24.6352L32.1123 24.6797L33.0061 24.6914L33.453 24.6973L33.9316 24.693C34.577 24.6735 35.222 24.5872 35.8526 24.4373C37.1161 24.144 38.3194 23.5773 39.3528 22.7868C40.391 22.0006 41.2408 20.9781 41.8644 19.8402C43.1149 17.554 43.3429 14.7606 42.4973 12.3087Z" fill="#FD5F07"/>
</svg>
