<svg width="50" height="50" viewBox="0 0 50 50" fill="none" xmlns="http://www.w3.org/2000/svg">
<path d="M25.1355 21.7365C23.5097 21.7365 22.1006 23.0775 22.1006 24.7404C22.1006 26.4033 23.4555 27.7444 25.1355 27.7444C26.8155 27.7444 28.1703 26.4033 28.1703 24.7404C28.1161 23.0775 26.7613 21.7365 25.1355 21.7365Z" fill="#12BE53"/>
<path d="M42.9652 21.7365C41.3394 21.7365 39.9303 23.0775 39.9303 24.7404C39.9303 26.4033 41.2852 27.7444 42.9652 27.7444C44.6452 27.7444 46 26.4033 46 24.7404C46 23.0775 44.6452 21.7365 42.9652 21.7365Z" fill="#007FD6"/>
<path d="M7.03484 21.7365C5.40903 21.7365 4 23.0775 4 24.7404C4 26.4033 5.35484 27.7444 7.03484 27.7444C8.71484 27.7444 10.0697 26.4033 10.0697 24.7404C10.0697 23.0775 8.71484 21.7365 7.03484 21.7365Z" fill="#003A93"/>
<path d="M22.5342 41.5305V32.7332C22.5342 31.3921 23.6181 30.2656 25.0271 30.2656C26.4361 30.2656 27.52 31.3385 27.52 32.7332V41.5305C27.52 42.8716 26.4361 43.9981 25.0271 43.9981C23.6181 44.0517 22.5342 42.9789 22.5342 41.5305Z" fill="#003A93"/>
<path d="M31.5303 37.0782V12.4027C31.4219 11.0616 32.56 9.88147 33.9148 9.77418C35.2697 9.6669 36.4619 10.7934 36.5703 12.1344V37.0782C36.4619 38.4193 35.2697 39.4385 33.9148 39.4385C32.6142 39.3312 31.6387 38.312 31.5303 37.0782Z" fill="#007FD6"/>
<path d="M13.5381 37.0782V12.4027C13.5381 11.0616 14.6219 9.93511 16.031 9.93511C17.44 9.93511 18.5239 11.008 18.5239 12.4027V37.0782C18.5239 38.4193 17.44 39.5458 16.031 39.5458C14.6761 39.4921 13.5381 38.4193 13.5381 37.0782Z" fill="#003A93"/>
<path d="M22.5342 16.2649V7.46755C22.5342 6.12649 23.6181 5 25.0271 5C26.4361 5 27.52 6.07285 27.52 7.46755V16.3722C27.52 17.7133 26.4361 18.8398 25.0271 18.8398C23.6181 18.8398 22.5342 17.7133 22.5342 16.2649Z" fill="#007FD6"/>
</svg>
