<svg width="50" height="50" viewBox="0 0 50 50" fill="none" xmlns="http://www.w3.org/2000/svg">
<rect width="50" height="50" fill="#0400F5"/>
<path d="M25.1226 22.0199C23.6516 22.0199 22.3768 23.2234 22.3768 24.7158C22.3768 26.2081 23.6026 27.4116 25.1226 27.4116C26.6426 27.4116 27.8684 26.2081 27.8684 24.7158C27.8194 23.2234 26.5935 22.0199 25.1226 22.0199Z" fill="white"/>
<path d="M41.2542 22.0199C39.7832 22.0199 38.5084 23.2234 38.5084 24.7158C38.5084 26.2081 39.7342 27.4116 41.2542 27.4116C42.7742 27.4116 44 26.2081 44 24.7158C44 23.2234 42.7742 22.0199 41.2542 22.0199Z" fill="white"/>
<path d="M8.74581 22.0199C7.27484 22.0199 6 23.2234 6 24.7158C6 26.2081 7.22581 27.4116 8.74581 27.4116C10.2658 27.4116 11.4916 26.2081 11.4916 24.7158C11.4916 23.2234 10.2658 22.0199 8.74581 22.0199Z" fill="white"/>
<path d="M22.769 39.7838V31.8887C22.769 30.6852 23.7497 29.6743 25.0245 29.6743C26.2994 29.6743 27.28 30.6371 27.28 31.8887V39.7838C27.28 40.9873 26.2994 41.9983 25.0245 41.9983C23.7497 42.0464 22.769 41.0836 22.769 39.7838Z" fill="white"/>
<path d="M30.9084 35.7881V13.6434C30.8103 12.4399 31.84 11.3808 33.0658 11.2845C34.2916 11.1882 35.3703 12.1992 35.4684 13.4027V35.7881C35.3703 36.9916 34.2916 37.9063 33.0658 37.9063C31.889 37.81 31.0065 36.8954 30.9084 35.7881Z" fill="white"/>
<path d="M14.6297 35.7881V13.6434C14.6297 12.4399 15.6103 11.4289 16.8852 11.4289C18.16 11.4289 19.1406 12.3918 19.1406 13.6434V35.7881C19.1406 36.9916 18.16 38.0026 16.8852 38.0026C15.6594 37.9545 14.6297 36.9916 14.6297 35.7881Z" fill="white"/>
<path d="M22.769 17.1095V9.21447C22.769 8.01095 23.7497 7 25.0245 7C26.2994 7 27.28 7.96281 27.28 9.21447V17.2058C27.28 18.4093 26.2994 19.4203 25.0245 19.4203C23.7497 19.4203 22.769 18.4093 22.769 17.1095Z" fill="white"/>
</svg>
