<svg width="50" height="50" viewBox="0 0 50 50" fill="none" xmlns="http://www.w3.org/2000/svg">
<path fill-rule="evenodd" clip-rule="evenodd" d="M7.47382 36.9494C7.34954 36.9494 7.22787 36.9 7.13983 36.8097C7.04921 36.7194 7 36.5978 7 36.4713V13.9574C7 13.4287 7.42465 13 7.95027 13H21.6682C22.0074 13 22.3207 13.183 22.4916 13.4793L23.6541 15.5085C23.8251 15.8047 23.8251 16.1696 23.6541 16.4659L18.9106 24.7356C18.8278 24.8838 18.8278 25.0668 18.9106 25.2149L25.231 36.2317C25.3165 36.3798 25.3165 36.5629 25.231 36.711C25.1456 36.8591 24.9876 36.9494 24.8193 36.9494H22.766C22.4243 36.9494 22.111 36.7676 21.9427 36.4713L15.6223 25.4534C15.454 25.1571 15.454 24.7923 15.6223 24.4972L20.0913 16.7044C20.1768 16.5562 20.1768 16.3744 20.0913 16.2263C20.0059 16.0781 19.8505 15.9866 19.6796 15.9866H10.4411C10.3169 15.9866 10.1952 16.0372 10.1071 16.1275C10.0165 16.2166 9.96729 16.3383 9.96729 16.4659V36.4713C9.96729 36.5978 9.91552 36.7194 9.82749 36.8097C9.73946 36.9 9.61775 36.9494 9.49087 36.9494H7.47382ZM33.2655 13.7683C33.1801 13.6202 33.1801 13.4384 33.2655 13.2902C33.3484 13.1421 33.5063 13.0506 33.6746 13.0506H35.7305C36.0697 13.0506 36.383 13.2336 36.5539 13.5299L42.8717 24.5466C43.0428 24.8429 43.0428 25.2077 42.8717 25.504L36.5539 36.5219C36.383 36.8181 36.0697 37 35.7305 37H33.6746C33.5063 37 33.3484 36.9085 33.2655 36.7603C33.1801 36.6134 33.1801 36.4303 33.2655 36.2822L39.5832 25.2643C39.6688 25.1162 39.6688 24.9344 39.5832 24.7862L33.2655 13.7683Z" fill="#ED1651"/>
</svg>
