<svg width="50" height="50" viewBox="0 0 50 50" fill="none" xmlns="http://www.w3.org/2000/svg">
<path d="M30.3451 18.1027C32.4482 18.1027 35.491 17.7265 35.491 15.5565C35.4973 15.389 35.4798 15.2215 35.4389 15.0577L34.1864 10.3385C33.8973 9.30021 33.6434 8.82917 31.5421 7.91771C29.9114 7.19437 26.3592 6 25.3085 6C24.3301 6 24.046 7.09375 22.8793 7.09375C21.7563 7.09375 20.9225 6.27708 19.8718 6.27708C18.8631 6.27708 18.2058 6.87354 17.6981 8.1C17.6981 8.1 16.2843 11.5592 16.1027 12.0608C16.0738 12.153 16.0614 12.2484 16.0657 12.3438C16.0657 13.6883 22.1682 18.0969 30.3451 18.0969V18.1027ZM35.8138 16.4373C36.1046 17.6317 36.1046 17.7571 36.1046 17.9146C36.1046 19.9562 33.4585 21.0894 29.9803 21.0894C22.1194 21.0938 15.2336 17.0979 15.2336 14.4569C15.2331 14.0893 15.3195 13.7255 15.4874 13.3879C12.6598 13.5104 9 13.9479 9 16.7508C9 21.3417 21.5394 27 31.4681 27C39.0802 27 41 24.0133 41 21.6552C41 19.8002 39.1508 17.6944 35.8171 16.4373" fill="#EE0000"/>
<path d="M35.8138 16.4373C36.1046 17.6317 36.1046 17.7571 36.1046 17.9146C36.1046 19.9562 33.4585 21.0894 29.9803 21.0894C22.1194 21.0938 15.2336 17.0979 15.2336 14.4569C15.2331 14.0893 15.3195 13.7255 15.4874 13.3879L16.1028 12.0666C16.0746 12.1569 16.0621 12.2503 16.0657 12.3438C16.0657 13.6883 22.1682 18.0969 30.3451 18.0969C32.4482 18.0969 35.491 17.7206 35.491 15.5506C35.4973 15.3831 35.4798 15.2156 35.4389 15.0519L35.8138 16.4373Z" fill="black"/>
<path d="M9.85392 34.2875H10.6513C10.6098 34.6769 10.5004 35.0254 10.3232 35.333C10.146 35.6405 9.89545 35.8846 9.57152 36.0652C9.2476 36.2429 8.84338 36.3318 8.35887 36.3318C8.00448 36.3318 7.68194 36.2641 7.39123 36.1287C7.1033 35.9932 6.8555 35.8014 6.64786 35.553C6.44021 35.3019 6.27963 35.0014 6.16612 34.6515C6.05537 34.2988 6 33.9066 6 33.4749V32.8612C6 32.4295 6.05537 32.0387 6.16612 31.6888C6.27963 31.3361 6.4416 31.0341 6.65201 30.783C6.86519 30.5319 7.12129 30.3386 7.4203 30.2032C7.71932 30.0677 8.0557 30 8.42947 30C8.88629 30 9.27251 30.0875 9.58814 30.2624C9.90376 30.4374 10.1488 30.68 10.3232 30.9904C10.5004 31.298 10.6098 31.6549 10.6513 32.0612H9.85392C9.81516 31.7734 9.74318 31.5265 9.63797 31.3205C9.53276 31.1117 9.38326 30.9509 9.18945 30.838C8.99565 30.7252 8.74232 30.6687 8.42947 30.6687C8.16091 30.6687 7.92419 30.7209 7.71932 30.8253C7.51721 30.9297 7.34694 31.0779 7.2085 31.2698C7.07284 31.4616 6.9704 31.6916 6.90119 31.9597C6.83197 32.2277 6.79736 32.5254 6.79736 32.8527V33.4749C6.79736 33.7768 6.82782 34.0604 6.88873 34.3256C6.95241 34.5909 7.04792 34.8236 7.17528 35.024C7.30264 35.2243 7.4646 35.3823 7.66117 35.498C7.85775 35.6109 8.09031 35.6673 8.35887 35.6673C8.69941 35.6673 8.97073 35.6123 9.17284 35.5023C9.37495 35.3922 9.52723 35.2342 9.62967 35.0282C9.73487 34.8222 9.80963 34.5753 9.85392 34.2875Z" fill="#1C1D1F"/>
<path d="M14.4615 35.1891V31.6676H15.234V36.2472H14.4989L14.4615 35.1891ZM14.6069 34.224L14.9267 34.2156C14.9267 34.5203 14.8948 34.8025 14.8311 35.0621C14.7702 35.3188 14.6706 35.5418 14.5321 35.7308C14.3937 35.9199 14.2123 36.068 13.9881 36.1752C13.7638 36.2796 13.4911 36.3318 13.17 36.3318C12.9512 36.3318 12.7505 36.2994 12.5678 36.2345C12.3878 36.1696 12.2328 36.0694 12.1027 35.934C11.9725 35.7985 11.8715 35.6222 11.7995 35.4049C11.7303 35.1876 11.6957 34.9266 11.6957 34.6219V31.6676H12.464V34.6304C12.464 34.8363 12.4861 35.0071 12.5304 35.1425C12.5775 35.2751 12.6398 35.3809 12.7173 35.4599C12.7976 35.5361 12.8862 35.5897 12.9831 35.6208C13.0827 35.6518 13.1852 35.6673 13.2904 35.6673C13.6171 35.6673 13.876 35.6038 14.067 35.4769C14.258 35.3471 14.3951 35.1735 14.4781 34.9563C14.564 34.7362 14.6069 34.4921 14.6069 34.224Z" fill="#1C1D1F"/>
<path d="M19.1065 35.0324C19.1065 34.9196 19.0816 34.8152 19.0317 34.7192C18.9847 34.6205 18.8864 34.5316 18.7369 34.4526C18.5902 34.3708 18.3687 34.3002 18.0724 34.241C17.8232 34.1874 17.5976 34.1239 17.3955 34.0505C17.1961 33.9771 17.0259 33.8883 16.8847 33.7839C16.7462 33.6795 16.6397 33.5567 16.5649 33.4156C16.4901 33.2745 16.4528 33.1095 16.4528 32.9204C16.4528 32.7398 16.4915 32.5691 16.5691 32.4083C16.6493 32.2475 16.7615 32.105 16.9054 31.9808C17.0522 31.8567 17.228 31.7593 17.4329 31.6888C17.6377 31.6182 17.8662 31.583 18.1181 31.583C18.478 31.583 18.7853 31.6479 19.0401 31.7777C19.2948 31.9074 19.49 32.081 19.6256 32.2983C19.7613 32.5127 19.8291 32.7511 19.8291 33.0135H19.0608C19.0608 32.8866 19.0234 32.7638 18.9487 32.6453C18.8767 32.524 18.7701 32.4238 18.6289 32.3448C18.4905 32.2658 18.3202 32.2263 18.1181 32.2263C17.9049 32.2263 17.7319 32.2602 17.599 32.3279C17.4689 32.3928 17.3733 32.476 17.3124 32.5776C17.2543 32.6792 17.2252 32.7864 17.2252 32.8993C17.2252 32.9839 17.2391 33.0601 17.2667 33.1278C17.2972 33.1927 17.3498 33.2534 17.4246 33.3098C17.4993 33.3634 17.6045 33.4142 17.7402 33.4622C17.8758 33.5102 18.0489 33.5581 18.2593 33.6061C18.6275 33.6907 18.9307 33.7923 19.1688 33.9108C19.4069 34.0293 19.5841 34.1747 19.7004 34.3468C19.8167 34.5189 19.8748 34.7277 19.8748 34.9732C19.8748 35.1735 19.8333 35.3569 19.7502 35.5234C19.6699 35.6899 19.5522 35.8338 19.3972 35.9551C19.2449 36.0736 19.0622 36.1668 18.849 36.2345C18.6386 36.2994 18.4019 36.3318 18.1389 36.3318C17.743 36.3318 17.4079 36.2599 17.1339 36.116C16.8598 35.9721 16.6521 35.7858 16.5109 35.5573C16.3697 35.3287 16.2991 35.0875 16.2991 34.8335H17.0716C17.0826 35.048 17.1435 35.2187 17.2543 35.3457C17.365 35.4698 17.5007 35.5587 17.6613 35.6123C17.8219 35.6631 17.9811 35.6885 18.1389 35.6885C18.3493 35.6885 18.5251 35.6603 18.6663 35.6038C18.8103 35.5474 18.9196 35.4698 18.9944 35.371C19.0691 35.2723 19.1065 35.1594 19.1065 35.0324Z" fill="#1C1D1F"/>
<path d="M22.8503 31.6676V32.2686H20.4208V31.6676H22.8503ZM21.2431 30.5545H22.0114V35.1129C22.0114 35.2681 22.0349 35.3852 22.082 35.4642C22.1291 35.5432 22.19 35.5954 22.2647 35.6208C22.3395 35.6462 22.4198 35.6589 22.5056 35.6589C22.5693 35.6589 22.6357 35.6532 22.7049 35.6419C22.7769 35.6278 22.8309 35.6165 22.8669 35.6081L22.8711 36.2472C22.8101 36.2669 22.7299 36.2853 22.6302 36.3022C22.5333 36.322 22.4156 36.3318 22.2772 36.3318C22.0889 36.3318 21.9159 36.2937 21.7581 36.2176C21.6003 36.1414 21.4743 36.0144 21.3801 35.8366C21.2888 35.656 21.2431 35.4134 21.2431 35.1086V30.5545Z" fill="#1C1D1F"/>
<path d="M23.55 34.0082V33.9108C23.55 33.5807 23.597 33.2745 23.6912 32.9924C23.7853 32.7074 23.921 32.4605 24.0982 32.2517C24.2754 32.0401 24.4899 31.8764 24.7419 31.7607C24.9938 31.6422 25.2762 31.583 25.5891 31.583C25.9047 31.583 26.1885 31.6422 26.4404 31.7607C26.6951 31.8764 26.9111 32.0401 27.0883 32.2517C27.2682 32.4605 27.4053 32.7074 27.4994 32.9924C27.5935 33.2745 27.6406 33.5807 27.6406 33.9108V34.0082C27.6406 34.3383 27.5935 34.6445 27.4994 34.9266C27.4053 35.2088 27.2682 35.4557 27.0883 35.6673C26.9111 35.8761 26.6965 36.0398 26.4446 36.1583C26.1954 36.274 25.913 36.3318 25.5974 36.3318C25.2817 36.3318 24.998 36.274 24.746 36.1583C24.4941 36.0398 24.2781 35.8761 24.0982 35.6673C23.921 35.4557 23.7853 35.2088 23.6912 34.9266C23.597 34.6445 23.55 34.3383 23.55 34.0082ZM24.3183 33.9108V34.0082C24.3183 34.2367 24.3446 34.4526 24.3972 34.6558C24.4498 34.8561 24.5287 35.0339 24.6339 35.1891C24.7419 35.3442 24.8761 35.467 25.0367 35.5573C25.1973 35.6448 25.3842 35.6885 25.5974 35.6885C25.8078 35.6885 25.9919 35.6448 26.1497 35.5573C26.3103 35.467 26.4432 35.3442 26.5484 35.1891C26.6536 35.0339 26.7325 34.8561 26.7851 34.6558C26.8405 34.4526 26.8682 34.2367 26.8682 34.0082V33.9108C26.8682 33.6851 26.8405 33.4721 26.7851 33.2717C26.7325 33.0686 26.6522 32.8894 26.5442 32.7342C26.439 32.5762 26.3061 32.452 26.1456 32.3617C25.9877 32.2714 25.8022 32.2263 25.5891 32.2263C25.3787 32.2263 25.1932 32.2714 25.0326 32.3617C24.8748 32.452 24.7419 32.5762 24.6339 32.7342C24.5287 32.8894 24.4498 33.0686 24.3972 33.2717C24.3446 33.4721 24.3183 33.6851 24.3183 33.9108Z" fill="#1C1D1F"/>
<path d="M29.4533 32.5776V36.2472H28.6808V31.6676H29.4118L29.4533 32.5776ZM29.2955 33.7839L28.9383 33.7712C28.9411 33.458 28.9812 33.1687 29.0588 32.9035C29.1363 32.6354 29.2512 32.4027 29.4035 32.2051C29.5557 32.0076 29.7454 31.8552 29.9724 31.748C30.1994 31.638 30.4625 31.583 30.7615 31.583C30.9719 31.583 31.1657 31.614 31.3429 31.6761C31.5201 31.7353 31.6737 31.8299 31.8039 31.9597C31.934 32.0894 32.035 32.2559 32.107 32.4591C32.179 32.6622 32.215 32.9077 32.215 33.1955V36.2472H31.4467V33.2336C31.4467 32.9938 31.4066 32.8019 31.3263 32.658C31.2487 32.5141 31.138 32.4097 30.994 32.3448C30.8501 32.2771 30.6812 32.2432 30.4874 32.2432C30.2603 32.2432 30.0707 32.2841 29.9184 32.366C29.7661 32.4478 29.6443 32.5607 29.553 32.7046C29.4616 32.8485 29.3951 33.0135 29.3536 33.1998C29.3149 33.3832 29.2955 33.5779 29.2955 33.7839ZM32.2067 33.3521L31.6917 33.513C31.6945 33.2619 31.7346 33.0206 31.8122 32.7892C31.8924 32.5578 32.0073 32.3519 32.1569 32.1713C32.3091 31.9907 32.496 31.8482 32.7175 31.7438C32.939 31.6366 33.1923 31.583 33.4775 31.583C33.7184 31.583 33.9315 31.6154 34.117 31.6803C34.3053 31.7452 34.4631 31.8454 34.5905 31.9808C34.7206 32.1134 34.8189 32.2841 34.8853 32.4929C34.9518 32.7018 34.985 32.9501 34.985 33.2379V36.2472H34.2126V33.2294C34.2126 32.9726 34.1724 32.7737 34.0921 32.6326C34.0146 32.4887 33.9039 32.3885 33.7599 32.3321C33.6187 32.2729 33.4498 32.2432 33.2532 32.2432C33.0843 32.2432 32.9348 32.2729 32.8047 32.3321C32.6746 32.3914 32.5652 32.4732 32.4766 32.5776C32.388 32.6792 32.3202 32.7963 32.2731 32.9289C32.2288 33.0615 32.2067 33.2026 32.2067 33.3521Z" fill="#1C1D1F"/>
<path d="M38.0975 36.3318C37.7847 36.3318 37.5009 36.2782 37.2462 36.171C36.9942 36.0609 36.7769 35.9072 36.5942 35.7097C36.4142 35.5121 36.2758 35.2779 36.1789 35.0071C36.082 34.7362 36.0335 34.4399 36.0335 34.1182V33.9405C36.0335 33.568 36.0875 33.2365 36.1955 32.9458C36.3035 32.6524 36.4502 32.4041 36.6357 32.2009C36.8212 31.9977 37.0316 31.844 37.267 31.7396C37.5023 31.6352 37.7459 31.583 37.9979 31.583C38.319 31.583 38.5959 31.6394 38.8285 31.7523C39.0638 31.8651 39.2562 32.0231 39.4057 32.2263C39.5552 32.4266 39.666 32.6637 39.738 32.9374C39.8099 33.2082 39.8459 33.5045 39.8459 33.8262V34.1775H36.4904V33.5384H39.0776V33.4791C39.0666 33.276 39.025 33.0784 38.953 32.8866C38.8838 32.6947 38.7731 32.5367 38.6208 32.4125C38.4685 32.2884 38.2609 32.2263 37.9979 32.2263C37.8234 32.2263 37.6629 32.2644 37.5161 32.3406C37.3694 32.4139 37.2434 32.524 37.1382 32.6707C37.033 32.8174 36.9513 32.9966 36.8932 33.2082C36.8351 33.4199 36.806 33.6639 36.806 33.9405V34.1182C36.806 34.3355 36.8351 34.5401 36.8932 34.7319C36.9541 34.921 37.0413 35.0875 37.1548 35.2314C37.2711 35.3753 37.4109 35.4881 37.5743 35.57C37.7404 35.6518 37.9287 35.6927 38.1391 35.6927C38.4104 35.6927 38.6402 35.6363 38.8285 35.5234C39.0167 35.4106 39.1815 35.2596 39.3227 35.0705L39.7878 35.4472C39.6909 35.5968 39.5677 35.7393 39.4182 35.8747C39.2687 36.0102 39.0846 36.1202 38.8658 36.2049C38.6499 36.2895 38.3938 36.3318 38.0975 36.3318Z" fill="#1C1D1F"/>
<path d="M41.5963 32.3871V36.2472H40.828V31.6676H41.5755L41.5963 32.3871ZM43 31.6422L42.9958 32.3702C42.9322 32.3561 42.8713 32.3476 42.8131 32.3448C42.7577 32.3392 42.6941 32.3363 42.6221 32.3363C42.4449 32.3363 42.2885 32.3646 42.1528 32.421C42.0171 32.4774 41.9022 32.5564 41.8081 32.658C41.714 32.7596 41.6392 32.8809 41.5838 33.022C41.5312 33.1603 41.4966 33.3126 41.48 33.4791L41.2641 33.6061C41.2641 33.3296 41.2904 33.07 41.343 32.8273C41.3983 32.5847 41.4828 32.3702 41.5963 32.184C41.7098 31.9949 41.8538 31.8482 42.0282 31.7438C42.2054 31.6366 42.4158 31.583 42.6595 31.583C42.7148 31.583 42.7785 31.59 42.8505 31.6041C42.9225 31.6154 42.9723 31.6281 43 31.6422Z" fill="#1C1D1F"/>
<path d="M15.67 42.4986H14.0545V41.8341H15.67C15.9829 41.8341 16.2362 41.7833 16.43 41.6817C16.6238 41.5801 16.765 41.4391 16.8536 41.2585C16.945 41.0779 16.9907 40.8719 16.9907 40.6405C16.9907 40.4289 16.945 40.23 16.8536 40.0437C16.765 39.8575 16.6238 39.708 16.43 39.5951C16.2362 39.4794 15.9829 39.4216 15.67 39.4216H14.2414V44.9154H13.4399V38.7528H15.67C16.1269 38.7528 16.5131 38.8332 16.8287 38.9941C17.1443 39.1549 17.3838 39.3778 17.5472 39.6628C17.7105 39.945 17.7922 40.2681 17.7922 40.6321C17.7922 41.0271 17.7105 41.3643 17.5472 41.6436C17.3838 41.923 17.1443 42.136 16.8287 42.2827C16.5131 42.4266 16.1269 42.4986 15.67 42.4986Z" fill="#1C1D1F"/>
<path d="M18.5126 42.6764V42.579C18.5126 42.2489 18.5597 41.9427 18.6538 41.6606C18.748 41.3756 18.8836 41.1287 19.0608 40.9199C19.238 40.7082 19.4526 40.5446 19.7045 40.4289C19.9565 40.3104 20.2389 40.2511 20.5517 40.2511C20.8673 40.2511 21.1511 40.3104 21.4031 40.4289C21.6578 40.5446 21.8737 40.7082 22.0509 40.9199C22.2309 41.1287 22.3679 41.3756 22.4621 41.6606C22.5562 41.9427 22.6033 42.2489 22.6033 42.579V42.6764C22.6033 43.0065 22.5562 43.3126 22.4621 43.5948C22.3679 43.877 22.2309 44.1239 22.0509 44.3355C21.8737 44.5443 21.6592 44.708 21.4072 44.8265C21.1581 44.9422 20.8757 45 20.56 45C20.2444 45 19.9606 44.9422 19.7087 44.8265C19.4567 44.708 19.2408 44.5443 19.0608 44.3355C18.8836 44.1239 18.748 43.877 18.6538 43.5948C18.5597 43.3126 18.5126 43.0065 18.5126 42.6764ZM19.2809 42.579V42.6764C19.2809 42.9049 19.3072 43.1208 19.3598 43.3239C19.4124 43.5243 19.4913 43.702 19.5965 43.8572C19.7045 44.0124 19.8388 44.1352 19.9994 44.2255C20.16 44.3129 20.3468 44.3567 20.56 44.3567C20.7704 44.3567 20.9546 44.3129 21.1124 44.2255C21.2729 44.1352 21.4058 44.0124 21.5111 43.8572C21.6163 43.702 21.6952 43.5243 21.7478 43.3239C21.8031 43.1208 21.8308 42.9049 21.8308 42.6764V42.579C21.8308 42.3533 21.8031 42.1402 21.7478 41.9399C21.6952 41.7367 21.6149 41.5576 21.5069 41.4024C21.4017 41.2444 21.2688 41.1202 21.1082 41.0299C20.9504 40.9396 20.7649 40.8945 20.5517 40.8945C20.3413 40.8945 20.1558 40.9396 19.9952 41.0299C19.8374 41.1202 19.7045 41.2444 19.5965 41.4024C19.4913 41.5576 19.4124 41.7367 19.3598 41.9399C19.3072 42.1402 19.2809 42.3533 19.2809 42.579Z" fill="#1C1D1F"/>
<path d="M24.4201 41.0553V44.9154H23.6518V40.3358H24.3993L24.4201 41.0553ZM25.8238 40.3104L25.8196 41.0384C25.756 41.0243 25.695 41.0158 25.6369 41.013C25.5815 41.0073 25.5179 41.0045 25.4459 41.0045C25.2687 41.0045 25.1123 41.0327 24.9766 41.0892C24.8409 41.1456 24.726 41.2246 24.6319 41.3262C24.5378 41.4278 24.463 41.5491 24.4076 41.6902C24.355 41.8284 24.3204 41.9808 24.3038 42.1473L24.0879 42.2743C24.0879 41.9977 24.1142 41.7382 24.1668 41.4955C24.2221 41.2528 24.3066 41.0384 24.4201 40.8521C24.5336 40.6631 24.6776 40.5164 24.852 40.412C25.0292 40.3047 25.2396 40.2511 25.4832 40.2511C25.5386 40.2511 25.6023 40.2582 25.6743 40.2723C25.7463 40.2836 25.7961 40.2963 25.8238 40.3104Z" fill="#1C1D1F"/>
<path d="M28.7079 40.3358V40.9368H26.2785V40.3358H28.7079ZM27.1007 39.2226H27.869V43.781C27.869 43.9362 27.8926 44.0533 27.9396 44.1323C27.9867 44.2113 28.0476 44.2635 28.1224 44.2889C28.1971 44.3143 28.2774 44.327 28.3632 44.327C28.4269 44.327 28.4934 44.3214 28.5626 44.3101C28.6346 44.296 28.6885 44.2847 28.7245 44.2762L28.7287 44.9154C28.6678 44.9351 28.5875 44.9534 28.4878 44.9704C28.3909 44.9901 28.2732 45 28.1348 45C27.9466 45 27.7735 44.9619 27.6157 44.8857C27.4579 44.8095 27.3319 44.6826 27.2378 44.5048C27.1464 44.3242 27.1007 44.0815 27.1007 43.7768V39.2226Z" fill="#1C1D1F"/>
<path d="M32.3437 44.1323V41.7748C32.3437 41.5942 32.3077 41.4376 32.2358 41.305C32.1665 41.1696 32.0613 41.0652 31.9201 40.9918C31.7789 40.9185 31.6045 40.8818 31.3969 40.8818C31.2031 40.8818 31.0328 40.9156 30.8861 40.9834C30.7421 41.0511 30.6286 41.14 30.5455 41.25C30.4652 41.36 30.4251 41.4786 30.4251 41.6055H29.6568C29.6568 41.4419 29.6983 41.2796 29.7814 41.1188C29.8644 40.958 29.9835 40.8126 30.1385 40.6828C30.2963 40.5502 30.4846 40.4458 30.7033 40.3696C30.9248 40.2906 31.1712 40.2511 31.4425 40.2511C31.7692 40.2511 32.0572 40.3076 32.3064 40.4204C32.5583 40.5333 32.7549 40.704 32.8961 40.9326C33.04 41.1583 33.112 41.4419 33.112 41.7833V43.9165C33.112 44.0688 33.1245 44.2311 33.1494 44.4032C33.1771 44.5753 33.2172 44.7235 33.2698 44.8476V44.9154H32.4683C32.4296 44.8251 32.3991 44.7051 32.377 44.5556C32.3548 44.4032 32.3437 44.2621 32.3437 44.1323ZM32.4766 42.1388L32.4849 42.6891H31.7083C31.4896 42.6891 31.2944 42.7074 31.1228 42.7441C30.9511 42.7779 30.8071 42.8301 30.6909 42.9007C30.5746 42.9712 30.486 43.0601 30.4251 43.1673C30.3642 43.2717 30.3337 43.3945 30.3337 43.5356C30.3337 43.6795 30.3656 43.8107 30.4292 43.9292C30.4929 44.0477 30.5884 44.1422 30.7158 44.2128C30.8459 44.2805 31.0051 44.3143 31.1934 44.3143C31.4287 44.3143 31.6364 44.2635 31.8163 44.162C31.9963 44.0604 32.1389 43.9362 32.2441 43.7895C32.352 43.6428 32.4102 43.5003 32.4185 43.362L32.7466 43.7387C32.7272 43.8572 32.6746 43.9884 32.5888 44.1323C32.5029 44.2762 32.388 44.4145 32.2441 44.5471C32.1029 44.6769 31.934 44.7856 31.7374 44.873C31.5436 44.9577 31.3249 45 31.0812 45C30.7767 45 30.5095 44.9393 30.2797 44.818C30.0527 44.6967 29.8755 44.5344 29.7481 44.3313C29.6236 44.1253 29.5613 43.8953 29.5613 43.6414C29.5613 43.3959 29.6083 43.18 29.7025 42.9938C29.7966 42.8047 29.9323 42.6481 30.1095 42.524C30.2866 42.397 30.4998 42.3011 30.749 42.2362C30.9982 42.1713 31.2764 42.1388 31.5837 42.1388H32.4766Z" fill="#1C1D1F"/>
<path d="M35.2403 38.4142V44.9154H34.4679V38.4142H35.2403Z" fill="#1C1D1F"/>
</svg>
