<svg width="50" height="50" viewBox="0 0 50 50" fill="none" xmlns="http://www.w3.org/2000/svg">
<path d="M30.3451 18.1027C32.4482 18.1027 35.491 17.7265 35.491 15.5565C35.4973 15.389 35.4798 15.2215 35.4389 15.0577L34.1864 10.3385C33.8973 9.30021 33.6434 8.82917 31.5421 7.91771C29.9114 7.19437 26.3592 6 25.3085 6C24.3301 6 24.046 7.09375 22.8793 7.09375C21.7563 7.09375 20.9225 6.27708 19.8718 6.27708C18.8631 6.27708 18.2058 6.87354 17.6981 8.1C17.6981 8.1 16.2843 11.5592 16.1027 12.0608C16.0738 12.153 16.0614 12.2484 16.0657 12.3438C16.0657 13.6883 22.1682 18.0969 30.3451 18.0969V18.1027ZM35.8138 16.4373C36.1046 17.6317 36.1046 17.7571 36.1046 17.9146C36.1046 19.9562 33.4585 21.0894 29.9803 21.0894C22.1194 21.0938 15.2336 17.0979 15.2336 14.4569C15.2331 14.0893 15.3195 13.7255 15.4874 13.3879C12.6598 13.5104 9 13.9479 9 16.7508C9 21.3417 21.5394 27 31.4681 27C39.0802 27 41 24.0133 41 21.6552C41 19.8002 39.1508 17.6944 35.8171 16.4373" fill="#EE0000"/>
<path d="M35.8138 16.4373C36.1046 17.6317 36.1046 17.7571 36.1046 17.9146C36.1046 19.9562 33.4585 21.0894 29.9803 21.0894C22.1194 21.0938 15.2336 17.0979 15.2336 14.4569C15.2331 14.0893 15.3195 13.7255 15.4874 13.3879L16.1028 12.0666C16.0746 12.1569 16.0621 12.2503 16.0657 12.3438C16.0657 13.6883 22.1682 18.0969 30.3451 18.0969C32.4482 18.0969 35.491 17.7206 35.491 15.5506C35.4973 15.3831 35.4798 15.2156 35.4389 15.0519L35.8138 16.4373Z" fill="black"/>
<path d="M8.83594 32.8906V40H7.89355V32.8906H8.83594Z" fill="black"/>
<path d="M11.3164 35.8447V40H10.4131V34.7168H11.2676L11.3164 35.8447ZM11.1016 37.1582L10.7256 37.1436C10.7288 36.7822 10.7826 36.4486 10.8867 36.1426C10.9909 35.8333 11.1374 35.5648 11.3262 35.3369C11.515 35.109 11.7396 34.9333 12 34.8096C12.2637 34.6826 12.555 34.6191 12.874 34.6191C13.1344 34.6191 13.3688 34.6549 13.5771 34.7266C13.7855 34.7949 13.9629 34.9056 14.1094 35.0586C14.2591 35.2116 14.373 35.4102 14.4512 35.6543C14.5293 35.8952 14.5684 36.1898 14.5684 36.5381V40H13.6602V36.5283C13.6602 36.2516 13.6195 36.0303 13.5381 35.8643C13.4567 35.695 13.3379 35.5729 13.1816 35.498C13.0254 35.4199 12.8333 35.3809 12.6055 35.3809C12.3809 35.3809 12.1758 35.4281 11.9902 35.5225C11.8079 35.6169 11.6501 35.7471 11.5166 35.9131C11.3864 36.0791 11.2839 36.2695 11.209 36.4844C11.1374 36.696 11.1016 36.9206 11.1016 37.1582Z" fill="black"/>
<path d="M19.0166 38.5986C19.0166 38.4684 18.9873 38.348 18.9287 38.2373C18.8734 38.1234 18.7578 38.0208 18.582 37.9297C18.4095 37.8353 18.1491 37.7539 17.8008 37.6855C17.5078 37.6237 17.2425 37.5505 17.0049 37.4658C16.7705 37.3812 16.5703 37.2786 16.4043 37.1582C16.2415 37.0378 16.1162 36.8962 16.0283 36.7334C15.9404 36.5706 15.8965 36.3802 15.8965 36.1621C15.8965 35.9538 15.9421 35.7568 16.0332 35.5713C16.1276 35.3857 16.2594 35.2214 16.4287 35.0781C16.6012 34.9349 16.8079 34.8226 17.0488 34.7412C17.2897 34.6598 17.5583 34.6191 17.8545 34.6191C18.2777 34.6191 18.639 34.694 18.9385 34.8438C19.238 34.9935 19.4674 35.1937 19.627 35.4443C19.7865 35.6917 19.8662 35.9668 19.8662 36.2695H18.9629C18.9629 36.123 18.9189 35.9814 18.8311 35.8447C18.7464 35.7048 18.6211 35.5892 18.4551 35.498C18.2923 35.4069 18.0921 35.3613 17.8545 35.3613C17.6038 35.3613 17.4004 35.4004 17.2441 35.4785C17.0911 35.5534 16.9788 35.6494 16.9072 35.7666C16.8389 35.8838 16.8047 36.0075 16.8047 36.1377C16.8047 36.2354 16.821 36.3232 16.8535 36.4014C16.8893 36.4762 16.9512 36.5462 17.0391 36.6113C17.127 36.6732 17.2507 36.7318 17.4102 36.7871C17.5697 36.8424 17.7731 36.8978 18.0205 36.9531C18.4535 37.0508 18.8099 37.168 19.0898 37.3047C19.3698 37.4414 19.5781 37.609 19.7148 37.8076C19.8516 38.0062 19.9199 38.2471 19.9199 38.5303C19.9199 38.7614 19.8711 38.973 19.7734 39.165C19.679 39.3571 19.5407 39.5231 19.3584 39.6631C19.1794 39.7998 18.9645 39.9072 18.7139 39.9854C18.4665 40.0602 18.1882 40.0977 17.8789 40.0977C17.4134 40.0977 17.0195 40.0146 16.6973 39.8486C16.375 39.6826 16.1309 39.4678 15.9648 39.2041C15.7988 38.9404 15.7158 38.6621 15.7158 38.3691H16.624C16.637 38.6165 16.7087 38.8135 16.8389 38.96C16.9691 39.1032 17.1286 39.2057 17.3174 39.2676C17.5062 39.3262 17.6934 39.3555 17.8789 39.3555C18.1263 39.3555 18.333 39.3229 18.499 39.2578C18.6683 39.1927 18.7969 39.1032 18.8848 38.9893C18.9727 38.8753 19.0166 38.7451 19.0166 38.5986Z" fill="black"/>
<path d="M22.0879 34.7168V40H21.1797V34.7168H22.0879ZM21.1113 33.3154C21.1113 33.1689 21.1553 33.0452 21.2432 32.9443C21.3343 32.8434 21.4678 32.793 21.6436 32.793C21.8161 32.793 21.9479 32.8434 22.0391 32.9443C22.1335 33.0452 22.1807 33.1689 22.1807 33.3154C22.1807 33.4554 22.1335 33.5758 22.0391 33.6768C21.9479 33.7744 21.8161 33.8232 21.6436 33.8232C21.4678 33.8232 21.3343 33.7744 21.2432 33.6768C21.1553 33.5758 21.1113 33.4554 21.1113 33.3154Z" fill="black"/>
<path d="M26.9609 34.7168H27.7812V39.8877C27.7812 40.3532 27.6868 40.7503 27.498 41.0791C27.3092 41.4079 27.0456 41.6569 26.707 41.8262C26.3717 41.9987 25.9844 42.085 25.5449 42.085C25.3626 42.085 25.1478 42.0557 24.9004 41.9971C24.6562 41.9417 24.4154 41.8457 24.1777 41.709C23.9434 41.5755 23.7464 41.3949 23.5869 41.167L24.0605 40.6299C24.2819 40.8968 24.513 41.0824 24.7539 41.1865C24.998 41.2907 25.2389 41.3428 25.4766 41.3428C25.763 41.3428 26.0104 41.2891 26.2188 41.1816C26.4271 41.0742 26.5882 40.9147 26.7021 40.7031C26.8193 40.4948 26.8779 40.2376 26.8779 39.9316V35.8789L26.9609 34.7168ZM23.3232 37.417V37.3145C23.3232 36.9108 23.3704 36.5446 23.4648 36.2158C23.5625 35.8838 23.7008 35.599 23.8799 35.3613C24.0622 35.1237 24.2819 34.9414 24.5391 34.8145C24.7962 34.6842 25.0859 34.6191 25.4082 34.6191C25.7402 34.6191 26.0299 34.6777 26.2773 34.7949C26.528 34.9089 26.7396 35.0765 26.9121 35.2979C27.0879 35.516 27.2262 35.7796 27.3271 36.0889C27.4281 36.3981 27.498 36.748 27.5371 37.1387V37.5879C27.5013 37.9753 27.4313 38.3236 27.3271 38.6328C27.2262 38.9421 27.0879 39.2057 26.9121 39.4238C26.7396 39.6419 26.528 39.8096 26.2773 39.9268C26.0267 40.0407 25.7337 40.0977 25.3984 40.0977C25.0827 40.0977 24.7962 40.0309 24.5391 39.8975C24.2852 39.764 24.0671 39.5768 23.8848 39.3359C23.7025 39.0951 23.5625 38.8118 23.4648 38.4863C23.3704 38.1576 23.3232 37.8011 23.3232 37.417ZM24.2266 37.3145V37.417C24.2266 37.6807 24.2526 37.9281 24.3047 38.1592C24.36 38.3903 24.443 38.5938 24.5537 38.7695C24.6676 38.9453 24.8125 39.0837 24.9883 39.1846C25.1641 39.2822 25.374 39.3311 25.6182 39.3311C25.9176 39.3311 26.165 39.2676 26.3604 39.1406C26.5557 39.0137 26.7103 38.846 26.8242 38.6377C26.9414 38.4294 27.0326 38.2031 27.0977 37.959V36.7822C27.0618 36.6032 27.0065 36.4307 26.9316 36.2646C26.86 36.0954 26.7656 35.9456 26.6484 35.8154C26.5345 35.682 26.3929 35.5762 26.2236 35.498C26.0544 35.4199 25.8558 35.3809 25.6279 35.3809C25.3805 35.3809 25.1673 35.4329 24.9883 35.5371C24.8125 35.638 24.6676 35.778 24.5537 35.957C24.443 36.1328 24.36 36.3379 24.3047 36.5723C24.2526 36.8034 24.2266 37.0508 24.2266 37.3145Z" fill="black"/>
<path d="M30.0566 32.5V40H29.1533V32.5H30.0566ZM29.8418 37.1582L29.4658 37.1436C29.4691 36.7822 29.5228 36.4486 29.627 36.1426C29.7311 35.8333 29.8776 35.5648 30.0664 35.3369C30.2552 35.109 30.4798 34.9333 30.7402 34.8096C31.0039 34.6826 31.2952 34.6191 31.6143 34.6191C31.8747 34.6191 32.109 34.6549 32.3174 34.7266C32.5257 34.7949 32.7031 34.9056 32.8496 35.0586C32.9993 35.2116 33.1133 35.4102 33.1914 35.6543C33.2695 35.8952 33.3086 36.1898 33.3086 36.5381V40H32.4004V36.5283C32.4004 36.2516 32.3597 36.0303 32.2783 35.8643C32.1969 35.695 32.0781 35.5729 31.9219 35.498C31.7656 35.4199 31.5736 35.3809 31.3457 35.3809C31.1211 35.3809 30.916 35.4281 30.7305 35.5225C30.5482 35.6169 30.3903 35.7471 30.2568 35.9131C30.1266 36.0791 30.0241 36.2695 29.9492 36.4844C29.8776 36.696 29.8418 36.9206 29.8418 37.1582Z" fill="black"/>
<path d="M36.873 34.7168V35.4102H34.0166V34.7168H36.873ZM34.9834 33.4326H35.8867V38.6914C35.8867 38.8704 35.9144 39.0055 35.9697 39.0967C36.0251 39.1878 36.0967 39.248 36.1846 39.2773C36.2725 39.3066 36.3669 39.3213 36.4678 39.3213C36.5426 39.3213 36.6208 39.3148 36.7021 39.3018C36.7868 39.2855 36.8503 39.2725 36.8926 39.2627L36.8975 40C36.8258 40.0228 36.7314 40.0439 36.6143 40.0635C36.5003 40.0863 36.362 40.0977 36.1992 40.0977C35.9779 40.0977 35.7744 40.0537 35.5889 39.9658C35.4033 39.8779 35.2552 39.7314 35.1445 39.5264C35.0371 39.318 34.9834 39.0381 34.9834 38.6865V33.4326Z" fill="black"/>
<path d="M41.0088 38.5986C41.0088 38.4684 40.9795 38.348 40.9209 38.2373C40.8656 38.1234 40.75 38.0208 40.5742 37.9297C40.4017 37.8353 40.1413 37.7539 39.793 37.6855C39.5 37.6237 39.2347 37.5505 38.9971 37.4658C38.7627 37.3812 38.5625 37.2786 38.3965 37.1582C38.2337 37.0378 38.1084 36.8962 38.0205 36.7334C37.9326 36.5706 37.8887 36.3802 37.8887 36.1621C37.8887 35.9538 37.9342 35.7568 38.0254 35.5713C38.1198 35.3857 38.2516 35.2214 38.4209 35.0781C38.5934 34.9349 38.8001 34.8226 39.041 34.7412C39.2819 34.6598 39.5505 34.6191 39.8467 34.6191C40.2699 34.6191 40.6312 34.694 40.9307 34.8438C41.2301 34.9935 41.4596 35.1937 41.6191 35.4443C41.7786 35.6917 41.8584 35.9668 41.8584 36.2695H40.9551C40.9551 36.123 40.9111 35.9814 40.8232 35.8447C40.7386 35.7048 40.6133 35.5892 40.4473 35.498C40.2845 35.4069 40.0843 35.3613 39.8467 35.3613C39.596 35.3613 39.3926 35.4004 39.2363 35.4785C39.0833 35.5534 38.971 35.6494 38.8994 35.7666C38.8311 35.8838 38.7969 36.0075 38.7969 36.1377C38.7969 36.2354 38.8132 36.3232 38.8457 36.4014C38.8815 36.4762 38.9434 36.5462 39.0312 36.6113C39.1191 36.6732 39.2428 36.7318 39.4023 36.7871C39.5618 36.8424 39.7653 36.8978 40.0127 36.9531C40.4456 37.0508 40.8021 37.168 41.082 37.3047C41.362 37.4414 41.5703 37.609 41.707 37.8076C41.8438 38.0062 41.9121 38.2471 41.9121 38.5303C41.9121 38.7614 41.8633 38.973 41.7656 39.165C41.6712 39.3571 41.5329 39.5231 41.3506 39.6631C41.1715 39.7998 40.9567 39.9072 40.7061 39.9854C40.4587 40.0602 40.1803 40.0977 39.8711 40.0977C39.4056 40.0977 39.0117 40.0146 38.6895 39.8486C38.3672 39.6826 38.123 39.4678 37.957 39.2041C37.791 38.9404 37.708 38.6621 37.708 38.3691H38.6162C38.6292 38.6165 38.7008 38.8135 38.8311 38.96C38.9613 39.1032 39.1208 39.2057 39.3096 39.2676C39.4984 39.3262 39.6855 39.3555 39.8711 39.3555C40.1185 39.3555 40.3252 39.3229 40.4912 39.2578C40.6605 39.1927 40.7891 39.1032 40.877 38.9893C40.9648 38.8753 41.0088 38.7451 41.0088 38.5986Z" fill="black"/>
</svg>
