<svg width="50" height="50" viewBox="0 0 50 50" fill="none" xmlns="http://www.w3.org/2000/svg">
<path d="M30.3451 18.1027C32.4482 18.1027 35.491 17.7265 35.491 15.5565C35.4973 15.389 35.4798 15.2215 35.4389 15.0577L34.1864 10.3385C33.8973 9.30021 33.6434 8.82917 31.5421 7.91771C29.9114 7.19437 26.3592 6 25.3085 6C24.3301 6 24.046 7.09375 22.8793 7.09375C21.7563 7.09375 20.9225 6.27708 19.8718 6.27708C18.8631 6.27708 18.2058 6.87354 17.6981 8.1C17.6981 8.1 16.2843 11.5592 16.1027 12.0608C16.0738 12.153 16.0614 12.2484 16.0657 12.3438C16.0657 13.6883 22.1682 18.0969 30.3451 18.0969V18.1027ZM35.8138 16.4373C36.1046 17.6317 36.1046 17.7571 36.1046 17.9146C36.1046 19.9562 33.4585 21.0894 29.9803 21.0894C22.1194 21.0938 15.2336 17.0979 15.2336 14.4569C15.2331 14.0893 15.3195 13.7255 15.4874 13.3879C12.6598 13.5104 9 13.9479 9 16.7508C9 21.3417 21.5394 27 31.4681 27C39.0802 27 41 24.0133 41 21.6552C41 19.8002 39.1508 17.6944 35.8171 16.4373" fill="#EE0000"/>
<path d="M35.8138 16.4373C36.1046 17.6317 36.1046 17.7571 36.1046 17.9146C36.1046 19.9562 33.4585 21.0894 29.9803 21.0894C22.1194 21.0938 15.2336 17.0979 15.2336 14.4569C15.2331 14.0893 15.3195 13.7255 15.4874 13.3879L16.1028 12.0666C16.0746 12.1569 16.0621 12.2503 16.0657 12.3438C16.0657 13.6883 22.1682 18.0969 30.3451 18.0969C32.4482 18.0969 35.491 17.7206 35.491 15.5506C35.4973 15.3831 35.4798 15.2156 35.4389 15.0519L35.8138 16.4373Z" fill="black"/>
<path d="M17.457 36.5205L15.1035 43H14.1416L16.8516 35.8906H17.4717L17.457 36.5205ZM19.4297 43L17.0713 36.5205L17.0566 35.8906H17.6768L20.3965 43H19.4297ZM19.3076 40.3682V41.1396H15.3135V40.3682H19.3076Z" fill="#1C1D1F"/>
<path d="M25.582 40.7393H26.5195C26.4707 41.1885 26.3421 41.5905 26.1338 41.9453C25.9255 42.3001 25.6309 42.5817 25.25 42.79C24.8691 42.9951 24.3939 43.0977 23.8242 43.0977C23.4076 43.0977 23.0283 43.0195 22.6865 42.8633C22.348 42.707 22.0566 42.4857 21.8125 42.1992C21.5684 41.9095 21.3796 41.5628 21.2461 41.1592C21.1159 40.7523 21.0508 40.2998 21.0508 39.8018V39.0938C21.0508 38.5957 21.1159 38.1449 21.2461 37.7412C21.3796 37.3343 21.57 36.986 21.8174 36.6963C22.068 36.4066 22.3691 36.1836 22.7207 36.0273C23.0723 35.8711 23.4678 35.793 23.9072 35.793C24.4443 35.793 24.8984 35.8939 25.2695 36.0957C25.6406 36.2975 25.9287 36.5775 26.1338 36.9355C26.3421 37.2904 26.4707 37.7021 26.5195 38.1709H25.582C25.5365 37.8389 25.4518 37.554 25.3281 37.3164C25.2044 37.0755 25.0286 36.89 24.8008 36.7598C24.5729 36.6296 24.2751 36.5645 23.9072 36.5645C23.5915 36.5645 23.3132 36.6247 23.0723 36.7451C22.8346 36.8656 22.6344 37.0365 22.4717 37.2578C22.3122 37.4792 22.1917 37.7445 22.1104 38.0537C22.029 38.363 21.9883 38.7064 21.9883 39.084V39.8018C21.9883 40.1501 22.0241 40.4772 22.0957 40.7832C22.1706 41.0892 22.2829 41.3577 22.4326 41.5889C22.5824 41.82 22.7728 42.0023 23.0039 42.1357C23.235 42.266 23.5085 42.3311 23.8242 42.3311C24.2246 42.3311 24.5436 42.2676 24.7812 42.1406C25.0189 42.0137 25.1979 41.8314 25.3184 41.5938C25.4421 41.3561 25.5299 41.0713 25.582 40.7393Z" fill="#1C1D1F"/>
<path d="M28.1016 35.8906H29.0146L31.3438 41.6865L33.668 35.8906H34.5859L31.6953 43H30.9824L28.1016 35.8906ZM27.8037 35.8906H28.6094L28.7412 40.2266V43H27.8037V35.8906ZM34.0732 35.8906H34.8789V43H33.9414V40.2266L34.0732 35.8906Z" fill="#1C1D1F"/>
</svg>
