<svg width="50" height="50" viewBox="0 0 50 50" fill="none" xmlns="http://www.w3.org/2000/svg">
<path d="M33.3163 15.3323C33.0921 14.3253 32.3889 13.4543 31.6583 12.783C31.2315 12.3909 30.7728 12.0335 30.3286 11.6617C30.2896 11.6284 30.2447 11.6038 30.168 11.5532V14.7738C30.0899 14.7362 30.0422 14.7188 30.0016 14.6914C29.3911 14.292 28.7834 13.8913 28.1714 13.4948C28.0716 13.4297 28.0267 13.3603 28.0282 13.2329C28.0369 12.2563 28.0398 11.2797 28.034 10.3017C28.034 10.2178 27.9732 10.115 27.8994 10.0745C26.9836 9.56089 26.0619 9.0545 25.1389 8.5539C25.081 8.52207 24.9855 8.52207 24.9262 8.5539C24.0986 8.99518 23.2739 9.4437 22.4492 9.88933C22.4015 9.91537 22.3595 9.95299 22.3089 9.96745C22.0094 10.0543 21.9472 10.2539 21.9544 10.552C21.9761 11.4331 21.9602 12.3142 21.966 13.1953C21.9674 13.505 21.7547 13.5498 21.0458 13.8406C20.6277 14.0128 20.2862 14.3152 20.0142 14.6754C19.9679 14.7376 19.9202 14.7405 19.8131 14.7854V11.5648C19.5078 11.8136 19.2315 12.0118 18.987 12.2419C18.5167 12.6832 18.0292 13.1143 17.611 13.6033C16.999 14.3181 16.6778 15.15 16.6836 16.1208C16.7024 19.2257 16.6966 22.3306 16.6865 25.4355C16.6836 26.2804 16.944 27.0227 17.436 27.6911C18.0017 28.4594 18.7135 29.0786 19.4528 29.6718C20.7608 30.7222 22.2177 31.5339 23.6689 32.3542C23.7311 32.3904 23.8049 32.4063 23.9062 32.4439C23.9062 32.334 23.9062 32.2645 23.9062 32.1951C23.9062 29.1495 23.9062 25.9318 23.9062 22.8862L23.9004 22.7965C23.0395 22.8023 21.5305 22.8095 20.6696 22.7965C20.4121 22.7921 20.1357 22.7965 19.897 22.7835C19.8478 22.7806 19.7986 22.7198 19.7668 22.6735C19.3168 22.0398 18.8683 21.4567 18.4227 20.8201C18.3995 20.7868 18.3793 20.7203 18.3952 20.6942C18.414 20.6653 18.4762 20.6537 18.5211 20.6537C19.5252 20.6537 20.5293 20.6595 21.5334 20.6595C22.6098 20.6595 23.6848 20.6581 24.7612 20.6595C26.9315 20.6624 29.1003 20.6668 31.2705 20.6711C31.3877 20.6711 31.5063 20.6711 31.651 20.6711C31.625 20.729 31.6105 20.7724 31.5859 20.8071C31.1721 21.4003 30.7497 21.9342 30.346 22.5346C30.2201 22.7213 30.0942 22.8008 29.8555 22.7965C29.5054 22.7907 29.1538 22.7921 28.8037 22.7965H26.0706V22.9846C26.0706 22.999 26.0706 23.0135 26.0706 23.0294C26.0721 24.1203 26.0735 25.2112 26.075 26.3022C26.075 28.2915 26.075 30.2824 26.075 32.2718C26.075 32.3181 26.0793 32.3658 26.0822 32.441C26.1603 32.4222 26.2327 32.4208 26.2891 32.389C27.5319 31.6974 28.7834 31.0159 29.9322 30.1753C30.5818 29.6993 31.217 29.1929 31.8015 28.6402C32.3253 28.1454 32.7781 27.5696 33.0545 26.8867C33.1239 26.7145 33.1774 26.5336 33.2295 26.3542C33.2859 26.1618 33.3149 25.9621 33.3149 25.7625" fill="#2B00BA"/>
<mask id="mask0_9176_15144" style="mask-type:luminance" maskUnits="userSpaceOnUse" x="16" y="8" width="9" height="25">
<path d="M16.6836 32.4453H25L25 8.44531H16.6836L16.6836 32.4453Z" fill="white"/>
</mask>
<g mask="url(#mask0_9176_15144)">
<path d="M16.6836 15.3323C16.9079 14.3253 17.611 13.4543 18.3417 12.783C18.7685 12.3909 19.2271 12.0335 19.6713 11.6617C19.7104 11.6284 19.7552 11.6038 19.8319 11.5532V14.7738C19.91 14.7362 19.9578 14.7188 19.9983 14.6914C20.6088 14.292 21.2165 13.8913 21.8285 13.4948C21.9283 13.4297 21.9732 13.3603 21.9717 13.2329C21.9631 12.2563 21.9602 11.2797 21.966 10.3017C21.966 10.2178 22.0267 10.115 22.1005 10.0745C23.0164 9.56089 23.938 9.0545 24.8611 8.5539C24.9189 8.52207 25.0144 8.52207 25.0737 8.5539C25.9013 8.99518 26.726 9.4437 27.5507 9.88933C27.5985 9.91537 27.6404 9.95299 27.6911 9.96745C27.9905 10.0543 28.0528 10.2539 28.0455 10.552C28.0238 11.4331 28.0397 12.3142 28.0339 13.1953C28.0325 13.505 28.2452 13.5498 28.9541 13.8406C29.3723 14.0128 29.7137 14.3152 29.9857 14.6754C30.032 14.7376 30.0798 14.7405 30.1868 14.7854V11.5648C30.4921 11.8136 30.7685 12.0118 31.013 12.2419C31.4832 12.6832 31.9708 13.1143 32.3889 13.6033C33.0009 14.3181 33.3221 15.15 33.3163 16.1208C33.2975 19.2257 33.3033 22.3306 33.3134 25.4355C33.3163 26.2804 33.0559 27.0227 32.564 27.6911C31.9983 28.4594 31.2864 29.0786 30.5471 29.6718C29.2392 30.7222 27.7822 31.5339 26.331 32.3542C26.2688 32.3904 26.195 32.4063 26.0938 32.4439C26.0938 32.334 26.0938 32.2645 26.0938 32.1951C26.0938 29.1495 26.0938 25.9318 26.0938 22.8862L26.0995 22.7965C26.9604 22.8023 28.4694 22.8095 29.3303 22.7965C29.5878 22.7921 29.8642 22.7965 30.1029 22.7835C30.1521 22.7806 30.2013 22.7198 30.2331 22.6735C30.6831 22.0398 31.1316 21.4567 31.5772 20.8201C31.6004 20.7868 31.6206 20.7203 31.6047 20.6942C31.5859 20.6653 31.5237 20.6537 31.4788 20.6537C30.4747 20.6537 29.4706 20.6595 28.4665 20.6595C27.3901 20.6595 26.3151 20.6581 25.2387 20.6595C23.0684 20.6624 20.8996 20.6668 18.7294 20.6711C18.6122 20.6711 18.4936 20.6711 18.3489 20.6711C18.3749 20.729 18.3894 20.7724 18.414 20.8071C18.8278 21.4003 19.2503 21.9342 19.6539 22.5346C19.7798 22.7213 19.9057 22.8008 20.1444 22.7965C20.4945 22.7907 20.8461 22.7921 21.1962 22.7965H23.9293V22.9846C23.9293 22.999 23.9293 23.0135 23.9293 23.0294C23.9279 24.1203 23.9264 25.2112 23.925 26.3022C23.925 28.2915 23.925 30.2824 23.925 32.2718C23.925 32.3181 23.9206 32.3658 23.9177 32.441C23.8396 32.4222 23.7673 32.4208 23.7108 32.389C22.468 31.6974 21.2165 31.0159 20.0677 30.1753C19.4181 29.6993 18.7829 29.1929 18.1984 28.6402C17.6747 28.1454 17.2218 27.5696 16.9455 26.8867C16.876 26.7145 16.8225 26.5336 16.7704 26.3542C16.7125 26.1633 16.6836 25.9636 16.6836 25.7639" fill="#493DFF"/>
</g>
<path d="M16.8848 34.4453L18.5938 37.1699L20.3027 34.4453H21.4014L19.1553 37.9658L21.4551 41.5547H20.3467L18.5938 38.7764L16.8408 41.5547H15.7324L18.0322 37.9658L15.7861 34.4453H16.8848Z" fill="#1C1D1F"/>
<path d="M24.4678 41.5547H22.9834L22.9932 40.7881H24.4678C24.9756 40.7881 25.3988 40.6823 25.7373 40.4707C26.0758 40.2559 26.3298 39.9564 26.499 39.5723C26.6715 39.1849 26.7578 38.7324 26.7578 38.2148V37.7803C26.7578 37.3734 26.709 37.012 26.6113 36.6963C26.5137 36.3773 26.3704 36.1087 26.1816 35.8906C25.9928 35.6693 25.7617 35.5016 25.4883 35.3877C25.2181 35.2738 24.9072 35.2168 24.5557 35.2168H22.9541V34.4453H24.5557C25.0212 34.4453 25.446 34.5234 25.8301 34.6797C26.2142 34.8327 26.5446 35.0557 26.8213 35.3486C27.1012 35.6383 27.3161 35.9899 27.4658 36.4033C27.6156 36.8135 27.6904 37.2757 27.6904 37.79V38.2148C27.6904 38.7292 27.6156 39.193 27.4658 39.6064C27.3161 40.0166 27.0996 40.3665 26.8164 40.6562C26.5365 40.946 26.1979 41.1689 25.8008 41.3252C25.4069 41.4782 24.9626 41.5547 24.4678 41.5547ZM23.4863 34.4453V41.5547H22.5439V34.4453H23.4863Z" fill="#1C1D1F"/>
<path d="M29.1064 34.4453H31.46C31.9938 34.4453 32.4447 34.5267 32.8125 34.6895C33.1836 34.8522 33.4652 35.0931 33.6572 35.4121C33.8525 35.7279 33.9502 36.1169 33.9502 36.5791C33.9502 36.9046 33.8835 37.2025 33.75 37.4727C33.6198 37.7396 33.431 37.9674 33.1836 38.1562C32.9395 38.3418 32.6465 38.4801 32.3047 38.5713L32.041 38.6738H29.8291L29.8193 37.9072H31.4893C31.8278 37.9072 32.1094 37.8486 32.334 37.7314C32.5586 37.611 32.7279 37.4499 32.8418 37.248C32.9557 37.0462 33.0127 36.8232 33.0127 36.5791C33.0127 36.3057 32.959 36.0664 32.8516 35.8613C32.7441 35.6562 32.5749 35.4984 32.3438 35.3877C32.1159 35.2738 31.8213 35.2168 31.46 35.2168H30.0488V41.5547H29.1064V34.4453ZM33.2617 41.5547L31.5332 38.332L32.5146 38.3271L34.2676 41.4961V41.5547H33.2617Z" fill="#1C1D1F"/>
</svg>
