<svg width="50" height="50" viewBox="0 0 50 50" fill="none" xmlns="http://www.w3.org/2000/svg">
<path d="M33.3164 15.3325C33.0921 14.3255 32.389 13.4546 31.6583 12.7832C31.2315 12.3911 30.7729 12.0338 30.3287 11.6619C30.2896 11.6287 30.2448 11.6041 30.1681 11.5534V14.7741C30.09 14.7364 30.0422 14.7191 30.0017 14.6916C29.3911 14.2923 28.7835 13.8915 28.1715 13.4951C28.0716 13.43 28.0268 13.3605 28.0282 13.2332C28.0369 12.2566 28.0398 11.28 28.034 10.3019C28.034 10.218 27.9733 10.1153 27.8995 10.0748C26.9836 9.56114 26.062 9.05475 25.1389 8.55415C25.0811 8.52232 24.9856 8.52232 24.9262 8.55415C24.0987 8.99543 23.274 9.44395 22.4493 9.88957C22.4015 9.91561 22.3596 9.95323 22.3089 9.9677C22.0094 10.0545 21.9472 10.2542 21.9545 10.5522C21.9762 11.4333 21.9602 12.3145 21.966 13.1956C21.9675 13.5052 21.7548 13.55 21.0459 13.8409C20.6277 14.013 20.2863 14.3154 20.0143 14.6757C19.968 14.7379 19.9202 14.7408 19.8132 14.7856V11.565C19.5079 11.8139 19.2315 12.0121 18.987 12.2421C18.5168 12.6834 18.0292 13.1146 17.6111 13.6036C16.9991 14.3183 16.6779 15.1502 16.6837 16.1211C16.7025 19.226 16.6967 22.3309 16.6866 25.4357C16.6837 26.2807 16.9441 27.0229 17.436 27.6914C18.0017 28.4596 18.7136 29.0789 19.4529 29.6721C20.7608 30.7225 22.2178 31.5341 23.6689 32.3545C23.7312 32.3907 23.805 32.4066 23.9062 32.4442C23.9062 32.3342 23.9062 32.2648 23.9062 32.1953C23.9062 29.1498 23.9062 25.932 23.9062 22.8864L23.9004 22.7967C23.0396 22.8025 21.5305 22.8098 20.6697 22.7967C20.4121 22.7924 20.1358 22.7967 19.8971 22.7837C19.8479 22.7808 19.7987 22.72 19.7669 22.6737C19.3169 22.04 18.8684 21.457 18.4228 20.8204C18.3996 20.7871 18.3794 20.7205 18.3953 20.6945C18.4141 20.6656 18.4763 20.654 18.5211 20.654C19.5252 20.654 20.5293 20.6598 21.5334 20.6598C22.6099 20.6598 23.6849 20.6583 24.7613 20.6598C26.9315 20.6627 29.1003 20.667 31.2706 20.6713C31.3878 20.6713 31.5064 20.6713 31.6511 20.6713C31.625 20.7292 31.6106 20.7726 31.586 20.8073C31.1722 21.4005 30.7497 21.9344 30.3461 22.5349C30.2202 22.7215 30.0943 22.8011 29.8556 22.7967C29.5054 22.7909 29.1539 22.7924 28.8037 22.7967H26.0707V22.9848C26.0707 22.9993 26.0707 23.0138 26.0707 23.0297C26.0721 24.1206 26.0736 25.2115 26.075 26.3024C26.075 28.2918 26.075 30.2826 26.075 32.272C26.075 32.3183 26.0794 32.3661 26.0823 32.4413C26.1604 32.4225 26.2327 32.421 26.2892 32.3892C27.532 31.6976 28.7835 31.0162 29.9323 30.1756C30.5819 29.6996 31.217 29.1932 31.8016 28.6405C32.3253 28.1457 32.7782 27.5698 33.0545 26.8869C33.124 26.7147 33.1775 26.5339 33.2296 26.3545C33.286 26.1621 33.3149 25.9624 33.3149 25.7627" fill="#2B00BA"/>
<mask id="mask0_12457_15434" style="mask-type:luminance" maskUnits="userSpaceOnUse" x="16" y="8" width="9" height="25">
<path d="M16.6836 32.4453H25L25 8.44531H16.6836L16.6836 32.4453Z" fill="white"/>
</mask>
<g mask="url(#mask0_12457_15434)">
<path d="M16.6836 15.3325C16.9079 14.3255 17.611 13.4546 18.3417 12.7832C18.7685 12.3911 19.2271 12.0338 19.6713 11.6619C19.7104 11.6287 19.7552 11.6041 19.8319 11.5534V14.7741C19.91 14.7364 19.9578 14.7191 19.9983 14.6916C20.6088 14.2923 21.2165 13.8915 21.8285 13.4951C21.9283 13.43 21.9732 13.3605 21.9717 13.2332C21.9631 12.2566 21.9602 11.28 21.966 10.3019C21.966 10.218 22.0267 10.1153 22.1005 10.0748C23.0164 9.56114 23.938 9.05475 24.8611 8.55415C24.9189 8.52232 25.0144 8.52232 25.0737 8.55415C25.9013 8.99543 26.726 9.44395 27.5507 9.88957C27.5985 9.91561 27.6404 9.95323 27.6911 9.9677C27.9905 10.0545 28.0528 10.2542 28.0455 10.5522C28.0238 11.4333 28.0397 12.3145 28.0339 13.1956C28.0325 13.5052 28.2452 13.55 28.9541 13.8409C29.3723 14.013 29.7137 14.3154 29.9857 14.6757C30.032 14.7379 30.0798 14.7408 30.1868 14.7856V11.565C30.4921 11.8139 30.7685 12.0121 31.013 12.2421C31.4832 12.6834 31.9708 13.1146 32.3889 13.6036C33.0009 14.3183 33.3221 15.1502 33.3163 16.1211C33.2975 19.226 33.3033 22.3309 33.3134 25.4357C33.3163 26.2807 33.0559 27.0229 32.564 27.6914C31.9983 28.4596 31.2864 29.0789 30.5471 29.6721C29.2392 30.7225 27.7822 31.5341 26.331 32.3545C26.2688 32.3907 26.195 32.4066 26.0938 32.4442C26.0938 32.3342 26.0938 32.2648 26.0938 32.1953C26.0938 29.1498 26.0938 25.932 26.0938 22.8864L26.0995 22.7967C26.9604 22.8025 28.4694 22.8098 29.3303 22.7967C29.5878 22.7924 29.8642 22.7967 30.1029 22.7837C30.1521 22.7808 30.2013 22.72 30.2331 22.6737C30.6831 22.04 31.1316 21.457 31.5772 20.8204C31.6004 20.7871 31.6206 20.7205 31.6047 20.6945C31.5859 20.6656 31.5237 20.654 31.4788 20.654C30.4747 20.654 29.4706 20.6598 28.4665 20.6598C27.3901 20.6598 26.3151 20.6583 25.2387 20.6598C23.0684 20.6627 20.8996 20.667 18.7294 20.6713C18.6122 20.6713 18.4936 20.6713 18.3489 20.6713C18.3749 20.7292 18.3894 20.7726 18.414 20.8073C18.8278 21.4005 19.2503 21.9344 19.6539 22.5349C19.7798 22.7215 19.9057 22.8011 20.1444 22.7967C20.4945 22.7909 20.8461 22.7924 21.1962 22.7967H23.9293V22.9848C23.9293 22.9993 23.9293 23.0138 23.9293 23.0297C23.9279 24.1206 23.9264 25.2115 23.925 26.3024C23.925 28.2918 23.925 30.2826 23.925 32.272C23.925 32.3183 23.9206 32.3661 23.9177 32.4413C23.8396 32.4225 23.7673 32.421 23.7108 32.3892C22.468 31.6976 21.2165 31.0162 20.0677 30.1756C19.4181 29.6996 18.7829 29.1932 18.1984 28.6405C17.6747 28.1457 17.2218 27.5698 16.9455 26.8869C16.876 26.7147 16.8225 26.5339 16.7704 26.3545C16.7125 26.1635 16.6836 25.9638 16.6836 25.7642" fill="#493DFF"/>
</g>
<path d="M16.8848 34.4453L18.5938 37.1699L20.3027 34.4453H21.4014L19.1553 37.9658L21.4551 41.5547H20.3467L18.5938 38.7764L16.8408 41.5547H15.7324L18.0322 37.9658L15.7861 34.4453H16.8848Z" fill="#7F8BA5"/>
<path d="M24.4678 41.5547H22.9834L22.9932 40.7881H24.4678C24.9756 40.7881 25.3988 40.6823 25.7373 40.4707C26.0758 40.2559 26.3298 39.9564 26.499 39.5723C26.6715 39.1849 26.7578 38.7324 26.7578 38.2148V37.7803C26.7578 37.3734 26.709 37.012 26.6113 36.6963C26.5137 36.3773 26.3704 36.1087 26.1816 35.8906C25.9928 35.6693 25.7617 35.5016 25.4883 35.3877C25.2181 35.2738 24.9072 35.2168 24.5557 35.2168H22.9541V34.4453H24.5557C25.0212 34.4453 25.446 34.5234 25.8301 34.6797C26.2142 34.8327 26.5446 35.0557 26.8213 35.3486C27.1012 35.6383 27.3161 35.9899 27.4658 36.4033C27.6156 36.8135 27.6904 37.2757 27.6904 37.79V38.2148C27.6904 38.7292 27.6156 39.193 27.4658 39.6064C27.3161 40.0166 27.0996 40.3665 26.8164 40.6562C26.5365 40.946 26.1979 41.1689 25.8008 41.3252C25.4069 41.4782 24.9626 41.5547 24.4678 41.5547ZM23.4863 34.4453V41.5547H22.5439V34.4453H23.4863Z" fill="#7F8BA5"/>
<path d="M29.1064 34.4453H31.46C31.9938 34.4453 32.4447 34.5267 32.8125 34.6895C33.1836 34.8522 33.4652 35.0931 33.6572 35.4121C33.8525 35.7279 33.9502 36.1169 33.9502 36.5791C33.9502 36.9046 33.8835 37.2025 33.75 37.4727C33.6198 37.7396 33.431 37.9674 33.1836 38.1562C32.9395 38.3418 32.6465 38.4801 32.3047 38.5713L32.041 38.6738H29.8291L29.8193 37.9072H31.4893C31.8278 37.9072 32.1094 37.8486 32.334 37.7314C32.5586 37.611 32.7279 37.4499 32.8418 37.248C32.9557 37.0462 33.0127 36.8232 33.0127 36.5791C33.0127 36.3057 32.959 36.0664 32.8516 35.8613C32.7441 35.6562 32.5749 35.4984 32.3438 35.3877C32.1159 35.2738 31.8213 35.2168 31.46 35.2168H30.0488V41.5547H29.1064V34.4453ZM33.2617 41.5547L31.5332 38.332L32.5146 38.3271L34.2676 41.4961V41.5547H33.2617Z" fill="#7F8BA5"/>
</svg>
