<svg width="50" height="50" viewBox="0 0 50 50" fill="none" xmlns="http://www.w3.org/2000/svg">
<path d="M16.333 26.7146C16.2848 26.6998 16.2327 26.7091 16.193 26.7394L8.06145 32.9305C7.96423 33.0044 7.986 33.1568 8.10111 33.2004L15.3919 35.9412L11.4432 41.7574C11.3732 41.8609 11.4471 42.0001 11.5715 42.0001H22.0022C22.0457 42.0001 22.0877 41.9814 22.1173 41.9487L24.2764 39.5695C24.3347 39.5058 24.4343 39.5011 24.4973 39.5602L27.081 41.9581C27.1098 41.9845 27.1479 41.9993 27.1868 41.9993H37.7248C37.8485 41.9993 37.9231 41.8616 37.8547 41.7582L34.0483 36.0105" fill="#FE483A"/>
<path d="M10.5013 28.0119L18.6477 10.7695C18.6663 10.7298 18.7013 10.6995 18.7433 10.6871L24.3394 9.00707C24.3674 8.99851 24.3969 8.99851 24.4249 9.00629L30.3796 10.6233C30.4231 10.6349 30.4597 10.6653 30.4791 10.7065L38.6822 27.8229C38.7515 27.9675 38.5827 28.1099 38.452 28.0173L29.2308 21.4755C29.2051 21.4576 29.1748 21.4475 29.1429 21.4467L20.0865 21.3161C20.0523 21.3161 20.0189 21.3262 19.9917 21.3464L10.7346 28.204C10.6048 28.3004 10.4321 28.1581 10.5013 28.0119Z" fill="#FE453D"/>
<path d="M24.3822 21.3767V9.01951C24.3822 9.00707 24.3938 8.99774 24.4063 9.00085L30.3796 10.6233C30.4231 10.6349 30.4589 10.6645 30.4791 10.7049L38.8728 28.0212C38.9428 28.1667 38.7732 28.3098 38.6426 28.2157L29.2316 21.4739C29.2059 21.4553 29.1748 21.4452 29.1429 21.4452L24.3822 21.3767Z" fill="#A62E29"/>
<path d="M24.3822 39.4536L36.2393 39.3183L34.0483 36.0105L24.3822 39.4536Z" fill="#70211C"/>
<path d="M13.0065 39.4536H24.3822L15.3919 35.9412L13.0065 39.4536Z" fill="#B8332B"/>
<path d="M24.3822 39.4536L34.0483 36.0105L41.4496 33.2144C41.5273 33.1848 41.5421 33.0814 41.476 33.0316L33.2386 26.7589C33.1904 26.7223 33.122 26.7332 33.0877 26.783L24.3822 39.4536Z" fill="#A62E29"/>
<path d="M26.3258 24.8604L29.5473 23.8765C29.5995 23.8609 29.6555 23.8726 29.6959 23.9091L30.5608 24.676C30.6323 24.739 30.63 24.851 30.5569 24.9117L29.2292 26.02C29.1919 26.0511 29.1413 26.0636 29.0939 26.0519L26.3359 25.4063C26.2659 25.39 26.2162 25.327 26.2162 25.2547V25.0097C26.2162 24.9412 26.2605 24.8806 26.3266 24.8611L26.3258 24.8604Z" fill="#3A3A3A"/>
<path d="M22.9347 24.8604L19.7132 23.8765C19.6611 23.8609 19.6051 23.8726 19.5647 23.9091L18.6998 24.676C18.6282 24.739 18.6306 24.851 18.7037 24.9117L20.0313 26.02C20.0687 26.0511 20.1192 26.0636 20.1667 26.0519L22.9246 25.4063C22.9946 25.39 23.0444 25.327 23.0444 25.2547V25.0097C23.0444 24.9412 23.0001 24.8806 22.934 24.8611L22.9347 24.8604Z" fill="#3A3A3A"/>
<path d="M15.8321 27.0132L20.6598 36.9407C20.6722 36.9656 20.6901 36.9866 20.7134 37.0021L24.3822 39.4536L28.5744 36.943C28.6 36.9275 28.6202 36.9057 28.6335 36.8792L33.5163 27.1276C33.5497 27.0607 33.5311 26.9798 33.4712 26.9339L33.2153 26.7387C33.1749 26.7076 33.1212 26.699 33.073 26.7146L26.0948 28.9849C26.0412 29.0028 25.982 28.9895 25.94 28.9506L24.7368 27.8244C24.6769 27.7684 24.5844 27.7684 24.5245 27.8244L23.438 28.8355C23.3975 28.8736 23.3392 28.8869 23.2863 28.8705L16.333 26.7146C16.2848 26.6998 16.2327 26.7091 16.193 26.7394L15.8321 27.0132Z" fill="#B6B6B6"/>
<path d="M24.3822 39.4536L24.2398 28.0904L24.5261 27.8237C24.5852 27.7684 24.6769 27.7684 24.7368 27.8229L25.8825 28.8666C25.9229 28.904 25.9805 28.9164 26.0334 28.9001L33.073 26.7146C33.1212 26.6998 33.1733 26.7091 33.213 26.7394L33.5723 27.0132L28.6319 36.88C28.6187 36.9065 28.5985 36.929 28.5728 36.9438L24.3806 39.4536L24.3822 39.4536Z" fill="#3D3D3D"/>
</svg>
