<svg width="50" height="50" viewBox="0 0 50 50" fill="none" xmlns="http://www.w3.org/2000/svg">
<path d="M40.7353 10.1391H9.75684V39.9702H40.7353V10.1391Z" fill="white"/>
<path d="M10.3032 38.495L40.3529 30.0811L39.7519 27.9503L9.75684 36.3642L10.3032 38.495Z" fill="black"/>
<path d="M39.3692 29.043V37.7848H39.3146V38.1126H39.2599V38.2765H39.2053V38.3858H39.1507V38.495H39.096V38.6043H39.0414V38.6589H38.9868V38.7136L38.9321 38.7682V38.8228H38.8775V38.8775H38.8228V38.9321H38.7682L38.7136 38.9868H38.6589V39.0414H38.6043V39.096H38.495V39.1507H38.3858V39.2053H38.2765V39.2599H38.1126V39.3146H37.7848V39.3692H12.2152V39.3146H11.8874V39.2599H11.7235V39.2053H11.6142V39.1507H11.505V39.096H11.4503L11.3957 39.0414H11.3411V38.9868H11.2864V38.9321H11.2318V38.8775H11.1772L11.1225 38.8228V38.7682H11.0679V38.7136H11.0132V38.6589H10.9586V38.5497H10.904V38.495L10.8493 38.4404V38.3858L10.7947 38.3311V38.2219H10.7401V38.0579L10.6854 38.0033V11.9967H10.7401V11.7781H10.7947V11.6689H10.8493V11.5596H10.904V11.4503H10.9586V11.3957H11.0132V11.2864H11.0679V11.2318H11.1225V11.1772H11.1772V11.1225H11.2318V11.0679H11.2864V11.0132H11.3957V10.9586H11.4503V10.904H11.5596V10.8493H11.6689V10.7947H11.7781V10.7401H11.9967V10.6854H38.0033V10.7401H38.2219V10.7947H38.3311L38.3858 10.8493H38.4404L38.495 10.904H38.5497V10.9586H38.6589V11.0132H38.7136V11.0679H38.7682V11.1225H38.8228V11.1772H38.8775V11.2318H38.9321V11.2864H38.9868V11.3411H39.0414V11.3957L39.096 11.4503V11.505H39.1507V11.6142H39.2053V11.7235H39.2599V11.8874H39.3146V12.2152L39.3692 12.2699V29.3162H41.5V11.7235H41.4454V11.4503H41.3907V11.2864L41.3361 11.2318V11.0679H41.2815V10.9586L41.2268 10.904V10.7947H41.1722V10.6854H41.1175V10.5762H41.0629V10.4669H41.0083V10.4123L40.9536 10.3576V10.303L40.899 10.2483V10.1937H40.8444V10.1391H40.7897V10.0844L40.7351 10.0298V9.97517H40.6805V9.92053H40.6258V9.86589L40.5166 9.75662V9.70199H40.4619V9.64735H40.4073L40.3526 9.59272V9.53808H40.298L40.1887 9.42881H40.1341V9.37417H40.0795V9.31954H40.0248V9.2649H39.9702L39.9156 9.21026H39.8609V9.15563H39.8063L39.7517 9.10099H39.697V9.04636H39.5877V8.99172H39.5331L39.4785 8.93709H39.4238L39.3692 8.88245H39.3146L39.2599 8.82781H39.1507V8.77318H39.0414V8.71854H38.8775V8.66391H38.7136L38.6589 8.60927H38.495L38.4404 8.55464H38.1672L38.1126 8.5H11.8874V8.55464H11.5596V8.60927H11.3411L11.2864 8.66391H11.1772L11.1225 8.71854H11.0132L10.9586 8.77318H10.8493V8.82781H10.7401V8.88245H10.6308V8.93709H10.5215L10.4669 8.99172H10.4123V9.04636H10.303V9.10099H10.2483V9.15563H10.1391V9.21026H10.0844V9.2649H10.0298L9.92053 9.37417H9.86589V9.42881H9.81126V9.48344H9.75662V9.53808H9.70199L9.64735 9.59272V9.64735H9.59272L9.53808 9.70199V9.75662H9.48344V9.81126H9.42881V9.86589H9.37417V9.92053L9.2649 10.0298V10.0844H9.21026V10.1391L9.15563 10.1937V10.2483H9.10099V10.303H9.04636V10.4123H8.99172V10.4669L8.93709 10.5215V10.6308H8.88245V10.7401H8.82781V10.8493H8.77318V10.9586L8.71854 11.0132V11.1225L8.66391 11.1772V11.2864L8.60927 11.3411V11.5596H8.55463V11.8328L8.5 11.8874V38.1672H8.55463V38.495H8.60927V38.7136H8.66391V38.8775H8.71854V39.0414H8.77318V39.1507H8.82781V39.2599L8.88245 39.3146V39.3692L8.93709 39.4238V39.5331H8.99172V39.5877H9.04636V39.697H9.10099V39.7517L9.15563 39.8063V39.8609H9.21026V39.9702H9.2649V40.0248H9.31954V40.0795H9.37417V40.1341H9.42881V40.1887L9.53808 40.298V40.3526H9.59272V40.4073H9.64735V40.4619H9.70199V40.5166H9.75662L9.86589 40.6258H9.92053V40.6805H9.97516V40.7351H10.0298L10.0844 40.7897H10.1391V40.8444H10.1937V40.899H10.2483L10.303 40.9536H10.3576L10.4123 41.0083H10.4669V41.0629H10.5762V41.1175H10.6854V41.1722H10.7947V41.2268H10.904L10.9586 41.2815H11.0679V41.3361H11.2318V41.3907H11.4503V41.4454H11.7235V41.5H38.2765L38.3311 41.4454H38.5497L38.6043 41.3907H38.7682L38.8228 41.3361H38.9321V41.2815H39.096V41.2268H39.2053L39.2599 41.1722H39.3146L39.3692 41.1175H39.4238L39.4785 41.0629H39.5331V41.0083H39.6424V40.9536H39.7517V40.899H39.8063V40.8444H39.8609L39.9156 40.7897H39.9702V40.7351H40.0248L40.1341 40.6258H40.1887V40.5712H40.2434V40.5166H40.298V40.4619H40.3526V40.4073H40.4073V40.3526H40.4619V40.298H40.5166V40.2434H40.5712V40.1887H40.6258V40.1341H40.6805V40.0795L40.7351 40.0248L40.7353 39.9702L40.7897 39.9702V39.9156L40.8444 39.8609V39.8063H40.899V39.7517H40.9536V39.6424H41.0083V39.5331H41.0629V39.4785H41.1175V39.3692L41.1722 39.3146V39.2599L41.2268 39.2053V39.096H41.2815V38.9321H41.3361V38.7682H41.3907V38.5497H41.4454V38.3311L41.5 38.2765V29.0977L39.3692 29.043Z" fill="black"/>
<path d="M13.4717 14.947C13.8541 14.4553 14.7283 13.9635 15.2747 13.745C19.0445 10.9586 20.8475 13.6357 23.4154 16.75C28.0048 19.7003 29.7531 24.6175 31.9386 30.1904C33.4137 31.7748 33.7416 32.4851 35.2167 34.0695C35.0528 34.1788 34.7796 34.1241 34.5065 34.0149C35.2714 34.8344 36.0909 36.0364 36.4733 37.0198C35.927 36.9106 35.3806 36.4735 34.8889 35.9818C35.3806 37.0745 35.927 38.495 35.6538 38.8775C35.4353 38.9867 35.1621 38.7136 34.9435 38.3311C34.9435 38.6589 34.8889 38.9867 34.8343 39.2053C34.5065 39.2053 34.3425 38.9867 34.1786 38.495C32.922 34.8344 30.0263 32.2119 27.5677 30.4636C27.5677 30.9006 27.5677 31.3924 27.7316 31.9934C27.7316 32.3212 27.8955 33.1407 27.6223 33.3046C27.6223 32.8129 27.3492 31.9387 27.076 31.5016C26.8028 32.1573 26.3657 34.0149 25.9833 33.851C25.874 34.1241 25.7647 34.5612 25.874 34.889C25.6555 34.7251 25.6008 34.0695 25.7647 33.7417C25.6008 33.6871 26.2564 32.5943 26.1472 32.1573C25.874 32.5943 25.8194 32.7036 25.6008 32.9768C25.6008 32.5397 25.874 31.8294 26.1472 31.5016C26.6389 31.1738 27.0213 30.7367 27.1853 30.245C26.9667 30.0811 26.8028 29.9718 26.5843 29.8626C25.4369 29.9718 24.0164 29.8626 22.7598 29.4801C22.869 29.8079 22.8144 30.1904 22.1041 30.6275C21.4485 31.2831 20.9568 31.9387 20.4104 32.8129C20.4104 32.8675 20.3558 32.9222 20.3558 33.0861C20.4104 33.4685 20.5743 35.053 20.629 35.4354C20.4651 35.053 20.1372 34.0695 20.028 33.6871C19.5909 34.2334 19.3177 35.1076 19.0992 35.8179C19.0445 35.9271 18.9353 35.9271 18.826 35.9271C18.7167 36.2549 18.6621 36.692 18.7167 36.9652C18.5528 36.6374 18.4435 36.091 18.5528 35.7632C18.5528 35.7632 18.5528 35.654 18.5528 35.5993C18.6621 35.1622 18.8806 34.6159 19.0445 34.1788C18.7713 34.3427 18.6074 34.6159 18.4982 35.053C18.3343 34.5612 18.6074 33.6871 19.1538 33.3046C20.1919 32.4851 20.8475 31.3377 21.5578 30.2996C21.3939 29.8626 21.3392 29.3708 21.2846 28.8791C21.1207 28.8245 20.9568 28.7152 20.8475 28.6059C17.624 26.0381 16.2581 23.2516 16.0396 17.8427C15.4932 17.4056 15.0561 16.6407 15.1108 15.8758C14.8376 15.6026 13.9088 15.2748 13.4717 14.947Z" fill="#D12030"/>
</svg>
