<svg width="50" height="50" viewBox="0 0 50 50" fill="none" xmlns="http://www.w3.org/2000/svg">
<path d="M30.4515 18.1027C32.5546 18.1027 35.5974 17.7265 35.5974 15.5565C35.6037 15.389 35.5862 15.2215 35.5453 15.0577L34.2929 10.3385C34.0037 9.30021 33.7499 8.82917 31.6485 7.91771C30.0178 7.19437 26.4656 6 25.4149 6C24.4365 6 24.1524 7.09375 22.9857 7.09375C21.8627 7.09375 21.0289 6.27708 19.9782 6.27708C18.9695 6.27708 18.3122 6.87354 17.8045 8.1C17.8045 8.1 16.3907 11.5592 16.2092 12.0608C16.1803 12.153 16.1678 12.2484 16.1722 12.3438C16.1722 13.6883 22.2746 18.0969 30.4515 18.0969V18.1027ZM35.9202 16.4373C36.211 17.6317 36.211 17.7571 36.211 17.9146C36.211 19.9562 33.565 21.0894 30.0867 21.0894C22.2259 21.0938 15.34 17.0979 15.34 14.4569C15.3396 14.0893 15.426 13.7255 15.5939 13.3879C12.7662 13.5104 9.10645 13.9479 9.10645 16.7508C9.10645 21.3417 21.6459 27 31.5745 27C39.1866 27 41.1064 24.0133 41.1064 21.6552C41.1064 19.8002 39.2572 17.6944 35.9236 16.4373" fill="#EE0000"/>
<path d="M35.9202 16.4373C36.211 17.6317 36.211 17.7571 36.211 17.9146C36.211 19.9562 33.565 21.0894 30.0867 21.0894C22.2259 21.0938 15.34 17.0979 15.34 14.4569C15.3396 14.0893 15.426 13.7255 15.5939 13.3879L16.2092 12.0666C16.181 12.1569 16.1685 12.2503 16.1722 12.3438C16.1722 13.6883 22.2746 18.0969 30.4515 18.0969C32.5546 18.0969 35.5975 17.7206 35.5975 15.5506C35.6038 15.3831 35.5863 15.2156 35.5454 15.0519L35.9202 16.4373Z" fill="black"/>
<path d="M11.6143 39.2031C11.6143 39.0371 11.5882 38.8906 11.5361 38.7637C11.4873 38.6335 11.3994 38.5163 11.2725 38.4121C11.1488 38.3079 10.9762 38.2087 10.7549 38.1143C10.5368 38.0199 10.2601 37.9238 9.9248 37.8262C9.57324 37.722 9.25586 37.6064 8.97266 37.4795C8.68945 37.3493 8.44694 37.2012 8.24512 37.0352C8.04329 36.8691 7.88867 36.6787 7.78125 36.4639C7.67383 36.249 7.62012 36.0033 7.62012 35.7266C7.62012 35.4499 7.67708 35.1943 7.79102 34.96C7.90495 34.7256 8.06771 34.5221 8.2793 34.3496C8.49414 34.1738 8.74967 34.0371 9.0459 33.9395C9.34212 33.8418 9.67253 33.793 10.0371 33.793C10.571 33.793 11.0234 33.8955 11.3945 34.1006C11.7689 34.3024 12.0537 34.5677 12.249 34.8965C12.4443 35.222 12.542 35.5703 12.542 35.9414H11.6045C11.6045 35.6745 11.5475 35.4385 11.4336 35.2334C11.3197 35.0251 11.1471 34.8623 10.916 34.7451C10.6849 34.6247 10.3919 34.5645 10.0371 34.5645C9.70182 34.5645 9.42513 34.6149 9.20703 34.7158C8.98893 34.8167 8.82617 34.9535 8.71875 35.126C8.61458 35.2985 8.5625 35.4954 8.5625 35.7168C8.5625 35.8665 8.59342 36.0033 8.65527 36.127C8.72038 36.2474 8.81966 36.3597 8.95312 36.4639C9.08984 36.568 9.26237 36.6641 9.4707 36.752C9.68229 36.8398 9.93457 36.9245 10.2275 37.0059C10.6312 37.1198 10.9795 37.2467 11.2725 37.3867C11.5654 37.5267 11.8063 37.6846 11.9951 37.8604C12.1872 38.0329 12.3288 38.2298 12.4199 38.4512C12.5143 38.6693 12.5615 38.9167 12.5615 39.1934C12.5615 39.4831 12.5029 39.7451 12.3857 39.9795C12.2686 40.2139 12.1009 40.4141 11.8828 40.5801C11.6647 40.7461 11.4027 40.8747 11.0967 40.9658C10.7939 41.0537 10.4554 41.0977 10.0811 41.0977C9.75228 41.0977 9.42839 41.0521 9.10938 40.9609C8.79362 40.8698 8.50553 40.7331 8.24512 40.5508C7.98796 40.3685 7.78125 40.1439 7.625 39.877C7.47201 39.6068 7.39551 39.2943 7.39551 38.9395H8.33301C8.33301 39.1836 8.38021 39.3936 8.47461 39.5693C8.56901 39.7419 8.69759 39.8851 8.86035 39.999C9.02637 40.113 9.21354 40.1976 9.42188 40.2529C9.63346 40.305 9.85319 40.3311 10.0811 40.3311C10.4098 40.3311 10.6882 40.2855 10.916 40.1943C11.1439 40.1032 11.3164 39.973 11.4336 39.8037C11.554 39.6344 11.6143 39.4342 11.6143 39.2031Z" fill="#1C1D1F"/>
<path d="M16.7412 40.0967V37.377C16.7412 37.1686 16.6989 36.988 16.6143 36.835C16.5329 36.6787 16.4092 36.5583 16.2432 36.4736C16.0771 36.389 15.8721 36.3467 15.6279 36.3467C15.4001 36.3467 15.1999 36.3857 15.0273 36.4639C14.8581 36.542 14.7246 36.6445 14.627 36.7715C14.5326 36.8984 14.4854 37.0352 14.4854 37.1816H13.582C13.582 36.9928 13.6309 36.8057 13.7285 36.6201C13.8262 36.4346 13.9661 36.2669 14.1484 36.1172C14.334 35.9642 14.5553 35.8438 14.8125 35.7559C15.0729 35.6647 15.3626 35.6191 15.6816 35.6191C16.0658 35.6191 16.4043 35.6842 16.6973 35.8145C16.9935 35.9447 17.2246 36.1416 17.3906 36.4053C17.5599 36.6657 17.6445 36.9928 17.6445 37.3867V39.8477C17.6445 40.0234 17.6592 40.2106 17.6885 40.4092C17.721 40.6077 17.7682 40.7786 17.8301 40.9219V41H16.8877C16.8421 40.8958 16.8063 40.7575 16.7803 40.585C16.7542 40.4092 16.7412 40.2464 16.7412 40.0967ZM16.8975 37.7969L16.9072 38.4316H15.9941C15.737 38.4316 15.5075 38.4528 15.3057 38.4951C15.1038 38.5342 14.9346 38.5944 14.7979 38.6758C14.6611 38.7572 14.557 38.8597 14.4854 38.9834C14.4137 39.1038 14.3779 39.2454 14.3779 39.4082C14.3779 39.5742 14.4154 39.7256 14.4902 39.8623C14.5651 39.999 14.6774 40.1081 14.8271 40.1895C14.9801 40.2676 15.1673 40.3066 15.3887 40.3066C15.6654 40.3066 15.9095 40.248 16.1211 40.1309C16.3327 40.0137 16.5003 39.8704 16.624 39.7012C16.751 39.5319 16.8193 39.3675 16.8291 39.208L17.2148 39.6426C17.1921 39.7793 17.1302 39.9307 17.0293 40.0967C16.9284 40.2627 16.7933 40.4222 16.624 40.5752C16.458 40.7249 16.2594 40.8503 16.0283 40.9512C15.8005 41.0488 15.5433 41.0977 15.2568 41.0977C14.8988 41.0977 14.5846 41.0277 14.3145 40.8877C14.0475 40.7477 13.8392 40.5605 13.6895 40.3262C13.543 40.0885 13.4697 39.8232 13.4697 39.5303C13.4697 39.2471 13.5251 38.998 13.6357 38.7832C13.7464 38.5651 13.9059 38.3844 14.1143 38.2412C14.3226 38.0947 14.5732 37.984 14.8662 37.9092C15.1592 37.8343 15.4863 37.7969 15.8477 37.7969H16.8975Z" fill="#1C1D1F"/>
<path d="M21.2773 35.7168V36.4102H18.4209V35.7168H21.2773ZM19.3877 34.4326H20.291V39.6914C20.291 39.8704 20.3187 40.0055 20.374 40.0967C20.4294 40.1878 20.501 40.248 20.5889 40.2773C20.6768 40.3066 20.7712 40.3213 20.8721 40.3213C20.9469 40.3213 21.0251 40.3148 21.1064 40.3018C21.1911 40.2855 21.2546 40.2725 21.2969 40.2627L21.3018 41C21.2301 41.0228 21.1357 41.0439 21.0186 41.0635C20.9046 41.0863 20.7663 41.0977 20.6035 41.0977C20.3822 41.0977 20.1787 41.0537 19.9932 40.9658C19.8076 40.8779 19.6595 40.7314 19.5488 40.5264C19.4414 40.318 19.3877 40.0381 19.3877 39.6865V34.4326Z" fill="#1C1D1F"/>
<path d="M24.5293 41.0977C24.1615 41.0977 23.8278 41.0358 23.5283 40.9121C23.2321 40.7852 22.9766 40.6077 22.7617 40.3799C22.5501 40.152 22.3874 39.8818 22.2734 39.5693C22.1595 39.2568 22.1025 38.915 22.1025 38.5439V38.3389C22.1025 37.9092 22.166 37.5267 22.293 37.1914C22.4199 36.8529 22.5924 36.5664 22.8105 36.332C23.0286 36.0977 23.276 35.9202 23.5527 35.7998C23.8294 35.6794 24.1159 35.6191 24.4121 35.6191C24.7897 35.6191 25.1152 35.6842 25.3887 35.8145C25.6654 35.9447 25.8916 36.127 26.0674 36.3613C26.2432 36.5924 26.3734 36.8659 26.458 37.1816C26.5426 37.4941 26.585 37.8359 26.585 38.207V38.6123H22.6396V37.875H25.6816V37.8066C25.6686 37.5723 25.6198 37.3444 25.5352 37.123C25.4538 36.9017 25.3236 36.7194 25.1445 36.5762C24.9655 36.4329 24.7214 36.3613 24.4121 36.3613C24.207 36.3613 24.0182 36.4053 23.8457 36.4932C23.6732 36.5778 23.5251 36.7048 23.4014 36.874C23.2777 37.0433 23.1816 37.25 23.1133 37.4941C23.0449 37.7383 23.0107 38.0199 23.0107 38.3389V38.5439C23.0107 38.7946 23.0449 39.0306 23.1133 39.252C23.1849 39.4701 23.2874 39.6621 23.4209 39.8281C23.5576 39.9941 23.722 40.1243 23.9141 40.2188C24.1094 40.3132 24.3307 40.3604 24.5781 40.3604C24.8971 40.3604 25.1673 40.2952 25.3887 40.165C25.61 40.0348 25.8037 39.8607 25.9697 39.6426L26.5166 40.0771C26.4027 40.2497 26.2578 40.4141 26.082 40.5703C25.9062 40.7266 25.6898 40.8535 25.4326 40.9512C25.1787 41.0488 24.8776 41.0977 24.5293 41.0977Z" fill="#1C1D1F"/>
<path d="M28.6211 33.5V41H27.7129V33.5H28.6211Z" fill="#1C1D1F"/>
<path d="M31.0527 33.5V41H30.1445V33.5H31.0527Z" fill="#1C1D1F"/>
<path d="M33.4844 35.7168V41H32.5762V35.7168H33.4844ZM32.5078 34.3154C32.5078 34.1689 32.5518 34.0452 32.6396 33.9443C32.7308 33.8434 32.8643 33.793 33.04 33.793C33.2126 33.793 33.3444 33.8434 33.4355 33.9443C33.5299 34.0452 33.5771 34.1689 33.5771 34.3154C33.5771 34.4554 33.5299 34.5758 33.4355 34.6768C33.3444 34.7744 33.2126 34.8232 33.04 34.8232C32.8643 34.8232 32.7308 34.7744 32.6396 34.6768C32.5518 34.5758 32.5078 34.4554 32.5078 34.3154Z" fill="#1C1D1F"/>
<path d="M37.1465 35.7168V36.4102H34.29V35.7168H37.1465ZM35.2568 34.4326H36.1602V39.6914C36.1602 39.8704 36.1878 40.0055 36.2432 40.0967C36.2985 40.1878 36.3701 40.248 36.458 40.2773C36.5459 40.3066 36.6403 40.3213 36.7412 40.3213C36.8161 40.3213 36.8942 40.3148 36.9756 40.3018C37.0602 40.2855 37.1237 40.2725 37.166 40.2627L37.1709 41C37.0993 41.0228 37.0049 41.0439 36.8877 41.0635C36.7738 41.0863 36.6354 41.0977 36.4727 41.0977C36.2513 41.0977 36.0479 41.0537 35.8623 40.9658C35.6768 40.8779 35.5286 40.7314 35.418 40.5264C35.3105 40.318 35.2568 40.0381 35.2568 39.6865V34.4326Z" fill="#1C1D1F"/>
<path d="M40.3984 41.0977C40.0306 41.0977 39.6969 41.0358 39.3975 40.9121C39.1012 40.7852 38.8457 40.6077 38.6309 40.3799C38.4193 40.152 38.2565 39.8818 38.1426 39.5693C38.0286 39.2568 37.9717 38.915 37.9717 38.5439V38.3389C37.9717 37.9092 38.0352 37.5267 38.1621 37.1914C38.2891 36.8529 38.4616 36.5664 38.6797 36.332C38.8978 36.0977 39.1452 35.9202 39.4219 35.7998C39.6986 35.6794 39.985 35.6191 40.2812 35.6191C40.6589 35.6191 40.9844 35.6842 41.2578 35.8145C41.5345 35.9447 41.7607 36.127 41.9365 36.3613C42.1123 36.5924 42.2425 36.8659 42.3271 37.1816C42.4118 37.4941 42.4541 37.8359 42.4541 38.207V38.6123H38.5088V37.875H41.5508V37.8066C41.5378 37.5723 41.4889 37.3444 41.4043 37.123C41.3229 36.9017 41.1927 36.7194 41.0137 36.5762C40.8346 36.4329 40.5905 36.3613 40.2812 36.3613C40.0762 36.3613 39.8874 36.4053 39.7148 36.4932C39.5423 36.5778 39.3942 36.7048 39.2705 36.874C39.1468 37.0433 39.0508 37.25 38.9824 37.4941C38.9141 37.7383 38.8799 38.0199 38.8799 38.3389V38.5439C38.8799 38.7946 38.9141 39.0306 38.9824 39.252C39.054 39.4701 39.1566 39.6621 39.29 39.8281C39.4268 39.9941 39.5911 40.1243 39.7832 40.2188C39.9785 40.3132 40.1999 40.3604 40.4473 40.3604C40.7663 40.3604 41.0365 40.2952 41.2578 40.165C41.4792 40.0348 41.6729 39.8607 41.8389 39.6426L42.3857 40.0771C42.2718 40.2497 42.127 40.4141 41.9512 40.5703C41.7754 40.7266 41.5589 40.8535 41.3018 40.9512C41.0479 41.0488 40.7467 41.0977 40.3984 41.0977Z" fill="#1C1D1F"/>
</svg>
