<svg width="50" height="50" viewBox="0 0 50 50" fill="none" xmlns="http://www.w3.org/2000/svg">
<path fill-rule="evenodd" clip-rule="evenodd" d="M24.9036 8.41454C13.8864 9.20489 6.16846 19.1469 8.87825 29.0579C11.9387 40.2517 26.1254 45.2537 36.5835 38.8264C38.4732 37.6651 41.6727 34.63 41.6667 34.0045C41.6659 33.9199 40.8341 33.4455 40.7902 33.5045C37.1815 38.3579 31.9301 40.8646 25.7915 40.6644C13.521 40.264 5.79057 28.3974 11.1227 18.1471C15.3305 10.0585 26.5049 6.88814 34.9029 11.4004C35.3005 11.614 35.6374 11.7741 35.6517 11.7561C36.3124 10.9278 36.336 10.9627 34.5541 10.1362C32.3488 9.11332 30.288 8.58242 27.8442 8.40753C26.4439 8.30731 26.3977 8.3074 24.9036 8.41454ZM24.3292 10.1408C14.0876 11.4362 7.76703 20.7929 11.0242 29.8367C14.6119 39.7978 28.2553 43.2621 37.0103 36.4351L37.4187 36.1166L37.1733 35.8114C36.8542 35.4142 36.8826 35.4075 35.8894 36.1129C25.3488 43.5994 10.0124 36.0629 11.1572 23.9591C12.2877 12.006 27.3157 6.69701 37.0531 14.8107L37.8212 15.4506L38.4818 14.8308L37.6463 14.1152C34.0946 11.0728 28.9942 9.55073 24.3292 10.1408ZM24.7952 11.5834C14.8603 12.6243 8.89517 22.4986 13.2036 30.7716C16.5936 37.2811 24.6722 40.1852 31.9539 37.5117C33.1685 37.0658 33.2369 37.0112 33.02 36.6604C32.8091 36.3195 32.773 36.3159 32.1628 36.5737C21.3317 41.1488 9.54682 31.4707 13.3182 21.0982C17.1772 10.4848 32.466 9.17539 38.594 18.9333C38.6946 19.0934 38.7404 19.0988 39.0379 18.9854C39.4589 18.825 39.455 18.7734 38.9607 17.9952C36.1931 13.6381 30.3647 11 24.7952 11.5834ZM24.1121 13.068C10.4013 15.4519 9.54807 33.4504 22.9916 36.704C25.0525 37.2027 28.7133 37.2703 29.2042 36.8186C29.3237 36.7087 29.1123 36.1658 28.9696 36.2161C28.1495 36.5057 25.3586 36.5147 23.9262 36.2324C13.1169 34.1021 10.4091 21.0834 19.6039 15.4521C26.4439 11.2629 36.1465 14.5067 38.343 21.717C38.4719 22.1398 38.5876 22.5006 38.6004 22.5189C38.6131 22.5372 38.7679 22.5229 38.9443 22.4873C39.3524 22.4048 39.3503 22.3237 38.9095 21.1194C36.8521 15.4992 30.381 11.9781 24.1121 13.068ZM25.3737 14.1391C13.3492 15.1683 10.585 30.2083 21.5514 34.9362C23.2195 35.6553 25.8959 36.1333 25.8959 35.7121C25.8959 35.5988 25.8975 35.4738 25.8993 35.4344C25.9012 35.395 25.4787 35.3105 24.9605 35.2467C15.9153 34.132 12.0388 24.0136 18.3277 17.9337C25.1508 11.3375 37.0098 15.4034 37.6622 24.5625L37.7305 25.5225L38.2729 25.4646L38.2518 24.5557C38.111 18.4824 32.0364 13.5688 25.3737 14.1391ZM24.5903 15.3718C14.0078 17.1606 12.6432 30.5292 22.6718 34.1658C22.9664 34.2727 23.219 34.3476 23.2331 34.3326C23.4987 34.0475 23.3641 33.9009 22.5582 33.5977C12.3998 29.7767 15.472 15.78 26.4704 15.7741C32.8661 15.7706 37.6399 21.0962 36.3557 26.8021C36.128 27.8138 36.1359 27.9149 36.4429 27.9149C36.883 27.9149 37.2186 25.2282 36.9723 23.6783C36.0967 18.1688 30.4508 14.3812 24.5903 15.3718ZM25.5826 16.2521C19.022 17.0019 15.1582 22.9338 17.6473 28.4346C18.4136 30.1282 20.9813 32.7563 21.4078 32.2836C21.4799 32.2036 21.5204 32.1268 21.4979 32.1127C14.3173 27.6381 16.9261 17.5961 25.5112 16.6646C32.5198 15.9041 37.7643 22.8346 34.6329 28.7185C34.2622 29.4153 34.2117 29.5741 34.332 29.666C34.4986 29.7932 34.5318 29.7584 34.9498 29.02C38.3476 23.0177 32.7804 15.4294 25.5826 16.2521ZM24.6947 17.2914C18.464 18.6367 15.8323 25.1511 19.6433 29.795C19.8791 30.0822 20.1105 30.3172 20.1576 30.3172C20.38 30.3172 20.3038 30.1264 19.8707 29.5994C15.7551 24.5911 19.6346 17.4457 26.4704 17.444C33.6133 17.4423 37.3576 25.3479 32.489 30.1522C32.1184 30.518 32.0501 30.6356 32.1542 30.7287C32.6067 31.133 34.4658 28.2344 34.838 26.5445C36.0322 21.122 30.4667 16.0451 24.6947 17.2914ZM25.5303 18.0153C20.4633 18.5617 17.2148 23.8948 19.4861 27.9389C19.7623 28.4309 19.8282 28.2069 19.567 27.6635C16.7799 21.8656 23.5809 16.1068 29.8626 18.9456C34.9886 21.2619 35.2252 28.5118 30.2529 30.9032C30.0355 31.0077 29.8859 31.1355 29.9206 31.1872C30.0001 31.3055 30.6622 30.9471 31.3683 30.4037C35.8756 26.9348 34.5757 20.2585 29.0306 18.3966C28.3401 18.1647 26.6715 17.8868 26.2615 17.9354C26.204 17.9422 25.875 17.9781 25.5303 18.0153ZM24.2444 19.0441C23.5748 19.2619 23.7703 19.287 24.49 19.0756C24.8324 18.975 25.0185 18.8938 24.9036 18.8951C24.7888 18.8965 24.492 18.9634 24.2444 19.0441ZM22.8869 19.627C21.8733 20.1937 20.2556 21.8434 20.2557 22.3104C20.2557 22.354 20.4819 22.0654 20.7581 21.669C21.3369 20.8388 22.2946 20.0006 23.1563 19.5705C23.4855 19.4062 23.7045 19.2706 23.6431 19.2693C23.5817 19.2679 23.2414 19.4289 22.8869 19.627ZM29.4471 19.3997C29.4471 19.4222 29.6939 19.569 29.9955 19.7261C31.0711 20.2861 32.1834 21.4778 32.6787 22.6004C32.7908 22.8545 32.8845 22.9974 32.8869 22.9182C32.9018 22.4252 31.7646 20.8901 30.8863 20.2176C30.3363 19.7965 29.4471 19.2912 29.4471 19.3997ZM19.6533 24.4556C19.6533 24.6406 19.6748 24.7163 19.701 24.6238C19.7273 24.5312 19.7273 24.38 19.701 24.2875C19.6748 24.1949 19.6533 24.2706 19.6533 24.4556ZM33.2356 25.0322C33.2356 25.27 33.256 25.3673 33.281 25.2484C33.3058 25.1294 33.3058 24.9349 33.281 24.816C33.256 24.697 33.2356 24.7943 33.2356 25.0322ZM19.6533 25.6087C19.6533 25.7937 19.6748 25.8694 19.701 25.7769C19.7273 25.6843 19.7273 25.5331 19.701 25.4406C19.6748 25.348 19.6533 25.4237 19.6533 25.6087ZM33.061 26.1949C33.0228 26.4151 33.0118 26.614 33.0368 26.637C33.0616 26.66 33.1149 26.4999 33.155 26.2814C33.1951 26.0628 33.2061 25.8638 33.1792 25.8392C33.1525 25.8146 33.0992 25.9746 33.061 26.1949ZM32.4419 27.8397C31.9784 28.7316 30.8229 29.8816 29.8649 30.4044C29.549 30.5768 29.3764 30.6927 29.4815 30.6618C30.5654 30.3433 33.3101 27.4763 32.8842 27.1075C32.8608 27.0873 32.6618 27.4168 32.4419 27.8397Z" fill="#982C2F"/>
</svg>
