<svg width="50" height="50" viewBox="0 0 50 50" fill="none" xmlns="http://www.w3.org/2000/svg">
<rect width="50" height="50" fill="#E5E5E5"/>
<path fill-rule="evenodd" clip-rule="evenodd" d="M14.7357 34.4186C13.7439 35.3093 12.9175 35.1443 12.0249 35.2763C11.1984 35.4083 10.4381 35.5072 9.843 36.101C8.719 37.2227 8.719 39.0371 9.843 40.1588C10.967 41.2804 12.7852 41.2804 13.9092 40.1588C14.4712 39.5979 14.7026 38.6412 14.7357 37.9815C14.8018 37.1237 14.7688 36.2 15.5952 35.2763C16.5209 34.4516 17.4465 34.4846 18.3061 34.4186C18.9672 34.3856 19.9259 34.1547 20.4879 33.5938C21.6119 32.4722 21.6119 30.6578 20.4879 29.5361C19.3639 28.4145 17.5457 28.4145 16.4217 29.5361C15.8266 30.1299 15.6944 30.8887 15.5952 31.7134C15.463 32.5712 15.6283 33.4289 14.7357 34.4186Z" fill="black"/>
<path fill-rule="evenodd" clip-rule="evenodd" d="M34.4048 14.7237C33.413 15.6144 32.5865 15.4495 31.6939 15.5814C30.8675 15.7134 30.1071 15.8123 29.5121 16.4062C28.3881 17.5278 28.3881 19.3422 29.5121 20.4639C30.6361 21.5855 32.4543 21.5855 33.5783 20.4639C34.1403 19.9031 34.3717 18.9464 34.4048 18.2866C34.4709 17.4288 34.4378 16.5051 35.2643 15.5814C36.1899 14.7567 37.1156 14.7897 37.9751 14.7237C38.6363 14.6907 39.595 14.4598 40.157 13.899C41.281 12.7773 41.281 10.9629 40.157 9.84123C39.033 8.71959 37.2148 8.71959 36.0908 9.84123C35.4957 10.435 35.3635 11.1938 35.2643 12.0185C35.1321 12.8763 35.2643 13.734 34.4048 14.7237Z" fill="black"/>
<path fill-rule="evenodd" clip-rule="evenodd" d="M14.7357 15.6144C15.6283 16.6041 15.463 17.4288 15.5952 18.3195C15.7275 19.1443 15.8266 19.903 16.4217 20.4968C17.5457 21.6185 19.3639 21.6185 20.4879 20.4968C21.6119 19.3752 21.6119 17.5608 20.4879 16.4391C19.9259 15.8783 18.9672 15.6474 18.3061 15.6144C17.4465 15.5484 16.5209 15.5814 15.5952 14.7567C14.7688 13.833 14.8018 12.9092 14.7357 12.0515C14.7026 11.3917 14.4712 10.435 13.9092 9.87421C12.7852 8.75256 10.967 8.75256 9.843 9.87421C8.719 10.9959 8.719 12.8103 9.843 13.9319C10.4381 14.5257 11.1984 14.6577 12.0249 14.7567C12.9175 14.8556 13.7439 14.7237 14.7357 15.6144Z" fill="black"/>
<path fill-rule="evenodd" clip-rule="evenodd" d="M24.9498 28.4804C26.8672 28.4804 28.3879 26.9299 28.3879 25.0495C28.3879 23.169 26.8341 21.6185 24.9498 21.6185C23.0324 21.6185 21.5117 23.169 21.5117 25.0495C21.5117 26.9299 23.0654 28.4804 24.9498 28.4804Z" fill="black"/>
<path d="M35.2203 27C35.4151 27 35.6546 27.0585 35.8668 27.1191C36.1002 27.1858 36.3776 27.279 36.6783 27.3887C37.8835 27.8285 39.5682 28.568 40.689 29.1328C40.9686 29.2737 41.2182 29.4064 41.4175 29.5225C41.5959 29.6263 41.7946 29.7501 41.9195 29.875C42.1048 30.0606 42.2476 30.2705 42.3277 30.5801C42.3968 30.8472 42.4136 31.1721 42.4166 31.5752C42.4283 33.1651 42.3668 34.7565 42.3668 36.3467C42.3666 39.2031 40.547 41.1933 38.8462 42.4297C37.9884 43.0532 37.1343 43.5054 36.4966 43.8018C35.937 44.0619 35.5382 44.2049 35.4361 44.2402C35.3259 44.2779 35.275 44.2971 35.2242 44.2979C35.1725 44.2985 35.1203 44.2797 35.0045 44.2402C34.9019 44.2048 34.5023 44.0617 33.941 43.8018C33.3012 43.5054 32.4443 43.0532 31.5836 42.4297C29.8776 41.1937 28.0515 39.204 28.0513 36.3467C28.0513 34.7563 27.9896 33.1643 28.0015 31.5742C28.0045 31.1715 28.0212 30.8471 28.0904 30.5801C28.1707 30.2704 28.3141 30.0605 28.4996 29.875C28.6248 29.7498 28.8233 29.626 29.0015 29.5225C29.2015 29.4064 29.4524 29.2737 29.733 29.1328C30.8579 28.568 32.5501 27.8284 33.7593 27.3887C34.0609 27.279 34.339 27.1858 34.5728 27.1191C34.7855 27.0585 35.0256 27 35.2203 27Z" fill="#FF6112"/>
</svg>
