<svg width="50" height="50" viewBox="0 0 50 50" fill="none" xmlns="http://www.w3.org/2000/svg">
<path d="M7.07618 22.0293C7.79364 21.3454 8.65817 21.0034 9.66978 21.0034H11.5603V22.9047H9.67337C9.22855 22.8979 8.79807 23.0689 8.48957 23.3732C8.1703 23.6673 7.99094 24.0777 7.99811 24.5017V28H6V24.5017C6 23.5374 6.35873 22.7132 7.07618 22.0293Z" fill="#D58031"/>
<path d="M12.9486 26.9707C12.2311 26.2868 11.8724 25.4626 11.8724 24.4983C11.8724 23.534 12.2311 22.7098 12.9486 22.0259C13.666 21.342 14.5305 21 15.5422 21C16.5538 21 17.343 21.1402 17.9098 21.424C18.7779 21.8754 19.2083 22.6175 19.2119 23.6468C19.2119 24.235 18.9214 24.6932 18.3402 25.0215C17.8308 25.3053 17.1959 25.4455 16.4354 25.4455H15.4381V23.5511H16.4354C16.6973 23.5545 16.9555 23.5134 17.1995 23.4314C17.1277 23.0791 16.5753 22.9047 15.5422 22.9047C14.6166 22.9047 13.8669 23.6194 13.8669 24.4983V24.5017C13.8669 25.384 14.613 26.0987 15.5386 26.0987H16.5394V28H15.5422C14.5305 28 13.666 27.658 12.9486 26.9707Z" fill="#D58031"/>
<path d="M24.2628 21.0034H26.2573V24.5017C26.2573 25.6678 25.8305 26.574 24.9731 27.2203C24.2843 27.7401 23.488 28 22.5876 28H19.8074V21.0034H21.8019V26.0987H22.584C22.9283 26.0953 23.2656 26.0064 23.5633 25.8422C24.0261 25.5686 24.2592 25.1241 24.2592 24.5017L24.2628 21.0034Z" fill="#D58031"/>
<path d="M27.4519 27.4221C27.1326 27.0835 26.9712 26.6766 26.9712 26.2013V21.106H28.9657V26.0987H29.7478V28H28.8581C28.277 28 27.807 27.8085 27.4519 27.4221Z" fill="#D58031"/>
<path d="M34.8453 21.0034H36.8398V24.5017C36.8398 25.6678 36.4129 26.574 35.5556 27.2203C34.8668 27.7401 34.0704 28 33.17 28H30.3899V21.0034H32.3844V26.0987H33.17C33.5144 26.0953 33.8516 26.0064 34.1493 25.8422C34.6121 25.5686 34.8453 25.1241 34.8453 24.5017V21.0034Z" fill="#D58031"/>
<path d="M42.0055 28V24.5017C42.0055 23.8793 41.7723 23.4314 41.3095 23.1612C41.0118 23.0005 40.6746 22.9116 40.3302 22.9047H39.5446V28H37.5537V21.0034H40.3338C41.2378 21.0034 42.0306 21.2633 42.7193 21.7831C43.5731 22.4294 44 23.3356 44 24.5017V28H42.0055Z" fill="#D58031"/>
</svg>
