<svg width="50" height="50" viewBox="0 0 50 50" fill="none" xmlns="http://www.w3.org/2000/svg">
<path d="M25.1662 23.0588C23.7726 23.0588 22.5649 24.2201 22.5649 25.6601C22.5649 27.1001 23.7262 28.2614 25.1662 28.2614C26.6062 28.2614 27.7675 27.1001 27.7675 25.6601C27.721 24.2201 26.5597 23.0588 25.1662 23.0588ZM40.4488 23.0588C39.0552 23.0588 37.8475 24.2201 37.8475 25.6601C37.8475 27.1001 39.0088 28.2614 40.4488 28.2614C41.8423 28.2614 43.05 27.1001 43.05 25.6601C43.05 24.2201 41.8888 23.0588 40.4488 23.0588ZM9.65134 23.0588C8.25779 23.0588 7.05005 24.2201 7.05005 25.6601C7.05005 27.1001 8.21134 28.2614 9.65134 28.2614C11.0913 28.2614 12.2526 27.1001 12.2526 25.6601C12.2526 24.2201 11.0913 23.0588 9.65134 23.0588ZM22.9365 40.1995V32.5814C22.9365 31.4201 23.8655 30.4446 25.0733 30.4446C26.281 30.4446 27.21 31.3737 27.21 32.5814V40.1995C27.21 41.3608 26.281 42.3362 25.0733 42.3362C23.8655 42.3827 22.9365 41.4537 22.9365 40.1995ZM30.6475 36.344V14.9762C30.5546 13.8149 31.53 12.793 32.6913 12.7001C33.8526 12.6072 34.8746 13.5827 34.9675 14.744C34.9675 14.8369 34.9675 14.8833 34.9675 14.9762V36.2511V36.344C34.8746 37.5053 33.8526 38.3879 32.6913 38.3879C31.5765 38.295 30.7404 37.4124 30.6475 36.344ZM15.2255 36.344V14.9762C15.2255 13.8149 16.1546 12.8395 17.3623 12.8395C18.5236 12.8395 19.4991 13.7685 19.4991 14.9762V36.2511V36.344C19.4991 37.5053 18.57 38.4808 17.3623 38.4808C16.201 38.4343 15.2255 37.5053 15.2255 36.344ZM22.9365 18.3208V10.7027C22.9365 9.54141 23.8655 8.56592 25.0733 8.56592C26.281 8.56592 27.21 9.49495 27.21 10.7027V18.3208V18.4137C27.21 19.5749 26.281 20.5504 25.0733 20.5504C23.8655 20.5504 22.9365 19.575 22.9365 18.3208Z" fill="#222222"/>
</svg>
