<svg width="50" height="50" viewBox="0 0 50 50" fill="none" xmlns="http://www.w3.org/2000/svg">
<rect width="50" height="50" fill="#222222"/>
<path d="M25.1659 23.0588C23.7724 23.0588 22.5646 24.2201 22.5646 25.6601C22.5646 27.1001 23.7259 28.2614 25.1659 28.2614C26.6059 28.2614 27.7672 27.1001 27.7672 25.6601C27.7208 24.2201 26.5595 23.0588 25.1659 23.0588ZM40.4485 23.0588C39.055 23.0588 37.8472 24.2201 37.8472 25.6601C37.8472 27.1001 39.0085 28.2614 40.4485 28.2614C41.8421 28.2614 43.0498 27.1001 43.0498 25.6601C43.0498 24.2201 41.8885 23.0588 40.4485 23.0588ZM9.6511 23.0588C8.25755 23.0588 7.0498 24.2201 7.0498 25.6601C7.0498 27.1001 8.2111 28.2614 9.6511 28.2614C11.0911 28.2614 12.2524 27.1001 12.2524 25.6601C12.2524 24.2201 11.0911 23.0588 9.6511 23.0588ZM22.9363 40.1995V32.5814C22.9363 31.4201 23.8653 30.4446 25.073 30.4446C26.2808 30.4446 27.2098 31.3737 27.2098 32.5814V40.1995C27.2098 41.3608 26.2808 42.3362 25.073 42.3362C23.8653 42.3827 22.9363 41.4537 22.9363 40.1995ZM30.6472 36.344V14.9762C30.5543 13.8149 31.5298 12.793 32.6911 12.7001C33.8524 12.6072 34.8743 13.5827 34.9672 14.744C34.9672 14.8369 34.9672 14.8833 34.9672 14.9762V36.2511V36.344C34.8743 37.5053 33.8524 38.3879 32.6911 38.3879C31.5763 38.295 30.7401 37.4124 30.6472 36.344ZM15.2253 36.344V14.9762C15.2253 13.8149 16.1543 12.8395 17.3621 12.8395C18.5234 12.8395 19.4988 13.7685 19.4988 14.9762V36.2511V36.344C19.4988 37.5053 18.5698 38.4808 17.3621 38.4808C16.2008 38.4343 15.2253 37.5053 15.2253 36.344ZM22.9363 18.3208V10.7027C22.9363 9.54141 23.8653 8.56592 25.073 8.56592C26.2808 8.56592 27.2098 9.49495 27.2098 10.7027V18.3208V18.4137C27.2098 19.5749 26.2808 20.5504 25.073 20.5504C23.8653 20.5504 22.9363 19.575 22.9363 18.3208Z" fill="white"/>
</svg>
