<svg width="50" height="50" viewBox="0 0 50 50" fill="none" xmlns="http://www.w3.org/2000/svg">
<path d="M31.3383 19.1027C33.4413 19.1027 36.4842 18.7265 36.4842 16.5565C36.4904 16.389 36.4729 16.2215 36.432 16.0577L35.1796 11.3385C34.8905 10.3002 34.6366 9.82917 32.5352 8.91771C30.9045 8.19437 27.3523 7 26.3016 7C25.3232 7 25.0391 8.09375 23.8724 8.09375C22.7495 8.09375 21.9156 7.27708 20.8649 7.27708C19.8563 7.27708 19.1989 7.87354 18.6912 9.1C18.6912 9.1 17.2774 12.5592 17.0959 13.0608C17.067 13.153 17.0545 13.2484 17.0589 13.3438C17.0589 14.6883 23.1613 19.0969 31.3383 19.0969V19.1027ZM36.8069 17.4373C37.0978 18.6317 37.0978 18.7571 37.0978 18.9146C37.0978 20.9562 34.4517 22.0894 30.9735 22.0894C23.1126 22.0938 16.2267 18.0979 16.2267 15.4569C16.2263 15.0893 16.3127 14.7255 16.4806 14.3879C13.6529 14.5104 9.99316 14.9479 9.99316 17.7508C9.99316 22.3417 22.5326 28 32.4612 28C40.0733 28 41.9932 25.0133 41.9932 22.6552C41.9932 20.8002 40.1439 18.6944 36.8103 17.4373" fill="#EE0000"/>
<path d="M36.8069 17.4373C37.0978 18.6317 37.0978 18.7571 37.0978 18.9146C37.0978 20.9562 34.4517 22.0894 30.9735 22.0894C23.1126 22.0938 16.2267 18.0979 16.2267 15.4569C16.2263 15.0893 16.3127 14.7255 16.4806 14.3879L17.0959 13.0666C17.0677 13.1569 17.0552 13.2503 17.0589 13.3438C17.0589 14.6883 23.1613 19.0969 31.3383 19.0969C33.4413 19.0969 36.4842 18.7206 36.4842 16.5506C36.4905 16.3831 36.473 16.2156 36.4321 16.0519L36.8069 17.4373Z" fill="black"/>
<path d="M18.9805 34.5V37.3488L18.9902 37.3369C19.179 37.109 19.4036 36.9333 19.6641 36.8096C19.9277 36.6826 20.2191 36.6191 20.5381 36.6191C20.7985 36.6191 21.0329 36.6549 21.2412 36.7266C21.4495 36.7949 21.627 36.9056 21.7734 37.0586C21.9232 37.2116 22.0371 37.4102 22.1152 37.6543C22.1934 37.8952 22.2324 38.1898 22.2324 38.5381V42H21.3242V38.5283C21.3242 38.2516 21.2835 38.0303 21.2021 37.8643C21.1208 37.695 21.002 37.5729 20.8457 37.498C20.6895 37.4199 20.4974 37.3809 20.2695 37.3809C20.0449 37.3809 19.8398 37.4281 19.6543 37.5225C19.472 37.6169 19.3141 37.7471 19.1807 37.9131C19.1045 38.0103 19.0377 38.1158 18.9805 38.2297V42H18.0771V34.5H18.9805Z" fill="#1C1D1F"/>
<path d="M26.5732 40.2373C26.6318 40.348 26.6611 40.4684 26.6611 40.5986C26.6611 40.7451 26.6172 40.8753 26.5293 40.9893C26.4414 41.1032 26.3128 41.1927 26.1436 41.2578C25.9775 41.3229 25.7708 41.3555 25.5234 41.3555C25.3379 41.3555 25.1507 41.3262 24.9619 41.2676C24.7731 41.2057 24.6136 41.1032 24.4834 40.96C24.3532 40.8135 24.2816 40.6165 24.2686 40.3691H23.3604C23.3604 40.6621 23.4434 40.9404 23.6094 41.2041C23.7754 41.4678 24.0195 41.6826 24.3418 41.8486C24.6641 42.0146 25.0579 42.0977 25.5234 42.0977C25.8327 42.0977 26.111 42.0602 26.3584 41.9854C26.609 41.9072 26.8239 41.7998 27.0029 41.6631C27.1852 41.5231 27.3236 41.3571 27.418 41.165C27.5156 40.973 27.5645 40.7614 27.5645 40.5303C27.5645 40.2471 27.4961 40.0062 27.3594 39.8076C27.2227 39.609 27.0143 39.4414 26.7344 39.3047C26.4544 39.168 26.098 39.0508 25.665 38.9531C25.4176 38.8978 25.2142 38.8424 25.0547 38.7871C24.8952 38.7318 24.7715 38.6732 24.6836 38.6113C24.5957 38.5462 24.5339 38.4762 24.498 38.4014C24.4655 38.3232 24.4492 38.2354 24.4492 38.1377C24.4492 38.0075 24.4834 37.8838 24.5518 37.7666C24.6234 37.6494 24.7357 37.5534 24.8887 37.4785C25.0449 37.4004 25.2484 37.3613 25.499 37.3613C25.7367 37.3613 25.9368 37.4069 26.0996 37.498C26.2656 37.5892 26.391 37.7048 26.4756 37.8447C26.5635 37.9814 26.6074 38.123 26.6074 38.2695H27.5107C27.5107 37.9668 27.431 37.6917 27.2715 37.4443C27.112 37.1937 26.8825 36.9935 26.583 36.8438C26.2835 36.694 25.9222 36.6191 25.499 36.6191C25.2028 36.6191 24.9342 36.6598 24.6934 36.7412C24.4525 36.8226 24.2458 36.9349 24.0732 37.0781C23.904 37.2214 23.7721 37.3857 23.6777 37.5713C23.5866 37.7568 23.541 37.9538 23.541 38.1621C23.541 38.3802 23.585 38.5706 23.6729 38.7334C23.7607 38.8962 23.8861 39.0378 24.0488 39.1582C24.2148 39.2786 24.415 39.3812 24.6494 39.4658C24.887 39.5505 25.1523 39.6237 25.4453 39.6855C25.7936 39.7539 26.054 39.8353 26.2266 39.9297C26.4023 40.0208 26.5179 40.1234 26.5732 40.2373Z" fill="#1C1D1F"/>
<path d="M29.6494 38.1292V42H28.7412V36.7168H29.6006L29.6273 37.2919C29.7999 37.0858 30.0107 36.925 30.2598 36.8096C30.5267 36.6826 30.8359 36.6191 31.1875 36.6191C31.4349 36.6191 31.6628 36.6549 31.8711 36.7266C32.0794 36.7949 32.2601 36.904 32.4131 37.0537C32.5284 37.1665 32.6242 37.3034 32.7007 37.4642C32.7405 37.4068 32.783 37.3514 32.8281 37.2979C33.0072 37.0895 33.2269 36.9251 33.4873 36.8047C33.7477 36.681 34.0456 36.6191 34.3809 36.6191C34.6641 36.6191 34.9147 36.6566 35.1328 36.7314C35.3542 36.8063 35.5397 36.9219 35.6895 37.0781C35.8424 37.2311 35.958 37.4281 36.0361 37.6689C36.1143 37.9098 36.1533 38.1963 36.1533 38.5283V42H35.2451V38.5186C35.2451 38.2223 35.1979 37.9928 35.1035 37.8301C35.0124 37.6641 34.8822 37.5485 34.7129 37.4834C34.5469 37.415 34.3483 37.3809 34.1172 37.3809C33.9186 37.3809 33.7428 37.415 33.5898 37.4834C33.4368 37.5518 33.3083 37.6462 33.2041 37.7666C33.0999 37.8838 33.0202 38.0189 32.9648 38.1719C32.9312 38.2708 32.9084 38.3738 32.8965 38.4808V42H31.9932V38.5234C31.9932 38.2467 31.946 38.0254 31.8516 37.8594C31.7604 37.6934 31.6302 37.5729 31.4609 37.498C31.2917 37.4199 31.0931 37.3809 30.8652 37.3809C30.5983 37.3809 30.3753 37.4281 30.1963 37.5225C30.0173 37.6169 29.874 37.7471 29.7666 37.9131C29.7226 37.981 29.6836 38.0531 29.6494 38.1292Z" fill="#1C1D1F"/>
<path d="M15.5918 38.244V42H14.6885V36.7168H15.5674L15.5852 37.3232C15.5874 37.3196 15.5896 37.316 15.5918 37.3125C15.7253 37.0944 15.8945 36.9251 16.0996 36.8047C16.3079 36.681 16.5553 36.6191 16.8418 36.6191C16.9069 36.6191 16.9818 36.6273 17.0664 36.6436C17.151 36.6566 17.2096 36.6712 17.2422 36.6875L17.2373 37.5273C17.1624 37.5111 17.0908 37.5013 17.0225 37.498C16.9574 37.4915 16.8825 37.4883 16.7979 37.4883C16.5895 37.4883 16.4056 37.5208 16.2461 37.5859C16.0866 37.651 15.9515 37.7422 15.8408 37.8594C15.7382 37.968 15.6552 38.0962 15.5918 38.244Z" fill="#1C1D1F"/>
</svg>
