<svg width="50" height="50" viewBox="0 0 50 50" fill="none" xmlns="http://www.w3.org/2000/svg">
<path d="M7 34.3188V15.4716C7.07775 15.6488 7.02712 15.8423 7.07414 16.0267C7.09945 15.9345 7.11573 15.8405 7.12296 15.7465C7.16817 15.1696 7.23869 14.5982 7.38877 14.0395C8.30192 10.6292 10.4628 8.43581 13.8423 7.45213C15.2311 7.04889 16.6686 7.01092 18.1007 7.00911C22.7334 6.99826 27.3661 6.99826 31.9987 7.00911C33.1361 7.01273 34.2753 7.04166 35.3982 7.27492C38.9423 8.01087 41.3003 10.0994 42.4666 13.5115C42.9168 14.8279 42.9819 16.2202 42.9891 17.5981C43.009 22.3284 42.9946 27.0587 42.9982 31.7891C42.9982 32.6751 42.9638 33.5557 42.859 34.4363C42.6781 35.9625 42.3129 37.4126 41.4449 38.7236C40.4052 40.295 39.0382 41.4378 37.3204 42.1773C36.4813 42.539 35.6007 42.7469 34.693 42.8373C34.5935 42.8464 34.4652 42.8373 34.4832 43.0019H15.4571C15.5457 42.9748 15.6325 42.9494 15.6759 42.9368C10.4971 42.2026 7.63469 39.21 7.05425 34.0258C7.03255 34.1 7.06329 34.2193 7 34.3188ZM24.453 10.0976C22.2687 10.1102 19.6377 10.0686 17.0067 10.1301C16.1044 10.1518 15.213 10.2603 14.3414 10.4972C13.4499 10.7377 12.714 11.2494 12.045 11.8642C11.2385 12.6038 10.7159 13.5223 10.423 14.5657C10.13 15.6054 10.0776 16.6795 10.0758 17.75C10.0686 22.5852 10.0704 27.4204 10.0758 32.2556C10.0758 32.8324 10.0939 33.4092 10.1572 33.9842C10.2657 34.9589 10.4646 35.8992 10.9654 36.7653C11.8008 38.2101 13.0214 39.1341 14.6199 39.5843C15.6488 39.8736 16.7066 39.9189 17.7608 39.9225C22.5128 39.9406 27.2666 39.9333 32.0186 39.9279C32.986 39.9279 33.9534 39.8899 34.9046 39.7001C37.2969 39.2227 38.8682 37.8159 39.5607 35.4688C39.8808 34.3875 39.9061 33.2646 39.9097 32.1489C39.9224 27.7567 39.9152 23.3627 39.9134 18.9705C39.9134 17.8024 39.8736 16.6379 39.7506 15.4716C39.4649 12.7683 37.2498 10.687 34.7382 10.3073C33.6063 10.1355 32.4689 10.112 31.3315 10.103C29.1869 10.0849 27.0442 10.0976 24.453 10.0976Z" fill="#FF7A00"/>
<path d="M14.7754 26.2269C14.7754 23.5959 14.7736 20.9649 14.7772 18.3321C14.7772 17.6794 14.9056 17.0483 15.1931 16.4588C15.6614 15.4932 16.4968 15.0484 17.5094 14.8766C17.8946 14.8115 18.2851 14.7952 18.6739 14.7934C22.9178 14.7898 27.1599 14.7898 31.4038 14.788C32.0006 14.788 32.5882 14.8459 33.1542 15.0376C34.3965 15.4589 35.0149 16.4172 35.165 17.7589C35.212 18.1766 35.212 18.5961 35.2102 19.0157C35.2083 21.0843 35.2156 23.1547 35.2029 25.2233C35.1975 26.2269 34.825 27.093 34.1288 27.8181C33.8106 28.1508 33.3965 28.3316 32.9878 28.5215C32.3767 28.8054 31.7673 29.0947 31.1579 29.384C30.7619 29.5739 30.742 29.6589 30.9717 30.0314C31.8722 31.4924 32.7709 32.9553 33.6695 34.4181C33.7093 34.4814 33.7455 34.5465 33.7817 34.6134C33.9914 35.0022 33.8902 35.2119 33.4544 35.2156C32.1271 35.2264 30.7999 35.2282 29.4745 35.2156C29.0676 35.2119 28.7801 34.957 28.5667 34.6279C28.1906 34.0493 27.8217 33.467 27.4529 32.8848C26.8417 31.9228 26.2377 30.9572 25.6175 30.0006C25.1727 29.3153 25.0081 28.5541 24.9846 27.7584C24.9647 27.0388 24.9792 26.3191 24.981 25.5994C24.981 25.1455 25.1347 24.9955 25.5922 24.9955C26.8598 24.9955 28.1255 24.9955 29.3931 24.9955C29.4835 24.9955 29.5739 24.9991 29.6625 24.99C30.0549 24.9575 30.1959 24.8092 30.1959 24.4168C30.1959 22.9847 30.1978 21.5526 30.1959 20.1205C30.1959 19.663 30.0712 19.531 29.6209 19.4948C29.5088 19.4858 29.3967 19.4876 29.2846 19.4876C26.3752 19.4876 23.4675 19.4876 20.5581 19.4876C19.8438 19.4876 19.7787 19.5527 19.7787 20.2706C19.7787 24.9557 19.7787 29.6408 19.7787 34.3259C19.7787 35.1071 19.6558 35.2264 18.8782 35.2264C17.7608 35.2264 16.6451 35.2264 15.5276 35.2264C14.9851 35.2264 14.8549 35.0998 14.8061 34.57C14.7718 34.2102 14.7736 33.8503 14.7736 33.4923C14.7736 31.0711 14.7736 28.6499 14.7736 26.2287H14.7754V26.2269Z" fill="#0684BC"/>
</svg>
