<svg width="50" height="50" viewBox="0 0 50 50" fill="none" xmlns="http://www.w3.org/2000/svg">
<rect width="50" height="50" fill="black"/>
<path d="M12.908 19.6647C12.908 17.0183 11.5848 14.8505 9.0791 13.0205H14.8787C16.9058 14.5971 18.1727 16.9902 18.1727 19.6647C18.1727 22.3393 16.9339 24.7324 14.8787 26.309C16.765 27.0973 17.8349 29.0117 17.8349 31.7426V36.9792H12.5983V31.7426C12.5983 29.1243 11.3595 27.2944 9.10726 26.309C11.5848 24.4508 12.908 22.283 12.908 19.6647ZM24.282 19.6647C24.282 17.0183 22.9588 14.8505 20.4531 13.0205H26.2528C28.2798 14.5971 29.5467 16.9902 29.5467 19.6647C29.5467 22.3393 28.308 24.7324 26.2528 26.309C28.139 27.0973 29.2089 29.0117 29.2089 31.7426V36.9792H23.9723V31.7426C23.9723 29.1243 22.7336 27.2944 20.4813 26.309C22.9588 24.4508 24.282 22.283 24.282 19.6647ZM35.656 19.6647C35.656 17.0183 34.3328 14.8505 31.8272 13.0205H37.6268C39.6538 14.5971 40.9208 16.9902 40.9208 19.6647C40.9208 22.3393 39.682 24.7324 37.6268 26.309C39.5131 27.0973 40.5829 29.0117 40.5829 31.7426V36.9792H35.3464V31.7426C35.3464 29.1243 34.1076 27.2944 31.8553 26.309C34.3328 24.4508 35.656 22.283 35.656 19.6647Z" fill="white"/>
</svg>
