<svg width="50" height="50" viewBox="0 0 50 50" fill="none" xmlns="http://www.w3.org/2000/svg">
<path d="M12.9081 19.665C12.9081 17.0186 11.5848 14.8507 9.07917 13.0208H14.8788C16.9059 14.5974 18.1728 16.9904 18.1728 19.665C18.1728 22.3396 16.934 24.7326 14.8788 26.3092C16.7651 27.0975 17.8349 29.012 17.8349 31.7429V36.9794H12.5984V31.7429C12.5984 29.1246 11.3596 27.2946 9.10733 26.3092C11.5848 24.4511 12.9081 22.2833 12.9081 19.665ZM24.2821 19.665C24.2821 17.0186 22.9589 14.8507 20.4532 13.0208H26.2528C28.2799 14.5974 29.5468 16.9904 29.5468 19.665C29.5468 22.3396 28.308 24.7326 26.2528 26.3092C28.1391 27.0975 29.209 29.012 29.209 31.7429V36.9794H23.9724V31.7429C23.9724 29.1246 22.7336 27.2946 20.4814 26.3092C22.9589 24.4511 24.2821 22.2833 24.2821 19.665ZM35.6561 19.665C35.6561 17.0186 34.3329 14.8507 31.8272 13.0208H37.6269C39.6539 14.5974 40.9208 16.9904 40.9208 19.665C40.9208 22.3396 39.6821 24.7326 37.6269 26.3092C39.5132 27.0975 40.583 29.012 40.583 31.7429V36.9794H35.3464V31.7429C35.3464 29.1246 34.1077 27.2946 31.8554 26.3092C34.3329 24.4511 35.6561 22.2833 35.6561 19.665Z" fill="black"/>
</svg>
