<svg width="50" height="50" viewBox="0 0 50 50" fill="none" xmlns="http://www.w3.org/2000/svg">
<rect width="50" height="50" fill="#00A2DC"/>
<path d="M37.114 17.6928C36.6024 16.9575 35.9767 16.2934 35.2851 15.7257C35.023 13.9061 34.2925 12.1934 33.1706 10.7677C32.0486 9.34195 30.5767 8.25583 28.9095 7.62358C27.2423 6.99132 25.4415 6.83629 23.6965 7.17479C19.5108 7.98673 16.3212 11.5561 15.7272 15.7344C14.3118 16.9025 13.2329 18.4508 12.6081 20.2105C11.9833 21.9702 11.8365 23.8738 12.1837 25.714C12.531 27.5542 13.3589 29.2604 14.5773 30.6466C15.7958 32.0328 17.358 33.046 19.0937 33.5756C20.6722 34.0714 22.4081 34.134 24.0183 33.7569C24.5281 33.6395 25.0283 33.4804 25.514 33.2813C26.661 33.7528 27.8838 33.9951 29.1178 33.9954C30.8551 33.9934 32.5615 33.519 34.0665 32.6196C35.5715 31.7202 36.8223 30.4273 37.6941 28.87C39.6504 25.3813 39.3697 20.9674 37.114 17.6928ZM16.1803 16.0026L16.1827 16.0014L16.1958 15.8995C16.5213 13.4962 17.6884 11.6083 19.3406 9.89613C21.686 8.77717 23.6048 8.3363 25.5272 8.85293C25.6518 8.88895 25.8124 8.93862 25.8208 8.91752C25.8304 8.89515 25.6194 8.80201 25.3666 8.7337C23.9524 8.35618 22.5549 8.3363 20.9406 8.73122C22.2318 7.9878 23.6739 7.56999 25.15 7.51163C26.6261 7.45326 28.0947 7.75598 29.4368 8.39527C30.779 9.03455 31.957 9.99243 32.8754 11.1913C33.7937 12.3902 34.4267 13.7964 34.723 15.296C34.5121 15.1482 34.2964 15.0066 34.0747 14.8737C33.255 14.3872 32.3956 13.9766 31.5063 13.6467C31.0893 12.9152 29.4306 10.2066 26.408 9.08269C26.408 9.08269 26.1192 8.9647 26.1012 9.00196C26.0832 9.03921 26.2307 9.08145 26.3277 9.12864C28.0152 9.94954 28.7043 10.6512 29.5984 11.6385C28.4207 10.7159 26.9855 10.2151 25.5092 10.2116C25.3174 10.2116 25.1269 10.2215 24.9375 10.2377C24.8572 10.2414 22.9636 10.3482 20.8987 11.6472C19.6858 12.4098 18.7306 13.4915 17.9396 14.7371C17.1291 16.0173 16.5387 17.4333 16.1946 18.9223C16.1354 18.3656 16.1054 17.8059 16.1048 17.2458C16.1046 16.8301 16.1298 16.4149 16.1803 16.0026ZM25.5104 29.1072C21.118 26.2446 19.3826 21.4422 19.2172 17.817C21.1162 16.7806 23.2323 16.2449 25.3785 16.2572C27.6063 16.2584 29.8038 16.7922 31.8 17.817C31.6034 23.1635 28.4574 27.1301 25.5104 29.1072ZM32.2734 18.0207C32.6245 18.2765 32.8079 18.4367 32.8103 18.4392C32.8149 18.444 32.8202 18.4482 32.8258 18.4517C33.5574 18.995 34.1666 19.6962 34.6116 20.507C34.608 20.5232 34.6056 20.5393 34.602 20.5555C33.2297 22.7971 31.8767 24.7258 30.4481 26.072C29.5025 26.9525 28.4531 27.7053 27.3249 28.3124C29.8045 26.077 32.0516 22.5313 32.2734 18.0207ZM25.1029 29.4314C24.7577 29.5966 24.5408 29.6823 24.4941 29.7009C24.4847 29.7036 24.4755 29.7069 24.4665 29.7108C23.6465 30.0964 22.7554 30.2926 21.855 30.2858C21.8442 30.2759 21.8334 30.2659 21.8227 30.256C20.6014 27.843 19.4844 25.5454 19.0422 22.9089C18.8545 21.7021 18.7975 20.4775 18.872 19.2577C19.3778 22.7275 21.2102 26.8209 25.1029 29.4314ZM25.3785 15.758C23.2143 15.7461 21.0789 16.272 19.1513 17.2917C19.2483 16.1753 19.5098 14.922 20.0597 13.9485C20.0741 13.9435 20.0885 13.9386 20.1017 13.9348C23.0415 14.0665 25.7141 14.5136 27.694 15.2463C28.7336 15.6321 29.7278 16.1383 30.6578 16.7552C28.9695 16.0995 27.1816 15.7617 25.3785 15.758ZM20.8459 13.1698C20.7333 13.2034 20.6206 13.2369 20.5091 13.2716C20.9765 12.638 21.5638 12.0848 22.2302 11.6609C24.1708 10.6528 26.3067 10.3619 28.3224 11.4043C29.1963 11.8562 29.9577 12.511 30.5476 13.3176C28.8694 12.7958 27.1492 12.5302 25.3929 12.5302C23.8624 12.5285 22.3388 12.7425 20.8639 13.1661C20.8579 13.1673 20.8519 13.1686 20.8459 13.1698ZM18.914 22.699C19.2471 24.6873 19.9339 27.0345 21.0748 29.5369C18.7139 27.1036 17.0681 23.7751 16.4212 20.4474C16.6824 18.3237 17.1151 16.3118 18.0547 14.8278C18.733 13.7585 19.6786 12.9624 20.7009 12.2794C18.0756 15.0052 18.3437 19.2404 18.914 22.699ZM21.9042 30.7863C22.8518 30.7856 23.7884 30.5765 24.6523 30.1728C25.0417 30.0175 25.4226 29.8401 25.7932 29.6413L25.7884 29.6313C26.776 29.1085 28.4862 28.0665 30.4972 26.1739C31.7448 25.0002 33.0631 23.654 34.3012 21.8681C33.8537 23.4699 33.1863 25.0061 32.3165 26.4235C31.3942 27.9194 30.2531 29.2817 28.9404 30.451C27.084 31.2458 25.2455 31.8245 23.5772 31.7252C22.3416 31.6519 21.2127 31.1353 20.1316 30.5416C20.7095 30.7036 21.3055 30.7859 21.9042 30.7863ZM32.8247 26.5265C33.8435 24.9146 34.533 23.0987 34.9543 21.2435C35.6902 23.07 35.5578 25.2967 34.5924 27.0134C34.1013 27.8881 33.4221 28.6336 32.6077 29.1921C31.7934 29.7507 30.8657 30.1071 29.8968 30.2336C31.0231 29.1341 32.0072 27.888 32.8247 26.5265ZM33.1147 18.0518C32.831 17.8126 32.5354 17.5892 32.229 17.3824L32.2194 17.396C31.3194 16.7813 29.7158 15.9057 27.6976 15.1345C25.5668 14.3218 23.3391 13.8137 21.076 13.6243C24.3513 12.701 27.8215 12.8692 31.0185 13.9994C32.6197 15.2736 34.0818 16.703 34.8345 18.2505C35.3894 19.3918 35.6171 20.6498 35.683 21.9091C35.6806 21.9017 35.6794 21.893 35.6758 21.8843C35.2815 20.3665 34.3761 18.9897 33.1147 18.0518ZM16.0856 21.1938C16.0868 21.2 16.088 21.205 16.0892 21.2112C16.5028 22.9264 17.0835 24.6792 18.0007 26.1987C18.8303 27.6694 19.8706 29.0371 21.07 30.2262C19.3244 29.9916 17.6968 28.9452 16.7196 27.489C15.4749 25.6306 15.2464 23.2437 16.0856 21.1938ZM23.7186 33.3111C22.1961 33.6616 20.4981 33.5299 19.0266 33.0304C16.7807 31.3936 15.3317 29.8387 14.7588 27.4704C14.7588 27.4704 14.6977 27.1885 14.6582 27.1848C14.6198 27.2009 14.645 27.3884 14.645 27.3884C14.9949 29.3916 15.9034 30.9266 17.6328 32.4418C16.2659 31.7219 15.0894 30.6668 14.2057 29.3683C13.3221 28.0698 12.758 26.5673 12.5626 24.9913C12.3672 23.4154 12.5464 21.8138 13.0845 20.326C13.6227 18.8382 14.5036 17.5092 15.6505 16.4547C15.6313 16.7167 15.6217 16.9812 15.6217 17.2457C15.6255 18.2515 15.7166 19.2549 15.8938 20.2437C15.4552 21.0559 14.0745 23.6068 14.5275 26.7091C14.5503 26.801 14.5623 26.9128 14.603 26.9128C14.6426 26.9128 14.6162 26.6992 14.609 26.6445C14.458 25.1368 14.7576 24.1011 15.14 23.0293C15.0202 24.2265 15.1989 25.4355 15.6588 26.5407C16.1188 27.646 16.8447 28.6104 17.767 29.342C18.318 29.8473 18.9218 30.2872 19.5671 30.6534C20.8099 31.3607 22.1903 31.769 23.606 31.8481C25.1065 31.9435 26.6401 31.684 28.0535 31.1862C26.7708 32.1791 25.3286 33.0047 23.7186 33.3111ZM37.2758 28.6204C36.4465 30.1016 35.2567 31.3314 33.8251 32.1868C32.3935 33.0422 30.7703 33.4932 29.1178 33.4949C28.1098 33.4949 27.1087 33.3241 26.1539 32.9894C27.2955 32.4258 28.3722 31.6649 29.2963 30.7937C29.3742 30.7975 29.4737 30.8 29.59 30.8C30.6866 30.8 33.4754 30.4361 35.369 28.6763C35.5248 28.531 35.6075 28.449 35.5799 28.4304C35.488 28.4864 35.4003 28.5495 35.3175 28.6192C34.6763 29.111 33.0847 29.8896 31.9653 30.1318C33.0101 29.6354 33.916 28.8723 34.5984 27.9139C35.2807 26.9556 35.717 25.8334 35.8664 24.6525C36.0126 23.9039 36.0785 23.1409 36.0629 22.3773C36.0306 20.9082 35.6279 19.5495 34.9819 18.2182C34.2949 16.8094 33.3643 15.5432 32.2362 14.4825C32.7839 14.7246 33.3174 15 33.8338 15.3071C33.9768 15.3925 34.8357 15.8385 34.8357 15.9989C36.634 17.4323 37.6162 19.4742 38.3089 21.6185C38.08 24.4488 37.3285 26.6346 35.9778 28.0342C35.8915 28.1236 35.8484 28.1795 35.858 28.2006C35.8676 28.2217 35.973 28.1187 36.0533 28.0553C37.4124 26.8321 38.0764 25.656 38.539 23.618C38.5629 25.3732 38.1263 27.1023 37.2758 28.6204Z" fill="white"/>
<path d="M19.5722 42.1872C18.3039 42.1872 17.9893 40.9196 17.9893 39.8877C17.9893 38.8459 18.3957 37.8128 19.5722 37.8128C20.3688 37.8128 20.8827 38.3849 20.9358 39.0963H21.877C21.8208 37.8367 20.7825 37 19.5722 37C17.924 37 17 38.3678 17 39.8877C17 41.5021 17.7816 43 19.5722 43C20.6525 43 21.8173 42.2109 21.877 41.0642H20.9358C20.8828 41.7108 20.2812 42.1872 19.5722 42.1872Z" fill="white"/>
<path d="M26.3583 41.3583C26.3583 40.663 25.5872 40.4683 25.0267 40.3583C23.7631 40.0915 22.9412 39.6544 22.9412 38.6898C22.9412 37.7672 23.7973 37 25.0856 37C26.1509 37 27.2888 37.6073 27.2888 38.8075H26.2995C26.2995 38.1683 25.653 37.8128 25.0856 37.8128C24.279 37.8128 23.9358 38.2281 23.9358 38.6631C23.9358 39.081 24.1685 39.3104 25.2674 39.5561C26.6898 39.877 27.3476 40.3529 27.3476 41.2834C27.3476 42.4784 26.1439 43 25.1123 43C24.0019 43 22.7433 42.3464 22.7433 41.107H23.738C23.7765 41.8382 24.4301 42.1872 25.1123 42.1872C25.9344 42.1872 26.3583 41.8369 26.3583 41.3583Z" fill="white"/>
<path d="M30.1658 42.893H30.9198L33 37.107H31.9893L30.5552 41.54L29.0856 37.107H28.0695L30.1658 42.893Z" fill="white"/>
</svg>
