<svg width="50" height="50" viewBox="0 0 50 50" fill="none" xmlns="http://www.w3.org/2000/svg">
<path d="M41.3859 26.3362C41.377 26.2933 41.3667 26.2534 41.3578 26.212C41.3445 26.1522 41.3327 26.0924 41.3179 26.0342C41.2942 25.9329 41.2706 25.8333 41.2454 25.7367C41.238 25.706 41.2292 25.6769 41.2218 25.6462C41.2055 25.5864 41.1893 25.5266 41.173 25.4684L41.1375 25.3442C41.1227 25.292 41.1065 25.2399 41.0902 25.1862C41.0799 25.1479 41.0666 25.1111 41.0547 25.0728C41.0355 25.013 41.0178 24.9532 40.9986 24.8949C40.9882 24.8642 40.9779 24.8336 40.9675 24.8044C40.9039 24.6158 40.8374 24.4318 40.7665 24.2478C40.7657 24.247 40.7651 24.2459 40.765 24.2447C40.728 24.1527 40.6911 24.0592 40.6526 23.9672C40.6497 23.9611 40.6482 23.9565 40.6452 23.9503C40.2942 23.1079 39.8544 22.3082 39.334 21.566C39.3266 21.5553 39.3192 21.5461 39.3118 21.5353C39.266 21.4694 39.2186 21.4035 39.1699 21.3375C39.1567 21.3218 39.1444 21.3055 39.1329 21.2885C39.0886 21.2287 39.0442 21.1704 38.9999 21.1121C38.9673 21.0692 38.9333 21.0278 38.8993 20.9864C38.8668 20.9435 38.8343 20.9021 38.8003 20.8607C38.7544 20.8039 38.7086 20.7487 38.6613 20.6935C38.6539 20.6843 38.6465 20.6751 38.6391 20.6659C38.1574 20.0981 37.6275 19.5762 37.0558 19.1065C36.7325 16.86 35.8315 14.7454 34.4475 12.9851C33.0636 11.2248 31.2479 9.88378 29.1914 9.10316C27.1349 8.32253 24.9136 8.13112 22.7611 8.54906C20.6086 8.967 18.6044 9.97883 16.9594 11.4782C16.9091 11.5241 16.8589 11.5717 16.8086 11.6192C16.8086 11.6192 16.507 11.8998 16.3725 12.0378C14.5192 13.9509 13.312 16.4342 12.9309 19.1173C11.185 20.5595 9.85419 22.4711 9.08346 24.6438C8.31274 26.8164 8.13167 29.1668 8.55998 31.4388C8.98829 33.7108 10.0096 35.8173 11.5125 37.5289C13.0155 39.2404 14.9425 40.4913 17.0836 41.1453C17.1811 41.1759 17.2772 41.2035 17.3733 41.2311C18.4094 41.5194 19.4775 41.6658 20.5503 41.6666H20.599C20.6966 41.6666 20.7942 41.6635 20.8917 41.662C20.9346 41.6604 20.976 41.6574 21.0189 41.6559C21.1002 41.6528 21.18 41.6482 21.2613 41.6436C21.2983 41.6421 21.3367 41.6405 21.3752 41.6375C21.486 41.6283 21.5969 41.6191 21.7078 41.6083C21.7433 41.6053 21.7787 41.6006 21.8142 41.5976C21.8941 41.5884 21.9754 41.5776 22.0552 41.5685C22.0996 41.5623 22.1454 41.5562 22.1897 41.5501C22.2681 41.5393 22.3464 41.5255 22.4248 41.5133C22.4839 41.5041 22.543 41.4933 22.6022 41.4826C22.6805 41.4688 22.7604 41.4535 22.8402 41.4381C22.9008 41.4258 22.9614 41.412 23.022 41.3998C23.0679 41.389 23.1122 41.3799 23.158 41.3691C23.787 41.2241 24.4039 41.0277 25.003 40.7818C26.4179 41.364 27.9262 41.6631 29.4483 41.6635C31.5913 41.6611 33.6962 41.0754 35.5526 39.9649C37.409 38.8544 38.952 37.2581 40.0273 35.3354C41.5499 32.6177 42.0347 29.4066 41.3859 26.3362ZM13.4897 19.4485L13.4927 19.4469L13.509 19.3212C13.8956 16.4632 15.2597 13.8445 17.3526 11.9427C17.3645 11.932 17.3763 11.9213 17.3881 11.909C20.2812 10.5275 22.648 9.98313 25.0193 10.621C25.173 10.6655 25.3711 10.7268 25.3814 10.7007C25.3933 10.6731 25.1331 10.5581 24.8212 10.4738C23.0767 10.0077 21.353 9.98313 19.3617 10.4707C20.9544 9.55286 22.7332 9.037 24.554 8.96494C26.3748 8.89288 28.1863 9.26663 29.8419 10.0559C31.4975 10.8452 32.9505 12.0279 34.0834 13.5081C35.2162 14.9883 35.997 16.7245 36.3625 18.576C36.1023 18.3935 35.8362 18.2187 35.5627 18.0546C34.5517 17.454 33.4916 16.9471 32.3947 16.5397C31.8802 15.6366 29.8342 12.2923 26.1058 10.9047C26.1058 10.9047 25.7495 10.759 25.7274 10.805C25.7052 10.851 25.887 10.9032 26.0068 10.9614C28.0883 11.9749 28.9383 12.8413 30.0411 14.0603C28.5885 12.9212 26.8182 12.3028 24.9971 12.2985C24.7605 12.2985 24.5255 12.3108 24.2919 12.3307C24.1929 12.3353 21.8571 12.4671 19.3099 14.071C17.8139 15.0125 16.6356 16.348 15.6599 17.886C14.6602 19.4666 13.9319 21.2149 13.5075 23.0533C13.4344 22.3659 13.3974 21.6749 13.3966 20.9833C13.3964 20.4702 13.4275 19.9575 13.4897 19.4485ZM24.9986 35.6283C19.5805 32.0939 17.4398 26.1645 17.2358 21.6887C19.5783 20.409 22.1885 19.7476 24.8359 19.7628C27.5839 19.7642 30.2945 20.4233 32.7568 21.6887C32.5144 28.2897 28.6338 33.1872 24.9986 35.6283ZM33.3408 21.9401C33.7739 22.256 34.0001 22.4538 34.0031 22.4569C34.0088 22.4628 34.0153 22.468 34.0223 22.4722C34.9247 23.1431 35.6762 24.0089 36.225 25.0099C36.2206 25.0298 36.2176 25.0498 36.2132 25.0697C34.5205 27.8374 32.8515 30.2187 31.0893 31.8808C29.9229 32.9679 28.6284 33.8973 27.2368 34.647C30.2954 31.8869 33.0673 27.5092 33.3408 21.9401ZM24.4959 36.0285C24.0702 36.2324 23.8026 36.3382 23.7449 36.3612C23.7334 36.3646 23.722 36.3687 23.7109 36.3735C22.6995 36.8496 21.6003 37.0918 20.4896 37.0834C20.4763 37.0712 20.463 37.0589 20.4497 37.0466C18.9433 34.0673 17.5655 31.2306 17.02 27.9754C16.7885 26.4855 16.7181 24.9734 16.8101 23.4674C17.4339 27.7515 19.6943 32.8054 24.4959 36.0285ZM24.8359 19.1464C22.1663 19.1318 19.5323 19.7811 17.1545 21.0401C17.1959 20.5632 17.2418 20.2703 17.2521 20.2013C17.256 20.1878 17.2585 20.174 17.2595 20.1599C17.3678 19.014 17.7143 17.906 18.2751 16.9123C18.2928 16.9062 18.3106 16.9 18.3268 16.8954C21.9532 17.058 25.2499 17.61 27.6921 18.5146C28.9744 18.991 30.2008 19.616 31.348 20.3777C29.2654 19.568 27.06 19.1511 24.8359 19.1464ZM19.2449 15.9509C19.1059 15.9923 18.967 16.0337 18.8295 16.0766C19.1336 15.6639 19.4752 15.2824 19.8495 14.9374C19.8776 14.9113 19.9057 14.8852 19.9338 14.8607C19.9737 14.8239 20.0151 14.7886 20.055 14.7534C20.1053 14.7104 20.1541 14.669 20.2043 14.6292C20.2575 14.5862 20.3108 14.5433 20.364 14.5019C20.395 14.4774 20.4276 14.4528 20.4586 14.4298C20.6183 14.3102 20.7838 14.1952 20.9524 14.0879C20.9612 14.0833 20.9716 14.0756 20.9819 14.0695C21.3523 13.8374 21.741 13.6384 22.1439 13.4745C22.1498 13.4715 22.1572 13.4684 22.1646 13.4653C22.274 13.4209 22.3849 13.3795 22.4972 13.3396C22.5268 13.3304 22.5549 13.3197 22.5844 13.3105C22.6317 13.2936 22.6791 13.2783 22.7278 13.2629C22.7944 13.243 22.8609 13.2231 22.9289 13.2032C22.9496 13.1986 22.9688 13.1909 22.988 13.1863C23.09 13.1587 23.1935 13.1326 23.2955 13.1096C23.3044 13.1081 23.3133 13.105 23.3207 13.1035C23.6527 13.0295 23.989 12.9773 24.3274 12.9471C24.3349 12.9468 24.3423 12.9458 24.3496 12.944C24.5639 12.9256 24.7798 12.9164 24.9971 12.9164C26.2018 12.9207 27.3893 13.2132 28.4672 13.7711C29.5451 14.3291 30.4844 15.1375 31.212 16.1334C29.5566 15.6182 27.8489 15.3053 26.1236 15.2011C26.0644 15.198 26.0083 15.195 25.9506 15.1919C25.89 15.1888 25.8279 15.1858 25.7673 15.1827C25.6416 15.1781 25.516 15.1735 25.3903 15.1704H25.3888C25.21 15.1658 25.0311 15.1612 24.8537 15.1612C22.9658 15.1591 21.0864 15.4233 19.2671 15.9463C19.2597 15.9478 19.2523 15.9494 19.2449 15.9509ZM17.6232 16.8571L17.4472 17.2113C17.0296 18.1125 16.7664 19.0823 16.6696 20.0771C16.5969 20.5495 16.548 21.0255 16.5233 21.5031H16.5351C16.4143 23.5803 16.5239 25.665 16.8618 27.7162C17.2728 30.1711 18.1199 33.0691 19.5272 36.1588C18.1067 34.6933 16.904 33.0169 15.9585 31.1847C15.9467 31.1617 15.9334 31.1387 15.9216 31.1157C15.9098 31.0911 15.8979 31.0681 15.8861 31.0436L15.8152 30.9056C15.8138 30.9012 15.8118 30.8971 15.8092 30.8933C15.1117 29.4947 14.5554 28.0251 14.1491 26.508C14.1476 26.5034 14.1476 26.5003 14.1461 26.4957C14.1328 26.4451 14.1195 26.3945 14.1062 26.3424C13.9717 25.8272 13.8682 25.3549 13.7869 24.9363C14.1092 22.3143 14.6428 19.8303 15.8019 17.9979C16.6386 16.6777 17.805 15.6949 19.066 14.8515C18.495 15.445 18.0091 16.1204 17.6232 16.8571ZM20.5503 37.7014C21.7191 37.7005 22.8745 37.4423 23.9401 36.9439C24.4205 36.7522 24.8903 36.5331 25.3474 36.2876L25.3415 36.2754C26.5597 35.6298 28.6693 34.3433 31.1499 32.0065C32.6888 30.5575 34.315 28.8954 35.8421 26.6904C35.7933 26.8652 35.7446 27.0385 35.6928 27.2087V27.2118C35.6396 27.3881 35.5849 27.5629 35.5272 27.7362C35.5125 27.7852 35.4947 27.8328 35.4785 27.8818C35.4371 28.006 35.3942 28.1287 35.3513 28.2498C35.3217 28.3311 35.2922 28.4109 35.2626 28.4906C35.2316 28.5765 35.199 28.6638 35.1651 28.7497C35.1266 28.8524 35.0837 28.9536 35.0438 29.0549C35.0187 29.1162 34.9965 29.1775 34.9699 29.2373C34.9211 29.3538 34.8723 29.4704 34.8221 29.5839C34.8043 29.6268 34.7851 29.6697 34.7674 29.7127C34.7112 29.8384 34.6535 29.9626 34.5959 30.0853C34.5826 30.1144 34.5693 30.1451 34.556 30.1742C34.4924 30.3045 34.4318 30.4349 34.3682 30.5621C34.3579 30.5836 34.3475 30.6051 34.3357 30.6265C34.2707 30.7569 34.2027 30.8872 34.1361 31.0145C34.1273 31.0313 34.1199 31.0482 34.111 31.0635C34.0415 31.1938 33.972 31.3211 33.9025 31.4484C33.8937 31.4637 33.8863 31.4775 33.8774 31.4929C33.8065 31.617 33.737 31.7413 33.6645 31.8624C33.6557 31.8777 33.6483 31.8931 33.6394 31.9084C33.5684 32.028 33.499 32.1445 33.428 32.2595C33.4162 32.2795 33.4044 32.2978 33.394 32.3147C33.326 32.4251 33.258 32.534 33.19 32.6413C33.1752 32.6643 33.159 32.6873 33.1456 32.7103C33.0806 32.8115 33.0141 32.9097 32.949 33.0078C32.9298 33.0369 32.9091 33.0661 32.8899 33.0952C32.8308 33.1857 32.7702 33.2731 32.7095 33.3589C32.6829 33.3957 32.6563 33.4341 32.6312 33.4724C32.578 33.5475 32.5218 33.6227 32.4701 33.6963C32.4346 33.7438 32.4006 33.7913 32.3666 33.8373C32.3207 33.9002 32.2749 33.9615 32.2291 34.0229C32.1862 34.0796 32.1419 34.1379 32.099 34.1946C32.0635 34.2421 32.0266 34.2881 31.9911 34.3341C31.9349 34.4047 31.8802 34.4752 31.8255 34.5427C31.8018 34.5749 31.7767 34.604 31.7531 34.6347C31.6851 34.719 31.6156 34.8018 31.5491 34.8831C31.5387 34.8969 31.5254 34.9091 31.5165 34.9229C30.8113 35.7684 30.0469 36.5586 29.2296 37.2874C26.9396 38.2687 24.6719 38.9832 22.614 38.8605C21.0898 38.7701 19.6973 38.1322 18.3638 37.3993C19.0766 37.5993 19.8118 37.7008 20.5503 37.7014ZM34.0208 32.442C34.0489 32.3975 34.0755 32.3515 34.1036 32.3055C34.1243 32.2687 34.1465 32.2319 34.1672 32.1951C35.1535 30.5165 35.9135 28.7056 36.4261 26.8131C36.432 26.7947 36.4349 26.7748 36.4409 26.7563C36.4734 26.6337 36.5059 26.511 36.5369 26.3853C36.5754 26.2304 36.6123 26.0755 36.6478 25.9192C36.7114 26.0771 36.769 26.2366 36.8223 26.396C36.8282 26.4144 36.8341 26.4313 36.84 26.4497C36.8607 26.5141 36.8799 26.5785 36.8991 26.6429C36.9213 26.7165 36.942 26.7901 36.9612 26.8637C36.9671 26.8836 36.973 26.902 36.979 26.922C36.9802 26.9308 36.9822 26.9395 36.9849 26.948C37.0071 27.0385 37.0277 27.1305 37.0484 27.2225C37.0544 27.247 37.0603 27.2746 37.0647 27.2992C37.0839 27.3866 37.1002 27.4724 37.1164 27.5598C37.1224 27.6012 37.1312 27.6426 37.1371 27.684C37.149 27.7576 37.1608 27.8312 37.1711 27.9048C37.1785 27.9646 37.1859 28.0244 37.1933 28.0842C37.1948 28.1011 37.1963 28.118 37.1992 28.1348C37.2885 28.9709 37.2506 29.8164 37.0869 30.6403C37.0854 30.6419 37.0854 30.6434 37.0839 30.6449C37.0721 30.7078 37.0588 30.7691 37.0455 30.8304C37.0292 30.9025 37.013 30.973 36.9937 31.0451C36.9864 31.0804 36.976 31.1156 36.9671 31.1509C36.942 31.2444 36.9154 31.3364 36.8873 31.43C36.8858 31.433 36.8858 31.4361 36.8843 31.4392C36.7796 31.7763 36.6542 32.1061 36.5088 32.4266C36.5074 32.4328 36.5044 32.4389 36.5029 32.4451C36.4098 32.6475 36.3108 32.8483 36.2013 33.0431C35.5955 34.123 34.7578 35.0435 33.7533 35.7331C32.7487 36.4227 31.6044 36.8627 30.4092 37.019C31.7985 35.6614 33.0125 34.123 34.0208 32.442ZM34.3786 21.9785C34.0287 21.6832 33.664 21.4074 33.2861 21.152L33.2743 21.1689C32.164 20.4099 30.186 19.3288 27.6965 18.3766C25.0682 17.3732 22.3203 16.7459 19.5287 16.5121C20.832 16.1443 22.1678 15.9142 23.5158 15.8252C23.5468 15.8221 23.5794 15.8206 23.6104 15.819C23.7154 15.8114 23.8203 15.8068 23.9268 15.8006C23.9815 15.7991 24.0376 15.796 24.0938 15.7945C24.147 15.793 24.2017 15.7914 24.2564 15.7884C24.3717 15.7853 24.487 15.7838 24.6024 15.7822H24.6275C26.3976 15.7669 28.163 15.9755 29.8844 16.4032C29.9303 16.4155 29.9761 16.4262 30.0219 16.4385C30.0988 16.4584 30.1771 16.4784 30.2525 16.4983C30.3427 16.5228 30.4314 16.5474 30.5216 16.5734C30.5645 16.5842 30.6073 16.5964 30.6487 16.6087C30.767 16.6424 30.8867 16.6777 31.005 16.7145C31.0145 16.7165 31.0239 16.7191 31.0331 16.7222C31.2874 16.8019 31.5416 16.8862 31.793 16.9752C33.768 18.5484 35.5716 20.3133 36.5 22.2238C37.1844 23.6329 37.4653 25.1862 37.5466 26.741C37.5437 26.7318 37.5422 26.7211 37.5378 26.7104C37.5171 26.6306 37.4949 26.5509 37.4712 26.4696C37.455 26.4114 37.4358 26.3546 37.418 26.2964C37.4106 26.2718 37.4032 26.2488 37.3944 26.2243C36.8455 24.5148 35.79 23.0288 34.3786 21.9785ZM13.3123 26.0081C13.3316 25.9575 13.3523 25.9084 13.373 25.8578C13.3744 25.8655 13.3759 25.8716 13.3774 25.8793C13.3892 25.9284 13.3996 25.9759 13.4129 26.025C13.4336 26.1216 13.4572 26.2182 13.4809 26.3148C13.4957 26.37 13.5104 26.4236 13.5237 26.4788C13.5459 26.5693 13.5696 26.6582 13.5932 26.7487C13.6095 26.8054 13.6243 26.8606 13.6405 26.9174C13.6642 27.0048 13.6893 27.0937 13.7144 27.1811C13.7307 27.2363 13.747 27.2915 13.7632 27.3467C13.7913 27.4372 13.8179 27.5261 13.846 27.615C13.8623 27.6672 13.8771 27.7193 13.8948 27.7714C13.9244 27.868 13.9569 27.9647 13.9879 28.0612C14.0027 28.1042 14.0175 28.1486 14.0323 28.1916C14.0737 28.3143 14.1165 28.4384 14.1594 28.5596C14.1653 28.5765 14.1712 28.5918 14.1772 28.6071C14.2274 28.7482 14.2792 28.8893 14.3324 29.0288L14.3634 29.107C14.4063 29.2174 14.4492 29.3278 14.4935 29.4382L14.5467 29.567C14.5852 29.6605 14.6236 29.7525 14.662 29.8445C14.6827 29.892 14.7034 29.9411 14.7241 29.9887C14.7626 30.0761 14.801 30.1619 14.8395 30.2493C14.8616 30.2984 14.8838 30.3475 14.906 30.3965C14.9444 30.4824 14.9843 30.5667 15.0242 30.6511C15.0464 30.7001 15.0701 30.7477 15.0922 30.7967C15.1351 30.8841 15.178 30.9715 15.2209 31.0574C15.2416 31.1019 15.2637 31.1463 15.2859 31.1893C15.3362 31.2889 15.3864 31.3871 15.4382 31.4867C15.4544 31.5174 15.4692 31.5481 15.4855 31.5772C15.5535 31.706 15.623 31.8333 15.6925 31.9605C15.7058 31.9866 15.7205 32.0127 15.7353 32.0372C15.7915 32.1369 15.8477 32.2381 15.9039 32.3377C15.9305 32.3822 15.9585 32.4282 15.9837 32.4742C16.031 32.5524 16.0768 32.6306 16.1241 32.7088C16.1552 32.7594 16.1862 32.81 16.2173 32.8606C16.2616 32.9327 16.3045 33.0032 16.3503 33.0737C16.3828 33.1274 16.4168 33.1795 16.4508 33.2332C16.4937 33.3007 16.5381 33.3697 16.5839 33.4372C16.6179 33.4893 16.6534 33.5429 16.6888 33.5966C16.7332 33.6641 16.7775 33.7285 16.8234 33.7944C16.8603 33.8465 16.8958 33.9002 16.9328 33.9524C16.9786 34.0198 17.0274 34.0857 17.0732 34.1532C17.1102 34.2023 17.1456 34.2529 17.1811 34.3019C17.2417 34.3848 17.3024 34.4676 17.363 34.5488C17.4206 34.624 17.4768 34.6991 17.5345 34.7727C17.5832 34.8371 17.6335 34.903 17.6852 34.9674C17.7281 35.0226 17.7739 35.0778 17.8183 35.1346C17.8626 35.1882 17.9055 35.2419 17.9499 35.2956C17.9972 35.3538 18.0445 35.4105 18.0933 35.4688C18.1347 35.5179 18.1775 35.5685 18.2219 35.6191C18.2692 35.6774 18.3194 35.7356 18.3712 35.7924C18.4111 35.8399 18.454 35.8874 18.4968 35.9365C18.5486 35.9948 18.6003 36.0515 18.6536 36.1098C18.6935 36.1542 18.7363 36.2002 18.7777 36.2447C18.8324 36.303 18.8857 36.3628 18.9404 36.421C18.9803 36.4609 19.0187 36.5008 19.0586 36.5437C19.1177 36.6035 19.1754 36.6648 19.2345 36.7231C19.2626 36.7522 19.2907 36.7798 19.3188 36.8074C19.3868 36.8749 19.4533 36.9424 19.5213 37.0098C19.3617 36.9884 19.202 36.9608 19.0453 36.9286C19.0187 36.924 18.9921 36.9194 18.967 36.9132C18.9093 36.901 18.8502 36.8872 18.794 36.8749C18.7201 36.8565 18.6462 36.8381 18.5737 36.8182C18.5545 36.8136 18.5353 36.809 18.5161 36.8044C18.5085 36.8009 18.5005 36.7983 18.4924 36.7967C18.4052 36.7722 18.3165 36.7446 18.2293 36.717C18.2056 36.7108 18.182 36.7016 18.1583 36.694C18.0755 36.6679 17.9942 36.6388 17.9129 36.6081C17.8774 36.5943 17.8405 36.582 17.805 36.5682C17.7355 36.5406 17.6646 36.513 17.5965 36.4839C17.5463 36.4624 17.496 36.4425 17.4458 36.4195C17.4236 36.4087 17.3999 36.398 17.3778 36.3873C17.2772 36.3428 17.1767 36.2938 17.0776 36.2432C16.5684 35.9836 16.0885 35.6663 15.6466 35.2971C15.6449 35.2943 15.6423 35.2921 15.6392 35.291C15.5653 35.2281 15.4914 35.1622 15.419 35.0962C15.3894 35.0702 15.3598 35.0441 15.3317 35.018C15.2992 34.9874 15.2682 34.9567 15.2356 34.926C15.1721 34.8647 15.11 34.8018 15.0479 34.739C15.0361 34.7267 15.0242 34.7129 15.0124 34.7006C14.6976 34.3699 14.4108 34.0118 14.155 33.6303C14.0175 33.4249 13.8992 33.2332 13.7943 33.0446C13.71 32.8913 13.6287 32.7364 13.5548 32.58V32.5785C13.5178 32.5018 13.4838 32.4251 13.4498 32.3469C13.4471 32.342 13.4446 32.3369 13.4424 32.3316C13.4114 32.258 13.3803 32.1844 13.3508 32.1108C13.3477 32.1044 13.3452 32.0978 13.3434 32.0909C13.3138 32.0173 13.2842 31.9421 13.2576 31.867C13.2553 31.8622 13.2538 31.857 13.2532 31.8517C13.0484 31.286 12.9061 30.698 12.8289 30.0991C12.8186 30.0147 12.8082 29.9304 12.8008 29.8461C12.7996 29.8437 12.7991 29.841 12.7994 29.8384C12.7905 29.7541 12.7831 29.6697 12.7772 29.5869V29.5839C12.7429 29.0686 12.7553 28.5511 12.8141 28.0382C12.8141 28.0352 12.8156 28.0336 12.8156 28.0306C12.8245 27.9493 12.8363 27.8696 12.8467 27.7899C12.8487 27.7818 12.8502 27.7736 12.8511 27.7653C12.8614 27.6902 12.8747 27.6135 12.8881 27.5399C12.8895 27.5292 12.891 27.52 12.8925 27.5108C12.9058 27.4341 12.9206 27.359 12.9368 27.2854C12.9379 27.277 12.9399 27.2688 12.9427 27.2608C12.959 27.1811 12.9767 27.1014 12.996 27.0216C12.9966 27.0191 12.9971 27.0165 12.9974 27.014C13.0791 26.6794 13.1813 26.3506 13.3034 26.0296C13.3064 26.0219 13.3094 26.0142 13.3123 26.0081ZM25.0015 40.1148L24.8891 40.1608C24.2922 40.4151 23.6755 40.6161 23.0457 40.7619C23.0309 40.765 23.0161 40.7696 23.0013 40.7726C22.9304 40.788 22.8609 40.8048 22.7884 40.8186C22.7618 40.8248 22.7352 40.8294 22.7071 40.8355C22.648 40.8462 22.5889 40.8585 22.5282 40.8692C22.4913 40.8769 22.4529 40.883 22.4159 40.8892C22.3641 40.8984 22.3139 40.9061 22.2636 40.9152C22.2178 40.9214 22.172 40.929 22.1261 40.9352C22.0818 40.9428 22.0374 40.9474 21.9931 40.9536C21.9428 40.9612 21.8911 40.9674 21.8393 40.9735C21.7994 40.9781 21.7595 40.9827 21.7196 40.9873C21.6649 40.9919 21.6117 40.9965 21.557 41.0011C21.5185 41.0057 21.4801 41.0088 21.4417 41.0119C21.387 41.0164 21.3323 41.021 21.2776 41.0241C21.2391 41.0272 21.2007 41.0287 21.1623 41.0318C21.1076 41.0349 21.0529 41.0364 20.9996 41.0394C20.9597 41.041 20.9198 41.0425 20.8799 41.0425C20.8282 41.0456 20.7749 41.0456 20.7217 41.0471C20.6803 41.0471 20.6389 41.0486 20.5975 41.0486H20.4808C20.398 41.0471 20.3167 41.0456 20.2339 41.044C20.1984 41.0425 20.1629 41.041 20.1289 41.041C19.8998 41.0318 19.6721 41.0164 19.4444 40.9934L19.3513 40.9842C19.2626 40.9735 19.1739 40.9628 19.0852 40.952C19.0556 40.9474 19.0261 40.9444 18.9965 40.9398C18.7674 40.9076 18.5382 40.8677 18.3091 40.8217C18.2795 40.8156 18.2485 40.8094 18.2189 40.8033C18.1317 40.7834 18.043 40.7634 17.9558 40.7435C17.9262 40.7358 17.8966 40.7297 17.867 40.722C17.7532 40.6944 17.6394 40.6653 17.527 40.6346C17.4354 40.6086 17.3422 40.581 17.2521 40.5534C17.1693 40.5288 17.0865 40.5012 17.0007 40.4721C14.2303 38.4512 12.443 36.5314 11.7364 33.6073C11.7364 33.6073 11.661 33.2593 11.6122 33.2547C11.5649 33.2746 11.596 33.5061 11.596 33.5061C12.0276 35.9794 13.1482 37.8746 15.2815 39.7453C13.5953 38.8565 12.1441 37.5539 11.0541 35.9507C9.96412 34.3474 9.26833 32.4922 9.0273 30.5465C8.78626 28.6007 9.00728 26.6234 9.67113 24.7864C10.335 22.9495 11.4215 21.3086 12.8363 20.0066C12.8126 20.3301 12.8008 20.6567 12.8008 20.9833C12.8055 22.2251 12.9178 23.4639 13.1364 24.6848C12.5953 25.6876 10.8923 28.8371 11.4511 32.6674C11.4792 32.7809 11.494 32.9188 11.5442 32.9188C11.593 32.9188 11.5605 32.6551 11.5516 32.5877C11.3653 30.7262 11.7349 29.4474 12.2065 28.1241C12.0588 29.6022 12.2792 31.0949 12.8466 32.4595C13.4139 33.8241 14.3093 35.0149 15.447 35.9181C16.1267 36.542 16.8715 37.0851 17.6675 37.5373C19.2004 38.4105 20.9031 38.9147 22.6495 39.0124C22.8904 39.0277 23.1344 39.0354 23.3813 39.0354C24.999 39.0187 26.6038 38.7351 28.1356 38.1951C27.5575 38.643 26.9548 39.0556 26.3305 39.431C25.9026 39.6882 25.4592 39.9166 25.003 40.1148L25.0015 40.1148ZM39.5113 35.0272C38.4885 36.856 37.0207 38.3743 35.2548 39.4305C33.4889 40.4866 31.4867 41.0435 29.4483 41.0456C28.205 41.0455 26.9701 40.8347 25.7924 40.4215C26.0748 40.282 26.3537 40.1302 26.6291 39.9661C27.6775 39.3323 28.6681 38.601 29.5888 37.7811L29.6198 37.7535C29.6361 37.7397 29.6523 37.7259 29.6686 37.7106C29.7647 37.7152 29.8874 37.7182 30.0308 37.7182C31.3835 37.7182 34.8235 37.269 37.1593 35.0962C37.3515 34.9168 37.4535 34.8156 37.4195 34.7926C37.3061 34.8618 37.1979 34.9397 37.0957 35.0257C36.3048 35.6329 34.3416 36.5943 32.9608 36.8933C34.2495 36.2804 35.3671 35.3382 36.2087 34.155C37.0504 32.9717 37.5886 31.5861 37.7728 30.1282C37.9532 29.2039 38.0345 28.2619 38.0153 27.3191C37.9754 25.5052 37.4786 23.8277 36.6818 22.1839C35.8344 20.4445 34.6865 18.8812 33.295 17.5717C33.9706 17.8706 34.6286 18.2105 35.2656 18.5898C35.6947 18.8462 36.1075 19.131 36.5015 19.4423V19.4439L36.5976 19.5205C37.2539 20.0483 37.8532 20.6482 38.3849 21.3099C38.4144 21.3452 38.444 21.382 38.4721 21.4188C38.4928 21.4449 38.5135 21.4709 38.5342 21.4985C38.5726 21.5491 38.6125 21.5997 38.651 21.6519C38.6628 21.6687 38.6761 21.6856 38.6879 21.7025C39.2566 22.4733 39.7318 23.3137 40.1027 24.2049C40.1027 24.2064 40.1042 24.2064 40.1042 24.2079C40.1796 24.3873 40.249 24.5683 40.3156 24.7507C40.32 24.7615 40.323 24.7722 40.3274 24.7829C40.354 24.8565 40.3791 24.9302 40.4043 25.0053C40.4146 25.0344 40.425 25.0636 40.4338 25.0927C40.4531 25.1494 40.4708 25.2046 40.4885 25.2614C40.5004 25.2966 40.5107 25.3334 40.5211 25.3687C40.5388 25.4208 40.5521 25.473 40.5684 25.5251C40.5787 25.5619 40.5905 25.6002 40.5994 25.637C40.6171 25.6999 40.6349 25.7643 40.6512 25.8271C40.6585 25.8502 40.6645 25.8732 40.6704 25.8962C40.6955 25.9897 40.7177 26.0848 40.7399 26.1783C40.7546 26.2396 40.7665 26.3025 40.7812 26.3654C40.7827 26.3715 40.7842 26.3776 40.7857 26.3822C40.5033 29.8767 39.5764 32.5754 37.9103 34.3035C37.8039 34.4139 37.7507 34.4829 37.7625 34.5089C37.7743 34.535 37.9044 34.4077 38.0035 34.3295C39.6799 32.8192 40.4989 31.3671 41.0695 28.8509C41.099 31.018 40.5605 33.1528 39.5113 35.0272Z" fill="#00A2DC"/>
</svg>
