<svg width="50" height="50" viewBox="0 0 50 50" fill="none" xmlns="http://www.w3.org/2000/svg">
<path d="M37.8673 6H11.4297V32.6464H37.8673V6Z" fill="url(#paint0_linear_9176_14964)"/>
<path d="M19.2949 17.2102C19.353 16.7618 19.3934 16.3095 19.4733 15.8652C19.7674 14.2218 20.4614 12.8068 21.8554 11.8209C22.8441 11.1221 23.969 10.783 25.1574 10.6485C26.5467 10.4906 27.9208 10.5852 29.2737 10.9489C29.392 10.9809 29.511 11.0182 29.6227 11.0688C29.9102 11.1981 30.045 11.4325 29.9908 11.7416C29.8487 12.5544 29.704 13.3671 29.5454 14.1765C29.4555 14.6368 29.2896 14.7314 28.8223 14.6421C27.7483 14.4369 26.671 14.3323 25.5857 14.5562C24.2361 14.834 23.4066 15.8026 23.2988 17.1835C23.2063 18.3693 23.2592 19.5557 23.2532 20.7421C23.2413 22.9305 23.2506 25.1188 23.2493 27.3072C23.2493 27.9214 23.1012 28.0672 22.4819 28.0679C21.6716 28.0686 20.8613 28.0579 20.051 28.0726C19.6914 28.0792 19.431 27.968 19.2955 27.6203C19.2955 24.1509 19.2955 20.6815 19.2955 17.2115L19.2949 17.2102Z" fill="white"/>
<path d="M42.6575 40.2689V43.9199H41.9226V39.5883H42.6376L42.6575 40.2689ZM44 39.5643L43.996 40.2528C43.9351 40.2395 43.8769 40.2315 43.8213 40.2288C43.7683 40.2235 43.7074 40.2208 43.6385 40.2208C43.4691 40.2208 43.3195 40.2475 43.1897 40.3009C43.06 40.3543 42.9501 40.429 42.86 40.5251C42.77 40.6212 42.6985 40.7359 42.6456 40.8694C42.5952 41.0001 42.5621 41.1443 42.5463 41.3017L42.3397 41.4218C42.3397 41.1603 42.3649 40.9147 42.4152 40.6852C42.4681 40.4557 42.5489 40.2528 42.6575 40.0767C42.766 39.8979 42.9037 39.7591 43.0706 39.6603C43.24 39.5589 43.4413 39.5082 43.6743 39.5082C43.7273 39.5082 43.7882 39.5149 43.857 39.5282C43.9259 39.5389 43.9735 39.5509 44 39.5643Z" fill="black"/>
<path d="M39.3925 44C39.0933 44 38.8219 43.9493 38.5782 43.8479C38.3373 43.7438 38.1294 43.5983 37.9546 43.4115C37.7825 43.2247 37.6501 43.0032 37.5574 42.7469C37.4648 42.4907 37.4184 42.2105 37.4184 41.9062V41.7381C37.4184 41.3858 37.4701 41.0722 37.5733 40.7973C37.6766 40.5197 37.8169 40.2849 37.9944 40.0927C38.1718 39.9005 38.373 39.7551 38.5981 39.6563C38.8232 39.5576 39.0562 39.5082 39.2972 39.5082C39.6043 39.5082 39.8691 39.5616 40.0916 39.6684C40.3166 39.7751 40.5007 39.9246 40.6437 40.1167C40.7867 40.3062 40.8926 40.5304 40.9614 40.7893C41.0303 41.0455 41.0647 41.3257 41.0647 41.63V41.9623H37.8553V41.3578H40.3299V41.3017C40.3193 41.1096 40.2796 40.9227 40.2107 40.7413C40.1445 40.5598 40.0386 40.4103 39.893 40.2929C39.7473 40.1754 39.5487 40.1167 39.2972 40.1167C39.1303 40.1167 38.9768 40.1528 38.8364 40.2248C38.6961 40.2942 38.5756 40.3983 38.475 40.5371C38.3743 40.6759 38.2962 40.8453 38.2406 41.0455C38.185 41.2457 38.1572 41.4765 38.1572 41.7381V41.9062C38.1572 42.1117 38.185 42.3052 38.2406 42.4867C38.2989 42.6655 38.3823 42.823 38.4909 42.9591C38.6021 43.0952 38.7358 43.202 38.892 43.2794C39.0509 43.3568 39.231 43.3955 39.4322 43.3955C39.6917 43.3955 39.9115 43.3421 40.0916 43.2354C40.2716 43.1286 40.4292 42.9858 40.5642 42.807L41.0091 43.1633C40.9164 43.3047 40.7986 43.4395 40.6556 43.5676C40.5126 43.6957 40.3365 43.7998 40.1273 43.8799C39.9208 43.96 39.6758 44 39.3925 44Z" fill="black"/>
<path d="M36.4294 37.7708V43.9199H35.6906V37.7708H36.4294Z" fill="black"/>
<path d="M32.0999 43.9199H31.3651V39.212C31.3651 38.8837 31.4287 38.6061 31.5558 38.3793C31.6829 38.1524 31.8643 37.9803 32.0999 37.8628C32.3356 37.7454 32.615 37.6867 32.938 37.6867C33.1287 37.6867 33.3154 37.7107 33.4981 37.7587C33.6808 37.8041 33.8688 37.8615 34.0621 37.9309L33.939 38.5554C33.8171 38.5074 33.6755 38.462 33.514 38.4193C33.3551 38.3739 33.1803 38.3512 32.9897 38.3512C32.6745 38.3512 32.4468 38.4233 32.3065 38.5674C32.1688 38.7089 32.0999 38.9237 32.0999 39.212V43.9199ZM32.9777 39.5883V40.1568H30.6859V39.5883H32.9777ZM34.4235 39.5883V43.9199H33.6887V39.5883H34.4235Z" fill="black"/>
<path d="M26.2849 41.8021V41.7101C26.2849 41.3978 26.33 41.1082 26.42 40.8413C26.51 40.5718 26.6398 40.3382 26.8092 40.1407C26.9787 39.9406 27.1839 39.7858 27.4249 39.6764C27.6659 39.5643 27.936 39.5082 28.2352 39.5082C28.5371 39.5082 28.8085 39.5643 29.0494 39.6764C29.2931 39.7858 29.4996 39.9406 29.6691 40.1407C29.8412 40.3382 29.9723 40.5718 30.0623 40.8413C30.1523 41.1082 30.1973 41.3978 30.1973 41.7101V41.8021C30.1973 42.1144 30.1523 42.404 30.0623 42.6709C29.9723 42.9378 29.8412 43.1713 29.6691 43.3715C29.4996 43.569 29.2944 43.7238 29.0534 43.8359C28.8151 43.9453 28.545 44 28.2431 44C27.9413 44 27.6698 43.9453 27.4289 43.8359C27.1879 43.7238 26.9814 43.569 26.8092 43.3715C26.6398 43.1713 26.51 42.9378 26.42 42.6709C26.33 42.404 26.2849 42.1144 26.2849 41.8021ZM27.0198 41.7101V41.8021C27.0198 42.0183 27.0449 42.2225 27.0952 42.4147C27.1455 42.6042 27.221 42.7723 27.3216 42.9191C27.4249 43.0659 27.5533 43.182 27.7069 43.2674C27.8605 43.3501 28.0392 43.3915 28.2431 43.3915C28.4444 43.3915 28.6205 43.3501 28.7714 43.2674C28.925 43.182 29.0521 43.0659 29.1527 42.9191C29.2533 42.7723 29.3288 42.6042 29.3791 42.4147C29.4321 42.2225 29.4586 42.0183 29.4586 41.8021V41.7101C29.4586 41.4966 29.4321 41.2951 29.3791 41.1056C29.3288 40.9134 29.252 40.7439 29.1487 40.5971C29.0481 40.4477 28.921 40.3302 28.7674 40.2448C28.6165 40.1594 28.4391 40.1167 28.2352 40.1167C28.0339 40.1167 27.8565 40.1594 27.7029 40.2448C27.552 40.3302 27.4249 40.4477 27.3216 40.5971C27.221 40.7439 27.1455 40.9134 27.0952 41.1056C27.0449 41.2951 27.0198 41.4966 27.0198 41.7101Z" fill="black"/>
<path d="M24.5373 40.2689V43.9199H23.8024V39.5883H24.5174L24.5373 40.2689ZM25.8798 39.5643L25.8758 40.2528C25.8149 40.2395 25.7567 40.2315 25.7011 40.2288C25.6481 40.2235 25.5872 40.2208 25.5183 40.2208C25.3489 40.2208 25.1993 40.2475 25.0695 40.3009C24.9398 40.3543 24.8299 40.429 24.7398 40.5251C24.6498 40.6212 24.5783 40.7359 24.5253 40.8694C24.475 41.0001 24.4419 41.1443 24.426 41.3017L24.2195 41.4218C24.2195 41.1603 24.2447 40.9147 24.295 40.6852C24.3479 40.4557 24.4287 40.2528 24.5373 40.0767C24.6458 39.8979 24.7835 39.7591 24.9503 39.6603C25.1198 39.5589 25.3211 39.5082 25.5541 39.5082C25.6071 39.5082 25.668 39.5149 25.7368 39.5282C25.8057 39.5389 25.8533 39.5509 25.8798 39.5643Z" fill="black"/>
<path d="M20.9148 41.634H19.3697V41.0055H20.9148C21.214 41.0055 21.4563 40.9574 21.6417 40.8614C21.827 40.7653 21.9621 40.6318 22.0468 40.461C22.1342 40.2902 22.1779 40.0954 22.1779 39.8765C22.1779 39.6764 22.1342 39.4882 22.0468 39.3121C21.9621 39.1359 21.827 38.9945 21.6417 38.8877C21.4563 38.7783 21.214 38.7236 20.9148 38.7236H19.5484V43.9199H18.7819V38.091H20.9148C21.3517 38.091 21.7211 38.1671 22.023 38.3192C22.3249 38.4713 22.5539 38.6822 22.7101 38.9517C22.8664 39.2186 22.9445 39.5242 22.9445 39.8685C22.9445 40.2422 22.8664 40.5611 22.7101 40.8253C22.5539 41.0895 22.3249 41.2911 22.023 41.4298C21.7211 41.5659 21.3517 41.634 20.9148 41.634Z" fill="black"/>
<path d="M17.8087 39.5883V40.1568H15.4851V39.5883H17.8087ZM16.2716 38.5354H17.0064V42.847C17.0064 42.9938 17.0289 43.1046 17.0739 43.1793C17.1189 43.254 17.1772 43.3034 17.2487 43.3274C17.3202 43.3515 17.397 43.3635 17.479 43.3635C17.5399 43.3635 17.6035 43.3581 17.6697 43.3474C17.7385 43.3341 17.7902 43.3234 17.8246 43.3154L17.8286 43.9199C17.7703 43.9386 17.6935 43.956 17.5982 43.972C17.5055 43.9907 17.393 44 17.2606 44C17.0805 44 16.915 43.964 16.7641 43.8919C16.6131 43.8198 16.4927 43.6997 16.4026 43.5316C16.3153 43.3608 16.2716 43.1313 16.2716 42.843V38.5354Z" fill="black"/>
<path d="M13.4793 44C13.18 44 12.9086 43.9493 12.665 43.8479C12.424 43.7438 12.2162 43.5983 12.0414 43.4115C11.8693 43.2247 11.7369 43.0032 11.6442 42.7469C11.5515 42.4907 11.5052 42.2105 11.5052 41.9062V41.7381C11.5052 41.3858 11.5568 41.0722 11.6601 40.7973C11.7634 40.5197 11.9037 40.2849 12.0811 40.0927C12.2585 39.9005 12.4598 39.7551 12.6849 39.6563C12.9099 39.5576 13.143 39.5082 13.3839 39.5082C13.6911 39.5082 13.9559 39.5616 14.1783 39.6684C14.4034 39.7751 14.5874 39.9246 14.7304 40.1167C14.8734 40.3062 14.9793 40.5304 15.0482 40.7893C15.117 41.0455 15.1515 41.3257 15.1515 41.63V41.9623H11.9421V41.3578H14.4166V41.3017C14.406 41.1096 14.3663 40.9227 14.2975 40.7413C14.2313 40.5598 14.1254 40.4103 13.9797 40.2929C13.8341 40.1754 13.6355 40.1167 13.3839 40.1167C13.2171 40.1167 13.0635 40.1528 12.9232 40.2248C12.7828 40.2942 12.6623 40.3983 12.5617 40.5371C12.4611 40.6759 12.383 40.8453 12.3274 41.0455C12.2718 41.2457 12.244 41.4765 12.244 41.7381V41.9062C12.244 42.1117 12.2718 42.3052 12.3274 42.4867C12.3856 42.6655 12.469 42.823 12.5776 42.9591C12.6888 43.0952 12.8225 43.202 12.9788 43.2794C13.1377 43.3568 13.3177 43.3955 13.519 43.3955C13.7785 43.3955 13.9983 43.3421 14.1783 43.2354C14.3584 43.1286 14.5159 42.9858 14.651 42.807L15.0959 43.1633C15.0032 43.3047 14.8853 43.4395 14.7423 43.5676C14.5994 43.6957 14.4233 43.7998 14.2141 43.8799C14.0075 43.96 13.7626 44 13.4793 44Z" fill="black"/>
<path d="M10.4486 38.091V43.9199H9.67806L6.76659 39.4241V43.9199H6V38.091H6.76659L9.68998 42.5988V38.091H10.4486Z" fill="black"/>
<defs>
<linearGradient id="paint0_linear_9176_14964" x1="-0.538849" y1="40.0908" x2="40.2912" y2="15.9645" gradientUnits="userSpaceOnUse">
<stop stop-color="#5E49AB"/>
<stop offset="0.3" stop-color="#B42DC9"/>
<stop offset="0.54" stop-color="#DC1E9E"/>
<stop offset="0.75" stop-color="#F2566F"/>
<stop offset="1" stop-color="#F6B158"/>
</linearGradient>
</defs>
</svg>
