<svg width="50" height="50" viewBox="0 0 50 50" fill="none" xmlns="http://www.w3.org/2000/svg">
<path fill-rule="evenodd" clip-rule="evenodd" d="M32.8222 10.5624H30.9181C27.2155 10.5519 23.5381 11.1811 20.0444 12.4228C19.3161 12.5858 18.6767 13.0244 18.257 13.6488C17.8373 14.2732 17.669 15.0363 17.7865 15.7822V37.9917C17.7865 39.0713 18.1435 39.4376 19.2146 39.4376H21.7152C22.726 39.4376 23.0814 39.0778 23.0814 37.9917V17.7021C23.0523 17.4339 23.1206 17.1642 23.2736 16.9433C23.4267 16.7224 23.6539 16.5655 23.9128 16.5019C26.1452 15.8087 28.469 15.4646 30.8039 15.4818H32.8222C33.8916 15.4818 34.2502 15.1219 34.2502 14.0358V11.9955C34.2502 10.9223 33.8916 10.5624 32.8222 10.5624Z" fill="#FF6B00"/>
</svg>
