<svg width="50" height="50" viewBox="0 0 50 50" fill="none" xmlns="http://www.w3.org/2000/svg">
<path d="M24.5133 40.3494C24.5109 38.9938 24.5072 37.6383 24.5047 36.2827C24.5047 36.0381 24.5047 35.7935 24.4998 35.549C24.4973 35.431 24.5231 35.3769 24.662 35.3781C25.9869 35.3843 27.3118 35.3843 28.6366 35.3843C28.7952 35.3843 28.9525 35.4002 29.1061 35.4383C29.4969 35.5379 29.7071 35.7898 29.7206 36.1917C29.7304 36.4719 29.7292 36.7521 29.7206 37.0324C29.712 37.3519 29.4982 37.6198 29.1884 37.7292C29.1331 37.7489 29.0643 37.7415 29.0213 37.7956C29.0373 37.846 29.0877 37.841 29.1221 37.8521C29.508 37.9824 29.7317 38.2601 29.7476 38.6657C29.7587 38.9299 29.7599 39.1966 29.7464 39.4609C29.7268 39.8406 29.5277 40.0975 29.1676 40.2265C29.111 40.2462 29.0545 40.2646 28.9783 40.2917C29.0336 40.3175 29.068 40.3335 29.1036 40.3494H24.5133ZM27.0537 39.4314C27.2368 39.4314 27.4199 39.4338 27.603 39.4314C27.8427 39.4289 28.0823 39.4314 28.3208 39.4203C28.5678 39.408 28.66 39.3085 28.6686 39.0676C28.6735 38.941 28.6723 38.8132 28.671 38.6854C28.6673 38.3277 28.5862 38.2429 28.2311 38.2368C27.4224 38.222 26.6125 38.2577 25.8025 38.2159C25.6944 38.2097 25.6489 38.2503 25.6415 38.3634C25.6219 38.6583 25.6624 38.9533 25.644 39.2483C25.6354 39.3896 25.6932 39.4351 25.8308 39.4338C26.2376 39.4277 26.6456 39.4314 27.0524 39.4314H27.0537ZM26.9934 36.2274V36.2249C26.5916 36.2249 26.1884 36.2274 25.7866 36.2237C25.6673 36.2237 25.628 36.263 25.6354 36.3871C25.6489 36.6305 25.644 36.8763 25.6465 37.1196C25.6489 37.3679 25.6489 37.3716 25.891 37.3716C26.6088 37.3728 27.3265 37.374 28.0442 37.3716C28.1659 37.3716 28.2876 37.3556 28.408 37.3359C28.5518 37.3138 28.6354 37.2265 28.6379 37.0766C28.6403 36.8935 28.6428 36.7104 28.6379 36.5272C28.6342 36.3724 28.5444 36.2827 28.3957 36.2569C28.3011 36.2409 28.204 36.2298 28.1082 36.2286C27.737 36.2249 27.3646 36.2274 26.9934 36.2274Z" fill="#004E92"/>
<path d="M17.3531 40.3494C17.3851 40.3347 17.4158 40.3199 17.449 40.3052C17.4441 40.2978 17.4404 40.2855 17.4342 40.2855C17.0324 40.2167 16.8886 39.9279 16.8345 39.5715C16.8111 39.4154 16.8001 39.2569 16.7989 39.0995C16.7952 38.2429 16.7989 37.3875 16.7976 36.5309C16.7976 36.3146 16.8419 36.1057 16.9082 35.9017C16.9783 35.6866 17.1258 35.5477 17.3408 35.4838C17.5412 35.4248 17.7452 35.383 17.9566 35.3843C19.1794 35.3855 20.4023 35.3855 21.6252 35.3843C21.753 35.3843 21.8796 35.4015 22.0037 35.4273C22.5211 35.533 22.7362 35.8156 22.7435 36.44C22.7534 37.245 22.7485 38.05 22.7472 38.855C22.7472 39.0639 22.7534 39.2716 22.7227 39.4805C22.6686 39.8529 22.569 40.1835 22.1229 40.2868C22.1819 40.315 22.2163 40.3322 22.2507 40.3494H17.3531ZM19.7706 36.3134C19.2151 36.3134 18.6596 36.3146 18.1041 36.3109C17.9873 36.3109 17.9418 36.3478 17.9418 36.4695C17.9455 37.3716 17.9418 38.2749 17.9455 39.177C17.9455 39.3798 17.9664 39.3957 18.1655 39.3957C19.2409 39.3957 20.3175 39.3957 21.3929 39.3957C21.5957 39.3957 21.6006 39.392 21.6006 39.1917C21.6006 38.2945 21.5969 37.3974 21.603 36.499C21.603 36.3466 21.5502 36.3085 21.4088 36.3097C20.8632 36.3159 20.3175 36.3122 19.7718 36.3122L19.7706 36.3134Z" fill="#004E92"/>
<path d="M10.0086 40.3494C10.0061 39.1462 10.0025 37.9418 10.0012 36.7386C10.0012 36.3404 10.0025 35.9435 10.0012 35.5453C10.0012 35.4359 10.0258 35.3769 10.1549 35.3769C11.476 35.383 12.796 35.3843 14.1172 35.3855C14.2757 35.3855 14.433 35.4027 14.5866 35.4396C14.9639 35.5317 15.1778 35.7382 15.2036 36.1217C15.2405 36.6501 15.2552 37.1835 15.195 37.7108C15.1397 38.2036 14.8288 38.4592 14.331 38.49C14.0926 38.5047 13.8542 38.5207 13.5715 38.5145C13.7952 38.7112 13.9857 38.882 14.1811 39.0479C14.6395 39.4375 15.1004 39.8247 15.5612 40.2106C15.6227 40.2622 15.694 40.304 15.7616 40.3494H14.0483C14.052 40.2081 13.9181 40.1798 13.8431 40.1073C13.3183 39.5961 12.7874 39.0909 12.2601 38.5821C12.2024 38.5268 12.1409 38.4875 12.0574 38.4973C11.814 38.5268 11.5694 38.5121 11.3249 38.5133C11.1233 38.5145 11.1196 38.517 11.1184 38.7161C11.1159 39.2605 11.1135 39.805 11.1098 40.3494H10.0086ZM12.5023 36.2827C12.0955 36.2827 11.6874 36.2851 11.2806 36.2814C11.1651 36.2814 11.1159 36.3195 11.1172 36.4412C11.1221 36.7767 11.1233 37.1135 11.1172 37.449C11.1147 37.5842 11.1663 37.6223 11.2978 37.6211C12.0463 37.6161 12.7948 37.6186 13.5432 37.6174C13.6292 37.6174 13.7165 37.6088 13.8013 37.5952C14.0127 37.5621 14.0901 37.4773 14.1 37.261C14.1073 37.0827 14.1036 36.9045 14.1024 36.7263C14.1 36.392 14.0029 36.2913 13.6637 36.2864C13.2765 36.2814 12.8894 36.2864 12.5023 36.2864V36.2827Z" fill="#004E92"/>
<path d="M34.3367 40.3496C34.3343 39.6725 34.3306 38.9941 34.3306 38.3169C34.3294 37.4197 34.3306 36.5225 34.3294 35.6254C34.3294 35.3845 34.3318 35.4041 34.5764 35.3783C34.9586 35.3365 35.2425 35.4668 35.5289 35.7274C36.2638 36.3947 37.0356 37.0215 37.7841 37.6729C38.1762 38.0133 38.5719 38.3513 38.9283 38.7311C38.9406 38.7446 38.9603 38.7519 38.9861 38.7691C39.0279 38.6794 39.0168 38.5909 39.007 38.5098C38.9234 37.7982 38.9664 37.0842 38.9566 36.3714C38.9529 36.0961 38.9578 35.8208 38.9566 35.5455C38.9566 35.4275 38.991 35.3722 39.1262 35.3796C39.4162 35.3943 39.7075 35.3894 39.9975 35.3931C39.9975 37.0055 39.9963 38.6168 40 40.2292C40 40.3337 39.9803 40.3595 39.8746 40.3546C39.6399 40.3447 39.4052 40.3509 39.1704 40.3509C39.168 40.2722 39.1041 40.2415 39.0537 40.1997C38.7931 39.9883 38.524 39.7855 38.272 39.5631C37.322 38.7237 36.3376 37.9248 35.4342 37.0338C35.4109 37.0104 35.3875 36.9699 35.347 36.9871C35.3064 37.0055 35.32 37.0498 35.3224 37.083C35.3875 37.9015 35.3384 38.7212 35.3519 39.541C35.3568 39.8101 35.3482 40.0805 35.3445 40.3496H34.3343H34.3367Z" fill="#004E92"/>
<path d="M31.3367 40.3494C31.3331 38.8611 31.3306 37.3716 31.3269 35.8832C31.3269 35.7714 31.3159 35.6596 31.3085 35.5477C31.3011 35.4359 31.3429 35.3707 31.4633 35.372C31.7644 35.3769 32.0643 35.3806 32.3654 35.3843C32.4416 35.3843 32.476 35.4273 32.476 35.4998C32.476 35.5207 32.476 35.5403 32.476 35.5612C32.4736 37.1577 32.4711 38.753 32.4674 40.3494H31.3355H31.3367Z" fill="#004E92"/>
<path d="M36.9127 21.2065C36.9127 23.9103 36.9066 26.6129 36.9164 29.3167C36.9201 30.3122 36.5895 31.1737 35.9529 31.9258C35.304 32.6915 34.4707 33.1229 33.4875 33.2753C33.3265 33.2999 33.163 33.3097 32.9996 33.3097C27.7419 33.3122 22.483 33.3134 17.2253 33.3085C16.6465 33.3085 16.0664 33.3011 15.4973 33.1364C13.9328 32.6841 12.823 31.4011 12.6313 29.7849C12.5981 29.5059 12.5821 29.2257 12.5821 28.9467C12.5797 23.7186 12.5797 18.4904 12.5809 13.2622C12.5809 12.4105 12.7456 11.5981 13.2126 10.8706C13.7583 10.0225 14.5154 9.45228 15.4863 9.16715C15.8968 9.04548 16.3159 9.00738 16.7399 9.00738C22.0836 9.00493 27.4285 9.00861 32.7735 9.00001C34.0492 8.99755 35.1135 9.45843 35.9676 10.3888C36.4961 10.964 36.7726 11.6682 36.8808 12.44C36.9152 12.6833 36.914 12.9279 36.914 13.1725C36.914 15.8505 36.914 18.5285 36.914 21.2065H36.9115H36.9127ZM14.8054 31.3544C14.9787 31.2966 15.1249 31.1958 15.281 31.1159C16.3097 30.5961 17.3384 30.0774 18.3646 29.5551C19.4326 29.0119 20.4982 28.465 21.5649 27.9193C22.0639 27.6637 22.5629 27.408 23.0631 27.1549C23.9861 26.6866 24.8992 26.1975 25.8234 25.7329C26.3875 25.449 26.9517 25.1639 27.5158 24.8787C28.982 24.1401 30.442 23.3892 31.8947 22.626C33.0991 21.993 34.3195 21.3884 35.535 20.7763C35.6616 20.7124 35.7083 20.6313 35.7083 20.49C35.7046 17.9656 35.7083 15.44 35.7022 12.9156C35.7022 12.5457 35.626 12.1844 35.4613 11.8488C34.934 10.7698 34.0664 10.2155 32.8644 10.2081C31.5027 10.1995 30.1409 10.2143 28.7792 10.1983C28.4769 10.1946 28.2532 10.2364 28.1549 10.551C28.1524 10.5608 28.1438 10.5682 28.1389 10.5768C27.2687 11.8845 26.4404 13.2192 25.5899 14.5379C24.4764 16.2647 23.3642 17.9926 22.2519 19.7206C21.2982 21.204 20.347 22.6899 19.3921 24.1745C18.5539 25.4785 17.7157 26.7825 16.8751 28.084C16.2089 29.1163 15.5379 30.145 14.8693 31.1762C14.8374 31.2253 14.7857 31.2671 14.8017 31.3544H14.8054ZM13.7767 21.2458C13.7767 23.9435 13.7767 26.6411 13.7767 29.3388C13.7767 29.6485 13.8419 29.9459 13.9267 30.2409C13.9549 30.3404 14.0004 30.3429 14.0606 30.2679C14.0828 30.2409 14.1024 30.2102 14.1209 30.1794C14.6407 29.3744 15.1618 28.5694 15.6792 27.7632C16.8959 25.8669 18.1077 23.9668 19.3257 22.0717C20.2978 20.5576 21.2773 19.0483 22.2507 17.5342C23.0631 16.2696 23.8423 14.9828 24.6805 13.7329C25.4154 12.6366 26.1012 11.5072 26.8091 10.3925C26.8386 10.3458 26.8914 10.2954 26.8669 10.2413C26.8349 10.1725 26.7575 10.2044 26.7009 10.2044C25.7018 10.2032 24.7026 10.2044 23.7034 10.2044C21.3019 10.2044 18.9004 10.1995 16.499 10.2069C15.6694 10.2093 14.9934 10.5682 14.4551 11.1864C13.9648 11.7481 13.7816 12.4228 13.7804 13.1528C13.778 15.8505 13.7804 18.5481 13.7804 21.2458H13.7767ZM24.7603 32.1151C27.3916 32.1151 30.0229 32.1151 32.6555 32.1151C32.9873 32.1151 33.3142 32.0844 33.6387 32.0033C34.8148 31.7145 35.7083 30.5875 35.7083 29.3757C35.7083 26.9889 35.7083 24.601 35.7083 22.2143C35.7083 22.0569 35.7022 22.0533 35.5547 22.1282C34.9463 22.4379 34.338 22.7489 33.7308 23.0598C32.8226 23.5231 31.9144 23.9853 31.0061 24.4486C29.9799 24.9721 28.9537 25.4945 27.9275 26.0168C26.873 26.5539 25.8185 27.0897 24.7628 27.6243C24.2356 27.891 23.6985 28.1417 23.1786 28.422C22.3171 28.8865 21.4359 29.3142 20.5682 29.7653C20.025 30.0467 19.4756 30.3134 18.9238 30.5776C18.5465 30.7583 18.1962 30.9881 17.814 31.1614C17.2892 31.3998 16.7792 31.6665 16.263 31.9234C16.2286 31.9406 16.1807 31.9578 16.1905 32.0094C16.1979 32.0487 16.2421 32.0549 16.2753 32.066C16.4388 32.1163 16.6071 32.1163 16.7755 32.1163C19.4375 32.1163 22.0995 32.1163 24.7616 32.1163L24.7603 32.1151Z" fill="url(#paint0_radial_9176_14943)"/>
<path d="M30.8439 13.9898C30.8464 13.272 31.5051 12.6415 32.2511 12.644C32.9959 12.6465 33.6411 13.2757 33.6374 13.9947C33.6325 14.753 32.991 15.413 32.2524 15.4056C31.4855 15.3982 30.8193 14.7505 30.8439 13.9898Z" fill="#0072BE"/>
<defs>
<radialGradient id="paint0_radial_9176_14943" cx="0" cy="0" r="1" gradientUnits="userSpaceOnUse" gradientTransform="translate(23.652 24.3782) scale(23.3516 24.432)">
<stop offset="0.05" stop-color="#87CA0F"/>
<stop offset="0.4" stop-color="#58BC90"/>
<stop offset="0.65" stop-color="#3BB3E5"/>
<stop offset="0.73" stop-color="#249AD6"/>
<stop offset="0.82" stop-color="#1084C8"/>
<stop offset="0.92" stop-color="#0477C0"/>
<stop offset="1" stop-color="#0073BE"/>
</radialGradient>
</defs>
</svg>
