<svg width="50" height="50" viewBox="0 0 50 50" fill="none" xmlns="http://www.w3.org/2000/svg">
<path fill-rule="evenodd" clip-rule="evenodd" d="M5 15.0011V34.9642H33.1418L35.4662 29.9428L37.8259 35H44.8669V15L5 15.0011V15.0011Z" fill="#CC2229"/>
<path fill-rule="evenodd" clip-rule="evenodd" d="M41.2918 29.94L36.4568 18.8981L36.4573 18.8964H34.5131L29.7856 29.9432H31.8688L35.4662 21.2816L39.2199 29.9432L41.2918 29.94V29.94ZM16.0245 25.2114C17.5424 24.6449 18.269 23.3915 18.2516 22.1136C18.2245 20.1748 16.7028 18.8209 14.5527 18.8209H9.90125V29.9248H11.5946V20.4426H14.4555C15.414 20.4426 16.4448 20.9411 16.4606 22.1364C16.4752 23.2014 15.6807 23.8672 14.3333 23.9243L14.3067 23.9248L13.2808 23.9346L16.6979 29.9427L18.6986 29.9394C18.6991 29.94 17.0547 27.0345 16.0245 25.2114V25.2114ZM20.5472 21.6884C20.5472 23.8993 22.7407 24.5227 24.446 25.0045C26.2235 25.5063 26.8437 26.0738 26.8437 26.9318C26.8437 28.365 25.3915 28.5877 24.4927 28.5877C23.2594 28.5877 22.2416 28.2428 21.2456 27.6286L20.3963 29.0678C21.6529 29.8433 22.9547 30.2039 24.4933 30.2039C27.0626 30.2039 28.7705 28.8717 28.7705 26.8118C28.7705 24.5108 26.6933 23.8727 24.9473 23.3801C23.1681 22.8778 22.4725 22.452 22.4725 21.5934C22.4725 20.2922 24.0653 20.1656 24.635 20.1656C25.5311 20.1656 26.6721 20.4659 27.3471 20.8146L28.0629 19.4075C27.1516 18.9372 25.7554 18.6211 24.5872 18.6211C22.1026 18.6206 20.5472 19.7523 20.5472 21.6884V21.6884Z" fill="white"/>
</svg>
