<svg width="50" height="50" viewBox="0 0 50 50" fill="none" xmlns="http://www.w3.org/2000/svg">
<path fill-rule="evenodd" clip-rule="evenodd" d="M24.726 5C24.6347 5 24.4521 5.09174 24.3607 5.18349L18.8813 10.6881C18.516 11.055 18.516 11.6055 18.8813 11.8807L24.3607 17.3853C24.726 17.7523 25.274 17.7523 25.5479 17.3853L31.0274 11.8807C31.3927 11.5138 31.3927 10.9633 31.0274 10.6881L25.5479 5.18349C25.5479 5.09174 25.4566 5 25.274 5H24.726Z" fill="#0AC9BB"/>
<path fill-rule="evenodd" clip-rule="evenodd" d="M24.4521 32.6147L18.9726 38.1193C18.6073 38.4862 18.6073 39.0367 18.9726 39.3119L24.4521 44.8165C24.5434 44.9083 24.6347 44.9083 24.726 45H25.4566C25.5479 45 25.6393 44.9083 25.7306 44.8165L31.21 39.3119C31.5753 38.945 31.5753 38.3945 31.21 38.1193L25.7306 32.6147C25.5479 32.4312 25.3653 32.3395 25.0913 32.3395C24.8174 32.4312 24.5434 32.5229 24.4521 32.6147Z" fill="#0AC9BB"/>
<path fill-rule="evenodd" clip-rule="evenodd" d="M38.0594 18.945L32.5799 24.4495C32.2146 24.8165 32.2146 25.367 32.5799 25.6422L38.0594 31.1468C38.4247 31.5138 38.9726 31.5138 39.2466 31.1468L44.726 25.6422C45.0913 25.2752 45.0913 24.7248 44.726 24.4495L39.2466 18.945C39.0639 18.7615 38.8813 18.6697 38.6073 18.6697C38.4247 18.6697 38.242 18.7615 38.0594 18.945Z" fill="#0AC9BB"/>
<path fill-rule="evenodd" clip-rule="evenodd" d="M17.5114 39.4954L15.0457 41.9725C14.7717 42.156 14.7717 42.6147 14.9543 42.7982C15.0457 42.8899 15.137 42.8899 15.2283 42.9817L17.3288 43.9908C17.6027 44.1743 17.8767 44.0826 18.0594 43.8073C18.1507 43.7156 18.1507 43.6239 18.1507 43.4404V39.6789C18.1507 39.4037 18.0594 39.2202 17.8767 39.2202C17.6941 39.3119 17.6027 39.4037 17.5114 39.4954Z" fill="#0AC9BB"/>
<path fill-rule="evenodd" clip-rule="evenodd" d="M31.8493 39.6789V43.3486C31.8493 43.6239 32.032 43.8991 32.3059 43.9908C32.3973 43.9908 32.5799 43.9908 32.6712 43.8991L34.7717 42.8899C35.0457 42.7982 35.2283 42.4312 35.0457 42.0642C35.0457 41.9725 34.9543 41.8807 34.863 41.789L32.3973 39.3119C32.3059 39.2202 32.2146 39.1284 32.032 39.1284C31.9406 39.2202 31.8493 39.4037 31.8493 39.6789Z" fill="#0AC9BB"/>
<path fill-rule="evenodd" clip-rule="evenodd" d="M32.7626 31.8807C32.3059 31.8807 31.9406 32.2477 31.9406 32.7064V37.6606C31.9406 38.1193 32.3059 38.4862 32.7626 38.4862H37.6941C38.1507 38.4862 38.6073 38.1193 38.6073 37.6606V32.7064C38.6073 32.2477 38.242 31.8807 37.7854 31.8807C37.6941 31.8807 32.7626 31.8807 32.7626 31.8807Z" fill="#0AC9BB"/>
<path fill-rule="evenodd" clip-rule="evenodd" d="M41.895 15.0917L39.4292 17.5688C39.0639 17.9358 39.2466 18.211 39.7032 18.211H43.3562C43.6301 18.211 43.9041 18.0275 43.9954 17.7523C43.9954 17.6606 43.9954 17.5688 43.9041 17.4771L42.8995 15.367C42.8082 15.1835 42.6256 15 42.3516 15C42.169 14.9083 41.9863 15 41.895 15.0917Z" fill="#0AC9BB"/>
<path fill-rule="evenodd" clip-rule="evenodd" d="M31.8493 6.65138V10.3211C31.8493 10.7798 32.1233 10.8716 32.4886 10.5963L34.9543 8.11927C35.2283 7.93578 35.2283 7.56881 35.0457 7.29358C34.9543 7.20183 34.863 7.20183 34.7717 7.11009L32.6712 6.10092C32.5799 6.10092 32.4886 6.10092 32.3973 6.10092C32.1233 6.00917 31.9406 6.2844 31.8493 6.65138C31.9406 6.65138 31.9406 6.55963 31.8493 6.65138Z" fill="#0AC9BB"/>
<path fill-rule="evenodd" clip-rule="evenodd" d="M7.10046 15.2752L6.09589 17.3853C5.91324 17.6606 6.00457 17.9358 6.27854 18.1193C6.36986 18.211 6.46119 18.211 6.64384 18.211H10.2968C10.7534 18.211 10.9361 17.9358 10.5708 17.5688L8.19635 15.0917C8.10502 15 7.92237 14.9083 7.73973 14.9083C7.46575 14.9083 7.28311 15 7.10046 15.2752Z" fill="#0AC9BB"/>
<path fill-rule="evenodd" clip-rule="evenodd" d="M12.3973 11.422C11.8493 11.422 11.484 11.8807 11.484 12.3394V17.2936C11.484 17.7523 11.8493 18.1193 12.3059 18.1193H17.2374C17.6941 18.1193 18.0594 17.7523 18.0594 17.2936V12.3394C18.1507 11.8807 17.7854 11.422 17.3288 11.422H12.3973Z" fill="#0AC9BB"/>
<path fill-rule="evenodd" clip-rule="evenodd" d="M17.3288 6.10092L15.2283 7.11009C14.9543 7.20183 14.7717 7.56881 14.863 7.93578C14.863 8.02752 14.9543 8.11927 15.0457 8.21101L17.5114 10.6881C17.8767 11.055 18.1507 10.8716 18.1507 10.4128V6.65138C18.1507 6.37615 17.968 6.10092 17.6941 6.10092C17.6941 6.10092 17.6941 6.10092 17.6027 6.10092C17.6027 6.00917 17.5114 6.10092 17.3288 6.10092Z" fill="#0AC9BB"/>
<path fill-rule="evenodd" clip-rule="evenodd" d="M39.7032 31.8807C39.2466 31.8807 39.1553 32.156 39.4292 32.5229L41.895 35C42.0776 35.2752 42.5342 35.2752 42.8082 35.0917C42.8995 35 42.8995 35 42.9909 34.9083L43.9954 32.7982C44.1781 32.5229 44.0868 32.2477 43.8128 32.0642C43.7215 31.9725 43.6301 31.9725 43.4475 31.9725L39.7032 31.8807Z" fill="#0AC9BB"/>
<path fill-rule="evenodd" clip-rule="evenodd" d="M12.3973 31.8807C11.9406 31.8807 11.5753 32.2477 11.5753 32.7064V37.6606C11.5753 38.1193 11.9406 38.4862 12.3973 38.4862H17.3288C17.7854 38.4862 18.1507 38.1193 18.1507 37.6606V32.7064C18.1507 32.2477 17.7854 31.8807 17.3288 31.8807H12.3973Z" fill="#0AC9BB"/>
<path fill-rule="evenodd" clip-rule="evenodd" d="M6.64384 31.8807C6.36986 31.8807 6.09589 32.0642 6.00457 32.3395C6.00457 32.4312 6.00457 32.6147 6.09589 32.7064L7.10046 34.8165C7.19178 35.0917 7.55708 35.2752 7.92237 35.1835C8.0137 35.1835 8.10502 35.0917 8.19635 35L10.6621 32.5229C11.0274 32.156 10.8447 31.8807 10.3881 31.8807H6.64384Z" fill="#0AC9BB"/>
<path fill-rule="evenodd" clip-rule="evenodd" d="M32.7626 11.422C32.3059 11.422 31.9406 11.789 31.9406 12.2477V17.2018C31.9406 17.6606 32.3059 18.0275 32.7626 18.0275H37.6941C38.1507 18.0275 38.516 17.6606 38.516 17.2018V12.3394C38.516 11.8807 38.1507 11.5138 37.6941 11.5138C37.6941 11.422 32.7626 11.422 32.7626 11.422Z" fill="#0AC9BB"/>
<path fill-rule="evenodd" clip-rule="evenodd" d="M10.7534 18.945L5.27397 24.4495C4.90868 24.8165 4.90868 25.367 5.27397 25.6422L10.7534 31.1468C11.1187 31.5138 11.6667 31.5138 11.9406 31.1468L17.4201 25.6422C17.7854 25.2752 17.7854 24.7248 17.4201 24.4495L11.9406 18.945C11.758 18.7615 11.5753 18.6697 11.3927 18.6697C11.1187 18.6697 10.9361 18.7615 10.7534 18.945Z" fill="#0AC9BB"/>
</svg>
