<svg width="50" height="50" viewBox="0 0 50 50" fill="none" xmlns="http://www.w3.org/2000/svg">
<path fill-rule="evenodd" clip-rule="evenodd" d="M24.7945 6C24.726 6 24.589 6.06881 24.5205 6.13761L20.411 10.2661C20.137 10.5413 20.137 10.9541 20.411 11.1606L24.5205 15.289C24.7945 15.5642 25.2055 15.5642 25.411 15.289L29.5205 11.1606C29.7945 10.8853 29.7945 10.4725 29.5205 10.2661L25.411 6.13761C25.411 6.06881 25.3425 6 25.2055 6H24.7945Z" fill="#0AC9BB"/>
<path fill-rule="evenodd" clip-rule="evenodd" d="M24.589 26.711L20.4795 30.8394C20.2055 31.1147 20.2055 31.5275 20.4795 31.7339L24.589 35.8624C24.6575 35.9312 24.726 35.9312 24.7945 36H25.3425C25.411 36 25.4795 35.9312 25.5479 35.8624L29.6575 31.7339C29.9315 31.4587 29.9315 31.0459 29.6575 30.8394L25.5479 26.711C25.411 26.5734 25.274 26.5046 25.0685 26.5046C24.863 26.5734 24.6575 26.6422 24.589 26.711Z" fill="#0AC9BB"/>
<path fill-rule="evenodd" clip-rule="evenodd" d="M34.7945 16.4587L30.6849 20.5872C30.411 20.8624 30.411 21.2752 30.6849 21.4817L34.7945 25.6101C35.0685 25.8853 35.4795 25.8853 35.6849 25.6101L39.7945 21.4817C40.0685 21.2064 40.0685 20.7936 39.7945 20.5872L35.6849 16.4587C35.5479 16.3211 35.411 16.2523 35.2055 16.2523C35.0685 16.2523 34.9315 16.3211 34.7945 16.4587Z" fill="#0AC9BB"/>
<path fill-rule="evenodd" clip-rule="evenodd" d="M19.3836 31.8716L17.5342 33.7294C17.3288 33.867 17.3288 34.211 17.4658 34.3486C17.5342 34.4174 17.6027 34.4174 17.6712 34.4862L19.2466 35.2431C19.4521 35.3807 19.6575 35.3119 19.7945 35.1055C19.863 35.0367 19.863 34.9679 19.863 34.8303V32.0092C19.863 31.8028 19.7945 31.6651 19.6575 31.6651C19.5205 31.7339 19.4521 31.8028 19.3836 31.8716Z" fill="#0AC9BB"/>
<path fill-rule="evenodd" clip-rule="evenodd" d="M30.137 32.0092V34.7615C30.137 34.9679 30.274 35.1743 30.4795 35.2431C30.5479 35.2431 30.6849 35.2431 30.7534 35.1743L32.3288 34.4174C32.5342 34.3486 32.6712 34.0734 32.5342 33.7982C32.5342 33.7294 32.4658 33.6605 32.3973 33.5917L30.5479 31.7339C30.4795 31.6651 30.411 31.5963 30.274 31.5963C30.2055 31.6651 30.137 31.8028 30.137 32.0092Z" fill="#0AC9BB"/>
<path fill-rule="evenodd" clip-rule="evenodd" d="M30.8219 26.1605C30.4795 26.1605 30.2055 26.4358 30.2055 26.7798V30.4954C30.2055 30.8394 30.4795 31.1147 30.8219 31.1147H34.5205C34.863 31.1147 35.2055 30.8394 35.2055 30.4954V26.7798C35.2055 26.4358 34.9315 26.1605 34.589 26.1605C34.5205 26.1605 30.8219 26.1605 30.8219 26.1605Z" fill="#0AC9BB"/>
<path fill-rule="evenodd" clip-rule="evenodd" d="M37.6712 13.5688L35.8219 15.4266C35.5479 15.7018 35.6849 15.9083 36.0274 15.9083H38.7671C38.9726 15.9083 39.1781 15.7706 39.2466 15.5642C39.2466 15.4954 39.2466 15.4266 39.1781 15.3578L38.4247 13.7752C38.3562 13.6376 38.2192 13.5 38.0137 13.5C37.8767 13.4312 37.7397 13.5 37.6712 13.5688Z" fill="#0AC9BB"/>
<path fill-rule="evenodd" clip-rule="evenodd" d="M30.137 7.23853V9.99083C30.137 10.3349 30.3425 10.4037 30.6164 10.1972L32.4658 8.33945C32.6712 8.20183 32.6712 7.92661 32.5342 7.72018C32.4658 7.65138 32.3973 7.65138 32.3288 7.58257L30.7534 6.82569C30.6849 6.82569 30.6164 6.82569 30.5479 6.82569C30.3425 6.75688 30.2055 6.9633 30.137 7.23853C30.2055 7.23853 30.2055 7.16972 30.137 7.23853Z" fill="#0AC9BB"/>
<path fill-rule="evenodd" clip-rule="evenodd" d="M11.5753 13.7064L10.8219 15.289C10.6849 15.4954 10.7534 15.7018 10.9589 15.8394C11.0274 15.9083 11.0959 15.9083 11.2329 15.9083H13.9726C14.3151 15.9083 14.4521 15.7018 14.1781 15.4266L12.3973 13.5688C12.3288 13.5 12.1918 13.4312 12.0548 13.4312C11.8493 13.4312 11.7123 13.5 11.5753 13.7064Z" fill="#0AC9BB"/>
<path fill-rule="evenodd" clip-rule="evenodd" d="M15.5479 10.8165C15.137 10.8165 14.863 11.1606 14.863 11.5046V15.2202C14.863 15.5642 15.137 15.8394 15.4795 15.8394H19.1781C19.5205 15.8394 19.7945 15.5642 19.7945 15.2202V11.5046C19.863 11.1606 19.589 10.8165 19.2466 10.8165H15.5479Z" fill="#0AC9BB"/>
<path fill-rule="evenodd" clip-rule="evenodd" d="M19.2466 6.82569L17.6712 7.58257C17.4658 7.65138 17.3288 7.92661 17.3973 8.20184C17.3973 8.27064 17.4658 8.33945 17.5342 8.40826L19.3836 10.2661C19.6575 10.5413 19.863 10.4037 19.863 10.0596V7.23853C19.863 7.03211 19.726 6.82569 19.5205 6.82569C19.5205 6.82569 19.5205 6.82569 19.4521 6.82569C19.4521 6.75688 19.3836 6.82569 19.2466 6.82569Z" fill="#0AC9BB"/>
<path fill-rule="evenodd" clip-rule="evenodd" d="M36.0274 26.1605C35.6849 26.1605 35.6164 26.367 35.8219 26.6422L37.6712 28.5C37.8082 28.7064 38.1507 28.7064 38.3562 28.5688C38.4247 28.5 38.4247 28.5 38.4932 28.4312L39.2466 26.8486C39.3836 26.6422 39.3151 26.4358 39.1096 26.2982C39.0411 26.2294 38.9726 26.2294 38.8356 26.2294L36.0274 26.1605Z" fill="#0AC9BB"/>
<path fill-rule="evenodd" clip-rule="evenodd" d="M15.5479 26.1605C15.2055 26.1605 14.9315 26.4358 14.9315 26.7798V30.4954C14.9315 30.8394 15.2055 31.1147 15.5479 31.1147H19.2466C19.589 31.1147 19.863 30.8394 19.863 30.4954V26.7798C19.863 26.4358 19.589 26.1605 19.2466 26.1605H15.5479Z" fill="#0AC9BB"/>
<path fill-rule="evenodd" clip-rule="evenodd" d="M11.2329 26.1605C11.0274 26.1605 10.8219 26.2982 10.7534 26.5046C10.7534 26.5734 10.7534 26.711 10.8219 26.7798L11.5753 28.3624C11.6438 28.5688 11.9178 28.7064 12.1918 28.6376C12.2603 28.6376 12.3288 28.5688 12.3973 28.5L14.2466 26.6422C14.5205 26.367 14.3836 26.1605 14.0411 26.1605H11.2329Z" fill="#0AC9BB"/>
<path fill-rule="evenodd" clip-rule="evenodd" d="M30.8219 10.8165C30.4795 10.8165 30.2055 11.0917 30.2055 11.4358V15.1514C30.2055 15.4954 30.4795 15.7706 30.8219 15.7706H34.5205C34.863 15.7706 35.137 15.4954 35.137 15.1514V11.5046C35.137 11.1606 34.863 10.8853 34.5205 10.8853C34.5205 10.8165 30.8219 10.8165 30.8219 10.8165Z" fill="#0AC9BB"/>
<path fill-rule="evenodd" clip-rule="evenodd" d="M14.3151 16.4587L10.2055 20.5872C9.93151 20.8624 9.93151 21.2752 10.2055 21.4817L14.3151 25.6101C14.589 25.8853 15 25.8853 15.2055 25.6101L19.3151 21.4817C19.589 21.2064 19.589 20.7936 19.3151 20.5872L15.2055 16.4587C15.0685 16.3211 14.9315 16.2523 14.7945 16.2523C14.589 16.2523 14.4521 16.3211 14.3151 16.4587Z" fill="#0AC9BB"/>
<path d="M22.9883 46V38.5H22.0801V46H22.9883Z" fill="#1C1D1F"/>
<path d="M34.248 40.7168V46H33.3398V40.7168H34.248Z" fill="#1C1D1F"/>
<path d="M33.2715 39.3154C33.2715 39.1689 33.3154 39.0452 33.4033 38.9443C33.4945 38.8434 33.6279 38.793 33.8037 38.793C33.9762 38.793 34.1081 38.8434 34.1992 38.9443C34.2936 39.0452 34.3408 39.1689 34.3408 39.3154C34.3408 39.4554 34.2936 39.5758 34.1992 39.6768C34.1081 39.7744 33.9762 39.8232 33.8037 39.8232C33.6279 39.8232 33.4945 39.7744 33.4033 39.6768C33.3154 39.5758 33.2715 39.4554 33.2715 39.3154Z" fill="#1C1D1F"/>
<path d="M38.7744 44.5986C38.7744 44.4684 38.7451 44.348 38.6865 44.2373C38.6312 44.1234 38.5156 44.0208 38.3398 43.9297C38.1673 43.8353 37.9069 43.7539 37.5586 43.6855C37.2656 43.6237 37.0003 43.5505 36.7627 43.4658C36.5283 43.3812 36.3281 43.2786 36.1621 43.1582C35.9993 43.0378 35.874 42.8962 35.7861 42.7334C35.6982 42.5706 35.6543 42.3802 35.6543 42.1621C35.6543 41.9538 35.6999 41.7568 35.791 41.5713C35.8854 41.3857 36.0173 41.2214 36.1865 41.0781C36.359 40.9349 36.5658 40.8226 36.8066 40.7412C37.0475 40.6598 37.3161 40.6191 37.6123 40.6191C38.0355 40.6191 38.3968 40.694 38.6963 40.8438C38.9958 40.9935 39.2253 41.1937 39.3848 41.4443C39.5443 41.6917 39.624 41.9668 39.624 42.2695H38.7207C38.7207 42.123 38.6768 41.9814 38.5889 41.8447C38.5042 41.7048 38.3789 41.5892 38.2129 41.498C38.0501 41.4069 37.8499 41.3613 37.6123 41.3613C37.3617 41.3613 37.1582 41.4004 37.002 41.4785C36.849 41.5534 36.7367 41.6494 36.665 41.7666C36.5967 41.8838 36.5625 42.0075 36.5625 42.1377C36.5625 42.2354 36.5788 42.3232 36.6113 42.4014C36.6471 42.4762 36.709 42.5462 36.7969 42.6113C36.8848 42.6732 37.0085 42.7318 37.168 42.7871C37.3275 42.8424 37.5309 42.8978 37.7783 42.9531C38.2113 43.0508 38.5677 43.168 38.8477 43.3047C39.1276 43.4414 39.3359 43.609 39.4727 43.8076C39.6094 44.0062 39.6777 44.2471 39.6777 44.5303C39.6777 44.7614 39.6289 44.973 39.5312 45.165C39.4368 45.3571 39.2985 45.5231 39.1162 45.6631C38.9372 45.7998 38.7223 45.9072 38.4717 45.9854C38.2243 46.0602 37.946 46.0977 37.6367 46.0977C37.1712 46.0977 36.7773 46.0146 36.4551 45.8486C36.1328 45.6826 35.8887 45.4678 35.7227 45.2041C35.5566 44.9404 35.4736 44.6621 35.4736 44.3691H36.3818C36.3949 44.6165 36.4665 44.8135 36.5967 44.96C36.7269 45.1032 36.8864 45.2057 37.0752 45.2676C37.264 45.3262 37.4512 45.3555 37.6367 45.3555C37.8841 45.3555 38.0908 45.3229 38.2568 45.2578C38.4261 45.1927 38.5547 45.1032 38.6426 44.9893C38.7305 44.8753 38.7744 44.7451 38.7744 44.5986Z" fill="#1C1D1F"/>
<path d="M30.7812 42.244V46H29.8779V40.7168H30.7568L30.7747 41.3232L30.7812 41.3125C30.9147 41.0944 31.084 40.9251 31.2891 40.8047C31.4974 40.681 31.7448 40.6191 32.0312 40.6191C32.0964 40.6191 32.1712 40.6273 32.2559 40.6436C32.3405 40.6566 32.3991 40.6712 32.4316 40.6875L32.4268 41.5273C32.3519 41.5111 32.2803 41.5013 32.2119 41.498C32.1468 41.4915 32.0719 41.4883 31.9873 41.4883C31.779 41.4883 31.5951 41.5208 31.4355 41.5859C31.276 41.651 31.141 41.7422 31.0303 41.8594C30.9277 41.968 30.8447 42.0962 30.7812 42.244Z" fill="#1C1D1F"/>
<path fill-rule="evenodd" clip-rule="evenodd" d="M27.4365 45.5752C27.4852 45.5312 27.5311 45.4866 27.5741 45.4416C27.5793 45.4884 27.5855 45.5362 27.5928 45.585C27.6188 45.7575 27.6546 45.8958 27.7002 46H28.6426V45.9219C28.5807 45.7786 28.5335 45.6077 28.501 45.4092C28.4717 45.2106 28.457 45.0234 28.457 44.8477V42.3867C28.457 41.9928 28.3724 41.6657 28.2031 41.4053C28.0371 41.1416 27.806 40.9447 27.5098 40.8145C27.2168 40.6842 26.8783 40.6191 26.4941 40.6191C26.1751 40.6191 25.8854 40.6647 25.625 40.7559C25.3678 40.8438 25.1465 40.9642 24.9609 41.1172C24.7786 41.2669 24.6387 41.4346 24.541 41.6201C24.4434 41.8057 24.3945 41.9928 24.3945 42.1816H25.2979C25.2979 42.0352 25.3451 41.8984 25.4395 41.7715C25.5371 41.6445 25.6706 41.542 25.8398 41.4639C26.0124 41.3857 26.2126 41.3467 26.4404 41.3467C26.6846 41.3467 26.8896 41.389 27.0557 41.4736C27.2217 41.5583 27.3454 41.6787 27.4268 41.835C27.5114 41.988 27.5537 42.1686 27.5537 42.377V42.7969H26.6602C26.2988 42.7969 25.9717 42.8343 25.6787 42.9092C25.3857 42.984 25.1351 43.0947 24.9268 43.2412C24.7184 43.3844 24.5589 43.5651 24.4482 43.7832C24.3376 43.998 24.2822 44.2471 24.2822 44.5303C24.2822 44.8232 24.3555 45.0885 24.502 45.3262C24.6517 45.5605 24.86 45.7477 25.127 45.8877C25.3971 46.0277 25.7113 46.0977 26.0693 46.0977C26.3558 46.0977 26.613 46.0488 26.8408 45.9512C27.0719 45.8503 27.2705 45.7249 27.4365 45.5752ZM27.5537 44.5146V43.4316H26.8066C26.5495 43.4316 26.32 43.4528 26.1182 43.4951C25.9163 43.5342 25.7471 43.5944 25.6104 43.6758C25.4736 43.7572 25.3695 43.8597 25.2979 43.9834C25.2262 44.1038 25.1904 44.2454 25.1904 44.4082C25.1904 44.5742 25.2279 44.7256 25.3027 44.8623C25.3776 44.999 25.4899 45.1081 25.6396 45.1895C25.7926 45.2676 25.9798 45.3066 26.2012 45.3066C26.4779 45.3066 26.722 45.248 26.9336 45.1309C27.1452 45.0137 27.3128 44.8704 27.4365 44.7012C27.4837 44.6383 27.5227 44.5761 27.5537 44.5146Z" fill="#1C1D1F"/>
<path fill-rule="evenodd" clip-rule="evenodd" d="M16.0645 43.417V43.3047C16.0645 42.9238 16.1198 42.5706 16.2305 42.2451C16.3411 41.9163 16.5007 41.6315 16.709 41.3906C16.9173 41.1465 17.1696 40.9577 17.4658 40.8242C17.762 40.6875 18.0941 40.6191 18.4619 40.6191C18.833 40.6191 19.1667 40.6875 19.4629 40.8242C19.7624 40.9577 20.0163 41.1465 20.2246 41.3906C20.4362 41.6315 20.5973 41.9163 20.708 42.2451C20.8187 42.5706 20.874 42.9238 20.874 43.3047V43.417C20.874 43.7979 20.8187 44.151 20.708 44.4766C20.5973 44.8021 20.4362 45.0869 20.2246 45.3311C20.0163 45.5719 19.764 45.7607 19.4678 45.8975C19.1748 46.0309 18.8428 46.0977 18.4717 46.0977C18.1006 46.0977 17.7669 46.0309 17.4707 45.8975C17.1745 45.7607 16.9206 45.5719 16.709 45.3311C16.5007 45.0869 16.3411 44.8021 16.2305 44.4766C16.1198 44.151 16.0645 43.7979 16.0645 43.417ZM16.9678 43.3047V43.417C16.9678 43.6807 16.9987 43.9297 17.0605 44.1641C17.1224 44.3952 17.2152 44.6003 17.3389 44.7793C17.4658 44.9583 17.6237 45.0999 17.8125 45.2041C18.0013 45.305 18.221 45.3555 18.4717 45.3555C18.7191 45.3555 18.9355 45.305 19.1211 45.2041C19.3099 45.0999 19.4661 44.9583 19.5898 44.7793C19.7135 44.6003 19.8063 44.3952 19.8682 44.1641C19.9333 43.9297 19.9658 43.6807 19.9658 43.417V43.3047C19.9658 43.0443 19.9333 42.7985 19.8682 42.5674C19.8063 42.333 19.7119 42.1263 19.585 41.9473C19.4613 41.765 19.305 41.6217 19.1162 41.5176C18.9307 41.4134 18.7126 41.3613 18.4619 41.3613C18.2145 41.3613 17.9964 41.4134 17.8076 41.5176C17.6221 41.6217 17.4658 41.765 17.3389 41.9473C17.2152 42.1263 17.1224 42.333 17.0605 42.5674C16.9987 42.7985 16.9678 43.0443 16.9678 43.3047Z" fill="#1C1D1F"/>
<path fill-rule="evenodd" clip-rule="evenodd" d="M11.5583 41.297C11.7372 41.0761 11.9534 40.9087 12.207 40.7949C12.4609 40.6777 12.7539 40.6191 13.0859 40.6191C13.418 40.6191 13.7126 40.6842 13.9697 40.8145C14.2269 40.9414 14.4434 41.1237 14.6191 41.3613C14.7949 41.599 14.9268 41.8838 15.0146 42.2158C15.1058 42.5446 15.1514 42.9108 15.1514 43.3145V43.417C15.1514 43.8011 15.1058 44.1576 15.0146 44.4863C14.9235 44.8118 14.79 45.0951 14.6143 45.3359C14.4417 45.5768 14.2285 45.764 13.9746 45.8975C13.7207 46.0309 13.4294 46.0977 13.1006 46.0977C12.7653 46.0977 12.4691 46.0423 12.2119 45.9316C11.9709 45.8279 11.7642 45.6799 11.5918 45.4875V48.0312H10.6836V40.7168H11.5137L11.5583 41.297ZM11.5918 44.6308C11.6029 44.6511 11.6143 44.6713 11.626 44.6914C11.7432 44.89 11.8994 45.0511 12.0947 45.1748C12.29 45.2952 12.5358 45.3555 12.832 45.3555C13.0762 45.3555 13.2861 45.305 13.4619 45.2041C13.641 45.0999 13.7874 44.9583 13.9014 44.7793C14.0186 44.6003 14.1048 44.3952 14.1602 44.1641C14.2155 43.9297 14.2432 43.6807 14.2432 43.417V43.3145C14.2432 43.0508 14.2155 42.8034 14.1602 42.5723C14.1048 42.3379 14.0186 42.1328 13.9014 41.957C13.7874 41.778 13.641 41.638 13.4619 41.5371C13.2829 41.4329 13.0697 41.3809 12.8223 41.3809C12.5944 41.3809 12.3958 41.4199 12.2266 41.498C12.0605 41.5762 11.9189 41.682 11.8018 41.8154C11.722 41.9041 11.652 42.0018 11.5918 42.1086V44.6308Z" fill="#1C1D1F"/>
</svg>
