<svg width="50" height="50" viewBox="0 0 50 50" fill="none" xmlns="http://www.w3.org/2000/svg">
<path d="M41.282 7.19012C41.859 6.80621 42.423 6.4095 42.9869 6C42.9738 9.31442 42.9607 12.6288 43 15.9433C42.423 15.9305 41.8459 15.9305 41.2689 15.9433C41.3082 13.0255 41.282 10.1078 41.282 7.19012Z" fill="#FE7826"/>
<path d="M37.4917 9.89032C38.0294 9.45522 38.6327 9.1097 39.1704 8.6746C39.1704 11.0932 39.1573 13.5247 39.1835 15.9433C38.6196 15.9305 38.0425 15.9305 37.4655 15.9433C37.5048 13.9214 37.4655 11.9122 37.4917 9.89032Z" fill="#FE7826"/>
<path d="M33.7934 12.4498C34.3442 12.0914 34.8688 11.7075 35.4065 11.3364C35.4065 12.8721 35.3802 14.4077 35.4065 15.9561C34.8688 15.9305 34.318 15.9305 33.7803 15.9433C33.8196 14.7788 33.7934 13.6143 33.7934 12.4498Z" fill="#FE7826"/>
<path d="M28.8753 12.9745C29.7147 12.6418 30.5409 12.2706 31.3802 11.9379C31.5376 12.1555 31.7474 12.3218 31.8524 12.565C31.8655 12.9617 31.8392 13.3712 31.8392 13.7679C30.8425 14.5229 29.7671 15.2012 28.8097 16.0074C29.6753 16.0202 30.5409 16.0074 31.4065 16.0202C31.1704 16.3145 30.9737 16.6344 30.7114 16.9032C29.9638 16.9799 29.2163 17.0567 28.4556 17.0951C28.3114 17.6198 28.0753 18.1189 27.9835 18.6563C27.7606 18.6307 27.5114 18.618 27.3016 18.5156C25.8458 17.9525 24.3376 17.5046 22.8819 16.9288C23.236 16.5448 23.5376 16.1097 23.9048 15.7258C24.2327 16.2377 24.8753 16.3401 25.4393 16.4681C25.9638 15.7386 26.4229 14.958 26.895 14.1902C26.2917 14.6893 25.8065 15.3035 25.2294 15.8282C24.4688 15.7386 24.0622 15.0988 23.6557 14.5613C23.7606 14.1902 23.9311 13.8447 24.1278 13.4992C25.2557 12.9105 26.5016 12.437 27.7868 12.3218C28.1671 12.5138 28.4688 12.8593 28.8753 12.9745Z" fill="#010001"/>
<path d="M10.1475 17.2231C9.9377 15.8154 11 14.5741 12.2065 13.9471C11.4984 14.7661 10.9344 15.8666 11.2754 16.9672C11.7082 18.3364 13.059 19.1427 14.2918 19.7313C14.6459 19.9489 15.0787 19.9873 15.4721 19.8721C17.5049 19.3474 19.5246 18.8227 21.5442 18.3108C22.0032 18.2469 22.0951 17.7094 22.4623 17.543C22.7377 17.543 23.0131 17.5558 23.2623 17.6966C24.7311 18.2981 26.2393 18.7843 27.7213 19.3602C27.3541 20.4096 27.0393 21.4589 26.6852 22.5083C26.6459 22.713 26.436 22.8026 26.2786 22.905C25.2032 23.5704 24.1409 24.2359 23.0787 24.9013C22.8295 25.0293 22.7508 25.298 22.6459 25.5156C21.8983 27.1536 21.1508 28.7916 20.4164 30.4424C20.6524 30.532 20.9016 30.6088 21.1114 30.7495C21.2426 30.9415 21.1508 31.1974 21.1901 31.4022C20.4951 31.415 19.7869 31.415 19.0918 31.4022C19.5508 29.4442 19.9836 27.4607 20.4557 25.49C20.6524 24.8501 20.377 24.1847 20.4032 23.532C20.2852 23.0329 20.377 22.4955 20.2196 22.022C20.1803 22.0348 20.1147 22.0732 20.0754 22.0988C19.9311 22.6874 19.8131 23.3017 19.6557 23.8903C18.5016 23.596 17.3869 23.1353 16.2197 22.8922C15.2229 24.1079 14.2393 25.3492 13.2295 26.5521C12.1803 27.2048 10.9344 27.5247 9.85901 28.1261C9.41311 28.7916 9.01967 29.4826 8.63934 30.1865C8.88852 30.2248 9.12459 30.3016 9.36065 30.3528C9.26885 30.6088 9.15082 30.8647 9.03278 31.1206H7C7.81311 29.7258 8.36393 28.1901 9.1377 26.7697C9.70163 26.2194 10.4229 25.8227 10.9869 25.2596C11.2885 24.1975 11.4459 23.1097 11.7606 22.0476C12.0229 21.6509 12.4033 21.3309 12.7049 20.9726L12.6918 20.8574C11.5639 19.8849 10.3705 18.7459 10.1475 17.2231Z" fill="#010001"/>
<path d="M16.4557 23.5446C17.1376 23.7237 17.7934 23.9413 18.4622 24.1588C18.0426 25.0162 17.7016 25.912 17.2294 26.7438C16.5737 27.1405 15.8524 27.4349 15.1704 27.7932C14.8688 27.9595 14.4754 28.0491 14.3049 28.369C14.0032 28.8809 13.7147 29.4056 13.3999 29.9303C13.6622 29.9943 13.9245 30.071 14.1868 30.1478C14.0557 30.3782 14.0032 30.6725 13.7934 30.8389C13.2295 30.8644 12.6655 30.8389 12.1016 30.8516C12.5081 29.6871 12.9672 28.5354 13.4131 27.3837C13.8852 26.8334 14.5278 26.4495 15.0262 25.9248C15.0655 25.6305 15.0393 25.2978 15.236 25.0418C15.6294 24.5299 16.0622 24.0437 16.4557 23.5446Z" fill="#010001"/>
<path d="M23.59 25.2852C24.3769 24.8117 25.1376 24.287 25.9507 23.8519C25.1114 25.8867 24.1802 27.8958 23.3146 29.9177C23.5638 30.0329 23.9179 30.0585 24.0753 30.3016C24.0884 30.4808 24.0884 30.6599 24.0753 30.8519H22.2392C22.5933 29.2139 22.9868 27.5887 23.3278 25.9506C23.4064 25.7331 23.3671 25.426 23.59 25.2852Z" fill="#010001"/>
<path d="M22.4623 17.543L22.8805 16.9299L27.9835 18.6563L27.7213 19.3602L22.4623 17.543Z" fill="#FE7826"/>
<path d="M13.146 40.085V40.4893C13.146 40.9697 13.0859 41.4004 12.9658 41.7812C12.8457 42.1621 12.6729 42.4858 12.4473 42.7524C12.2217 43.019 11.9507 43.2227 11.6343 43.3633C11.3208 43.5039 10.9692 43.5742 10.5796 43.5742C10.2017 43.5742 9.85449 43.5039 9.53809 43.3633C9.22461 43.2227 8.95215 43.019 8.7207 42.7524C8.49219 42.4858 8.31494 42.1621 8.18896 41.7812C8.06299 41.4004 8 40.9697 8 40.4893V40.085C8 39.6045 8.06152 39.1753 8.18457 38.7974C8.31055 38.4165 8.48779 38.0928 8.71631 37.8262C8.94482 37.5566 9.21582 37.3516 9.5293 37.2109C9.8457 37.0703 10.1929 37 10.5708 37C10.9604 37 11.312 37.0703 11.6255 37.2109C11.9419 37.3516 12.2129 37.5566 12.4385 37.8262C12.667 38.0928 12.8413 38.4165 12.9614 38.7974C13.0845 39.1753 13.146 39.6045 13.146 40.085ZM12.3066 40.4893V40.0762C12.3066 39.6953 12.2671 39.3584 12.188 39.0654C12.1118 38.7725 11.999 38.5264 11.8496 38.3271C11.7002 38.1279 11.5171 37.9771 11.3003 37.8745C11.0864 37.772 10.8433 37.7207 10.5708 37.7207C10.3071 37.7207 10.0684 37.772 9.85449 37.8745C9.64355 37.9771 9.46191 38.1279 9.30957 38.3271C9.16016 38.5264 9.04443 38.7725 8.9624 39.0654C8.88037 39.3584 8.83936 39.6953 8.83936 40.0762V40.4893C8.83936 40.873 8.88037 41.2129 8.9624 41.5088C9.04443 41.8018 9.16162 42.0493 9.31396 42.2515C9.46924 42.4507 9.65234 42.6016 9.86328 42.7041C10.0771 42.8066 10.3159 42.8579 10.5796 42.8579C10.855 42.8579 11.0996 42.8066 11.3135 42.7041C11.5273 42.6016 11.7075 42.4507 11.854 42.2515C12.0034 42.0493 12.1162 41.8018 12.1924 41.5088C12.2686 41.2129 12.3066 40.873 12.3066 40.4893Z" fill="#1C1D1F"/>
<path d="M15.106 39.7466V43.4863H14.293V38.7314H15.062L15.106 39.7466ZM14.9126 40.9287L14.5742 40.9155C14.5771 40.5903 14.6255 40.29 14.7192 40.0146C14.813 39.7363 14.9448 39.4946 15.1147 39.2896C15.2847 39.0845 15.4868 38.9263 15.7212 38.8149C15.9585 38.7007 16.2207 38.6436 16.5078 38.6436C16.7422 38.6436 16.9531 38.6758 17.1406 38.7402C17.3281 38.8018 17.4878 38.9014 17.6196 39.0391C17.7544 39.1768 17.8569 39.3555 17.9272 39.5752C17.9976 39.792 18.0327 40.0571 18.0327 40.3706V43.4863H17.2153V40.3618C17.2153 40.1128 17.1787 39.9136 17.1055 39.7642C17.0322 39.6118 16.9253 39.502 16.7847 39.4346C16.644 39.3643 16.4712 39.3291 16.2661 39.3291C16.064 39.3291 15.8794 39.3716 15.7124 39.4565C15.5483 39.5415 15.4062 39.6587 15.2861 39.8081C15.1689 39.9575 15.0767 40.1289 15.0093 40.3223C14.9448 40.5127 14.9126 40.7148 14.9126 40.9287Z" fill="#1C1D1F"/>
<path d="M23.9829 40.9771H22.2734V40.2871H23.9829C24.314 40.2871 24.582 40.2344 24.7871 40.1289C24.9922 40.0234 25.1416 39.877 25.2354 39.6895C25.332 39.502 25.3804 39.2881 25.3804 39.0479C25.3804 38.8281 25.332 38.6216 25.2354 38.4282C25.1416 38.2349 24.9922 38.0796 24.7871 37.9624C24.582 37.8423 24.314 37.7822 23.9829 37.7822H22.4712V43.4863H21.623V37.0879H23.9829C24.4663 37.0879 24.875 37.1714 25.209 37.3384C25.543 37.5054 25.7964 37.7368 25.9692 38.0327C26.1421 38.3257 26.2285 38.6611 26.2285 39.0391C26.2285 39.4492 26.1421 39.7993 25.9692 40.0894C25.7964 40.3794 25.543 40.6006 25.209 40.7529C24.875 40.9023 24.4663 40.9771 23.9829 40.9771Z" fill="#1C1D1F"/>
<path d="M27.9907 39.4785V43.4863H27.1777V38.7314H27.9688L27.9907 39.4785ZM29.4761 38.7051L29.4717 39.4609C29.4043 39.4463 29.3398 39.4375 29.2783 39.4346C29.2197 39.4287 29.1523 39.4258 29.0762 39.4258C28.8887 39.4258 28.7231 39.4551 28.5796 39.5137C28.436 39.5723 28.3145 39.6543 28.2148 39.7598C28.1152 39.8652 28.0361 39.9912 27.9775 40.1377C27.9219 40.2812 27.8853 40.4395 27.8677 40.6123L27.6392 40.7441C27.6392 40.457 27.667 40.1875 27.7227 39.9355C27.7812 39.6836 27.8706 39.4609 27.9907 39.2676C28.1108 39.0713 28.2632 38.9189 28.4478 38.8105C28.6353 38.6992 28.8579 38.6436 29.1157 38.6436C29.1743 38.6436 29.2417 38.6509 29.3179 38.6655C29.394 38.6772 29.4468 38.6904 29.4761 38.7051Z" fill="#1C1D1F"/>
<path d="M32.1128 43.5742C31.7817 43.5742 31.4814 43.5186 31.2119 43.4072C30.9453 43.293 30.7153 43.1333 30.522 42.9282C30.3315 42.7231 30.1851 42.48 30.0825 42.1987C29.98 41.9175 29.9287 41.6099 29.9287 41.2759V41.0913C29.9287 40.7046 29.9858 40.3604 30.1001 40.0586C30.2144 39.7539 30.3696 39.4961 30.5659 39.2852C30.7622 39.0742 30.9849 38.9146 31.2339 38.8062C31.4829 38.6978 31.7407 38.6436 32.0073 38.6436C32.3472 38.6436 32.6401 38.7021 32.8862 38.8193C33.1353 38.9365 33.3389 39.1006 33.4971 39.3115C33.6553 39.5195 33.7725 39.7656 33.8486 40.0498C33.9248 40.3311 33.9629 40.6387 33.9629 40.9727V41.3374H30.4121V40.6738H33.1499V40.6123C33.1382 40.4014 33.0942 40.1963 33.0181 39.9971C32.9448 39.7979 32.8276 39.6338 32.6665 39.5049C32.5054 39.376 32.2856 39.3115 32.0073 39.3115C31.8228 39.3115 31.6528 39.3511 31.4976 39.4302C31.3423 39.5063 31.209 39.6206 31.0977 39.7729C30.9863 39.9253 30.8999 40.1113 30.8384 40.3311C30.7769 40.5508 30.7461 40.8042 30.7461 41.0913V41.2759C30.7461 41.5015 30.7769 41.7139 30.8384 41.9131C30.9028 42.1094 30.9951 42.2822 31.1152 42.4316C31.2383 42.5811 31.3862 42.6982 31.5591 42.7832C31.7349 42.8682 31.9341 42.9106 32.1567 42.9106C32.4438 42.9106 32.687 42.8521 32.8862 42.7349C33.0854 42.6177 33.2598 42.4609 33.4092 42.2646L33.9014 42.6558C33.7988 42.811 33.6685 42.959 33.5103 43.0996C33.3521 43.2402 33.1572 43.3545 32.9258 43.4424C32.6973 43.5303 32.4263 43.5742 32.1128 43.5742Z" fill="#1C1D1F"/>
<path d="M35.7207 39.6763V43.4863H34.9033V38.7314H35.6768L35.7207 39.6763ZM35.5537 40.9287L35.1758 40.9155C35.1787 40.5903 35.2212 40.29 35.3032 40.0146C35.3853 39.7363 35.5068 39.4946 35.668 39.2896C35.8291 39.0845 36.0298 38.9263 36.27 38.8149C36.5103 38.7007 36.7886 38.6436 37.105 38.6436C37.3276 38.6436 37.5327 38.6758 37.7202 38.7402C37.9077 38.8018 38.0703 38.8999 38.208 39.0347C38.3457 39.1694 38.4526 39.3423 38.5288 39.5532C38.605 39.7642 38.6431 40.019 38.6431 40.3179V43.4863H37.8301V40.3574C37.8301 40.1084 37.7876 39.9092 37.7026 39.7598C37.6206 39.6104 37.5034 39.502 37.3511 39.4346C37.1987 39.3643 37.02 39.3291 36.8149 39.3291C36.5747 39.3291 36.374 39.3716 36.2129 39.4565C36.0518 39.5415 35.9229 39.6587 35.8262 39.8081C35.7295 39.9575 35.6592 40.1289 35.6152 40.3223C35.5742 40.5127 35.5537 40.7148 35.5537 40.9287ZM38.6343 40.4805L38.0894 40.6475C38.0923 40.3867 38.1348 40.1362 38.2168 39.896C38.3018 39.6558 38.4233 39.4419 38.5815 39.2544C38.7427 39.0669 38.9404 38.9189 39.1748 38.8105C39.4092 38.6992 39.6772 38.6436 39.979 38.6436C40.2339 38.6436 40.4595 38.6772 40.6558 38.7446C40.855 38.812 41.022 38.916 41.1567 39.0566C41.2944 39.1943 41.3984 39.3716 41.4688 39.5884C41.5391 39.8052 41.5742 40.063 41.5742 40.3618V43.4863H40.7568V40.353C40.7568 40.0864 40.7144 39.8799 40.6294 39.7334C40.5474 39.584 40.4302 39.48 40.2778 39.4214C40.1284 39.3599 39.9497 39.3291 39.7417 39.3291C39.563 39.3291 39.4048 39.3599 39.2671 39.4214C39.1294 39.4829 39.0137 39.5679 38.9199 39.6763C38.8262 39.7817 38.7544 39.9033 38.7046 40.041C38.6577 40.1787 38.6343 40.3252 38.6343 40.4805Z" fill="#1C1D1F"/>
</svg>
