<svg width="50" height="50" viewBox="0 0 50 50" fill="none" xmlns="http://www.w3.org/2000/svg">
<path d="M43.1389 12.3213C43.764 11.8951 44.3749 11.4546 44.9858 11C44.9716 14.6798 44.9574 18.3595 45.0001 22.0393C44.3749 22.0251 43.7498 22.0251 43.1246 22.0393C43.1673 18.8 43.1389 15.5606 43.1389 12.3213Z" fill="#FE7826"/>
<path d="M39.0327 15.3191C39.6152 14.8361 40.2688 14.4525 40.8513 13.9694C40.8513 16.6547 40.8371 19.3541 40.8655 22.0393C40.2546 22.0251 39.6294 22.0251 39.0043 22.0393C39.0469 19.7945 39.0043 17.5639 39.0327 15.3191Z" fill="#FE7826"/>
<path d="M35.0262 18.1607C35.6229 17.7629 36.1912 17.3367 36.7737 16.9246C36.7737 18.6296 36.7453 20.3345 36.7737 22.0536C36.1912 22.0252 35.5945 22.0252 35.012 22.0394C35.0546 20.7465 35.0262 19.4536 35.0262 18.1607Z" fill="#FE7826"/>
<path d="M29.6983 18.7433C30.6076 18.3739 31.5027 17.9619 32.4119 17.5925C32.5824 17.834 32.8098 18.0187 32.9234 18.2886C32.9376 18.7291 32.9092 19.1837 32.9092 19.6241C31.8294 20.4624 30.6644 21.2154 29.6273 22.1105C30.565 22.1247 31.5027 22.1105 32.4404 22.1247C32.1846 22.4515 31.9715 22.8066 31.6874 23.105C30.8775 23.1902 30.0677 23.2755 29.2436 23.3181C29.0874 23.9006 28.8316 24.4547 28.7322 25.0514C28.4906 25.023 28.2207 25.0088 27.9934 24.8952C26.4163 24.27 24.7824 23.7728 23.2054 23.1334C23.589 22.7072 23.9158 22.2241 24.3136 21.7979C24.6688 22.3662 25.365 22.4799 25.9759 22.6219C26.5442 21.8121 27.0415 20.9455 27.5529 20.093C26.8994 20.6471 26.3737 21.3291 25.7486 21.9116C24.9245 21.8121 24.4841 21.1017 24.0437 20.505C24.1573 20.093 24.342 19.7094 24.5551 19.3258C25.777 18.6722 27.1267 18.1466 28.5191 18.0187C28.9311 18.2318 29.2579 18.6154 29.6983 18.7433Z" fill="#010001"/>
<path d="M9.40983 23.4602C9.18251 21.8974 10.3333 20.5192 11.6404 19.8231C10.8732 20.7324 10.2623 21.9542 10.6317 23.1761C11.1005 24.6963 12.5639 25.5914 13.8994 26.2449C14.2831 26.4864 14.7519 26.5291 15.1781 26.4012C17.3803 25.8187 19.5683 25.2362 21.7563 24.6679C22.2535 24.5968 22.353 24.0001 22.7508 23.8154C23.0492 23.8154 23.3475 23.8296 23.6175 23.9859C25.2087 24.6537 26.8426 25.1935 28.4481 25.8329C28.0503 26.9979 27.7093 28.1629 27.3257 29.328C27.283 29.5553 27.0557 29.6547 26.8852 29.7684C25.7202 30.5072 24.5694 31.246 23.4186 31.9848C23.1486 32.1268 23.0634 32.4252 22.9497 32.6667C22.1399 34.4853 21.33 36.3039 20.5344 38.1367C20.7902 38.2361 21.0601 38.3214 21.2874 38.4776C21.4295 38.6908 21.33 38.9749 21.3727 39.2022C20.6197 39.2164 19.8524 39.2164 19.0994 39.2022C19.5967 37.0285 20.0656 34.8263 20.577 32.6383C20.7902 31.9279 20.4918 31.1891 20.5202 30.4646C20.3923 29.9105 20.4918 29.3137 20.3213 28.7881C20.2787 28.8023 20.2076 28.8449 20.165 28.8733C20.0087 29.5269 19.8809 30.2088 19.7104 30.8624C18.4601 30.5356 17.2524 30.0241 15.988 29.7542C14.9082 31.1039 13.8426 32.482 12.7486 33.8176C11.612 34.5421 10.2623 34.8973 9.09727 35.5651C8.61421 36.3039 8.18798 37.0711 7.77595 37.8525C8.0459 37.8951 8.30164 37.9804 8.55737 38.0372C8.45792 38.3214 8.33005 38.6055 8.20218 38.8897H6C6.88087 37.341 7.47759 35.6361 8.31585 34.0591C8.92677 33.4482 9.70819 33.0077 10.3191 32.3826C10.6459 31.2034 10.8164 29.9957 11.1574 28.8165C11.4415 28.376 11.8535 28.0209 12.1803 27.623L12.1661 27.4952C10.9443 26.4154 9.65136 25.1509 9.40983 23.4602Z" fill="#010001"/>
<path d="M16.2437 30.4785C16.9825 30.6774 17.6928 30.9189 18.4174 31.1605C17.9628 32.1124 17.5934 33.1069 17.0819 34.0304C16.3715 34.4708 15.5901 34.7976 14.8513 35.1954C14.5245 35.3801 14.0983 35.4796 13.9136 35.8348C13.5868 36.4031 13.2743 36.9856 12.9333 37.5681C13.2174 37.6391 13.5016 37.7244 13.7857 37.8096C13.6437 38.0653 13.5868 38.3921 13.3595 38.5768C12.7486 38.6052 12.1377 38.5768 11.5267 38.591C11.9672 37.2981 12.4644 36.0195 12.9475 34.7408C13.459 34.1298 14.1551 33.7036 14.695 33.1211C14.7377 32.7943 14.7092 32.4249 14.9224 32.1408C15.3486 31.5725 15.8174 31.0326 16.2437 30.4785Z" fill="#010001"/>
<path d="M23.9726 32.411C24.825 31.8853 25.6491 31.3028 26.53 30.8197C25.6207 33.0787 24.6119 35.3093 23.6742 37.5541C23.9442 37.682 24.3278 37.7104 24.4983 37.9804C24.5125 38.1793 24.5125 38.3782 24.4983 38.5913H22.5092C22.8928 36.7727 23.319 34.9684 23.6884 33.1498C23.7737 32.9083 23.731 32.5673 23.9726 32.411Z" fill="#010001"/>
<path d="M22.7508 23.8154L23.2039 23.1347L28.7322 25.0514L28.4481 25.8329L22.7508 23.8154Z" fill="#FE7826"/>
</svg>
