<svg width="50" height="50" viewBox="0 0 50 50" fill="none" xmlns="http://www.w3.org/2000/svg">
<path d="M25.0008 7C15.0594 7 7.00058 15.0481 7 24.9752C7 29.7428 8.89676 34.3157 12.2726 37.6869C15.6482 41.0581 20.2263 42.952 25.0008 42.952C29.7745 42.9514 34.3526 41.0575 37.7282 37.6861C41.104 34.3149 43 29.7428 43 24.9752C42.9925 20.5118 41.3219 16.2108 38.3141 12.9093L26.568 25.9859C26.2092 26.3469 25.7349 26.526 25.2622 26.526C24.7894 26.526 24.3146 26.3469 23.9557 25.9859C23.2335 25.2652 23.2335 24.0965 23.9557 23.375L37.0487 11.6477C33.7464 8.66373 29.4538 7.00748 25.0008 7ZM21.9825 13.5805C22.4985 14.7335 23.6544 15.5365 25.0015 15.5365C26.3461 15.5365 27.503 14.7335 28.0191 13.5805C29.0538 13.8548 30.03 14.266 30.934 14.7913C30.8172 15.0916 30.7528 15.4063 30.7281 15.7201L26.7815 19.1513C26.2159 18.9768 25.6195 18.8853 25.0015 18.8853C21.6386 18.8853 18.9026 21.6159 18.9026 24.9775C18.9026 28.3337 21.6386 31.0667 25.0015 31.0667C28.363 31.0667 31.0997 28.3337 31.0997 24.9775C31.0997 24.3287 30.9956 23.7062 30.809 23.121L34.1742 19.2554C34.5233 19.2412 34.8672 19.1753 35.1991 19.0523C35.725 19.9522 36.137 20.9284 36.4105 21.9592C35.2574 22.4776 34.4537 23.632 34.4537 24.9775C34.4537 26.3208 35.2574 27.4744 36.4105 27.9899C36.137 29.0236 35.725 29.9984 35.1991 30.8989C34.0191 30.4537 32.6354 30.7004 31.6847 31.6487C30.7334 32.6002 30.4854 33.9793 30.934 35.1601C30.03 35.6852 29.0538 36.0972 28.0191 36.3699C27.503 35.2184 26.3461 34.4147 25.0015 34.4147C23.6544 34.4147 22.4985 35.2184 21.9825 36.3699C20.947 36.0972 19.9708 35.6852 19.0696 35.1601C19.5176 33.9793 19.2681 32.6002 18.3159 31.6487C17.3691 30.7004 15.9838 30.4537 14.8039 30.8989C14.2758 29.9984 13.8667 29.0236 13.5903 27.9899C14.7439 27.4744 15.5486 26.3208 15.5486 24.9775C15.5486 23.632 14.7439 22.4776 13.5903 21.9621C13.8667 20.9289 14.2758 19.9522 14.8039 19.0523C15.9838 19.4975 17.3691 19.2508 18.3159 18.2988C19.2681 17.3502 19.5176 15.9696 19.0696 14.7913C19.9708 14.266 20.947 13.8548 21.9825 13.5805Z" fill="#13BEB7"/>
</svg>
