<svg width="50" height="50" viewBox="0 0 50 50" fill="none" xmlns="http://www.w3.org/2000/svg">
<path d="M35.5483 13.8059C35.5483 12.9377 36.3648 12.2241 37.2357 12.4C38.1057 12.5756 38.5932 13.5495 38.2648 14.3544C38.0511 14.8783 37.5188 15.2393 36.9603 15.2393C36.1822 15.2393 35.5483 14.5775 35.5483 13.8059ZM16.4859 24.9819C16.4859 25.85 17.3024 26.5636 18.1734 26.3878C18.7212 26.2771 19.1739 25.8176 19.2828 25.2615C19.4517 24.3994 18.7752 23.5484 17.8979 23.5484C17.1199 23.5432 16.4765 24.218 16.4765 24.9819H16.4859ZM11.412 22.6358C12.3004 22.6358 12.9639 21.7749 12.7969 20.9227C12.688 20.3666 12.2353 19.9071 11.6875 19.7965C10.8165 19.6206 10 20.3343 10 21.2024C9.99998 21.9705 10.6282 22.6306 11.4026 22.6358H11.412ZM11.4614 27.218C10.5731 27.218 9.90958 28.0789 10.0766 28.9311C10.1855 29.4872 10.6382 29.9467 11.186 30.0573C12.0569 30.2332 12.8735 29.5196 12.8735 28.6515C12.8735 27.8798 12.2395 27.218 11.4614 27.218ZM30.4132 11.5912C31.3015 11.5912 31.9651 10.7303 31.7981 9.87811C31.629 9.01499 30.6806 8.49379 29.8728 8.83344C29.3568 9.05042 29.0012 9.59075 29.0012 10.1578C29.0062 10.9258 29.6388 11.5817 30.4132 11.5816V11.5912ZM24.2897 7.86665C24.8482 7.86665 25.3805 7.50562 25.5942 6.98177C25.9264 6.16775 25.4247 5.20088 24.5652 5.02733C23.6942 4.85145 22.8777 5.56511 22.8777 6.43322C22.8777 7.20487 23.5116 7.86665 24.2897 7.86665ZM17.9779 8.53559C17.4194 8.53559 16.8872 8.89662 16.6734 9.42047C16.345 10.2254 16.8326 11.1993 17.7025 11.3749C18.2503 11.4855 18.8417 11.2369 19.152 10.7654C19.7489 9.8586 19.1043 8.53559 17.9779 8.53559ZM17.6226 16.0348C16.7342 16.0348 16.0707 16.8958 16.2377 17.7479C16.3467 18.304 16.7993 18.7635 17.3471 18.8742C18.2181 19.05 19.0346 18.3364 19.0346 17.4683C19.0346 16.6966 18.4006 16.0348 17.6226 16.0348ZM24.2379 15.2393C25.1263 15.2393 25.7898 14.3784 25.6228 13.5262C25.5139 12.9701 25.0612 12.5106 24.5134 12.4C23.6424 12.2241 22.8259 12.9377 22.8259 13.8059C22.8259 14.5775 23.4599 15.2393 24.2379 15.2393ZM36.9603 7.9861C37.5188 7.9861 38.0511 7.62507 38.2648 7.10122C38.5932 6.29632 38.1057 5.32244 37.2357 5.14678C36.3648 4.9709 35.5483 5.68457 35.5483 6.55267C35.5483 7.32432 36.1822 7.9861 36.9603 7.9861ZM36.9603 34.7555C36.4017 34.7555 35.8695 35.1165 35.6557 35.6404C35.3273 36.4453 35.8149 37.4192 36.6848 37.5948C37.5446 37.7684 38.3723 37.0676 38.3723 36.1889C38.3723 35.4276 37.7332 34.7542 36.9579 34.7555H36.9603ZM30.4155 38.4131C29.857 38.4131 29.3247 38.7742 29.111 39.298C28.7826 40.1029 29.2702 41.0768 30.1401 41.2525C30.9998 41.4261 31.8276 40.7252 31.8276 39.8466C31.8276 39.0852 31.1885 38.4118 30.4132 38.4131H30.4155ZM24.2968 42.1329C23.7382 42.1329 23.206 42.4939 22.9922 43.0178C22.6638 43.8227 23.1514 44.7966 24.0213 44.9722C24.881 45.1458 25.7088 44.445 25.7088 43.5663C25.7088 42.8033 25.0668 42.129 24.2897 42.1329H24.2968ZM17.9779 38.5971C17.4194 38.5971 16.8872 38.9581 16.6734 39.482C16.345 40.2869 16.8326 41.2608 17.7025 41.4364C18.2503 41.5471 18.8417 41.2984 19.152 40.8269C19.7489 39.9201 19.1043 38.5971 17.9779 38.5971ZM17.6179 33.9623C18.5062 33.9623 19.1697 33.1014 19.0028 32.2493C18.8938 31.6931 18.4412 31.2336 17.8934 31.123C17.0224 30.9471 16.2059 31.6608 16.2059 32.5289C16.2058 33.2986 16.8548 33.9649 17.6226 33.9623H17.6179ZM24.2379 37.62C24.7965 37.62 25.3287 37.259 25.5425 36.7351C25.8709 35.9302 25.3833 34.9563 24.5134 34.7807C23.9656 34.67 23.3742 34.9187 23.0639 35.3902C22.467 36.297 23.1116 37.62 24.2379 37.62ZM36.9603 42.0111C36.4017 42.0111 35.8695 42.3721 35.6557 42.896C35.3273 43.7009 35.8149 44.6747 36.6848 44.8504C37.5446 45.024 38.3723 44.3231 38.3723 43.4445C38.3723 42.6729 37.7383 42.0111 36.9603 42.0111ZM30.6062 22.4542C29.0354 22.4542 27.866 23.9706 28.162 25.4787C28.3552 26.4631 29.1343 27.2672 30.1214 27.4659C31.6615 27.776 33.0998 26.5182 33.0984 24.9819C33.0959 23.6213 31.978 22.4556 30.6062 22.4542ZM38.4335 19.7307C37.9798 19.0448 37.4394 18.4223 36.8261 17.8792C34.6675 19.5605 33.0574 18.5946 33.2843 15.9082C32.5029 15.6777 31.6951 15.5524 30.8815 15.5355C30.3069 18.1835 28.4713 18.5868 26.9208 16.3383C26.177 16.6727 25.4792 17.1039 24.8451 17.6212C26.0653 19.9935 24.9576 21.5274 22.3293 20.8106C21.966 21.554 21.7009 22.3428 21.541 23.1566C24.0257 24.1964 24.0795 26.106 21.6351 27.2562C21.8282 28.0581 22.1241 28.8308 22.5153 29.5545C25.1161 28.717 26.2985 30.1919 25.184 32.634C25.8364 33.1232 26.5483 33.5247 27.302 33.8285C28.7493 31.5171 30.6006 31.8243 31.2957 34.4473C32.1068 34.3925 32.9095 34.2286 33.6797 33.9647C33.3307 31.2963 34.9017 30.2468 37.1321 31.8337C37.7177 31.261 38.2279 30.6137 38.65 29.9081C36.6789 28.0785 37.2433 26.267 39.9467 26.0235C40.0338 25.2026 40.0141 24.3736 39.8879 23.558C37.1895 23.4257 36.5387 21.6357 38.4335 19.7307ZM31.7287 30.2951C28.4811 30.9524 25.3697 28.3174 25.3674 25.0015C25.3652 21.7227 28.4344 19.0384 31.7215 19.6988C34.5808 20.2733 36.4657 23.1871 35.9088 26.0467C35.501 28.1411 33.8357 29.8697 31.7287 30.2951Z" fill="url(#paint0_linear_9176_15322)"/>
<defs>
<linearGradient id="paint0_linear_9176_15322" x1="10" y1="24.9585" x2="40" y2="25.0381" gradientUnits="userSpaceOnUse">
<stop offset="0.235" stop-color="#00A6ED"/>
<stop offset="1" stop-color="#06496D"/>
</linearGradient>
</defs>
</svg>
