<svg width="50" height="50" viewBox="0 0 50 50" fill="none" xmlns="http://www.w3.org/2000/svg">
<path d="M39.5 28.2473C37.6829 28.7742 35.2724 28.9624 33.4923 29L25.0742 11.7634H24.5921L20.4015 20.3817L16.211 29C14.4309 28.9624 12.3171 28.7742 10.5 28.2473L21.1432 8H28.7455L39.5 28.2473Z" fill="#313271"/>
<path d="M28.4111 23.0925C28.4111 25.0871 26.8165 26.6678 24.851 26.6678C22.8855 26.6678 21.328 25.0495 21.328 23.0925C21.328 21.0979 22.9226 19.5172 24.851 19.5172C26.8165 19.5172 28.4111 21.0979 28.4111 23.0925Z" fill="#82BED2"/>
<path d="M12.7969 40.2251C12.7969 40.0757 12.7734 39.9438 12.7266 39.8296C12.6826 39.7124 12.6035 39.6069 12.4893 39.5132C12.3779 39.4194 12.2227 39.3301 12.0234 39.2451C11.8271 39.1602 11.5781 39.0737 11.2764 38.9858C10.96 38.8921 10.6743 38.7881 10.4194 38.6738C10.1646 38.5566 9.94629 38.4233 9.76465 38.2739C9.58301 38.1245 9.44385 37.9531 9.34717 37.7598C9.25049 37.5664 9.20215 37.3452 9.20215 37.0962C9.20215 36.8472 9.25342 36.6172 9.35596 36.4062C9.4585 36.1953 9.60498 36.0122 9.79541 35.8569C9.98877 35.6987 10.2188 35.5757 10.4854 35.4878C10.752 35.3999 11.0493 35.356 11.3774 35.356C11.8579 35.356 12.2651 35.4482 12.5991 35.6328C12.936 35.8145 13.1924 36.0532 13.3682 36.3491C13.5439 36.6421 13.6318 36.9556 13.6318 37.2896H12.7881C12.7881 37.0493 12.7368 36.8369 12.6343 36.6523C12.5317 36.4648 12.3765 36.3184 12.1685 36.2129C11.9604 36.1045 11.6968 36.0503 11.3774 36.0503C11.0757 36.0503 10.8267 36.0957 10.6304 36.1865C10.4341 36.2773 10.2876 36.4004 10.1909 36.5557C10.0972 36.7109 10.0503 36.8882 10.0503 37.0874C10.0503 37.2222 10.0781 37.3452 10.1338 37.4565C10.1924 37.5649 10.2817 37.666 10.4019 37.7598C10.5249 37.8535 10.6802 37.9399 10.8677 38.019C11.0581 38.0981 11.2852 38.1743 11.5488 38.2476C11.9121 38.3501 12.2256 38.4644 12.4893 38.5903C12.7529 38.7163 12.9697 38.8584 13.1396 39.0166C13.3125 39.1719 13.4399 39.3491 13.522 39.5483C13.6069 39.7446 13.6494 39.9673 13.6494 40.2163C13.6494 40.4771 13.5967 40.7129 13.4912 40.9238C13.3857 41.1348 13.2349 41.3149 13.0386 41.4644C12.8423 41.6138 12.6064 41.7295 12.3311 41.8115C12.0586 41.8906 11.7539 41.9302 11.417 41.9302C11.1211 41.9302 10.8296 41.8892 10.5425 41.8071C10.2583 41.7251 9.99902 41.6021 9.76465 41.438C9.5332 41.2739 9.34717 41.0718 9.20654 40.8315C9.06885 40.5884 9 40.3071 9 39.9878H9.84375C9.84375 40.2075 9.88623 40.3965 9.97119 40.5547C10.0562 40.71 10.1719 40.8389 10.3184 40.9414C10.4678 41.0439 10.6362 41.1201 10.8237 41.1699C11.0142 41.2168 11.2119 41.2402 11.417 41.2402C11.7129 41.2402 11.9634 41.1992 12.1685 41.1172C12.3735 41.0352 12.5288 40.918 12.6343 40.7656C12.7427 40.6133 12.7969 40.4331 12.7969 40.2251Z" fill="black"/>
<path d="M17.4111 41.0293V38.5815C17.4111 38.394 17.373 38.2314 17.2969 38.0938C17.2236 37.9531 17.1123 37.8447 16.9629 37.7686C16.8135 37.6924 16.6289 37.6543 16.4092 37.6543C16.2041 37.6543 16.0239 37.6895 15.8687 37.7598C15.7163 37.8301 15.5962 37.9224 15.5083 38.0366C15.4233 38.1509 15.3809 38.2739 15.3809 38.4058H14.5679C14.5679 38.2358 14.6118 38.0674 14.6997 37.9004C14.7876 37.7334 14.9136 37.5825 15.0776 37.4478C15.2446 37.3101 15.4438 37.2017 15.6753 37.1226C15.9097 37.0405 16.1704 36.9995 16.4575 36.9995C16.8032 36.9995 17.1079 37.0581 17.3716 37.1753C17.6382 37.2925 17.8462 37.4697 17.9956 37.707C18.1479 37.9414 18.2241 38.2358 18.2241 38.5903V40.8052C18.2241 40.9634 18.2373 41.1318 18.2637 41.3105C18.293 41.4893 18.3354 41.6431 18.3911 41.772V41.8423H17.543C17.502 41.7485 17.4697 41.624 17.4463 41.4688C17.4229 41.3105 17.4111 41.1641 17.4111 41.0293ZM17.5518 38.9595L17.5605 39.5308H16.7388C16.5073 39.5308 16.3008 39.5498 16.1191 39.5879C15.9375 39.623 15.7852 39.6772 15.6621 39.7505C15.5391 39.8237 15.4453 39.916 15.3809 40.0273C15.3164 40.1357 15.2842 40.2632 15.2842 40.4097C15.2842 40.5591 15.3179 40.6953 15.3853 40.8184C15.4526 40.9414 15.5537 41.0396 15.6885 41.1128C15.8262 41.1831 15.9946 41.2183 16.1938 41.2183C16.4429 41.2183 16.6626 41.1655 16.853 41.0601C17.0435 40.9546 17.1943 40.8257 17.3057 40.6733C17.4199 40.521 17.4814 40.373 17.4902 40.2295L17.8374 40.6206C17.8169 40.7437 17.7612 40.8799 17.6704 41.0293C17.5796 41.1787 17.458 41.3223 17.3057 41.46C17.1562 41.5947 16.9775 41.7075 16.7695 41.7983C16.5645 41.8862 16.333 41.9302 16.0752 41.9302C15.7529 41.9302 15.4702 41.8672 15.2271 41.7412C14.9868 41.6152 14.7993 41.4468 14.6646 41.2358C14.5327 41.022 14.4668 40.7832 14.4668 40.5195C14.4668 40.2646 14.5166 40.0405 14.6162 39.8472C14.7158 39.6509 14.8594 39.4883 15.0469 39.3594C15.2344 39.2275 15.46 39.1279 15.7236 39.0605C15.9873 38.9932 16.2817 38.9595 16.6069 38.9595H17.5518Z" fill="black"/>
<path d="M20.7158 41.8423H19.9028V36.5864C19.9028 36.2437 19.9644 35.9551 20.0874 35.7207C20.2134 35.4834 20.3936 35.3047 20.6279 35.1846C20.8623 35.0615 21.1406 35 21.4629 35C21.5566 35 21.6504 35.0059 21.7441 35.0176C21.8408 35.0293 21.9346 35.0469 22.0254 35.0703L21.9814 35.7339C21.9199 35.7192 21.8496 35.709 21.7705 35.7031C21.6943 35.6973 21.6182 35.6943 21.542 35.6943C21.3691 35.6943 21.2197 35.7295 21.0938 35.7998C20.9707 35.8672 20.877 35.9668 20.8125 36.0986C20.748 36.2305 20.7158 36.3931 20.7158 36.5864V41.8423ZM21.7266 37.0874V37.7114H19.1514V37.0874H21.7266Z" fill="black"/>
<path d="M24.4995 41.9302C24.1685 41.9302 23.8682 41.8745 23.5986 41.7632C23.332 41.6489 23.1021 41.4893 22.9087 41.2842C22.7183 41.0791 22.5718 40.8359 22.4692 40.5547C22.3667 40.2734 22.3154 39.9658 22.3154 39.6318V39.4473C22.3154 39.0605 22.3726 38.7163 22.4868 38.4146C22.6011 38.1099 22.7563 37.8521 22.9526 37.6411C23.1489 37.4302 23.3716 37.2705 23.6206 37.1621C23.8696 37.0537 24.1274 36.9995 24.394 36.9995C24.7339 36.9995 25.0269 37.0581 25.2729 37.1753C25.522 37.2925 25.7256 37.4565 25.8838 37.6675C26.042 37.8755 26.1592 38.1216 26.2354 38.4058C26.3115 38.687 26.3496 38.9946 26.3496 39.3286V39.6934H22.7988V39.0298H25.5366V38.9683C25.5249 38.7573 25.481 38.5522 25.4048 38.353C25.3315 38.1538 25.2144 37.9897 25.0532 37.8608C24.8921 37.7319 24.6724 37.6675 24.394 37.6675C24.2095 37.6675 24.0396 37.707 23.8843 37.7861C23.729 37.8623 23.5957 37.9766 23.4844 38.1289C23.373 38.2812 23.2866 38.4673 23.2251 38.687C23.1636 38.9067 23.1328 39.1602 23.1328 39.4473V39.6318C23.1328 39.8574 23.1636 40.0698 23.2251 40.269C23.2896 40.4653 23.3818 40.6382 23.502 40.7876C23.625 40.937 23.7729 41.0542 23.9458 41.1392C24.1216 41.2241 24.3208 41.2666 24.5435 41.2666C24.8306 41.2666 25.0737 41.208 25.2729 41.0908C25.4722 40.9736 25.6465 40.8169 25.7959 40.6206L26.2881 41.0117C26.1855 41.167 26.0552 41.3149 25.897 41.4556C25.7388 41.5962 25.5439 41.7104 25.3125 41.7983C25.084 41.8862 24.813 41.9302 24.4995 41.9302Z" fill="black"/>
<path d="M32.3438 35.4438V41.8423H31.4912L28.27 36.9072V41.8423H27.4219V35.4438H28.27L31.5044 40.3921V35.4438H32.3438Z" fill="black"/>
<path d="M35.6968 41.9302C35.3657 41.9302 35.0654 41.8745 34.7959 41.7632C34.5293 41.6489 34.2993 41.4893 34.106 41.2842C33.9155 41.0791 33.769 40.8359 33.6665 40.5547C33.564 40.2734 33.5127 39.9658 33.5127 39.6318V39.4473C33.5127 39.0605 33.5698 38.7163 33.6841 38.4146C33.7983 38.1099 33.9536 37.8521 34.1499 37.6411C34.3462 37.4302 34.5688 37.2705 34.8179 37.1621C35.0669 37.0537 35.3247 36.9995 35.5913 36.9995C35.9312 36.9995 36.2241 37.0581 36.4702 37.1753C36.7192 37.2925 36.9229 37.4565 37.0811 37.6675C37.2393 37.8755 37.3564 38.1216 37.4326 38.4058C37.5088 38.687 37.5469 38.9946 37.5469 39.3286V39.6934H33.9961V39.0298H36.7339V38.9683C36.7222 38.7573 36.6782 38.5522 36.6021 38.353C36.5288 38.1538 36.4116 37.9897 36.2505 37.8608C36.0894 37.7319 35.8696 37.6675 35.5913 37.6675C35.4067 37.6675 35.2368 37.707 35.0815 37.7861C34.9263 37.8623 34.793 37.9766 34.6816 38.1289C34.5703 38.2812 34.4839 38.4673 34.4224 38.687C34.3608 38.9067 34.3301 39.1602 34.3301 39.4473V39.6318C34.3301 39.8574 34.3608 40.0698 34.4224 40.269C34.4868 40.4653 34.5791 40.6382 34.6992 40.7876C34.8223 40.937 34.9702 41.0542 35.1431 41.1392C35.3188 41.2241 35.5181 41.2666 35.7407 41.2666C36.0278 41.2666 36.271 41.208 36.4702 41.0908C36.6694 40.9736 36.8438 40.8169 36.9932 40.6206L37.4854 41.0117C37.3828 41.167 37.2524 41.3149 37.0942 41.4556C36.936 41.5962 36.7412 41.7104 36.5098 41.7983C36.2812 41.8862 36.0103 41.9302 35.6968 41.9302Z" fill="black"/>
<path d="M40.4868 37.0874V37.7114H37.916V37.0874H40.4868ZM38.7861 35.9316H39.5991V40.6646C39.5991 40.8257 39.624 40.9473 39.6738 41.0293C39.7236 41.1113 39.7881 41.1655 39.8672 41.1919C39.9463 41.2183 40.0312 41.2314 40.1221 41.2314C40.1895 41.2314 40.2598 41.2256 40.333 41.2139C40.4092 41.1992 40.4663 41.1875 40.5044 41.1787L40.5088 41.8423C40.4443 41.8628 40.3594 41.8818 40.2539 41.8994C40.1514 41.9199 40.0269 41.9302 39.8804 41.9302C39.6812 41.9302 39.498 41.8906 39.3311 41.8115C39.1641 41.7324 39.0308 41.6006 38.9312 41.416C38.8345 41.2285 38.7861 40.9766 38.7861 40.6602V35.9316Z" fill="black"/>
</svg>
