<svg width="50" height="50" viewBox="0 0 50 50" fill="none" xmlns="http://www.w3.org/2000/svg">
<path d="M20 20C20 19.1716 20.6716 18.5 21.5 18.5H30.5C31.3284 18.5 32 19.1716 32 20V28.5C32 29.3284 31.3284 30 30.5 30H21.5C20.6716 30 20 29.3284 20 28.5V20Z" fill="#C30E2F"/>
<path d="M20 33C20 32.1716 20.6716 31.5 21.5 31.5H30.5C31.3284 31.5 32 32.1716 32 33V41.5C32 42.3284 31.3284 43 30.5 43H21.5C20.6716 43 20 42.3284 20 41.5V33Z" fill="#3A393F"/>
<path d="M32 7.5C32 6.67157 32.6716 6 33.5 6H42.5C43.3284 6 44 6.67157 44 7.5V16C44 16.8284 43.3284 17.5 42.5 17.5H33.5C32.6716 17.5 32 16.8284 32 16V7.5Z" fill="#3A393F"/>
<path d="M6 20C6 19.1716 6.67157 18.5 7.5 18.5H16.5C17.3284 18.5 18 19.1716 18 20V28.5C18 29.3284 17.3284 30 16.5 30H7.5C6.67157 30 6 29.3284 6 28.5V20Z" fill="#3A393F"/>
</svg>
