<svg width="50" height="50" viewBox="0 0 50 50" fill="none" xmlns="http://www.w3.org/2000/svg">
<path d="M41 13.2727C41 15.6325 39.087 17.5455 36.7273 17.5455C34.3675 17.5455 32.4545 15.6325 32.4545 13.2727C32.4545 10.913 34.3675 9 36.7273 9C39.087 9 41 10.913 41 13.2727Z" fill="#02283F"/>
<path d="M41 25.2727C41 27.6325 39.087 29.5455 36.7272 29.5455C34.3674 29.5455 32.4545 27.6325 32.4545 25.2727C32.4545 22.9129 34.3674 21 36.7272 21C39.087 21 41 22.9129 41 25.2727Z" fill="#02283F"/>
<path d="M41 37.2726C41 39.6323 39.087 41.5453 36.7273 41.5453C34.3675 41.5453 32.4545 39.6323 32.4545 37.2726C32.4545 34.9128 34.3675 32.9998 36.7273 32.9998C39.087 32.9998 41 34.9128 41 37.2726Z" fill="#02283F"/>
<path d="M29.3638 13.2727C29.3638 15.6325 27.4508 17.5455 25.091 17.5455C22.7313 17.5455 20.8183 15.6325 20.8183 13.2727C20.8183 10.913 22.7313 9 25.091 9C27.4508 9 29.3638 10.913 29.3638 13.2727Z" fill="#02283F"/>
<path d="M29.3639 25.2727C29.3639 27.6325 27.4509 29.5455 25.0911 29.5455C22.7314 29.5455 20.8184 27.6325 20.8184 25.2727C20.8184 22.9129 22.7314 21 25.0911 21C27.4509 21 29.3639 22.9129 29.3639 25.2727Z" fill="#F30505"/>
<path d="M29.3638 37.2726C29.3638 39.6323 27.4508 41.5453 25.091 41.5453C22.7313 41.5453 20.8183 39.6323 20.8183 37.2726C20.8183 34.9128 22.7313 32.9998 25.091 32.9998C27.4508 32.9998 29.3638 34.9128 29.3638 37.2726Z" fill="#02283F"/>
<path d="M17.5455 13.2727C17.5455 15.6325 15.6325 17.5455 13.2727 17.5455C10.913 17.5455 9 15.6325 9 13.2727C9 10.913 10.913 9 13.2727 9C15.6325 9 17.5455 10.913 17.5455 13.2727Z" fill="#02283F"/>
<path d="M17.5455 25.2727C17.5455 27.6325 15.6325 29.5455 13.2727 29.5455C10.913 29.5455 9 27.6325 9 25.2727C9 22.9129 10.913 21 13.2727 21C15.6325 21 17.5455 22.9129 17.5455 25.2727Z" fill="#02283F"/>
<path d="M17.5455 37.2726C17.5455 39.6323 15.6325 41.5453 13.2727 41.5453C10.913 41.5453 9 39.6323 9 37.2726C9 34.9128 10.913 32.9998 13.2727 32.9998C15.6325 32.9998 17.5455 34.9128 17.5455 37.2726Z" fill="#02283F"/>
</svg>
