<svg width="50" height="50" viewBox="0 0 50 50" fill="none" xmlns="http://www.w3.org/2000/svg">
<path fill-rule="evenodd" clip-rule="evenodd" d="M36.7818 23.7923C36.7818 21.9073 38.1932 20.9962 39.7152 20.9962C41.2369 20.9962 42.6092 21.9229 42.6092 23.7923H36.7818ZM39.446 19C36.3445 19 34.3143 21.1535 34.3143 24.7055C34.3143 29.1145 37.4195 30.3793 39.6371 30.3793C42.4464 30.3793 44.0478 28.4684 44.0478 28.4684L42.6189 27.0185C41.8608 27.7077 40.9816 28.12 39.6724 28.12C37.9436 28.12 36.7784 27.0965 36.7784 25.6965H44.4817C44.4817 25.6965 45.8268 19 39.446 19Z" fill="#00DC00"/>
<path fill-rule="evenodd" clip-rule="evenodd" d="M11.4518 23.6023C10.4919 23.4777 7.7106 23.59 7.7106 22.2733C7.7106 21.4928 8.87622 21.0728 9.95099 21.0728C11.6685 21.0728 12.8005 21.7862 13.1295 22.0232L14.5724 20.5241C14.1453 20.1659 12.5548 19 9.95099 19C7.57869 19 5.4444 20.2887 5.4444 22.3556C5.4444 25.5269 9.12747 25.5259 10.6655 25.6821C11.5969 25.7765 12.4476 25.8432 12.4476 26.792C12.4476 27.6742 11.1467 28.1651 10.1397 28.1651C8.49845 28.1651 7.51498 27.6048 6.55282 26.706L5 28.3212C6.42428 29.75 8.22858 30.3793 10.0062 30.3793C12.759 30.3793 14.7714 29.1172 14.7714 26.5776C14.7714 24.8941 13.6823 23.8918 11.4518 23.6023Z" fill="#00DC00"/>
<path fill-rule="evenodd" clip-rule="evenodd" d="M21.8359 26.1811C21.8359 28.2885 20.3856 28.175 19.0904 28.175C17.7794 28.175 16.9421 27.8135 16.9421 26.8686C16.9421 25.9881 17.6241 25.6963 19.033 25.6963H21.8359V26.1811ZM19.4124 19C17.0105 19 15.4535 20.2663 15.1639 20.5217L16.6198 22.0294C16.9097 21.7912 17.8977 21.0855 19.4307 21.0855C21.2703 21.0855 21.8195 21.8451 21.8195 22.7041V23.7739L18.5403 23.776C17.3279 23.776 14.9429 24.0923 14.9429 26.8556C14.9429 28.8853 16.0671 30.3793 18.7507 30.3793C20.098 30.3793 21.1166 29.9272 21.8195 29.0553V30.157H24.2V22.8675C24.2 20.3182 22.6905 19 19.4124 19Z" fill="#00DC00"/>
<path fill-rule="evenodd" clip-rule="evenodd" d="M31.6669 24.5102C31.6669 25.3339 31.653 25.9438 31.5851 26.2543C31.4349 26.9403 30.6378 27.8421 29.1908 27.8421C28.8287 27.8421 26.9726 27.6388 26.7647 26.066C26.7227 25.751 26.6908 25.3339 26.6908 24.5102C26.6908 23.2855 26.7423 22.8961 26.8065 22.585C26.9343 21.9681 27.7589 21.0608 29.1908 21.0608C30.9443 21.0608 31.5075 22.2295 31.5899 22.6812C31.6472 22.9938 31.6669 23.6866 31.6669 24.5102ZM31.6669 19.2269V20.4128C30.8348 19.4671 29.8416 19 28.4854 19C26.1695 19 24.9769 20.2706 24.5731 21.6235C24.4232 22.1263 24.3714 23.0864 24.3714 24.5055C24.3714 25.8425 24.3839 27.0585 24.8593 27.9935C25.5239 29.3019 27.1376 30.0327 28.4854 30.0327C29.7914 30.0327 30.8997 29.5373 31.6669 28.6778V29.3417C31.6669 30.1217 31.3936 30.634 30.8836 31.0389C30.3724 31.445 29.7311 31.6938 28.8411 31.6938C28.0338 31.6938 27.26 31.2631 26.819 30.9632L25.1771 32.5692C26.2415 33.4136 27.5143 33.9887 28.8878 33.9998C30.3433 34.0115 31.5146 33.5801 32.5409 32.7908C33.5233 32.035 34.1429 30.6141 34.1429 29.1067V19.2269H31.6669Z" fill="#00DC00"/>
</svg>
