<svg width="50" height="50" viewBox="0 0 50 50" fill="none" xmlns="http://www.w3.org/2000/svg">
<path d="M21.8972 8.37558C23.0905 7.13225 24.7518 6.3611 26.5891 6.3611C29.0316 6.3611 31.1624 7.72303 32.2973 9.74484C33.2834 9.30425 34.375 9.05914 35.5234 9.05914C39.9286 9.05914 43.5 12.6617 43.5 17.1053C43.5 21.5495 39.9286 25.152 35.5234 25.152C34.9958 25.1523 34.4694 25.0999 33.9522 24.9955C32.9529 26.778 31.0486 27.9824 28.8629 27.9824C27.9479 27.9824 27.0824 27.771 26.3119 27.3952C25.2989 29.7781 22.9387 31.4488 20.1879 31.4488C17.3233 31.4488 14.8819 29.6363 13.9448 27.0942C13.5353 27.1812 13.111 27.2265 12.6756 27.2265C9.265 27.2266 6.5 24.4331 6.5 20.9867C6.5 18.6771 7.7423 16.6605 9.58807 15.5816C9.20807 14.7072 8.9967 13.7421 8.9967 12.7275C8.9967 8.76399 12.2144 5.55103 16.1833 5.55103C18.5134 5.55103 20.5843 6.65891 21.8972 8.37558Z" fill="#00A1E0"/>
<path d="M11.8591 18.981C11.8359 19.0417 11.8676 19.0543 11.8749 19.0649C11.9445 19.1154 12.0151 19.1519 12.0863 19.1924C12.4637 19.3927 12.82 19.4512 13.1926 19.4512C13.9516 19.4512 14.4228 19.0474 14.4228 18.3976V18.3849C14.4228 17.784 13.891 17.5659 13.3918 17.4083L13.327 17.3872C12.9507 17.2649 12.626 17.1595 12.626 16.9118V16.8986C12.626 16.6868 12.8158 16.5307 13.1099 16.5307C13.4367 16.5307 13.8246 16.6393 14.0744 16.7774C14.0744 16.7774 14.1477 16.8248 14.1746 16.7537C14.1893 16.7157 14.3158 16.3752 14.329 16.3383C14.3432 16.2983 14.3179 16.2688 14.2921 16.2529C14.007 16.0795 13.6127 15.9609 13.2048 15.9609L13.1289 15.9615C12.4342 15.9615 11.9493 16.381 11.9493 16.9824V16.995C11.9493 17.6291 12.4843 17.8346 12.9856 17.978L13.0662 18.0028C13.4314 18.115 13.7461 18.2115 13.7461 18.4687V18.4814C13.7461 18.7164 13.5416 18.8914 13.2117 18.8914C13.0836 18.8914 12.6751 18.8888 12.234 18.6099C12.1807 18.5788 12.1496 18.5562 12.1085 18.5314C12.0869 18.5177 12.0326 18.494 12.0089 18.5657L11.8591 18.981ZM22.9701 18.981C22.947 19.0417 22.9786 19.0543 22.986 19.0649C23.0555 19.1154 23.1262 19.1519 23.1973 19.1924C23.5747 19.3927 23.931 19.4512 24.3036 19.4512C25.0626 19.4512 25.5338 19.0474 25.5338 18.3976V18.3849C25.5338 17.784 25.002 17.5659 24.5028 17.4083L24.438 17.3872C24.0617 17.2649 23.737 17.1595 23.737 16.9118V16.8986C23.737 16.6868 23.9267 16.5307 24.2208 16.5307C24.5476 16.5307 24.9355 16.6393 25.1854 16.7774C25.1854 16.7774 25.2587 16.8248 25.2855 16.7537C25.3003 16.7157 25.4268 16.3752 25.44 16.3383C25.4542 16.2983 25.4289 16.2688 25.4031 16.2529C25.1179 16.0795 24.7237 15.9609 24.3157 15.9609L24.2398 15.9615C23.5451 15.9615 23.0603 16.381 23.0603 16.9824V16.995C23.0603 17.6291 23.5952 17.8346 24.0965 17.978L24.1771 18.0028C24.5424 18.115 24.8576 18.2115 24.8576 18.4687V18.4814C24.8576 18.7164 24.6525 18.8914 24.3226 18.8914C24.1945 18.8914 23.7861 18.8888 23.3449 18.6099C23.2917 18.5788 23.2601 18.5572 23.22 18.5314C23.2063 18.5225 23.142 18.4977 23.1198 18.5657L22.9701 18.981ZM30.5554 17.7081C30.5554 18.0755 30.4868 18.3648 30.3519 18.5693C30.2185 18.7717 30.0167 18.8703 29.7353 18.8703C29.4533 18.8703 29.2525 18.7722 29.1212 18.5693C28.9884 18.3653 28.921 18.0755 28.921 17.7081C28.921 17.3413 28.9884 17.0524 29.1212 16.85C29.2525 16.6498 29.4533 16.5522 29.7353 16.5522C30.0167 16.5522 30.2186 16.6498 30.3525 16.85C30.4869 17.0524 30.5554 17.3412 30.5554 17.7081ZM31.1889 17.0271C31.1267 16.8168 31.0297 16.6313 30.9006 16.4769C30.7715 16.3219 30.6081 16.1975 30.4141 16.1069C30.2207 16.0168 29.992 15.9709 29.7353 15.9709C29.4781 15.9709 29.2493 16.0168 29.0559 16.1069C28.8619 16.1975 28.6985 16.3219 28.5689 16.4769C28.4403 16.6318 28.3433 16.8173 28.2806 17.0271C28.2189 17.2363 28.1878 17.4651 28.1878 17.7081C28.1878 17.9511 28.2189 18.1803 28.2806 18.389C28.3433 18.5988 28.4398 18.7844 28.5694 18.9393C28.6985 19.0943 28.8625 19.2181 29.0559 19.3061C29.2498 19.3942 29.4781 19.4389 29.7353 19.4389C29.992 19.4389 30.2202 19.3942 30.4141 19.3061C30.6076 19.2181 30.7715 19.0942 30.9007 18.9393C31.0298 18.7849 31.1267 18.5993 31.1889 18.389C31.2512 18.1798 31.2822 17.9505 31.2822 17.7081C31.2822 17.4656 31.2511 17.2363 31.1889 17.0271ZM36.3914 18.7722C36.3703 18.7105 36.3108 18.7337 36.3108 18.7337C36.2185 18.769 36.1205 18.8017 36.0161 18.818C35.9102 18.8343 35.7937 18.8428 35.6688 18.8428C35.3621 18.8428 35.1185 18.7516 34.9441 18.5713C34.7691 18.3911 34.6711 18.0996 34.6721 17.7054C34.6732 17.3465 34.7596 17.0766 34.9151 16.871C35.0695 16.6666 35.3046 16.5616 35.6182 16.5616C35.8797 16.5616 36.0789 16.5917 36.2875 16.6576C36.2875 16.6576 36.3376 16.6792 36.3613 16.6138C36.4167 16.4599 36.4578 16.3498 36.5168 16.1806C36.5337 16.1326 36.4926 16.1121 36.4778 16.1062C36.3956 16.0741 36.2016 16.0219 36.0551 15.9998C35.9181 15.9787 35.7578 15.9676 35.5797 15.9676C35.3135 15.9676 35.0763 16.013 34.8734 16.1036C34.671 16.1938 34.4992 16.3181 34.3632 16.4731C34.2272 16.6281 34.1239 16.8136 34.0549 17.0233C33.9864 17.2326 33.9516 17.4624 33.9516 17.7054C33.9516 18.2309 34.0934 18.6556 34.3733 18.9666C34.6537 19.2787 35.0748 19.4373 35.624 19.4373C35.9487 19.4373 36.2818 19.3714 36.5211 19.2771C36.5211 19.2771 36.5669 19.2549 36.5469 19.2017L36.3914 18.7722ZM37.4999 17.3562C37.5299 17.1522 37.5863 16.9825 37.6733 16.8502C37.8045 16.6494 38.0048 16.5392 38.2863 16.5392C38.5678 16.5392 38.7538 16.6499 38.8871 16.8502C38.9757 16.9825 39.0142 17.1596 39.0295 17.3562H37.4999ZM39.6329 16.9076C39.5792 16.7047 39.4458 16.4996 39.3583 16.4058C39.2202 16.2572 39.0853 16.1534 38.9514 16.0954C38.7764 16.0205 38.5667 15.971 38.3369 15.971C38.0691 15.971 37.8261 16.0158 37.629 16.1086C37.4314 16.2013 37.2654 16.3279 37.1352 16.4855C37.0049 16.6425 36.9069 16.8296 36.8447 17.042C36.782 17.2534 36.7504 17.4837 36.7504 17.7266C36.7504 17.9739 36.7831 18.2042 36.8479 18.4113C36.9133 18.62 37.0176 18.804 37.1589 18.9563C37.2996 19.1097 37.4809 19.2299 37.6981 19.3136C37.9137 19.3969 38.1756 19.4401 38.4765 19.4396C39.0959 19.4374 39.4221 19.2994 39.5565 19.225C39.5802 19.2119 39.6029 19.1887 39.5744 19.1223L39.4342 18.7296C39.4132 18.6711 39.3536 18.6927 39.3536 18.6927C39.2002 18.7496 38.982 18.8519 38.4734 18.8509C38.1408 18.8503 37.8941 18.7523 37.7397 18.5989C37.581 18.4419 37.5035 18.211 37.4898 17.8853L39.6345 17.8874C39.6345 17.8874 39.6908 17.8863 39.6967 17.8315C39.6988 17.8084 39.7705 17.3909 39.6329 16.9076ZM20.3245 17.3562C20.3551 17.1522 20.411 16.9825 20.4979 16.8502C20.6291 16.6494 20.8294 16.5392 21.1109 16.5392C21.3923 16.5392 21.5784 16.6499 21.7123 16.8502C21.8003 16.9825 21.8387 17.1596 21.854 17.3562H20.3245ZM22.457 16.9076C22.4033 16.7047 22.2704 16.4996 22.183 16.4058C22.0448 16.2572 21.9099 16.1534 21.7761 16.0954C21.6011 16.0205 21.3913 15.971 21.1615 15.971C20.8943 15.971 20.6508 16.0158 20.4537 16.1086C20.256 16.2013 20.09 16.3279 19.9598 16.4855C19.8296 16.6425 19.7316 16.8296 19.6694 17.042C19.6072 17.2534 19.5751 17.4837 19.5751 17.7266C19.5751 17.9739 19.6077 18.2042 19.6726 18.4113C19.738 18.62 19.8423 18.804 19.9836 18.9563C20.1243 19.1097 20.3056 19.2299 20.5227 19.3136C20.7383 19.3969 21.0003 19.4401 21.3012 19.4396C21.9205 19.4374 22.2468 19.2994 22.3812 19.225C22.4049 19.2119 22.4275 19.1887 22.3991 19.1223L22.2594 18.7296C22.2378 18.6711 22.1783 18.6927 22.1783 18.6927C22.0249 18.7496 21.8072 18.8519 21.2975 18.8509C20.9655 18.8503 20.7188 18.7523 20.5644 18.5989C20.4057 18.4419 20.3283 18.211 20.3146 17.8853L22.4592 17.8874C22.4592 17.8874 22.5155 17.8863 22.5214 17.8315C22.5234 17.8084 22.5951 17.3909 22.457 16.9076ZM15.6889 18.7604C15.6051 18.6935 15.5935 18.6766 15.5651 18.6334C15.5229 18.5675 15.5013 18.4737 15.5013 18.3546C15.5013 18.1659 15.5635 18.0304 15.6926 17.9392C15.6926 17.9392 15.8771 17.7785 16.3146 17.7843C16.6218 17.7885 16.8964 17.8338 16.8964 17.8338V18.8089C16.8964 18.8089 16.6244 18.8674 16.3177 18.8858C15.8813 18.9122 15.6889 18.7604 15.6889 18.7604ZM16.5422 17.2535C16.4553 17.2472 16.3424 17.2435 16.2075 17.2435C16.0236 17.2435 15.846 17.2667 15.6794 17.3115C15.5118 17.3563 15.3611 17.4264 15.2314 17.5191C15.1019 17.6115 14.9955 17.7326 14.9204 17.8728C14.8446 18.014 14.8061 18.1806 14.8061 18.3672C14.8061 18.5569 14.8387 18.7219 14.9041 18.8569C14.9695 18.9923 15.0638 19.1051 15.184 19.1921C15.3031 19.279 15.4501 19.3428 15.6209 19.3813C15.789 19.4197 15.9798 19.4392 16.1886 19.4392C16.4083 19.4392 16.6276 19.4213 16.84 19.3849C17.0503 19.3491 17.3086 19.2969 17.3802 19.2806C17.4305 19.2685 17.4806 19.2557 17.5304 19.2421C17.5837 19.229 17.5795 19.172 17.5795 19.172L17.5784 17.2108C17.5784 16.7807 17.4635 16.4618 17.2374 16.2642C17.0123 16.0671 16.6808 15.9674 16.2523 15.9674C16.0916 15.9674 15.8328 15.9896 15.6778 16.0207C15.6778 16.0207 15.2093 16.1113 15.0163 16.2621C15.0163 16.2621 14.9742 16.2885 14.9974 16.3475L15.1492 16.7555C15.1681 16.8082 15.2193 16.7902 15.2193 16.7902C15.2193 16.7902 15.2356 16.7839 15.2546 16.7728C15.6673 16.5483 16.1891 16.5552 16.1891 16.5552C16.421 16.5552 16.5992 16.6015 16.7193 16.6938C16.8363 16.7833 16.8959 16.9188 16.8959 17.2045V17.2951C16.7114 17.2688 16.5422 17.2535 16.5422 17.2535ZM33.8396 16.1485C33.8559 16.1 33.8217 16.0768 33.8074 16.0715C33.7711 16.0573 33.5887 16.0188 33.4479 16.0099C33.1787 15.9935 33.029 16.0389 32.8951 16.0989C32.7622 16.159 32.6147 16.256 32.5324 16.3662V16.1053C32.5324 16.0689 32.5066 16.0399 32.4708 16.0399H31.921C31.8852 16.0399 31.8594 16.0689 31.8594 16.1053V19.304C31.8594 19.3399 31.8889 19.3694 31.9247 19.3694H32.4882C32.5054 19.3693 32.5219 19.3623 32.5341 19.3501C32.5462 19.3378 32.553 19.3213 32.553 19.304V17.706C32.553 17.4915 32.5767 17.2775 32.6242 17.1431C32.6705 17.0102 32.7338 16.9038 32.8118 16.8273C32.8903 16.7515 32.9794 16.6982 33.0769 16.6682C33.1765 16.6376 33.2867 16.6276 33.3647 16.6276C33.4769 16.6276 33.6003 16.6566 33.6003 16.6566C33.6414 16.6613 33.6646 16.636 33.6782 16.5986C33.7152 16.5006 33.8195 16.207 33.8396 16.1485Z" fill="white"/>
<path d="M28.5509 14.666C28.4824 14.6449 28.4202 14.6306 28.339 14.6154C28.2568 14.6006 28.1587 14.5932 28.0476 14.5932C27.6596 14.5932 27.3539 14.7029 27.1394 14.9189C26.9259 15.134 26.781 15.4613 26.7082 15.8919L26.6819 16.0369H26.1949C26.1949 16.0369 26.1359 16.0348 26.1232 16.0991L26.0436 16.5455C26.0378 16.5877 26.0563 16.6145 26.1132 16.6145H26.587L26.1063 19.2983C26.0689 19.5145 26.0257 19.6921 25.9777 19.827C25.9308 19.9598 25.885 20.0594 25.828 20.1322C25.7732 20.2018 25.7216 20.2534 25.6319 20.2834C25.5582 20.3082 25.4728 20.3198 25.3795 20.3198C25.3278 20.3198 25.2588 20.3113 25.2077 20.3008C25.1571 20.2908 25.1302 20.2797 25.0917 20.2633C25.0917 20.2633 25.0364 20.2423 25.0142 20.2976C24.9968 20.3435 24.8703 20.6908 24.855 20.7335C24.8403 20.7762 24.8614 20.8094 24.8882 20.8194C24.9515 20.8416 24.9984 20.8563 25.0843 20.8769C25.2035 20.9048 25.3041 20.9064 25.3984 20.9064C25.5955 20.9064 25.7758 20.8785 25.925 20.8247C26.0747 20.7704 26.2053 20.6761 26.3213 20.5485C26.4462 20.4104 26.5247 20.266 26.5996 20.0684C26.6739 19.8733 26.7377 19.6309 26.7883 19.3484L27.2716 16.6145H27.9779C27.9779 16.6145 28.0374 16.6166 28.0496 16.5518L28.1297 16.1059C28.135 16.0633 28.117 16.0369 28.0596 16.0369H27.3739C27.3776 16.0216 27.4086 15.7802 27.4872 15.5531C27.5209 15.4566 27.5842 15.3781 27.6374 15.3243C27.6902 15.2716 27.7508 15.2342 27.8172 15.2126C27.8852 15.1904 27.9627 15.1799 28.0475 15.1799C28.1118 15.1799 28.1756 15.1873 28.2235 15.1973C28.2899 15.2115 28.3157 15.2189 28.3332 15.2242C28.4033 15.2453 28.4127 15.2247 28.4265 15.191L28.5904 14.7409C28.6073 14.6923 28.5656 14.6718 28.5509 14.666ZM18.9702 19.3042C18.9702 19.34 18.9443 19.369 18.9085 19.369H18.3398C18.3039 19.369 18.2786 19.34 18.2786 19.3042V14.7271C18.2786 14.6913 18.3039 14.6623 18.3398 14.6623H18.9085C18.9443 14.6623 18.9702 14.6913 18.9702 14.7271V19.3042Z" fill="white"/>
<path d="M8.3252 32.8906H10.6787C11.2126 32.8906 11.6634 32.972 12.0312 33.1348C12.4023 33.2975 12.6839 33.5384 12.876 33.8574C13.0713 34.1732 13.1689 34.5622 13.1689 35.0244C13.1689 35.3499 13.1022 35.6478 12.9688 35.918C12.8385 36.1849 12.6497 36.4128 12.4023 36.6016C12.1582 36.7871 11.8652 36.9255 11.5234 37.0166L11.2598 37.1191H9.04785L9.03809 36.3525H10.708C11.0465 36.3525 11.3281 36.2939 11.5527 36.1768C11.7773 36.0563 11.9466 35.8952 12.0605 35.6934C12.1745 35.4915 12.2314 35.2686 12.2314 35.0244C12.2314 34.751 12.1777 34.5117 12.0703 34.3066C11.9629 34.1016 11.7936 33.9437 11.5625 33.833C11.3346 33.7191 11.04 33.6621 10.6787 33.6621H9.26758V40H8.3252V32.8906ZM12.4805 40L10.752 36.7773L11.7334 36.7725L13.4863 39.9414V40H12.4805Z" fill="black"/>
<path d="M16.543 40.0977C16.1751 40.0977 15.8415 40.0358 15.542 39.9121C15.2458 39.7852 14.9902 39.6077 14.7754 39.3799C14.5638 39.152 14.401 38.8818 14.2871 38.5693C14.1732 38.2568 14.1162 37.915 14.1162 37.5439V37.3389C14.1162 36.9092 14.1797 36.5267 14.3066 36.1914C14.4336 35.8529 14.6061 35.5664 14.8242 35.332C15.0423 35.0977 15.2897 34.9202 15.5664 34.7998C15.8431 34.6794 16.1296 34.6191 16.4258 34.6191C16.8034 34.6191 17.1289 34.6842 17.4023 34.8145C17.679 34.9447 17.9053 35.127 18.0811 35.3613C18.2568 35.5924 18.387 35.8659 18.4717 36.1816C18.5563 36.4941 18.5986 36.8359 18.5986 37.207V37.6123H14.6533V36.875H17.6953V36.8066C17.6823 36.5723 17.6335 36.3444 17.5488 36.123C17.4674 35.9017 17.3372 35.7194 17.1582 35.5762C16.9792 35.4329 16.735 35.3613 16.4258 35.3613C16.2207 35.3613 16.0319 35.4053 15.8594 35.4932C15.6868 35.5778 15.5387 35.7048 15.415 35.874C15.2913 36.0433 15.1953 36.25 15.127 36.4941C15.0586 36.7383 15.0244 37.0199 15.0244 37.3389V37.5439C15.0244 37.7946 15.0586 38.0306 15.127 38.252C15.1986 38.4701 15.3011 38.6621 15.4346 38.8281C15.5713 38.9941 15.7357 39.1243 15.9277 39.2188C16.123 39.3132 16.3444 39.3604 16.5918 39.3604C16.9108 39.3604 17.181 39.2952 17.4023 39.165C17.6237 39.0348 17.8174 38.8607 17.9834 38.6426L18.5303 39.0771C18.4163 39.2497 18.2715 39.4141 18.0957 39.5703C17.9199 39.7266 17.7035 39.8535 17.4463 39.9512C17.1924 40.0488 16.8913 40.0977 16.543 40.0977Z" fill="black"/>
<path d="M20.5566 35.7324V42.0312H19.6484V34.7168H20.4785L20.5566 35.7324ZM24.1162 37.3145V37.417C24.1162 37.8011 24.0706 38.1576 23.9795 38.4863C23.8883 38.8118 23.7549 39.0951 23.5791 39.3359C23.4066 39.5768 23.1934 39.764 22.9395 39.8975C22.6855 40.0309 22.3942 40.0977 22.0654 40.0977C21.7301 40.0977 21.4339 40.0423 21.1768 39.9316C20.9196 39.821 20.7015 39.6598 20.5225 39.4482C20.3434 39.2367 20.2002 38.9827 20.0928 38.6865C19.9886 38.3903 19.917 38.0566 19.8779 37.6855V37.1387C19.917 36.748 19.9902 36.3981 20.0977 36.0889C20.2051 35.7796 20.3467 35.516 20.5225 35.2979C20.7015 35.0765 20.918 34.9089 21.1719 34.7949C21.4258 34.6777 21.7188 34.6191 22.0508 34.6191C22.3828 34.6191 22.6774 34.6842 22.9346 34.8145C23.1917 34.9414 23.4082 35.1237 23.584 35.3613C23.7598 35.599 23.8916 35.8838 23.9795 36.2158C24.0706 36.5446 24.1162 36.9108 24.1162 37.3145ZM23.208 37.417V37.3145C23.208 37.0508 23.1803 36.8034 23.125 36.5723C23.0697 36.3379 22.9834 36.1328 22.8662 35.957C22.7523 35.778 22.6058 35.638 22.4268 35.5371C22.2477 35.4329 22.0345 35.3809 21.7871 35.3809C21.5592 35.3809 21.3607 35.4199 21.1914 35.498C21.0254 35.5762 20.8838 35.682 20.7666 35.8154C20.6494 35.9456 20.5534 36.0954 20.4785 36.2646C20.4069 36.4307 20.3532 36.6032 20.3174 36.7822V38.0469C20.3825 38.2747 20.4736 38.4896 20.5908 38.6914C20.708 38.89 20.8643 39.0511 21.0596 39.1748C21.2549 39.2952 21.5007 39.3555 21.7969 39.3555C22.041 39.3555 22.251 39.305 22.4268 39.2041C22.6058 39.0999 22.7523 38.9583 22.8662 38.7793C22.9834 38.6003 23.0697 38.3952 23.125 38.1641C23.1803 37.9297 23.208 37.6807 23.208 37.417Z" fill="black"/>
<path d="M25.0293 37.417V37.3047C25.0293 36.9238 25.0846 36.5706 25.1953 36.2451C25.306 35.9163 25.4655 35.6315 25.6738 35.3906C25.8822 35.1465 26.1344 34.9577 26.4307 34.8242C26.7269 34.6875 27.0589 34.6191 27.4268 34.6191C27.7979 34.6191 28.1315 34.6875 28.4277 34.8242C28.7272 34.9577 28.9811 35.1465 29.1895 35.3906C29.401 35.6315 29.5622 35.9163 29.6729 36.2451C29.7835 36.5706 29.8389 36.9238 29.8389 37.3047V37.417C29.8389 37.7979 29.7835 38.151 29.6729 38.4766C29.5622 38.8021 29.401 39.0869 29.1895 39.3311C28.9811 39.5719 28.7288 39.7607 28.4326 39.8975C28.1396 40.0309 27.8076 40.0977 27.4365 40.0977C27.0654 40.0977 26.7318 40.0309 26.4355 39.8975C26.1393 39.7607 25.8854 39.5719 25.6738 39.3311C25.4655 39.0869 25.306 38.8021 25.1953 38.4766C25.0846 38.151 25.0293 37.7979 25.0293 37.417ZM25.9326 37.3047V37.417C25.9326 37.6807 25.9635 37.9297 26.0254 38.1641C26.0872 38.3952 26.18 38.6003 26.3037 38.7793C26.4307 38.9583 26.5885 39.0999 26.7773 39.2041C26.9661 39.305 27.1859 39.3555 27.4365 39.3555C27.6839 39.3555 27.9004 39.305 28.0859 39.2041C28.2747 39.0999 28.431 38.9583 28.5547 38.7793C28.6784 38.6003 28.7712 38.3952 28.833 38.1641C28.8981 37.9297 28.9307 37.6807 28.9307 37.417V37.3047C28.9307 37.0443 28.8981 36.7985 28.833 36.5674C28.7712 36.333 28.6768 36.1263 28.5498 35.9473C28.4261 35.765 28.2699 35.6217 28.0811 35.5176C27.8955 35.4134 27.6774 35.3613 27.4268 35.3613C27.1794 35.3613 26.9613 35.4134 26.7725 35.5176C26.5869 35.6217 26.4307 35.765 26.3037 35.9473C26.18 36.1263 26.0872 36.333 26.0254 36.5674C25.9635 36.7985 25.9326 37.0443 25.9326 37.3047Z" fill="black"/>
<path d="M31.875 35.5469V40H30.9717V34.7168H31.8506L31.875 35.5469ZM33.5254 34.6875L33.5205 35.5273C33.4456 35.5111 33.374 35.5013 33.3057 35.498C33.2406 35.4915 33.1657 35.4883 33.0811 35.4883C32.8727 35.4883 32.6888 35.5208 32.5293 35.5859C32.3698 35.651 32.2347 35.7422 32.124 35.8594C32.0133 35.9766 31.9255 36.1165 31.8604 36.2793C31.7985 36.4388 31.7578 36.6146 31.7383 36.8066L31.4844 36.9531C31.4844 36.6341 31.5153 36.3346 31.5771 36.0547C31.6423 35.7747 31.7415 35.5273 31.875 35.3125C32.0085 35.0944 32.1777 34.9251 32.3828 34.8047C32.5911 34.681 32.8385 34.6191 33.125 34.6191C33.1901 34.6191 33.265 34.6273 33.3496 34.6436C33.4342 34.6566 33.4928 34.6712 33.5254 34.6875Z" fill="black"/>
<path d="M36.8164 34.7168V35.4102H33.96V34.7168H36.8164ZM34.9268 33.4326H35.8301V38.6914C35.8301 38.8704 35.8577 39.0055 35.9131 39.0967C35.9684 39.1878 36.04 39.248 36.1279 39.2773C36.2158 39.3066 36.3102 39.3213 36.4111 39.3213C36.486 39.3213 36.5641 39.3148 36.6455 39.3018C36.7301 39.2855 36.7936 39.2725 36.8359 39.2627L36.8408 40C36.7692 40.0228 36.6748 40.0439 36.5576 40.0635C36.4437 40.0863 36.3053 40.0977 36.1426 40.0977C35.9212 40.0977 35.7178 40.0537 35.5322 39.9658C35.3467 39.8779 35.1986 39.7314 35.0879 39.5264C34.9805 39.318 34.9268 39.0381 34.9268 38.6865V33.4326Z" fill="black"/>
<path d="M40.9521 38.5986C40.9521 38.4684 40.9229 38.348 40.8643 38.2373C40.8089 38.1234 40.6934 38.0208 40.5176 37.9297C40.3451 37.8353 40.0846 37.7539 39.7363 37.6855C39.4434 37.6237 39.1781 37.5505 38.9404 37.4658C38.7061 37.3812 38.5059 37.2786 38.3398 37.1582C38.1771 37.0378 38.0518 36.8962 37.9639 36.7334C37.876 36.5706 37.832 36.3802 37.832 36.1621C37.832 35.9538 37.8776 35.7568 37.9688 35.5713C38.0632 35.3857 38.195 35.2214 38.3643 35.0781C38.5368 34.9349 38.7435 34.8226 38.9844 34.7412C39.2253 34.6598 39.4938 34.6191 39.79 34.6191C40.2132 34.6191 40.5745 34.694 40.874 34.8438C41.1735 34.9935 41.403 35.1937 41.5625 35.4443C41.722 35.6917 41.8018 35.9668 41.8018 36.2695H40.8984C40.8984 36.123 40.8545 35.9814 40.7666 35.8447C40.682 35.7048 40.5566 35.5892 40.3906 35.498C40.2279 35.4069 40.0277 35.3613 39.79 35.3613C39.5394 35.3613 39.3359 35.4004 39.1797 35.4785C39.0267 35.5534 38.9144 35.6494 38.8428 35.7666C38.7744 35.8838 38.7402 36.0075 38.7402 36.1377C38.7402 36.2354 38.7565 36.3232 38.7891 36.4014C38.8249 36.4762 38.8867 36.5462 38.9746 36.6113C39.0625 36.6732 39.1862 36.7318 39.3457 36.7871C39.5052 36.8424 39.7087 36.8978 39.9561 36.9531C40.389 37.0508 40.7454 37.168 41.0254 37.3047C41.3053 37.4414 41.5137 37.609 41.6504 37.8076C41.7871 38.0062 41.8555 38.2471 41.8555 38.5303C41.8555 38.7614 41.8066 38.973 41.709 39.165C41.6146 39.3571 41.4762 39.5231 41.2939 39.6631C41.1149 39.7998 40.9001 39.9072 40.6494 39.9854C40.402 40.0602 40.1237 40.0977 39.8145 40.0977C39.349 40.0977 38.9551 40.0146 38.6328 39.8486C38.3105 39.6826 38.0664 39.4678 37.9004 39.2041C37.7344 38.9404 37.6514 38.6621 37.6514 38.3691H38.5596C38.5726 38.6165 38.6442 38.8135 38.7744 38.96C38.9046 39.1032 39.0641 39.2057 39.2529 39.2676C39.4417 39.3262 39.6289 39.3555 39.8145 39.3555C40.0618 39.3555 40.2686 39.3229 40.4346 39.2578C40.6038 39.1927 40.7324 39.1032 40.8203 38.9893C40.9082 38.8753 40.9521 38.7451 40.9521 38.5986Z" fill="black"/>
</svg>
