<svg width="50" height="50" viewBox="0 0 50 50" fill="none" xmlns="http://www.w3.org/2000/svg">
<rect width="50" height="50" fill="#00A1E0"/>
<path d="M21.8972 10.3753C23.0905 9.132 24.7518 8.36086 26.5891 8.36086C29.0316 8.36086 31.1624 9.72278 32.2973 11.7446C33.2834 11.304 34.375 11.0589 35.5234 11.0589C39.9286 11.0589 43.5 14.6614 43.5 19.1051C43.5 23.5493 39.9286 27.1518 35.5234 27.1518C34.9958 27.1521 34.4694 27.0996 33.9522 26.9952C32.9529 28.7777 31.0486 29.9821 28.8629 29.9821C27.9479 29.9821 27.0824 29.7708 26.3119 29.395C25.2989 31.7778 22.9387 33.4486 20.1879 33.4486C17.3233 33.4486 14.8819 31.636 13.9448 29.094C13.5353 29.181 13.111 29.2263 12.6756 29.2263C9.265 29.2263 6.5 26.4329 6.5 22.9864C6.5 20.6768 7.7423 18.6602 9.58807 17.5813C9.20807 16.707 8.9967 15.7419 8.9967 14.7273C8.9967 10.7637 12.2144 7.55078 16.1833 7.55078C18.5134 7.55078 20.5843 8.65867 21.8972 10.3753Z" fill="white"/>
<path d="M11.8591 20.9808C11.8359 21.0414 11.8676 21.0541 11.8749 21.0646C11.9445 21.1152 12.0151 21.1516 12.0863 21.1922C12.4637 21.3924 12.82 21.4509 13.1926 21.4509C13.9516 21.4509 14.4228 21.0472 14.4228 20.3973V20.3847C14.4228 19.7838 13.891 19.5656 13.3918 19.408L13.327 19.387C12.9507 19.2647 12.626 19.1593 12.626 18.9115V18.8984C12.626 18.6865 12.8158 18.5305 13.1099 18.5305C13.4367 18.5305 13.8246 18.6391 14.0744 18.7771C14.0744 18.7771 14.1477 18.8246 14.1746 18.7534C14.1893 18.7155 14.3158 18.375 14.329 18.3381C14.3432 18.298 14.3179 18.2685 14.2921 18.2527C14.007 18.0793 13.6127 17.9607 13.2048 17.9607L13.1289 17.9612C12.4342 17.9612 11.9493 18.3808 11.9493 18.9821V18.9948C11.9493 19.6288 12.4843 19.8344 12.9856 19.9778L13.0662 20.0025C13.4314 20.1148 13.7461 20.2112 13.7461 20.4685V20.4811C13.7461 20.7162 13.5416 20.8912 13.2117 20.8912C13.0836 20.8912 12.6751 20.8885 12.234 20.6097C12.1807 20.5786 12.1496 20.5559 12.1085 20.5312C12.0869 20.5175 12.0326 20.4937 12.0089 20.5654L11.8591 20.9808ZM22.9701 20.9808C22.947 21.0414 22.9786 21.0541 22.986 21.0646C23.0555 21.1152 23.1262 21.1516 23.1973 21.1922C23.5747 21.3924 23.931 21.4509 24.3036 21.4509C25.0626 21.4509 25.5338 21.0472 25.5338 20.3973V20.3847C25.5338 19.7838 25.002 19.5656 24.5028 19.408L24.438 19.387C24.0617 19.2647 23.737 19.1593 23.737 18.9115V18.8984C23.737 18.6865 23.9267 18.5305 24.2208 18.5305C24.5476 18.5305 24.9355 18.6391 25.1854 18.7771C25.1854 18.7771 25.2587 18.8246 25.2855 18.7534C25.3002 18.7155 25.4268 18.375 25.44 18.3381C25.4542 18.298 25.4289 18.2685 25.4031 18.2527C25.1179 18.0793 24.7237 17.9607 24.3157 17.9607L24.2398 17.9612C23.5451 17.9612 23.0603 18.3808 23.0603 18.9821V18.9948C23.0603 19.6288 23.5952 19.8344 24.0965 19.9778L24.1771 20.0025C24.5424 20.1148 24.8576 20.2112 24.8576 20.4685V20.4811C24.8576 20.7162 24.6525 20.8912 24.3226 20.8912C24.1945 20.8912 23.7861 20.8885 23.3449 20.6097C23.2917 20.5786 23.2601 20.557 23.22 20.5312C23.2063 20.5222 23.142 20.4974 23.1198 20.5654L22.9701 20.9808ZM30.5554 19.7078C30.5554 20.0752 30.4868 20.3645 30.3519 20.5691C30.2185 20.7715 30.0167 20.87 29.7353 20.87C29.4533 20.87 29.2525 20.772 29.1212 20.5691C28.9884 20.3651 28.921 20.0752 28.921 19.7078C28.921 19.341 28.9884 19.0522 29.1212 18.8498C29.2525 18.6495 29.4533 18.552 29.7353 18.552C30.0167 18.552 30.2186 18.6495 30.3525 18.8498C30.4869 19.0521 30.5554 19.341 30.5554 19.7078ZM31.1889 19.0269C31.1267 18.8165 31.0297 18.631 30.9006 18.4766C30.7715 18.3217 30.6081 18.1973 30.4141 18.1066C30.2207 18.0165 29.992 17.9707 29.7353 17.9707C29.4781 17.9707 29.2493 18.0165 29.0559 18.1066C28.8619 18.1973 28.6985 18.3217 28.5689 18.4766C28.4403 18.6316 28.3433 18.8171 28.2806 19.0269C28.2189 19.2361 28.1878 19.4648 28.1878 19.7078C28.1878 19.9508 28.2189 20.1801 28.2806 20.3888C28.3433 20.5986 28.4398 20.7841 28.5694 20.9391C28.6985 21.094 28.8625 21.2179 29.0559 21.3059C29.2498 21.3939 29.4781 21.4387 29.7353 21.4387C29.992 21.4387 30.2202 21.3939 30.4141 21.3059C30.6076 21.2179 30.7715 21.094 30.9007 20.9391C31.0298 20.7846 31.1267 20.5991 31.1889 20.3888C31.2512 20.1796 31.2822 19.9503 31.2822 19.7078C31.2822 19.4654 31.2511 19.2361 31.1889 19.0269ZM36.3914 20.7719C36.3703 20.7102 36.3108 20.7334 36.3108 20.7334C36.2185 20.7688 36.1205 20.8014 36.0161 20.8178C35.9102 20.8341 35.7937 20.8425 35.6688 20.8425C35.3621 20.8425 35.1185 20.7514 34.9441 20.5711C34.7691 20.3908 34.6711 20.0994 34.6721 19.7051C34.6732 19.3462 34.7596 19.0763 34.9151 18.8708C35.0695 18.6663 35.3046 18.5614 35.6182 18.5614C35.8797 18.5614 36.0789 18.5914 36.2875 18.6573C36.2875 18.6573 36.3376 18.6789 36.3613 18.6136C36.4167 18.4597 36.4578 18.3495 36.5168 18.1803C36.5337 18.1324 36.4926 18.1118 36.4778 18.106C36.3956 18.0738 36.2016 18.0217 36.0551 17.9995C35.9181 17.9785 35.7578 17.9674 35.5797 17.9674C35.3135 17.9674 35.0763 18.0127 34.8734 18.1034C34.671 18.1935 34.4992 18.3179 34.3632 18.4729C34.2272 18.6278 34.1239 18.8133 34.0549 19.0231C33.9864 19.2323 33.9516 19.4621 33.9516 19.7051C33.9516 20.2306 34.0934 20.6554 34.3733 20.9664C34.6537 21.2784 35.0748 21.4371 35.624 21.4371C35.9487 21.4371 36.2818 21.3712 36.5211 21.2768C36.5211 21.2768 36.5669 21.2547 36.5469 21.2015L36.3914 20.7719ZM37.4999 19.3559C37.5299 19.152 37.5863 18.9822 37.6733 18.85C37.8045 18.6491 38.0048 18.539 38.2863 18.539C38.5678 18.539 38.7538 18.6497 38.8871 18.85C38.9757 18.9822 39.0142 19.1594 39.0295 19.3559H37.4999ZM39.6329 18.9074C39.5792 18.7044 39.4458 18.4994 39.3583 18.4056C39.2202 18.257 39.0853 18.1531 38.9514 18.0951C38.7764 18.0203 38.5667 17.9708 38.3369 17.9708C38.0691 17.9708 37.8261 18.0156 37.629 18.1083C37.4314 18.2011 37.2654 18.3276 37.1352 18.4852C37.0049 18.6423 36.9069 18.8294 36.8447 19.0418C36.782 19.2531 36.7504 19.4835 36.7504 19.7264C36.7504 19.9736 36.7831 20.2039 36.8479 20.4111C36.9133 20.6198 37.0176 20.8037 37.1589 20.956C37.2996 21.1094 37.4809 21.2296 37.6981 21.3134C37.9137 21.3966 38.1756 21.4399 38.4765 21.4393C39.0959 21.4372 39.4221 21.2991 39.5565 21.2248C39.5802 21.2116 39.6029 21.1885 39.5744 21.1221L39.4342 20.7294C39.4132 20.6709 39.3536 20.6925 39.3536 20.6925C39.2002 20.7494 38.982 20.8517 38.4734 20.8506C38.1408 20.8501 37.8941 20.7521 37.7397 20.5987C37.581 20.4416 37.5035 20.2107 37.4898 19.885L39.6345 19.8871C39.6345 19.8871 39.6908 19.8861 39.6967 19.8312C39.6988 19.8081 39.7705 19.3907 39.6329 18.9074ZM20.3245 19.3559C20.3551 19.152 20.411 18.9822 20.4979 18.85C20.6291 18.6491 20.8294 18.539 21.1109 18.539C21.3923 18.539 21.5784 18.6497 21.7123 18.85C21.8003 18.9822 21.8387 19.1594 21.854 19.3559H20.3245ZM22.457 18.9074C22.4033 18.7044 22.2704 18.4994 22.183 18.4056C22.0448 18.257 21.9099 18.1531 21.7761 18.0951C21.6011 18.0203 21.3913 17.9708 21.1615 17.9708C20.8943 17.9708 20.6508 18.0156 20.4537 18.1083C20.256 18.2011 20.09 18.3276 19.9598 18.4852C19.8296 18.6423 19.7316 18.8294 19.6694 19.0418C19.6072 19.2531 19.5751 19.4835 19.5751 19.7264C19.5751 19.9736 19.6077 20.2039 19.6726 20.4111C19.738 20.6198 19.8423 20.8037 19.9836 20.956C20.1243 21.1094 20.3056 21.2296 20.5227 21.3134C20.7383 21.3966 21.0003 21.4399 21.3012 21.4393C21.9205 21.4372 22.2468 21.2991 22.3812 21.2248C22.4049 21.2116 22.4275 21.1885 22.3991 21.1221L22.2594 20.7294C22.2378 20.6709 22.1783 20.6925 22.1783 20.6925C22.0249 20.7494 21.8072 20.8517 21.2975 20.8506C20.9655 20.8501 20.7188 20.7521 20.5644 20.5987C20.4057 20.4416 20.3283 20.2107 20.3146 19.885L22.4592 19.8871C22.4592 19.8871 22.5155 19.8861 22.5214 19.8312C22.5234 19.8081 22.5951 19.3907 22.457 18.9074ZM15.6889 20.7602C15.6051 20.6932 15.5935 20.6764 15.5651 20.6331C15.5229 20.5672 15.5013 20.4734 15.5013 20.3543C15.5013 20.1656 15.5635 20.0302 15.6926 19.939C15.6926 19.939 15.8771 19.7782 16.3146 19.784C16.6218 19.7882 16.8964 19.8336 16.8964 19.8336V20.8087C16.8964 20.8087 16.6244 20.8671 16.3177 20.8856C15.8813 20.9119 15.6889 20.7602 15.6889 20.7602ZM16.5422 19.2533C16.4553 19.247 16.3424 19.2432 16.2075 19.2432C16.0236 19.2432 15.846 19.2664 15.6794 19.3112C15.5118 19.356 15.3611 19.4262 15.2314 19.5189C15.1019 19.6113 14.9955 19.7323 14.9204 19.8725C14.8446 20.0138 14.8061 20.1804 14.8061 20.3669C14.8061 20.5567 14.8387 20.7217 14.9041 20.8566C14.9695 20.9921 15.0638 21.1048 15.184 21.1918C15.3031 21.2788 15.4501 21.3425 15.6209 21.381C15.789 21.4195 15.9798 21.439 16.1886 21.439C16.4083 21.439 16.6276 21.4211 16.84 21.3847C17.0503 21.3488 17.3086 21.2966 17.3802 21.2804C17.4305 21.2682 17.4806 21.2554 17.5304 21.2419C17.5837 21.2287 17.5795 21.1718 17.5795 21.1718L17.5784 19.2106C17.5784 18.7805 17.4635 18.4616 17.2374 18.264C17.0123 18.0668 16.6808 17.9672 16.2523 17.9672C16.0916 17.9672 15.8328 17.9894 15.6778 18.0204C15.6778 18.0204 15.2093 18.1111 15.0163 18.2618C15.0163 18.2618 14.9742 18.2882 14.9974 18.3473L15.1492 18.7552C15.1681 18.8079 15.2193 18.79 15.2193 18.79C15.2193 18.79 15.2356 18.7837 15.2546 18.7726C15.6673 18.5481 16.1891 18.5549 16.1891 18.5549C16.421 18.5549 16.5992 18.6013 16.7193 18.6935C16.8363 18.7831 16.8959 18.9185 16.8959 19.2042V19.2949C16.7114 19.2685 16.5422 19.2533 16.5422 19.2533ZM33.8396 18.1483C33.8559 18.0997 33.8217 18.0765 33.8074 18.0713C33.7711 18.0571 33.5887 18.0186 33.4479 18.0096C33.1787 17.9933 33.029 18.0386 32.8951 18.0987C32.7622 18.1588 32.6147 18.2557 32.5324 18.3659V18.105C32.5324 18.0687 32.5066 18.0397 32.4708 18.0397H31.921C31.8852 18.0397 31.8594 18.0686 31.8594 18.105V21.3038C31.8594 21.3396 31.8889 21.3691 31.9247 21.3691H32.4882C32.5054 21.369 32.5219 21.3621 32.5341 21.3498C32.5462 21.3376 32.553 21.321 32.553 21.3038V19.7057C32.553 19.4912 32.5767 19.2772 32.6242 19.1428C32.6705 19.01 32.7338 18.9035 32.8118 18.8271C32.8903 18.7512 32.9794 18.698 33.0769 18.668C33.1765 18.6374 33.2867 18.6274 33.3647 18.6274C33.4769 18.6274 33.6003 18.6563 33.6003 18.6563C33.6414 18.6611 33.6646 18.6358 33.6782 18.5984C33.7152 18.5003 33.8195 18.2067 33.8396 18.1483Z" fill="#00A1E0"/>
<path d="M28.5509 16.6657C28.4824 16.6447 28.4202 16.6304 28.339 16.6151C28.2568 16.6004 28.1587 16.593 28.0476 16.593C27.6596 16.593 27.3539 16.7026 27.1394 16.9187C26.9259 17.1338 26.781 17.4611 26.7082 17.8917L26.6819 18.0366H26.1949C26.1949 18.0366 26.1359 18.0345 26.1232 18.0988L26.0436 18.5453C26.0378 18.5874 26.0563 18.6143 26.1132 18.6143H26.587L26.1063 21.2981C26.0689 21.5142 26.0257 21.6918 25.9777 21.8267C25.9308 21.9596 25.885 22.0592 25.828 22.1319C25.7732 22.2015 25.7216 22.2531 25.6319 22.2832C25.5582 22.308 25.4728 22.3195 25.3795 22.3195C25.3278 22.3195 25.2588 22.3111 25.2077 22.3005C25.1571 22.2905 25.1302 22.2795 25.0917 22.2631C25.0917 22.2631 25.0364 22.2421 25.0142 22.2974C24.9968 22.3433 24.8703 22.6905 24.855 22.7333C24.8403 22.776 24.8614 22.8092 24.8882 22.8192C24.9515 22.8413 24.9984 22.8561 25.0843 22.8766C25.2035 22.9046 25.3041 22.9061 25.3984 22.9061C25.5955 22.9061 25.7758 22.8782 25.925 22.8245C26.0747 22.7702 26.2053 22.6758 26.3213 22.5483C26.4462 22.4102 26.5248 22.2658 26.5996 22.0681C26.6739 21.8731 26.7377 21.6307 26.7883 21.3482L27.2716 18.6143H27.9779C27.9779 18.6143 28.0374 18.6164 28.0496 18.5516L28.1297 18.1057C28.135 18.063 28.117 18.0367 28.0596 18.0367H27.3739C27.3776 18.0214 27.4086 17.78 27.4872 17.5528C27.5209 17.4564 27.5842 17.3778 27.6374 17.3241C27.6902 17.2714 27.7508 17.234 27.8172 17.2123C27.8852 17.1902 27.9627 17.1797 28.0475 17.1797C28.1118 17.1797 28.1756 17.187 28.2235 17.197C28.2899 17.2113 28.3157 17.2187 28.3332 17.224C28.4033 17.245 28.4128 17.2245 28.4265 17.1908L28.5904 16.7407C28.6073 16.6921 28.5656 16.6715 28.5509 16.6657ZM18.9702 21.3039C18.9702 21.3398 18.9443 21.3688 18.9085 21.3688H18.3398C18.3039 21.3688 18.2786 21.3398 18.2786 21.3039V16.7269C18.2786 16.6911 18.3039 16.6621 18.3398 16.6621H18.9085C18.9443 16.6621 18.9702 16.6911 18.9702 16.7269V21.3039Z" fill="#00A1E0"/>
<path d="M8.3252 34.8906H10.6787C11.2126 34.8906 11.6634 34.972 12.0312 35.1348C12.4023 35.2975 12.6839 35.5384 12.876 35.8574C13.0713 36.1732 13.1689 36.5622 13.1689 37.0244C13.1689 37.3499 13.1022 37.6478 12.9688 37.918C12.8385 38.1849 12.6497 38.4128 12.4023 38.6016C12.1582 38.7871 11.8652 38.9255 11.5234 39.0166L11.2598 39.1191H9.04785L9.03809 38.3525H10.708C11.0465 38.3525 11.3281 38.2939 11.5527 38.1768C11.7773 38.0563 11.9466 37.8952 12.0605 37.6934C12.1745 37.4915 12.2314 37.2686 12.2314 37.0244C12.2314 36.751 12.1777 36.5117 12.0703 36.3066C11.9629 36.1016 11.7936 35.9437 11.5625 35.833C11.3346 35.7191 11.04 35.6621 10.6787 35.6621H9.26758V42H8.3252V34.8906ZM12.4805 42L10.752 38.7773L11.7334 38.7725L13.4863 41.9414V42H12.4805Z" fill="white"/>
<path d="M16.543 42.0977C16.1751 42.0977 15.8415 42.0358 15.542 41.9121C15.2458 41.7852 14.9902 41.6077 14.7754 41.3799C14.5638 41.152 14.401 40.8818 14.2871 40.5693C14.1732 40.2568 14.1162 39.915 14.1162 39.5439V39.3389C14.1162 38.9092 14.1797 38.5267 14.3066 38.1914C14.4336 37.8529 14.6061 37.5664 14.8242 37.332C15.0423 37.0977 15.2897 36.9202 15.5664 36.7998C15.8431 36.6794 16.1296 36.6191 16.4258 36.6191C16.8034 36.6191 17.1289 36.6842 17.4023 36.8145C17.679 36.9447 17.9053 37.127 18.0811 37.3613C18.2568 37.5924 18.387 37.8659 18.4717 38.1816C18.5563 38.4941 18.5986 38.8359 18.5986 39.207V39.6123H14.6533V38.875H17.6953V38.8066C17.6823 38.5723 17.6335 38.3444 17.5488 38.123C17.4674 37.9017 17.3372 37.7194 17.1582 37.5762C16.9792 37.4329 16.735 37.3613 16.4258 37.3613C16.2207 37.3613 16.0319 37.4053 15.8594 37.4932C15.6868 37.5778 15.5387 37.7048 15.415 37.874C15.2913 38.0433 15.1953 38.25 15.127 38.4941C15.0586 38.7383 15.0244 39.0199 15.0244 39.3389V39.5439C15.0244 39.7946 15.0586 40.0306 15.127 40.252C15.1986 40.4701 15.3011 40.6621 15.4346 40.8281C15.5713 40.9941 15.7357 41.1243 15.9277 41.2188C16.123 41.3132 16.3444 41.3604 16.5918 41.3604C16.9108 41.3604 17.181 41.2952 17.4023 41.165C17.6237 41.0348 17.8174 40.8607 17.9834 40.6426L18.5303 41.0771C18.4163 41.2497 18.2715 41.4141 18.0957 41.5703C17.9199 41.7266 17.7035 41.8535 17.4463 41.9512C17.1924 42.0488 16.8913 42.0977 16.543 42.0977Z" fill="white"/>
<path d="M20.5566 37.7324V44.0312H19.6484V36.7168H20.4785L20.5566 37.7324ZM24.1162 39.3145V39.417C24.1162 39.8011 24.0706 40.1576 23.9795 40.4863C23.8883 40.8118 23.7549 41.0951 23.5791 41.3359C23.4066 41.5768 23.1934 41.764 22.9395 41.8975C22.6855 42.0309 22.3942 42.0977 22.0654 42.0977C21.7301 42.0977 21.4339 42.0423 21.1768 41.9316C20.9196 41.821 20.7015 41.6598 20.5225 41.4482C20.3434 41.2367 20.2002 40.9827 20.0928 40.6865C19.9886 40.3903 19.917 40.0566 19.8779 39.6855V39.1387C19.917 38.748 19.9902 38.3981 20.0977 38.0889C20.2051 37.7796 20.3467 37.516 20.5225 37.2979C20.7015 37.0765 20.918 36.9089 21.1719 36.7949C21.4258 36.6777 21.7188 36.6191 22.0508 36.6191C22.3828 36.6191 22.6774 36.6842 22.9346 36.8145C23.1917 36.9414 23.4082 37.1237 23.584 37.3613C23.7598 37.599 23.8916 37.8838 23.9795 38.2158C24.0706 38.5446 24.1162 38.9108 24.1162 39.3145ZM23.208 39.417V39.3145C23.208 39.0508 23.1803 38.8034 23.125 38.5723C23.0697 38.3379 22.9834 38.1328 22.8662 37.957C22.7523 37.778 22.6058 37.638 22.4268 37.5371C22.2477 37.4329 22.0345 37.3809 21.7871 37.3809C21.5592 37.3809 21.3607 37.4199 21.1914 37.498C21.0254 37.5762 20.8838 37.682 20.7666 37.8154C20.6494 37.9456 20.5534 38.0954 20.4785 38.2646C20.4069 38.4307 20.3532 38.6032 20.3174 38.7822V40.0469C20.3825 40.2747 20.4736 40.4896 20.5908 40.6914C20.708 40.89 20.8643 41.0511 21.0596 41.1748C21.2549 41.2952 21.5007 41.3555 21.7969 41.3555C22.041 41.3555 22.251 41.305 22.4268 41.2041C22.6058 41.0999 22.7523 40.9583 22.8662 40.7793C22.9834 40.6003 23.0697 40.3952 23.125 40.1641C23.1803 39.9297 23.208 39.6807 23.208 39.417Z" fill="white"/>
<path d="M25.0293 39.417V39.3047C25.0293 38.9238 25.0846 38.5706 25.1953 38.2451C25.306 37.9163 25.4655 37.6315 25.6738 37.3906C25.8822 37.1465 26.1344 36.9577 26.4307 36.8242C26.7269 36.6875 27.0589 36.6191 27.4268 36.6191C27.7979 36.6191 28.1315 36.6875 28.4277 36.8242C28.7272 36.9577 28.9811 37.1465 29.1895 37.3906C29.401 37.6315 29.5622 37.9163 29.6729 38.2451C29.7835 38.5706 29.8389 38.9238 29.8389 39.3047V39.417C29.8389 39.7979 29.7835 40.151 29.6729 40.4766C29.5622 40.8021 29.401 41.0869 29.1895 41.3311C28.9811 41.5719 28.7288 41.7607 28.4326 41.8975C28.1396 42.0309 27.8076 42.0977 27.4365 42.0977C27.0654 42.0977 26.7318 42.0309 26.4355 41.8975C26.1393 41.7607 25.8854 41.5719 25.6738 41.3311C25.4655 41.0869 25.306 40.8021 25.1953 40.4766C25.0846 40.151 25.0293 39.7979 25.0293 39.417ZM25.9326 39.3047V39.417C25.9326 39.6807 25.9635 39.9297 26.0254 40.1641C26.0872 40.3952 26.18 40.6003 26.3037 40.7793C26.4307 40.9583 26.5885 41.0999 26.7773 41.2041C26.9661 41.305 27.1859 41.3555 27.4365 41.3555C27.6839 41.3555 27.9004 41.305 28.0859 41.2041C28.2747 41.0999 28.431 40.9583 28.5547 40.7793C28.6784 40.6003 28.7712 40.3952 28.833 40.1641C28.8981 39.9297 28.9307 39.6807 28.9307 39.417V39.3047C28.9307 39.0443 28.8981 38.7985 28.833 38.5674C28.7712 38.333 28.6768 38.1263 28.5498 37.9473C28.4261 37.765 28.2699 37.6217 28.0811 37.5176C27.8955 37.4134 27.6774 37.3613 27.4268 37.3613C27.1794 37.3613 26.9613 37.4134 26.7725 37.5176C26.5869 37.6217 26.4307 37.765 26.3037 37.9473C26.18 38.1263 26.0872 38.333 26.0254 38.5674C25.9635 38.7985 25.9326 39.0443 25.9326 39.3047Z" fill="white"/>
<path d="M31.875 37.5469V42H30.9717V36.7168H31.8506L31.875 37.5469ZM33.5254 36.6875L33.5205 37.5273C33.4456 37.5111 33.374 37.5013 33.3057 37.498C33.2406 37.4915 33.1657 37.4883 33.0811 37.4883C32.8727 37.4883 32.6888 37.5208 32.5293 37.5859C32.3698 37.651 32.2347 37.7422 32.124 37.8594C32.0133 37.9766 31.9255 38.1165 31.8604 38.2793C31.7985 38.4388 31.7578 38.6146 31.7383 38.8066L31.4844 38.9531C31.4844 38.6341 31.5153 38.3346 31.5771 38.0547C31.6423 37.7747 31.7415 37.5273 31.875 37.3125C32.0085 37.0944 32.1777 36.9251 32.3828 36.8047C32.5911 36.681 32.8385 36.6191 33.125 36.6191C33.1901 36.6191 33.265 36.6273 33.3496 36.6436C33.4342 36.6566 33.4928 36.6712 33.5254 36.6875Z" fill="white"/>
<path d="M36.8164 36.7168V37.4102H33.96V36.7168H36.8164ZM34.9268 35.4326H35.8301V40.6914C35.8301 40.8704 35.8577 41.0055 35.9131 41.0967C35.9684 41.1878 36.04 41.248 36.1279 41.2773C36.2158 41.3066 36.3102 41.3213 36.4111 41.3213C36.486 41.3213 36.5641 41.3148 36.6455 41.3018C36.7301 41.2855 36.7936 41.2725 36.8359 41.2627L36.8408 42C36.7692 42.0228 36.6748 42.0439 36.5576 42.0635C36.4437 42.0863 36.3053 42.0977 36.1426 42.0977C35.9212 42.0977 35.7178 42.0537 35.5322 41.9658C35.3467 41.8779 35.1986 41.7314 35.0879 41.5264C34.9805 41.318 34.9268 41.0381 34.9268 40.6865V35.4326Z" fill="white"/>
<path d="M40.9521 40.5986C40.9521 40.4684 40.9229 40.348 40.8643 40.2373C40.8089 40.1234 40.6934 40.0208 40.5176 39.9297C40.3451 39.8353 40.0846 39.7539 39.7363 39.6855C39.4434 39.6237 39.1781 39.5505 38.9404 39.4658C38.7061 39.3812 38.5059 39.2786 38.3398 39.1582C38.1771 39.0378 38.0518 38.8962 37.9639 38.7334C37.876 38.5706 37.832 38.3802 37.832 38.1621C37.832 37.9538 37.8776 37.7568 37.9688 37.5713C38.0632 37.3857 38.195 37.2214 38.3643 37.0781C38.5368 36.9349 38.7435 36.8226 38.9844 36.7412C39.2253 36.6598 39.4938 36.6191 39.79 36.6191C40.2132 36.6191 40.5745 36.694 40.874 36.8438C41.1735 36.9935 41.403 37.1937 41.5625 37.4443C41.722 37.6917 41.8018 37.9668 41.8018 38.2695H40.8984C40.8984 38.123 40.8545 37.9814 40.7666 37.8447C40.682 37.7048 40.5566 37.5892 40.3906 37.498C40.2279 37.4069 40.0277 37.3613 39.79 37.3613C39.5394 37.3613 39.3359 37.4004 39.1797 37.4785C39.0267 37.5534 38.9144 37.6494 38.8428 37.7666C38.7744 37.8838 38.7402 38.0075 38.7402 38.1377C38.7402 38.2354 38.7565 38.3232 38.7891 38.4014C38.8249 38.4762 38.8867 38.5462 38.9746 38.6113C39.0625 38.6732 39.1862 38.7318 39.3457 38.7871C39.5052 38.8424 39.7087 38.8978 39.9561 38.9531C40.389 39.0508 40.7454 39.168 41.0254 39.3047C41.3053 39.4414 41.5137 39.609 41.6504 39.8076C41.7871 40.0062 41.8555 40.2471 41.8555 40.5303C41.8555 40.7614 41.8066 40.973 41.709 41.165C41.6146 41.3571 41.4762 41.5231 41.2939 41.6631C41.1149 41.7998 40.9001 41.9072 40.6494 41.9854C40.402 42.0602 40.1237 42.0977 39.8145 42.0977C39.349 42.0977 38.9551 42.0146 38.6328 41.8486C38.3105 41.6826 38.0664 41.4678 37.9004 41.2041C37.7344 40.9404 37.6514 40.6621 37.6514 40.3691H38.5596C38.5726 40.6165 38.6442 40.8135 38.7744 40.96C38.9046 41.1032 39.0641 41.2057 39.2529 41.2676C39.4417 41.3262 39.6289 41.3555 39.8145 41.3555C40.0618 41.3555 40.2686 41.3229 40.4346 41.2578C40.6038 41.1927 40.7324 41.1032 40.8203 40.9893C40.9082 40.8753 40.9521 40.7451 40.9521 40.5986Z" fill="white"/>
</svg>
