<svg width="50" height="50" viewBox="0 0 50 50" fill="none" xmlns="http://www.w3.org/2000/svg">
<path d="M21.6456 14.0536C22.9357 12.7094 24.7317 11.8758 26.718 11.8758C29.3584 11.8758 31.6621 13.3481 32.8889 15.5339C33.955 15.0575 35.1351 14.7926 36.3767 14.7926C41.139 14.7926 45 18.6872 45 23.4911C45 28.2957 41.139 32.1903 36.3767 32.1903C35.8062 32.1906 35.2372 32.1339 34.6781 32.021C33.5978 33.9481 31.5391 35.2501 29.1761 35.2501C28.1869 35.2501 27.2513 35.0216 26.4183 34.6153C25.3231 37.1914 22.7715 38.9976 19.7977 38.9976C16.7009 38.9976 14.0615 37.0381 13.0484 34.29C12.6057 34.384 12.147 34.433 11.6764 34.433C7.98919 34.433 5 31.4131 5 27.6872C5 25.1903 6.34302 23.0102 8.33846 21.8438C7.92765 20.8986 7.69914 19.8553 7.69914 18.7584C7.69914 14.4735 11.1778 11 15.4684 11C17.9875 11 20.2262 12.1977 21.6456 14.0536Z" fill="#00A1E0"/>
<path d="M10.7936 25.5189C10.7686 25.5845 10.8028 25.5982 10.8107 25.6095C10.8859 25.6642 10.9623 25.7036 11.0392 25.7474C11.4472 25.9639 11.8324 26.0272 12.2353 26.0272C13.0558 26.0272 13.5652 25.5907 13.5652 24.8882V24.8745C13.5652 24.2249 12.9903 23.989 12.4506 23.8186L12.3806 23.7959C11.9737 23.6637 11.6227 23.5497 11.6227 23.2819V23.2677C11.6227 23.0386 11.8279 22.8699 12.1458 22.8699C12.4991 22.8699 12.9185 22.9873 13.1885 23.1366C13.1885 23.1366 13.2677 23.1879 13.2968 23.111C13.3128 23.0699 13.4495 22.7019 13.4638 22.662C13.4792 22.6186 13.4518 22.5867 13.4239 22.5696C13.1156 22.3822 12.6894 22.254 12.2484 22.254L12.1664 22.2545C11.4154 22.2545 10.8912 22.7081 10.8912 23.3582V23.3719C10.8912 24.0574 11.4695 24.2796 12.0114 24.4346L12.0986 24.4614C12.4935 24.5827 12.8336 24.687 12.8336 24.9651V24.9788C12.8336 25.2329 12.6126 25.422 12.2559 25.422C12.1174 25.422 11.6758 25.4192 11.1989 25.1177C11.1413 25.0841 11.1077 25.0596 11.0633 25.0329C11.0399 25.018 10.9812 24.9924 10.9556 25.0699L10.7936 25.5189ZM22.8056 25.5189C22.7805 25.5845 22.8147 25.5982 22.8227 25.6095C22.8979 25.6642 22.9742 25.7036 23.0511 25.7474C23.4591 25.9639 23.8444 26.0272 24.2472 26.0272C25.0677 26.0272 25.5771 25.5907 25.5771 24.8882V24.8745C25.5771 24.2249 25.0022 23.989 24.4625 23.8186L24.3925 23.7959C23.9856 23.6637 23.6346 23.5497 23.6346 23.2819V23.2677C23.6346 23.0386 23.8397 22.8699 24.1577 22.8699C24.5109 22.8699 24.9303 22.9873 25.2004 23.1366C25.2004 23.1366 25.2796 23.1879 25.3087 23.111C25.3246 23.0699 25.4614 22.7019 25.4756 22.662C25.491 22.6186 25.4637 22.5867 25.4357 22.5696C25.1275 22.3822 24.7013 22.254 24.2603 22.254L24.1782 22.2545C23.4272 22.2545 22.903 22.7081 22.903 23.3582V23.3719C22.903 24.0574 23.4813 24.2796 24.0232 24.4346L24.1104 24.4614C24.5053 24.5827 24.846 24.687 24.846 24.9651V24.9788C24.846 25.2329 24.6244 25.422 24.2677 25.422C24.1292 25.422 23.6876 25.4192 23.2107 25.1177C23.1531 25.0841 23.119 25.0608 23.0757 25.0329C23.0609 25.0232 22.9913 24.9964 22.9674 25.0699L22.8056 25.5189ZM31.0058 24.1428C31.0058 24.5399 30.9317 24.8527 30.7859 25.0738C30.6417 25.2926 30.4235 25.3992 30.1192 25.3992C29.8144 25.3992 29.5973 25.2932 29.4554 25.0738C29.3118 24.8533 29.2389 24.5399 29.2389 24.1428C29.2389 23.7462 29.3118 23.4339 29.4554 23.2151C29.5973 22.9986 29.8144 22.8932 30.1192 22.8932C30.4235 22.8932 30.6417 22.9986 30.7865 23.2151C30.9318 23.4339 31.0058 23.7462 31.0058 24.1428ZM31.6907 23.4066C31.6235 23.1792 31.5186 22.9786 31.3791 22.8117C31.2394 22.6442 31.0628 22.5097 30.8531 22.4117C30.644 22.3143 30.3967 22.2647 30.1192 22.2647C29.8412 22.2647 29.5939 22.3143 29.3847 22.4117C29.175 22.5097 28.9984 22.6442 28.8582 22.8117C28.7192 22.9792 28.6144 23.1798 28.5466 23.4066C28.4799 23.6328 28.4463 23.8801 28.4463 24.1428C28.4463 24.4055 28.4799 24.6533 28.5466 24.8789C28.6144 25.1057 28.7187 25.3063 28.8589 25.4738C28.9984 25.6413 29.1756 25.7752 29.3848 25.8704C29.5944 25.9655 29.8412 26.014 30.1193 26.014C30.3967 26.014 30.6435 25.9655 30.8531 25.8704C31.0623 25.7752 31.2394 25.6413 31.3791 25.4738C31.5187 25.3068 31.6235 25.1063 31.6908 24.8789C31.758 24.6528 31.7916 24.4049 31.7916 24.1428C31.7916 23.8807 31.7579 23.6328 31.6907 23.4066ZM37.315 25.2931C37.2922 25.2264 37.2279 25.2515 37.2279 25.2515C37.1282 25.2897 37.0221 25.325 36.9093 25.3427C36.7948 25.3603 36.6689 25.3695 36.5338 25.3695C36.2022 25.3695 35.939 25.2709 35.7504 25.076C35.5612 24.8811 35.4552 24.5661 35.4563 24.1398C35.4575 23.7518 35.5509 23.46 35.719 23.2379C35.886 23.0168 36.1401 22.9034 36.4791 22.9034C36.7618 22.9034 36.9772 22.9358 37.2028 23.0071C37.2028 23.0071 37.2569 23.0304 37.2825 22.9598C37.3423 22.7934 37.3868 22.6743 37.4506 22.4914C37.4689 22.4395 37.4244 22.4173 37.4084 22.411C37.3195 22.3763 37.1099 22.3199 36.9515 22.296C36.8033 22.2732 36.6301 22.2612 36.4375 22.2612C36.1497 22.2612 35.8933 22.3102 35.674 22.4082C35.4552 22.5057 35.2694 22.6401 35.1224 22.8077C34.9754 22.9752 34.8637 23.1757 34.7891 23.4025C34.715 23.6287 34.6774 23.8771 34.6774 24.1398C34.6774 24.7079 34.8307 25.1671 35.1333 25.5034C35.4364 25.8407 35.8917 26.0122 36.4854 26.0122C36.8364 26.0122 37.1965 25.941 37.4552 25.839C37.4552 25.839 37.5048 25.815 37.4832 25.7575L37.315 25.2931ZM38.5134 23.7623C38.5459 23.5418 38.6068 23.3583 38.7009 23.2153C38.8428 22.9982 39.0592 22.8791 39.3636 22.8791C39.6679 22.8791 39.869 22.9988 40.0131 23.2153C40.1089 23.3583 40.1505 23.5498 40.167 23.7623H38.5134ZM40.8194 23.2774C40.7613 23.058 40.6171 22.8363 40.5225 22.7349C40.3732 22.5742 40.2274 22.462 40.0826 22.3993C39.8934 22.3184 39.6667 22.2649 39.4182 22.2649C39.1288 22.2649 38.8661 22.3133 38.653 22.4136C38.4394 22.5139 38.2599 22.6506 38.1191 22.821C37.9783 22.9908 37.8724 23.1931 37.8051 23.4227C37.7373 23.6512 37.7031 23.9002 37.7031 24.1628C37.7031 24.4301 37.7385 24.6791 37.8086 24.903C37.8792 25.1287 37.992 25.3275 38.1447 25.4922C38.2968 25.658 38.4929 25.7879 38.7276 25.8785C38.9607 25.9685 39.2439 26.0152 39.5692 26.0146C40.2388 26.0124 40.5915 25.8631 40.7368 25.7827C40.7624 25.7685 40.7869 25.7434 40.7561 25.6717L40.6046 25.2471C40.5818 25.1839 40.5174 25.2072 40.5174 25.2072C40.3515 25.2688 40.1157 25.3793 39.5658 25.3782C39.2063 25.3776 38.9396 25.2717 38.7726 25.1058C38.6011 24.936 38.5173 24.6864 38.5025 24.3343L40.821 24.3366C40.821 24.3366 40.882 24.3355 40.8883 24.2762C40.8906 24.2512 40.9681 23.7999 40.8194 23.2774ZM19.9454 23.7623C19.9785 23.5418 20.0389 23.3583 20.1329 23.2153C20.2748 22.9982 20.4913 22.8791 20.7956 22.8791C21.0998 22.8791 21.301 22.9988 21.4457 23.2153C21.5408 23.3583 21.5824 23.5498 21.599 23.7623H19.9454ZM22.2508 23.2774C22.1927 23.058 22.0491 22.8363 21.9545 22.7349C21.8052 22.5742 21.6594 22.462 21.5147 22.3993C21.3255 22.3184 21.0987 22.2649 20.8503 22.2649C20.5614 22.2649 20.2981 22.3133 20.085 22.4136C19.8714 22.5139 19.6919 22.6506 19.5511 22.821C19.4104 22.9908 19.3044 23.1931 19.2372 23.4227C19.17 23.6512 19.1352 23.9002 19.1352 24.1628C19.1352 24.4301 19.1705 24.6791 19.2406 24.903C19.3113 25.1287 19.4241 25.3275 19.5768 25.4922C19.729 25.658 19.925 25.7879 20.1597 25.8785C20.3928 25.9685 20.676 26.0152 21.0013 26.0146C21.6708 26.0124 22.0235 25.8631 22.1688 25.7827C22.1945 25.7685 22.219 25.7434 22.1882 25.6717L22.0372 25.2471C22.0138 25.1839 21.9495 25.2072 21.9495 25.2072C21.7837 25.2688 21.5483 25.3793 20.9974 25.3782C20.6384 25.3776 20.3717 25.2717 20.2048 25.1058C20.0332 24.936 19.9495 24.6864 19.9347 24.3343L22.2532 24.3366C22.2532 24.3366 22.3141 24.3355 22.3204 24.2762C22.3226 24.2512 22.4001 23.7999 22.2508 23.2774ZM14.934 25.2804C14.8434 25.208 14.8308 25.1898 14.8001 25.1431C14.7545 25.0719 14.7311 24.9704 14.7311 24.8417C14.7311 24.6377 14.7984 24.4912 14.938 24.3927C14.938 24.3927 15.1374 24.2189 15.6103 24.2251C15.9425 24.2297 16.2394 24.2787 16.2394 24.2787V25.3328C16.2394 25.3328 15.9453 25.3961 15.6137 25.416C15.1419 25.4445 14.934 25.2804 14.934 25.2804ZM15.8565 23.6514C15.7624 23.6445 15.6405 23.6405 15.4946 23.6405C15.2958 23.6405 15.1037 23.6656 14.9237 23.714C14.7425 23.7624 14.5795 23.8383 14.4394 23.9385C14.2994 24.0384 14.1844 24.1692 14.1032 24.3208C14.0211 24.4735 13.9795 24.6536 13.9795 24.8553C13.9795 25.0604 14.0149 25.2388 14.0855 25.3847C14.1562 25.5311 14.2582 25.653 14.3881 25.7471C14.5168 25.8411 14.6758 25.91 14.8604 25.9516C15.0422 25.9932 15.2484 26.0143 15.4741 26.0143C15.7117 26.0143 15.9487 25.9949 16.1784 25.9556C16.4057 25.9168 16.6849 25.8604 16.7624 25.8428C16.8167 25.8297 16.8709 25.8158 16.9248 25.8012C16.9824 25.787 16.9778 25.7254 16.9778 25.7254L16.9767 23.6052C16.9767 23.1402 16.8524 22.7955 16.608 22.5818C16.3647 22.3687 16.0063 22.261 15.5431 22.261C15.3692 22.261 15.0895 22.285 14.922 22.3185C14.922 22.3185 14.4154 22.4166 14.2068 22.5795C14.2068 22.5795 14.1613 22.608 14.1863 22.6719L14.3505 23.1129C14.371 23.1699 14.4263 23.1505 14.4263 23.1505C14.4263 23.1505 14.4439 23.1437 14.4645 23.1317C14.9106 22.889 15.4747 22.8964 15.4747 22.8964C15.7254 22.8964 15.918 22.9465 16.0479 23.0462C16.1744 23.1431 16.2388 23.2895 16.2388 23.5983V23.6963C16.0394 23.6679 15.8565 23.6514 15.8565 23.6514ZM34.5563 22.4567C34.5739 22.4043 34.5369 22.3792 34.5215 22.3735C34.4822 22.3581 34.2851 22.3165 34.1329 22.3069C33.8418 22.2892 33.68 22.3382 33.5352 22.4032C33.3916 22.4681 33.2321 22.5729 33.1432 22.692V22.41C33.1432 22.3707 33.1153 22.3393 33.0765 22.3393H32.4822C32.4435 22.3393 32.4156 22.3706 32.4156 22.41V25.8681C32.4156 25.9068 32.4475 25.9388 32.4862 25.9388H33.0953C33.114 25.9387 33.1318 25.9312 33.145 25.9179C33.1581 25.9047 33.1654 25.8867 33.1654 25.8681V24.1405C33.1654 23.9086 33.1911 23.6773 33.2424 23.532C33.2925 23.3883 33.3609 23.2733 33.4452 23.1906C33.5301 23.1086 33.6264 23.051 33.7318 23.0186C33.8395 22.9855 33.9585 22.9747 34.0429 22.9747C34.1643 22.9747 34.2976 23.006 34.2976 23.006C34.342 23.0111 34.3671 22.9838 34.3819 22.9433C34.4218 22.8373 34.5346 22.52 34.5563 22.4567Z" fill="white"/>
<path d="M28.8388 20.854C28.7647 20.8312 28.6975 20.8158 28.6097 20.7993C28.5208 20.7834 28.4149 20.7754 28.2947 20.7754C27.8752 20.7754 27.5448 20.8939 27.3129 21.1275C27.0821 21.36 26.9254 21.7138 26.8467 22.1794L26.8182 22.336H26.2918C26.2918 22.336 26.228 22.3338 26.2143 22.4033L26.1283 22.8859C26.122 22.9315 26.142 22.9606 26.2035 22.9606H26.7157L26.196 25.862C26.1556 26.0956 26.1088 26.2876 26.057 26.4335C26.0063 26.5771 25.9567 26.6848 25.8952 26.7634C25.8359 26.8386 25.7801 26.8944 25.6832 26.9269C25.6034 26.9537 25.5111 26.9662 25.4103 26.9662C25.3544 26.9662 25.2798 26.9571 25.2245 26.9457C25.1698 26.9348 25.1408 26.9229 25.0992 26.9052C25.0992 26.9052 25.0393 26.8825 25.0154 26.9423C24.9966 26.9919 24.8598 27.3673 24.8433 27.4135C24.8274 27.4596 24.8501 27.4956 24.8792 27.5064C24.9476 27.5303 24.9983 27.5463 25.0911 27.5685C25.22 27.5987 25.3287 27.6004 25.4307 27.6004C25.6438 27.6004 25.8387 27.5702 26 27.5121C26.1618 27.4534 26.3031 27.3514 26.4284 27.2135C26.5635 27.0642 26.6484 26.9081 26.7293 26.6944C26.8097 26.4836 26.8787 26.2215 26.9333 25.9161L27.4558 22.9606H28.2194C28.2194 22.9606 28.2837 22.9628 28.2969 22.8928L28.3834 22.4107C28.3892 22.3646 28.3698 22.3361 28.3076 22.3361H27.5663C27.5703 22.3196 27.6039 22.0586 27.6889 21.813C27.7253 21.7088 27.7937 21.6239 27.8513 21.5657C27.9083 21.5087 27.9738 21.4683 28.0456 21.4449C28.1191 21.421 28.2029 21.4096 28.2946 21.4096C28.3641 21.4096 28.433 21.4176 28.4849 21.4284C28.5567 21.4438 28.5846 21.4518 28.6035 21.4575C28.6793 21.4803 28.6895 21.458 28.7043 21.4216L28.8815 20.935C28.8998 20.8825 28.8547 20.8603 28.8388 20.854ZM18.4813 25.8683C18.4813 25.907 18.4533 25.9384 18.4146 25.9384H17.7998C17.761 25.9384 17.7337 25.907 17.7337 25.8683V20.9201C17.7337 20.8814 17.761 20.85 17.7998 20.85H18.4146C18.4533 20.85 18.4813 20.8814 18.4813 20.9201V25.8683Z" fill="white"/>
</svg>
