<svg width="50" height="50" viewBox="0 0 50 50" fill="none" xmlns="http://www.w3.org/2000/svg">
<rect width="50" height="50" fill="black"/>
<path fill-rule="evenodd" clip-rule="evenodd" d="M41.833 8H7.83301V42H26.7586C26.6717 41.4874 26.6283 40.9484 26.6283 40.3828H31.4226C31.5085 41.0092 31.6399 41.5483 31.8169 42H41.6174C41.6804 41.7444 41.7119 41.4693 41.7119 41.1746C41.7119 38.2766 36.8803 38.0082 34.7203 37.5184C32.1628 36.9349 30.406 36.2999 29.4497 35.6148C27.5277 34.2556 26.8925 31.9096 27.0461 29.6552L27.0472 29.6383H31.692C31.6262 30.573 31.9919 31.3823 32.8371 31.8568C33.3387 32.1499 34.4034 32.4917 36.0307 32.8846C37.9612 33.3551 39.953 33.7199 41.833 34.374V30.6103H40.9622C40.7996 27.892 38.4726 26.8022 36.0304 26.8022C34.8077 26.8022 33.8231 27.0422 33.0556 27.5007V22.8482C34.0465 22.6125 35.1508 22.4889 36.3798 22.4889C38.441 22.4889 40.2587 22.9372 41.833 23.8336V8ZM29.309 25.7526H22.9441V19.1759H29.309V25.7526Z" fill="white"/>
</svg>
