<svg width="50" height="50" viewBox="0 0 50 50" fill="none" xmlns="http://www.w3.org/2000/svg">
<path fill-rule="evenodd" clip-rule="evenodd" d="M41.8333 8H7.83325V42H26.7588C26.6719 41.4874 26.6285 40.9484 26.6285 40.3828H31.4229C31.5087 41.0092 31.6401 41.5483 31.8171 42H41.6177C41.6807 41.7444 41.7121 41.4693 41.7121 41.1746C41.7121 38.2766 36.8805 38.0082 34.7206 37.5184C32.163 36.9349 30.4063 36.2999 29.4499 35.6148C27.528 34.2556 26.8927 31.9096 27.0463 29.6552L27.0475 29.6383H31.6922C31.6265 30.573 31.9921 31.3823 32.8374 31.8568C33.3389 32.1499 34.4036 32.4917 36.031 32.8846C37.9614 33.3551 39.9532 33.7199 41.8333 34.374V30.6103H40.9625C40.7999 27.892 38.4728 26.8022 36.0307 26.8022C34.8079 26.8022 33.8234 27.0422 33.0558 27.5008V22.8482C34.0467 22.6125 35.151 22.4889 36.3801 22.4889C38.4413 22.4889 40.2589 22.9372 41.8333 23.8336V8ZM29.3092 25.7526H22.9444V19.1759H29.3092V25.7526Z" fill="black"/>
</svg>
