<svg width="50" height="50" viewBox="0 0 50 50" fill="none" xmlns="http://www.w3.org/2000/svg">
<path d="M33.1481 8.41043C33.4107 8.2267 33.7107 8.41043 33.9545 8.55742C35.9611 9.71492 37.9864 10.8357 40.0117 11.9932C40.5555 12.3055 41.0994 12.6179 41.6432 12.8935C41.6807 16.0353 41.662 19.1587 41.662 22.3005C40.1805 23.1456 38.699 23.9908 37.1988 24.8176C37.255 25.0197 37.3488 25.2218 37.3488 25.4423C37.3488 28.088 37.3488 30.7153 37.3488 33.361C37.3675 33.5448 37.1613 33.5999 37.03 33.6918C32.5105 36.2272 28.0098 38.7995 23.5091 41.3533C23.2466 41.4819 22.984 41.7392 22.6652 41.6473C18.2583 39.1486 13.8701 36.6682 9.46318 34.1695C9.06937 33.9674 8.69431 33.7653 8.338 33.508C8.338 28.0145 8.31925 22.5026 8.35675 17.009C12.895 14.4552 17.4144 11.8646 21.9526 9.31071C22.3089 9.12698 22.7027 8.75952 23.1341 8.99837C24.5218 9.77004 25.9095 10.5601 27.2785 11.3501C27.4472 11.4604 27.691 11.5339 27.8786 11.4052C29.6413 10.3947 31.3853 9.40258 33.1481 8.41043ZM27.7098 12.673C27.391 12.8383 27.0534 13.0221 26.7721 13.2425C28.7787 14.4 30.804 15.5208 32.8106 16.6783C33.0544 16.8069 33.3169 17.0825 33.6169 16.9172C35.7173 15.7229 37.8176 14.547 39.8992 13.3344C39.9554 13.2793 39.9929 13.2242 40.0304 13.1691C37.8176 11.9381 35.6235 10.6336 33.3919 9.42095C31.5166 10.5233 29.6038 11.589 27.7098 12.673ZM9.932 17.3397C10.3446 17.6705 10.8321 17.8726 11.2822 18.1482C15.1078 20.3345 18.9709 22.5026 22.7965 24.689C23.0966 24.542 23.3966 24.395 23.6966 24.2296C25.3657 23.2559 27.0722 22.3372 28.7412 21.3451C28.6287 21.2532 28.4974 21.143 28.3661 21.0695C26.3033 19.912 24.2592 18.7361 22.2152 17.5786C22.0651 17.5051 21.8401 17.3581 22.0464 17.2111C23.0778 16.5864 24.1467 16.0536 25.1781 15.4106C25.2344 14.5838 25.1406 13.7386 25.2344 12.8935C25.5344 12.6914 25.8907 12.5444 26.1908 12.3606C26.2846 12.2871 26.4721 12.2504 26.4533 12.1034C26.3971 11.9748 26.2658 11.9381 26.1533 11.8646C25.1219 11.295 24.0905 10.7071 23.0778 10.1191C22.9653 10.064 22.834 9.99051 22.7215 10.064C18.4646 12.4893 14.1702 14.8777 9.932 17.3397ZM26.2095 14.1428C26.1908 15.5024 26.2095 16.8804 26.2095 18.24C26.2095 18.3686 26.1908 18.5156 26.247 18.6442C26.6596 18.9566 27.1284 19.1587 27.5785 19.4343C28.4974 19.9855 29.435 20.4632 30.3352 21.0144C30.3352 21.933 30.3352 22.8333 30.3352 23.7519C30.3164 24.0643 30.6352 24.2113 30.879 24.3399C31.5916 24.689 32.2105 25.1667 32.9606 25.4606C32.9793 23.017 32.9606 20.5918 32.9606 18.1482C32.9981 17.9093 32.7543 17.8174 32.5855 17.7072C31.0103 16.8253 29.4725 15.9434 27.8973 15.0615C27.316 14.7308 26.7721 14.4 26.2095 14.1428ZM40.218 14.3449C38.1364 15.5576 36.0361 16.6967 33.9545 17.9093C33.9545 20.4264 33.9545 22.9252 33.9545 25.4423C34.7421 25.0748 35.4547 24.5971 36.2236 24.1929C37.6863 23.3294 39.1866 22.5393 40.6305 21.6574C40.6118 19.177 40.6305 16.6967 40.6305 14.1979C40.4993 14.2347 40.3492 14.2714 40.218 14.3449ZM23.9217 17.3214C24.2967 17.597 24.7093 17.8726 25.1594 18.0195C25.1781 17.5602 25.1781 17.0825 25.1594 16.6232C24.7281 16.8437 24.3155 17.0825 23.9217 17.3214ZM9.38817 18.3135C9.36941 23.1824 9.38817 28.0329 9.36941 32.9017C10.8509 33.802 12.3699 34.6288 13.8701 35.4923C16.308 36.8887 18.7459 38.2483 21.1838 39.6446C21.5401 39.8467 21.8776 40.104 22.2902 40.2142C22.3089 35.3453 22.2902 30.4581 22.2902 25.5892C18.1645 23.2191 14.0014 20.8857 9.85699 18.5156C9.70697 18.4421 9.55694 18.3686 9.38817 18.3135ZM28.6849 22.5393C27.4097 23.2926 26.097 23.9908 24.8218 24.7441C24.3342 25.0564 23.7904 25.2769 23.3216 25.6444C23.3216 30.4949 23.3028 35.3637 23.3403 40.2142C23.6029 40.1591 23.8279 40.0121 24.0717 39.8651C28.1598 37.5501 32.248 35.2351 36.3174 32.9017C36.3174 30.6786 36.3361 28.4554 36.3174 26.2507C35.7923 26.4712 35.3422 26.8019 34.8734 27.0958C33.3919 27.9777 31.9292 28.8964 30.4665 29.7967C30.1102 29.9804 29.8101 30.2927 29.4163 30.3662C29.3975 27.6654 29.3975 24.9646 29.3788 22.2821C29.0975 22.3005 28.8912 22.4107 28.6849 22.5393ZM30.3727 25.3504C30.3727 26.3793 30.3727 27.4266 30.3914 28.4554C30.5602 28.4187 30.7665 28.4187 30.9165 28.3085C31.6666 27.8124 32.473 27.3714 33.2044 26.857C32.4355 26.3793 31.6479 25.9567 30.879 25.5158C30.729 25.4239 30.5602 25.3871 30.3727 25.3504Z" fill="#141414"/>
</svg>
