<svg width="50" height="50" viewBox="0 0 50 50" fill="none" xmlns="http://www.w3.org/2000/svg">
<path d="M10 13.7373L17.005 11.5352V14.8784C17.1292 14.8502 17.2253 14.836 17.3167 14.8055C17.8698 14.6361 18.4205 14.4549 18.9759 14.2926C19.0136 14.2869 19.0497 14.2737 19.0821 14.2536C19.1144 14.2336 19.1424 14.2071 19.1643 14.1759C19.1862 14.1446 19.2016 14.1093 19.2095 14.0719C19.2174 14.0345 19.2177 13.9959 19.2103 13.9585C19.2103 13.0174 19.2103 12.0575 19.2103 11.107C19.2103 10.9164 19.2548 10.827 19.4446 10.7682C21.2398 10.2153 23.0303 9.65062 24.8231 9.09537C24.9371 9.06131 25.0584 9.06131 25.1723 9.09537C26.9745 9.65297 28.7744 10.22 30.579 10.7776C30.6125 10.7825 30.6446 10.794 30.6737 10.8114C30.7027 10.8289 30.728 10.852 30.748 10.8794C30.7681 10.9067 30.7826 10.9378 30.7906 10.9708C30.7985 11.0038 30.7999 11.0381 30.7946 11.0717C30.7946 12.0316 30.7946 12.9915 30.7946 13.9514C30.7946 14.1396 30.8367 14.2361 31.0289 14.2926C31.6734 14.4808 32.3109 14.6855 32.9835 14.8949V11.5563C33.0866 11.5799 33.164 11.5893 33.239 11.6128L39.7658 13.6573C39.9087 13.702 40.0001 13.735 40.0001 13.9302C40.0001 15.7842 40.0001 17.6381 40.0001 19.4921C39.9982 19.5324 39.9935 19.5725 39.9861 19.6121L39.1401 19.3509C38.7042 19.2145 38.2706 19.0639 37.8276 18.9439C37.6331 18.8921 37.5933 18.8004 37.5933 18.6122C37.5933 17.5864 37.5933 16.5606 37.5933 15.5042L35.4068 14.8172V18.1816L28.4041 15.9889C28.4041 14.9584 28.4041 13.9538 28.4041 12.9468C28.4128 12.8978 28.4114 12.8476 28.4002 12.7992C28.3889 12.7508 28.3679 12.7052 28.3386 12.6651C28.3092 12.6251 28.272 12.5914 28.2293 12.5662C28.1866 12.5411 28.1392 12.5248 28.0901 12.5186C27.1315 12.2363 26.1801 11.9234 25.2239 11.634C25.0837 11.594 24.9352 11.594 24.795 11.634C23.8271 11.9234 22.8686 12.2363 21.9007 12.5257C21.8539 12.5314 21.8087 12.5465 21.7679 12.5702C21.727 12.5938 21.6914 12.6254 21.6629 12.6632C21.6345 12.7009 21.6139 12.744 21.6025 12.7899C21.591 12.8358 21.5888 12.8836 21.596 12.9303C21.6125 13.8714 21.596 14.8125 21.596 15.7536C21.6017 15.7897 21.6 15.8265 21.5912 15.8619C21.5824 15.8973 21.5666 15.9306 21.5447 15.9598C21.5229 15.989 21.4954 16.0134 21.464 16.0318C21.4325 16.0501 21.3978 16.0619 21.3617 16.0665C19.2009 16.7347 17.0448 17.4146 14.8887 18.0899C14.809 18.1157 14.7294 18.1322 14.6145 18.1628V14.8102C13.8833 15.0454 13.1896 15.2548 12.5053 15.483C12.4537 15.4995 12.4069 15.6077 12.4069 15.676C12.3858 17.9699 12.3577 20.2661 12.8076 22.5342C12.8076 22.5977 12.8381 22.6612 12.8615 22.7553C13.0092 22.713 13.1498 22.6777 13.2857 22.633C17.112 21.4425 20.9398 20.2528 24.7692 19.0639C24.9178 19.0215 25.0753 19.0215 25.2239 19.0639C29.8735 20.5069 34.5224 21.9507 39.1705 23.3953C39.4049 23.4682 39.4377 23.5553 39.3838 23.7905C38.8262 26.2482 37.9484 28.6214 36.773 30.8487C36.7332 30.924 36.6933 30.9946 36.6441 31.084L34.1764 30.3217C31.1969 29.3932 28.2174 28.4654 25.2379 27.5385C25.1092 27.4925 24.97 27.4851 24.8372 27.5173C21.8437 28.438 18.8533 29.3642 15.866 30.2958C15.8215 30.31 15.7793 30.3311 15.716 30.357C15.7419 30.4238 15.7717 30.489 15.805 30.5523C16.3417 31.3663 16.8854 32.178 17.4174 32.9944C17.4345 33.0292 17.4584 33.0601 17.4877 33.0853C17.5171 33.1104 17.5512 33.1293 17.588 33.1407C17.6249 33.1522 17.6637 33.156 17.7021 33.1519C17.7404 33.1477 17.7776 33.1358 17.8112 33.1168C20.0938 32.4015 22.378 31.6957 24.6638 30.9993C24.8462 30.9388 25.0418 30.9307 25.2286 30.9758C28.3627 31.9404 31.4945 32.9129 34.624 33.8932L34.8958 33.9849C34.2748 34.7472 33.6866 35.5025 33.0632 36.2247C31.0006 38.6475 28.5815 40.7397 25.8895 42.4289C25.6129 42.6006 25.3317 42.763 25.0528 42.93H24.9403C24.8992 42.893 24.8553 42.8592 24.8091 42.8289C23.5489 42.129 22.3543 41.3164 21.2398 40.4008C20.7383 39.9985 20.2555 39.5727 19.7282 39.128C20.6328 38.8457 21.4765 38.5751 22.3272 38.3234C22.4337 38.3198 22.5375 38.3568 22.6178 38.4269C23.3397 38.9492 24.0568 39.4739 24.7669 40.0103C24.8309 40.0692 24.9145 40.1018 25.0012 40.1018C25.088 40.1018 25.1716 40.0692 25.2356 40.0103C26.9849 38.8211 28.6075 37.454 30.0775 35.9306C30.3118 35.6954 30.5133 35.4601 30.7477 35.206C30.661 35.1731 30.6188 35.1542 30.5743 35.1401C28.7978 34.5896 27.0238 34.0343 25.245 33.4932C25.0794 33.4466 24.9043 33.4466 24.7388 33.4932C22.139 34.2931 19.5423 35.0993 16.9487 35.9118C16.8846 35.946 16.8103 35.9553 16.7398 35.9379C16.6694 35.9206 16.6077 35.8778 16.5667 35.8177C15.2769 34.2521 14.1442 32.5625 13.1849 30.7735C12.8639 30.1617 12.5569 29.5406 12.2475 28.9148C12.3483 28.8772 12.4162 28.8489 12.4819 28.8254C16.5863 27.5502 20.6907 26.2766 24.795 25.0046C24.9358 24.9634 25.0854 24.9634 25.2262 25.0046C28.1276 25.9002 31.0274 26.8005 33.9256 27.7055L35.4466 28.176C35.8333 27.1502 36.2082 26.1456 36.5879 25.1175C36.4684 25.0728 36.4074 25.0469 36.3535 25.0281C32.6272 23.8831 28.9049 22.7334 25.1864 21.579C25.0355 21.5406 24.8767 21.5471 24.7294 21.5978C21 22.7522 17.2713 23.9121 13.5435 25.0775L11.1413 25.8139C11.1212 25.7834 11.1039 25.7511 11.0898 25.7174C10.5964 23.948 10.2669 22.1365 10.1055 20.3062C10.0774 19.9344 10.0352 19.565 10 19.1933V13.7373Z" fill="black"/>
</svg>
