<svg width="50" height="50" viewBox="0 0 50 50" fill="none" xmlns="http://www.w3.org/2000/svg">
<g clip-path="url(#clip0_9176_15302)">
<path d="M25.4979 26.8071C20.6897 26.7463 15.194 27.438 11.3755 23.8707C10.3566 22.8694 9.16366 21.755 9.00245 20.2664C8.95318 19.6033 9.67587 19.3612 10.2222 19.3247C13.8764 19.2097 17.5325 19.2255 21.1861 19.2833C26.3849 19.7955 32.4877 17.9109 36.9996 21.1405C42.0853 24.9651 42.2903 33.3984 37.7959 37.7613C36.1285 39.4215 33.8491 40.1642 31.535 40.2543C26.1288 40.4465 20.7134 40.4252 15.306 40.4124C13.3544 40.2859 11.3178 40.6624 9.42463 40.0997C8.4951 39.6417 9.46782 37.723 9.93806 37.1536C11.9285 34.3535 15.3072 32.9896 18.6749 32.9434C22.6126 32.8053 26.554 32.95 30.4899 32.8813C32.9913 32.8977 34.4294 30.8349 33.6161 28.4831C32.6933 25.8375 27.7828 27.0797 25.4973 26.8071H25.4979Z" fill="#23BA2D"/>
<path d="M29.7812 16.5276C24.6779 16.5209 19.5467 16.5611 14.433 16.5739C13.127 16.3713 9.54997 17.0368 9.04932 15.7313C9.26345 13.3862 11.1687 11.6294 13.0576 10.437C15.9764 8.77568 19.5077 9.46066 22.7161 9.22037C27.1465 9.08167 31.5788 9.15102 36.0099 9.0914C37.3993 9.32743 41.1844 8.13754 40.7652 10.5234C39.1069 14.9137 34.1953 16.8014 29.7812 16.527V16.5276Z" fill="#0A589F"/>
</g>
<defs>
<clipPath id="clip0_9176_15302">
<rect width="32" height="31.4208" fill="white" transform="translate(9 8.99951)"/>
</clipPath>
</defs>
</svg>
