<svg width="50" height="50" viewBox="0 0 50 50" fill="none" xmlns="http://www.w3.org/2000/svg">
<path fill-rule="evenodd" clip-rule="evenodd" d="M11 26.9998H25.9915L40.6628 12.002H11V26.9998Z" fill="url(#paint0_linear_12515_44)"/>
<path fill-rule="evenodd" clip-rule="evenodd" d="M28.6035 15.0005H25.6739L25.6837 22.0428L23.1327 14.9982H20.6033L18.4257 20.8816C18.1941 19.3845 16.6798 18.8679 15.4883 18.481C14.7014 18.2227 13.8663 17.8427 13.8748 17.4228C13.8813 17.0782 14.3215 16.7586 15.1964 16.8062C15.7834 16.8386 16.3019 16.8869 17.3333 17.3961L18.3474 15.5897C17.407 15.1005 16.1065 14.7915 15.0402 14.7905H15.0337C13.7903 14.7905 12.755 15.2021 12.1133 15.8804C11.6659 16.3536 11.4246 16.9555 11.4148 17.6211C11.3985 18.537 11.7269 19.1862 12.4169 19.7051C12.9999 20.1418 13.7457 20.425 14.4027 20.633C15.213 20.8896 15.875 21.1129 15.8669 21.5882C15.8614 21.7625 15.7929 21.9286 15.6745 22.0541C15.4723 22.2675 15.1625 22.3474 14.7337 22.3561C13.9064 22.3741 13.2934 22.2411 12.3164 21.6509L11.4141 23.4806C12.3901 24.0479 13.4261 24.3325 14.6033 24.3325L14.868 24.3305C15.8926 24.3115 16.7241 24.0605 17.3848 23.5173C17.4226 23.4863 17.4565 23.455 17.4917 23.4233L17.3809 24.0072L19.8526 23.9992L20.2961 22.8387C20.7624 23.0013 21.2926 23.0913 21.8554 23.0913C22.4039 23.0913 22.9198 23.006 23.3773 22.8527L23.6864 23.9992L28.1212 24.0035L28.132 21.3579H29.0757C31.3566 21.3579 32.705 20.1714 32.705 18.1817C32.7043 15.9657 31.3935 15.0005 28.6035 15.0005ZM21.8554 21.0203C21.5364 21.0225 21.2196 20.9658 20.9202 20.853L21.845 17.8684H21.8629L22.7727 20.8613C22.4988 20.9613 22.1871 21.0203 21.8554 21.0203ZM28.775 19.3055H28.1313V16.9002H28.7753C29.6329 16.9002 30.3177 17.1922 30.3177 18.0874C30.3171 19.0139 29.6326 19.3055 28.775 19.3055Z" fill="white"/>
<path d="M14.082 36.6953C15.0945 36.6953 15.6914 37.2846 15.6914 38.0156H14.9688C14.9688 37.6643 14.6569 37.2891 14.082 37.2891C13.4929 37.2891 13.2422 37.5924 13.2422 37.9102C13.2422 38.2154 13.4122 38.383 14.2148 38.5625C15.2539 38.7969 15.7344 39.1445 15.7344 39.8242C15.7344 40.6971 14.8551 41.0781 14.1016 41.0781C12.9844 41.0781 12.3711 40.3984 12.3711 39.6953H13.0977C13.1262 40.2382 13.6132 40.4844 14.1016 40.4844C14.702 40.4844 15.0117 40.2285 15.0117 39.8789C15.0117 39.5647 14.8756 39.3126 14.0391 39.1484C13.116 38.9536 12.5156 38.6343 12.5156 37.9297C12.5156 37.1223 13.3619 36.6953 14.082 36.6953Z" fill="#7F8BA5"/>
<path fill-rule="evenodd" clip-rule="evenodd" d="M27.2344 36.6953C28.161 36.6953 28.8047 37.165 28.8047 38.1094C28.8047 38.9047 28.7233 39.7375 28.8398 40.5273C28.8656 40.6848 28.9531 40.8435 28.9531 41H28.1992C28.1373 40.8584 28.1165 40.7031 28.0996 40.5508C27.8326 40.8313 27.4265 41.0781 26.8945 41.0781C26.0395 41.0781 25.4648 40.5279 25.4648 39.8242C25.4648 38.9064 26.2186 38.4375 27.3672 38.4375H28.082V38.1016C28.082 37.599 27.7759 37.2773 27.1914 37.2773C26.6524 37.2773 26.2773 37.589 26.2773 37.9453H25.5547C25.5547 37.1168 26.5269 36.6953 27.2344 36.6953ZM27.4844 38.9453C26.6674 38.9453 26.1914 39.1975 26.1914 39.7266C26.1914 40.1261 26.4716 40.4453 27 40.4453C27.4427 40.4453 27.7904 40.2318 27.9883 39.9609C28.0268 39.9095 28.057 39.8579 28.082 39.8076V38.9453H27.4844Z" fill="#7F8BA5"/>
<path fill-rule="evenodd" clip-rule="evenodd" d="M36.0078 36.6953C36.9344 36.6953 37.5781 37.165 37.5781 38.1094C37.5781 38.9047 37.4967 39.7375 37.6133 40.5273C37.6391 40.6848 37.7266 40.8435 37.7266 41H36.9727C36.9107 40.8584 36.8899 40.7031 36.873 40.5508C36.6061 40.8313 36.1999 41.0781 35.668 41.0781C34.813 41.0781 34.2383 40.5279 34.2383 39.8242C34.2383 38.9064 34.992 38.4375 36.1406 38.4375H36.8555V38.1016C36.8555 37.599 36.5493 37.2773 35.9648 37.2773C35.4259 37.2773 35.0508 37.589 35.0508 37.9453H34.3281C34.3281 37.1168 35.3003 36.6953 36.0078 36.6953ZM36.2578 38.9453C35.4408 38.9453 34.9648 39.1975 34.9648 39.7266C34.9648 40.1261 35.245 40.4453 35.7734 40.4453C36.2159 40.4453 36.6554 40.2092 36.8555 39.8076V38.9453H36.2578Z" fill="#7F8BA5"/>
<path fill-rule="evenodd" clip-rule="evenodd" d="M19.6562 39.0859H20.4492V39.6797H19.6562V41H18.9336V39.6797H16.3398V39.2539L18.8867 35.3125H19.6562V39.0859ZM17.1602 39.0859H18.9336V36.291L17.1602 39.0859Z" fill="#7F8BA5"/>
<path d="M21.9062 37.2793C21.9089 37.2761 21.9114 37.2727 21.9141 37.2695C22.2184 36.9022 22.6457 36.6953 23.1523 36.6953C23.9846 36.6953 24.5078 37.1103 24.5078 38.2305V41H23.7812V38.2227C23.7812 37.5497 23.4786 37.3047 22.9375 37.3047C22.4771 37.3047 22.111 37.5775 21.9062 37.9863V41H21.1836V35H21.9062V37.2793Z" fill="#7F8BA5"/>
<path d="M31.9102 36.6953C32.8473 36.6953 33.2656 37.3811 33.2656 38.2305V41H32.5391V38.2227C32.5391 37.5497 32.2364 37.3047 31.6953 37.3047C31.2349 37.3047 30.8688 37.5775 30.6641 37.9863V41H29.9414V36.7734H30.625L30.6475 37.3008C30.9524 36.9158 31.3895 36.6953 31.9102 36.6953Z" fill="#7F8BA5"/>
<defs>
<linearGradient id="paint0_linear_12515_44" x1="25.8314" y1="12.002" x2="25.8314" y2="27.0002" gradientUnits="userSpaceOnUse">
<stop stop-color="#00AEEF"/>
<stop offset="0.212" stop-color="#0097DC"/>
<stop offset="0.519" stop-color="#007CC5"/>
<stop offset="0.792" stop-color="#006CB8"/>
<stop offset="1" stop-color="#0066B3"/>
</linearGradient>
</defs>
</svg>
