<svg width="50" height="50" viewBox="0 0 50 50" fill="none" xmlns="http://www.w3.org/2000/svg">
<path d="M24.2686 25.6286C21.7633 25.6286 19.6746 23.5395 19.6746 21.0341C19.6746 18.5287 21.6931 16.4404 24.2686 16.4404C25.5219 16.4404 26.7051 16.9277 27.4712 17.7623L29.8375 15.3955C28.3759 13.9339 26.4266 13.0985 24.2001 13.0985C19.8144 13.0985 16.2653 16.6492 16.2653 21.0333C16.2653 25.4178 19.8156 28.9681 24.2001 28.9681C26.3581 28.9681 28.3767 28.0634 29.8375 26.6715L27.4712 24.3048C26.6358 25.0716 25.5219 25.6286 24.2686 25.6286Z" fill="#F0AB00"/>
<path d="M30.9513 19.0157C29.8375 19.0157 28.9327 19.9212 28.9327 21.0343C28.9327 22.1485 29.8375 23.0532 30.9513 23.0532C32.0644 23.0532 32.9699 22.1485 32.9699 21.0343C32.9699 19.9212 32.0644 19.0157 30.9513 19.0157Z" fill="#F0AB00"/>
<path d="M10 36H40V6H10V36ZM13.3404 32.5891V9.34077H36.5883V32.5899L13.3404 32.5891Z" fill="#F0AB00"/>
<path d="M27.3955 42.6074V43.3496H22.2588V42.8174L25.4424 37.8906H26.1797L25.3887 39.3164L23.2842 42.6074H27.3955Z" fill="black"/>
<path d="M26.4043 37.8906V45H25.501V37.8906H26.4043Z" fill="black"/>
</svg>
