<svg width="50" height="50" viewBox="0 0 50 50" fill="none" xmlns="http://www.w3.org/2000/svg">
<path d="M17.1113 34.1685L14.9932 40H14.1274L16.5664 33.6016H17.1245L17.1113 34.1685ZM18.8867 40L16.7642 34.1685L16.751 33.6016H17.3091L19.7568 40H18.8867ZM18.7769 37.6313V38.3257H15.1821V37.6313H18.7769Z" fill="black"/>
<path d="M21.3037 35.9922V40H20.4907V35.2451H21.2817L21.3037 35.9922ZM22.7891 35.2188L22.7847 35.9746C22.7173 35.96 22.6528 35.9512 22.5913 35.9482C22.5327 35.9424 22.4653 35.9395 22.3892 35.9395C22.2017 35.9395 22.0361 35.9688 21.8926 36.0273C21.749 36.0859 21.6274 36.168 21.5278 36.2734C21.4282 36.3789 21.3491 36.5049 21.2905 36.6514C21.2349 36.7949 21.1982 36.9531 21.1807 37.126L20.9521 37.2578C20.9521 36.9707 20.98 36.7012 21.0356 36.4492C21.0942 36.1973 21.1836 35.9746 21.3037 35.7812C21.4238 35.585 21.5762 35.4326 21.7607 35.3242C21.9482 35.2129 22.1709 35.1572 22.4287 35.1572C22.4873 35.1572 22.5547 35.1646 22.6309 35.1792C22.707 35.1909 22.7598 35.2041 22.7891 35.2188Z" fill="black"/>
<path d="M24.4238 35.2451V40H23.6064V35.2451H24.4238ZM23.5449 33.9839C23.5449 33.8521 23.5845 33.7407 23.6636 33.6499C23.7456 33.5591 23.8657 33.5137 24.0239 33.5137C24.1792 33.5137 24.2979 33.5591 24.3799 33.6499C24.4648 33.7407 24.5073 33.8521 24.5073 33.9839C24.5073 34.1099 24.4648 34.2183 24.3799 34.3091C24.2979 34.397 24.1792 34.4409 24.0239 34.4409C23.8657 34.4409 23.7456 34.397 23.6636 34.3091C23.5845 34.2183 23.5449 34.1099 23.5449 33.9839Z" fill="black"/>
<path d="M25.7246 33.25H26.542V39.0771L26.4717 40H25.7246V33.25ZM29.7544 37.583V37.6753C29.7544 38.021 29.7134 38.3418 29.6313 38.6377C29.5493 38.9307 29.4292 39.1855 29.271 39.4023C29.1128 39.6191 28.9194 39.7876 28.6909 39.9077C28.4624 40.0278 28.2002 40.0879 27.9043 40.0879C27.6025 40.0879 27.3374 40.0366 27.1089 39.9341C26.8833 39.8286 26.6929 39.6777 26.5376 39.4814C26.3823 39.2852 26.2578 39.0479 26.1641 38.7695C26.0732 38.4912 26.0103 38.1777 25.9751 37.8291V37.4248C26.0103 37.0732 26.0732 36.7583 26.1641 36.48C26.2578 36.2017 26.3823 35.9644 26.5376 35.7681C26.6929 35.5688 26.8833 35.418 27.1089 35.3154C27.3345 35.21 27.5967 35.1572 27.8955 35.1572C28.1943 35.1572 28.4595 35.2158 28.6909 35.333C28.9224 35.4473 29.1157 35.6113 29.271 35.8252C29.4292 36.0391 29.5493 36.2954 29.6313 36.5942C29.7134 36.8901 29.7544 37.2197 29.7544 37.583ZM28.937 37.6753V37.583C28.937 37.3457 28.915 37.123 28.8711 36.915C28.8271 36.7041 28.7568 36.5195 28.6602 36.3613C28.5635 36.2002 28.436 36.0742 28.2778 35.9834C28.1196 35.8896 27.9248 35.8428 27.6934 35.8428C27.4883 35.8428 27.3096 35.8779 27.1572 35.9482C27.0078 36.0186 26.8804 36.1138 26.7749 36.2339C26.6694 36.3511 26.583 36.4858 26.5156 36.6382C26.4512 36.7876 26.4028 36.9429 26.3706 37.104V38.1631C26.4175 38.3682 26.4937 38.5659 26.5991 38.7563C26.7075 38.9438 26.8511 39.0977 27.0298 39.2178C27.2114 39.3379 27.4355 39.3979 27.7021 39.3979C27.9219 39.3979 28.1094 39.354 28.2646 39.2661C28.4229 39.1753 28.5503 39.0508 28.647 38.8926C28.7466 38.7344 28.8198 38.5513 28.8667 38.3433C28.9136 38.1353 28.937 37.9126 28.937 37.6753Z" fill="black"/>
<path d="M33.5864 39.187V36.7393C33.5864 36.5518 33.5483 36.3892 33.4722 36.2515C33.3989 36.1108 33.2876 36.0024 33.1382 35.9263C32.9888 35.8501 32.8042 35.812 32.5845 35.812C32.3794 35.812 32.1992 35.8472 32.0439 35.9175C31.8916 35.9878 31.7715 36.0801 31.6836 36.1943C31.5986 36.3086 31.5562 36.4316 31.5562 36.5635H30.7432C30.7432 36.3936 30.7871 36.2251 30.875 36.0581C30.9629 35.8911 31.0889 35.7402 31.2529 35.6055C31.4199 35.4678 31.6191 35.3594 31.8506 35.2803C32.085 35.1982 32.3457 35.1572 32.6328 35.1572C32.9785 35.1572 33.2832 35.2158 33.5469 35.333C33.8135 35.4502 34.0215 35.6274 34.1709 35.8647C34.3232 36.0991 34.3994 36.3936 34.3994 36.748V38.9629C34.3994 39.1211 34.4126 39.2896 34.439 39.4683C34.4683 39.647 34.5107 39.8008 34.5664 39.9297V40H33.7183C33.6772 39.9062 33.645 39.7817 33.6216 39.6265C33.5981 39.4683 33.5864 39.3218 33.5864 39.187ZM33.7271 37.1172L33.7358 37.6885H32.9141C32.6826 37.6885 32.4761 37.7075 32.2944 37.7456C32.1128 37.7808 31.9604 37.835 31.8374 37.9082C31.7144 37.9814 31.6206 38.0737 31.5562 38.1851C31.4917 38.2935 31.4595 38.4209 31.4595 38.5674C31.4595 38.7168 31.4932 38.853 31.5605 38.9761C31.6279 39.0991 31.729 39.1973 31.8638 39.2705C32.0015 39.3408 32.1699 39.376 32.3691 39.376C32.6182 39.376 32.8379 39.3232 33.0283 39.2178C33.2188 39.1123 33.3696 38.9834 33.481 38.8311C33.5952 38.6787 33.6567 38.5308 33.6655 38.3872L34.0127 38.7783C33.9922 38.9014 33.9365 39.0376 33.8457 39.187C33.7549 39.3364 33.6333 39.48 33.481 39.6177C33.3315 39.7524 33.1528 39.8652 32.9448 39.9561C32.7397 40.0439 32.5083 40.0879 32.2505 40.0879C31.9282 40.0879 31.6455 40.0249 31.4023 39.8989C31.1621 39.7729 30.9746 39.6045 30.8398 39.3936C30.708 39.1797 30.6421 38.9409 30.6421 38.6772C30.6421 38.4224 30.6919 38.1982 30.7915 38.0049C30.8911 37.8086 31.0347 37.646 31.2222 37.5171C31.4097 37.3853 31.6353 37.2856 31.8989 37.2183C32.1626 37.1509 32.457 37.1172 32.7822 37.1172H33.7271Z" fill="black"/>
</svg>
