<svg width="50" height="50" viewBox="0 0 50 50" fill="none" xmlns="http://www.w3.org/2000/svg">
<path fill-rule="evenodd" clip-rule="evenodd" d="M11 26.9998H25.9915L40.6628 12.002H11V26.9998Z" fill="url(#paint0_linear_12457_15360)"/>
<path fill-rule="evenodd" clip-rule="evenodd" d="M28.6035 15.0005H25.6739L25.6837 22.0428L23.1327 14.9982H20.6033L18.4257 20.8816C18.1941 19.3845 16.6798 18.8679 15.4883 18.481C14.7014 18.2227 13.8663 17.8427 13.8748 17.4228C13.8813 17.0782 14.3215 16.7586 15.1964 16.8062C15.7834 16.8386 16.3019 16.8869 17.3333 17.3961L18.3474 15.5897C17.407 15.1005 16.1065 14.7915 15.0402 14.7905H15.0337C13.7903 14.7905 12.755 15.2021 12.1133 15.8804C11.6659 16.3536 11.4246 16.9555 11.4148 17.6211C11.3985 18.537 11.7269 19.1862 12.4169 19.7051C12.9999 20.1418 13.7457 20.425 14.4027 20.633C15.213 20.8896 15.875 21.1129 15.8669 21.5882C15.8614 21.7625 15.7929 21.9286 15.6745 22.0541C15.4723 22.2675 15.1625 22.3474 14.7337 22.3561C13.9064 22.3741 13.2934 22.2411 12.3164 21.6509L11.4141 23.4806C12.3901 24.0479 13.4261 24.3325 14.6033 24.3325L14.868 24.3305C15.8926 24.3115 16.7241 24.0605 17.3848 23.5173C17.4226 23.4863 17.4565 23.455 17.4917 23.4233L17.3809 24.0072L19.8526 23.9992L20.2961 22.8387C20.7624 23.0013 21.2926 23.0913 21.8554 23.0913C22.4039 23.0913 22.9198 23.006 23.3773 22.8527L23.6864 23.9992L28.1212 24.0035L28.132 21.3579H29.0757C31.3566 21.3579 32.705 20.1714 32.705 18.1817C32.7043 15.9657 31.3935 15.0005 28.6035 15.0005ZM21.8554 21.0203C21.5364 21.0225 21.2196 20.9658 20.9202 20.853L21.845 17.8684H21.8629L22.7727 20.8613C22.4988 20.9613 22.1871 21.0203 21.8554 21.0203ZM28.775 19.3055H28.1313V16.9002H28.7753C29.6329 16.9002 30.3177 17.1922 30.3177 18.0874C30.3171 19.0139 29.6326 19.3055 28.775 19.3055Z" fill="white"/>
<path fill-rule="evenodd" clip-rule="evenodd" d="M26.542 35.7635C26.8531 35.3674 27.3019 35.1571 27.8955 35.1571C29.087 35.1571 29.7549 36.1233 29.7549 37.5828C29.7549 38.7403 29.2273 40.0877 27.9043 40.0877C27.2863 40.0877 26.8265 39.8608 26.5137 39.4471L26.4717 39.9998H25.7246V33.2498H26.542V35.7635ZM27.6934 35.8426C27.1116 35.8426 26.7524 36.151 26.542 36.5838V38.6444C26.7484 39.0682 27.1211 39.3983 27.7022 39.3983C28.6957 39.3983 28.9375 38.3882 28.9375 37.5828C28.9375 36.6157 28.6042 35.8426 27.6934 35.8426Z" fill="#7F8BA5"/>
<path fill-rule="evenodd" clip-rule="evenodd" d="M32.6328 35.1571C33.3274 35.1571 33.8735 35.3926 34.1709 35.8651C34.3231 36.0994 34.3994 36.3936 34.3994 36.7479V38.9627C34.3994 39.1209 34.4131 39.2899 34.4395 39.4686C34.4685 39.6454 34.5664 39.8239 34.5664 39.9998H33.7188C33.649 39.8404 33.6254 39.6655 33.6065 39.494C33.3063 39.8095 32.8492 40.0876 32.251 40.0877C31.2894 40.0877 30.6428 39.4688 30.6426 38.6776C30.6426 37.6453 31.4904 37.117 32.7822 37.117H33.5869V36.7391C33.5869 36.5519 33.5486 36.3894 33.4727 36.2518C33.3263 35.9708 33.0238 35.8124 32.585 35.8123C31.9787 35.8123 31.5566 36.1625 31.5566 36.5633H30.7432C30.7432 35.6316 31.8373 35.1571 32.6328 35.1571ZM32.9141 37.6883C31.9957 37.6883 31.46 37.9722 31.46 38.5672C31.46 39.0164 31.7751 39.3758 32.3691 39.3758C32.8679 39.3758 33.3622 39.1099 33.5869 38.6571V37.6883H32.9141Z" fill="#7F8BA5"/>
<path fill-rule="evenodd" clip-rule="evenodd" d="M19.7568 39.9998H18.8867L18.2774 38.326H15.6016L14.9932 39.9998H14.127L16.5664 33.6014H17.3096L19.7568 39.9998ZM15.8535 37.6317H18.0244L16.9375 34.6453L15.8535 37.6317Z" fill="#7F8BA5"/>
<path d="M22.4287 35.1571C22.5455 35.1571 22.7303 35.1892 22.7891 35.2186L22.7852 35.9744C22.6537 35.9459 22.5451 35.9393 22.3897 35.9393C21.8401 35.9393 21.4837 36.2008 21.3037 36.6219V39.9998H20.4912V35.245H21.2822L21.2979 35.7909C21.2998 35.7876 21.3017 35.7843 21.3037 35.7811C21.5462 35.3848 21.9178 35.1571 22.4287 35.1571Z" fill="#7F8BA5"/>
<path d="M24.4238 39.9998H23.6065V35.245H24.4238V39.9998Z" fill="#7F8BA5"/>
<path d="M24.0244 33.5135C24.337 33.5137 24.5078 33.7229 24.5078 33.9842C24.5076 34.2315 24.3397 34.4411 24.0244 34.4412C23.7082 34.4412 23.5451 34.2354 23.5449 33.9842C23.5449 33.7184 23.7106 33.5135 24.0244 33.5135Z" fill="#7F8BA5"/>
<defs>
<linearGradient id="paint0_linear_12457_15360" x1="25.8314" y1="12.002" x2="25.8314" y2="40.0884" gradientUnits="userSpaceOnUse">
<stop stop-color="#00AEEF"/>
<stop offset="0.212" stop-color="#0097DC"/>
<stop offset="0.519" stop-color="#007CC5"/>
<stop offset="0.792" stop-color="#006CB8"/>
<stop offset="1" stop-color="#0066B3"/>
</linearGradient>
</defs>
</svg>
