<svg width="50" height="50" viewBox="0 0 50 50" fill="none" xmlns="http://www.w3.org/2000/svg">
<path d="M24.2199 29.9371C21.5475 29.9371 19.3196 27.7088 19.3196 25.0364C19.3196 22.364 21.4727 20.1365 24.2199 20.1365C25.5567 20.1365 26.8188 20.6562 27.6359 21.5464L30.16 19.0219C28.6009 17.4628 26.5217 16.5717 24.1468 16.5717C19.4687 16.5717 15.683 20.3591 15.683 25.0355C15.683 29.7124 19.47 33.4994 24.1468 33.4994C26.4486 33.4994 28.6018 32.5343 30.16 31.0496L27.6359 28.5251C26.7448 29.3431 25.5567 29.9371 24.2199 29.9371Z" fill="#F0AB00"/>
<path d="M31.3481 22.8834C30.16 22.8834 29.1949 23.8493 29.1949 25.0366C29.1949 26.2251 30.16 27.1901 31.3481 27.1901C32.5353 27.1901 33.5012 26.2251 33.5012 25.0366C33.5012 23.8493 32.5353 22.8834 31.3481 22.8834Z" fill="#F0AB00"/>
<path d="M9 41H41V9H9V41ZM12.5631 37.3617V12.5635H37.3609V37.3626L12.5631 37.3617Z" fill="#F0AB00"/>
</svg>
