<svg width="50" height="50" viewBox="0 0 50 50" fill="none" xmlns="http://www.w3.org/2000/svg">
<path d="M20.0728 9.69856L8.81568 30.7117H11.4346C11.8617 30.7117 12.2543 30.4777 12.4562 30.1027L21.2378 13.7953L30.1013 30.1066C30.3039 30.4794 30.6953 30.7117 31.1208 30.7117H33.7427L22.4088 9.69534C21.9081 8.76676 20.5709 8.76861 20.0728 9.69856Z" fill="#EFAB00"/>
<path d="M22.8941 24.2752L21.2378 21.3871L16.1861 30.7117H18.7983C19.229 30.7117 19.6242 30.4739 19.8246 30.094L22.8941 24.2752Z" fill="#EFAB00"/>
<path d="M28.7496 9.0917H26.2066L37.6369 30.0261C37.8399 30.3978 38.2306 30.6292 38.6553 30.6292H41.2788L29.7664 9.69187C29.5629 9.32179 29.1731 9.0917 28.7496 9.0917Z" fill="#EFAB00"/>
<path d="M8.29194 34.0244C8.96752 34.0244 9.64674 34.2744 10.1381 34.741L9.46525 35.5791C9.06994 35.2802 8.67884 35.1307 8.29194 35.1307C7.95611 35.1307 7.53918 35.2582 7.53918 35.6587C7.53918 36.0851 8.10608 36.2322 8.42652 36.3585C9.31836 36.714 10.3147 37.0879 10.3147 38.2274C10.3147 39.3778 9.19186 40 8.14055 40C7.34699 40 6.574 39.7121 6 39.1619L6.68548 38.3238C7.08529 38.684 7.6255 38.8979 8.16578 38.8979C8.53622 38.8979 9.00266 38.7723 9.00266 38.3238C9.00266 37.8966 8.48113 37.7587 8.15737 37.624C7.28401 37.2545 6.2313 36.8585 6.2313 35.73C6.2313 34.6551 7.30411 34.0244 8.29194 34.0244Z" fill="#0074C8"/>
<path fill-rule="evenodd" clip-rule="evenodd" d="M36.6405 35.2187L36.6027 35.8976C36.9249 35.6186 37.3411 35.4031 37.776 35.4031C38.9951 35.4031 39.5086 36.5867 39.5086 37.6324C39.5086 38.7104 38.8988 40 37.6498 40C37.1968 40 36.7972 39.7527 36.4976 39.4301H36.4639L36.3546 39.8952H35.3537V33.6976H36.6405V35.2187ZM37.4101 36.4465C37.1438 36.4465 36.8873 36.582 36.6405 36.853V38.6758C36.8383 38.85 37.0844 38.9608 37.3513 38.9608C38.0301 38.9608 38.1923 38.1808 38.1923 37.6492C38.1923 36.8474 37.9316 36.4465 37.4101 36.4465Z" fill="#0074C8"/>
<path fill-rule="evenodd" clip-rule="evenodd" d="M42.2632 35.4031C42.8239 35.4031 43.2528 35.5665 43.55 35.8934C43.85 36.2202 44 36.7175 44 37.3852V39.8952H42.9529L42.8645 39.4469H42.8309C42.4675 39.7603 42.0353 40 41.544 40C40.7896 40 40.2278 39.4364 40.2278 38.6842C40.2278 38.2205 40.424 37.8601 40.8165 37.6031C41.2118 37.3433 41.8468 37.1673 42.7216 37.0751C42.6976 36.657 42.4253 36.4214 42.0108 36.4214C41.5931 36.4214 41.1985 36.6016 40.8417 36.8027L40.3876 35.9856C40.9481 35.6322 41.5955 35.4031 42.2632 35.4031ZM42.7216 37.8461C42.3194 37.9 41.4515 38.0099 41.4515 38.5794C41.4515 38.8827 41.7011 39.0111 41.9772 39.0111C42.2813 39.0111 42.5143 38.8404 42.7216 38.6339V37.8461Z" fill="#0074C8"/>
<path fill-rule="evenodd" clip-rule="evenodd" d="M15.7523 39.8952H14.394L14.0281 38.5082H12.245L11.8792 39.8952H10.5713L12.388 34.1292H13.923L15.7523 39.8952ZM13.1155 35.1014C12.9298 35.9085 12.7187 36.7095 12.51 37.5109H13.7632C13.5542 36.7088 13.3579 35.9035 13.1492 35.1014H13.1155Z" fill="#0074C8"/>
<path fill-rule="evenodd" clip-rule="evenodd" d="M18.3555 34.1292C19.5686 34.1292 20.6432 34.6721 20.6432 35.9772C20.6432 37.2608 19.5609 37.9257 18.3891 37.9257H17.6616V39.8952H16.3747V34.1292H18.3555ZM17.6616 36.9075H18.3092C19.0325 36.9075 19.3942 36.5974 19.3942 35.9772C19.3942 35.3284 18.8409 35.1475 18.2756 35.1475H17.6616V36.9075Z" fill="#0074C8"/>
<path fill-rule="evenodd" clip-rule="evenodd" d="M28.8816 39.8952H27.5232L27.1574 38.5082H25.3743L25.0084 39.8952H23.7005L25.6392 34.1292H26.952L28.8816 39.8952ZM25.6392 37.5109H26.8924L26.2894 35.6252L25.6392 37.5109Z" fill="#0074C8"/>
<path d="M32.0945 36.5806C31.9488 36.5415 31.8038 36.5261 31.6529 36.5261C31.1763 36.5261 30.8418 36.9332 30.6857 37.3391V39.8952H29.3988V35.5079H30.446L30.5427 36.2789H30.568C30.7278 35.9884 30.9198 35.7705 31.1441 35.6252C31.3684 35.4771 31.5941 35.4031 31.8212 35.4031H32.0945V36.5806Z" fill="#0074C8"/>
<path d="M34.2014 39.8952H32.9146V35.5079H34.2014V39.8952Z" fill="#0074C8"/>
<path d="M34.1568 35.0027H32.9974V33.8475H34.1568V35.0027Z" fill="#0074C8"/>
</svg>
