<svg width="50" height="50" viewBox="0 0 50 50" fill="none" xmlns="http://www.w3.org/2000/svg">
<path fill-rule="evenodd" clip-rule="evenodd" d="M6 29.9998H25.4085L44.4024 11.0024H6V29.9998Z" fill="url(#paint0_linear_10037_2531)"/>
<path fill-rule="evenodd" clip-rule="evenodd" d="M28.79 14.8009H24.9973L25.01 23.7212L21.7074 14.7979H18.4327L15.6135 22.2504C15.3137 20.354 13.3532 19.6997 11.8106 19.2095C10.792 18.8824 9.71081 18.4011 9.72179 17.8692C9.73023 17.4327 10.3001 17.0278 11.4328 17.0882C12.1927 17.1291 12.8639 17.1903 14.1992 17.8354L15.5122 15.5473C14.2946 14.9275 12.6111 14.5362 11.2306 14.5349H11.2222C9.07071 14.5349 6.57364 15.6814 6.537 18.1204C6.51589 19.2805 6.94101 20.1028 7.8343 20.7601C8.58913 21.3132 9.55461 21.672 10.4053 21.9354C11.4543 22.2605 12.3113 22.5434 12.3008 23.1454C12.2765 23.9048 11.458 24.1057 10.8338 24.118C9.76274 24.1408 8.96907 23.9724 7.70427 23.2247L6.53615 25.5424C7.79968 26.2609 9.14089 26.6214 10.6649 26.6214C11.9967 26.6116 13.374 26.3761 14.4044 25.4698L14.2609 26.2094L17.4609 26.1993L18.035 24.7293C18.6387 24.9353 19.3251 25.0493 20.0538 25.0493C20.7639 25.0493 21.4317 24.9412 22.024 24.747L22.4242 26.1993L28.1656 26.2048L28.1796 22.8536H29.4013C32.3543 22.8536 34.1 21.3507 34.1 18.8304C34.0991 16.0235 32.402 14.8009 28.79 14.8009ZM20.0538 22.426C19.6407 22.4288 19.2306 22.357 18.843 22.2141L20.0403 18.4336H20.0635L21.2413 22.2246C20.8867 22.3513 20.4831 22.426 20.0538 22.426ZM29.0121 20.254H28.1787V17.2072H29.0125C30.1228 17.2072 31.0093 17.577 31.0093 18.711C31.0085 19.8846 30.1223 20.254 29.0121 20.254Z" fill="white"/>
<path fill-rule="evenodd" clip-rule="evenodd" d="M24.0801 35.6191C25.5808 35.6191 26.1455 37.1018 26.1455 38.417C26.1455 39.938 25.4171 41.0977 24.0947 41.0977C23.444 41.0977 22.9424 40.8825 22.5859 40.4834V43.0312H21.6777V35.7168H22.5078L22.5518 36.2969C22.7307 36.0758 22.9475 35.9088 23.2012 35.7949C23.4551 35.6777 23.748 35.6191 24.0801 35.6191ZM23.8164 36.3809C23.5885 36.3809 23.39 36.4199 23.2207 36.498C23.0547 36.5762 22.9131 36.682 22.7959 36.8154C22.7158 36.9045 22.6463 37.0031 22.5859 37.1104V39.627C22.5976 39.6483 22.6079 39.6704 22.6201 39.6914C22.8536 40.0871 23.2315 40.3555 23.8262 40.3555C24.8446 40.3555 25.2373 39.3031 25.2373 38.417C25.2373 37.5022 24.8911 36.3809 23.8164 36.3809Z" fill="#7F8BA5"/>
<path fill-rule="evenodd" clip-rule="evenodd" d="M9.84668 35.6191C11.3548 35.6191 12.2588 36.904 12.2588 38.3047C12.2588 39.7537 11.4392 41.0977 9.85645 41.0977C8.38851 41.0977 7.44922 39.8371 7.44922 38.417V38.3047C7.44922 36.9127 8.34422 35.6191 9.84668 35.6191ZM9.84668 36.3613C8.76445 36.3613 8.35254 37.4788 8.35254 38.417C8.35254 39.464 8.84939 40.3555 9.85645 40.3555C10.8807 40.3555 11.3506 39.3325 11.3506 38.417V38.3047C11.3506 37.3892 10.8703 36.3613 9.84668 36.3613Z" fill="#7F8BA5"/>
<path fill-rule="evenodd" clip-rule="evenodd" d="M32.6738 35.6191C34.1246 35.6191 34.8467 36.8381 34.8467 38.207V38.6123H31.2754C31.298 39.5083 31.8616 40.3604 32.8398 40.3604C33.4779 40.3604 33.8994 40.0788 34.2314 39.6426L34.7783 40.0771C34.4378 40.5928 33.8437 41.0977 32.791 41.0977C31.3308 41.0977 30.3643 40.0356 30.3643 38.5439V38.3389C30.3643 36.6092 31.4914 35.6191 32.6738 35.6191ZM32.6738 36.3613C31.9632 36.3613 31.423 36.896 31.2998 37.875H33.9434C33.9434 37.1246 33.4962 36.3613 32.6738 36.3613Z" fill="#7F8BA5"/>
<path d="M15.8525 35.6191C16.8929 35.6191 17.5469 36.1379 17.5469 37.5381V41H16.6387V37.5283C16.6387 36.6872 16.2603 36.3809 15.584 36.3809C15.1379 36.3809 14.7639 36.5787 14.4951 36.9131C14.4184 37.0109 14.3524 37.1177 14.2949 37.2324V41H13.3916V35.7168H14.2461L14.2744 36.377C14.2848 36.3638 14.294 36.3498 14.3047 36.3369C14.6851 35.8778 15.2193 35.6191 15.8525 35.6191Z" fill="#7F8BA5"/>
<path d="M29.4512 35.6191C29.581 35.6191 29.7862 35.6548 29.8516 35.6875L29.8467 36.5273C29.7002 36.4955 29.5804 36.4883 29.4072 36.4883C28.7967 36.4883 28.4012 36.7784 28.2012 37.2461V41H27.2979V35.7168H28.1768L28.1943 36.3232C28.1966 36.3196 28.1989 36.3161 28.2012 36.3125C28.4706 35.8722 28.8835 35.6191 29.4512 35.6191Z" fill="#7F8BA5"/>
<path d="M41.5312 35.6191C42.6753 35.6191 43.3037 36.2044 43.3037 37.5283V41H42.3955V37.5186C42.3955 36.629 41.9641 36.3809 41.2676 36.3809C40.6749 36.3809 40.283 36.7081 40.1152 37.1719C40.0805 37.2739 40.0584 37.3805 40.0469 37.4912V41H39.1436V37.5234C39.1436 36.696 38.6978 36.3809 38.0156 36.3809C37.4818 36.3809 37.1318 36.5811 36.917 36.9131C36.8724 36.9819 36.8343 37.0556 36.7998 37.1328V41H35.8916V35.7168H36.751L36.7773 36.2949C37.1357 35.8656 37.6588 35.6191 38.3379 35.6191C39.0172 35.6191 39.5707 35.8757 39.8506 36.4648C40.2032 35.9558 40.7769 35.6191 41.5312 35.6191Z" fill="#7F8BA5"/>
<path d="M20.7988 38.3486H18.416V37.6064H20.7988V38.3486Z" fill="#7F8BA5"/>
<defs>
<linearGradient id="paint0_linear_10037_2531" x1="25.4195" y1="11.0024" x2="25.4195" y2="43.032" gradientUnits="userSpaceOnUse">
<stop stop-color="#00AEEF"/>
<stop offset="0.212" stop-color="#0097DC"/>
<stop offset="0.519" stop-color="#007CC5"/>
<stop offset="0.792" stop-color="#006CB8"/>
<stop offset="1" stop-color="#0066B3"/>
</linearGradient>
</defs>
</svg>
