<svg width="50" height="50" viewBox="0 0 50 50" fill="none" xmlns="http://www.w3.org/2000/svg">
<path d="M35.9269 31.5455C35.6378 29.5102 34.6461 27.4375 32.8054 25.0228C31.8816 23.811 30.8525 22.6475 29.8572 21.5219C28.5095 19.9977 27.237 18.5582 26.349 17.1492C25.5166 15.8285 25.1259 14.6769 25.1529 13.6286C25.2847 8.57349 33.0166 6.85315 33.0949 6.83655C30.655 6.83711 28.215 6.83805 25.7751 6.83914L25.7735 6.84018C21.8035 6.84485 17.0759 6.85315 17.0759 6.85315L16.9897 6.94034C16.862 7.06956 13.8604 10.1698 13.8926 16.0376C13.8967 16.8269 13.958 17.6401 14.0732 18.4544C14.3622 20.4897 15.354 22.5624 17.1947 24.9771C18.1184 26.1889 19.1475 27.3524 20.1429 28.478C21.4906 30.0021 22.7631 31.4417 23.651 32.8507C24.4834 34.1714 24.8742 35.323 24.8472 36.3713C24.7154 41.4264 16.9835 43.1467 16.9051 43.1633C18.9583 43.1629 21.0114 43.1636 23.0646 43.1613C26.3509 43.1568 29.6373 43.1523 32.9237 43.1462L33.0103 43.059C33.138 42.9298 36.1396 39.8296 36.1075 33.9618C36.1033 33.1729 36.0426 32.3597 35.9269 31.5455Z" fill="#1C75BC"/>
</svg>
