<svg width="50" height="50" viewBox="0 0 50 50" fill="none" xmlns="http://www.w3.org/2000/svg">
<path fill-rule="evenodd" clip-rule="evenodd" d="M15.4111 19.2831C14.7801 19.8473 13.4278 21.0562 11.9818 22.349C10.9611 23.2617 9.89382 24.2162 9 25.0151C14.2921 28.3115 19.0613 28.5713 21.3807 26.4978C22.3037 25.6722 23.8386 24.2999 25.4786 22.8333C26.9987 21.474 29.7959 18.9732 32.5294 16.5294C32.5294 16.5294 28.8659 17.2264 24.5899 17.2264C20.7673 17.2264 16.9875 17.8736 15.4111 19.2831Z" fill="#F4B400"/>
<path fill-rule="evenodd" clip-rule="evenodd" d="M32.6573 25.41C32.6573 21.1338 33.4706 17.4706 33.4706 17.4706C30.6195 20.2038 27.7016 23.0011 26.116 24.5213L21.8411 28.6196C19.4217 30.9387 19.7248 35.708 23.5707 41L30.2579 34.5893C31.9023 33.0126 32.6573 29.2327 32.6573 25.41Z" fill="#F4B400"/>
<path fill-rule="evenodd" clip-rule="evenodd" d="M29.5788 10.0256C24.5329 10.0256 19.5437 10.9775 17.4624 13.0517C16.0415 14.4675 11.8501 18.6446 9 21.485C9.88637 22.1007 10.762 22.6439 11.6207 23.1176C13.0907 21.6527 14.4654 20.2827 15.1071 19.6435C16.7095 18.0462 20.5522 17.3129 24.4386 17.3129C28.7858 17.3129 32.5101 16.523 32.5101 16.523C36.3466 12.6997 40.0588 9 40.0588 9C40.0588 9 35.2231 10.0256 29.5788 10.0256Z" fill="#003580"/>
<path fill-rule="evenodd" clip-rule="evenodd" d="M33.4768 17.2613C33.4768 17.2613 32.687 20.8726 32.687 25.088C32.687 28.8566 31.954 32.5827 30.3565 34.1372L26.8824 37.5173C27.3561 38.3503 27.8993 39.1991 28.515 40.0588C31.3554 37.2948 35.5324 33.2306 36.9485 31.8529C39.0223 29.8351 39.9745 24.9965 39.9745 20.1036C39.9745 14.6303 41 9.94118 41 9.94118C41 9.94118 37.3003 13.5412 33.4768 17.2613Z" fill="#003580"/>
</svg>
