<svg width="50" height="50" viewBox="0 0 50 50" fill="none" xmlns="http://www.w3.org/2000/svg">
<rect width="50" height="50" fill="#005CA8"/>
<path d="M12.68 10.9198V21.4798H32.26V19.6016L36.88 22.6503L32.26 25.6985V24.1198H23.24V24.5598C23.24 26.5037 24.8159 28.0798 26.76 28.0798H28.08V29.3998H14.44V28.0798H15.76C17.7042 28.0798 19.28 26.5037 19.28 24.5598V24.1198H11.8C10.8281 24.1198 10.04 23.3317 10.04 22.3598V10.0398C10.04 9.06783 10.8281 8.27979 11.8 8.27979H31.16C32.132 8.27979 32.92 9.06783 32.92 10.0398V13.9998H30.28V10.9198H12.68Z" fill="white"/>
<path fill-rule="evenodd" clip-rule="evenodd" d="M37.32 29.3998H31.16V24.9998H29.4V31.1598C29.4 31.6458 29.7941 32.0398 30.28 32.0398H38.2C38.4624 32.0398 38.698 31.9251 38.8592 31.7429C38.9967 31.5873 39.08 31.3832 39.08 31.1598V16.1998C39.08 15.7138 38.686 15.3198 38.2 15.3198H25.44V17.0798H37.32V29.3998ZM32.92 30.2798H35.56V31.1598H32.92V30.2798Z" fill="white"/>
<path d="M21.92 12.6798H25.44V16.1998H21.92V12.6798Z" fill="#8FCA42"/>
<path d="M17.96 12.6798H21.48V16.1998H17.96V12.6798Z" fill="#EA6D26"/>
<path d="M17.96 16.6398H21.48V20.1598H17.96V16.6398Z" fill="#00ADE9"/>
<path d="M21.92 16.6398H25.44V20.1598H21.92V16.6398Z" fill="#FFBB26"/>
<path d="M19.6342 39.5923L21.1376 34.6798H21.8659L21.4445 36.5897L19.8267 41.7198H19.1036L19.6342 39.5923ZM18.0788 34.6798L19.2753 39.4956L19.6342 41.7198H18.9163L17.08 34.6798H18.0788ZM23.8114 39.4908L24.9818 34.6798H25.9858L24.1547 41.7198H23.4368L23.8114 39.4908ZM21.9751 34.6798L23.4368 39.5923L23.9674 41.7198H23.2444L21.6838 36.5897L21.2572 34.6798H21.9751Z" fill="white"/>
<path d="M32.0461 37.7066V38.4657H27.947V37.7066H32.0461ZM28.103 34.6798V41.7198H27.099V34.6798H28.103ZM32.92 34.6798V41.7198H31.9213V34.6798H32.92Z" fill="white"/>
</svg>
