<svg width="50" height="50" viewBox="0 0 50 50" fill="none" xmlns="http://www.w3.org/2000/svg">
<path fill-rule="evenodd" clip-rule="evenodd" d="M10.2961 11.8666C10.5636 10.7707 11.5428 10 12.6675 10H43.6532C45.2368 10 46.4014 11.4888 46.0247 13.0313L39.8958 38.1334C39.6283 39.2293 38.6491 40 37.5244 40H6.53871C4.95513 40 3.79053 38.5112 4.16718 36.9687L10.2961 11.8666ZM18.5233 13.5096C19.1193 12.9118 20.0854 12.9118 20.6814 13.5096L29.3288 22.1833C30.2611 23.1184 30.1347 24.6688 29.0635 25.4395L15.6088 35.1212C14.9239 35.6138 13.9706 35.4566 13.4793 34.7696C12.9881 34.0826 13.1449 33.1266 13.8297 32.6339L26.4081 23.583L18.5233 15.674C17.9274 15.0761 17.9274 14.1075 18.5233 13.5096ZM23.5699 31.7347C22.7271 31.7347 22.0439 32.4199 22.0439 33.2653C22.0439 34.1107 22.7271 34.7959 23.5699 34.7959H31.8102C32.653 34.7959 33.3362 34.1107 33.3362 33.2653C33.3362 32.4199 32.653 31.7347 31.8102 31.7347H23.5699Z" fill="#3375B8"/>
</svg>
