<svg width="50" height="50" viewBox="0 0 50 50" fill="none" xmlns="http://www.w3.org/2000/svg">
<path d="M11 15.7051L14.048 44L24.688 40.3862C23.3125 40.3862 22.0205 40.3438 20.688 39.9049C19.6341 39.5581 18.635 39.0667 17.72 38.4452C17.5069 38.2995 17.4149 37.9638 17.512 37.7272L18.576 35.8414C18.7484 35.4348 19.2587 35.4021 19.608 35.5968C20.8621 36.4563 22.3382 36.9461 23.864 37.0091C25.5002 37.0904 27.3763 36.047 27.328 34.2238C27.3562 31.9962 24.1349 31.2526 22.528 30.61C19.9306 29.5468 17.4161 27.5242 17.64 24.4398C17.5334 20.8004 20.6348 18.1581 24.2 18.2222C26.3856 18.2458 28.51 18.9378 30.28 20.2027C30.5005 20.3464 30.5956 20.6779 30.496 20.9207L29.496 22.8144C29.3028 23.223 28.7915 23.2425 28.448 23.0274C27.2073 22.2175 25.7496 21.6489 24.256 21.615C22.7112 21.5318 21.2727 22.6872 21.3059 24.2713C21.3455 26.1557 23.4229 27.168 24.952 27.738C27.9424 28.6356 31.0473 30.5033 30.976 34.0029C31.0053 35.9901 30.0539 37.9345 28.448 39.108L35.48 36.7409L39 6L11 15.7051Z" fill="#FCD116"/>
</svg>
