<svg width="50" height="50" viewBox="0 0 50 50" fill="none" xmlns="http://www.w3.org/2000/svg">
<path d="M34.2241 24.6562L35.0711 21.7759H42.6589C43.6118 17.631 42.8707 13.7672 40.1885 11.2381C34.7888 6.14491 23.5306 7.86607 15.1311 15.4884C13.8253 16.6826 12.7312 17.9472 11.7078 19.2468H16.2604L15.2017 22.1271H9.73141C9.20203 23.0404 8.70794 23.9186 8.35502 24.8318H14.8135L13.79 27.7121H7.43743C6.34337 32.1029 7.04921 36.2126 9.7667 38.8119C15.0958 43.87 26.3187 42.0786 34.7182 34.4563C36.2005 33.1215 37.4004 31.7165 38.4944 30.2412H32.636L33.5183 27.3609H40.4002C40.8943 26.4476 41.3531 25.5343 41.7413 24.6211H34.2241V24.6562ZM32.5301 19.2468C32.036 19.2468 31.8242 19.3171 31.6478 19.5278C31.5772 19.5981 31.5419 19.7035 31.5066 19.844L29.0362 28.7308C28.4715 31.857 24.4482 34.9481 19.1897 34.9481H11.8842L13.1547 30.3817H17.8486C18.3427 30.3817 18.6956 30.2061 19.0132 29.8899C19.1191 29.7494 19.2603 29.5738 19.2956 29.3631L21.2366 21.6003C21.8013 18.4741 25.2599 15.0317 30.5184 15.0317H38.0003L37.0475 19.2117H32.5301V19.2468Z" fill="#3DCD58"/>
</svg>
