<svg width="50" height="50" viewBox="0 0 50 50" fill="none" xmlns="http://www.w3.org/2000/svg">
<path d="M8.40073 13.5901C8.23935 13.2699 7.98901 13.0032 7.67975 12.8219C7.37048 12.6405 7.01545 12.5523 6.65728 12.5678C5.79269 12.5678 4.8429 13.1586 4.8429 14.1088C4.8429 14.9583 5.67817 15.4045 6.35495 15.664L7.13237 15.9667C8.67334 16.5714 9.82679 17.4213 9.82679 19.2357C9.83204 19.689 9.74518 20.1386 9.57148 20.5573C9.39778 20.976 9.14087 21.355 8.81631 21.6715C8.49175 21.9879 8.10631 22.2351 7.68335 22.3982C7.26039 22.5612 6.80873 22.6367 6.35574 22.62C5.51976 22.6174 4.7143 22.3055 4.09466 21.7444C3.47502 21.1832 3.08507 20.4125 3 19.5808L4.36821 19.2931C4.36827 19.5651 4.42236 19.8343 4.52733 20.0851C4.63231 20.3359 4.78608 20.5634 4.97972 20.7543C5.17336 20.9452 5.40301 21.0958 5.65531 21.1972C5.90762 21.2986 6.17756 21.3488 6.44946 21.345C6.72135 21.3412 6.98978 21.2834 7.23915 21.175C7.48852 21.0666 7.71386 20.9097 7.90208 20.7134C8.0903 20.5172 8.23764 20.2855 8.33556 20.0318C8.43347 19.7781 8.48 19.5075 8.47245 19.2357C8.47245 18.0688 7.53693 17.5648 6.60062 17.1752L5.85173 16.8583C4.61309 16.3261 3.48935 15.6204 3.48935 14.1088C3.48935 12.3514 5.04499 11.3002 6.6866 11.3002C7.25861 11.2892 7.82249 11.4369 8.31572 11.7268C8.80894 12.0167 9.21223 12.4375 9.48087 12.9426L8.40073 13.5901Z" fill="black"/>
<path d="M16.1186 17.5649C15.8852 17.2791 15.5907 17.0492 15.2568 16.8921C14.9228 16.7351 14.558 16.6547 14.189 16.6571C13.5802 16.6793 13.0043 16.9389 12.5845 17.3803C12.1647 17.8218 11.9343 18.41 11.9427 19.0191C11.9269 19.3323 11.976 19.6454 12.0869 19.9388C12.1978 20.2321 12.368 20.4994 12.587 20.7239C12.806 20.9484 13.069 21.1253 13.3595 21.2434C13.65 21.3615 13.9618 21.4184 14.2753 21.4104C14.6292 21.4052 14.9776 21.3224 15.2961 21.1681C15.6146 21.0137 15.8953 20.7914 16.1186 20.5169V22.1731C15.548 22.4792 14.9081 22.633 14.2607 22.6197C13.7864 22.6201 13.3168 22.5265 12.8789 22.3442C12.4411 22.1619 12.0438 21.8945 11.71 21.5576C11.3761 21.2208 11.1124 20.821 10.9342 20.3815C10.7559 19.942 10.6665 19.4715 10.6713 18.9973C10.6761 18.523 10.7749 18.0545 10.9619 17.6186C11.149 17.1828 11.4207 16.7885 11.7612 16.4583C12.1018 16.1282 12.5044 15.8689 12.9458 15.6955C13.3872 15.522 13.8586 15.4378 14.3328 15.4478C14.9562 15.4416 15.5709 15.595 16.1182 15.8936L16.1186 17.5649Z" fill="black"/>
<path d="M19.0987 22.3898H17.8026V15.6501H19.0987V22.3898Z" fill="black"/>
<path d="M25.7936 18.2563C25.7595 17.7905 25.5475 17.3556 25.2015 17.0417C24.8556 16.7279 24.4022 16.5591 23.9353 16.5703C23.4654 16.5699 23.0116 16.7409 22.6589 17.0513C22.3062 17.3618 22.079 17.7902 22.0198 18.2563H25.7936ZM21.9501 19.2354C21.9644 20.3873 22.7426 21.4674 23.9804 21.4674C24.9738 21.4674 25.5071 20.9634 25.9965 20.1567L27.0905 20.7756C26.7875 21.3389 26.3361 21.8085 25.7852 22.1336C25.2343 22.4586 24.605 22.6268 23.9654 22.6197C21.9049 22.6197 20.6532 21.0641 20.6532 19.0769C20.6532 17.0026 21.7627 15.4474 23.9364 15.4474C26.0821 15.4474 27.0905 17.0323 27.0905 19.0329V19.235L21.9501 19.2354Z" fill="black"/>
<path d="M29.4953 16.5565H29.5242C29.7345 16.2087 30.0332 15.9229 30.3899 15.728C30.7466 15.5331 31.1486 15.4362 31.5549 15.447C33.4568 15.447 33.9454 16.7285 33.9454 18.3701V22.3895H32.6497V18.5294C32.6497 17.3771 32.4912 16.6001 31.1662 16.6001C29.4956 16.6001 29.4956 18.069 29.4956 19.2945V22.3911H28.1992V15.6499H29.4953V16.5565Z" fill="black"/>
<path d="M40.6839 17.5649C40.4504 17.279 40.156 17.0491 39.822 16.892C39.4881 16.7349 39.1232 16.6547 38.7542 16.6571C38.1454 16.6793 37.5695 16.9389 37.1497 17.3803C36.7299 17.8218 36.4995 18.41 36.5079 19.0191C36.4921 19.3323 36.5412 19.6455 36.6521 19.9389C36.763 20.2322 36.9333 20.4996 37.1524 20.7241C37.3714 20.9486 37.6345 21.1254 37.925 21.2435C38.2156 21.3616 38.5274 21.4184 38.841 21.4104C39.1948 21.4051 39.5431 21.3224 39.8615 21.168C40.1799 21.0137 40.4606 20.7914 40.6839 20.5169V22.1731C40.1133 22.4792 39.4736 22.633 38.8263 22.6197C38.352 22.6201 37.8824 22.5265 37.4446 22.3442C37.0067 22.1619 36.6094 21.8945 36.2756 21.5576C35.9418 21.2208 35.6781 20.821 35.4998 20.3815C35.3215 19.942 35.2322 19.4715 35.2369 18.9973C35.2417 18.523 35.3405 18.0545 35.5276 17.6186C35.7146 17.1828 35.9863 16.7885 36.3268 16.4583C36.6674 16.1282 37.07 15.8689 37.5114 15.6955C37.9528 15.522 38.4242 15.4378 38.8984 15.4478C39.5219 15.4416 40.1365 15.595 40.6839 15.8936V17.5649Z" fill="black"/>
<path d="M46.7031 18.2563C46.6691 17.7905 46.4572 17.3556 46.1113 17.0418C45.7654 16.7279 45.3121 16.5591 44.8451 16.5703C44.3753 16.5699 43.9215 16.741 43.5689 17.0514C43.2162 17.3618 42.989 17.7903 42.9297 18.2563H46.7031ZM42.8596 19.2354C42.8743 20.3873 43.6521 21.4674 44.8895 21.4674C45.8837 21.4674 46.4162 20.9634 46.906 20.1567L48 20.7756C47.697 21.3389 47.2455 21.8085 46.6947 22.1336C46.1438 22.4586 45.5145 22.6268 44.8749 22.6197C42.8144 22.6197 41.5631 21.0641 41.5631 19.0769C41.5631 17.0026 42.6726 15.4474 44.8463 15.4474C46.992 15.4474 48 17.0323 48 19.0329V19.235L42.8596 19.2354Z" fill="black"/>
<path d="M19.0148 33.6947H22.3127V34.9326H17.6608V24.0756H19.014L19.0148 33.6947Z" fill="black"/>
<path d="M23.7525 31.578C23.7608 32.0319 23.9031 32.4733 24.1614 32.8466C24.4197 33.22 24.7825 33.5088 25.2043 33.6767C25.6261 33.8446 26.0881 33.8842 26.5323 33.7905C26.9766 33.6968 27.3832 33.4739 27.7012 33.1499C28.0193 32.8259 28.2345 32.4152 28.32 31.9693C28.4054 31.5234 28.3573 31.0622 28.1815 30.6436C28.0058 30.225 27.7104 29.8676 27.3323 29.6163C26.9541 29.365 26.5102 29.231 26.0562 29.2311C25.4406 29.24 24.8533 29.4915 24.4219 29.931C23.9906 30.3704 23.75 30.9622 23.7525 31.578ZM29.6565 31.578C29.6594 32.2907 29.4507 32.9883 29.0568 33.5823C28.6629 34.1764 28.1017 34.6401 27.444 34.9149C26.7864 35.1897 26.062 35.2631 25.3625 35.1259C24.6631 34.9886 24.0202 34.6469 23.5152 34.144C23.0101 33.6411 22.6657 32.9996 22.5256 32.3007C22.3854 31.6019 22.4558 30.8772 22.7278 30.2184C22.9998 29.5596 23.4613 28.9964 24.0536 28.6001C24.646 28.2037 25.3427 27.9921 26.0554 27.992C26.5291 27.9845 26.9995 28.072 27.4389 28.2493C27.8782 28.4267 28.2775 28.6903 28.6132 29.0246C28.9489 29.3589 29.2142 29.7571 29.3934 30.1956C29.5726 30.6342 29.662 31.1043 29.6565 31.578Z" fill="black"/>
<path d="M40.8895 34.9342H39.593V28.1946H40.8895V34.9342ZM41.1332 25.1127C41.1332 25.3495 41.0391 25.5765 40.8717 25.7439C40.7043 25.9114 40.4772 26.0054 40.2404 26.0054C40.0037 26.0054 39.7766 25.9114 39.6092 25.7439C39.4418 25.5765 39.3477 25.3495 39.3477 25.1127C39.3477 24.8759 39.4418 24.6489 39.6092 24.4814C39.7766 24.314 40.0037 24.22 40.2404 24.22C40.4772 24.22 40.7043 24.314 40.8717 24.4814C41.0391 24.6489 41.1332 24.8759 41.1332 25.1127Z" fill="black"/>
<path d="M47.4619 30.1094C47.2285 29.8235 46.934 29.5936 46.6 29.4365C46.2661 29.2794 45.9012 29.1991 45.5322 29.2016C44.9234 29.2237 44.3474 29.4833 43.9276 29.9247C43.5078 30.3662 43.2774 30.9544 43.2859 31.5636C43.2701 31.8768 43.3192 32.19 43.43 32.4834C43.5409 32.7768 43.7112 33.0442 43.9302 33.2687C44.1493 33.4932 44.4123 33.67 44.7029 33.7881C44.9935 33.9062 45.3054 33.963 45.619 33.9549C45.9728 33.9496 46.3211 33.8669 46.6395 33.7126C46.9579 33.5582 47.2386 33.3359 47.4619 33.0614V34.7168C46.8914 35.023 46.2516 35.1768 45.6043 35.1634C45.1277 35.1674 44.6551 35.0764 44.2141 34.8957C43.7731 34.715 43.3726 34.4482 43.0358 34.1109C42.6991 33.7736 42.433 33.3726 42.253 32.9313C42.073 32.49 41.9828 32.0173 41.9876 31.5407C41.9924 31.0642 42.0921 30.5933 42.2809 30.1557C42.4697 29.7181 42.7439 29.3226 43.0873 28.9921C43.4308 28.6617 43.8366 28.403 44.2811 28.2312C44.7257 28.0594 45.2 27.9779 45.6764 27.9915C46.2998 27.9854 46.9143 28.139 47.4615 28.4377L47.4619 30.1094Z" fill="black"/>
<path d="M28.9155 13.5125C29.6094 13.5125 30.172 12.9499 30.172 12.256C30.172 11.5621 29.6094 10.9995 28.9155 10.9995C28.2215 10.9995 27.659 11.5621 27.659 12.256C27.659 12.9499 28.2215 13.5125 28.9155 13.5125Z" fill="#52B748"/>
<path d="M25.4547 13.5125C26.1487 13.5125 26.7112 12.9499 26.7112 12.256C26.7112 11.5621 26.1487 10.9995 25.4547 10.9995C24.7608 10.9995 24.1983 11.5621 24.1983 12.256C24.1983 12.9499 24.7608 13.5125 25.4547 13.5125Z" fill="#0F86E9"/>
<path d="M21.9944 13.5125C22.6883 13.5125 23.2509 12.9499 23.2509 12.256C23.2509 11.5621 22.6883 10.9995 21.9944 10.9995C21.3005 10.9995 20.7379 11.5621 20.7379 12.256C20.7379 12.9499 21.3005 13.5125 21.9944 13.5125Z" fill="#FCB805"/>
<path d="M18.5336 13.5125C19.2276 13.5125 19.7901 12.9499 19.7901 12.256C19.7901 11.5621 19.2276 10.9995 18.5336 10.9995C17.8397 10.9995 17.2772 11.5621 17.2772 12.256C17.2772 12.9499 17.8397 13.5125 18.5336 13.5125Z" fill="#FF7902"/>
<path d="M36.0705 30.8107C36.2278 31.1331 36.3098 31.487 36.3102 31.8457C36.3018 32.2996 36.1596 32.7409 35.9014 33.1143C35.6431 33.4876 35.2803 33.7764 34.8586 33.9443C34.4368 34.1123 33.9748 34.1519 33.5306 34.0583C33.0864 33.9646 32.6798 33.7418 32.3617 33.4179C32.0437 33.094 31.8283 32.6834 31.7428 32.2375C31.6573 31.7917 31.7053 31.3305 31.8809 30.9119C32.0565 30.4933 32.3518 30.1358 32.7298 29.8844C33.1078 29.633 33.5517 29.4989 34.0057 29.4988C34.4522 29.4988 34.8886 29.6313 35.2597 29.8796L35.6164 28.6227C35.1143 28.3822 34.5643 28.2586 34.0076 28.2609C33.2989 28.2638 32.607 28.4766 32.0191 28.8725C31.4313 29.2683 30.9739 29.8295 30.7047 30.4851C30.4355 31.1407 30.3666 31.8613 30.5067 32.556C30.6467 33.2508 30.9895 33.8884 31.4917 34.3885C31.9939 34.8886 32.6329 35.2287 33.3282 35.3658C34.0236 35.503 34.7439 35.431 35.3984 35.1591C36.0528 34.8872 36.612 34.4274 37.0054 33.8379C37.3988 33.2484 37.6087 32.5556 37.6086 31.8469C37.6103 31.3679 37.518 30.8933 37.3372 30.4498L36.0705 30.8107Z" fill="black"/>
<path d="M38.0148 29.7647C38.0116 29.7536 38.0089 29.7425 38.0057 29.7315C37.8796 29.3116 37.6496 28.9304 37.3371 28.623C37.0245 28.3157 36.6394 28.0923 36.2175 27.9733L35.5086 30.4823L38.0148 29.7647Z" fill="#52B748"/>
<path d="M36.3133 35.302C36.2792 35.808 36.071 36.2866 35.7242 36.6565C35.3773 37.0264 34.9131 37.2649 34.4104 37.3315C33.9077 37.3981 33.3974 37.2887 32.9662 37.0218C32.5349 36.755 32.2094 36.3471 32.0447 35.8675L30.856 36.2748C30.9947 36.7105 31.2184 37.1143 31.5142 37.463C31.81 37.8116 32.172 38.0982 32.5792 38.306C32.9865 38.5138 33.4309 38.6388 33.8868 38.6737C34.3427 38.7087 34.801 38.6529 35.2352 38.5095C35.6693 38.3661 36.0708 38.1381 36.4162 37.8386C36.7617 37.5391 37.0444 37.174 37.2478 36.7645C37.4512 36.3551 37.5715 35.9093 37.6015 35.4531C37.6315 34.9969 37.5708 34.5392 37.4228 34.1066C37.1426 34.5797 36.7643 34.9874 36.3133 35.302Z" fill="black"/>
</svg>
