<svg width="50" height="50" viewBox="0 0 50 50" fill="none" xmlns="http://www.w3.org/2000/svg">
<path d="M35.9023 28.4904C35.8953 28.1889 35.8814 27.8886 35.8814 27.5871C35.8802 24.171 35.8814 20.7549 35.8779 17.3388C35.8779 17.2171 35.915 17.1846 36.0321 17.1846C37.2856 17.1881 38.5403 17.1788 39.7938 17.1904C40.3585 17.1951 40.9174 17.253 41.445 17.4896C42.0028 17.7389 42.3819 18.1494 42.6115 18.7037C42.8168 19.1988 42.9188 19.7194 42.9583 20.2505C43.0174 21.0669 43.0278 21.8844 42.9061 22.6984C42.8098 23.3454 42.6533 23.9727 42.3193 24.5456C41.8683 25.3167 41.1911 25.7712 40.3121 25.9324C40.0848 25.9742 39.8541 25.9927 39.6245 26.0194C39.4842 26.0356 39.3647 25.9927 39.2453 25.915C38.8116 25.6321 38.371 25.3573 37.9014 25.0593V28.4916H35.9046L35.9023 28.4904ZM37.913 20.9915C37.913 21.4078 37.913 21.8229 37.913 22.2392C37.913 22.4781 37.9106 22.7169 37.9234 22.9558C37.9269 23.0161 37.9698 23.0961 38.0208 23.1297C38.393 23.3767 38.7699 23.6168 39.1479 23.8545C39.2105 23.8939 39.2871 23.9368 39.3578 23.9368C39.6952 23.9368 40.0176 23.8684 40.2959 23.662C40.5962 23.4393 40.7574 23.1274 40.849 22.7784C41.0055 22.1882 40.9986 21.5829 40.9464 20.9834C40.9163 20.6401 40.8467 20.2899 40.7272 19.9664C40.5371 19.4493 40.1648 19.084 39.5897 19.033C39.0633 18.9854 38.531 19.0028 38.0011 18.9901C37.9222 18.9877 37.9107 19.026 37.9107 19.0979C37.9141 19.7287 37.913 20.3595 37.913 20.9903V20.9915Z" fill="black"/>
<path d="M34.4192 29.9828C33.691 29.9793 32.9639 29.9782 32.2357 29.97C32.1058 29.9689 32.0641 30.0222 32.0653 30.1393C32.0676 30.311 32.0653 30.4837 32.0653 30.6553C32.0653 32.702 32.0653 34.7498 32.0664 36.7964C32.0664 36.844 32.0629 36.8927 32.0664 36.9402C32.0711 37.0307 32.0189 37.0562 31.94 37.0562C31.4484 37.0562 30.9579 37.0573 30.4662 37.0527C30.4372 37.0527 30.3978 37.0063 30.3816 36.9727C30.3676 36.9414 30.3781 36.8973 30.3781 36.859C30.3781 34.635 30.3781 32.4109 30.3781 30.1869C30.3781 29.9724 30.3781 29.9735 30.1612 29.9735C29.5107 29.9735 28.8602 29.9735 28.2085 29.9758C28.1274 29.9758 28.0566 29.9805 28.0578 29.8622C28.0636 29.4274 28.0613 28.9914 28.0636 28.5565C28.0636 28.5438 28.0717 28.5298 28.0787 28.5043C28.1227 28.502 28.1691 28.4974 28.2155 28.4974C30.2065 28.4974 32.1974 28.4974 34.1884 28.4997C34.265 28.4997 34.3415 28.5113 34.4169 28.5171V29.9816L34.4192 29.9828Z" fill="#36984F"/>
<path d="M27.2519 21.5156C27.2855 20.6807 27.3377 19.8574 27.6206 19.0666C27.9673 18.0984 28.6283 17.4606 29.6255 17.1916C30.6239 16.9214 31.6304 16.933 32.6161 17.2519C33.5182 17.5429 34.1119 18.1645 34.4203 19.0527C34.6175 19.6209 34.7137 20.2065 34.7485 20.8071C34.7902 21.526 34.7682 22.2415 34.6812 22.9546C34.6128 23.5159 34.4864 24.0667 34.2116 24.5688C33.8417 25.2459 33.2828 25.697 32.5326 25.8988C31.8728 26.0774 31.206 26.1504 30.5172 26.0681C30.1183 26.0205 29.7229 25.9718 29.3461 25.8396C28.5378 25.5556 27.9975 24.9955 27.6832 24.2116C27.4629 23.6608 27.3632 23.0822 27.3099 22.4954C27.2797 22.1673 27.2693 21.8368 27.2507 21.5156H27.2519ZM32.7656 21.3567C32.7401 20.9521 32.7309 20.559 32.6879 20.1705C32.6137 19.5119 32.2427 19.0144 31.4762 18.8614C31.1736 18.8011 30.8744 18.7976 30.5741 18.859C30.2042 18.9356 29.9096 19.1211 29.6951 19.4365C29.469 19.767 29.3577 20.1392 29.3391 20.5277C29.3101 21.1098 29.3055 21.693 29.3159 22.2751C29.324 22.7076 29.4214 23.1286 29.6267 23.5159C29.8319 23.902 30.1381 24.1861 30.581 24.2557C30.8489 24.2974 31.1283 24.2905 31.3997 24.2719C31.6954 24.2522 31.9539 24.12 32.1685 23.9136C32.492 23.6017 32.6404 23.2016 32.6868 22.7737C32.739 22.3006 32.7413 21.8206 32.7645 21.3567H32.7656Z" fill="black"/>
<path d="M17.2599 34.032C17.2634 33.959 17.2715 33.8871 17.2715 33.814C17.2715 32.1639 17.2715 30.5127 17.2715 28.8626C17.2715 28.8 17.2749 28.7386 17.2715 28.676C17.2634 28.5426 17.3167 28.4927 17.4582 28.4951C17.9069 28.502 18.3545 28.4997 18.8033 28.4951C18.9123 28.4939 18.947 28.5345 18.947 28.6377C18.947 28.9728 18.9563 29.3068 18.9575 29.6419C18.9575 31.67 18.9598 33.6992 18.9552 35.7273C18.9552 35.965 18.9389 36.2062 18.8995 36.4404C18.8253 36.8788 18.4125 37.2231 17.8965 37.1014C17.515 37.0109 17.2089 36.8347 16.9955 36.5089C16.3914 35.587 15.7895 34.664 15.1877 33.741C14.7645 33.0904 14.3436 32.4388 13.918 31.7894C13.8681 31.7129 13.7986 31.6491 13.7162 31.5528C13.7058 31.6259 13.6965 31.6572 13.6977 31.6874C13.7058 33.2852 13.7151 34.882 13.7243 36.4799C13.7243 36.619 13.7174 36.7582 13.7243 36.8962C13.7301 37.0121 13.6872 37.0654 13.569 37.0631C13.097 37.0539 12.6239 37.0457 12.152 37.0388C12.0673 37.0376 12.0325 37.0005 12.0337 36.9159C12.0372 36.7384 12.0337 36.5622 12.0337 36.3848C12.0337 33.821 12.0337 31.256 12.0337 28.6922C12.0337 28.4985 12.0337 28.4974 12.225 28.4974C12.6541 28.4974 13.0831 28.5009 13.5121 28.4951C13.6211 28.4939 13.6884 28.531 13.7464 28.6226C14.4781 29.781 15.2109 30.9383 15.9461 32.0944C16.3392 32.7124 16.7357 33.3293 17.1312 33.9462C17.1532 33.9798 17.181 34.01 17.2065 34.0413C17.2239 34.0378 17.2402 34.0355 17.2576 34.032H17.2599Z" fill="#36984F"/>
<path d="M13.8554 23.2387C13.867 23.335 13.8762 23.4196 13.8867 23.5043C13.9481 23.989 14.2079 24.2986 14.7007 24.3774C15.1634 24.4516 15.6318 24.4725 16.0957 24.3797C16.4308 24.3125 16.6882 24.127 16.7613 23.7814C16.7984 23.6028 16.7868 23.408 16.7636 23.226C16.7068 22.7946 16.4111 22.5163 15.9484 22.4363C15.3791 22.3377 14.8074 22.2496 14.2404 22.1418C13.4658 21.9945 12.8013 21.6582 12.472 20.9057C12.0836 20.0163 12.0778 19.1188 12.5972 18.2665C12.879 17.8038 13.315 17.5058 13.8148 17.3145C14.8804 16.9063 15.9646 16.904 17.0396 17.2669C17.9985 17.5905 18.4867 18.2978 18.5957 19.28C18.6142 19.4458 18.6189 19.6139 18.627 19.7809C18.6328 19.8876 18.6015 19.9398 18.4705 19.9374C17.9788 19.927 17.4871 19.9328 16.9955 19.934C16.919 19.934 16.8737 19.927 16.8633 19.8308C16.7902 19.1292 16.5119 18.8277 15.8069 18.7164C15.4266 18.6561 15.0463 18.6747 14.6879 18.8393C14.2844 19.0249 14.1244 19.3124 14.1777 19.738C14.2322 20.1682 14.4827 20.4349 14.9083 20.5126C15.5704 20.6355 16.2348 20.7491 16.8958 20.8825C17.8942 21.0831 18.5377 21.7533 18.714 22.7564C18.794 23.2121 18.8195 23.6724 18.7012 24.1235C18.4786 24.9688 17.9023 25.4906 17.0894 25.7631C16.3624 26.0066 15.6133 26.0797 14.8514 25.9684C14.4386 25.9081 14.0177 25.8652 13.6177 25.7515C12.7225 25.4976 12.1357 24.7415 12.0627 23.815C12.0499 23.6573 12.0441 23.4996 12.0349 23.3419C12.0302 23.2654 12.0604 23.2353 12.1462 23.2364C12.7097 23.2411 13.2733 23.2387 13.8577 23.2387H13.8554Z" fill="black"/>
<path d="M21.4877 21.5191C21.5178 22.0096 21.5282 22.5036 21.5862 22.9906C21.6141 23.2213 21.7115 23.4521 21.8181 23.662C22.0269 24.0725 22.391 24.2835 22.8478 24.2893C23.1969 24.2939 23.5482 24.2615 23.8938 24.2105C24.2312 24.1617 24.4643 23.9449 24.5582 23.6237C24.6289 23.3837 24.6544 23.1286 24.6811 22.8781C24.695 22.7448 24.724 22.6879 24.8759 22.6903C25.3769 22.6984 25.879 22.6937 26.3799 22.6879C26.4889 22.6868 26.5387 22.7088 26.5272 22.8306C26.49 23.2202 26.4785 23.6133 26.4251 24.0017C26.315 24.803 25.8418 25.3271 25.1113 25.6541C24.4736 25.9405 23.8022 26.0913 23.1087 26.1006C22.4385 26.1098 21.788 25.9684 21.1804 25.6703C20.422 25.2993 19.9756 24.6859 19.7553 23.8881C19.5187 23.03 19.4828 22.1522 19.4932 21.2721C19.5013 20.6367 19.5431 20.0035 19.6961 19.3797C19.9965 18.1552 20.7931 17.4444 22.0025 17.151C22.9568 16.9202 23.8938 16.9713 24.811 17.3272C25.6215 17.6415 26.1132 18.2456 26.3439 19.0585C26.4332 19.3727 26.4483 19.7067 26.4947 20.0325C26.5086 20.1299 26.468 20.1612 26.3637 20.1601C25.8384 20.1543 25.3131 20.1554 24.7878 20.1612C24.6823 20.1624 24.6556 20.1264 24.6521 20.0314C24.6498 19.927 24.6371 19.8215 24.6185 19.7183C24.5397 19.302 24.2892 19.0411 23.8799 18.9228C23.5088 18.8161 23.1354 18.7848 22.7504 18.837C22.1347 18.9217 21.7323 19.2765 21.6117 19.8887C21.5596 20.1543 21.5352 20.4279 21.5201 20.6993C21.5051 20.9706 21.5167 21.2443 21.5167 21.5168C21.5074 21.5168 21.4981 21.5168 21.4888 21.5179L21.4877 21.5191Z" fill="black"/>
<path d="M20.9461 31.8555C20.9461 30.9557 20.9461 30.057 20.9461 29.1572C20.9461 28.9856 20.9659 28.8139 20.9659 28.6423C20.9659 28.5287 21.0111 28.4962 21.1224 28.4962C21.6767 28.4997 22.2309 28.4962 22.7864 28.4951C24.0306 28.4951 25.2748 28.4951 26.5179 28.4916C26.6431 28.4916 26.6872 28.5287 26.6849 28.6551C26.6779 29.047 26.6802 29.4401 26.6849 29.832C26.686 29.9573 26.6524 30.006 26.5156 29.9816C26.4124 29.9631 26.3045 29.977 26.1978 29.9758C25.0835 29.9758 23.9703 29.9747 22.856 29.9735C22.6496 29.9735 22.638 29.984 22.6368 30.1938C22.6345 30.7493 22.6356 31.3035 22.6298 31.859C22.6287 31.9784 22.6716 32.0144 22.791 32.0144C23.6445 32.0097 24.4967 32.0109 25.3502 32.0086C25.4406 32.0086 25.4592 32.0387 25.4511 32.1303C25.4198 32.4967 25.3977 32.8643 25.3792 33.2307C25.3687 33.4569 25.3595 33.4731 25.1299 33.4731C24.3541 33.4754 23.5772 33.4801 22.8015 33.4766C22.6716 33.4766 22.6229 33.5079 22.6275 33.6459C22.638 34.0088 22.6275 34.3729 22.6345 34.737C22.6368 34.8553 22.6507 34.9771 22.6855 35.0895C22.7864 35.4154 23.0716 35.5824 23.4914 35.5824C24.4898 35.5824 25.4882 35.5824 26.4854 35.5824C26.6837 35.5824 26.6837 35.5847 26.6837 35.7841C26.6837 36.1482 26.6779 36.5112 26.6837 36.8753C26.686 36.9994 26.6396 37.055 26.5214 37.055C26.3579 37.055 26.1944 37.0446 26.0309 37.0446C25.0522 37.0423 24.0723 37.0608 23.0948 37.0283C22.7226 37.0156 22.3365 36.9321 21.9874 36.8011C21.3636 36.5657 21.0725 36.0531 21.0041 35.4131C20.9705 35.1 20.9508 34.7846 20.9473 34.4703C20.9403 33.5995 20.945 32.7287 20.945 31.8578L20.9461 31.8555Z" fill="#36984F"/>
<path d="M10.5135 21.2756C10.3222 20.9857 10.1123 20.6958 9.85834 20.4627C9.1023 19.767 8.31959 19.0991 7.54964 18.4196C7.3815 18.2711 7.21916 18.1169 7.02551 17.9383L7 17.9128V18.1158C7 18.7524 7.0058 19.389 7.0058 20.0256V20.2795L7.218 20.4453C7.66791 20.799 8.11203 21.1596 8.5573 21.5202C8.79965 21.7174 8.79849 21.7278 8.54919 21.9261C8.08652 22.2948 7.62733 22.6659 7.16234 23.0312C7.14031 23.0486 7.12291 23.0671 7.10668 23.0868L7.00464 23.1889V23.3953L7.0058 23.393C7.0058 23.4022 7.0058 23.4127 7.0058 23.4219C7.00928 23.9055 7.01044 24.3415 7.0058 24.8413C7.0058 24.8795 7.00464 25.4663 7.0058 25.5045L7.0603 25.4466C7.12407 25.3712 7.18901 25.3155 7.26322 25.2506C7.94853 24.6546 8.63847 24.0655 9.32146 23.4683C9.72963 23.1112 10.1506 22.7668 10.459 22.3111C10.6851 21.976 10.7408 21.62 10.5135 21.2767V21.2756Z" fill="#379750"/>
</svg>
