<svg width="50" height="50" viewBox="0 0 50 50" fill="none" xmlns="http://www.w3.org/2000/svg">
<path d="M26.3451 8.33337C26.3451 8.88278 26.5328 9.5875 26.2646 9.93985C25.973 10.3239 25.2373 9.99998 24.6943 10.0284C22.3697 10.1519 20.144 10.6462 18.101 11.7818C17.0955 12.3412 17.0955 11.3393 16.777 10.9585C16.3631 10.4575 17.0351 10.4158 17.2798 10.2905C20.1247 8.73961 23.1615 8.33337 26.3451 8.33337Z" fill="#3C3C3C"/>
<path d="M40.5169 18.6185C41.1538 19.5804 41.2259 20.7477 41.6666 21.7814C41.6666 21.9132 41.7311 22.107 41.5845 22.1154C41.0164 22.1037 40.3812 22.7099 39.9689 22.3325C39.3355 21.7522 39.0952 19.6542 38.7957 18.8139C39.3689 18.7337 39.9706 18.9291 40.5169 18.6185Z" fill="#629EFE"/>
<path d="M37.527 36.2714C34.931 39.2456 31.6327 40.9473 27.773 41.6503C27.4277 41.7138 27.3422 41.5935 27.3104 41.2812C27.2199 40.3745 27.0791 39.471 27.007 38.5643C26.9685 38.075 26.883 37.8145 26.2814 37.8629C24.6959 37.9932 23.1188 37.913 21.5887 37.4371C21.2283 37.3252 21.0423 37.4103 20.9837 37.8278C20.8714 38.6227 20.4105 38.7079 19.7351 38.3989C19.0262 38.0949 18.3371 37.7469 17.672 37.3569C17.4897 37.2347 17.2911 37.1385 17.082 37.0713C16.8725 37.0129 16.7468 37.1348 16.6396 37.3402C16.5005 37.6274 16.7787 37.5823 16.8725 37.6425C17.806 38.2436 18.7563 38.8365 19.8155 39.1738C20.8211 39.4927 20.1976 40.0655 20.1205 40.5515C20.02 41.1861 19.6178 40.9473 19.2624 40.8137C16.6865 39.8117 14.4206 38.3756 12.634 36.2447C15.8289 34.6318 35.3949 33.2388 37.527 36.2714Z" fill="#546DFA"/>
<path d="M37.527 36.2714C35.4015 33.2481 15.8248 34.6405 12.634 36.2514C11.9715 35.6209 11.4158 34.8878 10.9882 34.0805C12.7896 33.5592 17.5679 35.2852 18.406 33.6079C19.6948 34.5264 21.0741 35.2478 22.6361 35.6035C23.1389 35.717 23.5462 35.8556 23.6417 35.1376C23.6786 34.832 23.9618 34.8887 24.1746 34.9088C26.2411 35.0992 28.1718 34.6416 30.0053 33.7064C30.4511 34.3276 30.7628 34.346 31.3461 33.7849L31.6813 33.7148C32.0824 34.8321 35.3935 34.2331 36.2734 34.2408C36.875 34.8587 37.0426 34.1707 37.346 33.8868C37.8588 34.2492 38.4521 34.2375 39.0404 34.2425C38.6247 34.9923 38.0499 35.6118 37.527 36.2714Z" fill="#5572FA"/>
<path d="M16.9596 15.2185C20.5981 12.2277 24.6992 11.6048 29.1405 12.9324C29.7422 13.1111 30.0623 13.1161 30.2567 12.4982C30.4142 11.9972 30.6908 11.8686 31.1936 12.1241C32.8108 12.9474 34.3226 13.8993 35.5024 15.297C33.4132 15.297 30.0425 14.5516 28.1383 15.6511C27.6807 15.5559 27.2232 15.4607 26.764 15.3688C26.5025 15.3171 26.2729 15.2402 26.3383 14.8962C26.4372 14.3669 26.107 14.3301 25.7031 14.3084C23.4858 14.1865 21.4412 14.7643 19.5021 15.8114C19.3423 15.0409 17.4885 15.7302 16.9596 15.2185Z" fill="#66AFFE"/>
<path d="M28.1349 15.6594C30.037 14.5611 33.4113 15.3054 35.4991 15.3054C36.7369 16.5252 37.6927 17.9996 38.2996 19.6255H34.4449C33.8164 18.7521 33.1879 17.8821 32.3986 17.1373C32.0818 16.8384 31.7969 16.6363 31.4449 17.0788C31.2773 17.2892 31.1097 17.3043 30.8818 17.1273C30.0589 16.4944 29.0701 16.122 28.1349 15.6594Z" fill="#64A7FE"/>
<path d="M12.4899 22.942C12.5083 22.7232 12.4715 22.4828 12.5519 22.289C12.7899 21.7062 12.6676 21.3522 12.0207 21.1986C11.5179 21.0783 11.367 20.7711 11.5832 20.2718C11.8246 19.7173 12.0089 19.1379 12.3475 18.6269C13.2129 18.6269 16.8636 18.0078 17.3804 18.8673C16.6368 19.8422 16.0666 20.9368 15.6943 22.1037C15.629 22.2974 15.5552 22.5195 15.3256 22.4544C14.4877 22.2206 14.5648 22.9103 14.3804 23.3394C14.2182 22.492 13.0675 22.8292 12.4899 22.942Z" fill="#629EFE"/>
<path d="M38.6499 15.302C38.6682 15.3566 38.6828 15.4124 38.6935 15.469C38.0533 15.3889 37.4449 15.636 36.8131 15.6527C35.3703 13.978 33.6982 12.7493 31.7952 11.6566C30.7897 11.1556 30.8131 11.1723 31.3695 10.1653C31.6092 9.73111 31.8288 9.62257 32.2662 9.88475C34.7352 11.3698 37.1114 12.7918 38.6499 15.302Z" fill="#66AFFE"/>
<path d="M17.3804 18.8707C16.8726 18.0131 13.2072 18.6302 12.3475 18.6302C12.6978 17.7518 13.2525 16.997 13.814 16.2472C14.0855 15.8865 14.3419 15.6911 14.7341 16.0969C15.2369 16.6113 15.6575 16.5244 16.0916 15.975C16.3245 15.6794 16.6681 15.474 16.9631 15.2219C17.4921 15.7353 19.3453 15.0373 19.5055 15.8097C18.7564 16.2606 18.1212 16.8517 17.4759 17.4329C17.1994 17.6834 17.119 17.8971 17.4642 18.1526C17.8396 18.4282 17.6301 18.6653 17.3804 18.8707Z" fill="#64A7FE"/>
<path d="M18.4027 33.6046C17.5675 35.2763 12.7843 33.5564 10.9849 34.0771C10.6498 33.7799 10.5794 33.5294 11.0403 33.2539C11.8682 32.7529 12.671 32.2218 13.4838 31.7025C13.8842 32.3134 16.0588 31.9096 16.6681 31.9096L18.4027 33.6046Z" fill="#5776FA"/>
<path d="M34.4583 19.6338H38.313C38.7169 20.3853 38.8812 21.2169 39.1192 22.0252C39.327 22.7332 39.1192 23.124 38.365 23.1941C38.3872 22.1259 36.225 22.6006 35.7069 22.947C35.4438 21.7831 34.9729 20.6993 34.4583 19.6338Z" fill="#629EFE"/>
<path d="M38.6584 29.585C38.4346 30.4761 38.0611 31.323 37.5539 32.0899C36.8499 32.0899 33.9902 32.5741 33.6054 31.781L35.0249 29.418C36.2333 29.4865 37.4601 29.256 38.6584 29.585Z" fill="#597EFC"/>
<path d="M38.6584 29.585C37.4601 29.251 36.2349 29.4865 35.0249 29.418C35.5524 28.0954 35.8477 26.6922 35.898 25.2699H37.884C37.9306 26.0062 37.8662 26.7452 37.693 27.4625C37.5505 28.047 37.6008 28.4645 38.303 28.6164C38.898 28.745 38.9835 29.1041 38.6584 29.585Z" fill="#5C87FD"/>
<path d="M33.6053 31.7827C33.98 32.5703 36.8576 32.0883 37.5539 32.0916L36.2534 34.2375C35.3717 34.2375 32.0621 34.8277 31.6612 33.7114C32.3548 33.1158 33.0045 32.4712 33.6053 31.7827Z" fill="#5776FA"/>
<path d="M8.34528 23.9857C8.39891 22.6731 8.43077 22.6698 9.72125 22.9103C10.0782 22.9771 10.1905 23.0773 10.1335 23.4346C9.94798 24.6341 9.95873 25.8556 10.1654 27.0517C10.333 28.0971 9.46314 27.7197 9.03409 27.8867C8.476 28.1071 8.53132 27.6278 8.46261 27.2855C8.29748 26.2011 8.30932 25.0811 8.34528 23.9857Z" fill="#3C3C3C"/>
<path d="M10.1687 17.4596C10.6714 16.1571 11.5698 15.1033 12.4295 14.0295C12.6089 13.8058 12.7748 13.7907 12.9709 14.0028C13.2155 14.2667 13.4737 14.5205 13.7183 14.7793C13.8678 14.9047 13.8678 15.1649 13.7183 15.2903C12.9357 16.0735 12.448 17.0655 11.8262 17.9622H9.88711C9.99954 17.8088 10.2001 17.6702 10.1687 17.4596Z" fill="#64A7FE"/>
<path d="M36.8131 15.646C37.4449 15.6293 38.0533 15.3822 38.6935 15.4623C39.5491 16.3516 40.1748 17.4348 40.5169 18.6185C39.9706 18.9291 39.3689 18.7338 38.7958 18.8039C38.2084 17.7072 37.546 16.6521 36.8131 15.646Z" fill="#64A7FE"/>
<path d="M12.4899 22.942C13.0677 22.8309 14.2185 22.4968 14.3804 23.3428C14.3569 24.2612 14.334 25.1803 14.3116 26.0998H12.3407C12.1811 25.0477 12.2318 23.9745 12.4899 22.942Z" fill="#5F91FE"/>
<path d="M12.3407 26.0982H14.3117C14.3385 27.1402 14.7725 28.0904 15.0055 29.0857C14.3502 29.3245 13.6647 29.2343 12.9944 29.2527C12.5632 28.2565 12.3408 27.1831 12.3407 26.0982Z" fill="#5C87FD"/>
<path d="M12.9926 29.2577C13.663 29.236 14.3501 29.3262 15.0038 29.0907C15.4773 30.0764 16.0334 31.0205 16.6663 31.9129C16.0581 31.9129 13.8806 32.3141 13.482 31.7058C13.7719 31.4854 13.8624 31.2666 13.6496 30.8976C13.3647 30.3816 13.0714 29.8539 12.9926 29.2577Z" fill="#597EFC"/>
<path d="M38.2879 32.4757C38.6817 31.4737 39.2214 30.5385 39.5013 29.4965C39.699 28.755 40.1716 29.2644 40.4968 29.3095C40.8219 29.3546 41.3448 29.388 41.137 30.0008C40.8018 31.0178 40.4666 32.0398 39.8599 32.9433C39.6353 32.6377 39.3052 32.7629 39.0219 32.7412C38.7387 32.7195 38.4471 32.793 38.2879 32.4757Z" fill="#597EFC"/>
<path d="M37.8891 25.2766H35.9031C35.8338 24.4973 35.7657 23.7224 35.6986 22.952C36.2156 22.6009 38.379 22.1294 38.3567 23.1992C37.9193 23.3411 37.7701 23.6166 37.8841 24.0759C37.9971 24.4679 37.9989 24.8836 37.8891 25.2766Z" fill="#5F91FE"/>
<path d="M9.8855 17.9622H11.8246C11.4978 18.7438 11.1425 19.517 10.8559 20.3135C10.6966 20.7627 10.5207 20.8512 10.0682 20.6692C8.71065 20.1148 8.95031 20.4037 9.35925 19.1663C9.49667 18.7538 9.70785 18.363 9.8855 17.9622Z" fill="#629EFE"/>
<path d="M38.2879 32.4757C38.4555 32.793 38.7454 32.7195 39.0153 32.7412C39.2851 32.7629 39.6354 32.6377 39.8533 32.9433C39.6572 33.4292 39.4426 33.9035 39.0153 34.2391C38.427 34.2391 37.8421 34.2391 37.3209 33.8834L38.2879 32.4757Z" fill="#5776FA"/>
<path d="M10.1687 17.4596C9.79554 17.6792 10.2213 17.8623 10.1687 17.4596Z" fill="#629EFE"/>
<path d="M35.6985 22.9453C35.7656 23.7246 35.8337 24.4995 35.903 25.2699C35.8512 26.6931 35.5542 28.0968 35.0248 29.4197L33.6053 31.7827C33.0045 32.4712 32.3548 33.1158 31.6612 33.7114L31.3259 33.7816C30.9388 32.7445 30.4544 33.3541 29.9852 33.7031C28.1517 34.6382 26.221 35.0958 24.1545 34.9054C23.9417 34.8854 23.6517 34.8286 23.6216 35.1342C23.5344 35.8523 23.1188 35.7137 22.616 35.6001C21.054 35.2444 19.6747 34.523 18.3859 33.6046C16.9652 32.2163 15.8606 30.9024 14.9887 29.0874C14.7558 28.0854 14.3183 27.1419 14.2949 26.0999C14.3183 25.1814 14.3412 24.2624 14.3636 23.3428C14.5479 22.9136 14.4759 22.2239 15.3088 22.4577C15.5384 22.5228 15.6122 22.3007 15.6775 22.107C16.0498 20.9402 16.62 19.8455 17.3636 18.8707C17.62 18.6569 17.8228 18.4281 17.4473 18.1509C17.1021 17.8954 17.1825 17.6817 17.4591 17.4312C18.1043 16.8501 18.7395 16.2622 19.4887 15.808C21.421 14.766 23.4657 14.1882 25.6897 14.3051C26.0936 14.3268 26.4238 14.3635 26.3249 14.8929C26.2595 15.2369 26.4925 15.3137 26.7506 15.3655C27.2098 15.4573 27.6673 15.5525 28.1249 15.6477C29.0601 16.117 30.0489 16.4827 30.8852 17.1306C31.1148 17.3076 31.2857 17.2976 31.4483 17.0822C31.8002 16.6313 32.0852 16.8417 32.4019 17.1406C33.1913 17.8854 33.8198 18.7555 34.4483 19.6288C34.9728 20.6993 35.4438 21.7831 35.6985 22.9453ZM34.998 25.0511C34.9816 22.6737 34.1119 20.3807 32.546 18.5868C32.2712 18.2662 32.0265 18.004 31.6326 18.4365C31.3293 18.7705 31.0863 18.6035 30.7947 18.3563C29.3861 17.1277 27.6057 16.4035 25.7366 16.299C25.3528 16.2756 25.078 16.2355 25.1283 15.7613C25.1752 15.3154 24.9607 15.1985 24.5283 15.2285C22.4948 15.3504 20.5479 16.0912 18.9507 17.351C18.587 17.6349 18.4864 17.862 18.8635 18.1726C19.1987 18.4499 19.0579 18.6519 18.8099 18.9024C17.643 20.0575 16.8387 21.5261 16.4954 23.129C16.43 23.4296 16.3446 23.6784 15.9708 23.5949C15.3004 23.4463 15.2837 23.8888 15.2334 24.3498C14.7591 28.6599 17.8378 33.2255 22.0696 34.498C22.4434 34.6099 22.74 34.6516 22.7802 34.164C22.8205 33.6764 23.1154 33.6847 23.4758 33.7498C26.2059 34.2391 28.6411 33.5828 30.7762 31.8378C31.0729 31.5956 31.279 31.5372 31.5338 31.8378C31.9176 32.2803 32.1773 32.0048 32.4572 31.6941C34.1064 29.8071 34.9443 27.6128 34.998 25.0511Z" fill="#F7F8FB"/>
<path d="M29.9936 33.7031C30.4612 33.354 30.9456 32.7445 31.3344 33.7816C30.7512 34.3427 30.4394 34.3243 29.9936 33.7031Z" fill="#5776FA"/>
<path d="M34.998 25.0511C34.9443 27.6128 34.1064 29.8071 32.4572 31.6941C32.1773 32.0131 31.9176 32.2803 31.5338 31.8378C31.2773 31.5405 31.0729 31.599 30.7762 31.8378C28.6411 33.5845 26.2059 34.2391 23.4758 33.7498C23.1104 33.6847 22.8205 33.6697 22.7802 34.164C22.74 34.6583 22.445 34.6065 22.0696 34.498C17.8378 33.2255 14.7591 28.6532 15.2334 24.3498C15.2837 23.8888 15.3004 23.4463 15.9708 23.5949C16.3446 23.6784 16.43 23.4279 16.4954 23.129C16.8369 21.5269 17.6387 20.0584 18.8032 18.9024C19.0512 18.6519 19.1936 18.4499 18.8568 18.1727C18.4797 17.862 18.5802 17.6349 18.9439 17.3511C20.5412 16.0912 22.4881 15.3504 24.5215 15.2286C24.9489 15.1985 25.1684 15.3154 25.1215 15.7613C25.0712 16.2355 25.3461 16.2756 25.7299 16.299C27.599 16.4035 29.3794 17.1277 30.7879 18.3564C31.0745 18.6018 31.3175 18.7705 31.6259 18.4365C32.0198 18.004 32.2645 18.2695 32.5393 18.5868C34.1075 20.3797 34.9797 22.6729 34.998 25.0511ZM25.1098 20.1131C22.4177 20.0995 20.1367 22.3687 20.1322 25.0394C20.0893 27.7399 22.3702 30.0681 25.093 30.076C26.4093 30.0721 27.671 29.5516 28.6049 28.6274C29.5388 27.7031 30.0696 26.4495 30.0824 25.138C30.091 24.4815 29.9688 23.8298 29.7227 23.2207C29.2306 22.0026 28.2428 21.0048 27.0271 20.4978C26.4193 20.2443 25.767 20.1135 25.1081 20.1131H25.1098Z" fill="#3A3A3A"/>
<path d="M25.1081 20.1131C25.767 20.1135 26.4193 20.2443 27.0271 20.4978C28.8742 21.2687 30.1072 23.1428 30.0809 25.138C30.0681 26.4494 29.5373 27.7031 28.6034 28.6274C27.6695 29.5516 26.4078 30.0721 25.0915 30.076C22.3957 30.0682 20.0873 27.7673 20.1307 25.0394C20.1352 22.3411 22.4151 20.0995 25.1081 20.1131ZM27.0826 26.15L27.1697 25.9362C27.5435 25.0795 27.4245 24.303 26.7926 23.6083C25.7452 22.5512 24.51 22.5362 23.4407 23.5699C22.7117 24.3414 22.6195 25.1981 23.0955 26.1316C24.0893 27.7681 26.0401 27.7815 27.0692 26.1583L27.0826 26.15Z" fill="#F1F4F6"/>
<path d="M27.0758 26.1583C26.0467 27.7815 24.0959 27.7681 23.1021 26.1316C23.3987 26.0548 23.744 26.2201 24.0021 25.9496C24.6724 26.5574 25.3613 26.6075 26.0937 26.0765L27.0758 26.1583Z" fill="#153C57"/>
<path d="M23.9987 25.9496C23.7406 26.2201 23.3954 26.0548 23.0987 26.1316C22.6227 25.1981 22.7149 24.3414 23.444 23.5699C23.9568 23.6684 24.4965 23.4831 24.9993 23.7102C23.7875 24.0692 23.4859 24.7439 23.9987 25.9496Z" fill="#0E161C"/>
<path d="M27.0758 26.1583L26.0937 26.0765C26.764 24.9175 26.5328 24.2245 25.3328 23.7386C25.8004 23.468 26.3066 23.6634 26.7926 23.615C27.4244 24.3097 27.5434 25.0862 27.1697 25.9429C27.1395 26.0147 27.111 26.0848 27.0825 26.1566L27.0758 26.1583Z" fill="#0E161C"/>
<path d="M26.7926 23.6083C26.3066 23.6567 25.8004 23.4614 25.3328 23.7319L24.9976 23.7102C24.4948 23.4831 23.9552 23.6684 23.4423 23.5699C24.5099 22.5362 25.7452 22.5512 26.7926 23.6083Z" fill="#153C57"/>
<path d="M27.0826 26.15L27.1697 25.9362C27.1396 26.013 27.1111 26.0781 27.0826 26.15Z" fill="#153C57"/>
<path d="M25.0043 23.7102L25.3394 23.7319C26.5394 24.2245 26.764 24.9175 26.1003 26.0698C25.3679 26.6008 24.6707 26.5507 24.0087 25.9429C23.4858 24.7439 23.7875 24.0692 25.0043 23.7102Z" fill="#F7F8FB"/>
</svg>
