<svg width="50" height="50" viewBox="0 0 50 50" fill="none" xmlns="http://www.w3.org/2000/svg">
<path d="M30.0231 34.2117C28.1712 33.5989 26.6512 32.5941 25.7158 30.5721C31.0248 29.1972 36.277 27.8315 42 26.3477C38.685 29.8442 35.4206 32.5972 31.2871 34.2117H30.0231Z" fill="#056839"/>
<path d="M18.6465 34.2117C14.5194 32.5972 11.2613 29.8442 8 26.3819C13.6535 27.8409 18.893 29.1909 24.2147 30.5628C23.5132 32.507 21.9299 33.4216 20.2266 34.2086H18.6465V34.2117Z" fill="#056839"/>
<path d="M24.5623 4.42306V24.7301C20.4921 24.335 17.7427 21.3269 18.438 17.4571C19.3007 12.651 21.5191 8.33018 24.5623 4.42306Z" fill="#056839"/>
<path d="M25.384 4C27.745 7.56808 29.5519 11.541 30.9837 15.5782C32.6555 20.2973 30.5887 23.5978 25.384 24.811V4Z" fill="#056839"/>
<path d="M24.3506 29.8442C19.0826 28.4817 13.8273 27.1254 8.28441 25.6913C12.0703 24.3133 15.7044 23.7191 19.3923 23.7938C22.8464 23.8622 24.8057 26.385 24.3506 29.8442Z" fill="#056839"/>
<path d="M41.6745 25.6758C36.1379 27.1067 30.8921 28.463 25.6241 29.8255C25.2702 26.2388 27.122 23.8467 30.5824 23.7751C34.264 23.7004 37.895 24.2915 41.6745 25.6758Z" fill="#056839"/>
<path d="M35.9782 41.858C35.9681 43.8018 34.8263 45.4257 33.1525 45.8788C31.5642 46.3082 30.176 45.5703 29.7882 44.0875C29.252 42.0394 30.6418 38.6908 33.8604 39.0623C35.148 39.2104 35.9857 40.3269 35.9782 41.858ZM34.4644 41.8308C34.5138 41.1595 34.2156 40.5136 33.6761 40.2831C32.0456 39.586 31.1902 42.0612 31.2006 43.2382C31.2073 43.991 31.5156 44.5388 32.0534 44.7474C33.6594 45.3707 34.4089 42.9639 34.4644 41.8308Z" fill="#528E50"/>
<path d="M41.2249 45.8192H39.7715C40.0156 44.399 40.2827 42.9815 40.5028 41.5574C40.5715 41.113 40.5522 40.6643 40.1367 40.3874C38.8852 39.5563 37.9041 41.8768 37.7408 42.7256C37.5624 43.6519 37.3923 44.58 37.2449 45.5116C37.2038 45.7736 37.1075 45.8568 36.8679 45.8481C36.5085 45.8341 36.1483 45.8446 35.7353 45.8446C36.0966 43.717 36.4643 41.5907 36.8587 39.469C36.8796 39.3577 36.9919 39.1868 37.0731 39.1789C37.4149 39.1465 37.7617 39.1649 38.1538 39.1649C38.1228 39.5724 38.0968 39.9229 38.0616 40.3927C38.8064 39.5702 39.5735 38.9237 40.7759 39.0597C41.4754 39.1386 42.0266 39.7503 41.999 40.5338C41.9363 42.3157 41.5436 44.0712 41.2249 45.8192Z" fill="#528E50"/>
<path d="M28.7301 44.4809C29.0116 45.4625 28.9848 45.5913 28.0214 45.7841C26.2472 46.1399 24.3446 45.9244 24.0681 43.7641C23.8469 42.035 24.7333 39.9843 26.4515 39.2674C27.6443 38.7699 29.4758 39.0211 29.6826 40.546C29.789 41.3269 29.5863 41.9929 28.9044 42.4311C28.0545 42.9779 27.0174 43.0387 26.0368 43.049C25.4403 43.0551 25.3641 43.1646 25.53 43.7763C25.9392 45.283 27.6621 44.7139 28.7301 44.4809ZM25.7009 41.9325C26.4372 41.9736 27.1635 41.9579 27.8488 41.6284C28.1973 41.4601 28.3841 41.1639 28.3121 40.7485C28.2451 40.362 27.9669 40.2034 27.6302 40.1552C26.7413 40.029 25.7369 40.9387 25.7009 41.9325Z" fill="#528E50"/>
<path d="M18.3455 44.4748C19.7396 45.6729 16.0915 45.9578 15.555 45.9077C14.5849 45.8174 13.9315 45.0742 13.7078 43.984C13.3275 42.1288 14.3747 39.9834 16.0049 39.2884C16.6701 39.0045 17.3578 38.9545 18.0507 39.1491C18.7518 39.3454 19.1866 39.8379 19.2905 40.5837C19.3969 41.3497 19.1607 41.9964 18.5072 42.4267C17.6614 42.9829 16.6223 43.037 15.6422 43.0507C14.9979 43.0577 14.9736 43.091 15.1228 43.7509C15.2828 44.459 16.0217 44.9279 16.8359 44.8008C16.9747 44.7791 18.3455 44.5428 18.3455 44.4748ZM15.297 41.9351C16.0342 41.971 16.7631 41.9587 17.4483 41.6231C17.7759 41.4627 17.9744 41.1823 17.9208 40.7853C17.8689 40.3997 17.6 40.22 17.2623 40.1596C16.3693 39.9992 15.3213 40.9334 15.2979 41.936L15.297 41.9351Z" fill="#528E50"/>
<path d="M8.77273 45.5457C8.91179 45.154 9.02656 44.8306 9.12709 44.5475C9.86276 44.695 11.3807 45.2995 11.6998 44.2207C11.8212 43.8079 11.6386 43.424 11.1569 43.1033C9.90715 42.268 8.71159 40.5826 10.5462 39.4707C11.4476 38.9248 12.4026 38.9353 13.3744 39.2245C13.8261 39.3598 13.4078 40.0556 13.3107 40.3497C12.6715 40.247 11.3695 39.8142 11.1108 40.7406C10.8908 41.525 11.8431 41.8693 12.3599 42.212C13.8435 43.1936 13.3024 45.026 12.1957 45.5939C11.0698 46.1723 9.94388 46.0856 8.77273 45.5457Z" fill="#528E50"/>
<path d="M23.5479 44.5151C23.7456 45.8016 23.8017 45.65 22.7101 45.8884C22.1933 46.0014 21.6135 45.983 21.0933 45.8682C19.7605 45.5755 19.0543 44.3144 19.2863 42.7852C19.6499 40.3953 21.3262 38.9528 23.6367 39.0615C23.9492 39.0764 24.2583 39.1754 24.5917 39.2394C24.514 39.5668 24.4831 40.1094 24.2155 40.3234C24.0723 40.4382 23.7305 40.2752 23.475 40.2481C22.0586 40.0966 20.9298 41.4551 20.8177 42.7747C20.6509 44.6805 22.0913 44.905 23.547 44.5142L23.5479 44.5151Z" fill="#528E50"/>
</svg>
