<svg width="50" height="50" viewBox="0 0 50 50" fill="none" xmlns="http://www.w3.org/2000/svg">
<path d="M36.8177 10.1821C37.2582 9.52516 36.8563 8.69043 36.0912 8.69043H23.7867C21.1974 8.69043 19.1338 9.37831 17.6112 10.7541C16.0886 12.1221 15.2152 14.0853 14.9834 16.6513L14.396 23.36C14.1795 25.926 14.7128 27.8892 15.9959 29.2572C17.2866 30.633 19.2266 31.3209 21.8158 31.3209H24.6291V31.3054C25.1856 31.2281 25.487 30.888 25.5411 30.2929L25.8271 27.0004C25.8812 26.4052 25.4407 25.9183 24.8378 25.9183H23.2765C22.264 25.9183 21.553 25.6942 21.1433 25.2536C20.7414 24.8131 20.5869 24.0634 20.6719 23.0122L21.1974 16.9991C21.2902 15.9479 21.5762 15.206 22.0554 14.7654C22.5346 14.3249 23.2843 14.1007 24.3045 14.1007H32.6054C33.587 14.1007 34.5377 13.5829 35.1019 12.7327L36.8177 10.1821Z" fill="#00AF73"/>
<path d="M13.1825 38.818C12.7419 39.475 13.1438 40.3097 13.909 40.3097H26.3913C28.9805 40.3097 31.0441 39.6219 32.5667 38.2461C34.0893 36.8781 34.9627 34.9149 35.1946 32.3489L35.782 25.6402C35.9984 23.0741 35.4651 21.111 34.1821 19.7429C32.8914 18.3672 30.9514 17.6793 28.3622 17.6793H25.5488V17.6948C24.9923 17.7721 24.6909 18.1121 24.6368 18.7073L24.3508 21.9998C24.2967 22.5949 24.7373 23.0819 25.3401 23.0819H26.9014C27.9139 23.0819 28.625 23.306 29.0346 23.7466C29.4365 24.1871 29.5911 24.9368 29.5061 25.9802L28.9805 31.9934C28.8877 33.0445 28.6018 33.7865 28.1226 34.227C27.6434 34.6676 26.8937 34.8917 25.8734 34.8917H17.3948C16.4132 34.8917 15.4625 35.4096 14.8983 36.2598L13.1825 38.818Z" fill="#00AF73"/>
</svg>
