<svg width="50" height="50" viewBox="0 0 50 50" fill="none" xmlns="http://www.w3.org/2000/svg">
<path d="M6 10C6 7.79086 7.79086 6 10 6H40C42.2091 6 44 7.79086 44 10V40C44 42.2091 42.2091 44 40 44H10C7.79086 44 6 42.2091 6 40V10Z" fill="url(#paint0_radial_9176_15250)"/>
<path d="M6 10C6 7.79086 7.79086 6 10 6H40C42.2091 6 44 7.79086 44 10V40C44 42.2091 42.2091 44 40 44H10C7.79086 44 6 42.2091 6 40V10Z" fill="url(#paint1_linear_9176_15250)"/>
<path d="M10.8473 28.5111C10.8473 28.5111 11.6396 29.4627 11.7255 29.5483C12.9857 30.8995 15.5442 31.499 17.0716 30.2144C17.3282 30.0064 17.5339 29.7428 17.673 29.4437C17.7201 29.3446 17.7616 29.2429 17.7971 29.1392C18.3222 27.531 16.8425 26.4748 14.3413 25.5423C11.4105 24.5146 9.3771 22.954 9.3771 20.4324C9.3771 17.6348 11.9165 15.5224 15.4487 15.5224C18.4368 15.5224 19.5155 17.1686 20.432 18.1867L18.6086 19.7854C17.9791 19.0263 17.1683 18.4373 16.2506 18.0726C14.6563 17.6158 12.327 18.1963 12.1456 20.1279C11.9928 21.8122 13.7208 22.5068 16.222 23.4774C19.2959 24.6859 20.7279 25.6374 20.7279 28.2923C20.7279 31.0899 18.2172 34.0492 13.969 33.5258C11.821 33.1623 9.90535 31.9647 8.64201 30.1954L10.8473 28.5111Z" fill="#FFFCFB"/>
<path d="M38.4654 21.4508L36.5561 26.9413C36.2602 27.8928 35.9547 28.9395 35.7351 29.9767C35.4487 28.9491 35.1146 27.9119 34.7804 26.9318L32.7184 21.4508H30.4272L28.222 27.0269C27.8783 27.9785 27.5346 28.9966 27.2673 29.9958C27.0477 29.0442 26.79 28.026 26.4845 27.0174L24.6898 21.4508H21.8258L25.9117 33.1359H28.3938L30.5418 27.36C30.9523 26.2276 31.2673 25.238 31.4964 24.2674C31.7637 25.3046 32.0788 26.2657 32.4511 27.3314L34.5036 33.1359H36.9857L41.358 21.4508H38.4654Z" fill="#FFFCFB"/>
<defs>
<radialGradient id="paint0_radial_9176_15250" cx="0" cy="0" r="1" gradientUnits="userSpaceOnUse" gradientTransform="translate(39.82 10.56) rotate(134.132) scale(35.4725)">
<stop stop-color="#0373F0"/>
<stop offset="1" stop-color="#1A2BC8"/>
</radialGradient>
<linearGradient id="paint1_linear_9176_15250" x1="27.28" y1="27.28" x2="39.44" y2="42.48" gradientUnits="userSpaceOnUse">
<stop stop-color="#1F1C87" stop-opacity="0"/>
<stop offset="1" stop-color="#1F1C87"/>
</linearGradient>
</defs>
</svg>
