<svg width="50" height="50" viewBox="0 0 50 50" fill="none" xmlns="http://www.w3.org/2000/svg">
<g clip-path="url(#clip0_1225_3810)">
<path d="M0 0H50V50H0V0Z" fill="#FF6411"/>
<path d="M25.9873 23.1353C26.8255 23.0829 27.9812 23.1147 28.8335 23.1153L34.0241 23.1175L37.8869 23.114C39.1346 23.1132 40.6774 22.9675 41.7271 23.7167C43.2012 24.7689 42.9255 26.6743 42.9262 28.2236L42.9267 32.6696L42.9253 36.9741C42.9251 37.8122 42.9766 38.8371 42.851 39.6513C42.6622 40.8753 41.4724 41.94 40.1958 42.1084C39.4737 42.1789 38.3184 42.1495 37.5759 42.1494L33.0327 42.1474L28.5819 42.1505C27.4059 42.1512 25.539 42.3229 24.5705 41.6644C22.8952 40.5253 23.1396 38.7711 23.1392 37.0483L23.1392 32.5583L23.1407 28.0978C23.1409 27.5157 23.1082 26.2484 23.1801 25.7289C23.2596 25.1939 23.4752 24.6861 23.8077 24.2505C24.3936 23.4918 25.0665 23.2644 25.9873 23.1353Z" fill="black"/>
<path fill-rule="evenodd" clip-rule="evenodd" d="M36.3285 29.4998L36.3294 29.5023C36.3571 29.5863 36.3816 29.6717 36.4028 29.7584C36.4663 30.0182 36.5 30.2898 36.5 30.5693C36.5 30.623 36.4565 30.6665 36.4028 30.6665H29.7121C29.595 30.6665 29.5 30.5715 29.5 30.4544C29.5 28.6385 30.972 27.1665 32.7879 27.1665H33.0972C34.6029 27.1665 35.8802 28.1445 36.3285 29.4998ZM33.0972 28.3332C33.9448 28.3332 34.6823 28.8047 35.0615 29.4998H30.8931C31.2424 28.8078 31.9597 28.3332 32.7879 28.3332H33.0972Z" fill="white"/>
<path fill-rule="evenodd" clip-rule="evenodd" d="M27.75 32.2707C27.75 32.029 27.9459 31.8332 28.1875 31.8332H31.8333C32.1555 31.8332 32.4167 32.0943 32.4167 32.4165V38.8332C32.0076 38.8332 31.6149 38.763 31.25 38.634C29.8906 38.1535 28.9167 36.8571 28.9167 35.3332V35.0415H28.1875C27.9459 35.0415 27.75 34.8456 27.75 34.604C27.75 34.3624 27.9459 34.1665 28.1875 34.1665H28.9167V32.7082H28.1875C27.9459 32.7082 27.75 32.5123 27.75 32.2707ZM31.25 37.3543V32.9998H30.0833V35.3332C30.0833 36.1968 30.5526 36.9509 31.25 37.3543Z" fill="white"/>
<path fill-rule="evenodd" clip-rule="evenodd" d="M38.25 32.2707C38.25 32.029 38.0541 31.8332 37.8125 31.8332H34.1667C33.8445 31.8332 33.5833 32.0943 33.5833 32.4165V38.8332C33.9924 38.8332 34.3851 38.763 34.75 38.634C36.1094 38.1535 37.0833 36.8571 37.0833 35.3332V35.0415H37.8125C38.0541 35.0415 38.25 34.8456 38.25 34.604C38.25 34.3624 38.0541 34.1665 37.8125 34.1665H37.0833V32.7082H37.8125C38.0541 32.7082 38.25 32.5123 38.25 32.2707ZM34.75 37.3543V32.9998H35.9167V35.3332C35.9167 36.1968 35.4474 36.9509 34.75 37.3543Z" fill="white"/>
<path d="M18.1945 28.8194C19.0122 28.7483 19.6695 29.0532 20.3513 29.4781C21.5891 30.2117 21.6588 32.3191 20.8473 33.3737C19.4134 35.2372 16.3943 33.8093 15.0798 35.8264C14.9306 36.0621 14.7566 36.4475 14.732 36.7257C14.5493 38.7972 14.4536 40.7602 11.7793 41.1054C9.37531 41.3306 7.62477 38.4669 9.08659 36.572C9.92809 35.4813 11.6563 35.4559 12.9153 35.2753C16.1533 34.8109 14.7819 31.8078 16.0303 29.9258C16.4358 29.3175 17.448 28.9245 18.1945 28.8194Z" fill="black"/>
<path d="M11.3082 9.13223C11.9987 9.07964 12.8238 9.28185 13.3724 9.68133C14.7095 10.6173 14.4898 12.0856 14.7285 13.4548C15.2396 16.3862 18.5201 15.1325 20.3369 16.3621C21.5458 17.1802 21.6867 19.1161 20.896 20.2156C20.3972 20.9092 19.4707 21.296 18.6288 21.4091C17.8929 21.4486 17.2117 21.2191 16.6028 20.8111C15.3877 19.997 15.5303 18.6381 15.3011 17.3859C14.8056 13.9193 11.6627 15.522 9.55927 14.1066C8.34316 13.2883 8.27202 11.3399 9.1892 10.2823C9.80424 9.5732 10.3737 9.25859 11.3082 9.13223Z" fill="black"/>
<path d="M38.7215 9.08785C41.1695 8.90524 42.7336 11.792 41.2926 13.6556C40.4437 14.7535 38.9797 14.7261 37.7206 14.8792C36.5131 14.9886 35.3441 15.883 35.1511 17.0808C34.8179 19.1495 35.0147 21.0089 32.2152 21.377C30.6823 21.4438 29.2072 20.3178 29.049 18.823C28.9888 18.2359 29.1226 17.6454 29.4313 17.1356C30.4886 15.4095 32.3507 15.8608 33.7655 15.4613C34.2848 15.3181 34.7505 15.0346 35.1074 14.6443C36.3056 13.3275 35.4583 11.4459 36.6811 10.0593C37.2375 9.4284 37.8827 9.16661 38.7215 9.08785Z" fill="black"/>
</g>
<defs>
<clipPath id="clip0_1225_3810">
<rect width="50" height="50" fill="white"/>
</clipPath>
</defs>
</svg>
