<svg width="50" height="50" viewBox="0 0 50 50" fill="none" xmlns="http://www.w3.org/2000/svg">
<g clip-path="url(#clip0_6_21)">
<mask id="mask0_6_21" style="mask-type:luminance" maskUnits="userSpaceOnUse" x="0" y="0" width="50" height="50">
<path d="M50 0H0V50H50V0Z" fill="white"/>
</mask>
<g mask="url(#mask0_6_21)">
<mask id="mask1_6_21" style="mask-type:luminance" maskUnits="userSpaceOnUse" x="0" y="0" width="50" height="50">
<path d="M50 0H0V50H50V0Z" fill="white"/>
</mask>
<g mask="url(#mask1_6_21)">
<path d="M50 0H0V50H50V0Z" fill="white"/>
<path d="M32.8001 43.85C38.4334 43.85 43.0001 39.2833 43.0001 33.65C43.0001 28.0167 38.4334 23.45 32.8001 23.45C27.1668 23.45 22.6001 28.0167 22.6001 33.65C22.6001 39.2833 27.1668 43.85 32.8001 43.85Z" fill="url(#paint0_linear_6_21)"/>
<path fill-rule="evenodd" clip-rule="evenodd" d="M36.1022 29.9855L36.1031 29.9879C36.1302 30.0702 36.1542 30.1538 36.175 30.2388C36.2372 30.4932 36.2702 30.7593 36.2702 31.0331C36.2702 31.0857 36.2276 31.1283 36.175 31.1283H29.6213C29.5066 31.1283 29.4136 31.0352 29.4136 30.9205C29.4136 29.1418 30.8554 27.7 32.6341 27.7H32.9371C34.412 27.7 35.6631 28.6579 36.1022 29.9855ZM32.9371 28.8428C33.7673 28.8428 34.4897 29.3046 34.8612 29.9855H30.7781C31.1203 29.3076 31.8229 28.8428 32.6341 28.8428H32.9371Z" fill="white"/>
<path fill-rule="evenodd" clip-rule="evenodd" d="M27.7002 32.6998C27.7002 32.463 27.8921 32.2712 28.1287 32.2712H31.6999C32.0155 32.2712 32.2713 32.527 32.2713 32.8426V39.1279C31.8706 39.1279 31.4859 39.0591 31.1285 38.9328C29.797 38.4621 28.843 37.1922 28.843 35.6996V35.4138H28.1287C27.8921 35.4138 27.7002 35.2219 27.7002 34.9853C27.7002 34.7486 27.8921 34.5568 28.1287 34.5568H28.843V33.1283H28.1287C27.8921 33.1283 27.7002 32.9364 27.7002 32.6998ZM31.1285 37.6793V33.4139H29.9857V35.6996C29.9857 36.5455 30.4454 37.2841 31.1285 37.6793Z" fill="white"/>
<path fill-rule="evenodd" clip-rule="evenodd" d="M37.9852 32.6998C37.9852 32.463 37.7933 32.2712 37.5566 32.2712H33.9855C33.6699 32.2712 33.4141 32.527 33.4141 32.8426V39.1279C33.8148 39.1279 34.1994 39.0591 34.5569 38.9328C35.8884 38.4621 36.8424 37.1922 36.8424 35.6996V35.4138H37.5566C37.7933 35.4138 37.9852 35.2219 37.9852 34.9853C37.9852 34.7486 37.7933 34.5568 37.5566 34.5568H36.8424V33.1283H37.5566C37.7933 33.1283 37.9852 32.9364 37.9852 32.6998ZM34.5569 37.6793V33.4139H35.6997V35.6996C35.6997 36.5455 35.24 37.2841 34.5569 37.6793Z" fill="white"/>
<path d="M38.408 9C36.9171 9 35.5707 9.9877 35.3624 12.23L35.2009 12.5955C35.0777 13.488 34.8737 14.1425 34.4572 14.78C34.0407 15.4175 33.5477 15.715 32.0772 15.8C29.9097 15.9275 28.8047 17.16 28.8047 18.605C28.8047 20.05 30.0372 21.495 31.6947 21.495C33.1822 21.495 34.4997 20.5175 34.7122 18.265C34.8397 17.4575 35.0437 16.7775 35.4602 16.14C35.8767 15.5025 36.3697 15.205 37.8147 15.12C39.9822 14.9925 41.0872 13.7175 41.0872 12.23C41.0872 10.7425 39.8547 9 38.408 9Z" fill="#060606"/>
<path d="M18.605 28.8052C17.1175 28.8052 15.7575 29.7827 15.63 32.0352C15.5025 33.3102 15.29 34.1602 14.7375 34.7977C14.185 35.4352 13.675 35.7327 12.23 35.9027C10.19 36.1152 9 37.3902 9 38.9202C9 40.4502 10.275 41.3852 11.89 41.3852C13.3775 41.3852 14.695 40.4077 14.9075 38.1552C15.035 37.3477 15.2475 36.6677 15.6725 36.0302C16.0975 35.3927 16.6075 35.0952 18.0525 34.9677C20.1775 34.8402 21.495 33.5652 21.495 31.6952C21.495 29.8252 20.22 28.8052 18.605 28.8052Z" fill="#060606"/>
<path d="M18.265 15.63C17.0325 15.5025 16.3525 14.9925 15.715 14.355C15.0775 13.7175 14.9075 13.08 14.865 11.975C14.695 9.9775 13.3775 9 11.89 9C10.275 9 9 10.275 9 11.89C9 13.505 10.19 14.78 12.23 14.9075C13.675 14.9925 14.185 15.29 14.7375 15.9275C15.29 16.565 15.5025 17.415 15.63 18.69C15.7575 20.985 17.1175 22.005 18.605 22.005C20.22 22.005 21.495 20.815 21.495 18.605C21.495 16.99 20.305 15.7575 18.265 15.63Z" fill="#060606"/>
</g>
</g>
</g>
<defs>
<linearGradient id="paint0_linear_6_21" x1="32.8001" y1="23.45" x2="32.8001" y2="43.85" gradientUnits="userSpaceOnUse">
<stop stop-color="#FF6411"/>
<stop offset="1" stop-color="#DDBA1D"/>
</linearGradient>
<clipPath id="clip0_6_21">
<rect width="50" height="50" fill="white"/>
</clipPath>
</defs>
</svg>
