<svg width="50" height="50" viewBox="0 0 50 50" fill="none" xmlns="http://www.w3.org/2000/svg">
<path d="M32.9326 15.9722C31.4825 15.9765 30.0566 16.357 28.7845 17.0791C27.5125 17.8011 26.4347 18.8418 25.6495 20.1063C26.4425 21.6041 26.8583 23.2853 26.8583 24.9941C26.8583 26.703 26.4425 28.3842 25.6495 29.882C26.4657 31.1997 27.5985 32.2743 28.9364 33.0002C30.2744 33.726 31.7715 34.0782 33.2804 34.0219C34.7893 33.9656 36.2582 33.5029 37.5424 32.6793C38.8267 31.8556 39.8822 30.6994 40.605 29.3243C41.3279 27.9492 41.6933 26.4027 41.6652 24.8367C41.6371 23.2707 41.2166 21.7393 40.4449 20.3931C39.6733 19.0468 38.5771 17.9321 37.2642 17.1586C35.9513 16.385 34.4669 15.9793 32.9569 15.9813L32.9326 15.9722Z" fill="#C33329"/>
<path d="M36.1371 28.416V29.8395H30.1591V28.1769L33.6258 24.7018C34.0423 24.2849 34.5465 23.774 34.5465 23.1352C34.5428 22.9656 34.5056 22.7986 34.4372 22.6445C34.3689 22.4904 34.2708 22.3525 34.1491 22.2392C34.0273 22.1259 33.8845 22.0398 33.7294 21.986C33.5743 21.9322 33.4102 21.9119 33.2473 21.9265C32.9068 21.9132 32.5744 22.0361 32.3188 22.2698C32.0632 22.5035 31.9039 22.8302 31.8739 23.1822L30.2863 23.0493C30.4324 21.3388 31.6352 20.4352 33.2463 20.4352C34.8573 20.4352 36.1332 21.2842 36.1332 23.063C36.1332 24.2252 35.5486 25.0242 34.7609 25.7827L31.9991 28.4357L36.1371 28.416Z" fill="#FEFFFF"/>
<path d="M17.035 15.9722C15.3147 15.9716 13.633 16.5 12.2023 17.4908C10.7716 18.4815 9.65618 19.89 8.99709 21.5382C8.33799 23.1864 8.1648 25.0003 8.49941 26.7505C8.83401 28.5008 9.66139 30.1089 10.8769 31.3715C12.0925 32.6341 13.6416 33.4945 15.3285 33.8439C17.0154 34.1934 18.7644 34.0161 20.3542 33.3347C21.944 32.6532 23.3033 31.4981 24.2603 30.0154C25.2174 28.5326 25.7291 26.7889 25.7308 25.0045C25.732 23.819 25.5079 22.645 25.0715 21.5494C24.635 20.4538 23.9947 19.4581 23.1871 18.6193C22.3796 17.7805 21.4206 17.115 20.365 16.6608C19.3093 16.2066 18.1778 15.9726 17.035 15.9722Z" fill="#C33329"/>
<path d="M23.2171 20.4928L20.6215 29.7521H19.1065L17.0424 22.7017H17.0161L14.9476 29.7521H13.4861L10.8505 20.4928H12.5897L14.2675 27.1632H14.2909L16.295 20.4928H17.8593L19.8255 27.1632H19.8518L21.6027 20.4928H23.2171Z" fill="#FEFFFF"/>
</svg>
