<svg width="50" height="50" viewBox="0 0 50 50" fill="none" xmlns="http://www.w3.org/2000/svg">
<path d="M34.0815 12.1901L27.5923 15.9544L40.5639 23.4896V15.9544L34.0815 12.1901ZM25.0033 6.91211L18.5142 10.6831V18.2183L31.4858 10.6831L25.0033 6.91211ZM9.43604 15.9544V23.4896L12.0317 24.9966L15.9185 27.2605V12.1901L9.43604 15.9544ZM9.43604 26.5036V34.0455L15.9185 37.8098L22.4077 34.0455L9.43604 26.5036ZM25.0033 35.5526L18.5142 39.3168L25.0033 43.0878L31.4858 39.3168V31.7816L25.0033 35.5526ZM37.9749 24.9966L34.0815 22.7394V37.8098L40.5639 34.0455V26.5036L37.9749 24.9966ZM28.2446 30.6497L31.4858 28.7675V21.2323L25.0033 17.4614L18.5142 21.2323V28.7675L25.0033 32.5385L28.2446 30.6497Z" fill="#7033FD"/>
</svg>
