<svg width="50" height="50" viewBox="0 0 50 50" fill="none" xmlns="http://www.w3.org/2000/svg">
<rect width="50" height="50" fill="black"/>
<path d="M25 44C35.4934 44 44 35.4934 44 25C44 14.5066 35.4934 6 25 6C14.5066 6 6 14.5066 6 25C6 35.4934 14.5066 44 25 44Z" fill="white"/>
<path d="M26.4407 7C35.0948 8.68184 42.1127 14.2188 42.9341 23.6124C43.6718 32.0651 38.1574 39.9946 29.9215 42.3203C18.465 45.5551 4.80112 35.3697 7.14216 23.033C8.17681 13.164 16.8711 7 26.4407 7ZM41.9287 25.4376C42.2922 16.3131 34.9306 8.48662 25.6151 8.09054C16.4117 7.69982 8.45422 15.0647 8.09344 24.3082C7.72455 33.7043 15.0524 41.5856 24.4679 41.9242C33.7915 42.26 41.5517 34.9367 41.9287 25.4376Z" fill="black"/>
<path d="M19.6747 36.6548C24.0798 38.8278 30.4847 38.231 34.629 33.521C36.9964 30.8327 38.0544 27.6722 37.8193 24.1115C37.5869 20.5749 36.0397 17.6525 33.3899 15.2172C34.1872 14.7583 34.9074 14.306 35.6668 13.934C35.8249 13.8564 36.2073 14.0049 36.3586 14.1668C38.2639 16.1619 39.6098 18.6153 40.2631 21.2839C42.2861 29.5482 37.0052 38.1815 28.7254 40.2716C24.7757 41.2618 19.8909 40.4951 16.7695 38.3381L19.5396 36.719C18.6937 36.165 17.8843 35.6137 17.0466 35.1066C16.9114 35.0263 16.629 35.0839 16.4655 35.1722C15.7196 35.5736 14.9913 36.0085 14.2724 36.4233C8.69177 31.3385 7.33782 22.1525 12.6185 15.3631C14.9998 12.2725 18.474 10.189 22.3431 9.5312C26.2121 8.8734 30.1892 9.69008 33.475 11.8171L30.7239 13.4228L33.3764 15.1838C32.7981 15.521 32.317 15.8033 31.8346 16.0816L20.0788 22.8698C19.2079 23.3722 18.3699 24.1936 19.0221 25.2623C19.4639 25.9835 20.3206 26.1842 21.1422 25.7172C23.2839 24.4969 25.4 23.2324 27.5525 22.0335C29.2337 21.073 31.443 21.3656 32.8093 22.7533C34.8107 24.7861 34.2419 28.1985 31.7833 29.6271C27.7557 31.9699 23.6182 34.1739 19.6747 36.6548ZM30.628 13.4924C28.1363 12.0794 24.4122 11.7663 21.3692 12.6748C14.5616 14.74 10.5929 22.2101 12.7693 28.9514C13.4716 31.1271 14.7443 33.0793 16.4574 34.6088C16.6695 34.8029 16.8317 34.9875 17.1979 34.7748C21.5935 32.2177 26.008 29.69 30.3928 27.1182C32.1311 26.1038 30.5769 23.5733 28.8889 24.5477C26.8125 25.7458 24.737 26.9438 22.6623 28.1418C19.9226 29.7329 16.354 28.2205 15.9872 24.9438C15.7872 23.1601 16.4979 21.7043 18.06 20.7609C20.1112 19.5219 22.2056 18.3524 24.2757 17.1481L30.628 13.4924Z" fill="black"/>
</svg>
