<svg width="50" height="50" viewBox="0 0 50 50" fill="none" xmlns="http://www.w3.org/2000/svg">
<path d="M38.9852 8.02215L17.4497 12.28C17.3639 12.3652 17.1923 12.5355 17.1923 12.7058V20.9661C17.1923 21.1364 17.3639 21.3067 17.5355 21.3919L39.071 25.6498C39.3284 25.6498 39.5 25.4794 39.5 25.224V8.36278C39.5 8.10731 39.2426 7.93699 38.9852 8.02215ZM10.929 42L32.4645 37.7421C32.6361 37.7421 32.8077 37.5718 32.8077 37.3163V29.0561C32.8077 28.8857 32.6361 28.7154 32.4645 28.6303L10.929 24.3724C10.6716 24.3724 10.5 24.5427 10.5 24.7982V41.5742C10.5 41.8297 10.7574 42 10.929 42Z" fill="#FE5000"/>
</svg>
