<svg width="50" height="50" viewBox="0 0 50 50" fill="none" xmlns="http://www.w3.org/2000/svg">
<path d="M27.7669 7.94727H23.2402V35.4142H27.7669V7.94727Z" fill="#6B0AEA"/>
<path fill-rule="evenodd" clip-rule="evenodd" d="M28.8635 42.0384L33.3866 39.1939V15.4141C32.0457 14.405 30.5009 13.7104 28.8635 13.3803V42.0384Z" fill="#6B0AEA"/>
<path fill-rule="evenodd" clip-rule="evenodd" d="M17.6064 39.2077L22.133 42.0521V13.394C20.4955 13.7191 18.9495 14.4089 17.6064 15.4136V39.2077Z" fill="#6B0AEA"/>
<path fill-rule="evenodd" clip-rule="evenodd" d="M34.4833 9.25244V38.6963L36.5855 37.3737C37.3382 36.8711 37.954 36.1842 38.3759 35.3763C38.7978 34.5684 39.0123 33.6656 38.9995 32.7514V18.8454C39.01 14.8347 34.4833 9.25244 34.4833 9.25244Z" fill="#6B0AEA"/>
<path fill-rule="evenodd" clip-rule="evenodd" d="M12.0006 32.7407C11.9868 33.6551 12.2009 34.5583 12.6229 35.3664C13.0449 36.1744 13.6612 36.8612 14.4146 37.363L16.5168 38.6857V9.25244C16.5168 9.25244 12.0006 14.8347 12.0006 18.8454V32.7407Z" fill="#6B0AEA"/>
</svg>
