<svg width="50" height="50" viewBox="0 0 50 50" fill="none" xmlns="http://www.w3.org/2000/svg">
<path d="M28.5098 38.4593L33.7579 34.1961L33.5671 24.1752C33.5671 22.687 32.9946 22.3893 32.4221 21.9924L25.0747 17.0316L24.9793 14.1543C23.6752 13.3275 20.7045 11.4159 19.2541 10.3841C17.8037 9.35223 17.5048 10.4833 17.5366 11.1778V31.1204L28.5098 38.4593Z" fill="url(#paint0_linear_10414_294)"/>
<path d="M25.2634 10.4648V12.7467L20.9695 10.1671V8.18277L25.0725 6L28.6031 8.48042L25.2634 10.4648Z" fill="url(#paint1_linear_10414_294)"/>
<path d="M28.6985 16.9138L28.6031 12.2507C30.8931 13.8381 35.6069 17.1916 36.1412 17.5091C36.6756 17.8266 36.9364 18.3029 37 18.5013V31.9948C36.7137 33.3838 36.2216 34.2843 35.2824 35.3681C31.7519 38.7415 28.1979 41.0256 24.5 44C17.4389 38.7415 12.4771 35.4674 12 30.9034V10.1671L15.8168 7.98433L17.6298 9.17493C16.4847 9.17493 16.4529 10.2994 16.5802 10.8616L15.5305 10.1671L13.813 11.2585V28.9439C13.813 30.2377 14.0567 31.5189 14.5305 32.7153C14.9352 33.7373 15.5977 34.6268 16.4481 35.29L24.6908 41.718L33.8511 34.2768L34.3392 33.7693C34.6465 33.4497 34.886 33.0666 35.042 32.6448C35.2009 32.2151 35.2824 31.7587 35.2824 31.2983V21.2794L28.6985 16.9138Z" fill="url(#paint2_linear_10414_294)"/>
<path d="M34.4237 8.18277L28.7939 11.2585L36.9046 16.7154V9.96867L34.4237 8.18277Z" fill="url(#paint3_linear_10414_294)"/>
<defs>
<linearGradient id="paint0_linear_10414_294" x1="1.56365" y1="3.37816" x2="30.8158" y2="47.094" gradientUnits="userSpaceOnUse">
<stop stop-color="#FFD600"/>
<stop offset="0.480769" stop-color="#FFD600"/>
<stop offset="0.889423" stop-color="#F13E20"/>
</linearGradient>
<linearGradient id="paint1_linear_10414_294" x1="12" y1="18.2941" x2="37.9976" y2="25.0653" gradientUnits="userSpaceOnUse">
<stop offset="0.182692" stop-color="#FFD500"/>
<stop offset="0.394231" stop-color="#FBB008"/>
<stop offset="0.831731" stop-color="#F1461E"/>
</linearGradient>
<linearGradient id="paint2_linear_10414_294" x1="17.6366" y1="6.13012" x2="22.4469" y2="24.6244" gradientUnits="userSpaceOnUse">
<stop stop-color="#F03522"/>
<stop offset="0.03439" stop-color="#F13C21"/>
<stop offset="0.788742" stop-color="#FFD600"/>
</linearGradient>
<linearGradient id="paint3_linear_10414_294" x1="19.4427" y1="10.8616" x2="36.5069" y2="19.3469" gradientUnits="userSpaceOnUse">
<stop stop-color="#F03522"/>
<stop offset="0.425532" stop-color="#F13C21"/>
<stop offset="0.739664" stop-color="#FFD600"/>
</linearGradient>
</defs>
</svg>
