<svg width="50" height="50" viewBox="0 0 50 50" fill="none" xmlns="http://www.w3.org/2000/svg">
<path d="M26.5952 6H23.4098V25.3288H26.5952V6Z" fill="#6B0AEA"/>
<path fill-rule="evenodd" clip-rule="evenodd" d="M27.3669 29.9901L30.5499 27.9884V11.2543C29.6063 10.5441 28.5192 10.0553 27.3669 9.82304V29.9901Z" fill="#6B0AEA"/>
<path fill-rule="evenodd" clip-rule="evenodd" d="M19.4452 27.9983L22.6307 30V9.83296C21.4783 10.0617 20.3904 10.5471 19.4452 11.2542V27.9983Z" fill="#6B0AEA"/>
<path fill-rule="evenodd" clip-rule="evenodd" d="M31.3217 6.91847V27.6385L32.801 26.7077C33.3307 26.3541 33.764 25.8707 34.0609 25.3021C34.3578 24.7336 34.5087 24.0983 34.4997 23.4549V13.6692C34.5071 10.8468 31.3217 6.91847 31.3217 6.91847Z" fill="#6B0AEA"/>
<path fill-rule="evenodd" clip-rule="evenodd" d="M15.5004 23.4474C15.4907 24.0909 15.6413 24.7265 15.9383 25.2951C16.2352 25.8638 16.6689 26.3471 17.1991 26.7002L18.6784 27.631V6.91847C18.6784 6.91847 15.5004 10.8468 15.5004 13.6692V23.4474Z" fill="#6B0AEA"/>
<path d="M10.1074 33.8906H12.4609C12.9948 33.8906 13.4456 33.972 13.8135 34.1348C14.1846 34.2975 14.4661 34.5384 14.6582 34.8574C14.8535 35.1732 14.9512 35.5622 14.9512 36.0244C14.9512 36.3499 14.8844 36.6478 14.751 36.918C14.6208 37.1849 14.432 37.4128 14.1846 37.6016C13.9404 37.7871 13.6475 37.9255 13.3057 38.0166L13.042 38.1191H10.8301L10.8203 37.3525H12.4902C12.8288 37.3525 13.1104 37.2939 13.335 37.1768C13.5596 37.0563 13.7288 36.8952 13.8428 36.6934C13.9567 36.4915 14.0137 36.2686 14.0137 36.0244C14.0137 35.751 13.96 35.5117 13.8525 35.3066C13.7451 35.1016 13.5758 34.9437 13.3447 34.833C13.1169 34.7191 12.8223 34.6621 12.4609 34.6621H11.0498V41H10.1074V33.8906ZM14.2627 41L12.5342 37.7773L13.5156 37.7725L15.2686 40.9414V41H14.2627Z" fill="#1C1D1F"/>
<path d="M19.248 40.0967V37.377C19.248 37.1686 19.2057 36.988 19.1211 36.835C19.0397 36.6787 18.916 36.5583 18.75 36.4736C18.584 36.389 18.3789 36.3467 18.1348 36.3467C17.9069 36.3467 17.7067 36.3857 17.5342 36.4639C17.3649 36.542 17.2314 36.6445 17.1338 36.7715C17.0394 36.8984 16.9922 37.0352 16.9922 37.1816H16.0889C16.0889 36.9928 16.1377 36.8057 16.2354 36.6201C16.333 36.4346 16.473 36.2669 16.6553 36.1172C16.8408 35.9642 17.0622 35.8438 17.3193 35.7559C17.5798 35.6647 17.8695 35.6191 18.1885 35.6191C18.5726 35.6191 18.9111 35.6842 19.2041 35.8145C19.5003 35.9447 19.7314 36.1416 19.8975 36.4053C20.0667 36.6657 20.1514 36.9928 20.1514 37.3867V39.8477C20.1514 40.0234 20.166 40.2106 20.1953 40.4092C20.2279 40.6077 20.2751 40.7786 20.3369 40.9219V41H19.3945C19.349 40.8958 19.3132 40.7575 19.2871 40.585C19.2611 40.4092 19.248 40.2464 19.248 40.0967ZM19.4043 37.7969L19.4141 38.4316H18.501C18.2438 38.4316 18.0143 38.4528 17.8125 38.4951C17.6107 38.5342 17.4414 38.5944 17.3047 38.6758C17.168 38.7572 17.0638 38.8597 16.9922 38.9834C16.9206 39.1038 16.8848 39.2454 16.8848 39.4082C16.8848 39.5742 16.9222 39.7256 16.9971 39.8623C17.0719 39.999 17.1842 40.1081 17.334 40.1895C17.487 40.2676 17.6742 40.3066 17.8955 40.3066C18.1722 40.3066 18.4163 40.248 18.6279 40.1309C18.8395 40.0137 19.0072 39.8704 19.1309 39.7012C19.2578 39.5319 19.3262 39.3675 19.3359 39.208L19.7217 39.6426C19.6989 39.7793 19.637 39.9307 19.5361 40.0967C19.4352 40.2627 19.3001 40.4222 19.1309 40.5752C18.9648 40.7249 18.7663 40.8503 18.5352 40.9512C18.3073 41.0488 18.0501 41.0977 17.7637 41.0977C17.4056 41.0977 17.0915 41.0277 16.8213 40.8877C16.5544 40.7477 16.346 40.5605 16.1963 40.3262C16.0498 40.0885 15.9766 39.8232 15.9766 39.5303C15.9766 39.2471 16.0319 38.998 16.1426 38.7832C16.2533 38.5651 16.4128 38.3844 16.6211 38.2412C16.8294 38.0947 17.0801 37.984 17.373 37.9092C17.666 37.8343 17.9932 37.7969 18.3545 37.7969H19.4043Z" fill="#1C1D1F"/>
<path d="M22.4756 36.8447V41H21.5723V35.7168H22.4268L22.4756 36.8447ZM22.2607 38.1582L21.8848 38.1436C21.888 37.7822 21.9417 37.4486 22.0459 37.1426C22.1501 36.8333 22.2965 36.5648 22.4854 36.3369C22.6742 36.109 22.8988 35.9333 23.1592 35.8096C23.4229 35.6826 23.7142 35.6191 24.0332 35.6191C24.2936 35.6191 24.528 35.6549 24.7363 35.7266C24.9447 35.7949 25.1221 35.9056 25.2686 36.0586C25.4183 36.2116 25.5322 36.4102 25.6104 36.6543C25.6885 36.8952 25.7275 37.1898 25.7275 37.5381V41H24.8193V37.5283C24.8193 37.2516 24.7786 37.0303 24.6973 36.8643C24.6159 36.695 24.4971 36.5729 24.3408 36.498C24.1846 36.4199 23.9925 36.3809 23.7646 36.3809C23.54 36.3809 23.335 36.4281 23.1494 36.5225C22.9671 36.6169 22.8092 36.7471 22.6758 36.9131C22.5456 37.0791 22.443 37.2695 22.3682 37.4844C22.2965 37.696 22.2607 37.9206 22.2607 38.1582Z" fill="#1C1D1F"/>
<path d="M30.5225 35.7168H31.3428V40.8877C31.3428 41.3532 31.2484 41.7503 31.0596 42.0791C30.8708 42.4079 30.6071 42.6569 30.2686 42.8262C29.9333 42.9987 29.5459 43.085 29.1064 43.085C28.9242 43.085 28.7093 43.0557 28.4619 42.9971C28.2178 42.9417 27.9769 42.8457 27.7393 42.709C27.5049 42.5755 27.3079 42.3949 27.1484 42.167L27.6221 41.6299C27.8434 41.8968 28.0745 42.0824 28.3154 42.1865C28.5596 42.2907 28.8005 42.3428 29.0381 42.3428C29.3245 42.3428 29.5719 42.2891 29.7803 42.1816C29.9886 42.0742 30.1497 41.9147 30.2637 41.7031C30.3809 41.4948 30.4395 41.2376 30.4395 40.9316V36.8789L30.5225 35.7168ZM26.8848 38.417V38.3145C26.8848 37.9108 26.932 37.5446 27.0264 37.2158C27.124 36.8838 27.2624 36.599 27.4414 36.3613C27.6237 36.1237 27.8434 35.9414 28.1006 35.8145C28.3577 35.6842 28.6475 35.6191 28.9697 35.6191C29.3018 35.6191 29.5915 35.6777 29.8389 35.7949C30.0895 35.9089 30.3011 36.0765 30.4736 36.2979C30.6494 36.516 30.7878 36.7796 30.8887 37.0889C30.9896 37.3981 31.0596 37.748 31.0986 38.1387V38.5879C31.0628 38.9753 30.9928 39.3236 30.8887 39.6328C30.7878 39.9421 30.6494 40.2057 30.4736 40.4238C30.3011 40.6419 30.0895 40.8096 29.8389 40.9268C29.5882 41.0407 29.2952 41.0977 28.96 41.0977C28.6442 41.0977 28.3577 41.0309 28.1006 40.8975C27.8467 40.764 27.6286 40.5768 27.4463 40.3359C27.264 40.0951 27.124 39.8118 27.0264 39.4863C26.932 39.1576 26.8848 38.8011 26.8848 38.417ZM27.7881 38.3145V38.417C27.7881 38.6807 27.8141 38.9281 27.8662 39.1592C27.9215 39.3903 28.0046 39.5938 28.1152 39.7695C28.2292 39.9453 28.374 40.0837 28.5498 40.1846C28.7256 40.2822 28.9355 40.3311 29.1797 40.3311C29.4792 40.3311 29.7266 40.2676 29.9219 40.1406C30.1172 40.0137 30.2718 39.846 30.3857 39.6377C30.5029 39.4294 30.5941 39.2031 30.6592 38.959V37.7822C30.6234 37.6032 30.568 37.4307 30.4932 37.2646C30.4215 37.0954 30.3271 36.9456 30.21 36.8154C30.096 36.682 29.9544 36.5762 29.7852 36.498C29.6159 36.4199 29.4173 36.3809 29.1895 36.3809C28.9421 36.3809 28.7288 36.4329 28.5498 36.5371C28.374 36.638 28.2292 36.778 28.1152 36.957C28.0046 37.1328 27.9215 37.3379 27.8662 37.5723C27.8141 37.8034 27.7881 38.0508 27.7881 38.3145Z" fill="#1C1D1F"/>
<path d="M34.9072 41.0977C34.5394 41.0977 34.2057 41.0358 33.9062 40.9121C33.61 40.7852 33.3545 40.6077 33.1396 40.3799C32.9281 40.152 32.7653 39.8818 32.6514 39.5693C32.5374 39.2568 32.4805 38.915 32.4805 38.5439V38.3389C32.4805 37.9092 32.5439 37.5267 32.6709 37.1914C32.7979 36.8529 32.9704 36.5664 33.1885 36.332C33.4066 36.0977 33.654 35.9202 33.9307 35.7998C34.2074 35.6794 34.4938 35.6191 34.79 35.6191C35.1676 35.6191 35.4932 35.6842 35.7666 35.8145C36.0433 35.9447 36.2695 36.127 36.4453 36.3613C36.6211 36.5924 36.7513 36.8659 36.8359 37.1816C36.9206 37.4941 36.9629 37.8359 36.9629 38.207V38.6123H33.0176V37.875H36.0596V37.8066C36.0465 37.5723 35.9977 37.3444 35.9131 37.123C35.8317 36.9017 35.7015 36.7194 35.5225 36.5762C35.3434 36.4329 35.0993 36.3613 34.79 36.3613C34.585 36.3613 34.3962 36.4053 34.2236 36.4932C34.0511 36.5778 33.903 36.7048 33.7793 36.874C33.6556 37.0433 33.5596 37.25 33.4912 37.4941C33.4229 37.7383 33.3887 38.0199 33.3887 38.3389V38.5439C33.3887 38.7946 33.4229 39.0306 33.4912 39.252C33.5628 39.4701 33.6654 39.6621 33.7988 39.8281C33.9355 39.9941 34.0999 40.1243 34.292 40.2188C34.4873 40.3132 34.7087 40.3604 34.9561 40.3604C35.2751 40.3604 35.5452 40.2952 35.7666 40.165C35.988 40.0348 36.1816 39.8607 36.3477 39.6426L36.8945 40.0771C36.7806 40.2497 36.6357 40.4141 36.46 40.5703C36.2842 40.7266 36.0677 40.8535 35.8105 40.9512C35.5566 41.0488 35.2555 41.0977 34.9072 41.0977Z" fill="#1C1D1F"/>
<path d="M38.9209 36.5469V41H38.0176V35.7168H38.8965L38.9209 36.5469ZM40.5713 35.6875L40.5664 36.5273C40.4915 36.5111 40.4199 36.5013 40.3516 36.498C40.2865 36.4915 40.2116 36.4883 40.127 36.4883C39.9186 36.4883 39.7347 36.5208 39.5752 36.5859C39.4157 36.651 39.2806 36.7422 39.1699 36.8594C39.0592 36.9766 38.9714 37.1165 38.9062 37.2793C38.8444 37.4388 38.8037 37.6146 38.7842 37.8066L38.5303 37.9531C38.5303 37.6341 38.5612 37.3346 38.623 37.0547C38.6882 36.7747 38.7874 36.5273 38.9209 36.3125C39.0544 36.0944 39.2236 35.9251 39.4287 35.8047C39.637 35.681 39.8844 35.6191 40.1709 35.6191C40.236 35.6191 40.3109 35.6273 40.3955 35.6436C40.4801 35.6566 40.5387 35.6712 40.5713 35.6875Z" fill="#1C1D1F"/>
</svg>
