<svg width="50" height="50" viewBox="0 0 50 50" fill="none" xmlns="http://www.w3.org/2000/svg">
<rect width="50" height="50" fill="#0C385A"/>
<path d="M11.5156 37.7328C11.2665 37.7331 11.0205 37.6776 10.7955 37.5705C10.5706 37.4634 10.3725 37.3074 10.2156 37.1138C8.54543 34.9677 7.3627 32.4835 6.74964 29.8341C6.13658 27.1846 6.10792 24.4334 6.66563 21.7718C7.77182 16.7607 10.7993 12.3832 15.0976 9.5798C15.2855 9.46627 15.4939 9.39086 15.7109 9.35786C15.9279 9.32486 16.1492 9.33493 16.3623 9.38749C16.5755 9.44005 16.7761 9.53407 16.9529 9.66418C17.1297 9.79429 17.2791 9.95795 17.3926 10.1458C17.5061 10.3337 17.5816 10.542 17.6146 10.759C17.6476 10.976 17.6375 11.1974 17.5849 11.4105C17.5324 11.6236 17.4383 11.8243 17.3082 12.0011C17.1781 12.1779 17.0145 12.3273 16.8266 12.4408C13.3488 14.7703 10.8895 18.3378 9.94962 22.4168C9.5 24.5979 9.52326 26.85 10.0178 29.0213C10.5124 31.1926 11.4668 33.2326 12.8166 35.0038C13.0148 35.2492 13.1395 35.5457 13.1763 35.859C13.2131 36.1722 13.1605 36.4895 13.0245 36.7742C12.8885 37.0588 12.6747 37.2991 12.4079 37.4673C12.1411 37.6356 11.832 37.7248 11.5166 37.7248" fill="white"/>
<path d="M25.2656 44.6254C22.0472 44.6244 18.8824 43.801 16.0716 42.2334C15.8789 42.1213 15.7106 41.9719 15.5766 41.7938C15.4425 41.6157 15.3455 41.4126 15.2911 41.1964C15.2367 40.9803 15.2262 40.7554 15.26 40.5351C15.2939 40.3148 15.3714 40.1035 15.4882 39.9136C15.6049 39.7237 15.7585 39.5591 15.9398 39.4295C16.1212 39.2999 16.3266 39.2078 16.544 39.1588C16.7614 39.1098 16.9865 39.1047 17.2059 39.144C17.4253 39.1832 17.6347 39.266 17.8216 39.3874C19.8393 40.4965 22.0823 41.1333 24.3818 41.2499C26.6812 41.3664 28.9771 40.9597 31.0966 40.0604C38.1966 36.9604 39.8276 31.3084 39.8966 31.0684C39.9533 30.8561 40.0513 30.6571 40.185 30.4827C40.3186 30.3082 40.4853 30.1619 40.6755 30.0519C40.8658 29.9419 41.0758 29.8704 41.2936 29.8416C41.5115 29.8128 41.7328 29.8272 41.9451 29.8839C42.1574 29.9406 42.3564 30.0386 42.5308 30.1722C42.7052 30.3059 42.8516 30.4726 42.9616 30.6628C43.0716 30.853 43.1431 31.0631 43.1719 31.2809C43.2007 31.4987 43.1863 31.7201 43.1296 31.9324C43.0506 32.2324 41.0746 39.3524 32.4426 43.1214C30.1831 44.1157 27.7413 44.6286 25.2726 44.6274" fill="white"/>
<path d="M42.3676 24.8348C41.9554 24.8345 41.5579 24.6819 41.2513 24.4063C40.9447 24.1307 40.7507 23.7516 40.7066 23.3418C40.2013 20.417 38.9298 17.6783 37.0216 15.4048C35.5402 13.684 33.6981 12.3105 31.626 11.3819C29.554 10.4533 27.3029 9.99236 25.0326 10.0318C24.812 10.0489 24.5902 10.0219 24.3801 9.95256C24.17 9.88317 23.9757 9.77271 23.8087 9.62761C23.6416 9.48251 23.5051 9.30565 23.4069 9.10732C23.3088 8.90899 23.2511 8.69314 23.2371 8.4723C23.2231 8.25147 23.2532 8.03006 23.3255 7.82094C23.3978 7.61181 23.511 7.41915 23.6584 7.25414C23.8058 7.08913 23.9846 6.95506 24.1843 6.85973C24.384 6.7644 24.6006 6.7097 24.8216 6.69881C27.6164 6.63162 30.3912 7.18627 32.9454 8.32268C35.4996 9.45909 37.7694 11.1489 39.5906 13.2698C41.9314 16.0418 43.468 19.4021 44.0336 22.9858C44.0569 23.2041 44.037 23.4248 43.975 23.6354C43.9129 23.8459 43.81 24.0422 43.6721 24.213C43.5342 24.3837 43.364 24.5257 43.1712 24.6307C42.9784 24.7356 42.7669 24.8016 42.5486 24.8248C42.4885 24.8316 42.4281 24.8349 42.3676 24.8348Z" fill="white"/>
<path d="M12.3174 30.1775C12.2415 30.1063 12.1828 30.0189 12.1457 29.9217C11.0315 26.7386 11.125 23.2573 12.4083 20.1386C14.9191 14.6602 18.5167 13.2949 18.6683 13.2394C18.839 13.1765 19.0277 13.184 19.1929 13.2602C19.3581 13.3365 19.4863 13.4752 19.5492 13.6459C19.6121 13.8166 19.6046 14.0054 19.5284 14.1706C19.4522 14.3358 19.3134 14.4639 19.1427 14.5268C19.1099 14.5386 15.9117 15.7922 13.6529 20.7071C12.5382 23.4942 12.4567 26.588 13.4233 29.4299C13.4784 29.5744 13.483 29.7332 13.4364 29.8806C13.3897 30.0281 13.2946 30.1554 13.1664 30.2418C13.0382 30.3283 12.8845 30.3688 12.7304 30.3569C12.5762 30.345 12.4307 30.2813 12.3173 30.1761" fill="white"/>
<path d="M17.1673 36.1085C17.0327 35.9865 16.952 35.8161 16.943 35.6346C16.934 35.4532 16.9975 35.2755 17.1194 35.1409C17.2414 35.0062 17.4118 34.9255 17.5933 34.9165C17.7748 34.9075 17.9524 34.971 18.0871 35.0929C20.4091 36.869 23.2855 37.7646 26.2054 37.6207C29.1253 37.4767 31.8997 36.3026 34.0358 34.3067C34.159 34.1731 34.3302 34.0938 34.5118 34.0862C34.6934 34.0787 34.8706 34.1435 35.0044 34.2665L35.0088 34.2706C35.1412 34.3934 35.2198 34.5635 35.2272 34.7439C35.2347 34.9243 35.1706 35.1003 35.0488 35.2336C32.6696 37.4947 29.5586 38.8279 26.2804 38.9912C23.0022 39.1545 19.7741 38.137 17.182 36.1235L17.1674 36.1099" fill="white"/>
<path d="M37.792 26.1776C37.7157 26.1068 37.6566 26.0196 37.6192 25.9226C37.5817 25.8256 37.5668 25.7213 37.5757 25.6177C37.6072 23.2682 36.958 20.9598 35.7064 18.9712C34.049 16.4529 31.5759 14.5812 28.702 13.6701C28.5316 13.6188 28.3878 13.5033 28.301 13.3479C28.2142 13.1926 28.1911 13.0095 28.2367 12.8375C28.2823 12.6655 28.393 12.5179 28.5454 12.4259C28.6978 12.334 28.8799 12.3048 29.0534 12.3447C32.2745 13.3319 35.0441 15.4237 36.8749 18.2519C38.2926 20.4852 39.0127 23.0904 38.9433 25.7348C38.9324 25.8628 38.8857 25.9852 38.8085 26.088C38.7313 26.1908 38.6268 26.2697 38.5069 26.3159C38.3869 26.3621 38.2564 26.3736 38.1303 26.3491C38.0041 26.3247 37.8874 26.2652 37.7934 26.1775" fill="white"/>
</svg>
