<svg width="50" height="50" viewBox="0 0 50 50" fill="none" xmlns="http://www.w3.org/2000/svg">
<rect width="50" height="50" fill="#08090A"/>
<path d="M33.2861 14C38.9225 14 41.5633 20.9692 37.3408 24.7002L24.6113 35.9463H19.3311L35.0234 22.0811C36.8333 20.482 35.7017 17.5264 33.2861 17.5264H13.5264C11.5789 17.5264 10 15.9474 10 14H33.2861Z" fill="#DF381B"/>
<path d="M26.2363 27.7363H25.4727C23.5254 27.7362 21.9473 26.1574 21.9473 24.21H30.2354L26.2363 27.7363Z" fill="#DF381B"/>
<path d="M33.3506 19.1055C34.2689 19.1055 34.7014 20.2398 34.0166 20.8516L32.0234 22.6318H19.4189C17.4716 22.6317 15.8936 21.0528 15.8936 19.1055H33.3506Z" fill="#DF381B"/>
</svg>
