<svg width="50" height="50" viewBox="0 0 50 50" fill="none" xmlns="http://www.w3.org/2000/svg">
<rect width="50" height="50" fill="#81B5A1"/>
<path d="M25.3477 6C34.2844 6 41.4772 13.4109 41.6953 22.3477C41.6953 25.1511 41.0241 27.7307 39.8574 30H37C37 29.4477 36.7761 29 36.5 29C36.2239 29 36 29.4477 36 30H31V33.8691C29.3763 32.9083 27.562 32.374 25.3477 32.374C22.7321 32.3741 20.1168 33.2467 18.373 34.7725C17.0654 35.6442 15.1036 35.6441 14.0137 34.5547C10.9621 31.5031 9 27.143 9 22.3477C9.00009 13.193 16.193 6.00009 25.3477 6ZM25.1299 14.2832C20.1167 14.2832 16.8469 17.9882 16.8467 22.5654C16.8467 27.1428 20.1165 30.8486 25.1299 30.8486C30.1432 30.8486 33.4131 27.1428 33.4131 22.5654C33.4129 17.9882 30.1431 14.2832 25.1299 14.2832Z" fill="white"/>
<path d="M31.1875 31.5H32.6875V33C32.6875 33.4142 33.0233 33.75 33.4375 33.75H39.4375C39.8517 33.75 40.1875 33.4142 40.1875 33V31.5H41.6875V34.5C41.6875 34.9142 42.0233 35.25 42.4375 35.25C42.8517 35.25 43.1875 34.9142 43.1875 34.5V31.5C43.1875 30.675 42.5125 30 41.6875 30H38.5525C38.2375 29.13 37.4125 28.5 36.4375 28.5C35.4625 28.5 34.6375 29.13 34.3225 30H31.1875C30.3625 30 29.6875 30.675 29.6875 31.5V42C29.6875 42.825 30.3625 43.5 31.1875 43.5H34.9375C35.3517 43.5 35.6875 43.1642 35.6875 42.75C35.6875 42.3358 35.3517 42 34.9375 42H31.1875V31.5ZM36.4375 30C36.85 30 37.1875 30.3375 37.1875 30.75C37.1875 31.1625 36.85 31.5 36.4375 31.5C36.025 31.5 35.6875 31.1625 35.6875 30.75C35.6875 30.3375 36.025 30 36.4375 30Z" fill="black"/>
<path d="M43.75 38.7571L43.2528 39.2569L41.7684 37.7645L42.2655 37.2648C42.5386 36.9902 42.9798 36.9902 43.2528 37.2648L43.75 37.7645C44.0231 38.0391 44.0231 38.4825 43.75 38.7571ZM41.2712 38.2643L42.7557 39.7566L39.0445 43.4874H37.5601V41.9951L41.2712 38.2643Z" fill="black"/>
</svg>
