<svg width="50" height="50" viewBox="0 0 50 50" fill="none" xmlns="http://www.w3.org/2000/svg">
<path fill-rule="evenodd" clip-rule="evenodd" d="M9 22.3478C9 13.193 16.193 6 25.3478 6C34.2847 6 41.4777 13.411 41.6957 22.3478C41.6957 25.151 41.0253 27.7308 39.8588 30H37C37 29.4477 36.7761 29 36.5 29C36.2239 29 36 29.4477 36 30H31V33.8672C29.3765 32.9067 27.5618 32.3745 25.3478 32.3745C22.7322 32.3745 20.1165 33.2464 18.3728 34.7722C17.0649 35.6441 15.1032 35.6441 14.0133 34.5542C10.9617 31.5026 9 27.1432 9 22.3478ZM16.847 22.5658C16.847 27.1432 20.1165 30.8487 25.1299 30.8487C30.1432 30.8487 33.4128 27.1432 33.4128 22.5658C33.4128 17.9884 30.1432 14.2829 25.1299 14.2829C20.1165 14.2829 16.847 17.9884 16.847 22.5658Z" fill="#81B5A1"/>
<path d="M31.1875 31.5H32.6875V33C32.6875 33.4142 33.0233 33.75 33.4375 33.75H39.4375C39.8517 33.75 40.1875 33.4142 40.1875 33V31.5H41.6875V34.5C41.6875 34.9142 42.0233 35.25 42.4375 35.25C42.8517 35.25 43.1875 34.9142 43.1875 34.5V31.5C43.1875 30.675 42.5125 30 41.6875 30H38.5525C38.2375 29.13 37.4125 28.5 36.4375 28.5C35.4625 28.5 34.6375 29.13 34.3225 30H31.1875C30.3625 30 29.6875 30.675 29.6875 31.5V42C29.6875 42.825 30.3625 43.5 31.1875 43.5H34.9375C35.3517 43.5 35.6875 43.1642 35.6875 42.75C35.6875 42.3358 35.3517 42 34.9375 42H31.1875V31.5ZM36.4375 30C36.85 30 37.1875 30.3375 37.1875 30.75C37.1875 31.1625 36.85 31.5 36.4375 31.5C36.025 31.5 35.6875 31.1625 35.6875 30.75C35.6875 30.3375 36.025 30 36.4375 30Z" fill="#6D6D6D"/>
<path d="M43.75 38.7571L43.2528 39.2569L41.7684 37.7645L42.2655 37.2648C42.5386 36.9902 42.9798 36.9902 43.2528 37.2648L43.75 37.7645C44.0231 38.0391 44.0231 38.4825 43.75 38.7571ZM41.2712 38.2643L42.7557 39.7566L39.0445 43.4874H37.5601V41.9951L41.2712 38.2643Z" fill="#6D6D6D"/>
</svg>
