<svg width="50" height="50" viewBox="0 0 50 50" fill="none" xmlns="http://www.w3.org/2000/svg">
<rect width="50" height="50" fill="#101010"/>
<path d="M40.4588 16.5887L34.4318 10.5738L22.8284 22.1539L15.567 29.4007L15.2436 29.078C13.6708 27.5083 13.6708 24.9637 15.2436 23.3858L21.2556 17.3941C24.4109 14.2451 24.4109 9.149 21.2556 6L9.53996 17.6935C4.82001 22.4123 4.82001 30.0613 9.53996 34.7799L15.567 40.795L28.5416 27.846L34.4318 21.9679L34.7551 22.2905C36.3279 23.8603 36.3279 26.4049 34.7551 27.9828L30.116 32.6059C26.9606 35.7548 26.9606 40.8511 30.116 44L40.4601 33.6765C45.18 28.9578 45.18 21.3088 40.4601 16.5901L40.4588 16.5887Z" fill="white"/>
</svg>
