<svg width="50" height="50" viewBox="0 0 50 50" fill="none" xmlns="http://www.w3.org/2000/svg">
<path fill-rule="evenodd" clip-rule="evenodd" d="M24.8478 9C15.693 9 8.5 16.193 8.5 25.3478C8.5 30.1432 10.4617 34.5026 13.5133 37.5542C14.6032 38.6441 16.5649 38.6441 17.8728 37.7722C19.6165 36.2464 22.2322 35.3745 24.8478 35.3745C27.6815 35.3745 29.8612 36.2464 31.8229 37.7722C33.1307 38.862 34.8745 38.6441 36.1823 37.3362C39.2339 34.2846 41.1957 30.1432 41.1957 25.3478C40.9777 16.411 33.7847 9 24.8478 9ZM24.6299 33.8487C19.6165 33.8487 16.347 30.1432 16.347 25.5658C16.347 20.9884 19.6165 17.2829 24.6299 17.2829C29.6432 17.2829 32.9128 20.9884 32.9128 25.5658C32.9128 30.1432 29.6432 33.8487 24.6299 33.8487Z" fill="#81B5A1"/>
</svg>
