<svg width="50" height="50" viewBox="0 0 50 50" fill="none" xmlns="http://www.w3.org/2000/svg">
<path d="M20.6143 44.2031C20.6143 44.0371 20.5882 43.8906 20.5361 43.7637C20.4873 43.6335 20.3994 43.5163 20.2725 43.4121C20.1488 43.3079 19.9762 43.2087 19.7549 43.1143C19.5368 43.0199 19.2601 42.9238 18.9248 42.8262C18.5732 42.722 18.2559 42.6064 17.9727 42.4795C17.6895 42.3493 17.4469 42.2012 17.2451 42.0352C17.0433 41.8691 16.8887 41.6787 16.7812 41.4639C16.6738 41.249 16.6201 41.0033 16.6201 40.7266C16.6201 40.4499 16.6771 40.1943 16.791 39.96C16.9049 39.7256 17.0677 39.5221 17.2793 39.3496C17.4941 39.1738 17.7497 39.0371 18.0459 38.9395C18.3421 38.8418 18.6725 38.793 19.0371 38.793C19.571 38.793 20.0234 38.8955 20.3945 39.1006C20.7689 39.3024 21.0537 39.5677 21.249 39.8965C21.4443 40.222 21.542 40.5703 21.542 40.9414H20.6045C20.6045 40.6745 20.5475 40.4385 20.4336 40.2334C20.3197 40.0251 20.1471 39.8623 19.916 39.7451C19.6849 39.6247 19.3919 39.5645 19.0371 39.5645C18.7018 39.5645 18.4251 39.6149 18.207 39.7158C17.9889 39.8167 17.8262 39.9535 17.7188 40.126C17.6146 40.2985 17.5625 40.4954 17.5625 40.7168C17.5625 40.8665 17.5934 41.0033 17.6553 41.127C17.7204 41.2474 17.8197 41.3597 17.9531 41.4639C18.0898 41.568 18.2624 41.6641 18.4707 41.752C18.6823 41.8398 18.9346 41.9245 19.2275 42.0059C19.6312 42.1198 19.9795 42.2467 20.2725 42.3867C20.5654 42.5267 20.8063 42.6846 20.9951 42.8604C21.1872 43.0329 21.3288 43.2298 21.4199 43.4512C21.5143 43.6693 21.5615 43.9167 21.5615 44.1934C21.5615 44.4831 21.5029 44.7451 21.3857 44.9795C21.2686 45.2139 21.1009 45.4141 20.8828 45.5801C20.6647 45.7461 20.4027 45.8747 20.0967 45.9658C19.7939 46.0537 19.4554 46.0977 19.0811 46.0977C18.7523 46.0977 18.4284 46.0521 18.1094 45.9609C17.7936 45.8698 17.5055 45.7331 17.2451 45.5508C16.988 45.3685 16.7812 45.1439 16.625 44.877C16.472 44.6068 16.3955 44.2943 16.3955 43.9395H17.333C17.333 44.1836 17.3802 44.3936 17.4746 44.5693C17.569 44.7419 17.6976 44.8851 17.8604 44.999C18.0264 45.113 18.2135 45.1976 18.4219 45.2529C18.6335 45.305 18.8532 45.3311 19.0811 45.3311C19.4098 45.3311 19.6882 45.2855 19.916 45.1943C20.1439 45.1032 20.3164 44.973 20.4336 44.8037C20.554 44.6344 20.6143 44.4342 20.6143 44.2031Z" fill="#1C1D1F"/>
<path d="M24.6865 46H23.2021L23.2119 45.2334H24.6865C25.1943 45.2334 25.6175 45.1276 25.9561 44.916C26.2946 44.7012 26.5485 44.4017 26.7178 44.0176C26.8903 43.6302 26.9766 43.1777 26.9766 42.6602V42.2256C26.9766 41.8187 26.9277 41.4574 26.8301 41.1416C26.7324 40.8226 26.5892 40.554 26.4004 40.3359C26.2116 40.1146 25.9805 39.9469 25.707 39.833C25.4368 39.7191 25.126 39.6621 24.7744 39.6621H23.1729V38.8906H24.7744C25.2399 38.8906 25.6647 38.9688 26.0488 39.125C26.4329 39.278 26.7633 39.501 27.04 39.7939C27.32 40.0837 27.5348 40.4352 27.6846 40.8486C27.8343 41.2588 27.9092 41.721 27.9092 42.2354V42.6602C27.9092 43.1745 27.8343 43.6383 27.6846 44.0518C27.5348 44.4619 27.3184 44.8118 27.0352 45.1016C26.7552 45.3913 26.4167 45.6143 26.0195 45.7705C25.6257 45.9235 25.1813 46 24.6865 46ZM23.7051 38.8906V46H22.7627V38.8906H23.7051Z" fill="#1C1D1F"/>
<path d="M31.9473 43.2119H30.0479V42.4453H31.9473C32.3151 42.4453 32.613 42.3867 32.8408 42.2695C33.0687 42.1523 33.2347 41.9896 33.3389 41.7812C33.4463 41.5729 33.5 41.3353 33.5 41.0684C33.5 40.8242 33.4463 40.5947 33.3389 40.3799C33.2347 40.165 33.0687 39.9925 32.8408 39.8623C32.613 39.7288 32.3151 39.6621 31.9473 39.6621H30.2676V46H29.3252V38.8906H31.9473C32.4844 38.8906 32.9385 38.9834 33.3096 39.1689C33.6807 39.3545 33.9622 39.6117 34.1543 39.9404C34.3464 40.266 34.4424 40.6387 34.4424 41.0586C34.4424 41.5143 34.3464 41.9033 34.1543 42.2256C33.9622 42.5479 33.6807 42.7936 33.3096 42.9629C32.9385 43.1289 32.4844 43.2119 31.9473 43.2119Z" fill="#1C1D1F"/>
<path d="M30.3657 6.95861C41.2106 14.838 36.6734 33.0302 25.1646 35C39.8826 35 44.7517 13.911 30.3657 6.95861Z" fill="#FFCE26"/>
<path d="M18.8571 6.84264C31.6938 4.87279 37.0056 21.4427 31.3618 29.0904C40.6574 19.357 33.2431 1.97595 18.8571 6.84264Z" fill="#0879B8"/>
<path d="M11.3321 14.838C17.6398 4.9888 30.8085 11.0142 32.1365 20.9793C33.6857 8.81263 18.1931 1.97609 11.3321 14.838Z" fill="#069B4F"/>
<path d="M11 22.254C12.5493 12.0571 25.1647 11.0142 29.8125 18.1984C26.05 8.00151 11.2213 9.27612 11 22.254Z" fill="#CB2034"/>
</svg>
