<svg width="50" height="50" viewBox="0 0 50 50" fill="none" xmlns="http://www.w3.org/2000/svg">
<path d="M20.974 42.4439C20.974 42.3075 20.9495 42.1872 20.9004 42.0829C20.8544 41.9759 20.7716 41.8797 20.6521 41.7941C20.5355 41.7086 20.373 41.627 20.1645 41.5495C19.9591 41.4719 19.6984 41.393 19.3826 41.3128C19.0514 41.2273 18.7524 41.1324 18.4857 41.0281C18.2189 40.9211 17.9904 40.7995 17.8003 40.6631C17.6102 40.5267 17.4646 40.3703 17.3634 40.1939C17.2622 40.0174 17.2116 39.8155 17.2116 39.5882C17.2116 39.361 17.2652 39.1511 17.3726 38.9586C17.4799 38.766 17.6332 38.5989 17.8325 38.4572C18.0349 38.3128 18.2756 38.2005 18.5547 38.1203C18.8337 38.0401 19.1449 38 19.4884 38C19.9913 38 20.4175 38.0842 20.767 38.2527C21.1197 38.4184 21.388 38.6364 21.572 38.9064C21.756 39.1738 21.8479 39.4599 21.8479 39.7647H20.9648C20.9648 39.5455 20.9112 39.3516 20.8038 39.1832C20.6965 39.012 20.534 38.8783 20.3163 38.7821C20.0986 38.6832 19.8226 38.6337 19.4884 38.6337C19.1725 38.6337 18.9119 38.6751 18.7064 38.758C18.501 38.8409 18.3477 38.9532 18.2465 39.0949C18.1484 39.2366 18.0993 39.3984 18.0993 39.5802C18.0993 39.7032 18.1284 39.8155 18.1867 39.9171C18.248 40.016 18.3415 40.1083 18.4673 40.1939C18.596 40.2794 18.7586 40.3583 18.9548 40.4305C19.1541 40.5027 19.3918 40.5722 19.6677 40.639C20.048 40.7326 20.3761 40.8369 20.6521 40.9519C20.928 41.0668 21.1549 41.1965 21.3328 41.3409C21.5137 41.4826 21.6471 41.6444 21.733 41.8262C21.8219 42.0053 21.8663 42.2086 21.8663 42.4358C21.8663 42.6738 21.8111 42.889 21.7008 43.0816C21.5904 43.2741 21.4324 43.4385 21.227 43.5749C21.0216 43.7112 20.7747 43.8168 20.4865 43.8917C20.2013 43.9639 19.8824 44 19.5298 44C19.2201 44 18.915 43.9626 18.6144 43.8877C18.317 43.8128 18.0456 43.7005 17.8003 43.5508C17.5581 43.4011 17.3634 43.2166 17.2162 42.9973C17.0721 42.7754 17 42.5187 17 42.2273H17.8831C17.8831 42.4278 17.9276 42.6003 18.0165 42.7447C18.1054 42.8864 18.2266 43.004 18.3799 43.0976C18.5363 43.1912 18.7126 43.2607 18.9088 43.3061C19.1081 43.3489 19.3151 43.3703 19.5298 43.3703C19.8395 43.3703 20.1016 43.3329 20.3163 43.258C20.5309 43.1832 20.6935 43.0762 20.8038 42.9372C20.9173 42.7981 20.974 42.6337 20.974 42.4439Z" fill="#7F8BA5"/>
<path d="M24.8101 43.9198H23.4118L23.421 43.2901H24.8101C25.2884 43.2901 25.687 43.2032 26.006 43.0294C26.3249 42.8529 26.564 42.607 26.7235 42.2914C26.886 41.9733 26.9673 41.6016 26.9673 41.1765V40.8195C26.9673 40.4853 26.9213 40.1885 26.8293 39.9291C26.7373 39.6671 26.6024 39.4465 26.4245 39.2674C26.2467 39.0856 26.0289 38.9479 25.7714 38.8543C25.5169 38.7607 25.224 38.7139 24.8929 38.7139H23.3842V38.0802H24.8929C25.3313 38.0802 25.7315 38.1444 26.0933 38.2727C26.4552 38.3984 26.7664 38.5816 27.0271 38.8222C27.2908 39.0602 27.4931 39.3489 27.6342 39.6885C27.7753 40.0254 27.8458 40.4051 27.8458 40.8275V41.1765C27.8458 41.5989 27.7753 41.9799 27.6342 42.3195C27.4931 42.6564 27.2892 42.9439 27.0225 43.1818C26.7587 43.4198 26.4398 43.6029 26.0657 43.7313C25.6947 43.857 25.2762 43.9198 24.8101 43.9198ZM23.8856 38.0802V43.9198H22.9978V38.0802H23.8856Z" fill="#7F8BA5"/>
<path d="M31.6496 41.6297H29.8604V41H31.6496C31.9961 41 32.2767 40.9519 32.4913 40.8556C32.706 40.7594 32.8624 40.6257 32.9605 40.4545C33.0617 40.2834 33.1123 40.0882 33.1123 39.869C33.1123 39.6684 33.0617 39.4799 32.9605 39.3035C32.8624 39.127 32.706 38.9853 32.4913 38.8783C32.2767 38.7687 31.9961 38.7139 31.6496 38.7139H30.0674V43.9198H29.1797V38.0802H31.6496C32.1556 38.0802 32.5833 38.1564 32.9329 38.3088C33.2825 38.4612 33.5477 38.6725 33.7286 38.9425C33.9095 39.2099 34 39.516 34 39.861C34 40.2353 33.9095 40.5548 33.7286 40.8195C33.5477 41.0842 33.2825 41.2861 32.9329 41.4251C32.5833 41.5615 32.1556 41.6297 31.6496 41.6297Z" fill="#7F8BA5"/>
<path d="M29.9825 7.99016C40.0527 15.3261 35.8396 32.2637 25.1529 34.0977C38.8196 34.0977 43.3409 14.4631 29.9825 7.99016Z" fill="#FFCE26"/>
<path d="M19.2958 7.88218C31.2157 6.04818 36.148 21.4753 30.9074 28.5956C39.539 19.5335 32.6543 3.35113 19.2958 7.88218Z" fill="#0879B8"/>
<path d="M12.3084 15.3262C18.1655 6.15619 30.3937 11.7661 31.6267 21.0439C33.0653 9.71631 18.6793 3.35126 12.3084 15.3262Z" fill="#069B4F"/>
<path d="M12 22.2306C13.4386 12.737 25.1529 11.7661 29.4687 18.4548C25.975 8.96113 12.2055 10.1478 12 22.2306Z" fill="#CB2034"/>
</svg>
