<svg width="50" height="50" viewBox="0 0 50 50" fill="none" xmlns="http://www.w3.org/2000/svg">
<path d="M13.2441 26.3277C13.4165 26.8811 13.9418 27.1007 14.4905 27.1007C14.9131 27.1086 15.3772 26.7979 15.3878 26.35C15.3878 25.6708 14.7352 25.4692 14.2005 25.2726C13.401 24.9869 12.4488 24.4322 12.6154 23.3935C12.7858 22.4844 13.7018 22.0783 14.56 22.0783C15.2061 22.0796 15.9602 22.3889 16.2253 23.0152L15.4576 23.3846C15.2459 23.0854 14.9033 22.8615 14.5303 22.871C14.1302 22.871 13.7055 23.1242 13.6422 23.5466C13.6422 23.9848 14.0455 24.2513 14.405 24.4153C15.2616 24.8079 16.4321 25.1146 16.4256 26.2627C16.4145 27.352 15.3828 27.9193 14.3916 27.9163C13.5696 27.9221 12.6608 27.505 12.4273 26.658L13.2441 26.3277Z" fill="black"/>
<path d="M18.6976 22.2166H17.6907V27.7927H18.6976V22.2166Z" fill="black"/>
<path d="M27.3323 22.0003C28.8731 23.339 30.4977 24.6135 31.9189 26.0807V22.2166H32.8376V28L28.251 23.9115V27.7927H27.3323V22.0003Z" fill="black"/>
<path d="M36.5354 22L33.5649 27.7921H34.622C35.259 26.4962 36.2145 25.1034 36.5547 23.6938C36.7425 24.3664 37.1048 24.9825 37.4125 25.6044H36.1906L35.5405 26.3521H37.7711L38.4595 27.7933H39.5268L36.5354 22Z" fill="black"/>
<path d="M40.4945 22.2166H41.4916V26.9726H44V27.7924H40.4945V22.2166Z" fill="black"/>
<path d="M25.9267 24.9461H23.3503L22.7501 25.703H24.9072H24.902C24.8725 26.598 23.9733 27.1346 23.146 27.1346C21.9585 27.1477 21.1232 26.3328 20.8587 25.2213C20.5446 23.8409 21.9373 22.9211 23.1381 22.9211C23.7202 22.9187 24.2859 23.1649 24.7033 23.5597L25.4309 23.0638C24.8234 22.4298 23.929 22.1003 23.0379 22.1004C21.3287 22.1004 19.7143 23.3566 19.8132 25.185C19.908 26.9357 21.4665 27.9211 23.0891 27.9211C24.4238 27.9211 25.9249 27.0804 25.9108 25.5874L25.9267 24.9461Z" fill="black"/>
<path d="M6.81184 27.8791V27.1692C6.81691 26.6142 7.02801 26.0798 7.40625 25.6643L9.52267 23.4781C9.65586 23.333 9.76217 23.1665 9.83687 22.986H6V22.0349H10.9917V22.8251C10.9917 22.8251 11.0484 23.1552 10.465 23.7265L8.40643 25.9482C8.1484 26.2795 7.99526 26.6768 7.96575 27.0914V27.8794L6.81184 27.8791Z" fill="#DE2027"/>
</svg>
