<svg width="50" height="50" viewBox="0 0 50 50" fill="none" xmlns="http://www.w3.org/2000/svg">
<path d="M30.949 30.6437C30.949 30.3675 31.1728 30.1437 31.449 30.1437H39.4999C39.7761 30.1437 39.9999 30.3675 39.9999 30.6437V38.5C39.9999 38.7761 39.7761 39 39.4999 39H31.449C31.1728 39 30.949 38.7761 30.949 38.5V30.6437Z" fill="#EC8C04"/>
<path d="M20.4766 30.6437C20.4766 30.3675 20.7004 30.1437 20.9766 30.1437H29.0275C29.3037 30.1437 29.5275 30.3675 29.5275 30.6437V38.5C29.5275 38.7761 29.3037 39 29.0275 39H20.9766C20.7004 39 20.4766 38.7761 20.4766 38.5V30.6437Z" fill="#2C6494"/>
<path d="M10 30.6437C10 30.3675 10.2239 30.1437 10.5 30.1437H18.551C18.8271 30.1437 19.051 30.3675 19.051 30.6437V38.5C19.051 38.7761 18.8271 39 18.551 39H10.5C10.2239 39 10 38.7761 10 38.5V30.6437Z" fill="#2C6494"/>
<path d="M30.949 20.072C30.949 19.7959 31.1728 19.572 31.449 19.572H39.4999C39.7761 19.572 39.9999 19.7959 39.9999 20.072V27.9284C39.9999 28.2045 39.7761 28.4284 39.4999 28.4284H31.449C31.1728 28.4284 30.949 28.2045 30.949 27.9284V20.072Z" fill="#2C6494"/>
<path d="M20.4766 20.072C20.4766 19.7959 20.7004 19.572 20.9766 19.572H29.0275C29.3037 19.572 29.5275 19.7959 29.5275 20.072V27.9284C29.5275 28.2045 29.3037 28.4284 29.0275 28.4284H20.9766C20.7004 28.4284 20.4766 28.2045 20.4766 27.9284V20.072Z" fill="#2C6494"/>
<path d="M30.949 9.5C30.949 9.22386 31.1729 9 31.449 9H39.5C39.7761 9 40 9.22386 40 9.5V17.3563C40 17.6325 39.7761 17.8563 39.5 17.8563H31.449C31.1729 17.8563 30.949 17.6325 30.949 17.3563V9.5Z" fill="#2C6494"/>
</svg>
