<svg width="50" height="50" viewBox="0 0 50 50" fill="none" xmlns="http://www.w3.org/2000/svg">
<path fill-rule="evenodd" clip-rule="evenodd" d="M20.4864 10.8437L20.2074 12.1535L19.6003 25.0494L18.5867 25.4653L13.2756 33.3593L34.708 41.9997L41.8457 8.49677L30.3657 11.5671L31.1233 8L20.4864 10.8437Z" fill="#FEC10E"/>
<path fill-rule="evenodd" clip-rule="evenodd" d="M8.52186 29.5226L8.1543 31.2961L20.5782 36.3039L23.3618 31.3669L18.5758 28.4511L18.5876 25.4658L8.52186 29.5226ZM27.8751 31.1049L27.6569 39.1582L34.708 41.9997L36.9066 31.679L30.2516 29.0624L27.8751 31.1049ZM26.4173 33.1899L24.3765 31.9356L23.2862 33.8713L23.9913 34.8637L22.924 37.249L25.9896 38.4844L25.9052 34.6206L26.4173 33.1899Z" fill="#231F20"/>
<path fill-rule="evenodd" clip-rule="evenodd" d="M36.9605 15.5795L37.2496 14.2225L22.9129 18.0563L27.4004 14.7346L27.6576 13.5275L25.028 14.2485L29.2984 10.8278L29.5473 9.65723L20.2074 12.1535L18.7111 19.1784L13.5817 20.5501L12.5439 25.4222L17.8886 23.2688L18.1441 24.4039L19.6014 25.0482V27.5633L26.926 30.4678L28.7455 28.9049L26.2658 28.6778L26.7838 27.896L27.4293 27.9214L28.7497 26.7521L26.6983 26.6282L27.1856 25.8329L28.9367 25.9261L29.9916 26.1503L29.0736 24.7986L27.9614 24.8311L27.4139 24.5461L27.9007 23.4847L29.3833 23.421L28.4948 19.6905L29.2765 18.6781L36.9605 15.5795Z" fill="#231F20"/>
</svg>
