<svg width="50" height="50" viewBox="0 0 50 50" fill="none" xmlns="http://www.w3.org/2000/svg">
<path d="M25.4651 27.3256C31.6301 27.3256 36.6279 22.3278 36.6279 16.1628C36.6279 9.99775 31.6301 5 25.4651 5C19.3001 5 14.3023 9.99775 14.3023 16.1628C14.3023 22.3278 19.3001 27.3256 25.4651 27.3256Z" fill="#036C70"/>
<path d="M34.7674 36.6277C40.4187 36.6277 45 32.0465 45 26.3952C45 20.7439 40.4187 16.1626 34.7674 16.1626C29.1161 16.1626 24.5349 20.7439 24.5349 26.3952C24.5349 32.0465 29.1161 36.6277 34.7674 36.6277Z" fill="#1A9BA1"/>
<path d="M26.8605 44.0698C31.2274 44.0698 34.7674 40.5297 34.7674 36.1628C34.7674 31.7959 31.2274 28.2559 26.8605 28.2559C22.4936 28.2559 18.9535 31.7959 18.9535 36.1628C18.9535 40.5297 22.4936 44.0698 26.8605 44.0698Z" fill="#37C6D0"/>
<path opacity="0.1" d="M27.3256 15.0744V34.9256C27.3209 35.6153 26.9029 36.235 26.2651 36.4976C26.062 36.5835 25.8437 36.6278 25.6232 36.6279H18.9628C18.9535 36.4697 18.9535 36.3209 18.9535 36.1628C18.9504 36.0075 18.9566 35.8522 18.9721 35.6976C19.1423 32.7241 20.9742 30.1005 23.707 28.9162V27.186C17.625 26.2222 13.4759 20.5105 14.4397 14.4286C14.4464 14.3864 14.4533 14.3443 14.4605 14.3023C14.5068 13.9886 14.572 13.6779 14.6558 13.3721H25.6233C26.5619 13.3756 27.322 14.1357 27.3256 15.0744Z" fill="black"/>
<path opacity="0.2" d="M24.693 14.3022H14.4605C13.4268 20.3732 17.5103 26.1327 23.5813 27.1664C23.7651 27.1977 23.9497 27.2244 24.1349 27.2464C21.2512 28.6139 19.1498 32.4976 18.9712 35.6976C18.9557 35.8521 18.9495 36.0074 18.9525 36.1627C18.9525 36.3209 18.9525 36.4697 18.9618 36.6278C18.9786 36.9405 19.0191 37.2515 19.0828 37.5581H24.6921C25.3818 37.5534 26.0015 37.1354 26.2641 36.4976C26.3501 36.2945 26.3943 36.0762 26.3944 35.8557V16.0046C26.3909 15.0663 25.6313 14.3063 24.693 14.3022Z" fill="black"/>
<path opacity="0.2" d="M24.693 14.3022H14.4604C13.427 20.3738 17.5111 26.1335 23.5827 27.167C23.7069 27.1882 23.8314 27.2072 23.9563 27.2241C21.1656 28.6902 19.147 32.5646 18.9721 35.6976H24.693C25.6302 35.6905 26.3882 34.9325 26.3953 33.9953V16.0046C26.3918 15.0659 25.6317 14.3058 24.693 14.3022Z" fill="black"/>
<path opacity="0.2" d="M23.7628 14.3022H14.4604C13.4846 20.0339 17.076 25.5535 22.7116 26.9832C20.5777 29.4212 19.2689 32.4713 18.9721 35.6976H23.7628C24.7015 35.694 25.4615 34.934 25.4651 33.9953V16.0046C25.4646 15.0646 24.7027 14.3028 23.7628 14.3022Z" fill="black"/>
<path d="M6.70512 14.3022H23.76C24.7017 14.3022 25.4651 15.0657 25.4651 16.0074V33.0622C25.4651 34.004 24.7017 34.7674 23.76 34.7674H6.70512C5.76341 34.7674 5 34.004 5 33.0622V16.0074C5 15.0657 5.76341 14.3022 6.70512 14.3022Z" fill="url(#paint0_linear_9176_15281)"/>
<path d="M12.6158 24.3263C12.2162 24.0613 11.8825 23.7084 11.64 23.2947C11.4051 22.8622 11.288 22.3755 11.3005 21.8835C11.2795 21.2174 11.5044 20.5668 11.9321 20.0556C12.3816 19.5439 12.9626 19.1649 13.6121 18.9598C14.3524 18.7161 15.1277 18.5961 15.907 18.6045C16.9318 18.567 17.9551 18.7103 18.9302 19.0277V21.1673C18.5065 20.9106 18.0451 20.7222 17.5628 20.6091C17.0395 20.4808 16.5025 20.4164 15.9637 20.4175C15.3955 20.3966 14.831 20.5161 14.32 20.7654C14.127 20.8487 13.9625 20.9865 13.8468 21.162C13.7311 21.3376 13.6692 21.5431 13.6688 21.7533C13.6672 22.0139 13.7673 22.2649 13.9479 22.4529C14.1612 22.6744 14.4134 22.8548 14.6921 22.985C15.0022 23.1394 15.4673 23.3446 16.0874 23.6008C16.1557 23.6224 16.2223 23.6491 16.2865 23.6808C16.8969 23.9193 17.4857 24.2097 18.0465 24.5487C18.4712 24.8106 18.8277 25.1696 19.0865 25.5961C19.3519 26.0797 19.4805 26.6264 19.4586 27.1775C19.4889 27.8615 19.2797 28.5345 18.867 29.0808C18.4556 29.583 17.9057 29.953 17.2856 30.145C16.5562 30.3736 15.795 30.4841 15.0307 30.4724C14.345 30.4755 13.6603 30.4195 12.9842 30.305C12.4133 30.2115 11.8562 30.0478 11.3256 29.8175V27.5617C11.8328 27.924 12.3995 28.1947 13 28.3617C13.5985 28.5482 14.2207 28.6478 14.8474 28.6575C15.4276 28.6943 16.0067 28.5714 16.5219 28.3022C16.699 28.2022 16.8457 28.0561 16.9463 27.8793C17.0468 27.7025 17.0976 27.5018 17.093 27.2984C17.0942 27.1558 17.0669 27.0143 17.0125 26.8823C16.9582 26.7503 16.8781 26.6306 16.7768 26.5301C16.5223 26.2802 16.2276 26.0749 15.9051 25.9226C15.5331 25.7366 14.9851 25.4913 14.2614 25.1868C13.6857 24.9553 13.1344 24.6671 12.6158 24.3263Z" fill="white"/>
<defs>
<linearGradient id="paint0_linear_9176_15281" x1="8.55521" y1="12.9699" x2="21.9099" y2="36.0997" gradientUnits="userSpaceOnUse">
<stop stop-color="#058F92"/>
<stop offset="0.5" stop-color="#038489"/>
<stop offset="1" stop-color="#026D71"/>
</linearGradient>
</defs>
</svg>
