<svg width="50" height="50" viewBox="0 0 50 50" fill="none" xmlns="http://www.w3.org/2000/svg">
<path d="M43.3523 20.8475C45.5572 23.1562 46.3705 25.9075 45.8463 29.0253C45.3433 32.0181 43.7611 34.3479 41.211 35.9915C39.8131 36.8927 38.2383 37.2941 36.5873 37.3089C35.1301 37.3216 33.98 37.8607 33.0153 38.9504C32.329 39.7256 31.5824 40.468 30.768 41.1034C29.5258 42.0734 28.0464 42.4875 26.4843 42.6093L26.0681 42.6411L27.5433 39.3412C28.6617 39.0277 29.4962 38.4378 30.337 37.4477C31.6597 35.8888 33.1762 34.6381 35.307 34.4019C36.0599 34.3183 36.8277 34.3352 37.5733 34.2113C40.7715 33.6765 42.9711 30.5524 42.9976 27.4029C43.0209 24.6791 41.2407 22.2052 38.699 21.2171C38.6249 21.1885 38.5412 21.1822 38.4247 21.1589C38.3919 21.3686 38.3665 21.5401 38.34 21.7117C37.9111 24.4789 36.5979 26.6531 34.0404 27.9345C31.9224 28.9956 29.3564 28.4418 27.8261 26.6626C26.3816 24.982 26.3202 22.7135 27.7107 20.6908C28.9582 18.8767 30.7945 18.0062 32.8935 17.6186C33.5744 17.4936 34.2702 17.4523 34.9649 17.3718C33.7767 13.104 29.314 9.86976 24.7857 9.99155C20.036 10.1186 16.1176 13.5033 15.0533 17.3941C15.5436 17.4386 16.0011 17.4661 16.4544 17.5233C18.8223 17.8198 20.8811 18.6903 22.3086 20.712C23.5074 22.4075 23.6059 24.5075 22.567 26.1352C21.4667 27.8604 19.3635 28.7859 17.3376 28.3676C14.8648 27.8572 13.2763 26.257 12.3126 24.0151C11.9281 23.1213 11.7439 22.1406 11.4675 21.196C9.8228 21.5952 7.93987 23.4866 7.30023 25.414C6.39583 28.1368 7.68147 31.6972 10.0812 33.2709C12.3973 34.7906 15.587 34.6264 17.5769 32.7361C17.9857 32.3464 18.4135 31.9768 18.8234 31.5892C20.3346 30.1637 22.0587 29.2127 24.1142 29.0465L22.1995 32.8843C22.1678 32.8558 22.1349 32.8272 22.1032 32.7996C21.7929 33.0411 21.472 33.2709 21.1733 33.5261C20.342 34.2357 19.5689 35.0246 18.6847 35.659C15.1009 38.226 10.1543 37.7675 7.07254 34.618C4.53619 32.0255 3.52907 28.9215 4.20472 25.3611C4.59762 23.2918 5.71276 21.5793 7.32247 20.2026C8.47891 19.2124 9.79315 18.5103 11.2377 18.0539C11.6147 17.9352 11.8053 17.7563 11.9069 17.3591C13.4584 11.3026 18.4813 7.18727 24.7274 7.00618C28.6712 6.89074 32.0272 8.39667 34.7595 11.2391C36.4708 13.0193 37.5923 15.132 38.1653 17.5402C38.2087 17.7224 38.4554 17.9247 38.6514 17.9914C40.4305 18.6003 42.0413 19.474 43.3523 20.8475ZM32.2083 25.3833C34.0436 24.9597 35.5929 22.5684 35.3642 20.3964C34.6906 20.4642 34.0055 20.4864 33.3393 20.6114C32.0812 20.8454 30.9385 21.323 30.175 22.4308C29.6296 23.2208 29.5703 23.9293 29.9865 24.5467C30.4789 25.2764 31.3124 25.5898 32.2083 25.3833ZM19.982 24.5869C20.4522 23.9346 20.3007 23.2812 19.9428 22.6023C19.0818 20.9704 16.2002 20.2375 14.5757 20.5044C14.5693 21.7149 14.8955 22.83 15.6082 23.8107C16.1801 24.5954 16.8928 25.2181 17.8936 25.4066C18.7598 25.5697 19.4726 25.2912 19.982 24.5869Z" fill="#0094FF"/>
<path d="M30.3624 33.2115C29.404 35.2946 28.4943 37.2729 27.5433 39.3412L26.0681 42.6411C25.7663 42.6644 25.4655 42.6866 25.1637 42.7014C23.9702 42.7596 23.1897 41.6286 23.6768 40.5442C24.1449 39.501 24.6247 38.4621 25.1658 37.276C23.2765 37.6372 21.5027 37.9771 19.5795 38.3446C20.4924 36.4405 21.346 34.6624 22.1995 32.8843L24.1142 29.0465C24.3027 29.0316 24.4944 29.0231 24.6882 29.021C25.0885 29.0168 25.5503 29.1057 25.8807 29.3133C26.5669 29.7464 26.6876 30.5163 26.299 31.3339C25.8478 32.2838 25.3882 33.2295 24.8947 34.2547C26.7427 33.902 28.4986 33.5663 30.3624 33.2115Z" fill="#FFC300"/>
</svg>
