<svg width="50" height="50" viewBox="0 0 50 50" fill="none" xmlns="http://www.w3.org/2000/svg">
<path d="M33.4447 20.7245C39.8572 21.049 44.9556 26.3496 44.9556 32.8419C44.9556 39.3342 39.5238 44.9735 32.8241 44.9735C26.1243 44.9735 20.6925 39.5417 20.6925 32.8419C20.6925 31.0278 21.0933 29.3076 21.8061 27.763C20.0257 29.4158 17.6423 30.4284 15.0195 30.4284C9.50964 30.4284 5.04431 25.9613 5.04431 20.4514C5.04431 14.9416 9.50964 10.4762 15.0195 10.4762C16.2183 10.4762 17.3656 10.6873 18.4297 11.0739C19.7065 7.55729 23.0759 5.04443 27.034 5.04443C32.0899 5.04443 36.1864 9.1409 36.1864 14.195C36.1864 16.7522 35.1365 19.0646 33.4447 20.7245ZM42.4747 32.6468C42.4747 27.2274 38.0821 22.8348 32.6627 22.8348C27.2433 22.8348 22.8507 27.2274 22.8507 32.6468C22.8507 38.0662 27.2433 42.4606 32.6627 42.4606C38.0821 42.4606 42.4747 38.0662 42.4747 32.6468ZM34.5371 14.0726C34.5371 10.0045 31.2404 6.70785 27.1723 6.70785C23.1043 6.70785 19.8129 10.001 19.8076 14.0638C18.5662 13.1984 17.0589 12.6894 15.4309 12.6894C11.1979 12.6894 7.76643 16.1209 7.76643 20.3539C7.76643 24.5869 11.1979 28.0166 15.4309 28.0166C19.6639 28.0166 23.0936 24.5851 23.0936 20.3539C23.0936 20.3025 23.0918 20.2528 23.0901 20.2031C24.2587 20.9817 25.6632 21.4374 27.1723 21.4374C31.2404 21.4374 34.5371 18.1407 34.5371 14.0726Z" fill="#D8182F"/>
<path d="M32.6627 22.8348C38.0821 22.8348 42.4747 27.2274 42.4747 32.6468C42.4747 38.0662 38.0821 42.4606 32.6627 42.4606C27.2433 42.4606 22.8507 38.0662 22.8507 32.6468C22.8507 27.2274 27.2433 22.8348 32.6627 22.8348ZM39.7278 32.7461C39.7278 28.811 36.5375 25.6225 32.6042 25.6225C28.6708 25.6225 25.4806 28.811 25.4806 32.7461C25.4806 36.6812 28.6691 39.8697 32.6042 39.8697C36.5393 39.8697 39.7278 36.6794 39.7278 32.7461Z" fill="#F1A3A7"/>
<path d="M32.6042 39.8697C36.5393 39.8697 39.7278 36.6794 39.7278 32.7461C39.7278 28.811 36.5375 25.6225 32.6042 25.6225C28.6708 25.6225 25.4806 28.811 25.4806 32.7461C25.4806 36.6812 28.6691 39.8697 32.6042 39.8697Z" fill="white"/>
<path d="M27.1723 6.70785C31.2404 6.70785 34.5371 10.0045 34.5371 14.0726C34.5371 18.1407 31.2404 21.4374 27.1723 21.4374C25.6632 21.4374 24.2587 20.9817 23.0901 20.2031C23.0918 20.2528 23.0936 20.3025 23.0936 20.3539C23.0936 24.5851 19.6639 28.0166 15.4309 28.0166C11.1979 28.0166 7.76643 24.5851 7.76643 20.3539C7.76643 16.1226 11.1979 12.6894 15.4309 12.6894C17.0589 12.6894 18.5662 13.1984 19.8076 14.0638C19.8129 10.001 23.1078 6.70785 27.1723 6.70785ZM32.3506 13.936C32.3506 10.9851 29.9583 8.59288 27.0074 8.59288C24.0566 8.59288 21.6625 10.9851 21.6625 13.936C21.6625 16.8869 24.0566 19.2792 27.0074 19.2792C29.9583 19.2792 32.3506 16.8869 32.3506 13.936ZM21.0862 20.3556C21.0862 17.066 18.4208 14.4006 15.1312 14.4006C11.8416 14.4006 9.17625 17.066 9.17625 20.3556C9.17625 23.6452 11.8434 26.3106 15.1312 26.3106C18.419 26.3106 21.0862 23.6434 21.0862 20.3556Z" fill="#F1A3A7"/>
<path d="M27.0074 8.59288C29.9583 8.59288 32.3506 10.9851 32.3506 13.936C32.3506 16.8869 29.9583 19.2792 27.0074 19.2792C24.0566 19.2792 21.6625 16.8869 21.6625 13.936C21.6625 10.9851 24.0566 8.59288 27.0074 8.59288Z" fill="white"/>
<path d="M15.1312 26.3106C18.42 26.3106 21.0862 23.6444 21.0862 20.3556C21.0862 17.066 18.4208 14.4006 15.1312 14.4006C11.8416 14.4006 9.17625 17.066 9.17625 20.3556C9.17625 23.6444 11.8424 26.3106 15.1312 26.3106Z" fill="white"/>
</svg>
