<svg width="50" height="50" viewBox="0 0 50 50" fill="none" xmlns="http://www.w3.org/2000/svg">
<path d="M38.2802 13.071C38.1695 12.9582 36.5648 12.1122 34.4068 11.1533L32.2488 13.2966C33.7428 13.917 35.1261 14.6502 36.1222 15.1578C35.9008 18.5983 34.6281 26.3254 33.2448 30.5555C32.3041 33.5448 27.4347 36.9288 25 38.4517C24.1146 37.9441 22.9526 37.1545 21.7906 36.252L32.0828 25.7049C33.6874 24.0129 33.6874 21.3056 32.0828 19.6136C30.4781 17.9215 27.7667 17.9215 26.162 19.6136L21.9013 23.9001C21.3479 24.4641 20.4626 24.4641 19.9092 23.9001C19.6326 23.6181 19.5219 23.2797 19.5219 22.8849C19.5219 22.49 19.6326 22.1516 19.9092 21.8696L29.3714 12.1122L31.5847 9.9125C29.316 9.01007 26.8813 8.33325 25 8.33325C20.2412 8.33325 12.1071 12.8454 11.7751 13.071L11.1111 13.4094V14.3118C11.1111 17.5267 12.6604 26.833 14.1545 31.4015C14.4865 32.4167 15.0951 33.3755 15.7592 34.3344L17.7512 32.3039C17.3639 31.6835 16.9212 31.1195 16.7552 30.4991C15.3718 26.269 14.0991 18.5983 13.8778 15.1014C16.5338 13.8042 22.0119 11.2661 25.0553 11.2661C25.4426 11.2661 25.8853 11.3225 26.328 11.3789L18.0279 19.8956C17.1978 20.6288 16.7552 21.7568 16.7552 22.8849C16.7552 24.0129 17.1425 25.0845 17.9725 25.9305C19.5772 27.6226 22.2886 27.6226 23.8933 25.9305L28.0987 21.644C28.652 21.08 29.5374 21.08 30.0907 21.644C30.3674 21.926 30.4781 22.2644 30.4781 22.6593C30.4781 23.0541 30.3674 23.3925 30.0907 23.6745L17.5852 36.4212C20.4072 39.0721 23.7273 40.9898 24.2806 41.2718L24.8893 41.6666L25.498 41.2718C33.9641 36.5904 35.6795 31.9091 35.8455 31.4015C37.3395 26.7766 38.8889 17.5267 38.8889 14.3118V13.4094L38.2802 13.071Z" fill="#F36D21"/>
</svg>
