<svg width="50" height="50" viewBox="0 0 50 50" fill="none" xmlns="http://www.w3.org/2000/svg">
<path d="M41.177 28.1433C41.5635 27.1175 41.6952 26.0132 41.5605 24.9254C41.4259 23.8375 41.0289 22.7985 40.404 21.8976C39.7789 20.9967 38.9444 20.2609 37.972 19.7531C36.9997 19.2454 35.9185 18.981 34.8213 18.9826C34.3195 18.9829 33.8193 19.0395 33.3302 19.1514C32.6635 17.5036 31.5065 16.1 30.0156 15.1304C28.5247 14.1608 26.7719 13.6719 24.9939 13.7297C23.2159 13.7875 21.4986 14.3894 20.074 15.4538C18.6494 16.5183 17.5863 17.9941 17.0284 19.6817C16.6391 19.4917 16.2117 19.3928 15.7785 19.3924C15.0889 19.3933 14.4223 19.64 13.8986 20.0881C13.3749 20.5362 13.0284 21.1563 12.9215 21.8369C11.3989 22.1941 10.0607 23.0976 9.16106 24.3758C8.26143 25.654 7.86311 27.2178 8.04178 28.7703C8.22044 30.3226 8.96364 31.7553 10.1302 32.7962C11.2967 33.837 12.8053 34.4134 14.3693 34.4161H22.028C22.2698 35.0474 22.7255 35.5741 23.3156 35.9049C23.9057 36.2356 24.5931 36.3494 25.2585 36.2265C25.9238 36.1037 26.5251 35.7518 26.9579 35.2321C27.3907 34.7125 27.6276 34.0578 27.6276 33.3819C27.6276 32.7058 27.3907 32.0512 26.9579 31.5315C26.5251 31.0119 25.9238 30.6601 25.2585 30.5372C24.5931 30.4143 23.9057 30.5281 23.3156 30.8588C22.7255 31.1895 22.2698 31.7163 22.028 32.3477H14.3838C13.3308 32.3478 12.3143 31.9627 11.5261 31.2652C10.7378 30.5678 10.2325 29.6061 10.1054 28.5618C9.97829 27.5175 10.2383 26.4629 10.8362 25.597C11.4342 24.7312 12.3288 24.1139 13.3511 23.8619C13.6936 24.3779 14.1928 24.7705 14.7752 24.982C15.3577 25.1934 15.9927 25.2126 16.5869 25.0367C17.1811 24.8607 17.703 24.4989 18.0761 24.0046C18.4492 23.5102 18.6537 22.9093 18.6595 22.2902V22.2467C18.6889 20.6531 19.2946 19.1239 20.3645 17.9416C21.4344 16.7593 22.8965 16.0038 24.4806 15.8145C26.0647 15.6253 27.6639 16.0151 28.9827 16.9121C30.3015 17.809 31.2509 19.1524 31.6556 20.6942C31.6881 20.8287 31.7473 20.9552 31.8298 21.0663C31.9122 21.1774 32.0162 21.2708 32.1355 21.341C32.2548 21.4112 32.387 21.4567 32.5242 21.4748C32.6615 21.4929 32.801 21.4832 32.9344 21.4464C33.0097 21.4254 33.0826 21.3963 33.1516 21.3596H33.2288C34.0608 21.0589 34.9607 20.9987 35.8254 21.1859C36.69 21.373 37.4844 21.7999 38.1172 22.4176C38.7501 23.0352 39.1958 23.8187 39.4033 24.678C39.6107 25.5372 39.5715 26.4375 39.2901 27.2755H39.1115C38.4431 27.2739 37.7948 27.5034 37.2765 27.9249C36.7582 28.3465 36.4018 28.9343 36.2678 29.5885C36.1339 30.2427 36.2306 30.923 36.5414 31.5142C36.8524 32.1053 37.3585 32.5706 37.9737 32.8315C38.589 33.0923 39.2757 33.1324 39.9172 32.945C40.5587 32.7576 41.1155 32.3542 41.4933 31.8034C41.871 31.2525 42.0464 30.588 41.9896 29.9226C41.9328 29.2573 41.6474 28.6321 41.1818 28.153L41.177 28.1433ZM24.7304 32.5791C24.8942 32.5782 25.0546 32.6257 25.1913 32.7156C25.3282 32.8055 25.4353 32.9338 25.4992 33.0845C25.5632 33.235 25.5811 33.4012 25.5508 33.562C25.5205 33.7227 25.4433 33.8709 25.3288 33.988C25.2143 34.1049 25.0678 34.1855 24.9077 34.2196C24.7475 34.2536 24.5808 34.2394 24.4287 34.179C24.2765 34.1187 24.1456 34.0146 24.0524 33.88C23.9593 33.7455 23.9081 33.5864 23.9052 33.4228V33.3939C23.9078 33.1769 23.9958 32.9697 24.1503 32.8172C24.3048 32.6646 24.5132 32.5791 24.7304 32.5791ZM15.7785 23.1387C15.6164 23.1384 15.458 23.0908 15.3227 23.0016C15.1875 22.9124 15.0813 22.7857 15.0173 22.6369C14.9533 22.4882 14.9343 22.324 14.9626 22.1646C14.9909 22.0051 15.0653 21.8575 15.1766 21.7398C15.2879 21.6221 15.4312 21.5396 15.589 21.5024C15.7467 21.4651 15.9118 21.4748 16.0641 21.5303C16.2163 21.5857 16.349 21.6845 16.4458 21.8143C16.5425 21.9442 16.5991 22.0995 16.6085 22.2612V22.4107C16.5836 22.6126 16.4853 22.7984 16.3323 22.9326C16.1792 23.0669 15.9821 23.1402 15.7785 23.1387ZM39.1067 30.988C38.9423 30.989 38.7814 30.9411 38.6442 30.8506C38.5071 30.7601 38.4 30.6309 38.3364 30.4795C38.2729 30.328 38.2557 30.1611 38.2872 29.9999C38.3187 29.8387 38.3973 29.6906 38.5133 29.574C38.6291 29.4576 38.777 29.3781 38.9381 29.3458C39.0993 29.3133 39.2665 29.3295 39.4183 29.3921C39.5703 29.4547 39.7003 29.561 39.7917 29.6975C39.8831 29.834 39.9319 29.9945 39.9319 30.1587C39.9319 30.3779 39.8451 30.588 39.6905 30.7434C39.5359 30.8988 39.326 30.9868 39.1067 30.988Z" fill="#0066F1"/>
</svg>
