<svg width="50" height="50" viewBox="0 0 50 50" fill="none" xmlns="http://www.w3.org/2000/svg">
<path d="M4.87036 27.1614C5.36434 27.4084 6.10531 27.6554 6.88744 27.6554C7.71073 27.6554 8.16355 27.326 8.16355 26.7909C8.16355 26.2969 7.79306 26.0088 6.80511 25.6794C5.48783 25.2266 4.58221 24.4857 4.58221 23.2919C4.58221 21.9334 5.73482 20.8632 7.62841 20.8632C8.53403 20.8632 9.19267 21.069 9.68665 21.2748L9.275 22.7567C8.94568 22.5921 8.36937 22.3451 7.58724 22.3451C6.80511 22.3451 6.43463 22.7156 6.43463 23.1272C6.43463 23.6212 6.88744 23.8682 7.91656 24.2387C9.31616 24.7738 10.016 25.5148 10.016 26.6262C10.016 27.9847 8.98684 29.0961 6.76394 29.0961C5.85832 29.0961 4.95269 28.8491 4.49988 28.6021L4.87036 27.1614Z" fill="#80B541"/>
<path d="M12.4859 21.7274C12.4859 22.2214 12.1154 22.633 11.4979 22.633C10.9216 22.633 10.5511 22.2214 10.5511 21.7274C10.5511 21.1923 10.9216 20.8218 11.4979 20.8218C12.0742 20.8218 12.4859 21.1923 12.4859 21.7274ZM10.6335 29.1371V23.3328H12.4447V29.1371H10.6335Z" fill="#80B541"/>
<path d="M15.4086 21.5218V23.1683H16.7258V24.4856H15.4086V26.585C15.4086 27.2848 15.5732 27.6142 16.1084 27.6142C16.3142 27.6142 16.52 27.573 16.6435 27.573V28.9314C16.3965 29.0138 15.9849 29.0961 15.4497 29.0961C14.8734 29.0961 14.3794 28.8903 14.0913 28.6021C13.762 28.2728 13.5973 27.6965 13.5973 26.8732V24.5268H12.8152V23.2095H13.5973V21.9334L15.4086 21.5218Z" fill="#80B541"/>
<path d="M18.6194 26.7086C18.6606 27.4495 19.4016 27.82 20.266 27.82C20.8835 27.82 21.3775 27.7377 21.8714 27.573L22.1184 28.808C21.5421 29.055 20.8012 29.1784 20.019 29.1784C18.0431 29.1784 16.9317 28.0258 16.9317 26.2146C16.9317 24.7326 17.8373 23.1272 19.8544 23.1272C21.7479 23.1272 22.4477 24.6091 22.4477 26.0499C22.4477 26.3792 22.4066 26.6262 22.4066 26.7497L18.6194 26.7086ZM20.76 25.4736C20.76 25.0208 20.5542 24.2798 19.7309 24.2798C18.9487 24.2798 18.6606 24.9796 18.6194 25.4736H20.76Z" fill="#80B541"/>
<path d="M22.7771 29.1375V28.026L23.7651 27.1204C25.4528 25.5973 26.2761 24.7328 26.3173 23.8272C26.3173 23.2097 25.9468 22.7157 25.0412 22.7157C24.3825 22.7157 23.8062 23.0451 23.3946 23.3744L22.9006 22.0571C23.4769 21.6043 24.3825 21.275 25.4528 21.275C27.2229 21.275 28.1697 22.3041 28.1697 23.7037C28.1697 25.021 27.2229 26.0501 26.1115 27.0381L25.4116 27.6144V27.6555H28.3344V29.1375H22.7771Z" fill="black"/>
<path d="M31.8334 29.1376V27.2852H28.4167V26.0915L31.3395 21.3575H33.5624V25.8856H34.468V27.2852H33.5212V29.1376H31.8334ZM31.8334 24.239C31.8334 23.7862 31.8746 23.2922 31.8746 22.7983H31.8334C31.5864 23.2922 31.3806 23.7451 31.1336 24.239L30.1045 25.9268V25.968H31.8334V24.239Z" fill="black"/>
<path d="M36.0734 23.3327L36.6497 24.2795C36.8143 24.5677 36.979 24.8558 37.1437 25.144H37.1848C37.3495 24.8147 37.473 24.5265 37.6376 24.2384L38.1316 23.2916H40.1075L38.1728 26.0908L40.1075 29.137H38.0493L37.473 28.1079C37.3083 27.8197 37.1437 27.5316 37.0202 27.2434H36.979C36.8555 27.5727 36.6909 27.8197 36.5262 28.1079L35.991 29.137H34.0151L35.991 26.1731L34.0563 23.3327H36.0734Z" fill="black"/>
<path d="M45.5001 21.3985V22.5511L42.2892 29.1375H40.3545L43.5653 22.9216V22.8804H40.0251V21.3985H45.5001Z" fill="black"/>
</svg>
