<svg width="50" height="50" viewBox="0 0 50 50" fill="none" xmlns="http://www.w3.org/2000/svg">
<path d="M25.2747 41.584C24.8817 41.5978 24.5628 41.4062 24.2439 41.2188C19.7763 38.6094 15.3096 35.999 10.8439 33.3878C10.1124 32.9592 9.71095 32.3417 9.72493 31.4735C9.74172 30.2331 9.72493 28.9996 9.72493 27.7633C9.70677 27.4415 9.78042 27.1212 9.93754 26.8385C10.1488 26.6621 10.3362 26.8013 10.497 26.9033C11.8762 27.7302 13.2945 28.5007 14.6639 29.3386C14.8219 29.4351 14.9856 29.5247 15.029 29.7245L25.6874 35.9264C25.7486 35.9803 25.7975 36.0463 25.8308 36.1203C25.864 36.1942 25.881 36.2742 25.8804 36.3551C25.9354 37.9363 25.9354 39.5171 25.8804 41.0975C25.8762 41.4379 25.7517 41.7549 25.2747 41.584Z" fill="#005DA5"/>
<path d="M25.2747 41.584C25.7307 41.5936 25.6944 41.2822 25.6944 40.9762C25.6944 39.2929 25.6944 37.6092 25.6944 35.9251C29.0868 33.9404 32.4778 31.9549 35.8674 29.9684C36.0381 29.8678 36.2633 29.8168 36.329 29.5867C37.8019 28.5944 39.3866 27.7826 40.9085 26.8716C40.9735 26.8223 41.0505 26.7909 41.1319 26.7805C41.2132 26.7701 41.2958 26.7811 41.3715 26.8124C41.6414 27.0783 41.6512 27.4243 41.6512 27.7633C41.6512 28.9555 41.6512 30.1462 41.6512 31.337C41.6632 31.763 41.5558 32.1839 41.3409 32.5537C41.126 32.9235 40.8118 33.2278 40.4329 33.4333C35.9765 36.0528 31.5159 38.6649 27.0511 41.2697C26.521 41.5881 25.9252 41.7907 25.2747 41.584Z" fill="#008CC5"/>
<path d="M15.0598 20.2204C15.0905 20.4106 15.264 20.4533 15.3983 20.5318C18.745 22.4999 22.0926 24.4653 25.4412 26.4278C25.5645 26.487 25.6921 26.5367 25.8231 26.5767C25.9993 26.9736 25.9056 27.3912 25.9098 27.7977C25.921 29.1043 25.9182 30.4095 25.9098 31.716C25.9098 32.0344 25.935 32.3638 25.693 32.6284C23.9488 31.767 22.322 30.6989 20.6435 29.7341C17.4796 27.897 14.3492 26.013 11.1713 24.1896C10.1572 23.6039 9.67602 22.8252 9.73897 21.662C9.79212 20.6972 9.75155 19.7325 9.75015 18.7677C9.75015 18.2771 9.83128 17.8126 10.1376 17.4088C10.2784 17.3986 10.4191 17.4298 10.5418 17.4984C11.9811 18.5155 13.5953 19.2474 15.0598 20.2204Z" fill="#21AE38"/>
<path d="M25.6817 8.35124C26.2119 8.27682 26.6776 8.44083 27.1252 8.70406C31.5499 11.3006 35.9755 13.8958 40.4021 16.4896C40.8637 16.7652 41.3141 17.0408 41.4749 17.5921C41.184 17.9794 40.7028 18.0828 40.3182 18.3322C39.3292 18.9717 38.2872 19.5257 37.2717 20.1239C37.0269 20.2686 36.7751 20.4864 36.4325 20.3499C35.1134 19.4155 33.6685 18.6837 32.281 17.8595C30.092 16.5598 27.882 15.2947 25.6817 14.0157C25.4551 13.8021 25.4663 13.5168 25.4635 13.2453C25.4523 11.8744 25.4523 10.5022 25.4635 9.12855C25.4719 8.85154 25.4943 8.57589 25.6817 8.35124Z" fill="#21AE38"/>
<path d="M41.3715 26.8124C39.879 27.6696 38.3851 28.5227 36.8954 29.391C36.7122 29.4985 36.5458 29.606 36.3262 29.5867L25.6957 23.371C25.4621 23.1615 25.4719 22.8776 25.4691 22.6074C25.4579 21.1011 25.4607 19.5947 25.4691 18.0883C25.4691 17.8127 25.4943 17.537 25.6901 17.3138C25.9083 17.2145 26.0356 17.4088 26.1755 17.4902C30.9023 20.2659 35.6245 23.0476 40.3419 25.8352C40.763 26.0792 41.191 26.3203 41.3715 26.8124Z" fill="#005DA5"/>
<path d="M25.6817 8.35124C25.6817 10.2394 25.6818 12.128 25.6818 14.0171L15.0513 20.219C14.4541 20.219 14.0456 19.7807 13.5757 19.5299C12.3923 18.8849 11.2062 18.2316 10.1306 17.4116C10.3152 16.9981 10.6593 16.7225 11.0439 16.502C15.4602 13.9137 19.8765 11.325 24.2928 8.73578C24.7292 8.48219 25.1712 8.30025 25.6817 8.35124Z" fill="#00D143"/>
<path d="M36.4409 20.3513C37.7627 19.7298 38.9754 18.9235 40.2357 18.1972C40.6371 17.9657 41.0246 17.7203 41.4764 17.5949C41.6022 17.7339 41.6675 17.9161 41.6582 18.1021C41.6582 19.5685 41.6736 21.0335 41.6582 22.5C41.6343 22.87 41.4822 23.2208 41.2274 23.4936C40.6819 24.1566 40.4721 24.1951 39.7223 23.7596L35.1596 21.1011L36.4409 20.3513Z" fill="#00D143"/>
<path d="M25.6944 32.6284V27.3719C25.6944 27.0962 25.6622 26.8206 25.8245 26.5767C26.2329 26.1908 26.605 26.1935 27.1099 26.5077C28.5982 27.4353 30.1284 28.2994 31.7258 29.2256C29.6249 30.3516 27.7618 31.6581 25.6944 32.6284Z" fill="#00D143"/>
<path d="M25.6916 17.3137C25.6916 19.3351 25.6916 21.3565 25.6916 23.3778C25.1866 23.7913 24.7404 23.7637 24.1641 23.3958C22.7332 22.482 21.2422 21.6592 19.6714 20.7386C21.2408 19.8303 22.7038 18.9758 24.1739 18.1351C24.6761 17.8443 25.1223 17.475 25.6916 17.3137Z" fill="#008DC5"/>
<path d="M15.036 29.7245C13.5244 28.8461 12.0119 27.9682 10.4985 27.0907C10.3168 26.9967 10.13 26.9125 9.93899 26.8385C10.0145 26.5822 10.2411 26.443 10.4048 26.2528C10.7545 25.8504 11.0832 25.7649 11.5965 26.0833C13.1043 27.0177 14.6541 27.8887 16.2123 28.7997C15.9158 29.2711 15.2878 29.2711 15.036 29.7245Z" fill="#008DC5"/>
</svg>
