<svg width="50" height="50" viewBox="0 0 50 50" fill="none" xmlns="http://www.w3.org/2000/svg">
<path d="M24.7377 30.8833C24.4916 30.8919 24.2919 30.772 24.0923 30.6546C21.295 29.0208 18.4984 27.3865 15.7023 25.7515C15.2443 25.4831 14.9929 25.0966 15.0017 24.5529C15.0122 23.7763 15.0017 23.004 15.0017 22.2299C14.9903 22.0285 15.0364 21.8279 15.1348 21.6509C15.2671 21.5405 15.3844 21.6276 15.4851 21.6915C16.3486 22.2092 17.2367 22.6916 18.0941 23.2163C18.193 23.2767 18.2955 23.3327 18.3226 23.4579L24.9961 27.341C25.0344 27.3747 25.065 27.4161 25.0859 27.4624C25.1067 27.5086 25.1173 27.5587 25.1169 27.6094C25.1514 28.5994 25.1514 29.5892 25.1169 30.5787C25.1143 30.7918 25.0364 30.9903 24.7377 30.8833Z" fill="#005DA5"/>
<path d="M24.7377 30.8833C25.0232 30.8893 25.0005 30.6942 25.0005 30.5026C25.0005 29.4487 25.0005 28.3945 25.0005 27.34C27.1246 26.0974 29.2477 24.8542 31.37 23.6105C31.4769 23.5475 31.6179 23.5156 31.659 23.3715C32.5812 22.7502 33.5735 22.2419 34.5263 21.6715C34.567 21.6407 34.6153 21.621 34.6662 21.6145C34.7171 21.6079 34.7689 21.6148 34.8162 21.6344C34.9852 21.801 34.9914 22.0175 34.9914 22.2298C34.9914 22.9762 34.9914 23.7218 34.9914 24.4674C34.9989 24.7341 34.9316 24.9977 34.7971 25.2292C34.6625 25.4607 34.4658 25.6512 34.2286 25.7799C31.4384 27.42 28.6455 29.0555 25.85 30.6864C25.5181 30.8858 25.145 31.0127 24.7377 30.8833Z" fill="#008CC5"/>
<path d="M18.342 17.5071C18.3612 17.6262 18.4698 17.653 18.5539 17.7022C20.6494 18.9344 22.7454 20.1649 24.842 21.3937C24.9192 21.4308 24.9991 21.4619 25.0811 21.4869C25.1914 21.7354 25.1328 21.9969 25.1354 22.2515C25.1424 23.0695 25.1406 23.8867 25.1354 24.7047C25.1354 24.9041 25.1512 25.1103 24.9997 25.276C23.9076 24.7367 22.889 24.0679 21.8381 23.4639C19.8571 22.3136 17.8971 21.134 15.9073 19.9923C15.2724 19.6256 14.9711 19.1381 15.0105 18.4098C15.0438 17.8057 15.0184 17.2017 15.0175 16.5976C15.0175 16.2904 15.0683 15.9996 15.2601 15.7468C15.3483 15.7404 15.4363 15.7599 15.5132 15.8029C16.4144 16.4397 17.425 16.8979 18.342 17.5071Z" fill="#21AE38"/>
<path d="M24.9926 10.0757C25.3245 10.0291 25.6162 10.1318 25.8964 10.2966C28.6668 11.9224 31.4378 13.5472 34.2093 15.1713C34.4983 15.3438 34.7803 15.5164 34.881 15.8616C34.6989 16.1041 34.3976 16.1688 34.1568 16.325C33.5376 16.7254 32.8851 17.0723 32.2493 17.4468C32.0961 17.5374 31.9384 17.6737 31.7238 17.5883C30.898 17.0032 29.9933 16.545 29.1245 16.029C27.7539 15.2153 26.3702 14.4231 24.9926 13.6223C24.8507 13.4886 24.8577 13.3099 24.856 13.1399C24.849 12.2816 24.849 11.4224 24.856 10.5624C24.8613 10.389 24.8753 10.2164 24.9926 10.0757Z" fill="#21AE38"/>
<path d="M34.8162 21.6344C33.8818 22.1711 32.9464 22.7053 32.0137 23.2489C31.899 23.3163 31.7948 23.3836 31.6573 23.3715L25.0013 19.4797C24.8551 19.3485 24.8612 19.1708 24.8595 19.0017C24.8525 18.0585 24.8542 17.1153 24.8595 16.1721C24.8595 15.9996 24.8752 15.827 24.9978 15.6872C25.1345 15.6251 25.2142 15.7467 25.3017 15.7976C28.2613 17.5356 31.2179 19.2772 34.1716 21.0226C34.4352 21.1753 34.7032 21.3263 34.8162 21.6344Z" fill="#005DA5"/>
<path d="M24.9926 10.0757C24.9926 11.2579 24.9926 12.4395 24.9926 13.6223L18.3367 17.5064C17.9627 17.5064 17.707 17.232 17.4127 17.075C16.6718 16.6711 15.9292 16.2621 15.2557 15.7487C15.3713 15.4898 15.5867 15.3172 15.8276 15.1791C18.5927 13.5586 21.3578 11.9377 24.1229 10.3166C24.3962 10.1578 24.673 10.0438 24.9926 10.0757Z" fill="#00D143"/>
<path d="M31.7291 17.5893C32.5567 17.2001 33.316 16.6953 34.1051 16.2405C34.3564 16.0956 34.599 15.942 34.8819 15.8635C34.9607 15.9505 35.0016 16.0645 34.9958 16.181C34.9958 17.0992 35.0054 18.0164 34.9958 18.9346C34.9808 19.1663 34.8856 19.3859 34.726 19.5567C34.3845 19.9718 34.2531 19.996 33.7837 19.7233L30.9269 18.0587L31.7291 17.5893Z" fill="#00D143"/>
<path d="M24.9997 25.276L25.0005 21.9847C25.0005 21.8121 24.9795 21.6397 25.0811 21.4869C25.3368 21.2453 25.5706 21.2469 25.8868 21.4436C26.8186 22.0244 27.7767 22.5654 28.7769 23.1453C27.4615 23.8503 26.2941 24.6685 24.9997 25.276Z" fill="#00D143"/>
<path d="M24.9978 15.6872C24.9978 16.9528 24.9987 18.2185 24.9987 19.4841C24.6826 19.7429 24.4032 19.7257 24.0424 19.4953C23.1464 18.9232 22.2129 18.408 21.2294 17.8316C22.212 17.2629 23.128 16.7279 24.0485 16.2015C24.3629 16.0194 24.6414 15.7881 24.9978 15.6872Z" fill="#008DC5"/>
<path d="M18.3271 23.4578C17.3807 22.9078 16.4337 22.3582 15.4861 21.8088C15.3723 21.7499 15.2544 21.6972 15.1348 21.6509C15.1821 21.4904 15.3249 21.4032 15.4274 21.2841C15.6464 21.0321 15.8522 20.9786 16.1736 21.178C17.1177 21.763 18.088 22.3084 19.0636 22.8788C18.878 23.1739 18.4848 23.1739 18.3271 23.4578Z" fill="#008DC5"/>
<path d="M8.9375 34.752L7.05469 39.9355H6.28516L8.45312 34.248H8.94922L8.9375 34.752ZM10.5156 39.9355L8.62891 34.752L8.61719 34.248H9.11328L11.2891 39.9355H10.5156ZM10.418 37.8301V38.4473H7.22266V37.8301H10.418Z" fill="#7F8BA5"/>
<path d="M14.4023 38.8145C14.4023 38.7103 14.3789 38.6139 14.332 38.5254C14.2878 38.4342 14.1953 38.3522 14.0547 38.2793C13.9167 38.2038 13.7083 38.1387 13.4297 38.084C13.1953 38.0345 12.9831 37.9759 12.793 37.9082C12.6055 37.8405 12.4453 37.7585 12.3125 37.6621C12.1823 37.5658 12.082 37.4525 12.0117 37.3223C11.9414 37.1921 11.9062 37.0397 11.9062 36.8652C11.9062 36.6986 11.9427 36.541 12.0156 36.3926C12.0911 36.2441 12.1966 36.1126 12.332 35.998C12.4701 35.8835 12.6354 35.7936 12.8281 35.7285C13.0208 35.6634 13.2357 35.6309 13.4727 35.6309C13.8112 35.6309 14.1003 35.6908 14.3398 35.8105C14.5794 35.9303 14.763 36.0905 14.8906 36.291C15.0182 36.4889 15.082 36.709 15.082 36.9512H14.3594C14.3594 36.834 14.3242 36.7207 14.2539 36.6113C14.1862 36.4993 14.0859 36.4069 13.9531 36.334C13.8229 36.2611 13.6628 36.2246 13.4727 36.2246C13.2721 36.2246 13.1094 36.2559 12.9844 36.3184C12.862 36.3783 12.7721 36.4551 12.7148 36.5488C12.6602 36.6426 12.6328 36.7415 12.6328 36.8457C12.6328 36.9238 12.6458 36.9941 12.6719 37.0566C12.7005 37.1165 12.75 37.1725 12.8203 37.2246C12.8906 37.2741 12.9896 37.321 13.1172 37.3652C13.2448 37.4095 13.4076 37.4538 13.6055 37.498C13.9518 37.5762 14.237 37.6699 14.4609 37.7793C14.6849 37.8887 14.8516 38.0228 14.9609 38.1816C15.0703 38.3405 15.125 38.5332 15.125 38.7598C15.125 38.9447 15.0859 39.1139 15.0078 39.2676C14.9323 39.4212 14.8216 39.554 14.6758 39.666C14.5326 39.7754 14.3607 39.8613 14.1602 39.9238C13.9622 39.9837 13.7396 40.0137 13.4922 40.0137C13.1198 40.0137 12.8047 39.9473 12.5469 39.8145C12.2891 39.6816 12.0938 39.5098 11.9609 39.2988C11.8281 39.0879 11.7617 38.8652 11.7617 38.6309H12.4883C12.4987 38.8288 12.556 38.9863 12.6602 39.1035C12.7643 39.2181 12.8919 39.3001 13.043 39.3496C13.194 39.3965 13.3438 39.4199 13.4922 39.4199C13.6901 39.4199 13.8555 39.3939 13.9883 39.3418C14.1237 39.2897 14.2266 39.2181 14.2969 39.127C14.3672 39.0358 14.4023 38.9316 14.4023 38.8145Z" fill="#7F8BA5"/>
<path d="M18.5352 38.8145C18.5352 38.7103 18.5117 38.6139 18.4648 38.5254C18.4206 38.4342 18.3281 38.3522 18.1875 38.2793C18.0495 38.2038 17.8411 38.1387 17.5625 38.084C17.3281 38.0345 17.1159 37.9759 16.9258 37.9082C16.7383 37.8405 16.5781 37.7585 16.4453 37.6621C16.3151 37.5658 16.2148 37.4525 16.1445 37.3223C16.0742 37.1921 16.0391 37.0397 16.0391 36.8652C16.0391 36.6986 16.0755 36.541 16.1484 36.3926C16.224 36.2441 16.3294 36.1126 16.4648 35.998C16.6029 35.8835 16.7682 35.7936 16.9609 35.7285C17.1536 35.6634 17.3685 35.6309 17.6055 35.6309C17.944 35.6309 18.2331 35.6908 18.4727 35.8105C18.7122 35.9303 18.8958 36.0905 19.0234 36.291C19.151 36.4889 19.2148 36.709 19.2148 36.9512H18.4922C18.4922 36.834 18.457 36.7207 18.3867 36.6113C18.319 36.4993 18.2188 36.4069 18.0859 36.334C17.9557 36.2611 17.7956 36.2246 17.6055 36.2246C17.4049 36.2246 17.2422 36.2559 17.1172 36.3184C16.9948 36.3783 16.9049 36.4551 16.8477 36.5488C16.793 36.6426 16.7656 36.7415 16.7656 36.8457C16.7656 36.9238 16.7786 36.9941 16.8047 37.0566C16.8333 37.1165 16.8828 37.1725 16.9531 37.2246C17.0234 37.2741 17.1224 37.321 17.25 37.3652C17.3776 37.4095 17.5404 37.4538 17.7383 37.498C18.0846 37.5762 18.3698 37.6699 18.5938 37.7793C18.8177 37.8887 18.9844 38.0228 19.0938 38.1816C19.2031 38.3405 19.2578 38.5332 19.2578 38.7598C19.2578 38.9447 19.2188 39.1139 19.1406 39.2676C19.0651 39.4212 18.9544 39.554 18.8086 39.666C18.6654 39.7754 18.4935 39.8613 18.293 39.9238C18.0951 39.9837 17.8724 40.0137 17.625 40.0137C17.2526 40.0137 16.9375 39.9473 16.6797 39.8145C16.4219 39.6816 16.2266 39.5098 16.0938 39.2988C15.9609 39.0879 15.8945 38.8652 15.8945 38.6309H16.6211C16.6315 38.8288 16.6888 38.9863 16.793 39.1035C16.8971 39.2181 17.0247 39.3001 17.1758 39.3496C17.3268 39.3965 17.4766 39.4199 17.625 39.4199C17.8229 39.4199 17.9883 39.3939 18.1211 39.3418C18.2565 39.2897 18.3594 39.2181 18.4297 39.127C18.5 39.0358 18.5352 38.9316 18.5352 38.8145Z" fill="#7F8BA5"/>
<path d="M22.793 38.959V35.709H23.5195V39.9355H22.8281L22.793 38.959ZM22.9297 38.0684L23.2305 38.0605C23.2305 38.3418 23.2005 38.6022 23.1406 38.8418C23.0833 39.0788 22.9896 39.2845 22.8594 39.459C22.7292 39.6335 22.5586 39.7702 22.3477 39.8691C22.1367 39.9655 21.8802 40.0137 21.5781 40.0137C21.3724 40.0137 21.1836 39.9837 21.0117 39.9238C20.8424 39.8639 20.6966 39.7715 20.5742 39.6465C20.4518 39.5215 20.3568 39.3587 20.2891 39.1582C20.224 38.9577 20.1914 38.7168 20.1914 38.4355V35.709H20.9141V38.4434C20.9141 38.6335 20.9349 38.791 20.9766 38.916C21.0208 39.0384 21.0794 39.1361 21.1523 39.209C21.2279 39.2793 21.3112 39.3288 21.4023 39.3574C21.4961 39.3861 21.5924 39.4004 21.6914 39.4004C21.9987 39.4004 22.2422 39.3418 22.4219 39.2246C22.6016 39.1048 22.7305 38.9447 22.8086 38.7441C22.8893 38.541 22.9297 38.3158 22.9297 38.0684Z" fill="#7F8BA5"/>
<path d="M25.3438 36.373V39.9355H24.6211V35.709H25.3242L25.3438 36.373ZM26.6641 35.6855L26.6602 36.3574C26.6003 36.3444 26.543 36.3366 26.4883 36.334C26.4362 36.3288 26.3763 36.3262 26.3086 36.3262C26.1419 36.3262 25.9948 36.3522 25.8672 36.4043C25.7396 36.4564 25.6315 36.5293 25.543 36.623C25.4544 36.7168 25.3841 36.8288 25.332 36.959C25.2826 37.0866 25.25 37.2272 25.2344 37.3809L25.0312 37.498C25.0312 37.2428 25.056 37.0033 25.1055 36.7793C25.1576 36.5553 25.237 36.3574 25.3438 36.1855C25.4505 36.0111 25.5859 35.8757 25.75 35.7793C25.9167 35.6803 26.1146 35.6309 26.3438 35.6309C26.3958 35.6309 26.4557 35.6374 26.5234 35.6504C26.5911 35.6608 26.638 35.6725 26.6641 35.6855Z" fill="#7F8BA5"/>
<path d="M29.668 39.2129V37.0371C29.668 36.8704 29.6341 36.7259 29.5664 36.6035C29.5013 36.4785 29.4023 36.3822 29.2695 36.3145C29.1367 36.2467 28.9727 36.2129 28.7773 36.2129C28.5951 36.2129 28.4349 36.2441 28.2969 36.3066C28.1615 36.3691 28.0547 36.4512 27.9766 36.5527C27.901 36.6543 27.8633 36.7637 27.8633 36.8809H27.1406C27.1406 36.7298 27.1797 36.5801 27.2578 36.4316C27.3359 36.2832 27.4479 36.1491 27.5938 36.0293C27.7422 35.9069 27.9193 35.8105 28.125 35.7402C28.3333 35.6673 28.5651 35.6309 28.8203 35.6309C29.1276 35.6309 29.3984 35.6829 29.6328 35.7871C29.8698 35.8913 30.0547 36.0488 30.1875 36.2598C30.3229 36.4681 30.3906 36.7298 30.3906 37.0449V39.0137C30.3906 39.1543 30.4023 39.304 30.4258 39.4629C30.4518 39.6217 30.4896 39.7585 30.5391 39.873V39.9355H29.7852C29.7487 39.8522 29.7201 39.7415 29.6992 39.6035C29.6784 39.4629 29.668 39.3327 29.668 39.2129ZM29.793 37.373L29.8008 37.8809H29.0703C28.8646 37.8809 28.681 37.8978 28.5195 37.9316C28.3581 37.9629 28.2227 38.0111 28.1133 38.0762C28.0039 38.1413 27.9206 38.2233 27.8633 38.3223C27.806 38.4186 27.7773 38.5319 27.7773 38.6621C27.7773 38.7949 27.8073 38.916 27.8672 39.0254C27.9271 39.1348 28.0169 39.222 28.1367 39.2871C28.2591 39.3496 28.4089 39.3809 28.5859 39.3809C28.8073 39.3809 29.0026 39.334 29.1719 39.2402C29.3411 39.1465 29.4753 39.0319 29.5742 38.8965C29.6758 38.7611 29.7305 38.6296 29.7383 38.502L30.0469 38.8496C30.0286 38.959 29.9792 39.0801 29.8984 39.2129C29.8177 39.3457 29.7096 39.4733 29.5742 39.5957C29.4414 39.7155 29.2826 39.8158 29.0977 39.8965C28.9154 39.9746 28.7096 40.0137 28.4805 40.0137C28.194 40.0137 27.9427 39.9577 27.7266 39.8457C27.513 39.7337 27.3464 39.584 27.2266 39.3965C27.1094 39.2064 27.0508 38.9941 27.0508 38.7598C27.0508 38.5332 27.0951 38.334 27.1836 38.1621C27.2721 37.9876 27.3997 37.8431 27.5664 37.7285C27.7331 37.6113 27.9336 37.5228 28.168 37.4629C28.4023 37.403 28.6641 37.373 28.9531 37.373H29.793Z" fill="#7F8BA5"/>
<path d="M32.25 36.6113V39.9355H31.5273V35.709H32.2109L32.25 36.6113ZM32.0781 37.6621L31.7773 37.6504C31.7799 37.3613 31.8229 37.0944 31.9062 36.8496C31.9896 36.6022 32.1068 36.3874 32.2578 36.2051C32.4089 36.0228 32.5885 35.8822 32.7969 35.7832C33.0078 35.6816 33.2409 35.6309 33.4961 35.6309C33.7044 35.6309 33.8919 35.6595 34.0586 35.7168C34.2253 35.7715 34.3672 35.86 34.4844 35.9824C34.6042 36.1048 34.6953 36.2637 34.7578 36.459C34.8203 36.6517 34.8516 36.8874 34.8516 37.166V39.9355H34.125V37.1582C34.125 36.9368 34.0924 36.7598 34.0273 36.627C33.9622 36.4915 33.8672 36.3939 33.7422 36.334C33.6172 36.2715 33.4635 36.2402 33.2812 36.2402C33.1016 36.2402 32.9375 36.278 32.7891 36.3535C32.6432 36.429 32.5169 36.5332 32.4102 36.666C32.306 36.7988 32.224 36.9512 32.1641 37.123C32.1068 37.2923 32.0781 37.472 32.0781 37.6621Z" fill="#7F8BA5"/>
<path d="M37.6406 39.4199C37.8125 39.4199 37.9714 39.3848 38.1172 39.3145C38.263 39.2441 38.3828 39.1478 38.4766 39.0254C38.5703 38.9004 38.6237 38.7585 38.6367 38.5996H39.3242C39.3112 38.8496 39.2266 39.0827 39.0703 39.2988C38.9167 39.5124 38.7148 39.6855 38.4648 39.8184C38.2148 39.9486 37.9401 40.0137 37.6406 40.0137C37.3229 40.0137 37.0456 39.9577 36.8086 39.8457C36.5742 39.7337 36.3789 39.5801 36.2227 39.3848C36.069 39.1895 35.9531 38.9655 35.875 38.7129C35.7995 38.4577 35.7617 38.1882 35.7617 37.9043V37.7402C35.7617 37.4564 35.7995 37.1882 35.875 36.9355C35.9531 36.6803 36.069 36.4551 36.2227 36.2598C36.3789 36.0645 36.5742 35.9108 36.8086 35.7988C37.0456 35.6868 37.3229 35.6309 37.6406 35.6309C37.9714 35.6309 38.2604 35.6986 38.5078 35.834C38.7552 35.9668 38.9492 36.1491 39.0898 36.3809C39.2331 36.61 39.3112 36.8704 39.3242 37.1621H38.6367C38.6237 36.9876 38.5742 36.8301 38.4883 36.6895C38.4049 36.5488 38.2904 36.4368 38.1445 36.3535C38.0013 36.2676 37.8333 36.2246 37.6406 36.2246C37.4193 36.2246 37.2331 36.2689 37.082 36.3574C36.9336 36.4434 36.8151 36.5605 36.7266 36.709C36.6406 36.8548 36.5781 37.0176 36.5391 37.1973C36.5026 37.3743 36.4844 37.5553 36.4844 37.7402V37.9043C36.4844 38.0892 36.5026 38.2715 36.5391 38.4512C36.5755 38.6309 36.6367 38.7936 36.7227 38.9395C36.8112 39.0853 36.9297 39.2025 37.0781 39.291C37.2292 39.377 37.4167 39.4199 37.6406 39.4199Z" fill="#7F8BA5"/>
<path d="M41.8906 40.0137C41.5964 40.0137 41.3294 39.9642 41.0898 39.8652C40.8529 39.7637 40.6484 39.6217 40.4766 39.4395C40.3073 39.2572 40.1771 39.041 40.0859 38.791C39.9948 38.541 39.9492 38.2676 39.9492 37.9707V37.8066C39.9492 37.4629 40 37.1569 40.1016 36.8887C40.2031 36.6178 40.3411 36.3887 40.5156 36.2012C40.6901 36.0137 40.888 35.8717 41.1094 35.7754C41.3307 35.679 41.5599 35.6309 41.7969 35.6309C42.099 35.6309 42.3594 35.6829 42.5781 35.7871C42.7995 35.8913 42.9805 36.0371 43.1211 36.2246C43.2617 36.4095 43.3659 36.6283 43.4336 36.8809C43.5013 37.1309 43.5352 37.4043 43.5352 37.7012V38.0254H40.3789V37.4355H42.8125V37.3809C42.8021 37.1934 42.763 37.0111 42.6953 36.834C42.6302 36.6569 42.526 36.5111 42.3828 36.3965C42.2396 36.2819 42.0443 36.2246 41.7969 36.2246C41.6328 36.2246 41.4818 36.2598 41.3438 36.3301C41.2057 36.3978 41.0872 36.4993 40.9883 36.6348C40.8893 36.7702 40.8125 36.9355 40.7578 37.1309C40.7031 37.3262 40.6758 37.5514 40.6758 37.8066V37.9707C40.6758 38.1712 40.7031 38.36 40.7578 38.5371C40.8151 38.7116 40.8971 38.8652 41.0039 38.998C41.1133 39.1309 41.2448 39.235 41.3984 39.3105C41.5547 39.3861 41.7318 39.4238 41.9297 39.4238C42.1849 39.4238 42.401 39.3717 42.5781 39.2676C42.7552 39.1634 42.9102 39.0241 43.043 38.8496L43.4805 39.1973C43.3893 39.3353 43.2734 39.4668 43.1328 39.5918C42.9922 39.7168 42.819 39.8184 42.6133 39.8965C42.4102 39.9746 42.1693 40.0137 41.8906 40.0137Z" fill="#7F8BA5"/>
</svg>
