<svg width="50" height="50" viewBox="0 0 50 50" fill="none" xmlns="http://www.w3.org/2000/svg">
<path fill-rule="evenodd" clip-rule="evenodd" d="M16.1913 29.2288C16.1913 31.0903 14.6901 32.5927 12.83 32.5927C10.97 32.5927 9.46881 31.0852 9.46881 29.2288C9.46881 27.3723 10.97 25.8649 12.83 25.8649H16.1913V29.2288ZM17.8694 29.2288C17.8694 27.3673 19.3706 25.8649 21.2306 25.8649C23.0907 25.8649 24.5919 27.3673 24.5919 29.2288V37.636C24.5919 39.4975 23.0907 40.9999 21.2306 40.9999C19.3706 40.9999 17.8694 39.4975 17.8694 37.636V29.2288Z" fill="#E01E5A"/>
<path fill-rule="evenodd" clip-rule="evenodd" d="M21.2307 15.7278C19.3707 15.7278 17.8695 14.2254 17.8695 12.3639C17.8695 10.5024 19.3707 9 21.2307 9C23.0908 9 24.592 10.5024 24.592 12.3639V15.7278H21.2307ZM21.2307 17.4325C23.0908 17.4325 24.592 18.9349 24.592 20.7964C24.592 22.6579 23.0908 24.1603 21.2307 24.1603H12.8049C10.9448 24.1603 9.44366 22.6529 9.44366 20.7964C9.44366 18.9399 10.9448 17.4325 12.8049 17.4325H21.2307Z" fill="#36C5F0"/>
<path fill-rule="evenodd" clip-rule="evenodd" d="M34.6958 20.7964C34.6958 18.9349 36.197 17.4325 38.057 17.4325C39.9171 17.4325 41.4183 18.9349 41.4183 20.7964C41.4183 22.6579 39.9171 24.1603 38.057 24.1603H34.6958V20.7964ZM33.0177 20.7964C33.0177 22.6579 31.5165 24.1603 29.6565 24.1603C27.7964 24.1603 26.2952 22.6579 26.2952 20.7964V12.3639C26.2952 10.5024 27.7964 9 29.6565 9C31.5165 9 33.0177 10.5024 33.0177 12.3639V20.7964Z" fill="#2EB67D"/>
<path fill-rule="evenodd" clip-rule="evenodd" d="M29.6565 34.2721C31.5165 34.2721 33.0177 35.7745 33.0177 37.636C33.0177 39.4975 31.5165 40.9999 29.6565 40.9999C27.7964 40.9999 26.2952 39.4975 26.2952 37.636V34.2721H29.6565ZM29.6565 32.5927C27.7964 32.5927 26.2952 31.0903 26.2952 29.2288C26.2952 27.3673 27.7964 25.8649 29.6565 25.8649H38.0823C39.9424 25.8649 41.4435 27.3673 41.4435 29.2288C41.4435 31.0903 39.9424 32.5927 38.0823 32.5927H29.6565Z" fill="#ECB22E"/>
</svg>
