<svg width="50" height="50" viewBox="0 0 50 50" fill="none" xmlns="http://www.w3.org/2000/svg">
<rect width="50" height="50" fill="#003059"/>
<path d="M17.5297 23.2525C17.5297 23.2525 18.7549 21.396 20.4257 21.396C22.9505 21.3218 25.0297 26.0743 25.401 26.7426C28.2228 20.2079 32.901 14.6757 36.6881 11H13.297C13.297 13.2649 13.297 36.099 13.297 37.9926C13.297 39.0322 13.1856 39.9975 13 41C19.7065 39.855 27.0428 38.0587 32.0099 33.0916C32.5896 34.251 33.1817 35.3505 33.9035 36.4332C34.8688 37.6584 35.3886 37.7698 35.7599 37.6584C36.1683 37.547 36.3911 36.8416 36.5025 35.7649C36.6139 34.651 36.6881 32.2376 36.6881 29.2302V13.0792C29.8936 21.8045 24.8069 34.8738 24.8069 34.8738C24.8069 34.8738 21.4282 23.2153 17.5297 23.2525Z" fill="white"/>
</svg>
