<svg width="50" height="50" viewBox="0 0 50 50" fill="none" xmlns="http://www.w3.org/2000/svg">
<path fill-rule="evenodd" clip-rule="evenodd" d="M10.1909 37.671H40.1429C36.6306 42.1384 31.2272 45 25.1669 45C19.1066 45 13.7032 42.1384 10.1909 37.671ZM8.35254 34.8678C6.85286 32.0875 6 28.8951 6 25.5C6 14.7305 14.5813 6 25.1669 6C34.5289 6 42.3232 12.8289 44 21.8576C41.9199 18.7613 38.4219 16.7293 34.4574 16.7293C28.6759 16.7293 23.8865 21.0509 23.0399 26.6921C22.9524 26.109 22.907 25.5118 22.907 24.9039C22.907 23.8294 23.0488 22.7886 23.3144 21.7997C22.8287 21.7132 22.329 21.6681 21.819 21.6681C17.0578 21.6681 13.198 25.595 13.198 30.4389C13.198 30.8149 13.2213 31.1853 13.2664 31.5488C11.0836 31.6199 9.21584 32.96 8.35254 34.8678Z" fill="#127B77"/>
</svg>
