<svg width="50" height="50" viewBox="0 0 50 50" fill="none" xmlns="http://www.w3.org/2000/svg">
<path d="M37.3611 24.7167C38.386 27.1722 38.4355 29.7186 38.095 32.3139C37.87 34.0262 37.4742 35.6596 36.4812 37.1067C35.408 38.6601 33.9049 39.5323 32.0955 39.8072C30.881 39.9912 29.7207 40.2266 28.6794 40.9292C26.8853 42.1361 25.0995 41.6868 23.3336 40.8276C22.3983 40.3724 21.4924 39.8287 20.4593 39.6399C19.7526 39.5108 19.034 39.4009 18.3307 39.2348C16.2716 38.7425 14.8686 37.5237 14.2773 35.435C14.1312 34.9164 13.9345 34.7324 13.3667 34.871C12.9332 34.975 12.4031 35.018 12.0768 34.5197C12.1946 34.5125 12.3124 34.5125 12.4231 34.4994C13.1711 34.4145 13.6494 33.9019 13.5728 33.2758C13.4998 32.6783 12.866 32.2386 12.1722 32.3091C11.2298 32.4059 10.8529 33.1611 11.2805 34.0716C10.8894 34.1218 10.7327 33.7992 10.5548 33.5602C9.51465 32.1633 9.44869 30.3339 10.3593 28.8271C10.4248 28.7078 10.4837 28.585 10.536 28.4591C10.622 28.5009 10.708 28.5463 10.7963 28.5846C11.4442 28.8654 11.688 28.6921 11.6692 27.9608C11.6692 27.8617 11.6539 27.7649 11.6468 27.6669L11.9531 27.5139C12.0202 27.582 12.0874 27.6502 12.1557 27.7171C12.6634 28.2225 12.9202 28.164 13.1982 27.4781C13.2277 27.4076 13.2595 27.3383 13.2901 27.269C13.5398 27.312 13.587 27.1244 13.6211 26.9511C13.9816 25.0775 14.8592 23.4859 16.1726 22.1333C16.3446 22.0424 16.5261 21.96 16.6874 21.862C21.2038 19.2069 25.8934 20.3254 28.4214 24.6916C28.7489 25.2568 29.0928 25.7371 29.7113 25.9665L33.9061 28.3671L33.9756 28.2643L30.4169 23.1047L37.3611 24.7167ZM33.1757 35.2605C35.1265 35.1183 37.0219 32.9388 37.4283 30.4128L37.0289 30.5167C36.2562 30.6362 35.5188 30.8908 34.7719 31.1082C33.138 31.5133 31.5042 31.9112 29.8986 32.4226C29.6312 32.4334 29.2825 32.4083 29.1847 32.6616C29.107 32.8659 29.4462 33.0081 29.5829 33.191C30.1954 34.0071 31.0954 34.4169 31.9389 34.9021C31.9248 34.9149 31.9132 34.9303 31.9047 34.9475C31.9047 34.963 31.9047 34.9929 31.9141 34.9977C32.3123 35.2104 32.7234 35.3406 33.1757 35.2605ZM26.6897 25.8279C25.0759 26.2892 23.5857 26.7038 22.1038 27.1423C21.7328 27.2534 21.4689 27.2295 21.1614 26.9559C20.0824 26 18.9704 25.0871 17.8631 24.161C17.7547 24.0702 17.6734 23.8874 17.4673 23.9866C17.3989 25.5937 17.3212 27.2021 17.2682 28.8104C17.2711 28.9468 17.2357 29.0811 17.166 29.1977C17.0963 29.3143 16.9953 29.4084 16.8747 29.4688C15.8876 30.0806 14.9204 30.7235 13.9298 31.3376C13.673 31.499 13.5245 31.6555 13.5646 31.996C13.6046 32.3366 13.7566 32.5099 14.077 32.6222C15.0759 32.9806 16.0537 33.3917 17.0597 33.7215C17.5686 33.8876 17.8042 34.1624 17.922 34.6894C18.2542 36.1699 18.6452 37.636 19.0411 39.2217C19.8409 38.1988 20.5724 37.2704 21.2934 36.3407C22.3913 34.9343 22.3889 34.9499 24.1441 35.1076C25.2797 35.2104 26.42 35.257 27.6451 35.3334C26.7463 33.9581 25.937 32.6688 25.0688 31.4201C24.7673 30.9863 24.7602 30.6482 24.9581 30.1774C25.553 28.7805 26.0901 27.3538 26.6897 25.8279ZM32.1273 36.2786C29.9186 37.6982 27.4755 38.0483 24.9604 38.4533C26.877 39.3615 28.6605 39.2169 30.3792 38.1415C31.0931 37.6922 31.9412 37.3337 32.1273 36.2786Z" fill="#FDC3B4"/>
<path d="M29.7077 25.9677C29.0893 25.7383 28.7453 25.258 28.4178 24.6928C25.8899 20.3266 21.2003 19.2081 16.6839 21.8632C16.5166 21.9612 16.3411 22.0437 16.1691 22.1345L15.9206 21.4605C15.9512 21.3411 15.9453 21.2395 15.8145 21.1857V21.1917C15.877 20.9659 15.7839 20.7615 15.7262 20.5536C15.235 18.7732 14.7543 16.9892 14.2372 15.2171C14.1265 14.8384 14.2066 14.6496 14.514 14.4381C16.3788 13.1511 18.2306 11.8439 20.0894 10.5474C20.2072 10.4686 20.2991 10.3084 20.5324 10.3873C20.0093 11.7149 19.491 13.0281 18.9103 14.5002L26.2645 10.6442L24.183 14.7069C25.2431 14.4679 26.1302 14.2624 27.0278 14.076C28.6204 13.7438 30.1883 13.2969 31.7987 13.0532L31.8316 13.0866L27.572 16.3009L36.0441 17.7838C36.0441 17.8244 36.0441 17.8663 36.0441 17.9033L29.9916 20.7866L35.0876 23.364L35.0405 23.4835L29.0681 22.2755C30.1919 23.8205 31.2485 25.2735 32.3064 26.7253C32.0425 26.7124 31.7824 26.6568 31.536 26.5604C30.9234 26.3704 30.3733 25.9833 29.7077 25.9677Z" fill="#040404"/>
<path d="M31.801 13.0472C30.1907 13.2861 28.6204 13.7378 27.0301 14.07C26.1325 14.2564 25.2408 14.4667 24.1853 14.7009L26.2668 10.6382L18.9126 14.4942C19.4934 13.0221 20.0117 11.7089 20.5347 10.3813C20.2991 10.3048 20.2061 10.4626 20.0918 10.5414C18.2329 11.8379 16.3811 13.1452 14.5164 14.4321C14.2089 14.6436 14.1288 14.8324 14.2396 15.2112C14.7567 16.9832 15.2373 18.7672 15.7285 20.5476C15.7863 20.7555 15.8793 20.9599 15.8169 21.1857C14.9782 19.5487 14.3467 17.8184 13.5893 16.1468C13.3537 15.6234 13.1546 15.0821 12.9014 14.5683C12.7435 14.2469 12.7494 14.082 13.0934 13.8764C16.0654 12.1008 19.0222 10.3013 21.9848 8.5101C22.0319 8.48142 22.0861 8.46469 22.2569 8.39061L20.2544 12.801L29.1293 8.33325L25.7485 13.2814L35.9428 11.3695L35.9911 11.4639L29.3579 15.7656L40.2484 17.1804L40.2778 17.2724L33.118 20.1378L31.8081 20.6325L36.7368 23.7392L36.8711 23.848L38.4343 24.8971L38.426 24.8875C38.0514 24.9616 37.7192 24.7429 37.3599 24.7214L30.4098 23.1107L33.9709 28.2632L33.9014 28.3659L29.7065 25.9653C30.3721 25.9809 30.9222 26.368 31.5348 26.5556C31.7812 26.652 32.0413 26.7076 32.3052 26.7205C31.245 25.2687 30.1848 23.8157 29.0669 22.2707L35.0393 23.4787L35.0864 23.3592L29.9869 20.7794L36.0394 17.8961C36.0394 17.8555 36.0394 17.8137 36.0394 17.7766L27.5673 16.2937L31.8269 13.0794L31.9023 13.0209C31.8587 12.9683 31.8269 12.9934 31.801 13.0472Z" fill="#83068B"/>
<path d="M36.7368 23.7365L31.8081 20.629L33.118 20.1342C34.0463 20.7724 35.0181 21.3628 35.7426 22.2544C36.116 22.7134 36.6119 23.1006 36.7368 23.7365Z" fill="#FDC3B4"/>
<path d="M11.2769 34.072C10.8493 33.1613 11.231 32.4059 12.1686 32.3091C12.8589 32.2386 13.4962 32.6784 13.5693 33.276C13.6458 33.9047 13.1676 34.415 12.4196 34.4999C12.3018 34.513 12.184 34.513 12.0732 34.5202H12.065L11.7882 34.4473L11.2769 34.072ZM12.3241 34.0338C12.7035 33.9884 13.0309 33.8318 13.0309 33.4003C13.0309 32.9689 12.7093 32.7824 12.3159 32.7824C11.9224 32.7824 11.6091 32.9916 11.6091 33.4051C11.6091 33.8186 11.9425 33.9907 12.3241 34.0338Z" fill="#040404"/>
<path d="M13.2866 27.2704C13.256 27.3397 13.2241 27.4091 13.1947 27.4796C12.9167 28.1644 12.6599 28.223 12.1522 27.7186C12.0839 27.6517 12.0167 27.5836 11.9496 27.5154C12.085 27.1569 12.2205 26.7983 12.3854 26.3585C12.72 26.686 13.1205 26.8425 13.2866 27.2704Z" fill="#040404"/>
<path d="M11.6434 27.6658C11.6504 27.7638 11.6634 27.8606 11.6657 27.9598C11.6846 28.6913 11.4407 28.8645 10.7928 28.5837C10.7045 28.5454 10.6185 28.5 10.5325 28.4582V27.2905C10.9217 27.3481 11.2978 27.4751 11.6434 27.6658Z" fill="#040404"/>
<path d="M15.8145 21.1857C15.9453 21.2395 15.9512 21.3422 15.9206 21.4605C15.876 21.4325 15.8415 21.3906 15.8224 21.3411C15.8033 21.2915 15.8005 21.237 15.8145 21.1857Z" fill="#83068B"/>
<path d="M11.7882 34.4492L12.065 34.5221C11.9425 34.6046 11.8601 34.5556 11.7882 34.4492Z" fill="#FDC3B4"/>
<path d="M38.436 24.894L38.4347 24.9101L38.4272 24.8828L38.436 24.894Z" fill="#83068B"/>
<path d="M26.6897 25.8279C26.0901 27.3538 25.553 28.7806 24.964 30.1834C24.7661 30.6542 24.7732 30.9923 25.0748 31.4261C25.9429 32.6748 26.7522 33.9641 27.651 35.3394C26.4259 35.2629 25.2856 35.2199 24.15 35.1136C22.3948 34.9559 22.3972 34.9403 21.2993 36.3467C20.5737 37.2764 19.8468 38.2048 19.047 39.2277C18.6512 37.642 18.2601 36.1759 17.9279 34.6954C17.8101 34.1684 17.5745 33.8936 17.0656 33.7275C16.0596 33.3977 15.0819 32.9819 14.0829 32.6282C13.7625 32.5158 13.6117 32.3486 13.5705 32.002C13.5293 31.6555 13.6789 31.505 13.9357 31.3436C14.9217 30.7295 15.8888 30.0866 16.8807 29.4748C17.0012 29.4144 17.1022 29.3203 17.1719 29.2037C17.2416 29.0871 17.2771 28.9527 17.2741 28.8164C17.3271 27.2081 17.4049 25.5997 17.4732 23.9925C17.6793 23.8934 17.7606 24.0762 17.869 24.167C18.9716 25.0931 20.0836 26.0084 21.1674 26.9619C21.4784 27.2355 21.7422 27.2594 22.1098 27.1483C23.5858 26.7098 25.0759 26.2892 26.6897 25.8279ZM23.5952 32.3259C22.0261 31.9005 20.4676 31.4285 18.8738 31.1011C18.1718 30.8538 17.4529 30.6589 16.7228 30.518C16.4519 30.4164 16.2175 30.3053 16.3694 30.8023C16.7087 31.8933 17.194 32.8946 17.955 33.7478C19.133 35.0622 20.6538 35.4207 21.9331 34.6715C22.8484 34.0943 23.7213 33.4658 24.3951 32.5206L23.5952 32.3259Z" fill="#83068B"/>
<path d="M34.7719 31.1082C35.5188 30.8907 36.2562 30.6303 37.0289 30.5167C36.8815 31.1936 36.6395 31.8456 36.3103 32.453C35.6142 33.7569 34.6706 34.7609 33.1722 35.0824C32.7587 35.0501 32.337 35.0824 31.9424 34.9079C31.0954 34.4226 30.1954 34.0127 29.5864 33.1964C29.4497 33.0135 29.1152 32.8713 29.1882 32.6669C29.286 32.4099 29.6347 32.435 29.9021 32.4279C30.2897 33.445 31.1131 33.8501 32.0967 33.9469C33.1027 34.0461 34.0074 33.7665 34.6364 32.9024C34.8347 32.6521 34.9537 32.3468 34.9779 32.0266C35.0021 31.7065 34.9303 31.3862 34.7719 31.1082Z" fill="#FEFDFE"/>
<path d="M34.7719 31.1082C34.9295 31.3865 35.0006 31.7065 34.9758 32.0264C34.951 32.3464 34.8314 32.6512 34.6329 32.901C34.0038 33.7651 33.1015 34.0448 32.0931 33.9456C31.1095 33.8488 30.2861 33.4436 29.8985 32.4265C31.5041 31.9114 33.138 31.5134 34.7719 31.1082ZM34.7719 31.7345C34.7732 31.6858 34.7647 31.6374 34.7469 31.5921C34.7291 31.5468 34.7025 31.5057 34.6685 31.4713C34.6345 31.4368 34.594 31.4098 34.5494 31.3917C34.5048 31.3737 34.4571 31.3651 34.4091 31.3664C34.3606 31.362 34.3117 31.368 34.2657 31.3842C34.2197 31.4004 34.1776 31.4262 34.1422 31.4601C34.1068 31.494 34.0789 31.5352 34.0603 31.5808C34.0417 31.6265 34.0329 31.6756 34.0345 31.725C34.0287 31.774 34.0338 31.8238 34.0493 31.8707C34.0648 31.9175 34.0905 31.9603 34.1243 31.9958C34.1581 32.0314 34.1993 32.0589 34.2449 32.0764C34.2905 32.0938 34.3393 32.1007 34.3878 32.0967C34.4368 32.1005 34.486 32.0939 34.5323 32.0774C34.5786 32.0609 34.621 32.0347 34.6568 32.0007C34.6926 31.9666 34.721 31.9253 34.7402 31.8795C34.7594 31.8337 34.769 31.7843 34.7683 31.7345H34.7719Z" fill="#040404"/>
<path d="M32.1273 36.2786C31.9412 37.334 31.0931 37.6925 30.3768 38.1419C28.6605 39.2176 26.877 39.3622 24.9581 38.4539C27.4754 38.0487 29.9186 37.7033 32.1273 36.2786Z" fill="#040404"/>
<path d="M33.1722 35.0812C34.6706 34.7609 35.6142 33.7569 36.3104 32.4518C36.6396 31.8444 36.8815 31.1924 37.0289 30.5156L37.4283 30.4116C37.0219 32.9382 35.1265 35.1182 33.1769 35.2605C33.1757 35.2019 33.1746 35.141 33.1722 35.0812Z" fill="#040404"/>
<path d="M33.1722 35.0801C33.1722 35.1399 33.1722 35.1997 33.1722 35.2606C32.7187 35.3407 32.3076 35.2104 31.913 35.0013C31.9024 35.0013 31.8988 34.9666 31.9036 34.9511C31.912 34.9339 31.9236 34.9185 31.9377 34.9057C32.3371 35.0742 32.7588 35.0479 33.1722 35.0801Z" fill="#83068B"/>
<path d="M31.801 13.0472C31.8269 12.9934 31.8588 12.9635 31.9094 13.0221L31.834 13.0807L31.801 13.0472Z" fill="#040404"/>
<path d="M12.3241 34.0338C11.9389 33.9907 11.602 33.8293 11.6044 33.405C11.6068 32.9807 11.9201 32.7811 12.3112 32.7823C12.7023 32.7835 13.018 32.9783 13.0262 33.4002C13.0345 33.8221 12.7035 33.9884 12.3241 34.0338Z" fill="#FEFDFE"/>
<path d="M16.7227 30.5132C17.4528 30.6541 18.1717 30.8491 18.8737 31.0964C18.6063 31.7048 18.6323 32.2916 19.0328 32.8283C19.6453 33.6398 20.51 33.9135 21.47 33.8167C22.4301 33.7199 23.2299 33.3219 23.5904 32.3215L24.3926 32.5127C23.7188 33.4617 22.8459 34.0904 21.9306 34.6641C20.6466 35.2354 19.5511 34.8374 18.584 33.947C17.5827 33.0302 17.0149 31.8482 16.7227 30.5132Z" fill="#FEFDFE"/>
<path d="M23.5952 32.3259C23.23 33.3262 22.4277 33.7245 21.4747 33.8213C20.5218 33.9181 19.65 33.6444 19.0375 32.8329C18.637 32.3022 18.6111 31.7094 18.8785 31.1011C20.4676 31.4238 22.0261 31.8956 23.5952 32.3259ZM19.2366 32.0596C19.4521 32.0297 19.59 31.9186 19.597 31.6867C19.6001 31.6425 19.5942 31.5981 19.5796 31.5564C19.5649 31.5146 19.542 31.4764 19.5121 31.4441C19.4823 31.4118 19.4461 31.3861 19.406 31.3686C19.3659 31.3511 19.3226 31.3422 19.279 31.3425C19.2312 31.3334 19.1819 31.3351 19.1348 31.3473C19.0877 31.3596 19.0438 31.3822 19.0062 31.4135C18.9686 31.4449 18.9382 31.4841 18.9171 31.5287C18.8961 31.5732 18.8849 31.6218 18.8843 31.6712C18.869 31.8959 19.0304 32.0082 19.246 32.0548L19.2366 32.0596Z" fill="#040404"/>
<path d="M16.7227 30.5132C17.0149 31.8446 17.5826 33.0303 18.5886 33.9529C19.5558 34.841 20.6513 35.239 21.9353 34.6701C20.656 35.417 19.1317 35.0621 17.9572 33.7462C17.1962 32.8928 16.7109 31.8912 16.3716 30.8C16.2173 30.3004 16.4518 30.414 16.7227 30.5132Z" fill="#040404"/>
<path d="M34.7683 31.7345C34.7685 31.784 34.7586 31.833 34.7391 31.8784C34.7197 31.9238 34.6912 31.9646 34.6555 31.9983C34.6197 32.0319 34.5775 32.0577 34.5315 32.0741C34.4854 32.0904 34.4365 32.0968 34.3879 32.093C34.3393 32.0971 34.2905 32.0902 34.2449 32.0727C34.1993 32.0553 34.1581 32.0278 34.1243 31.9922C34.0905 31.9566 34.0649 31.9139 34.0493 31.867C34.0338 31.8202 34.0287 31.7704 34.0345 31.7213C34.033 31.672 34.0418 31.6228 34.0603 31.5772C34.0789 31.5315 34.1068 31.4904 34.1422 31.4565C34.1777 31.4226 34.2198 31.3967 34.2658 31.3806C34.3118 31.3644 34.3606 31.3583 34.4091 31.3628C34.4571 31.3619 34.5048 31.371 34.5492 31.3895C34.5936 31.408 34.6339 31.4354 34.6675 31.4702C34.7012 31.505 34.7274 31.5464 34.7448 31.5918C34.7621 31.6372 34.7701 31.6858 34.7683 31.7345Z" fill="#FEFDFE"/>
<path d="M19.246 32.0548C19.0351 32.0082 18.8738 31.8958 18.8926 31.6663C18.8932 31.617 18.9043 31.5683 18.9254 31.5238C18.9464 31.4793 18.9768 31.44 19.0144 31.4087C19.052 31.3774 19.096 31.3548 19.1431 31.3425C19.1902 31.3302 19.2394 31.3286 19.2872 31.3377C19.3309 31.3374 19.3742 31.3463 19.4143 31.3637C19.4544 31.3812 19.4905 31.4069 19.5204 31.4393C19.5502 31.4716 19.5732 31.5098 19.5878 31.5516C19.6024 31.5933 19.6084 31.6377 19.6053 31.6819C19.5994 31.9137 19.4568 32.0249 19.246 32.0548Z" fill="#FEFDFE"/>
</svg>
