<svg width="50" height="50" viewBox="0 0 50 50" fill="none" xmlns="http://www.w3.org/2000/svg">
<rect width="50" height="50" fill="#F5F5F6"/>
<path d="M8.80273 28C9.36915 28 9.84944 28.1123 10.2432 28.3369C10.6403 28.5579 10.9422 28.849 11.1494 29.209C11.3565 29.5653 11.4599 29.9464 11.46 30.3525H10.4658C10.4658 30.0604 10.405 29.8016 10.2842 29.5771C10.1633 29.3492 9.98035 29.1712 9.73535 29.043C9.49014 28.9111 9.17919 28.8447 8.80273 28.8447C8.447 28.8447 8.15328 28.9002 7.92188 29.0107C7.69058 29.1212 7.51825 29.2711 7.4043 29.46C7.29378 29.6489 7.23828 29.865 7.23828 30.1074C7.23834 30.2711 7.27144 30.4204 7.33691 30.5557C7.40594 30.6875 7.51091 30.8108 7.65234 30.9248C7.7974 31.0389 7.98111 31.144 8.20215 31.2402C8.42661 31.3365 8.69412 31.4295 9.00488 31.5186C9.43302 31.6433 9.8025 31.7823 10.1133 31.9355C10.4239 32.0888 10.6796 32.2617 10.8799 32.4541C11.0837 32.643 11.2343 32.8591 11.3311 33.1016C11.4312 33.3403 11.4814 33.6112 11.4814 33.9141C11.4814 34.2313 11.4192 34.5187 11.2949 34.7754C11.1706 35.0321 10.9921 35.2518 10.7607 35.4336C10.5294 35.6153 10.2512 35.7557 9.92676 35.8555C9.60566 35.9517 9.24664 36 8.84961 36C8.50079 36 8.15681 35.9504 7.81836 35.8506C7.48338 35.7508 7.17764 35.601 6.90137 35.4014C6.62852 35.2017 6.40894 34.9554 6.24316 34.6631C6.08094 34.3673 6.00005 34.0251 6 33.6367H6.99512C6.99516 33.9039 7.04448 34.1338 7.14453 34.3262C7.24464 34.515 7.38115 34.6721 7.55371 34.7969C7.72985 34.9217 7.92935 35.0146 8.15039 35.0752C8.37474 35.1322 8.60802 35.1602 8.84961 35.1602C9.19833 35.1601 9.49365 35.1105 9.73535 35.0107C9.977 34.911 10.1599 34.7683 10.2842 34.583C10.412 34.3976 10.4756 34.1779 10.4756 33.9248C10.4756 33.7434 10.4486 33.5832 10.3936 33.4443C10.3417 33.3017 10.248 33.1727 10.1133 33.0586C9.98207 32.9446 9.79916 32.8357 9.56445 32.7324C9.33305 32.629 9.03933 32.5239 8.68359 32.417C8.31071 32.3029 7.97423 32.1761 7.67383 32.0371C7.37335 31.8945 7.1155 31.7326 6.90137 31.5508C6.68726 31.369 6.52315 31.1601 6.40918 30.9248C6.2953 30.6896 6.23828 30.4201 6.23828 30.1172C6.23834 29.8144 6.29913 29.5349 6.41992 29.2783C6.5408 29.0216 6.71301 28.7983 6.9375 28.6094C7.16545 28.4169 7.43669 28.2671 7.75098 28.1602C8.06527 28.0532 8.41592 28 8.80273 28Z" fill="black"/>
<path d="M14.8535 30C15.2921 30 15.6758 30.0929 16.0039 30.2783C16.3318 30.46 16.5889 30.7093 16.7754 31.0264C16.9653 31.3401 17.0696 31.6974 17.0869 32.0967H16.1748C16.1575 31.8578 16.0915 31.6417 15.9775 31.4492C15.8671 31.2569 15.7157 31.1033 15.5225 30.9893C15.3325 30.8716 15.1091 30.8125 14.8535 30.8125C14.5601 30.8125 14.3135 30.874 14.1133 30.9951C13.9165 31.1127 13.759 31.2725 13.6416 31.4756C13.5276 31.6752 13.4444 31.8985 13.3926 32.1445C13.3442 32.3869 13.3203 32.6346 13.3203 32.8877V33.1123C13.3203 33.3654 13.3442 33.6153 13.3926 33.8613C13.4409 34.1072 13.5228 34.3297 13.6367 34.5293C13.7541 34.7288 13.9107 34.8896 14.1074 35.0107C14.3077 35.1284 14.5566 35.1875 14.8535 35.1875C15.0813 35.1875 15.292 35.1391 15.4854 35.043C15.6786 34.9468 15.8376 34.8148 15.9619 34.6475C16.0862 34.4764 16.1575 34.2818 16.1748 34.0645H17.0869C17.0696 34.4066 16.9572 34.7257 16.75 35.0215C16.5463 35.3137 16.2786 35.5506 15.9473 35.7324C15.6157 35.9107 15.2507 36 14.8535 36C14.4322 36 14.0642 35.9238 13.75 35.7705C13.4392 35.6172 13.1799 35.406 12.9727 35.1387C12.7691 34.8715 12.6153 34.5652 12.5117 34.2197C12.4116 33.8704 12.3623 33.5009 12.3623 33.1123V32.8877C12.3623 32.4992 12.4116 32.1319 12.5117 31.7861C12.6153 31.437 12.7691 31.1286 12.9727 30.8613C13.1799 30.594 13.4392 30.3828 13.75 30.2295C14.0642 30.0762 14.4322 30 14.8535 30Z" fill="black"/>
<path fill-rule="evenodd" clip-rule="evenodd" d="M20.3447 30C20.7523 30 21.112 30.0713 21.4229 30.2139C21.7371 30.3565 21.9821 30.5726 22.1582 30.8613C22.3377 31.1464 22.4277 31.5044 22.4277 31.9355V34.6309C22.4277 34.8234 22.4435 35.0286 22.4746 35.2461C22.5091 35.4635 22.5594 35.6508 22.625 35.8076V35.8926H21.625C21.5767 35.7785 21.5383 35.6272 21.5107 35.4385C21.5029 35.3837 21.4978 35.3298 21.4922 35.2773C21.4458 35.3277 21.3973 35.3786 21.3447 35.4277C21.1686 35.5917 20.958 35.7294 20.7129 35.8398C20.4712 35.9467 20.1984 36 19.8945 36C19.5147 36 19.1812 35.9238 18.8945 35.7705C18.6114 35.6172 18.3903 35.4119 18.2314 35.1553C18.076 34.895 17.998 34.6041 17.998 34.2832C17.9981 33.9731 18.0574 33.7001 18.1748 33.4648C18.2922 33.2262 18.4617 33.0288 18.6826 32.8721C18.9036 32.7117 19.1697 32.5898 19.4805 32.5078C19.7912 32.4259 20.1383 32.3848 20.5215 32.3848H21.4697V31.9248C21.4697 31.697 21.4245 31.4994 21.335 31.332C21.2487 31.161 21.1174 31.0282 20.9414 30.9355C20.7653 30.8429 20.5471 30.7969 20.2881 30.7969C20.0466 30.7969 19.8343 30.8394 19.6514 30.9248C19.4719 31.0103 19.3301 31.1229 19.2266 31.2617C19.1265 31.4007 19.0762 31.5506 19.0762 31.7109H18.1172C18.1172 31.5044 18.1691 31.2996 18.2725 31.0967C18.3761 30.8935 18.5254 30.7099 18.7188 30.5459C18.9156 30.3784 19.15 30.2457 19.4229 30.1494C19.699 30.0496 20.0064 30 20.3447 30ZM20.6768 33.0801C20.4039 33.0801 20.1604 33.1031 19.9463 33.1494C19.7322 33.1922 19.5523 33.2585 19.4072 33.3477C19.2623 33.4368 19.1521 33.5492 19.0762 33.6846C19.0002 33.8164 18.962 33.9713 18.9619 34.1494C18.9619 34.3312 19.0016 34.4977 19.0811 34.6475C19.1604 34.797 19.2798 34.9158 19.4385 35.0049C19.6008 35.0904 19.7994 35.1338 20.0342 35.1338C20.3277 35.1338 20.587 35.0697 20.8115 34.9414C21.0359 34.8131 21.2135 34.656 21.3447 34.4707C21.396 34.4001 21.4365 34.3288 21.4697 34.2598V33.0801H20.6768Z" fill="black"/>
<path fill-rule="evenodd" clip-rule="evenodd" d="M37.8662 30C38.2668 30 38.6122 30.0713 38.9023 30.2139C39.1957 30.3564 39.4356 30.556 39.6221 30.8125C39.8085 31.0656 39.9473 31.3652 40.0371 31.7109C40.1269 32.0531 40.1719 32.4277 40.1719 32.834V33.2783H36.3828C36.3889 33.5249 36.4224 33.7583 36.4883 33.9785C36.5642 34.2173 36.6729 34.4276 36.8145 34.6094C36.9595 34.7912 37.1341 34.9337 37.3379 35.0371C37.545 35.1405 37.7796 35.1923 38.042 35.1924C38.3805 35.1924 38.6675 35.1211 38.9023 34.9785C39.1372 34.8359 39.3424 34.6451 39.5186 34.4062L40.0986 34.8828C39.9778 35.0716 39.824 35.2519 39.6377 35.4229C39.4513 35.5938 39.2218 35.733 38.9492 35.8398C38.6798 35.9468 38.3598 36 37.9902 36C37.6002 36 37.2463 35.9322 36.9287 35.7969C36.6144 35.6578 36.3432 35.4634 36.1152 35.2139C35.8907 34.9643 35.7176 34.6684 35.5967 34.3262C35.4758 33.984 35.416 33.6095 35.416 33.2031V32.9785C35.416 32.508 35.4835 32.0889 35.6182 31.7217C35.7528 31.3511 35.9357 31.0369 36.167 30.7803C36.3982 30.5238 36.6608 30.3301 36.9541 30.1982C37.2477 30.0663 37.5519 30 37.8662 30ZM37.8662 30.8125C37.6488 30.8125 37.4486 30.8609 37.2656 30.957C37.0827 31.0497 36.9251 31.1888 36.7939 31.374C36.6627 31.5594 36.5608 31.7863 36.4883 32.0537C36.4532 32.1831 36.4263 32.3221 36.4082 32.4707H39.2129V32.3955C39.1991 32.139 39.1473 31.8897 39.0576 31.6475C38.9713 31.4051 38.8335 31.2047 38.6436 31.0479C38.4536 30.891 38.1943 30.8125 37.8662 30.8125Z" fill="black"/>
<path d="M26.5469 30C26.8228 30 27.0712 30.0389 27.292 30.1172C27.513 30.1921 27.702 30.3139 27.8574 30.4814C28.0162 30.649 28.1369 30.8665 28.2197 31.1338C28.3026 31.3976 28.3437 31.7202 28.3438 32.1016V35.8926H27.3809V32.0908C27.3809 31.7878 27.3373 31.5451 27.251 31.3633C27.1647 31.1782 27.0386 31.0449 26.873 30.9629C26.7073 30.8774 26.5034 30.834 26.2617 30.834C26.0234 30.834 25.8053 30.8859 25.6084 30.9893C25.4152 31.0926 25.248 31.2353 25.1064 31.417C25.0251 31.5241 24.9545 31.641 24.8936 31.7666V35.8926H23.9355V30.1074H24.8418L24.8721 30.8301C24.8831 30.8157 24.893 30.8002 24.9043 30.7861C25.1046 30.5366 25.3429 30.3444 25.6191 30.209C25.8989 30.0699 26.2084 30 26.5469 30Z" fill="black"/>
<path d="M32.4111 30C32.6873 30 32.9362 30.0388 33.1572 30.1172C33.3782 30.1921 33.5663 30.3139 33.7217 30.4814C33.8805 30.649 34.0011 30.8665 34.084 31.1338C34.1669 31.3976 34.209 31.7201 34.209 32.1016V35.8926H33.2451V32.0908C33.2451 31.7878 33.2016 31.5451 33.1152 31.3633C33.0289 31.1782 32.9029 31.0448 32.7373 30.9629C32.5715 30.8773 32.3677 30.834 32.126 30.834C31.8878 30.834 31.6704 30.886 31.4736 30.9893C31.2803 31.0926 31.1123 31.2352 30.9707 31.417C30.8893 31.5241 30.8188 31.641 30.7578 31.7666V35.8926H29.7998V30.1074H30.7061L30.7363 30.8301C30.7473 30.8157 30.7573 30.8002 30.7686 30.7861C30.9688 30.5367 31.2072 30.3444 31.4834 30.209C31.7632 30.0699 32.0727 30 32.4111 30Z" fill="black"/>
<path d="M43.5752 30C43.6442 30 43.7237 30.0086 43.8135 30.0264C43.9033 30.0406 43.9655 30.0574 44 30.0752L43.9951 30.9951C43.9157 30.9773 43.8391 30.9665 43.7666 30.9629C43.6976 30.9558 43.618 30.9521 43.5283 30.9521C43.3075 30.9522 43.1125 30.9874 42.9434 31.0586C42.7741 31.1299 42.6301 31.2301 42.5127 31.3584C42.4035 31.4778 42.3164 31.6197 42.249 31.7822V35.8926H41.29V30.1074H42.2227L42.2412 30.7715L42.3623 30.5898C42.4827 30.4309 42.625 30.302 42.7881 30.2031C43.0091 30.0678 43.2714 30 43.5752 30Z" fill="black"/>
<path d="M9.93945 14C12.0284 14.0003 13.486 15.1322 13.6514 16.8916H12.3896C12.2694 15.7886 11.3369 15.0765 9.93945 15.0762C8.51172 15.0762 7.65354 15.6622 7.65332 16.5977C7.65392 19.2085 13.8617 17.4361 13.8623 21.2197C13.8622 22.9931 12.2384 23.9999 10.0439 24C7.51879 23.9999 6.15034 22.6864 6 20.6895H7.2793C7.41461 22.0439 8.24036 22.9237 10.0439 22.9238C11.5018 22.9238 12.5253 22.4066 12.5254 21.2197C12.5245 18.5951 6.36176 20.2139 6.36133 16.5977C6.36156 15.0478 7.82022 14.0001 9.93945 14Z" fill="black"/>
<path d="M22.1162 21.9453V14.1123H23.3789V23.8877H21.9219L17.0645 16.0664V23.8877H15.7881V14.1123H17.2461L22.1162 21.9453Z" fill="black"/>
<path d="M29.9795 22.0156L32.6543 14.1123H34.293V23.8877H33.0762V16.2617L30.5059 23.8877H29.4521L26.8838 16.2617V23.8877H25.665V14.1123H27.3037L29.9795 22.0156Z" fill="black"/>
<path fill-rule="evenodd" clip-rule="evenodd" d="M40.6475 14.1123C42.7216 14.1123 43.9997 15.2846 44 17.002C44 18.7197 42.7219 19.8936 40.6475 19.8936H37.9727V23.8877H36.6953V14.1123H40.6475ZM37.9727 18.8311H40.6328C42.121 18.8311 42.6768 17.9656 42.6768 17.002C42.6765 16.0386 42.1206 15.1729 40.6328 15.1729H37.9727V18.8311Z" fill="black"/>
</svg>
