<svg width="50" height="50" viewBox="0 0 50 50" fill="none" xmlns="http://www.w3.org/2000/svg">
<path fill-rule="evenodd" clip-rule="evenodd" d="M21.9871 7.73602L21.8852 15.7112L15.0318 11.7668L12.09 13.4812L12.0323 16.9878L18.8215 21.1058L12.0323 25.0483L12 28.5387L15.005 30.2903L21.9524 26.2984L22.0175 34.3232L24.8793 36L28.0148 34.3307L28.0502 26.2984C28.0502 26.2984 32.8501 29.0557 34.9712 30.2817C35.9952 29.7589 36.9759 29.1482 37.9696 28.5692L37.9989 25.047C35.8376 23.8075 33.689 22.5453 31.5262 21.3086C30.9743 20.9927 30.9312 21.0766 31.9419 20.498C33.9669 19.3386 35.9847 18.1667 37.9992 16.9888L38 13.4877C36.9911 12.9304 35.0008 11.7677 35.0008 11.7677L28.0738 15.7373L28.0148 7.74182L25.0314 6L21.9871 7.73602Z" fill="#04ACCC"/>
<path d="M25.377 47V39.5H24.4688V47H25.377Z" fill="#1C1D1F"/>
<path fill-rule="evenodd" clip-rule="evenodd" d="M29.8252 46.5752C29.8739 46.5312 29.9197 46.4866 29.9628 46.4416C29.968 46.4884 29.9742 46.5362 29.9814 46.585C30.0075 46.7575 30.0433 46.8958 30.0889 47H31.0312V46.9219C30.9694 46.7786 30.9222 46.6077 30.8896 46.4092C30.8604 46.2106 30.8457 46.0234 30.8457 45.8477V43.3867C30.8457 42.9928 30.7611 42.6657 30.5918 42.4053C30.4258 42.1416 30.1947 41.9447 29.8984 41.8145C29.6055 41.6842 29.2669 41.6191 28.8828 41.6191C28.5638 41.6191 28.2741 41.6647 28.0137 41.7559C27.7565 41.8438 27.5352 41.9642 27.3496 42.1172C27.1673 42.2669 27.0273 42.4346 26.9297 42.6201C26.832 42.8057 26.7832 42.9928 26.7832 43.1816H27.6865C27.6865 43.0352 27.7337 42.8984 27.8281 42.7715C27.9258 42.6445 28.0592 42.542 28.2285 42.4639C28.401 42.3857 28.6012 42.3467 28.8291 42.3467C29.0732 42.3467 29.2783 42.389 29.4443 42.4736C29.6104 42.5583 29.734 42.6787 29.8154 42.835C29.9001 42.988 29.9424 43.1686 29.9424 43.377V43.7969H29.0488C28.6875 43.7969 28.3604 43.8343 28.0674 43.9092C27.7744 43.984 27.5238 44.0947 27.3154 44.2412C27.1071 44.3844 26.9476 44.5651 26.8369 44.7832C26.7262 44.998 26.6709 45.2471 26.6709 45.5303C26.6709 45.8232 26.7441 46.0885 26.8906 46.3262C27.0404 46.5605 27.2487 46.7477 27.5156 46.8877C27.7858 47.0277 28.0999 47.0977 28.458 47.0977C28.7445 47.0977 29.0016 47.0488 29.2295 46.9512C29.4606 46.8503 29.6592 46.7249 29.8252 46.5752ZM29.8252 45.7012C29.8723 45.6383 29.9114 45.5761 29.9424 45.5146V44.4316H29.1953C28.9382 44.4316 28.7087 44.4528 28.5068 44.4951C28.305 44.5342 28.1357 44.5944 27.999 44.6758C27.8623 44.7572 27.7581 44.8597 27.6865 44.9834C27.6149 45.1038 27.5791 45.2454 27.5791 45.4082C27.5791 45.5742 27.6165 45.7256 27.6914 45.8623C27.7663 45.999 27.8786 46.1081 28.0283 46.1895C28.1813 46.2676 28.3685 46.3066 28.5898 46.3066C28.8665 46.3066 29.1107 46.248 29.3223 46.1309C29.5339 46.0137 29.7015 45.8704 29.8252 45.7012Z" fill="#1C1D1F"/>
<path d="M35.3428 45.5986C35.3428 45.4684 35.3135 45.348 35.2549 45.2373C35.1995 45.1234 35.084 45.0208 34.9082 44.9297C34.7357 44.8353 34.4753 44.7539 34.127 44.6855C33.834 44.6237 33.5687 44.5505 33.3311 44.4658C33.0967 44.3812 32.8965 44.2786 32.7305 44.1582C32.5677 44.0378 32.4424 43.8962 32.3545 43.7334C32.2666 43.5706 32.2227 43.3802 32.2227 43.1621C32.2227 42.9538 32.2682 42.7568 32.3594 42.5713C32.4538 42.3857 32.5856 42.2214 32.7549 42.0781C32.9274 41.9349 33.1341 41.8226 33.375 41.7412C33.6159 41.6598 33.8844 41.6191 34.1807 41.6191C34.6038 41.6191 34.9652 41.694 35.2646 41.8438C35.5641 41.9935 35.7936 42.1937 35.9531 42.4443C36.1126 42.6917 36.1924 42.9668 36.1924 43.2695H35.2891C35.2891 43.123 35.2451 42.9814 35.1572 42.8447C35.0726 42.7048 34.9473 42.5892 34.7812 42.498C34.6185 42.4069 34.4183 42.3613 34.1807 42.3613C33.93 42.3613 33.7266 42.4004 33.5703 42.4785C33.4173 42.5534 33.305 42.6494 33.2334 42.7666C33.165 42.8838 33.1309 43.0075 33.1309 43.1377C33.1309 43.2354 33.1471 43.3232 33.1797 43.4014C33.2155 43.4762 33.2773 43.5462 33.3652 43.6113C33.4531 43.6732 33.5768 43.7318 33.7363 43.7871C33.8958 43.8424 34.0993 43.8978 34.3467 43.9531C34.7796 44.0508 35.1361 44.168 35.416 44.3047C35.696 44.4414 35.9043 44.609 36.041 44.8076C36.1777 45.0062 36.2461 45.2471 36.2461 45.5303C36.2461 45.7614 36.1973 45.973 36.0996 46.165C36.0052 46.3571 35.8669 46.5231 35.6846 46.6631C35.5055 46.7998 35.2907 46.9072 35.04 46.9854C34.7926 47.0602 34.5143 47.0977 34.2051 47.0977C33.7396 47.0977 33.3457 47.0146 33.0234 46.8486C32.7012 46.6826 32.457 46.4678 32.291 46.2041C32.125 45.9404 32.042 45.6621 32.042 45.3691H32.9502C32.9632 45.6165 33.0348 45.8135 33.165 45.96C33.2952 46.1032 33.4548 46.2057 33.6436 46.2676C33.8324 46.3262 34.0195 46.3555 34.2051 46.3555C34.4525 46.3555 34.6592 46.3229 34.8252 46.2578C34.9945 46.1927 35.123 46.1032 35.2109 45.9893C35.2988 45.8753 35.3428 45.7451 35.3428 45.5986Z" fill="#1C1D1F"/>
<path d="M23.3359 41.7168V42.4102H22.3496V45.6914C22.3496 45.8704 22.3773 46.0055 22.4326 46.0967C22.488 46.1878 22.5596 46.248 22.6475 46.2773C22.7354 46.3066 22.8298 46.3213 22.9307 46.3213C23.0055 46.3213 23.0837 46.3148 23.165 46.3018C23.2497 46.2855 23.3132 46.2725 23.3555 46.2627L23.3604 47C23.2887 47.0228 23.1943 47.0439 23.0771 47.0635C22.9632 47.0863 22.8249 47.0977 22.6621 47.0977C22.4408 47.0977 22.2373 47.0537 22.0518 46.9658C21.8662 46.8779 21.7181 46.7314 21.6074 46.5264C21.5 46.318 21.4463 46.0381 21.4463 45.6865V42.4102H20.4795V41.7168H21.4463V40.4326H22.3496V41.7168H23.3359Z" fill="#1C1D1F"/>
<path fill-rule="evenodd" clip-rule="evenodd" d="M17.6768 39.8906L20.3965 47H19.4297L18.7526 45.1396H15.7792L15.1035 47H14.1416L16.8516 39.8906H17.6768ZM16.0595 44.3682L17.2644 41.051L18.4718 44.3682H16.0595Z" fill="#1C1D1F"/>
</svg>
