<svg width="50" height="50" viewBox="0 0 50 50" fill="none" xmlns="http://www.w3.org/2000/svg">
<path d="M37.8605 34.4363L30.2615 30.0462C29.1939 29.4315 27.8288 29.7971 27.2109 30.8647C26.9716 31.2852 26.8776 31.7478 26.9229 32.1975V40.7768C26.9229 42.0029 27.9193 42.9992 29.1486 42.9992C30.3747 42.9992 31.3711 42.0029 31.3711 40.7768V35.8435L35.6284 38.302C36.696 38.9198 38.0644 38.5511 38.679 37.4836C39.2969 36.4161 38.9314 35.0508 37.8605 34.4362V34.4363ZM18.9615 25.0288C18.9678 24.6395 18.87 24.2556 18.6784 23.9167C18.4867 23.5778 18.2081 23.2961 17.8713 23.1008L10.2722 18.714C9.94163 18.5235 9.56683 18.4232 9.18527 18.4229C8.40564 18.4229 7.68099 18.8402 7.29283 19.5131C6.69108 20.5548 7.05018 21.8908 8.09184 22.4925L12.4721 25.0191L8.09193 27.5489C7.58724 27.8401 7.22484 28.3091 7.0761 28.872C6.92405 29.4349 7.00165 30.0237 7.29283 30.5284C7.68099 31.2013 8.40564 31.6186 9.18204 31.6186C9.56383 31.6186 9.9423 31.5183 10.2722 31.3274L17.8713 26.9407C18.2054 26.7463 18.4822 26.4672 18.6737 26.1314C18.8651 25.7957 18.9644 25.4153 18.9615 25.0288ZM11.9966 15.6051L19.5957 19.9919C20.482 20.5061 21.5755 20.338 22.2742 19.6554C22.7174 19.2478 22.9924 18.6655 22.9924 18.0185V9.2257C22.9924 7.99637 21.996 7 20.7699 7C19.5407 7 18.5442 7.99637 18.5442 9.2257V14.2303L14.2286 11.7393C13.1611 11.1215 11.796 11.487 11.1781 12.5545C10.5602 13.622 10.929 14.9873 11.9966 15.6051ZM29.0839 25.3846C29.0839 25.5528 28.9869 25.7858 28.8672 25.9087L25.8554 28.9205C25.7357 29.0402 25.4996 29.1373 25.3313 29.1373H24.5647C24.3964 29.1373 24.1603 29.0402 24.0405 28.9206L21.0255 25.9087C20.9058 25.7858 20.8088 25.5528 20.8088 25.3846V24.6179C20.8088 24.4465 20.9058 24.2136 21.0255 24.0938L24.0405 21.0788C24.1603 20.9592 24.3964 20.8621 24.5647 20.8621H25.3313C25.4996 20.8621 25.7357 20.9592 25.8554 21.0788L28.8672 24.0938C28.9869 24.2136 29.084 24.4465 29.084 24.6179L29.0839 25.3846ZM26.3957 25.0158V24.9835C26.3957 24.8606 26.3244 24.6891 26.2371 24.5985L25.3475 23.7121C25.2602 23.6215 25.0887 23.5504 24.9625 23.5504H24.9302C24.8072 23.5504 24.6358 23.6216 24.5452 23.7121L23.6588 24.5985C23.5714 24.6859 23.5003 24.8573 23.5003 24.9835V25.0158C23.5003 25.142 23.5715 25.3135 23.6588 25.4008L24.5452 26.2905C24.6358 26.3778 24.8072 26.449 24.9302 26.449H24.9625C25.0887 26.449 25.2602 26.3778 25.3475 26.2905L26.2371 25.4008C26.3245 25.3135 26.3957 25.142 26.3957 25.0158ZM30.2615 19.9919L37.8605 15.6051C38.9281 14.9905 39.2969 13.6221 38.679 12.5545C38.0612 11.487 36.696 11.1215 35.6284 11.7393L31.3711 14.1979V9.2257C31.3711 7.99637 30.3747 7 29.1486 7C27.9193 7 26.9229 7.99637 26.9229 9.2257V17.8438C26.8809 18.2902 26.9682 18.7561 27.2109 19.1766C27.8287 20.2441 29.1939 20.6098 30.2615 19.9919ZM21.1193 29.7875C20.6146 29.6904 20.0744 29.7713 19.5957 30.0463L11.9966 34.4363C10.9291 35.051 10.5602 36.4161 11.1781 37.4837C11.7959 38.5545 13.1611 38.9201 14.2287 38.3022L18.5443 35.8112V40.7769C18.5443 42.003 19.5406 42.9995 20.7699 42.9995C21.996 42.9995 22.9924 42.003 22.9924 40.777V31.9841C22.9924 30.8745 22.1804 29.9558 21.1193 29.7875ZM42.6096 19.4872C41.9949 18.4164 40.6265 18.0509 39.5589 18.6687L31.9599 23.0555C31.232 23.476 30.8309 24.2459 30.8438 25.0288C30.8374 25.8084 31.2385 26.5687 31.9599 26.9827L39.5589 31.3727C40.6265 31.9874 41.9917 31.6218 42.6096 30.5542C43.2275 29.4867 42.8587 28.1215 41.7911 27.5036L37.4885 25.0191L41.7911 22.5346C42.8619 21.9199 43.2275 20.5548 42.6096 19.4872Z" fill="#29B5E8"/>
</svg>
