<svg width="50" height="50" viewBox="0 0 50 50" fill="none" xmlns="http://www.w3.org/2000/svg">
<path d="M35.0942 11.3917C34.1107 8.36178 31.8746 4.1042 31.5559 3.50489L31.2785 2.98105C31.0973 2.62182 30.9126 2.26437 30.7243 1.90875L29.7167 0.00683594L28.2733 10.1936L28.2231 10.5641C27.0765 10.4996 25.9283 10.4675 24.78 10.4679C23.5579 10.4679 22.4022 10.5034 21.3167 10.5652L21.2721 10.1934L20.7656 6.6226C20.7663 6.61665 19.8266 0.00683594 19.8266 0.00683594L18.7978 1.90875C18.5457 2.38326 18.2992 2.86068 18.0584 3.34089L17.9696 3.50489C17.6502 4.10477 15.3927 8.36991 14.403 11.4002C11.5478 11.948 10 12.5339 10 12.5339V37.2961L24.7599 47.9148L39.52 37.2962V12.5339C39.52 12.5339 37.9673 11.9418 35.0942 11.3917Z" fill="white"/>
<path d="M31.1106 30.6168H24.7485V19.7976L18.2929 30.3004L17.2894 41.0855L24.6492 46.4244L24.7485 46.4967L32.2753 41.047L31.1106 30.6168Z" fill="#3B3B63"/>
<path d="M24.6394 46.3857L10.9433 36.524V13.5278C10.9433 13.5278 16.0076 11.6091 24.6581 11.6091C33.3088 11.6091 38.336 13.5278 38.336 13.5278V36.524L24.6394 46.3857Z" fill="#DBDBDB"/>
<path d="M24.8378 11.6091L24.819 11.6093V46.3851L38.5158 36.5235V13.5278C38.5158 13.5278 33.4884 11.6091 24.8378 11.6091Z" fill="#C6C6C6"/>
<path d="M32.2377 41.0248L31.0753 30.6167H24.7129V46.4725L32.2377 41.0248Z" fill="#3B3B63"/>
<path d="M17.2894 41.0855L24.7485 46.4967V19.7976L18.2929 30.3004L17.2894 41.0855Z" fill="#53537A"/>
<path d="M27.9588 38.0111C27.9588 39.7956 26.3081 40.6802 24.7938 40.6802C23.2795 40.6802 21.5955 39.7956 21.5955 38.0111" fill="#BC9375"/>
<path d="M27.0307 36.9998C27.0307 39.0926 25.9149 39.6537 24.7771 39.6537C23.6394 39.6537 22.5232 39.0925 22.5232 36.9998" fill="#073251"/>
<path d="M24.777 38.9339C23.5612 38.9339 22.9701 38.0332 22.9701 36.1818H23.5498C23.5498 38.3493 24.3784 38.3493 24.777 38.3493C25.1754 38.3493 26.0041 38.3493 26.0041 36.1818H26.5837C26.5837 38.0332 25.9925 38.9339 24.777 38.9339Z" fill="white"/>
<path d="M34.4269 14.8519C34.4269 12.5942 30.6481 5.49064 30.6481 5.49064L29.3699 14.4995L28.2226 16.4014L24.7841 16.5426L24.7705 16.5706V16.5426L21.3315 16.4014L20.1846 14.4995L18.9064 5.49053C18.9064 5.49053 15.1273 12.5942 15.1273 14.8519L16.7238 19.1901C16.7238 19.1901 15.9181 26.4769 16.2859 27.4309C16.6526 28.3851 19.1999 31.5761 19.1999 31.5761C19.1999 31.5761 19.1923 34.2588 19.8897 36.1874C20.3872 37.5646 21.4835 38.1233 22.5332 38.1233C24.1411 38.1233 24.7703 36.6338 24.7703 36.6338C24.7703 36.6338 25.4143 38.1233 27.0223 38.1233C28.0717 38.1233 29.1669 37.5656 29.6656 36.1874C30.3622 34.2596 30.3552 31.5761 30.3552 31.5761C30.3552 31.5761 32.9019 28.3851 33.2693 27.4309C33.6369 26.4767 32.8311 19.19 32.8311 19.19L34.4269 14.8519Z" fill="#C49A7E"/>
<path d="M24.777 16.5571L24.7705 16.5706V16.5426L21.3315 16.4014L20.1846 14.4995L18.9064 5.49053C18.9064 5.49053 15.1273 12.5942 15.1273 14.8519L16.7238 19.1901C16.7238 19.1901 15.9181 26.4769 16.2859 27.4309C16.6534 28.3851 19.1987 31.5763 19.1987 31.5763C19.1987 31.5763 19.1931 34.2588 19.8897 36.1874C20.3879 37.5646 21.4835 38.1235 22.5322 38.1235C24.1409 38.1235 24.7703 36.6338 24.7703 36.6338C24.7703 36.6338 24.7728 36.6393 24.7772 36.649L24.777 16.5571Z" fill="#D8B7A0"/>
<path d="M32.8654 19.617C32.5725 18.9982 32.9889 17.5337 32.9889 17.5337C30.6027 15.064 30.0059 9.91394 30.0059 9.91394C29.5603 11.5368 28.5919 16.3215 28.5919 16.3215C28.5919 16.3215 26.8109 15.6518 24.7849 15.6485H24.7698C24.6585 15.6491 24.5489 15.652 24.4393 15.6554V35.8453L24.5906 36.0689V35.9584H24.6841H24.8698H24.9643V36.0689L26.6138 33.6369L26.9724 26.8074L29.0261 29.1728L31.6718 29.9532C31.6718 29.9532 32.6617 29.2407 32.6617 29.2434C33.082 28.6492 33.2214 28.143 33.323 27.8804C33.6905 26.9248 32.8654 19.617 32.8654 19.617Z" fill="#3B3B63"/>
<path d="M24.7955 15.6483L24.7885 15.6481C22.7616 15.6515 20.9804 16.321 20.9804 16.321C20.9804 16.321 20.0118 11.5365 19.5666 9.91359C19.5666 9.91359 18.9702 15.0637 16.5834 17.5334C16.5834 17.5334 16.9998 18.998 16.707 19.6166C16.707 19.6166 15.8819 26.9248 16.2495 27.8789C16.351 28.1417 16.4914 28.6476 16.9111 29.2418C16.9111 29.2391 17.9014 29.9518 17.9014 29.9518L20.5467 29.1713L22.6 26.8063L22.9595 33.6357L24.6081 36.0678V35.9573H24.7027H24.7952L24.7955 15.6483Z" fill="#53537A"/>
<path d="M29.5778 24.1881H26.4868V24.221C26.4868 25.3098 27.4203 26.1917 28.515 26.1917C29.61 26.1917 30.5434 25.3095 30.5434 24.221V24.1881H29.5778Z" fill="#333152"/>
<path d="M27.2595 24.1881V24.221C27.2595 24.8686 27.7763 25.3934 28.4189 25.3934C29.0611 25.3934 29.5777 24.8686 29.5777 24.221L29.5778 24.1881H27.2595Z" fill="white"/>
<path d="M28.7763 24.1881H28.2332C28.2279 24.1881 28.2234 24.1907 28.2187 24.1918C28.286 24.206 28.3234 24.3601 28.3089 24.4626C28.2987 24.5363 28.2623 24.6039 28.2061 24.6532C28.15 24.7024 28.0779 24.7299 28.003 24.7307C28.0472 24.9357 28.2128 25.1003 28.4328 25.1316C28.7138 25.1717 28.9735 24.9773 29.0134 24.6941C29.042 24.4856 28.9425 24.1881 28.7763 24.1881ZM22.1166 24.1881H19.026V24.221C19.026 25.3098 19.9594 26.1917 21.0541 26.1917C22.1492 26.1917 23.0827 25.3095 23.0827 24.221V24.1881H22.1166Z" fill="#333152"/>
<path d="M19.7988 24.1881V24.221C19.7988 24.8686 20.316 25.3934 20.9576 25.3934C21.6002 25.3934 22.1168 24.8686 22.1168 24.221L22.1166 24.1881H19.7988Z" fill="white"/>
<path d="M21.3156 24.1881H20.7719C20.7672 24.1881 20.7621 24.1907 20.7577 24.1918C20.825 24.206 20.8621 24.3601 20.8479 24.4626C20.826 24.6193 20.6944 24.7281 20.5418 24.7307C20.5865 24.9357 20.7521 25.1003 20.9716 25.1316C21.2526 25.1717 21.5128 24.9773 21.5521 24.6941C21.5812 24.4857 21.4817 24.1881 21.3156 24.1881Z" fill="#333152"/>
<path d="M29.3446 23.2589C29.4743 23.1155 30.5761 21.8548 29.1024 21.8548C27.771 21.8548 26.813 22.9382 26.5591 23.2589H29.3446Z" fill="#C49A7E"/>
<path d="M22.9886 23.2589C22.7349 22.9382 21.7769 21.8548 20.4449 21.8548C18.9721 21.8548 20.0739 23.1155 20.203 23.2589H22.9886Z" fill="#D8B7A0"/>
<path d="M18.3151 24.1765H23.9518V23.642H18.3151V24.1765Z" fill="#53537A"/>
<path d="M32.9675 16.5974C31.3286 14.2739 30.8144 10.4966 30.7698 10.1515L31.0688 8.04592C32.2858 10.5433 33.5626 13.507 33.6502 14.7439L32.9675 16.5974ZM32.5489 27.1672C32.3252 27.7472 30.7794 29.8193 29.7527 31.1058L29.5815 31.3214L29.5823 31.5967C29.5823 31.6216 29.5815 34.1614 28.9392 35.9388C28.4748 37.2234 27.4433 37.3624 27.022 37.3624C25.9551 37.3624 25.4947 36.3761 25.4785 36.3405L25.4175 35.4167H24.1206L24.062 36.3352C24.0436 36.377 23.5944 37.3597 22.533 37.3597C22.1106 37.3597 21.0795 37.2224 20.6148 35.9378C19.9745 34.1667 19.9715 31.6216 19.9715 31.5957L19.9725 31.3205L19.8012 31.1058C18.7751 29.8202 17.2293 27.7481 17.011 27.1822C16.8365 26.5702 17.1246 22.6121 17.4913 19.2954L17.5115 19.1113L17.2221 18.3259C18.2161 17.275 18.9138 15.8288 19.3949 14.4521L19.4417 14.7872L21.0204 17.4033L21.6374 17.1362C21.6528 17.1296 23.2345 16.4509 24.7705 16.4509C26.2968 16.4509 27.9047 17.1302 27.9197 17.1369L28.5356 17.4016L30.1125 14.7866L30.1743 14.35C30.6505 15.7403 31.3472 17.2123 32.346 18.2865L32.043 19.1108L32.0632 19.2947C32.4297 22.6121 32.7177 26.5702 32.5489 27.1672ZM23.8151 38.6478C24.012 38.5599 24.1987 38.4512 24.3722 38.3237C24.5224 38.368 24.6664 38.368 24.777 38.368C24.887 38.368 25.0295 38.3692 25.1786 38.3245C25.3526 38.4513 25.5396 38.5597 25.7364 38.6478C25.4775 38.8429 25.1588 38.9527 24.7778 38.9527C24.3946 38.9527 24.0744 38.8439 23.8151 38.6478ZM24.7938 40.3096C23.9456 40.3096 22.7394 39.9282 22.4393 38.9172C22.47 38.9181 22.5002 38.9207 22.5316 38.9207C22.6955 38.9207 22.8492 38.9056 22.9977 38.8843C23.4279 39.4883 24.0981 39.6736 24.7772 39.6736C25.4573 39.6736 26.1289 39.49 26.5599 38.885C26.7075 38.9054 26.8594 38.9207 27.022 38.9207C27.0539 38.9207 27.0846 38.9181 27.1165 38.9173C26.8194 39.9281 25.6294 40.3096 24.7938 40.3096ZM15.9047 14.7436C15.9923 13.5067 17.2683 10.5431 18.4855 8.04558L18.81 10.3292C18.6863 11.183 18.1208 14.5315 16.6038 16.6422L15.9047 14.7436ZM35.1801 14.8705C35.1801 12.4858 31.715 5.88598 31.3191 5.14111L30.2113 3.05L28.6244 14.2499L27.8919 15.4663C27.1848 15.227 25.9814 14.8927 24.7696 14.8927C23.5591 14.8927 22.3638 15.2257 21.6597 15.4655L20.9269 14.2496L20.37 10.3237C20.3706 10.3172 20.3716 10.3085 20.3716 10.3045L20.3673 10.3039L19.3376 3.05L18.2063 5.14123C17.8099 5.88587 14.3171 12.4858 14.3171 14.8705V15.0104L15.9165 19.3064C15.6607 21.6486 15.1725 26.7365 15.556 27.7309C15.7949 28.3528 16.7147 29.6366 17.4926 30.6655L16.4448 40.5132L17.8874 41.5396L18.6498 34.376C18.7594 35.0727 18.921 35.8084 19.161 36.473C19.492 37.3888 20.0766 38.082 20.8251 38.4934C20.8696 40.6859 22.8901 41.8682 24.7938 41.8682C26.6817 41.8682 28.6856 40.685 28.7294 38.4917C29.4762 38.0811 30.0602 37.3878 30.3907 36.473C30.6406 35.7818 30.8045 35.012 30.9136 34.2913L31.6805 41.4806L33.1232 40.4178L32.078 30.6359C32.8498 29.6114 33.7523 28.3465 33.9889 27.7315C34.3724 26.7374 33.8644 21.6486 33.609 19.3067L35.1799 15.0102L35.1801 14.8705Z" fill="#333152"/>
<path d="M26.5959 32.7406H22.9701C22.9701 32.7406 22.4825 33.5976 22.4825 33.8758C22.4825 34.7015 24.7141 36.0165 24.7141 36.0165C24.7141 36.0165 27.0714 34.6625 27.0714 33.8758C27.0714 33.5005 26.5959 32.7406 26.5959 32.7406Z" fill="#333152"/>
<path d="M25.897 35.2581C25.6947 34.8965 25.4338 34.8306 25.314 35.1092C25.1945 35.3884 25.2628 35.9077 25.465 36.2684C25.6674 36.6302 25.9286 36.6962 26.0477 36.4172C26.1676 36.1383 26.0995 35.6188 25.897 35.2581Z" fill="#C49A7E"/>
<path d="M23.6569 35.2581C23.4543 35.6188 23.387 36.1383 23.5062 36.4171C23.6255 36.6962 23.8863 36.6301 24.0894 36.2684C24.2916 35.9077 24.3593 35.3884 24.2396 35.1093C24.1204 34.8306 23.8595 34.8965 23.6569 35.2581Z" fill="#D8B7A0"/>
</svg>
