<svg width="50" height="50" viewBox="0 0 50 50" fill="none" xmlns="http://www.w3.org/2000/svg">
<rect width="50" height="50" fill="#F99D1C"/>
<path d="M23.3084 24.5639C23.439 24.5203 23.5261 24.5203 23.6132 24.4768C26.008 23.7801 28.3157 22.8657 30.6669 21.9078C32.9311 20.9499 35.1517 19.8179 37.1546 18.2068C39.1575 16.5522 40.7685 14.4187 41.6829 11.8062C41.8135 11.4579 42.0748 10.8919 42.0748 10.5C38.9398 14.8106 26.4434 15.246 26.4434 15.246L29.4042 12.5464C17.561 12.59 9.2881 17.5972 5.5 20.2968C10.3331 20.8193 14.7308 22.8657 18.1705 25.9572C19.8687 25.4347 21.6103 25.0428 23.3084 24.5639ZM42.8585 24.1284C42.8585 24.1284 31.3636 23.2576 19.3897 27.0893C20.9572 28.7438 22.307 30.6597 23.352 32.7061C29.6219 29.2663 38.3737 24.7816 42.8585 24.1284V24.1284ZM24.1357 34.5348C24.8759 36.4071 25.3549 38.41 25.5726 40.5L36.545 29.2228L24.1357 34.5348Z" fill="white"/>
</svg>
