<svg width="50" height="50" viewBox="0 0 50 50" fill="none" xmlns="http://www.w3.org/2000/svg">
<path d="M25.6009 32.412C25.5778 32.7996 25.5778 33.1882 25.6009 33.5759C25.6304 33.6519 25.6766 33.721 25.7364 33.7783C25.7963 33.8357 25.8683 33.8801 25.9475 33.9084C26.3814 34.0527 26.7757 34.2892 27.1011 34.6001C27.4264 34.911 27.6744 35.2884 27.8264 35.7041C27.972 36.1065 28.1731 36.1264 28.5198 36.1264H36.7357C36.8882 36.1264 37.0373 36.1264 37.1863 36.1264C37.6023 36.1563 37.9421 36.3725 37.8485 36.7682C37.7946 36.9072 37.7066 37.0318 37.5919 37.1313C37.4773 37.2309 37.3394 37.3025 37.1898 37.3402C36.3855 37.4133 35.5674 37.3701 34.7632 37.3701C32.6832 37.3701 30.6032 37.3701 28.544 37.3701C28.4216 37.375 28.3018 37.4058 28.1933 37.4605C28.0848 37.5151 27.9903 37.5921 27.9166 37.686C27.192 39.1591 26.2873 39.7378 24.6822 39.6812C23.4724 39.6413 22.4462 38.7967 21.9089 37.3535H17.6796C16.1405 37.3535 14.6013 37.3535 13.0656 37.3535C12.5629 37.3535 12.1469 37.2138 12.14 36.7416C12.14 36.2162 12.5733 36.0765 13.0898 36.0932C15.7834 36.0932 18.4735 36.0932 21.1671 36.0932H21.8916C22.2382 35.0124 22.89 34.201 24.0548 33.8519C24.1588 33.8219 24.2593 33.6124 24.2732 33.4794C24.3044 33.1469 24.2732 32.7877 24.2732 32.3654H23.5486C20.082 32.3654 16.6154 32.3654 13.1488 32.3654C12.597 32.3711 12.0469 32.3074 11.5125 32.1759C10.2749 31.8433 9.65093 31.002 9.64746 29.7783C9.64746 27.8097 9.64746 25.8411 9.64746 23.8725C9.64746 22.4658 10.2021 21.9105 11.672 21.844C11.7968 21.844 11.9285 21.844 12.0568 21.844C20.7742 21.844 29.4939 21.844 38.2159 21.844C38.5136 21.8429 38.8107 21.8685 39.1034 21.9205C39.9666 22.0734 40.2994 22.4625 40.3028 23.3038C40.3028 25.4143 40.3028 27.5259 40.3028 29.6386C40.2986 30.2876 40.0511 30.9135 39.6056 31.4019C39.16 31.8903 38.5462 32.2087 37.8762 32.2989C37.4517 32.3477 37.0246 32.3732 36.597 32.3754H25.6009V32.412ZM38.982 23.2672C38.8226 23.2506 38.7359 23.2307 38.6354 23.2307C29.6406 23.2307 20.6436 23.2307 11.6442 23.2307C11.2109 23.2307 11.0237 23.3604 11.0237 23.786C11.0237 25.7546 10.9856 27.7232 11.0237 29.6885C11.0445 30.7294 11.5056 31.1084 12.5941 31.1084C20.7776 31.1084 28.9623 31.1084 37.1482 31.1084C38.3754 31.1084 39.0063 30.4966 39.0098 29.3327C39.0098 27.5304 39.0098 25.7247 39.0098 23.9223C39.0236 23.7128 38.9994 23.5133 38.982 23.2672ZM23.2262 36.7084C23.2107 36.9279 23.2408 37.1481 23.3147 37.3564C23.3886 37.5647 23.5049 37.7568 23.6567 37.9217C23.8086 38.0865 23.9931 38.2208 24.1995 38.3168C24.4058 38.4128 24.63 38.4685 24.859 38.4808C25.3313 38.4945 25.7905 38.3308 26.1388 38.0246C26.4872 37.7184 26.6972 37.2939 26.7241 36.8414C26.7424 36.3964 26.5758 35.9627 26.2608 35.6356C25.9459 35.3085 25.5083 35.1149 25.0445 35.0972C24.5806 35.0796 24.1285 35.2394 23.7875 35.5416C23.4465 35.8437 23.2446 36.2634 23.2262 36.7084Z" fill="#039EFE"/>
<path d="M25.1496 20.7765C20.68 20.7765 16.2126 20.7765 11.7476 20.7765C10.1842 20.7765 9.66764 20.2511 9.66764 18.7248V13.1249C9.66764 11.3591 10.7527 10.3149 12.6143 10.3149C17.0053 10.3149 21.4079 10.3149 25.8221 10.3149C29.5869 10.3149 33.3482 10.3382 37.1094 10.3149C38.8705 10.3149 40.4478 11.4954 40.3473 13.3975C40.2467 15.2997 40.323 17.2949 40.323 19.2402C40.323 20.3376 39.8793 20.7832 38.7492 20.7832C34.2194 20.7832 29.6874 20.7832 25.1531 20.7832L25.1496 20.7765ZM25.0733 19.5262C29.4551 19.5262 33.837 19.5262 38.2188 19.5262C38.8774 19.5262 39.0542 19.34 39.0404 18.7248C38.9988 17.0022 39.0404 15.2797 39.0404 13.5572C39.0404 12.1638 38.4926 11.6451 37.0228 11.6451H13.6057C13.3921 11.6568 13.178 11.6568 12.9644 11.6451C11.654 11.5021 11.0266 11.9776 11.0023 13.2479C10.9676 15.0104 10.978 16.7728 11.0023 18.5386C11.0023 19.5362 11.0439 19.5362 12.1151 19.5362L25.0733 19.5262Z" fill="#009DFE"/>
<path d="M38.982 23.2672C38.982 23.5133 39.0236 23.7127 39.0236 23.9156C39.0236 25.7179 39.0236 27.5236 39.0236 29.3259C39.0236 30.4898 38.3892 31.1017 37.162 31.1017C28.9762 31.1017 20.7915 31.1017 12.6079 31.1017C11.5194 31.1017 11.0584 30.7226 11.0376 29.6818C11.0029 27.7165 11.0376 25.7479 11.0376 23.7792C11.0376 23.3536 11.2248 23.2239 11.6581 23.2239C20.6528 23.2239 29.6499 23.2239 38.6492 23.2239C38.7463 23.2306 38.8226 23.2506 38.982 23.2672ZM13.329 25.2624L13.2111 25.4087C13.1834 26.5692 13.1383 27.7364 13.1522 28.8903C13.1522 29.0466 13.4399 29.3393 13.5821 29.3326C13.8414 29.2672 14.085 29.1542 14.2996 29.0001C14.3239 27.8561 14.362 26.7122 14.362 25.5683C14.362 25.4386 14.1471 25.3056 14.0154 25.1726L13.6341 25.0961L13.3255 25.2391L13.329 25.2624ZM34.8221 29.4124C35.1221 29.4111 35.4189 29.3531 35.6955 29.2418C35.9722 29.1304 36.2232 28.9679 36.4344 28.7635C36.6456 28.5591 36.8127 28.3168 36.9263 28.0504C37.0398 27.784 37.0975 27.4988 37.0962 27.211C37.0948 26.9232 37.0344 26.6385 36.9183 26.3732C36.8022 26.1078 36.6328 25.8669 36.4197 25.6644C36.2066 25.4618 35.954 25.3015 35.6763 25.1926C35.3986 25.0837 35.1013 25.0283 34.8013 25.0296C34.5013 25.0309 34.2045 25.0889 33.9278 25.2002C33.6512 25.3116 33.4001 25.4741 33.1889 25.6785C32.9778 25.8829 32.8106 26.1252 32.6971 26.3916C32.5835 26.658 32.5258 26.9432 32.5272 27.231C32.5285 27.5188 32.589 27.8035 32.705 28.0688C32.8211 28.3342 32.9905 28.575 33.2036 28.7776C33.4167 28.9802 33.6693 29.1405 33.947 29.2494C34.2247 29.3583 34.5221 29.4137 34.8221 29.4124ZM18.3313 27.2809C18.3619 26.7509 18.3492 26.2194 18.2932 25.6913C18.2546 25.5583 18.1816 25.4367 18.081 25.3379C17.9804 25.2391 17.8555 25.1662 17.7177 25.126C17.5787 25.1559 17.4503 25.2201 17.3451 25.3123C17.2399 25.4044 17.1616 25.5213 17.118 25.6514C17.0556 26.6956 17.0764 27.7431 17.0903 28.7872C17.0903 29.1763 17.3607 29.4523 17.7489 29.3526C17.8822 29.3005 18.0012 29.2197 18.0968 29.1165C18.1923 29.0133 18.2619 28.8904 18.3001 28.7573C18.3447 28.2707 18.3482 27.7813 18.3105 27.2942L18.3313 27.2809Z" fill="#FCFDFE"/>
<path d="M23.2262 36.7084C23.2446 36.2634 23.4465 35.8437 23.7875 35.5416C24.1285 35.2394 24.5806 35.0796 25.0445 35.0972C25.5083 35.1149 25.9459 35.3085 26.2608 35.6356C26.5758 35.9627 26.7424 36.3964 26.7241 36.8414C26.6972 37.2939 26.4872 37.7184 26.1388 38.0246C25.7905 38.3308 25.3313 38.4945 24.859 38.4808C24.63 38.4685 24.4058 38.4128 24.1995 38.3168C23.9931 38.2208 23.8086 38.0865 23.6567 37.9217C23.5049 37.7568 23.3886 37.5647 23.3147 37.3564C23.2408 37.1481 23.2107 36.9279 23.2262 36.7084Z" fill="#FBFDFE"/>
<path d="M25.0733 19.5262L12.119 19.5261C11.0478 19.5261 11.02 19.5261 11.0062 18.5285C10.9784 16.7628 10.968 15.0003 11.0062 13.2379C11.0304 11.9676 11.6579 11.4921 12.9683 11.6351C13.1819 11.6467 13.396 11.6467 13.6096 11.6351H37.0128C38.4826 11.6351 39.0304 12.1538 39.0304 13.5472C39.0304 15.2697 39.0026 16.9922 39.0304 18.7148C39.0304 19.33 38.8674 19.5195 38.2088 19.5162C33.8374 19.5095 29.4551 19.5262 25.0733 19.5262ZM13.3323 17.491L13.776 17.644L13.9043 17.6107C14.0568 17.4644 14.3411 17.3181 14.3445 17.1718C14.3445 16.0279 14.3133 14.8806 14.2891 13.7367C14.0817 13.5852 13.8465 13.4724 13.5957 13.4042C13.4571 13.4042 13.1624 13.6768 13.1624 13.8298C13.1624 14.997 13.1936 16.1576 13.2179 17.3314L13.3323 17.491ZM34.7317 17.7205C35.0365 17.7262 35.3393 17.6738 35.6227 17.5662C35.9061 17.4586 36.1644 17.298 36.3824 17.0937C36.6005 16.8895 36.7741 16.6457 36.893 16.3765C37.0119 16.1073 37.0739 15.8181 37.0752 15.5257C37.0653 14.946 36.8207 14.3928 36.3929 13.9831C35.9652 13.5734 35.3881 13.3396 34.7837 13.331C34.1787 13.3301 33.5977 13.5584 33.1673 13.9664C32.7369 14.3743 32.4918 14.9287 32.4854 15.5091C32.4812 15.7954 32.5362 16.0796 32.647 16.3455C32.7578 16.6113 32.9224 16.8535 33.1312 17.0581C33.3399 17.2627 33.5888 17.4256 33.8635 17.5376C34.1382 17.6496 34.4333 17.7083 34.7317 17.7105V17.7205ZM18.3103 15.5158C18.3103 15.0236 18.3103 14.5182 18.3103 14.0393C18.3103 13.6602 18.1335 13.3942 17.7106 13.3742C17.6242 13.3644 17.5367 13.3737 17.4546 13.4012C17.3725 13.4288 17.298 13.4739 17.2369 13.5333C17.1757 13.5926 17.1294 13.6645 17.1016 13.7435C17.0738 13.8226 17.0651 13.9067 17.0762 13.9894C17.0762 15.0136 17.0762 16.039 17.0762 17.0654C17.0762 17.4578 17.357 17.7305 17.7314 17.6373C17.8671 17.5882 17.9887 17.509 18.0863 17.4061C18.1839 17.3032 18.2547 17.1796 18.293 17.0454C18.342 16.5368 18.3478 16.0253 18.3103 15.5158Z" fill="#FCFDFE"/>
<path d="M34.8014 29.4259C34.3495 29.4278 33.9072 29.3012 33.5304 29.0621C33.1536 28.8229 32.8592 28.482 32.6844 28.0823C32.5096 27.6826 32.4622 27.2422 32.5484 26.8167C32.6345 26.3913 32.8502 25.9998 33.1683 25.692C33.4863 25.3841 33.8924 25.1736 34.3351 25.0871C34.7778 25.0006 35.2374 25.042 35.6556 25.2061C36.0738 25.3701 36.4319 25.6494 36.6847 26.0087C36.9374 26.368 37.0734 26.7911 37.0755 27.2245C37.0773 27.5124 37.0199 27.7978 36.9065 28.0644C36.7931 28.3309 36.626 28.5734 36.4147 28.7779C36.2035 28.9824 35.9522 29.1449 35.6754 29.2561C35.3985 29.3673 35.1015 29.425 34.8014 29.4259ZM34.7459 26.2834C34.6124 26.2855 34.4806 26.3132 34.3584 26.3647C34.2361 26.4162 34.1257 26.4905 34.0338 26.5834C33.9418 26.6763 33.87 26.7858 33.8227 26.9056C33.7753 27.0254 33.7533 27.153 33.7579 27.281C33.7622 27.5376 33.8695 27.7827 34.0574 27.9654C34.2452 28.1481 34.4993 28.2543 34.7667 28.262C35.0341 28.2527 35.2885 28.1486 35.4806 27.9699C35.6727 27.7911 35.7888 27.5504 35.8067 27.2943C35.8086 27.1605 35.7824 27.0277 35.7296 26.9038C35.6769 26.7799 35.5987 26.6674 35.4998 26.5731C35.4008 26.4788 35.283 26.4045 35.1535 26.3547C35.024 26.305 34.8854 26.2807 34.7459 26.2834Z" fill="#4A40FE"/>
<path d="M18.3105 27.2942C18.3442 27.785 18.336 28.2778 18.2862 28.7674C18.248 28.9005 18.1784 29.0234 18.0828 29.1266C17.9873 29.2298 17.8683 29.3105 17.735 29.3626C17.3467 29.4624 17.0833 29.1864 17.0763 28.7973C17.0763 27.7532 17.0417 26.7057 17.1041 25.6615C17.1477 25.5314 17.226 25.4145 17.3312 25.3224C17.4363 25.2302 17.5648 25.166 17.7038 25.1361C17.8429 25.1735 17.9698 25.244 18.0729 25.3411C18.1759 25.4382 18.2518 25.5586 18.2932 25.6913C18.3459 26.2208 18.3551 26.7535 18.3208 27.2843L18.3105 27.2942Z" fill="#483FFE"/>
<path d="M14.2962 29.0167C14.0815 29.1709 13.8379 29.2838 13.5786 29.3492C13.4364 29.3492 13.1487 29.0632 13.1487 28.907C13.1487 27.7464 13.1799 26.5792 13.2076 25.4253L13.3255 25.279V25.259L13.634 25.116L14.0154 25.1925C14.0604 26.24 14.0986 27.2842 14.1506 28.3317C14.184 28.5627 14.2327 28.7915 14.2962 29.0167Z" fill="#483FFE"/>
<path d="M14.2962 29.0167C14.2372 28.7901 14.1932 28.5603 14.1644 28.3284C14.1124 27.2809 14.0742 26.2367 14.0292 25.1893C14.1436 25.3223 14.3758 25.4553 14.3758 25.585C14.3585 26.7289 14.3204 27.8728 14.2962 29.0167Z" fill="#6059FE"/>
<path d="M34.7317 17.7105C34.4324 17.7084 34.1368 17.6493 33.8615 17.5367C33.5861 17.4241 33.3367 17.2602 33.1278 17.0546C32.9189 16.8489 32.7546 16.6055 32.6443 16.3385C32.5341 16.0716 32.4802 15.7863 32.4857 15.4992C32.4921 14.9188 32.7372 14.3643 33.1677 13.9564C33.5981 13.5485 34.179 13.3201 34.7841 13.321C35.3885 13.3296 35.9656 13.5635 36.3933 13.9731C36.821 14.3828 37.0657 14.9361 37.0755 15.5158C37.0742 15.8081 37.0123 16.0973 36.8934 16.3665C36.7744 16.6357 36.6009 16.8795 36.3828 17.0838C36.1647 17.288 35.9065 17.4486 35.6231 17.5562C35.3397 17.6638 35.0365 17.7162 34.7317 17.7105ZM34.7633 14.5315C34.4935 14.5401 34.2378 14.649 34.0502 14.8352C33.8626 15.0213 33.7578 15.2702 33.758 15.5291C33.7559 15.6616 33.7822 15.7931 33.8353 15.9154C33.8884 16.0378 33.9671 16.1484 34.0665 16.2403C34.166 16.3323 34.2841 16.4037 34.4135 16.4501C34.5429 16.4965 34.6808 16.5169 34.8188 16.5101C35.0849 16.4964 35.3354 16.3853 35.5186 16.1997C35.7018 16.0141 35.8037 15.7681 35.8033 15.5125C35.7871 15.2555 35.6715 15.0135 35.4791 14.834C35.2868 14.6544 35.0316 14.5501 34.7633 14.5414V14.5315Z" fill="#4A41FE"/>
<path d="M18.3103 15.5158C18.3478 16.0253 18.342 16.5368 18.293 17.0454C18.2563 17.1792 18.1876 17.3027 18.0918 17.4061C17.9961 17.5095 17.8763 17.5899 17.7422 17.6406C17.3678 17.7271 17.0904 17.4611 17.087 17.0687C17.0731 16.04 17.0731 15.0147 17.087 13.9927C17.0758 13.91 17.0845 13.8259 17.1123 13.7468C17.1402 13.6678 17.1864 13.5959 17.2476 13.5365C17.3088 13.4772 17.3832 13.4321 17.4653 13.4045C17.5474 13.377 17.635 13.3677 17.7214 13.3775C18.1443 13.3775 18.3176 13.6568 18.3211 14.0426C18.3211 14.5347 18.3211 15.0402 18.3211 15.519L18.3103 15.5158Z" fill="#483FFE"/>
<path d="M13.2077 17.3448C13.1834 16.1776 13.1384 15.017 13.1522 13.8432C13.1522 13.6902 13.4469 13.4075 13.5856 13.4175C13.8364 13.4857 14.0716 13.5985 14.2789 13.75C14.216 13.936 14.173 14.1277 14.1506 14.322C14.1506 15.0769 14.1714 15.8317 14.1506 16.5833C14.1028 16.9362 14.0228 17.2845 13.9114 17.6241L13.7832 17.654L13.3394 17.5044L13.2077 17.3448Z" fill="#483FFE"/>
<path d="M13.9114 17.6241C14.0228 17.2845 14.1028 16.9362 14.1506 16.5833C14.1888 15.8317 14.1506 15.0769 14.1506 14.322C14.173 14.1277 14.216 13.936 14.2789 13.75C14.3032 14.894 14.3447 16.0412 14.3343 17.1851C14.3482 17.3314 14.064 17.4778 13.9114 17.6241Z" fill="#615AFE"/>
<path d="M34.7459 26.2834C34.8842 26.2807 35.0217 26.3046 35.1503 26.3535C35.2789 26.4024 35.396 26.4755 35.4948 26.5684C35.5936 26.6613 35.6721 26.7722 35.7256 26.8945C35.7792 27.0169 35.8067 27.1483 35.8067 27.281C35.7889 27.5371 35.6727 27.7778 35.4806 27.9565C35.2885 28.1353 35.0342 28.2394 34.7667 28.2487C34.4993 28.241 34.2453 28.1348 34.0574 27.9521C33.8695 27.7694 33.7623 27.5243 33.7579 27.2677C33.7552 27.1407 33.7786 27.0146 33.8268 26.8963C33.875 26.7781 33.9471 26.6702 34.0388 26.5787C34.1306 26.4873 34.2404 26.4141 34.3617 26.3634C34.483 26.3127 34.6136 26.2856 34.7459 26.2834Z" fill="#F7F7FE"/>
<path d="M34.7633 14.5414C35.0304 14.5499 35.2846 14.6534 35.4768 14.8316C35.6689 15.0098 35.7852 15.2501 35.8031 15.5059C35.8035 15.7615 35.7016 16.0075 35.5184 16.1932C35.3352 16.3788 35.0847 16.4899 34.8186 16.5035C34.6807 16.5104 34.5427 16.4899 34.4133 16.4436C34.2839 16.3972 34.1658 16.3258 34.0664 16.2338C33.9669 16.1418 33.8882 16.0312 33.8351 15.9089C33.7821 15.7865 33.7558 15.655 33.7578 15.5225C33.7621 15.2665 33.8689 15.0219 34.056 14.8392C34.2432 14.6566 34.4965 14.55 34.7633 14.5414Z" fill="#F7F7FE"/>
</svg>
