<svg width="50" height="50" viewBox="0 0 50 50" fill="none" xmlns="http://www.w3.org/2000/svg">
<path d="M13.277 28.1831H25.4173C27.608 28.1831 30.689 27.9692 30.689 25.0674C30.689 22.4175 28.2765 21.7059 26.0957 21.7059H21.1833C17.9896 21.7059 15.9125 21.1391 14.5154 19.9247C12.9177 18.5069 12 16.3214 12 13.9742C12 10.5335 13.8765 7.53784 16.632 6.56597C17.83 6.12005 19.2271 6 22.3427 6H35.5207V10.8169H23.6198C21.1036 10.8569 20.9038 10.8569 20.0658 11.0594C17.6937 11.6593 17.7151 15.482 19.7871 16.4431C21.9692 17.4408 25.0745 16.8882 27.4146 16.8882C31.3287 16.8882 33.4445 17.4958 35.0027 19.1153C36.2007 20.3289 37 22.7186 37 25.0674C37 27.9414 35.6819 30.612 33.6056 31.9081C32.2883 32.7574 30.6116 33 26.6565 33H13.277V28.1831Z" fill="#007AFF"/>
<path d="M18.9961 37.5H19.9043V45H18.9961V37.5Z" fill="#1C1D1F"/>
<path fill-rule="evenodd" clip-rule="evenodd" d="M35.3096 44.9268C35.5581 44.8106 35.7682 44.6448 35.9399 44.4294L35.9834 45H36.8135V37.5H35.9053V40.2494C35.7402 40.0519 35.5416 39.9004 35.3096 39.7949C35.0622 39.6777 34.7725 39.6191 34.4404 39.6191C34.1247 39.6191 33.8382 39.6842 33.5811 39.8145C33.3271 39.9414 33.1074 40.1237 32.9219 40.3613C32.7396 40.599 32.598 40.8838 32.4971 41.2158C32.3994 41.5446 32.3506 41.9108 32.3506 42.3145V42.417C32.3506 42.8011 32.3994 43.1576 32.4971 43.4863C32.598 43.8118 32.7396 44.0951 32.9219 44.3359C33.1074 44.5768 33.3271 44.764 33.5811 44.8975C33.8382 45.0309 34.1214 45.0977 34.4307 45.0977C34.766 45.0977 35.0589 45.0407 35.3096 44.9268ZM35.6807 40.8154C35.7683 40.9128 35.8431 41.021 35.9053 41.1402V43.5564C35.8911 43.5838 35.8764 43.6109 35.8613 43.6377C35.7441 43.846 35.5879 44.0137 35.3926 44.1406C35.2005 44.2676 34.9548 44.3311 34.6553 44.3311C34.4111 44.3311 34.2012 44.2822 34.0254 44.1846C33.8496 44.0837 33.7048 43.9453 33.5908 43.7695C33.4769 43.5938 33.3923 43.3903 33.3369 43.1592C33.2848 42.9281 33.2588 42.6807 33.2588 42.417V42.3145C33.2588 42.0508 33.2848 41.8034 33.3369 41.5723C33.3923 41.3379 33.4769 41.1328 33.5908 40.957C33.7048 40.778 33.8496 40.638 34.0254 40.5371C34.2044 40.4329 34.4176 40.3809 34.665 40.3809C34.8929 40.3809 35.0898 40.4199 35.2559 40.498C35.4251 40.5762 35.5667 40.682 35.6807 40.8154Z" fill="#1C1D1F"/>
<path d="M29.7334 44.917C29.9669 44.8075 30.1608 44.6609 30.3152 44.4773L30.334 45H31.1982V39.7168H30.29V43.5582C30.191 43.7868 30.0364 43.9712 29.8262 44.1113C29.6016 44.2578 29.2972 44.3311 28.9131 44.3311C28.7894 44.3311 28.6689 44.3132 28.5518 44.2773C28.4378 44.2415 28.3337 44.1797 28.2393 44.0918C28.1481 44.0007 28.0749 43.8786 28.0195 43.7256C27.9674 43.5693 27.9414 43.3724 27.9414 43.1348V39.7168H27.0381V43.125C27.0381 43.4766 27.0788 43.7777 27.1602 44.0283C27.2448 44.279 27.3636 44.4824 27.5166 44.6387C27.6696 44.7949 27.8519 44.9105 28.0635 44.9854C28.2783 45.0602 28.5143 45.0977 28.7715 45.0977C29.1491 45.0977 29.4697 45.0374 29.7334 44.917Z" fill="#1C1D1F"/>
<path fill-rule="evenodd" clip-rule="evenodd" d="M21.1152 42.3047V42.417C21.1152 42.7979 21.1706 43.151 21.2812 43.4766C21.3919 43.8021 21.5514 44.0869 21.7598 44.3311C21.9714 44.5719 22.2253 44.7607 22.5215 44.8975C22.8177 45.0309 23.1514 45.0977 23.5225 45.0977C23.8936 45.0977 24.2256 45.0309 24.5186 44.8975C24.8148 44.7607 25.0671 44.5719 25.2754 44.3311C25.487 44.0869 25.6481 43.8021 25.7588 43.4766C25.8695 43.151 25.9248 42.7979 25.9248 42.417V42.3047C25.9248 41.9238 25.8695 41.5706 25.7588 41.2451C25.6481 40.9163 25.487 40.6315 25.2754 40.3906C25.0671 40.1465 24.8132 39.9577 24.5137 39.8242C24.2174 39.6875 23.8838 39.6191 23.5127 39.6191C23.1449 39.6191 22.8128 39.6875 22.5166 39.8242C22.2204 39.9577 21.9681 40.1465 21.7598 40.3906C21.5514 40.6315 21.3919 40.9163 21.2812 41.2451C21.1706 41.5706 21.1152 41.9238 21.1152 42.3047ZM22.0186 42.417V42.3047C22.0186 42.0443 22.0495 41.7985 22.1113 41.5674C22.1732 41.333 22.266 41.1263 22.3896 40.9473C22.5166 40.765 22.6729 40.6217 22.8584 40.5176C23.0472 40.4134 23.2653 40.3613 23.5127 40.3613C23.7633 40.3613 23.9814 40.4134 24.167 40.5176C24.3558 40.6217 24.512 40.765 24.6357 40.9473C24.7627 41.1263 24.8571 41.333 24.9189 41.5674C24.984 41.7985 25.0166 42.0443 25.0166 42.3047V42.417C25.0166 42.6807 24.984 42.9297 24.9189 43.1641C24.8571 43.3952 24.7643 43.6003 24.6406 43.7793C24.5169 43.9583 24.3607 44.0999 24.1719 44.2041C23.9863 44.305 23.7699 44.3555 23.5225 44.3555C23.2718 44.3555 23.0521 44.305 22.8633 44.2041C22.6745 44.0999 22.5166 43.9583 22.3896 43.7793C22.266 43.6003 22.1732 43.3952 22.1113 43.1641C22.0495 42.9297 22.0186 42.6807 22.0186 42.417Z" fill="#1C1D1F"/>
<path d="M16.3984 44.2236C16.2161 44.3115 16.0176 44.3555 15.8027 44.3555C15.5228 44.3555 15.2884 44.3018 15.0996 44.1943C14.9141 44.0837 14.766 43.9372 14.6553 43.7549C14.5479 43.5726 14.4714 43.3691 14.4258 43.1445C14.3802 42.9199 14.3574 42.6921 14.3574 42.4609V42.2559C14.3574 42.0247 14.3802 41.7985 14.4258 41.5771C14.4746 41.3525 14.5527 41.1491 14.6602 40.9668C14.7708 40.7812 14.9189 40.6348 15.1045 40.5273C15.2933 40.4167 15.526 40.3613 15.8027 40.3613C16.0436 40.3613 16.2536 40.415 16.4326 40.5225C16.6149 40.6266 16.7581 40.7666 16.8623 40.9424C16.9697 41.1182 17.0316 41.3151 17.0479 41.5332H17.9072C17.891 41.1686 17.7933 40.8431 17.6143 40.5566C17.4385 40.2669 17.196 40.0391 16.8867 39.873C16.5775 39.7038 16.2161 39.6191 15.8027 39.6191C15.4056 39.6191 15.0589 39.6891 14.7627 39.8291C14.4697 39.9691 14.2256 40.1611 14.0303 40.4053C13.8382 40.6494 13.6934 40.931 13.5957 41.25C13.5013 41.5658 13.4541 41.901 13.4541 42.2559V42.4609C13.4541 42.8158 13.5013 43.1527 13.5957 43.4717C13.6934 43.7874 13.8382 44.0674 14.0303 44.3115C14.2256 44.5557 14.4697 44.7477 14.7627 44.8877C15.0589 45.0277 15.4056 45.0977 15.8027 45.0977C16.1771 45.0977 16.5205 45.0163 16.833 44.8535C17.1455 44.6875 17.3978 44.471 17.5898 44.2041C17.7852 43.9339 17.891 43.6426 17.9072 43.3301H17.0479C17.0316 43.5286 16.9648 43.7061 16.8477 43.8623C16.7305 44.0153 16.5807 44.1357 16.3984 44.2236Z" fill="#1C1D1F"/>
</svg>
