<svg width="50" height="50" viewBox="0 0 50 50" fill="none" xmlns="http://www.w3.org/2000/svg">
<rect width="50" height="50" fill="#007AFF"/>
<path d="M16.0216 27.0751H25.7338C27.4864 27.0751 29.9512 26.9009 29.9512 24.5364C29.9512 22.3772 28.0212 21.7974 26.2766 21.7974H22.3467C19.7916 21.7974 18.13 21.3356 17.0123 20.346C15.7342 19.1908 15 17.41 15 15.4975C15 12.6939 16.5012 10.2531 18.7056 9.46116C19.664 9.09782 20.7817 9 23.2742 9H33.8166V12.9249H24.2958C22.2829 12.9575 22.123 12.9575 21.4527 13.1225C19.555 13.6113 19.5721 16.7261 21.2297 17.5092C22.9754 18.3222 25.4596 17.8719 27.3317 17.8719C30.463 17.8719 32.1556 18.367 33.4021 19.6866C34.3606 20.6754 35 22.6226 35 24.5364C35 26.8782 33.9455 29.0542 32.2845 30.1103C31.2306 30.8024 29.8893 31 26.7252 31H16.0216V27.0751Z" fill="white"/>
<path d="M38.7305 34.5H39.6387V42H38.7305V34.5Z" fill="white"/>
<path fill-rule="evenodd" clip-rule="evenodd" d="M36.2158 41.5752C36.2645 41.5312 36.3104 41.4866 36.3534 41.4416C36.3586 41.4884 36.3648 41.5362 36.3721 41.585C36.3981 41.7575 36.4339 41.8958 36.4795 42H37.4219V41.9219C37.36 41.7786 37.3128 41.6077 37.2803 41.4092C37.251 41.2106 37.2363 41.0234 37.2363 40.8477V38.3867C37.2363 37.9928 37.1517 37.6657 36.9824 37.4053C36.8164 37.1416 36.5853 36.9447 36.2891 36.8145C35.9961 36.6842 35.6576 36.6191 35.2734 36.6191C34.9544 36.6191 34.6647 36.6647 34.4043 36.7559C34.1471 36.8438 33.9258 36.9642 33.7402 37.1172C33.5579 37.2669 33.418 37.4346 33.3203 37.6201C33.2227 37.8057 33.1738 37.9928 33.1738 38.1816H34.0771C34.0771 38.0352 34.1243 37.8984 34.2188 37.7715C34.3164 37.6445 34.4499 37.542 34.6191 37.4639C34.7917 37.3857 34.9919 37.3467 35.2197 37.3467C35.4639 37.3467 35.6689 37.389 35.835 37.4736C36.001 37.5583 36.1247 37.6787 36.2061 37.835C36.2907 37.988 36.333 38.1686 36.333 38.377V38.7969H35.4395C35.0781 38.7969 34.751 38.8343 34.458 38.9092C34.165 38.984 33.9144 39.0947 33.7061 39.2412C33.4977 39.3844 33.3382 39.5651 33.2275 39.7832C33.1169 39.998 33.0615 40.2471 33.0615 40.5303C33.0615 40.8232 33.1348 41.0885 33.2812 41.3262C33.431 41.5605 33.6393 41.7477 33.9062 41.8877C34.1764 42.0277 34.4906 42.0977 34.8486 42.0977C35.1351 42.0977 35.3923 42.0488 35.6201 41.9512C35.8512 41.8503 36.0498 41.7249 36.2158 41.5752ZM36.2158 40.7012C36.263 40.6383 36.302 40.5761 36.333 40.5146V39.4316H35.5859C35.3288 39.4316 35.0993 39.4528 34.8975 39.4951C34.6956 39.5342 34.5264 39.5944 34.3896 39.6758C34.2529 39.7572 34.1488 39.8597 34.0771 39.9834C34.0055 40.1038 33.9697 40.2454 33.9697 40.4082C33.9697 40.5742 34.0072 40.7256 34.082 40.8623C34.1569 40.999 34.2692 41.1081 34.4189 41.1895C34.5719 41.2676 34.7591 41.3066 34.9805 41.3066C35.2572 41.3066 35.5013 41.248 35.7129 41.1309C35.9245 41.0137 36.0921 40.8704 36.2158 40.7012Z" fill="white"/>
<path d="M30.9277 38.244V42H30.0244V36.7168H30.9033L30.9212 37.3232L30.9277 37.3125C31.0612 37.0944 31.2305 36.9251 31.4355 36.8047C31.6439 36.681 31.8913 36.6191 32.1777 36.6191C32.2428 36.6191 32.3177 36.6273 32.4023 36.6436C32.487 36.6566 32.5456 36.6712 32.5781 36.6875L32.5732 37.5273C32.4984 37.5111 32.4268 37.5013 32.3584 37.498C32.2933 37.4915 32.2184 37.4883 32.1338 37.4883C31.9255 37.4883 31.7415 37.5208 31.582 37.5859C31.4225 37.651 31.2874 37.7422 31.1768 37.8594C31.0742 37.968 30.9912 38.0962 30.9277 38.244Z" fill="white"/>
<path d="M28.9648 36.7168V37.4102H27.9785V40.6914C27.9785 40.8704 28.0062 41.0055 28.0615 41.0967C28.1169 41.1878 28.1885 41.248 28.2764 41.2773C28.3643 41.3066 28.4587 41.3213 28.5596 41.3213C28.6344 41.3213 28.7126 41.3148 28.7939 41.3018C28.8786 41.2855 28.9421 41.2725 28.9844 41.2627L28.9893 42C28.9176 42.0228 28.8232 42.0439 28.7061 42.0635C28.5921 42.0863 28.4538 42.0977 28.291 42.0977C28.0697 42.0977 27.8662 42.0537 27.6807 41.9658C27.4951 41.8779 27.347 41.7314 27.2363 41.5264C27.1289 41.318 27.0752 41.0381 27.0752 40.6865V37.4102H26.1084V36.7168H27.0752V35.4326H27.9785V36.7168H28.9648Z" fill="white"/>
<path d="M22.1085 37.3741C22.1185 37.3616 22.1285 37.3492 22.1387 37.3369C22.3275 37.109 22.5521 36.9333 22.8125 36.8096C23.0762 36.6826 23.3675 36.6191 23.6865 36.6191C23.9469 36.6191 24.1813 36.6549 24.3896 36.7266C24.598 36.7949 24.7754 36.9056 24.9219 37.0586C25.0716 37.2116 25.1855 37.4102 25.2637 37.6543C25.3418 37.8952 25.3809 38.1898 25.3809 38.5381V42H24.4727V38.5283C24.4727 38.2516 24.432 38.0303 24.3506 37.8643C24.2692 37.695 24.1504 37.5729 23.9941 37.498C23.8379 37.4199 23.6458 37.3809 23.418 37.3809C23.1934 37.3809 22.9883 37.4281 22.8027 37.5225C22.6204 37.6169 22.4626 37.7471 22.3291 37.9131C22.2529 38.0103 22.1862 38.1158 22.1289 38.2297V42H21.2256V36.7168H22.0801L22.1085 37.3741Z" fill="white"/>
<path fill-rule="evenodd" clip-rule="evenodd" d="M18.1152 42.0977C17.7474 42.0977 17.4137 42.0358 17.1143 41.9121C16.818 41.7852 16.5625 41.6077 16.3477 41.3799C16.1361 41.152 15.9733 40.8818 15.8594 40.5693C15.7454 40.2568 15.6885 39.915 15.6885 39.5439V39.3389C15.6885 38.9092 15.752 38.5267 15.8789 38.1914C16.0059 37.8529 16.1784 37.5664 16.3965 37.332C16.6146 37.0977 16.862 36.9202 17.1387 36.7998C17.4154 36.6794 17.7018 36.6191 17.998 36.6191C18.3757 36.6191 18.7012 36.6842 18.9746 36.8145C19.2513 36.9447 19.4775 37.127 19.6533 37.3613C19.8291 37.5924 19.9593 37.8659 20.0439 38.1816C20.1286 38.4941 20.1709 38.8359 20.1709 39.207V39.6123H16.5975C16.6032 39.8376 16.6371 40.0508 16.6992 40.252C16.7708 40.4701 16.8734 40.6621 17.0068 40.8281C17.1436 40.9941 17.3079 41.1243 17.5 41.2188C17.6953 41.3132 17.9167 41.3604 18.1641 41.3604C18.4831 41.3604 18.7533 41.2952 18.9746 41.165C19.196 41.0348 19.3896 40.8607 19.5557 40.6426L20.1025 41.0771C19.9886 41.2497 19.8438 41.4141 19.668 41.5703C19.4922 41.7266 19.2757 41.8535 19.0186 41.9512C18.7646 42.0488 18.4635 42.0977 18.1152 42.0977ZM16.6992 38.4941C16.6661 38.6123 16.641 38.7393 16.624 38.875H19.2676V38.8066C19.2546 38.5723 19.2057 38.3444 19.1211 38.123C19.0397 37.9017 18.9095 37.7194 18.7305 37.5762C18.5514 37.4329 18.3073 37.3613 17.998 37.3613C17.793 37.3613 17.6042 37.4053 17.4316 37.4932C17.2591 37.5778 17.111 37.7048 16.9873 37.874C16.8636 38.0433 16.7676 38.25 16.6992 38.4941Z" fill="white"/>
<path d="M13.3984 41.2236C13.2161 41.3115 13.0176 41.3555 12.8027 41.3555C12.5228 41.3555 12.2884 41.3018 12.0996 41.1943C11.9141 41.0837 11.766 40.9372 11.6553 40.7549C11.5479 40.5726 11.4714 40.3691 11.4258 40.1445C11.3802 39.9199 11.3574 39.6921 11.3574 39.4609V39.2559C11.3574 39.0247 11.3802 38.7985 11.4258 38.5771C11.4746 38.3525 11.5527 38.1491 11.6602 37.9668C11.7708 37.7812 11.9189 37.6348 12.1045 37.5273C12.2933 37.4167 12.526 37.3613 12.8027 37.3613C13.0436 37.3613 13.2536 37.415 13.4326 37.5225C13.6149 37.6266 13.7581 37.7666 13.8623 37.9424C13.9697 38.1182 14.0316 38.3151 14.0479 38.5332H14.9072C14.891 38.1686 14.7933 37.8431 14.6143 37.5566C14.4385 37.2669 14.196 37.0391 13.8867 36.873C13.5775 36.7038 13.2161 36.6191 12.8027 36.6191C12.4056 36.6191 12.0589 36.6891 11.7627 36.8291C11.4697 36.9691 11.2256 37.1611 11.0303 37.4053C10.8382 37.6494 10.6934 37.931 10.5957 38.25C10.5013 38.5658 10.4541 38.901 10.4541 39.2559V39.4609C10.4541 39.8158 10.5013 40.1527 10.5957 40.4717C10.6934 40.7874 10.8382 41.0674 11.0303 41.3115C11.2256 41.5557 11.4697 41.7477 11.7627 41.8877C12.0589 42.0277 12.4056 42.0977 12.8027 42.0977C13.1771 42.0977 13.5205 42.0163 13.833 41.8535C14.1455 41.6875 14.3978 41.471 14.5898 41.2041C14.7852 40.9339 14.891 40.6426 14.9072 40.3301H14.0479C14.0316 40.5286 13.9648 40.7061 13.8477 40.8623C13.7305 41.0153 13.5807 41.1357 13.3984 41.2236Z" fill="white"/>
</svg>
