<svg width="50" height="50" viewBox="0 0 50 50" fill="none" xmlns="http://www.w3.org/2000/svg">
<path d="M13.277 28.1831H25.4173C27.608 28.1831 30.689 27.9692 30.689 25.0674C30.689 22.4175 28.2765 21.7059 26.0957 21.7059H21.1833C17.9896 21.7059 15.9125 21.1391 14.5154 19.9247C12.9177 18.5069 12 16.3214 12 13.9742C12 10.5335 13.8765 7.53784 16.632 6.56597C17.83 6.12005 19.2271 6 22.3427 6H35.5207V10.8169H23.6198C21.1036 10.8569 20.9038 10.8569 20.0658 11.0594C17.6937 11.6593 17.7151 15.482 19.7871 16.4431C21.9692 17.4408 25.0745 16.8882 27.4146 16.8882C31.3287 16.8882 33.4445 17.4958 35.0027 19.1153C36.2007 20.3289 37 22.7186 37 25.0674C37 27.9414 35.6819 30.612 33.6056 31.9081C32.2883 32.7574 30.6116 33 26.6565 33H13.277V28.1831Z" fill="#007AFF"/>
<path d="M38.7305 37.5H39.6387V45H38.7305V37.5Z" fill="#1C1D1F"/>
<path fill-rule="evenodd" clip-rule="evenodd" d="M36.2158 44.5752C36.2645 44.5312 36.3104 44.4866 36.3534 44.4416C36.3586 44.4884 36.3648 44.5362 36.3721 44.585C36.3981 44.7575 36.4339 44.8958 36.4795 45H37.4219V44.9219C37.36 44.7786 37.3128 44.6077 37.2803 44.4092C37.251 44.2106 37.2363 44.0234 37.2363 43.8477V41.3867C37.2363 40.9928 37.1517 40.6657 36.9824 40.4053C36.8164 40.1416 36.5853 39.9447 36.2891 39.8145C35.9961 39.6842 35.6576 39.6191 35.2734 39.6191C34.9544 39.6191 34.6647 39.6647 34.4043 39.7559C34.1471 39.8438 33.9258 39.9642 33.7402 40.1172C33.5579 40.2669 33.418 40.4346 33.3203 40.6201C33.2227 40.8057 33.1738 40.9928 33.1738 41.1816H34.0771C34.0771 41.0352 34.1243 40.8984 34.2188 40.7715C34.3164 40.6445 34.4499 40.542 34.6191 40.4639C34.7917 40.3857 34.9919 40.3467 35.2197 40.3467C35.4639 40.3467 35.6689 40.389 35.835 40.4736C36.001 40.5583 36.1247 40.6787 36.2061 40.835C36.2907 40.988 36.333 41.1686 36.333 41.377V41.7969H35.4395C35.0781 41.7969 34.751 41.8343 34.458 41.9092C34.165 41.984 33.9144 42.0947 33.7061 42.2412C33.4977 42.3844 33.3382 42.5651 33.2275 42.7832C33.1169 42.998 33.0615 43.2471 33.0615 43.5303C33.0615 43.8232 33.1348 44.0885 33.2812 44.3262C33.431 44.5605 33.6393 44.7477 33.9062 44.8877C34.1764 45.0277 34.4906 45.0977 34.8486 45.0977C35.1351 45.0977 35.3923 45.0488 35.6201 44.9512C35.8512 44.8503 36.0498 44.7249 36.2158 44.5752ZM36.2158 43.7012C36.263 43.6383 36.302 43.5761 36.333 43.5146V42.4316H35.5859C35.3288 42.4316 35.0993 42.4528 34.8975 42.4951C34.6956 42.5342 34.5264 42.5944 34.3896 42.6758C34.2529 42.7572 34.1488 42.8597 34.0771 42.9834C34.0055 43.1038 33.9697 43.2454 33.9697 43.4082C33.9697 43.5742 34.0072 43.7256 34.082 43.8623C34.1569 43.999 34.2692 44.1081 34.4189 44.1895C34.5719 44.2676 34.7591 44.3066 34.9805 44.3066C35.2572 44.3066 35.5013 44.248 35.7129 44.1309C35.9245 44.0137 36.0921 43.8704 36.2158 43.7012Z" fill="#1C1D1F"/>
<path d="M30.9277 41.244V45H30.0244V39.7168H30.9033L30.9212 40.3232L30.9277 40.3125C31.0612 40.0944 31.2305 39.9251 31.4355 39.8047C31.6439 39.681 31.8913 39.6191 32.1777 39.6191C32.2428 39.6191 32.3177 39.6273 32.4023 39.6436C32.487 39.6566 32.5456 39.6712 32.5781 39.6875L32.5732 40.5273C32.4984 40.5111 32.4268 40.5013 32.3584 40.498C32.2933 40.4915 32.2184 40.4883 32.1338 40.4883C31.9255 40.4883 31.7415 40.5208 31.582 40.5859C31.4225 40.651 31.2874 40.7422 31.1768 40.8594C31.0742 40.968 30.9912 41.0962 30.9277 41.244Z" fill="#1C1D1F"/>
<path d="M28.9648 39.7168V40.4102H27.9785V43.6914C27.9785 43.8704 28.0062 44.0055 28.0615 44.0967C28.1169 44.1878 28.1885 44.248 28.2764 44.2773C28.3643 44.3066 28.4587 44.3213 28.5596 44.3213C28.6344 44.3213 28.7126 44.3148 28.7939 44.3018C28.8786 44.2855 28.9421 44.2725 28.9844 44.2627L28.9893 45C28.9176 45.0228 28.8232 45.0439 28.7061 45.0635C28.5921 45.0863 28.4538 45.0977 28.291 45.0977C28.0697 45.0977 27.8662 45.0537 27.6807 44.9658C27.4951 44.8779 27.347 44.7314 27.2363 44.5264C27.1289 44.318 27.0752 44.0381 27.0752 43.6865V40.4102H26.1084V39.7168H27.0752V38.4326H27.9785V39.7168H28.9648Z" fill="#1C1D1F"/>
<path d="M22.1085 40.3741C22.1185 40.3616 22.1285 40.3492 22.1387 40.3369C22.3275 40.109 22.5521 39.9333 22.8125 39.8096C23.0762 39.6826 23.3675 39.6191 23.6865 39.6191C23.9469 39.6191 24.1813 39.6549 24.3896 39.7266C24.598 39.7949 24.7754 39.9056 24.9219 40.0586C25.0716 40.2116 25.1855 40.4102 25.2637 40.6543C25.3418 40.8952 25.3809 41.1898 25.3809 41.5381V45H24.4727V41.5283C24.4727 41.2516 24.432 41.0303 24.3506 40.8643C24.2692 40.695 24.1504 40.5729 23.9941 40.498C23.8379 40.4199 23.6458 40.3809 23.418 40.3809C23.1934 40.3809 22.9883 40.4281 22.8027 40.5225C22.6204 40.6169 22.4626 40.7471 22.3291 40.9131C22.2529 41.0103 22.1862 41.1158 22.1289 41.2297V45H21.2256V39.7168H22.0801L22.1085 40.3741Z" fill="#1C1D1F"/>
<path fill-rule="evenodd" clip-rule="evenodd" d="M18.1152 45.0977C17.7474 45.0977 17.4137 45.0358 17.1143 44.9121C16.818 44.7852 16.5625 44.6077 16.3477 44.3799C16.1361 44.152 15.9733 43.8818 15.8594 43.5693C15.7454 43.2568 15.6885 42.915 15.6885 42.5439V42.3389C15.6885 41.9092 15.752 41.5267 15.8789 41.1914C16.0059 40.8529 16.1784 40.5664 16.3965 40.332C16.6146 40.0977 16.862 39.9202 17.1387 39.7998C17.4154 39.6794 17.7018 39.6191 17.998 39.6191C18.3757 39.6191 18.7012 39.6842 18.9746 39.8145C19.2513 39.9447 19.4775 40.127 19.6533 40.3613C19.8291 40.5924 19.9593 40.8659 20.0439 41.1816C20.1286 41.4941 20.1709 41.8359 20.1709 42.207V42.6123H16.5975C16.6032 42.8376 16.6371 43.0508 16.6992 43.252C16.7708 43.4701 16.8734 43.6621 17.0068 43.8281C17.1436 43.9941 17.3079 44.1243 17.5 44.2188C17.6953 44.3132 17.9167 44.3604 18.1641 44.3604C18.4831 44.3604 18.7533 44.2952 18.9746 44.165C19.196 44.0348 19.3896 43.8607 19.5557 43.6426L20.1025 44.0771C19.9886 44.2497 19.8438 44.4141 19.668 44.5703C19.4922 44.7266 19.2757 44.8535 19.0186 44.9512C18.7646 45.0488 18.4635 45.0977 18.1152 45.0977ZM16.6992 41.4941C16.6661 41.6123 16.641 41.7393 16.624 41.875H19.2676V41.8066C19.2546 41.5723 19.2057 41.3444 19.1211 41.123C19.0397 40.9017 18.9095 40.7194 18.7305 40.5762C18.5514 40.4329 18.3073 40.3613 17.998 40.3613C17.793 40.3613 17.6042 40.4053 17.4316 40.4932C17.2591 40.5778 17.111 40.7048 16.9873 40.874C16.8636 41.0433 16.7676 41.25 16.6992 41.4941Z" fill="#1C1D1F"/>
<path d="M13.3984 44.2236C13.2161 44.3115 13.0176 44.3555 12.8027 44.3555C12.5228 44.3555 12.2884 44.3018 12.0996 44.1943C11.9141 44.0837 11.766 43.9372 11.6553 43.7549C11.5479 43.5726 11.4714 43.3691 11.4258 43.1445C11.3802 42.9199 11.3574 42.6921 11.3574 42.4609V42.2559C11.3574 42.0247 11.3802 41.7985 11.4258 41.5771C11.4746 41.3525 11.5527 41.1491 11.6602 40.9668C11.7708 40.7812 11.9189 40.6348 12.1045 40.5273C12.2933 40.4167 12.526 40.3613 12.8027 40.3613C13.0436 40.3613 13.2536 40.415 13.4326 40.5225C13.6149 40.6266 13.7581 40.7666 13.8623 40.9424C13.9697 41.1182 14.0316 41.3151 14.0479 41.5332H14.9072C14.891 41.1686 14.7933 40.8431 14.6143 40.5566C14.4385 40.2669 14.196 40.0391 13.8867 39.873C13.5775 39.7038 13.2161 39.6191 12.8027 39.6191C12.4056 39.6191 12.0589 39.6891 11.7627 39.8291C11.4697 39.9691 11.2256 40.1611 11.0303 40.4053C10.8382 40.6494 10.6934 40.931 10.5957 41.25C10.5013 41.5658 10.4541 41.901 10.4541 42.2559V42.4609C10.4541 42.8158 10.5013 43.1527 10.5957 43.4717C10.6934 43.7874 10.8382 44.0674 11.0303 44.3115C11.2256 44.5557 11.4697 44.7477 11.7627 44.8877C12.0589 45.0277 12.4056 45.0977 12.8027 45.0977C13.1771 45.0977 13.5205 45.0163 13.833 44.8535C14.1455 44.6875 14.3978 44.471 14.5898 44.2041C14.7852 43.9339 14.891 43.6426 14.9072 43.3301H14.0479C14.0316 43.5286 13.9648 43.7061 13.8477 43.8623C13.7305 44.0153 13.5807 44.1357 13.3984 44.2236Z" fill="#1C1D1F"/>
</svg>
