<svg width="50" height="50" viewBox="0 0 50 50" fill="none" xmlns="http://www.w3.org/2000/svg">
<rect width="50" height="50" fill="black"/>
<path fill-rule="evenodd" clip-rule="evenodd" d="M24.1511 8.48381C21.5981 9.02884 19.4736 11.096 18.9273 13.5663C18.5478 15.2826 18.5312 15.4372 18.6497 16.161C18.8834 17.5874 19.6821 19.1071 20.8363 20.3216C21.6657 21.1942 21.6522 21.2576 20.6082 21.3938C20.1494 21.4536 19.4158 21.7562 19.4158 21.886C19.4158 21.9579 19.1475 22.1819 18.8195 22.3836C18.4916 22.5856 18.0255 22.938 17.7835 23.1669C17.3131 23.6114 17.388 23.5996 15.6 23.5135C15.0153 23.4851 14.816 23.9912 15.3239 24.2141C15.5818 24.327 15.5732 24.3379 15.1624 24.4136C14.4488 24.5453 14.4101 25.1909 15.1157 25.1909C15.6528 25.1909 15.6982 25.2875 15.3518 25.6924C14.7829 26.3573 15.1639 26.7245 16.1091 26.4216C16.3624 26.3404 16.3722 26.3552 16.2583 26.6499C15.8782 27.6331 16.5304 28.0166 17.0843 27.1355C17.5799 26.3464 17.7783 26.2613 18.12 26.6907C18.3107 26.9304 18.5247 27.0669 18.7096 27.0669H18.9995L18.9227 25.9141L18.8459 24.7609L19.2371 24.487C21.1038 23.1799 22.2856 23.438 21.9749 25.0849C21.8297 25.8555 21.8622 27.0476 22.04 27.4601C22.1287 27.666 22.1152 27.6675 21.7707 27.4924C20.2268 26.7073 19.3845 27.0591 17.5953 29.2364C17.2295 29.6812 17.2028 29.6933 17.0729 29.4708C15.6482 27.0307 11.5252 27.1403 10.2307 29.6525C9.06013 31.9241 9.9718 34.5146 12.3549 35.6868C12.8198 35.9153 13.5009 36.3846 13.8687 36.7297C16.2644 38.9768 19.3824 38.0486 19.8285 34.9557C20.3158 31.5766 23.3241 29.3454 25.0738 31.066C25.4978 31.4827 25.4963 31.4739 25.2448 32.0654C25.0403 32.5471 25.0673 33.9439 25.2841 34.0882C25.3446 34.1284 25.5583 34.3989 25.7594 34.6891C25.9603 34.9793 26.5904 35.7028 27.1594 36.2967C28.3563 37.5462 28.3541 37.4807 27.2251 38.443C26.0487 39.4449 25.9059 40.0125 26.5784 41.012C26.9806 41.6096 27.1818 41.6663 28.8961 41.6663C30.9669 41.6663 31.6962 41.176 31.6683 39.8027C31.6164 37.2608 31.4678 36.448 31.0554 36.448C30.6924 36.448 29.9337 34.7121 29.9573 33.9357C29.9681 33.5891 29.9165 33.3225 29.829 33.2693C29.5081 33.074 29.7071 32.3025 30.444 30.8854C31.3124 29.2159 31.7797 25.8944 31.1463 25.8944C31.0891 25.8944 31.0425 25.8247 31.0425 25.7392C31.0425 25.6538 30.8644 24.9448 30.647 24.1633L30.2518 22.7426L30.6172 22.8033C31.434 22.9389 32.7077 23.3577 33.6381 23.7965C34.7616 24.3264 34.7518 24.263 33.8896 25.3775C33.1262 26.364 33.5057 26.9262 34.5626 26.3751C35.2879 25.9968 35.4445 26.1873 35.6361 27.6811C35.7829 28.8279 36.5435 28.9405 36.7511 27.8465C36.8963 27.0823 36.9494 27.0663 37.4727 27.6291C37.9658 28.1597 38.1415 28.2155 38.5023 27.9559C38.7261 27.7949 38.7273 27.7653 38.5364 27.0473C38.3014 26.1635 38.2624 26.2305 38.891 26.4404C40.2765 26.9026 40.4024 26.0801 39.0777 25.2208C38.8839 25.0952 38.9128 25.0846 39.2877 25.1438C40.6889 25.3645 40.5682 24.3237 39.1489 23.9453C38.7191 23.8306 38.2056 23.596 37.9919 23.416C37.7804 23.2381 37.4088 23.0389 37.1656 22.9727C36.8939 22.899 36.5137 22.6367 36.1787 22.2909C35.5099 21.6019 34.9643 21.1873 34.1512 20.75C33.8088 20.5659 33.5328 20.3684 33.5374 20.311C33.5423 20.2539 33.1974 20.1205 32.7712 20.0148C32.345 19.9091 31.9965 19.8563 31.9968 19.8976C31.9968 19.9387 31.5399 19.9556 30.9817 19.9345L29.9662 19.8967L30.4996 19.2967C34.6419 14.6406 30.261 7.17907 24.1511 8.48381ZM25.6007 14.2279C29.4976 14.8946 30.2159 18.0871 26.8689 19.8647C26.2996 20.1673 22.0299 20.2715 21.3749 19.9991C20.544 19.6537 19.2463 17.027 19.2399 15.6778C19.2331 14.2469 19.2494 14.2342 21.3835 14.0017C22.0953 13.9241 24.6156 14.0594 25.6007 14.2279Z" fill="white"/>
</svg>
