<svg width="50" height="50" viewBox="0 0 50 50" fill="none" xmlns="http://www.w3.org/2000/svg">
<path fill-rule="evenodd" clip-rule="evenodd" d="M24.1506 8.48406C21.5977 9.02908 19.4731 11.0963 18.9269 13.5665C18.5473 15.2828 18.5308 15.4374 18.6493 16.1612C18.883 17.5876 19.6816 19.1074 20.8359 20.3218C21.6653 21.1945 21.6517 21.2579 20.6077 21.3941C20.149 21.4538 19.4154 21.7564 19.4154 21.8862C19.4154 21.9581 19.147 22.1822 18.8191 22.3839C18.4911 22.5859 18.025 22.9382 17.7831 23.1671C17.3126 23.6116 17.3876 23.5998 15.5995 23.5138C15.0149 23.4854 14.8156 23.9915 15.3235 24.2143C15.5814 24.3272 15.5728 24.3381 15.162 24.4139C14.4483 24.5455 14.4097 25.1911 15.1153 25.1911C15.6523 25.1911 15.6978 25.2877 15.3514 25.6927C14.7824 26.3576 15.1635 26.7247 16.1086 26.4219C16.362 26.3407 16.3718 26.3554 16.2579 26.6502C15.8777 27.6333 16.5299 28.0168 17.0839 27.1357C17.5795 26.3467 17.7778 26.2615 18.1196 26.6909C18.3103 26.9307 18.5243 27.0672 18.7092 27.0672H18.999L18.9223 25.9143L18.8455 24.7611L19.2367 24.4873C21.1033 23.1801 22.2852 23.4383 21.9745 25.0851C21.8292 25.8557 21.8618 27.0478 22.0396 27.4603C22.1283 27.6662 22.1148 27.6677 21.7703 27.4926C20.2264 26.7075 19.3841 27.0593 17.5948 29.2367C17.2291 29.6815 17.2024 29.6935 17.0725 29.471C15.6477 27.0309 11.5248 27.1405 10.2302 29.6528C9.0597 31.9244 9.97137 34.5148 12.3545 35.687C12.8194 35.9156 13.5004 36.3848 13.8683 36.73C16.264 38.9771 19.3819 38.0489 19.8281 34.956C20.3154 31.5768 23.3237 29.3457 25.0733 31.0662C25.4974 31.4829 25.4959 31.4742 25.2444 32.0657C25.0399 32.5473 25.0669 33.9441 25.2837 34.0885C25.3442 34.1286 25.5579 34.3992 25.759 34.6894C25.9598 34.9795 26.5899 35.703 27.1589 36.297C28.3559 37.5464 28.3537 37.4809 27.2246 38.4432C26.0483 39.4451 25.9055 40.0128 26.578 41.0122C26.9802 41.6098 27.1813 41.6666 28.8957 41.6666C30.9665 41.6666 31.6958 41.1762 31.6678 39.8029C31.6159 37.2611 31.4673 36.4482 31.0549 36.4482C30.692 36.4482 29.9332 34.7123 29.9569 33.936C29.9676 33.5893 29.916 33.3227 29.8285 33.2696C29.5077 33.0742 29.7066 32.3027 30.4436 30.8856C31.312 29.2162 31.7793 25.8947 31.1458 25.8947C31.0887 25.8947 31.042 25.8249 31.042 25.7395C31.042 25.654 30.864 24.945 30.6465 24.1636L30.2514 22.7429L30.6168 22.8036C31.4336 22.9392 32.7073 23.358 33.6377 23.7967C34.7612 24.3266 34.7514 24.2632 33.8891 25.3777C33.1258 26.3642 33.5053 26.9264 34.5622 26.3754C35.2875 25.997 35.4441 26.1876 35.6357 27.6813C35.7825 28.8281 36.5431 28.9408 36.7507 27.8468C36.8959 27.0826 36.949 27.0665 37.4723 27.6294C37.9654 28.1599 38.141 28.2158 38.5018 27.9561C38.7257 27.7952 38.7269 27.7656 38.5359 27.0475C38.301 26.1637 38.262 26.2307 38.8906 26.4406C40.2761 26.9029 40.4019 26.0804 39.0773 25.221C38.8835 25.0954 38.9124 25.0848 39.2873 25.144C40.6884 25.3647 40.5678 24.3239 39.1485 23.9456C38.7186 23.8308 38.2052 23.5962 37.9915 23.4162C37.7799 23.2384 37.4084 23.0391 37.1652 22.973C36.8934 22.8993 36.5133 22.6369 36.1783 22.2912C35.5095 21.6021 34.9639 21.1875 34.1508 20.7503C33.8084 20.5661 33.5323 20.3686 33.5369 20.3113C33.5418 20.2542 33.197 20.1207 32.7708 20.015C32.3446 19.9094 31.9961 19.8565 31.9964 19.8979C31.9964 19.9389 31.5395 19.9559 30.9812 19.9347L29.9658 19.897L30.4992 19.297C34.6414 14.6409 30.2606 7.17932 24.1506 8.48406ZM25.6003 14.2281C29.4972 14.8948 30.2154 18.0874 26.8684 19.865C26.2991 20.1675 22.0294 20.2717 21.3745 19.9993C20.5436 19.6539 19.2459 17.0272 19.2395 15.6781C19.2327 14.2471 19.249 14.2344 21.3831 14.0019C22.0948 13.9243 24.6152 14.0596 25.6003 14.2281Z" fill="black"/>
</svg>
