<svg width="50" height="50" viewBox="0 0 50 50" fill="none" xmlns="http://www.w3.org/2000/svg">
<path d="M6 10C6 7.79086 7.79086 6 10 6H40C42.2091 6 44 7.79086 44 10V40C44 42.2091 42.2091 44 40 44H10C7.79086 44 6 42.2091 6 40V10Z" fill="#414042"/>
<path d="M24.6647 38.8439C20.8587 38.8509 17.2045 37.3595 14.5003 34.6953C13.1613 33.3804 12.0982 31.8141 11.3727 30.0872C10.6471 28.3604 10.2735 26.5074 10.2735 24.6357C10.2723 21.3872 11.3971 18.2375 13.4584 15.7179C16.0842 16.2333 17.9759 14.0776 17.8969 12.0946C19.9813 10.9965 22.3047 10.4241 24.6633 10.4276V17.531C22.7393 17.5244 20.8912 18.2775 19.5246 19.6249C18.8542 20.2779 18.3216 21.0575 17.958 21.9179C17.5944 22.7784 17.4071 23.7023 17.407 24.6357C17.4073 25.5693 17.5948 26.4934 17.9584 27.354C18.322 28.2146 18.8544 28.9945 19.5246 29.648C20.8913 30.995 22.7394 31.7475 24.6633 31.7405C26.5867 31.7473 28.4343 30.9948 29.8006 29.648C30.4712 28.9948 31.0039 28.215 31.3675 27.3543C31.7311 26.4936 31.9183 25.5693 31.9182 24.6357C31.9185 23.7023 31.7313 22.7782 31.3677 21.9177C31.004 21.0573 30.4712 20.2777 29.8006 19.6249C28.4345 18.2777 26.5869 17.5247 24.6633 17.531V10.4276C28.4694 10.4213 32.1235 11.9132 34.8278 14.5775C36.166 15.8923 37.2282 17.4585 37.9526 19.1852C38.677 20.9119 39.0492 22.7647 39.0474 24.6357C39.05 26.5681 38.6525 28.4803 37.8799 30.2533C31.921 27.9768 28.0783 33.7403 29.7964 37.9128C28.1571 38.5317 26.4181 38.8482 24.6647 38.8467V38.8439Z" fill="white"/>
<path d="M16.3849 12.1787C16.3849 12.6106 16.2562 13.0328 16.0149 13.392C15.7737 13.7511 15.4309 14.031 15.0297 14.1963C14.6286 14.3616 14.1872 14.4048 13.7614 14.3205C13.3356 14.2363 12.9444 14.0283 12.6374 13.7229C12.3304 13.4175 12.1213 13.0284 12.0366 12.6047C11.9519 12.1811 11.9954 11.742 12.1615 11.343C12.3277 10.9439 12.6091 10.6029 12.9701 10.3629C13.3311 10.123 13.7555 9.99488 14.1897 9.99488C14.7719 9.99488 15.3303 10.225 15.7419 10.6345C16.1536 11.0441 16.3849 11.5995 16.3849 12.1787Z" fill="#D7DF23"/>
<path d="M27.8017 24.6356C27.802 25.2531 27.6181 25.8569 27.2734 26.3705C26.9287 26.8842 26.4386 27.2845 25.865 27.521C25.2915 27.7575 24.6604 27.8194 24.0515 27.699C23.4426 27.5786 22.8833 27.2812 22.4443 26.8445C22.0053 26.4078 21.7064 25.8514 21.5854 25.2457C21.4643 24.6399 21.5266 24.0121 21.7643 23.4416C22.002 22.8711 22.4044 22.3835 22.9208 22.0406C23.4371 21.6976 24.044 21.5147 24.6648 21.515C25.4968 21.515 26.2947 21.8438 26.8829 22.429C27.4712 23.0142 27.8017 23.8079 27.8017 24.6356Z" fill="#D7DF23"/>
<path d="M39.7265 35.7387C39.7265 36.5825 39.475 37.4074 39.0037 38.109C38.5325 38.8107 37.8626 39.3575 37.079 39.6804C36.2953 40.0033 35.4329 40.0878 34.601 39.9232C33.769 39.7586 33.0048 39.3522 32.405 38.7556C31.8052 38.1589 31.3967 37.3987 31.2312 36.571C31.0658 35.7434 31.1507 34.8856 31.4753 34.106C31.7999 33.3264 32.3496 32.66 33.0549 32.1912C33.7602 31.7224 34.5894 31.4722 35.4377 31.4722C36.5752 31.4722 37.666 31.9217 38.4704 32.7218C39.2747 33.5219 39.7265 34.6071 39.7265 35.7387Z" fill="#D7DF23"/>
</svg>
