<svg width="50" height="50" viewBox="0 0 50 50" fill="none" xmlns="http://www.w3.org/2000/svg">
<path fill-rule="evenodd" clip-rule="evenodd" d="M29.117 9C27.5817 9 26.0668 9.33172 24.9994 9.76725C23.9331 9.33172 22.4182 9 20.8818 9C14.1122 9 8 15.3683 8 24.1063C8 33.633 15.8226 41 24.9994 41C34.1762 41 42 33.633 42 24.1063C41.9988 15.3683 35.8865 9 29.117 9ZM24.9994 14.1882C26.3043 14.9602 28.0268 17.1975 28.0268 19.72C28.0268 21.5706 26.7997 23.0276 24.9994 23.0276C23.1991 23.0276 21.9721 21.5706 21.9721 19.72C21.9721 17.1975 23.6956 14.9602 24.9994 14.1882ZM24.9994 36.838C17.9828 36.838 12.1788 31.2239 12.1788 24.0228C12.1788 17.4493 16.9477 12.9567 20.6947 13.125C18.9196 14.885 17.8437 17.4481 17.8437 19.9312C17.8437 24.1993 21.2488 27.192 24.9994 27.192C28.75 27.192 32.1552 24.1993 32.1552 19.9312C32.1552 17.4481 31.078 14.885 29.3042 13.125C33.0523 12.9579 37.82 17.4493 37.82 24.0228C37.82 31.2239 32.0148 36.838 24.9994 36.838Z" fill="#090F24"/>
</svg>
