<svg width="50" height="50" viewBox="0 0 50 50" fill="none" xmlns="http://www.w3.org/2000/svg">
<path d="M23.4 12.8501C23.4 12.7501 23.5 12.7501 23.5 12.6501C23.6 12.5501 23.6 12.4501 23.7 12.3501C24 12.0501 24.3 11.6501 24.6 11.2501L24.8 10.9501L24.9 10.8501C25 10.7501 25.1 10.6501 25.2 10.5501C22.9 9.35015 21 10.1501 19.2 7.15015C18.3 8.65015 17.7 10.2501 17.6 12.0501C19.5 11.7501 21.5 12.0501 23.4 12.8501ZM17.8 16.1501C17.6 15.1501 17.5 14.0501 17.5 12.9501C17.1 12.9501 12.3 13.5501 9.90004 15.6501C12.2 16.7501 12 17.5501 13 19.3501C14.3 17.8501 15.9 16.7501 17.8 16.1501ZM13.5 20.2501C13.4 20.3501 13.4 20.3501 13.3 20.4501C11.5 23.0501 11.8 24.4501 9.10004 26.2501C10.7 27.0501 12.3 27.6501 14 28.0501C14 26.0501 14.5 24.1501 15.6 22.4501C14.9 21.7501 14.2 21.0501 13.5 20.2501Z" fill="#F99E25"/>
<path d="M23.7 14.05C23.6 13.95 23.5 13.95 23.3 13.85H23.2C23.1 13.85 23 13.75 22.9 13.65C22.7 13.55 22.6 13.55 22.4 13.45C21.8 13.25 21.2 13.05 20.5 12.95C19.8 12.85 19.1 12.75 18.3 12.85C18 12.85 17.7 12.85 17.4 12.95C17.4 14.05 17.5 15.05 17.7 16.15C18.2 15.95 18.7 15.85 19.2 15.85C21.3 15.65 22.7 15.95 23.7 16.85C24.6 16.65 25.5 16.65 26.4 16.75C25.9 15.55 24.9 14.65 23.7 14.05ZM29 14.45C28.9 14.25 28.8 14.05 28.7 13.85C27.8 12.45 26.6 11.3501 25.2 10.5501C25.1 10.6501 25 10.7501 24.9 10.8501L24.8 10.9501L24.6 11.2501C24.3 11.6501 24 11.9501 23.7 12.3501C23.6 12.4501 23.6 12.5501 23.5 12.6501C23.5 12.7501 23.4 12.7501 23.4 12.8501L23.7 12.95C25.9 13.95 27.2 15.45 27.6 17.05C28.3 17.35 28.9 17.85 29.3 18.55C29.8 17.25 29.7 15.75 29 14.45ZM19.9 24.35C19.4 23.15 19.4 21.85 19.8 20.65C18.5 20.95 17.4 21.65 16.6 22.65C15.5 24.25 15 26.15 15 28.15C15.2 28.15 15.4 28.25 15.6 28.25H15.8C16 28.25 16.3 28.35 16.5 28.35C16.7 28.35 16.9 28.35 17.1 28.35H17.3C17.5 28.35 17.7 28.35 17.9 28.35C18 28.35 18.1 28.35 18.2 28.35H18.3C18.4 28.35 18.6 28.35 18.7 28.35C19.6 28.25 20.5 28.05 21.3 27.75C21.7 27.65 22 27.45 22.4 27.15C21.2 26.65 20.4 25.65 19.9 24.35ZM22.4 17.05C22.3 17.05 22.3 17.05 22.4 17.05C22.3 17.05 22.2 16.95 22.2 16.95C22.1 16.95 22.1 16.95 22 16.85H21.6C21.5 16.85 21.5 16.85 21.4 16.85H21C20.9 16.85 20.9 16.85 20.8 16.85H20.3C20.1 16.85 19.9 16.85 19.8 16.85H19.7C19.5 16.85 19.3 16.85 19.2 16.95H19.1C18.9 16.95 18.7 17.05 18.6 17.05C18.4 17.05 18.3 17.15 18.1 17.15H18C17.9 17.15 17.8 17.25 17.6 17.25C17.4 17.35 17.2 17.45 17 17.55H16.9C16.8 17.55 16.7 17.65 16.6 17.75L16.5 17.85C16.4 17.95 16.2 18.05 16.1 18.05C15.4 18.45 14.8 19.05 14.2 19.55C14 19.75 13.8 19.95 13.6 20.25C14.3 21.05 15 21.75 15.7 22.45C15.7 22.35 15.8 22.35 15.8 22.25C16.9 20.85 18.4 19.95 20.1 19.75C20.1 19.65 20.2 19.65 20.2 19.55C20.4 19.25 20.6 18.95 20.8 18.75C21 18.55 21.2 18.25 21.5 18.05C21.9 17.75 22.3 17.55 22.7 17.35C22.6 17.15 22.5 17.15 22.4 17.05Z" fill="#F57F37"/>
<path d="M27.8999 37.85C27.8999 37.95 27.8999 37.95 27.7999 38.05C27.7999 38.15 27.6999 38.25 27.5999 38.35C27.3999 38.75 27.0999 39.15 26.8999 39.55L26.6999 39.85V39.9501C26.5999 40.0501 26.4999 40.25 26.4999 40.35C28.9999 41.25 30.7999 40.15 32.9999 42.85C33.6999 41.25 33.9999 39.55 33.8999 37.75C31.8999 38.35 29.8999 38.35 27.8999 37.85ZM32.9999 33.85C33.2999 34.85 33.5999 35.9501 33.7999 36.9501C34.1999 36.85 38.8999 35.65 40.8999 33.25C38.4999 32.45 38.5999 31.75 37.2999 29.95C36.1999 31.65 34.6999 32.95 32.9999 33.85ZM36.5999 29.15L36.6999 28.95C38.0999 26.15 37.6999 24.75 39.9999 22.65C38.3999 22.15 36.6999 21.75 34.8999 21.55C35.1999 23.55 34.8999 25.55 34.0999 27.35C35.0999 27.85 35.8999 28.55 36.5999 29.15Z" fill="#F99E25"/>
<path d="M27.4001 36.7502C27.5001 36.7502 27.7001 36.8502 27.8001 36.8502H27.9001C28.0001 36.8502 28.1001 36.9502 28.3001 36.9502C28.5001 36.9502 28.7001 37.0502 28.8001 37.0502C29.4001 37.1502 30.1001 37.2502 30.7001 37.2502C31.4001 37.2502 32.2001 37.2502 32.9001 37.0502C33.2001 36.9502 33.5001 36.9502 33.7001 36.8502C33.5001 35.7502 33.3001 34.7502 32.9001 33.7502C32.4001 33.9502 32.0001 34.1502 31.5001 34.2502C29.5001 34.7502 28.0001 34.5502 26.9001 33.9502C26.0001 34.2502 25.1001 34.4502 24.2001 34.4502C25.0001 35.5502 26.1001 36.3502 27.4001 36.7502ZM22.1001 37.1502C22.2001 37.3502 22.4001 37.5502 22.5001 37.7502C23.6001 38.9502 24.9001 39.9502 26.5001 40.4502L26.7001 40.0502L26.6999 39.9501L26.9001 39.6502C27.2001 39.2502 27.4001 38.8502 27.6001 38.4502C27.7001 38.3502 27.7001 38.2502 27.8001 38.1502C27.8001 38.0502 27.9001 38.0502 27.9001 37.9502C27.8001 37.9502 27.6001 37.8502 27.5001 37.8502C25.2001 37.1502 23.7001 35.9502 23.1001 34.3502C22.4001 34.1502 21.7001 33.7502 21.2001 33.1502C21.0001 34.4502 21.3001 35.9502 22.1001 37.1502ZM29.8001 25.9502C30.4001 27.0502 30.7001 28.3502 30.5001 29.5502C31.7001 29.0502 32.7001 28.2502 33.4001 27.0502C34.2001 25.2502 34.5001 23.3502 34.2001 21.4502C34.0001 21.4502 33.8001 21.4502 33.6001 21.4502H33.4001C33.2001 21.4502 32.9001 21.4502 32.7001 21.4502C32.5001 21.4502 32.3001 21.4502 32.1001 21.4502H31.9001C31.7001 21.4502 31.5001 21.4502 31.3001 21.5502C31.2001 21.5502 31.1001 21.5502 31.0001 21.5502H30.9001C30.8001 21.5502 30.6001 21.6502 30.5001 21.6502C29.6001 21.8502 28.8001 22.1502 28.0001 22.6502C27.6001 22.8502 27.3001 23.0502 27.0001 23.3502C28.1001 23.9502 29.1001 24.8502 29.8001 25.9502ZM28.3001 33.5502C28.4001 33.5502 28.5001 33.5502 28.5001 33.5502C28.6001 33.5502 28.6001 33.5502 28.7001 33.5502H29.1001C29.2001 33.5502 29.2001 33.5502 29.3001 33.5502H29.4001C29.5001 33.5502 29.5001 33.5502 29.6001 33.5502H29.8001C29.9001 33.5502 29.9001 33.5502 30.0001 33.5502H30.4001C30.6001 33.5502 30.7001 33.4502 30.9001 33.4502H31.0001C31.2001 33.4502 31.3001 33.3502 31.5001 33.3502H31.6001C31.8001 33.3502 31.9001 33.2502 32.1001 33.1502C32.3001 33.0502 32.4001 33.0502 32.6001 32.9502L32.7001 32.8502C32.8001 32.7502 32.9001 32.7502 33.0001 32.6502C33.2001 32.5502 33.4001 32.4502 33.6001 32.3502H33.7001C33.8001 32.2502 33.9001 32.2502 34.0001 32.1502L34.1001 32.0502C34.2001 31.9502 34.3001 31.8502 34.5001 31.7502C35.1001 31.2502 35.7001 30.6502 36.2001 29.9502C36.4001 29.7502 36.5001 29.4502 36.7001 29.1502C35.9001 28.4502 35.1001 27.8502 34.3001 27.3502C34.3001 27.4502 34.2001 27.5502 34.2001 27.5502C33.2001 29.1502 31.8001 30.2502 30.2001 30.6502C30.2001 30.7502 30.2001 30.7502 30.1001 30.8502C30.0001 31.1502 29.8001 31.4502 29.6001 31.7502C29.4001 32.0502 29.2001 32.2502 29.0001 32.5502C28.7001 32.8502 28.3001 33.1502 27.9001 33.4502C28.0001 33.4502 28.2001 33.5502 28.3001 33.5502Z" fill="#F57F37"/>
</svg>
