<svg width="50" height="50" viewBox="0 0 50 50" fill="none" xmlns="http://www.w3.org/2000/svg">
<path d="M25 37.7356C18.98 37.7356 13.9359 33.5334 12.6132 27.9122H15.7628L10.8445 20.1792L10.7474 20.3327C10.2997 21.6953 10.05 23.1457 10.0148 24.6479H10.0093C10.0065 24.7653 10 24.8828 10 25.0003C10 25.2519 10.0065 25.5007 10.0194 25.7504C10.0305 25.9632 10.0472 26.1741 10.0657 26.3859C10.0694 26.4174 10.0703 26.4488 10.0731 26.4793C10.8186 34.0588 17.228 40 25 40C30.5519 40 35.4055 36.966 37.9992 32.4705L36.5941 30.2616C34.5868 34.6646 30.1477 37.7356 25 37.7356Z" fill="#2C54CD"/>
<path d="M40 24.9997C40 24.5622 39.9778 24.1293 39.9399 23.701C39.939 23.6798 39.9371 23.6566 39.9343 23.6354C39.2433 16.0023 32.8117 10 25 10C19.3722 10 14.4623 13.1172 11.8963 17.7126L13.3143 19.9428C15.2753 15.4297 19.7746 12.2653 25 12.2653C31.1134 12.2653 36.2296 16.5961 37.4544 22.3487H34.1863L39.1055 30.0807L39.1212 30.0567C39.5782 28.7867 39.8585 27.4352 39.9556 26.0329H39.9611C39.9843 25.6925 40 25.3475 40 24.9997Z" fill="#2C54CD"/>
</svg>
