<svg width="50" height="50" viewBox="0 0 50 50" fill="none" xmlns="http://www.w3.org/2000/svg">
<path d="M37.4385 27.1165C37.4385 27.1165 37.407 27.0221 37.3755 26.8647C36.9663 25.039 36.5886 20.947 39.2327 19.2158C41.8767 17.4846 44.4578 19.4991 44.867 20.6008C45.4336 22.1432 44.1431 22.8671 41.8767 23.4652C38.2884 24.378 37.5015 26.6758 37.4385 27.1165Z" fill="#0D6DC0"/>
<path d="M38.1939 29.9495C32.8743 27.3999 33.4724 23.1505 32.8114 21.0416C29.0342 7.97867 21.5112 7.00289 20.6298 7.00289C18.5524 6.93993 14.8696 7.88424 14.5863 12.0392C14.2085 17.9568 22.6129 17.5791 25.7291 19.9713C27.8695 21.6081 29.3175 25.2595 25.4143 24.4725C20.6928 22.7098 15.1529 23.2449 12.855 24.1892C8.98338 25.7946 7.5984 27.872 7.22068 28.3127C6.84296 28.7534 2.02699 35.3635 7.88169 40.809C12.4773 45.0899 18.7412 42.0681 21.1964 38.6686C22.6758 36.6226 23.7146 34.6081 24.8792 32.8139C29.4748 27.274 34.9518 30.8938 36.3998 33.4749C38.6031 37.4095 40.177 39.3926 42.16 38.0705C44.1745 36.7485 43.9227 32.688 38.1939 29.9495Z" fill="#0D6DC0"/>
</svg>
