<svg width="50" height="50" viewBox="0 0 50 50" fill="none" xmlns="http://www.w3.org/2000/svg">
<mask id="mask0_9176_15170" style="mask-type:alpha" maskUnits="userSpaceOnUse" x="6" y="6" width="38" height="38">
<circle cx="25" cy="25" r="19" fill="#C4C4C4"/>
</mask>
<g mask="url(#mask0_9176_15170)">
<path d="M25.1796 45.651C36.3642 45.651 45.4249 36.6082 45.4249 25.4457C45.4249 14.2833 36.3642 5.24048 25.1796 5.24048C13.995 5.24048 4.93433 14.2833 4.93433 25.4457C4.93433 36.6082 13.995 45.651 25.1796 45.651Z" fill="url(#paint0_linear_9176_15170)"/>
<g opacity="0.4">
<path fill-rule="evenodd" clip-rule="evenodd" d="M28.9001 12.2173L23.7204 15.7551L12.1386 -1.11056L17.3183 -4.64838L28.9001 12.2173Z" fill="url(#paint1_linear_9176_15170)"/>
<path fill-rule="evenodd" clip-rule="evenodd" d="M14.927 15.8161L9.74723 19.354L-1.83461 2.49592L3.35277 -1.04953L14.927 15.8161Z" fill="url(#paint2_linear_9176_15170)"/>
<path fill-rule="evenodd" clip-rule="evenodd" d="M19.3963 14.3749L14.2165 17.9127L2.64233 1.04705L7.82207 -2.49078L19.3963 14.3749Z" fill="url(#paint3_linear_9176_15170)"/>
<path fill-rule="evenodd" clip-rule="evenodd" d="M24.6066 15.5641L19.4269 19.102L7.85269 2.24393L13.0324 -1.30152L24.6066 15.5641Z" fill="url(#paint4_linear_9176_15170)"/>
<path fill-rule="evenodd" clip-rule="evenodd" d="M38.9539 13.8029L33.7742 17.3408L22.2 0.475113L27.3797 -3.06271L38.9539 13.8029Z" fill="url(#paint5_linear_9176_15170)"/>
<path fill-rule="evenodd" clip-rule="evenodd" d="M26.4937 12.217L21.3139 15.7548L9.82375 -0.996474L15.0035 -4.5343L26.4937 12.217Z" fill="url(#paint6_linear_9176_15170)"/>
<path fill-rule="evenodd" clip-rule="evenodd" d="M48.2211 34.7251L43.0413 38.2629L31.5435 21.5116L36.7233 17.9738L48.2211 34.7251Z" fill="url(#paint7_linear_9176_15170)"/>
<path fill-rule="evenodd" clip-rule="evenodd" d="M28.5335 18.5836L23.3537 22.129L7.47834 -1.01167L12.6581 -4.55712L28.5335 18.5836Z" fill="url(#paint8_linear_9176_15170)"/>
<path fill-rule="evenodd" clip-rule="evenodd" d="M42.4605 57.6674L37.2808 61.2053L21.4054 38.0722L26.5851 34.5344L42.4605 57.6674Z" fill="url(#paint9_linear_9176_15170)"/>
<path fill-rule="evenodd" clip-rule="evenodd" d="M19.297 17.5924L14.1173 21.1302L-1.74284 -1.98765L3.4369 -5.52547L19.297 17.5924Z" fill="url(#paint10_linear_9176_15170)"/>
<path fill-rule="evenodd" clip-rule="evenodd" d="M55.4329 35.2359L50.2531 38.7737L34.3854 15.6559L39.5651 12.118L55.4329 35.2359Z" fill="url(#paint11_linear_9176_15170)"/>
<path fill-rule="evenodd" clip-rule="evenodd" d="M14.438 29.1133L9.2583 32.6512L-6.60944 9.53331L-1.42969 5.99549L14.438 29.1133Z" fill="url(#paint12_linear_9176_15170)"/>
<path fill-rule="evenodd" clip-rule="evenodd" d="M56.6093 41.0382L51.4296 44.5761L35.5619 21.4582L40.7416 17.9204L56.6093 41.0382Z" fill="url(#paint13_linear_9176_15170)"/>
<path fill-rule="evenodd" clip-rule="evenodd" d="M34.1564 12.2781L28.9767 15.8159L13.1089 -7.30958L18.2887 -10.8474L34.1564 12.2781Z" fill="url(#paint14_linear_9176_15170)"/>
<path fill-rule="evenodd" clip-rule="evenodd" d="M35.9439 53.8247L30.7642 57.3625L14.8965 34.2446L20.0762 30.7068L35.9439 53.8247Z" fill="url(#paint15_linear_9176_15170)"/>
<path fill-rule="evenodd" clip-rule="evenodd" d="M28.2813 11.912L23.1016 15.4499L7.23387 -7.66799L12.4136 -11.2058L28.2813 11.912Z" fill="url(#paint16_linear_9176_15170)"/>
<path fill-rule="evenodd" clip-rule="evenodd" d="M15.9278 45.4604L10.7481 48.9983L-0.321904 32.8646L4.85784 29.3268L15.9278 45.4604Z" fill="url(#paint17_linear_9176_15170)"/>
<path fill-rule="evenodd" clip-rule="evenodd" d="M52.8965 33.1771L47.7167 36.7225L36.1273 19.8264L41.307 16.2886L52.8965 33.1771Z" fill="url(#paint18_linear_9176_15170)"/>
<path fill-rule="evenodd" clip-rule="evenodd" d="M30.0231 52.2388L24.8433 55.7766L13.2539 38.8881L18.4336 35.3503L30.0231 52.2388Z" fill="url(#paint19_linear_9176_15170)"/>
</g>
<path d="M14.2698 26.7038C14.2698 26.9021 14.2316 27.0851 14.1476 27.2452C14.0636 27.4129 13.949 27.5502 13.7962 27.6721C13.6434 27.7865 13.4677 27.878 13.2614 27.9466C13.0551 28.0153 12.8336 28.0458 12.5891 28.0458C12.2988 28.0458 12.0314 28.0076 11.8022 27.9238C11.573 27.8475 11.3362 27.7103 11.107 27.5273L11.489 26.9021C11.6723 27.0546 11.8404 27.1689 11.9932 27.2375C12.1384 27.3062 12.2912 27.3443 12.4516 27.3443C12.6426 27.3443 12.7954 27.2985 12.91 27.1994C13.0246 27.1003 13.0857 26.9707 13.0857 26.8029C13.0857 26.7343 13.078 26.6657 13.0551 26.6047C13.0322 26.5437 12.994 26.4751 12.9405 26.4141C12.8871 26.3455 12.8107 26.2768 12.7113 26.2006C12.612 26.1243 12.4898 26.0252 12.3294 25.9109C12.2071 25.827 12.0925 25.7431 11.9779 25.6516C11.8633 25.5601 11.764 25.4686 11.6723 25.3619C11.5807 25.2628 11.5043 25.1484 11.4508 25.0188C11.3973 24.8968 11.3667 24.7519 11.3667 24.5918C11.3667 24.4088 11.4049 24.2411 11.4813 24.0886C11.5577 23.9361 11.6647 23.8065 11.7946 23.6997C11.9244 23.593 12.0849 23.5091 12.2759 23.4481C12.4592 23.3871 12.6655 23.3566 12.8871 23.3566C13.1162 23.3566 13.3454 23.3871 13.5594 23.4481C13.7809 23.5091 13.9795 23.6006 14.1629 23.715L13.8115 24.2792C13.5746 24.1115 13.3225 24.0276 13.0628 24.0276C12.9023 24.0276 12.7725 24.0657 12.6655 24.1496C12.5585 24.2334 12.5127 24.3402 12.5127 24.4622C12.5127 24.5842 12.5585 24.6909 12.6502 24.7824C12.7419 24.8815 12.9023 25.0112 13.1239 25.1865C13.3531 25.3543 13.5441 25.4991 13.6892 25.6287C13.842 25.7507 13.9566 25.8727 14.0407 25.9795C14.1247 26.0939 14.1858 26.2006 14.224 26.315C14.2546 26.4446 14.2698 26.5666 14.2698 26.7038ZM18.2272 25.6516C18.2272 25.827 18.212 26.01 18.1738 26.2082C18.1356 26.4065 18.0744 26.5971 17.9904 26.7648C17.9064 26.9326 17.7918 27.0774 17.6466 27.1842C17.5015 27.2985 17.3257 27.3519 17.1118 27.3519C16.7528 27.3519 16.4701 27.207 16.2562 26.9249C16.0499 26.6352 15.943 26.2463 15.943 25.7431C15.943 25.2323 16.0499 24.8205 16.2562 24.5232C16.4625 24.2182 16.7528 24.0733 17.1118 24.0733C17.4556 24.0733 17.723 24.2182 17.9216 24.5003C18.1279 24.7824 18.2272 25.1636 18.2272 25.6516ZM19.4802 25.6059C19.4802 25.2704 19.4343 24.9654 19.335 24.6985C19.2357 24.4241 19.1058 24.1877 18.9301 23.9895C18.7544 23.7912 18.5405 23.6387 18.3036 23.532C18.0592 23.4252 17.7918 23.3642 17.5015 23.3642C17.1806 23.3642 16.8979 23.4252 16.6458 23.5472C16.4013 23.6692 16.1721 23.8598 15.9659 24.1267L15.9582 23.4786H14.8046V30.173H15.9582V27.3443C16.0728 27.4739 16.1798 27.5883 16.2867 27.6721C16.3937 27.7636 16.5006 27.8323 16.6076 27.8933C16.7146 27.9466 16.8292 27.9924 16.9514 28.0153C17.0736 28.0381 17.2035 28.0534 17.341 28.0534C17.6466 28.0534 17.9293 27.9924 18.1967 27.8704C18.4564 27.7484 18.6856 27.5807 18.8766 27.3595C19.0676 27.1384 19.2204 26.8792 19.3274 26.5895C19.4267 26.2845 19.4802 25.9642 19.4802 25.6059ZM19.992 27.939H21.1762V21.3818H19.992V27.939ZM26.2108 27.939V23.471H25.0266V25.8804C25.0266 26.0939 25.019 26.2616 25.0037 26.376C24.9884 26.4903 24.9578 26.5971 24.912 26.6962C24.7439 27.0622 24.4383 27.2528 23.9952 27.2528C23.6514 27.2528 23.407 27.1308 23.2695 26.8792C23.216 26.7877 23.1778 26.6733 23.1549 26.559C23.1319 26.437 23.1243 26.2692 23.1243 26.0405V23.4862H21.9401V26.0252C21.9401 26.2006 21.9401 26.3455 21.9478 26.4675C21.9478 26.5895 21.9554 26.6962 21.9707 26.7877C21.986 26.8792 21.9936 26.9631 22.0089 27.0317C22.0242 27.1003 22.0471 27.1689 22.0777 27.2375C22.1846 27.512 22.3603 27.7179 22.6048 27.8628C22.8493 28 23.1472 28.0686 23.4987 28.0686C23.8119 28.0686 24.0946 28.0153 24.3314 27.9009C24.5682 27.7865 24.805 27.6112 25.0342 27.3595V27.9543L26.2108 27.939ZM31.2988 27.939V25.4076C31.2988 25.2323 31.2988 25.0874 31.2912 24.9654C31.2912 24.8434 31.2835 24.7367 31.2683 24.6452C31.253 24.5537 31.2453 24.4774 31.2224 24.4088C31.2071 24.3402 31.1842 24.2716 31.1613 24.2106C31.0544 23.9437 30.8786 23.7378 30.6342 23.593C30.3897 23.4481 30.0917 23.3719 29.7403 23.3719C29.4271 23.3719 29.1444 23.4252 28.9076 23.5396C28.6708 23.654 28.4339 23.8293 28.2047 24.081V23.4862H27.0129V27.9466H28.2047V25.5373C28.2047 25.3314 28.2124 25.1636 28.2277 25.0493C28.2429 24.9349 28.2735 24.8282 28.3117 24.7214C28.3881 24.5461 28.5103 24.4088 28.6631 24.3173C28.8235 24.2258 29.0145 24.1801 29.2361 24.1801C29.5799 24.1801 29.8244 24.3021 29.9619 24.5537C30.0153 24.6452 30.0535 24.7595 30.0765 24.8739C30.0994 24.9959 30.107 25.1636 30.107 25.3924V27.9466L31.2988 27.939ZM36.1883 27.6416L34.3929 25.4076L35.9132 23.7836L35.0194 23.4024L33.4379 25.2323H33.3157V21.3818H32.1239V27.939H33.3157V25.5601L35.0958 28.0229L36.1883 27.6416ZM40.7874 26.0405V25.3085L37.212 23.5167V24.3173L39.9852 25.6669L37.212 27.0317V27.817L40.7874 26.0405ZM37.5558 22.3578C37.3342 22.3578 37.1585 22.5332 37.1585 22.7619C37.1585 22.9906 37.3342 23.166 37.5558 23.166C37.7773 23.166 37.953 22.9906 37.953 22.7619C37.953 22.5408 37.7773 22.3578 37.5558 22.3578ZM37.5558 22.4264C37.7315 22.4264 37.8766 22.5789 37.8766 22.7695C37.8766 22.9601 37.7315 23.1126 37.5558 23.105C37.3801 23.105 37.2349 22.9525 37.2349 22.7619C37.2349 22.5713 37.3801 22.4264 37.5558 22.4264ZM37.4794 22.8H37.5252C37.5863 22.8 37.6092 22.8229 37.6245 22.8763C37.6322 22.9373 37.6474 22.9754 37.6551 22.9906H37.7315C37.7238 22.9754 37.7162 22.9525 37.7009 22.8763C37.6933 22.8076 37.6627 22.7771 37.6245 22.7695V22.7619C37.6704 22.7466 37.7086 22.7085 37.7086 22.6551C37.7086 22.6094 37.6933 22.5789 37.6704 22.5637C37.6398 22.5408 37.6016 22.5332 37.5329 22.5332C37.4794 22.5332 37.4412 22.5408 37.403 22.5408V22.9906H37.4717L37.4794 22.8ZM37.4794 22.5942C37.4947 22.5942 37.5099 22.5865 37.5329 22.5865C37.6092 22.5865 37.6398 22.6246 37.6398 22.6628C37.6398 22.7161 37.5863 22.739 37.5329 22.739H37.4794V22.5942Z" fill="white"/>
</g>
<defs>
<linearGradient id="paint0_linear_9176_15170" x1="41.93" y1="14.7948" x2="9.19455" y2="35.6926" gradientUnits="userSpaceOnUse">
<stop stop-color="#EC0677"/>
<stop offset="0.1649" stop-color="#F05A22"/>
<stop offset="0.2486" stop-color="#F26A21"/>
<stop offset="0.3729" stop-color="#F58A1F"/>
<stop offset="0.4425" stop-color="#F37720"/>
<stop offset="0.5441" stop-color="#F16222"/>
<stop offset="0.6102" stop-color="#F05A22"/>
<stop offset="0.6666" stop-color="#F05627"/>
<stop offset="0.7295" stop-color="#EF4934"/>
<stop offset="0.7955" stop-color="#EE334A"/>
<stop offset="0.8632" stop-color="#ED1669"/>
<stop offset="0.9045" stop-color="#EC0080"/>
</linearGradient>
<linearGradient id="paint1_linear_9176_15170" x1="3.2675" y1="-4.65299" x2="43.2646" y2="57.2361" gradientUnits="userSpaceOnUse">
<stop offset="0.5027" stop-color="#E20782"/>
<stop offset="1" stop-color="white" stop-opacity="0"/>
</linearGradient>
<linearGradient id="paint2_linear_9176_15170" x1="12.1248" y1="7.44504" x2="43.8361" y2="56.5132" gradientUnits="userSpaceOnUse">
<stop offset="0.0374" stop-color="#E20782" stop-opacity="0.1"/>
<stop offset="1" stop-color="#E20782"/>
</linearGradient>
<linearGradient id="paint3_linear_9176_15170" x1="12.1215" y1="7.4366" x2="43.8269" y2="56.5179" gradientUnits="userSpaceOnUse">
<stop offset="0.0374" stop-color="#E20782" stop-opacity="0.1"/>
<stop offset="1" stop-color="#E20782"/>
</linearGradient>
<linearGradient id="paint4_linear_9176_15170" x1="12.1109" y1="7.44429" x2="43.8163" y2="56.5255" gradientUnits="userSpaceOnUse">
<stop offset="0.0374" stop-color="#E20782" stop-opacity="0.1"/>
<stop offset="1" stop-color="#E20782"/>
</linearGradient>
<linearGradient id="paint5_linear_9176_15170" x1="12.1234" y1="7.42502" x2="43.8288" y2="56.5063" gradientUnits="userSpaceOnUse">
<stop offset="0.0374" stop-color="#E20782" stop-opacity="0.1"/>
<stop offset="1" stop-color="#E20782"/>
</linearGradient>
<linearGradient id="paint6_linear_9176_15170" x1="3.1705" y1="-4.80463" x2="42.9229" y2="56.6993" gradientUnits="userSpaceOnUse">
<stop stop-color="#E20782"/>
<stop offset="0.7718" stop-color="#E20782" stop-opacity="0.1"/>
</linearGradient>
<linearGradient id="paint7_linear_9176_15170" x1="3.17207" y1="-4.80653" x2="42.9317" y2="56.6805" gradientUnits="userSpaceOnUse">
<stop offset="0.2128" stop-color="#E20782" stop-opacity="0.1"/>
<stop offset="1" stop-color="#E20782"/>
</linearGradient>
<linearGradient id="paint8_linear_9176_15170" x1="1.10119" y1="-6.26673" x2="42.1899" y2="59.809" gradientUnits="userSpaceOnUse">
<stop stop-color="#F89E1C" stop-opacity="0.2"/>
<stop offset="0.4534" stop-color="#F89E1C"/>
<stop offset="1" stop-color="#F89E1C" stop-opacity="0.15"/>
</linearGradient>
<linearGradient id="paint9_linear_9176_15170" x1="1.09603" y1="-6.28563" x2="42.2184" y2="59.8067" gradientUnits="userSpaceOnUse">
<stop stop-color="#F89E1C" stop-opacity="0.2"/>
<stop offset="0.5539" stop-color="#F89E1C" stop-opacity="0.5"/>
<stop offset="1" stop-color="#F89E1C" stop-opacity="0.15"/>
</linearGradient>
<linearGradient id="paint10_linear_9176_15170" x1="1.09621" y1="-6.28515" x2="42.2089" y2="59.8019" gradientUnits="userSpaceOnUse">
<stop stop-color="#F89E1C" stop-opacity="0.2"/>
<stop offset="0.4418" stop-color="#F89E1C"/>
<stop offset="1" stop-color="#F89E1C" stop-opacity="0.15"/>
</linearGradient>
<linearGradient id="paint11_linear_9176_15170" x1="1.11239" y1="-6.27701" x2="42.2317" y2="59.7965" gradientUnits="userSpaceOnUse">
<stop stop-color="#F89E1C" stop-opacity="0.2"/>
<stop offset="0.4418" stop-color="#F89E1C"/>
<stop offset="1" stop-color="#F89E1C" stop-opacity="0.15"/>
</linearGradient>
<linearGradient id="paint12_linear_9176_15170" x1="1.09672" y1="-6.28492" x2="42.216" y2="59.7887" gradientUnits="userSpaceOnUse">
<stop stop-color="#F89E1C" stop-opacity="0.2"/>
<stop offset="0.4419" stop-color="#F89E1C"/>
<stop offset="1" stop-color="#F89E1C" stop-opacity="0.15"/>
</linearGradient>
<linearGradient id="paint13_linear_9176_15170" x1="1.11519" y1="-6.28209" x2="42.2345" y2="59.7917" gradientUnits="userSpaceOnUse">
<stop stop-color="#F89E1C" stop-opacity="0.2"/>
<stop offset="0.4418" stop-color="#F89E1C"/>
<stop offset="1" stop-color="#F89E1C" stop-opacity="0.15"/>
</linearGradient>
<linearGradient id="paint14_linear_9176_15170" x1="1.11645" y1="-6.27444" x2="42.2188" y2="59.7908" gradientUnits="userSpaceOnUse">
<stop stop-color="#F89E1C" stop-opacity="0.2"/>
<stop offset="0.4418" stop-color="#F89E1C"/>
<stop offset="1" stop-color="#F89E1C" stop-opacity="0.15"/>
</linearGradient>
<linearGradient id="paint15_linear_9176_15170" x1="1.1125" y1="-6.28979" x2="42.2318" y2="59.7838" gradientUnits="userSpaceOnUse">
<stop stop-color="#F89E1C" stop-opacity="0.1"/>
<stop offset="0.4404" stop-color="#F89E1C" stop-opacity="0.5"/>
<stop offset="1" stop-color="#F89E1C" stop-opacity="0.15"/>
</linearGradient>
<linearGradient id="paint16_linear_9176_15170" x1="1.09873" y1="-6.29014" x2="42.218" y2="59.7834" gradientUnits="userSpaceOnUse">
<stop stop-color="#EC008C" stop-opacity="0.2"/>
<stop offset="0.4418" stop-color="#EC008C"/>
<stop offset="0.9409" stop-color="#EC008C" stop-opacity="0"/>
</linearGradient>
<linearGradient id="paint17_linear_9176_15170" x1="-2.55627" y1="-12.8349" x2="42.8687" y2="57.0811" gradientUnits="userSpaceOnUse">
<stop stop-color="#F89E1C" stop-opacity="0"/>
<stop offset="0.8492" stop-color="#F05A22"/>
</linearGradient>
<linearGradient id="paint18_linear_9176_15170" x1="-2.98264" y1="-13.1454" x2="42.697" y2="57.6095" gradientUnits="userSpaceOnUse">
<stop offset="0.3432" stop-color="#E20782" stop-opacity="0.1"/>
<stop offset="1" stop-color="#E20782"/>
</linearGradient>
<linearGradient id="paint19_linear_9176_15170" x1="14.2181" y1="34.8005" x2="27.42" y2="54.0221" gradientUnits="userSpaceOnUse">
<stop offset="0.2895" stop-color="#F05A22"/>
<stop offset="0.8575" stop-color="#E20782" stop-opacity="0.1"/>
</linearGradient>
</defs>
</svg>
