<svg width="50" height="50" viewBox="0 0 50 50" fill="none" xmlns="http://www.w3.org/2000/svg">
<path d="M8 15.5666L24.3839 6L41.0267 15.5666L41.0237 34.5015L24.5126 44L8 34.6045V15.5666Z" fill="white"/>
<path d="M26.4777 11.7742C26.8032 11.4744 27.2347 11.2912 27.7115 11.2912C28.7183 11.2912 29.5358 12.1073 29.5358 13.1155C29.5358 13.279 29.5116 13.438 29.4723 13.5894L30.856 14.4281C33.6008 16.0904 36.886 16.0889 39.54 14.7143L24.3839 6L20.5975 8.21187L26.4792 11.7757L26.4777 11.7742Z" fill="#00C29B"/>
<path d="M32.4411 27.1163L41.0237 22.1612V22.1642L41.0252 15.568L40.5059 15.2697C37.6869 17.4574 33.6992 17.8101 30.4654 15.8496L28.5896 14.7126C28.3292 14.8564 28.0295 14.9382 27.7115 14.9382C26.7048 14.9382 25.8872 14.1222 25.8872 13.1139C25.8872 13.1018 25.8887 13.0881 25.8887 13.076L19.2017 9.02472L15.1382 11.3971L22.3143 15.5407C22.6232 15.303 23.0077 15.1592 23.4271 15.1592C24.4338 15.1592 25.2514 15.9752 25.2514 16.9835C25.2514 17.0395 25.2484 17.094 25.2438 17.147L31.6766 20.8441V26.915C31.9521 26.9256 32.211 26.9952 32.4426 27.1148L32.4411 27.1163Z" fill="#00C29B"/>
<path d="M13.3261 24.1291V25.1087C13.9483 25.3993 14.3798 26.0291 14.3798 26.7604C14.3798 27.4916 13.9483 28.1214 13.3261 28.4121V37.6335L17.3229 39.9075V31.3446C16.6355 31.0842 16.145 30.4196 16.145 29.6414C16.145 28.8632 16.6476 28.182 17.3501 27.9276V20.8454L22.007 18.1263C21.7557 17.8145 21.6043 17.4163 21.6043 16.9848C21.6043 16.8713 21.6164 16.7608 21.6361 16.6533L13.8453 12.1553L8 15.5666V15.9947C11.1354 17.3633 13.3261 20.4896 13.3261 24.1291Z" fill="#00C29B"/>
<path d="M33.1754 34.6033C33.0906 35.5328 32.3109 36.261 31.3602 36.261C31.0952 36.261 30.8454 36.2035 30.6183 36.1021L29.9689 36.4821C27.3891 37.993 25.8585 40.6045 25.6178 43.372L41.0282 34.6033V30.0024L33.1769 34.6033H33.1754Z" fill="#00C29B"/>
<path d="M28.903 35.4629L29.6373 35.0329C29.5722 34.8467 29.5359 34.6469 29.5359 34.438C29.5359 33.4312 30.3519 32.6136 31.3602 32.6136C31.9022 32.6136 32.3866 32.8513 32.7212 33.2268L41.0267 28.3595V23.6647L33.3207 28.1142C33.3919 28.3095 33.4328 28.5184 33.4328 28.738C33.4328 29.7447 32.6168 30.5623 31.6085 30.5623C31.0574 30.5623 30.5638 30.317 30.2293 29.9294L24.5141 33.1814L19.6286 30.4018C19.4318 30.8317 19.0715 31.1724 18.6279 31.345V40.6542L24.5156 44.0046L24.558 43.9803C24.2371 40.6466 25.8252 37.2721 28.9046 35.4674L28.903 35.4629Z" fill="#00C29B"/>
<path d="M11.9075 28.464C11.2217 28.2021 10.7327 27.539 10.7327 26.7608C10.7327 25.9826 11.2217 25.3195 11.9075 25.0576V24.5338C11.9075 21.4726 10.3572 18.7763 8 17.1821V34.603L11.9075 36.827V28.464Z" fill="#00C29B"/>
<path d="M27.8085 27.3573C28.0053 27.1498 28.2112 26.9485 28.3974 26.7335C28.7834 26.2884 29.1665 25.8388 29.5404 25.3831C29.713 25.1726 29.7175 25.1408 29.4995 24.9743C28.9999 24.5943 28.4973 24.2173 27.9735 23.8752C27.5798 23.6178 27.1514 23.4149 26.7366 23.1924C26.6669 23.1545 26.5822 23.1439 26.4868 23.1439C27 23.7813 27.0666 24.5141 26.9561 25.2574C26.8774 25.7903 26.5988 26.2475 26.2067 26.6412C25.4316 27.4148 24.0054 27.5616 23.2106 27.0787C21.6452 26.1264 21.412 24.8002 22.2235 23.1697C22.0524 23.2227 21.9147 23.2484 21.7905 23.3059C20.976 23.6859 20.2463 24.1961 19.5529 24.7624C19.4363 24.8577 19.3107 24.9425 19.185 25.0258C19.0745 25.1 19.0715 25.1696 19.1608 25.268C19.6877 25.8494 20.2115 26.4337 20.7338 27.0181C20.8322 27.1271 20.9215 27.2452 21.0154 27.3573C20.9957 27.3769 20.976 27.3966 20.9563 27.4178C20.8716 27.3633 20.7898 27.3058 20.7035 27.2558C19.9511 26.8334 19.3137 26.2642 18.6945 25.6753C18.5461 25.5345 18.4387 25.3513 18.3069 25.1923C18.2297 25.1 18.2524 25.0349 18.3191 24.9455C18.9473 24.1174 19.7406 23.4619 20.5794 22.8669C21.3742 22.3037 22.2568 21.904 23.2242 21.7269C24.3143 21.5286 25.3892 21.5785 26.4353 21.9661C27.3028 22.2871 28.0885 22.7549 28.8213 23.315C29.4602 23.804 29.99 24.3975 30.5002 25.0137C30.5729 25.1015 30.5608 25.1651 30.4896 25.2408C29.8114 25.9614 29.1165 26.6608 28.2384 27.1453C28.1037 27.2195 27.978 27.3118 27.8478 27.3966L27.8085 27.3573ZM24.5489 26.5851C24.9774 26.6321 25.3831 26.4186 25.748 26.0749C26.2627 25.5905 26.3172 24.9819 26.2794 24.3309C26.2385 23.6072 25.2347 22.7306 24.3476 22.7427C23.365 22.7564 22.4355 23.636 22.4642 24.7412C22.49 25.7949 23.1531 26.5912 24.5504 26.5867L24.5489 26.5851Z" fill="black"/>
<path d="M24.5489 26.5851C23.1531 26.5912 22.49 25.7932 22.4627 24.7395C22.4355 23.6343 23.3635 22.7547 24.3461 22.7411C25.2332 22.7289 26.2355 23.6055 26.2778 24.3292C26.3157 24.9802 26.2612 25.5888 25.7465 26.0732C25.3816 26.4169 24.9759 26.6304 24.5474 26.5835L24.5489 26.5851Z" fill="#00C29B"/>
<path d="M24.4035 25.5771C24.9587 25.5771 25.4088 25.127 25.4088 24.5718C25.4088 24.0166 24.9587 23.5666 24.4035 23.5666C23.8484 23.5666 23.3983 24.0166 23.3983 24.5718C23.3983 25.127 23.8484 25.5771 24.4035 25.5771Z" fill="black"/>
<path d="M25.0349 24.5157C25.2891 24.5157 25.4951 24.3096 25.4951 24.0555C25.4951 23.8013 25.2891 23.5952 25.0349 23.5952C24.7807 23.5952 24.5747 23.8013 24.5747 24.0555C24.5747 24.3096 24.7807 24.5157 25.0349 24.5157Z" fill="white"/>
</svg>
