<svg width="50" height="50" viewBox="0 0 50 50" fill="none" xmlns="http://www.w3.org/2000/svg">
<rect width="50" height="50" fill="#262324"/>
<path d="M13.0745 28.4136C13.198 2.82048 10.1418 20.2722 33.0324 15.103C34.7509 14.9239 37.2566 12.2536 36.9787 15.6682C36.9813 19.7914 36.989 23.9171 36.9762 28.0402C37.2151 34.2758 13.0995 34.8872 13.0745 28.4136Z" fill="white"/>
<path d="M29.1762 7.21717C31.4477 7.5548 36.508 7.65711 36.5877 10.7137C36.4411 13.8904 30.7171 13.8802 28.3555 14.2562C25.2376 14.4327 13.6868 14.8854 13.4707 10.7137C13.3961 6.42426 26.1714 6.85141 29.1762 7.21717Z" fill="white"/>
<path d="M26.8557 27.0218C27.414 27.784 28.1137 28.0347 28.9241 27.9861C29.3691 27.958 29.6444 27.9861 29.6444 28.5539C29.6444 29.0731 29.4926 29.3264 28.9524 29.3903C27.7355 29.5335 26.7785 29.0425 25.9888 28.1984C25.4537 27.628 24.8954 27.2546 24.0902 27.0551C22.3152 26.6151 21.389 24.8093 21.6797 22.6889C21.9344 20.832 23.357 19.571 25.2556 19.5224C27.2262 19.4738 28.6411 20.5557 28.9858 22.4664C29.3357 24.4129 28.7466 25.9833 26.8531 27.0218H26.8557Z" fill="#262324"/>
<path d="M15.8066 25.4128C18.7573 26.8835 20.6096 24.9115 16.8408 23.5968C15.1069 22.7911 15.413 20.1131 17.2832 19.7064C18.284 19.4788 20.854 19.0593 20.5169 20.6963C20.4012 21.5736 19.9021 20.8855 19.5857 20.8932C18.8988 20.8702 17.8312 20.5505 17.5559 21.4355C17.4427 22.5251 19.03 22.6069 19.7014 23.1389C21.4791 23.9702 21.0829 26.8273 19.1278 27.0728C17.7978 27.1828 14.9962 27.7557 15.8066 25.4103V25.4128Z" fill="#262324"/>
<path d="M30.2772 23.2719C30.5319 22.2948 29.5749 19.3534 31.1442 19.6245C31.669 19.6245 32.0369 19.6526 32.0137 20.3535C31.9648 21.75 32.0549 23.1542 31.9803 24.5508C31.9314 25.4639 32.1346 25.9294 33.1482 25.7606C33.7553 25.7811 34.9336 25.4613 34.8229 26.4307C34.8101 26.8502 34.8024 27.1751 34.2313 27.1623C29.5801 27.0779 30.2824 27.9987 30.2772 23.2744V23.2719Z" fill="#262324"/>
<path d="M15.7037 9.83664C21.9216 8.72912 28.1446 8.74446 34.6326 9.73688C32.5179 11.3662 18.0344 11.4173 15.7037 9.83664Z" fill="#262324"/>
<path d="M23.4548 23.4283C23.4419 21.9678 24.1468 21.0573 25.3148 21.0291C26.5007 20.9984 27.2339 21.8681 27.2648 23.3414C27.2956 24.7865 26.5625 25.7355 25.4074 25.7508C24.224 25.7661 23.4677 24.8709 23.4548 23.4283Z" fill="white"/>
<path d="M35.9793 37.8399V37.1948H35.1435V36H34.378V37.1948H33.5587V37.8399H34.378V40.8881C34.378 41.5404 34.5757 41.9143 34.8911 42.0784C35.2301 42.2547 35.6472 42.2334 36 42.1102L35.9959 41.4242C35.7455 41.4876 35.3723 41.5564 35.2138 41.2697C35.1669 41.1849 35.1435 41.0592 35.1435 40.8927V37.8399H35.9793Z" fill="white"/>
<path d="M31.9558 37.7589C32.1733 37.3719 32.5283 37.1039 33.0206 37.1039C33.1306 37.1039 33.3046 37.1371 33.3599 37.1675L33.3558 37.9489C33.2317 37.9193 33.1301 37.9125 32.9834 37.9125C32.4667 37.9125 32.1311 38.1815 31.9614 38.6156V42.1102H31.1959V37.1948H31.9407L31.9558 37.7589Z" fill="white"/>
<path fill-rule="evenodd" clip-rule="evenodd" d="M26.3297 39.6025C26.3297 38.3074 27.0881 37.1039 28.3613 37.1039C29.6205 37.1039 30.4054 38.1766 30.4054 39.6025C30.4054 40.9442 29.6597 42.201 28.3696 42.201C27.0769 42.201 26.3297 40.9486 26.3297 39.6025ZM27.0952 39.6025C27.0952 40.4816 27.4194 41.5105 28.3696 41.5105C29.286 41.5105 29.6358 40.4772 29.6358 39.6025C29.6358 38.7507 29.2288 37.7944 28.3613 37.7944C27.4745 37.7944 27.0952 38.7604 27.0952 39.6025Z" fill="white"/>
<path fill-rule="evenodd" clip-rule="evenodd" d="M22.6806 37.7346C22.9847 37.3222 23.4141 37.1039 23.9752 37.1039C25.2828 37.1039 25.7254 38.4882 25.7254 39.707C25.7254 41.1221 25.1082 42.201 23.9876 42.201C23.4371 42.201 23.011 42.0033 22.709 41.6333V44H21.9394V37.1948H22.6428L22.6806 37.7346ZM22.709 40.8363C22.9053 41.2296 23.2306 41.5105 23.76 41.5105C24.623 41.5105 24.9558 40.5314 24.9558 39.707C24.9558 38.8559 24.6624 37.8126 23.7517 37.8126C23.2409 37.8126 22.9131 38.0921 22.709 38.4897V40.8363Z" fill="white"/>
<path fill-rule="evenodd" clip-rule="evenodd" d="M19.4772 42.201C18.2409 42.201 17.4208 41.1198 17.4208 39.8251C17.4208 38.5297 18.022 37.1039 19.3779 37.1039C20.866 37.1039 21.2192 38.5344 21.2192 39.8887H18.1911C18.2118 40.7917 18.7095 41.515 19.5186 41.515C20.0593 41.515 20.4165 41.2531 20.6979 40.8472L21.1613 41.2516C20.8727 41.7313 20.3693 42.201 19.4772 42.201ZM18.2135 39.2027H20.4537C20.4537 38.4718 20.0855 37.7944 19.3779 37.7944C18.7757 37.7944 18.3179 38.2919 18.2135 39.2027Z" fill="white"/>
<path d="M15.7599 37.7589C15.7618 37.7556 15.7636 37.7523 15.7655 37.749C15.9938 37.3394 16.3437 37.1039 16.8248 37.1039C16.9347 37.1039 17.1087 37.1371 17.1641 37.1675L17.1599 37.9489C17.0358 37.9193 16.9343 37.9125 16.7875 37.9125C16.2708 37.9125 15.9352 38.1815 15.7655 38.6156V42.1102H15V37.1948H15.7448L15.7599 37.7589Z" fill="white"/>
</svg>
