<svg width="50" height="50" viewBox="0 0 50 50" fill="none" xmlns="http://www.w3.org/2000/svg">
<path d="M11.087 31.1613C11.231 1.08902 7.66546 21.595 34.3712 15.5211C36.3761 15.3107 39.2993 12.173 38.9752 16.1853C38.9782 21.03 38.9872 25.8777 38.9722 30.7225C39.2509 38.0493 11.1161 38.7678 11.087 31.1613Z" fill="#262324"/>
<path d="M29.8722 6.25518C32.5224 6.6519 38.426 6.77211 38.519 10.3636C38.3479 14.0963 31.67 14.0843 28.9148 14.5261C25.2772 14.7335 11.8013 15.2654 11.5492 10.3636C11.4621 5.3235 26.3667 5.8254 29.8722 6.25518Z" fill="#272324"/>
<path d="M27.165 29.5258C27.8163 30.4215 28.6327 30.716 29.5781 30.6589C30.0973 30.6258 30.4184 30.6589 30.4184 31.3261C30.4184 31.9362 30.2414 32.2337 29.6111 32.3089C28.1915 32.4772 27.075 31.9001 26.1536 30.9083C25.5293 30.2381 24.878 29.7993 23.9386 29.5649C21.8677 29.048 20.7872 26.9261 21.1264 24.4347C21.4235 22.2527 23.0832 20.771 25.2982 20.7139C27.5972 20.6568 29.2479 21.9281 29.6501 24.1732C30.0583 26.4603 29.371 28.3056 27.162 29.5258H27.165Z" fill="#FDFDFD"/>
<path d="M14.2744 27.6353C17.7169 29.3634 19.8778 27.0462 15.4809 25.5014C13.458 24.5547 13.8152 21.408 15.9971 20.9302C17.1646 20.6627 20.1629 20.1698 19.7698 22.0933C19.6347 23.1241 19.0525 22.3157 18.6833 22.3247C17.8819 22.2976 16.6364 21.922 16.3153 22.9618C16.1832 24.2421 18.035 24.3383 18.8184 24.9634C20.8923 25.9402 20.4301 29.2973 18.1491 29.5858C16.5974 29.715 13.3289 30.3882 14.2744 27.6323V27.6353Z" fill="#FBFBFC"/>
<path d="M31.1568 25.1196C31.4539 23.9716 30.3374 20.5153 32.1682 20.8339C32.7805 20.8339 33.2097 20.867 33.1827 21.6905C33.1256 23.3314 33.2307 24.9814 33.1436 26.6224C33.0866 27.6953 33.3237 28.2423 34.5062 28.0439C35.2146 28.068 36.5892 27.6923 36.4601 28.8313C36.4451 29.3242 36.4361 29.7059 35.7698 29.6909C30.3434 29.5917 31.1628 30.6737 31.1568 25.1226V25.1196Z" fill="#F7F7F7"/>
<path d="M14.1543 9.33308C21.4085 8.03173 28.6687 8.04976 36.238 9.21587C33.7709 11.1303 16.8735 11.1904 14.1543 9.33308Z" fill="#FBFBFB"/>
<path d="M23.1973 25.3035C23.1823 23.5874 24.0046 22.5174 25.3672 22.4844C26.7508 22.4483 27.6062 23.4702 27.6422 25.2013C27.6782 26.8993 26.8229 28.0144 25.4753 28.0324C24.0947 28.0504 23.2123 26.9985 23.1973 25.3035Z" fill="#292627"/>
<path d="M37.4453 41.4102V40.7168H36.459V39.4326H35.5557V40.7168H34.5889V41.4102H35.5557V44.6865C35.5557 45.3876 35.789 45.7895 36.1611 45.9658C36.5612 46.1553 37.0534 46.1325 37.4697 46L37.4648 45.2627C37.1694 45.3309 36.729 45.4048 36.542 45.0967C36.4867 45.0055 36.459 44.8704 36.459 44.6914V41.4102H37.4453Z" fill="#1C1D1F"/>
<path d="M32.6973 41.3232C32.954 40.9072 33.3729 40.6191 33.9539 40.6191C34.0837 40.6191 34.289 40.6548 34.3543 40.6875L34.3494 41.5273C34.203 41.4955 34.0831 41.4883 33.91 41.4883C33.3002 41.4883 32.9042 41.7773 32.7039 42.244V46H31.8006V40.7168H32.6795L32.6973 41.3232Z" fill="#1C1D1F"/>
<path fill-rule="evenodd" clip-rule="evenodd" d="M26.0582 43.3047C26.0582 41.9126 26.9532 40.6191 28.4557 40.6191C29.9415 40.6191 30.8678 41.7721 30.8678 43.3047C30.8678 44.7468 29.9878 46.0977 28.4654 46.0977C26.9399 46.0977 26.0582 44.7515 26.0582 43.3047ZM26.9615 43.3047C26.9615 44.2496 27.3441 45.3555 28.4654 45.3555C29.5468 45.3555 29.9596 44.2448 29.9596 43.3047C29.9596 42.3892 29.4793 41.3613 28.4557 41.3613C27.4091 41.3613 26.9615 42.3995 26.9615 43.3047Z" fill="#1C1D1F"/>
<path fill-rule="evenodd" clip-rule="evenodd" d="M21.7521 41.297C22.111 40.8538 22.6176 40.6191 23.2797 40.6191C24.8228 40.6191 25.3451 42.107 25.3451 43.417C25.3451 44.938 24.6167 46.0977 23.2943 46.0977C22.6448 46.0977 22.1419 45.8851 21.7855 45.4875V48.0312H20.8773V40.7168H21.7074L21.7521 41.297ZM21.7855 44.6308C22.0172 45.0535 22.4011 45.3555 23.0258 45.3555C24.0442 45.3555 24.4369 44.3031 24.4369 43.417C24.4369 42.5022 24.0907 41.3809 23.016 41.3809C22.4133 41.3809 22.0264 41.6813 21.7855 42.1086V44.6308Z" fill="#1C1D1F"/>
<path fill-rule="evenodd" clip-rule="evenodd" d="M17.9719 46.0977C16.513 46.0977 15.5451 44.9355 15.5451 43.5439C15.5451 42.1516 16.2546 40.6191 17.8547 40.6191C19.6107 40.6191 20.0275 42.1566 20.0275 43.6123H16.4542C16.4786 44.5829 17.0659 45.3604 18.0207 45.3604C18.6587 45.3604 19.0803 45.0788 19.4123 44.6426L19.9592 45.0771C19.6186 45.5928 19.0246 46.0977 17.9719 46.0977ZM16.4806 42.875H19.1242C19.1242 42.0893 18.6897 41.3613 17.8547 41.3613C17.144 41.3613 16.6038 41.896 16.4806 42.875Z" fill="#1C1D1F"/>
<path d="M13.5852 41.3232C13.5874 41.3196 13.5896 41.316 13.5918 41.3125C13.8612 40.8722 14.2742 40.6191 14.8418 40.6191C14.9716 40.6191 15.1769 40.6548 15.2422 40.6875L15.2373 41.5273C15.0909 41.4955 14.971 41.4883 14.7979 41.4883C14.1881 41.4883 13.7921 41.7773 13.5918 42.244V46H12.6885V40.7168H13.5674L13.5852 41.3232Z" fill="#1C1D1F"/>
</svg>
