<svg width="50" height="50" viewBox="0 0 50 50" fill="none" xmlns="http://www.w3.org/2000/svg">
<path d="M25.6218 34.1602C25.6072 33.9705 25.5984 33.8472 25.5984 33.8472C25.5984 33.8472 25.0356 29.9697 24.3656 28.8126C24.2596 28.6292 24.3771 27.8759 24.6729 26.76C24.8458 27.0656 25.5758 28.3725 25.7224 28.7936C25.8875 29.2697 25.9222 29.4062 25.9222 29.4062C25.9222 29.4062 25.5218 27.3012 24.8649 26.0729C25.0089 25.5763 25.1809 25.0275 25.3755 24.4408C25.6244 24.8869 26.2202 25.967 26.3513 26.3417C26.3778 26.4187 26.4002 26.4841 26.4202 26.544C26.4266 26.508 26.4331 26.472 26.4395 26.436C26.2891 25.7839 25.9936 24.6491 25.5892 23.8107C26.4866 19.0379 29.5471 12.6585 32.6848 9.8122H12.2164C10.8446 9.8122 9.72223 10.9593 9.72223 12.3611V35.4272C9.72223 36.8289 10.8446 37.9758 12.2164 37.9758H25.6974C25.6002 36.7735 25.5679 35.4432 25.6218 34.1602" fill="#0F80CC"/>
<path d="M24.673 26.7601C24.8459 27.0657 25.5759 28.3726 25.7224 28.7937C25.8875 29.2698 25.9222 29.4062 25.9222 29.4062C25.9222 29.4062 25.5219 27.3013 24.8649 26.073C25.0089 25.5764 25.1809 25.0275 25.3756 24.4408C25.6031 24.8489 26.1202 25.7861 26.3071 26.2301C26.3141 26.1463 26.321 26.0625 26.3282 25.9795C26.1626 25.3292 25.9112 24.4779 25.5892 23.8108C26.4156 19.4164 29.0756 13.6623 31.9413 10.5558H12.2165C11.2424 10.5558 10.4498 11.3656 10.4498 12.3612V33.7444C14.917 31.9924 20.3036 30.3909 24.9395 30.4596C24.7674 29.7814 24.5714 29.1681 24.3656 28.8127C24.2597 28.6293 24.3772 27.8759 24.673 26.7601" fill="url(#paint0_linear_9176_15171)"/>
<path d="M37.4591 9.05729C36.0573 7.77983 34.36 8.29297 32.6848 9.81216C32.4362 10.0379 32.188 10.2882 31.9412 10.5557C29.0755 13.6622 26.4156 19.4163 25.5892 23.8107C25.9111 24.4778 26.1626 25.3291 26.3282 25.9793C26.3706 26.1462 26.4089 26.3028 26.4395 26.436C26.5123 26.7513 26.5514 26.9557 26.5514 26.9557C26.5514 26.9557 26.5256 26.8564 26.4202 26.544C26.4002 26.4841 26.3778 26.4187 26.3513 26.3417C26.34 26.3099 26.3243 26.2713 26.3071 26.23C26.1202 25.786 25.6031 24.8488 25.3755 24.4407C25.1809 25.0274 25.0089 25.5763 24.8649 26.0729C25.5218 27.3012 25.9222 29.4061 25.9222 29.4061C25.9222 29.4061 25.8875 29.2697 25.7224 28.7936C25.5758 28.3725 24.8458 27.0655 24.6729 26.76C24.3771 27.8758 24.2596 28.6292 24.3656 28.8126C24.5714 29.168 24.7673 29.7812 24.9394 30.4594C25.3282 31.9873 25.5984 33.8472 25.5984 33.8472C25.5984 33.8472 25.6072 33.9705 25.6218 34.1601C25.5679 35.4432 25.6003 36.7734 25.6974 37.9758C25.8263 39.5674 26.0687 40.9347 26.3778 41.6665L26.5876 41.5496C26.1338 40.1079 25.9494 38.2185 26.0302 36.0396C26.1523 32.709 26.9023 28.6925 28.2882 24.5061C30.6296 18.1866 33.8781 13.1162 36.8513 10.6947C34.1414 13.1955 30.4738 21.2904 29.3759 24.2881C28.1466 27.6449 27.2754 30.795 26.7504 33.813C27.6562 30.9836 30.5851 29.7674 30.5851 29.7674C30.5851 29.7674 32.0217 27.957 33.7005 25.3706C32.6948 25.6049 31.0436 26.0061 30.4905 26.2437C29.6746 26.5934 29.4548 26.7127 29.4548 26.7127C29.4548 26.7127 32.0975 25.0682 34.3649 24.3235C37.483 19.3051 40.8801 12.1758 37.4591 9.05729" fill="#003B57"/>
<defs>
<linearGradient id="paint0_linear_9176_15171" x1="22.8421" y1="11.0304" x2="22.8421" y2="32.4548" gradientUnits="userSpaceOnUse">
<stop stop-color="#97D9F6"/>
<stop offset="0.920245" stop-color="#0F80CC"/>
<stop offset="1" stop-color="#0F80CC"/>
</linearGradient>
</defs>
</svg>
