<svg width="50" height="50" viewBox="0 0 50 50" fill="none" xmlns="http://www.w3.org/2000/svg">
<path d="M29.4946 10.002C29.6473 10.0992 29.739 10.2348 29.7983 10.4089C30.0866 11.2575 30.3761 12.106 30.6826 12.9485C30.7633 13.1709 30.7084 13.2692 30.5068 13.3741C27.173 15.1036 23.8431 16.8408 20.512 18.5763C20.0336 18.8257 19.5558 19.0745 19.0774 19.3233C18.7463 19.4957 18.7161 19.5611 18.8424 19.906C19.7437 22.3714 20.6466 24.8363 21.549 27.3012C21.7027 27.7219 21.8499 28.1459 22.0119 28.5633C22.0877 28.7594 22.0658 28.8505 21.8302 28.8494C20.6515 28.8439 19.4729 28.8445 18.2942 28.8494C18.1092 28.85 18.0174 28.7769 17.9543 28.6045C16.7092 25.1938 15.4581 21.7849 14.2108 18.3748C14.0998 18.0716 14.1668 17.9272 14.4865 17.7607C16.333 16.7958 18.1811 15.8335 20.0276 14.8686C23.128 13.2473 26.2289 11.6243 29.3298 10.002C29.3847 10.002 29.4397 10.002 29.4946 10.002Z" fill="#193E6B"/>
<path d="M8.76521 39.1107C8.51751 39.0525 8.26706 39.002 8.02211 38.9344C7.76397 38.863 7.53659 38.7279 7.32734 38.5604C6.86269 38.1881 6.88961 37.9997 7.43389 37.7443C7.58273 37.6745 7.62886 37.7772 7.69752 37.8585C8.1358 38.3748 8.8421 38.5775 9.48414 38.3715C10.1361 38.1622 10.4771 37.5674 10.2937 36.965C10.208 36.6838 10.0065 36.5031 9.77029 36.3559C9.59179 36.2444 9.39407 36.1713 9.19415 36.1043C8.87395 35.9972 8.54936 35.8995 8.2374 35.7715C7.36908 35.4162 6.99066 34.8356 7.06316 34.0008C7.13346 33.1924 7.67115 32.5866 8.51586 32.3878C9.32212 32.1983 10.0757 32.2983 10.7358 32.8403C11.011 33.0666 11.0099 33.1073 10.7386 33.3297C10.5357 33.4963 10.3332 33.4888 10.1311 33.3072C9.61596 32.8447 8.64548 32.8574 8.13635 33.322C7.77715 33.6499 7.67335 34.488 8.17754 34.8598C8.50927 35.1048 8.88384 35.2393 9.26885 35.3541C9.61156 35.4563 9.94494 35.5754 10.258 35.7506C11.4438 36.413 11.2724 37.9129 10.4733 38.5577C10.0817 38.8735 9.62969 39.0168 9.15076 39.1102H8.76686L8.76521 39.1107Z" fill="#193E6B"/>
<path d="M34.5947 28.8475C32.9497 28.8475 31.3048 28.8426 29.6604 28.8525C29.4116 28.8541 29.2848 28.7783 29.1985 28.5383C28.456 26.4727 27.7008 24.4115 26.9522 22.3475C26.8281 22.0059 26.8522 21.9466 27.1686 21.7813C29.6873 20.4643 32.2066 19.1489 34.7254 17.8324C35.4383 17.4601 36.149 17.0839 36.8624 16.7131C37.2221 16.5264 37.3227 16.5665 37.4517 16.9372C38.693 20.5049 39.9337 24.0732 41.1738 27.6414C41.3386 28.1154 41.3023 28.1303 40.8586 28.3736C40.155 28.7586 39.4218 28.8821 38.6238 28.858C37.282 28.8168 35.9381 28.8475 34.5947 28.8475Z" fill="#193E6B"/>
<path d="M25.7132 28.8477C25.1008 28.8477 24.4884 28.8422 23.876 28.8504C23.6827 28.8532 23.5772 28.7823 23.5102 28.5983C22.5249 25.9 21.5341 23.2039 20.5466 20.5062C20.4247 20.1739 20.4719 20.0607 20.7965 19.891C22.6342 18.9277 24.473 17.966 26.3124 17.006C28.6219 15.8005 30.9319 14.5966 33.2425 13.3933C33.7319 13.1384 33.8335 13.1835 34.0142 13.7069C34.2767 14.4681 34.5348 15.2304 34.8111 15.9867C34.8973 16.2223 34.8512 16.3409 34.6238 16.459C31.5976 18.0292 28.5763 19.6093 25.5534 21.1861C25.1552 21.3937 25.1458 21.4201 25.3018 21.8452C26.1169 24.07 26.9308 26.2955 27.7442 28.5209C27.8579 28.8323 27.848 28.8466 27.5229 28.8477C26.9198 28.8493 26.3162 28.8477 25.7132 28.8477Z" fill="#193E6B"/>
<path d="M13.494 28.8481C12.5713 28.8481 11.6486 28.8415 10.7265 28.8525C10.4782 28.8553 10.3492 28.7734 10.2684 28.5301C9.84991 27.2625 9.41822 25.9993 8.98324 24.7372C8.92008 24.5543 8.94314 24.4121 9.04805 24.2517C10.2173 22.4602 11.3801 20.6642 12.5466 18.871C12.6092 18.7749 12.6548 18.6316 12.7949 18.642C12.9547 18.6541 12.9629 18.8194 13.0047 18.9326C14.124 21.989 15.2405 25.0464 16.3577 28.1034C16.367 28.1292 16.3769 28.1545 16.3862 28.1803C16.5481 28.6255 16.3877 28.8481 15.9051 28.8481C15.1016 28.8481 14.2975 28.8481 13.494 28.8481Z" fill="#193E6B"/>
<path d="M28.7828 35.6987C28.7828 34.7469 28.7817 33.7957 28.7828 32.8439C28.7833 32.4874 28.8058 32.4578 29.1502 32.4649C29.8801 32.4803 30.6133 32.4023 31.3394 32.5121C31.8068 32.5824 32.25 32.7412 32.5653 33.1207C33.3732 34.0928 32.8514 35.5707 31.5904 35.8536C31.3026 35.9178 31.3597 35.9947 31.4723 36.1771C31.9815 37.002 32.4807 37.8329 32.9805 38.6634C33.1365 38.922 33.1167 38.9264 32.8262 38.9605C32.4412 39.005 32.2132 38.871 32.0238 38.5195C31.603 37.739 31.1263 36.9893 30.6853 36.2199C30.5859 36.0463 30.4711 35.9793 30.2723 35.9788C29.5034 35.9777 29.5034 35.9716 29.5034 36.7433C29.5034 37.3749 29.4924 38.0065 29.5083 38.6376C29.5149 38.9089 29.3913 38.9583 29.1601 38.9566C28.93 38.955 28.7751 38.9292 28.7784 38.6364C28.7894 37.6577 28.7833 36.6779 28.7828 35.6987ZM29.5045 34.1944C29.5045 34.4866 29.5045 34.7788 29.5045 35.0709C29.5045 35.1852 29.51 35.3065 29.6654 35.3038C30.2553 35.2928 30.8512 35.3779 31.4311 35.1995C31.9029 35.0545 32.1578 34.7452 32.1742 34.2982C32.1973 33.6946 31.9106 33.3332 31.2982 33.1976C30.7666 33.0795 30.2267 33.1481 29.6901 33.1349C29.5462 33.1311 29.5028 33.2179 29.5034 33.3464C29.505 33.6292 29.5034 33.9126 29.5034 34.1955L29.5045 34.1944Z" fill="#193E6B"/>
<path d="M24.9322 36.4797C25.5067 35.9305 26.0757 35.4153 26.609 34.8655C26.9149 34.5503 27.2713 34.6568 27.6096 34.675C27.7684 34.6838 27.6344 34.8095 27.5827 34.8584C27.2175 35.2039 26.8473 35.5444 26.4788 35.886C26.2706 36.0788 26.0713 36.2814 25.8505 36.4583C25.6923 36.5846 25.7044 36.6648 25.8422 36.7988C26.4914 37.4298 27.1324 38.0691 27.7744 38.7073C27.8282 38.7611 27.9408 38.799 27.8974 38.8957C27.8579 38.9841 27.7513 38.9391 27.6734 38.9506C27.2428 39.0132 26.916 38.8743 26.6183 38.536C26.1536 38.0087 25.6357 37.5276 25.137 37.0306C25.0772 36.9712 25.0261 36.8438 24.9283 36.8922C24.8421 36.935 24.8871 37.0591 24.886 37.1464C24.8827 37.6314 24.8751 38.1169 24.8877 38.6013C24.8943 38.8584 24.8069 38.9589 24.54 38.9578C24.283 38.9567 24.2138 38.8589 24.2149 38.6151C24.222 36.5286 24.2226 34.4416 24.2143 32.3551C24.2132 32.1019 24.2984 32.0184 24.5461 32.019C24.7905 32.0195 24.8888 32.1002 24.8877 32.3523C24.88 33.6062 24.8838 34.8601 24.886 36.1139C24.886 36.2216 24.8624 36.3325 24.9327 36.4786L24.9322 36.4797Z" fill="#193E6B"/>
<path d="M17.8906 38.3273C17.5693 38.7744 17.1623 38.9907 16.668 39.0429C16.2369 39.0885 15.8266 39.022 15.4668 38.7694C14.7715 38.2817 14.7721 37.2525 15.4597 36.7543C15.9337 36.4111 16.4873 36.3496 17.0442 36.3056C17.2348 36.2908 17.4276 36.2897 17.6193 36.2985C17.8192 36.3073 17.8686 36.2123 17.8615 36.031C17.8433 35.5642 17.5292 35.2149 17.0656 35.1704C16.5774 35.1232 16.1094 35.1957 15.7195 35.5109C15.4581 35.7224 15.4015 35.478 15.279 35.3582C15.1192 35.2011 15.2235 35.0919 15.3548 35.0084C16.1177 34.5223 16.9305 34.3779 17.7763 34.7464C18.3107 34.9787 18.52 35.4576 18.5332 36.0151C18.5491 36.673 18.5332 37.3316 18.5403 37.9901C18.5425 38.218 18.5716 38.4454 18.587 38.6727C18.5963 38.8062 18.6002 38.9507 18.4123 38.9441C18.2388 38.938 18.0048 39.0473 17.9471 38.7551C17.923 38.6332 17.9142 38.508 17.8906 38.3273ZM17.2831 36.8625C16.8333 36.868 16.3923 36.9136 15.993 37.1481C15.7629 37.2832 15.6234 37.4787 15.6426 37.7517C15.6624 38.0384 15.8085 38.263 16.0792 38.363C16.6911 38.5882 17.6193 38.4816 17.8291 37.5029C17.9526 36.9251 17.8955 36.8493 17.3111 36.8631C17.3018 36.8631 17.2925 36.8625 17.2831 36.8625Z" fill="#193E6B"/>
<path d="M35.9881 34.5415C37.2991 34.5382 38.275 35.4966 38.2778 36.7905C38.2805 38.0828 37.304 39.0566 36.0012 39.0599C34.7111 39.0632 33.7055 38.0642 33.7187 36.7911C33.7318 35.5048 34.7001 34.5448 35.9881 34.5415ZM37.5566 36.8229C37.5632 36.2364 37.3853 35.7619 36.9311 35.4274C36.2121 34.8985 35.1516 35.0979 34.6941 35.8366C34.1778 36.6697 34.4469 37.8862 35.2565 38.28C36.2967 38.7853 37.5836 38.1949 37.5566 36.8229Z" fill="#193E6B"/>
<path d="M39.357 34.6503C39.6069 34.5855 39.7881 34.725 39.9474 34.9617C40.1715 35.2951 40.4236 35.6092 40.6647 35.931C40.8745 36.2117 40.8761 36.2122 41.0881 35.9173C41.3386 35.5686 41.5846 35.2165 41.8345 34.8672C41.9669 34.6821 42.4469 34.5575 42.6468 34.6624C42.7957 34.7409 42.6661 34.8205 42.6238 34.8782C42.3327 35.2769 42.035 35.6702 41.7384 36.0645C41.4418 36.4596 41.451 36.8532 41.7659 37.2453C42.147 37.7242 42.5227 38.2076 42.8978 38.6914C42.944 38.7513 43.0379 38.8089 42.9841 38.9018C42.9423 38.9732 42.8517 38.9419 42.782 38.9512C42.4063 39.0023 42.1328 38.893 41.9125 38.5481C41.6286 38.1032 41.2727 37.7039 40.958 37.2777C40.8481 37.1294 40.785 37.1382 40.6806 37.2832C40.3407 37.7588 39.9902 38.2273 39.642 38.6975C39.474 38.9248 39.0697 39.0479 38.8177 38.9364C38.6254 38.8518 38.7836 38.7518 38.8347 38.6837C39.2702 38.1081 39.6992 37.5265 40.1605 36.9718C40.3648 36.7263 40.3632 36.5637 40.1578 36.3243C39.7771 35.8811 39.43 35.4093 39.0725 34.9463C39.0143 34.8711 38.8945 34.7997 38.9484 34.6948C38.9929 34.608 39.1148 34.6591 39.2027 34.6497C39.2389 34.6459 39.2757 34.6492 39.357 34.6492V34.6503Z" fill="#193E6B"/>
<path d="M21.767 34.5377C22.4002 34.5261 22.8704 34.7255 23.2812 35.0754C23.3713 35.1522 23.5278 35.2637 23.3559 35.3769C23.2098 35.473 23.0978 35.8075 22.8517 35.5576C22.3904 35.0896 21.8455 35.0523 21.282 35.2538C20.6729 35.4719 20.4104 35.9821 20.3571 36.5983C20.3088 37.158 20.4302 37.6715 20.8613 38.0757C21.4116 38.5914 22.2877 38.5881 22.8171 38.0505C23.0895 37.7742 23.1966 38.0982 23.3449 38.1938C23.547 38.324 23.3548 38.4327 23.2653 38.5074C22.5969 39.066 21.8389 39.1807 21.0299 38.8979C20.2391 38.6211 19.7942 38.0296 19.6788 37.214C19.552 36.3188 19.7469 35.5191 20.5137 34.9435C20.8794 34.6689 21.326 34.5366 21.767 34.5377Z" fill="#193E6B"/>
<path d="M12.4928 36.7192C12.4928 36.3347 12.4851 35.9503 12.4961 35.5664C12.5027 35.3439 12.423 35.2396 12.1951 35.2593C12.1138 35.2665 12.0309 35.2615 11.9485 35.2593C11.6503 35.2522 11.6069 35.1978 11.6173 34.8969C11.6234 34.7271 11.6876 34.6376 11.8645 34.6514C11.8738 34.6519 11.8826 34.6514 11.8919 34.6514C12.3207 34.6341 12.5351 34.4137 12.5351 33.9901C12.5351 33.9258 12.5351 33.8621 12.5351 33.7979C12.5378 33.4788 12.7586 33.3404 13.0579 33.4645C13.1689 33.5106 13.1656 33.6007 13.1661 33.6919C13.1683 33.9116 13.1788 34.1318 13.1645 34.3504C13.1502 34.5717 13.2244 34.67 13.4572 34.6546C13.6846 34.6393 13.9142 34.6612 14.1421 34.6492C14.3717 34.6376 14.4156 34.7596 14.4167 34.9545C14.4178 35.1555 14.3558 35.2676 14.1366 35.261C13.9087 35.2544 13.6797 35.2692 13.4517 35.2582C13.2392 35.2484 13.1617 35.3318 13.1645 35.5466C13.1738 36.26 13.1612 36.974 13.1705 37.6874C13.1793 38.3624 13.4688 38.5678 14.1234 38.3976C14.213 38.3745 14.3739 38.2257 14.4063 38.4349C14.4321 38.6046 14.5233 38.8254 14.2811 38.9446C13.4193 39.3675 12.5477 38.8617 12.4994 37.8989C12.4796 37.5067 12.4961 37.1124 12.4961 36.7192C12.495 36.7192 12.4939 36.7192 12.4928 36.7192Z" fill="#193E6B"/>
</svg>
