<svg width="50" height="50" viewBox="0 0 50 50" fill="none" xmlns="http://www.w3.org/2000/svg">
<rect width="50" height="50" fill="#193E6B"/>
<path d="M29.4949 10.002C29.6476 10.0992 29.7394 10.2348 29.7987 10.4089C30.087 11.2575 30.3765 12.106 30.6829 12.9485C30.7637 13.1709 30.7087 13.2692 30.5072 13.3741C27.1734 15.1036 23.8434 16.8408 20.5124 18.5763C20.034 18.8257 19.5562 19.0745 19.0778 19.3233C18.7466 19.4957 18.7164 19.5611 18.8427 19.906C19.744 22.3714 20.6469 24.8363 21.5493 27.3012C21.7031 27.7219 21.8503 28.1459 22.0123 28.5633C22.0881 28.7594 22.0661 28.8505 21.8305 28.8494C20.6519 28.8439 19.4733 28.8445 18.2946 28.8494C18.1095 28.85 18.0178 28.7769 17.9546 28.6045C16.7096 25.1938 15.4584 21.7849 14.2111 18.3748C14.1002 18.0716 14.1672 17.9272 14.4868 17.7607C16.3333 16.7958 18.1815 15.8335 20.028 14.8686C23.1283 13.2473 26.2293 11.6243 29.3302 10.002C29.3851 10.002 29.44 10.002 29.4949 10.002Z" fill="white"/>
<path d="M8.76557 39.1107C8.51787 39.0525 8.26743 39.002 8.02247 38.9344C7.76434 38.863 7.53696 38.7279 7.3277 38.5604C6.86306 38.1881 6.88997 37.9997 7.43425 37.7443C7.58309 37.6745 7.62923 37.7772 7.69788 37.8585C8.13616 38.3748 8.84247 38.5775 9.48451 38.3715C10.1364 38.1622 10.4775 37.5674 10.2941 36.965C10.2084 36.6838 10.0068 36.5031 9.77065 36.3559C9.59216 36.2444 9.39444 36.1713 9.19452 36.1043C8.87432 35.9972 8.54973 35.8995 8.23777 35.7715C7.36945 35.4162 6.99103 34.8356 7.06353 34.0008C7.13383 33.1924 7.67152 32.5866 8.51623 32.3878C9.32249 32.1983 10.076 32.2983 10.7362 32.8403C11.0114 33.0666 11.0103 33.1073 10.7389 33.3297C10.5361 33.4963 10.3336 33.4888 10.1315 33.3072C9.61632 32.8447 8.64584 32.8574 8.13671 33.322C7.77752 33.6499 7.67372 34.488 8.1779 34.8598C8.50964 35.1048 8.88421 35.2393 9.26921 35.3541C9.61193 35.4563 9.94531 35.5754 10.2584 35.7506C11.4441 36.413 11.2728 37.9129 10.4737 38.5577C10.0821 38.8735 9.63005 39.0168 9.15113 39.1102H8.76722L8.76557 39.1107Z" fill="white"/>
<path d="M34.595 28.8475C32.9501 28.8475 31.3052 28.8426 29.6608 28.8525C29.412 28.8541 29.2851 28.7783 29.1989 28.5383C28.4563 26.4727 27.7012 24.4115 26.9526 22.3475C26.8284 22.0059 26.8526 21.9466 27.169 21.7813C29.6877 20.4643 32.207 19.1489 34.7257 17.8324C35.4386 17.4601 36.1493 17.0839 36.8628 16.7131C37.2225 16.5264 37.323 16.5665 37.4521 16.9372C38.6933 20.5049 39.934 24.0732 41.1742 27.6414C41.339 28.1154 41.3027 28.1303 40.8589 28.3736C40.1554 28.7586 39.4222 28.8821 38.6241 28.858C37.2824 28.8168 35.9384 28.8475 34.595 28.8475Z" fill="white"/>
<path d="M25.7135 28.8477C25.1012 28.8477 24.4888 28.8422 23.8764 28.8504C23.6831 28.8532 23.5776 28.7823 23.5106 28.5983C22.5253 25.9 21.5345 23.2039 20.547 20.5062C20.4251 20.1739 20.4723 20.0607 20.7969 19.891C22.6346 18.9277 24.4734 17.966 26.3128 17.006C28.6222 15.8005 30.9323 14.5966 33.2429 13.3933C33.7322 13.1384 33.8338 13.1835 34.0145 13.7069C34.2771 14.4681 34.5352 15.2304 34.8114 15.9867C34.8977 16.2223 34.8515 16.3409 34.6242 16.459C31.5979 18.0292 28.5767 19.6093 25.5537 21.1861C25.1555 21.3937 25.1462 21.4201 25.3022 21.8452C26.1172 24.07 26.9312 26.2955 27.7446 28.5209C27.8583 28.8323 27.8484 28.8466 27.5232 28.8477C26.9202 28.8493 26.3166 28.8477 25.7135 28.8477Z" fill="white"/>
<path d="M13.4944 28.8481C12.5717 28.8481 11.649 28.8415 10.7268 28.8525C10.4786 28.8553 10.3495 28.7734 10.2688 28.5301C9.85028 27.2625 9.41859 25.9993 8.9836 24.7372C8.92044 24.5543 8.94351 24.4121 9.04841 24.2517C10.2177 22.4602 11.3804 20.6642 12.547 18.871C12.6096 18.7749 12.6552 18.6316 12.7952 18.642C12.955 18.6541 12.9633 18.8194 13.005 18.9326C14.1243 21.989 15.2409 25.0464 16.358 28.1034C16.3674 28.1292 16.3773 28.1545 16.3866 28.1803C16.5484 28.6255 16.3881 28.8481 15.9055 28.8481C15.102 28.8481 14.2979 28.8481 13.4944 28.8481Z" fill="white"/>
<path d="M28.7831 35.6987C28.7831 34.7469 28.782 33.7957 28.7831 32.8439C28.7837 32.4874 28.8062 32.4578 29.1506 32.4649C29.8805 32.4803 30.6137 32.4023 31.3398 32.5121C31.8072 32.5824 32.2504 32.7412 32.5657 33.1207C33.3736 34.0928 32.8518 35.5707 31.5908 35.8536C31.303 35.9178 31.3601 35.9947 31.4727 36.1771C31.9818 37.002 32.4811 37.8329 32.9809 38.6634C33.1369 38.922 33.1171 38.9264 32.8265 38.9605C32.4415 39.005 32.2136 38.871 32.0241 38.5195C31.6034 37.739 31.1267 36.9893 30.6857 36.2199C30.5863 36.0463 30.4715 35.9793 30.2726 35.9788C29.5037 35.9777 29.5037 35.9716 29.5037 36.7433C29.5037 37.3749 29.4927 38.0065 29.5087 38.6376C29.5153 38.9089 29.3917 38.9583 29.1605 38.9566C28.9303 38.955 28.7755 38.9292 28.7788 38.6364C28.7897 37.6577 28.7837 36.6779 28.7831 35.6987ZM29.5048 34.1944C29.5048 34.4866 29.5048 34.7788 29.5048 35.0709C29.5048 35.1852 29.5103 35.3065 29.6658 35.3038C30.2556 35.2928 30.8515 35.3779 31.4315 35.1995C31.9033 35.0545 32.1581 34.7453 32.1746 34.2982C32.1977 33.6946 31.911 33.3332 31.2986 33.1976C30.7669 33.0795 30.2271 33.1481 29.6905 33.1349C29.5466 33.1311 29.5032 33.2179 29.5037 33.3464C29.5054 33.6292 29.5037 33.9126 29.5037 34.1955L29.5048 34.1944Z" fill="white"/>
<path d="M24.9325 36.4797C25.507 35.9305 26.076 35.4153 26.6093 34.8655C26.9152 34.5503 27.2717 34.6568 27.61 34.675C27.7687 34.6838 27.6347 34.8095 27.5831 34.8584C27.2179 35.2039 26.8477 35.5444 26.4792 35.886C26.271 36.0788 26.0716 36.2814 25.8508 36.4583C25.6927 36.5846 25.7047 36.6648 25.8426 36.7988C26.4918 37.4298 27.1327 38.0691 27.7748 38.7073C27.8286 38.7611 27.9412 38.799 27.8978 38.8957C27.8583 38.9841 27.7517 38.9391 27.6737 38.9506C27.2431 39.0132 26.9163 38.8743 26.6187 38.536C26.154 38.0087 25.6361 37.5276 25.1374 37.0306C25.0775 36.9712 25.0265 36.8438 24.9287 36.8922C24.8425 36.935 24.8875 37.0591 24.8864 37.1464C24.8831 37.6314 24.8754 38.1169 24.8881 38.6013C24.8946 38.8584 24.8073 38.9589 24.5404 38.9578C24.2834 38.9567 24.2142 38.8589 24.2153 38.6151C24.2224 36.5286 24.2229 34.4416 24.2147 32.3551C24.2136 32.1019 24.2987 32.0184 24.5464 32.019C24.7908 32.0195 24.8892 32.1002 24.8881 32.3523C24.8804 33.6062 24.8842 34.8601 24.8864 36.1139C24.8864 36.2216 24.8628 36.3325 24.9331 36.4786L24.9325 36.4797Z" fill="white"/>
<path d="M17.8909 38.3273C17.5696 38.7744 17.1627 38.9907 16.6684 39.0429C16.2372 39.0885 15.827 39.022 15.4672 38.7694C14.7719 38.2817 14.7724 37.2525 15.4601 36.7543C15.934 36.4111 16.4877 36.3496 17.0446 36.3056C17.2352 36.2908 17.4279 36.2897 17.6196 36.2985C17.8195 36.3073 17.869 36.2123 17.8618 36.031C17.8437 35.5642 17.5295 35.2149 17.066 35.1704C16.5777 35.1232 16.1098 35.1957 15.7199 35.5109C15.4584 35.7224 15.4019 35.478 15.2794 35.3582C15.1196 35.2011 15.2239 35.0919 15.3552 35.0084C16.118 34.5223 16.9309 34.3779 17.7767 34.7464C18.3111 34.9787 18.5203 35.4576 18.5335 36.0151C18.5495 36.673 18.5335 37.3316 18.5407 37.9901C18.5429 38.218 18.572 38.4454 18.5874 38.6727C18.5967 38.8062 18.6005 38.9506 18.4127 38.9441C18.2391 38.938 18.0052 39.0473 17.9475 38.7551C17.9233 38.6332 17.9146 38.508 17.8909 38.3273ZM17.2835 36.8625C16.8337 36.868 16.3927 36.9136 15.9934 37.1481C15.7632 37.2832 15.6237 37.4788 15.643 37.7517C15.6627 38.0384 15.8088 38.263 16.0796 38.363C16.6914 38.5882 17.6196 38.4816 17.8294 37.5029C17.953 36.9251 17.8959 36.8493 17.3115 36.8631C17.3022 36.8631 17.2928 36.8625 17.2835 36.8625Z" fill="white"/>
<path d="M35.9884 34.5415C37.2994 34.5382 38.2754 35.4966 38.2781 36.7905C38.2809 38.0828 37.3044 39.0566 36.0016 39.0599C34.7115 39.0632 33.7058 38.0642 33.719 36.7911C33.7322 35.5048 34.7005 34.5448 35.9884 34.5415ZM37.557 36.8229C37.5636 36.2364 37.3856 35.7619 36.9314 35.4274C36.2125 34.8985 35.152 35.0979 34.6944 35.8366C34.1782 36.6697 34.4473 37.8862 35.2569 38.28C36.2971 38.7853 37.5839 38.1949 37.557 36.8229Z" fill="white"/>
<path d="M39.3574 34.6503C39.6073 34.5855 39.7885 34.725 39.9478 34.9617C40.1719 35.2951 40.424 35.6092 40.6651 35.931C40.8749 36.2117 40.8765 36.2122 41.0885 35.9173C41.339 35.5686 41.585 35.2165 41.8349 34.8672C41.9673 34.6821 42.4473 34.5575 42.6472 34.6624C42.7961 34.7409 42.6664 34.8205 42.6241 34.8782C42.3331 35.2769 42.0354 35.6702 41.7388 36.0645C41.4422 36.4596 41.4514 36.8532 41.7663 37.2453C42.1474 37.7242 42.5231 38.2076 42.8982 38.6914C42.9443 38.7513 43.0383 38.8089 42.9844 38.9018C42.9427 38.9732 42.8521 38.9419 42.7823 38.9512C42.4067 39.0023 42.1331 38.893 41.9129 38.5481C41.629 38.1032 41.2731 37.7039 40.9583 37.2777C40.8485 37.1294 40.7853 37.1382 40.681 37.2832C40.341 37.7588 39.9906 38.2273 39.6424 38.6975C39.4743 38.9248 39.0701 39.0479 38.818 38.9364C38.6258 38.8518 38.784 38.7518 38.835 38.6837C39.2706 38.1081 39.6995 37.5265 40.1609 36.9718C40.3652 36.7263 40.3635 36.5637 40.1581 36.3243C39.7775 35.8811 39.4304 35.4093 39.0729 34.9463C39.0146 34.8711 38.8949 34.7997 38.9487 34.6948C38.9932 34.608 39.1152 34.6591 39.203 34.6497C39.2393 34.6459 39.2761 34.6492 39.3574 34.6492V34.6503Z" fill="white"/>
<path d="M21.7674 34.5377C22.4006 34.5261 22.8708 34.7255 23.2816 35.0754C23.3716 35.1522 23.5282 35.2637 23.3563 35.3769C23.2102 35.473 23.0981 35.8075 22.8521 35.5576C22.3907 35.0896 21.8459 35.0523 21.2824 35.2538C20.6733 35.4719 20.4108 35.9821 20.3575 36.5983C20.3092 37.158 20.4305 37.6715 20.8617 38.0757C21.412 38.5914 22.288 38.5881 22.8175 38.0505C23.0899 37.7742 23.197 38.0982 23.3453 38.1938C23.5474 38.324 23.3552 38.4327 23.2656 38.5074C22.5972 39.066 21.8393 39.1807 21.0303 38.8979C20.2394 38.6211 19.7945 38.0296 19.6792 37.214C19.5523 36.3188 19.7473 35.5191 20.514 34.9435C20.8798 34.6689 21.3263 34.5366 21.7674 34.5377Z" fill="white"/>
<path d="M12.4932 36.7192C12.4932 36.3347 12.4855 35.9503 12.4965 35.5664C12.503 35.3439 12.4234 35.2396 12.1955 35.2593C12.1142 35.2665 12.0313 35.2615 11.9489 35.2593C11.6506 35.2522 11.6073 35.1978 11.6177 34.8969C11.6237 34.7271 11.688 34.6376 11.8648 34.6514C11.8742 34.6519 11.883 34.6514 11.8923 34.6514C12.3211 34.6341 12.5354 34.4137 12.5354 33.9901C12.5354 33.9258 12.5354 33.8621 12.5354 33.7979C12.5382 33.4788 12.759 33.3404 13.0583 33.4645C13.1693 33.5106 13.166 33.6007 13.1665 33.6919C13.1687 33.9116 13.1791 34.1318 13.1649 34.3504C13.1506 34.5717 13.2247 34.67 13.4576 34.6546C13.685 34.6393 13.9146 34.6612 14.1425 34.6492C14.3721 34.6376 14.416 34.7596 14.4171 34.9545C14.4182 35.1555 14.3561 35.2676 14.137 35.261C13.9091 35.2544 13.68 35.2692 13.4521 35.2582C13.2396 35.2484 13.1621 35.3318 13.1649 35.5466C13.1742 36.26 13.1616 36.974 13.1709 37.6874C13.1797 38.3624 13.4691 38.5678 14.1238 38.3976C14.2133 38.3745 14.3743 38.2257 14.4067 38.4349C14.4325 38.6046 14.5236 38.8254 14.2814 38.9446C13.4197 39.3675 12.5481 38.8617 12.4997 37.8989C12.48 37.5067 12.4965 37.1124 12.4965 36.7192C12.4954 36.7192 12.4943 36.7192 12.4932 36.7192Z" fill="white"/>
</svg>
