<svg width="50" height="50" viewBox="0 0 50 50" fill="none" xmlns="http://www.w3.org/2000/svg">
<path fill-rule="evenodd" clip-rule="evenodd" d="M33.6579 10.5408C33.6323 10.7739 33.6 11.068 33.8926 11.0787C34.2105 11.0903 34.222 9.34058 34.2253 8.81955C34.2256 8.77941 34.2258 8.74655 34.2261 8.72237C34.5081 8.26961 34.9156 8.06368 35.4296 8.06702C36.2261 8.06292 36.7766 8.35098 37.4465 8.71321C37.9057 8.95915 38.7458 8.5631 38.8465 8.05949C38.8755 7.91191 38.7805 7.89106 38.6822 7.89774C38.1989 7.92946 37.9798 7.59761 37.7695 7.22489C37.5633 6.86052 37.275 6.55204 36.9052 6.37942C35.7618 5.84615 34.5586 5.79525 33.6671 6.74795C33.6671 8.02148 33.7977 9.26332 33.6579 10.5408ZM35.4457 7.28242C35.4924 7.24325 35.5697 7.24325 35.7228 7.19989C35.6357 7.32724 35.1313 7.75277 35.1492 7.65094C35.1814 7.47419 35.325 7.38405 35.4457 7.28242ZM36.38 6.38862C36.1464 6.50033 36.0272 6.63876 35.9644 6.89219C36.2342 6.81801 36.3607 6.68541 36.38 6.38862ZM36.4735 7.72268C36.433 7.56866 36.0438 7.18813 36.0852 7.32411C36.1328 7.49668 36.2028 7.65514 36.4735 7.72268ZM35.2958 6.49533C35.3232 6.67124 35.3595 6.83886 35.5883 6.89386C35.5689 6.67124 35.4706 6.55371 35.2958 6.49533Z" fill="#39633F"/>
<path fill-rule="evenodd" clip-rule="evenodd" d="M40.7622 41.7849C40.7586 40.8033 40.4968 38.8523 41.4943 38.336C41.8383 38.1576 42.1274 37.9308 42.2789 37.5514C42.3154 37.0373 42.5095 36.8714 42.9805 36.7009L42.9813 36.7051C43.3929 36.1723 43.5572 35.567 43.4952 34.8891C43.4416 34.3004 43.0304 33.82 43.6233 33.3725L43.6201 33.365C43.9219 32.7512 44.3944 32.2088 44.831 31.6845C45.1675 31.2804 44.8635 30.962 44.3967 31.1085C43.9925 31.2349 43.5993 31.3923 43.2058 31.5485C41.476 32.235 39.2502 33.1184 38.356 31.4581C37.354 29.5973 35.8925 27.0267 34.7691 24.882C34.5502 24.6797 34.1092 24.8187 34.3247 25.1327C34.7783 25.7948 35.0885 26.6009 35.4435 27.3193C36.3196 29.0921 37.2349 30.944 38.3456 32.3811C38.464 32.5345 38.3536 32.6512 38.1893 32.6537C36.7971 32.6775 35.4523 32.8877 34.0603 32.7113C33.8135 32.6624 33.8188 32.4631 33.8234 32.2836L33.8242 32.2527C33.8833 29.8098 33.7193 27.294 33.954 24.8612L33.955 24.8493C33.9698 24.6909 33.9841 24.5377 34.1948 24.5743C35.1558 24.7403 36.0917 24.992 36.9601 25.4673C37.4229 25.7207 37.8764 26.0145 38.3258 26.3056C39.5771 27.1162 40.7966 27.9062 42.0984 27.7452C42.1025 27.7268 42.1067 27.7085 42.111 27.6902C42.1152 27.6718 42.1194 27.6535 42.1234 27.6352C42.0942 27.5586 42.0649 27.482 42.0356 27.4055C41.7594 26.6836 41.4831 25.9613 41.2857 25.2097C40.4647 22.077 40.4876 18.4291 41.8326 15.431C41.9655 15.1334 41.893 14.9724 41.6715 14.7598C39.8372 12.9978 36.7089 11.9646 34.3116 11.5373C32.6458 11.2396 30.9808 11.2087 29.3513 11.7774C28.3138 12.1392 27.4801 12.7671 26.9815 13.8085C25.7928 15.7224 24.8344 19.8365 24.6785 22.0471C24.627 22.7891 24.6349 23.5323 24.6427 24.2755C24.6463 24.6139 24.6499 24.9523 24.6479 25.2905C24.6455 25.6216 24.7663 25.6866 25.0281 25.474C25.7756 24.8653 26.627 24.4809 27.5389 24.2166C29.0708 23.7726 31.0908 24.0065 32.645 24.3867C32.7771 24.4193 32.8149 24.4751 32.7932 24.6177C32.4244 27.0524 32.6415 29.6764 32.616 32.1393C32.6127 32.4678 32.4992 32.6295 32.1625 32.6054L32.1244 32.6027C31.56 32.5621 30.9998 32.5219 30.4451 32.4053C29.441 32.1953 31.8643 28.0448 32.1625 27.3602L32.4074 26.0585C31.4019 27.7593 30.6146 29.5901 29.7135 31.3452C29.5691 31.6265 29.3998 32.3103 29.0033 32.2452C27.3354 31.9699 25.5538 31.3575 23.6771 30.7124C22.422 30.2809 21.1554 29.9491 19.9196 29.467C19.5917 29.3394 19.4669 28.9884 19.5796 28.6566C19.666 28.4007 19.9345 28.5381 20.1314 28.569C20.68 28.3939 20.8539 28.158 20.8499 27.5835C20.8493 27.4646 20.8353 27.3457 20.8308 27.2268C20.7919 26.1799 20.3108 25.3123 19.222 25.0646C19.1229 25.0421 18.9755 25.0729 18.9577 24.9328C18.9384 24.7811 19.1019 24.7961 19.1873 24.7519C19.7093 24.4851 20.0782 24.0599 20.3666 23.5496C20.5487 22.5268 20.7507 21.5924 19.8712 20.8256C19.529 20.5271 17.6206 19.9008 17.5151 20.7573C17.4961 20.9165 17.6198 20.9973 17.732 21.0706L17.7374 21.0741C17.9565 21.2167 18.1788 21.3526 18.4278 21.5094C18.2435 21.6223 18.1303 21.5517 18.0266 21.4868C17.5061 21.162 17.1154 20.7654 16.7579 20.2662C16.3479 19.6933 15.6294 19.5966 15.2299 20.0435C15.0647 20.2291 14.9196 20.4722 14.8796 20.7175L14.8787 20.7231C14.9632 21.4551 15.4305 21.9371 15.9169 22.3981C16.0877 22.5599 16.1828 22.7166 16.1772 22.9668C16.1544 24.0153 16.6648 24.3811 17.4966 24.8353C17.199 24.9307 16.9485 24.8645 16.7104 24.8015C16.1834 24.6623 15.7053 24.5274 15.1944 24.3184C15.0084 24.2425 14.8803 24.1016 14.8682 23.8831C14.8473 23.5204 14.6322 23.347 14.3213 23.2553C14.1948 23.2178 14.0683 23.1844 13.9693 23.071C13.6929 22.7542 13.469 22.785 13.2249 23.1552C13.084 23.3695 13.0574 23.6522 12.8383 23.8473C12.7248 23.4769 12.9132 23.1855 12.5059 22.9675C11.5387 22.4497 10.5218 21.9538 9.79107 21.1108C9.40908 20.6725 9.25482 20.2417 9.07095 19.6783C8.77932 18.7665 8.47342 19.793 8.3218 20.1686C8.32404 20.803 8.3642 21.4475 8.78257 21.9621C9.30189 22.9882 10.6944 23.4735 11.6397 23.8798C11.8541 23.9726 12.0201 24.1456 12.2398 24.2367C12.4315 24.3184 12.525 24.4668 12.5233 24.6802C12.5217 24.947 12.6482 25.1146 12.8947 25.1863C13.0853 25.0943 13.2746 24.9839 13.4537 25.123C13.7131 25.3239 13.995 25.3322 14.2939 25.248C14.4244 25.2114 14.5532 25.1947 14.6757 25.2922C15.1153 25.6451 15.6334 25.8338 16.1478 26.0211C16.456 26.1333 16.6589 26.3178 16.65 26.6671C16.6403 27.069 16.6565 27.4709 16.6596 27.8728C16.662 28.1888 16.5284 28.2922 16.2263 28.2005C14.6885 27.7327 13.1178 27.4818 11.5132 27.5543C10.7488 27.5888 4.09526 27.8134 5.10381 29.7522C5.16375 29.8682 5.58555 29.8353 5.93198 29.8083C7.0765 29.7188 7.6071 30.3469 8.27106 31.2038C9.357 32.6054 9.60037 33.8178 9.96747 35.2493C10.275 36.4499 10.7973 38.4137 11.6019 39.3882L11.5995 39.3857C13.3567 41.474 15.3108 42.8471 17.8735 43.5997C18.8044 43.8779 19.6952 43.9599 20.6509 43.9599C27.135 43.9702 33.6213 44.0322 40.1048 43.9782C40.9864 43.972 40.7643 42.3458 40.7622 41.7849ZM29.4576 21.23C29.3102 21.11 29.2916 20.9457 29.34 20.7806C29.515 20.1859 29.6259 19.4132 29.895 18.8621C30.0923 18.4577 29.9441 18.1792 29.6461 17.9224C29.348 17.6656 29.0637 17.3921 28.7697 17.1303C28.2993 16.7109 28.3838 16.2348 28.9791 16.0272C29.5478 15.8287 30.1294 15.657 30.723 15.5795C31.1467 15.5244 31.4287 15.331 31.6824 14.9916C32.0515 14.4991 32.41 13.8553 32.8834 13.4641C33.295 13.1231 33.7606 13.2657 33.9241 13.7809C34.0538 14.1887 34.1811 14.5964 34.2971 15.0074C34.4405 15.5136 34.7385 15.8262 35.2379 15.983C35.9161 16.1961 36.5476 16.4451 37.1977 16.7284C37.7842 16.9875 37.7107 17.5496 37.1669 17.7813L37.147 17.7898C36.6442 18.0039 36.2058 18.2772 35.7196 18.5219C35.3837 18.6911 35.2725 18.9613 35.37 19.3073C35.5456 19.931 35.4731 20.6005 35.7261 21.2125C35.9976 21.8651 35.3693 22.1851 34.8464 21.8204C34.248 21.4035 33.6293 21.0174 33.0308 20.6013C32.6579 20.342 32.2785 20.3387 31.8878 20.5138C31.1814 20.8309 30.2335 21.6003 29.4576 21.23ZM14.7079 36.6568C14.7127 35.8263 15.3289 35.2176 16.161 35.221C17.0302 35.2243 17.6254 35.8271 17.6198 36.6993C17.6142 37.5014 16.9593 38.1675 16.1787 38.1642C15.3797 38.1609 14.7031 37.4672 14.7079 36.6568ZM22.4029 35.7229C23.0787 35.7296 23.6466 36.3166 23.6362 36.9969C23.6257 37.6806 23.0489 38.2493 22.3748 38.2418C21.7561 38.2351 21.1657 37.6047 21.181 36.9678C21.1971 36.3015 21.7706 35.7162 22.4029 35.7229ZM27.5582 36.0539C28.2356 36.0564 28.6762 36.5517 28.6714 37.3046C28.6666 37.9925 28.1817 38.5119 27.5453 38.5086C26.8759 38.5044 26.3209 37.9174 26.3314 37.2237C26.3411 36.5825 26.8977 36.0514 27.5582 36.0539ZM38.3625 35.7621C39.0012 35.7854 39.4338 36.2682 39.4088 36.9302C39.35 37.7757 38.8144 38.1776 38.1716 38.1967C37.5795 38.2151 37.0849 37.5964 37.1083 36.9611C37.1325 36.289 37.7084 35.7387 38.3625 35.7621ZM32.9801 35.9722C33.6769 35.978 34.0707 36.3891 34.0659 37.1053C34.0611 37.7623 33.5745 38.3043 32.9938 38.301C32.3977 38.2968 31.8266 37.684 31.8314 37.0528C31.8354 36.4841 32.3856 35.9672 32.9801 35.9722ZM41.0134 35.2777C41.0086 34.5022 41.3864 34.0611 42.0606 34.0561C42.6873 34.052 42.9926 34.4472 42.9942 35.2618C42.9958 36.0006 42.6728 36.4074 42.0783 36.4183C41.3751 36.4316 41.0175 36.0489 41.0134 35.2777ZM19.5055 26.3612C19.6086 26.3953 19.6996 26.4587 19.7246 26.5771C19.7238 26.6638 19.6843 26.7197 19.6086 26.723C19.4507 26.7297 19.4048 26.6121 19.3903 26.4795C19.3815 26.4003 19.4177 26.332 19.5055 26.3612Z" fill="#39633F"/>
</svg>
