<svg width="50" height="50" viewBox="0 0 50 50" fill="none" xmlns="http://www.w3.org/2000/svg">
<rect width="50" height="50" fill="black"/>
<path d="M18.5006 39.9919C14.9707 40.073 11.5817 39.0263 8.61526 36.738C7.95237 36.2268 7.6955 35.9428 8.50754 35.2774C9.70074 34.2955 10.7614 33.1514 11.8551 32.064C12.3523 31.5691 12.692 31.5366 13.2721 32.0722C14.9956 33.6464 17.0174 34.6201 19.5032 34.3686C21.0279 34.2144 22.163 33.3624 22.4531 32.1452C22.7099 31.066 22.1216 30.003 20.8373 29.2078C19.8678 28.6154 18.7657 28.3314 17.7051 27.9662C16.6031 27.5849 15.4927 27.2441 14.4238 26.8059C11.0845 25.4345 9.29472 23.0083 9.31958 19.5028C9.34443 15.9974 11.2088 13.5144 14.4984 12.1998C19.6524 10.1306 24.5743 10.7798 29.1648 13.8227C29.9437 14.342 29.9769 14.691 29.2642 15.3077C28.0793 16.3139 27.0021 17.4255 25.9995 18.6021C25.5769 19.0971 25.2621 19.1864 24.7069 18.6021C23.0662 16.8981 20.9284 16.5005 18.658 16.9387C17.614 17.1415 16.8185 17.8232 16.6279 18.943C16.4291 20.079 17.0091 20.8336 17.9786 21.3854C19.2629 22.1157 20.6964 22.489 22.0885 22.9434C23.8534 23.5114 25.6184 24.12 27.0436 25.3047C31.1369 28.729 30.6895 34.8311 26.1487 37.9714C23.9363 39.505 21.4422 40.0649 18.5006 39.9919Z" fill="white"/>
<path d="M37.3515 40C39.9188 40 42 37.9619 42 35.4478C42 32.9337 39.9188 30.8956 37.3515 30.8956C34.7842 30.8956 32.703 32.9337 32.703 35.4478C32.703 37.9619 34.7842 40 37.3515 40Z" fill="#27BCA8"/>
</svg>
