<svg width="50" height="50" viewBox="0 0 50 50" fill="none" xmlns="http://www.w3.org/2000/svg">
<rect width="50" height="50" fill="black"/>
<path d="M19.1111 10.8175L17.2603 9L9 16.9638L11.0026 18.9277L16.4281 13.6973L15.2549 23.0278L17.0726 24.761L25.3329 16.7972L23.3633 14.9175L17.9378 20.148L19.1111 10.8175Z" fill="white"/>
<path d="M21.173 28.7146C20.6836 28.2428 20.6035 27.6449 20.9325 26.9209L25.3329 16.7972L27.7262 19.1246L24.0092 27.1983L24.0345 27.2227L32.4214 23.6518L34.61 25.7556L22.9454 30.4369L21.173 28.7146Z" fill="white"/>
<path fill-rule="evenodd" clip-rule="evenodd" d="M27.5773 34.9031C26.8869 34.2374 26.8375 33.2491 27.5393 32.5724L34.61 25.7556L39.2931 30.2778C41.0737 31.9947 41.7722 35.0252 39.8545 36.8743L37.9725 38.688C35.8998 40.6865 33.1472 40.2804 31.0834 38.2905L27.5773 34.9031ZM32.5768 36.7529C33.6567 37.7942 34.8548 37.7292 36.0697 36.5577L37.7998 34.8904C38.7648 33.9599 38.6338 32.6195 37.6985 31.7177L35.2687 29.3748L30.0963 34.3612L32.5768 36.7529Z" fill="white"/>
</svg>
