<svg width="50" height="50" viewBox="0 0 50 50" fill="none" xmlns="http://www.w3.org/2000/svg">
<path fill-rule="evenodd" clip-rule="evenodd" d="M23.0979 37.1806C21.8323 38.0641 20.332 38.5499 18.7749 38.5499C14.4947 38.5499 11 35.0551 11 30.7749C11 26.4947 14.4947 23 18.7749 23C23.0551 23 26.5499 26.4947 26.5499 30.7749C26.5499 32.3323 25.9966 33.8304 25.1777 35.1397L30.458 40.3806C30.8904 40.8097 30.8917 41.5084 30.4609 41.9392L29.9365 42.4636C29.5069 42.8932 28.8104 42.8932 28.3809 42.4636L23.0979 37.1806ZM18.7749 35.6411C21.4573 35.6411 23.6411 33.4573 23.6411 30.7749C23.6411 28.0926 21.4573 25.9088 18.7749 25.9088C16.0926 25.9088 13.9088 28.0926 13.9088 30.7749C13.9088 33.4573 16.0926 35.6411 18.7749 35.6411Z" fill="#E24701"/>
<path d="M14.7264 10.2657C15.4601 10.605 15.5089 11.6294 14.8107 12.0369L12.9389 13.1295L16.8775 19.1294C17.2968 19.774 16.8915 20.6338 16.1294 20.7268C15.919 20.7525 15.7116 20.7895 15.5071 20.8378C15.0131 20.9545 14.4663 20.7944 14.1804 20.3554L10.401 14.611L8.76495 15.5659C8.07791 15.967 7.22038 15.4441 7.26222 14.6497L7.58737 8.47503C7.62457 7.76852 8.3636 7.323 9.00575 7.61998L14.7264 10.2657Z" fill="#7F8BA5"/>
<path d="M44.9492 32.5333L44.3517 32.9619C43.8389 33.3297 43.1226 33.1917 42.7832 32.6597L37.385 24.1992C37.0627 23.694 36.3459 23.639 35.9503 24.0891L32.2128 28.3408C31.7274 28.893 30.8473 28.8227 30.4557 28.2005L25.0358 19.5895C24.6885 19.0377 23.8879 19.0268 23.5257 19.569L22.7833 20.6803C22.4959 21.1106 21.9514 21.2765 21.4663 21.1134C21.2648 21.0456 21.0633 20.9822 20.8619 20.9232C20.1798 20.7234 19.7985 19.9017 20.2157 19.2965L23.4931 14.5412C23.9411 13.8913 24.9076 13.9108 25.329 14.5783L31.033 23.6139C31.354 24.1223 32.0737 24.1791 32.4704 23.7273L36.1662 19.5179C36.6488 18.9683 37.5234 19.034 37.9185 19.6495L45.2338 31.0453C45.5501 31.538 45.425 32.1921 44.9492 32.5333Z" fill="#7F8BA5"/>
</svg>
