<svg width="50" height="50" viewBox="0 0 50 50" fill="none" xmlns="http://www.w3.org/2000/svg">
<rect width="50" height="50" fill="black"/>
<path fill-rule="evenodd" clip-rule="evenodd" d="M16.3585 32.3634C16.9881 31.7991 17.5358 31.7574 18.0911 31.715C18.8582 31.6566 19.7648 31.5658 20.3338 30.9992C21.247 30.0897 21.247 28.6185 20.3338 27.7091C19.4205 26.7996 17.9432 26.7996 17.03 27.7091C16.5072 28.2298 16.3882 28.9969 16.343 29.7004C16.3025 30.3308 16.2596 30.9994 15.6602 31.6679C14.9889 32.2648 14.3176 32.3076 13.6845 32.348C12.9791 32.3929 12.209 32.5102 11.6849 33.0321C10.7717 33.9416 10.7717 35.4128 11.6849 36.3223C12.5982 37.2317 14.0754 37.2317 14.9887 36.3223C15.564 35.7493 15.6402 34.8914 15.7085 34.1214C15.7088 34.1184 15.7091 34.1154 15.7093 34.1124C15.7583 33.5609 15.8086 32.9953 16.3585 32.3634ZM32.3397 16.3942C32.9693 15.8298 33.517 15.7881 34.0723 15.7458C34.8394 15.6874 35.746 15.5966 36.315 15.03C37.2282 14.1205 37.2282 12.6493 36.315 11.7398C35.4017 10.8304 33.9245 10.8304 33.0112 11.7398C32.4884 12.2605 32.3695 13.0275 32.3243 13.7309C32.2837 14.3614 32.2408 15.0302 31.6414 15.6987C30.9701 16.2956 30.2988 16.3384 29.6656 16.3787L29.6642 16.3788C28.9594 16.4238 28.1898 16.5414 27.6661 17.0629C26.7529 17.9724 26.7529 19.4435 27.6661 20.353C28.5794 21.2625 30.0566 21.2625 30.9699 20.353C31.5498 19.7755 31.6288 18.9021 31.6891 18.1249C31.7315 17.5792 31.7749 17.0191 32.3397 16.3942ZM15.7075 13.9198C15.75 14.4728 15.7919 15.0182 16.3585 15.6452C17.0149 16.2335 17.5999 16.2716 18.1717 16.3089C18.9299 16.3583 19.7694 16.4474 20.3338 17.0094C21.247 17.9189 21.247 19.3901 20.3338 20.2995C19.4205 21.209 17.9432 21.209 17.03 20.2995C16.5072 19.7788 16.3882 19.0118 16.343 18.3083C16.3025 17.6778 16.2596 17.0092 15.6602 16.3407C14.9889 15.7438 14.3176 15.701 13.6844 15.6606C12.9791 15.6157 12.209 15.4984 11.6849 14.9765C10.7717 14.067 10.7717 12.5958 11.6849 11.6864C12.5982 10.7769 14.0754 10.7769 14.9887 11.6864C15.5587 12.254 15.6485 13.1518 15.7075 13.9198ZM21.2466 23.991C21.2466 22.4663 22.4821 21.2091 24.04 21.2091C25.571 21.2091 26.8334 22.4663 26.8334 23.991C26.8334 25.5157 25.5978 26.7729 24.04 26.7729C22.509 26.7729 21.2466 25.5157 21.2466 23.991Z" fill="white"/>
<path d="M34.0723 15.7458C33.517 15.7881 32.9693 15.8298 32.3397 16.3942C31.7749 17.0191 31.7315 17.5792 31.6891 18.1249C31.6288 18.9021 31.5498 19.7755 30.9699 20.353C30.0566 21.2625 28.5794 21.2625 27.6661 20.353C26.7529 19.4435 26.7529 17.9724 27.6661 17.0629C28.1898 16.5414 28.9594 16.4238 29.6642 16.3788L29.6656 16.3787C30.2988 16.3384 30.9701 16.2956 31.6414 15.6987C32.2408 15.0302 32.2837 14.3614 32.3243 13.7309C32.3695 13.0275 32.4884 12.2605 33.0112 11.7398C33.9245 10.8304 35.4017 10.8304 36.315 11.7398C37.2282 12.6493 37.2282 14.1205 36.315 15.03C35.746 15.5966 34.8394 15.6874 34.0723 15.7458Z" fill="white"/>
<path d="M24.04 21.2091C22.4821 21.2091 21.2466 22.4663 21.2466 23.991C21.2466 25.5157 22.509 26.7729 24.04 26.7729C25.5978 26.7729 26.8334 25.5157 26.8334 23.991C26.8334 22.4663 25.571 21.2091 24.04 21.2091Z" fill="white"/>
<path d="M18.0911 31.715C17.5358 31.7574 16.9881 31.7991 16.3585 32.3634C15.8086 32.9953 15.7583 33.5609 15.7093 34.1124L15.7085 34.1214C15.6402 34.8914 15.564 35.7493 14.9887 36.3223C14.0754 37.2317 12.5982 37.2317 11.6849 36.3223C10.7717 35.4128 10.7717 33.9416 11.6849 33.0321C12.209 32.5102 12.9791 32.3929 13.6845 32.348C14.3176 32.3076 14.9889 32.2648 15.6602 31.6679C16.2596 30.9994 16.3025 30.3308 16.343 29.7004C16.3882 28.9969 16.5072 28.2298 17.03 27.7091C17.9432 26.7996 19.4205 26.7996 20.3338 27.7091C21.247 28.6185 21.247 30.0897 20.3338 30.9992C19.7648 31.5658 18.8582 31.6566 18.0911 31.715Z" fill="white"/>
<path d="M16.3585 15.6452C15.7919 15.0182 15.75 14.4728 15.7075 13.9198C15.6485 13.1518 15.5587 12.254 14.9887 11.6864C14.0754 10.7769 12.5982 10.7769 11.6849 11.6864C10.7717 12.5958 10.7717 14.067 11.6849 14.9765C12.209 15.4984 12.9791 15.6157 13.6844 15.6606C14.3176 15.701 14.9889 15.7438 15.6602 16.3407C16.2596 17.0092 16.3025 17.6778 16.343 18.3083C16.3882 19.0118 16.5072 19.7788 17.03 20.2995C17.9432 21.209 19.4205 21.209 20.3338 20.2995C21.247 19.3901 21.247 17.9189 20.3338 17.0094C19.7694 16.4474 18.9299 16.3583 18.1717 16.3089C17.5999 16.2716 17.0149 16.2335 16.3585 15.6452Z" fill="white"/>
<path fill-rule="evenodd" clip-rule="evenodd" d="M37.9496 28.0508C35.216 25.3171 30.7838 25.3171 28.0501 28.0508C25.3165 30.7845 25.3165 35.2166 28.0501 37.9503C30.7838 40.6839 35.216 40.6839 37.9496 37.9503C40.6833 35.2166 40.6833 30.7845 37.9496 28.0508ZM34.9995 32.4761C35.5478 32.5069 35.9041 31.9082 35.6156 31.441L33.6244 28.0518C33.3719 27.6429 32.7861 27.6183 32.5002 28.0046L30.1276 31.3938C29.8061 31.8282 30.096 32.4458 30.6356 32.4761L31.9205 32.5483L31.9086 37.2197C31.8143 37.9492 34.0556 37.882 33.976 37.2286V32.5483L34.9995 32.4761Z" fill="white"/>
</svg>
