<svg width="50" height="50" viewBox="0 0 50 50" fill="none" xmlns="http://www.w3.org/2000/svg">
<path d="M15.1976 6.88889C15.1976 5.2934 16.4515 4 17.9982 4H27.2205C27.5919 4 27.948 4.15218 28.2106 4.42307L34.392 10.7992C34.6546 11.07 34.8021 11.4374 34.8021 11.8205V27.1111C34.8021 28.7066 33.5482 30 32.0015 30H17.9982C16.4515 30 15.1976 28.7066 15.1976 27.1111V6.88889Z" fill="white"/>
<path fill-rule="evenodd" clip-rule="evenodd" d="M27.2205 4C27.5919 4 27.948 4.15218 28.2106 4.42307L34.392 10.7992C34.6546 11.07 34.8021 11.4374 34.8021 11.8205V27.1111C34.8021 28.7066 33.5482 30 32.0015 30H17.9982C16.4515 30 15.1976 28.7066 15.1976 27.1111V6.88889C15.1976 5.2934 16.4515 4 17.9982 4H27.2205ZM27.1003 9.05556C27.1003 10.651 28.3542 11.9444 29.901 11.9444H34.1019V27.1111C34.1019 28.3077 33.1615 29.2778 32.0015 29.2778H17.9982C16.8382 29.2778 15.8977 28.3077 15.8977 27.1111V6.88889C15.8977 5.69227 16.8382 4.72222 17.9982 4.72222H27.1003V9.05556ZM27.8005 9.05556C27.8005 10.2522 28.7409 11.2222 29.901 11.2222H33.8119L27.8005 5.02141V9.05556Z" fill="#AEB7CC"/>
<path d="M35.5157 25.9073C36.3323 25.9064 36.9991 25.2132 37 24.4027V16.8193C36.9991 16.0088 36.3323 15.3156 35.5157 15.3147H14.4843C13.6677 15.3156 13.0009 16.0088 13 16.8193V24.4027C13.0009 25.2132 13.6677 25.9064 14.4843 25.9073H35.5157Z" fill="#6176AE"/>
<path d="M19.1893 21.9737C19.1893 21.5814 19.03 21.3764 18.135 21.0724C17.205 20.7526 16.1001 20.2353 16.1001 19.0961C16.1001 17.9037 17.3516 17.3653 18.3975 17.3653C19.7123 17.3653 20.6293 18.1096 20.6293 19.2781H19.1975C19.1975 18.8155 18.9244 18.4868 18.3647 18.4868C17.8269 18.4868 17.536 18.7656 17.536 19.1088C17.536 19.484 17.9667 19.7086 18.6314 19.9298C19.9059 20.3491 20.6293 20.932 20.6293 21.9653C20.6293 23.0673 19.7615 23.6961 18.4222 23.6961C17.198 23.6961 15.9196 23.0638 15.9196 21.614H17.3637C17.3637 22.3299 17.736 22.5789 18.4222 22.5789C18.9799 22.5789 19.1893 22.2977 19.1893 21.9737Z" fill="white"/>
<path d="M24.2641 17.45V23.6114H22.8241V17.45H24.2641ZM26.061 17.45V18.5968H21.0683V17.45H26.061Z" fill="white"/>
<path d="M28.2025 17.45V23.6114H26.7667V17.45H28.2025Z" fill="white"/>
<path d="M34.102 20.3191V22.8497C33.5356 23.497 32.548 23.6961 31.7266 23.6961C30.1342 23.6961 29.0969 22.6138 29.0969 20.7042C29.0969 19.1088 29.776 17.3611 31.6487 17.3611C32.9644 17.3611 33.9694 18.0779 34.0979 19.4601H32.7153C32.6326 18.8459 32.3571 18.5037 31.6979 18.5037C30.5916 18.5037 30.5615 19.8916 30.5615 20.7042C30.5615 21.9359 30.9571 22.5535 31.8292 22.5535C32.2976 22.5535 32.5507 22.4019 32.662 22.2954V21.339H31.661V20.3191H34.102Z" fill="white"/>
<path d="M7.12305 35.8906H8.03613L10.3652 41.6865L12.6895 35.8906H13.6074L10.7168 43H10.0039L7.12305 35.8906ZM6.8252 35.8906H7.63086L7.7627 43H6.8252V35.8906ZM13.0947 35.8906H13.9004V43H12.9629L13.0947 35.8906Z" fill="#7F8BA5"/>
<path d="M18.1342 39.377C18.1342 38.7488 17.7515 38.3467 17.0209 38.3467C16.5371 38.3467 15.8783 38.6112 15.8783 39.1816H14.975C14.975 38.146 16.1902 37.6191 17.0746 37.6191C18.2329 37.6191 19.0375 38.2062 19.0375 39.3867V41.8477C19.0375 42.2442 19.223 42.6235 19.223 43H18.2807C17.8174 41.9412 18.1342 40.4919 18.1342 39.377ZM18.2904 39.7969L18.3002 40.4316C17.517 40.4316 15.7709 40.198 15.7709 41.4082C15.7709 42.815 18.1501 42.3829 18.2221 41.208L18.6078 41.6426C18.3017 43.4795 14.8627 43.6093 14.8627 41.5303C14.8627 39.7571 16.9962 39.7969 18.2904 39.7969Z" fill="#7F8BA5"/>
<path d="M20.9617 43H20.0584V37.7168H20.9129L20.9617 43ZM20.7469 40.1582L20.3709 40.1436C20.3841 38.6824 21.2605 37.6191 22.5193 37.6191C23.6908 37.6191 24.2137 38.4763 24.2137 39.5381V43H23.3055V39.5283C23.3055 38.6872 22.9271 38.3809 22.2508 38.3809C21.3699 38.3809 20.7469 39.1864 20.7469 40.1582Z" fill="#7F8BA5"/>
<path d="M28.301 39.377C28.301 38.7488 27.9183 38.3467 27.1877 38.3467C26.7039 38.3467 26.0451 38.6112 26.0451 39.1816H25.1418C25.1418 38.4162 25.9917 37.6191 27.2414 37.6191C28.3997 37.6191 29.2043 38.2062 29.2043 39.3867V41.8477C29.2043 42.2455 29.3898 42.6175 29.3898 43H28.4475C27.9979 41.9723 28.301 40.4589 28.301 39.377ZM28.4572 39.7969L28.467 40.4316C27.6552 40.4316 25.9377 40.228 25.9377 41.4082C25.9377 41.9076 26.2879 42.3066 26.9484 42.3066C27.5573 42.3066 28.3473 41.8862 28.3889 41.208L28.7746 41.6426C28.6297 42.5122 27.6465 43.0977 26.8166 43.0977C25.7479 43.0977 25.0295 42.4098 25.0295 41.5303C25.0295 39.7573 27.163 39.7969 28.4572 39.7969Z" fill="#7F8BA5"/>
<path d="M33.648 37.7168H34.4684V42.8877C34.4684 43.8187 34.0712 44.4876 33.3941 44.8262C32.4119 45.3316 30.9317 45.1066 30.274 44.167L30.7477 43.6299C31.2607 44.2485 32.1476 44.5726 32.9059 44.1816C33.3214 43.9674 33.565 43.5453 33.565 42.9316L33.648 37.7168ZM30.0104 40.417C30.0104 39.1124 30.5717 37.6191 32.0953 37.6191C32.7613 37.6191 33.2552 37.8564 33.5992 38.2979C33.9508 38.734 34.1461 39.3574 34.2242 40.1387C34.2242 41.5229 33.7082 43.0977 32.0855 43.0977C30.6503 43.0977 30.0104 41.6604 30.0104 40.417ZM30.9137 40.417C30.9137 41.4765 31.3278 42.3311 32.3053 42.3311C33.2057 42.3311 33.5903 41.6882 33.7848 40.959C33.7848 39.8993 33.7613 38.3809 32.315 38.3809C31.2382 38.3809 30.9137 39.5058 30.9137 40.417Z" fill="#7F8BA5"/>
<path d="M37.6328 43.0977C36.1739 43.0977 35.2061 41.9355 35.2061 40.5439C35.2061 39.172 35.941 37.6191 37.5156 37.6191C39.181 37.6191 39.6885 39.1516 39.6885 40.6123H35.7432V39.875H38.7852C38.7852 39.0893 38.3506 38.3613 37.5156 38.3613C36.3561 38.3613 36.1143 39.6266 36.1143 40.5439C36.1143 41.4612 36.6743 42.3604 37.6816 42.3604C38.3197 42.3604 38.7412 42.0788 39.0732 41.6426L39.6201 42.0771C39.2796 42.5928 38.6855 43.0977 37.6328 43.0977Z" fill="#7F8BA5"/>
<path d="M41.2465 43H40.3432V37.7168H41.2221L41.2465 43ZM42.8969 37.6875L42.892 38.5273C42.7455 38.4955 42.6257 38.4883 42.4525 38.4883C41.6242 38.4883 41.1893 39.0242 41.1098 39.8066L40.8559 39.9531C40.8559 38.6616 41.3733 37.6191 42.4965 37.6191C42.6263 37.6191 42.8316 37.6548 42.8969 37.6875Z" fill="#7F8BA5"/>
</svg>
