<svg width="50" height="50" viewBox="0 0 50 50" fill="none" xmlns="http://www.w3.org/2000/svg">
<path d="M11.1387 11C11.1387 8.79086 12.9295 7 15.1387 7H28.3102C28.8407 7 29.3494 7.21071 29.7245 7.58579L38.5529 16.4142C38.928 16.7893 39.1387 17.298 39.1387 17.8284V39C39.1387 41.2091 37.3478 43 35.1387 43H15.1387C12.9295 43 11.1387 41.2091 11.1387 39V11Z" fill="white"/>
<path fill-rule="evenodd" clip-rule="evenodd" d="M28.3102 7C28.8407 7 29.3494 7.21071 29.7245 7.58579L38.5529 16.4142C38.928 16.7893 39.1387 17.298 39.1387 17.8284V39C39.1387 41.2091 37.3478 43 35.1387 43H15.1387C12.9295 43 11.1387 41.2091 11.1387 39V11C11.1387 8.79086 12.9295 7 15.1387 7H28.3102ZM28.1387 14C28.1387 16.2091 29.9295 18 32.1387 18H38.1387V39C38.1387 40.6569 36.7955 42 35.1387 42H15.1387C13.4818 42 12.1387 40.6569 12.1387 39V11C12.1387 9.34315 13.4818 8 15.1387 8H28.1387V14ZM29.1387 14C29.1387 15.6569 30.4818 17 32.1387 17H37.7244L29.1387 8.41426V14Z" fill="#AEB7CC"/>
<path d="M40.1579 37.3332C41.2965 37.3319 42.2765 36.3993 42.2778 35.2498V24.7498C42.2765 23.6003 41.2965 22.6678 40.1579 22.6665H10.1199C8.98128 22.6678 8.00131 23.6003 8 24.7498V35.2498C8.00131 36.3993 8.98128 37.3319 10.1199 37.3332H40.1579Z" fill="#6176AE"/>
<path d="M16.8398 31.8867C16.8398 31.1068 15.9525 30.8423 15.334 30.6387C14.0327 30.2049 12.4277 29.5026 12.4277 27.9023C12.4277 26.2178 14.257 25.5059 15.709 25.5059C17.3025 25.5059 18.8965 26.4278 18.8965 28.1543H16.8516C16.8516 27.514 16.4616 27.0586 15.6621 27.0586C14.8938 27.0586 14.4785 27.4448 14.4785 27.9199C14.4785 28.44 15.0942 28.7506 16.043 29.0566C17.8644 29.6376 18.8965 30.445 18.8965 31.875C18.8965 33.4011 17.6568 34.2715 15.7441 34.2715C13.9925 34.2715 12.1699 33.2978 12.1699 31.3887H14.2324C14.2324 32.3802 14.7647 32.7246 15.7441 32.7246C16.5404 32.7246 16.8398 32.3354 16.8398 31.8867Z" fill="white"/>
<path d="M24.0879 25.623V34.1543H22.0312V25.623H24.0879ZM26.6543 25.623V27.2109H19.5234V25.623H26.6543Z" fill="white"/>
<path d="M29.7129 25.623V34.1543H27.6621V25.623H29.7129Z" fill="white"/>
<path d="M38.1387 29.5957V33.0996C37.3215 34.0052 35.9114 34.2715 34.7461 34.2715C32.0149 34.2715 30.9902 32.0606 30.9902 29.6543C30.9902 27.4568 32.2801 25.5 34.6348 25.5C36.4992 25.5 37.9516 26.5167 38.1328 28.4062H36.1582C36.0402 27.5563 35.6471 27.082 34.7051 27.082C33.3799 27.082 33.082 28.5986 33.082 29.6426C33.082 30.9415 33.181 32.6895 34.8926 32.6895C35.5614 32.6895 35.9231 32.4796 36.082 32.332V31.0078H34.6523V29.5957H38.1387Z" fill="white"/>
</svg>
