<svg width="50" height="50" viewBox="0 0 50 50" fill="none" xmlns="http://www.w3.org/2000/svg">
<rect width="50" height="50" transform="translate(0 -0.00439453)" fill="#BFC3CC"/>
<path fill-rule="evenodd" clip-rule="evenodd" d="M32.6414 16.6366C32.0118 17.2009 31.4641 17.2426 30.9088 17.2849C30.1417 17.3434 29.2351 17.4342 28.6661 18.0008C27.7529 18.9102 27.7529 20.3814 28.6661 21.2909C29.5794 22.2003 31.0566 22.2003 31.9699 21.2909C32.4927 20.7702 32.6116 20.0031 32.6569 19.2996C32.6974 18.6691 32.7403 18.0006 33.3397 17.332C34.011 16.7351 34.6823 16.6923 35.3154 16.652C36.0208 16.607 36.7909 16.4897 37.315 15.9678C38.2282 15.0584 38.2282 13.5872 37.315 12.6777C36.4017 11.7682 34.9244 11.7682 34.0112 12.6777C33.4337 13.2529 33.3591 14.1152 33.2905 14.8875C33.2416 15.439 33.1913 16.0046 32.6414 16.6366ZM16.6602 32.6058C16.0306 33.1701 15.4829 33.2118 14.9276 33.2542C14.1605 33.3126 13.2539 33.4034 12.6849 33.97C11.7717 34.8795 11.7717 36.3507 12.6849 37.2601C13.5982 38.1696 15.0754 38.1696 15.9887 37.2601C16.5115 36.7395 16.6304 35.9725 16.6756 35.2691C16.7162 34.6386 16.7591 33.9698 17.3585 33.3013C18.0298 32.7044 18.7011 32.6616 19.3342 32.6212L19.3357 32.6211C20.0405 32.5762 20.8101 32.4586 21.3338 31.9371C22.247 31.0276 22.247 29.5564 21.3338 28.6469C20.4205 27.7375 18.9432 27.7375 18.03 28.6469C17.4501 29.2245 17.3711 30.0978 17.3108 30.875C17.2684 31.4207 17.225 31.9808 16.6602 32.6058ZM33.2924 35.0802C33.2499 34.5271 33.208 33.9818 32.6414 33.3547C31.985 32.7665 31.4 32.7283 30.8282 32.6911C30.07 32.6417 29.2305 32.5526 28.6661 31.9905C27.7529 31.0811 27.7529 29.6099 28.6661 28.7004C29.5794 27.7909 31.0566 27.7909 31.9699 28.7004C32.4927 29.2211 32.6116 29.9882 32.6569 30.6917C32.6974 31.3222 32.7403 31.9907 33.3397 32.6593C34.011 33.2562 34.6823 33.299 35.3154 33.3393C36.0208 33.3843 36.7909 33.5016 37.315 34.0235C38.2282 34.9329 38.2282 36.4041 37.315 37.3136C36.4017 38.2231 34.9244 38.2231 34.0112 37.3136C33.4412 36.7459 33.3514 35.8481 33.2924 35.0802ZM16.6602 17.3589C17.2268 17.9859 17.2687 18.5313 17.3112 19.0843C17.37 19.849 17.4626 20.7527 18.03 21.3177C18.9432 22.2272 20.4205 22.2272 21.3338 21.3177C22.247 20.4083 22.247 18.9371 21.3338 18.0276C20.8097 17.5057 20.0396 17.3884 19.3342 17.3435C18.7011 17.3031 18.0298 17.2603 17.3585 16.6634C16.7591 15.9949 16.7162 15.3263 16.6757 14.6958C16.6304 13.9923 16.5115 13.2253 15.9887 12.7046C15.0754 11.7951 13.5982 11.7951 12.6849 12.7046C11.7717 13.614 11.7717 15.0852 12.6849 15.9947C13.2506 16.5581 14.0918 16.646 14.8515 16.6949C15.4331 16.7323 16.0018 16.7688 16.6602 17.3589ZM27.7533 25.0089C27.7533 26.5336 26.5178 27.7908 24.9599 27.7908C23.4289 27.7908 22.1665 26.5336 22.1665 25.0089C22.1665 23.4843 23.4021 22.2271 24.9599 22.2271C26.4909 22.2271 27.7533 23.4843 27.7533 25.0089Z" fill="white"/>
</svg>
