<svg width="50" height="50" viewBox="0 0 50 50" fill="none" xmlns="http://www.w3.org/2000/svg">
<path d="M36.4922 11C35.2018 11 34.0331 11.8522 33.9113 13.8001C33.8383 14.8714 33.6922 15.4557 33.1566 15.9914C32.6209 16.5271 32.0366 16.6975 30.9653 16.7462C29.1879 16.8193 28.1653 17.9393 28.1653 19.3271C28.1653 20.715 29.2853 21.835 30.6731 21.835C31.9635 21.835 33.1322 20.9828 33.2539 19.035C33.327 17.9636 33.4731 17.3793 34.0087 16.8436C34.5444 16.3079 35.1287 16.1375 36.2 16.0888C37.9774 16.0158 39 14.8957 39 13.5079C39 12.12 37.88 11 36.4922 11Z" fill="#FF6112"/>
<path d="M36.2 33.9112C35.1287 33.8625 34.5444 33.6921 34.0087 33.1564C33.4731 32.6207 33.327 32.0364 33.2539 30.965C33.1322 29.0172 31.9635 28.165 30.6731 28.165C29.2853 28.165 28.1653 29.285 28.1653 30.6729C28.1653 32.0607 29.1879 33.1807 30.9653 33.2538C32.0366 33.3025 32.6209 33.4729 33.1566 34.0086C33.6922 34.5443 33.8383 35.1286 33.9113 36.1999C34.0331 38.1478 35.2018 39 36.4922 39C37.88 39 39 37.88 39 36.4921C39 35.1043 37.9774 33.9842 36.2 33.9112Z" fill="#FF6112"/>
<path d="M19.3269 28.165C18.0365 28.165 16.8678 29.0172 16.7461 30.965C16.673 32.0364 16.5269 32.6207 15.9913 33.1564C15.4556 33.6921 14.8713 33.8625 13.8 33.9112C12.0226 33.9842 11 35.1043 11 36.4921C11 37.88 12.12 39 13.5078 39C14.7982 39 15.9669 38.1478 16.0887 36.1999C16.1617 35.1286 16.3078 34.5443 16.8434 34.0086C17.3791 33.4729 17.9634 33.3025 19.0347 33.2538C20.8121 33.1807 21.8347 32.0607 21.8347 30.6729C21.8347 29.285 20.7147 28.165 19.3269 28.165Z" fill="#FF6112"/>
<path d="M19.0347 16.7462C17.9634 16.6975 17.3791 16.5271 16.8434 15.9914C16.3078 15.4557 16.1617 14.8714 16.0887 13.8001C15.9669 11.8522 14.7982 11 13.5078 11C12.12 11 11 12.12 11 13.5079C11 14.8957 12.0226 16.0158 13.8 16.0888C14.8713 16.1375 15.4556 16.3079 15.9913 16.8436C16.5269 17.3793 16.673 17.9636 16.7461 19.035C16.8678 20.9828 18.0365 21.835 19.3269 21.835C20.7147 21.835 21.8347 20.715 21.8347 19.3271C21.8347 17.9393 20.8121 16.8193 19.0347 16.7462Z" fill="#FF6112"/>
<path d="M24.9997 22.006C23.2953 22.006 22.0049 23.2964 22.0049 25.0008C22.0049 26.7052 23.2953 27.9957 24.9997 27.9957C26.704 27.9957 27.9944 26.7052 27.9944 25.0008C27.9944 23.2964 26.704 22.006 24.9997 22.006Z" fill="#FF6112"/>
</svg>
