<svg width="50" height="50" viewBox="0 0 50 50" fill="none" xmlns="http://www.w3.org/2000/svg">
<rect width="50" height="50" fill="#04E69B"/>
<path d="M31.0377 13.0009C36.2912 15.0561 42.9721 24.9586 43 25C42.9693 25.0455 36.2892 34.9451 31.0368 37L30.0428 35.023C33.8547 33.2106 36.48 29.4094 36.4801 25.0113C36.4801 20.6132 33.851 16.806 30.0347 14.9952L31.0377 13.0009Z" fill="black"/>
<path d="M19.9662 14.9943C16.1497 16.8051 13.5199 20.6087 13.5199 25.0104C13.52 29.412 16.1461 33.2106 19.9581 35.0222L18.9641 36.9991C13.704 34.9423 7.01103 25.0164 7 25C7 25 13.6996 15.0593 18.9641 13L19.9662 14.9943Z" fill="black"/>
<path fill-rule="evenodd" clip-rule="evenodd" d="M24.9991 15.3109C30.5179 15.3111 34.9921 19.6541 34.9922 25.0104C34.9922 30.3669 30.518 34.7107 24.9991 34.7108C19.4801 34.7108 15.0051 30.3669 15.0051 25.0104C15.0052 19.654 19.4802 15.3109 24.9991 15.3109ZM24.9991 22.5142C23.5787 22.5142 22.4276 23.6308 22.4274 25.0096C22.4274 26.3885 23.5786 27.5058 24.9991 27.5058C26.4195 27.5056 27.5708 26.3875 27.5708 25.0096C27.5706 23.6317 26.4194 22.5144 24.9991 22.5142Z" fill="black"/>
</svg>
