<svg width="50" height="50" viewBox="0 0 50 50" fill="none" xmlns="http://www.w3.org/2000/svg">
<path d="M12.0203 15.4319C11.8908 13.6284 12.391 11.9625 13.4366 10.5138C14.4548 9.10399 15.7725 8.07245 17.5179 7.49441C18.6276 7.12785 19.7005 7.05149 20.8126 7.05384C22.1718 7.05736 23.3647 7.6542 24.5481 8.23224C24.8427 8.37675 25.0709 8.41787 25.3631 8.24869C27.1418 7.21127 29.0796 6.75072 31.0995 7.13373C33.0219 7.49911 34.7887 8.26631 36.0362 9.90056C37.519 11.8426 38.2283 14.0126 37.9348 16.4282C37.7875 17.6442 37.4715 18.8731 36.8869 19.9528C36.3998 20.8528 35.9305 21.7891 35.2223 22.5728C34.6461 23.2096 34.1768 23.9403 33.5993 24.5759C32.7724 25.4865 31.8967 26.3535 31.0294 27.2276C30.061 28.2028 29.0785 29.1638 28.103 30.1319C27.225 31.0037 26.3505 31.879 25.4713 32.7496C25.154 33.0644 24.8558 33.102 24.5089 32.7496C23.2578 31.4736 21.9936 30.2095 20.7235 28.9512C19.6625 27.9008 18.5789 26.8728 17.5191 25.8213C16.6957 25.0048 16.0113 24.0696 15.2592 23.1919C14.4762 22.2791 13.8132 21.3004 13.2441 20.2524C12.4302 18.7486 11.8861 17.1766 12.0203 15.4319ZM34.9693 15.4425C34.9194 14.996 34.8908 14.546 34.8148 14.1043C34.5249 12.4124 33.5328 11.1072 32.0025 10.5068C29.7355 9.61742 27.4067 9.81127 25.5437 12.1457C25.1576 12.631 24.8392 12.5934 24.4352 12.1317C23.5132 11.079 22.4641 10.226 20.9765 10.0921C18.8985 9.90526 17.108 10.4304 15.9341 12.2339C14.8006 13.9739 14.8445 15.8924 15.4707 17.7746C16.2228 20.035 17.8553 21.7598 19.451 23.4457C21.1049 25.1927 22.8146 26.8963 24.5825 28.5388C24.9128 28.8466 25.0827 28.856 25.3798 28.5552C26.278 27.6471 27.2048 26.7671 28.1018 25.8589C29.3826 24.563 30.6955 23.3012 31.8658 21.8984C32.2686 21.4155 32.6239 20.9092 33.0053 20.4157C34.1435 18.9424 34.9574 17.3528 34.9704 15.4401L34.9693 15.4425Z" fill="#FEB811"/>
<path d="M4.92974 38.2019C4.92974 38.1457 4.91966 38.0956 4.89948 38.0515C4.88086 38.006 4.84594 37.9652 4.79473 37.9291C4.74507 37.8917 4.67446 37.8556 4.5829 37.8209C4.49289 37.7848 4.3765 37.7473 4.23373 37.7086C4.07544 37.6658 3.92801 37.6176 3.79145 37.5642C3.65489 37.5107 3.53462 37.4485 3.43064 37.3777C3.32822 37.3068 3.2483 37.2253 3.19088 37.133C3.13346 37.0394 3.10475 36.9311 3.10475 36.8082C3.10475 36.6878 3.13424 36.5782 3.19321 36.4793C3.25373 36.3803 3.33908 36.2955 3.44926 36.2246C3.55945 36.1524 3.68903 36.0969 3.83801 36.0582C3.98854 36.0194 4.15459 36 4.33615 36C4.58756 36 4.80482 36.0394 4.98794 36.1183C5.17261 36.1972 5.31538 36.3041 5.41625 36.4392C5.51712 36.5742 5.56756 36.7259 5.56756 36.8944H4.92974C4.92974 36.8035 4.90724 36.7233 4.86224 36.6537C4.81878 36.5842 4.75205 36.5294 4.66205 36.4893C4.57359 36.4492 4.46186 36.4291 4.32684 36.4291C4.19649 36.4291 4.08786 36.4459 4.00095 36.4793C3.9156 36.5127 3.8512 36.5582 3.80775 36.6156C3.76584 36.6731 3.74489 36.7373 3.74489 36.8082C3.74489 36.8616 3.75964 36.9098 3.78912 36.9525C3.81861 36.994 3.86284 37.0334 3.92181 37.0709C3.98078 37.107 4.05372 37.141 4.14062 37.1731C4.22908 37.2039 4.3315 37.2346 4.44789 37.2654C4.63411 37.3135 4.79706 37.367 4.93673 37.4258C5.07795 37.4846 5.19511 37.5515 5.28822 37.6263C5.38289 37.7012 5.4535 37.7854 5.50005 37.879C5.54816 37.9726 5.57221 38.0789 5.57221 38.1979C5.57221 38.3235 5.54351 38.4358 5.48609 38.5348C5.42867 38.6337 5.34642 38.7179 5.23934 38.7874C5.13226 38.857 5.00346 38.9098 4.85293 38.9459C4.70395 38.982 4.53712 39 4.35245 39C4.18795 39 4.02501 38.9813 3.86361 38.9438C3.70377 38.9051 3.55867 38.8476 3.42831 38.7714C3.29796 38.6939 3.19398 38.5963 3.11639 38.4786C3.0388 38.3596 3 38.2206 3 38.0615H3.64247C3.64247 38.1537 3.65954 38.2326 3.69368 38.2981C3.72938 38.3623 3.77904 38.4151 3.84266 38.4566C3.90784 38.4967 3.98388 38.5261 4.07079 38.5448C4.15769 38.5635 4.25158 38.5729 4.35245 38.5729C4.48281 38.5729 4.58988 38.5575 4.67369 38.5267C4.75904 38.4947 4.82266 38.4505 4.86456 38.3944C4.90802 38.3382 4.92974 38.2741 4.92974 38.2019Z" fill="#0083CA"/>
<path d="M7.4135 36.4833L6.44747 38.9599H5.77008L7.0364 36.0401H7.46937L7.4135 36.4833ZM8.22125 38.9599L7.25056 36.4833L7.19236 36.0401H7.62766L8.90096 38.9599H8.22125ZM8.17702 37.875V38.3102H6.35901V37.875H8.17702Z" fill="#0083CA"/>
<path d="M10.5537 37.8951H9.68077V37.4619H10.5537C10.6965 37.4619 10.8121 37.4418 10.9005 37.4017C10.9905 37.3603 11.0565 37.3041 11.0984 37.2333C11.1403 37.1611 11.1613 37.0789 11.1613 36.9866C11.1613 36.8971 11.1403 36.8135 11.0984 36.736C11.0565 36.6584 10.9905 36.5956 10.9005 36.5475C10.8121 36.4993 10.6965 36.4753 10.5537 36.4753H9.89028V38.9599H9.25013V36.0401H10.5537C10.8175 36.0401 11.0425 36.0809 11.2288 36.1624C11.4165 36.2426 11.5593 36.3543 11.6571 36.4973C11.7564 36.639 11.8061 36.8008 11.8061 36.9826C11.8061 37.1711 11.7564 37.3336 11.6571 37.4699C11.5593 37.6063 11.4165 37.7112 11.2288 37.7848C11.0425 37.8583 10.8175 37.8951 10.5537 37.8951Z" fill="#0083CA"/>
<path d="M15.2698 38.2019C15.2698 38.1457 15.2597 38.0956 15.2396 38.0515C15.2209 38.006 15.186 37.9652 15.1348 37.9291C15.0851 37.8917 15.0145 37.8556 14.923 37.8209C14.833 37.7848 14.7166 37.7473 14.5738 37.7086C14.4155 37.6658 14.2681 37.6176 14.1315 37.5642C13.995 37.5107 13.8747 37.4485 13.7707 37.3777C13.6683 37.3068 13.5884 37.2253 13.5309 37.133C13.4735 37.0394 13.4448 36.9311 13.4448 36.8082C13.4448 36.6878 13.4743 36.5782 13.5333 36.4793C13.5938 36.3803 13.6792 36.2955 13.7893 36.2246C13.8995 36.1524 14.0291 36.0969 14.1781 36.0582C14.3286 36.0194 14.4947 36 14.6762 36C14.9276 36 15.1449 36.0394 15.328 36.1183C15.5127 36.1972 15.6555 36.3041 15.7563 36.4392C15.8572 36.5742 15.9076 36.7259 15.9076 36.8944H15.2698C15.2698 36.8035 15.2473 36.7233 15.2023 36.6537C15.1589 36.5842 15.0921 36.5294 15.0021 36.4893C14.9137 36.4492 14.8019 36.4291 14.6669 36.4291C14.5366 36.4291 14.4279 36.4459 14.341 36.4793C14.2557 36.5127 14.1913 36.5582 14.1478 36.6156C14.1059 36.6731 14.085 36.7373 14.085 36.8082C14.085 36.8616 14.0997 36.9098 14.1292 36.9525C14.1587 36.994 14.2029 37.0334 14.2619 37.0709C14.3208 37.107 14.3938 37.141 14.4807 37.1731C14.5691 37.2039 14.6716 37.2346 14.788 37.2654C14.9742 37.3135 15.1371 37.367 15.2768 37.4258C15.418 37.4846 15.5352 37.5515 15.6283 37.6263C15.723 37.7012 15.7936 37.7854 15.8401 37.879C15.8882 37.9726 15.9123 38.0789 15.9123 38.1979C15.9123 38.3235 15.8836 38.4358 15.8262 38.5348C15.7687 38.6337 15.6865 38.7179 15.5794 38.7874C15.4723 38.857 15.3435 38.9098 15.193 38.9459C15.044 38.982 14.8772 39 14.6925 39C14.528 39 14.3651 38.9813 14.2037 38.9438C14.0438 38.9051 13.8987 38.8476 13.7684 38.7714C13.638 38.6939 13.5341 38.5963 13.4565 38.4786C13.3789 38.3596 13.3401 38.2206 13.3401 38.0615H13.9825C13.9825 38.1537 13.9996 38.2326 14.0338 38.2981C14.0694 38.3623 14.1191 38.4151 14.1827 38.4566C14.2479 38.4967 14.324 38.5261 14.4109 38.5448C14.4978 38.5635 14.5916 38.5729 14.6925 38.5729C14.8229 38.5729 14.93 38.5575 15.0138 38.5267C15.0991 38.4947 15.1627 38.4505 15.2046 38.3944C15.2481 38.3382 15.2698 38.2741 15.2698 38.2019Z" fill="#0083CA"/>
<path d="M17.8583 38.4445V36.7901H18.4775V38.9599H17.8956L17.8583 38.4445ZM17.9375 37.9953L18.1283 37.9913C18.1283 38.137 18.1097 38.2714 18.0725 38.3944C18.0352 38.5174 17.977 38.6243 17.8979 38.7152C17.8203 38.8048 17.7218 38.875 17.6023 38.9258C17.4828 38.9753 17.3416 39 17.1786 39C17.0545 39 16.9412 38.9853 16.8387 38.9559C16.7363 38.9251 16.6479 38.8777 16.5734 38.8135C16.5004 38.748 16.4438 38.6644 16.4034 38.5628C16.3631 38.4599 16.3429 38.3362 16.3429 38.1918V36.7901H16.9575V38.1959C16.9575 38.268 16.9668 38.3282 16.9854 38.3763C17.0056 38.4245 17.0327 38.4639 17.0669 38.4947C17.1026 38.5241 17.1437 38.5455 17.1902 38.5588C17.2384 38.5709 17.2896 38.5769 17.3439 38.5769C17.4929 38.5769 17.61 38.5515 17.6954 38.5007C17.7823 38.4485 17.8444 38.379 17.8816 38.2921C17.9188 38.2039 17.9375 38.1049 17.9375 37.9953Z" fill="#0083CA"/>
<path d="M20.0558 38.5829C20.1427 38.5829 20.2203 38.5682 20.2885 38.5388C20.3568 38.5094 20.4111 38.4679 20.4515 38.4144C20.4934 38.361 20.5159 38.2988 20.519 38.2279H21.0986C21.0955 38.375 21.0474 38.5067 20.9543 38.623C20.8612 38.7393 20.737 38.8316 20.5818 38.8997C20.4282 38.9666 20.256 39 20.0651 39C19.8711 39 19.7019 38.9719 19.5576 38.9158C19.4133 38.8596 19.293 38.7814 19.1968 38.6812C19.1021 38.5809 19.0308 38.4646 18.9826 38.3322C18.9361 38.1999 18.9128 38.0582 18.9128 37.9071V37.8429C18.9128 37.6918 18.9361 37.5501 18.9826 37.4178C19.0308 37.2854 19.1021 37.1691 19.1968 37.0688C19.293 36.9686 19.4133 36.8904 19.5576 36.8342C19.7019 36.7781 19.8703 36.75 20.0627 36.75C20.266 36.75 20.4445 36.7841 20.5981 36.8523C20.7533 36.9205 20.8744 37.0167 20.9613 37.141C21.0497 37.2654 21.0955 37.4118 21.0986 37.5802H20.519C20.5159 37.5027 20.4957 37.4332 20.4585 37.3717C20.4212 37.3102 20.3685 37.2607 20.3002 37.2233C20.2319 37.1858 20.1489 37.1671 20.0511 37.1671C19.9471 37.1671 19.8602 37.1858 19.7904 37.2233C19.7221 37.2607 19.6686 37.3122 19.6298 37.3777C19.5925 37.4418 19.5661 37.514 19.5506 37.5943C19.5367 37.6731 19.5297 37.756 19.5297 37.8429V37.9071C19.5297 37.9953 19.5367 38.0795 19.5506 38.1598C19.5661 38.24 19.5925 38.3122 19.6298 38.3763C19.6686 38.4392 19.7221 38.4893 19.7904 38.5267C19.8602 38.5642 19.9487 38.5829 20.0558 38.5829Z" fill="#0083CA"/>
<path d="M22.5418 38.5829C22.6288 38.5829 22.7063 38.5682 22.7746 38.5388C22.8429 38.5094 22.8972 38.4679 22.9376 38.4144C22.9795 38.361 23.002 38.2988 23.0051 38.2279H23.5847C23.5816 38.375 23.5335 38.5067 23.4404 38.623C23.3473 38.7393 23.2231 38.8316 23.0679 38.8997C22.9143 38.9666 22.742 39 22.5512 39C22.3572 39 22.188 38.9719 22.0437 38.9158C21.8994 38.8596 21.7791 38.7814 21.6829 38.6812C21.5882 38.5809 21.5168 38.4646 21.4687 38.3322C21.4222 38.1999 21.3989 38.0582 21.3989 37.9071V37.8429C21.3989 37.6918 21.4222 37.5501 21.4687 37.4178C21.5168 37.2854 21.5882 37.1691 21.6829 37.0688C21.7791 36.9686 21.8994 36.8904 22.0437 36.8342C22.188 36.7781 22.3564 36.75 22.5488 36.75C22.7521 36.75 22.9306 36.7841 23.0842 36.8523C23.2394 36.9205 23.3605 37.0167 23.4474 37.141C23.5358 37.2654 23.5816 37.4118 23.5847 37.5802H23.0051C23.002 37.5027 22.9818 37.4332 22.9446 37.3717C22.9073 37.3102 22.8545 37.2607 22.7863 37.2233C22.718 37.1858 22.635 37.1671 22.5372 37.1671C22.4332 37.1671 22.3463 37.1858 22.2765 37.2233C22.2082 37.2607 22.1547 37.3122 22.1159 37.3777C22.0786 37.4418 22.0522 37.514 22.0367 37.5943C22.0227 37.6731 22.0158 37.756 22.0158 37.8429V37.9071C22.0158 37.9953 22.0227 38.0795 22.0367 38.1598C22.0522 38.24 22.0786 38.3122 22.1159 38.3763C22.1547 38.4392 22.2082 38.4893 22.2765 38.5267C22.3463 38.5642 22.4348 38.5829 22.5418 38.5829Z" fill="#0083CA"/>
<path d="M25.1257 39C24.9348 39 24.7633 38.9733 24.6113 38.9198C24.4592 38.8663 24.3296 38.7921 24.2225 38.6972C24.117 38.6009 24.0355 38.4893 23.9781 38.3623C23.9222 38.234 23.8943 38.0963 23.8943 37.9492V37.869C23.8943 37.7019 23.9222 37.5501 23.9781 37.4138C24.034 37.2761 24.1131 37.1578 24.2155 37.0588C24.318 36.9599 24.4406 36.8837 24.5833 36.8302C24.7261 36.7767 24.8836 36.75 25.0559 36.75C25.2343 36.75 25.3918 36.7761 25.5284 36.8282C25.665 36.879 25.779 36.9512 25.8706 37.0448C25.9622 37.1384 26.0312 37.2507 26.0778 37.3817C26.1243 37.5114 26.1476 37.6551 26.1476 37.8128V38.0354H24.1736V37.6705H25.5424V37.6303C25.5393 37.5461 25.5207 37.4693 25.4865 37.3997C25.4524 37.3289 25.3996 37.2727 25.3282 37.2313C25.2568 37.1885 25.1645 37.1671 25.0512 37.1671C24.9597 37.1671 24.8797 37.1845 24.8114 37.2193C24.7447 37.2527 24.6889 37.3008 24.6438 37.3636C24.6004 37.4251 24.5678 37.4987 24.5461 37.5842C24.5244 37.6698 24.5135 37.7647 24.5135 37.869V37.9492C24.5135 38.0401 24.5275 38.1243 24.5554 38.2019C24.5849 38.2794 24.6276 38.3469 24.6834 38.4044C24.7408 38.4606 24.8091 38.5047 24.8883 38.5368C24.969 38.5675 25.0605 38.5829 25.1629 38.5829C25.2918 38.5829 25.4081 38.5615 25.5121 38.5187C25.6176 38.4746 25.7092 38.4098 25.7868 38.3242L26.0964 38.6009C26.0436 38.6678 25.9722 38.732 25.8822 38.7934C25.7938 38.8549 25.6867 38.9051 25.561 38.9438C25.4353 38.9813 25.2902 39 25.1257 39Z" fill="#0083CA"/>
<path d="M27.9447 38.3663C27.9447 38.3209 27.9307 38.2801 27.9028 38.244C27.8748 38.2079 27.8221 38.1751 27.7445 38.1457C27.6684 38.115 27.5567 38.0862 27.4093 38.0595C27.2789 38.0354 27.1586 38.0053 27.0485 37.9693C26.9383 37.9332 26.8436 37.8897 26.7645 37.8389C26.6853 37.7868 26.6233 37.7259 26.5782 37.6564C26.5348 37.5856 26.5131 37.504 26.5131 37.4118C26.5131 37.3222 26.5356 37.238 26.5806 37.1591C26.6256 37.0789 26.6908 37.0087 26.7761 36.9485C26.8615 36.887 26.9654 36.8389 27.088 36.8041C27.2106 36.768 27.3487 36.75 27.5024 36.75C27.7165 36.75 27.9004 36.7801 28.0541 36.8402C28.2093 36.9004 28.328 36.9833 28.4102 37.0889C28.4925 37.1932 28.5336 37.3108 28.5336 37.4418H27.9191C27.9191 37.3844 27.9035 37.3322 27.8725 37.2854C27.843 37.2386 27.7972 37.2012 27.7352 37.1731C27.6731 37.1437 27.5947 37.129 27.5001 37.129C27.4147 37.129 27.3425 37.141 27.2836 37.1651C27.2261 37.1892 27.1827 37.2206 27.1532 37.2594C27.1237 37.2981 27.109 37.3409 27.109 37.3877C27.109 37.4225 27.1167 37.4539 27.1323 37.482C27.1493 37.5087 27.1765 37.5334 27.2137 37.5562C27.251 37.5789 27.3014 37.5996 27.365 37.6183C27.4302 37.637 27.5101 37.6551 27.6048 37.6725C27.7926 37.7045 27.9563 37.7473 28.096 37.8008C28.2372 37.8529 28.3474 37.9225 28.4265 38.0094C28.5057 38.0963 28.5452 38.2072 28.5452 38.3422C28.5452 38.4385 28.5212 38.5267 28.4731 38.607C28.425 38.6858 28.3551 38.7547 28.2636 38.8135C28.172 38.8723 28.0626 38.9184 27.9354 38.9519C27.8081 38.984 27.6646 39 27.5047 39C27.2735 39 27.0779 38.9646 26.9181 38.8937C26.7583 38.8215 26.6372 38.7306 26.555 38.621C26.4727 38.51 26.4316 38.3951 26.4316 38.2761H27.0205C27.0252 38.3603 27.0516 38.4278 27.0997 38.4786C27.1478 38.5294 27.2083 38.5662 27.2812 38.5889C27.3557 38.6103 27.4341 38.621 27.5163 38.621C27.6095 38.621 27.6878 38.6103 27.7515 38.5889C27.8151 38.5662 27.8632 38.5361 27.8958 38.4987C27.9284 38.4599 27.9447 38.4158 27.9447 38.3663Z" fill="#0083CA"/>
<path d="M30.3982 38.3663C30.3982 38.3209 30.3842 38.2801 30.3563 38.244C30.3283 38.2079 30.2756 38.1751 30.198 38.1457C30.1219 38.115 30.0102 38.0862 29.8628 38.0595C29.7324 38.0354 29.6121 38.0053 29.502 37.9693C29.3918 37.9332 29.2971 37.8897 29.218 37.8389C29.1388 37.7868 29.0767 37.7259 29.0317 37.6564C28.9883 37.5856 28.9666 37.504 28.9666 37.4118C28.9666 37.3222 28.9891 37.238 29.0341 37.1591C29.0791 37.0789 29.1443 37.0087 29.2296 36.9485C29.315 36.887 29.4189 36.8389 29.5415 36.8041C29.6641 36.768 29.8022 36.75 29.9559 36.75C30.17 36.75 30.3539 36.7801 30.5076 36.8402C30.6628 36.9004 30.7815 36.9833 30.8637 37.0889C30.946 37.1932 30.9871 37.3108 30.9871 37.4418H30.3726C30.3726 37.3844 30.357 37.3322 30.326 37.2854C30.2965 37.2386 30.2507 37.2012 30.1887 37.1731C30.1266 37.1437 30.0482 37.129 29.9536 37.129C29.8682 37.129 29.796 37.141 29.7371 37.1651C29.6796 37.1892 29.6362 37.2206 29.6067 37.2594C29.5772 37.2981 29.5625 37.3409 29.5625 37.3877C29.5625 37.4225 29.5702 37.4539 29.5858 37.482C29.6028 37.5087 29.63 37.5334 29.6672 37.5562C29.7045 37.5789 29.7549 37.5996 29.8185 37.6183C29.8837 37.637 29.9636 37.6551 30.0583 37.6725C30.2461 37.7045 30.4098 37.7473 30.5495 37.8008C30.6907 37.8529 30.8009 37.9225 30.88 38.0094C30.9592 38.0963 30.9987 38.2072 30.9987 38.3422C30.9987 38.4385 30.9747 38.5267 30.9266 38.607C30.8785 38.6858 30.8086 38.7547 30.7171 38.8135C30.6255 38.8723 30.5161 38.9184 30.3888 38.9519C30.2616 38.984 30.118 39 29.9582 39C29.727 39 29.5314 38.9646 29.3716 38.8937C29.2118 38.8215 29.0907 38.7306 29.0085 38.621C28.9262 38.51 28.8851 38.3951 28.8851 38.2761H29.474C29.4787 38.3603 29.5051 38.4278 29.5532 38.4786C29.6013 38.5294 29.6618 38.5662 29.7347 38.5889C29.8092 38.6103 29.8876 38.621 29.9698 38.621C30.063 38.621 30.1413 38.6103 30.205 38.5889C30.2686 38.5662 30.3167 38.5361 30.3493 38.4987C30.3819 38.4599 30.3982 38.4158 30.3982 38.3663Z" fill="#0083CA"/>
<path d="M32.1533 36.0401V38.9599H31.5132V36.0401H32.1533ZM33.5197 37.3015V37.7366H31.9857V37.3015H33.5197ZM33.699 36.0401V36.4753H31.9857V36.0401H33.699Z" fill="#0083CA"/>
<path d="M35.3959 38.4987V37.498C35.3959 37.4245 35.3812 37.361 35.3517 37.3075C35.3222 37.254 35.2772 37.2126 35.2167 37.1832C35.1562 37.1537 35.0794 37.139 34.9862 37.139C34.904 37.139 34.8318 37.1511 34.7698 37.1751C34.7092 37.1992 34.6627 37.2333 34.6301 37.2774C34.5975 37.3202 34.5812 37.3697 34.5812 37.4258H33.9643C33.9643 37.3362 33.9892 37.2513 34.0388 37.1711C34.0885 37.0896 34.1591 37.0174 34.2507 36.9545C34.3438 36.8904 34.4547 36.8402 34.5835 36.8041C34.7139 36.768 34.8598 36.75 35.0212 36.75C35.212 36.75 35.382 36.7781 35.531 36.8342C35.6815 36.889 35.7994 36.9719 35.8848 37.0829C35.9717 37.1939 36.0151 37.3336 36.0151 37.502V38.4485C36.0151 38.5568 36.0229 38.6497 36.0384 38.7273C36.0555 38.8035 36.0803 38.8697 36.1129 38.9258V38.9599H35.4867C35.4572 38.9051 35.4347 38.8356 35.4192 38.7513C35.4037 38.6658 35.3959 38.5816 35.3959 38.4987ZM35.4821 37.6384L35.4867 37.9532H35.098C35.0018 37.9532 34.9172 37.9619 34.8443 37.9793C34.7713 37.9953 34.7116 38.0194 34.665 38.0515C34.6185 38.0822 34.5835 38.1197 34.5603 38.1638C34.537 38.2066 34.5253 38.2553 34.5253 38.3102C34.5253 38.3636 34.5393 38.4118 34.5672 38.4545C34.5967 38.4973 34.6386 38.5314 34.6929 38.5568C34.7488 38.5809 34.814 38.5929 34.8885 38.5929C34.9971 38.5929 35.0918 38.5742 35.1725 38.5368C35.2532 38.498 35.316 38.4512 35.361 38.3964C35.406 38.3416 35.4301 38.2894 35.4332 38.24L35.6101 38.4686C35.5884 38.5234 35.5558 38.5816 35.5123 38.643C35.4689 38.7045 35.413 38.762 35.3447 38.8155C35.2764 38.869 35.1942 38.9131 35.098 38.9479C35.0018 38.9826 34.89 39 34.7628 39C34.5998 39 34.454 38.9719 34.3252 38.9158C34.1963 38.8596 34.0947 38.7828 34.0202 38.6852C33.9457 38.5876 33.9085 38.4766 33.9085 38.3523C33.9085 38.2373 33.9333 38.1357 33.983 38.0475C34.0326 37.9592 34.1063 37.885 34.2041 37.8249C34.3019 37.7634 34.4229 37.7172 34.5672 37.6865C34.7131 37.6544 34.8799 37.6384 35.0677 37.6384H35.4821Z" fill="#0083CA"/>
<path d="M37.6027 38.5829C37.6896 38.5829 37.7672 38.5682 37.8355 38.5388C37.9038 38.5094 37.9581 38.4679 37.9984 38.4144C38.0403 38.361 38.0628 38.2988 38.0659 38.2279H38.6455C38.6424 38.375 38.5943 38.5067 38.5012 38.623C38.4081 38.7393 38.284 38.8316 38.1288 38.8997C37.9751 38.9666 37.8029 39 37.612 39C37.418 39 37.2489 38.9719 37.1045 38.9158C36.9602 38.8596 36.8399 38.7814 36.7437 38.6812C36.6491 38.5809 36.5777 38.4646 36.5296 38.3322C36.483 38.1999 36.4597 38.0582 36.4597 37.9071V37.8429C36.4597 37.6918 36.483 37.5501 36.5296 37.4178C36.5777 37.2854 36.6491 37.1691 36.7437 37.0688C36.8399 36.9686 36.9602 36.8904 37.1045 36.8342C37.2489 36.7781 37.4172 36.75 37.6097 36.75C37.813 36.75 37.9914 36.7841 38.1451 36.8523C38.3003 36.9205 38.4213 37.0167 38.5082 37.141C38.5967 37.2654 38.6424 37.4118 38.6455 37.5802H38.0659C38.0628 37.5027 38.0426 37.4332 38.0054 37.3717C37.9682 37.3102 37.9154 37.2607 37.8471 37.2233C37.7788 37.1858 37.6958 37.1671 37.598 37.1671C37.4941 37.1671 37.4072 37.1858 37.3373 37.2233C37.269 37.2607 37.2155 37.3122 37.1767 37.3777C37.1395 37.4418 37.1131 37.514 37.0976 37.5943C37.0836 37.6731 37.0766 37.756 37.0766 37.8429V37.9071C37.0766 37.9953 37.0836 38.0795 37.0976 38.1598C37.1131 38.24 37.1395 38.3122 37.1767 38.3763C37.2155 38.4392 37.269 38.4893 37.3373 38.5267C37.4072 38.5642 37.4956 38.5829 37.6027 38.5829Z" fill="#0083CA"/>
<path d="M40.2471 36.7901V37.1711H38.8038V36.7901H40.2471ZM39.1902 36.2567H39.8071V38.3342C39.8071 38.3984 39.8172 38.4479 39.8374 38.4826C39.8575 38.5174 39.8878 38.5408 39.9282 38.5528C39.9685 38.5648 40.0166 38.5709 40.0725 38.5709C40.1128 38.5709 40.1501 38.5689 40.1842 38.5648C40.2184 38.5608 40.2471 38.5568 40.2703 38.5528L40.2727 38.9499C40.2215 38.9646 40.1633 38.9766 40.0981 38.986C40.0345 38.9953 39.9623 39 39.8816 39C39.7435 39 39.6224 38.9799 39.5185 38.9398C39.4145 38.8984 39.3338 38.8322 39.2764 38.7413C39.219 38.6491 39.1902 38.5274 39.1902 38.3763V36.2567Z" fill="#0083CA"/>
<path d="M40.4868 37.8971V37.8549C40.4868 37.6959 40.5132 37.5495 40.566 37.4158C40.6187 37.2807 40.6956 37.1638 40.7964 37.0648C40.8973 36.9659 41.0207 36.889 41.1665 36.8342C41.3124 36.7781 41.4785 36.75 41.6647 36.75C41.854 36.75 42.0216 36.7781 42.1675 36.8342C42.3149 36.889 42.4391 36.9659 42.5399 37.0648C42.6408 37.1638 42.7176 37.2807 42.7704 37.4158C42.8232 37.5495 42.8495 37.6959 42.8495 37.8549V37.8971C42.8495 38.0548 42.8232 38.2012 42.7704 38.3362C42.7176 38.4699 42.6408 38.5869 42.5399 38.6872C42.4391 38.7861 42.3157 38.863 42.1698 38.9178C42.024 38.9726 41.8571 39 41.6693 39C41.4831 39 41.3163 38.9726 41.1689 38.9178C41.0214 38.863 40.8973 38.7861 40.7964 38.6872C40.6956 38.5869 40.6187 38.4699 40.566 38.3362C40.5132 38.2012 40.4868 38.0548 40.4868 37.8971ZM41.1014 37.8549V37.8971C41.1014 37.992 41.1122 38.0809 41.134 38.1638C41.1557 38.2467 41.189 38.3195 41.2341 38.3824C41.2791 38.4452 41.3373 38.4947 41.4086 38.5307C41.4816 38.5655 41.5685 38.5829 41.6693 38.5829C41.7687 38.5829 41.854 38.5655 41.9254 38.5307C41.9968 38.4947 42.055 38.4452 42.1 38.3824C42.1465 38.3195 42.1807 38.2467 42.2024 38.1638C42.2241 38.0809 42.235 37.992 42.235 37.8971V37.8549C42.235 37.7614 42.2241 37.6738 42.2024 37.5922C42.1807 37.5094 42.1465 37.4365 42.1 37.3737C42.055 37.3095 41.996 37.2594 41.9231 37.2233C41.8517 37.1858 41.7656 37.1671 41.6647 37.1671C41.5654 37.1671 41.48 37.1858 41.4086 37.2233C41.3373 37.2594 41.2791 37.3095 41.2341 37.3737C41.189 37.4365 41.1557 37.5094 41.134 37.5922C41.1122 37.6738 41.1014 37.7614 41.1014 37.8549Z" fill="#0083CA"/>
<path d="M43.911 37.2333V38.9599H43.2965V36.7901H43.8784L43.911 37.2333ZM44.6769 36.7761L44.6675 37.2694C44.6334 37.264 44.5946 37.26 44.5512 37.2574C44.5093 37.2547 44.4697 37.2533 44.4324 37.2533C44.3378 37.2533 44.2548 37.2647 44.1834 37.2874C44.112 37.3088 44.0522 37.3402 44.0041 37.3817C43.9576 37.4231 43.9219 37.4739 43.897 37.5341C43.8722 37.5929 43.8583 37.6598 43.8551 37.7346L43.7225 37.7206C43.7225 37.5829 43.7388 37.4552 43.7713 37.3376C43.8039 37.2199 43.8513 37.117 43.9133 37.0287C43.9754 36.9405 44.053 36.8723 44.1461 36.8242C44.2408 36.7747 44.3494 36.75 44.472 36.75C44.5062 36.75 44.5426 36.7527 44.5814 36.758C44.6218 36.762 44.6536 36.768 44.6769 36.7761Z" fill="#0083CA"/>
<path d="M46.3994 38.3663C46.3994 38.3209 46.3855 38.2801 46.3575 38.244C46.3296 38.2079 46.2768 38.1751 46.1992 38.1457C46.1232 38.115 46.0115 38.0862 45.864 38.0595C45.7337 38.0354 45.6134 38.0053 45.5032 37.9693C45.393 37.9332 45.2984 37.8897 45.2192 37.8389C45.1401 37.7868 45.078 37.7259 45.033 37.6564C44.9896 37.5856 44.9678 37.504 44.9678 37.4118C44.9678 37.3222 44.9903 37.238 45.0353 37.1591C45.0803 37.0789 45.1455 37.0087 45.2309 36.9485C45.3162 36.887 45.4202 36.8389 45.5428 36.8041C45.6654 36.768 45.8035 36.75 45.9571 36.75C46.1713 36.75 46.3552 36.7801 46.5088 36.8402C46.664 36.9004 46.7827 36.9833 46.865 37.0889C46.9472 37.1932 46.9884 37.3108 46.9884 37.4418H46.3738C46.3738 37.3844 46.3583 37.3322 46.3273 37.2854C46.2978 37.2386 46.252 37.2012 46.1899 37.1731C46.1279 37.1437 46.0495 37.129 45.9548 37.129C45.8695 37.129 45.7973 37.141 45.7383 37.1651C45.6809 37.1892 45.6375 37.2206 45.608 37.2594C45.5785 37.2981 45.5638 37.3409 45.5638 37.3877C45.5638 37.4225 45.5715 37.4539 45.587 37.482C45.6041 37.5087 45.6313 37.5334 45.6685 37.5562C45.7057 37.5789 45.7562 37.5996 45.8198 37.6183C45.885 37.637 45.9649 37.6551 46.0596 37.6725C46.2473 37.7045 46.4111 37.7473 46.5507 37.8008C46.692 37.8529 46.8021 37.9225 46.8813 38.0094C46.9604 38.0963 47 38.2072 47 38.3422C47 38.4385 46.9759 38.5267 46.9278 38.607C46.8797 38.6858 46.8099 38.7547 46.7183 38.8135C46.6268 38.8723 46.5174 38.9184 46.3901 38.9519C46.2629 38.984 46.1193 39 45.9595 39C45.7282 39 45.5327 38.9646 45.3729 38.8937C45.213 38.8215 45.092 38.7306 45.0097 38.621C44.9275 38.51 44.8864 38.3951 44.8864 38.2761H45.4753C45.48 38.3603 45.5063 38.4278 45.5544 38.4786C45.6025 38.5294 45.6631 38.5662 45.736 38.5889C45.8105 38.6103 45.8889 38.621 45.9711 38.621C46.0642 38.621 46.1426 38.6103 46.2062 38.5889C46.2698 38.5662 46.318 38.5361 46.3505 38.4987C46.3831 38.4599 46.3994 38.4158 46.3994 38.3663Z" fill="#0083CA"/>
</svg>
