<svg width="50" height="50" viewBox="0 0 50 50" fill="none" xmlns="http://www.w3.org/2000/svg">
<rect width="50" height="50" fill="#000099"/>
<path d="M20.4031 14.5024L19.1188 16.0993C18.0175 15.2163 17.3204 14.9723 16.3113 14.9723C15.5212 14.9723 14.9579 15.2295 14.7871 15.6493V16.1929C14.8942 16.4245 15.1555 16.5692 15.5414 16.6817C15.7981 16.7573 16.256 16.8699 16.917 17.0202C18.9629 17.4854 20.019 17.9969 20.3902 19.0322C20.3902 19.3811 20.392 20.7492 20.392 21.0697C19.9442 22.3896 18.5585 23.2207 16.5311 23.2207C14.752 23.2207 13.4863 22.7508 11.9999 21.3978L13.3755 19.8198C14.055 20.3832 14.6053 20.7586 15.0641 20.9468C15.523 21.1538 16.0178 21.2475 16.5865 21.2475C17.3647 21.2475 17.9594 21.0102 18.1523 20.5658V19.9115C18.0138 19.607 17.6759 19.4274 17.2835 19.312C17.0278 19.2563 16.568 19.1438 15.9079 18.9925C13.9064 18.5433 12.9702 18.0526 12.6249 17.1195V15.0697C13.07 13.8709 14.3929 13 16.3668 13C17.9805 13 19.1004 13.3942 20.4031 14.5024Z" fill="white"/>
<path d="M37.6545 13.3186V22.92H35.4701V21.9046C34.9754 22.7319 34.0576 23.2207 32.719 23.2207C30.4996 23.2207 29.3972 22.0369 29.3972 20.1762V13.3186H31.7828V19.5003C31.7828 20.4959 32.3145 21.0972 33.343 21.0972C34.5341 21.0972 35.2689 20.4022 35.2689 19.106V13.3186H37.6545Z" fill="white"/>
<path d="M26.0554 29.9902V36.6993H23.6698V30.7239C23.6698 29.5779 23.2108 28.882 22.1834 28.882C21.1383 28.882 20.5326 29.6725 20.5326 30.7995V36.6993H18.147V30.7239C18.147 29.5023 17.6522 28.882 16.6616 28.882C15.6155 28.882 15.0099 29.6725 15.0099 30.7995V36.6993H12.6252V27.097H14.8456V28.1692C15.3958 27.2483 16.2941 26.7793 17.5238 26.7793C18.7157 26.7793 19.615 27.2861 20.1283 28.1862C20.7708 27.2483 21.707 26.7793 22.9358 26.7793C24.9171 26.7793 26.0554 28.0179 26.0554 29.9902Z" fill="white"/>
<path d="M31.2531 33.322C31.626 34.3356 32.4218 34.9331 33.478 34.9331C34.5212 34.9331 35.3133 34.3356 35.6864 33.322C35.6864 32.8379 35.6864 30.9848 35.6864 30.4743C35.3153 29.4626 34.5231 28.8442 33.478 28.8442C32.4218 28.8442 31.6242 29.4626 31.2531 30.4743C31.2531 30.9545 31.2531 32.8833 31.2531 33.322ZM38 33.912C37.3075 35.8105 35.6199 37 33.478 37C31.3232 37 29.6319 35.8105 28.9394 33.912V29.8654C29.6319 27.965 31.3232 26.7793 33.478 26.7793C35.6199 26.7793 37.3075 27.965 38 29.8654V33.912Z" fill="white"/>
</svg>
