<svg width="50" height="50" viewBox="0 0 50 50" fill="none" xmlns="http://www.w3.org/2000/svg">
<path d="M44.561 21.809C44.3254 21.9649 44.0095 21.9652 43.7739 21.809C43.387 21.5531 43.3501 21.0186 43.6621 20.7083C43.9389 20.4224 44.3957 20.4224 44.6728 20.708C44.9841 21.0183 44.9464 21.5531 44.561 21.809ZM45.6868 20.25C46.1357 22.1551 44.4186 23.8681 42.5079 23.4206C41.5354 23.1928 40.7624 22.4232 40.5351 21.4533C40.0865 19.5494 41.8029 17.8378 43.7133 18.2843C44.6854 18.5105 45.4577 19.2802 45.6868 20.25ZM32.8211 30.4951C33.0405 30.8083 33.2212 31.1103 33.3238 31.4124C33.3955 31.6276 33.4873 31.9104 33.7003 32.0241C33.7125 32.0305 33.7225 32.0359 33.735 32.0398C34.1248 32.1814 35.1277 32.1574 35.1277 32.1574H36.9714C37.1288 32.1599 38.5135 32.156 38.4791 32.0012C38.3131 31.2626 37.4554 31.1311 36.8043 30.7446C36.2023 30.3872 35.6332 29.9821 35.3736 29.2854C35.2396 28.9258 35.3192 28.0961 35.5515 27.7936C35.7211 27.5756 35.9692 27.4304 36.2385 27.3718C36.535 27.3085 36.8434 27.3632 37.1413 27.3933C37.5074 27.4304 37.8699 27.4966 38.2346 27.542C38.9406 27.6335 39.652 27.6703 40.363 27.651C41.5369 27.6185 42.7133 27.4319 43.8259 27.054C44.6022 26.7938 45.3673 26.4423 46.0278 25.9537C46.7786 25.3971 46.5821 25.4496 45.8209 25.5272C44.9095 25.6205 43.9894 25.6334 43.0758 25.5797C42.2228 25.5304 41.382 25.4303 40.61 25.0349C40.0019 24.7225 39.4802 24.4093 38.9994 23.925C38.9273 23.852 38.8821 23.6383 39.0141 23.5021C39.1417 23.3694 39.4132 23.4467 39.4967 23.5167C40.3372 24.2174 41.5896 24.7936 42.8876 24.8566C43.5885 24.8912 44.272 24.9048 44.974 24.8734C45.3243 24.8576 45.855 24.8601 46.2057 24.8566C46.3878 24.8544 46.883 24.9062 46.9755 24.7146C47.0031 24.6585 47.0009 24.5938 46.9988 24.5312C46.8955 21.7325 46.6879 18.5745 43.7499 17.2365C41.5577 16.237 38.2708 14.6887 36.8828 14.0463C36.5601 13.8944 36.1836 14.1353 36.1836 14.4924C36.1836 15.4276 36.232 16.771 36.232 17.9936C35.5673 17.318 34.4471 16.8922 33.5934 16.5015C32.6246 16.0579 31.6231 15.6829 30.6059 15.3665C28.555 14.7334 26.4338 14.3437 24.3003 14.1317C21.8815 13.8915 19.4211 14.0066 17.0371 14.4971C13.1137 15.3086 9.25709 17.1904 6.32912 19.9412C4.53167 21.6299 3.12147 24.0293 3.02573 26.4652C2.88984 29.9124 3.8583 31.7642 5.63925 33.6721C8.47866 36.7128 14.5895 37.1382 17.0643 33.5326C18.1769 31.909 18.4197 29.7072 17.6111 27.9137C16.8036 26.1203 14.946 24.824 12.976 24.7583C11.4472 24.7082 9.81895 25.4829 9.23343 26.8921C8.78631 27.9677 9.04088 29.2972 9.85445 30.133C10.1714 30.4594 10.6006 30.7253 11.0703 30.621C11.346 30.5602 11.5773 30.3528 11.6193 30.0733C11.6809 29.6608 11.3184 29.3934 11.0961 29.0766C10.6942 28.505 10.7756 27.6478 11.279 27.162C11.7035 26.7519 12.3324 26.6307 12.9237 26.6318C13.4737 26.6329 14.0367 26.7316 14.5117 27.0082C15.179 27.3993 15.6229 28.1161 15.7753 28.8743C16.2339 31.1382 14.388 32.9778 11.8846 33.1226C10.6042 33.1984 9.30048 32.8624 8.30082 32.0602C5.76941 30.03 5.14911 25.88 8.04338 23.6644C10.7896 21.5616 14.2575 22.1036 16.3009 23.1964C17.9378 24.0705 19.1572 25.5011 20.0812 27.0826C20.5445 27.8776 20.9396 28.7084 21.3064 29.5532C21.6592 30.3646 21.9884 31.1826 22.6944 31.7774C23.1619 32.1717 23.7381 32.1574 24.3505 32.1574H27.845C28.319 32.1574 28.2043 31.8421 27.9985 31.633C27.5352 31.1611 26.8698 31.0542 26.253 30.8851C24.8453 30.4991 24.9888 28.6405 25.3782 28.6405C26.6378 28.6405 26.6776 28.6777 27.7805 28.663C29.3732 28.6416 29.854 28.5493 31.0986 29.0087C31.7648 29.2543 32.4044 29.9031 32.8211 30.4951Z" fill="#30BA78"/>
</svg>
