<svg width="50" height="50" viewBox="0 0 50 50" fill="none" xmlns="http://www.w3.org/2000/svg">
<path d="M38.6043 10.3809C34.7616 5.14628 19.7509 13.2374 22.9954 19.3501C25.2538 23.601 35.4122 27.2781 36.5191 31.8608C37.9991 37.9906 26.6696 41.2095 22.4455 41.5394C18.2947 41.8657 12.421 40.5037 15.0419 34.944L15.3579 36.3573C15.8845 38.1922 18.4125 39.0868 20.1032 38.9639C24.4843 38.6509 31.0733 34.4437 26.4678 29.8994C22.6669 26.1471 12.8638 22.9869 15.3096 15.8819C17.3681 9.9116 29.5332 4.80649 35.2248 6.24545C37.0565 6.70739 38.5187 8.44697 38.6043 10.3809Z" fill="#007CB8"/>
<path d="M20.7531 8.54962C19.6908 9.51932 18.4018 10.2031 17.3592 11.2039C16.6326 11.9005 15.7078 13.4439 15.1365 13.871C14.342 14.4631 12.5478 14.366 11.9925 15.2293C11.7051 15.6784 12.1443 17.9294 12.2693 18.6352C13.1941 23.8466 15.4221 28.6822 18.6982 32.748C19.9407 34.2914 21.4243 35.8844 23.074 36.9641C23.2596 37.2425 18.8778 38.0722 18.5589 38.0272C18.2322 37.9814 16.554 36.1025 16.1987 35.6809C12.4782 31.2834 10.1215 26.1416 8.87897 20.4664C8.58439 19.1209 7.51856 13.5172 8.25411 12.6722C8.61831 12.2524 12.3835 10.8355 13.1637 10.5642C15.6381 9.70263 18.1965 9.09038 20.7548 8.55329L20.7531 8.54962Z" fill="#103E6D"/>
<path d="M37.5332 30.3613C37.1193 29.9122 34.6561 27.9297 34.7088 27.3716C35.8443 25.7787 36.4635 23.2673 36.9511 21.4215C37.1886 20.5159 38.283 15.6308 37.9884 15.1468C35.1087 13.5007 31.7166 12.5695 28.4334 12.3991C28.1909 11.3171 33.2284 9.72333 34.0822 9.6623C35.5122 9.56148 40.2647 11.7282 41.4519 12.6869C41.6876 12.8757 41.9696 13.0663 42 13.4109C41.5215 19.3867 40.2504 25.0454 37.5332 30.3632V30.3613Z" fill="#103E6D"/>
<path d="M27.5372 41.3616C26.9159 41.9885 25.5038 43.1745 24.6325 42.9784C24.3344 42.9124 23.1704 42.1498 23.6988 42.0912L27.5372 41.3598V41.3616Z" fill="#103E6D"/>
</svg>
