<svg width="50" height="50" viewBox="0 0 50 50" fill="none" xmlns="http://www.w3.org/2000/svg">
<rect width="50" height="50" fill="#D4F700"/>
<path d="M41.4183 26.8648C42.2892 26.8648 43 27.5654 43 28.4412C43 29.2995 42.2892 30 41.4183 30C40.5474 30 39.8363 29.2995 39.8363 28.4412C39.8363 27.5654 40.5474 26.8648 41.4183 26.8648Z" fill="#0F190A"/>
<path d="M9.98604 21.4171C10.6969 21.4171 11.4077 21.5746 11.8698 21.7147V23.9743H11.7455C11.6033 22.7483 10.8391 22.0127 10.0215 22.0127C9.47055 22.0127 9.07934 22.3454 9.07933 22.8533C9.07933 23.3788 9.48822 23.7116 9.91477 24.0269L10.7678 24.6751C11.8164 25.4808 12.3143 26.3214 12.3143 27.1621C12.3143 28.8787 11.3188 29.9997 9.22156 29.9997C8.38625 29.9997 7.55095 29.842 7 29.7194V26.987H7.14222C7.35549 28.7385 8.26184 29.404 9.13271 29.4041C9.73698 29.4041 10.1637 29.0714 10.1637 28.4409C10.1637 27.933 9.84377 27.5826 9.25735 27.1448L8.40401 26.4966C7.47984 25.796 7 25.0778 7 24.1145C7 22.6257 8.10208 21.4171 9.98604 21.4171Z" fill="#0F190A"/>
<path d="M15.985 21.75H15.9674C15.6297 21.75 15.4519 21.9775 15.4519 22.2927C15.4519 22.5379 15.5586 22.8885 15.7363 23.414L16.465 25.4808L17.1403 23.6064L16.8025 22.5557C16.6071 21.9779 16.5361 21.8376 16.3407 21.75V21.5922H19.9129V21.75H19.8953C19.5754 21.75 19.3977 21.9775 19.3977 22.2927C19.3977 22.5379 19.4332 22.8885 19.6109 23.414L20.2862 25.4981L20.9615 23.4839C21.1037 23.0811 21.2459 22.6958 21.246 22.3806C21.246 21.9602 21.0326 21.75 20.6061 21.75H20.5885V21.5922H22.7033V21.75C22.3657 21.75 22.0459 22.0828 21.6371 23.3088L19.3798 29.9997H19.2376L17.4427 24.4997L15.4698 29.9997H15.3276L12.5726 22.2404C12.4838 21.9953 12.3594 21.8026 12.1462 21.75V21.5922H15.985V21.75Z" fill="#0F190A"/>
<path fill-rule="evenodd" clip-rule="evenodd" d="M25.5257 21.4171C27.4274 21.4171 28.3159 22.9586 28.227 25.0254H24.4771C24.6194 27.1972 25.6501 27.6878 26.4321 27.6878C27.0897 27.6878 27.7296 27.3548 28.1206 26.5316L28.2449 26.5668C27.8362 28.5285 26.8409 29.9996 25.2947 29.9997C23.3041 29.9997 22.2023 28.1081 22.2022 25.8487C22.2022 23.2213 23.5351 21.4171 25.5257 21.4171ZM25.1346 21.9075C24.708 21.9076 24.4592 22.5733 24.4592 24.4474H25.8278C25.81 22.5207 25.6144 21.9075 25.1346 21.9075Z" fill="#0F190A"/>
<path fill-rule="evenodd" clip-rule="evenodd" d="M31.9299 21.4171C33.8317 21.4171 34.7204 22.9586 34.6315 25.0254H30.8813C31.0235 27.1972 32.0543 27.6878 32.8363 27.6878C33.494 27.6878 34.1338 27.3548 34.5248 26.5316L34.6491 26.5668C34.2403 28.5285 33.2451 29.9997 31.6989 29.9997C29.7083 29.9997 28.6064 28.1081 28.6064 25.8487C28.6064 23.2213 29.9393 21.4171 31.9299 21.4171ZM31.5391 21.9075C31.1125 21.9075 30.8634 22.5732 30.8634 24.4474H32.232C32.2142 22.5209 32.0188 21.9076 31.5391 21.9075Z" fill="#0F190A"/>
<path d="M38.0682 21.5922H39.4368V22.2054H38.0682L38.0506 27.6878C38.0506 28.2482 38.2282 28.4235 38.5125 28.4236C38.8502 28.4236 39.1347 28.1782 39.4547 27.5476L39.579 27.6002C39.0635 29.2642 38.2814 29.9647 37.2862 29.9647C36.0954 29.9647 35.4913 29.2642 35.4913 27.6528V22.2054H34.9048V21.9777C35.9356 21.6974 37.3931 20.2611 37.8196 19H38.0682V21.5922Z" fill="#0F190A"/>
</svg>
