<svg width="50" height="50" viewBox="0 0 50 50" fill="none" xmlns="http://www.w3.org/2000/svg">
<path d="M42.1652 6V7.10769H43.2778V6H42.1652ZM42.1652 8.21539V9.32308H43.2778V8.21539H42.1652ZM38.8275 9.32308V10.4308H39.9401V9.32308H38.8275ZM24.2706 10.1531C15.4368 10.1531 8.27777 17.2807 8.27777 26.0758C8.27777 34.8709 15.4368 42 24.2706 42C33.1044 42 40.2634 34.8724 40.2634 26.0758C40.2634 17.2793 33.1044 10.1531 24.2721 10.1531H24.2706ZM24.2706 15.2308C30.2815 15.2308 35.1649 20.0913 35.1649 26.0758C35.1649 32.0603 30.2815 36.9223 24.2706 36.9223C18.2598 36.9223 13.4238 32.0603 13.4238 26.0758C13.4238 20.0913 18.2598 15.2308 24.2706 15.2308Z" fill="#FDB511"/>
<path d="M28.8143 18.1846C25.9097 21.7972 25.1784 23.3834 24.0213 26.3062C22.7085 23.6625 21.142 21.8385 18.4288 20.6304C17.9156 20.499 17.6634 20.4236 17.3163 20.9066C16.9691 21.3896 17.1813 21.8252 17.5951 22.3377C18.681 23.6817 19.9019 24.9224 20.7474 26.4451C21.7398 28.2307 22.974 31.1712 23.3894 31.9377C23.7202 32.5462 24.5213 32.815 24.8283 32.815C26.469 32.6216 26.469 31.7901 26.782 30.3501C27.2893 27.9884 27.9465 25.5471 31.0394 22.6139V18.1832L28.8143 18.1846Z" fill="black"/>
<path d="M41.0527 7.10767V8.21537L42.1652 8.21539V7.10769L41.0527 7.10767ZM41.0527 8.21537H38.8275L38.8275 9.32308L41.0527 9.32306V8.21537ZM38.8275 9.32308L37.715 9.32306V11.5384H38.8275L38.8275 9.32308ZM38.8275 11.5384V12.6461H39.9401V11.5384H38.8275ZM39.9401 11.5384H41.0527V10.4308L39.9401 10.4308L39.9401 11.5384ZM38.8275 12.6461H37.715V13.7538H36.6024V12.6461H34.3772V13.7538H33.2647V14.8615H34.3772V15.9692H33.2647V14.8615H32.1521V15.9692H31.0395V17.0769H29.927V21.5077H32.1521V20.4H33.2647V19.2923H34.3772V18.1846H33.2647V17.0769H34.3772V18.1846H35.4898V17.0769H36.6024V15.9692H37.715V14.8615H38.8275V12.6461ZM36.6024 12.6461H37.715V11.5384H36.6024V12.6461ZM36.6024 11.5384V10.4308H35.4898V11.5384H36.6024Z" fill="black"/>
</svg>
