<svg width="50" height="50" viewBox="0 0 50 50" fill="none" xmlns="http://www.w3.org/2000/svg">
<path d="M39.5464 6V6.92308H40.5V6H39.5464ZM39.5464 7.84615V8.76923H40.5V7.84615H39.5464ZM36.6855 8.76923V9.69231H37.6391V8.76923H36.6855ZM24.2081 9.46092C16.6363 9.46092 10.5 15.4006 10.5 22.7298C10.5 30.0591 16.6363 36 24.2081 36C31.78 36 37.9163 30.0603 37.9163 22.7298C37.9163 15.3994 31.7787 9.46092 24.2081 9.46092ZM24.2081 13.6923C29.3603 13.6923 33.5461 17.7428 33.5461 22.7298C33.5461 27.7169 29.3603 31.7686 24.2081 31.7686C19.056 31.7686 14.9109 27.7169 14.9109 22.7298C14.9109 17.7428 19.056 13.6923 24.2081 13.6923Z" fill="#FDB511"/>
<path d="M28.1027 16.1539C25.6131 19.1643 24.9863 20.4862 23.9945 22.9219C22.8692 20.7188 21.5265 19.1988 19.2009 18.192C18.761 18.0825 18.5448 18.0197 18.2473 18.4222C17.9497 18.8246 18.1316 19.1877 18.4863 19.6148C19.4171 20.7348 20.4635 21.7686 21.1883 23.0376C22.0389 24.5256 23.0968 26.976 23.4528 27.6148C23.7364 28.1219 24.423 28.3459 24.6862 28.3459C26.0925 28.1846 26.0925 27.4917 26.3608 26.2917C26.7956 24.3237 27.3589 22.2892 30.01 19.8449V16.1526L28.1027 16.1539Z" fill="black"/>
<path d="M38.5928 6.92306V7.84614L39.5464 7.84615V6.92308L38.5928 6.92306ZM38.5928 7.84614H36.6855L36.6855 8.76923L38.5928 8.76922V7.84614ZM36.6855 8.76923L35.7319 8.76922V10.6154H36.6855L36.6855 8.76923ZM36.6855 10.6154V11.5384H37.6391V10.6154H36.6855ZM37.6391 10.6154H38.5928V9.69229L37.6391 9.69231L37.6391 10.6154ZM36.6855 11.5384H35.7319V12.4615H34.7782V11.5384H32.871V12.4615H31.9173V13.3846H32.871V14.3077H31.9173V13.3846H30.9637V14.3077H30.0101V15.2308H29.0564V18.9231H30.9637V18H31.9173V17.0769H32.871V16.1538H31.9173V15.2308H32.871V16.1538H33.8246V15.2308H34.7782V14.3077H35.7319V13.3846H36.6855V11.5384ZM34.7782 11.5384H35.7319V10.6154H34.7782V11.5384ZM34.7782 10.6154V9.69229H33.8246V10.6154H34.7782Z" fill="black"/>
<path d="M20.3418 46V45.2334H16.7676V42.7139H19.8438V41.9473H16.7676V39.6621H20.293V38.8906H15.8252V46H20.3418Z" fill="black"/>
<path fill-rule="evenodd" clip-rule="evenodd" d="M23.4326 46H21.5088V38.8906H23.5205C23.986 38.8906 24.4108 38.9688 24.7949 39.125C25.179 39.278 25.5094 39.501 25.7861 39.7939C26.0661 40.0837 26.2809 40.4352 26.4307 40.8486C26.5804 41.2588 26.6553 41.721 26.6553 42.2354V42.6602C26.6553 43.1745 26.5804 43.6383 26.4307 44.0518C26.2809 44.4619 26.0645 44.8118 25.7812 45.1016C25.5013 45.3913 25.1628 45.6143 24.7656 45.7705C24.3717 45.9235 23.9274 46 23.4326 46ZM23.4326 45.2334H22.4512V39.6621H23.5205C23.8721 39.6621 24.1829 39.7191 24.4531 39.833C24.7266 39.9469 24.9577 40.1146 25.1465 40.3359C25.3353 40.554 25.4785 40.8226 25.5762 41.1416C25.6738 41.4574 25.7227 41.8187 25.7227 42.2256V42.6602C25.7227 43.1777 25.6364 43.6302 25.4639 44.0176C25.2946 44.4017 25.0407 44.7012 24.7021 44.916C24.3636 45.1276 23.9404 45.2334 23.4326 45.2334Z" fill="black"/>
<path fill-rule="evenodd" clip-rule="evenodd" d="M28.0713 38.8906H30.4248C30.9587 38.8906 31.4095 38.972 31.7773 39.1348C32.1484 39.2975 32.43 39.5384 32.6221 39.8574C32.8174 40.1732 32.915 40.5622 32.915 41.0244C32.915 41.3499 32.8483 41.6478 32.7148 41.918C32.5846 42.1849 32.3958 42.4128 32.1484 42.6016C31.9771 42.7317 31.7818 42.8387 31.5624 42.9224L33.2324 45.9414V46H32.2266L30.6814 43.1191H29.0137V46H28.0713V38.8906ZM30.4541 42.3525H29.0137V39.6621H30.4248C30.7861 39.6621 31.0807 39.7191 31.3086 39.833C31.5397 39.9437 31.709 40.1016 31.8164 40.3066C31.9238 40.5117 31.9775 40.751 31.9775 41.0244C31.9775 41.2686 31.9206 41.4915 31.8066 41.6934C31.6927 41.8952 31.5234 42.0563 31.2988 42.1768C31.0742 42.2939 30.7926 42.3525 30.4541 42.3525Z" fill="black"/>
</svg>
