<svg width="50" height="50" viewBox="0 0 50 50" fill="none" xmlns="http://www.w3.org/2000/svg">
<path d="M39.5464 6V6.92308H40.5V6H39.5464ZM39.5464 7.84615V8.76923H40.5V7.84615H39.5464ZM36.6855 8.76923V9.69231H37.6391V8.76923H36.6855ZM24.2081 9.46092C16.6363 9.46092 10.5 15.4006 10.5 22.7298C10.5 30.0591 16.6363 36 24.2081 36C31.78 36 37.9163 30.0603 37.9163 22.7298C37.9163 15.3994 31.7787 9.46092 24.2081 9.46092ZM24.2081 13.6923C29.3603 13.6923 33.5461 17.7428 33.5461 22.7298C33.5461 27.7169 29.3603 31.7686 24.2081 31.7686C19.056 31.7686 14.9109 27.7169 14.9109 22.7298C14.9109 17.7428 19.056 13.6923 24.2081 13.6923Z" fill="#FDB511"/>
<path d="M28.1027 16.1539C25.6131 19.1643 24.9863 20.4862 23.9945 22.9219C22.8692 20.7188 21.5265 19.1988 19.2009 18.192C18.761 18.0825 18.5448 18.0197 18.2473 18.4222C17.9497 18.8246 18.1316 19.1877 18.4863 19.6148C19.4171 20.7348 20.4635 21.7686 21.1883 23.0376C22.0389 24.5256 23.0968 26.976 23.4528 27.6148C23.7364 28.1219 24.423 28.3459 24.6862 28.3459C26.0925 28.1846 26.0925 27.4917 26.3608 26.2917C26.7956 24.3237 27.3589 22.2892 30.01 19.8449V16.1526L28.1027 16.1539Z" fill="black"/>
<path d="M38.5928 6.92306V7.84614L39.5464 7.84615V6.92308L38.5928 6.92306ZM38.5928 7.84614H36.6855L36.6855 8.76923L38.5928 8.76922V7.84614ZM36.6855 8.76923L35.7319 8.76922V10.6154H36.6855L36.6855 8.76923ZM36.6855 10.6154V11.5384H37.6391V10.6154H36.6855ZM37.6391 10.6154H38.5928V9.69229L37.6391 9.69231L37.6391 10.6154ZM36.6855 11.5384H35.7319V12.4615H34.7782V11.5384H32.871V12.4615H31.9173V13.3846H32.871V14.3077H31.9173V13.3846H30.9637V14.3077H30.0101V15.2308H29.0564V18.9231H30.9637V18H31.9173V17.0769H32.871V16.1538H31.9173V15.2308H32.871V16.1538H33.8246V15.2308H34.7782V14.3077H35.7319V13.3846H36.6855V11.5384ZM34.7782 11.5384H35.7319V10.6154H34.7782V11.5384ZM34.7782 10.6154V9.69229H33.8246V10.6154H34.7782Z" fill="black"/>
<path d="M37.6006 46V45.2578H34.0361L35.9404 43.1924C36.1227 42.9938 36.2936 42.792 36.4531 42.5869C36.6159 42.3818 36.7575 42.1735 36.8779 41.9619C37.0016 41.7503 37.0977 41.5387 37.166 41.3271C37.2376 41.1123 37.2734 40.9007 37.2734 40.6924C37.2734 40.3115 37.1872 39.9795 37.0146 39.6963C36.8454 39.4098 36.6012 39.1885 36.2822 39.0322C35.9632 38.8727 35.5791 38.793 35.1299 38.793C34.6253 38.793 34.2005 38.8923 33.8555 39.0908C33.5104 39.2861 33.25 39.5498 33.0742 39.8818C32.8984 40.2139 32.8105 40.5801 32.8105 40.9805H33.7139C33.7139 40.6973 33.766 40.4466 33.8701 40.2285C33.9743 40.0104 34.1305 39.8411 34.3389 39.7207C34.5505 39.597 34.8141 39.5352 35.1299 39.5352C35.3936 39.5352 35.6182 39.5921 35.8037 39.7061C35.9893 39.82 36.1292 39.973 36.2236 40.165C36.3213 40.3538 36.3701 40.5654 36.3701 40.7998C36.3701 40.9854 36.3376 41.1676 36.2725 41.3467C36.2106 41.5225 36.0999 41.7227 35.9404 41.9473C35.7842 42.1686 35.5628 42.4388 35.2764 42.7578L32.9473 45.3506V46H37.6006Z" fill="black"/>
<path d="M30.2861 46V38.8516H30.1445L27.5615 39.8281V40.6436L29.3828 39.9795V46H30.2861Z" fill="black"/>
<path fill-rule="evenodd" clip-rule="evenodd" d="M20.4326 46H18.5088V38.8906H20.5205C20.986 38.8906 21.4108 38.9688 21.7949 39.125C22.179 39.278 22.5094 39.501 22.7861 39.7939C23.0661 40.0837 23.2809 40.4352 23.4307 40.8486C23.5804 41.2588 23.6553 41.721 23.6553 42.2354V42.6602C23.6553 43.1745 23.5804 43.6383 23.4307 44.0518C23.2809 44.4619 23.0645 44.8118 22.7812 45.1016C22.5013 45.3913 22.1628 45.6143 21.7656 45.7705C21.3717 45.9235 20.9274 46 20.4326 46ZM19.4512 45.2334V39.6621H20.5205C20.8721 39.6621 21.1829 39.7191 21.4531 39.833C21.7266 39.9469 21.9577 40.1146 22.1465 40.3359C22.3353 40.554 22.4785 40.8226 22.5762 41.1416C22.6738 41.4574 22.7227 41.8187 22.7227 42.2256V42.6602C22.7227 43.1777 22.6364 43.6302 22.4639 44.0176C22.2946 44.4017 22.0407 44.7012 21.7021 44.916C21.3636 45.1276 20.9404 45.2334 20.4326 45.2334H19.4512Z" fill="black"/>
<path d="M17.3418 46V45.2334H13.7676V42.7139H16.8438V41.9473H13.7676V39.6621H17.293V38.8906H12.8252V46H17.3418Z" fill="black"/>
</svg>
