<svg width="50" height="50" viewBox="0 0 50 50" fill="none" xmlns="http://www.w3.org/2000/svg">
<path d="M39.5464 6V6.92308H40.5V6H39.5464ZM39.5464 7.84615V8.76923H40.5V7.84615H39.5464ZM36.6855 8.76923V9.69231H37.6391V8.76923H36.6855ZM24.2081 9.46092C16.6363 9.46092 10.5 15.4006 10.5 22.7298C10.5 30.0591 16.6363 36 24.2081 36C31.78 36 37.9163 30.0603 37.9163 22.7298C37.9163 15.3994 31.7787 9.46092 24.2081 9.46092ZM24.2081 13.6923C29.3603 13.6923 33.5461 17.7428 33.5461 22.7298C33.5461 27.7169 29.3603 31.7686 24.2081 31.7686C19.056 31.7686 14.9109 27.7169 14.9109 22.7298C14.9109 17.7428 19.056 13.6923 24.2081 13.6923Z" fill="#FDB511"/>
<path d="M28.1027 16.1539C25.6131 19.1643 24.9863 20.4862 23.9945 22.9219C22.8692 20.7188 21.5265 19.1988 19.2009 18.192C18.761 18.0825 18.5448 18.0197 18.2473 18.4222C17.9497 18.8246 18.1316 19.1877 18.4863 19.6148C19.4171 20.7348 20.4635 21.7686 21.1883 23.0376C22.0389 24.5256 23.0968 26.976 23.4528 27.6148C23.7364 28.1219 24.423 28.3459 24.6862 28.3459C26.0925 28.1846 26.0925 27.4917 26.3608 26.2917C26.7956 24.3237 27.3589 22.2892 30.01 19.8449V16.1526L28.1027 16.1539Z" fill="black"/>
<path d="M38.5928 6.92306V7.84614L39.5464 7.84615V6.92308L38.5928 6.92306ZM38.5928 7.84614H36.6855L36.6855 8.76923L38.5928 8.76922V7.84614ZM36.6855 8.76923L35.7319 8.76922V10.6154H36.6855L36.6855 8.76923ZM36.6855 10.6154V11.5384H37.6391V10.6154H36.6855ZM37.6391 10.6154H38.5928V9.69229L37.6391 9.69231L37.6391 10.6154ZM36.6855 11.5384H35.7319V12.4615H34.7782V11.5384H32.871V12.4615H31.9173V13.3846H32.871V14.3077H31.9173V13.3846H30.9637V14.3077H30.0101V15.2308H29.0564V18.9231H30.9637V18H31.9173V17.0769H32.871V16.1538H31.9173V15.2308H32.871V16.1538H33.8246V15.2308H34.7782V14.3077H35.7319V13.3846H36.6855V11.5384ZM34.7782 11.5384H35.7319V10.6154H34.7782V11.5384ZM34.7782 10.6154V9.69229H33.8246V10.6154H34.7782Z" fill="black"/>
<path d="M18.6768 44.2373C18.7354 44.348 18.7646 44.4684 18.7646 44.5986C18.7646 44.7451 18.7207 44.8753 18.6328 44.9893C18.5449 45.1032 18.4163 45.1927 18.2471 45.2578C18.0811 45.3229 17.8743 45.3555 17.627 45.3555C17.4414 45.3555 17.2542 45.3262 17.0654 45.2676C16.8766 45.2057 16.7171 45.1032 16.5869 44.96C16.4567 44.8135 16.3851 44.6165 16.3721 44.3691H15.4639C15.4639 44.6621 15.5469 44.9404 15.7129 45.2041C15.8789 45.4678 16.123 45.6826 16.4453 45.8486C16.7676 46.0146 17.1615 46.0977 17.627 46.0977C17.9362 46.0977 18.2145 46.0602 18.4619 45.9854C18.7126 45.9072 18.9274 45.7998 19.1064 45.6631C19.2887 45.5231 19.4271 45.3571 19.5215 45.165C19.6191 44.973 19.668 44.7614 19.668 44.5303C19.668 44.2471 19.5996 44.0062 19.4629 43.8076C19.3262 43.609 19.1178 43.4414 18.8379 43.3047C18.5579 43.168 18.2015 43.0508 17.7686 42.9531C17.5212 42.8978 17.3177 42.8424 17.1582 42.7871C16.9987 42.7318 16.875 42.6732 16.7871 42.6113C16.6992 42.5462 16.6374 42.4762 16.6016 42.4014C16.569 42.3232 16.5527 42.2354 16.5527 42.1377C16.5527 42.0075 16.5869 41.8838 16.6553 41.7666C16.7269 41.6494 16.8392 41.5534 16.9922 41.4785C17.1484 41.4004 17.3519 41.3613 17.6025 41.3613C17.8402 41.3613 18.0404 41.4069 18.2031 41.498C18.3691 41.5892 18.4945 41.7048 18.5791 41.8447C18.667 41.9814 18.7109 42.123 18.7109 42.2695H19.6143C19.6143 41.9668 19.5345 41.6917 19.375 41.4443C19.2155 41.1937 18.986 40.9935 18.6865 40.8438C18.387 40.694 18.0257 40.6191 17.6025 40.6191C17.3063 40.6191 17.0378 40.6598 16.7969 40.7412C16.556 40.8226 16.3493 40.9349 16.1768 41.0781C16.0075 41.2214 15.8757 41.3857 15.7812 41.5713C15.6901 41.7568 15.6445 41.9538 15.6445 42.1621C15.6445 42.3802 15.6885 42.5706 15.7764 42.7334C15.8643 42.8962 15.9896 43.0378 16.1523 43.1582C16.3184 43.2786 16.5186 43.3812 16.7529 43.4658C16.9906 43.5505 17.2559 43.6237 17.5488 43.6855C17.8971 43.7539 18.1576 43.8353 18.3301 43.9297C18.5059 44.0208 18.6214 44.1234 18.6768 44.2373Z" fill="black"/>
<path fill-rule="evenodd" clip-rule="evenodd" d="M23.0469 46.0977C22.679 46.0977 22.3454 46.0358 22.0459 45.9121C21.7497 45.7852 21.4941 45.6077 21.2793 45.3799C21.0677 45.152 20.9049 44.8818 20.791 44.5693C20.6771 44.2568 20.6201 43.915 20.6201 43.5439V43.3389C20.6201 42.9092 20.6836 42.5267 20.8105 42.1914C20.9375 41.8529 21.11 41.5664 21.3281 41.332C21.5462 41.0977 21.7936 40.9202 22.0703 40.7998C22.347 40.6794 22.6335 40.6191 22.9297 40.6191C23.3073 40.6191 23.6328 40.6842 23.9062 40.8145C24.1829 40.9447 24.4092 41.127 24.585 41.3613C24.7607 41.5924 24.891 41.8659 24.9756 42.1816C25.0602 42.4941 25.1025 42.8359 25.1025 43.207V43.6123H21.5292C21.5349 43.8376 21.5687 44.0508 21.6309 44.252C21.7025 44.4701 21.805 44.6621 21.9385 44.8281C22.0752 44.9941 22.2396 45.1243 22.4316 45.2188C22.627 45.3132 22.8483 45.3604 23.0957 45.3604C23.4147 45.3604 23.6849 45.2952 23.9062 45.165C24.1276 45.0348 24.3213 44.8607 24.4873 44.6426L25.0342 45.0771C24.9202 45.2497 24.7754 45.4141 24.5996 45.5703C24.4238 45.7266 24.2074 45.8535 23.9502 45.9512C23.6963 46.0488 23.3952 46.0977 23.0469 46.0977ZM21.6309 42.4941C21.5978 42.6123 21.5727 42.7393 21.5556 42.875H24.1992V42.8066C24.1862 42.5723 24.1374 42.3444 24.0527 42.123C23.9714 41.9017 23.8411 41.7194 23.6621 41.5762C23.4831 41.4329 23.2389 41.3613 22.9297 41.3613C22.7246 41.3613 22.5358 41.4053 22.3633 41.4932C22.1908 41.5778 22.0426 41.7048 21.9189 41.874C21.7952 42.0433 21.6992 42.25 21.6309 42.4941Z" fill="black"/>
<path fill-rule="evenodd" clip-rule="evenodd" d="M27.0605 48.0312V45.4875C27.2329 45.6799 27.4396 45.8279 27.6807 45.9316C27.9378 46.0423 28.234 46.0977 28.5693 46.0977C28.8981 46.0977 29.1895 46.0309 29.4434 45.8975C29.6973 45.764 29.9105 45.5768 30.083 45.3359C30.2588 45.0951 30.3923 44.8118 30.4834 44.4863C30.5745 44.1576 30.6201 43.8011 30.6201 43.417V43.3145C30.6201 42.9108 30.5745 42.5446 30.4834 42.2158C30.3955 41.8838 30.2637 41.599 30.0879 41.3613C29.9121 41.1237 29.6956 40.9414 29.4385 40.8145C29.1813 40.6842 28.8867 40.6191 28.5547 40.6191C28.2227 40.6191 27.9297 40.6777 27.6758 40.7949C27.4222 40.9087 27.206 41.0761 27.0271 41.297L26.9824 40.7168H26.1523V48.0312H27.0605ZM27.0947 44.6914C27.0831 44.6713 27.0717 44.6511 27.0605 44.6308V42.1086C27.1207 42.0018 27.1907 41.9041 27.2705 41.8154C27.3877 41.682 27.5293 41.5762 27.6953 41.498C27.8646 41.4199 28.0632 41.3809 28.291 41.3809C28.5384 41.3809 28.7516 41.4329 28.9307 41.5371C29.1097 41.638 29.2562 41.778 29.3701 41.957C29.4873 42.1328 29.5736 42.3379 29.6289 42.5723C29.6842 42.8034 29.7119 43.0508 29.7119 43.3145V43.417C29.7119 43.6807 29.6842 43.9297 29.6289 44.1641C29.5736 44.3952 29.4873 44.6003 29.3701 44.7793C29.2562 44.9583 29.1097 45.0999 28.9307 45.2041C28.7549 45.305 28.5449 45.3555 28.3008 45.3555C28.0046 45.3555 27.7588 45.2952 27.5635 45.1748C27.3682 45.0511 27.2119 44.89 27.0947 44.6914Z" fill="black"/>
</svg>
