<svg width="50" height="50" viewBox="0 0 50 50" fill="none" xmlns="http://www.w3.org/2000/svg">
<path d="M8 24.988C8.00555 20.4809 9.7994 16.1602 12.9875 12.975C16.1757 9.78981 20.4974 8.00047 25.0036 8.00001C34.4722 7.98779 42.3984 15.9157 41.9845 25.7846C41.6159 34.5354 34.1403 42.3935 24.2316 41.9847C15.5315 41.6353 8 34.4097 8 24.988ZM12.419 24.974C12.4166 27.4637 13.1529 29.8981 14.5347 31.9689C15.9165 34.0397 17.8815 35.6538 20.1811 36.6068C22.4807 37.5597 25.0112 37.8087 27.4524 37.3222C29.8935 36.8357 32.1354 35.6356 33.8941 33.8738C35.6529 32.112 36.8493 29.8678 37.332 27.4254C37.8147 24.983 37.5619 22.4522 36.6056 20.1537C35.6493 17.8551 34.0325 15.892 31.96 14.5131C29.8875 13.1342 27.4525 12.4015 24.9634 12.4077C21.638 12.4211 18.4531 13.7502 16.1043 16.1048C13.7555 18.4593 12.4337 21.6479 12.4277 24.974H12.419Z" fill="#FEBD01"/>
<path d="M12.4277 24.974C12.4298 22.4867 13.1694 20.0558 14.5525 17.9886C15.9356 15.9215 17.9004 14.3109 20.1985 13.3605C22.4966 12.41 25.0249 12.1624 27.4637 12.649C29.9025 13.1355 32.1423 14.3343 33.9 16.0938C35.6577 17.8534 36.8544 20.0947 37.3388 22.5344C37.8232 24.9741 37.5735 27.5027 36.6214 29.8005C35.6692 32.0983 34.0574 34.0622 31.9895 35.4439C29.9216 36.8256 27.4906 37.563 25.0038 37.563C21.6675 37.5602 18.4689 36.2327 16.1107 33.8721C13.7526 31.5115 12.4277 28.311 12.4277 24.974ZM20.253 29.7818H17.8618C17.4705 29.7818 17.4059 29.7154 17.4059 29.3206C17.4059 26.9132 17.4059 24.5052 17.4059 22.0967C17.4059 21.6687 17.4688 21.6058 17.9055 21.6058H30.656C30.6661 21.4128 30.6379 21.2196 30.573 21.0376C30.5081 20.8555 30.4078 20.6881 30.2779 20.545C30.148 20.402 29.991 20.286 29.8161 20.2039C29.6412 20.1218 29.4517 20.0751 29.2587 20.0666C28.9512 20.0544 28.6421 20.0666 28.3155 20.0666V19.2316C28.3349 17.9388 27.8506 16.6893 26.9652 15.7474C26.0797 14.8054 24.8626 14.2451 23.5714 14.1849C22.2802 14.1248 21.0162 14.5695 20.0471 15.425C19.0779 16.2805 18.4796 17.4797 18.3788 18.7686C18.3509 19.1931 18.3788 19.6212 18.3788 20.0632H17.3745C16.4418 20.0632 15.8165 20.6886 15.8165 21.6267C15.8165 24.3544 15.8165 27.0809 15.8165 29.8063C15.8165 29.8779 15.8165 29.9495 15.8287 30.0211C15.8594 30.3825 16.023 30.7196 16.2879 30.9671C16.5529 31.2147 16.9002 31.3551 17.2627 31.3611C17.8129 31.3716 18.3631 31.3611 18.9115 31.3611C18.9801 31.365 19.0476 31.3425 19.1002 31.2982C19.4739 30.8038 19.8425 30.3129 20.2442 29.7818H20.253ZM27.7286 23.0191H23.2013C22.3769 23.0191 21.9123 23.4821 21.9123 24.3032C21.9123 26.1777 21.9123 28.0505 21.9123 29.9233C21.903 30.0505 21.8562 30.1721 21.7778 30.2727C21.3306 30.8597 20.8363 31.417 20.4224 32.0197C20.2196 32.3285 20.1222 32.6945 20.1445 33.0632C20.1669 33.4319 20.3078 33.7835 20.5464 34.0655C20.99 34.6333 21.6101 34.794 22.293 34.7957C24.644 34.7957 26.995 34.808 29.346 34.7853C29.7081 34.7636 30.0633 34.676 30.394 34.5267C30.6529 34.4209 30.8841 34.2571 31.0699 34.048C31.807 33.192 32.526 32.3185 33.227 31.4275C33.3871 31.2311 33.4829 30.9902 33.5013 30.7374C33.5205 28.5781 33.5117 26.4171 33.5117 24.2577C33.5117 23.4663 33.0419 22.9981 32.2472 22.9981L27.7286 23.0191Z" fill="#FCFCFB"/>
<path d="M20.2442 29.7818C19.8425 30.3059 19.4735 30.8073 19.0962 31.2947C19.0437 31.339 18.9762 31.3615 18.9076 31.3576C18.3591 31.3576 17.8089 31.3698 17.2587 31.3576C16.8962 31.3515 16.5489 31.2111 16.284 30.9636C16.019 30.716 15.8554 30.379 15.8247 30.0176C15.8247 29.946 15.8125 29.8744 15.8125 29.8028C15.8125 27.0751 15.8125 24.3486 15.8125 21.6232C15.8125 20.6851 16.4378 20.0649 17.3705 20.0596H18.3748C18.3748 19.6177 18.3521 19.1861 18.3748 18.7651C18.4364 17.4458 19.0195 16.2049 19.9958 15.3156C20.9721 14.4262 22.2616 13.9612 23.5807 14.0228C24.8998 14.0845 26.1404 14.6677 27.0295 15.6442C27.9187 16.6207 28.3836 17.9105 28.322 19.2298V20.0649C28.6486 20.0649 28.9578 20.0544 29.2652 20.0649C29.4582 20.0734 29.6477 20.12 29.8226 20.2022C29.9975 20.2843 30.1545 20.4002 30.2844 20.5433C30.4143 20.6864 30.5146 20.8538 30.5795 21.0358C30.6444 21.2179 30.6726 21.411 30.6625 21.604H17.912C17.4753 21.604 17.4124 21.6669 17.4124 22.0949C17.4124 24.5035 17.4124 26.9114 17.4124 29.3188C17.4124 29.7137 17.4771 29.7801 17.8683 29.7801H20.2507L20.2442 29.7818ZM20.0149 20.0492H26.6522C26.6522 19.6334 26.6819 19.2263 26.6522 18.8263C26.5853 18.1445 26.3092 17.5001 25.8617 16.9815C25.4142 16.4629 24.8173 16.0955 24.1527 15.9297C23.48 15.7633 22.7724 15.8082 22.1262 16.0583C21.4799 16.3083 20.9263 16.7514 20.5407 17.3273C19.9905 18.1659 19.9538 19.0883 20.0149 20.0492Z" fill="#040909"/>
<path d="M27.7195 23.0191H32.2381C33.0328 23.0191 33.5009 23.4873 33.5027 24.2787C33.5027 26.438 33.5114 28.5991 33.4922 30.7584C33.4738 31.0111 33.3781 31.2521 33.218 31.4485C32.5193 32.3336 31.8003 33.2071 31.0609 34.069C30.8751 34.2781 30.6438 34.4419 30.3849 34.5477C30.0542 34.6969 29.6991 34.7846 29.3369 34.8062C26.9859 34.8289 24.635 34.8202 22.284 34.8167C21.6063 34.8167 20.9862 34.6542 20.5373 34.0865C20.2988 33.8045 20.1578 33.4529 20.1355 33.0842C20.1131 32.7155 20.2106 32.3494 20.4133 32.0407C20.8273 31.4292 21.3216 30.8719 21.7687 30.2937C21.8471 30.1931 21.8939 30.0715 21.9032 29.9443C21.9119 28.0715 21.9032 26.1987 21.9032 24.3241C21.9032 23.503 22.3678 23.0401 23.1922 23.0401L27.7195 23.0191ZM27.73 24.6124H24.3345C23.7948 24.6124 23.545 24.8605 23.545 25.3968C23.545 27.0372 23.545 28.6794 23.545 30.3216C23.5414 30.4591 23.4943 30.5918 23.4106 30.7007C22.9337 31.2895 22.4412 31.8643 21.9573 32.4478C21.875 32.5444 21.8084 32.6535 21.76 32.771C21.7405 32.813 21.7316 32.8592 21.7341 32.9055C21.7366 32.9518 21.7505 32.9968 21.7745 33.0365C21.7985 33.0762 21.8318 33.1093 21.8716 33.1331C21.9114 33.1569 21.9565 33.1705 22.0028 33.1728C22.0812 33.1858 22.1608 33.1911 22.2403 33.1885L29.0313 33.206C29.2592 33.2099 29.485 33.1613 29.6913 33.0641C29.8975 32.9669 30.0787 32.8235 30.2207 32.6452C30.7529 32.0116 31.2769 31.371 31.7927 30.7234C31.8717 30.6197 31.9163 30.4939 31.9202 30.3636C31.9202 28.7056 31.9202 27.0442 31.9202 25.3898C31.9202 24.8657 31.6704 24.6141 31.1447 24.6141L27.73 24.6124Z" fill="#030708"/>
<path d="M20.0149 20.0492C19.9538 19.0883 19.9907 18.1659 20.5392 17.3308C20.9248 16.7549 21.4783 16.3118 22.1246 16.0617C22.7709 15.8117 23.4785 15.7668 24.1512 15.9332C24.8157 16.099 25.4127 16.4664 25.8602 16.985C26.3077 17.5036 26.5838 18.148 26.6507 18.8297C26.6856 19.2316 26.6507 19.6386 26.6507 20.0527L20.0149 20.0492Z" fill="#FCFCFC"/>
<path d="M27.73 24.6124L31.1483 24.6124C31.6723 24.6124 31.9238 24.8639 31.9238 25.388C31.9238 27.046 31.9238 28.7074 31.9238 30.3618C31.9199 30.4921 31.8753 30.6179 31.7963 30.7217C31.277 31.3681 30.753 32.0086 30.2243 32.6434C30.0823 32.8218 29.9011 32.9651 29.6949 33.0623C29.4887 33.1596 29.2629 33.2081 29.0349 33.2042L22.2439 33.1867C22.1644 33.1893 22.0848 33.1841 22.0064 33.171C21.9601 33.1687 21.915 33.1551 21.8752 33.1313C21.8354 33.1076 21.8021 33.0744 21.7781 33.0347C21.7541 32.995 21.7403 32.95 21.7377 32.9037C21.7352 32.8574 21.7441 32.8112 21.7636 32.7692C21.812 32.6517 21.8786 32.5427 21.961 32.446C22.4448 31.8642 22.9373 31.2895 23.4142 30.699C23.498 30.59 23.5451 30.4573 23.5487 30.3199C23.5487 28.6777 23.5487 27.0355 23.5487 25.395C23.5487 24.8587 23.7984 24.6106 24.3382 24.6106L27.73 24.6124ZM25.0683 29.5529H30.4043V26.1567H25.0683V29.5529Z" fill="#FBFBFB"/>
<path d="M25.0683 29.5529V26.1567H30.4043V29.5529H25.0683Z" fill="#030809"/>
</svg>
