<svg width="50" height="50" viewBox="0 0 50 50" fill="none" xmlns="http://www.w3.org/2000/svg">
<path d="M39.5464 6V6.92308H40.5V6H39.5464ZM39.5464 7.84615V8.76923H40.5V7.84615H39.5464ZM36.6855 8.76923V9.69231H37.6391V8.76923H36.6855ZM24.2081 9.46092C16.6363 9.46092 10.5 15.4006 10.5 22.7298C10.5 30.0591 16.6363 36 24.2081 36C31.78 36 37.9163 30.0603 37.9163 22.7298C37.9163 15.3994 31.7787 9.46092 24.2081 9.46092ZM24.2081 13.6923C29.3603 13.6923 33.5461 17.7428 33.5461 22.7298C33.5461 27.7169 29.3603 31.7686 24.2081 31.7686C19.056 31.7686 14.9109 27.7169 14.9109 22.7298C14.9109 17.7428 19.056 13.6923 24.2081 13.6923Z" fill="#FDB511"/>
<path d="M28.1027 16.1539C25.6131 19.1643 24.9863 20.4862 23.9945 22.9219C22.8692 20.7188 21.5265 19.1988 19.2009 18.192C18.761 18.0825 18.5448 18.0197 18.2473 18.4222C17.9497 18.8246 18.1316 19.1877 18.4863 19.6148C19.4171 20.7348 20.4635 21.7686 21.1883 23.0376C22.0389 24.5256 23.0968 26.976 23.4528 27.6148C23.7364 28.1219 24.423 28.3459 24.6862 28.3459C26.0925 28.1846 26.0925 27.4917 26.3608 26.2917C26.7956 24.3237 27.3589 22.2892 30.01 19.8449V16.1526L28.1027 16.1539Z" fill="black"/>
<path d="M38.5928 6.92306V7.84614L39.5464 7.84615V6.92308L38.5928 6.92306ZM38.5928 7.84614H36.6855L36.6855 8.76923L38.5928 8.76922V7.84614ZM36.6855 8.76923L35.7319 8.76922V10.6154H36.6855L36.6855 8.76923ZM36.6855 10.6154V11.5384H37.6391V10.6154H36.6855ZM37.6391 10.6154H38.5928V9.69229L37.6391 9.69231L37.6391 10.6154ZM36.6855 11.5384H35.7319V12.4615H34.7782V11.5384H32.871V12.4615H31.9173V13.3846H32.871V14.3077H31.9173V13.3846H30.9637V14.3077H30.0101V15.2308H29.0564V18.9231H30.9637V18H31.9173V17.0769H32.871V16.1538H31.9173V15.2308H32.871V16.1538H33.8246V15.2308H34.7782V14.3077H35.7319V13.3846H36.6855V11.5384ZM34.7782 11.5384H35.7319V10.6154H34.7782V11.5384ZM34.7782 10.6154V9.69229H33.8246V10.6154H34.7782Z" fill="black"/>
<path d="M20.6348 44.7393H21.5723C21.5234 45.1885 21.3949 45.5905 21.1865 45.9453C20.9782 46.3001 20.6836 46.5817 20.3027 46.79C19.9219 46.9951 19.4466 47.0977 18.877 47.0977C18.4603 47.0977 18.0811 47.0195 17.7393 46.8633C17.4007 46.707 17.1094 46.4857 16.8652 46.1992C16.6211 45.9095 16.4323 45.5628 16.2988 45.1592C16.1686 44.7523 16.1035 44.2998 16.1035 43.8018V43.0938C16.1035 42.5957 16.1686 42.1449 16.2988 41.7412C16.4323 41.3343 16.6227 40.986 16.8701 40.6963C17.1208 40.4066 17.4219 40.1836 17.7734 40.0273C18.125 39.8711 18.5205 39.793 18.96 39.793C19.4971 39.793 19.9512 39.8939 20.3223 40.0957C20.6934 40.2975 20.9814 40.5775 21.1865 40.9355C21.3949 41.2904 21.5234 41.7021 21.5723 42.1709H20.6348C20.5892 41.8389 20.5046 41.554 20.3809 41.3164C20.2572 41.0755 20.0814 40.89 19.8535 40.7598C19.6257 40.6296 19.3278 40.5645 18.96 40.5645C18.6442 40.5645 18.3659 40.6247 18.125 40.7451C17.8874 40.8656 17.6872 41.0365 17.5244 41.2578C17.3649 41.4792 17.2445 41.7445 17.1631 42.0537C17.0817 42.363 17.041 42.7064 17.041 43.084V43.8018C17.041 44.1501 17.0768 44.4772 17.1484 44.7832C17.2233 45.0892 17.3356 45.3577 17.4854 45.5889C17.6351 45.82 17.8255 46.0023 18.0566 46.1357C18.2878 46.266 18.5612 46.3311 18.877 46.3311C19.2773 46.3311 19.5964 46.2676 19.834 46.1406C20.0716 46.0137 20.2507 45.8314 20.3711 45.5938C20.4948 45.3561 20.5827 45.0713 20.6348 44.7393Z" fill="#1C1D1F"/>
<path d="M27.1484 44.7393H28.0859C28.0371 45.1885 27.9085 45.5905 27.7002 45.9453C27.4919 46.3001 27.1973 46.5817 26.8164 46.79C26.4355 46.9951 25.9603 47.0977 25.3906 47.0977C24.974 47.0977 24.5947 47.0195 24.2529 46.8633C23.9144 46.707 23.623 46.4857 23.3789 46.1992C23.1348 45.9095 22.946 45.5628 22.8125 45.1592C22.6823 44.7523 22.6172 44.2998 22.6172 43.8018V43.0938C22.6172 42.5957 22.6823 42.1449 22.8125 41.7412C22.946 41.3343 23.1364 40.986 23.3838 40.6963C23.6344 40.4066 23.9355 40.1836 24.2871 40.0273C24.6387 39.8711 25.0342 39.793 25.4736 39.793C26.0107 39.793 26.4648 39.8939 26.8359 40.0957C27.207 40.2975 27.4951 40.5775 27.7002 40.9355C27.9085 41.2904 28.0371 41.7021 28.0859 42.1709H27.1484C27.1029 41.8389 27.0182 41.554 26.8945 41.3164C26.7708 41.0755 26.5951 40.89 26.3672 40.7598C26.1393 40.6296 25.8415 40.5645 25.4736 40.5645C25.1579 40.5645 24.8796 40.6247 24.6387 40.7451C24.401 40.8656 24.2008 41.0365 24.0381 41.2578C23.8786 41.4792 23.7581 41.7445 23.6768 42.0537C23.5954 42.363 23.5547 42.7064 23.5547 43.084V43.8018C23.5547 44.1501 23.5905 44.4772 23.6621 44.7832C23.737 45.0892 23.8493 45.3577 23.999 45.5889C24.1488 45.82 24.3392 46.0023 24.5703 46.1357C24.8014 46.266 25.0749 46.3311 25.3906 46.3311C25.791 46.3311 26.11 46.2676 26.3477 46.1406C26.5853 46.0137 26.7643 45.8314 26.8848 45.5938C27.0085 45.3561 27.0964 45.0713 27.1484 44.7393Z" fill="#1C1D1F"/>
<path d="M33.1592 45.2031C33.1592 45.0371 33.1331 44.8906 33.0811 44.7637C33.0322 44.6335 32.9443 44.5163 32.8174 44.4121C32.6937 44.3079 32.5212 44.2087 32.2998 44.1143C32.0817 44.0199 31.805 43.9238 31.4697 43.8262C31.1182 43.722 30.8008 43.6064 30.5176 43.4795C30.2344 43.3493 29.9919 43.2012 29.79 43.0352C29.5882 42.8691 29.4336 42.6787 29.3262 42.4639C29.2188 42.249 29.165 42.0033 29.165 41.7266C29.165 41.4499 29.222 41.1943 29.3359 40.96C29.4499 40.7256 29.6126 40.5221 29.8242 40.3496C30.0391 40.1738 30.2946 40.0371 30.5908 39.9395C30.887 39.8418 31.2174 39.793 31.582 39.793C32.1159 39.793 32.5684 39.8955 32.9395 40.1006C33.3138 40.3024 33.5986 40.5677 33.7939 40.8965C33.9893 41.222 34.0869 41.5703 34.0869 41.9414H33.1494C33.1494 41.6745 33.0924 41.4385 32.9785 41.2334C32.8646 41.0251 32.6921 40.8623 32.4609 40.7451C32.2298 40.6247 31.9368 40.5645 31.582 40.5645C31.2467 40.5645 30.9701 40.6149 30.752 40.7158C30.5339 40.8167 30.3711 40.9535 30.2637 41.126C30.1595 41.2985 30.1074 41.4954 30.1074 41.7168C30.1074 41.8665 30.1383 42.0033 30.2002 42.127C30.2653 42.2474 30.3646 42.3597 30.498 42.4639C30.6348 42.568 30.8073 42.6641 31.0156 42.752C31.2272 42.8398 31.4795 42.9245 31.7725 43.0059C32.1761 43.1198 32.5244 43.2467 32.8174 43.3867C33.1104 43.5267 33.3512 43.6846 33.54 43.8604C33.7321 44.0329 33.8737 44.2298 33.9648 44.4512C34.0592 44.6693 34.1064 44.9167 34.1064 45.1934C34.1064 45.4831 34.0479 45.7451 33.9307 45.9795C33.8135 46.2139 33.6458 46.4141 33.4277 46.5801C33.2096 46.7461 32.9476 46.8747 32.6416 46.9658C32.3389 47.0537 32.0003 47.0977 31.626 47.0977C31.2972 47.0977 30.9733 47.0521 30.6543 46.9609C30.3385 46.8698 30.0505 46.7331 29.79 46.5508C29.5329 46.3685 29.3262 46.1439 29.1699 45.877C29.0169 45.6068 28.9404 45.2943 28.9404 44.9395H29.8779C29.8779 45.1836 29.9251 45.3936 30.0195 45.5693C30.1139 45.7419 30.2425 45.8851 30.4053 45.999C30.5713 46.113 30.7585 46.1976 30.9668 46.2529C31.1784 46.305 31.3981 46.3311 31.626 46.3311C31.9548 46.3311 32.2331 46.2855 32.4609 46.1943C32.6888 46.1032 32.8613 45.973 32.9785 45.8037C33.099 45.6344 33.1592 45.4342 33.1592 45.2031Z" fill="#1C1D1F"/>
</svg>
