<svg width="50" height="50" viewBox="0 0 50 50" fill="none" xmlns="http://www.w3.org/2000/svg">
<rect width="50" height="50" fill="#FDB511"/>
<path d="M35.7689 6V6.73846H36.5001V6H35.7689ZM35.7689 7.47692V8.21538H36.5001V7.47692H35.7689ZM33.5756 8.21538V8.95385H34.3067V8.21538H33.5756ZM24.0096 8.76874C18.2045 8.76874 13.5 13.5205 13.5 19.3839C13.5 25.2473 18.2045 30 24.0096 30C29.8147 30 34.5192 25.2482 34.5192 19.3839C34.5192 13.5195 29.8137 8.76874 24.0096 8.76874ZM24.0096 12.1538C27.9596 12.1538 31.1687 15.3942 31.1687 19.3839C31.1687 23.3735 27.9596 26.6149 24.0096 26.6149C20.0596 26.6149 16.8817 23.3735 16.8817 19.3839C16.8817 15.3942 20.0596 12.1538 24.0096 12.1538Z" fill="white"/>
<path d="M26.9955 14.1231C25.0868 16.5315 24.6062 17.5889 23.8458 19.5375C22.9831 17.775 21.9537 16.559 20.1707 15.7536C19.8334 15.666 19.6677 15.6158 19.4396 15.9377C19.2115 16.2597 19.3509 16.5502 19.6229 16.8918C20.3364 17.7878 21.1387 18.6149 21.6944 19.63C22.3465 20.8204 23.1576 22.7808 23.4305 23.2918C23.6479 23.6975 24.1743 23.8767 24.3761 23.8767C25.4543 23.7477 25.4543 23.1934 25.66 22.2334C25.9933 20.659 26.4252 19.0314 28.4577 17.076V14.1221L26.9955 14.1231Z" fill="black"/>
<path d="M35.0378 6.73845V7.47691L35.7689 7.47692V6.73846L35.0378 6.73845ZM35.0378 7.47691H33.5756L33.5756 8.21538L35.0378 8.21537V7.47691ZM33.5756 8.21538L32.8445 8.21537V9.6923H33.5756L33.5756 8.21538ZM33.5756 9.6923V10.4308H34.3067V9.6923H33.5756ZM34.3067 9.6923H35.0378V8.95383L34.3067 8.95385L34.3067 9.6923ZM33.5756 10.4308H32.8445V11.1692H32.1134V10.4308H30.6511V11.1692H29.92V11.9077H30.6511V12.6461H29.92V11.9077H29.1889V12.6461H28.4578V13.3846H27.7266V16.3384H29.1889V15.6H29.92V14.8615H30.6511V14.1231H29.92V13.3846H30.6511V14.1231H31.3822V13.3846H32.1134V12.6461H32.8445V11.9077H33.5756V10.4308ZM32.1134 10.4308H32.8445V9.6923H32.1134V10.4308ZM32.1134 9.6923V8.95383H31.3822V9.6923H32.1134Z" fill="black"/>
<path d="M19.293 36.8906V37.6621H15.7676V39.9473H18.8438V40.7139H15.7676V43.2334H19.3418V44H14.8252V36.8906H19.293Z" fill="black"/>
<path fill-rule="evenodd" clip-rule="evenodd" d="M23.1309 36.8906C24.7383 36.8906 25.626 37.7926 25.626 39.0586C25.626 40.4243 24.7458 41.2119 23.1309 41.2119H21.4512V44H20.5088V36.8906H23.1309ZM21.4512 40.4453H23.1309C24.2367 40.4453 24.6836 39.8658 24.6836 39.0684C24.6836 38.1856 23.9862 37.6621 23.1309 37.6621H21.4512V40.4453Z" fill="black"/>
<path d="M30.3575 42.6865L32.6817 36.8906H33.8926V44H32.9551L33.045 38.2529L30.709 44H29.9961L27.6641 38.2451L27.7549 44H26.8174V36.8906H28.0284L30.3575 42.6865Z" fill="black"/>
</svg>
