<svg width="50" height="50" viewBox="0 0 50 50" fill="none" xmlns="http://www.w3.org/2000/svg">
<path d="M39.5464 6V6.92308H40.5V6H39.5464ZM39.5464 7.84615V8.76923H40.5V7.84615H39.5464ZM36.6855 8.76923V9.69231H37.6391V8.76923H36.6855ZM24.2081 9.46092C16.6363 9.46092 10.5 15.4006 10.5 22.7298C10.5 30.0591 16.6363 36 24.2081 36C31.78 36 37.9163 30.0603 37.9163 22.7298C37.9163 15.3994 31.7787 9.46092 24.2081 9.46092ZM24.2081 13.6923C29.3603 13.6923 33.5461 17.7428 33.5461 22.7298C33.5461 27.7169 29.3603 31.7686 24.2081 31.7686C19.056 31.7686 14.9109 27.7169 14.9109 22.7298C14.9109 17.7428 19.056 13.6923 24.2081 13.6923Z" fill="#FDB511"/>
<path d="M28.1027 16.1539C25.6131 19.1643 24.9863 20.4862 23.9945 22.9219C22.8692 20.7188 21.5265 19.1988 19.2009 18.192C18.761 18.0825 18.5448 18.0197 18.2473 18.4222C17.9497 18.8246 18.1316 19.1877 18.4863 19.6148C19.4171 20.7348 20.4635 21.7686 21.1883 23.0376C22.0389 24.5256 23.0968 26.976 23.4528 27.6148C23.7364 28.1219 24.423 28.3459 24.6862 28.3459C26.0925 28.1846 26.0925 27.4917 26.3608 26.2917C26.7956 24.3237 27.3589 22.2892 30.01 19.8449V16.1526L28.1027 16.1539Z" fill="black"/>
<path d="M38.5928 6.92306V7.84614L39.5464 7.84615V6.92308L38.5928 6.92306ZM38.5928 7.84614H36.6855L36.6855 8.76923L38.5928 8.76922V7.84614ZM36.6855 8.76923L35.7319 8.76922V10.6154H36.6855L36.6855 8.76923ZM36.6855 10.6154V11.5384H37.6391V10.6154H36.6855ZM37.6391 10.6154H38.5928V9.69229L37.6391 9.69231L37.6391 10.6154ZM36.6855 11.5384H35.7319V12.4615H34.7782V11.5384H32.871V12.4615H31.9173V13.3846H32.871V14.3077H31.9173V13.3846H30.9637V14.3077H30.0101V15.2308H29.0564V18.9231H30.9637V18H31.9173V17.0769H32.871V16.1538H31.9173V15.2308H32.871V16.1538H33.8246V15.2308H34.7782V14.3077H35.7319V13.3846H36.6855V11.5384ZM34.7782 11.5384H35.7319V10.6154H34.7782V11.5384ZM34.7782 10.6154V9.69229H33.8246V10.6154H34.7782Z" fill="black"/>
<path d="M21.0889 46.2334V47H17.3242V46.2334H21.0889ZM17.5146 39.8906V47H16.5723V39.8906H17.5146ZM20.5908 42.9473V43.7139H17.3242V42.9473H20.5908ZM21.04 39.8906V40.6621H17.3242V39.8906H21.04Z" fill="#1C1D1F"/>
<path d="M24.8779 44.2119H22.9785V43.4453H24.8779C25.2458 43.4453 25.5436 43.3867 25.7715 43.2695C25.9993 43.1523 26.1654 42.9896 26.2695 42.7812C26.377 42.5729 26.4307 42.3353 26.4307 42.0684C26.4307 41.8242 26.377 41.5947 26.2695 41.3799C26.1654 41.165 25.9993 40.9925 25.7715 40.8623C25.5436 40.7288 25.2458 40.6621 24.8779 40.6621H23.1982V47H22.2559V39.8906H24.8779C25.415 39.8906 25.8691 39.9834 26.2402 40.1689C26.6113 40.3545 26.8929 40.6117 27.085 40.9404C27.277 41.266 27.373 41.6387 27.373 42.0586C27.373 42.5143 27.277 42.9033 27.085 43.2256C26.8929 43.5479 26.6113 43.7936 26.2402 43.9629C25.8691 44.1289 25.415 44.2119 24.8779 44.2119Z" fill="#1C1D1F"/>
<path d="M32.8564 44.7393H33.7939C33.7451 45.1885 33.6165 45.5905 33.4082 45.9453C33.1999 46.3001 32.9053 46.5817 32.5244 46.79C32.1436 46.9951 31.6683 47.0977 31.0986 47.0977C30.682 47.0977 30.3027 47.0195 29.9609 46.8633C29.6224 46.707 29.3311 46.4857 29.0869 46.1992C28.8428 45.9095 28.654 45.5628 28.5205 45.1592C28.3903 44.7523 28.3252 44.2998 28.3252 43.8018V43.0938C28.3252 42.5957 28.3903 42.1449 28.5205 41.7412C28.654 41.3343 28.8444 40.986 29.0918 40.6963C29.3424 40.4066 29.6436 40.1836 29.9951 40.0273C30.3467 39.8711 30.7422 39.793 31.1816 39.793C31.7188 39.793 32.1729 39.8939 32.5439 40.0957C32.915 40.2975 33.2031 40.5775 33.4082 40.9355C33.6165 41.2904 33.7451 41.7021 33.7939 42.1709H32.8564C32.8109 41.8389 32.7262 41.554 32.6025 41.3164C32.4788 41.0755 32.3031 40.89 32.0752 40.7598C31.8473 40.6296 31.5495 40.5645 31.1816 40.5645C30.8659 40.5645 30.5876 40.6247 30.3467 40.7451C30.109 40.8656 29.9089 41.0365 29.7461 41.2578C29.5866 41.4792 29.4661 41.7445 29.3848 42.0537C29.3034 42.363 29.2627 42.7064 29.2627 43.084V43.8018C29.2627 44.1501 29.2985 44.4772 29.3701 44.7832C29.445 45.0892 29.5573 45.3577 29.707 45.5889C29.8568 45.82 30.0472 46.0023 30.2783 46.1357C30.5094 46.266 30.7829 46.3311 31.0986 46.3311C31.499 46.3311 31.818 46.2676 32.0557 46.1406C32.2933 46.0137 32.4723 45.8314 32.5928 45.5938C32.7165 45.3561 32.8044 45.0713 32.8564 44.7393Z" fill="#1C1D1F"/>
</svg>
