<svg width="50" height="50" viewBox="0 0 50 50" fill="none" xmlns="http://www.w3.org/2000/svg">
<path fill-rule="evenodd" clip-rule="evenodd" d="M23.2955 8.36662C23.2767 8.38532 22.8581 8.46806 22.3652 8.55057C19.4141 9.04446 16.6973 10.2459 14.4906 12.0328C13.6986 12.6742 14.803 13.4939 15.7856 12.994C16.1425 12.8124 16.1503 12.8128 16.1507 13.0122C16.1514 13.2146 16.3626 13.5423 16.6366 13.7658L16.8436 13.9345L16.4899 13.9374C15.4457 13.9451 15.1201 15.3634 16.0722 15.7568C17.0212 16.1488 17.9213 14.974 17.2266 14.2501C16.9692 13.982 16.9741 13.9402 17.2629 13.939C17.3934 13.9385 17.6431 13.8567 17.8177 13.7571C18.1824 13.5491 18.1932 13.5463 18.1932 13.6622C18.1932 14.3992 19.178 14.8931 19.9077 14.5219C20.2754 14.3352 20.2827 14.3363 20.334 14.5918C20.3577 14.7103 20.4932 14.9352 20.6347 15.0916L20.8923 15.376L20.5979 15.4153C19.6048 15.5483 19.3243 16.8904 20.2121 17.2604C21.2371 17.6875 22.0978 16.5751 21.3667 15.7682C21.2172 15.603 21.1068 15.4651 21.1213 15.4618C21.1361 15.4585 21.3109 15.4394 21.5102 15.4193C21.7094 15.3994 21.9606 15.3202 22.0687 15.2435C22.3291 15.0586 22.3347 15.0607 22.4207 15.38C22.4618 15.5317 22.5944 15.757 22.7156 15.8807L22.9359 16.1053L22.5893 16.1922C21.8817 16.3697 21.4799 17.2223 21.918 17.6176C22.0654 17.7506 22.0715 17.748 22.3375 17.4325C22.4859 17.2565 22.7468 16.954 22.9174 16.7607C23.088 16.5672 23.2275 16.3608 23.2275 16.3021C23.2275 16.2434 23.2692 16.1955 23.3203 16.1955C23.3714 16.1955 23.6874 15.9204 24.0228 15.5843L24.6324 14.9731L24.5171 14.6353L24.4015 14.2975L24.5839 14.2284C25.0044 14.0689 25.103 14.0685 25.144 14.2256C25.2024 14.4476 25.28 14.4189 25.8676 13.9565C27.9529 12.3157 30.7156 11.0268 32.6884 10.7746C33.355 10.6893 33.3897 10.5848 32.8497 10.2889C31.3775 9.48203 29.4652 8.83784 27.5685 8.50967C26.8832 8.39116 23.3883 8.27406 23.2955 8.36662ZM19.6081 10.0533C19.6791 10.2377 19.663 10.2737 19.4682 10.3623C19.2425 10.4647 19.0126 10.137 19.2188 10.0068C19.3808 9.90463 19.5591 9.92567 19.6081 10.0533ZM21.6815 10.8461C21.7523 11.0013 21.7429 11.038 21.6145 11.1065C21.4084 11.2164 21.2575 11.1414 21.2575 10.9286C21.2575 10.6332 21.5575 10.575 21.6815 10.8461ZM16.807 11.1093C16.807 11.153 16.8761 11.286 16.9608 11.4045C17.0454 11.523 17.103 11.6289 17.0885 11.6399C17.0337 11.6815 16.3497 12.048 16.3268 12.048C16.3136 12.048 16.2813 11.9333 16.2548 11.7928C16.2283 11.6521 16.1777 11.5193 16.1421 11.4973C16.0106 11.4162 16.0839 11.2708 16.3146 11.1565C16.594 11.0179 16.807 10.9974 16.807 11.1093ZM23.7776 11.6208C23.8275 11.7774 23.7223 11.8994 23.5352 11.9015C23.4192 11.9029 23.3437 11.721 23.3998 11.5752C23.4628 11.4113 23.7209 11.4424 23.7776 11.6208ZM18.8499 11.8365C18.8499 11.8802 18.9155 11.9994 18.9957 12.1011C19.1956 12.3545 19.1879 12.3736 18.8042 12.5877C18.3842 12.8217 18.365 12.8212 18.3153 12.5756C18.2932 12.4655 18.2548 12.2937 18.2302 12.1936C18.1913 12.0356 18.2217 11.9959 18.4629 11.8914C18.8056 11.7428 18.8499 11.7365 18.8499 11.8365ZM25.8491 12.3299C25.9049 12.4337 25.8908 12.4947 25.7912 12.5847C25.6107 12.7476 25.5266 12.7334 25.4305 12.5232C25.3006 12.239 25.7009 12.0541 25.8491 12.3299ZM21.0648 12.8544C21.1396 13.0159 21.1888 13.1564 21.1743 13.1669C21.0627 13.2481 20.582 13.5033 20.541 13.5033C20.5124 13.5033 20.4322 13.3434 20.3626 13.148C20.2225 12.7542 20.2096 12.678 20.2918 12.7287C20.3223 12.7476 20.4289 12.7179 20.5288 12.6628C20.8166 12.5041 20.92 12.541 21.0648 12.8544ZM32.5928 12.8121C32.5227 12.9937 32.6165 13.1319 32.7808 13.0891C32.9894 13.0346 32.9912 12.703 32.7829 12.703C32.7015 12.703 32.6157 12.7521 32.5928 12.8121ZM35.6468 12.8163C35.2887 13.0664 35.6006 13.5685 35.9862 13.3628C36.1899 13.2541 36.1988 12.8844 36.0003 12.7782C35.8228 12.6836 35.8392 12.6819 35.6468 12.8163ZM14.0673 13.238C13.1483 13.6531 13.2936 14.974 14.2707 15.0839C14.9275 15.1577 15.3477 14.7704 15.3477 14.0914C15.3477 13.4026 14.6835 12.9599 14.0673 13.238ZM12.6891 13.7296C12.2611 14.1905 12.2121 14.3532 12.5103 14.3216C12.9235 14.2781 13.1839 14.0143 13.2713 13.5503C13.3459 13.1534 13.175 13.206 12.6891 13.7296ZM23.1422 13.583C23.2355 13.7462 23.3013 13.8864 23.288 13.8946C23.2748 13.9028 23.1213 14.0007 22.9472 14.1122C22.773 14.2235 22.6108 14.2952 22.5872 14.2714C22.5311 14.2155 22.3544 13.7104 22.353 13.6022C22.3521 13.5353 22.7859 13.3025 22.9357 13.2894C22.9556 13.2876 23.0487 13.4199 23.1422 13.583ZM30.8436 14.1896C30.7709 14.3782 30.8729 14.5343 31.0522 14.5088C31.1726 14.4918 31.2165 14.4371 31.2165 14.3036C31.2165 14.0888 30.9176 13.9974 30.8436 14.1896ZM33.8788 14.2169C33.5486 14.4836 33.8992 14.9997 34.2902 14.8221C34.4648 14.7426 34.5279 14.4411 34.4074 14.259C34.3014 14.0984 34.0502 14.0785 33.8788 14.2169ZM36.9669 14.1587C36.4744 14.3567 36.5893 15.1152 37.1274 15.2187C37.6663 15.3223 37.9897 14.5778 37.5542 14.2363C37.3482 14.0746 37.2191 14.0575 36.9669 14.1587ZM18.3089 14.6989C17.8915 14.8265 17.6093 15.1946 17.61 15.6107C17.6112 16.4127 18.4353 16.8939 19.0761 16.4669C20.0328 15.8295 19.3977 14.366 18.3089 14.6989ZM11.3897 15.3704C10.8626 16.0665 10.8581 16.178 11.3526 16.2958C11.9803 16.4454 12.515 15.6785 12.1995 15.081C11.9895 14.683 11.8812 14.7218 11.3897 15.3704ZM13.0543 15.6189C12.281 16.296 13.1375 17.4893 13.993 16.9269C14.7121 16.4543 14.3917 15.3952 13.5298 15.3952C13.3883 15.3952 13.2188 15.4749 13.0543 15.6189ZM29.1321 15.5831C29.0022 15.739 29.133 15.9407 29.3641 15.9407C29.4923 15.9407 29.5451 15.8949 29.5631 15.7671C29.602 15.4922 29.3112 15.3681 29.1321 15.5831ZM32.2189 15.589C31.9337 15.7037 31.9703 16.1058 32.281 16.2717C32.6122 16.4484 32.9685 15.898 32.6978 15.628C32.609 15.5394 32.3872 15.5214 32.2189 15.589ZM35.1705 15.6941C34.9565 15.8185 34.8853 16.0997 35.0081 16.3362C35.1832 16.674 35.5959 16.7413 35.8467 16.4727C36.2515 16.0396 35.6899 15.3929 35.1705 15.6941ZM38.2302 15.916C37.936 16.1707 37.8941 16.5674 38.1357 16.8086C38.6896 17.3609 39.5577 16.6027 39.0416 16.0174C38.8009 15.7449 38.4749 15.704 38.2302 15.916ZM15.2748 16.2565C14.4988 16.6707 14.7922 17.8107 15.6749 17.8107C16.2438 17.8107 16.6392 17.2144 16.4189 16.6887C16.2227 16.2203 15.7073 16.0256 15.2748 16.2565ZM27.5329 16.9584C27.3527 17.1751 27.6442 17.4659 27.8613 17.2862C27.9993 17.1721 27.9979 17.1069 27.8552 16.9645C27.7124 16.8222 27.6473 16.821 27.5329 16.9584ZM10.3539 17.0868C10.0532 17.3509 10.0326 17.6725 10.2993 17.9388C10.5801 18.2188 10.9017 18.2349 11.156 17.9813C11.6883 17.4505 10.9183 16.5915 10.3539 17.0868ZM17.2704 17.0632C16.965 17.249 16.8316 17.6391 16.9446 18.0157C17.1558 18.7183 18.2513 18.7269 18.4901 18.0278C18.7508 17.2646 17.9635 16.642 17.2704 17.0632ZM30.4667 17.0363C30.1524 17.256 30.35 17.7235 30.7573 17.7235C30.9863 17.7235 31.1253 17.5673 31.1253 17.3105C31.1253 16.9687 30.7733 16.8222 30.4667 17.0363ZM33.4152 17.1466C33.0393 17.4414 33.2788 18.0872 33.7642 18.0872C34.2145 18.0872 34.4571 17.5561 34.1718 17.1948C33.9801 16.9517 33.6876 16.933 33.4152 17.1466ZM36.6886 17.2086C36.2731 17.3827 36.1355 17.8032 36.3771 18.1617C36.6675 18.5932 37.2894 18.5409 37.4888 18.0685C37.7005 17.5662 37.1771 17.0038 36.6886 17.2086ZM39.4912 17.4528C38.9172 17.8925 39.2983 18.9602 40.0293 18.9602C40.4444 18.9602 40.4829 18.8204 40.2307 18.2281C39.8608 17.36 39.756 17.2502 39.4912 17.4528ZM19.3873 17.7174C19.0491 17.9231 18.9228 18.1463 18.9228 18.5388C18.9228 19.4426 20.1214 19.7276 20.6038 18.9387C21.07 18.1762 20.1507 17.2532 19.3873 17.7174ZM12.3936 17.8144C12.1099 18.0587 12.1036 18.5488 12.3811 18.7868C12.6561 19.0226 12.9851 19.0142 13.2462 18.7648C13.8484 18.1896 13.0243 17.2707 12.3936 17.8144ZM14.5328 18.4894C14.2707 18.6316 14.1348 19.0385 14.2536 19.3248C14.4479 19.7923 14.9966 19.9036 15.3534 19.5481C15.9255 18.9775 15.2472 18.1026 14.5328 18.4894ZM28.8487 18.4834C28.7353 18.6196 28.7768 18.8889 28.9254 18.9817C29.2266 19.1699 29.591 18.8256 29.4227 18.5119C29.336 18.3501 28.9746 18.3321 28.8487 18.4834ZM31.727 18.542C31.2987 18.9092 31.6105 19.6147 32.1559 19.5125C32.6563 19.4188 32.8244 18.8106 32.4273 18.5287C32.1545 18.3349 31.9642 18.3385 31.727 18.542ZM34.6858 18.7903C34.3711 19.1893 34.4641 19.6444 34.9069 19.8727C35.5566 20.2079 36.2112 19.3174 35.7077 18.7828C35.4513 18.5107 34.9033 18.5147 34.6858 18.7903ZM37.8653 18.8202C37.3925 19.1918 37.3843 19.807 37.8477 20.1595C38.5182 20.6695 39.3798 19.9674 39.0693 19.1643C38.9017 18.7309 38.225 18.5374 37.8653 18.8202ZM9.55727 19.1839C9.18577 19.4754 9.36554 20.0749 9.85259 20.1689C10.0401 20.2049 10.1212 20.1773 10.2721 20.0268C10.8002 19.5004 10.1425 18.7248 9.55727 19.1839ZM16.5714 19.2327C15.9932 19.5904 16.2782 20.5214 16.9662 20.5214C17.6902 20.5214 17.9546 19.5434 17.3191 19.2157C17.0444 19.074 16.8197 19.0792 16.5714 19.2327ZM40.4821 19.6168C40.3966 20.0048 40.5089 20.397 40.7615 20.5943C41.1056 20.8628 41.1443 20.7235 40.9202 20.0214C40.7114 19.3678 40.5665 19.2339 40.4821 19.6168ZM18.6964 19.9272C17.9885 20.4024 18.2604 21.3614 19.103 21.3614C19.9318 21.3614 20.1639 20.3115 19.4307 19.8797C19.1579 19.7189 18.9903 19.7299 18.6964 19.9272ZM30.0181 19.9524C29.565 20.5267 30.2658 21.2258 30.8419 20.774C31.2523 20.4522 30.9854 19.7608 30.4505 19.7608C30.2335 19.7608 30.1348 19.8045 30.0181 19.9524ZM11.7867 19.9807C11.3128 20.2689 11.6691 21.066 12.1899 20.8834C12.6387 20.7259 12.6697 20.1116 12.2386 19.9157C12.0174 19.815 12.0722 19.807 11.7867 19.9807ZM32.9741 20.2028C32.7097 20.516 32.7189 20.8699 32.9985 21.1487C33.5598 21.7085 34.4449 21.1076 34.1381 20.375C33.9431 19.9097 33.3016 19.8148 32.9741 20.2028ZM36.0743 20.3164C35.6168 20.724 35.7417 21.4266 36.3207 21.702C37.1108 22.0776 37.8369 20.9818 37.2113 20.358C36.9193 20.067 36.3767 20.0469 36.0743 20.3164ZM39.2423 20.4251C38.5236 20.7824 38.7315 22.2076 39.5071 22.2422C39.8317 22.2566 40.1177 22.2199 40.2567 22.1458C40.3797 22.0802 40.376 22.1035 40.2227 22.3506C40.098 22.5521 40.0499 22.7365 40.0499 23.0144V23.3994L39.7919 23.3491C39.467 23.2856 39.3742 23.2867 39.0672 23.3578C38.8433 23.4095 38.8246 23.4017 38.8752 23.2795C39.2891 22.2826 38.3612 21.331 37.5202 21.8899C36.6139 22.492 37.1103 23.7937 38.1974 23.6654C38.3907 23.6425 38.5492 23.6345 38.5492 23.6479C38.5492 23.6612 38.4997 23.7895 38.4397 23.933C38.3795 24.0768 38.3303 24.3381 38.3303 24.5141V24.8336L38.0085 24.7602C37.7598 24.7034 37.6105 24.7119 37.3517 24.7967C37.1675 24.8572 37.017 24.9016 37.017 24.8956C37.017 24.8895 37.0826 24.7563 37.1628 24.5992C37.7422 23.4658 36.1566 22.5694 35.486 23.6511C35.0758 24.3131 35.5863 25.1085 36.4074 25.087C36.8438 25.0756 36.8365 25.065 36.6889 25.4879C36.6298 25.6564 36.6003 25.8866 36.6228 25.9995L36.664 26.2048L36.1655 26.2024C35.8915 26.201 35.5906 26.2277 35.4968 26.2613C35.3379 26.3186 35.3323 26.3118 35.4136 26.1603C35.9311 25.1957 35.0976 24.1981 34.196 24.7032C33.1323 25.2995 33.8217 26.866 34.9718 26.4663C35.0934 26.424 35.1928 26.3999 35.1928 26.4128C35.1928 26.4256 35.1237 26.5921 35.039 26.7828C34.9352 27.017 34.8984 27.2105 34.9258 27.3788L34.9664 27.6282L34.5722 27.5791C33.7073 27.4714 33.3545 27.8381 33.5765 28.6146C33.6545 28.8872 33.7546 29.2457 33.7994 29.4112C33.8838 29.7242 33.9991 29.7985 34.4041 29.8006C34.5886 29.8015 34.5979 29.8174 34.5618 30.0743C34.5037 30.4918 34.4814 30.5292 34.2909 30.5292C34.046 30.5292 34.0289 30.6262 34.1568 31.293C34.5314 33.2445 34.2203 36.8357 33.5123 38.7356C33.2256 39.5048 33.2926 39.5256 34.1714 38.9392C36.9359 37.0947 39.5563 33.9268 40.4662 31.3295C40.5293 31.1493 40.6497 30.8221 40.7336 30.6019C41.5254 28.5288 41.887 24.8829 41.527 22.6061C41.4112 21.8738 41.3437 21.8076 40.8197 21.9147C40.4657 21.9869 40.4578 21.9848 40.5351 21.8406C41.0105 20.9552 40.1254 19.9861 39.2423 20.4251ZM13.7427 20.7794C13.4138 21.1073 13.6609 21.6524 14.1385 21.6524C14.4062 21.6524 14.6912 21.3897 14.6912 21.1431C14.6912 20.714 14.0535 20.4695 13.7427 20.7794ZM9.00014 21.3614C8.7538 21.6071 8.87334 21.9434 9.2071 21.9434C9.58914 21.9434 9.72884 21.5435 9.42179 21.3292C9.21319 21.1833 9.17592 21.1861 9.00014 21.3614ZM31.4565 21.3722C31.3477 21.4119 31.1916 21.5524 31.1098 21.6844C30.6099 22.4911 31.6461 23.3122 32.3183 22.6418C32.9448 22.0171 32.2989 21.065 31.4565 21.3722ZM15.8878 21.417C15.4408 21.7146 15.6644 22.4528 16.2016 22.4528C16.695 22.4528 16.957 21.8733 16.6279 21.5105C16.4911 21.3598 16.056 21.3049 15.8878 21.417ZM34.515 21.6564C34.0509 21.9049 33.9466 22.5009 34.2991 22.8908C34.8487 23.4987 35.8753 23.0329 35.7406 22.2368C35.6435 21.665 35.0362 21.3773 34.515 21.6564ZM11.0578 22.1035C10.8982 22.2627 10.9521 22.5932 11.1525 22.6844C11.5533 22.8662 11.8903 22.4348 11.5852 22.1307C11.449 21.9949 11.1806 21.9811 11.0578 22.1035ZM17.8055 22.2202C17.4337 22.6075 17.6606 23.1804 18.1859 23.1804C18.5443 23.1804 18.777 22.9445 18.777 22.5806C18.777 22.0603 18.1742 21.8366 17.8055 22.2202ZM13.1007 22.8312C12.9448 22.9864 12.9969 23.312 13.1984 23.4436C13.5662 23.6839 13.9524 23.2905 13.7106 22.9221C13.5826 22.7274 13.2537 22.6783 13.1007 22.8312ZM32.6542 23.0701C32.2128 23.4403 32.2227 24.1217 32.6743 24.476C33.6016 25.2032 34.7025 23.8342 33.7996 23.0766C33.4895 22.8162 32.9601 22.8132 32.6542 23.0701ZM15.1766 23.6044C14.9256 23.8811 15.0829 24.2717 15.4452 24.2717C15.7338 24.2717 15.8585 24.1609 15.8585 23.9047C15.8585 23.5308 15.419 23.3375 15.1766 23.6044ZM41.329 24.1892C41.3529 24.2147 41.3578 24.3746 41.3395 24.5447L41.3062 24.8537H40.9186H40.5307L40.5529 24.4718C40.5651 24.2617 40.579 24.0796 40.5836 24.0672C40.5979 24.0284 41.2826 24.1406 41.329 24.1892ZM10.4128 24.2355C10.3488 24.4017 10.4386 24.5627 10.5954 24.5627C10.7679 24.5627 10.8565 24.3617 10.7437 24.2261C10.6338 24.0943 10.4653 24.099 10.4128 24.2355ZM17.3461 24.2727C17.0405 24.3912 17.0597 24.8231 17.3742 24.9016C17.6245 24.9645 17.7919 24.8437 17.7919 24.6001C17.7919 24.3521 17.5671 24.1869 17.3461 24.2727ZM12.4554 25.0368C12.406 25.1648 12.5492 25.3631 12.691 25.3631C12.8089 25.3631 12.9333 25.1445 12.8876 25.0176C12.8415 24.8893 12.5063 24.9042 12.4554 25.0368ZM8.37433 25.9453C8.41933 27.0179 8.60637 28.2734 8.85693 29.1831C8.94529 29.5033 9.04303 29.8633 9.07444 29.9834C9.35124 31.0399 10.0799 32.6141 10.8839 33.8925C12.6865 36.7588 15.3798 39.0453 18.5431 40.3949C19.5027 40.8044 19.5491 40.8035 19.7389 40.3699C19.8221 40.1799 19.8976 40.0153 19.907 40.0043C19.9161 39.9933 20.0556 40.116 20.2171 40.2771C20.9654 41.0234 22.1348 40.2958 21.7933 39.2966C21.4541 38.3034 19.9032 38.5792 19.8652 39.6395C19.8601 39.7839 19.8458 39.7748 19.7558 39.57C19.6639 39.3601 19.205 38.9539 18.9727 38.8768C18.92 38.8592 18.9774 38.7445 19.1201 38.5825C19.2488 38.4364 19.3934 38.1854 19.4417 38.0245L19.5296 37.7324L19.6984 37.9801C20.3713 38.9677 21.9206 38.0725 21.3716 37.0136C20.9397 36.1808 19.5064 36.476 19.5064 37.3976C19.5064 37.5856 19.404 37.5316 19.2952 37.2866C19.2397 37.1613 19.0979 37.0059 18.9802 36.9409C18.4972 36.6745 18.4976 36.6759 18.7613 36.4033C18.9062 36.2535 19.0182 36.0501 19.0444 35.8889C19.0979 35.5602 19.0878 35.5595 19.4251 35.9134C20.2133 36.7397 21.562 35.7414 20.9687 34.7709C20.5471 34.0813 19.5005 34.1882 19.224 34.9492C19.0866 35.3267 19.0758 35.3274 18.7946 34.9784C18.6706 34.8246 18.4688 34.657 18.346 34.6066L18.1231 34.5145L18.3682 34.2288C18.5213 34.0505 18.6319 33.8284 18.6631 33.6368C18.7102 33.3481 18.7191 33.3387 18.8171 33.476C19.5523 34.5049 20.9903 34.0294 20.675 32.8614C20.4299 31.9536 19.0076 31.9022 18.8112 32.7941C18.7484 33.0802 18.668 33.1066 18.5248 32.8886C18.4578 32.7864 18.2581 32.6113 18.0814 32.4996L17.76 32.2963L17.9381 32.1296C18.2309 31.8552 18.3987 31.0687 18.2053 30.8758C18.0926 30.7634 16.6495 30.3775 16.5086 30.4221C16.4341 30.4457 16.3043 30.5612 16.2203 30.6788C16.0563 30.9083 15.9993 30.9013 15.6548 30.607C15.5099 30.4836 15.4998 30.4443 15.58 30.3167C15.7031 30.1201 15.6552 30.0827 14.8736 29.7632C12.4437 28.7701 10.57 27.4483 8.79177 25.4722L8.33331 24.9629L8.37433 25.9453ZM39.6562 25.5723C39.7052 25.6176 39.6199 26.2113 39.5552 26.2758C39.5366 26.2943 39.3684 26.2887 39.1811 26.263L38.841 26.2164V25.8238V25.4308L39.224 25.4788C39.4347 25.5052 39.6292 25.5472 39.6562 25.5723ZM14.5482 25.7599C14.4226 25.9105 14.5677 26.0907 14.8143 26.0907C14.9659 26.0907 14.9891 26.0605 14.9697 25.8906C14.9427 25.6571 14.6971 25.5809 14.5482 25.7599ZM32.8051 26.2181C32.8389 26.4037 32.9432 26.7227 33.0848 27.0731C33.1171 27.153 33.1926 27.3414 33.2526 27.4915C33.423 27.9183 33.6506 27.8493 33.8315 27.3162C34.0593 26.6437 33.655 26.018 32.9924 26.018C32.788 26.018 32.7718 26.0355 32.8051 26.2181ZM16.6729 26.373C16.5016 26.4813 16.5993 26.7821 16.8061 26.7821C17.0123 26.7821 17.0901 26.5832 16.95 26.4147C16.8492 26.2933 16.8084 26.2873 16.6729 26.373ZM37.7373 26.9366C37.9374 26.9766 37.9653 27.0116 37.9653 27.2218C37.9653 27.6352 37.9121 27.6916 37.5198 27.6916H37.1628V27.3398C37.1628 26.8667 37.2123 26.8319 37.7373 26.9366ZM40.8799 27.4321C40.9722 27.5432 40.8717 27.837 40.7414 27.837C40.567 27.837 40.4461 27.732 40.4461 27.5805C40.4461 27.3379 40.7226 27.2433 40.8799 27.4321ZM36.0427 28.3813C36.2646 28.4258 36.271 28.4374 36.2332 28.7324C36.1852 29.108 36.2246 29.0718 35.843 29.0926L35.5212 29.1104L35.4984 28.7927C35.4696 28.3919 35.5219 28.2537 35.685 28.2995C35.7556 28.3192 35.9163 28.3561 36.0427 28.3813ZM39.1691 29.0012C39.1691 29.1454 39.1279 29.1877 38.9685 29.206C38.7876 29.2268 38.7679 29.2069 38.7679 29.0012C38.7679 28.7953 38.7876 28.7754 38.9685 28.7962C39.1279 28.8145 39.1691 28.8568 39.1691 29.0012ZM37.4162 30.2828C37.5514 30.4177 37.5348 30.5222 37.3604 30.6318C37.1717 30.7505 36.9744 30.5261 37.0852 30.3193C37.1844 30.1346 37.2594 30.1264 37.4162 30.2828ZM14.0024 30.6341C14.1421 30.7377 14.1421 30.741 13.9932 30.8915C13.8109 31.0761 13.5966 31.0203 13.5966 30.7882C13.5966 30.5107 13.7549 30.4506 14.0024 30.6341ZM18.3821 31.0114C18.3251 31.1593 18.5342 31.5242 18.7812 31.7077C19.1973 32.0169 20.0204 31.8402 20.1353 31.4169C20.1957 31.1946 20.2227 31.208 19.3691 31.0401C18.4657 30.8625 18.4397 30.8618 18.3821 31.0114ZM30.3563 31.1565C30.1896 31.323 30.4079 31.6603 30.6277 31.5761C30.8063 31.5076 30.7508 31.154 30.5569 31.1264C30.4751 31.1147 30.3846 31.1283 30.3563 31.1565ZM28.1571 31.5424C27.9897 31.7269 28.068 31.9695 28.3143 32.0312C28.5475 32.0896 28.7283 31.9847 28.7599 31.7727C28.8112 31.4272 28.4032 31.2713 28.1571 31.5424ZM26.1648 31.5266C25.6295 31.6285 25.6688 32.555 26.2135 32.6745C26.7857 32.7997 27.1928 32.1277 26.7997 31.707C26.7179 31.6194 26.6221 31.5478 26.5867 31.5478C26.5515 31.5478 26.4789 31.5359 26.4254 31.5216C26.372 31.5072 26.2548 31.5095 26.1648 31.5266ZM23.5966 31.7979C23.0175 32.4124 23.6923 33.396 24.4718 33.0739C24.938 32.8813 25.0831 32.1548 24.7264 31.7991C24.4686 31.542 23.8383 31.5413 23.5966 31.7979ZM35.8003 31.7227C35.8582 31.873 35.6791 32.077 35.5165 32.0462C35.2577 31.9971 35.283 31.6205 35.5451 31.6205C35.6639 31.6205 35.7788 31.6663 35.8003 31.7227ZM21.5704 31.9573C21.2179 32.1305 20.9926 32.6357 21.1033 33.004C21.2844 33.6068 22.0061 33.8614 22.5131 33.5014C23.4227 32.8554 22.5733 31.4641 21.5704 31.9573ZM16.5152 32.2025C16.6155 32.2808 16.7367 32.3456 16.7845 32.3465C16.9732 32.35 16.9502 32.5069 16.72 32.7831C16.4301 33.1312 16.4648 33.127 16.1367 32.8572L15.8709 32.6387L16.0288 32.3484C16.2082 32.019 16.26 32.0036 16.5152 32.2025ZM14.3671 32.8168C14.5063 32.9201 14.5061 32.9246 14.3448 33.0875C14.1943 33.2394 14.1714 33.2434 14.0638 33.1361C13.8113 32.8841 14.0785 32.6029 14.3671 32.8168ZM30.6975 33.3254C30.6193 33.529 30.7268 33.6693 30.9425 33.6445C31.1023 33.6262 31.1436 33.5839 31.1436 33.4395C31.1436 33.2207 30.7744 33.1263 30.6975 33.3254ZM28.6551 33.461C28.2196 33.6982 28.383 34.2732 28.8722 34.2256C29.183 34.1954 29.3487 33.8775 29.1844 33.6272C29.051 33.4243 28.8424 33.3588 28.6551 33.461ZM26.5368 33.6571C25.9707 33.885 26.1029 34.7491 26.7041 34.7491C27.2322 34.7491 27.4855 34.1063 27.0887 33.7733C26.8492 33.5725 26.7824 33.5582 26.5368 33.6571ZM24.3523 33.8852C23.6602 34.0743 23.6632 35.0296 24.3568 35.258C25.0301 35.4796 25.543 34.6323 25.0925 34.0421C25.0107 33.9348 24.5377 33.8345 24.3523 33.8852ZM21.9677 34.2242C21.4607 34.5671 21.389 35.1131 21.7975 35.5205C22.4095 36.1308 23.4016 35.5576 23.1576 34.7346C23.0097 34.2356 22.3617 33.9577 21.9677 34.2242ZM16.9802 34.428C17.3803 34.651 17.3782 34.6376 17.0637 34.9927L16.8157 35.2725L16.556 35.075C16.2499 34.8422 16.2468 34.8232 16.4604 34.4944C16.6561 34.1931 16.5768 34.2031 16.9802 34.428ZM14.7536 34.9595C14.8675 35.0315 14.8086 35.2987 14.6671 35.3529C14.5082 35.4137 14.308 35.2126 14.3612 35.0455C14.4109 34.8889 14.5825 34.8513 14.7536 34.9595ZM31.0773 35.5221C31.009 35.6993 31.1982 35.8678 31.3951 35.8054C31.5048 35.7706 31.5465 35.707 31.531 35.5978C31.5017 35.3938 31.1494 35.3349 31.0773 35.5221ZM28.8818 35.794C28.6277 36.1808 29.1457 36.6296 29.4541 36.2895C29.5955 36.134 29.6126 35.8344 29.4874 35.7096C29.3369 35.5595 29.0055 35.6056 28.8818 35.794ZM26.9673 35.8243C26.7524 35.8587 26.5836 36.1081 26.5836 36.3912C26.5836 36.7775 26.9551 36.9919 27.344 36.8299C27.9468 36.5786 27.625 35.7196 26.9673 35.8243ZM24.5972 36.1721C24.1146 36.4335 24.1231 37.0791 24.6122 37.3313C24.894 37.4767 25.1246 37.4666 25.3241 37.3006C25.9974 36.7404 25.3644 35.757 24.5972 36.1721ZM22.4749 36.3512C21.622 36.6064 21.8435 37.949 22.7386 37.9502C23.1912 37.9509 23.5922 37.558 23.5922 37.1139C23.5922 36.5321 23.0674 36.1738 22.4749 36.3512ZM17.2978 36.5681C17.3998 36.6483 17.5282 36.7137 17.5828 36.7137C17.7452 36.7137 17.6927 36.8771 17.4335 37.1791L17.1902 37.4626L16.9256 37.2614C16.6134 37.0239 16.6202 37.0606 16.8204 36.7053C17.0034 36.3809 17.044 36.3692 17.2978 36.5681ZM15.2019 37.263C15.2019 37.5171 14.9952 37.6269 14.8276 37.4619C14.6697 37.3065 14.6685 37.2957 14.7946 37.1569C14.9301 37.0078 15.2019 37.0784 15.2019 37.263ZM31.523 37.6328C31.4288 37.7268 31.4708 37.9345 31.5936 37.9815C31.7474 38.0404 31.8582 37.9336 31.8245 37.759C31.7977 37.6204 31.6131 37.543 31.523 37.6328ZM29.3208 37.9493C29.1037 38.1886 29.2432 38.4962 29.5688 38.4962C29.8781 38.4962 29.9993 38.331 29.8992 38.0453C29.8074 37.7833 29.5153 37.7349 29.3208 37.9493ZM27.1834 38.1365C26.8358 38.3794 27.0667 39.042 27.4989 39.042C27.7234 39.042 28.0429 38.7428 28.0429 38.5327C28.0429 38.1512 27.5125 37.9067 27.1834 38.1365ZM25.1443 38.3036C24.4458 38.5063 24.5232 39.4319 25.2465 39.528C25.6613 39.5831 25.9269 39.3541 25.9269 38.9413C25.9269 38.6468 25.7352 38.3144 25.5652 38.3144C25.5301 38.3144 25.4574 38.3013 25.404 38.2854C25.3505 38.2695 25.2336 38.2777 25.1443 38.3036ZM22.8262 38.5619C22.3872 38.7552 22.2271 39.089 22.3518 39.5511C22.514 40.152 23.2582 40.3355 23.7089 39.886C24.3654 39.2313 23.6709 38.19 22.8262 38.5619ZM17.7956 38.7933L18.1174 38.9812L17.8526 39.2973L17.5875 39.6133L17.3114 39.3919L17.0351 39.1706L17.2226 38.888C17.445 38.5526 17.3972 38.5605 17.7956 38.7933ZM29.7626 40.1023C29.4745 40.3895 29.7631 40.8191 30.1315 40.6518C30.3537 40.5508 30.3741 40.1757 30.1634 40.0632C29.9717 39.9608 29.8971 39.9681 29.7626 40.1023ZM27.4923 40.3846C27.2725 40.6041 27.2594 40.9213 27.4612 41.1375C27.8315 41.5337 28.3525 41.3481 28.3933 40.8056C28.4339 40.2638 27.8751 40.0029 27.4923 40.3846ZM25.4162 40.551C25.1633 40.6492 25.0426 41.073 25.1717 41.4089C25.3128 41.7754 26.0225 41.7436 26.2496 41.3605C26.5407 40.8687 25.9862 40.3302 25.4162 40.551ZM23.1827 40.714C22.8122 40.8633 22.5668 41.4638 22.8445 41.5421C22.9146 41.5617 23.2676 41.5886 23.6288 41.6015L24.2853 41.6248L24.3085 41.386C24.3565 40.8881 23.7096 40.5017 23.1827 40.714ZM20.8745 40.9395C20.8042 40.9804 20.7468 41.0414 20.7468 41.0751C20.7468 41.162 21.7091 41.3864 21.9602 41.3577L22.1695 41.3338L21.9381 41.0975C21.6916 40.8458 21.1694 40.7682 20.8745 40.9395Z" fill="#ECB51C"/>
</svg>
