<svg width="50" height="50" viewBox="0 0 50 50" fill="none" xmlns="http://www.w3.org/2000/svg">
<path d="M18.6182 47H17.1338L17.1436 46.2334H18.6182C19.126 46.2334 19.5492 46.1276 19.8877 45.916C20.2262 45.7012 20.4801 45.4017 20.6494 45.0176C20.8219 44.6302 20.9082 44.1777 20.9082 43.6602V43.2256C20.9082 42.8187 20.8594 42.4574 20.7617 42.1416C20.6641 41.8226 20.5208 41.554 20.332 41.3359C20.1432 41.1146 19.9121 40.9469 19.6387 40.833C19.3685 40.7191 19.0576 40.6621 18.7061 40.6621H17.1045V39.8906H18.7061C19.1715 39.8906 19.5964 39.9688 19.9805 40.125C20.3646 40.278 20.695 40.501 20.9717 40.7939C21.2516 41.0837 21.4665 41.4352 21.6162 41.8486C21.766 42.2588 21.8408 42.721 21.8408 43.2354V43.6602C21.8408 44.1745 21.766 44.6383 21.6162 45.0518C21.4665 45.4619 21.25 45.8118 20.9668 46.1016C20.6868 46.3913 20.3483 46.6143 19.9512 46.7705C19.5573 46.9235 19.113 47 18.6182 47ZM17.6367 39.8906V47H16.6943V39.8906H17.6367Z" fill="#1C1D1F"/>
<path d="M25.8789 44.2119H23.9795V43.4453H25.8789C26.2467 43.4453 26.5446 43.3867 26.7725 43.2695C27.0003 43.1523 27.1663 42.9896 27.2705 42.7812C27.3779 42.5729 27.4316 42.3353 27.4316 42.0684C27.4316 41.8242 27.3779 41.5947 27.2705 41.3799C27.1663 41.165 27.0003 40.9925 26.7725 40.8623C26.5446 40.7288 26.2467 40.6621 25.8789 40.6621H24.1992V47H23.2568V39.8906H25.8789C26.416 39.8906 26.8701 39.9834 27.2412 40.1689C27.6123 40.3545 27.8939 40.6117 28.0859 40.9404C28.278 41.266 28.374 41.6387 28.374 42.0586C28.374 42.5143 28.278 42.9033 28.0859 43.2256C27.8939 43.5479 27.6123 43.7936 27.2412 43.9629C26.8701 44.1289 26.416 44.2119 25.8789 44.2119Z" fill="#1C1D1F"/>
<path d="M33.877 46.2334V47H30.3223V46.2334H33.877ZM30.5078 39.8906V47H29.5654V39.8906H30.5078Z" fill="#1C1D1F"/>
<path d="M39.5464 6V6.92308H40.5V6H39.5464ZM39.5464 7.84615V8.76923H40.5V7.84615H39.5464ZM36.6855 8.76923V9.69231H37.6391V8.76923H36.6855ZM24.2081 9.46092C16.6363 9.46092 10.5 15.4006 10.5 22.7298C10.5 30.0591 16.6363 36 24.2081 36C31.78 36 37.9163 30.0603 37.9163 22.7298C37.9163 15.3994 31.7787 9.46092 24.2081 9.46092ZM24.2081 13.6923C29.3603 13.6923 33.5461 17.7428 33.5461 22.7298C33.5461 27.7169 29.3603 31.7686 24.2081 31.7686C19.056 31.7686 14.9109 27.7169 14.9109 22.7298C14.9109 17.7428 19.056 13.6923 24.2081 13.6923Z" fill="#FDB511"/>
<path d="M28.1027 16.1539C25.6131 19.1643 24.9863 20.4862 23.9945 22.9219C22.8692 20.7188 21.5265 19.1988 19.2009 18.192C18.761 18.0825 18.5448 18.0197 18.2473 18.4222C17.9497 18.8246 18.1316 19.1877 18.4863 19.6148C19.4171 20.7348 20.4635 21.7686 21.1883 23.0376C22.0389 24.5256 23.0968 26.976 23.4528 27.6148C23.7364 28.1219 24.423 28.3459 24.6862 28.3459C26.0925 28.1846 26.0925 27.4917 26.3608 26.2917C26.7956 24.3237 27.3589 22.2892 30.01 19.8449V16.1526L28.1027 16.1539Z" fill="black"/>
<path d="M38.5928 6.92306V7.84614L39.5464 7.84615V6.92308L38.5928 6.92306ZM38.5928 7.84614H36.6855L36.6855 8.76923L38.5928 8.76922V7.84614ZM36.6855 8.76923L35.7319 8.76922V10.6154H36.6855L36.6855 8.76923ZM36.6855 10.6154V11.5384H37.6391V10.6154H36.6855ZM37.6391 10.6154H38.5928V9.69229L37.6391 9.69231L37.6391 10.6154ZM36.6855 11.5384H35.7319V12.4615H34.7782V11.5384H32.871V12.4615H31.9173V13.3846H32.871V14.3077H31.9173V13.3846H30.9637V14.3077H30.0101V15.2308H29.0564V18.9231H30.9637V18H31.9173V17.0769H32.871V16.1538H31.9173V15.2308H32.871V16.1538H33.8246V15.2308H34.7782V14.3077H35.7319V13.3846H36.6855V11.5384ZM34.7782 11.5384H35.7319V10.6154H34.7782V11.5384ZM34.7782 10.6154V9.69229H33.8246V10.6154H34.7782Z" fill="black"/>
</svg>
