<svg width="50" height="50" viewBox="0 0 50 50" fill="none" xmlns="http://www.w3.org/2000/svg">
<rect width="50" height="50" fill="#00A7AD"/>
<path fill-rule="evenodd" clip-rule="evenodd" d="M27.4863 25.7899C26.9398 25.7899 26.4963 25.3804 26.4963 24.8099C26.4963 24.2699 26.9363 23.8299 27.4863 23.8299C28.0036 23.8299 28.4763 24.2834 28.4763 24.8099C28.4763 25.3499 28.0363 25.7799 27.4863 25.7799M21.4363 22.3099C21.4363 22.8499 20.9963 23.2899 20.4463 23.2899C19.8963 23.2899 19.4563 22.8499 19.4563 22.3099C19.4563 21.8601 19.9823 21.3299 20.4463 21.3299C20.9863 21.3299 21.4363 21.7699 21.4363 22.3099ZM32.3163 11.2899C31.0063 9.88995 29.2163 9.07995 27.2863 8.99995C24.9963 8.90995 22.8563 9.86995 21.4063 11.6199C19.341 14.0984 19.7053 17.5065 19.5763 20.5299C18.8963 20.8499 18.4363 21.5299 18.4363 22.3199C18.4363 23.0499 18.8363 23.6799 19.4263 24.0299L19.3763 25.2399C19.3163 26.6499 18.0963 27.7499 16.6763 27.6899C15.2463 27.6299 14.1363 26.4299 14.1963 25.0199C14.2199 24.3613 13.1996 24.3282 13.1763 24.9799C13.1363 25.9299 13.4663 26.8499 14.1263 27.5499C14.7763 28.2499 15.6663 28.6699 16.6363 28.7099C18.5903 28.7099 20.3214 27.3154 20.4163 25.2899L20.4563 24.3199H20.4663C21.5763 24.3199 22.4763 23.4299 22.4763 22.3299C22.4763 21.2299 21.6663 20.4299 20.6263 20.3499C20.7427 17.632 20.3608 14.4963 22.2063 12.2599C23.4463 10.7599 25.2863 9.93995 27.2463 10.0099C30.5984 10.1318 33.3294 13.0051 33.2063 16.3699C33.0948 19.42 30.74 21.1719 28.7963 23.2899C28.4463 22.9899 27.9863 22.8099 27.4863 22.8099C26.3763 22.8099 25.4763 23.6999 25.4763 24.7999C25.4763 25.3599 25.7163 25.8699 26.0963 26.2299L25.1563 27.2999C24.0363 28.9299 24.4563 31.1599 26.1063 32.2699C26.7163 32.6799 27.4163 32.8899 28.1363 32.8899C29.3609 32.8899 30.4592 32.3026 31.1363 31.3299C31.5122 30.7896 30.6673 30.2266 30.2963 30.7599C29.4863 31.9299 27.8763 32.2299 26.6963 31.4399C25.5163 30.6399 25.2063 29.0499 26.0063 27.8899L27.0163 26.7299C28.5348 27.1349 29.8603 25.5619 29.3863 24.1399C31.5619 21.7642 34.0961 19.813 34.2263 16.3899C34.2963 14.4799 33.6163 12.6599 32.3063 11.2599" fill="white"/>
<path fill-rule="evenodd" clip-rule="evenodd" d="M37.5763 29.8599C36.9463 34.4499 32.9363 37.9099 28.2363 37.9099C23.9863 37.9099 20.2363 35.0799 19.1363 31.0299C18.9711 30.3925 19.9628 30.1392 20.1263 30.7699C21.1163 34.3799 24.4463 36.8999 28.2363 36.8999C32.4163 36.8999 35.9963 33.8099 36.5563 29.7199C36.6489 29.0719 37.6687 29.2138 37.5763 29.8599Z" fill="white"/>
<path fill-rule="evenodd" clip-rule="evenodd" d="M35.1163 28.6099C35.1163 29.0499 35.0763 29.4999 34.9863 29.9299C34.3563 33.1099 31.5163 35.4099 28.2363 35.4099C24.9563 35.4099 21.8763 32.8799 21.4163 29.5199C21.3239 28.8727 22.341 28.7364 22.4363 29.3799C22.8263 32.2299 25.3163 34.3899 28.2363 34.3899C31.1563 34.3899 33.4463 32.4299 33.9763 29.7299C34.0463 29.3599 34.0863 28.9899 34.0863 28.6099C34.0863 27.95 35.1163 27.955 35.1163 28.6099Z" fill="white"/>
<path fill-rule="evenodd" clip-rule="evenodd" d="M39.8563 31.4399C38.5363 36.7399 33.7563 40.4399 28.2263 40.4399C22.876 40.4399 17.7883 36.7386 16.6063 31.4199C16.6063 31.4199 16.5963 31.3899 16.5763 31.3899C12.9563 31.1699 10.1263 28.1899 10.1263 24.6099C10.1263 21.0299 13.2163 17.8099 17.0063 17.8099C17.6635 17.8099 17.6635 18.8299 17.0063 18.8299C13.7763 18.8299 11.1563 21.4199 11.1563 24.6099C11.1563 27.7999 13.5663 30.1999 16.6463 30.3799C17.1063 30.4099 17.4963 30.7299 17.6063 31.1799C18.7429 36.0104 23.3274 39.4199 28.2363 39.4199C33.2163 39.4199 37.6563 36.0399 38.8663 31.1899C39.0316 30.5525 40.0312 30.8041 39.8663 31.4399" fill="white"/>
</svg>
