<svg width="50" height="50" viewBox="0 0 50 50" fill="none" xmlns="http://www.w3.org/2000/svg">
<path d="M3 20.4476L4.54092 20.295C4.73112 21.3888 5.29403 21.8872 6.26185 21.8872C6.9637 21.8872 7.80813 21.5571 7.80813 20.7434C7.80813 19.7948 6.49476 19.6932 5.80493 19.5079C4.51316 19.1715 3.29211 18.4777 3.29211 16.9959C3.29211 15.4066 4.75278 14.6624 6.16939 14.6624C7.78655 14.6624 9.13033 15.5003 9.18469 17.2042L7.58927 17.2609C7.45523 16.4622 6.97119 16.0576 6.15063 16.0576C5.6349 16.0576 4.81606 16.2294 4.81606 16.8773C4.81606 17.6308 5.96942 17.8098 6.51063 17.9436C8.02538 18.3248 9.40801 18.9569 9.40801 20.7382C9.40801 22.519 7.8403 23.3259 6.25157 23.3259C4.26221 23.3259 3.20762 22.3219 3 20.4476Z" fill="#A7A5A6"/>
<path d="M9.20624 17.109H10.8061L12.1729 21.4126L13.5047 17.109H15.064L13.0599 22.9372C12.7923 23.7124 12.6147 24.7454 11.9022 25.2674C11.2805 25.7101 10.4198 25.7041 9.70157 25.5362L9.57651 24.2771C10.567 24.4987 11.1276 24.1208 11.3734 23.1881L9.20624 17.109Z" fill="#A7A5A6"/>
<path d="M20.3102 23.1709H18.8037V20.0848C18.8037 19.4347 18.7725 19.0156 18.7059 18.8219C18.3748 17.8635 16.994 18.1655 16.7174 19.043C16.6411 19.2963 16.6009 19.756 16.6009 20.4349V23.1709H15.0975V17.1083H16.4901V17.9961C17.4466 16.7146 19.8275 16.5855 20.2254 18.3391C20.2812 18.5862 20.3102 18.949 20.3102 19.4144V23.1709Z" fill="#A7A5A6"/>
<path d="M21.861 20.1566C21.861 21.0052 22.258 22.0228 23.268 22.0228C24.2833 22.0228 24.6691 20.9992 24.6691 20.149C24.6691 19.3026 24.2744 18.2937 23.268 18.2937C22.2589 18.2937 21.861 19.3082 21.861 20.1566ZM20.3188 20.0758C20.3188 18.3978 21.5515 16.9935 23.2693 16.9935C25.0445 16.9935 26.2315 18.4544 26.2315 20.1415C26.2315 21.8125 25.0546 23.3263 23.2796 23.3263C21.3818 23.3263 20.3188 21.8011 20.3188 20.0758Z" fill="#A7A5A6"/>
<path d="M28.0802 14V21.8272C28.0802 22.2005 28.1061 22.4476 28.1557 22.5657C28.298 22.9057 28.6457 22.9366 28.9788 22.9366V23.1709H26.2445V22.9366C26.5685 22.9366 26.8582 22.8967 26.9899 22.5723C27.0435 22.4443 27.0681 22.1962 27.0681 21.8272V16.4861C27.0681 15.8138 27.0551 15.4027 27.0279 15.2473C26.9534 14.8043 26.6162 14.8063 26.2717 14.9506L26.1676 14.7214L27.81 14H28.0802Z" fill="#231F20"/>
<path d="M31.5064 17.5231C30.3875 17.5231 30.1271 18.865 30.1271 19.7324C30.1271 20.775 30.4559 22.8799 31.8878 22.8799C33.0703 22.8799 33.2492 21.4804 33.2492 20.597C33.2492 19.5415 32.9523 17.5231 31.5064 17.5231ZM31.6935 17.0889C33.3358 17.0889 34.3863 18.5843 34.3863 20.1032C34.3863 21.685 33.3584 23.3429 31.6288 23.3429C29.9801 23.3429 28.9891 21.7668 28.9891 20.2705C28.9891 18.7433 30.0162 17.0889 31.6935 17.0889Z" fill="#231F20"/>
<path d="M36.6718 17.4144C35.8581 17.4144 35.6204 18.3008 35.6204 18.9499C35.6204 19.6898 35.8484 20.9385 36.8273 20.9385C37.6453 20.9385 37.8782 20.0938 37.8782 19.4314C37.8782 18.695 37.6551 17.4144 36.6718 17.4144ZM35.5601 23.1709C35.1983 23.5848 34.9982 23.974 34.9982 24.2897C34.9982 24.5008 35.1135 24.6771 35.3484 24.8311C35.7544 25.0933 36.3404 25.2299 37.1055 25.2299C37.8721 25.2299 39.2378 24.9691 39.2378 23.9599C39.2378 23.2662 38.1233 23.3357 37.6692 23.3258C36.7553 23.297 36.0505 23.2408 35.5601 23.1709ZM35.6101 21.0065C34.9424 20.6469 34.5574 19.972 34.5574 19.224C34.5574 18.0093 35.5681 17.0884 36.7741 17.0884C37.3034 17.0884 37.763 17.2207 38.1516 17.4966H39.3316C39.4426 17.4966 39.6232 17.4616 39.6969 17.568C39.7589 17.675 39.7585 17.8996 39.7027 18.0083C39.6421 18.1137 39.4238 18.0768 39.3298 18.0768H38.6027C38.8331 18.3872 38.947 18.7841 38.947 19.267C38.947 19.815 38.7456 20.2884 38.3503 20.6772C37.9528 21.0689 37.4204 21.2669 36.7553 21.2669C36.4789 21.2669 36.1975 21.2239 35.9085 21.128C35.7388 21.2971 35.6231 21.4379 35.5659 21.5603C35.4446 21.8059 35.434 21.9414 35.5758 22.0894C35.6405 22.156 35.7732 22.2066 35.9675 22.2345C36.772 22.3958 37.6258 22.2466 38.437 22.3923C39.1288 22.4936 39.6782 22.9984 39.6782 23.7128C39.6782 25.2203 37.8567 26 36.5664 26C35.8945 26 34.1344 25.7412 34.1344 24.7758C34.1344 24.4116 34.4101 24.0887 34.615 23.8115C34.6427 23.7709 34.8473 23.5408 35.2229 23.1194C35.0139 22.9805 34.8647 22.8633 34.7798 22.7546C34.5916 22.5269 34.6063 22.2406 34.8182 21.8669C34.9335 21.6614 35.1983 21.3722 35.6101 21.0065Z" fill="#231F20"/>
<path d="M39.9069 17.2609H42.5175V17.4972C42.2164 17.4972 41.8426 17.5588 41.8426 17.9342C41.8426 18.1052 41.9074 18.3353 42.0441 18.6306L43.405 21.6175L44.6507 18.3542C44.7204 18.1723 44.8361 17.8392 44.7114 17.654C44.5978 17.4986 44.368 17.4972 44.1942 17.4972V17.2609H46V17.4972C45.7167 17.5284 45.5443 17.6579 45.385 17.8865C45.3475 17.9488 45.2751 18.1109 45.1759 18.3821L42.9141 24.2689C42.6935 24.8429 42.4054 25.2719 42.0472 25.5644C41.6899 25.8592 41.3455 26 41.0146 26C40.6033 26 40.1883 25.7162 40.1883 25.2795C40.1883 24.9159 40.4623 24.6851 40.8203 24.6851C41.1248 24.6851 41.3904 24.9195 41.6814 24.9195C42.1391 24.9195 42.3888 24.2828 42.5166 23.9505L42.911 22.9224L40.902 18.4813C40.8408 18.3466 40.7425 18.1822 40.6099 17.9829C40.4192 17.7054 40.2401 17.5822 39.9069 17.4972V17.2609Z" fill="#231F20"/>
<path d="M27.9941 28.0977V35.207H27.0664V28.0977H27.9941ZM30.2793 28.0977V28.8691H24.7861V28.0977H30.2793Z" fill="#1C1D1F"/>
<path d="M23.2188 33.4102C23.2188 33.2441 23.1927 33.0977 23.1406 32.9707C23.0918 32.8405 23.0039 32.7233 22.877 32.6191C22.7533 32.515 22.5807 32.4157 22.3594 32.3213C22.1413 32.2269 21.8646 32.1309 21.5293 32.0332C21.1777 31.929 20.8604 31.8135 20.5771 31.6865C20.2939 31.5563 20.0514 31.4082 19.8496 31.2422C19.6478 31.0762 19.4932 30.8857 19.3857 30.6709C19.2783 30.4561 19.2246 30.2103 19.2246 29.9336C19.2246 29.6569 19.2816 29.4014 19.3955 29.167C19.5094 28.9326 19.6722 28.7292 19.8838 28.5566C20.0986 28.3809 20.3542 28.2441 20.6504 28.1465C20.9466 28.0488 21.277 28 21.6416 28C22.1755 28 22.6279 28.1025 22.999 28.3076C23.3734 28.5094 23.6582 28.7747 23.8535 29.1035C24.0488 29.429 24.1465 29.7773 24.1465 30.1484H23.209C23.209 29.8815 23.152 29.6455 23.0381 29.4404C22.9242 29.2321 22.7516 29.0693 22.5205 28.9521C22.2894 28.8317 21.9964 28.7715 21.6416 28.7715C21.3063 28.7715 21.0296 28.8219 20.8115 28.9229C20.5934 29.0238 20.4307 29.1605 20.3232 29.333C20.2191 29.5055 20.167 29.7025 20.167 29.9238C20.167 30.0736 20.1979 30.2103 20.2598 30.334C20.3249 30.4544 20.4242 30.5667 20.5576 30.6709C20.6943 30.7751 20.8669 30.8711 21.0752 30.959C21.2868 31.0469 21.5391 31.1315 21.832 31.2129C22.2357 31.3268 22.584 31.4538 22.877 31.5938C23.1699 31.7337 23.4108 31.8916 23.5996 32.0674C23.7917 32.2399 23.9333 32.4368 24.0244 32.6582C24.1188 32.8763 24.166 33.1237 24.166 33.4004C24.166 33.6901 24.1074 33.9521 23.9902 34.1865C23.873 34.4209 23.7054 34.6211 23.4873 34.7871C23.2692 34.9531 23.0072 35.0817 22.7012 35.1729C22.3984 35.2607 22.0599 35.3047 21.6855 35.3047C21.3568 35.3047 21.0329 35.2591 20.7139 35.168C20.3981 35.0768 20.11 34.9401 19.8496 34.7578C19.5924 34.5755 19.3857 34.3509 19.2295 34.084C19.0765 33.8138 19 33.5013 19 33.1465H19.9375C19.9375 33.3906 19.9847 33.6006 20.0791 33.7764C20.1735 33.9489 20.3021 34.0921 20.4648 34.2061C20.6309 34.32 20.818 34.4046 21.0264 34.46C21.238 34.512 21.4577 34.5381 21.6855 34.5381C22.0143 34.5381 22.2926 34.4925 22.5205 34.4014C22.7484 34.3102 22.9209 34.18 23.0381 34.0107C23.1585 33.8415 23.2188 33.6413 23.2188 33.4102Z" fill="#1C1D1F"/>
</svg>
