<svg width="50" height="50" viewBox="0 0 50 50" fill="none" xmlns="http://www.w3.org/2000/svg">
<path d="M24.9902 8.34746C21.4451 8.34746 17.9026 8.32928 14.3574 8.34746C13.5704 8.34335 12.7903 8.49478 12.0619 8.79305C11.3336 9.09131 10.6714 9.53053 10.1134 10.0855C9.55539 10.6404 9.1126 11.3001 8.81046 12.0266C8.50832 12.7532 8.35278 13.5323 8.35279 14.3191C8.32682 21.4436 8.32682 28.5689 8.35279 35.6951C8.35619 36.484 8.51526 37.2645 8.82088 37.9919C9.1265 38.7193 9.57268 39.3793 10.1338 39.934C10.695 40.4887 11.3601 40.9273 12.0911 41.2246C12.8221 41.522 13.6046 41.6722 14.3938 41.6667C21.4685 41.6667 28.544 41.6667 35.6204 41.6667C36.4134 41.6688 37.199 41.5142 37.9321 41.2119C38.6651 40.9095 39.3312 40.4654 39.8921 39.9049C40.4529 39.3445 40.8975 38.6788 41.2002 37.9461C41.503 37.2134 41.658 36.4281 41.6563 35.6354C41.6701 28.5386 41.6701 21.4505 41.6563 14.371C41.6706 13.4492 41.4555 12.5383 41.0303 11.7201C39.8746 9.54439 38.0566 8.38121 35.5919 8.34486C32.0467 8.32149 28.5224 8.34746 24.9902 8.34746Z" fill="#FDFEFD"/>
<path d="M24.9902 8.34746C28.5224 8.34746 32.0545 8.32144 35.5867 8.34741C38.0514 8.37078 39.8694 9.53395 41.0251 11.7227C41.4517 12.5396 41.6686 13.4496 41.6563 14.371C41.6563 21.4592 41.6563 28.5473 41.6563 35.6354C41.6563 36.4264 41.5003 37.2096 41.1972 37.9402C40.8942 38.6709 40.4501 39.3348 39.8902 39.8937C39.3303 40.4527 38.6658 40.8958 37.9345 41.1978C37.2031 41.4998 36.4195 41.6547 35.6282 41.6537C28.5535 41.6537 21.478 41.6537 14.4016 41.6537C13.6124 41.6592 12.8299 41.5089 12.0989 41.2116C11.3679 40.9143 10.7028 40.4757 10.1416 39.9209C9.58045 39.3662 9.13428 38.7063 8.82866 37.9789C8.52303 37.2515 8.36397 36.471 8.36057 35.682C8.3346 28.5576 8.3346 21.4323 8.36057 14.3061C8.36056 13.5193 8.51609 12.7402 8.81824 12.0136C9.12038 11.2871 9.56317 10.6274 10.1212 10.0724C10.6792 9.5175 11.3414 9.07828 12.0697 8.78002C12.798 8.48175 13.5782 8.33032 14.3652 8.33443C17.9026 8.32923 21.4451 8.34746 24.9902 8.34746ZM13.5185 37.1827H15.2794C16.4949 37.1827 17.2039 36.705 17.6169 35.5496C19.8816 29.1989 22.1411 22.8464 24.3955 16.4922C24.6734 15.7133 24.9565 14.9188 25.2629 14.0568C25.346 14.2308 25.4032 14.3165 25.4395 14.4281C26.4524 17.2789 27.4636 20.1298 28.473 22.9806C30.1144 27.6073 31.7541 32.2341 33.3921 36.8608C33.4093 36.9636 33.4664 37.0554 33.5511 37.1162C33.6358 37.177 33.741 37.2019 33.844 37.1853C34.2829 37.1672 34.7244 37.1853 35.1633 37.1853C35.9165 37.1698 36.4204 36.7414 36.4411 35.9884C36.4561 35.4762 36.3796 34.9653 36.2152 34.4799C34.5478 29.822 32.8544 25.1745 31.1689 20.5244C30.2512 18.0007 29.3353 15.4753 28.4211 12.9482C27.9302 11.6007 27.0238 10.9594 25.598 10.9516C24.8578 10.9516 24.115 10.9516 23.3722 10.9516C23.2751 10.9351 23.1753 10.9563 23.0933 11.0108C23.0112 11.0653 22.9531 11.1491 22.9307 11.245C22.4372 12.6522 21.9178 14.0413 21.3983 15.4459L15.269 32.3223L13.5185 37.1827ZM28.6444 29.6533C28.6464 28.9631 28.4441 28.2878 28.063 27.7124C27.6819 27.137 27.1389 26.6871 26.5026 26.4195C25.8663 26.1519 25.165 26.0785 24.487 26.2085C23.809 26.3385 23.1846 26.6662 22.6925 27.1502C22.2004 27.6342 21.8626 28.253 21.7215 28.9286C21.5804 29.6041 21.6425 30.3063 21.8998 30.9468C22.1571 31.5872 22.5982 32.1371 23.1675 32.5275C23.7369 32.9178 24.409 33.131 25.0993 33.1402C25.5616 33.1467 26.0207 33.0615 26.4498 32.8894C26.879 32.7174 27.2698 32.4619 27.5995 32.1379C27.9292 31.8138 28.1913 31.4276 28.3707 31.0015C28.5501 30.5755 28.6431 30.1181 28.6444 29.6559V29.6533Z" fill="#02B301"/>
<path d="M13.5185 37.1827L15.2743 32.3327L21.4036 15.4563C21.923 14.0516 22.4424 12.6522 22.9307 11.245C22.9531 11.1491 23.0112 11.0653 23.0933 11.0108C23.1753 10.9563 23.2751 10.9351 23.3722 10.9516C24.115 10.9516 24.8578 10.9516 25.598 10.9516C27.0238 10.9516 27.9354 11.6007 28.4211 12.9482C29.337 15.4736 30.253 17.999 31.1689 20.5244C32.8544 25.1745 34.5452 29.822 36.2152 34.4799C36.3796 34.9653 36.4561 35.4762 36.4411 35.9884C36.4204 36.7414 35.9217 37.1698 35.1633 37.1853C34.7244 37.1853 34.2829 37.1724 33.844 37.1853C33.741 37.2019 33.6358 37.177 33.5511 37.1162C33.4664 37.0554 33.4093 36.9636 33.3921 36.8608C31.7576 32.2306 30.1179 27.6039 28.473 22.9806C27.4619 20.1298 26.4507 17.2789 25.4395 14.4281C25.4032 14.3243 25.346 14.2308 25.2629 14.0568C24.9565 14.9188 24.6734 15.7055 24.3955 16.4922C22.1446 22.8464 19.8851 29.1989 17.6169 35.5496C17.2039 36.705 16.4949 37.1801 15.2794 37.1827H13.5185Z" fill="#FBFEFA"/>
<path d="M28.6444 29.6559C28.6352 30.3459 28.4219 31.0179 28.0315 31.587C27.6411 32.1562 27.0909 32.5972 26.4503 32.8544C25.8097 33.1116 25.1073 33.1736 24.4315 33.0326C23.7557 32.8916 23.1368 32.5539 22.6526 32.0619C22.1684 31.57 21.8407 30.9458 21.7106 30.268C21.5805 29.5902 21.654 28.8891 21.9217 28.253C22.1894 27.6168 22.6393 27.0741 23.215 26.6931C23.7906 26.3121 24.4661 26.1098 25.1564 26.1118C25.619 26.1128 26.0768 26.2055 26.5033 26.3847C26.9298 26.5639 27.3164 26.8259 27.6409 27.1555C27.9653 27.4852 28.2211 27.8759 28.3933 28.3051C28.5656 28.7343 28.651 29.1934 28.6444 29.6559Z" fill="#FBFEFA"/>
</svg>
