<svg width="50" height="50" viewBox="0 0 50 50" fill="none" xmlns="http://www.w3.org/2000/svg">
<path d="M32.2409 23.5945C32.2698 22.3663 31.9224 21.2511 31.3049 20.1992C30.3831 18.6296 29.4827 17.0472 28.5765 15.4679C28.2959 14.9784 28.4169 14.4457 28.8533 14.2032C29.2883 13.9607 29.7818 14.1043 30.0572 14.5774C31.0525 16.2914 32.0731 17.9905 33.0209 19.7306C34.2382 21.966 34.253 24.3064 33.4366 26.675C32.8465 28.3875 31.8341 29.8218 30.5003 31.0352C30.3437 31.178 30.1797 31.3082 29.9756 31.3759C26.8538 32.4114 23.8648 32.2068 21.0555 30.3969C19.7462 29.5533 18.8963 28.3184 18.1541 26.9808C17.2701 25.3888 16.3438 23.8214 15.4383 22.242C15.3336 22.0598 15.226 21.8768 15.1451 21.6833C14.9877 21.3084 15.1154 20.8926 15.5066 20.6552C16.3 20.1747 17.1031 19.709 17.9188 19.2671C18.356 19.0305 18.8162 19.186 19.044 19.5833C19.2927 20.017 19.1791 20.4938 18.7323 20.7765C18.304 21.0473 17.8654 21.3039 17.42 21.5465C17.1892 21.6722 17.1706 21.7927 17.3005 22.0151C18.2743 23.6837 19.2155 25.3724 20.2078 27.0299C21.3167 28.8815 23.0402 29.8129 25.1147 30.1484C26.3505 30.3485 27.5782 30.2615 28.7887 29.9297C29.1331 29.8352 29.4137 29.6723 29.672 29.4201C31.0392 28.0855 31.8801 26.4816 32.1748 24.5936C32.226 24.2647 32.2208 23.927 32.2416 23.5937L32.2409 23.5945Z" fill="#00ABC7"/>
<path d="M26.1486 26.5451C24.7955 26.493 23.8084 25.8131 23.1404 24.6778C21.7583 22.33 20.4105 19.9629 19.0507 17.6024C17.1283 14.266 15.2074 10.9272 13.2873 7.58928C13.1581 7.36536 13.003 7.14962 13 6.87437C12.9963 6.50985 13.265 6.15202 13.6243 6.0382C13.9872 5.92364 14.3895 6.06945 14.6107 6.43918C15.1057 7.26865 15.5845 8.10704 16.0669 8.94395C18.4287 13.0422 20.789 17.1419 23.1493 21.2409C23.582 21.9923 24.0125 22.7444 24.4467 23.4943C24.5395 23.655 24.6345 23.8156 24.7451 23.9637C25.2201 24.5968 25.8087 24.9323 26.637 24.7485C27.1885 24.6258 27.6041 24.904 27.714 25.3965C27.8179 25.8607 27.55 26.2676 27.0326 26.4305C26.997 26.4417 26.9606 26.4484 26.925 26.4588C26.6726 26.5347 26.4129 26.5376 26.1486 26.5451Z" fill="#00ABC7"/>
<path d="M26.2755 29.2954C23.6473 29.2612 21.7546 28.0323 20.5084 25.7328C20.0074 24.8074 19.473 23.8998 18.9564 22.9833C18.6662 22.4685 18.7738 21.9515 19.2214 21.6896C19.6704 21.427 20.1514 21.5884 20.4609 22.1255C20.9797 23.0272 21.4934 23.9318 21.9973 24.8408C23.271 27.1366 25.1778 27.9787 27.7281 27.3627C27.8483 27.3337 27.9671 27.2973 28.0888 27.2772C28.5631 27.1991 28.9862 27.4617 29.0923 27.8946C29.2066 28.3611 28.9728 28.8082 28.5074 28.9555C27.7845 29.1846 27.0445 29.3207 26.2748 29.294L26.2755 29.2954Z" fill="#00ABC7"/>
<path d="M27.1091 15.4459C27.1121 15.8119 26.9035 16.0536 26.6163 16.224C25.9037 16.648 25.1882 17.0669 24.4616 17.4656C23.9799 17.7297 23.5293 17.6069 23.251 17.1308C22.3202 15.5374 21.3991 13.9372 20.4847 12.334C20.2138 11.8594 20.3533 11.3736 20.7964 11.1148C21.2247 10.8648 21.6775 10.9779 21.9655 11.4644C22.6921 12.6896 23.4061 13.9223 24.1001 15.1669C24.2708 15.4726 24.4185 15.5121 24.7013 15.3343C25.0888 15.091 25.4858 14.8597 25.8963 14.6588C26.4797 14.3739 27.1158 14.7979 27.1084 15.4459H27.1091Z" fill="#00ABC7"/>
<path d="M13.6768 42.2373C13.7354 42.348 13.7646 42.4684 13.7646 42.5986C13.7646 42.7451 13.7207 42.8753 13.6328 42.9893C13.5449 43.1032 13.4163 43.1927 13.2471 43.2578C13.0811 43.3229 12.8743 43.3555 12.627 43.3555C12.4414 43.3555 12.2542 43.3262 12.0654 43.2676C11.8766 43.2057 11.7171 43.1032 11.5869 42.96C11.4567 42.8135 11.3851 42.6165 11.3721 42.3691H10.4639C10.4639 42.6621 10.5469 42.9404 10.7129 43.2041C10.8789 43.4678 11.123 43.6826 11.4453 43.8486C11.7676 44.0146 12.1615 44.0977 12.627 44.0977C12.9362 44.0977 13.2145 44.0602 13.4619 43.9854C13.7126 43.9072 13.9274 43.7998 14.1064 43.6631C14.2887 43.5231 14.4271 43.3571 14.5215 43.165C14.6191 42.973 14.668 42.7614 14.668 42.5303C14.668 42.2471 14.5996 42.0062 14.4629 41.8076C14.3262 41.609 14.1178 41.4414 13.8379 41.3047C13.5579 41.168 13.2015 41.0508 12.7686 40.9531C12.5212 40.8978 12.3177 40.8424 12.1582 40.7871C11.9987 40.7318 11.875 40.6732 11.7871 40.6113C11.6992 40.5462 11.6374 40.4762 11.6016 40.4014C11.569 40.3232 11.5527 40.2354 11.5527 40.1377C11.5527 40.0075 11.5869 39.8838 11.6553 39.7666C11.7269 39.6494 11.8392 39.5534 11.9922 39.4785C12.1484 39.4004 12.3519 39.3613 12.6025 39.3613C12.8402 39.3613 13.0404 39.4069 13.2031 39.498C13.3691 39.5892 13.4945 39.7048 13.5791 39.8447C13.667 39.9814 13.7109 40.123 13.7109 40.2695H14.6143C14.6143 39.9668 14.5345 39.6917 14.375 39.4443C14.2155 39.1937 13.986 38.9935 13.6865 38.8438C13.387 38.694 13.0257 38.6191 12.6025 38.6191C12.3063 38.6191 12.0378 38.6598 11.7969 38.7412C11.556 38.8226 11.3493 38.9349 11.1768 39.0781C11.0075 39.2214 10.8757 39.3857 10.7812 39.5713C10.6901 39.7568 10.6445 39.9538 10.6445 40.1621C10.6445 40.3802 10.6885 40.5706 10.7764 40.7334C10.8643 40.8962 10.9896 41.0378 11.1523 41.1582C11.3184 41.2786 11.5186 41.3812 11.7529 41.4658C11.9906 41.5505 12.2559 41.6237 12.5488 41.6855C12.8971 41.7539 13.1576 41.8353 13.3301 41.9297C13.5059 42.0208 13.6214 42.1234 13.6768 42.2373Z" fill="#1C1D1F"/>
<path fill-rule="evenodd" clip-rule="evenodd" d="M18.0469 44.0977C17.679 44.0977 17.3454 44.0358 17.0459 43.9121C16.7497 43.7852 16.4941 43.6077 16.2793 43.3799C16.0677 43.152 15.9049 42.8818 15.791 42.5693C15.6771 42.2568 15.6201 41.915 15.6201 41.5439V41.3389C15.6201 40.9092 15.6836 40.5267 15.8105 40.1914C15.9375 39.8529 16.11 39.5664 16.3281 39.332C16.5462 39.0977 16.7936 38.9202 17.0703 38.7998C17.347 38.6794 17.6335 38.6191 17.9297 38.6191C18.3073 38.6191 18.6328 38.6842 18.9062 38.8145C19.1829 38.9447 19.4092 39.127 19.585 39.3613C19.7607 39.5924 19.891 39.8659 19.9756 40.1816C20.0602 40.4941 20.1025 40.8359 20.1025 41.207V41.6123H16.5292C16.5349 41.8376 16.5687 42.0508 16.6309 42.252C16.7025 42.4701 16.805 42.6621 16.9385 42.8281C17.0752 42.9941 17.2396 43.1243 17.4316 43.2188C17.627 43.3132 17.8483 43.3604 18.0957 43.3604C18.4147 43.3604 18.6849 43.2952 18.9062 43.165C19.1276 43.0348 19.3213 42.8607 19.4873 42.6426L20.0342 43.0771C19.9202 43.2497 19.7754 43.4141 19.5996 43.5703C19.4238 43.7266 19.2074 43.8535 18.9502 43.9512C18.6963 44.0488 18.3952 44.0977 18.0469 44.0977ZM16.6309 40.4941C16.5978 40.6123 16.5727 40.7393 16.5556 40.875H19.1992V40.8066C19.1862 40.5723 19.1374 40.3444 19.0527 40.123C18.9714 39.9017 18.8411 39.7194 18.6621 39.5762C18.4831 39.4329 18.2389 39.3613 17.9297 39.3613C17.7246 39.3613 17.5358 39.4053 17.3633 39.4932C17.1908 39.5778 17.0426 39.7048 16.9189 39.874C16.7952 40.0433 16.6992 40.25 16.6309 40.4941Z" fill="#1C1D1F"/>
<path d="M23.8672 43.2236C23.6849 43.3115 23.4863 43.3555 23.2715 43.3555C22.9915 43.3555 22.7572 43.3018 22.5684 43.1943C22.3828 43.0837 22.2347 42.9372 22.124 42.7549C22.0166 42.5726 21.9401 42.3691 21.8945 42.1445C21.849 41.9199 21.8262 41.6921 21.8262 41.4609V41.2559C21.8262 41.0247 21.849 40.7985 21.8945 40.5771C21.9434 40.3525 22.0215 40.1491 22.1289 39.9668C22.2396 39.7812 22.3877 39.6348 22.5732 39.5273C22.762 39.4167 22.9948 39.3613 23.2715 39.3613C23.5124 39.3613 23.7223 39.415 23.9014 39.5225C24.0837 39.6266 24.2269 39.7666 24.3311 39.9424C24.4385 40.1182 24.5003 40.3151 24.5166 40.5332H25.376C25.3597 40.1686 25.262 39.8431 25.083 39.5566C24.9072 39.2669 24.6647 39.0391 24.3555 38.873C24.0462 38.7038 23.6849 38.6191 23.2715 38.6191C22.8743 38.6191 22.5277 38.6891 22.2314 38.8291C21.9385 38.9691 21.6943 39.1611 21.499 39.4053C21.307 39.6494 21.1621 39.931 21.0645 40.25C20.9701 40.5658 20.9229 40.901 20.9229 41.2559V41.4609C20.9229 41.8158 20.9701 42.1527 21.0645 42.4717C21.1621 42.7874 21.307 43.0674 21.499 43.3115C21.6943 43.5557 21.9385 43.7477 22.2314 43.8877C22.5277 44.0277 22.8743 44.0977 23.2715 44.0977C23.6458 44.0977 23.9893 44.0163 24.3018 43.8535C24.6143 43.6875 24.8665 43.471 25.0586 43.2041C25.2539 42.9339 25.3597 42.6426 25.376 42.3301H24.5166C24.5003 42.5286 24.4336 42.7061 24.3164 42.8623C24.1992 43.0153 24.0495 43.1357 23.8672 43.2236Z" fill="#1C1D1F"/>
<path d="M32.8125 40.244V44H31.9092V38.7168H32.7881L32.8059 39.3232L32.8125 39.3125C32.946 39.0944 33.1152 38.9251 33.3203 38.8047C33.5286 38.681 33.776 38.6191 34.0625 38.6191C34.1276 38.6191 34.2025 38.6273 34.2871 38.6436C34.3717 38.6566 34.4303 38.6712 34.4629 38.6875L34.458 39.5273C34.3831 39.5111 34.3115 39.5013 34.2432 39.498C34.1781 39.4915 34.1032 39.4883 34.0186 39.4883C33.8102 39.4883 33.6263 39.5208 33.4668 39.5859C33.3073 39.651 33.1722 39.7422 33.0615 39.8594C32.9589 39.968 32.8759 40.0962 32.8125 40.244Z" fill="#1C1D1F"/>
<path fill-rule="evenodd" clip-rule="evenodd" d="M36.3916 43.9121C36.6911 44.0358 37.0247 44.0977 37.3926 44.0977C37.7409 44.0977 38.042 44.0488 38.2959 43.9512C38.5531 43.8535 38.7695 43.7266 38.9453 43.5703C39.1211 43.4141 39.266 43.2497 39.3799 43.0771L38.833 42.6426C38.667 42.8607 38.4733 43.0348 38.252 43.165C38.0306 43.2952 37.7604 43.3604 37.4414 43.3604C37.194 43.3604 36.9727 43.3132 36.7773 43.2188C36.5853 43.1243 36.4209 42.9941 36.2842 42.8281C36.1507 42.6621 36.0482 42.4701 35.9766 42.252C35.9145 42.0508 35.8806 41.8376 35.8749 41.6123H39.4482V41.207C39.4482 40.8359 39.4059 40.4941 39.3213 40.1816C39.2367 39.8659 39.1064 39.5924 38.9307 39.3613C38.7549 39.127 38.5286 38.9447 38.252 38.8145C37.9785 38.6842 37.653 38.6191 37.2754 38.6191C36.9792 38.6191 36.6927 38.6794 36.416 38.7998C36.1393 38.9202 35.8919 39.0977 35.6738 39.332C35.4557 39.5664 35.2832 39.8529 35.1562 40.1914C35.0293 40.5267 34.9658 40.9092 34.9658 41.3389V41.5439C34.9658 41.915 35.0228 42.2568 35.1367 42.5693C35.2507 42.8818 35.4134 43.152 35.625 43.3799C35.8398 43.6077 36.0954 43.7852 36.3916 43.9121ZM35.9013 40.875C35.9184 40.7393 35.9435 40.6123 35.9766 40.4941C36.0449 40.25 36.141 40.0433 36.2646 39.874C36.3883 39.7048 36.5365 39.5778 36.709 39.4932C36.8815 39.4053 37.0703 39.3613 37.2754 39.3613C37.5846 39.3613 37.8288 39.4329 38.0078 39.5762C38.1868 39.7194 38.3171 39.9017 38.3984 40.123C38.4831 40.3444 38.5319 40.5723 38.5449 40.8066V40.875H35.9013Z" fill="#1C1D1F"/>
<path d="M29.0674 43.917C29.3009 43.8075 29.4948 43.6609 29.6492 43.4773L29.668 44H30.5322V38.7168H29.624V42.5582C29.525 42.7868 29.3704 42.9712 29.1602 43.1113C28.9355 43.2578 28.6312 43.3311 28.2471 43.3311C28.1234 43.3311 28.0029 43.3132 27.8857 43.2773C27.7718 43.2415 27.6676 43.1797 27.5732 43.0918C27.4821 43.0007 27.4089 42.8786 27.3535 42.7256C27.3014 42.5693 27.2754 42.3724 27.2754 42.1348V38.7168H26.3721V42.125C26.3721 42.4766 26.4128 42.7777 26.4941 43.0283C26.5788 43.279 26.6976 43.4824 26.8506 43.6387C27.0036 43.7949 27.1859 43.9105 27.3975 43.9854C27.6123 44.0602 27.8483 44.0977 28.1055 44.0977C28.4831 44.0977 28.8037 44.0374 29.0674 43.917Z" fill="#1C1D1F"/>
</svg>
