<svg width="50" height="50" viewBox="0 0 50 50" fill="none" xmlns="http://www.w3.org/2000/svg">
<path d="M36.7017 31.3616C36.7419 29.661 36.2599 28.117 35.4029 26.6605C34.1236 24.4871 32.8741 22.2962 31.6164 20.1094C31.2271 19.4316 31.395 18.6941 32.0006 18.3583C32.6042 18.0225 33.2892 18.2213 33.6714 18.8764C35.0527 21.2497 36.469 23.6023 37.7843 26.0116C39.4736 29.1068 39.4942 32.3474 38.3611 35.627C37.5423 37.9982 36.1373 39.9841 34.2863 41.6641C34.069 41.8619 33.8413 42.0421 33.5581 42.1359C29.2257 43.5697 25.0778 43.2864 21.1791 40.7803C19.3621 39.6123 18.1827 37.9024 17.1526 36.0504C15.9259 33.8461 14.6404 31.6758 13.3837 29.489C13.2385 29.2366 13.0891 28.9832 12.9769 28.7154C12.7585 28.1963 12.9357 27.6205 13.4785 27.2919C14.5796 26.6265 15.6941 25.9817 16.8261 25.3698C17.4328 25.0423 18.0714 25.2576 18.3877 25.8076C18.7327 26.4081 18.5751 27.0684 17.955 27.4598C17.3607 27.8347 16.752 28.1901 16.1339 28.5259C15.8136 28.7 15.7878 28.8668 15.9681 29.1748C17.3195 31.4852 18.6256 33.8234 20.0028 36.1183C21.5416 38.6821 23.9334 39.9717 26.8123 40.4363C28.5274 40.7134 30.231 40.5929 31.911 40.1335C32.389 40.0026 32.7783 39.7771 33.1368 39.4279C35.0341 37.58 36.2011 35.3592 36.6101 32.745C36.6811 32.2897 36.6739 31.822 36.7028 31.3606L36.7017 31.3616Z" fill="#00ABC7"/>
<path d="M28.2472 35.4471C26.3694 35.375 24.9995 34.4335 24.0724 32.8617C22.1545 29.6109 20.284 26.3333 18.3969 23.0649C15.7291 18.4452 13.0634 13.8223 10.3987 9.20054C10.2195 8.89049 10.0042 8.59178 10.0001 8.21067C9.9949 7.70594 10.3678 7.21049 10.8663 7.0529C11.37 6.89427 11.9283 7.09616 12.2352 7.60809C12.9223 8.75659 13.5866 9.91745 14.2562 11.0762C17.5338 16.7508 20.8093 22.4273 24.0848 28.1029C24.6853 29.1432 25.2827 30.1846 25.8853 31.2229C26.0141 31.4454 26.1459 31.6678 26.2994 31.8728C26.9586 32.7494 27.7754 33.2139 28.9249 32.9595C29.6903 32.7896 30.2671 33.1748 30.4195 33.8567C30.5637 34.4994 30.1919 35.0629 29.474 35.2885C29.4245 35.3039 29.374 35.3132 29.3246 35.3276C28.9744 35.4327 28.6139 35.4368 28.2472 35.4471Z" fill="#00ABC7"/>
<path d="M28.4233 39.2553C24.7759 39.2079 22.1493 37.5063 20.4199 34.3224C19.7246 33.041 18.983 31.7844 18.2661 30.5153C17.8634 29.8026 18.0127 29.0867 18.6338 28.7241C19.257 28.3605 19.9245 28.584 20.354 29.3277C21.074 30.5761 21.7868 31.8286 22.4862 33.0874C24.2537 36.2661 26.8999 37.4321 30.4391 36.5792C30.606 36.539 30.7708 36.4886 30.9397 36.4608C31.5979 36.3526 32.185 36.7162 32.3323 37.3157C32.4909 37.9615 32.1665 38.5806 31.5206 38.7845C30.5174 39.1018 29.4904 39.2903 28.4223 39.2532L28.4233 39.2553Z" fill="#00ABC7"/>
<path d="M29.5801 20.0789C29.5842 20.5857 29.2948 20.9204 28.8961 21.1563C27.9073 21.7435 26.9143 22.3234 25.9059 22.8755C25.2374 23.2411 24.6122 23.0712 24.2259 22.412C22.9343 20.2056 21.656 17.99 20.387 15.7702C20.011 15.1131 20.2047 14.4404 20.8196 14.082C21.4139 13.7359 22.0423 13.8925 22.4419 14.5661C23.4503 16.2626 24.4412 17.9694 25.4043 19.6926C25.6412 20.116 25.8462 20.1706 26.2386 19.9244C26.7763 19.5876 27.3274 19.2672 27.897 18.9891C28.7066 18.5946 29.5894 19.1817 29.5791 20.0789H29.5801Z" fill="#00ABC7"/>
</svg>
