<svg width="50" height="50" viewBox="0 0 50 50" fill="none" xmlns="http://www.w3.org/2000/svg">
<path d="M40.1509 39.7333C34.8774 38.627 29.6977 36.7675 24.6821 34.9551C20.2212 33.326 15.6592 32.013 11.1587 30.5064C9.9165 30.1298 8.83838 28.694 8.83838 27.3994V16.5955C8.83838 15.5128 9.58838 14.736 10.6431 14.736C12.2668 14.736 14.0653 15.4524 15.5415 16.0306C20.4335 17.9497 24.441 21.5364 28.2681 25.0456C32.0759 28.4822 35.9214 31.7046 40.3852 34.249H40.4087C41.0884 34.555 41.8149 35.8966 41.8149 37.356C41.8149 38.6452 41.7257 40.0793 40.1509 39.7333ZM11.0884 41.2162C9.84619 41.2162 8.81494 40.2041 8.81494 38.9566V35.9202C8.81494 34.9786 9.354 34.3431 10.2212 34.3431C14.5935 34.3431 20.2103 37.3392 24.2602 38.7918C26.7681 39.6862 30.0259 40.7925 31.4087 41.2397H11.0884" fill="#77C9D8"/>
<path d="M40.6665 18.9495C40.6196 18.9024 36.6352 15.2541 34.3384 12.0529C33.354 10.6877 32.6274 9.65202 32.6274 9.65202C32.0438 8.84048 32.3663 8.23975 33.354 8.23975H39.5415C40.7837 8.23975 41.8149 9.25188 41.8149 10.4994V18.4552C41.8149 19.389 41.3438 19.5919 40.6665 18.9495ZM40.3852 29.9653C36.0129 27.3609 32.3805 23.7279 28.5962 20.3618C23.8384 16.172 19.7837 13.6064 15.4712 12.0529C13.1509 11.2291 11.229 10.9466 11.1353 10.9466C8.54065 10.5809 8.17249 8.23975 11.0884 8.23975H24.0024C25.4087 8.23975 27.1899 8.89881 27.9399 9.67556C29.829 11.968 31.4345 14.4725 33.2368 16.8311C35.7212 20.0323 39.5884 22.8333 39.7524 22.951C40.8774 23.7513 41.8149 25.6108 41.8149 26.9995V28.8119C41.8149 30.1626 41.4788 30.6029 40.3852 29.9653Z" fill="#389ECC"/>
</svg>
