<svg width="50" height="50" viewBox="0 0 50 50" fill="none" xmlns="http://www.w3.org/2000/svg">
<path d="M17.3507 38.8522C21.6494 38.8522 25.1342 35.3916 25.1342 31.1227C25.1342 26.8538 21.6494 23.3932 17.3507 23.3932C13.052 23.3932 9.56714 26.8538 9.56714 31.1227C9.56714 35.3916 13.052 38.8522 17.3507 38.8522Z" fill="url(#paint0_linear_9176_15249)"/>
<path d="M24.4793 5.00244L15.3659 18.2745C16.307 18.0907 17.2639 17.9983 18.223 17.9986C27.1472 17.9986 31.9113 23.9956 31.9113 31.3919C31.9113 38.7882 24.894 44.5187 17.1494 44.5187C16.3811 44.5194 15.6138 44.4611 14.8546 44.3441C16.6921 44.852 18.5989 45.0683 20.5044 44.9851C31.3745 44.5187 40.5671 35.9456 40.5671 24.7952C40.5671 15.0121 33.6559 6.85485 24.4793 5.00244Z" fill="url(#paint1_linear_9176_15249)"/>
<defs>
<linearGradient id="paint0_linear_9176_15249" x1="30.9972" y1="6.84727" x2="12.7756" y2="40.3558" gradientUnits="userSpaceOnUse">
<stop stop-color="#0060A2"/>
<stop offset="0.19" stop-color="#005198"/>
<stop offset="0.37" stop-color="#003E8C"/>
</linearGradient>
<linearGradient id="paint1_linear_9176_15249" x1="23.7399" y1="20.6839" x2="31.5065" y2="45.0247" gradientUnits="userSpaceOnUse">
<stop offset="0.19" stop-color="#00A2C8"/>
<stop offset="0.3" stop-color="#0093BF"/>
<stop offset="0.51" stop-color="#006CA8"/>
<stop offset="0.73" stop-color="#003E8C"/>
</linearGradient>
</defs>
</svg>
