<svg width="50" height="50" viewBox="0 0 50 50" fill="none" xmlns="http://www.w3.org/2000/svg">
<path d="M24.0436 31.6466H26.017V26.3528H30.9806V24.4706H26.017V19.1768H24.0436V24.4706H19.1398V26.3528H24.0436V31.6466Z" fill="#E8762D"/>
<path d="M14.8939 39.2931H16.5683V34.5875H20.9937V33.1171H16.5683V28.3527H14.8939V33.1171H10.4685V34.5875H14.8939V39.2931Z" fill="#C72037"/>
<path d="M33.4923 22.2943H35.1667V17.5888H39.6519V16.1771H35.1667V11.4127H33.4923V16.1771H29.0669V17.5888H33.4923V22.2943Z" fill="#5B879B"/>
<path d="M24.3426 42.9988H25.7778V39.6461H28.8277V38.4109H25.7778V35.0581H24.3426V38.4109H21.3525V39.6461H24.3426V42.9988Z" fill="#5C6692"/>
<path d="M14.9537 22.2943H16.5085V17.5299H20.9937V16.1771H16.5085V11.4127H14.9537V16.1771H10.4685V17.5299H14.9537V22.2943Z" fill="#EB9129"/>
<path d="M38.5755 29.3526H40.0107V26.0587H43.0606V24.7647H40.0107V21.4708H38.5755V24.7647H35.5854V26.0587H38.5755V29.3526Z" fill="#5C6692"/>
<path fill-rule="evenodd" clip-rule="evenodd" d="M33.4923 39.2931H35.1667V34.5875H39.6519V33.1171H35.1667V28.3527H33.4923V33.1171H29.0669V34.5875H33.4923V39.2931Z" fill="#1F457E"/>
<path d="M28.5885 12.2365V11.2365H25.5984V8.00146H24.522V11.2365H21.5319V12.2365H24.522V15.4715H25.5984V12.2365H28.5885ZM9.9901 29.1177H11.0665V25.8826H14.0566V24.8827H11.0665V21.7064H9.9901V24.8827H7V25.9414L9.9901 25.8826V29.1177Z" fill="#7199A6"/>
</svg>
