<svg width="50" height="50" viewBox="0 0 50 50" fill="none" xmlns="http://www.w3.org/2000/svg">
<rect width="50" height="50" fill="#141414"/>
<path d="M16 28C17.6568 28 19 26.6568 19 25C19 23.3431 17.6568 22 16 22C14.3431 22 13 23.3431 13 25C13 26.6568 14.3431 28 16 28Z" fill="white"/>
<path d="M24.9999 28C26.6568 28 27.9999 26.6568 27.9999 25C27.9999 23.3431 26.6568 22 24.9999 22C23.3431 22 21.9999 23.3431 21.9999 25C21.9999 26.6568 23.3431 28 24.9999 28Z" fill="white"/>
<path d="M16 37C17.6568 37 19 35.6568 19 34C19 32.3431 17.6568 31 16 31C14.3431 31 13 32.3431 13 34C13 35.6568 14.3431 37 16 37Z" fill="#D0D0D0"/>
<path d="M34 37C35.6569 37 37 35.6568 37 34C37 32.3431 35.6569 31 34 31C32.3432 31 31 32.3431 31 34C31 35.6568 32.3432 37 34 37Z" fill="#D0D0D0"/>
<path d="M24.9999 37C26.6568 37 27.9999 35.6568 27.9999 34C27.9999 32.3431 26.6568 31 24.9999 31C23.3431 31 21.9999 32.3431 21.9999 34C21.9999 35.6568 23.3431 37 24.9999 37Z" fill="white"/>
<path d="M34 28C35.6569 28 37 26.6568 37 25C37 23.3431 35.6569 22 34 22C32.3432 22 31 23.3431 31 25C31 26.6568 32.3432 28 34 28Z" fill="white"/>
<path d="M16 19C17.6568 19 19 17.6568 19 16C19 14.3431 17.6568 13 16 13C14.3431 13 13 14.3431 13 16C13 17.6568 14.3431 19 16 19Z" fill="#D0D0D0"/>
<path d="M24.9999 19C26.6568 19 27.9999 17.6568 27.9999 16C27.9999 14.3431 26.6568 13 24.9999 13C23.3431 13 21.9999 14.3431 21.9999 16C21.9999 17.6568 23.3431 19 24.9999 19Z" fill="#D0D0D0"/>
<path d="M34 19C35.6569 19 37 17.6568 37 16C37 14.3431 35.6569 13 34 13C32.3432 13 31 14.3431 31 16C31 17.6568 32.3432 19 34 19Z" fill="#D0D0D0"/>
</svg>
