<svg width="50" height="50" viewBox="0 0 50 50" fill="none" xmlns="http://www.w3.org/2000/svg">
<path d="M26.4819 15.1221C27.8436 15.4045 29.4972 16.2954 30.6648 17.37C32.0407 18.6704 31.8181 18.5578 32.7352 18.2892C33.7914 17.9784 35.7091 18.0772 36.9316 18.5157C38.0435 18.9114 39.6693 19.986 40.3501 20.792C41.5177 22.1635 42.504 24.9908 42.3235 26.419C42.24 27.0979 42.2542 27.1117 43.0742 28.1158C44.4923 29.8396 45.0754 31.437 44.9926 33.4025L44.9512 34.4059L43.77 34.7312C43.375 34.8541 42.9704 34.9439 42.5611 34.9998C42.5658 34.8292 42.6038 34.6607 42.6724 34.5054C42.7898 33.9529 42.8224 33.3852 42.7694 32.823C42.728 31.8051 42.6445 31.466 42.3106 30.8437C41.7757 29.9639 41.0656 29.2077 40.2259 28.6241C39.837 28.3272 39.837 28.3134 39.9897 27.6766C40.6848 24.8493 39.1975 21.7243 36.6961 20.7629C35.2122 20.1497 33.5477 20.1752 32.0821 20.8334C31.7427 20.9784 31.3945 21.1013 31.0402 21.2008C30.9709 21.2008 30.7483 20.9321 30.5399 20.5931C29.9839 19.7022 28.5251 18.3306 27.6495 17.8783C25.63 16.8065 23.2154 16.8438 21.2292 17.977C20.1872 18.5426 18.6999 20.14 18.2553 21.158C17.9777 21.7802 17.8663 21.9073 17.6715 21.8368C16.6845 21.3983 16.2677 21.3279 15.5597 21.3983C14.4695 21.5357 13.4588 22.0496 12.6972 22.8541C11.7801 23.8154 11.4882 24.5364 11.4183 26.0779L11.3626 27.3645L10.4733 27.8313C9.30306 28.5081 8.3439 29.5081 7.70785 30.7153C7.44378 31.2664 7.30463 31.8748 7.20756 32.8783C7.17226 33.3728 7.10234 33.8645 6.99916 34.3486C6.90209 34.4335 5.13717 34.5889 5.05367 34.504C4.9566 34.3907 4.99801 33.0475 5.13716 32.044C5.48472 29.6545 6.13774 28.5661 8.63918 26.2761C9.08381 25.8658 9.19513 25.6538 9.3757 24.7636C9.68185 23.265 10.1957 22.2471 11.1685 21.2574C12.3951 19.9888 14.0609 19.2581 15.8102 19.2215C16.7273 19.2215 16.8943 19.1228 17.5052 18.3023C18.4501 17.0019 20.9937 15.4321 22.633 15.1214C23.9112 14.9591 25.2037 14.9598 26.4819 15.1221Z" fill="#2169B2"/>
<path d="M20.2421 28.0013C20.0595 28.118 19.9258 28.2989 19.8667 28.5102C19.8667 28.9205 21.5482 30.5178 22.4931 30.9985C23.3545 31.4225 23.4801 31.4508 25.0081 31.4508C26.5361 31.4508 26.6617 31.4225 27.5096 30.9985C28.4545 30.5392 29.2568 29.8252 29.8304 28.9343C30.1502 28.4115 30.1637 28.3687 29.9275 28.1145C29.6913 27.8604 29.7055 27.8459 30.3165 27.8459C31.0489 27.8673 31.7264 28.2464 32.1371 28.8638C32.4568 29.3024 32.3733 29.5427 32.0121 29.2457C31.8038 29.0758 31.7345 29.1187 31.3449 29.6131C31.1086 29.9246 30.5391 30.5607 30.0802 31.0268C27.8143 33.4066 24.2417 33.8977 21.4369 32.2147C20.3358 31.4529 19.3522 30.5282 18.5186 29.4716C18.2824 29.1325 18.1989 29.0758 18.0462 29.2174C17.9674 29.3044 17.8663 29.368 17.7543 29.4011C17.3232 29.4011 18.338 28.1712 18.9911 27.9025C19.3244 27.7761 19.6774 27.7091 20.0337 27.7043L20.6311 27.7188L20.2421 28.0013Z" fill="#EF7A20"/>
</svg>
