<svg width="50" height="50" viewBox="0 0 50 50" fill="none" xmlns="http://www.w3.org/2000/svg">
<path d="M32.373 24.0575V34.9274C34.3641 33.7835 36.0763 32.2158 37.387 30.3366C38.6977 28.4574 39.5744 26.3132 39.9544 24.0575H32.373Z" fill="#EC3430"/>
<path d="M26.6839 24.0575H18.5727V19.2436H40C39.4556 15.5635 37.5988 12.2009 34.7685 9.76951C31.9382 7.33814 28.3233 6.00023 24.5835 6C20.4505 6 16.4868 7.63303 13.5643 10.5398C10.6418 13.4467 9 17.3891 9 21.5C9 25.6109 10.6418 29.5533 13.5643 32.4602C16.4868 35.367 20.4505 37 24.5835 37C25.286 36.9998 25.9877 36.9528 26.6839 36.8594V24.0575Z" fill="#EC3430"/>
<path d="M36.2715 46V38.5H35.3633V46H36.2715Z" fill="black"/>
<path d="M39.0264 45.943L37.1406 40.7168H38.127L39.4492 44.6695L40.6758 40.7168H41.6426L39.5234 46.8154C39.4746 46.9456 39.4095 47.0856 39.3281 47.2354C39.25 47.3883 39.1491 47.5332 39.0254 47.6699C38.9017 47.8066 38.752 47.9173 38.5762 48.002C38.4036 48.0898 38.1969 48.1338 37.9561 48.1338C37.8844 48.1338 37.7933 48.124 37.6826 48.1045C37.5719 48.085 37.4938 48.0687 37.4482 48.0557L37.4434 47.3232C37.4694 47.3265 37.5101 47.3298 37.5654 47.333C37.624 47.3395 37.6647 47.3428 37.6875 47.3428C37.8926 47.3428 38.0667 47.3151 38.21 47.2598C38.3532 47.2077 38.4736 47.1182 38.5713 46.9912C38.6722 46.8675 38.7585 46.6966 38.8301 46.4785L39.0264 45.943Z" fill="black"/>
<path fill-rule="evenodd" clip-rule="evenodd" d="M31.1934 40.7949C30.9398 40.9087 30.7235 41.0761 30.5446 41.297L30.5 40.7168H29.6699V48.0312H30.5781V45.4875C30.7505 45.6799 30.9572 45.8279 31.1982 45.9316C31.4554 46.0423 31.7516 46.0977 32.0869 46.0977C32.4157 46.0977 32.707 46.0309 32.9609 45.8975C33.2148 45.764 33.4281 45.5768 33.6006 45.3359C33.7764 45.0951 33.9098 44.8118 34.001 44.4863C34.0921 44.1576 34.1377 43.8011 34.1377 43.417V43.3145C34.1377 42.9108 34.0921 42.5446 34.001 42.2158C33.9131 41.8838 33.7812 41.599 33.6055 41.3613C33.4297 41.1237 33.2132 40.9414 32.9561 40.8145C32.6989 40.6842 32.4043 40.6191 32.0723 40.6191C31.7402 40.6191 31.4473 40.6777 31.1934 40.7949ZM30.6123 44.6914C30.6007 44.6713 30.5893 44.6511 30.5781 44.6308V42.1086C30.6383 42.0018 30.7083 41.9041 30.7881 41.8154C30.9053 41.682 31.0469 41.5762 31.2129 41.498C31.3822 41.4199 31.5807 41.3809 31.8086 41.3809C32.056 41.3809 32.2692 41.4329 32.4482 41.5371C32.6273 41.638 32.7738 41.778 32.8877 41.957C33.0049 42.1328 33.0911 42.3379 33.1465 42.5723C33.2018 42.8034 33.2295 43.0508 33.2295 43.3145V43.417C33.2295 43.6807 33.2018 43.9297 33.1465 44.1641C33.0911 44.3952 33.0049 44.6003 32.8877 44.7793C32.7738 44.9583 32.6273 45.0999 32.4482 45.2041C32.2725 45.305 32.0625 45.3555 31.8184 45.3555C31.5221 45.3555 31.2764 45.2952 31.0811 45.1748C30.8857 45.0511 30.7295 44.89 30.6123 44.6914Z" fill="black"/>
<path d="M21.8037 42.1292V46H20.8955V40.7168H21.7549L21.7816 41.2919C21.9542 41.0858 22.165 40.925 22.4141 40.8096C22.681 40.6826 22.9902 40.6191 23.3418 40.6191C23.5892 40.6191 23.8171 40.6549 24.0254 40.7266C24.2337 40.7949 24.4144 40.904 24.5674 41.0537C24.6827 41.1665 24.7785 41.3034 24.855 41.4642C24.8948 41.4068 24.9373 41.3514 24.9824 41.2979C25.1615 41.0895 25.3812 40.9251 25.6416 40.8047C25.902 40.681 26.1999 40.6191 26.5352 40.6191C26.8184 40.6191 27.069 40.6566 27.2871 40.7314C27.5085 40.8063 27.694 40.9219 27.8438 41.0781C27.9967 41.2311 28.1123 41.4281 28.1904 41.6689C28.2686 41.9098 28.3076 42.1963 28.3076 42.5283V46H27.3994V42.5186C27.3994 42.2223 27.3522 41.9928 27.2578 41.8301C27.1667 41.6641 27.0365 41.5485 26.8672 41.4834C26.7012 41.415 26.5026 41.3809 26.2715 41.3809C26.0729 41.3809 25.8971 41.415 25.7441 41.4834C25.5911 41.5518 25.4626 41.6462 25.3584 41.7666C25.2542 41.8838 25.1745 42.0189 25.1191 42.1719C25.0855 42.2708 25.0627 42.3738 25.0508 42.4808V46H24.1475V42.5234C24.1475 42.2467 24.1003 42.0254 24.0059 41.8594C23.9147 41.6934 23.7845 41.5729 23.6152 41.498C23.446 41.4199 23.2474 41.3809 23.0195 41.3809C22.7526 41.3809 22.5296 41.4281 22.3506 41.5225C22.1715 41.6169 22.0283 41.7471 21.9209 41.9131C21.8769 41.981 21.8379 42.0531 21.8037 42.1292Z" fill="black"/>
<path fill-rule="evenodd" clip-rule="evenodd" d="M14.9629 43.417V43.3047C14.9629 42.9238 15.0182 42.5706 15.1289 42.2451C15.2396 41.9163 15.3991 41.6315 15.6074 41.3906C15.8158 41.1465 16.068 40.9577 16.3643 40.8242C16.6605 40.6875 16.9925 40.6191 17.3604 40.6191C17.7314 40.6191 18.0651 40.6875 18.3613 40.8242C18.6608 40.9577 18.9147 41.1465 19.123 41.3906C19.3346 41.6315 19.4958 41.9163 19.6064 42.2451C19.7171 42.5706 19.7725 42.9238 19.7725 43.3047V43.417C19.7725 43.7979 19.7171 44.151 19.6064 44.4766C19.4958 44.8021 19.3346 45.0869 19.123 45.3311C18.9147 45.5719 18.6624 45.7607 18.3662 45.8975C18.0732 46.0309 17.7412 46.0977 17.3701 46.0977C16.999 46.0977 16.6654 46.0309 16.3691 45.8975C16.0729 45.7607 15.819 45.5719 15.6074 45.3311C15.3991 45.0869 15.2396 44.8021 15.1289 44.4766C15.0182 44.151 14.9629 43.7979 14.9629 43.417ZM15.8662 43.3047V43.417C15.8662 43.6807 15.8971 43.9297 15.959 44.1641C16.0208 44.3952 16.1136 44.6003 16.2373 44.7793C16.3643 44.9583 16.5221 45.0999 16.7109 45.2041C16.8997 45.305 17.1195 45.3555 17.3701 45.3555C17.6175 45.3555 17.834 45.305 18.0195 45.2041C18.2083 45.0999 18.3646 44.9583 18.4883 44.7793C18.612 44.6003 18.7048 44.3952 18.7666 44.1641C18.8317 43.9297 18.8643 43.6807 18.8643 43.417V43.3047C18.8643 43.0443 18.8317 42.7985 18.7666 42.5674C18.7048 42.333 18.6104 42.1263 18.4834 41.9473C18.3597 41.765 18.2035 41.6217 18.0146 41.5176C17.8291 41.4134 17.611 41.3613 17.3604 41.3613C17.113 41.3613 16.8949 41.4134 16.7061 41.5176C16.5205 41.6217 16.3643 41.765 16.2373 41.9473C16.1136 42.1263 16.0208 42.333 15.959 42.5674C15.8971 42.7985 15.8662 43.0443 15.8662 43.3047Z" fill="black"/>
<path d="M14.0547 43.7393H13.1172C13.0651 44.0713 12.9772 44.3561 12.8535 44.5938C12.7331 44.8314 12.554 45.0137 12.3164 45.1406C12.0788 45.2676 11.7598 45.3311 11.3594 45.3311C11.0436 45.3311 10.7702 45.266 10.5391 45.1357C10.3079 45.0023 10.1175 44.82 9.96777 44.5889C9.81803 44.3577 9.70573 44.0892 9.63086 43.7832C9.55924 43.4772 9.52344 43.1501 9.52344 42.8018V42.084C9.52344 41.7064 9.56413 41.363 9.64551 41.0537C9.72689 40.7445 9.84733 40.4792 10.0068 40.2578C10.1696 40.0365 10.3698 39.8656 10.6074 39.7451C10.8483 39.6247 11.1266 39.5645 11.4424 39.5645C11.8102 39.5645 12.1081 39.6296 12.3359 39.7598C12.5638 39.89 12.7396 40.0755 12.8633 40.3164C12.987 40.554 13.0716 40.8389 13.1172 41.1709H14.0547C14.0059 40.7021 13.8773 40.2904 13.6689 39.9355C13.4639 39.5775 13.1758 39.2975 12.8047 39.0957C12.4336 38.8939 11.9795 38.793 11.4424 38.793C11.0029 38.793 10.6074 38.8711 10.2559 39.0273C9.9043 39.1836 9.60319 39.4066 9.35254 39.6963C9.10514 39.986 8.91471 40.3343 8.78125 40.7412C8.65104 41.1449 8.58594 41.5957 8.58594 42.0938V42.8018C8.58594 43.2998 8.65104 43.7523 8.78125 44.1592C8.91471 44.5628 9.10352 44.9095 9.34766 45.1992C9.5918 45.4857 9.88314 45.707 10.2217 45.8633C10.5635 46.0195 10.9427 46.0977 11.3594 46.0977C11.929 46.0977 12.4043 45.9951 12.7852 45.79C13.166 45.5817 13.4606 45.3001 13.6689 44.9453C13.8773 44.5905 14.0059 44.1885 14.0547 43.7393Z" fill="black"/>
</svg>
