<svg width="50" height="50" viewBox="0 0 50 50" fill="none" xmlns="http://www.w3.org/2000/svg">
<path d="M32.373 24.0575V34.9274C34.3641 33.7835 36.0763 32.2158 37.387 30.3366C38.6977 28.4574 39.5744 26.3132 39.9544 24.0575H32.373Z" fill="#EC3430"/>
<path d="M26.6839 24.0575H18.5727V19.2436H40C39.4556 15.5635 37.5988 12.2009 34.7685 9.76951C31.9382 7.33814 28.3233 6.00023 24.5835 6C20.4505 6 16.4868 7.63303 13.5643 10.5398C10.6418 13.4467 9 17.3891 9 21.5C9 25.6109 10.6418 29.5533 13.5643 32.4602C16.4868 35.367 20.4505 37 24.5835 37C25.286 36.9998 25.9877 36.9528 26.6839 36.8594V24.0575Z" fill="#EC3430"/>
<path d="M23.6768 44.2373C23.7354 44.348 23.7646 44.4684 23.7646 44.5986C23.7646 44.7451 23.7207 44.8753 23.6328 44.9893C23.5449 45.1032 23.4163 45.1927 23.2471 45.2578C23.0811 45.3229 22.8743 45.3555 22.627 45.3555C22.4414 45.3555 22.2542 45.3262 22.0654 45.2676C21.8766 45.2057 21.7171 45.1032 21.5869 44.96C21.4567 44.8135 21.3851 44.6165 21.3721 44.3691H20.4639C20.4639 44.6621 20.5469 44.9404 20.7129 45.2041C20.8789 45.4678 21.123 45.6826 21.4453 45.8486C21.7676 46.0146 22.1615 46.0977 22.627 46.0977C22.9362 46.0977 23.2145 46.0602 23.4619 45.9854C23.7126 45.9072 23.9274 45.7998 24.1064 45.6631C24.2887 45.5231 24.4271 45.3571 24.5215 45.165C24.6191 44.973 24.668 44.7614 24.668 44.5303C24.668 44.2471 24.5996 44.0062 24.4629 43.8076C24.3262 43.609 24.1178 43.4414 23.8379 43.3047C23.5579 43.168 23.2015 43.0508 22.7686 42.9531C22.5212 42.8978 22.3177 42.8424 22.1582 42.7871C21.9987 42.7318 21.875 42.6732 21.7871 42.6113C21.6992 42.5462 21.6374 42.4762 21.6016 42.4014C21.569 42.3232 21.5527 42.2354 21.5527 42.1377C21.5527 42.0075 21.5869 41.8838 21.6553 41.7666C21.7269 41.6494 21.8392 41.5534 21.9922 41.4785C22.1484 41.4004 22.3519 41.3613 22.6025 41.3613C22.8402 41.3613 23.0404 41.4069 23.2031 41.498C23.3691 41.5892 23.4945 41.7048 23.5791 41.8447C23.667 41.9814 23.7109 42.123 23.7109 42.2695H24.6143C24.6143 41.9668 24.5345 41.6917 24.375 41.4443C24.2155 41.1937 23.986 40.9935 23.6865 40.8438C23.387 40.694 23.0257 40.6191 22.6025 40.6191C22.3063 40.6191 22.0378 40.6598 21.7969 40.7412C21.556 40.8226 21.3493 40.9349 21.1768 41.0781C21.0075 41.2214 20.8757 41.3857 20.7812 41.5713C20.6901 41.7568 20.6445 41.9538 20.6445 42.1621C20.6445 42.3802 20.6885 42.5706 20.7764 42.7334C20.8643 42.8962 20.9896 43.0378 21.1523 43.1582C21.3184 43.2786 21.5186 43.3812 21.7529 43.4658C21.9906 43.5505 22.2559 43.6237 22.5488 43.6855C22.8971 43.7539 23.1576 43.8353 23.3301 43.9297C23.5059 44.0208 23.6214 44.1234 23.6768 44.2373Z" fill="black"/>
<path fill-rule="evenodd" clip-rule="evenodd" d="M28.9797 45.5145V48.0312H29.8879V40.7168H29.0578L29.0165 41.2534C28.8478 41.0539 28.645 40.9011 28.4084 40.7949C28.1577 40.6777 27.8664 40.6191 27.5344 40.6191C27.2023 40.6191 26.9061 40.6842 26.6457 40.8145C26.3885 40.9414 26.1688 41.1237 25.9865 41.3613C25.8042 41.599 25.6659 41.8838 25.5715 42.2158C25.4771 42.5446 25.4299 42.9108 25.4299 43.3145V43.417C25.4299 43.8011 25.4771 44.1576 25.5715 44.4863C25.6691 44.8118 25.8075 45.0951 25.9865 45.3359C26.1688 45.5768 26.3885 45.764 26.6457 45.8975C26.9061 46.0309 27.1991 46.0977 27.5246 46.0977C27.8599 46.0977 28.1545 46.0407 28.4084 45.9268C28.6287 45.8264 28.8191 45.689 28.9797 45.5145ZM28.9797 42.0543V44.6475C28.8592 44.859 28.6981 45.0299 28.4963 45.1602C28.2977 45.2904 28.0487 45.3555 27.7492 45.3555C27.5051 45.3555 27.2935 45.305 27.1145 45.2041C26.9387 45.0999 26.7922 44.9583 26.675 44.7793C26.5611 44.6003 26.4764 44.3952 26.4211 44.1641C26.3658 43.9297 26.3381 43.6807 26.3381 43.417V43.3145C26.3381 43.0508 26.3658 42.8018 26.4211 42.5674C26.4764 42.333 26.5611 42.1263 26.675 41.9473C26.7922 41.765 26.9403 41.6217 27.1193 41.5176C27.2984 41.4134 27.5116 41.3613 27.759 41.3613C27.9868 41.3613 28.1854 41.402 28.3547 41.4834C28.5272 41.5615 28.6737 41.6689 28.7941 41.8057C28.8636 41.8826 28.9254 41.9655 28.9797 42.0543Z" fill="black"/>
</svg>
