<svg width="50" height="50" viewBox="0 0 50 50" fill="none" xmlns="http://www.w3.org/2000/svg">
<rect width="50" height="50" fill="#EC3430"/>
<path d="M32.1111 22.7275V32.1949C33.9095 31.1985 35.4561 29.8331 36.6399 28.1964C37.8237 26.5597 38.6156 24.6921 38.9588 22.7275H32.1111Z" fill="white"/>
<path d="M26.9726 22.7275H19.6463V18.5348H39C38.5083 15.3295 36.8312 12.4008 34.2748 10.2831C31.7184 8.16548 28.4533 7.0002 25.0754 7C21.3424 7 17.7622 8.42232 15.1226 10.9541C12.4829 13.4858 11 16.9196 11 20.5C11 24.0804 12.4829 27.5142 15.1226 30.0459C17.7622 32.5777 21.3424 34 25.0754 34C25.7099 33.9998 26.3437 33.9589 26.9726 33.8775V22.7275Z" fill="white"/>
<path d="M12.1718 42.9198H10.9452L10.9532 42.2901H12.1718C13.0129 42.2901 13.5711 41.9211 13.8503 41.2914C14.0603 40.8227 14.0641 40.3218 14.0641 39.8195C14.0641 39.1479 13.8986 38.624 13.588 38.2674C12.9455 37.5186 11.804 37.7139 10.921 37.7139V37.0802H12.2444C13.0126 37.0802 13.6586 37.3402 14.1166 37.8222C14.5776 38.2965 14.8348 38.9797 14.8348 39.8275C14.8348 40.3343 14.8254 40.8361 14.6492 41.3195C14.2806 42.3231 13.4089 42.9198 12.1718 42.9198ZM11.3608 37.0802V42.9198H10.582V37.0802H11.3608Z" fill="white"/>
<path d="M16.7029 38.5802V42.9198H15.9525V38.5802H16.7029ZM15.896 37.4291C15.896 37.1866 16.0476 37 16.3358 37C16.6232 37 16.7796 37.1904 16.7796 37.4291C16.7796 37.6553 16.6258 37.8463 16.3358 37.8463C16.045 37.8463 15.896 37.6589 15.896 37.4291Z" fill="white"/>
<path d="M20.4433 41.7687C20.4433 41.2472 19.8615 41.1012 19.4386 41.0187C18.4852 40.8186 17.865 40.4908 17.865 39.7674C17.865 38.9384 18.7391 38.5 19.483 38.5C20.5288 38.5 21.1454 39.105 21.1454 39.8556H20.3989C20.3989 39.3763 19.9111 39.1096 19.483 39.1096C18.8744 39.1096 18.6155 39.4211 18.6155 39.7473C18.6155 40.0608 18.7911 40.2328 19.6202 40.4171C20.6934 40.6578 21.1897 41.0147 21.1897 41.7126C21.1897 42.4577 20.5497 43 19.5032 43C18.6645 43 17.7157 42.5123 17.7157 41.5802H18.4662C18.4952 42.1277 18.9888 42.3904 19.5032 42.3904C20.1234 42.3904 20.4433 42.1277 20.4433 41.7687Z" fill="white"/>
<path d="M23.9173 42.3904C24.4523 42.3904 24.9062 42.0331 24.9462 41.5481H25.6564C25.6109 42.4155 24.7337 43 23.9173 43C22.5955 43 21.9765 41.836 21.9765 40.6658C21.9765 39.4827 22.6216 38.5 23.9173 38.5C24.9381 38.5 25.6159 39.1706 25.6564 40.0722H24.9462C24.9062 39.5387 24.5183 39.1096 23.9173 39.1096C23.044 39.1096 22.723 39.9228 22.723 40.6658C22.723 41.4684 22.9717 42.3904 23.9173 42.3904Z" fill="white"/>
<path d="M26.2979 40.7059C26.2979 39.5625 27.0375 38.5 28.279 38.5C29.5414 38.5 30.2723 39.6093 30.2723 40.7981C30.2723 41.9571 29.5227 43 28.2871 43C27.0264 43 26.2979 41.8944 26.2979 40.7059ZM27.0444 40.7059C27.0444 41.482 27.3605 42.3904 28.2871 42.3904C29.1211 42.3904 29.5218 41.6494 29.5218 40.7981C29.5218 40.0257 29.1721 39.1096 28.279 39.1096C27.4142 39.1096 27.0444 39.9624 27.0444 40.7059Z" fill="white"/>
<path d="M32.4713 42.25L33.6656 38.5802H34.4282L32.8586 42.9198H32.3583L32.4713 42.25ZM31.4747 38.5802L32.7053 42.2701L32.79 42.9198H32.2897L30.708 38.5802H31.4747Z" fill="white"/>
<path d="M36.9016 43C35.6332 43 34.8962 41.9454 34.8962 40.734C34.8962 39.3132 35.8277 38.5 36.8047 38.5C38.1809 38.5 38.6003 39.7588 38.6003 40.9586H35.3401V40.3529H37.8538C37.8538 39.7366 37.4843 39.1096 36.8047 39.1096C35.8698 39.1096 35.6467 40.1479 35.6467 40.9024C35.6467 41.6558 36.1095 42.3944 36.9419 42.3944C37.4691 42.3944 37.8175 42.1631 38.0919 41.8048L38.5438 42.1618C38.2624 42.5853 37.7715 43 36.9016 43Z" fill="white"/>
<path d="M40.2182 39.262V42.9198H39.4718V38.5802H40.1981L40.2182 39.262ZM41.582 38.5561L41.578 39.246C41.457 39.2198 41.3579 39.2139 41.2149 39.2139C40.5304 39.2139 40.171 39.6541 40.1053 40.2968L39.8955 40.4171C39.8955 40.1551 39.921 39.9091 39.9721 39.6791C40.12 39.0468 40.5441 38.5 41.2512 38.5C41.3584 38.5 41.5281 38.5293 41.582 38.5561Z" fill="white"/>
</svg>
