<svg width="50" height="50" viewBox="0 0 50 50" fill="none" xmlns="http://www.w3.org/2000/svg">
<path d="M24.8344 12.9615C21.1307 12.9615 19.0937 15.835 19.0937 15.835H16.6667V12.4437H40V15.835H30.5752C30.5752 15.835 28.5381 12.9615 24.8344 12.9615Z" fill="#EC3430"/>
<path d="M17.6122 19.7441C17.5599 20.4234 17.7974 21.4872 17.7974 21.4872H16.6667V18.0959H17.9363C17.9363 18.0959 17.6627 19.0897 17.6122 19.7441Z" fill="#EC3430"/>
<path d="M32.0567 19.9325C32.0567 18.9905 31.6863 18.0959 31.6863 18.0959H40V21.4872H31.9628C31.9628 21.4872 32.0567 20.8745 32.0567 19.9325Z" fill="#EC3430"/>
<path d="M19.8344 25.5847C20.7604 26.5267 22.1697 27.1393 22.1697 27.1393H16.6667V23.748H18.4378C18.4378 23.748 18.9085 24.6426 19.8344 25.5847Z" fill="#EC3430"/>
<path d="M27.5273 27.1393C27.5273 27.1393 28.7233 26.7151 29.8344 25.5847C30.9456 24.4542 31.1307 23.748 31.1307 23.748H40V27.1393H27.5273Z" fill="#EC3430"/>
<path d="M40 6.7915V10.1828H16.6667V6.7915H40Z" fill="#EC3430"/>
<path d="M40 29.4002V32.7915H16.6667V29.4002H40Z" fill="#EC3430"/>
<path d="M14.8148 15.835V12.4437H10V15.835H14.8148Z" fill="#EC3430"/>
<path d="M14.8148 18.0959V21.4872H10V18.0959H14.8148Z" fill="#EC3430"/>
<path d="M14.8148 27.1393V23.748H10V27.1393H14.8148Z" fill="#EC3430"/>
<path d="M14.8148 29.4002V32.7915H10V29.4002H14.8148Z" fill="#EC3430"/>
<path d="M14.8148 10.1828V6.7915H10V10.1828H14.8148Z" fill="#EC3430"/>
<path d="M24.8345 25.7732C27.8005 25.7732 30.2049 23.327 30.2049 20.3095C30.2049 17.2919 27.8005 14.8457 24.8345 14.8457C21.8686 14.8457 19.4642 17.2919 19.4642 20.3095C19.4642 23.327 21.8686 25.7732 24.8345 25.7732Z" fill="#EC3430"/>
<path d="M16.3154 37.6299L13.9619 44.1094H13L15.71 37H16.3301L16.3154 37.6299ZM18.2881 44.1094L15.9297 37.6299L15.915 37H16.5352L19.2549 44.1094H18.2881ZM18.166 41.4775V42.249H14.1719V41.4775H18.166Z" fill="#1C1D1F"/>
<path d="M23.1465 42.708C23.1465 42.3153 22.9764 42.0002 21.9307 41.7949C20.7769 41.5513 20.0264 41.1523 20.0264 40.2715C20.0264 39.429 20.8081 38.7285 21.9844 38.7285C23.25 38.7285 23.9961 39.4651 23.9961 40.3789H23.0928C23.0928 39.7953 22.5025 39.4707 21.9844 39.4707C21.2479 39.4707 20.9346 39.8499 20.9346 40.2471C20.9346 40.6287 21.147 40.8381 22.1504 41.0625C23.4492 41.3555 24.0498 41.79 24.0498 42.6396C24.0498 43.5468 23.2753 44.207 22.0088 44.207C20.9974 44.207 19.8457 43.6334 19.8457 42.4785H20.7539C20.7896 43.1571 21.3984 43.4648 22.0088 43.4648C22.7594 43.4648 23.1465 43.145 23.1465 42.708Z" fill="#1C1D1F"/>
<path d="M28.3125 42.708C28.3125 42.3153 28.1424 42.0002 27.0967 41.7949C25.9429 41.5513 25.1924 41.1523 25.1924 40.2715C25.1924 39.429 25.9741 38.7285 27.1504 38.7285C28.1231 38.7285 29.1621 39.283 29.1621 40.3789H28.2588C28.2588 39.7953 27.6685 39.4707 27.1504 39.4707C26.4139 39.4707 26.1006 39.8499 26.1006 40.2471C26.1006 40.6287 26.3131 40.8381 27.3164 41.0625C28.6152 41.3555 29.2158 41.79 29.2158 42.6396C29.2158 43.7308 28.1168 44.207 27.1748 44.207C26.1599 44.207 25.0117 43.6133 25.0117 42.4785H25.9199C25.955 43.1451 26.5524 43.4648 27.1748 43.4648C27.9254 43.4648 28.3125 43.145 28.3125 42.708Z" fill="#1C1D1F"/>
<path d="M32.5947 44.207C31.1345 44.207 30.168 43.145 30.168 41.6533C30.168 40.2652 30.9311 38.7285 32.4775 38.7285C34.2336 38.7285 34.6504 40.266 34.6504 41.7217H30.7051V40.9844H33.7471C33.7471 40.1987 33.3125 39.4707 32.4775 39.4707C31.3462 39.4707 31.0762 40.7347 31.0762 41.6533C31.0762 42.5706 31.6362 43.4697 32.6436 43.4697C33.2816 43.4697 33.7031 43.1882 34.0352 42.752L34.582 43.1865C34.2415 43.7022 33.6474 44.207 32.5947 44.207Z" fill="#1C1D1F"/>
<path d="M37.917 38.8262V39.5195H35.0605V38.8262H37.917ZM36.0273 37.542H36.9307V42.8008C36.9307 43.4059 37.462 43.4816 37.9365 43.3721L37.9414 44.1094C37.5288 44.2407 37.0312 44.2639 36.6328 44.0752C36.2606 43.8989 36.0273 43.497 36.0273 42.7959V37.542Z" fill="#1C1D1F"/>
</svg>
