<svg width="50" height="50" viewBox="0 0 50 50" fill="none" xmlns="http://www.w3.org/2000/svg">
<path d="M34.1409 27.97V40.5932C36.453 39.2647 38.4412 37.4441 39.9632 35.2618C41.4852 33.0795 42.5032 30.5895 42.9444 27.97H34.1409Z" fill="#EC3430"/>
<path d="M27.5347 27.97H18.1159V22.3797H42.9974C42.3653 18.106 40.2091 14.201 36.9226 11.3775C33.636 8.55397 29.4383 7.00027 25.0956 7C20.2964 7 15.6937 8.89642 12.3001 12.2721C8.9065 15.6477 7 20.2261 7 25C7 29.7739 8.9065 34.3523 12.3001 37.7279C15.6937 41.1036 20.2964 43 25.0956 43C25.9114 42.9997 26.7262 42.9452 27.5347 42.8367V27.97Z" fill="#EC3430"/>
</svg>
