<svg width="50" height="50" viewBox="0 0 50 50" fill="none" xmlns="http://www.w3.org/2000/svg">
<path d="M32.3713 24.0575V34.9274C34.3624 33.7835 36.0746 32.2158 37.3853 30.3366C38.696 28.4574 39.5727 26.3132 39.9527 24.0575H32.3713Z" fill="#EC3430"/>
<path d="M26.6822 24.0575H18.571V19.2436H39.9983C39.4539 15.5635 37.5971 12.2009 34.7668 9.76951C31.9365 7.33814 28.3215 6.00023 24.5818 6C20.4488 6 16.4851 7.63303 13.5626 10.5398C10.6401 13.4467 8.99829 17.3891 8.99829 21.5C8.99829 25.6109 10.6401 29.5533 13.5626 32.4602C16.4851 35.367 20.4488 37 24.5818 37C25.2843 36.9998 25.986 36.9528 26.6822 36.8594V24.0575Z" fill="#EC3430"/>
<path d="M8.50586 47H7.02148L7.03125 46.2334H8.50586C9.52369 46.2334 10.1993 45.7841 10.5371 45.0176C10.7913 44.4469 10.7959 43.8371 10.7959 43.2256C10.7959 42.408 10.5956 41.7701 10.2197 41.3359C9.44214 40.4243 8.06081 40.6621 6.99219 40.6621V39.8906H8.59375C9.52338 39.8906 10.3052 40.2071 10.8594 40.7939C11.4173 41.3714 11.7285 42.2031 11.7285 43.2354C11.7285 43.8523 11.7171 44.4632 11.5039 45.0518C11.0578 46.2736 10.0029 47 8.50586 47ZM7.52441 39.8906V47H6.58203V39.8906H7.52441Z" fill="#1C1D1F"/>
<path d="M13.9893 41.7168V47H13.0811V41.7168H13.9893ZM13.0127 40.3154C13.0127 40.0201 13.1962 39.793 13.5449 39.793C13.8928 39.793 14.082 40.0248 14.082 40.3154C14.082 40.5907 13.8959 40.8232 13.5449 40.8232C13.193 40.8232 13.0127 40.5951 13.0127 40.3154Z" fill="#1C1D1F"/>
<path d="M18.5156 45.5986C18.5156 44.9638 17.8115 44.786 17.2998 44.6855C16.146 44.442 15.3955 44.0429 15.3955 43.1621C15.3955 42.1529 16.4534 41.6191 17.3535 41.6191C18.6191 41.6191 19.3652 42.3557 19.3652 43.2695H18.4619C18.4619 42.6859 17.8716 42.3613 17.3535 42.3613C16.617 42.3613 16.3037 42.7405 16.3037 43.1377C16.3037 43.5193 16.5162 43.7287 17.5195 43.9531C18.8184 44.2461 19.4189 44.6807 19.4189 45.5303C19.4189 46.4375 18.6444 47.0977 17.3779 47.0977C16.363 47.0977 15.2148 46.5039 15.2148 45.3691H16.123C16.1581 46.0357 16.7555 46.3555 17.3779 46.3555C18.1285 46.3555 18.5156 46.0356 18.5156 45.5986Z" fill="#1C1D1F"/>
<path d="M22.7197 46.3555C23.3671 46.3555 23.9164 45.9205 23.9648 45.3301H24.8242C24.7692 46.3861 23.7077 47.0977 22.7197 47.0977C21.1202 47.0977 20.3711 45.6806 20.3711 44.2559C20.3711 42.8155 21.1517 41.6191 22.7197 41.6191C23.955 41.6191 24.7752 42.4355 24.8242 43.5332H23.9648C23.9164 42.8837 23.4471 42.3613 22.7197 42.3613C21.6629 42.3613 21.2744 43.3513 21.2744 44.2559C21.2744 45.233 21.5754 46.3555 22.7197 46.3555Z" fill="#1C1D1F"/>
<path d="M25.6006 44.3047C25.6006 42.9127 26.4956 41.6191 27.998 41.6191C29.5257 41.6191 30.4102 42.9697 30.4102 44.417C30.4102 45.8279 29.5031 47.0977 28.0078 47.0977C26.4822 47.0977 25.6006 45.7516 25.6006 44.3047ZM26.5039 44.3047C26.5039 45.2496 26.8865 46.3555 28.0078 46.3555C29.0171 46.3555 29.502 45.4534 29.502 44.417C29.502 43.4766 29.0789 42.3613 27.998 42.3613C26.9515 42.3613 26.5039 43.3995 26.5039 44.3047Z" fill="#1C1D1F"/>
<path d="M33.0713 46.1846L34.5166 41.7168H35.4395L33.54 47H32.9346L33.0713 46.1846ZM31.8652 41.7168L33.3545 46.209L33.457 47H32.8516L30.9375 41.7168H31.8652Z" fill="#1C1D1F"/>
<path d="M38.4326 47.0977C36.8977 47.0977 36.0059 45.8137 36.0059 44.3389C36.0059 42.6092 37.133 41.6191 38.3154 41.6191C39.9808 41.6191 40.4883 43.1516 40.4883 44.6123H36.543V43.875H39.585C39.585 43.1246 39.1378 42.3613 38.3154 42.3613C37.1841 42.3613 36.9141 43.6254 36.9141 44.5439C36.9141 45.4612 37.4741 46.3604 38.4814 46.3604C39.1195 46.3604 39.541 46.0788 39.873 45.6426L40.4199 46.0771C40.0794 46.5928 39.4853 47.0977 38.4326 47.0977Z" fill="#1C1D1F"/>
<path d="M42.4463 42.5469V47H41.543V41.7168H42.4219L42.4463 42.5469ZM44.0967 41.6875L44.0918 42.5273C43.9453 42.4955 43.8255 42.4883 43.6523 42.4883C42.824 42.4883 42.3891 43.0242 42.3096 43.8066L42.0557 43.9531C42.0557 43.6341 42.0866 43.3346 42.1484 43.0547C42.3275 42.2849 42.8406 41.6191 43.6963 41.6191C43.8261 41.6191 44.0314 41.6548 44.0967 41.6875Z" fill="#1C1D1F"/>
</svg>
