<svg width="50" height="50" viewBox="0 0 50 50" fill="none" xmlns="http://www.w3.org/2000/svg">
<rect width="50" height="50" fill="#EC3430"/>
<path d="M31.451 22.8925V33.0612C33.3137 31.991 34.9154 30.5244 36.1415 28.7665C37.3676 27.0085 38.1878 25.0026 38.5432 22.8925H31.451Z" fill="white"/>
<path d="M26.129 22.8925H18.5411V18.3892H38.5859C38.0767 14.9465 36.3396 11.8008 33.692 9.52632C31.0443 7.25181 27.6625 6.00022 24.164 6C20.2977 6 16.5897 7.52767 13.8558 10.247C11.1218 12.9662 9.58594 16.6544 9.58594 20.5C9.58594 24.3456 11.1218 28.0338 13.8558 30.753C16.5897 33.4723 20.2977 35 24.164 35C24.8212 34.9998 25.4777 34.9558 26.129 34.8685V22.8925Z" fill="white"/>
<path d="M35.549 44.0066V37H34.6973V44.0066H35.549Z" fill="white"/>
<path d="M38.1326 43.9534L36.3641 39.071H37.289L38.529 42.7636L39.6793 39.071H40.5859L38.5986 44.7684C38.5528 44.89 38.4918 45.0208 38.4155 45.1607C38.3422 45.3036 38.2476 45.4389 38.1316 45.5666C38.0156 45.6944 37.8752 45.7978 37.7103 45.8768C37.5485 45.9589 37.3547 46 37.1288 46C37.0616 46 36.9761 45.9909 36.8723 45.9726C36.7686 45.9544 36.6953 45.9392 36.6526 45.927L36.648 45.2428C36.6724 45.2458 36.7106 45.2489 36.7625 45.2519C36.8174 45.258 36.8556 45.261 36.8769 45.261C37.0692 45.261 37.2326 45.2352 37.3669 45.1835C37.5012 45.1348 37.6141 45.0512 37.7057 44.9326C37.8004 44.817 37.8813 44.6574 37.9484 44.4536L38.1326 43.9534Z" fill="white"/>
<path fill-rule="evenodd" clip-rule="evenodd" d="M30.7868 39.1439C30.549 39.2502 30.3462 39.4066 30.1785 39.613L30.1366 39.071H29.3582V45.9042H30.2099V43.5278C30.3715 43.7075 30.5654 43.8458 30.7914 43.9427C31.0326 44.0461 31.3104 44.0978 31.6248 44.0978C31.9331 44.0978 32.2063 44.0355 32.4444 43.9108C32.6825 43.7861 32.8825 43.6113 33.0443 43.3862C33.2091 43.1612 33.3343 42.8966 33.4198 42.5925C33.5052 42.2854 33.548 41.9524 33.548 41.5935V41.4977C33.548 41.1206 33.5052 40.7785 33.4198 40.4714C33.3373 40.1612 33.2137 39.8951 33.0489 39.6731C32.884 39.4511 32.681 39.2808 32.4399 39.1622C32.1987 39.0405 31.9224 38.9797 31.611 38.9797C31.2997 38.9797 31.0249 39.0345 30.7868 39.1439ZM30.2419 42.7841C30.231 42.7653 30.2203 42.7465 30.2099 42.7275V40.3712C30.2663 40.2714 30.3319 40.1801 30.4068 40.0973C30.5167 39.9726 30.6495 39.8738 30.8051 39.8008C30.9639 39.7278 31.1501 39.6913 31.3638 39.6913C31.5958 39.6913 31.7957 39.74 31.9636 39.8373C32.1315 39.9316 32.2689 40.0623 32.3757 40.2296C32.4856 40.3938 32.5665 40.5854 32.6184 40.8044C32.6703 41.0203 32.6963 41.2514 32.6963 41.4977V41.5935C32.6963 41.8398 32.6703 42.0725 32.6184 42.2914C32.5665 42.5073 32.4856 42.6989 32.3757 42.8662C32.2689 43.0335 32.1315 43.1657 31.9636 43.2631C31.7988 43.3573 31.6019 43.4045 31.3729 43.4045C31.0951 43.4045 30.8647 43.3482 30.6815 43.2357C30.4983 43.1201 30.3518 42.9696 30.2419 42.7841Z" fill="white"/>
<path d="M21.9814 40.3905V44.0066H21.1297V39.071H21.9356L21.9607 39.6082C22.1225 39.4157 22.3202 39.2655 22.5537 39.1576C22.8041 39.039 23.0941 38.9797 23.4238 38.9797C23.6558 38.9797 23.8694 39.0132 24.0648 39.0801C24.2602 39.1439 24.4296 39.2458 24.5731 39.3857C24.6812 39.4911 24.7711 39.6189 24.8428 39.7692C24.8801 39.7156 24.9199 39.6638 24.9623 39.6138C25.1302 39.4192 25.3363 39.2656 25.5805 39.1531C25.8247 39.0375 26.104 38.9797 26.4184 38.9797C26.684 38.9797 26.9191 39.0147 27.1236 39.0846C27.3312 39.1546 27.5052 39.2625 27.6456 39.4085C27.7891 39.5514 27.8975 39.7354 27.9707 39.9605C28.044 40.1855 28.0806 40.4531 28.0806 40.7633V44.0066H27.2289V40.7542C27.2289 40.4774 27.1847 40.2631 27.0961 40.111C27.0107 39.9559 26.8885 39.8479 26.7298 39.7871C26.5741 39.7233 26.3879 39.6913 26.1712 39.6913C25.985 39.6913 25.8201 39.7233 25.6766 39.7871C25.5332 39.851 25.4126 39.9392 25.3149 40.0517C25.2172 40.1612 25.1424 40.2874 25.0905 40.4303C25.0589 40.5227 25.0376 40.6189 25.0264 40.7189V44.0066H24.1793V40.7587C24.1793 40.5003 24.135 40.2935 24.0465 40.1384C23.961 39.9833 23.8389 39.8708 23.6802 39.8008C23.5214 39.7278 23.3352 39.6913 23.1215 39.6913C22.8712 39.6913 22.6621 39.7354 22.4942 39.8236C22.3263 39.9118 22.192 40.0335 22.0913 40.1885C22.05 40.252 22.0134 40.3193 21.9814 40.3905Z" fill="white"/>
<path fill-rule="evenodd" clip-rule="evenodd" d="M15.5661 41.5935V41.4886C15.5661 41.1328 15.618 40.8028 15.7218 40.4987C15.8256 40.1916 15.9752 39.9255 16.1706 39.7005C16.3659 39.4724 16.6025 39.296 16.8803 39.1713C17.1581 39.0436 17.4695 38.9797 17.8144 38.9797C18.1625 38.9797 18.4754 39.0436 18.7531 39.1713C19.034 39.296 19.2721 39.4724 19.4675 39.7005C19.6659 39.9255 19.817 40.1916 19.9208 40.4987C20.0246 40.8028 20.0765 41.1328 20.0765 41.4886V41.5935C20.0765 41.9493 20.0246 42.2793 19.9208 42.5834C19.817 42.8875 19.6659 43.1536 19.4675 43.3817C19.2721 43.6067 19.0355 43.7831 18.7577 43.9108C18.483 44.0355 18.1716 44.0978 17.8236 44.0978C17.4756 44.0978 17.1627 44.0355 16.8849 43.9108C16.6071 43.7831 16.369 43.6067 16.1706 43.3817C15.9752 43.1536 15.8256 42.8875 15.7218 42.5834C15.618 42.2793 15.5661 41.9493 15.5661 41.5935ZM16.4133 41.4886V41.5935C16.4133 41.8398 16.4423 42.0725 16.5003 42.2914C16.5583 42.5073 16.6453 42.6989 16.7613 42.8662C16.8803 43.0335 17.0284 43.1657 17.2054 43.2631C17.3825 43.3573 17.5885 43.4045 17.8236 43.4045C18.0556 43.4045 18.2586 43.3573 18.4326 43.2631C18.6097 43.1657 18.7562 43.0335 18.8722 42.8662C18.9882 42.6989 19.0752 42.5073 19.1332 42.2914C19.1943 42.0725 19.2248 41.8398 19.2248 41.5935V41.4886C19.2248 41.2453 19.1943 41.0157 19.1332 40.7998C19.0752 40.5808 18.9867 40.3877 18.8676 40.2205C18.7516 40.0502 18.6051 39.9164 18.428 39.8191C18.254 39.7217 18.0495 39.6731 17.8144 39.6731C17.5824 39.6731 17.3779 39.7217 17.2009 39.8191C17.0269 39.9164 16.8803 40.0502 16.7613 40.2205C16.6453 40.3877 16.5583 40.5808 16.5003 40.7998C16.4423 41.0157 16.4133 41.2453 16.4133 41.4886Z" fill="white"/>
<path d="M14.7144 41.8946H13.8353C13.7864 42.2048 13.704 42.4709 13.588 42.6929C13.4751 42.9149 13.3072 43.0851 13.0843 43.2038C12.8615 43.3224 12.5623 43.3817 12.1868 43.3817C11.8907 43.3817 11.6343 43.3208 11.4175 43.1992C11.2008 43.0745 11.0222 42.9042 10.8818 42.6883C10.7414 42.4724 10.6361 42.2215 10.5658 41.9356C10.4987 41.6498 10.4651 41.3441 10.4651 41.0188V40.3482C10.4651 39.9954 10.5033 39.6746 10.5796 39.3857C10.6559 39.0968 10.7689 38.849 10.9184 38.6422C11.0711 38.4354 11.2588 38.2757 11.4817 38.1632C11.7076 38.0507 11.9686 37.9944 12.2647 37.9944C12.6096 37.9944 12.8889 38.0552 13.1026 38.1769C13.3163 38.2985 13.4812 38.4719 13.5972 38.6969C13.7132 38.9189 13.7925 39.185 13.8353 39.4952H14.7144C14.6687 39.0573 14.5481 38.6726 14.3527 38.3411C14.1604 38.0066 13.8902 37.7451 13.5422 37.5565C13.1942 37.368 12.7684 37.2737 12.2647 37.2737C11.8526 37.2737 11.4817 37.3467 11.152 37.4927C10.8223 37.6386 10.5399 37.8469 10.3048 38.1176C10.0728 38.3882 9.89426 38.7136 9.7691 39.0938C9.64699 39.4709 9.58594 39.892 9.58594 40.3573V41.0188C9.58594 41.484 9.64699 41.9067 9.7691 42.2869C9.89426 42.664 10.0713 42.9878 10.3003 43.2585C10.5292 43.5261 10.8024 43.7329 11.1199 43.8789C11.4404 44.0248 11.7961 44.0978 12.1868 44.0978C12.721 44.0978 13.1667 44.002 13.5239 43.8104C13.8811 43.6158 14.1573 43.3528 14.3527 43.0213C14.5481 42.6898 14.6687 42.3142 14.7144 41.8946Z" fill="white"/>
</svg>
