<svg width="50" height="50" viewBox="0 0 50 50" fill="none" xmlns="http://www.w3.org/2000/svg">
<rect width="50" height="50" fill="#EC3430"/>
<path d="M31.3571 23.7275V33.1949C33.0913 32.1985 34.5826 30.8331 35.7242 29.1964C36.8657 27.5597 37.6293 25.6921 37.9603 23.7275H31.3571Z" fill="white"/>
<path d="M26.4021 23.7275H19.3375V19.5348H38C37.5258 16.3295 35.9086 13.4008 33.4435 11.2831C30.9785 9.16548 27.8299 8.0002 24.5727 8C20.973 8 17.5207 9.42232 14.9754 11.9541C12.43 14.4858 11 17.9196 11 21.5C11 25.0804 12.43 28.5142 14.9754 31.0459C17.5207 33.5777 20.973 35 24.5727 35C25.1846 34.9998 25.7957 34.9589 26.4021 34.8775V23.7275Z" fill="white"/>
<path d="M23.6768 42.2373C23.7354 42.348 23.7646 42.4684 23.7646 42.5986C23.7646 42.7451 23.7207 42.8753 23.6328 42.9893C23.5449 43.1032 23.4163 43.1927 23.2471 43.2578C23.0811 43.3229 22.8743 43.3555 22.627 43.3555C22.4414 43.3555 22.2542 43.3262 22.0654 43.2676C21.8766 43.2057 21.7171 43.1032 21.5869 42.96C21.4567 42.8135 21.3851 42.6165 21.3721 42.3691H20.4639C20.4639 42.6621 20.5469 42.9404 20.7129 43.2041C20.8789 43.4678 21.123 43.6826 21.4453 43.8486C21.7676 44.0146 22.1615 44.0977 22.627 44.0977C22.9362 44.0977 23.2145 44.0602 23.4619 43.9854C23.7126 43.9072 23.9274 43.7998 24.1064 43.6631C24.2887 43.5231 24.4271 43.3571 24.5215 43.165C24.6191 42.973 24.668 42.7614 24.668 42.5303C24.668 42.2471 24.5996 42.0062 24.4629 41.8076C24.3262 41.609 24.1178 41.4414 23.8379 41.3047C23.5579 41.168 23.2015 41.0508 22.7686 40.9531C22.5212 40.8978 22.3177 40.8424 22.1582 40.7871C21.9987 40.7318 21.875 40.6732 21.7871 40.6113C21.6992 40.5462 21.6374 40.4762 21.6016 40.4014C21.569 40.3232 21.5527 40.2354 21.5527 40.1377C21.5527 40.0075 21.5869 39.8838 21.6553 39.7666C21.7269 39.6494 21.8392 39.5534 21.9922 39.4785C22.1484 39.4004 22.3519 39.3613 22.6025 39.3613C22.8402 39.3613 23.0404 39.4069 23.2031 39.498C23.3691 39.5892 23.4945 39.7048 23.5791 39.8447C23.667 39.9814 23.7109 40.123 23.7109 40.2695H24.6143C24.6143 39.9668 24.5345 39.6917 24.375 39.4443C24.2155 39.1937 23.986 38.9935 23.6865 38.8438C23.387 38.694 23.0257 38.6191 22.6025 38.6191C22.3063 38.6191 22.0378 38.6598 21.7969 38.7412C21.556 38.8226 21.3493 38.9349 21.1768 39.0781C21.0075 39.2214 20.8757 39.3857 20.7812 39.5713C20.6901 39.7568 20.6445 39.9538 20.6445 40.1621C20.6445 40.3802 20.6885 40.5706 20.7764 40.7334C20.8643 40.8962 20.9896 41.0378 21.1523 41.1582C21.3184 41.2786 21.5186 41.3812 21.7529 41.4658C21.9906 41.5505 22.2559 41.6237 22.5488 41.6855C22.8971 41.7539 23.1576 41.8353 23.3301 41.9297C23.5059 42.0208 23.6214 42.1234 23.6768 42.2373Z" fill="white"/>
<path fill-rule="evenodd" clip-rule="evenodd" d="M28.9797 43.5145V46.0312H29.8879V38.7168H29.0578L29.0165 39.2534C28.8478 39.0539 28.645 38.9011 28.4084 38.7949C28.1577 38.6777 27.8664 38.6191 27.5344 38.6191C27.2023 38.6191 26.9061 38.6842 26.6457 38.8145C26.3885 38.9414 26.1688 39.1237 25.9865 39.3613C25.8042 39.599 25.6659 39.8838 25.5715 40.2158C25.4771 40.5446 25.4299 40.9108 25.4299 41.3145V41.417C25.4299 41.8011 25.4771 42.1576 25.5715 42.4863C25.6691 42.8118 25.8075 43.0951 25.9865 43.3359C26.1688 43.5768 26.3885 43.764 26.6457 43.8975C26.9061 44.0309 27.1991 44.0977 27.5246 44.0977C27.8599 44.0977 28.1545 44.0407 28.4084 43.9268C28.6287 43.8264 28.8191 43.689 28.9797 43.5145ZM28.9797 40.0543V42.6475C28.8592 42.859 28.6981 43.0299 28.4963 43.1602C28.2977 43.2904 28.0487 43.3555 27.7492 43.3555C27.5051 43.3555 27.2935 43.305 27.1145 43.2041C26.9387 43.0999 26.7922 42.9583 26.675 42.7793C26.5611 42.6003 26.4764 42.3952 26.4211 42.1641C26.3658 41.9297 26.3381 41.6807 26.3381 41.417V41.3145C26.3381 41.0508 26.3658 40.8018 26.4211 40.5674C26.4764 40.333 26.5611 40.1263 26.675 39.9473C26.7922 39.765 26.9403 39.6217 27.1193 39.5176C27.2984 39.4134 27.5116 39.3613 27.759 39.3613C27.9868 39.3613 28.1854 39.402 28.3547 39.4834C28.5272 39.5615 28.6737 39.6689 28.7941 39.8057C28.8636 39.8826 28.9254 39.9655 28.9797 40.0543Z" fill="white"/>
</svg>
