<svg width="50" height="50" viewBox="0 0 50 50" fill="none" xmlns="http://www.w3.org/2000/svg">
<path fill-rule="evenodd" clip-rule="evenodd" d="M31.4636 37.7062C31.6168 37.7114 31.7598 37.6528 31.8554 37.531L38.7799 28.96C38.8948 28.8243 38.8942 28.6591 38.8563 28.4958C38.0362 24.9586 37.1678 21.4273 36.4075 17.8771C36.3741 17.7094 36.2574 17.6001 36.1065 17.5287C32.8038 15.9648 29.5043 14.3994 26.208 12.8324C25.9833 12.7256 25.7886 12.7371 25.5663 12.8433C22.3132 14.3968 19.0568 15.94 15.7972 17.4726C15.5519 17.588 15.4027 17.7817 15.3435 18.0411C14.5565 21.487 13.7598 24.9305 12.9535 28.3716C12.8937 28.6268 12.9353 28.8712 13.1029 29.0762C14.9481 31.3319 16.7777 33.5993 18.6032 35.8616C19.0244 36.3836 19.4454 36.9054 19.8664 37.4267C20.0061 37.6055 20.1961 37.7118 20.4267 37.7038L31.4636 37.7062ZM31.4371 39.2188L20.4534 39.2164C19.7669 39.2403 19.086 38.9171 18.6732 38.3713C18.2514 37.849 17.8299 37.3265 17.4083 36.804C15.583 34.5421 13.7574 32.2796 11.9158 30.0282C11.4491 29.4855 11.2762 28.7185 11.4653 28.0297C12.271 24.5914 13.067 21.1506 13.8534 17.7074C13.9876 17.0052 14.4822 16.3906 15.1419 16.1063C18.3987 14.5749 21.6522 13.0331 24.9026 11.4809C25.5083 11.1639 26.2596 11.1593 26.8692 11.4688C30.1648 13.0355 33.4636 14.6006 36.7656 16.164C37.347 16.4213 37.7828 16.964 37.9063 17.5846C38.7169 21.1161 39.5299 24.6403 40.3453 28.1573C40.5117 28.7683 40.3606 29.4477 39.9505 29.9319L33.055 38.4676C32.6732 38.9541 32.0575 39.24 31.4371 39.2188Z" fill="#399AD4"/>
<path d="M18.7331 42.9969L33.1855 43L33.2116 41.4874L18.7068 41.4842L18.7331 42.9969Z" fill="#10BDD2"/>
<path d="M35.3143 42.0254L44.3873 30.9521L43.2235 29.9721L34.1212 41.0807L35.3143 42.0254Z" fill="#79BF43"/>
<path d="M44.9067 28.65C43.8338 24.0874 42.7641 19.5154 41.6976 14.9341L40.1995 15.2305C41.1306 19.8407 42.3421 24.4139 43.4188 28.993L44.9067 28.65Z" fill="#1B4388"/>
<path d="M26.5215 8.36718C30.8584 10.4 35.1996 12.4307 39.5451 14.4593L40.1966 13.0911C35.8518 11.0628 31.5113 9.03245 27.1751 7L26.5215 8.36718Z" fill="#1ABFD3"/>
<path d="M24.5874 7.01561C20.3106 9.02932 16.0296 11.0295 11.7444 13.0161L12.3469 14.4061C16.7056 12.5537 20.9599 10.3985 25.2434 8.38165L24.5874 7.01561Z" fill="#10BDD2"/>
<path d="M10.049 15.0934C9.0143 19.5602 7.9669 24.0239 6.90674 28.4844L8.39381 28.8309C9.45616 24.3611 10.6749 19.8881 11.5493 15.3785L10.049 15.0934Z" fill="#1B4388"/>
<path d="M15.9147 38.9166C13.5128 35.9819 11.1067 33.0419 8.67995 30.1169L7.49949 31.077C9.92275 33.9978 12.325 36.933 14.7267 39.8676L14.7366 39.8797L14.7406 39.8846C15.2906 40.5567 15.8406 41.2287 16.3908 41.9005L17.5774 40.9477C17.0232 40.2711 16.4691 39.594 15.9147 38.9166Z" fill="#79BF43"/>
</svg>
