<svg width="50" height="50" viewBox="0 0 50 50" fill="none" xmlns="http://www.w3.org/2000/svg">
<path d="M34.1509 30.2793C34.0441 30.2793 33.9017 30.2793 33.7949 30.2793C30.5916 30.1716 27.7085 28.5203 25.1458 25.3972L25.1102 25.3613C22.1204 21.1972 19.5932 18.8998 17.3865 18.3972C12.1187 17.1408 8.02545 23.5665 7.98986 23.6383L7.13562 22.669C7.31359 22.3819 11.5848 15.7408 17.7068 17.2126C20.2339 17.787 22.9034 20.1562 26.1068 24.6434C28.4204 27.4793 31.0187 28.9511 33.8305 29.0588C38.9916 29.2024 42.8356 24.8229 42.8712 24.787L44.117 25.4331C43.939 25.6126 40.2729 30.2075 34.1509 30.2793Z" fill="#B2C4DD"/>
<path d="M10.1254 21.4485H8.02542V27.9101H7.1V21.4485H5V20.6229H10.1254V21.4485Z" fill="#2B338C"/>
<path d="M15.5356 27.6229C15.0017 27.9101 14.3254 28.0537 13.5424 28.0537C12.5102 28.0537 11.6915 27.7306 11.0508 27.0485C10.4458 26.3665 10.1254 25.5049 10.1254 24.3921C10.1254 23.2075 10.4814 22.2742 11.1576 21.5562C11.8695 20.8383 12.7593 20.4793 13.8271 20.4793C14.5034 20.4793 15.1085 20.587 15.5356 20.7665V21.7357C15.0017 21.4485 14.4322 21.3049 13.8271 21.3049C13.0085 21.3049 12.3678 21.5921 11.8695 22.1306C11.3712 22.669 11.122 23.4229 11.122 24.3203C11.122 25.1819 11.3712 25.8998 11.8339 26.4024C12.2966 26.9049 12.9373 27.1562 13.6847 27.1562C14.3966 27.1562 15.0373 26.9767 15.5712 26.6537V27.6229H15.5356Z" fill="#2B338C"/>
<path d="M17.7424 25.1819V27.9101H16.8169V20.587H18.8814C19.6644 20.587 20.2695 20.7665 20.6966 21.1613C21.1237 21.5562 21.3373 22.0947 21.3373 22.7767C21.3373 23.4947 21.0881 24.069 20.5898 24.5357C20.0915 24.9665 19.4508 25.1819 18.7034 25.1819H17.7424ZM17.7424 21.4485V24.3562H18.5966C19.1661 24.3562 19.5932 24.2126 19.9136 23.9613C20.1983 23.7101 20.3407 23.3152 20.3407 22.8485C20.3407 21.9152 19.7712 21.4485 18.6678 21.4485H17.7424Z" fill="#2B338C"/>
<path d="M31.339 20.2998L29.3102 27.9101H28.2424L26.7831 22.4178C26.7119 22.1665 26.6763 21.9152 26.6763 21.628H26.6407C26.6051 21.9152 26.5695 22.1665 26.4983 22.4178L25.039 27.9101H23.9712L21.8356 20.2998H22.9034L24.3983 26.0434C24.4695 26.2947 24.5051 26.546 24.5051 26.8331H24.5407C24.5407 26.6537 24.6119 26.3665 24.6831 26.0434L26.2492 20.2998H27.1746L28.6695 26.1152C28.7051 26.2947 28.7763 26.546 28.7763 26.8331H28.8119C28.8119 26.6178 28.883 26.3665 28.9542 26.0793L30.378 20.2998H31.339Z" fill="#2B338C"/>
<path d="M31.8373 23.0639C32.3356 22.7408 32.9407 22.5613 33.617 22.5613C34.8627 22.5613 35.5034 23.2075 35.5034 24.5357V27.9101H34.6136V27.1203H34.578C34.222 27.7306 33.6881 28.0537 32.9763 28.0537C32.478 28.0537 32.0864 27.9101 31.7661 27.6588C31.4814 27.3716 31.339 27.0126 31.339 26.546C31.339 25.5767 31.9085 25.0024 33.0475 24.8588L34.578 24.6434C34.578 23.7819 34.222 23.3511 33.5458 23.3511C32.9407 23.3511 32.3712 23.5665 31.8373 23.9972V23.0639ZM33.3678 25.469C32.9407 25.5408 32.6559 25.6485 32.478 25.7921C32.3 25.9357 32.2288 26.187 32.2288 26.4383C32.2288 26.6895 32.3 26.9049 32.478 27.0485C32.6559 27.1921 32.8695 27.2998 33.1542 27.2998C33.5458 27.2998 33.8661 27.1562 34.1508 26.869C34.4 26.5819 34.5424 26.2229 34.5424 25.7921V25.2895L33.3678 25.469Z" fill="#2B338C"/>
<path d="M40.9847 22.7049L38.9203 27.9101H37.9949L36.0729 22.7049H37.0695L38.3153 26.4383C38.422 26.7254 38.4932 26.9767 38.4932 27.1921H38.5288C38.5644 26.9408 38.6 26.6895 38.7068 26.4742L40.0237 22.7408H40.9847V22.7049Z" fill="#2B338C"/>
<path d="M45.8254 25.5408H42.1949C42.1949 26.1152 42.3729 26.5101 42.6576 26.8331C42.9424 27.1203 43.3339 27.2998 43.8678 27.2998C44.4373 27.2998 44.9712 27.1203 45.4695 26.7254V27.5511C45.0068 27.8742 44.4017 28.0537 43.6542 28.0537C42.9068 28.0537 42.3373 27.8024 41.9102 27.3357C41.4831 26.869 41.2695 26.187 41.2695 25.3613C41.2695 24.5716 41.4831 23.8895 41.9458 23.387C42.4085 22.8844 42.978 22.5972 43.6542 22.5972C44.3305 22.5972 44.8644 22.8126 45.2559 23.2434C45.6475 23.6742 45.8254 24.2844 45.8254 25.0742V25.5408ZM44.9 24.787C44.9 24.3203 44.7932 23.9613 44.5797 23.7101C44.3661 23.4588 44.0458 23.3152 43.6542 23.3152C43.2983 23.3152 42.978 23.4588 42.6932 23.7101C42.4441 23.9972 42.2661 24.3562 42.1949 24.787H44.9Z" fill="#2B338C"/>
</svg>
