<svg width="50" height="50" viewBox="0 0 50 50" fill="none" xmlns="http://www.w3.org/2000/svg">
<path d="M26.6859 33.4226L23.2002 13.994C22.9716 12.6226 22.5145 11.2512 21.6574 9.93688C20.5145 8.10831 18.6859 6.85116 16.6288 6.33688C8.5145 4.39402 2.5145 12.5083 6.05736 19.7083L14.5145 37.8226C14.7431 38.394 15.0859 38.9655 15.4859 39.4797C16.1716 40.394 17.0859 41.0797 18.1716 41.4226C23.6574 43.1369 28.0574 38.2797 26.6859 33.4226Z" fill="url(#paint0_linear_9176_15866)"/>
<path d="M42.5145 21.194C41.7145 19.9369 40.5716 18.9654 39.2574 18.394L18.5716 7.02259C18.0002 6.73688 17.3716 6.45116 16.6859 6.27973C7.82879 4.22259 1.48593 13.9369 7.14307 21.4797C8.00022 22.6226 9.20022 23.5369 10.5716 24.0512L31.4288 33.4226C31.8859 33.7083 32.3431 33.8797 32.8574 34.0512C40.8574 36.5654 46.9145 28.1083 42.5145 21.194Z" fill="url(#paint1_linear_9176_15866)"/>
<path d="M42.5145 21.194C41.4859 19.594 39.8859 18.4512 38.0002 17.994C36.0002 17.5369 34.1145 17.7083 32.5145 18.394L10.5145 26.6797C10.5145 26.6797 10.4002 26.7369 10.1716 26.9083C4.5145 29.1369 1.7145 36.5083 6.28593 42.6226C7.3145 43.994 8.74307 45.0226 10.3431 45.4797C13.3716 46.394 16.1145 46.0512 18.3431 44.8512H18.4002L39.8859 33.3654C39.8859 33.3654 39.8859 33.3655 39.9431 33.3083C43.7145 31.1369 45.4859 25.8226 42.5145 21.194Z" fill="url(#paint2_linear_9176_15866)"/>
<path d="M32.7431 13.3654C33.4288 11.8226 33.3716 9.93688 32.2288 8.22259C31.6002 7.19402 30.5716 6.50831 29.4288 6.22259C26.8574 5.59402 24.6859 6.79402 23.6574 8.62259L6.00021 30.0512C6.00021 30.0512 6.00021 30.0512 6.00021 30.1083C3.48593 33.4226 3.08593 38.3369 6.28593 42.6226C7.3145 43.994 8.74307 45.0226 10.3431 45.4797C16.3431 47.3655 21.3716 44.0512 22.9716 39.3083L32.7431 13.3654Z" fill="url(#paint3_linear_9176_15866)"/>
<path d="M36.343 13.7086H11.6573V38.3943H36.343V13.7086Z" fill="black"/>
<path d="M23.2573 33.7658H14.0002V35.3086H23.2573V33.7658Z" fill="white"/>
<path d="M17.0859 19.0229H14.0002V16.9658H22.4573V19.0229H19.3145V27.1943H17.0859V19.0229Z" fill="white"/>
<path d="M22.5716 22.1086C22.5716 19.1944 24.743 16.7944 27.8859 16.7944C29.8288 16.7944 30.9716 17.4229 31.943 18.3944L30.5145 20.0515C29.7145 19.3086 28.9145 18.9086 27.8859 18.9086C26.1716 18.9086 24.9145 20.3372 24.9145 22.1086V22.0515C24.9145 23.8229 26.1145 25.2515 27.8859 25.2515C29.0288 25.2515 29.7716 24.7944 30.5716 24.0515L32.0002 25.4801C30.9716 26.6229 29.7716 27.3086 27.8288 27.3086C24.8002 27.3658 22.5716 25.0229 22.5716 22.1086Z" fill="white"/>
<defs>
<linearGradient id="paint0_linear_9176_15866" x1="3.99362" y1="26.0222" x2="44.0338" y2="26.0222" gradientUnits="userSpaceOnUse">
<stop stop-color="#905CFB"/>
<stop offset="0.0677254" stop-color="#776CF9"/>
<stop offset="0.1729" stop-color="#5681F7"/>
<stop offset="0.2865" stop-color="#3B92F5"/>
<stop offset="0.4097" stop-color="#269FF4"/>
<stop offset="0.5474" stop-color="#17A9F3"/>
<stop offset="0.7111" stop-color="#0FAEF2"/>
<stop offset="0.9677" stop-color="#0CB0F2"/>
</linearGradient>
<linearGradient id="paint1_linear_9176_15866" x1="6.091" y1="13.8288" x2="47.8976" y2="30.1745" gradientUnits="userSpaceOnUse">
<stop stop-color="#905CFB"/>
<stop offset="0.0677254" stop-color="#776CF9"/>
<stop offset="0.1729" stop-color="#5681F7"/>
<stop offset="0.2865" stop-color="#3B92F5"/>
<stop offset="0.4097" stop-color="#269FF4"/>
<stop offset="0.5474" stop-color="#17A9F3"/>
<stop offset="0.7111" stop-color="#0FAEF2"/>
<stop offset="0.9677" stop-color="#0CB0F2"/>
</linearGradient>
<linearGradient id="paint2_linear_9176_15866" x1="-7.02054" y1="46.7541" x2="40.7826" y2="29.8741" gradientUnits="userSpaceOnUse">
<stop stop-color="#3BEA62"/>
<stop offset="0.117" stop-color="#31DE80"/>
<stop offset="0.3025" stop-color="#24CEA8"/>
<stop offset="0.4844" stop-color="#1AC1C9"/>
<stop offset="0.6592" stop-color="#12B7DF"/>
<stop offset="0.8238" stop-color="#0EB2ED"/>
<stop offset="0.9677" stop-color="#0CB0F2"/>
</linearGradient>
<linearGradient id="paint3_linear_9176_15866" x1="34.5037" y1="9.34483" x2="19.2114" y2="54.0945" gradientUnits="userSpaceOnUse">
<stop stop-color="#3BEA62"/>
<stop offset="0.0939775" stop-color="#2FDB87"/>
<stop offset="0.196" stop-color="#24CEA8"/>
<stop offset="0.3063" stop-color="#1BC3C3"/>
<stop offset="0.4259" stop-color="#14BAD8"/>
<stop offset="0.5596" stop-color="#10B5E7"/>
<stop offset="0.7185" stop-color="#0DB1EF"/>
<stop offset="0.9677" stop-color="#0CB0F2"/>
</linearGradient>
</defs>
</svg>
