<svg width="50" height="50" viewBox="0 0 50 50" fill="none" xmlns="http://www.w3.org/2000/svg">
<path d="M36.8652 10H13.0996C11.4163 10.0217 9.99177 11.4187 10 13.1143V36.8857C9.99184 38.5879 11.4273 39.9876 13.1172 40H36.8828C38.5727 39.9876 40.0082 38.5879 40 36.8857V13.1143C40.0081 11.4254 38.5591 10.0031 36.8652 10ZM24.9883 37.4043C18.2622 37.3531 12.5528 31.7752 12.5987 25C12.5528 18.2248 18.2622 12.647 24.9883 12.5957C31.7177 12.6423 37.4326 18.2215 37.3867 25C37.4326 31.7785 31.7177 37.3577 24.9883 37.4043Z" fill="url(#paint0_linear_9176_15851)"/>
<path d="M36.4904 25L27.8918 21.0244L28.5826 23.5718H21.399L22.0898 21.0244L13.4912 25.0029L22.0957 28.9785L21.4049 26.4312H28.5884L27.8976 28.9785L36.4904 25.0029" fill="url(#paint1_linear_9176_15851)"/>
<defs>
<linearGradient id="paint0_linear_9176_15851" x1="24.9886" y1="40.085" x2="24.9886" y2="9.9905" gradientUnits="userSpaceOnUse">
<stop stop-color="#096FD2"/>
<stop offset="1" stop-color="#0E8EE9"/>
</linearGradient>
<linearGradient id="paint1_linear_9176_15851" x1="22.0983" y1="28.9867" x2="22.0957" y2="21.0288" gradientUnits="userSpaceOnUse">
<stop stop-color="#096FD2"/>
<stop offset="1" stop-color="#0E8EE9"/>
</linearGradient>
</defs>
</svg>
