<svg width="50" height="50" viewBox="0 0 50 50" fill="none" xmlns="http://www.w3.org/2000/svg">
<path fill-rule="evenodd" clip-rule="evenodd" d="M28.9938 4.39483C29.1467 4.42158 29.2897 4.48887 29.4079 4.5897C29.526 4.69053 29.6149 4.8212 29.6653 4.96809V5.06636L30.6808 10.2584C32.032 10.7808 33.3051 11.4862 34.4643 12.3549L34.8738 12.6825L39.9677 10.93C40.1292 10.8667 40.3067 10.8565 40.4745 10.9006C40.6423 10.9448 40.7917 11.0411 40.9013 11.1757C42.6963 13.1597 44.0674 15.4894 44.9305 18.022C44.9954 18.1606 45.0145 18.3162 44.9851 18.4664C44.9556 18.6166 44.8791 18.7535 44.7667 18.8573H44.6848L40.6392 22.3788C40.7787 23.1736 40.8445 23.9795 40.8357 24.7864C40.8393 25.4379 40.801 26.089 40.7211 26.7355L40.6392 27.2105L44.6848 30.65C44.8273 30.7495 44.9301 30.896 44.975 31.0638C45.02 31.2316 45.0042 31.4099 44.9305 31.5673C44.0772 34.0971 42.7174 36.4266 40.934 38.4136C40.8384 38.5334 40.7104 38.6232 40.5653 38.6726C40.4201 38.7219 40.2639 38.7287 40.1151 38.692H40.0004L34.9066 36.9068C33.7862 37.8193 32.5463 38.5743 31.2213 39.1507L30.7135 39.3472L29.698 44.5557C29.6633 44.7261 29.5772 44.8819 29.4513 45.0019C29.3253 45.122 29.1657 45.2006 28.9938 45.2272C27.675 45.4684 26.3378 45.5945 24.9973 45.6039C23.6503 45.5839 22.3077 45.4469 20.9844 45.1944C20.8321 45.1661 20.6899 45.0982 20.572 44.9976C20.4542 44.897 20.3648 44.7672 20.3129 44.6212V44.5229L19.3465 39.3144C17.971 38.8048 16.6792 38.0926 15.5139 37.2016L15.1372 36.9068L9.99416 38.6593C9.83226 38.72 9.6555 38.729 9.48828 38.685C9.32106 38.641 9.17161 38.5461 9.06056 38.4136C7.28237 36.4229 5.92321 34.0945 5.0641 31.5673C5.00401 31.4277 4.98749 31.2733 5.01672 31.1243C5.04595 30.9752 5.11956 30.8384 5.22789 30.7319V30.65L9.27349 27.2105C9.13845 26.4098 9.07814 25.5983 9.09332 24.7864C9.08477 24.1408 9.1176 23.4952 9.1916 22.8537L9.27349 22.3788L5.30978 18.9228C5.17111 18.8241 5.07088 18.6805 5.02609 18.5163C4.98131 18.3521 4.99474 18.1774 5.0641 18.022C5.92321 15.4948 7.28237 13.1664 9.06056 11.1757C9.15748 11.0574 9.28555 10.9687 9.43028 10.9195C9.57501 10.8703 9.73062 10.8626 9.87951 10.8972H9.99416L15.088 12.6825C16.2177 11.7536 17.4825 11.0024 18.8388 10.455L19.3465 10.2584L20.3457 5.06636C20.3778 4.90551 20.4549 4.75706 20.5679 4.63821C20.681 4.51936 20.8254 4.43497 20.9844 4.39483C23.6283 3.86839 26.3499 3.86839 28.9938 4.39483ZM24.9973 12.6334C22.589 12.6301 20.2339 13.3415 18.2301 14.6775C16.2263 16.0134 14.664 17.9139 13.7408 20.1382C12.8177 22.3625 12.5754 24.8108 13.0444 27.1729C13.5134 29.5351 14.6728 31.705 16.3757 33.4079C18.0787 35.1108 20.2486 36.2702 22.6108 36.7392C24.973 37.2083 27.4212 36.9659 29.6456 36.0428C31.8699 35.1197 33.7704 33.5573 35.1064 31.5536C36.4423 29.5498 37.1537 27.1947 37.1505 24.7864C37.1505 21.5632 35.8701 18.4721 33.5909 16.1929C31.3117 13.9138 28.2205 12.6334 24.9973 12.6334ZM32.6954 19.4961V23.0994H26.8317V31.7966H23.1628V23.0994H17.3156V19.4961H32.6954Z" fill="#512FC9"/>
</svg>
