<svg width="50" height="50" viewBox="0 0 50 50" fill="none" xmlns="http://www.w3.org/2000/svg">
<path d="M43.0518 20.8731C42.1592 20.1538 41.6538 19.6323 40.8429 18.9405C39.8374 18.3081 35.1964 17.544 32.1513 17.4984C30.0466 17.5862 28.3734 17.4133 29.6602 21.5047C31.283 26.6587 30.5875 33.8856 29.213 37.7378C32.9406 32.6422 36.1203 29.8888 42.3762 25.5539C44.2092 24.2951 44.5687 22.0992 43.0518 20.8731ZM23.3547 24.1402C22.2633 21.94 19.826 17.8142 18.132 17.575C14.6979 17.3806 10.4216 18.1317 9.50993 18.7504C8.66625 19.4699 7.81235 20.1775 6.94849 20.8731C5.4316 22.0992 5.7902 24.2942 7.62402 25.5565C14.7743 30.5058 18.6686 34.3657 22.977 40.77C24.0737 42.41 25.9266 42.41 27.0258 40.77C27.2238 40.474 27.4235 40.1883 27.6197 39.9018C27.2064 34.2702 25.8702 29.1514 23.3547 24.1402ZM24.8456 8C20.5398 8 13.498 13.9956 12.2554 15.1357C13.7949 14.3337 15.5923 13.8553 17.5216 13.4552C17.5216 13.4552 18.7572 13.2022 20.4468 12.9889C21.9674 12.8102 23.4968 12.716 25.0279 12.7066C30.0075 12.7376 34.5886 13.623 37.9966 15.368C36.6681 14.1565 29.1488 8 24.8456 8Z" fill="#63A1D9"/>
</svg>
