<svg width="50" height="50" viewBox="0 0 50 50" fill="none" xmlns="http://www.w3.org/2000/svg">
  <!-- Cloud shape -->
  <path d="M40.5 21.5C40.5 17.5 37.5 14 33 14C32.5 14 32 14.1 31.5 14.2C30 10.5 26.5 8 22.5 8C17 8 12.5 12.5 12.5 18C12.5 18.3 12.5 18.6 12.6 18.9C9.5 19.8 7.5 22.5 7.5 25.5C7.5 29.4 10.6 32.5 14.5 32.5H39C42.6 32.5 45.5 29.6 45.5 26C45.5 23.2 43.4 20.8 40.5 20.2V21.5Z" fill="#0D74BD"/>
  <!-- Shield outline -->
  <path d="M25 44C25 44 35 39 35 31V23L25 19L15 23V31C15 39 25 44 25 44Z" fill="#0D74BD"/>
  <!-- Shield inner (white) -->
  <path d="M25 42C25 42 33 37.5 33 31V24.5L25 21.5L17 24.5V31C17 37.5 25 42 25 42Z" fill="white"/>
  <!-- Checkmark -->
  <path d="M22.5 34L19 30.5L20.8 28.7L22.5 30.4L29.2 23.7L31 25.5L22.5 34Z" fill="#0D74BD"/>
</svg>
