<svg width="50" height="50" viewBox="0 0 50 50" fill="none" xmlns="http://www.w3.org/2000/svg">
<path d="M37.6156 19.3358L34.2221 9.45579C33.9769 8.74231 33.3557 8.20828 32.6013 8.06471L22.0091 6.03846C21.2703 5.89707 20.5004 6.15158 20.0001 6.70192L12.8159 14.5959C12.3044 15.1582 12.1391 15.9511 12.3843 16.6646L15.7779 26.5446C16.023 27.2592 16.6443 27.7921 17.3986 27.9357L27.9908 29.9619C28.1262 29.988 28.2615 30 28.3968 30C29.0014 30 29.5905 29.7477 29.9999 29.2985L37.1841 21.4045C37.6955 20.8433 37.8608 20.0504 37.6156 19.3358ZM33.5154 9.68963L35.7475 16.1871L31.0038 8.84998C30.9018 8.69119 30.7764 8.55197 30.6355 8.43342L32.4604 8.78255C32.9508 8.87608 33.3557 9.22413 33.5154 9.68963ZM30.0187 26.8252L25.8841 27.0308L32.5725 23.235C32.5825 23.2295 32.5925 23.223 32.6024 23.2165L30.9928 26.2151C30.8019 26.5718 30.4281 26.8056 30.0187 26.8252ZM19.6273 26.761L17.291 23.1479C17.3354 23.1795 17.3809 23.2088 17.4286 23.236L24.1702 27.0623C24.2012 27.0797 24.2334 27.0971 24.2656 27.1123L20.6724 27.2907C20.2519 27.3103 19.8514 27.108 19.6273 26.761ZM19.9812 9.17627L24.1158 8.97071L17.4286 12.7665C17.4186 12.772 17.4086 12.7785 17.3986 12.785L19.0083 9.78643C19.1991 9.42969 19.5719 9.19693 19.9812 9.17627ZM30.3737 9.24153L32.71 12.8546C32.6657 12.8231 32.6202 12.7937 32.5725 12.7665L25.8309 8.94134C25.7998 8.92394 25.7677 8.90654 25.7355 8.89131L29.3287 8.71294C29.7469 8.68901 30.1485 8.89349 30.3737 9.24153ZM32.6535 21.8297C32.6535 22.1473 32.4793 22.4442 32.1986 22.6041L25.457 26.4293C25.1753 26.5892 24.8247 26.5892 24.5429 26.4293L17.8024 22.603C17.5218 22.4432 17.3476 22.1473 17.3476 21.8286V14.1717C17.3476 13.8542 17.5218 13.5572 17.8024 13.3974L24.544 9.57217C24.6849 9.49168 24.8425 9.45253 25.0011 9.45253C25.1586 9.45253 25.3173 9.49277 25.4581 9.57217L32.1986 13.3984C32.4793 13.5572 32.6535 13.8542 32.6535 14.1728V21.8297ZM16.6298 22.1245L14.6718 19.0954C14.4488 18.7507 14.4311 18.3113 14.6252 17.9502L16.601 14.2685V21.8286C16.601 21.9298 16.611 22.0277 16.6298 22.1245ZM33.3712 13.877L35.3293 16.906C35.5522 17.2508 35.57 17.6902 35.3758 18.0513L33.399 21.7329V14.1728C33.399 14.0728 33.389 13.9738 33.3712 13.877ZM20.5581 7.18917C20.8254 6.89551 21.2093 6.73128 21.6031 6.73128C21.6908 6.73128 21.7795 6.73998 21.8682 6.7563L28.4812 8.02121L19.9446 8.44538C19.7083 8.45735 19.4809 8.51282 19.2701 8.60418L20.5581 7.18917ZM13.3728 15.0832L18.1242 9.86365L13.9652 17.6108C13.8398 17.8436 13.7699 18.097 13.751 18.3526L13.0921 16.4329C12.9312 15.9663 13.0399 15.4497 13.3728 15.0832ZM16.4845 26.3119L14.2525 19.8144L18.9961 27.1515C19.0982 27.3092 19.2235 27.4495 19.3644 27.5681L17.5406 27.2189C17.0492 27.1254 16.6454 26.7774 16.4845 26.3119ZM29.443 28.8134C29.1168 29.1723 28.6143 29.3387 28.1328 29.2463L21.5199 27.9814L30.0564 27.5572C30.2927 27.5452 30.5202 27.4898 30.7309 27.3984L29.443 28.8134ZM36.6272 20.9183L31.8769 26.1389L36.0359 18.3917C36.1613 18.159 36.2312 17.9056 36.25 17.65L36.909 19.5696C37.0687 20.0351 36.9611 20.5518 36.6272 20.9183Z" fill="#041E42"/>
<path d="M21.9141 34.5205L19.5605 41H18.5986L21.3086 33.8906H21.9287L21.9141 34.5205ZM23.8867 41L21.5283 34.5205L21.5137 33.8906H22.1338L24.8535 41H23.8867ZM23.7646 38.3682V39.1396H19.7705V38.3682H23.7646Z" fill="#1C1D1F"/>
<path d="M26.2451 41L26.2549 40.2334C28.4049 40.2334 30.0195 39.8364 30.0195 37.2256C30.0195 34.9519 28.1594 34.6621 26.2158 34.6621V33.8906C28.5833 33.8906 30.9521 34.5024 30.9521 37.2354C30.9521 40.3076 28.7907 41 26.2451 41ZM26.748 33.8906V41H25.8057V33.8906H26.748Z" fill="#1C1D1F"/>
</svg>
