<svg width="50" height="50" viewBox="0 0 50 50" fill="none" xmlns="http://www.w3.org/2000/svg">
<path d="M37.6156 19.3358L34.2221 9.45579C33.9769 8.74231 33.3557 8.20828 32.6013 8.06471L22.0091 6.03846C21.2703 5.89707 20.5004 6.15158 20.0001 6.70192L12.8159 14.5959C12.3044 15.1582 12.1391 15.9511 12.3843 16.6646L15.7779 26.5446C16.023 27.2592 16.6443 27.7921 17.3986 27.9357L27.9908 29.9619C28.1262 29.988 28.2615 30 28.3968 30C29.0014 30 29.5905 29.7477 29.9999 29.2985L37.1841 21.4045C37.6955 20.8433 37.8608 20.0504 37.6156 19.3358ZM33.5154 9.68963L35.7475 16.1871L31.0038 8.84998C30.9018 8.69119 30.7764 8.55197 30.6355 8.43342L32.4604 8.78255C32.9508 8.87608 33.3557 9.22413 33.5154 9.68963ZM30.0187 26.8252L25.8841 27.0308L32.5725 23.235C32.5825 23.2295 32.5925 23.223 32.6024 23.2165L30.9928 26.2151C30.8019 26.5718 30.4281 26.8056 30.0187 26.8252ZM19.6273 26.761L17.291 23.1479C17.3354 23.1795 17.3809 23.2088 17.4286 23.236L24.1702 27.0623C24.2012 27.0797 24.2334 27.0971 24.2656 27.1123L20.6724 27.2907C20.2519 27.3103 19.8514 27.108 19.6273 26.761ZM19.9812 9.17627L24.1158 8.97071L17.4286 12.7665C17.4186 12.772 17.4086 12.7785 17.3986 12.785L19.0083 9.78643C19.1991 9.42969 19.5719 9.19693 19.9812 9.17627ZM30.3737 9.24153L32.71 12.8546C32.6657 12.8231 32.6202 12.7937 32.5725 12.7665L25.8309 8.94134C25.7998 8.92394 25.7677 8.90654 25.7355 8.89131L29.3287 8.71294C29.7469 8.68901 30.1485 8.89349 30.3737 9.24153ZM32.6535 21.8297C32.6535 22.1473 32.4793 22.4442 32.1986 22.6041L25.457 26.4293C25.1753 26.5892 24.8247 26.5892 24.5429 26.4293L17.8024 22.603C17.5218 22.4432 17.3476 22.1473 17.3476 21.8286V14.1717C17.3476 13.8542 17.5218 13.5572 17.8024 13.3974L24.544 9.57217C24.6849 9.49168 24.8425 9.45253 25.0011 9.45253C25.1586 9.45253 25.3173 9.49277 25.4581 9.57217L32.1986 13.3984C32.4793 13.5572 32.6535 13.8542 32.6535 14.1728V21.8297ZM16.6298 22.1245L14.6718 19.0954C14.4488 18.7507 14.4311 18.3113 14.6252 17.9502L16.601 14.2685V21.8286C16.601 21.9298 16.611 22.0277 16.6298 22.1245ZM33.3712 13.877L35.3292 16.906C35.5522 17.2508 35.57 17.6902 35.3758 18.0513L33.399 21.7329V14.1728C33.399 14.0728 33.389 13.9738 33.3712 13.877ZM20.5581 7.18917C20.8254 6.89551 21.2093 6.73128 21.6031 6.73128C21.6908 6.73128 21.7795 6.73998 21.8682 6.7563L28.4812 8.02121L19.9446 8.44538C19.7083 8.45735 19.4809 8.51282 19.2701 8.60418L20.5581 7.18917ZM13.3728 15.0832L18.1242 9.86365L13.9652 17.6108C13.8398 17.8436 13.7699 18.097 13.751 18.3526L13.0921 16.4329C12.9312 15.9663 13.0399 15.4497 13.3728 15.0832ZM16.4845 26.3119L14.2525 19.8144L18.9961 27.1515C19.0982 27.3092 19.2235 27.4495 19.3644 27.5681L17.5406 27.2189C17.0492 27.1254 16.6454 26.7774 16.4845 26.3119ZM29.443 28.8134C29.1168 29.1723 28.6143 29.3387 28.1328 29.2463L21.5199 27.9814L30.0565 27.5572C30.2927 27.5452 30.5202 27.4898 30.7309 27.3984L29.443 28.8134ZM36.6272 20.9183L31.8769 26.1389L36.0359 18.3917C36.1613 18.159 36.2312 17.9056 36.25 17.65L36.909 19.5696C37.0687 20.0351 36.9611 20.5518 36.6272 20.9183Z" fill="#041E42"/>
<path d="M8.30078 40.001C8.30078 39.6083 8.13068 39.2931 7.08496 39.0879C5.93117 38.8443 5.18066 38.4452 5.18066 37.5645C5.18066 36.722 5.96242 36.0215 7.13867 36.0215C8.4043 36.0215 9.15039 36.758 9.15039 37.6719H8.24707C8.24707 37.0883 7.6568 36.7637 7.13867 36.7637C6.4022 36.7637 6.08887 37.1428 6.08887 37.54C6.08887 37.9216 6.30134 38.131 7.30469 38.3555C8.60352 38.6484 9.2041 39.083 9.2041 39.9326C9.2041 41.0238 8.10506 41.5 7.16309 41.5C6.14815 41.5 5 40.9062 5 39.7715H5.9082C5.94329 40.438 6.54067 40.7578 7.16309 40.7578C7.91369 40.7578 8.30078 40.438 8.30078 40.001Z" fill="black"/>
<path d="M12.2049 40.7578C12.8523 40.7578 13.4016 40.3228 13.45 39.7324H14.3094C14.2544 40.7884 13.1928 41.5 12.2049 41.5C10.6996 41.5 9.85625 40.2506 9.85625 38.8633C9.85625 37.4386 10.6053 36.0215 12.2049 36.0215C13.4402 36.0215 14.2604 36.8379 14.3094 37.9355H13.45C13.4003 37.269 12.8694 36.7637 12.2049 36.7637C11.0662 36.7637 10.7596 37.8937 10.7596 38.8633C10.7596 39.7927 11.094 40.7578 12.2049 40.7578Z" fill="black"/>
<path d="M18.1402 40.499V37.7793C18.1402 37.1511 17.7575 36.749 17.027 36.749C16.3532 36.749 15.8844 37.1385 15.8844 37.584H14.9811C14.9811 36.5484 16.1963 36.0215 17.0807 36.0215C17.8525 36.0215 18.4591 36.2827 18.7896 36.8076C18.9589 37.068 19.0436 37.3952 19.0436 37.7891V40.25C19.0436 40.4258 19.0582 40.613 19.0875 40.8115C19.1198 41.0083 19.2291 41.2067 19.2291 41.4023H18.2867C18.2411 41.2982 18.2053 41.1598 18.1793 40.9873C18.1533 40.8115 18.1402 40.6488 18.1402 40.499ZM18.2965 38.1992L18.3062 38.834C17.4945 38.834 15.777 38.6303 15.777 39.8105C15.777 40.3099 16.1271 40.709 16.7877 40.709C17.3966 40.709 18.1866 40.2886 18.2281 39.6104L18.6139 40.0449C18.4689 40.9145 17.4857 41.5 16.6559 41.5C15.7515 41.5 14.8687 40.9159 14.8687 39.9326C14.8687 38.1313 17.0085 38.1992 18.2965 38.1992Z" fill="black"/>
<path d="M21.0678 37.2471V41.4023H20.1645V36.1191H21.0189L21.0678 37.2471ZM20.8529 38.5605L20.477 38.5459C20.4901 37.0848 21.3665 36.0215 22.6254 36.0215C23.7969 36.0215 24.3197 36.8787 24.3197 37.9404V41.4023H23.4115V37.9307C23.4115 37.0895 23.0332 36.7832 22.3568 36.7832C21.476 36.7832 20.8529 37.5887 20.8529 38.5605Z" fill="black"/>
<path d="M32.001 39.1416H32.9385C32.7817 40.5836 31.706 41.5 30.2432 41.5C28.455 41.5 27.4697 39.8764 27.4697 38.2041C27.4697 36.3079 28.0046 34.1953 30.3262 34.1953C31.7568 34.1953 32.7877 35.1261 32.9385 36.5732H32.001C31.8633 35.57 31.4258 34.9668 30.3262 34.9668C28.5609 34.9668 28.4072 36.8669 28.4072 38.2041C28.4072 39.3612 28.9123 40.7334 30.2432 40.7334C31.4466 40.7334 31.8453 40.134 32.001 39.1416Z" fill="black"/>
<path d="M37.7117 39.6055C37.7117 38.9419 37.382 38.6246 36.0223 38.2285C34.6114 37.8105 33.7176 37.2345 33.7176 36.1289C33.7176 35.0129 34.6883 34.1953 36.1346 34.1953C37.381 34.1953 38.6395 35.0066 38.6395 36.3438H37.702C37.702 35.5349 37.1907 34.9668 36.1346 34.9668C35.1315 34.9668 34.66 35.4513 34.66 36.1191C34.66 36.7201 35.1704 37.0875 36.325 37.4082C37.9373 37.8633 38.659 38.4833 38.659 39.5957C38.659 40.7509 37.6903 41.5 36.1785 41.5C34.9157 41.5 33.493 40.7637 33.493 39.3418H34.4305C34.4305 40.317 35.2772 40.7334 36.1785 40.7334C37.1678 40.7334 37.7117 40.2947 37.7117 39.6055Z" fill="black"/>
<path d="M41.8551 40.3232L43.9498 34.293H44.9703L42.3385 41.4023H41.6109L41.8551 40.3232ZM39.8971 34.293L41.9723 40.3232L42.2311 41.4023H41.5035L38.8766 34.293H39.8971Z" fill="black"/>
</svg>
