<svg width="50" height="50" viewBox="0 0 50 50" fill="none" xmlns="http://www.w3.org/2000/svg">
<path d="M29.0762 41.6667H28.8394C28.7427 41.6145 28.6419 41.5702 28.5381 41.5342C23.6164 40.2168 18.696 38.9042 13.7768 37.5963C13.4421 37.5349 13.1319 37.3798 12.8823 37.149C12.6327 36.9183 12.4539 36.6214 12.367 36.2932C11.0517 31.3719 9.7364 26.4494 8.42109 21.5258C8.31497 21.2029 8.30491 20.8562 8.39214 20.5277C8.47936 20.1992 8.66012 19.903 8.91254 19.6749C12.5189 16.095 16.118 12.5031 19.71 8.89922C19.93 8.65409 20.2166 8.47795 20.535 8.39216C20.8534 8.30637 21.1898 8.31463 21.5036 8.41593C26.375 9.71904 31.2392 11.0329 36.1142 12.3109C36.5036 12.3873 36.8612 12.5781 37.1412 12.8588C37.4211 13.1394 37.6106 13.4972 37.6854 13.8861C38.9625 18.7119 40.2586 23.533 41.5739 28.3492C41.6865 28.6911 41.6968 29.0583 41.6039 29.4061C41.5109 29.7538 41.3185 30.067 41.0502 30.3075C37.6567 33.6798 34.2692 37.0593 30.8877 40.4459C30.3424 40.965 29.8546 41.5271 29.0762 41.6667ZM25.9445 26.0867C26.0199 26.7454 26.0593 27.4113 26.1777 28.0628C26.6476 30.6117 28.2906 32.2836 30.7442 32.6094C33.6606 32.996 35.8524 31.6786 36.8101 29.0903C37.3796 27.5071 37.5037 25.7985 37.1689 24.1499C36.7276 21.7406 35.2461 19.7358 32.3692 19.4279C29.9227 19.1702 27.7417 20.2943 26.7409 22.4279C26.217 23.5769 25.9455 24.8244 25.9445 26.0867ZM22.2569 32.3624V19.7358H20.1046V32.3624H22.2569ZM14.8529 32.6667C15.0775 32.6792 15.3023 32.6462 15.5137 32.5697C15.7251 32.4931 15.9188 32.3746 16.083 32.2213C16.2473 32.0679 16.3787 31.883 16.4693 31.6775C16.56 31.4721 16.6079 31.2505 16.6104 31.0261C16.6128 30.8016 16.5696 30.579 16.4834 30.3717C16.3973 30.1644 16.2699 29.9766 16.109 29.8198C15.9481 29.663 15.757 29.5403 15.5473 29.4592C15.3376 29.3781 15.1136 29.3403 14.8888 29.348C14.4606 29.3627 14.0546 29.5416 13.7553 29.8475C13.4559 30.1534 13.2863 30.5627 13.2816 30.9902C13.277 31.4178 13.4378 31.8306 13.7304 32.1429C14.0231 32.4551 14.4252 32.6427 14.8529 32.6667ZM21.1736 13.6069C20.9707 13.5924 20.767 13.6211 20.5761 13.6912C20.3852 13.7612 20.2113 13.871 20.0661 14.0131C19.921 14.1553 19.8077 14.3267 19.734 14.5159C19.6602 14.7051 19.6276 14.9077 19.6382 15.1105C19.6319 15.3099 19.6673 15.5084 19.7423 15.6934C19.8172 15.8783 19.9301 16.0456 20.0737 16.1844C20.2172 16.3233 20.3882 16.4307 20.5758 16.4998C20.7633 16.5688 20.9633 16.598 21.1628 16.5854C21.3654 16.6004 21.5688 16.573 21.7601 16.5049C21.9514 16.4368 22.1263 16.3295 22.2736 16.19C22.4209 16.0504 22.5373 15.8816 22.6154 15.6945C22.6934 15.5073 22.7314 15.306 22.7268 15.1033C22.7306 14.9012 22.6925 14.7005 22.6151 14.5136C22.5376 14.3268 22.4225 14.158 22.2767 14.0175C22.131 13.8771 21.9578 13.7682 21.768 13.6975C21.5782 13.6269 21.3758 13.596 21.1736 13.6069Z" fill="#0172C0"/>
<path d="M25.9445 26.0867C25.9435 24.8314 26.2101 23.5904 26.7266 22.4458C27.7274 20.2979 29.9084 19.1881 32.3549 19.4458C35.2246 19.7537 36.7133 21.7585 37.1545 24.1678C37.4894 25.8164 37.3653 27.525 36.7958 29.1082C35.838 31.6965 33.6463 33.0139 30.7299 32.6273C28.2762 32.3015 26.6333 30.6297 26.1634 28.0807C26.0593 27.4113 26.0091 26.7418 25.9445 26.0867ZM28.3552 26.0258L28.2439 26.0473C28.3664 26.985 28.5425 27.9149 28.7713 28.8325C29.1981 30.2394 30.2061 30.9125 31.641 30.9161C33.0759 30.9196 34.0875 30.2394 34.5359 28.8468C35.1384 27.0093 35.1384 25.028 34.5359 23.1905C34.1018 21.8516 33.1369 21.2 31.7343 21.1714C31.1085 21.1237 30.4846 21.2845 29.9602 21.6285C29.4357 21.9724 29.0403 22.4802 28.8358 23.0723C28.4888 24.0174 28.3257 25.0198 28.3552 26.0258Z" fill="#FCFDFE"/>
<path d="M22.2569 32.3624H20.1046V19.7358H22.2569V32.3624Z" fill="#FEFEFE"/>
<path d="M14.8529 32.6667C14.5239 32.6624 14.2037 32.5609 13.9325 32.375C13.6612 32.1891 13.4513 31.9272 13.3292 31.6223C13.207 31.3173 13.1782 30.9832 13.2463 30.6619C13.3144 30.3406 13.4764 30.0467 13.7118 29.8173C13.9472 29.5879 14.2454 29.4332 14.5689 29.3729C14.8923 29.3125 15.2264 29.3492 15.529 29.4783C15.8315 29.6074 16.0889 29.823 16.2687 30.098C16.4485 30.3731 16.5426 30.6951 16.5391 31.0234C16.5391 31.2426 16.4953 31.4595 16.4101 31.6615C16.3249 31.8635 16.2 32.0464 16.043 32.1995C15.8859 32.3526 15.6997 32.4728 15.4953 32.5531C15.291 32.6333 15.0725 32.6719 14.8529 32.6667Z" fill="#FCFDFD"/>
<path d="M21.1736 13.6069C21.3758 13.596 21.5782 13.6269 21.768 13.6975C21.9578 13.7682 22.131 13.8771 22.2767 14.0175C22.4225 14.158 22.5376 14.3268 22.6151 14.5136C22.6925 14.7005 22.7306 14.9012 22.7268 15.1033C22.7314 15.306 22.6934 15.5073 22.6154 15.6945C22.5373 15.8816 22.4209 16.0504 22.2736 16.19C22.1263 16.3295 21.9514 16.4368 21.7601 16.5049C21.5688 16.573 21.3654 16.6004 21.1628 16.5854C20.9633 16.598 20.7633 16.5688 20.5758 16.4998C20.3882 16.4307 20.2172 16.3233 20.0737 16.1844C19.9301 16.0456 19.8172 15.8783 19.7423 15.6934C19.6673 15.5084 19.6319 15.3099 19.6382 15.1105C19.6276 14.9077 19.6602 14.7051 19.734 14.5159C19.8077 14.3267 19.921 14.1553 20.0661 14.0131C20.2113 13.871 20.3852 13.7612 20.5761 13.6912C20.767 13.6211 20.9707 13.5924 21.1736 13.6069Z" fill="#FBFCFD"/>
<path d="M28.3552 26.0258C28.3222 25.0205 28.4816 24.0181 28.8249 23.0723C29.0294 22.4802 29.4248 21.9724 29.9492 21.6284C30.4737 21.2845 31.0976 21.1237 31.7234 21.1714C33.126 21.2 34.0909 21.8516 34.525 23.1905C35.1275 25.028 35.1275 27.0093 34.525 28.8468C34.0766 30.2394 33.0614 30.9196 31.6301 30.916C30.1988 30.9125 29.1836 30.2394 28.7604 28.8325C28.5316 27.9149 28.3555 26.985 28.233 26.0473L28.3552 26.0258Z" fill="#0272C0"/>
</svg>
