<svg width="50" height="50" viewBox="0 0 50 50" fill="none" xmlns="http://www.w3.org/2000/svg">
<path d="M42.8423 26.6088L38.2594 12.9955C37.9069 11.9108 36.9577 11.0972 35.8459 10.8803L21.5276 8.06001C20.4429 7.84306 19.2768 8.22272 18.5175 9.06338L8.80923 19.9648C8.04993 20.8326 7.80587 22.0258 8.1584 23.1105L12.7413 36.7238C13.0939 37.8085 14.043 38.6221 15.1548 38.839L29.4732 41.6322C29.663 41.6593 29.8799 41.6864 30.0698 41.6864C30.9918 41.6864 31.8595 41.3068 32.4561 40.6288L42.1644 29.7545C42.9508 28.8867 43.1949 27.6935 42.8423 26.6088ZM40.9983 28.6697L31.2901 39.5441C30.9104 39.9509 30.3409 40.1407 29.7986 40.0322L15.4803 37.2391C14.9108 37.1306 14.4769 36.7238 14.2871 36.2086L9.70413 22.5953C9.5143 22.0529 9.64989 21.4563 10.0295 21.0496L19.7378 10.1481C20.0361 9.82268 20.47 9.63286 20.9039 9.63286C21.0123 9.63286 21.0937 9.63286 21.2022 9.65997L35.5205 12.4531C36.09 12.5616 36.5238 12.9684 36.7137 13.5107L41.2966 27.124C41.4864 27.6393 41.378 28.2359 40.9983 28.6697Z" fill="#041E42"/>
</svg>
