<svg width="50" height="50" viewBox="0 0 50 50" fill="none" xmlns="http://www.w3.org/2000/svg">
<rect width="50" height="50" fill="#19203F"/>
<path d="M36.3289 24.8168C36.3289 26.9959 34.5686 28.7623 32.3973 28.7623C30.226 28.7623 28.4657 26.9959 28.4657 24.8168C28.4657 22.6378 30.226 20.8714 32.3973 20.8714C34.5686 20.8714 36.3289 22.6378 36.3289 24.8168Z" fill="#43619E"/>
<path d="M36.6313 10.0972C36.6313 11.8571 35.5257 13.3578 33.9735 13.938C33.0694 14.2759 32.0719 14.3189 31.1736 14.6722C30.1964 15.0565 29.639 15.3842 28.7682 15.7119C26.3683 16.9555 24.2728 19.2439 23.3245 21.7819C22.2943 24.5351 22.1786 25.1207 23.1733 27.7001C24.2095 30.3915 26.3673 32.7245 28.9818 33.9249C30.0139 34.3988 31.7407 35.5021 32.7152 35.5021C35.0536 35.5021 36.9492 37.4044 36.9492 39.751C36.9492 42.0977 35.0536 44 32.7152 44C30.3769 44 28.4812 42.0977 28.4812 39.751C28.4812 38.3205 27.4317 36.8975 26.7787 35.6332C25.5772 33.3071 23.5267 31.575 21.1026 30.6019L18.4284 29.5252C18.1679 29.4204 17.8903 29.3686 17.6122 29.331C15.5439 29.0512 13.9492 27.2726 13.9492 25.1203C13.9492 22.7737 15.8448 20.8714 18.1832 20.8714C19.2165 20.8714 20.4382 19.9665 21.3691 19.5305C23.7192 18.4299 26.0116 16.7062 27.1048 14.3462C27.6308 13.2106 28.1633 12.9804 28.4657 10.0972C28.4657 7.83439 30.2937 6 32.5485 6C34.8034 6 36.6313 7.83439 36.6313 10.0972Z" fill="white"/>
</svg>
