<svg width="50" height="50" viewBox="0 0 50 50" fill="none" xmlns="http://www.w3.org/2000/svg">
<rect width="50" height="50" fill="#1A2F5A"/>
<path d="M25.0654 10.5C23.8311 10.4999 22.8031 11.5206 22.7644 12.7486C22.7256 13.9768 23.6871 15.0612 24.919 15.1403C26.1534 15.1404 27.1813 14.1197 27.2201 12.8917C27.2588 11.6635 26.2973 10.5791 25.0654 10.5Z" fill="#FE0242"/>
<path d="M37.2909 10.6406C36.0906 10.6117 35.0654 11.6434 35.0864 12.8506C35.0888 14.057 36.0788 15.0839 37.2909 15.1004C38.4938 15.0708 39.476 14.0599 39.5 12.8623C39.5012 11.6708 38.4998 10.6354 37.2909 10.6406Z" fill="#FE0242"/>
<path d="M12.7701 10.6407C11.5243 10.5866 10.4735 11.6568 10.5005 12.8835C10.5175 14.0859 11.5425 15.0954 12.7387 15.0783C13.947 15.0609 14.9309 14.0113 14.9141 12.8202C14.902 11.6521 13.9434 10.662 12.7701 10.6407Z" fill="#FE0242"/>
<path d="M27.1908 19.0026C27.1745 17.8 26.1669 16.7924 24.9584 16.8066C23.7593 16.8728 22.7959 17.8868 22.7632 19.0823C22.827 20.2796 23.8332 21.2631 25.0374 21.2712C26.2329 21.2511 27.2225 20.2042 27.1908 19.0026Z" fill="#FE0242"/>
<path d="M27.0725 25.1474C27.0469 24.0239 26.0727 23.0734 24.933 23.1179C23.7936 23.1496 22.8788 24.1327 22.9005 25.2669C22.9234 26.3987 23.8542 27.3527 24.9911 27.3762C26.1628 27.3632 27.1292 26.3244 27.0725 25.1474Z" fill="#FE0242"/>
<path d="M31.1816 17.8987C32.2724 17.9261 33.1984 16.9754 33.1561 15.8786C33.1617 14.7916 32.2338 13.8513 31.1305 13.8842C30.0398 13.8854 29.1225 14.8266 29.1351 15.9231C29.1446 17.0091 30.0797 17.938 31.1816 17.8987Z" fill="white"/>
<path d="M18.9073 17.8964C20.0035 17.9158 20.9287 16.9571 20.8841 15.8551C20.8609 14.7573 19.9326 13.8451 18.8295 13.8689C17.7262 13.8927 16.8375 14.8439 16.8608 15.9418C16.8631 17.0272 17.8063 17.9549 18.9073 17.8964Z" fill="white"/>
<path d="M23.0351 31.4142C23.0473 32.5178 24.0167 33.4302 25.1118 33.3618C26.1401 33.2738 26.9493 32.3905 26.9701 31.3627C26.9423 30.3034 25.9852 29.3589 24.9794 29.3987C23.9224 29.448 23.0072 30.3854 23.0351 31.4142Z" fill="#FE0242"/>
<path d="M29.2722 22.0328C29.2067 23.0899 30.0958 24.0416 31.1724 24.0038C32.198 24.0168 33.0681 23.1344 33.054 22.1031C33.0728 21.0712 32.235 20.1796 31.198 20.1603C30.161 20.141 29.2911 21.0009 29.2722 22.0328Z" fill="white"/>
<path d="M18.9143 20.1884C17.8586 20.1731 16.9555 21.0676 16.9468 22.1289C16.9716 23.1587 17.8375 24.0156 18.8725 24.0038C19.8954 24.0076 20.7621 23.1338 20.7633 22.1055C20.786 21.0906 19.9446 20.1934 18.9143 20.1884Z" fill="white"/>
<path d="M10.7909 19.115C10.7896 20.1335 11.646 21.0185 12.6794 21.0133C13.715 21.0227 14.5823 20.1687 14.6144 19.1385C14.6378 18.085 13.7471 17.1608 12.6771 17.1862C11.6461 17.2184 10.8086 18.0883 10.7909 19.115Z" fill="white"/>
<path d="M37.2582 21.0111C38.2822 21.0516 39.17 20.1832 39.1654 19.1526C39.2414 18.1316 38.4036 17.1971 37.3628 17.2027C36.3048 17.1345 35.3732 18.0298 35.3859 19.0963C35.3734 20.1157 36.2237 21.0098 37.2582 21.0111Z" fill="white"/>
<path d="M26.8098 37.6505C26.8098 36.5725 26.0642 35.7757 25.0351 35.7757C24.0009 35.7292 23.1171 36.5975 23.1063 37.6171C23.0954 38.6471 23.9715 39.5235 24.9956 39.4996C26.0016 39.5131 26.8328 38.641 26.8098 37.6505Z" fill="#FE0242"/>
<path d="M18.8792 26.6356C17.9602 26.6009 17.1633 27.3783 17.1633 28.3031C17.1633 29.2185 17.9503 30.0057 18.8792 29.9706C19.7447 29.9714 20.4686 29.2612 20.5052 28.4004C20.5605 27.4824 19.8132 26.6472 18.8792 26.6356Z" fill="white"/>
<path d="M35.6673 25.2623C35.6558 25.9263 36.07 26.5652 36.6776 26.8206C37.6261 27.2194 38.7469 26.6017 38.9264 25.5806C39.1036 24.5729 38.2797 23.5899 37.2376 23.6359C36.3777 23.6459 35.6547 24.3976 35.6673 25.2623Z" fill="white"/>
<path d="M29.5346 28.2762C29.5169 29.1728 30.248 29.9496 31.1491 29.9636C32.032 29.9425 32.7512 29.1968 32.7616 28.3177C32.7721 27.4385 32.0708 26.6756 31.1886 26.6333C30.2813 26.604 29.5201 27.3827 29.5346 28.2762Z" fill="white"/>
<path d="M11.1276 25.4053C11.1314 26.2663 11.8443 26.9953 12.7095 26.9966C13.6215 26.9805 14.3616 26.1859 14.346 25.2869C14.3304 24.3794 13.5542 23.62 12.6515 23.6359C11.7525 23.671 11.0997 24.4303 11.1276 25.4053Z" fill="white"/>
<path d="M37.2931 30.0011C36.5962 29.98 35.8993 30.6807 35.8645 31.426C35.874 32.1836 36.48 32.8327 37.2397 32.8767C37.995 32.8619 38.634 32.2675 38.7194 31.5197C38.706 30.7327 38.0814 30.0576 37.2931 30.0011Z" fill="white"/>
<path d="M31.1955 35.8225C31.9741 35.8406 32.6255 35.1602 32.6043 34.3944C32.5829 33.6201 31.886 32.9865 31.1188 33.0477C30.3639 33.0664 29.6856 33.7508 29.7251 34.4843C29.775 35.2424 30.4328 35.8506 31.1955 35.8225Z" fill="white"/>
<path d="M18.8422 33.0477C18.0736 33.0183 17.439 33.6997 17.4902 34.4539C17.5018 35.2882 18.05 35.8202 18.884 35.8108C19.6582 35.8548 20.3013 35.1632 20.2359 34.4047C20.222 33.5633 19.6715 33.0243 18.8422 33.0477Z" fill="white"/>
<path d="M11.311 31.4799C11.3221 32.2078 11.899 32.833 12.6281 32.886C13.3934 32.9256 14.0547 32.2784 14.0614 31.5244C14.1104 30.7345 13.4655 30.0226 12.6792 30.0034C11.9916 29.9987 11.3273 30.7205 11.311 31.4799Z" fill="white"/>
</svg>
