<svg width="50" height="50" viewBox="0 0 50 50" fill="none" xmlns="http://www.w3.org/2000/svg">
<path d="M25.0654 12.5C23.8311 12.4999 22.8031 13.5206 22.7644 14.7486C22.7256 15.9768 23.6871 17.0612 24.919 17.1403C26.1534 17.1404 27.1813 16.1197 27.2201 14.8917C27.2588 13.6635 26.2973 12.5791 25.0654 12.5Z" fill="#FE0343"/>
<path d="M37.2909 12.6406C36.0906 12.6117 35.0654 13.6434 35.0864 14.8506C35.0888 16.057 36.0788 17.0839 37.2909 17.1004C38.4938 17.0708 39.476 16.0599 39.5 14.8623C39.5012 13.6708 38.4998 12.6354 37.2909 12.6406Z" fill="#FE0243"/>
<path d="M12.7701 12.6407C11.5243 12.5866 10.4735 13.6568 10.5005 14.8835C10.5175 16.0859 11.5425 17.0954 12.7387 17.0783C13.947 17.0609 14.9309 16.0113 14.9141 14.8202C14.902 13.6521 13.9434 12.662 12.7701 12.6407Z" fill="#FE0243"/>
<path d="M27.1908 21.0026C27.1745 19.8 26.1669 18.7924 24.9584 18.8066C23.7593 18.8728 22.7959 19.8868 22.7632 21.0823C22.827 22.2796 23.8332 23.2631 25.0374 23.2712C26.2329 23.2511 27.2225 22.2042 27.1908 21.0026Z" fill="#FE0243"/>
<path d="M27.0725 27.1474C27.0469 26.0239 26.0727 25.0734 24.933 25.1179C23.7936 25.1496 22.8788 26.1327 22.9005 27.2669C22.9234 28.3987 23.8542 29.3527 24.9911 29.3762C26.1628 29.3632 27.1292 28.3244 27.0725 27.1474Z" fill="#FE0242"/>
<path d="M31.1816 19.8987C32.2724 19.9261 33.1984 18.9754 33.1561 17.8786C33.1617 16.7916 32.2338 15.8513 31.1305 15.8842C30.0398 15.8854 29.1225 16.8266 29.1351 17.9231C29.1446 19.0091 30.0797 19.938 31.1816 19.8987Z" fill="#182D59"/>
<path d="M18.9073 19.8964C20.0035 19.9158 20.9287 18.9571 20.8841 17.8551C20.8609 16.7573 19.9326 15.8451 18.8295 15.8689C17.7262 15.8927 16.8375 16.8439 16.8608 17.9418C16.8631 19.0272 17.8063 19.9549 18.9073 19.8964Z" fill="#172B58"/>
<path d="M23.0351 33.4142C23.0473 34.5178 24.0167 35.4302 25.1118 35.3618C26.1401 35.2738 26.9493 34.3905 26.9701 33.3627C26.9423 32.3034 25.9852 31.3589 24.9794 31.3987C23.9224 31.448 23.0072 32.3854 23.0351 33.4142Z" fill="#FE0243"/>
<path d="M29.2722 24.0328C29.2067 25.0899 30.0958 26.0416 31.1724 26.0038C32.198 26.0168 33.0681 25.1344 33.054 24.1031C33.0728 23.0712 32.235 22.1796 31.198 22.1603C30.161 22.141 29.2911 23.0009 29.2722 24.0328Z" fill="#182C59"/>
<path d="M18.9143 22.1884C17.8586 22.1731 16.9555 23.0676 16.9468 24.1289C16.9716 25.1587 17.8375 26.0156 18.8725 26.0038C19.8954 26.0076 20.7621 25.1338 20.7633 24.1055C20.786 23.0906 19.9446 22.1934 18.9143 22.1884Z" fill="#192D59"/>
<path d="M10.7909 21.115C10.7896 22.1335 11.646 23.0185 12.6794 23.0133C13.715 23.0227 14.5823 22.1687 14.6144 21.1385C14.6378 20.085 13.7471 19.1608 12.6771 19.1862C11.6461 19.2184 10.8086 20.0883 10.7909 21.115Z" fill="#182D59"/>
<path d="M37.2582 23.0111C38.2822 23.0516 39.17 22.1832 39.1654 21.1526C39.2414 20.1316 38.4036 19.1971 37.3628 19.2027C36.3048 19.1345 35.3732 20.0298 35.3859 21.0963C35.3734 22.1157 36.2237 23.0098 37.2582 23.0111Z" fill="#172C58"/>
<path d="M26.8098 39.6505C26.8098 38.5725 26.0642 37.7757 25.0351 37.7757C24.0009 37.7292 23.1171 38.5975 23.1063 39.6171C23.0954 40.6471 23.9715 41.5235 24.9956 41.4996C26.0016 41.5131 26.8328 40.641 26.8098 39.6505Z" fill="#FE0343"/>
<path d="M18.8792 28.6356C17.9602 28.6009 17.1633 29.3783 17.1633 30.3031C17.1633 31.2185 17.9503 32.0057 18.8792 31.9706C19.7447 31.9714 20.4686 31.2612 20.5052 30.4004C20.5605 29.4824 19.8132 28.6472 18.8792 28.6356Z" fill="#182D59"/>
<path d="M35.6673 27.2623C35.6558 27.9263 36.07 28.5652 36.6776 28.8206C37.6261 29.2194 38.7469 28.6017 38.9264 27.5806C39.1036 26.5729 38.2797 25.5899 37.2376 25.6359C36.3777 25.6459 35.6547 26.3976 35.6673 27.2623Z" fill="#192E5A"/>
<path d="M29.5346 30.2762C29.5169 31.1728 30.248 31.9496 31.1491 31.9636C32.032 31.9425 32.7512 31.1968 32.7616 30.3177C32.7721 29.4385 32.0708 28.6756 31.1886 28.6333C30.2813 28.604 29.5201 29.3827 29.5346 30.2762Z" fill="#182C59"/>
<path d="M11.1276 27.4053C11.1314 28.2663 11.8443 28.9953 12.7095 28.9966C13.6215 28.9805 14.3616 28.1859 14.346 27.2869C14.3304 26.3794 13.5542 25.62 12.6515 25.6359C11.7525 25.671 11.0997 26.4303 11.1276 27.4053Z" fill="#182D59"/>
<path d="M37.2931 32.0011C36.5962 31.98 35.8993 32.6807 35.8645 33.426C35.874 34.1836 36.48 34.8327 37.2397 34.8767C37.995 34.8619 38.634 34.2675 38.7194 33.5197C38.706 32.7327 38.0814 32.0576 37.2931 32.0011Z" fill="#1A2F5A"/>
<path d="M31.1955 37.8225C31.9741 37.8406 32.6255 37.1602 32.6043 36.3944C32.5829 35.6201 31.886 34.9865 31.1188 35.0477C30.3639 35.0664 29.6856 35.7508 29.7251 36.4843C29.775 37.2424 30.4328 37.8506 31.1955 37.8225Z" fill="#192D59"/>
<path d="M18.8422 35.0477C18.0736 35.0183 17.439 35.6997 17.4902 36.4539C17.5018 37.2882 18.05 37.8202 18.884 37.8108C19.6582 37.8548 20.3013 37.1632 20.2359 36.4047C20.222 35.5633 19.6715 35.0243 18.8422 35.0477Z" fill="#192E5A"/>
<path d="M11.311 33.4799C11.3221 34.2078 11.899 34.833 12.6281 34.886C13.3934 34.9256 14.0547 34.2784 14.0614 33.5244C14.1104 32.7345 13.4655 32.0226 12.6792 32.0034C11.9916 31.9987 11.3273 32.7205 11.311 33.4799Z" fill="#192E5A"/>
</svg>
