<svg width="50" height="50" viewBox="0 0 50 50" fill="none" xmlns="http://www.w3.org/2000/svg">
<path d="M37.9722 8.92902V24.5653L25.1042 32.999L12 24.5653V13.9158H15.1679L15.1937 23.1406L25.1042 29.5158L35.0505 23.0215L35.0127 8.92902H37.9722Z" fill="#231556"/>
<path d="M18.6196 18.6281L23.7207 23.7742L32.5197 14.9067L30.3403 12.9269L23.7584 19.6169L20.7216 16.6079L18.6196 18.6281Z" fill="#231556"/>
<path d="M15.154 8.92902H12V13.9178H15.154V8.92902Z" fill="#00FF5A"/>
<path d="M38 5.99902H15.154L15.154 8.92902L38 8.92932V5.99902Z" fill="#00FF5A"/>
<path fill-rule="evenodd" clip-rule="evenodd" d="M18.7676 42.2119H20.4473C20.9844 42.2119 21.4385 42.1289 21.8096 41.9629C22.1807 41.7936 22.4622 41.5479 22.6543 41.2256C22.8464 40.9033 22.9424 40.5143 22.9424 40.0586C22.9424 39.6387 22.8464 39.266 22.6543 38.9404C22.4622 38.6117 22.1807 38.3545 21.8096 38.1689C21.4385 37.9834 20.9844 37.8906 20.4473 37.8906H17.8252V45H18.7676V42.2119ZM18.7676 41.4453V38.6621H20.4473C20.8151 38.6621 21.113 38.7288 21.3408 38.8623C21.5687 38.9925 21.7347 39.165 21.8389 39.3799C21.9463 39.5947 22 39.8242 22 40.0684C22 40.3353 21.9463 40.5729 21.8389 40.7812C21.7347 40.9896 21.5687 41.1523 21.3408 41.2695C21.113 41.3867 20.8151 41.4453 20.4473 41.4453H18.7676Z" fill="black"/>
<path d="M25.1447 37.8906H23.9338V45H24.8713V42.2266L24.7806 39.2455L27.1125 45H27.8254L30.1619 39.2535L30.0715 42.2266V45H31.009V37.8906H29.798L27.4738 43.6865L25.1447 37.8906Z" fill="black"/>
</svg>
