<svg width="50" height="50" viewBox="0 0 50 50" fill="none" xmlns="http://www.w3.org/2000/svg">
<rect width="50" height="50" fill="black"/>
<path fill-rule="evenodd" clip-rule="evenodd" d="M20.4983 8C16.4744 8 12.9165 10.6111 11.7123 14.448L8.40039 25L11.7123 35.552C12.9165 39.3889 16.4744 42 20.4983 42H29.4194C33.4433 42 37.0012 39.3889 38.2054 35.552L41.5173 25L38.2054 14.448C37.0012 10.6111 33.4433 8 29.4194 8H20.4983ZM29.4195 10.6524C32.2836 10.6524 34.8159 12.5108 35.673 15.2418L36.485 17.8288C34.8515 16.4804 32.783 15.7214 30.6212 15.7213L19.2724 15.721C17.125 15.7211 15.0698 16.4699 13.4416 17.8014L14.2449 15.2418C15.102 12.5108 17.6344 10.6524 20.4984 10.6524H29.4195ZM14.0542 20.961L11.992 23.6739H37.9013L35.8393 20.9613C34.6001 19.3311 32.6696 18.3738 30.621 18.3736H19.2106C17.1851 18.3929 15.2808 19.3473 14.0542 20.961ZM37.8971 26.3262L35.8392 29.0363C34.5999 30.6683 32.6679 31.6268 30.6178 31.6266L19.2755 31.6264C17.2253 31.6265 15.2933 30.668 14.054 29.036L11.9964 26.3262H37.8971ZM14.2447 34.7582C15.1019 37.4892 17.6342 39.3477 20.4983 39.3477H29.4194C32.2833 39.3477 34.8157 37.4892 35.6728 34.7582L36.4854 32.1693C34.8512 33.5193 32.7812 34.2791 30.6176 34.279L19.2756 34.2787C17.1265 34.2789 15.0696 33.5291 13.4406 32.196L14.2447 34.7582Z" fill="white"/>
</svg>
