<svg width="50" height="50" viewBox="0 0 50 50" fill="none" xmlns="http://www.w3.org/2000/svg">
<path fill-rule="evenodd" clip-rule="evenodd" d="M20.4979 8C16.474 8 12.9161 10.6111 11.7119 14.448L8.40002 25L11.7119 35.552C12.9161 39.3889 16.474 42 20.4979 42H29.419C33.4429 42 37.0008 39.3889 38.205 35.552L41.5169 25L38.205 14.448C37.0008 10.6111 33.4429 8 29.419 8H20.4979ZM29.4191 10.6524C32.2832 10.6524 34.8155 12.5108 35.6727 15.2418L36.4846 17.8288C34.8511 16.4804 32.7827 15.7214 30.6208 15.7213L19.272 15.721C17.1246 15.7211 15.0695 16.4699 13.4412 17.8014L14.2445 15.2418C15.1017 12.5108 17.634 10.6524 20.498 10.6524H29.4191ZM14.0538 20.961L11.9916 23.6739H37.9009L35.8389 20.9613C34.5998 19.3311 32.6692 18.3738 30.6206 18.3736H19.2102C17.1847 18.3929 15.2805 19.3473 14.0538 20.961ZM37.8967 26.3262L35.8388 29.0363C34.5995 30.6683 32.6675 31.6268 30.6174 31.6266L19.2751 31.6264C17.225 31.6265 15.2929 30.668 14.0537 29.036L11.996 26.3262H37.8967ZM14.2444 34.7582C15.1015 37.4892 17.6339 39.3477 20.4979 39.3477H29.419C32.283 39.3477 34.8153 37.4892 35.6725 34.7582L36.4851 32.1693C34.8508 33.5193 32.7809 34.2791 30.6172 34.279L19.2752 34.2787C17.1261 34.2789 15.0692 33.5291 13.4402 32.196L14.2444 34.7582Z" fill="black"/>
</svg>
