<svg width="50" height="50" viewBox="0 0 50 50" fill="none" xmlns="http://www.w3.org/2000/svg">
<path fill-rule="evenodd" clip-rule="evenodd" d="M27.1 13.0901H42.48C42.48 15.3294 41.5911 17.4772 40.0086 19.0616C38.4261 20.646 36.2794 21.5374 34.04 21.5401H27.1V13.0901Z" fill="#5DCFFA"/>
<path fill-rule="evenodd" clip-rule="evenodd" d="M27.1 34.1601L35.54 36.8901V21.5601H27.1V34.1601Z" fill="#0054FF"/>
<path fill-rule="evenodd" clip-rule="evenodd" d="M22.91 21.5601H15.97C12.5993 21.5561 9.4512 19.4556 8.16018 16.3284C7.73623 15.3014 7.51871 14.2011 7.52003 13.0901H22.91V21.5601Z" fill="#5DCFFA"/>
<path fill-rule="evenodd" clip-rule="evenodd" d="M14.46 36.8901L22.91 34.1601V21.5601H14.46V36.8901Z" fill="#0054FF"/>
<path fill-rule="evenodd" clip-rule="evenodd" d="M14.46 21.5601C14.46 21.5101 14.46 21.4701 14.46 21.4201C14.46 21.3701 14.46 21.5101 14.46 21.5601Z" fill="#F7FAFF"/>
<path fill-rule="evenodd" clip-rule="evenodd" d="M15.97 21.5601H22.91L14.46 24.3701V21.5601C14.46 21.5101 14.46 21.4701 14.46 21.4201C14.958 21.5133 15.4634 21.5602 15.97 21.5601Z" fill="#1A31AE"/>
<path fill-rule="evenodd" clip-rule="evenodd" d="M34.04 21.5601H27.1L35.54 24.3701V21.4201C35.0453 21.5122 34.5432 21.559 34.04 21.5601Z" fill="#1A31AE"/>
</svg>
