<svg width="50" height="50" viewBox="0 0 50 50" fill="none" xmlns="http://www.w3.org/2000/svg">
<path d="M33.3993 16.4244C34.5859 16.4244 35.4883 16.1703 36.1063 15.6747C36.7244 15.1665 37.0334 14.4422 37.0334 13.4892C37.0334 12.6252 36.7367 11.9263 36.131 11.3799C35.5253 10.8335 34.7342 10.5667 33.7577 10.5667C32.7689 10.5667 31.6811 10.8844 30.4697 11.5197V8.85133C31.5698 8.27954 32.7812 8 34.0791 8C35.822 8 37.2064 8.47014 38.2077 9.41042C39.2213 10.3507 39.7157 11.6341 39.7157 13.2605C39.7157 14.2516 39.5179 15.0775 39.1347 15.751C38.7515 16.4244 38.1211 16.9962 37.2806 17.4917C38.0223 17.784 38.5661 18.1525 38.9122 18.5845C39.2583 19.0165 39.5179 19.5375 39.7157 20.1601C39.9011 20.77 40 21.4307 40 22.1169C40 23.8196 39.4438 25.23 38.3436 26.3355C37.2435 27.4536 35.8467 28 34.1656 28C32.7318 28 31.335 27.6442 30 26.9199V23.8831C31.4339 24.798 32.8183 25.2681 34.1656 25.2681C35.0803 25.2681 35.8096 24.9886 36.3659 24.4295C36.9221 23.8704 37.1941 23.1334 37.1941 22.2058C37.1941 21.4307 36.9592 20.7573 36.5019 20.1855C36.2299 19.8551 35.9333 19.6264 35.5995 19.474C35.2658 19.3215 34.5612 19.169 33.4611 19.0292L33.2138 19.0038V16.4244H33.3993Z" fill="#00A9EA"/>
<path fill-rule="evenodd" clip-rule="evenodd" d="M18 11H11V8H28V11H18ZM18 11L18 28H21L21 11L18 11Z" fill="#00A9EA"/>
<path d="M17.8804 39.7085V40.3984H14.6812V39.7085H17.8804ZM14.8481 34V40.3984H14V34H14.8481Z" fill="black"/>
<path d="M21.3081 34.5669L19.1899 40.3984H18.3242L20.7632 34H21.3213L21.3081 34.5669ZM23.0835 40.3984L20.9609 34.5669L20.9478 34H21.5059L23.9536 40.3984H23.0835ZM22.9736 38.0298V38.7241H19.3789V38.0298H22.9736Z" fill="black"/>
<path d="M25.0786 34H25.9004L27.9966 39.2163L30.0884 34H30.9146L28.313 40.3984H27.6714L25.0786 34ZM24.8105 34H25.5356L25.6543 37.9023V40.3984H24.8105V34ZM30.4531 34H31.1782V40.3984H30.3345V37.9023L30.4531 34Z" fill="black"/>
<path d="M35.0278 37.8892H33.3184V37.1992H35.0278C35.3589 37.1992 35.627 37.1465 35.832 37.041C36.0371 36.9355 36.1865 36.7891 36.2803 36.6016C36.377 36.4141 36.4253 36.2002 36.4253 35.96C36.4253 35.7402 36.377 35.5337 36.2803 35.3403C36.1865 35.147 36.0371 34.9917 35.832 34.8745C35.627 34.7544 35.3589 34.6943 35.0278 34.6943H33.5161V40.3984H32.668V34H35.0278C35.5112 34 35.9199 34.0835 36.2539 34.2505C36.5879 34.4175 36.8413 34.6489 37.0142 34.9448C37.187 35.2378 37.2734 35.5732 37.2734 35.9512C37.2734 36.3613 37.187 36.7114 37.0142 37.0015C36.8413 37.2915 36.5879 37.5127 36.2539 37.665C35.9199 37.8145 35.5112 37.8892 35.0278 37.8892Z" fill="black"/>
</svg>
