<svg width="50" height="50" viewBox="0 0 50 50" fill="none" xmlns="http://www.w3.org/2000/svg">
<path d="M34.9967 17.8101C34.3829 17.9278 34.0501 18.2742 33.9778 18.8762C33.9411 19.1834 33.867 19.4858 33.8233 19.7924C33.739 20.3848 34.2028 20.7809 34.7771 20.614L34.9967 20.5492V24.7696C34.9967 26.4306 33.951 27.6814 32.318 27.9684C32.1978 27.9856 32.0763 27.9925 31.9548 27.9889C27.3167 27.9889 22.6795 27.9889 18.0432 27.9889C16.5289 27.9889 15.1775 26.7616 15.0315 25.2551C15.0119 25.0542 15.0014 24.8515 15.0014 24.6497C14.9995 20.1544 14.9995 15.659 15.0014 11.1634C15.0014 9.39524 16.385 8.01043 18.1553 8.01013C22.7249 8.01013 27.2946 8.01013 31.8645 8.01013C33.6113 8.01013 35 9.39825 35 11.1396C35 13.286 35 15.4325 35 17.5791L34.9967 17.8101ZM24.0273 25.1587C24.0303 25.7228 24.4489 26.0481 24.9242 25.9376C25.416 25.8231 25.6922 25.4873 25.7949 24.8976C26.2916 22.0429 26.7894 19.1883 27.2881 16.334C27.3553 15.9494 27.4239 15.5648 27.4911 15.1802C27.598 14.5685 27.1029 14.1321 26.5123 14.3267C26.0837 14.4676 25.8355 14.7706 25.7593 15.2175C25.2552 18.1136 24.7502 21.0096 24.2444 23.9055C24.1652 24.3507 24.0887 24.7958 24.0285 25.1593L24.0273 25.1587ZM30.6311 14.1445C30.6357 13.6159 30.3116 13.3048 29.8592 13.3247C29.3999 13.3451 28.9738 13.7162 28.8837 14.1821C28.8235 14.4929 28.7747 14.8058 28.7199 15.1176C28.4133 16.8692 28.1066 18.6206 27.7998 20.3719C27.7314 20.7634 27.6604 21.1549 27.5962 21.5464C27.4986 22.141 27.8974 22.5349 28.4895 22.4346C28.8928 22.3662 29.2494 22.0247 29.3295 21.6037C29.4439 21.0013 29.5451 20.399 29.6508 19.7966C29.905 18.3449 30.1588 16.8933 30.4122 15.4416C30.4917 14.9841 30.567 14.5257 30.6311 14.1445ZM21.626 26.8899C22.1359 26.8899 22.5548 26.5176 22.65 25.9773C22.8785 24.6688 23.1067 23.3599 23.3346 22.0506C23.5312 20.9209 23.73 19.7918 23.9228 18.6609C24.0182 18.1019 23.5827 17.6854 23.0319 17.8176C22.5871 17.9239 22.2886 18.2055 22.207 18.6627C21.8651 20.5791 21.5332 22.4975 21.198 24.4151C21.1077 24.9322 21.0203 25.4503 20.927 25.9668C20.8279 26.5032 21.1188 26.8896 21.626 26.8899ZM30.86 19.8725C30.8459 20.3845 31.148 20.692 31.5958 20.6857C32.0921 20.6781 32.5237 20.264 32.6099 19.7273C32.7047 19.137 32.8126 18.5485 32.9138 17.9591C33.0309 17.2773 33.1637 16.5972 33.2577 15.9112C33.3306 15.3796 32.8848 15.0076 32.3617 15.1281C31.9033 15.2338 31.5991 15.582 31.5166 16.0747C31.3919 16.8177 31.2588 17.5595 31.1302 18.3034C31.0356 18.8488 30.9426 19.3924 30.8597 19.874L30.86 19.8725ZM20.6674 20.3661C20.6728 19.84 20.3794 19.5472 19.9364 19.553C19.4488 19.5599 19.013 19.9547 18.9275 20.467C18.9064 20.5929 18.8847 20.7188 18.8633 20.8447C18.6639 22.0039 18.4591 23.1637 18.2676 24.3233C18.189 24.7991 18.6064 25.1937 19.0835 25.1175C19.588 25.0368 19.9189 24.6958 20.0111 24.1627C20.1566 23.3195 20.3048 22.4795 20.4505 21.6377C20.5285 21.1892 20.6041 20.7384 20.6671 20.3676L20.6674 20.3661ZM17.7158 20.392C17.724 19.8499 17.4291 19.553 16.9984 19.5536C16.5509 19.5536 16.1097 19.8882 16.0106 20.3366C15.9178 20.7568 15.8483 21.1826 15.7871 21.6085C15.738 21.9488 15.9708 22.262 16.3082 22.3488C16.7744 22.4692 17.3358 22.156 17.474 21.6476C17.5939 21.2031 17.6499 20.7396 17.7143 20.3938L17.7158 20.392Z" fill="#006699"/>
<path d="M24.0285 25.1593C24.0908 24.7958 24.1667 24.3501 24.2444 23.9055C24.7492 21.0094 25.2542 18.1134 25.7593 15.2175C25.837 14.7706 26.0852 14.4676 26.5123 14.3267C27.1029 14.1321 27.5965 14.5676 27.4911 15.1802C27.4239 15.5648 27.3553 15.9494 27.2881 16.334C26.7894 19.1883 26.2916 22.0429 25.7949 24.8976C25.6922 25.4873 25.416 25.8231 24.9242 25.9376C24.4504 26.0481 24.0303 25.7246 24.0285 25.1593Z" fill="#FBFCFD"/>
<path d="M30.6311 14.1445C30.567 14.5257 30.4917 14.9841 30.4122 15.4401C30.1594 16.8918 29.9056 18.3435 29.6508 19.7951C29.5451 20.3975 29.4439 21.0022 29.3295 21.6022C29.2494 22.0238 28.8928 22.3647 28.4895 22.4331C27.8968 22.5334 27.4986 22.1395 27.5962 21.5449C27.6604 21.1534 27.7314 20.7619 27.7998 20.3704C28.1068 18.6191 28.4135 16.8677 28.7199 15.1161C28.7747 14.8043 28.8238 14.4914 28.8837 14.1806C28.9741 13.7141 29.3999 13.3436 29.8592 13.3232C30.3116 13.3054 30.6357 13.6168 30.6311 14.1445Z" fill="#BDD001"/>
<path d="M21.626 26.8899C21.1188 26.8899 20.8278 26.5032 20.9251 25.9672C21.0191 25.4506 21.1058 24.9326 21.1962 24.4155C21.5314 22.4979 21.8633 20.5794 22.2051 18.6631C22.2867 18.2059 22.5852 17.9243 23.03 17.818C23.5809 17.686 24.0164 18.1026 23.9209 18.6612C23.7282 19.7919 23.5294 20.9201 23.3327 22.051C23.1046 23.3603 22.8764 24.6692 22.6481 25.9777C22.5545 26.5183 22.1359 26.8902 21.626 26.8899Z" fill="#FBFDFD"/>
<path d="M30.8597 19.874C30.9426 19.3921 31.0357 18.8501 31.1308 18.3052C31.2594 17.5628 31.3926 16.821 31.5173 16.0765C31.5998 15.5838 31.904 15.2357 32.3623 15.1299C32.8855 15.0095 33.3312 15.3799 33.2583 15.913C33.1644 16.5982 33.0316 17.2782 32.9144 17.961C32.8132 18.5504 32.7054 19.1389 32.6105 19.7292C32.5244 20.265 32.0928 20.68 31.5965 20.6875C31.1477 20.6951 30.8456 20.3866 30.8597 19.874Z" fill="#FCFDFD"/>
<path d="M20.6671 20.3676C20.6041 20.7384 20.5286 21.1893 20.4503 21.6398C20.3045 22.4831 20.1563 23.3231 20.0109 24.1649C19.9187 24.6968 19.5877 25.0383 19.0832 25.1196C18.6062 25.1958 18.1888 24.8013 18.2674 24.3254C18.4589 23.1647 18.6637 22.0064 18.8631 20.8469C18.8845 20.721 18.9062 20.5951 18.9272 20.4692C19.0128 19.9572 19.4486 19.562 19.9362 19.5551C20.3792 19.5488 20.6725 19.8415 20.6671 20.3676Z" fill="#FCFDFD"/>
<path d="M17.7143 20.3938C17.6499 20.7399 17.5938 21.2034 17.4734 21.6492C17.3351 22.1576 16.7737 22.4699 16.3075 22.3503C15.9702 22.2636 15.7374 21.9504 15.7865 21.61C15.8467 21.1842 15.9172 20.7583 16.0099 20.3382C16.109 19.89 16.5503 19.5551 16.9978 19.5551C17.4276 19.5545 17.7225 19.8517 17.7143 20.3938Z" fill="#FBFDFD"/>
<path d="M15.293 31.8805V38.9899H14.3652V31.8805H15.293ZM17.5781 31.8805V32.652H12.085V31.8805H17.5781Z" fill="#1C1D1F"/>
<path d="M23.1494 38.2233V38.9899H19.3848V38.2233H23.1494ZM19.5752 31.8805V38.9899H18.6328V31.8805H19.5752ZM22.6514 34.9371V35.7037H19.3848V34.9371H22.6514ZM23.1006 31.8805V32.652H19.3848V31.8805H23.1006Z" fill="#1C1D1F"/>
<path d="M28.1055 37.193C28.1055 37.027 28.0794 36.8805 28.0273 36.7535C27.9785 36.6233 27.8906 36.5061 27.7637 36.402C27.64 36.2978 27.4674 36.1985 27.2461 36.1041C27.028 36.0097 26.7513 35.9137 26.416 35.816C26.0645 35.7119 25.7471 35.5963 25.4639 35.4694C25.1807 35.3392 24.9382 35.191 24.7363 35.025C24.5345 34.859 24.3799 34.6686 24.2725 34.4537C24.165 34.2389 24.1113 33.9931 24.1113 33.7164C24.1113 33.4397 24.1683 33.1842 24.2822 32.9498C24.3962 32.7155 24.5589 32.512 24.7705 32.3395C24.9854 32.1637 25.2409 32.027 25.5371 31.9293C25.8333 31.8317 26.1637 31.7828 26.5283 31.7828C27.0622 31.7828 27.5146 31.8854 27.8857 32.0905C28.2601 32.2923 28.5449 32.5576 28.7402 32.8864C28.9355 33.2119 29.0332 33.5602 29.0332 33.9313H28.0957C28.0957 33.6643 28.0387 33.4283 27.9248 33.2233C27.8109 33.0149 27.6383 32.8522 27.4072 32.735C27.1761 32.6145 26.8831 32.5543 26.5283 32.5543C26.193 32.5543 25.9163 32.6048 25.6982 32.7057C25.4801 32.8066 25.3174 32.9433 25.21 33.1158C25.1058 33.2884 25.0537 33.4853 25.0537 33.7067C25.0537 33.8564 25.0846 33.9931 25.1465 34.1168C25.2116 34.2373 25.3109 34.3496 25.4443 34.4537C25.5811 34.5579 25.7536 34.6539 25.9619 34.7418C26.1735 34.8297 26.4258 34.9143 26.7188 34.9957C27.1224 35.1097 27.4707 35.2366 27.7637 35.3766C28.0566 35.5166 28.2975 35.6744 28.4863 35.8502C28.6784 36.0227 28.82 36.2197 28.9111 36.441C29.0055 36.6591 29.0527 36.9065 29.0527 37.1832C29.0527 37.4729 28.9941 37.735 28.877 37.9694C28.7598 38.2037 28.5921 38.4039 28.374 38.5699C28.1559 38.736 27.8939 38.8645 27.5879 38.9557C27.2852 39.0436 26.9466 39.0875 26.5723 39.0875C26.2435 39.0875 25.9196 39.042 25.6006 38.9508C25.2848 38.8597 24.9967 38.7229 24.7363 38.5406C24.4792 38.3584 24.2725 38.1337 24.1162 37.8668C23.9632 37.5966 23.8867 37.2841 23.8867 36.9293H24.8242C24.8242 37.1735 24.8714 37.3834 24.9658 37.5592C25.0602 37.7317 25.1888 37.875 25.3516 37.9889C25.5176 38.1028 25.7048 38.1875 25.9131 38.2428C26.1247 38.2949 26.3444 38.3209 26.5723 38.3209C26.901 38.3209 27.1794 38.2753 27.4072 38.1842C27.6351 38.0931 27.8076 37.9628 27.9248 37.7936C28.0452 37.6243 28.1055 37.4241 28.1055 37.193Z" fill="#1C1D1F"/>
<path d="M30.5518 31.8805H31.4648L33.7939 37.6764L36.1182 31.8805H37.0361L34.1455 38.9899H33.4326L30.5518 31.8805ZM30.2539 31.8805H31.0596L31.1914 36.2164V38.9899H30.2539V31.8805ZM36.5234 31.8805H37.3291V38.9899H36.3916V36.2164L36.5234 31.8805Z" fill="#1C1D1F"/>
</svg>
