<svg width="50" height="50" viewBox="0 0 50 50" fill="none" xmlns="http://www.w3.org/2000/svg">
<path d="M35.3256 18.3106C34.6811 18.4344 34.3317 18.7985 34.2558 19.4313C34.2172 19.7541 34.1394 20.072 34.0936 20.3942C34.005 21.0169 34.492 21.4332 35.0951 21.2578L35.3256 21.1897V25.6256C35.3256 27.3714 34.2277 28.6861 32.513 28.9877C32.3868 29.0059 32.2592 29.0131 32.1317 29.0093C27.2617 29.0093 22.3926 29.0093 17.5245 29.0093C15.9345 29.0093 14.5155 27.7193 14.3621 26.1359C14.3416 25.9248 14.3305 25.7117 14.3305 25.4996C14.3286 20.7747 14.3286 16.0497 14.3305 11.3246C14.3305 9.46609 15.7833 8.01057 17.6421 8.01025C22.4402 8.01025 27.2385 8.01025 32.0368 8.01025C33.8709 8.01025 35.3291 9.46926 35.3291 11.2996C35.3291 13.5556 35.3291 15.8117 35.3291 18.0679L35.3256 18.3106ZM23.8077 26.0346C23.8109 26.6275 24.2505 26.9694 24.7495 26.8532C25.2659 26.7329 25.5559 26.38 25.6637 25.7601C26.1853 22.7596 26.7079 19.7593 27.2316 16.7592C27.3021 16.355 27.3742 15.9507 27.4448 15.5465C27.557 14.9036 27.0371 14.4449 26.417 14.6494C25.967 14.7975 25.7064 15.116 25.6264 15.5857C25.097 18.6297 24.5668 21.6736 24.0358 24.7174C23.9526 25.1853 23.8723 25.6531 23.809 26.0352L23.8077 26.0346ZM30.7418 14.4579C30.7466 13.9023 30.4063 13.5753 29.9313 13.5962C29.449 13.6177 29.0016 14.0077 28.907 14.4974C28.8438 14.8241 28.7925 15.153 28.735 15.4806C28.4131 17.3217 28.091 19.1626 27.7689 21.0033C27.6971 21.4148 27.6225 21.8263 27.5551 22.2378C27.4527 22.8627 27.8714 23.2768 28.4931 23.1714C28.9165 23.0995 29.2909 22.7405 29.375 22.298C29.4952 21.6649 29.6015 21.0318 29.7125 20.3986C29.9794 18.8729 30.2458 17.3471 30.5119 15.8213C30.5954 15.3404 30.6744 14.8586 30.7418 14.4579ZM21.2864 27.8542C21.8218 27.8542 22.2617 27.4629 22.3616 26.895C22.6015 25.5197 22.8411 24.1439 23.0804 22.7677C23.2869 21.5803 23.4956 20.3936 23.698 19.2049C23.7983 18.6174 23.341 18.1796 22.7626 18.3186C22.2955 18.4303 21.9821 18.7263 21.8964 19.2068C21.5375 21.2211 21.189 23.2375 20.837 25.253C20.7422 25.7965 20.6505 26.341 20.5524 26.8839C20.4484 27.4477 20.7539 27.8538 21.2864 27.8542ZM30.9821 20.4784C30.9673 21.0166 31.2845 21.3398 31.7547 21.3331C32.2759 21.3252 32.729 20.8899 32.8195 20.3258C32.9191 19.7054 33.0323 19.0868 33.1385 18.4673C33.2616 17.7507 33.401 17.0359 33.4997 16.3148C33.5762 15.756 33.1082 15.3651 32.5589 15.4917C32.0776 15.6028 31.7582 15.9688 31.6715 16.4867C31.5406 17.2676 31.4008 18.0473 31.2658 18.8292C31.1665 19.4024 31.0688 19.9738 30.9818 20.48L30.9821 20.4784ZM20.2798 20.9973C20.2855 20.4442 19.9775 20.1365 19.5123 20.1426C19.0004 20.1498 18.5428 20.5648 18.453 21.1033C18.4308 21.2356 18.408 21.3679 18.3856 21.5003C18.1762 22.7187 17.9612 23.9377 17.7601 25.1565C17.6775 25.6566 18.1158 26.0713 18.6168 25.9912C19.1465 25.9064 19.494 25.5481 19.5908 24.9878C19.7435 24.1014 19.8991 23.2185 20.0521 22.3338C20.1341 21.8624 20.2134 21.3885 20.2795 20.9988L20.2798 20.9973ZM17.1807 21.0245C17.1893 20.4547 16.8797 20.1426 16.4275 20.1432C15.9575 20.1432 15.4943 20.4949 15.3902 20.9662C15.2928 21.4078 15.2198 21.8554 15.1556 22.303C15.104 22.6608 15.3485 22.99 15.7027 23.0811C16.1922 23.2078 16.7817 22.8785 16.9268 22.3442C17.0527 21.877 17.1115 21.3898 17.1792 21.0264L17.1807 21.0245Z" fill="#006699"/>
<path d="M23.809 26.0352C23.8745 25.6531 23.9542 25.1846 24.0358 24.7174C24.5658 21.6734 25.096 18.6295 25.6264 15.5857C25.708 15.116 25.9686 14.7975 26.417 14.6494C27.0371 14.4449 27.5554 14.9026 27.4448 15.5465C27.3742 15.9507 27.3021 16.355 27.2316 16.7592C26.7079 19.7593 26.1853 22.7596 25.6637 25.7601C25.5559 26.38 25.2659 26.7329 24.7495 26.8532C24.2521 26.9694 23.8109 26.6294 23.809 26.0352Z" fill="#FBFCFD"/>
<path d="M30.7418 14.4579C30.6744 14.8586 30.5954 15.3404 30.5119 15.8197C30.2465 17.3455 29.98 18.8713 29.7125 20.3971C29.6015 21.0302 29.4952 21.6658 29.375 22.2964C29.2909 22.7396 28.9165 23.0979 28.4931 23.1698C27.8707 23.2752 27.4527 22.8611 27.5551 22.2363C27.6225 21.8247 27.6971 21.4132 27.7689 21.0017C28.0912 19.161 28.4133 17.3202 28.735 15.4791C28.7925 15.1514 28.8441 14.8225 28.907 14.4958C29.0019 14.0055 29.449 13.6161 29.9313 13.5946C30.4063 13.5759 30.7466 13.9032 30.7418 14.4579Z" fill="#BDD001"/>
<path d="M21.2864 27.8542C20.7539 27.8542 20.4483 27.4478 20.5505 26.8843C20.6491 26.3414 20.7402 25.7969 20.8351 25.2534C21.187 23.2379 21.5355 21.2214 21.8945 19.2072C21.9802 18.7267 22.2936 18.4307 22.7606 18.3189C23.339 18.1803 23.7963 18.6181 23.6961 19.2053C23.4937 20.3937 23.2849 21.5795 23.0784 22.7681C22.839 24.1443 22.5994 25.5201 22.3596 26.8954C22.2613 27.4636 21.8218 27.8545 21.2864 27.8542Z" fill="#FBFDFD"/>
<path d="M30.9818 20.48C31.0688 19.9735 31.1666 19.4038 31.2665 18.8311C31.4015 18.0508 31.5413 17.2711 31.6722 16.4886C31.7589 15.9707 32.0783 15.6048 32.5596 15.4937C33.1089 15.367 33.5769 15.7564 33.5004 16.3167C33.4017 17.0369 33.2622 17.7517 33.1392 18.4693C33.033 19.0888 32.9198 19.7073 32.8201 20.3278C32.7297 20.8909 32.2765 21.3271 31.7554 21.3351C31.2842 21.343 30.967 21.0188 30.9818 20.48Z" fill="#FCFDFD"/>
<path d="M20.2795 20.9988C20.2134 21.3885 20.1341 21.8624 20.0519 22.336C19.8988 23.2224 19.7432 24.1052 19.5905 24.99C19.4937 25.5491 19.1462 25.908 18.6165 25.9935C18.1156 26.0736 17.6773 25.6589 17.7598 25.1587C17.961 23.9387 18.176 22.7213 18.3853 21.5025C18.4078 21.3702 18.4306 21.2379 18.4527 21.1056C18.5425 20.5674 19.0001 20.1521 19.5121 20.1448C19.9773 20.1382 20.2852 20.4458 20.2795 20.9988Z" fill="#FCFDFD"/>
<path d="M17.1792 21.0264C17.1115 21.3901 17.0526 21.8773 16.9261 22.3458C16.781 22.8802 16.1915 23.2084 15.702 23.0828C15.3478 22.9916 15.1034 22.6624 15.1549 22.3047C15.2181 21.8571 15.2921 21.4095 15.3895 20.9679C15.4936 20.4968 15.9569 20.1448 16.4268 20.1448C16.8781 20.1442 17.1877 20.4566 17.1792 21.0264Z" fill="#FBFDFD"/>
<path d="M14.6332 33.1172V40.9033H13.6777V33.1172H14.6332ZM16.9867 33.1172V33.9621H11.3291V33.1172H16.9867Z" fill="#7F8BA5"/>
<path d="M22.7248 40.0637V40.9033H18.8475V40.0637H22.7248ZM19.0436 33.1172V40.9033H18.073V33.1172H19.0436ZM22.2119 36.4648V37.3044H18.8475V36.4648H22.2119ZM22.6746 33.1172V33.9621H18.8475V33.1172H22.6746Z" fill="#7F8BA5"/>
<path d="M27.8293 38.9354C27.8293 38.7536 27.8025 38.5931 27.7488 38.4541C27.6985 38.3115 27.608 38.1832 27.4773 38.0691C27.3499 37.955 27.1722 37.8463 26.9442 37.7429C26.7196 37.6395 26.4346 37.5343 26.0893 37.4274C25.7272 37.3133 25.4003 37.1867 25.1086 37.0477C24.8169 36.9051 24.5671 36.7429 24.3593 36.5611C24.1514 36.3792 23.9922 36.1707 23.8815 35.9354C23.7709 35.7001 23.7156 35.4309 23.7156 35.1279C23.7156 34.8249 23.7742 34.545 23.8916 34.2883C24.0089 34.0316 24.1766 33.8088 24.3945 33.6199C24.6158 33.4274 24.8789 33.2776 25.184 33.1707C25.4891 33.0637 25.8294 33.0103 26.2049 33.0103C26.7548 33.0103 27.2208 33.1226 27.603 33.3472C27.9885 33.5682 28.2819 33.8587 28.4831 34.2188C28.6842 34.5753 28.7848 34.9568 28.7848 35.3632H27.8192C27.8192 35.0709 27.7606 34.8124 27.6432 34.5878C27.5259 34.3596 27.3482 34.1814 27.1101 34.053C26.8721 33.9211 26.5704 33.8552 26.2049 33.8552C25.8596 33.8552 25.5746 33.9104 25.35 34.0209C25.1254 34.1315 24.9577 34.2812 24.8471 34.4701C24.7398 34.6591 24.6862 34.8748 24.6862 35.1172C24.6862 35.2812 24.718 35.4309 24.7817 35.5664C24.8488 35.6983 24.951 35.8213 25.0885 35.9354C25.2293 36.0495 25.407 36.1546 25.6216 36.2509C25.8395 36.3472 26.0993 36.4398 26.4011 36.529C26.8168 36.6537 27.1755 36.7928 27.4773 36.9461C27.779 37.0994 28.0271 37.2723 28.2216 37.4648C28.4194 37.6537 28.5652 37.8694 28.6591 38.1119C28.7563 38.3507 28.8049 38.6217 28.8049 38.9247C28.8049 39.242 28.7446 39.529 28.6239 39.7857C28.5032 40.0423 28.3305 40.2616 28.1059 40.4434C27.8813 40.6252 27.6114 40.766 27.2962 40.8659C26.9844 40.9621 26.6357 41.0103 26.2502 41.0103C25.9116 41.0103 25.578 40.9603 25.2494 40.8605C24.9242 40.7607 24.6275 40.611 24.3593 40.4113C24.0944 40.2117 23.8815 39.9657 23.7206 39.6734C23.563 39.3775 23.4842 39.0352 23.4842 38.6466H24.4498C24.4498 38.914 24.4984 39.1439 24.5956 39.3365C24.6929 39.5254 24.8253 39.6823 24.9929 39.807C25.1639 39.9318 25.3567 40.0245 25.5713 40.0851C25.7892 40.1422 26.0155 40.1707 26.2502 40.1707C26.5888 40.1707 26.8755 40.1208 27.1101 40.0209C27.3448 39.9211 27.5225 39.7785 27.6432 39.5931C27.7673 39.4078 27.8293 39.1885 27.8293 38.9354Z" fill="#7F8BA5"/>
<path d="M30.3488 33.1172H31.2893L33.6881 39.4648L36.0819 33.1172H37.0274L34.0502 40.9033H33.3159L30.3488 33.1172ZM30.0421 33.1172H30.8718L31.0076 37.8659V40.9033H30.0421V33.1172ZM36.4993 33.1172H37.3291V40.9033H36.3635V37.8659L36.4993 33.1172Z" fill="#7F8BA5"/>
</svg>
