<svg width="50" height="50" viewBox="0 0 50 50" fill="none" xmlns="http://www.w3.org/2000/svg">
<path d="M37.0703 10H12.9297C11.3117 10 10 11.3117 10 12.9297V37.0703C10 38.6883 11.3117 40 12.9297 40H37.0703C38.6883 40 40 38.6883 40 37.0703V12.9297C40 11.3117 38.6883 10 37.0703 10Z" fill="url(#paint0_linear_9176_15841)"/>
<path d="M34.6938 13.9H28.3563C27.5796 13.9 26.95 14.5296 26.95 15.3062V25.6187C26.95 26.3954 27.5796 27.025 28.3563 27.025H34.6938C35.4704 27.025 36.1 26.3954 36.1 25.6187V15.3062C36.1 14.5296 35.4704 13.9 34.6938 13.9Z" fill="white"/>
<path d="M21.6438 13.9H15.3063C14.5296 13.9 13.9 14.5296 13.9 15.3062V33.1187C13.9 33.8954 14.5296 34.525 15.3063 34.525H21.6438C22.4204 34.525 23.05 33.8954 23.05 33.1187V15.3062C23.05 14.5296 22.4204 13.9 21.6438 13.9Z" fill="white"/>
<defs>
<linearGradient id="paint0_linear_9176_15841" x1="25" y1="10" x2="25" y2="40" gradientUnits="userSpaceOnUse">
<stop stop-color="#0091E6"/>
<stop offset="1" stop-color="#0079BF"/>
</linearGradient>
</defs>
</svg>
