<svg width="50" height="50" viewBox="0 0 50 50" fill="none" xmlns="http://www.w3.org/2000/svg">
<rect width="50" height="50" fill="#D71920"/>
<path d="M14.8513 20.9695L13.1743 20.9737L13.5811 20.0747C14.9668 19.6971 17.2753 18.9251 19.4788 16.7881L20.7043 16.784L19.2041 19.9988L21.6136 19.9915L21.1714 20.9487L18.7662 20.957C18.7662 20.957 17.6374 23.2126 17.2545 24.8263C16.958 26.6272 17.2493 27.9714 18.8629 28.475C19.8596 28.784 21.1028 28.7132 22.4427 28.3335C25.5606 27.3628 28.8939 25.2185 31.3324 22.3813C35.3471 17.7172 35.4252 12.9449 31.5103 11.7266C28.9979 10.9462 25.4556 11.8139 22.1774 13.7678C25.5791 11.5738 31.5295 8.83518 35.3742 11.5975C32.8118 8.77285 29.1124 7 24.9988 7C17.2691 7 11 13.2684 11 20.9997C11 23.8545 11.8562 26.5086 13.322 28.7226C12.2261 26.0185 13.6831 23.3511 14.8513 20.9695Z" fill="white"/>
<path d="M36.8694 13.5729C37.8057 16.1167 36.6343 19.9131 33.4009 23.671C28.5466 29.3163 20.8783 32.7298 16.2758 31.2972C15.7047 31.1193 15.2084 30.8748 14.785 30.572C17.339 33.2979 20.9698 35 24.9991 35C32.7319 35 39 28.7326 39 21.0003C39 18.2703 38.2166 15.7255 36.8694 13.5729Z" fill="white"/>
<path d="M18.8027 37.6191C19.2161 37.6191 19.5775 37.7038 19.8867 37.873C20.196 38.0391 20.4385 38.2669 20.6143 38.5566C20.7933 38.8431 20.891 39.1686 20.9072 39.5332H20.0479C20.0316 39.3151 19.9697 39.1182 19.8623 38.9424C19.7581 38.7666 19.6149 38.6266 19.4326 38.5225C19.2536 38.415 19.0436 38.3613 18.8027 38.3613C18.526 38.3613 18.2933 38.4167 18.1045 38.5273C17.9189 38.6348 17.7708 38.7812 17.6602 38.9668C17.5527 39.1491 17.4746 39.3525 17.4258 39.5771C17.3802 39.7985 17.3574 40.0247 17.3574 40.2559V40.4609C17.3574 40.6921 17.3802 40.9199 17.4258 41.1445C17.4714 41.3691 17.5479 41.5726 17.6553 41.7549C17.766 41.9372 17.9141 42.0837 18.0996 42.1943C18.2884 42.3018 18.5228 42.3555 18.8027 42.3555C19.0176 42.3555 19.2161 42.3115 19.3984 42.2236C19.5807 42.1357 19.7305 42.0153 19.8477 41.8623C19.9648 41.7061 20.0316 41.5286 20.0479 41.3301H20.9072C20.891 41.6426 20.7852 41.9339 20.5898 42.2041C20.3978 42.471 20.1455 42.6875 19.833 42.8535C19.5205 43.0163 19.1771 43.0977 18.8027 43.0977C18.4056 43.0977 18.0589 43.0277 17.7627 42.8877C17.4697 42.7477 17.2256 42.5557 17.0303 42.3115C16.8382 42.0674 16.6934 41.7874 16.5957 41.4717C16.5013 41.1527 16.4541 40.8158 16.4541 40.4609V40.2559C16.4541 39.901 16.5013 39.5658 16.5957 39.25C16.6934 38.931 16.8382 38.6494 17.0303 38.4053C17.2256 38.1611 17.4697 37.9691 17.7627 37.8291C18.0589 37.6891 18.4056 37.6191 18.8027 37.6191Z" fill="white"/>
<path fill-rule="evenodd" clip-rule="evenodd" d="M23.8809 37.6191C24.2519 37.6191 24.5857 37.6875 24.8818 37.8242C25.1813 37.9577 25.4352 38.1465 25.6436 38.3906C25.8551 38.6315 26.0163 38.9164 26.127 39.2451C26.2376 39.5706 26.293 39.9238 26.293 40.3047V40.417C26.293 40.7979 26.2376 41.151 26.127 41.4766C26.0163 41.8021 25.8551 42.0869 25.6436 42.3311C25.4352 42.5719 25.1829 42.7608 24.8867 42.8975C24.5938 43.0309 24.2617 43.0977 23.8906 43.0977C23.5196 43.0976 23.1858 43.0309 22.8896 42.8975C22.5935 42.7607 22.3395 42.5719 22.1279 42.3311C21.9196 42.0869 21.7601 41.802 21.6494 41.4766C21.5388 41.1511 21.4834 40.7978 21.4834 40.417V40.3047C21.4834 39.9239 21.5388 39.5706 21.6494 39.2451C21.7601 38.9164 21.9196 38.6315 22.1279 38.3906C22.3362 38.1465 22.5886 37.9577 22.8848 37.8242C23.1809 37.6875 23.5131 37.6192 23.8809 37.6191ZM23.8809 38.3613C23.6335 38.3614 23.4153 38.4134 23.2266 38.5176C23.0411 38.6217 22.8847 38.765 22.7578 38.9473C22.6341 39.1263 22.5413 39.333 22.4795 39.5674C22.4177 39.7985 22.3867 40.0443 22.3867 40.3047V40.417C22.3867 40.6806 22.4177 40.9297 22.4795 41.1641C22.5413 41.3951 22.6341 41.6003 22.7578 41.7793C22.8847 41.9583 23.0427 42.0999 23.2314 42.2041C23.4202 42.305 23.6401 42.3554 23.8906 42.3555C24.138 42.3555 24.3545 42.305 24.54 42.2041C24.7288 42.1 24.8851 41.9583 25.0088 41.7793C25.1325 41.6003 25.2253 41.3952 25.2871 41.1641C25.3522 40.9297 25.3848 40.6807 25.3848 40.417V40.3047C25.3848 40.0443 25.3522 39.7985 25.2871 39.5674C25.2253 39.333 25.1309 39.1263 25.0039 38.9473C24.8802 38.765 24.7239 38.6217 24.5352 38.5176C24.3496 38.4135 24.1314 38.3613 23.8809 38.3613Z" fill="white"/>
<path d="M29.6865 37.6191C29.9468 37.6191 30.1814 37.655 30.3896 37.7266C30.5979 37.7949 30.7754 37.9057 30.9219 38.0586C31.0716 38.2116 31.1855 38.4102 31.2637 38.6543C31.3418 38.8952 31.3809 39.1898 31.3809 39.5381V43H30.4727V39.5283C30.4727 39.2516 30.432 39.0303 30.3506 38.8643C30.2692 38.6951 30.1503 38.5729 29.9941 38.498C29.8379 38.42 29.6457 38.3809 29.418 38.3809C29.1935 38.3809 28.9882 38.4281 28.8027 38.5225C28.6206 38.6168 28.4625 38.7472 28.3291 38.9131C28.2521 39.0113 28.1866 39.1191 28.1289 39.2344V43H27.2256V37.7168H28.0801L28.1084 38.377C28.1188 38.3638 28.128 38.3498 28.1387 38.3369C28.3274 38.1091 28.5522 37.9333 28.8125 37.8096C29.0761 37.6827 29.3677 37.6192 29.6865 37.6191Z" fill="white"/>
</svg>
