<svg width="50" height="50" viewBox="0 0 50 50" fill="none" xmlns="http://www.w3.org/2000/svg">
<path d="M14.8513 19.9695L13.1743 19.9737L13.5811 19.0747C14.9668 18.6971 17.2753 17.9251 19.4788 15.7881L20.7043 15.784L19.2041 18.9988L21.6136 18.9915L21.1714 19.9487L18.7662 19.957C18.7662 19.957 17.6374 22.2126 17.2545 23.8263C16.958 25.6272 17.2493 26.9714 18.8629 27.475C19.8596 27.784 21.1028 27.7132 22.4427 27.3335C25.5606 26.3628 28.8939 24.2185 31.3324 21.3813C35.3471 16.7172 35.4252 11.9449 31.5103 10.7266C28.9979 9.94625 25.4556 10.8139 22.1774 12.7678C25.5791 10.5738 31.5295 7.83518 35.3742 10.5975C32.8118 7.77285 29.1124 6 24.9988 6C17.2691 6 11 12.2684 11 19.9997C11 22.8545 11.8562 25.5086 13.322 27.7226C12.2261 25.0185 13.6831 22.3511 14.8513 19.9695Z" fill="#D71920"/>
<path d="M36.8694 12.5729C37.8057 15.1167 36.6343 18.9131 33.4009 22.671C28.5466 28.3163 20.8783 31.7298 16.2758 30.2972C15.7047 30.1193 15.2084 29.8748 14.785 29.572C17.339 32.2979 20.9698 34 24.9991 34C32.7319 34 39 27.7326 39 20.0003C39 17.2703 38.2166 14.7255 36.8694 12.5729Z" fill="#D71920"/>
<path d="M18.8027 43.3555C19.0176 43.3555 19.2161 43.3115 19.3984 43.2236C19.5807 43.1357 19.7305 43.0153 19.8477 42.8623C19.9648 42.7061 20.0316 42.5286 20.0479 42.3301H20.9072C20.891 42.6426 20.7852 42.9339 20.5898 43.2041C20.3978 43.471 20.1455 43.6875 19.833 43.8535C19.5205 44.0163 19.1771 44.0977 18.8027 44.0977C18.4056 44.0977 18.0589 44.0277 17.7627 43.8877C17.4697 43.7477 17.2256 43.5557 17.0303 43.3115C16.8382 43.0674 16.6934 42.7874 16.5957 42.4717C16.5013 42.1527 16.4541 41.8158 16.4541 41.4609V41.2559C16.4541 40.901 16.5013 40.5658 16.5957 40.25C16.6934 39.931 16.8382 39.6494 17.0303 39.4053C17.2256 39.1611 17.4697 38.9691 17.7627 38.8291C18.0589 38.6891 18.4056 38.6191 18.8027 38.6191C19.2161 38.6191 19.5775 38.7038 19.8867 38.873C20.196 39.0391 20.4385 39.2669 20.6143 39.5566C20.7933 39.8431 20.891 40.1686 20.9072 40.5332H20.0479C20.0316 40.3151 19.9697 40.1182 19.8623 39.9424C19.7581 39.7666 19.6149 39.6266 19.4326 39.5225C19.2536 39.415 19.0436 39.3613 18.8027 39.3613C18.526 39.3613 18.2933 39.4167 18.1045 39.5273C17.9189 39.6348 17.7708 39.7812 17.6602 39.9668C17.5527 40.1491 17.4746 40.3525 17.4258 40.5771C17.3802 40.7985 17.3574 41.0247 17.3574 41.2559V41.4609C17.3574 41.6921 17.3802 41.9199 17.4258 42.1445C17.4714 42.3691 17.5479 42.5726 17.6553 42.7549C17.766 42.9372 17.9141 43.0837 18.0996 43.1943C18.2884 43.3018 18.5228 43.3555 18.8027 43.3555ZM21.4836 41.417V41.3047C21.4836 40.9238 21.5389 40.5706 21.6496 40.2451C21.7603 39.9163 21.9198 39.6315 22.1281 39.3906C22.3365 39.1465 22.5887 38.9577 22.885 38.8242C23.1812 38.6875 23.5132 38.6191 23.8811 38.6191C24.2521 38.6191 24.5858 38.6875 24.882 38.8242C25.1815 38.9577 25.4354 39.1465 25.6438 39.3906C25.8553 39.6315 26.0165 39.9163 26.1271 40.2451C26.2378 40.5706 26.2932 40.9238 26.2932 41.3047V41.417C26.2932 41.7979 26.2378 42.151 26.1271 42.4766C26.0165 42.8021 25.8553 43.0869 25.6438 43.3311C25.4354 43.5719 25.1831 43.7607 24.8869 43.8975C24.5939 44.0309 24.2619 44.0977 23.8908 44.0977C23.5197 44.0977 23.1861 44.0309 22.8898 43.8975C22.5936 43.7607 22.3397 43.5719 22.1281 43.3311C21.9198 43.0869 21.7603 42.8021 21.6496 42.4766C21.5389 42.151 21.4836 41.7979 21.4836 41.417ZM22.3869 41.3047V41.417C22.3869 41.6807 22.4178 41.9297 22.4797 42.1641C22.5415 42.3952 22.6343 42.6003 22.758 42.7793C22.885 42.9583 23.0428 43.0999 23.2316 43.2041C23.4204 43.305 23.6402 43.3555 23.8908 43.3555C24.1382 43.3555 24.3547 43.305 24.5402 43.2041C24.729 43.0999 24.8853 42.9583 25.009 42.7793C25.1327 42.6003 25.2255 42.3952 25.2873 42.1641C25.3524 41.9297 25.385 41.6807 25.385 41.417V41.3047C25.385 41.0443 25.3524 40.7985 25.2873 40.5674C25.2255 40.333 25.1311 40.1263 25.0041 39.9473C24.8804 39.765 24.7242 39.6217 24.5354 39.5176C24.3498 39.4134 24.1317 39.3613 23.8811 39.3613C23.6337 39.3613 23.4156 39.4134 23.2268 39.5176C23.0412 39.6217 22.885 39.765 22.758 39.9473C22.6343 40.1263 22.5415 40.333 22.4797 40.5674C22.4178 40.7985 22.3869 41.0443 22.3869 41.3047ZM28.1293 39.8447V44H27.226V38.7168H28.0805L28.1293 39.8447ZM27.9145 41.1582L27.5385 41.1436C27.5417 40.7822 27.5954 40.4486 27.6996 40.1426C27.8038 39.8333 27.9503 39.5648 28.1391 39.3369C28.3279 39.109 28.5525 38.9333 28.8129 38.8096C29.0766 38.6826 29.3679 38.6191 29.6869 38.6191C29.9473 38.6191 30.1817 38.6549 30.39 38.7266C30.5984 38.7949 30.7758 38.9056 30.9223 39.0586C31.072 39.2116 31.1859 39.4102 31.2641 39.6543C31.3422 39.8952 31.3813 40.1898 31.3813 40.5381V44H30.473V40.5283C30.473 40.2516 30.4324 40.0303 30.351 39.8643C30.2696 39.695 30.1508 39.5729 29.9945 39.498C29.8383 39.4199 29.6462 39.3809 29.4184 39.3809C29.1938 39.3809 28.9887 39.4281 28.8031 39.5225C28.6208 39.6169 28.463 39.7471 28.3295 39.9131C28.1993 40.0791 28.0967 40.2695 28.0219 40.4844C27.9503 40.696 27.9145 40.9206 27.9145 41.1582Z" fill="black"/>
</svg>
