<svg width="50" height="50" viewBox="0 0 50 50" fill="none" xmlns="http://www.w3.org/2000/svg">
<path d="M14.8513 19.9695L13.1743 19.9737L13.5811 19.0747C14.9668 18.6971 17.2753 17.9251 19.4788 15.7881L20.7043 15.784L19.2041 18.9988L21.6136 18.9915L21.1714 19.9487L18.7662 19.957C18.7662 19.957 17.6374 22.2126 17.2545 23.8263C16.958 25.6272 17.2493 26.9714 18.8629 27.475C19.8596 27.784 21.1028 27.7132 22.4427 27.3335C25.5606 26.3628 28.8939 24.2185 31.3324 21.3813C35.3471 16.7172 35.4252 11.9449 31.5103 10.7266C28.9979 9.94625 25.4556 10.8139 22.1774 12.7678C25.5791 10.5738 31.5295 7.83518 35.3742 10.5975C32.8118 7.77285 29.1124 6 24.9988 6C17.2691 6 11 12.2684 11 19.9997C11 22.8545 11.8562 25.5086 13.322 27.7226C12.2261 25.0185 13.6831 22.3511 14.8513 19.9695Z" fill="#D71920"/>
<path d="M36.8694 12.5729C37.8057 15.1167 36.6343 18.9131 33.4009 22.671C28.5466 28.3163 20.8783 31.7298 16.2758 30.2972C15.7047 30.1193 15.2084 29.8748 14.785 29.572C17.339 32.2979 20.9698 34 24.9991 34C32.7319 34 39 27.7326 39 20.0003C39 17.2703 38.2166 14.7255 36.8694 12.5729Z" fill="#D71920"/>
<path d="M16.4492 41.417V41.3047C16.4492 40.9238 16.5046 40.5706 16.6152 40.2451C16.7259 39.9163 16.8854 39.6315 17.0938 39.3906C17.3021 39.1465 17.5544 38.9577 17.8506 38.8242C18.1468 38.6875 18.4788 38.6191 18.8467 38.6191C19.2178 38.6191 19.5514 38.6875 19.8477 38.8242C20.1471 38.9577 20.401 39.1465 20.6094 39.3906C20.821 39.6315 20.9821 39.9163 21.0928 40.2451C21.2035 40.5706 21.2588 40.9238 21.2588 41.3047V41.417C21.2588 41.7979 21.2035 42.151 21.0928 42.4766C20.9821 42.8021 20.821 43.0869 20.6094 43.3311C20.401 43.5719 20.1488 43.7607 19.8525 43.8975C19.5596 44.0309 19.2275 44.0977 18.8564 44.0977C18.4854 44.0977 18.1517 44.0309 17.8555 43.8975C17.5592 43.7607 17.3053 43.5719 17.0938 43.3311C16.8854 43.0869 16.7259 42.8021 16.6152 42.4766C16.5046 42.151 16.4492 41.7979 16.4492 41.417ZM17.3525 41.3047V41.417C17.3525 41.6807 17.3835 41.9297 17.4453 42.1641C17.5072 42.3952 17.5999 42.6003 17.7236 42.7793C17.8506 42.9583 18.0085 43.0999 18.1973 43.2041C18.3861 43.305 18.6058 43.3555 18.8564 43.3555C19.1038 43.3555 19.3203 43.305 19.5059 43.2041C19.6947 43.0999 19.8509 42.9583 19.9746 42.7793C20.0983 42.6003 20.1911 42.3952 20.2529 42.1641C20.318 41.9297 20.3506 41.6807 20.3506 41.417V41.3047C20.3506 41.0443 20.318 40.7985 20.2529 40.5674C20.1911 40.333 20.0967 40.1263 19.9697 39.9473C19.846 39.765 19.6898 39.6217 19.501 39.5176C19.3154 39.4134 19.0973 39.3613 18.8467 39.3613C18.5993 39.3613 18.3812 39.4134 18.1924 39.5176C18.0068 39.6217 17.8506 39.765 17.7236 39.9473C17.5999 40.1263 17.5072 40.333 17.4453 40.5674C17.3835 40.7985 17.3525 41.0443 17.3525 41.3047ZM23.0949 39.8447V44H22.1916V38.7168H23.0461L23.0949 39.8447ZM22.8801 41.1582L22.5041 41.1436C22.5074 40.7822 22.5611 40.4486 22.6652 40.1426C22.7694 39.8333 22.9159 39.5648 23.1047 39.3369C23.2935 39.109 23.5181 38.9333 23.7785 38.8096C24.0422 38.6826 24.3335 38.6191 24.6525 38.6191C24.913 38.6191 25.1473 38.6549 25.3557 38.7266C25.564 38.7949 25.7414 38.9056 25.8879 39.0586C26.0376 39.2116 26.1516 39.4102 26.2297 39.6543C26.3078 39.8952 26.3469 40.1898 26.3469 40.5381V44H25.4387V40.5283C25.4387 40.2516 25.398 40.0303 25.3166 39.8643C25.2352 39.695 25.1164 39.5729 24.9602 39.498C24.8039 39.4199 24.6118 39.3809 24.384 39.3809C24.1594 39.3809 23.9543 39.4281 23.7688 39.5225C23.5865 39.6169 23.4286 39.7471 23.2951 39.9131C23.1649 40.0791 23.0624 40.2695 22.9875 40.4844C22.9159 40.696 22.8801 40.9206 22.8801 41.1582ZM29.7113 44.0977C29.3435 44.0977 29.0098 44.0358 28.7104 43.9121C28.4141 43.7852 28.1586 43.6077 27.9438 43.3799C27.7322 43.152 27.5694 42.8818 27.4555 42.5693C27.3415 42.2568 27.2846 41.915 27.2846 41.5439V41.3389C27.2846 40.9092 27.348 40.5267 27.475 40.1914C27.602 39.8529 27.7745 39.5664 27.9926 39.332C28.2107 39.0977 28.4581 38.9202 28.7348 38.7998C29.0115 38.6794 29.2979 38.6191 29.5941 38.6191C29.9717 38.6191 30.2973 38.6842 30.5707 38.8145C30.8474 38.9447 31.0736 39.127 31.2494 39.3613C31.4252 39.5924 31.5554 39.8659 31.64 40.1816C31.7247 40.4941 31.767 40.8359 31.767 41.207V41.6123H27.8217V40.875H30.8637V40.8066C30.8507 40.5723 30.8018 40.3444 30.7172 40.123C30.6358 39.9017 30.5056 39.7194 30.3266 39.5762C30.1475 39.4329 29.9034 39.3613 29.5941 39.3613C29.3891 39.3613 29.2003 39.4053 29.0277 39.4932C28.8552 39.5778 28.7071 39.7048 28.5834 39.874C28.4597 40.0433 28.3637 40.25 28.2953 40.4941C28.227 40.7383 28.1928 41.0199 28.1928 41.3389V41.5439C28.1928 41.7946 28.227 42.0306 28.2953 42.252C28.3669 42.4701 28.4695 42.6621 28.6029 42.8281C28.7396 42.9941 28.904 43.1243 29.0961 43.2188C29.2914 43.3132 29.5128 43.3604 29.7602 43.3604C30.0792 43.3604 30.3493 43.2952 30.5707 43.165C30.7921 43.0348 30.9857 42.8607 31.1518 42.6426L31.6986 43.0771C31.5847 43.2497 31.4398 43.4141 31.2641 43.5703C31.0883 43.7266 30.8718 43.8535 30.6146 43.9512C30.3607 44.0488 30.0596 44.0977 29.7113 44.0977Z" fill="black"/>
</svg>
