<svg width="50" height="50" viewBox="0 0 50 50" fill="none" xmlns="http://www.w3.org/2000/svg">
<path d="M12.9183 24.9856L10.9218 24.9905L11.4061 23.9218C13.0558 23.4728 15.804 22.555 18.4271 20.0143L19.8861 20.0094L18.1002 23.8315L20.9685 23.8229L20.4422 24.9609L17.5788 24.9708C17.5788 24.9708 16.235 27.6524 15.7792 29.5709C15.4263 31.7121 15.773 33.3102 17.6939 33.9089C18.8804 34.2763 20.3604 34.1922 21.9556 33.7407C25.6674 32.5866 29.6355 30.0373 32.5386 26.6641C37.318 21.1189 37.4108 15.4451 32.7504 13.9966C29.7594 13.0689 25.5423 14.1005 21.6398 16.4235C26.5059 13.2891 31.8562 11.8171 35.5481 12.965C36.2405 13.1802 36.8399 13.4771 37.3502 13.8432C34.2997 10.4849 29.8956 8.3772 24.9986 8.3772C15.7966 8.3772 8.33337 15.8298 8.33337 25.0215C8.33337 28.4156 9.35266 31.5711 11.0977 34.2033C9.79362 30.9899 11.5277 27.8166 12.9183 24.9856Z" fill="#D71920"/>
<path d="M39.1303 16.1918C40.245 19.2162 38.8504 23.7297 35.0012 28.1976C29.2223 34.9092 20.0933 38.9676 14.6142 37.2644C13.9343 37.0528 13.3435 36.7622 12.8395 36.4022C15.88 39.643 20.2023 41.6666 24.999 41.6666C34.2048 41.6666 41.6668 34.2153 41.6668 25.0224C41.6668 21.7766 40.7342 18.7511 39.1303 16.1918Z" fill="#D71920"/>
</svg>
