<svg width="50" height="50" viewBox="0 0 50 50" fill="none" xmlns="http://www.w3.org/2000/svg">
<rect width="50" height="50" fill="#D71920"/>
<path d="M14.8513 20.9695L13.1743 20.9737L13.5811 20.0747C14.9668 19.6971 17.2753 18.9251 19.4788 16.7881L20.7043 16.784L19.2041 19.9988L21.6136 19.9915L21.1714 20.9487L18.7662 20.957C18.7662 20.957 17.6374 23.2126 17.2545 24.8263C16.958 26.6272 17.2493 27.9714 18.8629 28.475C19.8596 28.784 21.1028 28.7132 22.4427 28.3335C25.5606 27.3628 28.8939 25.2185 31.3324 22.3813C35.3471 17.7172 35.4252 12.9449 31.5103 11.7266C28.9979 10.9462 25.4556 11.8139 22.1774 13.7678C25.5791 11.5738 31.5295 8.83518 35.3742 11.5975C32.8118 8.77285 29.1124 7 24.9988 7C17.2691 7 11 13.2684 11 20.9997C11 23.8545 11.8562 26.5086 13.322 28.7226C12.2261 26.0185 13.6831 23.3511 14.8513 20.9695Z" fill="white"/>
<path d="M36.8694 13.5729C37.8057 16.1167 36.6343 19.9131 33.4009 23.671C28.5466 29.3163 20.8783 32.7298 16.2758 31.2972C15.7047 31.1193 15.2084 30.8748 14.785 30.572C17.339 33.2979 20.9698 35 24.9991 35C32.7319 35 39 28.7326 39 21.0003C39 18.2703 38.2166 15.7255 36.8694 13.5729Z" fill="white"/>
<path fill-rule="evenodd" clip-rule="evenodd" d="M19.8467 37.6191C20.2178 37.6191 20.5514 37.6875 20.8477 37.8242C21.1471 37.9577 21.401 38.1465 21.6094 38.3906C21.821 38.6315 21.9821 38.9163 22.0928 39.2451C22.2035 39.5706 22.2588 39.9238 22.2588 40.3047V40.417C22.2588 40.7979 22.2035 41.151 22.0928 41.4766C21.9821 41.8021 21.821 42.0869 21.6094 42.3311C21.401 42.5719 21.1488 42.7607 20.8525 42.8975C20.5596 43.0309 20.2275 43.0977 19.8564 43.0977C19.4854 43.0977 19.1517 43.0309 18.8555 42.8975C18.5592 42.7607 18.3053 42.5719 18.0938 42.3311C17.8854 42.0869 17.7259 41.8021 17.6152 41.4766C17.5046 41.151 17.4492 40.7979 17.4492 40.417V40.3047C17.4492 39.9238 17.5046 39.5706 17.6152 39.2451C17.7259 38.9163 17.8854 38.6315 18.0938 38.3906C18.3021 38.1465 18.5544 37.9577 18.8506 37.8242C19.1468 37.6875 19.4788 37.6191 19.8467 37.6191ZM19.8467 38.3613C19.5993 38.3613 19.3812 38.4134 19.1924 38.5176C19.0068 38.6217 18.8506 38.765 18.7236 38.9473C18.5999 39.1263 18.5072 39.333 18.4453 39.5674C18.3835 39.7985 18.3525 40.0443 18.3525 40.3047V40.417C18.3525 40.6807 18.3835 40.9297 18.4453 41.1641C18.5072 41.3952 18.5999 41.6003 18.7236 41.7793C18.8506 41.9583 19.0085 42.0999 19.1973 42.2041C19.3861 42.305 19.6058 42.3555 19.8564 42.3555C20.1038 42.3555 20.3203 42.305 20.5059 42.2041C20.6947 42.0999 20.8509 41.9583 20.9746 41.7793C21.0983 41.6003 21.1911 41.3952 21.2529 41.1641C21.318 40.9297 21.3506 40.6807 21.3506 40.417V40.3047C21.3506 40.0443 21.318 39.7985 21.2529 39.5674C21.1911 39.333 21.0967 39.1263 20.9697 38.9473C20.846 38.765 20.6898 38.6217 20.501 38.5176C20.3154 38.4134 20.0973 38.3613 19.8467 38.3613Z" fill="white"/>
<path fill-rule="evenodd" clip-rule="evenodd" d="M30.5938 37.6191C30.9712 37.6191 31.2969 37.6843 31.5703 37.8145C31.8469 37.9446 32.0733 38.127 32.249 38.3613C32.4248 38.5924 32.555 38.8659 32.6396 39.1816C32.7243 39.4941 32.7666 39.8359 32.7666 40.207V40.6123H29.1953C29.201 40.8376 29.2328 41.0509 29.2949 41.252C29.3665 41.47 29.4692 41.6622 29.6025 41.8281C29.7392 41.9941 29.9038 42.1244 30.0957 42.2188C30.2909 42.3131 30.5125 42.3603 30.7598 42.3604C31.0786 42.3604 31.349 42.2951 31.5703 42.165C31.7916 42.0349 31.9854 41.8606 32.1514 41.6426L32.6982 42.0771C32.5843 42.2496 32.4394 42.4141 32.2637 42.5703C32.0879 42.7265 31.8713 42.8536 31.6143 42.9512C31.3604 43.0487 31.0591 43.0977 30.7109 43.0977C30.3433 43.0976 30.0093 43.0358 29.71 42.9121C29.4139 42.7852 29.1581 42.6077 28.9434 42.3799C28.7319 42.1521 28.569 41.8817 28.4551 41.5693C28.3412 41.2569 28.2842 40.915 28.2842 40.5439V40.3389C28.2842 39.9092 28.3477 39.5267 28.4746 39.1914C28.6015 38.853 28.7742 38.5664 28.9922 38.332C29.2102 38.0977 29.4578 37.9202 29.7344 37.7998C30.0109 37.6794 30.2977 37.6192 30.5938 37.6191ZM30.5938 38.3613C30.3888 38.3614 30.1998 38.4053 30.0273 38.4932C29.855 38.5778 29.7066 38.7049 29.583 38.874C29.4594 39.0433 29.3633 39.2501 29.2949 39.4941C29.2619 39.6123 29.2378 39.7393 29.2207 39.875H31.8633V39.8066C31.8503 39.5723 31.8014 39.3444 31.7168 39.123C31.6354 38.9017 31.5052 38.7194 31.3262 38.5762C31.1472 38.4331 30.9029 38.3613 30.5938 38.3613Z" fill="white"/>
<path d="M25.6523 37.6191C25.9127 37.6191 26.1472 37.655 26.3555 37.7266C26.5638 37.7949 26.7412 37.9056 26.8877 38.0586C27.0374 38.2116 27.1514 38.4102 27.2295 38.6543C27.3076 38.8952 27.3467 39.1898 27.3467 39.5381V43H26.4385V39.5283C26.4385 39.2516 26.3978 39.0303 26.3164 38.8643C26.235 38.695 26.1162 38.5729 25.96 38.498C25.8037 38.42 25.6116 38.3809 25.3838 38.3809C25.1593 38.3809 24.954 38.4281 24.7686 38.5225C24.5863 38.6169 24.4283 38.7471 24.2949 38.9131C24.2182 39.0109 24.1522 39.1177 24.0947 39.2324V43H23.1914V37.7168H24.0459L24.0742 38.377C24.0846 38.3638 24.0938 38.3498 24.1045 38.3369C24.2933 38.1091 24.518 37.9333 24.7783 37.8096C25.0419 37.6826 25.3334 37.6192 25.6523 37.6191Z" fill="white"/>
</svg>
