<svg width="50" height="50" viewBox="0 0 50 50" fill="none" xmlns="http://www.w3.org/2000/svg">
<path d="M8 16.2464C8.13582 16.2187 8.26905 16.1807 8.3984 16.133C13.7776 13.4672 19.1569 10.7999 24.5361 8.13097C24.6783 8.04545 24.8437 8 25.0127 8C25.1816 8 25.347 8.04545 25.4892 8.13097C30.8247 10.7904 36.1653 13.4404 41.5109 16.081C41.6168 16.133 41.7126 16.1944 41.8135 16.2512C41.7278 16.3504 41.6622 16.4922 41.5513 16.5489C39.4786 17.6219 37.4009 18.6806 35.3282 19.7441C33.0084 20.9352 30.6886 22.1278 28.3688 23.3221C27.2644 23.894 26.17 24.4753 25.0707 25.0567C20.068 22.4949 15.067 19.9331 10.0676 17.3714C9.40196 17.0358 8.70602 16.7474 8.02522 16.426L8 16.2464Z" fill="#0E6D56"/>
<path d="M8 16.4355C8.68081 16.7475 9.37675 17.0358 10.0424 17.3808C15.0451 19.9394 20.0461 22.5012 25.0454 25.0662C25.0454 27.1884 25.0454 29.32 25.0454 31.4375C25.0626 31.5978 25.0964 31.7561 25.1463 31.9102C25.1414 31.94 25.1414 31.9702 25.1463 32H24.8488C24.7648 31.9288 24.6736 31.8655 24.5764 31.8109L8.59508 23.6009C8.40849 23.5064 8.20172 23.4497 8.01009 23.3741L8 16.4355Z" fill="#88BDAF"/>
<path d="M25.1512 31.9102C25.1014 31.7561 25.0676 31.5978 25.0504 31.4375C25.0504 29.3153 25.0504 27.1837 25.0504 25.0662C26.1498 24.4848 27.2441 23.9034 28.3485 23.3315C30.6448 22.131 32.9696 20.9352 35.323 19.7441C37.3957 18.6806 39.4734 17.6219 41.5461 16.5489C41.6571 16.4922 41.7226 16.3504 41.8084 16.2512C41.8739 16.3693 42 16.4922 42 16.6104C42 18.7373 42 20.8643 42 22.9818C42 23.289 41.8235 23.3788 41.6016 23.4922L30.4616 29.2066L25.1512 31.9102Z" fill="#168B75"/>
<path d="M40 37.3079V38.6921C40 39.2621 39.9314 39.7555 39.7943 40.1723C39.661 40.5892 39.4667 40.933 39.2114 41.2037C38.96 41.4745 38.659 41.6758 38.3086 41.8076C37.9619 41.9359 37.5771 42 37.1543 42C36.8152 42 36.499 41.959 36.2057 41.8771C35.9124 41.7951 35.6476 41.6687 35.4114 41.4977C35.179 41.3231 34.979 41.1058 34.8114 40.8457C34.6438 40.5856 34.5143 40.2757 34.4229 39.9158C34.3352 39.556 34.2914 39.1481 34.2914 38.6921V37.3079C34.2914 36.7308 34.3581 36.2356 34.4914 35.8223C34.6286 35.409 34.8248 35.067 35.08 34.7963C35.3352 34.5255 35.6362 34.326 35.9829 34.1977C36.3333 34.0695 36.72 34.0053 37.1429 34.0053C37.4819 34.0053 37.7962 34.0463 38.0857 34.1283C38.379 34.2102 38.6438 34.3367 38.88 34.5077C39.1162 34.6787 39.3162 34.8942 39.48 35.1543C39.6476 35.4144 39.7752 35.7243 39.8629 36.0842C39.9543 36.4404 40 36.8484 40 37.3079ZM38.2171 38.9005V37.0888C38.2171 36.8216 38.2 36.5901 38.1657 36.3941C38.1352 36.1946 38.0895 36.0254 38.0286 35.8864C37.9714 35.7475 37.899 35.6353 37.8114 35.5498C37.7238 35.4643 37.6229 35.4019 37.5086 35.3627C37.3981 35.32 37.2762 35.2986 37.1429 35.2986C36.9752 35.2986 36.8248 35.3307 36.6914 35.3948C36.5581 35.4589 36.4457 35.5605 36.3543 35.6994C36.2629 35.8348 36.1924 36.0183 36.1429 36.2498C36.0971 36.4778 36.0743 36.7575 36.0743 37.0888V38.9005C36.0743 39.1677 36.0895 39.401 36.12 39.6005C36.1543 39.8 36.2 39.9711 36.2571 40.1136C36.3181 40.2525 36.3924 40.3665 36.48 40.4556C36.5676 40.5411 36.6686 40.6034 36.7829 40.6426C36.8971 40.6818 37.021 40.7014 37.1543 40.7014C37.3219 40.7014 37.4705 40.6711 37.6 40.6106C37.7295 40.5464 37.84 40.4449 37.9314 40.3059C38.0267 40.1634 38.0971 39.9764 38.1429 39.7448C38.1924 39.5132 38.2171 39.2318 38.2171 38.9005Z" fill="#0E6D56"/>
<path d="M31.8514 34.016H32.1257V35.3413H32.0229C31.6229 35.3413 31.2571 35.3948 30.9257 35.5017C30.5981 35.6086 30.3143 35.7671 30.0743 35.9773C29.8343 36.1839 29.6495 36.4404 29.52 36.7468C29.3943 37.0497 29.3314 37.3988 29.3314 37.7943V39.1196C29.3314 39.3868 29.3562 39.6201 29.4057 39.8196C29.459 40.0156 29.5352 40.1795 29.6343 40.3113C29.7371 40.4395 29.861 40.5375 30.0057 40.6052C30.1505 40.6693 30.3143 40.7014 30.4971 40.7014C30.661 40.7014 30.8114 40.6676 30.9486 40.5999C31.0857 40.5322 31.2038 40.436 31.3029 40.3113C31.4019 40.1866 31.4781 40.0423 31.5314 39.8784C31.5848 39.711 31.6114 39.5293 31.6114 39.3333C31.6114 39.1267 31.5829 38.9397 31.5257 38.7722C31.4724 38.6012 31.3943 38.4551 31.2914 38.334C31.1924 38.2129 31.0705 38.1202 30.9257 38.0561C30.781 37.9884 30.621 37.9546 30.4457 37.9546C30.1943 37.9546 29.9771 38.008 29.7943 38.1149C29.6114 38.2218 29.4705 38.3589 29.3714 38.5264C29.2724 38.6938 29.221 38.8648 29.2171 39.0394L28.7429 38.6707C28.7429 38.4284 28.7943 38.1897 28.8971 37.9546C29.0038 37.7159 29.1543 37.5003 29.3486 37.3079C29.5429 37.112 29.781 36.957 30.0629 36.843C30.3486 36.7255 30.6743 36.6667 31.04 36.6667C31.4248 36.6667 31.7638 36.7361 32.0571 36.8751C32.3505 37.0105 32.5962 37.1993 32.7943 37.4415C32.9962 37.6838 33.1467 37.967 33.2457 38.2912C33.3486 38.6119 33.4 38.9557 33.4 39.3226C33.4 39.7003 33.3295 40.053 33.1886 40.3808C33.0514 40.705 32.8571 40.9882 32.6057 41.2305C32.3543 41.4727 32.0533 41.6615 31.7029 41.7969C31.3562 41.9323 30.9695 42 30.5429 42C30.101 42 29.6971 41.927 29.3314 41.7809C28.9695 41.6348 28.6533 41.4264 28.3829 41.1556C28.1162 40.8813 27.9086 40.5536 27.76 40.1723C27.6152 39.7911 27.5429 39.3636 27.5429 38.8898V38.2645C27.5429 37.6161 27.6495 37.0318 27.8629 36.5117C28.08 35.9915 28.381 35.5462 28.7657 35.1757C29.1543 34.8016 29.6114 34.5148 30.1371 34.3153C30.6629 34.1158 31.2343 34.016 31.8514 34.016Z" fill="#0E6D56"/>
<path d="M22.5257 37.2919H23.4343C23.6933 37.2919 23.9067 37.2492 24.0743 37.1637C24.2457 37.0782 24.3714 36.957 24.4514 36.8003C24.5352 36.6435 24.5771 36.46 24.5771 36.2498C24.5771 36.0681 24.539 35.906 24.4629 35.7635C24.3867 35.621 24.2705 35.5088 24.1143 35.4269C23.9619 35.3413 23.7638 35.2986 23.52 35.2986C23.3448 35.2986 23.1771 35.3324 23.0171 35.4001C22.861 35.4643 22.7333 35.5587 22.6343 35.6834C22.5352 35.8045 22.4857 35.9506 22.4857 36.1216H20.6971C20.6971 35.6869 20.8229 35.3111 21.0743 34.994C21.3295 34.6769 21.6667 34.4329 22.0857 34.2619C22.5086 34.0873 22.9695 34 23.4686 34C24.0438 34 24.5486 34.0855 24.9829 34.2565C25.421 34.424 25.76 34.6733 26 35.0047C26.2438 35.3324 26.3657 35.7386 26.3657 36.2231C26.3657 36.4761 26.301 36.7201 26.1714 36.9552C26.0457 37.1868 25.8648 37.3935 25.6286 37.5752C25.3962 37.7533 25.1181 37.8958 24.7943 38.0027C24.4743 38.106 24.1181 38.1576 23.7257 38.1576H22.5257V37.2919ZM22.5257 38.5478V37.6981H23.7257C24.16 37.6981 24.5486 37.7444 24.8914 37.837C25.2343 37.9296 25.5257 38.0632 25.7657 38.2378C26.0057 38.4124 26.1886 38.6244 26.3143 38.8737C26.44 39.1231 26.5029 39.401 26.5029 39.7074C26.5029 40.0708 26.4267 40.395 26.2743 40.68C26.1219 40.965 25.9086 41.2055 25.6343 41.4015C25.36 41.5974 25.0381 41.747 24.6686 41.8504C24.299 41.9501 23.899 42 23.4686 42C23.1219 42 22.7771 41.9555 22.4343 41.8664C22.0914 41.7773 21.781 41.642 21.5029 41.4603C21.2248 41.275 21.0019 41.0416 20.8343 40.7602C20.6667 40.4752 20.5829 40.1367 20.5829 39.7448H22.3714C22.3714 39.9265 22.421 40.0904 22.52 40.2365C22.6229 40.379 22.7619 40.493 22.9371 40.5785C23.1162 40.6604 23.3105 40.7014 23.52 40.7014C23.7714 40.7014 23.9848 40.6587 24.16 40.5731C24.339 40.4841 24.4743 40.3629 24.5657 40.2098C24.661 40.0566 24.7086 39.8802 24.7086 39.6807C24.7086 39.4099 24.6571 39.1926 24.5543 39.0287C24.4552 38.8613 24.3105 38.7401 24.12 38.6653C23.9295 38.587 23.701 38.5478 23.4343 38.5478H22.5257Z" fill="#0E6D56"/>
<path d="M16.64 39.189H14.5486V37.837H16.64C16.9486 37.837 17.1962 37.7889 17.3829 37.6927C17.5733 37.5965 17.7124 37.4647 17.8 37.2973C17.8914 37.1263 17.9371 36.9339 17.9371 36.7201C17.9371 36.4992 17.8914 36.2944 17.8 36.1055C17.7124 35.9132 17.5733 35.7582 17.3829 35.6406C17.1962 35.523 16.9486 35.4643 16.64 35.4643H15.2229V41.8931H13.36V34.1122H16.64C17.3029 34.1122 17.8705 34.2244 18.3429 34.4489C18.819 34.6733 19.1829 34.9815 19.4343 35.3734C19.6895 35.7617 19.8171 36.2071 19.8171 36.7094C19.8171 37.2118 19.6895 37.6482 19.4343 38.0187C19.1829 38.3892 18.819 38.6778 18.3429 38.8844C17.8705 39.0875 17.3029 39.189 16.64 39.189Z" fill="#0E6D56"/>
<path d="M11.8571 34.1122V41.8931H10V34.1122H11.8571Z" fill="#0E6D56"/>
</svg>
