<svg width="50" height="50" viewBox="0 0 50 50" fill="none" xmlns="http://www.w3.org/2000/svg">
<path d="M24.545 12.6288C24.6845 12.5447 24.8466 12.5 25.0123 12.5C25.1779 12.5 25.3401 12.5447 25.4795 12.6288C30.7104 15.2452 35.9462 17.8523 41.187 20.4501C41.2908 20.5012 41.3847 20.5617 41.4836 20.6175C41.3996 20.7151 41.3353 20.8546 41.2265 20.9104C35.8438 23.7064 30.4271 26.4371 25.0691 29.2803C19.5135 26.4255 14.0025 23.4635 8.35797 20.7895L24.545 12.6288Z" fill="#0B1B79"/>
<path d="M8.33325 20.7988C14.0047 23.4066 19.4952 26.4327 25.0444 29.2896C25.0444 31.3775 24.9974 34.0279 24.9974 36.1111C19.5164 33.3331 8.34314 27.6249 8.34314 27.6249L8.33325 20.7988Z" fill="#766EAC"/>
<path d="M24.9974 36.1111C24.9974 36.1111 25.0493 31.3728 25.0493 29.2896C30.4127 26.4436 35.8335 23.7092 41.2215 20.9104C41.3303 20.8546 41.3945 20.7151 41.4786 20.6175C41.5429 20.7337 41.6665 20.8546 41.6665 20.9709C41.6665 23.0633 41.6665 25.1558 41.6665 27.239C41.6665 27.5412 41.4934 27.6296 41.2759 27.7412C40.1215 28.3354 24.9974 36.1111 24.9974 36.1111Z" fill="#444490"/>
</svg>
