<svg width="50" height="50" viewBox="0 0 50 50" fill="none" xmlns="http://www.w3.org/2000/svg">
<path d="M35.9023 40.229C35.4607 39.0689 34.9992 38.0973 34.7269 37.0803C34.4546 36.0632 34.3749 35.0168 34.199 33.9153H30.2144C30.6759 36.2094 29.3975 38.0778 28.6504 40.2777C27.9166 38.1006 26.7046 36.2354 27.206 33.9218H22.9558C23.3974 36.1964 22.1289 38.0713 21.3852 40.2517C20.6015 38.1071 19.4526 36.2126 19.8777 33.9055H15.6042C16.0823 36.2029 14.8703 38.0648 14.0635 40.0795C13.5521 38.4255 12.5061 36.9633 12.5095 35.1468C12.5294 27.7402 12.5294 20.3357 12.5095 12.9334C12.4455 12.4941 12.7397 12.042 13.1736 11.913C16.1255 10.6392 19.2302 10.0803 22.4212 9.8431C26.4044 9.5182 30.4147 9.90692 34.2554 10.9902C35.2175 11.2892 36.1582 11.6507 37.0712 12.0722C37.2866 12.2055 37.4311 12.4379 37.453 12.6864C37.473 20.4137 37.5062 28.1409 37.4232 35.8682C37.4232 37.3105 36.442 38.8895 35.9023 40.229ZM27.04 17.1739V13.1056C25.7749 13.1056 24.5097 13.1056 23.2446 13.1056C23.1417 13.1056 22.9558 13.3005 22.9524 13.4045C22.9325 14.6458 22.9524 15.8871 22.9524 17.1544L27.04 17.1739ZM19.7349 23.8679V20.3194H15.7038V23.8679H19.7349ZM22.9956 20.2934V23.8451H27.0433V20.2967L22.9956 20.2934ZM34.3285 20.3162H30.2774V23.8451H34.3285V20.3162ZM15.6872 26.9874V30.5618H19.7415V26.9874H15.6872ZM27.0366 30.5618V26.9874H23.0122V30.5618H27.0366ZM30.2741 26.9874V30.5618H34.3085V26.9874H30.2741ZM34.3517 17.1772C34.3517 16.4103 34.3185 15.6954 34.3517 14.987C34.4063 14.6712 34.1596 14.3656 33.8403 14.3371L30.2841 13.4305V17.1772H34.3517ZM19.7415 17.1772V13.4305C18.493 13.7555 17.3109 14.0252 16.1388 14.3339C15.9595 14.3826 15.6839 14.5419 15.6772 14.6588C15.6374 15.4972 15.6573 16.3388 15.6573 17.1674L19.7415 17.1772Z" fill="#02A39C"/>
</svg>
