<svg width="50" height="50" viewBox="0 0 50 50" fill="none" xmlns="http://www.w3.org/2000/svg">
<path d="M8.18972 21.4264V18.4346L4.50908 19.443V21.1749C4.49744 21.5096 4.28743 21.9277 3.9231 21.9808V23.8182C4.34089 24.0436 4.51394 24.5506 4.48525 25.0038V29.4787C4.48525 30.9709 5.02919 32.071 7.22799 32.1721C8.01202 32.1877 8.81562 32.2459 9.5483 31.9272V30.0336C8.76941 29.7591 8.22363 29.1678 8.22363 28.3081V24.7827C8.15717 24.3169 8.43693 23.8989 8.93383 23.9135H9.78374V21.9526H8.85457C8.54102 21.9526 8.17599 21.792 8.18972 21.4264ZM20.9727 29.0036V21.8368H16.6611V23.8031C17.0856 23.9047 17.3311 24.3471 17.3136 24.7658V28.8132C17.3952 29.6184 16.8331 29.6329 16.2249 29.6329C15.0375 29.7514 15.151 28.4449 15.151 27.6415V21.837H10.7414V23.8033C11.1052 23.914 11.3959 24.2206 11.3927 24.6125V29.3774C11.3927 32.3744 14.6871 32.7163 16.7278 31.661C17.1617 31.4395 17.4303 31.5748 17.4303 32.0252H21.6025V30.1192C21.1321 29.9584 20.9933 29.4547 20.9727 29.0036ZM45.6603 29.0439V24.4409C45.6603 21.4495 42.7068 21.1156 40.6981 22.1837C40.495 22.2647 39.9937 22.4211 39.9937 22.022V21.7411H35.8462V23.7422C36.2046 23.996 36.4403 24.3962 36.4818 24.8215V28.887C36.5095 29.2329 36.3921 29.5883 36.0848 29.7713V32.0075H40.7285V29.8387C40.3376 29.6843 40.0771 29.2917 40.0752 28.887V25.0294C40.0566 24.1578 41.169 23.7238 41.7319 24.5039C42.108 24.9107 41.9849 25.7064 41.9849 26.2037V32.0071H46.077V29.8458C45.7623 29.7069 45.6321 29.3749 45.6603 29.0439ZM26.2751 17.826C24.0395 17.9362 23.3593 19.0782 23.3593 20.6201C23.3593 21.0515 23.4542 21.7875 22.8849 21.9007V23.7985C23.3297 24.0649 23.3593 24.5195 23.3593 24.9869V28.9254C23.3593 29.3328 23.3304 29.7199 22.9072 29.8937V32.0071H27.7265V29.9115C27.3347 29.7488 27.1194 29.3438 27.1543 28.9254L27.1362 24.7658C27.1362 23.9487 27.698 23.9068 28.34 23.9068V21.8756C27.6378 21.8756 27.1362 21.8426 27.1362 21.0759C27.0719 20.2626 27.9181 19.7814 28.6543 19.8581V18.0081C27.8933 17.7214 27.0789 17.7996 26.2751 17.826ZM34.2076 28.9252V21.8006H29.8786V23.8005C30.2379 24.008 30.4986 24.4665 30.5111 24.8745V28.9252C30.5447 29.28 30.4273 29.6307 30.1187 29.8237V32.0073H34.7266V29.8237C34.4183 29.6493 34.2215 29.2713 34.2076 28.9252Z" fill="#EC7700"/>
</svg>
