<svg width="50" height="50" viewBox="0 0 50 50" fill="none" xmlns="http://www.w3.org/2000/svg">
<path d="M39.2921 22.0069V16.8719L34.8413 19.4251V24.5782L39.2921 22.0069ZM34.8413 25.5769V30.3555L38.9989 27.958L34.8413 25.5769ZM34.2888 19.7651L29.8263 22.3352V33.9447L24.806 36.8426V41.983L39.2916 33.6169V28.4425L34.2894 31.3405L34.2888 19.7651ZM19.7474 15.8997L23.922 13.4846L19.7474 11.0696V15.8997ZM19.4712 21.8518L29.5278 16.0383L34.5481 18.9363L39.0106 16.3661L24.5085 8L20.0232 10.5872L25.0435 13.4852L15.0214 19.2641L19.4712 21.8518ZM14.7617 36.169L18.9187 33.7715L14.7617 31.3739V36.169ZM24.2147 31.0297L14.1752 25.2391V19.4484L9.70789 16.8719V33.6222L14.1938 36.2094V30.3906L24.2158 36.1812L24.2147 31.0297ZM24.2328 36.8416L19.7703 34.2544V39.4075L24.2328 41.9947V36.8416ZM14.7447 24.9044L19.1949 27.4746V22.3331L14.7447 19.7629V24.9044ZM10.0006 16.3656L14.4509 18.9358L18.9362 16.3486L14.4737 13.7784L10.0006 16.3656ZM28.9758 27.9575L24.525 25.4043L20.0625 27.9745L24.5133 30.5447L28.9758 27.9575ZM24.2147 24.9214V19.764L19.7639 22.3342V27.4873L24.2147 24.9214ZM33.9897 19.2806L29.5272 16.6934L25.0769 19.2636L29.5395 21.8507L33.9897 19.2806ZM24.7848 24.8937L29.2473 27.4809V22.34L24.7848 19.7528V24.8937ZM24.7848 31.035V36.1881L29.2473 33.6179V28.4531L24.7848 31.035Z" fill="#6118FF"/>
</svg>
