<svg width="50" height="50" viewBox="0 0 50 50" fill="none" xmlns="http://www.w3.org/2000/svg">
<rect width="50" height="50" fill="#052B48"/>
<path d="M16 8.00203C16.3793 8.00203 16.7585 8.00608 17.1358 8.00608C22.3481 8.00608 27.5626 8.00811 32.7749 8C33.0224 8 33.069 8.09127 33.067 8.30828C33.0609 9.80304 33.0589 11.2998 33.067 12.7946C33.067 13.0014 32.9919 13.0461 32.7993 13.0461C31.0611 13.038 29.325 13.04 27.5869 13.038C27.4956 13.038 27.4064 13.038 27.2705 13.038C27.2705 13.2266 27.2705 13.3929 27.2705 13.5572C27.2705 23.1423 27.2705 32.7294 27.2705 42.3145C27.2705 42.4747 27.2705 42.6329 27.2746 42.7931C27.2786 42.9412 27.2137 43 27.0616 43C25.3579 42.998 23.6543 42.9959 21.9506 43C21.7803 43 21.7296 42.929 21.7316 42.7728C21.7397 42.3023 21.7417 41.8318 21.7417 41.3612C21.7417 32.1209 21.7417 22.8786 21.7397 13.6383C21.7397 13.2367 21.5376 13.0366 21.1333 13.038C19.5736 13.038 18.0119 13.038 16.4523 13.0359C16.3022 13.0359 16.1501 13.0096 16 12.9954C16 11.3323 16 9.66715 16 8.00406V8.00203Z" fill="white"/>
</svg>
