<svg width="50" height="50" viewBox="0 0 50 50" fill="none" xmlns="http://www.w3.org/2000/svg">
<rect width="50" height="50" fill="#002676"/>
<path d="M23.1675 38.3402C21.8588 38.0344 21.4232 37.5991 21.3793 36.0291C21.2916 32.7158 21.2916 30.1437 21.2916 25.4348V25.3481C28.7074 25.1727 32.5907 26.8294 32.5907 32.2366C32.5907 35.4194 30.3221 38.6022 25.7411 38.6022C24.5639 38.6022 23.8224 38.5145 23.1675 38.3402ZM21.3793 14.0554C21.3793 13.1828 21.5966 12.8341 22.2515 12.5731C22.7748 12.3988 23.5602 12.3111 24.7812 12.3111C28.4024 12.3111 30.6271 14.2736 30.6271 18.1099C30.6271 20.2467 29.9294 22.0348 28.7951 23.3856C26.5704 22.9931 24.0396 22.8626 21.2916 22.9931C21.2916 19.5483 21.2916 17.0639 21.3793 14.0554ZM26.4388 41C33.6811 41 38 36.7702 38 31.8442C38 27.9641 35.6437 25.4786 31.7614 24.1268C33.9423 22.8188 35.8191 20.421 35.8191 17.543C35.8191 12.878 31.9358 10 25.1301 10C22.2076 10 21.5089 10.262 18.7609 10.262C15.9251 10.262 14.1809 10.0438 13.0466 10.0438C12.3489 10.0438 12 10.4363 12 11.0032C12 11.4823 12.2611 11.8758 13.1771 12.0502C15.5334 12.3988 16.1006 12.878 16.1006 14.0554C16.1445 17.7612 16.1873 20.5515 16.1873 25.4348C16.1873 30.318 16.1873 33.196 16.1006 36.9017C16.0567 38.1659 15.6212 38.5145 13.2649 38.7327C12.3489 38.8632 12.0867 39.2995 12.0867 39.7787C12.0867 40.3455 12.4356 40.738 13.1343 40.738C14.8357 40.738 16.4494 40.6513 18.7609 40.6513C20.9428 40.6513 22.9482 41 26.4388 41Z" fill="#FCB900"/>
</svg>
