<svg width="50" height="50" viewBox="0 0 50 50" fill="none" xmlns="http://www.w3.org/2000/svg">
<rect width="50" height="50" fill="#0075F3"/>
<path d="M17.0454 12.3376H32.9545V28.8512H38V7.09766H17.0454V12.3376Z" fill="white"/>
<path d="M32.9504 28.8511V34.0977H12V12.3376H17.0518V28.8511H32.9504Z" fill="white"/>
<path d="M22.8341 42.0628H22.0054C21.8678 42.878 21.5153 43.3703 20.4516 43.3703C19.3307 43.3703 18.8287 42.4375 18.8287 41.2928C18.8287 40.1786 19.0033 38.6337 20.525 38.6337C21.4969 38.6337 21.8837 39.1291 22.0054 39.9532H22.8341C22.7008 38.7645 21.7896 38 20.525 38C18.4564 38 18 39.7403 18 41.2928C18 42.6664 18.871 44 20.4516 44C21.7447 44 22.6956 43.2472 22.8341 42.0628Z" fill="white"/>
<path d="M27.3186 42.4439C27.3186 41.8988 27.0271 41.6381 25.8252 41.3128C24.5781 40.9695 23.788 40.4963 23.788 39.5882C23.788 38.6715 24.646 38 25.9245 38C27.0169 38 28.1387 38.6437 28.1387 39.7647H27.31C27.31 39.1003 26.8581 38.6337 25.9245 38.6337C25.0378 38.6337 24.621 39.0317 24.621 39.5802C24.621 40.0738 25.0722 40.3756 26.0928 40.639C27.518 41.0128 28.1559 41.5221 28.1559 42.4358C28.1559 43.3847 27.2997 44 25.9633 44C24.8398 44 23.5894 43.3755 23.5894 42.2273H24.4181C24.4181 43.0283 25.1666 43.3703 25.9633 43.3703C26.8378 43.3703 27.3186 43.01 27.3186 42.4439Z" fill="white"/>
<path d="M30.9355 43.9198H31.6736L34 38.0802H33.0979L31.2983 42.8942L29.5155 38.0802H28.6134L30.9355 43.9198Z" fill="white"/>
</svg>
