<svg width="50" height="50" viewBox="0 0 50 50" fill="none" xmlns="http://www.w3.org/2000/svg">
<path d="M15.8216 11.8222H34.1782V30.1706H40V6H15.8216V11.8222Z" fill="#0075F3"/>
<path d="M34.1735 30.1705V36H10V11.8222H15.829V30.1705H34.1735Z" fill="#0075F3"/>
<path d="M22.0547 43.7393H21.1172C20.9615 44.7317 20.5628 45.3311 19.3594 45.3311C18.0914 45.3311 17.5234 44.1954 17.5234 42.8018C17.5234 41.4453 17.721 39.5645 19.4424 39.5645C20.542 39.5645 20.9795 40.1676 21.1172 41.1709H22.0547C21.9039 39.7237 20.873 38.793 19.4424 38.793C17.1023 38.793 16.5859 40.9117 16.5859 42.8018C16.5859 44.474 17.5712 46.0977 19.3594 46.0977C20.8222 46.0977 21.898 45.1812 22.0547 43.7393Z" fill="black"/>
<path d="M27.1279 44.2031C27.1279 43.5396 26.7982 43.2222 25.4385 42.8262C24.0277 42.4081 23.1338 41.8321 23.1338 40.7266C23.1338 39.6105 24.1045 38.793 25.5508 38.793C26.7866 38.793 28.0557 39.5767 28.0557 40.9414H27.1182C27.1182 40.1326 26.6069 39.5645 25.5508 39.5645C24.5477 39.5645 24.0762 40.049 24.0762 40.7168C24.0762 41.3178 24.5866 41.6851 25.7412 42.0059C27.3535 42.4609 28.0752 43.081 28.0752 44.1934C28.0752 45.3485 27.1065 46.0977 25.5947 46.0977C24.3237 46.0977 22.9092 45.3373 22.9092 43.9395H23.8467C23.8467 44.9146 24.6934 45.3311 25.5947 45.3311C26.584 45.3311 27.1279 44.8923 27.1279 44.2031Z" fill="black"/>
<path d="M31.2197 46H32.0547L34.6865 38.8906H33.666L31.6302 44.7514L29.6133 38.8906H28.5928L31.2197 46Z" fill="black"/>
</svg>
