<svg width="50" height="50" viewBox="0 0 50 50" fill="none" xmlns="http://www.w3.org/2000/svg">
<rect width="50" height="50" fill="black"/>
<path d="M34.2834 17.7203L24.9983 12.3601L15.7158 17.7203V12.3601L24.9996 7L34.2847 12.3601V17.7203H34.2834Z" fill="#A435F0"/>
<path d="M15.716 22.2216H20.5792V34.0374C20.5792 37.0902 22.8589 38.5782 24.9998 38.5782C27.1591 38.5782 29.4216 37.0505 29.4216 33.9965V22.2216H34.2849V34.3189C34.2849 37.1311 33.4007 39.3011 31.6325 40.7891C29.863 42.2759 27.6534 43.0001 24.9588 43.0001C22.2668 43.0001 20.0559 42.2772 18.3287 40.7891C16.6001 39.3024 15.716 37.2131 15.716 34.4392V22.2216Z" fill="white"/>
</svg>
