<svg width="50" height="50" viewBox="0 0 50 50" fill="none" xmlns="http://www.w3.org/2000/svg">
<rect width="50" height="50" fill="#005151"/>
<path d="M9.15048 17.576C9.15048 20.235 9.14877 22.8946 9.15146 25.5536C9.15147 26.1871 9.20517 26.8124 9.44931 27.4081C9.86595 28.422 10.6472 28.9492 11.7022 29.1014C12.3101 29.1889 12.9134 29.1516 13.4952 28.9461C14.5169 28.5856 15.0744 27.8204 15.2774 26.785C15.3564 26.3831 15.3811 25.9655 15.3829 25.5545C15.3919 22.8956 15.3878 20.236 15.3878 17.577V17.287H18.5177C18.5248 17.3338 18.5401 17.3838 18.5401 17.4325C18.5383 20.286 18.5586 23.1405 18.5235 25.994C18.502 27.7444 17.8653 29.2626 16.5606 30.4569C15.5228 31.4057 14.2776 31.8962 12.8897 32.0125C11.3858 32.1388 9.96592 31.8509 8.69541 31.0047C7.08003 29.9285 6.24796 28.3756 6.04502 26.4647C6.00551 26.0924 6.00294 25.7147 6.00205 25.3397C5.99935 22.7493 6.00009 20.1576 6.00009 17.5663V17.2782H9.15048V17.576Z" fill="#E5FF1E"/>
<path d="M37.0147 17.1307C38.9056 16.8081 40.7238 17.0743 42.4171 18.0223C42.9683 18.3305 43.4652 18.7118 43.9347 19.1903L43.9317 19.1893C43.2378 19.8427 42.5515 20.4891 41.8575 21.1434C41.563 20.9569 41.2017 20.6851 40.8058 20.4833C39.3745 19.7523 37.9081 19.686 36.4444 20.3709C35.4801 20.8225 34.8506 21.6068 34.5157 22.6073C34.0641 23.9556 34.0556 25.315 34.6222 26.6327C35.257 28.1098 36.4114 28.9169 37.9962 29.1053C38.9191 29.2152 39.8124 29.0597 40.6895 28.7713C40.8322 28.7245 40.8448 28.6458 40.8448 28.5233C40.8421 27.2841 40.8429 26.0457 40.8429 24.8065V24.5389H43.9845C43.9889 24.6154 43.9971 24.6941 43.9972 24.7733C43.9972 26.6355 43.9957 28.4981 44.002 30.3612C44.002 30.5242 43.9528 30.62 43.8136 30.702C43.0378 31.1599 42.1927 31.4273 41.3253 31.6346C40.2605 31.8888 39.1858 32.054 38.086 32.037C34.7017 31.9819 31.8864 29.6306 31.2354 26.2938C30.854 24.3389 31.0325 22.4461 31.9923 20.6795C33.0806 18.676 34.7924 17.5102 37.0147 17.1307Z" fill="#E5FF1E"/>
<path d="M23.3927 24.6698C24.3471 24.5022 25.1994 24.7533 25.9347 25.3905C26.036 25.4788 26.1325 25.5733 26.2276 25.6688C28.1787 27.6283 30.1292 29.5881 32.0811 31.5467C32.1395 31.6052 32.2099 31.6507 32.2735 31.702C32.2619 31.7254 32.25 31.75 32.2384 31.7733H32.0235C30.8267 31.7733 29.6306 31.7709 28.4337 31.7772C28.2784 31.7772 28.1713 31.7299 28.0626 31.62C26.7607 30.305 25.4531 28.9948 24.1466 27.6834C24.0891 27.6258 24.0291 27.5715 23.9366 27.4823V31.7567H20.7872C20.7827 31.6918 20.7755 31.6253 20.7755 31.5604C20.7755 30.314 20.7692 29.0686 20.7765 27.8221C20.7863 26.1961 21.8168 24.9456 23.3927 24.6698Z" fill="#E5FF1E"/>
<path d="M32.0343 17.2655C32.1052 17.2655 32.1772 17.2728 32.2813 17.2782C32.2185 17.3503 32.1832 17.3959 32.1427 17.4374C30.1386 19.4508 28.1402 21.4701 26.128 23.4754C24.827 24.7716 22.8417 24.7372 21.6017 23.4149C21.0542 22.831 20.7886 22.1245 20.7804 21.329C20.7678 20.0149 20.7755 18.7006 20.7755 17.3866C20.7755 17.3578 20.7829 17.3286 20.7901 17.2792L20.7892 17.2782H23.9249V21.5809C24.0281 21.4809 24.0839 21.4279 24.1388 21.3729C25.4506 20.0561 26.7632 18.7392 28.0714 17.4188C28.1799 17.3098 28.2871 17.2607 28.4425 17.2616C29.6393 17.2679 30.8364 17.2646 32.0343 17.2655Z" fill="#E5FF1E"/>
</svg>
