<svg width="50" height="50" viewBox="0 0 50 50" fill="none" xmlns="http://www.w3.org/2000/svg">
<path d="M5.36352 27.2475C6.11525 27.2475 6.72704 27.8617 6.72704 28.6238C6.72704 29.3825 6.11525 30 5.36352 30C4.61179 30 4 29.3858 4 28.6238C4 27.865 4.61179 27.2475 5.36352 27.2475Z" fill="black"/>
<path d="M8.09056 24.4984C8.84229 24.4984 9.45408 25.1126 9.45408 25.8746C9.45408 26.6333 8.84554 27.2508 8.09056 27.2508C7.33884 27.2508 6.72704 26.6366 6.72704 25.8746C6.72704 25.1159 7.33558 24.4984 8.09056 24.4984Z" fill="black"/>
<path d="M10.8144 21.7492C11.5661 21.7492 12.1779 22.3634 12.1779 23.1221C12.1779 23.8809 11.5693 24.4951 10.8144 24.4951C10.0626 24.4951 9.45083 23.8809 9.45083 23.1221C9.45083 22.3667 10.0626 21.7492 10.8144 21.7492Z" fill="black"/>
<path d="M10.8144 27.2475C11.5661 27.2475 12.1779 27.8617 12.1779 28.6238C12.1779 29.3825 11.5693 30 10.8144 30C10.0626 30 9.45083 29.3858 9.45083 28.6238C9.45083 27.865 10.0626 27.2475 10.8144 27.2475Z" fill="black"/>
<path d="M13.5381 24.4984C14.2899 24.4984 14.9017 25.1126 14.9017 25.8746C14.9017 26.6333 14.2931 27.2508 13.5381 27.2508C12.7864 27.2508 12.1746 26.6366 12.1746 25.8746C12.1779 25.1159 12.7864 24.4984 13.5381 24.4984Z" fill="black"/>
<path d="M16.2619 21.7492C17.0137 21.7492 17.6254 22.3634 17.6254 23.1221C17.6254 23.8809 17.0169 24.4951 16.2619 24.4951C15.5102 24.4951 14.8984 23.8809 14.8984 23.1221C14.9017 22.3667 15.5102 21.7492 16.2619 21.7492Z" fill="black"/>
<path d="M16.2619 27.2475C17.0137 27.2475 17.6254 27.8617 17.6254 28.6238C17.6254 29.3825 17.0169 30 16.2619 30C15.5102 30 14.8984 29.3858 14.8984 28.6238C14.9017 27.865 15.5102 27.2475 16.2619 27.2475Z" fill="black"/>
<path d="M18.989 24.4984C19.7407 24.4984 20.3525 25.1126 20.3525 25.8746C20.3525 26.6333 19.7407 27.2508 18.989 27.2508C18.2372 27.2508 17.6254 26.6366 17.6254 25.8746C17.6254 25.1159 18.2372 24.4984 18.989 24.4984Z" fill="black"/>
<path d="M21.7128 21.7492C22.4645 21.7492 23.073 22.3634 23.073 23.1221C23.073 23.8809 22.4645 24.4951 21.7128 24.4951C20.961 24.4951 20.3525 23.8809 20.3525 23.1221C20.3525 22.3667 20.961 21.7492 21.7128 21.7492Z" fill="black"/>
<path d="M24.4365 19C25.1883 19 25.8001 19.6142 25.8001 20.3762C25.8001 21.135 25.1883 21.7525 24.4365 21.7525C23.6848 21.7525 23.073 21.1383 23.073 20.3762C23.0763 19.6175 23.6848 19 24.4365 19Z" fill="black"/>
<path d="M28.6443 29.9836C30.1036 29.9836 31.5666 29.1151 31.5666 27.5497C31.5698 26.3771 30.8376 25.5626 29.3699 25.1027C28.8983 24.9553 27.7298 24.8065 27.7298 24.1568C27.7298 23.6997 28.177 23.5163 28.5727 23.5163C29.1324 23.5163 29.396 23.8119 29.396 24.2652H31.3095C31.3095 22.7092 30.081 21.759 28.5889 21.759C27.1546 21.759 25.8001 22.682 25.8001 24.2159C25.8001 25.9387 27.4757 26.4361 28.8102 26.8961C29.1377 27.0016 29.6108 27.1443 29.6108 27.5596C29.6108 28.079 29.0811 28.2822 28.6345 28.2822C28.0034 28.2822 27.678 27.9686 27.6582 27.4906H25.7089C25.737 29.1229 27.1294 29.9836 28.6443 29.9836Z" fill="black"/>
<path d="M35.1429 29.9836C36.6023 29.9836 38.0652 29.1151 38.0652 27.5497C38.0685 26.3771 37.3363 25.5626 35.8686 25.1027L34.9542 24.817C34.4726 24.6692 34.2285 24.4491 34.2285 24.1568C34.2285 23.7672 34.5598 23.5163 35.0714 23.5163C35.6311 23.5163 35.8947 23.8119 35.8947 24.2652H37.8082C37.8082 22.7092 36.5797 21.759 35.0876 21.759C33.4741 21.759 32.0136 22.9726 32.3411 24.6987C32.5312 25.7008 33.4476 26.3132 34.3749 26.5742C34.8272 26.7301 36.1095 26.9414 36.1095 27.5596C36.1095 28.079 35.5798 28.2822 35.1332 28.2822C34.5021 28.2822 34.1767 27.9686 34.1569 27.4906H32.2076C32.2356 29.1229 33.6281 29.9836 35.1429 29.9836Z" fill="black"/>
<path d="M40.6328 29.8785V26.7516H43.0507V29.8785H45V21.8641H43.0507V25.0272H40.6328V21.8641H38.7063V29.8785H40.6328Z" fill="black"/>
</svg>
