<svg width="50" height="50" viewBox="0 0 50 50" fill="none" xmlns="http://www.w3.org/2000/svg">
<path d="M13.8967 13.6529H17.3914C17.3914 14.238 17.4615 14.7776 17.4615 15.3171C17.4615 20.0211 17.4615 24.725 17.4615 29.4366C17.4489 30.6257 17.5822 31.812 17.8584 32.9702C18.2467 34.6854 19.2911 36.1911 20.7782 37.1798C22.2652 38.1685 24.0828 38.5655 25.8596 38.2897C29.689 37.8718 32.2965 35.1588 32.3976 31.1312C32.5222 25.9789 32.4521 20.819 32.4599 15.6591V13.7744H35.9546C36.0177 14.0243 36.0619 14.2782 36.0869 14.5344C36.0869 20.0363 36.1414 25.5305 36.0869 31.0324C36.0247 35.858 33.5262 39.3916 29.2532 40.9115C24.7155 42.5377 19.4384 41.4966 16.5897 38.1833C15.4689 36.8839 14.7762 35.2348 13.8889 33.7454L13.8967 13.6529Z" fill="#22A308"/>
<path d="M23.2367 32.7051V24.3459C21.7345 24.4371 21.68 23.586 21.68 22.5145C21.7423 20.2347 21.68 17.9549 21.68 15.6752C21.68 14.3909 22.2715 13.8437 23.5636 13.7601C28.0701 13.4714 28.2336 13.5854 28.2336 17.8941C28.2336 19.414 28.2336 20.9339 28.2336 22.4537C28.2336 23.4188 28.5293 24.5967 26.6769 24.1483V32.7051H23.2367Z" fill="#67666C"/>
<path d="M27.1829 10.6672C27.1841 10.9438 27.1281 11.2178 27.0181 11.4727C26.9081 11.7276 26.7465 11.9582 26.5429 12.1506C26.3393 12.343 26.098 12.4932 25.8335 12.5921C25.569 12.6911 25.2866 12.7369 25.0035 12.7266C24.6999 12.7348 24.3976 12.6834 24.1147 12.5755C23.8317 12.4676 23.5737 12.3055 23.3561 12.0986C23.1384 11.8917 22.9654 11.6444 22.8473 11.3711C22.7292 11.0978 22.6684 10.8042 22.6685 10.5076C22.6969 9.91098 22.9639 9.34899 23.4122 8.94255C23.8605 8.53611 24.4543 8.31768 25.0658 8.33425C25.3653 8.34124 25.6601 8.40844 25.9318 8.53166C26.2035 8.65487 26.4463 8.83146 26.6449 9.05039C26.8436 9.26932 26.9939 9.52589 27.0865 9.80408C27.179 10.0823 27.2118 10.3761 27.1829 10.6672Z" fill="#6A696F"/>
</svg>
