<svg width="50" height="50" viewBox="0 0 50 50" fill="none" xmlns="http://www.w3.org/2000/svg">
<path d="M25 45C36.0457 45 45 36.0457 45 25C45 13.9543 36.0457 5 25 5C13.9543 5 5 13.9543 5 25C5 36.0457 13.9543 45 25 45Z" fill="black"/>
<path d="M16.0664 17.8203H20.418V26.0273C20.418 27.8359 21.0508 28.5469 22.8516 28.5469H27.1602C28.9531 28.5469 29.5977 27.8359 29.5977 26.0273V17.8203H33.9453V26.957C33.9453 30.4883 32.125 32.1836 28.1172 32.1836H21.8828C17.8711 32.1836 16.0547 30.4961 16.0547 26.957L16.0664 17.8203Z" fill="white"/>
</svg>
