<svg width="50" height="50" viewBox="0 0 50 50" fill="none" xmlns="http://www.w3.org/2000/svg">
<path d="M17.8789 43.6914H18.6289C18.5898 44.0508 18.487 44.3724 18.3203 44.6562C18.1536 44.9401 17.918 45.1654 17.6133 45.332C17.3086 45.4961 16.9284 45.5781 16.4727 45.5781C16.1393 45.5781 15.8359 45.5156 15.5625 45.3906C15.2917 45.2656 15.0586 45.0885 14.8633 44.8594C14.668 44.6276 14.5169 44.3503 14.4102 44.0273C14.306 43.7018 14.2539 43.3398 14.2539 42.9414V42.375C14.2539 41.9766 14.306 41.6159 14.4102 41.293C14.5169 40.9674 14.6693 40.6888 14.8672 40.457C15.0677 40.2253 15.3086 40.0469 15.5898 39.9219C15.8711 39.7969 16.1875 39.7344 16.5391 39.7344C16.9688 39.7344 17.332 39.8151 17.6289 39.9766C17.9258 40.138 18.1562 40.362 18.3203 40.6484C18.487 40.9323 18.5898 41.2617 18.6289 41.6367H17.8789C17.8424 41.3711 17.7747 41.1432 17.6758 40.9531C17.5768 40.7604 17.4362 40.612 17.2539 40.5078C17.0716 40.4036 16.8333 40.3516 16.5391 40.3516C16.2865 40.3516 16.0638 40.3997 15.8711 40.4961C15.681 40.5924 15.5208 40.7292 15.3906 40.9062C15.263 41.0833 15.1667 41.2956 15.1016 41.543C15.0365 41.7904 15.0039 42.0651 15.0039 42.3672V42.9414C15.0039 43.2201 15.0326 43.4818 15.0898 43.7266C15.1497 43.9714 15.2396 44.1862 15.3594 44.3711C15.4792 44.556 15.6315 44.7018 15.8164 44.8086C16.0013 44.9128 16.2201 44.9648 16.4727 44.9648C16.793 44.9648 17.0482 44.9141 17.2383 44.8125C17.4284 44.7109 17.5716 44.5651 17.668 44.375C17.7669 44.1849 17.8372 43.957 17.8789 43.6914Z" fill="#1C1D1F"/>
<path d="M19.8945 39.8125H20.625L22.4883 44.4492L24.3477 39.8125H25.082L22.7695 45.5H22.1992L19.8945 39.8125ZM19.6562 39.8125H20.3008L20.4062 43.2812V45.5H19.6562V39.8125ZM24.6719 39.8125H25.3164V45.5H24.5664V43.2812L24.6719 39.8125Z" fill="#1C1D1F"/>
<path d="M28.1797 45.5H26.9922L27 44.8867H28.1797C28.5859 44.8867 28.9245 44.8021 29.1953 44.6328C29.4661 44.4609 29.6693 44.2214 29.8047 43.9141C29.9427 43.6042 30.0117 43.2422 30.0117 42.8281V42.4805C30.0117 42.1549 29.9727 41.8659 29.8945 41.6133C29.8164 41.3581 29.7018 41.1432 29.5508 40.9688C29.3997 40.7917 29.2148 40.6576 28.9961 40.5664C28.7799 40.4753 28.5312 40.4297 28.25 40.4297H26.9688V39.8125H28.25C28.6224 39.8125 28.9622 39.875 29.2695 40C29.5768 40.1224 29.8411 40.3008 30.0625 40.5352C30.2865 40.7669 30.4583 41.0482 30.5781 41.3789C30.6979 41.707 30.7578 42.0768 30.7578 42.4883V42.8281C30.7578 43.2396 30.6979 43.6107 30.5781 43.9414C30.4583 44.2695 30.2852 44.5495 30.0586 44.7812C29.8346 45.013 29.5638 45.1914 29.2461 45.3164C28.931 45.4388 28.5755 45.5 28.1797 45.5ZM27.3945 39.8125V45.5H26.6406V39.8125H27.3945Z" fill="#1C1D1F"/>
<path d="M33.918 42.8398H32.4766L32.4688 42.2344H33.7773C33.9935 42.2344 34.1823 42.1979 34.3438 42.125C34.5052 42.0521 34.6302 41.9479 34.7188 41.8125C34.8099 41.6745 34.8555 41.5104 34.8555 41.3203C34.8555 41.112 34.8151 40.9427 34.7344 40.8125C34.6562 40.6797 34.5352 40.5833 34.3711 40.5234C34.2096 40.4609 34.0039 40.4297 33.7539 40.4297H32.6445V45.5H31.8906V39.8125H33.7539C34.0456 39.8125 34.306 39.8424 34.5352 39.9023C34.7643 39.9596 34.9583 40.0508 35.1172 40.1758C35.2786 40.2982 35.401 40.4544 35.4844 40.6445C35.5677 40.8346 35.6094 41.0625 35.6094 41.3281C35.6094 41.5625 35.5495 41.7747 35.4297 41.9648C35.3099 42.1523 35.1432 42.306 34.9297 42.4258C34.7188 42.5456 34.4714 42.6224 34.1875 42.6562L33.918 42.8398ZM33.8828 45.5H32.1797L32.6055 44.8867H33.8828C34.1224 44.8867 34.3255 44.8451 34.4922 44.7617C34.6615 44.6784 34.7904 44.5612 34.8789 44.4102C34.9674 44.2565 35.0117 44.0755 35.0117 43.8672C35.0117 43.6562 34.974 43.474 34.8984 43.3203C34.8229 43.1667 34.7044 43.0482 34.543 42.9648C34.3815 42.8815 34.1732 42.8398 33.918 42.8398H32.8438L32.8516 42.2344H34.3203L34.4805 42.4531C34.7539 42.4766 34.9857 42.5547 35.1758 42.6875C35.3659 42.8177 35.5104 42.9844 35.6094 43.1875C35.7109 43.3906 35.7617 43.6146 35.7617 43.8594C35.7617 44.2135 35.6836 44.513 35.5273 44.7578C35.3737 45 35.1562 45.1849 34.875 45.3125C34.5938 45.4375 34.263 45.5 33.8828 45.5Z" fill="#1C1D1F"/>
<path d="M16.4335 11.6281H33.5664V29.3649H39V6H16.4335V11.6281Z" fill="#0075F3"/>
<path d="M33.562 29.3648V35H11V11.6281H16.4404V29.3648H33.562Z" fill="#0075F3"/>
</svg>
