<svg width="50" height="50" viewBox="0 0 50 50" fill="none" xmlns="http://www.w3.org/2000/svg">
<rect width="50" height="50" fill="#0075F3"/>
<path d="M18.3709 42.0628H19.0683C19.032 42.4318 18.9363 42.762 18.7813 43.0535C18.6263 43.3449 18.4072 43.5762 18.1239 43.7473C17.8405 43.9158 17.487 44 17.0632 44C16.7532 44 16.4711 43.9358 16.2169 43.8075C15.965 43.6791 15.7483 43.4973 15.5667 43.262C15.385 43.0241 15.2446 42.7393 15.1453 42.4078C15.0484 42.0735 15 41.7019 15 41.2928V40.7112C15 40.3021 15.0484 39.9318 15.1453 39.6003C15.2446 39.266 15.3862 38.9799 15.5703 38.742C15.7568 38.504 15.9807 38.3209 16.2423 38.1925C16.5038 38.0642 16.798 38 17.125 38C17.5245 38 17.8623 38.0829 18.1384 38.2487C18.4145 38.4144 18.6288 38.6444 18.7813 38.9385C18.9363 39.2299 19.032 39.5682 19.0683 39.9532H18.3709C18.337 39.6805 18.274 39.4465 18.182 39.2513C18.09 39.0535 17.9592 38.9011 17.7897 38.7941C17.6202 38.6872 17.3986 38.6337 17.125 38.6337C16.8901 38.6337 16.683 38.6832 16.5038 38.7821C16.327 38.881 16.1781 39.0214 16.057 39.2032C15.9384 39.385 15.8488 39.6029 15.7882 39.857C15.7277 40.111 15.6974 40.393 15.6974 40.7032V41.2928C15.6974 41.5789 15.7241 41.8476 15.7773 42.0989C15.833 42.3503 15.9166 42.5709 16.028 42.7607C16.1394 42.9505 16.281 43.1003 16.453 43.2099C16.6249 43.3168 16.8283 43.3703 17.0632 43.3703C17.3611 43.3703 17.5984 43.3182 17.7752 43.2139C17.9519 43.1096 18.0851 42.9599 18.1747 42.7647C18.2667 42.5695 18.3321 42.3356 18.3709 42.0628Z" fill="white"/>
<path d="M20.2452 38.0802H20.9244L22.6571 42.8409L24.3861 38.0802H25.069L22.9186 43.9198H22.3883L20.2452 38.0802ZM20.0236 38.0802H20.623L20.721 41.6417V43.9198H20.0236V38.0802ZM24.6876 38.0802H25.287V43.9198H24.5895V41.6417L24.6876 38.0802Z" fill="white"/>
<path d="M27.9495 43.9198H26.8453L26.8525 43.2901H27.9495C28.3273 43.2901 28.6421 43.2032 28.8939 43.0294C29.1458 42.8529 29.3347 42.607 29.4606 42.2914C29.5889 41.9733 29.6531 41.6016 29.6531 41.1765V40.8195C29.6531 40.4853 29.6168 40.1885 29.5441 39.9291C29.4715 39.6671 29.3649 39.4465 29.2245 39.2674C29.084 39.0856 28.9121 38.9479 28.7087 38.8543C28.5077 38.7607 28.2764 38.7139 28.0149 38.7139H26.8235V38.0802H28.0149C28.3612 38.0802 28.6772 38.1444 28.9629 38.2727C29.2487 38.3984 29.4945 38.5816 29.7003 38.8222C29.9086 39.0602 30.0684 39.3489 30.1798 39.6885C30.2912 40.0254 30.3469 40.4051 30.3469 40.8275V41.1765C30.3469 41.5989 30.2912 41.9799 30.1798 42.3195C30.0684 42.6564 29.9074 42.9439 29.6967 43.1818C29.4884 43.4198 29.2366 43.6029 28.9412 43.7313C28.6481 43.857 28.3176 43.9198 27.9495 43.9198ZM27.2194 38.0802V43.9198H26.5183V38.0802H27.2194Z" fill="white"/>
<path d="M33.2855 41.1885H31.9452L31.9379 40.5668H33.1547C33.3557 40.5668 33.5313 40.5294 33.6814 40.4545C33.8316 40.3797 33.9478 40.2727 34.0301 40.1337C34.1149 39.992 34.1573 39.8235 34.1573 39.6283C34.1573 39.4144 34.1197 39.2406 34.0447 39.107C33.972 38.9706 33.8594 38.8717 33.7069 38.8102C33.5567 38.746 33.3654 38.7139 33.1329 38.7139H32.1013V43.9198H31.4003V38.0802H33.1329C33.4042 38.0802 33.6463 38.111 33.8594 38.1725C34.0725 38.2313 34.2529 38.3249 34.4007 38.4532C34.5508 38.5789 34.6646 38.7393 34.7421 38.9345C34.8196 39.1297 34.8583 39.3636 34.8583 39.6364C34.8583 39.877 34.8026 40.0949 34.6912 40.2901C34.5799 40.4826 34.4249 40.6404 34.2263 40.7634C34.0301 40.8864 33.8001 40.9652 33.5361 41L33.2855 41.1885ZM33.2528 43.9198H31.6691L32.065 43.2901H33.2528C33.4756 43.2901 33.6645 43.2473 33.8195 43.1618C33.9769 43.0762 34.0967 42.9559 34.1791 42.8008C34.2614 42.643 34.3026 42.4572 34.3026 42.2433C34.3026 42.0267 34.2675 41.8396 34.1972 41.6818C34.127 41.5241 34.0168 41.4024 33.8667 41.3168C33.7166 41.2313 33.5228 41.1885 33.2855 41.1885H32.2866L32.2939 40.5668H33.6596L33.8086 40.7914C34.0628 40.8155 34.2784 40.8957 34.4551 41.0321C34.6319 41.1658 34.7663 41.3369 34.8583 41.5455C34.9528 41.754 35 41.984 35 42.2353C35 42.5989 34.9274 42.9064 34.7821 43.1578C34.6392 43.4064 34.437 43.5963 34.1754 43.7273C33.9139 43.8556 33.6064 43.9198 33.2528 43.9198Z" fill="white"/>
<path d="M17.0454 12.24H32.9545V28.7535H38V7H17.0454V12.24Z" fill="white"/>
<path d="M32.9504 28.7535V34H12V12.2399H17.0518V28.7535H32.9504Z" fill="white"/>
</svg>
