<svg width="50" height="50" viewBox="0 0 50 50" fill="none" xmlns="http://www.w3.org/2000/svg">
<path d="M23.9072 8.33337C21.9308 8.62746 19.9334 8.82112 17.9814 9.23714C15.9283 9.67109 13.9658 10.4386 12.3833 11.9449C9.59466 14.588 9.24608 17.8839 10.2326 21.395C12.1427 28.2091 15.8377 34.0405 20.153 39.4309C22.5547 42.4291 25.5769 42.3251 28.3271 39.6389C28.6134 39.3601 28.8823 39.063 29.1324 38.7495C31.5724 35.6759 33.507 32.294 35.3719 28.8331C36.712 26.4824 37.7568 23.9662 38.4812 21.3448C39.8999 15.7464 37.5714 11.4212 32.2068 9.72489C29.5018 8.8785 26.7376 8.54497 23.9072 8.33337Z" fill="#FEFEFE"/>
<path d="M23.9072 8.33337C26.7376 8.54497 29.5017 8.8785 32.1927 9.72489C37.5712 11.4212 39.8997 15.7464 38.4671 21.3448C37.7427 23.9662 36.6979 26.4824 35.3578 28.8331C33.4929 32.2832 31.5478 35.6759 29.1183 38.7495C28.8682 39.063 28.5993 39.36 28.3131 39.6389C25.5628 42.3251 22.5406 42.4291 20.139 39.4309C15.8236 34.0513 12.1217 28.2055 10.2185 21.395C9.23549 17.8839 9.59452 14.5808 12.3692 11.9449C13.9517 10.4386 15.9142 9.67109 17.9673 9.23714C19.9333 8.82112 21.9308 8.62746 23.9072 8.33337Z" fill="#131522"/>
</svg>
