<svg width="50" height="50" viewBox="0 0 50 50" fill="none" xmlns="http://www.w3.org/2000/svg">
<path d="M25 45C36.0457 45 45 36.0457 45 25C45 13.9543 36.0457 5 25 5C13.9543 5 5 13.9543 5 25C5 36.0457 13.9543 45 25 45Z" fill="#EA372D"/>
<path d="M24.999 31.162C21.7251 31.2208 18.7985 28.5696 18.8228 24.9554C18.8471 21.4111 21.7362 18.7934 25.0547 18.838C28.439 18.8835 31.1863 21.6167 31.1772 24.9909C31.1671 28.4339 28.4258 31.1722 24.999 31.162ZM24.997 20.1484C22.3185 20.1484 20.1159 22.3256 20.1149 24.9747C20.1129 27.6451 22.3286 29.8638 24.9939 29.8618C27.6491 29.8597 29.8719 27.6562 29.877 25.0203C29.882 22.3367 27.6906 20.1484 24.997 20.1484Z" fill="white"/>
<path d="M32.277 35.0273C32.0937 34.9291 31.9357 34.8704 31.8081 34.7732C31.2309 34.3337 30.6699 33.8719 30.0846 33.4435C29.9661 33.3575 29.7433 33.3119 29.6127 33.3625C28.9635 33.6157 28.3347 33.9185 27.6876 34.1777C27.4466 34.2739 27.3473 34.4066 27.318 34.6638C27.236 35.3706 27.1154 36.0724 27.0223 36.7782C26.9686 37.1833 26.7357 37.3676 26.3478 37.3706C25.4678 37.3787 24.5868 37.3797 23.7068 37.3797C23.2997 37.3797 23.0496 37.1782 22.9858 36.7722C22.8785 36.0825 22.758 35.3949 22.6861 34.7013C22.6547 34.3985 22.5322 34.2841 22.2557 34.1909C21.6491 33.9863 21.0456 33.7605 20.4684 33.4841C20.1635 33.3372 19.9671 33.3757 19.722 33.5732C19.2116 33.9843 18.6851 34.3772 18.1544 34.7641C17.7281 35.0749 17.5124 35.0496 17.1357 34.6759C16.5322 34.0754 15.9266 33.4749 15.3281 32.8704C14.9494 32.4886 14.9311 32.2446 15.2532 31.8061C15.6248 31.2997 15.9954 30.7914 16.3904 30.3033C16.5787 30.0704 16.5676 29.8861 16.4451 29.6248C16.1423 28.9838 15.8942 28.3165 15.5924 27.6744C15.5246 27.5296 15.3423 27.3767 15.1884 27.3463C14.5595 27.2208 13.9225 27.1357 13.2876 27.0456C12.8522 26.9828 12.6253 26.7772 12.6172 26.3397C12.602 25.4456 12.601 24.5514 12.6172 23.6572C12.6253 23.2248 12.92 23.0182 13.3149 22.9524C13.9478 22.8471 14.5858 22.7722 15.2157 22.6496C15.3534 22.6223 15.5144 22.4704 15.5752 22.3347C15.8719 21.6754 16.1149 20.9919 16.4248 20.3387C16.5565 20.0603 16.5777 19.8729 16.3722 19.6278C15.9863 19.1681 15.6248 18.6881 15.2694 18.2051C14.921 17.7322 14.9392 17.5225 15.3443 17.1124C15.9134 16.5362 16.4866 15.963 17.0648 15.3959C17.5033 14.9666 17.7818 14.9504 18.277 15.3139C18.7266 15.6441 19.1782 15.9732 19.6167 16.3175C19.8385 16.4916 20.0218 16.5159 20.2942 16.3853C20.9595 16.0663 21.6562 15.8122 22.3266 15.5033C22.4714 15.4365 22.6294 15.2623 22.6608 15.1134C22.7924 14.4856 22.8886 13.8506 22.9787 13.2147C23.0365 12.8046 23.2825 12.6304 23.6623 12.6273C24.5565 12.6192 25.4506 12.6213 26.3448 12.6304C26.7154 12.6344 26.9463 12.8359 27.0081 13.2015C27.1205 13.8749 27.2035 14.5554 27.3403 15.2238C27.3737 15.3878 27.5357 15.5803 27.6896 15.6542C28.3165 15.9539 28.9777 16.1838 29.5954 16.5008C29.8972 16.6557 30.0896 16.6385 30.3357 16.4309C30.8157 16.0258 31.3099 15.638 31.8101 15.2582C32.282 14.8997 32.4714 14.922 32.8916 15.3423C33.4841 15.9347 34.0775 16.5261 34.6648 17.1235C35.0466 17.5114 35.0678 17.7544 34.7478 18.1878C34.3499 18.7276 33.9458 19.2623 33.5296 19.7868C33.3595 20.0015 33.3554 20.1808 33.4648 20.4329C33.7362 21.0577 33.9509 21.7058 34.2172 22.3327C34.2739 22.4673 34.443 22.6182 34.5818 22.6425C35.2684 22.7661 35.962 22.8451 36.6516 22.9484C37.1691 23.0263 37.3858 23.2744 37.3878 23.7878C37.3919 24.598 37.3939 25.4081 37.3878 26.2192C37.3828 26.7478 37.1651 26.9777 36.6476 27.0476C35.9286 27.1448 35.2086 27.238 34.4937 27.3605C34.3681 27.3818 34.2172 27.5205 34.1615 27.642C33.8709 28.2729 33.6218 28.9241 33.3251 29.5529C33.2197 29.7757 33.2218 29.9266 33.3727 30.117C33.8243 30.6861 34.2648 31.2633 34.7003 31.8446C34.9848 32.2243 34.9605 32.523 34.6365 32.8471C34.0228 33.4587 33.4111 34.0714 32.7884 34.6729C32.6446 34.8116 32.4582 34.9048 32.277 35.0284V35.0273ZM17.6825 33.4446C18.3762 32.9099 18.9706 32.4278 19.5954 31.9873C19.7595 31.8719 20.0825 31.7828 20.2213 31.8658C21.1752 32.44 22.1767 32.8765 23.2633 33.1235C23.5944 33.1985 23.7727 33.4395 23.8132 33.7838C23.8557 34.1443 23.9165 34.5028 23.9641 34.8623C24.1301 36.1342 24.1281 36.1251 25.4081 36.0957C25.7332 36.0886 25.8354 35.962 25.8689 35.6522C25.9397 35.001 26.0522 34.3539 26.1494 33.7058C26.201 33.3635 26.4025 33.2116 26.7367 33.0932C27.5995 32.7863 28.4532 32.4441 29.2825 32.0562C29.8375 31.797 30.0684 31.7635 30.5453 32.1342C31.1063 32.5696 31.6653 33.0081 32.2263 33.4466C32.6304 33.0648 33.0122 32.7053 33.4101 32.3296C32.9342 31.6663 32.5028 31.0324 32.0349 30.4268C31.7605 30.0714 31.8051 29.7777 31.9924 29.3929C32.3863 28.5818 32.7519 27.7504 33.0547 26.9018C33.2481 26.361 33.3777 26.1615 33.96 26.0805C34.4167 26.0177 34.8765 25.9803 35.3291 25.8982C36.2527 25.7311 36.0673 25.8932 36.0906 25.0587C36.0957 24.8775 36.0775 24.6942 36.0947 24.5139C36.122 24.2334 36.0066 24.1139 35.7281 24.0785C35.0506 23.9924 34.3752 23.8851 33.6997 23.7808C33.3787 23.7311 33.2106 23.5448 33.0972 23.2278C32.7752 22.3256 32.4329 21.4284 32.0481 20.5514C31.8213 20.0339 31.7939 19.8223 32.1443 19.3706C32.5038 18.9078 32.8744 18.4522 33.2167 17.9762C33.2825 17.8851 33.2967 17.6673 33.2339 17.5884C32.9504 17.2309 32.6304 16.9008 32.3175 16.5544C31.6451 17.0486 31.0608 17.4547 30.5048 17.8962C30.1565 18.1727 29.8577 18.1949 29.4871 17.9387C28.6648 17.3676 27.7585 16.9777 26.7711 16.7853C26.3975 16.7124 26.1858 16.4775 26.1342 16.1028C26.0906 15.7848 26.0572 15.4648 26.0218 15.1458C25.877 13.8486 25.878 13.8567 24.5615 13.9033C24.278 13.9134 24.1666 14.0177 24.1433 14.2932C24.0987 14.8076 24.0278 15.319 23.9691 15.8314C23.9073 16.363 23.6916 16.6152 23.1782 16.7134C22.1787 16.9058 21.2451 17.2724 20.4086 17.8466C20.0167 18.1149 19.7018 18.0886 19.3494 17.8111C18.8359 17.4061 18.3094 17.0172 17.6592 16.523C17.3838 16.8511 17.1316 17.1853 16.843 17.4851C16.6638 17.6714 16.6324 17.8081 16.8005 18.0177C17.1752 18.4866 17.5266 18.9747 17.8962 19.4466C18.1018 19.7089 18.1443 19.961 17.9448 20.2476C17.3058 21.1661 16.9099 22.1889 16.679 23.2785C16.6061 23.6218 16.3934 23.8122 16.0501 23.8567C15.5934 23.9154 15.1337 23.9519 14.68 24.0258C13.7453 24.1777 13.9327 24.0501 13.9124 24.8603C13.9073 25.0557 13.9205 25.2522 13.9104 25.4466C13.8982 25.6825 13.9762 25.798 14.2344 25.8223C14.7337 25.8699 15.2278 25.9843 15.7281 26.0167C16.4613 26.0653 16.6527 26.4562 16.8451 26.999C17.1468 27.8476 17.5094 28.677 17.9013 29.4881C18.1413 29.9853 18.1808 30.1797 17.8375 30.6304C17.4901 31.0861 17.1256 31.5286 16.7965 31.9954C16.7266 32.0947 16.7134 32.3266 16.7813 32.4157C17.0516 32.7681 17.3646 33.0881 17.6815 33.4425L17.6825 33.4446Z" fill="white"/>
</svg>
