<svg width="50" height="50" viewBox="0 0 50 50" fill="none" xmlns="http://www.w3.org/2000/svg">
<path d="M34.6905 42.9642H15.2976C10.7216 42.9642 7 39.2546 7 34.6646V15.3354C7 10.7454 10.7097 7.03577 15.2976 7.03577H34.7024C39.2784 7.03577 43 10.7454 43 15.3334V34.6766C42.9881 39.2526 39.2665 42.9622 34.6885 42.9622" fill="#00BCC5"/>
<path d="M23.7919 20.4359H25.6954V25.0974C25.6954 26.4763 25.3656 27.5632 24.7437 28.2944C24.1098 29.0395 23.2177 29.4051 22.0831 29.4051C21.0817 29.4051 20.3147 29.1369 19.8001 28.6123C19.2636 28.0758 18.9954 27.2334 18.9954 26.1346V16.909H12.6748V20.4478H14.6638V26.3174C14.6638 28.2209 15.2738 29.9416 16.3845 31.1497C17.519 32.3935 19.057 33.0294 20.8631 33.0294C22.2182 33.0294 23.3409 32.7611 24.2072 32.2246C24.8907 31.8094 25.4153 31.2351 25.769 30.5039V32.8585H30.1006V16.8971H23.78L23.7919 20.4359Z" fill="white"/>
<path d="M42.9881 27.893C42.9265 27.9666 42.8669 28.0401 42.8053 28.1255C42.1098 28.8945 41.1203 29.3098 39.9619 29.3098C38.8035 29.3098 37.8259 28.8945 37.1186 28.1255C36.3734 27.3208 36.0078 26.1485 36.0078 24.7337C36.0078 23.319 36.3993 22.1586 37.1543 21.342C37.8736 20.573 38.8393 20.1577 39.9738 20.1577C41.1084 20.1577 42.0721 20.573 42.7934 21.342C42.855 21.4155 42.9146 21.4771 42.9762 21.5625V16.8276C42.3542 16.6448 41.7184 16.5474 41.0726 16.5474C38.8035 16.5474 37.0947 17.3899 35.9224 19.0609H35.8866V16.9011H31.6524V38.8313H35.984V30.6549H36.0198C37.204 32.2664 38.9486 33.083 41.1581 33.083C41.7681 33.083 42.39 32.9976 42.9881 32.8029V27.893Z" fill="white"/>
</svg>
