<svg width="50" height="50" viewBox="0 0 50 50" fill="none" xmlns="http://www.w3.org/2000/svg">
<path d="M18.8926 35.8906H19.8301V40.7002C19.8301 42.1708 18.642 43.0977 17.252 43.0977C15.7961 43.0977 14.6836 42.1705 14.6836 40.7002V35.8906H15.6162V40.7002C15.6162 41.8175 16.2824 42.3311 17.252 42.3311C18.2454 42.3311 18.8926 41.8095 18.8926 40.7002V35.8906Z" fill="black"/>
<path d="M21.3096 35.8906H23.6631C25.271 35.8906 26.1533 36.6384 26.1533 38.0244C26.1533 39.2518 25.2393 39.7321 24.2441 40.1191H22.0322L22.0225 39.3525H23.6924C24.7121 39.3525 25.2158 38.7554 25.2158 38.0244C25.2158 37.2057 24.7513 36.6621 23.6631 36.6621H22.252V43H21.3096V35.8906ZM25.4648 43L23.7363 39.7773L24.7178 39.7725L26.4707 43H25.4648Z" fill="black"/>
<path d="M31.7832 42.2334V43H28.2285V42.2334H31.7832ZM28.4141 35.8906V43H27.4717V35.8906H28.4141Z" fill="black"/>
<path d="M35.8018 41.5986C35.8018 41.2059 35.6317 40.8908 34.5859 40.6855C33.4321 40.442 32.6816 40.0429 32.6816 39.1621C32.6816 38.1529 33.7395 37.6191 34.6396 37.6191C35.9053 37.6191 36.6514 38.3557 36.6514 39.2695H35.748C35.748 38.6859 35.1578 38.3613 34.6396 38.3613C33.9032 38.3613 33.5898 38.7405 33.5898 39.1377C33.5898 39.5193 33.8023 39.7287 34.8057 39.9531C36.1045 40.2461 36.7051 40.6807 36.7051 41.5303C36.7051 42.6214 35.606 43.0977 34.6641 43.0977C33.6491 43.0977 32.501 42.5039 32.501 41.3691H33.4092C33.4449 42.0477 34.0536 42.3555 34.6641 42.3555C35.4147 42.3555 35.8018 42.0356 35.8018 41.5986Z" fill="black"/>
<path d="M15.1976 6.88889C15.1976 5.2934 16.4515 4 17.9982 4H27.2205C27.5919 4 27.948 4.15218 28.2106 4.42307L34.392 10.7992C34.6546 11.07 34.8021 11.4374 34.8021 11.8205V27.1111C34.8021 28.7066 33.5482 30 32.0015 30H17.9982C16.4515 30 15.1976 28.7066 15.1976 27.1111V6.88889Z" fill="white"/>
<path fill-rule="evenodd" clip-rule="evenodd" d="M27.2205 4C27.5919 4 27.948 4.15218 28.2106 4.42307L34.392 10.7992C34.6546 11.07 34.8021 11.4374 34.8021 11.8205V27.1111C34.8021 28.7066 33.5482 30 32.0015 30H17.9982C16.4515 30 15.1976 28.7066 15.1976 27.1111V6.88889C15.1976 5.2934 16.4515 4 17.9982 4H27.2205ZM27.1003 9.05556C27.1003 10.651 28.3542 11.9444 29.901 11.9444H34.1019V27.1111C34.1019 28.3077 33.1615 29.2778 32.0015 29.2778H17.9982C16.8382 29.2778 15.8977 28.3077 15.8977 27.1111V6.88889C15.8977 5.69227 16.8382 4.72222 17.9982 4.72222H27.1003V9.05556ZM27.8005 9.05556C27.8005 10.2522 28.7409 11.2222 29.901 11.2222H33.8119L27.8005 5.02141V9.05556Z" fill="#AEB7CC"/>
<path d="M35.5157 25.9073C36.3323 25.9064 36.9991 25.2132 37 24.4027V16.8193C36.9991 16.0088 36.3323 15.3156 35.5157 15.3147H14.4843C13.6677 15.3156 13.0009 16.0088 13 16.8193V24.4027C13.0009 25.2132 13.6677 25.9064 14.4843 25.9073H35.5157ZM29.2437 17.6128L30.7226 21.9971L32.1536 17.6128H33.4046L31.312 23.5373H30.0524L27.9637 17.6128H29.2437ZM24.8581 20.9422C23.9563 20.7157 22.9784 20.2154 22.9886 19.1643C22.9884 18.0188 24.1222 17.4852 25.1215 17.5111C26.2236 17.5111 27.3645 18.0516 27.3616 19.3052L26.1818 19.3576C26.1292 18.7968 25.6564 18.4607 25.1096 18.5011C24.7452 18.48 24.1062 18.6117 24.117 19.083C24.1183 19.6555 24.9693 19.7412 25.3766 19.8386C26.4359 20.058 27.5593 20.5569 27.5287 21.8217C27.4979 23.0977 26.3216 23.6751 25.1891 23.6408C23.9359 23.6408 22.8614 22.9436 22.7775 21.6082L23.9256 21.4953C24.0008 22.1566 24.5199 22.6677 25.2011 22.6308C25.7069 22.6681 26.34 22.3859 26.3492 21.8145C26.3657 21.1364 25.3256 21.06 24.8581 20.9422ZM19.6672 17.5116C20.765 17.4645 21.7523 18.1753 22.0072 19.245L20.8392 19.5271C20.7301 18.9457 20.2019 18.5101 19.6075 18.5331C18.4918 18.4969 18.1485 19.6224 18.1485 20.5375C18.1485 21.4514 18.441 22.6483 19.5834 22.6144C20.2905 22.6285 20.7703 22.0084 20.8788 21.3579L22.0228 21.7255C21.7687 22.8735 20.7811 23.6848 19.5952 23.6362C17.9004 23.6894 16.9327 22.1699 16.9327 20.6259C16.9329 19.0232 17.8894 17.4395 19.6672 17.5116Z" fill="#A36BAE"/>
</svg>
