<svg width="50" height="50" viewBox="0 0 50 50" fill="none" xmlns="http://www.w3.org/2000/svg">
<path d="M37.1334 17.8C36.9111 17.8889 36.6889 17.9333 36.4667 17.9778C37.7111 20.0222 38.4222 22.4222 38.4222 24.9556C38.4222 32.3778 32.4222 38.4222 24.9556 38.4222C17.5334 38.4222 11.4889 32.4222 11.4889 24.9556C11.4889 22.2889 12.2889 19.8 13.6222 17.7111C13.4 17.6667 13.1778 17.5778 13 17.4889C11.6667 19.6667 10.9111 22.2444 10.9111 25C10.9111 32.7778 17.2222 39.1333 25.0445 39.1333C32.8222 39.1333 39.1778 32.8222 39.1778 25C39.1334 22.3778 38.3778 19.9333 37.1334 17.8Z" fill="#C11330"/>
<path d="M17.1778 14.0667C19.4 12.5111 22.0667 11.5778 25 11.5778C28.2445 11.5778 31.2222 12.7333 33.5778 14.6445C33.8445 14.5556 34.1111 14.5111 34.3778 14.4222C31.8889 12.2 28.6 10.8667 25.0445 10.8667C21.8445 10.8667 18.8667 11.9333 16.5111 13.7556C16.6445 13.8 16.7333 13.8444 16.8667 13.8889C16.9111 13.9333 17.0445 14.0222 17.1778 14.0667Z" fill="#C11330"/>
<path d="M25 5C13.9333 5 5 13.9333 5 25C5 36.0667 13.9333 45 25 45C36.0667 45 45 36.0667 45 25C45 13.9333 36.0667 5 25 5ZM25 43.7556C14.6444 43.7556 6.24444 35.3556 6.24444 25C6.24444 14.6444 14.6444 6.24444 25 6.24444C35.3556 6.24444 43.7556 14.6444 43.7556 25C43.7556 35.3556 35.3556 43.7556 25 43.7556Z" fill="#BDBFC1"/>
<path d="M20.1556 21C19.8889 20.8667 19.6222 20.6889 19.3556 20.4222C17.807 19.0367 19.1004 17.986 18.8667 16.4667C18.8222 16.1111 18.6 15.8444 18.3333 15.6222C17.7556 15.0889 17.0889 14.7333 16.0667 14.3778C15.4444 14.1556 13.6222 13.6222 12.8222 12.8667C12.6444 13.4 13.0444 14.1111 13.4889 14.2C13.0889 14.2444 12.7333 14.4667 12.5556 14.6889C12.8667 15.0444 13.4889 15.4 13.9778 15.4444C13.7556 15.6222 13.4444 15.9333 13.3556 16.1111C13.8 16.3333 14.4667 16.5556 15.0444 16.5111C14.8222 16.6889 14.6444 16.9111 14.5111 17.1333C14.8667 17.3111 15.5778 17.5333 16.2444 17.5778C15.9778 17.7111 15.6222 18.1111 15.4444 18.3778C15.8 18.5556 16.6444 18.6444 17.1333 18.6889C16.7778 18.8667 16.3778 19.2667 16.2 19.6222C16.5556 19.8 17.2667 19.9778 17.8444 19.9778C17.5778 20.2444 17.4 20.5556 17.2667 20.8667C17.7111 20.9556 18.1556 20.9556 18.6444 20.8667C18.3333 21.2667 18.2 21.8 18.1556 22.1556C18.6 22.1556 19.1333 22.0667 19.5333 21.8C19.4444 22.1111 19.4444 22.5556 19.6222 22.8667C19.8 22.8222 19.9778 22.7778 20.2 22.6444C20.2 22.1111 20.2 21.4889 20.1556 21Z" fill="#005285"/>
<path d="M37.4 13.8889C36.6 14.6 35.3111 14.8222 33.9778 15.2667C32.9556 15.5778 32.3333 15.8 31.4444 16.5111C31.1778 16.7333 30.9556 17 30.9556 17.5333C31.0264 18.454 31.3903 19.7208 30.6444 20.4667C30.3778 20.7333 30.0667 21 29.7556 21.1778C29.7556 21.6667 29.7111 22.1556 29.6667 22.7333C29.8889 22.8667 30.1556 22.9556 30.2889 23C30.4222 22.6889 30.4667 22.2444 30.3778 21.9333C30.7778 22.1556 31.3556 22.2889 31.7556 22.2889C31.7111 21.8889 31.5778 21.4 31.2667 21C31.8 21.0889 32.2444 21.0889 32.6444 21C32.5556 20.6889 32.3333 20.3778 32.0667 20.1111C32.6444 20.1111 33.3111 19.9333 33.7111 19.7556C33.4889 19.4 33.1333 19.0444 32.7778 18.8222C33.2667 18.7778 34.1111 18.6889 34.5111 18.5111C34.3333 18.2444 33.9333 17.8444 33.7111 17.7111C34.3778 17.6667 35.0889 17.4 35.4444 17.2667C35.3111 17.0444 35.1333 16.8222 34.9111 16.6444C35.5333 16.6 36.1556 16.4667 36.6 16.2444C36.5111 16.0667 36.2 15.7111 35.9778 15.5778C37.4 15.0444 37.4 14.3778 37.4 13.8889Z" fill="#005285"/>
<path d="M31.7556 15.3111C29.8444 13.9778 27.5333 13.2222 25 13.2222C22.7333 13.2222 20.6 13.8889 18.7778 15C19.627 15.6176 19.766 16.5633 19.4889 17.5333C19.0253 18.9242 19.7531 20.3477 21.2667 20.6C21.9333 20.4667 22.6889 20.3778 23.4444 20.3333C23.5333 20.0222 23.8444 19.7556 24.1111 19.5333C24.6354 19.1256 24.366 18.5307 23.8889 18.2444C23.7111 18.1556 23 18.0667 23.0444 18.5111C22.9111 18.3333 22.8222 18.1556 22.9111 17.8444C23 17.4444 23.6222 17.3556 23.8 17.3556C23.6667 17.2667 23.7556 17.0889 24.0222 17C24.3778 16.9111 24.6889 16.9111 25 16.9111C25.6222 16.9111 25.7111 17.0889 26.0667 17.3556C26.4667 17.7111 26.9556 17.8 27.1778 17.6222C27.0444 17.9333 26.5556 18.1111 26.2889 18.0667C26.4222 18.5111 26.4667 18.9111 26.5556 19.4C26.6 19.6222 26.6444 19.9778 26.6889 20.2889C27.5333 20.3778 28.3778 20.4667 29.1333 20.6C30.1944 20.2968 30.5998 19.265 30.4667 18.2444C30.2349 16.854 30.302 15.9341 31.7556 15.3111Z" fill="#005285"/>
<path d="M23.8889 17.4C24.0222 17.4889 24.0667 17.4889 24.1111 17.4889C24.1374 17.5152 24.2 17.5406 24.2 17.5778C24.3763 17.5778 24.6396 17.4012 24.8222 17.3556C24.2889 17.2667 24.2 17.4444 23.8889 17.4Z" fill="#005285"/>
<path d="M24.6889 26.7333L24.4667 26.6L24.3334 26.2L23.9778 26.0667L23.5778 25.7111L23.3556 25.9778L23 26.0667L22.7778 26.3778L22.5111 26.6889L22.1556 26.8667L21.8889 27.3111L21.4889 27.6667L21.3556 27.5333L21.1778 27.6667L21 28.0222C20.9111 27.7556 20.8223 27.5778 20.8223 27.1333C20.7778 26.3778 20.6889 25.4 20.6445 24.3778C21.9334 24.1111 23.5334 23.9333 24.8667 23.8889V26.9111C24.7778 26.9111 24.7334 26.9111 24.6889 26.7333Z" fill="#0078AB"/>
<path d="M24.8667 28.2H21.0889C21.1334 28.3333 21.2223 28.4222 21.2667 28.5111C21.5334 28.9111 21.9334 29.1778 22.4223 29.3111C23.1146 29.5419 24.3937 29.6582 24.8667 30.2889V28.2Z" fill="#5E9432"/>
<path d="M28.8667 26.7333C28.9556 26.6444 29.0889 26.5556 29.2667 26.5111C29.2667 26.1556 29.3111 25.8 29.3556 25.4C28.9051 25.8504 28.128 25.9126 27.6222 25.5333C27.2308 25.3376 26.9313 25.296 26.5556 25.5778C26.0882 25.8582 25.6762 25.9159 25.1778 25.6667V26.7333C25.6007 26.7333 25.7737 27.0798 26.2889 26.8222C26.7912 26.5208 27.3136 26.4574 27.8 26.8222C28.2239 27.0341 28.4834 27.0208 28.8667 26.7333Z" fill="#005285"/>
<path d="M28.8667 25.0889C29 25 29.1333 24.8667 29.3556 24.8222C29.3556 24.6889 29.3556 24.5555 29.4 24.4222C28.1111 24.1555 26.5111 23.9778 25.1778 23.9333V25.0889C25.6007 25.0889 25.7737 25.4354 26.2889 25.1778C26.7913 24.8764 27.3136 24.8129 27.8 25.1778C28.2239 25.3897 28.4834 25.3764 28.8667 25.0889Z" fill="#005285"/>
<path d="M25.1334 29V30.2889C25.2667 30.1555 25.4889 30.0222 25.8 29.8889C26.3836 29.67 26.9864 29.5082 27.5778 29.3111C27.7556 29.2667 27.9334 29.1778 28.1111 29.0889C27.8889 29.0444 27.7111 28.9555 27.5334 28.8222C27.142 28.6265 26.8424 28.5849 26.4667 28.8667C26.0846 29.2487 25.5891 29.2279 25.1334 29Z" fill="#005285"/>
<path d="M25.1334 27.3111V28.4222C25.5562 28.4222 25.7293 28.7687 26.2445 28.5111C26.7468 28.2097 27.2691 28.1463 27.7556 28.5111C28.0289 28.6478 28.4267 28.8178 28.6889 28.5555C28.9502 28.1376 29.0889 27.671 29.0889 27.1778C29.0889 27.1778 27.7216 27.4745 27.4445 27.2667C27.0531 27.071 26.7535 27.0293 26.3778 27.3111C25.8672 27.6174 25.6384 27.5636 25.1334 27.3111Z" fill="#0078AB"/>
<path d="M25 20.5111C23.6222 20.5111 21.8 20.7333 20.4667 21C20.5111 21.8889 20.5556 23 20.6 24.1111C21.8889 23.8444 23.5778 23.6667 25 23.6667C26.4222 23.6667 28.1111 23.8444 29.4 24.1556C29.4445 23.0444 29.5334 21.9333 29.5334 21.0444C28.2 20.7333 26.3778 20.5111 25 20.5111ZM28.2889 21.3556L28.3778 21.1333L28.4222 21.3556L28.6445 21.4L28.4222 21.4889L28.4667 21.7111L28.2889 21.5333L28.0667 21.6667L28.2 21.4444L28.0222 21.2667L28.2889 21.3556ZM27.1778 21.2222L27.2667 21L27.3111 21.2222H27.5334L27.3111 21.3111L27.3556 21.5333L27.2222 21.4444L27 21.5778L27.1334 21.3556L26.9556 21.2222H27.1778ZM26.0667 21.1333L26.1556 20.9111L26.2 21.1333H26.4222L26.2 21.2667L26.2889 21.4889L26.1111 21.3111L25.9334 21.4444L26.0222 21.2222L25.8445 21.0889L26.0667 21.1333ZM24.9556 21.0889L25 20.8667L25.0445 21.0889H25.2667L25.0445 21.2222L25.1334 21.4444L25 21.3111L24.8222 21.4444L24.9111 21.2222L24.6889 21.0889H24.9556ZM23.8 21.1333L23.8445 20.9111L23.9334 21.1333L24.1556 21.0889L23.9778 21.2222L24.0667 21.4444L23.8889 21.3111L23.7111 21.4889L23.8 21.2667L23.5778 21.1333H23.8ZM22.6889 21.2222L22.7334 21L22.8222 21.2222L23.0445 21.1778L22.8667 21.3111L23 21.5333L22.7778 21.4444L22.6 21.6222L22.6445 21.4L22.4222 21.3111L22.6889 21.2222ZM21.5778 21.4L21.6222 21.1778L21.7111 21.4L21.9334 21.3556L21.7556 21.5333L21.8889 21.7556L21.6667 21.6222L21.4889 21.8L21.5334 21.5778L21.3111 21.4889L21.5778 21.4ZM21.1334 22.6444L21.1778 22.4222L20.9556 22.3333L21.1778 22.2889L21.2222 22.0667L21.3111 22.2889L21.5334 22.2444L21.3556 22.4222L21.4889 22.6444L21.2667 22.5111L21.1334 22.6444ZM22.0222 23.4889L21.8 23.3556L21.6222 23.5333L21.6667 23.3111L21.4889 23.2222L21.7111 23.1778L21.7556 22.9556L21.8445 23.1778L22.0667 23.1333L21.8889 23.3111L22.0222 23.4889ZM22.3778 22.3333L22.2 22.5111L22.2445 22.2889L22.0222 22.2H22.2445L22.2889 21.9778L22.3778 22.2L22.6 22.1556L22.4222 22.3333L22.5556 22.5556L22.3778 22.3333ZM23.0889 23.3556L22.9111 23.2222L22.7334 23.4L22.7778 23.1778L22.5556 23.0444H22.7778L22.8222 22.8222L22.9111 23.0444L23.1334 23L22.9556 23.1333L23.0889 23.3556ZM23.4445 22.2L23.2667 22.3778L23.3556 22.1556L23.1334 22.0222H23.3556L23.4 21.8L23.4889 22.0222L23.7111 21.9778L23.5334 22.1111L23.6222 22.3333L23.4445 22.2ZM24.1556 23.3111L23.9778 23.1778L23.8 23.3556L23.8889 23.1333L23.6667 22.9556H23.8889L23.9334 22.7333L24.0222 22.9556L24.2445 22.9111L24.0667 23.0444L24.1556 23.3111ZM24.5111 22.1556L24.3334 22.3333L24.4222 22.1111L24.2 21.9778H24.4222L24.4667 21.7556L24.5556 21.9778H24.7778L24.6 22.1111L24.6889 22.3333L24.5111 22.1556ZM25.2222 23.2667L25.0445 23.1333L24.8667 23.2667L24.9556 23.0444L24.7334 22.9111H24.9556L25 22.6889L25.0445 22.9111H25.2667L25.0445 23.0444L25.2222 23.2667ZM25.5778 22.1556L25.4 22.2889L25.4889 22.0667L25.3111 21.9333H25.5334L25.6222 21.7111L25.6667 21.9333H25.8889L25.6667 22.0667L25.7556 22.2889L25.5778 22.1556ZM26.2889 23.3111L26.1111 23.1333L25.9334 23.2667L26.0222 23.0444L25.8445 22.9111L26.0667 22.9556L26.1556 22.7333L26.2 22.9556H26.4222L26.2 23.0889L26.2889 23.3111ZM26.6445 22.2L26.4222 22.3333L26.5111 22.1111L26.3334 21.9778L26.5556 22.0222L26.6445 21.8L26.6889 22.0222H26.9111L26.6889 22.1556L26.7778 22.3778L26.6445 22.2ZM27.3556 23.4L27.1778 23.2222L26.9556 23.3556L27.0889 23.1333L26.9111 23L27.1334 23.0444L27.2222 22.8222L27.2667 23.0444H27.4889L27.2667 23.1333L27.3556 23.4ZM27.7111 22.3333L27.4889 22.4667L27.6222 22.2444L27.4445 22.0667L27.6667 22.1111L27.7556 21.8889L27.8 22.1111H28.0222L27.8 22.2L27.8445 22.4222L27.7111 22.3333ZM28.4222 23.5778L28.2445 23.4L28.0222 23.5333L28.1556 23.3111L27.9778 23.1333L28.2 23.1778L28.2889 22.9556L28.3334 23.1778L28.5556 23.2222L28.3334 23.3111L28.4222 23.5778ZM28.9111 22.6889L28.7334 22.5111L28.5556 22.6L28.6889 22.3778L28.5111 22.2L28.7334 22.2444L28.8222 22.0222V22.2444L29.0445 22.2889L28.8222 22.3778L28.9111 22.6889Z" fill="#005285"/>
<path d="M39.8444 17.8C40.3778 17.5778 41.0444 17.6667 41.1778 18.0222C41.3555 18.3778 41 18.9111 40.4222 19.1778C39.8889 19.4 39.2222 19.3111 39.0889 18.9556C38.9111 18.6 39.2667 18.0667 39.8444 17.8ZM40.6444 19.7111C41.3555 19.4 41.6667 18.6444 41.3555 17.9778C41.0444 17.3111 40.2889 17 39.5778 17.3111C38.8667 17.6222 38.5555 18.3778 38.8667 19.0444C39.1778 19.7111 39.9778 20.0222 40.6444 19.7111Z" fill="#005285"/>
<path d="M39.6667 21.5333L39.4 20.4667L39.5778 20.4222L39.6667 20.7333L41.8889 20.1556L41.8 19.8445L41.9778 19.8L42.3778 21.4L42.4667 21.3556L42.5111 21.5778L41.8889 21.7556L41.8445 21.5333L42.1111 21.4445L41.8889 20.6445L40.9556 20.8667L41.1333 21.4889L41.4445 21.4445L41.4889 21.6667L40.7333 21.8445L40.6889 21.6222L40.9556 21.5333L40.7778 20.9111L39.7556 21.1778L39.8 21.4445L39.6667 21.5333Z" fill="#005285"/>
<path d="M8.55558 18.6889L8.46669 19L9.88891 19.4444C10.5232 19.6347 10.7053 20.1344 10.5556 20.7333C10.3778 21.3556 9.93335 21.6667 9.40002 21.4889L7.84447 21.0444L7.75558 21.3556L7.5778 21.3111L7.88891 20.2444L8.11113 20.2889L8.02224 20.5556L9.44447 21C9.85974 21.1384 10.2316 21.0829 10.3778 20.6445C10.5111 20.2 10.3334 19.8444 9.84447 19.7111L8.42224 19.2667L8.33335 19.5778L8.15558 19.5333L8.42224 18.6445L8.55558 18.6889Z" fill="#005285"/>
<path d="M11.0889 19.3111C11.0444 19.4444 10.8667 19.4889 10.7333 19.4444C10.6 19.4 10.5556 19.2222 10.6 19.0889C10.6444 18.9556 10.8222 18.8667 10.9556 18.9556C11.0889 19.0444 11.1333 19.1778 11.0889 19.3111Z" fill="#005285"/>
<path d="M11.5778 18.2L11.4889 18.3778L10.8667 18.0222L10.9556 17.8444L11.2222 17.9778C11.4445 17.8889 11.5333 17.8 11.6222 17.6222C11.7556 17.4 11.7111 17.1778 11.5333 17.0889C11.3556 17 11.2222 17.0444 10.8222 17.2667C10.5026 17.4443 10.107 17.6787 9.75557 17.4444C9.35557 17.2222 9.26668 16.8222 9.53334 16.3778C9.62223 16.2444 9.71112 16.1556 9.80001 16.0667L9.71112 16.0222L9.80001 15.8444L10.3778 16.2L10.2889 16.3778L10.0667 16.2444C9.8889 16.3333 9.80001 16.4222 9.71112 16.5556C9.62223 16.7333 9.66668 16.9556 9.84445 17.0444C9.97779 17.1333 10.1111 17.0889 10.5111 16.8667C10.896 16.6742 11.1793 16.5413 11.6222 16.6889C12.0222 16.9111 12.1556 17.3556 11.8889 17.7556C11.7556 17.9778 11.6667 18.0667 11.4889 18.2H11.5778Z" fill="#005285"/>
<path d="M12.6444 16.3778C12.6444 16.5111 12.5111 16.6444 12.3778 16.6444C12.2444 16.6444 12.1111 16.5111 12.1111 16.3778C12.1111 16.2444 12.2444 16.1111 12.3778 16.1111C12.5111 16.1111 12.6444 16.2444 12.6444 16.3778Z" fill="#005285"/>
<path d="M18.7778 11.2667L17.0889 12.1556L17 12.0222L17.2667 11.8889L16.2 9.84445L15.9333 9.97779L15.8445 9.84445L17.3111 9.0889L17.2667 9.00001L17.4445 8.91112L17.7556 9.4889L17.5778 9.57779L17.4445 9.31112L16.6889 9.71112L17.1333 10.5556L17.7111 10.2445L17.5778 10.0222L17.7556 9.93334L18.1111 10.6445L17.9333 10.7333L17.8 10.4667L17.2222 10.7778L17.6667 11.6667L18.4222 11.2667L18.2889 11L18.4667 10.9111L18.7778 11.2667Z" fill="#005285"/>
<path d="M20.4222 10.6889L19.3111 11.0445L19.2667 10.8667L19.5333 10.7778L18.8222 8.60001L18.5556 8.6889L18.5111 8.55556L19.6667 8.15556C20.1556 8.02223 20.5556 8.20001 20.6889 8.60001C20.8541 9.09562 20.4007 9.66668 19.8889 9.66668L19.8445 9.4889C20.1918 9.4889 20.2537 9.03941 20.1556 8.77779C20.0222 8.42223 19.8445 8.2889 19.5778 8.37779L19.3556 8.46668L20.0667 10.6L20.3778 10.5111L20.4222 10.6889Z" fill="#005285"/>
<path d="M21.7111 9.22222L21.9333 8.15556L22.4667 9.08889L21.7111 9.22222ZM23.6667 9.8L23.4889 9.84445L22.0667 7.48889L21.8444 7.53334L21.2667 10.2L21.0444 10.2444L21.0889 10.4222L21.8889 10.2889L21.8444 10.1111L21.5333 10.1556L21.6667 9.48889L22.6 9.31111L22.9555 9.88889L22.6889 9.93334L22.7333 10.1111L23.7111 9.93334L23.6667 9.8Z" fill="#005285"/>
<path d="M24.7778 7.53334H25.0445C25.3111 7.53334 25.4889 7.71112 25.4889 8.02223C25.4889 8.33334 25.3111 8.55556 25.0445 8.55556H24.8222L24.7778 7.53334ZM26.4222 9.80001H26.2445C26.1556 9.80001 26.1111 9.75556 26.0222 9.62223L25.4445 8.73334C25.8 8.60001 26.0222 8.37778 26.0222 8.02223C26.0222 7.80001 25.9778 7.62223 25.8445 7.48889C25.7111 7.35556 25.4889 7.31112 25.1778 7.31112H24.0222V7.48889H24.3334V9.80001H24.0222V9.97778H25.1334V9.80001H24.8222V8.77778H24.9111L25.4889 9.71112C25.6222 9.93334 25.6667 9.93334 25.8889 9.93334H26.3778L26.4222 9.80001Z" fill="#005285"/>
<path d="M28.2 10.2889L26.9556 10.0667L27 9.88889L27.4 9.93334L27.7556 7.75556L27.0444 7.66667L27 7.97778L26.7778 7.93334L26.9111 7.26667L27.1333 7.31111V7.4L29 7.71111V7.62223L29.1778 7.66667L29.0444 8.33334L28.8222 8.28889L28.8667 7.97778L28.2 7.84445L27.8444 10.0222L28.2 10.0667V10.2889Z" fill="#005285"/>
<path d="M31.9334 11.5333L30.8222 11.0889L30.8667 10.9111L31.1778 11.0444L31.8 9.44444L30.3334 10.9556L30.1111 8.82222L29.4889 10.3778L29.8 10.5111L29.7556 10.6889L28.9111 10.3333L28.9556 10.1556L29.2667 10.2889L30.1111 8.15555L29.8 8.02222L29.8445 7.84444L30.5111 8.11111L30.7334 10.2L32.2 8.77778L32.9556 9.04444L32.9111 9.22222L32.6 9.08889L31.7556 11.2222L32.0667 11.3556L31.9334 11.5333Z" fill="#005285"/>
<path d="M33.8889 12.8222L32.2889 11.8L32.3778 11.6667L32.6445 11.8445L33.8889 9.8889L33.6222 9.71112L33.7111 9.57779L35.0889 10.4667L35.1333 10.3778L35.3111 10.5111L34.9556 11.0445L34.7778 10.9111L34.9111 10.6889L34.2 10.2445L33.7111 11.0445L34.2445 11.4L34.3778 11.1778L34.5556 11.3111L34.1111 11.9778L33.9333 11.8445L34.0667 11.6222L33.5333 11.2667L33 12.1111L33.7111 12.5556L33.8889 12.2889L34.0667 12.4222L33.8889 12.8222Z" fill="#005285"/>
<path d="M16.2 11.1778C15.7555 10.6 14.9555 10.4667 14.3333 10.9111L13.3111 11.6667L13.4 11.8L13.6222 11.6222C14.1165 12.292 14.6091 13.0091 15.1778 13.5778L15.8444 13.0889C16.4058 12.6879 16.6741 11.7467 16.2 11.1778ZM15.7111 12.9111L15.4444 13.0889L14.1555 11.3111L14.4222 11.0889C14.7778 10.8222 15.4 11 15.7555 11.4445C16.1111 12.0222 16.1111 12.6 15.7111 12.9111Z" fill="#005285"/>
<path d="M37.2666 12.2444L37.1333 12.3778L37.3555 12.6L36.2444 13.8444L36.5111 11.6222L35.9333 11.0889L35.8 11.2222L36.0222 11.4L35.9778 11.6222L34.5555 13.1778L34.3333 12.9556L34.2 13.0889L34.8666 13.7111L35 13.5778L34.7778 13.3556L35.9333 12.0667L35.6666 14.1111C35.8889 14.0667 36.1555 13.9778 36.4666 13.8889C36.5111 13.8889 36.5111 13.8889 36.5555 13.8889L37.5778 12.7778L37.8444 13L37.9778 12.8667L37.2666 12.2444Z" fill="#005285"/>
<path d="M39.9778 15.1333L39.8889 15.2222L38.7333 13.7111L38.8222 13.6222L38.6889 13.4444L38.1556 13.8889L38.2889 14.0667L38.5556 13.8444L38.9556 14.3778L37.1778 15.7111L37.0889 15.5778C37.0445 15.6222 37 15.6222 36.9556 15.6667L37.6222 16.5111L37.7556 16.4222L37.5333 16.1111L39.3111 14.7778L39.7111 15.3111L39.4445 15.5333L39.5778 15.7111L40.1111 15.3111L39.9778 15.1333Z" fill="#005285"/>
<path d="M28.2889 42.5111L28.1111 42.5556L27.9778 41.8445L28.2 41.8L28.2444 42.0667C28.4667 42.1556 28.6 42.2 28.7778 42.1556C29 42.1111 29.1778 41.9333 29.1333 41.7111C29.0889 41.5333 28.9555 41.4445 28.5555 41.2667C28.24 41.1405 27.7111 41.0351 27.7111 40.6C27.6222 40.1556 27.8889 39.8 28.3333 39.7111C28.4667 39.6667 28.6 39.6667 28.7778 39.7111L28.7333 39.5778L28.9555 39.5333L29.0889 40.2L28.8667 40.2445L28.8222 39.9778C28.6444 39.8889 28.5111 39.8889 28.3778 39.9333C28.1555 39.9778 28.0667 40.1556 28.1111 40.3333C28.1555 40.4667 28.2444 40.5556 28.6889 40.7333C29.0493 40.8775 29.5778 40.9972 29.5778 41.4889C29.6667 41.9333 29.4 42.3333 28.9555 42.4222C28.7333 42.4667 28.5555 42.4667 28.3333 42.3778L28.2889 42.5111Z" fill="#005285"/>
<path d="M32.3778 41.2222L30.6 41.9333L30.5556 41.7555L30.8222 41.6667L29.9778 39.5333L29.7111 39.6667L29.6667 39.4889L31.1778 38.8667L31.1333 38.7778L31.3556 38.6889L31.5778 39.2667L31.4 39.3555L31.3111 39.0889L30.5556 39.4L30.9111 40.2889L31.4889 40.0667L31.4 39.8L31.5778 39.7111L31.8444 40.4222L31.6667 40.5111L31.5778 40.2444L31 40.4667L31.3556 41.4L32.1556 41.0889L32.0667 40.8222L32.2889 40.7333L32.3778 41.2222Z" fill="#005285"/>
<path d="M35 39.6222C34.7778 39.8889 34.6 40.0667 34.3778 40.2C33.6667 40.6445 32.8667 40.4667 32.4222 39.8C32.0222 39.1333 32.2445 38.3333 32.9111 37.8889C33.1334 37.7556 33.3111 37.7111 33.5334 37.6667L33.4445 37.5333L33.6222 37.4L33.9778 38.0222L33.8 38.1556L33.6667 37.9333C33.4 37.9333 33.2667 37.9333 33.0889 38.0667C32.6 38.3333 32.5111 38.9556 32.8667 39.5333C33.2222 40.0667 33.8445 40.2889 34.2889 40.0222C34.4667 39.9333 34.5556 39.8 34.6445 39.6222L34.4667 39.3556L34.6445 39.2222L35 39.6222Z" fill="#005285"/>
<path d="M36.2 35.5333L35.9334 35.7555L36.9556 36.8667C37.392 37.3031 37.3106 37.967 36.8222 38.3333C36.3334 38.7778 35.8 38.7778 35.4445 38.3778L34.3778 37.1778L34.1556 37.4L34.0222 37.2667L34.8667 36.5111L35 36.6444L34.7778 36.8222L35.8 37.9333C36.0747 38.2538 36.4462 38.3983 36.7778 38.0667C37.1334 37.7556 37.1334 37.3555 36.8222 37L35.8445 35.8889L35.5778 36.1111L35.4445 35.9778L36.1111 35.3556L36.2 35.5333Z" fill="#005285"/>
<path d="M40.6889 33.1778L40.1556 34.1555L40.0222 34.0667L40.1556 33.8L38.1556 32.6889L37.9778 33L37.8445 32.9111L38.3778 31.9333L38.5111 32.0222L38.3778 32.2889L40.3778 33.4L40.5111 33.1333L40.6889 33.1778Z" fill="#005285"/>
<path d="M41.7111 30.8222L41.2667 32.0222L41.0889 31.9778L41.2222 31.6222L39.1333 30.7778L38.9111 31.4445L39.2222 31.5778L39.1333 31.8L38.5111 31.5778L38.6 31.3556L38.6889 31.4L39.3556 29.6222L39.2667 29.5778L39.3556 29.3556L39.9778 29.5778L39.8889 29.8L39.5778 29.6667L39.3111 30.3333L41.4 31.1333L41.5333 30.7778L41.7111 30.8222Z" fill="#005285"/>
<path d="M42.4222 27.8889L42.2 29L42.0222 28.9556L42.0667 28.6445L41 28.4222L39.6667 28.9556L39.6222 29.2222L39.4444 29.1778L39.6667 28.1111L39.8444 28.1556L39.8 28.4667L40.7778 28.0667L40.0222 27.4L39.9333 27.6667L39.7556 27.6222L39.9333 26.7333L40.1111 26.7778L40.0667 27.0445L41 27.8889L42.2 28.1111L42.2444 27.8L42.4222 27.8889Z" fill="#005285"/>
<path d="M39.7111 34.6444L39.6222 34.7778C39.5778 34.8222 39.5333 34.8667 39.3556 34.8667L38.3333 34.7778C38.4667 34.4222 38.3778 34.1111 38.1111 33.8889C37.69 33.573 37.2682 33.8246 37 34.2L36.2889 35.1333L36.4222 35.2222L36.6 35L38.4222 36.3778L38.2445 36.6L38.3778 36.6889L39.0445 35.8L38.9111 35.7111L38.7778 35.9333L37.9778 35.3555L38.0222 35.2667L39.1333 35.3555C39.4 35.3555 39.4445 35.3555 39.5778 35.1778L39.8889 34.7778L39.7111 34.6444ZM36.9556 34.6L37.0889 34.3778C37.2667 34.1555 37.4889 34.1111 37.7556 34.3333C38.1311 34.5837 37.955 34.9123 37.8 35.2222L36.9556 34.6Z" fill="#005285"/>
<path d="M8.15556 30.3333L7.88889 29.2667L8.06667 29.2222L8.11111 29.4889L9.13333 29.2222L8.82222 27.9778L7.8 28.2444L7.88889 28.5556H7.71111L7.44444 27.4889L7.62222 27.4445L7.66667 27.7556L9.88889 27.2222L9.8 26.9111L9.97778 26.8667L10.2444 27.9333L10.0667 27.9778L9.97778 27.6667L9 27.8889L9.31111 29.1333L10.2889 28.9111L10.2 28.6L10.3778 28.5556L10.6444 29.6222L10.4667 29.6667V29.4445L8.24444 29.9778L8.33333 30.2889L8.15556 30.3333Z" fill="#005285"/>
<path d="M9.66668 30.9556C10.2 30.6889 10.8667 30.8222 11 31.1778C11.1778 31.5333 10.8222 32.0667 10.2889 32.3333C9.75557 32.6 9.08891 32.4667 8.95557 32.1111C8.77779 31.7556 9.13335 31.1778 9.66668 30.9556ZM10.5111 32.8222C11.2222 32.5111 11.4889 31.7111 11.2222 31.0445C10.9111 30.3778 10.1111 30.1111 9.44446 30.4222C8.73335 30.7333 8.42224 31.5333 8.73335 32.2C9.04446 32.8667 9.84446 33.1333 10.5111 32.8222Z" fill="#005285"/>
<path d="M11.5333 36.6L10.8222 35.6667L10.9556 35.5778L11.1333 35.8444L12.5111 34.8222L10.4222 35.2667L11.4 33.4L10.1111 34.3333L10.2889 34.6L10.1556 34.6889L9.62223 33.9333L9.75557 33.8444L9.93334 34.1111L11.8 32.7778L11.6222 32.5111L11.7556 32.4222L12.1556 33L11.2222 34.8667L13.2222 34.4667L13.6667 35.0889L13.5333 35.1778L13.3556 34.9111L11.4889 36.2445L11.6667 36.5111L11.5333 36.6Z" fill="#005285"/>
<path d="M13.6222 38.6444L12.2445 37.3556L12.3778 37.2222L12.5556 37.4444L14.1111 35.7556L13.8889 35.5778L14.0222 35.4444L15.2222 36.5556L15.3111 36.4667L15.4889 36.6L15.0445 37.0444L14.9111 36.9111L15.0889 36.6889L14.4667 36.1111L13.8445 36.8222L14.3334 37.2667L14.5111 37.0889L14.6889 37.2222L14.1556 37.8L13.9778 37.6667L14.1556 37.4444L13.6667 37L13 37.7111L13.6222 38.2889L13.8 38.0667L13.9778 38.2L13.6222 38.6444Z" fill="#005285"/>
<path d="M15.9778 40.2889L14.4222 39.2222L14.5111 39.0889L14.7778 39.2667L16.0666 37.3555L15.8 37.1778L15.8889 37.0444L16.8222 37.6667L16.7333 37.8L16.4666 37.6222L15.2222 39.4889L15.9333 39.9778L16.1111 39.7111L16.2889 39.8444L15.9778 40.2889Z" fill="#005285"/>
<path d="M17.5778 39.9333L18.3333 39.2222L18.2444 40.2889L17.5778 39.9333ZM18.8667 41.4889L18.6889 41.4445L18.8222 38.7333L18.6 38.6445L16.6 40.5556L16.3778 40.4667L16.3333 40.5556L17.0889 40.9111L17.1778 40.7778L16.8667 40.6445L17.3556 40.1556L18.2444 40.5556L18.2 41.2667L17.9333 41.1333L17.8889 41.2667L18.7778 41.6667L18.8667 41.4889Z" fill="#005285"/>
<path d="M21.6222 42.4222L21.3556 42.3778L20.4667 40.1556L20.0667 41.8445L20.3778 41.9333L20.3333 42.1111L19.4444 41.8889L19.4889 41.7111L19.8 41.8L20.2889 39.7556L20.2 39.5333L19.9333 39.4889L19.9778 39.3111L20.7333 39.4889L21.5778 41.5778L21.9778 39.9333L21.6667 39.8445L21.7111 39.6667L22.6 39.8889L22.5556 40.0667L22.2444 39.9778L21.6222 42.4222Z" fill="#005285"/>
<path d="M24.2 40.0222L22.9555 39.9778V40.1556H23.2666L23.1778 42.4667H22.8666V42.6445L24.1111 42.6889C24.8421 42.6889 25.4889 42.1707 25.4889 41.4C25.5333 40.6445 24.9555 40.0222 24.2 40.0222ZM24.9111 41.3556C24.8558 42.1299 24.3613 42.4222 23.6666 42.4222L23.7555 40.2445C24.4221 40.2445 24.9709 40.5776 24.9111 41.3556Z" fill="#005285"/>
<path d="M37.7111 26.6444L36.7334 26.9556L36.9556 27.0444L36.6 27.2667C36.6445 27.0889 36.6889 26.8667 36.6889 26.6444L37.2222 26.2V26.4222L37.8445 25.5778L36.9111 26.0222L37.1334 26.0667L36.6889 26.4222C36.7334 26.1556 36.7334 25.9333 36.7778 25.6667L37.3111 25.0889L37.3556 25.3111L37.8445 24.4222L37 25L37.2222 25.0444L36.7778 25.4889C36.7778 25.3111 36.7778 25.1778 36.7778 25C36.7778 23.8 36.6 22.6889 36.2889 21.6222C35.7556 21.6667 35.2222 21.4889 34.9556 21.4444C35.6222 21.8444 35.8889 22.2889 35.9778 22.7778C35.4445 22.9111 34.6889 22.7333 34.2889 22.4222C34.6889 22.7778 34.9111 23.3111 34.9556 23.8444C34.3778 23.8889 33.8889 23.6222 33.4889 23.2222C33.7556 23.4889 34.0667 24.2 33.9778 24.6889C33.4889 24.6444 32.9556 24.3333 32.6445 23.9778C32.9111 24.5111 33 25 33 25.4889C32.5111 25.4 32.1556 25.2667 31.7556 24.8667C31.9778 25.3556 32.0222 25.8889 31.9778 26.2889C31.4445 26.1111 31.0889 25.8889 30.7778 25.3556C30.9556 25.8 31.0445 26.3778 30.9556 26.7333C30.5111 26.6 30.2 26.3333 29.9778 25.8444C30.2 26.3333 30.2 26.9111 30.1111 27.2222C29.9334 27.1778 29.6667 27.0444 29.5334 26.9111C29.5334 27 29.5334 27.0889 29.5334 27.1778C29.4889 27.5333 29.4445 27.8444 29.3556 28.1111C29.4 28.1556 29.4889 28.2444 29.4889 28.2444C29.7111 28.5111 30.0667 28.7333 30.3334 28.8222C30.2 28.8222 30.0667 28.9556 29.9334 28.9556C30.1111 29.1333 30.4667 29.1778 30.6889 29.4C30.5111 29.4 30.4667 29.5333 30.2889 29.5333C30.6889 29.8444 31.0445 29.8444 31.2222 29.8889C31.3111 29.8889 31.5778 29.9333 31.7111 29.8889C31.9334 29.8444 32.1111 29.9333 32.2445 30.0222L34.3778 25.7111L34.1556 25.7556L34.8222 25L34.6 26.0222L34.5111 25.8L32.3778 30.1556C32.4222 30.2 32.4222 30.2444 32.4222 30.3333L32.5111 30.2889L35.9778 27.5333L35.6667 27.4L36.6 27L35.9778 27.8V27.5778L32.5556 30.2889C32.6445 30.2889 32.7334 30.3333 32.7778 30.3778C32.8431 30.5083 32.7946 30.9111 32.6 30.9111C32.5556 30.9111 32.5111 30.9111 32.4667 30.9111C32.5111 30.9111 32.5111 30.9556 32.5556 31C32.5556 31.0444 32.6 31.1333 32.4667 31.2667C32.3334 31.4 32.2445 31.4444 32.1556 31.4C32.1111 31.3556 32.1111 31.3556 32.0667 31.3111C32.0667 31.3556 32.1111 31.4 32.1111 31.4C32.1111 31.5333 32.0222 31.5778 31.9334 31.6222C31.5893 31.7598 31.2335 31.3055 31.5778 31.1333C31.5778 31.2222 31.5778 31.2667 31.5778 31.3556C31.5778 31.6221 31.8808 31.5152 32.0222 31.4444C32.0667 31.4 32.0667 31.3111 32.0667 31.2222C32.0667 31.1778 32.0222 31.1333 31.9778 31.0889C32.0667 31.0889 32.1111 31.1333 32.1556 31.2222C32.2 31.2667 32.2889 31.2667 32.3778 31.2222C32.4222 31.1333 32.4667 31.0889 32.5111 31.0444C32.5556 30.9111 32.4222 30.8222 32.3334 30.7778C32.5111 30.7778 32.5111 30.8667 32.6445 30.8222C32.8745 30.8222 32.858 30.4623 32.6889 30.3778C32.6208 30.3778 32.5111 30.3418 32.5111 30.4222C32.5111 30.4667 32.4667 30.5556 32.3778 30.6C32.3334 30.6 32.2889 30.6 32.3334 30.5556C32.3778 30.5111 32.4222 30.2444 32.2889 30.1556C32.2 30.0667 32.0667 30.0222 31.8889 30.0222C31.7111 30.0222 31.4445 30.0667 31.3111 30.0222C31.1778 30.0222 31.1334 30.1556 31.0889 30.2444C31.0445 30.4222 31 30.6 30.7778 30.5111C30.5111 30.3333 30.1111 30.3778 29.6667 30.2C29.7111 30.3333 29.7111 30.4667 29.7556 30.6C29.3556 30.5111 29.2667 30.2889 28.8667 30.1556C28.9111 30.2889 28.9111 30.4222 29 30.5556C28.6889 30.5111 28.3778 30.2 27.9334 30.0667H27.8889C27.7111 30.1111 27.5778 30.1556 27.4445 30.2C27.7556 30.5556 28.0222 31 28.1556 31.5333C28.1556 31.5333 27.9334 31.5333 27.5778 31.4444C27.6667 31.7556 27.7556 32.0667 27.7556 32.3778C27.7556 32.3778 27.4889 32.3333 27.1334 32.1111C27.1778 32.4222 27.1334 32.7778 27.0889 33.0889C27.0889 33.0889 26.7778 32.9556 26.4667 32.6C26.4222 32.9111 26.3334 33.2667 26.2 33.5778C26.2 33.5778 25.9334 33.4 25.6667 32.9556C25.5334 33.2667 25.4 33.6222 25.1778 33.9333C25.1778 33.9333 24.8667 33.6222 24.6889 33C24.4222 33.4 24.1556 33.5778 24.1556 33.5778C24.0222 33.2667 23.9334 32.9111 23.8889 32.6C23.5334 32.9556 23.2667 33.0889 23.2667 33.0889C23.1778 32.7333 23.1778 32.4222 23.2222 32.1111C22.8667 32.3333 22.6 32.3778 22.6 32.3778C22.6 32.0222 22.6445 31.7111 22.7778 31.4444C22.4222 31.5778 22.2 31.5333 22.2 31.5333C22.3334 31 22.6889 30.4222 22.9111 30.1556C22.7778 30.1111 22.6445 30.0667 22.5111 30.0222C22.123 30.0222 21.7669 30.4063 21.4 30.5111C21.4889 30.3778 21.4889 30.2889 21.5334 30.1111C21.1334 30.2444 21.0445 30.4667 20.6445 30.5556C20.7334 30.3778 20.6889 30.2889 20.7334 30.1556C20.3778 30.3333 19.8445 30.4667 19.6222 30.5111C19.3556 30.5556 19.3556 30.2 19.2667 30.1111C19.1314 29.9758 18.5896 30.0667 18.4222 30.0667C18.2445 30.0667 18.1111 30.1111 18.0222 30.2C17.8889 30.2889 17.9334 30.5556 18.0222 30.6C18.0667 30.6444 18.0667 30.6444 17.9778 30.6444C17.8889 30.6 17.8445 30.5111 17.8445 30.4667C17.8445 30.4667 17.8445 30.4667 17.8445 30.4222C17.5717 30.4222 17.2557 30.7297 17.6667 30.8667C17.8 30.9111 17.8445 30.8222 17.9778 30.8222C17.8889 30.8667 17.7111 30.9556 17.8 31.0889C17.8 31.1333 17.8445 31.1778 17.9334 31.2667C17.9778 31.3111 18.0667 31.3111 18.1556 31.2667C18.2 31.2222 18.2445 31.1778 18.3334 31.1778C18.2889 31.2222 18.2889 31.2667 18.2445 31.3111C18.2 31.4 18.2 31.4889 18.2889 31.5333C18.4303 31.604 18.7334 31.711 18.7334 31.4444C18.7334 31.3556 18.7334 31.2667 18.7334 31.2222C18.8222 31.2667 18.8667 31.4889 18.7334 31.6667C18.6889 31.7556 18.5556 31.8 18.3334 31.7111C18.2 31.6667 18.1111 31.6222 18.1556 31.4889C18.1556 31.4444 18.1556 31.4 18.2 31.4C18.1556 31.4444 18.1556 31.4444 18.1111 31.4889C18.0222 31.5333 17.9334 31.4889 17.8 31.3556C17.6667 31.2222 17.7111 31.1333 17.7111 31.0889C17.7111 31.0444 17.7556 31.0444 17.8 31C17.7556 31.0444 17.6667 31 17.6667 31C17.5778 31 17.5334 30.9111 17.4889 30.7778C17.4445 30.6 17.4445 30.5556 17.4889 30.4667C17.5334 30.3778 17.8 30.3333 17.9334 30.3778C17.9334 29.917 18.8597 30.0222 19.1334 30.0222C19.2222 30.0222 19.8 29.8889 20.2 29.6222C19.9778 29.6667 19.9778 29.5333 19.8 29.4889C20.0222 29.2667 20.3778 29.2222 20.5556 29.0444C20.4222 29.0444 20.2445 28.9111 20.1556 28.8667C20.5111 28.6889 20.7334 28.5556 20.9556 28.2889C21.2057 28.0388 20.9146 27.5574 20.8667 27.2222C20.8667 27.1333 20.8667 27.0444 20.8667 26.9556C20.7778 27.0444 20.6 27.1333 20.3334 27.2222C20.2 26.9111 20.2445 26.2889 20.4222 25.8444C20.2 26.3333 19.9334 26.6 19.4445 26.7778C19.3111 26.4222 19.4 25.8444 19.5778 25.4C19.2667 25.8889 18.9556 26.1556 18.4222 26.3778C18.3778 25.9778 18.4222 25.4 18.6 24.9111C18.2 25.3111 17.8445 25.4444 17.3556 25.5333C17.3111 25.0444 17.4445 24.6 17.7111 24.0222C17.4 24.3778 16.7778 24.6444 16.3334 24.6889C16.3778 24.2444 16.6889 23.6667 16.8667 23.3111C16.4222 23.6222 15.9334 23.8444 15.4445 23.8889C15.4889 23.4 15.7111 22.8667 16.1111 22.4667C15.6667 22.7778 15 22.9556 14.4667 22.9111C14.6 22.3778 14.9111 21.8444 15.3556 21.5778C15.0889 21.6222 14.6445 21.7556 14.1111 21.6667C13.8 22.7333 13.6222 23.8444 13.6222 25C13.3556 24.7778 13.1778 24.7333 13 24.5556C13.0445 24.8222 13.0889 24.9556 13.0889 25.2667C13.1334 25.8444 13.3556 26.1556 13.7111 26.3333C13.7111 26.5111 13.7556 26.6444 13.7556 26.8222C13.4889 26.6444 13.1334 26.5556 12.6889 26.5556C12.9556 27.4444 13.3556 27.5333 13.8889 27.6222C13.8889 27.7111 13.9334 27.8 13.9334 27.8889C13.6667 27.8 13.3111 27.8 12.9111 27.9333C13.1778 28.3333 13.5334 28.6 14.1556 28.6889C13.8 28.6444 13.4 28.7333 13.0889 28.8667C13.5334 29.2667 13.9778 29.4 14.4222 29.3556C14.4222 29.4 14.4667 29.4444 14.4667 29.5333C14.1111 29.6222 13.8445 29.8 13.6667 29.9778C14.0222 30.1111 14.3778 30.1556 14.6889 30.1111C14.6889 30.1111 14.6889 30.1111 14.6889 30.1556C14.5111 30.2889 14.3334 30.5556 14.2445 30.9111C14.5111 30.8667 14.7334 30.8222 15 30.7778C15.0445 30.8667 15.0889 30.9556 15.1778 31.0444C15.0445 31.3111 15 31.6222 15.0889 31.9778C15.3111 31.9333 15.4889 31.8444 15.6222 31.7556C15.6667 31.8444 15.7111 31.8889 15.7556 31.9778C15.7111 32.3778 15.8 32.8222 16.0222 33.0889C16.1111 32.9556 16.2 32.8667 16.2889 32.7778C16.7287 32.1181 16.5111 31.5389 16.5111 30.8222C16.5631 31.5501 17.0604 32.2284 16.4222 32.8667C18.6 35.4 21.8 37 25.4 37C30.5111 37 34.8222 33.8 36.5111 29.2667L37.0445 29.0444L37 29.2667L37.7556 28.6L36.7334 28.8222L36.9556 28.9111L36.5556 29.0889C36.6445 28.8667 36.6889 28.6889 36.7778 28.4667L37.3556 28.1556V28.3778L38.0667 27.6222L37.0889 27.9333L37.3111 28.0222L36.4222 28.1111C36.4667 27.8889 36.5556 27.6667 36.6 27.4L37.0445 27.1333V27.3556L37.7111 26.6444Z" fill="#005285"/>
<path d="M32.2889 30.3778C32.5623 30.3778 32.7823 30.7022 32.4222 30.8222C32.2889 30.8222 32.2444 30.7778 32.1111 30.7778C32.2 30.8222 32.3778 30.9111 32.2889 31.0444C32.2444 31.0889 32.2445 31.1333 32.1556 31.2222C32.0284 31.3494 31.8612 31.1417 31.7556 31.0889C31.8 31.1333 31.8 31.1778 31.8444 31.2222C31.8889 31.3111 31.8889 31.4 31.8 31.4444C31.6592 31.5149 31.3556 31.6198 31.3556 31.3556C31.3556 31.2667 31.3556 31.1778 31.3556 31.1333C31.2667 31.1778 31.2222 31.4 31.3111 31.5778C31.3556 31.6667 31.4889 31.7111 31.7111 31.6222C31.8444 31.5778 31.9333 31.5333 31.8889 31.4C31.8889 31.2889 31.8374 31.304 31.9333 31.4C32.0222 31.4444 32.1111 31.4 32.2444 31.2667C32.3778 31.1333 32.3333 31.0444 32.3333 31C32.3333 30.9556 32.2889 30.9556 32.2444 30.9111C32.2889 30.9556 32.3778 30.9111 32.3778 30.9111C32.5517 30.9111 32.6653 30.4876 32.5556 30.3778C32.5111 30.3333 32.4667 30.2889 32.3333 30.2889L35.7556 27.5778V27.8L36.3778 27L35.6667 27.4L35.8889 27.4444L32.4222 30.2L32.3333 30.2444" fill="white"/>
<path d="M32.2444 30.1111L34.4222 25.7556L34.5111 25.9778L34.7333 24.9556L34.0667 25.7111L34.2889 25.6667L32.1556 30.0222" fill="white"/>
<path d="M31.7111 30.6C31.7556 30.7333 31.7556 30.9111 31.7556 31C31.9778 30.9556 32.0222 30.7333 32.0222 30.6444C31.9778 30.5111 31.8 30.5111 31.7111 30.6Z" fill="white"/>
<path d="M31.6667 30.6C31.5333 30.6 31.4889 30.5111 31.4444 30.4667C31.4 30.4222 31.3556 30.3778 31.3556 30.4667C31.3556 30.5556 31.3556 30.6 31.4 30.6444C31.4889 30.6444 31.5778 30.6444 31.6667 30.6Z" fill="white"/>
<path d="M31.6667 31C31.6222 30.9556 31.5778 30.8667 31.5778 30.7778C31.5333 30.8222 31.4889 31 31.4889 31.1333C31.4889 31.1778 31.4889 31.1778 31.5778 31.1778C31.6667 31.1778 31.7556 31.1333 31.8 31.0889C31.7556 31.0889 31.7111 31.0444 31.6667 31Z" fill="white"/>
<path d="M34.2889 26.4667H34.5111L33.1778 28.5111C33 28.8222 32.8667 29.1333 32.7333 29.4C32.7333 29.4 32.7333 29.4 32.7333 29.3556L34.6 26.5111L34.6889 26.7333L35 25.7556L34.2889 26.4667Z" fill="white"/>
<path d="M36.2444 25.1333L36.2889 25.3556L36.6889 24.4222L35.8889 25.0444H36.1111C35.1709 26.2291 34.1947 27.3857 33.3556 28.6444C34.5283 28.0581 35.4574 26.135 36.2444 25.1333Z" fill="white"/>
<path d="M33.4889 29.1778C33.7111 29 33.8889 28.8667 34.1111 28.6889L36.1556 26.8222L36.2 27.0444L36.7333 26.2L35.8444 26.6889L36.0667 26.7333L34.0222 28.6444C33.8444 28.7778 33.6667 28.9556 33.4889 29.1778Z" fill="white"/>
<path d="M35.7556 28.7333L32.9111 30.1556C32.8667 30.2 32.8222 30.2444 32.7778 30.2444C32.8135 30.2802 32.8222 30.2835 32.8222 30.3333L35.8 28.8667L35.7556 29.0889L36.5111 28.4222L35.4889 28.6444L35.7556 28.7333Z" fill="white"/>
<path d="M31.4444 31.7556C31.4 31.7556 31.3556 31.7111 31.3111 31.7111L30.7778 32.7778L30.6 32.8222L29.9778 33.9778L30.3333 33.8889L30.4222 34.1556L31 33L30.9111 32.8222L31.4444 31.7556Z" fill="white"/>
<path d="M33.4444 29.7556C34.3483 29.3036 35.1734 28.7528 36.0222 28.2V28.4222L36.6889 27.6667L35.7111 27.9778L35.9333 28.0667C35.1054 28.5951 34.1443 29.0557 33.4444 29.7556Z" fill="white"/>
<path d="M31.2222 31.4889C31.2222 31.4444 31.2222 31.3556 31.2222 31.3111L30.5556 32.0667H30.3333L29.3556 33H29.6222L29.6667 33.2222L30.4667 32.2L30.6 32.1556L31.2222 31.4889Z" fill="white"/>
<path d="M32.4667 29.9778C32.5556 29.9333 32.6889 29.8 32.8222 29.7111L36.1556 26.0667L36.2 26.2889L36.6889 25.4L35.8444 25.9778L36.0667 26.0222L32.5556 29.8C32.5111 29.8889 32.5111 29.9333 32.4667 29.9778Z" fill="white"/>
<path d="M29.4889 32.4667L30.7333 31.5778C30.8667 31.4 31.0444 31.2667 31.0889 31.1778L29.5333 32.2L29.3556 32.1556L28.2444 32.8667L28.5111 32.9111L28.5556 33.1333L29.3556 32.4222L29.4889 32.4667Z" fill="white"/>
<path d="M28.4222 32.6L29.3556 31.9778L29.5333 32.0222C29.5333 32.0222 30.6889 31.3111 30.9556 31.1333L29.4889 31.8889L29.3111 31.8444L28.1111 32.4222L28.3778 32.5111L28.4222 32.6Z" fill="white"/>
<path d="M17.5778 30.3778C17.4444 30.3333 17.1778 30.3778 17.1333 30.4667C17.0638 30.6058 17.1104 31 17.3111 31C17.3556 31 17.4 31 17.4444 31C17.4 31 17.4 31.0444 17.3556 31.0889C17.3556 31.1333 17.3111 31.2222 17.4444 31.3556C17.5333 31.4889 17.6667 31.5333 17.7556 31.4889C17.8 31.4444 17.8444 31.4444 17.8444 31.4C17.8444 31.4444 17.8 31.4889 17.8 31.4889C17.7556 31.6222 17.8889 31.6667 17.9778 31.7111C18.2 31.8 18.3333 31.7556 18.3778 31.6667C18.5111 31.4889 18.4222 31.2667 18.3778 31.2222C18.3778 31.3111 18.3778 31.3556 18.3778 31.4444C18.3778 31.5333 18.3333 31.6222 18.2 31.6222C17.9845 31.6222 17.8889 31.5093 17.8889 31.3111C17.8889 31.2667 17.9333 31.2222 17.9778 31.1778C17.8889 31.1778 17.8444 31.2222 17.8 31.2667C17.6562 31.4105 17.5267 31.1712 17.4444 31.0889C17.4 30.9556 17.5333 30.8667 17.6222 30.8222C17.4444 30.8222 17.4444 30.8667 17.3111 30.8667C17.0988 30.7959 17.0795 30.5158 17.2667 30.4222C17.3556 30.4222 17.4444 30.4222 17.4889 30.4222" fill="white"/>
<path d="M14.6444 29.0444C14.2889 28.8222 14.0222 28.7778 13.5333 28.8222C13.9778 28.8667 14.2889 28.9111 14.6444 29.0444Z" fill="white"/>
<path d="M14.8667 31.5333C14.9111 31.1778 15.1333 30.7778 15.4889 30.5111C15.7111 30.3333 15.8444 30.2444 15.6667 30.4667C15.3556 30.7778 15 31.2667 14.8667 31.5333Z" fill="white"/>
<path d="M15.5778 32.4667C15.4444 32.1556 15.5778 31.6222 15.7111 31.2667C15.8 31.0444 16.0667 30.6889 16.1111 30.6444C15.8444 31.0889 15.5778 32.1556 15.5778 32.4667Z" fill="white"/>
<path d="M14.5111 27.9778C14.4667 27.8444 14.3778 27.7556 14.2444 27.8C14.1111 27.8444 14.0222 27.9333 14.0667 28.0667C14.1111 28.2 14.2 28.2889 14.3333 28.2444C14.4667 28.2 14.5111 28.1111 14.5111 27.9778Z" fill="white"/>
<path d="M16.4667 28.2889C16.4667 27.9333 16.4222 27.6222 16.4667 27.2222C15.8 27.7111 15.5778 28.5556 15.8444 29.1778C15.8 29.1778 15.8 29.1778 15.7556 29.1778C15.6222 29.2222 15.5333 29.3111 15.5778 29.4444C15.6222 29.5778 15.7111 29.6667 15.8444 29.6222C15.9778 29.5778 16.0667 29.4889 16.0222 29.3556C16.0222 29.3111 15.9778 29.2222 15.9333 29.2222C15.8 28.6889 15.9333 28.0222 16.2 27.7556C16.1111 28.0667 15.9333 28.7778 16.0667 29.4444C16.1556 29.3111 16.2444 29.1778 16.3333 29.0889C16.3333 29.1778 16.3778 29.3111 16.4222 29.4C16.4222 28.9111 16.6 28.3778 17.1333 28.0222C16.7333 28.5111 16.5111 29.0889 16.4667 29.5333C16.7333 29.1778 17.4 29.0889 17.4444 27.6667C17.0889 27.7111 16.6889 27.9333 16.4667 28.2889Z" fill="white"/>
<path d="M16.9111 29.7111C16.8667 29.5778 16.7778 29.4889 16.6444 29.5333C16.5111 29.5778 16.4222 29.7111 16.4667 29.8C16.5111 29.9333 16.6 30.0222 16.7333 29.9778C16.8667 29.9778 16.9556 29.8444 16.9111 29.7111Z" fill="white"/>
<path d="M16.8222 30.4667C16.7778 30.3333 16.6889 30.2444 16.5556 30.2889C16.4222 30.3333 16.3333 30.4222 16.3778 30.5556C16.4222 30.6889 16.5111 30.7778 16.6444 30.7333C16.7778 30.7333 16.8667 30.6 16.8222 30.4667Z" fill="white"/>
<path d="M15.4 26.8667C14.9111 27.2667 14.7778 27.8 14.8222 28.2444C14.714 28.2444 14.5832 28.3442 14.6444 28.4667C14.6444 28.5871 14.9111 28.6805 14.9111 28.5556C14.9556 28.6889 15 28.8222 15.0889 28.9111C14.9225 28.4119 14.9177 27.7299 15.2667 27.3111C15.1778 27.7556 15.0889 28.5556 15.1778 29.0444C15.3111 28.5111 16.1111 28.2889 15.4 26.8667Z" fill="white"/>
<path d="M17.4 30.0667C17.4 29.9778 17.2667 29.8889 17.1778 29.9333C17.0889 29.9333 17 30.0667 17.0444 30.1556C17.0444 30.2444 17.1778 30.3333 17.2667 30.2889C17.3556 30.2444 17.4 30.1556 17.4 30.0667Z" fill="white"/>
<path d="M16.3333 30.0222C16.3333 29.9333 16.2444 29.8889 16.1111 29.8889C16.0222 29.8889 15.9333 29.9778 15.9778 30.1111C15.9778 30.2 16.1111 30.2889 16.2 30.2444C16.2889 30.2 16.3778 30.1111 16.3333 30.0222Z" fill="white"/>
<path d="M13.9333 27.6222C13.9333 27.5333 13.8444 27.4889 13.7556 27.4889C13.4889 27.1778 13.1778 26.8222 12.5556 26.7333C12.8667 26.8667 13.3556 27.1778 13.7111 27.4889C13.6222 27.4889 13.5778 27.5778 13.5778 27.6667C13.5778 27.7556 13.6667 27.8 13.7556 27.8C13.8889 27.8 13.9778 27.7111 13.9333 27.6222Z" fill="white"/>
<path d="M13.9778 26.5111C13.9333 26.3778 13.8444 26.3333 13.7556 26.3333C13.6222 25.8 13.4889 25.4 12.9111 25C13.2222 25.4 13.5333 25.9333 13.7556 26.3333C13.6667 26.3778 13.6222 26.4667 13.6222 26.5556C13.6667 26.6444 13.7556 26.7333 13.8444 26.7333C13.9333 26.7333 13.9778 26.6 13.9778 26.5111Z" fill="white"/>
<path d="M14.5556 28.5556C14.5556 28.4667 14.4667 28.4222 14.3778 28.4222C14.3333 28.4222 14.2889 28.4667 14.2889 28.4667C13.7556 28.0222 13.4 28.0222 13.1333 27.9778C13.3111 28.0222 13.8889 28.2 14.2889 28.4667C14.2889 28.5111 14.2444 28.5111 14.2889 28.5556C14.2889 28.6444 14.3778 28.6889 14.4667 28.6889C14.5111 28.7333 14.6 28.6444 14.5556 28.5556Z" fill="white"/>
<path d="M15 29.2222C14.9556 29.0889 14.8667 29 14.7333 29.0444C14.6 29.0889 14.5111 29.1778 14.5556 29.3111C14.6 29.4444 14.6889 29.5333 14.8222 29.4889C14.9556 29.4444 15.0444 29.3556 15 29.2222Z" fill="white"/>
<path d="M15.3556 29.6222C15.3556 29.5333 15.2667 29.4889 15.1778 29.4889C15.1333 29.4889 15.0889 29.5333 15.0444 29.5778C14.6 29.5333 14.1111 29.5778 13.6667 29.8C14.1556 29.7111 14.6444 29.5778 15.0444 29.5778C15.0444 29.5778 15.0444 29.6222 15.0444 29.6667C15.0444 29.7556 15.1333 29.8 15.2222 29.8C15.3111 29.8 15.3556 29.7111 15.3556 29.6222Z" fill="white"/>
<path d="M15.8 29.8889C15.7556 29.7556 15.6667 29.7111 15.5333 29.7111C15.4 29.7556 15.3556 29.8444 15.3556 29.9778C15 29.9778 14.4667 30.0667 14.1111 30.4667C14.4667 30.2444 15.0444 30.0222 15.3556 29.9778C15.4 30.0667 15.4889 30.1556 15.6222 30.1111C15.7556 30.1111 15.8444 29.9778 15.8 29.8889Z" fill="white"/>
<path d="M14.9556 25.7556C14.2 26.0667 13.8444 27.0444 14.2444 27.7111C14.6 27.2222 15.2667 27.0889 14.9556 25.7556ZM14.2444 27.6667C14.1556 27.2667 14.3778 26.2444 14.7333 26.0667C14.5111 26.5556 14.4222 27.0444 14.2444 27.6667Z" fill="white"/>
<path d="M14.1556 24.3333C13.9333 24.4222 13.5778 24.7778 13.4 25.2222C13.4444 25.3111 13.4889 25.3556 13.5333 25.4444C13.6222 25.1333 13.8 24.7333 13.9778 24.5556C13.8444 24.7778 13.6667 25.2222 13.6222 25.5778C13.7111 25.8 13.7556 25.9778 13.7556 26.2C14.2444 25.7556 14.4222 25.0444 14.1556 24.3333Z" fill="white"/>
<path d="M18.7778 30.9556C19.7556 31.6667 20.2889 32.6889 20.4222 33.4889C20.2889 33.4 20.0667 33.3111 19.9333 33.3556C19.8 32.5111 19.3556 31.8 18.6444 31.2667C18.6889 31.0889 18.7333 31 18.7778 30.9556Z" fill="white"/>
<path d="M17.8889 30.6889C17.9333 30.6 18.1111 30.6 18.2 30.6444C18.1556 30.7778 18.1556 30.9556 18.1556 31.0444C17.9333 31.0444 17.8889 30.8222 17.8889 30.6889Z" fill="white"/>
<path d="M18.2444 30.6889C18.3778 30.6889 18.4222 30.6 18.4667 30.5556C18.5111 30.5111 18.5556 30.4667 18.5556 30.5556C18.5556 30.6444 18.5556 30.6889 18.5111 30.7333C18.4222 30.7333 18.3333 30.7333 18.2444 30.6889Z" fill="white"/>
<path d="M18.2889 30.9111C18.2889 31 18.2444 31.0444 18.2 31.1333C18.1556 31.1778 18.1111 31.2222 18.0667 31.2222C18.1111 31.2667 18.2 31.3111 18.2889 31.3111C18.3778 31.3111 18.3778 31.3111 18.3778 31.2667C18.3778 31.1333 18.3333 30.9556 18.2889 30.9111Z" fill="white"/>
</svg>
