<svg width="50" height="50" viewBox="0 0 50 50" fill="none" xmlns="http://www.w3.org/2000/svg">
<path d="M35.0135 7.74512L37.8485 12.6606L32.6506 14.6157V7.74512H35.0135Z" fill="#299B98"/>
<path d="M32.6506 14.6157V33.067H17.9483L17.8342 32.9957V20.1872L32.6506 14.6157Z" fill="#25BBBF"/>
<path d="M37.8485 12.6606L44.9643 25L40.3369 33.067L32.6506 33.067V14.6157L37.8485 12.6606Z" fill="#0E7774"/>
<path d="M40.3369 33.067L35.0663 42.2549H32.6506V33.067L40.3369 33.067Z" fill="#299B98"/>
<path d="M32.6506 33.067V42.2549L17.9483 33.067H32.6506Z" fill="#0E7774"/>
<path d="M32.6506 7.74512V14.6157L17.8342 20.1872V7.74512H32.6506Z" fill="#2CE0E5"/>
<path d="M32.6506 42.2549H17.8342V33.067L17.9483 33.067L32.6506 42.2549Z" fill="#299B98"/>
<path d="M17.8342 33.067V42.2549H14.9879L5.03564 25L17.8342 32.9957V33.067Z" fill="#25BBBF"/>
<path d="M17.8342 20.1872V32.9957L5.03564 25L17.8342 20.1872Z" fill="#2CE0E5"/>
<path d="M17.8342 7.74512V20.1872L5.03564 25L15.0421 7.74512L17.8342 7.74512Z" fill="#31F9FF"/>
</svg>
