<svg width="50" height="50" viewBox="0 0 50 50" fill="none" xmlns="http://www.w3.org/2000/svg">
<rect width="50" height="50" fill="#D22028"/>
<path d="M24.9573 13H19.4836L29.3109 27.42L32.0543 23.4038L24.9573 13Z" fill="white"/>
<path d="M39.2869 34.0175L32.0543 23.4038L29.3109 27.42L35.5503 36.5638C36.3291 37.71 37.5367 37.9331 38.6962 37.1413C39.8251 36.3713 40.057 35.1463 39.2913 34.0175H39.2869Z" fill="#558DCA"/>
<path d="M25.0623 36.5637C25.8411 37.71 27.0444 37.9331 28.2083 37.1413C29.3371 36.3713 29.569 35.1462 28.8033 34.0175L26.8037 31.0862L24.0603 35.0981L25.0623 36.5681V36.5637Z" fill="#558DCA"/>
<path d="M9 13L24.0647 35.0938L26.8081 31.0863L14.4781 13H9Z" fill="white"/>
</svg>
