<svg width="50" height="50" viewBox="0 0 50 50" fill="none" xmlns="http://www.w3.org/2000/svg">
<path fill-rule="evenodd" clip-rule="evenodd" d="M32.2128 20.8416C30.1182 20.934 28.57 23.0414 29.0153 24.8603C29.3623 25.3785 28.2266 25.6073 27.8724 25.8526C27.2349 26.1247 26.6766 26.4779 26.0018 26.6904C23.6777 23.7003 18.943 23.7781 16.9768 27.1395C14.7774 30.9777 18.4475 35.4766 22.9364 34.3996C23.3143 34.2838 23.776 34.1577 24.1075 33.96C24.439 33.7622 24.5957 33.5964 25.0182 34.0291C25.4208 34.5214 27.0609 35.4464 26.6338 35.9067C25.53 38.3863 28.4279 40.916 30.9141 39.6309C33.934 38.0953 32.577 33.8201 29.2056 34.0956C27.6083 34.2847 27.9898 35.113 26.8852 34.0377C26.6238 33.6922 25.3106 33.0315 25.8051 32.6118C26.509 31.8155 26.9589 30.4094 26.8906 29.3894C26.8578 29.202 26.8278 28.4678 26.7276 28.2839C26.5109 27.7544 26.8824 27.6508 27.295 27.4755C27.9662 27.1749 28.7011 26.7491 29.3823 26.4805C29.4183 26.4689 29.4499 26.4476 29.4734 26.4192C29.5954 26.2905 29.7074 26.3328 30.0398 26.6377C30.415 26.9832 30.4178 26.9832 30.548 27.0445C30.8321 27.2552 31.1773 27.3753 31.5252 27.5022C33.1262 27.77 34.3993 27.4867 35.4366 26.2439C37.2535 23.9119 35.2663 20.5332 32.2128 20.8416ZM33.0597 22.0645C34.8693 22.4549 35.5332 24.754 34.0542 25.8647C32.8584 26.9011 30.7529 26.4287 30.2894 24.7765C29.814 23.2581 31.3603 21.6603 33.0597 22.0619V22.0645ZM22.0056 25.869C24.6603 26.148 26.3524 28.9437 25.0273 31.2523C23.5019 34.0878 19.0714 33.7691 17.9612 30.7695C16.974 28.2804 19.2453 25.5702 22.0056 25.869ZM29.9961 35.3315C30.9187 35.5811 31.5124 36.5285 31.2829 37.4043C31.0635 38.2464 30.008 38.9788 29.1118 38.7041C26.713 38.0996 27.5536 34.8133 29.9961 35.3358V35.3315Z" fill="#54C6D0"/>
<path fill-rule="evenodd" clip-rule="evenodd" d="M21.8599 10.5231C19.9637 10.6639 18.1462 11.3023 16.6108 12.3668C15.0753 13.4313 13.8824 14.8799 13.1655 16.5507C12.8413 17.3479 12.6099 18.069 12.5025 18.9526C12.477 19.9147 12.151 19.5831 11.5007 19.9665C10.6811 20.3362 9.67112 21.1532 9.16113 21.8139C8.70419 22.3647 8.34211 22.9807 8.08833 23.6389C7.87431 23.9524 7.8051 25.0277 7.66303 25.1365C7.57196 25.159 7.57196 26.6307 7.66303 26.6531C7.7204 26.6669 7.79144 26.958 7.85063 27.4123C8.34059 29.6345 10.3724 31.6858 12.6773 32.3353C13.9295 32.8111 14.2528 31.2289 12.9287 31.0726C7.79326 29.3996 7.7031 22.5895 12.7921 20.8181C13.0225 20.7205 13.4205 20.6661 13.6791 20.5176C13.7192 20.4968 13.7319 20.3707 13.7511 19.8266C13.7684 19.0329 13.8175 19.1987 13.9059 18.6546C14.6927 14.2429 19.3974 11.1026 24.1057 11.8721C26.9553 12.2547 29.467 14.0814 30.7156 16.4816C30.8148 16.6612 30.8977 16.796 30.9888 16.9946C31.0543 17.1673 31.1463 17.1812 31.4887 17.0948C33.1116 16.8357 35.4047 17.0145 36.8746 17.7227C42.3388 20.3776 42.4964 27.5263 37.1478 30.3574C35.8683 30.7029 36.2845 32.1712 37.4948 31.6063C37.7498 31.4724 38.0312 31.3705 38.2525 31.1917C41.9426 29.1189 43.4225 24.424 41.6585 20.7611C40.1103 17.5655 37.0495 15.6654 33.1708 15.7691C31.1882 15.7587 32.1964 15.9064 30.7329 14.1678C28.5863 11.651 25.4417 10.2873 21.8599 10.5231Z" fill="#3693D7"/>
</svg>
