<svg width="50" height="50" viewBox="0 0 50 50" fill="none" xmlns="http://www.w3.org/2000/svg">
<rect width="50" height="50" fill="#00B336"/>
<path d="M38.9278 12.8114C37.6378 12.1092 36.054 12.6435 35.3899 14.0021L25.9137 34.4049C25.6923 34.8438 25.5015 35.1453 24.9977 35.1453C24.494 35.1453 24.2993 34.8438 24.0818 34.4049L14.6093 13.9983C13.9453 12.6397 12.3615 12.1092 11.0715 12.8076C9.78153 13.5098 9.27776 15.1776 9.94182 16.5325L19.1967 35.4163L20.2501 37.5611C21.1698 39.4426 22.9903 40.6105 25.0016 40.6105C27.009 40.6105 28.8295 39.4426 29.753 37.5611L30.8064 35.4163L40.0613 16.5325C40.7215 15.1814 40.2139 13.5136 38.9278 12.8114Z" fill="white"/>
</svg>
