<svg width="50" height="50" viewBox="0 0 50 50" fill="none" xmlns="http://www.w3.org/2000/svg">
<path d="M17.4693 26.3168C18.1673 26.1452 18.8381 26.0006 19.4976 25.8146C21.8316 25.1566 24.0414 24.1974 26.1487 23.0041C26.3874 22.8693 26.5568 22.8746 26.7925 23.0071C29.259 24.3902 31.8437 25.4773 34.6083 26.1128C34.8748 26.1738 35.1429 26.2272 35.4613 26.295C35.371 26.8393 35.2957 27.3664 35.1956 27.8889C34.6234 30.8598 34.0406 33.8285 33.4707 36.8002C33.2983 37.6991 32.8894 38.4513 32.2638 39.1244C30.7437 40.7574 29.1935 42.3566 27.461 43.7675C26.5214 44.5324 26.419 44.5385 25.4854 43.7735C23.5535 42.1902 21.8023 40.4216 20.1715 38.5303C19.7672 38.0613 19.6151 37.4928 19.5006 36.9214C18.9104 33.9798 18.3404 31.0337 17.7697 28.0884C17.6583 27.5124 17.5732 26.9319 17.4693 26.3168ZM33.0566 27.8979C32.967 27.8618 32.9226 27.8339 32.8751 27.8264C30.6187 27.4861 28.5942 26.5675 26.6931 25.3456C26.4883 25.2138 26.3671 25.2748 26.1962 25.3832C24.4065 26.5156 22.5107 27.3942 20.4094 27.7729C20.2317 27.8045 20.0555 27.8444 19.8184 27.8926C20.2806 30.4472 20.7173 32.9589 21.2014 35.4608C21.3227 36.0887 21.4491 36.8077 21.8294 37.2753C22.8684 38.5522 23.9947 39.7696 25.182 40.911C26.2572 41.9447 26.6825 41.9357 27.7569 40.911C28.8682 39.8509 29.8982 38.7028 30.9161 37.5508C31.2075 37.2203 31.4303 36.7633 31.5184 36.3304C31.9754 34.0897 32.382 31.8386 32.7968 29.5897C32.9007 29.028 32.9708 28.4603 33.0558 27.8987L33.0566 27.8979Z" fill="#AB0000"/>
<path d="M13.7304 18.0824C14.457 17.727 14.6851 18.2631 14.9629 18.6583C15.0096 18.644 15.0442 18.6433 15.0503 18.6305C15.3138 18.0026 15.3183 17.983 15.9982 18.1524C16.6968 18.3263 17.3858 18.5424 18.0822 18.7412C18.0543 19.0099 18.0332 19.2162 18.0114 19.4346C18.0701 19.4293 18.1153 19.4391 18.1386 19.421C18.8148 18.9015 19.4916 19.2268 20.1602 19.4323C20.2535 19.4609 20.3281 19.613 20.371 19.7237C20.4132 19.8321 20.4034 19.9608 20.4162 20.0708C20.4787 20.0783 20.5148 20.0926 20.5246 20.0821C20.9259 19.671 21.4062 19.5874 21.9566 19.6838C22.1817 19.7237 22.4249 19.6635 22.6764 19.6484C22.7261 19.8472 22.7727 20.0376 22.8157 20.2093C23.4504 19.671 24.0843 19.1334 24.716 18.5973C24.256 18.7547 23.802 18.964 23.3254 19.0641C22.0537 19.3307 20.8137 19.0784 19.5872 18.7412C18.4074 18.4167 17.2389 18.0425 16.0463 17.7744C15.0856 17.5583 14.0963 17.4251 13.0302 17.8166C13.0219 17.599 12.9775 17.4093 13.0152 17.2384C13.2358 16.2445 13.8336 15.4246 14.2763 14.5309C14.9313 13.2081 16.0012 12.5907 17.4121 12.4093C18.0551 12.3265 18.7033 12.2165 19.3207 12.0276C19.8974 11.8514 20.4628 11.6007 20.9861 11.2995C21.6622 10.9103 22.3481 10.8944 23.0491 11.1105C25.234 11.7829 26.6434 13.1614 26.9807 15.4999C27.1125 16.4147 27.2977 17.3227 27.4046 18.2397C27.5439 19.4346 27.1945 20.5165 26.5086 21.4938C26.4537 21.5728 26.3708 21.6443 26.285 21.6872C24.8666 22.398 23.4458 23.1042 22.0251 23.8097C21.9822 23.8307 21.9318 23.8353 21.8248 23.8631C21.8248 23.5198 21.8407 23.1998 21.8211 22.8821C21.7864 22.3001 21.6667 22.1857 21.0908 22.0727C18.8148 21.6255 16.8 20.5873 14.9208 19.2757C14.4728 18.9633 14.134 18.4942 13.7304 18.0824ZM24.7175 14.2471C24.7499 13.1298 23.8622 12.1917 22.7479 12.1653C21.6562 12.1397 20.7121 13.0319 20.6804 14.1176C20.6481 15.2522 21.5372 16.1896 22.6756 16.2182C23.7628 16.246 24.6859 15.3561 24.7175 14.2471ZM20.167 13.5153C20.8129 12.4944 21.6163 11.9327 22.7539 11.9493C23.8825 11.9658 24.652 12.5719 25.2739 13.5582C25.0375 12.3536 23.8652 11.4674 22.6583 11.4945C21.483 11.5209 20.3221 12.4153 20.167 13.5153ZM15.8905 15.6957C16.337 15.5323 16.6291 15.0105 16.4793 14.6883C16.3859 14.4873 16.2346 14.4391 16.0049 14.5686C16.401 14.9872 16.1789 15.335 15.8905 15.6957Z" fill="#00AA00"/>
<path d="M26.3053 5C26.73 5.11068 27.1606 5.20328 27.5785 5.33579C31.9702 6.7264 34.5232 9.78015 35.5577 14.1929C36.1058 16.5291 36.1924 18.9008 36.032 21.2837C35.9553 22.4311 35.8205 23.5748 35.7075 24.7199C35.6917 24.8795 35.6533 25.0376 35.6164 25.2424C34.9531 25.0866 34.3132 24.936 33.6258 24.7749C33.6694 24.4353 33.7101 24.1184 33.75 23.8014C34.2078 20.2078 34.3967 16.618 33.482 13.062C32.8541 10.6234 31.7232 8.46409 29.6309 6.97034C28.6815 6.29197 27.592 5.81012 26.5651 5.24017C26.471 5.18747 26.3716 5.14305 26.2752 5.09411C26.285 5.06324 26.2941 5.03162 26.3038 5.00075L26.3053 5Z" fill="#00AA00"/>
<path d="M32.5499 40.4931C32.4023 41.0947 32.2081 41.7911 32.0643 42.4974C31.9596 43.0123 32.0989 43.2179 32.5996 43.1968C33.9412 43.1411 35.1165 43.6553 36.2978 44.1741C36.8075 44.3984 37.318 44.619 37.8179 44.9285C37.5905 44.9533 37.3624 45.003 37.1358 44.9992C35.7836 44.9804 34.4314 44.9345 33.0792 44.927C32.129 44.9217 31.1774 44.9473 30.2279 44.9864C29.3358 45.0233 29.3184 45.0038 29.4126 44.1349C29.4668 43.6365 29.6535 43.257 30.0329 42.9122C30.9206 42.1051 31.7654 41.2513 32.5491 40.4924L32.5499 40.4931Z" fill="#00AA00"/>
<path d="M15.4147 44.8201C16.7812 44.3171 18.028 43.5047 19.4969 43.2713C19.841 43.2164 20.1963 43.236 20.5449 43.2073C21.0456 43.1659 21.1397 43.0989 21.075 42.6095C20.9929 41.9846 20.831 41.3703 20.7106 40.7853C20.8958 40.963 21.1179 41.1738 21.3362 41.3868C21.9995 42.0336 22.6463 42.6991 23.3299 43.3233C23.7839 43.7381 23.6717 44.2802 23.7455 44.7824C23.7523 44.8268 23.6175 44.93 23.5392 44.9405C23.305 44.9706 23.0671 44.9767 22.83 44.9774C21.4416 44.9812 20.0533 44.9774 18.6657 44.9812C17.7389 44.9834 16.8128 44.9962 15.886 44.9955C15.7301 44.9955 15.575 44.948 15.4192 44.9225L15.4139 44.8208L15.4147 44.8201Z" fill="#00AA00"/>
<path d="M19.4013 24.7666C18.3683 24.9872 17.3353 25.2086 16.2421 25.4427C16.407 26.4373 16.5749 27.4507 16.7616 28.5808C16.5929 28.3858 16.4491 28.2819 16.3912 28.1418C16.0004 27.1992 15.6021 26.2581 15.2626 25.2966C15.1127 24.872 15.3454 24.5355 15.7836 24.4639C16.9942 24.2667 18.1959 24.3277 19.3787 24.6522C19.3862 24.6906 19.3945 24.7282 19.4013 24.7666Z" fill="#00AA00"/>
<path d="M31.0607 29.1485C30.7858 29.8607 30.5193 30.5714 30.2377 31.2762C29.4111 33.3414 28.5799 35.4051 27.7471 37.4672C27.4957 38.0891 27.0778 38.5138 26.3776 38.6026C25.8325 38.6719 25.6195 38.5514 25.4147 38.0394C24.28 35.195 23.1454 32.3505 22.0116 29.5061C21.9664 29.3932 21.9295 29.2765 21.8888 29.1613C22.8669 28.842 24.0376 29.1033 24.4743 30.3516C25.0759 32.0727 25.7708 33.7615 26.4612 35.5579C26.5433 35.3629 26.5967 35.247 26.6419 35.1287C27.242 33.565 27.8352 31.9989 28.4428 30.4382C28.9209 29.2095 29.7212 28.8149 31.0607 29.1485Z" fill="black"/>
<path d="M21.5929 14.9383C21.4747 14.5543 21.4732 14.1462 21.5869 13.7607C21.6223 13.6403 21.663 13.5243 21.7172 13.4136C21.8836 13.0718 22.1712 13.0794 22.3873 13.3873C22.6959 13.8277 22.7005 14.8419 22.3955 15.2936C22.1862 15.6046 21.8949 15.6166 21.7255 15.2786C21.6713 15.1702 21.6291 15.0565 21.5929 14.9383Z" fill="black"/>
<path d="M21.8655 14.0559C21.8384 13.967 21.8376 13.8722 21.864 13.7833C21.8723 13.7555 21.8813 13.7284 21.8941 13.7028C21.9325 13.6237 21.9995 13.6252 22.0492 13.6967C22.1207 13.7984 22.1215 14.0333 22.0515 14.1379C22.0033 14.2102 21.9355 14.2125 21.8964 14.1342C21.8836 14.1093 21.8738 14.083 21.8655 14.0559Z" fill="white"/>
</svg>
