<svg width="50" height="50" viewBox="0 0 50 50" fill="none" xmlns="http://www.w3.org/2000/svg">
<path d="M36.0525 41.1852C36.0525 42.0827 36.0525 42.983 36.0525 43.8805C36.0525 43.951 36.0384 43.9736 35.9622 43.9736C35.6179 43.968 35.2735 43.9736 34.9292 43.9736C34.8813 43.9736 34.87 43.9595 34.8728 43.9172C34.8728 43.8974 34.8728 43.8777 34.8728 43.8579C34.8728 42.4439 34.8728 41.03 34.8728 39.616C34.8728 39.4947 34.8869 39.5116 34.7655 39.5116C34.5341 39.5116 34.2999 39.5116 34.0684 39.5116C34.0148 39.5116 33.9979 39.4947 33.9979 39.4411C33.9979 39.1137 33.9979 38.7863 33.9979 38.4589C33.9979 38.4166 34.0007 38.3968 34.0543 38.3968C34.6922 38.3968 35.3272 38.3996 35.965 38.3968C36.0384 38.3968 36.0525 38.4194 36.0525 38.4871C36.0525 39.3846 36.0525 40.2849 36.0525 41.1824" fill="#009FAC"/>
<path d="M20.9844 41.7638C20.6824 41.7638 20.3804 41.7638 20.0785 41.7638C20.0559 41.7638 20.0277 41.7722 20.0135 41.7412C20.0615 41.5521 20.1405 41.3715 20.2026 41.188C20.3042 40.8917 20.4115 40.5982 20.5131 40.3047C20.5187 40.2877 20.5216 40.2708 20.5413 40.2595C20.6683 40.6208 20.7953 40.982 20.9195 41.3461C20.9647 41.4787 21.0211 41.6057 21.0493 41.7412C21.0352 41.7722 21.007 41.7638 20.9844 41.7638ZM16.4942 40.9227C16.3615 40.982 16.2176 41.0046 16.0765 41.0356C16.0257 41.078 15.9692 41.0554 15.9128 41.0497C15.766 41.0497 15.6165 41.0497 15.4697 41.0554C15.4245 41.0554 15.4076 41.0469 15.4076 40.9961C15.4076 40.5192 15.4076 40.045 15.4076 39.5681C15.4076 39.5257 15.4133 39.5088 15.4612 39.5088C15.7011 39.5144 15.941 39.5003 16.1809 39.5173C16.2148 39.5088 16.2486 39.4919 16.2769 39.5314C16.3982 39.5681 16.5224 39.6047 16.6268 39.6809C16.8583 39.8531 16.9373 40.0874 16.9119 40.3639C16.8865 40.6349 16.7341 40.8127 16.4914 40.9199M21.9524 43.9454C22.3109 43.9426 22.6693 43.9454 23.0306 43.9454C23.0701 43.9454 23.1039 43.9454 23.1011 43.8918C23.0785 43.8297 23.0588 43.7648 23.0334 43.7027C22.3701 41.9585 21.7069 40.2144 21.0465 38.4702C21.0239 38.4137 20.9985 38.3912 20.9336 38.3912C20.6711 38.3968 20.4087 38.3968 20.1434 38.3912C20.0672 38.3912 20.0333 38.4137 20.0079 38.4843C19.4942 39.8531 18.9778 41.2191 18.4641 42.5879C18.323 42.9661 18.1791 43.3414 18.038 43.7224C17.973 43.6603 16.8385 42.0601 16.8103 41.9952C17.5158 41.7864 17.9589 41.3461 18.0718 40.601C18.0605 40.5615 18.0464 40.522 18.0831 40.4853C18.1113 40.3216 18.1001 40.1579 18.0831 39.9942C17.9928 39.1193 17.3775 38.5069 16.4998 38.4222C16.4603 38.4391 16.4208 38.4504 16.3841 38.4137C16.2797 38.3912 16.1724 38.394 16.068 38.394C15.4866 38.3912 14.9052 38.394 14.321 38.3912C14.242 38.3912 14.2251 38.4137 14.2251 38.4871C14.2251 40.2793 14.2251 42.0686 14.2251 43.8607C14.2251 43.8889 14.2251 43.9172 14.2279 43.9454H15.3991V42.0404C15.6023 42.3 15.7886 42.5625 15.9749 42.8221C16.243 43.1975 16.5111 43.57 16.7792 43.9454C17.5441 43.9454 18.3089 43.9454 19.0737 43.9454C19.1104 43.9454 19.1471 43.9397 19.181 43.9285C19.1894 43.9087 19.2036 43.8889 19.2092 43.8692C19.3306 43.5446 19.4547 43.2229 19.5733 42.8983C19.5959 42.8391 19.6213 42.8137 19.6918 42.8137C20.2337 42.8165 20.7727 42.8193 21.3118 42.8137C21.4134 42.8137 21.4529 42.8419 21.4868 42.9378C21.6081 43.2765 21.7408 43.6095 21.8678 43.9454C21.8932 43.9143 21.9214 43.9454 21.9468 43.9454" fill="black"/>
<path d="M25.85 39.4354C26.279 39.4975 26.6064 39.7402 26.8773 40.0648C26.9168 40.1127 26.9591 40.1381 27.0241 40.1381C27.422 40.1353 27.8199 40.1381 28.2179 40.1381C28.2461 40.1381 28.2715 40.1466 28.2997 40.1297C27.7155 38.806 26.4794 38.1174 25.0823 38.346C23.6769 38.5774 22.6693 39.8305 22.7088 41.2699C22.7483 42.6471 23.8095 43.8664 25.1839 44.0413C26.6007 44.222 27.7437 43.4458 28.2659 42.269H28.1812C27.8058 42.269 27.4305 42.2718 27.0551 42.269C26.9422 42.269 26.8491 42.2803 26.7842 42.3847C26.7559 42.4298 26.7136 42.4637 26.6741 42.5004C26.2987 42.8419 25.8613 43.014 25.3505 42.9378C24.5348 42.8165 23.9309 42.0883 23.8885 41.2671C23.8659 40.7986 24.0014 40.3752 24.309 40.0196C24.7154 39.5511 25.2319 39.3507 25.8472 39.4382" fill="black"/>
<path d="M43.3452 42.9407C43.3452 42.8673 43.3198 42.856 43.2549 42.856C42.8401 42.856 42.4252 42.856 42.0131 42.856C41.8043 42.856 41.5926 42.856 41.3838 42.856C41.3499 42.856 41.316 42.8645 41.316 42.8108C41.316 42.4778 41.3217 42.1448 41.316 41.8118C41.316 41.7271 41.3499 41.7158 41.4233 41.7158C42.0329 41.7186 42.6425 41.7158 43.2549 41.7186C43.3227 41.7186 43.3452 41.7045 43.3452 41.6311C43.3424 41.3179 43.3424 41.0046 43.3452 40.6913C43.3452 40.6208 43.3283 40.6038 43.2578 40.6038C42.6425 40.6066 42.0272 40.6038 41.412 40.6066C41.333 40.6066 41.3132 40.5812 41.316 40.5079C41.3189 40.2087 41.3217 39.9095 41.316 39.6104C41.316 39.5314 41.3414 39.5144 41.4148 39.5144C42.0301 39.5144 42.6453 39.5144 43.2606 39.5144C43.3029 39.5144 43.3481 39.5285 43.3481 39.4523C43.3452 39.1193 43.3481 38.7863 43.3481 38.4533C43.3481 38.4137 43.3396 38.3968 43.2916 38.3968C42.9163 38.3996 42.5437 38.3996 42.1684 38.3996C41.5249 38.3996 40.8842 38.3996 40.2407 38.3996C40.1617 38.3996 40.1363 38.4166 40.1391 38.5012C40.142 39.3959 40.1391 40.2934 40.1391 41.188C40.1391 42.0827 40.1391 42.9745 40.1391 43.8664C40.1391 43.9482 40.1533 43.9764 40.2436 43.9764C40.6528 43.9708 41.062 43.9736 41.4684 43.9764C42.0696 43.9764 42.6707 43.9764 43.2747 43.9821C43.3311 43.9821 43.3509 43.9651 43.3509 43.9059C43.3481 43.587 43.3481 43.268 43.3509 42.9491" fill="black"/>
<path d="M13.4377 38.394C12.4301 38.394 11.4226 38.394 10.415 38.394C10.3868 38.394 10.3586 38.3855 10.3332 38.4025C10.3332 40.22 10.3332 42.0347 10.3332 43.8523C10.3332 43.9341 10.3614 43.9482 10.4348 43.9482C11.4649 43.9482 12.495 43.9482 13.5252 43.9482V42.8729C12.8873 42.8729 12.2467 42.8729 11.6088 42.8729C11.5778 42.8729 11.5411 42.8842 11.5129 42.8588C11.5072 42.8532 11.5016 42.8475 11.4988 42.8419C11.4705 42.8221 11.479 42.7911 11.479 42.7657C11.479 42.4468 11.479 42.1307 11.479 41.8118C11.479 41.7864 11.4677 41.7553 11.4988 41.7356C11.5044 41.7299 11.5072 41.7243 11.5129 41.7186C11.5411 41.6876 11.575 41.7017 11.6088 41.7017C12.2467 41.7017 12.8873 41.7017 13.5252 41.7017V40.6264C12.8845 40.6264 12.2467 40.6264 11.606 40.6264C11.575 40.6264 11.5383 40.6405 11.5129 40.6095C11.5072 40.6038 11.5044 40.5982 11.4988 40.5925C11.4705 40.5756 11.479 40.5502 11.479 40.5248C11.479 40.2144 11.479 39.9039 11.479 39.5935C11.479 39.5709 11.4705 39.5455 11.4903 39.5285C11.4931 39.5257 11.4959 39.5229 11.5044 39.5201C11.5383 39.5201 11.5721 39.5201 11.606 39.5201C12.2213 39.5201 12.8393 39.5201 13.4546 39.5201C13.5167 39.5201 13.5308 39.5031 13.5308 39.4411C13.528 39.1221 13.528 38.8032 13.5308 38.4843C13.5308 38.4109 13.511 38.3996 13.4433 38.3996" fill="black"/>
<path d="M9.9437 38.394C9.58245 38.3968 9.2212 38.394 8.85994 38.394C8.79785 38.394 8.76963 38.4081 8.74423 38.4702C8.34911 39.4947 7.95118 40.5192 7.55324 41.5465C7.5109 41.6509 7.47139 41.7581 7.42341 41.8738C7.4093 41.8372 7.40083 41.8174 7.39237 41.7976C6.96056 40.6885 6.52875 39.5765 6.09977 38.4645C6.08001 38.4109 6.05461 38.394 5.99817 38.394C5.63692 38.394 5.27567 38.394 4.91441 38.394C4.83727 38.394 4.81281 38.4288 4.84104 38.4984C5.56354 40.2877 6.28321 42.0742 7.00572 43.8635C7.01983 43.8974 7.02265 43.9397 7.05652 43.9651C7.08192 43.9369 7.11296 43.951 7.14401 43.9482C7.36132 43.9482 7.57864 43.9482 7.79595 43.9482C7.80442 43.9313 7.81571 43.9143 7.82417 43.8974C7.99915 43.4656 8.17131 43.0338 8.34629 42.5992C8.89946 41.2247 9.4498 39.8503 10.0058 38.4758C10.0368 38.3968 10.0171 38.394 9.94652 38.394" fill="black"/>
<path d="M37.9575 38.5746C37.5088 38.4137 37.0403 38.3883 36.569 38.3968C36.5153 38.3968 36.521 38.4307 36.521 38.4645C36.521 38.7919 36.521 39.1193 36.521 39.4467C36.521 39.5003 36.5379 39.5116 36.5887 39.5116C36.7609 39.5116 36.9359 39.5031 37.108 39.5285C37.5568 39.5906 37.9265 39.7825 38.1861 40.1664C38.4684 40.5869 38.5389 41.0497 38.474 41.5436C38.3893 42.1787 37.9886 42.633 37.3677 42.7883C37.1108 42.8504 36.854 42.8616 36.5915 42.8532C36.5379 42.8532 36.5182 42.8673 36.521 42.9237C36.5238 43.0846 36.521 43.2483 36.521 43.412C36.521 43.5757 36.521 43.7422 36.521 43.9087C36.521 43.9567 36.5351 43.9708 36.5831 43.9708C36.9923 43.9736 37.3987 43.9623 37.7967 43.8466C38.3131 43.6999 38.7619 43.4346 39.0949 43.014C39.5126 42.4891 39.6622 41.8682 39.6735 41.2134C39.6819 40.7788 39.5803 40.3583 39.4053 39.9604C39.1147 39.2999 38.6462 38.823 37.9575 38.5746Z" fill="black"/>
<path d="M13.4405 43.9567C12.4329 43.9567 11.4254 43.9567 10.4178 43.9567C10.3247 43.9567 10.3247 43.9567 10.3247 43.8607V38.4956C10.3247 38.4645 10.3162 38.4335 10.3332 38.4053C10.3021 38.4307 10.3191 38.4617 10.3191 38.4899C10.3191 39.0657 10.3191 39.6443 10.3191 40.22C10.3191 41.442 10.3191 42.6641 10.3191 43.8889C10.3191 43.9426 10.3191 43.9764 10.3896 43.9764C11.4141 43.9764 12.4386 43.9764 13.4631 43.9764C13.4828 43.9764 13.5167 43.9905 13.5223 43.951C13.4969 43.9651 13.4687 43.9595 13.4405 43.9595" fill="black"/>
<path d="M10.3303 43.8551C10.3303 42.0375 10.3303 40.2228 10.3303 38.4053C10.3134 38.4335 10.3219 38.4645 10.3219 38.4956C10.3219 40.2821 10.3219 42.0714 10.3219 43.8607C10.3219 43.9247 10.3529 43.9567 10.415 43.9567C11.4226 43.9567 12.4301 43.9567 13.4377 43.9567C13.4659 43.9567 13.4941 43.9651 13.5195 43.9482C12.4894 43.9482 11.4593 43.9482 10.4291 43.9482C10.3557 43.9482 10.3275 43.9369 10.3275 43.8523" fill="black"/>
<path d="M11.6004 40.6123C12.21 40.6123 12.8224 40.6123 13.432 40.6123C13.4631 40.6123 13.4941 40.6038 13.5223 40.6208C13.5139 40.5869 13.4856 40.601 13.4687 40.601C12.8168 40.601 12.1648 40.601 11.5101 40.601C11.5383 40.6179 11.5693 40.6095 11.6004 40.6095" fill="black"/>
<path d="M11.6032 40.6208C12.2438 40.6208 12.8817 40.6208 13.5195 40.6208C13.4913 40.6066 13.4602 40.6123 13.4292 40.6123C12.8196 40.6123 12.2072 40.6123 11.5975 40.6123C11.5665 40.6123 11.5355 40.6208 11.5072 40.6038C11.5326 40.6349 11.5693 40.6208 11.6004 40.6208" fill="black"/>
<path d="M11.4847 39.5568C11.4847 39.887 11.4847 40.22 11.4847 40.5502C11.4847 40.5643 11.4847 40.5784 11.4959 40.5869C11.4959 40.2313 11.4988 39.8729 11.5016 39.5173C11.4959 39.5173 11.4903 39.5229 11.4875 39.5257C11.4818 39.5342 11.4847 39.5483 11.4847 39.5568Z" fill="black"/>
<path d="M11.4762 39.5878C11.4762 39.8983 11.4762 40.2087 11.4762 40.5192C11.4762 40.5417 11.4677 40.57 11.4959 40.5869C11.4818 40.5784 11.4847 40.5643 11.4847 40.5502C11.4847 40.22 11.4847 39.887 11.4847 39.5568C11.4847 39.5455 11.4818 39.5342 11.4847 39.5257C11.4649 39.5427 11.4734 39.5681 11.4734 39.5906" fill="black"/>
<path d="M18.069 40.6038C18.0718 40.5671 18.0746 40.5276 18.0803 40.4881C18.0549 40.5248 18.0746 40.5643 18.069 40.6038Z" fill="black"/>
<path d="M18.069 40.6038C18.0718 40.5671 18.0549 40.5248 18.0803 40.4881C18.0464 40.5248 18.0577 40.5643 18.069 40.6038Z" fill="black"/>
<path d="M16.497 38.425C16.4575 38.4222 16.4208 38.4194 16.3813 38.4166C16.418 38.4448 16.4575 38.4279 16.497 38.425Z" fill="black"/>
<path d="M16.497 38.425C16.4575 38.425 16.418 38.442 16.3813 38.4166C16.418 38.4561 16.4575 38.442 16.497 38.425Z" fill="black"/>
<path d="M15.9325 41.0497C15.9325 41.0497 15.9184 41.0497 15.9128 41.0497C15.9692 41.0554 16.0257 41.078 16.0765 41.0356C16.0313 41.0582 15.9805 41.0469 15.9325 41.0469" fill="black"/>
<path d="M16.0765 41.0385C16.0285 41.0413 15.9805 41.0469 15.9325 41.0497C15.9805 41.0497 16.0285 41.061 16.0765 41.0385Z" fill="black"/>
<path d="M16.2769 39.5342C16.2486 39.4975 16.2148 39.5144 16.1809 39.5201C16.212 39.5257 16.2486 39.5088 16.2769 39.5342Z" fill="black"/>
<path d="M16.1809 39.5201C16.212 39.5257 16.2458 39.5285 16.2769 39.5342C16.2486 39.5088 16.212 39.5285 16.1809 39.5201Z" fill="black"/>
<path d="M32.4767 42.506C32.1662 42.825 31.7655 42.9463 31.3816 42.9548C30.487 42.9548 29.8435 42.4129 29.6459 41.5408C29.471 40.7675 29.8943 39.8841 30.6055 39.5681C31.407 39.2124 32.5077 39.4382 32.9085 40.5361C33.1794 41.2812 33.0298 41.9444 32.4767 42.5089M31.3393 38.3037C29.7278 38.3037 28.4267 39.585 28.4267 41.1767C28.4267 42.7713 29.7193 44.0696 31.3111 44.0696C32.9198 44.0696 34.2208 42.7911 34.2237 41.2078C34.2237 39.5822 32.9565 38.3065 31.3421 38.3037" fill="#009FAC"/>
<path d="M43.9915 21.1132C43.9915 25.8236 43.9859 30.5368 44 35.2472C44 35.6225 43.9323 35.7354 43.523 35.7298C41.7168 35.7072 39.9134 35.7185 38.1099 35.7382C37.8588 35.7382 37.7967 35.6677 37.8136 35.4447C37.8221 35.3431 37.8136 35.2387 37.8136 35.1371C37.8136 27.7258 37.8136 20.3145 37.8136 12.9061C37.8136 12.2739 37.8926 12.3586 37.2435 12.3557C36.0271 12.3501 34.8051 12.3445 33.5887 12.3557C33.3008 12.3614 33.2161 12.2739 33.2189 11.986C33.2302 10.2701 33.2274 8.55133 33.2189 6.83539C33.2189 6.61243 33.2415 6.50236 33.5209 6.50236C36.8625 6.51647 40.2012 6.5193 43.5428 6.50236C43.9238 6.50236 43.9972 6.62654 43.9972 6.97933C43.9859 11.6897 43.9887 16.4029 43.9887 21.1132" fill="#009FAC"/>
<path d="M25.2376 28.0447C23.6035 29.7127 21.5122 30.3505 19.4999 30.3929C14.8036 30.3929 11.4339 27.5593 10.3981 22.9759C9.48649 18.9288 11.702 14.289 15.4358 12.6295C19.6382 10.7583 25.4154 11.9465 27.5095 17.6983C28.9319 21.6015 28.1389 25.087 25.2404 28.0447M19.2741 6C10.8299 5.99436 4.00565 12.7226 4 21.0568C3.99436 29.4192 10.7763 36.2237 19.1161 36.2265C27.5518 36.2265 34.3732 29.5236 34.3817 21.2205C34.3902 12.7029 27.7409 6.00565 19.2741 6Z" fill="#009FAC"/>
</svg>
