<svg width="50" height="50" viewBox="0 0 50 50" fill="none" xmlns="http://www.w3.org/2000/svg">
<path d="M26.8109 14.8442C26.653 14.8158 25.8919 14.6869 25 14.6869C24.1081 14.6869 23.347 14.8151 23.1891 14.8442C23.0985 14.8605 23.0637 14.771 23.1327 14.719C23.1951 14.6724 24.9994 13.2888 24.9994 13.2888L26.8655 14.719C26.9357 14.771 26.9015 14.8605 26.8109 14.8442ZM23.6933 23.8283C23.6933 23.8283 23.5979 23.8628 23.5727 23.9474C23.9508 24.2401 24.2113 24.906 25 24.906C25.7887 24.906 26.0492 24.2401 26.4267 23.9474C26.4021 23.8622 26.3067 23.8283 26.3067 23.8283C26.3067 23.8283 25.8127 23.9456 25 23.9456C24.1873 23.9456 23.6933 23.8283 23.6933 23.8283ZM25 22.7077C24.7809 22.7077 24.7329 22.6243 24.5834 22.6249C24.4412 22.6255 24.1651 22.7398 24.1051 22.8444C24.1093 22.8976 24.1285 22.9454 24.1669 22.9877C24.4862 23.0361 24.6303 23.2151 25.0006 23.2151C25.3709 23.2151 25.5144 23.0361 25.8343 22.9877C25.8715 22.9454 25.8919 22.8982 25.8961 22.8444C25.8367 22.7398 25.56 22.6261 25.4172 22.6249C25.2671 22.6236 25.2185 22.7077 25 22.7077ZM42.9802 26.1384C42.9574 26.572 42.919 27.002 42.8661 27.4272C40.8278 27.767 40.0991 25.9371 38.011 26.029C38.1358 26.4753 38.2373 26.9301 38.3153 27.3945C40.0373 27.3933 40.7312 29.0152 42.6471 28.7763C42.5462 29.2722 42.425 29.7615 42.2851 30.2435C40.7702 30.3934 40.2366 28.8767 38.4833 28.9185C38.4977 29.17 38.5056 29.424 38.5056 29.6804L38.4983 30.1044L41.9028 31.413C41.7245 31.9011 41.5253 32.3782 41.308 32.8457C40.2846 32.7888 39.9317 31.4663 38.3747 31.5715C38.3279 31.9108 38.2685 32.2458 38.1976 32.5766C39.5499 32.481 39.841 33.7353 40.8098 33.8369C40.5631 34.2904 40.2972 34.7319 40.0145 35.1619C39.4407 34.8522 38.9431 33.9179 37.8549 33.8605C37.9666 33.5133 38.0644 33.1614 38.1472 32.8034C37.1821 32.8034 36.0783 32.4242 35.1527 31.5751C35.4528 29.854 32.8017 28.1014 32.8017 26.8412C32.8017 25.472 33.4889 24.7143 33.4889 22.8686C33.4889 21.4988 32.8287 20.013 31.8329 18.9976C31.6402 18.8004 31.4428 18.6408 31.2159 18.4975C32.1306 19.638 32.8329 20.9902 32.8329 22.5565C32.8329 24.2946 32.0304 25.212 32.0304 26.8164C32.0304 28.4201 34.3592 29.808 34.3592 31.462C34.3592 32.1127 34.1528 32.7483 33.4721 33.9965C34.5177 35.0488 35.8796 35.6227 36.7583 35.6227C37.0434 35.6227 37.1965 35.535 37.2985 35.3094C37.3861 35.1147 37.4696 34.9176 37.5482 34.7186C38.4947 34.7555 38.9281 35.6221 39.4521 35.968C39.1646 36.3569 38.8627 36.7324 38.5464 37.0959C38.1952 36.704 37.7235 36.0448 37.0326 35.8616C36.909 36.1035 36.7781 36.3423 36.6407 36.5764C37.2355 36.7397 37.6424 37.3444 37.9576 37.7423C37.6178 38.0967 37.2643 38.4366 36.8964 38.7631C36.6665 38.4027 36.3087 37.9455 35.9078 37.6988C35.7595 37.9008 35.6053 38.0979 35.4462 38.2896C35.7872 38.5225 36.0879 38.9415 36.2841 39.2832C35.8592 39.6267 35.4198 39.9527 34.9649 40.2575C34.7404 38.4148 32.2441 37.1521 32.9169 35.0143C32.696 35.3911 32.4325 35.8622 32.4325 36.4294C32.4325 37.977 34.0687 39.2052 34.199 40.7431C33.8598 40.9475 33.5129 41.1398 33.1594 41.3218C33.1006 39.6316 31.3683 37.7816 31.3683 36.3943C31.3683 34.8456 33.3815 33.2902 33.3815 31.462C33.3815 29.6327 31.0586 28.3663 31.0586 26.7601C31.0586 25.1551 32.0466 24.2317 32.0466 22.1743C32.0466 20.6673 31.3359 19.1421 30.2381 18.1679C30.0436 17.9949 29.8522 17.8576 29.6223 17.7373C30.6577 18.9885 31.2579 20.1236 31.2579 21.8459C31.2579 23.7805 30.1259 24.8546 30.1259 26.7486C30.1259 28.6433 32.4055 29.6968 32.4055 31.4626C32.4055 33.2285 30.2837 34.7168 30.2837 36.531C30.2837 38.1814 32.154 39.8287 32.1816 41.7869C31.7729 41.9665 31.3563 42.1304 30.9326 42.2791C31.1703 40.301 29.0653 38.2606 29.0653 36.6465C29.0653 34.8819 31.2663 33.3652 31.2663 31.4626C31.2663 29.5589 29.0287 28.6741 29.0287 26.7202C29.0287 24.7675 30.4014 23.6862 30.4014 21.5284C30.4014 19.8466 29.5773 18.3342 28.3732 17.3968C28.2868 17.331 28.0296 17.281 28.1704 17.4567C29.0227 18.5289 29.4782 19.6132 29.4782 21.2188C29.4782 23.1927 27.9015 24.7965 27.9015 26.7087C27.9015 28.9656 30.019 29.6109 30.019 31.4626C30.019 33.3138 27.7484 34.7948 27.7484 36.7602C27.7484 38.5829 29.8972 40.6058 29.5287 42.7097C29.0977 42.8222 28.6607 42.9202 28.2172 43C28.6205 40.3802 26.5126 38.4989 26.5126 36.785C26.5126 34.9296 28.8642 33.2757 28.8642 31.4626C28.8642 29.7524 27.1764 29.1936 26.9543 27.4441C26.9237 27.2052 26.7334 27.028 26.4711 27.0722C25.343 27.2792 24.6538 27.2768 23.5259 27.0722C23.2642 27.0286 23.0739 27.2058 23.0433 27.4441C22.8218 29.1936 21.1328 29.7518 21.1328 31.4626C21.1328 33.2757 23.485 34.929 23.485 36.785C23.485 38.4989 21.3771 40.3802 21.7798 43C21.3369 42.9196 20.8993 42.8216 20.4683 42.7097C20.0998 40.6058 22.2492 38.5829 22.2492 36.7602C22.2492 34.7948 19.978 33.3138 19.978 31.4626C19.978 29.6109 22.0961 28.9656 22.0961 26.7087C22.0961 24.7965 20.5188 23.1933 20.5188 21.2188C20.5188 19.6138 20.9743 18.5295 21.8272 17.4567C21.967 17.2809 21.7108 17.3305 21.6244 17.3968C20.4215 18.3318 19.598 19.8442 19.598 21.526C19.598 23.6838 20.9707 24.7651 20.9707 26.7178C20.9707 28.6711 18.7331 29.5559 18.7331 31.4602C18.7331 33.3627 20.9341 34.8795 20.9341 36.6441C20.9341 38.2588 18.8291 40.2986 19.0674 42.2767C18.6431 42.128 18.2265 41.9635 17.8178 41.7845C17.846 39.8263 19.7151 38.1784 19.7151 36.5286C19.7151 34.7144 17.5945 33.2261 17.5945 31.4602C17.5945 29.6944 19.8729 28.6409 19.8729 26.7462C19.8729 24.8521 18.7415 23.7781 18.7415 21.8435C18.7415 20.1212 19.3411 18.9861 20.3765 17.7349C20.146 17.8552 19.9552 17.9925 19.7613 18.1655C18.6635 19.1397 17.9534 20.6649 17.9534 22.1719C17.9534 24.2293 18.9414 25.1527 18.9414 26.7577C18.9414 28.3639 16.6185 29.6302 16.6185 31.4596C16.6185 33.2878 18.6317 34.8438 18.6317 36.3919C18.6317 37.7798 16.8982 39.6297 16.84 41.3194C16.4865 41.1374 16.1396 40.9451 15.8004 40.7407C15.9313 39.2028 17.5669 37.9746 17.5669 36.427C17.5669 35.8598 17.304 35.3887 17.0825 35.0119C17.7553 37.1497 15.259 38.4124 15.0345 40.2551C14.5796 39.9503 14.1396 39.6243 13.7153 39.2808C13.9109 38.9397 14.2116 38.52 14.5532 38.2872C14.3935 38.0961 14.2399 37.8984 14.0916 37.6964C13.6901 37.9431 13.3317 38.4003 13.1024 38.7607C12.7357 38.4348 12.3816 38.0943 12.0418 37.7399C12.357 37.342 12.7639 36.7372 13.3587 36.574C13.2213 36.3399 13.0904 36.1016 12.9668 35.8591C12.2759 36.0424 11.8036 36.7016 11.453 37.0934C11.1367 36.7294 10.8342 36.3538 10.5473 35.9656C11.0713 35.6197 11.5047 34.7525 12.4506 34.7162C12.5298 34.9145 12.6133 35.1117 12.7009 35.307C12.8029 35.5326 12.9566 35.6203 13.2411 35.6203C14.1198 35.6203 15.4811 35.0464 16.5273 33.9941C15.8466 32.7459 15.6402 32.1103 15.6402 31.4596C15.6402 29.8062 17.969 28.4183 17.969 26.8139C17.969 25.2095 17.1665 24.2921 17.1665 22.5541C17.1665 20.9878 17.8688 19.6356 18.7835 18.495C18.5566 18.6384 18.3592 18.798 18.1665 18.9952C17.1707 20.0111 16.5105 21.4964 16.5105 22.8661C16.5105 24.7118 17.1983 25.4696 17.1983 26.8387C17.1983 28.099 14.5466 29.8516 14.8467 31.5727C13.9211 32.4218 12.8173 32.8009 11.8516 32.8009C11.9356 33.1589 12.0334 33.5109 12.1439 33.858C11.0563 33.9161 10.5587 34.8504 9.98429 35.1595C9.70099 34.7295 9.43569 34.288 9.189 33.8344C10.1572 33.7329 10.4489 32.4786 11.8018 32.5742C11.7309 32.2434 11.6709 31.9077 11.6241 31.5691C10.0671 31.4638 9.7142 32.787 8.69082 32.8433C8.47354 32.3758 8.27427 31.8987 8.096 31.4106L11.5011 30.102L11.4938 29.678C11.4938 29.4216 11.5017 29.1676 11.5155 28.916C9.76221 28.8749 9.22862 30.391 7.71366 30.241C7.57441 29.7591 7.45257 29.2704 7.35233 28.7739C9.26703 29.0128 9.96149 27.3909 11.6841 27.3921C11.7621 26.9276 11.8636 26.4729 11.9878 26.0266C9.89966 25.9352 9.171 27.7652 7.13325 27.4247C7.07983 26.9996 7.04202 26.5696 7.01921 26.136C9.38828 26.4027 10.2766 24.4403 12.4338 24.6804C12.6373 24.1609 12.8738 23.6584 13.1403 23.1746C10.4357 22.6956 9.51732 24.9743 7 24.6242C7.2719 14.8448 15.2266 7 25 7C34.7734 7 42.7281 14.8448 43 24.6266C40.4821 24.9767 39.5637 22.6986 36.8597 23.177C37.1256 23.6608 37.3621 24.1633 37.5662 24.6828C39.7222 24.4421 40.6105 26.4051 42.9802 26.1384ZM17.2596 18.5289C15.9337 17.9828 14.3287 18.1086 12.9578 18.9958C12.7453 17.7107 12.0533 16.5689 11.0677 15.8801C10.9314 15.7852 10.7898 15.8753 10.8024 16.0343C11.0107 18.7496 9.43509 21.1075 7.49758 23.18C9.49451 23.7848 11.1943 21.194 13.7843 22.0981C14.7134 20.7042 15.8935 19.4929 17.2596 18.5289ZM25 16.8864C23.3284 16.8864 21.9281 17.8389 21.5613 19.0695C21.5331 19.1639 21.5715 19.225 21.6796 19.176C21.9803 19.0399 22.3224 18.9746 22.694 18.9746C23.3758 18.9746 23.9766 19.2268 24.332 19.6658C24.4892 20.1883 24.5024 20.9449 24.3248 21.3767C24.0438 21.3132 23.943 21.0942 23.6687 21.0942C23.3944 21.0942 23.1819 21.2884 22.7168 21.2884C22.2522 21.2884 22.1976 21.067 21.8921 21.067C21.5325 21.067 21.4665 21.4402 21.4665 21.8611C21.4665 23.7376 23.1783 26.3199 24.9994 26.3199C26.8199 26.3199 28.5317 23.7376 28.5317 21.8611C28.5317 21.4402 28.4459 21.0797 28.0701 21.0307C27.8829 21.1668 27.7106 21.2884 27.282 21.2884C26.8169 21.2884 26.6884 21.0942 26.4147 21.0942C26.084 21.0942 26.117 21.797 25.7245 21.8363C25.4628 21.2025 25.4502 20.3897 25.6674 19.6658C26.0234 19.2268 26.6236 18.9746 27.3054 18.9746C27.677 18.9746 28.0215 19.0405 28.3192 19.176C28.4279 19.225 28.4657 19.1633 28.4375 19.0695C28.0713 17.8389 26.6716 16.8864 25 16.8864ZM27.6614 19.5787C27.2604 19.5787 26.7905 19.7027 26.4951 20.0341C26.4645 20.1242 26.4645 20.2585 26.5078 20.348C27.2346 20.097 27.8757 20.0873 28.1854 20.4363C28.3504 20.2851 28.4032 20.149 28.4032 19.9912C28.4032 19.7475 28.1572 19.5787 27.6614 19.5787ZM21.8146 20.4363C22.1652 20.0825 22.904 20.0976 23.6717 20.3831C23.7053 19.9984 23.0217 19.5781 22.3386 19.5781C21.8422 19.5781 21.5968 19.7469 21.5968 19.9912C21.5968 20.149 21.6496 20.2857 21.8146 20.4363ZM33.3353 14.084C32.0154 14.179 30.869 14.6355 29.9416 15.3963C30.3354 14.2715 30.8353 13.2876 31.4692 12.3339C29.7886 12.5135 28.3834 13.1327 27.3583 14.1911L26.5558 12.0714L28.3372 10.4864L25.9519 10.3164L25 8.08129L24.0475 10.3164L21.6622 10.4864L23.4436 12.0714L22.6417 14.1911C21.616 13.1327 20.2108 12.5135 18.5314 12.3339C19.1641 13.2882 19.664 14.2721 20.0578 15.3963C19.131 14.6349 17.9846 14.1784 16.6647 14.084C17.4564 15.1097 18.1581 16.203 18.6779 17.3787C18.7367 17.5111 18.8628 17.5547 18.999 17.4863C20.8069 16.581 22.844 16.0718 24.9994 16.0718C27.1548 16.0718 29.1913 16.5816 31.0004 17.4863C31.1367 17.5547 31.2627 17.5111 31.3209 17.3787C31.8413 16.203 32.543 15.1097 33.3353 14.084ZM36.2169 22.0993C38.8057 21.1952 40.5061 23.7854 42.503 23.1812C40.5655 21.1088 38.9905 18.7508 39.1988 16.0355C39.2114 15.8765 39.0692 15.7858 38.9335 15.8813C37.9473 16.5701 37.2553 17.7119 37.0434 18.997C35.6719 18.1098 34.0675 17.9834 32.7416 18.5301C34.1059 19.4929 35.2866 20.7042 36.2169 22.0993Z" fill="#006241"/>
</svg>
