<svg width="50" height="50" viewBox="0 0 50 50" fill="none" xmlns="http://www.w3.org/2000/svg">
<path d="M33.1615 9.18698C33.6438 8.89618 34.271 8.94455 34.6568 9.33228L41.6978 16.3598C42.5176 17.2322 43 18.3956 43 19.5588V30.8994C43 32.0626 42.5176 33.2261 41.6978 34.0984L34.1746 41.6589C33.837 41.9981 33.3064 42.0951 32.8723 41.9012L9.48227 32.0628C9.19291 31.9174 9 31.6263 9 31.2871V26.0529C9.00002 25.8106 9.09659 25.52 9.33768 25.3746L11.8456 23.6784V31.8687H15.9929V26.9252H17.1505C17.7292 26.9252 18.3561 27.0707 18.5008 27.6521L19.7065 31.1905C19.7548 31.5781 20.0922 31.8687 20.4779 31.8687H27.7605L28.725 29.3002H33.5477L34.078 30.7541C34.3674 31.3841 34.9943 31.8204 35.6694 31.8205H38.9973L33.5957 18.2984H29.5445C29.1587 18.2985 28.7246 18.5894 28.58 18.9771L23.9984 30.5601L22.9378 27.3133C22.8895 27.1194 22.7928 26.8767 22.6481 26.6828C22.2141 26.1498 21.6355 25.7136 20.7676 25.5682V25.5199C22.6483 25.326 23.7573 24.0173 23.7573 21.9333C23.7572 19.5586 22.214 18.4925 19.658 18.3471L33.1615 9.18698Z" fill="#CD163F"/>
<path d="M32.5347 26.2957H29.7856L31.1844 22.4667L32.5347 26.2957Z" fill="#CD163F"/>
<path d="M17.7774 21.2068C18.6454 21.2068 19.4653 21.4005 19.4653 22.612C19.4653 23.9691 18.5972 24.1144 17.6809 24.066H15.9929V21.2068H17.7774Z" fill="#CD163F"/>
<path d="M17.3172 18.136L31.8969 7.48C32.0907 7.336 31.9938 7 31.7516 7H19.7875C18.4313 7 17.075 7.528 16.1063 8.488L8.50157 16.024C7.53281 16.984 7 18.328 7 19.672V30.328C7 31.72 7.53281 33.016 8.50157 33.976L16.1063 41.512C17.075 42.472 18.4313 43 19.7875 43H30.1047C30.3954 43 30.4922 42.616 30.2016 42.472L9.71251 32.92C8.84063 32.536 8.30782 31.672 8.30782 30.712V25.624C8.30782 25.096 8.55 24.568 8.98594 24.28L11.9406 22.12V18.184L17.3172 18.136Z" fill="url(#paint0_linear_13125_44)"/>
<defs>
<linearGradient id="paint0_linear_13125_44" x1="13.1807" y1="40.0131" x2="32.0016" y2="7.11718" gradientUnits="userSpaceOnUse">
<stop offset="0.28" stop-color="#CD163F"/>
<stop offset="0.9" stop-color="#F58025"/>
</linearGradient>
</defs>
</svg>
