<svg width="50" height="50" viewBox="0 0 50 50" fill="none" xmlns="http://www.w3.org/2000/svg">
<path d="M25.5372 4.50146C36.6495 4.50146 45.5385 13.4559 45.4992 24.6803C45.4607 35.7091 36.3983 44.5972 25.2672 44.5228C14.3947 44.45 5.49509 35.475 5.5 24.4512C5.50491 13.4109 14.4536 4.50146 25.5372 4.50146Z" fill="black"/>
<path d="M31.685 19.8834C31.73 19.9129 31.7742 19.9423 31.8192 19.971C32.455 19.3728 33.0908 18.7747 33.7258 18.1765C34.3738 18.9334 34.4909 19.71 34.0252 20.5577C33.5272 21.4633 32.7709 22.2013 32.1956 23.0543C31.6686 23.8341 31.6784 24.6327 32.1956 25.4232C32.4337 25.7873 32.6923 26.1425 32.8911 26.5271C33.076 26.8855 33.1939 27.2774 33.342 27.6546C33.3158 27.6636 33.2888 27.6726 33.2626 27.6817C30.9135 25.9433 34.0225 29.2739 33.3011 30.9556C33.0541 30.7216 32.3048 29.7406 32.0156 29.9589C32.8085 31.6544 33.2651 33.4129 33.1325 35.299C32.8669 35.0713 31.7991 33.8973 31.5287 34.1117C31.7791 36.3333 31.757 38.5452 31.3658 40.7832C31.1817 40.6367 31.0418 40.5246 30.8176 40.3454C30.8994 40.9051 30.9649 41.3527 31.032 41.8076C37.111 39.9812 43.4085 33.8147 43.6834 24.9347C43.9346 16.8337 38.4841 9.33742 30.5893 7.04542C22.5546 4.71577 13.9782 8.15337 9.77633 15.3902C5.8404 22.1697 7.11774 29.8599 10.3442 34.3474C11.4882 33.6641 12.628 32.9825 13.7532 32.3107C13.502 32.2714 13.2017 32.2239 12.8236 32.165C14.9708 30.562 16.9486 28.8993 17.919 26.4387C17.203 25.9559 16.51 25.5492 15.8881 25.0533C15.2482 24.5435 14.8595 23.8505 14.7466 23.0101C16.6645 22.6305 18.0464 22.7283 19.6652 21.3441C20.3477 20.7606 21.022 20.1666 21.715 19.5962C22.9343 18.5922 24.3082 17.9155 25.8744 17.6291C26.9759 17.4268 28.04 15.0961 28.6352 14.2815C28.9406 13.8637 29.0004 13.2127 29.6155 13.1555C29.9658 13.1236 30.3176 13.0418 30.5713 13.4125C31.0083 14.0524 31.4428 14.6963 31.9165 15.3092C32.626 16.2273 32.7512 17.1774 32.2569 18.2403C32.116 18.5436 31.685 19.8834 31.685 19.8834Z" fill="black"/>
<path d="M23.6822 28.5294C22.6644 34.3831 27.5466 33.0696 26.4643 40.2341C27.4667 39.2661 27.9266 38.145 28.303 36.9176C29.0542 37.3243 29.6049 37.8578 30.077 38.4879C30.4084 36.868 29.722 31.9603 31.1122 32.4424C31.284 30.8353 30.9264 29.3829 30.4175 27.842C30.87 27.982 31.2218 28.0916 31.6072 28.2111C31.3503 27.2291 30.6089 26.6711 29.8046 26.1146C30.3463 25.9281 30.8004 25.7726 31.3544 25.5819C31.0655 25.2023 30.87 24.8717 30.6032 24.6172C30.37 24.3963 30.3757 24.2269 30.5312 23.9896C30.8511 23.5002 31.1457 22.9945 31.4763 22.5126C31.9296 21.8514 32.4173 21.2131 32.8666 20.5487C33.0499 20.277 33.2062 19.971 33.0679 19.5414C31.9861 20.3278 31.3707 21.5928 30.0067 22.1501C30.1662 21.4684 30.2693 20.8662 30.4526 20.2893C30.6916 19.5389 31.0222 18.818 31.2595 18.0668C31.365 17.7322 31.4788 17.2903 31.347 17.0121C31.0254 16.3337 30.5721 15.7159 30.1523 15.0867C29.9936 14.8494 29.7784 14.8895 29.6123 15.0998C29.3431 15.441 29.0632 15.7773 28.83 16.1431C28.0379 17.3852 27.1378 18.5406 26.1428 19.6281C25.5282 20.2999 24.9325 20.9947 24.3908 21.7246C23.989 22.2663 23.6715 22.8734 23.3524 23.47C22.6684 24.7524 24.2092 23.6815 24.5569 24.001C22.6618 25.5058 22.2166 27.4812 22.5841 29.7822C22.9752 29.3354 23.3295 28.932 23.6822 28.5294Z" fill="black"/>
<path d="M23.6822 28.932C23.3287 29.3354 22.976 29.7388 22.5849 30.1848C22.2175 27.8838 22.6626 25.9084 24.5577 24.4036C24.5275 24.3758 24.4964 24.3472 24.4661 24.3193C24.0545 24.4249 23.6429 24.5296 23.147 24.6565C23.219 24.3684 23.2346 24.0935 23.3532 23.8725C23.8834 22.8802 29.706 14.8209 30.1531 15.4893C30.5729 16.1185 31.0263 16.7363 31.3478 17.4147C31.4796 17.6929 31.3658 18.1348 31.2603 18.4694C31.023 19.2198 30.6924 19.9415 30.4535 20.6919C30.2693 21.2688 30.1671 21.871 30.0075 22.5527C31.3716 21.9954 31.9877 20.7304 33.0687 19.944C33.207 20.3728 33.0507 20.6796 32.8674 20.9513C32.4181 21.6157 31.9305 22.2532 31.4771 22.9152C31.1474 23.3971 30.852 23.9028 30.532 24.3922C30.3765 24.6303 30.3708 24.7988 30.604 25.0198C30.8716 25.2743 31.0664 25.6049 31.3552 25.9845C30.8004 26.1752 30.3471 26.3307 29.8054 26.5172C30.6089 27.0737 31.3511 27.6317 31.6081 28.6137C31.2226 28.4942 30.8708 28.3854 30.4183 28.2446C30.9281 29.7855 31.2857 31.2379 31.113 32.845C30.8299 32.7468 30.5958 32.6658 30.2734 32.5537C30.6883 34.6804 30.5132 36.7621 30.0779 38.8905C29.6065 38.2604 29.055 37.7269 28.3038 37.3202C27.9274 38.5476 27.4667 39.6687 26.4652 40.6367C26.8743 37.9282 26.8244 35.3833 25.615 32.8368C25.376 33.3302 25.1821 33.7312 24.9882 34.133C23.5979 33.6003 23.1749 31.8508 23.6822 28.932Z" fill="white"/>
<path d="M31.685 19.8834C31.8715 19.3344 32.0123 18.7632 32.2553 18.2395C32.7487 17.1766 32.6244 16.2265 31.9149 15.3084C31.4411 14.6955 31.0066 14.0515 30.5697 13.4116C30.316 13.041 29.9641 13.122 29.6139 13.1547C29.28 13.185 29.0747 13.3576 28.9585 13.6784C28.8815 13.8912 28.7678 14.0974 28.6336 14.2807C28.0383 15.0953 26.9742 17.426 25.8727 17.6282C24.3065 17.9146 22.9326 18.5914 21.7134 19.5954C21.0203 20.1666 20.3461 20.7598 19.6636 21.3432C18.0464 22.7269 16.6632 22.6335 14.7449 23.0093C14.8579 23.8496 15.2465 24.5427 15.8864 25.0525C16.5083 25.5484 17.2014 25.9551 17.9174 26.4379C16.9469 28.8984 14.97 30.5612 12.822 32.1642C13.1992 32.2231 13.5003 32.2706 13.7515 32.3098C12.6264 32.9817 11.4865 33.6633 10.3426 34.3465C7.1161 29.8591 5.83958 22.1689 9.77469 15.3894C13.9782 8.15337 22.5546 4.71577 30.5893 7.04787C38.4849 9.33988 43.9346 16.8353 43.6834 24.9371C43.4085 33.8171 37.1102 39.9829 31.032 41.8101C30.9657 41.3551 30.8994 40.9075 30.8176 40.3478C31.041 40.5262 31.1817 40.6383 31.3658 40.7856C31.7578 38.5484 31.7799 36.3366 31.5287 34.1142C31.7993 33.8996 32.867 35.0736 33.1325 35.3015C33.2651 33.4153 32.8076 31.656 32.0156 29.9614C32.3048 29.7431 33.0541 30.724 33.3011 30.958C33.657 30.1283 33.2225 28.6235 32.1571 26.8658C32.3786 27.0297 33.0857 27.7452 33.342 27.6571C33.1947 27.2799 33.076 26.8871 32.8911 26.5295C32.6923 26.1441 32.4337 25.7898 32.1956 25.4256C31.6784 24.6352 31.6678 23.8357 32.1956 23.0567C32.7724 22.2054 33.5288 21.466 34.0253 20.5601C34.4909 19.7124 34.3738 18.9367 33.7258 18.1789C33.0908 18.7763 32.455 19.3745 31.8192 19.9734C31.8006 19.9613 31.685 19.9017 31.685 19.8834Z" fill="white"/>
<path d="M23.6822 28.932C23.3287 29.3354 22.976 29.7388 22.5849 30.1848C22.2175 27.8838 22.6626 25.9084 24.5577 24.4036C24.5275 24.3758 24.4964 24.3472 24.4661 24.3193C24.0545 24.4249 23.6429 24.5296 23.147 24.6565C23.219 24.3684 23.2346 24.0935 23.3532 23.8725C23.8834 22.8802 29.706 14.8209 30.1531 15.4893C30.5729 16.1185 31.0263 16.7363 31.3478 17.4147C31.4796 17.6929 31.3658 18.1348 31.2603 18.4694C31.023 19.2198 30.6924 19.9415 30.4535 20.6919C30.2693 21.2688 30.1671 21.871 30.0075 22.5527C31.3716 21.9954 31.9877 20.7304 33.0687 19.944C33.207 20.3728 33.0507 20.6796 32.8674 20.9513C32.4181 21.6157 31.9305 22.2532 31.4771 22.9152C31.1474 23.3971 30.852 23.9028 30.532 24.3922C30.3765 24.6303 30.3708 24.7988 30.604 25.0198C30.8716 25.2743 31.0664 25.6049 31.3552 25.9845C30.8004 26.1752 30.3471 26.3307 29.8054 26.5172C30.6089 27.0737 31.3511 27.6317 31.6081 28.6137C31.2226 28.4942 30.8708 28.3854 30.4183 28.2446C30.9281 29.7855 31.2857 31.2379 31.113 32.845C30.8299 32.7468 30.5958 32.6658 30.2734 32.5537C30.6883 34.6804 30.5132 36.7621 30.0779 38.8905C29.6065 38.2604 29.055 37.7269 28.3038 37.3202C27.9274 38.5476 27.4667 39.6687 26.4652 40.6367C26.8743 37.9282 26.8244 35.3833 25.615 32.8368C25.376 33.3302 25.1821 33.7312 24.9882 34.133C23.5979 33.6003 23.1749 31.8508 23.6822 28.932Z" fill="white"/>
<mask id="mask0_9176_16233" style="mask-type:luminance" maskUnits="userSpaceOnUse" x="22" y="15" width="12" height="26">
<path d="M23.6822 28.9321C23.3287 29.3355 22.976 29.7389 22.5849 30.1848C22.2175 27.8838 22.6626 25.9085 24.5577 24.4037C24.5275 24.3759 24.4964 24.3472 24.4661 24.3194C24.0545 24.425 23.6429 24.5297 23.147 24.6565C23.219 24.3685 23.2346 24.0936 23.3532 23.8726C23.6724 23.2753 23.9907 22.6681 24.3916 22.1272C24.9333 21.3965 25.529 20.7018 26.1436 20.0308C27.1386 18.9433 28.0379 17.7887 28.8308 16.5457C29.064 16.18 29.3439 15.8445 29.6131 15.5024C29.7792 15.2913 29.9944 15.252 30.1531 15.4893C30.5729 16.1186 31.0262 16.7364 31.3478 17.4147C31.4796 17.693 31.3658 18.1348 31.2603 18.4695C31.023 19.2199 30.6924 19.9416 30.4534 20.692C30.2693 21.2688 30.167 21.8711 30.0075 22.5527C31.3716 21.9955 31.9877 20.7304 33.0687 19.9441C33.207 20.3728 33.0507 20.6797 32.8674 20.9514C32.4181 21.6158 31.9304 22.2532 31.4771 22.9152C31.1473 23.3972 30.852 23.9029 30.532 24.3922C30.3765 24.6303 30.3708 24.7989 30.604 25.0199C30.8716 25.2743 31.0663 25.6049 31.3552 25.9846C30.8004 26.1753 30.3471 26.3307 29.8054 26.5173C30.6089 27.0737 31.3511 27.6318 31.608 28.6137C31.2226 28.4943 30.8708 28.3854 30.4183 28.2447C30.928 29.7855 31.2856 31.238 31.113 32.8451C30.8299 32.7469 30.5958 32.6659 30.2734 32.5538C30.6883 34.6805 30.5132 36.7622 30.0779 38.8905C29.6065 38.2605 29.055 37.7269 28.3038 37.3203C27.9274 38.5477 27.4667 39.6687 26.4651 40.6367C26.8743 37.9282 26.8244 35.3834 25.615 32.8369C25.376 33.3303 25.1821 33.7313 24.9882 34.133C23.5979 33.6003 23.1757 31.8509 23.683 28.9321H23.6822Z" fill="white"/>
</mask>
<g mask="url(#mask0_9176_16233)">
<path d="M30.5189 15.678L28.6515 19.1279C28.316 19.7465 28.0395 20.3954 27.8243 21.0655C26.8382 24.1308 26.4643 27.3573 26.7212 30.5625C26.8039 31.5976 26.9945 32.6205 27.2752 33.6204L28.3701 37.5122L31.0737 40.2845V33.6998L32.3903 34.0468L31.0737 29.403L32.3903 29.5413V28.2934L30.7963 26.3525L31.9746 26.6994L31.0737 24.4189L33.9851 20.3921L33.5694 19.2138L31.7676 21.0852L31.9754 16.9954L30.5197 15.6788L30.5189 15.678Z" fill="url(#paint0_linear_9176_16233)"/>
</g>
<defs>
<linearGradient id="paint0_linear_9176_16233" x1="33.918" y1="22.5736" x2="25.6934" y2="36.8191" gradientUnits="userSpaceOnUse">
<stop stop-color="#F0F0FC"/>
<stop offset="0.23" stop-color="#C4C4F6"/>
<stop offset="0.45" stop-color="#A0A2F1"/>
<stop offset="0.66" stop-color="#8789ED"/>
<stop offset="0.85" stop-color="#787AEB"/>
<stop offset="1" stop-color="#7375EB"/>
</linearGradient>
</defs>
</svg>
