<svg width="50" height="50" viewBox="0 0 50 50" fill="none" xmlns="http://www.w3.org/2000/svg">
<path d="M20.8958 31.6965V19.7615H24.0381V27.4927C25.8327 26.5819 28.2345 24.654 28.2345 20.8822C28.2345 20.0271 28.9494 19.3123 29.8045 19.3123C30.6596 19.3123 31.3744 20.0271 31.3744 20.8822C31.3852 26.7703 26.4387 30.9962 20.8958 31.6965Z" fill="#3668FF"/>
<path d="M30.6613 11.7073C27.4179 10.3316 23.7835 10.1892 20.4425 11.307C13.6174 13.5903 9.44277 20.8156 10.8733 27.8689C12.3039 34.9222 18.9636 39.95 26.139 39.3938C33.3144 38.8377 39.1198 32.8436 39.4464 25.6541C39.6062 22.1347 38.4737 18.6783 36.2622 15.9358C37.5312 15.706 38.542 14.668 38.7381 13.3933C44.5348 19.9508 44.2532 30.2791 38.593 36.7996C33.2143 42.9958 24.0355 44.7583 16.7444 40.9951C9.45318 37.2318 5.57281 28.7289 7.50772 20.7553C9.44263 12.7816 16.7886 7.00291 24.9937 7C27.3847 7 29.7581 7.46898 31.9621 8.40702C32.72 8.71064 33.4926 9.41415 33.3148 10.6286C33.3148 10.641 33.0285 12.5318 30.6613 11.7073Z" fill="#3668FF"/>
</svg>
