<svg width="50" height="50" viewBox="0 0 50 50" fill="none" xmlns="http://www.w3.org/2000/svg">
<path d="M20.9006 9H14.9379L5 19L14.9379 29H20.9006L12.9503 21.25H22.8882V29H27.3602V21.25H37.0497L29.3478 29H35.0621L45 19L35.0621 9H29.3478L37.0497 16.75H27.3602V9H22.8882V16.75H12.9503L20.9006 9Z" fill="#EB0000"/>
<path d="M30.5195 36.5V44H29.6113V36.5H30.5195Z" fill="#1C1D1F"/>
<path fill-rule="evenodd" clip-rule="evenodd" d="M27.1797 46.0312V43.5145C27.0191 43.689 26.8287 43.8264 26.6084 43.9268C26.3545 44.0407 26.0599 44.0977 25.7246 44.0977C25.3991 44.0977 25.1061 44.0309 24.8457 43.8975C24.5885 43.764 24.3688 43.5768 24.1865 43.3359C24.0075 43.0951 23.8691 42.8118 23.7715 42.4863C23.6771 42.1576 23.6299 41.8011 23.6299 41.417V41.3145C23.6299 40.9108 23.6771 40.5446 23.7715 40.2158C23.8659 39.8838 24.0042 39.599 24.1865 39.3613C24.3688 39.1237 24.5885 38.9414 24.8457 38.8145C25.1061 38.6842 25.4023 38.6191 25.7344 38.6191C26.0664 38.6191 26.3577 38.6777 26.6084 38.7949C26.845 38.9011 27.0478 39.0539 27.2165 39.2534L27.2578 38.7168H28.0879V46.0312H27.1797ZM26.6963 43.1602C26.8981 43.0299 27.0592 42.859 27.1797 42.6475V40.0543C27.1254 39.9655 27.0636 39.8826 26.9941 39.8057C26.8737 39.6689 26.7272 39.5615 26.5547 39.4834C26.3854 39.402 26.1868 39.3613 25.959 39.3613C25.7116 39.3613 25.4984 39.4134 25.3193 39.5176C25.1403 39.6217 24.9922 39.765 24.875 39.9473C24.7611 40.1263 24.6764 40.333 24.6211 40.5674C24.5658 40.8018 24.5381 41.0508 24.5381 41.3145V41.417C24.5381 41.6807 24.5658 41.9297 24.6211 42.1641C24.6764 42.3952 24.7611 42.6003 24.875 42.7793C24.9922 42.9583 25.1387 43.0999 25.3145 43.2041C25.4935 43.305 25.7051 43.3555 25.9492 43.3555C26.2487 43.3555 26.4977 43.2904 26.6963 43.1602Z" fill="#1C1D1F"/>
<path d="M21.6768 42.2373C21.7354 42.348 21.7646 42.4684 21.7646 42.5986C21.7646 42.7451 21.7207 42.8753 21.6328 42.9893C21.5449 43.1032 21.4163 43.1927 21.2471 43.2578C21.0811 43.3229 20.8743 43.3555 20.627 43.3555C20.4414 43.3555 20.2542 43.3262 20.0654 43.2676C19.8766 43.2057 19.7171 43.1032 19.5869 42.96C19.4567 42.8135 19.3851 42.6165 19.3721 42.3691H18.4639C18.4639 42.6621 18.5469 42.9404 18.7129 43.2041C18.8789 43.4678 19.123 43.6826 19.4453 43.8486C19.7676 44.0146 20.1615 44.0977 20.627 44.0977C20.9362 44.0977 21.2145 44.0602 21.4619 43.9854C21.7126 43.9072 21.9274 43.7998 22.1064 43.6631C22.2887 43.5231 22.4271 43.3571 22.5215 43.165C22.6191 42.973 22.668 42.7614 22.668 42.5303C22.668 42.2471 22.5996 42.0062 22.4629 41.8076C22.3262 41.609 22.1178 41.4414 21.8379 41.3047C21.5579 41.168 21.2015 41.0508 20.7686 40.9531C20.5212 40.8978 20.3177 40.8424 20.1582 40.7871C19.9987 40.7318 19.875 40.6732 19.7871 40.6113C19.6992 40.5462 19.6374 40.4762 19.6016 40.4014C19.569 40.3232 19.5527 40.2354 19.5527 40.1377C19.5527 40.0075 19.5869 39.8838 19.6553 39.7666C19.7269 39.6494 19.8392 39.5534 19.9922 39.4785C20.1484 39.4004 20.3519 39.3613 20.6025 39.3613C20.8402 39.3613 21.0404 39.4069 21.2031 39.498C21.3691 39.5892 21.4945 39.7048 21.5791 39.8447C21.667 39.9814 21.7109 40.123 21.7109 40.2695H22.6143C22.6143 39.9668 22.5345 39.6917 22.375 39.4443C22.2155 39.1937 21.986 38.9935 21.6865 38.8438C21.387 38.694 21.0257 38.6191 20.6025 38.6191C20.3063 38.6191 20.0378 38.6598 19.7969 38.7412C19.556 38.8226 19.3493 38.9349 19.1768 39.0781C19.0075 39.2214 18.8757 39.3857 18.7812 39.5713C18.6901 39.7568 18.6445 39.9538 18.6445 40.1621C18.6445 40.3802 18.6885 40.5706 18.7764 40.7334C18.8643 40.8962 18.9896 41.0378 19.1523 41.1582C19.3184 41.2786 19.5186 41.3812 19.7529 41.4658C19.9906 41.5505 20.2559 41.6237 20.5488 41.6855C20.8971 41.7539 21.1576 41.8353 21.3301 41.9297C21.5059 42.0208 21.6214 42.1234 21.6768 42.2373Z" fill="#1C1D1F"/>
</svg>
