<svg width="50" height="50" viewBox="0 0 50 50" fill="none" xmlns="http://www.w3.org/2000/svg">
<path d="M12.5201 19.24C12.5801 19.11 12.6401 18.99 12.7001 18.86L12.6801 18.85L13.4801 17.46L13.5001 17.47C13.5901 17.33 13.6801 17.2 13.7701 17.07C15.2501 14.97 17.2901 13.34 19.6501 12.35C19.6801 12.9 19.7901 13.44 19.9901 13.95C18.0701 14.82 16.4101 16.18 15.1701 17.88C15.0701 18.01 14.9801 18.14 14.8901 18.28L19.2701 20.8101L19.7401 20.65C19.7401 20.65 19.7901 20.63 19.8801 20.6C20.2901 20.46 21.5501 20.02 22.1901 19.73C22.7201 19.5 23.2401 19.25 23.7501 18.98C24.0401 18.83 24.3201 18.67 24.6001 18.51L25.0001 18.27L25.4001 18.51C25.6801 18.67 25.9601 18.82 26.2401 18.97C26.7501 19.24 27.2701 19.49 27.8001 19.72C28.5501 20.06 29.3301 20.35 30.1101 20.6C30.1501 20.61 30.1901 20.63 30.2301 20.64L30.7801 20.8101L35.1201 18.3C35.0201 18.16 34.9301 18.02 34.8201 17.88C33.5801 16.18 31.9201 14.82 30.0001 13.95C30.1901 13.44 30.3101 12.9 30.3401 12.35C30.8701 12.57 31.3801 12.83 31.8801 13.12C33.6001 14.11 35.0801 15.46 36.2301 17.07C36.3301 17.21 36.4301 17.35 36.5201 17.49L36.5301 17.48L36.7601 17.88C36.8601 18.05 36.9601 18.21 37.0501 18.38L37.3301 18.86L37.3101 18.87C37.3701 18.99 37.4201 19.1 37.4801 19.22C37.6401 19.56 37.7801 19.91 37.9101 20.26C37.9201 20.29 37.9301 20.33 37.9501 20.3601C37.9701 20.42 37.9901 20.47 38.0101 20.53C38.0401 20.61 38.0601 20.69 38.0901 20.77C38.0901 20.78 38.1001 20.8 38.1001 20.8101C38.1401 20.92 38.1701 21.04 38.2101 21.15C38.2301 21.21 38.2501 21.27 38.2601 21.34C38.2701 21.38 38.2801 21.42 38.2901 21.45C38.2901 21.46 38.3001 21.48 38.3001 21.49C38.3301 21.62 38.3701 21.75 38.4001 21.88C38.4101 21.9 38.4101 21.92 38.4201 21.95C38.4301 22.01 38.4501 22.07 38.4601 22.14C37.9301 22.41 37.4501 22.75 37.0201 23.15V23.14C37.0101 23.08 37.0001 23.02 36.9901 22.96C36.9801 22.9 36.9701 22.85 36.9601 22.79C36.9601 22.77 36.9501 22.74 36.9501 22.72C36.9201 22.58 36.8901 22.45 36.8601 22.31C36.8601 22.29 36.8501 22.27 36.8501 22.25C36.8201 22.14 36.7901 22.0201 36.7601 21.91C36.7501 21.8601 36.7401 21.82 36.7201 21.77C36.7001 21.71 36.6901 21.66 36.6701 21.6C36.6401 21.5 36.6101 21.4 36.5801 21.3L36.5701 21.27C36.5501 21.2 36.5201 21.13 36.5001 21.06C36.4801 21.01 36.4701 20.96 36.4501 20.91C36.4401 20.88 36.4301 20.85 36.4201 20.82C36.3201 20.55 36.2101 20.29 36.1001 20.03C36.0501 19.91 35.9901 19.8 35.9301 19.68L30.8001 22.65V23.76C30.2601 23.7701 29.7201 23.83 29.2001 23.96V21.98C29.1101 21.95 29.0201 21.92 28.9301 21.88C28.7201 21.8 28.5101 21.73 28.3001 21.65C27.9201 21.5 27.5401 21.35 27.1701 21.18C26.8601 21.05 26.5601 20.91 26.2601 20.76C25.8401 20.5601 25.4301 20.34 25.0201 20.11C24.6101 20.34 24.1901 20.5601 23.7601 20.76C23.4601 20.91 23.1501 21.05 22.8401 21.18C22.5301 21.32 22.1101 21.48 21.7001 21.63C21.5001 21.71 21.2901 21.78 21.1101 21.85C21.0001 21.89 20.9001 21.92 20.8101 21.96V24.4C20.8101 25.75 21.2901 27.05 22.1801 28.07C22.6301 28.59 23.1401 29.04 23.7101 29.42C23.5701 29.99 23.5001 30.57 23.5001 31.16C22.4601 30.58 21.5301 29.8 20.7801 28.88C19.7601 27.61 19.2001 26.03 19.2201 24.4V22.6L14.1101 19.65C14.0501 19.77 13.9901 19.9 13.9301 20.03C13.2201 21.6 12.8501 23.3 12.8601 25.03C12.8601 25.44 12.8801 25.84 12.9201 26.24C12.3801 26.33 11.8601 26.5 11.3701 26.74C11.0101 24.18 11.4201 21.58 12.5201 19.24ZM22.6501 36.97C22.6301 36.97 22.6201 36.96 22.6001 36.96C22.5301 36.95 22.4501 36.93 22.3801 36.91C22.3501 36.9 22.3301 36.9 22.3001 36.89C22.2401 36.88 22.1701 36.86 22.1101 36.85C22.0701 36.84 22.0401 36.83 22.0001 36.82C21.9501 36.81 21.8901 36.79 21.8401 36.78C21.7901 36.77 21.7501 36.76 21.7001 36.74C21.6601 36.73 21.6101 36.72 21.5701 36.7C21.5101 36.68 21.4601 36.67 21.4001 36.65C21.3701 36.64 21.3301 36.63 21.3001 36.6201C21.2401 36.6 21.1701 36.58 21.1101 36.56C21.0901 36.55 21.0701 36.54 21.0401 36.54C20.9601 36.51 20.8901 36.49 20.8101 36.46L20.7901 36.45C20.6501 36.4 20.5001 36.34 20.3601 36.28C20.2901 36.25 20.2301 36.22 20.1701 36.2C20.1001 36.17 20.0301 36.14 19.9501 36.1C19.8701 36.06 19.7801 36.02 19.7001 35.98C19.6601 35.96 19.6101 35.94 19.5701 35.91C18.9801 35.62 18.4201 35.27 17.8801 34.89C17.5301 35.31 17.1301 35.68 16.6701 35.98C16.6701 35.98 16.6701 35.98 16.6601 35.98C17.1201 36.33 17.6001 36.65 18.1101 36.94C18.3101 37.06 18.5101 37.16 18.7201 37.2701L18.7501 37.2901C19.0101 37.42 19.2801 37.55 19.5501 37.66C19.5901 37.68 19.6301 37.7 19.6801 37.71C19.7501 37.74 19.8201 37.77 19.8901 37.8C19.9501 37.82 20.0001 37.8501 20.0601 37.8701C20.1201 37.8901 20.1901 37.92 20.2501 37.94C20.3601 37.98 20.4801 38.0201 20.5901 38.0601C20.6401 38.0801 20.6901 38.0901 20.7301 38.1101C20.8101 38.1401 20.8901 38.16 20.9801 38.19C21.0301 38.21 21.0801 38.22 21.1301 38.24C21.2201 38.27 21.3101 38.2901 21.3901 38.3101C21.4301 38.3201 21.4701 38.33 21.5101 38.34C21.6201 38.3701 21.7301 38.4001 21.8401 38.4201C22.1001 37.9001 22.4301 37.42 22.8201 36.99C22.7701 37 22.7101 36.99 22.6501 36.97Z" fill="#1D428A"/>
<path d="M22.5501 44.85C16.7601 44.14 11.5701 40.93 8.34009 36.0701L9.73009 35.2701C11.2701 37.5601 13.3001 39.4701 15.6801 40.8701C17.5001 41.9401 19.5001 42.69 21.5801 43.08C21.8001 43.72 22.1201 44.32 22.5501 44.85ZM43.1301 21.83C43.7601 22.05 44.3501 22.37 44.8801 22.77C44.6201 20.45 43.9601 18.19 42.9201 16.09L41.5301 16.89C42.2901 18.46 42.8301 20.12 43.1301 21.83ZM15.6701 9.14005C18.1301 7.69005 20.9001 6.84005 23.7501 6.65005V5.05005C17.5001 5.43005 11.8001 8.72005 8.34009 13.94L9.73009 14.74C11.2701 12.45 13.3001 10.54 15.6701 9.14005Z" fill="#78BE20"/>
<path d="M10.7101 31.8C10.8701 33.48 12.3501 34.71 14.0301 34.55C14.3201 34.5201 14.6001 34.46 14.8601 34.35H14.8701C15.3701 34.15 15.8101 33.82 16.1501 33.39L16.1601 33.38C17.1901 32.05 16.9401 30.13 15.6101 29.1C15.0801 28.6901 14.4201 28.4601 13.7501 28.4601C13.6101 28.4601 13.4801 28.47 13.3401 28.49C12.8001 28.56 12.2901 28.78 11.8601 29.12C11.1301 29.7 10.7001 30.58 10.7001 31.51C10.7001 31.6201 10.7001 31.71 10.7101 31.8ZM12.5001 30.8C12.5101 30.78 12.5201 30.7701 12.5201 30.76C12.7801 30.35 13.2201 30.09 13.7001 30.08C13.7201 30.08 13.7301 30.08 13.7501 30.08C13.8101 30.08 13.8701 30.08 13.9301 30.09C14.7201 30.19 15.2801 30.91 15.1901 31.7C15.1701 31.83 15.1401 31.96 15.0901 32.08V32.09C15.0701 32.13 15.0601 32.16 15.0401 32.19C14.7901 32.66 14.3001 32.9601 13.7601 32.9601C13.7601 32.9601 13.7601 32.9601 13.7501 32.9601C13.7401 32.9601 13.7501 32.9601 13.7401 32.9601C13.7201 32.9601 13.7101 32.9601 13.6901 32.9601C12.9101 32.93 12.3001 32.2901 12.2901 31.5201C12.3001 31.2701 12.3701 31.0201 12.5001 30.8ZM34.3301 9.14005C31.8701 7.69005 29.1001 6.84005 26.2501 6.65005V5.05005C32.5001 5.43005 38.2001 8.72005 41.6601 13.94L40.2701 14.74C38.7301 12.45 36.7001 10.54 34.3301 9.14005ZM8.47009 33.1L7.08009 33.9C4.30009 28.29 4.30009 21.71 7.09009 16.1L8.48009 16.9C5.98009 22.01 5.98009 27.99 8.47009 33.1ZM21.9801 11.61C21.9001 12.15 21.9601 12.7 22.1701 13.21C22.4701 13.94 23.0301 14.52 23.7501 14.85C25.2901 15.54 27.0901 14.85 27.7801 13.32C27.8001 13.28 27.8101 13.25 27.8301 13.21C28.0301 12.7 28.1001 12.15 28.0201 11.61V11.6C27.7601 9.93005 26.2001 8.80005 24.5401 9.05005C23.2201 9.26005 22.1901 10.29 21.9801 11.61ZM23.7601 11.33C24.1701 10.64 25.0601 10.42 25.7501 10.83C25.9601 10.95 26.1301 11.12 26.2501 11.33V11.35C26.5201 11.8 26.5201 12.36 26.2501 12.81C26.2201 12.85 26.2001 12.9 26.1701 12.94V12.95C25.6901 13.59 24.7901 13.73 24.1501 13.25C24.0401 13.17 23.9401 13.06 23.8501 12.95C23.4901 12.46 23.4501 11.84 23.7601 11.33ZM26.4901 37.28V31.18C26.4901 28.74 28.4701 26.76 30.9101 26.76H37.2101C37.2601 26.76 37.3101 26.76 37.3601 26.76C37.2501 27.2901 37.2501 27.83 37.3601 28.3601C37.3101 28.3601 37.2601 28.3601 37.2101 28.3601H30.9101C29.3501 28.3601 28.0901 29.62 28.0901 31.18V37.28C27.5601 37.17 27.0101 37.17 26.4901 37.28ZM41.1701 31.4601C40.7801 31.4601 40.3901 31.4 40.0201 31.29V37.48C40.0201 39.04 38.7601 40.3 37.2001 40.3H31.1001C31.2101 40.83 31.2101 41.37 31.1001 41.9001H37.2001C39.6401 41.9001 41.6201 39.92 41.6201 37.48V31.44C41.4701 31.45 41.3201 31.4601 41.1701 31.4601ZM44.2201 27.56C44.2201 29.24 42.8601 30.6101 41.1701 30.6101C40.6401 30.6101 40.1101 30.47 39.6501 30.2101L30.0401 39.82C30.7501 41.3501 30.0901 43.17 28.5601 43.88C27.0301 44.59 25.2101 43.93 24.5001 42.4001C23.7901 40.87 24.4501 39.05 25.9801 38.34C26.9601 37.88 28.1101 37.98 29.0001 38.59L38.5101 29.08C37.6701 27.62 38.1801 25.76 39.6401 24.92C41.1001 24.08 42.9601 24.59 43.8001 26.05C44.0901 26.5 44.2201 27.0301 44.2201 27.56ZM28.7401 41.1C28.7401 40.3 28.0901 39.6501 27.2901 39.6501C26.4901 39.6501 25.8401 40.3 25.8401 41.1C25.8401 41.9001 26.4901 42.55 27.2901 42.55C28.0901 42.5401 28.7401 41.9001 28.7401 41.1ZM42.6201 27.56C42.6201 26.76 41.9701 26.1101 41.1701 26.1101C40.3701 26.1101 39.7201 26.76 39.7201 27.56C39.7201 28.3601 40.3701 29.01 41.1701 29.01C41.9701 29.01 42.6201 28.3601 42.6201 27.56Z" fill="#0091DA"/>
</svg>
