<svg width="50" height="50" viewBox="0 0 50 50" fill="none" xmlns="http://www.w3.org/2000/svg">
<path d="M8.72652 17.3312C9.5144 15.5835 10.6026 13.9875 11.9417 12.6157C15.0803 9.34958 18.9079 7.50115 23.4244 7.07043C23.493 7.05544 23.5593 7.03178 23.6219 7H26.3778C26.4254 7.02988 26.4769 7.05307 26.5309 7.06889C30.0985 7.35797 33.4947 8.72186 36.2713 10.9806C38.5665 12.8034 40.3687 15.172 41.5135 17.8701C41.4324 17.8226 41.313 17.7951 41.2777 17.7247C41.1338 17.443 40.9072 17.3986 40.6179 17.4047C39.7988 17.4215 38.9781 17.4047 38.159 17.4047H35.5731C35.4843 16.3697 35.0633 15.9824 34.0314 15.9824C28.0093 15.9824 21.9898 15.9824 15.9729 15.9824C15.7816 15.9769 15.5903 15.9907 15.4018 16.0237C15.168 16.0789 14.9563 16.2034 14.7946 16.381C14.6328 16.5586 14.5286 16.7809 14.4954 17.0189L14.4189 17.172C14.2209 17.2078 14.021 17.2323 13.8203 17.2455C12.1193 17.2883 10.4229 17.3082 8.72652 17.3312Z" fill="#01A121"/>
<path d="M41.5135 17.8762L41.5686 18.0186L41.4951 18.1273L41.6268 18.1763L41.6742 18.2605C42.3368 19.8611 42.7573 21.5515 42.922 23.276C42.94 23.368 42.9661 23.4582 43.0001 23.5455V26.5325C42.9542 26.6856 42.9098 26.8387 42.8638 26.9918C42.7173 26.9527 42.5678 26.926 42.4168 26.9122C41.5425 26.9122 40.6683 26.9122 39.7956 26.9122C39.3271 26.9122 38.8586 26.8907 38.3902 26.8831C37.4511 26.8657 36.5121 26.8504 35.5731 26.8371C35.5731 26.7101 35.5731 26.5815 35.5731 26.4544C35.8869 26.4789 36.2023 26.5233 36.5177 26.5202C36.977 26.5202 37.4363 26.4621 37.8956 26.459C38.4851 26.459 39.0745 26.4911 39.664 26.5003C40.4892 26.5141 41.3144 26.5264 42.1397 26.5233C42.3262 26.5051 42.5107 26.4698 42.6908 26.4177L42.6816 26.3074C42.6254 26.2685 42.5627 26.24 42.4964 26.2232C41.884 26.1941 41.2716 26.1513 40.6591 26.1528C39.9549 26.1528 39.2521 26.211 38.5494 26.2171C37.937 26.2171 37.3322 26.1957 36.7244 26.1819L35.5715 26.1482C35.5715 25.029 35.5547 23.9114 35.5547 22.7922C35.5547 20.9994 35.5654 19.2082 35.5715 17.4154H38.162C38.9811 17.4154 39.8018 17.4261 40.6209 17.4154C40.9102 17.4154 41.1368 17.4536 41.2807 17.7353C41.3129 17.8012 41.4323 17.8287 41.5135 17.8762Z" fill="#03951F"/>
<path d="M39.4953 35.6312C38.1732 37.4842 36.4939 39.0541 34.5562 40.2487C32.5547 41.5046 30.3254 42.3538 27.9956 42.748C25.6658 43.1421 23.2812 43.0734 20.9779 42.5458C18.6747 42.0182 16.4979 41.042 14.572 39.673C12.6461 38.304 11.0088 36.5691 9.75356 34.5672C9.44735 34.0757 9.1932 33.5506 8.91455 33.0362C8.98957 32.8739 9.06765 32.7116 9.16258 32.508C10.2159 32.508 11.306 32.508 12.4038 32.508C13.0943 32.508 13.7817 32.4957 14.4737 32.508C15.5286 32.5172 16.585 32.5524 17.6399 32.5524C18.8157 32.5524 19.9915 32.5141 21.1613 32.5095C21.5991 32.5095 22.0355 32.5646 22.4718 32.5738C23.0965 32.5876 23.7196 32.5738 24.3443 32.5815V35.0311C24.3345 35.0359 24.3258 35.0427 24.319 35.0512C24.3121 35.0596 24.3071 35.0695 24.3045 35.0801L19.9043 35.1015C19.3715 35.1015 19.1005 35.3021 19.0944 35.6971C19.0882 36.0921 19.3669 36.3187 19.8844 36.3202C23.2404 36.3202 26.5964 36.3202 29.9524 36.3202C30.3061 36.3202 30.5939 36.2283 30.7026 35.8609C30.8113 35.4934 30.6062 35.2837 30.3291 35.1076C30.7042 35.0785 31.0777 35.025 31.4513 35.0234C33.9101 35.0158 36.369 35.0234 38.8278 35.0234C39.4846 35.0341 39.4846 35.0341 39.4953 35.6312Z" fill="#07831C"/>
<path d="M24.3459 32.583C23.7213 32.583 23.0981 32.583 22.4735 32.5753C22.0371 32.5662 21.6008 32.5095 21.1629 32.511C19.9871 32.511 18.8113 32.5524 17.6416 32.5539C16.5867 32.5539 15.5303 32.5187 14.4754 32.5095C13.7849 32.5095 13.0975 32.5095 12.4054 32.5095C11.3123 32.5095 10.2176 32.5095 9.16425 32.5095C9.06779 32.7131 8.99124 32.8754 8.91622 33.0377C8.14035 31.5621 7.59854 29.9749 7.31017 28.3329C7.04662 27.008 6.95043 25.6553 7.02387 24.3064C7.29385 24.2534 7.56692 24.2176 7.84144 24.1992C8.41864 24.1992 8.9943 24.2314 9.56997 24.2237C10.1962 24.2237 10.8208 24.1564 11.447 24.1594C12.2508 24.1594 13.0546 24.21 13.8584 24.2253C14.0467 24.2155 14.2341 24.1915 14.4187 24.1533C14.4187 25.6782 14.4228 27.2036 14.431 28.7295C14.4395 28.8661 14.4564 29.0021 14.4815 29.1367V29.9696L14.4922 30.5912C14.6545 31.323 15.0633 31.6629 15.8013 31.6629H24.3521L24.3459 32.583Z" fill="#058D1E"/>
<path d="M35.5727 26.8387C36.5127 26.8541 37.4518 26.8694 38.3898 26.8847C38.8583 26.8847 39.3268 26.9107 39.7953 26.9138C40.668 26.9138 41.5422 26.9138 42.4164 26.9138C42.5674 26.9276 42.717 26.9543 42.8635 26.9934C42.6588 29.2053 42.005 31.3521 40.942 33.3026C40.8578 33.0286 40.6726 32.9428 40.3893 32.9612C39.7371 32.9995 39.0833 33.0347 38.4311 33.0347C37.7269 33.0347 37.0241 32.9704 36.3198 32.9704C35.5268 32.9704 34.7337 33.0286 33.9406 33.0347C33.44 33.0347 32.9378 32.9719 32.4356 32.9735C31.8232 32.9735 31.2108 33.0393 30.5984 33.0362C29.7793 33.0362 28.9617 32.9704 28.1487 32.9704C27.3036 32.9704 26.4569 33.0163 25.6118 33.0408V31.6629H34.1243C35.0874 31.6629 35.5589 31.196 35.562 30.2391C35.5599 29.1062 35.5635 27.9727 35.5727 26.8387Z" fill="#058A1D"/>
<path d="M14.4125 24.1579C14.2278 24.1961 14.0404 24.2202 13.8521 24.2299C13.0483 24.2146 12.2445 24.1671 11.4407 24.1641C10.8145 24.1641 10.1899 24.2207 9.56368 24.2284C8.98801 24.236 8.41235 24.1962 7.83515 24.2039C7.56063 24.2222 7.28756 24.258 7.01758 24.311C7.08359 21.8893 7.66645 19.5096 8.72652 17.3312C10.4229 17.3082 12.119 17.2883 13.8153 17.2608C14.0161 17.2476 14.216 17.2231 14.414 17.1873C14.414 18.8918 14.417 20.5963 14.4232 22.3008C14.4326 22.4374 14.4494 22.5734 14.4737 22.7081V23.0036L14.4125 24.1579Z" fill="#02971F"/>
<path d="M25.6001 33.0423C26.4453 33.0178 27.2843 32.9719 28.1371 32.9719C28.9562 32.9719 29.7737 33.0347 30.5867 33.0377C31.1991 33.0377 31.8115 32.978 32.4239 32.975C32.9261 32.975 33.4283 33.0393 33.9289 33.0362C34.722 33.0362 35.5151 32.9734 36.3082 32.9719C37.0124 32.9719 37.7152 33.0362 38.4195 33.0362C39.0717 33.0362 39.7254 33.001 40.3776 32.9627C40.6609 32.9444 40.8461 33.0301 40.9303 33.3041L39.4835 35.6313C39.4728 35.0342 39.4728 35.0342 38.8175 35.0342C36.3587 35.0342 33.8999 35.0342 31.441 35.0342C31.0674 35.0342 30.6939 35.0893 30.3188 35.1184H25.5879L25.6001 33.0423Z" fill="#08861C"/>
<path d="M25.6001 33.0423L25.5996 35.123H30.3305C30.6076 35.299 30.8097 35.5226 30.7041 35.8762C30.5984 36.2299 30.3075 36.3355 29.9539 36.3355C26.5979 36.3355 23.2418 36.3355 19.8858 36.3355C19.3683 36.3355 19.0897 36.112 19.0958 35.7124C19.1019 35.3128 19.3729 35.1199 19.9057 35.1168L24.3059 35.0954L24.3457 35.0464V31.6782H15.7949C15.057 31.6782 14.6482 31.3414 14.4859 30.6065L14.4752 29.9849V29.1521C14.4752 28.1998 14.4966 27.246 14.4951 26.2937C14.4951 25.2006 14.4813 24.1074 14.4736 23.0143L14.4737 22.7081C14.4798 20.8158 14.4854 18.924 14.4905 17.0327C14.5236 16.7947 14.6279 16.5724 14.7896 16.3948C14.9514 16.2172 15.163 16.0927 15.3968 16.0375C15.588 16.006 15.782 15.9942 15.9756 16.0023C21.9976 16.0023 28.0197 16.0023 34.0417 16.0023C35.0736 16.0023 35.4947 16.3896 35.5835 17.4246C35.5835 19.2174 35.5682 21.0087 35.5666 22.8015C35.5666 23.9206 35.5773 25.0383 35.5835 26.1574V26.4636C35.5835 26.5907 35.5835 26.7193 35.5835 26.8464C35.5835 27.9803 35.5779 29.1143 35.5666 30.2483C35.5666 31.2051 35.092 31.6721 34.129 31.6721H25.6165L25.6001 33.0423ZM34.3188 21.3195V17.2393H15.6602V17.6864C15.6602 21.4363 15.6602 25.1863 15.6602 28.9362C15.6602 29.1276 15.6694 29.3174 15.6755 29.5088V29.8303L15.723 30.4243C15.8362 30.4335 15.9495 30.4504 16.0628 30.4504H33.9208C34.0341 30.4504 34.1489 30.4366 34.2622 30.4289L34.3204 30.3616C34.3204 28.1365 34.3204 25.913 34.3204 23.691V21.3195H34.3188Z" fill="#FAFCFA"/>
<path d="M14.4905 17.0327C14.4844 18.9229 14.4788 20.8147 14.4737 22.7081C14.4494 22.5734 14.4326 22.4374 14.4232 22.3008C14.4232 20.5953 14.4201 18.8908 14.414 17.1873C14.4446 17.1352 14.4644 17.0832 14.4905 17.0327Z" fill="#57AD59"/>
<path d="M41.6268 18.1763L41.4951 18.1273L41.5686 18.0186C41.5885 18.0706 41.6069 18.1227 41.6268 18.1763Z" fill="#01A121"/>
<path d="M35.5728 26.456V26.1498L36.7256 26.1834C37.338 26.1972 37.9413 26.2248 38.5506 26.2187C39.2533 26.2187 39.9561 26.1559 40.6604 26.1544C41.2728 26.1544 41.8852 26.1957 42.4976 26.2248C42.5639 26.2415 42.6266 26.2701 42.6829 26.309L42.692 26.4192C42.512 26.4713 42.3275 26.5067 42.1409 26.5249C41.3156 26.5249 40.4904 26.5157 39.6652 26.5019C39.0757 26.4927 38.4863 26.459 37.8969 26.4606C37.4375 26.4606 36.9782 26.5187 36.5189 26.5218C36.1974 26.5249 35.879 26.4805 35.5728 26.456Z" fill="#058A1D"/>
<path d="M24.3474 35.0403L24.3062 35.0893C24.3089 35.0787 24.3141 35.0688 24.3212 35.0604C24.3283 35.0519 24.3372 35.045 24.3474 35.0403Z" fill="#058D1E"/>
<path d="M14.4737 23.0036C14.4737 24.0967 14.495 25.1898 14.495 26.283C14.495 27.2353 14.4828 28.1891 14.4751 29.1413C14.45 29.0068 14.4332 28.8708 14.4246 28.7341C14.4185 27.2092 14.4145 25.6838 14.4125 24.1579C14.4324 23.7737 14.4538 23.3878 14.4737 23.0036Z" fill="#57AD59"/>
<path d="M15.6697 29.8334V29.5119C15.6925 29.376 15.7079 29.2391 15.7156 29.1015C15.7156 27.099 15.7248 25.0965 15.7156 23.0939C15.7156 22.8091 15.7952 22.6469 16.0769 22.6346C16.3939 22.6224 16.7138 22.6346 17.0323 22.6346L19.4329 22.6729C19.4559 22.6729 19.4804 22.6484 19.5049 22.6499C20.1081 22.6642 20.7114 22.6795 21.3146 22.6958C21.2962 23.1781 21.2564 23.6604 21.2778 24.1411C21.2778 24.2452 21.5044 24.4198 21.633 24.4243C22.2944 24.4534 22.9604 24.4473 23.6234 24.4243C23.7397 24.4243 23.9556 24.308 23.9556 24.2483C23.9556 23.7094 23.9097 23.1766 23.8791 22.6331L25.9903 22.7724C25.9903 23.1796 26.0026 23.5869 25.9903 23.9972C25.9781 24.3034 26.096 24.4427 26.4099 24.4381C27.0468 24.4289 27.6837 24.4381 28.319 24.4381C28.6115 24.4381 28.734 24.3095 28.7294 24.0217C28.7294 23.6144 28.7294 23.2072 28.7294 22.7969C28.8219 22.7234 28.9252 22.6646 29.0356 22.6224C29.1883 22.6068 29.3422 22.6068 29.4949 22.6224L32.5049 22.6729C32.9642 22.6729 33.4357 22.7142 33.8996 22.6913C34.2304 22.6744 34.2824 22.8199 34.2702 23.0954C34.2739 23.2954 34.2913 23.4949 34.3222 23.6925C34.3222 25.9155 34.3222 28.1391 34.3222 30.3631C34.3023 30.3845 34.2839 30.4075 34.264 30.4305C34.1507 30.4381 34.0359 30.4519 33.9226 30.4519H16.0632C15.9499 30.4519 15.8366 30.4351 15.7233 30.4259C15.708 30.2299 15.6911 30.0309 15.6697 29.8334ZM24.9921 28.2365C25.3351 28.2365 25.6795 28.2365 26.0225 28.2365C26.2644 28.2365 26.3685 28.1278 26.3655 27.889C26.3655 27.4174 26.3655 26.9474 26.3655 26.4759C26.3655 26.237 26.2613 26.1238 26.0225 26.1238C25.3351 26.1238 24.6446 26.11 23.9617 26.1406C23.8865 26.1622 23.8181 26.2026 23.7629 26.2581C23.7077 26.3135 23.6676 26.3822 23.6463 26.4575C23.6096 26.9382 23.628 27.4236 23.6326 27.9074C23.6326 28.1431 23.7627 28.2442 24 28.2381C24.3368 28.2289 24.6675 28.2365 24.9982 28.2365H24.9921ZM29.9511 28.2365C30.2818 28.2365 30.6125 28.2365 30.9432 28.2365C31.2004 28.2442 31.3229 28.1324 31.3229 27.8783C31.3229 27.4067 31.3229 26.9367 31.3229 26.4652C31.3229 26.2309 31.2035 26.1207 30.9662 26.1222C30.2905 26.1222 29.6158 26.1222 28.9422 26.1222C28.7095 26.1222 28.587 26.2187 28.5885 26.4636C28.5885 26.9337 28.5962 27.4052 28.5885 27.8767C28.5885 28.1385 28.7049 28.2427 28.9605 28.2365C29.2958 28.2304 29.6265 28.2365 29.9572 28.2365H29.9511ZM20.079 28.2365C20.3975 28.2365 20.7175 28.2365 21.0359 28.2365C21.2916 28.2442 21.4141 28.1431 21.4095 27.8783C21.4003 27.419 21.3988 26.9597 21.4095 26.5004C21.4172 26.2141 21.287 26.1176 21.016 26.1207C20.3653 26.1299 19.7131 26.1207 19.0624 26.1207C18.8114 26.1207 18.6858 26.2126 18.6904 26.4805C18.7011 26.9398 18.7026 27.3991 18.6904 27.8584C18.6904 28.1462 18.8114 28.2442 19.0839 28.235C19.4207 28.2273 19.7529 28.235 20.0852 28.235L20.079 28.2365Z" fill="#05901F"/>
<path d="M34.319 23.6955C34.288 23.4979 34.2706 23.2984 34.2669 23.0984C34.2792 22.8229 34.2271 22.6774 33.8964 22.6943C33.4371 22.7172 32.9671 22.6835 32.5016 22.6759L29.4916 22.6254C29.3389 22.6098 29.185 22.6098 29.0323 22.6254C28.9219 22.6676 28.8187 22.7264 28.7261 22.7999C28.5853 22.7371 28.4444 22.6254 28.3005 22.6208C27.6636 22.6009 27.0251 22.6024 26.3882 22.6208C26.247 22.6494 26.1115 22.7011 25.9871 22.7739L23.8758 22.6345C23.1792 22.6345 22.4826 22.6131 21.7875 22.6131C21.6269 22.6257 21.4676 22.6518 21.3113 22.6912C20.7081 22.6738 20.1049 22.6585 19.5017 22.6453C19.4772 22.6453 19.4527 22.6698 19.4297 22.6682L17.029 22.63C16.7106 22.63 16.3906 22.6116 16.0737 22.63C15.792 22.6422 15.7108 22.8045 15.7124 23.0893C15.7261 25.0918 15.7124 27.0944 15.7124 29.0969C15.7046 29.2344 15.6893 29.3714 15.6664 29.5072C15.6664 29.3158 15.6511 29.126 15.6511 28.9346C15.6511 25.1847 15.6511 21.4348 15.6511 17.6848V17.2393L34.3188 17.2393V21.3195C34.2821 21.2016 34.2455 21.0852 34.1995 20.9413H26.3867C26.3867 20.5845 26.3683 20.2278 26.376 19.8696C26.376 19.5909 26.2596 19.4792 25.9856 19.4822C25.3364 19.4899 24.6857 19.4914 24.035 19.4822C23.7564 19.4822 23.6416 19.6001 23.64 19.8696C23.64 20.2263 23.6278 20.583 23.6201 20.9413H18.1957C17.4685 20.9413 16.7412 20.9413 16.014 20.9413C15.521 20.9413 15.7705 21.3164 15.7307 21.5292C15.6802 21.8078 15.8838 21.7787 16.0783 21.7772C16.8683 21.7772 17.6598 21.7772 18.4514 21.7772C18.6657 21.7772 18.8816 21.7542 19.0959 21.7466C19.4021 21.7359 19.7084 21.7221 20.0146 21.7221C20.7694 21.7221 21.5226 21.7328 22.2774 21.7328C22.9465 21.7328 23.614 21.7144 24.2831 21.7205C24.6429 21.7205 25.0042 21.7741 25.364 21.7695C25.9611 21.7695 26.5582 21.7114 27.1553 21.7144C27.8795 21.7144 28.6021 21.7741 29.3263 21.7787C29.7703 21.7787 30.2127 21.7144 30.6567 21.7159C31.2079 21.7159 31.7591 21.7634 32.3118 21.7757C32.8645 21.7879 33.3835 21.7864 33.9178 21.7757C34.0547 21.7633 34.1903 21.7402 34.3236 21.7068L34.319 23.6955Z" fill="#059921"/>
<path d="M34.3189 21.7099C34.1857 21.7433 34.05 21.7664 33.9132 21.7788C33.3773 21.7788 32.8415 21.7788 32.3071 21.7788C31.7728 21.7788 31.2033 21.7206 30.6521 21.719C30.2081 21.719 29.7656 21.7864 29.3216 21.7818C28.5974 21.7818 27.8748 21.7206 27.1506 21.7175C26.5535 21.7175 25.9564 21.7665 25.3593 21.7726C24.9995 21.7726 24.6382 21.7252 24.2784 21.7236C23.6093 21.7236 22.9418 21.7344 22.2728 21.7359C21.518 21.7359 20.7647 21.7252 20.0099 21.7252C19.7037 21.7252 19.3975 21.7389 19.0913 21.7497C18.8769 21.7497 18.6611 21.7788 18.4467 21.7803C17.6552 21.7803 16.8636 21.7803 16.0736 21.7803C15.8868 21.7803 15.6756 21.8109 15.7261 21.5323C15.7659 21.3195 15.5163 20.9444 16.0093 20.9444C16.7366 20.9444 17.4638 20.9444 18.191 20.9444H23.6139C23.6476 21.2184 23.7931 21.3286 24.0732 21.3225C24.6857 21.3072 25.3119 21.3103 25.9319 21.3225C26.2044 21.3225 26.3744 21.2444 26.379 20.9474H34.1872C34.2332 21.0913 34.2699 21.2077 34.3067 21.3256L34.3189 21.7099Z" fill="#05961E"/>
<path d="M15.6697 29.8334C15.685 30.0309 15.7018 30.2299 15.7171 30.4274C15.708 30.2299 15.6911 30.0309 15.6697 29.8334Z" fill="#059921"/>
<path d="M34.2627 30.4335C34.2826 30.4105 34.301 30.3876 34.3209 30.3661C34.301 30.3937 34.2826 30.4105 34.2627 30.4335Z" fill="#059921"/>
<path d="M24.9982 28.2365C24.6675 28.2365 24.3366 28.2365 24.0059 28.2365C23.7686 28.2365 23.64 28.1416 23.6384 27.9058C23.6384 27.422 23.6155 26.9367 23.6522 26.456C23.6734 26.3807 23.7135 26.312 23.7687 26.2565C23.8239 26.2011 23.8924 26.1606 23.9676 26.1391C24.6535 26.1084 25.3455 26.1253 26.0284 26.1222C26.2672 26.1222 26.3744 26.2355 26.3713 26.4743C26.3713 26.9459 26.3713 27.4159 26.3713 27.8875C26.3713 28.1263 26.2703 28.2396 26.0284 28.235C25.6854 28.2319 25.3412 28.2365 24.9982 28.2365Z" fill="#FBFDFB"/>
<path d="M29.9572 28.2365C29.6265 28.2365 29.2956 28.2365 28.9649 28.2365C28.7093 28.2365 28.5883 28.1385 28.5929 27.8767C28.6006 27.4052 28.5929 26.9336 28.5929 26.4636C28.5929 26.2187 28.7139 26.1222 28.9466 26.1222C29.6212 26.1222 30.2959 26.1222 30.9706 26.1222C31.2079 26.1222 31.3258 26.2309 31.3273 26.4652C31.3273 26.9367 31.3273 27.4067 31.3273 27.8783C31.3273 28.1324 31.2048 28.2442 30.9476 28.2365C30.6185 28.2289 30.288 28.2365 29.9572 28.2365Z" fill="#FBFDFB"/>
<path d="M20.0852 28.235C19.7529 28.235 19.4205 28.2273 19.0898 28.235C18.8173 28.2441 18.6887 28.1462 18.6964 27.8583C18.7086 27.399 18.7071 26.9397 18.6964 26.4804C18.6964 26.2125 18.8173 26.1191 19.0684 26.1206C19.7191 26.1206 20.3713 26.1206 21.022 26.1206C21.293 26.1206 21.4231 26.214 21.4155 26.5003C21.4048 26.9596 21.4063 27.4189 21.4155 27.8782C21.4155 28.1431 21.2976 28.2441 21.0419 28.2365C20.7219 28.2288 20.4036 28.235 20.0852 28.235Z" fill="#FEFEFE"/>
<path d="M21.3161 22.702C21.4723 22.6626 21.6316 22.6364 21.7923 22.6239C22.4874 22.6239 23.184 22.6377 23.8806 22.6453C23.9112 23.1842 23.9525 23.717 23.9571 24.2605C23.9571 24.3202 23.7413 24.4335 23.6249 24.4366C22.962 24.4534 22.296 24.4595 21.6346 24.4366C21.506 24.4366 21.284 24.2575 21.2794 24.1533C21.2579 23.6665 21.2977 23.1842 21.3161 22.702Z" fill="#F8FBF8"/>
<path d="M25.9918 22.7846C26.1162 22.7118 26.2517 22.6601 26.3929 22.6315C27.0298 22.6146 27.6683 22.6131 28.3052 22.6315C28.4491 22.6315 28.5899 22.7478 28.7308 22.8106C28.7308 23.2179 28.7201 23.6251 28.7308 24.0354C28.7308 24.3232 28.6129 24.4549 28.3205 24.4518C27.6851 24.4518 27.0482 24.4442 26.4113 24.4518C26.1051 24.4518 25.9795 24.3187 25.9918 24.0109C26.004 23.5991 25.9918 23.198 25.9918 22.7846Z" fill="#F8FBF8"/>
<path d="M26.3867 20.9413C26.3867 21.2383 26.2121 21.321 25.9396 21.3164C25.3271 21.3057 24.6994 21.3026 24.0809 21.3164C23.7992 21.3164 23.6537 21.2123 23.6216 20.9382C23.6292 20.583 23.6415 20.2263 23.6415 19.8665C23.6415 19.5971 23.7578 19.4746 24.0365 19.4792C24.6872 19.4884 25.3379 19.4868 25.987 19.4792C26.2611 19.4792 26.3836 19.5879 26.3774 19.8665C26.3667 20.2278 26.3867 20.5845 26.3867 20.9413Z" fill="#F9FBF9"/>
</svg>
