<svg width="50" height="50" viewBox="0 0 50 50" fill="none" xmlns="http://www.w3.org/2000/svg">
<path d="M7.79859 18.1526C7.86889 18.3117 7.93997 18.3117 8.01182 18.1526C8.18179 17.7757 8.34828 17.3951 8.5113 17.0107C8.64264 16.6991 8.78905 16.4754 8.95052 16.3395C9.44498 15.9229 10.0082 15.954 10.6402 16.433C10.6818 16.4644 10.7445 16.4634 10.785 16.4308C11.4325 15.9157 12.088 15.9105 12.7517 16.415C12.7931 16.4463 12.8551 16.4458 12.8954 16.4139C13.369 16.0415 13.8735 15.9465 14.4089 16.129C15.0578 16.3497 15.1842 16.9217 15.1911 17.5771C15.1969 18.1188 15.4565 19.755 14.5642 19.6728C13.7251 19.5963 14.3648 17.6481 14.0195 17.1447C13.8364 16.8767 13.3218 16.8767 13.1445 17.1684C12.9788 17.4397 13.0796 18.6875 13.0727 19.067C13.0564 19.8541 12.0088 19.9183 12.0065 19.0557C12.0057 18.5415 12.0065 18.0268 12.0088 17.5118C12.01 16.9443 11.266 16.7112 11.0052 17.2123C10.8314 17.5456 10.9299 18.6965 10.9287 19.1154C10.9287 19.8429 9.90776 19.8845 9.87299 19.094C9.85599 18.7134 9.85252 18.0846 9.86256 17.2078C9.86488 17.0434 9.68757 16.8553 9.57284 17.0997C9.25685 17.7716 8.937 18.4409 8.61328 19.1075C8.20651 19.9442 7.53204 19.8102 7.16352 19.0456C6.81817 18.3301 6.47823 17.6132 6.1437 16.8947C5.95712 16.4961 6.00463 16.165 6.47746 16.0513C6.71773 15.9927 6.88268 16.0655 6.9723 16.2697L7.79859 18.1526ZM26.9978 18.1987C27.0226 18.4472 27.1211 18.6537 27.2934 18.8181C27.9667 19.4634 28.5971 19.192 29.2716 18.7697C29.5204 18.6133 29.6087 19.0161 29.4489 19.1785C28.8474 19.7877 27.7511 19.8181 27.1184 19.3395C25.628 18.21 26.6583 15.4724 28.6307 16.1526C29.3477 16.4003 29.7143 16.9585 29.7305 17.8271C29.7328 17.9915 29.6478 18.0737 29.4755 18.0737L27.1126 18.0749C27.0464 18.0752 26.9911 18.134 26.9978 18.1987ZM28.6423 16.6886C28.2058 16.4169 27.7851 16.454 27.3803 16.8001C27.1755 16.975 27.0427 17.2145 26.9816 17.5186C26.9674 17.5858 27.024 17.6525 27.0952 17.6526H29.041C29.1096 17.6524 29.1649 17.5907 29.1568 17.5253C29.1074 17.15 28.9359 16.8711 28.6423 16.6886ZM23.2442 17.4184C23.2357 16.9379 22.9827 16.6545 22.4851 16.5681C22.1437 16.5088 21.7952 16.5434 21.4398 16.6717C21.1359 16.7815 20.8742 16.4729 21.1493 16.2487C21.786 15.7298 23.3215 16.0786 23.6521 16.7821C23.9048 17.3193 23.8225 18.8733 23.7924 19.3631C23.7746 19.6499 23.6243 19.7258 23.3416 19.5906C23.2582 19.5493 23.2684 19.4419 23.257 19.3654C23.2384 19.2363 23.1762 19.2122 23.0704 19.2933C22.6485 19.6176 22.1873 19.7351 21.6867 19.6458C20.3006 19.3992 20.2786 17.7258 21.6252 17.4859C22.0834 17.4041 22.5759 17.4187 23.1028 17.5298C23.1735 17.5444 23.2453 17.4901 23.2442 17.4184ZM23.1492 17.9634C22.7435 17.8828 21.4336 17.6303 21.259 18.2483C20.8859 19.6908 23.4899 19.4949 23.2407 18.0546C23.2324 18.0099 23.195 17.9726 23.1492 17.9634ZM17.9238 17.2021C17.6904 17.8673 17.4498 18.5463 17.2018 19.2393C17.0453 19.6773 16.6849 19.942 16.4497 19.2922C16.1399 18.4386 15.8243 17.5839 15.5029 16.728C15.3951 16.4409 15.2583 15.9713 15.8366 16.1436C15.8711 16.154 15.8997 16.1809 15.9119 16.2145L16.7232 18.4915C16.7958 18.6942 16.8688 18.6942 16.9422 18.4915C17.191 17.8061 17.4374 17.1199 17.6816 16.433C17.7508 16.236 18.1511 15.8597 18.2865 16.2314L19.0942 18.4927C19.1669 18.6954 19.2399 18.6954 19.3133 18.4927L20.1314 16.2303C20.2269 15.9672 20.7117 16.159 20.6379 16.388C20.284 17.397 19.9136 18.3992 19.5265 19.3947C19.4048 19.71 19.0479 19.808 18.9123 19.4487C18.6326 18.7032 18.3618 17.9544 18.0999 17.2021C18.0412 17.0347 17.9825 17.0347 17.9238 17.2021Z" fill="#716F74"/>
<path d="M24.9559 16.8373L24.9849 16.8362C24.9899 16.8362 24.9948 16.8349 24.9992 16.8326C25.0037 16.8302 25.0075 16.8268 25.0104 16.8226C25.2352 16.4698 25.55 16.2389 25.9549 16.1301C26.2898 16.04 26.6618 16.2404 26.328 16.5963C26.3107 16.6145 26.2879 16.6268 26.2631 16.6312C24.7264 16.9105 24.9316 18.3474 24.9605 19.4994C24.9612 19.5215 24.9552 19.5432 24.9432 19.5619C24.9312 19.5805 24.9139 19.5952 24.8933 19.6041C24.5951 19.7348 24.4429 19.6638 24.4367 19.3913C24.4159 18.4296 24.405 17.4679 24.4043 16.5062C24.4043 16.1864 24.6175 15.9015 24.9304 16.2438C24.9498 16.2648 24.9601 16.2922 24.9594 16.3204L24.9478 16.7877C24.9475 16.8008 24.9482 16.8134 24.9497 16.8227C24.9512 16.832 24.9534 16.8372 24.9559 16.8373Z" fill="#716F74"/>
<path d="M24.869 20.6694L24.8261 22.6863C24.0551 22.7591 23.5026 23.1202 23.1689 23.7696C22.4991 23.4581 21.8474 23.0988 21.2139 22.6919C21.9266 21.4149 23.4007 20.7393 24.869 20.6694Z" fill="#21628A"/>
<path d="M24.869 20.6694C26.6629 20.5426 28.2973 20.9896 29.7722 22.0106L27.7372 23.2786C26.8147 22.7974 25.8444 22.6 24.8261 22.6863L24.869 20.6694Z" fill="#41A6DA"/>
<path d="M17.7082 22.0726L15.3708 23.3394C15.3638 22.8702 15.3653 22.401 15.3754 21.9318C15.4136 20.3046 17.6932 20.3429 17.7082 22.0726Z" fill="#7BC3EB"/>
<path d="M35.1216 21.6041C34.3977 21.9127 33.7132 22.2862 33.0681 22.7246C32.4017 21.9622 32.5906 20.9239 33.6383 20.7528C34.3139 20.6424 34.7543 21.0433 35.1216 21.6041Z" fill="#2A4B38"/>
<path d="M41.6126 24.8597C41.526 23.7478 41.4897 22.6311 41.5036 21.5095C41.7153 21.2265 41.9193 21.0223 42.1155 20.8969C42.8665 20.4194 43.8747 21.0073 43.8168 21.8755C43.8021 22.0977 43.6916 22.338 43.4853 22.5962C42.8842 23.3447 42.26 24.0992 41.6126 24.8597Z" fill="#94C351"/>
<path d="M10.0515 23.1953C8.98066 22.6398 7.92106 22.0688 6.87265 21.4825C6.54353 21.2978 6.37085 21.3947 6.09736 21.5917C6.43459 20.4645 7.95737 20.5715 8.60171 21.3215C9.11085 21.9138 9.5941 22.5384 10.0515 23.1953Z" fill="#7BC3EB"/>
<path d="M10.0515 23.1953C10.5181 23.693 10.957 24.2276 11.368 24.7989L8.55768 24.8079C8.45183 24.618 8.37303 24.6165 8.32127 24.8034H6.04174C6.00852 23.7283 6.02705 22.6578 6.09736 21.5917C6.37085 21.3947 6.54353 21.2978 6.87265 21.4825C7.92106 22.0688 8.98066 22.6398 10.0515 23.1953Z" fill="#A6D4EB"/>
<path d="M41.5036 21.5095C41.4897 22.6311 41.526 23.7478 41.6126 24.8597L39.7885 27.0984C39.7563 27.138 39.7568 27.1983 39.7896 27.238L41.5905 29.4407L41.5569 31.5837L41.4457 31.5601C40.8763 31.1644 40.2667 30.8341 39.617 30.5691L38.2854 28.9385C38.2408 28.8837 38.1506 28.8824 38.1046 28.9374L37.699 29.4205L35.8158 28.3506L36.5691 27.4498C37.0669 27.7579 40.6464 25.2362 41.2545 24.9036C41.3089 24.8732 41.4318 24.755 41.2382 24.7707C41.2691 24.773 41.2966 24.7722 41.3205 24.7685C41.5021 24.7392 41.5113 24.6829 41.3483 24.5996C40.8183 24.3293 40.3038 24.0211 39.8047 23.675L41.5036 21.5095Z" fill="#4E8B52"/>
<path d="M35.1216 21.6041L37.5588 24.7426L34.8029 24.8225L33.0681 22.7246C33.7132 22.2862 34.3977 21.9127 35.1216 21.6041Z" fill="#5DAF5A"/>
<path d="M29.7722 22.0106C30.4965 22.8248 29.7966 23.9971 28.7142 23.7651C28.3943 23.6964 28.0466 23.4509 27.7372 23.2786L29.7722 22.0106Z" fill="#2AA4A5"/>
<path d="M17.7082 22.0726L17.7082 24.8315C16.9387 24.8781 16.1692 24.8781 15.3997 24.8315L15.3708 23.3394L17.7082 22.0726ZM21.2139 22.6919C21.8474 23.0988 22.4991 23.4581 23.1689 23.7696C23.1086 24.0969 23.114 24.4483 23.1851 24.8237L20.8129 24.8642C20.7032 24.0932 20.8368 23.3691 21.2139 22.6919Z" fill="#41A6DA"/>
<path d="M39.8047 23.675C40.3038 24.0211 40.8183 24.3293 41.3483 24.5996C41.5113 24.6829 41.5021 24.7392 41.3205 24.7685C41.2966 24.7722 41.2691 24.773 41.2382 24.7707L38.9494 24.7707L39.8047 23.675Z" fill="#5DAF5A"/>
<path d="M37.5588 24.7426L38.1672 25.5072C38.2128 25.5644 38.3053 25.5635 38.3503 25.5072L38.9494 24.7707L41.2382 24.7707C41.4318 24.755 41.3089 24.8732 41.2545 24.9036C40.6464 25.2362 37.0669 27.7579 36.5691 27.4498L36.6989 27.2651C36.7271 27.2253 36.7252 27.1689 36.6942 27.1311L34.8029 24.8225L37.5588 24.7426Z" fill="#1A995A"/>
<path d="M6.04174 24.8034H8.32127L8.29229 27.309L6.64551 28.1862C6.38129 28.1389 6.18003 28.0061 6.04173 27.7876L6.04174 24.8034ZM8.55768 24.8079L11.368 24.7989L11.7782 25.3101L9.83245 26.4126L8.55768 24.8079Z" fill="#21628A"/>
<path d="M23.1851 24.8237C23.2971 25.0346 23.476 25.2336 23.7217 25.4205L21.5662 26.6941C21.0833 26.1784 20.8322 25.5684 20.8129 24.8642L23.1851 24.8237ZM15.3997 24.8315C16.1692 24.8781 16.9387 24.8781 17.7082 24.8315L17.6793 27.5342L15.3708 26.2955L15.3997 24.8315Z" fill="#2A4B38"/>
<path d="M11.7782 25.3101L12.8421 26.6536C12.8173 26.9967 12.8019 27.3371 12.7957 27.675C12.7818 28.407 12.7899 29.1389 12.82 29.8709C12.8231 29.9475 12.7737 29.9771 12.6717 29.9599L9.83245 26.4126L11.7782 25.3101Z" fill="#83949E"/>
<path d="M23.7217 25.4205C24.1196 25.6315 24.5503 25.812 25.0138 25.9622L24.9107 28.2324C23.7912 27.9892 22.3554 27.5342 21.5662 26.6941L23.7217 25.4205Z" fill="#2B5D68"/>
<path d="M25.0138 25.9622C26.7522 26.3766 29.4199 26.8405 30.2578 28.6277L28.1765 29.8427C27.677 28.7763 25.9618 28.4621 24.9107 28.2324L25.0138 25.9622Z" fill="#393969"/>
<path d="M15.3708 26.2955L17.6793 27.5342L17.6793 28.9419L13.6521 31.1941L12.6717 29.9599C12.7737 29.9771 12.8231 29.9475 12.82 29.8709C12.7899 29.1389 12.7818 28.407 12.7957 27.675C12.8019 27.3371 12.8173 26.9967 12.8421 26.6536L15.1587 29.559C15.297 29.7316 15.3665 29.7087 15.3673 29.4903L15.3708 26.2955Z" fill="#717B84"/>
<path d="M8.29229 27.309L8.32705 29.1502L6.62118 28.2662L6.64551 28.1862L8.29229 27.309Z" fill="#83949E"/>
<path d="M6.04173 27.7876C6.18003 28.0061 6.38129 28.1389 6.64551 28.1862L6.62118 28.2662L6.01276 28.604L6.04173 27.7876Z" fill="#2F82B6"/>
<path d="M6.62118 28.2662L8.32705 29.1502C8.37573 30.8371 8.37186 32.0724 8.31547 32.8562C8.21348 34.2684 6.13444 34.2244 6.04637 32.7909C5.99924 32.0229 5.98804 30.6273 6.01276 28.604L6.62118 28.2662Z" fill="#A6D4EB"/>
<path d="M35.8158 28.3506L37.699 29.4205L35.8494 31.7335C35.7751 31.7036 35.7314 31.6352 35.6618 31.6055C35.0574 31.3481 33.8171 31.5698 33.1504 31.5601L35.8158 28.3506Z" fill="#2AA4A5"/>
<path d="M30.2578 28.6277C30.682 29.6569 30.6707 30.6813 30.2242 31.7008C29.2955 31.7759 28.3684 31.7571 27.4429 31.6445C28.1057 31.1963 28.3503 30.5957 28.1765 29.8427L30.2578 28.6277Z" fill="#68A2D0"/>
<path d="M17.6793 28.9419L17.6793 31.6164C16.4902 31.7222 15.4136 31.5747 14.0299 31.6603L13.6521 31.1941L17.6793 28.9419Z" fill="#2F82B6"/>
<path d="M41.5905 29.4407L42.7784 30.8562C42.379 31.0702 42.0104 31.3251 41.6728 31.6209L41.6149 31.6119L41.5569 31.5837L41.5905 29.4407Z" fill="#2B5D68"/>
<path d="M23.6243 31.5679L20.3238 31.6456C20.3945 30.5657 21.2938 30.0882 22.2128 30.7234C22.6555 31.0297 23.126 31.3112 23.6243 31.5679Z" fill="#2F82B6"/>
<path d="M39.617 30.5691C40.2667 30.8341 40.8763 31.1644 41.4457 31.5601C41.4227 31.7686 40.9175 31.9198 40.7503 32.0105L39.617 30.5691Z" fill="#2AA4A5"/>
<path d="M42.7784 30.8562L43.3578 31.5601C43.1377 31.5803 41.8212 31.5252 41.7018 31.649L41.6728 31.6209C42.0104 31.3251 42.379 31.0702 42.7784 30.8562Z" fill="#2A4B38"/>
<path d="M23.6243 31.5679L24.5213 31.8461C24.3996 32.0747 22.6184 32.9801 22.2615 33.1974C21.6311 32.9429 20.5579 32.4519 20.3238 31.6456L23.6243 31.5679Z" fill="#41A6DA"/>
<path d="M33.1504 31.5601C33.8171 31.5698 35.0574 31.3481 35.6618 31.6055C35.7314 31.6352 35.7751 31.7036 35.8494 31.7335C35.4909 32.2245 35.117 32.7042 34.7276 33.1727C34.278 33.7132 33.8109 34.0859 33.1156 33.8213C31.9579 33.381 32.5732 32.1738 33.1504 31.5601Z" fill="#299192"/>
<path d="M41.4457 31.5601L41.5569 31.5837L41.6149 31.6119C41.4412 31.6224 41.5101 32.7631 41.5048 32.9429L40.7503 32.0105C40.9175 31.9198 41.4227 31.7686 41.4457 31.5601Z" fill="#94C351"/>
<path d="M43.3578 31.5601C43.6638 31.8889 44.0821 32.3787 43.986 32.9114L41.7018 31.649C41.8212 31.5252 43.1377 31.5803 43.3578 31.5601Z" fill="#4E8B52"/>
<path d="M17.6793 31.6164C17.692 32.5769 17.8902 33.8517 16.4729 33.8675C16.0788 33.5064 15.6342 33.232 15.139 33.0443C14.7488 32.6216 14.3791 32.1603 14.0299 31.6603C15.4136 31.5747 16.4902 31.7222 17.6793 31.6164Z" fill="#41A6DA"/>
<path d="M27.4429 31.6445C28.3684 31.7571 29.2955 31.7759 30.2242 31.7008C29.7985 32.5875 29.1294 33.1989 28.217 33.5353C27.3811 32.976 26.5196 32.4591 25.6327 31.9846C26.2909 31.9891 26.8943 31.8757 27.4429 31.6445Z" fill="#5081BB"/>
<path d="M41.6149 31.6119L41.6728 31.6209L41.7018 31.649L43.986 32.9114C43.8894 33.5443 43.5027 33.8697 42.8259 33.8877C42.2129 33.9058 41.7945 33.4609 41.5048 32.9429C41.5101 32.7631 41.4412 31.6224 41.6149 31.6119Z" fill="#84C6BA"/>
<path d="M24.5213 31.8461L24.9605 31.9261C25.003 32.6002 25.0015 33.2744 24.9559 33.9486C24.0072 33.8622 23.109 33.6118 22.2615 33.1974C22.6184 32.9801 24.3996 32.0747 24.5213 31.8461Z" fill="#7BC3EB"/>
<path d="M24.9605 31.9261L25.6327 31.9846C26.5196 32.4591 27.3811 32.976 28.217 33.5353C27.1547 33.9482 26.0677 34.0859 24.9559 33.9486C25.0015 33.2744 25.003 32.6002 24.9605 31.9261Z" fill="#41A6DA"/>
<path d="M16.4729 33.8675C16.0788 33.5064 15.6342 33.232 15.139 33.0443C15.4279 33.563 15.8725 33.8374 16.4729 33.8675Z" fill="#7BC3EB"/>
</svg>
