<svg width="50" height="50" viewBox="0 0 50 50" fill="none" xmlns="http://www.w3.org/2000/svg">
<path d="M13.9188 16.741C9.54264 16.741 6 20.4352 6 25C6 29.5648 9.54264 33.259 13.9188 33.259C14.3877 33.259 14.8358 33.2166 15.2838 33.1316C16.8259 37.155 20.5978 40 25.0052 40C29.1209 40 32.674 37.5265 34.3828 33.9278C33.5075 33.7473 32.674 33.4395 31.8925 32.9936C30.5588 35.5414 27.9748 37.2718 25.0052 37.2718C21.7439 37.2718 18.9306 35.1805 17.7532 32.2187C17.5032 31.603 17.3364 30.9448 17.2427 30.2654C17.2427 30.2654 17.2427 30.2654 17.2427 30.2548C17.1906 29.9788 16.9613 29.7771 16.68 29.7771C15.7273 29.7771 14.9067 30.5202 13.9084 30.5202C10.9805 30.5202 8.60488 28.0361 8.60488 24.9894C8.60488 21.9427 10.9805 19.4586 13.9084 19.4586C16.0248 19.4586 17.9415 20.8475 18.7639 22.8025C18.9459 23.1734 19.3924 23.3618 19.7121 23.0361C20.1706 22.5902 20.6811 22.2081 21.2438 21.8896C22.3587 21.2527 23.6403 20.8917 24.9948 20.8917C27.7888 20.8917 30.432 22.5136 31.7883 24.9894C32.3197 25.9342 32.6636 27.0064 32.7886 28.1423C32.9679 28.3249 33.1438 28.5077 33.3408 28.673C33.9556 29.172 34.6745 29.4904 35.4456 29.6072C35.5415 28.044 35.2697 26.4546 34.7058 25C33.145 20.9884 29.2845 18.1847 25.0052 18.1847C23.1401 18.1847 21.4001 18.6943 19.8892 19.5754C18.4167 17.8165 16.1921 16.741 13.9188 16.741Z" fill="url(#paint0_linear_10351_50)"/>
<path d="M25.0052 10C20.8895 10 17.3364 12.4735 15.6276 16.0722C16.5029 16.2527 17.3364 16.5605 18.1179 17.0064C19.4516 14.4586 22.0356 12.7282 25.0052 12.7282C28.2665 12.7282 31.0798 14.8195 32.2572 17.7813C32.5073 18.397 32.674 19.0552 32.7678 19.7346C32.8199 20.0106 33.0491 20.2123 33.3304 20.2123C34.2153 20.2123 35.1068 19.4692 36.102 19.4692C39.0299 19.4692 41.4055 21.9533 41.4055 25C41.4055 28.0467 39.0299 30.5308 36.102 30.5308C34.0013 30.5308 32.0684 29.1407 31.2465 27.1868C31.0645 26.816 30.618 26.6276 30.2983 26.9533C29.8399 27.3992 29.3293 27.7813 28.7667 28.0998C26.4585 29.4185 23.5728 29.4185 21.2646 28.0998C19.0247 26.8446 17.5055 24.4238 17.2218 21.8471C16.4754 21.0867 15.6293 20.5434 14.5648 20.3822C14.469 21.9454 14.7408 23.5348 15.3046 24.9894C16.1859 27.2544 17.8045 29.2085 19.8892 30.414C21.4001 31.3057 23.1505 31.8047 25.0052 31.8047C26.8703 31.8047 28.6104 31.2951 30.1212 30.414C30.7255 31.1359 31.4445 31.741 32.2468 32.2081C33.3928 32.8639 34.687 33.2484 36.0812 33.2484C40.4574 33.2484 44 29.5541 44 24.9894C44 20.4352 40.4574 16.7304 36.0812 16.7304C35.6123 16.7304 35.1538 16.7728 34.7162 16.8577C33.195 12.845 29.4231 10 25.0052 10Z" fill="url(#paint1_linear_10351_50)"/>
<defs>
<linearGradient id="paint0_linear_10351_50" x1="5.99987" y1="25.0034" x2="44.0132" y2="25.0034" gradientUnits="userSpaceOnUse">
<stop offset="5.32779e-08" stop-color="#0658D4"/>
<stop offset="1" stop-color="#2C7EF9"/>
</linearGradient>
<linearGradient id="paint1_linear_10351_50" x1="47.8663" y1="30.8883" x2="23.0939" y2="20.4679" gradientUnits="userSpaceOnUse">
<stop offset="1.11884e-07" stop-color="#198852"/>
<stop offset="1" stop-color="#43B476"/>
</linearGradient>
</defs>
</svg>
