<svg width="50" height="50" viewBox="0 0 50 50" fill="none" xmlns="http://www.w3.org/2000/svg">
<rect width="50" height="50" fill="#6667AB"/>
<path d="M9.16564 19.6501C9.05987 20.4205 9 21.2067 9 21.993C9 25.8326 10.3451 29.3549 12.6121 32.1209L14.502 29.9895C12.8097 27.7824 11.8118 25.0004 11.8118 21.993C11.8118 21.1928 11.8877 20.4205 12.0234 19.6501C12.1591 18.818 12.4006 18.0017 12.7039 17.2314C13.4143 15.3875 14.5179 13.755 15.9229 12.4239C18.2957 10.1868 21.4847 8.81185 24.993 8.81185C27.5015 8.81185 29.8444 9.50633 31.8261 10.7157L29.9222 12.847C28.4554 12.0607 26.7791 11.6217 24.995 11.6217C22.2131 11.6217 19.6746 12.7253 17.8007 14.5094C16.3799 15.8844 15.3521 17.6525 14.8831 19.6481H22.4266L23.1211 20.4185L24.995 22.5199L27.5794 19.6481L32.1893 14.5094L34.0791 12.4239L35.953 10.3385C35.2586 9.68793 34.5321 9.11319 33.7319 8.60031C31.2194 6.95192 28.2259 6 24.993 6C20.7603 6 16.9047 7.64839 14.049 10.3385C12.658 11.6536 11.4945 13.2102 10.6324 14.9345C9.92198 16.4012 9.42307 17.9878 9.16564 19.6501ZM16.4517 32.045L14.5618 34.1305C16.0127 35.3698 17.691 36.3676 19.505 37.0321C20.4869 37.3794 21.5146 37.6528 22.5743 37.8184C23.3746 37.9401 24.1768 38 24.993 38C26.9288 38 28.7727 37.6528 30.479 37.0321C32.307 36.3676 33.9853 35.3698 35.4222 34.1305C38.8387 31.1989 41 26.8444 41 21.993C41 21.2067 40.9401 20.4205 40.8184 19.6501C40.7426 19.0614 40.6228 18.4707 40.4712 17.9119C40.1997 16.8682 39.8206 15.8864 39.3536 14.9345L37.2981 17.2314L35.1209 19.6501V19.6661L28.7727 26.7247L24.993 30.9275L21.2292 26.7247L19.3394 24.6233L14.8811 19.6661C14.7155 20.4065 14.6237 21.1928 14.6237 21.993C14.6237 24.1703 15.2882 26.1958 16.4218 27.8582C16.9666 28.6445 17.6012 29.3389 18.3256 29.9436C19.8223 31.2128 21.6962 32.059 23.7517 32.3025C24.1608 32.3623 24.5839 32.3783 24.991 32.3783C25.3981 32.3783 25.8372 32.3623 26.2463 32.3025C26.7751 32.2426 27.304 32.1368 27.8029 32.0011C29.2397 31.592 30.5548 30.8836 31.6724 29.9456C33.5164 28.403 34.8155 26.2118 35.2406 23.7332L38.1123 20.5282C38.1582 21.0112 38.1882 21.5101 38.1882 21.995C38.1882 26.0162 36.3901 29.6283 33.5483 32.047C32.0815 33.2863 30.3433 34.2243 28.4235 34.7371C27.3359 35.0385 26.1864 35.1901 24.993 35.1901H24.9471C23.7677 35.1901 22.6501 35.0245 21.5765 34.7371C19.6567 34.2223 17.9185 33.2863 16.4517 32.047V32.045Z" fill="white"/>
<path d="M30.2621 39V41.2497L30.2698 41.2404C30.4196 41.0604 30.5978 40.9216 30.8043 40.8239C31.0135 40.7237 31.2446 40.6735 31.4976 40.6735C31.7042 40.6735 31.8901 40.7018 32.0554 40.7584C32.2206 40.8123 32.3614 40.8997 32.4776 41.0206C32.5963 41.1414 32.6867 41.2982 32.7487 41.491C32.8106 41.6812 32.8416 41.9139 32.8416 42.1889V44.9229H32.1212V42.1812C32.1212 41.9627 32.0889 41.7879 32.0244 41.6568C31.9598 41.5231 31.8656 41.4267 31.7416 41.3676C31.6177 41.3059 31.4654 41.2751 31.2846 41.2751C31.1064 41.2751 30.9438 41.3123 30.7966 41.3869C30.652 41.4614 30.5268 41.5643 30.4209 41.6954C30.3604 41.7721 30.3075 41.8554 30.2621 41.9454V44.9229H29.5455V39H30.2621Z" fill="white"/>
<path d="M34.0384 44.2404C33.9636 44.3226 33.9261 44.4242 33.9261 44.545C33.9261 44.6632 33.9636 44.7635 34.0384 44.8458C34.1159 44.928 34.2269 44.9692 34.3715 44.9692C34.5161 44.9692 34.6259 44.928 34.7008 44.8458C34.7782 44.7635 34.817 44.6632 34.817 44.545C34.817 44.4242 34.7782 44.3226 34.7008 44.2404C34.6259 44.1555 34.5161 44.1131 34.3715 44.1131C34.2269 44.1131 34.1159 44.1555 34.0384 44.2404Z" fill="white"/>
<path d="M36.0176 44.545C36.0176 44.4242 36.0551 44.3226 36.13 44.2404C36.2074 44.1555 36.3185 44.1131 36.4631 44.1131C36.6077 44.1131 36.7174 44.1555 36.7923 44.2404C36.8697 44.3226 36.9085 44.4242 36.9085 44.545C36.9085 44.6632 36.8697 44.7635 36.7923 44.8458C36.7174 44.928 36.6077 44.9692 36.4631 44.9692C36.3185 44.9692 36.2074 44.928 36.13 44.8458C36.0551 44.7635 36.0176 44.6632 36.0176 44.545Z" fill="white"/>
<path d="M38.1092 44.545C38.1092 44.4242 38.1466 44.3226 38.2215 44.2404C38.299 44.1555 38.41 44.1131 38.5546 44.1131C38.6992 44.1131 38.8089 44.1555 38.8838 44.2404C38.9613 44.3226 39 44.4242 39 44.545C39 44.6632 38.9613 44.7635 38.8838 44.8458C38.8089 44.928 38.6992 44.9692 38.5546 44.9692C38.41 44.9692 38.299 44.928 38.2215 44.8458C38.1466 44.7635 38.1092 44.6632 38.1092 44.545Z" fill="white"/>
<path d="M27.5431 44.3098C27.3985 44.3792 27.241 44.4139 27.0706 44.4139C26.8485 44.4139 26.6626 44.3715 26.5128 44.2866C26.3657 44.1992 26.2482 44.0835 26.1604 43.9396C26.0752 43.7956 26.0145 43.635 25.9783 43.4576C25.9422 43.2802 25.9241 43.1003 25.9241 42.9177V42.7558C25.9241 42.5733 25.9422 42.3946 25.9783 42.2198C26.0171 42.0424 26.079 41.8817 26.1643 41.7378C26.252 41.5913 26.3695 41.4756 26.5167 41.3907C26.6665 41.3033 26.8511 41.2596 27.0706 41.2596C27.2617 41.2596 27.4282 41.3021 27.5702 41.3869C27.7148 41.4692 27.8284 41.5797 27.9111 41.7185C27.9963 41.8573 28.0453 42.0129 28.0582 42.1851H28.7399C28.727 41.8972 28.6495 41.6401 28.5075 41.4139C28.3681 41.1851 28.1757 41.0051 27.9304 40.874C27.6851 40.7404 27.3985 40.6735 27.0706 40.6735C26.7556 40.6735 26.4806 40.7288 26.2456 40.8393C26.0132 40.9499 25.8195 41.1015 25.6646 41.2943C25.5123 41.4871 25.3974 41.7095 25.3199 41.9614C25.245 42.2108 25.2076 42.4756 25.2076 42.7558V42.9177C25.2076 43.1979 25.245 43.464 25.3199 43.7159C25.3974 43.9653 25.5123 44.1864 25.6646 44.3792C25.8195 44.572 26.0132 44.7236 26.2456 44.8342C26.4806 44.9447 26.7556 45 27.0706 45C27.3675 45 27.6399 44.9357 27.8878 44.8072C28.1357 44.6761 28.3358 44.5051 28.4882 44.2943C28.6431 44.081 28.727 43.8509 28.7399 43.6041H28.0582C28.0453 43.7609 27.9924 43.901 27.8994 44.0244C27.8065 44.1452 27.6877 44.2404 27.5431 44.3098Z" fill="white"/>
<path d="M24.2432 40.7506V44.9229H23.5227V40.7506H24.2432Z" fill="white"/>
<path d="M23.4685 39.644C23.4685 39.5283 23.5034 39.4306 23.5731 39.3509C23.6454 39.2712 23.7513 39.2314 23.8907 39.2314C24.0275 39.2314 24.1321 39.2712 24.2044 39.3509C24.2793 39.4306 24.3167 39.5283 24.3167 39.644C24.3167 39.7545 24.2793 39.8496 24.2044 39.9293C24.1321 40.0064 24.0275 40.045 23.8907 40.045C23.7513 40.045 23.6454 40.0064 23.5731 39.9293C23.5034 39.8496 23.4685 39.7545 23.4685 39.644Z" fill="white"/>
<path d="M21.4932 41.9567V44.9229H20.7766V40.7506H21.4738L21.488 41.2295L21.4932 41.2211C21.5991 41.0488 21.7333 40.9152 21.896 40.8201C22.0613 40.7224 22.2575 40.6735 22.4847 40.6735C22.5364 40.6735 22.5958 40.6799 22.6629 40.6928C22.73 40.7031 22.7765 40.7147 22.8023 40.7275L22.7985 41.3907C22.7391 41.3779 22.6823 41.3702 22.628 41.3676C22.5764 41.3625 22.517 41.3599 22.4499 41.3599C22.2846 41.3599 22.1387 41.3856 22.0122 41.437C21.8857 41.4884 21.7785 41.5604 21.6907 41.653C21.6093 41.7387 21.5435 41.84 21.4932 41.9567Z" fill="white"/>
<path d="M17.1165 41.2404C17.1084 41.2501 17.1004 41.2598 17.0926 41.2697L17.07 40.7506H16.3922V44.9229H17.1087V41.9454C17.1542 41.8554 17.2071 41.7721 17.2675 41.6954C17.3734 41.5643 17.4986 41.4614 17.6432 41.3869C17.7904 41.3123 17.9531 41.2751 18.1313 41.2751C18.312 41.2751 18.4644 41.3059 18.5883 41.3676C18.7122 41.4267 18.8065 41.5231 18.871 41.6568C18.9356 41.7879 18.9679 41.9627 18.9679 42.1812V44.9229H19.6883V42.1889C19.6883 41.9139 19.6573 41.6812 19.5953 41.491C19.5334 41.2982 19.443 41.1414 19.3242 41.0206C19.208 40.8997 19.0673 40.8123 18.902 40.7584C18.7368 40.7018 18.5509 40.6735 18.3443 40.6735C18.0912 40.6735 17.8601 40.7237 17.651 40.8239C17.4444 40.9216 17.2662 41.0604 17.1165 41.2404Z" fill="white"/>
<path fill-rule="evenodd" clip-rule="evenodd" d="M13.131 44.8535C13.3685 44.9512 13.6332 45 13.925 45C14.2013 45 14.4401 44.9614 14.6415 44.8843C14.8455 44.8072 15.0172 44.7069 15.1566 44.5835C15.2961 44.4602 15.411 44.3303 15.5014 44.1941L15.0676 43.8509C14.9359 44.0231 14.7822 44.1607 14.6067 44.2635C14.4311 44.3663 14.2168 44.4177 13.9637 44.4177C13.7675 44.4177 13.5919 44.3805 13.437 44.3059C13.2846 44.2314 13.1542 44.1285 13.0458 43.9974C12.9399 43.8663 12.8586 43.7147 12.8018 43.5424C12.7525 43.3836 12.7256 43.2152 12.7211 43.0373H15.5556V42.7172C15.5556 42.4242 15.522 42.1542 15.4549 41.9075C15.3877 41.6581 15.2845 41.4422 15.145 41.2596C15.0056 41.0746 14.8261 40.9306 14.6067 40.8278C14.3898 40.7249 14.1315 40.6735 13.832 40.6735C13.597 40.6735 13.3698 40.7211 13.1503 40.8162C12.9309 40.9113 12.7346 41.0514 12.5616 41.2365C12.3886 41.4216 12.2518 41.6478 12.1511 41.9152C12.0504 42.1799 12 42.482 12 42.8213V42.9833C12 43.2763 12.0452 43.5463 12.1356 43.7931C12.2259 44.0398 12.355 44.2532 12.5229 44.4332C12.6933 44.6131 12.896 44.7532 13.131 44.8535ZM12.7421 42.455H14.839V42.401C14.8287 42.2159 14.79 42.036 14.7229 41.8612C14.6583 41.6864 14.555 41.5424 14.413 41.4293C14.271 41.3162 14.0773 41.2596 13.832 41.2596C13.6693 41.2596 13.5196 41.2943 13.3827 41.3638C13.2459 41.4306 13.1284 41.5308 13.0303 41.6645C12.9321 41.7982 12.856 41.9614 12.8018 42.1542C12.7755 42.2476 12.7556 42.3478 12.7421 42.455Z" fill="white"/>
</svg>
