<svg width="50" height="50" viewBox="0 0 50 50" fill="none" xmlns="http://www.w3.org/2000/svg">
<path d="M9.16564 19.6501C9.05987 20.4205 9 21.2067 9 21.993C9 25.8326 10.3451 29.3549 12.6121 32.1209L14.502 29.9895C12.8097 27.7823 11.8118 25.0004 11.8118 21.993C11.8118 21.1928 11.8877 20.4205 12.0234 19.6501C12.1591 18.818 12.4006 18.0017 12.7039 17.2314C13.4143 15.3875 14.5179 13.755 15.9229 12.4239C18.2957 10.1868 21.4847 8.81185 24.993 8.81185C27.5015 8.81185 29.8444 9.50633 31.8261 10.7157L29.9222 12.847C28.4554 12.0607 26.7791 11.6217 24.995 11.6217C22.2131 11.6217 19.6746 12.7253 17.8007 14.5094C16.3799 15.8844 15.3521 17.6525 14.8831 19.6481H22.4266L23.1211 20.4185L24.995 22.5199L27.5794 19.6481L32.1893 14.5094L34.0791 12.4239L35.953 10.3385C35.2586 9.68793 34.5321 9.11319 33.7319 8.60031C31.2194 6.95192 28.2259 6 24.993 6C20.7603 6 16.9047 7.64839 14.049 10.3385C12.658 11.6536 11.4945 13.2102 10.6324 14.9345C9.92198 16.4012 9.42307 17.9878 9.16564 19.6501ZM16.4517 32.045L14.5618 34.1305C16.0127 35.3698 17.691 36.3676 19.505 37.0321C20.4869 37.3794 21.5146 37.6528 22.5743 37.8184C23.3746 37.9401 24.1768 38 24.993 38C26.9288 38 28.7727 37.6528 30.479 37.0321C32.307 36.3676 33.9853 35.3698 35.4222 34.1305C38.8387 31.1989 41 26.8444 41 21.993C41 21.2067 40.9401 20.4205 40.8184 19.6501C40.7426 19.0614 40.6228 18.4707 40.4712 17.9119C40.1997 16.8682 39.8206 15.8864 39.3536 14.9345L37.2981 17.2314L35.1209 19.6501V19.6661L28.7727 26.7247L24.993 30.9275L21.2292 26.7247L19.3394 24.6233L14.8811 19.6661C14.7155 20.4065 14.6237 21.1928 14.6237 21.993C14.6237 24.1703 15.2882 26.1958 16.4218 27.8582C16.9666 28.6445 17.6012 29.3389 18.3256 29.9436C19.8223 31.2128 21.6962 32.059 23.7517 32.3025C24.1608 32.3623 24.5839 32.3783 24.991 32.3783C25.3981 32.3783 25.8372 32.3623 26.2463 32.3025C26.7751 32.2426 27.304 32.1368 27.8029 32.0011C29.2397 31.592 30.5548 30.8836 31.6724 29.9456C33.5164 28.403 34.8155 26.2118 35.2406 23.7332L38.1123 20.5282C38.1582 21.0112 38.1881 21.5101 38.1881 21.995C38.1881 26.0162 36.3901 29.6283 33.5483 32.047C32.0815 33.2863 30.3433 34.2243 28.4235 34.7371C27.3359 35.0385 26.1864 35.1901 24.993 35.1901H24.9471C23.7677 35.1901 22.6501 35.0245 21.5765 34.7371C19.6567 34.2223 17.9185 33.2863 16.4517 32.047V32.045Z" fill="#6667AB"/>
<path d="M30.4766 39.5V42.3488L30.4863 42.3369C30.6751 42.109 30.8997 41.9333 31.1602 41.8096C31.4238 41.6826 31.7152 41.6191 32.0342 41.6191C32.2946 41.6191 32.529 41.6549 32.7373 41.7266C32.9456 41.7949 33.123 41.9056 33.2695 42.0586C33.4193 42.2116 33.5332 42.4102 33.6113 42.6543C33.6895 42.8952 33.7285 43.1898 33.7285 43.5381V47H32.8203V43.5283C32.8203 43.2516 32.7796 43.0303 32.6982 42.8643C32.6169 42.695 32.498 42.5729 32.3418 42.498C32.1855 42.4199 31.9935 42.3809 31.7656 42.3809C31.541 42.3809 31.3359 42.4281 31.1504 42.5225C30.9681 42.6169 30.8102 42.7471 30.6768 42.9131C30.6005 43.0103 30.5338 43.1158 30.4766 43.2297V47H29.5732V39.5H30.4766Z" fill="#1C1D1F"/>
<path d="M35.2373 46.1357C35.1429 46.2399 35.0957 46.3685 35.0957 46.5215C35.0957 46.6712 35.1429 46.7982 35.2373 46.9023C35.335 47.0065 35.4749 47.0586 35.6572 47.0586C35.8395 47.0586 35.9779 47.0065 36.0723 46.9023C36.1699 46.7982 36.2188 46.6712 36.2188 46.5215C36.2188 46.3685 36.1699 46.2399 36.0723 46.1357C35.9779 46.0283 35.8395 45.9746 35.6572 45.9746C35.4749 45.9746 35.335 46.0283 35.2373 46.1357Z" fill="#1C1D1F"/>
<path d="M37.7324 46.5215C37.7324 46.3685 37.7796 46.2399 37.874 46.1357C37.9717 46.0283 38.1117 45.9746 38.2939 45.9746C38.4762 45.9746 38.6146 46.0283 38.709 46.1357C38.8066 46.2399 38.8555 46.3685 38.8555 46.5215C38.8555 46.6712 38.8066 46.7982 38.709 46.9023C38.6146 47.0065 38.4762 47.0586 38.2939 47.0586C38.1117 47.0586 37.9717 47.0065 37.874 46.9023C37.7796 46.7982 37.7324 46.6712 37.7324 46.5215Z" fill="#1C1D1F"/>
<path d="M40.3691 46.5215C40.3691 46.3685 40.4163 46.2399 40.5107 46.1357C40.6084 46.0283 40.7484 45.9746 40.9307 45.9746C41.113 45.9746 41.2513 46.0283 41.3457 46.1357C41.4434 46.2399 41.4922 46.3685 41.4922 46.5215C41.4922 46.6712 41.4434 46.7982 41.3457 46.9023C41.2513 47.0065 41.113 47.0586 40.9307 47.0586C40.7484 47.0586 40.6084 47.0065 40.5107 46.9023C40.4163 46.7982 40.3691 46.6712 40.3691 46.5215Z" fill="#1C1D1F"/>
<path d="M27.0488 46.2236C26.8665 46.3115 26.668 46.3555 26.4531 46.3555C26.1732 46.3555 25.9388 46.3018 25.75 46.1943C25.5645 46.0837 25.4163 45.9372 25.3057 45.7549C25.1982 45.5726 25.1217 45.3691 25.0762 45.1445C25.0306 44.9199 25.0078 44.6921 25.0078 44.4609V44.2559C25.0078 44.0247 25.0306 43.7985 25.0762 43.5771C25.125 43.3525 25.2031 43.1491 25.3105 42.9668C25.4212 42.7812 25.5693 42.6348 25.7549 42.5273C25.9437 42.4167 26.1764 42.3613 26.4531 42.3613C26.694 42.3613 26.904 42.415 27.083 42.5225C27.2653 42.6266 27.4085 42.7666 27.5127 42.9424C27.6201 43.1182 27.682 43.3151 27.6982 43.5332H28.5576C28.5413 43.1686 28.4437 42.8431 28.2646 42.5566C28.0889 42.2669 27.8464 42.0391 27.5371 41.873C27.2279 41.7038 26.8665 41.6191 26.4531 41.6191C26.056 41.6191 25.7093 41.6891 25.4131 41.8291C25.1201 41.9691 24.876 42.1611 24.6807 42.4053C24.4886 42.6494 24.3438 42.931 24.2461 43.25C24.1517 43.5658 24.1045 43.901 24.1045 44.2559V44.4609C24.1045 44.8158 24.1517 45.1527 24.2461 45.4717C24.3438 45.7874 24.4886 46.0674 24.6807 46.3115C24.876 46.5557 25.1201 46.7477 25.4131 46.8877C25.7093 47.0277 26.056 47.0977 26.4531 47.0977C26.8275 47.0977 27.1709 47.0163 27.4834 46.8535C27.7959 46.6875 28.0482 46.471 28.2402 46.2041C28.4355 45.9339 28.5413 45.6426 28.5576 45.3301H27.6982C27.682 45.5286 27.6152 45.7061 27.498 45.8623C27.3809 46.0153 27.2311 46.1357 27.0488 46.2236Z" fill="#1C1D1F"/>
<path d="M22.8887 41.7168V47H21.9805V41.7168H22.8887Z" fill="#1C1D1F"/>
<path d="M21.9121 40.3154C21.9121 40.1689 21.9561 40.0452 22.0439 39.9443C22.1351 39.8434 22.2686 39.793 22.4443 39.793C22.6169 39.793 22.7487 39.8434 22.8398 39.9443C22.9342 40.0452 22.9814 40.1689 22.9814 40.3154C22.9814 40.4554 22.9342 40.5758 22.8398 40.6768C22.7487 40.7744 22.6169 40.8232 22.4443 40.8232C22.2686 40.8232 22.1351 40.7744 22.0439 40.6768C21.9561 40.5758 21.9121 40.4554 21.9121 40.3154Z" fill="#1C1D1F"/>
<path d="M19.4219 43.244V47H18.5186V41.7168H19.3975L19.4153 42.3232L19.4219 42.3125C19.5553 42.0944 19.7246 41.9251 19.9297 41.8047C20.138 41.681 20.3854 41.6191 20.6719 41.6191C20.737 41.6191 20.8118 41.6273 20.8965 41.6436C20.9811 41.6566 21.0397 41.6712 21.0723 41.6875L21.0674 42.5273C20.9925 42.5111 20.9209 42.5013 20.8525 42.498C20.7874 42.4915 20.7126 42.4883 20.6279 42.4883C20.4196 42.4883 20.2357 42.5208 20.0762 42.5859C19.9167 42.651 19.7816 42.7422 19.6709 42.8594C19.5683 42.968 19.4853 43.0962 19.4219 43.244Z" fill="#1C1D1F"/>
<path d="M13.9043 42.3369C13.8941 42.3492 13.8841 42.3616 13.8742 42.3741L13.8457 41.7168H12.9912V47H13.8945V43.2297C13.9518 43.1158 14.0185 43.0103 14.0947 42.9131C14.2282 42.7471 14.3861 42.6169 14.5684 42.5225C14.7539 42.4281 14.959 42.3809 15.1836 42.3809C15.4115 42.3809 15.6035 42.4199 15.7598 42.498C15.916 42.5729 16.0348 42.695 16.1162 42.8643C16.1976 43.0303 16.2383 43.2516 16.2383 43.5283V47H17.1465V43.5381C17.1465 43.1898 17.1074 42.8952 17.0293 42.6543C16.9512 42.4102 16.8372 42.2116 16.6875 42.0586C16.541 41.9056 16.3636 41.7949 16.1553 41.7266C15.9469 41.6549 15.7126 41.6191 15.4521 41.6191C15.1331 41.6191 14.8418 41.6826 14.5781 41.8096C14.3177 41.9333 14.0931 42.109 13.9043 42.3369Z" fill="#1C1D1F"/>
<path fill-rule="evenodd" clip-rule="evenodd" d="M8.87988 46.9121C9.17936 47.0358 9.51302 47.0977 9.88086 47.0977C10.2292 47.0977 10.5303 47.0488 10.7842 46.9512C11.0413 46.8535 11.2578 46.7266 11.4336 46.5703C11.6094 46.4141 11.7542 46.2497 11.8682 46.0771L11.3213 45.6426C11.1553 45.8607 10.9616 46.0348 10.7402 46.165C10.5189 46.2952 10.2487 46.3604 9.92969 46.3604C9.68229 46.3604 9.46094 46.3132 9.26562 46.2188C9.07357 46.1243 8.90918 45.9941 8.77246 45.8281C8.639 45.6621 8.53646 45.4701 8.46484 45.252C8.40273 45.0508 8.36884 44.8376 8.36316 44.6123H11.9365V44.207C11.9365 43.8359 11.8942 43.4941 11.8096 43.1816C11.7249 42.8659 11.5947 42.5924 11.4189 42.3613C11.2432 42.127 11.0169 41.9447 10.7402 41.8145C10.4668 41.6842 10.1413 41.6191 9.76367 41.6191C9.46745 41.6191 9.18099 41.6794 8.9043 41.7998C8.6276 41.9202 8.38021 42.0977 8.16211 42.332C7.94401 42.5664 7.77148 42.8529 7.64453 43.1914C7.51758 43.5267 7.4541 43.9092 7.4541 44.3389V44.5439C7.4541 44.915 7.51107 45.2568 7.625 45.5693C7.73893 45.8818 7.90169 46.152 8.11328 46.3799C8.32812 46.6077 8.58366 46.7852 8.87988 46.9121ZM8.3896 43.875H11.0332V43.8066C11.0202 43.5723 10.9714 43.3444 10.8867 43.123C10.8053 42.9017 10.6751 42.7194 10.4961 42.5762C10.3171 42.4329 10.0729 42.3613 9.76367 42.3613C9.55859 42.3613 9.36979 42.4053 9.19727 42.4932C9.02474 42.5778 8.87663 42.7048 8.75293 42.874C8.62923 43.0433 8.5332 43.25 8.46484 43.4941C8.43175 43.6123 8.40667 43.7393 8.3896 43.875Z" fill="#1C1D1F"/>
</svg>
