<svg width="50" height="50" viewBox="0 0 50 50" fill="none" xmlns="http://www.w3.org/2000/svg">
<path d="M19.585 9.92857C19.2347 9.3555 18.6131 9.00427 17.9414 9H7.95C6.87304 9 6 9.87304 6 10.95C6 11.3176 6.10293 11.6779 6.29714 11.99L8.86929 15.7693L21.73 12.9836L19.585 9.92857Z" fill="#C9F4FF"/>
<path d="M21.7856 13.0578C21.431 12.4846 20.8067 12.1338 20.1327 12.1292H10.1785C9.44885 12.0956 8.76214 12.4744 8.40146 13.1095C8.04078 13.7446 8.06722 14.5284 8.46988 15.1378L11.3392 19.6878L24.627 17.6078L21.7856 13.0578Z" fill="#51B9FF"/>
<path d="M11.2184 19.5022C10.892 18.9792 10.8268 18.3342 11.042 17.7565C11.3405 16.9946 12.081 16.4985 12.8991 16.5122H22.8534C23.5279 16.515 24.153 16.8662 24.5063 17.4408L33.4484 31.62C33.6426 31.9322 33.7455 32.2924 33.7455 32.66C33.7441 33.0275 33.6413 33.3873 33.4484 33.7L28.4527 41.6208C28.093 42.1858 27.4696 42.528 26.7998 42.528C26.13 42.528 25.5066 42.1858 25.147 41.6208L11.2184 19.5022Z" fill="#007BFC"/>
<path d="M36.4014 24.0336C36.761 24.5986 37.3844 24.9408 38.0542 24.9408C38.724 24.9408 39.3474 24.5986 39.7071 24.0336L44.7028 16.1129C44.897 15.8007 44.9999 15.4405 44.9999 15.0729C44.9985 14.7055 44.8956 14.3456 44.7028 14.0329L42.1028 9.92857C41.7482 9.35535 41.1239 9.00462 40.4499 9H30.4585C29.9413 9 29.4453 9.20545 29.0796 9.57114C28.7139 9.93684 28.5084 10.4328 28.5084 10.95C28.5049 11.3194 28.6116 11.6815 28.8149 11.99L36.4014 24.0336Z" fill="#007BFC"/>
</svg>
