<svg width="50" height="50" viewBox="0 0 50 50" fill="none" xmlns="http://www.w3.org/2000/svg">
<path d="M33.5702 37.0627V32.3881L36.1493 34.7254C35.3701 35.6119 34.5104 36.391 33.5702 37.0627ZM22.7701 39.6418L30.3194 32.4955V38.809C27.9292 39.7342 25.3042 40.0172 22.7701 39.6418ZM10.2776 26.5851L18.203 33.7045L30.2925 22.3134V28.0627L19.1164 38.6209C14.3343 36.5254 10.8418 31.9851 10.2776 26.5851ZM16.5642 12.8836V17.5851L13.9313 15.2209C14.7104 14.3343 15.597 13.5552 16.5642 12.8836ZM16.5642 27.8746L10.4388 22.3672C10.7343 20.7552 11.2716 19.2507 12.0507 17.8806L16.5642 21.9104V27.8746ZM27.2567 10.4119L19.7881 17.4507V11.1642C22.1806 10.2471 24.7367 10.0519 27.2567 10.4119ZM39.5343 27.6328C39.2657 29.2179 38.7284 30.6955 37.9761 32.0657L33.5433 28.0358V22.206L39.5343 27.6328ZM39.6955 23.3881L31.9313 16.3493L19.8418 27.7672V21.9104L30.9104 11.4597C35.6119 13.5284 39.1045 18.0149 39.6955 23.3881ZM25 7C15.1745 7 7 15.1774 7 25C7 34.8255 15.1774 43 25 43C34.8255 43 43 34.8226 43 25C43 15.1828 34.8198 7 25 7Z" fill="#50B84D"/>
</svg>
