<svg width="50" height="50" viewBox="0 0 50 50" fill="none" xmlns="http://www.w3.org/2000/svg">
<path d="M32.5902 8.34824C33.0472 10.007 33.5043 11.6686 33.9811 13.3214C34.5174 15.1694 35.073 17.0104 35.6478 18.8445C35.7741 19.2129 35.9769 19.5519 36.2435 19.8404C37.5568 21.2821 38.8959 22.6985 40.2777 24.1789C39.3255 25.035 38.4053 25.8703 37.473 26.6952C35.1618 28.7389 32.8385 30.7692 30.5411 32.8277C30.2581 33.1033 30.0362 33.4326 29.889 33.7953C28.8378 36.22 27.8019 38.6511 26.7811 41.0886C26.5983 41.5345 26.3652 41.6831 25.8853 41.6653C24.8189 41.6311 23.7524 41.6326 22.686 41.6653C22.2396 41.6787 22.0202 41.5375 21.8435 41.1302C20.7679 38.6382 19.668 36.1541 18.5437 33.6779C18.3492 33.2559 18.0711 32.8755 17.7255 32.5587C14.6252 29.7451 11.5036 26.9538 8.33325 24.1075C9.53071 22.7699 10.7571 21.4679 11.9058 20.0945C12.3938 19.5436 12.7688 18.9063 13.0104 18.2173C13.9656 15.1317 14.8385 12.0224 15.7343 8.92047C15.7777 8.73063 15.8102 8.53861 15.8318 8.34526H15.9842C17.401 10.9909 18.8285 13.6217 20.2195 16.2821C20.448 16.7161 20.6887 16.8915 21.2006 16.8767C23.3061 16.8469 25.413 16.8425 27.5185 16.8767C28.0837 16.8856 28.3686 16.7132 28.6078 16.2108C29.8616 13.5771 31.1566 10.9612 32.4378 8.33337L32.5902 8.34824ZM13.5466 24.4821C13.6047 24.5785 13.671 24.6699 13.7447 24.7556C16.231 27.0167 18.7194 29.2754 21.2098 31.5317C21.7354 32.0073 22.4148 31.9344 22.846 31.3503C23.3411 30.68 23.7997 29.9844 24.3222 29.2294C24.7793 29.8982 25.1769 30.4927 25.5852 31.0843C26.2312 32.0221 26.8512 32.086 27.6815 31.2998C30.1509 28.9653 32.5292 26.4647 35.1603 24.3127C33.2895 24.1536 33.294 24.1566 32.1362 25.2178C30.3737 26.8321 28.5373 28.3709 26.7385 29.9443C25.9289 28.8911 25.4091 27.6605 23.8195 27.9957C22.8978 28.2127 22.4687 29.2459 21.9883 29.9591C20.1281 28.3762 18.2618 26.9211 16.5707 25.2921C15.6597 24.4048 14.7121 24.3781 13.5436 24.4821H13.5466Z" fill="#01ABEA"/>
<path d="M13.5436 24.4821C14.7121 24.3781 15.6567 24.4048 16.5708 25.2847C18.2619 26.9196 20.1281 28.3688 21.9883 29.9517C22.4687 29.2386 22.8939 28.2102 23.818 27.9987C25.4134 27.6623 25.9216 28.897 26.737 29.9473C28.5337 28.371 30.3672 26.829 32.1301 25.2149C33.288 24.1536 33.2834 24.1507 35.1543 24.3097C32.5143 26.4474 30.1408 28.962 27.6755 31.2968C26.8452 32.0831 26.2251 32.0192 25.5792 31.0813C25.1709 30.4868 24.7717 29.8923 24.3162 29.2264C23.7936 29.9814 23.3351 30.677 22.8399 31.3474C22.4088 31.9315 21.7293 32.0043 21.2037 31.5287C18.7093 29.2754 16.2209 27.0168 13.7386 24.7526C13.6661 24.6678 13.6009 24.5773 13.5436 24.4821Z" fill="#F8FCFE"/>
</svg>
