<svg width="50" height="50" viewBox="0 0 50 50" fill="none" xmlns="http://www.w3.org/2000/svg">
<path d="M36.4808 12.3768C39.0602 14.546 40.6686 17.3219 41.5741 20.518C43.0587 25.7888 41.4271 32.5081 37.7199 36.4511C34.6015 39.8519 30.1413 41.8688 25.5305 41.9846C20.9188 42.1003 16.3622 40.3091 13.0755 37.0696C12.7776 36.7737 12.5453 36.4422 12.2832 36.1286C12.2534 35.9125 12.2355 35.6935 12.1908 35.4834C12.0502 34.8437 12.1189 34.176 12.3867 33.5777C12.6546 32.9794 13.1077 32.4817 13.6801 32.1571C14.7315 31.5652 15.7651 31.7132 16.8195 32.1334L17.1174 32.3258C20.218 35.5248 23.9352 36.5991 28.2303 35.3354C32.3704 34.1132 34.8396 31.2279 35.7719 27.1232C36.4272 24.232 35.8017 21.465 34.1576 18.9791C33.7227 18.3192 33.0704 17.7954 32.5164 17.2035L32.3258 16.804L32.0934 16.5761C32.0488 16.3186 32.019 16.0553 31.9594 15.8008C31.5752 14.2027 32.5551 12.5011 34.1784 12.2111C34.929 12.1045 35.7213 12.3176 36.4808 12.3768Z" fill="#025072"/>
<path d="M16.8332 32.142C15.7818 31.7217 14.7482 31.5826 13.6938 32.1656C12.1505 33.0409 12.084 34.5929 12.2969 36.1371C11.1055 35.0421 10.3191 33.6749 9.65791 32.2396C4.02329 19.9581 14.4134 6.34514 27.5887 8.19784C30.6695 8.6269 34.3538 9.97068 36.4677 12.3764C35.7082 12.3173 34.9159 12.1042 34.1891 12.2314C32.5658 12.5274 31.5859 14.2231 31.9701 15.8211C32.0297 16.0756 32.0595 16.339 32.1042 16.5965C27.9307 14.4922 24.5223 13.1334 19.9726 15.4423C15.1801 17.872 12.9343 23.764 14.9091 28.715C15.3916 29.9224 16.1839 31.0056 16.8332 32.142Z" fill="#04BBE9"/>
<path d="M17.1293 32.3346C18.7728 32.4476 20.4238 32.2987 22.02 31.8937C26.1125 30.7869 29.103 28.3425 31.0271 24.5989C32.1179 22.4593 32.6203 20.0715 32.4836 17.677C32.4897 17.5239 32.5076 17.3716 32.5372 17.2212C33.0912 17.8131 33.7287 18.328 34.1784 18.9968C35.8226 21.4827 36.4481 24.2497 35.7928 27.141C34.8605 31.2456 32.3913 34.131 28.2511 35.3532C23.9471 36.6079 20.2299 35.5337 17.1293 32.3346Z" fill="#6DBD4B"/>
</svg>
