<svg width="50" height="50" viewBox="0 0 50 50" fill="none" xmlns="http://www.w3.org/2000/svg">
<path d="M10.8861 19.0896L23.0126 31.4195C23.0126 31.4195 24.0909 32.4978 24.0909 34.2273C24.0909 35.2853 23.3178 38.5 19.8182 38.5C18.1091 38.5 16.9494 37.442 16.9494 37.442L8.68874 29.1203C8.68874 29.1203 7 27.6758 7 25.6615C7 23.0978 7 22.4671 7 20.3307C7 18.1944 9.13636 18.1944 9.13636 18.1944C10.174 18.2147 10.8861 19.0896 10.8861 19.0896ZM39.4117 19.0896L27.2853 31.4195C27.2853 31.4195 26.2069 32.4978 26.2069 34.2273C26.2069 35.2853 26.9801 38.5 30.4797 38.5C32.1887 38.5 33.3485 37.442 33.3485 37.442L41.6091 29.161C41.6091 29.161 43.2978 27.7165 43.2978 25.7022C43.2978 23.1385 43.2978 22.5078 43.2978 20.3714C43.2978 18.2351 41.1615 18.2351 41.1615 18.2351C40.1238 18.2147 39.4117 19.0896 39.4117 19.0896ZM25.1489 15C22.1987 15 19.8182 17.3805 19.8182 20.3307C19.8182 21.6736 20.3065 22.8944 21.1203 23.8303L24.3554 27.4519C24.5589 27.6758 24.8437 27.8182 25.1489 27.8182C25.4541 27.8182 25.7593 27.6758 25.9424 27.4519L29.0961 23.932C29.9507 22.9758 30.4797 21.7346 30.4797 20.3511C30.4797 17.4009 28.0991 15 25.1489 15Z" fill="#7DCC26"/>
</svg>
