<svg width="50" height="50" viewBox="0 0 50 50" fill="none" xmlns="http://www.w3.org/2000/svg">
<path d="M25.5033 40.0081L24.0358 34.6351H22.9761L21.5086 40.0081H18.0539V41.6666H28.958V40.0081H25.5033Z" fill="#808083"/>
<path d="M23.5061 31.5539C29.6932 31.5539 34.7089 26.4688 34.7089 20.196C34.7089 13.9232 29.6932 8.83803 23.5061 8.83803C17.3191 8.83803 12.3034 13.9232 12.3034 20.196C12.3034 26.4688 17.3191 31.5539 23.5061 31.5539Z" fill="#5F95DD"/>
<path d="M26.7443 11.9239C26.6667 12.0258 26.5865 12.1334 26.5667 12.2605C26.5344 12.468 26.6689 12.6603 26.7962 12.826C26.9894 13.0776 27.2053 13.3448 27.5105 13.4219C28.0792 13.5656 28.5881 12.9884 29.1723 12.9409C29.6415 12.9027 30.0769 13.2117 30.5473 13.229C31.0809 13.2486 31.3566 12.7332 31.4645 12.203C30.6074 11.3258 29.6102 10.5899 28.5098 10.0319C28.0809 10.5948 27.1731 11.3612 26.7443 11.9239Z" fill="#ABCB57"/>
<path d="M34.1947 16.7864C33.9877 17.4266 33.4057 17.2572 32.6509 17.316C31.6818 17.3916 31.093 16.9085 30.1979 16.7281C29.3672 16.5607 28.6371 17.1408 28.249 17.8391C27.9608 18.3575 27.5093 19.5049 27.8885 20.0345C28.0698 20.2875 28.3418 20.4551 28.6064 20.6159C28.9873 20.8474 29.3702 21.0799 29.7821 21.2483C30.2556 21.442 30.7989 21.5746 31.1001 21.9926C31.3482 22.3368 31.3683 22.7971 31.3252 23.2212C31.2082 24.3724 30.2193 25.3942 31.1222 26.4401C31.4614 26.8332 31.9231 27.0505 32.4382 27.051C33.8629 25.1458 34.7089 22.7712 34.7089 20.196C34.7087 19.0079 34.5284 17.8627 34.1947 16.7864Z" fill="#ABCB57"/>
<path d="M24.0282 11.1499C24.4349 11.3379 24.9465 11.1608 25.2275 10.8084C25.5085 10.456 25.7683 9.50502 25.7025 9.05669C24.9922 8.91353 24.2579 8.83803 23.5061 8.83803C23.3067 8.83803 23.1085 8.8433 22.9115 8.85372C23.0457 9.27058 23.2846 9.63226 23.3566 10.0652C23.4296 10.5038 23.6291 10.9655 24.0282 11.1499Z" fill="#ABCB57"/>
<path d="M14.6828 17.0801C15.2277 17.6617 15.827 18.1906 16.4703 18.6575C16.6468 18.7857 16.8375 18.9232 16.9076 19.1316C17.1116 19.7374 16.7613 20.3914 17.1183 21.0818C17.4558 21.7347 18.2011 22.1419 18.3937 22.8526C18.544 23.4069 18.313 24.0086 18.4436 24.5681C18.6019 25.2467 19.2481 25.7047 19.4816 26.3606C19.6301 26.7779 19.5983 27.2394 19.7068 27.6691C19.8153 28.0989 20.157 28.5371 20.5927 28.4967C21.1191 28.448 21.3354 27.79 21.3765 27.2556C21.4177 26.7212 21.4717 26.0768 21.9436 25.8352C22.1946 25.7068 22.5225 25.7267 22.7189 25.5227C23.0453 25.1838 22.717 24.6286 22.7281 24.155C22.7401 23.6503 23.1496 23.2597 23.5284 22.9318C24.0055 22.5186 24.4827 22.1053 24.9598 21.6921C25.2912 21.408 25.3759 20.8992 25.2399 20.4814C25.104 20.0635 24.783 19.73 24.4219 19.486C24.0336 19.2235 23.5334 19.0471 23.1026 19.2291C22.7746 19.3676 22.5209 19.6994 22.1662 19.7202C21.8391 19.7393 21.5569 19.476 21.4 19.1843C21.2432 18.8927 21.1691 18.5609 21.0102 18.2704C20.5537 17.4365 19.8149 17.4873 19.0182 17.3624C18.2139 17.2363 17.3959 16.8556 16.7965 16.2984C16.7005 16.2091 16.6053 16.1099 16.5672 15.9835C16.3541 15.2767 17.5889 14.964 18.0159 14.9783C18.3661 14.9899 18.7233 15.0935 19.0605 14.9976C19.3789 14.9072 19.6225 14.6551 19.8931 14.4625C20.6588 13.9173 21.778 14.6607 21.9261 13.186C21.9841 12.6085 21.7636 12.0437 21.5473 11.5061C21.2337 10.7266 20.9516 9.98731 20.7457 9.18565C17.5594 10.0042 14.9179 12.2071 13.4792 15.126C13.8622 15.5439 13.75 15.3487 13.9106 15.8961C14.045 16.3539 14.3583 16.7338 14.6828 17.0801Z" fill="#ABCB57"/>
<path d="M34.378 10.1824L35.2065 9.34245L34.2109 8.33325L31.5823 10.9983L32.5779 12.0076L33.3812 11.1931C35.5821 13.6687 36.7864 16.8384 36.7864 20.196C36.7864 23.7925 35.405 27.1736 32.8966 29.7168C27.8855 34.7973 19.8333 34.9608 14.6261 30.208L15.4295 29.3935L14.434 28.3842L11.8054 31.0493L12.801 32.0586L13.6298 31.2184C16.4223 33.7933 19.9635 35.0811 23.506 35.0808C27.2669 35.0804 31.029 33.6288 33.8922 30.7261C36.6665 27.9134 38.1943 24.1737 38.1943 20.196C38.1942 16.4569 36.8441 12.9286 34.378 10.1824Z" fill="#59595A"/>
<g opacity="0.3">
<path d="M28.9583 40.0081H25.5036L24.0361 34.6352H23.5062V41.6667H28.9583V40.0081Z" fill="#5B5B5F"/>
<path d="M31.4276 12.1647L15.5845 28.2273C19.9594 32.6629 27.0526 32.6629 31.4276 28.2273C35.8026 23.7917 35.8026 16.6003 31.4276 12.1647Z" fill="#5B5B5F"/>
</g>
</svg>
