<svg width="50" height="50" viewBox="0 0 50 50" fill="none" xmlns="http://www.w3.org/2000/svg">
<path d="M45 36.9557C45 37.4226 44.6727 37.9914 44.2742 38.222L34.1651 44.107V21.407L14.6671 10.0574L24.7762 4.17476C25.1747 3.94175 25.8302 3.94175 26.2295 4.17476L45 15.1015L45 36.9557ZM29.8279 23.9282L16.4752 16.1518C16.0759 15.9204 15.4237 15.9204 15.0236 16.1518L6 21.4054L20.0825 29.603L20.085 46L29.1021 40.7473C29.5022 40.5143 29.8279 39.9438 29.8279 39.4793L29.8279 23.9282ZM6 37.8015L15.7429 43.4755V32.1243L6 37.8015Z" fill="#5CE500"/>
</svg>
