<svg width="50" height="50" viewBox="0 0 50 50" fill="none" xmlns="http://www.w3.org/2000/svg">
<path d="M33.3154 42.4102C33.3154 42.2441 33.2894 42.0977 33.2373 41.9707C33.1885 41.8405 33.1006 41.7233 32.9736 41.6191C32.8499 41.515 32.6774 41.4157 32.4561 41.3213C32.238 41.2269 31.9613 41.1309 31.626 41.0332C31.2744 40.929 30.957 40.8135 30.6738 40.6865C30.3906 40.5563 30.1481 40.4082 29.9463 40.2422C29.7445 40.0762 29.5898 39.8857 29.4824 39.6709C29.375 39.4561 29.3213 39.2103 29.3213 38.9336C29.3213 38.6569 29.3783 38.4014 29.4922 38.167C29.6061 37.9326 29.7689 37.7292 29.9805 37.5566C30.1953 37.3809 30.4508 37.2441 30.7471 37.1465C31.0433 37.0488 31.3737 37 31.7383 37C32.2721 37 32.7246 37.1025 33.0957 37.3076C33.4701 37.5094 33.7549 37.7747 33.9502 38.1035C34.1455 38.429 34.2432 38.7773 34.2432 39.1484H33.3057C33.3057 38.8815 33.2487 38.6455 33.1348 38.4404C33.0208 38.2321 32.8483 38.0693 32.6172 37.9521C32.3861 37.8317 32.0931 37.7715 31.7383 37.7715C31.403 37.7715 31.1263 37.8219 30.9082 37.9229C30.6901 38.0238 30.5273 38.1605 30.4199 38.333C30.3158 38.5055 30.2637 38.7025 30.2637 38.9238C30.2637 39.0736 30.2946 39.2103 30.3564 39.334C30.4215 39.4544 30.5208 39.5667 30.6543 39.6709C30.791 39.7751 30.9635 39.8711 31.1719 39.959C31.3835 40.0469 31.6357 40.1315 31.9287 40.2129C32.3324 40.3268 32.6807 40.4538 32.9736 40.5938C33.2666 40.7337 33.5075 40.8916 33.6963 41.0674C33.8883 41.2399 34.0299 41.4368 34.1211 41.6582C34.2155 41.8763 34.2627 42.1237 34.2627 42.4004C34.2627 42.6901 34.2041 42.9521 34.0869 43.1865C33.9697 43.4209 33.8021 43.6211 33.584 43.7871C33.3659 43.9531 33.1038 44.0817 32.7979 44.1729C32.4951 44.2607 32.1566 44.3047 31.7822 44.3047C31.4535 44.3047 31.1296 44.2591 30.8105 44.168C30.4948 44.0768 30.2067 43.9401 29.9463 43.7578C29.6891 43.5755 29.4824 43.3509 29.3262 43.084C29.1732 42.8138 29.0967 42.5013 29.0967 42.1465H30.0342C30.0342 42.3906 30.0814 42.6006 30.1758 42.7764C30.2702 42.9489 30.3988 43.0921 30.5615 43.2061C30.7275 43.32 30.9147 43.4046 31.123 43.46C31.3346 43.512 31.5544 43.5381 31.7822 43.5381C32.111 43.5381 32.3893 43.4925 32.6172 43.4014C32.8451 43.3102 33.0176 43.18 33.1348 43.0107C33.2552 42.8415 33.3154 42.6413 33.3154 42.4102Z" fill="#7F8BA5"/>
<path d="M27.8564 37.0977V44.207H26.9092L23.3301 38.7236V44.207H22.3877V37.0977H23.3301L26.9238 42.5957V37.0977H27.8564Z" fill="#7F8BA5"/>
<path d="M17.749 44.207H16.2646L16.2744 43.4404H17.749C18.2568 43.4404 18.68 43.3346 19.0186 43.123C19.3571 42.9082 19.611 42.6087 19.7803 42.2246C19.9528 41.8372 20.0391 41.3848 20.0391 40.8672V40.4326C20.0391 40.0257 19.9902 39.6644 19.8926 39.3486C19.7949 39.0296 19.6517 38.7611 19.4629 38.543C19.2741 38.3216 19.043 38.154 18.7695 38.04C18.4993 37.9261 18.1885 37.8691 17.8369 37.8691H16.2354V37.0977H17.8369C18.3024 37.0977 18.7272 37.1758 19.1113 37.332C19.4954 37.485 19.8258 37.708 20.1025 38.001C20.3825 38.2907 20.5973 38.6423 20.7471 39.0557C20.8968 39.4658 20.9717 39.9281 20.9717 40.4424V40.8672C20.9717 41.3815 20.8968 41.8454 20.7471 42.2588C20.5973 42.6689 20.3809 43.0189 20.0977 43.3086C19.8177 43.5983 19.4792 43.8213 19.082 43.9775C18.6882 44.1305 18.2438 44.207 17.749 44.207ZM16.7676 37.0977V44.207H15.8252V37.0977H16.7676Z" fill="#7F8BA5"/>
<path d="M24.4563 8H14V18.4564H24.4563V8Z" fill="#F26522"/>
<path d="M36.0002 8H25.5439V18.4564H36.0002V8Z" fill="#8DC63F"/>
<path d="M24.4563 19.5435H14V29.9999H24.4563V19.5435Z" fill="#00AEEF"/>
<path d="M36.0002 19.5435H25.5439V29.9999H36.0002V19.5435Z" fill="#FFC20E"/>
</svg>
