<svg width="50" height="50" viewBox="0 0 50 50" fill="none" xmlns="http://www.w3.org/2000/svg">
<path fill-rule="evenodd" clip-rule="evenodd" d="M11 27.2511C11 20.1285 11 13.0059 11 5.88329C11 5.22378 11.1167 4.99437 11.8957 5.0001C20.9378 5.02687 29.9818 5.02687 39.0279 5.0001C39.8254 5.0001 40.0277 5.19514 39.9971 5.91773C39.9316 7.27496 39.9316 8.63403 39.9971 9.99509C40.0277 10.6833 39.7578 10.8095 39.0892 10.8038C32.1513 10.8038 25.2133 10.8038 18.2754 10.8038C17.4411 10.8038 17.1773 10.9529 17.1957 11.7787C17.251 15.0762 17.1957 18.3794 17.1957 21.6769C17.1957 21.9694 17.2755 22.2848 17.0055 22.5371L11 28.0999V27.2511Z" fill="#5F2E88"/>
<path fill-rule="evenodd" clip-rule="evenodd" d="M11.2332 28.1344H11.9877C20.9847 28.1344 29.9941 28.1344 39.0157 28.1344C39.7211 28.1344 40.0033 28.2548 39.9665 28.9831C39.9052 30.4225 39.9665 31.8505 39.9665 33.3014C39.9665 33.7774 39.8806 33.9896 39.2917 33.9896C32.09 33.9896 24.8883 33.9896 17.6865 33.9896C17.5702 34.0074 17.4512 34.0024 17.3371 33.9747C17.223 33.9471 17.1164 33.8974 17.024 33.829L11.086 28.3981C11.135 28.3236 11.1841 28.2433 11.2393 28.1688L11.2332 28.1344Z" fill="#5F2E88"/>
<path fill-rule="evenodd" clip-rule="evenodd" d="M29.5687 16.5444C31.409 16.5444 33.3046 16.5444 35.1694 16.5444C35.7092 16.5444 35.8871 16.682 35.8748 17.1981C35.8748 18.7236 35.8748 20.2433 35.8748 21.7859C35.8748 22.2734 35.697 22.3594 35.2124 22.3594C31.4827 22.3594 27.7469 22.3594 24.0172 22.3594C23.5203 22.3594 23.3485 22.239 23.3547 21.7859C23.3874 20.2567 23.3874 18.7274 23.3547 17.1981C23.3547 16.682 23.5141 16.5329 24.0601 16.5444C25.9004 16.5731 27.7407 16.5444 29.581 16.5444H29.5687Z" fill="#5F2E88"/>
<path d="M22.5469 40.7168V46H21.6387V40.7168H22.5469Z" fill="black"/>
<path d="M21.5703 39.3154C21.5703 39.1689 21.6143 39.0452 21.7021 38.9443C21.7933 38.8434 21.9268 38.793 22.1025 38.793C22.2751 38.793 22.4069 38.8434 22.498 38.9443C22.5924 39.0452 22.6396 39.1689 22.6396 39.3154C22.6396 39.4554 22.5924 39.5758 22.498 39.6768C22.4069 39.7744 22.2751 39.8232 22.1025 39.8232C21.9268 39.8232 21.7933 39.7744 21.7021 39.6768C21.6143 39.5758 21.5703 39.4554 21.5703 39.3154Z" fill="black"/>
<path d="M36.5264 45.0625V42.46H33.9434V43.2217H35.5889V44.8135C35.527 44.8851 35.4375 44.9616 35.3203 45.043C35.2031 45.1211 35.0404 45.1895 34.832 45.248C34.6237 45.3034 34.3519 45.3311 34.0166 45.3311C33.7139 45.3311 33.4372 45.2725 33.1865 45.1553C32.9391 45.0381 32.7259 44.8672 32.5469 44.6426C32.3678 44.4147 32.2295 44.1396 32.1318 43.8174C32.0374 43.4951 31.9902 43.1289 31.9902 42.7188V42.1572C31.9902 41.7568 32.0277 41.3971 32.1025 41.0781C32.1807 40.7591 32.2979 40.4873 32.4541 40.2627C32.6104 40.0381 32.8089 39.8656 33.0498 39.7451C33.2907 39.6247 33.5755 39.5645 33.9043 39.5645C34.2689 39.5645 34.5667 39.6296 34.7979 39.7598C35.029 39.8867 35.2064 40.056 35.3301 40.2676C35.457 40.4792 35.5417 40.7135 35.584 40.9707H36.5264C36.4678 40.5508 36.3343 40.1764 36.126 39.8477C35.9209 39.5189 35.6344 39.2617 35.2666 39.0762C34.902 38.8874 34.4479 38.793 33.9043 38.793C33.4453 38.793 33.0384 38.8695 32.6836 39.0225C32.3288 39.1722 32.0293 39.3936 31.7852 39.6865C31.541 39.9762 31.3555 40.3294 31.2285 40.7461C31.1048 41.1628 31.043 41.6364 31.043 42.167V42.7188C31.043 43.2493 31.1146 43.7246 31.2578 44.1445C31.4043 44.5612 31.6094 44.916 31.873 45.209C32.14 45.4987 32.4541 45.7201 32.8154 45.873C33.18 46.0228 33.5788 46.0977 34.0117 46.0977C34.5423 46.0977 34.9753 46.0391 35.3105 45.9219C35.6491 45.8014 35.9144 45.6615 36.1064 45.502C36.2985 45.3392 36.4385 45.1927 36.5264 45.0625Z" fill="black"/>
<path d="M29.6025 46V38.8906H28.6699V44.3887L25.0762 38.8906H24.1338V46H25.0762V40.5166L28.6553 46H29.6025Z" fill="black"/>
<path d="M16.1064 38.8906L14.6953 43.8516L14.4997 44.6956L14.3584 43.7539L13.2354 38.8906H12.2979L14.0215 46H14.876L16.3945 40.8193L16.5061 40.275L16.6191 40.8193L18.084 46H18.9385L20.6572 38.8906H19.7148L18.6162 43.749L18.4651 44.7164L18.2646 43.8516L16.8926 38.8906H16.1064Z" fill="black"/>
</svg>
