<svg width="50" height="50" viewBox="0 0 50 50" fill="none" xmlns="http://www.w3.org/2000/svg">
<rect width="50" height="50" fill="#5F2E88"/>
<path fill-rule="evenodd" clip-rule="evenodd" d="M13 26.4147C13 20.5202 13 14.6256 13 8.73099C13 8.1852 13.0966 7.99534 13.7413 8.00009C21.2244 8.02223 28.7091 8.02223 36.1955 8.00009C36.8555 8.00009 37.023 8.1615 36.9976 8.7595C36.9434 9.88273 36.9434 11.0075 36.9976 12.1339C37.023 12.7034 36.7996 12.8079 36.2462 12.8031C30.5045 12.8031 24.7628 12.8031 19.021 12.8031C18.3306 12.8031 18.1123 12.9265 18.1275 13.6099C18.1732 16.3389 18.1275 19.0726 18.1275 21.8016C18.1275 22.0436 18.1935 22.3047 17.9701 22.5135L13 27.1171V26.4147Z" fill="white"/>
<path fill-rule="evenodd" clip-rule="evenodd" d="M13.193 27.1457H13.8174C21.2632 27.1457 28.7192 27.1457 36.1854 27.1457C36.7692 27.1457 37.0028 27.2453 36.9723 27.8481C36.9215 29.0393 36.9723 30.2211 36.9723 31.4219C36.9723 31.8158 36.9012 31.9914 36.4138 31.9914C30.4538 31.9914 24.4937 31.9914 18.5337 31.9914C18.4374 32.0061 18.3389 32.002 18.2445 31.9791C18.1501 31.9562 18.0618 31.9151 17.9854 31.8585L13.0711 27.364C13.1118 27.3023 13.1524 27.2359 13.1981 27.1742L13.193 27.1457Z" fill="white"/>
<path fill-rule="evenodd" clip-rule="evenodd" d="M28.3672 17.554C29.8902 17.554 31.459 17.554 33.0023 17.554C33.449 17.554 33.5962 17.6678 33.5861 18.095C33.5861 19.3574 33.5861 20.6151 33.5861 21.8918C33.5861 22.2952 33.4389 22.3664 33.0379 22.3664C29.9512 22.3664 26.8595 22.3664 23.7729 22.3664C23.3617 22.3664 23.2195 22.2667 23.2246 21.8918C23.2516 20.6262 23.2516 19.3606 23.2246 18.095C23.2246 17.6678 23.3565 17.5445 23.8083 17.554C25.3313 17.5777 26.8543 17.554 28.3774 17.554H28.3672Z" fill="white"/>
<path d="M22.4603 37.5802V41.9198H21.7106V37.5802H22.4603Z" fill="white"/>
<path d="M21.6542 36.4291C21.6542 36.3088 21.6904 36.2072 21.763 36.1243C21.8382 36.0414 21.9484 36 22.0935 36C22.2359 36 22.3448 36.0414 22.42 36.1243C22.4979 36.2072 22.5369 36.3088 22.5369 36.4291C22.5369 36.5441 22.4979 36.643 22.42 36.7259C22.3448 36.8061 22.2359 36.8463 22.0935 36.8463C21.9484 36.8463 21.8382 36.8061 21.763 36.7259C21.6904 36.643 21.6542 36.5441 21.6542 36.4291Z" fill="white"/>
<path d="M34 41.1497V39.012H31.8678V39.6377H33.2261V40.9452C33.1751 41.004 33.1012 41.0668 33.0044 41.1337C32.9077 41.1979 32.7733 41.254 32.6014 41.3021C32.4294 41.3476 32.205 41.3703 31.9283 41.3703C31.6784 41.3703 31.45 41.3222 31.243 41.2259C31.0388 41.1297 30.8628 40.9893 30.715 40.8048C30.5672 40.6176 30.453 40.3917 30.3724 40.127C30.2945 39.8623 30.2555 39.5615 30.2555 39.2246V38.7634C30.2555 38.4345 30.2864 38.139 30.3482 37.877C30.4127 37.615 30.5095 37.3917 30.6385 37.2072C30.7674 37.0227 30.9313 36.881 31.1302 36.7821C31.329 36.6832 31.5642 36.6337 31.8356 36.6337C32.1365 36.6337 32.3824 36.6872 32.5732 36.7941C32.7639 36.8984 32.9104 37.0374 33.0125 37.2112C33.1173 37.385 33.1872 37.5775 33.2221 37.7888H34C33.9516 37.4439 33.8415 37.1364 33.6695 36.8663C33.5002 36.5963 33.2637 36.385 32.9601 36.2326C32.6591 36.0775 32.2843 36 31.8356 36C31.4567 36 31.1208 36.0628 30.8279 36.1885C30.535 36.3115 30.2878 36.4933 30.0863 36.734C29.8847 36.9719 29.7316 37.262 29.6268 37.6043C29.5247 37.9465 29.4736 38.3356 29.4736 38.7714V39.2246C29.4736 39.6604 29.5327 40.0508 29.6509 40.3957C29.7719 40.738 29.9412 41.0294 30.1588 41.2701C30.3791 41.508 30.6385 41.6898 30.9367 41.8155C31.2377 41.9385 31.5668 42 31.9242 42C32.3622 42 32.7196 41.9519 32.9964 41.8556C33.2758 41.7567 33.4948 41.6417 33.6534 41.5107C33.8119 41.377 33.9274 41.2567 34 41.1497Z" fill="white"/>
<path d="M28.2846 41.9198V36.0802H27.5147V40.5963L24.5482 36.0802H23.7703V41.9198H24.5482V37.4158L27.5026 41.9198H28.2846Z" fill="white"/>
<path d="M17.1439 36.0802L15.979 40.1551L15.8175 40.8484L15.7009 40.0749L14.7739 36.0802H14L15.4228 41.9198H16.1282L17.3817 37.6644L17.4738 37.2174L17.5671 37.6644L18.7763 41.9198H19.4817L20.9004 36.0802H20.1225L19.2156 40.0709L19.0909 40.8654L18.9254 40.1551L17.7928 36.0802H17.1439Z" fill="white"/>
</svg>
