<svg width="50" height="50" viewBox="0 0 50 50" fill="none" xmlns="http://www.w3.org/2000/svg">
<rect width="50" height="50" fill="#325FE8"/>
<path d="M25.5985 6.33582C25.4489 5.88806 24.7008 5.88806 24.5511 6.33582C23.9526 9.3209 22.606 13.7985 20.212 16.1866C17.818 18.5746 13.3292 19.9179 10.3367 20.5149C9.88778 20.6642 9.88778 21.4104 10.3367 21.5597C13.3292 22.1567 17.818 23.5 20.212 25.8881C23.3541 29.0224 24.4015 33.3507 24.8504 35.8881C24.8504 36.0373 25.4489 36.0373 25.4489 35.8881C26.0474 33.2015 27.2444 28.4254 29.788 25.8881C32.1821 23.5 36.6708 22.1567 39.6633 21.5597C40.1122 21.4104 40.1122 20.6642 39.6633 20.5149C36.6708 19.9179 32.1821 18.5746 29.788 16.1866C27.5437 13.7985 26.197 9.3209 25.5985 6.33582Z" fill="white"/>
<path d="M11 39H12.9653C13.4111 39 13.7876 39.0623 14.0948 39.187C14.4047 39.3116 14.6398 39.4961 14.8002 39.7404C14.9633 39.9822 15.0449 40.2801 15.0449 40.6341C15.0449 40.8834 14.9891 41.1115 14.8777 41.3184C14.7689 41.5228 14.6113 41.6973 14.4047 41.8419C14.2008 41.984 13.9562 42.0899 13.6707 42.1597L13.4506 42.2382H11.6035L11.5953 41.6512H12.9898C13.2725 41.6512 13.5076 41.6063 13.6952 41.5166C13.8828 41.4243 14.0241 41.3009 14.1193 41.1464C14.2144 40.9918 14.262 40.821 14.262 40.6341C14.262 40.4247 14.2171 40.2415 14.1274 40.0844C14.0377 39.9274 13.8964 39.8064 13.7034 39.7217C13.5131 39.6344 13.2671 39.5908 12.9653 39.5908H11.787V44.4444H11V39ZM14.4699 44.4444L13.0265 41.9765L13.8461 41.9728L15.3099 44.3996V44.4444H14.4699Z" fill="white"/>
<path d="M17.8624 44.5192C17.5552 44.5192 17.2766 44.4719 17.0265 44.3771C16.7791 44.2799 16.5657 44.1441 16.3863 43.9696C16.2097 43.7951 16.0737 43.5881 15.9786 43.3488C15.8835 43.1095 15.8359 42.8478 15.8359 42.5636V42.4065C15.8359 42.0775 15.8889 41.7845 15.9949 41.5278C16.1009 41.2685 16.245 41.0491 16.4271 40.8697C16.6092 40.6902 16.8158 40.5543 17.0469 40.4621C17.2779 40.3698 17.5172 40.3237 17.7645 40.3237C18.0799 40.3237 18.3517 40.3736 18.58 40.4733C18.8111 40.573 19 40.7126 19.1468 40.8921C19.2936 41.0691 19.4023 41.2785 19.473 41.5203C19.5437 41.7596 19.579 42.0214 19.579 42.3056V42.6159H16.2844V42.0513H18.8247V41.9989C18.8138 41.8194 18.773 41.6449 18.7023 41.4754C18.6344 41.3059 18.5257 41.1663 18.3761 41.0566C18.2266 40.9469 18.0228 40.8921 17.7645 40.8921C17.5933 40.8921 17.4356 40.9257 17.2915 40.9931C17.1475 41.0579 17.0238 41.1551 16.9205 41.2847C16.8172 41.4144 16.737 41.5726 16.6799 41.7596C16.6228 41.9466 16.5943 42.1622 16.5943 42.4065V42.5636C16.5943 42.7555 16.6228 42.9363 16.6799 43.1058C16.7397 43.2728 16.8253 43.4199 16.9368 43.547C17.051 43.6741 17.1882 43.7739 17.3486 43.8462C17.5117 43.9184 17.6966 43.9546 17.9032 43.9546C18.1696 43.9546 18.3952 43.9047 18.58 43.805C18.7649 43.7053 18.9266 43.5719 19.0652 43.4049L19.5219 43.7377C19.4268 43.8698 19.3058 43.9957 19.159 44.1154C19.0122 44.235 18.8315 44.3323 18.6167 44.4071C18.4047 44.4818 18.1532 44.5192 17.8624 44.5192Z" fill="white"/>
<path d="M21.2141 41.1763V46H20.4557V40.3985H21.1488L21.2141 41.1763ZM24.1865 42.3878V42.4663C24.1865 42.7605 24.1485 43.0335 24.0724 43.2853C23.9963 43.5345 23.8848 43.7514 23.738 43.9359C23.594 44.1204 23.4159 44.2637 23.2039 44.3659C22.9918 44.4681 22.7486 44.5192 22.474 44.5192C22.194 44.5192 21.9467 44.4769 21.7319 44.3921C21.5172 44.3073 21.335 44.1839 21.1855 44.0219C21.036 43.8599 20.9164 43.6654 20.8267 43.4386C20.7397 43.2117 20.6799 42.9562 20.6473 42.672V42.2532C20.6799 41.9541 20.7411 41.6861 20.8308 41.4493C20.9205 41.2124 21.0387 41.0105 21.1855 40.8435C21.335 40.674 21.5158 40.5456 21.7278 40.4583C21.9399 40.3686 22.1845 40.3237 22.4618 40.3237C22.739 40.3237 22.985 40.3736 23.1998 40.4733C23.4145 40.5705 23.5953 40.7101 23.7421 40.8921C23.8889 41.0741 23.999 41.2922 24.0724 41.5465C24.1485 41.7983 24.1865 42.0787 24.1865 42.3878ZM23.4281 42.4663V42.3878C23.4281 42.1859 23.405 41.9964 23.3588 41.8194C23.3126 41.64 23.2406 41.4829 23.1427 41.3483C23.0476 41.2112 22.9252 41.104 22.7757 41.0267C22.6262 40.9469 22.4482 40.9071 22.2416 40.9071C22.0513 40.9071 21.8855 40.937 21.7441 40.9968C21.6055 41.0566 21.4873 41.1376 21.3894 41.2399C21.2915 41.3396 21.2113 41.4542 21.1488 41.5839C21.089 41.711 21.0442 41.8431 21.0143 41.9802V42.9487C21.0686 43.1232 21.1447 43.2877 21.2426 43.4423C21.3405 43.5944 21.4709 43.7178 21.634 43.8125C21.7971 43.9047 22.0024 43.9509 22.2497 43.9509C22.4536 43.9509 22.629 43.9122 22.7757 43.8349C22.9252 43.7552 23.0476 43.6467 23.1427 43.5096C23.2406 43.3725 23.3126 43.2155 23.3588 43.0385C23.405 42.859 23.4281 42.6683 23.4281 42.4663Z" fill="white"/>
<path d="M24.949 42.4663V42.3803C24.949 42.0887 24.9952 41.8182 25.0877 41.5689C25.1801 41.3171 25.3133 41.099 25.4873 40.9145C25.6612 40.7276 25.8719 40.583 26.1193 40.4808C26.3666 40.3761 26.6439 40.3237 26.9511 40.3237C27.261 40.3237 27.5396 40.3761 27.787 40.4808C28.037 40.583 28.2491 40.7276 28.423 40.9145C28.5997 41.099 28.7343 41.3171 28.8267 41.5689C28.9191 41.8182 28.9653 42.0887 28.9653 42.3803V42.4663C28.9653 42.758 28.9191 43.0285 28.8267 43.2778C28.7343 43.5271 28.5997 43.7452 28.423 43.9322C28.2491 44.1166 28.0384 44.2612 27.791 44.3659C27.5464 44.4681 27.2691 44.5192 26.9592 44.5192C26.6493 44.5192 26.3707 44.4681 26.1233 44.3659C25.876 44.2612 25.6639 44.1166 25.4873 43.9322C25.3133 43.7452 25.1801 43.5271 25.0877 43.2778C24.9952 43.0285 24.949 42.758 24.949 42.4663ZM25.7034 42.3803V42.4663C25.7034 42.6683 25.7292 42.859 25.7808 43.0385C25.8325 43.2155 25.91 43.3725 26.0133 43.5096C26.1193 43.6467 26.2511 43.7552 26.4088 43.8349C26.5664 43.9122 26.7499 43.9509 26.9592 43.9509C27.1658 43.9509 27.3466 43.9122 27.5015 43.8349C27.6592 43.7552 27.7897 43.6467 27.893 43.5096C27.9963 43.3725 28.0737 43.2155 28.1254 43.0385C28.1797 42.859 28.2069 42.6683 28.2069 42.4663V42.3803C28.2069 42.1809 28.1797 41.9927 28.1254 41.8157C28.0737 41.6362 27.9949 41.4779 27.8889 41.3408C27.7856 41.2012 27.6551 41.0915 27.4975 41.0118C27.3425 40.932 27.1604 40.8921 26.9511 40.8921C26.7445 40.8921 26.5624 40.932 26.4047 41.0118C26.2497 41.0915 26.1193 41.2012 26.0133 41.3408C25.91 41.4779 25.8325 41.6362 25.7808 41.8157C25.7292 41.9927 25.7034 42.1809 25.7034 42.3803Z" fill="white"/>
<path d="M30.6656 41.0342V44.4444H29.9113V40.3985H30.6453L30.6656 41.0342ZM32.0438 40.3761L32.0398 41.0192C31.9772 41.0068 31.9174 40.9993 31.8603 40.9968C31.806 40.9918 31.7435 40.9893 31.6728 40.9893C31.4988 40.9893 31.3452 41.0142 31.212 41.0641C31.0788 41.114 30.966 41.1838 30.8736 41.2735C30.7812 41.3632 30.7078 41.4704 30.6534 41.5951C30.6018 41.7172 30.5678 41.8519 30.5515 41.9989L30.3394 42.1111C30.3394 41.8668 30.3653 41.6375 30.4169 41.4231C30.4713 41.2087 30.5542 41.0192 30.6656 40.8547C30.7771 40.6877 30.9184 40.558 31.0897 40.4658C31.2637 40.3711 31.4703 40.3237 31.7095 40.3237C31.7638 40.3237 31.8264 40.33 31.897 40.3424C31.9677 40.3524 32.0166 40.3636 32.0438 40.3761Z" fill="white"/>
<path d="M34.792 40.3985V40.9295H32.4067V40.3985H34.792ZM33.2141 39.4151H33.9684V43.4423C33.9684 43.5794 33.9915 43.6829 34.0377 43.7527C34.0839 43.8225 34.1437 43.8686 34.2171 43.891C34.2905 43.9135 34.3694 43.9247 34.4536 43.9247C34.5161 43.9247 34.5814 43.9197 34.6493 43.9097C34.72 43.8973 34.773 43.8873 34.8084 43.8798L34.8124 44.4444C34.7526 44.4619 34.6738 44.4781 34.5759 44.4931C34.4808 44.5105 34.3653 44.5192 34.2294 44.5192C34.0445 44.5192 33.8746 44.4856 33.7197 44.4183C33.5647 44.351 33.441 44.2388 33.3486 44.0817C33.2589 43.9222 33.2141 43.7078 33.2141 43.4386V39.4151Z" fill="white"/>
<path d="M38.2457 43.3713C38.2457 43.2715 38.2212 43.1793 38.1723 43.0946C38.1261 43.0073 38.0296 42.9288 37.8828 42.859C37.7387 42.7867 37.5212 42.7244 37.2304 42.672C36.9857 42.6246 36.7642 42.5686 36.5657 42.5037C36.37 42.4389 36.2029 42.3604 36.0642 42.2682C35.9283 42.1759 35.8236 42.0675 35.7503 41.9428C35.6769 41.8182 35.6402 41.6724 35.6402 41.5053C35.6402 41.3458 35.6782 41.195 35.7543 41.0529C35.8332 40.9108 35.9433 40.7849 36.0846 40.6752C36.2287 40.5655 36.4013 40.4795 36.6024 40.4172C36.8036 40.3549 37.0279 40.3237 37.2752 40.3237C37.6286 40.3237 37.9303 40.3811 38.1804 40.4957C38.4305 40.6104 38.6222 40.7637 38.7554 40.9557C38.8885 41.1451 38.9551 41.3558 38.9551 41.5876H38.2008C38.2008 41.4754 38.1641 41.367 38.0907 41.2623C38.02 41.1551 37.9154 41.0666 37.7768 40.9968C37.6408 40.927 37.4737 40.8921 37.2752 40.8921C37.0659 40.8921 36.896 40.922 36.7655 40.9818C36.6378 41.0392 36.544 41.1127 36.4842 41.2025C36.4271 41.2922 36.3986 41.3869 36.3986 41.4866C36.3986 41.5614 36.4122 41.6287 36.4393 41.6886C36.4692 41.7459 36.5209 41.7995 36.5943 41.8494C36.6677 41.8967 36.771 41.9416 36.9042 41.984C37.0374 42.0264 37.2073 42.0687 37.4139 42.1111C37.7754 42.1859 38.0731 42.2756 38.3068 42.3803C38.5406 42.485 38.7146 42.6134 38.8287 42.7655C38.9429 42.9176 39 43.102 39 43.3189C39 43.4959 38.9592 43.6579 38.8777 43.805C38.7988 43.9521 38.6833 44.0792 38.5311 44.1864C38.3816 44.2911 38.2022 44.3734 37.9929 44.4332C37.7863 44.4906 37.5539 44.5192 37.2956 44.5192C36.9069 44.5192 36.578 44.4557 36.3089 44.3285C36.0398 44.2014 35.8359 44.0369 35.6972 43.8349C35.5586 43.633 35.4893 43.4199 35.4893 43.1955H36.2477C36.2586 43.385 36.3184 43.5358 36.4271 43.648C36.5358 43.7577 36.669 43.8362 36.8267 43.8835C36.9844 43.9284 37.1407 43.9509 37.2956 43.9509C37.5022 43.9509 37.6748 43.9259 37.8135 43.8761C37.9548 43.8262 38.0622 43.7577 38.1356 43.6704C38.209 43.5832 38.2457 43.4834 38.2457 43.3713Z" fill="white"/>
</svg>
