<svg width="50" height="50" viewBox="0 0 50 50" fill="none" xmlns="http://www.w3.org/2000/svg">
<rect width="50" height="50" fill="white"/>
<path d="M25.5985 6.33582C25.4489 5.88806 24.7008 5.88806 24.5511 6.33582C23.9526 9.3209 22.606 13.7985 20.212 16.1866C17.818 18.5746 13.3292 19.9179 10.3367 20.5149C9.88778 20.6642 9.88778 21.4104 10.3367 21.5597C13.3292 22.1567 17.818 23.5 20.212 25.8881C23.3541 29.0224 24.4015 33.3507 24.8504 35.8881C24.8504 36.0373 25.4489 36.0373 25.4489 35.8881C26.0474 33.2015 27.2444 28.4254 29.788 25.8881C32.1821 23.5 36.6708 22.1567 39.6633 21.5597C40.1122 21.4104 40.1122 20.6642 39.6633 20.5149C36.6708 19.9179 32.1821 18.5746 29.788 16.1866C27.5437 13.7985 26.197 9.3209 25.5985 6.33582Z" fill="#325FE8"/>
<path d="M10 39H12.1057C12.5834 39 12.9867 39.0712 13.3159 39.2137C13.6479 39.3561 13.8998 39.567 14.0716 39.8462C14.2464 40.1225 14.3338 40.463 14.3338 40.8675C14.3338 41.1524 14.2741 41.4131 14.1547 41.6496C14.0382 41.8832 13.8692 42.0826 13.6479 42.2479C13.4294 42.4103 13.1673 42.5313 12.8615 42.6111L12.6256 42.7009H10.6466L10.6378 42.0299H12.1319C12.4348 42.0299 12.6868 41.9786 12.8877 41.8761C13.0887 41.7707 13.2401 41.6296 13.3421 41.453C13.444 41.2764 13.495 41.0812 13.495 40.8675C13.495 40.6282 13.4469 40.4188 13.3508 40.2393C13.2547 40.0598 13.1032 39.9217 12.8965 39.8248C12.6926 39.7251 12.429 39.6752 12.1057 39.6752H10.8432V45.2222H10V39ZM13.7178 45.2222L12.1713 42.4017L13.0494 42.3974L14.6177 45.1709V45.2222H13.7178Z" fill="black"/>
<path d="M17.3526 45.3077C17.0234 45.3077 16.7249 45.2536 16.457 45.1453C16.1919 45.0342 15.9633 44.8789 15.7711 44.6795C15.5818 44.4801 15.4361 44.2436 15.3342 43.9701C15.2323 43.6966 15.1813 43.3974 15.1813 43.0726V42.8932C15.1813 42.5171 15.2381 42.1823 15.3517 41.8889C15.4653 41.5926 15.6196 41.3419 15.8148 41.1368C16.0099 40.9316 16.2313 40.7764 16.4788 40.6709C16.7264 40.5655 16.9827 40.5128 17.2477 40.5128C17.5856 40.5128 17.8768 40.5698 18.1215 40.6838C18.369 40.7977 18.5714 40.9573 18.7287 41.1624C18.886 41.3647 19.0025 41.604 19.0782 41.8803C19.1539 42.1538 19.1918 42.453 19.1918 42.7778V43.1325H15.6619V42.4872H18.3836V42.4274C18.3719 42.2222 18.3282 42.0228 18.2525 41.8291C18.1797 41.6353 18.0632 41.4758 17.903 41.3504C17.7428 41.2251 17.5244 41.1624 17.2477 41.1624C17.0642 41.1624 16.8953 41.2009 16.7409 41.2778C16.5866 41.3519 16.4541 41.463 16.3434 41.6111C16.2327 41.7593 16.1468 41.9402 16.0856 42.1538C16.0245 42.3675 15.9939 42.614 15.9939 42.8932V43.0726C15.9939 43.292 16.0245 43.4986 16.0856 43.6923C16.1497 43.8832 16.2414 44.0513 16.3609 44.1966C16.4832 44.3419 16.6303 44.4558 16.8021 44.5385C16.9768 44.6211 17.1749 44.6624 17.3962 44.6624C17.6817 44.6624 17.9234 44.6054 18.1215 44.4915C18.3195 44.3775 18.4928 44.2251 18.6413 44.0342L19.1306 44.4145C19.0287 44.5655 18.8991 44.7094 18.7418 44.8462C18.5845 44.9829 18.3909 45.094 18.1608 45.1795C17.9336 45.265 17.6642 45.3077 17.3526 45.3077Z" fill="black"/>
<path d="M20.9436 41.4872V47H20.1311V40.5983H20.8737L20.9436 41.4872ZM24.1284 42.8718V42.9615C24.1284 43.2977 24.0877 43.6097 24.0061 43.8974C23.9246 44.1823 23.8052 44.4302 23.6479 44.641C23.4935 44.8519 23.3028 45.0157 23.0756 45.1325C22.8484 45.2493 22.5877 45.3077 22.2936 45.3077C21.9936 45.3077 21.7286 45.2593 21.4985 45.1624C21.2684 45.0655 21.0732 44.9245 20.9131 44.7393C20.7529 44.5541 20.6247 44.3319 20.5286 44.0726C20.4354 43.8134 20.3713 43.5214 20.3364 43.1966V42.7179C20.3713 42.3761 20.4369 42.0698 20.533 41.7991C20.6291 41.5285 20.7558 41.2977 20.9131 41.1068C21.0732 40.9131 21.2669 40.7664 21.4941 40.6667C21.7213 40.5641 21.9834 40.5128 22.2805 40.5128C22.5775 40.5128 22.8411 40.5698 23.0712 40.6838C23.3013 40.7949 23.495 40.9544 23.6522 41.1624C23.8095 41.3704 23.9275 41.6197 24.0061 41.9103C24.0877 42.198 24.1284 42.5185 24.1284 42.8718ZM23.3159 42.9615V42.8718C23.3159 42.641 23.2911 42.4245 23.2416 42.2222C23.1921 42.0171 23.1149 41.8376 23.01 41.6838C22.9081 41.5271 22.777 41.4046 22.6169 41.3162C22.4567 41.2251 22.2659 41.1795 22.0446 41.1795C21.8407 41.1795 21.663 41.2137 21.5116 41.2821C21.363 41.3504 21.2363 41.443 21.1315 41.5598C21.0266 41.6738 20.9407 41.8048 20.8737 41.953C20.8097 42.0983 20.7616 42.2493 20.7296 42.406V43.5128C20.7878 43.7123 20.8694 43.9003 20.9742 44.0769C21.0791 44.2507 21.2189 44.3917 21.3936 44.5C21.5684 44.6054 21.7883 44.6581 22.0533 44.6581C22.2717 44.6581 22.4596 44.614 22.6169 44.5256C22.777 44.4345 22.9081 44.3105 23.01 44.1538C23.1149 43.9972 23.1921 43.8177 23.2416 43.6154C23.2911 43.4103 23.3159 43.1923 23.3159 42.9615Z" fill="black"/>
<path d="M24.9454 42.9615V42.8632C24.9454 42.5299 24.9949 42.2208 25.0939 41.9359C25.193 41.6481 25.3357 41.3989 25.5221 41.188C25.7085 40.9744 25.9342 40.8091 26.1992 40.6923C26.4642 40.5726 26.7613 40.5128 27.0904 40.5128C27.4225 40.5128 27.721 40.5726 27.986 40.6923C28.254 40.8091 28.4811 40.9744 28.6675 41.188C28.8569 41.3989 29.001 41.6481 29.1 41.9359C29.1991 42.2208 29.2486 42.5299 29.2486 42.8632V42.9615C29.2486 43.2949 29.1991 43.604 29.1 43.8889C29.001 44.1738 28.8569 44.4231 28.6675 44.6368C28.4811 44.8476 28.2554 45.0128 27.9904 45.1325C27.7283 45.2493 27.4312 45.3077 27.0992 45.3077C26.7671 45.3077 26.4686 45.2493 26.2036 45.1325C25.9385 45.0128 25.7114 44.8476 25.5221 44.6368C25.3357 44.4231 25.193 44.1738 25.0939 43.8889C24.9949 43.604 24.9454 43.2949 24.9454 42.9615ZM25.7536 42.8632V42.9615C25.7536 43.1923 25.7813 43.4103 25.8366 43.6154C25.8919 43.8177 25.975 43.9972 26.0856 44.1538C26.1992 44.3105 26.3405 44.4345 26.5094 44.5256C26.6783 44.614 26.8749 44.6581 27.0992 44.6581C27.3205 44.6581 27.5142 44.614 27.6802 44.5256C27.8491 44.4345 27.9889 44.3105 28.0996 44.1538C28.2103 43.9972 28.2933 43.8177 28.3486 43.6154C28.4069 43.4103 28.436 43.1923 28.436 42.9615V42.8632C28.436 42.6353 28.4069 42.4202 28.3486 42.2179C28.2933 42.0128 28.2088 41.8319 28.0952 41.6752C27.9846 41.5157 27.8448 41.3903 27.6758 41.2991C27.5098 41.208 27.3147 41.1624 27.0904 41.1624C26.8691 41.1624 26.6739 41.208 26.505 41.2991C26.339 41.3903 26.1992 41.5157 26.0856 41.6752C25.975 41.8319 25.8919 42.0128 25.8366 42.2179C25.7813 42.4202 25.7536 42.6353 25.7536 42.8632Z" fill="black"/>
<path d="M31.0703 41.3248V45.2222H30.2621V40.5983H31.0485L31.0703 41.3248ZM32.547 40.5726L32.5426 41.3077C32.4756 41.2934 32.4115 41.2849 32.3504 41.2821C32.2921 41.2764 32.2251 41.2735 32.1494 41.2735C31.963 41.2735 31.7985 41.302 31.6557 41.359C31.513 41.416 31.3922 41.4957 31.2931 41.5983C31.1941 41.7009 31.1155 41.8234 31.0572 41.9658C31.0019 42.1054 30.9655 42.2593 30.948 42.4274L30.7208 42.5556C30.7208 42.2764 30.7485 42.0142 30.8038 41.7692C30.8621 41.5242 30.9509 41.3077 31.0703 41.1197C31.1897 40.9288 31.3412 40.7806 31.5247 40.6752C31.7111 40.567 31.9324 40.5128 32.1887 40.5128C32.247 40.5128 32.314 40.5199 32.3897 40.5342C32.4654 40.5456 32.5178 40.5584 32.547 40.5726Z" fill="black"/>
<path d="M35.4915 40.5983V41.2051H32.9358V40.5983H35.4915ZM33.8008 39.4744H34.609V44.0769C34.609 44.2336 34.6338 44.3519 34.6833 44.4316C34.7328 44.5114 34.7969 44.5641 34.8755 44.5897C34.9541 44.6154 35.0386 44.6282 35.1289 44.6282C35.1959 44.6282 35.2658 44.6225 35.3386 44.6111C35.4143 44.5969 35.4711 44.5855 35.509 44.5769L35.5133 45.2222C35.4493 45.2422 35.3648 45.2607 35.2599 45.2778C35.158 45.2977 35.0342 45.3077 34.8886 45.3077C34.6905 45.3077 34.5085 45.2692 34.3425 45.1923C34.1765 45.1154 34.044 44.9872 33.945 44.8077C33.8488 44.6254 33.8008 44.3803 33.8008 44.0726V39.4744Z" fill="black"/>
<path d="M39.1918 43.9957C39.1918 43.8818 39.1656 43.7764 39.1131 43.6795C39.0636 43.5798 38.9602 43.49 38.803 43.4103C38.6486 43.3276 38.4156 43.2564 38.104 43.1966C37.8419 43.1425 37.6045 43.0783 37.3919 43.0043C37.1822 42.9302 37.0031 42.8405 36.8545 42.735C36.7089 42.6296 36.5968 42.5057 36.5181 42.3632C36.4395 42.2208 36.4002 42.0541 36.4002 41.8632C36.4002 41.6809 36.4409 41.5085 36.5225 41.3462C36.607 41.1838 36.7249 41.0399 36.8764 40.9145C37.0307 40.7892 37.2157 40.6909 37.4312 40.6197C37.6467 40.5484 37.887 40.5128 38.152 40.5128C38.5307 40.5128 38.8539 40.5783 39.1219 40.7094C39.3898 40.8405 39.5952 41.0157 39.7379 41.235C39.8806 41.4516 39.9519 41.6923 39.9519 41.9573H39.1437C39.1437 41.8291 39.1044 41.7051 39.0258 41.5855C38.9501 41.463 38.8379 41.3618 38.6894 41.2821C38.5438 41.2023 38.3646 41.1624 38.152 41.1624C37.9278 41.1624 37.7457 41.1966 37.6059 41.265C37.4691 41.3305 37.3686 41.4145 37.3045 41.5171C37.2433 41.6197 37.2128 41.7279 37.2128 41.8419C37.2128 41.9274 37.2273 42.0043 37.2564 42.0726C37.2885 42.1382 37.3438 42.1994 37.4225 42.2564C37.5011 42.3105 37.6118 42.3618 37.7545 42.4103C37.8972 42.4587 38.0792 42.5071 38.3006 42.5556C38.6879 42.641 39.0068 42.7436 39.2573 42.8632C39.5078 42.9829 39.6942 43.1296 39.8165 43.3034C39.9388 43.4772 40 43.688 40 43.9359C40 44.1382 39.9563 44.3234 39.8689 44.4915C39.7845 44.6595 39.6607 44.8048 39.4976 44.9274C39.3374 45.047 39.1452 45.141 38.9209 45.2094C38.6996 45.2749 38.4506 45.3077 38.1739 45.3077C37.7574 45.3077 37.405 45.235 37.1166 45.0897C36.8283 44.9444 36.6099 44.7564 36.4613 44.5256C36.3128 44.2949 36.2385 44.0513 36.2385 43.7949H37.0511C37.0628 44.0114 37.1268 44.1838 37.2433 44.312C37.3598 44.4373 37.5025 44.5271 37.6715 44.5812C37.8404 44.6325 38.0079 44.6581 38.1739 44.6581C38.3952 44.6581 38.5802 44.6296 38.7287 44.5726C38.8802 44.5157 38.9952 44.4373 39.0738 44.3376C39.1525 44.2379 39.1918 44.1239 39.1918 43.9957Z" fill="black"/>
</svg>
