<svg width="50" height="50" viewBox="0 0 50 50" fill="none" xmlns="http://www.w3.org/2000/svg">
<rect width="50" height="50" fill="white"/>
<path d="M25.6783 8.3806C25.5087 7.87313 24.6609 7.87313 24.4913 8.3806C23.813 11.7637 22.2868 16.8383 19.5736 19.5448C16.8604 22.2512 11.7731 23.7736 8.38155 24.4502C7.87282 24.6194 7.87282 25.4652 8.38155 25.6343C11.7731 26.3109 16.8604 27.8333 19.5736 30.5398C23.1347 34.092 24.3217 38.9975 24.8304 41.8731C24.8304 42.0423 25.5087 42.0423 25.5087 41.8731C26.187 38.8284 27.5437 33.4154 30.4265 30.5398C33.1397 27.8333 38.2269 26.3109 41.6185 25.6343C42.1272 25.4652 42.1272 24.6194 41.6185 24.4502C38.2269 23.7736 33.1397 22.2512 30.4265 19.5448C27.8828 16.8383 26.3566 11.7637 25.6783 8.3806Z" fill="#325FE8"/>
</svg>
