<svg width="50" height="50" viewBox="0 0 50 50" fill="none" xmlns="http://www.w3.org/2000/svg">
<path d="M24.5058 8H15.0001V17.5058H24.5058V8Z" fill="#F26522"/>
<path d="M35.0001 8.00004H25.4944V17.5059H35.0001V8.00004Z" fill="#8DC63F"/>
<path d="M24.5057 18.4942H15V28.0001H24.5057V18.4942Z" fill="#00AEEF"/>
<path d="M35.0001 18.4942H25.4944V28.0001H35.0001V18.4942Z" fill="#FFC20E"/>
<path d="M20.625 37.2031C20.625 37.0371 20.599 36.8906 20.5469 36.7637C20.498 36.6335 20.4102 36.5163 20.2832 36.4121C20.1595 36.3079 19.987 36.2087 19.7656 36.1143C19.5475 36.0199 19.2708 35.9238 18.9355 35.8262C18.584 35.722 18.2666 35.6064 17.9834 35.4795C17.7002 35.3493 17.4577 35.2012 17.2559 35.0352C17.054 34.8691 16.8994 34.6787 16.792 34.4639C16.6846 34.249 16.6309 34.0033 16.6309 33.7266C16.6309 33.4499 16.6878 33.1943 16.8018 32.96C16.9157 32.7256 17.0785 32.5221 17.29 32.3496C17.5049 32.1738 17.7604 32.0371 18.0566 31.9395C18.3529 31.8418 18.6833 31.793 19.0479 31.793C19.5817 31.793 20.0342 31.8955 20.4053 32.1006C20.7796 32.3024 21.0645 32.5677 21.2598 32.8965C21.4551 33.222 21.5527 33.5703 21.5527 33.9414H20.6152C20.6152 33.6745 20.5583 33.4385 20.4443 33.2334C20.3304 33.0251 20.1579 32.8623 19.9268 32.7451C19.6956 32.6247 19.4027 32.5645 19.0479 32.5645C18.7126 32.5645 18.4359 32.6149 18.2178 32.7158C17.9997 32.8167 17.8369 32.9535 17.7295 33.126C17.6253 33.2985 17.5732 33.4954 17.5732 33.7168C17.5732 33.8665 17.6042 34.0033 17.666 34.127C17.7311 34.2474 17.8304 34.3597 17.9639 34.4639C18.1006 34.568 18.2731 34.6641 18.4814 34.752C18.693 34.8398 18.9453 34.9245 19.2383 35.0059C19.6419 35.1198 19.9902 35.2467 20.2832 35.3867C20.5762 35.5267 20.8171 35.6846 21.0059 35.8604C21.1979 36.0329 21.3395 36.2298 21.4307 36.4512C21.5251 36.6693 21.5723 36.9167 21.5723 37.1934C21.5723 37.4831 21.5137 37.7451 21.3965 37.9795C21.2793 38.2139 21.1117 38.4141 20.8936 38.5801C20.6755 38.7461 20.4134 38.8747 20.1074 38.9658C19.8047 39.0537 19.4661 39.0977 19.0918 39.0977C18.763 39.0977 18.4391 39.0521 18.1201 38.9609C17.8044 38.8698 17.5163 38.7331 17.2559 38.5508C16.9987 38.3685 16.792 38.1439 16.6357 37.877C16.4827 37.6068 16.4062 37.2943 16.4062 36.9395H17.3438C17.3438 37.1836 17.391 37.3936 17.4854 37.5693C17.5798 37.7419 17.7083 37.8851 17.8711 37.999C18.0371 38.113 18.2243 38.1976 18.4326 38.2529C18.6442 38.305 18.8639 38.3311 19.0918 38.3311C19.4206 38.3311 19.6989 38.2855 19.9268 38.1943C20.1546 38.1032 20.3271 37.973 20.4443 37.8037C20.5648 37.6344 20.625 37.4342 20.625 37.2031Z" fill="#1C1D1F"/>
<path d="M23.7158 31.8906V39H22.7734V31.8906H23.7158ZM26.6943 35.0889V35.8604H23.5107V35.0889H26.6943ZM27.1777 31.8906V32.6621H23.5107V31.8906H27.1777Z" fill="#1C1D1F"/>
<path d="M32.5928 36.7393H33.5303C33.4814 37.1885 33.3529 37.5905 33.1445 37.9453C32.9362 38.3001 32.6416 38.5817 32.2607 38.79C31.8799 38.9951 31.4046 39.0977 30.835 39.0977C30.4183 39.0977 30.0391 39.0195 29.6973 38.8633C29.3587 38.707 29.0674 38.4857 28.8232 38.1992C28.5791 37.9095 28.3903 37.5628 28.2568 37.1592C28.1266 36.7523 28.0615 36.2998 28.0615 35.8018V35.0938C28.0615 34.5957 28.1266 34.1449 28.2568 33.7412C28.3903 33.3343 28.5807 32.986 28.8281 32.6963C29.0788 32.4066 29.3799 32.1836 29.7314 32.0273C30.083 31.8711 30.4785 31.793 30.918 31.793C31.4551 31.793 31.9092 31.8939 32.2803 32.0957C32.6514 32.2975 32.9395 32.5775 33.1445 32.9355C33.3529 33.2904 33.4814 33.7021 33.5303 34.1709H32.5928C32.5472 33.8389 32.4626 33.554 32.3389 33.3164C32.2152 33.0755 32.0394 32.89 31.8115 32.7598C31.5837 32.6296 31.2858 32.5645 30.918 32.5645C30.6022 32.5645 30.3239 32.6247 30.083 32.7451C29.8454 32.8656 29.6452 33.0365 29.4824 33.2578C29.3229 33.4792 29.2025 33.7445 29.1211 34.0537C29.0397 34.363 28.999 34.7064 28.999 35.084V35.8018C28.999 36.1501 29.0348 36.4772 29.1064 36.7832C29.1813 37.0892 29.2936 37.3577 29.4434 37.5889C29.5931 37.82 29.7835 38.0023 30.0146 38.1357C30.2458 38.266 30.5192 38.3311 30.835 38.3311C31.2354 38.3311 31.5544 38.2676 31.792 38.1406C32.0296 38.0137 32.2087 37.8314 32.3291 37.5938C32.4528 37.3561 32.5407 37.0713 32.5928 36.7393Z" fill="#1C1D1F"/>
</svg>
