<svg width="50" height="50" viewBox="0 0 50 50" fill="none" xmlns="http://www.w3.org/2000/svg">
<path d="M19.2027 11.3644C21.0094 11.1104 22.8161 10.712 24.6279 10.6472C26.1025 10.5925 27.5922 10.9809 29.0818 11.1004C29.9726 11.1702 30.8735 11.1054 31.7743 11.1004C31.9454 11.1751 32.1165 11.2548 32.2877 11.3295C33.1332 12.211 34.2202 12.963 34.7587 13.9989C35.3677 15.1693 35.5639 16.5787 35.7904 17.9084C36.2635 20.6575 36.3239 23.5012 37.8639 25.9813C37.2751 27.3708 36.9026 28.9097 36.0471 30.1099C35.1211 31.4098 34 32.5 32.5594 33.5164C32.9469 32.3361 32.5997 31.2803 31.568 30.7325C30.5866 30.2096 29.409 30.0552 28.3169 29.7364C27.7884 27.7941 25.8659 27.0222 23.4754 27.7792C22.4286 28.0332 21.7744 28.6458 21.6486 29.7364C20.1138 30.7524 19.5 31 18.2012 30.7524C17.7784 30.2046 17.2701 29.7065 16.9531 29.1089C15.9515 27.2015 15.7855 25.1098 15.6194 23.0032C15.2772 18.6455 15.1564 14.3874 19.1926 11.3594L19.2027 11.3644ZM32.5343 24.0391C32.6098 23.5659 32.7507 23.0928 32.7456 22.6247C32.7356 21.0858 31.9656 20.3686 30.5162 20.4682C29.1171 20.8916 28.6843 21.6137 28.8101 23.287C28.8856 24.298 29.3536 25.0451 30.3903 25.2393C31.3868 25.4236 32.187 25.0799 32.5343 24.0391Z" fill="#F3DBB3"/>
<path d="M28.322 29.7414C29.4141 30.0602 30.5917 30.2195 31.5731 30.7375C32.5998 31.2853 32.952 32.3411 32.5645 33.5214C32.3055 34.3102 31.697 34.8275 30.9188 35.2495C29.867 35.4089 28.8202 35.5633 27.7684 35.7227C27.0606 35.8299 26.0303 35.3447 25.5137 34.7615C25.2017 34.6519 24.7919 34.7179 24.4849 34.8275C23.7149 35.1014 23.4546 35.7276 22.2223 35.7276C21.1705 35.5683 20.1187 35.4089 19.0719 35.2545C18.303 34.8275 17.7879 34.3102 17.4312 33.5413C17.0185 32.4307 17.4967 31.5642 18.2163 30.7624C19.3333 30.1723 20.3637 30.1723 21.6637 29.7464C22.323 31.5941 24.4116 32.4955 26.2485 31.7285C27.2148 31.35 28.0804 30.862 28.332 29.7464L28.322 29.7414Z" fill="#D3AE91"/>
<path d="M12.1519 25.9168C11.5983 26.2056 10.8786 26.8481 10.5313 26.6937C10.0331 26.4696 9.59024 25.6877 9.49965 25.09C9.27318 23.596 9.26311 22.067 9.16246 20.5531C9.32854 20.1895 9.52481 19.8359 9.66573 19.4624C11.095 15.6973 12.2123 11.6932 16.9531 10.5926C17.2802 10.6872 17.6073 10.7819 17.9395 10.8765C17.5318 11.2301 17.1292 11.5986 16.7115 11.9373C14.8796 13.4313 14.5021 15.5479 14.1851 17.6894C13.7724 20.4933 13.6416 23.3669 12.1519 25.9118V25.9168Z" fill="#965B51"/>
<path d="M12.1519 25.9168C13.6416 23.3719 13.7724 20.4981 14.1851 17.6942C14.5021 15.5527 14.8796 13.4361 16.7115 11.9421C17.1292 11.5984 17.5318 11.2349 17.9394 10.8813C18.3622 11.0406 18.7799 11.205 19.2027 11.3644C15.1665 14.3924 15.2872 18.6554 15.6294 23.0081C15.7955 25.1098 15.9616 27.2064 16.9631 29.1139C17.2802 29.7165 17.7885 30.2145 18.2112 30.7573C17.4915 31.5542 17.0134 32.4207 17.4261 33.5363C14.7286 32.1269 13.2943 29.7812 12.4689 26.9873C12.3632 26.6337 12.2626 26.2751 12.1569 25.9166L12.1519 25.9168Z" fill="#E5C7A4"/>
<path d="M32.4991 10.8317C35.2872 9.41229 37.6878 9.76589 39.4895 12.2311C40.5464 13.6754 41.1402 15.4483 41.9253 17.0818C42.0058 17.2462 42.036 17.5649 41.9404 17.6546C40.5111 18.9743 40.954 20.7174 40.8332 22.331C40.803 22.7394 40.7225 23.1428 40.6671 23.5511C39.0366 22.5551 38.7849 20.822 38.3269 19.2134C37.874 17.6297 37.5922 15.9912 37.0235 14.4523C36.5303 13.1126 35.8811 11.743 34.3058 11.25C33.717 11.0657 33.103 10.9711 32.4991 10.8317Z" fill="#975C52"/>
<path d="M32.4991 10.8317C33.103 10.9661 33.717 11.0657 34.3058 11.25C35.8811 11.743 36.5303 13.1076 37.0235 14.4523C37.5922 15.9912 37.874 17.6297 38.3269 19.2134C38.7849 20.822 39.0366 22.5551 40.6671 23.5511C40.6219 24.084 40.6771 24.6517 40.501 25.1397C40.2947 25.7224 39.9927 26.5292 39.5347 26.6886C39.117 26.833 38.4326 26.2503 37.8689 25.9864C36.3289 23.5062 36.2635 20.6625 35.7954 17.9134C35.569 16.5837 35.3677 15.1743 34.7637 14.004C34.2252 12.9681 33.1382 12.2111 32.2927 11.3346C32.2927 11.1851 32.2927 11.0407 32.2927 10.8913C32.3531 10.8365 32.4235 10.8166 32.504 10.8365L32.4991 10.8317Z" fill="#834843"/>
<path d="M16.9531 10.5926C12.2123 11.6883 11.09 15.6973 9.66573 19.4624C9.52481 19.8359 9.33357 20.1895 9.16246 20.5531C8.8001 19.6218 9 18.5 8.08045 17.759C8.00496 17.5498 7.95967 17.2609 8.05026 17.0767C8.87562 15.3834 9.52987 13.5656 10.622 12.0616C12.2022 9.8902 14.3512 9.5366 16.9481 10.5974L16.9531 10.5926Z" fill="#844944"/>
<path d="M27.5217 38.4817C26.4296 40.5036 23.571 40.5086 22.4639 38.4817C22.3884 37.899 22.3179 37.3163 22.2424 36.7286C22.9218 36.5692 23.4111 35.9914 23.9697 35.8619C23.9697 35.8619 24.7484 35.5881 25 35.862C25.2768 35.5582 26.0303 35.8619 26.0303 35.8619C26.6645 36.0114 27.099 36.5792 27.7431 36.7286L27.5167 38.4767L27.5217 38.4817Z" fill="#FF8C92"/>
<path d="M22.2424 36.7337C22.3179 37.3164 22.3883 37.8991 22.4638 38.4867C20.7577 37.9987 19.4593 37.0873 19.0668 35.2496C20.1186 35.4089 21.1704 35.5683 22.2172 35.7227C22.2273 36.0614 22.2323 36.395 22.2424 36.7337Z" fill="#BE907B"/>
<path d="M27.5217 38.4817C27.5972 37.899 27.6727 37.3164 27.7482 36.7337C27.7582 36.395 27.7633 36.0614 27.7733 35.7227C28.8252 35.5633 29.872 35.4089 30.9238 35.2496C30.5212 37.0823 29.2429 38.0085 27.5217 38.4817Z" fill="#BE917C"/>
<path d="M32.2876 10.8912C32.2876 11.0406 32.2876 11.1851 32.2876 11.3345C32.1165 11.2598 31.9454 11.1801 31.7743 11.1054C31.9454 11.0357 32.1165 10.961 32.2876 10.8912Z" fill="#975C52"/>
<path d="M28.322 29.7414C28.0703 30.857 27.2046 31.3452 26.2383 31.7237C26.0974 31.5843 25.9766 31.3651 25.8055 31.3203C23.9485 30.8273 23.2036 29.642 23.4804 27.7844C25.871 27.0224 27.7935 27.7991 28.322 29.7414Z" fill="#605561"/>
<path d="M32.5343 24.0391C32.187 25.0799 31.3868 25.4285 30.3903 25.2393C29.3586 25.0451 28.8906 24.2931 28.8101 23.287C28.6843 21.6137 29.1213 20.8622 30.5162 20.4682C30.5162 21.3574 30.5161 21.2192 30.5211 22.5698C30.4155 24.0988 31.4673 24.0839 32.5343 24.0391Z" fill="#554955"/>
<path d="M23.4804 27.7844C23.2036 29.642 23.9485 30.8273 25.8055 31.3203C25.9716 31.3651 26.0924 31.5843 26.2383 31.7237C24.4014 32.4957 22.3129 31.5892 21.6536 29.7416C21.7794 28.6509 22.4336 28.0384 23.4804 27.7844Z" fill="#4F4350"/>
<path d="M30.5162 20.4682C31.9706 20.3637 32.7356 21.0808 32.7456 22.6247C32.7456 23.0978 32.5343 24.0391 32.5343 24.0391C31.4673 24.0789 30.4155 24.0988 30.5211 22.5698C30.5211 22.5698 30.5162 21.6676 30.5162 20.4682Z" fill="#675D67"/>
<path d="M27.7684 35.7227C27.7583 36.0613 27.7532 36.3951 27.7431 36.7338C27.0989 36.5844 26.0303 36.3792 25.5151 35.862C25.5151 35.862 25.5151 37.4137 25 37.4137C24.4848 37.4137 24.4848 35.862 24.4848 35.862C23.9697 36.3792 22.9168 36.5793 22.2424 36.7337C22.2323 36.395 22.2273 36.0614 22.2172 35.7227C22.9394 35.7177 23.4545 35.3448 24.4719 34.7566C24.7839 34.6471 25.2016 34.6471 25.5086 34.7566C26.5455 35.3448 27.0606 35.7228 27.7632 35.7178L27.7684 35.7227Z" fill="#E6646E"/>
<path d="M31.4287 21.767C31.4287 22.1955 31.0828 22.5429 30.656 22.5429C30.2292 22.5429 29.8833 22.1955 29.8833 21.767C29.8833 21.3385 30.2292 20.9911 30.656 20.9911C31.0828 20.9911 31.4287 21.3385 31.4287 21.767Z" fill="white"/>
<path d="M21.0175 23.9257C20.6702 24.9666 19.87 25.3152 18.8736 25.126C17.8419 24.9318 17.3738 24.1797 17.2933 23.1737C17.1675 21.5004 17.6045 20.7489 18.9994 20.3549C18.9994 21.244 18.9994 21.106 19.0044 22.4566C18.8987 23.9855 19.9506 23.9706 21.0175 23.9257Z" fill="#554955"/>
<path d="M18.9994 20.3549C20.4538 20.2503 21.2188 20.9674 21.2288 22.5112C21.2288 22.9844 21.0175 23.9257 21.0175 23.9257C19.9506 23.9656 18.8987 23.9855 19.0044 22.4566C19.0044 22.4566 18.9994 21.5543 18.9994 20.3549Z" fill="#675D67"/>
<path d="M19.912 21.6541C19.912 22.0826 19.566 22.43 19.1393 22.43C18.7125 22.43 18.3665 22.0826 18.3665 21.6541C18.3665 21.2256 18.7125 20.8782 19.1393 20.8782C19.566 20.8782 19.912 21.2256 19.912 21.6541Z" fill="white"/>
</svg>
