<svg width="50" height="50" viewBox="0 0 50 50" fill="none" xmlns="http://www.w3.org/2000/svg">
<path d="M10.5832 24.9996C10.5832 30.4326 13.7845 35.1277 18.4264 37.3527L11.7881 19.4136C10.9923 21.1712 10.5817 23.0747 10.5832 24.9996ZM33.8944 24.307C33.8944 22.6106 33.2766 21.4359 32.7467 20.5215C32.0413 19.3909 31.3801 18.4334 31.3801 17.3028C31.3801 16.041 32.3503 14.8665 33.717 14.8665C33.7787 14.8665 33.8372 14.8741 33.8973 14.8775C31.4214 12.6403 28.1227 11.2743 24.4997 11.2743C19.6379 11.2743 15.3606 13.7346 12.8722 17.461C13.1987 17.4707 13.5064 17.4775 13.7678 17.4775C15.2234 17.4775 17.4766 17.3033 17.4766 17.3033C18.2268 17.2597 18.3152 18.3464 17.5658 18.4339C17.5658 18.4339 16.8119 18.5214 15.973 18.5648L21.0408 33.4322L24.0863 24.4235L21.9181 18.5642C21.1687 18.5209 20.4588 18.4334 20.4588 18.4334C19.7089 18.39 19.7968 17.2592 20.5467 17.3028C20.5467 17.3028 22.8449 17.477 24.2124 17.477C25.6677 17.477 27.9212 17.3028 27.9212 17.3028C28.6719 17.2592 28.7601 18.3459 28.0105 18.4334C28.0105 18.4334 27.255 18.5209 26.4177 18.5642L31.4468 33.3191L32.8349 28.7441C33.4365 26.8456 33.8944 25.482 33.8944 24.307Z" fill="#21759B"/>
<path d="M24.7438 26.2002L20.5684 38.167C21.845 38.5379 23.1689 38.7262 24.4997 38.7262C26.1203 38.7262 27.6744 38.4499 29.121 37.9482C29.0824 37.8881 29.0493 37.8249 29.022 37.7591L24.7438 26.2002ZM36.7108 18.4143C36.7707 18.8515 36.8046 19.3209 36.8046 19.8257C36.8046 21.2186 36.5408 22.7843 35.7464 24.7421L31.4955 36.864C35.6328 34.4845 38.4156 30.0635 38.4156 24.9999C38.4159 22.6135 37.7978 20.3695 36.7108 18.4143Z" fill="#21759B"/>
<path d="M24.4997 9C15.5549 9 8.27734 16.1774 8.27734 24.9996C8.27734 33.8229 15.5549 41 24.4997 41C33.4442 41 40.7229 33.8229 40.7229 24.9996C40.7226 16.1774 33.4442 9 24.4997 9ZM24.4997 40.2666C15.9651 40.2666 9.02118 33.4178 9.02118 24.9996C9.02118 16.5819 15.9648 9.73364 24.4997 9.73364C33.034 9.73364 39.9774 16.5819 39.9774 24.9996C39.9774 33.4178 33.034 40.2666 24.4997 40.2666Z" fill="#21759B"/>
</svg>
