<svg width="50" height="50" viewBox="0 0 50 50" fill="none" xmlns="http://www.w3.org/2000/svg">
<path d="M11.1336 16.0536C11.3444 15.8988 11.5473 15.7284 11.7775 15.5908C13.5589 14.485 15.3447 13.3832 17.1347 12.2855C17.2043 12.2486 17.2758 12.2158 17.3488 12.1874C17.3488 14.75 17.3488 17.3114 17.3488 19.8716C17.3488 22.3344 17.3488 24.7966 17.3488 27.2582C17.3445 27.355 17.3353 27.4515 17.3214 27.5473L11.1368 23.7378C11.1279 23.7141 11.1279 23.6876 11.1368 23.6639C11.1985 23.6412 11.2587 23.6142 11.3171 23.583C12.7047 22.7307 14.0912 21.8784 15.4767 21.0262C16.0739 20.6562 16.6647 20.2794 17.3037 19.8785C17.1878 19.7959 17.1283 19.746 17.0639 19.7065C16.1817 19.1524 15.3028 18.5932 14.4174 18.0478C13.3228 17.3768 12.2266 16.7178 11.1336 16.0536Z" fill="#9ADD01"/>
<path d="M18.7672 37.8279C18.5692 37.7212 18.3663 37.6232 18.1748 37.5044C16.4084 36.4216 14.6441 35.337 12.8819 34.2508C12.7709 34.1819 12.6646 34.1045 12.523 34.0082C13.9508 33.1238 15.3432 32.26 16.7389 31.4014C17.4069 30.9885 18.083 30.5893 18.7543 30.1832C18.7543 32.732 18.7586 35.2797 18.7672 37.8262V37.8279Z" fill="#DE1C2B"/>
<path d="M24.9967 34.0305C24.9996 34.0254 25.0035 34.021 25.0081 34.0177C25.0127 34.0143 25.018 34.0121 25.0235 34.0111C25.029 34.0101 25.0346 34.0104 25.04 34.012C25.0454 34.0136 25.0504 34.0164 25.0547 34.0202L31.2361 37.8279C30.4425 38.332 29.6505 38.8431 28.8521 39.3403C27.6995 40.0561 26.5421 40.7615 25.3863 41.4687C25.264 41.5444 25.1304 41.6012 25.0032 41.6666C25.001 39.1224 24.9989 36.577 24.9967 34.0305Z" fill="#FD8502"/>
<path d="M32.5788 12.1582L32.6947 12.2356C32.6819 12.3732 32.6577 12.5126 32.6577 12.652C32.6577 15.0402 32.6577 17.4295 32.6577 19.82C32.1458 19.5241 31.6291 19.2367 31.1236 18.927C29.6362 18.0094 28.1515 17.0917 26.6695 16.1741C26.5851 16.116 26.5039 16.0528 26.4264 15.9848C27.7737 15.1606 29.1243 14.3416 30.4685 13.5088C31.1816 13.0684 31.877 12.609 32.5788 12.1582Z" fill="#0095D7"/>
<path d="M38.8889 23.7499V31.4032C38.806 31.3762 38.7253 31.3422 38.6474 31.3016C36.7157 30.1018 34.784 28.9008 32.8523 27.6987C32.7902 27.6533 32.7325 27.6015 32.6801 27.5438C32.7408 27.5215 32.8 27.4945 32.8571 27.463L38.8889 23.7499Z" fill="#0094D6"/>
<path d="M38.8889 23.7499L32.8507 27.463C32.7936 27.4945 32.7344 27.5215 32.6736 27.5438C32.6736 25.0065 32.6779 22.468 32.6865 19.9284C34.1406 20.8059 35.5942 21.6829 37.0473 22.5592C37.659 22.9274 38.2755 23.2853 38.8888 23.6484L38.8889 23.7499Z" fill="#73CAE0"/>
<path d="M11.1368 23.7378L17.3263 27.5421C17.2724 27.5999 17.2137 27.6524 17.1508 27.6987C15.2106 28.9066 13.2703 30.111 11.33 31.312C11.2753 31.3447 11.2189 31.3739 11.1111 31.4324V31.1072C11.1111 28.7764 11.1111 26.4444 11.1111 24.1112C11.1127 23.9856 11.1287 23.8634 11.1368 23.7378Z" fill="#50B621"/>
<path d="M24.9967 34.0305C24.9967 36.577 24.997 39.1224 24.997 41.6666C24.8795 41.6081 24.7587 41.5599 24.6477 41.4945C22.8018 40.3612 20.956 39.2256 19.1101 38.0877C18.9894 38.012 18.8783 37.9157 18.7624 37.8313C19.9553 37.1053 21.1481 36.386 22.3361 35.6548C23.2069 35.118 24.0698 34.5691 24.9374 34.0271C24.9464 34.0207 24.957 34.0176 24.9677 34.0182C24.9785 34.0189 24.9885 34.0232 24.9967 34.0305Z" fill="#DD1A2A"/>
<path d="M32.6577 19.82C32.6577 17.4307 32.6577 15.0413 32.6577 12.652C32.6577 12.5126 32.6819 12.3732 32.6947 12.2356C33.4996 12.7156 34.3203 13.1871 35.1252 13.6775C36.3084 14.3967 37.4835 15.1279 38.6666 15.8575C38.7471 15.9205 38.8215 15.992 38.8888 16.0708C38.8263 16.0847 38.7654 16.1055 38.7069 16.1328C37.4642 16.8984 36.2263 17.6813 34.9819 18.4349C34.206 18.9029 33.4304 19.3589 32.6577 19.82Z" fill="#73CAE0"/>
<path d="M32.6577 19.82C33.4304 19.3589 34.206 18.9029 34.9755 18.4332C36.2198 17.671 37.4577 16.8967 38.7004 16.131C38.761 16.1039 38.8242 16.0837 38.8888 16.0708V23.6415C38.2755 23.2784 37.6589 22.9206 37.0472 22.5524C35.592 21.6783 34.1384 20.8013 32.6864 19.9215C32.6864 19.8871 32.6752 19.8527 32.6687 19.8183L32.6577 19.82Z" fill="#0094D6"/>
<path d="M24.9438 34.0219C24.0762 34.5639 23.2134 35.1128 22.3425 35.6496C21.1545 36.3809 19.9617 37.1001 18.7689 37.8262C18.7689 35.2774 18.7646 32.7297 18.756 30.1832C19.2888 30.5016 19.8249 30.8164 20.3528 31.1416C21.7791 32.0203 23.2037 32.9018 24.6267 33.7862C24.7378 33.855 24.8376 33.9428 24.9438 34.0219Z" fill="#FD8501"/>
<path d="M11.1336 16.0536C12.2266 16.7178 13.3229 17.3768 14.4143 18.0478C15.2997 18.5932 16.185 19.1524 17.0608 19.7065C17.1251 19.746 17.1847 19.7959 17.3006 19.8785C16.6567 20.2794 16.0708 20.6562 15.4735 21.0262C14.087 21.8807 12.7005 22.733 11.314 23.583C11.2556 23.6142 11.1954 23.6412 11.1337 23.6639C11.1337 21.9691 11.116 20.2725 11.1127 18.576C11.1111 17.7347 11.1255 16.8933 11.1336 16.0536Z" fill="#50B620"/>
<path d="M17.3987 12.1514C18.7702 11.298 20.1411 10.4446 21.5116 9.59118C22.178 9.17651 22.8493 8.77045 23.5608 8.33514C23.5811 8.43843 23.5951 8.54304 23.6026 8.64829C23.6026 10.9814 23.6026 13.3151 23.6026 15.6494C23.595 15.7595 23.5794 15.8688 23.556 15.9764C22.3422 15.2262 21.1301 14.4725 19.9115 13.7292C19.0921 13.2303 18.2647 12.7468 17.4421 12.2564L17.3987 12.1514Z" fill="#9ADD01"/>
<path d="M32.5788 12.1582C31.877 12.609 31.1815 13.0684 30.4732 13.5071C29.1291 14.3399 27.7785 15.1589 26.4312 15.9831C26.4226 14.0755 26.4156 12.1673 26.4102 10.2586C26.4102 9.64608 26.4102 9.03354 26.4102 8.33325C26.7016 8.50531 26.927 8.63436 27.1491 8.77201C28.9123 9.85255 30.6745 10.936 32.4355 12.0222C32.4878 12.0619 32.5358 12.1074 32.5788 12.1582Z" fill="#73CAE0"/>
<path d="M31.2361 37.8279L25.0547 34.0202L28.1955 32.0518C29.1892 31.4324 30.1835 30.8141 31.1783 30.197C31.1837 30.2034 31.1906 30.208 31.1983 30.2104C31.2059 30.2129 31.2141 30.213 31.2218 30.2108C31.2218 30.4069 31.2363 30.6031 31.2363 30.7992C31.2363 33.0934 31.2401 35.3818 31.2476 37.6644L31.2347 37.8365L31.2361 37.8279Z" fill="#DD1A2A"/>
<path d="M31.2349 37.8296C31.2349 37.7746 31.243 37.7195 31.2478 37.6576C31.2803 37.4983 31.3018 37.3367 31.3122 37.1741C31.3186 34.8478 31.3186 32.5221 31.3122 30.197L36.2445 33.2425L37.4823 34.003C37.1974 34.1854 36.9447 34.3471 36.6871 34.5089C34.9969 35.5504 33.3056 36.5908 31.6132 37.63C31.4989 37.7126 31.3637 37.766 31.2349 37.8296Z" fill="#FD8501"/>
<path d="M17.4421 12.2564C18.2647 12.7468 19.0921 13.2303 19.9115 13.7292C21.1301 14.4725 22.3422 15.2262 23.556 15.9764C23.4803 16.0464 23.4002 16.1107 23.3162 16.1689C21.4382 17.3412 19.5601 18.5106 17.6821 19.6772C17.6032 19.7271 17.5211 19.765 17.4374 19.8063L17.4421 12.2564Z" fill="#50B621"/>
<path d="M17.4421 12.2564C17.4421 14.7731 17.4386 17.2896 17.431 19.8063L17.3522 19.8665C17.3522 17.3062 17.3522 14.7448 17.3522 12.1822C17.3568 12.1725 17.364 12.1644 17.3728 12.1589C17.3817 12.1534 17.3918 12.1507 17.4021 12.1513L17.4421 12.2564Z" fill="#75C34C"/>
<path d="M31.3231 30.2039C31.3231 32.5302 31.3231 34.8558 31.3231 37.181C31.3127 37.3436 31.2912 37.5052 31.2587 37.6644C31.2587 35.3703 31.255 33.0819 31.2475 30.7992C31.2475 30.6031 31.2378 30.4069 31.233 30.2108V30.1798L31.3231 30.2039Z" fill="#F88635"/>
<path d="M31.224 30.1799V30.2164C31.2161 30.2187 31.2078 30.2185 31.2 30.2161C31.1922 30.2136 31.1852 30.2089 31.1797 30.2025L31.1961 30.1764L31.224 30.1799Z" fill="#FD8501"/>
</svg>
