<svg width="50" height="50" viewBox="0 0 50 50" fill="none" xmlns="http://www.w3.org/2000/svg">
<path d="M12.5022 17.9296C12.5145 17.8662 12.5262 17.7386 12.5459 17.6772C12.6654 17.3608 12.7746 17.0398 12.913 16.731C13.1213 16.2732 13.3223 15.8232 13.5583 15.3885C13.8074 14.9276 14.0812 14.4822 14.3696 14.049C14.6162 13.6787 14.8822 13.3233 15.1664 12.9845C15.4578 12.645 15.7607 12.327 16.0695 12.0121C16.2687 11.8041 16.4793 11.6087 16.7003 11.4268C17.0513 11.1442 17.4082 10.8677 17.7738 10.6081C18.2112 10.2937 18.6726 10.0183 19.1533 9.78475C19.6048 9.56662 20.0637 9.35925 20.5254 9.17031C21.1935 8.90008 21.8847 8.69843 22.5895 8.56815C22.9274 8.50364 23.2683 8.45909 23.6091 8.41454C24.0829 8.35009 24.5606 8.3239 25.0381 8.3362C25.3178 8.3362 25.5975 8.36539 25.8771 8.39304C26.2034 8.4253 26.5297 8.4637 26.8531 8.51132C27.1255 8.55279 27.3964 8.60656 27.6659 8.66493C28.9487 8.92595 30.1877 9.38615 31.3425 10.0305C31.82 10.2983 32.2795 10.6006 32.7175 10.9353C32.9768 11.1365 33.2303 11.347 33.475 11.5697C33.7445 11.8139 34.0096 12.0659 34.2587 12.3378C34.5077 12.6096 34.7772 12.9338 35.0263 13.2394C35.459 13.7792 35.8487 14.3557 36.1916 14.963C36.4116 15.3408 36.6155 15.731 36.8107 16.1212C37.0059 16.5113 37.1865 16.9046 37.3496 17.3086C37.4489 17.5243 37.4996 17.7613 37.4978 18.0011C37.496 18.2409 37.4419 18.477 37.3395 18.6911C37.2357 18.9159 37.0806 19.1101 36.8882 19.2562C36.6957 19.4023 36.4719 19.4958 36.2368 19.5283C35.8953 19.6005 35.5413 19.5674 35.2171 19.433C34.8629 19.276 34.5747 18.9889 34.4058 18.625C34.2703 18.347 34.1596 18.0551 34.0314 17.7725C33.754 17.1392 33.4214 16.5345 33.038 15.966C32.8544 15.7018 32.6563 15.4453 32.4553 15.198C32.2543 14.9507 32.0649 14.7371 31.8537 14.5328C31.6425 14.3285 31.3905 14.1058 31.1531 13.9C30.7905 13.593 30.4036 13.3196 29.9965 13.0828C29.5529 12.8186 29.0914 12.5896 28.6156 12.3977C28.1186 12.1882 27.6041 12.0282 27.0789 11.9199C26.7263 11.8493 26.368 11.7955 26.0111 11.7464C25.5395 11.686 25.0634 11.6731 24.5895 11.7079C24.1991 11.732 23.8102 11.7766 23.4241 11.8416C23.0221 11.9107 22.6215 11.9952 22.2268 12.1089C21.7306 12.2474 21.2478 12.4346 20.7847 12.668C20.2862 12.9001 19.8097 13.1814 19.3616 13.5083C19.0615 13.7356 18.7672 13.9691 18.4876 14.2287C18.2249 14.4696 17.9755 14.7261 17.7403 14.9967C17.4941 15.2794 17.264 15.5805 17.0397 15.8846C16.7018 16.3421 16.409 16.8347 16.1657 17.3547C15.9953 17.7218 15.8481 18.1012 15.6879 18.4745C15.5806 18.727 15.42 18.9503 15.2183 19.1274C15.0166 19.3044 14.7793 19.4305 14.5243 19.496C14.2694 19.5615 14.0036 19.5647 13.7473 19.5053C13.491 19.446 13.251 19.3256 13.0456 19.1534C12.904 19.0449 12.7847 18.9073 12.6949 18.7489C12.605 18.5905 12.5459 18.4492 12.5249 18.3515C12.5249 18.3515 12.5022 18.1484 12.5022 18.1842L12.5022 17.9296Z" fill="#F49813"/>
<path d="M12.7318 24.3286C12.8855 24.1403 13.065 23.9363 13.3211 23.9559C14.0712 23.9482 14.8235 23.9306 15.5731 23.9676C15.9536 23.9794 16.2158 24.337 16.2714 24.7155C17.0088 27.9216 17.733 31.1323 18.4672 34.3396C18.6824 35.33 18.9446 36.3105 19.085 37.3179C19.2299 38.2229 19.2585 39.1414 19.3962 40.0481C19.5857 38.754 19.7553 37.4515 20.0818 36.1873C21.0418 32.3594 22.0011 28.5322 22.9622 24.7055C23.037 24.2692 23.421 23.9589 23.829 23.9589C24.6639 23.9363 25.5004 23.9518 26.3354 23.9518C26.7831 23.9293 27.2623 24.2091 27.3701 24.6997C28.0873 27.49 28.7955 30.2856 29.5098 33.0784C29.9432 34.8872 30.5109 36.6656 30.7561 38.5214C30.8238 39.0324 30.8899 39.5448 30.9884 40.0523C31.2578 37.1365 31.9594 34.2996 32.5366 31.4445C33.013 29.1729 33.4788 26.8989 33.9607 24.6271C34.0317 24.1708 34.4834 23.9413 34.881 23.9541C35.5563 23.95 36.2326 23.9293 36.9066 23.9659C37.307 23.9784 37.5371 24.4516 37.3962 24.8333C36.0414 30.1779 34.6916 35.5261 33.3363 40.8709C33.2635 41.2993 32.9144 41.634 32.5052 41.6409C31.4588 41.6774 30.4103 41.6498 29.3639 41.6556C28.9888 41.6804 28.5923 41.4654 28.5261 41.0433C27.5894 37.368 26.6714 33.6861 25.7433 30.0078C25.4074 28.7282 25.2714 27.4017 25.1304 26.0857C24.958 27.2575 24.8727 28.4485 24.5807 29.5998C23.6308 33.387 22.6753 37.176 21.723 40.9638C21.6157 41.5773 20.9598 41.6998 20.4718 41.6598C19.4987 41.6409 18.5255 41.6839 17.5534 41.6409C17.2071 41.642 16.94 41.3536 16.8777 41.0038C15.5119 35.6804 14.1505 30.3545 12.7836 25.0323C12.7363 24.7997 12.7423 24.5624 12.7318 24.3286Z" fill="#3069B5"/>
</svg>
