<svg width="50" height="50" viewBox="0 0 50 50" fill="none" xmlns="http://www.w3.org/2000/svg">
<path d="M16 13.4852C16.0093 13.4357 16.0182 13.3362 16.0332 13.2883C16.124 13.0415 16.2071 12.7911 16.3123 12.5502C16.4706 12.1932 16.6234 11.8421 16.8028 11.503C16.9921 11.1436 17.2003 10.7961 17.4195 10.4583C17.6069 10.1695 17.8091 9.89225 18.0252 9.62793C18.2466 9.36314 18.4769 9.11512 18.7117 8.8695C18.863 8.70727 19.0231 8.55484 19.1911 8.413C19.4579 8.19254 19.7292 7.97687 20.0071 7.77438C20.3396 7.52918 20.6903 7.31437 21.0557 7.13216C21.3989 6.96203 21.7477 6.80027 22.0987 6.6529C22.6065 6.44213 23.1319 6.28484 23.6677 6.18322C23.9245 6.1329 24.1836 6.09815 24.4427 6.06341C24.8028 6.01313 25.166 5.99271 25.5289 6.0023C25.7415 6.0023 25.9541 6.02507 26.1667 6.04663C26.4147 6.07179 26.6628 6.10175 26.9086 6.13889C27.1156 6.17124 27.3216 6.21318 27.5264 6.25871C28.5015 6.4623 29.4433 6.82126 30.3211 7.32387C30.6841 7.53275 31.0334 7.76855 31.3663 8.02959C31.5634 8.18655 31.7561 8.35069 31.9421 8.52443C32.1469 8.71493 32.3484 8.91143 32.5378 9.12351C32.7271 9.33558 32.932 9.58839 33.1213 9.82683C33.4502 10.2478 33.7465 10.6975 34.0071 11.1712C34.1743 11.4659 34.3293 11.7702 34.4777 12.0746C34.626 12.3789 34.7633 12.6856 34.8873 13.0007C34.9628 13.169 35.0013 13.3539 35 13.5409C34.9986 13.7279 34.9574 13.9121 34.8796 14.0791C34.8007 14.2545 34.6828 14.4059 34.5366 14.5199C34.3903 14.6339 34.2201 14.7068 34.0414 14.7321C33.7818 14.7884 33.5127 14.7627 33.2663 14.6578C32.9971 14.5353 32.778 14.3114 32.6496 14.0276C32.5466 13.8107 32.4625 13.5831 32.3651 13.3626C32.1542 12.8686 31.9014 12.3969 31.6099 11.9536C31.4704 11.7475 31.3198 11.5474 31.167 11.3545C31.0142 11.1616 30.8703 10.995 30.7097 10.8357C30.5492 10.6763 30.3576 10.5026 30.1771 10.342C29.9016 10.1026 29.6074 9.88936 29.298 9.70461C28.9608 9.4986 28.61 9.31998 28.2483 9.17023C27.8706 9.00683 27.4795 8.88208 27.0802 8.79761C26.8122 8.74249 26.5399 8.70056 26.2686 8.66221C25.9101 8.61512 25.5482 8.60509 25.1879 8.63226C24.8912 8.651 24.5956 8.68579 24.3021 8.7365C23.9965 8.79042 23.692 8.85632 23.392 8.94498C23.0148 9.05305 22.6478 9.19906 22.2958 9.38111C21.9169 9.56213 21.5547 9.78157 21.214 10.0365C20.9859 10.2138 20.7623 10.396 20.5497 10.5984C20.35 10.7864 20.1604 10.9864 19.9817 11.1975C19.7945 11.418 19.6196 11.6528 19.4491 11.8901C19.1923 12.2469 18.9697 12.6311 18.7847 13.0367C18.6552 13.3231 18.5434 13.619 18.4216 13.9102C18.34 14.1071 18.2179 14.2813 18.0646 14.4194C17.9113 14.5575 17.7309 14.6558 17.5371 14.7069C17.3433 14.758 17.1413 14.7605 16.9465 14.7142C16.7516 14.6679 16.5692 14.574 16.413 14.4397C16.3054 14.3551 16.2148 14.2477 16.1465 14.1242C16.0782 14.0007 16.0332 13.8904 16.0173 13.8142C16.0173 13.8142 16 13.6558 16 13.6837L16 13.4852Z" fill="#F49813"/>
<path d="M16.1746 18.4764C16.2913 18.3295 16.4278 18.1704 16.6225 18.1856C17.1927 18.1796 17.7645 18.1659 18.3343 18.1948C18.6235 18.204 18.8228 18.4829 18.8651 18.7781C19.4256 21.2789 19.9761 23.7833 20.5342 26.2849C20.6978 27.0574 20.8971 27.8222 21.0038 28.608C21.1139 29.3139 21.1357 30.0303 21.2403 30.7375C21.3844 29.7281 21.5133 28.7122 21.7615 27.7262C22.4912 24.7404 23.2204 21.7552 23.951 18.7704C24.0079 18.43 24.2997 18.188 24.6099 18.188C25.2445 18.1704 25.8804 18.1825 26.515 18.1825C26.8553 18.1649 27.2196 18.3832 27.3016 18.7658C27.8467 20.9423 28.3851 23.1228 28.928 25.3012C29.2575 26.7121 29.689 28.0992 29.8754 29.5467C29.9268 29.9453 29.9771 30.345 30.052 30.7408C30.2567 28.4665 30.7901 26.2537 31.2288 24.0267C31.591 22.2549 31.945 20.4812 32.3113 18.7092C32.3653 18.3533 32.7086 18.1743 33.0109 18.1842C33.5242 18.1811 34.0382 18.1649 34.5506 18.1935C34.8549 18.2032 35.0298 18.5723 34.9227 18.87C33.8929 23.0388 32.8668 27.2104 31.8367 31.3793C31.7814 31.7135 31.516 31.9745 31.2049 31.9799C30.4095 32.0084 29.6125 31.9869 28.8171 31.9914C28.532 32.0108 28.2306 31.8431 28.1803 31.5138C27.4683 28.647 26.7705 25.7752 26.065 22.9061C25.8097 21.908 25.7063 20.8734 25.5991 19.8469C25.4681 20.7609 25.4032 21.6898 25.1813 22.5879C24.4592 25.5419 23.7329 28.4973 23.009 31.4518C22.9274 31.9304 22.4289 32.0259 22.0579 31.9946C21.3182 31.9799 20.5785 32.0135 19.8396 31.9799C19.5763 31.9808 19.3733 31.7558 19.3259 31.483C18.2878 27.3308 17.253 23.1766 16.2139 19.0252C16.1779 18.8438 16.1825 18.6587 16.1746 18.4764Z" fill="#3069B5"/>
<path d="M22.9839 39.5669L20.8657 45.3984H20L22.439 39H22.9971L22.9839 39.5669ZM24.7593 45.3984L22.6367 39.5669L22.6235 39H23.1816L25.6294 45.3984H24.7593ZM24.6494 43.0298V43.7241H21.0547V43.0298H24.6494Z" fill="black"/>
<path d="M28.8462 42.8892H27.1367V42.1992H28.8462C29.1772 42.1992 29.4453 42.1465 29.6504 42.041C29.8555 41.9355 30.0049 41.7891 30.0986 41.6016C30.1953 41.4141 30.2437 41.2002 30.2437 40.96C30.2437 40.7402 30.1953 40.5337 30.0986 40.3403C30.0049 40.147 29.8555 39.9917 29.6504 39.8745C29.4453 39.7544 29.1772 39.6943 28.8462 39.6943H27.3345V45.3984H26.4863V39H28.8462C29.3296 39 29.7383 39.0835 30.0723 39.2505C30.4062 39.4175 30.6597 39.6489 30.8325 39.9448C31.0054 40.2378 31.0918 40.5732 31.0918 40.9512C31.0918 41.3613 31.0054 41.7114 30.8325 42.0015C30.6597 42.2915 30.4062 42.5127 30.0723 42.665C29.7383 42.8145 29.3296 42.8892 28.8462 42.8892Z" fill="black"/>
</svg>
