<svg width="50" height="50" viewBox="0 0 50 50" fill="none" xmlns="http://www.w3.org/2000/svg">
<path d="M18.5687 45H31.4313V35.2745L28.2941 32.1372H21.6275L18.5686 35.2745L18.5687 45ZM35.1959 18.5687L32.137 21.6275V28.3725L35.1959 31.4314H45V18.5686L35.1959 18.5687ZM31.4313 5H18.5686V14.8039L21.6275 17.8628H28.2941L31.4314 14.8039L31.4313 5ZM45 45V35.2745L41.9412 32.1372H32.1372V45H45ZM8.05875 5L5 8.05875V17.8628H17.8628V5H8.05875ZM32.1372 5V14.8039L35.1961 17.8628H45V5H32.1372ZM25 26.8823C23.9805 26.8823 23.1961 26.0195 23.1961 25.0784C23.1961 24.0588 24.0588 23.2745 25 23.2745C26.0195 23.2745 26.8039 24.1372 26.8039 25.0784C26.8039 26.0195 26.0195 26.8823 25 26.8823ZM17.8628 18.5687H5V31.4316H14.7255L17.8628 28.3727V18.5687ZM17.8628 35.2747L14.7255 32.1373H5V45H14.7255L17.8628 41.9412V35.2747Z" fill="#40BAC8"/>
</svg>
