<svg width="50" height="50" viewBox="0 0 50 50" fill="none" xmlns="http://www.w3.org/2000/svg">
<path d="M15.0233 21.1433C16.9114 21.1433 17.8015 21.4963 19.1685 22.8881L26.5043 30.3526C26.7216 30.5735 26.7652 30.6621 26.8082 30.7943C26.8303 30.8386 26.8303 30.9047 26.8303 30.949C26.8303 30.9933 26.8303 31.0594 26.8082 31.1037C26.7652 31.236 26.7216 31.3246 26.5043 31.5454L21.4912 36.6688C21.2739 36.8896 21.1874 36.9339 21.0566 36.9782C21.0137 37 20.9486 37 20.905 37C20.8614 37 20.7963 37 20.7528 36.9782C20.6226 36.9339 20.5361 36.8896 20.3188 36.6688L6.10251 22.2031C5.69066 21.7833 5.84225 21.1433 6.53713 21.1433H15.0233ZM35.7283 12.0218C33.8402 12.0218 32.9501 12.3749 31.5832 13.7666L24.2473 21.2312C24.03 21.452 23.9864 21.5406 23.9435 21.6729C23.9213 21.7172 23.9213 21.7833 23.9213 21.8276C23.9213 21.8719 23.9213 21.938 23.9435 21.9823C23.9864 22.1145 24.03 22.2031 24.2473 22.4239L29.2604 27.5255C29.4777 27.7463 29.5642 27.7906 29.695 27.8349C29.738 27.8567 29.803 27.8567 29.8466 27.8567C29.8902 27.8567 29.9553 27.8567 29.9989 27.8349C30.129 27.7906 30.2155 27.7463 30.4328 27.5255L44.6485 13.0598C45.061 12.64 44.9094 12 44.2145 12H35.7283V12.0218Z" fill="#08CF65"/>
</svg>
