<svg width="50" height="50" viewBox="0 0 50 50" fill="none" xmlns="http://www.w3.org/2000/svg">
<path d="M10.5 10.4069L17.4474 9.46372L17.4504 16.1444L10.5063 16.1838L10.5 10.4069ZM17.4441 16.9141L17.4494 23.6006L10.5054 22.6488L10.505 16.8692L17.4441 16.9141ZM18.2863 9.34025L27.4979 8V16.0594L18.2863 16.1322V9.34025ZM27.5 16.977L27.4978 25L18.2862 23.7039L18.2733 16.9619L27.5 16.977Z" fill="#CCEFFC"/>
<path d="M13.9756 19.9321L15.6729 14.1797H16.2046L15.7749 15.8877L13.9648 22H13.4546L13.9756 19.9321ZM12.0044 14.1797L13.4331 19.8784L13.8628 22H13.3311L11.3276 14.1797H12.0044ZM18.4927 19.8784L19.8999 14.1797H20.5767L18.5786 22H18.0469L18.4927 19.8784ZM16.2637 14.1797L17.9395 19.9321L18.4551 22H17.9448L16.1724 15.8877L15.7373 14.1797H16.2637Z" fill="#223561"/>
<path d="M26.2808 20.0771C26.2808 19.8623 26.245 19.6707 26.1733 19.5024C26.1017 19.3341 25.9836 19.1838 25.8188 19.0513C25.6577 18.9152 25.4393 18.7899 25.1636 18.6753C24.8914 18.5571 24.5513 18.4408 24.1431 18.3262C23.7528 18.2152 23.4001 18.0934 23.085 17.9609C22.7699 17.8285 22.4995 17.6763 22.2739 17.5044C22.0519 17.3325 21.8818 17.132 21.7637 16.9028C21.6455 16.6701 21.5864 16.3997 21.5864 16.0918C21.5864 15.791 21.6509 15.5171 21.7798 15.27C21.9087 15.0229 22.0895 14.8099 22.3223 14.6309C22.5586 14.4518 22.8361 14.314 23.1548 14.2173C23.4771 14.1206 23.8298 14.0723 24.2129 14.0723C24.7607 14.0723 25.2334 14.1761 25.6309 14.3838C26.0319 14.5915 26.3416 14.8726 26.5601 15.2271C26.7821 15.578 26.8931 15.9718 26.8931 16.4087H26.2324C26.2324 16.0685 26.1519 15.766 25.9907 15.501C25.8332 15.2324 25.604 15.0229 25.3032 14.8726C25.006 14.7186 24.6426 14.6416 24.2129 14.6416C23.7832 14.6416 23.4215 14.7078 23.1279 14.8403C22.8379 14.9692 22.6177 15.1429 22.4673 15.3613C22.3205 15.5762 22.2471 15.8161 22.2471 16.0811C22.2471 16.2673 22.2829 16.4391 22.3545 16.5967C22.4261 16.7507 22.5425 16.8957 22.7036 17.0317C22.8683 17.1642 23.085 17.2896 23.3535 17.4077C23.6221 17.5223 23.9533 17.6315 24.3472 17.7354C24.7625 17.8499 25.1313 17.9771 25.4536 18.1167C25.7759 18.2563 26.048 18.4175 26.27 18.6001C26.492 18.7791 26.6603 18.9886 26.7749 19.2285C26.8895 19.4684 26.9468 19.7477 26.9468 20.0664C26.9468 20.3851 26.8787 20.6715 26.7427 20.9258C26.6102 21.1764 26.4222 21.3895 26.1787 21.5649C25.9388 21.7404 25.6541 21.8747 25.3247 21.9678C24.9989 22.0609 24.6426 22.1074 24.2559 22.1074C23.9085 22.1074 23.563 22.0627 23.2192 21.9731C22.8755 21.8836 22.5604 21.7458 22.2739 21.5596C21.991 21.3698 21.7637 21.1263 21.5918 20.8291C21.4235 20.5319 21.3394 20.1774 21.3394 19.7656H21.9946C21.9946 20.0951 22.0609 20.3726 22.1934 20.5981C22.3258 20.8237 22.5013 21.0063 22.7197 21.146C22.9417 21.2856 23.1852 21.3877 23.4502 21.4521C23.7188 21.513 23.9873 21.5435 24.2559 21.5435C24.6676 21.5435 25.0239 21.4826 25.3247 21.3608C25.6291 21.2391 25.8636 21.069 26.0283 20.8506C26.1966 20.6286 26.2808 20.3708 26.2808 20.0771Z" fill="#223561"/>
<path d="M33.0967 14.1797H33.7573V19.4756C33.7573 20.0628 33.6338 20.5516 33.3867 20.9419C33.1396 21.3322 32.8066 21.624 32.3877 21.8174C31.9723 22.0107 31.5122 22.1074 31.0073 22.1074C30.4881 22.1074 30.0208 22.0107 29.6055 21.8174C29.1901 21.624 28.8607 21.3322 28.6172 20.9419C28.3773 20.5516 28.2573 20.0628 28.2573 19.4756V14.1797H28.9126V19.4756C28.9126 19.9303 29.0021 20.3117 29.1812 20.6196C29.3602 20.9276 29.6073 21.1585 29.9224 21.3125C30.2375 21.4665 30.5991 21.5435 31.0073 21.5435C31.4119 21.5435 31.7718 21.4665 32.0869 21.3125C32.402 21.1585 32.6491 20.9276 32.8281 20.6196C33.0072 20.3117 33.0967 19.9303 33.0967 19.4756V14.1797Z" fill="#223561"/>
<path d="M40.0415 20.0771C40.0415 19.8623 40.0057 19.6707 39.9341 19.5024C39.8625 19.3341 39.7443 19.1838 39.5796 19.0513C39.4185 18.9152 39.2 18.7899 38.9243 18.6753C38.6522 18.5571 38.312 18.4408 37.9038 18.3262C37.5135 18.2152 37.1608 18.0934 36.8457 17.9609C36.5306 17.8285 36.2603 17.6763 36.0347 17.5044C35.8127 17.3325 35.6426 17.132 35.5244 16.9028C35.4062 16.6701 35.3472 16.3997 35.3472 16.0918C35.3472 15.791 35.4116 15.5171 35.5405 15.27C35.6694 15.0229 35.8503 14.8099 36.083 14.6309C36.3193 14.4518 36.5968 14.314 36.9155 14.2173C37.2378 14.1206 37.5905 14.0723 37.9736 14.0723C38.5215 14.0723 38.9941 14.1761 39.3916 14.3838C39.7926 14.5915 40.1024 14.8726 40.3208 15.2271C40.5428 15.578 40.6538 15.9718 40.6538 16.4087H39.9932C39.9932 16.0685 39.9126 15.766 39.7515 15.501C39.5939 15.2324 39.3647 15.0229 39.064 14.8726C38.7668 14.7186 38.4033 14.6416 37.9736 14.6416C37.5439 14.6416 37.1823 14.7078 36.8887 14.8403C36.5986 14.9692 36.3784 15.1429 36.228 15.3613C36.0812 15.5762 36.0078 15.8161 36.0078 16.0811C36.0078 16.2673 36.0436 16.4391 36.1152 16.5967C36.1868 16.7507 36.3032 16.8957 36.4644 17.0317C36.6291 17.1642 36.8457 17.2896 37.1143 17.4077C37.3828 17.5223 37.714 17.6315 38.1079 17.7354C38.5233 17.8499 38.8921 17.9771 39.2144 18.1167C39.5366 18.2563 39.8088 18.4175 40.0308 18.6001C40.2528 18.7791 40.4211 18.9886 40.5356 19.2285C40.6502 19.4684 40.7075 19.7477 40.7075 20.0664C40.7075 20.3851 40.6395 20.6715 40.5034 20.9258C40.3709 21.1764 40.1829 21.3895 39.9395 21.5649C39.6995 21.7404 39.4149 21.8747 39.0854 21.9678C38.7596 22.0609 38.4033 22.1074 38.0166 22.1074C37.6693 22.1074 37.3237 22.0627 36.98 21.9731C36.6362 21.8836 36.3211 21.7458 36.0347 21.5596C35.7518 21.3698 35.5244 21.1263 35.3525 20.8291C35.1842 20.5319 35.1001 20.1774 35.1001 19.7656H35.7554C35.7554 20.0951 35.8216 20.3726 35.9541 20.5981C36.0866 20.8237 36.262 21.0063 36.4805 21.146C36.7025 21.2856 36.946 21.3877 37.2109 21.4521C37.4795 21.513 37.748 21.5435 38.0166 21.5435C38.4284 21.5435 38.7847 21.4826 39.0854 21.3608C39.3898 21.2391 39.6243 21.069 39.7891 20.8506C39.9574 20.6286 40.0415 20.3708 40.0415 20.0771Z" fill="#223561"/>
<path d="M20.1528 37.3828C20.1528 37.2334 20.1294 37.1016 20.0825 36.9873C20.0386 36.8701 19.9595 36.7646 19.8452 36.6709C19.7339 36.5771 19.5786 36.4878 19.3794 36.4028C19.1831 36.3179 18.9341 36.2314 18.6323 36.1436C18.3159 36.0498 18.0303 35.9458 17.7754 35.8315C17.5205 35.7144 17.3022 35.5811 17.1206 35.4316C16.939 35.2822 16.7998 35.1108 16.7031 34.9175C16.6064 34.7241 16.5581 34.5029 16.5581 34.2539C16.5581 34.0049 16.6094 33.7749 16.7119 33.564C16.8145 33.353 16.9609 33.1699 17.1514 33.0146C17.3447 32.8564 17.5747 32.7334 17.8413 32.6455C18.1079 32.5576 18.4053 32.5137 18.7334 32.5137C19.2139 32.5137 19.6211 32.606 19.9551 32.7905C20.292 32.9722 20.5483 33.2109 20.7241 33.5068C20.8999 33.7998 20.9878 34.1133 20.9878 34.4473H20.144C20.144 34.207 20.0928 33.9946 19.9902 33.8101C19.8877 33.6226 19.7324 33.4761 19.5244 33.3706C19.3164 33.2622 19.0527 33.208 18.7334 33.208C18.4316 33.208 18.1826 33.2534 17.9863 33.3442C17.79 33.4351 17.6436 33.5581 17.5469 33.7134C17.4531 33.8687 17.4062 34.0459 17.4062 34.2451C17.4062 34.3799 17.4341 34.5029 17.4897 34.6143C17.5483 34.7227 17.6377 34.8237 17.7578 34.9175C17.8809 35.0112 18.0361 35.0977 18.2236 35.1768C18.4141 35.2559 18.6411 35.332 18.9048 35.4053C19.2681 35.5078 19.5815 35.6221 19.8452 35.748C20.1089 35.874 20.3257 36.0161 20.4956 36.1743C20.6685 36.3296 20.7959 36.5068 20.8779 36.7061C20.9629 36.9023 21.0054 37.125 21.0054 37.374C21.0054 37.6348 20.9526 37.8706 20.8472 38.0815C20.7417 38.2925 20.5908 38.4727 20.3945 38.6221C20.1982 38.7715 19.9624 38.8872 19.687 38.9692C19.4146 39.0483 19.1099 39.0879 18.7729 39.0879C18.4771 39.0879 18.1855 39.0469 17.8984 38.9648C17.6143 38.8828 17.355 38.7598 17.1206 38.5957C16.8892 38.4316 16.7031 38.2295 16.5625 37.9893C16.4248 37.7461 16.356 37.4648 16.356 37.1455H17.1997C17.1997 37.3652 17.2422 37.5542 17.3271 37.7124C17.4121 37.8677 17.5278 37.9966 17.6743 38.0991C17.8237 38.2017 17.9922 38.2778 18.1797 38.3276C18.3701 38.3745 18.5679 38.3979 18.7729 38.3979C19.0688 38.3979 19.3193 38.3569 19.5244 38.2749C19.7295 38.1929 19.8848 38.0757 19.9902 37.9233C20.0986 37.771 20.1528 37.5908 20.1528 37.3828Z" fill="#1C1D1F"/>
<path d="M25.3691 38.2661L26.9951 39.5537L26.4238 40.0811L24.8242 38.811L25.3691 38.2661ZM26.9731 35.5986V36.0029C26.9731 36.4834 26.9131 36.9141 26.793 37.2949C26.6729 37.6758 26.5 37.9995 26.2744 38.2661C26.0488 38.5327 25.7778 38.7363 25.4614 38.877C25.1479 39.0176 24.7964 39.0879 24.4067 39.0879C24.0288 39.0879 23.6816 39.0176 23.3652 38.877C23.0518 38.7363 22.7793 38.5327 22.5479 38.2661C22.3193 37.9995 22.1421 37.6758 22.0161 37.2949C21.8901 36.9141 21.8271 36.4834 21.8271 36.0029V35.5986C21.8271 35.1182 21.8887 34.689 22.0117 34.311C22.1377 33.9302 22.3149 33.6064 22.5435 33.3398C22.772 33.0703 23.043 32.8652 23.3564 32.7246C23.6729 32.584 24.02 32.5137 24.3979 32.5137C24.7876 32.5137 25.1406 32.584 25.457 32.7246C25.7734 32.8652 26.0444 33.0703 26.27 33.3398C26.4956 33.6064 26.6685 33.9302 26.7886 34.311C26.9116 34.689 26.9731 35.1182 26.9731 35.5986ZM26.1338 36.0029V35.5898C26.1338 35.209 26.0942 34.8721 26.0151 34.5791C25.939 34.2861 25.8262 34.04 25.6768 33.8408C25.5273 33.6416 25.3457 33.4907 25.1318 33.3882C24.918 33.2856 24.6733 33.2344 24.3979 33.2344C24.1372 33.2344 23.8999 33.2856 23.686 33.3882C23.4751 33.4907 23.2935 33.6416 23.1411 33.8408C22.9888 34.04 22.8716 34.2861 22.7896 34.5791C22.7075 34.8721 22.6665 35.209 22.6665 35.5898V36.0029C22.6665 36.3867 22.7075 36.7266 22.7896 37.0225C22.8716 37.3154 22.9888 37.563 23.1411 37.7651C23.2964 37.9644 23.481 38.1152 23.6948 38.2178C23.9087 38.3203 24.146 38.3716 24.4067 38.3716C24.6821 38.3716 24.9268 38.3203 25.1406 38.2178C25.3545 38.1152 25.5347 37.9644 25.6812 37.7651C25.8306 37.563 25.9434 37.3154 26.0195 37.0225C26.0957 36.7266 26.1338 36.3867 26.1338 36.0029Z" fill="#1C1D1F"/>
<path d="M32.1631 38.3101V39H28.9639V38.3101H32.1631ZM29.1309 32.6016V39H28.2827V32.6016H29.1309Z" fill="#1C1D1F"/>
</svg>
