<svg width="50" height="50" viewBox="0 0 50 50" fill="none" xmlns="http://www.w3.org/2000/svg">
<path d="M6 16.9732L14.7396 15.8081L14.7434 24.0607L6.00794 24.1094L6 16.9732ZM14.7354 25.0115L14.7421 33.2713L6.00677 32.0956L6.00627 24.9561L14.7354 25.0115ZM15.7948 15.6556L27.3827 14V23.9557L15.7948 24.0457V15.6556ZM27.3854 25.0892L27.3826 35L15.7948 33.3989L15.7786 25.0706L27.3854 25.0892Z" fill="#CCEFFC"/>
<path d="M10.3722 28.7397L12.5073 21.6337H13.1762L12.6356 23.7436L10.3587 31.2941H9.71677L10.3722 28.7397ZM7.89248 21.6337L9.68974 28.6733L10.2303 31.2941H9.56137L7.04114 21.6337H7.89248ZM16.0545 28.6733L17.8247 21.6337H18.6761L16.1626 31.2941H15.4937L16.0545 28.6733ZM13.2505 21.6337L15.3586 28.7397L16.0072 31.2941H15.3653L13.1356 23.7436L12.5883 21.6337H13.2505Z" fill="#223561"/>
<path d="M25.8516 28.9188C25.8516 28.6534 25.8066 28.4168 25.7165 28.2089C25.6264 28.001 25.4778 27.8152 25.2706 27.6516C25.0679 27.4835 24.7931 27.3287 24.4463 27.1871C24.1039 27.0412 23.676 26.8974 23.1625 26.7559C22.6715 26.6187 22.2278 26.4683 21.8314 26.3047C21.4351 26.141 21.095 25.953 20.8112 25.7407C20.5319 25.5284 20.318 25.2807 20.1693 24.9976C20.0207 24.7101 19.9463 24.3761 19.9463 23.9957C19.9463 23.6242 20.0274 23.2858 20.1896 22.9806C20.3517 22.6754 20.5792 22.4122 20.872 22.1911C21.1693 21.9699 21.5184 21.7996 21.9193 21.6802C22.3247 21.5607 22.7684 21.501 23.2503 21.501C23.9395 21.501 24.5341 21.6293 25.0341 21.8859C25.5386 22.1424 25.9282 22.4896 26.203 22.9275C26.4823 23.361 26.6219 23.8476 26.6219 24.3872H25.7908C25.7908 23.967 25.6895 23.5932 25.4868 23.2659C25.2886 22.9342 25.0003 22.6754 24.6219 22.4896C24.2481 22.2994 23.7909 22.2043 23.2503 22.2043C22.7098 22.2043 22.2549 22.2862 21.8855 22.4498C21.5206 22.6091 21.2436 22.8236 21.0544 23.0934C20.8697 23.3588 20.7774 23.6552 20.7774 23.9825C20.7774 24.2125 20.8224 24.4248 20.9125 24.6194C21.0026 24.8096 21.149 24.9888 21.3517 25.1569C21.5589 25.3205 21.8314 25.4753 22.1693 25.6213C22.5071 25.7628 22.9238 25.8977 23.4193 26.026C23.9418 26.1676 24.4057 26.3246 24.8111 26.4971C25.2165 26.6696 25.5589 26.8687 25.8381 27.0942C26.1174 27.3154 26.3291 27.5742 26.4733 27.8705C26.6174 28.1669 26.6895 28.5119 26.6895 28.9056C26.6895 29.2992 26.6039 29.6531 26.4327 29.9671C26.2661 30.2768 26.0296 30.54 25.7233 30.7567C25.4215 30.9734 25.0634 31.1393 24.649 31.2543C24.2391 31.3693 23.7909 31.4268 23.3044 31.4268C22.8675 31.4268 22.4328 31.3715 22.0004 31.2609C21.5679 31.1504 21.1715 30.9801 20.8112 30.7501C20.4553 30.5156 20.1693 30.2148 19.9531 29.8477C19.7414 29.4806 19.6355 29.0427 19.6355 28.534H20.4598C20.4598 28.9409 20.5432 29.2837 20.7098 29.5624C20.8765 29.8411 21.0972 30.0667 21.372 30.2392C21.6513 30.4117 21.9576 30.5377 22.2909 30.6174C22.6287 30.6926 22.9666 30.7302 23.3044 30.7302C23.8224 30.7302 24.2706 30.655 24.649 30.5046C25.0318 30.3542 25.3269 30.1441 25.5341 29.8743C25.7458 29.6 25.8516 29.2815 25.8516 28.9188Z" fill="#223561"/>
<path d="M34.4258 21.6337H35.2569V28.1757C35.2569 28.9011 35.1015 29.5049 34.7907 29.987C34.4799 30.4692 34.061 30.8297 33.534 31.0685C33.0114 31.3074 32.4326 31.4268 31.7975 31.4268C31.1444 31.4268 30.5565 31.3074 30.034 31.0685C29.5115 30.8297 29.0971 30.4692 28.7908 29.987C28.489 29.5049 28.3381 28.9011 28.3381 28.1757V21.6337H29.1624V28.1757C29.1624 28.7375 29.275 29.2086 29.5002 29.589C29.7255 29.9694 30.0363 30.2547 30.4327 30.4449C30.829 30.6351 31.284 30.7302 31.7975 30.7302C32.3065 30.7302 32.7592 30.6351 33.1556 30.4449C33.552 30.2547 33.8628 29.9694 34.088 29.589C34.3132 29.2086 34.4258 28.7375 34.4258 28.1757V21.6337Z" fill="#223561"/>
<path d="M43.1622 28.9188C43.1622 28.6534 43.1171 28.4168 43.027 28.2089C42.937 28.001 42.7883 27.8152 42.5811 27.6516C42.3784 27.4835 42.1036 27.3287 41.7568 27.1871C41.4145 27.0412 40.9865 26.8974 40.473 26.7559C39.982 26.6187 39.5384 26.4683 39.142 26.3047C38.7456 26.141 38.4055 25.953 38.1217 25.7407C37.8424 25.5284 37.6285 25.2807 37.4798 24.9976C37.3312 24.7101 37.2569 24.3761 37.2569 23.9957C37.2569 23.6242 37.3379 23.2858 37.5001 22.9806C37.6623 22.6754 37.8897 22.4122 38.1825 22.1911C38.4798 21.9699 38.8289 21.7996 39.2298 21.6802C39.6352 21.5607 40.0789 21.501 40.5609 21.501C41.25 21.501 41.8446 21.6293 42.3446 21.8859C42.8491 22.1424 43.2388 22.4896 43.5135 22.9275C43.7928 23.361 43.9324 23.8476 43.9324 24.3872H43.1014C43.1014 23.967 43 23.5932 42.7973 23.2659C42.5991 22.9342 42.3108 22.6754 41.9325 22.4896C41.5586 22.2994 41.1014 22.2043 40.5609 22.2043C40.0203 22.2043 39.5654 22.2862 39.196 22.4498C38.8312 22.6091 38.5541 22.8236 38.365 23.0934C38.1803 23.3588 38.0879 23.6552 38.0879 23.9825C38.0879 24.2125 38.133 24.4248 38.2231 24.6194C38.3132 24.8096 38.4596 24.9888 38.6622 25.1569C38.8695 25.3205 39.142 25.4753 39.4798 25.6213C39.8176 25.7628 40.2343 25.8977 40.7298 26.026C41.2523 26.1676 41.7163 26.3246 42.1217 26.4971C42.5271 26.6696 42.8694 26.8687 43.1487 27.0942C43.4279 27.3154 43.6396 27.5742 43.7838 27.8705C43.9279 28.1669 44 28.5119 44 28.9056C44 29.2992 43.9144 29.6531 43.7432 29.9671C43.5766 30.2768 43.3401 30.54 43.0338 30.7567C42.732 30.9734 42.3739 31.1393 41.9595 31.2543C41.5496 31.3693 41.1014 31.4268 40.6149 31.4268C40.178 31.4268 39.7433 31.3715 39.3109 31.2609C38.8785 31.1504 38.4821 30.9801 38.1217 30.7501C37.7659 30.5156 37.4798 30.2148 37.2636 29.8477C37.0519 29.4806 36.9461 29.0427 36.9461 28.534H37.7704C37.7704 28.9409 37.8537 29.2837 38.0204 29.5624C38.187 29.8411 38.4077 30.0667 38.6825 30.2392C38.9618 30.4117 39.2681 30.5377 39.6014 30.6174C39.9393 30.6926 40.2771 30.7302 40.6149 30.7302C41.1329 30.7302 41.5811 30.655 41.9595 30.5046C42.3424 30.3542 42.6374 30.1441 42.8446 29.8743C43.0563 29.6 43.1622 29.2815 43.1622 28.9188Z" fill="#223561"/>
</svg>
