<svg width="50" height="50" viewBox="0 0 50 50" fill="none" xmlns="http://www.w3.org/2000/svg">
<path d="M38.5255 22.9816H37.6361C37.6361 22.6726 37.6205 22.3714 37.6439 22.0701C37.6439 22.0083 37.7609 21.9156 37.8467 21.9002C37.9638 21.8693 38.0886 21.877 38.2134 21.9002C38.4787 21.9388 38.5411 21.8152 38.5333 21.5758C38.5177 21.0582 38.5333 20.5407 38.5333 20H39.9922C39.9922 20.5021 39.9922 20.9887 39.9922 21.4753C39.9922 21.8925 39.9922 21.8847 40.4212 21.8925C41.1078 21.9002 41.7865 21.9234 42.4886 21.9388C42.512 22.2941 42.5276 22.6185 42.5433 22.9739H39.9375C39.9375 24.3679 40.0223 25.7522 40.1014 27.145C40.117 27.4308 40.351 27.6857 40.6475 27.7089C42.5457 27.8239 44.4418 27.8016 46.3426 27.8016C46.6859 27.8016 46.9979 27.7243 47.232 27.454C48.1485 26.4169 46.362 26.1188 45.7341 25.9323C45.1334 25.7546 44.5248 25.6001 43.9475 25.3607C43.4092 25.1444 43.1206 24.6887 43.0816 24.1093C42.9086 21.4651 46.6266 21.5547 48.4022 22.1242C48.6206 22.1937 48.6831 22.2941 48.6753 22.5104C48.6597 22.8425 48.6753 23.1747 48.6753 23.5764C47.685 23.1361 45.0444 21.9902 44.5873 23.5223C44.2366 24.7507 46.9494 24.8408 47.7157 25.1058C50.109 25.9229 48.575 28.7811 46.4284 28.8289C44.3575 28.8761 42.1231 29.1234 40.0624 28.8212C39.29 28.7053 38.7361 28.0487 38.6269 27.2454C38.4553 25.9941 38.5645 24.735 38.5255 23.4759C38.5255 23.3215 38.5255 23.167 38.5255 22.9816Z" fill="#6CA2DC"/>
<path d="M12.9755 28.5663C12.3123 28.8598 11.6258 29.0606 10.908 28.9834C10.0655 28.8984 9.1527 28.4427 8.78603 27.5003C8.46617 26.6893 8.67681 25.8396 9.35555 25.2139C10.0955 24.5444 12.3859 23.8813 13.3109 24.1866C13.701 24.2406 13.857 24.1093 13.6854 23.6382C13.5138 23.1824 13.1003 23.0279 12.6634 22.9352C11.891 22.773 11.1499 22.9661 10.4009 23.1052C10.1357 23.1515 9.87825 23.221 9.613 23.2828C9.41016 23.3292 9.29313 23.2828 9.30093 23.0511C9.30874 22.8039 9.30874 22.549 9.30093 22.3018C9.30093 22.1551 9.35554 22.0778 9.49597 22.0547C9.90165 21.9851 10.3073 21.8847 10.7208 21.8538C11.734 21.7612 12.7743 21.763 13.7634 22.0315C14.4315 22.2119 15.1599 22.7206 15.1599 23.4759C15.1833 25.1444 15.1911 26.8206 15.2223 28.489C15.2223 28.7439 15.1365 28.8212 14.8946 28.8057C14.6606 28.7903 14.4265 28.8057 14.1925 28.8057C13.818 28.8057 13.779 28.7671 13.7478 28.404C13.7478 28.3732 13.7322 28.3423 13.7166 28.2727C13.6411 28.198 13.0845 28.5159 12.9755 28.5663ZM13.7322 25.3684C13.0604 25.3684 12.3626 25.3458 11.7038 25.492C11.0596 25.6249 9.84943 26.1309 10.2215 26.9905C10.4712 27.5775 10.7754 27.7011 11.3917 27.7552C12.0861 27.8093 12.718 27.6393 13.3187 27.3226C13.467 27.2454 13.7088 27.1295 13.7166 27.0214C13.7556 26.4652 13.7322 25.9091 13.7322 25.3761V25.3684Z" fill="#6CA2DC"/>
<path d="M36.9729 26.9442C36.9495 27.4385 36.9261 27.8556 36.8949 28.2727C36.8949 28.3268 36.8013 28.3963 36.7466 28.4118C36.1693 28.5585 35.592 28.7285 35.0069 28.8134C34.5232 28.8907 34.0161 28.8984 33.5246 28.8752C32.6664 28.8443 31.8707 28.6126 31.1764 28.0642C30.4976 27.5312 30.1388 26.8283 30.0061 26.0018C29.9125 25.4611 30.0295 24.9513 30.1309 24.4183C30.8889 20.5108 36.8173 21.0398 37.0275 24.8895C37.0275 25.0903 37.0509 25.2912 37.0665 25.5538H31.4806C31.5274 26.3494 31.7771 26.9751 32.448 27.3767C33.6012 28.0699 35.0444 27.8327 36.2083 27.3304C36.4502 27.2222 36.6842 27.0986 36.9807 26.9519L36.9729 26.9442ZM35.631 24.5342C35.5764 23.8544 35.3814 23.306 34.7182 23.0125C34.0941 22.7421 33.4388 22.7344 32.8147 22.9043C32.2842 23.0511 31.9019 23.445 31.6288 23.9317C31.4338 24.2793 31.4338 24.5264 31.9955 24.5342C33.2074 24.5342 34.4192 24.5342 35.631 24.5342Z" fill="#6CA2DC"/>
<path d="M16.572 28.4041C16.6032 27.9483 16.6344 27.5158 16.6656 27.0291C18.0161 27.6141 19.3103 28.1283 20.7692 27.5003C21.2481 27.287 21.1164 26.4264 20.6366 26.2953C20.0593 26.1408 19.482 26.0018 18.9125 25.8396C17.8924 25.5458 16.6569 25.265 16.611 23.9626C16.5876 23.3446 16.9231 22.8271 17.4146 22.4332C18.5303 21.5515 20.175 21.7319 21.4948 22.0083C22.3139 22.1783 22.3061 22.1937 22.3061 23.0125C22.3061 23.167 22.3061 23.3215 22.3061 23.5223C21.8268 23.4385 21.412 23.2125 20.9487 23.0666C20.2387 22.8348 19.5132 22.8039 18.7954 23.0125C17.3161 23.4275 18.7605 24.483 19.4664 24.6578C20.2465 24.8586 21.0579 24.9358 21.7834 25.3298C23.6437 26.3696 21.9996 28.8793 20.3245 28.8443C18.9938 28.8172 17.8503 28.7503 16.5642 28.4272L16.572 28.4041Z" fill="#6CA2DC"/>
<path d="M23.3437 26.9751C24.3007 27.4124 25.2739 27.9448 26.3629 27.8479C26.9644 27.7898 27.8924 27.6106 27.7905 26.8206C27.7515 26.5039 27.5487 26.303 27.1586 26.2026C26.4955 26.0404 25.8246 25.9091 25.1614 25.7314C24.5373 25.5615 23.9366 25.3221 23.5777 24.735C23.055 23.8776 23.4451 22.8734 24.1628 22.3636C24.7167 21.9697 25.3331 21.8152 26.004 21.7998C26.948 21.7766 27.8842 21.8152 28.7735 22.186C28.9374 22.2555 28.9998 22.3327 28.992 22.5027C28.9842 22.7885 28.992 23.0743 28.992 23.3678C28.992 23.5223 28.914 23.5764 28.7501 23.5068C27.715 23.0432 26.858 22.8659 25.7075 22.9043C25.3799 22.9121 24.9898 23.2597 24.9274 23.5223C24.8182 23.978 25.0912 24.3874 25.5593 24.5033C26.2692 24.6732 26.987 24.8122 27.6813 25.0285C28.2793 25.2098 28.9575 25.5212 29.1636 26.1563C29.4601 27.1295 29.0934 27.956 28.204 28.4658C26.8533 29.2592 25.1478 28.8545 23.7337 28.5045C23.4685 28.4427 23.3333 28.2779 23.3281 28.0101C23.3281 27.6934 23.3281 27.3767 23.3281 26.9905L23.3437 26.9751Z" fill="#6CA2DC"/>
<path d="M1.03121 28.7439C1.6807 27.6186 2.68209 26.7372 3.41847 25.6696C3.66032 25.3298 3.59011 25.1289 3.29365 24.8431C2.44519 24.0031 1.73217 23.0032 1 22.0624C1.45951 21.9676 1.91239 22.0039 2.38087 21.9929C2.56811 21.9851 2.69293 22.0547 2.80215 22.1937C3.37489 22.9548 3.95714 23.7021 4.5575 24.4415C5.20703 23.6829 5.83134 22.9081 6.46887 22.1396C6.52348 22.0701 6.64051 22.0238 6.73412 22.016C7.06179 22.0006 7.39725 22.0083 7.72492 22.016C7.93556 22.016 7.99017 22.1242 7.86535 22.2941C7.15266 23.2686 6.35755 24.2351 5.51709 25.098C5.38446 25.2294 5.38446 25.3684 5.48588 25.5074C5.94427 26.1126 7.5 28 7.90435 28.6744C8.03172 28.8868 6.70446 28.7541 6.49228 28.7285C6.41426 28.7207 6.32844 28.6667 6.28164 28.6049C5.75817 27.9138 5.23875 27.2293 4.69793 26.5502C4.5653 26.3803 4.44828 26.3648 4.32345 26.5193C4.01521 26.8972 2.80215 28.2727 2.36527 28.8134C1.94399 28.8057 1.5305 28.7903 1.03901 28.7748L1.03121 28.7439Z" fill="#EB7608"/>
</svg>
