<svg width="50" height="50" viewBox="0 0 50 50" fill="none" xmlns="http://www.w3.org/2000/svg">
<rect width="50" height="50" fill="#000033"/>
<mask id="mask0_10595_2703" style="mask-type:luminance" maskUnits="userSpaceOnUse" x="0" y="0" width="50" height="50">
<path d="M49.9149 0H0V49.8269H49.9149V0Z" fill="white"/>
</mask>
<g mask="url(#mask0_10595_2703)">
<path d="M42 24.2331C42 27.1895 41.25 30.0989 39.8239 32.6871C38.3978 35.2715 36.3421 37.4408 33.8435 39.011C33.6997 39.0933 33.5326 39.1363 33.3616 39.1363C33.1906 39.1363 33.0274 39.0933 32.8798 39.011L24.7349 34.2456L16.5861 38.9954C16.4423 39.0776 16.2752 39.1207 16.1043 39.1207C15.9333 39.1207 15.7701 39.0776 15.6224 38.9954C13.1276 37.4252 11.072 35.2559 9.64975 32.6715C8.22361 30.0832 7.47363 27.1699 7.47363 24.2174C7.47363 21.265 8.22361 18.3517 9.64975 15.7673C11.0759 13.1829 13.1315 11.0058 15.6224 9.44342C15.7701 9.36119 15.941 9.31812 16.1043 9.31812C16.2675 9.31812 16.4423 9.36119 16.5861 9.45125L24.7349 14.1932L32.8798 9.45125C33.0274 9.36119 33.1984 9.31812 33.3616 9.31812C33.5248 9.31812 33.6997 9.36119 33.8435 9.45125V9.463C36.3421 11.0254 38.3978 13.2025 39.8239 15.7869C41.25 18.3713 42 21.2806 42 24.237V24.2331Z" fill="#F0F0F0"/>
<path d="M42 24.2331C42 27.1895 41.25 30.0989 39.8239 32.6871C38.3977 35.2715 36.3421 37.4408 33.8434 39.011C33.6997 39.0933 33.5326 39.1363 33.3616 39.1363C33.1906 39.1363 33.0274 39.0933 32.8797 39.011L24.7348 34.2456L32.4173 29.766C32.701 29.6016 32.938 29.3666 33.1012 29.0808C33.2644 28.7988 33.3577 28.4777 33.3577 28.1488V20.29C33.3577 19.9571 33.2683 19.64 33.1051 19.3502C32.9419 19.0643 32.701 18.8255 32.4134 18.6649L24.731 14.1932L32.8758 9.45125C33.0235 9.36119 33.1945 9.31812 33.3577 9.31812C33.5209 9.31812 33.6958 9.36119 33.8395 9.45125V9.463C36.3382 11.0254 38.3938 13.2025 39.82 15.7869C41.2461 18.3713 41.9961 21.2806 41.9961 24.237L42 24.2331Z" fill="url(#paint0_radial_10595_2703)"/>
<path d="M17.0488 29.7895L24.739 34.2456L16.5903 38.9954C16.4465 39.0776 16.2794 39.1207 16.1084 39.1207C15.9374 39.1207 15.7742 39.0776 15.6265 38.9954C13.1318 37.4252 11.0761 35.2559 9.6539 32.6715C8.22777 30.0832 7.47778 27.1699 7.47778 24.2174C7.47778 21.265 8.22777 18.3517 9.6539 15.7673C11.08 13.1829 13.1357 11.0058 15.6265 9.44342C15.7742 9.36119 15.9452 9.31812 16.1084 9.31812C16.2716 9.31812 16.4465 9.36119 16.5903 9.45125L24.739 14.1932L17.0488 18.6728C16.7651 18.8333 16.532 19.0722 16.3688 19.358C16.2055 19.64 16.1162 19.961 16.1123 20.29V28.1723C16.1162 28.5052 16.2055 28.8184 16.3688 29.1043C16.532 29.3901 16.769 29.625 17.0488 29.7895Z" fill="url(#paint1_radial_10595_2703)"/>
</g>
<defs>
<radialGradient id="paint0_radial_10595_2703" cx="0" cy="0" r="1" gradientUnits="userSpaceOnUse" gradientTransform="translate(26.3009 24.1861) scale(15.7768 15.8978)">
<stop stop-color="white"/>
<stop offset="0.96" stop-color="#23D0FF"/>
</radialGradient>
<radialGradient id="paint1_radial_10595_2703" cx="0" cy="0" r="1" gradientUnits="userSpaceOnUse" gradientTransform="translate(23.2973 24.143) scale(15.7691 15.89)">
<stop stop-color="white"/>
<stop offset="1" stop-color="#00FF91"/>
</radialGradient>
</defs>
</svg>
