<svg width="50" height="50" viewBox="0 0 50 50" fill="none" xmlns="http://www.w3.org/2000/svg">
<path fill-rule="evenodd" clip-rule="evenodd" d="M10.0195 6.38915C10.0195 5.72965 10.1402 5.50023 10.9462 5.50596C20.3 5.53273 29.6559 5.53273 39.014 5.50596C39.8389 5.50596 40.0482 5.701 40.0165 6.4236C39.9488 7.78085 39.9488 9.13993 40.0165 10.501C40.0482 11.1892 39.769 11.3154 39.0773 11.3097C31.9001 11.3097 24.723 11.3097 17.5458 11.3097C16.6828 11.3097 16.4099 11.4588 16.4289 12.2846C16.486 15.5821 16.4289 18.8854 16.4289 22.183C16.4289 22.4754 16.5114 22.7909 16.2322 23.0432L10.0195 28.606C10.0195 21.2004 10.0195 13.7948 10.0195 6.38915Z" fill="#5F2E88"/>
<path fill-rule="evenodd" clip-rule="evenodd" d="M39.0013 28.6405C39.731 28.6405 40.023 28.7609 39.9849 29.4892C39.9214 30.9286 39.9849 32.3566 39.9849 33.8076C39.9849 34.2836 39.896 34.4957 39.2868 34.4957C31.8367 34.4957 24.3867 34.4957 16.9366 34.4957C16.696 34.5314 16.4424 34.4719 16.2512 34.3351L10.1085 28.9042C10.1592 28.8297 10.2671 28.6749 10.2671 28.6749L39.0013 28.6405Z" fill="#5F2E88"/>
<path fill-rule="evenodd" clip-rule="evenodd" d="M35.0224 17.0504C35.5808 17.0504 35.7648 17.188 35.7521 17.7041C35.7521 19.2296 35.7521 20.7493 35.7521 22.292C35.7521 22.7794 35.5682 22.8655 35.0668 22.8655C31.2086 22.8655 27.3439 22.8655 23.4856 22.8655C22.9716 22.8655 22.7939 22.745 22.8002 22.292C22.8341 20.7627 22.8341 19.2334 22.8002 17.7041C22.8002 17.188 22.9652 17.0389 23.5299 17.0504C27.3594 17.1081 31.1924 17.0504 35.0224 17.0504Z" fill="#5F2E88"/>
<path d="M22.5479 45V41.1292C22.582 41.0531 22.6211 40.981 22.665 40.9131C22.7725 40.7471 22.9157 40.6169 23.0947 40.5225C23.2738 40.4281 23.4967 40.3809 23.7637 40.3809C23.9915 40.3809 24.1901 40.4199 24.3594 40.498C24.5286 40.5729 24.6589 40.6934 24.75 40.8594C24.8444 41.0254 24.8916 41.2467 24.8916 41.5234V45H25.7949V41.4808C25.8068 41.3738 25.8296 41.2708 25.8633 41.1719C25.9186 41.0189 25.9984 40.8838 26.1025 40.7666C26.2067 40.6462 26.3353 40.5518 26.4883 40.4834C26.6413 40.415 26.8171 40.3809 27.0156 40.3809C27.2467 40.3809 27.4453 40.415 27.6113 40.4834C27.7806 40.5485 27.9108 40.6641 28.002 40.8301C28.0964 40.9928 28.1436 41.2223 28.1436 41.5186V45H29.0518V41.5283C29.0518 41.1963 29.0127 40.9098 28.9346 40.6689C28.8564 40.4281 28.7409 40.2311 28.5879 40.0781C28.4382 39.9219 28.2526 39.8063 28.0312 39.7314C27.8132 39.6566 27.5625 39.6191 27.2793 39.6191C26.944 39.6191 26.6462 39.681 26.3857 39.8047C26.1253 39.9251 25.9056 40.0895 25.7266 40.2979C25.6814 40.3514 25.6389 40.4068 25.5991 40.4642C25.5227 40.3034 25.4268 40.1665 25.3115 40.0537C25.1585 39.904 24.9779 39.7949 24.7695 39.7266C24.5612 39.6549 24.3333 39.6191 24.0859 39.6191C23.7344 39.6191 23.4251 39.6826 23.1582 39.8096C22.9091 39.925 22.6983 40.0858 22.5258 40.2919L22.499 39.7168H21.6396V45H22.5479Z" fill="#1C1D1F"/>
<path d="M32.5332 44.3555C32.748 44.3555 32.9466 44.3115 33.1289 44.2236C33.3112 44.1357 33.4609 44.0153 33.5781 43.8623C33.6953 43.7061 33.762 43.5286 33.7783 43.3301H34.6377C34.6214 43.6426 34.5156 43.9339 34.3203 44.2041C34.1283 44.471 33.876 44.6875 33.5635 44.8535C33.251 45.0163 32.9076 45.0977 32.5332 45.0977C32.1361 45.0977 31.7894 45.0277 31.4932 44.8877C31.2002 44.7477 30.9561 44.5557 30.7607 44.3115C30.5687 44.0674 30.4238 43.7874 30.3262 43.4717C30.2318 43.1527 30.1846 42.8158 30.1846 42.4609V42.2559C30.1846 41.901 30.2318 41.5658 30.3262 41.25C30.4238 40.931 30.5687 40.6494 30.7607 40.4053C30.9561 40.1611 31.2002 39.9691 31.4932 39.8291C31.7894 39.6891 32.1361 39.6191 32.5332 39.6191C32.9466 39.6191 33.3079 39.7038 33.6172 39.873C33.9264 40.0391 34.1689 40.2669 34.3447 40.5566C34.5238 40.8431 34.6214 41.1686 34.6377 41.5332H33.7783C33.762 41.3151 33.7002 41.1182 33.5928 40.9424C33.4886 40.7666 33.3454 40.6266 33.1631 40.5225C32.984 40.415 32.7741 40.3613 32.5332 40.3613C32.2565 40.3613 32.0238 40.4167 31.835 40.5273C31.6494 40.6348 31.5013 40.7812 31.3906 40.9668C31.2832 41.1491 31.2051 41.3525 31.1562 41.5771C31.1107 41.7985 31.0879 42.0247 31.0879 42.2559V42.4609C31.0879 42.6921 31.1107 42.9199 31.1562 43.1445C31.2018 43.3691 31.2783 43.5726 31.3857 43.7549C31.4964 43.9372 31.6445 44.0837 31.8301 44.1943C32.0189 44.3018 32.2533 44.3555 32.5332 44.3555Z" fill="#1C1D1F"/>
<path d="M18.4561 41.6406L17.2988 39.7168H16.2588L17.9824 42.3242L16.2051 45H17.2549L18.4756 43.0176L19.6963 45H20.7412L18.959 42.3242L20.6875 39.7168H19.6279L18.4561 41.6406Z" fill="#1C1D1F"/>
</svg>
