<svg width="50" height="50" viewBox="0 0 50 50" fill="none" xmlns="http://www.w3.org/2000/svg">
<rect width="50" height="50" fill="#5F2E88"/>
<path fill-rule="evenodd" clip-rule="evenodd" d="M12.0195 9.26732C12.0195 8.69878 12.1241 8.50101 12.8226 8.50595C20.9293 8.52902 29.0377 8.52902 37.148 8.50595C37.863 8.50595 38.0444 8.67409 38.0169 9.29701C37.9582 10.4671 37.9582 11.6387 38.0169 12.812C38.0444 13.4053 37.8024 13.5141 37.2029 13.5092C30.9827 13.5092 24.7625 13.5092 18.5423 13.5092C17.7943 13.5092 17.5578 13.6377 17.5743 14.3496C17.6238 17.1923 17.5743 20.04 17.5743 22.8827C17.5743 23.1348 17.6458 23.4067 17.4038 23.6242L12.0195 28.4198C12.0195 22.0356 12.0195 15.6515 12.0195 9.26732Z" fill="white"/>
<path fill-rule="evenodd" clip-rule="evenodd" d="M37.137 28.4495C37.7695 28.4495 38.0225 28.5533 37.9895 29.1812C37.9345 30.4221 37.9895 31.6531 37.9895 32.9039C37.9895 33.3142 37.9125 33.4971 37.3845 33.4971C30.9278 33.4971 24.4711 33.4971 18.0143 33.4971C17.8058 33.5278 17.586 33.4766 17.4203 33.3587L12.0966 28.6769C12.1406 28.6126 12.2341 28.4792 12.2341 28.4792L37.137 28.4495Z" fill="white"/>
<path fill-rule="evenodd" clip-rule="evenodd" d="M33.6887 18.458C34.1726 18.458 34.3321 18.5766 34.3211 19.0216C34.3211 20.3366 34.3211 21.6468 34.3211 22.9766C34.3211 23.3969 34.1617 23.471 33.7272 23.471C30.3833 23.471 27.034 23.471 23.6901 23.471C23.2447 23.471 23.0906 23.3672 23.0961 22.9766C23.1255 21.6583 23.1255 20.3399 23.0961 19.0216C23.0961 18.5766 23.2391 18.4481 23.7285 18.458C27.0474 18.5078 30.3693 18.458 33.6887 18.458Z" fill="white"/>
<path d="M23.1811 42.4167V38.884C23.2089 38.8146 23.2407 38.7488 23.2765 38.6868C23.3639 38.5353 23.4805 38.4164 23.6262 38.3303C23.7718 38.2441 23.9533 38.201 24.1705 38.201C24.356 38.201 24.5175 38.2367 24.6553 38.308C24.793 38.3763 24.899 38.4863 24.9732 38.6378C25.05 38.7893 25.0884 38.9913 25.0884 39.2438V42.4167H25.8235V39.2049C25.8332 39.1072 25.8517 39.0132 25.8791 38.923C25.9242 38.7833 25.9891 38.66 26.0738 38.5531C26.1586 38.4432 26.2632 38.357 26.3877 38.2946C26.5122 38.2322 26.6553 38.201 26.8169 38.201C27.005 38.201 27.1666 38.2322 27.3017 38.2946C27.4394 38.354 27.5454 38.4595 27.6195 38.611C27.6964 38.7596 27.7348 38.969 27.7348 39.2394V42.4167H28.4738V39.2483C28.4738 38.9453 28.442 38.6838 28.3785 38.464C28.3149 38.2441 28.2209 38.0644 28.0964 37.9248C27.9745 37.7822 27.8235 37.6767 27.6434 37.6084C27.4659 37.54 27.2619 37.5059 27.0315 37.5059C26.7586 37.5059 26.5162 37.5623 26.3043 37.6752C26.0924 37.7851 25.9136 37.9352 25.7679 38.1253C25.7311 38.1741 25.6966 38.2248 25.6642 38.2771C25.6019 38.1303 25.5239 38.0054 25.4301 37.9025C25.3056 37.7658 25.1586 37.6663 24.9891 37.6039C24.8195 37.5385 24.6341 37.5059 24.4328 37.5059C24.1467 37.5059 23.895 37.5638 23.6778 37.6797C23.4751 37.785 23.3036 37.9317 23.1632 38.1198L23.1414 37.595H22.442V42.4167H23.1811Z" fill="white"/>
<path d="M31.3069 41.8285C31.4818 41.8285 31.6434 41.7884 31.7917 41.7082C31.9401 41.628 32.0619 41.518 32.1573 41.3784C32.2526 41.2358 32.3069 41.0739 32.3202 40.8927H33.0195C33.0063 41.1779 32.9202 41.4438 32.7613 41.6904C32.605 41.934 32.3997 42.1315 32.1454 42.283C31.8911 42.4316 31.6116 42.5059 31.3069 42.5059C30.9838 42.5059 30.7016 42.442 30.4606 42.3142C30.2222 42.1865 30.0235 42.0112 29.8646 41.7884C29.7083 41.5656 29.5904 41.3101 29.5109 41.0219C29.4341 40.7308 29.3957 40.4233 29.3957 40.0994V39.9123C29.3957 39.5884 29.4341 39.2824 29.5109 38.9943C29.5904 38.7031 29.7083 38.4461 29.8646 38.2233C30.0235 38.0005 30.2222 37.8252 30.4606 37.6975C30.7016 37.5697 30.9838 37.5059 31.3069 37.5059C31.6434 37.5059 31.9374 37.5831 32.1891 37.7376C32.4407 37.8891 32.6381 38.0971 32.7811 38.3615C32.9268 38.6229 33.0063 38.92 33.0195 39.2527H32.3202C32.3069 39.0537 32.2566 38.874 32.1692 38.7135C32.0844 38.5531 31.9679 38.4253 31.8195 38.3303C31.6738 38.2322 31.503 38.1832 31.3069 38.1832C31.0818 38.1832 30.8924 38.2337 30.7387 38.3347C30.5877 38.4328 30.4672 38.5665 30.3771 38.7358C30.2897 38.9022 30.2262 39.0879 30.1864 39.2928C30.1493 39.4949 30.1308 39.7013 30.1308 39.9123V40.0994C30.1308 40.3104 30.1493 40.5183 30.1864 40.7233C30.2235 40.9283 30.2858 41.114 30.3732 41.2804C30.4632 41.4467 30.5838 41.5804 30.7348 41.6814C30.8884 41.7795 31.0791 41.8285 31.3069 41.8285Z" fill="white"/>
<path d="M19.8513 39.3508L18.9096 37.595H18.0632L19.4659 39.9747L18.0195 42.4167H18.8738L19.8672 40.6075L20.8606 42.4167H21.7109L20.2606 39.9747L21.6672 37.595H20.805L19.8513 39.3508Z" fill="white"/>
</svg>
