<svg width="50" height="50" viewBox="0 0 50 50" fill="none" xmlns="http://www.w3.org/2000/svg">
<rect width="50" height="50" fill="black"/>
<path d="M34.7841 21.6851C35.0128 21.6843 35.2383 21.7434 35.4375 21.8562C35.6345 21.9697 35.798 22.1337 35.9113 22.3313C36.0247 22.529 36.0837 22.7536 36.0825 22.9817V26.1585C36.0832 26.3855 36.0249 26.6089 35.9127 26.8061C35.7976 27.0014 35.6337 27.1636 35.4375 27.2763L32.2235 29.1356V32.768C32.2218 32.9981 32.1606 33.2239 32.0462 33.4233C31.931 33.6186 31.7671 33.7808 31.5709 33.8935L28.8038 35.5107C28.6077 35.6244 28.3846 35.683 28.1581 35.6811C27.987 35.6843 27.817 35.6528 27.6586 35.5879C27.5001 35.5231 27.3562 35.4265 27.236 35.3041C27.1169 35.184 27.023 35.041 26.9595 34.884C26.8947 34.7258 26.8605 34.5563 26.8598 34.3853V26.7921C26.8624 26.5644 26.9235 26.341 27.0371 26.1439C27.1518 25.9505 27.3129 25.7888 27.5055 25.6736L34.1177 21.8562H34.1391C34.3356 21.7435 34.5579 21.6843 34.7841 21.6851Z" fill="white"/>
<path d="M15.4312 21.4284C15.618 21.4495 15.799 21.5078 15.9632 21.5995L22.5962 25.4177C22.7924 25.5303 22.9563 25.6919 23.0715 25.8872C23.186 26.0866 23.2471 26.313 23.2488 26.5431V34.1641C23.2465 34.3923 23.1852 34.6165 23.0708 34.8137C22.9564 35.011 22.7927 35.1748 22.5962 35.2895C22.3982 35.4019 22.1745 35.4613 21.947 35.4613C21.7196 35.4613 21.4959 35.4019 21.2979 35.2895L18.5523 33.7015C18.3553 33.589 18.1916 33.4262 18.077 33.2299C17.9624 33.0336 17.9011 32.8105 17.8996 32.583V28.9075L14.6649 27.0203C14.4708 26.9018 14.3077 26.738 14.1896 26.5431C14.0773 26.3459 14.0184 26.1221 14.0192 25.8948V22.725C14.0203 22.5744 14.0469 22.4251 14.0975 22.2833C14.1642 22.1059 14.2655 21.9437 14.3954 21.8061C14.5299 21.6725 14.6923 21.5703 14.8707 21.507C15.0499 21.4418 15.241 21.4149 15.4312 21.4284Z" fill="white"/>
<path d="M28.8468 14.6617C29.0753 14.6617 29.3001 14.7205 29.4994 14.8328L32.245 16.4208C32.4416 16.5363 32.6053 16.7013 32.7203 16.8987C32.8334 17.0955 32.8925 17.3191 32.8907 17.5463H32.926C32.9269 17.7736 32.8679 17.9973 32.7556 18.1946C32.6384 18.3884 32.4751 18.5501 32.2803 18.6648L25.6328 22.4969C25.4348 22.6092 25.2111 22.6687 24.9836 22.6687C24.7562 22.6687 24.5325 22.6092 24.3345 22.4969L17.7223 18.6718C17.5648 18.5849 17.429 18.463 17.3253 18.3156C17.2147 18.1706 17.1369 18.003 17.0981 17.8245C17.0625 17.6483 17.0626 17.4666 17.0981 17.2903C17.1318 17.1127 17.205 16.9445 17.3114 16.7985L17.3676 16.713C17.4682 16.5987 17.5856 16.5002 17.7154 16.4208L20.461 14.8328C20.6616 14.724 20.8855 14.6652 21.1136 14.6617C21.3395 14.6643 21.5614 14.7232 21.7593 14.8328L24.9802 16.6921L28.1941 14.8328C28.3934 14.7205 28.6182 14.6617 28.8468 14.6617Z" fill="white"/>
<path fill-rule="evenodd" clip-rule="evenodd" d="M25.0508 6.00014C30.0683 6.014 34.8784 8.01316 38.438 11.5635C41.5416 14.6635 43.4755 18.7503 43.9078 23.1243C44.3401 27.4982 43.2437 31.8873 40.8074 35.5392C39.2421 37.88 37.1805 39.8443 34.7703 41.2911C32.3599 42.738 29.6602 43.6316 26.8653 43.9079C24.0705 44.1843 21.2495 43.8365 18.6042 42.8896C15.959 41.9426 13.5548 40.4202 11.5646 38.4308C8.90759 35.7788 7.09715 32.3926 6.36433 28.7036C5.63151 25.0147 6.00957 21.19 7.44996 17.7174C8.90004 14.2351 11.3468 11.2634 14.4799 9.17761C17.613 7.09194 21.2917 5.98576 25.0508 6.00014ZM26.4545 10.6105C23.1325 10.2928 19.8036 11.142 17.035 13.0124C14.2665 14.8829 12.2297 17.6592 11.2715 20.8685C10.3134 24.0778 10.4928 27.5213 11.78 30.6124C13.0673 33.7034 15.3824 36.2507 18.3306 37.8201C21.2788 39.3895 24.6782 39.8838 27.9489 39.2189C31.2194 38.5541 34.1594 36.7716 36.2675 34.1745C38.3755 31.5773 39.5214 28.3263 39.5098 24.976C39.5067 23.0746 39.1284 21.1925 38.3978 19.4383C37.6673 17.6841 36.599 16.0919 35.2532 14.7542C32.8861 12.3926 29.7764 10.9283 26.4545 10.6105Z" fill="white"/>
</svg>
