<svg width="50" height="50" viewBox="0 0 50 50" fill="none" xmlns="http://www.w3.org/2000/svg">
<rect width="50" height="50" fill="#01009D"/>
<path d="M24.995 29.0758C27.3321 24.5897 30.7307 21.1507 35.1897 18.7234C35.1897 18.7352 25.0035 8.70831 25.0035 8.6969C19.9051 13.7247 16.8937 16.6532 14.8109 18.7234C19.1222 21.0345 22.4722 24.3884 24.995 29.0758Z" fill="#FFEE01"/>
<path d="M9.47052 40.2981H8.7167V38.2671L6.65918 35.3503H7.61317L9.08844 37.5381L10.574 35.3527H11.518L9.47052 38.2502V40.2981Z" fill="white"/>
<path d="M13.2707 35.2021C12.8972 35.2021 10.8476 35.3675 10.8476 37.8619C10.8476 40.2122 12.9 40.4262 13.2934 40.4293C13.7069 40.4322 15.7347 40.1912 15.7347 37.7992C15.7347 35.5311 13.9098 35.2021 13.2707 35.2021ZM13.321 39.7764C12.5889 39.7764 11.6121 39.3499 11.6121 37.8092C11.6121 36.4021 12.542 35.8429 13.2741 35.8429C13.9435 35.8429 14.9665 36.2801 14.9665 37.8736C14.9665 39.4388 13.8378 39.7764 13.321 39.7764Z" fill="white"/>
<path d="M16.8589 40.2959H16.1086V35.3474L16.9055 35.3494V37.6908L19.2376 35.3501H20.2618L18.204 37.4145L20.4241 40.2937L19.4591 40.2976L17.6262 37.8735L16.8589 38.5994V40.2959Z" fill="white"/>
<path d="M22.2117 35.1895C21.4971 35.214 19.7201 35.5788 19.7201 37.7697C19.7201 40.1807 21.6432 40.4243 22.2344 40.4212C22.8959 40.4173 24.6261 39.9557 24.6347 37.788C24.6447 35.1906 22.1827 35.1899 22.2117 35.1895ZM22.2076 39.7707C21.4917 39.7707 20.5073 39.3876 20.5073 37.8069C20.5073 36.2975 21.4958 35.841 22.1907 35.841C23.063 35.841 23.842 36.4867 23.842 37.7745C23.842 39.4382 22.7857 39.7707 22.2076 39.7707Z" fill="white"/>
<path d="M27.4227 37.6925L29.5673 37.6945L29.5604 40.2716H28.9661L28.88 39.7944C28.4159 40.2474 27.9522 40.4049 27.2032 40.4028C26.122 40.4009 24.9403 39.5425 24.9403 37.7817C24.9403 36.5848 25.7 35.2167 27.2879 35.2235C28.1292 35.2235 29.3006 35.504 29.4991 36.8056L28.7218 36.8085C28.6236 36.4809 28.3446 35.8401 27.3527 35.8401C26.541 35.8401 25.7382 36.3345 25.7382 37.84C25.7382 39.2647 26.6306 39.7921 27.3137 39.7921C27.9818 39.7921 28.613 39.5648 28.8679 38.3748H27.4261L27.4227 37.6925Z" fill="white"/>
<path d="M32.2564 35.3574L31.241 35.3594L29.6583 40.2937H30.4693L30.8896 38.9242L32.8235 38.9222L33.3682 40.2821L34.1985 40.2743L32.2564 35.3574ZM31.0801 38.2859L31.7537 36.0678L31.8984 36.4654L32.5726 38.2859H31.0801Z" fill="white"/>
<path d="M33.2868 35.3503H34.1319C34.7962 38.0359 34.9274 38.5076 35.0738 39.0323C35.1903 38.5379 35.4315 37.8902 36.0819 35.3503H36.8471C37.6189 38.0883 37.7339 38.5107 37.9021 39.0619C38.0192 38.6034 38.1801 38.0573 38.8395 35.3503H39.6395L38.3155 40.2839L37.5234 40.2937C36.8816 38.1036 36.8027 37.8386 36.4778 36.6851C36.2104 37.6043 36.1581 37.8424 35.4711 40.2892H34.657L33.2868 35.3503Z" fill="white"/>
<path d="M41.5698 35.3428H40.5955L38.8474 40.286H39.6284L40.078 38.9641L42.0449 38.9661L42.5242 40.2835L43.341 40.2816L41.5698 35.3428ZM40.3123 38.3095L41.0734 36.1193L41.0727 36.1094L41.8396 38.3112L40.3123 38.3095Z" fill="white"/>
</svg>
