<svg width="50" height="50" viewBox="0 0 50 50" fill="none" xmlns="http://www.w3.org/2000/svg">
<path d="M22.0911 32.2373C22.1086 30.9061 23.1613 29.8211 24.4429 29.5907C26.4302 29.2334 28.4023 31.0587 27.7534 33.0666C27.342 34.3395 26.017 35.105 24.7105 34.9877C23.3039 34.8613 22.047 33.6884 22.0911 32.2373ZM28.2845 22.5683C30.7681 22.2478 32.9886 20.9835 34.9988 19.5485C36.3783 18.6389 38.0955 17.2654 40.0924 15.6099C41.0299 14.8403 42.4203 14.7912 43.3338 15.6281C44.3793 16.5796 44.0105 17.9666 43.0926 18.8208C40.0388 21.3524 36.9051 23.7785 33.3299 25.5336C28.1616 27.9066 21.7828 27.9885 16.6116 25.6064C13.0514 23.8679 9.97026 21.3734 6.90668 18.8935C5.91396 18.0737 5.68717 16.5742 6.66551 15.6281C7.57403 14.7438 8.88724 14.9332 9.85867 15.6281C12.6195 17.8628 15.4402 20.1596 18.6664 21.6951C20.6872 22.6186 22.8598 22.7709 25.0527 22.7866" fill="#FF6600"/>
</svg>
