<svg width="50" height="50" viewBox="0 0 50 50" fill="none" xmlns="http://www.w3.org/2000/svg">
<path d="M39.7497 39.7498H10.25V10.2501H39.7497V39.7498ZM17.9852 32.2797H32.9205V31.0296H20.3633C24.0857 27.0363 28.042 23.2417 31.8889 19.3684C32.0816 19.1918 32.2218 18.9653 32.2941 18.714C32.3663 18.4628 32.3679 18.1964 32.2984 17.9443H18.5822V19.181H29.845L17.9726 31.6224C17.9125 31.838 17.9169 32.0665 17.9852 32.2797Z" fill="#E60101"/>
<path d="M17.9852 32.2797C17.9162 32.0671 17.9109 31.8389 17.97 31.6233C17.97 31.6233 26.3819 23.2275 29.8392 19.181H18.5764V17.9424H32.2927C32.3621 18.1945 32.3606 18.4608 32.2883 18.7121C32.2161 18.9634 32.0758 19.1898 31.8831 19.3665C28.0252 23.2305 24.0829 27.039 20.3595 31.0334H32.9167V32.2836L17.9852 32.2797Z" fill="#FEF4F5"/>
</svg>
