<svg width="50" height="50" viewBox="0 0 50 50" fill="none" xmlns="http://www.w3.org/2000/svg">
<rect width="50" height="50" fill="#46070E"/>
<path d="M40 28.4461V11.6104C40 10.7217 39.2617 10 38.3557 10H12.0168C10.7079 9.99684 10.0889 11.5695 11.0561 12.4267L32.9235 29.546C33.3459 29.8769 33.8682 30.0565 34.4065 30.0565H38.3526C39.2617 30.0565 39.9967 29.3349 39.9967 28.4493L40 28.4461Z" fill="white"/>
<path d="M10 38.3927C10 39.2815 10.735 40 11.6442 40H37.9831C39.2888 40.0032 39.9111 38.4306 38.9407 37.5733L17.0732 20.454C16.6508 20.1232 16.1286 19.9435 15.5902 19.9435H11.6442C10.735 19.9435 10 20.6652 10 21.5508V38.3927Z" fill="white"/>
</svg>
