<svg width="50" height="50" viewBox="0 0 50 50" fill="none" xmlns="http://www.w3.org/2000/svg">
<path d="M26.8942 21.1749L31.2065 18.3442V25.5157L32.8139 27.1346L25.8682 33.9052H24.5064V21.1749H26.8942Z" fill="#BA0C2F"/>
<path d="M22.1154 21.1749L17.8062 18.3442V25.5157L16.1957 27.1346L23.1476 33.9052H24.5064V21.1749H22.1154Z" fill="#E4002B"/>
<path d="M12.4895 38.4292L14.8089 35.2039C12.3521 32.8591 10.8256 29.7061 10.5106 26.3256C9.86737 19.422 14.5478 12.9134 21.2934 11.317C24.5991 10.5346 28.0764 10.9722 31.0848 12.5492L33.4011 9.33013C29.5315 7.14578 24.9911 6.46645 20.6511 7.4225C11.7839 9.37583 5.62298 17.9423 6.60584 26.9711C7.08651 31.3865 9.18174 35.4691 12.4895 38.4354V38.4292Z" fill="#BA0C2F"/>
<path d="M36.5384 11.5706L34.191 14.7959C36.6478 17.1407 38.1743 20.2937 38.4893 23.6742C39.1325 30.5779 34.4521 37.0864 27.7065 38.6828C24.4008 39.4652 20.9235 39.0276 17.9151 37.4506L15.5988 40.6697C19.4684 42.854 24.0088 43.5334 28.3488 42.5773C37.216 40.624 43.3769 32.0575 42.3941 23.0288C41.9134 18.6133 39.8181 14.5307 36.5104 11.5644L36.5384 11.5706Z" fill="#E4002B"/>
</svg>
