<svg width="50" height="50" viewBox="0 0 50 50" fill="none" xmlns="http://www.w3.org/2000/svg">
<path d="M13.0557 33.6508H36.8308V25.0528H32.2891L31.4939 29.1294C31.4179 29.5055 31.2661 29.5399 30.8125 29.5399H21.4217L36.9447 10.0497V6.34912H13.2075V15.2562H17.9769L18.7722 11.1796C18.8481 10.8018 18.9999 10.7692 19.4535 10.7692H28.275L13.0557 29.9159V33.6508Z" fill="#DC362B"/>
<path d="M27.3916 45V41.1292C27.4258 41.0531 27.4648 40.981 27.5088 40.9131C27.6162 40.7471 27.7594 40.6169 27.9385 40.5225C28.1175 40.4281 28.3405 40.3809 28.6074 40.3809C28.8353 40.3809 29.0339 40.4199 29.2031 40.498C29.3724 40.5729 29.5026 40.6934 29.5938 40.8594C29.6882 41.0254 29.7354 41.2467 29.7354 41.5234V45H30.6387V41.4808C30.6506 41.3738 30.6734 41.2708 30.707 41.1719C30.7624 41.0189 30.8421 40.8838 30.9463 40.7666C31.0505 40.6462 31.179 40.5518 31.332 40.4834C31.485 40.415 31.6608 40.3809 31.8594 40.3809C32.0905 40.3809 32.2891 40.415 32.4551 40.4834C32.6243 40.5485 32.7546 40.6641 32.8457 40.8301C32.9401 40.9928 32.9873 41.2223 32.9873 41.5186V45H33.8955V41.5283C33.8955 41.1963 33.8564 40.9098 33.7783 40.6689C33.7002 40.4281 33.5846 40.2311 33.4316 40.0781C33.2819 39.9219 33.0964 39.8063 32.875 39.7314C32.6569 39.6566 32.4062 39.6191 32.123 39.6191C31.7878 39.6191 31.4899 39.681 31.2295 39.8047C30.9691 39.9251 30.7493 40.0895 30.5703 40.2979C30.5251 40.3514 30.4827 40.4068 30.4429 40.4642C30.3664 40.3034 30.2705 40.1665 30.1553 40.0537C30.0023 39.904 29.8216 39.7949 29.6133 39.7266C29.4049 39.6549 29.1771 39.6191 28.9297 39.6191C28.5781 39.6191 28.2689 39.6826 28.002 39.8096C27.7529 39.925 27.5421 40.0858 27.3695 40.2919L27.3428 39.7168H26.4834V45H27.3916Z" fill="black"/>
<path d="M23.0361 45H23.7246L25.624 39.7168H24.7012L23.3917 43.7646L22.0498 39.7168H21.1221L23.0361 45Z" fill="black"/>
<path d="M20.624 45V44.2578H17.5451L20.4824 40.3564V39.7168H16.4736V40.4639H19.3448L16.4346 44.3359V45H20.624Z" fill="black"/>
</svg>
