<svg width="50" height="50" viewBox="0 0 50 50" fill="none" xmlns="http://www.w3.org/2000/svg">
<path fill-rule="evenodd" clip-rule="evenodd" d="M27.2723 13.4752C27.2723 13.4752 39.6574 17.2914 43.5776 18.575C44.3062 18.8178 45 19.3035 45 19.3035C45 19.3035 35.7372 23.4319 29.2498 27.2827C25.6418 29.4336 22.8318 32.2436 22.8318 32.2436L12.667 29.954C12.667 29.954 14.7485 26.3113 18.183 22.4258C22.0338 18.0893 27.2723 13.4752 27.2723 13.4752Z" fill="#4A596A"/>
<path fill-rule="evenodd" clip-rule="evenodd" d="M45 19.3035L38.1309 10.1448C38.1309 10.1448 31.5741 9 25.0173 9C18.4605 9 11.869 10.1448 11.869 10.1448L5 19.3035C5 19.3035 14.9913 17.0139 24.9826 17.0139C35.0086 17.0139 45 19.3035 45 19.3035ZM12.667 29.954L24.9479 40.5004L37.2289 29.954C37.2289 29.954 31.0884 31.0988 24.9479 31.0988C18.8074 31.0988 12.667 29.954 12.667 29.954Z" fill="#63778E"/>
</svg>
