<svg width="50" height="50" viewBox="0 0 50 50" fill="none" xmlns="http://www.w3.org/2000/svg">
<rect width="50" height="50" fill="black"/>
<path d="M32.5705 24.822C32.5705 22.1963 33.8714 20.5104 35.8642 20.5104C37.8569 20.5104 39.1578 22.1963 39.1578 24.822C39.1578 27.4476 37.8569 29.1611 35.8642 29.1611C33.8714 29.1611 32.5705 27.42 32.5705 24.822ZM27.4778 17.6637C24.7655 17.6637 23.1324 19.6813 23.1324 23.2743V32.0079H27.5055V17.6637H27.4778ZM21.97 17.6637C17.5416 17.6637 15.0783 18.9074 9.9579 24.131L6 28.1662V32.0079H22.2745V27.6964H12.5596L22.2745 17.6637H21.97ZM28.3636 37.5355H32.7366V29.1335C33.4285 31.2341 35.2829 32.4225 37.5525 32.4225C41.1229 32.4225 43.6969 29.327 43.6969 24.822C43.6969 20.3169 41.1229 17.2214 37.5525 17.2214C35.2829 17.2214 33.4285 18.4375 32.7366 20.5104V17.6637H28.3636V37.5355ZM27.5055 12.6611H23.1324V16.9727H27.5055V12.6611ZM22.2745 12.6611H6.33213V16.9727H22.2745V12.6611Z" fill="white"/>
</svg>
