<svg width="50" height="50" viewBox="0 0 50 50" fill="none" xmlns="http://www.w3.org/2000/svg">
<path d="M32.4916 13.289C33.3578 12.6673 34.2982 12.5993 35.2582 13.0032C36.3103 13.4459 36.8837 14.2793 37.0494 15.3845C37.1718 16.1994 37.0132 16.967 36.5406 17.649C35.9366 18.5206 35.0854 18.9513 34.0131 18.9353C33.2546 18.9241 32.6264 18.6198 32.1137 18.0737C32.0977 18.0567 32.0872 18.0325 32.0571 18.0307C32.0571 18.0307 32.0471 19.5784 32.0443 20.021C32.0428 20.268 31.9213 20.4486 31.6952 20.5548C31.4842 20.6538 31.2773 20.6373 31.0899 20.5006C30.9013 20.3627 30.8293 20.1669 30.8297 19.9389C30.834 17.8052 30.8303 15.672 30.8303 13.5389C30.8303 13.2185 30.984 12.9897 31.2535 12.9049C31.6234 12.7884 32.0072 13.0445 32.0396 13.4318C32.0461 13.5108 32.0407 13.5908 32.0407 13.6702C32.0407 13.6702 32.419 13.3411 32.4916 13.289ZM35.8027 15.8362C35.7441 14.5407 34.6415 13.4323 33.286 13.9841C32.5251 14.2938 32.1222 14.8892 32.0651 15.6882C32.0047 16.5319 32.3348 17.2071 33.0965 17.626C33.8424 18.0361 34.7226 17.892 35.2761 17.2929C35.6509 16.8874 35.7909 16.3923 35.8027 15.8362Z" fill="#818792"/>
<path d="M41.4184 16.3927C40.7519 16.3927 40.0853 16.3941 39.419 16.3908C39.3259 16.3904 39.3093 16.4093 39.3375 16.4989C39.5234 17.0861 39.8676 17.5384 40.4567 17.7779C41.1114 18.0439 41.8892 17.8292 42.4391 17.4289C42.6266 17.2921 42.8353 17.2537 43.0506 17.3667C43.4565 17.5794 43.4074 18.1246 43.0574 18.3635C42.207 18.9434 40.9825 19.1378 40.0165 18.7563C39.0421 18.3716 38.4099 17.665 38.1598 16.6677C37.8469 15.4198 38.1608 14.3204 39.1474 13.4632C40.4314 12.3471 42.3839 12.5924 43.3841 13.9652C43.7846 14.5148 43.9915 15.1265 43.9999 15.804C44.0044 16.1651 43.7766 16.3929 43.4073 16.3929C42.7443 16.3931 42.0814 16.3927 41.4184 16.3927ZM42.7574 15.3739C42.6757 15.0122 42.529 14.6992 42.2953 14.4287C41.7984 13.8534 41.0611 13.6609 40.4015 13.9511C39.8169 14.2082 39.4884 14.6794 39.3198 15.275C39.2945 15.3639 39.3164 15.3758 39.4004 15.3756C40.5194 15.3732 41.6384 15.3739 42.7574 15.3739Z" fill="#818792"/>
<path d="M27.9294 13.9003C26.9516 13.9003 25.9737 13.9012 24.9959 13.8999C24.6272 13.8993 24.3824 13.5578 24.5038 13.2185C24.5693 13.0358 24.7674 12.8955 24.9834 12.8859C26.2696 12.8292 27.5683 12.8829 28.8555 12.8839C29.4295 12.8842 29.7588 13.5352 29.3673 13.9723C28.2329 15.2395 27.0938 16.5029 25.9641 17.7744C25.9641 17.7744 28.48 17.7893 29.0303 17.7893C29.3454 17.7893 29.5775 18.0032 29.5783 18.2942C29.5791 18.5869 29.3421 18.806 29.0223 18.806C27.6858 18.8062 26.3496 18.8056 25.0133 18.8064C24.4433 18.8064 24.1261 18.1543 24.5123 17.7212C25.6493 16.4457 26.7899 15.1736 27.9294 13.9003Z" fill="#818792"/>
<path d="M9.57862 8.00021C9.80536 8.07982 10.0355 8.15008 10.2574 8.24279C10.7805 8.46105 11.2566 8.75373 11.6909 9.11459C12.249 9.57813 12.6997 10.1288 13.0448 10.7607C13.5242 11.6387 13.7109 12.6021 13.7082 13.5948C13.7036 15.1565 13.6985 16.7184 13.7092 18.2801C13.7164 19.3473 14.0528 20.3072 14.7341 21.1447C15.3299 21.877 16.1463 22.4271 17.0557 22.6867C17.3401 22.768 17.4967 23.0752 17.407 23.3328C17.3089 23.6148 17.0302 23.7475 16.7312 23.656C16.315 23.5288 15.9144 23.366 15.5375 23.15C14.8136 22.735 14.1821 22.1714 13.7055 21.4919C13.4017 21.0585 13.1612 20.591 12.9884 20.0904C12.7659 19.4456 12.6833 18.7838 12.688 18.1032C12.6985 16.5243 12.6997 14.9449 12.688 13.3659C12.6797 12.2736 12.3115 11.302 11.6022 10.4607C11.0303 9.78241 10.2327 9.22984 9.36535 9.00587C9.12345 8.94331 8.97418 8.73564 8.96828 8.54046C8.95808 8.18939 9.27082 8.00021 9.57862 8.00021Z" fill="#6DC4CC"/>
<path d="M6 13.2786C6.1187 13.0587 6.24789 12.8828 6.52907 12.8834C7.04087 12.8847 7.55267 12.8826 8.06426 12.8839C8.34806 12.8845 8.56849 13.1048 8.5687 13.3867C8.56933 15.0268 8.56933 16.6671 8.56891 18.3071C8.56891 18.5747 8.33838 18.8048 8.06763 18.8058C7.55941 18.8079 7.05119 18.8064 6.54296 18.8066C6.19402 18.8066 5.93786 18.4978 6.01937 18.1598C6.07558 17.9305 6.31432 17.7785 6.57159 17.7877C6.86213 17.7979 7.15329 17.7881 7.44425 17.7914C7.51541 17.7922 7.54109 17.7748 7.54088 17.6993C7.53878 16.4642 7.5392 15.229 7.5413 13.9939C7.5413 13.9213 7.51962 13.8987 7.44614 13.8995C7.13771 13.903 6.82928 13.9028 6.52086 13.9003C6.15623 13.8974 6 13.6017 6 13.2786Z" fill="#6DC4CC"/>
<path d="M17.2954 8.16713C17.5548 8.44047 17.4253 8.89425 17.0618 9.00109C16.2786 9.23099 15.5971 9.6301 15.0232 10.2076C14.8385 10.3936 14.5312 10.4007 14.3352 10.2356C14.1234 10.0573 14.0836 9.76397 14.2486 9.54675C14.8484 8.75788 15.8249 8.32431 16.7479 8.03762C16.9354 7.97885 17.1475 8.01104 17.2954 8.16713Z" fill="#6BC5CC"/>
<path d="M15.2604 13.3403C15.2604 12.7978 15.4114 12.2952 15.6908 11.8327C16.247 10.9112 17.2922 10.3178 18.373 10.3481C18.5927 10.3543 18.8128 10.5379 18.8429 10.7395C18.8835 11.0124 18.7561 11.244 18.5214 11.3251C17.6304 11.6328 16.9313 11.5912 16.4508 12.5881C16.3154 12.8689 16.2775 13.1774 16.2773 13.4877C16.2765 15.0804 16.2725 16.6733 16.279 18.266C16.2835 19.3809 17.2028 20.3306 18.3191 20.3268C18.5953 20.3257 18.7881 20.4823 18.8458 20.7423C18.9111 21.0367 18.6698 21.3395 18.3637 21.3418C17.6087 21.3474 16.9386 21.1077 16.363 20.6305C15.7544 20.126 15.3954 19.4791 15.2826 18.699C15.2575 18.526 15.2609 18.3539 15.2604 18.1814C15.2561 16.5566 15.2604 14.9631 15.2604 13.3403Z" fill="#6BC5CC"/>
<path d="M11.1281 13.3403C11.1281 12.7978 10.9771 12.2952 10.6977 11.8327C10.3819 11.3095 9.94235 10.9112 9.38591 10.6464C8.95432 10.441 8.49747 10.3346 8.01556 10.3481C7.79577 10.3543 7.57576 10.5379 7.54566 10.7395C7.50502 11.0124 7.6324 11.244 7.86714 11.3251C7.94356 11.3515 8.02146 11.3623 8.10314 11.366C8.96611 11.404 9.57139 11.8281 9.93772 12.5881C10.0731 12.8689 10.111 13.1774 10.1112 13.4877C10.112 15.0804 10.116 16.6733 10.1095 18.266C10.105 19.3809 9.18573 20.3306 8.06946 20.3268C7.79324 20.3257 7.60039 20.4823 7.54271 20.7423C7.47744 21.0367 7.71871 21.3395 8.02483 21.3418C9.55651 21.3532 10.8865 20.2162 11.106 18.699C11.131 18.526 11.1276 18.3539 11.1281 18.1814C11.1325 16.5566 11.1281 14.9631 11.1281 13.3403Z" fill="#6BC5CC"/>
<path d="M17.8304 13.4069C17.8304 13.0992 18.0473 12.8841 18.357 12.8839C18.8551 12.8837 19.3532 12.8901 19.8511 12.8818C20.1477 12.8768 20.396 13.1002 20.3987 13.379C20.4016 13.6869 20.1726 13.9001 19.8439 13.9003C19.5494 13.9005 19.2547 13.9026 18.9601 13.8989C18.8835 13.8978 18.8574 13.9176 18.8576 13.9972C18.8601 15.2263 18.8599 16.4554 18.8578 17.6846C18.8578 17.764 18.8772 17.7922 18.9633 17.7908C19.2648 17.7856 19.5665 17.7877 19.8681 17.7893C20.1679 17.791 20.397 18.0088 20.3989 18.2907C20.4008 18.5805 20.1743 18.8044 19.8703 18.8056C19.3582 18.8079 18.8462 18.8077 18.334 18.8058C18.0565 18.8048 17.8304 18.5745 17.8304 18.299C17.8304 14.6926 17.8304 42.8825 17.8304 13.4069Z" fill="#6EC4CA"/>
<path d="M8.9685 23.1764C8.96786 22.9611 9.10703 22.7605 9.31924 22.699C10.0985 22.4729 10.7966 22.0571 11.3715 21.494C11.5789 21.2911 11.8793 21.2832 12.0987 21.4786C12.2673 21.6287 12.3254 21.9667 12.1298 22.1737C11.4558 22.8877 10.584 23.3958 9.63483 23.6618C9.29124 23.7581 8.96955 23.5234 8.9685 23.1764Z" fill="#6DC4CC"/>
<path d="M17.1172 39.7393H18.0547C17.8942 41.2161 16.795 42.0977 15.3594 42.0977C13.695 42.0977 12.5859 40.7841 12.5859 38.8018C12.5859 36.9054 13.2454 34.793 15.4424 34.793C17.0522 34.793 17.9079 35.762 18.0547 37.1709H17.1172C16.9795 36.1676 16.542 35.5645 15.4424 35.5645C13.721 35.5645 13.5234 37.4453 13.5234 38.8018C13.5234 40.1954 14.0914 41.3311 15.3594 41.3311C16.5628 41.3311 16.9615 40.7317 17.1172 39.7393Z" fill="black"/>
<path d="M20.1836 34.5V42H19.2754V34.5H20.1836Z" fill="black"/>
<path d="M21.3945 39.417C21.3945 38.0083 22.2497 36.6191 23.792 36.6191C25.3001 36.6191 26.2041 37.904 26.2041 39.3047C26.2041 40.7467 25.324 42.0977 23.8018 42.0977C22.3338 42.0977 21.3945 40.8371 21.3945 39.417ZM22.2979 39.417C22.2979 40.464 22.7947 41.3555 23.8018 41.3555C24.9108 41.3555 25.2959 40.2435 25.2959 39.3047C25.2959 38.2571 24.8004 37.3613 23.792 37.3613C22.6944 37.3613 22.2979 38.4962 22.2979 39.417Z" fill="black"/>
<path d="M30.5693 36.7168H31.4775V42H30.6133L30.5693 36.7168ZM30.7402 39.666L31.1162 39.6562C31.1162 41.0474 30.5714 42.0977 29.0508 42.0977C28.0335 42.0977 27.3174 41.5402 27.3174 40.125V36.7168H28.2207V40.1348C28.2207 40.7706 28.5146 41.3311 29.1924 41.3311C30.2078 41.3311 30.7402 40.6174 30.7402 39.666Z" fill="black"/>
<path d="M36.1846 34.5H37.0928V42H36.2627L36.1846 34.5ZM32.6299 39.417C32.6299 38.1246 33.2461 36.6191 34.7197 36.6191C36.3492 36.6191 36.8486 38.2194 36.8486 39.5879C36.8128 39.9753 36.7428 40.3236 36.6387 40.6328C36.3379 41.5545 35.7216 42.0977 34.71 42.0977C33.287 42.0977 32.6299 40.6533 32.6299 39.417ZM33.5381 39.417C33.5381 40.4721 33.9529 41.3311 34.9346 41.3311C35.7527 41.3311 36.2156 40.7032 36.4141 39.959C36.4141 38.899 36.4054 37.3809 34.9443 37.3809C33.8684 37.3809 33.5381 38.5052 33.5381 39.417Z" fill="black"/>
</svg>
