<svg width="50" height="50" viewBox="0 0 50 50" fill="none" xmlns="http://www.w3.org/2000/svg">
<path d="M45.9178 19.2322C46.5943 23.3905 42.9797 25.7293 39.3146 26.0015C36.9823 30.7899 28.7587 34.0209 21.6456 30.5379C18.6166 30.9966 16.9255 30.2355 15.6381 28.7838C18.233 25.437 26.1235 19.4136 35.7606 22.5286C40.9099 24.1869 42.2477 20.2856 40.9503 18.8239C36.0938 13.3197 25.1289 18.2745 24.7402 18.6878C29.0464 12.105 44.4488 10.2602 45.9178 19.2322ZM31.1566 11.6715C31.1818 11.6715 27.6531 10.4164 22.726 12.5435C22.5258 12.4714 22.3302 12.3873 22.1403 12.2915C26.8857 9.14622 31.0405 7.8105 34.5995 8.32967C32.4439 5.85984 22.1 4.04024 16.1733 9.97285C8.84819 8.53128 3.71912 14.731 4.01192 20.3915C4.30472 26.0519 10.4939 29.5853 14.0176 28.6225C14.1015 28.6125 14.1862 28.6125 14.2701 28.6225C15.0576 24.8825 18.238 16.1777 31.1566 11.6765V11.6715Z" fill="#3A66F1"/>
<path d="M22.4512 44V36.5H21.543V44H22.4512Z" fill="#1C1D1F"/>
<path d="M35.8545 41.0331V36.5H34.9463V44H35.8545V42.1404L36.4238 41.5496L38.2568 44H39.3213L37.0233 40.9194L39.082 38.7168H37.9785L36.3379 40.4551L35.8545 41.0331Z" fill="#1C1D1F"/>
<path d="M30.3019 39.3741C30.3118 39.3616 30.3219 39.3492 30.332 39.3369C30.5208 39.109 30.7454 38.9333 31.0059 38.8096C31.2695 38.6826 31.5609 38.6191 31.8799 38.6191C32.1403 38.6191 32.3747 38.6549 32.583 38.7266C32.7913 38.7949 32.9688 38.9056 33.1152 39.0586C33.265 39.2116 33.3789 39.4102 33.457 39.6543C33.5352 39.8952 33.5742 40.1898 33.5742 40.5381V44H32.666V40.5283C32.666 40.2516 32.6253 40.0303 32.5439 39.8643C32.4626 39.695 32.3438 39.5729 32.1875 39.498C32.0312 39.4199 31.8392 39.3809 31.6113 39.3809C31.3867 39.3809 31.1816 39.4281 30.9961 39.5225C30.8138 39.6169 30.6559 39.7471 30.5225 39.9131C30.4463 40.0103 30.3795 40.1158 30.3223 40.2297V44H29.4189V38.7168H30.2734L30.3019 39.3741Z" fill="#1C1D1F"/>
<path d="M26.5771 43.917C26.8106 43.8075 27.0046 43.6609 27.1589 43.4773L27.1777 44H28.042V38.7168H27.1338V42.5582C27.0348 42.7868 26.8802 42.9712 26.6699 43.1113C26.4453 43.2578 26.141 43.3311 25.7568 43.3311C25.6331 43.3311 25.5127 43.3132 25.3955 43.2773C25.2816 43.2415 25.1774 43.1797 25.083 43.0918C24.9919 43.0007 24.9186 42.8786 24.8633 42.7256C24.8112 42.5693 24.7852 42.3724 24.7852 42.1348V38.7168H23.8818V42.125C23.8818 42.4766 23.9225 42.7777 24.0039 43.0283C24.0885 43.279 24.2074 43.4824 24.3604 43.6387C24.5133 43.7949 24.6956 43.9105 24.9072 43.9854C25.1221 44.0602 25.3581 44.0977 25.6152 44.0977C25.9928 44.0977 26.3135 44.0374 26.5771 43.917Z" fill="#1C1D1F"/>
<path fill-rule="evenodd" clip-rule="evenodd" d="M17.373 38.7949C17.1195 38.9087 16.9032 39.0761 16.7243 39.297L16.6797 38.7168H15.8496V46.0312H16.7578V43.4875C16.9302 43.6799 17.1369 43.8279 17.3779 43.9316C17.6351 44.0423 17.9313 44.0977 18.2666 44.0977C18.5954 44.0977 18.8867 44.0309 19.1406 43.8975C19.3945 43.764 19.6077 43.5768 19.7803 43.3359C19.9561 43.0951 20.0895 42.8118 20.1807 42.4863C20.2718 42.1576 20.3174 41.8011 20.3174 41.417V41.3145C20.3174 40.9108 20.2718 40.5446 20.1807 40.2158C20.0928 39.8838 19.9609 39.599 19.7852 39.3613C19.6094 39.1237 19.3929 38.9414 19.1357 38.8145C18.8786 38.6842 18.584 38.6191 18.252 38.6191C17.9199 38.6191 17.627 38.6777 17.373 38.7949ZM16.792 42.6914C16.7803 42.6713 16.7689 42.6511 16.7578 42.6308V40.1086C16.818 40.0018 16.888 39.9041 16.9678 39.8154C17.085 39.682 17.2266 39.5762 17.3926 39.498C17.5618 39.4199 17.7604 39.3809 17.9883 39.3809C18.2357 39.3809 18.4489 39.4329 18.6279 39.5371C18.807 39.638 18.9535 39.778 19.0674 39.957C19.1846 40.1328 19.2708 40.3379 19.3262 40.5723C19.3815 40.8034 19.4092 41.0508 19.4092 41.3145V41.417C19.4092 41.6807 19.3815 41.9297 19.3262 42.1641C19.2708 42.3952 19.1846 42.6003 19.0674 42.7793C18.9535 42.9583 18.807 43.0999 18.6279 43.2041C18.4521 43.305 18.2422 43.3555 17.998 43.3555C17.7018 43.3555 17.4561 43.2952 17.2607 43.1748C17.0654 43.0511 16.9092 42.89 16.792 42.6914Z" fill="#1C1D1F"/>
<path d="M13.6768 42.2373C13.7354 42.348 13.7646 42.4684 13.7646 42.5986C13.7646 42.7451 13.7207 42.8753 13.6328 42.9893C13.5449 43.1032 13.4163 43.1927 13.2471 43.2578C13.0811 43.3229 12.8743 43.3555 12.627 43.3555C12.4414 43.3555 12.2542 43.3262 12.0654 43.2676C11.8766 43.2057 11.7171 43.1032 11.5869 42.96C11.4567 42.8135 11.3851 42.6165 11.3721 42.3691H10.4639C10.4639 42.6621 10.5469 42.9404 10.7129 43.2041C10.8789 43.4678 11.123 43.6826 11.4453 43.8486C11.7676 44.0146 12.1615 44.0977 12.627 44.0977C12.9362 44.0977 13.2145 44.0602 13.4619 43.9854C13.7126 43.9072 13.9274 43.7998 14.1064 43.6631C14.2887 43.5231 14.4271 43.3571 14.5215 43.165C14.6191 42.973 14.668 42.7614 14.668 42.5303C14.668 42.2471 14.5996 42.0062 14.4629 41.8076C14.3262 41.609 14.1178 41.4414 13.8379 41.3047C13.5579 41.168 13.2015 41.0508 12.7686 40.9531C12.5212 40.8978 12.3177 40.8424 12.1582 40.7871C11.9987 40.7318 11.875 40.6732 11.7871 40.6113C11.6992 40.5462 11.6374 40.4762 11.6016 40.4014C11.569 40.3232 11.5527 40.2354 11.5527 40.1377C11.5527 40.0075 11.5869 39.8838 11.6553 39.7666C11.7269 39.6494 11.8392 39.5534 11.9922 39.4785C12.1484 39.4004 12.3519 39.3613 12.6025 39.3613C12.8402 39.3613 13.0404 39.4069 13.2031 39.498C13.3691 39.5892 13.4945 39.7048 13.5791 39.8447C13.667 39.9814 13.7109 40.123 13.7109 40.2695H14.6143C14.6143 39.9668 14.5345 39.6917 14.375 39.4443C14.2155 39.1937 13.986 38.9935 13.6865 38.8438C13.387 38.694 13.0257 38.6191 12.6025 38.6191C12.3063 38.6191 12.0378 38.6598 11.7969 38.7412C11.556 38.8226 11.3493 38.9349 11.1768 39.0781C11.0075 39.2214 10.8757 39.3857 10.7812 39.5713C10.6901 39.7568 10.6445 39.9538 10.6445 40.1621C10.6445 40.3802 10.6885 40.5706 10.7764 40.7334C10.8643 40.8962 10.9896 41.0378 11.1523 41.1582C11.3184 41.2786 11.5186 41.3812 11.7529 41.4658C11.9906 41.5505 12.2559 41.6237 12.5488 41.6855C12.8971 41.7539 13.1576 41.8353 13.3301 41.9297C13.5059 42.0208 13.6214 42.1234 13.6768 42.2373Z" fill="#1C1D1F"/>
</svg>
