<svg width="50" height="50" viewBox="0 0 50 50" fill="none" xmlns="http://www.w3.org/2000/svg">
<rect width="50" height="50" fill="#3A66F1"/>
<path d="M41.4353 18.1824C41.9668 21.4547 39.1268 23.2952 36.2471 23.5094C34.4146 27.2776 27.9532 29.8201 22.3644 27.0792C19.9845 27.4402 18.6557 26.8413 17.6442 25.6989C19.683 23.0651 25.8827 18.3252 33.4547 20.7765C37.5005 22.0814 38.5517 19.0114 37.5323 17.8611C33.7165 13.5297 25.1013 17.4287 24.7958 17.754C28.1793 12.5737 40.2811 11.122 41.4353 18.1824ZM29.8373 12.2326C29.8571 12.2326 27.0845 11.245 23.2132 12.9188C23.0559 12.8621 22.9023 12.7959 22.7531 12.7205C26.4816 10.2454 29.746 9.19427 32.5424 9.60282C30.8487 7.65924 22.7214 6.22733 18.0647 10.8959C12.3093 9.76148 8.27931 14.6403 8.50937 19.0947C8.73943 23.5491 13.6024 26.3296 16.371 25.572C16.4368 25.564 16.5034 25.564 16.5693 25.572C17.1881 22.6288 19.687 15.7787 29.8373 12.2366V12.2326Z" fill="white"/>
<path d="M21.6992 32.1211H22.3828L20.4688 39.2305H19.79L21.6992 32.1211ZM18.8281 32.1211L20.2881 39.2305H19.6143L17.8906 32.1211H18.8281ZM25.3076 32.1211H26.25L24.5312 39.2305H23.8574L25.3076 32.1211ZM22.4854 32.1211L24.3555 39.2305H23.6768L21.8115 32.1211H22.4854Z" fill="white"/>
<path d="M31.084 37.4336C31.084 36.77 30.7543 36.4527 29.3945 36.0566C27.9837 35.6386 27.0898 35.0626 27.0898 33.957C27.0898 32.841 28.0605 32.0234 29.5068 32.0234C30.7427 32.0234 32.0117 32.8072 32.0117 34.1719H31.0742C31.0742 33.3631 30.563 32.7949 29.5068 32.7949C28.5038 32.7949 28.0322 33.2795 28.0322 33.9473C28.0322 34.5482 28.5427 34.9156 29.6973 35.2363C31.3096 35.6914 32.0312 36.3114 32.0312 37.4238C32.0312 38.579 31.0626 39.3281 29.5508 39.3281C28.2855 39.3281 26.8652 38.5885 26.8652 37.1699H27.8027C27.8027 38.1451 28.6494 38.5615 29.5508 38.5615C30.5401 38.5615 31.084 38.1228 31.084 37.4336Z" fill="white"/>
</svg>
