<svg width="50" height="50" viewBox="0 0 50 50" fill="none" xmlns="http://www.w3.org/2000/svg">
<path d="M45.9178 19.2322C46.5943 23.3905 42.9797 25.7293 39.3146 26.0015C36.9823 30.7899 28.7587 34.0209 21.6456 30.5379C18.6166 30.9966 16.9255 30.2355 15.6381 28.7838C18.233 25.437 26.1235 19.4136 35.7606 22.5286C40.9099 24.1869 42.2477 20.2856 40.9503 18.8239C36.0938 13.3197 25.1289 18.2745 24.7402 18.6878C29.0464 12.105 44.4488 10.2602 45.9178 19.2322ZM31.1566 11.6715C31.1818 11.6715 27.6531 10.4164 22.726 12.5435C22.5258 12.4714 22.3302 12.3873 22.1403 12.2915C26.8857 9.14622 31.0405 7.8105 34.5995 8.32967C32.4439 5.85984 22.1 4.04024 16.1733 9.97285C8.84819 8.53128 3.71912 14.731 4.01192 20.3915C4.30472 26.0519 10.4939 29.5853 14.0176 28.6225C14.1015 28.6125 14.1862 28.6125 14.2701 28.6225C15.0576 24.8825 18.238 16.1777 31.1566 11.6765V11.6715Z" fill="#3A66F1"/>
<path fill-rule="evenodd" clip-rule="evenodd" d="M23.0532 43.4294C22.8815 43.6448 22.6714 43.8106 22.4229 43.9268C22.1722 44.0407 21.8792 44.0977 21.5439 44.0977C21.2347 44.0977 20.9515 44.0309 20.6943 43.8975C20.4404 43.764 20.2207 43.5768 20.0352 43.3359C19.8529 43.0951 19.7113 42.8118 19.6104 42.4863C19.5127 42.1576 19.4639 41.8011 19.4639 41.417V41.3145C19.4639 40.9108 19.5127 40.5446 19.6104 40.2158C19.7113 39.8838 19.8529 39.599 20.0352 39.3613C20.2207 39.1237 20.4404 38.9414 20.6943 38.8145C20.9515 38.6842 21.238 38.6191 21.5537 38.6191C21.8857 38.6191 22.1755 38.6777 22.4229 38.7949C22.6549 38.9004 22.8535 39.0519 23.0186 39.2494V36.5H23.9268V44H23.0967L23.0532 43.4294ZM23.0186 40.1402C22.9564 40.021 22.8815 39.9128 22.7939 39.8154C22.68 39.682 22.5384 39.5762 22.3691 39.498C22.2031 39.4199 22.0062 39.3809 21.7783 39.3809C21.5309 39.3809 21.3177 39.4329 21.1387 39.5371C20.9629 39.638 20.818 39.778 20.7041 39.957C20.5902 40.1328 20.5055 40.3379 20.4502 40.5723C20.3981 40.8034 20.3721 41.0508 20.3721 41.3145V41.417C20.3721 41.6807 20.3981 41.9281 20.4502 42.1592C20.5055 42.3903 20.5902 42.5938 20.7041 42.7695C20.818 42.9453 20.9629 43.0837 21.1387 43.1846C21.3145 43.2822 21.5244 43.3311 21.7686 43.3311C22.068 43.3311 22.3138 43.2676 22.5059 43.1406C22.7012 43.0137 22.8574 42.846 22.9746 42.6377C22.9897 42.6109 23.0043 42.5838 23.0186 42.5564V40.1402Z" fill="#1C1D1F"/>
<path d="M27.1006 40.6406L25.9434 38.7168H24.9033L26.627 41.3242L24.8496 44H25.8994L27.1201 42.0176L28.3408 44H29.3857L27.6035 41.3242L29.332 38.7168H28.2725L27.1006 40.6406Z" fill="#1C1D1F"/>
</svg>
