<svg width="50" height="50" viewBox="0 0 50 50" fill="none" xmlns="http://www.w3.org/2000/svg">
<rect width="50" height="50" fill="#3A66F1"/>
<path d="M16.4297 34.2344C17.422 34.2344 18.4336 34.8599 18.4336 35.9531H17.6836C17.6836 35.3061 17.2746 34.8516 16.4297 34.8516C15.6272 34.8516 15.25 35.2392 15.25 35.7734C15.25 36.2542 15.6584 36.5481 16.582 36.8047C17.8719 37.1688 18.4492 37.6648 18.4492 38.5547C18.4492 39.4788 17.6743 40.0781 16.4648 40.0781C15.4236 40.0781 14.3164 39.4912 14.3164 38.3516H15.0664C15.0664 39.1317 15.7438 39.4648 16.4648 39.4648C17.2563 39.4648 17.6914 39.1139 17.6914 38.5625C17.6914 38.0317 17.4276 37.7778 16.3398 37.4609C15.2112 37.1265 14.4961 36.6657 14.4961 35.7812C14.4961 34.8884 15.2726 34.2344 16.4297 34.2344Z" fill="white"/>
<path d="M21.1797 34.2344C22.172 34.2344 23.1836 34.8599 23.1836 35.9531H22.4336C22.4336 35.3061 22.0246 34.8516 21.1797 34.8516C20.3772 34.8516 20 35.2392 20 35.7734C20 36.2542 20.4084 36.5481 21.332 36.8047C22.6219 37.1688 23.1992 37.6648 23.1992 38.5547C23.1992 39.4788 22.4243 40.0781 21.2148 40.0781C20.1736 40.0781 19.0664 39.4912 19.0664 38.3516H19.8164C19.8164 39.1317 20.4938 39.4648 21.2148 39.4648C22.0063 39.4648 22.4414 39.1139 22.4414 38.5625C22.4414 38.0317 22.1776 37.7778 21.0898 37.4609C19.9612 37.1265 19.2461 36.6657 19.2461 35.7812C19.2461 34.8884 20.0226 34.2344 21.1797 34.2344Z" fill="white"/>
<path fill-rule="evenodd" clip-rule="evenodd" d="M26.2578 34.3125C27.5437 34.3125 28.2539 35.0341 28.2539 36.0469C28.2539 37.1394 27.5497 37.7695 26.2578 37.7695H24.9141V40H24.1602V34.3125H26.2578ZM24.9141 37.1562H26.2578C27.1425 37.1562 27.5 36.6926 27.5 36.0547C27.5 35.3485 26.9421 34.9297 26.2578 34.9297H24.9141V37.1562Z" fill="white"/>
<path d="M32.0391 38.9492L33.8984 34.3125H34.8672V40H34.1172L34.1895 35.4023L32.3203 40H31.75L29.8838 35.3955L29.957 40H29.207V34.3125H30.1758L32.0391 38.9492Z" fill="white"/>
<path d="M40.9374 17.1786C41.4528 20.3773 38.6988 22.1764 35.9064 22.3858C34.1294 26.0692 27.8637 28.5545 22.4443 25.8753C20.1365 26.2281 18.848 25.6427 17.8672 24.526C19.8442 21.9515 25.856 17.3182 33.1986 19.7143C37.1218 20.99 38.1411 17.9889 37.1526 16.8645C33.4524 12.6306 25.0982 16.4419 24.8021 16.7598C28.083 11.6961 39.8181 10.277 40.9374 17.1786ZM29.6907 11.3627C29.71 11.3627 27.0214 10.3972 23.2674 12.0335C23.1149 11.978 22.9659 11.9133 22.8212 11.8396C26.4368 9.42017 29.6023 8.39269 32.3139 8.79205C30.6716 6.89219 22.7904 5.49249 18.2749 10.056C12.6939 8.94714 8.786 13.7162 9.00908 18.0704C9.23217 22.4245 13.9478 25.1425 16.6325 24.402C16.6964 24.3942 16.7609 24.3942 16.8248 24.402C17.4248 21.525 19.848 14.829 29.6907 11.3666V11.3627Z" fill="white"/>
</svg>
