<svg width="50" height="50" viewBox="0 0 50 50" fill="none" xmlns="http://www.w3.org/2000/svg">
<rect width="50" height="50" fill="#3A66F1"/>
<path d="M41.4353 18.1824C41.9668 21.4547 39.1268 23.2952 36.2471 23.5094C34.4146 27.2776 27.9532 29.8201 22.3644 27.0792C19.9845 27.4402 18.6557 26.8413 17.6442 25.6989C19.683 23.0651 25.8827 18.3252 33.4547 20.7765C37.5005 22.0814 38.5517 19.0114 37.5323 17.8611C33.7165 13.5297 25.1013 17.4287 24.7958 17.754C28.1793 12.5737 40.2811 11.122 41.4353 18.1824ZM29.8373 12.2326C29.8571 12.2326 27.0845 11.245 23.2132 12.9188C23.0559 12.8621 22.9023 12.7959 22.7531 12.7205C26.4816 10.2454 29.746 9.19427 32.5424 9.60282C30.8487 7.65924 22.7214 6.22733 18.0647 10.8959C12.3093 9.76148 8.27931 14.6403 8.50937 19.0947C8.73943 23.5491 13.6024 26.3296 16.371 25.572C16.4368 25.564 16.5034 25.564 16.5693 25.572C17.1881 22.6288 19.687 15.7787 29.8373 12.2366V12.2326Z" fill="white"/>
<path d="M24.4492 38.9653H23.6055C23.4654 39.8585 23.1065 40.3979 22.0234 40.3979C20.8257 40.3979 20.3711 39.1629 20.3711 38.1216C20.3711 36.8983 20.4887 35.208 22.0981 35.208C22.9887 35.208 23.4862 35.7852 23.6055 36.6538H24.4492C24.3171 35.3858 23.547 34.5137 22.0981 34.5137C20.0499 34.5137 19.5273 36.4527 19.5273 38.1216C19.5273 39.6266 20.4141 41.0879 22.0234 41.0879C23.5652 41.0879 24.3175 40.1768 24.4492 38.9653Z" fill="white"/>
<path d="M30.3115 38.9653H29.4678C29.3277 39.8585 28.9688 40.3979 27.8857 40.3979C26.3141 40.3979 26.2334 38.6522 26.2334 37.4756C26.2334 36.1077 26.8369 35.208 27.9604 35.208C28.9501 35.208 29.3438 35.7509 29.4678 36.6538H30.3115C30.1794 35.3858 29.4093 34.5137 27.9604 34.5137C26.3866 34.5137 25.3896 35.6734 25.3896 37.4844C25.3896 39.1345 25.8421 41.0879 27.8857 41.0879C29.1778 41.0879 30.167 40.2945 30.3115 38.9653Z" fill="white"/>
</svg>
