<svg width="50" height="50" viewBox="0 0 50 50" fill="none" xmlns="http://www.w3.org/2000/svg">
<path d="M41.4353 18.1827C41.9668 21.4551 39.1268 23.2956 36.2471 23.5098C34.4146 27.2779 27.9532 29.8205 22.3644 27.0796C19.9845 27.4406 18.6557 26.8416 17.6442 25.6993C19.683 23.0655 25.8827 18.3255 33.4547 20.7768C37.5005 22.0818 38.5517 19.0117 37.5323 17.8615C33.7165 13.53 25.1013 17.4291 24.7958 17.7544C28.1793 12.5741 40.2811 11.1224 41.4353 18.1827ZM29.8373 12.233C29.8571 12.233 27.0845 11.2453 23.2132 12.9192C23.0559 12.8625 22.9023 12.7963 22.7531 12.7209C26.4816 10.2458 29.746 9.19464 32.5424 9.60319C30.8487 7.6596 22.7214 6.2277 18.0647 10.8963C12.3093 9.76185 8.27931 14.6407 8.50937 19.095C8.73943 23.5494 13.6024 26.3299 16.371 25.5723C16.4368 25.5644 16.5034 25.5644 16.5693 25.5723C17.1881 22.6292 19.687 15.779 29.8373 12.2369V12.233Z" fill="#3A66F1"/>
<path d="M21.6992 32.1207H22.3828L20.4688 39.2301H19.79L21.6992 32.1207ZM18.8281 32.1207L20.2881 39.2301H19.6143L17.8906 32.1207H18.8281ZM25.3076 32.1207H26.25L24.5312 39.2301H23.8574L25.3076 32.1207ZM22.4854 32.1207L24.3555 39.2301H23.6768L21.8115 32.1207H22.4854Z" fill="#1C1D1F"/>
<path d="M31.084 37.4332C31.084 36.7697 30.7543 36.4523 29.3945 36.0563C27.9837 35.6383 27.0898 35.0622 27.0898 33.9567C27.0898 32.8406 28.0605 32.0231 29.5068 32.0231C30.7427 32.0231 32.0117 32.8068 32.0117 34.1715H31.0742C31.0742 33.3627 30.563 32.7946 29.5068 32.7946C28.5038 32.7946 28.0322 33.2791 28.0322 33.9469C28.0322 34.5479 28.5427 34.9152 29.6973 35.236C31.3096 35.691 32.0312 36.3111 32.0312 37.4235C32.0312 38.5786 31.0626 39.3278 29.5508 39.3278C28.2855 39.3278 26.8652 38.5881 26.8652 37.1696H27.8027C27.8027 38.1447 28.6494 38.5612 29.5508 38.5612C30.5401 38.5612 31.084 38.1224 31.084 37.4332Z" fill="#1C1D1F"/>
</svg>
