<svg width="50" height="50" viewBox="0 0 50 50" fill="none" xmlns="http://www.w3.org/2000/svg">
<path d="M45.9178 19.2322C46.5943 23.3905 42.9797 25.7293 39.3146 26.0015C36.9823 30.7899 28.7587 34.0209 21.6456 30.5379C18.6166 30.9966 16.9255 30.2355 15.6381 28.7838C18.233 25.437 26.1235 19.4136 35.7606 22.5286C40.9099 24.1869 42.2477 20.2856 40.9503 18.8239C36.0938 13.3197 25.1289 18.2745 24.7402 18.6878C29.0464 12.105 44.4488 10.2602 45.9178 19.2322ZM31.1566 11.6715C31.1818 11.6715 27.6531 10.4164 22.726 12.5435C22.5258 12.4714 22.3302 12.3873 22.1403 12.2915C26.8857 9.14622 31.0405 7.8105 34.5995 8.32967C32.4439 5.85984 22.1 4.04024 16.1733 9.97285C8.84819 8.53128 3.71912 14.731 4.01192 20.3915C4.30472 26.0519 10.4939 29.5853 14.0176 28.6225C14.1015 28.6125 14.1862 28.6125 14.2701 28.6225C15.0576 24.8825 18.238 16.1777 31.1566 11.6765V11.6715Z" fill="#3A66F1"/>
<path d="M22.1025 41.4907H20.3931V40.8008H22.1025C23.0978 40.8008 23.5 40.2792 23.5 39.5615C23.5 38.9036 23.0936 38.2959 22.1025 38.2959H20.5908V44H19.7427V37.6016H22.1025C23.5492 37.6016 24.3481 38.4133 24.3481 39.5527C24.3481 40.7819 23.5559 41.4907 22.1025 41.4907Z" fill="black"/>
<path d="M27.1826 38.1685L25.0645 44H24.1987L26.6377 37.6016H27.1958L27.1826 38.1685ZM28.958 44L26.8354 38.1685L26.8223 37.6016H27.3804L29.8281 44H28.958ZM28.8481 41.6313V42.3257H25.2534V41.6313H28.8481Z" fill="black"/>
</svg>
