<svg width="18" height="18" viewBox="0 0 18 18" fill="none" xmlns="http://www.w3.org/2000/svg">
<path d="M1.5 14.3999V6.8999C1.5 6.48569 1.83579 6.1499 2.25 6.1499C2.66421 6.1499 3 6.48569 3 6.8999V14.3999C3 14.8141 3.33579 15.1499 3.75 15.1499L7.75001 15.1499L7.82716 15.1538C8.20513 15.1924 8.50001 15.5117 8.50001 15.8999C8.50001 16.288 8.20513 16.6073 7.82716 16.646L7.75001 16.6499L3.75 16.6499C2.50736 16.6499 1.5 15.6425 1.5 14.3999Z" fill="#6D6D6D"/>
<path d="M15.2167 12.0896L13.1349 14.1714L12.317 13.3461C12.1981 13.2271 12.0506 13.1677 11.8746 13.1677C11.6987 13.1677 11.5512 13.2271 11.4322 13.3461C11.3133 13.4651 11.2526 13.6125 11.2501 13.7885C11.2476 13.9645 11.3058 14.1119 11.4248 14.2309L12.7557 15.5618C12.8697 15.6758 13.0015 15.7328 13.1511 15.7328C13.3007 15.7328 13.4316 15.6758 13.5438 15.5618L16.109 12.9892C16.2279 12.8653 16.2874 12.7176 16.2874 12.5462C16.2874 12.3749 16.2281 12.225 16.1096 12.0964C15.9803 11.9679 15.8314 11.9025 15.6628 11.9C15.4943 11.8975 15.3456 11.9607 15.2167 12.0896Z" fill="#6D6D6D"/>
<path d="M10.334 9.7002C10.7727 9.7002 11.6465 10.2852 11.6465 11.4502C11.6465 11.9334 11.2547 12.3252 10.7715 12.3252H9.89648C9.41324 12.3252 9.02148 11.9334 9.02148 11.4502C9.02148 10.2852 9.89523 9.7002 10.334 9.7002ZM10.3164 10.8906C10.2509 10.9606 10.181 11.0671 10.1455 11.2256H10.5225C10.487 11.0671 10.4171 10.9606 10.3516 10.8906C10.3459 10.8846 10.3395 10.8795 10.334 10.874C10.3285 10.8795 10.322 10.8846 10.3164 10.8906ZM10.334 5.7002C11.299 5.7002 12.084 6.4852 12.084 7.4502C12.084 8.4152 11.299 9.2002 10.334 9.2002C9.36898 9.2002 8.58398 8.4152 8.58398 7.4502C8.58398 6.4852 9.36898 5.7002 10.334 5.7002ZM10.334 6.7998C9.9765 6.7998 9.68359 7.09271 9.68359 7.4502C9.68359 7.80768 9.9765 8.10059 10.334 8.10059C10.6915 8.10059 10.9844 7.80768 10.9844 7.4502C10.9844 7.09271 10.6915 6.7998 10.334 6.7998Z" fill="#6D6D6D"/>
<path d="M5.5 3.5H6.5V4.25C6.5 4.66421 6.83579 5 7.25 5H13.25C13.6642 5 14 4.66421 14 4.25V3.5H15V9.25C15 9.66421 15.3358 10 15.75 10C16.1642 10 16.5 9.66421 16.5 9.25V3.5C16.5 2.675 15.825 2 15 2H12.365C12.05 1.13 11.225 0.5 10.25 0.5C9.275 0.5 8.45 1.13 8.135 2H5.5C4.675 2 4 2.675 4 3.5V13C4 13.825 4.675 14.5 5.5 14.5H8.75C9.16421 14.5 9.5 14.1642 9.5 13.75C9.5 13.3358 9.16421 13 8.75 13H5.5V3.5ZM10.25 2C10.6625 2 11 2.3375 11 2.75C11 3.1625 10.6625 3.5 10.25 3.5C9.8375 3.5 9.5 3.1625 9.5 2.75C9.5 2.3375 9.8375 2 10.25 2Z" fill="#6D6D6D"/>
</svg>
