<svg width="18" height="18" viewBox="0 0 18 18" fill="none" xmlns="http://www.w3.org/2000/svg">
<path d="M7.26 9.8925L9 8.5725L10.7325 9.8925L10.0725 7.755L11.8125 6.375H9.6825L9 4.2675L8.3175 6.375H6.1875L7.92 7.755L7.26 9.8925ZM15 7.125C15 3.81 12.315 1.125 9 1.125C5.685 1.125 3 3.81 3 7.125C3 8.6475 3.57 10.0275 4.5 11.085V16.875L9 15.375L13.5 16.875V11.085C14.43 10.0275 15 8.6475 15 7.125ZM9 2.625C11.4825 2.625 13.5 4.6425 13.5 7.125C13.5 9.6075 11.4825 11.625 9 11.625C6.5175 11.625 4.5 9.6075 4.5 7.125C4.5 4.6425 6.5175 2.625 9 2.625ZM9 13.875L6 14.64V12.315C6.885 12.825 7.905 13.125 9 13.125C10.095 13.125 11.115 12.825 12 12.315V14.64L9 13.875Z" fill="#6D6D6D"/>
</svg>
