<svg width="18" height="18" viewBox="0 0 18 18" fill="none" xmlns="http://www.w3.org/2000/svg">
<path d="M3.43872 13.125C3.23161 13.125 3.06372 12.9571 3.06372 12.75V12.6375C3.06372 12.3825 3.18372 12.1425 3.37122 12.03C4.63872 11.2725 6.08622 10.875 7.56372 10.875C7.59538 10.875 7.62783 10.8536 7.63266 10.8224C7.68377 10.491 7.76484 10.1691 7.87395 9.86225C7.95573 9.63226 7.80782 9.375 7.56372 9.375C5.74872 9.375 4.05372 9.8775 2.60622 10.74C1.94622 11.13 1.56372 11.865 1.56372 12.6375V14.25C1.56372 14.4571 1.73161 14.625 1.93872 14.625H7.78848C8.09186 14.625 8.2762 14.2782 8.13817 14.0081C8.03616 13.8084 7.94612 13.6011 7.86903 13.3882C7.81289 13.2332 7.66859 13.125 7.50369 13.125H3.43872Z" fill="#6D6D6D"/>
<path d="M7.56372 8.625C9.22122 8.625 10.5637 7.2825 10.5637 5.625C10.5637 3.9675 9.22122 2.625 7.56372 2.625C5.90622 2.625 4.56372 3.9675 4.56372 5.625C4.56372 7.2825 5.90622 8.625 7.56372 8.625ZM7.56372 4.125C8.38872 4.125 9.06372 4.8 9.06372 5.625C9.06372 6.45 8.38872 7.125 7.56372 7.125C6.73872 7.125 6.06372 6.45 6.06372 5.625C6.06372 4.8 6.73872 4.125 7.56372 4.125Z" fill="#6D6D6D"/>
<path d="M15.6262 11.625C15.6262 11.46 15.6037 11.31 15.5812 11.1525L16.3445 10.4763C16.3979 10.429 16.4106 10.3506 16.3749 10.2889L15.7477 9.20387C15.7119 9.14201 15.6375 9.11396 15.5698 9.13684L14.5987 9.465C14.3587 9.2625 14.0887 9.105 13.7887 8.9925L13.588 7.99539C13.5739 7.92537 13.5123 7.875 13.4409 7.875H12.1865C12.1151 7.875 12.0536 7.92537 12.0395 7.99539L11.8387 8.9925C11.5387 9.105 11.2687 9.2625 11.0287 9.465L10.0576 9.13684C9.98993 9.11396 9.91549 9.14201 9.87973 9.20387L9.25254 10.2889C9.21686 10.3506 9.22956 10.429 9.28294 10.4763L10.0462 11.1525C10.0237 11.31 10.0012 11.46 10.0012 11.625C10.0012 11.79 10.0237 11.94 10.0462 12.0975L9.28294 12.7737C9.22956 12.821 9.21686 12.8994 9.25254 12.9611L9.87973 14.0461C9.91549 14.108 9.98993 14.136 10.0576 14.1132L11.0287 13.785C11.2687 13.9875 11.5387 14.145 11.8387 14.2575L12.0395 15.2546C12.0536 15.3246 12.1151 15.375 12.1865 15.375H13.4409C13.5123 15.375 13.5739 15.3246 13.588 15.2546L13.7887 14.2575C14.0887 14.145 14.3587 13.9875 14.5987 13.785L15.5698 14.1132C15.6375 14.136 15.7119 14.108 15.7477 14.0461L16.3749 12.9611C16.4106 12.8994 16.3979 12.821 16.3445 12.7737L15.5812 12.0975C15.6037 11.94 15.6262 11.79 15.6262 11.625ZM12.8137 13.125C11.9887 13.125 11.3137 12.45 11.3137 11.625C11.3137 10.8 11.9887 10.125 12.8137 10.125C13.6387 10.125 14.3137 10.8 14.3137 11.625C14.3137 12.45 13.6387 13.125 12.8137 13.125Z" fill="#6D6D6D"/>
</svg>
