<svg width="18" height="18" viewBox="0 0 18 18" fill="none" xmlns="http://www.w3.org/2000/svg">
<path fill-rule="evenodd" clip-rule="evenodd" d="M15 2.25H3C2.175 2.25 1.5 2.925 1.5 3.75V14.25C1.5 15.075 2.175 15.75 3 15.75H15C15.825 15.75 16.5 15.075 16.5 14.25V3.75C16.5 2.925 15.825 2.25 15 2.25ZM15 13.875C15 14.0821 14.8321 14.25 14.625 14.25H3.375C3.16789 14.25 3 14.0821 3 13.875V4.125C3 3.91789 3.16789 3.75 3.375 3.75H14.625C14.8321 3.75 15 3.91789 15 4.125V13.875ZM14.026 8.34533C14.3195 8.05253 14.3178 7.57533 14.0247 7.28221C13.7318 6.98932 13.2551 6.98744 12.9622 7.28033L11.3811 8.8614C11.2343 9.00821 10.9961 9.00779 10.8498 8.86046L10.5862 8.59499C10.2945 8.30121 9.81963 8.30037 9.52688 8.59312C9.23559 8.88441 9.23476 9.35642 9.52502 9.64874L10.8501 10.9832C10.9963 11.1305 11.2342 11.131 11.3811 10.9845L14.026 8.34533ZM4.5 5.25H6.75C7.16421 5.25 7.5 5.58579 7.5 6C7.5 6.41421 7.16421 6.75 6.75 6.75H4.5C4.08579 6.75 3.75 6.41421 3.75 6C3.75 5.58579 4.08579 5.25 4.5 5.25ZM6.75 8.25H4.5C4.08579 8.25 3.75 8.58579 3.75 9C3.75 9.41421 4.08579 9.75 4.5 9.75H6.75C7.16421 9.75 7.5 9.41421 7.5 9C7.5 8.58579 7.16421 8.25 6.75 8.25ZM4.5 11.25H6.75C7.16421 11.25 7.5 11.5858 7.5 12C7.5 12.4142 7.16421 12.75 6.75 12.75H4.5C4.08579 12.75 3.75 12.4142 3.75 12C3.75 11.5858 4.08579 11.25 4.5 11.25Z" fill="#6D6D6D"/>
</svg>
