<svg width="18" height="18" viewBox="0 0 18 18" fill="none" xmlns="http://www.w3.org/2000/svg">
<path d="M14.5592 8.22672C15.652 7.00412 15.7735 5.22032 14.9239 3.87374C15.12 3.67241 15.4927 3.28013 15.7859 2.97056C16.0764 2.66383 16.068 2.18175 15.7682 1.88464C15.4697 1.58871 14.9899 1.58318 14.6853 1.87347C14.3785 2.1659 13.9894 2.53783 13.7866 2.73615C13.2081 2.37084 12.537 2.17681 11.8513 2.17791C10.923 2.17794 9.99429 2.53172 9.28525 3.24097L7.50915 5.01758C7.45685 5.07042 7.42753 5.14175 7.42753 5.21609C7.42753 5.29042 7.45735 5.36225 7.50965 5.41508L10.3743 8.28054C10.7879 7.96714 11.2776 7.74298 11.8121 7.6381L9.38994 5.21521L10.3245 4.28039C10.7318 3.87299 11.2741 3.6475 11.8514 3.6475C12.4288 3.6475 12.9694 3.8713 13.3784 4.28039C13.7856 4.68779 14.0111 5.23033 14.0111 5.80784C14.0111 6.38514 13.7857 6.92614 13.3782 7.33548L13.0938 7.61989C13.6361 7.71016 14.135 7.92257 14.5592 8.22672Z" fill="#6D6D6D"/>
<path fill-rule="evenodd" clip-rule="evenodd" d="M9.2418 9.81087C9.11899 10.1528 9.05228 10.5201 9.05228 10.9023C9.05228 11.6902 9.33561 12.4141 9.80927 12.9844L8.71442 14.0796C8.00535 14.7888 7.07654 15.1426 6.14825 15.1426C5.47533 15.1426 4.80193 14.9572 4.21299 14.5845C4.01077 14.7822 3.6234 15.1525 3.31703 15.4445C3.01103 15.7361 2.52883 15.7296 2.23008 15.4312C1.93102 15.1325 1.92428 14.6497 2.21627 14.3435C2.50831 14.0372 2.87835 13.6502 3.07571 13.4484C2.19124 12.0465 2.35935 10.1707 3.58026 8.94763L5.35743 7.16819C5.41106 7.11789 5.48184 7.09004 5.55272 7.0897C5.5898 7.08918 5.62662 7.09606 5.66102 7.10994C5.69581 7.12399 5.72741 7.1449 5.75393 7.17144L6.40357 7.82127C6.59014 7.63997 6.9133 7.33266 7.17054 7.08883C7.44654 6.82721 7.87996 6.83316 8.14939 7.10085C8.41956 7.36927 8.4275 7.8041 8.1659 8.08153C7.92169 8.34053 7.61393 8.66582 7.43383 8.85184L8.80821 10.2266C8.91882 10.1191 9.07743 9.96738 9.2418 9.81087ZM8.60799 12.107L7.67344 13.0419C7.47343 13.243 7.23529 13.4027 6.97331 13.5113C6.71132 13.6199 6.43009 13.6754 6.1465 13.6748C5.56913 13.6748 5.02827 13.4507 4.61931 13.0416C4.41827 12.8415 4.25886 12.6036 4.1503 12.3415C4.04174 12.0794 3.98619 11.7981 3.98685 11.5144C3.98685 10.9368 4.2106 10.3961 4.61956 9.98698L5.55406 9.05222L8.60799 12.107Z" fill="#6D6D6D"/>
<path d="M14.105 12.7928L14.2649 12.647C14.7661 12.1899 15.0775 11.5453 15.0775 10.8314C15.0775 9.44991 13.9091 8.3252 12.4618 8.3252C11.0145 8.3252 9.84615 9.44991 9.84615 10.8314C9.84615 11.5453 10.1576 12.1899 10.6588 12.647L10.8186 12.7928L10.6238 12.8896C9.33807 13.5283 8.46183 14.8148 8.46183 16.2958C8.46183 16.3069 8.47302 16.3252 8.49961 16.3252H14.0868C13.5308 15.9429 13.1662 15.3022 13.1662 14.5764C13.1662 13.8344 13.5472 13.1814 14.1244 12.8024L14.105 12.7928Z" fill="#6D6D6D"/>
<path fill-rule="evenodd" clip-rule="evenodd" d="M16.8588 15.0216L16.6095 14.8028C16.6213 14.7285 16.6274 14.6527 16.6274 14.5769C16.6274 14.5011 16.6213 14.4253 16.6095 14.3511L16.8588 14.1322C16.8776 14.1157 16.8911 14.0937 16.8974 14.0691C16.9037 14.0446 16.9026 14.0186 16.8942 13.9947L16.8908 13.9845C16.8222 13.7876 16.7194 13.6051 16.5874 13.4457L16.5805 13.4375C16.5645 13.4182 16.5432 13.4043 16.5193 13.3977C16.4955 13.391 16.4702 13.392 16.4469 13.4004L16.1374 13.5133C16.0232 13.4172 15.8957 13.3414 15.7579 13.2882L15.6981 12.9561C15.6936 12.9311 15.6818 12.9081 15.6643 12.8902C15.6467 12.8722 15.6243 12.8602 15.5999 12.8557L15.5897 12.8537C15.3913 12.817 15.1827 12.817 14.9844 12.8537L14.9741 12.8557C14.9497 12.8602 14.9273 12.8722 14.9098 12.8902C14.8922 12.9081 14.8804 12.9311 14.8759 12.9561L14.8157 13.2898C14.679 13.3429 14.5517 13.4187 14.4389 13.5141L14.1271 13.4004C14.1038 13.3919 14.0785 13.3909 14.0547 13.3976C14.0308 13.4042 14.0095 13.4181 13.9935 13.4375L13.9866 13.4457C13.8548 13.6052 13.7521 13.7877 13.6832 13.9845L13.6798 13.9947C13.6627 14.0435 13.6768 14.0983 13.7152 14.1322L13.9676 14.3534C13.9558 14.4269 13.9501 14.5019 13.9501 14.5765C13.9501 14.6516 13.9558 14.7266 13.9676 14.7996L13.7152 15.0208C13.6964 15.0373 13.683 15.0593 13.6766 15.0839C13.6703 15.1085 13.6714 15.1344 13.6798 15.1583L13.6832 15.1685C13.7521 15.3654 13.8542 15.5471 13.9866 15.7074L13.9935 15.7156C14.0095 15.7349 14.0308 15.7488 14.0547 15.7554C14.0785 15.762 14.1038 15.7611 14.1271 15.7527L14.4389 15.639C14.5523 15.7347 14.6791 15.8105 14.8157 15.8633L14.8759 16.197C14.8804 16.222 14.8922 16.2449 14.9098 16.2629C14.9273 16.2808 14.9497 16.2928 14.9741 16.2974L14.9844 16.2993C15.1845 16.3363 15.3895 16.3363 15.5897 16.2993L15.5999 16.2974C15.6243 16.2928 15.6467 16.2808 15.6643 16.2629C15.6818 16.2449 15.6936 16.222 15.6981 16.197L15.7579 15.8648C15.8957 15.8118 16.0239 15.7358 16.1374 15.6398L16.4469 15.7527C16.4702 15.7611 16.4955 15.7621 16.5194 15.7555C16.5432 15.7489 16.5646 15.7349 16.5805 15.7156L16.5874 15.7074C16.7199 15.5468 16.8219 15.3654 16.8908 15.1685L16.8942 15.1583C16.9114 15.1103 16.8973 15.0556 16.8588 15.0216ZM14.6174 14.5382C14.6174 14.1584 14.9174 13.8505 15.2874 13.8505C15.6574 13.8505 15.9574 14.1584 15.9574 14.5382C15.9574 14.918 15.6574 15.2259 15.2874 15.2259C14.9174 15.2259 14.6174 14.918 14.6174 14.5382Z" fill="#6D6D6D"/>
</svg>
