<svg width="18" height="18" viewBox="0 0 18 18" fill="none" xmlns="http://www.w3.org/2000/svg">
<path d="M14.6567 8.27173C15.772 7.04433 15.9236 5.231 15.0701 3.84355L16.0234 2.96542C16.3291 2.68379 16.3487 2.20764 16.067 1.9019C15.7854 1.59617 15.3092 1.57662 15.0035 1.85826L14.0386 2.74706C12.6428 1.76655 10.7057 1.85366 9.39986 3.05652L7.87482 4.46132C7.58136 4.73165 7.5626 5.18869 7.83292 5.48215L10.5913 8.47665C11.2076 8.04362 11.9664 7.78815 12.787 7.78815C13.4682 7.78815 14.1068 7.9642 14.6567 8.27173Z" fill="#6D6D6D"/>
<path d="M9.56696 9.56577C9.23989 10.1016 9.05228 10.7262 9.05228 11.3931C9.05228 11.9955 9.20535 12.5634 9.47599 13.0625L8.17407 14.2618C6.8683 15.4646 4.93121 15.5518 3.53542 14.5713L2.57046 15.4602C2.26472 15.7419 1.78857 15.7223 1.50694 15.4166C1.22531 15.1108 1.24485 14.6347 1.55058 14.3531L2.50391 13.4749C1.5936 11.9953 1.82648 10.0313 3.1522 8.8101L4.67725 7.40529C4.97071 7.13496 5.42774 7.15372 5.69807 7.44719L6.2284 8.0229L6.78201 7.51294C7.08775 7.23131 7.5639 7.25085 7.84553 7.55658C8.12716 7.86232 8.10762 8.33847 7.80189 8.62011L7.24827 9.13007L8.26815 10.2372L8.82176 9.72727C9.02962 9.53581 9.31624 9.48354 9.56696 9.56577Z" fill="#6D6D6D"/>
<path fill-rule="evenodd" clip-rule="evenodd" d="M16.6836 15.1349L16.9537 15.3537C16.9954 15.3877 17.0107 15.4424 16.9921 15.4905L16.9884 15.5007C16.9137 15.6976 16.8032 15.8789 16.6597 16.0395L16.6522 16.0477C16.6349 16.0671 16.6118 16.081 16.586 16.0876C16.5601 16.0943 16.5327 16.0933 16.5075 16.0848L16.1721 15.9719C16.0491 16.0679 15.9102 16.144 15.7609 16.197L15.6962 16.5291C15.6913 16.5541 15.6785 16.5771 15.6595 16.595C15.6405 16.613 15.6162 16.625 15.5898 16.6295L15.5786 16.6315C15.3618 16.6684 15.1397 16.6684 14.9228 16.6315L14.9117 16.6295C14.8853 16.625 14.861 16.613 14.842 16.595C14.823 16.5771 14.8102 16.5541 14.8053 16.5291L14.7401 16.1954C14.592 16.1427 14.4547 16.0669 14.3318 15.9711L13.994 16.0848C13.9687 16.0932 13.9414 16.0942 13.9155 16.0875C13.8897 16.0809 13.8666 16.067 13.8492 16.0477L13.8418 16.0395C13.6983 15.8793 13.5877 15.6976 13.5131 15.5007L13.5094 15.4905C13.5002 15.4666 13.499 15.4406 13.5059 15.4161C13.5127 15.3915 13.5273 15.3695 13.5477 15.353L13.8212 15.1318C13.8084 15.0587 13.8022 14.9837 13.8022 14.9087C13.8022 14.834 13.8084 14.759 13.8212 14.6856L13.5477 14.4644C13.5061 14.4304 13.4908 14.3757 13.5094 14.3269L13.5131 14.3167C13.5876 14.1199 13.699 13.9373 13.8418 13.7779L13.8492 13.7696C13.8665 13.7503 13.8896 13.7363 13.9155 13.7297C13.9414 13.7231 13.9687 13.7241 13.994 13.7325L14.3318 13.8462C14.4541 13.7509 14.592 13.6751 14.7401 13.6219L14.8053 13.2882C14.8102 13.2633 14.823 13.2403 14.842 13.2223C14.861 13.2044 14.8853 13.1924 14.9117 13.1878L14.9228 13.1859C15.1377 13.1491 15.3637 13.1491 15.5786 13.1859L15.5898 13.1878C15.6162 13.1924 15.6405 13.2044 15.6595 13.2223C15.6785 13.2403 15.6913 13.2633 15.6962 13.2882L15.7609 13.6204C15.9102 13.6735 16.0484 13.7493 16.1721 13.8455L16.5075 13.7325C16.5327 13.7241 16.5601 13.7232 16.5859 13.7298C16.6118 13.7364 16.6349 13.7503 16.6522 13.7696L16.6597 13.7779C16.8026 13.9372 16.914 14.1198 16.9884 14.3167L16.9921 14.3269C17.0012 14.3508 17.0024 14.3767 16.9956 14.4013C16.9887 14.4259 16.9741 14.4479 16.9537 14.4644L16.6836 14.6832C16.6964 14.7575 16.703 14.8333 16.703 14.9091C16.703 14.9849 16.6964 15.0607 16.6836 15.1349ZM15.2511 14.1827C14.8502 14.1827 14.5252 14.4906 14.5252 14.8704C14.5252 15.2502 14.8502 15.5581 15.2511 15.5581C15.652 15.5581 15.9771 15.2502 15.9771 14.8704C15.9771 14.4906 15.652 14.1827 15.2511 14.1827Z" fill="#6D6D6D"/>
<path fill-rule="evenodd" clip-rule="evenodd" d="M14.936 10.9067C14.936 11.547 14.6566 12.1251 14.2069 12.535L14.0634 12.6657L14.2383 12.7525C14.37 12.8179 14.3847 12.9948 14.2728 13.0902L13.8875 13.4185C13.7967 13.4959 13.6695 13.5116 13.5581 13.469C13.2582 13.3544 12.9311 13.2915 12.589 13.2915C11.1437 13.2915 9.96757 14.4154 9.96757 15.8072C9.96757 15.8227 9.95495 15.8336 9.94284 15.8336H9.03384C9.00998 15.8336 8.99994 15.8172 8.99994 15.8072C8.99994 14.4791 9.78617 13.3254 10.9398 12.7525L11.1146 12.6657L10.9712 12.535C10.5215 12.1251 10.2421 11.547 10.2421 10.9067C10.2421 9.66783 11.2904 8.65918 12.589 8.65918C13.8877 8.65918 14.936 9.66783 14.936 10.9067ZM13.9684 10.9067C13.9684 11.6408 13.3484 12.2316 12.589 12.2316C11.8297 12.2316 11.2097 11.6408 11.2097 10.9067C11.2097 10.1726 11.8297 9.58183 12.589 9.58183C13.3484 9.58183 13.9684 10.1726 13.9684 10.9067Z" fill="#6D6D6D"/>
</svg>
