<svg width="18" height="18" viewBox="0 0 18 18" fill="none" xmlns="http://www.w3.org/2000/svg">
<path d="M3.1875 4.5H4.6875V6C4.6875 6.41421 5.02329 6.75 5.4375 6.75H11.4375C11.8517 6.75 12.1875 6.41421 12.1875 6V4.5H13.6875V7.5C13.6875 7.91421 14.0233 8.25 14.4375 8.25C14.8517 8.25 15.1875 7.91421 15.1875 7.5V4.5C15.1875 3.675 14.5125 3 13.6875 3H10.5525C10.2375 2.13 9.4125 1.5 8.4375 1.5C7.4625 1.5 6.6375 2.13 6.3225 3H3.1875C2.3625 3 1.6875 3.675 1.6875 4.5V15C1.6875 15.825 2.3625 16.5 3.1875 16.5H6.9375C7.35171 16.5 7.6875 16.1642 7.6875 15.75C7.6875 15.3358 7.35171 15 6.9375 15H3.1875V4.5ZM8.4375 3C8.85 3 9.1875 3.3375 9.1875 3.75C9.1875 4.1625 8.85 4.5 8.4375 4.5C8.025 4.5 7.6875 4.1625 7.6875 3.75C7.6875 3.3375 8.025 3 8.4375 3Z" fill="#6D6D6D"/>
<path d="M15.75 11.7571L15.2528 12.2569L13.7684 10.7645L14.2655 10.2648C14.5386 9.99022 14.9798 9.99022 15.2528 10.2648L15.75 10.7645C16.0231 11.0391 16.0231 11.4825 15.75 11.7571ZM13.2712 11.2643L14.7557 12.7566L11.0445 16.4874H9.56008V14.9951L13.2712 11.2643Z" fill="#6D6D6D"/>
</svg>
