<svg width="18" height="18" viewBox="0 0 18 18" fill="none" xmlns="http://www.w3.org/2000/svg">
<path d="M12.3793 11.564C12.6678 11.857 13.146 11.8608 13.3823 11.5243C13.892 10.7989 14.1902 9.90948 14.1902 8.94771C14.1902 7.98601 13.892 7.09663 13.3825 6.37125C13.146 6.0347 12.6677 6.03847 12.3791 6.33153C12.0945 6.62061 12.106 7.08217 12.3132 7.43099C12.5767 7.87473 12.7278 8.39417 12.7278 8.94771C12.7278 9.50521 12.5745 10.0281 12.3098 10.4763C12.1056 10.8221 12.0975 11.2779 12.3793 11.564Z" fill="#6D6D6D"/>
<path d="M15.6526 8.94771C15.6526 10.3242 15.1897 11.5909 14.4148 12.5946C14.1676 12.9147 14.1626 13.3751 14.4463 13.6633C14.7357 13.9571 15.2128 13.9591 15.471 13.6376C16.4986 12.3587 17.115 10.7259 17.115 8.94771C17.115 7.16957 16.4986 5.53675 15.471 4.25779C15.2128 3.93633 14.7357 3.93834 14.4463 4.23217C14.1626 4.52036 14.1676 4.9807 14.4148 5.30084C15.1897 6.30453 15.6526 7.57127 15.6526 8.94771Z" fill="#6D6D6D"/>
<path d="M0.75 8.94771C0.75 7.16957 1.36644 5.53675 2.39398 4.25779C2.65225 3.93633 3.12935 3.93834 3.41868 4.23217C3.70245 4.52036 3.69739 4.9807 3.45022 5.30084C2.67534 6.30453 2.2124 7.57127 2.2124 8.94771C2.2124 10.3242 2.67534 11.5909 3.45022 12.5946C3.69739 12.9147 3.70245 13.3751 3.41868 13.6633C3.12935 13.9571 2.65225 13.9591 2.39398 13.6376C1.36644 12.3587 0.75 10.7259 0.75 8.94771Z" fill="#6D6D6D"/>
<path d="M3.67479 8.94771C3.67479 9.90948 3.97302 10.7989 4.48266 11.5243C4.71904 11.8608 5.19724 11.857 5.48574 11.564C5.76753 11.2779 5.75942 10.8221 5.55517 10.4763C5.29046 10.0281 5.13719 9.50521 5.13719 8.94771C5.13719 8.39417 5.28829 7.87473 5.55182 7.43099C5.75898 7.08217 5.77053 6.62061 5.48588 6.33153C5.1973 6.03847 4.71897 6.0347 4.48255 6.37125C3.97298 7.09663 3.67479 7.98601 3.67479 8.94771Z" fill="#6D6D6D"/>
<path d="M9 12C8.58579 12 8.25 12.3358 8.25 12.75C8.25 13.1642 8.58579 13.5 9 13.5C9.41421 13.5 9.75 13.1642 9.75 12.75C9.75 12.3358 9.41421 12 9 12Z" fill="#6D6D6D"/>
<path d="M9 5.25C8.58579 5.25 8.25 5.58579 8.25 6V10.5C8.25 10.9142 8.58579 11.25 9 11.25C9.41421 11.25 9.75 10.9142 9.75 10.5V6C9.75 5.58579 9.41421 5.25 9 5.25Z" fill="#6D6D6D"/>
</svg>
