<svg width="18" height="18" viewBox="0 0 18 18" fill="none" xmlns="http://www.w3.org/2000/svg">
<path d="M15.1605 12.9669C15.1605 12.8019 15.138 12.6519 15.1155 12.4944L15.8788 11.8181C15.9322 11.7708 15.9449 11.6925 15.9092 11.6308L15.282 10.5457C15.2462 10.4839 15.1718 10.4558 15.1041 10.4787L14.133 10.8069C13.893 10.6044 13.623 10.4469 13.323 10.3344L13.1222 9.33724C13.1081 9.26722 13.0466 9.21685 12.9752 9.21685H11.7208C11.6494 9.21685 11.5879 9.26722 11.5738 9.33724L11.373 10.3344C11.073 10.4469 10.803 10.6044 10.563 10.8069L9.5919 10.4787C9.5242 10.4558 9.44977 10.4839 9.41401 10.5457L8.78682 11.6308C8.75113 11.6925 8.76384 11.7708 8.81721 11.8181L9.5805 12.4944C9.558 12.6519 9.5355 12.8019 9.5355 12.9669C9.5355 13.1319 9.558 13.2819 9.5805 13.4394L8.81721 14.1156C8.76384 14.1629 8.75113 14.2412 8.78682 14.3029L9.41401 15.388C9.44977 15.4498 9.5242 15.4779 9.5919 15.455L10.563 15.1269C10.803 15.3293 11.073 15.4869 11.373 15.5994L11.5738 16.5965C11.5879 16.6665 11.6494 16.7169 11.7208 16.7169H12.9752C13.0466 16.7169 13.1081 16.6665 13.1222 16.5965L13.323 15.5994C13.623 15.4869 13.893 15.3293 14.133 15.1269L15.1041 15.455C15.1718 15.4779 15.2462 15.4498 15.282 15.388L15.9092 14.3029C15.9449 14.2412 15.9322 14.1629 15.8788 14.1156L15.1155 13.4394C15.138 13.2819 15.1605 13.1319 15.1605 12.9669ZM12.348 14.4669C11.523 14.4669 10.848 13.7918 10.848 12.9669C10.848 12.1419 11.523 11.4669 12.348 11.4669C13.173 11.4669 13.848 12.1419 13.848 12.9669C13.848 13.7918 13.173 14.4669 12.348 14.4669Z" fill="#6D6D6D"/>
<path fill-rule="evenodd" clip-rule="evenodd" d="M3.375 4.08722V7.08722H6.375V4.08722H3.375ZM2.625 2.58722C2.21079 2.58722 1.875 2.92301 1.875 3.33722V7.83722C1.875 8.25143 2.21079 8.58722 2.625 8.58722H7.125C7.53921 8.58722 7.875 8.25143 7.875 7.83722V3.33722C7.875 2.92301 7.53921 2.58722 7.125 2.58722H2.625Z" fill="#6D6D6D"/>
<path fill-rule="evenodd" clip-rule="evenodd" d="M3.375 11.5872V14.5872H6.375V11.5872H3.375ZM2.625 10.0872C2.21079 10.0872 1.875 10.423 1.875 10.8372V15.3372C1.875 15.7514 2.21079 16.0872 2.625 16.0872H7.125C7.53921 16.0872 7.875 15.7514 7.875 15.3372V10.8372C7.875 10.423 7.53921 10.0872 7.125 10.0872H2.625Z" fill="#6D6D6D"/>
<path fill-rule="evenodd" clip-rule="evenodd" d="M10.2537 5.58722L12.375 7.70854L14.4963 5.58722L12.375 3.4659L10.2537 5.58722ZM8.66269 5.05689C8.3698 5.34978 8.3698 5.82466 8.66269 6.11755L11.1324 8.58722C11.1324 8.58722 11.8681 8.21222 12.375 8.21222C12.8819 8.21222 13.6176 8.58722 13.6176 8.58722L16.0873 6.11755C16.3802 5.82466 16.3802 5.34978 16.0873 5.05689L12.9053 1.87491C12.6124 1.58202 12.1376 1.58202 11.8447 1.87491L8.66269 5.05689Z" fill="#6D6D6D"/>
</svg>
