<svg width="18" height="18" viewBox="0 0 18 18" fill="none" xmlns="http://www.w3.org/2000/svg">
<path fill-rule="evenodd" clip-rule="evenodd" d="M15.8573 12.865C16.4923 12.23 16.5681 11.2475 16.0848 10.5296L16.5414 10.0729C16.6878 9.92649 16.6878 9.68906 16.5414 9.54261C16.3949 9.39616 16.1575 9.39616 16.011 9.54261L15.5489 10.0048C14.834 9.54519 13.8714 9.62813 13.2459 10.2536L12.5155 10.9841C12.3749 11.1247 12.3749 11.3526 12.5155 11.4931L14.6178 13.5954C14.7583 13.736 14.9862 13.736 15.1268 13.5954L15.8573 12.865Z" fill="#6D6D6D"/>
<path fill-rule="evenodd" clip-rule="evenodd" d="M10.2533 13.2455C9.61829 13.8805 9.54248 14.863 10.0259 15.5809L9.56923 16.0376C9.42279 16.184 9.42279 16.4215 9.56923 16.5679C9.71568 16.7143 9.95312 16.7143 10.0996 16.5679L10.5618 16.1057C11.2767 16.5652 12.2392 16.4823 12.8646 15.8568L13.5951 15.1263C13.7357 14.9858 13.7357 14.7579 13.5951 14.6173L13.3596 14.3817L13.6248 14.1166C13.7712 13.9701 13.7712 13.7327 13.6248 13.5862C13.4783 13.4398 13.2409 13.4398 13.0944 13.5862L12.8293 13.8514L12.2989 13.3211L12.5641 13.0559C12.7106 12.9094 12.7106 12.672 12.5641 12.5256C12.4177 12.3791 12.1802 12.3791 12.0338 12.5256L11.7686 12.7907L11.4928 12.515C11.3523 12.3744 11.1244 12.3744 10.9838 12.515L10.2533 13.2455Z" fill="#6D6D6D"/>
<path fill-rule="evenodd" clip-rule="evenodd" d="M12.8582 6.79671C12.8582 7.8498 12.3988 8.80055 11.6596 9.47473L11.4238 9.68975C11.5656 9.7602 11.5972 9.94857 11.4863 10.0615L10.7915 10.7684C10.6531 10.9092 10.4454 10.9529 10.2558 10.8975C9.85835 10.7814 9.4367 10.719 9.0001 10.719C6.62413 10.719 4.69075 12.5676 4.69075 14.8567C4.69075 14.8823 4.67001 14.9001 4.65011 14.9001H3.15582C3.1166 14.9001 3.1001 14.8731 3.1001 14.8567C3.1001 12.6723 4.39255 10.7747 6.28894 9.83256L6.57639 9.68975L6.34061 9.47473C5.60137 8.80055 5.14197 7.8498 5.14197 6.79671C5.14197 4.75906 6.86531 3.1001 9.0001 3.1001C11.1349 3.1001 12.8582 4.75906 12.8582 6.79671ZM11.2676 6.79671C11.2676 8.00412 10.2484 8.9758 9.0001 8.9758C7.75182 8.9758 6.73262 8.00412 6.73262 6.79671C6.73262 5.5893 7.75182 4.61761 9.0001 4.61761C10.2484 4.61761 11.2676 5.5893 11.2676 6.79671Z" fill="#6D6D6D"/>
</svg>
