<svg width="18" height="18" viewBox="0 0 18 18" fill="none" xmlns="http://www.w3.org/2000/svg">
<path d="M10.0646 6.49338C10.0646 6.60384 10.1542 6.69339 10.2646 6.69339H13.4274C13.7035 6.69339 13.9274 6.91724 13.9274 7.19339V7.28027C13.9274 7.55642 14.1512 7.78027 14.4274 7.78027H14.9274C15.2035 7.78027 15.4274 7.55642 15.4274 7.28027V7.19339C15.4274 6.08882 14.5319 5.19338 13.4274 5.19338H11.7656C11.6293 5.19338 11.5328 5.05975 11.5616 4.92653C11.6003 4.74739 11.6206 4.56142 11.6206 4.3707C11.6206 4.13648 11.5899 3.90944 11.5323 3.69338C11.2337 2.57431 10.2131 1.75 8.99993 1.75C7.78678 1.75 6.76615 2.57431 6.4676 3.69338C6.40996 3.90944 6.37924 4.13648 6.37924 4.3707C6.37924 4.56142 6.39961 4.74738 6.4383 4.92653C6.46707 5.05975 6.37055 5.19338 6.23426 5.19338H4.57251C3.46794 5.19338 2.57251 6.08882 2.57251 7.19339V8.83435C2.57251 9.01572 2.80834 9.11579 2.96185 9.01922C3.26416 8.82906 3.62198 8.71906 4.00549 8.71906C4.02792 8.71906 4.05026 8.71944 4.07251 8.72018C5.12547 8.75551 5.96822 9.62023 5.96822 10.6818C5.96822 11.7433 5.12547 12.6081 4.07251 12.6434C4.05026 12.6441 4.02792 12.6445 4.00549 12.6445C3.62198 12.6445 3.26416 12.5345 2.96185 12.3444C2.80834 12.2478 2.57251 12.3479 2.57251 12.5292V14.25C2.57251 15.3546 3.46794 16.25 4.57251 16.25H7.1604C7.43654 16.25 7.6604 16.0261 7.6604 15.75V15.25C7.6604 14.9739 7.43654 14.75 7.1604 14.75H4.57251C4.29637 14.75 4.07251 14.5261 4.07251 14.25C4.07251 14.1911 4.11993 14.1432 4.17879 14.1403C6.01069 14.05 7.46822 12.5361 7.46822 10.6818C7.46822 8.80062 5.96815 7.26982 4.09894 7.2203C4.08433 7.21991 4.07251 7.208 4.07251 7.19339C4.07251 6.91724 4.29637 6.69339 4.57251 6.69339H7.73526C7.84572 6.69339 7.93526 6.60384 7.93526 6.49339V4.75505C7.93526 4.73373 7.9317 4.71259 7.92561 4.69217C7.89573 4.59198 7.87924 4.4845 7.87924 4.3707C7.87924 3.75175 8.38099 3.25 8.99993 3.25C9.61888 3.25 10.1206 3.75175 10.1206 4.3707C10.1206 4.4845 10.1041 4.59198 10.0743 4.69217C10.0682 4.71259 10.0646 4.73373 10.0646 4.75505V6.49338Z" fill="#6D6D6D"/>
<path d="M13.4274 16.25H8.63035C8.60454 16.25 8.59369 16.2317 8.59369 16.2206C8.59369 14.7396 9.44392 13.4532 10.6915 12.8144L10.8806 12.7176L10.7254 12.5718C10.2391 12.1147 9.93692 11.4701 9.93692 10.7562C9.93692 9.37472 11.0706 8.25 12.475 8.25C13.8793 8.25 15.013 9.37472 15.013 10.7562C15.013 11.4701 14.7108 12.1147 14.2245 12.5718L14.0694 12.7176L14.2585 12.8144C14.7063 13.0437 15.1029 13.3564 15.4274 13.7316V14.25C15.4274 15.3546 14.5319 16.25 13.4274 16.25Z" fill="#6D6D6D"/>
</svg>
