<svg width="18" height="18" viewBox="0 0 18 18" fill="none" xmlns="http://www.w3.org/2000/svg">
<path fill-rule="evenodd" clip-rule="evenodd" d="M15.313 3.95666C16.2349 5.45138 16.0483 7.43624 14.753 8.73377L12.8751 10.6123C12.809 10.6743 12.7215 10.7086 12.6334 10.7086C12.548 10.7086 12.4583 10.6789 12.3872 10.6077L7.39231 5.6114C7.32787 5.54629 7.29103 5.45769 7.29103 5.3661C7.29103 5.27451 7.32717 5.1866 7.39162 5.1215L9.26562 3.24695C10.0235 2.48888 11.0163 2.11075 12.0084 2.11075C12.728 2.10963 13.4326 2.30959 14.0432 2.6865C14.2639 2.4713 14.6539 2.09861 14.9637 1.80337C15.3047 1.47838 15.8418 1.48462 16.1759 1.81583C16.5113 2.14836 16.5208 2.68801 16.1956 3.0314C15.8997 3.34383 15.5263 3.73688 15.313 3.95666ZM2.68656 14.0445C1.76487 12.5499 1.95148 10.5651 3.24668 9.26765L5.12281 7.38913C5.18846 7.32756 5.27515 7.29329 5.3626 7.29281C5.40829 7.2922 5.45365 7.30069 5.49604 7.3178C5.53898 7.33513 5.57798 7.36094 5.61071 7.39369L6.26128 8.04445C6.46219 7.84996 6.77999 7.54779 7.03551 7.3056C7.34638 7.01094 7.83449 7.01769 8.13786 7.3191C8.44206 7.62134 8.45107 8.11103 8.15642 8.42352C7.9139 8.68072 7.61131 9.00059 7.41779 9.20131L8.79823 10.5822C8.99764 10.3891 9.31215 10.0901 9.56637 9.84914C9.8796 9.55224 10.3717 9.56024 10.6759 9.8653C10.9804 10.1706 10.9869 10.663 10.6888 10.9755C10.4486 11.2272 10.1512 11.5379 9.95701 11.7376L10.6074 12.3882C10.7425 12.5233 10.7425 12.7437 10.6074 12.8788L8.7341 14.7526C7.97625 15.5107 6.98345 15.8888 5.99136 15.8888C5.285 15.8888 4.57798 15.6977 3.95642 15.3132C3.73629 15.5278 3.34813 15.8988 3.03885 16.1935C2.69632 16.52 2.1566 16.5126 1.82227 16.1787C1.48759 15.8444 1.47999 15.304 1.80685 14.9612C2.10165 14.652 2.4724 14.2643 2.68656 14.0445ZM7.56512 13.5871L8.51576 12.6362L5.36448 9.48403L4.41393 10.4349C3.99183 10.8571 3.76103 11.4149 3.76103 12.011C3.76035 12.3037 3.81767 12.5941 3.92967 12.8645C4.04168 13.1349 4.20614 13.3804 4.41356 13.5868C4.83566 14.009 5.39365 14.2402 5.98952 14.2402C6.2821 14.2409 6.57238 14.1836 6.84268 14.0715C7.11298 13.9595 7.35876 13.7946 7.56512 13.5871ZM13.5837 7.56684L12.6334 8.51738L13.5837 7.56684ZM12.6334 8.51738L9.48212 5.36518L10.4328 4.41427C10.8531 3.99381 11.4126 3.76121 12.0084 3.76121C12.6042 3.76121 13.1619 3.99205 13.584 4.41427C14.0043 4.83473 14.2368 5.39442 14.2368 5.99041C14.2368 6.58604 14.0043 7.14428 13.5837 7.56684" fill="#6D6D6D"/>
</svg>
