<svg width="18" height="18" viewBox="0 0 18 18" fill="none" xmlns="http://www.w3.org/2000/svg">
<path d="M2.4957 15.0043C2.82617 15.3348 3.22344 15.5 3.6875 15.5C4.15156 15.5 4.54883 15.3348 4.8793 15.0043C5.20977 14.6738 5.375 14.2766 5.375 13.8125C5.375 13.3484 5.20977 12.9512 4.8793 12.6207C4.54883 12.2902 4.15156 12.125 3.6875 12.125C3.22344 12.125 2.82617 12.2902 2.4957 12.6207C2.16523 12.9512 2 13.3484 2 13.8125C2 14.2766 2.16523 14.6738 2.4957 15.0043Z" fill="#6D6D6D"/>
<path d="M2.4957 9.9418C2.82617 10.2723 3.22344 10.4375 3.6875 10.4375C4.15156 10.4375 4.54883 10.2723 4.8793 9.9418C5.20977 9.61133 5.375 9.21406 5.375 8.75C5.375 8.28594 5.20977 7.88867 4.8793 7.5582C4.54883 7.22773 4.15156 7.0625 3.6875 7.0625C3.22344 7.0625 2.82617 7.22773 2.4957 7.5582C2.16523 7.88867 2 8.28594 2 8.75C2 9.21406 2.16523 9.61133 2.4957 9.9418Z" fill="#6D6D6D"/>
<path d="M2.4957 4.8793C2.82617 5.20977 3.22344 5.375 3.6875 5.375C4.15156 5.375 4.54883 5.20977 4.8793 4.8793C5.20977 4.54883 5.375 4.15156 5.375 3.6875C5.375 3.22344 5.20977 2.82617 4.8793 2.4957C4.54883 2.16523 4.15156 2 3.6875 2C3.22344 2 2.82617 2.16523 2.4957 2.4957C2.16523 2.82617 2 3.22344 2 3.6875C2 4.15156 2.16523 4.54883 2.4957 4.8793Z" fill="#6D6D6D"/>
<path d="M7.5582 4.8793C7.88867 5.20977 8.28594 5.375 8.75 5.375C9.21406 5.375 9.61133 5.20977 9.9418 4.8793C10.2723 4.54883 10.4375 4.15156 10.4375 3.6875C10.4375 3.22344 10.2723 2.82617 9.9418 2.4957C9.61133 2.16523 9.21406 2 8.75 2C8.28594 2 7.88867 2.16523 7.5582 2.4957C7.22773 2.82617 7.0625 3.22344 7.0625 3.6875C7.0625 4.15156 7.22773 4.54883 7.5582 4.8793Z" fill="#6D6D6D"/>
<path d="M12.6207 4.8793C12.9512 5.20977 13.3484 5.375 13.8125 5.375C14.2766 5.375 14.6738 5.20977 15.0043 4.8793C15.3348 4.54883 15.5 4.15156 15.5 3.6875C15.5 3.22344 15.3348 2.82617 15.0043 2.4957C14.6738 2.16523 14.2766 2 13.8125 2C13.3484 2 12.9512 2.16523 12.6207 2.4957C12.2902 2.82617 12.125 3.22344 12.125 3.6875C12.125 4.15156 12.2902 4.54883 12.6207 4.8793Z" fill="#6D6D6D"/>
<path d="M7.29375 8.70625C7.48958 8.90208 7.725 9 8 9C8.275 9 8.51042 8.90208 8.70625 8.70625C8.90208 8.51042 9 8.275 9 8C9 7.725 8.90208 7.48958 8.70625 7.29375C8.51042 7.09792 8.275 7 8 7C7.725 7 7.48958 7.09792 7.29375 7.29375C7.09792 7.48958 7 7.725 7 8C7 8.275 7.09792 8.51042 7.29375 8.70625Z" fill="#6D6D6D"/>
<path d="M15.221 12.2501C15.221 12.0851 15.1985 11.9351 15.176 11.7776L15.9392 11.1013C15.9926 11.0541 16.0053 10.9757 15.9696 10.914L15.3424 9.82896C15.3067 9.7671 15.2322 9.73905 15.1646 9.76192L14.1934 10.0901C13.9534 9.88759 13.6834 9.73009 13.3834 9.61759L13.1827 8.62049C13.1686 8.55046 13.1071 8.50009 13.0356 8.50009H11.7813C11.7098 8.50009 11.6483 8.55046 11.6342 8.62049L11.4334 9.61759C11.1334 9.73009 10.8634 9.88759 10.6234 10.0901L9.65235 9.76192C9.58465 9.73905 9.51022 9.7671 9.47446 9.82896L8.84727 10.914C8.81159 10.9757 8.82429 11.0541 8.87766 11.1013L9.64095 11.7776C9.61845 11.9351 9.59595 12.0851 9.59595 12.2501C9.59595 12.4151 9.61845 12.5651 9.64095 12.7226L8.87766 13.3988C8.82429 13.4461 8.81159 13.5244 8.84727 13.5862L9.47446 14.6712C9.51022 14.7331 9.58465 14.7611 9.65235 14.7382L10.6234 14.4101C10.8634 14.6126 11.1334 14.7701 11.4334 14.8826L11.6342 15.8797C11.6483 15.9497 11.7098 16.0001 11.7813 16.0001H13.0356C13.1071 16.0001 13.1686 15.9497 13.1827 15.8797L13.3834 14.8826C13.6834 14.7701 13.9534 14.6126 14.1934 14.4101L15.1646 14.7382C15.2322 14.7611 15.3067 14.7331 15.3424 14.6712L15.9696 13.5862C16.0053 13.5244 15.9926 13.4461 15.9392 13.3988L15.176 12.7226C15.1985 12.5651 15.221 12.4151 15.221 12.2501ZM12.4084 13.7501C11.5834 13.7501 10.9084 13.0751 10.9084 12.2501C10.9084 11.4251 11.5834 10.7501 12.4084 10.7501C13.2334 10.7501 13.9084 11.4251 13.9084 12.2501C13.9084 13.0751 13.2334 13.7501 12.4084 13.7501Z" fill="#6D6D6D"/>
</svg>
