<svg width="18" height="18" viewBox="0 0 18 18" fill="none" xmlns="http://www.w3.org/2000/svg">
<path d="M9.74997 9.75021C9.32997 10.1702 8.66247 10.1702 8.24997 9.75771V9.75021C7.83747 9.33771 7.83747 8.67021 8.24997 8.25771V8.25021C8.66247 7.83771 9.32997 7.83771 9.74247 8.25021H9.74997C10.1625 8.66271 10.1625 9.33771 9.74997 9.75021Z" fill="#6D6D6D"/>
<path d="M8.99997 4.50021L10.2364 5.73666C10.4317 5.93192 10.7483 5.93192 10.9435 5.73666L12.1114 4.56877C12.3067 4.37351 12.3067 4.05692 12.1114 3.86166L10.065 1.81521C9.47997 1.23021 8.52747 1.23021 7.94247 1.81521L5.89602 3.86166C5.70076 4.05692 5.70076 4.37351 5.89602 4.56877L7.06308 5.73582C7.25867 5.93141 7.5759 5.93104 7.77102 5.73499L8.99997 4.50021Z" fill="#6D6D6D"/>
<path d="M4.49997 9.00021L5.73642 7.76377C5.93168 7.56851 5.93168 7.25192 5.73642 7.05666L4.56852 5.88877C4.37326 5.69351 4.05668 5.69351 3.86142 5.88877L1.81497 7.93521C1.22997 8.52021 1.22997 9.47271 1.81497 10.0577L3.86142 12.1042C4.05668 12.2994 4.37326 12.2994 4.56852 12.1042L5.73558 10.9371C5.93117 10.7415 5.93079 10.4243 5.73474 10.2292L4.49997 9.00021Z" fill="#6D6D6D"/>
<path d="M8.99997 13.5002L9.87278 12.6233C10.1289 13.5208 10.7784 14.2524 11.6229 14.6198L10.0575 16.1852C9.47247 16.7702 8.51997 16.7702 7.93497 16.1852L5.88852 14.1388C5.69326 13.9435 5.69326 13.6269 5.88852 13.4317L7.05642 12.2638C7.25168 12.0685 7.56826 12.0685 7.76352 12.2638L8.99997 13.5002Z" fill="#6D6D6D"/>
<path d="M16.185 10.0652L15.7148 10.5354C15.277 9.52392 14.3171 8.79107 13.1749 8.67668L12.2652 7.77127C12.0691 7.57614 12.0688 7.25891 12.2644 7.06332L13.4314 5.89627C13.6267 5.70101 13.9433 5.70101 14.1385 5.89627L16.185 7.94271C16.77 8.52771 16.77 9.48021 16.185 10.0652Z" fill="#6D6D6D"/>
<path fill-rule="evenodd" clip-rule="evenodd" d="M12.1689 13.5132C11.4764 13.237 10.9865 12.5568 10.9865 11.7613C10.9865 10.7201 11.827 9.87402 12.8615 9.87402C13.8959 9.87402 14.7365 10.7201 14.7365 11.7613C14.7365 12.5568 14.2465 13.237 13.554 13.5132V14.6347H14.6351C14.6911 14.6347 14.7365 14.6804 14.7365 14.7367V15.9269C14.7365 15.9833 14.6911 16.0289 14.6351 16.0289H13.554V16.522C13.554 16.5784 13.5087 16.624 13.4527 16.624H12.2703C12.2143 16.624 12.1689 16.5784 12.1689 16.522V13.5132ZM12.8615 11.2682C13.1307 11.2682 13.3513 11.4903 13.3513 11.7613C13.3513 12.0323 13.1307 12.2544 12.8615 12.2544C12.5923 12.2544 12.3716 12.0323 12.3716 11.7613C12.3716 11.4903 12.5923 11.2682 12.8615 11.2682Z" fill="#6D6D6D"/>
</svg>
