<svg width="18" height="18" viewBox="0 0 18 18" fill="none" xmlns="http://www.w3.org/2000/svg">
<path fill-rule="evenodd" clip-rule="evenodd" d="M9.00111 7.12502C7.93925 7.12502 7.07561 7.96215 7.07561 9.00002C7.07561 10.0379 7.93925 10.875 9.00111 10.875C10.063 10.875 10.9266 10.0379 10.9266 9.00002C10.9266 7.96215 10.063 7.12502 9.00111 7.12502ZM8.15086 9.00002C8.15086 8.54838 8.53167 8.17502 9.00111 8.17502C9.47054 8.17502 9.85135 8.54838 9.85135 9.00002C9.85135 9.45165 9.47054 9.82502 9.00111 9.82502C8.53167 9.82502 8.15086 9.45165 8.15086 9.00002Z" fill="#6D6D6D"/>
<path fill-rule="evenodd" clip-rule="evenodd" d="M8.07586 4.42502C7.92631 4.42502 7.79435 4.53024 7.77488 4.67872L7.60542 5.82819C7.34482 5.93635 7.10441 6.07767 6.88075 6.23778L5.76694 5.80254L5.76274 5.80118C5.7279 5.78988 5.69234 5.78402 5.65633 5.78402C5.55335 5.78402 5.44893 5.83673 5.39272 5.93356L4.46786 7.48992C4.38704 7.62333 4.4258 7.78677 4.54227 7.87621L5.48404 8.59257C5.46804 8.72493 5.45643 8.86208 5.45643 9.00002C5.45643 9.13796 5.46804 9.2751 5.48404 9.40746L4.54199 10.124C4.42322 10.2152 4.3938 10.3782 4.46672 10.5082L5.39272 12.0665C5.4493 12.164 5.55418 12.216 5.66096 12.216C5.69611 12.216 5.73347 12.2104 5.7669 12.1974L6.88025 11.7625C7.10472 11.9266 7.3453 12.0643 7.60543 12.1719L7.77488 13.3213C7.79435 13.4698 7.92631 13.575 8.07586 13.575H9.92635C10.0759 13.575 10.2079 13.4698 10.2273 13.3213L10.3968 12.1718C10.6574 12.0637 10.8978 11.9224 11.1215 11.7623L12.2353 12.1975L12.2395 12.1989C12.2743 12.2102 12.3099 12.216 12.3459 12.216C12.4489 12.216 12.5535 12.1629 12.6097 12.0661L13.5345 10.5098L13.5355 10.5082C13.6084 10.3782 13.5787 10.215 13.4599 10.1238L12.5182 9.40747C12.5342 9.27588 12.5458 9.14201 12.5458 9.00002C12.5458 8.85803 12.5342 8.72415 12.5182 8.59256L13.4602 7.876C13.579 7.78479 13.6084 7.62186 13.5355 7.49182L12.6095 5.93359C12.5529 5.83607 12.448 5.78402 12.3413 5.78402C12.3061 5.78402 12.2687 5.78966 12.2353 5.80266L11.122 6.23759C10.8975 6.07347 10.6569 5.93577 10.3968 5.82817L10.2273 4.67872C10.2079 4.53024 10.0759 4.42502 9.92635 4.42502H8.07586ZM8.65896 6.01832L8.74171 5.47502H9.25541L9.40801 6.52679C9.41187 6.5534 9.42969 6.57591 9.45471 6.58578L9.94471 6.77914C10.1375 6.85766 10.3173 6.95825 10.4974 7.08961L10.9177 7.40407C10.9385 7.41966 10.966 7.42333 10.9902 7.41378L11.4805 7.22028L12.0086 7.01402L12.266 7.44678L11.8235 7.78867L11.4121 8.10345C11.3908 8.11969 11.3799 8.14599 11.3832 8.17249L11.4481 8.68138C11.4661 8.81757 11.4705 8.90877 11.4705 9.00002C11.4705 9.0899 11.4618 9.18497 11.4479 9.31996L11.3832 9.82754C11.3799 9.85405 11.3908 9.88035 11.4121 9.89659L11.8241 10.2118L12.2703 10.5493L12.0132 10.9815L11.4849 10.7752L11.0039 10.5862C10.98 10.5768 10.9528 10.5803 10.9321 10.5956L10.516 10.9014C10.3211 11.0424 10.1366 11.1472 9.95382 11.221L9.46396 11.4143C9.43895 11.4241 9.42114 11.4466 9.41727 11.4732L9.34325 11.9817L9.2605 12.525H8.74217L8.58957 11.4732C8.58571 11.4466 8.5679 11.4241 8.54288 11.4143L8.05284 11.2209C7.86009 11.1424 7.68025 11.0418 7.50014 10.9104L7.07989 10.596C7.05905 10.5804 7.03163 10.5767 7.00743 10.5863L6.51704 10.7798L5.98899 10.986L5.73196 10.5538L6.17841 10.2161L6.59014 9.90108C6.61137 9.88485 6.62235 9.85855 6.61897 9.83204L6.55433 9.32457C6.54046 9.18503 6.53167 9.08548 6.53167 9.00002C6.53167 8.91459 6.54046 8.81498 6.55432 8.68009L6.61897 8.17249C6.62235 8.14599 6.61137 8.11969 6.59014 8.10345L6.17809 7.78821L5.73196 7.45069L5.98899 7.01852L6.99828 7.41383C7.02225 7.42324 7.04937 7.4197 7.07012 7.40445L7.48626 7.09861C7.6811 6.9576 7.86558 6.85284 8.0484 6.77907L8.53825 6.58578C8.56326 6.57592 8.58107 6.55342 8.58494 6.52682L8.65896 6.01832Z" fill="#6D6D6D"/>
<path fill-rule="evenodd" clip-rule="evenodd" d="M1.5 2.25C1.5 1.83579 1.83579 1.5 2.25 1.5H15.75C16.1642 1.5 16.5 1.83579 16.5 2.25V15.75C16.5 16.1642 16.1642 16.5 15.75 16.5H2.25C1.83579 16.5 1.5 16.1642 1.5 15.75V2.25ZM3 3.15C3 3.06716 3.06716 3 3.15 3H14.85C14.9328 3 15 3.06716 15 3.15V14.85C15 14.9328 14.9328 15 14.85 15H3.15C3.06716 15 3 14.9328 3 14.85V3.15Z" fill="#6D6D6D"/>
</svg>
