<svg width="18" height="18" viewBox="0 0 18 18" fill="none" xmlns="http://www.w3.org/2000/svg">
<path fill-rule="evenodd" clip-rule="evenodd" d="M15.5021 13.8371V15.3416C15.5021 15.3865 15.4437 15.3987 15.4213 15.3599C14.9222 14.4976 13.9636 13.9154 12.8657 13.9154C11.2548 13.9154 9.94407 15.1686 9.94407 16.7206C9.94407 16.7379 9.93001 16.75 9.91651 16.75H8.90344C8.87684 16.75 8.86566 16.7317 8.86566 16.7206C8.86566 15.2396 9.7419 13.9532 11.0276 13.3144L11.2225 13.2176L11.0626 13.0718C10.5614 12.6147 10.25 11.9701 10.25 11.2562C10.25 9.87472 11.4183 8.75 12.8657 8.75C14.313 8.75 15.4813 9.87472 15.4813 11.2562C15.4813 11.9701 15.1699 12.6147 14.6687 13.0718L14.5088 13.2176L14.7037 13.3144C14.9922 13.4577 15.2601 13.6337 15.5021 13.8371ZM12.8657 12.7335C13.7119 12.7335 14.4029 12.0748 14.4029 11.2562C14.4029 10.4376 13.7119 9.77882 12.8657 9.77882C12.0194 9.77882 11.3284 10.4376 11.3284 11.2562C11.3284 12.0748 12.0194 12.7335 12.8657 12.7335Z" fill="#6D6D6D"/>
<path d="M4.64722 16.75C3.54265 16.75 2.64722 15.8546 2.64722 14.75V13.0292C2.64722 12.8479 2.88304 12.7478 3.03656 12.8444C3.33887 13.0345 3.69669 13.1445 4.0802 13.1445C4.10263 13.1445 4.12497 13.1441 4.14722 13.1434C5.20017 13.1081 6.04293 12.2433 6.04293 11.1818C6.04293 10.1202 5.20017 9.25551 4.14722 9.22018C4.12497 9.21944 4.10263 9.21906 4.0802 9.21906C3.69669 9.21906 3.33887 9.32906 3.03656 9.51922C2.88304 9.61579 2.64722 9.51572 2.64722 9.33435V7.69339C2.64722 6.58882 3.54265 5.69338 4.64722 5.69338H6.30897C6.44526 5.69338 6.54177 5.55975 6.51301 5.42653C6.47432 5.24738 6.45394 5.06142 6.45394 4.8707C6.45394 4.63648 6.48467 4.40944 6.54231 4.19338C6.84086 3.07431 7.86149 2.25 9.07464 2.25C10.2878 2.25 11.3084 3.07431 11.607 4.19338C11.6646 4.40944 11.6953 4.63648 11.6953 4.8707C11.6953 5.06142 11.675 5.24739 11.6363 5.42653C11.6075 5.55975 11.704 5.69338 11.8403 5.69338H13.5021C14.6066 5.69338 15.5021 6.58882 15.5021 7.69339V7.78027C15.5021 7.79276 15.5016 7.80513 15.5007 7.81738H15.5021V8.68953C14.619 8.06132 13.5391 7.69189 12.3729 7.69189C9.38829 7.69189 6.96881 10.1114 6.96881 13.0959C6.96881 14.5049 7.50805 15.788 8.3914 16.75H4.64722Z" fill="#6D6D6D"/>
</svg>
