<svg width="18" height="18" viewBox="0 0 18 18" fill="none" xmlns="http://www.w3.org/2000/svg">
<path d="M1.4957 14.0043C1.82617 14.3348 2.22344 14.5 2.6875 14.5C3.15156 14.5 3.54883 14.3348 3.8793 14.0043C4.20977 13.6738 4.375 13.2766 4.375 12.8125C4.375 12.3484 4.20977 11.9512 3.8793 11.6207C3.54883 11.2902 3.15156 11.125 2.6875 11.125C2.22344 11.125 1.82617 11.2902 1.4957 11.6207C1.16523 11.9512 1 12.3484 1 12.8125C1 13.2766 1.16523 13.6738 1.4957 14.0043Z" fill="#6D6D6D"/>
<path d="M1.4957 8.9418C1.82617 9.27227 2.22344 9.4375 2.6875 9.4375C3.15156 9.4375 3.54883 9.27227 3.8793 8.9418C4.20977 8.61133 4.375 8.21406 4.375 7.75C4.375 7.28594 4.20977 6.88867 3.8793 6.5582C3.54883 6.22773 3.15156 6.0625 2.6875 6.0625C2.22344 6.0625 1.82617 6.22773 1.4957 6.5582C1.16523 6.88867 1 7.28594 1 7.75C1 8.21406 1.16523 8.61133 1.4957 8.9418Z" fill="#6D6D6D"/>
<path d="M1.4957 3.8793C1.82617 4.20977 2.22344 4.375 2.6875 4.375C3.15156 4.375 3.54883 4.20977 3.8793 3.8793C4.20977 3.54883 4.375 3.15156 4.375 2.6875C4.375 2.22344 4.20977 1.82617 3.8793 1.4957C3.54883 1.16523 3.15156 1 2.6875 1C2.22344 1 1.82617 1.16523 1.4957 1.4957C1.16523 1.82617 1 2.22344 1 2.6875C1 3.15156 1.16523 3.54883 1.4957 3.8793Z" fill="#6D6D6D"/>
<path d="M6.5582 3.8793C6.88867 4.20977 7.28594 4.375 7.75 4.375C8.21406 4.375 8.61133 4.20977 8.9418 3.8793C9.27227 3.54883 9.4375 3.15156 9.4375 2.6875C9.4375 2.22344 9.27227 1.82617 8.9418 1.4957C8.61133 1.16523 8.21406 1 7.75 1C7.28594 1 6.88867 1.16523 6.5582 1.4957C6.22773 1.82617 6.0625 2.22344 6.0625 2.6875C6.0625 3.15156 6.22773 3.54883 6.5582 3.8793Z" fill="#6D6D6D"/>
<path d="M11.6207 3.8793C11.9512 4.20977 12.3484 4.375 12.8125 4.375C13.2766 4.375 13.6738 4.20977 14.0043 3.8793C14.3348 3.54883 14.5 3.15156 14.5 2.6875C14.5 2.22344 14.3348 1.82617 14.0043 1.4957C13.6738 1.16523 13.2766 1 12.8125 1C12.3484 1 11.9512 1.16523 11.6207 1.4957C11.2902 1.82617 11.125 2.22344 11.125 2.6875C11.125 3.15156 11.2902 3.54883 11.6207 3.8793Z" fill="#6D6D6D"/>
<path fill-rule="evenodd" clip-rule="evenodd" d="M17.0582 10.5C17.0582 9.6675 16.3907 9 15.5582 9H14.0582V8.25C14.0582 7.4175 13.3907 6.75 12.5582 6.75H11.0582C10.2257 6.75 9.5582 7.4175 9.5582 8.25V9H8.0582C7.2257 9 6.5657 9.6675 6.5657 10.5L6.5582 15.25C6.5582 16.0825 7.2257 16.75 8.0582 16.75H15.5582C16.3907 16.75 17.0582 16.0825 17.0582 15.25V10.5ZM12.5582 8.25V9H11.0582V8.25H12.5582ZM8.0582 11.25V10.5H15.5582V11.25H8.0582ZM15.5582 12.75H8.0582V15.25H15.5582V12.75Z" fill="#6D6D6D"/>
<path d="M8 7C8 7.55228 7.55228 8 7 8C6.44772 8 6 7.55228 6 7C6 6.44772 6.44772 6 7 6C7.55228 6 8 6.44772 8 7Z" fill="#6D6D6D"/>
</svg>
