<svg width="18" height="18" viewBox="0 0 18 18" fill="none" xmlns="http://www.w3.org/2000/svg">
<path d="M5.25 12.75H9C9.2125 12.75 9.39062 12.6781 9.53437 12.5344C9.67812 12.3906 9.75 12.2125 9.75 12C9.75 11.7875 9.67812 11.6094 9.53437 11.4656C9.39062 11.3219 9.2125 11.25 9 11.25H5.25C5.0375 11.25 4.85937 11.3219 4.71562 11.4656C4.57187 11.6094 4.5 11.7875 4.5 12C4.5 12.2125 4.57187 12.3906 4.71562 12.5344C4.85937 12.6781 5.0375 12.75 5.25 12.75ZM5.25 9.75H9C9.2125 9.75 9.39062 9.67812 9.53437 9.53437C9.67812 9.39062 9.75 9.2125 9.75 9C9.75 8.7875 9.67812 8.60938 9.53437 8.46562C9.39062 8.32187 9.2125 8.25 9 8.25H5.25C5.0375 8.25 4.85937 8.32187 4.71562 8.46562C4.57187 8.60938 4.5 8.7875 4.5 9C4.5 9.2125 4.57187 9.39062 4.71562 9.53437C4.85937 9.67812 5.0375 9.75 5.25 9.75ZM5.25 6.75L12.25 6.75C12.4625 6.75 12.6406 6.67813 12.7844 6.53438C12.9281 6.39062 13 6.2125 13 6C13 5.7875 12.9281 5.60938 12.7844 5.46563C12.6406 5.32188 12.4625 5.25 12.25 5.25L5.25 5.25C5.0375 5.25 4.85937 5.32187 4.71562 5.46562C4.57187 5.60937 4.5 5.7875 4.5 6C4.5 6.2125 4.57187 6.39062 4.71562 6.53437C4.85937 6.67812 5.0375 6.75 5.25 6.75ZM3 15.75C2.5875 15.75 2.23438 15.6031 1.94062 15.3094C1.64687 15.0156 1.5 14.6625 1.5 14.25V3.75C1.5 3.3375 1.64687 2.98438 1.94062 2.69062C2.23438 2.39687 2.5875 2.25 3 2.25H15C15.4125 2.25 15.7656 2.39687 16.0594 2.69062C16.3531 2.98438 16.5 3.3375 16.5 3.75V14.25C16.5 14.6625 16.3531 15.0156 16.0594 15.3094C15.7656 15.6031 15.4125 15.75 15 15.75H3ZM3 14.25H15V3.75H3V14.25Z" fill="#6D6D6D"/>
<path d="M12.5108 9.7998C12.0858 9.7998 11.7295 9.94355 11.442 10.2311C11.1545 10.5186 11.0108 10.8748 11.0108 11.2998C11.0108 11.7248 11.1545 12.0811 11.442 12.3686C11.7295 12.6561 12.0858 12.7998 12.5108 12.7998C12.9358 12.7998 13.292 12.6561 13.5795 12.3686C13.867 12.0811 14.0108 11.7248 14.0108 11.2998C14.0108 10.8748 13.867 10.5186 13.5795 10.2311C13.292 9.94355 12.9358 9.7998 12.5108 9.7998Z" fill="#6D6D6D"/>
</svg>
