<svg width="18" height="18" viewBox="0 0 18 18" fill="none" xmlns="http://www.w3.org/2000/svg">
<path d="M13.9 8.1525C13.4467 5.78062 11.4267 4 9 4C7.07333 4 5.4 5.1275 4.56667 6.7775C2.56 6.9975 1 8.75063 1 10.875C1 13.1506 2.79333 15 5 15H13.6667C15.5067 15 17 13.46 17 11.5625C17 9.7475 15.6333 8.27625 13.9 8.1525ZM13.6667 13.625H5C3.52667 13.625 2.33333 12.3944 2.33333 10.875C2.33333 9.46562 3.35333 8.29 4.70667 8.14562L5.42 8.07L5.75333 7.41688C6.38667 6.15875 7.62667 5.375 9 5.375C10.7467 5.375 12.2533 6.65375 12.5933 8.42063L12.7933 9.45188L13.8133 9.5275C14.8533 9.59625 15.6667 10.4969 15.6667 11.5625C15.6667 12.6969 14.7667 13.625 13.6667 13.625ZM6.33333 10.1875H8.03333V12.25H9.96667V10.1875H11.6667L9 7.4375L6.33333 10.1875Z" fill="#6D6D6D"/>
</svg>
