<svg width="18" height="18" viewBox="0 0 18 18" fill="none" xmlns="http://www.w3.org/2000/svg">
<path d="M4.33333 5.25C3.96667 5.25 3.66667 5.53125 3.66667 5.875V12.125H8.83333V14H2C1.44667 14 1 13.5813 1 13.0625C1 12.5437 1.44667 12.125 2 12.125H2.33333V5.25C2.33333 4.5625 2.93333 4 3.66667 4H15C15.3667 4 15.6667 4.28125 15.6667 4.625C15.6667 4.96875 15.3667 5.25 15 5.25H4.33333Z" fill="#6D6D6D"/>
<path fill-rule="evenodd" clip-rule="evenodd" d="M16.1321 9.92675C16.1536 10.0771 16.1743 10.2215 16.1743 10.3796C16.1743 10.5377 16.1536 10.6821 16.1321 10.8325L16.1293 10.8521L16.8926 11.5284C16.9459 11.5756 16.9586 11.654 16.923 11.7157L16.2958 12.8007C16.26 12.8626 16.1856 12.8907 16.1179 12.8678L15.1468 12.5396C14.9068 12.7421 14.6368 12.8996 14.3368 13.0121L14.136 14.0092C14.1219 14.0792 14.0604 14.1296 13.989 14.1296H12.7346C12.6632 14.1296 12.6016 14.0792 12.5875 14.0092L12.3868 13.0121C12.0868 12.8996 11.8168 12.7421 11.5768 12.5396L10.6057 12.8678C10.538 12.8907 10.4635 12.8626 10.4278 12.8007L9.8006 11.7157C9.76491 11.654 9.77762 11.5756 9.83099 11.5284L10.5943 10.8521C10.5933 10.8455 10.5924 10.839 10.5915 10.8324C10.5699 10.6821 10.5493 10.5377 10.5493 10.3796C10.5493 10.2215 10.5699 10.0772 10.5915 9.92678C10.5924 9.92024 10.5933 9.91368 10.5943 9.90711L9.83099 9.23087C9.77762 9.18358 9.76491 9.10526 9.8006 9.04353L10.4278 7.95848C10.4635 7.89662 10.538 7.86857 10.6057 7.89145L11.5768 8.21961C11.8168 8.01711 12.0868 7.85961 12.3868 7.74711L12.5875 6.75C12.6016 6.67998 12.6632 6.62961 12.7346 6.62961H13.989C14.0604 6.62961 14.1219 6.67998 14.136 6.75L14.3368 7.74711C14.6368 7.85961 14.9068 8.01711 15.1468 8.21961L16.1179 7.89145C16.1856 7.86857 16.26 7.89662 16.2958 7.95848L16.923 9.04353C16.9586 9.10526 16.9459 9.18358 16.8926 9.23087L16.1293 9.90711L16.1321 9.92675ZM11.8618 10.3796C11.8618 11.2046 12.5368 11.8796 13.3618 11.8796C14.1868 11.8796 14.8618 11.2046 14.8618 10.3796C14.8618 9.55461 14.1868 8.87961 13.3618 8.87961C12.5368 8.87961 11.8618 9.55461 11.8618 10.3796Z" fill="#6D6D6D"/>
</svg>
