<svg width="18" height="18" viewBox="0 0 18 18" fill="none" xmlns="http://www.w3.org/2000/svg">
<path d="M7.19261 9.75C7.60511 9.75 7.94261 10.0875 7.94261 10.5C7.94261 10.9125 7.60511 11.25 7.19261 11.25C6.78011 11.25 6.44261 10.9125 6.44261 10.5C6.44261 10.0875 6.78011 9.75 7.19261 9.75ZM7.19261 8.25C5.94761 8.25 4.94261 9.255 4.94261 10.5C4.94261 11.745 5.94761 12.75 7.19261 12.75C8.43761 12.75 9.44261 11.745 9.44261 10.5C9.44261 9.255 8.43761 8.25 7.19261 8.25ZM13.5676 6.75L14.3851 4.9425L16.1926 4.125L14.3851 3.3075L13.5676 1.5L12.7501 3.3075L10.9426 4.125L12.7501 4.9425L13.5676 6.75ZM15.6526 9.54L15.0676 8.25L14.4826 9.54L13.1926 10.125L14.4826 10.71L15.0676 12L15.6526 10.71L16.9426 10.125L15.6526 9.54ZM11.8801 10.5C11.8801 10.41 11.8801 10.3125 11.8726 10.2225L12.976 9.38645C13.1769 9.23421 13.2331 8.95623 13.107 8.73793L11.6729 6.25401C11.547 6.03595 11.2786 5.94553 11.0464 6.04296L9.77261 6.5775C9.62261 6.48 9.45761 6.3825 9.29261 6.3L9.12236 4.93798C9.09108 4.68777 8.87838 4.5 8.62622 4.5H5.75923C5.50697 4.5 5.29422 4.68791 5.26306 4.93824L5.09261 6.3075C4.92761 6.39 4.77011 6.4875 4.61261 6.585L3.33973 6.04516C3.10726 5.94657 2.83776 6.03679 2.7115 6.25547L1.27821 8.73793C1.15217 8.95623 1.20834 9.23421 1.40925 9.38645L2.51261 10.2225C2.50511 10.3125 2.50511 10.41 2.50511 10.5C2.50511 10.59 2.50511 10.6875 2.51261 10.7775L1.40925 11.6136C1.20834 11.7658 1.15217 12.0438 1.27821 12.2621L2.71234 14.746C2.83824 14.964 3.10665 15.0545 3.33883 14.957L4.61261 14.4225C4.76261 14.52 4.92761 14.6175 5.09261 14.7L5.26287 16.062C5.29414 16.3122 5.50684 16.5 5.759 16.5H8.626C8.87825 16.5 9.09101 16.3121 9.12217 16.0618L9.29261 14.6925C9.45761 14.61 9.61511 14.52 9.77261 14.415L11.0464 14.9495C11.2786 15.047 11.547 14.9565 11.6729 14.7385L13.107 12.2546C13.2331 12.0363 13.1769 11.7583 12.976 11.6061L11.8726 10.77C11.8801 10.6875 11.8801 10.59 11.8801 10.5ZM10.8151 13.23L9.51761 12.6825C9.09761 13.1325 8.54261 13.4625 7.92011 13.605L7.74011 15H6.64511L6.47261 13.605C5.85011 13.4625 5.29511 13.1325 4.87511 12.6825L3.57761 13.23L3.03011 12.2775L4.14761 11.43C4.05761 11.1375 4.01261 10.83 4.01261 10.5075C4.01261 10.185 4.05761 9.8775 4.14761 9.585L3.03011 8.7375L3.57761 7.785L4.87511 8.3325C5.29511 7.8825 5.85011 7.5525 6.47261 7.41L6.64511 6H7.74761L7.92011 7.395C8.54261 7.5375 9.09761 7.8675 9.51761 8.3175L10.8151 7.77L11.3626 8.7225L10.2451 9.57C10.3351 9.8625 10.3801 10.17 10.3801 10.4925C10.3801 10.815 10.3351 11.1225 10.2451 11.415L11.3626 12.2625L10.8151 13.23Z" fill="#6D6D6D"/>
</svg>
