<svg width="18" height="18" viewBox="0 0 18 18" fill="none" xmlns="http://www.w3.org/2000/svg">
<path d="M4.6875 6C4.37684 6 4.125 6.25184 4.125 6.5625V11.4375C4.125 11.7482 4.37684 12 4.6875 12C4.99816 12 5.25 11.7482 5.25 11.4375V6.5625C5.25 6.25184 4.99816 6 4.6875 6Z" fill="#6D6D6D"/>
<path d="M6.375 6.5625C6.375 6.25184 6.62684 6 6.9375 6C7.24816 6 7.5 6.25184 7.5 6.5625V11.4375C7.5 11.7482 7.24816 12 6.9375 12C6.62684 12 6.375 11.7482 6.375 11.4375V6.5625Z" fill="#6D6D6D"/>
<path d="M9.02051 6C8.70985 6 8.45801 6.25184 8.45801 6.5625V11.4375C8.45801 11.7482 8.70985 12 9.02051 12C9.33117 12 9.58301 11.7482 9.58301 11.4375V6.5625C9.58301 6.25184 9.33117 6 9.02051 6Z" fill="#6D6D6D"/>
<path d="M10.5 6.5625C10.5 6.25184 10.7518 6 11.0625 6C11.3732 6 11.625 6.25184 11.625 6.5625V11.4375C11.625 11.7482 11.3732 12 11.0625 12C10.7518 12 10.5 11.7482 10.5 11.4375V6.5625Z" fill="#6D6D6D"/>
<path d="M13.3125 6C13.0018 6 12.75 6.25184 12.75 6.5625V11.4375C12.75 11.7482 13.0018 12 13.3125 12C13.6232 12 13.875 11.7482 13.875 11.4375V6.5625C13.875 6.25184 13.6232 6 13.3125 6Z" fill="#6D6D6D"/>
<path fill-rule="evenodd" clip-rule="evenodd" d="M1.5 5.25C1.5 4.42157 2.17157 3.75 3 3.75H15C15.8284 3.75 16.5 4.42157 16.5 5.25V12.75C16.5 13.5784 15.8284 14.25 15 14.25H3C2.17157 14.25 1.5 13.5784 1.5 12.75V5.25ZM3 5.25H15V12.75H3V5.25Z" fill="#6D6D6D"/>
</svg>
