<svg width="18" height="18" viewBox="0 0 18 18" fill="none" xmlns="http://www.w3.org/2000/svg">
<path fill-rule="evenodd" clip-rule="evenodd" d="M9 1.5C12.3137 1.5 15 2.50736 15 3.75V14.25C15 15.4926 12.3137 16.5 9 16.5C5.68629 16.5 3 15.4926 3 14.25V3.75C3 2.50736 5.68629 1.5 9 1.5ZM12.7686 3.42305C13.0725 3.53702 13.2957 3.65095 13.4509 3.75C13.2957 3.84905 13.0725 3.96298 12.7686 4.07695C11.8699 4.41396 10.5378 4.65 9 4.65C7.46217 4.65 6.13007 4.41396 5.23138 4.07695C4.92747 3.96298 4.7043 3.84905 4.54912 3.75C4.7043 3.65095 4.92747 3.53702 5.23138 3.42305C6.13007 3.08604 7.46217 2.85 9 2.85C10.5378 2.85 11.8699 3.08604 12.7686 3.42305ZM4.5 5.23828V14.25C4.65518 14.3491 4.92747 14.463 5.23138 14.5769C6.13007 14.914 7.46217 15.15 9 15.15C10.5378 15.15 11.8699 14.914 12.7686 14.5769C13.0725 14.463 13.3448 14.3491 13.5 14.25V5.23828C12.4006 5.70539 10.792 6 9 6C7.20796 6 5.59942 5.70539 4.5 5.23828Z" fill="#6D6D6D"/>
</svg>
