<svg width="18" height="18" viewBox="0 0 18 18" fill="none" xmlns="http://www.w3.org/2000/svg">
<path d="M3.66667 5.875C3.66667 5.53125 3.96667 5.25 4.33333 5.25H15C15.3667 5.25 15.6667 4.96875 15.6667 4.625C15.6667 4.28125 15.3667 4 15 4H3.66667C2.93333 4 2.33333 4.5625 2.33333 5.25V12.125H2C1.44667 12.125 1 12.5437 1 13.0625C1 13.5813 1.44667 14 2 14H10.3333V12.125H3.66667V5.875ZM16.3333 6.5H12.3333C11.9667 6.5 11.6667 6.78125 11.6667 7.125V13.375C11.6667 13.7188 11.9667 14 12.3333 14H16.3333C16.7 14 17 13.7188 17 13.375V7.125C17 6.78125 16.7 6.5 16.3333 6.5ZM15.6667 12.125H13V7.75H15.6667V12.125Z" fill="#6D6D6D"/>
</svg>
