<svg width="18" height="18" viewBox="0 0 18 18" fill="none" xmlns="http://www.w3.org/2000/svg">
<path d="M9 1.5C4.86 1.5 1.5 4.86 1.5 9C1.5 13.14 4.86 16.5 9 16.5C13.14 16.5 16.5 13.14 16.5 9C16.5 4.86 13.14 1.5 9 1.5ZM9 15C5.6925 15 3 12.3075 3 9C3 5.6925 5.6925 3 9 3C12.3075 3 15 5.6925 15 9C15 12.3075 12.3075 15 9 15ZM9.6675 8.325C8.3325 7.8825 7.6875 7.605 7.6875 6.9C7.6875 6.135 8.52 5.8575 9.045 5.8575C9.5453 5.8575 9.88419 6.05003 10.1072 6.27367C10.3714 6.53853 10.7682 6.73606 11.1125 6.59003C11.4183 6.46038 11.5742 6.11262 11.3946 5.83329C11.1102 5.39103 10.5802 4.84753 9.66 4.6875V4.40625C9.66 4.04381 9.36619 3.75 9.00375 3.75C8.64131 3.75 8.3475 4.04381 8.3475 4.40625V4.695C6.3975 5.115 6.3825 6.8325 6.3825 6.915C6.3825 8.6175 8.07 9.0975 8.895 9.3975C10.08 9.8175 10.605 10.2 10.605 10.92C10.605 11.7675 9.8175 12.1275 9.12 12.1275C8.33718 12.1275 7.87503 11.6662 7.61473 11.2416C7.4074 10.9034 6.99674 10.6905 6.62889 10.8389C6.31414 10.966 6.13925 11.3144 6.28404 11.6214C6.8448 12.8103 7.85403 13.1643 8.34 13.2825V13.5938C8.34 13.9562 8.63381 14.25 8.99625 14.25C9.35869 14.25 9.6525 13.9562 9.6525 13.5938V13.32C10.0425 13.2525 11.9175 12.8775 11.9175 10.905C11.925 9.8625 11.4675 8.9475 9.6675 8.325Z" fill="#6D6D6D"/>
</svg>
