<svg width="18" height="18" viewBox="0 0 18 18" fill="none" xmlns="http://www.w3.org/2000/svg">
<path fill-rule="evenodd" clip-rule="evenodd" d="M5.625 5.53784C5.93566 5.53784 6.1875 5.78968 6.1875 6.10034V13.3902C6.1875 13.4937 6.27145 13.5777 6.375 13.5777H9.75C10.0607 13.5777 10.3125 13.8295 10.3125 14.1402C10.3125 14.4508 10.0607 14.7027 9.75 14.7027H6.375C5.65013 14.7027 5.0625 14.115 5.0625 13.3902V6.10034C5.0625 5.78968 5.31434 5.53784 5.625 5.53784Z" fill="#6D6D6D"/>
<path fill-rule="evenodd" clip-rule="evenodd" d="M5.0625 8.72534C5.0625 8.41468 5.31434 8.16284 5.625 8.16284H9.75C10.0607 8.16284 10.3125 8.41468 10.3125 8.72534C10.3125 9.036 10.0607 9.28784 9.75 9.28784H5.625C5.31434 9.28784 5.0625 9.036 5.0625 8.72534Z" fill="#6D6D6D"/>
<path fill-rule="evenodd" clip-rule="evenodd" d="M5.31434 3.375C5.21488 3.375 5.1195 3.33549 5.04918 3.26517L4.40901 2.625H3.375V5.25H7.5V3.375H5.31434ZM5.625 2.25L4.98484 1.60983C4.91451 1.53951 4.81913 1.5 4.71967 1.5H3C2.58579 1.5 2.25 1.83579 2.25 2.25V5.625C2.25 6.03921 2.58579 6.375 3 6.375H7.875C8.28921 6.375 8.625 6.03921 8.625 5.625V3C8.625 2.58579 8.28921 2.25 7.875 2.25H5.625Z" fill="#6D6D6D"/>
<path fill-rule="evenodd" clip-rule="evenodd" d="M4.98484 1.60983C4.91451 1.53951 4.81913 1.5 4.71967 1.5H3C2.58579 1.5 2.25 1.83579 2.25 2.25V5.625C2.25 6.03921 2.58579 6.375 3 6.375H7.875C8.28921 6.375 8.625 6.03921 8.625 5.625V3C8.625 2.58579 8.28921 2.25 7.875 2.25H5.625L4.98484 1.60983ZM5.04918 3.26517L4.40901 2.625H3.375V5.25H7.5V3.375H5.31434C5.21488 3.375 5.1195 3.33549 5.04918 3.26517Z" fill="#6D6D6D"/>
<path fill-rule="evenodd" clip-rule="evenodd" d="M12.4393 7.97534C12.3399 7.97534 12.2445 7.93583 12.1742 7.86551L11.534 7.22534H10.5V9.85034H14.625V7.97534H12.4393ZM12.75 6.85034L12.1098 6.21018C12.0395 6.13985 11.9441 6.10034 11.8447 6.10034H10.125C9.71079 6.10034 9.375 6.43613 9.375 6.85034V10.2253C9.375 10.6396 9.71079 10.9753 10.125 10.9753H15C15.4142 10.9753 15.75 10.6396 15.75 10.2253V7.60034C15.75 7.18613 15.4142 6.85034 15 6.85034H12.75Z" fill="#6D6D6D"/>
<path fill-rule="evenodd" clip-rule="evenodd" d="M12.1098 6.21018C12.0395 6.13985 11.9441 6.10034 11.8447 6.10034H10.125C9.71079 6.10034 9.375 6.43613 9.375 6.85034V10.2253C9.375 10.6396 9.71079 10.9753 10.125 10.9753H15C15.4142 10.9753 15.75 10.6396 15.75 10.2253V7.60034C15.75 7.18613 15.4142 6.85034 15 6.85034H12.75L12.1098 6.21018ZM12.1742 7.86551L11.534 7.22534H10.5V9.85034H14.625V7.97534H12.4393C12.3399 7.97534 12.2445 7.93583 12.1742 7.86551Z" fill="#6D6D6D"/>
<path fill-rule="evenodd" clip-rule="evenodd" d="M12.4646 13.5C12.3652 13.5 12.2698 13.4605 12.1994 13.3902L11.5593 12.75H10.5253V15.375H14.6503V13.5H12.4646ZM12.7753 12.375L12.1351 11.7348C12.0648 11.6645 11.9694 11.625 11.8699 11.625H10.1503C9.73605 11.625 9.40027 11.9608 9.40027 12.375V15.75C9.40027 16.1642 9.73605 16.5 10.1503 16.5H15.0253C15.4395 16.5 15.7753 16.1642 15.7753 15.75V13.125C15.7753 12.7108 15.4395 12.375 15.0253 12.375H12.7753Z" fill="#6D6D6D"/>
<path fill-rule="evenodd" clip-rule="evenodd" d="M12.1351 11.7348C12.0648 11.6645 11.9694 11.625 11.8699 11.625H10.1503C9.73605 11.625 9.40027 11.9608 9.40027 12.375V15.75C9.40027 16.1642 9.73605 16.5 10.1503 16.5H15.0253C15.4395 16.5 15.7753 16.1642 15.7753 15.75V13.125C15.7753 12.7108 15.4395 12.375 15.0253 12.375H12.7753L12.1351 11.7348ZM12.1994 13.3902L11.5593 12.75H10.5253V15.375H14.6503V13.5H12.4646C12.3652 13.5 12.2698 13.4605 12.1994 13.3902Z" fill="#6D6D6D"/>
</svg>
