<svg width="18" height="18" viewBox="0 0 18 18" fill="none" xmlns="http://www.w3.org/2000/svg">
<path fill-rule="evenodd" clip-rule="evenodd" d="M12.1889 6C12.1889 7.6575 10.8464 9 9.18888 9C7.53138 9 6.18888 7.6575 6.18888 6C6.18888 4.3425 7.53138 3 9.18888 3C10.8464 3 12.1889 4.3425 12.1889 6ZM10.6889 6C10.6889 5.175 10.0139 4.5 9.18888 4.5C8.36388 4.5 7.68888 5.175 7.68888 6C7.68888 6.825 8.36388 7.5 9.18888 7.5C10.0139 7.5 10.6889 6.825 10.6889 6Z" fill="#6D6D6D"/>
<path fill-rule="evenodd" clip-rule="evenodd" d="M4.56388 15H13.8246C14.0317 15 14.1996 14.8321 14.1996 14.625V13.0125C14.1996 12.24 13.8171 11.505 13.1571 11.115C12.3463 10.6319 11.4578 10.2617 10.5141 10.0295C10.0849 9.92393 9.64421 9.84688 9.19424 9.80074C8.74427 9.84688 8.30362 9.92393 7.87439 10.0295C6.93067 10.2617 6.0422 10.6319 5.23138 11.115C4.57138 11.505 4.18888 12.24 4.18888 13.0125V14.625C4.18888 14.8321 4.35677 15 4.56388 15ZM5.68888 13.125C5.68888 13.3321 5.85677 13.5 6.06388 13.5H12.3246C12.5317 13.5 12.6996 13.3321 12.6996 13.125V13.0125C12.6996 12.7575 12.5796 12.5175 12.3921 12.405C11.4108 11.8186 10.3217 11.4479 9.19424 11.3104C8.0668 11.4479 6.97765 11.8186 5.99638 12.405C5.80888 12.5175 5.68888 12.7575 5.68888 13.0125V13.125Z" fill="#6D6D6D"/>
<path fill-rule="evenodd" clip-rule="evenodd" d="M3.9496 10.7627C2.7121 10.7627 1.6996 9.75015 1.6996 8.51265C1.6996 7.27515 2.7121 6.26265 3.9496 6.26265C5.1871 6.26265 6.1996 7.27515 6.1996 8.51265C6.1996 9.75015 5.1871 10.7627 3.9496 10.7627ZM3.1996 8.51265C3.1996 8.10015 3.5371 7.76265 3.9496 7.76265C4.3621 7.76265 4.6996 8.10015 4.6996 8.51265C4.6996 8.92515 4.3621 9.26265 3.9496 9.26265C3.5371 9.26265 3.1996 8.92515 3.1996 8.51265Z" fill="#6D6D6D"/>
<path d="M1.14429 14.65V13.96C1.14429 12.8288 2.22794 12.0853 3.42204 11.6733C3.57119 11.6219 3.71116 11.7615 3.66681 11.913L3.51526 12.4303C3.43502 12.7043 3.39429 12.9882 3.39429 13.2737V15.025H1.51929C1.31218 15.025 1.14429 14.8571 1.14429 14.65Z" fill="#6D6D6D"/>
<path fill-rule="evenodd" clip-rule="evenodd" d="M16.8246 8.51265C16.8246 9.75015 15.8121 10.7627 14.5746 10.7627C13.3371 10.7627 12.3246 9.75015 12.3246 8.51265C12.3246 7.27515 13.3371 6.26265 14.5746 6.26265C15.8121 6.26265 16.8246 7.27515 16.8246 8.51265ZM14.5746 7.76265C14.9871 7.76265 15.3246 8.10015 15.3246 8.51265C15.3246 8.92515 14.9871 9.26265 14.5746 9.26265C14.1621 9.26265 13.8246 8.92515 13.8246 8.51265C13.8246 8.10015 14.1621 7.76265 14.5746 7.76265Z" fill="#6D6D6D"/>
<path d="M17.261 13.96V14.65C17.261 14.8571 17.0931 15.025 16.886 15.025H15.011V13.2737C15.011 12.9882 14.9703 12.7043 14.8901 12.4303L14.7385 11.913C14.6942 11.7615 14.8341 11.6219 14.9833 11.6733C16.1774 12.0853 17.261 12.8288 17.261 13.96Z" fill="#6D6D6D"/>
</svg>
