<svg width="18" height="18" viewBox="0 0 18 18" fill="none" xmlns="http://www.w3.org/2000/svg">
<path fill-rule="evenodd" clip-rule="evenodd" d="M13.875 3.375V4.5H15V3.375H13.875ZM13.5 2.25C13.0858 2.25 12.75 2.58579 12.75 3V4.875C12.75 5.28921 13.0858 5.625 13.5 5.625H15.375C15.7892 5.625 16.125 5.28921 16.125 4.875V3C16.125 2.58579 15.7892 2.25 15.375 2.25H13.5ZM3 7.875V10.125H5.25V7.875H3ZM2.25 6.375C1.83579 6.375 1.5 6.71079 1.5 7.125V10.875C1.5 11.2892 1.83579 11.625 2.25 11.625H6C6.41421 11.625 6.75 11.2892 6.75 10.875V7.125C6.75 6.71079 6.41421 6.375 6 6.375H2.25ZM13.875 9.375V8.25H15V9.375H13.875ZM12.75 7.875C12.75 7.46079 13.0858 7.125 13.5 7.125H15.375C15.7892 7.125 16.125 7.46079 16.125 7.875V9.75C16.125 10.1642 15.7892 10.5 15.375 10.5H13.5C13.0858 10.5 12.75 10.1642 12.75 9.75V7.875ZM13.875 13.5V14.625H15V13.5H13.875ZM13.5 12.375C13.0858 12.375 12.75 12.7108 12.75 13.125V15C12.75 15.4142 13.0858 15.75 13.5 15.75H15.375C15.7892 15.75 16.125 15.4142 16.125 15V13.125C16.125 12.7108 15.7892 12.375 15.375 12.375H13.5ZM10.3447 7.29921C10.1983 7.15276 9.96086 7.15276 9.81441 7.29921L9.54925 7.56437C9.4028 7.71082 9.4028 7.94826 9.54925 8.0947L9.84658 8.39204L7.87501 8.39201C7.6679 8.39201 7.5 8.5599 7.5 8.76701V9.14201C7.5 9.34911 7.66789 9.51701 7.875 9.51701L9.84658 9.51704L9.54925 9.81437C9.4028 9.96082 9.4028 10.1983 9.54925 10.3447L9.81441 10.6099C9.96086 10.7563 10.1983 10.7563 10.3447 10.6099L12.0001 8.95454L10.3447 7.29921ZM9.27935 3.23581C9.33295 3.03576 9.53858 2.91704 9.73863 2.97064L11.9999 3.57653L11.394 5.83776C11.3404 6.03781 11.1347 6.15652 10.9347 6.10292L10.5725 6.00586C10.3724 5.95226 10.2537 5.74663 10.3073 5.54659L10.4161 5.14042L8.39137 6.39544C8.21143 6.50697 7.97489 6.44754 7.86904 6.2642L7.68173 5.93976C7.58045 5.76435 7.63677 5.54023 7.80892 5.43352L9.85363 4.16614L9.44746 4.05731C9.24741 4.0037 9.12869 3.79808 9.18229 3.59803L9.27935 3.23581ZM11.4663 12.1846C11.4127 11.9846 11.2071 11.8659 11.007 11.9195L10.6448 12.0165C10.4447 12.0701 10.326 12.2758 10.3796 12.4758L10.4885 12.882L8.39052 11.601C8.21068 11.4912 7.97569 11.5511 7.87034 11.7336L7.68295 12.0581C7.58119 12.2344 7.63859 12.4596 7.81229 12.5657L9.92596 13.8562L9.51979 13.9651C9.31974 14.0187 9.20102 14.2243 9.25463 14.4244L9.35168 14.7866C9.40529 14.9866 9.61091 15.1053 9.81096 15.0517L12.0722 14.4459L11.4663 12.1846Z" fill="#6D6D6D"/>
</svg>
