<svg width="18" height="18" viewBox="0 0 18 18" fill="none" xmlns="http://www.w3.org/2000/svg">
<path d="M16.1812 13.25C16.1812 13.085 16.1587 12.935 16.1362 12.7775L16.8995 12.1013C16.9529 12.054 16.9656 11.9756 16.9299 11.9139L16.3027 10.8289C16.267 10.767 16.1925 10.739 16.1248 10.7618L15.1537 11.09C14.9137 10.8875 14.6437 10.73 14.3437 10.6175L14.143 9.62039C14.1289 9.55037 14.0674 9.5 13.9959 9.5H12.7416C12.6701 9.5 12.6086 9.55037 12.5945 9.62039L12.3937 10.6175C12.0937 10.73 11.8237 10.8875 11.5837 11.09L10.6126 10.7618C10.545 10.739 10.4705 10.767 10.4348 10.8289L9.80757 11.9139C9.77189 11.9756 9.78459 12.054 9.83796 12.1013L10.6012 12.7775C10.5787 12.935 10.5562 13.085 10.5562 13.25C10.5562 13.415 10.5787 13.565 10.6012 13.7225L9.83796 14.3987C9.78459 14.446 9.77189 14.5244 9.80757 14.5861L10.4348 15.6711C10.4705 15.733 10.545 15.761 10.6126 15.7382L11.5837 15.41C11.8237 15.6125 12.0937 15.77 12.3937 15.8825L12.5945 16.8796C12.6086 16.9496 12.6701 17 12.7416 17H13.9959C14.0674 17 14.1289 16.9496 14.143 16.8796L14.3437 15.8825C14.6437 15.77 14.9137 15.6125 15.1537 15.41L16.1248 15.7382C16.1925 15.761 16.267 15.733 16.3027 15.6711L16.9299 14.5861C16.9656 14.5244 16.9529 14.446 16.8995 14.3987L16.1362 13.7225C16.1587 13.565 16.1812 13.415 16.1812 13.25ZM13.3687 14.75C12.5437 14.75 11.8687 14.075 11.8687 13.25C11.8687 12.425 12.5437 11.75 13.3687 11.75C14.1937 11.75 14.8687 12.425 14.8687 13.25C14.8687 14.075 14.1937 14.75 13.3687 14.75Z" fill="#6D6D6D"/>
<path d="M13.5 7.5C13.7125 7.5 13.8906 7.42813 14.0344 7.28438C14.1781 7.14062 14.25 6.9625 14.25 6.75C14.25 6.5375 14.1781 6.35938 14.0344 6.21563C13.8906 6.07188 13.7125 6 13.5 6H11.25C11.0375 6 10.8594 6.07188 10.7156 6.21563C10.5719 6.35938 10.5 6.5375 10.5 6.75C10.5 6.9625 10.5719 7.14062 10.7156 7.28438C10.8594 7.42813 11.0375 7.5 11.25 7.5H13.5ZM6.75 9C7.1625 9 7.51562 8.85313 7.80937 8.55938C8.10313 8.26563 8.25 7.9125 8.25 7.5C8.25 7.0875 8.10313 6.73438 7.80937 6.44063C7.51562 6.14688 7.1625 6 6.75 6C6.3375 6 5.98438 6.14688 5.69062 6.44063C5.39687 6.73438 5.25 7.0875 5.25 7.5C5.25 7.9125 5.39687 8.26563 5.69062 8.55938C5.98438 8.85313 6.3375 9 6.75 9Z" fill="#6D6D6D"/>
<path d="M3 15C2.5875 15 2.23438 14.8531 1.94062 14.5594C1.64687 14.2656 1.5 13.9125 1.5 13.5V4.5C1.5 4.0875 1.64687 3.73438 1.94062 3.44063C2.23438 3.14687 2.5875 3 3 3H15C15.4125 3 15.7656 3.14687 16.0594 3.44063C16.3531 3.73438 16.5 4.0875 16.5 4.5V8.25C16.5 8.66421 16.1642 9 15.75 9C15.3358 9 15 8.66421 15 8.25V4.5H3V13.5H8.25C8.66421 13.5 9 13.8358 9 14.25C9 14.6642 8.66421 15 8.25 15H3Z" fill="#6D6D6D"/>
<path d="M6.75 9.75C6.3 9.75 5.89375 9.79063 5.53125 9.87188C5.16875 9.95313 4.85 10.0813 4.575 10.2563C4.3125 10.4188 4.1125 10.6031 3.975 10.8094C3.8375 11.0156 3.76875 11.2375 3.76875 11.475C3.76875 11.625 3.825 11.75 3.9375 11.85C4.05 11.95 4.1875 12 4.35 12H7.71445C8.17553 12 8.57683 11.6848 8.68601 11.2368L8.84019 10.6042C8.8909 10.3962 8.8051 10.1749 8.61062 10.0853C8.41456 9.99499 8.2006 9.92384 7.96875 9.87188C7.60625 9.79063 7.2 9.75 6.75 9.75Z" fill="#6D6D6D"/>
</svg>
