<svg width="18" height="18" viewBox="0 0 18 18" fill="none" xmlns="http://www.w3.org/2000/svg">
<g clip-path="url(#clip0_10516_2645)">
<path d="M14.25 5.74997L16.8525 7.69997C17.055 7.84997 17.055 8.14997 16.8525 8.29997L14.25 10.25V8.74997H11.205C11.1923 8.87918 11.1764 9.00741 11.1572 9.13459C10.7858 9.04658 10.3983 9 10 9C9.88756 9 9.77598 9.00371 9.66539 9.01102C9.72103 8.6824 9.75 8.34462 9.75 7.99997C9.75 4.90247 7.41 2.35997 4.4025 2.03747C4.0275 1.99247 3.75 1.66997 3.75 1.29497C3.75 0.844966 4.14 0.499966 4.59 0.544966C8.0925 0.934966 10.86 3.73247 11.2125 7.24997H14.25V5.74997Z" fill="#6D6D6D"/>
<path d="M5.00173 13.8674C4.80537 13.9088 4.60545 13.9407 4.4025 13.9625C4.0275 14.0075 3.75 14.33 3.75 14.705C3.75 15.155 4.14 15.5075 4.5825 15.455C4.78688 15.4322 4.98878 15.4013 5.18787 15.3624C5.06549 14.9293 5 14.4723 5 14C5 13.9556 5.00058 13.9114 5.00173 13.8674Z" fill="#6D6D6D"/>
<path fill-rule="evenodd" clip-rule="evenodd" d="M8.25 8.74997H5.115C4.8 9.61997 3.975 10.25 3 10.25C1.755 10.25 0.75 9.24497 0.75 7.99997C0.75 6.75497 1.755 5.74997 3 5.74997C3.975 5.74997 4.8 6.37997 5.115 7.24997H8.25V8.74997ZM2.25 7.99997C2.25 8.41247 2.5875 8.74997 3 8.74997C3.4125 8.74997 3.75 8.41247 3.75 7.99997C3.75 7.58747 3.4125 7.24997 3 7.24997C2.5875 7.24997 2.25 7.58747 2.25 7.99997Z" fill="#6D6D6D"/>
<path fill-rule="evenodd" clip-rule="evenodd" d="M8.225 13.75L9.3 14.825L11.775 12.35C11.875 12.25 11.9917 12.2 12.125 12.2C12.2583 12.2 12.375 12.25 12.475 12.35C12.575 12.45 12.625 12.5667 12.625 12.7C12.625 12.8333 12.575 12.95 12.475 13.05L10 15.55C9.8 15.75 9.56667 15.85 9.3 15.85C9.03333 15.85 8.8 15.75 8.6 15.55L7.525 14.475C7.425 14.375 7.375 14.2583 7.375 14.125C7.375 13.9917 7.425 13.875 7.525 13.775C7.625 13.675 7.74167 13.6208 7.875 13.6125C8.00833 13.6042 8.125 13.65 8.225 13.75ZM10 18C12.2091 18 14 16.2091 14 14C14 11.7909 12.2091 10 10 10C7.79086 10 6 11.7909 6 14C6 16.2091 7.79086 18 10 18Z" fill="#6D6D6D"/>
</g>
<defs>
<clipPath id="clip0_10516_2645">
<rect width="18" height="18" fill="white"/>
</clipPath>
</defs>
</svg>
