<svg width="18" height="18" viewBox="0 0 18 18" fill="none" xmlns="http://www.w3.org/2000/svg">
<path d="M8.28757 4.16269C8.14112 4.01624 8.14036 3.77773 8.29623 3.64136C9.31828 2.74718 10.6334 2.25 11.9999 2.25C13.3663 2.25 14.6815 2.74718 15.7035 3.64136C15.8594 3.77773 15.8586 4.01624 15.7122 4.16269L15.2368 4.63804C15.0904 4.78449 14.8539 4.78301 14.695 4.65019C13.9421 4.02092 12.989 3.67225 11.9999 3.67225C11.0108 3.67225 10.0576 4.02092 9.30474 4.65019C9.14583 4.78301 8.90936 4.78449 8.76292 4.63804L8.28757 4.16269Z" fill="#6D6D6D"/>
<path d="M4.5 12.2973C4.5 12.0902 4.66789 11.9223 4.875 11.9223H5.625C5.83211 11.9223 6 12.0902 6 12.2973V13.0473C6 13.2544 5.83211 13.4223 5.625 13.4223H4.875C4.66789 13.4223 4.5 13.2544 4.5 13.0473V12.2973Z" fill="#6D6D6D"/>
<path d="M7.875 11.9223C7.66789 11.9223 7.5 12.0902 7.5 12.2973V13.0473C7.5 13.2544 7.66789 13.4223 7.875 13.4223H8.625C8.83211 13.4223 9 13.2544 9 13.0473V12.2973C9 12.0902 8.83211 11.9223 8.625 11.9223H7.875Z" fill="#6D6D6D"/>
<path d="M10.5 12.2973C10.5 12.0902 10.6679 11.9223 10.875 11.9223H11.625C11.8321 11.9223 12 12.0902 12 12.2973V13.0473C12 13.2544 11.8321 13.4223 11.625 13.4223H10.875C10.6679 13.4223 10.5 13.2544 10.5 13.0473V12.2973Z" fill="#6D6D6D"/>
<path fill-rule="evenodd" clip-rule="evenodd" d="M11.625 7.42227C11.4179 7.42227 11.25 7.59016 11.25 7.79727V9.67227H3C2.17157 9.67227 1.5 10.3438 1.5 11.1723V14.1723C1.5 15.0007 2.17157 15.6723 3 15.6723H15C15.8284 15.6723 16.5 15.0007 16.5 14.1723V11.1723C16.5 10.3438 15.8284 9.67227 15 9.67227H12.75V7.79727C12.75 7.59016 12.5821 7.42227 12.375 7.42227H11.625ZM15 11.1723H3V14.1723H15V11.1723Z" fill="#6D6D6D"/>
<path d="M13.8403 5.05303C14.0039 5.18007 14.0026 5.41967 13.8562 5.56612L13.3976 6.02467C13.2512 6.17112 13.0153 6.16646 12.8388 6.05799C12.7669 6.01374 12.6913 5.97516 12.6129 5.94268C12.4186 5.86219 12.2104 5.82077 12 5.82077C11.7897 5.82077 11.5815 5.86219 11.3872 5.94268C11.3088 5.97516 11.2332 6.01374 11.1613 6.05799C10.9848 6.16646 10.7489 6.17112 10.6024 6.02467L10.1439 5.56612C9.99744 5.41967 9.99619 5.18007 10.1598 5.05303C10.371 4.88891 10.6038 4.75345 10.852 4.65063C11.216 4.49987 11.6061 4.42227 12 4.42227C12.394 4.42227 12.7841 4.49987 13.1481 4.65063C13.3963 4.75344 13.629 4.88891 13.8403 5.05303Z" fill="#6D6D6D"/>
</svg>
