<svg width="18" height="18" viewBox="0 0 18 18" fill="none" xmlns="http://www.w3.org/2000/svg">
<g clip-path="url(#clip0_10516_2642)">
<path fill-rule="evenodd" clip-rule="evenodd" d="M7.13025 2.19593C7.14081 2.20562 7.15125 2.21543 7.16159 2.22536C7.21105 2.26004 7.27725 2.30725 7.35613 2.36538C7.53134 2.49448 7.77114 2.67891 8.03013 2.90091C8.53164 3.33077 9.16857 3.95422 9.50311 4.6233C9.64529 4.90766 9.73211 5.26515 9.78971 5.60215C9.83129 5.8454 9.86114 6.10005 9.88266 6.34559C9.99531 6.10618 10.0803 5.85926 10.144 5.62055C10.2284 5.30401 10.2708 5.01786 10.292 4.81161C10.3025 4.70892 10.3077 4.62722 10.3102 4.5729C10.3114 4.54578 10.312 4.52558 10.3123 4.51311L10.3125 4.49986V4.0472C10.3125 3.71311 10.7164 3.5458 10.9527 3.78203L11.2732 4.10256L10.875 4.51311C11.2727 4.11537 11.2732 4.10256 11.2732 4.10256L11.2751 4.10451L11.2791 4.10857L11.2918 4.1216C11.3023 4.13242 11.3168 4.14752 11.3346 4.16659C11.3701 4.20472 11.4194 4.25898 11.4779 4.32715C11.5942 4.46291 11.7495 4.65687 11.9055 4.89097C12.2055 5.34086 12.5625 6.01829 12.5625 6.74986C12.5625 7.06052 12.3107 7.31236 12 7.31236C11.6893 7.31236 11.4375 7.06052 11.4375 6.74986C11.4375 6.49587 11.3519 6.21932 11.2205 5.94921C11.0135 6.70508 10.5907 7.66623 9.7125 8.32486L9.40476 8.55567C9.15474 8.74318 8.79851 8.56054 8.80483 8.24808L8.81263 7.86281L8.81269 7.85907L8.81294 7.84272C8.81314 7.82799 8.81339 7.80573 8.81357 7.7768C8.81393 7.71892 8.81401 7.63449 8.81283 7.53025C8.81046 7.32128 8.80309 7.03509 8.78318 6.72494C8.7632 6.41342 8.73107 6.08583 8.68079 5.7917C8.62883 5.48769 8.56408 5.26081 8.49688 5.12642C8.38654 4.90573 8.21526 4.67436 8.01312 4.44741C8.05683 5.06796 7.9957 5.70622 7.82946 6.20494C7.67093 6.68054 7.37717 7.13732 7.10775 7.55624C7.05595 7.63678 7.00505 7.71594 6.95619 7.79355C6.63496 8.30374 6.33623 8.83478 6.1707 9.49689C6.04061 10.0173 6.03557 10.7003 6.07258 11.2875C6.09065 11.5742 6.1178 11.8252 6.14039 12.0041C6.15167 12.0934 6.16174 12.1642 6.16889 12.2121C6.17245 12.236 6.17528 12.2541 6.17716 12.2658L6.17922 12.2786L6.17972 12.2816L6.22856 12.5714C6.27414 12.8418 6.02355 13.0681 5.75918 12.9953L5.47158 12.916L5.4611 12.9131L5.42163 12.9021C5.38737 12.8924 5.33756 12.8783 5.27447 12.8601C5.14833 12.8237 4.96887 12.7709 4.75425 12.7052C4.32593 12.5741 3.75335 12.39 3.18337 12.1798C1.82386 11.6786 0.940575 10.4055 0.937504 8.87008C0.936146 8.19101 1.29913 7.54911 1.56456 7.08666L1.63251 6.96866C1.75005 6.76484 1.8513 6.58928 1.93161 6.42098C2.02805 6.21889 2.06283 6.08878 2.06582 6.0066C2.07747 5.68655 1.9981 5.18432 1.90076 4.72082C1.85394 4.4979 1.80613 4.29818 1.77 4.15419C1.75198 4.08234 1.73695 4.02473 1.72654 3.98546L1.7146 3.94092L1.71163 3.93L1.71082 3.92706L1.6518 3.7139C1.58997 3.49061 1.74341 3.26524 1.97382 3.24091L2.19387 3.21767C3.18912 3.11257 3.88518 3.78829 4.29804 4.3694C4.28885 3.89492 4.1758 3.45843 4.02604 3.08193C3.88053 2.71611 3.70298 2.41532 3.56187 2.20652C3.49164 2.10262 3.43138 2.02288 3.39012 1.97075C3.36952 1.94473 3.35375 1.9257 3.34395 1.9141L3.33347 1.90184L3.11774 1.66077C2.92547 1.44593 3.03747 1.10352 3.31953 1.04382L3.63646 0.97675C4.16837 0.864177 4.85365 1.00845 5.44277 1.22289C6.05136 1.44441 6.68519 1.78766 7.13025 2.19593ZM5.07138 2.66612C5.00727 2.50494 4.93844 2.35435 4.86854 2.21557C4.93012 2.23505 4.99335 2.25651 5.05798 2.28004C5.53717 2.45445 5.99519 2.70641 6.30229 2.96564C6.33765 3.0121 6.38088 3.05376 6.43156 3.08855C6.63238 3.3183 6.79711 3.73995 6.86709 4.28571C6.94191 4.86922 6.89084 5.46324 6.7622 5.84918C6.65229 6.17891 6.45166 6.4927 6.18387 6.91155C6.12693 7.00061 6.06696 7.09442 6.00417 7.19414C5.66431 7.73392 5.28877 8.38614 5.0793 9.22403C4.90592 9.91754 4.91096 10.7418 4.94981 11.3583C4.95494 11.4396 4.96072 11.5182 4.96691 11.5936C4.56678 11.4695 4.06647 11.3064 3.57253 11.1243C2.67213 10.7923 2.06467 9.95208 2.0625 8.86783C2.06184 8.5384 2.24842 8.15516 2.54027 7.64668L2.60181 7.5399C2.71863 7.33759 2.84591 7.11717 2.94692 6.90551C3.06499 6.6581 3.17866 6.36114 3.19008 6.04752C3.20574 5.61727 3.11708 5.06112 3.02748 4.61485C3.17822 4.7488 3.32506 4.92806 3.46656 5.14755C3.6311 5.40279 3.75755 5.6674 3.84344 5.87147C3.88598 5.97254 3.91761 6.05645 3.9382 6.11384C3.94847 6.14248 3.95594 6.16437 3.9606 6.17831L3.96546 6.19306L3.96606 6.19492L4.11052 6.65694C4.21273 6.98386 4.66367 7.0139 4.80834 6.70342L5.0128 6.26464C5.65905 4.87771 5.43639 3.58376 5.07138 2.66612Z" fill="#6D6D6D"/>
<path fill-rule="evenodd" clip-rule="evenodd" d="M9.825 9.18736C9.47292 9.18736 9.1875 9.47278 9.1875 9.82486V11.4374H7.575C7.22292 11.4374 6.9375 11.7228 6.9375 12.0749V14.1749C6.9375 14.5269 7.22292 14.8124 7.575 14.8124H8.4375V16.4249C8.4375 16.7769 8.72292 17.0624 9.075 17.0624H13.425C13.7771 17.0624 14.0625 16.7769 14.0625 16.4249V14.8124H16.425C16.7771 14.8124 17.0625 14.5269 17.0625 14.1749V12.0749C17.0625 11.7228 16.7771 11.4374 16.425 11.4374H14.8125V9.82486C14.8125 9.47278 14.5271 9.18736 14.175 9.18736H9.825ZM9.5625 14.8124V15.9374H12.9375V14.8124H9.5625ZM12.5625 13.6874H15.9375V12.5624H12.5625V13.6874ZM13.6875 11.4374V10.3124H10.3125V11.4374H13.6875ZM8.0625 12.5624V13.6874H11.4375V12.5624H8.0625Z" fill="#6D6D6D"/>
</g>
<defs>
<clipPath id="clip0_10516_2642">
<rect width="18" height="18" fill="white"/>
</clipPath>
</defs>
</svg>
