<svg width="18" height="18" viewBox="0 0 18 18" fill="none" xmlns="http://www.w3.org/2000/svg">
<path fill-rule="evenodd" clip-rule="evenodd" d="M12.3788 5.25C13.2073 5.25 13.8788 4.57843 13.8788 3.75C13.8788 2.92157 13.2073 2.25 12.3788 2.25C11.5504 2.25 10.8788 2.92157 10.8788 3.75C10.8788 4.14725 11.0333 4.50843 11.2854 4.77679L10.903 5.38825C10.7932 5.56385 10.8465 5.79522 11.0221 5.90503C11.1977 6.01484 11.4291 5.9615 11.5389 5.7859L11.9189 5.17817C12.0639 5.22481 12.2184 5.25 12.3788 5.25ZM12.3788 4.125C12.586 4.125 12.7538 3.95711 12.7538 3.75C12.7538 3.54289 12.586 3.375 12.3788 3.375C12.1717 3.375 12.0038 3.54289 12.0038 3.75C12.0038 3.95711 12.1717 4.125 12.3788 4.125Z" fill="#6D6D6D"/>
<path fill-rule="evenodd" clip-rule="evenodd" d="M13.5473 9.375C13.7138 10.022 14.3011 10.5 15 10.5C15.8284 10.5 16.5 9.82843 16.5 9C16.5 8.17157 15.8284 7.5 15 7.5C14.3011 7.5 13.7138 7.97804 13.5473 8.625H13.125C12.9179 8.625 12.75 8.79289 12.75 9C12.75 9.20711 12.9179 9.375 13.125 9.375H13.5473ZM15 9.375C15.2071 9.375 15.375 9.20711 15.375 9C15.375 8.79289 15.2071 8.625 15 8.625C14.7929 8.625 14.625 8.79289 14.625 9C14.625 9.20711 14.7929 9.375 15 9.375Z" fill="#6D6D6D"/>
<path fill-rule="evenodd" clip-rule="evenodd" d="M3 10.5C3.69894 10.5 4.28623 10.022 4.45274 9.375H4.875C5.08211 9.375 5.25 9.20711 5.25 9C5.25 8.79289 5.08211 8.625 4.875 8.625H4.45274C4.28623 7.97804 3.69894 7.5 3 7.5C2.17157 7.5 1.5 8.17157 1.5 9C1.5 9.82843 2.17157 10.5 3 10.5ZM3.375 9C3.375 9.20711 3.20711 9.375 3 9.375C2.79289 9.375 2.625 9.20711 2.625 9C2.625 8.79289 2.79289 8.625 3 8.625C3.20711 8.625 3.375 8.79289 3.375 9Z" fill="#6D6D6D"/>
<path fill-rule="evenodd" clip-rule="evenodd" d="M6 15.75C6.82843 15.75 7.5 15.0784 7.5 14.25C7.5 13.8446 7.33915 13.4767 7.07779 13.2067L7.36381 12.7113C7.46737 12.532 7.40591 12.3026 7.22655 12.1991C7.04719 12.0955 6.81785 12.157 6.71429 12.3363L6.43797 12.8149C6.29942 12.7727 6.15236 12.75 6 12.75C5.17157 12.75 4.5 13.4216 4.5 14.25C4.5 15.0784 5.17157 15.75 6 15.75ZM6 14.625C6.20711 14.625 6.375 14.4571 6.375 14.25C6.375 14.0429 6.20711 13.875 6 13.875C5.79289 13.875 5.625 14.0429 5.625 14.25C5.625 14.4571 5.79289 14.625 6 14.625Z" fill="#6D6D6D"/>
<path fill-rule="evenodd" clip-rule="evenodd" d="M14.0011 14.208C14.0011 15.0364 13.3295 15.708 12.5011 15.708C11.6727 15.708 11.0011 15.0364 11.0011 14.208C11.0011 13.8172 11.1505 13.4614 11.3953 13.1945L10.9672 12.5526C10.8523 12.3803 10.8988 12.1475 11.0711 12.0326C11.2434 11.9176 11.4762 11.9642 11.5911 12.1365L12.024 12.7854C12.1738 12.7352 12.3343 12.708 12.5011 12.708C13.3295 12.708 14.0011 13.3795 14.0011 14.208ZM12.8761 14.208C12.8761 14.4151 12.7082 14.583 12.5011 14.583C12.294 14.583 12.1261 14.4151 12.1261 14.208C12.1261 14.0009 12.294 13.833 12.5011 13.833C12.7082 13.833 12.8761 14.0009 12.8761 14.208Z" fill="#6D6D6D"/>
<path fill-rule="evenodd" clip-rule="evenodd" d="M7.05655 4.81476C7.33041 4.54299 7.5 4.1663 7.5 3.75C7.5 2.92157 6.82843 2.25 6 2.25C5.17157 2.25 4.5 2.92157 4.5 3.75C4.5 4.57843 5.17157 5.25 6 5.25C6.14139 5.25 6.2782 5.23044 6.40789 5.19388L6.71477 5.65399C6.82969 5.82629 7.06252 5.87281 7.23482 5.75789C7.40712 5.64298 7.45364 5.41014 7.33872 5.23784L7.05655 4.81476ZM6 4.125C6.20711 4.125 6.375 3.95711 6.375 3.75C6.375 3.54289 6.20711 3.375 6 3.375C5.79289 3.375 5.625 3.54289 5.625 3.75C5.625 3.95711 5.79289 4.125 6 4.125Z" fill="#6D6D6D"/>
<path fill-rule="evenodd" clip-rule="evenodd" d="M11.9565 8.5472C11.978 8.69756 11.9987 8.84189 11.9987 9C11.9987 9.15811 11.978 9.30244 11.9565 9.4528L11.9537 9.4725L12.717 10.1487C12.7703 10.196 12.783 10.2744 12.7474 10.3361L12.1202 11.4211C12.0844 11.483 12.01 11.511 11.9423 11.4882L10.9712 11.16C10.7312 11.3625 10.4612 11.52 10.1612 11.6325L9.96042 12.6296C9.94632 12.6996 9.8848 12.75 9.81337 12.75H8.55899C8.48756 12.75 8.42604 12.6996 8.41194 12.6296L8.21118 11.6325C7.91118 11.52 7.64118 11.3625 7.40118 11.16L6.43008 11.4882C6.36238 11.511 6.28795 11.483 6.25219 11.4211L5.625 10.3361C5.58932 10.2744 5.60202 10.196 5.65539 10.1487L6.41868 9.4725L6.41586 9.45281C6.39434 9.30245 6.37368 9.15811 6.37368 9C6.37368 8.84189 6.39434 8.69755 6.41586 8.54718L6.41868 8.5275L5.65539 7.85126C5.60202 7.80397 5.58932 7.72565 5.625 7.66392L6.25219 6.57887C6.28795 6.51701 6.36238 6.48896 6.43008 6.51184L7.40118 6.84C7.64118 6.6375 7.91118 6.48 8.21118 6.3675L8.41194 5.37039C8.42604 5.30037 8.48756 5.25 8.55899 5.25H9.81337C9.8848 5.25 9.94632 5.30037 9.96042 5.37039L10.1612 6.3675C10.4612 6.48 10.7312 6.6375 10.9712 6.84L11.9423 6.51184C12.01 6.48896 12.0844 6.51701 12.1202 6.57887L12.7474 7.66392C12.783 7.72565 12.7703 7.80397 12.717 7.85126L11.9537 8.5275L11.9565 8.5472ZM7.68618 9C7.68618 9.825 8.36118 10.5 9.18618 10.5C10.0112 10.5 10.6862 9.825 10.6862 9C10.6862 8.175 10.0112 7.5 9.18618 7.5C8.36118 7.5 7.68618 8.175 7.68618 9Z" fill="#6D6D6D"/>
</svg>
