<svg width="18" height="19" viewBox="0 0 18 19" fill="none" xmlns="http://www.w3.org/2000/svg">
<path fill-rule="evenodd" clip-rule="evenodd" d="M16.2104 4.24023C16.2104 5.48287 15.203 6.49023 13.9604 6.49023C13.5257 6.49023 13.1197 6.36694 12.7756 6.15341L11.4851 7.44394C11.8101 7.92345 11.9999 8.50198 11.9999 9.12485C11.9999 9.27069 11.9895 9.4141 11.9694 9.55437L13.2141 10.1397C13.5578 9.74751 14.0624 9.49985 14.6249 9.49985C15.6604 9.49985 16.4999 10.3393 16.4999 11.3748C16.4999 12.4104 15.6604 13.2498 14.6249 13.2498C13.5893 13.2498 12.7499 12.4104 12.7499 11.3748C12.7499 11.3056 12.7536 11.2371 12.761 11.1698L11.5993 10.6235C11.2738 11.1869 10.7704 11.6346 10.1658 11.8898L10.2942 12.5031C11.4803 12.5662 12.4227 13.548 12.4227 14.7498C12.4227 15.9925 11.4153 16.9998 10.1727 16.9998C8.93003 16.9998 7.92267 15.9925 7.92267 14.7498C7.92267 13.8591 8.44029 13.0892 9.19116 12.7246L9.0655 12.1241C9.04368 12.1246 9.02181 12.1248 8.99988 12.1248C8.25845 12.1248 7.57985 11.8559 7.05631 11.4102L5.68722 12.7793C5.88654 13.1151 6.00098 13.5072 6.00098 13.9261C6.00098 15.1687 4.99362 16.1761 3.75098 16.1761C2.50834 16.1761 1.50098 15.1687 1.50098 13.9261C1.50098 12.6834 2.50834 11.6761 3.75098 11.6761C4.16668 11.6761 4.55605 11.7888 4.89018 11.9854L6.34756 10.528C6.1256 10.1093 5.99988 9.63175 5.99988 9.12485C5.99988 8.74134 6.07184 8.37464 6.203 8.03751L4.44333 6.72341C4.167 6.88381 3.84593 6.97565 3.50342 6.97565C2.46788 6.97565 1.62842 6.13618 1.62842 5.10065C1.62842 4.06511 2.46788 3.22565 3.50342 3.22565C4.53895 3.22565 5.37842 4.06511 5.37842 5.10065C5.37842 5.38202 5.31644 5.64891 5.20539 5.88843L6.8032 7.08165C7.35093 6.49303 8.13241 6.12485 8.99988 6.12485C9.6273 6.12485 10.2097 6.31746 10.6913 6.64677L11.9974 5.34067C11.8146 5.01533 11.7104 4.63996 11.7104 4.24023C11.7104 2.99759 12.7177 1.99023 13.9604 1.99023C15.203 1.99023 16.2104 2.99759 16.2104 4.24023ZM15.0854 4.24023C15.0854 4.86156 14.5817 5.36523 13.9604 5.36523C13.3391 5.36523 12.8354 4.86155 12.8354 4.24023C12.8354 3.61891 13.3391 3.11523 13.9604 3.11523C14.5817 3.11523 15.0854 3.61891 15.0854 4.24023ZM10.4999 9.12485C10.4999 9.95327 9.82831 10.6248 8.99988 10.6248C8.17145 10.6248 7.49988 9.95327 7.49988 9.12485C7.49988 8.29642 8.17145 7.62485 8.99988 7.62485C9.82831 7.62485 10.4999 8.29642 10.4999 9.12485ZM10.1727 15.8748C10.794 15.8748 11.2977 15.3712 11.2977 14.7498C11.2977 14.1285 10.794 13.6248 10.1727 13.6248C9.55135 13.6248 9.04767 14.1285 9.04767 14.7498C9.04767 15.3712 9.55135 15.8748 10.1727 15.8748ZM15.3749 11.3748C15.3749 11.7891 15.0391 12.1248 14.6249 12.1248C14.2107 12.1248 13.8749 11.7891 13.8749 11.3748C13.8749 10.9606 14.2107 10.6248 14.6249 10.6248C15.0391 10.6248 15.3749 10.9606 15.3749 11.3748ZM3.50342 5.85065C3.91763 5.85065 4.25342 5.51486 4.25342 5.10065C4.25342 4.68643 3.91763 4.35065 3.50342 4.35065C3.0892 4.35065 2.75342 4.68643 2.75342 5.10065C2.75342 5.51486 3.0892 5.85065 3.50342 5.85065ZM4.87598 13.9261C4.87598 14.5474 4.3723 15.0511 3.75098 15.0511C3.12966 15.0511 2.62598 14.5474 2.62598 13.9261C2.62598 13.3047 3.12966 12.8011 3.75098 12.8011C4.3723 12.8011 4.87598 13.3047 4.87598 13.9261Z" fill="#6D6D6D"/>
</svg>
