<svg width="18" height="18" viewBox="0 0 18 18" fill="none" xmlns="http://www.w3.org/2000/svg">
<path d="M8.2501 15.7501V12.7501C8.2501 12.0501 8.14385 11.5313 7.93135 11.1938C7.71885 10.8563 7.4376 10.5251 7.0876 10.2001L8.15635 9.13135C8.30635 9.26885 8.4501 9.41572 8.5876 9.57197C8.7251 9.72822 8.8626 9.89385 9.0001 10.0688C9.1751 9.83135 9.35322 9.62197 9.53447 9.44072C9.71572 9.25947 9.9001 9.08135 10.0876 8.90635C10.5626 8.46885 10.9938 7.9626 11.3813 7.3876C11.7688 6.8126 11.9751 5.80635 12.0001 4.36885L11.3438 5.0251C11.2063 5.1626 11.0345 5.23135 10.8282 5.23135C10.622 5.23135 10.4438 5.1626 10.2938 5.0251C10.1438 4.8751 10.0688 4.69697 10.0688 4.49072C10.0688 4.28447 10.1438 4.10635 10.2938 3.95635L12.2251 2.0251C12.3001 1.9501 12.3813 1.89697 12.4688 1.86572C12.5563 1.83447 12.6501 1.81885 12.7501 1.81885C12.8501 1.81885 12.9438 1.83447 13.0313 1.86572C13.1188 1.89697 13.2001 1.9501 13.2751 2.0251L15.2251 3.9751C15.3626 4.1126 15.4345 4.28447 15.4407 4.49072C15.447 4.69697 15.3751 4.8751 15.2251 5.0251C15.0876 5.1626 14.9126 5.23135 14.7001 5.23135C14.4876 5.23135 14.3126 5.1626 14.1751 5.0251L13.5001 4.36885C13.4751 6.15635 13.2001 7.42822 12.6751 8.18447C12.1501 8.94072 11.6251 9.55635 11.1001 10.0313C10.7001 10.3938 10.3751 10.747 10.1251 11.0907C9.8751 11.4345 9.7501 11.9876 9.7501 12.7501V15.7501C9.7501 15.9626 9.67822 16.1407 9.53447 16.2845C9.39072 16.4282 9.2126 16.5001 9.0001 16.5001C8.7876 16.5001 8.60947 16.4282 8.46572 16.2845C8.32197 16.1407 8.2501 15.9626 8.2501 15.7501ZM4.6501 6.13135C4.6001 5.88135 4.56572 5.60635 4.54697 5.30635C4.52822 5.00635 4.5126 4.69385 4.5001 4.36885L3.8251 5.04385C3.6876 5.18135 3.51572 5.2501 3.30947 5.2501C3.10322 5.2501 2.9251 5.1751 2.7751 5.0251C2.6376 4.8876 2.56885 4.7126 2.56885 4.5001C2.56885 4.2876 2.6376 4.1126 2.7751 3.9751L4.7251 2.0251C4.8001 1.9501 4.88135 1.89697 4.96885 1.86572C5.05635 1.83447 5.1501 1.81885 5.2501 1.81885C5.3501 1.81885 5.44385 1.83447 5.53135 1.86572C5.61885 1.89697 5.7001 1.9501 5.7751 2.0251L7.7251 3.9751C7.8751 4.1251 7.94697 4.3001 7.94072 4.5001C7.93447 4.7001 7.85635 4.8751 7.70635 5.0251C7.55635 5.1626 7.38135 5.23135 7.18135 5.23135C6.98135 5.23135 6.80635 5.1626 6.65635 5.0251L6.0001 4.3876C6.0001 4.6501 6.0126 4.89697 6.0376 5.12822C6.0626 5.35947 6.0876 5.5751 6.1126 5.7751L4.6501 6.13135ZM6.2626 9.43135C6.0126 9.16885 5.77197 8.8626 5.54072 8.5126C5.30947 8.1626 5.10635 7.73135 4.93135 7.21885L6.3751 6.8626C6.5001 7.2001 6.64385 7.4876 6.80635 7.7251C6.96885 7.9626 7.14385 8.1751 7.33135 8.3626L6.2626 9.43135Z" fill="#6D6D6D"/>
</svg>
