<svg width="18" height="18" viewBox="0 0 18 18" fill="none" xmlns="http://www.w3.org/2000/svg">
<path fill-rule="evenodd" clip-rule="evenodd" d="M10.349 6.93037C10.2404 6.9294 10.1396 6.98677 10.0848 7.08068L8.71621 9.42731C8.66183 9.52054 8.66107 9.63568 8.71421 9.72962C8.76734 9.82357 8.86638 9.88216 8.97424 9.88341L11.6803 9.9147C11.8033 9.91612 11.915 9.84289 11.9628 9.72945C12.0077 9.62295 11.9881 9.50085 11.9137 9.41408L10.6105 7.08537C10.5574 6.9905 10.4577 6.93134 10.349 6.93037Z" fill="#6D6D6D"/>
<path fill-rule="evenodd" clip-rule="evenodd" d="M8.52136 10.4719C7.75064 10.4719 7.125 11.102 7.125 11.8759C7.125 12.6498 7.75064 13.28 8.52136 13.28C9.29208 13.28 9.91772 12.6498 9.91772 11.8759C9.91772 11.102 9.29208 10.4719 8.52136 10.4719Z" fill="#6D6D6D"/>
<path fill-rule="evenodd" clip-rule="evenodd" d="M11.2504 10.4249C11.1193 10.4249 10.997 10.476 10.9057 10.5679C10.8144 10.6597 10.7639 10.7824 10.7639 10.9138V12.7364C10.7639 12.8678 10.8144 12.9905 10.9057 13.0823C10.9979 13.175 11.1283 13.2252 11.2504 13.2252H13.0623C13.1934 13.2252 13.3157 13.1742 13.407 13.0823C13.4983 12.9905 13.5488 12.8678 13.5488 12.7364V10.9138C13.5488 10.7824 13.4983 10.6597 13.407 10.5679C13.3148 10.4751 13.1844 10.4249 13.0623 10.4249H11.2504Z" fill="#6D6D6D"/>
<path fill-rule="evenodd" clip-rule="evenodd" d="M1.5 3.75C1.5 2.50736 4.0184 1.5 7.125 1.5C10.2316 1.5 12.75 2.50736 12.75 3.75V4.93614C14.9489 5.82622 16.5 7.98197 16.5 10.5C16.5 13.8137 13.8137 16.5 10.5 16.5C8.97127 16.5 7.57608 15.9283 6.51657 14.987C3.69613 14.8657 1.5 13.9104 1.5 12.75V3.75ZM10.6011 3.41245C10.9004 3.53219 11.1114 3.65083 11.2505 3.75C11.1114 3.8491 10.9001 3.96796 10.6011 4.08755C9.77892 4.41642 8.55052 4.65 7.125 4.65C5.69948 4.65 4.47108 4.41642 3.6489 4.08755C3.34992 3.96796 3.13911 3.84946 3 3.75036C3.1391 3.65119 3.34956 3.53219 3.6489 3.41245C4.47108 3.08358 5.69948 2.85 7.125 2.85C8.55052 2.85 9.77892 3.08358 10.6011 3.41245ZM3 5.27972C3.90381 5.66949 5.14864 5.93094 6.54471 5.98817C6.04908 6.42301 5.62572 6.93821 5.29496 7.51341C4.66301 7.41158 4.14079 7.259 3.68567 7.07695C3.40076 6.96298 3.14548 6.84905 3 6.75V5.27972ZM3 8.27972C3.49169 8.49176 4.0843 8.66582 4.74729 8.78969C4.60025 9.285 4.51544 9.80708 4.50192 10.3469C4.20504 10.2681 3.93578 10.177 3.68567 10.0769C3.40076 9.96298 3.14548 9.84905 3 9.75V8.27972ZM3 11.2797C3.46357 11.4796 4.01684 11.6458 4.63423 11.768C4.76817 12.3906 4.99873 12.9773 5.30943 13.5116C4.68071 13.4098 4.13812 13.2579 3.68567 13.0769C3.40076 12.963 3.14548 12.8491 3 12.75V11.2797ZM10.5 15C12.9853 15 15 12.9853 15 10.5C15 8.01472 12.9853 6 10.5 6C8.01472 6 6 8.01472 6 10.5C6 12.9853 8.01472 15 10.5 15Z" fill="#6D6D6D"/>
</svg>
