<svg width="18" height="18" viewBox="0 0 18 18" fill="none" xmlns="http://www.w3.org/2000/svg">
<path d="M1.5 10.875C1.5 10.6679 1.66789 10.5 1.875 10.5H7.125C7.33211 10.5 7.5 10.6679 7.5 10.875V16.125C7.5 16.3321 7.33211 16.5 7.125 16.5H1.875C1.66789 16.5 1.5 16.3321 1.5 16.125V10.875Z" fill="#6D6D6D"/>
<path fill-rule="evenodd" clip-rule="evenodd" d="M3 3V6H6V3H3ZM12 3V6H15V3H12ZM12 12V15H15V12H12ZM1.875 1.5C1.66789 1.5 1.5 1.66789 1.5 1.875V7.125C1.5 7.33211 1.66789 7.5 1.875 7.5H7.125C7.33211 7.5 7.5 7.33211 7.5 7.125V1.875C7.5 1.66789 7.33211 1.5 7.125 1.5H1.875ZM10.875 1.5C10.6679 1.5 10.5 1.66789 10.5 1.875V7.125C10.5 7.33211 10.6679 7.5 10.875 7.5H16.125C16.3321 7.5 16.5 7.33211 16.5 7.125V1.875C16.5 1.66789 16.3321 1.5 16.125 1.5H10.875ZM1.5 10.875C1.5 10.6679 1.66789 10.5 1.875 10.5H7.125C7.33211 10.5 7.5 10.6679 7.5 10.875V16.125C7.5 16.3321 7.33211 16.5 7.125 16.5H1.875C1.66789 16.5 1.5 16.3321 1.5 16.125V10.875ZM10.875 10.5C10.6679 10.5 10.5 10.6679 10.5 10.875V16.125C10.5 16.3321 10.6679 16.5 10.875 16.5H16.125C16.3321 16.5 16.5 16.3321 16.5 16.125V10.875C16.5 10.6679 16.3321 10.5 16.125 10.5H10.875Z" fill="#6D6D6D"/>
<path fill-rule="evenodd" clip-rule="evenodd" d="M10.5 5.0625H7.5V3.9375H10.5V5.0625Z" fill="#6D6D6D"/>
<path fill-rule="evenodd" clip-rule="evenodd" d="M10.5 14.0625H7.5V12.9375H10.5V14.0625Z" fill="#6D6D6D"/>
<path fill-rule="evenodd" clip-rule="evenodd" d="M3.9375 10.5V7.5H5.0625V10.5H3.9375Z" fill="#6D6D6D"/>
<path fill-rule="evenodd" clip-rule="evenodd" d="M12.9375 10.5V7.5H14.0625V10.5H12.9375Z" fill="#6D6D6D"/>
</svg>
