<svg width="18" height="18" viewBox="0 0 18 18" fill="none" xmlns="http://www.w3.org/2000/svg">
<path d="M7.875 8.8125C9.5325 8.8125 10.875 7.47 10.875 5.8125C10.875 4.155 9.5325 2.8125 7.875 2.8125C6.2175 2.8125 4.875 4.155 4.875 5.8125C4.875 7.47 6.2175 8.8125 7.875 8.8125ZM7.875 4.3125C8.7 4.3125 9.375 4.9875 9.375 5.8125C9.375 6.6375 8.7 7.3125 7.875 7.3125C7.05 7.3125 6.375 6.6375 6.375 5.8125C6.375 4.9875 7.05 4.3125 7.875 4.3125ZM3.375 13.3125C3.525 12.84 5.3025 12.0525 7.095 11.8575L8.08823 10.8837C8.30165 10.6745 8.17387 10.3125 7.875 10.3125C5.8725 10.3125 1.875 11.3175 1.875 13.3125V14.8125H7.71967C8.05376 14.8125 8.22107 14.4086 7.98483 14.1723L7.125 13.3125H3.375ZM15.6041 9.72037C15.3125 9.42672 14.8376 9.42679 14.5461 9.72054L11.2275 13.065L10.2042 12.0368C9.91246 11.7436 9.43781 11.7439 9.14637 12.0374C8.85776 12.3281 8.85759 12.7971 9.14598 13.088L11.2275 15.1875L15.6046 10.7702C15.8927 10.4794 15.8925 10.0108 15.6041 9.72037Z" fill="#6D6D6D"/>
</svg>
