<svg width="18" height="18" viewBox="0 0 18 18" fill="none" xmlns="http://www.w3.org/2000/svg">
<path d="M2.25 11H6.25C6.6625 11 7 10.6625 7 10.25C7 9.8375 6.6625 9.5 6.25 9.5H2.25C1.8375 9.5 1.5 9.8375 1.5 10.25C1.5 10.6625 1.8375 11 2.25 11ZM2.25 7.25H6.25C6.6625 7.25 7 6.9125 7 6.5C7 6.0875 6.6625 5.75 6.25 5.75H2.25C1.8375 5.75 1.5 6.0875 1.5 6.5C1.5 6.9125 1.8375 7.25 2.25 7.25ZM1.5 2.75C1.5 3.1625 1.8375 3.5 2.25 3.5H15.75C16.1625 3.5 16.5 3.1625 16.5 2.75C16.5 2.3375 16.1625 2 15.75 2H2.25C1.8375 2 1.5 2.3375 1.5 2.75Z" fill="#6D6D6D"/>
<path d="M2.25 14.75H3.25C3.6625 14.75 4 14.4125 4 14C4 13.5875 3.6625 13.25 3.25 13.25H2.25C1.8375 13.25 1.5 13.5875 1.5 14C1.5 14.4125 1.8375 14.75 2.25 14.75Z" fill="#6D6D6D"/>
<path d="M11.25 12.0625C9.495 12.0625 6 12.94 6 14.6875V16H16.5V14.6875C16.5 12.94 13.005 12.0625 11.25 12.0625ZM7.755 14.5C8.385 14.065 9.9075 13.5625 11.25 13.5625C12.5925 13.5625 14.115 14.065 14.745 14.5H7.755ZM11.25 11C12.6975 11 13.875 9.8225 13.875 8.375C13.875 6.9275 12.6975 5.75 11.25 5.75C9.8025 5.75 8.625 6.9275 8.625 8.375C8.625 9.8225 9.8025 11 11.25 11ZM11.25 7.25C11.8725 7.25 12.375 7.7525 12.375 8.375C12.375 8.9975 11.8725 9.5 11.25 9.5C10.6275 9.5 10.125 8.9975 10.125 8.375C10.125 7.7525 10.6275 7.25 11.25 7.25Z" fill="#6D6D6D"/>
</svg>
