<svg width="18" height="18" viewBox="0 0 18 18" fill="none" xmlns="http://www.w3.org/2000/svg">
<path fill-rule="evenodd" clip-rule="evenodd" d="M11.0199 4.5C11.0199 6.1575 9.67738 7.5 8.01988 7.5C6.36238 7.5 5.01988 6.1575 5.01988 4.5C5.01988 2.8425 6.36238 1.5 8.01988 1.5C9.67738 1.5 11.0199 2.8425 11.0199 4.5ZM9.51988 4.5C9.51988 3.675 8.84488 3 8.01988 3C7.19488 3 6.51988 3.675 6.51988 4.5C6.51988 5.325 7.19488 6 8.01988 6C8.84488 6 9.51988 5.325 9.51988 4.5Z" fill="#6D6D6D"/>
<path d="M6.90624 10.588C5.23273 10.8367 3.66056 11.5569 3.51988 12H6.89488C7.10199 12 7.26988 12.1679 7.26988 12.375V13.125C7.26988 13.3321 7.10199 13.5 6.89488 13.5H2.01988V12C2.01988 10.3511 4.75078 9.37847 6.82894 9.09065C7.04854 9.06024 7.23988 9.23395 7.23988 9.45564V10.2086C7.23988 10.4 7.09557 10.5599 6.90624 10.588Z" fill="#6D6D6D"/>
<path fill-rule="evenodd" clip-rule="evenodd" d="M15.9668 11.7653V8.963C15.9668 8.67388 15.7984 8.39007 15.5048 8.267L12.4715 6.99575C12.286 6.91818 12.0767 6.91804 11.8912 6.9956L8.85758 8.267C8.56393 8.39007 8.39549 8.67387 8.39549 8.963V11.7581C8.39339 11.8448 8.3887 12.3194 8.51351 12.9236C8.64207 13.5459 8.91744 14.352 9.52028 15.0035C10.194 15.7321 11.1072 16.0863 12.1812 16.0863C13.2595 16.0863 14.1759 15.7312 14.8504 14.9995C15.4517 14.3475 15.7249 13.542 15.8518 12.9214C15.9742 12.3231 15.9692 11.8534 15.9668 11.7653ZM14.4623 11.7888L14.4621 9.46524L12.1812 8.50929L9.90024 9.46523V11.7777L9.90013 11.7828L9.90008 11.7856L9.9 11.7961C9.89997 11.8046 9.9 11.8171 9.90024 11.8334L9.90035 11.8406C9.90104 11.8802 9.90293 11.9389 9.90777 12.0125C9.91749 12.1603 9.93892 12.3654 9.98533 12.5962C10.0803 13.0683 10.2694 13.596 10.6251 13.9795C10.9809 14.3631 11.4844 14.5778 12.1812 14.5778C12.8837 14.5778 13.3896 14.3613 13.7455 13.9755C14.1011 13.5898 14.2882 13.0634 14.381 12.5949C14.4683 12.1545 14.4629 11.8141 14.4626 11.7967L14.4623 11.7888Z" fill="#6D6D6D"/>
</svg>
