<svg width="18" height="18" viewBox="0 0 18 18" fill="none" xmlns="http://www.w3.org/2000/svg">
<path d="M1.5 5.85001C1.5 5.51864 1.76863 5.25001 2.1 5.25001H7.65C7.98137 5.25001 8.25 5.51864 8.25 5.85001V6.15001C8.25 6.48138 7.98137 6.75001 7.65 6.75001H2.1C1.76863 6.75001 1.5 6.48138 1.5 6.15001V5.85001Z" fill="#6D6D6D"/>
<path d="M1.5 11.85C1.5 11.5186 1.76863 11.25 2.1 11.25H7.65C7.98137 11.25 8.25 11.5186 8.25 11.85V12.15C8.25 12.4814 7.98137 12.75 7.65 12.75H2.1C1.76863 12.75 1.5 12.4814 1.5 12.15V11.85Z" fill="#6D6D6D"/>
<path d="M12.2917 8.10229L9.42433 5.23494C9.19002 5.00062 9.19002 4.62072 9.42433 4.38641L9.63647 4.17428C9.87078 3.93996 10.2507 3.93996 10.485 4.17428L12.2918 5.98113L15.5987 2.67427C15.833 2.43996 16.2129 2.43996 16.4472 2.67427L16.6594 2.88639C16.8937 3.12071 16.8937 3.50062 16.6593 3.73493L12.2917 8.10229Z" fill="#6D6D6D"/>
<path d="M11.6062 11.9168L10.1743 13.3487C9.93995 13.583 9.93995 13.9629 10.1743 14.1972L10.3864 14.4094C10.6207 14.6437 11.0006 14.6437 11.2349 14.4094L12.6668 12.9775L14.0988 14.4094C14.3331 14.6437 14.713 14.6437 14.9473 14.4094L15.1594 14.1972C15.3938 13.9629 15.3938 13.583 15.1594 13.3487L13.7275 11.9168L15.1594 10.4849C15.3937 10.2506 15.3937 9.87072 15.1594 9.6364L14.9472 9.42427C14.7129 9.18996 14.333 9.18996 14.0987 9.42427L12.6668 10.8561L11.235 9.42428C11.0007 9.18996 10.6208 9.18996 10.3865 9.42428L10.1743 9.63641C9.94002 9.87072 9.94002 10.2506 10.1743 10.4849L11.6062 11.9168Z" fill="#6D6D6D"/>
</svg>
