<svg width="18" height="18" viewBox="0 0 18 18" fill="none" xmlns="http://www.w3.org/2000/svg">
<path d="M11.8914 4.06309C12.0867 3.86783 12.4033 3.86783 12.5986 4.06309L14.0139 5.47848C14.2092 5.67374 14.2092 5.99033 14.0139 6.18559L12.5986 7.60098C12.4033 7.79624 12.0867 7.79624 11.8914 7.60098L10.4761 6.18559C10.2808 5.99033 10.2808 5.67374 10.4761 5.47848L11.8914 4.06309ZM6 4.06954C6.27614 4.06954 6.5 4.29339 6.5 4.56954V6.56953C6.5 6.84568 6.27614 7.06953 6 7.06953H4C3.72386 7.06953 3.5 6.84568 3.5 6.56953V4.56954C3.5 4.29339 3.72386 4.06954 4 4.06954H6ZM13.5 11.5695C13.7761 11.5695 14 11.7934 14 12.0695V14.0695C14 14.3457 13.7761 14.5695 13.5 14.5695H11.5C11.2239 14.5695 11 14.3457 11 14.0695V12.0695C11 11.7934 11.2239 11.5695 11.5 11.5695H13.5ZM6 11.5695C6.27614 11.5695 6.5 11.7934 6.5 12.0695V14.0695C6.5 14.3457 6.27614 14.5695 6 14.5695H4C3.72386 14.5695 3.5 14.3457 3.5 14.0695V12.0695C3.5 11.7934 3.72386 11.5695 4 11.5695H6ZM12.9515 2.29227C12.5611 1.90258 11.9289 1.90258 11.5385 2.29227L8.70836 5.11743C8.31724 5.50785 8.31696 6.1415 8.70773 6.53227L11.5379 9.36243C11.9284 9.75295 12.5616 9.75295 12.9521 9.36243L15.7823 6.53227C16.173 6.1415 16.1728 5.50785 15.7816 5.11743L12.9515 2.29227ZM8 3.56953C8 3.01725 7.55228 2.56953 7 2.56953H3C2.44772 2.56953 2 3.01725 2 3.56953V7.56953C2 8.12182 2.44772 8.56953 3 8.56953H7C7.55228 8.56953 8 8.12182 8 7.56953V3.56953ZM15.5 11.0695C15.5 10.5173 15.0523 10.0695 14.5 10.0695H10.5C9.94772 10.0695 9.5 10.5173 9.5 11.0695V15.0695C9.5 15.6218 9.94772 16.0695 10.5 16.0695H14.5C15.0523 16.0695 15.5 15.6218 15.5 15.0695V11.0695ZM8 11.0695C8 10.5173 7.55228 10.0695 7 10.0695H3C2.44772 10.0695 2 10.5173 2 11.0695V15.0695C2 15.6218 2.44772 16.0695 3 16.0695H7C7.55228 16.0695 8 15.6218 8 15.0695V11.0695Z" fill="#6D6D6D"/>
</svg>
