<svg width="18" height="18" viewBox="0 0 18 18" fill="none" xmlns="http://www.w3.org/2000/svg">
<path fill-rule="evenodd" clip-rule="evenodd" d="M3 7.5C3 7.60336 3.00348 7.70591 3.01034 7.80753C1.68039 8.38383 0.75 9.70826 0.75 11.25C0.75 13.3211 2.42893 15 4.5 15H13.5C15.5711 15 17.25 13.3211 17.25 11.25C17.25 9.43535 15.9611 7.92175 14.2488 7.57477C14.2496 7.54994 14.25 7.52502 14.25 7.5C14.25 6.25736 13.2426 5.25 12 5.25C11.806 5.25 11.6177 5.27456 11.4381 5.32074C10.6705 3.93677 9.19467 3 7.5 3C5.01472 3 3 5.01472 3 7.5ZM10.4074 6.55522C10.573 6.85382 10.9194 7.00288 11.2501 6.91786L11.8116 6.77349C11.8702 6.75842 11.933 6.75 12 6.75C12.4142 6.75 12.75 7.08579 12.75 7.5C12.75 7.50861 12.7499 7.5172 12.7496 7.52578L12.7289 8.15942C12.7169 8.52525 12.9708 8.84628 13.3295 8.91897L13.9509 9.04489C14.7294 9.20264 15.3617 9.76396 15.6219 10.5H12.4253C12.2182 10.5 12.0503 10.6679 12.0503 10.875V10.9742C12.0503 10.9758 12.0509 10.9775 12.0521 10.9787C12.159 11.087 12.225 11.2358 12.225 11.4C12.225 11.7314 11.9563 12 11.625 12C11.2936 12 11.025 11.7314 11.025 11.4C11.025 11.2342 11.0922 11.084 11.201 10.9754C11.2001 10.9735 11.1997 10.9713 11.1997 10.9692V10.7508C11.1997 10.6123 11.0874 10.5 10.9489 10.5H9.15001V9.75009C9.97843 9.75008 10.65 9.07851 10.65 8.25009C10.65 7.42166 9.97843 6.75009 9.15 6.75009V4.99383C9.55381 5.26019 9.88987 5.62194 10.1263 6.04822L10.4074 6.55522ZM8.25 4.59443C8.01018 4.53275 7.75886 4.5 7.5 4.5C5.84315 4.5 4.5 5.84315 4.5 7.5C4.5 7.56964 4.50235 7.6385 4.50694 7.70653L4.54259 8.23471C4.56396 8.55137 4.3837 8.8472 4.09249 8.97339L3.60674 9.18387C3.03377 9.43215 2.58634 9.91023 2.378 10.5H4.49996C4.49996 9.67157 5.17153 9 5.99996 9C6.82838 9 7.49996 9.67157 7.49996 10.5L8.25001 10.5V9.05036C8.25001 8.84326 8.4179 8.67536 8.62501 8.67536H8.72422C8.72579 8.67532 8.72731 8.67593 8.72843 8.67703C8.83679 8.78404 8.98568 8.85009 9.15 8.85009C9.48137 8.85009 9.75 8.58146 9.75 8.25009C9.75 7.91872 9.48137 7.65009 9.15 7.65009C8.98551 7.65009 8.83647 7.71628 8.72809 7.82349C8.72709 7.82447 8.72575 7.825 8.72435 7.82497L8.57802 7.82472C8.39686 7.82472 8.25 7.67786 8.25 7.49669V4.59443ZM2.25492 11.4C2.3321 12.5727 3.30776 13.5 4.5 13.5H13.5C14.6922 13.5 15.6679 12.5727 15.7451 11.4H13.125C13.125 12.2284 12.4534 12.9 11.625 12.9C10.7965 12.9 10.125 12.2285 10.125 11.4L6.75335 11.4C6.57219 11.4 6.42533 11.2531 6.42533 11.072L6.42508 10.9256C6.42504 10.9243 6.42558 10.9229 6.42656 10.9219C6.53376 10.8135 6.59996 10.6645 6.59996 10.5C6.59996 10.1686 6.33133 9.9 5.99996 9.9C5.66859 9.9 5.39996 10.1686 5.39996 10.5C5.39996 10.6643 5.46601 10.8132 5.57301 10.9216C5.57412 10.9227 5.57472 10.9242 5.57468 10.9258V11.025C5.57468 11.2321 5.40679 11.4 5.19968 11.4H2.25492Z" fill="#6D6D6D"/>
</svg>
