<svg width="18" height="18" viewBox="0 0 18 18" fill="none" xmlns="http://www.w3.org/2000/svg">
<path d="M9.60867 2.87082C9.7006 2.46693 10.1025 2.21405 10.5064 2.30598C10.9103 2.39791 11.1632 2.79985 11.0713 3.20373L8.3119 15.3265C8.21996 15.7304 7.81803 15.9832 7.41414 15.8913C7.01026 15.7994 6.75737 15.3974 6.84931 14.9936L9.60867 2.87082Z" fill="#6D6D6D"/>
<path d="M12.1819 5.78044C11.889 6.07333 11.889 6.54821 12.1819 6.8411L14.3032 8.96242L12.1819 11.0837C11.889 11.3766 11.889 11.8515 12.1819 12.1444C12.4748 12.4373 12.9497 12.4373 13.2426 12.1444L16.1594 9.22759C16.3058 9.08114 16.3058 8.8437 16.1594 8.69726L13.2426 5.78044C12.9497 5.48755 12.4748 5.48755 12.1819 5.78044Z" fill="#6D6D6D"/>
<path d="M5.74258 6.8411C6.03548 6.54821 6.03548 6.07333 5.74258 5.78044C5.44969 5.48755 4.97482 5.48755 4.68192 5.78044L1.76511 8.69726C1.61866 8.8437 1.61866 9.08114 1.76511 9.22759L4.68192 12.1444C4.97482 12.4373 5.44969 12.4373 5.74258 12.1444C6.03548 11.8515 6.03548 11.3766 5.74258 11.0837L3.62126 8.96242L5.74258 6.8411Z" fill="#6D6D6D"/>
</svg>
