<svg width="18" height="18" viewBox="0 0 18 18" fill="none" xmlns="http://www.w3.org/2000/svg">
<path d="M11.4131 8.41313C11.6306 8.19562 11.9906 8.19562 12.2081 8.41313C12.4256 8.63062 12.4256 8.99063 12.2006 9.20813L8.67562 12.7331C8.38312 13.0256 7.91062 13.0256 7.61812 12.7331L6.16313 11.2781C5.94562 11.0606 5.94562 10.7006 6.16313 10.4831C6.38063 10.2656 6.74062 10.2656 6.95813 10.4831L8.15063 11.6756L11.4131 8.41313Z" fill="#6D6D6D"/>
<path fill-rule="evenodd" clip-rule="evenodd" d="M6.75 1.5C5.92157 1.5 5.25 2.17157 5.25 3L4.5 3C3.25736 3 2.25 4.00736 2.25 5.25V14.25C2.25 15.4926 3.25736 16.5 4.5 16.5H13.5C14.7426 16.5 15.75 15.4926 15.75 14.25V5.25C15.75 4.00736 14.7426 3 13.5 3H12.75C12.75 2.17157 12.0784 1.5 11.25 1.5H6.75ZM11.25 3.375C11.25 3.16789 11.0821 3 10.875 3H7.125C6.91789 3 6.75 3.16789 6.75 3.375V4.125C6.75 4.33211 6.91789 4.5 7.125 4.5H10.875C11.0821 4.5 11.25 4.33211 11.25 4.125V3.375ZM4.5 4.5H5.25C5.25 5.32843 5.92157 6 6.75 6H11.25C12.0784 6 12.75 5.32843 12.75 4.5H13.5C13.9142 4.5 14.25 4.83579 14.25 5.25V14.25C14.25 14.6642 13.9142 15 13.5 15H4.5C4.08579 15 3.75 14.6642 3.75 14.25V5.25C3.75 4.83579 4.08579 4.5 4.5 4.5Z" fill="#6D6D6D"/>
</svg>
