<svg width="18" height="18" viewBox="0 0 18 18" fill="none" xmlns="http://www.w3.org/2000/svg">
<path d="M14.689 8.27777C15.6603 7.0628 15.7386 5.36956 14.9239 4.07833C15.12 3.877 15.4927 3.48472 15.7859 3.17515C16.0764 2.86842 16.068 2.38634 15.7682 2.08923C15.4697 1.7933 14.9899 1.78777 14.6853 2.07806C14.3785 2.37049 13.9894 2.74242 13.7866 2.94074C13.2081 2.57543 12.537 2.3814 11.8513 2.3825C10.923 2.38253 9.99429 2.73631 9.28525 3.44556L7.50915 5.22217C7.45685 5.27501 7.42753 5.34634 7.42753 5.42068C7.42753 5.49501 7.45735 5.56684 7.50965 5.61967L10.4544 8.5653C10.8612 8.25088 11.3376 8.01691 11.8578 7.88835L9.38994 5.4198L10.3245 4.48498C10.7318 4.07758 11.2741 3.85209 11.8514 3.85209C12.4288 3.85209 12.9694 4.07589 13.3784 4.48498C13.7856 4.89238 14.0111 5.43492 14.0111 6.01242C14.0111 6.58973 13.7857 7.13073 13.3782 7.54007L13.1276 7.79067C13.6941 7.84011 14.224 8.01164 14.689 8.27777Z" fill="#6D6D6D"/>
<path fill-rule="evenodd" clip-rule="evenodd" d="M9.39538 9.86941C9.17515 10.3291 9.05226 10.8411 9.05226 11.3809C9.05226 12.105 9.27345 12.7792 9.65416 13.3441L8.71442 14.2841C8.00535 14.9934 7.07654 15.3472 6.14825 15.3472C5.47533 15.3472 4.80193 15.1618 4.21299 14.7891C4.01077 14.9868 3.6234 15.3571 3.31703 15.6491C3.01103 15.9407 2.52883 15.9342 2.23008 15.6358C1.93102 15.3371 1.92428 14.8543 2.21627 14.548C2.50831 14.2418 2.87835 13.8548 3.07571 13.653C2.19124 12.251 2.35935 10.3753 3.58026 9.15222L5.35743 7.37278C5.41106 7.32248 5.48184 7.29463 5.55272 7.29429C5.5898 7.29377 5.62662 7.30065 5.66102 7.31453C5.69581 7.32858 5.72741 7.34949 5.75393 7.37603L6.40357 8.02586C6.59014 7.84456 6.9133 7.53725 7.17054 7.29342C7.44654 7.0318 7.87996 7.03775 8.14939 7.30544C8.41956 7.57386 8.4275 8.00869 8.1659 8.28612C7.92169 8.54512 7.61393 8.87041 7.43383 9.05643L8.80821 10.4312C8.95318 10.2903 9.18062 10.0734 9.39538 9.86941ZM8.60799 12.3116L7.67344 13.2465C7.47343 13.4476 7.23529 13.6073 6.97331 13.7159C6.71132 13.8244 6.43009 13.88 6.1465 13.8793C5.56913 13.8793 5.02827 13.6553 4.61931 13.2462C4.41827 13.0461 4.25886 12.8082 4.1503 12.5461C4.04174 12.284 3.98619 12.0027 3.98685 11.719C3.98685 11.1414 4.2106 10.6007 4.61956 10.1916L5.55406 9.25681L8.60799 12.3116Z" fill="#6D6D6D"/>
<path d="M14.3209 13.1687L14.4807 13.023C14.9819 12.5659 15.2934 11.9213 15.2934 11.2073C15.2934 9.82589 14.125 8.70117 12.6777 8.70117C11.2304 8.70117 10.062 9.82589 10.062 11.2073C10.062 11.9213 10.3735 12.5659 10.8747 13.023L11.0345 13.1687L10.8396 13.2656C9.55393 13.9043 8.67769 15.1908 8.67769 16.6717C8.67769 16.6829 8.68888 16.7012 8.71547 16.7012H16.6399C16.6665 16.7012 16.6777 16.6829 16.6777 16.6717C16.6777 15.1908 15.8015 13.9043 14.5158 13.2656L14.3209 13.1687Z" fill="#6D6D6D"/>
</svg>
