<svg width="18" height="18" viewBox="0 0 18 18" fill="none" xmlns="http://www.w3.org/2000/svg">
<path d="M14.6567 8.47632C15.772 7.24892 15.9236 5.43559 15.0701 4.04814L16.0234 3.17001C16.3291 2.88838 16.3487 2.41223 16.067 2.10649C15.7854 1.80076 15.3092 1.78121 15.0035 2.06285L14.0386 2.95165C12.6428 1.97114 10.7057 2.05825 9.39986 3.26111L7.87482 4.66591C7.58136 4.93624 7.5626 5.39328 7.83292 5.68674L10.5913 8.68124C11.2076 8.24821 11.9664 7.99274 12.787 7.99274C13.4682 7.99274 14.1068 8.16879 14.6567 8.47632Z" fill="#6D6D6D"/>
<path d="M9.56696 9.77036C9.23989 10.3062 9.05228 10.9308 9.05228 11.5977C9.05228 12.2001 9.20535 12.768 9.47599 13.2671L8.17407 14.4664C6.8683 15.6692 4.93121 15.7563 3.53542 14.7759L2.57046 15.6648C2.26472 15.9464 1.78857 15.9269 1.50694 15.6212C1.22531 15.3154 1.24485 14.8393 1.55058 14.5576L2.50391 13.6795C1.5936 12.1999 1.82648 10.2359 3.1522 9.01469L4.67725 7.60988C4.97071 7.33955 5.42774 7.35831 5.69807 7.65178L6.2284 8.22749L6.78201 7.71753C7.08775 7.4359 7.5639 7.45544 7.84553 7.76117C8.12716 8.06691 8.10762 8.54306 7.80189 8.8247L7.24827 9.33466L8.26815 10.4418L8.82176 9.93186C9.02962 9.7404 9.31624 9.68813 9.56696 9.77036Z" fill="#6D6D6D"/>
<path fill-rule="evenodd" clip-rule="evenodd" d="M14.4302 13.4676L14.59 13.3218C15.0912 12.8648 15.4027 12.2202 15.4027 11.5062C15.4027 10.1248 14.2343 9.00006 12.787 9.00006C11.3397 9.00006 10.1713 10.1248 10.1713 11.5062C10.1713 12.2202 10.4828 12.8648 10.984 13.3218L11.1438 13.4676L10.9489 13.5644C9.66323 14.2032 8.78699 15.4897 8.78699 16.9706C8.78699 16.9817 8.79818 17.0001 8.82477 17.0001H9.83785C9.85134 17.0001 9.8654 16.988 9.8654 16.9706C9.8654 15.4187 11.1762 14.1654 12.787 14.1654C14.3978 14.1654 15.7086 15.4187 15.7086 16.9706C15.7086 16.988 15.7226 17.0001 15.7361 17.0001H16.7492C16.7758 17.0001 16.787 16.9817 16.787 16.9706C16.787 15.4897 15.9108 14.2032 14.6251 13.5644L14.4302 13.4676ZM14.3243 11.5062C14.3243 12.3248 13.6333 12.9836 12.787 12.9836C11.9407 12.9836 11.2497 12.3248 11.2497 11.5062C11.2497 10.6877 11.9407 10.0289 12.787 10.0289C13.6333 10.0289 14.3243 10.6877 14.3243 11.5062Z" fill="#6D6D6D"/>
</svg>
