<svg width="18" height="18" viewBox="0 0 18 18" fill="none" xmlns="http://www.w3.org/2000/svg">
<path d="M6.75 10.3125C4.995 10.3125 1.5 11.19 1.5 12.9375V14.25H12V12.9375C12 11.19 8.505 10.3125 6.75 10.3125ZM3.255 12.75C3.885 12.315 5.4075 11.8125 6.75 11.8125C8.0925 11.8125 9.615 12.315 10.245 12.75H3.255ZM6.75 9C8.1975 9 9.375 7.8225 9.375 6.375C9.375 4.9275 8.1975 3.75 6.75 3.75C5.3025 3.75 4.125 4.9275 4.125 6.375C4.125 7.8225 5.3025 9 6.75 9ZM6.75 5.25C7.3725 5.25 7.875 5.7525 7.875 6.375C7.875 6.9975 7.3725 7.5 6.75 7.5C6.1275 7.5 5.625 6.9975 5.625 6.375C5.625 5.7525 6.1275 5.25 6.75 5.25ZM13.4229 10.6113C13.0498 10.5166 12.8092 11.038 13.0222 11.3587C13.3231 11.8117 13.5 12.3348 13.5 12.9375V14.25H16.5V12.9375C16.5 11.7803 14.9685 11.0038 13.4229 10.6113ZM11.25 9C12.6975 9 13.875 7.8225 13.875 6.375C13.875 4.9275 12.6975 3.75 11.25 3.75C10.9078 3.75 10.5871 3.81959 10.2878 3.94068C10.2016 3.97555 10.1742 4.08175 10.2246 4.15991C10.6363 4.79877 10.875 5.56108 10.875 6.375C10.875 7.18892 10.6363 7.95123 10.2246 8.59009C10.1742 8.66825 10.2016 8.77445 10.2878 8.80931C10.5871 8.93041 10.9078 9 11.25 9Z" fill="#6D6D6D"/>
</svg>
