<svg width="18" height="18" viewBox="0 0 18 18" fill="none" xmlns="http://www.w3.org/2000/svg">
<path fill-rule="evenodd" clip-rule="evenodd" d="M13.2796 4.5L13.2806 4.50319C13.3162 4.61112 13.3477 4.72092 13.375 4.83239C13.4567 5.16652 13.5 5.5157 13.5 5.875C13.5 5.94404 13.444 6 13.375 6H4.77273C4.6221 6 4.5 5.8779 4.5 5.72727C4.5 3.39261 6.39261 1.5 8.72727 1.5H9.125C11.0609 1.5 12.7031 2.75737 13.2796 4.5ZM9.125 3C10.2148 3 11.1629 3.60631 11.6505 4.5H6.29108C6.74021 3.61021 7.66248 3 8.72727 3H9.125Z" fill="#6D6D6D"/>
<path fill-rule="evenodd" clip-rule="evenodd" d="M2.25 8.0625C2.25 7.75184 2.50184 7.5 2.8125 7.5H7.5C7.91421 7.5 8.25 7.83579 8.25 8.25V16.5C7.72405 16.5 7.21917 16.4098 6.75 16.2439C5.00221 15.6262 3.75 13.9593 3.75 12V11.625H2.8125C2.50184 11.625 2.25 11.3732 2.25 11.0625C2.25 10.7518 2.50184 10.5 2.8125 10.5H3.75V8.625H2.8125C2.50184 8.625 2.25 8.37316 2.25 8.0625ZM6.75 14.5987V9H5.25V12C5.25 13.1104 5.8533 14.0799 6.75 14.5987Z" fill="#6D6D6D"/>
<path fill-rule="evenodd" clip-rule="evenodd" d="M15.75 8.0625C15.75 7.75184 15.4982 7.5 15.1875 7.5H10.5C10.0858 7.5 9.75 7.83579 9.75 8.25V16.5C10.276 16.5 10.7808 16.4098 11.25 16.2439C12.9978 15.6262 14.25 13.9593 14.25 12V11.625H15.1875C15.4982 11.625 15.75 11.3732 15.75 11.0625C15.75 10.7518 15.4982 10.5 15.1875 10.5H14.25V8.625H15.1875C15.4982 8.625 15.75 8.37316 15.75 8.0625ZM11.25 14.5987V9H12.75V12C12.75 13.1104 12.1467 14.0799 11.25 14.5987Z" fill="#6D6D6D"/>
</svg>
