<svg width="22" height="22" viewBox="0 0 22 22" fill="currentColor" xmlns="http://www.w3.org/2000/svg">
  <path d="M15.5837 5.5H6.41699C3.38283 5.5 0.916992 7.96583 0.916992 11C0.916992 14.0342 3.38283 16.5 6.41699 16.5H15.5837C18.6178 16.5 21.0837 14.0342 21.0837 11C21.0837 7.96583 18.6178 5.5 15.5837 5.5ZM15.5837 14.6667H6.41699C4.39116 14.6667 2.75033 13.0258 2.75033 11C2.75033 8.97417 4.39116 7.33333 6.41699 7.33333H15.5837C17.6095 7.33333 19.2503 8.97417 19.2503 11C19.2503 13.0258 17.6095 14.6667 15.5837 14.6667ZM15.5837 8.25C14.062 8.25 12.8337 9.47833 12.8337 11C12.8337 12.5217 14.062 13.75 15.5837 13.75C17.1053 13.75 18.3337 12.5217 18.3337 11C18.3337 9.47833 17.1053 8.25 15.5837 8.25Z" fill="currentColor" />
</svg>
