<svg width="20" height="16" viewBox="0 0 20 16" fill="currentColor" xmlns="http://www.w3.org/2000/svg">
  <path
    d="M18.759 2.22427C18.373 1.75802 17.9075 1.40833 17.3625 1.19851C16.8289 0.988696 16.2158 0.883789 15.5573 0.883789C14.8988 0.883789 14.2971 0.988696 13.7521 1.19851C13.2072 1.40833 12.7417 1.74636 12.3557 2.22427C11.9696 2.70218 11.6744 3.30831 11.4587 4.07763C11.2544 4.8353 11.1408 5.76781 11.1408 6.8635V9.10153C11.1408 10.1972 11.243 11.1297 11.4587 11.8874C11.6744 12.6567 11.9696 13.2745 12.367 13.7524C12.753 14.2303 13.2185 14.58 13.7635 14.7898C14.3085 14.9996 14.9102 15.1162 15.5687 15.1162C16.2386 15.1162 16.8403 15.0113 17.3739 14.7898C17.9189 14.58 18.373 14.2303 18.759 13.7524C19.1451 13.2745 19.4402 12.6567 19.6446 11.8874C19.849 11.1297 19.9625 10.1972 19.9625 9.10153V6.8635C19.9625 5.76781 19.8603 4.8353 19.6446 4.07763C19.4402 3.30831 19.1451 2.69053 18.759 2.22427ZM17.7145 9.41625C17.7145 10.1156 17.6691 10.7101 17.5783 11.1997C17.4874 11.6892 17.3512 12.0856 17.1695 12.3886C16.9879 12.6917 16.7608 12.9132 16.4997 13.053C16.2386 13.1929 15.9207 13.2628 15.5687 13.2628C15.2281 13.2628 14.9102 13.1929 14.6377 13.053C14.3652 12.9132 14.1382 12.6917 13.9565 12.3886C13.7748 12.0856 13.6272 11.6892 13.5251 11.1997C13.4229 10.7101 13.3775 10.1156 13.3775 9.41625V6.50216C13.3775 5.80277 13.4229 5.2083 13.5251 4.73039C13.6272 4.25248 13.7635 3.86782 13.9565 3.56475C14.1382 3.27334 14.3652 3.06353 14.6377 2.92365C14.9102 2.79543 15.2167 2.72549 15.5573 2.72549C15.9093 2.72549 16.2158 2.79543 16.477 2.92365C16.7495 3.05187 16.9765 3.26169 17.1582 3.56475C17.3398 3.85616 17.4874 4.24082 17.5783 4.71873C17.6691 5.19664 17.7259 5.79112 17.7259 6.4905V9.41625H17.7145Z"
    fill="currentColor" />
  <path d="M0.0371094 3.13347V5.09174L3.44316 3.9261V15.1162H5.71386V1.12857H5.43002L0.0371094 3.13347Z" fill="currentColor" />
  <path d="M7.98456 12.7849H10.2553V15.1162H7.98456V12.7849Z" fill="currentColor" />
</svg>
