<svg width="22" height="22" viewBox="0 0 22 22" fill="currentColor" xmlns="http://www.w3.org/2000/svg">
  <path
    d="M18.3141 9.16666C18.5946 9.16666 18.839 8.97581 18.907 8.70376L19.0598 8.09265C19.1562 7.70695 18.8645 7.33332 18.4669 7.33332H15.5829L16.3098 4.42598C16.4062 4.04028 16.1145 3.66666 15.7169 3.66666H15.1434C14.863 3.66666 14.6186 3.8575 14.5506 4.12955L13.7496 7.33332H10.0829L10.8098 4.42598C10.9062 4.04028 10.6145 3.66666 10.2169 3.66666H9.64342C9.363 3.66666 9.11857 3.8575 9.05056 4.12955L8.24961 7.33332H5.06009C4.77967 7.33332 4.53524 7.52417 4.46722 7.79622L4.31445 8.40733C4.21802 8.79303 4.50974 9.16666 4.90731 9.16666H7.79128L6.87461 12.8333H3.68509C3.40467 12.8333 3.16024 13.0242 3.09222 13.2962L2.93945 13.9073C2.84302 14.293 3.13474 14.6667 3.53231 14.6667H6.41628L5.68945 17.574C5.59302 17.9597 5.88474 18.3333 6.28231 18.3333H6.85581C7.13623 18.3333 7.38066 18.1425 7.44867 17.8704L8.24961 14.6667H11.9163L11.1894 17.574C11.093 17.9597 11.3847 18.3333 11.7823 18.3333H12.3558C12.6362 18.3333 12.8807 18.1425 12.9487 17.8704L13.7496 14.6667H16.9391C17.2196 14.6667 17.464 14.4758 17.532 14.2038L17.6848 13.5926C17.7812 13.2069 17.4895 12.8333 17.0919 12.8333H14.2079L15.1246 9.16666H18.3141ZM12.3746 12.8333H8.70795L9.62461 9.16666H13.2913L12.3746 12.8333Z"
    fill="currentColor" />
</svg>
