<svg width="22" height="22" viewBox="0 0 22 22" fill="currentColor" xmlns="http://www.w3.org/2000/svg">
  <path
    d="M6.41667 10.6945C6.41667 10.3569 6.69027 10.0833 7.02778 10.0833H7.63889C7.9764 10.0833 8.25 10.3569 8.25 10.6945V11.3056C8.25 11.6431 7.9764 11.9167 7.63889 11.9167H7.02778C6.69027 11.9167 6.41667 11.6431 6.41667 11.3056V10.6945ZM19.25 5.50001V18.3333C19.25 19.3417 18.425 20.1667 17.4167 20.1667H4.58333C3.56583 20.1667 2.75 19.3417 2.75 18.3333L2.75917 5.50001C2.75917 4.49168 3.56583 3.66668 4.58333 3.66668H5.5V2.44445C5.5 2.10695 5.7736 1.83334 6.11111 1.83334H6.72222C7.05973 1.83334 7.33333 2.10695 7.33333 2.44445V3.66668H14.6667V2.44445C14.6667 2.10695 14.9403 1.83334 15.2778 1.83334H15.8889C16.2264 1.83334 16.5 2.10695 16.5 2.44445V3.66668H17.4167C18.425 3.66668 19.25 4.49168 19.25 5.50001ZM4.58333 6.72223C4.58333 7.05974 4.85694 7.33334 5.19444 7.33334H16.8056C17.1431 7.33334 17.4167 7.05974 17.4167 6.72223V6.11112C17.4167 5.77361 17.1431 5.50001 16.8056 5.50001H5.19444C4.85694 5.50001 4.58333 5.77361 4.58333 6.11112V6.72223ZM16.8056 18.3333C17.1431 18.3333 17.4167 18.0597 17.4167 17.7222V9.77779C17.4167 9.44028 17.1431 9.16668 16.8056 9.16668H5.19444C4.85694 9.16668 4.58333 9.44028 4.58333 9.77779V17.7222C4.58333 18.0597 4.85694 18.3333 5.19444 18.3333H16.8056ZM13.75 11.3056C13.75 11.6431 14.0236 11.9167 14.3611 11.9167H14.9722C15.3097 11.9167 15.5833 11.6431 15.5833 11.3056V10.6945C15.5833 10.3569 15.3097 10.0833 14.9722 10.0833H14.3611C14.0236 10.0833 13.75 10.3569 13.75 10.6945V11.3056ZM10.0833 11.3056C10.0833 11.6431 10.3569 11.9167 10.6944 11.9167H11.3056C11.6431 11.9167 11.9167 11.6431 11.9167 11.3056V10.6945C11.9167 10.3569 11.6431 10.0833 11.3056 10.0833H10.6944C10.3569 10.0833 10.0833 10.3569 10.0833 10.6945V11.3056Z"
    fill="currentColor" />
</svg>
