<svg width="23" height="22" viewBox="0 0 23 22" fill="currentColor" xmlns="http://www.w3.org/2000/svg">
  <path d="M6.90385 5.40039C6.90385 5.04141 6.61283 4.75039 6.25385 4.75039H5.63672C5.27773 4.75039 4.98672 5.04141 4.98672 5.40039V16.6001C4.98672 16.9591 5.27773 17.2501 5.63672 17.2501H6.25385C6.61283 17.2501 6.90385 16.9591 6.90385 16.6001V5.40039Z" fill="currentColor" stroke="currentColor" stroke-width="0.3" />
  <path
    d="M16.508 9.79196L16.508 9.79195L16.5072 9.79362C16.3441 10.1198 16.0838 10.3771 15.7181 10.5652C15.3555 10.7517 14.8704 10.8502 14.2534 10.8502H11.521V6.72426C11.521 6.53096 11.6777 6.37426 11.871 6.37426H14.2534C14.8679 6.37426 15.3502 6.48595 15.7109 6.69723L15.7109 6.69723L15.7123 6.69803C16.0798 6.90802 16.3421 7.18262 16.5064 7.5214L16.5064 7.5214L16.5072 7.52304C16.6809 7.87053 16.7679 8.24133 16.7679 8.63738C16.7679 9.07486 16.68 9.4585 16.508 9.79196ZM11.521 16.6001V12.4657H14.2534C15.1897 12.4657 15.9912 12.3211 16.6523 12.0253L16.6523 12.0253L16.6533 12.0249C17.3154 11.7229 17.8229 11.2815 18.1695 10.7C18.5156 10.1192 18.685 9.42388 18.685 8.62062C18.685 7.87641 18.5146 7.21003 18.17 6.62592C17.8244 6.03447 17.3185 5.57398 16.6582 5.24382C15.9953 4.91241 15.1917 4.75039 14.2534 4.75039H10.2539C9.89492 4.75039 9.60391 5.04141 9.60391 5.40039V16.6001C9.60391 16.9591 9.89492 17.2501 10.2539 17.2501H10.871C11.23 17.2501 11.521 16.9591 11.521 16.6001Z"
    fill="currentColor"
    stroke="currentColor"
    stroke-width="0.3" />
</svg>
