<svg width="16" height="16" viewBox="0 0 16 16" fill="none" xmlns="http://www.w3.org/2000/svg">
<path d="M5.34984 6.11664C5.17761 6.11664 5.03039 6.05553 4.90817 5.9333C4.78595 5.81108 4.72484 5.66386 4.72484 5.49164C4.72484 5.31942 4.78595 5.17219 4.90817 5.04997C5.03039 4.92775 5.17761 4.86664 5.34984 4.86664H13.2082C13.3804 4.86664 13.5276 4.92775 13.6498 5.04997C13.7721 5.17219 13.8332 5.31942 13.8332 5.49164C13.8332 5.66386 13.7721 5.81108 13.6498 5.9333C13.5276 6.05553 13.3804 6.11664 13.2082 6.11664H5.34984ZM5.34984 8.61664C5.17761 8.61664 5.03039 8.55553 4.90817 8.4333C4.78595 8.31108 4.72484 8.16386 4.72484 7.99164C4.72484 7.81942 4.78595 7.67219 4.90817 7.54997C5.03039 7.42775 5.17761 7.36664 5.34984 7.36664H13.2082C13.3804 7.36664 13.5276 7.42775 13.6498 7.54997C13.7721 7.67219 13.8332 7.81942 13.8332 7.99164C13.8332 8.16386 13.7721 8.31108 13.6498 8.4333C13.5276 8.55553 13.3804 8.61664 13.2082 8.61664H5.34984ZM5.34984 11.1166C5.17761 11.1166 5.03039 11.0555 4.90817 10.9333C4.78595 10.8111 4.72484 10.6639 4.72484 10.4916C4.72484 10.3194 4.78595 10.1722 4.90817 10.05C5.03039 9.92775 5.17761 9.86664 5.34984 9.86664H13.2082C13.3804 9.86664 13.5276 9.92775 13.6498 10.05C13.7721 10.1722 13.8332 10.3194 13.8332 10.4916C13.8332 10.6639 13.7721 10.8111 13.6498 10.9333C13.5276 11.0555 13.3804 11.1166 13.2082 11.1166H5.34984ZM2.79984 6.11664C2.62762 6.11664 2.479 6.05553 2.354 5.9333C2.229 5.81108 2.1665 5.66386 2.1665 5.49164C2.1665 5.31386 2.229 5.16525 2.354 5.0458C2.479 4.92636 2.62762 4.86664 2.79984 4.86664C2.97761 4.86664 3.12761 4.92636 3.24984 5.0458C3.37206 5.16525 3.43317 5.31386 3.43317 5.49164C3.43317 5.66386 3.37206 5.81108 3.24984 5.9333C3.12761 6.05553 2.97761 6.11664 2.79984 6.11664ZM2.79984 8.61664C2.62762 8.61664 2.479 8.55414 2.354 8.42914C2.229 8.30414 2.1665 8.15275 2.1665 7.97497C2.1665 7.79719 2.229 7.64858 2.354 7.52914C2.479 7.40969 2.62762 7.34997 2.79984 7.34997C2.97761 7.34997 3.12761 7.40969 3.24984 7.52914C3.37206 7.64858 3.43317 7.79719 3.43317 7.97497C3.43317 8.15275 3.37206 8.30414 3.24984 8.42914C3.12761 8.55414 2.97761 8.61664 2.79984 8.61664ZM2.79984 11.125C2.62762 11.125 2.479 11.0639 2.354 10.9416C2.229 10.8194 2.1665 10.6722 2.1665 10.5C2.1665 10.3166 2.229 10.1639 2.354 10.0416C2.479 9.91942 2.62762 9.8583 2.79984 9.8583C2.97761 9.8583 3.12761 9.91942 3.24984 10.0416C3.37206 10.1639 3.43317 10.3166 3.43317 10.5C3.43317 10.6722 3.37206 10.8194 3.24984 10.9416C3.12761 11.0639 2.97761 11.125 2.79984 11.125Z" fill="currentColor"/>
</svg>
