<svg width="22" height="22" viewBox="0 0 22 22" fill="currentColor" xmlns="http://www.w3.org/2000/svg">
  <path d="M2.9031 4.125C2.5656 4.125 2.29199 4.3986 2.29199 4.73611V6.26389C2.29199 6.6014 2.5656 6.875 2.9031 6.875H6.87533V17.2639C6.87533 17.6014 7.14893 17.875 7.48644 17.875H9.01421C9.35172 17.875 9.62533 17.6014 9.62533 17.2639V6.875H13.5975C13.9351 6.875 14.2087 6.6014 14.2087 6.26389V4.73611C14.2087 4.3986 13.9351 4.125 13.5975 4.125H2.9031ZM19.7087 9.31944C19.7087 8.98194 19.4351 8.70833 19.0975 8.70833H12.0698C11.7323 8.70833 11.4587 8.98194 11.4587 9.31944V10.8472C11.4587 11.1847 11.7323 11.4583 12.0698 11.4583H14.2087V17.2639C14.2087 17.6014 14.4823 17.875 14.8198 17.875H16.3475C16.6851 17.875 16.9587 17.6014 16.9587 17.2639V11.4583H19.0975C19.4351 11.4583 19.7087 11.1847 19.7087 10.8472V9.31944Z" fill="black" />
</svg>
