<svg width="50" height="51" viewBox="0 0 50 51" fill="none" xmlns="http://www.w3.org/2000/svg">
<path fill-rule="evenodd" clip-rule="evenodd" d="M16.092 21.1902L18.319 25.7362L13.6748 25.7423L16.092 21.1902ZM13.8896 18L7 31.7423H10.6442L12.411 28.0429H19.3681L21.0184 31.7423H27.681L21.092 18H13.8896ZM43.4045 19.5585C42.7603 17.7794 40.9076 18.0125 40.9076 18.0125H35.6928C35.6928 18.0125 33.8401 17.7794 33.1959 19.5585C32.5517 21.3376 32.7665 29.2886 33.1959 30.1168C33.6254 30.945 34.0916 31.7426 35.6622 31.7426H38.472H40.9321C42.5027 31.7426 42.9628 30.945 43.3984 30.1168C43.8339 29.2886 44.0487 21.3376 43.4045 19.5585ZM39.8217 28.7303C39.8217 29.1659 39.4658 29.5156 39.0364 29.5156H37.5763C37.1407 29.5156 36.791 29.1659 36.791 28.7303V21.0432C36.791 20.6137 37.1407 20.264 37.5763 20.264H39.0364C39.472 20.264 39.8217 20.6137 39.8217 21.0432V28.7303ZM27.7297 31.7426H31.6376L31.6499 18.0186H29.3247L25.1039 20.2886C25.1039 20.2886 25.0855 22.7671 25.1039 22.7303H27.7297V31.7426Z" fill="#0066CC"/>
</svg>
