<svg width="50" height="51" viewBox="0 0 50 51" fill="none" xmlns="http://www.w3.org/2000/svg">
<path d="M36.9728 18.9732C36.9728 12.3571 31.5305 7 24.8094 7H24.5372V14.5536H24.8094C27.2856 14.5536 29.3264 16.5357 29.3264 19C29.3279 19.5843 29.212 20.1631 28.9855 20.7032C28.759 21.2433 28.4263 21.7341 28.0066 22.1473C27.5869 22.5604 27.0883 22.8879 26.5397 23.1108C25.991 23.3338 25.403 23.4478 24.8094 23.4464H24.5372V31H24.8094C27.1767 31 29.5169 30.3304 31.4761 29.0446L32.1836 30.6518H37L36.9728 18.9732Z" fill="#1C1B29"/>
<path d="M22.3335 30.7585C21.9525 30.7585 21.6804 30.4639 21.6804 30.1157V23.3657C21.6804 22.9907 21.9797 22.7228 22.3335 22.7228C22.7144 22.7228 22.9865 23.0174 22.9865 23.3657V30.1157C22.9865 30.4639 22.6872 30.7585 22.3335 30.7585ZM13.6803 23.9014C13.2993 23.9014 13 23.6067 13 23.2585V14.6871C13.0272 14.3121 13.3537 14.0442 13.7075 14.071C13.8682 14.0864 14.0184 14.1563 14.1326 14.2686C14.2468 14.381 14.3177 14.5289 14.3334 14.6871V23.2317C14.3334 23.6067 14.034 23.9014 13.6803 23.9014ZM16.5647 16.4014C16.1837 16.4014 15.8844 16.1067 15.8844 15.7585V10.696C15.8572 10.321 16.1293 10.0264 16.5103 9.99959C16.8912 9.9728 17.1905 10.2407 17.2177 10.6157V15.7585C17.2177 16.1067 16.9184 16.4014 16.5647 16.4014ZM16.5647 27.9728C16.1837 27.9728 15.8844 27.6782 15.8844 27.3299V18.946C15.8572 18.571 16.1293 18.2764 16.5103 18.2496C16.8912 18.2228 17.1905 18.4907 17.2177 18.8657V27.3299C17.2177 27.6782 16.9184 27.9728 16.5647 27.9728ZM19.4491 29.7942C19.0681 29.7942 18.7688 29.4996 18.7688 29.1514V24.6514C18.796 24.2764 19.1225 24.0085 19.4763 24.0353C19.637 24.0507 19.7872 24.1205 19.9014 24.2329C20.0155 24.3453 20.0865 24.4932 20.1021 24.6514V29.1514C20.1021 29.4996 19.8028 29.7942 19.4491 29.7942ZM19.4491 22.0799C19.0681 22.0799 18.7688 21.7853 18.7688 21.4103V8.63351C18.7416 8.25851 19.0137 7.96387 19.3946 7.93709C19.7756 7.9103 20.0749 8.17816 20.1021 8.55316V21.4103C20.1021 21.7853 19.8028 22.0799 19.4491 22.0799ZM22.3335 15.2764C21.9525 15.2764 21.6804 14.9817 21.6804 14.6067V7.82994C21.6804 7.45494 21.9797 7.18709 22.3335 7.18709C22.7144 7.18709 22.9865 7.48173 22.9865 7.82994V14.6067C22.9865 14.9817 22.6872 15.2764 22.3335 15.2764Z" fill="#FA4216"/>
<path d="M8.44727 40.2119H6.54785V39.4453H8.44727C8.8151 39.4453 9.11296 39.3867 9.34082 39.2695C9.56868 39.1523 9.7347 38.9896 9.83887 38.7812C9.94629 38.5729 10 38.3353 10 38.0684C10 37.8242 9.94629 37.5947 9.83887 37.3799C9.7347 37.165 9.56868 36.9925 9.34082 36.8623C9.11296 36.7288 8.8151 36.6621 8.44727 36.6621H6.76758V43H5.8252V35.8906H8.44727C8.98438 35.8906 9.43848 35.9834 9.80957 36.1689C10.1807 36.3545 10.4622 36.6117 10.6543 36.9404C10.8464 37.266 10.9424 37.6387 10.9424 38.0586C10.9424 38.5143 10.8464 38.9033 10.6543 39.2256C10.4622 39.5479 10.1807 39.7936 9.80957 39.9629C9.43848 40.1289 8.98438 40.2119 8.44727 40.2119Z" fill="#1C1D1F"/>
<path d="M12.9004 38.5469V43H11.9971V37.7168H12.876L12.9004 38.5469ZM14.5508 37.6875L14.5459 38.5273C14.471 38.5111 14.3994 38.5013 14.3311 38.498C14.266 38.4915 14.1911 38.4883 14.1064 38.4883C13.8981 38.4883 13.7142 38.5208 13.5547 38.5859C13.3952 38.651 13.2601 38.7422 13.1494 38.8594C13.0387 38.9766 12.9508 39.1165 12.8857 39.2793C12.8239 39.4388 12.7832 39.6146 12.7637 39.8066L12.5098 39.9531C12.5098 39.6341 12.5407 39.3346 12.6025 39.0547C12.6676 38.7747 12.7669 38.5273 12.9004 38.3125C13.0339 38.0944 13.2031 37.9251 13.4082 37.8047C13.6165 37.681 13.8639 37.6191 14.1504 37.6191C14.2155 37.6191 14.2904 37.6273 14.375 37.6436C14.4596 37.6566 14.5182 37.6712 14.5508 37.6875Z" fill="#1C1D1F"/>
<path d="M17.4805 43.0977C17.1126 43.0977 16.779 43.0358 16.4795 42.9121C16.1833 42.7852 15.9277 42.6077 15.7129 42.3799C15.5013 42.152 15.3385 41.8818 15.2246 41.5693C15.1107 41.2568 15.0537 40.915 15.0537 40.5439V40.3389C15.0537 39.9092 15.1172 39.5267 15.2441 39.1914C15.3711 38.8529 15.5436 38.5664 15.7617 38.332C15.9798 38.0977 16.2272 37.9202 16.5039 37.7998C16.7806 37.6794 17.0671 37.6191 17.3633 37.6191C17.7409 37.6191 18.0664 37.6842 18.3398 37.8145C18.6165 37.9447 18.8428 38.127 19.0186 38.3613C19.1943 38.5924 19.3245 38.8659 19.4092 39.1816C19.4938 39.4941 19.5361 39.8359 19.5361 40.207V40.6123H15.5908V39.875H18.6328V39.8066C18.6198 39.5723 18.571 39.3444 18.4863 39.123C18.4049 38.9017 18.2747 38.7194 18.0957 38.5762C17.9167 38.4329 17.6725 38.3613 17.3633 38.3613C17.1582 38.3613 16.9694 38.4053 16.7969 38.4932C16.6243 38.5778 16.4762 38.7048 16.3525 38.874C16.2288 39.0433 16.1328 39.25 16.0645 39.4941C15.9961 39.7383 15.9619 40.0199 15.9619 40.3389V40.5439C15.9619 40.7946 15.9961 41.0306 16.0645 41.252C16.1361 41.4701 16.2386 41.6621 16.3721 41.8281C16.5088 41.9941 16.6732 42.1243 16.8652 42.2188C17.0605 42.3132 17.2819 42.3604 17.5293 42.3604C17.8483 42.3604 18.1185 42.2952 18.3398 42.165C18.5612 42.0348 18.7549 41.8607 18.9209 41.6426L19.4678 42.0771C19.3538 42.2497 19.209 42.4141 19.0332 42.5703C18.8574 42.7266 18.641 42.8535 18.3838 42.9512C18.1299 43.0488 17.8288 43.0977 17.4805 43.0977Z" fill="#1C1D1F"/>
<path d="M21.4893 38.7666V43H20.5811V37.7168H21.4404L21.4893 38.7666ZM21.3037 40.1582L20.8838 40.1436C20.887 39.7822 20.9342 39.4486 21.0254 39.1426C21.1165 38.8333 21.2516 38.5648 21.4307 38.3369C21.6097 38.109 21.8327 37.9333 22.0996 37.8096C22.3665 37.6826 22.6758 37.6191 23.0273 37.6191C23.2747 37.6191 23.5026 37.6549 23.7109 37.7266C23.9193 37.7949 24.0999 37.904 24.2529 38.0537C24.4059 38.2035 24.5247 38.3955 24.6094 38.6299C24.694 38.8643 24.7363 39.1475 24.7363 39.4795V43H23.833V39.5234C23.833 39.2467 23.7858 39.0254 23.6914 38.8594C23.6003 38.6934 23.4701 38.5729 23.3008 38.498C23.1315 38.4199 22.9329 38.3809 22.7051 38.3809C22.4382 38.3809 22.2152 38.4281 22.0361 38.5225C21.8571 38.6169 21.7139 38.7471 21.6064 38.9131C21.499 39.0791 21.4209 39.2695 21.3721 39.4844C21.3265 39.696 21.3037 39.9206 21.3037 40.1582ZM24.7266 39.6602L24.1211 39.8457C24.1243 39.556 24.1715 39.2777 24.2627 39.0107C24.3571 38.7438 24.4922 38.5062 24.668 38.2979C24.847 38.0895 25.0667 37.9251 25.3271 37.8047C25.5876 37.681 25.8854 37.6191 26.2207 37.6191C26.5039 37.6191 26.7546 37.6566 26.9727 37.7314C27.194 37.8063 27.3796 37.9219 27.5293 38.0781C27.6823 38.2311 27.7979 38.4281 27.876 38.6689C27.9541 38.9098 27.9932 39.1963 27.9932 39.5283V43H27.085V39.5186C27.085 39.2223 27.0378 38.9928 26.9434 38.8301C26.8522 38.6641 26.722 38.5485 26.5527 38.4834C26.3867 38.415 26.1882 38.3809 25.957 38.3809C25.7585 38.3809 25.5827 38.415 25.4297 38.4834C25.2767 38.5518 25.1481 38.6462 25.0439 38.7666C24.9398 38.8838 24.86 39.0189 24.8047 39.1719C24.7526 39.3249 24.7266 39.4876 24.7266 39.6602Z" fill="#1C1D1F"/>
<path d="M30.3418 37.7168V43H29.4336V37.7168H30.3418ZM29.3652 36.3154C29.3652 36.1689 29.4092 36.0452 29.4971 35.9443C29.5882 35.8434 29.7217 35.793 29.8975 35.793C30.07 35.793 30.2018 35.8434 30.293 35.9443C30.3874 36.0452 30.4346 36.1689 30.4346 36.3154C30.4346 36.4554 30.3874 36.5758 30.293 36.6768C30.2018 36.7744 30.07 36.8232 29.8975 36.8232C29.7217 36.8232 29.5882 36.7744 29.4971 36.6768C29.4092 36.5758 29.3652 36.4554 29.3652 36.3154Z" fill="#1C1D1F"/>
<path d="M35.0244 41.7793V37.7168H35.9326V43H35.0684L35.0244 41.7793ZM35.1953 40.666L35.5713 40.6562C35.5713 41.0078 35.5339 41.3333 35.459 41.6328C35.3874 41.929 35.2702 42.1862 35.1074 42.4043C34.9447 42.6224 34.7314 42.7933 34.4678 42.917C34.2041 43.0374 33.8835 43.0977 33.5059 43.0977C33.2487 43.0977 33.0127 43.0602 32.7979 42.9854C32.5863 42.9105 32.404 42.7949 32.251 42.6387C32.098 42.4824 31.9792 42.279 31.8945 42.0283C31.8132 41.7777 31.7725 41.4766 31.7725 41.125V37.7168H32.6758V41.1348C32.6758 41.3724 32.7018 41.5693 32.7539 41.7256C32.8092 41.8786 32.8825 42.0007 32.9736 42.0918C33.068 42.1797 33.1722 42.2415 33.2861 42.2773C33.4033 42.3132 33.5238 42.3311 33.6475 42.3311C34.0316 42.3311 34.3359 42.2578 34.5605 42.1113C34.7852 41.9616 34.9463 41.7614 35.0439 41.5107C35.1449 41.2568 35.1953 40.9753 35.1953 40.666Z" fill="#1C1D1F"/>
<path d="M38.208 38.7666V43H37.2998V37.7168H38.1592L38.208 38.7666ZM38.0225 40.1582L37.6025 40.1436C37.6058 39.7822 37.653 39.4486 37.7441 39.1426C37.8353 38.8333 37.9704 38.5648 38.1494 38.3369C38.3285 38.109 38.5514 37.9333 38.8184 37.8096C39.0853 37.6826 39.3945 37.6191 39.7461 37.6191C39.9935 37.6191 40.2214 37.6549 40.4297 37.7266C40.638 37.7949 40.8187 37.904 40.9717 38.0537C41.1247 38.2035 41.2435 38.3955 41.3281 38.6299C41.4128 38.8643 41.4551 39.1475 41.4551 39.4795V43H40.5518V39.5234C40.5518 39.2467 40.5046 39.0254 40.4102 38.8594C40.319 38.6934 40.1888 38.5729 40.0195 38.498C39.8503 38.4199 39.6517 38.3809 39.4238 38.3809C39.1569 38.3809 38.9339 38.4281 38.7549 38.5225C38.5758 38.6169 38.4326 38.7471 38.3252 38.9131C38.2178 39.0791 38.1396 39.2695 38.0908 39.4844C38.0452 39.696 38.0225 39.9206 38.0225 40.1582ZM41.4453 39.6602L40.8398 39.8457C40.8431 39.556 40.8903 39.2777 40.9814 39.0107C41.0758 38.7438 41.2109 38.5062 41.3867 38.2979C41.5658 38.0895 41.7855 37.9251 42.0459 37.8047C42.3063 37.681 42.6042 37.6191 42.9395 37.6191C43.2227 37.6191 43.4733 37.6566 43.6914 37.7314C43.9128 37.8063 44.0983 37.9219 44.248 38.0781C44.401 38.2311 44.5166 38.4281 44.5947 38.6689C44.6729 38.9098 44.7119 39.1963 44.7119 39.5283V43H43.8037V39.5186C43.8037 39.2223 43.7565 38.9928 43.6621 38.8301C43.571 38.6641 43.4408 38.5485 43.2715 38.4834C43.1055 38.415 42.9069 38.3809 42.6758 38.3809C42.4772 38.3809 42.3014 38.415 42.1484 38.4834C41.9954 38.5518 41.8669 38.6462 41.7627 38.7666C41.6585 38.8838 41.5788 39.0189 41.5234 39.1719C41.4714 39.3249 41.4453 39.4876 41.4453 39.6602Z" fill="#1C1D1F"/>
</svg>
