<svg width="50" height="48" viewBox="0 0 50 48" fill="none" xmlns="http://www.w3.org/2000/svg">
<path d="M29.181 22.9773C31.7024 22.9773 33.2227 24.4616 33.2227 27.2802V34.9023H29.8306V28.3713C29.8306 26.7977 29.116 25.99 27.8439 25.99C26.5719 25.9901 25.789 26.7978 25.7889 28.3713V34.9023H22.3961V28.3713C22.3961 26.7978 21.6821 25.9901 20.4102 25.99C19.1381 25.99 18.3545 26.7977 18.3545 28.3713V34.9023H14.9624V23.1982H18.3582V24.8574C19.1375 23.8743 20.1655 22.9773 21.8846 22.9773C23.4469 22.9773 24.6309 23.6539 25.2537 24.8349C26.3043 23.635 27.5537 22.9774 29.181 22.9773Z" fill="#0D0B4D"/>
<path d="M10.8175 20.2073V23.1982H13.6364V26.0386H10.8175V30.2783C10.8177 30.9921 11.4095 31.5713 12.139 31.5714H13.6364V34.8906H12.139C9.54138 34.8906 7.42484 32.8201 7.42469 30.2783V26.0386H6V23.1982H7.42469V20.2073H10.8175Z" fill="#0D0B4D"/>
<path d="M44 20.6678H37.9297V19.9725C37.9297 18.5071 38.5141 17.8006 39.7824 17.8006C40.4548 17.8081 41.1234 17.9277 41.7537 18.152V15.382C40.8674 15.1203 39.9429 14.9894 39.0146 15.0007C37.6011 15.0007 36.5162 15.382 35.7368 16.1408C34.9575 16.9034 34.5411 18.0959 34.5411 19.6734V20.6266H31.7523V23.3705H34.5411V35H37.9297V23.3705H41.1768C41.8912 22.2678 42.8539 21.3369 43.9923 20.6528L44 20.6641V20.6678Z" fill="#D91241"/>
</svg>
