<svg width="50" height="50" viewBox="0 0 50 50" fill="none" xmlns="http://www.w3.org/2000/svg">
<path d="M9.37669 21.2881H40.6216C41.5194 21.2881 41.9983 20.8092 41.9983 19.9114V9.37669C41.9983 8.47885 41.5194 8 40.6216 8H34.0374C33.1396 8 32.6607 8.47885 32.6607 9.37669V14.7039H29.6679V9.37669C29.6679 8.47885 29.1891 8 28.2912 8H21.707C20.8092 8 20.3304 8.47885 20.3304 9.37669V14.7039H17.3376V9.37669C17.3376 8.47885 16.8587 8 15.9609 8H9.37669C8.47885 8 8 8.47885 8 9.37669V19.9114C8 20.8092 8.47885 21.2881 9.37669 21.2881ZM9.9154 30.5059C9.25698 28.6504 8.83799 26.735 8.71827 24.5203C8.65842 23.7422 9.01755 23.3232 9.85554 23.3232H40.1427C40.9807 23.3232 41.3399 23.6823 41.3399 24.4006C41.2201 26.6153 40.8011 28.6504 40.0829 30.5059C39.7237 31.4636 39.185 31.8826 38.1675 31.8826H11.8308C10.8132 31.8826 10.2745 31.4636 9.9154 30.5059ZM37.6288 35.474C34.7557 39.0055 30.027 41.28 24.9991 41.28C19.9712 41.28 15.1229 39.0055 12.3096 35.474C11.5914 34.5163 11.9505 33.9177 12.6688 33.9177H37.3295C38.0478 33.9177 38.4069 34.5163 37.6288 35.474Z" fill="#1868DB"/>
</svg>
