<svg width="50" height="50" viewBox="0 0 50 50" fill="none" xmlns="http://www.w3.org/2000/svg">
<path d="M9.10444 22.7245L8.01921 32.141C7.96489 32.6172 8.02617 33.0996 8.19784 33.5471C8.3695 33.9946 8.64649 34.394 9.00527 34.7114L11.6914 37.0833C12.6123 37.8961 14.0404 37.1046 13.8435 35.8917L11.6886 22.6635C11.4449 21.1654 9.2787 21.2165 9.10444 22.7245ZM26.6325 35.0859L20.2259 16.599C19.5147 14.5464 16.531 14.6357 15.9473 16.7267L13.9979 23.7104C13.7769 24.5048 13.6919 24.9616 13.9979 25.7262H14.7389L17.4293 34.3369C17.8458 35.3753 18.7072 36.1811 19.7825 36.5414L23.7947 37.8791C25.5529 38.4664 27.2318 36.8138 26.6339 35.0845L26.6325 35.0859ZM41.6925 33.6205L30.3699 12.3618C29.3824 10.5077 26.7175 10.5573 25.798 12.4469L23.0127 18.0573C22.6769 18.7482 22.8328 18.9936 23.1119 19.3951C23.3371 19.7171 23.8585 19.7426 24.0696 19.4121C24.1171 19.3384 24.1834 19.2787 24.2616 19.2391C24.3398 19.1996 24.4272 19.1817 24.5146 19.1872C24.6021 19.1927 24.6865 19.2214 24.7592 19.2704C24.8318 19.3194 24.8902 19.3869 24.9281 19.466L32.2074 34.6263C32.4773 35.2329 32.898 35.7602 33.4292 36.1578C33.9605 36.5553 34.5846 36.81 35.2421 36.8975L39.0928 37.3911C41.1655 37.6635 42.6786 35.4704 41.6925 33.6205Z" fill="black"/>
</svg>
