<svg width="50" height="50" viewBox="0 0 50 50" fill="none" xmlns="http://www.w3.org/2000/svg">
<path d="M18.3724 10.2939V25.6927C18.3724 27.9461 19.6426 29.4012 21.701 29.4369C23.5667 29.4693 25.4463 29.4369 27.3197 29.4488C27.5902 29.4488 27.7006 29.3672 27.6975 29.0506C27.6789 27.5308 27.8079 27.7929 26.5781 27.7827C24.9628 27.7708 23.3475 27.7827 21.7321 27.7827C21.1382 27.7827 20.5708 27.6329 20.2365 27.0526C20.0434 26.7298 19.9313 26.3571 19.9116 25.9718C19.8851 23.1297 19.896 20.2858 19.8976 17.4419C19.9048 17.3764 19.9162 17.3116 19.9318 17.2479H20.3795C22.6385 17.2479 24.8975 17.2479 27.1549 17.2564C27.5778 17.2564 27.7006 17.0862 27.6975 16.6505C27.6897 15.5953 27.6975 15.5953 26.7383 15.5953H19.8976V14.5742C19.8976 12.714 19.8976 10.8555 19.8976 8.99705C19.8896 8.83477 19.9153 8.6726 19.973 8.52282C20.0306 8.37304 20.1186 8.23957 20.2303 8.13249C20.9112 7.45172 21.5782 6.74884 22.3043 6V12.9897H30.028V32H20.9765C18.5248 32 16.6234 30.3406 16.1057 27.7214C16.0356 27.3234 16.0043 26.9183 16.0124 26.5131C16.0124 22.1221 16.0124 17.7329 16.0015 13.342C15.9926 13.1492 16.023 12.9566 16.0905 12.7782C16.158 12.5999 16.2609 12.4401 16.3917 12.3107C17.0307 11.6435 17.6355 10.9491 18.2667 10.2565L18.3724 10.2939ZM25.0281 19.8093C24.2989 19.8093 23.5698 19.8229 22.8422 19.8093C22.4846 19.8007 22.3183 19.9284 22.3214 20.3437C22.3338 21.7971 22.3307 23.2488 22.3214 24.7022C22.3214 25.0681 22.4613 25.1975 22.7878 25.1958C24.2741 25.1867 25.7604 25.1867 27.2466 25.1958C27.5825 25.1958 27.7053 25.0443 27.7037 24.6852C27.6975 23.2341 27.6975 21.7818 27.7037 20.3283C27.7037 19.9539 27.5747 19.7922 27.2187 19.8024C26.4864 19.8229 25.7572 19.8093 25.0281 19.8093Z" fill="#FE5602"/>
<path d="M31.7169 14.2994C32.0792 14.7317 32.4305 15.1742 32.8052 15.5912C33.0819 15.9009 33.4178 16.1494 33.6743 16.4762C33.8502 16.687 33.9593 16.9544 33.9852 17.2386C34.0049 20.7559 34.0049 24.2686 33.9852 27.7768C33.9883 28.0046 33.916 28.2258 33.7816 28.3997C33.0866 29.1537 32.3637 29.877 31.6159 30.6445V14.422L31.7169 14.2994Z" fill="#FE5500"/>
<path d="M4.62207 41.1143H2.72266V40.3477H4.62207C4.98991 40.3477 5.28776 40.2891 5.51562 40.1719C5.74349 40.0547 5.90951 39.8919 6.01367 39.6836C6.12109 39.4753 6.1748 39.2376 6.1748 38.9707C6.1748 38.7266 6.12109 38.4971 6.01367 38.2822C5.90951 38.0674 5.74349 37.8949 5.51562 37.7646C5.28776 37.6312 4.98991 37.5645 4.62207 37.5645H2.94238V43.9023H2V36.793H4.62207C5.15918 36.793 5.61328 36.8857 5.98438 37.0713C6.35547 37.2568 6.63704 37.514 6.8291 37.8428C7.02116 38.1683 7.11719 38.541 7.11719 38.9609C7.11719 39.4167 7.02116 39.8057 6.8291 40.1279C6.63704 40.4502 6.35547 40.696 5.98438 40.8652C5.61328 41.0312 5.15918 41.1143 4.62207 41.1143Z" fill="black"/>
<path d="M8.29785 36.793H9.21094L11.54 42.5889L13.8643 36.793H14.7822L11.8916 43.9023H11.1787L8.29785 36.793ZM8 36.793H8.80566L8.9375 41.1289V43.9023H8V36.793ZM14.2695 36.793H15.0752V43.9023H14.1377V41.1289L14.2695 36.793Z" fill="black"/>
<path d="M22.5859 40.123V40.5723C22.5859 41.1061 22.5192 41.5846 22.3857 42.0078C22.2523 42.431 22.0602 42.7907 21.8096 43.0869C21.5589 43.3831 21.2578 43.6094 20.9062 43.7656C20.5579 43.9219 20.1673 44 19.7344 44C19.3145 44 18.9287 43.9219 18.5771 43.7656C18.2288 43.6094 17.9261 43.3831 17.6689 43.0869C17.415 42.7907 17.2181 42.431 17.0781 42.0078C16.9382 41.5846 16.8682 41.1061 16.8682 40.5723V40.123C16.8682 39.5892 16.9365 39.1123 17.0732 38.6924C17.2132 38.2692 17.4102 37.9095 17.6641 37.6133C17.918 37.3138 18.2191 37.0859 18.5674 36.9297C18.9189 36.7734 19.3047 36.6953 19.7246 36.6953C20.1576 36.6953 20.5482 36.7734 20.8965 36.9297C21.248 37.0859 21.5492 37.3138 21.7998 37.6133C22.0537 37.9095 22.2474 38.2692 22.3809 38.6924C22.5176 39.1123 22.5859 39.5892 22.5859 40.123ZM21.6533 40.5723V40.1133C21.6533 39.6901 21.6094 39.3158 21.5215 38.9902C21.4368 38.6647 21.3115 38.3913 21.1455 38.1699C20.9795 37.9486 20.776 37.7809 20.5352 37.667C20.2975 37.5531 20.0273 37.4961 19.7246 37.4961C19.4316 37.4961 19.1663 37.5531 18.9287 37.667C18.6943 37.7809 18.4925 37.9486 18.3232 38.1699C18.1572 38.3913 18.0286 38.6647 17.9375 38.9902C17.8464 39.3158 17.8008 39.6901 17.8008 40.1133V40.5723C17.8008 40.9987 17.8464 41.3763 17.9375 41.7051C18.0286 42.0306 18.1589 42.3057 18.3281 42.5303C18.5007 42.7516 18.7041 42.9193 18.9385 43.0332C19.1761 43.1471 19.4414 43.2041 19.7344 43.2041C20.0404 43.2041 20.3122 43.1471 20.5498 43.0332C20.7874 42.9193 20.9876 42.7516 21.1504 42.5303C21.3164 42.3057 21.4417 42.0306 21.5264 41.7051C21.611 41.3763 21.6533 40.9987 21.6533 40.5723Z" fill="black"/>
<path d="M24.0637 39.7471V43.9023H23.1604V38.6191H24.0148L24.0637 39.7471ZM23.8488 41.0605L23.4729 41.0459C23.4761 40.6846 23.5298 40.3509 23.634 40.0449C23.7382 39.7357 23.8846 39.4671 24.0734 39.2393C24.2622 39.0114 24.4868 38.8356 24.7473 38.7119C25.0109 38.585 25.3023 38.5215 25.6213 38.5215C25.8817 38.5215 26.1161 38.5573 26.3244 38.6289C26.5327 38.6973 26.7102 38.8079 26.8566 38.9609C27.0064 39.1139 27.1203 39.3125 27.1984 39.5566C27.2766 39.7975 27.3156 40.0921 27.3156 40.4404V43.9023H26.4074V40.4307C26.4074 40.154 26.3667 39.9326 26.2854 39.7666C26.204 39.5973 26.0852 39.4753 25.9289 39.4004C25.7727 39.3223 25.5806 39.2832 25.3527 39.2832C25.1281 39.2832 24.923 39.3304 24.7375 39.4248C24.5552 39.5192 24.3973 39.6494 24.2639 39.8154C24.1337 39.9814 24.0311 40.1719 23.9562 40.3867C23.8846 40.5983 23.8488 40.8229 23.8488 41.0605Z" fill="black"/>
<path d="M30.7465 41.1143H28.8471V40.3477H30.7465C31.1143 40.3477 31.4122 40.2891 31.64 40.1719C31.8679 40.0547 32.0339 39.8919 32.1381 39.6836C32.2455 39.4753 32.2992 39.2376 32.2992 38.9707C32.2992 38.7266 32.2455 38.4971 32.1381 38.2822C32.0339 38.0674 31.8679 37.8949 31.64 37.7646C31.4122 37.6312 31.1143 37.5645 30.7465 37.5645H29.0668V43.9023H28.1244V36.793H30.7465C31.2836 36.793 31.7377 36.8857 32.1088 37.0713C32.4799 37.2568 32.7615 37.514 32.9535 37.8428C33.1456 38.1683 33.2416 38.541 33.2416 38.9609C33.2416 39.4167 33.1456 39.8057 32.9535 40.1279C32.7615 40.4502 32.4799 40.696 32.1088 40.8652C31.7377 41.0312 31.2836 41.1143 30.7465 41.1143Z" fill="black"/>
<path d="M34.4996 39.4492V43.9023H33.5963V38.6191H34.4752L34.4996 39.4492ZM36.15 38.5898L36.1451 39.4297C36.0702 39.4134 35.9986 39.4036 35.9303 39.4004C35.8652 39.3939 35.7903 39.3906 35.7057 39.3906C35.4973 39.3906 35.3134 39.4232 35.1539 39.4883C34.9944 39.5534 34.8593 39.6445 34.7486 39.7617C34.638 39.8789 34.5501 40.0189 34.485 40.1816C34.4231 40.3411 34.3824 40.5169 34.3629 40.709L34.109 40.8555C34.109 40.5365 34.1399 40.237 34.2018 39.957C34.2669 39.6771 34.3661 39.4297 34.4996 39.2148C34.6331 38.9967 34.8023 38.8275 35.0074 38.707C35.2158 38.5833 35.4632 38.5215 35.7496 38.5215C35.8147 38.5215 35.8896 38.5296 35.9742 38.5459C36.0589 38.5589 36.1174 38.5736 36.15 38.5898Z" fill="black"/>
<path d="M38.3797 44C38.0118 44 37.6782 43.9382 37.3787 43.8145C37.0825 43.6875 36.827 43.5101 36.6121 43.2822C36.4005 43.0544 36.2378 42.7842 36.1238 42.4717C36.0099 42.1592 35.9529 41.8174 35.9529 41.4463V41.2412C35.9529 40.8115 36.0164 40.429 36.1434 40.0938C36.2703 39.7552 36.4428 39.4688 36.6609 39.2344C36.879 39 37.1264 38.8226 37.4031 38.7021C37.6798 38.5817 37.9663 38.5215 38.2625 38.5215C38.6401 38.5215 38.9656 38.5866 39.2391 38.7168C39.5158 38.847 39.742 39.0293 39.9178 39.2637C40.0936 39.4948 40.2238 39.7682 40.3084 40.084C40.393 40.3965 40.4354 40.7383 40.4354 41.1094V41.5146H36.49V40.7773H39.532V40.709C39.519 40.4746 39.4702 40.2467 39.3855 40.0254C39.3042 39.804 39.174 39.6217 38.9949 39.4785C38.8159 39.3353 38.5717 39.2637 38.2625 39.2637C38.0574 39.2637 37.8686 39.3076 37.6961 39.3955C37.5236 39.4801 37.3755 39.6071 37.2518 39.7764C37.1281 39.9456 37.032 40.1523 36.9637 40.3965C36.8953 40.6406 36.8611 40.9222 36.8611 41.2412V41.4463C36.8611 41.6969 36.8953 41.9329 36.9637 42.1543C37.0353 42.3724 37.1378 42.5645 37.2713 42.7305C37.408 42.8965 37.5724 43.0267 37.7645 43.1211C37.9598 43.2155 38.1811 43.2627 38.4285 43.2627C38.7475 43.2627 39.0177 43.1976 39.2391 43.0674C39.4604 42.9372 39.6541 42.763 39.8201 42.5449L40.367 42.9795C40.2531 43.152 40.1082 43.3164 39.9324 43.4727C39.7566 43.6289 39.5402 43.7559 39.283 43.8535C39.0291 43.9512 38.728 44 38.3797 44Z" fill="black"/>
<path d="M41.6885 39.6689V43.9023H40.7803V38.6191H41.6396L41.6885 39.6689ZM41.5029 41.0605L41.083 41.0459C41.0863 40.6846 41.1335 40.3509 41.2246 40.0449C41.3158 39.7357 41.4508 39.4671 41.6299 39.2393C41.8089 39.0114 42.0319 38.8356 42.2988 38.7119C42.5658 38.585 42.875 38.5215 43.2266 38.5215C43.474 38.5215 43.7018 38.5573 43.9102 38.6289C44.1185 38.6973 44.2992 38.8063 44.4521 38.9561C44.6051 39.1058 44.724 39.2979 44.8086 39.5322C44.8932 39.7666 44.9355 40.0498 44.9355 40.3818V43.9023H44.0322V40.4258C44.0322 40.1491 43.985 39.9277 43.8906 39.7617C43.7995 39.5957 43.6693 39.4753 43.5 39.4004C43.3307 39.3223 43.1322 39.2832 42.9043 39.2832C42.6374 39.2832 42.4144 39.3304 42.2354 39.4248C42.0563 39.5192 41.9131 39.6494 41.8057 39.8154C41.6982 39.9814 41.6201 40.1719 41.5713 40.3867C41.5257 40.5983 41.5029 40.8229 41.5029 41.0605ZM44.9258 40.5625L44.3203 40.748C44.3236 40.4583 44.3708 40.18 44.4619 39.9131C44.5563 39.6462 44.6914 39.4085 44.8672 39.2002C45.0462 38.9919 45.266 38.8275 45.5264 38.707C45.7868 38.5833 46.0846 38.5215 46.4199 38.5215C46.7031 38.5215 46.9538 38.5589 47.1719 38.6338C47.3932 38.7087 47.5788 38.8242 47.7285 38.9805C47.8815 39.1335 47.9971 39.3304 48.0752 39.5713C48.1533 39.8122 48.1924 40.0986 48.1924 40.4307V43.9023H47.2842V40.4209C47.2842 40.1247 47.237 39.8952 47.1426 39.7324C47.0514 39.5664 46.9212 39.4508 46.752 39.3857C46.5859 39.3174 46.3874 39.2832 46.1562 39.2832C45.9577 39.2832 45.7819 39.3174 45.6289 39.3857C45.4759 39.4541 45.3473 39.5485 45.2432 39.6689C45.139 39.7861 45.0592 39.9212 45.0039 40.0742C44.9518 40.2272 44.9258 40.39 44.9258 40.5625Z" fill="black"/>
</svg>
