<svg width="50" height="50" viewBox="0 0 50 50" fill="none" xmlns="http://www.w3.org/2000/svg">
<path d="M18.3724 10.2939V25.6927C18.3724 27.9461 19.6426 29.4012 21.701 29.4369C23.5667 29.4693 25.4463 29.4369 27.3197 29.4488C27.5902 29.4488 27.7006 29.3672 27.6975 29.0506C27.6789 27.5308 27.8079 27.7929 26.5781 27.7827C24.9628 27.7708 23.3475 27.7827 21.7321 27.7827C21.1382 27.7827 20.5708 27.6329 20.2365 27.0526C20.0434 26.7298 19.9313 26.3571 19.9116 25.9718C19.8851 23.1297 19.896 20.2858 19.8976 17.4419C19.9048 17.3764 19.9162 17.3116 19.9318 17.2479H20.3795C22.6385 17.2479 24.8975 17.2479 27.1549 17.2564C27.5778 17.2564 27.7006 17.0862 27.6975 16.6505C27.6897 15.5953 27.6975 15.5953 26.7383 15.5953H19.8976V14.5742C19.8976 12.714 19.8976 10.8555 19.8976 8.99705C19.8896 8.83477 19.9153 8.6726 19.973 8.52282C20.0306 8.37304 20.1186 8.23957 20.2303 8.13249C20.9112 7.45172 21.5782 6.74884 22.3043 6V12.9897H30.028V32H20.9765C18.5248 32 16.6234 30.3406 16.1057 27.7214C16.0356 27.3234 16.0043 26.9183 16.0124 26.5131C16.0124 22.1221 16.0124 17.7329 16.0015 13.342C15.9926 13.1492 16.023 12.9566 16.0905 12.7782C16.158 12.5999 16.2609 12.4401 16.3917 12.3107C17.0307 11.6435 17.6355 10.9491 18.2667 10.2565L18.3724 10.2939ZM25.0281 19.8093C24.2989 19.8093 23.5698 19.8229 22.8422 19.8093C22.4846 19.8007 22.3183 19.9284 22.3214 20.3437C22.3338 21.7971 22.3307 23.2488 22.3214 24.7022C22.3214 25.0681 22.4613 25.1975 22.7878 25.1958C24.2741 25.1867 25.7604 25.1867 27.2466 25.1958C27.5825 25.1958 27.7053 25.0443 27.7037 24.6852C27.6975 23.2341 27.6975 21.7818 27.7037 20.3283C27.7037 19.9539 27.5747 19.7922 27.2187 19.8024C26.4864 19.8229 25.7572 19.8093 25.0281 19.8093Z" fill="#FE5602"/>
<path d="M31.7169 14.2994C32.0792 14.7317 32.4305 15.1742 32.8052 15.5912C33.0819 15.9009 33.4178 16.1494 33.6743 16.4762C33.8502 16.687 33.9593 16.9544 33.9852 17.2386C34.0049 20.7559 34.0049 24.2686 33.9852 27.7768C33.9883 28.0046 33.916 28.2258 33.7816 28.3997C33.0866 29.1537 32.3637 29.877 31.6159 30.6445V14.422L31.7169 14.2994Z" fill="#FE5500"/>
<path d="M11.8359 36.8906V44H10.8936V36.8906H11.8359Z" fill="black"/>
<path d="M14.3164 39.8447V44H13.4131V38.7168H14.2676L14.3164 39.8447ZM14.1016 41.1582L13.7256 41.1436C13.7288 40.7822 13.7826 40.4486 13.8867 40.1426C13.9909 39.8333 14.1374 39.5648 14.3262 39.3369C14.515 39.109 14.7396 38.9333 15 38.8096C15.2637 38.6826 15.555 38.6191 15.874 38.6191C16.1344 38.6191 16.3688 38.6549 16.5771 38.7266C16.7855 38.7949 16.9629 38.9056 17.1094 39.0586C17.2591 39.2116 17.373 39.4102 17.4512 39.6543C17.5293 39.8952 17.5684 40.1898 17.5684 40.5381V44H16.6602V40.5283C16.6602 40.2516 16.6195 40.0303 16.5381 39.8643C16.4567 39.695 16.3379 39.5729 16.1816 39.498C16.0254 39.4199 15.8333 39.3809 15.6055 39.3809C15.3809 39.3809 15.1758 39.4281 14.9902 39.5225C14.8079 39.6169 14.6501 39.7471 14.5166 39.9131C14.3864 40.0791 14.2839 40.2695 14.209 40.4844C14.1374 40.696 14.1016 40.9206 14.1016 41.1582Z" fill="black"/>
<path d="M22.0166 42.5986C22.0166 42.4684 21.9873 42.348 21.9287 42.2373C21.8734 42.1234 21.7578 42.0208 21.582 41.9297C21.4095 41.8353 21.1491 41.7539 20.8008 41.6855C20.5078 41.6237 20.2425 41.5505 20.0049 41.4658C19.7705 41.3812 19.5703 41.2786 19.4043 41.1582C19.2415 41.0378 19.1162 40.8962 19.0283 40.7334C18.9404 40.5706 18.8965 40.3802 18.8965 40.1621C18.8965 39.9538 18.9421 39.7568 19.0332 39.5713C19.1276 39.3857 19.2594 39.2214 19.4287 39.0781C19.6012 38.9349 19.8079 38.8226 20.0488 38.7412C20.2897 38.6598 20.5583 38.6191 20.8545 38.6191C21.2777 38.6191 21.639 38.694 21.9385 38.8438C22.238 38.9935 22.4674 39.1937 22.627 39.4443C22.7865 39.6917 22.8662 39.9668 22.8662 40.2695H21.9629C21.9629 40.123 21.9189 39.9814 21.8311 39.8447C21.7464 39.7048 21.6211 39.5892 21.4551 39.498C21.2923 39.4069 21.0921 39.3613 20.8545 39.3613C20.6038 39.3613 20.4004 39.4004 20.2441 39.4785C20.0911 39.5534 19.9788 39.6494 19.9072 39.7666C19.8389 39.8838 19.8047 40.0075 19.8047 40.1377C19.8047 40.2354 19.821 40.3232 19.8535 40.4014C19.8893 40.4762 19.9512 40.5462 20.0391 40.6113C20.127 40.6732 20.2507 40.7318 20.4102 40.7871C20.5697 40.8424 20.7731 40.8978 21.0205 40.9531C21.4535 41.0508 21.8099 41.168 22.0898 41.3047C22.3698 41.4414 22.5781 41.609 22.7148 41.8076C22.8516 42.0062 22.9199 42.2471 22.9199 42.5303C22.9199 42.7614 22.8711 42.973 22.7734 43.165C22.679 43.3571 22.5407 43.5231 22.3584 43.6631C22.1794 43.7998 21.9645 43.9072 21.7139 43.9854C21.4665 44.0602 21.1882 44.0977 20.8789 44.0977C20.4134 44.0977 20.0195 44.0146 19.6973 43.8486C19.375 43.6826 19.1309 43.4678 18.9648 43.2041C18.7988 42.9404 18.7158 42.6621 18.7158 42.3691H19.624C19.637 42.6165 19.7087 42.8135 19.8389 42.96C19.9691 43.1032 20.1286 43.2057 20.3174 43.2676C20.5062 43.3262 20.6934 43.3555 20.8789 43.3555C21.1263 43.3555 21.333 43.3229 21.499 43.2578C21.6683 43.1927 21.7969 43.1032 21.8848 42.9893C21.9727 42.8753 22.0166 42.7451 22.0166 42.5986Z" fill="black"/>
<path d="M25.0879 38.7168V44H24.1797V38.7168H25.0879ZM24.1113 37.3154C24.1113 37.1689 24.1553 37.0452 24.2432 36.9443C24.3343 36.8434 24.4678 36.793 24.6436 36.793C24.8161 36.793 24.9479 36.8434 25.0391 36.9443C25.1335 37.0452 25.1807 37.1689 25.1807 37.3154C25.1807 37.4554 25.1335 37.5758 25.0391 37.6768C24.9479 37.7744 24.8161 37.8232 24.6436 37.8232C24.4678 37.8232 24.3343 37.7744 24.2432 37.6768C24.1553 37.5758 24.1113 37.4554 24.1113 37.3154Z" fill="black"/>
<path d="M29.9609 38.7168H30.7812V43.8877C30.7812 44.3532 30.6868 44.7503 30.498 45.0791C30.3092 45.4079 30.0456 45.6569 29.707 45.8262C29.3717 45.9987 28.9844 46.085 28.5449 46.085C28.3626 46.085 28.1478 46.0557 27.9004 45.9971C27.6562 45.9417 27.4154 45.8457 27.1777 45.709C26.9434 45.5755 26.7464 45.3949 26.5869 45.167L27.0605 44.6299C27.2819 44.8968 27.513 45.0824 27.7539 45.1865C27.998 45.2907 28.2389 45.3428 28.4766 45.3428C28.763 45.3428 29.0104 45.2891 29.2188 45.1816C29.4271 45.0742 29.5882 44.9147 29.7021 44.7031C29.8193 44.4948 29.8779 44.2376 29.8779 43.9316V39.8789L29.9609 38.7168ZM26.3232 41.417V41.3145C26.3232 40.9108 26.3704 40.5446 26.4648 40.2158C26.5625 39.8838 26.7008 39.599 26.8799 39.3613C27.0622 39.1237 27.2819 38.9414 27.5391 38.8145C27.7962 38.6842 28.0859 38.6191 28.4082 38.6191C28.7402 38.6191 29.0299 38.6777 29.2773 38.7949C29.528 38.9089 29.7396 39.0765 29.9121 39.2979C30.0879 39.516 30.2262 39.7796 30.3271 40.0889C30.4281 40.3981 30.498 40.748 30.5371 41.1387V41.5879C30.5013 41.9753 30.4313 42.3236 30.3271 42.6328C30.2262 42.9421 30.0879 43.2057 29.9121 43.4238C29.7396 43.6419 29.528 43.8096 29.2773 43.9268C29.0267 44.0407 28.7337 44.0977 28.3984 44.0977C28.0827 44.0977 27.7962 44.0309 27.5391 43.8975C27.2852 43.764 27.0671 43.5768 26.8848 43.3359C26.7025 43.0951 26.5625 42.8118 26.4648 42.4863C26.3704 42.1576 26.3232 41.8011 26.3232 41.417ZM27.2266 41.3145V41.417C27.2266 41.6807 27.2526 41.9281 27.3047 42.1592C27.36 42.3903 27.443 42.5938 27.5537 42.7695C27.6676 42.9453 27.8125 43.0837 27.9883 43.1846C28.1641 43.2822 28.374 43.3311 28.6182 43.3311C28.9176 43.3311 29.165 43.2676 29.3604 43.1406C29.5557 43.0137 29.7103 42.846 29.8242 42.6377C29.9414 42.4294 30.0326 42.2031 30.0977 41.959V40.7822C30.0618 40.6032 30.0065 40.4307 29.9316 40.2646C29.86 40.0954 29.7656 39.9456 29.6484 39.8154C29.5345 39.682 29.3929 39.5762 29.2236 39.498C29.0544 39.4199 28.8558 39.3809 28.6279 39.3809C28.3805 39.3809 28.1673 39.4329 27.9883 39.5371C27.8125 39.638 27.6676 39.778 27.5537 39.957C27.443 40.1328 27.36 40.3379 27.3047 40.5723C27.2526 40.8034 27.2266 41.0508 27.2266 41.3145Z" fill="black"/>
<path d="M33.0566 36.5V44H32.1533V36.5H33.0566ZM32.8418 41.1582L32.4658 41.1436C32.4691 40.7822 32.5228 40.4486 32.627 40.1426C32.7311 39.8333 32.8776 39.5648 33.0664 39.3369C33.2552 39.109 33.4798 38.9333 33.7402 38.8096C34.0039 38.6826 34.2952 38.6191 34.6143 38.6191C34.8747 38.6191 35.109 38.6549 35.3174 38.7266C35.5257 38.7949 35.7031 38.9056 35.8496 39.0586C35.9993 39.2116 36.1133 39.4102 36.1914 39.6543C36.2695 39.8952 36.3086 40.1898 36.3086 40.5381V44H35.4004V40.5283C35.4004 40.2516 35.3597 40.0303 35.2783 39.8643C35.1969 39.695 35.0781 39.5729 34.9219 39.498C34.7656 39.4199 34.5736 39.3809 34.3457 39.3809C34.1211 39.3809 33.916 39.4281 33.7305 39.5225C33.5482 39.6169 33.3903 39.7471 33.2568 39.9131C33.1266 40.0791 33.0241 40.2695 32.9492 40.4844C32.8776 40.696 32.8418 40.9206 32.8418 41.1582Z" fill="black"/>
<path d="M39.873 38.7168V39.4102H37.0166V38.7168H39.873ZM37.9834 37.4326H38.8867V42.6914C38.8867 42.8704 38.9144 43.0055 38.9697 43.0967C39.0251 43.1878 39.0967 43.248 39.1846 43.2773C39.2725 43.3066 39.3669 43.3213 39.4678 43.3213C39.5426 43.3213 39.6208 43.3148 39.7021 43.3018C39.7868 43.2855 39.8503 43.2725 39.8926 43.2627L39.8975 44C39.8258 44.0228 39.7314 44.0439 39.6143 44.0635C39.5003 44.0863 39.362 44.0977 39.1992 44.0977C38.9779 44.0977 38.7744 44.0537 38.5889 43.9658C38.4033 43.8779 38.2552 43.7314 38.1445 43.5264C38.0371 43.318 37.9834 43.0381 37.9834 42.6865V37.4326Z" fill="black"/>
</svg>
