<svg width="50" height="50" viewBox="0 0 50 50" fill="none" xmlns="http://www.w3.org/2000/svg">
<path d="M18.3724 10.2939V25.6927C18.3724 27.9461 19.6426 29.4012 21.701 29.4369C23.5667 29.4693 25.4463 29.4369 27.3197 29.4488C27.5902 29.4488 27.7006 29.3672 27.6975 29.0506C27.6789 27.5308 27.8079 27.7929 26.5781 27.7827C24.9628 27.7708 23.3475 27.7827 21.7321 27.7827C21.1382 27.7827 20.5708 27.6329 20.2365 27.0526C20.0434 26.7298 19.9313 26.3571 19.9116 25.9718C19.8851 23.1297 19.896 20.2858 19.8976 17.4419C19.9048 17.3764 19.9162 17.3116 19.9318 17.2479H20.3795C22.6385 17.2479 24.8975 17.2479 27.1549 17.2564C27.5778 17.2564 27.7006 17.0862 27.6975 16.6505C27.6897 15.5953 27.6975 15.5953 26.7383 15.5953H19.8976V14.5742C19.8976 12.714 19.8976 10.8555 19.8976 8.99705C19.8896 8.83477 19.9153 8.6726 19.973 8.52282C20.0306 8.37304 20.1186 8.23957 20.2303 8.13249C20.9112 7.45172 21.5782 6.74884 22.3043 6V12.9897H30.028V32H20.9765C18.5248 32 16.6234 30.3406 16.1057 27.7214C16.0356 27.3234 16.0043 26.9183 16.0124 26.5131C16.0124 22.1221 16.0124 17.7329 16.0015 13.342C15.9926 13.1492 16.023 12.9566 16.0905 12.7782C16.158 12.5999 16.2609 12.4401 16.3917 12.3107C17.0307 11.6435 17.6355 10.9491 18.2667 10.2565L18.3724 10.2939ZM25.0281 19.8093C24.2989 19.8093 23.5698 19.8229 22.8422 19.8093C22.4846 19.8007 22.3183 19.9284 22.3214 20.3437C22.3338 21.7971 22.3307 23.2488 22.3214 24.7022C22.3214 25.0681 22.4613 25.1975 22.7878 25.1958C24.2741 25.1867 25.7604 25.1867 27.2466 25.1958C27.5825 25.1958 27.7053 25.0443 27.7037 24.6852C27.6975 23.2341 27.6975 21.7818 27.7037 20.3283C27.7037 19.9539 27.5747 19.7922 27.2187 19.8024C26.4864 19.8229 25.7572 19.8093 25.0281 19.8093Z" fill="#FE5602"/>
<path d="M31.7169 14.2994C32.0792 14.7317 32.4305 15.1742 32.8052 15.5912C33.0819 15.9009 33.4178 16.1494 33.6743 16.4762C33.8502 16.687 33.9593 16.9544 33.9852 17.2386C34.0049 20.7559 34.0049 24.2686 33.9852 27.7768C33.9883 28.0046 33.916 28.2258 33.7816 28.3997C33.0866 29.1537 32.3637 29.877 31.6159 30.6445V14.422L31.7169 14.2994Z" fill="#FE5500"/>
<path d="M19.8252 36.8906H22.1787C22.7126 36.8906 23.1634 36.972 23.5312 37.1348C23.9023 37.2975 24.1839 37.5384 24.376 37.8574C24.5713 38.1732 24.6689 38.5622 24.6689 39.0244C24.6689 39.3499 24.6022 39.6478 24.4688 39.918C24.3385 40.1849 24.1497 40.4128 23.9023 40.6016C23.6582 40.7871 23.3652 40.9255 23.0234 41.0166L22.7598 41.1191H20.5479L20.5381 40.3525H22.208C22.5465 40.3525 22.8281 40.2939 23.0527 40.1768C23.2773 40.0563 23.4466 39.8952 23.5605 39.6934C23.6745 39.4915 23.7314 39.2686 23.7314 39.0244C23.7314 38.751 23.6777 38.5117 23.5703 38.3066C23.4629 38.1016 23.2936 37.9437 23.0625 37.833C22.8346 37.7191 22.54 37.6621 22.1787 37.6621H20.7676V44H19.8252V36.8906ZM23.9805 44L22.252 40.7773L23.2334 40.7725L24.9863 43.9414V44H23.9805Z" fill="#1C1D1F"/>
<path d="M29.7764 42.2031C29.7764 42.0371 29.7503 41.8906 29.6982 41.7637C29.6494 41.6335 29.5615 41.5163 29.4346 41.4121C29.3109 41.3079 29.1383 41.2087 28.917 41.1143C28.6989 41.0199 28.4222 40.9238 28.0869 40.8262C27.7354 40.722 27.418 40.6064 27.1348 40.4795C26.8516 40.3493 26.609 40.2012 26.4072 40.0352C26.2054 39.8691 26.0508 39.6787 25.9434 39.4639C25.8359 39.249 25.7822 39.0033 25.7822 38.7266C25.7822 38.4499 25.8392 38.1943 25.9531 37.96C26.0671 37.7256 26.2298 37.5221 26.4414 37.3496C26.6562 37.1738 26.9118 37.0371 27.208 36.9395C27.5042 36.8418 27.8346 36.793 28.1992 36.793C28.7331 36.793 29.1855 36.8955 29.5566 37.1006C29.931 37.3024 30.2158 37.5677 30.4111 37.8965C30.6064 38.222 30.7041 38.5703 30.7041 38.9414H29.7666C29.7666 38.6745 29.7096 38.4385 29.5957 38.2334C29.4818 38.0251 29.3092 37.8623 29.0781 37.7451C28.847 37.6247 28.554 37.5645 28.1992 37.5645C27.8639 37.5645 27.5872 37.6149 27.3691 37.7158C27.151 37.8167 26.9883 37.9535 26.8809 38.126C26.7767 38.2985 26.7246 38.4954 26.7246 38.7168C26.7246 38.8665 26.7555 39.0033 26.8174 39.127C26.8825 39.2474 26.9818 39.3597 27.1152 39.4639C27.252 39.568 27.4245 39.6641 27.6328 39.752C27.8444 39.8398 28.0967 39.9245 28.3896 40.0059C28.7933 40.1198 29.1416 40.2467 29.4346 40.3867C29.7275 40.5267 29.9684 40.6846 30.1572 40.8604C30.3493 41.0329 30.4909 41.2298 30.582 41.4512C30.6764 41.6693 30.7236 41.9167 30.7236 42.1934C30.7236 42.4831 30.665 42.7451 30.5479 42.9795C30.4307 43.2139 30.263 43.4141 30.0449 43.5801C29.8268 43.7461 29.5648 43.8747 29.2588 43.9658C28.9561 44.0537 28.6175 44.0977 28.2432 44.0977C27.9144 44.0977 27.5905 44.0521 27.2715 43.9609C26.9557 43.8698 26.6676 43.7331 26.4072 43.5508C26.1501 43.3685 25.9434 43.1439 25.7871 42.877C25.6341 42.6068 25.5576 42.2943 25.5576 41.9395H26.4951C26.4951 42.1836 26.5423 42.3936 26.6367 42.5693C26.7311 42.7419 26.8597 42.8851 27.0225 42.999C27.1885 43.113 27.3757 43.1976 27.584 43.2529C27.7956 43.305 28.0153 43.3311 28.2432 43.3311C28.5719 43.3311 28.8503 43.2855 29.0781 43.1943C29.306 43.1032 29.4785 42.973 29.5957 42.8037C29.7161 42.6344 29.7764 42.4342 29.7764 42.2031Z" fill="#1C1D1F"/>
</svg>
