<svg width="50" height="50" viewBox="0 0 50 50" fill="none" xmlns="http://www.w3.org/2000/svg">
<path d="M18.3724 10.2939V25.6927C18.3724 27.9461 19.6426 29.4012 21.701 29.4369C23.5667 29.4693 25.4463 29.4369 27.3197 29.4488C27.5902 29.4488 27.7006 29.3672 27.6975 29.0506C27.6789 27.5308 27.8079 27.7929 26.5781 27.7827C24.9628 27.7708 23.3475 27.7827 21.7321 27.7827C21.1382 27.7827 20.5708 27.6329 20.2365 27.0526C20.0434 26.7298 19.9313 26.3571 19.9116 25.9718C19.8851 23.1297 19.896 20.2858 19.8976 17.4419C19.9048 17.3764 19.9162 17.3116 19.9318 17.2479H20.3795C22.6385 17.2479 24.8975 17.2479 27.1549 17.2564C27.5778 17.2564 27.7006 17.0862 27.6975 16.6505C27.6897 15.5953 27.6975 15.5953 26.7383 15.5953H19.8976V14.5742C19.8976 12.714 19.8976 10.8555 19.8976 8.99705C19.8896 8.83477 19.9153 8.6726 19.973 8.52282C20.0306 8.37304 20.1186 8.23957 20.2303 8.13249C20.9112 7.45172 21.5782 6.74884 22.3043 6V12.9897H30.028V32H20.9765C18.5248 32 16.6234 30.3406 16.1057 27.7214C16.0356 27.3234 16.0043 26.9183 16.0124 26.5131C16.0124 22.1221 16.0124 17.7329 16.0015 13.342C15.9926 13.1492 16.023 12.9566 16.0905 12.7782C16.158 12.5999 16.2609 12.4401 16.3917 12.3107C17.0307 11.6435 17.6355 10.9491 18.2667 10.2565L18.3724 10.2939ZM25.0281 19.8093C24.2989 19.8093 23.5698 19.8229 22.8422 19.8093C22.4846 19.8007 22.3183 19.9284 22.3214 20.3437C22.3338 21.7971 22.3307 23.2488 22.3214 24.7022C22.3214 25.0681 22.4613 25.1975 22.7878 25.1958C24.2741 25.1867 25.7604 25.1867 27.2466 25.1958C27.5825 25.1958 27.7053 25.0443 27.7037 24.6852C27.6975 23.2341 27.6975 21.7818 27.7037 20.3283C27.7037 19.9539 27.5747 19.7922 27.2187 19.8024C26.4864 19.8229 25.7572 19.8093 25.0281 19.8093Z" fill="#FE5602"/>
<path d="M31.7169 14.2994C32.0792 14.7317 32.4305 15.1742 32.8052 15.5912C33.0819 15.9009 33.4178 16.1494 33.6743 16.4762C33.8502 16.687 33.9593 16.9544 33.9852 17.2386C34.0049 20.7559 34.0049 24.2686 33.9852 27.7768C33.9883 28.0046 33.916 28.2258 33.7816 28.3997C33.0866 29.1537 32.3637 29.877 31.6159 30.6445V14.422L31.7169 14.2994Z" fill="#FE5500"/>
<path d="M22.4473 41.2119H20.5479V40.4453H22.4473C22.8151 40.4453 23.113 40.3867 23.3408 40.2695C23.5687 40.1523 23.7347 39.9896 23.8389 39.7812C23.9463 39.5729 24 39.3353 24 39.0684C24 38.8242 23.9463 38.5947 23.8389 38.3799C23.7347 38.165 23.5687 37.9925 23.3408 37.8623C23.113 37.7288 22.8151 37.6621 22.4473 37.6621H20.7676V44H19.8252V36.8906H22.4473C22.9844 36.8906 23.4385 36.9834 23.8096 37.1689C24.1807 37.3545 24.4622 37.6117 24.6543 37.9404C24.8464 38.266 24.9424 38.6387 24.9424 39.0586C24.9424 39.5143 24.8464 39.9033 24.6543 40.2256C24.4622 40.5479 24.1807 40.7936 23.8096 40.9629C23.4385 41.1289 22.9844 41.2119 22.4473 41.2119Z" fill="black"/>
<path d="M29.9229 42.2031C29.9229 42.0371 29.8968 41.8906 29.8447 41.7637C29.7959 41.6335 29.708 41.5163 29.5811 41.4121C29.4574 41.3079 29.2848 41.2087 29.0635 41.1143C28.8454 41.0199 28.5687 40.9238 28.2334 40.8262C27.8818 40.722 27.5645 40.6064 27.2812 40.4795C26.998 40.3493 26.7555 40.2012 26.5537 40.0352C26.3519 39.8691 26.1973 39.6787 26.0898 39.4639C25.9824 39.249 25.9287 39.0033 25.9287 38.7266C25.9287 38.4499 25.9857 38.1943 26.0996 37.96C26.2135 37.7256 26.3763 37.5221 26.5879 37.3496C26.8027 37.1738 27.0583 37.0371 27.3545 36.9395C27.6507 36.8418 27.9811 36.793 28.3457 36.793C28.8796 36.793 29.332 36.8955 29.7031 37.1006C30.0775 37.3024 30.3623 37.5677 30.5576 37.8965C30.7529 38.222 30.8506 38.5703 30.8506 38.9414H29.9131C29.9131 38.6745 29.8561 38.4385 29.7422 38.2334C29.6283 38.0251 29.4557 37.8623 29.2246 37.7451C28.9935 37.6247 28.7005 37.5645 28.3457 37.5645C28.0104 37.5645 27.7337 37.6149 27.5156 37.7158C27.2975 37.8167 27.1348 37.9535 27.0273 38.126C26.9232 38.2985 26.8711 38.4954 26.8711 38.7168C26.8711 38.8665 26.902 39.0033 26.9639 39.127C27.029 39.2474 27.1283 39.3597 27.2617 39.4639C27.3984 39.568 27.571 39.6641 27.7793 39.752C27.9909 39.8398 28.2432 39.9245 28.5361 40.0059C28.9398 40.1198 29.2881 40.2467 29.5811 40.3867C29.874 40.5267 30.1149 40.6846 30.3037 40.8604C30.4958 41.0329 30.6374 41.2298 30.7285 41.4512C30.8229 41.6693 30.8701 41.9167 30.8701 42.1934C30.8701 42.4831 30.8115 42.7451 30.6943 42.9795C30.5771 43.2139 30.4095 43.4141 30.1914 43.5801C29.9733 43.7461 29.7113 43.8747 29.4053 43.9658C29.1025 44.0537 28.764 44.0977 28.3896 44.0977C28.0609 44.0977 27.737 44.0521 27.418 43.9609C27.1022 43.8698 26.8141 43.7331 26.5537 43.5508C26.2965 43.3685 26.0898 43.1439 25.9336 42.877C25.7806 42.6068 25.7041 42.2943 25.7041 41.9395H26.6416C26.6416 42.1836 26.6888 42.3936 26.7832 42.5693C26.8776 42.7419 27.0062 42.8851 27.1689 42.999C27.335 43.113 27.5221 43.1976 27.7305 43.2529C27.9421 43.305 28.1618 43.3311 28.3896 43.3311C28.7184 43.3311 28.9967 43.2855 29.2246 43.1943C29.4525 43.1032 29.625 42.973 29.7422 42.8037C29.8626 42.6344 29.9229 42.4342 29.9229 42.2031Z" fill="black"/>
</svg>
