<svg width="50" height="50" viewBox="0 0 50 50" fill="none" xmlns="http://www.w3.org/2000/svg">
<path d="M18.3724 10.2939V25.6927C18.3724 27.9461 19.6426 29.4012 21.701 29.4369C23.5667 29.4693 25.4463 29.4369 27.3197 29.4488C27.5902 29.4488 27.7006 29.3672 27.6975 29.0506C27.6789 27.5308 27.8079 27.7929 26.5781 27.7827C24.9628 27.7708 23.3475 27.7827 21.7321 27.7827C21.1382 27.7827 20.5708 27.6329 20.2365 27.0526C20.0434 26.7298 19.9313 26.3571 19.9116 25.9718C19.8851 23.1297 19.896 20.2858 19.8976 17.4419C19.9048 17.3764 19.9162 17.3116 19.9318 17.2479H20.3795C22.6385 17.2479 24.8975 17.2479 27.1549 17.2564C27.5778 17.2564 27.7006 17.0862 27.6975 16.6505C27.6897 15.5953 27.6975 15.5953 26.7383 15.5953H19.8976V14.5742C19.8976 12.714 19.8976 10.8555 19.8976 8.99705C19.8896 8.83477 19.9153 8.6726 19.973 8.52282C20.0306 8.37304 20.1186 8.23957 20.2303 8.13249C20.9112 7.45172 21.5782 6.74884 22.3043 6V12.9897H30.028V32H20.9765C18.5248 32 16.6234 30.3406 16.1057 27.7214C16.0356 27.3234 16.0043 26.9183 16.0124 26.5131C16.0124 22.1221 16.0124 17.7329 16.0015 13.342C15.9926 13.1492 16.023 12.9566 16.0905 12.7782C16.158 12.5999 16.2609 12.4401 16.3917 12.3107C17.0307 11.6435 17.6355 10.9491 18.2667 10.2565L18.3724 10.2939ZM25.0281 19.8093C24.2989 19.8093 23.5698 19.8229 22.8422 19.8093C22.4846 19.8007 22.3183 19.9284 22.3214 20.3437C22.3338 21.7971 22.3307 23.2488 22.3214 24.7022C22.3214 25.0681 22.4613 25.1975 22.7878 25.1958C24.2741 25.1867 25.7604 25.1867 27.2466 25.1958C27.5825 25.1958 27.7053 25.0443 27.7037 24.6852C27.6975 23.2341 27.6975 21.7818 27.7037 20.3283C27.7037 19.9539 27.5747 19.7922 27.2187 19.8024C26.4864 19.8229 25.7572 19.8093 25.0281 19.8093Z" fill="#FE5602"/>
<path d="M31.7169 14.2994C32.0792 14.7317 32.4305 15.1742 32.8052 15.5912C33.0819 15.9009 33.4178 16.1494 33.6743 16.4762C33.8502 16.687 33.9593 16.9544 33.9852 17.2386C34.0049 20.7559 34.0049 24.2686 33.9852 27.7768C33.9883 28.0046 33.916 28.2258 33.7816 28.3997C33.0866 29.1537 32.3637 29.877 31.6159 30.6445V14.422L31.7169 14.2994Z" fill="#FE5500"/>
<path d="M10.4424 36.8906V44H9.5V36.8906H10.4424Z" fill="#1C1D1F"/>
<path d="M15.3496 42.9746V36.5H16.2578V44H15.4277L15.3496 42.9746ZM11.7949 41.417V41.3145C11.7949 40.9108 11.8438 40.5446 11.9414 40.2158C12.0423 39.8838 12.1839 39.599 12.3662 39.3613C12.5518 39.1237 12.7715 38.9414 13.0254 38.8145C13.2826 38.6842 13.569 38.6191 13.8848 38.6191C14.2168 38.6191 14.5065 38.6777 14.7539 38.7949C15.0046 38.9089 15.2161 39.0765 15.3887 39.2979C15.5645 39.516 15.7028 39.7796 15.8037 40.0889C15.9046 40.3981 15.9746 40.748 16.0137 41.1387V41.5879C15.9779 41.9753 15.9079 42.3236 15.8037 42.6328C15.7028 42.9421 15.5645 43.2057 15.3887 43.4238C15.2161 43.6419 15.0046 43.8096 14.7539 43.9268C14.5033 44.0407 14.2103 44.0977 13.875 44.0977C13.5658 44.0977 13.2826 44.0309 13.0254 43.8975C12.7715 43.764 12.5518 43.5768 12.3662 43.3359C12.1839 43.0951 12.0423 42.8118 11.9414 42.4863C11.8438 42.1576 11.7949 41.8011 11.7949 41.417ZM12.7031 41.3145V41.417C12.7031 41.6807 12.7292 41.9281 12.7812 42.1592C12.8366 42.3903 12.9212 42.5938 13.0352 42.7695C13.1491 42.9453 13.2939 43.0837 13.4697 43.1846C13.6455 43.2822 13.8555 43.3311 14.0996 43.3311C14.3991 43.3311 14.6449 43.2676 14.8369 43.1406C15.0322 43.0137 15.1885 42.846 15.3057 42.6377C15.4229 42.4294 15.514 42.2031 15.5791 41.959V40.7822C15.54 40.6032 15.4831 40.4307 15.4082 40.2646C15.3366 40.0954 15.2422 39.9456 15.125 39.8154C15.0111 39.682 14.8695 39.5762 14.7002 39.498C14.5342 39.4199 14.3372 39.3809 14.1094 39.3809C13.862 39.3809 13.6488 39.4329 13.4697 39.5371C13.2939 39.638 13.1491 39.778 13.0352 39.957C12.9212 40.1328 12.8366 40.3379 12.7812 40.5723C12.7292 40.8034 12.7031 41.0508 12.7031 41.3145Z" fill="#1C1D1F"/>
<path d="M19.8564 44.0977C19.4886 44.0977 19.1549 44.0358 18.8555 43.9121C18.5592 43.7852 18.3037 43.6077 18.0889 43.3799C17.8773 43.152 17.7145 42.8818 17.6006 42.5693C17.4867 42.2568 17.4297 41.915 17.4297 41.5439V41.3389C17.4297 40.9092 17.4932 40.5267 17.6201 40.1914C17.7471 39.8529 17.9196 39.5664 18.1377 39.332C18.3558 39.0977 18.6032 38.9202 18.8799 38.7998C19.1566 38.6794 19.443 38.6191 19.7393 38.6191C20.1169 38.6191 20.4424 38.6842 20.7158 38.8145C20.9925 38.9447 21.2188 39.127 21.3945 39.3613C21.5703 39.5924 21.7005 39.8659 21.7852 40.1816C21.8698 40.4941 21.9121 40.8359 21.9121 41.207V41.6123H17.9668V40.875H21.0088V40.8066C20.9958 40.5723 20.9469 40.3444 20.8623 40.123C20.7809 39.9017 20.6507 39.7194 20.4717 39.5762C20.2926 39.4329 20.0485 39.3613 19.7393 39.3613C19.5342 39.3613 19.3454 39.4053 19.1729 39.4932C19.0003 39.5778 18.8522 39.7048 18.7285 39.874C18.6048 40.0433 18.5088 40.25 18.4404 40.4941C18.3721 40.7383 18.3379 41.0199 18.3379 41.3389V41.5439C18.3379 41.7946 18.3721 42.0306 18.4404 42.252C18.512 42.4701 18.6146 42.6621 18.748 42.8281C18.8848 42.9941 19.0492 43.1243 19.2412 43.2188C19.4365 43.3132 19.6579 43.3604 19.9053 43.3604C20.2243 43.3604 20.4945 43.2952 20.7158 43.165C20.9372 43.0348 21.1309 42.8607 21.2969 42.6426L21.8438 43.0771C21.7298 43.2497 21.585 43.4141 21.4092 43.5703C21.2334 43.7266 21.0169 43.8535 20.7598 43.9512C20.5059 44.0488 20.2048 44.0977 19.8564 44.0977Z" fill="#1C1D1F"/>
<path d="M23.8701 39.8447V44H22.9668V38.7168H23.8213L23.8701 39.8447ZM23.6553 41.1582L23.2793 41.1436C23.2826 40.7822 23.3363 40.4486 23.4404 40.1426C23.5446 39.8333 23.6911 39.5648 23.8799 39.3369C24.0687 39.109 24.2933 38.9333 24.5537 38.8096C24.8174 38.6826 25.1087 38.6191 25.4277 38.6191C25.6882 38.6191 25.9225 38.6549 26.1309 38.7266C26.3392 38.7949 26.5166 38.9056 26.6631 39.0586C26.8128 39.2116 26.9268 39.4102 27.0049 39.6543C27.083 39.8952 27.1221 40.1898 27.1221 40.5381V44H26.2139V40.5283C26.2139 40.2516 26.1732 40.0303 26.0918 39.8643C26.0104 39.695 25.8916 39.5729 25.7354 39.498C25.5791 39.4199 25.387 39.3809 25.1592 39.3809C24.9346 39.3809 24.7295 39.4281 24.5439 39.5225C24.3617 39.6169 24.2038 39.7471 24.0703 39.9131C23.9401 40.0791 23.8376 40.2695 23.7627 40.4844C23.6911 40.696 23.6553 40.9206 23.6553 41.1582Z" fill="#1C1D1F"/>
<path d="M30.7061 38.7168V39.4102H27.8496V38.7168H30.7061ZM28.8164 37.4326H29.7197V42.6914C29.7197 42.8704 29.7474 43.0055 29.8027 43.0967C29.8581 43.1878 29.9297 43.248 30.0176 43.2773C30.1055 43.3066 30.1999 43.3213 30.3008 43.3213C30.3757 43.3213 30.4538 43.3148 30.5352 43.3018C30.6198 43.2855 30.6833 43.2725 30.7256 43.2627L30.7305 44C30.6589 44.0228 30.5645 44.0439 30.4473 44.0635C30.3333 44.0863 30.195 44.0977 30.0322 44.0977C29.8109 44.0977 29.6074 44.0537 29.4219 43.9658C29.2363 43.8779 29.0882 43.7314 28.9775 43.5264C28.8701 43.318 28.8164 43.0381 28.8164 42.6865V37.4326Z" fill="#1C1D1F"/>
<path d="M32.7471 38.7168V44H31.8389V38.7168H32.7471ZM31.7705 37.3154C31.7705 37.1689 31.8145 37.0452 31.9023 36.9443C31.9935 36.8434 32.127 36.793 32.3027 36.793C32.4753 36.793 32.6071 36.8434 32.6982 36.9443C32.7926 37.0452 32.8398 37.1689 32.8398 37.3154C32.8398 37.4554 32.7926 37.5758 32.6982 37.6768C32.6071 37.7744 32.4753 37.8232 32.3027 37.8232C32.127 37.8232 31.9935 37.7744 31.9023 37.6768C31.8145 37.5758 31.7705 37.4554 31.7705 37.3154Z" fill="#1C1D1F"/>
<path d="M36.4092 38.7168V39.4102H33.5527V38.7168H36.4092ZM34.5195 37.4326H35.4229V42.6914C35.4229 42.8704 35.4505 43.0055 35.5059 43.0967C35.5612 43.1878 35.6328 43.248 35.7207 43.2773C35.8086 43.3066 35.903 43.3213 36.0039 43.3213C36.0788 43.3213 36.1569 43.3148 36.2383 43.3018C36.3229 43.2855 36.3864 43.2725 36.4287 43.2627L36.4336 44C36.362 44.0228 36.2676 44.0439 36.1504 44.0635C36.0365 44.0863 35.8981 44.0977 35.7354 44.0977C35.514 44.0977 35.3105 44.0537 35.125 43.9658C34.9395 43.8779 34.7913 43.7314 34.6807 43.5264C34.5732 43.318 34.5195 43.0381 34.5195 42.6865V37.4326Z" fill="#1C1D1F"/>
<path d="M38.9531 43.4531L40.4229 38.7168H41.3896L39.2705 44.8154C39.2217 44.9456 39.1566 45.0856 39.0752 45.2354C38.9971 45.3883 38.8962 45.5332 38.7725 45.6699C38.6488 45.8066 38.499 45.9173 38.3232 46.002C38.1507 46.0898 37.944 46.1338 37.7031 46.1338C37.6315 46.1338 37.5404 46.124 37.4297 46.1045C37.319 46.085 37.2409 46.0687 37.1953 46.0557L37.1904 45.3232C37.2165 45.3265 37.2572 45.3298 37.3125 45.333C37.3711 45.3395 37.4118 45.3428 37.4346 45.3428C37.6396 45.3428 37.8138 45.3151 37.957 45.2598C38.1003 45.2077 38.2207 45.1182 38.3184 44.9912C38.4193 44.8675 38.5055 44.6966 38.5771 44.4785L38.9531 43.4531ZM37.874 38.7168L39.2461 42.8184L39.4805 43.7705L38.8311 44.1025L36.8877 38.7168H37.874Z" fill="#1C1D1F"/>
</svg>
