<svg width="50" height="50" viewBox="0 0 50 50" fill="none" xmlns="http://www.w3.org/2000/svg">
<path d="M18.3724 10.2939V25.6927C18.3724 27.9461 19.6426 29.4012 21.701 29.4369C23.5667 29.4693 25.4463 29.4369 27.3197 29.4488C27.5902 29.4488 27.7006 29.3672 27.6975 29.0506C27.6789 27.5308 27.8079 27.7929 26.5781 27.7827C24.9628 27.7708 23.3475 27.7827 21.7321 27.7827C21.1382 27.7827 20.5708 27.6329 20.2365 27.0526C20.0434 26.7298 19.9313 26.3571 19.9116 25.9718C19.8851 23.1297 19.896 20.2858 19.8976 17.4419C19.9048 17.3764 19.9162 17.3116 19.9318 17.2479H20.3795C22.6385 17.2479 24.8975 17.2479 27.1549 17.2564C27.5778 17.2564 27.7006 17.0862 27.6975 16.6505C27.6897 15.5953 27.6975 15.5953 26.7383 15.5953H19.8976V14.5742C19.8976 12.714 19.8976 10.8555 19.8976 8.99705C19.8896 8.83477 19.9153 8.6726 19.973 8.52282C20.0306 8.37304 20.1186 8.23957 20.2303 8.13249C20.9112 7.45172 21.5782 6.74884 22.3043 6V12.9897H30.028V32H20.9765C18.5248 32 16.6234 30.3406 16.1057 27.7214C16.0356 27.3234 16.0043 26.9183 16.0124 26.5131C16.0124 22.1221 16.0124 17.7329 16.0015 13.342C15.9926 13.1492 16.023 12.9566 16.0905 12.7782C16.158 12.5999 16.2609 12.4401 16.3917 12.3107C17.0307 11.6435 17.6355 10.9491 18.2667 10.2565L18.3724 10.2939ZM25.0281 19.8093C24.2989 19.8093 23.5698 19.8229 22.8422 19.8093C22.4846 19.8007 22.3183 19.9284 22.3214 20.3437C22.3338 21.7971 22.3307 23.2488 22.3214 24.7022C22.3214 25.0681 22.4613 25.1975 22.7878 25.1958C24.2741 25.1867 25.7604 25.1867 27.2466 25.1958C27.5825 25.1958 27.7053 25.0443 27.7037 24.6852C27.6975 23.2341 27.6975 21.7818 27.7037 20.3283C27.7037 19.9539 27.5747 19.7922 27.2187 19.8024C26.4864 19.8229 25.7572 19.8093 25.0281 19.8093Z" fill="#FE5602"/>
<path d="M31.7169 14.2994C32.0792 14.7317 32.4305 15.1742 32.8052 15.5912C33.0819 15.9009 33.4178 16.1494 33.6743 16.4762C33.8502 16.687 33.9593 16.9544 33.9852 17.2386C34.0049 20.7559 34.0049 24.2686 33.9852 27.7768C33.9883 28.0046 33.916 28.2258 33.7816 28.3997C33.0866 29.1537 32.3637 29.877 31.6159 30.6445V14.422L31.7169 14.2994Z" fill="#FE5500"/>
<path d="M19.4473 41.2119H17.5479V40.4453H19.4473C19.8151 40.4453 20.113 40.3867 20.3408 40.2695C20.5687 40.1523 20.7347 39.9896 20.8389 39.7812C20.9463 39.5729 21 39.3353 21 39.0684C21 38.8242 20.9463 38.5947 20.8389 38.3799C20.7347 38.165 20.5687 37.9925 20.3408 37.8623C20.113 37.7288 19.8151 37.6621 19.4473 37.6621H17.7676V44H16.8252V36.8906H19.4473C19.9844 36.8906 20.4385 36.9834 20.8096 37.1689C21.1807 37.3545 21.4622 37.6117 21.6543 37.9404C21.8464 38.266 21.9424 38.6387 21.9424 39.0586C21.9424 39.5143 21.8464 39.9033 21.6543 40.2256C21.4622 40.5479 21.1807 40.7936 20.8096 40.9629C20.4385 41.1289 19.9844 41.2119 19.4473 41.2119Z" fill="black"/>
<path d="M23.1338 36.8906H25.4873C26.0212 36.8906 26.472 36.972 26.8398 37.1348C27.2109 37.2975 27.4925 37.5384 27.6846 37.8574C27.8799 38.1732 27.9775 38.5622 27.9775 39.0244C27.9775 39.3499 27.9108 39.6478 27.7773 39.918C27.6471 40.1849 27.4583 40.4128 27.2109 40.6016C26.9668 40.7871 26.6738 40.9255 26.332 41.0166L26.0684 41.1191H23.8564L23.8467 40.3525H25.5166C25.8551 40.3525 26.1367 40.2939 26.3613 40.1768C26.5859 40.0563 26.7552 39.8952 26.8691 39.6934C26.9831 39.4915 27.04 39.2686 27.04 39.0244C27.04 38.751 26.9863 38.5117 26.8789 38.3066C26.7715 38.1016 26.6022 37.9437 26.3711 37.833C26.1432 37.7191 25.8486 37.6621 25.4873 37.6621H24.0762V44H23.1338V36.8906ZM27.2891 44L25.5605 40.7773L26.542 40.7725L28.2949 43.9414V44H27.2891Z" fill="black"/>
<path d="M31.9277 37.5205L29.5742 44H28.6123L31.3223 36.8906H31.9424L31.9277 37.5205ZM33.9004 44L31.542 37.5205L31.5273 36.8906H32.1475L34.8672 44H33.9004ZM33.7783 41.3682V42.1396H29.7842V41.3682H33.7783Z" fill="black"/>
</svg>
