<svg width="50" height="50" viewBox="0 0 50 50" fill="none" xmlns="http://www.w3.org/2000/svg">
<path d="M24.3381 5.01835C29.9488 4.78624 35.2586 6.75097 39.5143 11.2159C43.3289 15.2181 45.1432 20.0887 44.9912 25.603C44.8443 30.9402 42.8295 35.5575 39.0084 39.299C35.1389 43.0878 30.4167 45.0089 25.0088 45C19.1954 44.9901 14.2305 42.827 10.2719 38.5478C6.71353 34.7008 4.9874 30.0778 5.00007 24.8673C5.01274 19.6366 6.81913 15.0343 10.4469 11.2408C14.0691 7.4534 18.5642 5.44084 24.3381 5.01882V5.01835ZM8.14165 24.9944C8.13039 26.0143 8.25429 27.0196 8.40728 28.0226C8.5584 29.0106 8.81559 29.977 9.18775 30.8994C9.51205 31.7026 9.90815 32.4819 10.3333 33.2378C11.004 34.4298 11.8525 35.4909 12.9103 36.3669C14.1404 37.3858 15.523 38.1145 17.0858 38.4877C17.9667 38.6983 18.8594 38.8075 19.7628 38.831C19.9857 38.8366 20.21 38.8057 20.433 38.7869C20.7873 38.7569 21.1468 38.7508 21.495 38.6866C22.7669 38.4526 23.9786 38.0465 25.1139 37.4125C25.9465 36.9474 26.7133 36.3988 27.3915 35.7315C27.6998 35.4281 27.9889 35.1027 28.2616 34.7669C28.5211 34.4476 28.7473 34.1016 28.9885 33.7677C29.1021 33.6106 29.0608 33.4554 28.9552 33.3255C28.8482 33.1938 28.6938 33.1726 28.5342 33.235C28.3226 33.3185 28.1133 33.4094 27.8997 33.4882C27.0198 33.8132 26.0952 33.9154 25.1712 33.9445C24.5108 33.9651 23.8374 33.9168 23.1874 33.8015C22.2394 33.6336 21.3477 33.2777 20.5104 32.7881C19.3113 32.0867 18.3389 31.1488 17.5603 30.0094C17.0201 29.2188 16.6118 28.3588 16.3603 27.4332C16.181 26.7744 16.0505 26.1052 16.0562 25.4169C16.0585 25.1346 16.0444 24.8514 16.0594 24.57C16.0796 24.1855 16.0862 23.7959 16.1589 23.4198C16.3345 22.5139 16.6137 21.6407 17.0492 20.8192C17.6302 19.7229 18.4163 18.7973 19.3718 18.0198C19.9482 17.5514 20.5831 17.1641 21.2688 16.8607C22.275 16.4157 23.3235 16.1381 24.4188 16.0954C25.0365 16.0715 25.6621 16.1212 26.2769 16.1939C27.1033 16.2919 27.895 16.5324 28.6563 16.8808C29.9309 17.4646 30.9812 18.3391 31.8814 19.3909C32.3019 19.8819 32.6708 20.4281 32.9913 20.9904C33.4695 21.8292 33.6962 22.7628 33.9032 23.7035C34.1285 24.7295 34.2294 25.7667 34.2585 26.8105C34.273 27.3338 34.2251 27.8618 34.1674 28.3837C34.0942 29.0444 34.0304 29.7126 33.8764 30.3573C33.5625 31.6759 33.1049 32.9452 32.4647 34.1494C31.8936 35.2232 31.2042 36.2102 30.4134 37.127C29.5156 38.1684 28.4756 39.0551 27.3258 39.8087C26.5706 40.3038 25.7963 40.7667 24.9445 41.085C24.707 41.1737 24.6028 41.3476 24.6516 41.5253C24.746 41.8681 25.0149 42.0819 25.3725 42.0669C25.6419 42.0552 25.9117 42.0191 26.1788 41.9769C27.0517 41.8376 27.9317 41.7298 28.7928 41.5385C30.4087 41.1788 31.9311 40.5664 33.363 39.7299C34.2636 39.2038 35.1117 38.6031 35.8968 37.9213C36.3934 37.4904 36.8467 37.0079 37.3006 36.531C37.6511 36.1629 37.9872 35.7793 38.3039 35.3822C39.1492 34.3215 39.8513 33.1722 40.4008 31.9305C41.0011 30.5735 41.4652 29.1771 41.6333 27.6962C41.7234 26.9019 41.8078 26.1062 41.8618 25.309C41.8881 24.9245 41.8468 24.5339 41.82 24.1475C41.7816 23.5867 41.7365 23.0259 41.6797 22.467C41.5915 21.5999 41.384 20.7568 41.1316 19.925C40.7674 18.7251 40.2596 17.587 39.6133 16.5127C38.9788 15.4577 38.2298 14.4875 37.377 13.5985C36.5675 12.7544 35.6889 11.9901 34.747 11.2952C33.7234 10.5393 32.6318 9.8983 31.4637 9.40172C30.3857 8.9436 29.2758 8.56237 28.1058 8.40107C27.3844 8.30166 26.6636 8.16567 25.9385 8.13613C25.197 8.10565 24.4479 8.15395 23.7074 8.22429C22.9541 8.29603 22.1976 8.39122 21.4603 8.55534C19.7431 8.93844 18.1085 9.5499 16.5691 10.4155C15.4277 11.0574 14.3774 11.8218 13.4219 12.7094C12.5541 13.5155 11.7943 14.4214 11.1218 15.3991C10.1329 16.8372 9.36093 18.3832 8.88504 20.0605C8.6227 20.9852 8.4284 21.9343 8.27869 22.8843C8.16934 23.5783 8.18295 24.2915 8.14165 24.9963V24.9944ZM19.247 25.0263C19.2207 28.2571 21.8268 30.6626 24.7234 30.7648C27.9664 30.8797 31.0465 28.417 30.7442 24.4261C30.6293 22.9063 29.9394 21.6225 28.7788 20.6279C27.5121 19.5419 26.0239 19.1086 24.3649 19.2737C21.7592 19.533 19.2498 21.7064 19.247 25.0258V25.0263Z" fill="#0365CF"/>
</svg>
