<svg width="50" height="50" viewBox="0 0 50 50" fill="none" xmlns="http://www.w3.org/2000/svg">
<path d="M42.9388 22.2421H40.6709V21.0249H46.6832V22.2421H44.3915V28.9881H42.9388V22.2421Z" fill="#363636"/>
<path d="M34.9247 21.0249V24.2145H38.2909V21.0249H39.7447V28.9881H38.2909V25.4792H34.9247V28.9881H33.4697V21.0249H34.9247Z" fill="#363636"/>
<path d="M32.5289 28.6215C31.7055 28.914 30.8392 29.0671 29.9654 29.0744C28.6181 29.0744 27.6024 28.7347 26.8461 28.0112C26.1362 27.3319 25.724 26.2856 25.7353 25.0821C25.7353 22.5639 27.5311 20.9459 30.1647 20.9459C31.1464 20.9459 31.9141 21.1463 32.2809 21.3241L31.9616 22.4937C31.3896 22.2504 30.7714 22.1345 30.15 22.154C28.4516 22.154 27.2548 23.1584 27.2548 25.013C27.2548 26.8246 28.3656 27.8969 30.0198 27.8969C30.5395 27.8969 30.9256 27.8255 31.1181 27.7304V25.7388H29.7107V24.5929H32.5289V28.6215Z" fill="#363636"/>
<path d="M24.7864 21.0249H23.3337V28.9881H24.7864V21.0249Z" fill="#363636"/>
<path d="M17.6306 27.4055C18.2196 27.7329 18.8815 27.9073 19.5554 27.9128C20.4884 27.9128 21.0081 27.4757 21.0081 26.8258C21.0081 26.2234 20.6073 25.8702 19.5916 25.5033C18.2793 25.03 17.4403 24.3337 17.4403 23.1867C17.4403 21.8869 18.5262 20.895 20.2517 20.895C21.1134 20.895 21.752 21.0841 22.1652 21.297L21.8131 22.4666C21.324 22.2115 20.7795 22.0812 20.228 22.0873C19.3063 22.0873 18.9043 22.5832 18.9043 23.044C18.9043 23.6589 19.3652 23.9419 20.4295 24.3563C21.8109 24.876 22.4845 25.5724 22.4845 26.7182C22.4845 27.9943 21.5153 29.105 19.4592 29.105C18.6213 29.105 17.7472 28.8695 17.3079 28.6091L17.626 27.4044" fill="#363636"/>
<path d="M13.5195 21.899H11.0964V21.0249H16.9921V21.899H14.5577V28.9881H13.5195V21.899Z" fill="#0D80AA"/>
<path d="M10.21 21.0249H9.18188V28.9881H10.21V21.0249Z" fill="#0D80AA"/>
<path d="M3.31665 21.1319C3.93612 21.0173 4.5651 20.9619 5.19507 20.9666C6.22316 20.9666 6.88553 21.1432 7.38146 21.5452C7.79473 21.852 8.0427 22.3253 8.0427 22.9514C8.0427 23.7191 7.53544 24.3928 6.69531 24.6996V24.7234C7.45279 24.9125 8.33821 25.5386 8.33821 26.7196C8.34273 27.0176 8.28528 27.3133 8.16951 27.5879C8.05373 27.8625 7.88215 28.1101 7.66565 28.3149C7.10858 28.8233 6.2107 29.06 4.912 29.06C4.37869 29.0639 3.84572 29.0321 3.31665 28.9648V21.1319ZM4.34701 24.3917H5.27999C6.36695 24.3917 7.00555 23.8255 7.00555 23.0567C7.00555 22.1226 6.29562 21.7569 5.25621 21.7569C4.95267 21.7493 4.64914 21.7728 4.3504 21.8271L4.34701 24.3917ZM4.34701 28.2074C4.63254 28.2457 4.92064 28.2616 5.20865 28.2549C6.27298 28.2549 7.25351 27.8654 7.25351 26.7071C7.25351 25.6202 6.3194 25.1718 5.19733 25.1718H4.34701V28.2074Z" fill="#0D80AA"/>
</svg>
