<svg width="50" height="50" viewBox="0 0 50 50" fill="none" xmlns="http://www.w3.org/2000/svg">
<path d="M40.0666 20.2657C39.9778 20.1596 39.8627 20.0783 39.7326 20.0297C39.4593 19.8994 39.1627 19.8238 38.8599 19.8072C38.3653 19.7793 37.8692 19.8022 37.3794 19.8754C36.6354 19.9771 35.8865 20.0409 35.1359 20.0668C33.8996 20.1189 32.661 20.0837 31.4298 19.9614C28.9492 19.7109 26.5133 19.1347 24.1858 18.2479C20.6836 16.9196 17.5392 14.9996 14.6846 12.6008C13.0498 11.2228 11.5349 9.71071 10.1559 8.08062C10.1153 8.02876 10.0639 7.98618 10.0052 7.95578C9.94659 7.92539 9.88201 7.90788 9.81592 7.90447C8.8573 7.81175 8.1069 7.08775 8.01597 6.20107C7.9797 5.92034 8.00539 5.63514 8.09126 5.36523C8.17714 5.09532 8.32114 4.84715 8.5133 4.6379C8.70545 4.42865 8.94118 4.26333 9.20414 4.15338C9.4671 4.04343 9.75102 3.99148 10.0362 4.00114C10.3214 4.01079 10.6011 4.08181 10.8559 4.20929C11.1107 4.33676 11.3345 4.51763 11.5118 4.73939C11.6892 4.96114 11.8158 5.21848 11.8829 5.49357C11.95 5.76866 11.956 6.05493 11.9006 6.33255C11.8867 6.38823 11.8868 6.44641 11.9007 6.50207C11.9146 6.55772 11.942 6.60918 11.9804 6.65199C14.0889 9.28168 16.4446 11.6627 19.1709 13.6687C21.4816 15.3687 23.9767 16.7291 26.703 17.6587C26.8024 17.6925 26.8993 17.759 27.0166 17.7312C27.0064 17.6528 26.9409 17.6267 26.8959 17.5863C26.0067 16.8127 25.1901 15.9607 24.456 15.0409C24.36 14.9161 24.2436 14.8917 24.1067 14.8723C23.4379 14.7585 23.0121 14.2545 23.024 13.6013C23.0293 13.3078 23.1394 13.0257 23.3347 12.8051C23.53 12.5846 23.7978 12.4399 24.0906 12.3968C24.3976 12.3522 24.7105 12.4212 24.9696 12.5906C25.2286 12.76 25.4158 13.0181 25.4954 13.3155C25.5525 13.4993 25.5563 13.6953 25.5064 13.8811C25.4874 13.9459 25.4852 14.0144 25.5001 14.0803C25.5149 14.1462 25.5464 14.2072 25.5914 14.2579C26.6332 15.7337 27.8667 17.0668 29.2601 18.2226C29.4366 18.3806 29.6558 18.484 29.8907 18.5201C30.2442 18.5673 30.5935 18.644 30.9445 18.7064C31.0102 18.7261 31.0805 18.7243 31.1451 18.7013C31.1094 18.6019 31.021 18.5479 30.9521 18.4805C29.5073 17.0826 28.2505 15.5055 27.2129 13.7884C26.4341 12.4713 25.7798 11.0857 25.2583 9.64916C25.2325 9.56413 25.1889 9.48547 25.1303 9.41836C25.0717 9.35124 24.9995 9.29719 24.9183 9.25976C24.6163 9.10922 24.3785 8.85668 24.2476 8.54762C24.1167 8.23857 24.1014 7.89332 24.2045 7.57407C24.4101 6.92592 25.0696 6.49017 25.7282 6.56855C26.0735 6.60494 26.3944 6.76254 26.6328 7.01292C26.8712 7.26331 27.0116 7.58997 27.0285 7.93396C27.0458 8.20866 26.9753 8.48178 26.8271 8.71444C26.7898 8.77049 26.7668 8.83469 26.7602 8.90151C26.7535 8.96832 26.7633 9.03573 26.7888 9.09794C27.6955 12.0355 29.1946 14.7596 31.1952 17.105C31.6915 17.6891 32.2192 18.2445 32.7631 18.7848C32.8582 18.8824 32.9884 18.9387 33.1252 18.9416C34.2228 19.0084 35.3237 19.0045 36.4208 18.9298C36.9307 18.896 37.4406 18.8455 37.9505 18.805C38.5074 18.7508 39.0692 18.7741 39.6196 18.8741C40.2077 18.9894 40.7483 19.2747 41.1731 19.6942C41.4936 20.0118 41.7715 20.369 42 20.757C41.9779 20.8034 41.9643 20.8279 41.9329 20.8279C41.1179 20.8422 40.3709 21.1094 39.6383 21.428C38.5769 21.8898 37.5911 22.484 36.6316 23.1229C33.6208 25.1717 30.8766 27.5814 28.4613 30.2972C28.3856 30.373 28.3269 30.4637 28.289 30.5635C28.2511 30.6633 28.2348 30.7698 28.2412 30.8763C28.2505 31.1423 28.1593 31.4021 27.9854 31.6048C27.8115 31.8076 27.5675 31.9385 27.3013 31.972C26.6996 32.0411 26.1582 31.6711 26.0461 31.1156C25.9862 30.8463 26.03 30.5644 26.169 30.3254C26.3081 30.0865 26.5322 29.9078 26.7973 29.8244C26.856 29.799 26.9194 29.7861 26.9834 29.7865C27.2129 29.8143 27.3497 29.687 27.4976 29.5387C30.1678 26.8525 33.0359 24.3973 36.2041 22.3011C37.3939 21.5131 38.6304 20.8034 39.9799 20.3095C40.0101 20.2974 40.0391 20.2828 40.0666 20.2657Z" fill="#3FCD78"/>
<path d="M36.3172 21.1341C36.2442 21.2219 36.154 21.2942 36.052 21.3465C34.077 22.6824 32.0901 24.0015 30.1287 25.3585C27.3166 27.3038 24.5826 29.3485 22.0111 31.6014C21.6261 31.9386 21.2462 32.285 20.8638 32.6196C20.8164 32.6605 20.779 32.7116 20.7545 32.769C20.7301 32.8264 20.7192 32.8886 20.7227 32.9508C20.7145 33.2025 20.6185 33.4435 20.4509 33.6326C20.2833 33.8217 20.0546 33.9472 19.804 33.9875C19.2312 34.0668 18.7256 33.7625 18.5548 33.2357C18.327 32.5328 18.8361 31.8029 19.5746 31.8029C19.7993 31.8095 20.0176 31.728 20.1822 31.5762C24.0158 28.3624 28.0933 25.4781 32.2974 22.7667C32.5855 22.5804 32.8745 22.395 33.1592 22.2121C33.1269 22.1379 33.0844 22.1565 33.0529 22.1565C31.0835 22.1422 29.1172 21.998 27.167 21.725C24.3074 21.3452 21.4957 20.6703 18.7774 19.7114C16.938 19.0642 15.1662 18.2414 13.4872 17.2545C13.3715 17.1829 13.2333 17.1559 13.0988 17.1786C12.1717 17.3025 11.3992 16.7875 11.1901 15.9245C11.0896 15.4992 11.1623 15.0519 11.3924 14.6795C11.6225 14.3071 11.9913 14.0397 12.419 13.9354C13.3198 13.7213 14.2597 14.2775 14.4297 15.171C14.4875 15.4735 14.6319 15.6421 14.8682 15.8023C17.0497 17.2739 19.4174 18.3662 21.9082 19.2074C24.0428 19.9223 26.2372 20.4478 28.4655 20.7776C29.5967 20.9462 30.7346 21.0633 31.8785 21.1316C33.0878 21.2041 34.2963 21.1965 35.5056 21.1678C35.7673 21.1611 36.0265 21.1012 36.3172 21.1341Z" fill="#3FCD78"/>
<path d="M26.7281 23.8416C26.1502 23.8416 25.6369 23.8508 25.1236 23.8416C23.3377 23.8103 21.5564 23.652 19.7934 23.3679C19.6107 23.3376 19.4535 23.3384 19.2835 23.4733C19.1313 23.5908 18.9565 23.6763 18.7698 23.7247C18.5831 23.7732 18.3885 23.7834 18.1977 23.7549C18.0069 23.7263 17.824 23.6596 17.66 23.5587C17.496 23.4579 17.3545 23.325 17.2439 23.1681C17.1328 23.0112 17.0545 22.8337 17.0138 22.6461C16.9731 22.4586 16.9708 22.2649 17.007 22.0764C17.0432 21.888 17.1171 21.7087 17.2245 21.5491C17.3319 21.3896 17.4705 21.253 17.6321 21.1476C17.7936 21.0422 17.9749 20.97 18.1651 20.9353C18.3554 20.9007 18.5507 20.9042 18.7395 20.9458C18.9283 20.9874 19.1068 21.0662 19.2643 21.1775C19.4219 21.2888 19.5553 21.4303 19.6566 21.5937C19.6864 21.6397 19.7114 21.6886 19.7314 21.7395C19.7495 21.795 19.7831 21.8442 19.8282 21.8817C19.8733 21.9191 19.9281 21.9431 19.9863 21.9511C20.9917 22.1963 22.0064 22.3885 23.0305 22.5411C25.4032 22.8883 27.7895 22.9625 30.1844 22.9229H30.5132C30.4454 23.0011 30.3572 23.0594 30.2583 23.0914C27.8575 24.322 25.4729 25.5812 23.1324 26.9213C22.0141 27.5619 20.9056 28.219 19.807 28.8928C19.7459 28.9215 19.6921 28.9635 19.6495 29.0155C19.6068 29.0676 19.5765 29.1285 19.5606 29.1937C19.5325 29.3394 19.475 29.4779 19.3913 29.6009C19.3077 29.7239 19.1998 29.8288 19.074 29.9091C18.9483 29.9895 18.8075 30.0438 18.66 30.0685C18.5125 30.0933 18.3615 30.0882 18.2161 30.0534C17.9321 29.9848 17.686 29.8099 17.5292 29.5652C17.3725 29.3205 17.3175 29.0251 17.3757 28.741C17.4055 28.5952 17.465 28.4569 17.5504 28.3346C17.6359 28.2124 17.7456 28.1086 17.8729 28.0297C18.0001 27.9509 18.1422 27.8985 18.2905 27.8759C18.4388 27.8533 18.5901 27.8609 18.7354 27.8982C18.8216 27.9204 18.9115 27.9244 18.9994 27.9099C19.0872 27.8953 19.171 27.8627 19.2453 27.8139C21.605 26.5075 23.993 25.2545 26.4094 24.0548C26.5307 24.0088 26.6397 23.9359 26.7281 23.8416Z" fill="#3FCD78"/>
<path d="M22.1201 44.9209L24.2148 38.8906H25.2354L22.6035 46H21.876L22.1201 44.9209ZM20.1621 38.8906L22.2373 44.9209L22.4961 46H21.7686L19.1416 38.8906H20.1621Z" fill="black"/>
<path d="M30.6162 45.2578V46H25.9629V45.3506L28.292 42.7578C28.5785 42.4388 28.7998 42.1686 28.9561 41.9473C29.1156 41.7227 29.2262 41.5225 29.2881 41.3467C29.3532 41.1676 29.3857 40.9854 29.3857 40.7998C29.3857 40.5654 29.3369 40.3538 29.2393 40.165C29.1449 39.973 29.0049 39.82 28.8193 39.7061C28.6338 39.5921 28.4092 39.5352 28.1455 39.5352C27.8298 39.5352 27.5661 39.597 27.3545 39.7207C27.1462 39.8411 26.9899 40.0104 26.8857 40.2285C26.7816 40.4466 26.7295 40.6973 26.7295 40.9805H25.8262C25.8262 40.5801 25.9141 40.2139 26.0898 39.8818C26.2656 39.5498 26.526 39.2861 26.8711 39.0908C27.2161 38.8923 27.641 38.793 28.1455 38.793C28.5947 38.793 28.9788 38.8727 29.2979 39.0322C29.6169 39.1885 29.861 39.4098 30.0303 39.6963C30.2028 39.9795 30.2891 40.3115 30.2891 40.6924C30.2891 40.9007 30.2533 41.1123 30.1816 41.3271C30.1133 41.5387 30.0173 41.7503 29.8936 41.9619C29.7731 42.1735 29.6315 42.3818 29.4688 42.5869C29.3092 42.792 29.1383 42.9938 28.9561 43.1924L27.0518 45.2578H30.6162Z" fill="black"/>
</svg>
