<svg id="Layer_1" data-name="Layer 1" xmlns="http://www.w3.org/2000/svg" viewBox="0 0 87.5 143.38"><defs><style>.cls-1{fill:#59595b;}.cls-2{fill:#fcfcfc;}</style></defs><path class="cls-1" d="M172.31,81.09v121.8c-2.91,8-8.51,11-17,10.83-18.79-.39-37.59,0-56.39-.22a16.24,16.24,0,0,1-7.69-2.13c-4.84-2.83-6.44-7.51-6.43-13.06q.12-55.63,0-111.27c0-9.65,2.55-13.28,11.7-16.69h65C166.76,72.33,170.53,75.72,172.31,81.09Zm-38.62,63.68v4.73c0,12.05.05,24.11-.07,36.16,0,1.22-1.09,2.42-1.67,3.63a38.4,38.4,0,0,1-1.7-3.62,6.58,6.58,0,0,1,0-2.13q0-46-.06-92c0-1.64-.82-3.27-1.26-4.91-1.71.56-3.65.79-5.08,1.76-5.82,3.92-11.39,8.22-17.25,12.09-2.8,1.85-3.84,4-3.83,7.33.13,27.45.07,54.9.08,82.35,0,.84-.06,1.68,0,2.51.34,3.15,2,5.14,5.27,5.15,14.52.06,29.05,0,43.58.05,2,0,2.69-.81,2.68-2.77-.05-13.37,0-26.74-.1-40.11,0-1.19-.87-3.07-1.8-3.44C146.54,149.18,140.49,147.16,133.69,144.77Z" transform="translate(-84.81 -70.35)"/><path class="cls-2" d="M133.69,144.77c6.8,2.39,12.85,4.41,18.77,6.75.93.37,1.79,2.25,1.8,3.44.12,13.37.05,26.74.1,40.11,0,2-.66,2.78-2.68,2.77-14.53,0-29.06,0-43.58-.05-3.29,0-4.93-2-5.27-5.15-.08-.83,0-1.67,0-2.51,0-27.45,0-54.9-.08-82.35,0-3.38,1-5.48,3.83-7.33,5.86-3.87,11.43-8.17,17.25-12.09,1.43-1,3.37-1.2,5.08-1.76.44,1.64,1.26,3.27,1.26,4.91q.12,46,.06,92a6.58,6.58,0,0,0,0,2.13,38.4,38.4,0,0,0,1.7,3.62c.58-1.21,1.65-2.41,1.67-3.63.12-12,.07-24.11.07-36.16Z" transform="translate(-84.81 -70.35)"/></svg>