<svg width="50" height="50" viewBox="0 0 50 50" fill="none" xmlns="http://www.w3.org/2000/svg">
<path d="M6 10C6 7.79086 7.79086 6 10 6H40C42.2091 6 44 7.79086 44 10V40C44 42.2091 42.2091 44 40 44H10C7.79086 44 6 42.2091 6 40V10Z" fill="#0075C9"/>
<path d="M11.1899 17.4911C11.1449 19.1175 11.1776 20.7438 11.1776 22.3946C15.0868 20.3515 18.4272 20.8882 21.1459 24.5068C21.5924 23.7328 22.1944 23.0583 22.9144 22.5253C24.7745 21.1483 27.3211 20.8347 29.4674 21.7014C31.9794 22.6833 33.6548 25.192 33.4911 27.7088C33.2988 30.7216 31.4455 33.0514 28.6676 33.8077C25.7362 34.6107 22.6862 33.4011 21.0354 30.6464C20.747 31.0225 20.4913 31.4189 20.1762 31.7605C18.3986 33.6776 16.2098 34.4521 13.6426 33.8646C11.0753 33.2771 9.41428 31.6283 8.73309 29.0566C8.68252 28.9034 8.62099 28.7539 8.54898 28.6094V16.8182C8.73362 16.3199 9.17184 15.9296 9.69044 15.8017C10.674 15.7946 11.2188 16.4808 11.1899 17.4911ZM19.1493 27.6457C19.1493 25.503 17.3247 23.7363 15.1093 23.7404C12.9327 23.7404 11.104 25.505 11.0855 27.6173C11.0671 29.7641 12.8857 31.5389 15.1072 31.545C16.6928 31.5727 18.195 30.6161 18.8263 29.1577C19.0332 28.6798 19.143 28.166 19.1493 27.6457ZM23.2235 29.1581C23.8457 30.613 25.3445 31.577 26.9349 31.545C29.0942 31.5127 30.8997 29.7256 30.928 27.5685C30.928 24.1021 26.4315 22.5764 24.0871 24.8823C22.9585 25.9924 22.6028 27.7067 23.2235 29.1581Z" fill="white"/>
<path d="M39.1431 27.6458L42.2402 31.7401C42.2524 31.7564 42.2667 31.7686 42.279 31.7828C42.8661 32.5554 42.8743 33.3604 42.2995 33.8016C41.6449 34.3037 40.7939 34.1146 40.1782 33.3299L37.435 29.8292C36.476 31.0512 35.5335 32.2885 34.5568 33.4966C34.1001 34.0897 33.2076 34.1836 32.636 33.6999C32.051 33.2608 31.9528 32.533 32.4315 31.8967C33.5415 30.4428 34.7674 29.0462 35.7924 27.5319C34.7246 26.1617 33.6568 24.7732 32.5706 23.3989C32.2453 22.9923 32.051 22.5532 32.186 22.0409C32.3863 21.2652 33.1609 20.8725 33.9142 21.1416C34.1849 21.2383 34.4192 21.4152 34.5855 21.6485C35.5377 22.8775 36.4707 24.121 37.4248 25.3485C38.4127 24.1499 39.3842 22.9361 40.3848 21.7481C41.3971 20.4534 43.5313 21.869 42.4468 23.3196C41.3586 24.7704 40.1938 26.1681 39.1431 27.6458Z" fill="white"/>
</svg>
