<svg width="50" height="50" viewBox="0 0 50 50" fill="none" xmlns="http://www.w3.org/2000/svg">
<path d="M30.0924 14.1546C28.7659 15.9023 28.4457 16.49 27.165 16.49H8V39H15.5166C17.209 39 18.8556 38.1864 19.9229 36.8454C21.2951 35.0374 21.478 34.51 22.8045 34.51H42V12H34.4377C32.7453 12 31.0987 12.8136 30.0924 14.1546ZM28.0188 28.7093C26.2807 28.7093 24.6798 29.4325 23.6126 30.8186C22.2404 32.6267 21.9659 33.154 20.6852 33.154H13.9157V22.351H21.9354C23.6735 22.351 25.2744 21.5374 26.3417 20.1964C27.7139 18.4487 28.0798 17.9063 29.3148 17.9063H36.0538V28.7093H28.0188Z" fill="#010202"/>
</svg>
