<svg width="36" height="36" viewBox="0 0 36 36" fill="none" xmlns="http://www.w3.org/2000/svg">
<circle cx="18" cy="18" r="14.7" fill="#EA8932"/>
<path d="M11.8014 14.45L4 22.5C4.3 24.45 7.44862 30.35 14 32L24.2171 21.4371L20 20.5L15.4679 20.4004L11.8014 14.45Z" fill="#E18134"/>
<path fill-rule="evenodd" clip-rule="evenodd" d="M15.6484 11.2198C15.2532 11.3628 15.0095 11.4685 14.6776 11.6408C14.3944 11.7878 14.408 11.7513 14.4612 12.2194C14.6146 13.5723 13.1912 14.8097 11.844 14.4944C11.7513 14.4728 11.7402 14.4873 11.5621 14.8626C11.3318 15.3479 11.2879 15.4566 11.1379 15.9129C11.0865 16.0695 11.0989 16.0916 11.3332 16.2599C12.4364 17.0528 12.4199 18.8169 11.3014 19.6664C11.0869 19.8293 11.0726 19.8561 11.1266 19.9946C11.1443 20.0401 11.1796 20.1502 11.2049 20.2393C11.2302 20.3284 11.2643 20.4167 11.2807 20.4355C11.297 20.4543 11.3104 20.4903 11.3104 20.5156C11.3104 20.5664 11.4808 20.9588 11.6126 21.2113L11.6971 21.3733L12.2147 21.3765C12.8871 21.3808 13.1699 21.4701 13.6332 21.825C14.186 22.2483 14.5358 23.0359 14.4607 23.6881C14.4008 24.2084 14.3712 24.152 14.8204 24.3737C15.0382 24.4813 15.2528 24.5832 15.2974 24.6002C15.3419 24.6173 15.4148 24.6467 15.4594 24.6654C15.6268 24.7361 16.0256 24.86 16.037 24.845C16.0436 24.8363 16.1255 24.7201 16.2191 24.5867C16.4603 24.243 16.8445 23.9462 17.2324 23.8037C18.166 23.4608 19.2993 23.8378 19.805 24.6596C19.8685 24.7628 19.9284 24.8473 19.9381 24.8473C20.0313 24.8473 20.7993 24.5528 21.1321 24.3895C21.3593 24.278 21.3928 24.2496 21.3738 24.1846C21.1178 23.3071 21.4383 22.3294 22.1549 21.8018C22.7398 21.3712 23.26 21.2774 24.1154 21.4479L24.2304 21.4709L24.427 21.0621C24.6048 20.6924 24.8464 20.0561 24.8464 19.9577C24.8464 19.9363 24.7937 19.8935 24.7294 19.8627C24.3327 19.6733 23.9233 19.2003 23.7308 18.7093C23.3614 17.7669 23.7808 16.5781 24.6605 16.0745C24.7528 16.0217 24.8339 15.9745 24.8407 15.9696C24.8523 15.9611 24.7317 15.5871 24.6677 15.4333C24.2545 14.4407 24.2347 14.4166 23.8951 14.4953C22.3315 14.858 20.9855 13.3967 21.3601 11.7433C21.3731 11.6861 20.9248 11.434 20.6524 11.3452C20.5732 11.3194 20.4922 11.2877 20.4724 11.2748C20.4205 11.2409 19.9109 11.0862 19.8995 11.101C19.8943 11.1077 19.8402 11.1871 19.7793 11.2773C18.9219 12.5469 17.0585 12.532 16.1653 11.2483C16.0405 11.0688 16.0621 11.07 15.6484 11.2198ZM18.4024 15.8251C20.8324 16.342 20.7167 19.7883 18.258 20.1271C16.7813 20.3305 15.5172 18.8786 15.898 17.4164C16.1828 16.3232 17.3269 15.5963 18.4024 15.8251Z" fill="#E6E7E7"/>
<path fill-rule="evenodd" clip-rule="evenodd" d="M15.412 20.588C16.8413 22.0173 19.1587 22.0173 20.588 20.588C22.0173 19.1587 22.0173 16.8413 20.588 15.412C19.1587 13.9827 16.8413 13.9827 15.412 15.412C13.9827 16.8413 13.9827 19.1587 15.412 20.588ZM15.0302 20.9698C16.6704 22.6101 19.3296 22.6101 20.9698 20.9698C22.61 19.3296 22.61 16.6704 20.9698 15.0302C19.3296 13.3899 16.6704 13.3899 15.0302 15.0302C13.39 16.6704 13.39 19.3296 15.0302 20.9698Z" fill="#F5F5F6"/>
<path fill-rule="evenodd" clip-rule="evenodd" d="M20.5881 20.5881L20.9699 20.9699L20.9521 20.9877C20.958 20.9818 20.964 20.9759 20.97 20.9699C22.6102 19.3297 22.6102 16.6704 20.97 15.0302C19.3298 13.39 16.6705 13.39 15.0303 15.0302L15.4121 15.412C16.8414 13.9827 19.1588 13.9827 20.5881 15.412C22.0175 16.8414 22.0175 19.1588 20.5881 20.5881Z" fill="#CECCCB"/>
</svg>
