<svg width="50" height="50" viewBox="0 0 50 50" fill="none" xmlns="http://www.w3.org/2000/svg">
<path d="M30.1455 16.5345C31.3625 16.6762 31.8961 17.2377 31.9691 18.3724C32.0952 20.3454 31.8218 22.3249 31.8536 24.3084C31.8828 26.0951 30.9326 27.3413 29.4249 28.2714C27.8137 29.2645 26.1454 30.0384 24.213 30.1053C22.7412 30.1565 21.7113 29.4547 20.9734 28.2504C19.9289 26.5464 19.2175 24.7151 18.8698 22.7552C18.741 22.0298 19.4086 21.1731 19.7935 20.6012L20.4239 21.6835C19.9262 22.1097 19.7271 22.6345 20.1226 23.1527C20.9349 24.0277 21.9661 23.7745 22.8699 23.5436C24.8103 23.0478 26.5237 22.0062 28.2397 21.0092C29.0427 20.5435 29.8628 20.087 30.5198 19.418C30.845 19.0874 31.064 18.703 30.9405 18.1993C30.837 17.7756 30.5397 17.5604 30.0791 17.6496L30.1455 16.5345ZM26.9563 27.2088C27.45 26.9189 27.9782 26.8363 28.2862 26.4349C28.1282 26.124 27.9955 25.8616 27.8575 25.5901C28.1017 25.3907 28.3207 25.1913 28.391 24.921C28.468 24.6232 28.618 24.2756 28.2224 24.0552C27.6942 23.7627 27.1965 23.9372 26.7665 24.2336C26.3617 24.5131 25.9742 24.8594 26.0286 25.4405C26.0804 26.002 26.5781 25.9915 26.9563 26.1017V27.2088Z" fill="#022856"/>
<path d="M20.4239 21.6835C20.4239 21.6835 19.4463 20.0385 18.9773 19.0624C18.3004 17.6562 18.3044 16.1869 18.538 14.7544C19.0144 11.833 21.0875 10.2956 23.7445 9.37598C25.2018 8.87093 26.675 8.79615 28.0101 9.64359C28.8754 10.1919 29.5775 10.9856 29.8602 12.0049C30.3551 13.7883 30.0792 17.6497 30.0792 17.6497C30.0792 17.6497 29.9358 18.5456 29.7699 18.968C29.5815 19.4521 29.0758 19.641 28.5967 19.5806C28.2702 19.5386 27.7632 19.5216 27.7739 18.9549C28.1336 17.2442 27.6722 15.478 27.4699 13.7784C27.3969 13.1698 26.7613 12.3224 25.7818 12.3971C23.856 12.544 22.7306 13.1002 21.9342 14.8122C20.8699 17.1011 22.3015 19.1753 23.2389 21.1535C23.4273 21.5497 23.5056 21.9904 23.1831 22.2843C22.8447 22.5926 22.4638 22.8693 21.8931 22.8287C21.0941 22.771 20.7743 22.2371 20.4226 21.6835H20.4239Z" fill="#04A07D"/>
<path d="M22.1904 18.9457C22.1904 18.9457 23.4525 18.3121 24.0909 18.0091C25.1306 17.5146 27.8894 16.6658 27.8894 16.6658V17.6497C27.8894 17.6497 26.6471 18.0038 26.2065 18.1875C25.0107 18.686 23.7287 19.212 22.647 19.9453L22.1917 18.947L22.1904 18.9457Z" fill="#022856"/>
<path d="M42.2542 40.9231V35.436H43.5367V39.9625H46V40.9231H42.2542Z" fill="#04A07D"/>
<path d="M41.2846 39.4015C41.2846 39.7243 41.1968 40.0061 41.0213 40.2469C40.8457 40.4877 40.5909 40.6747 40.2568 40.8079C39.9284 40.936 39.5263 41 39.0507 41C38.8412 41 38.6345 40.9872 38.4306 40.9616C38.2324 40.936 38.0399 40.9001 37.853 40.854C37.6718 40.8028 37.4991 40.7413 37.3349 40.6695V39.586C37.6237 39.6987 37.921 39.8037 38.2268 39.901C38.5382 39.9933 38.8468 40.0394 39.1526 40.0394C39.3621 40.0394 39.5292 40.0138 39.6537 39.9625C39.784 39.9113 39.8774 39.8421 39.934 39.755C39.9963 39.6679 40.0275 39.568 40.0275 39.4553C40.0275 39.317 39.9737 39.1991 39.8661 39.1018C39.7642 39.0045 39.6254 38.9148 39.4499 38.8328C39.2743 38.7457 39.0733 38.6535 38.8468 38.5562C38.7053 38.4947 38.5524 38.4229 38.3881 38.341C38.2239 38.2539 38.0654 38.1488 37.9125 38.0259C37.7652 37.8978 37.6435 37.7441 37.5472 37.5648C37.451 37.3855 37.4028 37.1703 37.4028 36.9192C37.4028 36.5913 37.485 36.3121 37.6492 36.0816C37.819 35.8459 38.0569 35.6666 38.3627 35.5436C38.6741 35.4207 39.0393 35.3592 39.4584 35.3592C39.7755 35.3592 40.0756 35.3925 40.3587 35.4591C40.6475 35.5257 40.9477 35.6205 41.2591 35.7434L40.8429 36.6503C40.5654 36.5478 40.3163 36.4684 40.0954 36.412C39.8746 36.3557 39.6481 36.3275 39.4159 36.3275C39.2574 36.3275 39.1215 36.3505 39.0082 36.3967C38.895 36.4428 38.8072 36.5068 38.7449 36.5888C38.6883 36.6708 38.66 36.7681 38.66 36.8808C38.66 37.0089 38.7024 37.1191 38.7874 37.2113C38.8723 37.2984 38.9997 37.3829 39.1696 37.4649C39.3395 37.5469 39.5518 37.6442 39.8066 37.7569C40.1181 37.8901 40.3814 38.0284 40.5966 38.1719C40.8174 38.3154 40.9873 38.4844 41.1062 38.6791C41.2251 38.8738 41.2846 39.1146 41.2846 39.4015Z" fill="#04A07D"/>
<path d="M36.4735 39.4015C36.4735 39.7243 36.3858 40.0061 36.2102 40.2469C36.0347 40.4877 35.7799 40.6747 35.4458 40.8079C35.1173 40.936 34.7153 41 34.2396 41C34.0301 41 33.8234 40.9872 33.6196 40.9616C33.4214 40.936 33.2288 40.9001 33.042 40.854C32.8608 40.8028 32.6881 40.7413 32.5238 40.6695V39.586C32.8126 39.6987 33.1099 39.8037 33.4157 39.901C33.7272 39.9933 34.0358 40.0394 34.3416 40.0394C34.5511 40.0394 34.7181 40.0138 34.8427 39.9625C34.9729 39.9113 35.0664 39.8421 35.123 39.755C35.1853 39.6679 35.2164 39.568 35.2164 39.4553C35.2164 39.317 35.1626 39.1991 35.0551 39.1018C34.9531 39.0045 34.8144 38.9148 34.6388 38.8328C34.4633 38.7457 34.2623 38.6535 34.0358 38.5562C33.8942 38.4947 33.7413 38.4229 33.5771 38.341C33.4129 38.2539 33.2543 38.1488 33.1014 38.0259C32.9542 37.8978 32.8325 37.7441 32.7362 37.5648C32.6399 37.3855 32.5918 37.1703 32.5918 36.9192C32.5918 36.5913 32.6739 36.3121 32.8381 36.0816C33.008 35.8459 33.2458 35.6666 33.5516 35.5436C33.8631 35.4207 34.2283 35.3592 34.6473 35.3592C34.9644 35.3592 35.2646 35.3925 35.5477 35.4591C35.8365 35.5257 36.1366 35.6205 36.4481 35.7434L36.0319 36.6503C35.7544 36.5478 35.5052 36.4684 35.2844 36.412C35.0635 36.3557 34.837 36.3275 34.6049 36.3275C34.4463 36.3275 34.3104 36.3505 34.1972 36.3967C34.0839 36.4428 33.9961 36.5068 33.9338 36.5888C33.8772 36.6708 33.8489 36.7681 33.8489 36.8808C33.8489 37.0089 33.8914 37.1191 33.9763 37.2113C34.0613 37.2984 34.1887 37.3829 34.3585 37.4649C34.5284 37.5469 34.7408 37.6442 34.9956 37.7569C35.307 37.8901 35.5704 38.0284 35.7855 38.1719C36.0064 38.3154 36.1763 38.4844 36.2952 38.6791C36.4141 38.8738 36.4735 39.1146 36.4735 39.4015Z" fill="#04A07D"/>
<path d="M28.0655 35.436C28.8469 35.436 29.416 35.5897 29.7728 35.8971C30.1352 36.1994 30.3164 36.6169 30.3164 37.1498C30.3164 37.3905 30.2768 37.6211 30.1975 37.8414C30.1182 38.0566 29.9851 38.2513 29.7983 38.4255C29.6171 38.5945 29.3764 38.7277 29.0763 38.8251C28.7762 38.9224 28.4052 38.9711 27.9636 38.9711H27.4115V40.9231H26.1289V35.436H28.0655ZM27.9975 36.3889H27.4115V38.0182H27.8362C28.0796 38.0182 28.2892 37.99 28.4647 37.9336C28.6402 37.8773 28.7762 37.7876 28.8724 37.6646C28.9687 37.5417 29.0168 37.3829 29.0168 37.1882C29.0168 36.9166 28.9347 36.7168 28.7705 36.5887C28.6063 36.4555 28.3486 36.3889 27.9975 36.3889Z" fill="#022856"/>
<path d="M24.109 40.9232L23.6673 39.6167H21.4589L21.0172 40.9232H19.6327L21.7731 35.413H23.3445L25.4935 40.9232H24.109ZM22.9198 37.365C22.8915 37.2779 22.8547 37.1678 22.8094 37.0345C22.7641 36.9013 22.7188 36.7656 22.6735 36.6272C22.6282 36.4889 22.5914 36.3685 22.5631 36.266C22.5348 36.3685 22.4951 36.4966 22.4442 36.6503C22.3989 36.7989 22.3536 36.9423 22.3083 37.0807C22.2686 37.2139 22.2375 37.3086 22.2148 37.365L21.7816 38.6407H23.3615L22.9198 37.365Z" fill="#022856"/>
<path d="M18.8697 40.9231H15.3787V35.436H18.8697V36.3889H16.6613V37.5955H18.7168V38.5484H16.6613V39.9625H18.8697V40.9231Z" fill="#022856"/>
<path d="M14.2509 40.9231H12.9683V38.5561H10.5645V40.9231H9.28191V35.436H10.5645V37.5878H12.9683V35.436H14.2509V40.9231Z" fill="#022856"/>
<path d="M6.84548 36.3275C6.60199 36.3275 6.38398 36.371 6.19145 36.4581C6.00458 36.5452 5.84603 36.6708 5.71578 36.8347C5.58554 36.9935 5.48645 37.1882 5.4185 37.4188C5.35621 37.6493 5.32506 37.9081 5.32506 38.195C5.32506 38.5843 5.37603 38.9174 5.47795 39.194C5.58554 39.4656 5.75259 39.673 5.9791 39.8165C6.2056 39.96 6.4944 40.0317 6.84548 40.0317C7.09464 40.0317 7.34097 40.0061 7.58446 39.9548C7.83362 39.9036 8.10259 39.8319 8.39139 39.7397V40.7157C8.12524 40.813 7.86193 40.8847 7.60145 40.9308C7.34097 40.9769 7.04934 41 6.72657 41C6.10368 41 5.58837 40.8847 5.18066 40.6542C4.77862 40.4185 4.48133 40.0906 4.2888 39.6705C4.09627 39.2452 4 38.7508 4 38.1873C4 37.7723 4.06229 37.3932 4.18687 37.0499C4.31145 36.7015 4.49265 36.4018 4.73048 36.1507C4.97398 35.8997 5.27127 35.705 5.62235 35.5667C5.9791 35.4283 6.38681 35.3592 6.84548 35.3592C7.1456 35.3592 7.44573 35.395 7.74585 35.4668C8.05163 35.5334 8.34326 35.6256 8.62073 35.7434L8.20452 36.6887C7.97802 36.5913 7.74868 36.5068 7.51651 36.4351C7.29 36.3634 7.06633 36.3275 6.84548 36.3275Z" fill="#022856"/>
</svg>
