<svg width="50" height="50" viewBox="0 0 50 50" fill="none" xmlns="http://www.w3.org/2000/svg">
<g clip-path="url(#clip0_7301_164572)">
<path d="M31.7758 19.3143C31.2592 19.5564 30.693 19.6705 30.1241 19.647C29.5552 19.6235 29.0001 19.4632 28.5047 19.1793L25.6437 23.0371C25.9976 23.457 26.2009 23.9854 26.2207 24.5368C26.2471 24.9858 26.1488 25.4333 25.9368 25.8288C25.7249 26.2242 25.4078 26.5519 25.0213 26.7746C24.6349 26.9973 24.1946 27.1063 23.7501 27.0892C23.3056 27.0721 22.8748 26.9296 22.5062 26.6778C21.9928 26.3495 21.6207 25.8375 21.4643 25.244C21.3078 24.6504 21.3785 24.019 21.6622 23.4759L19.34 21.711L18.62 22.6754L15.9688 20.679L17.9477 17.9931L20.6036 20.0136L19.8836 20.978L22.2392 22.767C22.6008 22.4566 23.0458 22.2623 23.5173 22.2091C23.9887 22.1558 24.4651 22.246 24.8856 22.4681L27.7466 18.6103C27.1765 18.0453 26.8089 17.3042 26.7019 16.5043C26.5948 15.7044 26.7543 14.8912 27.1553 14.1932C27.3204 13.9127 27.5208 13.6549 27.7513 13.4265C25.9441 12.1866 23.7786 11.5938 21.5996 11.7424C19.4207 11.8911 17.3535 12.7727 15.7273 14.2468C14.1011 15.721 13.0093 17.703 12.6257 19.8772C12.2422 22.0515 12.5889 24.293 13.6107 26.2449C14.6326 28.1968 16.2707 29.7469 18.2644 30.6484C20.2581 31.5499 22.4927 31.7509 24.6125 31.2195C26.7322 30.6881 28.6153 29.4548 29.9618 27.716C31.3083 25.9772 32.0408 23.8327 32.0428 21.6242C32.0458 20.8462 31.9562 20.0707 31.7758 19.3143Z" fill="url(#paint0_radial_7301_164572)"/>
<path opacity="0.85" d="M26.2026 24.5465C26.219 24.9924 26.1142 25.4344 25.8995 25.8243C25.6849 26.2142 25.3686 26.5371 24.9851 26.7578C24.6016 26.9786 24.1656 27.0888 23.7245 27.0764C23.2834 27.064 22.8541 26.9295 22.4833 26.6875C22.1154 26.4514 21.8186 26.1178 21.625 25.7231C16.4705 25.3663 12.9514 19.3482 12.8847 21.6387C12.7607 26.1378 16.6993 30.8635 22.1066 30.878C24.529 30.8718 26.8515 29.9015 28.572 28.177C30.2924 26.4525 31.2724 24.1124 31.2999 21.6628C31.2999 19.9654 29.3259 22.8201 26.2026 24.5465Z" fill="url(#paint1_linear_7301_164572)"/>
<path d="M36.7161 13.5279C36.262 14.0984 35.6509 14.52 34.9599 14.7394C34.2689 14.9587 33.5291 14.9659 32.834 14.76C32.139 14.5542 31.5199 14.1446 31.0551 13.5829C30.5902 13.0213 30.3005 12.3329 30.2225 11.6048C30.1445 10.8766 30.2817 10.1414 30.6169 9.49213C30.952 8.84286 31.47 8.30865 32.1053 7.95706C32.7406 7.60547 33.4648 7.45229 34.1862 7.51687C34.9076 7.58146 35.5939 7.86091 36.1582 8.31991C36.9142 8.93635 37.3975 9.83087 37.502 10.8072C37.6066 11.7836 37.324 12.762 36.7161 13.5279Z" fill="black"/>
<path d="M27.17 14.198C27.2224 14.1112 27.2796 14.0341 27.3369 13.9569C25.5107 12.7032 23.293 12.1713 21.1047 12.462C18.8744 12.7948 16.8306 13.9093 15.3302 15.6109C14.5431 16.4405 13.9113 17.4078 13.4658 18.4656C21.8056 13.3107 23.4793 18.3692 27.046 19.5747L27.7613 18.6103C27.1916 18.046 26.8242 17.3058 26.7171 16.5067C26.61 15.7076 26.7694 14.8953 27.17 14.198Z" fill="url(#paint2_linear_7301_164572)"/>
<path d="M28.0381 19.7967C28.6627 19.8569 29.2929 19.8014 29.8977 19.6327C29.4062 19.58 28.9307 19.4257 28.5006 19.1794L28.0381 19.7967Z" fill="url(#paint3_linear_7301_164572)"/>
<path d="M22.4828 26.6875C21.9719 26.3545 21.6038 25.8391 21.4518 25.2439C21.2998 24.6487 21.3751 24.0175 21.6626 23.4759L19.3404 21.711L18.6204 22.6755L15.9692 20.6791L17.9481 17.9931L20.604 20.0136L19.884 20.9781L22.2396 22.7671C22.6012 22.4567 23.0462 22.2624 23.5177 22.2091C23.9891 22.1559 24.4655 22.246 24.886 22.4681L27.747 18.6104C27.177 18.0453 26.8094 17.3043 26.7023 16.5043C26.5952 15.7044 26.7548 14.8912 27.1557 14.1932C27.3208 13.9127 27.5212 13.655 27.7517 13.4265C26.4864 12.5579 25.0373 12.0016 23.5207 11.8021C22.0042 11.6026 20.4625 11.7656 19.0196 12.2779C17.5766 12.7903 16.2726 13.6377 15.2122 14.7521C14.1518 15.8665 13.3646 17.2169 12.9139 18.6948C12.4632 20.1727 12.3614 21.7369 12.6169 23.2617C12.8723 24.7866 13.4778 26.2296 14.3847 27.4749C15.2916 28.7202 16.4747 29.733 17.8388 30.4321C19.203 31.1312 20.7103 31.4969 22.2396 31.5001L22.4828 26.6875Z" fill="url(#paint4_linear_7301_164572)"/>
</g>
<path d="M29.4238 35.7344H29.9717L31.3691 39.2119L32.7637 35.7344H33.3145L31.5801 40H31.1523L29.4238 35.7344ZM29.2451 35.7344H29.7285L29.8076 38.3359V40H29.2451V35.7344ZM33.0068 35.7344H33.4902V40H32.9277V38.3359L33.0068 35.7344Z" fill="black"/>
<path d="M27.9561 38.9219C27.9561 38.8223 27.9404 38.7344 27.9092 38.6582C27.8799 38.5801 27.8271 38.5098 27.751 38.4473C27.6768 38.3848 27.5732 38.3252 27.4404 38.2686C27.3096 38.2119 27.1436 38.1543 26.9424 38.0957C26.7314 38.0332 26.541 37.9639 26.3711 37.8877C26.2012 37.8096 26.0557 37.7207 25.9346 37.6211C25.8135 37.5215 25.7207 37.4072 25.6562 37.2783C25.5918 37.1494 25.5596 37.002 25.5596 36.8359C25.5596 36.6699 25.5938 36.5166 25.6621 36.376C25.7305 36.2354 25.8281 36.1133 25.9551 36.0098C26.084 35.9043 26.2373 35.8223 26.415 35.7637C26.5928 35.7051 26.791 35.6758 27.0098 35.6758C27.3301 35.6758 27.6016 35.7373 27.8242 35.8604C28.0488 35.9814 28.2197 36.1406 28.3369 36.3379C28.4541 36.5332 28.5127 36.7422 28.5127 36.9648H27.9502C27.9502 36.8047 27.916 36.6631 27.8477 36.54C27.7793 36.415 27.6758 36.3174 27.5371 36.2471C27.3984 36.1748 27.2227 36.1387 27.0098 36.1387C26.8086 36.1387 26.6426 36.1689 26.5117 36.2295C26.3809 36.29 26.2832 36.3721 26.2188 36.4756C26.1562 36.5791 26.125 36.6973 26.125 36.8301C26.125 36.9199 26.1436 37.002 26.1807 37.0762C26.2197 37.1484 26.2793 37.2158 26.3594 37.2783C26.4414 37.3408 26.5449 37.3984 26.6699 37.4512C26.7969 37.5039 26.9482 37.5547 27.124 37.6035C27.3662 37.6719 27.5752 37.748 27.751 37.832C27.9268 37.916 28.0713 38.0107 28.1846 38.1162C28.2998 38.2197 28.3848 38.3379 28.4395 38.4707C28.4961 38.6016 28.5244 38.75 28.5244 38.916C28.5244 39.0898 28.4893 39.2471 28.4189 39.3877C28.3486 39.5283 28.248 39.6484 28.1172 39.748C27.9863 39.8477 27.8291 39.9248 27.6455 39.9795C27.4639 40.0322 27.2607 40.0586 27.0361 40.0586C26.8389 40.0586 26.6445 40.0312 26.4531 39.9766C26.2637 39.9219 26.0908 39.8398 25.9346 39.7305C25.7803 39.6211 25.6562 39.4863 25.5625 39.3262C25.4707 39.1641 25.4248 38.9766 25.4248 38.7637H25.9873C25.9873 38.9102 26.0156 39.0361 26.0723 39.1416C26.1289 39.2451 26.2061 39.3311 26.3037 39.3994C26.4033 39.4678 26.5156 39.5186 26.6406 39.5518C26.7676 39.583 26.8994 39.5986 27.0361 39.5986C27.2334 39.5986 27.4004 39.5713 27.5371 39.5166C27.6738 39.4619 27.7773 39.3838 27.8477 39.2822C27.9199 39.1807 27.9561 39.0605 27.9561 38.9219Z" fill="black"/>
<path d="M22.8994 40H22.0088L22.0146 39.54H22.8994C23.2041 39.54 23.458 39.4766 23.6611 39.3496C23.8643 39.2207 24.0166 39.041 24.1182 38.8105C24.2217 38.5781 24.2734 38.3066 24.2734 37.9961V37.7354C24.2734 37.4912 24.2441 37.2744 24.1855 37.085C24.127 36.8936 24.041 36.7324 23.9277 36.6016C23.8145 36.4688 23.6758 36.3682 23.5117 36.2998C23.3496 36.2314 23.1631 36.1973 22.9521 36.1973H21.9912V35.7344H22.9521C23.2314 35.7344 23.4863 35.7812 23.7168 35.875C23.9473 35.9668 24.1455 36.1006 24.3115 36.2764C24.4795 36.4502 24.6084 36.6611 24.6982 36.9092C24.7881 37.1553 24.833 37.4326 24.833 37.7412V37.9961C24.833 38.3047 24.7881 38.583 24.6982 38.8311C24.6084 39.0771 24.4785 39.2871 24.3086 39.4609C24.1406 39.6348 23.9375 39.7686 23.6992 39.8623C23.4629 39.9541 23.1963 40 22.8994 40ZM22.3105 35.7344V40H21.7451V35.7344H22.3105Z" fill="black"/>
<path d="M16.6855 35.7344H17.2334L18.6309 39.2119L20.0254 35.7344H20.5762L18.8418 40H18.4141L16.6855 35.7344ZM16.5068 35.7344H16.9902L17.0693 38.3359V40H16.5068V35.7344ZM20.2686 35.7344H20.752V40H20.1895V38.3359L20.2686 35.7344Z" fill="black"/>
<defs>
<radialGradient id="paint0_radial_7301_164572" cx="0" cy="0" r="1" gradientUnits="userSpaceOnUse" gradientTransform="translate(18.3556 20.0892) scale(14.2455 14.4064)">
<stop stop-color="#C40047"/>
<stop offset="0.89" stop-color="#FF0070"/>
</radialGradient>
<linearGradient id="paint1_linear_7301_164572" x1="15.4214" y1="24.3584" x2="27.233" y2="26.0141" gradientUnits="userSpaceOnUse">
<stop stop-color="#D02685" stop-opacity="0"/>
<stop offset="0.11" stop-color="#CE2581" stop-opacity="0.06"/>
<stop offset="0.31" stop-color="#CA2477" stop-opacity="0.23"/>
<stop offset="0.58" stop-color="#C42266" stop-opacity="0.5"/>
<stop offset="0.89" stop-color="#BB1F4F" stop-opacity="0.87"/>
<stop offset="1" stop-color="#B81E47"/>
</linearGradient>
<linearGradient id="paint2_linear_7301_164572" x1="17.4426" y1="15.2348" x2="37.3896" y2="18.3295" gradientUnits="userSpaceOnUse">
<stop offset="0.01" stop-color="#D31C5B" stop-opacity="0"/>
<stop offset="0.07" stop-color="#D52E67" stop-opacity="0.08"/>
<stop offset="0.21" stop-color="#DC5C88" stop-opacity="0.29"/>
<stop offset="0.41" stop-color="#E6A5BB" stop-opacity="0.63"/>
<stop offset="0.61" stop-color="#F1F5F3"/>
</linearGradient>
<linearGradient id="paint3_linear_7301_164572" x1="17.7767" y1="25.5061" x2="32.2003" y2="17.8963" gradientUnits="userSpaceOnUse">
<stop offset="0.01" stop-color="#D31C5B" stop-opacity="0"/>
<stop offset="0.05" stop-color="#D41D5C" stop-opacity="0.03"/>
<stop offset="0.12" stop-color="#D61F5D" stop-opacity="0.1"/>
<stop offset="0.2" stop-color="#D92360" stop-opacity="0.22"/>
<stop offset="0.29" stop-color="#DD2863" stop-opacity="0.4"/>
<stop offset="0.38" stop-color="#E32F68" stop-opacity="0.61"/>
<stop offset="0.47" stop-color="#EA376D" stop-opacity="0.88"/>
<stop offset="0.52" stop-color="#ED3B70"/>
<stop offset="0.62" stop-color="#ED6892"/>
<stop offset="0.74" stop-color="#ED91AF"/>
<stop offset="0.84" stop-color="#EDAEC5"/>
<stop offset="0.93" stop-color="#EDC0D2"/>
<stop offset="1" stop-color="#EDC6D7"/>
</linearGradient>
<linearGradient id="paint4_linear_7301_164572" x1="16.7179" y1="9.80988" x2="22.347" y2="23.5428" gradientUnits="userSpaceOnUse">
<stop stop-color="white" stop-opacity="0.8"/>
<stop offset="0.22" stop-color="#FFE9FF" stop-opacity="0.64"/>
<stop offset="0.71" stop-color="#FFB3FF" stop-opacity="0.24"/>
<stop offset="0.99" stop-color="#FF93FF" stop-opacity="0"/>
</linearGradient>
<clipPath id="clip0_7301_164572">
<rect width="25.0432" height="24" fill="white" transform="translate(12.4785 7.5)"/>
</clipPath>
</defs>
</svg>
