<svg width="50" height="50" viewBox="0 0 50 50" fill="none" xmlns="http://www.w3.org/2000/svg">
<path d="M31.7739 19.2975C31.2573 19.5396 30.6911 19.6536 30.1222 19.6302C29.5533 19.6067 28.9982 19.4464 28.5028 19.1625L25.6418 23.0202C25.9956 23.4402 26.1989 23.9686 26.2188 24.5199C26.2452 24.969 26.1468 25.4165 25.9349 25.8119C25.7229 26.2074 25.4058 26.535 25.0194 26.7578C24.633 26.9805 24.1926 27.0895 23.7482 27.0724C23.3037 27.0553 22.8728 26.9128 22.5042 26.661C21.9909 26.3327 21.6188 25.8207 21.4623 25.2271C21.3059 24.6336 21.3766 24.0022 21.6603 23.4591L19.3381 21.6941L18.6181 22.6586L15.9669 20.6622L17.9457 17.9762L20.6017 19.9967L19.8817 20.9612L22.2372 22.7502C22.5989 22.4398 23.0439 22.2455 23.5153 22.1922C23.9867 22.139 24.4632 22.2292 24.8836 22.4512L27.7446 18.5935C27.1746 18.0284 26.807 17.2874 26.6999 16.4875C26.5929 15.6875 26.7524 14.8743 27.1534 14.1764C27.3185 13.8958 27.5188 13.6381 27.7494 13.4096C25.9421 12.1697 23.7766 11.5769 21.5977 11.7256C19.4187 11.8742 17.3516 12.7558 15.7254 14.23C14.0992 15.7042 13.0074 17.6861 12.6238 19.8604C12.2402 22.0346 12.587 24.2762 13.6088 26.2281C14.6306 28.18 16.2688 29.7301 18.2625 30.6315C20.2562 31.533 22.4908 31.7341 24.6105 31.2027C26.7303 30.6713 28.6133 29.438 29.9598 27.6992C31.3063 25.9603 32.0389 23.8159 32.0409 21.6073C32.0439 20.8293 31.9542 20.0538 31.7739 19.2975Z" fill="url(#paint0_radial_6845_189)"/>
<path d="M36.7141 13.511C36.26 14.0816 35.6488 14.5032 34.9578 14.7225C34.2668 14.9418 33.527 14.949 32.832 14.7432C32.137 14.5373 31.5179 14.1277 31.053 13.5661C30.5882 13.0044 30.2984 12.316 30.2204 11.5879C30.1424 10.8597 30.2797 10.1245 30.6148 9.47526C30.9499 8.82598 31.4679 8.29178 32.1032 7.94019C32.7386 7.5886 33.4627 7.43541 34.1841 7.5C34.9055 7.56459 35.5918 7.84404 36.1562 8.30304C36.9121 8.91948 37.3954 9.814 37.5 10.7904C37.6046 11.7667 37.3219 12.7451 36.7141 13.511Z" fill="black"/>
<path d="M26.2003 24.5296C26.2167 24.9756 26.1119 25.4175 25.8972 25.8074C25.6825 26.1973 25.3663 26.5202 24.9828 26.741C24.5993 26.9617 24.1632 27.0719 23.7221 27.0595C23.281 27.0471 22.8518 26.9126 22.481 26.6707C22.1131 26.4345 21.8163 26.101 21.6227 25.7062C16.4681 25.3494 12.9491 19.3313 12.8823 21.6218C12.7584 26.1209 16.697 30.8467 22.1043 30.8611C24.5266 30.855 26.8492 29.8847 28.5696 28.1601C30.2901 26.4356 31.27 24.0955 31.2976 21.6459C31.2976 19.9485 29.3235 22.8033 26.2003 24.5296Z" fill="url(#paint1_linear_6845_189)"/>
<path d="M27.1677 14.1812C27.2201 14.0944 27.2773 14.0172 27.3346 13.9401C25.5084 12.6864 23.2907 12.1545 21.1024 12.4452C18.8721 12.778 16.8283 13.8925 15.3279 15.5941C14.5407 16.4237 13.909 17.391 13.4635 18.4488C21.8033 13.2939 23.477 18.3524 27.0437 19.5579L27.7589 18.5935C27.1893 18.0292 26.8219 17.289 26.7148 16.4899C26.6077 15.6908 26.7671 14.8784 27.1677 14.1812Z" fill="#EDC6D7"/>
<path d="M28.0359 19.7798C28.6605 19.84 29.2907 19.7845 29.8956 19.6158C29.4041 19.563 28.9286 19.4088 28.4984 19.1625L28.0359 19.7798Z" fill="#EDC6D7"/>
<path d="M22.481 26.6707C21.9701 26.3376 21.6016 25.8222 21.4497 25.227C21.2977 24.6319 21.3727 24.0006 21.6603 23.4591L19.3381 21.6941L18.6181 22.6586L15.9669 20.6622L17.9457 17.9762L20.6017 19.9967L19.8817 20.9612L22.2372 22.7502C22.5989 22.4398 23.0439 22.2455 23.5153 22.1922C23.9867 22.139 24.4632 22.2292 24.8836 22.4512L27.7446 18.5935C27.1746 18.0284 26.807 17.2874 26.6999 16.4875C26.5929 15.6875 26.7524 14.8743 27.1534 14.1764C27.3185 13.8958 27.5188 13.6381 27.7494 13.4096C26.484 12.5411 25.0351 11.9847 23.5186 11.7852C22.0021 11.5858 20.4604 11.7487 19.0175 12.2611C17.5745 12.7734 16.2705 13.6208 15.2101 14.7352C14.1497 15.8497 13.3625 17.2001 12.9118 18.6779C12.4611 20.1558 12.3593 21.72 12.6148 23.2449C12.8702 24.7697 13.4757 26.2127 14.3826 27.458C15.2895 28.7033 16.4726 29.7162 17.8367 30.4152C19.2009 31.1143 20.7082 31.4801 22.2375 31.4832L22.481 26.6707Z" fill="url(#paint2_linear_6845_189)"/>
<path d="M5.21641 37H5.87982L7.57205 41.4126L9.26074 37H9.9277L7.82748 42.4126H7.30953L5.21641 37ZM5 37H5.58536L5.68115 40.3011V42.4126H5V37ZM9.55519 37H10.1406V42.4126H9.45941V40.3011L9.55519 37Z" fill="black"/>
<path d="M13.2893 41.7249V39.6543C13.2893 39.4957 13.2586 39.3581 13.1971 39.2416C13.138 39.1227 13.0481 39.031 12.9275 38.9665C12.8068 38.9021 12.6578 38.8699 12.4805 38.8699C12.3149 38.8699 12.1694 38.8996 12.0441 38.9591C11.9211 39.0186 11.8241 39.0967 11.7532 39.1933C11.6846 39.29 11.6503 39.3941 11.6503 39.5056H10.994C10.994 39.3618 11.0295 39.2193 11.1004 39.0781C11.1714 38.9368 11.2731 38.8092 11.4055 38.6952C11.5403 38.5787 11.7011 38.487 11.888 38.4201C12.0772 38.3507 12.2877 38.316 12.5195 38.316C12.7986 38.316 13.0445 38.3656 13.2574 38.4647C13.4726 38.5638 13.6405 38.7138 13.7612 38.9145C13.8841 39.1128 13.9456 39.3618 13.9456 39.6617V41.5353C13.9456 41.6691 13.9563 41.8116 13.9776 41.9628C14.0012 42.114 14.0355 42.2441 14.0804 42.3532V42.4126H13.3957C13.3626 42.3333 13.3366 42.228 13.3177 42.0967C13.2988 41.9628 13.2893 41.8389 13.2893 41.7249ZM13.4028 39.974L13.4099 40.4572H12.7465C12.5597 40.4572 12.3929 40.4734 12.2463 40.5056C12.0997 40.5353 11.9767 40.5812 11.8774 40.6431C11.778 40.7051 11.7023 40.7831 11.6503 40.8773C11.5983 40.969 11.5723 41.0768 11.5723 41.2007C11.5723 41.3271 11.5995 41.4424 11.6538 41.5465C11.7082 41.6506 11.7898 41.7336 11.8986 41.7955C12.0098 41.855 12.1458 41.8848 12.3066 41.8848C12.5077 41.8848 12.685 41.8401 12.8388 41.7509C12.9925 41.6617 13.1143 41.5527 13.2042 41.4238C13.2964 41.2949 13.3461 41.1698 13.3532 41.0483L13.6334 41.3792C13.6169 41.4833 13.5719 41.5985 13.4986 41.7249C13.4253 41.8513 13.3272 41.9727 13.2042 42.0892C13.0836 42.2032 12.9393 42.2986 12.7714 42.3755C12.6058 42.4498 12.419 42.487 12.2108 42.487C11.9507 42.487 11.7224 42.4337 11.5261 42.3271C11.3322 42.2206 11.1808 42.0781 11.072 41.8996C10.9656 41.7187 10.9124 41.5167 10.9124 41.2937C10.9124 41.0781 10.9526 40.8885 11.033 40.7249C11.1134 40.5589 11.2293 40.4213 11.3807 40.3123C11.532 40.2007 11.7142 40.1165 11.927 40.0595C12.1399 40.0025 12.3776 39.974 12.6401 39.974H13.4028Z" fill="black"/>
<path d="M15.4164 39.2491V42.4126H14.76V38.3903H15.3809L15.4164 39.2491ZM15.2603 40.2491L14.9871 40.2379C14.9895 39.9628 15.0285 39.7088 15.1042 39.4758C15.1798 39.2404 15.2863 39.0359 15.4234 38.8625C15.5606 38.689 15.7238 38.5551 15.913 38.461C16.1046 38.3643 16.3163 38.316 16.5481 38.316C16.7373 38.316 16.9076 38.3432 17.0589 38.3978C17.2103 38.4498 17.3392 38.5341 17.4456 38.6506C17.5544 38.767 17.6372 38.9182 17.694 39.1041C17.7507 39.2875 17.7791 39.5118 17.7791 39.777V42.4126H17.1192V39.7695C17.1192 39.5589 17.0897 39.3903 17.0305 39.2639C16.9714 39.1351 16.8851 39.0421 16.7716 38.9851C16.658 38.9257 16.5185 38.8959 16.3529 38.8959C16.1897 38.8959 16.0407 38.9318 15.9059 39.0037C15.7735 39.0756 15.6588 39.1747 15.5618 39.3011C15.4672 39.4275 15.3927 39.5725 15.3383 39.7361C15.2863 39.8971 15.2603 40.0682 15.2603 40.2491Z" fill="black"/>
<path d="M20.8214 41.7249V39.6543C20.8214 39.4957 20.7907 39.3581 20.7292 39.2416C20.6701 39.1227 20.5802 39.031 20.4596 38.9665C20.3389 38.9021 20.1899 38.8699 20.0126 38.8699C19.847 38.8699 19.7015 38.8996 19.5762 38.9591C19.4532 39.0186 19.3562 39.0967 19.2853 39.1933C19.2167 39.29 19.1824 39.3941 19.1824 39.5056H18.5261C18.5261 39.3618 18.5616 39.2193 18.6325 39.0781C18.7035 38.9368 18.8052 38.8092 18.9376 38.6952C19.0724 38.5787 19.2333 38.487 19.4201 38.4201C19.6093 38.3507 19.8198 38.316 20.0516 38.316C20.3307 38.316 20.5766 38.3656 20.7895 38.4647C21.0047 38.5638 21.1726 38.7138 21.2933 38.9145C21.4162 39.1128 21.4777 39.3618 21.4777 39.6617V41.5353C21.4777 41.6691 21.4884 41.8116 21.5097 41.9628C21.5333 42.114 21.5676 42.2441 21.6126 42.3532V42.4126H20.9279C20.8947 42.3333 20.8687 42.228 20.8498 42.0967C20.8309 41.9628 20.8214 41.8389 20.8214 41.7249ZM20.9349 39.974L20.942 40.4572H20.2786C20.0918 40.4572 19.925 40.4734 19.7784 40.5056C19.6318 40.5353 19.5088 40.5812 19.4095 40.6431C19.3101 40.7051 19.2344 40.7831 19.1824 40.8773C19.1304 40.969 19.1044 41.0768 19.1044 41.2007C19.1044 41.3271 19.1316 41.4424 19.186 41.5465C19.2404 41.6506 19.3219 41.7336 19.4307 41.7955C19.5419 41.855 19.6779 41.8848 19.8387 41.8848C20.0398 41.8848 20.2171 41.8401 20.3709 41.7509C20.5246 41.6617 20.6464 41.5527 20.7363 41.4238C20.8285 41.2949 20.8782 41.1698 20.8853 41.0483L21.1655 41.3792C21.149 41.4833 21.1041 41.5985 21.0307 41.7249C20.9574 41.8513 20.8593 41.9727 20.7363 42.0892C20.6157 42.2032 20.4714 42.2986 20.3035 42.3755C20.1379 42.4498 19.9511 42.487 19.7429 42.487C19.4828 42.487 19.2545 42.4337 19.0582 42.3271C18.8643 42.2206 18.7129 42.0781 18.6041 41.8996C18.4977 41.7187 18.4445 41.5167 18.4445 41.2937C18.4445 41.0781 18.4847 40.8885 18.5651 40.7249C18.6455 40.5589 18.7614 40.4213 18.9128 40.3123C19.0642 40.2007 19.2463 40.1165 19.4591 40.0595C19.672 40.0025 19.9097 39.974 20.1722 39.974H20.9349Z" fill="black"/>
<path d="M24.7791 38.3903H25.3751V42.3271C25.3751 42.6815 25.3065 42.9839 25.1693 43.2342C25.0321 43.4845 24.8405 43.6741 24.5946 43.803C24.351 43.9343 24.0695 44 23.7502 44C23.6178 44 23.4617 43.9777 23.2819 43.9331C23.1046 43.891 22.9295 43.8178 22.7569 43.7138C22.5866 43.6121 22.4435 43.4746 22.3276 43.3011L22.6717 42.8922C22.8326 43.0954 23.0005 43.2367 23.1755 43.316C23.3529 43.3953 23.5279 43.4349 23.7006 43.4349C23.9087 43.4349 24.0884 43.3941 24.2398 43.3123C24.3912 43.2305 24.5082 43.109 24.591 42.948C24.6762 42.7893 24.7187 42.5936 24.7187 42.3606V39.2751L24.7791 38.3903ZM22.136 40.4461V40.368C22.136 40.0607 22.1703 39.7819 22.2389 39.5316C22.3099 39.2788 22.4104 39.062 22.5405 38.881C22.6729 38.7001 22.8326 38.5613 23.0194 38.4647C23.2063 38.3656 23.4168 38.316 23.6509 38.316C23.8921 38.316 24.1026 38.3606 24.2824 38.4498C24.4645 38.5366 24.6182 38.6642 24.7436 38.8327C24.8713 38.9988 24.9718 39.1995 25.0451 39.4349C25.1184 39.6704 25.1693 39.9368 25.1977 40.2342V40.5762C25.1717 40.8711 25.1208 41.1363 25.0451 41.3717C24.9718 41.6072 24.8713 41.8079 24.7436 41.974C24.6182 42.14 24.4645 42.2677 24.2824 42.3569C24.1003 42.4436 23.8874 42.487 23.6438 42.487C23.4144 42.487 23.2063 42.4362 23.0194 42.3346C22.8349 42.233 22.6765 42.0905 22.544 41.9071C22.4116 41.7237 22.3099 41.5081 22.2389 41.2602C22.1703 41.0099 22.136 40.7385 22.136 40.4461ZM22.7924 40.368V40.4461C22.7924 40.6468 22.8113 40.8352 22.8491 41.0112C22.8893 41.1871 22.9496 41.342 23.0301 41.4758C23.1128 41.6097 23.2181 41.715 23.3458 41.7918C23.4735 41.8662 23.6261 41.9033 23.8034 41.9033C24.021 41.9033 24.2008 41.855 24.3427 41.7584C24.4846 41.6617 24.5969 41.5341 24.6797 41.3755C24.7649 41.2169 24.8311 41.0446 24.8784 40.8587V39.9628C24.8524 39.8265 24.8122 39.6952 24.7578 39.5688C24.7057 39.4399 24.6371 39.3259 24.552 39.2268C24.4692 39.1252 24.3663 39.0446 24.2434 38.9851C24.1204 38.9257 23.9761 38.8959 23.8105 38.8959C23.6308 38.8959 23.4759 38.9356 23.3458 39.0149C23.2181 39.0917 23.1128 39.1983 23.0301 39.3346C22.9496 39.4684 22.8893 39.6245 22.8491 39.803C22.8113 39.9789 22.7924 40.1673 22.7924 40.368Z" fill="black"/>
<path d="M27.7469 42.487C27.4796 42.487 27.2372 42.4399 27.0196 42.3457C26.8044 42.2491 26.6187 42.114 26.4626 41.9405C26.3089 41.767 26.1906 41.5613 26.1079 41.3234C26.0251 41.0855 25.9837 40.8253 25.9837 40.5428V40.3866C25.9837 40.0595 26.0298 39.7683 26.1221 39.513C26.2143 39.2553 26.3396 39.0372 26.4981 38.8587C26.6566 38.6803 26.8363 38.5452 27.0373 38.4535C27.2384 38.3618 27.4465 38.316 27.6617 38.316C27.9361 38.316 28.1726 38.3656 28.3713 38.4647C28.5723 38.5638 28.7367 38.7026 28.8644 38.881C28.9921 39.057 29.0867 39.2652 29.1482 39.5056C29.2097 39.7435 29.2404 40.0037 29.2404 40.2862V40.5948H26.3739V40.0335H28.5841V39.9814C28.5747 39.803 28.5392 39.6295 28.4777 39.461C28.4186 39.2924 28.324 39.1537 28.1939 39.0446C28.0638 38.9356 27.8864 38.881 27.6617 38.881C27.5127 38.881 27.3756 38.9145 27.2502 38.9814C27.1249 39.0458 27.0172 39.1425 26.9274 39.2714C26.8375 39.4002 26.7677 39.5576 26.7181 39.7435C26.6684 39.9294 26.6436 40.1437 26.6436 40.3866V40.5428C26.6436 40.7336 26.6684 40.9133 26.7181 41.0818C26.7701 41.2478 26.8446 41.3941 26.9416 41.5204C27.0409 41.6468 27.1603 41.746 27.2999 41.8178C27.4418 41.8897 27.6026 41.9257 27.7824 41.9257C28.0141 41.9257 28.2104 41.8761 28.3713 41.777C28.5321 41.6778 28.6728 41.5452 28.7934 41.3792L29.1908 41.71C29.108 41.8414 29.0028 41.9665 28.875 42.0855C28.7473 42.2045 28.59 42.3011 28.4032 42.3755C28.2187 42.4498 27.9999 42.487 27.7469 42.487Z" fill="black"/>
<path d="M30.4415 39.1896V42.4126H29.7817V38.3903H30.4061L30.4415 39.1896ZM30.3067 40.2491L30.0016 40.2379C30.004 39.9628 30.0383 39.7088 30.1045 39.4758C30.1707 39.2404 30.2689 39.0359 30.399 38.8625C30.529 38.689 30.6911 38.5551 30.885 38.461C31.0789 38.3643 31.3036 38.316 31.5591 38.316C31.7388 38.316 31.9044 38.3432 32.0557 38.3978C32.2071 38.4498 32.3384 38.5328 32.4495 38.6468C32.5607 38.7608 32.647 38.9071 32.7085 39.0855C32.77 39.2639 32.8007 39.4796 32.8007 39.7323V42.4126H32.1444V39.7658C32.1444 39.5551 32.1101 39.3866 32.0415 39.2602C31.9753 39.1338 31.8807 39.0421 31.7577 38.9851C31.6347 38.9257 31.4905 38.8959 31.3249 38.8959C31.131 38.8959 30.969 38.9318 30.8389 39.0037C30.7088 39.0756 30.6047 39.1747 30.5267 39.3011C30.4486 39.4275 30.3919 39.5725 30.3564 39.7361C30.3233 39.8971 30.3067 40.0682 30.3067 40.2491ZM32.7936 39.8699L32.3537 40.0112C32.3561 39.7906 32.3904 39.5787 32.4566 39.3755C32.5252 39.1722 32.6234 38.9913 32.7511 38.8327C32.8811 38.6741 33.0408 38.5489 33.23 38.4572C33.4192 38.3631 33.6356 38.316 33.8792 38.316C34.085 38.316 34.2671 38.3445 34.4256 38.4015C34.5864 38.4585 34.7212 38.5465 34.83 38.6654C34.9412 38.7819 35.0251 38.9318 35.0819 39.1152C35.1386 39.2986 35.167 39.5167 35.167 39.7695V42.4126H34.5072V39.7621C34.5072 39.5366 34.4729 39.3618 34.4043 39.2379C34.3381 39.1115 34.2434 39.0235 34.1205 38.974C33.9998 38.9219 33.8556 38.8959 33.6876 38.8959C33.5434 38.8959 33.4157 38.9219 33.3045 38.974C33.1933 39.026 33.0999 39.0979 33.0242 39.1896C32.9486 39.2788 32.8906 39.3817 32.8504 39.4981C32.8126 39.6146 32.7936 39.7385 32.7936 39.8699Z" fill="black"/>
<path d="M37.5353 42.487C37.268 42.487 37.0256 42.4399 36.808 42.3457C36.5928 42.2491 36.4071 42.114 36.251 41.9405C36.0973 41.767 35.9791 41.5613 35.8963 41.3234C35.8135 41.0855 35.7721 40.8253 35.7721 40.5428V40.3866C35.7721 40.0595 35.8182 39.7683 35.9105 39.513C36.0027 39.2553 36.1281 39.0372 36.2865 38.8587C36.445 38.6803 36.6247 38.5452 36.8258 38.4535C37.0268 38.3618 37.2349 38.316 37.4502 38.316C37.7245 38.316 37.961 38.3656 38.1597 38.4647C38.3607 38.5638 38.5251 38.7026 38.6528 38.881C38.7805 39.057 38.8751 39.2652 38.9366 39.5056C38.9981 39.7435 39.0289 40.0037 39.0289 40.2862V40.5948H36.1624V40.0335H38.3725V39.9814C38.3631 39.803 38.3276 39.6295 38.2661 39.461C38.207 39.2924 38.1124 39.1537 37.9823 39.0446C37.8522 38.9356 37.6748 38.881 37.4502 38.881C37.3012 38.881 37.164 38.9145 37.0386 38.9814C36.9133 39.0458 36.8057 39.1425 36.7158 39.2714C36.6259 39.4002 36.5561 39.5576 36.5065 39.7435C36.4568 39.9294 36.432 40.1437 36.432 40.3866V40.5428C36.432 40.7336 36.4568 40.9133 36.5065 41.0818C36.5585 41.2478 36.633 41.3941 36.73 41.5204C36.8293 41.6468 36.9488 41.746 37.0883 41.8178C37.2302 41.8897 37.391 41.9257 37.5708 41.9257C37.8026 41.9257 37.9989 41.8761 38.1597 41.777C38.3205 41.6778 38.4612 41.5452 38.5819 41.3792L38.9792 41.71C38.8964 41.8414 38.7912 41.9665 38.6635 42.0855C38.5357 42.2045 38.3785 42.3011 38.1916 42.3755C38.0071 42.4498 37.7884 42.487 37.5353 42.487Z" fill="black"/>
<path d="M40.2335 39.2491V42.4126H39.5772V38.3903H40.198L40.2335 39.2491ZM40.0774 40.2491L39.8042 40.2379C39.8066 39.9628 39.8456 39.7088 39.9213 39.4758C39.997 39.2404 40.1034 39.0359 40.2406 38.8625C40.3778 38.689 40.541 38.5551 40.7302 38.461C40.9218 38.3643 41.1334 38.316 41.3652 38.316C41.5544 38.316 41.7247 38.3432 41.8761 38.3978C42.0274 38.4498 42.1563 38.5341 42.2628 38.6506C42.3716 38.767 42.4543 38.9182 42.5111 39.1041C42.5679 39.2875 42.5962 39.5118 42.5962 39.777V42.4126H41.9364V39.7695C41.9364 39.5589 41.9068 39.3903 41.8477 39.2639C41.7886 39.1351 41.7022 39.0421 41.5887 38.9851C41.4752 38.9257 41.3356 38.8959 41.1701 38.8959C41.0069 38.8959 40.8579 38.9318 40.7231 39.0037C40.5906 39.0756 40.4759 39.1747 40.379 39.3011C40.2844 39.4275 40.2099 39.5725 40.1555 39.7361C40.1034 39.8971 40.0774 40.0682 40.0774 40.2491Z" fill="black"/>
<path d="M44.9823 38.3903V38.9182H42.9069V38.3903H44.9823ZM43.6093 37.4126H44.2656V41.4164C44.2656 41.5527 44.2857 41.6555 44.3259 41.7249C44.3662 41.7943 44.4182 41.8401 44.482 41.8625C44.5459 41.8848 44.6145 41.8959 44.6878 41.8959C44.7422 41.8959 44.799 41.891 44.8581 41.881C44.9196 41.8686 44.9657 41.8587 44.9965 41.8513L45 42.4126C44.948 42.43 44.8794 42.4461 44.7942 42.461C44.7115 42.4783 44.6109 42.487 44.4927 42.487C44.3319 42.487 44.184 42.4535 44.0492 42.3866C43.9144 42.3197 43.8068 42.2082 43.7264 42.052C43.6483 41.8934 43.6093 41.6803 43.6093 41.4126V37.4126Z" fill="black"/>
<defs>
<radialGradient id="paint0_radial_6845_189" cx="0" cy="0" r="1" gradientUnits="userSpaceOnUse" gradientTransform="translate(20.0009 17.6385) scale(18.235 17.4766)">
<stop stop-color="#C40047"/>
<stop offset="0.89" stop-color="#FF0070"/>
</radialGradient>
<linearGradient id="paint1_linear_6845_189" x1="15.9257" y1="15.4529" x2="32.2079" y2="16.7146" gradientUnits="userSpaceOnUse">
<stop offset="0.00823991" stop-color="#E60463"/>
<stop offset="1" stop-color="#B81E47"/>
</linearGradient>
<linearGradient id="paint2_linear_6845_189" x1="21.5" y1="12" x2="22.8525" y2="23.0738" gradientUnits="userSpaceOnUse">
<stop offset="0.193918" stop-color="#EF8FBE"/>
<stop offset="1" stop-color="#DC0259"/>
</linearGradient>
</defs>
</svg>
