<svg width="50" height="50" viewBox="0 0 50 50" fill="none" xmlns="http://www.w3.org/2000/svg">
<path d="M21.8771 30.2762L18.7422 25L21.8771 19.7238H28.1184L31.2533 25L28.1184 30.2762H21.8771Z" fill="#E83030"/>
<path d="M21.8771 43.0427L18.7422 37.7665L21.8771 32.4904H28.1184L31.2533 37.7665L28.1184 43.0427H21.8771Z" fill="#6B91C7"/>
<path d="M21.8771 17.5096L18.7422 12.2335L21.8771 6.95727H28.1184L31.2533 12.2335L28.1184 17.5096H21.8771Z" fill="#F9C31F"/>
<path d="M33.4692 36.6591L30.3343 31.383L33.4692 26.1067H39.7105L42.8454 31.383L39.7105 36.6591H33.4692Z" fill="#795AA5"/>
<path d="M33.4692 23.8926L30.3343 18.6165L33.4692 13.3403H39.7105L42.8454 18.6165L39.7105 23.8926H33.4692Z" fill="#F17423"/>
<path d="M10.2895 36.6592L7.15458 31.383L10.2895 26.1068H16.5307L19.6657 31.383L16.5307 36.6592H10.2895Z" fill="#97C639"/>
<path d="M10.2895 23.8926L7.15458 18.6165L10.2895 13.3403H16.5307L19.6657 18.6165L16.5307 23.8926H10.2895Z" fill="#C9DB70"/>
<path fill-rule="evenodd" clip-rule="evenodd" d="M21.2913 6H28.7042L32.4079 12.2335L28.7042 18.4669H21.2913L17.5876 12.2335L21.2913 6ZM22.4629 7.91454L19.8968 12.2335L22.4629 16.5523H27.5326L30.0987 12.2335L27.5325 7.91454H22.4629ZM9.70372 12.383H17.1165L20.8203 18.6165L17.1165 24.8499H9.70373L6 18.6165L9.70372 12.383ZM10.8753 14.2975L8.30917 18.6165L10.8753 22.9354H15.9449L18.5111 18.6165L15.9449 14.2975H10.8753ZM32.8834 12.383H40.2963L44 18.6165L40.2963 24.8499H32.8834L29.1797 18.6165L32.8834 12.383ZM34.0551 14.2975L31.4889 18.6165L34.055 22.9354H39.1247L41.6908 18.6165L39.1247 14.2975H34.0551ZM21.2913 18.7666H28.7042L32.4079 25L28.7042 31.2335H21.2913L17.5876 25L21.2913 18.7666ZM22.4629 20.6811L19.8968 25L22.4629 29.3189H27.5325L30.0987 25L27.5326 20.6811H22.4629ZM32.8834 25.1495H40.2963L44 31.383L40.2963 37.6164H32.8834L29.1797 31.383L32.8834 25.1495ZM34.055 27.064L31.4889 31.383L34.055 35.7018H39.1247L41.6908 31.383L39.1247 27.064H34.055ZM9.70372 25.1495H17.1165L20.8203 31.383L17.1165 37.6164H9.70373L6 31.383L9.70372 25.1495ZM10.8753 27.0641L8.30917 31.383L10.8753 35.7019H15.9449L18.5111 31.383L15.9449 27.0641H10.8753ZM21.2913 31.5331H28.7042L32.4079 37.7665L28.7042 44H21.2913L17.5876 37.7665L21.2913 31.5331ZM22.4629 33.4476L19.8968 37.7665L22.4629 42.0855H27.5326L30.0987 37.7665L27.5326 33.4476H22.4629Z" fill="#141A1F"/>
</svg>
