<svg width="50" height="50" viewBox="0 0 50 50" fill="none" xmlns="http://www.w3.org/2000/svg">
<path d="M30.7678 22.3669C30.7101 22.3375 30.2585 22.07 29.5874 22.07C28.6803 22.07 28.051 22.7011 28.051 23.5531C28.051 24.3793 28.6532 25.0376 29.5874 25.0376C30.247 25.0376 30.7061 24.7753 30.7678 24.7424V26.2349C30.5918 26.2838 30.1123 26.4326 29.4892 26.4326C27.911 26.4326 26.5256 25.3447 26.5256 23.5527C26.5256 21.8927 27.779 20.6749 29.4892 20.6749C30.147 20.6749 30.635 20.8349 30.7678 20.8745V22.3669ZM16.1221 22.3669C16.0657 22.3375 15.6146 22.07 14.9435 22.07C14.0346 22.07 13.4057 22.7011 13.4057 23.5531C13.4057 24.3793 14.0084 25.0376 14.9435 25.0376C15.603 25.0376 16.0617 24.7753 16.1221 24.7424V26.2349C15.9479 26.2838 15.4688 26.4326 14.8421 26.4326C13.2653 26.4326 11.8817 25.3447 11.8817 23.5527C11.8817 21.8927 13.135 20.6749 14.8426 20.6749C15.503 20.6749 15.9901 20.8349 16.1221 20.8745V22.3669ZM35.1816 22.0909C34.3492 22.0909 33.7309 22.746 33.7309 23.5531C33.7309 24.362 34.3492 25.0167 35.1816 25.0167C36.0131 25.0167 36.6331 24.362 36.6331 23.5531C36.6331 22.746 36.0131 22.0909 35.1816 22.0909ZM38.1198 23.5531C38.1198 25.1438 36.8918 26.4326 35.182 26.4326C33.4714 26.4326 32.2452 25.1438 32.2452 23.5527C32.2452 21.9651 33.4718 20.6749 35.1816 20.6749C36.8918 20.6749 38.1198 21.9651 38.1198 23.5531ZM24.775 22.0376C24.7541 22.0309 24.1634 21.8678 23.6781 21.8678C23.1159 21.8678 22.8101 22.0562 22.8101 22.3233C22.8101 22.662 23.2225 22.7802 23.4532 22.8531L23.8403 22.9762C24.7514 23.266 25.1661 23.8895 25.1661 24.5669C25.1661 25.9638 23.9376 26.4331 22.8639 26.4331C22.1177 26.4331 21.4186 26.2953 21.3497 26.2811V25.0011C21.4732 25.0322 22.0617 25.2082 22.6745 25.2082C23.3728 25.2082 23.6937 25.0038 23.6937 24.6891C23.6937 24.4073 23.4159 24.2447 23.0679 24.1353C22.9834 24.1069 22.8554 24.0669 22.7683 24.0384C21.987 23.7913 21.3354 23.3318 21.3354 22.4118C21.3354 21.3718 22.1141 20.6736 23.4074 20.6736C24.0905 20.6736 24.7332 20.8393 24.775 20.8505V22.0376Z" fill="#049FD9"/>
<path d="M19.4538 26.3341H18.0507V20.7737H19.4538V26.3341Z" fill="#049FD9"/>
<path d="M10.3933 14.7982C10.3933 14.4151 10.0804 14.1044 9.69689 14.1044C9.31333 14.1044 9 14.4151 9 14.7977V16.2578C9.00459 16.4395 9.08 16.6122 9.21015 16.7391C9.3403 16.866 9.51489 16.937 9.69667 16.937C9.87844 16.937 10.053 16.866 10.1832 16.7391C10.3133 16.6122 10.3887 16.4395 10.3933 16.2578V14.7982ZM14.2195 12.8827C14.2195 12.6979 14.1461 12.5207 14.0155 12.39C13.8848 12.2594 13.7076 12.186 13.5229 12.186C13.3381 12.186 13.1609 12.2594 13.0303 12.39C12.8996 12.5207 12.8262 12.6979 12.8262 12.8827V16.2578C12.8262 16.4425 12.8996 16.6197 13.0303 16.7504C13.1609 16.881 13.3381 16.9544 13.5229 16.9544C13.7076 16.9544 13.8848 16.881 14.0155 16.7504C14.1461 16.6197 14.2195 16.4425 14.2195 16.2578V12.8827ZM18.0462 10.2613C18.0462 9.87823 17.7333 9.56711 17.3497 9.56711C16.9657 9.56711 16.6529 9.87823 16.6529 10.2613V17.6448C16.6574 17.8266 16.7329 17.9993 16.863 18.1262C16.9932 18.2531 17.1677 18.3241 17.3495 18.3241C17.5313 18.3241 17.7059 18.2531 17.836 18.1262C17.9662 17.9993 18.0416 17.8266 18.0462 17.6448V10.2613ZM21.8724 12.8827C21.8724 12.6979 21.799 12.5207 21.6683 12.39C21.5377 12.2594 21.3605 12.186 21.1757 12.186C20.9909 12.186 20.8137 12.2594 20.6831 12.39C20.5525 12.5207 20.4791 12.6979 20.4791 12.8827V16.2578C20.4791 16.4425 20.5525 16.6197 20.6831 16.7504C20.8137 16.881 20.9909 16.9544 21.1757 16.9544C21.3605 16.9544 21.5377 16.881 21.6683 16.7504C21.799 16.6197 21.8724 16.4425 21.8724 16.2578V12.8827ZM25.6946 14.7982C25.6947 14.6144 25.6218 14.4381 25.492 14.308C25.3621 14.1779 25.1859 14.1047 25.0021 14.1044C24.8179 14.1043 24.6412 14.1772 24.5107 14.3072C24.3801 14.4371 24.3064 14.6135 24.3057 14.7977V16.2578C24.3057 16.4419 24.3789 16.6186 24.5091 16.7488C24.6393 16.879 24.816 16.9522 25.0001 16.9522C25.1843 16.9522 25.361 16.879 25.4912 16.7488C25.6214 16.6186 25.6946 16.4419 25.6946 16.2578V14.7982ZM29.5226 12.8827C29.518 12.7015 29.4428 12.5293 29.3131 12.4028C29.1833 12.2764 29.0093 12.2056 28.8281 12.2056C28.6469 12.2056 28.4729 12.2764 28.3432 12.4028C28.2134 12.5293 28.1383 12.7015 28.1337 12.8827V16.2578C28.1337 16.4419 28.2068 16.6186 28.3371 16.7488C28.4673 16.879 28.6439 16.9522 28.8281 16.9522C29.0123 16.9522 29.1889 16.879 29.3192 16.7488C29.4494 16.6186 29.5226 16.4419 29.5226 16.2578V12.8827ZM33.3514 10.2613C33.3514 10.0772 33.2783 9.90052 33.148 9.77029C33.0178 9.64006 32.8412 9.56689 32.657 9.56689C32.4728 9.56689 32.2962 9.64006 32.1659 9.77029C32.0357 9.90052 31.9625 10.0772 31.9625 10.2613V17.6448C31.9584 17.7386 31.9734 17.8322 32.0064 17.92C32.0395 18.0079 32.0899 18.0881 32.1548 18.1559C32.2197 18.2237 32.2977 18.2777 32.384 18.3145C32.4703 18.3514 32.5631 18.3704 32.657 18.3704C32.7508 18.3704 32.8437 18.3514 32.93 18.3145C33.0163 18.2777 33.0943 18.2237 33.1591 18.1559C33.224 18.0881 33.2745 18.0079 33.3076 17.92C33.3406 17.8322 33.3555 17.7386 33.3514 17.6448V10.2613ZM37.1794 12.8827C37.1794 12.4991 36.8687 12.1875 36.4763 12.1875C36.2921 12.1877 36.1156 12.2609 35.9854 12.3912C35.8552 12.5214 35.7821 12.698 35.7821 12.8822V16.2578C35.7821 16.6431 36.0932 16.9537 36.4763 16.9537C36.8687 16.9537 37.1794 16.6431 37.1794 16.2578V12.8827ZM41.0003 14.7982C41.0003 14.6139 40.927 14.437 40.7967 14.3067C40.6663 14.1763 40.4895 14.1031 40.3052 14.1031C40.1208 14.1031 39.944 14.1763 39.8137 14.3067C39.6833 14.437 39.6101 14.6139 39.6101 14.7982V16.2578C39.6101 16.6431 39.9216 16.9542 40.3052 16.9542C40.6883 16.9542 40.9998 16.6431 40.9998 16.2578L41.0003 14.7982Z" fill="#049FD9"/>
<path d="M19.209 30.293H20.1465V35.1025C20.1465 35.6364 20.0277 36.0807 19.79 36.4355C19.5524 36.7904 19.2367 37.0573 18.8428 37.2363C18.4521 37.4121 18.0273 37.5 17.5684 37.5C17.0866 37.5 16.6504 37.4121 16.2598 37.2363C15.8724 37.0573 15.5648 36.7904 15.3369 36.4355C15.1123 36.0807 15 35.6364 15 35.1025V30.293H15.9326V35.1025C15.9326 35.4736 16.001 35.7796 16.1377 36.0205C16.2744 36.2614 16.4648 36.4404 16.709 36.5576C16.9564 36.6748 17.2428 36.7334 17.5684 36.7334C17.8971 36.7334 18.1836 36.6748 18.4277 36.5576C18.6751 36.4404 18.8672 36.2614 19.0039 36.0205C19.1406 35.7796 19.209 35.4736 19.209 35.1025V30.293Z" fill="black"/>
<path d="M25.918 35.1416H26.8555C26.8066 35.5908 26.6781 35.9928 26.4697 36.3477C26.2614 36.7025 25.9668 36.984 25.5859 37.1924C25.2051 37.3975 24.7298 37.5 24.1602 37.5C23.7435 37.5 23.3643 37.4219 23.0225 37.2656C22.6839 37.1094 22.3926 36.888 22.1484 36.6016C21.9043 36.3118 21.7155 35.9652 21.582 35.5615C21.4518 35.1546 21.3867 34.7021 21.3867 34.2041V33.4961C21.3867 32.998 21.4518 32.5472 21.582 32.1436C21.7155 31.7367 21.9059 31.3883 22.1533 31.0986C22.404 30.8089 22.7051 30.5859 23.0566 30.4297C23.4082 30.2734 23.8037 30.1953 24.2432 30.1953C24.7803 30.1953 25.2344 30.2962 25.6055 30.498C25.9766 30.6999 26.2646 30.9798 26.4697 31.3379C26.6781 31.6927 26.8066 32.1045 26.8555 32.5732H25.918C25.8724 32.2412 25.7878 31.9564 25.6641 31.7188C25.5404 31.4779 25.3646 31.2923 25.1367 31.1621C24.9089 31.0319 24.611 30.9668 24.2432 30.9668C23.9274 30.9668 23.6491 31.027 23.4082 31.1475C23.1706 31.2679 22.9704 31.4388 22.8076 31.6602C22.6481 31.8815 22.5277 32.1468 22.4463 32.4561C22.3649 32.7653 22.3242 33.1087 22.3242 33.4863V34.2041C22.3242 34.5524 22.36 34.8796 22.4316 35.1855C22.5065 35.4915 22.6188 35.7601 22.7686 35.9912C22.9183 36.2223 23.1087 36.4046 23.3398 36.5381C23.571 36.6683 23.8444 36.7334 24.1602 36.7334C24.5605 36.7334 24.8796 36.6699 25.1172 36.543C25.3548 36.416 25.5339 36.2337 25.6543 35.9961C25.778 35.7585 25.8659 35.4736 25.918 35.1416Z" fill="black"/>
<path d="M28.4375 30.293H29.3506L31.6797 36.0889L34.0039 30.293H34.9219L32.0312 37.4023H31.3184L28.4375 30.293ZM28.1396 30.293H28.9453L29.0771 34.6289V37.4023H28.1396V30.293ZM34.4092 30.293H35.2148V37.4023H34.2773V34.6289L34.4092 30.293Z" fill="black"/>
</svg>
