<svg width="50" height="50" viewBox="0 0 50 50" fill="none" xmlns="http://www.w3.org/2000/svg">
<path d="M30.7678 22.3669C30.7101 22.3375 30.2585 22.07 29.5874 22.07C28.6803 22.07 28.051 22.7011 28.051 23.5531C28.051 24.3793 28.6532 25.0376 29.5874 25.0376C30.247 25.0376 30.7061 24.7753 30.7678 24.7424V26.2349C30.5918 26.2838 30.1123 26.4326 29.4892 26.4326C27.911 26.4326 26.5256 25.3447 26.5256 23.5527C26.5256 21.8927 27.779 20.6749 29.4892 20.6749C30.147 20.6749 30.635 20.8349 30.7678 20.8745V22.3669ZM16.1221 22.3669C16.0657 22.3375 15.6146 22.07 14.9435 22.07C14.0346 22.07 13.4057 22.7011 13.4057 23.5531C13.4057 24.3793 14.0084 25.0376 14.9435 25.0376C15.603 25.0376 16.0617 24.7753 16.1221 24.7424V26.2349C15.9479 26.2838 15.4688 26.4326 14.8421 26.4326C13.2653 26.4326 11.8817 25.3447 11.8817 23.5527C11.8817 21.8927 13.135 20.6749 14.8426 20.6749C15.503 20.6749 15.9901 20.8349 16.1221 20.8745V22.3669ZM35.1816 22.0909C34.3492 22.0909 33.7309 22.746 33.7309 23.5531C33.7309 24.362 34.3492 25.0167 35.1816 25.0167C36.0131 25.0167 36.6331 24.362 36.6331 23.5531C36.6331 22.746 36.0131 22.0909 35.1816 22.0909ZM38.1198 23.5531C38.1198 25.1438 36.8918 26.4326 35.182 26.4326C33.4714 26.4326 32.2452 25.1438 32.2452 23.5527C32.2452 21.9651 33.4718 20.6749 35.1816 20.6749C36.8918 20.6749 38.1198 21.9651 38.1198 23.5531ZM24.775 22.0376C24.7541 22.0309 24.1634 21.8678 23.6781 21.8678C23.1159 21.8678 22.8101 22.0562 22.8101 22.3233C22.8101 22.662 23.2225 22.7802 23.4532 22.8531L23.8403 22.9762C24.7514 23.266 25.1661 23.8895 25.1661 24.5669C25.1661 25.9638 23.9376 26.4331 22.8639 26.4331C22.1177 26.4331 21.4186 26.2953 21.3497 26.2811V25.0011C21.4732 25.0322 22.0617 25.2082 22.6745 25.2082C23.3728 25.2082 23.6937 25.0038 23.6937 24.6891C23.6937 24.4073 23.4159 24.2447 23.0679 24.1353C22.9834 24.1069 22.8554 24.0669 22.7683 24.0384C21.987 23.7913 21.3354 23.3318 21.3354 22.4118C21.3354 21.3718 22.1141 20.6736 23.4074 20.6736C24.0905 20.6736 24.7332 20.8393 24.775 20.8505V22.0376Z" fill="#049FD9"/>
<path d="M19.4538 26.3341H18.0507V20.7737H19.4538V26.3341Z" fill="#049FD9"/>
<path d="M10.3933 14.7982C10.3933 14.4151 10.0804 14.1044 9.69689 14.1044C9.31333 14.1044 9 14.4151 9 14.7977V16.2578C9.00459 16.4395 9.08 16.6122 9.21015 16.7391C9.3403 16.866 9.51489 16.937 9.69667 16.937C9.87844 16.937 10.053 16.866 10.1832 16.7391C10.3133 16.6122 10.3887 16.4395 10.3933 16.2578V14.7982ZM14.2195 12.8827C14.2195 12.6979 14.1461 12.5207 14.0155 12.39C13.8848 12.2594 13.7076 12.186 13.5229 12.186C13.3381 12.186 13.1609 12.2594 13.0303 12.39C12.8996 12.5207 12.8262 12.6979 12.8262 12.8827V16.2578C12.8262 16.4425 12.8996 16.6197 13.0303 16.7504C13.1609 16.881 13.3381 16.9544 13.5229 16.9544C13.7076 16.9544 13.8848 16.881 14.0155 16.7504C14.1461 16.6197 14.2195 16.4425 14.2195 16.2578V12.8827ZM18.0462 10.2613C18.0462 9.87823 17.7333 9.56711 17.3497 9.56711C16.9657 9.56711 16.6529 9.87823 16.6529 10.2613V17.6448C16.6574 17.8266 16.7329 17.9993 16.863 18.1262C16.9932 18.2531 17.1677 18.3241 17.3495 18.3241C17.5313 18.3241 17.7059 18.2531 17.836 18.1262C17.9662 17.9993 18.0416 17.8266 18.0462 17.6448V10.2613ZM21.8724 12.8827C21.8724 12.6979 21.799 12.5207 21.6683 12.39C21.5377 12.2594 21.3605 12.186 21.1757 12.186C20.9909 12.186 20.8137 12.2594 20.6831 12.39C20.5525 12.5207 20.4791 12.6979 20.4791 12.8827V16.2578C20.4791 16.4425 20.5525 16.6197 20.6831 16.7504C20.8137 16.881 20.9909 16.9544 21.1757 16.9544C21.3605 16.9544 21.5377 16.881 21.6683 16.7504C21.799 16.6197 21.8724 16.4425 21.8724 16.2578V12.8827ZM25.6946 14.7982C25.6947 14.6144 25.6218 14.4381 25.492 14.308C25.3621 14.1779 25.1859 14.1047 25.0021 14.1044C24.8179 14.1043 24.6412 14.1772 24.5107 14.3072C24.3801 14.4371 24.3064 14.6135 24.3057 14.7977V16.2578C24.3057 16.4419 24.3789 16.6186 24.5091 16.7488C24.6393 16.879 24.816 16.9522 25.0001 16.9522C25.1843 16.9522 25.361 16.879 25.4912 16.7488C25.6214 16.6186 25.6946 16.4419 25.6946 16.2578V14.7982ZM29.5226 12.8827C29.518 12.7015 29.4428 12.5293 29.3131 12.4028C29.1833 12.2764 29.0093 12.2056 28.8281 12.2056C28.6469 12.2056 28.4729 12.2764 28.3432 12.4028C28.2134 12.5293 28.1383 12.7015 28.1337 12.8827V16.2578C28.1337 16.4419 28.2068 16.6186 28.3371 16.7488C28.4673 16.879 28.6439 16.9522 28.8281 16.9522C29.0123 16.9522 29.1889 16.879 29.3192 16.7488C29.4494 16.6186 29.5226 16.4419 29.5226 16.2578V12.8827ZM33.3514 10.2613C33.3514 10.0772 33.2783 9.90052 33.148 9.77029C33.0178 9.64006 32.8412 9.56689 32.657 9.56689C32.4728 9.56689 32.2962 9.64006 32.1659 9.77029C32.0357 9.90052 31.9625 10.0772 31.9625 10.2613V17.6448C31.9584 17.7386 31.9734 17.8322 32.0064 17.92C32.0395 18.0079 32.0899 18.0881 32.1548 18.1559C32.2197 18.2237 32.2977 18.2777 32.384 18.3145C32.4703 18.3514 32.5631 18.3704 32.657 18.3704C32.7508 18.3704 32.8437 18.3514 32.93 18.3145C33.0163 18.2777 33.0943 18.2237 33.1591 18.1559C33.224 18.0881 33.2745 18.0079 33.3076 17.92C33.3406 17.8322 33.3555 17.7386 33.3514 17.6448V10.2613ZM37.1794 12.8827C37.1794 12.4991 36.8687 12.1875 36.4763 12.1875C36.2921 12.1877 36.1156 12.2609 35.9854 12.3912C35.8552 12.5214 35.7821 12.698 35.7821 12.8822V16.2578C35.7821 16.6431 36.0932 16.9537 36.4763 16.9537C36.8687 16.9537 37.1794 16.6431 37.1794 16.2578V12.8827ZM41.0003 14.7982C41.0003 14.6139 40.927 14.437 40.7967 14.3067C40.6663 14.1763 40.4895 14.1031 40.3052 14.1031C40.1208 14.1031 39.944 14.1763 39.8137 14.3067C39.6833 14.437 39.6101 14.6139 39.6101 14.7982V16.2578C39.6101 16.6431 39.9216 16.9542 40.3052 16.9542C40.6883 16.9542 40.9998 16.6431 40.9998 16.2578L41.0003 14.7982Z" fill="#049FD9"/>
<path d="M12.5312 37.2393H13.4688C13.4199 37.6885 13.2913 38.0905 13.083 38.4453C12.8747 38.8001 12.5801 39.0817 12.1992 39.29C11.8184 39.4951 11.3431 39.5977 10.7734 39.5977C10.3568 39.5977 9.97754 39.5195 9.63574 39.3633C9.2972 39.207 9.00586 38.9857 8.76172 38.6992C8.51758 38.4095 8.32878 38.0628 8.19531 37.6592C8.0651 37.2523 8 36.7998 8 36.3018V35.5938C8 35.0957 8.0651 34.6449 8.19531 34.2412C8.32878 33.8343 8.51921 33.486 8.7666 33.1963C9.01725 32.9066 9.31836 32.6836 9.66992 32.5273C10.0215 32.3711 10.417 32.293 10.8564 32.293C11.3936 32.293 11.8477 32.3939 12.2188 32.5957C12.5898 32.7975 12.8779 33.0775 13.083 33.4355C13.2913 33.7904 13.4199 34.2021 13.4688 34.6709H12.5312C12.4857 34.3389 12.401 34.054 12.2773 33.8164C12.1536 33.5755 11.9779 33.39 11.75 33.2598C11.5221 33.1296 11.2243 33.0645 10.8564 33.0645C10.5407 33.0645 10.2624 33.1247 10.0215 33.2451C9.78385 33.3656 9.58366 33.5365 9.4209 33.7578C9.26139 33.9792 9.14095 34.2445 9.05957 34.5537C8.97819 34.863 8.9375 35.2064 8.9375 35.584V36.3018C8.9375 36.6501 8.97331 36.9772 9.04492 37.2832C9.11979 37.5892 9.2321 37.8577 9.38184 38.0889C9.53158 38.32 9.72201 38.5023 9.95312 38.6357C10.1842 38.766 10.4577 38.8311 10.7734 38.8311C11.1738 38.8311 11.4928 38.7676 11.7305 38.6406C11.9681 38.5137 12.1471 38.3314 12.2676 38.0938C12.3913 37.8561 12.4792 37.5713 12.5312 37.2393Z" fill="black"/>
<path d="M17.5314 38.5967V35.877C17.5314 35.6686 17.4891 35.488 17.4045 35.335C17.3231 35.1787 17.1994 35.0583 17.0334 34.9736C16.8674 34.889 16.6623 34.8467 16.4182 34.8467C16.1903 34.8467 15.9901 34.8857 15.8176 34.9639C15.6483 35.042 15.5148 35.1445 15.4172 35.2715C15.3228 35.3984 15.2756 35.5352 15.2756 35.6816H14.3723C14.3723 35.4928 14.4211 35.3057 14.5188 35.1201C14.6164 34.9346 14.7564 34.7669 14.9387 34.6172C15.1242 34.4642 15.3456 34.3438 15.6027 34.2559C15.8632 34.1647 16.1529 34.1191 16.4719 34.1191C16.856 34.1191 17.1945 34.1842 17.4875 34.3145C17.7837 34.4447 18.0148 34.6416 18.1809 34.9053C18.3501 35.1657 18.4348 35.4928 18.4348 35.8867V38.3477C18.4348 38.5234 18.4494 38.7106 18.4787 38.9092C18.5113 39.1077 18.5585 39.2786 18.6203 39.4219V39.5H17.6779C17.6324 39.3958 17.5965 39.2575 17.5705 39.085C17.5445 38.9092 17.5314 38.7464 17.5314 38.5967ZM17.6877 36.2969L17.6975 36.9316H16.7844C16.5272 36.9316 16.2977 36.9528 16.0959 36.9951C15.8941 37.0342 15.7248 37.0944 15.5881 37.1758C15.4514 37.2572 15.3472 37.3597 15.2756 37.4834C15.204 37.6038 15.1682 37.7454 15.1682 37.9082C15.1682 38.0742 15.2056 38.2256 15.2805 38.3623C15.3553 38.499 15.4676 38.6081 15.6174 38.6895C15.7704 38.7676 15.9576 38.8066 16.1789 38.8066C16.4556 38.8066 16.6997 38.748 16.9113 38.6309C17.1229 38.5137 17.2906 38.3704 17.4143 38.2012C17.5412 38.0319 17.6096 37.8675 17.6193 37.708L18.0051 38.1426C17.9823 38.2793 17.9204 38.4307 17.8195 38.5967C17.7186 38.7627 17.5835 38.9222 17.4143 39.0752C17.2482 39.2249 17.0497 39.3503 16.8186 39.4512C16.5907 39.5488 16.3335 39.5977 16.0471 39.5977C15.689 39.5977 15.3749 39.5277 15.1047 39.3877C14.8378 39.2477 14.6294 39.0605 14.4797 38.8262C14.3332 38.5885 14.26 38.3232 14.26 38.0303C14.26 37.7471 14.3153 37.498 14.426 37.2832C14.5367 37.0651 14.6962 36.8844 14.9045 36.7412C15.1128 36.5947 15.3635 36.484 15.6564 36.4092C15.9494 36.3343 16.2766 36.2969 16.6379 36.2969H17.6877Z" fill="black"/>
<path d="M21.8676 34.2168V34.9102H19.0111V34.2168H21.8676ZM19.9779 32.9326H20.8813V38.1914C20.8813 38.3704 20.9089 38.5055 20.9643 38.5967C21.0196 38.6878 21.0912 38.748 21.1791 38.7773C21.267 38.8066 21.3614 38.8213 21.4623 38.8213C21.5372 38.8213 21.6153 38.8148 21.6967 38.8018C21.7813 38.7855 21.8448 38.7725 21.8871 38.7627L21.892 39.5C21.8204 39.5228 21.726 39.5439 21.6088 39.5635C21.4949 39.5863 21.3565 39.5977 21.1938 39.5977C20.9724 39.5977 20.7689 39.5537 20.5834 39.4658C20.3979 39.3779 20.2497 39.2314 20.1391 39.0264C20.0316 38.818 19.9779 38.5381 19.9779 38.1865V32.9326Z" fill="black"/>
<path d="M25.8424 38.5967V35.877C25.8424 35.6686 25.8001 35.488 25.7154 35.335C25.634 35.1787 25.5104 35.0583 25.3443 34.9736C25.1783 34.889 24.9732 34.8467 24.7291 34.8467C24.5012 34.8467 24.301 34.8857 24.1285 34.9639C23.9592 35.042 23.8258 35.1445 23.7281 35.2715C23.6337 35.3984 23.5865 35.5352 23.5865 35.6816H22.6832C22.6832 35.4928 22.732 35.3057 22.8297 35.1201C22.9273 34.9346 23.0673 34.7669 23.2496 34.6172C23.4352 34.4642 23.6565 34.3438 23.9137 34.2559C24.1741 34.1647 24.4638 34.1191 24.7828 34.1191C25.1669 34.1191 25.5055 34.1842 25.7984 34.3145C26.0947 34.4447 26.3258 34.6416 26.4918 34.9053C26.6611 35.1657 26.7457 35.4928 26.7457 35.8867V38.3477C26.7457 38.5234 26.7604 38.7106 26.7896 38.9092C26.8222 39.1077 26.8694 39.2786 26.9312 39.4219V39.5H25.9889C25.9433 39.3958 25.9075 39.2575 25.8814 39.085C25.8554 38.9092 25.8424 38.7464 25.8424 38.5967ZM25.9986 36.2969L26.0084 36.9316H25.0953C24.8382 36.9316 24.6087 36.9528 24.4068 36.9951C24.205 37.0342 24.0357 37.0944 23.899 37.1758C23.7623 37.2572 23.6581 37.3597 23.5865 37.4834C23.5149 37.6038 23.4791 37.7454 23.4791 37.9082C23.4791 38.0742 23.5165 38.2256 23.5914 38.3623C23.6663 38.499 23.7786 38.6081 23.9283 38.6895C24.0813 38.7676 24.2685 38.8066 24.4898 38.8066C24.7665 38.8066 25.0107 38.748 25.2223 38.6309C25.4339 38.5137 25.6015 38.3704 25.7252 38.2012C25.8521 38.0319 25.9205 37.8675 25.9303 37.708L26.316 38.1426C26.2932 38.2793 26.2314 38.4307 26.1305 38.5967C26.0296 38.7627 25.8945 38.9222 25.7252 39.0752C25.5592 39.2249 25.3606 39.3503 25.1295 39.4512C24.9016 39.5488 24.6445 39.5977 24.358 39.5977C23.9999 39.5977 23.6858 39.5277 23.4156 39.3877C23.1487 39.2477 22.9404 39.0605 22.7906 38.8262C22.6441 38.5885 22.5709 38.3232 22.5709 38.0303C22.5709 37.7471 22.6262 37.498 22.7369 37.2832C22.8476 37.0651 23.0071 36.8844 23.2154 36.7412C23.4238 36.5947 23.6744 36.484 23.9674 36.4092C24.2604 36.3343 24.5875 36.2969 24.9488 36.2969H25.9986Z" fill="black"/>
<path d="M28.948 32V39.5H28.0398V32H28.948Z" fill="black"/>
<path d="M31.6826 38.9531L33.1523 34.2168H34.1191L32 40.3154C31.9512 40.4456 31.8861 40.5856 31.8047 40.7354C31.7266 40.8883 31.6257 41.0332 31.502 41.1699C31.3783 41.3066 31.2285 41.4173 31.0527 41.502C30.8802 41.5898 30.6735 41.6338 30.4326 41.6338C30.361 41.6338 30.2699 41.624 30.1592 41.6045C30.0485 41.585 29.9704 41.5687 29.9248 41.5557L29.9199 40.8232C29.946 40.8265 29.9867 40.8298 30.042 40.833C30.1006 40.8395 30.1413 40.8428 30.1641 40.8428C30.3691 40.8428 30.5433 40.8151 30.6865 40.7598C30.8298 40.7077 30.9502 40.6182 31.0479 40.4912C31.1488 40.3675 31.235 40.1966 31.3066 39.9785L31.6826 38.9531ZM30.6035 34.2168L31.9756 38.3184L32.21 39.2705L31.5605 39.6025L29.6172 34.2168H30.6035Z" fill="black"/>
<path d="M37.8107 38.0986C37.8107 37.9684 37.7814 37.848 37.7229 37.7373C37.6675 37.6234 37.552 37.5208 37.3762 37.4297C37.2036 37.3353 36.9432 37.2539 36.5949 37.1855C36.302 37.1237 36.0367 37.0505 35.799 36.9658C35.5646 36.8812 35.3645 36.7786 35.1984 36.6582C35.0357 36.5378 34.9104 36.3962 34.8225 36.2334C34.7346 36.0706 34.6906 35.8802 34.6906 35.6621C34.6906 35.4538 34.7362 35.2568 34.8273 35.0713C34.9217 34.8857 35.0536 34.7214 35.2229 34.5781C35.3954 34.4349 35.6021 34.3226 35.843 34.2412C36.0839 34.1598 36.3524 34.1191 36.6486 34.1191C37.0718 34.1191 37.4331 34.194 37.7326 34.3438C38.0321 34.4935 38.2616 34.6937 38.4211 34.9443C38.5806 35.1917 38.6604 35.4668 38.6604 35.7695H37.757C37.757 35.623 37.7131 35.4814 37.6252 35.3447C37.5406 35.2048 37.4152 35.0892 37.2492 34.998C37.0865 34.9069 36.8863 34.8613 36.6486 34.8613C36.398 34.8613 36.1945 34.9004 36.0383 34.9785C35.8853 35.0534 35.773 35.1494 35.7014 35.2666C35.633 35.3838 35.5988 35.5075 35.5988 35.6377C35.5988 35.7354 35.6151 35.8232 35.6477 35.9014C35.6835 35.9762 35.7453 36.0462 35.8332 36.1113C35.9211 36.1732 36.0448 36.2318 36.2043 36.2871C36.3638 36.3424 36.5673 36.3978 36.8146 36.4531C37.2476 36.5508 37.604 36.668 37.884 36.8047C38.1639 36.9414 38.3723 37.109 38.509 37.3076C38.6457 37.5062 38.7141 37.7471 38.7141 38.0303C38.7141 38.2614 38.6652 38.473 38.5676 38.665C38.4732 38.8571 38.3348 39.0231 38.1525 39.1631C37.9735 39.2998 37.7587 39.4072 37.508 39.4854C37.2606 39.5602 36.9823 39.5977 36.673 39.5977C36.2076 39.5977 35.8137 39.5146 35.4914 39.3486C35.1691 39.1826 34.925 38.9678 34.759 38.7041C34.593 38.4404 34.51 38.1621 34.51 37.8691H35.4182C35.4312 38.1165 35.5028 38.3135 35.633 38.46C35.7632 38.6032 35.9227 38.7057 36.1115 38.7676C36.3003 38.8262 36.4875 38.8555 36.673 38.8555C36.9204 38.8555 37.1271 38.8229 37.2932 38.7578C37.4624 38.6927 37.591 38.6032 37.6789 38.4893C37.7668 38.3753 37.8107 38.2451 37.8107 38.0986Z" fill="black"/>
<path d="M41.9125 34.2168V34.9102H39.0561V34.2168H41.9125ZM40.0229 32.9326H40.9262V38.1914C40.9262 38.3704 40.9538 38.5055 41.0092 38.5967C41.0645 38.6878 41.1361 38.748 41.224 38.7773C41.3119 38.8066 41.4063 38.8213 41.5072 38.8213C41.5821 38.8213 41.6602 38.8148 41.7416 38.8018C41.8262 38.7855 41.8897 38.7725 41.932 38.7627L41.9369 39.5C41.8653 39.5228 41.7709 39.5439 41.6537 39.5635C41.5398 39.5863 41.4014 39.5977 41.2387 39.5977C41.0173 39.5977 40.8139 39.5537 40.6283 39.4658C40.4428 39.3779 40.2947 39.2314 40.184 39.0264C40.0766 38.818 40.0229 38.5381 40.0229 38.1865V32.9326Z" fill="black"/>
</svg>
