<svg width="50" height="50" viewBox="0 0 50 50" fill="none" xmlns="http://www.w3.org/2000/svg">
<path fill-rule="evenodd" clip-rule="evenodd" d="M8.33301 41.6666H41.6663V8.33325H8.33301V41.6666ZM19.6497 19.0149C19.6497 19.0149 19.6497 19.3521 19.6497 24.8873C19.6497 30.4224 19.5916 29.8237 19.5916 29.8237C19.5916 33.5 14.2497 33.5 14.3078 29.7904L14.2497 24.9143C14.2497 19.4366 14.2497 19.1025 14.2497 19.1025C14.3078 15.5 19.5023 15.5 19.6497 19.0149ZM25.5997 21.3723L29.3166 29.3128C29.3166 29.3128 30 31.5 28.106 32.4485C25.7391 33.6338 24.3018 31.3851 24.3018 31.3851L20.5962 23.5332C20.5962 23.5332 19.9683 21.0132 22.2342 20.0656C24.5 19.1179 25.5997 21.3723 25.5997 21.3723ZM33.1737 21.0816L36.9996 29.1166C36.9996 29.1166 37.6816 31.2178 35.9247 32.4177C33.5 33.5 32.1663 31.595 32.1663 31.595L28.4013 23.6666C28.4013 23.6666 27.4517 21.3723 29.6319 20.2178C32 19 33.1737 21.0816 33.1737 21.0816Z" fill="#75BC55"/>
</svg>
