<svg width="36" height="36" viewBox="0 0 36 36" fill="none" xmlns="http://www.w3.org/2000/svg">
<path d="M27.5616 19.8682C26.003 19.8682 24.7994 20.9649 24.7884 22.4053C24.7854 22.7471 24.8545 23.086 24.9916 23.4021C25.1287 23.7182 25.331 24.0052 25.5866 24.2461C25.8422 24.487 26.1461 24.677 26.4802 24.8049C26.8143 24.9328 27.172 24.9961 27.5323 24.991C29.078 24.991 30.2963 23.9341 30.2982 22.4278C30.2963 20.8868 29.0305 19.8699 27.5524 19.8716L27.5616 19.8682ZM17.8006 21.043C17.8006 20.7376 17.8006 20.4113 17.8006 20.0868C17.8006 20.0521 17.722 20.0001 17.6726 19.9914C17.128 19.8695 16.5649 19.8407 16.0098 19.9063C15.0421 20.0469 14.4622 20.7619 14.6067 21.6729C14.6872 22.1779 15.0329 22.499 15.5049 22.6986C15.8268 22.8322 16.1634 22.9311 16.489 23.056C16.5779 23.0807 16.6556 23.1329 16.7096 23.2043C16.7636 23.2757 16.7909 23.3622 16.7872 23.45C16.7859 23.5428 16.7473 23.6316 16.6793 23.6984C16.6114 23.7651 16.5191 23.8048 16.4213 23.8092C16.0626 23.8485 15.7013 23.8636 15.3402 23.8543C15.088 23.8291 14.8379 23.7868 14.5921 23.7276C14.5921 24.0903 14.5921 24.4218 14.5921 24.7688C14.5921 24.807 14.6707 24.8695 14.7219 24.8764C14.9872 24.9181 15.2561 24.9511 15.5232 24.9753C16.106 25.0453 16.6979 24.9656 17.2372 24.7445C17.4334 24.6597 17.6093 24.538 17.7543 24.3866C17.8993 24.2353 18.0104 24.0575 18.0807 23.8642C18.151 23.6709 18.1792 23.466 18.1634 23.262C18.1476 23.0581 18.0883 22.8593 17.989 22.6777C17.7457 22.2491 17.3305 22.0408 16.8659 21.8933C16.6251 21.8287 16.3907 21.7445 16.1652 21.6417C16.0998 21.6162 16.0444 21.572 16.0067 21.5152C15.9689 21.4584 15.9508 21.3918 15.9549 21.3248C15.9589 21.2578 15.9848 21.1936 16.0291 21.1412C16.0734 21.0889 16.1338 21.0509 16.2018 21.0326C16.351 20.9705 16.5128 20.9403 16.6756 20.9441C17.0415 20.9614 17.4055 21.01 17.7915 21.0465L17.8006 21.043ZM23.4183 21.3623C23.4183 20.951 23.4183 20.5762 23.4183 20.2014C23.4233 20.1771 23.4228 20.1521 23.4168 20.1281C23.4108 20.104 23.3994 20.0815 23.3835 20.0619C23.3676 20.0424 23.3474 20.0263 23.3244 20.0147C23.3014 20.0031 23.276 19.9964 23.25 19.9949C22.6847 19.8508 22.092 19.8318 21.5177 19.9393C21.0224 20.0382 20.5679 20.2711 20.2091 20.6099C19.8504 20.9487 19.6028 21.3788 19.4963 21.8482C19.2677 22.9623 19.6793 23.9775 20.5939 24.5432C21.353 25.0135 22.1854 25.0847 23.0543 24.9094C23.4201 24.833 23.4201 24.8313 23.4201 24.4652C23.4201 24.191 23.4201 23.9168 23.4201 23.6426C23.4201 23.5992 23.4201 23.5558 23.4073 23.4933C23.0417 23.6709 22.6343 23.7569 22.2238 23.7432C22.0407 23.744 21.8594 23.7092 21.6912 23.6408C21.5229 23.5725 21.3712 23.472 21.2455 23.3458C21.1198 23.2195 21.0228 23.0702 20.9604 22.9069C20.898 22.7436 20.8717 22.5699 20.8829 22.3966C20.8994 21.6487 21.4683 21.1333 22.2787 21.1211C22.67 21.1221 23.0561 21.2057 23.4091 21.3658L23.4183 21.3623ZM9.69878 21.3623C9.69878 20.9285 9.69878 20.5293 9.69878 20.1319C9.69878 20.0903 9.62561 20.0261 9.57622 20.0105C9.13677 19.8819 8.67486 19.8371 8.21707 19.8786C7.8507 19.9 7.49298 19.9932 7.16645 20.1522C6.83991 20.3113 6.55165 20.5328 6.31981 20.8028C6.08798 21.0728 5.91761 21.3854 5.81944 21.7209C5.72126 22.0564 5.69741 22.4076 5.74939 22.7523C5.77582 23.0745 5.87315 23.3878 6.0351 23.6721C6.19705 23.9563 6.42002 24.2052 6.68963 24.4027C7.57134 25.0569 8.5628 25.109 9.60183 24.8383C9.64024 24.8278 9.69695 24.781 9.69878 24.7515C9.69878 24.3385 9.69878 23.9237 9.69878 23.4881C9.32577 23.667 8.91095 23.753 8.49329 23.738C8.30866 23.7365 8.12634 23.6988 7.95771 23.6275C7.78909 23.5561 7.63776 23.4526 7.51316 23.3233C7.38856 23.194 7.29337 23.0418 7.23351 22.8761C7.17365 22.7104 7.15042 22.5348 7.16524 22.3602C7.18354 21.6434 7.76707 21.1298 8.55732 21.1159C8.94817 21.116 9.33375 21.2015 9.68415 21.3658L9.69878 21.3623ZM25.8293 13.9211V13.4005C25.8293 12.4894 25.8293 11.5766 25.8293 10.6655C25.8369 10.5789 25.825 10.4917 25.7943 10.4097C25.7636 10.3278 25.7149 10.2529 25.6514 10.1902C25.5879 10.1275 25.5111 10.0784 25.426 10.046C25.3409 10.0137 25.2495 9.99887 25.1579 10.0026C24.7774 10.0026 24.5159 10.289 24.5159 10.6968C24.5159 12.4136 24.5159 14.1299 24.5159 15.8456C24.5159 16.2812 24.5159 16.7133 24.5159 17.1506C24.5126 17.2829 24.5527 17.4129 24.6307 17.5227C24.7087 17.6324 24.8207 17.7165 24.9512 17.7632C25.0538 17.7978 25.1638 17.8077 25.2713 17.7922C25.3789 17.7766 25.4808 17.7359 25.5678 17.6739C25.6548 17.6118 25.7242 17.5303 25.7698 17.4365C25.8154 17.3428 25.8359 17.2398 25.8293 17.1367C25.8317 16.0654 25.8317 14.9935 25.8293 13.9211ZM10.1744 13.9002C10.1744 14.9796 10.1744 16.0573 10.1744 17.1367C10.167 17.2432 10.1885 17.3497 10.2368 17.446C10.2851 17.5424 10.3586 17.6254 10.4503 17.6872C10.542 17.7489 10.6488 17.7874 10.7606 17.7989C10.8725 17.8104 10.9855 17.7945 11.089 17.7528C11.2224 17.6965 11.3335 17.6015 11.4062 17.4813C11.4789 17.3612 11.5094 17.2223 11.4933 17.0846C11.4933 14.9698 11.4933 12.8544 11.4933 10.7384C11.4952 10.6729 11.4915 10.6073 11.4823 10.5423C11.4705 10.458 11.4406 10.3768 11.3945 10.3038C11.3484 10.2308 11.2871 10.1675 11.2143 10.1177C11.1415 10.068 11.0588 10.0329 10.9712 10.0146C10.8836 9.99632 10.793 9.99519 10.7049 10.0113C10.5468 10.0452 10.4066 10.1314 10.3094 10.2545C10.2122 10.3775 10.1643 10.5294 10.1744 10.6829V13.9002ZM12.7976 24.8782V19.9636H11.5079V24.8782H12.7976ZM6.59451 14.4469V15.9133C6.59159 15.9982 6.60652 16.0829 6.63845 16.1623C6.67037 16.2417 6.71864 16.3143 6.78045 16.3759C6.84226 16.4374 6.91636 16.4867 6.99845 16.5208C7.08053 16.5549 7.16894 16.5731 7.25854 16.5744C7.34686 16.5727 7.43391 16.5541 7.51455 16.5199C7.59518 16.4857 7.66775 16.4364 7.72796 16.3751C7.78817 16.3138 7.8348 16.2416 7.86508 16.1629C7.89537 16.0841 7.90869 16.0004 7.90427 15.9167C7.90427 14.9392 7.90427 13.9621 7.90427 12.9857C7.90427 12.8209 7.83527 12.6629 7.71246 12.5464C7.58965 12.4299 7.42307 12.3644 7.24939 12.3644C7.07571 12.3644 6.90914 12.4299 6.78632 12.5464C6.66351 12.6629 6.59451 12.8209 6.59451 12.9857V14.4469ZM29.4128 14.459C29.4128 13.9593 29.4128 13.4577 29.4128 12.9579C29.412 12.8635 29.3908 12.7702 29.3506 12.6838C29.285 12.555 29.1749 12.4515 29.0385 12.3905C28.9022 12.3295 28.7479 12.3147 28.6015 12.3486C28.455 12.3825 28.3253 12.4631 28.2339 12.5768C28.1425 12.6906 28.095 12.8306 28.0994 12.9736C28.0994 13.9569 28.0994 14.9403 28.0994 15.9237C28.0962 16.0075 28.1108 16.0911 28.1423 16.1695C28.1739 16.2479 28.2217 16.3195 28.2829 16.3801C28.3442 16.4406 28.4176 16.4889 28.4989 16.5219C28.5802 16.555 28.6676 16.5723 28.7561 16.5727C28.8443 16.5711 28.9312 16.5531 29.0121 16.5196C29.0929 16.4861 29.1659 16.4379 29.2271 16.3776C29.2882 16.3173 29.3363 16.2462 29.3685 16.1683C29.4006 16.0905 29.4163 16.0073 29.4146 15.9237C29.4165 15.4378 29.4128 14.9484 29.4128 14.466V14.459ZM13.7616 14.459C13.7616 14.9345 13.7616 15.4118 13.7616 15.8872C13.7519 15.9746 13.7616 16.0629 13.7902 16.1464C13.8187 16.23 13.8655 16.3069 13.9274 16.3721C13.9893 16.4374 14.065 16.4896 14.1496 16.5254C14.2342 16.5611 14.3257 16.5796 14.4183 16.5796C14.5109 16.5796 14.6024 16.5611 14.687 16.5254C14.7715 16.4896 14.8472 16.4374 14.9092 16.3721C14.9711 16.3069 15.0179 16.23 15.0464 16.1464C15.075 16.0629 15.0847 15.9746 15.075 15.8872C15.075 14.9293 15.075 13.9708 15.075 13.0117C15.075 12.6091 14.8098 12.3332 14.4201 12.3332C14.3287 12.3329 14.2381 12.3506 14.1543 12.3854C14.0705 12.4201 13.9952 12.4709 13.9332 12.5348C13.8713 12.5986 13.824 12.674 13.7945 12.7561C13.7649 12.8382 13.7537 12.9253 13.7616 13.0117C13.7598 13.4942 13.7616 13.9766 13.7616 14.466V14.459ZM22.2402 14.459V12.9944C22.2462 12.911 22.2342 12.8273 22.2049 12.7485C22.1756 12.6697 22.1297 12.5974 22.07 12.536C22.0102 12.4746 21.9379 12.4254 21.8574 12.3914C21.7769 12.3574 21.6899 12.3394 21.6018 12.3384C21.512 12.3362 21.4227 12.3515 21.3394 12.3834C21.256 12.4152 21.1805 12.463 21.1174 12.5237C21.0543 12.5843 21.005 12.6566 20.9725 12.7361C20.9401 12.8156 20.9251 12.9005 20.9287 12.9857C20.9287 13.961 20.9287 14.9374 20.9287 15.915C20.9252 16.0003 20.9398 16.0853 20.9715 16.1651C21.0032 16.2449 21.0514 16.318 21.1133 16.3799C21.1751 16.4418 21.2494 16.4914 21.3317 16.5257C21.414 16.56 21.5028 16.5783 21.5927 16.5797C21.6825 16.5777 21.7709 16.5586 21.8527 16.5233C21.9344 16.488 22.0078 16.4374 22.0683 16.3744C22.1289 16.3115 22.1753 16.2376 22.2049 16.1571C22.2344 16.0766 22.2465 15.9913 22.2402 15.9063V14.459ZM33 15.2937C33 15.0803 33 14.8668 33 14.6517C32.9941 14.4942 32.9255 14.3448 32.8079 14.2336C32.6903 14.1224 32.5326 14.0577 32.3666 14.0526C32.2007 14.0476 32.0389 14.1025 31.914 14.2063C31.7891 14.3101 31.7104 14.455 31.6939 14.6117C31.6793 15.0699 31.6811 15.528 31.6939 15.9862C31.7061 16.1483 31.7835 16.2998 31.9102 16.4094C32.0368 16.5189 32.2031 16.578 32.3744 16.5744C32.5423 16.5665 32.7007 16.4979 32.817 16.3827C32.9333 16.2675 32.9988 16.1144 33 15.9549C33 15.7345 33 15.5072 33 15.2937ZM18.6659 15.2937C18.6659 15.0734 18.6659 14.853 18.6659 14.6326C18.6632 14.4791 18.5989 14.3323 18.486 14.2224C18.3731 14.1124 18.2202 14.0474 18.0585 14.0408C17.9736 14.0317 17.8876 14.0392 17.8058 14.0629C17.724 14.0865 17.6482 14.1258 17.5831 14.1783C17.518 14.2309 17.4649 14.2955 17.4271 14.3683C17.3893 14.441 17.3676 14.5203 17.3634 14.6013C17.3469 15.0647 17.3469 15.5315 17.3634 15.9896C17.3742 16.1495 17.4501 16.2991 17.575 16.407C17.7 16.5148 17.8641 16.5723 18.0329 16.5675C18.2009 16.5597 18.3596 16.4918 18.477 16.3775C18.5944 16.2632 18.6619 16.111 18.6659 15.9514C18.6604 15.7363 18.6567 15.5072 18.6567 15.2937H18.6659ZM3.01646 15.2937C3.01646 15.5141 3.01646 15.7328 3.01646 15.9532C3.01819 16.1156 3.0856 16.2711 3.20474 16.3877C3.32389 16.5043 3.48568 16.573 3.65671 16.5797C3.8247 16.5823 3.98742 16.524 4.11154 16.4165C4.23567 16.3091 4.31181 16.1607 4.32439 16.0018C4.34268 15.5384 4.34268 15.0734 4.32439 14.6135C4.3198 14.5313 4.29739 14.4508 4.25855 14.3772C4.21972 14.3036 4.1653 14.2384 4.09869 14.1856C4.03208 14.1328 3.95471 14.0937 3.87143 14.0705C3.78814 14.0474 3.70072 14.0408 3.61463 14.0512C3.4508 14.0643 3.2982 14.1356 3.18732 14.2507C3.07644 14.3659 3.01542 14.5165 3.01646 14.6725C3 14.8703 3 15.0786 3 15.2868L3.01646 15.2937Z" fill="#FEFEFE"/>
<path d="M27.5564 19.8438C29.0196 19.8438 30.2727 20.8673 30.2727 22.42C30.2727 23.936 29.0648 24.9997 27.5346 24.9997C27.178 25.0048 26.8238 24.9412 26.4931 24.8124C26.1623 24.6837 25.8615 24.4925 25.6085 24.25C25.3554 24.0075 25.1551 23.7188 25.0194 23.4006C24.8837 23.0824 24.8153 22.7413 24.8183 22.3973C24.8219 20.9476 26.0135 19.8385 27.5564 19.8438ZM28.8819 22.4252C28.8878 22.2537 28.8576 22.0828 28.7932 21.9229C28.7288 21.7629 28.6315 21.6172 28.5071 21.4945C28.3828 21.3718 28.2339 21.2746 28.0696 21.2088C27.9053 21.1431 27.7288 21.1101 27.5509 21.1118C27.2819 21.1069 27.0174 21.1794 26.7912 21.3199C26.5649 21.4605 26.3871 21.6627 26.2804 21.901C26.1737 22.1393 26.1429 22.4028 26.1919 22.658C26.2409 22.9132 26.3675 23.1486 26.5556 23.3342C26.7437 23.5198 26.9848 23.6472 27.2482 23.7003C27.5116 23.7534 27.7854 23.7297 28.0349 23.6323C28.2843 23.5348 28.498 23.368 28.6488 23.1531C28.7997 22.9381 28.8808 22.6848 28.8819 22.4252Z" fill="#049FD9"/>
<path d="M17.7613 21.0229C17.3874 20.9863 17.0347 20.9374 16.6785 20.9217C16.5207 20.9179 16.364 20.9483 16.2195 21.0107C16.1535 21.0291 16.0951 21.0673 16.0522 21.1199C16.0093 21.1726 15.9842 21.2371 15.9803 21.3045C15.9764 21.3719 15.9939 21.4388 16.0304 21.4959C16.0669 21.553 16.1207 21.5975 16.1841 21.6232C16.4025 21.7265 16.6296 21.8112 16.8628 21.8762C17.3129 22.0245 17.7152 22.2339 17.9509 22.6649C18.0471 22.8474 18.1046 23.0473 18.1198 23.2524C18.1351 23.4575 18.1079 23.6635 18.0397 23.8579C17.9716 24.0523 17.864 24.2311 17.7235 24.3832C17.5831 24.5354 17.4126 24.6579 17.2225 24.7431C16.7001 24.9654 16.1267 25.0456 15.562 24.9752C15.3033 24.9508 15.0428 24.9176 14.7858 24.8757C14.7362 24.8757 14.66 24.806 14.66 24.7676C14.6494 24.4273 14.66 24.087 14.66 23.7206C14.8982 23.7801 15.1404 23.8227 15.3848 23.848C15.7346 23.8573 16.0846 23.8421 16.4322 23.8026C16.5268 23.7982 16.6162 23.7583 16.6821 23.6912C16.748 23.6241 16.7853 23.5347 16.7866 23.4414C16.7902 23.3531 16.7637 23.2662 16.7114 23.1944C16.6591 23.1226 16.5839 23.0701 16.4977 23.0453C16.1823 22.9197 15.8562 22.8202 15.5443 22.6858C15.0871 22.4852 14.7522 22.1624 14.6742 21.6546C14.5342 20.7385 15.0959 20.0196 16.0334 19.8782C16.5713 19.8122 17.1168 19.8412 17.6443 19.9637C17.6922 19.9637 17.7684 20.0248 17.7684 20.0597C17.7648 20.3877 17.7613 20.7158 17.7613 21.0229Z" fill="#049FD9"/>
<path d="M23.329 21.3513C22.9744 21.1881 22.586 21.1034 22.1927 21.1034C21.3859 21.1157 20.8196 21.6272 20.8032 22.3866C20.7919 22.5609 20.8182 22.7357 20.8803 22.8999C20.9424 23.0642 21.039 23.2144 21.1641 23.3414C21.2893 23.4684 21.4403 23.5695 21.6078 23.6382C21.7753 23.707 21.9558 23.7421 22.138 23.7413C22.5469 23.7545 22.9524 23.6674 23.3163 23.4881C23.3163 23.551 23.329 23.5946 23.329 23.6383C23.329 23.9141 23.329 24.1899 23.329 24.4658C23.329 24.8341 23.329 24.8359 22.9648 24.9127C22.0998 25.0873 21.2712 25.0174 20.5154 24.5443C19.6049 23.9752 19.2024 22.9539 19.4228 21.8332C19.5288 21.3609 19.7753 20.9282 20.1324 20.5874C20.4895 20.2466 20.942 20.0123 21.4351 19.9128C22.0068 19.8046 22.5968 19.8237 23.1597 19.9687C23.1856 19.9702 23.2108 19.977 23.2337 19.9887C23.2566 20.0003 23.2767 20.0165 23.2926 20.0362C23.3084 20.0558 23.3197 20.0785 23.3257 20.1027C23.3317 20.1269 23.3322 20.152 23.3272 20.1764C23.3236 20.5605 23.329 20.9376 23.329 21.3513Z" fill="#049FD9"/>
<path d="M9.69305 21.3506C9.33846 21.1842 8.94818 21.0994 8.55327 21.1028C7.76546 21.1168 7.18372 21.6263 7.16549 22.3538C7.1507 22.5294 7.17387 22.7059 7.23355 22.8725C7.29322 23.0391 7.38812 23.1922 7.51233 23.3222C7.63655 23.4521 7.78741 23.5562 7.95552 23.628C8.12363 23.6997 8.30538 23.7376 8.48945 23.7391C8.90582 23.7542 9.31936 23.6677 9.69122 23.4879C9.69122 23.9258 9.69122 24.3428 9.69122 24.7581C9.69122 24.7877 9.63287 24.8348 9.59457 24.8453C8.55875 25.1175 7.57034 25.0652 6.69134 24.4074C6.42257 24.2089 6.20028 23.9586 6.03882 23.6728C5.87737 23.387 5.78034 23.072 5.754 22.7481C5.70218 22.4016 5.72595 22.0485 5.82383 21.7111C5.9217 21.3738 6.09155 21.0595 6.32266 20.788C6.55378 20.5166 6.84116 20.2939 7.16668 20.134C7.49221 19.974 7.84883 19.8804 8.21408 19.8588C8.67045 19.8171 9.13095 19.8622 9.56904 19.9914C9.61828 20.0071 9.6894 20.0717 9.69122 20.1136C9.69669 20.5201 9.69305 20.9144 9.69305 21.3506Z" fill="#049FD9"/>
<path d="M25.8078 14.0052C25.8078 15.1013 25.8078 16.1973 25.8078 17.2934C25.8137 17.3986 25.7943 17.5036 25.7511 17.5992C25.708 17.6947 25.6426 17.7778 25.5607 17.8411C25.4788 17.9043 25.3829 17.9456 25.2817 17.9615C25.1805 17.9773 25.0771 17.9672 24.9806 17.9319C24.8576 17.8841 24.7521 17.7982 24.6786 17.6861C24.6051 17.5739 24.5673 17.441 24.5704 17.3058C24.5704 16.8624 24.5704 16.419 24.5704 15.9721C24.5704 14.2175 24.5704 12.4634 24.5704 10.71C24.5704 10.2932 24.8169 10.0006 25.1753 10.0006C25.2616 9.99675 25.3477 10.0119 25.4279 10.0449C25.508 10.078 25.5804 10.1282 25.6403 10.1923C25.7001 10.2564 25.746 10.3329 25.7749 10.4166C25.8038 10.5004 25.815 10.5895 25.8078 10.6781C25.8078 11.6092 25.8078 12.5421 25.8078 13.4732V14.0052Z" fill="#049FD9"/>
<path d="M10.1914 13.9833V10.6974C10.182 10.5407 10.2268 10.3856 10.3178 10.2599C10.4087 10.1342 10.54 10.0462 10.6879 10.0115C10.7704 9.99508 10.8552 9.99624 10.9372 10.0149C11.0192 10.0336 11.0966 10.0695 11.1647 10.1202C11.2329 10.171 11.2903 10.2357 11.3334 10.3103C11.3765 10.3848 11.4045 10.4677 11.4156 10.5539C11.4242 10.6202 11.4276 10.6872 11.4258 10.7541C11.4258 12.914 11.4258 15.0745 11.4258 17.2356C11.4409 17.3762 11.4123 17.5181 11.3443 17.6407C11.2763 17.7634 11.1723 17.8605 11.0475 17.9179C10.9506 17.9606 10.8448 17.9768 10.7401 17.965C10.6355 17.9533 10.5355 17.914 10.4496 17.851C10.3638 17.7879 10.295 17.7031 10.2498 17.6047C10.2046 17.5063 10.1845 17.3975 10.1914 17.2888C10.1897 16.1864 10.1914 15.0928 10.1914 13.9833Z" fill="#049FD9"/>
<path d="M12.6694 25H11.4297V20.0781H12.6694V25Z" fill="#049FD9"/>
<path d="M6.47148 14.434V12.9663C6.47148 12.8012 6.54977 12.6428 6.68914 12.5261C6.8285 12.4093 7.01752 12.3438 7.2146 12.3438C7.41169 12.3438 7.60071 12.4093 7.74008 12.5261C7.87944 12.6428 7.95773 12.8012 7.95773 12.9663C7.95773 13.9448 7.95773 14.9238 7.95773 15.9034C7.96275 15.9873 7.94763 16.0712 7.91327 16.1501C7.8789 16.229 7.82599 16.3013 7.75767 16.3627C7.68934 16.4242 7.60699 16.4735 7.51549 16.5078C7.424 16.5422 7.32521 16.5607 7.22498 16.5625C7.12332 16.5612 7.02299 16.5429 6.92984 16.5087C6.8367 16.4746 6.75261 16.4252 6.68247 16.3635C6.61234 16.3019 6.55756 16.2291 6.52133 16.1495C6.48511 16.0699 6.46816 15.9851 6.47148 15.9V14.434Z" fill="#049FD9"/>
<path d="M29.5276 14.4586C29.5276 14.9453 29.5276 15.432 29.5276 15.917C29.5295 16.0002 29.5118 16.0829 29.4754 16.1603C29.4391 16.2378 29.3848 16.3085 29.3157 16.3685C29.2466 16.4284 29.1641 16.4764 29.0728 16.5097C28.9815 16.543 28.8833 16.5609 28.7837 16.5625C28.6837 16.5621 28.5849 16.5449 28.4931 16.512C28.4013 16.4791 28.3183 16.4311 28.2491 16.3709C28.1799 16.3107 28.1259 16.2395 28.0903 16.1615C28.0547 16.0836 28.0382 16.0004 28.0418 15.917C28.0418 14.939 28.0418 13.961 28.0418 12.983C28.0369 12.8408 28.0905 12.7016 28.1937 12.5884C28.297 12.4753 28.4435 12.3952 28.609 12.3615C28.7744 12.3277 28.9487 12.3424 29.1027 12.4031C29.2567 12.4638 29.3812 12.5667 29.4552 12.6948C29.5006 12.7807 29.5245 12.8735 29.5255 12.9675C29.5317 13.4559 29.5276 13.9547 29.5276 14.4586Z" fill="#049FD9"/>
<path d="M13.6653 14.4558C13.6653 13.9765 13.6653 13.4972 13.6653 13.0179C13.6564 12.932 13.669 12.8455 13.7023 12.7639C13.7356 12.6823 13.7888 12.6074 13.8586 12.544C13.9284 12.4806 14.0132 12.43 14.1076 12.3956C14.202 12.3611 14.304 12.3434 14.407 12.3438C14.8459 12.3438 15.1446 12.6179 15.1446 13.0179C15.1446 13.9696 15.1446 14.9218 15.1446 15.8747C15.1556 15.9615 15.1446 16.0492 15.1125 16.1322C15.0803 16.2152 15.0276 16.2916 14.9579 16.3564C14.8881 16.4213 14.8028 16.4732 14.7076 16.5087C14.6123 16.5442 14.5092 16.5625 14.405 16.5625C14.3007 16.5625 14.1976 16.5442 14.1023 16.5087C14.0071 16.4732 13.9218 16.4213 13.8521 16.3564C13.7823 16.2916 13.7296 16.2152 13.6975 16.1322C13.6653 16.0492 13.6543 15.9615 13.6653 15.8747C13.6632 15.3954 13.6653 14.9213 13.6653 14.4558Z" fill="#049FD9"/>
<path d="M22.3371 14.4532V15.8928C22.3441 15.9773 22.3305 16.0622 22.297 16.1422C22.2635 16.2222 22.211 16.2958 22.1424 16.3584C22.0739 16.421 21.9908 16.4714 21.8982 16.5065C21.8056 16.5415 21.7055 16.5606 21.6038 16.5625C21.502 16.5612 21.4015 16.5429 21.3083 16.5088C21.215 16.4747 21.1309 16.4254 21.0609 16.3638C20.9908 16.3022 20.9362 16.2296 20.9003 16.1502C20.8644 16.0708 20.848 15.9862 20.8518 15.9014C20.8518 14.9302 20.8518 13.959 20.8518 12.9878C20.8478 12.9031 20.8647 12.8186 20.9015 12.7395C20.9382 12.6605 20.9941 12.5886 21.0655 12.5282C21.137 12.4679 21.2225 12.4204 21.3169 12.3887C21.4113 12.357 21.5124 12.3418 21.6141 12.344C21.7139 12.3449 21.8123 12.3629 21.9035 12.3967C21.9946 12.4304 22.0766 12.4794 22.1442 12.5404C22.2119 12.6015 22.2639 12.6735 22.2971 12.7519C22.3302 12.8303 22.3438 12.9135 22.3371 12.9964V14.4532Z" fill="#049FD9"/>
<path d="M33 15.3723C33 15.5771 33 15.7819 33 15.9867C32.9989 16.1349 32.9372 16.2771 32.8277 16.3842C32.7181 16.4912 32.569 16.555 32.4108 16.5624C32.2495 16.5656 32.093 16.5107 31.9737 16.409C31.8544 16.3072 31.7815 16.1664 31.77 16.0157C31.758 15.59 31.7562 15.1643 31.77 14.7386C31.7856 14.5929 31.8597 14.4583 31.9773 14.3618C32.0949 14.2654 32.2472 14.2143 32.4035 14.219C32.5598 14.2238 32.7083 14.2839 32.8191 14.3872C32.9298 14.4905 32.9945 14.6294 33 14.7757C33 14.9756 33 15.174 33 15.3723Z" fill="#049FD9"/>
<path d="M18.6183 15.2593C18.6183 15.4838 18.6183 15.7101 18.6183 15.9346C18.6146 16.0972 18.551 16.2522 18.4405 16.3686C18.3299 16.4851 18.1805 16.5542 18.0223 16.5622C17.8633 16.5671 17.7087 16.5085 17.5911 16.3987C17.4734 16.2888 17.402 16.1364 17.3918 15.9735C17.3763 15.5015 17.3763 15.0259 17.3918 14.5592C17.3957 14.4767 17.4162 14.3959 17.4517 14.3218C17.4873 14.2477 17.5373 14.1818 17.5987 14.1283C17.66 14.0748 17.7314 14.0348 17.8084 14.0107C17.8854 13.9866 17.9664 13.9789 18.0464 13.9882C18.1986 13.9949 18.3426 14.0611 18.4489 14.1731C18.5552 14.2852 18.6158 14.4347 18.6183 14.591C18.6217 14.8103 18.6183 15.0348 18.6183 15.2593Z" fill="#049FD9"/>
<path d="M3.00001 15.2573C3.00001 15.0453 3.00001 14.8334 3.00001 14.6215C2.99904 14.4628 3.05626 14.3095 3.16027 14.1923C3.26428 14.0751 3.40741 14.0026 3.56108 13.9892C3.64182 13.9787 3.72382 13.9854 3.80194 14.0089C3.88006 14.0324 3.95262 14.0723 4.0151 14.126C4.07758 14.1797 4.12862 14.2461 4.16505 14.321C4.20147 14.3959 4.2225 14.4778 4.2268 14.5614C4.24396 15.033 4.24396 15.5063 4.2268 15.9743C4.215 16.1361 4.14358 16.2871 4.02716 16.3964C3.91073 16.5057 3.75811 16.5651 3.60054 16.5624C3.44012 16.5556 3.28837 16.4857 3.17661 16.367C3.06485 16.2484 3.00164 16.0901 3.00001 15.9249C3.00001 15.7041 3.00001 15.4816 3.00001 15.2573Z" fill="#049FD9"/>
<path d="M28.7843 22.5459C28.787 22.7146 28.7537 22.882 28.6863 23.0384C28.619 23.1947 28.519 23.3368 28.3922 23.4563C28.2654 23.5758 28.1144 23.6703 27.9481 23.7341C27.7817 23.798 27.6035 23.8299 27.4238 23.828C27.0596 23.8262 26.7111 23.6887 26.4549 23.4457C26.1988 23.2026 26.0559 22.874 26.0579 22.5322C26.0598 22.1903 26.2064 21.8632 26.4653 21.6227C26.7242 21.3823 27.0743 21.2482 27.4385 21.2501C27.6187 21.2483 27.7974 21.2809 27.9638 21.3458C28.1302 21.4108 28.2809 21.5067 28.4067 21.6278C28.5325 21.749 28.6308 21.8928 28.6957 22.0506C28.7606 22.2084 28.7907 22.3769 28.7843 22.5459Z" fill="#FDFDFD"/>
</svg>
