<svg width="50" height="50" viewBox="0 0 50 50" fill="none" xmlns="http://www.w3.org/2000/svg">
<path d="M31.4881 22.9129C31.4231 22.8799 30.9151 22.5789 30.1601 22.5789C29.1396 22.5789 28.4316 23.2889 28.4316 24.2474C28.4316 25.1769 29.1091 25.9174 30.1601 25.9174C30.9021 25.9174 31.4186 25.6224 31.4881 25.5854V27.2644C31.2901 27.3194 30.7506 27.4869 30.0496 27.4869C28.2741 27.4869 26.7156 26.2629 26.7156 24.2469C26.7156 22.3794 28.1256 21.0094 30.0496 21.0094C30.7896 21.0094 31.3386 21.1894 31.4881 21.2339V22.9129ZM15.0117 22.9129C14.9482 22.8799 14.4407 22.5789 13.6857 22.5789C12.6632 22.5789 11.9557 23.2889 11.9557 24.2474C11.9557 25.1769 12.6337 25.9174 13.6857 25.9174C14.4277 25.9174 14.9437 25.6224 15.0117 25.5854V27.2644C14.8157 27.3194 14.2767 27.4869 13.5717 27.4869C11.7977 27.4869 10.2412 26.2629 10.2412 24.2469C10.2412 22.3794 11.6512 21.0094 13.5722 21.0094C14.3152 21.0094 14.8632 21.1894 15.0117 21.2339V22.9129ZM36.4536 22.6024C35.5171 22.6024 34.8216 23.3394 34.8216 24.2474C34.8216 25.1574 35.5171 25.8939 36.4536 25.8939C37.3891 25.8939 38.0866 25.1574 38.0866 24.2474C38.0866 23.3394 37.3891 22.6024 36.4536 22.6024ZM39.7591 24.2474C39.7591 26.0369 38.3776 27.4869 36.4541 27.4869C34.5296 27.4869 33.1501 26.0369 33.1501 24.2469C33.1501 22.4609 34.5301 21.0094 36.4536 21.0094C38.3776 21.0094 39.7591 22.4609 39.7591 24.2474ZM24.7461 22.5424C24.7226 22.5349 24.0581 22.3514 23.5121 22.3514C22.8796 22.3514 22.5356 22.5634 22.5356 22.8639C22.5356 23.2449 22.9996 23.3779 23.2591 23.4599L23.6946 23.5984C24.7196 23.9244 25.1861 24.6259 25.1861 25.3879C25.1861 26.9594 23.8041 27.4874 22.5961 27.4874C21.7566 27.4874 20.9702 27.3324 20.8927 27.3164V25.8764C21.0317 25.9114 21.6937 26.1094 22.3831 26.1094C23.1686 26.1094 23.5296 25.8794 23.5296 25.5254C23.5296 25.2084 23.2171 25.0254 22.8256 24.9024C22.7306 24.8704 22.5866 24.8254 22.4886 24.7934C21.6097 24.5154 20.8767 23.9984 20.8767 22.9634C20.8767 21.7934 21.7526 21.0079 23.2076 21.0079C23.9761 21.0079 24.6991 21.1944 24.7461 21.2069V22.5424Z" fill="#049FD9"/>
<path d="M18.76 27.376H17.1815V21.1205H18.76V27.376Z" fill="#049FD9"/>
<path d="M8.56749 14.3982C8.56749 13.9672 8.21549 13.6176 7.784 13.6176C7.3525 13.6176 7 13.9671 7 14.3976V16.0402C7.00516 16.2446 7.09 16.4389 7.23642 16.5817C7.38284 16.7245 7.57925 16.8043 7.78375 16.8043C7.98825 16.8043 8.18465 16.7245 8.33107 16.5817C8.47749 16.4389 8.56233 16.2446 8.56749 16.0402V14.3982ZM12.872 12.2432C12.872 12.0353 12.7894 11.836 12.6424 11.689C12.4954 11.542 12.2961 11.4594 12.0882 11.4594C11.8804 11.4594 11.681 11.542 11.534 11.689C11.3871 11.836 11.3045 12.0353 11.3045 12.2432V16.0402C11.3045 16.248 11.3871 16.4474 11.534 16.5943C11.681 16.7413 11.8804 16.8239 12.0882 16.8239C12.2961 16.8239 12.4954 16.7413 12.6424 16.5943C12.7894 16.4474 12.872 16.248 12.872 16.0402V12.2432ZM17.177 9.29419C17.177 8.86319 16.825 8.51318 16.3935 8.51318C15.9615 8.51318 15.6095 8.86319 15.6095 9.29419V17.6006C15.6146 17.8051 15.6995 17.9994 15.8459 18.1422C15.9923 18.2849 16.1887 18.3648 16.3932 18.3648C16.5977 18.3648 16.7941 18.2849 16.9405 18.1422C17.0869 17.9994 17.1718 17.8051 17.177 17.6006V9.29419ZM21.4814 12.2432C21.4814 12.0353 21.3989 11.836 21.2519 11.689C21.1049 11.542 20.9055 11.4594 20.6977 11.4594C20.4898 11.4594 20.2905 11.542 20.1435 11.689C19.9965 11.836 19.9139 12.0353 19.9139 12.2432V16.0402C19.9139 16.248 19.9965 16.4474 20.1435 16.5943C20.2905 16.7413 20.4898 16.8239 20.6977 16.8239C20.9055 16.8239 21.1049 16.7413 21.2519 16.5943C21.3989 16.4474 21.4814 16.248 21.4814 16.0402V12.2432ZM25.7814 14.3982C25.7815 14.1914 25.6996 13.993 25.5535 13.8467C25.4074 13.7003 25.2092 13.6179 25.0024 13.6176C24.7952 13.6175 24.5963 13.6996 24.4495 13.8458C24.3026 13.992 24.2197 14.1904 24.2189 14.3976V16.0402C24.2189 16.2474 24.3012 16.4461 24.4477 16.5926C24.5942 16.7391 24.793 16.8214 25.0002 16.8214C25.2074 16.8214 25.4061 16.7391 25.5526 16.5926C25.6991 16.4461 25.7814 16.2474 25.7814 16.0402V14.3982ZM30.0879 12.2432C30.0827 12.0394 29.9982 11.8457 29.8522 11.7034C29.7063 11.5611 29.5105 11.4814 29.3066 11.4814C29.1028 11.4814 28.907 11.5611 28.7611 11.7034C28.6151 11.8457 28.5306 12.0394 28.5254 12.2432V16.0402C28.5254 16.2474 28.6077 16.4461 28.7542 16.5926C28.9007 16.7391 29.0994 16.8214 29.3066 16.8214C29.5138 16.8214 29.7125 16.7391 29.8591 16.5926C30.0056 16.4461 30.0879 16.2474 30.0879 16.0402V12.2432ZM34.3954 9.29419C34.3954 9.08699 34.3131 8.88827 34.1665 8.74176C34.02 8.59525 33.8213 8.51294 33.6141 8.51294C33.4069 8.51294 33.2082 8.59525 33.0617 8.74176C32.9152 8.88827 32.8329 9.08699 32.8329 9.29419V17.6006C32.8282 17.7061 32.845 17.8114 32.8822 17.9102C32.9194 18.009 32.9762 18.0993 33.0492 18.1756C33.1222 18.2518 33.2099 18.3125 33.307 18.354C33.4041 18.3955 33.5085 18.4169 33.6141 18.4169C33.7197 18.4169 33.8242 18.3955 33.9213 18.354C34.0184 18.3125 34.106 18.2518 34.179 18.1756C34.252 18.0993 34.3088 18.009 34.346 17.9102C34.3832 17.8114 34.4 17.7061 34.3954 17.6006V9.29419ZM38.7018 12.2432C38.7018 11.8117 38.3523 11.4612 37.9108 11.4612C37.7037 11.4613 37.505 11.5437 37.3586 11.6902C37.2121 11.8368 37.1299 12.0355 37.1299 12.2427V16.0402C37.1299 16.4736 37.4798 16.8231 37.9108 16.8231C38.3523 16.8231 38.7018 16.4736 38.7018 16.0402V12.2432ZM43.0003 14.3982C43.0003 14.1908 42.9179 13.9918 42.7713 13.8452C42.6246 13.6985 42.4257 13.6162 42.2183 13.6162C42.0109 13.6162 41.812 13.6985 41.6654 13.8452C41.5187 13.9918 41.4363 14.1908 41.4363 14.3982V16.0402C41.4363 16.4736 41.7868 16.8236 42.2183 16.8236C42.6493 16.8236 42.9998 16.4736 42.9998 16.0402L43.0003 14.3982Z" fill="#049FD9"/>
<path d="M22.2072 36.6905C22.2072 36.5245 22.1811 36.378 22.1291 36.251C22.0802 36.1208 21.9923 36.0036 21.8654 35.8995C21.7417 35.7953 21.5692 35.696 21.3478 35.6016C21.1297 35.5072 20.853 35.4112 20.5177 35.3135C20.1662 35.2094 19.8488 35.0938 19.5656 34.9669C19.2824 34.8367 19.0399 34.6885 18.8381 34.5225C18.6362 34.3565 18.4816 34.1661 18.3742 33.9512C18.2668 33.7364 18.2131 33.4906 18.2131 33.2139C18.2131 32.9372 18.27 32.6817 18.3839 32.4473C18.4979 32.213 18.6606 32.0095 18.8722 31.837C19.0871 31.6612 19.3426 31.5245 19.6388 31.4268C19.9351 31.3292 20.2655 31.2803 20.63 31.2803C21.1639 31.2803 21.6164 31.3829 21.9875 31.588C22.3618 31.7898 22.6466 32.0551 22.842 32.3839C23.0373 32.7094 23.1349 33.0577 23.1349 33.4288H22.1974C22.1974 33.1618 22.1405 32.9258 22.0265 32.7208C21.9126 32.5124 21.7401 32.3497 21.5089 32.2325C21.2778 32.112 20.9849 32.0518 20.63 32.0518C20.2948 32.0518 20.0181 32.1023 19.8 32.2032C19.5819 32.3041 19.4191 32.4408 19.3117 32.6133C19.2075 32.7859 19.1554 32.9828 19.1554 33.2042C19.1554 33.3539 19.1864 33.4906 19.2482 33.6143C19.3133 33.7348 19.4126 33.8471 19.5461 33.9512C19.6828 34.0554 19.8553 34.1514 20.0636 34.2393C20.2752 34.3272 20.5275 34.4118 20.8205 34.4932C21.2241 34.6072 21.5724 34.7341 21.8654 34.8741C22.1584 35.0141 22.3992 35.1719 22.5881 35.3477C22.7801 35.5202 22.9217 35.7172 23.0129 35.9385C23.1073 36.1566 23.1545 36.404 23.1545 36.6807C23.1545 36.9704 23.0959 37.2325 22.9787 37.4669C22.8615 37.7012 22.6938 37.9014 22.4757 38.0674C22.2576 38.2335 21.9956 38.362 21.6896 38.4532C21.3869 38.5411 21.0483 38.585 20.674 38.585C20.3452 38.585 20.0213 38.5395 19.7023 38.4483C19.3866 38.3572 19.0985 38.2204 18.8381 38.0382C18.5809 37.8559 18.3742 37.6312 18.2179 37.3643C18.0649 37.0941 17.9884 36.7816 17.9884 36.4268H18.9259C18.9259 36.671 18.9731 36.8809 19.0675 37.0567C19.1619 37.2292 19.2905 37.3725 19.4533 37.4864C19.6193 37.6003 19.8065 37.685 20.0148 37.7403C20.2264 37.7924 20.4461 37.8184 20.674 37.8184C21.0028 37.8184 21.2811 37.7729 21.5089 37.6817C21.7368 37.5906 21.9093 37.4604 22.0265 37.2911C22.147 37.1218 22.2072 36.9216 22.2072 36.6905Z" fill="#1C1D1F"/>
<path d="M26.2257 36.3389L27.6369 31.378H28.3205L27.925 33.3067L26.4064 38.4874H25.7277L26.2257 36.3389ZM24.7658 31.378L25.8888 36.2413L26.2257 38.4874H25.5519L23.8283 31.378H24.7658ZM30.1466 36.2364L31.2453 31.378H32.1877L30.4689 38.4874H29.7951L30.1466 36.2364ZM28.423 31.378L29.7951 36.3389L30.2931 38.4874H29.6144L28.1496 33.3067L27.7492 31.378H28.423Z" fill="#1C1D1F"/>
</svg>
