<svg width="50" height="50" viewBox="0 0 50 50" fill="none" xmlns="http://www.w3.org/2000/svg">
<path d="M30.7678 22.3669C30.7101 22.3375 30.2585 22.07 29.5874 22.07C28.6803 22.07 28.051 22.7011 28.051 23.5531C28.051 24.3793 28.6532 25.0376 29.5874 25.0376C30.247 25.0376 30.7061 24.7753 30.7678 24.7424V26.2349C30.5918 26.2838 30.1123 26.4326 29.4892 26.4326C27.911 26.4326 26.5256 25.3447 26.5256 23.5527C26.5256 21.8927 27.779 20.6749 29.4892 20.6749C30.147 20.6749 30.635 20.8349 30.7678 20.8745V22.3669ZM16.1221 22.3669C16.0657 22.3375 15.6146 22.07 14.9435 22.07C14.0346 22.07 13.4057 22.7011 13.4057 23.5531C13.4057 24.3793 14.0084 25.0376 14.9435 25.0376C15.603 25.0376 16.0617 24.7753 16.1221 24.7424V26.2349C15.9479 26.2838 15.4688 26.4326 14.8421 26.4326C13.2653 26.4326 11.8817 25.3447 11.8817 23.5527C11.8817 21.8927 13.135 20.6749 14.8426 20.6749C15.503 20.6749 15.9901 20.8349 16.1221 20.8745V22.3669ZM35.1816 22.0909C34.3492 22.0909 33.7309 22.746 33.7309 23.5531C33.7309 24.362 34.3492 25.0167 35.1816 25.0167C36.0131 25.0167 36.6331 24.362 36.6331 23.5531C36.6331 22.746 36.0131 22.0909 35.1816 22.0909ZM38.1198 23.5531C38.1198 25.1438 36.8918 26.4326 35.182 26.4326C33.4714 26.4326 32.2452 25.1438 32.2452 23.5527C32.2452 21.9651 33.4718 20.6749 35.1816 20.6749C36.8918 20.6749 38.1198 21.9651 38.1198 23.5531ZM24.775 22.0376C24.7541 22.0309 24.1634 21.8678 23.6781 21.8678C23.1159 21.8678 22.8101 22.0562 22.8101 22.3233C22.8101 22.662 23.2225 22.7802 23.4532 22.8531L23.8403 22.9762C24.7514 23.266 25.1661 23.8895 25.1661 24.5669C25.1661 25.9638 23.9376 26.4331 22.8639 26.4331C22.1177 26.4331 21.4186 26.2953 21.3497 26.2811V25.0011C21.4732 25.0322 22.0617 25.2082 22.6745 25.2082C23.3728 25.2082 23.6937 25.0038 23.6937 24.6891C23.6937 24.4073 23.4159 24.2447 23.0679 24.1353C22.9834 24.1069 22.8554 24.0669 22.7683 24.0384C21.987 23.7913 21.3354 23.3318 21.3354 22.4118C21.3354 21.3718 22.1141 20.6736 23.4074 20.6736C24.0905 20.6736 24.7332 20.8393 24.775 20.8505V22.0376Z" fill="#049FD9"/>
<path d="M19.4538 26.3341H18.0507V20.7737H19.4538V26.3341Z" fill="#049FD9"/>
<path d="M10.3933 14.7982C10.3933 14.4151 10.0804 14.1044 9.69689 14.1044C9.31333 14.1044 9 14.4151 9 14.7977V16.2578C9.00459 16.4395 9.08 16.6122 9.21015 16.7391C9.3403 16.866 9.51489 16.937 9.69667 16.937C9.87844 16.937 10.053 16.866 10.1832 16.7391C10.3133 16.6122 10.3887 16.4395 10.3933 16.2578V14.7982ZM14.2195 12.8827C14.2195 12.6979 14.1461 12.5207 14.0155 12.39C13.8848 12.2594 13.7076 12.186 13.5229 12.186C13.3381 12.186 13.1609 12.2594 13.0303 12.39C12.8996 12.5207 12.8262 12.6979 12.8262 12.8827V16.2578C12.8262 16.4425 12.8996 16.6197 13.0303 16.7504C13.1609 16.881 13.3381 16.9544 13.5229 16.9544C13.7076 16.9544 13.8848 16.881 14.0155 16.7504C14.1461 16.6197 14.2195 16.4425 14.2195 16.2578V12.8827ZM18.0462 10.2613C18.0462 9.87823 17.7333 9.56711 17.3497 9.56711C16.9657 9.56711 16.6529 9.87823 16.6529 10.2613V17.6448C16.6574 17.8266 16.7329 17.9993 16.863 18.1262C16.9932 18.2531 17.1677 18.3241 17.3495 18.3241C17.5313 18.3241 17.7059 18.2531 17.836 18.1262C17.9662 17.9993 18.0416 17.8266 18.0462 17.6448V10.2613ZM21.8724 12.8827C21.8724 12.6979 21.799 12.5207 21.6683 12.39C21.5377 12.2594 21.3605 12.186 21.1757 12.186C20.9909 12.186 20.8137 12.2594 20.6831 12.39C20.5525 12.5207 20.4791 12.6979 20.4791 12.8827V16.2578C20.4791 16.4425 20.5525 16.6197 20.6831 16.7504C20.8137 16.881 20.9909 16.9544 21.1757 16.9544C21.3605 16.9544 21.5377 16.881 21.6683 16.7504C21.799 16.6197 21.8724 16.4425 21.8724 16.2578V12.8827ZM25.6946 14.7982C25.6947 14.6144 25.6218 14.4381 25.492 14.308C25.3621 14.1779 25.1859 14.1047 25.0021 14.1044C24.8179 14.1043 24.6412 14.1772 24.5107 14.3072C24.3801 14.4371 24.3064 14.6135 24.3057 14.7977V16.2578C24.3057 16.4419 24.3789 16.6186 24.5091 16.7488C24.6393 16.879 24.816 16.9522 25.0001 16.9522C25.1843 16.9522 25.361 16.879 25.4912 16.7488C25.6214 16.6186 25.6946 16.4419 25.6946 16.2578V14.7982ZM29.5226 12.8827C29.518 12.7015 29.4428 12.5293 29.3131 12.4028C29.1833 12.2764 29.0093 12.2056 28.8281 12.2056C28.6469 12.2056 28.4729 12.2764 28.3432 12.4028C28.2134 12.5293 28.1383 12.7015 28.1337 12.8827V16.2578C28.1337 16.4419 28.2068 16.6186 28.3371 16.7488C28.4673 16.879 28.6439 16.9522 28.8281 16.9522C29.0123 16.9522 29.1889 16.879 29.3192 16.7488C29.4494 16.6186 29.5226 16.4419 29.5226 16.2578V12.8827ZM33.3514 10.2613C33.3514 10.0772 33.2783 9.90052 33.148 9.77029C33.0178 9.64006 32.8412 9.56689 32.657 9.56689C32.4728 9.56689 32.2962 9.64006 32.1659 9.77029C32.0357 9.90052 31.9625 10.0772 31.9625 10.2613V17.6448C31.9584 17.7386 31.9734 17.8322 32.0064 17.92C32.0395 18.0079 32.0899 18.0881 32.1548 18.1559C32.2197 18.2237 32.2977 18.2777 32.384 18.3145C32.4703 18.3514 32.5631 18.3704 32.657 18.3704C32.7508 18.3704 32.8437 18.3514 32.93 18.3145C33.0163 18.2777 33.0943 18.2237 33.1591 18.1559C33.224 18.0881 33.2745 18.0079 33.3076 17.92C33.3406 17.8322 33.3555 17.7386 33.3514 17.6448V10.2613ZM37.1794 12.8827C37.1794 12.4991 36.8687 12.1875 36.4763 12.1875C36.2921 12.1877 36.1156 12.2609 35.9854 12.3912C35.8552 12.5214 35.7821 12.698 35.7821 12.8822V16.2578C35.7821 16.6431 36.0932 16.9537 36.4763 16.9537C36.8687 16.9537 37.1794 16.6431 37.1794 16.2578V12.8827ZM41.0003 14.7982C41.0003 14.6139 40.927 14.437 40.7967 14.3067C40.6663 14.1763 40.4895 14.1031 40.3052 14.1031C40.1208 14.1031 39.944 14.1763 39.8137 14.3067C39.6833 14.437 39.6101 14.6139 39.6101 14.7982V16.2578C39.6101 16.6431 39.9216 16.9542 40.3052 16.9542C40.6883 16.9542 40.9998 16.6431 40.9998 16.2578L41.0003 14.7982Z" fill="#049FD9"/>
<path d="M15.9438 34.8691C15.9438 34.7197 15.9204 34.5879 15.8735 34.4736C15.8296 34.3564 15.7505 34.251 15.6362 34.1572C15.5249 34.0635 15.3696 33.9741 15.1704 33.8892C14.9741 33.8042 14.7251 33.7178 14.4233 33.6299C14.1069 33.5361 13.8213 33.4321 13.5664 33.3179C13.3115 33.2007 13.0933 33.0674 12.9116 32.918C12.73 32.7686 12.5908 32.5972 12.4941 32.4038C12.3975 32.2104 12.3491 31.9893 12.3491 31.7402C12.3491 31.4912 12.4004 31.2612 12.5029 31.0503C12.6055 30.8394 12.752 30.6562 12.9424 30.501C13.1357 30.3428 13.3657 30.2197 13.6323 30.1318C13.8989 30.0439 14.1963 30 14.5244 30C15.0049 30 15.4121 30.0923 15.7461 30.2769C16.083 30.4585 16.3394 30.6973 16.5151 30.9932C16.6909 31.2861 16.7788 31.5996 16.7788 31.9336H15.9351C15.9351 31.6934 15.8838 31.481 15.7812 31.2964C15.6787 31.1089 15.5234 30.9624 15.3154 30.8569C15.1074 30.7485 14.8438 30.6943 14.5244 30.6943C14.2227 30.6943 13.9736 30.7397 13.7773 30.8306C13.5811 30.9214 13.4346 31.0444 13.3379 31.1997C13.2441 31.355 13.1973 31.5322 13.1973 31.7314C13.1973 31.8662 13.2251 31.9893 13.2808 32.1006C13.3394 32.209 13.4287 32.3101 13.5488 32.4038C13.6719 32.4976 13.8271 32.584 14.0146 32.6631C14.2051 32.7422 14.4321 32.8184 14.6958 32.8916C15.0591 32.9941 15.3726 33.1084 15.6362 33.2344C15.8999 33.3604 16.1167 33.5024 16.2866 33.6606C16.4595 33.8159 16.5869 33.9932 16.6689 34.1924C16.7539 34.3887 16.7964 34.6113 16.7964 34.8604C16.7964 35.1211 16.7437 35.3569 16.6382 35.5679C16.5327 35.7788 16.3818 35.959 16.1855 36.1084C15.9893 36.2578 15.7534 36.3735 15.478 36.4556C15.2056 36.5347 14.9009 36.5742 14.564 36.5742C14.2681 36.5742 13.9766 36.5332 13.6895 36.4512C13.4053 36.3691 13.146 36.2461 12.9116 36.082C12.6802 35.918 12.4941 35.7158 12.3535 35.4756C12.2158 35.2324 12.147 34.9512 12.147 34.6318H12.9907C12.9907 34.8516 13.0332 35.0405 13.1182 35.1987C13.2031 35.354 13.3188 35.4829 13.4653 35.5854C13.6147 35.688 13.7832 35.7642 13.9707 35.814C14.1611 35.8608 14.3589 35.8843 14.564 35.8843C14.8599 35.8843 15.1104 35.8433 15.3154 35.7612C15.5205 35.6792 15.6758 35.562 15.7812 35.4097C15.8896 35.2573 15.9438 35.0771 15.9438 34.8691Z" fill="black"/>
<path d="M19.6375 36.5742C19.3065 36.5742 19.0062 36.5186 18.7367 36.4072C18.4701 36.293 18.2401 36.1333 18.0467 35.9282C17.8563 35.7231 17.7098 35.48 17.6073 35.1987C17.5047 34.9175 17.4535 34.6099 17.4535 34.2759V34.0913C17.4535 33.7046 17.5106 33.3604 17.6248 33.0586C17.7391 32.7539 17.8944 32.4961 18.0907 32.2852C18.287 32.0742 18.5096 31.9146 18.7586 31.8062C19.0077 31.6978 19.2655 31.6436 19.5321 31.6436C19.8719 31.6436 20.1649 31.7021 20.411 31.8193C20.66 31.9365 20.8636 32.1006 21.0218 32.3115C21.18 32.5195 21.2972 32.7656 21.3734 33.0498C21.4496 33.3311 21.4876 33.6387 21.4876 33.9727V34.3374H17.9369V33.6738H20.6746V33.6123C20.6629 33.4014 20.619 33.1963 20.5428 32.9971C20.4696 32.7979 20.3524 32.6338 20.1912 32.5049C20.0301 32.376 19.8104 32.3115 19.5321 32.3115C19.3475 32.3115 19.1776 32.3511 19.0223 32.4302C18.867 32.5063 18.7337 32.6206 18.6224 32.7729C18.5111 32.9253 18.4246 33.1113 18.3631 33.3311C18.3016 33.5508 18.2708 33.8042 18.2708 34.0913V34.2759C18.2708 34.5015 18.3016 34.7139 18.3631 34.9131C18.4276 35.1094 18.5199 35.2822 18.64 35.4316C18.763 35.5811 18.911 35.6982 19.0838 35.7832C19.2596 35.8682 19.4588 35.9106 19.6815 35.9106C19.9686 35.9106 20.2118 35.8521 20.411 35.7349C20.6102 35.6177 20.7845 35.4609 20.9339 35.2646L21.4261 35.6558C21.3236 35.811 21.1932 35.959 21.035 36.0996C20.8768 36.2402 20.682 36.3545 20.4505 36.4424C20.222 36.5303 19.951 36.5742 19.6375 36.5742Z" fill="black"/>
<path d="M24.2497 35.9062C24.443 35.9062 24.6218 35.8667 24.7858 35.7876C24.9499 35.7085 25.0846 35.6001 25.1901 35.4624C25.2956 35.3218 25.3556 35.1621 25.3703 34.9834H26.1437C26.1291 35.2646 26.0339 35.5269 25.8581 35.77C25.6852 36.0103 25.4582 36.2051 25.1769 36.3545C24.8957 36.501 24.5866 36.5742 24.2497 36.5742C23.8923 36.5742 23.5803 36.5112 23.3137 36.3853C23.05 36.2593 22.8303 36.0864 22.6545 35.8667C22.4816 35.647 22.3512 35.395 22.2634 35.1108C22.1784 34.8237 22.1359 34.5205 22.1359 34.2012V34.0166C22.1359 33.6973 22.1784 33.3955 22.2634 33.1113C22.3512 32.8242 22.4816 32.5708 22.6545 32.3511C22.8303 32.1313 23.05 31.9585 23.3137 31.8325C23.5803 31.7065 23.8923 31.6436 24.2497 31.6436C24.6218 31.6436 24.947 31.7197 25.2253 31.8721C25.5036 32.0215 25.7219 32.2266 25.8801 32.4873C26.0412 32.7451 26.1291 33.0381 26.1437 33.3662H25.3703C25.3556 33.1699 25.3 32.9927 25.2033 32.8345C25.1096 32.6763 24.9806 32.5503 24.8166 32.4565C24.6554 32.3599 24.4665 32.3115 24.2497 32.3115C24.0007 32.3115 23.7912 32.3613 23.6213 32.4609C23.4543 32.5576 23.321 32.6895 23.2214 32.8564C23.1247 33.0205 23.0544 33.2036 23.0104 33.4058C22.9694 33.605 22.9489 33.8086 22.9489 34.0166V34.2012C22.9489 34.4092 22.9694 34.6143 23.0104 34.8164C23.0514 35.0186 23.1203 35.2017 23.217 35.3657C23.3166 35.5298 23.4499 35.6616 23.6169 35.7612C23.7868 35.8579 23.9977 35.9062 24.2497 35.9062Z" fill="black"/>
<path d="M29.877 35.3877V31.7314H30.6944V36.4863H29.9165L29.877 35.3877ZM30.0308 34.3857L30.3692 34.377C30.3692 34.6934 30.3355 34.9863 30.2681 35.2559C30.2036 35.5225 30.0982 35.7539 29.9517 35.9502C29.8052 36.1465 29.6133 36.3003 29.376 36.4116C29.1387 36.52 28.8501 36.5742 28.5103 36.5742C28.2788 36.5742 28.0664 36.5405 27.8731 36.4731C27.6826 36.4058 27.5186 36.3018 27.3809 36.1611C27.2432 36.0205 27.1362 35.8374 27.0601 35.6118C26.9868 35.3862 26.9502 35.1152 26.9502 34.7988V31.7314H27.7632V34.8076C27.7632 35.0215 27.7866 35.1987 27.8335 35.3394C27.8833 35.4771 27.9492 35.5869 28.0313 35.6689C28.1162 35.748 28.21 35.8037 28.3125 35.8359C28.418 35.8682 28.5264 35.8843 28.6377 35.8843C28.9834 35.8843 29.2573 35.8184 29.4595 35.6865C29.6616 35.5518 29.8067 35.3716 29.8946 35.146C29.9854 34.9175 30.0308 34.6641 30.0308 34.3857Z" fill="black"/>
<path d="M32.6566 32.4785V36.4863H31.8436V31.7314H32.6346L32.6566 32.4785ZM34.142 31.7051L34.1376 32.4609C34.0702 32.4463 34.0057 32.4375 33.9442 32.4346C33.8856 32.4287 33.8182 32.4258 33.7421 32.4258C33.5546 32.4258 33.389 32.4551 33.2455 32.5137C33.1019 32.5723 32.9803 32.6543 32.8807 32.7598C32.7811 32.8652 32.702 32.9912 32.6434 33.1377C32.5878 33.2812 32.5511 33.4395 32.5336 33.6123L32.305 33.7441C32.305 33.457 32.3329 33.1875 32.3885 32.9355C32.4471 32.6836 32.5365 32.4609 32.6566 32.2676C32.7767 32.0713 32.9291 31.9189 33.1136 31.8105C33.3011 31.6992 33.5238 31.6436 33.7816 31.6436C33.8402 31.6436 33.9076 31.6509 33.9837 31.6655C34.0599 31.6772 34.1127 31.6904 34.142 31.7051Z" fill="black"/>
<path d="M36.6887 36.5742C36.3576 36.5742 36.0573 36.5186 35.7878 36.4072C35.5212 36.293 35.2912 36.1333 35.0979 35.9282C34.9074 35.7231 34.7609 35.48 34.6584 35.1987C34.5559 34.9175 34.5046 34.6099 34.5046 34.2759V34.0913C34.5046 33.7046 34.5617 33.3604 34.676 33.0586C34.7902 32.7539 34.9455 32.4961 35.1418 32.2852C35.3381 32.0742 35.5607 31.9146 35.8098 31.8062C36.0588 31.6978 36.3166 31.6436 36.5832 31.6436C36.923 31.6436 37.216 31.7021 37.4621 31.8193C37.7111 31.9365 37.9147 32.1006 38.0729 32.3115C38.2312 32.5195 38.3483 32.7656 38.4245 33.0498C38.5007 33.3311 38.5388 33.6387 38.5388 33.9727V34.3374H34.988V33.6738H37.7258V33.6123C37.7141 33.4014 37.6701 33.1963 37.5939 32.9971C37.5207 32.7979 37.4035 32.6338 37.2424 32.5049C37.0812 32.376 36.8615 32.3115 36.5832 32.3115C36.3986 32.3115 36.2287 32.3511 36.0734 32.4302C35.9182 32.5063 35.7849 32.6206 35.6735 32.7729C35.5622 32.9253 35.4758 33.1113 35.4143 33.3311C35.3527 33.5508 35.322 33.8042 35.322 34.0913V34.2759C35.322 34.5015 35.3527 34.7139 35.4143 34.9131C35.4787 35.1094 35.571 35.2822 35.6911 35.4316C35.8142 35.5811 35.9621 35.6982 36.135 35.7832C36.3107 35.8682 36.51 35.9106 36.7326 35.9106C37.0197 35.9106 37.2629 35.8521 37.4621 35.7349C37.6613 35.6177 37.8356 35.4609 37.9851 35.2646L38.4772 35.6558C38.3747 35.811 38.2443 35.959 38.0861 36.0996C37.9279 36.2402 37.7331 36.3545 37.5017 36.4424C37.2731 36.5303 37.0021 36.5742 36.6887 36.5742Z" fill="black"/>
<path d="M13.9839 38.6548L11.8657 44.4863H11L13.439 38.0879H13.9971L13.9839 38.6548ZM15.7593 44.4863L13.6367 38.6548L13.6235 38.0879H14.1816L16.6294 44.4863H15.7593ZM15.6494 42.1177V42.812H12.0547V42.1177H15.6494Z" fill="black"/>
<path d="M19.1761 43.9062C19.3695 43.9062 19.5482 43.8667 19.7122 43.7876C19.8763 43.7085 20.0111 43.6001 20.1165 43.4624C20.222 43.3218 20.2821 43.1621 20.2967 42.9834H21.0702C21.0555 43.2646 20.9603 43.5269 20.7845 43.77C20.6117 44.0103 20.3846 44.2051 20.1034 44.3545C19.8221 44.501 19.513 44.5742 19.1761 44.5742C18.8187 44.5742 18.5067 44.5112 18.2401 44.3853C17.9764 44.2593 17.7567 44.0864 17.5809 43.8667C17.408 43.647 17.2777 43.395 17.1898 43.1108C17.1048 42.8237 17.0623 42.5205 17.0623 42.2012V42.0166C17.0623 41.6973 17.1048 41.3955 17.1898 41.1113C17.2777 40.8242 17.408 40.5708 17.5809 40.3511C17.7567 40.1313 17.9764 39.9585 18.2401 39.8325C18.5067 39.7065 18.8187 39.6436 19.1761 39.6436C19.5482 39.6436 19.8734 39.7197 20.1517 39.8721C20.43 40.0215 20.6483 40.2266 20.8065 40.4873C20.9676 40.7451 21.0555 41.0381 21.0702 41.3662H20.2967C20.2821 41.1699 20.2264 40.9927 20.1297 40.8345C20.036 40.6763 19.9071 40.5503 19.743 40.4565C19.5819 40.3599 19.3929 40.3115 19.1761 40.3115C18.9271 40.3115 18.7176 40.3613 18.5477 40.4609C18.3807 40.5576 18.2474 40.6895 18.1478 40.8564C18.0511 41.0205 17.9808 41.2036 17.9369 41.4058C17.8958 41.605 17.8753 41.8086 17.8753 42.0166V42.2012C17.8753 42.4092 17.8958 42.6143 17.9369 42.8164C17.9779 43.0186 18.0467 43.2017 18.1434 43.3657C18.243 43.5298 18.3763 43.6616 18.5433 43.7612C18.7132 43.8579 18.9242 43.9062 19.1761 43.9062Z" fill="black"/>
<path d="M23.7971 43.9062C23.9904 43.9062 24.1691 43.8667 24.3332 43.7876C24.4972 43.7085 24.632 43.6001 24.7375 43.4624C24.8429 43.3218 24.903 43.1621 24.9177 42.9834H25.6911C25.6764 43.2646 25.5812 43.5269 25.4054 43.77C25.2326 44.0103 25.0055 44.2051 24.7243 44.3545C24.443 44.501 24.134 44.5742 23.7971 44.5742C23.4396 44.5742 23.1276 44.5112 22.861 44.3853C22.5973 44.2593 22.3776 44.0864 22.2018 43.8667C22.029 43.647 21.8986 43.395 21.8107 43.1108C21.7258 42.8237 21.6833 42.5205 21.6833 42.2012V42.0166C21.6833 41.6973 21.7258 41.3955 21.8107 41.1113C21.8986 40.8242 22.029 40.5708 22.2018 40.3511C22.3776 40.1313 22.5973 39.9585 22.861 39.8325C23.1276 39.7065 23.4396 39.6436 23.7971 39.6436C24.1691 39.6436 24.4943 39.7197 24.7726 39.8721C25.051 40.0215 25.2692 40.2266 25.4274 40.4873C25.5886 40.7451 25.6764 41.0381 25.6911 41.3662H24.9177C24.903 41.1699 24.8473 40.9927 24.7507 40.8345C24.6569 40.6763 24.528 40.5503 24.3639 40.4565C24.2028 40.3599 24.0138 40.3115 23.7971 40.3115C23.548 40.3115 23.3386 40.3613 23.1686 40.4609C23.0016 40.5576 22.8683 40.6895 22.7687 40.8564C22.6721 41.0205 22.6017 41.2036 22.5578 41.4058C22.5168 41.605 22.4963 41.8086 22.4963 42.0166V42.2012C22.4963 42.4092 22.5168 42.6143 22.5578 42.8164C22.5988 43.0186 22.6677 43.2017 22.7643 43.3657C22.8639 43.5298 22.9972 43.6616 23.1642 43.7612C23.3342 43.8579 23.5451 43.9062 23.7971 43.9062Z" fill="black"/>
<path d="M28.4883 44.5742C28.1572 44.5742 27.857 44.5186 27.5874 44.4072C27.3208 44.293 27.0908 44.1333 26.8975 43.9282C26.7071 43.7231 26.5606 43.48 26.458 43.1987C26.3555 42.9175 26.3042 42.6099 26.3042 42.2759V42.0913C26.3042 41.7046 26.3613 41.3604 26.4756 41.0586C26.5899 40.7539 26.7451 40.4961 26.9414 40.2852C27.1377 40.0742 27.3604 39.9146 27.6094 39.8062C27.8584 39.6978 28.1162 39.6436 28.3828 39.6436C28.7227 39.6436 29.0156 39.7021 29.2617 39.8193C29.5108 39.9365 29.7144 40.1006 29.8726 40.3115C30.0308 40.5195 30.148 40.7656 30.2241 41.0498C30.3003 41.3311 30.3384 41.6387 30.3384 41.9727V42.3374H26.7876V41.6738H29.5254V41.6123C29.5137 41.4014 29.4697 41.1963 29.3936 40.9971C29.3203 40.7979 29.2031 40.6338 29.042 40.5049C28.8809 40.376 28.6612 40.3115 28.3828 40.3115C28.1983 40.3115 28.0283 40.3511 27.8731 40.4302C27.7178 40.5063 27.5845 40.6206 27.4732 40.7729C27.3618 40.9253 27.2754 41.1113 27.2139 41.3311C27.1524 41.5508 27.1216 41.8042 27.1216 42.0913V42.2759C27.1216 42.5015 27.1524 42.7139 27.2139 42.9131C27.2783 43.1094 27.3706 43.2822 27.4907 43.4316C27.6138 43.5811 27.7617 43.6982 27.9346 43.7832C28.1104 43.8682 28.3096 43.9106 28.5322 43.9106C28.8194 43.9106 29.0625 43.8521 29.2617 43.7349C29.461 43.6177 29.6353 43.4609 29.7847 43.2646L30.2769 43.6558C30.1743 43.811 30.044 43.959 29.8858 44.0996C29.7276 44.2402 29.5327 44.3545 29.3013 44.4424C29.0728 44.5303 28.8018 44.5742 28.4883 44.5742Z" fill="black"/>
<path d="M33.9662 43.2251C33.9662 43.1079 33.9398 42.9995 33.8871 42.8999C33.8373 42.7974 33.7333 42.7051 33.5751 42.623C33.4198 42.5381 33.1854 42.4648 32.8719 42.4033C32.6083 42.3477 32.3695 42.2817 32.1556 42.2056C31.9447 42.1294 31.7645 42.0371 31.6151 41.9287C31.4686 41.8203 31.3558 41.6929 31.2767 41.5464C31.1976 41.3999 31.1581 41.2285 31.1581 41.0322C31.1581 40.8447 31.1991 40.6675 31.2811 40.5005C31.3661 40.3335 31.4847 40.1855 31.6371 40.0566C31.7923 39.9277 31.9784 39.8267 32.1952 39.7534C32.412 39.6802 32.6537 39.6436 32.9203 39.6436C33.3011 39.6436 33.6263 39.7109 33.8959 39.8457C34.1654 39.9805 34.3719 40.1606 34.5155 40.3862C34.659 40.6089 34.7308 40.8564 34.7308 41.1289H33.9178C33.9178 40.9971 33.8783 40.8696 33.7992 40.7466C33.723 40.6206 33.6102 40.5166 33.4608 40.4346C33.3143 40.3525 33.1341 40.3115 32.9203 40.3115C32.6947 40.3115 32.5116 40.3467 32.371 40.417C32.2333 40.4844 32.1322 40.5708 32.0677 40.6763C32.0062 40.7817 31.9754 40.8931 31.9754 41.0103C31.9754 41.0981 31.9901 41.1772 32.0194 41.2476C32.0516 41.3149 32.1073 41.3779 32.1864 41.4365C32.2655 41.4922 32.3768 41.5449 32.5204 41.5947C32.6639 41.6445 32.847 41.6943 33.0697 41.7441C33.4593 41.832 33.7801 41.9375 34.0321 42.0605C34.284 42.1836 34.4715 42.3345 34.5946 42.5132C34.7176 42.6919 34.7792 42.9087 34.7792 43.1636C34.7792 43.3716 34.7352 43.562 34.6473 43.7349C34.5624 43.9077 34.4379 44.0571 34.2738 44.1831C34.1127 44.3062 33.9193 44.4028 33.6937 44.4731C33.4711 44.5405 33.2206 44.5742 32.9422 44.5742C32.5233 44.5742 32.1688 44.4995 31.8788 44.3501C31.5887 44.2007 31.369 44.0073 31.2196 43.77C31.0702 43.5327 30.9955 43.2822 30.9955 43.0186H31.8129C31.8246 43.2412 31.889 43.4185 32.0062 43.5503C32.1234 43.6792 32.267 43.7715 32.4369 43.8271C32.6068 43.8799 32.7753 43.9062 32.9422 43.9062C33.1649 43.9062 33.3509 43.877 33.5004 43.8184C33.6527 43.7598 33.7684 43.6792 33.8475 43.5767C33.9266 43.4741 33.9662 43.3569 33.9662 43.2251Z" fill="black"/>
<path d="M38.5256 43.2251C38.5256 43.1079 38.4992 42.9995 38.4465 42.8999C38.3967 42.7974 38.2927 42.7051 38.1345 42.623C37.9792 42.5381 37.7448 42.4648 37.4313 42.4033C37.1677 42.3477 36.9289 42.2817 36.715 42.2056C36.5041 42.1294 36.3239 42.0371 36.1745 41.9287C36.028 41.8203 35.9152 41.6929 35.8361 41.5464C35.757 41.3999 35.7175 41.2285 35.7175 41.0322C35.7175 40.8447 35.7585 40.6675 35.8405 40.5005C35.9255 40.3335 36.0441 40.1855 36.1965 40.0566C36.3518 39.9277 36.5378 39.8267 36.7546 39.7534C36.9714 39.6802 37.2131 39.6436 37.4797 39.6436C37.8605 39.6436 38.1857 39.7109 38.4553 39.8457C38.7248 39.9805 38.9313 40.1606 39.0749 40.3862C39.2185 40.6089 39.2902 40.8564 39.2902 41.1289H38.4772C38.4772 40.9971 38.4377 40.8696 38.3586 40.7466C38.2824 40.6206 38.1696 40.5166 38.0202 40.4346C37.8737 40.3525 37.6936 40.3115 37.4797 40.3115C37.2541 40.3115 37.071 40.3467 36.9304 40.417C36.7927 40.4844 36.6916 40.5708 36.6271 40.6763C36.5656 40.7817 36.5349 40.8931 36.5349 41.0103C36.5349 41.0981 36.5495 41.1772 36.5788 41.2476C36.611 41.3149 36.6667 41.3779 36.7458 41.4365C36.8249 41.4922 36.9362 41.5449 37.0798 41.5947C37.2233 41.6445 37.4064 41.6943 37.6291 41.7441C38.0187 41.832 38.3396 41.9375 38.5915 42.0605C38.8435 42.1836 39.031 42.3345 39.154 42.5132C39.2771 42.6919 39.3386 42.9087 39.3386 43.1636C39.3386 43.3716 39.2946 43.562 39.2067 43.7349C39.1218 43.9077 38.9973 44.0571 38.8332 44.1831C38.6721 44.3062 38.4787 44.4028 38.2531 44.4731C38.0305 44.5405 37.78 44.5742 37.5017 44.5742C37.0827 44.5742 36.7282 44.4995 36.4382 44.3501C36.1481 44.2007 35.9284 44.0073 35.779 43.77C35.6296 43.5327 35.5549 43.2822 35.5549 43.0186H36.3723C36.384 43.2412 36.4484 43.4185 36.5656 43.5503C36.6828 43.6792 36.8264 43.7715 36.9963 43.8271C37.1662 43.8799 37.3347 43.9062 37.5017 43.9062C37.7243 43.9062 37.9104 43.877 38.0598 43.8184C38.2121 43.7598 38.3278 43.6792 38.4069 43.5767C38.486 43.4741 38.5256 43.3569 38.5256 43.2251Z" fill="black"/>
</svg>
