<svg width="50" height="50" viewBox="0 0 50 50" fill="none" xmlns="http://www.w3.org/2000/svg">
<path d="M30.7678 22.367C30.7101 22.3377 30.2585 22.0702 29.5874 22.0702C28.6803 22.0702 28.051 22.7013 28.051 23.5533C28.051 24.3795 28.6532 25.0377 29.5874 25.0377C30.247 25.0377 30.7061 24.7755 30.7678 24.7426V26.235C30.5918 26.2839 30.1123 26.4328 29.4892 26.4328C27.911 26.4328 26.5256 25.3448 26.5256 23.5528C26.5256 21.8928 27.779 20.675 29.4892 20.675C30.147 20.675 30.635 20.8351 30.7678 20.8746V22.367ZM16.1221 22.367C16.0657 22.3377 15.6146 22.0702 14.9435 22.0702C14.0346 22.0702 13.4057 22.7013 13.4057 23.5533C13.4057 24.3795 14.0084 25.0377 14.9435 25.0377C15.603 25.0377 16.0617 24.7755 16.1221 24.7426V26.235C15.9479 26.2839 15.4688 26.4328 14.8421 26.4328C13.2653 26.4328 11.8817 25.3448 11.8817 23.5528C11.8817 21.8928 13.135 20.675 14.8426 20.675C15.503 20.675 15.9901 20.8351 16.1221 20.8746V22.367ZM35.1816 22.091C34.3492 22.091 33.7309 22.7461 33.7309 23.5533C33.7309 24.3621 34.3492 25.0168 35.1816 25.0168C36.0131 25.0168 36.6331 24.3621 36.6331 23.5533C36.6331 22.7461 36.0131 22.091 35.1816 22.091ZM38.1198 23.5533C38.1198 25.1439 36.8918 26.4328 35.182 26.4328C33.4714 26.4328 32.2452 25.1439 32.2452 23.5528C32.2452 21.9653 33.4718 20.675 35.1816 20.675C36.8918 20.675 38.1198 21.9653 38.1198 23.5533ZM24.775 22.0377C24.7541 22.0311 24.1634 21.8679 23.6781 21.8679C23.1159 21.8679 22.8101 22.0564 22.8101 22.3235C22.8101 22.6622 23.2225 22.7804 23.4532 22.8533L23.8403 22.9764C24.7514 23.2662 25.1661 23.8897 25.1661 24.567C25.1661 25.9639 23.9376 26.4332 22.8639 26.4332C22.1177 26.4332 21.4186 26.2955 21.3497 26.2812V25.0012C21.4732 25.0324 22.0617 25.2084 22.6745 25.2084C23.3728 25.2084 23.6937 25.0039 23.6937 24.6893C23.6937 24.4075 23.4159 24.2448 23.0679 24.1355C22.9834 24.107 22.8554 24.067 22.7683 24.0386C21.987 23.7915 21.3354 23.3319 21.3354 22.4119C21.3354 21.3719 22.1141 20.6737 23.4074 20.6737C24.0905 20.6737 24.7332 20.8395 24.775 20.8506V22.0377Z" fill="#049FD9"/>
<path d="M19.4538 26.3342H18.0507V20.7738H19.4538V26.3342Z" fill="#049FD9"/>
<path d="M10.3933 14.7984C10.3933 14.4153 10.0804 14.1047 9.69689 14.1047C9.31333 14.1047 9 14.4153 9 14.798V16.258C9.00459 16.4397 9.08 16.6125 9.21015 16.7394C9.3403 16.8663 9.51489 16.9373 9.69667 16.9373C9.87844 16.9373 10.053 16.8663 10.1832 16.7394C10.3133 16.6125 10.3887 16.4397 10.3933 16.258V14.7984ZM14.2195 12.8829C14.2195 12.6981 14.1461 12.5209 14.0155 12.3903C13.8848 12.2596 13.7076 12.1862 13.5229 12.1862C13.3381 12.1862 13.1609 12.2596 13.0303 12.3903C12.8996 12.5209 12.8262 12.6981 12.8262 12.8829V16.258C12.8262 16.4428 12.8996 16.62 13.0303 16.7506C13.1609 16.8813 13.3381 16.9547 13.5229 16.9547C13.7076 16.9547 13.8848 16.8813 14.0155 16.7506C14.1461 16.62 14.2195 16.4428 14.2195 16.258V12.8829ZM18.0462 10.2616C18.0462 9.87847 17.7333 9.56736 17.3497 9.56736C16.9657 9.56736 16.6529 9.87847 16.6529 10.2616V17.6451C16.6574 17.8268 16.7329 17.9995 16.863 18.1264C16.9932 18.2534 17.1677 18.3244 17.3495 18.3244C17.5313 18.3244 17.7059 18.2534 17.836 18.1264C17.9662 17.9995 18.0416 17.8268 18.0462 17.6451V10.2616ZM21.8724 12.8829C21.8724 12.6981 21.799 12.5209 21.6683 12.3903C21.5377 12.2596 21.3605 12.1862 21.1757 12.1862C20.9909 12.1862 20.8137 12.2596 20.6831 12.3903C20.5525 12.5209 20.4791 12.6981 20.4791 12.8829V16.258C20.4791 16.4428 20.5525 16.62 20.6831 16.7506C20.8137 16.8813 20.9909 16.9547 21.1757 16.9547C21.3605 16.9547 21.5377 16.8813 21.6683 16.7506C21.799 16.62 21.8724 16.4428 21.8724 16.258V12.8829ZM25.6946 14.7984C25.6947 14.6146 25.6218 14.4383 25.492 14.3082C25.3621 14.1781 25.1859 14.1049 25.0021 14.1047C24.8179 14.1045 24.6412 14.1775 24.5107 14.3074C24.3801 14.4374 24.3064 14.6138 24.3057 14.798V16.258C24.3057 16.4422 24.3789 16.6188 24.5091 16.749C24.6393 16.8793 24.816 16.9524 25.0001 16.9524C25.1843 16.9524 25.361 16.8793 25.4912 16.749C25.6214 16.6188 25.6946 16.4422 25.6946 16.258V14.7984ZM29.5226 12.8829C29.518 12.7018 29.4428 12.5296 29.3131 12.4031C29.1833 12.2766 29.0093 12.2058 28.8281 12.2058C28.6469 12.2058 28.4729 12.2766 28.3432 12.4031C28.2134 12.5296 28.1383 12.7018 28.1337 12.8829V16.258C28.1337 16.4422 28.2068 16.6188 28.3371 16.749C28.4673 16.8793 28.6439 16.9524 28.8281 16.9524C29.0123 16.9524 29.1889 16.8793 29.3192 16.749C29.4494 16.6188 29.5226 16.4422 29.5226 16.258V12.8829ZM33.3514 10.2616C33.3514 10.0774 33.2783 9.90077 33.148 9.77053C33.0178 9.6403 32.8412 9.56714 32.657 9.56714C32.4728 9.56714 32.2962 9.6403 32.1659 9.77053C32.0357 9.90077 31.9625 10.0774 31.9625 10.2616V17.6451C31.9584 17.7388 31.9734 17.8325 32.0064 17.9203C32.0395 18.0081 32.0899 18.0884 32.1548 18.1562C32.2197 18.2239 32.2977 18.2779 32.384 18.3148C32.4703 18.3516 32.5631 18.3706 32.657 18.3706C32.7508 18.3706 32.8437 18.3516 32.93 18.3148C33.0163 18.2779 33.0943 18.2239 33.1591 18.1562C33.224 18.0884 33.2745 18.0081 33.3076 17.9203C33.3406 17.8325 33.3555 17.7388 33.3514 17.6451V10.2616ZM37.1794 12.8829C37.1794 12.4994 36.8687 12.1878 36.4763 12.1878C36.2921 12.1879 36.1156 12.2611 35.9854 12.3914C35.8552 12.5217 35.7821 12.6983 35.7821 12.8824V16.258C35.7821 16.6433 36.0932 16.954 36.4763 16.954C36.8687 16.954 37.1794 16.6433 37.1794 16.258V12.8829ZM41.0003 14.7984C41.0003 14.6141 40.927 14.4373 40.7967 14.3069C40.6663 14.1766 40.4895 14.1033 40.3052 14.1033C40.1208 14.1033 39.944 14.1766 39.8137 14.3069C39.6833 14.4373 39.6101 14.6141 39.6101 14.7984V16.258C39.6101 16.6433 39.9216 16.9544 40.3052 16.9544C40.6883 16.9544 40.9998 16.6433 40.9998 16.258L41.0003 14.7984Z" fill="#049FD9"/>
<path d="M4.72656 30.3237V37.4331H3.78418V30.3237H4.72656ZM7.70508 33.522V34.2935H4.52148V33.522H7.70508ZM8.18848 30.3237V31.0952H4.52148V30.3237H8.18848Z" fill="#1C1D1F"/>
<path d="M10.1562 32.1499V37.4331H9.24805V32.1499H10.1562ZM9.17969 30.7485C9.17969 30.6021 9.22363 30.4784 9.31152 30.3774C9.40267 30.2765 9.53613 30.2261 9.71191 30.2261C9.88444 30.2261 10.0163 30.2765 10.1074 30.3774C10.2018 30.4784 10.249 30.6021 10.249 30.7485C10.249 30.8885 10.2018 31.009 10.1074 31.1099C10.0163 31.2075 9.88444 31.2563 9.71191 31.2563C9.53613 31.2563 9.40267 31.2075 9.31152 31.1099C9.22363 31.009 9.17969 30.8885 9.17969 30.7485Z" fill="#1C1D1F"/>
<path d="M12.5098 32.98V37.4331H11.6064V32.1499H12.4854L12.5098 32.98ZM14.1602 32.1206L14.1553 32.9604C14.0804 32.9442 14.0088 32.9344 13.9404 32.9312C13.8753 32.9246 13.8005 32.9214 13.7158 32.9214C13.5075 32.9214 13.3236 32.9539 13.1641 33.019C13.0046 33.0841 12.8695 33.1753 12.7588 33.2925C12.6481 33.4097 12.5602 33.5496 12.4951 33.7124C12.4333 33.8719 12.3926 34.0477 12.373 34.2397L12.1191 34.3862C12.1191 34.0672 12.1501 33.7677 12.2119 33.4878C12.277 33.2078 12.3763 32.9604 12.5098 32.7456C12.6432 32.5275 12.8125 32.3582 13.0176 32.2378C13.2259 32.1141 13.4733 32.0522 13.7598 32.0522C13.8249 32.0522 13.8997 32.0604 13.9844 32.0767C14.069 32.0897 14.1276 32.1043 14.1602 32.1206Z" fill="#1C1D1F"/>
<path d="M17.0898 37.5308C16.722 37.5308 16.3883 37.4689 16.0889 37.3452C15.7926 37.2183 15.5371 37.0409 15.3223 36.813C15.1107 36.5851 14.9479 36.3149 14.834 36.0024C14.7201 35.6899 14.6631 35.3481 14.6631 34.9771V34.772C14.6631 34.3423 14.7266 33.9598 14.8535 33.6245C14.9805 33.286 15.153 32.9995 15.3711 32.7651C15.5892 32.5308 15.8366 32.3534 16.1133 32.2329C16.39 32.1125 16.6764 32.0522 16.9727 32.0522C17.3503 32.0522 17.6758 32.1174 17.9492 32.2476C18.2259 32.3778 18.4521 32.5601 18.6279 32.7944C18.8037 33.0256 18.9339 33.299 19.0186 33.6147C19.1032 33.9272 19.1455 34.269 19.1455 34.6401V35.0454H15.2002V34.3081H18.2422V34.2397C18.2292 34.0054 18.1803 33.7775 18.0957 33.5562C18.0143 33.3348 17.8841 33.1525 17.7051 33.0093C17.526 32.866 17.2819 32.7944 16.9727 32.7944C16.7676 32.7944 16.5788 32.8384 16.4062 32.9263C16.2337 33.0109 16.0856 33.1379 15.9619 33.3071C15.8382 33.4764 15.7422 33.6831 15.6738 33.9272C15.6055 34.1714 15.5713 34.453 15.5713 34.772V34.9771C15.5713 35.2277 15.6055 35.4637 15.6738 35.6851C15.7454 35.9032 15.848 36.0952 15.9814 36.2612C16.1182 36.4272 16.2826 36.5575 16.4746 36.6519C16.6699 36.7463 16.8913 36.7935 17.1387 36.7935C17.4577 36.7935 17.7279 36.7284 17.9492 36.5981C18.1706 36.4679 18.3643 36.2938 18.5303 36.0757L19.0771 36.5103C18.9632 36.6828 18.8184 36.8472 18.6426 37.0034C18.4668 37.1597 18.2503 37.2866 17.9932 37.3843C17.7393 37.4819 17.4382 37.5308 17.0898 37.5308Z" fill="#1C1D1F"/>
<path d="M21.1035 33.1655V39.4644H20.1953V32.1499H21.0254L21.1035 33.1655ZM24.6631 34.7476V34.8501C24.6631 35.2342 24.6175 35.5907 24.5264 35.9194C24.4352 36.245 24.3018 36.5282 24.126 36.769C23.9535 37.0099 23.7402 37.1971 23.4863 37.3306C23.2324 37.464 22.9411 37.5308 22.6123 37.5308C22.277 37.5308 21.9808 37.4754 21.7236 37.3647C21.4665 37.2541 21.2484 37.0929 21.0693 36.8813C20.8903 36.6698 20.7471 36.4159 20.6396 36.1196C20.5355 35.8234 20.4639 35.4897 20.4248 35.1187V34.5718C20.4639 34.1812 20.5371 33.8312 20.6445 33.522C20.752 33.2127 20.8936 32.9491 21.0693 32.731C21.2484 32.5096 21.4648 32.342 21.7188 32.228C21.9727 32.1108 22.2656 32.0522 22.5977 32.0522C22.9297 32.0522 23.2243 32.1174 23.4814 32.2476C23.7386 32.3745 23.9551 32.5568 24.1309 32.7944C24.3066 33.0321 24.4385 33.3169 24.5264 33.6489C24.6175 33.9777 24.6631 34.3439 24.6631 34.7476ZM23.7549 34.8501V34.7476C23.7549 34.4839 23.7272 34.2365 23.6719 34.0054C23.6165 33.771 23.5303 33.5659 23.4131 33.3901C23.2992 33.2111 23.1527 33.0711 22.9736 32.9702C22.7946 32.866 22.5814 32.814 22.334 32.814C22.1061 32.814 21.9076 32.853 21.7383 32.9312C21.5723 33.0093 21.4307 33.1151 21.3135 33.2485C21.1963 33.3787 21.1003 33.5285 21.0254 33.6978C20.9538 33.8638 20.9001 34.0363 20.8643 34.2153V35.48C20.9294 35.7078 21.0205 35.9227 21.1377 36.1245C21.2549 36.3231 21.4111 36.4842 21.6064 36.6079C21.8018 36.7284 22.0475 36.7886 22.3438 36.7886C22.5879 36.7886 22.7979 36.7381 22.9736 36.6372C23.1527 36.533 23.2992 36.3914 23.4131 36.2124C23.5303 36.0334 23.6165 35.8283 23.6719 35.5972C23.7272 35.3628 23.7549 35.1138 23.7549 34.8501Z" fill="#1C1D1F"/>
<path d="M25.5762 34.8501V34.7378C25.5762 34.3569 25.6315 34.0037 25.7422 33.6782C25.8529 33.3494 26.0124 33.0646 26.2207 32.8237C26.429 32.5796 26.6813 32.3908 26.9775 32.2573C27.2738 32.1206 27.6058 32.0522 27.9736 32.0522C28.3447 32.0522 28.6784 32.1206 28.9746 32.2573C29.2741 32.3908 29.528 32.5796 29.7363 32.8237C29.9479 33.0646 30.109 33.3494 30.2197 33.6782C30.3304 34.0037 30.3857 34.3569 30.3857 34.7378V34.8501C30.3857 35.231 30.3304 35.5841 30.2197 35.9097C30.109 36.2352 29.9479 36.52 29.7363 36.7642C29.528 37.005 29.2757 37.1938 28.9795 37.3306C28.6865 37.464 28.3545 37.5308 27.9834 37.5308C27.6123 37.5308 27.2786 37.464 26.9824 37.3306C26.6862 37.1938 26.4323 37.005 26.2207 36.7642C26.0124 36.52 25.8529 36.2352 25.7422 35.9097C25.6315 35.5841 25.5762 35.231 25.5762 34.8501ZM26.4795 34.7378V34.8501C26.4795 35.1138 26.5104 35.3628 26.5723 35.5972C26.6341 35.8283 26.7269 36.0334 26.8506 36.2124C26.9775 36.3914 27.1354 36.533 27.3242 36.6372C27.513 36.7381 27.7327 36.7886 27.9834 36.7886C28.2308 36.7886 28.4473 36.7381 28.6328 36.6372C28.8216 36.533 28.9779 36.3914 29.1016 36.2124C29.2253 36.0334 29.318 35.8283 29.3799 35.5972C29.445 35.3628 29.4775 35.1138 29.4775 34.8501V34.7378C29.4775 34.4774 29.445 34.2316 29.3799 34.0005C29.318 33.7661 29.2236 33.5594 29.0967 33.3804C28.973 33.1981 28.8167 33.0549 28.6279 32.9507C28.4424 32.8465 28.2243 32.7944 27.9736 32.7944C27.7262 32.7944 27.5081 32.8465 27.3193 32.9507C27.1338 33.0549 26.9775 33.1981 26.8506 33.3804C26.7269 33.5594 26.6341 33.7661 26.5723 34.0005C26.5104 34.2316 26.4795 34.4774 26.4795 34.7378Z" fill="#1C1D1F"/>
<path d="M32.8564 36.4956L34.2139 32.1499H34.8096L34.6924 33.0142L33.3105 37.4331H32.7295L32.8564 36.4956ZM31.9434 32.1499L33.1006 36.5444L33.1836 37.4331H32.5732L31.04 32.1499H31.9434ZM36.1084 36.5103L37.2119 32.1499H38.1104L36.5771 37.4331H35.9717L36.1084 36.5103ZM34.9414 32.1499L36.2695 36.4224L36.4209 37.4331H35.8447L34.4238 33.0044L34.3066 32.1499H34.9414Z" fill="#1C1D1F"/>
<path d="M41.2305 37.5308C40.8626 37.5308 40.529 37.4689 40.2295 37.3452C39.9333 37.2183 39.6777 37.0409 39.4629 36.813C39.2513 36.5851 39.0885 36.3149 38.9746 36.0024C38.8607 35.6899 38.8037 35.3481 38.8037 34.9771V34.772C38.8037 34.3423 38.8672 33.9598 38.9941 33.6245C39.1211 33.286 39.2936 32.9995 39.5117 32.7651C39.7298 32.5308 39.9772 32.3534 40.2539 32.2329C40.5306 32.1125 40.8171 32.0522 41.1133 32.0522C41.4909 32.0522 41.8164 32.1174 42.0898 32.2476C42.3665 32.3778 42.5928 32.5601 42.7686 32.7944C42.9443 33.0256 43.0745 33.299 43.1592 33.6147C43.2438 33.9272 43.2861 34.269 43.2861 34.6401V35.0454H39.3408V34.3081H42.3828V34.2397C42.3698 34.0054 42.321 33.7775 42.2363 33.5562C42.1549 33.3348 42.0247 33.1525 41.8457 33.0093C41.6667 32.866 41.4225 32.7944 41.1133 32.7944C40.9082 32.7944 40.7194 32.8384 40.5469 32.9263C40.3743 33.0109 40.2262 33.1379 40.1025 33.3071C39.9788 33.4764 39.8828 33.6831 39.8145 33.9272C39.7461 34.1714 39.7119 34.453 39.7119 34.772V34.9771C39.7119 35.2277 39.7461 35.4637 39.8145 35.6851C39.8861 35.9032 39.9886 36.0952 40.1221 36.2612C40.2588 36.4272 40.4232 36.5575 40.6152 36.6519C40.8105 36.7463 41.0319 36.7935 41.2793 36.7935C41.5983 36.7935 41.8685 36.7284 42.0898 36.5981C42.3112 36.4679 42.5049 36.2938 42.6709 36.0757L43.2178 36.5103C43.1038 36.6828 42.959 36.8472 42.7832 37.0034C42.6074 37.1597 42.3909 37.2866 42.1338 37.3843C41.8799 37.4819 41.5788 37.5308 41.2305 37.5308Z" fill="#1C1D1F"/>
<path d="M45.2441 32.98V37.4331H44.3408V32.1499H45.2197L45.2441 32.98ZM46.8945 32.1206L46.8896 32.9604C46.8148 32.9442 46.7432 32.9344 46.6748 32.9312C46.6097 32.9246 46.5348 32.9214 46.4502 32.9214C46.2419 32.9214 46.0579 32.9539 45.8984 33.019C45.7389 33.0841 45.6038 33.1753 45.4932 33.2925C45.3825 33.4097 45.2946 33.5496 45.2295 33.7124C45.1676 33.8719 45.127 34.0477 45.1074 34.2397L44.8535 34.3862C44.8535 34.0672 44.8844 33.7677 44.9463 33.4878C45.0114 33.2078 45.1107 32.9604 45.2441 32.7456C45.3776 32.5275 45.5469 32.3582 45.752 32.2378C45.9603 32.1141 46.2077 32.0522 46.4941 32.0522C46.5592 32.0522 46.6341 32.0604 46.7188 32.0767C46.8034 32.0897 46.862 32.1043 46.8945 32.1206Z" fill="#1C1D1F"/>
</svg>
