<svg width="50" height="50" viewBox="0 0 50 50" fill="none" xmlns="http://www.w3.org/2000/svg">
<path d="M38.0619 22.6344C38.1443 22.3195 38.294 22.0084 38.2977 21.6935C38.3202 19.7182 38.3089 17.7448 38.3089 15.6951H41.6176V24.665C40.2926 24.6345 39.3083 23.7947 38.2491 23.1611C38.1237 23.0905 38.1199 22.808 38.0619 22.6344Z" fill="#23238F"/>
<path d="M38.3726 26.5563C38.337 26.3406 38.3015 26.125 38.2603 25.8635L36.5517 25.7623C36.3814 25.5715 36.2467 25.3119 36.0371 25.1898C35.0471 24.6173 34.016 24.1325 33.0429 23.5409C32.7359 23.35 32.5619 22.9397 32.328 22.6305H35.5299C35.8032 22.9874 36.0128 23.4416 36.3608 23.6802C37.0595 24.1463 37.7935 24.5548 38.556 24.9016C39.559 25.373 40.5939 25.7757 41.6138 26.2089C41.6138 26.7242 41.6138 27.2414 41.6138 27.7567C40.9663 27.5315 40.3151 27.312 39.6713 27.0754C39.2372 26.9151 38.8067 26.7299 38.3726 26.5563Z" fill="#243493"/>
<path d="M24.6029 20.6935C24.5336 20.85 24.4999 21.1095 24.3914 21.1496C23.4969 21.4645 22.5893 21.7393 21.633 22.0428C20.7871 19.3709 18.8802 18.4319 16.322 18.5502C16.0913 18.296 15.841 18.0612 15.5734 17.8479C14.7481 17.2868 13.9023 16.7582 13.0639 16.2162L14.9559 15.5406C15.2328 15.8555 15.4518 16.2772 15.7942 16.4681C18.4441 17.944 21.1102 19.3868 23.7926 20.7965C23.9909 20.8996 24.3296 20.7335 24.6029 20.6935Z" fill="#2B549D"/>
<path d="M9.23876 28.4992L8.62869 26.8922C9.85819 27.4781 11.0765 28.085 12.3209 28.6327C12.7364 28.814 13.2155 28.8427 13.6665 28.9419L15.9683 29.9973C16.0881 30.2282 16.1554 30.5355 16.3426 30.6767C16.7393 30.9764 17.2071 31.1767 17.6301 31.4401C18.3786 31.9115 19.1066 32.3944 19.8439 32.8829L18.854 33.1215C18.5545 32.9879 18.2458 32.8715 17.9576 32.7188C15.4518 31.3829 12.9553 30.0469 10.4383 28.7358C10.0865 28.5602 9.63924 28.5755 9.23876 28.4992Z" fill="#18CEBC"/>
<path d="M24.6029 20.6935C24.3296 20.7335 23.9909 20.9015 23.7926 20.7965C21.1127 19.3804 18.4466 17.9376 15.7942 16.4681C15.4518 16.2772 15.2328 15.8555 14.9559 15.5406L16.8085 15.3126C16.9863 15.5378 17.1192 15.8393 17.3475 15.9748C18.4703 16.6466 19.6156 17.3107 20.7909 17.9062C21.8557 18.4367 22.9748 18.8604 24.0714 19.328C24.2473 19.7822 24.4245 20.238 24.6029 20.6935Z" fill="#284799"/>
<path d="M32.3299 22.6325C32.5638 22.9417 32.7378 23.3558 33.0447 23.5428C34.016 24.1345 35.0471 24.6269 36.0389 25.1918C36.2485 25.312 36.3833 25.5735 36.5536 25.7643H34.3547C34.2087 25.5735 34.1002 25.333 33.913 25.2261C32.5769 24.4627 31.2332 23.7127 29.8765 22.9894C29.1429 22.6077 28.3793 22.2699 27.6308 21.913V20.7087C27.8797 20.8099 28.1267 20.9091 28.3793 21.0122L30.9207 22.0848C31.0854 22.2546 31.222 22.5084 31.4204 22.5752C31.6954 22.663 32.0211 22.6172 32.3299 22.6325Z" fill="#2C4398"/>
<path d="M27.6289 17.783V15.6837H30.9132V19.1647C30.5137 19.097 30.1205 18.9949 29.738 18.8594C29.0194 18.533 28.3307 18.1437 27.6289 17.783Z" fill="#272892"/>
<path d="M24.0714 19.328C22.9748 18.8585 21.8557 18.4367 20.7909 17.9062C19.6156 17.3184 18.4797 16.6466 17.3475 15.9748C17.1192 15.8393 16.9863 15.5378 16.8085 15.3126C19.7728 15.0053 22.855 16.7096 24.0714 19.328Z" fill="#294097"/>
<path d="M17.6656 33.2875C14.4019 33.6348 11.0184 31.9744 9.67478 29.3617C10.2774 29.5831 10.908 29.7434 11.4769 30.0373C13.5523 31.0965 15.6052 32.1996 17.6656 33.2875Z" fill="#13DCC0"/>
<path d="M41.6157 26.2108C40.5958 25.7776 39.5572 25.3749 38.5578 24.9035C37.7954 24.5567 37.0613 24.1482 36.3627 23.6821C36.0146 23.4435 35.8013 22.9893 35.5318 22.6324H38.0619C38.1199 22.8137 38.1237 23.0886 38.2491 23.1611C39.3139 23.7947 40.2982 24.6345 41.6176 24.665C41.6157 25.1822 41.6157 25.6955 41.6157 26.2108Z" fill="#222B91"/>
<path d="M17.6656 33.2875C15.6071 32.1996 13.5486 31.0966 11.4769 30.0431C10.9155 29.7511 10.2774 29.5889 9.67479 29.3675V29.356L9.24437 28.5926C9.23367 28.5799 9.22676 28.5644 9.22443 28.5478C9.22211 28.5312 9.22448 28.5144 9.23127 28.4991C9.62988 28.5755 10.0771 28.5602 10.4252 28.7396C12.9422 30.0469 15.4387 31.3943 17.9445 32.7226C18.2327 32.8753 18.5414 32.9917 18.8409 33.1253L17.6656 33.2875Z" fill="#16D4BE"/>
<path d="M27.6289 21.911C28.3775 22.2679 29.1429 22.5981 29.8746 22.9874C31.2313 23.7107 32.575 24.4607 33.9112 25.2241C34.0983 25.331 34.2069 25.5791 34.3528 25.7623H32.4983C32.328 25.5715 32.1932 25.3081 31.9818 25.1898C31.1003 24.705 30.1965 24.2661 29.3019 23.808C28.7405 23.5218 28.1791 23.2355 27.6289 22.9416V21.911Z" fill="#284799"/>
<path d="M27.6308 22.9416C28.1922 23.2298 28.7536 23.5141 29.3038 23.808C30.1983 24.2661 31.1022 24.705 31.9837 25.1898C32.1951 25.3062 32.3299 25.5715 32.5002 25.7623L30.9712 25.8654L30.1497 25.8806L29.1055 25.5161L28.4636 25.0199L28.1005 24.8291L27.6214 24.4932C27.6252 23.9722 27.6271 23.4569 27.6308 22.9416Z" fill="#29509B"/>
<path d="M13.6665 28.9419C13.2155 28.8427 12.7308 28.814 12.3209 28.6327C11.0765 28.085 9.85819 27.4781 8.62869 26.8922C8.5426 26.3788 8.45447 25.8673 8.36839 25.3539C9.19367 25.8158 10.0133 26.2891 10.8461 26.7357C11.2485 26.9513 11.6751 27.2968 12.0831 26.7357L13.6665 28.9419Z" fill="#1DC6BB"/>
<path d="M12.0833 26.73C11.6753 27.3025 11.2486 26.9513 10.8463 26.73C10.0135 26.2834 9.19385 25.8101 8.36856 25.3482C8.35733 24.8234 8.34424 24.3005 8.33301 23.7775C9.46894 24.2985 10.3747 25.3406 11.7389 25.3463L12.0833 26.73Z" fill="#23BBB8"/>
<path d="M19.8402 32.8867C19.1029 32.4038 18.3712 31.9153 17.6263 31.4439C17.2034 31.1767 16.7356 30.9763 16.3388 30.6805C16.1517 30.5393 16.0881 30.232 15.9645 30.0011L18.3319 29.9553C18.068 30.3999 18.2102 30.6404 18.6575 30.8713C19.4715 31.2931 20.2463 31.7931 21.036 32.2607L19.8402 32.8867Z" fill="#22C6BB"/>
<path d="M38.3726 26.5563C38.8067 26.7299 39.2372 26.9151 39.6826 27.0773C40.3263 27.314 40.9776 27.5334 41.6251 27.7586V29.4763C41.1524 29.3522 40.6864 29.2032 40.229 29.0297C39.5983 28.753 38.9939 28.4132 38.3782 28.1003C38.3707 27.5888 38.3726 27.0716 38.3726 26.5563Z" fill="#254096"/>
<path d="M28.1005 24.8215L28.4636 25.0123C28.6769 25.1777 28.8909 25.3431 29.1054 25.5085L30.1497 25.8731L30.9244 26.2128C30.9244 26.6683 30.9201 27.1231 30.9113 27.5773C30.4454 27.5029 29.9513 27.5048 29.5228 27.335C28.8772 27.0499 28.2464 26.7314 27.6327 26.3807C27.6327 25.8718 27.6283 25.3571 27.6196 24.8368L28.1005 24.8215Z" fill="#2864A1"/>
<path d="M30.9132 22.0809L28.3719 21.0083C28.1248 20.9053 27.8778 20.806 27.6233 20.7049V19.1571C27.8647 19.2678 28.1024 19.3842 28.3457 19.4854C29.1965 19.8391 30.0492 20.1883 30.9038 20.5331C30.9113 21.0484 30.9113 21.5656 30.9132 22.0809Z" fill="#243493"/>
<path d="M11.7389 25.352C10.3747 25.352 9.46894 24.3043 8.33301 23.7832C8.40599 23.2107 8.4771 22.6496 8.55009 22.0847C9.06659 23.0237 10.8463 23.9932 11.7034 23.8023L11.7389 25.352Z" fill="#26ADB4"/>
<path d="M21.0397 32.2569C20.25 31.7893 19.4753 31.2893 18.6612 30.8676C18.2139 30.6366 18.0717 30.3962 18.3356 29.9515L19.5183 29.4877C19.781 29.7939 20.0663 30.0791 20.3717 30.3408C20.9705 30.7817 21.6087 31.1691 22.23 31.5794L21.0397 32.2569Z" fill="#23BBB8"/>
<path d="M13.0639 16.2162C13.9023 16.7582 14.7481 17.2868 15.5734 17.8479C15.841 18.0612 16.0913 18.296 16.322 18.5502L14.7874 18.9681C14.5798 18.7256 14.3505 18.5033 14.1025 18.304C13.3839 17.8211 12.6391 17.3765 11.9036 16.9165L13.0639 16.2162Z" fill="#2B60A0"/>
<path d="M30.9113 20.5331C30.058 20.1857 29.2052 19.8365 28.3531 19.4853C28.1099 19.3842 27.8722 19.2678 27.6308 19.1571C27.6308 18.699 27.6308 18.241 27.6308 17.783C28.3326 18.1437 29.0212 18.533 29.7398 18.8536C30.1224 18.9891 30.5156 19.0913 30.9151 19.159C30.9126 19.617 30.9113 20.075 30.9113 20.5331Z" fill="#222B91"/>
<path d="M38.3707 28.104C38.9864 28.417 39.5909 28.7567 40.2215 29.0335C40.6789 29.2069 41.1449 29.356 41.6176 29.48V30.8542C41.1842 30.779 40.7565 30.6732 40.3375 30.5373C39.6694 30.2778 39.0276 29.9495 38.3707 29.6518V28.104Z" fill="#29509B"/>
<path d="M22.2206 31.5699C21.5993 31.1596 20.9612 30.7721 20.3623 30.3313C20.0605 30.0722 19.7784 29.7902 19.5183 29.4877L20.2818 28.9476C20.4989 29.0602 20.7085 29.19 20.9312 29.2873C21.7602 29.6499 22.5949 30.0011 23.4277 30.358C23.0234 30.76 22.6211 31.164 22.2206 31.5699Z" fill="#26ADB4"/>
<path d="M27.6289 31.0241C27.6289 30.6805 27.6289 30.337 27.6289 29.9935C27.9527 30.129 28.2727 30.276 28.602 30.3943C29.3674 30.671 30.1366 30.9325 30.9057 31.1997C30.9057 31.5985 30.9057 31.9993 30.9057 32.3982L30.2863 32.7074L27.6289 31.0241Z" fill="#2995AE"/>
<path d="M11.7023 23.8043C10.8452 23.9951 9.0655 23.0237 8.54899 22.0867C8.6488 21.7355 8.74923 21.3856 8.85029 21.037C9.69054 21.8996 10.615 22.5924 11.8801 22.6L11.7023 23.8043Z" fill="#27A1B1"/>
<path d="M27.6327 28.7892V27.5792C27.8797 27.6804 28.1267 27.7796 28.3719 27.8827L30.9095 28.9572C30.9095 29.3579 30.9095 29.7568 30.9095 30.1576C30.5183 30.0679 30.0992 30.0354 29.7398 29.8732C29.0194 29.5545 28.3326 29.1575 27.6327 28.7892Z" fill="#287BA7"/>
<path d="M38.3707 29.6518C39.0257 29.9495 39.6694 30.2778 40.3375 30.5373C40.7565 30.6732 41.1842 30.779 41.6176 30.8542C41.6176 31.3141 41.6176 31.7722 41.6176 32.2302C41.2447 32.1562 40.8781 32.0528 40.5209 31.921C39.793 31.5947 39.0893 31.213 38.3744 30.8561C38.3732 30.4528 38.372 30.0513 38.3707 29.6518Z" fill="#27589D"/>
<path d="M38.3726 30.8561C39.0875 31.213 39.7911 31.5947 40.5191 31.9211C40.8762 32.0528 41.2429 32.1562 41.6157 32.2302C41.7654 32.7818 41.5895 33.0108 41.0038 32.9936C40.1467 32.9554 39.2858 32.9841 38.3726 32.9841V30.8561Z" fill="#2864A1"/>
<path d="M30.9095 28.9629L28.3719 27.8884C28.1267 27.7853 27.8797 27.6861 27.6327 27.5849L27.6327 26.3807C28.2464 26.7314 28.8772 27.0499 29.5228 27.335C29.9513 27.5048 30.4454 27.5029 30.9113 27.5773C30.9101 28.0417 30.9095 28.5036 30.9095 28.9629Z" fill="#2A6EA4"/>
<path d="M11.9036 16.9165C12.6391 17.3765 13.3839 17.8211 14.1025 18.304C14.3505 18.5033 14.5798 18.7256 14.7874 18.9681L13.7993 19.5636C13.1724 19.1723 12.5174 18.8193 11.928 18.3746C11.636 18.1532 11.4676 17.762 11.2449 17.4471L11.9036 16.9165Z" fill="#2A6AA2"/>
<path d="M12.5942 20.869L12.1413 21.7564L9.19946 20.1819C9.35666 19.8918 9.51323 19.6011 9.66918 19.3098L12.5942 20.869Z" fill="#2A89AB"/>
<path d="M23.4183 30.3484C22.5855 29.9916 21.7509 29.6404 20.9219 29.2778C20.6992 29.1805 20.4896 29.0507 20.2725 28.9381C20.5663 28.5945 20.8582 28.251 21.152 27.9094L23.8955 29.6518L23.4183 30.3484Z" fill="#27A1B1"/>
<path d="M21.5207 27.2376L21.7808 26.4952L24.906 27.459C24.7189 27.8979 24.5729 28.2739 24.4176 28.6499L21.5207 27.2376Z" fill="#2F90AE"/>
<path d="M27.6327 28.7892C28.3326 29.1575 29.0194 29.5526 29.738 29.879C30.0973 30.0412 30.5165 30.0698 30.9076 30.1633C30.9076 30.5088 30.9076 30.8542 30.9076 31.1996C30.1384 30.9325 29.3693 30.671 28.6039 30.3943C28.2745 30.2759 27.9545 30.129 27.6308 29.9935L27.6327 28.7892Z" fill="#2A89AB"/>
<path d="M12.5942 20.869L9.66918 19.3098L10.5731 18.1227C10.7733 18.4261 10.908 18.8403 11.1869 19.0082C11.8659 19.381 12.563 19.7186 13.2753 20.0197L12.5942 20.869Z" fill="#287BA7"/>
<path d="M27.6289 31.0241L30.2919 32.7074L30.9113 32.3982C30.7747 32.6005 30.6456 32.9707 30.4959 32.9803C29.5602 33.0337 28.6245 33.007 27.6289 33.007V31.0241Z" fill="#369CB4"/>
<path d="M9.19572 20.1819L12.1375 21.7564C12.0515 22.037 11.9672 22.3175 11.8812 22.5981C10.6161 22.5981 9.69164 21.8977 8.85138 21.035L9.19572 20.1819Z" fill="#2995AE"/>
<path d="M13.2716 20.0198C12.5592 19.7186 11.8622 19.381 11.1831 19.0083C10.9043 18.8403 10.7696 18.4262 10.5693 18.1227L11.2468 17.4395C11.4695 17.7544 11.6379 18.1456 11.9298 18.367C12.5174 18.8117 13.1724 19.1648 13.8012 19.556L13.2716 20.0198Z" fill="#2A6EA4"/>
<path d="M21.5207 27.2376L24.4176 28.6499L23.8955 29.6518L21.152 27.9094L21.5207 27.2376Z" fill="#2995AE"/>
<path d="M30.9338 26.2185L30.159 25.8788L30.9806 25.8635L30.9338 26.2185Z" fill="#4970AC"/>
<path d="M28.1005 24.8215L27.6196 24.8368V24.4856L28.1005 24.8215Z" fill="#4970AC"/>
</svg>
