<svg width="50" height="50" viewBox="0 0 50 50" fill="none" xmlns="http://www.w3.org/2000/svg">
<path d="M15.1976 6.88889C15.1976 5.2934 16.4515 4 17.9982 4H27.2205C27.5919 4 27.948 4.15218 28.2106 4.42307L34.392 10.7992C34.6546 11.07 34.8021 11.4374 34.8021 11.8205V27.1111C34.8021 28.7066 33.5482 30 32.0015 30H17.9982C16.4515 30 15.1976 28.7066 15.1976 27.1111V6.88889Z" fill="white"/>
<path fill-rule="evenodd" clip-rule="evenodd" d="M27.2205 4C27.5919 4 27.948 4.15218 28.2106 4.42307L34.392 10.7992C34.6546 11.07 34.8021 11.4374 34.8021 11.8205V27.1111C34.8021 28.7066 33.5482 30 32.0015 30H17.9982C16.4515 30 15.1976 28.7066 15.1976 27.1111V6.88889C15.1976 5.2934 16.4515 4 17.9982 4H27.2205ZM27.1003 9.05556C27.1003 10.651 28.3542 11.9444 29.901 11.9444H34.1019V27.1111C34.1019 28.3077 33.1615 29.2778 32.0015 29.2778H17.9982C16.8382 29.2778 15.8977 28.3077 15.8977 27.1111V6.88889C15.8977 5.69227 16.8382 4.72222 17.9982 4.72222H27.1003V9.05556ZM27.8005 9.05556C27.8005 10.2522 28.7409 11.2222 29.901 11.2222H33.8119L27.8005 5.02141V9.05556Z" fill="#AEB7CC"/>
<path d="M35.5157 25.9073C35.9093 25.9068 36.2865 25.7482 36.5648 25.4661C36.843 25.184 36.9996 24.8016 37 24.4027V16.8193C36.9996 16.4204 36.843 16.038 36.5648 15.7559C36.2865 15.4738 35.9093 15.3151 35.5157 15.3147H14.4843C14.0907 15.3151 13.7135 15.4738 13.4352 15.7559C13.157 16.038 13.0004 16.4204 13 16.8193V24.4027C13.0004 24.8016 13.157 25.184 13.4352 25.4661C13.7135 25.7482 14.0907 25.9068 14.4843 25.9073H35.5157ZM29.2437 17.6128L30.7226 21.9971L32.1536 17.6128H33.4046L31.312 23.5373H30.0524L27.9637 17.6128H29.2437ZM26.2273 21.4573C26.1099 21.3362 25.9637 21.2478 25.8028 21.2008C25.6645 21.1523 25.3496 21.0661 24.8581 20.9422C24.2255 20.7833 23.7817 20.588 23.5267 20.3563C23.3561 20.2099 23.2195 20.0272 23.1265 19.8211C23.0335 19.6151 22.9864 19.3909 22.9886 19.1643C22.9886 18.863 23.0767 18.5685 23.2417 18.3179C23.4194 18.0478 23.6738 17.8386 23.9712 17.718C24.337 17.5712 24.7283 17.5009 25.1215 17.5111C25.855 17.5111 26.4071 17.6741 26.7778 18.0001C26.9616 18.1625 27.1089 18.3631 27.2096 18.5883C27.3104 18.8135 27.3622 19.0579 27.3616 19.3052L26.1818 19.3576C26.1582 19.1054 26.0423 18.8712 25.857 18.7011C25.6368 18.5519 25.3738 18.4816 25.1096 18.5011C24.8257 18.4847 24.5438 18.5596 24.3044 18.7153C24.2453 18.7558 24.1972 18.8107 24.1644 18.8749C24.1317 18.9392 24.1154 19.0107 24.117 19.083C24.1172 19.1526 24.1331 19.2212 24.1635 19.2835C24.1939 19.3458 24.238 19.4003 24.2924 19.4426C24.4408 19.5693 24.8022 19.7013 25.3766 19.8386C25.8161 19.9296 26.2436 20.0727 26.6501 20.2649C26.9152 20.4025 27.1384 20.6105 27.2958 20.8668C27.4563 21.1582 27.5368 21.488 27.5287 21.8217C27.5207 22.1554 27.4244 22.4808 27.25 22.7639C27.0615 23.0624 26.7854 23.2934 26.4607 23.4247C26.0549 23.5805 25.6228 23.6539 25.1891 23.6408C24.4503 23.6408 23.8829 23.4677 23.487 23.1215C23.0678 22.7279 22.8138 22.1862 22.7775 21.6082L23.9256 21.4953C23.9628 21.8231 24.1116 22.1274 24.3462 22.356C24.5888 22.5498 24.8927 22.6475 25.2011 22.6308C25.5068 22.6533 25.8107 22.5668 26.0601 22.3863C26.1483 22.3198 26.2202 22.2336 26.2703 22.1345C26.3204 22.0354 26.3474 21.9259 26.3492 21.8145C26.3524 21.6845 26.3091 21.5576 26.2273 21.4573ZM17.6861 18.33C17.9395 18.058 18.2474 17.8443 18.5892 17.7031C18.9309 17.562 19.2985 17.4967 19.6672 17.5116C20.3088 17.4841 20.9351 17.7151 21.4092 18.1541C21.7024 18.4561 21.909 18.8331 22.0072 19.245L20.8392 19.5271C20.7852 19.2394 20.6312 18.9809 20.4052 18.7985C20.1792 18.6161 19.8962 18.522 19.6075 18.5331C19.408 18.5266 19.2096 18.5658 19.0271 18.6476C18.8446 18.7295 18.6826 18.8519 18.5531 19.0059C18.2833 19.3212 18.1485 19.8317 18.1485 20.5375C18.1485 21.2864 18.2813 21.8198 18.547 22.1376C18.6725 22.2919 18.8311 22.4151 19.0107 22.4977C19.1903 22.5803 19.3862 22.6203 19.5834 22.6144C19.8811 22.6203 20.1701 22.5121 20.3925 22.3114C20.6485 22.0526 20.8185 21.7193 20.8788 21.3579L22.0228 21.7255C21.8976 22.2911 21.5896 22.7981 21.1478 23.166C20.6963 23.4935 20.1499 23.6589 19.5952 23.6362C19.2381 23.6474 18.8828 23.5813 18.5529 23.4423C18.223 23.3033 17.9261 23.0946 17.682 22.8301C17.1825 22.2927 16.9327 21.558 16.9327 20.6259C16.9328 19.6408 17.1839 18.8755 17.6861 18.33Z" fill="#A36BAE"/>
<path d="M9.3418 42.2334V43H5.57715V42.2334H9.3418ZM5.76758 35.8906V43H4.8252V35.8906H5.76758ZM8.84375 38.9473V39.7139H5.57715V38.9473H8.84375ZM9.29297 35.8906V36.6621H5.57715V35.8906H9.29297Z" fill="black"/>
<path d="M10.9824 37.7168L12.1396 39.6406L13.3115 37.7168H14.3711L12.6426 40.3242L14.4248 43H13.3799L12.1592 41.0176L10.9385 43H9.88867L11.666 40.3242L9.94238 37.7168H10.9824Z" fill="black"/>
<path d="M16.2363 38.7324V45.0312H15.3281V37.7168H16.1582L16.2363 38.7324ZM19.7959 40.3145V40.417C19.7959 40.8011 19.7503 41.1576 19.6592 41.4863C19.568 41.8118 19.4346 42.0951 19.2588 42.3359C19.0863 42.5768 18.873 42.764 18.6191 42.8975C18.3652 43.0309 18.0739 43.0977 17.7451 43.0977C17.4098 43.0977 17.1136 43.0423 16.8564 42.9316C16.5993 42.821 16.3812 42.6598 16.2021 42.4482C16.0231 42.2367 15.8799 41.9827 15.7725 41.6865C15.6683 41.3903 15.5967 41.0566 15.5576 40.6855V40.1387C15.5967 39.748 15.6699 39.3981 15.7773 39.0889C15.8848 38.7796 16.0264 38.516 16.2021 38.2979C16.3812 38.0765 16.5977 37.9089 16.8516 37.7949C17.1055 37.6777 17.3984 37.6191 17.7305 37.6191C18.0625 37.6191 18.3571 37.6842 18.6143 37.8145C18.8714 37.9414 19.0879 38.1237 19.2637 38.3613C19.4395 38.599 19.5713 38.8838 19.6592 39.2158C19.7503 39.5446 19.7959 39.9108 19.7959 40.3145ZM18.8877 40.417V40.3145C18.8877 40.0508 18.86 39.8034 18.8047 39.5723C18.7493 39.3379 18.6631 39.1328 18.5459 38.957C18.432 38.778 18.2855 38.638 18.1064 38.5371C17.9274 38.4329 17.7142 38.3809 17.4668 38.3809C17.2389 38.3809 17.0404 38.4199 16.8711 38.498C16.7051 38.5762 16.5635 38.682 16.4463 38.8154C16.3291 38.9456 16.2331 39.0954 16.1582 39.2646C16.0866 39.4307 16.0329 39.6032 15.9971 39.7822V41.0469C16.0622 41.2747 16.1533 41.4896 16.2705 41.6914C16.3877 41.89 16.5439 42.0511 16.7393 42.1748C16.9346 42.2952 17.1803 42.3555 17.4766 42.3555C17.7207 42.3555 17.9307 42.305 18.1064 42.2041C18.2855 42.0999 18.432 41.9583 18.5459 41.7793C18.6631 41.6003 18.7493 41.3952 18.8047 41.1641C18.86 40.9297 18.8877 40.6807 18.8877 40.417Z" fill="black"/>
<path d="M23.1406 43.0977C22.7728 43.0977 22.4391 43.0358 22.1396 42.9121C21.8434 42.7852 21.5879 42.6077 21.373 42.3799C21.1615 42.152 20.9987 41.8818 20.8848 41.5693C20.7708 41.2568 20.7139 40.915 20.7139 40.5439V40.3389C20.7139 39.9092 20.7773 39.5267 20.9043 39.1914C21.0312 38.8529 21.2038 38.5664 21.4219 38.332C21.64 38.0977 21.8874 37.9202 22.1641 37.7998C22.4408 37.6794 22.7272 37.6191 23.0234 37.6191C23.401 37.6191 23.7266 37.6842 24 37.8145C24.2767 37.9447 24.5029 38.127 24.6787 38.3613C24.8545 38.5924 24.9847 38.8659 25.0693 39.1816C25.154 39.4941 25.1963 39.8359 25.1963 40.207V40.6123H21.251V39.875H24.293V39.8066C24.2799 39.5723 24.2311 39.3444 24.1465 39.123C24.0651 38.9017 23.9349 38.7194 23.7559 38.5762C23.5768 38.4329 23.3327 38.3613 23.0234 38.3613C22.8184 38.3613 22.6296 38.4053 22.457 38.4932C22.2845 38.5778 22.1364 38.7048 22.0127 38.874C21.889 39.0433 21.793 39.25 21.7246 39.4941C21.6562 39.7383 21.6221 40.0199 21.6221 40.3389V40.5439C21.6221 40.7946 21.6562 41.0306 21.7246 41.252C21.7962 41.4701 21.8988 41.6621 22.0322 41.8281C22.1689 41.9941 22.3333 42.1243 22.5254 42.2188C22.7207 42.3132 22.9421 42.3604 23.1895 42.3604C23.5085 42.3604 23.7786 42.2952 24 42.165C24.2214 42.0348 24.415 41.8607 24.5811 41.6426L25.1279 42.0771C25.014 42.2497 24.8691 42.4141 24.6934 42.5703C24.5176 42.7266 24.3011 42.8535 24.0439 42.9512C23.79 43.0488 23.4889 43.0977 23.1406 43.0977Z" fill="black"/>
<path d="M27.1543 38.8447V43H26.251V37.7168H27.1055L27.1543 38.8447ZM26.9395 40.1582L26.5635 40.1436C26.5667 39.7822 26.6204 39.4486 26.7246 39.1426C26.8288 38.8333 26.9753 38.5648 27.1641 38.3369C27.3529 38.109 27.5775 37.9333 27.8379 37.8096C28.1016 37.6826 28.3929 37.6191 28.7119 37.6191C28.9723 37.6191 29.2067 37.6549 29.415 37.7266C29.6234 37.7949 29.8008 37.9056 29.9473 38.0586C30.097 38.2116 30.2109 38.4102 30.2891 38.6543C30.3672 38.8952 30.4062 39.1898 30.4062 39.5381V43H29.498V39.5283C29.498 39.2516 29.4574 39.0303 29.376 38.8643C29.2946 38.695 29.1758 38.5729 29.0195 38.498C28.8633 38.4199 28.6712 38.3809 28.4434 38.3809C28.2188 38.3809 28.0137 38.4281 27.8281 38.5225C27.6458 38.6169 27.488 38.7471 27.3545 38.9131C27.2243 39.0791 27.1217 39.2695 27.0469 39.4844C26.9753 39.696 26.9395 39.9206 26.9395 40.1582Z" fill="black"/>
<path d="M34.8545 41.5986C34.8545 41.4684 34.8252 41.348 34.7666 41.2373C34.7113 41.1234 34.5957 41.0208 34.4199 40.9297C34.2474 40.8353 33.987 40.7539 33.6387 40.6855C33.3457 40.6237 33.0804 40.5505 32.8428 40.4658C32.6084 40.3812 32.4082 40.2786 32.2422 40.1582C32.0794 40.0378 31.9541 39.8962 31.8662 39.7334C31.7783 39.5706 31.7344 39.3802 31.7344 39.1621C31.7344 38.9538 31.7799 38.7568 31.8711 38.5713C31.9655 38.3857 32.0973 38.2214 32.2666 38.0781C32.4391 37.9349 32.6458 37.8226 32.8867 37.7412C33.1276 37.6598 33.3962 37.6191 33.6924 37.6191C34.1156 37.6191 34.4769 37.694 34.7764 37.8438C35.0758 37.9935 35.3053 38.1937 35.4648 38.4443C35.6243 38.6917 35.7041 38.9668 35.7041 39.2695H34.8008C34.8008 39.123 34.7568 38.9814 34.6689 38.8447C34.5843 38.7048 34.459 38.5892 34.293 38.498C34.1302 38.4069 33.93 38.3613 33.6924 38.3613C33.4417 38.3613 33.2383 38.4004 33.082 38.4785C32.929 38.5534 32.8167 38.6494 32.7451 38.7666C32.6768 38.8838 32.6426 39.0075 32.6426 39.1377C32.6426 39.2354 32.6589 39.3232 32.6914 39.4014C32.7272 39.4762 32.7891 39.5462 32.877 39.6113C32.9648 39.6732 33.0885 39.7318 33.248 39.7871C33.4076 39.8424 33.611 39.8978 33.8584 39.9531C34.2913 40.0508 34.6478 40.168 34.9277 40.3047C35.2077 40.4414 35.416 40.609 35.5527 40.8076C35.6895 41.0062 35.7578 41.2471 35.7578 41.5303C35.7578 41.7614 35.709 41.973 35.6113 42.165C35.5169 42.3571 35.3786 42.5231 35.1963 42.6631C35.0173 42.7998 34.8024 42.9072 34.5518 42.9854C34.3044 43.0602 34.026 43.0977 33.7168 43.0977C33.2513 43.0977 32.8574 43.0146 32.5352 42.8486C32.2129 42.6826 31.9688 42.4678 31.8027 42.2041C31.6367 41.9404 31.5537 41.6621 31.5537 41.3691H32.4619C32.4749 41.6165 32.5465 41.8135 32.6768 41.96C32.807 42.1032 32.9665 42.2057 33.1553 42.2676C33.3441 42.3262 33.5312 42.3555 33.7168 42.3555C33.9642 42.3555 34.1709 42.3229 34.3369 42.2578C34.5062 42.1927 34.6348 42.1032 34.7227 41.9893C34.8105 41.8753 34.8545 41.7451 34.8545 41.5986Z" fill="black"/>
<path d="M39.1367 43.0977C38.7689 43.0977 38.4352 43.0358 38.1357 42.9121C37.8395 42.7852 37.584 42.6077 37.3691 42.3799C37.1576 42.152 36.9948 41.8818 36.8809 41.5693C36.7669 41.2568 36.71 40.915 36.71 40.5439V40.3389C36.71 39.9092 36.7734 39.5267 36.9004 39.1914C37.0273 38.8529 37.1999 38.5664 37.418 38.332C37.6361 38.0977 37.8835 37.9202 38.1602 37.7998C38.4368 37.6794 38.7233 37.6191 39.0195 37.6191C39.3971 37.6191 39.7227 37.6842 39.9961 37.8145C40.2728 37.9447 40.499 38.127 40.6748 38.3613C40.8506 38.5924 40.9808 38.8659 41.0654 39.1816C41.1501 39.4941 41.1924 39.8359 41.1924 40.207V40.6123H37.2471V39.875H40.2891V39.8066C40.276 39.5723 40.2272 39.3444 40.1426 39.123C40.0612 38.9017 39.931 38.7194 39.752 38.5762C39.5729 38.4329 39.3288 38.3613 39.0195 38.3613C38.8145 38.3613 38.6257 38.4053 38.4531 38.4932C38.2806 38.5778 38.1325 38.7048 38.0088 38.874C37.8851 39.0433 37.7891 39.25 37.7207 39.4941C37.6523 39.7383 37.6182 40.0199 37.6182 40.3389V40.5439C37.6182 40.7946 37.6523 41.0306 37.7207 41.252C37.7923 41.4701 37.8949 41.6621 38.0283 41.8281C38.165 41.9941 38.3294 42.1243 38.5215 42.2188C38.7168 42.3132 38.9382 42.3604 39.1855 42.3604C39.5046 42.3604 39.7747 42.2952 39.9961 42.165C40.2174 42.0348 40.4111 41.8607 40.5771 41.6426L41.124 42.0771C41.0101 42.2497 40.8652 42.4141 40.6895 42.5703C40.5137 42.7266 40.2972 42.8535 40.04 42.9512C39.7861 43.0488 39.485 43.0977 39.1367 43.0977Z" fill="black"/>
<path d="M45.3232 41.5986C45.3232 41.4684 45.2939 41.348 45.2354 41.2373C45.18 41.1234 45.0645 41.0208 44.8887 40.9297C44.7161 40.8353 44.4557 40.7539 44.1074 40.6855C43.8145 40.6237 43.5492 40.5505 43.3115 40.4658C43.0771 40.3812 42.877 40.2786 42.7109 40.1582C42.5482 40.0378 42.4229 39.8962 42.335 39.7334C42.2471 39.5706 42.2031 39.3802 42.2031 39.1621C42.2031 38.9538 42.2487 38.7568 42.3398 38.5713C42.4342 38.3857 42.5661 38.2214 42.7354 38.0781C42.9079 37.9349 43.1146 37.8226 43.3555 37.7412C43.5964 37.6598 43.8649 37.6191 44.1611 37.6191C44.5843 37.6191 44.9456 37.694 45.2451 37.8438C45.5446 37.9935 45.7741 38.1937 45.9336 38.4443C46.0931 38.6917 46.1729 38.9668 46.1729 39.2695H45.2695C45.2695 39.123 45.2256 38.9814 45.1377 38.8447C45.0531 38.7048 44.9277 38.5892 44.7617 38.498C44.599 38.4069 44.3988 38.3613 44.1611 38.3613C43.9105 38.3613 43.707 38.4004 43.5508 38.4785C43.3978 38.5534 43.2855 38.6494 43.2139 38.7666C43.1455 38.8838 43.1113 39.0075 43.1113 39.1377C43.1113 39.2354 43.1276 39.3232 43.1602 39.4014C43.196 39.4762 43.2578 39.5462 43.3457 39.6113C43.4336 39.6732 43.5573 39.7318 43.7168 39.7871C43.8763 39.8424 44.0798 39.8978 44.3271 39.9531C44.7601 40.0508 45.1165 40.168 45.3965 40.3047C45.6764 40.4414 45.8848 40.609 46.0215 40.8076C46.1582 41.0062 46.2266 41.2471 46.2266 41.5303C46.2266 41.7614 46.1777 41.973 46.0801 42.165C45.9857 42.3571 45.8473 42.5231 45.665 42.6631C45.486 42.7998 45.2712 42.9072 45.0205 42.9854C44.7731 43.0602 44.4948 43.0977 44.1855 43.0977C43.7201 43.0977 43.3262 43.0146 43.0039 42.8486C42.6816 42.6826 42.4375 42.4678 42.2715 42.2041C42.1055 41.9404 42.0225 41.6621 42.0225 41.3691H42.9307C42.9437 41.6165 43.0153 41.8135 43.1455 41.96C43.2757 42.1032 43.4352 42.2057 43.624 42.2676C43.8128 42.3262 44 42.3555 44.1855 42.3555C44.4329 42.3555 44.6396 42.3229 44.8057 42.2578C44.9749 42.1927 45.1035 42.1032 45.1914 41.9893C45.2793 41.8753 45.3232 41.7451 45.3232 41.5986Z" fill="black"/>
</svg>
