<svg width="50" height="50" viewBox="0 0 50 50" fill="none" xmlns="http://www.w3.org/2000/svg">
<path d="M15.1976 6.88889C15.1976 5.2934 16.4515 4 17.9982 4H27.2205C27.5919 4 27.948 4.15218 28.2106 4.42307L34.392 10.7992C34.6546 11.07 34.8021 11.4374 34.8021 11.8205V27.1111C34.8021 28.7066 33.5482 30 32.0015 30H17.9982C16.4515 30 15.1976 28.7066 15.1976 27.1111V6.88889Z" fill="white"/>
<path fill-rule="evenodd" clip-rule="evenodd" d="M27.2205 4C27.5919 4 27.948 4.15218 28.2106 4.42307L34.392 10.7992C34.6546 11.07 34.8021 11.4374 34.8021 11.8205V27.1111C34.8021 28.7066 33.5482 30 32.0015 30H17.9982C16.4515 30 15.1976 28.7066 15.1976 27.1111V6.88889C15.1976 5.2934 16.4515 4 17.9982 4H27.2205ZM27.1003 9.05556C27.1003 10.651 28.3542 11.9444 29.901 11.9444H34.1019V27.1111C34.1019 28.3077 33.1615 29.2778 32.0015 29.2778H17.9982C16.8382 29.2778 15.8977 28.3077 15.8977 27.1111V6.88889C15.8977 5.69227 16.8382 4.72222 17.9982 4.72222H27.1003V9.05556ZM27.8005 9.05556C27.8005 10.2522 28.7409 11.2222 29.901 11.2222H33.8119L27.8005 5.02141V9.05556Z" fill="#AEB7CC"/>
<path d="M35.5157 25.9073C35.9093 25.9068 36.2865 25.7482 36.5648 25.4661C36.843 25.184 36.9996 24.8016 37 24.4027V16.8193C36.9996 16.4204 36.843 16.038 36.5648 15.7559C36.2865 15.4738 35.9093 15.3151 35.5157 15.3147H14.4843C14.0907 15.3151 13.7135 15.4738 13.4352 15.7559C13.157 16.038 13.0004 16.4204 13 16.8193V24.4027C13.0004 24.8016 13.157 25.184 13.4352 25.4661C13.7135 25.7482 14.0907 25.9068 14.4843 25.9073H35.5157ZM29.2437 17.6128L30.7226 21.9971L32.1536 17.6128H33.4046L31.312 23.5373H30.0524L27.9637 17.6128H29.2437ZM26.2273 21.4573C26.1099 21.3362 25.9637 21.2478 25.8028 21.2008C25.6645 21.1523 25.3496 21.0661 24.8581 20.9422C24.2255 20.7833 23.7817 20.588 23.5267 20.3563C23.3561 20.2099 23.2195 20.0272 23.1265 19.8211C23.0335 19.6151 22.9864 19.3909 22.9886 19.1643C22.9886 18.863 23.0767 18.5685 23.2417 18.3179C23.4194 18.0478 23.6738 17.8386 23.9712 17.718C24.337 17.5712 24.7283 17.5009 25.1215 17.5111C25.855 17.5111 26.4071 17.6741 26.7778 18.0001C26.9616 18.1625 27.1089 18.3631 27.2096 18.5883C27.3104 18.8135 27.3622 19.0579 27.3616 19.3052L26.1818 19.3576C26.1582 19.1054 26.0423 18.8712 25.857 18.7011C25.6368 18.5519 25.3738 18.4816 25.1096 18.5011C24.8257 18.4847 24.5438 18.5596 24.3044 18.7153C24.2453 18.7558 24.1972 18.8107 24.1644 18.8749C24.1317 18.9392 24.1154 19.0107 24.117 19.083C24.1172 19.1526 24.1331 19.2212 24.1635 19.2835C24.1939 19.3458 24.238 19.4003 24.2924 19.4426C24.4408 19.5693 24.8022 19.7013 25.3766 19.8386C25.8161 19.9296 26.2436 20.0727 26.6501 20.2649C26.9152 20.4025 27.1384 20.6105 27.2958 20.8668C27.4563 21.1582 27.5368 21.488 27.5287 21.8217C27.5207 22.1554 27.4244 22.4808 27.25 22.7639C27.0615 23.0624 26.7854 23.2934 26.4607 23.4247C26.0549 23.5805 25.6228 23.6539 25.1891 23.6408C24.4503 23.6408 23.8829 23.4677 23.487 23.1215C23.0678 22.7279 22.8138 22.1862 22.7775 21.6082L23.9256 21.4953C23.9628 21.8231 24.1116 22.1274 24.3462 22.356C24.5888 22.5498 24.8927 22.6475 25.2011 22.6308C25.5068 22.6533 25.8107 22.5668 26.0601 22.3863C26.1483 22.3198 26.2202 22.2336 26.2703 22.1345C26.3204 22.0354 26.3474 21.9259 26.3492 21.8145C26.3524 21.6845 26.3091 21.5576 26.2273 21.4573ZM17.6861 18.33C17.9395 18.058 18.2474 17.8443 18.5892 17.7031C18.9309 17.562 19.2985 17.4967 19.6672 17.5116C20.3088 17.4841 20.9351 17.7151 21.4092 18.1541C21.7024 18.4561 21.909 18.8331 22.0072 19.245L20.8392 19.5271C20.7852 19.2394 20.6312 18.9809 20.4052 18.7985C20.1792 18.6161 19.8962 18.522 19.6075 18.5331C19.408 18.5266 19.2096 18.5658 19.0271 18.6476C18.8446 18.7295 18.6826 18.8519 18.5531 19.0059C18.2833 19.3212 18.1485 19.8317 18.1485 20.5375C18.1485 21.2864 18.2813 21.8198 18.547 22.1376C18.6725 22.2919 18.8311 22.4151 19.0107 22.4977C19.1903 22.5803 19.3862 22.6203 19.5834 22.6144C19.8811 22.6203 20.1701 22.5121 20.3925 22.3114C20.6485 22.0526 20.8185 21.7193 20.8788 21.3579L22.0228 21.7255C21.8976 22.2911 21.5896 22.7981 21.1478 23.166C20.6963 23.4935 20.1499 23.6589 19.5952 23.6362C19.2381 23.6474 18.8828 23.5813 18.5529 23.4423C18.223 23.3033 17.9261 23.0946 17.682 22.8301C17.1825 22.2927 16.9327 21.558 16.9327 20.6259C16.9328 19.6408 17.1839 18.8755 17.6861 18.33Z" fill="#A36BAE"/>
<path d="M17.749 43H16.2646L16.2744 42.2334H17.749C18.2568 42.2334 18.68 42.1276 19.0186 41.916C19.3571 41.7012 19.611 41.4017 19.7803 41.0176C19.9528 40.6302 20.0391 40.1777 20.0391 39.6602V39.2256C20.0391 38.8187 19.9902 38.4574 19.8926 38.1416C19.7949 37.8226 19.6517 37.554 19.4629 37.3359C19.2741 37.1146 19.043 36.9469 18.7695 36.833C18.4993 36.7191 18.1885 36.6621 17.8369 36.6621H16.2354V35.8906H17.8369C18.3024 35.8906 18.7272 35.9688 19.1113 36.125C19.4954 36.278 19.8258 36.501 20.1025 36.7939C20.3825 37.0837 20.5973 37.4352 20.7471 37.8486C20.8968 38.2588 20.9717 38.721 20.9717 39.2354V39.6602C20.9717 40.1745 20.8968 40.6383 20.7471 41.0518C20.5973 41.4619 20.3809 41.8118 20.0977 42.1016C19.8177 42.3913 19.4792 42.6143 19.082 42.7705C18.6882 42.9235 18.2438 43 17.749 43ZM16.7676 35.8906V43H15.8252V35.8906H16.7676Z" fill="black"/>
<path d="M27.8564 35.8906V43H26.9092L23.3301 37.5166V43H22.3877V35.8906H23.3301L26.9238 41.3887V35.8906H27.8564Z" fill="black"/>
<path d="M33.3154 41.2031C33.3154 41.0371 33.2894 40.8906 33.2373 40.7637C33.1885 40.6335 33.1006 40.5163 32.9736 40.4121C32.8499 40.3079 32.6774 40.2087 32.4561 40.1143C32.238 40.0199 31.9613 39.9238 31.626 39.8262C31.2744 39.722 30.957 39.6064 30.6738 39.4795C30.3906 39.3493 30.1481 39.2012 29.9463 39.0352C29.7445 38.8691 29.5898 38.6787 29.4824 38.4639C29.375 38.249 29.3213 38.0033 29.3213 37.7266C29.3213 37.4499 29.3783 37.1943 29.4922 36.96C29.6061 36.7256 29.7689 36.5221 29.9805 36.3496C30.1953 36.1738 30.4508 36.0371 30.7471 35.9395C31.0433 35.8418 31.3737 35.793 31.7383 35.793C32.2721 35.793 32.7246 35.8955 33.0957 36.1006C33.4701 36.3024 33.7549 36.5677 33.9502 36.8965C34.1455 37.222 34.2432 37.5703 34.2432 37.9414H33.3057C33.3057 37.6745 33.2487 37.4385 33.1348 37.2334C33.0208 37.0251 32.8483 36.8623 32.6172 36.7451C32.3861 36.6247 32.0931 36.5645 31.7383 36.5645C31.403 36.5645 31.1263 36.6149 30.9082 36.7158C30.6901 36.8167 30.5273 36.9535 30.4199 37.126C30.3158 37.2985 30.2637 37.4954 30.2637 37.7168C30.2637 37.8665 30.2946 38.0033 30.3564 38.127C30.4215 38.2474 30.5208 38.3597 30.6543 38.4639C30.791 38.568 30.9635 38.6641 31.1719 38.752C31.3835 38.8398 31.6357 38.9245 31.9287 39.0059C32.3324 39.1198 32.6807 39.2467 32.9736 39.3867C33.2666 39.5267 33.5075 39.6846 33.6963 39.8604C33.8883 40.0329 34.0299 40.2298 34.1211 40.4512C34.2155 40.6693 34.2627 40.9167 34.2627 41.1934C34.2627 41.4831 34.2041 41.7451 34.0869 41.9795C33.9697 42.2139 33.8021 42.4141 33.584 42.5801C33.3659 42.7461 33.1038 42.8747 32.7979 42.9658C32.4951 43.0537 32.1566 43.0977 31.7822 43.0977C31.4535 43.0977 31.1296 43.0521 30.8105 42.9609C30.4948 42.8698 30.2067 42.7331 29.9463 42.5508C29.6891 42.3685 29.4824 42.1439 29.3262 41.877C29.1732 41.6068 29.0967 41.2943 29.0967 40.9395H30.0342C30.0342 41.1836 30.0814 41.3936 30.1758 41.5693C30.2702 41.7419 30.3988 41.8851 30.5615 41.999C30.7275 42.113 30.9147 42.1976 31.123 42.2529C31.3346 42.305 31.5544 42.3311 31.7822 42.3311C32.111 42.3311 32.3893 42.2855 32.6172 42.1943C32.8451 42.1032 33.0176 41.973 33.1348 41.8037C33.2552 41.6344 33.3154 41.4342 33.3154 41.2031Z" fill="black"/>
</svg>
