<svg width="50" height="50" viewBox="0 0 50 50" fill="none" xmlns="http://www.w3.org/2000/svg">
<path d="M15.1976 6.88889C15.1976 5.2934 16.4515 4 17.9982 4H27.2205C27.5919 4 27.948 4.15218 28.2106 4.42307L34.392 10.7992C34.6546 11.07 34.8021 11.4374 34.8021 11.8205V27.1111C34.8021 28.7066 33.5482 30 32.0015 30H17.9982C16.4515 30 15.1976 28.7066 15.1976 27.1111V6.88889Z" fill="white"/>
<path fill-rule="evenodd" clip-rule="evenodd" d="M27.2205 4C27.5919 4 27.948 4.15218 28.2106 4.42307L34.392 10.7992C34.6546 11.07 34.8021 11.4374 34.8021 11.8205V27.1111C34.8021 28.7066 33.5482 30 32.0015 30H17.9982C16.4515 30 15.1976 28.7066 15.1976 27.1111V6.88889C15.1976 5.2934 16.4515 4 17.9982 4H27.2205ZM27.1003 9.05556C27.1003 10.651 28.3542 11.9444 29.901 11.9444H34.1019V27.1111C34.1019 28.3077 33.1615 29.2778 32.0015 29.2778H17.9982C16.8382 29.2778 15.8977 28.3077 15.8977 27.1111V6.88889C15.8977 5.69227 16.8382 4.72222 17.9982 4.72222H27.1003V9.05556ZM27.8005 9.05556C27.8005 10.2522 28.7409 11.2222 29.901 11.2222H33.8119L27.8005 5.02141V9.05556Z" fill="#AEB7CC"/>
<path d="M35.5157 25.9073C35.9093 25.9068 36.2865 25.7482 36.5648 25.4661C36.843 25.184 36.9996 24.8016 37 24.4027V16.8193C36.9996 16.4204 36.843 16.038 36.5648 15.7559C36.2865 15.4738 35.9093 15.3151 35.5157 15.3147H14.4843C14.0907 15.3151 13.7135 15.4738 13.4352 15.7559C13.157 16.038 13.0004 16.4204 13 16.8193V24.4027C13.0004 24.8016 13.157 25.184 13.4352 25.4661C13.7135 25.7482 14.0907 25.9068 14.4843 25.9073H35.5157ZM29.2437 17.6128L30.7226 21.9971L32.1536 17.6128H33.4046L31.312 23.5373H30.0524L27.9637 17.6128H29.2437ZM26.2273 21.4573C26.1099 21.3362 25.9637 21.2478 25.8028 21.2008C25.6645 21.1523 25.3496 21.0661 24.8581 20.9422C24.2255 20.7833 23.7817 20.588 23.5267 20.3563C23.3561 20.2099 23.2195 20.0272 23.1265 19.8211C23.0335 19.6151 22.9864 19.3909 22.9886 19.1643C22.9886 18.863 23.0767 18.5685 23.2417 18.3179C23.4194 18.0478 23.6738 17.8386 23.9712 17.718C24.337 17.5712 24.7283 17.5009 25.1215 17.5111C25.855 17.5111 26.4071 17.6741 26.7778 18.0001C26.9616 18.1625 27.1089 18.3631 27.2096 18.5883C27.3104 18.8135 27.3622 19.0579 27.3616 19.3052L26.1818 19.3576C26.1582 19.1054 26.0423 18.8712 25.857 18.7011C25.6368 18.5519 25.3738 18.4816 25.1096 18.5011C24.8257 18.4847 24.5438 18.5596 24.3044 18.7153C24.2453 18.7558 24.1972 18.8107 24.1644 18.8749C24.1317 18.9392 24.1154 19.0107 24.117 19.083C24.1172 19.1526 24.1331 19.2212 24.1635 19.2835C24.1939 19.3458 24.238 19.4003 24.2924 19.4426C24.4408 19.5693 24.8022 19.7013 25.3766 19.8386C25.8161 19.9296 26.2436 20.0727 26.6501 20.2649C26.9152 20.4025 27.1384 20.6105 27.2958 20.8668C27.4563 21.1582 27.5368 21.488 27.5287 21.8217C27.5207 22.1554 27.4244 22.4808 27.25 22.7639C27.0615 23.0624 26.7854 23.2934 26.4607 23.4247C26.0549 23.5805 25.6228 23.6539 25.1891 23.6408C24.4503 23.6408 23.8829 23.4677 23.487 23.1215C23.0678 22.7279 22.8138 22.1862 22.7775 21.6082L23.9256 21.4953C23.9628 21.8231 24.1116 22.1274 24.3462 22.356C24.5888 22.5498 24.8927 22.6475 25.2011 22.6308C25.5068 22.6533 25.8107 22.5668 26.0601 22.3863C26.1483 22.3198 26.2202 22.2336 26.2703 22.1345C26.3204 22.0354 26.3474 21.9259 26.3492 21.8145C26.3524 21.6845 26.3091 21.5576 26.2273 21.4573ZM17.6861 18.33C17.9395 18.058 18.2474 17.8443 18.5892 17.7031C18.9309 17.562 19.2985 17.4967 19.6672 17.5116C20.3088 17.4841 20.9351 17.7151 21.4092 18.1541C21.7024 18.4561 21.909 18.8331 22.0072 19.245L20.8392 19.5271C20.7852 19.2394 20.6312 18.9809 20.4052 18.7985C20.1792 18.6161 19.8962 18.522 19.6075 18.5331C19.408 18.5266 19.2096 18.5658 19.0271 18.6476C18.8446 18.7295 18.6826 18.8519 18.5531 19.0059C18.2833 19.3212 18.1485 19.8317 18.1485 20.5375C18.1485 21.2864 18.2813 21.8198 18.547 22.1376C18.6725 22.2919 18.8311 22.4151 19.0107 22.4977C19.1903 22.5803 19.3862 22.6203 19.5834 22.6144C19.8811 22.6203 20.1701 22.5121 20.3925 22.3114C20.6485 22.0526 20.8185 21.7193 20.8788 21.3579L22.0228 21.7255C21.8976 22.2911 21.5896 22.7981 21.1478 23.166C20.6963 23.4935 20.1499 23.6589 19.5952 23.6362C19.2381 23.6474 18.8828 23.5813 18.5529 23.4423C18.223 23.3033 17.9261 23.0946 17.682 22.8301C17.1825 22.2927 16.9327 21.558 16.9327 20.6259C16.9328 19.6408 17.1839 18.8755 17.6861 18.33Z" fill="#A36BAE"/>
<path d="M9.7334 35.8906V43H8.78613L5.20703 37.5166V43H4.26465V35.8906H5.20703L8.80078 41.3887V35.8906H9.7334Z" fill="black"/>
<path d="M13.459 43.0977C13.0911 43.0977 12.7575 43.0358 12.458 42.9121C12.1618 42.7852 11.9062 42.6077 11.6914 42.3799C11.4798 42.152 11.3171 41.8818 11.2031 41.5693C11.0892 41.2568 11.0322 40.915 11.0322 40.5439V40.3389C11.0322 39.9092 11.0957 39.5267 11.2227 39.1914C11.3496 38.8529 11.5221 38.5664 11.7402 38.332C11.9583 38.0977 12.2057 37.9202 12.4824 37.7998C12.7591 37.6794 13.0456 37.6191 13.3418 37.6191C13.7194 37.6191 14.0449 37.6842 14.3184 37.8145C14.5951 37.9447 14.8213 38.127 14.9971 38.3613C15.1729 38.5924 15.3031 38.8659 15.3877 39.1816C15.4723 39.4941 15.5146 39.8359 15.5146 40.207V40.6123H11.5693V39.875H14.6113V39.8066C14.5983 39.5723 14.5495 39.3444 14.4648 39.123C14.3835 38.9017 14.2533 38.7194 14.0742 38.5762C13.8952 38.4329 13.651 38.3613 13.3418 38.3613C13.1367 38.3613 12.9479 38.4053 12.7754 38.4932C12.6029 38.5778 12.4548 38.7048 12.3311 38.874C12.2074 39.0433 12.1113 39.25 12.043 39.4941C11.9746 39.7383 11.9404 40.0199 11.9404 40.3389V40.5439C11.9404 40.7946 11.9746 41.0306 12.043 41.252C12.1146 41.4701 12.2171 41.6621 12.3506 41.8281C12.4873 41.9941 12.6517 42.1243 12.8438 42.2188C13.0391 42.3132 13.2604 42.3604 13.5078 42.3604C13.8268 42.3604 14.097 42.2952 14.3184 42.165C14.5397 42.0348 14.7334 41.8607 14.8994 41.6426L15.4463 42.0771C15.3324 42.2497 15.1875 42.4141 15.0117 42.5703C14.8359 42.7266 14.6195 42.8535 14.3623 42.9512C14.1084 43.0488 13.8073 43.0977 13.459 43.0977Z" fill="black"/>
<path d="M18.7812 37.7168V38.4102H15.9248V37.7168H18.7812ZM16.8916 36.4326H17.7949V41.6914C17.7949 41.8704 17.8226 42.0055 17.8779 42.0967C17.9333 42.1878 18.0049 42.248 18.0928 42.2773C18.1807 42.3066 18.2751 42.3213 18.376 42.3213C18.4508 42.3213 18.529 42.3148 18.6104 42.3018C18.695 42.2855 18.7585 42.2725 18.8008 42.2627L18.8057 43C18.734 43.0228 18.6396 43.0439 18.5225 43.0635C18.4085 43.0863 18.2702 43.0977 18.1074 43.0977C17.8861 43.0977 17.6826 43.0537 17.4971 42.9658C17.3115 42.8779 17.1634 42.7314 17.0527 42.5264C16.9453 42.318 16.8916 42.0381 16.8916 41.6865V36.4326Z" fill="black"/>
<path d="M21.1787 42.0625L22.5361 37.7168H23.1318L23.0146 38.5811L21.6328 43H21.0518L21.1787 42.0625ZM20.2656 37.7168L21.4229 42.1113L21.5059 43H20.8955L19.3623 37.7168H20.2656ZM24.4307 42.0771L25.5342 37.7168H26.4326L24.8994 43H24.2939L24.4307 42.0771ZM23.2637 37.7168L24.5918 41.9893L24.7432 43H24.167L22.7461 38.5713L22.6289 37.7168H23.2637Z" fill="black"/>
<path d="M27.1211 40.417V40.3047C27.1211 39.9238 27.1764 39.5706 27.2871 39.2451C27.3978 38.9163 27.5573 38.6315 27.7656 38.3906C27.974 38.1465 28.2262 37.9577 28.5225 37.8242C28.8187 37.6875 29.1507 37.6191 29.5186 37.6191C29.8896 37.6191 30.2233 37.6875 30.5195 37.8242C30.819 37.9577 31.0729 38.1465 31.2812 38.3906C31.4928 38.6315 31.654 38.9163 31.7646 39.2451C31.8753 39.5706 31.9307 39.9238 31.9307 40.3047V40.417C31.9307 40.7979 31.8753 41.151 31.7646 41.4766C31.654 41.8021 31.4928 42.0869 31.2812 42.3311C31.0729 42.5719 30.8206 42.7607 30.5244 42.8975C30.2314 43.0309 29.8994 43.0977 29.5283 43.0977C29.1572 43.0977 28.8236 43.0309 28.5273 42.8975C28.2311 42.7607 27.9772 42.5719 27.7656 42.3311C27.5573 42.0869 27.3978 41.8021 27.2871 41.4766C27.1764 41.151 27.1211 40.7979 27.1211 40.417ZM28.0244 40.3047V40.417C28.0244 40.6807 28.0553 40.9297 28.1172 41.1641C28.179 41.3952 28.2718 41.6003 28.3955 41.7793C28.5225 41.9583 28.6803 42.0999 28.8691 42.2041C29.0579 42.305 29.2777 42.3555 29.5283 42.3555C29.7757 42.3555 29.9922 42.305 30.1777 42.2041C30.3665 42.0999 30.5228 41.9583 30.6465 41.7793C30.7702 41.6003 30.863 41.3952 30.9248 41.1641C30.9899 40.9297 31.0225 40.6807 31.0225 40.417V40.3047C31.0225 40.0443 30.9899 39.7985 30.9248 39.5674C30.863 39.333 30.7686 39.1263 30.6416 38.9473C30.5179 38.765 30.3617 38.6217 30.1729 38.5176C29.9873 38.4134 29.7692 38.3613 29.5186 38.3613C29.2712 38.3613 29.0531 38.4134 28.8643 38.5176C28.6787 38.6217 28.5225 38.765 28.3955 38.9473C28.2718 39.1263 28.179 39.333 28.1172 39.5674C28.0553 39.7985 28.0244 40.0443 28.0244 40.3047Z" fill="black"/>
<path d="M33.9668 38.5469V43H33.0635V37.7168H33.9424L33.9668 38.5469ZM35.6172 37.6875L35.6123 38.5273C35.5374 38.5111 35.4658 38.5013 35.3975 38.498C35.3324 38.4915 35.2575 38.4883 35.1729 38.4883C34.9645 38.4883 34.7806 38.5208 34.6211 38.5859C34.4616 38.651 34.3265 38.7422 34.2158 38.8594C34.1051 38.9766 34.0173 39.1165 33.9521 39.2793C33.8903 39.4388 33.8496 39.6146 33.8301 39.8066L33.5762 39.9531C33.5762 39.6341 33.6071 39.3346 33.6689 39.0547C33.734 38.7747 33.8333 38.5273 33.9668 38.3125C34.1003 38.0944 34.2695 37.9251 34.4746 37.8047C34.6829 37.681 34.9303 37.6191 35.2168 37.6191C35.2819 37.6191 35.3568 37.6273 35.4414 37.6436C35.526 37.6566 35.5846 37.6712 35.6172 37.6875Z" fill="black"/>
<path d="M37.3604 35.5V43H36.4521V35.5H37.3604ZM40.5879 37.7168L38.2832 40.1826L36.9941 41.5205L36.9209 40.5586L37.8438 39.4551L39.4844 37.7168H40.5879ZM39.7627 43L37.8779 40.4805L38.3467 39.6748L40.8271 43H39.7627Z" fill="black"/>
<path d="M44.5967 41.5986C44.5967 41.4684 44.5674 41.348 44.5088 41.2373C44.4535 41.1234 44.3379 41.0208 44.1621 40.9297C43.9896 40.8353 43.7292 40.7539 43.3809 40.6855C43.0879 40.6237 42.8226 40.5505 42.585 40.4658C42.3506 40.3812 42.1504 40.2786 41.9844 40.1582C41.8216 40.0378 41.6963 39.8962 41.6084 39.7334C41.5205 39.5706 41.4766 39.3802 41.4766 39.1621C41.4766 38.9538 41.5221 38.7568 41.6133 38.5713C41.7077 38.3857 41.8395 38.2214 42.0088 38.0781C42.1813 37.9349 42.388 37.8226 42.6289 37.7412C42.8698 37.6598 43.1383 37.6191 43.4346 37.6191C43.8577 37.6191 44.2191 37.694 44.5186 37.8438C44.818 37.9935 45.0475 38.1937 45.207 38.4443C45.3665 38.6917 45.4463 38.9668 45.4463 39.2695H44.543C44.543 39.123 44.499 38.9814 44.4111 38.8447C44.3265 38.7048 44.2012 38.5892 44.0352 38.498C43.8724 38.4069 43.6722 38.3613 43.4346 38.3613C43.1839 38.3613 42.9805 38.4004 42.8242 38.4785C42.6712 38.5534 42.5589 38.6494 42.4873 38.7666C42.4189 38.8838 42.3848 39.0075 42.3848 39.1377C42.3848 39.2354 42.401 39.3232 42.4336 39.4014C42.4694 39.4762 42.5312 39.5462 42.6191 39.6113C42.707 39.6732 42.8307 39.7318 42.9902 39.7871C43.1497 39.8424 43.3532 39.8978 43.6006 39.9531C44.0335 40.0508 44.39 40.168 44.6699 40.3047C44.9499 40.4414 45.1582 40.609 45.2949 40.8076C45.4316 41.0062 45.5 41.2471 45.5 41.5303C45.5 41.7614 45.4512 41.973 45.3535 42.165C45.2591 42.3571 45.1208 42.5231 44.9385 42.6631C44.7594 42.7998 44.5446 42.9072 44.2939 42.9854C44.0465 43.0602 43.7682 43.0977 43.459 43.0977C42.9935 43.0977 42.5996 43.0146 42.2773 42.8486C41.9551 42.6826 41.7109 42.4678 41.5449 42.2041C41.3789 41.9404 41.2959 41.6621 41.2959 41.3691H42.2041C42.2171 41.6165 42.2887 41.8135 42.4189 41.96C42.5492 42.1032 42.7087 42.2057 42.8975 42.2676C43.0863 42.3262 43.2734 42.3555 43.459 42.3555C43.7064 42.3555 43.9131 42.3229 44.0791 42.2578C44.2484 42.1927 44.377 42.1032 44.4648 41.9893C44.5527 41.8753 44.5967 41.7451 44.5967 41.5986Z" fill="black"/>
</svg>
