<svg width="50" height="50" viewBox="0 0 50 50" fill="none" xmlns="http://www.w3.org/2000/svg">
<path d="M15.1976 6.88889C15.1976 5.2934 16.4515 4 17.9982 4H27.2205C27.5919 4 27.948 4.15218 28.2106 4.42307L34.392 10.7992C34.6546 11.07 34.8021 11.4374 34.8021 11.8205V27.1111C34.8021 28.7066 33.5482 30 32.0015 30H17.9982C16.4515 30 15.1976 28.7066 15.1976 27.1111V6.88889Z" fill="white"/>
<path fill-rule="evenodd" clip-rule="evenodd" d="M27.2205 4C27.5919 4 27.948 4.15218 28.2106 4.42307L34.392 10.7992C34.6546 11.07 34.8021 11.4374 34.8021 11.8205V27.1111C34.8021 28.7066 33.5482 30 32.0015 30H17.9982C16.4515 30 15.1976 28.7066 15.1976 27.1111V6.88889C15.1976 5.2934 16.4515 4 17.9982 4H27.2205ZM27.1003 9.05556C27.1003 10.651 28.3542 11.9444 29.901 11.9444H34.1019V27.1111C34.1019 28.3077 33.1615 29.2778 32.0015 29.2778H17.9982C16.8382 29.2778 15.8977 28.3077 15.8977 27.1111V6.88889C15.8977 5.69227 16.8382 4.72222 17.9982 4.72222H27.1003V9.05556ZM27.8005 9.05556C27.8005 10.2522 28.7409 11.2222 29.901 11.2222H33.8119L27.8005 5.02141V9.05556Z" fill="#AEB7CC"/>
<path d="M35.5157 25.9073C35.9093 25.9068 36.2865 25.7482 36.5648 25.4661C36.843 25.184 36.9996 24.8016 37 24.4027V16.8193C36.9996 16.4204 36.843 16.038 36.5648 15.7559C36.2865 15.4738 35.9093 15.3151 35.5157 15.3147H14.4843C14.0907 15.3151 13.7135 15.4738 13.4352 15.7559C13.157 16.038 13.0004 16.4204 13 16.8193V24.4027C13.0004 24.8016 13.157 25.184 13.4352 25.4661C13.7135 25.7482 14.0907 25.9068 14.4843 25.9073H35.5157ZM29.2437 17.6128L30.7226 21.9971L32.1536 17.6128H33.4046L31.312 23.5373H30.0524L27.9637 17.6128H29.2437ZM26.2273 21.4573C26.1099 21.3362 25.9637 21.2478 25.8028 21.2008C25.6645 21.1523 25.3496 21.0661 24.8581 20.9422C24.2255 20.7833 23.7817 20.588 23.5267 20.3563C23.3561 20.2099 23.2195 20.0272 23.1265 19.8211C23.0335 19.6151 22.9864 19.3909 22.9886 19.1643C22.9886 18.863 23.0767 18.5685 23.2417 18.3179C23.4194 18.0478 23.6738 17.8386 23.9712 17.718C24.337 17.5712 24.7283 17.5009 25.1215 17.5111C25.855 17.5111 26.4071 17.6741 26.7778 18.0001C26.9616 18.1625 27.1089 18.3631 27.2096 18.5883C27.3104 18.8135 27.3622 19.0579 27.3616 19.3052L26.1818 19.3576C26.1582 19.1054 26.0423 18.8712 25.857 18.7011C25.6368 18.5519 25.3738 18.4816 25.1096 18.5011C24.8257 18.4847 24.5438 18.5596 24.3044 18.7153C24.2453 18.7558 24.1972 18.8107 24.1644 18.8749C24.1317 18.9392 24.1154 19.0107 24.117 19.083C24.1172 19.1526 24.1331 19.2212 24.1635 19.2835C24.1939 19.3458 24.238 19.4003 24.2924 19.4426C24.4408 19.5693 24.8022 19.7013 25.3766 19.8386C25.8161 19.9296 26.2436 20.0727 26.6501 20.2649C26.9152 20.4025 27.1384 20.6105 27.2958 20.8668C27.4563 21.1582 27.5368 21.488 27.5287 21.8217C27.5207 22.1554 27.4244 22.4808 27.25 22.7639C27.0615 23.0624 26.7854 23.2934 26.4607 23.4247C26.0549 23.5805 25.6228 23.6539 25.1891 23.6408C24.4503 23.6408 23.8829 23.4677 23.487 23.1215C23.0678 22.7279 22.8138 22.1862 22.7775 21.6082L23.9256 21.4953C23.9628 21.8231 24.1116 22.1274 24.3462 22.356C24.5888 22.5498 24.8927 22.6475 25.2011 22.6308C25.5068 22.6533 25.8107 22.5668 26.0601 22.3863C26.1483 22.3198 26.2202 22.2336 26.2703 22.1345C26.3204 22.0354 26.3474 21.9259 26.3492 21.8145C26.3524 21.6845 26.3091 21.5576 26.2273 21.4573ZM17.6861 18.33C17.9395 18.058 18.2474 17.8443 18.5892 17.7031C18.9309 17.562 19.2985 17.4967 19.6672 17.5116C20.3088 17.4841 20.9351 17.7151 21.4092 18.1541C21.7024 18.4561 21.909 18.8331 22.0072 19.245L20.8392 19.5271C20.7852 19.2394 20.6312 18.9809 20.4052 18.7985C20.1792 18.6161 19.8962 18.522 19.6075 18.5331C19.408 18.5266 19.2096 18.5658 19.0271 18.6476C18.8446 18.7295 18.6826 18.8519 18.5531 19.0059C18.2833 19.3212 18.1485 19.8317 18.1485 20.5375C18.1485 21.2864 18.2813 21.8198 18.547 22.1376C18.6725 22.2919 18.8311 22.4151 19.0107 22.4977C19.1903 22.5803 19.3862 22.6203 19.5834 22.6144C19.8811 22.6203 20.1701 22.5121 20.3925 22.3114C20.6485 22.0526 20.8185 21.7193 20.8788 21.3579L22.0228 21.7255C21.8976 22.2911 21.5896 22.7981 21.1478 23.166C20.6963 23.4935 20.1499 23.6589 19.5952 23.6362C19.2381 23.6474 18.8828 23.5813 18.5529 23.4423C18.223 23.3033 17.9261 23.0946 17.682 22.8301C17.1825 22.2927 16.9327 21.558 16.9327 20.6259C16.9328 19.6408 17.1839 18.8755 17.6861 18.33Z" fill="#A36BAE"/>
<path d="M18.8926 35.8906H19.8301V40.7002C19.8301 41.234 19.7113 41.6784 19.4736 42.0332C19.236 42.388 18.9202 42.6549 18.5264 42.834C18.1357 43.0098 17.7109 43.0977 17.252 43.0977C16.7702 43.0977 16.334 43.0098 15.9434 42.834C15.556 42.6549 15.2484 42.388 15.0205 42.0332C14.7959 41.6784 14.6836 41.234 14.6836 40.7002V35.8906H15.6162V40.7002C15.6162 41.0713 15.6846 41.3773 15.8213 41.6182C15.958 41.859 16.1484 42.0381 16.3926 42.1553C16.64 42.2725 16.9264 42.3311 17.252 42.3311C17.5807 42.3311 17.8672 42.2725 18.1113 42.1553C18.3587 42.0381 18.5508 41.859 18.6875 41.6182C18.8242 41.3773 18.8926 41.0713 18.8926 40.7002V35.8906Z" fill="black"/>
<path d="M21.3096 35.8906H23.6631C24.1969 35.8906 24.6478 35.972 25.0156 36.1348C25.3867 36.2975 25.6683 36.5384 25.8604 36.8574C26.0557 37.1732 26.1533 37.5622 26.1533 38.0244C26.1533 38.3499 26.0866 38.6478 25.9531 38.918C25.8229 39.1849 25.6341 39.4128 25.3867 39.6016C25.1426 39.7871 24.8496 39.9255 24.5078 40.0166L24.2441 40.1191H22.0322L22.0225 39.3525H23.6924C24.0309 39.3525 24.3125 39.2939 24.5371 39.1768C24.7617 39.0563 24.931 38.8952 25.0449 38.6934C25.1589 38.4915 25.2158 38.2686 25.2158 38.0244C25.2158 37.751 25.1621 37.5117 25.0547 37.3066C24.9473 37.1016 24.778 36.9437 24.5469 36.833C24.319 36.7191 24.0244 36.6621 23.6631 36.6621H22.252V43H21.3096V35.8906ZM25.4648 43L23.7363 39.7773L24.7178 39.7725L26.4707 42.9414V43H25.4648Z" fill="black"/>
<path d="M31.7832 42.2334V43H28.2285V42.2334H31.7832ZM28.4141 35.8906V43H27.4717V35.8906H28.4141Z" fill="black"/>
<path d="M35.8018 41.5986C35.8018 41.4684 35.7725 41.348 35.7139 41.2373C35.6585 41.1234 35.543 41.0208 35.3672 40.9297C35.1947 40.8353 34.9342 40.7539 34.5859 40.6855C34.293 40.6237 34.0277 40.5505 33.79 40.4658C33.5557 40.3812 33.3555 40.2786 33.1895 40.1582C33.0267 40.0378 32.9014 39.8962 32.8135 39.7334C32.7256 39.5706 32.6816 39.3802 32.6816 39.1621C32.6816 38.9538 32.7272 38.7568 32.8184 38.5713C32.9128 38.3857 33.0446 38.2214 33.2139 38.0781C33.3864 37.9349 33.5931 37.8226 33.834 37.7412C34.0749 37.6598 34.3434 37.6191 34.6396 37.6191C35.0628 37.6191 35.4242 37.694 35.7236 37.8438C36.0231 37.9935 36.2526 38.1937 36.4121 38.4443C36.5716 38.6917 36.6514 38.9668 36.6514 39.2695H35.748C35.748 39.123 35.7041 38.9814 35.6162 38.8447C35.5316 38.7048 35.4062 38.5892 35.2402 38.498C35.0775 38.4069 34.8773 38.3613 34.6396 38.3613C34.389 38.3613 34.1855 38.4004 34.0293 38.4785C33.8763 38.5534 33.764 38.6494 33.6924 38.7666C33.624 38.8838 33.5898 39.0075 33.5898 39.1377C33.5898 39.2354 33.6061 39.3232 33.6387 39.4014C33.6745 39.4762 33.7363 39.5462 33.8242 39.6113C33.9121 39.6732 34.0358 39.7318 34.1953 39.7871C34.3548 39.8424 34.5583 39.8978 34.8057 39.9531C35.2386 40.0508 35.5951 40.168 35.875 40.3047C36.1549 40.4414 36.3633 40.609 36.5 40.8076C36.6367 41.0062 36.7051 41.2471 36.7051 41.5303C36.7051 41.7614 36.6562 41.973 36.5586 42.165C36.4642 42.3571 36.3258 42.5231 36.1436 42.6631C35.9645 42.7998 35.7497 42.9072 35.499 42.9854C35.2516 43.0602 34.9733 43.0977 34.6641 43.0977C34.1986 43.0977 33.8047 43.0146 33.4824 42.8486C33.1602 42.6826 32.916 42.4678 32.75 42.2041C32.584 41.9404 32.501 41.6621 32.501 41.3691H33.4092C33.4222 41.6165 33.4938 41.8135 33.624 41.96C33.7542 42.1032 33.9137 42.2057 34.1025 42.2676C34.2913 42.3262 34.4785 42.3555 34.6641 42.3555C34.9115 42.3555 35.1182 42.3229 35.2842 42.2578C35.4535 42.1927 35.582 42.1032 35.6699 41.9893C35.7578 41.8753 35.8018 41.7451 35.8018 41.5986Z" fill="black"/>
</svg>
