<svg width="50" height="50" viewBox="0 0 50 50" fill="none" xmlns="http://www.w3.org/2000/svg">
<path d="M15.1976 6.88889C15.1976 5.2934 16.4515 4 17.9982 4H27.2205C27.5919 4 27.948 4.15218 28.2106 4.42307L34.392 10.7992C34.6546 11.07 34.8021 11.4374 34.8021 11.8205V27.1111C34.8021 28.7066 33.5482 30 32.0015 30H17.9982C16.4515 30 15.1976 28.7066 15.1976 27.1111V6.88889Z" fill="white"/>
<path fill-rule="evenodd" clip-rule="evenodd" d="M27.2205 4C27.5919 4 27.948 4.15218 28.2106 4.42307L34.392 10.7992C34.6546 11.07 34.8021 11.4374 34.8021 11.8205V27.1111C34.8021 28.7066 33.5482 30 32.0015 30H17.9982C16.4515 30 15.1976 28.7066 15.1976 27.1111V6.88889C15.1976 5.2934 16.4515 4 17.9982 4H27.2205ZM27.1003 9.05556C27.1003 10.651 28.3542 11.9444 29.901 11.9444H34.1019V27.1111C34.1019 28.3077 33.1615 29.2778 32.0015 29.2778H17.9982C16.8382 29.2778 15.8977 28.3077 15.8977 27.1111V6.88889C15.8977 5.69227 16.8382 4.72222 17.9982 4.72222H27.1003V9.05556ZM27.8005 9.05556C27.8005 10.2522 28.7409 11.2222 29.901 11.2222H33.8119L27.8005 5.02141V9.05556Z" fill="#AEB7CC"/>
<path d="M35.5157 25.9073C35.9093 25.9068 36.2865 25.7482 36.5648 25.4661C36.843 25.184 36.9996 24.8016 37 24.4027V16.8193C36.9996 16.4204 36.843 16.038 36.5648 15.7559C36.2865 15.4738 35.9093 15.3151 35.5157 15.3147H14.4843C14.0907 15.3151 13.7135 15.4738 13.4352 15.7559C13.157 16.038 13.0004 16.4204 13 16.8193V24.4027C13.0004 24.8016 13.157 25.184 13.4352 25.4661C13.7135 25.7482 14.0907 25.9068 14.4843 25.9073H35.5157ZM29.2437 17.6128L30.7226 21.9971L32.1536 17.6128H33.4046L31.312 23.5373H30.0524L27.9637 17.6128H29.2437ZM26.2273 21.4573C26.1099 21.3362 25.9637 21.2478 25.8028 21.2008C25.6645 21.1523 25.3496 21.0661 24.8581 20.9422C24.2255 20.7833 23.7817 20.588 23.5267 20.3563C23.3561 20.2099 23.2195 20.0272 23.1265 19.8211C23.0335 19.6151 22.9864 19.3909 22.9886 19.1643C22.9886 18.863 23.0767 18.5685 23.2417 18.3179C23.4194 18.0478 23.6738 17.8386 23.9712 17.718C24.337 17.5712 24.7283 17.5009 25.1215 17.5111C25.855 17.5111 26.4071 17.6741 26.7778 18.0001C26.9616 18.1625 27.1089 18.3631 27.2096 18.5883C27.3104 18.8135 27.3622 19.0579 27.3616 19.3052L26.1818 19.3576C26.1582 19.1054 26.0423 18.8712 25.857 18.7011C25.6368 18.5519 25.3738 18.4816 25.1096 18.5011C24.8257 18.4847 24.5438 18.5596 24.3044 18.7153C24.2453 18.7558 24.1972 18.8107 24.1644 18.8749C24.1317 18.9392 24.1154 19.0107 24.117 19.083C24.1172 19.1526 24.1331 19.2212 24.1635 19.2835C24.1939 19.3458 24.238 19.4003 24.2924 19.4426C24.4408 19.5693 24.8022 19.7013 25.3766 19.8386C25.8161 19.9296 26.2436 20.0727 26.6501 20.2649C26.9152 20.4025 27.1384 20.6105 27.2958 20.8668C27.4563 21.1582 27.5368 21.488 27.5287 21.8217C27.5207 22.1554 27.4244 22.4808 27.25 22.7639C27.0615 23.0624 26.7854 23.2934 26.4607 23.4247C26.0549 23.5805 25.6228 23.6539 25.1891 23.6408C24.4503 23.6408 23.8829 23.4677 23.487 23.1215C23.0678 22.7279 22.8138 22.1862 22.7775 21.6082L23.9256 21.4953C23.9628 21.8231 24.1116 22.1274 24.3462 22.356C24.5888 22.5498 24.8927 22.6475 25.2011 22.6308C25.5068 22.6533 25.8107 22.5668 26.0601 22.3863C26.1483 22.3198 26.2202 22.2336 26.2703 22.1345C26.3204 22.0354 26.3474 21.9259 26.3492 21.8145C26.3524 21.6845 26.3091 21.5576 26.2273 21.4573ZM17.6861 18.33C17.9395 18.058 18.2474 17.8443 18.5892 17.7031C18.9309 17.562 19.2985 17.4967 19.6672 17.5116C20.3088 17.4841 20.9351 17.7151 21.4092 18.1541C21.7024 18.4561 21.909 18.8331 22.0072 19.245L20.8392 19.5271C20.7852 19.2394 20.6312 18.9809 20.4052 18.7985C20.1792 18.6161 19.8962 18.522 19.6075 18.5331C19.408 18.5266 19.2096 18.5658 19.0271 18.6476C18.8446 18.7295 18.6826 18.8519 18.5531 19.0059C18.2833 19.3212 18.1485 19.8317 18.1485 20.5375C18.1485 21.2864 18.2813 21.8198 18.547 22.1376C18.6725 22.2919 18.8311 22.4151 19.0107 22.4977C19.1903 22.5803 19.3862 22.6203 19.5834 22.6144C19.8811 22.6203 20.1701 22.5121 20.3925 22.3114C20.6485 22.0526 20.8185 21.7193 20.8788 21.3579L22.0228 21.7255C21.8976 22.2911 21.5896 22.7981 21.1478 23.166C20.6963 23.4935 20.1499 23.6589 19.5952 23.6362C19.2381 23.6474 18.8828 23.5813 18.5529 23.4423C18.223 23.3033 17.9261 23.0946 17.682 22.8301C17.1825 22.2927 16.9327 21.558 16.9327 20.6259C16.9328 19.6408 17.1839 18.8755 17.6861 18.33Z" fill="#A36BAE"/>
<path d="M10.1367 42.2334V43H6.58203V42.2334H10.1367ZM6.76758 35.8906V43H5.8252V35.8906H6.76758Z" fill="black"/>
<path d="M12.0605 37.7168V43H11.1523V37.7168H12.0605ZM11.084 36.3154C11.084 36.1689 11.1279 36.0452 11.2158 35.9443C11.307 35.8434 11.4404 35.793 11.6162 35.793C11.7887 35.793 11.9206 35.8434 12.0117 35.9443C12.1061 36.0452 12.1533 36.1689 12.1533 36.3154C12.1533 36.4554 12.1061 36.5758 12.0117 36.6768C11.9206 36.7744 11.7887 36.8232 11.6162 36.8232C11.4404 36.8232 11.307 36.7744 11.2158 36.6768C11.1279 36.5758 11.084 36.4554 11.084 36.3154Z" fill="black"/>
<path d="M15.625 42.3555C15.8398 42.3555 16.0384 42.3115 16.2207 42.2236C16.403 42.1357 16.5527 42.0153 16.6699 41.8623C16.7871 41.7061 16.8538 41.5286 16.8701 41.3301H17.7295C17.7132 41.6426 17.6074 41.9339 17.4121 42.2041C17.2201 42.471 16.9678 42.6875 16.6553 42.8535C16.3428 43.0163 15.9993 43.0977 15.625 43.0977C15.2279 43.0977 14.8812 43.0277 14.585 42.8877C14.292 42.7477 14.0479 42.5557 13.8525 42.3115C13.6605 42.0674 13.5156 41.7874 13.418 41.4717C13.3236 41.1527 13.2764 40.8158 13.2764 40.4609V40.2559C13.2764 39.901 13.3236 39.5658 13.418 39.25C13.5156 38.931 13.6605 38.6494 13.8525 38.4053C14.0479 38.1611 14.292 37.9691 14.585 37.8291C14.8812 37.6891 15.2279 37.6191 15.625 37.6191C16.0384 37.6191 16.3997 37.7038 16.709 37.873C17.0182 38.0391 17.2607 38.2669 17.4365 38.5566C17.6156 38.8431 17.7132 39.1686 17.7295 39.5332H16.8701C16.8538 39.3151 16.792 39.1182 16.6846 38.9424C16.5804 38.7666 16.4372 38.6266 16.2549 38.5225C16.0758 38.415 15.8659 38.3613 15.625 38.3613C15.3483 38.3613 15.1156 38.4167 14.9268 38.5273C14.7412 38.6348 14.5931 38.7812 14.4824 38.9668C14.375 39.1491 14.2969 39.3525 14.248 39.5771C14.2025 39.7985 14.1797 40.0247 14.1797 40.2559V40.4609C14.1797 40.6921 14.2025 40.9199 14.248 41.1445C14.2936 41.3691 14.3701 41.5726 14.4775 41.7549C14.5882 41.9372 14.7363 42.0837 14.9219 42.1943C15.1107 42.3018 15.3451 42.3555 15.625 42.3555Z" fill="black"/>
<path d="M20.9375 43.0977C20.5697 43.0977 20.236 43.0358 19.9365 42.9121C19.6403 42.7852 19.3848 42.6077 19.1699 42.3799C18.9583 42.152 18.7956 41.8818 18.6816 41.5693C18.5677 41.2568 18.5107 40.915 18.5107 40.5439V40.3389C18.5107 39.9092 18.5742 39.5267 18.7012 39.1914C18.8281 38.8529 19.0007 38.5664 19.2188 38.332C19.4368 38.0977 19.6842 37.9202 19.9609 37.7998C20.2376 37.6794 20.5241 37.6191 20.8203 37.6191C21.1979 37.6191 21.5234 37.6842 21.7969 37.8145C22.0736 37.9447 22.2998 38.127 22.4756 38.3613C22.6514 38.5924 22.7816 38.8659 22.8662 39.1816C22.9508 39.4941 22.9932 39.8359 22.9932 40.207V40.6123H19.0479V39.875H22.0898V39.8066C22.0768 39.5723 22.028 39.3444 21.9434 39.123C21.862 38.9017 21.7318 38.7194 21.5527 38.5762C21.3737 38.4329 21.1296 38.3613 20.8203 38.3613C20.6152 38.3613 20.4264 38.4053 20.2539 38.4932C20.0814 38.5778 19.9333 38.7048 19.8096 38.874C19.6859 39.0433 19.5898 39.25 19.5215 39.4941C19.4531 39.7383 19.4189 40.0199 19.4189 40.3389V40.5439C19.4189 40.7946 19.4531 41.0306 19.5215 41.252C19.5931 41.4701 19.6956 41.6621 19.8291 41.8281C19.9658 41.9941 20.1302 42.1243 20.3223 42.2188C20.5176 42.3132 20.7389 42.3604 20.9863 42.3604C21.3053 42.3604 21.5755 42.2952 21.7969 42.165C22.0182 42.0348 22.2119 41.8607 22.3779 41.6426L22.9248 42.0771C22.8109 42.2497 22.666 42.4141 22.4902 42.5703C22.3145 42.7266 22.098 42.8535 21.8408 42.9512C21.5869 43.0488 21.2858 43.0977 20.9375 43.0977Z" fill="black"/>
<path d="M24.9512 38.8447V43H24.0479V37.7168H24.9023L24.9512 38.8447ZM24.7363 40.1582L24.3604 40.1436C24.3636 39.7822 24.4173 39.4486 24.5215 39.1426C24.6257 38.8333 24.7721 38.5648 24.9609 38.3369C25.1497 38.109 25.3743 37.9333 25.6348 37.8096C25.8984 37.6826 26.1898 37.6191 26.5088 37.6191C26.7692 37.6191 27.0036 37.6549 27.2119 37.7266C27.4202 37.7949 27.5977 37.9056 27.7441 38.0586C27.8939 38.2116 28.0078 38.4102 28.0859 38.6543C28.1641 38.8952 28.2031 39.1898 28.2031 39.5381V43H27.2949V39.5283C27.2949 39.2516 27.2542 39.0303 27.1729 38.8643C27.0915 38.695 26.9727 38.5729 26.8164 38.498C26.6602 38.4199 26.4681 38.3809 26.2402 38.3809C26.0156 38.3809 25.8105 38.4281 25.625 38.5225C25.4427 38.6169 25.2848 38.7471 25.1514 38.9131C25.0212 39.0791 24.9186 39.2695 24.8438 39.4844C24.7721 39.696 24.7363 39.9206 24.7363 40.1582Z" fill="black"/>
<path d="M32.6514 41.5986C32.6514 41.4684 32.6221 41.348 32.5635 41.2373C32.5081 41.1234 32.3926 41.0208 32.2168 40.9297C32.0443 40.8353 31.7839 40.7539 31.4355 40.6855C31.1426 40.6237 30.8773 40.5505 30.6396 40.4658C30.4053 40.3812 30.2051 40.2786 30.0391 40.1582C29.8763 40.0378 29.751 39.8962 29.6631 39.7334C29.5752 39.5706 29.5312 39.3802 29.5312 39.1621C29.5312 38.9538 29.5768 38.7568 29.668 38.5713C29.7624 38.3857 29.8942 38.2214 30.0635 38.0781C30.236 37.9349 30.4427 37.8226 30.6836 37.7412C30.9245 37.6598 31.193 37.6191 31.4893 37.6191C31.9124 37.6191 32.2738 37.694 32.5732 37.8438C32.8727 37.9935 33.1022 38.1937 33.2617 38.4443C33.4212 38.6917 33.501 38.9668 33.501 39.2695H32.5977C32.5977 39.123 32.5537 38.9814 32.4658 38.8447C32.3812 38.7048 32.2559 38.5892 32.0898 38.498C31.9271 38.4069 31.7269 38.3613 31.4893 38.3613C31.2386 38.3613 31.0352 38.4004 30.8789 38.4785C30.7259 38.5534 30.6136 38.6494 30.542 38.7666C30.4736 38.8838 30.4395 39.0075 30.4395 39.1377C30.4395 39.2354 30.4557 39.3232 30.4883 39.4014C30.5241 39.4762 30.5859 39.5462 30.6738 39.6113C30.7617 39.6732 30.8854 39.7318 31.0449 39.7871C31.2044 39.8424 31.4079 39.8978 31.6553 39.9531C32.0882 40.0508 32.4447 40.168 32.7246 40.3047C33.0046 40.4414 33.2129 40.609 33.3496 40.8076C33.4863 41.0062 33.5547 41.2471 33.5547 41.5303C33.5547 41.7614 33.5059 41.973 33.4082 42.165C33.3138 42.3571 33.1755 42.5231 32.9932 42.6631C32.8141 42.7998 32.5993 42.9072 32.3486 42.9854C32.1012 43.0602 31.8229 43.0977 31.5137 43.0977C31.0482 43.0977 30.6543 43.0146 30.332 42.8486C30.0098 42.6826 29.7656 42.4678 29.5996 42.2041C29.4336 41.9404 29.3506 41.6621 29.3506 41.3691H30.2588C30.2718 41.6165 30.3434 41.8135 30.4736 41.96C30.6038 42.1032 30.7633 42.2057 30.9521 42.2676C31.141 42.3262 31.3281 42.3555 31.5137 42.3555C31.7611 42.3555 31.9678 42.3229 32.1338 42.2578C32.3031 42.1927 32.4316 42.1032 32.5195 41.9893C32.6074 41.8753 32.6514 41.7451 32.6514 41.5986Z" fill="black"/>
<path d="M36.9336 43.0977C36.5658 43.0977 36.2321 43.0358 35.9326 42.9121C35.6364 42.7852 35.3809 42.6077 35.166 42.3799C34.9544 42.152 34.7917 41.8818 34.6777 41.5693C34.5638 41.2568 34.5068 40.915 34.5068 40.5439V40.3389C34.5068 39.9092 34.5703 39.5267 34.6973 39.1914C34.8242 38.8529 34.9967 38.5664 35.2148 38.332C35.4329 38.0977 35.6803 37.9202 35.957 37.7998C36.2337 37.6794 36.5202 37.6191 36.8164 37.6191C37.194 37.6191 37.5195 37.6842 37.793 37.8145C38.0697 37.9447 38.2959 38.127 38.4717 38.3613C38.6475 38.5924 38.7777 38.8659 38.8623 39.1816C38.9469 39.4941 38.9893 39.8359 38.9893 40.207V40.6123H35.0439V39.875H38.0859V39.8066C38.0729 39.5723 38.0241 39.3444 37.9395 39.123C37.8581 38.9017 37.7279 38.7194 37.5488 38.5762C37.3698 38.4329 37.1257 38.3613 36.8164 38.3613C36.6113 38.3613 36.4225 38.4053 36.25 38.4932C36.0775 38.5778 35.9294 38.7048 35.8057 38.874C35.682 39.0433 35.5859 39.25 35.5176 39.4941C35.4492 39.7383 35.415 40.0199 35.415 40.3389V40.5439C35.415 40.7946 35.4492 41.0306 35.5176 41.252C35.5892 41.4701 35.6917 41.6621 35.8252 41.8281C35.9619 41.9941 36.1263 42.1243 36.3184 42.2188C36.5137 42.3132 36.735 42.3604 36.9824 42.3604C37.3014 42.3604 37.5716 42.2952 37.793 42.165C38.0143 42.0348 38.208 41.8607 38.374 41.6426L38.9209 42.0771C38.807 42.2497 38.6621 42.4141 38.4863 42.5703C38.3105 42.7266 38.0941 42.8535 37.8369 42.9512C37.583 43.0488 37.2819 43.0977 36.9336 43.0977Z" fill="black"/>
<path d="M43.1201 41.5986C43.1201 41.4684 43.0908 41.348 43.0322 41.2373C42.9769 41.1234 42.8613 41.0208 42.6855 40.9297C42.513 40.8353 42.2526 40.7539 41.9043 40.6855C41.6113 40.6237 41.346 40.5505 41.1084 40.4658C40.874 40.3812 40.6738 40.2786 40.5078 40.1582C40.3451 40.0378 40.2197 39.8962 40.1318 39.7334C40.0439 39.5706 40 39.3802 40 39.1621C40 38.9538 40.0456 38.7568 40.1367 38.5713C40.2311 38.3857 40.363 38.2214 40.5322 38.0781C40.7048 37.9349 40.9115 37.8226 41.1523 37.7412C41.3932 37.6598 41.6618 37.6191 41.958 37.6191C42.3812 37.6191 42.7425 37.694 43.042 37.8438C43.3415 37.9935 43.571 38.1937 43.7305 38.4443C43.89 38.6917 43.9697 38.9668 43.9697 39.2695H43.0664C43.0664 39.123 43.0225 38.9814 42.9346 38.8447C42.8499 38.7048 42.7246 38.5892 42.5586 38.498C42.3958 38.4069 42.1956 38.3613 41.958 38.3613C41.7074 38.3613 41.5039 38.4004 41.3477 38.4785C41.1947 38.5534 41.0824 38.6494 41.0107 38.7666C40.9424 38.8838 40.9082 39.0075 40.9082 39.1377C40.9082 39.2354 40.9245 39.3232 40.957 39.4014C40.9928 39.4762 41.0547 39.5462 41.1426 39.6113C41.2305 39.6732 41.3542 39.7318 41.5137 39.7871C41.6732 39.8424 41.8766 39.8978 42.124 39.9531C42.557 40.0508 42.9134 40.168 43.1934 40.3047C43.4733 40.4414 43.6816 40.609 43.8184 40.8076C43.9551 41.0062 44.0234 41.2471 44.0234 41.5303C44.0234 41.7614 43.9746 41.973 43.877 42.165C43.7826 42.3571 43.6442 42.5231 43.4619 42.6631C43.2829 42.7998 43.068 42.9072 42.8174 42.9854C42.57 43.0602 42.2917 43.0977 41.9824 43.0977C41.5169 43.0977 41.123 43.0146 40.8008 42.8486C40.4785 42.6826 40.2344 42.4678 40.0684 42.2041C39.9023 41.9404 39.8193 41.6621 39.8193 41.3691H40.7275C40.7406 41.6165 40.8122 41.8135 40.9424 41.96C41.0726 42.1032 41.2321 42.2057 41.4209 42.2676C41.6097 42.3262 41.7969 42.3555 41.9824 42.3555C42.2298 42.3555 42.4365 42.3229 42.6025 42.2578C42.7718 42.1927 42.9004 42.1032 42.9883 41.9893C43.0762 41.8753 43.1201 41.7451 43.1201 41.5986Z" fill="black"/>
</svg>
