<svg width="50" height="50" viewBox="0 0 50 50" fill="none" xmlns="http://www.w3.org/2000/svg">
<path d="M11 11C11 8.79086 12.7909 7 15 7H28.1716C28.702 7 29.2107 7.21071 29.5858 7.58579L38.4142 16.4142C38.7893 16.7893 39 17.298 39 17.8284V39C39 41.2091 37.2091 43 35 43H15C12.7909 43 11 41.2091 11 39V11Z" fill="white"/>
<path fill-rule="evenodd" clip-rule="evenodd" d="M28.1716 7C28.702 7 29.2107 7.21071 29.5858 7.58579L38.4142 16.4142C38.7893 16.7893 39 17.298 39 17.8284V39C39 41.2091 37.2091 43 35 43H15C12.7909 43 11 41.2091 11 39V11C11 8.79086 12.7909 7 15 7H28.1716ZM28 14C28 16.2091 29.7909 18 32 18H38V39C38 40.6569 36.6568 42 35 42H15C13.3431 42 12 40.6569 12 39V11C12 9.34315 13.3431 8 15 8H28V14ZM29 14C29 15.6569 30.3431 17 32 17H37.5858L29 8.41426V14Z" fill="#AEB7CC"/>
<path d="M40.0192 37.3332C40.5813 37.3326 41.1201 37.1129 41.5175 36.7223C41.9149 36.3317 42.1385 35.8022 42.1391 35.2498V24.7498C42.1385 24.1975 41.9149 23.668 41.5175 23.2774C41.1201 22.8868 40.5813 22.6671 40.0192 22.6665H9.98121C9.41918 22.6671 8.88034 22.8868 8.48292 23.2774C8.08551 23.668 7.86196 24.1975 7.86133 24.7498V35.2498C7.86196 35.8022 8.08551 36.3317 8.48292 36.7223C8.88034 37.1129 9.41918 37.3326 9.98121 37.3332H40.0192ZM31.0612 25.8485L33.1734 31.9191L35.2173 25.8485H37.0041L34.0153 34.0517H32.2163L29.2331 25.8485H31.0612ZM26.7531 31.1717C26.5855 31.004 26.3767 30.8816 26.1468 30.8165C25.9493 30.7493 25.4995 30.63 24.7975 30.4584C23.8941 30.2385 23.2602 29.9681 22.896 29.6472C22.6524 29.4445 22.4572 29.1915 22.3244 28.9062C22.1916 28.6209 22.1244 28.3104 22.1275 27.9967C22.1274 27.5796 22.2532 27.1717 22.489 26.8248C22.7428 26.4508 23.1061 26.1611 23.5309 25.9941C24.0533 25.791 24.6121 25.6935 25.1738 25.7076C26.2214 25.7076 27.0099 25.9333 27.5393 26.3847C27.8019 26.6097 28.0122 26.8874 28.1561 27.1992C28.3 27.5109 28.374 27.8494 28.3732 28.1918L26.6882 28.2644C26.6543 27.9151 26.4888 27.5908 26.2242 27.3553C25.9097 27.1489 25.534 27.0514 25.1568 27.0785C24.7512 27.0557 24.3487 27.1595 24.0068 27.3751C23.9223 27.4311 23.8536 27.5071 23.8068 27.5961C23.76 27.685 23.7368 27.7841 23.7392 27.8842C23.7394 27.9805 23.7621 28.0755 23.8055 28.1618C23.8489 28.2481 23.9119 28.3235 23.9896 28.3821C24.2015 28.5575 24.7177 28.7402 25.5381 28.9303C26.1659 29.0564 26.7763 29.2545 27.357 29.5207C27.7356 29.7111 28.0544 29.9992 28.2791 30.354C28.5085 30.7575 28.6234 31.2142 28.6119 31.6762C28.6003 32.1383 28.4628 32.5888 28.2137 32.9808C27.9445 33.3941 27.5503 33.714 27.0864 33.8957C26.5068 34.1114 25.8897 34.2131 25.2702 34.1949C24.2151 34.1949 23.4047 33.9552 22.8393 33.4759C22.2406 32.931 21.8778 32.1809 21.826 31.3806L23.4657 31.2243C23.5189 31.6781 23.7313 32.0995 24.0664 32.416C24.4129 32.6844 24.8469 32.8196 25.2875 32.7965C25.7241 32.8277 26.1581 32.7079 26.5143 32.4579C26.6402 32.3658 26.7429 32.2466 26.8145 32.1093C26.8861 31.972 26.9246 31.8205 26.9272 31.6662C26.9317 31.4862 26.8699 31.3105 26.7531 31.1717ZM14.5542 26.8415C14.9161 26.465 15.3559 26.169 15.844 25.9736C16.3321 25.7781 16.8571 25.6877 17.3837 25.7084C18.3001 25.6703 19.1945 25.9901 19.8717 26.598C20.2904 27.0161 20.5856 27.5382 20.7257 28.1084L19.0577 28.4991C18.9805 28.1007 18.7606 27.7428 18.4378 27.4902C18.115 27.2377 17.7107 27.1073 17.2984 27.1228C17.0135 27.1138 16.7302 27.168 16.4695 27.2813C16.2088 27.3947 15.9774 27.5642 15.7925 27.7774C15.4072 28.2139 15.2146 28.9208 15.2146 29.898C15.2146 30.935 15.4043 31.6735 15.7838 32.1136C15.963 32.3273 16.1895 32.4978 16.4461 32.6122C16.7026 32.7266 16.9824 32.7819 17.264 32.7738C17.6892 32.782 18.1019 32.6322 18.4196 32.3543C18.7853 31.9959 19.0281 31.5344 19.1141 31.034L20.748 31.5431C20.5692 32.3262 20.1294 33.0282 19.4983 33.5376C18.8535 33.991 18.0732 34.2201 17.2809 34.1886C16.7709 34.2041 16.2634 34.1126 15.7922 33.9201C15.321 33.7277 14.897 33.4387 14.5484 33.0725C13.8349 32.3284 13.4781 31.311 13.4781 30.0204C13.4783 28.6565 13.837 27.5969 14.5542 26.8415Z" fill="#A36BAE"/>
</svg>
