<svg width="50" height="50" viewBox="0 0 50 50" fill="none" xmlns="http://www.w3.org/2000/svg">
<path d="M17.6833 8.48593C19.6545 7.40321 22.1731 8.18019 23.0997 10.3155C24.1213 12.6696 22.6441 15.2386 20.2405 15.658C20.0188 15.6967 19.7915 15.7162 19.5663 15.7201C18.9796 15.7301 18.3922 15.7136 17.8058 15.7311C16.6565 15.7653 15.7437 16.7087 15.7313 17.8635C15.7254 18.4151 15.7292 18.9668 15.7305 19.5185C15.733 20.6058 15.3442 21.5321 14.583 22.3037C14.2055 22.6864 13.8225 23.0635 13.4436 23.4447C12.5667 24.3271 12.5647 25.665 13.4382 26.5445C13.8169 26.9258 14.1973 27.3054 14.5753 27.6875C15.3377 28.4584 15.728 29.3837 15.7269 30.471C15.7263 31.0156 15.7238 31.5602 15.7275 32.1047C15.7343 33.1234 16.411 33.9809 17.3987 34.2124C17.5827 34.2556 17.7763 34.2713 17.9658 34.2742C18.496 34.2823 19.0264 34.2766 19.5568 34.2772C20.6204 34.2783 21.5283 34.6608 22.2864 35.4011C22.676 35.7816 23.0562 36.1715 23.4425 36.5553C24.3352 37.4422 25.6687 37.4436 26.5578 36.5604C26.9542 36.1667 27.3476 35.7699 27.7488 35.3813C28.4879 34.6653 29.3756 34.2979 30.404 34.2822C30.9625 34.2736 31.5213 34.282 32.0799 34.2802C33.1682 34.2766 34.036 33.5602 34.2414 32.4925C34.2653 32.3686 34.2701 32.2397 34.2708 32.113C34.2739 31.5825 34.2717 31.0521 34.2722 30.5216C34.2734 29.4064 34.6607 28.4509 35.4537 27.6626C35.8248 27.2936 36.1948 26.9235 36.5637 26.5523C37.4483 25.6623 37.4459 24.3285 36.5585 23.4379C36.1792 23.0571 35.7969 22.6793 35.419 22.297C34.6674 21.5367 34.2805 20.6179 34.2749 19.5512C34.2657 17.8137 35.4495 16.2559 37.1332 15.8307C38.5735 15.4669 39.8738 15.7564 40.9408 16.8309C41.638 17.5331 41.9752 18.3967 41.9987 19.3912C42.0267 20.5781 41.6093 21.5713 40.7641 22.3956C40.4097 22.7412 40.0625 23.0942 39.7135 23.4453C38.8366 24.3272 38.8341 25.6657 39.7079 26.5445C40.0919 26.9306 40.4812 27.3115 40.862 27.7007C41.7139 28.5715 42.0865 29.62 41.9795 30.8302C41.837 32.4424 40.6168 33.8261 39.034 34.1965C38.7082 34.2727 38.3782 34.2999 38.0453 34.3013C37.5362 34.3034 37.0269 34.3096 36.5179 34.3003C35.2701 34.2774 34.2819 35.2955 34.3059 36.5163C34.3162 37.0395 34.3079 37.563 34.3076 38.0864C34.3064 40.0299 32.9785 41.6303 31.0671 41.9434C29.8348 42.1452 28.7392 41.8051 27.818 40.9586C27.3861 40.5618 26.9835 40.1332 26.5677 39.7189C25.6684 38.8229 24.3401 38.8219 23.4375 39.7179C23.0611 40.0916 22.6881 40.4686 22.312 40.8427C21.5131 41.6375 20.5465 42.0327 19.4233 41.9931C17.4674 41.924 16.0444 40.4723 15.764 38.824C15.7204 38.5674 15.7016 38.3044 15.6962 38.0438C15.6857 37.5418 15.6754 37.0388 15.6967 36.5375C15.7448 35.4054 14.8366 34.2918 13.484 34.3014C12.9395 34.3052 12.3948 34.3106 11.8505 34.3001C10.4782 34.2735 9.39564 33.689 8.63699 32.5497C7.62579 31.031 7.83894 29.0413 9.13123 27.7167C9.51147 27.3269 9.90103 26.9463 10.2853 26.5605C11.1805 25.6617 11.179 24.3303 10.282 23.4308C9.90751 23.0552 9.53031 22.6823 9.15748 22.305C8.35441 21.4925 7.95905 20.5117 8.01168 19.3719C8.09741 17.5157 9.44002 16.1156 11.0565 15.7812C11.3312 15.7244 11.6165 15.7034 11.8977 15.6968C12.4489 15.6839 13.0008 15.6991 13.5523 15.6914C14.5891 15.6769 15.4417 14.9759 15.6542 13.9619C15.6901 13.7905 15.697 13.6111 15.6996 13.4352C15.7084 12.8271 15.6807 12.2172 15.7191 11.6113C15.8022 10.3002 16.4297 9.29734 17.5241 8.58075C17.5714 8.54977 17.621 8.52231 17.6833 8.48593Z" fill="#77FE77"/>
<path d="M32.0776 8.43044C33.1058 9.00391 33.7542 9.8491 33.9831 10.991C34.4063 13.1023 32.9893 15.0142 31.0386 15.3736C28.9623 15.7561 27.0242 14.4118 26.6732 12.3275C26.338 10.3367 27.6449 8.50924 29.5283 8.09361C30.4108 7.89883 31.2581 8.01157 32.0776 8.43044Z" fill="#77FE77"/>
</svg>
