<svg width="50" height="50" viewBox="0 0 50 50" fill="none" xmlns="http://www.w3.org/2000/svg">
<path d="M26.7969 21.4078L30.6209 22.8105C31.2396 23.0291 31.9916 22.7385 31.9916 22.2771V12.5891C31.9916 12.3678 31.8049 12.1705 31.5062 12.0558L27.6822 10.6611C27.0636 10.4425 26.3116 10.7331 26.3116 11.1945V20.8745C26.3116 21.0985 26.4982 21.3011 26.7969 21.4078Z" fill="#10363D"/>
<path d="M26.7969 38.8025L30.6209 40.1998C31.2396 40.4185 31.9916 40.1278 31.9916 39.6665V29.9865C31.9758 29.8583 31.9207 29.7381 31.8337 29.6426C31.7468 29.5471 31.6324 29.4809 31.5062 29.4531L27.6822 28.0505C27.0636 27.8318 26.3116 28.1251 26.3116 28.5838V38.2718C26.3273 38.4 26.3825 38.5201 26.4694 38.6157C26.5563 38.7112 26.6707 38.7774 26.7969 38.8051" fill="#10363D"/>
<path d="M19.7116 18.1651L23.5382 19.5705C24.1569 19.7891 24.9009 19.4958 24.9009 19.0371V8.49579C24.9009 8.27446 24.7169 8.07179 24.4182 7.96246L20.5996 6.56246C19.9782 6.34379 19.2289 6.63446 19.2289 7.09579V17.6345C19.2441 17.7624 19.2987 17.8825 19.3852 17.9781C19.4717 18.0736 19.5857 18.1399 19.7116 18.1678" fill="#10363D"/>
<path d="M19.7116 41.3918L23.5382 42.7971C24.1569 43.0158 24.9009 42.7251 24.9009 42.2638V31.7518C24.8849 31.6241 24.8301 31.5044 24.7437 31.409C24.6573 31.3136 24.5437 31.247 24.4182 31.2185L20.5996 29.8158C19.9782 29.5971 19.2289 29.8878 19.2289 30.3491V40.8638C19.2441 40.9918 19.2987 41.1119 19.3852 41.2074C19.4717 41.303 19.5857 41.3693 19.7116 41.3971" fill="#10363D"/>
<path d="M17.8236 8.89313C17.8236 8.67179 17.6369 8.47179 17.3382 8.35979L13.5142 6.95713C12.8956 6.73846 12.1436 7.03179 12.1436 7.49046V40.4665C12.1593 40.5947 12.2145 40.7148 12.3014 40.8103C12.3883 40.9059 12.5027 40.9721 12.6289 40.9998L16.4662 42.4025C17.0849 42.6211 17.8369 42.3305 17.8369 41.8691L17.8236 8.89313Z" fill="#10363D"/>
<path d="M38.5996 17.6478L34.7729 16.2425C34.1569 16.0265 33.4102 16.3171 33.4102 16.7758V32.6905C33.4102 32.9118 33.5942 33.1145 33.8956 33.2238L37.7196 34.6265C38.3382 34.8451 39.0902 34.5545 39.0902 34.0931V18.1785C39.0902 17.9571 38.9036 17.7545 38.6049 17.6451" fill="#10363D"/>
</svg>
