<svg width="50" height="50" viewBox="0 0 50 50" fill="none" xmlns="http://www.w3.org/2000/svg">
<path d="M3.00177 38.6074C3.00177 29.5388 3.00177 20.4719 3.00177 11.4032C3.01593 11.3572 3.03717 11.3129 3.04425 11.2669C3.10266 10.8776 3.1416 10.4829 3.21948 10.0971C3.94516 6.54499 6.97533 3.67077 10.5542 3.1292C10.8374 3.08672 11.1206 3.04248 11.4038 3C20.4713 3 29.5388 3 38.6063 3C38.6505 3.01416 38.6948 3.0354 38.7408 3.04248C39.1231 3.10088 39.5125 3.13805 39.8913 3.21592C43.9923 4.07429 46.9994 7.77857 46.9994 11.9642C46.9994 20.6205 47.003 29.2768 46.9923 37.9349C46.9923 38.5101 46.9339 39.0941 46.8313 39.6605C46.0578 43.8904 42.3143 47 38.0204 47C29.3565 47 20.6943 47 12.0303 47C11.2498 47 10.4745 46.9239 9.72585 46.6991C6.07442 45.6001 3.86728 43.1825 3.12921 39.4339C3.07611 39.1596 3.04248 38.8817 3 38.6056L3.00177 38.6074ZM22.7315 19.0489C22.5616 18.941 22.4342 18.856 22.3032 18.7746C20.1438 17.4313 17.7827 17.049 15.3171 17.4915C11.8498 18.1127 9.44619 20.1639 7.9789 23.3195C7.30808 24.7602 7.12755 26.3088 7.22135 27.891C7.301 29.2485 7.59482 30.5564 8.25855 31.744C10.0108 34.8837 12.6162 36.7809 16.2641 37.096C17.6606 37.2163 19.0288 37.0623 20.358 36.6163C23.5616 35.5403 27.0201 32.1705 27.0007 27.2964C26.9794 22.1833 26.9953 17.0702 26.9953 11.9572C26.9953 11.8757 26.9953 11.7926 26.9953 11.7094H22.728V19.0489H22.7315ZM39.6683 17.3286H34.0256V11.7058H29.7706C29.7706 11.805 29.7706 11.8881 29.7706 11.9731C29.7706 17.1357 29.7689 22.2983 29.7742 27.4627C29.7742 27.8999 29.8078 28.3388 29.8698 28.7724C30.1671 30.8484 31.0786 32.6218 32.5371 34.1226C34.1778 35.8111 36.1549 36.8252 38.5054 37.0765C38.8877 37.1172 39.2736 37.1225 39.6665 37.1455V32.8873C39.3621 32.8554 39.0665 32.8342 38.7744 32.7935C36.1177 32.4112 34.0345 30.0131 34.0345 27.3335C34.0345 25.5088 34.0345 23.6841 34.0345 21.8594C34.0345 21.778 34.0345 21.6966 34.0345 21.601C34.9973 21.601 35.9301 21.601 36.8629 21.601C37.7956 21.601 38.7249 21.601 39.6683 21.601V17.3286Z" fill="#144983"/>
<path d="M22.7298 27.2291C22.7315 30.3511 20.2182 32.8625 17.1013 32.8696C14.0216 32.8767 11.4604 30.3316 11.4657 27.2256C11.471 24.116 14.0251 21.5992 17.0924 21.5939C20.2713 21.5886 22.7811 24.2487 22.7298 27.2273V27.2291Z" fill="#144983"/>
</svg>
