<svg width="50" height="50" viewBox="0 0 50 50" fill="none" xmlns="http://www.w3.org/2000/svg">
<path fill-rule="evenodd" clip-rule="evenodd" d="M4 20V29.9285H7.4141C8.28751 29.924 9.08414 29.7195 9.79842 29.312L9.79883 29.3118C10.5173 28.8999 11.0741 28.3308 11.4658 27.6081C11.8616 26.8818 12.0569 26.0658 12.0569 25.1655V24.7293C12.0523 23.8369 11.8498 23.0252 11.4451 22.2994C11.0446 21.5689 10.4832 21.0015 9.7632 20.6024C9.04394 20.1994 8.23642 20 7.34663 20H4ZM8.90883 22.6918C8.55138 22.2286 8.03064 21.997 7.34663 21.997H6.56553V27.938H7.3731C8.03948 27.938 8.55138 27.7064 8.90883 27.2433C9.26628 26.7758 9.445 26.0832 9.445 25.1655V24.7565C9.445 23.8432 9.26628 23.1549 8.90883 22.6918Z" fill="#171515"/>
<path fill-rule="evenodd" clip-rule="evenodd" d="M15.7042 29.9285L16.2603 28.1625H19.0877L19.6503 29.9285H22.6714L18.9312 20H16.4091L12.6967 29.9285H15.7042ZM18.3808 25.928H16.9659L17.6711 23.6887L18.3808 25.928Z" fill="#171515"/>
<path d="M32.3094 29.9285V27.7006H27.9194L32.2631 21.4797V20H24.2922V22.2345H28.6921L24.3187 28.4156V29.9285H32.3094Z" fill="#171515"/>
<path d="M42.4554 29.9285V27.7006H38.0654L42.4093 21.4797V20H34.4384V22.2345H38.8383L34.4648 28.4156V29.9285H42.4554Z" fill="#171515"/>
<path d="M45.7922 30C46.4591 30 47 29.467 47 28.8095C47 28.1521 46.4591 27.6191 45.7922 27.6191C45.1251 27.6191 44.5841 28.1521 44.5841 28.8095C44.5841 29.467 45.1251 30 45.7922 30Z" fill="#F36962"/>
</svg>
