<svg width="100" height="100" viewBox="0 0 100 100" fill="none" xmlns="http://www.w3.org/2000/svg">
<g clip-path="url(#clip0_5094_365)">
<path fill-rule="evenodd" clip-rule="evenodd" d="M30.9326 61.5202H35.5707V38.2402H30.9326V61.5202Z" fill="#4B4F53"/>
<path fill-rule="evenodd" clip-rule="evenodd" d="M45.4816 54.4433C45.4816 56.7172 46.5387 58.0464 49.8617 58.0464C51.1459 58.0464 52.468 57.9416 53.7513 57.7668V50.6996H58.2451V60.9504C55.6021 61.6501 52.468 62 49.8238 62C43.6694 62 40.7236 59.5858 40.7236 54.9679V45.0315C40.7236 40.2388 43.7449 38 50.2775 38C52.3161 38 55.2242 38.2096 57.4899 38.7694L56.9609 42.6179C54.6573 42.1632 52.3546 41.9879 49.8993 41.9879C46.5766 41.9879 45.4816 43.2477 45.4816 45.6267V54.4433Z" fill="#4B4F53"/>
<path fill-rule="evenodd" clip-rule="evenodd" d="M63.6562 61.5202H68.2943V38.2402H63.6562V61.5202Z" fill="#4B4F53"/>
<path fill-rule="evenodd" clip-rule="evenodd" d="M74.4785 54.5602V38.2402H92L74.4785 54.5602Z" fill="#84C361"/>
<path fill-rule="evenodd" clip-rule="evenodd" d="M17.2655 38.2402H8V42.1362L16.7793 42.1199C19.9551 42.1199 20.8142 43.3084 20.8142 45.5456V54.2143C20.8142 56.4515 19.9551 57.6403 16.7793 57.6403H12.7073V44.3176L8 48.722V61.5202H17.2655C23.3924 61.5202 25.5215 58.5839 25.5215 55.263V44.4969C25.5215 41.1411 23.3924 38.2402 17.2655 38.2402Z" fill="#4B4F53"/>
<path fill-rule="evenodd" clip-rule="evenodd" d="M71.606 60.302C71.7906 60.302 71.8999 60.2288 71.8999 60.0947C71.8999 59.973 71.825 59.8937 71.6201 59.8937H71.4286V60.302H71.606ZM71.1482 59.6868H71.6676C71.9549 59.6868 72.2007 59.7904 72.2007 60.0827C72.2007 60.2288 72.0983 60.3688 71.948 60.4175L72.2622 60.923H71.948L71.7085 60.4969H71.4286V60.923H71.1482V59.6868ZM72.6586 60.3201C72.6586 59.7475 72.2144 59.3395 71.6404 59.3395C71.0663 59.3395 70.6288 59.7475 70.6288 60.3201C70.6288 60.8988 71.0663 61.2947 71.6404 61.2947C72.2144 61.2947 72.6586 60.8988 72.6586 60.3201ZM70.3555 60.3201C70.3555 59.6075 70.9364 59.1201 71.6404 59.1201C72.3509 59.1201 72.9322 59.6075 72.9322 60.3201C72.9322 61.0327 72.3509 61.5201 71.6404 61.5201C70.9364 61.5201 70.3555 61.0327 70.3555 60.3201Z" fill="#4B4F53"/>
</g>
<defs>
<clipPath id="clip0_5094_365">
<rect width="84" height="24" fill="white" transform="translate(8 38)"/>
</clipPath>
</defs>
</svg>
