<svg width="50" height="50" viewBox="0 0 50 50" fill="none" xmlns="http://www.w3.org/2000/svg">
<rect width="50" height="50" fill="white"/>
<path d="M38.7869 6V35.7247C38.7869 38.6264 38.8912 41.6804 39 43.4223H31.7968L31.3163 39.6788C29.7161 42.5267 26.5111 44 23.1565 44C16.9597 44 12.0004 38.7832 12.0004 30.7721C11.946 22.0893 17.4402 17.0158 23.6824 17.0158C26.9372 17.0158 29.3942 18.1756 30.5683 19.913L30.6726 6H38.7869ZM30.6726 28.5555C30.6879 28.0622 30.653 27.5686 30.5683 27.0823C30.1262 24.8319 28.0845 23.1992 25.8175 23.1819C22.0822 23.1819 20.2145 26.4464 20.2145 30.5079C20.2145 34.8829 22.404 37.6234 25.7677 37.6234C28.0261 37.6365 30.0755 36.0195 30.5139 33.7768C30.6222 33.1707 30.6753 32.5563 30.6726 31.9408V28.5555Z" fill="#0268D9"/>
</svg>
