<svg width="50" height="50" viewBox="0 0 50 50" fill="none" xmlns="http://www.w3.org/2000/svg">
<path d="M15.5178 38.4954L27.3329 38.5017C37.0045 38.507 43.9884 33.0156 43.9932 24.515C43.998 16.0149 37.0189 10.5097 27.3484 10.5044L15.5332 10.498V10.56C15.5966 10.498 23.0186 17.2964 23.0186 17.2964L27.0094 17.2985C32.396 17.3017 36.6064 19.3818 36.6038 24.5129C36.6011 29.6439 32.3881 31.7193 27.0014 31.7166L23.0058 31.7145L15.5156 38.4986L15.5178 38.4954Z" fill="#002536"/>
<path d="M15.5122 17.8608C17.4399 20.7296 20.0386 22.7203 23.2566 23.8896L25.0106 24.493L23.2561 25.0943C20.037 26.2587 17.5843 28.2478 15.5052 31.1145C13.5775 28.2457 10.9788 26.255 7.76081 25.0858L6.00684 24.4829L7.76134 23.8816C10.9804 22.7172 13.5818 20.7281 15.5122 17.8608Z" fill="#002536"/>
</svg>
