<svg width="50" height="50" viewBox="0 0 50 50" fill="none" xmlns="http://www.w3.org/2000/svg">
<path d="M21.4565 17.9969L28.3373 21.1576L35.2713 15.0237C35.7029 12.8894 35.1873 10.5958 33.9074 8.84375C30.8302 4.63126 24.2428 4.6859 21.2705 9.06391L20.1149 15.1041L21.4565 17.9969Z" fill="#FED10A"/>
<path d="M14.3366 25.3367C14.2341 25.8525 14.1852 26.3777 14.1905 26.9037C14.1946 30.3056 16.4593 33.3932 19.6845 34.3932C22.9097 35.3931 26.5036 34.1219 28.4026 31.3099L29.5449 25.2966L28.0174 22.3502L21.1106 19.1761L14.3366 25.3367Z" fill="#24BBB1"/>
<path d="M14.2967 13.3365L19.0123 14.4616L20.0484 9.06372C18.7496 8.0609 16.8983 8.04363 15.5812 9.02203C14.2641 10.0005 13.7318 11.7884 14.2967 13.3365Z" fill="#EF5098"/>
<path d="M13.885 14.476C11.8173 15.1601 10.3621 17.1373 10.3119 19.3308C10.2617 21.5243 11.625 23.567 13.6592 24.3465L20.2746 18.3198L19.0657 15.7082L13.885 14.476Z" fill="#17A8E0"/>
<path d="M29.5992 31.3091C30.8988 32.2995 32.7409 32.3099 34.0514 31.3343C35.3618 30.3586 35.8941 28.5805 35.3377 27.0368L30.6353 25.9252L29.5992 31.3091Z" fill="#93C83E"/>
<path d="M30.5556 24.6825L35.7362 25.9015C37.8042 25.2172 39.259 23.2393 39.3092 21.0455C39.3594 18.8518 37.9965 16.8084 35.962 16.0286L29.1874 22.0167L30.5556 24.6825Z" fill="#0779A1"/>
<path fill-rule="evenodd" clip-rule="evenodd" d="M24.7227 39.6191C26.2337 39.6191 26.8955 40.7088 26.8955 42.207V42.6123H23.3242C23.3468 43.5083 23.9105 44.3604 24.8887 44.3604C25.5267 44.3604 25.9482 44.0788 26.2803 43.6426L26.8271 44.0771C26.4866 44.5928 25.8926 45.0977 24.8398 45.0977C23.3049 45.0977 22.4131 43.8137 22.4131 42.3389C22.4131 40.997 23.2791 39.6191 24.7227 39.6191ZM24.7227 40.3613C24.012 40.3613 23.4718 40.896 23.3486 41.875H25.9922C25.9922 41.0893 25.5576 40.3613 24.7227 40.3613Z" fill="#1C1D1F"/>
<path fill-rule="evenodd" clip-rule="evenodd" d="M30.0254 39.6191C31.5364 39.6191 32.1982 40.7088 32.1982 42.207V42.6123H28.627C28.6495 43.5083 29.2132 44.3604 30.1914 44.3604C30.8294 44.3604 31.251 44.0788 31.583 43.6426L32.1299 44.0771C31.7893 44.5928 31.1953 45.0977 30.1426 45.0977C28.6077 45.0977 27.7158 43.8137 27.7158 42.3389C27.7158 40.6092 28.843 39.6191 30.0254 39.6191ZM30.0254 40.3613C29.3147 40.3613 28.7745 40.896 28.6514 41.875H31.2949C31.2949 41.0893 30.8604 40.3613 30.0254 40.3613Z" fill="#1C1D1F"/>
<path d="M34.4785 39.7168H35.4648V40.4102H34.4785V43.6914C34.4785 44.0495 34.6006 44.2188 34.7764 44.2773C35.0064 44.354 35.2535 44.316 35.4844 44.2627L35.4893 45C35.0767 45.1313 34.5791 45.1545 34.1807 44.9658C33.8085 44.7895 33.5752 44.3876 33.5752 43.6865V40.4102H32.6084V39.7168H33.5752V38.4326H34.4785V39.7168Z" fill="#1C1D1F"/>
<path d="M19.2295 37.8906V38.6621H15.7676V41.0889H18.7461V41.8604H15.7676V45H14.8252V37.8906H19.2295Z" fill="#1C1D1F"/>
<path d="M21.1973 45H20.2891V37.5H21.1973V45Z" fill="#1C1D1F"/>
</svg>
