<svg width="50" height="50" viewBox="0 0 50 50" fill="none" xmlns="http://www.w3.org/2000/svg">
<path d="M11.4796 12C9.85068 12 7 14.5665 7 17.7325V18.6879H17.181V12H11.4796Z" fill="#E1251B"/>
<path d="M19.8688 12V18.6879H30.0498V12H19.8688Z" fill="#E1251B"/>
<path d="M43 17.7325C43 14.5665 39.7421 12 38.6833 12H32.7376V18.6879H43V17.7325Z" fill="#E1251B"/>
<path d="M43 21.3949H32.7376V27.7643H43V21.3949Z" fill="#E1251B"/>
<path d="M38.6833 37C39.9864 37 43 34.4335 43 31.2675V30.6306H32.7376V37H38.6833Z" fill="#E1251B"/>
<path d="M19.8688 30.6306V37H30.0498V30.6306H19.8688Z" fill="#E1251B"/>
<path d="M7 31.2675C7 34.4335 9.60633 37 11.4796 37H17.181V30.6306H7V31.2675Z" fill="#E1251B"/>
<path d="M17.181 21.3949H7V27.7643H17.181V21.3949Z" fill="#E1251B"/>
</svg>
