<svg width="50" height="50" viewBox="0 0 50 50" fill="none" xmlns="http://www.w3.org/2000/svg">
<path fill-rule="evenodd" clip-rule="evenodd" d="M39.2062 5.00018H24.9344L24.9355 5.00379C14.4634 5.11431 6 13.8002 6 24.5692C5.99967 27.1229 6.48997 29.6517 7.44287 32.0108C8.39576 34.3699 9.79254 36.513 11.5533 38.3175C13.3142 40.1219 15.4042 41.5524 17.704 42.5274C20.0038 43.5024 22.4683 44.0028 24.9566 44H25.0643C30.0859 43.9987 34.9015 41.9509 38.4524 38.3067C42.0032 34.6626 43.9986 29.7204 43.9998 24.5668V9.91976C44.0053 9.27215 43.885 8.62991 43.6461 8.0305C43.4071 7.4311 43.0542 6.88654 42.608 6.42859C42.1618 5.97065 41.6312 5.60849 41.0471 5.36324C40.4631 5.11799 39.8373 4.99458 39.2062 5.00018ZM18.7818 16.3015C20.4136 14.6268 22.6267 13.686 24.9344 13.686C29.8708 13.686 33.7571 17.6962 33.6366 22.7275V28.6658C33.6406 29.3341 33.4225 29.9838 33.0181 30.5076C32.6137 31.0314 32.0473 31.3979 31.4124 31.5467V31.7677C31.4066 32.7061 31.0408 33.6044 30.3942 34.2679C29.7476 34.9315 28.8724 35.3069 27.958 35.3129H25.2809C25.035 35.3021 24.8395 35.0883 24.8278 34.848C24.8278 34.6257 25.0655 34.5152 25.2809 34.5152H27.9381C28.6447 34.5038 29.3191 34.2106 29.8188 33.6978C30.3185 33.185 30.6041 32.4928 30.6153 31.7677V31.6572H28.3911V24.6893H31.7589V22.7395C31.567 19.0789 28.596 16.1957 25.0116 16.1957C21.4273 16.1957 18.4668 19.0669 18.2643 22.7395V24.6893H21.5888V31.6572H19.127C18.365 31.6394 17.639 31.3209 17.1 30.7677C16.561 30.2146 16.2506 29.4695 16.2333 28.6874V22.6157C16.2333 20.2474 17.1501 17.9761 18.7818 16.3015Z" fill="#25C16F"/>
</svg>
