<svg width="50" height="50" viewBox="0 0 50 50" fill="none" xmlns="http://www.w3.org/2000/svg">
<path fill-rule="evenodd" clip-rule="evenodd" d="M32.5592 7.758C31.376 6.74064 29.6013 6.75271 28.4215 7.76207C27.4731 8.57363 26.2582 9.02049 24.9998 9.02049C23.7418 9.02049 22.5269 8.57354 21.5788 7.76209C20.3982 6.75191 18.623 6.74143 17.4402 7.75867L17.4342 7.76377L17.4283 7.76896C13.8435 10.9356 13.4354 14.6516 13.5438 16.8336L12.0859 17.897C10.7785 18.8342 10 20.3399 10 21.9307V23.8477C10 30.0044 12.4487 36.0926 16.5249 39.7192C19.6217 42.474 22.3455 43.9954 24.9993 44H25.0035C27.6549 43.9954 30.3788 42.4738 33.4751 39.719C37.5517 36.0926 40 30.0042 40 23.8477V21.9307C40 20.3414 39.2231 18.8352 37.9203 17.9014L36.4586 16.8353C36.5614 14.5785 36.0727 10.8433 32.5684 7.76603L32.5638 7.762L32.5592 7.758Z" fill="white"/>
<path fill-rule="evenodd" clip-rule="evenodd" d="M24.3167 15.4541C24.1579 15.2937 23.9467 15.0804 23.6367 14.8014C21.5407 12.9153 18.7704 12.3937 16.5511 13.8726C17.0166 12.2726 17.9411 10.8395 19.2131 9.74594C19.3805 9.60207 19.6374 9.60554 19.8112 9.75414C21.2545 10.9847 23.0511 11.6627 24.9999 11.6627C26.9488 11.6627 28.7502 10.9847 30.1886 9.75414C30.3621 9.60554 30.6194 9.60207 30.7868 9.74594C32.0737 10.8525 32.9884 12.2906 33.4487 13.8726C31.2294 12.3937 28.4592 12.9153 26.3632 14.8014C26.0532 15.0804 25.8419 15.2937 25.6831 15.4541C25.3694 15.7709 25.2606 15.8808 24.9999 15.8808C24.7393 15.8808 24.6304 15.7709 24.3167 15.4541ZM17.9652 23.6352C19.5925 25.1357 21.6618 26.0554 23.8998 26.2842C24.8374 27.8526 25.3536 29.8267 25.3536 31.8697C25.3536 35.0199 24.0234 38.0308 21.6971 40.1924C20.6927 39.6049 19.5922 38.7783 18.3837 37.703C16.3774 35.9181 14.8127 33.3851 13.85 30.508L17.9652 23.6352Z" fill="#32466E"/>
<path fill-rule="evenodd" clip-rule="evenodd" d="M13.7261 20.0877L15.1192 19.0717C15.4809 20.2997 16.0746 21.4488 16.8741 22.461L13.2806 28.4621C12.9465 26.9691 12.7689 25.4148 12.7689 23.8476V21.9305C12.7689 21.1945 13.1155 20.5244 13.7261 20.0877ZM34.9019 19.0869L36.28 20.0922C36.8845 20.5244 37.2315 21.1942 37.2315 21.9303V23.8474C37.2315 27.7976 36.1071 31.6659 34.1763 34.6706C34.7503 33.0702 35.0767 31.3876 35.0767 29.7877C35.0767 27.2636 34.3437 24.8331 32.9547 22.7308C33.8743 21.6543 34.5421 20.3272 34.9019 19.0869Z" fill="white"/>
<path fill-rule="evenodd" clip-rule="evenodd" d="M34.1763 34.6706C36.1071 31.6659 37.2315 27.7976 37.2315 23.8474V21.9303C37.2315 21.1942 36.8845 20.5244 36.28 20.0922L34.9019 19.0869C34.5421 20.3272 33.8743 21.6543 32.9547 22.7308C34.3437 24.8331 35.0767 27.2636 35.0767 29.7877C35.0767 31.3876 34.7503 33.0702 34.1763 34.6706ZM25.0013 41.2799C26.1351 41.2783 27.4461 40.7817 28.9641 39.7789C31.5771 37.6704 33.5301 33.4178 33.5301 29.7875C33.5301 27.6758 32.948 25.6388 31.8439 23.8524C30.1414 25.3227 27.988 26.1828 25.6685 26.3207C26.4667 27.9639 26.9 29.8935 26.9 31.8699C26.9 35.252 25.5467 38.4913 23.1626 40.9051C23.8213 41.1533 24.4336 41.2792 25.0013 41.2799ZM18.3837 37.703C19.5922 38.7783 20.6927 39.6049 21.6971 40.1924C24.0234 38.0308 25.3536 35.0199 25.3536 31.8697C25.3536 29.8267 24.8374 27.8526 23.8998 26.2842C21.6618 26.0554 19.5925 25.1357 17.9652 23.6352L13.85 30.508C14.8127 33.3851 16.3774 35.9181 18.3837 37.703ZM12.7689 21.9305V23.8476C12.7689 25.4148 12.9465 26.9691 13.2806 28.4621L16.8741 22.461C16.0746 21.4488 15.4809 20.2997 15.1192 19.0717L13.7261 20.0877C13.1155 20.5244 12.7689 21.1945 12.7689 21.9305ZM26.3556 16.9916C25.8689 17.573 25.488 18.028 24.9996 18.028C24.5113 18.028 24.1306 17.5731 23.6442 16.992C23.4435 16.7523 23.225 16.4911 22.9734 16.2314C21.4234 14.6091 19.4421 14.203 18.0014 14.7659C16.7708 15.2467 16.1801 16.3567 16.3436 17.7718C16.6481 19.5343 17.4769 21.1368 18.7563 22.3875C20.3914 23.9862 22.586 24.8665 24.9996 24.8665C27.4136 24.8665 29.6082 23.9862 31.2432 22.3875C32.5223 21.1368 33.3511 19.5343 33.656 17.7718C33.8192 16.3567 33.2288 15.2467 31.9978 14.7659C30.5578 14.203 28.5765 14.6091 27.0263 16.2314C26.7748 16.491 26.5563 16.752 26.3556 16.9916ZM30.1886 9.75414C28.7502 10.9847 26.9488 11.6627 24.9999 11.6627C23.0511 11.6627 21.2545 10.9847 19.8112 9.75414C19.6374 9.60554 19.3805 9.60207 19.2131 9.74594C17.9411 10.8395 17.0166 12.2726 16.5511 13.8726C18.7704 12.3937 21.5407 12.9153 23.6367 14.8014C23.9467 15.0804 24.1579 15.2937 24.3167 15.4541C24.6304 15.7709 24.7393 15.8808 24.9999 15.8808C25.2606 15.8808 25.3694 15.7709 25.6831 15.4541C25.8419 15.2937 26.0532 15.0804 26.3632 14.8014C28.4592 12.9153 31.2294 12.3937 33.4487 13.8726C32.9884 12.2906 32.0737 10.8525 30.7868 9.74594C30.6194 9.60207 30.3621 9.60554 30.1886 9.75414ZM35.2261 17.3897L37.2161 18.841C38.2132 19.5538 38.812 20.7105 38.812 21.9307V23.8476C38.812 29.7377 36.4616 35.488 32.6776 38.8541C29.6304 41.5651 27.191 42.8294 25.0013 42.8331C22.8088 42.8294 20.3695 41.5651 17.3221 38.8541C13.5384 35.488 11.1876 29.7377 11.1876 23.8476V21.9307C11.1876 20.7105 11.7867 19.5538 12.7896 18.8367L14.7773 17.3869C14.5843 15.5537 14.6363 11.8041 18.2224 8.63638C18.9529 8.00818 20.0605 8.0104 20.7983 8.64174C21.9628 9.63845 23.4548 10.1871 24.9996 10.1871C26.5447 10.1871 28.0367 9.63845 29.2015 8.64174C29.9391 8.01071 31.0464 8.00787 31.7765 8.63574C35.2624 11.6969 35.4292 15.467 35.2261 17.3897ZM18.7835 18.2567C18.7835 17.4136 19.327 16.7277 19.9952 16.7277C20.6633 16.7277 21.2065 17.4136 21.2065 18.2567C21.2065 19.1001 20.6633 19.7857 19.9952 19.7857C19.327 19.7857 18.7835 19.1001 18.7835 18.2567ZM24.9964 19.2626C25.5711 19.2626 25.9838 19.6698 26.0239 20.276C26.03 20.3663 26.033 20.4587 26.033 20.5508C26.033 21.5163 25.835 22.3035 25.3712 23.1832L25.3536 23.2169C25.2865 23.3475 25.1849 23.5445 24.9964 23.5445C24.8087 23.5445 24.7072 23.3485 24.6397 23.2181L24.6391 23.2169L24.6217 23.1832C24.1576 22.3035 23.96 21.5163 23.96 20.5508C23.96 20.4587 23.963 20.3663 23.9691 20.276C24.0089 19.6698 24.422 19.2626 24.9964 19.2626ZM31.5649 18.018C31.4053 17.5192 30.9363 17.1345 30.3976 17.0613C29.6453 16.9591 28.8808 17.4024 28.3518 18.2464C28.1927 18.4991 28.265 18.7134 28.3857 18.8292C28.4684 18.9087 28.5785 18.9522 28.7035 18.955C28.7063 18.9554 28.709 18.9554 28.7115 18.9554C28.8594 18.9554 28.9966 18.8597 29.0973 18.7894L29.1439 18.7576C29.6893 18.3947 30.1487 18.3685 30.6341 18.6717C30.9026 18.8396 31.1801 18.856 31.3764 18.7153C31.5793 18.5692 31.6536 18.2953 31.5649 18.018Z" fill="#081736"/>
</svg>
