<svg width="50" height="50" viewBox="0 0 50 50" fill="none" xmlns="http://www.w3.org/2000/svg">
<path d="M40.221 22.8321H30.8225C30.2784 22.8321 29.8827 23.3762 30.0641 23.8874L32.323 29.7409C32.4219 30.0047 32.2241 30.285 31.9438 30.2686L29.0583 30.0872C28.9264 30.0707 28.7945 30.1366 28.7285 30.2521L26.4861 33.4344C26.3706 33.6158 26.1233 33.6817 25.9419 33.5498L22.6112 31.2909C22.4793 31.2084 22.298 31.2084 22.1825 31.2909L17.5657 34.4072C17.269 34.6051 16.8732 34.3248 16.9722 33.9785L18.2583 29.3946C18.3077 29.1968 18.2253 29.0154 18.0274 28.933L15.5871 27.9436C15.3398 27.8447 15.2738 27.5479 15.4387 27.35L17.5822 24.6788C17.6812 24.5469 17.6977 24.3656 17.5987 24.2172L15.785 21.5954C15.6201 21.3481 15.7685 21.0183 16.0818 21.0018L18.9013 20.7875C19.0992 20.771 19.2641 20.5896 19.2641 20.3753L19.0332 16.4344C19.0167 16.1541 19.297 15.9563 19.5773 16.0552L23.0729 17.5062C23.2213 17.5722 23.4027 17.5392 23.5016 17.4073L25.909 14.7196C26.1068 14.5052 26.4531 14.5712 26.5685 14.8185L28.0195 18.545C28.2174 19.0067 28.7945 19.1716 29.1902 18.8583L34.8458 14.6536C35.4888 14.1755 35.0766 13.1532 34.2851 13.2686L30.5587 13.7632C30.3774 13.7962 30.2125 13.6808 30.1465 13.5159L28.1844 8.48682C27.97 7.95917 27.294 7.82726 26.8983 8.25597L22.6442 12.8728C22.5288 12.9883 22.3639 13.0212 22.2155 12.9553L16.6094 10.5974C16.1148 10.3995 15.5541 10.7458 15.5377 11.2899L15.3398 17.0775C15.3233 17.2754 15.1749 17.4402 14.977 17.4402L9.86559 17.77C9.272 17.803 8.94223 18.479 9.272 18.9737L12.6686 23.9863C12.7676 24.1347 12.7511 24.3161 12.6357 24.4645L9.18956 28.4218C8.8433 28.8175 8.9917 29.4276 9.46986 29.642L13.4271 31.3568C13.6085 31.4393 13.6909 31.6206 13.6415 31.802L11.1022 41.6953C10.9209 42.4043 11.7123 42.932 12.3059 42.5198L21.8198 35.6934C21.9517 35.6109 22.1331 35.5944 22.265 35.6934L26.6015 38.7438C26.9642 39.0076 27.4424 38.8922 27.6897 38.5459L30.3938 34.3908C30.4763 34.2588 30.6247 34.1929 30.7566 34.2259L37.2366 35.0008C37.7642 35.0833 38.2919 34.6381 38.094 34.1599L35.3899 27.1851C35.3074 26.9873 35.3899 26.7894 35.6207 26.674L40.5508 24.3491C41.3093 23.9533 41.0455 22.8321 40.221 22.8321Z" fill="#8039E9"/>
</svg>
