<svg width="50" height="50" viewBox="0 0 50 50" fill="none" xmlns="http://www.w3.org/2000/svg">
<path d="M15 7H35V12.1572H15V7Z" fill="#4285F4"/>
<path d="M20.1366 15.3392L20.1366 19.7283L15 23.0201L15 12.1572L20.1366 15.3392Z" fill="#34A853"/>
<path d="M15.9088 27.1137C15.3427 26.7509 15 26.1232 15 25.4489L15 23.0201L20.1366 19.7283L20.1366 29.8231L15.9088 27.1137Z" fill="#FBBC05"/>
<path d="M20.1366 29.8231L35 20.4964V25.492C35 26.2073 34.6348 26.8727 34.0324 27.2547L24.9726 33L20.1366 29.8231Z" fill="#EA4335"/>
<path d="M32.0566 35.6016H34.1748C34.6553 35.6016 35.061 35.6748 35.3921 35.8213C35.7261 35.9678 35.9795 36.1846 36.1523 36.4717C36.3281 36.7559 36.416 37.106 36.416 37.522C36.416 37.8149 36.356 38.083 36.2358 38.3262C36.1187 38.5664 35.9487 38.7715 35.7261 38.9414C35.5063 39.1084 35.2427 39.2329 34.9351 39.3149L34.6978 39.4072H32.707L32.6982 38.7173H34.2012C34.5059 38.7173 34.7593 38.6646 34.9614 38.5591C35.1636 38.4507 35.3159 38.3057 35.4185 38.124C35.521 37.9424 35.5723 37.7417 35.5723 37.522C35.5723 37.2759 35.5239 37.0605 35.4272 36.876C35.3306 36.6914 35.1782 36.5493 34.9702 36.4497C34.7651 36.3472 34.5 36.2959 34.1748 36.2959H32.9048V42H32.0566V35.6016ZM35.7964 42L34.2407 39.0996L35.124 39.0952L36.7017 41.9473V42H35.7964Z" fill="black"/>
<path d="M28.5542 36.1685L26.436 42H25.5703L28.0093 35.6016H28.5674L28.5542 36.1685ZM30.3296 42L28.207 36.1685L28.1938 35.6016H28.752L31.1997 42H30.3296ZM30.2197 39.6313V40.3257H26.625V39.6313H30.2197Z" fill="black"/>
<path d="M25.0122 38.5986V39.0029C25.0122 39.4834 24.9521 39.9141 24.832 40.2949C24.7119 40.6758 24.5391 40.9995 24.3135 41.2661C24.0879 41.5327 23.8169 41.7363 23.5005 41.877C23.187 42.0176 22.8354 42.0879 22.4458 42.0879C22.0679 42.0879 21.7207 42.0176 21.4043 41.877C21.0908 41.7363 20.8184 41.5327 20.5869 41.2661C20.3584 40.9995 20.1812 40.6758 20.0552 40.2949C19.9292 39.9141 19.8662 39.4834 19.8662 39.0029V38.5986C19.8662 38.1182 19.9277 37.689 20.0508 37.311C20.1768 36.9302 20.354 36.6064 20.5825 36.3398C20.811 36.0703 21.082 35.8652 21.3955 35.7246C21.7119 35.584 22.0591 35.5137 22.437 35.5137C22.8267 35.5137 23.1782 35.584 23.4917 35.7246C23.8081 35.8652 24.0791 36.0703 24.3047 36.3398C24.5332 36.6064 24.7075 36.9302 24.8276 37.311C24.9507 37.689 25.0122 38.1182 25.0122 38.5986ZM24.1729 39.0029V38.5898C24.1729 38.209 24.1333 37.8721 24.0542 37.5791C23.978 37.2861 23.8652 37.04 23.7158 36.8408C23.5664 36.6416 23.3833 36.4907 23.1665 36.3882C22.9526 36.2856 22.7095 36.2344 22.437 36.2344C22.1733 36.2344 21.9346 36.2856 21.7207 36.3882C21.5098 36.4907 21.3281 36.6416 21.1758 36.8408C21.0264 37.04 20.9106 37.2861 20.8286 37.5791C20.7466 37.8721 20.7056 38.209 20.7056 38.5898V39.0029C20.7056 39.3867 20.7466 39.7266 20.8286 40.0225C20.9106 40.3154 21.0278 40.563 21.1802 40.7651C21.3354 40.9644 21.5186 41.1152 21.7295 41.2178C21.9434 41.3203 22.1821 41.3716 22.4458 41.3716C22.7212 41.3716 22.9658 41.3203 23.1797 41.2178C23.3936 41.1152 23.5737 40.9644 23.7202 40.7651C23.8696 40.563 23.9824 40.3154 24.0586 40.0225C24.1348 39.7266 24.1729 39.3867 24.1729 39.0029Z" fill="black"/>
<path d="M18.1523 40.3828C18.1523 40.2334 18.1289 40.1016 18.082 39.9873C18.0381 39.8701 17.959 39.7646 17.8447 39.6709C17.7334 39.5771 17.5781 39.4878 17.3789 39.4028C17.1826 39.3179 16.9336 39.2314 16.6318 39.1436C16.3154 39.0498 16.0298 38.9458 15.7749 38.8315C15.52 38.7144 15.3018 38.5811 15.1201 38.4316C14.9385 38.2822 14.7993 38.1108 14.7026 37.9175C14.606 37.7241 14.5576 37.5029 14.5576 37.2539C14.5576 37.0049 14.6089 36.7749 14.7114 36.564C14.814 36.353 14.9604 36.1699 15.1509 36.0146C15.3442 35.8564 15.5742 35.7334 15.8408 35.6455C16.1074 35.5576 16.4048 35.5137 16.7329 35.5137C17.2134 35.5137 17.6206 35.606 17.9546 35.7905C18.2915 35.9722 18.5479 36.2109 18.7236 36.5068C18.8994 36.7998 18.9873 37.1133 18.9873 37.4473H18.1436C18.1436 37.207 18.0923 36.9946 17.9897 36.8101C17.8872 36.6226 17.7319 36.4761 17.5239 36.3706C17.3159 36.2622 17.0522 36.208 16.7329 36.208C16.4312 36.208 16.1821 36.2534 15.9858 36.3442C15.7896 36.4351 15.6431 36.5581 15.5464 36.7134C15.4526 36.8687 15.4058 37.0459 15.4058 37.2451C15.4058 37.3799 15.4336 37.5029 15.4893 37.6143C15.5479 37.7227 15.6372 37.8237 15.7573 37.9175C15.8804 38.0112 16.0356 38.0977 16.2231 38.1768C16.4136 38.2559 16.6406 38.332 16.9043 38.4053C17.2676 38.5078 17.5811 38.6221 17.8447 38.748C18.1084 38.874 18.3252 39.0161 18.4951 39.1743C18.668 39.3296 18.7954 39.5068 18.8774 39.7061C18.9624 39.9023 19.0049 40.125 19.0049 40.374C19.0049 40.6348 18.9521 40.8706 18.8467 41.0815C18.7412 41.2925 18.5903 41.4727 18.394 41.6221C18.1978 41.7715 17.9619 41.8872 17.6865 41.9692C17.4141 42.0483 17.1094 42.0879 16.7725 42.0879C16.4766 42.0879 16.1851 42.0469 15.8979 41.9648C15.6138 41.8828 15.3545 41.7598 15.1201 41.5957C14.8887 41.4316 14.7026 41.2295 14.562 40.9893C14.4243 40.7461 14.3555 40.4648 14.3555 40.1455H15.1992C15.1992 40.3652 15.2417 40.5542 15.3267 40.7124C15.4116 40.8677 15.5273 40.9966 15.6738 41.0991C15.8232 41.2017 15.9917 41.2778 16.1792 41.3276C16.3696 41.3745 16.5674 41.3979 16.7725 41.3979C17.0684 41.3979 17.3188 41.3569 17.5239 41.2749C17.729 41.1929 17.8843 41.0757 17.9897 40.9233C18.0981 40.771 18.1523 40.5908 18.1523 40.3828Z" fill="black"/>
</svg>
