<svg width="50" height="50" viewBox="0 0 50 50" fill="none" xmlns="http://www.w3.org/2000/svg">
<path d="M25.0018 0C11.1916 0 0 11.1916 0 25.0018C0 38.8121 11.1916 50.0037 25.0018 50.0037C38.8121 50.0037 50.0037 38.8121 50.0037 25.0018C50.0037 11.1916 38.8084 0 25.0018 0ZM25.0018 37.7161C23.2806 37.7161 21.6366 37.3777 20.1361 36.7635L15.8588 39.0695L15.9801 34.0382C13.5785 31.6918 12.0816 28.4185 12.0816 24.7959C12.0816 17.6609 17.8669 11.8794 24.9982 11.8794C32.1295 11.8794 37.9147 17.6646 37.9147 24.7959C37.9147 31.9272 32.1295 37.7124 24.9982 37.7124L25.0018 37.7161Z" fill="#00D2C4"/>
<path d="M25.002 11.8831C17.867 11.8831 12.0854 17.6683 12.0854 24.7996C12.0854 28.4222 13.5786 31.6955 15.9839 34.0419L15.8626 39.0732L20.1399 36.7672C21.6404 37.3777 23.2844 37.7198 25.0056 37.7198C32.1406 37.7198 37.9222 31.9345 37.9222 24.8032C37.9222 17.672 32.1369 11.8867 25.0056 11.8867L25.002 11.8831Z" fill="white"/>
</svg>
