<svg width="50" height="50" viewBox="0 0 50 50" fill="none" xmlns="http://www.w3.org/2000/svg">
<g clip-path="url(#clip0_8689_125)">
<path d="M24.1159 42.0934L14.5655 37.9099L14.0327 43.8838L24.536 47.199L24.1159 42.0934Z" fill="black"/>
<path d="M24.1159 42.0934L14.5655 37.9113L14.0341 43.8838L24.5374 47.2018L24.1201 42.0962" fill="url(#paint0_linear_8689_125)"/>
<path d="M16.4353 18.9861H21.7982V23.5332H20.5253V21.5976C20.5253 20.8311 19.8799 20.1971 19.1161 20.1971C18.3522 20.1971 17.7068 20.8311 17.7068 21.5976V23.5332H16.4339L16.4353 18.9861ZM15.3641 28.9402L23.3216 32.4255L22.7734 25.7562H23.8154V23.5332H23.0433V18.9861H23.8154V17.6796L19.5223 13.5058V13.2127C19.5223 12.7169 18.7126 12.6887 18.7126 13.2127V13.5058L14.4195 17.6796V18.9861H15.193V23.5332H14.4195V25.7618H15.6465L15.3641 28.9402Z" fill="black"/>
<path d="M16.4353 18.9861H21.7982V23.5332H20.5253V21.5976C20.5253 20.8311 19.8799 20.1971 19.1161 20.1971C18.3522 20.1971 17.7068 20.8311 17.7068 21.5976V23.5332H16.4339L16.4353 18.9861ZM15.3641 28.9402L23.3216 32.4255L22.7734 25.7562H23.8154V23.5332H23.0433V18.9861H23.8154V17.6796L19.5223 13.5058V13.2127C19.5223 12.7169 18.7126 12.6887 18.7126 13.2127V13.5058L14.4195 17.6796V18.9861H15.193V23.5332H14.4195V25.7618H15.6465L15.3682 28.9415" fill="url(#paint1_linear_8689_125)"/>
<path d="M14.898 34.1799L23.7848 38.0731L23.6513 36.4514L15.0316 32.6771L14.898 34.1799Z" fill="black"/>
<path d="M14.8966 34.1799L23.782 38.0731L23.6429 36.4527L15.0177 32.6771L14.8786 34.1799" fill="url(#paint2_linear_8689_125)"/>
<path d="M14.6643 36.797L24.0171 40.8934L23.8836 39.2731L14.7979 35.2942L14.6643 36.797Z" fill="black"/>
<path d="M14.6643 36.797L24.0171 40.8934L23.878 39.2731L14.7923 35.2942L14.6532 36.797" fill="url(#paint3_linear_8689_125)"/>
<path d="M15.2639 30.06L15.1304 31.5628L23.5525 35.2513L23.4203 33.631L15.2639 30.06Z" fill="black"/>
<path d="M15.2639 30.06L15.1249 31.5643L23.5526 35.2473L23.4135 33.627L15.2585 30.056" fill="url(#paint4_linear_8689_125)"/>
<path d="M42.1553 15.5948L46.4581 14.2206C46.4428 14.1902 46.4289 14.1584 46.4136 14.1293C45.6872 12.7197 44.8228 11.3847 43.833 10.1435L39.7889 12.2173C40.676 13.2355 41.4559 14.3413 42.1163 15.5174C42.1302 15.5409 42.1413 15.5658 42.1539 15.5907" fill="#696566"/>
<path d="M44.5314 23.6853L49.0123 24.0046C48.962 22.8167 48.8225 21.6341 48.595 20.4668L44.0737 20.6202C44.306 21.6284 44.4572 22.6533 44.5258 23.6853" fill="#696566"/>
<path d="M25.1733 44.6221C14.2943 44.6221 5.44232 35.8265 5.44232 25.0152C5.44232 14.204 14.2971 5.40705 25.1733 5.40705C28.9364 5.40288 32.6213 6.47506 35.7879 8.49559L38.925 5.24668C34.888 2.45992 30.0886 0.969488 25.1733 0.976096C11.8389 0.976096 0.987793 11.7597 0.987793 25.0166C0.987793 38.2736 11.8389 49.0516 25.1733 49.0516C36.5669 49.0516 46.1368 41.1713 48.684 30.62L44.4576 29.1642C42.5378 37.9901 34.6235 44.6248 25.176 44.6248" fill="#696566"/>
<path d="M39 5.5L24.0132 20.3338L39.7904 12.2212L43.8346 10.1474C42.3665 8.25518 40.9729 6.86393 39 5.5Z" fill="url(#paint5_linear_8689_125)"/>
<path d="M49.0139 24.0044L24.0174 22.2223L48.5 30.5C49.0685 28.2403 49.1068 26.2332 49.0139 24.0044Z" fill="url(#paint6_linear_8689_125)"/>
<path d="M46.4581 14.2206L24.3276 21.2836L48.6035 20.4624C48.1635 18.2938 47.464 16.1959 46.4581 14.2206Z" fill="url(#paint7_linear_8689_125)"/>
</g>
<defs>
<linearGradient id="paint0_linear_8689_125" x1="1.24862" y1="24.0497" x2="49.2922" y2="24.0497" gradientUnits="userSpaceOnUse">
<stop stop-color="#60B932"/>
<stop offset="0.28" stop-color="#60B932"/>
<stop offset="1" stop-color="#367C34"/>
</linearGradient>
<linearGradient id="paint1_linear_8689_125" x1="0.0140397" y1="26.5466" x2="48.2305" y2="26.5466" gradientUnits="userSpaceOnUse">
<stop stop-color="#60B932"/>
<stop offset="0.28" stop-color="#60B932"/>
<stop offset="1" stop-color="#367C34"/>
</linearGradient>
<linearGradient id="paint2_linear_8689_125" x1="1.23563" y1="24.398" x2="49.1955" y2="24.398" gradientUnits="userSpaceOnUse">
<stop stop-color="#60B932"/>
<stop offset="0.28" stop-color="#60B932"/>
<stop offset="1" stop-color="#367C34"/>
</linearGradient>
<linearGradient id="paint3_linear_8689_125" x1="4.39202" y1="35.7747" x2="47.1724" y2="35.7747" gradientUnits="userSpaceOnUse">
<stop stop-color="#60B932"/>
<stop offset="0.28" stop-color="#60B932"/>
<stop offset="1" stop-color="#367C34"/>
</linearGradient>
<linearGradient id="paint4_linear_8689_125" x1="5.65588" y1="29.0694" x2="44.174" y2="29.0694" gradientUnits="userSpaceOnUse">
<stop stop-color="#60B932"/>
<stop offset="0.28" stop-color="#60B932"/>
<stop offset="1" stop-color="#367C34"/>
</linearGradient>
<linearGradient id="paint5_linear_8689_125" x1="48" y1="15.5" x2="25.5" y2="21" gradientUnits="userSpaceOnUse">
<stop offset="0.206252" stop-color="white"/>
<stop offset="1" stop-color="#4496D8"/>
</linearGradient>
<linearGradient id="paint6_linear_8689_125" x1="48" y1="15.5" x2="25.5" y2="21" gradientUnits="userSpaceOnUse">
<stop offset="0.206252" stop-color="white"/>
<stop offset="1" stop-color="#4496D8"/>
</linearGradient>
<linearGradient id="paint7_linear_8689_125" x1="48" y1="15.5" x2="25.5" y2="21" gradientUnits="userSpaceOnUse">
<stop offset="0.206252" stop-color="white"/>
<stop offset="1" stop-color="#4496D8"/>
</linearGradient>
<clipPath id="clip0_8689_125">
<rect width="50" height="50" fill="white"/>
</clipPath>
</defs>
</svg>
