<svg width="50" height="50" viewBox="0 0 50 50" fill="none" xmlns="http://www.w3.org/2000/svg">
<path d="M39.4488 19.1312L30.8835 10.555C29.8692 9.59601 28.6609 8.86578 27.3404 8.41356C24.4141 7.43923 21.5018 8.19976 19.1432 10.555L10.557 19.1312C9.59806 20.1456 8.86787 21.3539 8.41567 22.6746C7.4379 25.6011 8.19839 28.5135 10.557 30.8687L19.1327 39.445C20.1454 40.4043 21.3526 41.1346 22.6723 41.5864C23.4718 41.8567 24.3096 41.9963 25.1535 42C27.2107 42 29.1803 41.1308 30.8695 39.445L39.4418 30.8687C40.4019 29.8547 41.1333 28.6464 41.5865 27.3254C42.5608 24.3989 41.8003 21.49 39.4418 19.1312H39.4488ZM25.6617 13.0434C26.3096 13.2511 26.9065 13.5926 27.414 14.0458L29.9478 16.5832L25.0064 21.5214L20.0649 16.5797L22.6127 14.0282C23.2961 13.3483 24.2598 12.6263 25.6687 13.0399L25.6617 13.0434ZM13.0522 24.3359C13.2606 23.6875 13.6033 23.0904 14.058 22.5834L16.5919 20.0495L21.5333 24.9912L16.5884 29.933L14.0405 27.3815C13.3571 26.7015 12.6387 25.7377 13.0487 24.3288L13.0522 24.3359ZM24.344 36.9461C23.6953 36.7402 23.0979 36.3985 22.5917 35.9437L20.0649 33.4378L25.0064 28.4925L29.9478 33.4342L27.3999 35.9858C26.7166 36.6657 25.7563 37.3876 24.344 36.9741V36.9461ZM36.9605 25.6782C36.7522 26.3258 36.4107 26.9227 35.9582 27.4306L33.4244 29.933L28.4829 24.9912L33.4244 20.0495L35.9722 22.5975C36.6556 23.2774 37.374 24.2412 36.964 25.6501" fill="#00ABE4"/>
</svg>
