<svg width="50" height="50" viewBox="0 0 50 50" fill="none" xmlns="http://www.w3.org/2000/svg">
<path d="M34.9996 40.0002H29.9998V45H34.9996V40.0002Z" fill="#72ACD1"/>
<path d="M29.9998 40.0002H25V45H29.9998V40.0002Z" fill="#4596CB"/>
<path d="M25 40.0002H20.0002V45H25V40.0002Z" fill="#4596CB"/>
<path d="M20.0342 39.9961H15.0344V44.9959H20.0342V39.9961Z" fill="#72ACD1"/>
<path d="M40.0002 35.0004H35.0004V40.0002H40.0002V35.0004Z" fill="#45A0CB"/>
<path d="M34.9996 35.0004H29.9998V40.0002H34.9996V35.0004Z" fill="#2E96C7"/>
<path d="M29.9998 35.0004H25V40.0002H29.9998V35.0004Z" fill="#0082BF"/>
<path d="M25 35.0004H20.0002V40.0002H25V35.0004Z" fill="#0082BF"/>
<path d="M20.0002 35.0004H15.0004V40.0002H20.0002V35.0004Z" fill="#2E96C7"/>
<path d="M14.9996 35.0004H9.99979V40.0002H14.9996V35.0004Z" fill="#45A0CB"/>
<path d="M45 29.9998H40.0002V34.9996H45V29.9998Z" fill="#72B9D1"/>
<path d="M40.0002 29.9998H35.0004V34.9996H40.0002V29.9998Z" fill="#2EA0C7"/>
<path d="M34.9996 29.9998H29.9998V34.9996H34.9996V29.9998Z" fill="#008FBF"/>
<path d="M29.9998 29.9998H25V34.9996H29.9998V29.9998Z" fill="#008FBF"/>
<path d="M25 29.9998H20.0002V34.9996H25V29.9998Z" fill="#008FBF"/>
<path d="M20.0002 29.9998H15.0004V34.9996H20.0002V29.9998Z" fill="#008FBF"/>
<path d="M14.9996 29.9998H9.99979V34.9996H14.9996V29.9998Z" fill="#2EA0C7"/>
<path d="M9.99979 29.9998H5V34.9996H9.99979V29.9998Z" fill="#72B9D1"/>
<path d="M45 25H40.0002V29.9998H45V25Z" fill="#45B3CB"/>
<path d="M40.0002 25H35.0004V29.9998H40.0002V25Z" fill="#009DBF"/>
<path d="M34.9996 25H29.9998V29.9998H34.9996V25Z" fill="#009DBF"/>
<path d="M29.9998 25H25V29.9998H29.9998V25Z" fill="#009DBF"/>
<path d="M25 25H20.0002V29.9998H25V25Z" fill="#009DBF"/>
<path d="M20.0002 25H15.0004V29.9998H20.0002V25Z" fill="#009DBF"/>
<path d="M14.9996 25H9.99979V29.9998H14.9996V25Z" fill="#009DBF"/>
<path d="M9.99979 25H5V29.9998H9.99979V25Z" fill="#45B3CB"/>
<path d="M45 20.0002H40.0002V25H45V20.0002Z" fill="#45BDCB"/>
<path d="M40.0002 20.0002H35.0004V25H40.0002V20.0002Z" fill="#00ABBF"/>
<path d="M34.9996 20.0002H29.9998V25H34.9996V20.0002Z" fill="#00ABBF"/>
<path d="M29.9998 20.0002H25V25H29.9998V20.0002Z" fill="#00ABBF"/>
<path d="M25 20.0002H20.0002V25H25V20.0002Z" fill="#00ABBF"/>
<path d="M20.0002 20.0002H15.0004V25H20.0002V20.0002Z" fill="#00ABBF"/>
<path d="M14.9996 20.0002H9.99979V25H14.9996V20.0002Z" fill="#00ABBF"/>
<path d="M9.99979 20.0002H5V25H9.99979V20.0002Z" fill="#45BDCB"/>
<path d="M45 15.0004H40.0002V20.0002H45V15.0004Z" fill="#72CED1"/>
<path d="M40.0002 15.0004H35.0004V20.0002H40.0002V15.0004Z" fill="#2EC2C7"/>
<path d="M34.9996 15.0004H29.9998V20.0002H34.9996V15.0004Z" fill="#00B9BF"/>
<path d="M29.9998 15.0004H25V20.0002H29.9998V15.0004Z" fill="#00B9BF"/>
<path d="M25 15.0004H20.0002V20.0002H25V15.0004Z" fill="#00B9BF"/>
<path d="M20.0002 15.0004H15.0004V20.0002H20.0002V15.0004Z" fill="#00B9BF"/>
<path d="M14.9996 15.0004H9.99979V20.0002H14.9996V15.0004Z" fill="#2EC2C7"/>
<path d="M9.99979 15.0004H5V20.0002H9.99979V15.0004Z" fill="#72CED1"/>
<path d="M40.0002 9.99979H35.0004V14.9996H40.0002V9.99979Z" fill="#45D0CB"/>
<path d="M34.9996 9.99979H29.9998V14.9996H34.9996V9.99979Z" fill="#2ECCC7"/>
<path d="M29.9998 9.99979H25V14.9996H29.9998V9.99979Z" fill="#00C6BF"/>
<path d="M25 9.99979H20.0002V14.9996H25V9.99979Z" fill="#00C6BF"/>
<path d="M20.0002 9.99979H15.0004V14.9996H20.0002V9.99979Z" fill="#2ECCC7"/>
<path d="M14.9996 9.99979H9.99979V14.9996H14.9996V9.99979Z" fill="#45D0CB"/>
<path d="M34.9996 5H29.9998V9.99979H34.9996V5Z" fill="#72DCD1"/>
<path d="M29.9998 5H25V9.99979H29.9998V5Z" fill="#45D9CB"/>
<path d="M25 5H20.0002V9.99979H25V5Z" fill="#45D9CB"/>
<path d="M20.0002 5H15.0004V9.99979H20.0002V5Z" fill="#72DCD1"/>
<path d="M18.165 23.4227L19.5582 20.3046C20.0657 19.5051 19.9985 18.5257 19.4429 17.9701C19.3688 17.8961 19.2868 17.8304 19.1983 17.7744C19.0077 17.6574 18.7939 17.5834 18.5717 17.5575C18.3496 17.5316 18.1245 17.5544 17.9121 17.6243C17.4296 17.7743 17.0175 18.0932 16.751 18.5224C16.751 18.5224 14.8437 22.9724 14.1338 24.9726C13.4239 26.9729 13.7076 30.6408 16.4442 33.3833C19.3467 36.2858 23.5496 36.9492 26.2298 34.9374C26.3419 34.8811 26.4473 34.8123 26.5441 34.7326L34.8039 27.8353C35.2052 27.5036 35.799 26.8203 35.2658 26.0408C34.7458 25.2803 33.7606 25.7978 33.3584 26.0549L28.6049 29.5113C28.5827 29.5297 28.557 29.5434 28.5293 29.5516C28.5016 29.5598 28.4726 29.5623 28.4439 29.559C28.4152 29.5556 28.3875 29.5465 28.3625 29.5322C28.3374 29.5179 28.3155 29.4987 28.2981 29.4757C28.177 29.3272 28.1555 28.9342 28.3454 28.7782L35.6323 22.5942C36.2618 22.027 36.3497 21.2027 35.8397 20.6379C35.3421 20.0848 34.5518 20.1014 33.9165 20.6736L27.356 25.8028C27.3253 25.8278 27.2898 25.8463 27.2517 25.8571C27.2136 25.868 27.1737 25.8709 27.1344 25.8658C27.0951 25.8607 27.0573 25.8476 27.0233 25.8273C26.9892 25.8071 26.9596 25.7801 26.9364 25.748C26.807 25.6029 26.7573 25.3549 26.9032 25.2098L34.3337 17.9991C34.6151 17.7366 34.7809 17.3731 34.7945 16.9884C34.8082 16.6037 34.6687 16.2294 34.4066 15.9475C34.2767 15.8106 34.1201 15.7017 33.9466 15.6274C33.773 15.5531 33.5862 15.515 33.3974 15.5154C33.0087 15.5112 32.6339 15.6601 32.3541 15.93L24.762 23.0619C24.5804 23.2436 24.2246 23.0619 24.1815 22.8496C24.1736 22.8117 24.1754 22.7723 24.1867 22.7352C24.198 22.6981 24.2185 22.6645 24.2462 22.6374L30.0578 16.0204C30.1983 15.8894 30.311 15.7315 30.3892 15.5561C30.4673 15.3806 30.5094 15.1912 30.5129 14.9992C30.5164 14.8072 30.4813 14.6164 30.4095 14.4382C30.3378 14.26 30.231 14.0981 30.0954 13.9621C29.9598 13.826 29.7982 13.7186 29.6203 13.6463C29.4423 13.574 29.2516 13.5382 29.0596 13.5411C28.8675 13.5439 28.678 13.5854 28.5023 13.663C28.3266 13.7406 28.1683 13.8528 28.0369 13.9928L19.224 23.7362C18.908 24.0521 18.4428 24.0679 18.2214 23.8846C18.1532 23.8304 18.1091 23.7516 18.0986 23.6652C18.088 23.5788 18.1119 23.4917 18.165 23.4227Z" fill="white"/>
</svg>
