<svg width="50" height="50" viewBox="0 0 50 50" fill="none" xmlns="http://www.w3.org/2000/svg">
<path fill-rule="evenodd" clip-rule="evenodd" d="M4 15.0207H5.89309V17.7452H7.36761V15H9.24168V21.5884H7.36761V18.5739H5.87407V21.5573H4V15.0207Z" fill="#EE3124"/>
<path fill-rule="evenodd" clip-rule="evenodd" d="M12.2383 16.6264C12.6093 16.6057 12.9803 16.6678 13.3323 16.7921C13.846 16.9682 14.2741 17.3515 14.5309 17.8591C14.8734 18.5635 14.9209 19.3923 14.6736 20.1485C14.4929 20.7079 14.1123 21.174 13.6272 21.4434C13.2086 21.6505 12.752 21.7438 12.2954 21.7231C11.7341 21.7438 11.1918 21.578 10.7257 21.2465C10.3071 20.9254 10.0122 20.4592 9.86953 19.9309C9.66025 19.154 9.7744 18.3149 10.2025 17.6416C10.5735 17.1029 11.1253 16.761 11.7436 16.6678C11.9053 16.6471 12.0766 16.6264 12.2383 16.6264ZM12.8661 17.7244C12.9422 17.9834 12.9803 18.2528 12.9803 18.5221V20.0863C12.9708 20.4489 12.8376 20.7907 12.6093 21.0601C12.419 21.2465 12.1241 21.2258 11.9529 21.0186C11.9243 20.9876 11.9053 20.9461 11.8863 20.9047C11.7055 20.6043 11.639 20.3246 11.6485 19.4855C11.6675 18.6464 11.6199 18.0663 11.7721 17.7244C11.9243 17.3826 12.067 17.2376 12.2097 17.2065C12.4951 17.134 12.7234 17.3412 12.8661 17.7244Z" fill="#EE3124"/>
<path fill-rule="evenodd" clip-rule="evenodd" d="M17.0994 18.1284V21.5677H15.349V16.7818H17.0994V17.424C17.2612 17.1961 17.4704 16.9993 17.7083 16.875C18.2125 16.6057 18.7928 16.5849 19.316 16.8025C19.7345 16.9993 20.0199 17.4344 20.0485 17.9213V21.5573H18.3266V18.2424C18.3361 18.0663 18.2886 17.8798 18.1839 17.7348C18.0127 17.5691 17.7558 17.5483 17.5561 17.6623C17.3087 17.8177 17.0709 18.087 17.0994 18.1284Z" fill="#EE3124"/>
<path fill-rule="evenodd" clip-rule="evenodd" d="M22.4267 18.8329C22.4172 18.5221 22.4362 18.2217 22.4648 17.9109C22.5028 17.6623 22.6265 17.424 22.8072 17.2583C23.026 17.1133 23.3019 17.134 23.4922 17.3101C23.6159 17.4344 23.7015 17.5898 23.7395 17.7659C23.7871 17.9731 23.8061 18.1802 23.8061 18.3874V18.8225L22.4267 18.8329ZM20.8571 17.9213C21.3327 17.0407 22.246 16.5331 23.1878 16.6264C24.2818 16.6885 24.9191 17.1133 25.2997 17.9005C25.5185 18.3874 25.6136 18.9261 25.5946 19.4648H22.4267V20.4385C22.4458 20.5525 22.4743 20.6561 22.5314 20.7493C22.6075 20.8529 22.8929 21.2465 23.749 21.1015C24.7099 20.9358 24.6718 20.2106 24.7099 20.2106H25.4614C25.4519 20.511 25.3377 20.7907 25.1379 21.0083C24.7289 21.4123 24.2057 21.6609 23.6539 21.7231C23.0356 21.7852 22.1508 21.8059 21.4469 21.174C21.1139 20.8736 20.8571 20.48 20.7239 20.0345C20.5336 19.3405 20.5812 18.5946 20.8761 17.9316L20.8571 17.9213Z" fill="#EE3124"/>
<path fill-rule="evenodd" clip-rule="evenodd" d="M38.4086 18.8329C38.3991 18.5221 38.4181 18.2217 38.4467 17.9109C38.4847 17.6623 38.6084 17.424 38.7891 17.2583C39.0079 17.1133 39.2838 17.134 39.4741 17.3101C39.5882 17.4344 39.6738 17.5898 39.7214 17.7659C39.769 17.9731 39.7975 18.1802 39.788 18.3874V18.8225L38.4086 18.8329ZM36.8485 17.9213C37.3241 17.0407 38.2374 16.5331 39.1792 16.6264C40.2827 16.6885 40.9105 17.1133 41.3006 17.9005C41.5098 18.3874 41.605 18.9261 41.5764 19.4648H38.4276V20.4385C38.4467 20.5525 38.4752 20.6561 38.5323 20.7493C38.5989 20.8529 38.8938 21.2465 39.7499 21.1015C40.7012 20.9358 40.6727 20.2106 40.6917 20.2106H41.4433C41.4242 20.511 41.3101 20.7907 41.1198 21.0083C40.7108 21.4123 40.1875 21.6609 39.6358 21.7231C39.0174 21.7852 38.1327 21.8059 37.4288 21.174C37.0958 20.8736 36.839 20.48 36.7058 20.0345C36.5155 19.3405 36.5726 18.5946 36.858 17.9316L36.8485 17.9213Z" fill="#EE3124"/>
<path fill-rule="evenodd" clip-rule="evenodd" d="M25.4424 16.7921H27.3545L28.1726 19.0711L29.0478 16.8025H31.4546L32.2251 19.4751L32.9101 16.7921H34.4512L35.2122 19.4337L35.8877 16.7921H36.6677L35.4501 21.5677H33.9946L33.186 18.7811L32.4915 21.5677H31.0075L29.6852 16.9579L27.8301 21.8266C27.7065 22.2306 27.5067 22.6036 27.2498 22.9351C26.9169 23.308 26.4412 23.4634 25.9656 23.3701C25.3853 23.2562 25.1379 22.9247 25.0904 22.5311C25.0238 22.1167 25.2711 21.723 25.6516 21.6402C25.9561 21.5366 26.2795 21.6609 26.4412 21.9509C26.5364 22.1374 26.5554 22.355 26.4983 22.5621C26.4602 22.645 26.4127 22.7175 26.3556 22.79C26.5268 22.8211 26.6981 22.7486 26.8122 22.6139C26.9835 22.4067 27.1071 22.1581 27.1737 21.8992C27.1928 21.837 27.2023 21.7748 27.2118 21.7127L25.4424 16.7921Z" fill="#EE3124"/>
<path d="M43.7835 15H42.0997V21.5677H43.7835V15Z" fill="#EE3124"/>
<path d="M46 15.0104H44.3162V21.578H46V15.0104Z" fill="#EE3124"/>
<path d="M38.5016 31.9026V32.6985C38.5016 33.1263 38.4643 33.4871 38.3896 33.7811C38.3149 34.0751 38.2075 34.3117 38.0675 34.4909C37.9274 34.6702 37.7582 34.8004 37.5598 34.8817C37.3637 34.9606 37.142 35 36.8945 35C36.6985 35 36.5176 34.9749 36.3518 34.9247C36.1861 34.8745 36.0367 34.7945 35.9037 34.6845C35.7729 34.5722 35.6609 34.4264 35.5675 34.2472C35.4742 34.0679 35.403 33.8504 35.3539 33.5947C35.3049 33.339 35.2804 33.0402 35.2804 32.6985V31.9026C35.2804 31.4748 35.3178 31.1163 35.3925 30.8271C35.4695 30.5379 35.578 30.3061 35.7181 30.1316C35.8581 29.9548 36.0262 29.8281 36.2223 29.7516C36.4207 29.6751 36.6424 29.6369 36.8875 29.6369C37.0859 29.6369 37.268 29.662 37.4337 29.7122C37.6018 29.76 37.7512 29.8377 37.8819 29.9452C38.0126 30.0504 38.1235 30.1914 38.2145 30.3682C38.3079 30.5427 38.3791 30.7566 38.4281 31.0099C38.4771 31.2633 38.5016 31.5608 38.5016 31.9026ZM37.8504 32.806V31.7915C37.8504 31.5572 37.8364 31.3517 37.8084 31.1748C37.7827 30.9956 37.7442 30.8426 37.6928 30.716C37.6415 30.5893 37.5761 30.4865 37.4968 30.4077C37.4197 30.3288 37.3299 30.2714 37.2272 30.2356C37.1268 30.1973 37.0136 30.1782 36.8875 30.1782C36.7335 30.1782 36.5969 30.2081 36.4779 30.2678C36.3588 30.3252 36.2585 30.4172 36.1768 30.5439C36.0974 30.6706 36.0367 30.8367 35.9947 31.0422C35.9527 31.2477 35.9317 31.4975 35.9317 31.7915V32.806C35.9317 33.0402 35.9445 33.247 35.9702 33.4262C35.9982 33.6054 36.039 33.7608 36.0927 33.8922C36.1464 34.0213 36.2118 34.1277 36.2888 34.2113C36.3658 34.295 36.4545 34.3571 36.5549 34.3977C36.6576 34.436 36.7708 34.4551 36.8945 34.4551C37.0533 34.4551 37.1921 34.424 37.3112 34.3619C37.4302 34.2997 37.5294 34.2029 37.6088 34.0715C37.6905 33.9377 37.7512 33.7668 37.7909 33.5588C37.8306 33.3485 37.8504 33.0976 37.8504 32.806Z" fill="black"/>
<path d="M34.4681 31.9026V32.6985C34.4681 33.1263 34.4308 33.4871 34.3561 33.7811C34.2814 34.0751 34.174 34.3117 34.0339 34.4909C33.8939 34.6702 33.7247 34.8004 33.5262 34.8817C33.3302 34.9606 33.1084 35 32.861 35C32.6649 35 32.484 34.9749 32.3183 34.9247C32.1526 34.8745 32.0032 34.7945 31.8701 34.6845C31.7394 34.5722 31.6274 34.4264 31.534 34.2472C31.4406 34.0679 31.3694 33.8504 31.3204 33.5947C31.2714 33.339 31.2469 33.0402 31.2469 32.6985V31.9026C31.2469 31.4748 31.2842 31.1163 31.3589 30.8271C31.436 30.5379 31.5445 30.3061 31.6845 30.1316C31.8246 29.9548 31.9927 29.8281 32.1887 29.7516C32.3871 29.6751 32.6089 29.6369 32.854 29.6369C33.0524 29.6369 33.2345 29.662 33.4002 29.7122C33.5683 29.76 33.7177 29.8377 33.8484 29.9452C33.9791 30.0504 34.09 30.1914 34.181 30.3682C34.2744 30.5427 34.3456 30.7566 34.3946 31.0099C34.4436 31.2633 34.4681 31.5608 34.4681 31.9026ZM33.8169 32.806V31.7915C33.8169 31.5572 33.8029 31.3517 33.7748 31.1748C33.7492 30.9956 33.7107 30.8426 33.6593 30.716C33.6079 30.5893 33.5426 30.4865 33.4632 30.4077C33.3862 30.3288 33.2963 30.2714 33.1936 30.2356C33.0932 30.1973 32.98 30.1782 32.854 30.1782C32.6999 30.1782 32.5634 30.2081 32.4443 30.2678C32.3253 30.3252 32.2249 30.4172 32.1432 30.5439C32.0639 30.6706 32.0032 30.8367 31.9612 31.0422C31.9191 31.2477 31.8981 31.4975 31.8981 31.7915V32.806C31.8981 33.0402 31.911 33.247 31.9366 33.4262C31.9647 33.6054 32.0055 33.7608 32.0592 33.8922C32.1129 34.0213 32.1782 34.1277 32.2553 34.2113C32.3323 34.295 32.421 34.3571 32.5214 34.3977C32.6241 34.436 32.7373 34.4551 32.861 34.4551C33.0197 34.4551 33.1586 34.424 33.2777 34.3619C33.3967 34.2997 33.4959 34.2029 33.5753 34.0715C33.657 33.9377 33.7177 33.7668 33.7573 33.5588C33.797 33.3485 33.8169 33.0976 33.8169 32.806Z" fill="black"/>
<path d="M30.4346 31.9026V32.6985C30.4346 33.1263 30.3972 33.4871 30.3225 33.7811C30.2478 34.0751 30.1405 34.3117 30.0004 34.4909C29.8604 34.6702 29.6911 34.8004 29.4927 34.8817C29.2966 34.9606 29.0749 35 28.8275 35C28.6314 35 28.4505 34.9749 28.2847 34.9247C28.119 34.8745 27.9696 34.7945 27.8366 34.6845C27.7059 34.5722 27.5938 34.4264 27.5005 34.2472C27.4071 34.0679 27.3359 33.8504 27.2869 33.5947C27.2379 33.339 27.2133 33.0402 27.2133 32.6985V31.9026C27.2133 31.4748 27.2507 31.1163 27.3254 30.8271C27.4024 30.5379 27.511 30.3061 27.651 30.1316C27.7911 29.9548 27.9591 29.8281 28.1552 29.7516C28.3536 29.6751 28.5754 29.6369 28.8205 29.6369C29.0189 29.6369 29.2009 29.662 29.3667 29.7122C29.5347 29.76 29.6841 29.8377 29.8148 29.9452C29.9456 30.0504 30.0564 30.1914 30.1475 30.3682C30.2408 30.5427 30.312 30.7566 30.361 31.0099C30.4101 31.2633 30.4346 31.5608 30.4346 31.9026ZM29.7833 32.806V31.7915C29.7833 31.5572 29.7693 31.3517 29.7413 31.1748C29.7156 30.9956 29.6771 30.8426 29.6258 30.716C29.5744 30.5893 29.5091 30.4865 29.4297 30.4077C29.3527 30.3288 29.2628 30.2714 29.1601 30.2356C29.0597 30.1973 28.9465 30.1782 28.8205 30.1782C28.6664 30.1782 28.5298 30.2081 28.4108 30.2678C28.2918 30.3252 28.1914 30.4172 28.1097 30.5439C28.0303 30.6706 27.9696 30.8367 27.9276 31.0422C27.8856 31.2477 27.8646 31.4975 27.8646 31.7915V32.806C27.8646 33.0402 27.8774 33.247 27.9031 33.4262C27.9311 33.6054 27.972 33.7608 28.0257 33.8922C28.0793 34.0213 28.1447 34.1277 28.2217 34.2113C28.2988 34.295 28.3875 34.3571 28.4878 34.3977C28.5905 34.436 28.7037 34.4551 28.8275 34.4551C28.9862 34.4551 29.1251 34.424 29.2441 34.3619C29.3632 34.2997 29.4624 34.2029 29.5417 34.0715C29.6234 33.9377 29.6841 33.7668 29.7238 33.5588C29.7635 33.3485 29.7833 33.0976 29.7833 32.806Z" fill="black"/>
<path d="M24.1462 31.9922H24.6084C24.8348 31.9922 25.0215 31.954 25.1686 31.8775C25.318 31.7986 25.4288 31.6923 25.5012 31.5584C25.5759 31.4222 25.6132 31.2692 25.6132 31.0996C25.6132 30.8988 25.5806 30.7303 25.5152 30.5941C25.4498 30.4579 25.3518 30.3551 25.2211 30.2858C25.0904 30.2165 24.9246 30.1818 24.7239 30.1818C24.5418 30.1818 24.3808 30.2189 24.2407 30.2929C24.103 30.3646 23.9944 30.4674 23.9151 30.6012C23.8381 30.7351 23.7995 30.8928 23.7995 31.0745H23.1518C23.1518 30.8092 23.2172 30.5678 23.3479 30.3503C23.4786 30.1328 23.6618 29.9595 23.8976 29.8305C24.1357 29.7014 24.4111 29.6369 24.7239 29.6369C25.032 29.6369 25.3016 29.6931 25.5327 29.8054C25.7638 29.9153 25.9435 30.0802 26.0719 30.3001C26.2003 30.5176 26.2645 30.7889 26.2645 31.1139C26.2645 31.2453 26.2341 31.3864 26.1734 31.5369C26.1151 31.6851 26.0229 31.8237 25.8968 31.9528C25.7731 32.0818 25.6121 32.1882 25.4137 32.2718C25.2152 32.3531 24.9772 32.3937 24.6994 32.3937H24.1462V31.9922ZM24.1462 32.5371V32.1392H24.6994C25.0238 32.1392 25.2923 32.1786 25.5047 32.2575C25.7171 32.3364 25.884 32.4415 26.0054 32.573C26.1291 32.7044 26.2155 32.849 26.2645 33.0068C26.3158 33.1621 26.3415 33.3175 26.3415 33.4728C26.3415 33.7166 26.3007 33.9329 26.219 34.1217C26.1396 34.3105 26.0264 34.4706 25.8793 34.6021C25.7346 34.7335 25.5642 34.8327 25.3681 34.8996C25.1721 34.9665 24.9585 35 24.7274 35C24.5056 35 24.2967 34.9677 24.1007 34.9032C23.9069 34.8387 23.7354 34.7455 23.586 34.6236C23.4366 34.4993 23.3199 34.3475 23.2358 34.1683C23.1518 33.9867 23.1098 33.7799 23.1098 33.5481H23.7575C23.7575 33.7297 23.796 33.8887 23.8731 34.0249C23.9524 34.1611 24.0645 34.2675 24.2092 34.344C24.3563 34.418 24.529 34.4551 24.7274 34.4551C24.9258 34.4551 25.0962 34.4204 25.2386 34.3511C25.3833 34.2794 25.4942 34.1719 25.5712 34.0285C25.6506 33.8851 25.6903 33.7046 25.6903 33.4871C25.6903 33.2697 25.6459 33.0916 25.5572 32.953C25.4685 32.812 25.3425 32.708 25.1791 32.6411C25.018 32.5718 24.8278 32.5371 24.6084 32.5371H24.1462Z" fill="black"/>
<path d="M21.7758 33.2685H22.448C22.413 33.5983 22.3208 33.8934 22.1714 34.1539C22.022 34.4145 21.8108 34.6212 21.5377 34.7741C21.2646 34.9247 20.9238 35 20.5153 35C20.2165 35 19.9446 34.9426 19.6995 34.8279C19.4567 34.7132 19.2478 34.5507 19.0727 34.3404C18.8977 34.1277 18.7623 33.8731 18.6666 33.5768C18.5732 33.278 18.5265 32.9458 18.5265 32.5801V32.0603C18.5265 31.6947 18.5732 31.3637 18.6666 31.0673C18.7623 30.7685 18.8988 30.5128 19.0762 30.3001C19.256 30.0874 19.4719 29.9237 19.724 29.809C19.9761 29.6943 20.2597 29.6369 20.5748 29.6369C20.96 29.6369 21.2856 29.711 21.5517 29.8592C21.8178 30.0073 22.0244 30.2129 22.1714 30.4758C22.3208 30.7363 22.413 31.0386 22.448 31.3828H21.7758C21.7431 31.139 21.6824 30.9299 21.5937 30.7554C21.505 30.5785 21.379 30.4423 21.2156 30.3467C21.0522 30.2511 20.8386 30.2033 20.5748 30.2033C20.3484 30.2033 20.1488 30.2475 19.9761 30.336C19.8057 30.4244 19.6621 30.5499 19.5454 30.7124C19.431 30.8749 19.3447 31.0697 19.2863 31.2967C19.228 31.5238 19.1988 31.7759 19.1988 32.0532V32.5801C19.1988 32.8359 19.2245 33.0761 19.2758 33.3007C19.3295 33.5254 19.41 33.7226 19.5174 33.8922C19.6248 34.0619 19.7613 34.1958 19.9271 34.2938C20.0928 34.3894 20.2889 34.4372 20.5153 34.4372C20.8024 34.4372 21.0312 34.3906 21.2016 34.2973C21.372 34.2041 21.5003 34.0703 21.5867 33.8958C21.6754 33.7214 21.7384 33.5122 21.7758 33.2685Z" fill="black"/>
<path d="M15.3718 34.9283H14.3074L14.3144 34.3655H15.3718C15.736 34.3655 16.0394 34.2878 16.2822 34.1324C16.5249 33.9747 16.707 33.7548 16.8284 33.4728C16.9521 33.1884 17.014 32.8562 17.014 32.4762V32.1571C17.014 31.8584 16.9789 31.5931 16.9089 31.3613C16.8389 31.127 16.7362 30.9299 16.6008 30.7697C16.4654 30.6072 16.2997 30.4841 16.1036 30.4005C15.9099 30.3168 15.687 30.275 15.4349 30.275H14.2864V29.7086H15.4349C15.7687 29.7086 16.0733 29.766 16.3487 29.8807C16.6241 29.993 16.8611 30.1567 17.0595 30.3718C17.2602 30.5845 17.4143 30.8426 17.5217 31.1462C17.629 31.4473 17.6827 31.7867 17.6827 32.1643V32.4762C17.6827 32.8538 17.629 33.1944 17.5217 33.4979C17.4143 33.799 17.2591 34.056 17.056 34.2687C16.8552 34.4814 16.6125 34.6451 16.3277 34.7598C16.0453 34.8721 15.7266 34.9283 15.3718 34.9283ZM14.6681 29.7086V34.9283H13.9923V29.7086H14.6681Z" fill="black"/>
<path d="M11.5974 29.7086V34.9283H10.9321V29.7086H11.5974ZM13.236 29.7086V30.275H9.29702V29.7086H13.236Z" fill="black"/>
</svg>
