<svg width="50" height="50" viewBox="0 0 50 50" fill="none" xmlns="http://www.w3.org/2000/svg">
<path fill-rule="evenodd" clip-rule="evenodd" d="M4 21.0198H5.89309V23.6173H7.36761V21H9.24168V27.2815H7.36761V24.4074H5.87407V27.2519H4V21.0198Z" fill="#EE3124"/>
<path fill-rule="evenodd" clip-rule="evenodd" d="M12.2383 22.5506C12.6093 22.5309 12.9803 22.5901 13.3323 22.7086C13.846 22.8765 14.2741 23.242 14.5309 23.7259C14.8734 24.3975 14.921 25.1877 14.6736 25.9086C14.4929 26.442 14.1123 26.8864 13.6272 27.1432C13.2086 27.3407 12.752 27.4296 12.2954 27.4099C11.7341 27.4296 11.1918 27.2716 10.7257 26.9556C10.3071 26.6494 10.0122 26.2049 9.86954 25.7012C9.66025 24.9605 9.77441 24.1605 10.2025 23.5185C10.5735 23.0049 11.1253 22.679 11.7436 22.5901C11.9053 22.5704 12.0766 22.5506 12.2383 22.5506ZM12.8661 23.5975C12.9422 23.8444 12.9803 24.1012 12.9803 24.358V25.8494C12.9708 26.1951 12.8376 26.521 12.6093 26.7778C12.419 26.9556 12.1241 26.9358 11.9529 26.7383C11.9243 26.7086 11.9053 26.6691 11.8863 26.6296C11.7055 26.3432 11.639 26.0765 11.6485 25.2765C11.6675 24.4765 11.6199 23.9235 11.7721 23.5975C11.9243 23.2716 12.067 23.1333 12.2097 23.1037C12.4951 23.0346 12.7234 23.2321 12.8661 23.5975Z" fill="#EE3124"/>
<path fill-rule="evenodd" clip-rule="evenodd" d="M17.0994 23.9827V27.2617H15.349V22.6988H17.0994V23.3111C17.2612 23.0938 17.4704 22.9062 17.7083 22.7877C18.2125 22.5309 18.7928 22.5111 19.316 22.7185C19.7345 22.9062 20.0199 23.321 20.0485 23.7852V27.2519H18.3266V24.0914C18.3361 23.9235 18.2886 23.7457 18.1839 23.6074C18.0127 23.4494 17.7558 23.4296 17.5561 23.5383C17.3087 23.6864 17.0709 23.9432 17.0994 23.9827Z" fill="#EE3124"/>
<path fill-rule="evenodd" clip-rule="evenodd" d="M22.4267 24.6543C22.4172 24.358 22.4362 24.0716 22.4648 23.7753C22.5028 23.5383 22.6265 23.3111 22.8072 23.1531C23.026 23.0148 23.3019 23.0346 23.4922 23.2025C23.6159 23.321 23.7015 23.4691 23.7395 23.637C23.7871 23.8346 23.8061 24.0321 23.8061 24.2296V24.6444L22.4267 24.6543ZM20.8571 23.7852C21.3327 22.9457 22.246 22.4617 23.1878 22.5506C24.2818 22.6099 24.9191 23.0148 25.2997 23.7654C25.5185 24.2296 25.6136 24.7432 25.5946 25.2568H22.4267V26.1852C22.4458 26.2938 22.4743 26.3926 22.5314 26.4815C22.6075 26.5802 22.8929 26.9556 23.749 26.8173C24.7099 26.6593 24.6718 25.9679 24.7099 25.9679H25.4614C25.4519 26.2543 25.3377 26.521 25.1379 26.7284C24.7289 27.1136 24.2057 27.3506 23.6539 27.4099C23.0356 27.4691 22.1508 27.4889 21.4469 26.8864C21.1139 26.6 20.8571 26.2247 20.7239 25.8C20.5336 25.1383 20.5812 24.4272 20.8761 23.7951L20.8571 23.7852Z" fill="#EE3124"/>
<path fill-rule="evenodd" clip-rule="evenodd" d="M38.4086 24.6543C38.3991 24.358 38.4181 24.0716 38.4467 23.7753C38.4847 23.5383 38.6084 23.3111 38.7891 23.1531C39.0079 23.0148 39.2838 23.0346 39.4741 23.2025C39.5882 23.321 39.6738 23.4691 39.7214 23.637C39.769 23.8346 39.7975 24.0321 39.788 24.2296V24.6444L38.4086 24.6543ZM36.8485 23.7852C37.3241 22.9457 38.2374 22.4617 39.1792 22.5506C40.2827 22.6099 40.9105 23.0148 41.3006 23.7654C41.5099 24.2296 41.605 24.7432 41.5764 25.2568H38.4276V26.1852C38.4467 26.2938 38.4752 26.3926 38.5323 26.4815C38.5989 26.5802 38.8938 26.9556 39.7499 26.8173C40.7012 26.6593 40.6727 25.9679 40.6917 25.9679H41.4433C41.4242 26.2543 41.3101 26.521 41.1198 26.7284C40.7108 27.1136 40.1875 27.3506 39.6358 27.4099C39.0174 27.4691 38.1327 27.4889 37.4288 26.8864C37.0958 26.6 36.839 26.2247 36.7058 25.8C36.5155 25.1383 36.5726 24.4272 36.858 23.7951L36.8485 23.7852Z" fill="#EE3124"/>
<path fill-rule="evenodd" clip-rule="evenodd" d="M25.4424 22.7086H27.3545L28.1726 24.8815L29.0478 22.7185H31.4546L32.2251 25.2667L32.9101 22.7086H34.4512L35.2122 25.2272L35.8877 22.7086H36.6677L35.4501 27.2617H33.9946L33.186 24.6049L32.4915 27.2617H31.0075L29.6852 22.8667L27.8301 27.5086C27.7065 27.8938 27.5067 28.2494 27.2498 28.5654C26.9169 28.921 26.4412 29.0691 25.9656 28.9802C25.3853 28.8716 25.1379 28.5556 25.0904 28.1802C25.0238 27.7852 25.2711 27.4099 25.6516 27.3309C25.9561 27.2321 26.2795 27.3506 26.4412 27.6272C26.5364 27.8049 26.5554 28.0123 26.4983 28.2099C26.4603 28.2889 26.4127 28.358 26.3556 28.4272C26.5268 28.4568 26.6981 28.3877 26.8122 28.2593C26.9835 28.0617 27.1071 27.8247 27.1737 27.5778C27.1928 27.5185 27.2023 27.4593 27.2118 27.4L25.4424 22.7086Z" fill="#EE3124"/>
<path d="M43.7835 21H42.0997V27.2617H43.7835V21Z" fill="#EE3124"/>
<path d="M46 21.0099H44.3162V27.2716H46V21.0099Z" fill="#EE3124"/>
</svg>
