<svg width="50" height="50" viewBox="0 0 50 50" fill="none" xmlns="http://www.w3.org/2000/svg">
<path fill-rule="evenodd" clip-rule="evenodd" d="M38.2639 12.0356V11.1964H33.9217L33.6233 12.0356H38.2639Z" fill="black"/>
<path d="M30.5298 19.1761H26.219V20H30.5298V19.1761Z" fill="black"/>
<path d="M30.5298 17.5741H26.219V18.4132H30.5298V17.5741Z" fill="black"/>
<path fill-rule="evenodd" clip-rule="evenodd" d="M32.5792 12.0356L32.2808 11.1964H27.9544V12.0356H32.5792Z" fill="black"/>
<path d="M30.5299 14.3852H27.9544V15.2244H30.5299V14.3852Z" fill="black"/>
<path fill-rule="evenodd" clip-rule="evenodd" d="M30.5299 13.63V12.9587H30.5456L30.7968 13.63H35.4059L35.6651 12.9587H35.6886V13.63H38.2641V12.7908H33.3566L33.1053 13.424H33.0896L32.8462 12.7908H27.9544V13.63H30.5299Z" fill="black"/>
<path d="M30.5299 15.9797H27.9544V16.8188H30.5299V15.9797Z" fill="black"/>
<path fill-rule="evenodd" clip-rule="evenodd" d="M34.8411 15.2244L35.1395 14.3852H31.0564L31.3627 15.2244H34.8411Z" fill="black"/>
<path fill-rule="evenodd" clip-rule="evenodd" d="M34.2754 16.8265L34.5737 15.9797H31.6214L31.9276 16.8265H34.2754Z" fill="black"/>
<path fill-rule="evenodd" clip-rule="evenodd" d="M33.6944 18.4209L33.9928 17.5741H32.1868L32.493 18.4209H33.6944Z" fill="black"/>
<path fill-rule="evenodd" clip-rule="evenodd" d="M32.7518 19.1761L33.058 20H33.1601L33.4427 19.1761H32.7518Z" fill="black"/>
<path fill-rule="evenodd" clip-rule="evenodd" d="M26.219 9.60202V10.4412H32.0138L31.7154 9.60202H26.219Z" fill="black"/>
<path fill-rule="evenodd" clip-rule="evenodd" d="M31.4487 8.84679L31.1503 8H26.2193V8.84679H31.4487Z" fill="black"/>
<path fill-rule="evenodd" clip-rule="evenodd" d="M15.886 9.60202V10.4412H25.4419C25.387 10.136 25.1278 9.60202 25.1278 9.60202H15.886Z" fill="black"/>
<path fill-rule="evenodd" clip-rule="evenodd" d="M25.3712 12.0356C25.3712 12.0356 25.5283 11.4711 25.5283 11.1964H22.7801V12.0356H25.3712Z" fill="black"/>
<path fill-rule="evenodd" clip-rule="evenodd" d="M24.9469 15.2092C24.9469 15.2092 24.4914 14.6446 24.1852 14.3852H17.6131V15.2092H24.9469Z" fill="black"/>
<path fill-rule="evenodd" clip-rule="evenodd" d="M15.886 17.5741V18.4132H25.12C25.277 18.1539 25.387 17.864 25.4341 17.5741H15.886Z" fill="black"/>
<path fill-rule="evenodd" clip-rule="evenodd" d="M15.886 19.1761V20H21.9792C23.9422 20 24.484 19.1761 24.484 19.1761H15.886Z" fill="black"/>
<path fill-rule="evenodd" clip-rule="evenodd" d="M24.1228 13.63C24.4605 13.3935 24.7432 13.1189 24.9866 12.7908C24.9709 12.7908 17.6214 12.7908 17.6214 12.7908V13.63H24.1228Z" fill="black"/>
<path fill-rule="evenodd" clip-rule="evenodd" d="M25.5518 16.8265C25.5518 16.5367 25.4969 16.262 25.3948 15.9874H22.7801V16.8265H25.5518Z" fill="black"/>
<path d="M20.1968 15.9797H17.6214V16.8188H20.1968V15.9797Z" fill="black"/>
<path fill-rule="evenodd" clip-rule="evenodd" d="M17.6214 11.1964V12.0356H20.1968V11.1964H17.6214Z" fill="black"/>
<path fill-rule="evenodd" clip-rule="evenodd" d="M24.4916 8.8239C23.7692 8.25938 22.9369 8 22.0025 8H15.8936V8.8239H24.4916Z" fill="black"/>
<path d="M13.3106 15.9797H10.7352V16.8188H13.3106V15.9797Z" fill="black"/>
<path d="M15.0223 17.5741H8.99981V18.4132H15.0223V17.5741Z" fill="black"/>
<path d="M15.0223 19.1761H8.99981V20H15.0223V19.1761Z" fill="black"/>
<path d="M15.0223 8H8.99981V8.83916H15.0223V8Z" fill="black"/>
<path d="M15.03 9.60202H9.02324V10.4412H15.03V9.60202Z" fill="black"/>
<path d="M13.3106 11.1964H10.7352V12.0356H13.3106V11.1964Z" fill="black"/>
<path d="M13.3106 12.7908H10.7352V13.63H13.3106V12.7908Z" fill="black"/>
<path d="M13.3106 14.3852H10.7352V15.2244H13.3106V14.3852Z" fill="black"/>
<path d="M38.2642 14.3852H35.6888V15.2244H38.2642V14.3852Z" fill="black"/>
<path d="M38.2642 15.9797H35.6888V16.8188H38.2642V15.9797Z" fill="black"/>
<path d="M39.9995 17.5741H35.6888V18.4132H39.9995V17.5741Z" fill="black"/>
<path d="M39.9995 19.1761H35.6888V20H39.9995V19.1761Z" fill="black"/>
<path fill-rule="evenodd" clip-rule="evenodd" d="M39.9918 10.4412V9.60202H34.519L34.2049 10.4412H39.9918Z" fill="black"/>
<path fill-rule="evenodd" clip-rule="evenodd" d="M39.9916 8.84679V8H35.1391L34.8014 8.84679H39.9916Z" fill="black"/>
<path d="M12.2188 32.2031C12.2188 32.0371 12.1927 31.8906 12.1406 31.7637C12.0918 31.6335 12.0039 31.5163 11.877 31.4121C11.7533 31.3079 11.5807 31.2087 11.3594 31.1143C11.1413 31.0199 10.8646 30.9238 10.5293 30.8262C10.1777 30.722 9.86035 30.6064 9.57715 30.4795C9.29395 30.3493 9.05143 30.2012 8.84961 30.0352C8.64779 29.8691 8.49316 29.6787 8.38574 29.4639C8.27832 29.249 8.22461 29.0033 8.22461 28.7266C8.22461 28.4499 8.28158 28.1943 8.39551 27.96C8.50944 27.7256 8.6722 27.5221 8.88379 27.3496C9.09863 27.1738 9.35417 27.0371 9.65039 26.9395C9.94661 26.8418 10.277 26.793 10.6416 26.793C11.1755 26.793 11.6279 26.8955 11.999 27.1006C12.3734 27.3024 12.6582 27.5677 12.8535 27.8965C13.0488 28.222 13.1465 28.5703 13.1465 28.9414H12.209C12.209 28.6745 12.152 28.4385 12.0381 28.2334C11.9242 28.0251 11.7516 27.8623 11.5205 27.7451C11.2894 27.6247 10.9964 27.5645 10.6416 27.5645C10.3063 27.5645 10.0296 27.6149 9.81152 27.7158C9.59342 27.8167 9.43066 27.9535 9.32324 28.126C9.21908 28.2985 9.16699 28.4954 9.16699 28.7168C9.16699 28.8665 9.19792 29.0033 9.25977 29.127C9.32487 29.2474 9.42415 29.3597 9.55762 29.4639C9.69434 29.568 9.86686 29.6641 10.0752 29.752C10.2868 29.8398 10.5391 29.9245 10.832 30.0059C11.2357 30.1198 11.584 30.2467 11.877 30.3867C12.1699 30.5267 12.4108 30.6846 12.5996 30.8604C12.7917 31.0329 12.9333 31.2298 13.0244 31.4512C13.1188 31.6693 13.166 31.9167 13.166 32.1934C13.166 32.4831 13.1074 32.7451 12.9902 32.9795C12.873 33.2139 12.7054 33.4141 12.4873 33.5801C12.2692 33.7461 12.0072 33.8747 11.7012 33.9658C11.3984 34.0537 11.0599 34.0977 10.6855 34.0977C10.3568 34.0977 10.0329 34.0521 9.71387 33.9609C9.39811 33.8698 9.11003 33.7331 8.84961 33.5508C8.59245 33.3685 8.38574 33.1439 8.22949 32.877C8.0765 32.6068 8 32.2943 8 31.9395H8.9375C8.9375 32.1836 8.9847 32.3936 9.0791 32.5693C9.1735 32.7419 9.30208 32.8851 9.46484 32.999C9.63086 33.113 9.81803 33.1976 10.0264 33.2529C10.238 33.305 10.4577 33.3311 10.6855 33.3311C11.0143 33.3311 11.2926 33.2855 11.5205 33.1943C11.7484 33.1032 11.9209 32.973 12.0381 32.8037C12.1585 32.6344 12.2188 32.4342 12.2188 32.2031Z" fill="black"/>
<path d="M16.3424 28.7168V29.4102H13.4859V28.7168H16.3424ZM14.4527 27.4326H15.3561V32.6914C15.3561 32.8704 15.3837 33.0055 15.4391 33.0967C15.4944 33.1878 15.566 33.248 15.6539 33.2773C15.7418 33.3066 15.8362 33.3213 15.9371 33.3213C16.012 33.3213 16.0901 33.3148 16.1715 33.3018C16.2561 33.2855 16.3196 33.2725 16.3619 33.2627L16.3668 34C16.2952 34.0228 16.2008 34.0439 16.0836 34.0635C15.9697 34.0863 15.8313 34.0977 15.6686 34.0977C15.4472 34.0977 15.2438 34.0537 15.0582 33.9658C14.8727 33.8779 14.7245 33.7314 14.6139 33.5264C14.5064 33.318 14.4527 33.0381 14.4527 32.6865V27.4326Z" fill="black"/>
<path d="M16.965 31.417V31.3047C16.965 30.9238 17.0204 30.5706 17.1311 30.2451C17.2417 29.9163 17.4012 29.6315 17.6096 29.3906C17.8179 29.1465 18.0702 28.9577 18.3664 28.8242C18.6626 28.6875 18.9947 28.6191 19.3625 28.6191C19.7336 28.6191 20.0673 28.6875 20.3635 28.8242C20.663 28.9577 20.9169 29.1465 21.1252 29.3906C21.3368 29.6315 21.4979 29.9163 21.6086 30.2451C21.7193 30.5706 21.7746 30.9238 21.7746 31.3047V31.417C21.7746 31.7979 21.7193 32.151 21.6086 32.4766C21.4979 32.8021 21.3368 33.0869 21.1252 33.3311C20.9169 33.5719 20.6646 33.7607 20.3684 33.8975C20.0754 34.0309 19.7434 34.0977 19.3723 34.0977C19.0012 34.0977 18.6675 34.0309 18.3713 33.8975C18.0751 33.7607 17.8212 33.5719 17.6096 33.3311C17.4012 33.0869 17.2417 32.8021 17.1311 32.4766C17.0204 32.151 16.965 31.7979 16.965 31.417ZM17.8684 31.3047V31.417C17.8684 31.6807 17.8993 31.9297 17.9611 32.1641C18.023 32.3952 18.1158 32.6003 18.2395 32.7793C18.3664 32.9583 18.5243 33.0999 18.7131 33.2041C18.9019 33.305 19.1216 33.3555 19.3723 33.3555C19.6197 33.3555 19.8361 33.305 20.0217 33.2041C20.2105 33.0999 20.3667 32.9583 20.4904 32.7793C20.6141 32.6003 20.7069 32.3952 20.7688 32.1641C20.8339 31.9297 20.8664 31.6807 20.8664 31.417V31.3047C20.8664 31.0443 20.8339 30.7985 20.7688 30.5674C20.7069 30.333 20.6125 30.1263 20.4855 29.9473C20.3618 29.765 20.2056 29.6217 20.0168 29.5176C19.8313 29.4134 19.6132 29.3613 19.3625 29.3613C19.1151 29.3613 18.897 29.4134 18.7082 29.5176C18.5227 29.6217 18.3664 29.765 18.2395 29.9473C18.1158 30.1263 18.023 30.333 17.9611 30.5674C17.8993 30.7985 17.8684 31.0443 17.8684 31.3047Z" fill="black"/>
<path d="M23.7107 29.5469V34H22.8074V28.7168H23.6863L23.7107 29.5469ZM25.3611 28.6875L25.3563 29.5273C25.2814 29.5111 25.2098 29.5013 25.1414 29.498C25.0763 29.4915 25.0014 29.4883 24.9168 29.4883C24.7085 29.4883 24.5245 29.5208 24.365 29.5859C24.2055 29.651 24.0704 29.7422 23.9598 29.8594C23.8491 29.9766 23.7612 30.1165 23.6961 30.2793C23.6342 30.4388 23.5936 30.6146 23.574 30.8066L23.3201 30.9531C23.3201 30.6341 23.351 30.3346 23.4129 30.0547C23.478 29.7747 23.5773 29.5273 23.7107 29.3125C23.8442 29.0944 24.0135 28.9251 24.2186 28.8047C24.4269 28.681 24.6743 28.6191 24.9607 28.6191C25.0258 28.6191 25.1007 28.6273 25.1854 28.6436C25.27 28.6566 25.3286 28.6712 25.3611 28.6875Z" fill="black"/>
<path d="M29.016 33.0967V30.377C29.016 30.1686 28.9737 29.988 28.8891 29.835C28.8077 29.6787 28.684 29.5583 28.518 29.4736C28.352 29.389 28.1469 29.3467 27.9027 29.3467C27.6749 29.3467 27.4747 29.3857 27.3021 29.4639C27.1329 29.542 26.9994 29.6445 26.9018 29.7715C26.8074 29.8984 26.7602 30.0352 26.7602 30.1816H25.8568C25.8568 29.9928 25.9057 29.8057 26.0033 29.6201C26.101 29.4346 26.241 29.2669 26.4232 29.1172C26.6088 28.9642 26.8301 28.8438 27.0873 28.7559C27.3477 28.6647 27.6374 28.6191 27.9564 28.6191C28.3406 28.6191 28.6791 28.6842 28.9721 28.8145C29.2683 28.9447 29.4994 29.1416 29.6654 29.4053C29.8347 29.6657 29.9193 29.9928 29.9193 30.3867V32.8477C29.9193 33.0234 29.934 33.2106 29.9633 33.4092C29.9958 33.6077 30.043 33.7786 30.1049 33.9219V34H29.1625C29.1169 33.8958 29.0811 33.7575 29.0551 33.585C29.029 33.4092 29.016 33.2464 29.016 33.0967ZM29.1723 30.7969L29.182 31.4316H28.2689C28.0118 31.4316 27.7823 31.4528 27.5805 31.4951C27.3786 31.5342 27.2094 31.5944 27.0727 31.6758C26.9359 31.7572 26.8318 31.8597 26.7602 31.9834C26.6885 32.1038 26.6527 32.2454 26.6527 32.4082C26.6527 32.5742 26.6902 32.7256 26.765 32.8623C26.8399 32.999 26.9522 33.1081 27.102 33.1895C27.2549 33.2676 27.4421 33.3066 27.6635 33.3066C27.9402 33.3066 28.1843 33.248 28.3959 33.1309C28.6075 33.0137 28.7751 32.8704 28.8988 32.7012C29.0258 32.5319 29.0941 32.3675 29.1039 32.208L29.4896 32.6426C29.4669 32.7793 29.405 32.9307 29.3041 33.0967C29.2032 33.2627 29.0681 33.4222 28.8988 33.5752C28.7328 33.7249 28.5342 33.8503 28.3031 33.9512C28.0753 34.0488 27.8181 34.0977 27.5316 34.0977C27.1736 34.0977 26.8594 34.0277 26.5893 33.8877C26.3223 33.7477 26.114 33.5605 25.9643 33.3262C25.8178 33.0885 25.7445 32.8232 25.7445 32.5303C25.7445 32.2471 25.7999 31.998 25.9105 31.7832C26.0212 31.5651 26.1807 31.3844 26.3891 31.2412C26.5974 31.0947 26.848 30.984 27.141 30.9092C27.434 30.8343 27.7611 30.7969 28.1225 30.7969H29.1723Z" fill="black"/>
<path d="M34.6631 28.7168H35.4834V33.8877C35.4834 34.3532 35.389 34.7503 35.2002 35.0791C35.0114 35.4079 34.7477 35.6569 34.4092 35.8262C34.0739 35.9987 33.6865 36.085 33.2471 36.085C33.0648 36.085 32.8499 36.0557 32.6025 35.9971C32.3584 35.9417 32.1175 35.8457 31.8799 35.709C31.6455 35.5755 31.4486 35.3949 31.2891 35.167L31.7627 34.6299C31.984 34.8968 32.2152 35.0824 32.4561 35.1865C32.7002 35.2907 32.9411 35.3428 33.1787 35.3428C33.4652 35.3428 33.7126 35.2891 33.9209 35.1816C34.1292 35.0742 34.2904 34.9147 34.4043 34.7031C34.5215 34.4948 34.5801 34.2376 34.5801 33.9316V29.8789L34.6631 28.7168ZM31.0254 31.417V31.3145C31.0254 30.9108 31.0726 30.5446 31.167 30.2158C31.2646 29.8838 31.403 29.599 31.582 29.3613C31.7643 29.1237 31.984 28.9414 32.2412 28.8145C32.4984 28.6842 32.7881 28.6191 33.1104 28.6191C33.4424 28.6191 33.7321 28.6777 33.9795 28.7949C34.2301 28.9089 34.4417 29.0765 34.6143 29.2979C34.79 29.516 34.9284 29.7796 35.0293 30.0889C35.1302 30.3981 35.2002 30.748 35.2393 31.1387V31.5879C35.2035 31.9753 35.1335 32.3236 35.0293 32.6328C34.9284 32.9421 34.79 33.2057 34.6143 33.4238C34.4417 33.6419 34.2301 33.8096 33.9795 33.9268C33.7288 34.0407 33.4359 34.0977 33.1006 34.0977C32.7848 34.0977 32.4984 34.0309 32.2412 33.8975C31.9873 33.764 31.7692 33.5768 31.5869 33.3359C31.4046 33.0951 31.2646 32.8118 31.167 32.4863C31.0726 32.1576 31.0254 31.8011 31.0254 31.417ZM31.9287 31.3145V31.417C31.9287 31.6807 31.9548 31.9281 32.0068 32.1592C32.0622 32.3903 32.1452 32.5938 32.2559 32.7695C32.3698 32.9453 32.5146 33.0837 32.6904 33.1846C32.8662 33.2822 33.0762 33.3311 33.3203 33.3311C33.6198 33.3311 33.8672 33.2676 34.0625 33.1406C34.2578 33.0137 34.4124 32.846 34.5264 32.6377C34.6436 32.4294 34.7347 32.2031 34.7998 31.959V30.7822C34.764 30.6032 34.7087 30.4307 34.6338 30.2646C34.5622 30.0954 34.4678 29.9456 34.3506 29.8154C34.2367 29.682 34.0951 29.5762 33.9258 29.498C33.7565 29.4199 33.5579 29.3809 33.3301 29.3809C33.0827 29.3809 32.8695 29.4329 32.6904 29.5371C32.5146 29.638 32.3698 29.778 32.2559 29.957C32.1452 30.1328 32.0622 30.3379 32.0068 30.5723C31.9548 30.8034 31.9287 31.0508 31.9287 31.3145Z" fill="black"/>
<path d="M38.9479 34.0977C38.58 34.0977 38.2464 34.0358 37.9469 33.9121C37.6507 33.7852 37.3951 33.6077 37.1803 33.3799C36.9687 33.152 36.8059 32.8818 36.692 32.5693C36.5781 32.2568 36.5211 31.915 36.5211 31.5439V31.3389C36.5211 30.9092 36.5846 30.5267 36.7115 30.1914C36.8385 29.8529 37.011 29.5664 37.2291 29.332C37.4472 29.0977 37.6946 28.9202 37.9713 28.7998C38.248 28.6794 38.5344 28.6191 38.8307 28.6191C39.2083 28.6191 39.5338 28.6842 39.8072 28.8145C40.0839 28.9447 40.3102 29.127 40.4859 29.3613C40.6617 29.5924 40.7919 29.8659 40.8766 30.1816C40.9612 30.4941 41.0035 30.8359 41.0035 31.207V31.6123H37.0582V30.875H40.1002V30.8066C40.0872 30.5723 40.0383 30.3444 39.9537 30.123C39.8723 29.9017 39.7421 29.7194 39.5631 29.5762C39.384 29.4329 39.1399 29.3613 38.8307 29.3613C38.6256 29.3613 38.4368 29.4053 38.2643 29.4932C38.0917 29.5778 37.9436 29.7048 37.8199 29.874C37.6962 30.0433 37.6002 30.25 37.5318 30.4941C37.4635 30.7383 37.4293 31.0199 37.4293 31.3389V31.5439C37.4293 31.7946 37.4635 32.0306 37.5318 32.252C37.6035 32.4701 37.706 32.6621 37.8395 32.8281C37.9762 32.9941 38.1406 33.1243 38.3326 33.2188C38.5279 33.3132 38.7493 33.3604 38.9967 33.3604C39.3157 33.3604 39.5859 33.2952 39.8072 33.165C40.0286 33.0348 40.2223 32.8607 40.3883 32.6426L40.9352 33.0771C40.8212 33.2497 40.6764 33.4141 40.5006 33.5703C40.3248 33.7266 40.1083 33.8535 39.8512 33.9512C39.5973 34.0488 39.2962 34.0977 38.9479 34.0977Z" fill="black"/>
<path d="M12.043 41.2119H10.1436V40.4453H12.043C12.4108 40.4453 12.7087 40.3867 12.9365 40.2695C13.1644 40.1523 13.3304 39.9896 13.4346 39.7812C13.542 39.5729 13.5957 39.3353 13.5957 39.0684C13.5957 38.8242 13.542 38.5947 13.4346 38.3799C13.3304 38.165 13.1644 37.9925 12.9365 37.8623C12.7087 37.7288 12.4108 37.6621 12.043 37.6621H10.3633V44H9.4209V36.8906H12.043C12.5801 36.8906 13.0342 36.9834 13.4053 37.1689C13.7764 37.3545 14.0579 37.6117 14.25 37.9404C14.4421 38.266 14.5381 38.6387 14.5381 39.0586C14.5381 39.5143 14.4421 39.9033 14.25 40.2256C14.0579 40.5479 13.7764 40.7936 13.4053 40.9629C13.0342 41.1289 12.5801 41.2119 12.043 41.2119Z" fill="black"/>
<path d="M16.3961 39.5469V44H15.4928V38.7168H16.3717L16.3961 39.5469ZM18.0465 38.6875L18.0416 39.5273C17.9667 39.5111 17.8951 39.5013 17.8268 39.498C17.7617 39.4915 17.6868 39.4883 17.6021 39.4883C17.3938 39.4883 17.2099 39.5208 17.0504 39.5859C16.8909 39.651 16.7558 39.7422 16.6451 39.8594C16.5344 39.9766 16.4466 40.1165 16.3814 40.2793C16.3196 40.4388 16.2789 40.6146 16.2594 40.8066L16.0055 40.9531C16.0055 40.6341 16.0364 40.3346 16.0982 40.0547C16.1633 39.7747 16.2626 39.5273 16.3961 39.3125C16.5296 39.0944 16.6988 38.9251 16.9039 38.8047C17.1122 38.681 17.3596 38.6191 17.6461 38.6191C17.7112 38.6191 17.7861 38.6273 17.8707 38.6436C17.9553 38.6566 18.0139 38.6712 18.0465 38.6875Z" fill="black"/>
<path d="M18.4445 41.417V41.3047C18.4445 40.9238 18.4999 40.5706 18.6105 40.2451C18.7212 39.9163 18.8807 39.6315 19.0891 39.3906C19.2974 39.1465 19.5497 38.9577 19.8459 38.8242C20.1421 38.6875 20.4742 38.6191 20.842 38.6191C21.2131 38.6191 21.5467 38.6875 21.843 38.8242C22.1424 38.9577 22.3964 39.1465 22.6047 39.3906C22.8163 39.6315 22.9774 39.9163 23.0881 40.2451C23.1988 40.5706 23.2541 40.9238 23.2541 41.3047V41.417C23.2541 41.7979 23.1988 42.151 23.0881 42.4766C22.9774 42.8021 22.8163 43.0869 22.6047 43.3311C22.3964 43.5719 22.1441 43.7607 21.8479 43.8975C21.5549 44.0309 21.2229 44.0977 20.8518 44.0977C20.4807 44.0977 20.147 44.0309 19.8508 43.8975C19.5546 43.7607 19.3007 43.5719 19.0891 43.3311C18.8807 43.0869 18.7212 42.8021 18.6105 42.4766C18.4999 42.151 18.4445 41.7979 18.4445 41.417ZM19.3479 41.3047V41.417C19.3479 41.6807 19.3788 41.9297 19.4406 42.1641C19.5025 42.3952 19.5952 42.6003 19.7189 42.7793C19.8459 42.9583 20.0038 43.0999 20.1926 43.2041C20.3814 43.305 20.6011 43.3555 20.8518 43.3555C21.0992 43.3555 21.3156 43.305 21.5012 43.2041C21.69 43.0999 21.8462 42.9583 21.9699 42.7793C22.0936 42.6003 22.1864 42.3952 22.2482 42.1641C22.3133 41.9297 22.3459 41.6807 22.3459 41.417V41.3047C22.3459 41.0443 22.3133 40.7985 22.2482 40.5674C22.1864 40.333 22.092 40.1263 21.965 39.9473C21.8413 39.765 21.6851 39.6217 21.4963 39.5176C21.3107 39.4134 21.0926 39.3613 20.842 39.3613C20.5946 39.3613 20.3765 39.4134 20.1877 39.5176C20.0021 39.6217 19.8459 39.765 19.7189 39.9473C19.5952 40.1263 19.5025 40.333 19.4406 40.5674C19.3788 40.7985 19.3479 41.0443 19.3479 41.3047Z" fill="black"/>
<path d="M26.4988 38.7168V39.4102H23.6424V38.7168H26.4988ZM24.6092 37.4326H25.5125V42.6914C25.5125 42.8704 25.5402 43.0055 25.5955 43.0967C25.6508 43.1878 25.7225 43.248 25.8104 43.2773C25.8982 43.3066 25.9926 43.3213 26.0936 43.3213C26.1684 43.3213 26.2466 43.3148 26.3279 43.3018C26.4126 43.2855 26.476 43.2725 26.5184 43.2627L26.5232 44C26.4516 44.0228 26.3572 44.0439 26.24 44.0635C26.1261 44.0863 25.9878 44.0977 25.825 44.0977C25.6036 44.0977 25.4002 44.0537 25.2146 43.9658C25.0291 43.8779 24.881 43.7314 24.7703 43.5264C24.6629 43.318 24.6092 43.0381 24.6092 42.6865V37.4326Z" fill="black"/>
<path d="M29.6508 44.0977C29.2829 44.0977 28.9493 44.0358 28.6498 43.9121C28.3536 43.7852 28.098 43.6077 27.8832 43.3799C27.6716 43.152 27.5089 42.8818 27.3949 42.5693C27.281 42.2568 27.224 41.915 27.224 41.5439V41.3389C27.224 40.9092 27.2875 40.5267 27.4145 40.1914C27.5414 39.8529 27.7139 39.5664 27.932 39.332C28.1501 39.0977 28.3975 38.9202 28.6742 38.7998C28.9509 38.6794 29.2374 38.6191 29.5336 38.6191C29.9112 38.6191 30.2367 38.6842 30.5102 38.8145C30.7869 38.9447 31.0131 39.127 31.1889 39.3613C31.3647 39.5924 31.4949 39.8659 31.5795 40.1816C31.6641 40.4941 31.7064 40.8359 31.7064 41.207V41.6123H27.7611V40.875H30.8031V40.8066C30.7901 40.5723 30.7413 40.3444 30.6566 40.123C30.5753 39.9017 30.4451 39.7194 30.266 39.5762C30.087 39.4329 29.8428 39.3613 29.5336 39.3613C29.3285 39.3613 29.1397 39.4053 28.9672 39.4932C28.7947 39.5778 28.6466 39.7048 28.5229 39.874C28.3992 40.0433 28.3031 40.25 28.2348 40.4941C28.1664 40.7383 28.1322 41.0199 28.1322 41.3389V41.5439C28.1322 41.7946 28.1664 42.0306 28.2348 42.252C28.3064 42.4701 28.4089 42.6621 28.5424 42.8281C28.6791 42.9941 28.8435 43.1243 29.0355 43.2188C29.2309 43.3132 29.4522 43.3604 29.6996 43.3604C30.0186 43.3604 30.2888 43.2952 30.5102 43.165C30.7315 43.0348 30.9252 42.8607 31.0912 42.6426L31.6381 43.0771C31.5242 43.2497 31.3793 43.4141 31.2035 43.5703C31.0277 43.7266 30.8113 43.8535 30.5541 43.9512C30.3002 44.0488 29.9991 44.0977 29.6508 44.0977Z" fill="black"/>
<path d="M34.7754 43.3555C34.9902 43.3555 35.1888 43.3115 35.3711 43.2236C35.5534 43.1357 35.7031 43.0153 35.8203 42.8623C35.9375 42.7061 36.0042 42.5286 36.0205 42.3301H36.8799C36.8636 42.6426 36.7578 42.9339 36.5625 43.2041C36.3704 43.471 36.1182 43.6875 35.8057 43.8535C35.4932 44.0163 35.1497 44.0977 34.7754 44.0977C34.3783 44.0977 34.0316 44.0277 33.7354 43.8877C33.4424 43.7477 33.1982 43.5557 33.0029 43.3115C32.8109 43.0674 32.666 42.7874 32.5684 42.4717C32.474 42.1527 32.4268 41.8158 32.4268 41.4609V41.2559C32.4268 40.901 32.474 40.5658 32.5684 40.25C32.666 39.931 32.8109 39.6494 33.0029 39.4053C33.1982 39.1611 33.4424 38.9691 33.7354 38.8291C34.0316 38.6891 34.3783 38.6191 34.7754 38.6191C35.1888 38.6191 35.5501 38.7038 35.8594 38.873C36.1686 39.0391 36.4111 39.2669 36.5869 39.5566C36.766 39.8431 36.8636 40.1686 36.8799 40.5332H36.0205C36.0042 40.3151 35.9424 40.1182 35.835 39.9424C35.7308 39.7666 35.5876 39.6266 35.4053 39.5225C35.2262 39.415 35.0163 39.3613 34.7754 39.3613C34.4987 39.3613 34.266 39.4167 34.0771 39.5273C33.8916 39.6348 33.7435 39.7812 33.6328 39.9668C33.5254 40.1491 33.4473 40.3525 33.3984 40.5771C33.3529 40.7985 33.3301 41.0247 33.3301 41.2559V41.4609C33.3301 41.6921 33.3529 41.9199 33.3984 42.1445C33.444 42.3691 33.5205 42.5726 33.6279 42.7549C33.7386 42.9372 33.8867 43.0837 34.0723 43.1943C34.2611 43.3018 34.4954 43.3555 34.7754 43.3555Z" fill="black"/>
<path d="M40.0074 38.7168V39.4102H37.151V38.7168H40.0074ZM38.1178 37.4326H39.0211V42.6914C39.0211 42.8704 39.0488 43.0055 39.1041 43.0967C39.1594 43.1878 39.2311 43.248 39.3189 43.2773C39.4068 43.3066 39.5012 43.3213 39.6021 43.3213C39.677 43.3213 39.7551 43.3148 39.8365 43.3018C39.9212 43.2855 39.9846 43.2725 40.027 43.2627L40.0318 44C39.9602 44.0228 39.8658 44.0439 39.7486 44.0635C39.6347 44.0863 39.4964 44.0977 39.3336 44.0977C39.1122 44.0977 38.9088 44.0537 38.7232 43.9658C38.5377 43.8779 38.3896 43.7314 38.2789 43.5264C38.1715 43.318 38.1178 43.0381 38.1178 42.6865V37.4326Z" fill="black"/>
</svg>
