<svg width="50" height="50" viewBox="0 0 50 50" fill="none" xmlns="http://www.w3.org/2000/svg">
<path d="M29.4663 31.0779C28.9359 31.8505 28.0979 32.3517 27.1521 32.3517C25.5468 32.3517 24.2451 30.9131 24.2451 29.1395C24.2451 27.3659 25.5468 25.9273 27.1521 25.9273C28.7573 25.9273 30.059 27.3645 30.059 29.1395C30.059 29.5562 29.9853 29.9536 29.8534 30.3191L31.297 32.3323C32.0145 31.4559 32.4441 30.3468 32.4441 29.1395C32.4441 26.3011 30.0746 24 27.1506 24C24.2267 24 21.8571 26.3011 21.8571 29.1395C21.8571 31.9778 24.2267 34.279 27.1506 34.279C27.8029 34.279 28.4269 34.1641 29.004 33.9536L30.4731 36H33L29.4649 31.0765L29.4663 31.0779Z" fill="#A33E97"/>
<path d="M20.5714 24H18V33.931H20.5714V24Z" fill="#A33E97"/>
<path d="M7.51376 20.5568H6V14.0705H7.51376V20.5568Z" fill="#005A7C"/>
<path d="M14.431 14.0718V20.5581H13.6479C13.4168 20.5581 13.2773 20.4945 13.1218 20.3093L10.0639 16.4406C10.2038 17.7971 10.0952 19.1977 10.0952 20.559H8.76847V14.0728H9.56082C9.81712 14.0728 9.89066 14.0979 10.0593 14.304L13.1439 18.1994C12.9833 16.8439 13.1034 15.4344 13.1034 14.0728H14.4301L14.431 14.0718Z" fill="#005A7C"/>
<path d="M19.0947 16.8714H17.1995V15.2287H19.5517C19.7609 14.8039 20.0299 14.4216 20.3588 14.0899C20.3653 14.0834 20.3735 14.077 20.38 14.0705H15.6858V20.5568H17.1995V18.0323H19.1316C19.0769 17.6542 19.0604 17.256 19.0947 16.8714Z" fill="#005A7C"/>
<path d="M26.9032 17.3122C26.9032 19.1842 25.4291 20.628 23.5385 20.628C21.6767 20.628 20.1645 19.226 20.1645 17.3122C20.1645 15.4348 21.6458 14.0009 23.5385 14.0009C25.3786 14.0009 26.9032 15.4204 26.9032 17.3122ZM25.3627 17.3122C25.3627 16.2145 24.7387 15.241 23.5376 15.241C22.3857 15.241 21.7041 16.0278 21.7041 17.3122C21.7041 18.4182 22.3294 19.3815 23.5376 19.3815C24.7025 19.3815 25.3627 18.6084 25.3627 17.3122Z" fill="#005A7C"/>
<path d="M31.5071 15.3894C31.3788 15.5979 31.1699 15.6563 30.957 15.5386C30.6256 15.3554 30.299 15.1848 29.9122 15.1848C29.3484 15.1848 29.0747 15.4437 29.0747 15.8528C29.0747 16.2464 29.4701 16.4175 29.9896 16.5715C30.9701 16.8687 31.9677 17.3281 31.9677 18.4786C31.9677 19.8001 30.8874 20.629 29.645 20.629C28.8375 20.629 27.9304 20.2817 27.4191 19.774L27.8641 19.071C28.0089 18.8668 28.2617 18.8524 28.462 18.9771C28.8468 19.2165 29.2237 19.4359 29.6883 19.4359C30.233 19.4359 30.5516 19.2073 30.5516 18.6832C30.5516 18.229 30.1545 18.0561 29.6395 17.9129C28.581 17.6186 27.6678 17.124 27.6678 15.9274C27.6678 14.9552 28.4645 14 29.8938 14C30.6946 14 31.4166 14.2678 31.8793 14.6901L31.5052 15.3894H31.5071Z" fill="#005A7C"/>
<path d="M36.6767 19.3996H34.3688V17.8545H36.2686C36.2327 17.4881 36.2345 17.1049 36.2723 16.7415H34.3678V15.2277H36.6942C36.8978 14.7975 37.1604 14.4105 37.4829 14.0779C37.4857 14.0752 37.4884 14.0733 37.4912 14.0705H32.8541V20.5568H37.4534C37.1415 20.2266 36.8715 19.8262 36.6767 19.3996Z" fill="#005A7C"/>
<path d="M42.4039 18.9688L43 19.5962C42.4778 20.2808 41.6957 20.629 40.6229 20.629C38.7675 20.629 37.4628 19.164 37.4628 17.3122C37.4628 15.4857 38.8136 14 40.6985 14C41.6754 14 42.439 14.3678 42.9235 14.8633L42.4159 15.5442C42.2424 15.7672 42.0155 15.7173 41.8106 15.5865C41.5958 15.4496 41.3166 15.241 40.6893 15.241C39.6897 15.241 39.0014 15.9979 39.0014 17.3104C39.0014 18.3257 39.5807 19.3889 40.7197 19.3889C41.2622 19.3889 41.5902 19.3014 41.9488 18.9798C42.0883 18.8653 42.267 18.828 42.4039 18.9688Z" fill="#005A7C"/>
</svg>
