<svg width="36" height="36" viewBox="0 0 36 36" fill="none" xmlns="http://www.w3.org/2000/svg">
<path d="M9.8352 16.0634L5.19034 12.5805C5.06123 12.4514 4.99667 12.3223 4.99667 12.2578C4.9936 12.1225 5.07045 11.9965 5.19034 11.935L9.8352 8.44904C10.158 8.19082 10.8035 8.19082 11.1909 8.44904L15.8357 11.935C15.9648 12.0641 16.0294 12.1932 16.0294 12.2578C16.0325 12.393 15.9556 12.5191 15.8357 12.5805L11.1909 16.0634C10.8035 16.3216 10.1611 16.3216 9.8352 16.0634Z" fill="#95C840"/>
<path d="M9.8352 27.2929L5.19034 23.8069C5.06123 23.6778 4.99667 23.5487 4.99667 23.4841C4.9936 23.3489 5.07045 23.2229 5.19034 23.1614L9.8352 19.6754C10.158 19.4172 10.8035 19.4172 11.1909 19.6754L15.8357 23.1614C15.9648 23.2905 16.0294 23.4196 16.0294 23.4841C16.0325 23.6194 15.9556 23.7454 15.8357 23.8069L11.1909 27.2929C10.8035 27.6156 10.158 27.6156 9.8352 27.2929Z" fill="#59C9E6"/>
<path d="M17.3235 10.5148L12.6756 7.0288C12.5465 6.89969 12.4819 6.77058 12.4819 6.64147C12.4788 6.50621 12.5557 6.38018 12.6756 6.3187L17.3235 2.83582C17.7108 2.5776 18.2918 2.5776 18.6791 2.83582L23.324 6.3187C23.4531 6.44781 23.5177 6.57692 23.5177 6.64147C23.5177 6.77058 23.4531 6.89969 23.324 7.0288L18.6791 10.5148C18.2918 10.773 17.7108 10.773 17.3235 10.5148Z" fill="#EBE719"/>
<path d="M17.3235 21.7412L12.6756 18.2583C12.5465 18.1292 12.4819 18.0001 12.4819 17.9355C12.4788 17.8003 12.5557 17.6742 12.6756 17.6128L17.3235 14.1299C17.7108 13.8717 18.2918 13.8717 18.6792 14.1299L23.324 17.6158C23.4531 17.7449 23.5177 17.8741 23.5177 17.9386C23.5208 18.0739 23.4439 18.1999 23.324 18.2614L18.6792 21.7412C18.2918 21.9994 17.7108 21.9994 17.3235 21.7412Z" fill="#50C0AF"/>
<path d="M17.3235 33.1642L12.6756 29.6814C12.5465 29.5522 12.4819 29.4231 12.4819 29.294C12.4788 29.1588 12.5557 29.0327 12.6756 28.9713L17.3235 25.4853C17.7108 25.2271 18.2918 25.2271 18.6791 25.4853L23.324 28.9713C23.4531 29.1004 23.5177 29.2295 23.5177 29.294C23.5177 29.4231 23.4531 29.5522 23.324 29.6814L18.6791 33.1642C18.2918 33.4225 17.7108 33.4225 17.3235 33.1642Z" fill="#0377BB"/>
<path d="M24.8089 16.0634L20.1609 12.5805C20.0318 12.4514 19.9673 12.3223 19.9673 12.2578C19.9642 12.1225 20.041 11.9965 20.1609 11.935L24.8058 8.44904C25.1286 8.19082 25.7741 8.19082 26.1614 8.44904L30.8063 11.935C30.9354 12.0641 31 12.1932 31 12.2578C31.003 12.393 30.9262 12.5191 30.8063 12.5805L26.1645 16.0634C25.8417 16.3216 25.1962 16.3216 24.8089 16.0634Z" fill="#78BC43"/>
<path d="M24.8089 27.2929L20.1609 23.8069C20.0318 23.6778 19.9673 23.5487 19.9673 23.4841C19.9642 23.3489 20.041 23.2229 20.1609 23.1614L24.8058 19.6754C25.1286 19.4172 25.7741 19.4172 26.1614 19.6754L30.8063 23.1614C30.9354 23.2905 31 23.4196 31 23.4841C31.003 23.6194 30.9262 23.7454 30.8063 23.8069L26.1645 27.2929C25.8417 27.6156 25.1962 27.6156 24.8089 27.2929Z" fill="#109FDA"/>
</svg>
