<svg width="50" height="50" viewBox="0 0 50 50" fill="none" xmlns="http://www.w3.org/2000/svg">
<path fill-rule="evenodd" clip-rule="evenodd" d="M25 44.5682C35.8072 44.5682 44.5682 35.8072 44.5682 25C44.5682 14.1928 35.8072 5.43182 25 5.43182C14.1928 5.43182 5.43182 14.1928 5.43182 25C5.43182 35.8072 14.1928 44.5682 25 44.5682ZM25 46C36.598 46 46 36.598 46 25C46 13.402 36.598 4 25 4C13.402 4 4 13.402 4 25C4 36.598 13.402 46 25 46Z" fill="#101820"/>
<path d="M20.3089 15.3536L17.2924 18.3072C17.114 18.4819 16.8247 18.4819 16.6463 18.3072L13.6299 15.3536C13.4514 15.1789 13.4514 14.8957 13.6299 14.721L16.6463 11.7674C16.8247 11.5927 17.114 11.5927 17.2924 11.7674L20.3089 14.721C20.4873 14.8957 20.4873 15.1789 20.3089 15.3536Z" fill="#00BD4D"/>
<path d="M31.3322 18.9314C29.0911 18.9314 27.2289 19.8814 26.0568 21.4417V12.935C26.0568 12.688 25.8522 12.4877 25.5998 12.4877H21.6592C21.4069 12.4877 21.2023 12.688 21.2023 12.935V35.6669C21.2023 35.914 21.4068 36.1143 21.6592 36.1143H25.5998C25.8522 36.1143 26.0568 35.914 26.0568 35.6669V33.9918C27.2289 35.5521 29.0911 36.4545 31.3668 36.4545C36.1598 36.4545 39.422 32.6691 39.422 27.7168C39.422 22.7644 36.1599 18.9314 31.3322 18.9314ZM30.3668 31.9906C27.8842 31.9906 26.0568 30.0232 26.0568 27.7167C26.0568 25.4103 27.8842 23.4765 30.3668 23.4765C32.8151 23.4765 34.608 25.4103 34.608 27.7167C34.608 30.0232 32.8151 31.9906 30.3668 31.9906Z" fill="#101820"/>
<path d="M16.9885 35.9844H13.0478C12.7955 35.9844 12.5909 35.7841 12.5909 35.537V23.5548C12.5909 23.3141 12.69 23.0834 12.8659 22.9151L16.669 19.2741C16.9583 18.9971 17.4454 19.1978 17.4454 19.594V35.537C17.4454 35.7841 17.2408 35.9844 16.9885 35.9844Z" fill="#101820"/>
</svg>
