<svg width="200" height="200" viewBox="0 0 200 200" fill="none" xmlns="http://www.w3.org/2000/svg">
<path d="M100 12.5C51.6692 12.5 12.5 51.6692 12.5 100C12.5 148.331 51.6692 187.5 100 187.5C148.331 187.5 187.5 148.313 187.5 100C187.5 51.6867 148.313 12.5 100 12.5ZM99.965 23.2908C142.392 23.2908 176.779 57.6777 176.779 100.105C176.779 142.533 142.392 176.919 99.965 176.919C57.5375 176.919 23.1507 142.515 23.1507 100.105C23.1507 57.6952 57.5375 23.2908 99.965 23.2908Z" fill="#5514B4"/>
<path d="M56.3789 70.0977V129.675H80.6231C91.6417 129.675 100.103 122.79 100.103 111.894C100.103 102.295 92.6051 98.6162 92.6051 98.6162C92.6051 98.6162 98.3684 94.9375 98.3684 86.7743C98.3684 77.2798 90.8709 70.0977 79.8173 70.0977H56.3789ZM69.7973 81.7293H76.962C82.0596 81.7293 84.2668 84.3394 84.2668 87.5801C84.2668 91.0836 81.7443 93.3084 77.2948 93.3084H69.7973V81.7293ZM69.7973 105.238H76.962C82.0596 105.238 84.2668 107.848 84.2668 111.089C84.2668 114.592 81.7443 116.817 77.2948 116.817H69.7973V105.238Z" fill="#5514B4"/>
<path d="M118.096 129.482V83.761H104.695V69.9922H146.387V83.761H132.408V129.482H118.096Z" fill="#5514B4"/>
</svg>
