<svg width="50" height="50" viewBox="0 0 50 50" fill="none" xmlns="http://www.w3.org/2000/svg">
<path fill-rule="evenodd" clip-rule="evenodd" d="M41.7993 6C41.9103 6 42 6.08876 42 6.19854V9.83578C42 9.94556 41.9103 10.0343 41.7993 10.0343L27.0391 10.0337V39.9653L41.7993 39.9657C41.8918 39.9657 41.9695 40.0273 41.9928 40.1114L42 40.1642V43.8015C42 43.8929 41.9377 43.9698 41.8527 43.9929L41.7993 44H8.2007C8.10822 44 8.0305 43.9384 8.00716 43.8543L8 43.8015V40.1642C8 40.0727 8.0623 39.9958 8.14729 39.9728L8.2007 39.9657L22.9607 39.9653V10.0337L8.2007 10.0343C8.10822 10.0343 8.0305 9.97268 8.00716 9.88861L8 9.83578V6.19854C8 6.08876 8.08972 6 8.2007 6H41.7993ZM18.21 14.5357C18.302 14.5357 18.38 14.5973 18.4035 14.6814L18.4107 14.7342V35.2655C18.4107 35.3566 18.348 35.4338 18.2632 35.4569L18.21 35.4641L8.2007 35.4642C8.10822 35.4642 8.0305 35.4026 8.00716 35.3185L8 35.2657V31.6285C8 31.537 8.0623 31.4601 8.14729 31.437L8.2007 31.4299L14.3323 31.4296V18.5695L8.2007 18.5701C8.10822 18.5701 8.0305 18.5085 8.00716 18.4244L8 18.3716V14.7343C8 14.6429 8.0623 14.566 8.14729 14.5429L8.2007 14.5358L14.5263 14.5358L14.5332 14.5357H18.21ZM35.4668 14.5357L35.4726 14.5358L41.7993 14.5358C41.8918 14.5358 41.9695 14.5974 41.9928 14.6815L42 14.7343V18.3716C42 18.4631 41.9377 18.54 41.8527 18.563L41.7993 18.5701L35.6666 18.5695V31.4296L41.7993 31.4299C41.8918 31.4299 41.9695 31.4916 41.9928 31.5756L42 31.6285V35.2657C42 35.3572 41.9377 35.4341 41.8527 35.4572L41.7993 35.4642L31.7901 35.4641C31.6976 35.4641 31.6199 35.4021 31.5965 35.3182L31.5894 35.2655V14.7342C31.5894 14.6427 31.6517 14.5658 31.7367 14.5427L31.7901 14.5357H35.4668Z" fill="#4BBF79"/>
</svg>
