<svg width="50" height="50" viewBox="0 0 50 50" fill="none" xmlns="http://www.w3.org/2000/svg">
<path d="M27.9541 21.0062L38.2871 21.0432C39.167 21.0469 39.889 21.7159 39.889 22.5274C39.889 22.8492 39.7757 23.1626 39.5656 23.4197L24.3142 42.2003C21.5778 40.3158 19.9629 37.3447 19.9629 34.1952C19.9629 32.0397 20.7189 29.9407 22.1182 28.2143L27.9541 21.0062Z" fill="url(#paint0_linear_9176_13291)"/>
<path d="M21.9655 27.5275L11.6145 27.4669C10.7279 27.4632 10.0005 26.7893 10.0005 25.972C10.0005 25.6479 10.1147 25.3322 10.3263 25.0732L25.5422 6.33337C28.2994 8.23158 29.9266 11.2242 29.9266 14.3965C29.9266 16.5676 29.1648 18.6819 27.7548 20.4209L21.9655 27.5275Z" fill="#2684FF"/>
<defs>
<linearGradient id="paint0_linear_9176_13291" x1="27.5429" y1="22.4128" x2="31.2951" y2="34.7049" gradientUnits="userSpaceOnUse">
<stop stop-color="#0052CC"/>
<stop offset="1" stop-color="#2684FF"/>
</linearGradient>
</defs>
</svg>
