<svg width="50" height="50" viewBox="0 0 50 50" fill="none" xmlns="http://www.w3.org/2000/svg">
<path d="M25 33C32.1797 33 38 27.1797 38 20C38 12.8203 32.1797 7 25 7C17.8203 7 12 12.8203 12 20C12 27.1797 17.8203 33 25 33Z" fill="#FFC708"/>
<path d="M34.7027 21.5466L32.8229 20L34.6984 18.4534L33.6218 17.1503L30.1697 20L33.6261 22.854L34.7027 21.5466ZM33.3655 24.721L28.7085 21.004H22.9408V29.5403H24.6284V22.6916H28.1189L32.3144 26.0412L33.3655 24.721ZM31.225 27.2588L27.6276 24.298L26.2476 24.3066V29.536L27.9352 29.1045V26.7376L29.8236 28.2927L31.225 27.2588ZM21.2916 13.271L19.604 11.8012V28.3483L21.2916 26.8786V13.271ZM17.9805 15.4413L16.2929 16.9922V23.4179L17.9805 24.8577V15.4413ZM22.9408 18.996H28.7085L33.3655 15.279L32.3102 13.9588L28.1189 17.3084H24.6326V10.4597H22.945V18.996H22.9408ZM26.2433 15.9241L27.6233 15.9327L31.2207 12.9719L29.8194 11.938L27.9309 13.4931V11.1262L26.2433 10.6947V15.9241ZM35.9374 20C35.9374 26.0412 31.0413 30.9374 25.0001 30.9374C18.9589 30.9374 14.0627 26.0412 14.0627 20C14.0627 13.9588 18.9589 9.06263 25.0001 9.06263C31.0413 9.06263 35.9374 13.9588 35.9374 20Z" fill="white"/>
<path d="M37.3672 41.6445C37.3672 41.5404 37.3438 41.444 37.2969 41.3555C37.2526 41.2643 37.1602 41.1823 37.0195 41.1094C36.8815 41.0339 36.6732 40.9688 36.3945 40.9141C36.1602 40.8646 35.9479 40.806 35.7578 40.7383C35.5703 40.6706 35.4102 40.5885 35.2773 40.4922C35.1471 40.3958 35.0469 40.2826 34.9766 40.1523C34.9062 40.0221 34.8711 39.8698 34.8711 39.6953C34.8711 39.5286 34.9076 39.3711 34.9805 39.2227C35.056 39.0742 35.1615 38.9427 35.2969 38.8281C35.4349 38.7135 35.6003 38.6237 35.793 38.5586C35.9857 38.4935 36.2005 38.4609 36.4375 38.4609C36.776 38.4609 37.0651 38.5208 37.3047 38.6406C37.5443 38.7604 37.7279 38.9206 37.8555 39.1211C37.9831 39.319 38.0469 39.5391 38.0469 39.7812H37.3242C37.3242 39.6641 37.2891 39.5508 37.2188 39.4414C37.151 39.3294 37.0508 39.237 36.918 39.1641C36.7878 39.0911 36.6276 39.0547 36.4375 39.0547C36.237 39.0547 36.0742 39.0859 35.9492 39.1484C35.8268 39.2083 35.737 39.2852 35.6797 39.3789C35.625 39.4727 35.5977 39.5716 35.5977 39.6758C35.5977 39.7539 35.6107 39.8242 35.6367 39.8867C35.6654 39.9466 35.7148 40.0026 35.7852 40.0547C35.8555 40.1042 35.9544 40.151 36.082 40.1953C36.2096 40.2396 36.3724 40.2839 36.5703 40.3281C36.9167 40.4062 37.2018 40.5 37.4258 40.6094C37.6497 40.7188 37.8164 40.8529 37.9258 41.0117C38.0352 41.1706 38.0898 41.3633 38.0898 41.5898C38.0898 41.7747 38.0508 41.944 37.9727 42.0977C37.8971 42.2513 37.7865 42.3841 37.6406 42.4961C37.4974 42.6055 37.3255 42.6914 37.125 42.7539C36.9271 42.8138 36.7044 42.8438 36.457 42.8438C36.0846 42.8438 35.7695 42.7773 35.5117 42.6445C35.2539 42.5117 35.0586 42.3398 34.9258 42.1289C34.793 41.918 34.7266 41.6953 34.7266 41.4609H35.4531C35.4635 41.6589 35.5208 41.8164 35.625 41.9336C35.7292 42.0482 35.8568 42.1302 36.0078 42.1797C36.1589 42.2266 36.3086 42.25 36.457 42.25C36.6549 42.25 36.8203 42.224 36.9531 42.1719C37.0885 42.1198 37.1914 42.0482 37.2617 41.957C37.332 41.8659 37.3672 41.7617 37.3672 41.6445Z" fill="black"/>
<path d="M34.0586 38.5391V39.0938H31.7734V38.5391H34.0586ZM32.5469 37.5117H33.2695V41.7188C33.2695 41.862 33.2917 41.9701 33.3359 42.043C33.3802 42.1159 33.4375 42.1641 33.5078 42.1875C33.5781 42.2109 33.6536 42.2227 33.7344 42.2227C33.7943 42.2227 33.8568 42.2174 33.9219 42.207C33.9896 42.194 34.0404 42.1836 34.0742 42.1758L34.0781 42.7656C34.0208 42.7839 33.9453 42.8008 33.8516 42.8164C33.7604 42.8346 33.6497 42.8438 33.5195 42.8438C33.3424 42.8438 33.1797 42.8086 33.0312 42.7383C32.8828 42.668 32.7643 42.5508 32.6758 42.3867C32.5898 42.2201 32.5469 41.9961 32.5469 41.7148V37.5117Z" fill="black"/>
<path d="M29.8008 42.8438C29.5065 42.8438 29.2396 42.7943 29 42.6953C28.763 42.5938 28.5586 42.4518 28.3867 42.2695C28.2174 42.0872 28.0872 41.8711 27.9961 41.6211C27.9049 41.3711 27.8594 41.0977 27.8594 40.8008V40.6367C27.8594 40.293 27.9102 39.987 28.0117 39.7188C28.1133 39.4479 28.2513 39.2188 28.4258 39.0312C28.6003 38.8438 28.7982 38.7018 29.0195 38.6055C29.2409 38.5091 29.4701 38.4609 29.707 38.4609C30.0091 38.4609 30.2695 38.513 30.4883 38.6172C30.7096 38.7214 30.8906 38.8672 31.0312 39.0547C31.1719 39.2396 31.276 39.4583 31.3438 39.7109C31.4115 39.9609 31.4453 40.2344 31.4453 40.5312V40.8555H28.2891V40.2656H30.7227V40.2109C30.7122 40.0234 30.6732 39.8411 30.6055 39.6641C30.5404 39.487 30.4362 39.3411 30.293 39.2266C30.1497 39.112 29.9544 39.0547 29.707 39.0547C29.543 39.0547 29.3919 39.0898 29.2539 39.1602C29.1159 39.2279 28.9974 39.3294 28.8984 39.4648C28.7995 39.6003 28.7227 39.7656 28.668 39.9609C28.6133 40.1562 28.5859 40.3815 28.5859 40.6367V40.8008C28.5859 41.0013 28.6133 41.1901 28.668 41.3672C28.7253 41.5417 28.8073 41.6953 28.9141 41.8281C29.0234 41.9609 29.1549 42.0651 29.3086 42.1406C29.4648 42.2161 29.6419 42.2539 29.8398 42.2539C30.0951 42.2539 30.3112 42.2018 30.4883 42.0977C30.6654 41.9935 30.8203 41.8542 30.9531 41.6797L31.3906 42.0273C31.2995 42.1654 31.1836 42.2969 31.043 42.4219C30.9023 42.5469 30.7292 42.6484 30.5234 42.7266C30.3203 42.8047 30.0794 42.8438 29.8008 42.8438Z" fill="black"/>
<path d="M26.1367 39.2031V42.7656H25.4141V38.5391H26.1172L26.1367 39.2031ZM27.457 38.5156L27.4531 39.1875C27.3932 39.1745 27.3359 39.1667 27.2812 39.1641C27.2292 39.1589 27.1693 39.1562 27.1016 39.1562C26.9349 39.1562 26.7878 39.1823 26.6602 39.2344C26.5326 39.2865 26.4245 39.3594 26.3359 39.4531C26.2474 39.5469 26.1771 39.6589 26.125 39.7891C26.0755 39.9167 26.043 40.0573 26.0273 40.2109L25.8242 40.3281C25.8242 40.0729 25.849 39.8333 25.8984 39.6094C25.9505 39.3854 26.0299 39.1875 26.1367 39.0156C26.2435 38.8411 26.3789 38.7057 26.543 38.6094C26.7096 38.5104 26.9076 38.4609 27.1367 38.4609C27.1888 38.4609 27.2487 38.4674 27.3164 38.4805C27.3841 38.4909 27.431 38.5026 27.457 38.5156Z" fill="black"/>
<path d="M22.918 42.25C23.0898 42.25 23.2487 42.2148 23.3945 42.1445C23.5404 42.0742 23.6602 41.9779 23.7539 41.8555C23.8477 41.7305 23.901 41.5885 23.9141 41.4297H24.6016C24.5885 41.6797 24.5039 41.9128 24.3477 42.1289C24.194 42.3424 23.9922 42.5156 23.7422 42.6484C23.4922 42.7786 23.2174 42.8438 22.918 42.8438C22.6003 42.8438 22.3229 42.7878 22.0859 42.6758C21.8516 42.5638 21.6562 42.4102 21.5 42.2148C21.3464 42.0195 21.2305 41.7956 21.1523 41.543C21.0768 41.2878 21.0391 41.0182 21.0391 40.7344V40.5703C21.0391 40.2865 21.0768 40.0182 21.1523 39.7656C21.2305 39.5104 21.3464 39.2852 21.5 39.0898C21.6562 38.8945 21.8516 38.7409 22.0859 38.6289C22.3229 38.5169 22.6003 38.4609 22.918 38.4609C23.2487 38.4609 23.5378 38.5286 23.7852 38.6641C24.0326 38.7969 24.2266 38.9792 24.3672 39.2109C24.5104 39.4401 24.5885 39.7005 24.6016 39.9922H23.9141C23.901 39.8177 23.8516 39.6602 23.7656 39.5195C23.6823 39.3789 23.5677 39.2669 23.4219 39.1836C23.2786 39.0977 23.1107 39.0547 22.918 39.0547C22.6966 39.0547 22.5104 39.099 22.3594 39.1875C22.2109 39.2734 22.0924 39.3906 22.0039 39.5391C21.918 39.6849 21.8555 39.8477 21.8164 40.0273C21.7799 40.2044 21.7617 40.3854 21.7617 40.5703V40.7344C21.7617 40.9193 21.7799 41.1016 21.8164 41.2812C21.8529 41.4609 21.9141 41.6237 22 41.7695C22.0885 41.9154 22.207 42.0326 22.3555 42.1211C22.5065 42.207 22.694 42.25 22.918 42.25Z" fill="black"/>
<path d="M18.7383 42.8438C18.444 42.8438 18.1771 42.7943 17.9375 42.6953C17.7005 42.5938 17.4961 42.4518 17.3242 42.2695C17.1549 42.0872 17.0247 41.8711 16.9336 41.6211C16.8424 41.3711 16.7969 41.0977 16.7969 40.8008V40.6367C16.7969 40.293 16.8477 39.987 16.9492 39.7188C17.0508 39.4479 17.1888 39.2188 17.3633 39.0312C17.5378 38.8438 17.7357 38.7018 17.957 38.6055C18.1784 38.5091 18.4076 38.4609 18.6445 38.4609C18.9466 38.4609 19.207 38.513 19.4258 38.6172C19.6471 38.7214 19.8281 38.8672 19.9688 39.0547C20.1094 39.2396 20.2135 39.4583 20.2812 39.7109C20.349 39.9609 20.3828 40.2344 20.3828 40.5312V40.8555H17.2266V40.2656H19.6602V40.2109C19.6497 40.0234 19.6107 39.8411 19.543 39.6641C19.4779 39.487 19.3737 39.3411 19.2305 39.2266C19.0872 39.112 18.8919 39.0547 18.6445 39.0547C18.4805 39.0547 18.3294 39.0898 18.1914 39.1602C18.0534 39.2279 17.9349 39.3294 17.8359 39.4648C17.737 39.6003 17.6602 39.7656 17.6055 39.9609C17.5508 40.1562 17.5234 40.3815 17.5234 40.6367V40.8008C17.5234 41.0013 17.5508 41.1901 17.6055 41.3672C17.6628 41.5417 17.7448 41.6953 17.8516 41.8281C17.9609 41.9609 18.0924 42.0651 18.2461 42.1406C18.4023 42.2161 18.5794 42.2539 18.7773 42.2539C19.0326 42.2539 19.2487 42.2018 19.4258 42.0977C19.6029 41.9935 19.7578 41.8542 19.8906 41.6797L20.3281 42.0273C20.237 42.1654 20.1211 42.2969 19.9805 42.4219C19.8398 42.5469 19.6667 42.6484 19.4609 42.7266C19.2578 42.8047 19.0169 42.8438 18.7383 42.8438Z" fill="black"/>
<path d="M15.375 41.3281C15.375 41.1953 15.3542 41.0781 15.3125 40.9766C15.2734 40.8724 15.2031 40.7786 15.1016 40.6953C15.0026 40.612 14.8646 40.5326 14.6875 40.457C14.513 40.3815 14.2917 40.3047 14.0234 40.2266C13.7422 40.1432 13.4883 40.0508 13.2617 39.9492C13.0352 39.8451 12.8411 39.7266 12.6797 39.5938C12.5182 39.4609 12.3945 39.3086 12.3086 39.1367C12.2227 38.9648 12.1797 38.7682 12.1797 38.5469C12.1797 38.3255 12.2253 38.1211 12.3164 37.9336C12.4076 37.7461 12.5378 37.5833 12.707 37.4453C12.8789 37.3047 13.0833 37.1953 13.3203 37.1172C13.5573 37.0391 13.8216 37 14.1133 37C14.5404 37 14.9023 37.082 15.1992 37.2461C15.4987 37.4076 15.7266 37.6198 15.8828 37.8828C16.0391 38.1432 16.1172 38.4219 16.1172 38.7188H15.3672C15.3672 38.5052 15.3216 38.3164 15.2305 38.1523C15.1393 37.9857 15.0013 37.8555 14.8164 37.7617C14.6315 37.6654 14.3971 37.6172 14.1133 37.6172C13.8451 37.6172 13.6237 37.6576 13.4492 37.7383C13.2747 37.819 13.1445 37.9284 13.0586 38.0664C12.9753 38.2044 12.9336 38.362 12.9336 38.5391C12.9336 38.6589 12.9583 38.7682 13.0078 38.8672C13.0599 38.9635 13.1393 39.0534 13.2461 39.1367C13.3555 39.2201 13.4935 39.2969 13.6602 39.3672C13.8294 39.4375 14.0312 39.5052 14.2656 39.5703C14.5885 39.6615 14.8672 39.763 15.1016 39.875C15.3359 39.987 15.5286 40.1133 15.6797 40.2539C15.8333 40.3919 15.9466 40.5495 16.0195 40.7266C16.0951 40.901 16.1328 41.099 16.1328 41.3203C16.1328 41.5521 16.0859 41.7617 15.9922 41.9492C15.8984 42.1367 15.7643 42.2969 15.5898 42.4297C15.4154 42.5625 15.2057 42.6654 14.9609 42.7383C14.7188 42.8086 14.4479 42.8438 14.1484 42.8438C13.8854 42.8438 13.6263 42.8073 13.3711 42.7344C13.1185 42.6615 12.888 42.5521 12.6797 42.4062C12.474 42.2604 12.3086 42.0807 12.1836 41.8672C12.0612 41.651 12 41.401 12 41.1172H12.75C12.75 41.3125 12.7878 41.4805 12.8633 41.6211C12.9388 41.7591 13.0417 41.8737 13.1719 41.9648C13.3047 42.056 13.4544 42.1237 13.6211 42.168C13.7904 42.2096 13.9661 42.2305 14.1484 42.2305C14.4115 42.2305 14.6341 42.194 14.8164 42.1211C14.9987 42.0482 15.1367 41.944 15.2305 41.8086C15.3268 41.6732 15.375 41.513 15.375 41.3281Z" fill="black"/>
</svg>
