<svg width="50" height="50" viewBox="0 0 50 50" fill="none" xmlns="http://www.w3.org/2000/svg">
<path d="M25 33C32.1797 33 38 27.1797 38 20C38 12.8203 32.1797 7 25 7C17.8203 7 12 12.8203 12 20C12 27.1797 17.8203 33 25 33Z" fill="#FFC708"/>
<path d="M34.7027 21.5466L32.8229 20L34.6984 18.4534L33.6218 17.1503L30.1697 20L33.6261 22.854L34.7027 21.5466ZM33.3655 24.721L28.7085 21.004H22.9408V29.5403H24.6284V22.6916H28.1189L32.3144 26.0412L33.3655 24.721ZM31.225 27.2588L27.6276 24.298L26.2476 24.3066V29.536L27.9352 29.1045V26.7376L29.8236 28.2927L31.225 27.2588ZM21.2916 13.271L19.604 11.8012V28.3483L21.2916 26.8786V13.271ZM17.9805 15.4413L16.2929 16.9922V23.4179L17.9805 24.8577V15.4413ZM22.9408 18.996H28.7085L33.3655 15.279L32.3102 13.9588L28.1189 17.3084H24.6326V10.4597H22.945V18.996H22.9408ZM26.2433 15.9241L27.6233 15.9327L31.2207 12.9719L29.8194 11.938L27.9309 13.4931V11.1262L26.2433 10.6947V15.9241ZM35.9374 20C35.9374 26.0412 31.0413 30.9374 25.0001 30.9374C18.9589 30.9374 14.0627 26.0412 14.0627 20C14.0627 13.9588 18.9589 9.06263 25.0001 9.06263C31.0413 9.06263 35.9374 13.9588 35.9374 20Z" fill="white"/>
<path d="M21.293 36.8906V37.6621H17.7676V39.9473H20.8438V40.7139H17.7676V43.2334H21.3418V44H16.8252V36.8906H21.293Z" fill="black"/>
<path fill-rule="evenodd" clip-rule="evenodd" d="M25.1309 36.8906C26.7382 36.8906 27.626 37.7926 27.626 39.0586C27.626 40.4243 26.7457 41.2119 25.1309 41.2119H23.4512V44H22.5088V36.8906H25.1309ZM23.4512 40.4453H25.1309C26.2367 40.4453 26.6836 39.8658 26.6836 39.0684C26.6836 38.3374 26.232 37.6621 25.1309 37.6621H23.4512V40.4453Z" fill="black"/>
<path d="M31.1709 42.751L33.207 36.8906H34.2275L31.5957 44H30.7607L28.1338 36.8906H29.1543L31.1709 42.751Z" fill="black"/>
</svg>
