<svg width="50" height="50" viewBox="0 0 50 50" fill="none" xmlns="http://www.w3.org/2000/svg">
<path d="M24.9994 34C17.3155 34 11 27.7079 11 19.9476C11 12.2921 17.3155 6 24.9994 6C32.7885 6 38.9987 12.2921 38.9987 19.9476C39.104 27.7079 32.7885 34 24.9994 34ZM33.1042 12.8165C31.2096 10.7191 28.6834 9.46067 25.8414 9.35581C22.9994 9.14607 20.368 10.0899 18.2628 11.9775C16.3682 13.6554 15.2103 15.8577 14.8946 18.2697L12.9999 18.1648L15.7366 22.9888L19.2101 18.3745L17.105 18.2697C17.3155 16.4869 18.2628 14.809 19.6312 13.5506C21.3153 12.0824 23.4205 11.3483 25.7362 11.4532C27.9466 11.5581 30.0517 12.6067 31.5254 14.2846C32.999 15.9625 33.7358 18.0599 33.6305 20.367C33.5253 22.5693 32.4727 24.6667 30.7886 26.1348L32.2622 27.7079C34.3673 25.8202 35.6304 23.3034 35.7357 20.4719C35.9462 17.6404 34.9989 14.9139 33.1042 12.8165Z" fill="#F16823"/>
<path d="M44.5508 43.3777L46 44.5286L45.4908 45L44.0651 43.8648L44.5508 43.3777ZM45.9804 40.9933V41.3547C45.9804 41.7841 45.9269 42.1691 45.8198 42.5095C45.7128 42.85 45.5587 43.1394 45.3576 43.3777C45.1566 43.616 44.915 43.798 44.633 43.9237C44.3536 44.0494 44.0403 44.1122 43.693 44.1122C43.3562 44.1122 43.0467 44.0494 42.7647 43.9237C42.4853 43.798 42.2425 43.616 42.0362 43.3777C41.8325 43.1394 41.6745 42.85 41.5623 42.5095C41.45 42.1691 41.3938 41.7841 41.3938 41.3547V40.9933C41.3938 40.5638 41.4487 40.1801 41.5583 39.8423C41.6706 39.5019 41.8286 39.2125 42.0323 38.9742C42.2359 38.7333 42.4775 38.5499 42.7569 38.4242C43.0389 38.2985 43.3483 38.2357 43.6852 38.2357C44.0325 38.2357 44.3471 38.2985 44.6291 38.4242C44.9111 38.5499 45.1527 38.7333 45.3537 38.9742C45.5548 39.2125 45.7089 39.5019 45.8159 39.8423C45.9256 40.1801 45.9804 40.5638 45.9804 40.9933ZM45.2323 41.3547V40.9854C45.2323 40.645 45.1971 40.3438 45.1266 40.0819C45.0587 39.8201 44.9581 39.6001 44.825 39.422C44.6918 39.2439 44.5299 39.1091 44.3393 39.0174C44.1487 38.9257 43.9306 38.8799 43.6852 38.8799C43.4528 38.8799 43.2413 38.9257 43.0506 39.0174C42.8626 39.1091 42.7007 39.2439 42.565 39.422C42.4292 39.6001 42.3247 39.8201 42.2516 40.0819C42.1785 40.3438 42.1419 40.645 42.1419 40.9854V41.3547C42.1419 41.6977 42.1785 42.0015 42.2516 42.266C42.3247 42.5279 42.4292 42.7492 42.565 42.9299C42.7033 43.1079 42.8679 43.2428 43.0585 43.3345C43.2491 43.4261 43.4606 43.4719 43.693 43.4719C43.9385 43.4719 44.1565 43.4261 44.3471 43.3345C44.5377 43.2428 44.6983 43.1079 44.8289 42.9299C44.962 42.7492 45.0626 42.5279 45.1305 42.266C45.1984 42.0015 45.2323 41.6977 45.2323 41.3547Z" fill="black"/>
<path d="M40.2501 38.3143V44.0337H39.4942V38.3143H40.2501Z" fill="black"/>
<path d="M37.4731 43.2088V38H38.2016V44.0337H37.5358L37.4731 43.2088ZM34.6217 41.9557V41.8732C34.6217 41.5484 34.6608 41.2538 34.7392 40.9893C34.8201 40.7222 34.9337 40.4931 35.0799 40.3019C35.2288 40.1107 35.405 39.9641 35.6087 39.862C35.815 39.7572 36.0448 39.7048 36.2981 39.7048C36.5644 39.7048 36.7968 39.752 36.9952 39.8462C37.1963 39.9379 37.366 40.0728 37.5044 40.2508C37.6454 40.4263 37.7564 40.6384 37.8374 40.8872C37.9183 41.136 37.9744 41.4175 38.0058 41.7318V42.0932C37.9771 42.4048 37.9209 42.685 37.8374 42.9338C37.7564 43.1826 37.6454 43.3947 37.5044 43.5701C37.366 43.7456 37.1963 43.8805 36.9952 43.9747C36.7942 44.0664 36.5592 44.1122 36.2902 44.1122C36.0422 44.1122 35.815 44.0585 35.6087 43.9512C35.405 43.8438 35.2288 43.6932 35.0799 43.4994C34.9337 43.3056 34.8201 43.0778 34.7392 42.8159C34.6608 42.5514 34.6217 42.2647 34.6217 41.9557ZM35.3502 41.8732V41.9557C35.3502 42.1678 35.3711 42.3668 35.4129 42.5527C35.4572 42.7387 35.5251 42.9024 35.6165 43.0438C35.7079 43.1852 35.8241 43.2965 35.9651 43.3777C36.1061 43.4562 36.2746 43.4955 36.4704 43.4955C36.7106 43.4955 36.9078 43.4444 37.0618 43.3423C37.2185 43.2402 37.3438 43.1053 37.4378 42.9377C37.5318 42.7701 37.605 42.5881 37.6572 42.3917V41.445C37.6259 41.301 37.5802 41.1622 37.5201 41.0286C37.4627 40.8924 37.3869 40.772 37.2929 40.6672C37.2015 40.5599 37.0879 40.4747 36.9522 40.4119C36.819 40.349 36.661 40.3176 36.4782 40.3176C36.2798 40.3176 36.1087 40.3595 35.9651 40.4433C35.8241 40.5245 35.7079 40.6371 35.6165 40.7811C35.5251 40.9226 35.4572 41.0875 35.4129 41.2761C35.3711 41.462 35.3502 41.6611 35.3502 41.8732Z" fill="black"/>
<path d="M32.8865 40.4512V44.0337H32.1619V39.7834H32.8669L32.8865 40.4512ZM34.2104 39.7598L34.2065 40.4355C34.1464 40.4224 34.089 40.4145 34.0341 40.4119C33.9819 40.4067 33.9219 40.404 33.854 40.404C33.6868 40.404 33.5393 40.4302 33.4114 40.4826C33.2834 40.535 33.175 40.6083 33.0863 40.7026C32.9975 40.7969 32.927 40.9095 32.8748 41.0404C32.8251 41.1687 32.7925 41.3101 32.7768 41.4646L32.5732 41.5825C32.5732 41.3259 32.598 41.0849 32.6476 40.8597C32.6998 40.6345 32.7794 40.4355 32.8865 40.2626C32.9936 40.0872 33.1293 39.951 33.2939 39.8541C33.461 39.7546 33.6594 39.7048 33.8892 39.7048C33.9414 39.7048 34.0015 39.7114 34.0694 39.7245C34.1373 39.7349 34.1843 39.7467 34.2104 39.7598Z" fill="black"/>
<path d="M27.3951 41.9557V41.8653C27.3951 41.5589 27.4395 41.2748 27.5283 41.0129C27.6171 40.7484 27.745 40.5193 27.9122 40.3255C28.0793 40.1291 28.2816 39.9772 28.5193 39.8698C28.7569 39.7598 29.0232 39.7048 29.3183 39.7048C29.616 39.7048 29.8836 39.7598 30.1212 39.8698C30.3615 39.9772 30.5651 40.1291 30.7323 40.3255C30.902 40.5193 31.0312 40.7484 31.12 41.0129C31.2088 41.2748 31.2532 41.5589 31.2532 41.8653V41.9557C31.2532 42.2621 31.2088 42.5462 31.12 42.8081C31.0312 43.07 30.902 43.2991 30.7323 43.4955C30.5651 43.6893 30.3628 43.8412 30.1252 43.9512C29.8901 44.0585 29.6238 44.1122 29.3261 44.1122C29.0284 44.1122 28.7608 44.0585 28.5232 43.9512C28.2856 43.8412 28.0819 43.6893 27.9122 43.4955C27.745 43.2991 27.6171 43.07 27.5283 42.8081C27.4395 42.5462 27.3951 42.2621 27.3951 41.9557ZM28.1197 41.8653V41.9557C28.1197 42.1678 28.1445 42.3681 28.1942 42.5567C28.2438 42.7426 28.3182 42.9076 28.4174 43.0516C28.5193 43.1957 28.6459 43.3096 28.7974 43.3934C28.9488 43.4746 29.1251 43.5152 29.3261 43.5152C29.5246 43.5152 29.6982 43.4746 29.8471 43.3934C29.9985 43.3096 30.1238 43.1957 30.2231 43.0516C30.3223 42.9076 30.3967 42.7426 30.4463 42.5567C30.4986 42.3681 30.5247 42.1678 30.5247 41.9557V41.8653C30.5247 41.6558 30.4986 41.4581 30.4463 41.2722C30.3967 41.0836 30.321 40.9173 30.2192 40.7733C30.1199 40.6266 29.9946 40.5114 29.8431 40.4276C29.6943 40.3438 29.5194 40.3019 29.3183 40.3019C29.1198 40.3019 28.9449 40.3438 28.7934 40.4276C28.6446 40.5114 28.5193 40.6266 28.4174 40.7733C28.3182 40.9173 28.2438 41.0836 28.1942 41.2722C28.1445 41.4581 28.1197 41.6558 28.1197 41.8653Z" fill="black"/>
<path d="M22.6284 43.2795L23.7172 39.7834H24.1951L24.1011 40.4787L22.9926 44.0337H22.5265L22.6284 43.2795ZM21.8959 39.7834L22.8242 43.3187L22.8908 44.0337H22.4012L21.1713 39.7834H21.8959ZM25.237 43.2912L26.1222 39.7834H26.8429L25.613 44.0337H25.1273L25.237 43.2912ZM24.3008 39.7834L25.3662 43.2205L25.4876 44.0337H25.0255L23.8857 40.4708L23.7917 39.7834H24.3008Z" fill="black"/>
<path d="M19.8788 42.9063C19.8788 42.8015 19.8553 42.7046 19.8083 42.6156C19.7639 42.5239 19.6712 42.4415 19.5302 42.3681C19.3918 42.2922 19.1829 42.2267 18.9035 42.1717C18.6685 42.122 18.4557 42.063 18.265 41.9949C18.077 41.9269 17.9164 41.8444 17.7833 41.7475C17.6527 41.6506 17.5522 41.5367 17.4817 41.4057C17.4112 41.2748 17.3759 41.1216 17.3759 40.9461C17.3759 40.7785 17.4125 40.6201 17.4856 40.4708C17.5613 40.3215 17.6671 40.1893 17.8029 40.0741C17.9412 39.9588 18.1071 39.8685 18.3003 39.803C18.4935 39.7376 18.7089 39.7048 18.9466 39.7048C19.286 39.7048 19.5759 39.7651 19.8161 39.8855C20.0563 40.006 20.2404 40.167 20.3684 40.3687C20.4963 40.5677 20.5603 40.789 20.5603 41.0325H19.8357C19.8357 40.9147 19.8004 40.8008 19.7299 40.6908C19.662 40.5782 19.5615 40.4852 19.4283 40.4119C19.2978 40.3386 19.1372 40.3019 18.9466 40.3019C18.7455 40.3019 18.5823 40.3333 18.457 40.3962C18.3342 40.4564 18.2441 40.5337 18.1867 40.6279C18.1319 40.7222 18.1044 40.8217 18.1044 40.9265C18.1044 41.0051 18.1175 41.0758 18.1436 41.1386C18.1723 41.1988 18.222 41.2551 18.2925 41.3075C18.363 41.3573 18.4622 41.4044 18.5901 41.4489C18.7181 41.4935 18.8813 41.538 19.0797 41.5825C19.427 41.6611 19.713 41.7553 19.9375 41.8653C20.1621 41.9753 20.3292 42.1102 20.4389 42.2699C20.5485 42.4297 20.6034 42.6235 20.6034 42.8513C20.6034 43.0372 20.5642 43.2074 20.4859 43.362C20.4101 43.5165 20.2992 43.65 20.1529 43.7626C20.0093 43.8726 19.837 43.959 19.6359 44.0219C19.4375 44.0821 19.2142 44.1122 18.9661 44.1122C18.5927 44.1122 18.2768 44.0455 18.0183 43.9119C17.7598 43.7783 17.5639 43.6055 17.4308 43.3934C17.2976 43.1813 17.231 42.9574 17.231 42.7217H17.9595C17.97 42.9207 18.0274 43.0791 18.1319 43.197C18.2363 43.3122 18.3643 43.3947 18.5157 43.4444C18.6672 43.4916 18.8173 43.5152 18.9661 43.5152C19.1646 43.5152 19.3304 43.489 19.4636 43.4366C19.5994 43.3842 19.7025 43.3122 19.773 43.2205C19.8435 43.1289 19.8788 43.0241 19.8788 42.9063Z" fill="black"/>
<path d="M15.7348 42.9063C15.7348 42.8015 15.7113 42.7046 15.6643 42.6156C15.6199 42.5239 15.5272 42.4415 15.3862 42.3681C15.2478 42.2922 15.0389 42.2267 14.7595 42.1717C14.5245 42.122 14.3117 42.063 14.121 41.9949C13.933 41.9269 13.7725 41.8444 13.6393 41.7475C13.5087 41.6506 13.4082 41.5367 13.3377 41.4057C13.2672 41.2748 13.2319 41.1216 13.2319 40.9461C13.2319 40.7785 13.2685 40.6201 13.3416 40.4708C13.4173 40.3215 13.5231 40.1893 13.6589 40.0741C13.7973 39.9588 13.9631 39.8685 14.1563 39.803C14.3495 39.7376 14.565 39.7048 14.8026 39.7048C15.142 39.7048 15.4319 39.7651 15.6721 39.8855C15.9123 40.006 16.0964 40.167 16.2244 40.3687C16.3523 40.5677 16.4163 40.789 16.4163 41.0325H15.6917C15.6917 40.9147 15.6564 40.8008 15.5859 40.6908C15.518 40.5782 15.4175 40.4852 15.2843 40.4119C15.1538 40.3386 14.9932 40.3019 14.8026 40.3019C14.6015 40.3019 14.4383 40.3333 14.313 40.3962C14.1902 40.4564 14.1002 40.5337 14.0427 40.6279C13.9879 40.7222 13.9605 40.8217 13.9605 40.9265C13.9605 41.0051 13.9735 41.0758 13.9996 41.1386C14.0284 41.1988 14.078 41.2551 14.1485 41.3075C14.219 41.3573 14.3182 41.4044 14.4461 41.4489C14.5741 41.4935 14.7373 41.538 14.9357 41.5825C15.283 41.6611 15.569 41.7553 15.7935 41.8653C16.0181 41.9753 16.1852 42.1102 16.2949 42.2699C16.4046 42.4297 16.4594 42.6235 16.4594 42.8513C16.4594 43.0372 16.4202 43.2074 16.3419 43.362C16.2662 43.5165 16.1552 43.65 16.009 43.7626C15.8653 43.8726 15.693 43.959 15.4919 44.0219C15.2935 44.0821 15.0702 44.1122 14.8222 44.1122C14.4488 44.1122 14.1328 44.0455 13.8743 43.9119C13.6158 43.7783 13.4199 43.6055 13.2868 43.3934C13.1536 43.1813 13.087 42.9574 13.087 42.7217H13.8155C13.826 42.9207 13.8834 43.0791 13.9879 43.197C14.0923 43.3122 14.2203 43.3947 14.3717 43.4444C14.5232 43.4916 14.6733 43.5152 14.8222 43.5152C15.0206 43.5152 15.1864 43.489 15.3196 43.4366C15.4554 43.3842 15.5585 43.3122 15.629 43.2205C15.6995 43.1289 15.7348 43.0241 15.7348 42.9063Z" fill="black"/>
<path d="M11.4028 43.307V41.119C11.4028 40.9514 11.3688 40.806 11.3009 40.6829C11.2357 40.5572 11.1364 40.4603 11.0033 40.3923C10.8701 40.3242 10.7056 40.2901 10.5097 40.2901C10.327 40.2901 10.1664 40.3215 10.028 40.3844C9.89219 40.4473 9.78513 40.5297 9.7068 40.6319C9.63107 40.734 9.59321 40.844 9.59321 40.9618H8.8686C8.8686 40.81 8.90777 40.6594 8.9861 40.5101C9.06444 40.3608 9.17672 40.226 9.32295 40.1055C9.47179 39.9824 9.64935 39.8855 9.85564 39.8148C10.0645 39.7415 10.2969 39.7048 10.5528 39.7048C10.861 39.7048 11.1325 39.7572 11.3675 39.862C11.6051 39.9667 11.7905 40.1251 11.9237 40.3373C12.0595 40.5468 12.1274 40.81 12.1274 41.1268V43.1066C12.1274 43.248 12.1391 43.3986 12.1626 43.5584C12.1888 43.7181 12.2266 43.8556 12.2762 43.9708V44.0337H11.5203C11.4837 43.9499 11.455 43.8386 11.4341 43.6998C11.4132 43.5584 11.4028 43.4274 11.4028 43.307ZM11.5281 41.4568L11.536 41.9675H10.8035C10.5972 41.9675 10.4131 41.9845 10.2512 42.0185C10.0893 42.0499 9.95356 42.0984 9.84389 42.1639C9.73422 42.2293 9.65066 42.3118 9.59321 42.4113C9.53576 42.5082 9.50704 42.6221 9.50704 42.7531C9.50704 42.8866 9.53707 43.0084 9.59713 43.1184C9.65719 43.2284 9.74727 43.3161 9.86739 43.3816C9.99011 43.4444 10.1403 43.4759 10.3178 43.4759C10.5398 43.4759 10.7356 43.4287 10.9053 43.3345C11.0751 43.2402 11.2095 43.125 11.3088 42.9888C11.4106 42.8526 11.4654 42.7204 11.4733 42.592L11.7827 42.9416C11.7644 43.0516 11.7148 43.1734 11.6339 43.307C11.5529 43.4405 11.4446 43.5688 11.3088 43.6919C11.1756 43.8124 11.0163 43.9132 10.8309 43.9944C10.6481 44.073 10.4419 44.1122 10.2121 44.1122C9.92483 44.1122 9.67285 44.0559 9.45612 43.9433C9.242 43.8307 9.07489 43.6801 8.95477 43.4916C8.83727 43.3004 8.77851 43.087 8.77851 42.8513C8.77851 42.6235 8.8229 42.4231 8.91169 42.2503C9.00047 42.0748 9.12842 41.9295 9.29553 41.8143C9.46265 41.6964 9.66371 41.6074 9.89872 41.5471C10.1337 41.4869 10.3962 41.4568 10.686 41.4568H11.5281Z" fill="black"/>
<path d="M6.10333 41.7907H4.57969V41.174H6.10333C6.3984 41.174 6.63732 41.1268 6.82011 41.0325C7.00289 40.9383 7.13606 40.8073 7.21962 40.6397C7.30579 40.4721 7.34888 40.281 7.34888 40.0662C7.34888 39.8698 7.30579 39.6852 7.21962 39.5123C7.13606 39.3395 7.00289 39.2007 6.82011 39.096C6.63732 38.9886 6.3984 38.9349 6.10333 38.9349H4.75595V44.0337H4V38.3143H6.10333C6.53418 38.3143 6.89844 38.3889 7.19612 38.5382C7.4938 38.6874 7.71967 38.8943 7.87373 39.1588C8.02779 39.4207 8.10482 39.7205 8.10482 40.0584C8.10482 40.425 8.02779 40.7379 7.87373 40.9972C7.71967 41.2565 7.4938 41.4542 7.19612 41.5903C6.89844 41.7239 6.53418 41.7907 6.10333 41.7907Z" fill="black"/>
</svg>
