<svg width="50" height="50" viewBox="0 0 50 50" fill="none" xmlns="http://www.w3.org/2000/svg">
<path d="M30.7339 27.3184C31.9296 27.3184 33.1252 27.3456 34.3251 27.3184C35.0792 27.2953 35.8608 27.1591 36.0932 26.2975C36.353 25.3354 35.62 24.8973 34.9081 24.5766C33.0238 23.7256 31.0825 22.994 29.2214 22.0969C26.9907 21.0257 26.0422 19.3719 26.2641 17.2757C26.5302 14.8526 28.142 13.3119 30.8881 13.1568C33.3787 13.0143 35.884 13.0792 38.3725 13.1317C39.6589 13.1589 39.4688 13.9701 39.4583 15.473C39.4583 16.3283 39.3231 16.5211 38.288 16.5442C36.2157 16.5756 34.1392 16.5295 32.0648 16.5442C31.7171 16.5393 31.3698 16.5674 31.0276 16.628C30.8074 16.6692 30.6045 16.7739 30.444 16.929C30.2836 17.0841 30.1728 17.2827 30.1256 17.5C30.1181 17.697 30.1548 17.8932 30.233 18.0744C30.3112 18.2557 30.4289 18.4174 30.5776 18.5481C31.2114 18.9673 31.938 19.2587 32.6372 19.5773C34.2934 20.3361 35.9939 21.009 37.6014 21.8537C38.9639 22.5685 39.866 23.7109 39.98 25.3207C40.1913 28.3287 38.7295 30.2676 35.47 30.6408C32.6224 30.9678 29.72 30.863 26.8407 30.8986C26.6295 30.8986 26.1838 30.8986 26.207 30.2928C26.207 30.2404 26.1965 30.1586 26.207 30.0832C26.2662 26.7126 25.7169 27.4211 28.8412 27.3393C29.4749 27.3247 30.1087 27.3393 30.7424 27.3393L30.7339 27.3184Z" fill="#FF8300"/>
<path d="M23.8322 27.0668V30.9866C21.0184 30.8797 18.2469 31.2927 15.5346 30.4877C12.199 29.4942 10.1584 26.9243 10.0761 23.1512C9.95142 17.391 10.0253 11.6224 10 5.86222C10 5.28997 10.1943 5.01328 10.7858 5.0552C10.821 5.0573 10.8563 5.0573 10.8914 5.0552C14.1847 4.8896 14.1847 4.8896 14.1847 8.16798C14.1847 12.7502 14.1847 17.3323 14.1847 21.9145C14.1743 22.4 14.2011 22.8856 14.265 23.3671C14.6473 25.7295 16.0563 26.9851 18.4898 27.0585C20.241 27.1046 21.9943 27.0668 23.8322 27.0668Z" fill="#515253"/>
<path d="M16.9922 41.5167H18.0251C17.9713 41.9897 17.8296 42.413 17.6001 42.7866C17.3706 43.1602 17.046 43.4567 16.6264 43.6761C16.2068 43.892 15.6832 44 15.0556 44C14.5965 44 14.1787 43.9177 13.8022 43.7532C13.4292 43.5887 13.1082 43.3556 12.8392 43.054C12.5702 42.7489 12.3622 42.3839 12.2152 41.9589C12.0717 41.5304 12 41.054 12 40.5296V39.7841C12 39.2596 12.0717 38.7849 12.2152 38.3599C12.3622 37.9314 12.572 37.5647 12.8446 37.2596C13.1207 36.9546 13.4525 36.7198 13.8398 36.5553C14.2271 36.3907 14.6629 36.3085 15.147 36.3085C15.7388 36.3085 16.2391 36.4147 16.6479 36.6272C17.0568 36.8398 17.3742 37.1345 17.6001 37.5116C17.8296 37.8852 17.9713 38.3188 18.0251 38.8123H16.9922C16.942 38.4627 16.8488 38.1628 16.7125 37.9126C16.5762 37.659 16.3825 37.4636 16.1315 37.3265C15.8805 37.1894 15.5523 37.1208 15.147 37.1208C14.7992 37.1208 14.4925 37.1842 14.2271 37.3111C13.9653 37.4379 13.7448 37.6178 13.5655 37.8509C13.3897 38.084 13.257 38.3633 13.1674 38.6889C13.0777 39.0146 13.0329 39.3762 13.0329 39.7738V40.5296C13.0329 40.8963 13.0723 41.2408 13.1512 41.563C13.2337 41.8852 13.3574 42.168 13.5224 42.4113C13.6874 42.6547 13.8972 42.8466 14.1518 42.9871C14.4065 43.1243 14.7077 43.1928 15.0556 43.1928C15.4967 43.1928 15.8482 43.126 16.11 42.9923C16.3718 42.8586 16.569 42.6667 16.7017 42.4165C16.838 42.1662 16.9348 41.8663 16.9922 41.5167Z" fill="black"/>
<path d="M20.3706 36V43.8972H19.37V36H20.3706Z" fill="black"/>
<path d="M21.7047 41.1774V41.0591C21.7047 40.6581 21.7657 40.2862 21.8876 39.9434C22.0096 39.5973 22.1853 39.2973 22.4148 39.0437C22.6444 38.7866 22.9223 38.5878 23.2487 38.4473C23.575 38.3033 23.9408 38.2314 24.3461 38.2314C24.7549 38.2314 25.1225 38.3033 25.4489 38.4473C25.7788 38.5878 26.0586 38.7866 26.2881 39.0437C26.5212 39.2973 26.6987 39.5973 26.8207 39.9434C26.9426 40.2862 27.0036 40.6581 27.0036 41.0591V41.1774C27.0036 41.5784 26.9426 41.9503 26.8207 42.2931C26.6987 42.6358 26.5212 42.9357 26.2881 43.1928C26.0586 43.4464 25.7806 43.6452 25.4543 43.7892C25.1315 43.9297 24.7657 44 24.3568 44C23.948 44 23.5804 43.9297 23.254 43.7892C22.9277 43.6452 22.6479 43.4464 22.4148 43.1928C22.1853 42.9357 22.0096 42.6358 21.8876 42.2931C21.7657 41.9503 21.7047 41.5784 21.7047 41.1774ZM22.6999 41.0591V41.1774C22.6999 41.455 22.734 41.7172 22.8022 41.964C22.8703 42.2074 22.9725 42.4233 23.1088 42.6118C23.2487 42.8003 23.4226 42.9494 23.6306 43.0591C23.8386 43.1654 24.0807 43.2185 24.3568 43.2185C24.6294 43.2185 24.8679 43.1654 25.0723 43.0591C25.2803 42.9494 25.4525 42.8003 25.5888 42.6118C25.725 42.4233 25.8273 42.2074 25.8954 41.964C25.9671 41.7172 26.003 41.455 26.003 41.1774V41.0591C26.003 40.7849 25.9671 40.5261 25.8954 40.2828C25.8273 40.036 25.7233 39.8183 25.5834 39.6298C25.4471 39.4379 25.275 39.2871 25.0669 39.1774C24.8625 39.0677 24.6222 39.0129 24.3461 39.0129C24.0735 39.0129 23.8332 39.0677 23.6252 39.1774C23.4208 39.2871 23.2487 39.4379 23.1088 39.6298C22.9725 39.8183 22.8703 40.036 22.8022 40.2828C22.734 40.5261 22.6999 40.7849 22.6999 41.0591Z" fill="black"/>
<path d="M31.8129 42.6118V38.3342H32.8135V43.8972H31.8613L31.8129 42.6118ZM32.0012 41.4396L32.4154 41.4293C32.4154 41.7995 32.3742 42.1422 32.2917 42.4576C32.2128 42.7695 32.0837 43.0403 31.9044 43.2699C31.725 43.4996 31.4901 43.6795 31.1996 43.8098C30.9091 43.9366 30.5559 44 30.1399 44C29.8565 44 29.5965 43.9606 29.3598 43.8817C29.1267 43.8029 28.9259 43.6812 28.7573 43.5167C28.5888 43.3522 28.4579 43.138 28.3646 42.874C28.275 42.6101 28.2301 42.2931 28.2301 41.9229V38.3342H29.2253V41.9332C29.2253 42.1834 29.254 42.3907 29.3114 42.5553C29.3724 42.7164 29.4531 42.8449 29.5535 42.9409C29.6575 43.0334 29.7723 43.0985 29.8978 43.1362C30.0269 43.174 30.1596 43.1928 30.2959 43.1928C30.7191 43.1928 31.0544 43.1157 31.3019 42.9614C31.5493 42.8038 31.7268 42.593 31.8344 42.329C31.9456 42.0617 32.0012 41.7652 32.0012 41.4396Z" fill="black"/>
<path d="M37.9994 42.8175V36H39V43.8972H38.0855L37.9994 42.8175ZM34.0831 41.1774V41.0694C34.0831 40.6444 34.1369 40.2588 34.2445 39.9126C34.3556 39.563 34.5117 39.2631 34.7125 39.0129C34.9169 38.7626 35.159 38.5707 35.4387 38.437C35.7221 38.2999 36.0377 38.2314 36.3855 38.2314C36.7513 38.2314 37.0705 38.2931 37.3431 38.4165C37.6192 38.5364 37.8524 38.7129 38.0424 38.946C38.2361 39.1757 38.3885 39.4533 38.4997 39.7789C38.6109 40.1045 38.688 40.473 38.731 40.8843V41.3573C38.6916 41.7652 38.6145 42.132 38.4997 42.4576C38.3885 42.7832 38.2361 43.0608 38.0424 43.2905C37.8524 43.5201 37.6192 43.6967 37.3431 43.8201C37.0669 43.94 36.7442 44 36.3748 44C36.0341 44 35.7221 43.9297 35.4387 43.7892C35.159 43.6487 34.9169 43.4516 34.7125 43.1979C34.5117 42.9443 34.3556 42.6461 34.2445 42.3033C34.1369 41.9572 34.0831 41.5818 34.0831 41.1774ZM35.0837 41.0694V41.1774C35.0837 41.455 35.1124 41.7155 35.1698 41.9589C35.2307 42.2022 35.324 42.4165 35.4495 42.6015C35.575 42.7866 35.7346 42.9323 35.9283 43.0386C36.1219 43.1414 36.3533 43.1928 36.6222 43.1928C36.9522 43.1928 37.223 43.126 37.4345 42.9923C37.6497 42.8586 37.8219 42.6821 37.951 42.4627C38.0801 42.2434 38.1805 42.0051 38.2522 41.7481V40.509C38.2092 40.3205 38.1464 40.1388 38.064 39.964C37.9851 39.7858 37.8811 39.6281 37.7519 39.491C37.6264 39.3505 37.4704 39.2391 37.2839 39.1568C37.101 39.0746 36.884 39.0334 36.633 39.0334C36.3604 39.0334 36.1255 39.0883 35.9283 39.1979C35.7346 39.3042 35.575 39.4516 35.4495 39.6401C35.324 39.8252 35.2307 40.0411 35.1698 40.2879C35.1124 40.5313 35.0837 40.7918 35.0837 41.0694Z" fill="black"/>
</svg>
