<svg width="50" height="50" viewBox="0 0 50 50" fill="none" xmlns="http://www.w3.org/2000/svg">
<path d="M31.5926 33.8203C32.7506 33.8203 33.9087 33.8461 35.0708 33.8203C35.8012 33.7985 36.5582 33.6696 36.7833 32.8543C37.0349 31.9438 36.325 31.5292 35.6355 31.2257C33.8105 30.4203 31.9302 29.728 30.1277 28.879C27.9671 27.8654 27.0485 26.3003 27.2633 24.3166C27.5211 22.0235 29.0822 20.5656 31.742 20.4188C34.1542 20.2839 36.5807 20.3454 38.9909 20.395C40.2369 20.4207 40.0528 21.1884 40.0425 22.6107C40.0425 23.42 39.9116 23.6025 38.9091 23.6243C36.9019 23.6541 34.8907 23.6105 32.8816 23.6243C32.5449 23.6197 32.2085 23.6463 31.877 23.7037C31.6638 23.7427 31.4672 23.8418 31.3118 23.9885C31.1564 24.1353 31.0491 24.3233 31.0034 24.5289C30.9962 24.7153 31.0317 24.901 31.1074 25.0725C31.1831 25.244 31.2971 25.3971 31.4412 25.5207C32.055 25.9175 32.7588 26.1932 33.436 26.4947C35.0401 27.2128 36.6871 27.8495 38.2441 28.6489C39.5638 29.3254 40.4374 30.4065 40.5479 31.9299C40.7525 34.7764 39.3367 36.6113 36.1797 36.9644C33.4217 37.2739 30.6105 37.1747 27.8218 37.2084C27.6172 37.2084 27.1855 37.2084 27.208 36.6351C27.208 36.5855 27.1978 36.5082 27.208 36.4368C27.2653 33.2471 26.7334 33.9175 29.7594 33.8402C30.3732 33.8263 30.987 33.8402 31.6008 33.8402L31.5926 33.8203Z" fill="#FF8300"/>
<path d="M24.9079 33.5823V37.2917C22.1826 37.1906 19.4983 37.5813 16.8712 36.8196C13.6406 35.8794 11.6642 33.4474 11.5844 29.8768C11.4637 24.4258 11.5353 18.9667 11.5107 13.5157C11.5107 12.9741 11.699 12.7123 12.2719 12.7519C12.3059 12.7539 12.3401 12.7539 12.3741 12.7519C15.5638 12.5952 15.5638 12.5952 15.5638 15.6977C15.5638 20.0339 15.5638 24.3702 15.5638 28.7065C15.5537 29.1659 15.5797 29.6255 15.6416 30.0811C16.0119 32.3167 17.3766 33.5049 19.7336 33.5744C21.4297 33.618 23.1279 33.5823 24.9079 33.5823Z" fill="#515253"/>
</svg>
