<svg width="50" height="50" viewBox="0 0 50 50" fill="none" xmlns="http://www.w3.org/2000/svg">
<path d="M25 49.9999C38.8071 49.9999 50 38.8071 50 24.9999C50 11.1928 38.8071 -6.10352e-05 25 -6.10352e-05C11.1929 -6.10352e-05 0 11.1928 0 24.9999C0 38.8071 11.1929 49.9999 25 49.9999Z" fill="white"/>
<g clip-path="url(#clip0_5_1769)">
<path d="M21.0298 12.7897C22.4301 11.3306 24.3797 10.4256 26.5359 10.4256C29.4022 10.4256 31.9029 12.0239 33.2347 14.3966C34.392 13.8795 35.6729 13.5919 37.0207 13.5919C42.1904 13.5919 46.3816 17.8196 46.3816 23.0344C46.3816 28.2498 42.1904 32.4775 37.0207 32.4775C36.4015 32.4779 35.7838 32.4164 35.1768 32.2938C34.0041 34.3857 31.7694 35.7991 29.2043 35.7991C28.1305 35.7991 27.1149 35.551 26.2106 35.11C25.0218 37.9064 22.252 39.8671 19.0238 39.8671C15.6621 39.8671 12.7971 37.74 11.6973 34.7568C11.2167 34.8589 10.7188 34.9121 10.2079 34.9121C6.20535 34.9121 2.96051 31.6339 2.96051 27.5893C2.96051 24.8789 4.4184 22.5123 6.58449 21.2462C6.13855 20.2201 5.8905 19.0876 5.8905 17.8968C5.8905 13.2455 9.66665 9.47495 14.3242 9.47495C17.0587 9.47495 19.489 10.7751 21.0298 12.7897Z" fill="#00A1E0"/>
<path d="M9.24968 25.2356C9.22247 25.3068 9.25959 25.3216 9.26824 25.334C9.34986 25.3934 9.43279 25.4361 9.51629 25.4837C9.95915 25.7187 10.3773 25.7873 10.8146 25.7873C11.7053 25.7873 12.2582 25.3136 12.2582 24.5509V24.5361C12.2582 23.8309 11.6342 23.5749 11.0484 23.3899L10.9723 23.3652C10.5307 23.2217 10.1497 23.098 10.1497 22.8073V22.7918C10.1497 22.5432 10.3724 22.3601 10.7175 22.3601C11.101 22.3601 11.5563 22.4875 11.8494 22.6495C11.8494 22.6495 11.9354 22.7052 11.9669 22.6217C11.9842 22.5772 12.1327 22.1776 12.1482 22.1343C12.1649 22.0873 12.1352 22.0526 12.1049 22.0341C11.7703 21.8306 11.3076 21.6914 10.8289 21.6914L10.7398 21.692C9.92459 21.692 9.35556 22.1844 9.35556 22.8901V22.905C9.35556 23.649 9.98336 23.8903 10.5716 24.0585L10.6662 24.0876C11.0949 24.2193 11.4642 24.3325 11.4642 24.6344V24.6493C11.4642 24.9251 11.2242 25.1304 10.837 25.1304C10.6867 25.1304 10.2073 25.1274 9.68958 24.8001C9.62708 24.7636 9.59061 24.737 9.54237 24.708C9.51703 24.6919 9.45331 24.664 9.42549 24.7482L9.24968 25.2356ZM22.2889 25.2356C22.2617 25.3068 22.2989 25.3216 22.3075 25.334C22.3891 25.3934 22.4721 25.4361 22.5555 25.4837C22.9984 25.7187 23.4166 25.7873 23.8538 25.7873C24.7445 25.7873 25.2975 25.3136 25.2975 24.5509V24.5361C25.2975 23.8309 24.6734 23.5749 24.0876 23.3899L24.0116 23.3652C23.5699 23.2217 23.1889 23.098 23.1889 22.8073V22.7918C23.1889 22.5432 23.4115 22.3601 23.7567 22.3601C24.1402 22.3601 24.5954 22.4875 24.8886 22.6495C24.8886 22.6495 24.9746 22.7052 25.0061 22.6217C25.0234 22.5772 25.1719 22.1776 25.1874 22.1343C25.2041 22.0873 25.1744 22.0526 25.1441 22.0341C24.8095 21.8306 24.3468 21.6914 23.8681 21.6914L23.779 21.692C22.9637 21.692 22.3947 22.1844 22.3947 22.8901V22.905C22.3947 23.649 23.0225 23.8903 23.6107 24.0585L23.7054 24.0876C24.134 24.2193 24.5039 24.3325 24.5039 24.6344V24.6493C24.5039 24.9251 24.2633 25.1304 23.8761 25.1304C23.7258 25.1304 23.2465 25.1274 22.7288 24.8001C22.6663 24.7636 22.6292 24.7383 22.5822 24.708C22.5661 24.6975 22.4906 24.6684 22.4646 24.7482L22.2889 25.2356ZM31.1905 23.7418C31.1905 24.1729 31.1101 24.5124 30.9518 24.7524C30.7953 24.99 30.5584 25.1056 30.2281 25.1056C29.8972 25.1056 29.6616 24.9906 29.5075 24.7524C29.3516 24.5131 29.2725 24.1729 29.2725 23.7418C29.2725 23.3113 29.3516 22.9723 29.5075 22.7348C29.6616 22.4998 29.8972 22.3853 30.2281 22.3853C30.5584 22.3853 30.7953 22.4998 30.9524 22.7348C31.1102 22.9723 31.1905 23.3112 31.1905 23.7418ZM31.934 22.9426C31.861 22.6958 31.7472 22.4781 31.5957 22.2969C31.4441 22.115 31.2524 21.9691 31.0247 21.8627C30.7977 21.7569 30.5293 21.7031 30.2281 21.7031C29.9263 21.7031 29.6578 21.7569 29.4308 21.8627C29.2032 21.9691 29.0115 22.1151 28.8593 22.2969C28.7084 22.4787 28.5946 22.6964 28.521 22.9426C28.4486 23.1881 28.4121 23.4566 28.4121 23.7418C28.4121 24.0269 28.4486 24.296 28.521 24.5409C28.5946 24.7871 28.7078 25.0048 28.86 25.1866C29.0115 25.3685 29.2038 25.5138 29.4309 25.6171C29.6584 25.7204 29.9263 25.773 30.2282 25.773C30.5294 25.773 30.7972 25.7204 31.0248 25.6171C31.2518 25.5138 31.4441 25.3685 31.5957 25.1866C31.7473 25.0054 31.861 24.7877 31.9341 24.5409C32.0071 24.2954 32.0436 24.0263 32.0436 23.7418C32.0436 23.4572 32.007 23.1881 31.934 22.9426ZM38.0394 24.9905C38.0146 24.9181 37.9447 24.9453 37.9447 24.9453C37.8365 24.9868 37.7214 25.0251 37.599 25.0443C37.4746 25.0634 37.3379 25.0734 37.1913 25.0734C36.8314 25.0734 36.5456 24.9664 36.3409 24.7548C36.1355 24.5433 36.0205 24.2013 36.0217 23.7386C36.0229 23.3174 36.1244 23.0006 36.3069 22.7595C36.4881 22.5195 36.764 22.3964 37.132 22.3964C37.4388 22.3964 37.6726 22.4316 37.9175 22.5089C37.9175 22.5089 37.9762 22.5343 38.0041 22.4576C38.069 22.277 38.1172 22.1477 38.1865 21.9492C38.2063 21.8929 38.1581 21.8687 38.1408 21.8619C38.0443 21.8242 37.8166 21.763 37.6447 21.737C37.4839 21.7123 37.2959 21.6993 37.0868 21.6993C36.7744 21.6993 36.4961 21.7525 36.258 21.8589C36.0204 21.9646 35.8188 22.1106 35.6592 22.2925C35.4996 22.4743 35.3784 22.692 35.2974 22.9382C35.217 23.1837 35.1762 23.4534 35.1762 23.7386C35.1762 24.3553 35.3426 24.8538 35.671 25.2187C36 25.5849 36.4943 25.7711 37.1388 25.7711C37.5198 25.7711 37.9107 25.6938 38.1916 25.583C38.1916 25.583 38.2454 25.557 38.2219 25.4946L38.0394 24.9905ZM39.3402 23.3288C39.3755 23.0894 39.4417 22.8902 39.5437 22.735C39.6977 22.4993 39.9328 22.3701 40.2631 22.3701C40.5934 22.3701 40.8117 22.4999 40.9682 22.735C41.0721 22.8902 41.1173 23.0981 41.1352 23.3288H39.3402ZM41.8434 22.8024C41.7803 22.5642 41.6238 22.3236 41.5212 22.2135C41.3591 22.0391 41.2008 21.9172 41.0437 21.8492C40.8383 21.7613 40.5921 21.7032 40.3225 21.7032C40.0083 21.7032 39.7231 21.7558 39.4918 21.8647C39.2598 21.9735 39.065 22.122 38.9122 22.307C38.7594 22.4912 38.6444 22.7108 38.5714 22.9601C38.4978 23.2081 38.4607 23.4784 38.4607 23.7635C38.4607 24.0537 38.499 24.324 38.5751 24.567C38.6518 24.812 38.7743 25.0278 38.94 25.2066C39.1052 25.3866 39.318 25.5276 39.5728 25.6259C39.8258 25.7236 40.1332 25.7744 40.4864 25.7737C41.2132 25.7712 41.596 25.6092 41.7537 25.522C41.7816 25.5065 41.8082 25.4793 41.7747 25.4014L41.6102 24.9406C41.5855 24.8719 41.5156 24.8973 41.5156 24.8973C41.3356 24.9641 41.0796 25.0841 40.4826 25.0829C40.0924 25.0822 39.8028 24.9672 39.6216 24.7872C39.4354 24.6029 39.3445 24.3319 39.3284 23.9497L41.8452 23.9522C41.8452 23.9522 41.9114 23.951 41.9183 23.8866C41.9207 23.8595 42.0049 23.3696 41.8434 22.8024ZM19.1842 23.3288C19.22 23.0894 19.2856 22.8902 19.3877 22.735C19.5417 22.4993 19.7767 22.3701 20.107 22.3701C20.4373 22.3701 20.6557 22.4999 20.8128 22.735C20.916 22.8902 20.9612 23.0981 20.9791 23.3288H19.1842ZM21.6867 22.8024C21.6237 22.5642 21.4678 22.3236 21.3652 22.2135C21.2031 22.0391 21.0447 21.9172 20.8876 21.8492C20.6823 21.7613 20.4361 21.7032 20.1664 21.7032C19.8528 21.7032 19.5671 21.7558 19.3357 21.8647C19.1038 21.9735 18.909 22.122 18.7562 22.307C18.6034 22.4912 18.4884 22.7108 18.4154 22.9601C18.3424 23.2081 18.3047 23.4784 18.3047 23.7635C18.3047 24.0537 18.343 24.324 18.4191 24.567C18.4958 24.812 18.6183 25.0278 18.7841 25.2066C18.9492 25.3866 19.162 25.5276 19.4168 25.6259C19.6698 25.7236 19.9772 25.7744 20.3304 25.7737C21.0572 25.7712 21.44 25.6092 21.5978 25.522C21.6256 25.5065 21.6522 25.4793 21.6188 25.4014L21.4549 24.9406C21.4295 24.8719 21.3597 24.8973 21.3597 24.8973C21.1797 24.9641 20.9242 25.0841 20.3261 25.0829C19.9364 25.0822 19.647 24.9672 19.4657 24.7872C19.2795 24.6029 19.1886 24.3319 19.1725 23.9497L21.6893 23.9522C21.6893 23.9522 21.7555 23.951 21.7623 23.8866C21.7647 23.8595 21.8488 23.3696 21.6867 22.8024ZM13.7441 24.9767C13.6458 24.8981 13.6322 24.8784 13.5988 24.8276C13.5493 24.7503 13.5239 24.6402 13.5239 24.5004C13.5239 24.279 13.5969 24.12 13.7485 24.013C13.7466 24.0137 13.965 23.8244 14.4783 23.8312C14.8389 23.8361 15.1612 23.8893 15.1612 23.8893V25.0336H15.1618C15.1618 25.0336 14.842 25.1022 14.482 25.1239C13.9699 25.1548 13.7423 24.9761 13.7441 24.9767ZM14.7455 23.2083C14.6435 23.2009 14.5111 23.1965 14.3527 23.1965C14.1369 23.1965 13.9284 23.2237 13.733 23.2763C13.5363 23.3289 13.3594 23.4112 13.2072 23.52C13.0553 23.6284 12.9304 23.7705 12.8423 23.935C12.7532 24.1008 12.7081 24.2963 12.7081 24.5153C12.7081 24.7379 12.7464 24.9315 12.8231 25.0899C12.8998 25.2488 13.0105 25.3812 13.1515 25.4833C13.2913 25.5853 13.4639 25.6601 13.6643 25.7053C13.8616 25.7505 14.0855 25.7733 14.3305 25.7733C14.5884 25.7733 14.8457 25.7523 15.095 25.7096C15.3418 25.6675 15.6448 25.6063 15.7289 25.5872C15.7879 25.573 15.8467 25.5579 15.9052 25.542C15.9677 25.5266 15.9628 25.4597 15.9628 25.4597L15.9615 23.1582C15.9615 22.6534 15.8267 22.2792 15.5613 22.0473C15.2972 21.816 14.9081 21.699 14.4053 21.699C14.2166 21.699 13.9129 21.725 13.7311 21.7615C13.7311 21.7615 13.1812 21.8679 12.9548 22.0448C12.9548 22.0448 12.9053 22.0758 12.9326 22.145L13.1107 22.6238C13.133 22.6857 13.193 22.6646 13.193 22.6646C13.193 22.6646 13.2122 22.6572 13.2345 22.6442C13.7188 22.3807 14.3311 22.3888 14.3311 22.3888C14.6033 22.3888 14.8124 22.4432 14.9534 22.5514C15.0907 22.6565 15.1605 22.8155 15.1605 23.1507V23.2571C14.944 23.2262 14.7455 23.2083 14.7455 23.2083ZM35.0447 21.9115C35.0638 21.8546 35.0237 21.8274 35.0069 21.8212C34.9643 21.8045 34.7503 21.7593 34.5851 21.7488C34.2691 21.7297 34.0934 21.7829 33.9363 21.8534C33.7804 21.9239 33.6072 22.0376 33.5107 22.167V21.8608C33.5107 21.8181 33.4804 21.7841 33.4383 21.7841H32.7932C32.7512 21.7841 32.7209 21.8181 32.7209 21.8608V25.6146C32.7209 25.6567 32.7555 25.6914 32.7975 25.6914H33.4588C33.479 25.6912 33.4984 25.6831 33.5127 25.6687C33.5269 25.6543 33.5349 25.6349 33.5348 25.6146V23.7393C33.5348 23.4875 33.5627 23.2364 33.6184 23.0787C33.6728 22.9228 33.747 22.7979 33.8386 22.7082C33.9307 22.6191 34.0352 22.5567 34.1497 22.5214C34.2666 22.4855 34.3958 22.4738 34.4874 22.4738C34.6191 22.4738 34.7639 22.5078 34.7639 22.5078C34.8121 22.5133 34.8393 22.4836 34.8554 22.4397C34.8987 22.3247 35.0212 21.9801 35.0447 21.9115Z" fill="white"/>
<path d="M28.8381 20.1717C28.7577 20.147 28.6847 20.1302 28.5895 20.1123C28.4929 20.095 28.3779 20.0863 28.2474 20.0863C27.7922 20.0863 27.4334 20.215 27.1817 20.4686C26.9312 20.721 26.761 21.1051 26.6757 21.6104L26.6447 21.7805H26.0733C26.0733 21.7805 26.004 21.778 25.9891 21.8535L25.8958 22.3774C25.8889 22.4269 25.9106 22.4584 25.9774 22.4584H26.5335L25.9693 25.608C25.9254 25.8616 25.8747 26.0701 25.8184 26.2284C25.7633 26.3843 25.7096 26.5011 25.6427 26.5865C25.5784 26.6682 25.5178 26.7288 25.4126 26.764C25.326 26.7931 25.2258 26.8067 25.1164 26.8067C25.0557 26.8067 24.9747 26.7967 24.9147 26.7844C24.8553 26.7726 24.8238 26.7597 24.7786 26.7404C24.7786 26.7404 24.7137 26.7158 24.6877 26.7807C24.6673 26.8345 24.5188 27.2421 24.5009 27.2922C24.4836 27.3423 24.5083 27.3813 24.5398 27.393C24.6141 27.419 24.6691 27.4363 24.7699 27.4604C24.9098 27.4933 25.0279 27.4951 25.1386 27.4951C25.3699 27.4951 25.5814 27.4623 25.7565 27.3992C25.9322 27.3355 26.0855 27.2248 26.2216 27.0751C26.3682 26.913 26.4604 26.7436 26.5482 26.5117C26.6354 26.2828 26.7103 25.9982 26.7697 25.6667L27.3369 22.4584H28.1657C28.1657 22.4584 28.2355 22.4609 28.2498 22.3848L28.3438 21.8616C28.35 21.8115 28.329 21.7805 28.2615 21.7805H27.4568C27.4612 21.7626 27.4976 21.4793 27.5898 21.2128C27.6294 21.0996 27.7036 21.0074 27.7661 20.9443C27.828 20.8824 27.8991 20.8385 27.9771 20.8131C28.0569 20.7872 28.1478 20.7748 28.2474 20.7748C28.3229 20.7748 28.3977 20.7835 28.4539 20.7952C28.5319 20.8119 28.5622 20.8206 28.5826 20.8268C28.6649 20.8515 28.676 20.8274 28.6921 20.7879L28.8845 20.2596C28.9043 20.2026 28.8554 20.1785 28.8381 20.1717ZM17.5947 25.6148C17.5947 25.6569 17.5644 25.6909 17.5224 25.6909H16.855C16.8129 25.6909 16.7832 25.6569 16.7832 25.6148V20.2435C16.7832 20.2014 16.8129 20.1674 16.855 20.1674H17.5224C17.5644 20.1674 17.5947 20.2014 17.5947 20.2435V25.6148Z" fill="white"/>
</g>
<defs>
<clipPath id="clip0_5_1769">
<rect width="43.4211" height="43.4211" fill="white" transform="translate(2.96051 2.96054)"/>
</clipPath>
</defs>
</svg>
