<svg width="50" height="50" viewBox="0 0 50 50" fill="none" xmlns="http://www.w3.org/2000/svg">
<path d="M29.6911 6.66111C37.4374 12.0952 34.1966 24.6415 25.976 26C36.4888 26 39.9668 11.4559 29.6911 6.66111Z" fill="#FFCE26"/>
<path d="M21.4706 6.58113C30.6397 5.22261 34.4338 16.6501 30.4025 21.9244C37.0422 15.2117 31.7463 3.22479 21.4706 6.58113Z" fill="#0879B8"/>
<path d="M16.0956 12.0952C20.6011 5.30262 30.0073 9.45809 30.9559 16.3306C32.0625 7.93974 20.9963 3.22489 16.0956 12.0952Z" fill="#069B4F"/>
<path d="M15.8584 17.2096C16.965 10.1773 25.976 9.45809 29.2959 14.4127C26.6084 7.38036 16.0165 8.2594 15.8584 17.2096Z" fill="#CB2034"/>
<path d="M32.3147 44.863C32.3147 44.5652 32.1846 44.3261 31.3838 44.1704C30.5004 43.9856 29.9257 43.6829 29.9257 43.0148C29.9257 42.3757 30.5243 41.8444 31.4249 41.8444C32.394 41.8444 32.9652 42.4032 32.9652 43.0963H32.2736C32.2736 42.7633 31.9752 42.4074 31.4249 42.4074C30.861 42.4074 30.6211 42.695 30.6211 42.9963C30.6211 43.2859 30.7839 43.4446 31.552 43.6148C32.5465 43.837 33.0064 44.1667 33.0064 44.8111C33.0064 45.4992 32.4133 46 31.4436 46C30.3743 46 29.7874 45.3556 29.7874 44.6889H30.4828C30.5124 45.2463 31.0142 45.437 31.4436 45.437C32.0183 45.437 32.3147 45.1944 32.3147 44.863Z" fill="black"/>
<path d="M28.2096 45V41.9185H28.905V45.9259H28.2433L28.2096 45ZM28.2732 45.4741C28.0245 45.8042 27.6265 46 27.0469 46C26.2681 46 25.7197 45.5772 25.7197 44.5037V41.9185H26.4113V44.5111C26.4113 45.2306 26.7828 45.4185 27.1553 45.4185C27.7455 45.4185 28.0755 45.1753 28.2246 44.7963C28.6984 43.6152 28.6222 45.0108 28.2732 45.4741Z" fill="black"/>
<path d="M24.6243 40.237V45.9259H23.9289V40.237H24.6243Z" fill="black"/>
<path d="M21.1548 43.8111H19.7004V43.2296H21.1548C22.0015 43.2296 22.3437 42.79 22.3437 42.1852C22.3437 42 22.3026 41.8259 22.2203 41.663C22.0603 41.336 21.7164 41.1185 21.1548 41.1185H19.8687V45.9259H19.1471V40.5333H21.1548C22.3855 40.5333 23.0652 41.2175 23.0652 42.1778C23.0652 43.2137 22.3912 43.8111 21.1548 43.8111Z" fill="black"/>
<path d="M43.7363 34.0148V37.3926H43.0447V33.3852H43.7176L43.7363 34.0148ZM45 33.363L44.9963 34C44.7529 33.9476 44.4697 33.9505 44.2373 34.0444C43.9931 34.1432 43.8248 34.3235 43.7251 34.5704C43.3742 35.4669 43.5224 34.1782 43.7363 33.837C43.8385 33.6716 43.9681 33.5432 44.1252 33.4519C44.3537 33.3174 44.7465 33.2374 45 33.363Z" fill="black"/>
<path d="M40.6631 37.4667C39.8233 37.4667 39.1993 37.0233 38.9359 36.3074C38.8247 36.0052 38.805 35.6924 38.805 35.3741C38.805 34.0621 39.6681 33.3111 40.5734 33.3111C41.4439 33.3111 41.945 33.7759 42.1399 34.4963C42.2047 34.7333 42.2371 34.9926 42.2371 35.2741V35.5815H39.2163V35.0222H41.5455V34.9704C41.5157 34.4388 41.2849 33.8741 40.5734 33.8741C39.9488 33.8741 39.5004 34.4044 39.5004 35.3741V35.5296C39.5004 35.7198 39.5266 35.8988 39.5789 36.0667C39.7453 36.5685 40.1392 36.9074 40.7005 36.9074C41.1891 36.9074 41.5118 36.6938 41.7661 36.363L42.1848 36.6926C41.924 37.0837 41.4692 37.4667 40.6631 37.4667Z" fill="black"/>
<path d="M37.3058 33.3852H37.9339V37.3074C37.9339 38.3653 37.2337 38.9741 36.2216 38.9741C35.6646 38.9741 35.0499 38.7413 34.7224 38.2778L35.0851 37.8704C35.426 38.2776 35.8074 38.4111 36.1693 38.4111C36.8261 38.4111 37.2423 38.0395 37.2423 37.3407V34.2667L37.3058 33.3852ZM34.5205 35.4333V35.3556C34.5205 34.1143 35.1397 33.3111 36.1169 33.3111C36.6269 33.3111 37.005 33.4911 37.2684 33.8259C37.9413 34.6529 37.9287 36.144 37.2684 36.9556C37.0049 37.2856 36.6241 37.4667 36.1094 37.4667C35.0171 37.4667 34.5205 36.3836 34.5205 35.4333ZM35.2122 35.3556V35.4333C35.2122 36.2371 35.5293 36.8852 36.2777 36.8852C37.8402 36.8852 37.8681 33.8889 36.2852 33.8889C35.5504 33.8889 35.2122 34.5323 35.2122 35.3556Z" fill="black"/>
<path d="M32.9054 36.7074V34.6444C32.9054 34.168 32.6124 33.863 32.053 33.863C31.5372 33.863 31.1781 34.1584 31.1781 34.4963H30.4865C30.4865 33.9157 31.1372 33.3111 32.0941 33.3111C32.981 33.3111 33.5971 33.7565 33.5971 34.6519V36.5185C33.5971 36.7855 33.6445 37.1163 33.7391 37.3333V37.3926H33.0176C32.9827 37.3136 32.9553 37.2086 32.9353 37.0778C32.9154 36.9444 32.9054 36.821 32.9054 36.7074ZM33.025 34.963L33.0325 35.4444C32.6278 35.4444 32.2052 35.4097 31.8062 35.4926C31.3457 35.5809 31.0959 35.8099 31.0959 36.1852C31.0959 36.8736 31.9374 37.0039 32.4306 36.7333C32.5926 36.6444 32.721 36.5358 32.8157 36.4074C32.9129 36.279 32.9652 36.1543 32.9727 36.0333C33.3332 36.4356 33.2497 36.6817 32.8157 37.0704C32.6886 37.184 32.5365 37.279 32.3596 37.3556C31.5545 37.6974 30.4005 37.2526 30.4005 36.2778C30.4005 35.6266 30.8027 35.217 31.4698 35.0481C31.9739 34.9205 32.5098 34.963 33.025 34.963Z" fill="black"/>
<path d="M26.9796 34.2407V37.3926H26.288V33.3852H26.9422L26.9796 34.2407ZM26.9871 33.8556C27.2784 33.5073 27.6874 33.3111 28.1723 33.3111C28.7707 33.3111 29.2014 33.5438 29.3798 34.0963C29.4397 34.279 29.4696 34.5025 29.4696 34.7667V37.3926H28.7742V34.7593C28.7742 34.1213 28.4845 33.8889 27.9666 33.8889C27.6251 33.8889 27.3387 34.039 27.1329 34.2926C27.0332 34.4185 26.9547 34.563 26.8974 34.7259C26.5635 35.7032 26.6184 34.2964 26.9871 33.8556Z" fill="black"/>
<path d="M24.5084 36.7074V34.6444C24.5084 34.168 24.2154 33.863 23.6559 33.863C23.1401 33.863 22.7811 34.1584 22.7811 34.4963H22.0894C22.0894 34.0639 22.4484 33.6123 23.0316 33.4148C23.6821 33.1893 24.6054 33.2777 25.0056 33.9074C25.1352 34.1049 25.2 34.3531 25.2 34.6519V36.5185C25.2 36.7855 25.2475 37.1163 25.3421 37.3333V37.3926H24.6205C24.5856 37.3136 24.5582 37.2086 24.5383 37.0778C24.5183 36.9444 24.5084 36.821 24.5084 36.7074ZM24.628 34.963L24.6355 35.4444C24.2307 35.4444 23.8082 35.4097 23.4092 35.4926C22.9486 35.5809 22.6989 35.8099 22.6989 36.1852C22.6989 36.8736 23.5403 37.0039 24.0336 36.7333C24.3591 36.5547 24.5608 36.2742 24.5757 36.0333C24.8095 36.2943 24.9293 36.3809 24.7289 36.7074C24.576 36.9567 24.3201 37.2009 23.9625 37.3556C23.1574 37.6974 22.0035 37.2526 22.0035 36.2778C22.0035 35.6266 22.4056 35.217 23.0727 35.0481C23.5769 34.9205 24.1128 34.963 24.628 34.963Z" fill="black"/>
<path d="M15.7711 32H16.4702L18.2536 36.3963L20.0332 32H20.736L18.5228 37.3926H17.9769L15.7711 32ZM15.543 32H16.1599L16.2609 35.2889V37.3926H15.543V32ZM20.3435 32H20.9604V37.3926H20.2425V35.2889L20.3435 32Z" fill="black"/>
<path d="M11.9913 37.3926H10.8548L10.8622 36.8111H11.9913C13.1651 36.8111 13.7447 36.0274 13.7447 34.8593V34.5296C13.7447 33.2843 13.1365 32.5852 12.0586 32.5852H10.8323V32H12.0586C13.4786 32 14.4588 32.9671 14.4588 34.537V34.8593C14.4588 36.4035 13.5251 37.3926 11.9913 37.3926ZM11.2398 32V37.3926H10.5183V32H11.2398Z" fill="black"/>
<path d="M7.53855 32.4778L5.73652 37.3926H5L7.07496 32H7.54977L7.53855 32.4778ZM9.04898 37.3926L7.2432 32.4778L7.23198 32H7.70679L9.78923 37.3926H9.04898ZM8.95551 35.3963V35.9815H5.89728V35.3963H8.95551Z" fill="black"/>
</svg>
