<svg width="50" height="50" viewBox="0 0 50 50" fill="none" xmlns="http://www.w3.org/2000/svg">
<path d="M28.8327 6.66111C36.579 12.0952 33.3382 24.6415 25.1176 26C35.6304 26 39.1084 11.4559 28.8327 6.66111Z" fill="#FFCE26"/>
<path d="M20.6122 6.58113C29.7813 5.22261 33.5754 16.6501 29.5441 21.9244C36.1838 15.2117 30.8879 3.22479 20.6122 6.58113Z" fill="#0879B8"/>
<path d="M15.2372 12.0952C19.7427 5.30262 29.1489 9.45809 30.0975 16.3306C31.2041 7.93974 20.1379 3.22489 15.2372 12.0952Z" fill="#069B4F"/>
<path d="M15 17.2096C16.1066 10.1773 25.1176 9.45809 28.4375 14.4127C25.75 7.38036 15.1581 8.2594 15 17.2096Z" fill="#CB2034"/>
<path d="M15.7676 31.8906V39H14.8252V31.8906H15.7676ZM20.0596 31.8906L17.1055 35.2061L15.4453 36.9297L15.2891 35.9238L16.5391 34.5469L18.9268 31.8906H20.0596ZM19.1514 39L16.5195 35.5332L17.0811 34.7861L20.2744 39H19.1514Z" fill="#1C1D1F"/>
<path d="M21.4023 31.8906H22.3154L24.6445 37.6865L26.9688 31.8906H27.8867L24.9961 39H24.2832L21.4023 31.8906ZM21.1045 31.8906H21.9102L22.042 36.2266V39H21.1045V31.8906ZM27.374 31.8906H28.1797V39H27.2422V36.2266L27.374 31.8906Z" fill="#1C1D1F"/>
<path d="M32.457 36.2119H30.5576V35.4453H32.457C32.8249 35.4453 33.1227 35.3867 33.3506 35.2695C33.5785 35.1523 33.7445 34.9896 33.8486 34.7812C33.9561 34.5729 34.0098 34.3353 34.0098 34.0684C34.0098 33.8242 33.9561 33.5947 33.8486 33.3799C33.7445 33.165 33.5785 32.9925 33.3506 32.8623C33.1227 32.7288 32.8249 32.6621 32.457 32.6621H30.7773V39H29.835V31.8906H32.457C32.9941 31.8906 33.4482 31.9834 33.8193 32.1689C34.1904 32.3545 34.472 32.6117 34.6641 32.9404C34.8561 33.266 34.9521 33.6387 34.9521 34.0586C34.9521 34.5143 34.8561 34.9033 34.6641 35.2256C34.472 35.5479 34.1904 35.7936 33.8193 35.9629C33.4482 36.1289 32.9941 36.2119 32.457 36.2119Z" fill="#1C1D1F"/>
</svg>
