<svg width="50" height="50" viewBox="0 0 50 50" fill="none" xmlns="http://www.w3.org/2000/svg">
<path d="M28.8327 6.66111C36.579 12.0952 33.3382 24.6415 25.1176 26C35.6304 26 39.1084 11.4559 28.8327 6.66111Z" fill="#FFCE26"/>
<path d="M20.6122 6.58113C29.7813 5.22261 33.5754 16.6501 29.5441 21.9244C36.1838 15.2117 30.8879 3.22479 20.6122 6.58113Z" fill="#0879B8"/>
<path d="M15.2372 12.0952C19.7427 5.30262 29.1489 9.45809 30.0975 16.3306C31.2041 7.93974 20.1379 3.22489 15.2372 12.0952Z" fill="#069B4F"/>
<path d="M15 17.2096C16.1066 10.1773 25.1176 9.45809 28.4375 14.4127C25.75 7.38036 15.1581 8.2594 15 17.2096Z" fill="#CB2034"/>
<path d="M20.4571 32.5205L18.1036 39H17.1417L19.8516 31.8906H20.4718L20.4571 32.5205ZM22.4298 39L20.0714 32.5205L20.0567 31.8906H20.6768L23.3966 39H22.4298ZM22.3077 36.3681V37.1396H18.3136V36.3681H22.3077Z" fill="#1C1D1F"/>
<path d="M24.6466 31.8906H25.5597L27.8888 37.6865L30.213 31.8906H31.1309L28.2403 39H27.5274L24.6466 31.8906ZM24.3487 31.8906H25.1544L25.2862 36.2265V39H24.3487V31.8906ZM30.6182 31.8906H31.4239V39H30.4864V36.2265L30.6182 31.8906Z" fill="#1C1D1F"/>
</svg>
