<svg width="50" height="50" viewBox="0 0 50 50" fill="none" xmlns="http://www.w3.org/2000/svg">
<path fill-rule="evenodd" clip-rule="evenodd" d="M31.2889 6.82353C42.1684 14.4329 37.6268 32.0903 26 34C40.932 34.0122 45.7804 13.647 31.2889 6.82353Z" fill="#FAA61A"/>
<path fill-rule="evenodd" clip-rule="evenodd" d="M19.4118 6.80166C32.1512 4.89855 37.3737 20.8604 31.7999 28.2353C41.0235 18.807 33.6427 2.15661 19.4118 6.80166Z" fill="#007AC1"/>
<path fill-rule="evenodd" clip-rule="evenodd" d="M12 14.5681C18.485 5.94137 31.9561 11.2801 33.3059 20C34.8531 9.22268 19.0403 3.24981 12 14.5681Z" fill="#009D54"/>
<path fill-rule="evenodd" clip-rule="evenodd" d="M12 21.6471C13.5513 11.5851 26.336 10.5316 30.9412 17.5999C27.1773 7.58769 12.248 8.81056 12 21.6471Z" fill="#CB2032"/>
<path d="M20.7676 43.2334H24.1367V44H19.8252V36.8906H20.7676V43.2334Z" fill="black"/>
<path fill-rule="evenodd" clip-rule="evenodd" d="M28.165 36.8906L30.8848 44H29.918L29.2412 42.1396H26.2676L25.5918 44H24.6299L27.3398 36.8906H28.165ZM26.5479 41.3682H28.96L27.752 38.0508L26.5479 41.3682Z" fill="black"/>
</svg>
