<svg width="50" height="50" viewBox="0 0 50 50" fill="none" xmlns="http://www.w3.org/2000/svg">
<path d="M45.7943 11.1615C45.6895 11.0538 45.5324 11 45.4277 11C45.0087 11 44.4849 11.2692 44.2231 11.4308C44.1707 11.4846 44.1183 11.4846 44.1183 11.4846C43.647 11.7 43.1232 11.8615 42.5995 11.8615C42.0757 11.8615 41.6044 11.9154 40.9759 11.9692C37.4145 12.3462 35.7909 15.1462 34.272 17.8923C33.4341 19.3462 32.5961 20.9077 31.3915 22.0923C31.1296 22.3615 30.8678 22.5769 30.6059 22.7923C29.4013 23.7077 27.8301 24.4077 26.6255 24.8385C25.4733 25.2692 24.2163 25.7 23.0117 26.0769C21.9118 26.4538 20.8644 26.7769 19.8693 27.1538C19.4503 27.3154 19.0836 27.4231 18.717 27.5846C17.8267 27.9077 17.1982 28.1231 16.2555 28.7692C15.8888 29.0385 15.5222 29.3077 15.2604 29.5231C14.5271 30.1154 13.8986 30.8154 13.3225 31.6231C12.8512 32.3231 12.3274 33.0231 11.6989 33.6154C11.4895 33.8308 11.1752 33.8846 10.6515 33.8846C10.023 33.8846 9.28975 33.7769 8.50415 33.6154C7.71854 33.4538 6.88056 33.3462 6.14732 33.3462C5.57121 33.3462 5.09985 33.4538 4.78561 33.6154C4.78561 33.6154 4.2095 33.9385 4 34.3692L4.2095 34.4769C4.57611 34.6923 4.89035 34.9077 5.2046 35.1769C5.51884 35.4462 5.83308 35.7154 6.25207 35.9308C6.35682 35.9846 6.46157 36.0385 6.56632 36.1462C6.46157 36.3077 6.30445 36.4692 6.1997 36.6846C5.36172 37.8154 4.89035 38.5154 5.15222 38.8923C5.41409 38.9462 5.57121 39 5.72833 39C7.50904 39 8.50415 38.5154 9.70874 37.9231C10.0754 37.7615 10.442 37.5462 10.861 37.3846C11.5942 37.0615 12.3274 36.5769 13.1654 36.0385C14.2653 35.3385 15.3651 34.5846 16.4126 34.2615C17.3029 33.9923 18.2457 33.8308 19.136 33.8846C20.2882 33.8846 21.4928 34.0462 22.6451 34.2077C23.5354 34.3154 24.4258 34.4231 25.2638 34.4769C25.6304 34.4769 25.9446 34.5308 26.2065 34.5308C26.6255 34.5308 27.0445 34.5308 27.4111 34.4769L27.5158 34.4231C28.1443 34.0462 28.4062 33.1846 28.7204 32.3769C28.8775 31.8385 29.0347 31.4077 29.2965 31.0846L29.3489 31.0308H29.4013C29.2442 34.2077 28.0396 36.2 26.7826 37.9769L25.9446 38.8923C25.9446 38.8923 27.0968 38.8923 27.7777 38.6231C30.1869 37.8692 32.02 36.2538 33.3817 33.6154C33.6959 32.9692 34.0102 32.2692 34.272 31.5692C34.272 31.5154 34.4815 31.4077 34.4815 31.7308C34.4815 31.8385 34.4815 31.9462 34.4815 32C34.4815 32.0538 34.4815 32.1077 34.4815 32.1615C34.4292 32.5923 34.3244 33.5077 34.3244 33.5077L35.0577 33.0769C36.8907 31.8923 38.2525 29.5231 39.2999 25.8615C39.7189 24.3538 40.0855 22.7923 40.3474 21.4462C40.6617 19.8308 40.9759 18.4308 41.3425 17.8923C41.8662 17.0308 42.6519 16.4923 43.4375 15.9L43.7517 15.6846C44.7468 14.9846 45.6895 14.1769 45.899 12.6692C46.1085 11.5923 45.9514 11.2692 45.7943 11.1615Z" fill="#003545"/>
</svg>
