<svg width="50" height="50" viewBox="0 0 50 50" fill="none" xmlns="http://www.w3.org/2000/svg">
<rect width="50" height="50" fill="#005CA8"/>
<path d="M11 9V21H33.25V18.8657L38.5 22.3301L33.25 25.7939V24H23V24.5C23 26.709 24.7908 28.5 27 28.5H28.5V30H13V28.5H14.5C16.7092 28.5 18.5 26.709 18.5 24.5V24H10C8.89551 24 8 23.1045 8 22V8C8 6.89551 8.89551 6 10 6H32C33.1045 6 34 6.89551 34 8V12.5H31V9H11Z" fill="white"/>
<path fill-rule="evenodd" clip-rule="evenodd" d="M39 30H32V25H30V32C30 32.5522 30.4478 33 31 33H40C40.2981 33 40.5659 32.8696 40.749 32.6626C40.9053 32.4858 41 32.2539 41 32V15C41 14.4478 40.5522 14 40 14H25.5V16H39V30ZM34 31H37V32H34V31Z" fill="white"/>
<path d="M21.5 11H25.5V15H21.5V11Z" fill="#8FCA42"/>
<path d="M17 11H21V15H17V11Z" fill="#EA6D26"/>
<path d="M17 15.5H21V19.5H17V15.5Z" fill="#00ADE9"/>
<path d="M21.5 15.5H25.5V19.5H21.5V15.5Z" fill="#FFBB26"/>
<path d="M18.9025 41.5824L20.6108 36H21.4384L20.9596 38.1703L19.1212 44H18.2995L18.9025 41.5824ZM17.135 36L18.4946 41.4725L18.9025 44H18.0867L16 36H17.135ZM23.6493 41.467L24.9793 36H26.1202L24.0394 44H23.2236L23.6493 41.467ZM21.5626 36L23.2236 41.5824L23.8266 44H23.0049L21.2315 38.1703L20.7468 36H21.5626Z" fill="white"/>
<path d="M33.0069 39.4396V40.3022H28.3488V39.4396H33.0069ZM28.5261 36V44H27.3852V36H28.5261ZM34 36V44H32.865V36H34Z" fill="white"/>
</svg>
