<svg width="50" height="50" viewBox="0 0 50 50" fill="none" xmlns="http://www.w3.org/2000/svg">
<path d="M18.881 11.8815H31.1187V24.1137H34.9998V8H18.881V11.8815Z" fill="#0075F3"/>
<path d="M31.1155 24.1136V28H15V11.8814H18.886V24.1136H31.1155Z" fill="#0075F3"/>
<path d="M15.5225 37.2031C15.5225 37.0371 15.4964 36.8906 15.4443 36.7637C15.3955 36.6335 15.3076 36.5163 15.1807 36.4121C15.057 36.3079 14.8844 36.2087 14.6631 36.1143C14.445 36.0199 14.1683 35.9238 13.833 35.8262C13.4814 35.722 13.1641 35.6064 12.8809 35.4795C12.5977 35.3493 12.3551 35.2012 12.1533 35.0352C11.9515 34.8691 11.7969 34.6787 11.6895 34.4639C11.582 34.249 11.5283 34.0033 11.5283 33.7266C11.5283 33.4499 11.5853 33.1943 11.6992 32.96C11.8132 32.7256 11.9759 32.5221 12.1875 32.3496C12.4023 32.1738 12.6579 32.0371 12.9541 31.9395C13.2503 31.8418 13.5807 31.793 13.9453 31.793C14.4792 31.793 14.9316 31.8955 15.3027 32.1006C15.6771 32.3024 15.9619 32.5677 16.1572 32.8965C16.3525 33.222 16.4502 33.5703 16.4502 33.9414H15.5127C15.5127 33.6745 15.4557 33.4385 15.3418 33.2334C15.2279 33.0251 15.0553 32.8623 14.8242 32.7451C14.5931 32.6247 14.3001 32.5645 13.9453 32.5645C13.61 32.5645 13.3333 32.6149 13.1152 32.7158C12.8971 32.8167 12.7344 32.9535 12.627 33.126C12.5228 33.2985 12.4707 33.4954 12.4707 33.7168C12.4707 33.8665 12.5016 34.0033 12.5635 34.127C12.6286 34.2474 12.7279 34.3597 12.8613 34.4639C12.998 34.568 13.1706 34.6641 13.3789 34.752C13.5905 34.8398 13.8428 34.9245 14.1357 35.0059C14.5394 35.1198 14.8877 35.2467 15.1807 35.3867C15.4736 35.5267 15.7145 35.6846 15.9033 35.8604C16.0954 36.0329 16.237 36.2298 16.3281 36.4512C16.4225 36.6693 16.4697 36.9167 16.4697 37.1934C16.4697 37.4831 16.4111 37.7451 16.2939 37.9795C16.1768 38.2139 16.0091 38.4141 15.791 38.5801C15.5729 38.7461 15.3109 38.8747 15.0049 38.9658C14.7021 39.0537 14.3636 39.0977 13.9893 39.0977C13.6605 39.0977 13.3366 39.0521 13.0176 38.9609C12.7018 38.8698 12.4137 38.7331 12.1533 38.5508C11.8962 38.3685 11.6895 38.1439 11.5332 37.877C11.3802 37.6068 11.3037 37.2943 11.3037 36.9395H12.2412C12.2412 37.1836 12.2884 37.3936 12.3828 37.5693C12.4772 37.7419 12.6058 37.8851 12.7686 37.999C12.9346 38.113 13.1217 38.1976 13.3301 38.2529C13.5417 38.305 13.7614 38.3311 13.9893 38.3311C14.318 38.3311 14.5964 38.2855 14.8242 38.1943C15.0521 38.1032 15.2246 37.973 15.3418 37.8037C15.4622 37.6344 15.5225 37.4342 15.5225 37.2031Z" fill="#1C1D1F"/>
<path d="M19.7266 39.0977C19.3587 39.0977 19.0251 39.0358 18.7256 38.9121C18.4294 38.7852 18.1738 38.6077 17.959 38.3799C17.7474 38.152 17.5846 37.8818 17.4707 37.5693C17.3568 37.2568 17.2998 36.915 17.2998 36.5439V36.3389C17.2998 35.9092 17.3633 35.5267 17.4902 35.1914C17.6172 34.8529 17.7897 34.5664 18.0078 34.332C18.2259 34.0977 18.4733 33.9202 18.75 33.7998C19.0267 33.6794 19.3132 33.6191 19.6094 33.6191C19.987 33.6191 20.3125 33.6842 20.5859 33.8145C20.8626 33.9447 21.0889 34.127 21.2646 34.3613C21.4404 34.5924 21.5706 34.8659 21.6553 35.1816C21.7399 35.4941 21.7822 35.8359 21.7822 36.207V36.6123H17.8369V35.875H20.8789V35.8066C20.8659 35.5723 20.8171 35.3444 20.7324 35.123C20.651 34.9017 20.5208 34.7194 20.3418 34.5762C20.1628 34.4329 19.9186 34.3613 19.6094 34.3613C19.4043 34.3613 19.2155 34.4053 19.043 34.4932C18.8704 34.5778 18.7223 34.7048 18.5986 34.874C18.4749 35.0433 18.3789 35.25 18.3105 35.4941C18.2422 35.7383 18.208 36.0199 18.208 36.3389V36.5439C18.208 36.7946 18.2422 37.0306 18.3105 37.252C18.3822 37.4701 18.4847 37.6621 18.6182 37.8281C18.7549 37.9941 18.9193 38.1243 19.1113 38.2188C19.3066 38.3132 19.528 38.3604 19.7754 38.3604C20.0944 38.3604 20.3646 38.2952 20.5859 38.165C20.8073 38.0348 21.001 37.8607 21.167 37.6426L21.7139 38.0771C21.5999 38.2497 21.4551 38.4141 21.2793 38.5703C21.1035 38.7266 20.887 38.8535 20.6299 38.9512C20.376 39.0488 20.0749 39.0977 19.7266 39.0977Z" fill="#1C1D1F"/>
<path d="M23.7402 34.5469V39H22.8369V33.7168H23.7158L23.7402 34.5469ZM25.3906 33.6875L25.3857 34.5273C25.3109 34.5111 25.2393 34.5013 25.1709 34.498C25.1058 34.4915 25.0309 34.4883 24.9463 34.4883C24.738 34.4883 24.554 34.5208 24.3945 34.5859C24.235 34.651 24.0999 34.7422 23.9893 34.8594C23.8786 34.9766 23.7907 35.1165 23.7256 35.2793C23.6637 35.4388 23.623 35.6146 23.6035 35.8066L23.3496 35.9531C23.3496 35.6341 23.3805 35.3346 23.4424 35.0547C23.5075 34.7747 23.6068 34.5273 23.7402 34.3125C23.8737 34.0944 24.043 33.9251 24.248 33.8047C24.4564 33.681 24.7038 33.6191 24.9902 33.6191C25.0553 33.6191 25.1302 33.6273 25.2148 33.6436C25.2995 33.6566 25.3581 33.6712 25.3906 33.6875Z" fill="#1C1D1F"/>
<path d="M27.9199 38.1846L29.3652 33.7168H30.2881L28.3887 39H27.7832L27.9199 38.1846ZM26.7139 33.7168L28.2031 38.209L28.3057 39H27.7002L25.7861 33.7168H26.7139Z" fill="#1C1D1F"/>
<path d="M33.2812 39.0977C32.9134 39.0977 32.5798 39.0358 32.2803 38.9121C31.984 38.7852 31.7285 38.6077 31.5137 38.3799C31.3021 38.152 31.1393 37.8818 31.0254 37.5693C30.9115 37.2568 30.8545 36.915 30.8545 36.5439V36.3389C30.8545 35.9092 30.918 35.5267 31.0449 35.1914C31.1719 34.8529 31.3444 34.5664 31.5625 34.332C31.7806 34.0977 32.028 33.9202 32.3047 33.7998C32.5814 33.6794 32.8678 33.6191 33.1641 33.6191C33.5417 33.6191 33.8672 33.6842 34.1406 33.8145C34.4173 33.9447 34.6436 34.127 34.8193 34.3613C34.9951 34.5924 35.1253 34.8659 35.21 35.1816C35.2946 35.4941 35.3369 35.8359 35.3369 36.207V36.6123H31.3916V35.875H34.4336V35.8066C34.4206 35.5723 34.3717 35.3444 34.2871 35.123C34.2057 34.9017 34.0755 34.7194 33.8965 34.5762C33.7174 34.4329 33.4733 34.3613 33.1641 34.3613C32.959 34.3613 32.7702 34.4053 32.5977 34.4932C32.4251 34.5778 32.277 34.7048 32.1533 34.874C32.0296 35.0433 31.9336 35.25 31.8652 35.4941C31.7969 35.7383 31.7627 36.0199 31.7627 36.3389V36.5439C31.7627 36.7946 31.7969 37.0306 31.8652 37.252C31.9368 37.4701 32.0394 37.6621 32.1729 37.8281C32.3096 37.9941 32.474 38.1243 32.666 38.2188C32.8613 38.3132 33.0827 38.3604 33.3301 38.3604C33.6491 38.3604 33.9193 38.2952 34.1406 38.165C34.362 38.0348 34.5557 37.8607 34.7217 37.6426L35.2686 38.0771C35.1546 38.2497 35.0098 38.4141 34.834 38.5703C34.6582 38.7266 34.4417 38.8535 34.1846 38.9512C33.9307 39.0488 33.6296 39.0977 33.2812 39.0977Z" fill="#1C1D1F"/>
<path d="M37.2949 34.5469V39H36.3916V33.7168H37.2705L37.2949 34.5469ZM38.9453 33.6875L38.9404 34.5273C38.8656 34.5111 38.7939 34.5013 38.7256 34.498C38.6605 34.4915 38.5856 34.4883 38.501 34.4883C38.2926 34.4883 38.1087 34.5208 37.9492 34.5859C37.7897 34.651 37.6546 34.7422 37.5439 34.8594C37.4333 34.9766 37.3454 35.1165 37.2803 35.2793C37.2184 35.4388 37.1777 35.6146 37.1582 35.8066L36.9043 35.9531C36.9043 35.6341 36.9352 35.3346 36.9971 35.0547C37.0622 34.7747 37.1615 34.5273 37.2949 34.3125C37.4284 34.0944 37.5977 33.9251 37.8027 33.8047C38.0111 33.681 38.2585 33.6191 38.5449 33.6191C38.61 33.6191 38.6849 33.6273 38.7695 33.6436C38.8542 33.6566 38.9128 33.6712 38.9453 33.6875Z" fill="#1C1D1F"/>
</svg>
