<svg width="51" height="50" viewBox="0 0 51 50" fill="none" xmlns="http://www.w3.org/2000/svg">
<g clip-path="url(#clip0_5079_197)">
<path d="M32.0179 21.25H40.5419C41.3472 21.25 42.0001 21.888 42.0001 22.675V30.2627C42.0001 33.1552 39.6007 35.5 36.641 35.5H36.6157C33.6559 35.5004 31.2563 33.1559 31.2559 30.2635C31.2559 30.2632 31.2559 30.263 31.2559 30.2627V21.9948C31.2559 21.5834 31.5971 21.25 32.0179 21.25Z" fill="#5059C9"/>
<path d="M37.7792 19.75C39.6865 19.75 41.2327 18.239 41.2327 16.375C41.2327 14.511 39.6865 13 37.7792 13C35.8719 13 34.3257 14.511 34.3257 16.375C34.3257 18.239 35.8719 19.75 37.7792 19.75Z" fill="#5059C9"/>
<path d="M27.0348 19.75C29.7898 19.75 32.0231 17.5674 32.0231 14.875C32.0231 12.1826 29.7898 10 27.0348 10C24.2798 10 22.0464 12.1826 22.0464 14.875C22.0464 17.5674 24.2798 19.75 27.0348 19.75Z" fill="#7B83EB"/>
<path d="M33.6864 21.25H19.6161C18.8204 21.2692 18.191 21.9146 18.2094 22.6923V31.3465C18.0983 36.0132 21.8762 39.8858 26.6513 40C31.4264 39.8858 35.2043 36.0132 35.0932 31.3465V22.6923C35.1116 21.9146 34.4821 21.2692 33.6864 21.25Z" fill="#7B83EB"/>
<path opacity="0.1" d="M27.4187 21.25V33.3775C27.4149 33.9336 27.07 34.4333 26.5438 34.645C26.3763 34.7143 26.1962 34.75 26.0143 34.75H18.8847C18.785 34.5025 18.6929 34.255 18.6161 34C18.3475 33.1394 18.2104 32.2448 18.2094 31.345V22.69C18.1909 21.9136 18.8194 21.2692 19.6138 21.25H27.4187Z" fill="black"/>
<path opacity="0.2" d="M26.6513 21.25V34.1275C26.6512 34.3053 26.6147 34.4813 26.5438 34.645C26.3272 35.1593 25.8159 35.4963 25.2469 35.5H19.2454C19.115 35.2525 18.9922 35.005 18.8847 34.75C18.7773 34.495 18.6929 34.255 18.6161 34C18.3475 33.1394 18.2104 32.2448 18.2094 31.345V22.69C18.1909 21.9136 18.8194 21.2692 19.6138 21.25H26.6513Z" fill="black"/>
<path opacity="0.2" d="M26.6513 21.25V32.6275C26.6454 33.3831 26.0201 33.9943 25.2468 34H18.6161C18.3475 33.1394 18.2104 32.2448 18.2094 31.345V22.69C18.1909 21.9136 18.8194 21.2692 19.6138 21.25H26.6513Z" fill="black"/>
<path opacity="0.2" d="M25.8838 21.25V32.6275C25.8779 33.3831 25.2526 33.9943 24.4794 34H18.6161C18.3475 33.1394 18.2104 32.2448 18.2094 31.345V22.69C18.1909 21.9136 18.8194 21.2692 19.6138 21.25H25.8838Z" fill="black"/>
<path opacity="0.1" d="M27.4185 17.3725V19.735C27.2881 19.7425 27.1653 19.75 27.0348 19.75C26.9043 19.75 26.7816 19.7425 26.6511 19.735C26.392 19.7182 26.1351 19.678 25.8836 19.615C24.3296 19.2553 23.0457 18.1902 22.4302 16.75C22.3243 16.5081 22.242 16.257 22.1846 16H26.0141C26.7885 16.0029 27.4156 16.6157 27.4185 17.3725Z" fill="black"/>
<path opacity="0.2" d="M26.6511 18.1225V19.735C26.3921 19.7182 26.1352 19.678 25.8837 19.615C24.3296 19.2553 23.0457 18.1902 22.4302 16.75H25.2467C26.0211 16.7529 26.6482 17.3657 26.6511 18.1225Z" fill="black"/>
<path opacity="0.2" d="M26.6511 18.1225V19.735C26.3921 19.7182 26.1352 19.678 25.8837 19.615C24.3296 19.2553 23.0457 18.1902 22.4302 16.75H25.2467C26.0211 16.7529 26.6482 17.3657 26.6511 18.1225Z" fill="black"/>
<path opacity="0.2" d="M25.8837 18.1225V19.615C24.3296 19.2553 23.0457 18.1902 22.4302 16.75H24.4792C25.2537 16.7529 25.8807 17.3657 25.8837 18.1225Z" fill="black"/>
<path d="M10.4067 16.75H24.477C25.2539 16.75 25.8837 17.3655 25.8837 18.1247V31.8752C25.8837 32.6345 25.2539 33.25 24.477 33.25H10.4067C9.6298 33.25 9 32.6345 9 31.8752V18.1247C9 17.3655 9.62982 16.75 10.4067 16.75Z" fill="url(#paint0_linear_5079_197)"/>
<path d="M21.144 21.9835H18.3313V29.4685H16.5394V21.9835H13.7397V20.5315H21.144V21.9835Z" fill="white"/>
</g>
<defs>
<linearGradient id="paint0_linear_5079_197" x1="11.933" y1="15.6758" x2="22.5751" y2="34.5361" gradientUnits="userSpaceOnUse">
<stop stop-color="#5A62C3"/>
<stop offset="0.5" stop-color="#4D55BD"/>
<stop offset="1" stop-color="#3940AB"/>
</linearGradient>
<clipPath id="clip0_5079_197">
<rect width="33" height="30" fill="white" transform="translate(9 10)"/>
</clipPath>
</defs>
</svg>
