<svg width="50" height="50" viewBox="0 0 50 50" fill="none" xmlns="http://www.w3.org/2000/svg">
<path d="M36.9005 23.7756C36.9769 24.4314 36.9769 25.093 36.9005 25.7488C36.6164 27.4887 35.6608 28.0586 33.7782 27.9953C30.4249 27.8787 28.0946 26.4888 26.624 23.6156C25.8603 22.1391 24.5993 20.8892 23.5762 19.5293C23.0043 18.7693 22.4928 17.9627 21.8818 17.2327C21.5306 16.9025 21.1396 16.6116 20.7167 16.3661C20.4467 16.7561 19.9814 17.1261 19.9388 17.5361C19.7789 19.0093 19.7896 20.4958 19.683 21.9724C19.612 22.9223 19.4237 23.8689 19.3278 24.8189C19.2621 25.2662 19.3034 25.7216 19.4486 26.1521C19.8251 26.9921 19.4486 27.5453 18.6777 27.6687C17.5484 27.883 16.3895 27.9235 15.2463 27.7887C13.7331 27.5553 13.3068 26.9121 13.2144 25.4355C13.1576 24.5389 13.1541 23.6423 13.0688 22.749C12.9445 21.4391 13.2464 20.3325 14.3263 19.3793C15.1007 18.7126 15.1611 17.8327 14.4293 16.9728C13.4313 15.7564 12.9276 14.2463 13.0084 12.7131C13.0404 10.8865 13.0795 9.04666 13.1363 7.23012C13.1754 5.89688 13.5128 5.6869 14.9444 5.62357C15.8894 5.55075 16.8238 5.38656 17.7328 5.1336C19.0472 4.80029 19.8642 5.06361 20.3153 6.23019C20.7593 7.33345 21.2993 8.23005 22.5745 8.67668C22.983 8.82001 23.2849 9.31997 23.5656 9.69994C24.9864 11.6098 26.3754 13.5563 27.8531 15.4395C28.2403 15.9295 28.9187 16.2295 29.448 16.6195C29.6398 16.0128 29.9844 15.4129 30.0022 14.8029C30.0803 12.3564 30.0306 9.9066 30.0839 7.4701C30.1229 5.74023 30.7339 5.25026 32.5491 5.35025C32.9611 5.37692 33.3767 5.39692 33.7924 5.41358C35.3695 5.49024 36.2789 6.1002 36.5773 7.59009C36.8437 8.99999 36.8615 10.4499 37 12.0098C36.8757 15.0096 36.7229 18.1127 36.6448 21.2225C36.6199 22.0691 36.8437 22.919 36.9005 23.7756Z" fill="#030303"/>
<path d="M37 12.0064C36.8757 15.0062 36.7229 18.1093 36.6448 21.2191C36.6235 22.0691 36.8473 22.919 36.9041 23.7756C36.9805 24.4314 36.9805 25.093 36.9041 25.7488C36.6199 27.4887 35.6644 28.0586 33.7817 27.9953C30.4284 27.8787 28.0982 26.4888 26.6276 23.6156C25.8638 22.1391 24.6028 20.8892 23.5798 19.5293C23.0079 18.7693 22.4964 17.9627 21.8854 17.2327C21.5341 16.9025 21.1431 16.6116 20.7203 16.3661C20.4503 16.7561 19.9849 17.1261 19.9423 17.5361C19.7825 19.0093 19.7931 20.4958 19.6866 21.9724C19.6155 22.9223 19.4272 23.8689 19.3313 24.8189C19.2657 25.2662 19.3069 25.7216 19.4521 26.1521C19.8286 26.9921 19.4521 27.5453 18.6813 27.6687C17.552 27.883 16.393 27.9235 15.2499 27.7887C13.7366 27.5553 13.3104 26.9121 13.218 25.4355C13.1612 24.5389 13.1576 23.6423 13.0724 22.749C12.948 21.4391 13.25 20.3325 14.3298 19.3793C15.1042 18.7126 15.1646 17.8327 14.4329 16.9728C13.4348 15.7564 12.9311 14.2463 13.012 12.7131C13.0439 10.8865 13.083 9.04666 13.1398 7.23012C13.1789 5.89688 13.5164 5.6869 14.9479 5.62357C15.8929 5.55075 16.8274 5.38656 17.7364 5.1336C19.0507 4.80029 19.8677 5.06361 20.3189 6.23019C20.7629 7.33345 21.3028 8.23005 22.5781 8.67668C22.9866 8.82001 23.2885 9.31997 23.5691 9.69994C24.99 11.6098 26.3789 13.5563 27.8566 15.4395C28.2438 15.9295 28.9223 16.2295 29.4516 16.6195C29.6434 16.0128 29.988 15.4129 30.0057 14.8029C30.0839 12.3564 30.0341 9.9066 30.0874 7.4701C30.1265 5.74023 30.7375 5.25026 32.5526 5.35025C32.9647 5.37692 33.3803 5.39692 33.7959 5.41358C35.3731 5.49024 36.2825 6.1002 36.5808 7.59009C36.8437 8.99666 36.8686 10.4466 37 12.0064Z" fill="#030303"/>
<path d="M25.7537 30.2348L26.6928 30.0833C27.8254 29.9005 28.9845 30.0198 30.0699 30.4285C30.8163 30.7096 31.6011 30.854 32.3879 30.854H35.2526C35.9105 30.854 36.5249 31.2255 36.8898 31.8438C37.0829 32.171 37.0161 32.6116 36.7376 32.8476L36.3314 33.1917C35.7121 33.7164 34.9589 34 34.1847 34H31.1999L26.9346 33.562C26.3758 33.5046 25.8132 33.5109 25.2555 33.5809L21.9168 34H14.4293C13.9434 34 13.4992 33.6899 13.2818 33.1989C12.965 32.483 13.2218 31.6125 13.8556 31.2546L14.3384 30.9818C15.0977 30.553 15.935 30.3297 16.7839 30.3297H24.5721C24.9675 30.3297 25.3623 30.298 25.7537 30.2348Z" fill="#030303"/>
<path d="M19.9873 42.8774H20.831C20.7871 43.2817 20.6714 43.6436 20.4839 43.9629C20.2964 44.2822 20.0312 44.5356 19.6884 44.7231C19.3457 44.9077 18.9179 45 18.4052 45C18.0302 45 17.6889 44.9297 17.3813 44.7891C17.0766 44.6484 16.8144 44.4492 16.5947 44.1914C16.375 43.9307 16.205 43.6187 16.0849 43.2554C15.9677 42.8892 15.9091 42.4819 15.9091 42.0337V41.3965C15.9091 40.9482 15.9677 40.5425 16.0849 40.1792C16.205 39.813 16.3764 39.4995 16.5991 39.2388C16.8247 38.978 17.0957 38.7773 17.4121 38.6367C17.7285 38.4961 18.0844 38.4258 18.4799 38.4258C18.9633 38.4258 19.372 38.5166 19.706 38.6982C20.04 38.8799 20.2993 39.1318 20.4839 39.4541C20.6714 39.7734 20.7871 40.144 20.831 40.5659H19.9873C19.9463 40.2671 19.8701 40.0107 19.7588 39.7969C19.6474 39.5801 19.4892 39.4131 19.2841 39.2959C19.0791 39.1787 18.811 39.1201 18.4799 39.1201C18.1958 39.1201 17.9453 39.1743 17.7285 39.2827C17.5146 39.3911 17.3344 39.5449 17.188 39.7441C17.0444 39.9434 16.936 40.1821 16.8628 40.4604C16.7895 40.7388 16.7529 41.0479 16.7529 41.3877V42.0337C16.7529 42.3472 16.7851 42.6416 16.8496 42.917C16.917 43.1924 17.018 43.4341 17.1528 43.6421C17.2876 43.8501 17.459 44.0142 17.667 44.1343C17.875 44.2515 18.1211 44.3101 18.4052 44.3101C18.7656 44.3101 19.0527 44.2529 19.2666 44.1387C19.4804 44.0244 19.6416 43.8604 19.75 43.6465C19.8613 43.4326 19.9404 43.1763 19.9873 42.8774Z" fill="#030303"/>
<path d="M21.6484 42.5874V42.4863C21.6484 42.1436 21.6982 41.8257 21.7978 41.5327C21.8974 41.2368 22.041 40.9805 22.2285 40.7637C22.416 40.5439 22.643 40.374 22.9096 40.2539C23.1762 40.1309 23.4751 40.0693 23.8061 40.0693C24.1401 40.0693 24.4404 40.1309 24.707 40.2539C24.9765 40.374 25.205 40.5439 25.3925 40.7637C25.583 40.9805 25.728 41.2368 25.8276 41.5327C25.9272 41.8257 25.977 42.1436 25.977 42.4863V42.5874C25.977 42.9302 25.9272 43.248 25.8276 43.541C25.728 43.834 25.583 44.0903 25.3925 44.3101C25.205 44.5269 24.978 44.6968 24.7114 44.8198C24.4477 44.9399 24.1489 45 23.8149 45C23.4809 45 23.1806 44.9399 22.914 44.8198C22.6474 44.6968 22.4189 44.5269 22.2285 44.3101C22.041 44.0903 21.8974 43.834 21.7978 43.541C21.6982 43.248 21.6484 42.9302 21.6484 42.5874ZM22.4614 42.4863V42.5874C22.4614 42.8247 22.4892 43.0488 22.5449 43.2598C22.6006 43.4678 22.684 43.6523 22.7954 43.8135C22.9096 43.9746 23.0517 44.1021 23.2216 44.1958C23.3916 44.2866 23.5893 44.332 23.8149 44.332C24.0376 44.332 24.2324 44.2866 24.3994 44.1958C24.5693 44.1021 24.7099 43.9746 24.8213 43.8135C24.9326 43.6523 25.0161 43.4678 25.0717 43.2598C25.1303 43.0488 25.1596 42.8247 25.1596 42.5874V42.4863C25.1596 42.252 25.1303 42.0308 25.0717 41.8228C25.0161 41.6118 24.9311 41.4258 24.8169 41.2646C24.7055 41.1006 24.5649 40.9717 24.395 40.8779C24.228 40.7842 24.0317 40.7373 23.8061 40.7373C23.5835 40.7373 23.3872 40.7842 23.2173 40.8779C23.0503 40.9717 22.9096 41.1006 22.7954 41.2646C22.684 41.4258 22.6006 41.6118 22.5449 41.8228C22.4892 42.0308 22.4614 42.252 22.4614 42.4863Z" fill="#030303"/>
<path d="M27.8095 40.9043V44.9121H26.9965V40.1572H27.7876L27.8095 40.9043ZM29.2949 40.1309L29.2905 40.8867C29.2231 40.8721 29.1587 40.8633 29.0971 40.8604C29.0385 40.8545 28.9712 40.8516 28.895 40.8516C28.7075 40.8516 28.542 40.8809 28.3984 40.9395C28.2548 40.998 28.1333 41.0801 28.0337 41.1855C27.934 41.291 27.8549 41.417 27.7964 41.5635C27.7407 41.707 27.7041 41.8652 27.6865 42.0381L27.458 42.1699C27.458 41.8828 27.4858 41.6133 27.5415 41.3613C27.6001 41.1094 27.6894 40.8867 27.8095 40.6934C27.9297 40.4971 28.082 40.3447 28.2666 40.2363C28.4541 40.125 28.6767 40.0693 28.9345 40.0693C28.9931 40.0693 29.0605 40.0767 29.1367 40.0913C29.2129 40.103 29.2656 40.1162 29.2949 40.1309Z" fill="#030303"/>
<path d="M31.9316 45C31.6006 45 31.3003 44.9443 31.0307 44.833C30.7641 44.7188 30.5341 44.5591 30.3408 44.354C30.1504 44.1489 30.0039 43.9058 29.9013 43.6245C29.7988 43.3433 29.7475 43.0356 29.7475 42.7017V42.5171C29.7475 42.1304 29.8047 41.7861 29.9189 41.4844C30.0332 41.1797 30.1884 40.9219 30.3847 40.7109C30.581 40.5 30.8037 40.3403 31.0527 40.2319C31.3017 40.1235 31.5595 40.0693 31.8261 40.0693C32.166 40.0693 32.459 40.1279 32.705 40.2451C32.9541 40.3623 33.1577 40.5264 33.3159 40.7373C33.4741 40.9453 33.5913 41.1914 33.6674 41.4756C33.7436 41.7568 33.7817 42.0645 33.7817 42.3984V42.7632H30.2309V42.0996H32.9687V42.0381C32.957 41.8271 32.9131 41.6221 32.8369 41.4229C32.7636 41.2236 32.6465 41.0596 32.4853 40.9307C32.3242 40.8018 32.1045 40.7373 31.8261 40.7373C31.6416 40.7373 31.4716 40.7769 31.3164 40.856C31.1611 40.9321 31.0278 41.0464 30.9165 41.1987C30.8051 41.3511 30.7187 41.5371 30.6572 41.7568C30.5957 41.9766 30.5649 42.23 30.5649 42.5171V42.7017C30.5649 42.9272 30.5957 43.1396 30.6572 43.3389C30.7216 43.5352 30.8139 43.708 30.934 43.8574C31.0571 44.0068 31.205 44.124 31.3779 44.209C31.5537 44.2939 31.7529 44.3364 31.9756 44.3364C32.2627 44.3364 32.5058 44.2778 32.705 44.1606C32.9043 44.0435 33.0786 43.8867 33.228 43.6904L33.7202 44.0815C33.6176 44.2368 33.4873 44.3848 33.3291 44.5254C33.1709 44.666 32.976 44.7803 32.7446 44.8682C32.5161 44.9561 32.2451 45 31.9316 45Z" fill="#030303"/>
</svg>
