<svg width="50" height="50" viewBox="0 0 50 50" fill="none" xmlns="http://www.w3.org/2000/svg">
<path d="M25.032 15C20.6786 15 16.9887 17.9328 15.8451 21.9063C14.8511 19.7987 12.6973 18.3221 10.2164 18.3221C6.80459 18.3221 4 21.109 4 24.4994C4 27.8897 6.80459 30.6779 10.2164 30.6779C12.6973 30.6779 14.8511 29.2004 15.8451 27.0924C16.9887 31.0663 20.6786 34 25.032 34C29.3532 34 33.0243 31.1105 34.1972 27.1815C35.2095 29.2416 37.3367 30.6779 39.7823 30.6779C43.1941 30.6779 46 27.8897 46 24.4994C46 21.109 43.1941 18.3221 39.7823 18.3221C37.3367 18.3221 35.2095 19.7575 34.1972 21.8172C33.0243 17.8885 29.3532 15 25.032 15ZM25.032 18.6262C28.3184 18.6262 30.9437 21.2337 30.9437 24.4994C30.9437 27.765 28.3184 30.3738 25.032 30.3738C21.7457 30.3738 19.1216 27.765 19.1216 24.4994C19.1216 21.2337 21.7457 18.6262 25.032 18.6262ZM10.2164 21.9483C11.6562 21.9483 12.7849 23.0686 12.7849 24.4994C12.7849 25.9301 11.6562 27.0517 10.2164 27.0517C8.77657 27.0517 7.64916 25.9301 7.64916 24.4994C7.64916 23.0686 8.77657 21.9483 10.2164 21.9483ZM39.7823 21.9483C41.2222 21.9483 42.3508 23.0686 42.3508 24.4994C42.3508 25.9301 41.2222 27.0517 39.7823 27.0517C38.3425 27.0517 37.2151 25.9301 37.2151 24.4994C37.2151 23.0686 38.3425 21.9483 39.7823 21.9483Z" fill="#0082C9"/>
</svg>
