<svg width="50" height="50" viewBox="0 0 50 50" fill="none" xmlns="http://www.w3.org/2000/svg">
<path d="M5.11861 22.9136H3V16.1133H6.66409L10.8676 21.1902V16.1133H12.9862V22.9136H9.39631L5.11861 17.7501V22.9136ZM23.1229 20.8109C23.1229 21.7562 22.9459 22.0819 22.6525 22.3947C22.203 22.8601 21.5493 23 20.289 23H16.6718C15.4115 23 14.757 22.86 14.3079 22.3947C14.015 22.0822 13.8376 21.7562 13.8376 20.8109V18.1895C13.8376 17.2443 14.015 16.9187 14.3079 16.6057C14.757 16.1399 15.4117 16 16.6718 16H20.2892C21.5493 16 22.2031 16.14 22.6525 16.6057C22.9458 16.9186 23.1229 17.2442 23.1229 18.1895V20.8109ZM20.2001 21.2768C20.6839 21.2768 20.8546 21.2501 20.9704 21.1505C21.0792 21.0573 21.1272 20.9375 21.1272 20.538V18.4621C21.1272 18.0627 21.0792 17.9436 20.9704 17.85C20.8546 17.7501 20.6839 17.7237 20.2001 17.7237H16.7605C16.2766 17.7237 16.1061 17.7501 15.9905 17.85C15.8815 17.9436 15.8338 18.0629 15.8338 18.4621V20.538C15.8338 20.9374 15.8813 21.0573 15.9905 21.1505C16.1061 21.2501 16.2766 21.2768 16.7605 21.2768H20.2001ZM26.2018 16.1133V22.9136H23.9881V16.1133H26.2018ZM29.9418 16.1133H32.8642L28.9201 19.2942L33.3686 22.9136H30.2413L26.2018 19.367L29.9418 16.1133ZM33.7769 16.1133H35.9913V22.9136H33.7769V16.1133ZM44.432 22.9136L43.7769 21.729H39.493L38.8458 22.9136H36.4001L40.3242 16.1132H43.076L47 22.9136H44.432ZM40.2622 20.2519H43.015L41.6383 17.7899L40.2622 20.2519Z" fill="#1C4598"/>
<path d="M31.5234 31.4189H29.624V30.6523H31.5234C31.8913 30.6523 32.1891 30.5938 32.417 30.4766C32.6449 30.3594 32.8109 30.1966 32.915 29.9883C33.0225 29.7799 33.0762 29.5423 33.0762 29.2754C33.0762 29.0312 33.0225 28.8018 32.915 28.5869C32.8109 28.3721 32.6449 28.1995 32.417 28.0693C32.1891 27.9359 31.8913 27.8691 31.5234 27.8691H29.8438V34.207H28.9014V27.0977H31.5234C32.0605 27.0977 32.5146 27.1904 32.8857 27.376C33.2568 27.5615 33.5384 27.8187 33.7305 28.1475C33.9225 28.473 34.0186 28.8457 34.0186 29.2656C34.0186 29.7214 33.9225 30.1104 33.7305 30.4326C33.5384 30.7549 33.2568 31.0007 32.8857 31.1699C32.5146 31.3359 32.0605 31.4189 31.5234 31.4189Z" fill="black"/>
<path d="M26.7529 32.4102C26.7529 32.2441 26.7269 32.0977 26.6748 31.9707C26.626 31.8405 26.5381 31.7233 26.4111 31.6191C26.2874 31.515 26.1149 31.4157 25.8936 31.3213C25.6755 31.2269 25.3988 31.1309 25.0635 31.0332C24.7119 30.929 24.3945 30.8135 24.1113 30.6865C23.8281 30.5563 23.5856 30.4082 23.3838 30.2422C23.182 30.0762 23.0273 29.8857 22.9199 29.6709C22.8125 29.4561 22.7588 29.2103 22.7588 28.9336C22.7588 28.6569 22.8158 28.4014 22.9297 28.167C23.0436 27.9326 23.2064 27.7292 23.418 27.5566C23.6328 27.3809 23.8883 27.2441 24.1846 27.1465C24.4808 27.0488 24.8112 27 25.1758 27C25.7096 27 26.1621 27.1025 26.5332 27.3076C26.9076 27.5094 27.1924 27.7747 27.3877 28.1035C27.583 28.429 27.6807 28.7773 27.6807 29.1484H26.7432C26.7432 28.8815 26.6862 28.6455 26.5723 28.4404C26.4583 28.2321 26.2858 28.0693 26.0547 27.9521C25.8236 27.8317 25.5306 27.7715 25.1758 27.7715C24.8405 27.7715 24.5638 27.8219 24.3457 27.9229C24.1276 28.0238 23.9648 28.1605 23.8574 28.333C23.7533 28.5055 23.7012 28.7025 23.7012 28.9238C23.7012 29.0736 23.7321 29.2103 23.7939 29.334C23.859 29.4544 23.9583 29.5667 24.0918 29.6709C24.2285 29.7751 24.401 29.8711 24.6094 29.959C24.821 30.0469 25.0732 30.1315 25.3662 30.2129C25.7699 30.3268 26.1182 30.4538 26.4111 30.5938C26.7041 30.7337 26.945 30.8916 27.1338 31.0674C27.3258 31.2399 27.4674 31.4368 27.5586 31.6582C27.653 31.8763 27.7002 32.1237 27.7002 32.4004C27.7002 32.6901 27.6416 32.9521 27.5244 33.1865C27.4072 33.4209 27.2396 33.6211 27.0215 33.7871C26.8034 33.9531 26.5413 34.0817 26.2354 34.1729C25.9326 34.2607 25.5941 34.3047 25.2197 34.3047C24.891 34.3047 24.5671 34.2591 24.248 34.168C23.9323 34.0768 23.6442 33.9401 23.3838 33.7578C23.1266 33.5755 22.9199 33.3509 22.7637 33.084C22.6107 32.8138 22.5342 32.5013 22.5342 32.1465H23.4717C23.4717 32.3906 23.5189 32.6006 23.6133 32.7764C23.7077 32.9489 23.8363 33.0921 23.999 33.2061C24.165 33.32 24.3522 33.4046 24.5605 33.46C24.7721 33.512 24.9919 33.5381 25.2197 33.5381C25.5485 33.5381 25.8268 33.4925 26.0547 33.4014C26.2826 33.3102 26.4551 33.18 26.5723 33.0107C26.6927 32.8415 26.7529 32.6413 26.7529 32.4102Z" fill="black"/>
<path d="M21.2939 27.0977V34.207H20.3467L16.7676 28.7236V34.207H15.8252V27.0977H16.7676L20.3613 32.5957V27.0977H21.2939Z" fill="black"/>
</svg>
