<svg width="50" height="50" viewBox="0 0 50 50" fill="none" xmlns="http://www.w3.org/2000/svg">
<rect width="50" height="50" fill="#55A05F"/>
<path d="M12.7161 27.4917C12.7161 32.2944 14.9636 35.2194 18.3902 35.2194C21.8167 35.2194 23.9537 32.2944 23.9537 27.4917C23.9537 22.3639 21.8167 19.7278 18.3902 19.7278C14.9636 19.7278 12.7161 22.3639 12.7161 27.4917ZM28.7067 27.4917C28.7067 33.7028 24.1748 38 18.3533 38C12.5319 38 8 33.7028 8 27.4917C8 21.2806 12.6424 16.9833 18.3533 16.9833C24.0642 16.9833 28.7067 21.3167 28.7067 27.4917Z" fill="white"/>
<path d="M36.6207 33.125C36.6207 34.4611 37.0997 34.9306 38.4629 34.9306L41.9632 34.9667V37.6389H36.9891C34.1153 37.6389 32.4572 36.0139 32.4572 33.1972V20.2694H28.3307V17.9222C28.5886 17.9222 28.5149 17.9222 28.8833 17.9222C29.5465 17.9222 30.0623 17.8861 30.394 17.85C31.2782 17.8139 31.8309 17.6333 32.1257 17.3444C32.4204 17.0556 32.6046 16.4778 32.7152 15.6111C32.7889 15.1417 32.8625 14.5278 32.8994 13.8056C32.9362 13.0833 32.9731 12.1444 32.9731 12H36.6575V17.3806H42V20.2694H36.6575V33.125H36.6207Z" fill="white"/>
</svg>
