<svg width="50" height="50" viewBox="0 0 50 50" fill="none" xmlns="http://www.w3.org/2000/svg">
<path d="M19.4586 27.4587C14.2038 27.4587 10 23.2548 10 18.0001C10 12.7453 14.2038 8.5415 19.4586 8.5415H30.5414C35.7962 8.5415 40 12.7453 40 18.0001C40 23.2548 35.7962 27.4587 30.5414 27.4587H19.4586ZM30.2548 24.1147C33.6942 24.1147 36.3694 21.344 36.3694 18.0001C36.3694 14.5606 33.5987 11.8854 30.2548 11.8854H19.7452C16.3057 11.8854 13.6306 14.6561 13.6306 18.0001C13.6306 21.344 16.4013 24.1147 19.7452 24.1147H30.2548Z" fill="#C74634"/>
<path d="M31.498 32.5205L29.1445 39H28.1826L30.8926 31.8906H31.5127L31.498 32.5205ZM33.4707 39L31.1123 32.5205L31.0977 31.8906H31.7178L34.4375 39H33.4707ZM33.3486 36.3682V37.1396H29.3545V36.3682H33.3486Z" fill="black"/>
<path d="M26.6445 36.7393H27.582C27.5332 37.1885 27.4046 37.5905 27.1963 37.9453C26.988 38.3001 26.6934 38.5817 26.3125 38.79C25.9316 38.9951 25.4564 39.0977 24.8867 39.0977C24.4701 39.0977 24.0908 39.0195 23.749 38.8633C23.4105 38.707 23.1191 38.4857 22.875 38.1992C22.6309 37.9095 22.4421 37.5628 22.3086 37.1592C22.1784 36.7523 22.1133 36.2998 22.1133 35.8018V35.0938C22.1133 34.5957 22.1784 34.1449 22.3086 33.7412C22.4421 33.3343 22.6325 32.986 22.8799 32.6963C23.1305 32.4066 23.4316 32.1836 23.7832 32.0273C24.1348 31.8711 24.5303 31.793 24.9697 31.793C25.5068 31.793 25.9609 31.8939 26.332 32.0957C26.7031 32.2975 26.9912 32.5775 27.1963 32.9355C27.4046 33.2904 27.5332 33.7021 27.582 34.1709H26.6445C26.599 33.8389 26.5143 33.554 26.3906 33.3164C26.2669 33.0755 26.0911 32.89 25.8633 32.7598C25.6354 32.6296 25.3376 32.5645 24.9697 32.5645C24.654 32.5645 24.3757 32.6247 24.1348 32.7451C23.8971 32.8656 23.6969 33.0365 23.5342 33.2578C23.3747 33.4792 23.2542 33.7445 23.1729 34.0537C23.0915 34.363 23.0508 34.7064 23.0508 35.084V35.8018C23.0508 36.1501 23.0866 36.4772 23.1582 36.7832C23.2331 37.0892 23.3454 37.3577 23.4951 37.5889C23.6449 37.82 23.8353 38.0023 24.0664 38.1357C24.2975 38.266 24.571 38.3311 24.8867 38.3311C25.2871 38.3311 25.6061 38.2676 25.8438 38.1406C26.0814 38.0137 26.2604 37.8314 26.3809 37.5938C26.5046 37.3561 26.5924 37.0713 26.6445 36.7393Z" fill="black"/>
<path d="M17.7676 31.8906V39H16.8252V31.8906H17.7676ZM20.7461 35.0889V35.8604H17.5625V35.0889H20.7461ZM21.2295 31.8906V32.6621H17.5625V31.8906H21.2295Z" fill="black"/>
</svg>
