<svg width="50" height="50" viewBox="0 0 50 50" fill="none" xmlns="http://www.w3.org/2000/svg">
<path d="M19.4586 28.9172C14.2038 28.9172 10 24.7133 10 19.4586C10 14.2038 14.2038 10 19.4586 10H30.5414C35.7962 10 40 14.2038 40 19.4586C40 24.7133 35.7962 28.9172 30.5414 28.9172H19.4586ZM30.2548 25.5732C33.6942 25.5732 36.3694 22.8025 36.3694 19.4586C36.3694 16.0191 33.5987 13.3439 30.2548 13.3439H19.7452C16.3057 13.3439 13.6306 16.1146 13.6306 19.4586C13.6306 22.8025 16.4013 25.5732 19.7452 25.5732H30.2548Z" fill="#C74634"/>
<path d="M32.332 38.0211C32.332 37.8883 32.3112 37.7711 32.2695 37.6695C32.2305 37.5653 32.1601 37.4716 32.0586 37.3883C31.9596 37.3049 31.8216 37.2255 31.6445 37.15C31.47 37.0745 31.2487 36.9976 30.9805 36.9195C30.6992 36.8362 30.4453 36.7437 30.2187 36.6422C29.9922 36.538 29.7982 36.4195 29.6367 36.2867C29.4752 36.1539 29.3515 36.0015 29.2656 35.8297C29.1797 35.6578 29.1367 35.4612 29.1367 35.2398C29.1367 35.0185 29.1823 34.814 29.2734 34.6265C29.3646 34.439 29.4948 34.2763 29.664 34.1383C29.8359 33.9976 30.0403 33.8883 30.2773 33.8101C30.5143 33.732 30.7786 33.6929 31.0703 33.6929C31.4974 33.6929 31.8594 33.775 32.1562 33.939C32.4557 34.1005 32.6836 34.3127 32.8398 34.5758C32.9961 34.8362 33.0742 35.1148 33.0742 35.4117H32.3242C32.3242 35.1982 32.2786 35.0094 32.1875 34.8453C32.0963 34.6786 31.9583 34.5484 31.7734 34.4547C31.5885 34.3583 31.3542 34.3101 31.0703 34.3101C30.8021 34.3101 30.5807 34.3505 30.4062 34.4312C30.2318 34.512 30.1015 34.6213 30.0156 34.7594C29.9323 34.8974 29.8906 35.0549 29.8906 35.232C29.8906 35.3518 29.9153 35.4612 29.9648 35.5601C30.0169 35.6565 30.0963 35.7463 30.2031 35.8297C30.3125 35.913 30.4505 35.9898 30.6172 36.0601C30.7864 36.1304 30.9883 36.1982 31.2226 36.2633C31.5456 36.3544 31.8242 36.456 32.0586 36.5679C32.293 36.6799 32.4857 36.8062 32.6367 36.9469C32.7903 37.0849 32.9036 37.2424 32.9765 37.4195C33.0521 37.594 33.0898 37.7919 33.0898 38.0133C33.0898 38.245 33.043 38.4547 32.9492 38.6422C32.8555 38.8297 32.7213 38.9898 32.5469 39.1226C32.3724 39.2554 32.1627 39.3583 31.918 39.4312C31.6758 39.5015 31.4049 39.5367 31.1055 39.5367C30.8424 39.5367 30.5833 39.5002 30.3281 39.4273C30.0755 39.3544 29.845 39.245 29.6367 39.0992C29.431 38.9534 29.2656 38.7737 29.1406 38.5601C29.0182 38.344 28.957 38.094 28.957 37.8101H29.707C29.707 38.0054 29.7448 38.1734 29.8203 38.314C29.8958 38.4521 29.9987 38.5666 30.1289 38.6578C30.2617 38.7489 30.4114 38.8166 30.5781 38.8609C30.7474 38.9026 30.9232 38.9234 31.1055 38.9234C31.3685 38.9234 31.5911 38.887 31.7734 38.814C31.9557 38.7411 32.0937 38.637 32.1875 38.5015C32.2838 38.3661 32.332 38.206 32.332 38.0211Z" fill="black"/>
<path d="M27.5234 37.65H28.2734C28.2344 38.0094 28.1315 38.331 27.9648 38.6148C27.7982 38.8987 27.5625 39.1239 27.2578 39.2906C26.9531 39.4547 26.5729 39.5367 26.1172 39.5367C25.7838 39.5367 25.4805 39.4742 25.207 39.3492C24.9362 39.2242 24.7031 39.0471 24.5078 38.8179C24.3125 38.5862 24.1614 38.3088 24.0547 37.9859C23.9505 37.6604 23.8984 37.2984 23.8984 36.9V36.3336C23.8984 35.9351 23.9505 35.5745 24.0547 35.2515C24.1614 34.926 24.3138 34.6474 24.5117 34.4156C24.7122 34.1838 24.9531 34.0054 25.2344 33.8804C25.5156 33.7554 25.832 33.6929 26.1836 33.6929C26.6133 33.6929 26.9765 33.7737 27.2734 33.9351C27.5703 34.0966 27.8008 34.3206 27.9648 34.607C28.1315 34.8909 28.2344 35.2203 28.2734 35.5953H27.5234C27.487 35.3297 27.4193 35.1018 27.3203 34.9117C27.2213 34.719 27.0807 34.5706 26.8984 34.4664C26.7161 34.3622 26.4778 34.3101 26.1836 34.3101C25.931 34.3101 25.7083 34.3583 25.5156 34.4547C25.3255 34.551 25.1653 34.6877 25.0351 34.8648C24.9075 35.0419 24.8112 35.2541 24.7461 35.5015C24.681 35.7489 24.6484 36.0237 24.6484 36.3258V36.9C24.6484 37.1786 24.6771 37.4403 24.7344 37.6851C24.7943 37.9299 24.8841 38.1448 25.0039 38.3297C25.1237 38.5146 25.276 38.6604 25.4609 38.7672C25.6458 38.8713 25.8646 38.9234 26.1172 38.9234C26.4375 38.9234 26.6927 38.8726 26.8828 38.7711C27.0729 38.6695 27.2161 38.5237 27.3125 38.3336C27.4114 38.1435 27.4818 37.9156 27.5234 37.65Z" fill="black"/>
<path d="M20.3789 39.4586H19.1914L19.1992 38.8453H20.3789C20.7851 38.8453 21.1237 38.7607 21.3945 38.5914C21.6653 38.4195 21.8685 38.1799 22.0039 37.8726C22.1419 37.5627 22.2109 37.2008 22.2109 36.7867V36.439C22.2109 36.1135 22.1719 35.8245 22.0937 35.5719C22.0156 35.3166 21.901 35.1018 21.75 34.9273C21.5989 34.7502 21.414 34.6161 21.1953 34.525C20.9792 34.4338 20.7305 34.3883 20.4492 34.3883H19.168V33.7711H20.4492C20.8216 33.7711 21.1614 33.8336 21.4687 33.9586C21.776 34.081 22.0403 34.2594 22.2617 34.4937C22.4857 34.7255 22.6575 35.0067 22.7773 35.3375C22.8971 35.6656 22.957 36.0354 22.957 36.4469V36.7867C22.957 37.1982 22.8971 37.5692 22.7773 37.9C22.6575 38.2281 22.4844 38.5081 22.2578 38.7398C22.0338 38.9716 21.763 39.15 21.4453 39.275C21.1302 39.3974 20.7747 39.4586 20.3789 39.4586ZM19.5937 33.7711V39.4586H18.8398V33.7711H19.5937Z" fill="black"/>
<path d="M17.4687 33.7711V39.4586H16.7148V33.7711H17.4687Z" fill="black"/>
</svg>
