<svg width="50" height="50" viewBox="0 0 50 50" fill="none" xmlns="http://www.w3.org/2000/svg">
<path d="M23.1763 23.3961L32.1905 14.5347L28.5944 11.0001L24.9984 14.5347L26.7884 16.2937L17.7782 25.1567L21.3702 28.6937L24.9663 25.1567L23.1763 23.3961Z" fill="#F04E23"/>
<path d="M21.3082 11L12 20.0163L15.7116 23.6114L25.0198 14.5952L21.3082 11Z" fill="#F04E23"/>
<path d="M34.2884 16.3885L24.9802 25.4048L28.6918 29L38 19.9837L34.2884 16.3885Z" fill="#F04E23"/>
<path d="M7.06836 36.3271H5.92871V35.8672H7.06836C7.28906 35.8672 7.46777 35.832 7.60449 35.7617C7.74121 35.6914 7.84082 35.5938 7.90332 35.4688C7.96777 35.3438 8 35.2012 8 35.041C8 34.8945 7.96777 34.7568 7.90332 34.6279C7.84082 34.499 7.74121 34.3955 7.60449 34.3174C7.46777 34.2373 7.28906 34.1973 7.06836 34.1973H6.06055V38H5.49512V33.7344H7.06836C7.39062 33.7344 7.66309 33.79 7.88574 33.9014C8.1084 34.0127 8.27734 34.167 8.39258 34.3643C8.50781 34.5596 8.56543 34.7832 8.56543 35.0352C8.56543 35.3086 8.50781 35.542 8.39258 35.7354C8.27734 35.9287 8.1084 36.0762 7.88574 36.1777C7.66309 36.2773 7.39062 36.3271 7.06836 36.3271Z" fill="#1C1D1F"/>
<path d="M9.74023 35.3281V38H9.19824V34.8301H9.72559L9.74023 35.3281ZM10.7305 34.8125L10.7275 35.3164C10.6826 35.3066 10.6396 35.3008 10.5986 35.2988C10.5596 35.2949 10.5146 35.293 10.4639 35.293C10.3389 35.293 10.2285 35.3125 10.1328 35.3516C10.0371 35.3906 9.95605 35.4453 9.88965 35.5156C9.82324 35.5859 9.77051 35.6699 9.73145 35.7676C9.69434 35.8633 9.66992 35.9688 9.6582 36.084L9.50586 36.1719C9.50586 35.9805 9.52441 35.8008 9.56152 35.6328C9.60059 35.4648 9.66016 35.3164 9.74023 35.1875C9.82031 35.0566 9.92188 34.9551 10.0449 34.8828C10.1699 34.8086 10.3184 34.7715 10.4902 34.7715C10.5293 34.7715 10.5742 34.7764 10.625 34.7861C10.6758 34.7939 10.7109 34.8027 10.7305 34.8125Z" fill="#1C1D1F"/>
<path d="M11.8203 34.8301V38H11.2754V34.8301H11.8203ZM11.2344 33.9893C11.2344 33.9014 11.2607 33.8271 11.3135 33.7666C11.3682 33.7061 11.4482 33.6758 11.5537 33.6758C11.6572 33.6758 11.7363 33.7061 11.791 33.7666C11.8477 33.8271 11.876 33.9014 11.876 33.9893C11.876 34.0732 11.8477 34.1455 11.791 34.2061C11.7363 34.2646 11.6572 34.2939 11.5537 34.2939C11.4482 34.2939 11.3682 34.2646 11.3135 34.2061C11.2607 34.1455 11.2344 34.0732 11.2344 33.9893Z" fill="#1C1D1F"/>
<path d="M14.5361 37.1592C14.5361 37.0811 14.5186 37.0088 14.4834 36.9424C14.4502 36.874 14.3809 36.8125 14.2754 36.7578C14.1719 36.7012 14.0156 36.6523 13.8066 36.6113C13.6309 36.5742 13.4717 36.5303 13.3291 36.4795C13.1885 36.4287 13.0684 36.3672 12.9688 36.2949C12.8711 36.2227 12.7959 36.1377 12.7432 36.04C12.6904 35.9424 12.6641 35.8281 12.6641 35.6973C12.6641 35.5723 12.6914 35.4541 12.7461 35.3428C12.8027 35.2314 12.8818 35.1328 12.9834 35.0469C13.0869 34.9609 13.2109 34.8936 13.3555 34.8447C13.5 34.7959 13.6611 34.7715 13.8389 34.7715C14.0928 34.7715 14.3096 34.8164 14.4893 34.9062C14.6689 34.9961 14.8066 35.1162 14.9023 35.2666C14.998 35.415 15.0459 35.5801 15.0459 35.7617H14.5039C14.5039 35.6738 14.4775 35.5889 14.4248 35.5068C14.374 35.4229 14.2988 35.3535 14.1992 35.2988C14.1016 35.2441 13.9814 35.2168 13.8389 35.2168C13.6885 35.2168 13.5664 35.2402 13.4727 35.2871C13.3809 35.332 13.3135 35.3896 13.2705 35.46C13.2295 35.5303 13.209 35.6045 13.209 35.6826C13.209 35.7412 13.2188 35.7939 13.2383 35.8408C13.2598 35.8857 13.2969 35.9277 13.3496 35.9668C13.4023 36.0039 13.4766 36.0391 13.5723 36.0723C13.668 36.1055 13.79 36.1387 13.9385 36.1719C14.1982 36.2305 14.4121 36.3008 14.5801 36.3828C14.748 36.4648 14.873 36.5654 14.9551 36.6846C15.0371 36.8037 15.0781 36.9482 15.0781 37.1182C15.0781 37.2568 15.0488 37.3838 14.9902 37.499C14.9336 37.6143 14.8506 37.7139 14.7412 37.7979C14.6338 37.8799 14.5049 37.9443 14.3545 37.9912C14.2061 38.0361 14.0391 38.0586 13.8535 38.0586C13.5742 38.0586 13.3379 38.0088 13.1445 37.9092C12.9512 37.8096 12.8047 37.6807 12.7051 37.5225C12.6055 37.3643 12.5557 37.1973 12.5557 37.0215H13.1006C13.1084 37.1699 13.1514 37.2881 13.2295 37.376C13.3076 37.4619 13.4033 37.5234 13.5166 37.5605C13.6299 37.5957 13.7422 37.6133 13.8535 37.6133C14.002 37.6133 14.126 37.5938 14.2256 37.5547C14.3271 37.5156 14.4043 37.4619 14.457 37.3936C14.5098 37.3252 14.5361 37.2471 14.5361 37.1592Z" fill="#1C1D1F"/>
<path d="M16.3291 35.46V38H15.7842V34.8301H16.2998L16.3291 35.46ZM16.2178 36.2949L15.9658 36.2861C15.9678 36.0693 15.9961 35.8691 16.0508 35.6855C16.1055 35.5 16.1865 35.3389 16.2939 35.2021C16.4014 35.0654 16.5352 34.96 16.6953 34.8857C16.8555 34.8096 17.041 34.7715 17.252 34.7715C17.4004 34.7715 17.5371 34.793 17.6621 34.8359C17.7871 34.877 17.8955 34.9424 17.9873 35.0322C18.0791 35.1221 18.1504 35.2373 18.2012 35.3779C18.252 35.5186 18.2773 35.6885 18.2773 35.8877V38H17.7354V35.9141C17.7354 35.748 17.707 35.6152 17.6504 35.5156C17.5957 35.416 17.5176 35.3438 17.416 35.2988C17.3145 35.252 17.1953 35.2285 17.0586 35.2285C16.8984 35.2285 16.7646 35.2568 16.6572 35.3135C16.5498 35.3701 16.4639 35.4482 16.3994 35.5479C16.335 35.6475 16.2881 35.7617 16.2588 35.8906C16.2314 36.0176 16.2178 36.1523 16.2178 36.2949ZM18.2715 35.9961L17.9082 36.1074C17.9102 35.9336 17.9385 35.7666 17.9932 35.6064C18.0498 35.4463 18.1309 35.3037 18.2363 35.1787C18.3438 35.0537 18.4756 34.9551 18.6318 34.8828C18.7881 34.8086 18.9668 34.7715 19.168 34.7715C19.3379 34.7715 19.4883 34.7939 19.6191 34.8389C19.752 34.8838 19.8633 34.9531 19.9531 35.0469C20.0449 35.1387 20.1143 35.2568 20.1611 35.4014C20.208 35.5459 20.2314 35.7178 20.2314 35.917V38H19.6865V35.9111C19.6865 35.7334 19.6582 35.5957 19.6016 35.498C19.5469 35.3984 19.4688 35.3291 19.3672 35.29C19.2676 35.249 19.1484 35.2285 19.0098 35.2285C18.8906 35.2285 18.7852 35.249 18.6934 35.29C18.6016 35.3311 18.5244 35.3877 18.4619 35.46C18.3994 35.5303 18.3516 35.6113 18.3184 35.7031C18.2871 35.7949 18.2715 35.8926 18.2715 35.9961Z" fill="#1C1D1F"/>
<path d="M22.9209 37.458V35.8262C22.9209 35.7012 22.8955 35.5928 22.8447 35.501C22.7959 35.4072 22.7217 35.335 22.6221 35.2842C22.5225 35.2334 22.3994 35.208 22.2529 35.208C22.1162 35.208 21.9961 35.2314 21.8926 35.2783C21.791 35.3252 21.7109 35.3867 21.6523 35.4629C21.5957 35.5391 21.5674 35.6211 21.5674 35.709H21.0254C21.0254 35.5957 21.0547 35.4834 21.1133 35.3721C21.1719 35.2607 21.2559 35.1602 21.3652 35.0703C21.4766 34.9785 21.6094 34.9062 21.7637 34.8535C21.9199 34.7988 22.0938 34.7715 22.2852 34.7715C22.5156 34.7715 22.7188 34.8105 22.8945 34.8887C23.0723 34.9668 23.2109 35.085 23.3105 35.2432C23.4121 35.3994 23.4629 35.5957 23.4629 35.832V37.3086C23.4629 37.4141 23.4717 37.5264 23.4893 37.6455C23.5088 37.7646 23.5371 37.8672 23.5742 37.9531V38H23.0088C22.9814 37.9375 22.96 37.8545 22.9443 37.751C22.9287 37.6455 22.9209 37.5479 22.9209 37.458ZM23.0146 36.0781L23.0205 36.459H22.4727C22.3184 36.459 22.1807 36.4717 22.0596 36.4971C21.9385 36.5205 21.8369 36.5566 21.7549 36.6055C21.6729 36.6543 21.6104 36.7158 21.5674 36.79C21.5244 36.8623 21.5029 36.9473 21.5029 37.0449C21.5029 37.1445 21.5254 37.2354 21.5703 37.3174C21.6152 37.3994 21.6826 37.4648 21.7725 37.5137C21.8643 37.5605 21.9766 37.584 22.1094 37.584C22.2754 37.584 22.4219 37.5488 22.5488 37.4785C22.6758 37.4082 22.7764 37.3223 22.8506 37.2207C22.9268 37.1191 22.9678 37.0205 22.9736 36.9248L23.2051 37.1855C23.1914 37.2676 23.1543 37.3584 23.0938 37.458C23.0332 37.5576 22.9521 37.6533 22.8506 37.7451C22.751 37.835 22.6318 37.9102 22.4932 37.9707C22.3564 38.0293 22.2021 38.0586 22.0303 38.0586C21.8154 38.0586 21.627 38.0166 21.4648 37.9326C21.3047 37.8486 21.1797 37.7363 21.0898 37.5957C21.002 37.4531 20.958 37.2939 20.958 37.1182C20.958 36.9482 20.9912 36.7988 21.0576 36.6699C21.124 36.5391 21.2197 36.4307 21.3447 36.3447C21.4697 36.2568 21.6201 36.1904 21.7959 36.1455C21.9717 36.1006 22.168 36.0781 22.3848 36.0781H23.0146Z" fill="#1C1D1F"/>
<path d="M27.4648 34.1123L26.0527 38H25.4756L27.1016 33.7344H27.4736L27.4648 34.1123ZM28.6484 38L27.2334 34.1123L27.2246 33.7344H27.5967L29.2285 38H28.6484ZM28.5752 36.4209V36.8838H26.1787V36.4209H28.5752Z" fill="#1C1D1F"/>
<path d="M30.9863 37.6133C31.1152 37.6133 31.2344 37.5869 31.3438 37.5342C31.4531 37.4814 31.543 37.4092 31.6133 37.3174C31.6836 37.2236 31.7236 37.1172 31.7334 36.998H32.249C32.2393 37.1855 32.1758 37.3604 32.0586 37.5225C31.9434 37.6826 31.792 37.8125 31.6045 37.9121C31.417 38.0098 31.2109 38.0586 30.9863 38.0586C30.748 38.0586 30.54 38.0166 30.3623 37.9326C30.1865 37.8486 30.04 37.7334 29.9229 37.5869C29.8076 37.4404 29.7207 37.2725 29.6621 37.083C29.6055 36.8916 29.5771 36.6895 29.5771 36.4766V36.3535C29.5771 36.1406 29.6055 35.9395 29.6621 35.75C29.7207 35.5586 29.8076 35.3896 29.9229 35.2432C30.04 35.0967 30.1865 34.9814 30.3623 34.8975C30.54 34.8135 30.748 34.7715 30.9863 34.7715C31.2344 34.7715 31.4512 34.8223 31.6367 34.9238C31.8223 35.0234 31.9678 35.1602 32.0732 35.334C32.1807 35.5059 32.2393 35.7012 32.249 35.9199H31.7334C31.7236 35.7891 31.6865 35.6709 31.6221 35.5654C31.5596 35.46 31.4736 35.376 31.3643 35.3135C31.2568 35.249 31.1309 35.2168 30.9863 35.2168C30.8203 35.2168 30.6807 35.25 30.5674 35.3164C30.4561 35.3809 30.3672 35.4688 30.3008 35.5801C30.2363 35.6895 30.1895 35.8115 30.1602 35.9463C30.1328 36.0791 30.1191 36.2148 30.1191 36.3535V36.4766C30.1191 36.6152 30.1328 36.752 30.1602 36.8867C30.1875 37.0215 30.2334 37.1436 30.2979 37.2529C30.3643 37.3623 30.4531 37.4502 30.5645 37.5166C30.6777 37.5811 30.8184 37.6133 30.9863 37.6133Z" fill="#1C1D1F"/>
<path d="M34.127 37.6133C34.2559 37.6133 34.375 37.5869 34.4844 37.5342C34.5938 37.4814 34.6836 37.4092 34.7539 37.3174C34.8242 37.2236 34.8643 37.1172 34.874 36.998H35.3896C35.3799 37.1855 35.3164 37.3604 35.1992 37.5225C35.084 37.6826 34.9326 37.8125 34.7451 37.9121C34.5576 38.0098 34.3516 38.0586 34.127 38.0586C33.8887 38.0586 33.6807 38.0166 33.5029 37.9326C33.3271 37.8486 33.1807 37.7334 33.0635 37.5869C32.9482 37.4404 32.8613 37.2725 32.8027 37.083C32.7461 36.8916 32.7178 36.6895 32.7178 36.4766V36.3535C32.7178 36.1406 32.7461 35.9395 32.8027 35.75C32.8613 35.5586 32.9482 35.3896 33.0635 35.2432C33.1807 35.0967 33.3271 34.9814 33.5029 34.8975C33.6807 34.8135 33.8887 34.7715 34.127 34.7715C34.375 34.7715 34.5918 34.8223 34.7773 34.9238C34.9629 35.0234 35.1084 35.1602 35.2139 35.334C35.3213 35.5059 35.3799 35.7012 35.3896 35.9199H34.874C34.8643 35.7891 34.8271 35.6709 34.7627 35.5654C34.7002 35.46 34.6143 35.376 34.5049 35.3135C34.3975 35.249 34.2715 35.2168 34.127 35.2168C33.9609 35.2168 33.8213 35.25 33.708 35.3164C33.5967 35.3809 33.5078 35.4688 33.4414 35.5801C33.377 35.6895 33.3301 35.8115 33.3008 35.9463C33.2734 36.0791 33.2598 36.2148 33.2598 36.3535V36.4766C33.2598 36.6152 33.2734 36.752 33.3008 36.8867C33.3281 37.0215 33.374 37.1436 33.4385 37.2529C33.5049 37.3623 33.5938 37.4502 33.7051 37.5166C33.8184 37.5811 33.959 37.6133 34.127 37.6133Z" fill="#1C1D1F"/>
<path d="M37.3145 38.0586C37.0938 38.0586 36.8936 38.0215 36.7139 37.9473C36.5361 37.8711 36.3828 37.7646 36.2539 37.6279C36.127 37.4912 36.0293 37.3291 35.9609 37.1416C35.8926 36.9541 35.8584 36.749 35.8584 36.5264V36.4033C35.8584 36.1455 35.8965 35.916 35.9727 35.7148C36.0488 35.5117 36.1523 35.3398 36.2832 35.1992C36.4141 35.0586 36.5625 34.9521 36.7285 34.8799C36.8945 34.8076 37.0664 34.7715 37.2441 34.7715C37.4707 34.7715 37.666 34.8105 37.8301 34.8887C37.9961 34.9668 38.1318 35.0762 38.2373 35.2168C38.3428 35.3555 38.4209 35.5195 38.4717 35.709C38.5225 35.8965 38.5479 36.1016 38.5479 36.3242V36.5674H36.1807V36.125H38.0059V36.084C37.998 35.9434 37.9688 35.8066 37.918 35.6738C37.8691 35.541 37.791 35.4316 37.6836 35.3457C37.5762 35.2598 37.4297 35.2168 37.2441 35.2168C37.1211 35.2168 37.0078 35.2432 36.9043 35.2959C36.8008 35.3467 36.7119 35.4229 36.6377 35.5244C36.5635 35.626 36.5059 35.75 36.4648 35.8965C36.4238 36.043 36.4033 36.2119 36.4033 36.4033V36.5264C36.4033 36.6768 36.4238 36.8184 36.4648 36.9512C36.5078 37.082 36.5693 37.1973 36.6494 37.2969C36.7314 37.3965 36.8301 37.4746 36.9453 37.5312C37.0625 37.5879 37.1953 37.6162 37.3438 37.6162C37.5352 37.6162 37.6973 37.5771 37.8301 37.499C37.9629 37.4209 38.0791 37.3164 38.1787 37.1855L38.5068 37.4463C38.4385 37.5498 38.3516 37.6484 38.2461 37.7422C38.1406 37.8359 38.0107 37.9121 37.8564 37.9707C37.7041 38.0293 37.5234 38.0586 37.3145 38.0586Z" fill="#1C1D1F"/>
<path d="M41.0264 37.1592C41.0264 37.0811 41.0088 37.0088 40.9736 36.9424C40.9404 36.874 40.8711 36.8125 40.7656 36.7578C40.6621 36.7012 40.5059 36.6523 40.2969 36.6113C40.1211 36.5742 39.9619 36.5303 39.8193 36.4795C39.6787 36.4287 39.5586 36.3672 39.459 36.2949C39.3613 36.2227 39.2861 36.1377 39.2334 36.04C39.1807 35.9424 39.1543 35.8281 39.1543 35.6973C39.1543 35.5723 39.1816 35.4541 39.2363 35.3428C39.293 35.2314 39.3721 35.1328 39.4736 35.0469C39.5771 34.9609 39.7012 34.8936 39.8457 34.8447C39.9902 34.7959 40.1514 34.7715 40.3291 34.7715C40.583 34.7715 40.7998 34.8164 40.9795 34.9062C41.1592 34.9961 41.2969 35.1162 41.3926 35.2666C41.4883 35.415 41.5361 35.5801 41.5361 35.7617H40.9941C40.9941 35.6738 40.9678 35.5889 40.915 35.5068C40.8643 35.4229 40.7891 35.3535 40.6895 35.2988C40.5918 35.2441 40.4717 35.2168 40.3291 35.2168C40.1787 35.2168 40.0566 35.2402 39.9629 35.2871C39.8711 35.332 39.8037 35.3896 39.7607 35.46C39.7197 35.5303 39.6992 35.6045 39.6992 35.6826C39.6992 35.7412 39.709 35.7939 39.7285 35.8408C39.75 35.8857 39.7871 35.9277 39.8398 35.9668C39.8926 36.0039 39.9668 36.0391 40.0625 36.0723C40.1582 36.1055 40.2803 36.1387 40.4287 36.1719C40.6885 36.2305 40.9023 36.3008 41.0703 36.3828C41.2383 36.4648 41.3633 36.5654 41.4453 36.6846C41.5273 36.8037 41.5684 36.9482 41.5684 37.1182C41.5684 37.2568 41.5391 37.3838 41.4805 37.499C41.4238 37.6143 41.3408 37.7139 41.2314 37.7979C41.124 37.8799 40.9951 37.9443 40.8447 37.9912C40.6963 38.0361 40.5293 38.0586 40.3438 38.0586C40.0645 38.0586 39.8281 38.0088 39.6348 37.9092C39.4414 37.8096 39.2949 37.6807 39.1953 37.5225C39.0957 37.3643 39.0459 37.1973 39.0459 37.0215H39.5908C39.5986 37.1699 39.6416 37.2881 39.7197 37.376C39.7979 37.4619 39.8936 37.5234 40.0068 37.5605C40.1201 37.5957 40.2324 37.6133 40.3438 37.6133C40.4922 37.6133 40.6162 37.5938 40.7158 37.5547C40.8174 37.5156 40.8945 37.4619 40.9473 37.3936C41 37.3252 41.0264 37.2471 41.0264 37.1592Z" fill="#1C1D1F"/>
<path d="M44.126 37.1592C44.126 37.0811 44.1084 37.0088 44.0732 36.9424C44.04 36.874 43.9707 36.8125 43.8652 36.7578C43.7617 36.7012 43.6055 36.6523 43.3965 36.6113C43.2207 36.5742 43.0615 36.5303 42.9189 36.4795C42.7783 36.4287 42.6582 36.3672 42.5586 36.2949C42.4609 36.2227 42.3857 36.1377 42.333 36.04C42.2803 35.9424 42.2539 35.8281 42.2539 35.6973C42.2539 35.5723 42.2812 35.4541 42.3359 35.3428C42.3926 35.2314 42.4717 35.1328 42.5732 35.0469C42.6768 34.9609 42.8008 34.8936 42.9453 34.8447C43.0898 34.7959 43.251 34.7715 43.4287 34.7715C43.6826 34.7715 43.8994 34.8164 44.0791 34.9062C44.2588 34.9961 44.3965 35.1162 44.4922 35.2666C44.5879 35.415 44.6357 35.5801 44.6357 35.7617H44.0938C44.0938 35.6738 44.0674 35.5889 44.0146 35.5068C43.9639 35.4229 43.8887 35.3535 43.7891 35.2988C43.6914 35.2441 43.5713 35.2168 43.4287 35.2168C43.2783 35.2168 43.1562 35.2402 43.0625 35.2871C42.9707 35.332 42.9033 35.3896 42.8604 35.46C42.8193 35.5303 42.7988 35.6045 42.7988 35.6826C42.7988 35.7412 42.8086 35.7939 42.8281 35.8408C42.8496 35.8857 42.8867 35.9277 42.9395 35.9668C42.9922 36.0039 43.0664 36.0391 43.1621 36.0723C43.2578 36.1055 43.3799 36.1387 43.5283 36.1719C43.7881 36.2305 44.002 36.3008 44.1699 36.3828C44.3379 36.4648 44.4629 36.5654 44.5449 36.6846C44.627 36.8037 44.668 36.9482 44.668 37.1182C44.668 37.2568 44.6387 37.3838 44.5801 37.499C44.5234 37.6143 44.4404 37.7139 44.3311 37.7979C44.2236 37.8799 44.0947 37.9443 43.9443 37.9912C43.7959 38.0361 43.6289 38.0586 43.4434 38.0586C43.1641 38.0586 42.9277 38.0088 42.7344 37.9092C42.541 37.8096 42.3945 37.6807 42.2949 37.5225C42.1953 37.3643 42.1455 37.1973 42.1455 37.0215H42.6904C42.6982 37.1699 42.7412 37.2881 42.8193 37.376C42.8975 37.4619 42.9932 37.5234 43.1064 37.5605C43.2197 37.5957 43.332 37.6133 43.4434 37.6133C43.5918 37.6133 43.7158 37.5938 43.8154 37.5547C43.917 37.5156 43.9941 37.4619 44.0469 37.3936C44.0996 37.3252 44.126 37.2471 44.126 37.1592Z" fill="#1C1D1F"/>
</svg>
