<svg width="50" height="50" viewBox="0 0 50 50" fill="none" xmlns="http://www.w3.org/2000/svg">
<path d="M17.6045 19.7747C17.6045 25.0588 21.981 29.3328 27.392 29.3328V10.2166C32.8825 10.2166 37.259 14.4906 37.259 19.7747C37.259 25.0588 32.8825 29.3328 27.4715 29.3328V35.5494H27.1532C18.2411 35.5494 11 28.478 11 19.7747C11 11.0714 18.2411 4 27.0737 4H27.392V10.2166C22.0606 10.2166 17.6045 14.4906 17.6045 19.7747Z" fill="#292627"/>
<path fill-rule="evenodd" clip-rule="evenodd" d="M27.0926 45.3943C27.4986 44.9908 27.7015 44.4371 27.7015 43.7334C27.7015 43.0297 27.4986 42.4761 27.0926 42.0725C26.6867 41.6671 26.1303 41.4643 25.4236 41.4643C24.7147 41.4643 24.1584 41.668 23.7545 42.0755C23.3507 42.4809 23.1488 43.0336 23.1488 43.7334C23.1488 44.4274 23.3507 44.9791 23.7545 45.3884C24.1584 45.7959 24.7147 45.9996 25.4236 45.9996C26.1303 45.9996 26.6867 45.7978 27.0926 45.3943ZM26.3953 43.0696C26.4542 43.2509 26.4837 43.4712 26.4837 43.7305C26.4837 44.0034 26.4563 44.2247 26.4016 44.3942C26.347 44.5619 26.2691 44.7091 26.1682 44.8358C26.0735 44.9527 25.961 45.0395 25.8306 45.096C25.7002 45.1506 25.5656 45.1779 25.4267 45.1779C25.29 45.1779 25.1575 45.1526 25.0292 45.1019C24.9009 45.0492 24.7862 44.9625 24.6853 44.8416C24.5864 44.7227 24.5086 44.5755 24.4518 44.4001C24.395 44.2227 24.3666 44.0005 24.3666 43.7334C24.3666 43.4741 24.3961 43.2509 24.455 43.0638C24.516 42.8767 24.5948 42.7266 24.6916 42.6135C24.801 42.4907 24.9146 42.4059 25.0323 42.3591C25.1501 42.3104 25.2816 42.286 25.4267 42.286C25.5634 42.286 25.6949 42.3123 25.8211 42.3649C25.9494 42.4156 26.0641 42.5004 26.165 42.6193C26.2618 42.7363 26.3385 42.8864 26.3953 43.0696Z" fill="#292627"/>
<path d="M19.8101 45.9879C19.4504 45.9879 19.1338 45.9557 18.8604 45.8914C18.5891 45.827 18.3366 45.7471 18.1032 45.6516V44.6165H18.2104C18.446 44.8017 18.7058 44.944 18.9897 45.0434C19.2737 45.1428 19.5492 45.1925 19.8164 45.1925C19.8837 45.1925 19.972 45.1857 20.0814 45.1721C20.1929 45.1584 20.2823 45.137 20.3496 45.1077C20.4316 45.0746 20.501 45.0288 20.5578 44.9703C20.6146 44.9099 20.643 44.8309 20.643 44.7334C20.643 44.6243 20.5967 44.5356 20.5042 44.4674C20.4116 44.3991 20.3012 44.3494 20.1729 44.3182C20.013 44.2792 19.8416 44.2422 19.6586 44.2071C19.4777 44.172 19.3084 44.1291 19.1507 44.0785C18.7868 43.9595 18.5259 43.7997 18.3682 43.5989C18.2104 43.3981 18.1316 43.1466 18.1316 42.8445C18.1316 42.4371 18.3177 42.1076 18.69 41.8562C19.0623 41.6027 19.5272 41.476 20.0846 41.476C20.3643 41.476 20.642 41.5023 20.9175 41.555C21.1951 41.6076 21.4433 41.6788 21.6621 41.7684V42.7626H21.558C21.3834 42.6242 21.1699 42.5073 20.9175 42.4117C20.6672 42.3162 20.4095 42.2685 20.1445 42.2685C20.0414 42.2685 19.9489 42.2753 19.8669 42.2889C19.7848 42.3026 19.6986 42.3289 19.6081 42.3679C19.5345 42.3991 19.4704 42.4458 19.4157 42.5082C19.3631 42.5687 19.3368 42.6369 19.3368 42.7129C19.3368 42.824 19.3789 42.9127 19.463 42.979C19.5492 43.0433 19.7144 43.1018 19.9584 43.1544C20.1161 43.1876 20.2675 43.2197 20.4127 43.2509C20.5599 43.2821 20.7166 43.325 20.8828 43.3796C21.2088 43.4888 21.4507 43.6359 21.6085 43.8211C21.7683 44.0044 21.8482 44.2471 21.8482 44.5492C21.8482 44.982 21.6642 45.33 21.2961 45.5931C20.9301 45.8563 20.4348 45.9879 19.8101 45.9879Z" fill="#292627"/>
<path d="M16.9415 45.9089H15.5722L14.6698 44.52L13.7485 45.9089H12.4423L13.9662 43.7159L12.5023 41.555H13.8684L14.714 42.8679L15.5816 41.555H16.891L15.4176 43.672L16.9415 45.9089Z" fill="#292627"/>
<path fill-rule="evenodd" clip-rule="evenodd" d="M28.8664 45.9089L30.4534 41.555H31.7407L33.3277 45.9089H32.113L31.8195 45.02H30.343L30.0495 45.9089H28.8664ZM31.5608 44.2305L31.0813 42.7948L30.6017 44.2305H31.5608Z" fill="#292627"/>
<path fill-rule="evenodd" clip-rule="evenodd" d="M37.6697 45.9089H39.1084L37.5277 44.058C37.799 43.9352 38.0157 43.7705 38.1777 43.5638C38.3396 43.3552 38.4206 43.0843 38.4206 42.7509C38.4206 42.515 38.3712 42.3211 38.2723 42.169C38.1734 42.015 38.0399 41.8883 37.8716 41.7889C37.7075 41.6934 37.5288 41.631 37.3352 41.6018C37.1417 41.5706 36.9146 41.555 36.6537 41.555H34.7639V45.9089H35.9375V44.3124H36.3603L37.6697 45.9089ZM37.1396 42.6076C37.1859 42.6856 37.209 42.7792 37.209 42.8884C37.209 43.0112 37.1901 43.1106 37.1523 43.1866C37.1165 43.2626 37.0608 43.3279 36.985 43.3825C36.9051 43.443 36.8073 43.4829 36.6916 43.5024C36.578 43.52 36.4392 43.5287 36.2751 43.5287H35.9375V42.3562H36.3319C36.4665 42.3562 36.5791 42.3601 36.6695 42.3679C36.76 42.3757 36.842 42.3942 36.9156 42.4234C37.0208 42.4663 37.0955 42.5277 37.1396 42.6076Z" fill="#292627"/>
</svg>
