<svg width="50" height="50" viewBox="0 0 50 50" fill="none" xmlns="http://www.w3.org/2000/svg">
<path d="M35 8.5H15V28.5H35V8.5Z" fill="#BC1F27"/>
<path d="M25.4512 12.0845C24.6994 11.6349 24.0048 11.3898 21.7246 11.3898H18.1939V25.594H20.8991V20.3633H22.3783C23.8658 20.3633 24.446 20.1998 25.0591 19.8893C26.522 19.1536 27.3719 17.6419 27.3719 15.7622C27.3801 14.1276 26.7017 12.82 25.4512 12.0845ZM24.1028 17.2985C23.735 17.8954 23.408 18.0341 22.3048 18.0341H20.8991V13.7027H22.6153C23.7514 13.7027 24.4297 14.5036 24.4297 15.8276C24.4296 16.4977 24.3316 16.9144 24.1028 17.2985Z" fill="white"/>
<path d="M16.1567 33V41H15V33H16.1567Z" fill="black"/>
<path d="M20.6218 41H18.7998L18.8118 40.1374H20.6218C21.2451 40.1374 21.7646 40.0183 22.1801 39.7802C22.5956 39.5385 22.9073 39.2015 23.1151 38.7692C23.3268 38.3333 23.4327 37.8242 23.4327 37.2418V36.7527C23.4327 36.2949 23.3728 35.8883 23.2529 35.533C23.1331 35.174 22.9572 34.8718 22.7255 34.6264C22.4938 34.3773 22.2101 34.1886 21.8744 34.0604C21.5428 33.9322 21.1612 33.8681 20.7297 33.8681H18.7639V33H20.7297C21.3011 33 21.8225 33.0879 22.294 33.2637C22.7655 33.4359 23.171 33.6868 23.5106 34.0165C23.8543 34.3425 24.118 34.7381 24.3018 35.2033C24.4856 35.6648 24.5775 36.185 24.5775 36.7637V37.2418C24.5775 37.8205 24.4856 38.3425 24.3018 38.8077C24.118 39.2692 23.8523 39.663 23.5046 39.989C23.161 40.315 22.7455 40.5659 22.258 40.7418C21.7745 40.9139 21.2291 41 20.6218 41ZM19.4171 33V41H18.2604V33H19.4171Z" fill="black"/>
<path d="M26.6812 33H27.8019L30.6608 39.522L33.5136 33H34.6404L31.0923 41H30.2173L26.6812 33ZM26.3156 33H27.3045L27.4663 37.8791V41H26.3156V33ZM34.0111 33H35V41H33.8493V37.8791L34.0111 33Z" fill="black"/>
</svg>
