<svg width="50" height="50" viewBox="0 0 50 50" fill="none" xmlns="http://www.w3.org/2000/svg">
<path d="M35 8.5H15V28.5H35V8.5Z" fill="#BC1F27"/>
<path d="M25.4512 12.0845C24.6994 11.6349 24.0048 11.3898 21.7246 11.3898H18.1939V25.594H20.8991V20.3633H22.3783C23.8658 20.3633 24.446 20.1998 25.0591 19.8893C26.522 19.1536 27.3719 17.6419 27.3719 15.7622C27.3801 14.1276 26.7017 12.82 25.4512 12.0845ZM24.1028 17.2985C23.735 17.8954 23.408 18.0341 22.3048 18.0341H20.8991V13.7027H22.6153C23.7514 13.7027 24.4297 14.5036 24.4297 15.8276C24.4296 16.4977 24.3316 16.9144 24.1028 17.2985Z" fill="white"/>
<path d="M17.1172 38.7393H18.0547C18.0059 39.1885 17.8773 39.5905 17.6689 39.9453C17.4606 40.3001 17.166 40.5817 16.7852 40.79C16.4043 40.9951 15.929 41.0977 15.3594 41.0977C14.9427 41.0977 14.5635 41.0195 14.2217 40.8633C13.8831 40.707 13.5918 40.4857 13.3477 40.1992C13.1035 39.9095 12.9147 39.5628 12.7812 39.1592C12.651 38.7523 12.5859 38.2998 12.5859 37.8018V37.0938C12.5859 36.5957 12.651 36.1449 12.7812 35.7412C12.9147 35.3343 13.1051 34.986 13.3525 34.6963C13.6032 34.4066 13.9043 34.1836 14.2559 34.0273C14.6074 33.8711 15.0029 33.793 15.4424 33.793C15.9795 33.793 16.4336 33.8939 16.8047 34.0957C17.1758 34.2975 17.4639 34.5775 17.6689 34.9355C17.8773 35.2904 18.0059 35.7021 18.0547 36.1709H17.1172C17.0716 35.8389 16.987 35.554 16.8633 35.3164C16.7396 35.0755 16.5638 34.89 16.3359 34.7598C16.1081 34.6296 15.8102 34.5645 15.4424 34.5645C15.1266 34.5645 14.8483 34.6247 14.6074 34.7451C14.3698 34.8656 14.1696 35.0365 14.0068 35.2578C13.8473 35.4792 13.7269 35.7445 13.6455 36.0537C13.5641 36.363 13.5234 36.7064 13.5234 37.084V37.8018C13.5234 38.1501 13.5592 38.4772 13.6309 38.7832C13.7057 39.0892 13.818 39.3577 13.9678 39.5889C14.1175 39.82 14.3079 40.0023 14.5391 40.1357C14.7702 40.266 15.0436 40.3311 15.3594 40.3311C15.7598 40.3311 16.0788 40.2676 16.3164 40.1406C16.554 40.0137 16.7331 39.8314 16.8535 39.5938C16.9772 39.3561 17.0651 39.0713 17.1172 38.7393Z" fill="black"/>
<path d="M20.1836 33.5V41H19.2754V33.5H20.1836Z" fill="black"/>
<path d="M21.3945 38.417V38.3047C21.3945 37.9238 21.4499 37.5706 21.5605 37.2451C21.6712 36.9163 21.8307 36.6315 22.0391 36.3906C22.2474 36.1465 22.4997 35.9577 22.7959 35.8242C23.0921 35.6875 23.4242 35.6191 23.792 35.6191C24.1631 35.6191 24.4967 35.6875 24.793 35.8242C25.0924 35.9577 25.3464 36.1465 25.5547 36.3906C25.7663 36.6315 25.9274 36.9163 26.0381 37.2451C26.1488 37.5706 26.2041 37.9238 26.2041 38.3047V38.417C26.2041 38.7979 26.1488 39.151 26.0381 39.4766C25.9274 39.8021 25.7663 40.0869 25.5547 40.3311C25.3464 40.5719 25.0941 40.7607 24.7979 40.8975C24.5049 41.0309 24.1729 41.0977 23.8018 41.0977C23.4307 41.0977 23.097 41.0309 22.8008 40.8975C22.5046 40.7607 22.2507 40.5719 22.0391 40.3311C21.8307 40.0869 21.6712 39.8021 21.5605 39.4766C21.4499 39.151 21.3945 38.7979 21.3945 38.417ZM22.2979 38.3047V38.417C22.2979 38.6807 22.3288 38.9297 22.3906 39.1641C22.4525 39.3952 22.5452 39.6003 22.6689 39.7793C22.7959 39.9583 22.9538 40.0999 23.1426 40.2041C23.3314 40.305 23.5511 40.3555 23.8018 40.3555C24.0492 40.3555 24.2656 40.305 24.4512 40.2041C24.64 40.0999 24.7962 39.9583 24.9199 39.7793C25.0436 39.6003 25.1364 39.3952 25.1982 39.1641C25.2633 38.9297 25.2959 38.6807 25.2959 38.417V38.3047C25.2959 38.0443 25.2633 37.7985 25.1982 37.5674C25.1364 37.333 25.042 37.1263 24.915 36.9473C24.7913 36.765 24.6351 36.6217 24.4463 36.5176C24.2607 36.4134 24.0426 36.3613 23.792 36.3613C23.5446 36.3613 23.3265 36.4134 23.1377 36.5176C22.9521 36.6217 22.7959 36.765 22.6689 36.9473C22.5452 37.1263 22.4525 37.333 22.3906 37.5674C22.3288 37.7985 22.2979 38.0443 22.2979 38.3047Z" fill="black"/>
<path d="M30.5693 39.7793V35.7168H31.4775V41H30.6133L30.5693 39.7793ZM30.7402 38.666L31.1162 38.6562C31.1162 39.0078 31.0788 39.3333 31.0039 39.6328C30.9323 39.929 30.8151 40.1862 30.6523 40.4043C30.4896 40.6224 30.2764 40.7933 30.0127 40.917C29.749 41.0374 29.4284 41.0977 29.0508 41.0977C28.7936 41.0977 28.5576 41.0602 28.3428 40.9854C28.1312 40.9105 27.9489 40.7949 27.7959 40.6387C27.6429 40.4824 27.5241 40.279 27.4395 40.0283C27.3581 39.7777 27.3174 39.4766 27.3174 39.125V35.7168H28.2207V39.1348C28.2207 39.3724 28.2467 39.5693 28.2988 39.7256C28.3542 39.8786 28.4274 40.0007 28.5186 40.0918C28.613 40.1797 28.7171 40.2415 28.8311 40.2773C28.9482 40.3132 29.0687 40.3311 29.1924 40.3311C29.5765 40.3311 29.8809 40.2578 30.1055 40.1113C30.3301 39.9616 30.4912 39.7614 30.5889 39.5107C30.6898 39.2568 30.7402 38.9753 30.7402 38.666Z" fill="black"/>
<path d="M36.1846 39.9746V33.5H37.0928V41H36.2627L36.1846 39.9746ZM32.6299 38.417V38.3145C32.6299 37.9108 32.6787 37.5446 32.7764 37.2158C32.8773 36.8838 33.0189 36.599 33.2012 36.3613C33.3867 36.1237 33.6064 35.9414 33.8604 35.8145C34.1175 35.6842 34.404 35.6191 34.7197 35.6191C35.0518 35.6191 35.3415 35.6777 35.5889 35.7949C35.8395 35.9089 36.0511 36.0765 36.2236 36.2979C36.3994 36.516 36.5378 36.7796 36.6387 37.0889C36.7396 37.3981 36.8096 37.748 36.8486 38.1387V38.5879C36.8128 38.9753 36.7428 39.3236 36.6387 39.6328C36.5378 39.9421 36.3994 40.2057 36.2236 40.4238C36.0511 40.6419 35.8395 40.8096 35.5889 40.9268C35.3382 41.0407 35.0452 41.0977 34.71 41.0977C34.4007 41.0977 34.1175 41.0309 33.8604 40.8975C33.6064 40.764 33.3867 40.5768 33.2012 40.3359C33.0189 40.0951 32.8773 39.8118 32.7764 39.4863C32.6787 39.1576 32.6299 38.8011 32.6299 38.417ZM33.5381 38.3145V38.417C33.5381 38.6807 33.5641 38.9281 33.6162 39.1592C33.6715 39.3903 33.7562 39.5938 33.8701 39.7695C33.984 39.9453 34.1289 40.0837 34.3047 40.1846C34.4805 40.2822 34.6904 40.3311 34.9346 40.3311C35.234 40.3311 35.4798 40.2676 35.6719 40.1406C35.8672 40.0137 36.0234 39.846 36.1406 39.6377C36.2578 39.4294 36.349 39.2031 36.4141 38.959V37.7822C36.375 37.6032 36.318 37.4307 36.2432 37.2646C36.1715 37.0954 36.0771 36.9456 35.96 36.8154C35.846 36.682 35.7044 36.5762 35.5352 36.498C35.3691 36.4199 35.1722 36.3809 34.9443 36.3809C34.6969 36.3809 34.4837 36.4329 34.3047 36.5371C34.1289 36.638 33.984 36.778 33.8701 36.957C33.7562 37.1328 33.6715 37.3379 33.6162 37.5723C33.5641 37.8034 33.5381 38.0508 33.5381 38.3145Z" fill="black"/>
</svg>
