<svg width="50" height="50" viewBox="0 0 50 50" fill="none" xmlns="http://www.w3.org/2000/svg">
<path d="M6 25.0036V6H24.9964L6 25.0036Z" fill="#ED9D85"/>
<path d="M6 44V25.0036H24.9964L6 44Z" fill="#F1564E"/>
<path d="M24.9964 6L34.4946 6C35.7425 5.99905 36.9784 6.24403 38.1316 6.72093C39.2848 7.19783 40.3327 7.89731 41.2155 8.77939C42.0982 9.66148 42.7985 10.7089 43.2763 11.8617C43.7541 13.0146 44 14.2503 44 15.4982C44.001 16.7467 43.7557 17.9832 43.2784 19.1369C42.801 20.2906 42.1009 21.3388 41.218 22.2217C40.3352 23.1045 39.2869 23.8047 38.1333 24.282C36.9796 24.7594 35.7431 25.0046 34.4946 25.0036H24.9964V6Z" fill="#FCB643"/>
</svg>
