<svg width="50" height="50" viewBox="0 0 50 50" fill="none" xmlns="http://www.w3.org/2000/svg">
<g clip-path="url(#clip0_9602_92)">
<rect width="50" height="50" fill="#007737"/>
<path d="M0 0H50V50H0V0Z" fill="#007737"/>
<path d="M21.7019 21.5737C21.7019 24.2254 23.0471 27.086 26.0074 27.086C28.2027 27.086 30.4224 25.3721 30.4224 21.5348C30.4224 18.1705 28.6775 15.912 26.0804 15.912C23.9642 15.912 21.7019 17.3986 21.7019 21.5737ZM27.1233 10.9997C32.4311 10.9997 36 15.2035 36 21.4611C36 27.6205 32.2403 31.9205 26.8656 31.9205C24.303 31.9205 22.6616 30.823 21.8034 30.0285C21.8095 30.2169 21.8135 30.4278 21.8135 30.653V39.0054H16.315V16.7515C16.315 16.428 16.2116 16.3256 15.891 16.3256H14V11.4522H18.6139C20.7382 11.4522 21.2819 12.5333 21.3854 13.3667C22.2477 12.4003 24.0352 10.9997 27.1233 10.9997Z" fill="white"/>
</g>
<defs>
<clipPath id="clip0_9602_92">
<rect width="50" height="50" fill="white"/>
</clipPath>
</defs>
</svg>
