<svg width="50" height="50" viewBox="0 0 50 50" fill="none" xmlns="http://www.w3.org/2000/svg">
<path fill-rule="evenodd" clip-rule="evenodd" d="M26.9999 8V33.5056C31.5737 33.342 35.1256 31.4387 37.6155 27.6722C38.9983 25.567 39.719 23.0961 39.6849 20.5776C39.6508 18.0592 38.8634 15.6086 37.4241 13.5417C34.8987 9.95117 31.4054 8.15436 26.9999 8ZM13.862 37.7044L23.4572 41.0001C23.4837 40.8711 23.5028 40.7407 23.5144 40.6095C23.5082 34.152 23.5128 27.6939 23.5282 21.2353C23.5282 20.7675 23.3029 20.6363 22.9262 20.5082C20.7845 19.7822 18.6462 19.0457 16.5082 18.3093C15.8139 18.0701 15.1197 17.831 14.4254 17.5923L11.0602 16.433C11.0531 16.5257 11.0459 16.6066 11.0393 16.6796C11.0259 16.8291 11.0155 16.9456 11.0155 17.0628C11.0146 18.871 11.0147 20.6792 11.0148 22.4874C11.0152 27.0082 11.0155 31.5289 11 36.0496C10.9969 36.5961 11.1914 36.8183 11.6808 36.9619C12.1904 37.109 12.6897 37.2878 13.1893 37.4667C13.4132 37.5469 13.637 37.627 13.862 37.7044Z" fill="#00BCF2"/>
</svg>
