<svg width="50" height="50" viewBox="0 0 50 50" fill="none" xmlns="http://www.w3.org/2000/svg">
<path d="M24.0002 4C12.4026 4 3 13.4016 3 24.9998C3 36.5976 12.4026 46 24.0002 46C35.5978 46 45 36.5976 45 24.9998C45 13.4016 35.5974 4 24.0002 4ZM24.0002 43.3035C20.7005 43.3035 18.0252 41.0992 18.0252 38.3809H29.9752C29.9752 41.0989 27.2999 43.3035 24.0002 43.3035ZM33.869 36.7507H14.1303V33.1715H33.8693L33.869 36.7507ZM33.7982 31.3292H14.1866C14.1214 31.254 14.0547 31.1799 13.9917 31.1035C11.9712 28.6502 11.4954 27.3694 11.0333 26.0642C11.0255 26.0212 13.4832 26.5663 15.2261 26.9584C15.2261 26.9584 16.1229 27.1659 17.4341 27.405C16.1752 25.9293 15.4277 24.0533 15.4277 22.1359C15.4277 17.9263 18.6563 14.2477 17.4915 11.2744C18.6252 11.3667 19.8377 13.667 19.9196 17.2636C21.1248 15.5982 21.6292 12.5567 21.6292 10.6919C21.6292 8.76105 22.9014 6.5182 24.174 6.44149C23.0396 8.31114 24.4679 9.91397 25.7375 13.8901C26.2137 15.3836 26.1529 17.897 26.5206 19.4909C26.6425 16.1804 27.2117 11.35 29.3118 9.68235C28.3854 11.7825 29.449 14.4104 30.1764 15.6738C31.3501 17.712 32.0616 19.2563 32.0616 22.177C32.0616 24.1352 31.3386 25.9789 30.119 27.4202C31.5057 27.16 32.4633 26.9254 32.4633 26.9254L36.9667 26.0467C36.9667 26.0467 36.3126 28.7376 33.7982 31.3292Z" fill="#E6522C"/>
</svg>
