<svg width="50" height="50" viewBox="0 0 50 50" fill="none" xmlns="http://www.w3.org/2000/svg">
<rect width="20" height="20" transform="translate(15 8)" fill="#009AD9"/>
<path d="M27.6556 15.9434C27.6556 18.1089 26.6219 19.3765 25.0105 19.3765C23.2856 19.3765 22.2792 18.1511 22.2792 15.9434C22.2792 13.5604 23.2226 12.335 24.9475 12.335C26.6724 12.335 27.6598 13.5815 27.6598 15.9434H27.6556ZM19.1025 26.3334H22.275V20.23C23.0797 21.4321 24.3214 22.0659 25.8845 22.0659C28.7355 22.0659 30.8974 19.6384 30.8974 15.8124C30.8974 12.0942 28.7964 9.66675 25.8383 9.66675C24.252 9.66675 23.149 10.2794 22.2057 11.6357V10.066H19.1025V26.3334Z" fill="white"/>
<path d="M19.1943 36.2119H17.2949V35.4453H19.1943C19.5622 35.4453 19.86 35.3867 20.0879 35.2695C20.3158 35.1523 20.4818 34.9896 20.5859 34.7812C20.6934 34.5729 20.7471 34.3353 20.7471 34.0684C20.7471 33.8242 20.6934 33.5947 20.5859 33.3799C20.4818 33.165 20.3158 32.9925 20.0879 32.8623C19.86 32.7288 19.5622 32.6621 19.1943 32.6621H17.5146V39H16.5723V31.8906H19.1943C19.7314 31.8906 20.1855 31.9834 20.5566 32.1689C20.9277 32.3545 21.2093 32.6117 21.4014 32.9404C21.5934 33.266 21.6895 33.6387 21.6895 34.0586C21.6895 34.5143 21.5934 34.9033 21.4014 35.2256C21.2093 35.5479 20.9277 35.7936 20.5566 35.9629C20.1855 36.1289 19.7314 36.2119 19.1943 36.2119Z" fill="#1C1D1F"/>
<path d="M22.4365 36.417V36.3047C22.4365 35.9238 22.4919 35.5706 22.6025 35.2451C22.7132 34.9163 22.8727 34.6315 23.0811 34.3906C23.2894 34.1465 23.5417 33.9577 23.8379 33.8242C24.1341 33.6875 24.4661 33.6191 24.834 33.6191C25.2051 33.6191 25.5387 33.6875 25.835 33.8242C26.1344 33.9577 26.3883 34.1465 26.5967 34.3906C26.8083 34.6315 26.9694 34.9163 27.0801 35.2451C27.1908 35.5706 27.2461 35.9238 27.2461 36.3047V36.417C27.2461 36.7979 27.1908 37.151 27.0801 37.4766C26.9694 37.8021 26.8083 38.0869 26.5967 38.3311C26.3883 38.5719 26.1361 38.7607 25.8398 38.8975C25.5469 39.0309 25.2148 39.0977 24.8438 39.0977C24.4727 39.0977 24.139 39.0309 23.8428 38.8975C23.5465 38.7607 23.2926 38.5719 23.0811 38.3311C22.8727 38.0869 22.7132 37.8021 22.6025 37.4766C22.4919 37.151 22.4365 36.7979 22.4365 36.417ZM23.3398 36.3047V36.417C23.3398 36.6807 23.3708 36.9297 23.4326 37.1641C23.4945 37.3952 23.5872 37.6003 23.7109 37.7793C23.8379 37.9583 23.9958 38.0999 24.1846 38.2041C24.3734 38.305 24.5931 38.3555 24.8438 38.3555C25.0911 38.3555 25.3076 38.305 25.4932 38.2041C25.682 38.0999 25.8382 37.9583 25.9619 37.7793C26.0856 37.6003 26.1784 37.3952 26.2402 37.1641C26.3053 36.9297 26.3379 36.6807 26.3379 36.417V36.3047C26.3379 36.0443 26.3053 35.7985 26.2402 35.5674C26.1784 35.333 26.084 35.1263 25.957 34.9473C25.8333 34.765 25.6771 34.6217 25.4883 34.5176C25.3027 34.4134 25.0846 34.3613 24.834 34.3613C24.5866 34.3613 24.3685 34.4134 24.1797 34.5176C23.9941 34.6217 23.8379 34.765 23.7109 34.9473C23.5872 35.1263 23.4945 35.333 23.4326 35.5674C23.3708 35.7985 23.3398 36.0443 23.3398 36.3047Z" fill="#1C1D1F"/>
<path d="M30.4395 39H28.9551L28.9648 38.2334H30.4395C30.9473 38.2334 31.3704 38.1276 31.709 37.916C32.0475 37.7012 32.3014 37.4017 32.4707 37.0176C32.6432 36.6302 32.7295 36.1777 32.7295 35.6602V35.2256C32.7295 34.8187 32.6807 34.4574 32.583 34.1416C32.4854 33.8226 32.3421 33.554 32.1533 33.3359C31.9645 33.1146 31.7334 32.9469 31.46 32.833C31.1898 32.7191 30.8789 32.6621 30.5273 32.6621H28.9258V31.8906H30.5273C30.9928 31.8906 31.4176 31.9688 31.8018 32.125C32.1859 32.278 32.5163 32.501 32.793 32.7939C33.0729 33.0837 33.2878 33.4352 33.4375 33.8486C33.5872 34.2588 33.6621 34.721 33.6621 35.2354V35.6602C33.6621 36.1745 33.5872 36.6383 33.4375 37.0518C33.2878 37.4619 33.0713 37.8118 32.7881 38.1016C32.5081 38.3913 32.1696 38.6143 31.7725 38.7705C31.3786 38.9235 30.9342 39 30.4395 39ZM29.458 31.8906V39H28.5156V31.8906H29.458Z" fill="#1C1D1F"/>
</svg>
