<svg width="50" height="50" viewBox="0 0 50 50" fill="none" xmlns="http://www.w3.org/2000/svg">
<path fill-rule="evenodd" clip-rule="evenodd" d="M3 35L15.4 15H20.3436L7.94359 35H3ZM23.1342 15L10.7341 35H15.6778L28.0778 15H23.1405H23.1342ZM36.2604 35C42.1827 35 47 30.515 47 25C47 19.485 42.1827 15 36.2604 15C30.3382 15 25.5209 19.485 25.5209 25C25.5209 30.515 30.3382 35 36.2604 35ZM36.2541 18.9847C39.5814 18.9847 42.713 21.5394 42.713 25C42.713 28.4614 39.5833 31.0153 36.2541 31.0153C32.9229 31.0153 29.8015 28.4618 29.8015 25C29.8015 21.5382 32.9229 18.9847 36.2541 18.9847Z" fill="#FF4824"/>
</svg>
