<svg width="50" height="50" viewBox="0 0 50 50" fill="none" xmlns="http://www.w3.org/2000/svg">
<path fill-rule="evenodd" clip-rule="evenodd" d="M24.9992 35C24.9992 35 13.5283 29.262 13.0964 19.709C12.8084 13.3844 13.2576 10.2436 13.2576 10.2436C13.2576 10.2436 17.1932 6 24.9992 6" fill="#ED2E26"/>
<path fill-rule="evenodd" clip-rule="evenodd" d="M24.9992 6C32.8128 6 36.7407 10.2436 36.7407 10.2436C36.7407 10.2436 37.1919 13.3844 36.9039 19.7089C36.472 29.2561 25.0011 35 25.0011 35" fill="#ED2E26"/>
<path fill-rule="evenodd" clip-rule="evenodd" d="M19.1341 18.5595C19.1341 15.181 21.7662 12.4318 24.9991 12.4318C28.2317 12.4361 30.8658 15.1835 30.8699 18.39C30.8699 21.0125 28.6487 23.1714 26.9362 24.28C27.6005 24.6697 29.0672 25.0594 30.4706 25.1977C32.5451 23.574 33.7685 21.0208 33.7688 18.39C33.7688 13.5978 29.8305 9.48971 24.9991 9.48971C20.1678 9.48971 16.2294 13.5978 16.2294 18.39C16.2294 25.2407 22.6403 28.7511 28.6256 29.7472C29.3936 29.3108 30.7374 28.0268 31.227 27.2747C28.2359 26.885 25.4042 26.1427 23.5055 25.1315C20.6047 23.5864 19.1341 21.3749 19.1341 18.5576" fill="white"/>
<path d="M29.9909 44.6342C29.9909 45.3527 29.4239 45.8102 28.3924 45.8102C27.4527 45.8102 26.57 45.376 26.57 44.3593H25.5925C25.5925 45.8167 27.0672 46.6094 28.3924 46.6094C29.9686 46.6094 30.9785 45.8284 30.9785 44.624C30.9785 43.4643 30.2261 42.8178 28.5452 42.3434C27.3414 42.009 26.8092 41.626 26.8092 40.9994C26.8092 40.3032 27.3009 39.798 28.3466 39.798C29.4478 39.798 29.9807 40.3903 29.9807 41.2336H30.9582C30.9582 39.8108 29.6351 38.9937 28.3466 38.9937C26.8387 38.9937 25.8267 39.846 25.8267 41.0096C25.8267 42.1622 26.7586 42.7628 28.2295 43.1986C29.6472 43.6115 29.9909 43.9424 29.9909 44.6342Z" fill="#1C1D1F"/>
<path fill-rule="evenodd" clip-rule="evenodd" d="M21.6366 39C23.853 39 24.966 40.9308 24.9659 43C24.9659 45.2297 23.6706 46.6578 21.5432 46.6578H19.5L19.5 39H21.6366ZM20.5009 45.8182H21.5432C23.1477 45.8182 23.9754 44.5288 23.9754 43C23.9755 41.4511 23.3858 39.8449 21.6366 39.8449H20.5009L20.5009 45.8182Z" fill="#1C1D1F"/>
</svg>
