<svg width="50" height="50" viewBox="0 0 50 50" fill="none" xmlns="http://www.w3.org/2000/svg">
<path d="M28.4974 9.15967H15.3489C15.5484 9.36273 15.7478 9.57305 15.9291 9.79425C17.4014 11.5783 18.1774 13.8193 18.1774 16.2851C18.1774 20.0926 16.5746 23.5266 14 25.8401H22.0501L25.8757 16.3322H21.0892L21.8869 12.6444H31.3948L26.4015 25.8401H28.3596C32.9177 25.8691 36 22.0834 36 17.4854C36 12.8874 33.0628 9.15967 28.4938 9.15967" fill="#E85E26"/>
<path d="M42.709 35.7168V36.4102H39.8525V35.7168H42.709ZM40.8193 34.4326H41.7227V39.6914C41.7227 40.0495 41.8447 40.2188 42.0205 40.2773C42.2516 40.3544 42.4969 40.3161 42.7285 40.2627L42.7334 41C42.5917 41.0451 42.3643 41.0977 42.0352 41.0977C41.5924 41.0977 41.2018 40.9365 40.9805 40.5264C40.873 40.318 40.8193 40.0381 40.8193 39.6865V34.4326Z" fill="#1C1D1F"/>
<path d="M37.377 40.3555C38.0244 40.3555 38.5737 39.9205 38.6221 39.3301H39.4814C39.4652 39.6426 39.3594 39.9339 39.1641 40.2041C38.7532 40.7751 38.0752 41.0977 37.377 41.0977C36.5862 41.0977 35.9969 40.802 35.6045 40.3115C35.2191 39.8216 35.0283 39.1683 35.0283 38.4609V38.2559C35.0283 37.901 35.0755 37.5658 35.1699 37.25C35.4651 36.2859 36.1952 35.6191 37.377 35.6191C38.6123 35.6191 39.4324 36.4355 39.4814 37.5332H38.6221C38.5736 36.8837 38.1043 36.3613 37.377 36.3613C36.5637 36.3613 36.1496 36.8891 36 37.5771C35.9544 37.7985 35.9316 38.0247 35.9316 38.2559V38.4609C35.9316 39.3903 36.2661 40.3555 37.377 40.3555Z" fill="#1C1D1F"/>
<path d="M32.1523 41.0977C31.0554 41.0977 30.2405 40.513 29.8965 39.5693C29.7826 39.2568 29.7256 38.915 29.7256 38.5439V38.3389C29.7256 37.9092 29.7891 37.5267 29.916 37.1914C30.1699 36.5143 30.6224 36.0407 31.1758 35.7998C31.4525 35.6794 31.7389 35.6191 32.0352 35.6191C32.4128 35.6191 32.7383 35.6842 33.0117 35.8145C33.8343 36.2015 34.208 37.0832 34.208 38.207V38.6123H30.2627V37.875H33.3047V37.8066C33.2632 37.0601 32.8674 36.3613 32.0352 36.3613C31.2195 36.3613 30.6338 37.0604 30.6338 38.3389V38.5439C30.6338 39.5479 31.224 40.3604 32.2012 40.3604C32.8392 40.3604 33.2607 40.0788 33.5928 39.6426L34.1396 40.0771C33.7991 40.5928 33.2051 41.0977 32.1523 41.0977Z" fill="#1C1D1F"/>
<path d="M25.3359 36.8447V41H24.4326V35.7168H25.2871L25.3359 36.8447ZM25.3457 36.3369C25.7262 35.8778 26.2603 35.6191 26.8936 35.6191C27.154 35.6191 27.3883 35.6549 27.5967 35.7266C28.3755 35.9821 28.5879 36.8049 28.5879 37.5381V41H27.6797V37.5283C27.6797 36.6872 27.3013 36.3809 26.625 36.3809C26.1789 36.3809 25.8049 36.5787 25.5361 36.9131C24.3284 38.453 24.6533 37.1726 25.3457 36.3369Z" fill="#1C1D1F"/>
<path d="M19.8086 36.8447V41H18.9053V35.7168H19.7598L19.8086 36.8447ZM19.8184 36.3369C20.1988 35.8778 20.7329 35.6191 21.3662 35.6191C21.6266 35.6191 21.861 35.6549 22.0693 35.7266C22.8482 35.9821 23.0605 36.8049 23.0605 37.5381V41H22.1523V37.5283C22.1523 36.6872 21.774 36.3809 21.0977 36.3809C20.6516 36.3809 20.2776 36.5787 20.0088 36.9131C18.801 38.453 19.126 37.1726 19.8184 36.3369Z" fill="#1C1D1F"/>
<path d="M12.9629 38.417V38.3047C12.9629 37.2996 13.4023 36.2576 14.3643 35.8242C14.9741 35.5427 15.7514 35.5427 16.3613 35.8242C17.2565 36.2231 17.7725 37.1549 17.7725 38.3047V38.417C17.7725 39.9246 16.8803 41.0977 15.3701 41.0977C14.999 41.0977 14.6654 41.0309 14.3691 40.8975C13.4799 40.487 12.9629 39.5592 12.9629 38.417ZM13.8662 38.3047V38.417C13.8662 39.2034 14.1453 39.892 14.7109 40.2041C15.0986 40.4113 15.6325 40.4146 16.0195 40.2041C16.5891 39.8899 16.8643 39.1993 16.8643 38.417V38.3047C16.8643 37.2571 16.3687 36.3613 15.3604 36.3613C14.3936 36.3613 13.8662 37.2382 13.8662 38.3047Z" fill="#1C1D1F"/>
<path d="M11.1172 38.7393H12.0547C12.0059 39.1885 11.8773 39.5905 11.6689 39.9453C11.253 40.6537 10.5007 41.0977 9.35938 41.0977C7.57124 41.0977 6.58594 39.474 6.58594 37.8018V37.0938C6.58594 35.0815 7.69362 33.793 9.44238 33.793C11.0522 33.793 11.9079 34.762 12.0547 36.1709H11.1172C10.9795 35.1676 10.542 34.5645 9.44238 34.5645C8.19394 34.5645 7.52344 35.5641 7.52344 37.084V37.8018C7.52344 38.9588 8.02855 40.3311 9.35938 40.3311C10.5628 40.3311 10.9615 39.7317 11.1172 38.7393Z" fill="#1C1D1F"/>
</svg>
