<svg width="50" height="50" viewBox="0 0 50 50" fill="none" xmlns="http://www.w3.org/2000/svg">
<path d="M30.3451 18.1027C32.4482 18.1027 35.491 17.7265 35.491 15.5565C35.4973 15.389 35.4798 15.2215 35.4389 15.0577L34.1864 10.3385C33.8973 9.30021 33.6434 8.82917 31.5421 7.91771C29.9114 7.19437 26.3592 6 25.3085 6C24.3301 6 24.046 7.09375 22.8793 7.09375C21.7563 7.09375 20.9225 6.27708 19.8718 6.27708C18.8631 6.27708 18.2058 6.87354 17.6981 8.1C17.6981 8.1 16.2843 11.5592 16.1027 12.0608C16.0738 12.153 16.0614 12.2484 16.0657 12.3438C16.0657 13.6883 22.1682 18.0969 30.3451 18.0969V18.1027ZM35.8138 16.4373C36.1046 17.6317 36.1046 17.7571 36.1046 17.9146C36.1046 19.9562 33.4585 21.0894 29.9803 21.0894C22.1194 21.0938 15.2336 17.0979 15.2336 14.4569C15.2331 14.0893 15.3195 13.7255 15.4874 13.3879C12.6598 13.5104 9 13.9479 9 16.7508C9 21.3417 21.5394 27 31.4681 27C39.0802 27 41 24.0133 41 21.6552C41 19.8002 39.1508 17.6944 35.8171 16.4373" fill="#EE0000"/>
<path d="M35.8138 16.4373C36.1046 17.6317 36.1046 17.7571 36.1046 17.9146C36.1046 19.9562 33.4585 21.0894 29.9803 21.0894C22.1194 21.0938 15.2336 17.0979 15.2336 14.4569C15.2331 14.0893 15.3195 13.7255 15.4874 13.3879L16.1028 12.0666C16.0746 12.1569 16.0621 12.2503 16.0657 12.3438C16.0657 13.6883 22.1682 18.0969 30.3451 18.0969C32.4482 18.0969 35.491 17.7206 35.491 15.5506C35.4973 15.3831 35.4798 15.2156 35.4389 15.0519L35.8138 16.4373Z" fill="black"/>
<path d="M17.8359 32.8906V40H16.8936V32.8906H17.8359Z" fill="black"/>
<path d="M21.4736 40H19.9893L19.999 39.2334H21.4736C21.9814 39.2334 22.4046 39.1276 22.7432 38.916C23.0817 38.7012 23.3356 38.4017 23.5049 38.0176C23.6774 37.6302 23.7637 37.1777 23.7637 36.6602V36.2256C23.7637 35.8187 23.7148 35.4574 23.6172 35.1416C23.5195 34.8226 23.3763 34.554 23.1875 34.3359C22.9987 34.1146 22.7676 33.9469 22.4941 33.833C22.224 33.7191 21.9131 33.6621 21.5615 33.6621H19.96V32.8906H21.5615C22.027 32.8906 22.4518 32.9688 22.8359 33.125C23.2201 33.278 23.5505 33.501 23.8271 33.7939C24.1071 34.0837 24.3219 34.4352 24.4717 34.8486C24.6214 35.2588 24.6963 35.721 24.6963 36.2354V36.6602C24.6963 37.1745 24.6214 37.6383 24.4717 38.0518C24.3219 38.4619 24.1055 38.8118 23.8223 39.1016C23.5423 39.3913 23.2038 39.6143 22.8066 39.7705C22.4128 39.9235 21.9684 40 21.4736 40ZM20.4922 32.8906V40H19.5498V32.8906H20.4922Z" fill="black"/>
<path d="M26.4102 32.8906H27.3232L29.6523 38.6865L31.9766 32.8906H32.8945L30.0039 40H29.291L26.4102 32.8906ZM26.1123 32.8906H26.918L27.0498 37.2266V40H26.1123V32.8906ZM32.3818 32.8906H33.1875V40H32.25V37.2266L32.3818 32.8906Z" fill="black"/>
</svg>
