<svg width="50" height="50" viewBox="0 0 50 50" fill="none" xmlns="http://www.w3.org/2000/svg">
<path d="M30.3451 18.1027C32.4482 18.1027 35.491 17.7265 35.491 15.5565C35.4973 15.389 35.4798 15.2215 35.4389 15.0577L34.1864 10.3385C33.8973 9.30021 33.6434 8.82917 31.5421 7.91771C29.9114 7.19437 26.3592 6 25.3085 6C24.3301 6 24.046 7.09375 22.8793 7.09375C21.7563 7.09375 20.9225 6.27708 19.8718 6.27708C18.8631 6.27708 18.2058 6.87354 17.6981 8.1C17.6981 8.1 16.2843 11.5592 16.1027 12.0608C16.0738 12.153 16.0614 12.2484 16.0657 12.3438C16.0657 13.6883 22.1682 18.0969 30.3451 18.0969V18.1027ZM35.8138 16.4373C36.1046 17.6317 36.1046 17.7571 36.1046 17.9146C36.1046 19.9562 33.4585 21.0894 29.9803 21.0894C22.1194 21.0938 15.2336 17.0979 15.2336 14.4569C15.2331 14.0893 15.3195 13.7255 15.4874 13.3879C12.6598 13.5104 9 13.9479 9 16.7508C9 21.3417 21.5394 27 31.4681 27C39.0802 27 41 24.0133 41 21.6552C41 19.8002 39.1508 17.6944 35.8171 16.4373" fill="#EE0000"/>
<path d="M35.8138 16.4373C36.1046 17.6317 36.1046 17.7571 36.1046 17.9146C36.1046 19.9562 33.4585 21.0894 29.9803 21.0894C22.1194 21.0938 15.2336 17.0979 15.2336 14.4569C15.2331 14.0893 15.3195 13.7255 15.4874 13.3879L16.1028 12.0666C16.0746 12.1569 16.0621 12.2503 16.0657 12.3438C16.0657 13.6883 22.1682 18.0969 30.3451 18.0969C32.4482 18.0969 35.491 17.7206 35.491 15.5506C35.4973 15.3831 35.4798 15.2156 35.4389 15.0519L35.8138 16.4373Z" fill="black"/>
<path d="M17.457 32.5205L15.1035 39H14.1416L16.8516 31.8906H17.4717L17.457 32.5205ZM19.4297 39L17.0713 32.5205L17.0566 31.8906H17.6768L20.3965 39H19.4297ZM19.3076 36.3682V37.1396H15.3135V36.3682H19.3076Z" fill="#1C1D1F"/>
<path d="M25.582 36.7393H26.5195C26.4707 37.1885 26.3421 37.5905 26.1338 37.9453C25.9255 38.3001 25.6309 38.5817 25.25 38.79C24.8691 38.9951 24.3939 39.0977 23.8242 39.0977C23.4076 39.0977 23.0283 39.0195 22.6865 38.8633C22.348 38.707 22.0566 38.4857 21.8125 38.1992C21.5684 37.9095 21.3796 37.5628 21.2461 37.1592C21.1159 36.7523 21.0508 36.2998 21.0508 35.8018V35.0938C21.0508 34.5957 21.1159 34.1449 21.2461 33.7412C21.3796 33.3343 21.57 32.986 21.8174 32.6963C22.068 32.4066 22.3691 32.1836 22.7207 32.0273C23.0723 31.8711 23.4678 31.793 23.9072 31.793C24.4443 31.793 24.8984 31.8939 25.2695 32.0957C25.6406 32.2975 25.9287 32.5775 26.1338 32.9355C26.3421 33.2904 26.4707 33.7021 26.5195 34.1709H25.582C25.5365 33.8389 25.4518 33.554 25.3281 33.3164C25.2044 33.0755 25.0286 32.89 24.8008 32.7598C24.5729 32.6296 24.2751 32.5645 23.9072 32.5645C23.5915 32.5645 23.3132 32.6247 23.0723 32.7451C22.8346 32.8656 22.6344 33.0365 22.4717 33.2578C22.3122 33.4792 22.1917 33.7445 22.1104 34.0537C22.029 34.363 21.9883 34.7064 21.9883 35.084V35.8018C21.9883 36.1501 22.0241 36.4772 22.0957 36.7832C22.1706 37.0892 22.2829 37.3577 22.4326 37.5889C22.5824 37.82 22.7728 38.0023 23.0039 38.1357C23.235 38.266 23.5085 38.3311 23.8242 38.3311C24.2246 38.3311 24.5436 38.2676 24.7812 38.1406C25.0189 38.0137 25.1979 37.8314 25.3184 37.5938C25.4421 37.3561 25.5299 37.0713 25.582 36.7393Z" fill="#1C1D1F"/>
<path d="M28.1016 31.8906H29.0146L31.3438 37.6865L33.668 31.8906H34.5859L31.6953 39H30.9824L28.1016 31.8906ZM27.8037 31.8906H28.6094L28.7412 36.2266V39H27.8037V31.8906ZM34.0732 31.8906H34.8789V39H33.9414V36.2266L34.0732 31.8906Z" fill="#1C1D1F"/>
</svg>
