<svg width="50" height="50" viewBox="0 0 50 50" fill="none" xmlns="http://www.w3.org/2000/svg">
<path d="M37.8672 6H11.4297V32.6464H37.8672V6Z" fill="url(#paint0_linear_9317_2571)"/>
<path d="M19.2949 17.2102C19.353 16.7618 19.3934 16.3095 19.4733 15.8652C19.7674 14.2218 20.4614 12.8068 21.8554 11.8209C22.8441 11.1221 23.969 10.783 25.1574 10.6485C26.5467 10.4906 27.9208 10.5852 29.2737 10.9489C29.392 10.9809 29.511 11.0182 29.6227 11.0688C29.9102 11.1981 30.045 11.4325 29.9908 11.7416C29.8487 12.5544 29.704 13.3671 29.5454 14.1765C29.4555 14.6368 29.2896 14.7314 28.8223 14.6421C27.7483 14.4369 26.671 14.3323 25.5857 14.5562C24.2361 14.834 23.4066 15.8026 23.2988 17.1835C23.0378 20.5287 23.2513 23.9553 23.2493 27.3072C23.2493 27.9214 23.1012 28.0672 22.4819 28.0679C21.6716 28.0686 20.8613 28.0579 20.051 28.0726C19.6914 28.0792 19.431 27.968 19.2955 27.6203C19.2955 24.1509 19.2955 20.6815 19.2955 17.2115L19.2949 17.2102Z" fill="white"/>
<path d="M44.5891 43.9467C43.5868 43.9467 42.9234 43.2178 42.9234 42.1939C42.9234 41.878 42.9409 41.5646 43.0541 41.2656C43.3155 40.5685 43.8987 40.1864 44.5086 40.1864C45.5457 40.1864 46 40.9343 46 41.9627V42.2408H43.2921V41.7348H45.38C45.38 41.2028 45.0923 40.6958 44.5086 40.6958C43.7127 40.6958 43.5468 41.5643 43.5468 42.1939C43.5468 42.883 43.9519 43.4406 44.6226 43.4406C45.0605 43.4406 45.3498 43.2474 45.5777 42.948L45.9531 43.2463C45.7193 43.6002 45.3116 43.9467 44.5891 43.9467Z" fill="#1C1D1F"/>
<path d="M41.6499 42.9178C41.6499 42.6483 41.5331 42.432 40.8154 42.2911C40.0234 42.1239 39.5083 41.85 39.5083 41.2455C39.5083 40.6672 40.0449 40.1864 40.8522 40.1864C41.7209 40.1864 42.233 40.6919 42.233 41.3192H41.613C41.613 41.0178 41.3455 40.6958 40.8522 40.6958C40.3467 40.6958 40.1317 40.9561 40.1317 41.2287C40.1317 41.4906 40.2775 41.6343 40.9662 41.7884C41.8576 41.9895 42.2699 42.2877 42.2699 42.8709C42.2699 43.4936 41.7383 43.9467 40.869 43.9467C39.9105 43.9467 39.3843 43.3635 39.3843 42.7603H40.0077C40.0322 43.226 40.45 43.4373 40.869 43.4373C41.3842 43.4373 41.6499 43.2178 41.6499 42.9178Z" fill="#1C1D1F"/>
<path d="M36.3647 41.0276V43.8797H35.7447V40.2534H36.3312L36.3647 41.0276ZM36.3714 40.6791C36.6325 40.3639 36.9991 40.1864 37.4338 40.1864C38.1478 40.1864 38.5967 40.5424 38.5967 41.5035V43.8797H37.9733V41.4968C37.9733 40.9195 37.7137 40.7092 37.2494 40.7092C36.9433 40.7092 36.6866 40.845 36.5021 41.0745C35.7402 42.0459 35.655 41.5436 36.3714 40.6791Z" fill="#1C1D1F"/>
<path d="M31.666 42.0297C31.666 40.9718 32.3109 40.1864 33.3115 40.1864C34.3313 40.1864 34.9671 40.9778 34.9671 42.0297C34.9671 43.0243 34.4046 43.9467 33.3182 43.9467C32.2345 43.9467 31.666 43.0229 31.666 42.0297ZM32.286 42.0297C32.286 42.6782 32.5486 43.4373 33.3182 43.4373C34.011 43.4373 34.3438 42.8181 34.3438 42.1068C34.3438 41.4581 34.0822 40.6958 33.3115 40.6958C32.648 40.6958 32.286 41.2977 32.286 42.0297Z" fill="#1C1D1F"/>
<path d="M28.5961 45.2739H27.9727V40.2534H28.5425L28.5961 45.2739ZM31.0393 42.0364C31.0393 43.2971 29.65 44.7742 28.5726 43.501C27.9368 42.7496 27.9703 41.3996 28.5726 40.6522C28.819 40.3477 29.1669 40.1864 29.6216 40.1864C30.5282 40.1864 31.0393 40.9212 31.0393 42.0364ZM30.4159 42.1068C30.4159 41.4801 30.2013 40.7092 29.4406 40.7092C29.1303 40.7092 28.9023 40.8228 28.7402 41.0075C28.2873 41.5107 28.2943 42.4213 28.6195 42.9815C29.2689 44.0819 30.4159 43.0728 30.4159 42.1068Z" fill="#1C1D1F"/>
<path d="M26.5417 42.9178C26.5417 42.6483 26.4249 42.432 25.7071 42.2911C24.9152 42.1239 24.4001 41.85 24.4001 41.2455C24.4001 40.6672 24.9367 40.1864 25.744 40.1864C26.6127 40.1864 27.1248 40.6919 27.1248 41.3192H26.5048C26.5048 41.0178 26.2372 40.6958 25.744 40.6958C25.2385 40.6958 25.0235 40.9561 25.0235 41.2287C25.0235 41.4906 25.1693 41.6343 25.858 41.7884C26.7494 41.9895 27.1617 42.2877 27.1617 42.8709C27.1617 43.4936 26.6301 43.9467 25.7608 43.9467C24.8023 43.9467 24.2761 43.3635 24.2761 42.7603H24.8995C24.924 43.226 25.3418 43.4373 25.7608 43.4373C26.276 43.4373 26.5417 43.2178 26.5417 42.9178Z" fill="#1C1D1F"/>
<path d="M22.2954 43.9467C21.2931 43.9467 20.6297 43.2178 20.6297 42.1939C20.6297 41.4366 20.8697 40.6392 21.6251 40.3104C22.0139 40.1412 22.5 40.137 22.8853 40.3205C23.4498 40.5861 23.7064 41.1913 23.7064 41.9627V42.2408H20.9984V41.7348H23.0863C23.0863 41.4111 22.9784 41.0518 22.7177 40.8433C22.4792 40.6525 22.0915 40.6512 21.8262 40.7863C21.3091 41.04 21.2531 41.686 21.2531 42.1939C21.2531 42.883 21.6582 43.4406 22.3289 43.4406C22.7668 43.4406 23.0562 43.2474 23.2841 42.948L23.6594 43.2463C23.4257 43.6002 23.018 43.9467 22.2954 43.9467Z" fill="#1C1D1F"/>
<path d="M16.655 39H18.2703C19.374 39 19.9796 39.5133 19.9796 40.4646C19.9796 41.307 19.3522 41.6367 18.6692 41.9023H17.151L17.1443 41.3762H18.2905C18.9903 41.3762 19.3361 40.9663 19.3361 40.4646C19.3361 39.9026 19.0173 39.5295 18.2703 39.5295H17.3018V43.8797H16.655V39ZM19.507 43.8797L18.3206 41.6677L18.9943 41.6644L20.1974 43.8395V43.8797H19.507Z" fill="#1C1D1F"/>
<path d="M13.327 45.2739H12.7036V40.2534H13.2734L13.327 45.2739ZM15.7702 42.1068C15.7702 43.1507 15.2703 43.9467 14.3626 43.9467C13.9023 43.9467 13.5493 43.7914 13.3035 43.501C12.668 42.7499 12.7016 41.3992 13.3035 40.6522C13.5499 40.3477 13.8978 40.1864 14.3525 40.1864C15.4117 40.1864 15.7702 41.2076 15.7702 42.1068ZM15.1468 42.1068C15.1468 41.4801 14.9322 40.7092 14.1716 40.7092C13.0702 40.7092 12.9179 42.2364 13.3505 42.9815C13.5107 43.2531 13.7701 43.4373 14.1783 43.4373C14.8647 43.4373 15.1468 42.8168 15.1468 42.1068Z" fill="#1C1D1F"/>
<path d="M9.47287 40.9505V45.2739H8.84951V40.2534H9.41925L9.47287 40.9505ZM11.9161 42.0364C11.9161 42.9137 11.5448 43.9467 10.5085 43.9467C10.0482 43.9467 9.69518 43.7914 9.44941 43.501C8.82403 42.7619 8.83803 41.4108 9.44941 40.6522C9.69578 40.3477 10.0437 40.1864 10.4984 40.1864C11.405 40.1864 11.9161 40.9212 11.9161 42.0364ZM11.2927 42.0364C11.2927 41.3021 10.989 40.7092 10.3174 40.7092C9.85529 40.7092 9.57568 40.9622 9.41925 41.3158C9.20448 41.8137 9.22214 42.5093 9.49633 42.9815C9.6566 43.2531 9.91596 43.4373 10.3241 43.4373C11.085 43.4373 11.2927 42.6603 11.2927 42.0364Z" fill="#1C1D1F"/>
<path d="M6.27561 39.4323L4.66023 43.8797H4L5.86004 39H6.28567L6.27561 39.4323ZM7.62959 43.8797L6.01085 39.4323L6.0008 39H6.42643L8.29317 43.8797H7.62959ZM7.5458 42.0733V42.6028H4.80434V42.0733H7.5458Z" fill="#1C1D1F"/>
<defs>
<linearGradient id="paint0_linear_9317_2571" x1="-3.22715" y1="41.2336" x2="40.2833" y2="13.7389" gradientUnits="userSpaceOnUse">
<stop stop-color="#5E49AB"/>
<stop offset="0.3" stop-color="#B42DC9"/>
<stop offset="0.54" stop-color="#DC1E9E"/>
<stop offset="0.75" stop-color="#F2566F"/>
<stop offset="1" stop-color="#F6B158"/>
</linearGradient>
</defs>
</svg>
