<svg width="50" height="50" viewBox="0 0 50 50" fill="none" xmlns="http://www.w3.org/2000/svg">
<path fill-rule="evenodd" clip-rule="evenodd" d="M14.2124 18.5685C13.5026 19.2032 11.9812 20.5633 10.3545 22.0176C9.20622 23.0444 8.00555 24.1182 7 25.017C12.9536 28.7255 18.319 29.0177 20.9282 26.685C21.9667 25.7562 23.6934 24.2124 25.5384 22.5624C27.2486 21.0333 30.3954 18.2198 33.4706 15.4706C33.4706 15.4706 29.3492 16.2548 24.5387 16.2548C20.2382 16.2548 15.986 16.9828 14.2124 18.5685Z" fill="#F4B400"/>
<path fill-rule="evenodd" clip-rule="evenodd" d="M33.6145 25.4613C33.6145 20.6505 34.5294 16.5294 34.5294 16.5294C31.322 19.6043 28.0393 22.7513 26.2555 24.4615L21.4462 29.0721C18.7244 31.681 19.0653 37.0465 23.392 43L30.9152 35.788C32.7651 34.0141 33.6145 29.7618 33.6145 25.4613Z" fill="#F4B400"/>
<path fill-rule="evenodd" clip-rule="evenodd" d="M30.1512 8.15376C24.4745 8.15376 18.8616 9.22472 16.5202 11.5582C14.9217 13.1509 10.2064 17.8502 7 21.0456C7.99716 21.7383 8.98221 22.3494 9.94833 22.8824C11.6021 21.2343 13.1485 19.6931 13.8705 18.9739C15.6732 17.177 19.9962 16.352 24.3684 16.352C29.259 16.352 33.4489 15.4634 33.4489 15.4634C37.7649 11.1622 41.9412 7 41.9412 7C41.9412 7 36.501 8.15376 30.1512 8.15376Z" fill="#003580"/>
<path fill-rule="evenodd" clip-rule="evenodd" d="M34.5364 16.294C34.5364 16.294 33.6479 20.3566 33.6479 25.099C33.6479 29.3386 32.8232 33.5305 31.0261 35.2793L27.1176 39.082C27.6506 40.0191 28.2617 40.974 28.9543 41.9412C32.1498 38.8317 36.8489 34.2594 38.442 32.7095C40.7751 30.4394 41.8463 24.9961 41.8463 19.4915C41.8463 13.3341 43 8.05882 43 8.05882C43 8.05882 38.8379 12.1089 34.5364 16.294Z" fill="#003580"/>
</svg>
