<svg width="50" height="50" viewBox="0 0 50 50" fill="none" xmlns="http://www.w3.org/2000/svg">
<path d="M32.1522 18.7317L32.809 16.4851H38.6924C39.4313 13.2521 38.8566 10.2383 36.7769 8.26563C32.5901 4.2929 23.8606 5.63541 17.3478 11.5808C16.3353 12.5123 15.487 13.4987 14.6934 14.5124H18.2235L17.4025 16.759H13.161C12.7505 17.4714 12.3674 18.1564 12.0937 18.8687H17.1015L16.3079 21.1153H11.3822C10.5339 24.5401 11.0812 27.7457 13.1883 29.7732C17.3204 33.7185 26.0225 32.3212 32.5353 26.3758C33.6847 25.3347 34.6151 24.2387 35.4634 23.088H30.9208L31.6049 20.8414H36.9411C37.3242 20.129 37.6799 19.4167 37.9809 18.7043H32.1522V18.7317ZM30.8387 14.5124C30.4694 14.5124 30.1411 14.5937 30.0451 14.9782L28.1296 21.9099C27.6917 24.3483 24.5721 26.7594 20.4948 26.7594H14.8302L15.8154 23.1976H19.4549C19.9118 23.1976 20.4939 22.9016 20.5769 22.4031L22.0819 16.3481C22.5198 13.9096 25.2015 11.2246 29.2789 11.2246H35.0803L34.3414 14.485H30.8387V14.5124Z" fill="#3DCD58"/>
<path d="M26.5029 43.2031C26.5029 42.5396 26.1732 42.2222 24.8135 41.8262C23.4027 41.4081 22.5088 40.8321 22.5088 39.7266C22.5088 38.6105 23.4795 37.793 24.9258 37.793C26.1722 37.793 27.4307 38.6042 27.4307 39.9414H26.4932C26.4932 39.1326 25.9819 38.5645 24.9258 38.5645C23.9227 38.5645 23.4512 39.049 23.4512 39.7168C23.4512 40.3178 23.9616 40.6851 25.1162 41.0059C26.7285 41.4609 27.4502 42.081 27.4502 43.1934C27.4502 44.3485 26.4815 45.0977 24.9697 45.0977C23.6987 45.0977 22.2842 44.3373 22.2842 42.9395H23.2217C23.2217 43.9146 24.0684 44.3311 24.9697 44.3311C25.959 44.3311 26.5029 43.8923 26.5029 43.2031Z" fill="black"/>
<path d="M32.4404 43.2031C32.4404 42.5396 32.1107 42.2222 30.751 41.8262C29.3402 41.4081 28.4463 40.8321 28.4463 39.7266C28.4463 38.6105 29.417 37.793 30.8633 37.793C32.0991 37.793 33.3682 38.5767 33.3682 39.9414H32.4307C32.4307 39.1326 31.9194 38.5645 30.8633 38.5645C29.8602 38.5645 29.3887 39.049 29.3887 39.7168C29.3887 40.3178 29.8991 40.6851 31.0537 41.0059C32.666 41.4609 33.3877 42.081 33.3877 43.1934C33.3877 44.3485 32.419 45.0977 30.9072 45.0977C29.6444 45.0977 28.2217 44.3613 28.2217 42.9395H29.1592C29.1592 43.9146 30.0059 44.3311 30.9072 44.3311C31.8965 44.3311 32.4404 43.8923 32.4404 43.2031Z" fill="black"/>
<path d="M19.4521 45V38.6621H21.7373V37.8906H16.2441V38.6621H18.5244V45H19.4521Z" fill="black"/>
</svg>
