<svg width="50" height="50" viewBox="0 0 50 50" fill="none" xmlns="http://www.w3.org/2000/svg">
<path d="M7.88388 13.8913C7.98668 11.9466 9.63145 10.218 11.636 10.3801C12.2528 10.4881 12.8696 10.4881 13.8976 11.2984C18.5235 15.5118 21.2477 23.0744 20.4767 29.5026C20.3739 29.8807 20.1169 29.7726 19.9627 29.5026C18.7291 24.911 14.463 19.5632 10.608 17.9966C8.75767 17.1864 7.72968 15.7279 7.88388 13.8913Z" fill="black"/>
<path d="M40.7279 13.5131C40.7279 10.4881 38.3636 7.89522 35.0226 8.00326C28.5463 8.16531 19.7057 25.8293 24.7942 41.7647C24.897 42.1428 25.154 42.0348 25.154 41.6567C25.8222 30.5289 32.2985 21.7239 37.901 18.4828C40.1111 17.1864 40.7279 15.6198 40.7279 13.5131Z" fill="black"/>
<path d="M5.00553 29.6106C5.15973 31.8253 6.8559 32.8517 8.60347 32.8517C12.3556 32.8517 16.9301 34.6883 19.7057 37.0651C19.9627 37.3352 19.9627 37.1732 19.8085 36.687C18.7291 32.6356 12.7154 25.8293 8.50067 25.8293C6.23911 25.9373 4.90273 27.882 5.00553 29.6106Z" fill="black"/>
<path d="M44.9941 29.6106C44.8913 31.8253 43.1437 32.9057 41.3961 32.9057C37.644 32.9057 33.0695 34.7423 30.2939 37.1191C30.0369 37.3892 30.0369 37.2272 30.1911 36.741C31.2705 32.6356 37.2842 25.8293 41.4989 25.8293C43.8633 25.9373 45.0969 27.882 44.9941 29.6106Z" fill="black"/>
</svg>
