<svg width="50" height="50" viewBox="0 0 50 50" fill="none" xmlns="http://www.w3.org/2000/svg">
<path d="M11.1387 11C11.1387 8.79086 12.9295 7 15.1387 7H28.3102C28.8407 7 29.3494 7.21071 29.7245 7.58579L38.5529 16.4142C38.928 16.7893 39.1387 17.298 39.1387 17.8284V39C39.1387 41.2091 37.3478 43 35.1387 43H15.1387C12.9295 43 11.1387 41.2091 11.1387 39V11Z" fill="white"/>
<path fill-rule="evenodd" clip-rule="evenodd" d="M28.3102 7C28.8407 7 29.3494 7.21071 29.7245 7.58579L38.5529 16.4142C38.928 16.7893 39.1387 17.298 39.1387 17.8284V39C39.1387 41.2091 37.3478 43 35.1387 43H15.1387C12.9295 43 11.1387 41.2091 11.1387 39V11C11.1387 8.79086 12.9295 7 15.1387 7H28.3102ZM28.1387 14C28.1387 16.2091 29.9295 18 32.1387 18H38.1387V39C38.1387 40.6569 36.7955 42 35.1387 42H15.1387C13.4818 42 12.1387 40.6569 12.1387 39V11C12.1387 9.34315 13.4818 8 15.1387 8H28.1387V14ZM29.1387 14C29.1387 15.6569 30.4818 17 32.1387 17H37.7244L29.1387 8.41426V14Z" fill="#AEB7CC"/>
<path d="M40.1579 37.3332C40.7199 37.3326 41.2588 37.1129 41.6562 36.7223C42.0536 36.3317 42.2771 35.8022 42.2778 35.2498V24.7498C42.2771 24.1975 42.0536 23.668 41.6562 23.2774C41.2588 22.8868 40.7199 22.6671 40.1579 22.6665H10.1199C9.55785 22.6671 9.01901 22.8868 8.6216 23.2774C8.22418 23.668 8.00063 24.1975 8 24.7498V35.2498C8.00063 35.8022 8.22418 36.3317 8.6216 36.7223C9.01901 37.1129 9.55785 37.3326 10.1199 37.3332H40.1579Z" fill="#6176AE"/>
<path d="M16.8398 31.8867C16.8398 31.7539 16.8203 31.6348 16.7812 31.5293C16.7422 31.4199 16.6699 31.3184 16.5645 31.2246C16.459 31.1309 16.3066 31.0371 16.1074 30.9434C15.9121 30.8457 15.6543 30.7441 15.334 30.6387C14.959 30.5137 14.5977 30.373 14.25 30.2168C13.9023 30.0566 13.5918 29.8711 13.3184 29.6602C13.0449 29.4453 12.8281 29.1953 12.668 28.9102C12.5078 28.6211 12.4277 28.2852 12.4277 27.9023C12.4277 27.5352 12.5098 27.2051 12.6738 26.9121C12.8379 26.6152 13.0664 26.3633 13.3594 26.1562C13.6562 25.9453 14.0039 25.7852 14.4023 25.6758C14.8008 25.5625 15.2363 25.5059 15.709 25.5059C16.334 25.5059 16.8848 25.6152 17.3613 25.834C17.8418 26.0488 18.2168 26.3555 18.4863 26.7539C18.7598 27.1484 18.8965 27.6152 18.8965 28.1543H16.8516C16.8516 27.9395 16.8066 27.75 16.7168 27.5859C16.6309 27.4219 16.5 27.293 16.3242 27.1992C16.1484 27.1055 15.9277 27.0586 15.6621 27.0586C15.4043 27.0586 15.1875 27.0977 15.0117 27.1758C14.8359 27.2539 14.7031 27.3594 14.6133 27.4922C14.5234 27.6211 14.4785 27.7637 14.4785 27.9199C14.4785 28.0488 14.5137 28.166 14.584 28.2715C14.6582 28.373 14.7617 28.4688 14.8945 28.5586C15.0312 28.6484 15.1953 28.7344 15.3867 28.8164C15.582 28.8984 15.8008 28.9785 16.043 29.0566C16.4961 29.2012 16.8984 29.3633 17.25 29.543C17.6055 29.7188 17.9043 29.9199 18.1465 30.1465C18.3926 30.3691 18.5781 30.623 18.7031 30.9082C18.832 31.1934 18.8965 31.5156 18.8965 31.875C18.8965 32.2578 18.8223 32.5977 18.6738 32.8945C18.5254 33.1914 18.3125 33.4434 18.0352 33.6504C17.7578 33.8535 17.4258 34.0078 17.0391 34.1133C16.6523 34.2188 16.2207 34.2715 15.7441 34.2715C15.3066 34.2715 14.875 34.2168 14.4492 34.1074C14.0273 33.9941 13.6445 33.8223 13.3008 33.5918C12.957 33.3574 12.6816 33.0586 12.4746 32.6953C12.2715 32.3281 12.1699 31.8926 12.1699 31.3887H14.2324C14.2324 31.6387 14.2656 31.8496 14.332 32.0215C14.3984 32.1934 14.4961 32.332 14.625 32.4375C14.7539 32.5391 14.9121 32.6133 15.0996 32.6602C15.2871 32.7031 15.502 32.7246 15.7441 32.7246C16.0059 32.7246 16.2168 32.6875 16.377 32.6133C16.5371 32.5352 16.6543 32.4336 16.7285 32.3086C16.8027 32.1797 16.8398 32.0391 16.8398 31.8867Z" fill="white"/>
<path d="M24.0879 25.623V34.1543H22.0312V25.623H24.0879ZM26.6543 25.623V27.2109H19.5234V25.623H26.6543Z" fill="white"/>
<path d="M29.7129 25.623V34.1543H27.6621V25.623H29.7129Z" fill="white"/>
<path d="M38.1387 29.5957V33.0996C37.9941 33.2598 37.7715 33.4316 37.4707 33.6152C37.1738 33.7949 36.7988 33.9492 36.3457 34.0781C35.8926 34.207 35.3594 34.2715 34.7461 34.2715C34.1797 34.2715 33.666 34.1816 33.2051 34.002C32.7441 33.8184 32.3477 33.5508 32.0156 33.1992C31.6875 32.8438 31.4336 32.4102 31.2539 31.8984C31.0781 31.3828 30.9902 30.793 30.9902 30.1289V29.6543C30.9902 28.9902 31.0801 28.4004 31.2598 27.8848C31.4395 27.3691 31.6914 26.9355 32.0156 26.584C32.3438 26.2285 32.7285 25.959 33.1699 25.7754C33.6152 25.5918 34.1035 25.5 34.6348 25.5C35.4199 25.5 36.0586 25.625 36.5508 25.875C37.043 26.1211 37.416 26.4629 37.6699 26.9004C37.9238 27.334 38.0781 27.8359 38.1328 28.4062H36.1582C36.1191 28.125 36.0449 27.8867 35.9355 27.6914C35.8301 27.4922 35.6777 27.3418 35.4785 27.2402C35.2793 27.1348 35.0215 27.082 34.7051 27.082C34.459 27.082 34.2344 27.1348 34.0312 27.2402C33.832 27.3457 33.6621 27.5059 33.5215 27.7207C33.3809 27.9316 33.2715 28.1973 33.1934 28.5176C33.1191 28.8379 33.082 29.2129 33.082 29.6426V30.1289C33.082 30.5547 33.1172 30.9277 33.1875 31.248C33.2617 31.5684 33.3711 31.8359 33.5156 32.0508C33.6641 32.2617 33.8516 32.4219 34.0781 32.5312C34.3086 32.6367 34.5801 32.6895 34.8926 32.6895C35.1113 32.6895 35.2988 32.6719 35.4551 32.6367C35.6113 32.5977 35.7402 32.5508 35.8418 32.4961C35.9473 32.4375 36.0273 32.3828 36.082 32.332V31.0078H34.6523V29.5957H38.1387Z" fill="white"/>
</svg>
