<svg width="50" height="50" viewBox="0 0 50 50" fill="none" xmlns="http://www.w3.org/2000/svg">
<path d="M15.1976 6.88889C15.1976 5.2934 16.4515 4 17.9982 4H27.2205C27.5919 4 27.948 4.15218 28.2106 4.42307L34.392 10.7992C34.6546 11.07 34.8021 11.4374 34.8021 11.8205V27.1111C34.8021 28.7066 33.5482 30 32.0015 30H17.9982C16.4515 30 15.1976 28.7066 15.1976 27.1111V6.88889Z" fill="white"/>
<path fill-rule="evenodd" clip-rule="evenodd" d="M27.2205 4C27.5919 4 27.948 4.15218 28.2106 4.42307L34.392 10.7992C34.6546 11.07 34.8021 11.4374 34.8021 11.8205V27.1111C34.8021 28.7066 33.5482 30 32.0015 30H17.9982C16.4515 30 15.1976 28.7066 15.1976 27.1111V6.88889C15.1976 5.2934 16.4515 4 17.9982 4H27.2205ZM27.1003 9.05556C27.1003 10.651 28.3542 11.9444 29.901 11.9444H34.1019V27.1111C34.1019 28.3077 33.1615 29.2778 32.0015 29.2778H17.9982C16.8382 29.2778 15.8977 28.3077 15.8977 27.1111V6.88889C15.8977 5.69227 16.8382 4.72222 17.9982 4.72222H27.1003V9.05556ZM27.8005 9.05556C27.8005 10.2522 28.7409 11.2222 29.901 11.2222H33.8119L27.8005 5.02141V9.05556Z" fill="#AEB7CC"/>
<path d="M35.5157 25.9073C35.9093 25.9068 36.2865 25.7482 36.5648 25.4661C36.843 25.184 36.9996 24.8016 37 24.4027V16.8193C36.9996 16.4204 36.843 16.038 36.5648 15.7559C36.2865 15.4738 35.9093 15.3151 35.5157 15.3147H14.4843C14.0907 15.3151 13.7135 15.4738 13.4352 15.7559C13.157 16.038 13.0004 16.4204 13 16.8193V24.4027C13.0004 24.8016 13.157 25.184 13.4352 25.4661C13.7135 25.7482 14.0907 25.9068 14.4843 25.9073H35.5157Z" fill="#6176AE"/>
<path d="M19.1893 21.9737C19.1893 21.8778 19.1756 21.7918 19.1483 21.7156C19.1209 21.6366 19.0704 21.5633 18.9965 21.4956C18.9227 21.4278 18.816 21.3601 18.6765 21.2924C18.5398 21.2219 18.3592 21.1485 18.135 21.0724C17.8724 20.9821 17.6194 20.8805 17.376 20.7677C17.1326 20.652 16.9152 20.518 16.7237 20.3657C16.5323 20.2105 16.3805 20.0299 16.2683 19.824C16.1562 19.6152 16.1001 19.3726 16.1001 19.0961C16.1001 18.8309 16.1576 18.5926 16.2724 18.381C16.3873 18.1666 16.5473 17.9846 16.7524 17.8351C16.9603 17.6827 17.2037 17.5671 17.4827 17.4881C17.7616 17.4062 18.0666 17.3653 18.3975 17.3653C18.8351 17.3653 19.2208 17.4443 19.5544 17.6023C19.8909 17.7575 20.1534 17.9789 20.3421 18.2667C20.5336 18.5516 20.6293 18.8888 20.6293 19.2781H19.1975C19.1975 19.1229 19.1661 18.9861 19.1032 18.8676C19.043 18.7491 18.9514 18.656 18.8283 18.5883C18.7052 18.5206 18.5507 18.4868 18.3647 18.4868C18.1842 18.4868 18.0324 18.515 17.9093 18.5714C17.7863 18.6278 17.6933 18.704 17.6304 18.7999C17.5675 18.893 17.536 18.996 17.536 19.1088C17.536 19.2019 17.5606 19.2866 17.6099 19.3627C17.6618 19.4361 17.7343 19.5052 17.8273 19.5701C17.923 19.635 18.0379 19.697 18.1719 19.7563C18.3087 19.8155 18.4618 19.8734 18.6314 19.9298C18.9486 20.0342 19.2303 20.1513 19.4765 20.281C19.7254 20.408 19.9346 20.5533 20.1042 20.7169C20.2765 20.8777 20.4064 21.0611 20.4939 21.267C20.5842 21.473 20.6293 21.7057 20.6293 21.9653C20.6293 22.2418 20.5773 22.4872 20.4734 22.7016C20.3695 22.916 20.2204 23.098 20.0262 23.2475C19.832 23.3942 19.5996 23.5056 19.3288 23.5818C19.058 23.658 18.7558 23.6961 18.4222 23.6961C18.1158 23.6961 17.8136 23.6566 17.5155 23.5776C17.2201 23.4958 16.9521 23.3716 16.7114 23.2052C16.4707 23.0359 16.2779 22.8201 16.133 22.5577C15.9907 22.2925 15.9196 21.978 15.9196 21.614H17.3637C17.3637 21.7946 17.387 21.9469 17.4334 22.0711C17.4799 22.1952 17.5483 22.2954 17.6386 22.3715C17.7288 22.4449 17.8396 22.4985 17.9709 22.5323C18.1022 22.5634 18.2526 22.5789 18.4222 22.5789C18.6054 22.5789 18.7531 22.5521 18.8652 22.4985C18.9774 22.4421 19.0594 22.3687 19.1114 22.2784C19.1633 22.1853 19.1893 22.0838 19.1893 21.9737Z" fill="white"/>
<path d="M24.2641 17.45V23.6114H22.8241V17.45H24.2641ZM26.061 17.45V18.5968H21.0683V17.45H26.061Z" fill="white"/>
<path d="M28.2025 17.45V23.6114H26.7667V17.45H28.2025Z" fill="white"/>
<path d="M34.102 20.3191V22.8497C34.0008 22.9654 33.8449 23.0895 33.6343 23.2221C33.4264 23.3519 33.1638 23.4633 32.8466 23.5564C32.5293 23.6495 32.156 23.6961 31.7266 23.6961C31.33 23.6961 30.9704 23.6312 30.6476 23.5014C30.3249 23.3688 30.0473 23.1756 29.8148 22.9217C29.5851 22.6649 29.4073 22.3518 29.2815 21.9822C29.1584 21.6098 29.0969 21.1838 29.0969 20.7042V20.3614C29.0969 19.8818 29.1598 19.4558 29.2856 19.0834C29.4114 18.711 29.5878 18.3979 29.8148 18.144C30.0446 17.8873 30.314 17.6926 30.623 17.56C30.9348 17.4274 31.2767 17.3611 31.6487 17.3611C32.1984 17.3611 32.6456 17.4514 32.9902 17.6319C33.3348 17.8097 33.596 18.0565 33.7738 18.3725C33.9515 18.6857 34.0596 19.0482 34.0979 19.4601H32.7153C32.688 19.2569 32.636 19.0849 32.5594 18.9438C32.4856 18.7999 32.3789 18.6913 32.2394 18.6179C32.0999 18.5418 31.9194 18.5037 31.6979 18.5037C31.5256 18.5037 31.3683 18.5418 31.2261 18.6179C31.0866 18.6941 30.9676 18.8098 30.8692 18.965C30.7707 19.1173 30.6941 19.3091 30.6394 19.5405C30.5875 19.7718 30.5615 20.0426 30.5615 20.353V20.7042C30.5615 21.0117 30.5861 21.2811 30.6353 21.5125C30.6873 21.7438 30.7639 21.9371 30.8651 22.0922C30.969 22.2446 31.1003 22.3602 31.2589 22.4392C31.4203 22.5154 31.6104 22.5535 31.8292 22.5535C31.9823 22.5535 32.1136 22.5408 32.223 22.5154C32.3324 22.4872 32.4227 22.4533 32.4938 22.4138C32.5676 22.3715 32.6237 22.332 32.662 22.2954V21.339H31.661V20.3191H34.102Z" fill="white"/>
<path d="M7.12305 35.8906H8.03613L10.3652 41.6865L12.6895 35.8906H13.6074L10.7168 43H10.0039L7.12305 35.8906ZM6.8252 35.8906H7.63086L7.7627 40.2266V43H6.8252V35.8906ZM13.0947 35.8906H13.9004V43H12.9629V40.2266L13.0947 35.8906Z" fill="black"/>
<path d="M18.1342 42.0967V39.377C18.1342 39.1686 18.0919 38.988 18.0072 38.835C17.9258 38.6787 17.8021 38.5583 17.6361 38.4736C17.4701 38.389 17.265 38.3467 17.0209 38.3467C16.793 38.3467 16.5928 38.3857 16.4203 38.4639C16.251 38.542 16.1176 38.6445 16.0199 38.7715C15.9255 38.8984 15.8783 39.0352 15.8783 39.1816H14.975C14.975 38.9928 15.0238 38.8057 15.1215 38.6201C15.2191 38.4346 15.3591 38.2669 15.5414 38.1172C15.727 37.9642 15.9483 37.8438 16.2055 37.7559C16.4659 37.6647 16.7556 37.6191 17.0746 37.6191C17.4587 37.6191 17.7973 37.6842 18.0902 37.8145C18.3865 37.9447 18.6176 38.1416 18.7836 38.4053C18.9529 38.6657 19.0375 38.9928 19.0375 39.3867V41.8477C19.0375 42.0234 19.0521 42.2106 19.0814 42.4092C19.114 42.6077 19.1612 42.7786 19.223 42.9219V43H18.2807C18.2351 42.8958 18.1993 42.7575 18.1732 42.585C18.1472 42.4092 18.1342 42.2464 18.1342 42.0967ZM18.2904 39.7969L18.3002 40.4316H17.3871C17.1299 40.4316 16.9005 40.4528 16.6986 40.4951C16.4968 40.5342 16.3275 40.5944 16.1908 40.6758C16.0541 40.7572 15.9499 40.8597 15.8783 40.9834C15.8067 41.1038 15.7709 41.2454 15.7709 41.4082C15.7709 41.5742 15.8083 41.7256 15.8832 41.8623C15.9581 41.999 16.0704 42.1081 16.2201 42.1895C16.3731 42.2676 16.5603 42.3066 16.7816 42.3066C17.0583 42.3066 17.3025 42.248 17.5141 42.1309C17.7257 42.0137 17.8933 41.8704 18.017 41.7012C18.1439 41.5319 18.2123 41.3675 18.2221 41.208L18.6078 41.6426C18.585 41.7793 18.5232 41.9307 18.4223 42.0967C18.3214 42.2627 18.1863 42.4222 18.017 42.5752C17.851 42.7249 17.6524 42.8503 17.4213 42.9512C17.1934 43.0488 16.9363 43.0977 16.6498 43.0977C16.2917 43.0977 15.9776 43.0277 15.7074 42.8877C15.4405 42.7477 15.2322 42.5605 15.0824 42.3262C14.9359 42.0885 14.8627 41.8232 14.8627 41.5303C14.8627 41.2471 14.918 40.998 15.0287 40.7832C15.1394 40.5651 15.2989 40.3844 15.5072 40.2412C15.7156 40.0947 15.9662 39.984 16.2592 39.9092C16.5521 39.8343 16.8793 39.7969 17.2406 39.7969H18.2904Z" fill="black"/>
<path d="M20.9617 38.8447V43H20.0584V37.7168H20.9129L20.9617 38.8447ZM20.7469 40.1582L20.3709 40.1436C20.3742 39.7822 20.4279 39.4486 20.532 39.1426C20.6362 38.8333 20.7827 38.5648 20.9715 38.3369C21.1603 38.109 21.3849 37.9333 21.6453 37.8096C21.909 37.6826 22.2003 37.6191 22.5193 37.6191C22.7798 37.6191 23.0141 37.6549 23.2225 37.7266C23.4308 37.7949 23.6082 37.9056 23.7547 38.0586C23.9044 38.2116 24.0184 38.4102 24.0965 38.6543C24.1746 38.8952 24.2137 39.1898 24.2137 39.5381V43H23.3055V39.5283C23.3055 39.2516 23.2648 39.0303 23.1834 38.8643C23.102 38.695 22.9832 38.5729 22.827 38.498C22.6707 38.4199 22.4786 38.3809 22.2508 38.3809C22.0262 38.3809 21.8211 38.4281 21.6355 38.5225C21.4533 38.6169 21.2954 38.7471 21.1619 38.9131C21.0317 39.0791 20.9292 39.2695 20.8543 39.4844C20.7827 39.696 20.7469 39.9206 20.7469 40.1582Z" fill="black"/>
<path d="M28.301 42.0967V39.377C28.301 39.1686 28.2587 38.988 28.174 38.835C28.0926 38.6787 27.9689 38.5583 27.8029 38.4736C27.6369 38.389 27.4318 38.3467 27.1877 38.3467C26.9598 38.3467 26.7596 38.3857 26.5871 38.4639C26.4178 38.542 26.2844 38.6445 26.1867 38.7715C26.0923 38.8984 26.0451 39.0352 26.0451 39.1816H25.1418C25.1418 38.9928 25.1906 38.8057 25.2883 38.6201C25.3859 38.4346 25.5259 38.2669 25.7082 38.1172C25.8937 37.9642 26.1151 37.8438 26.3723 37.7559C26.6327 37.6647 26.9224 37.6191 27.2414 37.6191C27.6255 37.6191 27.9641 37.6842 28.257 37.8145C28.5533 37.9447 28.7844 38.1416 28.9504 38.4053C29.1197 38.6657 29.2043 38.9928 29.2043 39.3867V41.8477C29.2043 42.0234 29.2189 42.2106 29.2482 42.4092C29.2808 42.6077 29.328 42.7786 29.3898 42.9219V43H28.4475C28.4019 42.8958 28.3661 42.7575 28.34 42.585C28.314 42.4092 28.301 42.2464 28.301 42.0967ZM28.4572 39.7969L28.467 40.4316H27.5539C27.2967 40.4316 27.0673 40.4528 26.8654 40.4951C26.6636 40.5342 26.4943 40.5944 26.3576 40.6758C26.2209 40.7572 26.1167 40.8597 26.0451 40.9834C25.9735 41.1038 25.9377 41.2454 25.9377 41.4082C25.9377 41.5742 25.9751 41.7256 26.05 41.8623C26.1249 41.999 26.2372 42.1081 26.3869 42.1895C26.5399 42.2676 26.7271 42.3066 26.9484 42.3066C27.2251 42.3066 27.4693 42.248 27.6809 42.1309C27.8924 42.0137 28.0601 41.8704 28.1838 41.7012C28.3107 41.5319 28.3791 41.3675 28.3889 41.208L28.7746 41.6426C28.7518 41.7793 28.69 41.9307 28.5891 42.0967C28.4881 42.2627 28.3531 42.4222 28.1838 42.5752C28.0178 42.7249 27.8192 42.8503 27.5881 42.9512C27.3602 43.0488 27.1031 43.0977 26.8166 43.0977C26.4585 43.0977 26.1444 43.0277 25.8742 42.8877C25.6073 42.7477 25.399 42.5605 25.2492 42.3262C25.1027 42.0885 25.0295 41.8232 25.0295 41.5303C25.0295 41.2471 25.0848 40.998 25.1955 40.7832C25.3062 40.5651 25.4657 40.3844 25.674 40.2412C25.8824 40.0947 26.133 39.984 26.426 39.9092C26.7189 39.8343 27.0461 39.7969 27.4074 39.7969H28.4572Z" fill="black"/>
<path d="M33.648 37.7168H34.4684V42.8877C34.4684 43.3532 34.374 43.7503 34.1852 44.0791C33.9964 44.4079 33.7327 44.6569 33.3941 44.8262C33.0589 44.9987 32.6715 45.085 32.232 45.085C32.0497 45.085 31.8349 45.0557 31.5875 44.9971C31.3434 44.9417 31.1025 44.8457 30.8648 44.709C30.6305 44.5755 30.4335 44.3949 30.274 44.167L30.7477 43.6299C30.969 43.8968 31.2001 44.0824 31.441 44.1865C31.6852 44.2907 31.926 44.3428 32.1637 44.3428C32.4501 44.3428 32.6975 44.2891 32.9059 44.1816C33.1142 44.0742 33.2753 43.9147 33.3893 43.7031C33.5064 43.4948 33.565 43.2376 33.565 42.9316V38.8789L33.648 37.7168ZM30.0104 40.417V40.3145C30.0104 39.9108 30.0576 39.5446 30.152 39.2158C30.2496 38.8838 30.388 38.599 30.567 38.3613C30.7493 38.1237 30.969 37.9414 31.2262 37.8145C31.4833 37.6842 31.773 37.6191 32.0953 37.6191C32.4273 37.6191 32.7171 37.6777 32.9645 37.7949C33.2151 37.9089 33.4267 38.0765 33.5992 38.2979C33.775 38.516 33.9133 38.7796 34.0143 39.0889C34.1152 39.3981 34.1852 39.748 34.2242 40.1387V40.5879C34.1884 40.9753 34.1184 41.3236 34.0143 41.6328C33.9133 41.9421 33.775 42.2057 33.5992 42.4238C33.4267 42.6419 33.2151 42.8096 32.9645 42.9268C32.7138 43.0407 32.4208 43.0977 32.0855 43.0977C31.7698 43.0977 31.4833 43.0309 31.2262 42.8975C30.9723 42.764 30.7542 42.5768 30.5719 42.3359C30.3896 42.0951 30.2496 41.8118 30.152 41.4863C30.0576 41.1576 30.0104 40.8011 30.0104 40.417ZM30.9137 40.3145V40.417C30.9137 40.6807 30.9397 40.9281 30.9918 41.1592C31.0471 41.3903 31.1301 41.5938 31.2408 41.7695C31.3548 41.9453 31.4996 42.0837 31.6754 42.1846C31.8512 42.2822 32.0611 42.3311 32.3053 42.3311C32.6048 42.3311 32.8521 42.2676 33.0475 42.1406C33.2428 42.0137 33.3974 41.846 33.5113 41.6377C33.6285 41.4294 33.7197 41.2031 33.7848 40.959V39.7822C33.749 39.6032 33.6936 39.4307 33.6187 39.2646C33.5471 39.0954 33.4527 38.9456 33.3355 38.8154C33.2216 38.682 33.08 38.5762 32.9107 38.498C32.7415 38.4199 32.5429 38.3809 32.315 38.3809C32.0676 38.3809 31.8544 38.4329 31.6754 38.5371C31.4996 38.638 31.3548 38.778 31.2408 38.957C31.1301 39.1328 31.0471 39.3379 30.9918 39.5723C30.9397 39.8034 30.9137 40.0508 30.9137 40.3145Z" fill="black"/>
<path d="M37.6328 43.0977C37.265 43.0977 36.9313 43.0358 36.6318 42.9121C36.3356 42.7852 36.0801 42.6077 35.8652 42.3799C35.6536 42.152 35.4909 41.8818 35.377 41.5693C35.263 41.2568 35.2061 40.915 35.2061 40.5439V40.3389C35.2061 39.9092 35.2695 39.5267 35.3965 39.1914C35.5234 38.8529 35.696 38.5664 35.9141 38.332C36.1322 38.0977 36.3796 37.9202 36.6562 37.7998C36.9329 37.6794 37.2194 37.6191 37.5156 37.6191C37.8932 37.6191 38.2188 37.6842 38.4922 37.8145C38.7689 37.9447 38.9951 38.127 39.1709 38.3613C39.3467 38.5924 39.4769 38.8659 39.5615 39.1816C39.6462 39.4941 39.6885 39.8359 39.6885 40.207V40.6123H35.7432V39.875H38.7852V39.8066C38.7721 39.5723 38.7233 39.3444 38.6387 39.123C38.5573 38.9017 38.4271 38.7194 38.248 38.5762C38.069 38.4329 37.8249 38.3613 37.5156 38.3613C37.3105 38.3613 37.1217 38.4053 36.9492 38.4932C36.7767 38.5778 36.6286 38.7048 36.5049 38.874C36.3812 39.0433 36.2852 39.25 36.2168 39.4941C36.1484 39.7383 36.1143 40.0199 36.1143 40.3389V40.5439C36.1143 40.7946 36.1484 41.0306 36.2168 41.252C36.2884 41.4701 36.391 41.6621 36.5244 41.8281C36.6611 41.9941 36.8255 42.1243 37.0176 42.2188C37.2129 42.3132 37.4342 42.3604 37.6816 42.3604C38.0007 42.3604 38.2708 42.2952 38.4922 42.165C38.7135 42.0348 38.9072 41.8607 39.0732 41.6426L39.6201 42.0771C39.5062 42.2497 39.3613 42.4141 39.1855 42.5703C39.0098 42.7266 38.7933 42.8535 38.5361 42.9512C38.2822 43.0488 37.9811 43.0977 37.6328 43.0977Z" fill="black"/>
<path d="M41.2465 38.5469V43H40.3432V37.7168H41.2221L41.2465 38.5469ZM42.8969 37.6875L42.892 38.5273C42.8171 38.5111 42.7455 38.5013 42.6771 38.498C42.612 38.4915 42.5372 38.4883 42.4525 38.4883C42.2442 38.4883 42.0603 38.5208 41.9008 38.5859C41.7413 38.651 41.6062 38.7422 41.4955 38.8594C41.3848 38.9766 41.2969 39.1165 41.2318 39.2793C41.17 39.4388 41.1293 39.6146 41.1098 39.8066L40.8559 39.9531C40.8559 39.6341 40.8868 39.3346 40.9486 39.0547C41.0137 38.7747 41.113 38.5273 41.2465 38.3125C41.3799 38.0944 41.5492 37.9251 41.7543 37.8047C41.9626 37.681 42.21 37.6191 42.4965 37.6191C42.5616 37.6191 42.6365 37.6273 42.7211 37.6436C42.8057 37.6566 42.8643 37.6712 42.8969 37.6875Z" fill="black"/>
</svg>
