<svg width="50" height="50" viewBox="0 0 50 50" fill="none" xmlns="http://www.w3.org/2000/svg">
<path d="M46 25C46 36.598 36.598 46 25 46C13.402 46 4 36.598 4 25C4 13.402 13.402 4 25 4C36.598 4 46 13.402 46 25Z" fill="#F04F26"/>
<path d="M7.15 28.3325L7.83055 27.8596C7.95645 28.0346 8.12456 28.175 8.31926 28.2678C8.51397 28.3605 8.72896 28.4026 8.9443 28.3902C9.44742 28.3902 9.67442 28.2235 9.67442 27.948C9.67442 27.6136 9.36866 27.5643 8.66908 27.3664C8.05755 27.1997 7.44625 26.9137 7.44625 26.0955C7.44625 25.2686 8.10733 24.8736 8.9255 24.8736C9.19612 24.8673 9.4649 24.9196 9.71341 25.0268C9.96193 25.1341 10.1843 25.2937 10.3654 25.4948L9.78415 26.0667C9.67948 25.9405 9.54829 25.8388 9.3999 25.769C9.25151 25.6991 9.08954 25.6627 8.9255 25.6624C8.55071 25.6624 8.34406 25.8003 8.34406 26.0466C8.34406 26.3621 8.5996 26.4302 9.25117 26.5993C9.90274 26.7684 10.6112 27.0227 10.6112 27.9001C10.6112 28.6091 10.1778 29.1903 9.00426 29.1903C8.05755 29.1903 7.42634 28.7762 7.15 28.3325Z" fill="#FFFEFF"/>
<path d="M11.057 27.4497V25.0179H12.04V27.3708C12.04 27.9542 12.3121 28.2951 12.8862 28.2951C13.5279 28.2951 13.9261 27.8959 13.9261 27.234V25.0172H14.9089V29.1011H13.9261L13.9411 28.5264C13.7887 28.7442 13.5829 28.9194 13.3434 29.0351C13.1039 29.1507 12.8387 29.2031 12.5732 29.1872C11.6785 29.1872 11.0557 28.5553 11.0557 27.4473" fill="#FFFEFF"/>
<path d="M15.664 25.0188H16.6468L16.6275 25.7191C16.7326 25.4844 16.9034 25.2852 17.1193 25.1454C17.3353 25.0056 17.5871 24.9313 17.8444 24.9314C18.1008 24.9171 18.3551 24.9849 18.5704 25.1248C18.7856 25.2648 18.9507 25.4696 19.0415 25.7096C19.1887 25.4708 19.3949 25.2737 19.6403 25.1375C19.8856 25.0012 20.1619 24.9302 20.4427 24.9314C21.4058 24.9314 21.9792 25.5725 21.9792 26.6134V29.1025H20.9964V26.7105C20.9964 26.1472 20.7922 25.8359 20.2281 25.8359C19.6546 25.8359 19.3134 26.1858 19.3134 26.8663V29.1025H18.3313V26.7105C18.3313 26.1472 18.1364 25.8359 17.572 25.8359C16.9884 25.8359 16.6476 26.1858 16.6476 26.8663V29.1025H15.6649L15.664 25.0188Z" fill="#FFFEFF"/>
<path d="M25.0623 27.0608C25.0473 26.6223 25.1638 26.1892 25.3967 25.8172C25.6296 25.4452 25.9684 25.151 26.3696 24.9726C26.7709 24.7942 27.2163 24.7395 27.6488 24.8156C28.0813 24.8917 28.4812 25.0951 28.7973 25.3997C29.1135 25.7043 29.3313 26.0963 29.4231 26.5255C29.5148 26.9546 29.4763 27.4014 29.3123 27.8085C29.1484 28.2156 28.8665 28.5646 28.5029 28.8106C28.1393 29.0567 27.7104 29.1886 27.2712 29.1896C26.9851 29.1992 26.7 29.1514 26.4328 29.0488C26.1656 28.9463 25.9217 28.7911 25.7156 28.5926C25.5096 28.394 25.3456 28.1561 25.2334 27.893C25.1211 27.6298 25.0629 27.3469 25.0623 27.0608ZM28.458 27.0608C28.458 26.3121 28.0007 25.7868 27.2712 25.7868C26.5418 25.7868 26.0738 26.3121 26.0738 27.0608C26.0738 27.8096 26.5413 28.3431 27.2712 28.3431C28.0011 28.3431 28.458 27.8081 28.458 27.0608Z" fill="#FFFEFF"/>
<path d="M34.4677 25.7479C34.2641 25.742 34.0618 25.7828 33.8764 25.8671C33.6911 25.9514 33.5275 26.077 33.3982 26.2343L32.8335 25.6608C33.1931 25.2332 33.6796 24.9312 34.546 24.9312C35.529 24.9312 36.2677 25.4839 36.2677 26.6912V29.1023H35.2858L35.3079 28.6411C35.1533 28.8267 34.9569 28.9732 34.7348 29.0685C34.5127 29.1638 34.2712 29.2052 34.03 29.1894C33.2225 29.1894 32.561 28.8102 32.561 27.8968C32.561 27.0505 33.2417 26.6808 34.1657 26.6724H35.2858C35.2858 26.0205 34.9933 25.7479 34.4677 25.7479ZM34.234 27.3524C33.8066 27.3524 33.5238 27.5072 33.5238 27.8671C33.5238 28.2184 33.7962 28.4017 34.3019 28.4017C34.8752 28.4017 35.2854 28.1203 35.2854 27.6735V27.3527L34.234 27.3524Z" fill="#FFFEFF"/>
<path d="M37.9833 23.0884H37.0005V29.1027H37.9833V23.0884Z" fill="#FFFEFF"/>
<path d="M24.7862 29.2H24.0083C23.2392 29.2 22.714 28.8105 22.714 27.7214V23.686H23.6974V25.0188H24.7862V25.845H23.6972V27.6527C23.6972 28.1189 23.8521 28.2549 24.1054 28.2549H24.7862V29.2Z" fill="#FFFEFF"/>
<path d="M32.0884 29.2H31.31C30.5417 29.2 30.0157 28.8105 30.0157 27.7214V23.686H30.9985V25.0188H32.0886V25.845H30.9985V27.6527C30.9985 28.1189 31.1534 28.2549 31.4074 28.2549H32.0884V29.2Z" fill="#FFFEFF"/>
<path d="M39.2295 21.4208V22.3493L39.849 22.9683V21.1113C39.849 21.029 39.8164 20.9501 39.7584 20.8918C39.7004 20.8335 39.6216 20.8005 39.5393 20.8H37.6797L38.3025 21.4219L39.2295 21.4208Z" fill="#FFFEFF"/>
<path d="M42.2305 22.4201V23.3486L42.85 23.9676V22.1105C42.8498 22.0281 42.8169 21.9491 42.7587 21.8908C42.7004 21.8325 42.6214 21.7995 42.5389 21.799H40.6789L41.3015 22.4211L42.2305 22.4201Z" fill="#FFFEFF"/>
<path d="M40.4855 24.2824V25.2109L41.105 25.8299V23.9715C41.1046 23.8894 41.0716 23.8107 41.0133 23.7527C40.955 23.6947 40.8762 23.6622 40.794 23.6621H38.9344L39.5572 24.283L40.4855 24.2824Z" fill="#FFFEFF"/>
</svg>
