<?xml version="1.0" encoding="utf-8"?>
<!-- Generator: Adobe Illustrator 26.0.1, SVG Export Plug-In . SVG Version: 6.00 Build 0)  -->
<svg version="1.1" id="Color" xmlns="http://www.w3.org/2000/svg" xmlns:xlink="http://www.w3.org/1999/xlink" x="0px" y="0px"
	 viewBox="0 0 36 36" style="enable-background:new 0 0 36 36;" xml:space="preserve">
<style type="text/css">
	.st0{clip-path:url(#SVGID_00000060751277124539657510000006232478016629399453_);fill:#F18A00;}
</style>
<g>
	<g>
		<defs>
			<path id="SVGID_1_" d="M24.2,24.1c1.1-0.1,2.9-0.8,2.9-0.8c0.1,1,2.6,1.8,3.8,2.3c0.8-1.4,1.4-2.9,1.8-4.5
				c-2,0.1-4.2,0.6-6.5,1.5c-8.1,3.4-10.8-5.9-22.1,0.2c0,0,1.4-2.2,4.2-2.9c0,0,0.5-2.8,3-3.3c0,0,1.6-0.2,2.6,0.2
				c0,0-2.7-3.3-1.1-9.2c0-0.1,3.4,8.3,10,10.7c4.3,1.6,6.1,0.4,10.1,1c0-0.4,0.1-0.8,0.1-1.3c0-8.3-6.7-15-15-15S3,9.7,3,18
				s6.7,15,15,15c5.4,0,10.2-2.9,12.8-7.2C25.7,25.9,24.2,24.1,24.2,24.1z"/>
		</defs>
		<clipPath id="SVGID_00000152223183382879489670000000348496284125384096_">
			<use xlink:href="#SVGID_1_"  style="overflow:visible;"/>
		</clipPath>
		<path style="clip-path:url(#SVGID_00000152223183382879489670000000348496284125384096_);fill:#F18A00;" d="M32.5,28.5
			c-7.8,8.9-21.4,9.8-30.3,2c-8.9-7.8-9.8-21.4-2-30.3s21.4-9.8,30.3-2C39.4,6,40.3,19.6,32.5,28.5z"/>
	</g>
</g>
</svg>
