<svg width="50" height="50" viewBox="0 0 50 50" fill="none" xmlns="http://www.w3.org/2000/svg">
<path d="M2 24.985L3.64843 24.8196C3.7502 25.4123 3.95184 25.8494 4.25524 26.1289C4.56008 26.4063 4.97195 26.5445 5.48942 26.5445C6.03603 26.5445 6.44885 26.4191 6.72932 26.1729C7.00645 25.9211 7.14358 25.634 7.14358 25.3054C7.14358 25.0919 7.08481 24.9061 6.96966 24.7567C6.8526 24.6098 6.64905 24.4767 6.3595 24.3713C6.1593 24.2894 5.70634 24.1589 5.00062 23.9669C4.0904 23.7269 3.4511 23.4264 3.08749 23.0738C2.57146 22.5722 2.31249 21.9611 2.31249 21.2455C2.31249 20.7849 2.43146 20.3493 2.67801 19.9521C2.91978 19.5488 3.2724 19.2422 3.73157 19.0293C4.18931 18.8246 4.73735 18.7176 5.39051 18.7176C6.44598 18.7176 7.24057 18.9679 7.77667 19.4654C8.31134 19.9721 8.5899 20.637 8.61618 21.4712L6.90946 21.5327C6.83396 21.0771 6.68298 20.7414 6.44121 20.5356C6.20421 20.3314 5.84538 20.229 5.37044 20.229C4.87782 20.229 4.4908 20.3375 4.21367 20.5586C4.03211 20.7009 3.94276 20.8837 3.94276 21.1171C3.94276 21.3346 4.0259 21.5137 4.19504 21.6668C4.40766 21.8643 4.92991 22.0655 5.75555 22.2723C6.58311 22.4831 7.19279 22.7012 7.58746 22.9269C7.98308 23.1526 8.29414 23.4602 8.51775 23.8528C8.73945 24.2356 8.85508 24.7249 8.85508 25.2997C8.85508 25.8177 8.71938 26.308 8.45133 26.759C8.18329 27.2099 7.80295 27.5508 7.3132 27.7724C6.82154 27.9879 6.21043 28.103 5.47843 28.103C4.41244 28.103 3.59157 27.8364 3.02107 27.3025C2.45153 26.7718 2.11085 25.9984 2 24.985Z" fill="#A7A5A6"/>
<path d="M8.63923 21.3681H10.3507L11.8128 26.0303L13.2376 21.3681H14.9057L12.7617 27.682L12.369 28.8341C12.2271 29.2185 12.0933 29.5098 11.9652 29.7114C11.8372 29.9172 11.6895 30.083 11.5233 30.2064C11.3536 30.3287 11.1487 30.4275 10.9098 30.4976C10.6651 30.5687 10.3909 30.6082 10.0841 30.6082C9.77498 30.6082 9.46966 30.5687 9.16912 30.4976L9.03533 29.1336C9.28618 29.1904 9.5141 29.2185 9.71621 29.2185C10.0889 29.2185 10.3665 29.1008 10.5447 28.8659C10.7249 28.6243 10.8625 28.3192 10.9575 27.9538L8.63923 21.3681Z" fill="#A7A5A6"/>
<path d="M20.5179 27.9351H18.9063V24.5919C18.9063 23.8876 18.8729 23.4336 18.8017 23.2237C18.7309 23.0164 18.6215 22.8547 18.4629 22.739C18.3071 22.6249 18.116 22.5671 17.8977 22.5671C17.6143 22.5671 17.363 22.651 17.1365 22.8163C16.91 22.9796 16.7576 23.1961 16.6745 23.4633C16.5928 23.7376 16.5498 24.2356 16.5498 24.9711V27.9351H14.9415V21.3673H16.4313V22.3291C16.9674 21.6017 17.6401 21.2424 18.4519 21.2424C18.8127 21.2424 19.139 21.3131 19.4367 21.4451C19.7339 21.5874 19.9603 21.7584 20.1094 21.9749C20.2609 22.1893 20.367 22.4319 20.4272 22.7006C20.4869 22.9683 20.5179 23.3614 20.5179 23.8656V27.9351Z" fill="#A7A5A6"/>
<path d="M22.1769 24.6697C22.1769 25.3253 22.3203 25.8264 22.6113 26.1662C22.9013 26.5169 23.2568 26.6914 23.682 26.6914C24.1073 26.6914 24.4632 26.5169 24.7528 26.1662C25.0376 25.8264 25.1809 25.3197 25.1809 24.6615C25.1809 24.0125 25.0376 23.5165 24.7528 23.1731C24.4632 22.8296 24.1073 22.6515 23.682 22.6515C23.2568 22.6515 22.9013 22.8296 22.6113 23.1731C22.3203 23.5165 22.1769 24.0181 22.1769 24.6697ZM20.5271 24.5821C20.5271 23.9997 20.6613 23.4469 20.926 22.9038C21.1907 22.3659 21.5668 21.9534 22.0537 21.6667C22.5405 21.3817 23.0843 21.243 23.6835 21.243C24.6123 21.243 25.3706 21.5644 25.9616 22.2093C26.5546 22.8547 26.8523 23.6701 26.8523 24.6533C26.8523 25.6467 26.5522 26.4667 25.954 27.1213C25.3567 27.7724 24.6018 28.1035 23.6944 28.1035C23.1335 28.1035 22.5988 27.9648 22.0876 27.693C21.5778 27.4207 21.1907 27.0225 20.926 26.4948C20.6613 25.9728 20.5271 25.3345 20.5271 24.5821Z" fill="#A7A5A6"/>
<path d="M28.83 18V26.4795C28.83 26.8838 28.8577 27.1515 28.9107 27.2795C28.9661 27.4136 29.0488 27.5124 29.1611 27.5794C29.2753 27.6465 29.4865 27.6813 29.7913 27.6813V27.9351H26.8662V27.6813C27.1404 27.6813 27.3268 27.6511 27.4319 27.5871C27.5284 27.5241 27.6068 27.4284 27.6636 27.2866C27.721 27.1479 27.7472 26.8792 27.7472 26.4795V20.6933C27.7472 19.9649 27.7334 19.5196 27.7042 19.3512C27.6765 19.1844 27.6268 19.0728 27.5623 19.0134C27.4959 18.9505 27.4133 18.9157 27.3124 18.9157C27.2035 18.9157 27.063 18.9587 26.8953 19.0298L26.784 18.7816L28.5409 18H28.83Z" fill="#231F20"/>
<path d="M32.4952 21.8167C32.2639 21.8167 32.0332 21.8807 31.8005 22.0312C31.5678 22.1791 31.3786 22.432 31.2347 22.7954C31.0919 23.1659 31.0197 23.6348 31.0197 24.21C31.0197 25.14 31.1951 25.9329 31.5381 26.6121C31.885 27.2795 32.3394 27.6199 32.9032 27.6199C33.3285 27.6199 33.6749 27.4295 33.9463 27.062C34.222 26.6914 34.3596 26.0542 34.3596 25.1467C34.3596 24.0125 34.1312 23.1265 33.6749 22.4749C33.3658 22.0322 32.9725 21.8167 32.4952 21.8167ZM32.6954 21.3464C33.6027 21.3464 34.3285 21.7144 34.878 22.4504C35.3434 23.0774 35.5761 23.798 35.5761 24.6118C35.5761 25.1861 35.4499 25.7655 35.1924 26.349C34.9349 26.9345 34.5822 27.3773 34.1293 27.6741C33.6782 27.9725 33.1789 28.1215 32.6261 28.1215C31.7221 28.1215 31.0054 27.7371 30.4755 26.9719C30.0273 26.327 29.8023 25.6002 29.8023 24.793C29.8023 24.2054 29.938 23.6266 30.2089 23.0502C30.4836 22.4668 30.8406 22.0424 31.2859 21.7584C31.7297 21.4861 32.1994 21.3464 32.6954 21.3464Z" fill="#231F20"/>
<path d="M38.021 21.699C37.7004 21.699 37.4357 21.8423 37.2178 22.1151C37.0028 22.3874 36.8963 22.7963 36.8963 23.3624C36.8963 24.0913 37.0425 24.6563 37.3354 25.0607C37.5614 25.3647 37.8437 25.5167 38.1873 25.5167C38.5151 25.5167 38.7865 25.3821 38.9957 25.119C39.2069 24.8554 39.3116 24.4449 39.3116 23.884C39.3116 23.1459 39.1654 22.5737 38.8682 22.1591C38.6446 21.8576 38.3641 21.699 38.021 21.699ZM36.8318 27.9351C36.633 28.1654 36.4849 28.3871 36.3817 28.5954C36.2785 28.7899 36.2307 28.9808 36.2307 29.1471C36.2307 29.3759 36.354 29.5668 36.6053 29.7337C37.0396 30.0178 37.6665 30.1657 38.485 30.1657C39.2638 30.1657 39.8367 30.0178 40.2098 29.724C40.5825 29.4332 40.766 29.1221 40.766 28.7899C40.766 28.5539 40.6552 28.3825 40.433 28.2801C40.2065 28.1772 39.7602 28.1178 39.088 28.103C38.1104 28.0718 37.3564 28.0109 36.8318 27.9351ZM36.8853 25.5904C36.5221 25.3923 36.246 25.1318 36.0491 24.7904C35.8566 24.4449 35.7591 24.0703 35.7591 23.6593C35.7591 23.0256 35.9784 22.479 36.4218 22.0306C36.8671 21.5756 37.4371 21.3458 38.1304 21.3458C38.6966 21.3458 39.1883 21.4891 39.604 21.788H40.8663C41.0541 21.788 41.1616 21.7947 41.1941 21.806C41.2223 21.8213 41.2414 21.8423 41.2572 21.8653C41.282 21.9088 41.2969 21.983 41.2969 22.0885C41.2969 22.2103 41.2849 22.2999 41.2634 22.3423C41.25 22.3659 41.228 22.3874 41.1941 22.3966C41.1616 22.4104 41.0541 22.4166 40.8644 22.4166H40.0866C40.3331 22.7528 40.455 23.1828 40.455 23.7059C40.455 24.2996 40.2395 24.8124 39.8166 25.2337C39.3914 25.658 38.8218 25.8724 38.1104 25.8724C37.8146 25.8724 37.5136 25.8259 37.2044 25.722C37.0229 25.9052 36.8991 26.0577 36.838 26.1903C36.7716 26.3264 36.7391 26.437 36.7391 26.5266C36.7391 26.612 36.7744 26.6852 36.8485 26.7635C36.9178 26.8357 37.0597 26.8905 37.2675 26.9207C37.386 26.9447 37.6928 26.9626 38.1763 26.9775C39.0679 27.0077 39.6475 27.044 39.9093 27.0916C40.313 27.1515 40.6365 27.3143 40.8769 27.5707C41.1172 27.8292 41.2371 28.145 41.2371 28.5222C41.2371 29.0407 41.0063 29.5346 40.5477 29.9911C39.8754 30.6632 38.9943 31 37.9083 31C37.0735 31 36.3678 30.8029 35.7921 30.3986C35.4667 30.1657 35.3066 29.9267 35.3066 29.6738C35.3066 29.5668 35.33 29.4527 35.3744 29.3411C35.4466 29.1661 35.5961 28.9368 35.8207 28.6292C35.8503 28.5851 36.0692 28.3359 36.471 27.8793C36.2474 27.7289 36.0878 27.6019 35.997 27.4842C35.9039 27.3701 35.8566 27.2385 35.8566 27.0957C35.8566 26.9299 35.9163 26.74 36.0381 26.5225C36.1614 26.2998 36.4447 25.9866 36.8853 25.5904Z" fill="#231F20"/>
<path d="M41.4818 21.5327H44.2745V21.7886H44.1393C43.942 21.7886 43.7958 21.8377 43.6974 21.9242C43.5999 22.0179 43.5526 22.1305 43.5526 22.262C43.5526 22.4473 43.6219 22.6966 43.7681 23.0165L45.2239 26.2523L46.5565 22.7171C46.6301 22.5226 46.6674 22.3363 46.6674 22.1433C46.6674 22.0604 46.6488 21.9995 46.6215 21.9585C46.5857 21.9089 46.5317 21.8649 46.4576 21.8377C46.385 21.8065 46.2531 21.7886 46.0682 21.7886V21.5327H48V21.7886C47.8395 21.8065 47.7152 21.8459 47.6287 21.9007C47.5404 21.9585 47.4453 22.0604 47.3421 22.2103C47.3019 22.2779 47.2245 22.4535 47.1184 22.7473L44.6988 29.1247C44.4628 29.7465 44.1546 30.2113 43.7714 30.5281C43.3892 30.8475 43.0208 31 42.6667 31C42.4092 31 42.1985 30.9263 42.0303 30.7635C41.8654 30.6074 41.7828 30.4268 41.7828 30.2195C41.7828 30.026 41.842 29.875 41.9624 29.7537C42.0824 29.6303 42.2506 29.5756 42.4589 29.5756C42.6037 29.5756 42.8024 29.6257 43.0504 29.7245C43.2243 29.7885 43.3352 29.8294 43.3801 29.8294C43.511 29.8294 43.651 29.7537 43.8082 29.6104C43.9621 29.4681 44.1178 29.1897 44.2736 28.7797L44.6955 27.6659L42.5463 22.8547C42.4809 22.7089 42.3757 22.5307 42.2338 22.3148C42.1244 22.1535 42.0351 22.043 41.9658 21.9831C41.8654 21.9135 41.7035 21.8459 41.4818 21.7886V21.5327Z" fill="#231F20"/>
</svg>
