<svg width="50" height="50" viewBox="0 0 50 50" fill="none" xmlns="http://www.w3.org/2000/svg">
<path d="M42 30.1039C39.8696 30.7312 37.0435 30.9552 34.9565 31L25.087 10.4803H24.5217L14.6957 31C12.6087 30.9552 10.1304 30.7312 8 30.1039L20.4783 6H29.3913L42 30.1039Z" fill="#313271"/>
<path d="M28.9992 23.9673C28.9992 26.3418 27.1296 28.2235 24.8253 28.2235C22.521 28.2235 20.6949 26.297 20.6949 23.9673C20.6949 21.5927 22.5644 19.711 24.8253 19.711C27.1296 19.711 28.9992 21.5927 28.9992 23.9673Z" fill="#82BED2"/>
<path d="M18.8447 42.2031C18.8447 41.5396 18.515 41.2222 17.1553 40.8262C15.7445 40.4081 14.8506 39.8321 14.8506 38.7266C14.8506 37.6105 15.8213 36.793 17.2676 36.793C18.514 36.793 19.7725 37.6042 19.7725 38.9414H18.835C18.835 38.1326 18.3237 37.5645 17.2676 37.5645C16.2645 37.5645 15.793 38.049 15.793 38.7168C15.793 39.3178 16.3034 39.6851 17.458 40.0059C19.0703 40.4609 19.792 41.081 19.792 42.1934C19.792 43.3485 18.8233 44.0977 17.3115 44.0977C16.0405 44.0977 14.626 43.3373 14.626 41.9395H15.5635C15.5635 42.9146 16.4102 43.3311 17.3115 43.3311C18.3008 43.3311 18.8447 42.8923 18.8447 42.2031Z" fill="black"/>
<path d="M35.5098 41.7393H34.5723C34.4166 42.7317 34.0179 43.3311 32.8145 43.3311C31.5464 43.3311 30.9785 42.1954 30.9785 40.8018C30.9785 39.4509 31.0963 37.5645 32.8975 37.5645C33.997 37.5645 34.4346 38.1676 34.5723 39.1709H35.5098C35.363 37.762 34.5072 36.793 32.8975 36.793C30.5574 36.793 30.041 38.9117 30.041 40.8018C30.041 42.7841 31.1501 44.0977 32.8145 44.0977C34.2501 44.0977 35.3492 43.2161 35.5098 41.7393Z" fill="black"/>
<path fill-rule="evenodd" clip-rule="evenodd" d="M39.6455 36.8906L42.3652 44H41.3984L40.7213 42.1396H37.748L37.0723 44H36.1104L38.8203 36.8906H39.6455ZM38.0282 41.3682H40.4405L39.2331 38.051L38.0282 41.3682Z" fill="black"/>
<path fill-rule="evenodd" clip-rule="evenodd" d="M25.6416 44H23.7178V36.8906H25.7295C27.5839 36.8906 28.8643 38.1655 28.8643 40.2354C28.8643 42.2707 27.7788 44 25.6416 44ZM25.6416 43.2334H24.6602V37.6621H25.7295C27.1372 37.6621 27.9316 38.5837 27.9316 40.2256C27.9316 41.7705 27.3685 43.2334 25.6416 43.2334Z" fill="black"/>
<path d="M21.0615 44H22.0039V36.8906H21.0615V44Z" fill="black"/>
<path fill-rule="evenodd" clip-rule="evenodd" d="M8.8252 44V36.8906H11.1543C12.6113 36.8906 13.4736 37.4577 13.4736 38.7852C13.4736 39.4361 13.0755 39.9727 12.4295 40.2544C13.219 40.4666 13.6641 41.1488 13.6641 41.9492C13.6641 43.2649 12.7505 44 11.3154 44H8.8252ZM9.76758 40.6748H11.3594C12.3164 40.6748 12.7266 41.168 12.7266 41.959C12.7266 42.7304 12.2253 43.2334 11.3154 43.2334H9.76758V40.6748ZM11.1836 39.918H9.76758V37.6621H11.1543C12.0955 37.6621 12.5312 37.9934 12.5312 38.7754C12.5312 39.4779 12.0002 39.918 11.1836 39.918Z" fill="black"/>
</svg>
