<svg width="50" height="50" viewBox="0 0 50 50" fill="none" xmlns="http://www.w3.org/2000/svg">
<path d="M30.9983 10.833C30.9983 10.833 28.2122 10.2904 26.7419 12.6149C25.2716 14.9394 22.0978 24.0818 22.0978 24.0818C22.0978 24.0818 21.3629 21.7573 18.2284 20.8664C15.0939 19.9754 11.4177 18.7745 10.0638 17.4187C8.70886 16.0629 6 12.0333 6 12.0333C6 12.0333 10.1021 14.28 13.8559 15.6361C17.6097 16.9922 18.1507 17.1854 19.0413 17.7664C19.9313 18.3474 20.4726 18.7348 20.4726 18.7348L22.0208 15.4035C20.6859 15.4639 20.2655 15.3937 19.0796 14.3574C19.0796 14.3574 20.2249 14.9131 22.8098 12.7353C22.0903 12.57 21.4956 12.2088 21.4956 12.2088C21.4956 12.2088 21.7089 12.2232 22.7623 12.0503C24.654 11.7397 25.3758 9.34469 29.3734 10.1733C30.7336 10.4558 30.9983 10.833 30.9983 10.833ZM27.9025 24.0818C27.9025 24.0818 28.6375 21.7573 31.772 20.8664C34.9065 19.9754 38.5826 18.7738 39.9369 17.4187C41.2911 16.0629 44 12.0339 44 12.0339C44 12.0339 39.8982 14.2803 36.1447 15.6361C31.8935 17.172 28.027 18.5452 27.9025 24.0818ZM30.0311 11.7354C27.5165 11.7187 26.3566 15.3124 25.7982 16.8958L27.4382 21.6802C27.6777 20.062 28.2557 18.7144 29.5278 17.9229C29.5278 17.9229 29.1408 17.4577 28.4831 14.8236C27.8252 12.1884 30.0311 11.7354 30.0311 11.7354ZM29.3728 27.5682C29.3728 27.5682 30.0225 25.1764 32.1953 24.3498C37.5754 22.3032 36.5586 23.8463 40.7921 18.4133C40.7921 18.4133 37.3722 20.3887 34.6008 21.0733C31.0871 21.9417 28.3812 22.7129 29.3728 27.5682ZM21.1423 27.5682C22.1339 22.7129 19.428 21.9417 15.9143 21.0737C13.1426 20.3887 9.72267 18.4133 9.72267 18.4133C13.9562 23.8463 12.9397 22.3032 18.3194 24.3498C20.4922 25.1771 21.1423 27.5682 21.1423 27.5682ZM27.119 31.8753L31.7369 34.0351C30.302 32.3444 28.0061 30.1429 28.1044 26.7615L25.1914 31.2563L22.2784 26.7615C22.377 30.1429 20.081 32.3437 18.6458 34.0351L23.2637 31.8753L25.1914 41L27.119 31.8753ZM30.8162 30.8325C31.6212 25.6803 37.2123 28.6435 37.3905 23.9696C33.7301 26.0494 29.612 23.9361 30.8162 30.8325ZM19.5672 30.8325C20.7714 23.9361 16.6526 26.0494 12.9928 23.9696C13.1708 28.6428 18.7615 25.68 19.5672 30.8325Z" fill="#128EEC"/>
</svg>
