<svg width="50" height="50" viewBox="0 0 50 50" fill="none" xmlns="http://www.w3.org/2000/svg">
<path d="M28.3386 18.7933H21.9598L33.6211 4H40L28.3386 18.7933Z" fill="url(#paint0_radial_8184_2656)"/>
<path d="M34.0402 34L16.3789 11.6066H10L18.827 22.7984L10 34H16.3789L22.0183 26.8444L27.6613 34H34.0402Z" fill="#1A1A1A"/>
<path d="M24.3418 44.2334V45H20.5771V44.2334H24.3418ZM20.7676 37.8906V45H19.8252V37.8906H20.7676ZM23.8438 40.9473V41.7139H20.5771V40.9473H23.8438ZM24.293 37.8906V38.6621H20.5771V37.8906H24.293Z" fill="black"/>
<path d="M29.2979 43.2031C29.2979 43.0371 29.2718 42.8906 29.2197 42.7637C29.1709 42.6335 29.083 42.5163 28.9561 42.4121C28.8324 42.3079 28.6598 42.2087 28.4385 42.1143C28.2204 42.0199 27.9437 41.9238 27.6084 41.8262C27.2568 41.722 26.9395 41.6064 26.6562 41.4795C26.373 41.3493 26.1305 41.2012 25.9287 41.0352C25.7269 40.8691 25.5723 40.6787 25.4648 40.4639C25.3574 40.249 25.3037 40.0033 25.3037 39.7266C25.3037 39.4499 25.3607 39.1943 25.4746 38.96C25.5885 38.7256 25.7513 38.5221 25.9629 38.3496C26.1777 38.1738 26.4333 38.0371 26.7295 37.9395C27.0257 37.8418 27.3561 37.793 27.7207 37.793C28.2546 37.793 28.707 37.8955 29.0781 38.1006C29.4525 38.3024 29.7373 38.5677 29.9326 38.8965C30.1279 39.222 30.2256 39.5703 30.2256 39.9414H29.2881C29.2881 39.6745 29.2311 39.4385 29.1172 39.2334C29.0033 39.0251 28.8307 38.8623 28.5996 38.7451C28.3685 38.6247 28.0755 38.5645 27.7207 38.5645C27.3854 38.5645 27.1087 38.6149 26.8906 38.7158C26.6725 38.8167 26.5098 38.9535 26.4023 39.126C26.2982 39.2985 26.2461 39.4954 26.2461 39.7168C26.2461 39.8665 26.277 40.0033 26.3389 40.127C26.404 40.2474 26.5033 40.3597 26.6367 40.4639C26.7734 40.568 26.946 40.6641 27.1543 40.752C27.3659 40.8398 27.6182 40.9245 27.9111 41.0059C28.3148 41.1198 28.6631 41.2467 28.9561 41.3867C29.249 41.5267 29.4899 41.6846 29.6787 41.8604C29.8708 42.0329 30.0124 42.2298 30.1035 42.4512C30.1979 42.6693 30.2451 42.9167 30.2451 43.1934C30.2451 43.4831 30.1865 43.7451 30.0693 43.9795C29.9521 44.2139 29.7845 44.4141 29.5664 44.5801C29.3483 44.7461 29.0863 44.8747 28.7803 44.9658C28.4775 45.0537 28.139 45.0977 27.7646 45.0977C27.4359 45.0977 27.112 45.0521 26.793 44.9609C26.4772 44.8698 26.1891 44.7331 25.9287 44.5508C25.6715 44.3685 25.4648 44.1439 25.3086 43.877C25.1556 43.6068 25.0791 43.2943 25.0791 42.9395H26.0166C26.0166 43.1836 26.0638 43.3936 26.1582 43.5693C26.2526 43.7419 26.3812 43.8851 26.5439 43.999C26.71 44.113 26.8971 44.1976 27.1055 44.2529C27.3171 44.305 27.5368 44.3311 27.7646 44.3311C28.0934 44.3311 28.3717 44.2855 28.5996 44.1943C28.8275 44.1032 29 43.973 29.1172 43.8037C29.2376 43.6344 29.2979 43.4342 29.2979 43.2031Z" fill="black"/>
<defs>
<radialGradient id="paint0_radial_8184_2656" cx="0" cy="0" r="1" gradientUnits="userSpaceOnUse" gradientTransform="translate(10.8598 34.2629) scale(37.0386 44.7666)">
<stop offset="0.07" stop-color="#2814FF"/>
<stop offset="0.08" stop-color="#2718FF"/>
<stop offset="0.23" stop-color="#1654FF"/>
<stop offset="0.35" stop-color="#0A80FF"/>
<stop offset="0.45" stop-color="#039BFF"/>
<stop offset="0.5" stop-color="#00A5FF"/>
<stop offset="1" stop-color="#00CD00"/>
</radialGradient>
</defs>
</svg>
