<svg width="50" height="50" viewBox="0 0 50 50" fill="none" xmlns="http://www.w3.org/2000/svg">
<path d="M25 43.375C35.1482 43.375 43.375 35.1482 43.375 25C43.375 14.8518 35.1482 6.625 25 6.625C14.8518 6.625 6.625 14.8518 6.625 25C6.625 35.1482 14.8518 43.375 25 43.375Z" fill="#F22F46"/>
<path d="M25 38.4941C32.4526 38.4941 38.4941 32.4526 38.4941 25C38.4941 17.5474 32.4526 11.5059 25 11.5059C17.5474 11.5059 11.5059 17.5474 11.5059 25C11.5059 32.4526 17.5474 38.4941 25 38.4941Z" fill="white"/>
<path d="M20.478 24.2822C22.579 24.2822 24.2822 22.579 24.2822 20.478C24.2822 18.377 22.579 16.6738 20.478 16.6738C18.377 16.6738 16.6738 18.377 16.6738 20.478C16.6738 22.579 18.377 24.2822 20.478 24.2822Z" fill="#F22F46"/>
<path d="M30.2397 24.2822C32.3407 24.2822 34.0439 22.579 34.0439 20.478C34.0439 18.377 32.3407 16.6738 30.2397 16.6738C28.1387 16.6738 26.4355 18.377 26.4355 20.478C26.4355 22.579 28.1387 24.2822 30.2397 24.2822Z" fill="#F22F46"/>
<path d="M20.478 34.0439C22.579 34.0439 24.2822 32.3407 24.2822 30.2397C24.2822 28.1387 22.579 26.4355 20.478 26.4355C18.377 26.4355 16.6738 28.1387 16.6738 30.2397C16.6738 32.3407 18.377 34.0439 20.478 34.0439Z" fill="#F22F46"/>
<path d="M30.2397 34.0439C32.3407 34.0439 34.0439 32.3407 34.0439 30.2397C34.0439 28.1387 32.3407 26.4355 30.2397 26.4355C28.1387 26.4355 26.4355 28.1387 26.4355 30.2397C26.4355 32.3407 28.1387 34.0439 30.2397 34.0439Z" fill="#F22F46"/>
</svg>
