<svg width="50" height="50" viewBox="0 0 50 50" fill="none" xmlns="http://www.w3.org/2000/svg">
<path d="M21.6 8C20.3534 8 19.3334 9.02 19.3334 10.2667V17.0667C19.3334 18.3133 20.3534 19.3333 21.6 19.3333H28.4C29.6467 19.3333 30.6667 20.3533 30.6667 21.6V28.4C30.6667 29.6467 31.6867 30.6667 32.9334 30.6667H39.7334C40.98 30.6667 42 29.6467 42 28.4V9.13333C42 8.51 41.49 8 40.8667 8H21.6Z" fill="#51A9E3"/>
<path d="M28.4 42.0003C29.6467 42.0003 30.6667 40.9803 30.6667 39.7337V32.9337C30.6667 31.687 29.6467 30.667 28.4 30.667H21.6C20.3533 30.667 19.3333 29.647 19.3333 28.4003V21.6003C19.3333 20.3536 18.3133 19.3336 17.0667 19.3336H10.2667C9.02 19.3336 8 20.3536 8 21.6003V40.867C8 41.4903 8.51 42.0003 9.13333 42.0003H28.4Z" fill="#51A9E3"/>
</svg>
