<svg width="50" height="50" viewBox="0 0 50 50" fill="none" xmlns="http://www.w3.org/2000/svg">
<path fill-rule="evenodd" clip-rule="evenodd" d="M33.0012 22.8978V18.9217H37.0018V22.8913H41V24.1478C41 25.6022 40.8752 27.3239 40.5883 28.6783C40.4282 29.4348 40.1851 30.187 39.9004 30.9087C39.6088 31.6456 39.2715 32.3521 38.9055 32.987C38.4279 33.8131 37.8737 34.6086 37.2317 35.3544L37.1817 35.4128C37.015 35.6082 36.8499 35.8014 36.6688 35.9891C36.4738 36.1978 36.27 36.3934 36.064 36.5892C33.505 39.0348 30.1683 40.5609 26.6827 40.9131C26.2642 40.9565 25.4207 41 25 41C24.5794 40.9979 23.7359 40.9544 23.3174 40.9131C19.8296 40.5609 16.495 39.0348 13.9361 36.5892L13.9339 36.5871C13.7287 36.3899 13.5257 36.195 13.3314 35.9891C13.1501 35.8014 12.9852 35.6082 12.8184 35.413L12.7683 35.3544C12.1264 34.6086 11.5721 33.8152 11.0945 32.987C10.7286 32.3544 10.3912 31.6478 10.0998 30.9087C9.81501 30.187 9.57182 29.4348 9.41189 28.6783C9.12488 27.3239 9 25.6022 9 24.1478V9.2478H16.9945V22.8978C16.9945 22.8978 16.9945 23.9435 17.0077 24.2869L17.0101 24.3526C17.0267 24.8013 17.0429 25.2387 17.0909 25.6761C17.2224 26.9022 17.4963 28.0652 18.0593 29.0478C18.2214 29.3326 18.388 29.6087 18.5851 29.8695C19.7879 31.4609 21.6195 32.6566 23.9024 32.9891C24.1741 33.0281 24.724 33.063 24.9979 33.063C25.2739 33.063 25.8216 33.0281 26.0933 32.9891C28.3762 32.6566 30.2078 31.4609 31.4106 29.8695C31.6078 29.6065 31.7743 29.3326 31.9364 29.0478C32.4995 28.063 32.7733 26.9022 32.9047 25.6761C32.9527 25.2387 32.969 24.8014 32.9857 24.3527L32.988 24.2869C33.0012 23.9435 33.0012 22.8978 33.0012 22.8978ZM36.9973 11.9783H33.998V14.9543H36.9973V11.9783ZM37.9985 9H39.9988V10.9848H37.9985V9ZM40.9979 18.9217H36.9994V17.1826L36.9973 14.9543L40.9979 14.9543V18.9217Z" fill="#2161D2"/>
</svg>
