<svg width="50" height="50" viewBox="0 0 50 50" fill="none" xmlns="http://www.w3.org/2000/svg">
<rect width="50" height="50" fill="#090945"/>
<path d="M6.95038 24.8576C6.95038 25.5091 7.39136 26.0542 8.10613 26.0534C8.79605 26.0763 9.27463 25.4876 9.27463 24.8576V21.7627H10.2193V24.8576C10.2193 25.5091 10.6603 26.0542 11.3751 26.0534C12.0831 26.0768 12.5345 25.4847 12.5353 24.8565V21.7627H13.4806V24.6964C13.4806 25.9057 12.7232 26.9314 11.3782 26.9314C10.7369 26.9368 10.1183 26.644 9.73998 26.15C9.35259 26.6353 8.74848 26.9378 8.10489 26.9314C6.76383 26.9314 5.99777 25.9048 6 24.697V21.7627H6.95038V24.8576Z" fill="white"/>
<path d="M16.4128 21.6697C17.6458 21.6583 18.7961 22.5191 19.0179 23.6795C19.1799 24.7142 19.0858 25.7959 19.0858 26.8378L18.1246 26.8384V24.3081C18.1246 23.356 17.4773 22.5221 16.4242 22.523C15.3946 22.523 14.7123 23.3271 14.713 24.2719C14.713 25.2374 15.4163 26.0638 16.468 26.0654C16.9557 26.0657 17.4214 25.8819 17.8038 25.5998V26.5775C17.3647 26.8146 16.8622 26.9262 16.3589 26.9242C14.8684 26.9226 13.7212 25.6722 13.7405 24.2954C13.7405 22.8429 14.8621 21.6689 16.4128 21.6697Z" fill="white"/>
<path d="M20.5966 26.8384H19.6405V19.4292H20.5966V26.8384Z" fill="white"/>
<path d="M22.2 23.6046C22.5753 23.6046 22.9528 23.6355 23.2892 23.4439C23.4612 23.3368 23.6468 23.1265 23.8458 22.8128L24.5249 21.7627H25.6381L24.8564 22.9705C24.6594 23.2877 24.4116 23.6223 24.0684 23.8081C24.5067 23.8886 24.83 24.0603 25.0384 24.3232C25.2467 24.5861 25.3507 24.9595 25.3503 25.4434V26.8384H24.3891V25.5551C24.3891 24.8998 24.0414 24.4953 23.3355 24.4953H22.2V26.8384H21.2439V19.4292H22.2V23.6046Z" fill="white"/>
<path fill-rule="evenodd" clip-rule="evenodd" d="M40.3652 19H29.5733C28.6161 19 27.6802 19.3693 27.0034 20.0141C26.3266 20.6588 25.939 21.5504 25.9392 22.4621V25.8011C25.9382 26.7133 26.3254 27.6057 27.0023 28.2511C27.6791 28.8965 28.6156 29.2662 29.5733 29.2662H32.3692L34.9293 31.003L37.4894 29.2662H40.3652C41.3224 29.2662 42.2584 28.8969 42.9351 28.2521C43.6119 27.6074 43.9995 26.7158 43.9993 25.8041V22.4621C43.9993 21.544 43.6165 20.6635 42.9349 20.0142C42.2534 19.365 41.3291 19.0002 40.3652 19Z" fill="#3070ED"/>
<path d="M38.8505 21.5501C39.9652 21.5329 40.8597 22.211 41.3332 23.1354L37.8405 24.9784L37.4379 24.2906L40.029 22.9131C39.7295 22.5882 39.2953 22.3966 38.8403 22.401C37.8306 22.3858 37.1399 23.2654 37.1399 24.1704C37.1399 25.0632 37.8234 25.9047 38.7885 25.9397C39.7785 25.9757 40.4206 25.2109 40.5508 24.3413L41.5234 24.4808C41.389 25.2055 41.0811 25.7782 40.5997 26.1989C40.1182 26.6196 39.5318 26.83 38.8403 26.83C37.6788 26.8292 36.6509 26.0665 36.2899 25.0239C35.7214 23.3817 37.0295 21.5425 38.8505 21.5501Z" fill="white"/>
<path d="M33.7924 21.5574C35.1312 21.5574 35.8944 22.5877 35.8922 23.7918V26.7298H34.9494V23.6221C34.9494 22.9812 34.4972 22.4373 33.7927 22.4373C33.0884 22.4373 32.6354 22.9812 32.6353 23.6221V26.7298H31.6907V23.6221C31.6906 22.9919 31.209 22.414 30.5222 22.4373C29.8125 22.4373 29.3657 22.9713 29.3665 23.6221V26.7298H28.4148V23.7924C28.4148 22.5794 29.175 21.5574 30.5222 21.5574C31.1647 21.5515 31.7763 21.847 32.1573 22.3388C32.5425 21.8502 33.1484 21.5506 33.7924 21.5574Z" fill="white"/>
</svg>
