<svg width="50" height="50" viewBox="0 0 50 50" fill="none" xmlns="http://www.w3.org/2000/svg">
<path d="M31.4912 40.2031C31.4912 40.0371 31.4652 39.8906 31.4131 39.7637C31.3643 39.6335 31.2764 39.5163 31.1494 39.4121C31.0257 39.3079 30.8532 39.2087 30.6318 39.1143C30.4137 39.0199 30.137 38.9238 29.8018 38.8262C29.4502 38.722 29.1328 38.6064 28.8496 38.4795C28.5664 38.3493 28.3239 38.2012 28.1221 38.0352C27.9202 37.8691 27.7656 37.6787 27.6582 37.4639C27.5508 37.249 27.4971 37.0033 27.4971 36.7266C27.4971 36.4499 27.554 36.1943 27.668 35.96C27.7819 35.7256 27.9447 35.5221 28.1562 35.3496C28.3711 35.1738 28.6266 35.0371 28.9229 34.9395C29.2191 34.8418 29.5495 34.793 29.9141 34.793C30.4479 34.793 30.9004 34.8955 31.2715 35.1006C31.6458 35.3024 31.9307 35.5677 32.126 35.8965C32.3213 36.222 32.4189 36.5703 32.4189 36.9414H31.4814C31.4814 36.6745 31.4245 36.4385 31.3105 36.2334C31.1966 36.0251 31.0241 35.8623 30.793 35.7451C30.5618 35.6247 30.2689 35.5645 29.9141 35.5645C29.5788 35.5645 29.3021 35.6149 29.084 35.7158C28.8659 35.8167 28.7031 35.9535 28.5957 36.126C28.4915 36.2985 28.4395 36.4954 28.4395 36.7168C28.4395 36.8665 28.4704 37.0033 28.5322 37.127C28.5973 37.2474 28.6966 37.3597 28.8301 37.4639C28.9668 37.568 29.1393 37.6641 29.3477 37.752C29.5592 37.8398 29.8115 37.9245 30.1045 38.0059C30.5081 38.1198 30.8564 38.2467 31.1494 38.3867C31.4424 38.5267 31.6833 38.6846 31.8721 38.8604C32.0641 39.0329 32.2057 39.2298 32.2969 39.4512C32.3913 39.6693 32.4385 39.9167 32.4385 40.1934C32.4385 40.4831 32.3799 40.7451 32.2627 40.9795C32.1455 41.2139 31.9779 41.4141 31.7598 41.5801C31.5417 41.7461 31.2796 41.8747 30.9736 41.9658C30.6709 42.0537 30.3324 42.0977 29.958 42.0977C29.6292 42.0977 29.3053 42.0521 28.9863 41.9609C28.6706 41.8698 28.3825 41.7331 28.1221 41.5508C27.8649 41.3685 27.6582 41.1439 27.502 40.877C27.349 40.6068 27.2725 40.2943 27.2725 39.9395H28.21C28.21 40.1836 28.2572 40.3936 28.3516 40.5693C28.446 40.7419 28.5745 40.8851 28.7373 40.999C28.9033 41.113 29.0905 41.1976 29.2988 41.2529C29.5104 41.305 29.7301 41.3311 29.958 41.3311C30.2868 41.3311 30.5651 41.2855 30.793 41.1943C31.0208 41.1032 31.1934 40.973 31.3105 40.8037C31.431 40.6344 31.4912 40.4342 31.4912 40.2031Z" fill="black"/>
<path d="M20.6953 39.8516L22.1064 34.8906H22.79L22.3945 36.8193L20.876 42H20.1973L20.6953 39.8516ZM19.2354 34.8906L20.3584 39.7539L20.6953 42H20.0215L18.2979 34.8906H19.2354ZM24.6162 39.749L25.7148 34.8906H26.6572L24.9385 42H24.2646L24.6162 39.749ZM22.8926 34.8906L24.2646 39.8516L24.7627 42H24.084L22.6191 36.8193L22.2188 34.8906H22.8926Z" fill="black"/>
<path d="M24.4563 6H14V16.4564H24.4563V6Z" fill="#F26522"/>
<path d="M36.0001 6H25.5438V16.4564H36.0001V6Z" fill="#8DC63F"/>
<path d="M24.4563 17.5436H14V28H24.4563V17.5436Z" fill="#00AEEF"/>
<path d="M36 17.5436H25.5437V28H36V17.5436Z" fill="#FFC20E"/>
</svg>
