<svg width="50" height="50" viewBox="0 0 50 50" fill="none" xmlns="http://www.w3.org/2000/svg">
<rect width="50" height="50" fill="#0A0D1F"/>
<path d="M38.3507 27.9493C37.2726 28.4152 36.0488 27.9493 35.5535 26.8718L31.2412 16.9999C30.775 15.9225 31.2412 14.6994 32.3484 14.2335C33.4265 13.7676 34.6502 14.2335 35.1164 15.3401L39.4288 25.2119C39.895 26.2312 39.3996 27.4542 38.3507 27.9493ZM31.0955 35.8118C30.0174 36.2778 28.7936 35.7827 28.3274 34.7052L20.606 16.9417C20.1398 15.8642 20.6351 14.6412 21.7132 14.1753C22.7913 13.7093 24.0151 14.2044 24.4813 15.2818L32.2027 33.0454C32.6398 34.0937 32.1444 35.3459 31.0955 35.8118ZM21.5384 34.647C21.3344 35.1712 20.9265 35.5789 20.4312 35.8118C19.3531 36.2778 18.1293 35.7827 17.6631 34.7052L13.2925 24.6587C12.8263 23.5812 13.3217 22.3581 14.3997 21.8922C15.4778 21.4263 16.7016 21.9213 17.1678 22.9988L21.5384 33.0454C21.7424 33.5404 21.7424 34.1228 21.5384 34.647ZM10 17.0291C10 15.806 11.0198 14.7868 12.2436 14.7868C13.4674 14.7868 14.4872 15.806 14.4872 17.0291C14.4872 18.2521 13.4674 19.2713 12.2436 19.2713C11.0198 19.2713 10 18.2812 10 17.0291Z" fill="white"/>
</svg>
