<svg width="50" height="50" viewBox="0 0 50 50" fill="none" xmlns="http://www.w3.org/2000/svg">
<path d="M43.1724 27.7448C42.7272 31.767 40.9751 35.5986 37.9295 38.6442C37.5148 39.0591 37.0805 39.4539 36.628 39.8271C35.3132 40.9137 33.8827 41.7875 32.3812 42.4486C31.3413 42.9074 30.2674 43.2639 29.1749 43.5188C23.223 44.9079 16.7121 43.2814 12.0749 38.6442C9.87291 36.4415 8.34983 33.8186 7.50639 31.0326C7.27848 30.2847 7.10173 29.5243 6.9735 28.7587C6.64252 26.7927 6.63665 24.7784 6.94978 22.8161C7.34111 20.3695 8.22976 17.9882 9.61721 15.8336C10.2258 14.8828 10.9336 13.9808 11.7369 13.1358C14.6788 10.0163 18.7146 8.01921 22.9736 7.54599C28.3045 6.95571 33.8434 8.70287 37.9295 12.7889C42.0162 16.8749 43.7639 22.4151 43.1724 27.7448Z" fill="url(#paint0_radial_8464_330)"/>
<path d="M36.628 39.8271C35.3132 40.9137 33.8827 41.7875 32.3812 42.4486C31.3413 42.9074 30.2674 43.2639 29.1749 43.5188C23.223 44.9079 16.7121 43.2814 12.0749 38.6442C9.87291 36.4415 8.34983 33.8186 7.50639 31.0326C7.27848 30.2847 7.10173 29.5243 6.9735 28.7587C6.64252 26.7927 6.63665 24.7784 6.94978 22.8161C7.34111 20.3695 8.22976 17.9882 9.61721 15.8336C10.2258 14.8828 10.9336 13.9808 11.7369 13.1358C14.0894 14.2764 14.2287 16.7267 14.2287 16.7267C16.0164 16.56 16.9725 18.1816 16.9725 18.1816H16.974C19.9736 18.3403 20.8564 22.2164 18.457 23.8152C20.092 27.3779 16.8917 28.6134 16.8917 28.6134C20.1454 29.6288 18.8758 33.0255 18.8758 33.0255C20.2995 33.7793 20.132 34.6168 20.132 34.6168C20.132 34.6168 23.3985 31.9396 27.3331 33.4443C31.2681 34.9514 31.7712 39.9754 31.7712 39.9754C31.7712 39.9754 33.613 38.0498 35.3717 38.7198C35.9913 38.9555 36.3819 39.378 36.628 39.8271Z" fill="url(#paint1_radial_8464_330)"/>
<path d="M32.3812 42.4486C31.3413 42.9074 30.2674 43.2639 29.1749 43.5188C23.223 44.9079 16.7121 43.2814 12.0749 38.6442C9.87291 36.4415 8.34983 33.8186 7.50639 31.0326C7.27848 30.2847 7.10173 29.5243 6.9735 28.7587C6.64252 26.7927 6.63665 24.7784 6.94978 22.8161C7.34111 20.3695 8.22976 17.9882 9.61721 15.8336C9.87958 16.3421 10.1041 16.9313 10.2724 17.6124C13.8967 17.8281 12.6678 20.7156 12.6678 20.7156H12.6693C12.7197 20.6875 14.3992 19.7781 15.4768 21.7762C16.507 24.9706 14.1894 26.5248 14.1894 26.5248C16.421 29.4606 13.6743 30.9288 13.6743 30.9288C17.1081 33.1738 14.6185 36.0235 14.6185 36.0235C16.0779 36.8002 15.9059 37.6644 15.9059 37.6644C15.9059 37.6644 19.2538 34.9014 23.2879 36.4556C27.322 38.0098 27.8371 43.1905 27.8371 43.1905C27.8371 43.1905 29.7256 41.2042 31.5273 41.8957C31.8786 42.0306 32.1588 42.2233 32.3812 42.4486Z" fill="url(#paint2_radial_8464_330)"/>
<path d="M23.3161 31.0759C23.4198 31.8133 23.2197 32.5612 22.7609 33.1474C20.9251 35.4613 15.8726 36.4819 15.8726 36.4819C15.8726 36.4819 15.7184 31.3301 17.5543 29.0162C17.7855 28.7292 18.0721 28.4917 18.3971 28.3179C18.722 28.1441 19.0787 28.0375 19.4457 28.0045L23.3161 31.0759Z" fill="#EAEA92"/>
<path d="M22.5089 30.4355C22.7932 32.4497 19.6162 33.2977 18.168 33.5899C18.1232 32.1139 18.2269 28.8253 20.2528 28.6449L22.5089 30.4355Z" fill="#FCFCF0"/>
<path d="M25.3765 30.4192C24.4122 30.9499 19.5348 27.112 19.8378 26.0249C20.0942 25.0992 20.8621 22.5451 22.2807 19.5494L22.2821 19.5472C22.7365 18.5837 23.2597 17.5757 23.8541 16.5603L23.8571 16.5558C24.9607 14.6711 26.3126 12.7648 27.9438 11.0913C30.3815 8.58691 32.7421 7.25876 34.7188 6.59913C35.3971 9.25354 38.1698 11.4471 40.906 11.5123C40.7133 13.5875 39.9565 16.1875 38.0718 19.1306C34.0243 25.4527 26.9952 29.5343 25.375 30.4192H25.3765Z" fill="#D91118"/>
<path d="M22.2807 19.5494L22.2821 19.5472C22.7365 18.5837 23.2597 17.5757 23.8541 16.5603L23.8571 16.5558C25.154 14.7637 22.0698 20.3599 22.2807 19.5494Z" fill="#D91118"/>
<path d="M22.2903 19.5249C22.4148 19.2218 21.7833 18.7371 21.4261 19.0788C21.426 19.1287 21.261 19.2593 21.2238 19.3004C20.7116 19.8392 20.1268 20.3202 19.5606 20.7256C18.4985 20.4202 17.7025 19.708 17.1963 19.118C17.5631 16.9834 19.0703 12.4302 21.9234 14.1871C23.0492 14.8793 23.2153 15.8614 22.841 16.9049C23.1704 17.2958 23.6433 16.8519 23.8541 16.5603C23.2597 17.5757 22.7372 18.5837 22.2836 19.5472C22.2844 19.5412 22.2873 19.5331 22.2903 19.5249Z" fill="#C51116"/>
<path d="M19.5606 20.7256C18.2999 21.6276 17.1281 22.1553 17.0436 22.1042C16.9591 22.0523 16.9213 20.7026 17.1963 19.118C17.7025 19.708 18.4985 20.4202 19.5606 20.7256Z" fill="#B4C4FF"/>
<path d="M40.9082 11.5123C38.1722 11.4472 35.3993 9.25347 34.721 6.59913C35.0856 6.47535 35.4355 6.37826 35.7727 6.29747C36.223 8.53577 38.6779 10.4898 40.9616 10.4183C40.9616 10.7667 40.946 11.1298 40.9082 11.5123Z" fill="#5D69CE"/>
<path d="M40.9616 10.4183C38.6779 10.4898 36.223 8.53577 35.7727 6.29747C38.0488 5.75939 39.6371 6.10922 39.9536 6.35973C40.2701 6.61024 40.9712 8.07922 40.9616 10.4183Z" fill="#282465"/>
<path d="M38.0733 19.1306C39.958 16.1875 40.7155 13.5868 40.9082 11.5123C38.1722 11.4472 35.3993 9.25347 34.721 6.59913C32.7443 7.25876 30.383 8.58617 27.9453 11.0913C26.3133 12.7648 24.9614 14.6711 23.8586 16.5558L23.8541 16.5603C23.2864 17.5323 22.7633 18.5289 22.2836 19.5472L22.2821 19.5494C20.8636 22.5459 20.0965 25.0999 19.8393 26.0249C19.5439 27.0848 24.3899 30.963 25.378 30.4192C26.2273 29.9552 28.5657 28.6108 31.1812 26.5259C31.4643 26.4044 32.0121 26.8824 31.7719 27.2871L31.7712 27.2893C31.2628 28.0281 30.8522 28.8243 30.5209 29.6576C29.9812 31.0148 29.7563 32.1751 29.8219 32.2432C29.8911 32.3128 31.1817 32.0509 32.6393 31.4404C33.2607 31.1801 33.9127 30.8565 34.5135 30.4681C36.5813 29.1303 38.0614 27.3427 36.4234 25.6921C35.4933 24.7531 34.4994 24.8138 33.5685 25.4157C33.1442 25.1983 33.4033 24.6789 33.6248 24.4077C35.2294 22.8905 36.8 21.1221 38.0747 19.1306H38.0733Z" fill="url(#paint3_linear_8464_330)"/>
<path d="M38.0733 19.1306C39.958 16.1875 40.7155 13.5868 40.9082 11.5123C38.1722 11.4472 35.3993 9.25347 34.721 6.59913C32.7443 7.25876 30.383 8.58617 27.9453 11.0913C26.3133 12.7648 24.9614 14.6711 23.8586 16.5558L23.8541 16.5603C23.2864 17.5323 22.7633 18.5289 22.2836 19.5472L22.2821 19.5494C20.8636 22.5459 20.0965 25.0999 19.8393 26.0249C19.5439 27.0848 24.3899 30.963 25.378 30.4192C26.2273 29.9552 28.5657 28.6108 31.1812 26.5259C31.4643 26.4044 32.0121 26.8824 31.7719 27.2871L31.7712 27.2893C31.2628 28.0281 30.8522 28.8243 30.5209 29.6576C29.9812 31.0148 29.7563 32.1751 29.8219 32.2432C29.8911 32.3128 31.1817 32.0509 32.6393 31.4404C33.2607 31.1801 33.9127 30.8565 34.5135 30.4681C36.5813 29.1303 38.0614 27.3427 36.4234 25.6921C35.4933 24.7531 34.4994 24.8138 33.5685 25.4157C33.1442 25.1983 33.4033 24.6789 33.6248 24.4077C35.2294 22.8905 36.8 21.1221 38.0747 19.1306H38.0733Z" fill="url(#paint4_linear_8464_330)"/>
<path d="M39.9181 6.31899C39.4264 6.36663 37.5996 6.26654 35.9134 6.80054C35.711 6.86463 35.5105 6.93789 35.3148 7.0216C35.1779 7.07996 35.042 7.14011 34.9068 7.20208C34.7215 7.28702 34.5378 7.37537 34.3557 7.46704C30.1689 9.566 25.0853 14.932 21.0578 26.9743L19.8416 26.0101C20.0988 25.0844 20.8659 22.5311 22.2844 19.5346L22.2859 19.5324C22.7395 18.5688 23.2628 17.5609 23.8572 16.5455C23.8572 16.5455 23.8587 16.544 23.8609 16.541C24.9637 14.6563 26.3163 12.75 27.9484 11.0765C30.386 8.57137 32.7467 7.24467 34.7226 6.58503C35.0873 6.46126 35.4371 6.36343 35.7743 6.28264C37.9696 5.76457 39.5268 6.0707 39.9181 6.31899Z" fill="#C41116"/>
<path d="M34.7226 6.58503C35.0873 6.46126 35.4371 6.36343 35.7743 6.28264L35.9134 6.80054L34.9068 7.20208L34.7226 6.58503Z" fill="#C41116"/>
<path d="M34.7226 6.58503C35.0873 6.46126 35.4371 6.36343 35.7743 6.28264L35.9134 6.80054L34.9068 7.20208L34.7226 6.58503Z" fill="#C41116"/>
<path d="M35.3148 7.0216C35.1779 7.07996 35.042 7.14011 34.9068 7.20208L35.3148 7.0216Z" fill="#C41116"/>
<path d="M34.7226 6.58503C35.0873 6.46126 35.4371 6.36343 35.7743 6.28264L35.9134 6.80054L34.9068 7.20208L34.7226 6.58503Z" fill="#C41116"/>
<path d="M34.7226 6.58503C35.0873 6.46126 35.4371 6.36343 35.7743 6.28264L35.9134 6.80054L34.9068 7.20208L34.7226 6.58503Z" fill="#C41116"/>
<path d="M35.3148 7.0216C35.1779 7.07996 35.042 7.14011 34.9068 7.20208L35.3148 7.0216Z" fill="#C41116"/>
<path d="M39.9181 6.31899C39.5268 6.0707 37.9696 5.76457 35.7743 6.28264L35.9134 6.80054C37.5996 6.26654 39.4264 6.36663 39.9181 6.31899Z" fill="#C41116"/>
<path d="M39.9181 6.31899C39.5268 6.0707 37.9696 5.76457 35.7743 6.28264L35.9134 6.80054C37.5996 6.26654 39.4264 6.36663 39.9181 6.31899Z" fill="#C41116"/>
<path d="M39.9181 6.31899C39.5268 6.0707 37.9696 5.76457 35.7743 6.28264L35.9134 6.80054C37.5996 6.26654 39.4264 6.36663 39.9181 6.31899Z" fill="#3D388A"/>
<path d="M36.8963 14.2464C36.8963 12.4789 35.4635 11.0461 33.696 11.0461C31.9285 11.0461 30.4957 12.4789 30.4957 14.2464C30.4957 18.3738 36.8963 18.3738 36.8963 14.2464Z" fill="#B4C4FF"/>
<path d="M36.2508 15.1264C36.741 13.722 35.9998 12.1861 34.5954 11.6959C33.191 11.2058 31.6551 11.9469 31.1649 13.3513C30.6748 14.7558 31.4159 16.2916 32.8203 16.7818C34.2248 17.272 35.7606 16.5308 36.2508 15.1264Z" fill="#5D69CE"/>
<path d="M35.6098 11.6013C35.3852 11.6139 35.0954 11.6487 34.7693 11.728C33.6175 12.0067 32.0129 12.842 31.2088 15.2804C31.1332 15.5079 31.065 15.7503 31.0049 16.006C30.5788 15.3337 30.3972 14.5036 30.558 13.6595C30.893 11.8962 32.5947 10.7386 34.3587 11.0743C34.8234 11.1625 35.2466 11.3456 35.6105 11.6005L35.6098 11.6013Z" fill="#9FA7EC"/>
<path fill-rule="evenodd" clip-rule="evenodd" d="M33.696 16.9467C35.1873 16.9467 36.3963 15.7377 36.3963 14.2463C36.3963 12.755 35.1873 11.546 33.696 11.546C32.2046 11.546 30.9956 12.755 30.9956 14.2463C30.9956 15.7377 32.2046 16.9467 33.696 16.9467ZM36.8963 14.2464C36.8963 18.3738 30.4957 18.3738 30.4957 14.2464C30.4957 12.4789 31.9285 11.0461 33.696 11.0461C35.4635 11.0461 36.8963 12.4789 36.8963 14.2464Z" fill="#B4C4FF"/>
<path d="M37.8383 15.6761C37.9332 15.3641 37.4366 14.9794 36.9771 14.6992C37.2205 12.8719 35.8324 11.1649 33.9895 11.0335C33.8939 11.0268 33.7983 11.0238 33.7056 11.0253C33.2105 11.0327 32.7302 11.1528 32.293 11.3744C31.7067 10.8571 31.2635 10.6562 31.0397 10.8119C30.8084 10.9727 30.8588 11.4997 31.1812 12.2964C31.0571 12.458 30.9489 12.6313 30.8581 12.8137C30.0687 12.7693 29.5914 12.8871 29.5114 13.1495C29.4306 13.4148 29.7864 13.7906 30.5127 14.2086C30.5105 14.3042 30.5127 14.4006 30.5186 14.4962C30.6086 15.8238 31.5395 17.0015 32.8296 17.3837C33.2379 17.5053 33.6597 17.546 34.0836 17.5038C34.3037 17.4823 34.5209 17.4363 34.7314 17.3696C34.9967 17.6061 35.3184 17.8544 35.5911 17.9581C35.7534 18.0196 35.8987 18.0308 36.0047 17.9566C36.2693 17.7728 36.1255 17.1762 35.9417 16.6759C36.1611 16.478 36.3501 16.252 36.5064 16.0044C37.0668 16.0348 37.7397 15.9992 37.8383 15.6746V15.6761ZM36.9393 14.926C37.3684 15.1966 37.5871 15.4352 37.5418 15.5864C37.4944 15.7421 37.1616 15.8184 36.6258 15.7991C36.7686 15.5283 36.8768 15.2311 36.9393 14.926ZM35.7683 16.8227C35.9335 17.2955 35.9558 17.6142 35.8275 17.7039C35.6919 17.798 35.3769 17.6461 34.9604 17.2881C35.2495 17.1726 35.5236 17.0152 35.7683 16.8227ZM31.3361 12.1096C31.1167 11.5449 31.0723 11.1654 31.2161 11.0653C31.3569 10.9683 31.6741 11.1202 32.0936 11.4834C31.8152 11.6521 31.5559 11.8643 31.3361 12.1096ZM31.2665 12.4995C31.58 13.2192 32.0632 14.0641 32.6458 14.909C31.8942 14.6459 31.2138 14.3524 30.7076 14.0744C30.7452 13.5105 30.9408 12.9514 31.2665 12.4995ZM29.8079 13.2392C29.8575 13.0746 30.2036 12.9975 30.7617 13.0235C30.6367 13.3258 30.5576 13.645 30.5268 13.9707C30.0191 13.669 29.7582 13.4037 29.8079 13.2392ZM35.5214 16.7715C35.2993 16.9276 35.0576 17.0537 34.8025 17.1466C34.3326 16.7122 33.7834 16.0808 33.2365 15.3433C34.2277 15.6531 35.2534 15.9057 36.2908 15.9911C36.0837 16.2959 35.823 16.5598 35.5214 16.7715ZM35.2629 11.6074C36.7169 12.4279 37.2314 14.349 36.4182 15.7858C35.2584 15.7007 34.1128 15.3911 33.0104 15.0313C32.9645 14.9668 32.9185 14.9016 32.8725 14.8356C32.2463 13.9344 31.7215 13.022 31.4162 12.3053C32.3507 11.1916 34.0044 10.8972 35.2629 11.6074ZM34.0643 17.3155C33.6656 17.3556 33.2676 17.317 32.8829 17.2029C32.2203 17.0057 31.6585 16.6011 31.259 16.0348C30.9359 15.576 30.7447 15.0402 30.7069 14.4836C30.7032 14.4272 30.7017 14.3702 30.701 14.3138C31.1212 14.5406 31.6304 14.7697 32.1877 14.9816C32.4078 15.0654 32.6361 15.1469 32.8681 15.2247C33.4388 16.0178 34.0354 16.7174 34.5691 17.2207C34.4038 17.2659 34.2355 17.2992 34.0651 17.3163L34.0643 17.3155Z" fill="#B4C4FF"/>
<path d="M30.5005 14.3238C30.4969 14.1051 30.5155 13.8828 30.558 13.6595C30.893 11.8962 32.5947 10.7386 34.3587 11.0743C34.4492 11.0915 34.5382 11.1123 34.6254 11.1365C34.9837 11.236 35.314 11.3936 35.6056 11.5971L35.6105 11.6005L35.6098 11.6013C35.3852 11.6139 35.0954 11.6487 34.7693 11.728C34.7516 11.7323 34.7338 11.7367 34.7159 11.7412C34.6763 11.7253 34.6362 11.7102 34.5954 11.6959C33.191 11.2058 31.6551 11.9469 31.1649 13.3513C30.9392 13.998 30.9746 14.6725 31.2155 15.26C31.2133 15.2668 31.211 15.2736 31.2088 15.2804C31.1332 15.5079 31.065 15.7503 31.0049 16.006C30.689 15.5075 30.5104 14.9293 30.5005 14.3238Z" fill="#D4DDFF"/>
<path d="M23.9134 31.6703L18.7312 27.5583L19.5361 25.784L25.4587 30.4837L23.9134 31.6703Z" fill="#181849"/>
<path d="M22.1954 27.8948C22.1954 27.8948 21.8115 28.6753 21.4128 29.6869L18.7312 27.5583L19.5361 25.784L22.1962 27.8956L22.1954 27.8948Z" fill="#2D2D74"/>
<path d="M32.6393 31.4404C31.1817 32.0509 29.8911 32.3128 29.8219 32.2432C29.7563 32.1751 29.9812 31.0148 30.5209 29.6576C31 30.5 32.1068 31.232 32.6393 31.4404Z" fill="#A39ED1"/>
<path d="M23.302 31.2089C23.4057 31.9464 23.2182 32.5282 22.7594 33.1152C20.9236 35.4291 15.8711 36.4497 15.8711 36.4497C15.8711 36.4497 15.7169 31.2979 17.5528 28.984C18.0679 28.4207 18.5756 28.0909 19.3175 28.0249L23.302 31.2089Z" fill="url(#paint5_linear_8464_330)" style="mix-blend-mode:hard-light"/>
<defs>
<radialGradient id="paint0_radial_8464_330" cx="0" cy="0" r="1" gradientUnits="userSpaceOnUse" gradientTransform="translate(25.0023 24.9995) rotate(94.6469) scale(18.5419 17.8514)">
<stop stop-color="#4C4698"/>
<stop offset="0.538631" stop-color="#242240"/>
<stop offset="0.9999" stop-color="#191732"/>
</radialGradient>
<radialGradient id="paint1_radial_8464_330" cx="0" cy="0" r="1" gradientUnits="userSpaceOnUse" gradientTransform="translate(26.0122 26.1479) rotate(130.165) scale(16.1113 12.9655)">
<stop stop-color="#5952B2"/>
<stop offset="1" stop-color="#322E64"/>
</radialGradient>
<radialGradient id="paint2_radial_8464_330" cx="0" cy="0" r="1" gradientUnits="userSpaceOnUse" gradientTransform="translate(22.0001 27.3726) rotate(129.728) scale(14.8636 31.9376)">
<stop stop-color="#998CFF"/>
<stop offset="1" stop-color="#544CB5"/>
</radialGradient>
<linearGradient id="paint3_linear_8464_330" x1="20.1254" y1="16.9619" x2="29.4106" y2="41.7129" gradientUnits="userSpaceOnUse">
<stop stop-color="#AC0B10"/>
<stop offset="1" stop-color="#D31017"/>
</linearGradient>
<linearGradient id="paint4_linear_8464_330" x1="20.1254" y1="16.9619" x2="29.4106" y2="41.7129" gradientUnits="userSpaceOnUse">
<stop stop-color="#AC0B10"/>
<stop offset="1" stop-color="#D31017"/>
</linearGradient>
<linearGradient id="paint5_linear_8464_330" x1="15.8696" y1="32.2372" x2="23.3316" y2="32.2372" gradientUnits="userSpaceOnUse">
<stop stop-color="white" stop-opacity="0.9"/>
<stop offset="0.18" stop-color="#F9F9E4" stop-opacity="0.68"/>
<stop offset="0.39" stop-color="#F4F4C7" stop-opacity="0.44"/>
<stop offset="0.59" stop-color="#EFEFB0" stop-opacity="0.25"/>
<stop offset="0.77" stop-color="#ECEC9F" stop-opacity="0.11"/>
<stop offset="0.91" stop-color="#EAEA95" stop-opacity="0.03"/>
<stop offset="1" stop-color="#EAEA92" stop-opacity="0"/>
</linearGradient>
</defs>
</svg>
