<svg width="50" height="50" viewBox="0 0 50 50" fill="none" xmlns="http://www.w3.org/2000/svg">
<rect width="50" height="50" fill="#01009D"/>
<path d="M24.9949 29C27.2885 24.5973 30.6239 21.2222 35 18.8401C35 18.8516 25.0032 9.0112 25.0032 9C19.9996 13.9343 17.0442 16.8083 15.0001 18.8401C15.0198 18.8516 14.9981 18.8401 15.0001 18.8401C19.2312 21.1082 22.519 24.3997 24.9949 29Z" fill="#FFEE01"/>
<path d="M9.75906 40.0136H9.01926V38.0203L7 35.1578H7.93626L9.38409 37.3049L10.8421 35.1602H11.7685L9.75906 38.0038V40.0136Z" fill="white"/>
<path d="M13.4886 35.0123C13.122 35.0123 11.1106 35.1746 11.1106 37.6226C11.1106 39.9293 13.1247 40.1393 13.5109 40.1423C13.9166 40.1452 15.9068 39.9087 15.9068 37.5611C15.9068 35.3352 14.1158 35.0123 13.4886 35.0123ZM13.5379 39.5016C12.8194 39.5016 11.8609 39.083 11.8609 37.5709C11.8609 36.19 12.7734 35.6413 13.4919 35.6413C14.1489 35.6413 15.1528 36.0703 15.1528 37.6341C15.1528 39.1702 14.0451 39.5016 13.5379 39.5016Z" fill="white"/>
<path d="M17.0101 40.0114H16.2737V35.1549L17.0557 35.1569V37.4547L19.3445 35.1575H20.3497L18.3301 37.1836L20.509 40.0092L19.5619 40.0131L17.7631 37.6341L17.0101 38.3465V40.0114Z" fill="white"/>
<path d="M22.2633 35C21.562 35.0241 19.818 35.3821 19.818 37.5322C19.818 39.8983 21.7054 40.1374 22.2856 40.1343C22.9348 40.1305 24.6329 39.6776 24.6413 37.5501C24.6511 35.001 22.2349 35.0003 22.2633 35ZM22.2593 39.496C21.5567 39.496 20.5907 39.12 20.5907 37.5687C20.5907 36.0874 21.5607 35.6394 22.2427 35.6394C23.0988 35.6394 23.8633 36.273 23.8633 37.5369C23.8633 39.1697 22.8266 39.496 22.2593 39.496Z" fill="white"/>
<path d="M27.3774 37.4565L29.4822 37.4584L29.4754 39.9875H28.8921L28.8076 39.5192C28.3521 39.9639 27.897 40.1184 27.162 40.1163C26.1009 40.1144 24.9412 39.2721 24.9412 37.5439C24.9412 36.3693 25.6867 35.0266 27.2451 35.0334C28.0708 35.0334 29.2204 35.3086 29.4152 36.586L28.6524 36.5889C28.556 36.2673 28.2822 35.6384 27.3087 35.6384C26.5121 35.6384 25.7243 36.1236 25.7243 37.6012C25.7243 38.9994 26.6 39.517 27.2705 39.517C27.9261 39.517 28.5455 39.2939 28.7958 38.126H27.3807L27.3774 37.4565Z" fill="white"/>
<path d="M32.1212 35.1648L31.1248 35.1667L29.5714 40.0092H30.3674L30.7799 38.6652L32.6778 38.6633L33.2123 39.9979L34.0272 39.9902L32.1212 35.1648ZM30.9669 38.0388L31.6279 35.862L31.7699 36.2521L32.4316 38.0388H30.9669Z" fill="white"/>
<path d="M33.1325 35.1578H33.9619C34.6138 37.7934 34.7426 38.2563 34.8863 38.7713C35.0006 38.2861 35.2373 37.6504 35.8756 35.1578H36.6266C37.384 37.8448 37.4969 38.2594 37.6619 38.8004C37.7769 38.3503 37.9348 37.8144 38.5819 35.1578H39.3671L38.0677 39.9997L37.2903 40.0093C36.6604 37.8598 36.583 37.5998 36.2641 36.4678C36.0017 37.3699 35.9504 37.6035 35.2761 40.0049H34.4772L33.1325 35.1578Z" fill="white"/>
<path d="M41.2615 35.1504H40.3053L38.5897 40.0017H39.3562L39.7974 38.7044L41.7277 38.7063L42.1981 39.9993L42.9998 39.9974L41.2615 35.1504ZM40.0273 38.062L40.7743 35.9125L40.7736 35.9027L41.5262 38.0637L40.0273 38.062Z" fill="white"/>
</svg>
