<svg width="50" height="50" viewBox="0 0 50 50" fill="none" xmlns="http://www.w3.org/2000/svg">
<path d="M32.5705 24.8224C32.5705 22.1968 33.8714 20.5109 35.8642 20.5109C37.8569 20.5109 39.1578 22.1968 39.1578 24.8224C39.1578 27.4481 37.8569 29.1616 35.8642 29.1616C33.8714 29.1616 32.5705 27.4205 32.5705 24.8224ZM27.4778 17.6642C24.7655 17.6642 23.1324 19.6818 23.1324 23.2747V32.0084H27.5055V17.6642H27.4778ZM21.97 17.6642C17.5416 17.6642 15.0783 18.9079 9.9579 24.1315L6 28.1667V32.0084H22.2745V27.6969H12.5596L22.2745 17.6642H21.97ZM28.3636 37.536H32.7366V29.134C33.4285 31.2345 35.2829 32.423 37.5525 32.423C41.1229 32.423 43.6969 29.3275 43.6969 24.8224C43.6969 20.3174 41.1229 17.2219 37.5525 17.2219C35.2829 17.2219 33.4285 18.438 32.7366 20.5109V17.6642H28.3636V37.536ZM27.5055 12.6616H23.1324V16.9732H27.5055V12.6616ZM22.2745 12.6616H6.33213V16.9732H22.2745V12.6616Z" fill="black"/>
</svg>
