<svg width="50" height="50" viewBox="0 0 50 50" fill="none" xmlns="http://www.w3.org/2000/svg">
<path d="M32.064 13.6821C32.1973 13.5409 32.3335 13.4025 32.4916 13.289C33.3578 12.6673 34.2982 12.5993 35.2582 13.0032C36.3103 13.4459 36.8837 14.2793 37.0494 15.3845C37.1718 16.1994 37.0132 16.967 36.5406 17.649C35.9366 18.5206 35.0854 18.9513 34.0131 18.9353C33.2546 18.9241 32.6264 18.6198 32.1137 18.0737C32.0977 18.0567 32.0872 18.0325 32.0571 18.0307C32.0346 18.0652 32.047 18.104 32.047 18.1404C32.0457 18.7674 32.0483 19.3941 32.0443 20.021C32.0428 20.268 31.9213 20.4486 31.6952 20.5548C31.4842 20.6538 31.2773 20.6373 31.0899 20.5006C30.9013 20.3627 30.8293 20.1669 30.8297 19.9389C30.8312 19.2012 30.8303 18.4635 30.8303 17.7259C30.8303 16.3303 30.8303 14.9345 30.8303 13.5389C30.8303 13.2185 30.984 12.9897 31.2535 12.9049C31.6234 12.7884 32.0072 13.0445 32.0396 13.4318C32.0461 13.5108 32.0407 13.5908 32.0407 13.6702C32.0485 13.6742 32.0565 13.6781 32.064 13.6821ZM35.8027 15.8362C35.7955 15.6778 35.7797 15.5028 35.7458 15.3288C35.521 14.178 34.374 13.5411 33.286 13.9841C32.5251 14.2938 32.1222 14.8892 32.0651 15.6882C32.0047 16.5319 32.3348 17.2071 33.0965 17.626C33.8424 18.0361 34.7226 17.892 35.2761 17.2929C35.6509 16.8874 35.7909 16.3923 35.8027 15.8362Z" fill="#818792"/>
<path d="M41.4184 16.3927C40.7519 16.3927 40.0853 16.3941 39.419 16.3908C39.3259 16.3904 39.3093 16.4093 39.3375 16.4989C39.5234 17.0861 39.8676 17.5384 40.4567 17.7779C40.8348 17.9315 41.2255 17.9057 41.6144 17.8218C41.9199 17.7559 42.1881 17.6116 42.4391 17.4289C42.6266 17.2921 42.8353 17.2537 43.0506 17.3667C43.2521 17.4723 43.3481 17.6465 43.3412 17.8689C43.3344 18.0795 43.2334 18.2433 43.0574 18.3635C42.6959 18.61 42.2997 18.7773 41.8687 18.8592C41.2432 18.9779 40.6192 18.9943 40.0165 18.7563C39.0421 18.3716 38.4099 17.665 38.1598 16.6677C37.8469 15.4198 38.1608 14.3204 39.1474 13.4632C40.4314 12.3471 42.3839 12.5924 43.3841 13.9652C43.7846 14.5148 43.9915 15.1265 43.9999 15.804C44.0044 16.1651 43.7766 16.3929 43.4073 16.3929C42.7443 16.3931 42.0814 16.3927 41.4184 16.3927ZM42.7574 15.3739C42.6757 15.0122 42.529 14.6992 42.2953 14.4287C41.7984 13.8534 41.0611 13.6609 40.4015 13.9511C39.8169 14.2082 39.4884 14.6794 39.3198 15.275C39.2945 15.3639 39.3164 15.3758 39.4004 15.3756C40.4845 15.3733 41.5685 15.3741 42.6523 15.3741C42.6837 15.3741 42.7153 15.3739 42.7574 15.3739Z" fill="#818792"/>
<path d="M27.9294 13.9003H27.7949C26.8618 13.9003 25.9289 13.9012 24.9959 13.8999C24.6272 13.8993 24.3824 13.5578 24.5038 13.2185C24.5693 13.0358 24.7674 12.8955 24.9834 12.8859C25.106 12.8805 25.2289 12.8839 25.3517 12.8837C26.5197 12.8837 27.6877 12.883 28.8555 12.8839C29.1918 12.8841 29.433 13.0564 29.5187 13.3655C29.5815 13.5921 29.525 13.7962 29.3673 13.9723C28.2726 15.1951 27.1776 16.4178 26.0826 17.6407C26.0435 17.6846 26.0047 17.7286 25.9641 17.7744C25.9946 17.8018 26.0308 17.7887 26.063 17.7889C27.0521 17.7898 28.0412 17.7893 29.0303 17.7893C29.3454 17.7893 29.5775 18.0032 29.5783 18.2942C29.5791 18.5869 29.3421 18.806 29.0223 18.806C27.6858 18.8062 26.3496 18.8056 25.0133 18.8064C24.7247 18.8064 24.515 18.6821 24.3963 18.4229C24.2788 18.1666 24.3264 17.9296 24.5123 17.7212C25.6493 16.4457 26.7899 15.1736 27.9294 13.9003Z" fill="#818792"/>
<path d="M9.57862 8.00021C9.80536 8.07982 10.0355 8.15008 10.2574 8.24279C10.7805 8.46105 11.2566 8.75373 11.6909 9.11459C12.249 9.57813 12.6997 10.1288 13.0448 10.7607C13.293 11.2153 13.4686 11.6984 13.5819 12.2048C13.6846 12.6639 13.7095 13.1266 13.7082 13.5948C13.7036 15.1565 13.6985 16.7184 13.7092 18.2801C13.7164 19.3473 14.0528 20.3072 14.7341 21.1447C15.1272 21.6278 15.5931 22.0207 16.1474 22.3144C16.4386 22.4689 16.7396 22.5965 17.0557 22.6867C17.3401 22.768 17.4967 23.0752 17.407 23.3328C17.3089 23.6148 17.0302 23.7475 16.7312 23.656C16.315 23.5288 15.9144 23.366 15.5375 23.15C15.183 22.9467 14.8522 22.711 14.5491 22.4373C14.2333 22.1521 13.9486 21.8386 13.7055 21.4919C13.4017 21.0585 13.1612 20.591 12.9884 20.0904C12.7659 19.4456 12.6833 18.7838 12.688 18.1032C12.6985 16.5243 12.6997 14.9449 12.688 13.3659C12.6797 12.2736 12.3115 11.302 11.6022 10.4607C11.1824 9.9629 10.6776 9.5692 10.0885 9.28296C9.8561 9.17009 9.61651 9.07073 9.36535 9.00587C9.12345 8.94331 8.97418 8.73564 8.96828 8.54046C8.96092 8.28686 9.08071 8.11745 9.33461 8.02162C9.34682 8.01705 9.35693 8.00728 9.36787 8C9.43798 8 9.50851 8.00021 9.57862 8.00021Z" fill="#6DC4CC"/>
<path d="M6 13.2786C6.03579 13.2123 6.06274 13.1391 6.10906 13.0809C6.21432 12.9489 6.3558 12.883 6.52907 12.8834C7.04087 12.8847 7.55267 12.8826 8.06426 12.8839C8.34806 12.8845 8.56849 13.1048 8.5687 13.3867C8.56933 15.0268 8.56933 16.6671 8.56891 18.3071C8.56891 18.5747 8.33838 18.8048 8.06763 18.8058C7.55941 18.8079 7.05119 18.8064 6.54296 18.8066C6.28295 18.8066 6.09769 18.6717 6.01979 18.4258C6.01579 18.4134 6.00674 18.4025 6.00021 18.3909C6.00021 18.3217 6.00021 18.2525 6.00021 18.183C6.00674 18.1753 6.01726 18.1685 6.01937 18.1598C6.07558 17.9305 6.31432 17.7785 6.57159 17.7877C6.86213 17.7979 7.15329 17.7881 7.44425 17.7914C7.51541 17.7922 7.54109 17.7748 7.54088 17.6993C7.53878 16.4642 7.5392 15.229 7.5413 13.9939C7.5413 13.9213 7.51962 13.8987 7.44614 13.8995C7.13771 13.903 6.82928 13.9028 6.52086 13.9003C6.34148 13.8989 6.19537 13.8249 6.092 13.6794C6.05453 13.6266 6.03032 13.5648 6 13.5073C6 13.431 6 13.3549 6 13.2786Z" fill="#6DC4CC"/>
<path d="M16.9885 8.00021C17.0988 8.04116 17.2098 8.0767 17.2954 8.16713C17.5548 8.44047 17.4253 8.89425 17.0618 9.00109C16.2786 9.23099 15.5971 9.6301 15.0232 10.2076C14.8385 10.3936 14.5312 10.4007 14.3352 10.2356C14.1234 10.0573 14.0836 9.76397 14.2486 9.54675C14.3044 9.47337 14.3752 9.41018 14.443 9.34636C14.9842 8.83771 15.6068 8.45378 16.299 8.1796C16.4445 8.12202 16.598 8.08419 16.7479 8.03762C16.7744 8.02931 16.8028 8.02578 16.8199 8L16.9885 8.00021Z" fill="#6BC5CC"/>
<path d="M15.2604 13.3403C15.2604 12.7978 15.4114 12.2952 15.6908 11.8327C16.0066 11.3095 16.4462 10.9112 17.0026 10.6464C17.4342 10.441 17.891 10.3346 18.373 10.3481C18.5927 10.3543 18.8128 10.5379 18.8429 10.7395C18.8835 11.0124 18.7561 11.244 18.5214 11.3251C18.445 11.3515 18.3671 11.3623 18.2854 11.366C17.4224 11.404 16.8171 11.8281 16.4508 12.5881C16.3154 12.8689 16.2775 13.1774 16.2773 13.4877C16.2765 15.0804 16.2725 16.6733 16.279 18.266C16.2826 19.1461 16.782 19.8715 17.6209 20.2037C17.8418 20.291 18.078 20.3276 18.3191 20.3268C18.5953 20.3257 18.7881 20.4823 18.8458 20.7423C18.9111 21.0367 18.6698 21.3395 18.3637 21.3418C17.6087 21.3474 16.9386 21.1077 16.363 20.6305C15.7544 20.126 15.3954 19.4791 15.2826 18.699C15.2575 18.526 15.2609 18.3539 15.2604 18.1814C15.2561 16.5566 15.2604 14.9631 15.2604 13.3403Z" fill="#6BC5CC"/>
<path d="M11.1281 13.3403C11.1281 12.7978 10.9771 12.2952 10.6977 11.8327C10.3819 11.3095 9.94235 10.9112 9.38591 10.6464C8.95432 10.441 8.49747 10.3346 8.01556 10.3481C7.79577 10.3543 7.57576 10.5379 7.54566 10.7395C7.50502 11.0124 7.6324 11.244 7.86714 11.3251C7.94356 11.3515 8.02146 11.3623 8.10314 11.366C8.96611 11.404 9.57139 11.8281 9.93772 12.5881C10.0731 12.8689 10.111 13.1774 10.1112 13.4877C10.112 15.0804 10.116 16.6733 10.1095 18.266C10.1059 19.1461 9.60655 19.8715 8.76758 20.2037C8.54673 20.291 8.31052 20.3276 8.06946 20.3268C7.79324 20.3257 7.60039 20.4823 7.54271 20.7423C7.47744 21.0367 7.71871 21.3395 8.02483 21.3418C8.77979 21.3474 9.44992 21.1077 10.0255 20.6305C10.6342 20.126 10.9931 19.4791 11.106 18.699C11.131 18.526 11.1276 18.3539 11.1281 18.1814C11.1325 16.5566 11.1281 14.9631 11.1281 13.3403Z" fill="#6BC5CC"/>
<path d="M17.8304 13.4069C17.8304 13.0992 18.0473 12.8841 18.357 12.8839C18.8551 12.8837 19.3532 12.8901 19.8511 12.8818C20.1477 12.8768 20.396 13.1002 20.3987 13.379C20.4016 13.6869 20.1726 13.9001 19.8439 13.9003C19.5494 13.9005 19.2547 13.9026 18.9601 13.8989C18.8835 13.8978 18.8574 13.9176 18.8576 13.9972C18.8601 15.2263 18.8599 16.4554 18.8578 17.6846C18.8578 17.764 18.8772 17.7922 18.9633 17.7908C19.2648 17.7856 19.5665 17.7877 19.8681 17.7893C20.1679 17.791 20.397 18.0088 20.3989 18.2907C20.4008 18.5805 20.1743 18.8044 19.8703 18.8056C19.3582 18.8079 18.8462 18.8077 18.334 18.8058C18.0565 18.8048 17.8304 18.5745 17.8304 18.299C17.8304 14.6926 17.8304 42.8825 17.8304 13.4069Z" fill="#6EC4CA"/>
<path d="M8.9685 23.1764C8.96786 22.9611 9.10703 22.7605 9.31924 22.699C9.88305 22.5354 10.3984 22.2799 10.8679 21.9313C11.0473 21.7981 11.2126 21.6497 11.3715 21.494C11.5789 21.2911 11.8793 21.2832 12.0987 21.4786C12.2673 21.6287 12.3254 21.9667 12.1298 22.1737C11.9216 22.3942 11.6903 22.5886 11.4473 22.7705C11.0542 23.0646 10.6256 23.2962 10.1694 23.4793C9.99463 23.5496 9.81652 23.6109 9.63483 23.6618C9.29124 23.7581 8.96955 23.5234 8.9685 23.1764Z" fill="#6DC4CC"/>
<path d="M17.1172 39.7393H18.0547C18.0059 40.1885 17.8773 40.5905 17.6689 40.9453C17.4606 41.3001 17.166 41.5817 16.7852 41.79C16.4043 41.9951 15.929 42.0977 15.3594 42.0977C14.9427 42.0977 14.5635 42.0195 14.2217 41.8633C13.8831 41.707 13.5918 41.4857 13.3477 41.1992C13.1035 40.9095 12.9147 40.5628 12.7812 40.1592C12.651 39.7523 12.5859 39.2998 12.5859 38.8018V38.0938C12.5859 37.5957 12.651 37.1449 12.7812 36.7412C12.9147 36.3343 13.1051 35.986 13.3525 35.6963C13.6032 35.4066 13.9043 35.1836 14.2559 35.0273C14.6074 34.8711 15.0029 34.793 15.4424 34.793C15.9795 34.793 16.4336 34.8939 16.8047 35.0957C17.1758 35.2975 17.4639 35.5775 17.6689 35.9355C17.8773 36.2904 18.0059 36.7021 18.0547 37.1709H17.1172C17.0716 36.8389 16.987 36.554 16.8633 36.3164C16.7396 36.0755 16.5638 35.89 16.3359 35.7598C16.1081 35.6296 15.8102 35.5645 15.4424 35.5645C15.1266 35.5645 14.8483 35.6247 14.6074 35.7451C14.3698 35.8656 14.1696 36.0365 14.0068 36.2578C13.8473 36.4792 13.7269 36.7445 13.6455 37.0537C13.5641 37.363 13.5234 37.7064 13.5234 38.084V38.8018C13.5234 39.1501 13.5592 39.4772 13.6309 39.7832C13.7057 40.0892 13.818 40.3577 13.9678 40.5889C14.1175 40.82 14.3079 41.0023 14.5391 41.1357C14.7702 41.266 15.0436 41.3311 15.3594 41.3311C15.7598 41.3311 16.0788 41.2676 16.3164 41.1406C16.554 41.0137 16.7331 40.8314 16.8535 40.5938C16.9772 40.3561 17.0651 40.0713 17.1172 39.7393Z" fill="black"/>
<path d="M20.1836 34.5V42H19.2754V34.5H20.1836Z" fill="black"/>
<path d="M21.3945 39.417V39.3047C21.3945 38.9238 21.4499 38.5706 21.5605 38.2451C21.6712 37.9163 21.8307 37.6315 22.0391 37.3906C22.2474 37.1465 22.4997 36.9577 22.7959 36.8242C23.0921 36.6875 23.4242 36.6191 23.792 36.6191C24.1631 36.6191 24.4967 36.6875 24.793 36.8242C25.0924 36.9577 25.3464 37.1465 25.5547 37.3906C25.7663 37.6315 25.9274 37.9163 26.0381 38.2451C26.1488 38.5706 26.2041 38.9238 26.2041 39.3047V39.417C26.2041 39.7979 26.1488 40.151 26.0381 40.4766C25.9274 40.8021 25.7663 41.0869 25.5547 41.3311C25.3464 41.5719 25.0941 41.7607 24.7979 41.8975C24.5049 42.0309 24.1729 42.0977 23.8018 42.0977C23.4307 42.0977 23.097 42.0309 22.8008 41.8975C22.5046 41.7607 22.2507 41.5719 22.0391 41.3311C21.8307 41.0869 21.6712 40.8021 21.5605 40.4766C21.4499 40.151 21.3945 39.7979 21.3945 39.417ZM22.2979 39.3047V39.417C22.2979 39.6807 22.3288 39.9297 22.3906 40.1641C22.4525 40.3952 22.5452 40.6003 22.6689 40.7793C22.7959 40.9583 22.9538 41.0999 23.1426 41.2041C23.3314 41.305 23.5511 41.3555 23.8018 41.3555C24.0492 41.3555 24.2656 41.305 24.4512 41.2041C24.64 41.0999 24.7962 40.9583 24.9199 40.7793C25.0436 40.6003 25.1364 40.3952 25.1982 40.1641C25.2633 39.9297 25.2959 39.6807 25.2959 39.417V39.3047C25.2959 39.0443 25.2633 38.7985 25.1982 38.5674C25.1364 38.333 25.042 38.1263 24.915 37.9473C24.7913 37.765 24.6351 37.6217 24.4463 37.5176C24.2607 37.4134 24.0426 37.3613 23.792 37.3613C23.5446 37.3613 23.3265 37.4134 23.1377 37.5176C22.9521 37.6217 22.7959 37.765 22.6689 37.9473C22.5452 38.1263 22.4525 38.333 22.3906 38.5674C22.3288 38.7985 22.2979 39.0443 22.2979 39.3047Z" fill="black"/>
<path d="M30.5693 40.7793V36.7168H31.4775V42H30.6133L30.5693 40.7793ZM30.7402 39.666L31.1162 39.6562C31.1162 40.0078 31.0788 40.3333 31.0039 40.6328C30.9323 40.929 30.8151 41.1862 30.6523 41.4043C30.4896 41.6224 30.2764 41.7933 30.0127 41.917C29.749 42.0374 29.4284 42.0977 29.0508 42.0977C28.7936 42.0977 28.5576 42.0602 28.3428 41.9854C28.1312 41.9105 27.9489 41.7949 27.7959 41.6387C27.6429 41.4824 27.5241 41.279 27.4395 41.0283C27.3581 40.7777 27.3174 40.4766 27.3174 40.125V36.7168H28.2207V40.1348C28.2207 40.3724 28.2467 40.5693 28.2988 40.7256C28.3542 40.8786 28.4274 41.0007 28.5186 41.0918C28.613 41.1797 28.7171 41.2415 28.8311 41.2773C28.9482 41.3132 29.0687 41.3311 29.1924 41.3311C29.5765 41.3311 29.8809 41.2578 30.1055 41.1113C30.3301 40.9616 30.4912 40.7614 30.5889 40.5107C30.6898 40.2568 30.7402 39.9753 30.7402 39.666Z" fill="black"/>
<path d="M36.1846 40.9746V34.5H37.0928V42H36.2627L36.1846 40.9746ZM32.6299 39.417V39.3145C32.6299 38.9108 32.6787 38.5446 32.7764 38.2158C32.8773 37.8838 33.0189 37.599 33.2012 37.3613C33.3867 37.1237 33.6064 36.9414 33.8604 36.8145C34.1175 36.6842 34.404 36.6191 34.7197 36.6191C35.0518 36.6191 35.3415 36.6777 35.5889 36.7949C35.8395 36.9089 36.0511 37.0765 36.2236 37.2979C36.3994 37.516 36.5378 37.7796 36.6387 38.0889C36.7396 38.3981 36.8096 38.748 36.8486 39.1387V39.5879C36.8128 39.9753 36.7428 40.3236 36.6387 40.6328C36.5378 40.9421 36.3994 41.2057 36.2236 41.4238C36.0511 41.6419 35.8395 41.8096 35.5889 41.9268C35.3382 42.0407 35.0452 42.0977 34.71 42.0977C34.4007 42.0977 34.1175 42.0309 33.8604 41.8975C33.6064 41.764 33.3867 41.5768 33.2012 41.3359C33.0189 41.0951 32.8773 40.8118 32.7764 40.4863C32.6787 40.1576 32.6299 39.8011 32.6299 39.417ZM33.5381 39.3145V39.417C33.5381 39.6807 33.5641 39.9281 33.6162 40.1592C33.6715 40.3903 33.7562 40.5938 33.8701 40.7695C33.984 40.9453 34.1289 41.0837 34.3047 41.1846C34.4805 41.2822 34.6904 41.3311 34.9346 41.3311C35.234 41.3311 35.4798 41.2676 35.6719 41.1406C35.8672 41.0137 36.0234 40.846 36.1406 40.6377C36.2578 40.4294 36.349 40.2031 36.4141 39.959V38.7822C36.375 38.6032 36.318 38.4307 36.2432 38.2646C36.1715 38.0954 36.0771 37.9456 35.96 37.8154C35.846 37.682 35.7044 37.5762 35.5352 37.498C35.3691 37.4199 35.1722 37.3809 34.9443 37.3809C34.6969 37.3809 34.4837 37.4329 34.3047 37.5371C34.1289 37.638 33.984 37.778 33.8701 37.957C33.7562 38.1328 33.6715 38.3379 33.6162 38.5723C33.5641 38.8034 33.5381 39.0508 33.5381 39.3145Z" fill="black"/>
</svg>
